<?xml version="1.0" encoding="utf-8"?>
<!-- Generator: Adobe Illustrator 22.1.0, SVG Export Plug-In . SVG Version: 6.00 Build 0)  -->
<svg version="1.1" id="图层_1" xmlns="http://www.w3.org/2000/svg" xmlns:xlink="http://www.w3.org/1999/xlink" x="0px" y="0px"
	 viewBox="0 0 800 800" style="enable-background:new 0 0 800 800;" xml:space="preserve">
<style type="text/css">
	.st0{fill:#D3D3D5;}
	.st1{fill:#1B4275;}
	.st2{fill:#D70937;}
	.st3{fill:#D4D2D5;}
	.st4{fill:#FFFFFF;}
	.st5{fill:#D3D3D4;}
	.st6{fill:#D4D2D3;}
	.st7{fill:#D1D4D1;}
</style>
<g>
	<g>
		<polygon class="st0" points="101,489 164.7,542.3 164.7,437.3 		"/>
		<polygon class="st0" points="699,389.2 611.7,336.3 611.7,448 		"/>
	</g>
	<g>
		<path class="st1" d="M639,351c-16-43-46-130,25-259c0,0-114-42-264-42S136,92,136,92c71,129,41,216,25,259s-46,125-13,201
			s101,109.7,119,117c18,7.3,70,26.7,93.3,42.7c23.3,16,39.7,38.3,39.7,38.3s16.3-22.3,39.7-38.3c23.3-16,75.3-35.3,93.3-42.7
			c18-7.3,86-41,119-117S655,394,639,351z"/>
		<path class="st2" d="M400,65c-41.9,0-107.8,3.6-184.4,20.5c-25.3,5.6-45.2,11.2-58.1,15.2c64.6,128.9,31.9,217,17.5,255.5
			c-7.5,20.2-18.9,50.7-24.1,85.1c-6,39.2-2.3,74.4,10.8,104.6c32.8,75.5,103,105.9,110.9,109.1c2.7,1.1,6.2,2.5,10.2,4.1
			c24.2,9.6,64.8,25.6,85.9,40.1c11.6,8,21.6,17.3,29,25.1c0.6,0.6,1.4,0.9,2.2,0.9V65z"/>
		<path class="st1" d="M400,65c41.9,0,107.8,3.6,184.4,20.5c25.3,5.6,45.2,11.2,58.1,15.2c-64.6,128.9-31.9,217-17.5,255.5
			c7.5,20.2,18.9,50.7,24.1,85.1c6,39.2,2.3,74.4-10.8,104.6c-32.8,75.5-103,105.9-110.9,109.1c-2.7,1.1-6.2,2.5-10.2,4.1
			c-24.2,9.6-64.8,25.6-85.9,40.1c-11.6,8-21.6,17.3-29,25.1c-0.6,0.6-1.4,0.9-2.2,0.9V65z"/>
		<g>
			<g>
				<path class="st3" d="M484,69.4c-6.7-0.7-13.2-1.3-19.5-1.8v613.6c6.4-3,13-5.9,19.5-8.6V69.4z"/>
				<path class="st3" d="M422.5,705.7c2.8-2.2,5.7-4.4,8.7-6.4c3.2-2.2,6.9-4.4,10.8-6.7V66.1c-6.8-0.4-13.3-0.6-19.5-0.8V705.7z"/>
				<path class="st3" d="M610,91.6c-6-1.5-12.5-3.1-19.5-4.7v526.3c6.6-6.2,13.2-13.1,19.5-20.9V307.5c-6.5-29.8-9.8-68.6,0-115.7
					V91.6z"/>
				<path class="st3" d="M548.5,644.4c5.8-3.4,12.4-7.6,19.5-12.7V82.1c-6.6-1.3-13.1-2.6-19.5-3.7V644.4z"/>
				<path class="st3" d="M526,655.7v-581c-6.6-1-13.1-1.9-19.5-2.7v591.4c3.8-1.5,7.3-2.9,10.6-4.2
					C520.5,657.8,523.5,656.6,526,655.7z"/>
			</g>
			<g>
				<path class="st4" d="M425.5,703.4c1.8-1.4,3.7-2.8,5.7-4.1c2.4-1.6,5-3.3,7.8-4.9V66c-4.7-0.2-9.2-0.4-13.5-0.6V703.4z"/>
				<path class="st4" d="M523,656.9V74.2c-4.6-0.7-9.1-1.3-13.5-1.9v589.9c2.7-1.1,5.2-2.1,7.6-3C519.2,658.3,521.2,657.6,523,656.9
					z"/>
				<path class="st4" d="M481,69.1c-4.6-0.5-9.1-0.9-13.5-1.2v612c4.5-2,9-4,13.5-6V69.1z"/>
				<path class="st4" d="M551.5,642.7c4.2-2.5,8.7-5.4,13.5-8.8V81.5c-4.5-0.9-9-1.7-13.5-2.6V642.7z"/>
				<path class="st4" d="M607,90.9c-4.3-1.1-8.8-2.2-13.5-3.3v522.7c4.5-4.4,9.1-9.2,13.5-14.4V291.5c-3.6-23.3-4.8-51,0-82.9V90.9z
					"/>
			</g>
		</g>
		<path class="st4" d="M400,73c75.1,0,140.8,11,182.7,20.3c19.9,4.4,36.4,8.8,48.5,12.4C570.6,233.1,603.3,321,617.4,359
			c7.4,19.9,18.6,49.9,23.7,83.6c5.7,37.7,2.3,71.4-10.2,100.3c-31.5,72.5-99,101.8-106.6,104.9c-2.6,1.1-6.1,2.4-10,4l-0.1,0
			c-24.5,9.7-65.6,25.9-87.5,41c-9,6.2-18,13.7-26.7,22.5c-8.7-8.7-17.6-16.3-26.7-22.5c-21.9-15-63-31.3-87.5-41l-0.1,0
			c-4-1.6-7.5-2.9-10.1-4c-7.6-3.1-75.1-32.3-106.6-104.9c-12.5-28.8-16-62.6-10.2-100.3c5.1-33.6,16.3-63.7,23.7-83.6
			c14.1-38,46.9-125.9-13.7-253.3c12.1-3.5,28.6-8,48.5-12.4C293.2,76.5,358.5,73,400,73 M400,65c-41.9,0-107.8,3.6-184.4,20.5
			c-25.3,5.6-45.2,11.2-58.1,15.2c64.6,128.9,31.9,217,17.5,255.5c-7.5,20.2-18.9,50.7-24.1,85.1c-6,39.2-2.3,74.4,10.8,104.6
			c32.8,75.5,103,105.9,110.9,109.1c2.7,1.1,6.2,2.5,10.2,4.1c24.2,9.6,64.8,25.6,85.9,40.1c11.6,8,21.6,17.3,29,25.1
			c0.6,0.6,1.4,0.9,2.2,0.9s1.6-0.3,2.2-0.9c7.4-7.8,17.4-17.1,29-25.1c21.2-14.5,61.7-30.5,85.9-40.1c4.1-1.6,7.6-3,10.2-4.1
			c7.9-3.2,78.1-33.6,110.9-109.1c13.1-30.2,16.8-65.4,10.8-104.6c-5.2-34.4-16.6-64.9-24.1-85.1c-14.3-38.5-47.1-126.6,17.5-255.5
			c-12.8-4-32.8-9.6-58.1-15.2C542.1,76.2,475.9,65,400,65L400,65z"/>
	</g>
	<path class="st0" d="M566,426.2c-59,0-166-31-166-31V395c0,0-78-28-159-32s-140,30-140,30v96c26-16,74-32,133-32s166,31,166,31v0.2
		c0,0,78,28,159,32s140-30,140-30v-96C673,410.2,625,426.2,566,426.2z"/>
	<path class="st1" d="M566,421.2c-59,0-166-31-166-31V390c0,0-78-28-159-32s-140,30-140,30v96c26-16,74-32,133-32s166,31,166,31v0.2
		c0,0,78,28,159,32s140-30,140-30v-96C673,405.2,625,421.2,566,421.2z"/>
	<g>
		<path class="st5" d="M649,441.4c-2.8-18.7-7.5-36.2-12.3-51.6C634.6,401.4,619,467.1,530,527l36,5c0,0-53,83-166,33
			c-113,50-166-33-166-33l36-5c-89-59.9-104.6-125.6-106.7-137.2c-4.9,15.4-9.5,32.9-12.3,51.6c-6,39.2-2.3,74.4,10.8,104.6
			c32.8,75.5,103,105.9,110.9,109.1c2.7,1.1,6.2,2.5,10.2,4.1c24.2,9.6,64.8,25.6,85.9,40.1c11.6,8,21.6,17.3,29,25.1
			c0.6,0.6,1.4,0.9,2.2,0.9s1.6-0.3,2.2-0.9c7.4-7.8,17.4-17.1,29-25.1c21.2-14.5,61.7-30.5,85.9-40.1c4.1-1.6,7.6-3,10.2-4.1
			c7.9-3.2,78.1-33.6,110.9-109.1C651.4,515.8,655,480.6,649,441.4z"/>
		<path class="st1" d="M649.8,443c-2.6-18.2-7-35.4-11.6-50.5c0.6,9.8,4.1,93.2-47.1,156.7c-54.5,67.6-137.6,95.1-191.6,94.7
			s-136.8-28.9-190.4-97.3c-50.3-64.3-45.8-147.6-45-157.3c-4.8,15-9.4,32.1-12.3,50.3c-6.2,39.2-2.8,74.4,10.1,104.7
			C194.1,620.1,264.1,651,272,654.3c2.7,1.1,6.2,2.5,10.2,4.1c24.2,9.7,64.6,26,85.7,40.7c11.6,8,21.5,17.4,28.8,25.3
			c0.6,0.6,1.4,0.9,2.2,0.9c0.8,0,1.6-0.3,2.2-0.9c7.5-7.8,17.5-17,29.2-24.9c21.3-14.4,61.9-30.1,86.2-39.5c4.1-1.6,7.6-2.9,10.3-4
			c7.9-3.2,78.4-33.1,111.6-108.3C651.6,517.5,655.5,482.3,649.8,443z"/>
		<path class="st4" d="M636.3,417.9c2,8.5,3.7,16.7,4.9,24.7c5.7,37.7,2.3,71.4-10.2,100.3c-31.5,72.5-99,101.8-106.6,104.9
			c-2.6,1.1-6.1,2.4-10.1,4l-0.1,0c-24.5,9.7-65.6,25.9-87.5,41c-9,6.2-18,13.7-26.7,22.5c-8.7-8.7-17.6-16.3-26.7-22.5
			c-21.9-15-63-31.3-87.5-41l-0.1,0c-4-1.6-7.5-3-10.1-4c-7.6-3.1-75.1-32.3-106.6-104.9c-12.5-28.8-16-62.6-10.2-100.3
			c1.2-8,2.8-16.2,4.9-24.7c10.7,25.8,34.3,65.4,85.3,104l-16.1,2.2l-12.4,1.7l6.7,10.5c0.4,0.5,8.8,13.6,25.8,26.6
			c15.6,11.9,41.8,26.2,78.1,26.2c21.8,0,45-5.1,68.9-15.3c23.9,10.2,47.1,15.3,68.9,15.3c36.2,0,62.4-14.2,78.1-26.2
			c17-13,25.4-26,25.8-26.6l6.7-10.5l-12.4-1.7l-16.1-2.2C602,483.3,625.5,443.7,636.3,417.9 M636.7,389.8
			C634.6,401.4,619,467.1,530,527l36,5c0,0-31.3,49-97.1,49c-19.8,0-42.8-4.4-68.9-16c-26.2,11.6-49.1,16-68.9,16
			c-65.8,0-97.1-49-97.1-49l36-5c-89-59.9-104.6-125.6-106.7-137.2c-4.9,15.4-9.5,32.9-12.3,51.6c-6,39.2-2.3,74.4,10.8,104.6
			c32.8,75.5,103,105.9,110.9,109.1c2.7,1.1,6.2,2.5,10.2,4.1c24.2,9.6,64.8,25.6,85.9,40.1c11.6,8,21.6,17.3,29,25.1
			c0.6,0.6,1.4,0.9,2.2,0.9s1.6-0.3,2.2-0.9c7.4-7.8,17.4-17.1,29-25.1c21.2-14.5,61.7-30.5,85.9-40.1c4.1-1.6,7.6-3,10.2-4.1
			c7.9-3.2,78.1-33.6,110.9-109.1c13.1-30.2,16.8-65.4,10.8-104.6C646.2,422.7,641.6,405.2,636.7,389.8L636.7,389.8z"/>
	</g>
	<g>
		<path class="st1" d="M400,390V158h-29c0,0-1,102-4,208c-0.1,4.5-0.3,9.1-0.5,13.6C387.2,385.4,400,390,400,390z"/>
		<path class="st1" d="M357,476.7c-8.8,62.1-20,109.6-20,109.6l63,135.3V488.2V488C400,488,382.1,482.8,357,476.7z"/>
	</g>
	<g>
		<path class="st6" d="M434.7,399.4c-0.8-11.1-1.4-22.3-1.7-33.4c-3-106-4-208-4-208h-29v232v0.2C400,390.2,414,394.2,434.7,399.4z"
			/>
		<path class="st6" d="M400,488.2v233.5l63-135.3c0,0-8.3-35-16.2-84.2C418.5,494.8,400,488.2,400,488.2z"/>
	</g>
	<g>
		<path class="st4" d="M374.4,381.9c0.3-5.2,0.5-10.5,0.6-15.7c2.5-88,3.6-174.2,3.9-200.2H400h21.1c0.3,26,1.4,112.2,3.9,200.2
			c0.3,10.3,0.8,20.7,1.5,31.1c2.6,0.7,5.3,1.4,8.2,2.1c-0.8-11.1-1.4-22.3-1.7-33.4c-3-106-4-208-4-208h-29h-29c0,0-1,102-4,208
			c-0.1,4.5-0.3,9.1-0.5,13.6C369.3,380.4,371.9,381.2,374.4,381.9z"/>
		<path class="st4" d="M438.4,499.9c6.8,43.2,14,76.2,16.2,85.6L400,705.7l-54.6-120.2c2.5-10.9,11.8-53.5,19.4-106.9
			c-2.5-0.6-5.1-1.3-7.8-1.9c-8.8,62.1-20,109.6-20,109.6L400,725l63-138.7c0,0-8.3-35-16.2-84.2
			C443.9,501.3,441.1,500.6,438.4,499.9z"/>
	</g>
	<g>
		<path class="st4" d="M559.8,278.7l-5.7,20.7l-7.1-20.7h-22.6c-13.8-18.3-29.5-37.8-69.4-44.7c-40.5-7-78,13-78,13l8.7,1.3
			c-28,10.7-46,42.4-46,42.4c-1.2-2.3-3-4.5-5.4-6.5c-4.2-3.6-9.3-5.7-13.8-5.7c-2.7,0-7.4,0-12,1.9V259H283v19.6
			c-5-7.8-15.5-19.6-33.5-19.6c-25.4,0-39,23.8-39,41c0,8.8,3.5,19,9,26.6c4.4,6,11.8,12.9,23.5,14.8v0.9h194.7v16h20
			c3.6,0,7.9-1.8,11.4-4.8c3.7-3.2,5.9-7.2,6.2-11.2H522v16h22.3c8.8,0,16.6-5.7,19.9-14.5c2.7-7,19-55.2,19.7-57.2l2.7-7.9H559.8z"
			/>
		<g>
			<path class="st1" d="M281,287.5h-15.5c0,0-5-9.5-15-9.5s-20.5,9.5-20.5,23s11.5,21.5,19,21.5s15-5,16.5-9H281
				c0,0-8.5,22.5-31.5,22.5s-33-22.5-33-36s10.5-35,33-35S281,287.5,281,287.5z"/>
			<path class="st1" d="M320.5,284.5c-5,0-13.7,0-18,10.4V265H289v71h13.5v-34.3c2.1-4.1,5.7-8.5,11-7.7c9.5,1.5,8.5,8.5,8.5,8.5
				V336h13.5c0,0,0-32.5,0-38.5S327,284.5,320.5,284.5z"/>
			<path class="st1" d="M367,284c-12.5,0-24,6-24,16.5h14c0,0-1.5-8,10-8s10.5,12,6,13s-31.5-1.5-30,16.5s25.5,16.5,32.5,9v5h14
				c0,0,0-37,0-42S379.5,284,367,284z M375.5,318.5c0,3-0.8,8.2-9.3,8.2s-9.7-2.8-9.7-7s6.8-6.8,13.5-6.8c4,0,5.5-2.9,5.5-2.9
				S375.5,315.5,375.5,318.5z"/>
			<path class="st1" d="M426.3,284.7c-6,0-11.8,2.2-15.3,7.7v-7.7h-13v51.6h13v-35.9c2.5-2.7,6.1-5.7,10-5.7c7,0,9,4.3,9,12
				c0,7.7,0,29.3,0,29.3h13.3c0,0,0-26.7,0-37C443.3,288.7,435.7,284.7,426.3,284.7z"/>
			<path class="st1" d="M456.3,284.7c0,0,0,48.3,0,51.3s-1,4.7-3,4.7s-9.7,0-9.7,0v11.7c0,0,9.7,0,14,0c4.3,0,11.7-5.3,11.7-11
				c0-5.7,0-56.7,0-56.7H456.3z"/>
			<path class="st1" d="M502.7,284.2c-14.3,0-25.8,11.6-25.8,25.8s11.6,25.8,25.8,25.8c14.3,0,25.8-11.6,25.8-25.8
				S516.9,284.2,502.7,284.2z M502.7,322.5c-6.9,0-12.5-5.6-12.5-12.5s5.6-12.5,12.5-12.5s12.5,5.6,12.5,12.5
				S509.6,322.5,502.7,322.5z"/>
			<path class="st1" d="M528.5,284.7h14.2l12,35l9.7-35h14c0,0-17,50-19.7,57c-2.7,7-8.7,10.7-14.3,10.7c-5.7,0-16.3,0-16.3,0v-10.7
				c0,0,10,0,13.7,0c3.7,0,5.7-6.3,3.3-12.3S528.5,284.7,528.5,284.7z"/>
		</g>
		<path class="st7" d="M353.5,280c0,0,14.5-3.5,26.5,0c0,0,9.5-21,37-31C417,249,377.5,245,353.5,280z"/>
		<path class="st2" d="M387,246.5c0,0,60.3-18.5,103.1,35.5c0,0,16.8-7.1,29.4,2.7C519.5,284.7,486.5,211,387,246.5z"/>
	</g>
	<circle class="st4" cx="399" cy="153.8" r="65.8"/>
	<path class="st1" d="M399,94.8c-32.6,0-59,26.4-59,59s26.4,59,59,59c32.6,0,59-26.4,59-59S431.6,94.8,399,94.8z M407.7,198.1
		l-18.5-0.3l-12.8-14.3l8.8-9.6h26.9l9,9.8L407.7,198.1z M367,120.4l12.7-9.4l17.8,5.1v10.5l-21.9,15.8l-10.7-2.8L367,120.4z
		 M432,121.2l1.8,18.4L422,142l-21.5-15.5v-10.4l17.9-4.2L432,121.2z M440.6,175l-17.1,7l-8.9-9.7l9-27.5l11.1-2.3l8.9,15.2
		L440.6,175z M363.8,142.4l10.7,2.8l8.1,27.3l-8.5,9.3l-16.9-6.6l-2.5-17.4L363.8,142.4z M351.8,159.2l2.3,15.8l-1.2,8.8
		c-5.5-8.4-8.7-18.3-8.9-29L351.8,159.2z M443.4,176.6l3.2-18.1l7.4-4.3c-0.1,11.3-3.5,21.7-9.4,30.4L443.4,176.6z M441.3,118.8
		h-7.6l-13-8.9l-3-7.7C427,105.5,435.1,111.3,441.3,118.8z M379.6,102.4l-1.1,5.8l-13.3,9.8l-8.7,1.1
		C362.5,111.6,370.5,105.8,379.6,102.4z M381.8,206.1l7.6-5.2l18.2,0.3l7.6,5.3c-5.1,1.6-10.6,2.4-16.2,2.4
		C393,208.8,387.2,207.9,381.8,206.1z"/>
	<g>
		<path class="st4" d="M248,387.3l-10.8-0.2l-0.8,38.9l10.8,0.2c2.9,0.1,5.3-3.8,5.4-8.5L253,396C253.1,391.3,250.9,387.3,248,387.3
			z M246.7,416.5c0,2.2-1.2,3.9-2.5,3.9l-1.1,0c-0.5,0-0.8-0.6-0.8-1.4l0.5-24.8c0-0.8,0.4-1.4,0.9-1.4l1.1,0c1.3,0,2.4,1.8,2.3,4
			L246.7,416.5z"/>
		<path class="st4" d="M268.1,388.3l-4.9-0.3c-3.1-0.2-5.9,3.9-6.2,9.1l-1.5,29.3l5.7,0.3l0.9-16.6l4.8,0.2l-0.9,16.6l5.7,0.3
			l1.5-29.3C273.6,392.8,271.3,388.5,268.1,388.3z M262.4,404.7l0.4-7.4c0.1-2.1,1.2-3.7,2.5-3.6l0.3,0c1.2,0.1,2.2,1.8,2.1,3.9
			l-0.4,7.4L262.4,404.7z"/>
		<path class="st4" d="M322.5,396.2l-4.9-0.7c-3.1-0.4-6.2,3.4-6.9,8.5l-4.1,29l5.7,0.8l2.3-16.5l4.8,0.7l-2.3,16.5l5.7,0.8l4.1-29
			C327.5,401.2,325.6,396.7,322.5,396.2z M315.3,412l1-7.4c0.3-2,1.5-3.6,2.8-3.4l0.3,0c1.2,0.2,2,2,1.7,4l-1,7.4L315.3,412z"/>
		<polygon class="st4" points="281.2,423.7 284.5,390.6 278.5,390 274.7,428.8 279,429.2 280.7,429.4 288.3,430.1 288.9,424.5 		"/>
		
			<rect x="297.3" y="392.2" transform="matrix(0.9913 0.1314 -0.1314 0.9913 56.6952 -35.8804)" class="st4" width="5.8" height="38.9"/>
		<polygon class="st4" points="348.7,401.4 344.5,421.1 335.6,398.6 333.6,398.2 325.5,436.2 328.8,436.9 332.9,417.4 341.7,439.7 
			343.9,440.1 352,402.1 		"/>
		<polygon class="st4" points="443.5,426.7 439.1,446.4 431,423.9 429.2,423.5 420.7,461.4 423.8,462.1 428.1,442.7 435.9,464.9 
			438,465.3 446.6,427.4 		"/>
		<path class="st4" d="M420.4,421.1l-4.8-1.2c-3-0.8-6.6,2.6-7.9,7.6l-7.4,28.3l5.6,1.5l4.2-16.1l4.6,1.2l-4.2,16.1l5.6,1.5
			l7.4-28.3C424.9,426.6,423.5,421.9,420.4,421.1z M411.5,435.9l1.9-7.2c0.5-2,1.9-3.4,3.1-3l0.3,0.1c1.2,0.3,1.8,2.2,1.2,4.2
			l-1.9,7.2L411.5,435.9z"/>
		<path class="st4" d="M376.7,438.3l-0.1,0.3c-0.5,2.1-1.9,3.6-3.1,3.3l-2-0.4c-1.3-0.3-1.9-2.2-1.5-4.3l4.2-19.6
			c0.5-2.1,1.9-3.6,3.1-3.3l2,0.4c1.3,0.3,1.9,2.2,1.5,4.3l0,0.2l3.5,0.7l0.1-0.5c1-4.9-0.5-9.4-3.5-10l-5.1-1.1
			c-3-0.6-6.2,2.8-7.3,7.7l-4.3,20.1c-1,4.9,0.5,9.4,3.5,10l5.1,1.1c3,0.6,6.2-2.8,7.3-7.7l0.1-0.5L376.7,438.3z"/>
		<path class="st4" d="M556.1,478l0,0.3c-0.2,2.1-1.4,3.8-2.7,3.7l-2.1-0.2c-1.3-0.1-2.2-2-2-4.1l1.9-20c0.2-2.1,1.4-3.8,2.7-3.7
			l2.1,0.2c1.3,0.1,2.2,2,2,4.1l0,0.2l3.5,0.3l0-0.5c0.5-5-1.6-9.3-4.6-9.6l-5.2-0.5c-3-0.3-5.9,3.5-6.3,8.5l-2,20.5
			c-0.5,5,1.6,9.3,4.6,9.6l5.2,0.5c3,0.3,5.9-3.5,6.3-8.5l0-0.5L556.1,478z"/>
		<polygon class="st4" points="401.3,415 396.7,431 392.6,429.8 397.1,413.9 391.4,412.2 380.8,449.6 386.5,451.2 391.1,435 
			395.3,436.2 390.6,452.4 396.3,454 407,416.7 		"/>
		<path class="st4" d="M458.8,431.3l-6.7,28.9c-0.4,1.9-1.7,3.2-2.8,2.9c-1.1-0.3-1.7-2-1.3-3.9l2-8.4l-5.8-1.3l-2.1,9.1
			c-1.1,4.6,0.3,8.8,3.1,9.4l5.7,1.3c2.8,0.6,5.8-2.5,6.9-7.1l6.9-29.6L458.8,431.3z"/>
		<path class="st4" d="M478.7,435.6l-4.9-1c-3-0.6-6.3,3-7.3,8l-4,20c-1,5,0.6,9.6,3.7,10.2l4.9,1c3,0.6,6.3-3,7.3-8l4-20
			C483.4,440.8,481.7,436.3,478.7,435.6z M472.7,464.4c-0.4,2-1.7,3.5-3,3.2l0,0c-1.2-0.2-1.9-2.1-1.5-4.1l3.9-19.4
			c0.4-2,1.7-3.5,3-3.2l0,0c1.2,0.2,1.9,2.1,1.5,4.1L472.7,464.4z"/>
		<path class="st4" d="M498.2,439.4l-2.6,13.5c-0.4,2-1.7,3.5-2.9,3.3c-1.2-0.2-1.9-2.1-1.5-4.1l2.6-13.5l-5.7-1.1l-2.4,12.6
			c-0.9,4.8,0.5,9.1,3.2,10.2l-3.1,16.3l5.9,1.1l3.1-16.3c2.9,0,5.8-3.5,6.8-8.3l2.4-12.6L498.2,439.4z"/>
		<path class="st4" d="M534.8,450.9l0.4-3.4c0.1-1.2-0.3-2.3-1.1-2.4l-6.3-0.8L525,444l-3.1-0.4l-4.6,38.6l5.9,0.7l2-16.5l5.2,0.6
			l0.7-5.7l-5.2-0.6l1.3-10.7L534.8,450.9z"/>
	</g>
</g>
</svg>
