<?xml version="1.0" encoding="utf-8"?>
<!-- Generator: Adobe Illustrator 22.1.0, SVG Export Plug-In . SVG Version: 6.00 Build 0)  -->
<svg version="1.1" id="图层_1" xmlns="http://www.w3.org/2000/svg" xmlns:xlink="http://www.w3.org/1999/xlink" x="0px" y="0px"
	 viewBox="0 0 800 800" style="enable-background:new 0 0 800 800;" xml:space="preserve">
<style type="text/css">
	.st0{fill:#1B4275;}
</style>
<g>
	<path class="st0" d="M469.7,467.6c1.2,0.2,2.6-1.2,3-3.2l3.9-19.4c0.4-2-0.3-3.9-1.5-4.1s-2.6,1.2-3,3.2l-3.9,19.4
		C467.9,465.5,468.5,467.3,469.7,467.6z"/>
	<path class="st0" d="M418.1,429.9c0.5-2,0-3.9-1.2-4.2l-0.3-0.1c-1.2-0.3-2.6,1-3.1,3l-1.9,7.2l4.6,1.2L418.1,429.9z"/>
	<path class="st0" d="M267.6,397.5c0.1-2.1-0.8-3.8-2.1-3.9l-0.3,0c-1.2-0.1-2.3,1.6-2.5,3.6l-0.4,7.4l4.8,0.2L267.6,397.5z"/>
	<path class="st0" d="M321.1,405.3c0.3-2-0.5-3.8-1.7-4l-0.3,0c-1.2-0.2-2.5,1.3-2.8,3.4l-1,7.4l4.8,0.7L321.1,405.3z"/>
	<path class="st0" d="M244.8,392.9l-1.1,0c-0.5,0-0.9,0.6-0.9,1.4l-0.5,24.8c0,0.8,0.3,1.4,0.8,1.4l1.1,0c1.3,0,2.4-1.7,2.5-3.9
		l0.4-19.6C247.2,394.7,246.1,392.9,244.8,392.9z"/>
	<path class="st0" d="M638.2,546c-32.8,75.5-103,105.9-110.9,109.1c-2.7,1.1-6.2,2.5-10.2,4.1c-24.2,9.6-64.8,25.6-85.9,40.1
		c-11.6,8-21.6,17.3-29,25.1c-0.6,0.6-1.4,0.9-2.2,0.9s-1.6-0.3-2.2-0.9c-7.4-7.8-17.4-17.1-29-25.1c-21.2-14.5-61.7-30.5-85.9-40.1
		c-4.1-1.6-7.6-3-10.2-4.1c-7.9-3.2-78.1-33.6-110.9-109.1c-10-23-14.5-48.8-13.4-77.1c-5.3,1.6-10.4,3.2-15.2,5
		c-0.4,25.5,3.6,52.2,14.8,78.1c33,76,101,109.7,119,117c18,7.3,70,26.7,93.3,42.7c23.3,16,39.7,38.3,39.7,38.3s16.3-22.3,39.7-38.3
		c23.3-16,75.3-35.3,93.3-42.7c18-7.3,86-41,119-117c6.8-15.6,10.9-31.5,13-47.2c-4.9,1.7-10.2,3.4-16,5
		C646.8,522.5,643.2,534.6,638.2,546z"/>
	<path class="st0" d="M161,351c-1.2,3.4-2.6,6.9-4,10.8c5.5-1.4,11.3-2.7,17.4-3.9c0.2-0.5,0.4-1.1,0.6-1.6
		c14.3-38.5,47.1-126.6-17.5-255.5c12.9-4,32.8-9.6,58.1-15.2C292.2,68.6,358.1,65,400,65c75.9,0,142.1,11.2,184.4,20.5
		c25.3,5.6,45.2,11.2,58.1,15.2c-64.6,128.9-31.9,217-17.5,255.5c4.9,13.1,11.4,30.6,16.8,50.7c5-1.3,9.8-2.6,14.4-4.1
		c-5.5-20.3-12-38.1-17.2-51.9c-16-43-46-130,25-259c0,0-114-42-264-42S136,92,136,92C207,221,177,308,161,351z"/>
	<path class="st0" d="M610,338v75.2c8.3-1.2,16.3-2.6,23.9-4.3c-5.3-19.7-11.7-36.9-16.5-49.8C615.3,353.2,612.6,346.1,610,338z"/>
	<path class="st0" d="M610,159.7c5.2-17.1,12.2-35.2,21.1-54.1c-6-1.7-13.1-3.7-21.1-5.8V159.7z"/>
	<path class="st0" d="M660,401.7c13.7-4.5,25.4-9.7,34.8-15l-49.4-29.9C650,369.1,655.3,384.4,660,401.7z"/>
	<path class="st0" d="M101,489l31.7,26.6c-2.4-12.8-3.6-26.3-3.5-40.2C118.1,479.6,108.6,484.3,101,489z"/>
	<path class="st0" d="M642.9,411.7c2.4,9.4,4.5,19.4,6.1,29.7c3.4,22.4,3.7,43.5,0.8,63.2c30.6-8.7,49.1-19.4,49.1-19.4v-96
		C685.6,397.4,666.4,405.6,642.9,411.7z"/>
	<path class="st0" d="M151,441.4c2.8-18.7,7.5-36.2,12.3-51.6c0.1,0.4,0.1,0.8,0.2,1.2c0,0,0,0,0,0c0,0,0,0.1,0,0.1
		c0,0.1,0,0.2,0.1,0.3c0,0.2,0.1,0.3,0.1,0.5c0,0.1,0,0.2,0.1,0.3c0,0.1,0,0.1,0,0.2c0,0,0,0,0,0c2.1,9.5,9,33.1,29.6,62
		c12.8-1.6,26.3-2.6,40.5-2.6c59,0,166,31,166,31v0.2c0,0,70.8,25.4,147.5,31.3c48.7-37.2,71.2-75.1,81.4-99.5
		c-18.9,3.9-40,6.3-62.8,6.3c-59,0-166-31-166-31V390c0,0-78-28-159-32s-140,30-140,30v96c11.7-7.2,27.9-14.4,47.6-20.2
		C149,456.5,149.8,449,151,441.4z M543.4,477.2l2-20.5c0.5-5,3.3-8.8,6.3-8.5l5.2,0.5c3,0.3,5.1,4.6,4.6,9.6l0,0.5l-3.5-0.3l0-0.2
		c0.2-2.1-0.7-4-2-4.1l-2.1-0.2c-1.3-0.1-2.5,1.5-2.7,3.7l-1.9,20c-0.2,2.1,0.7,4,2,4.1l2.1,0.2c1.3,0.1,2.5-1.5,2.7-3.7l0-0.3
		l3.5,0.3l0,0.5c-0.5,5-3.3,8.8-6.3,8.5l-5.2-0.5C545,486.5,543,482.2,543.4,477.2z M521.9,443.6l3.1,0.4l2.8,0.3l6.3,0.8
		c0.8,0.1,1.2,1.2,1.1,2.4l-0.4,3.4l-7.7-0.9l-1.3,10.7l5.2,0.6l-0.7,5.7l-5.2-0.6l-2,16.5l-5.9-0.7L521.9,443.6z M485.7,450
		l2.4-12.6l5.7,1.1l-2.6,13.5c-0.4,2,0.3,3.9,1.5,4.1c1.2,0.2,2.5-1.2,2.9-3.3l2.6-13.5l5.7,1.1l-2.4,12.6c-0.9,4.8-3.8,8.3-6.8,8.3
		l-3.1,16.3l-5.9-1.1l3.1-16.3C486.2,459.1,484.7,454.8,485.7,450z M473.8,434.7l4.9,1c3,0.6,4.7,5.2,3.7,10.2l-4,20
		c-1,5-4.3,8.6-7.3,8l-4.9-1c-3-0.6-4.7-5.2-3.7-10.2l4-20C467.5,437.6,470.8,434.1,473.8,434.7z M449.3,463.1
		c1.1,0.3,2.4-1,2.8-2.9l6.7-28.9l5.8,1.3l-6.9,29.6c-1.1,4.6-4.1,7.7-6.9,7.1l-5.7-1.3c-2.8-0.6-4.1-4.8-3.1-9.4l2.1-9.1l5.8,1.3
		l-2,8.4C447.6,461.1,448.2,462.8,449.3,463.1z M431,423.9l8,22.5l4.4-19.7l3.1,0.7l-8.6,37.9l-2.1-0.4l-7.8-22.2l-4.4,19.4
		l-3.1-0.7l8.6-37.9L431,423.9z M415.7,419.8l4.8,1.2c3,0.8,4.4,5.5,3.1,10.5l-7.4,28.3l-5.6-1.5l4.2-16.1l-4.6-1.2l-4.2,16.1
		l-5.6-1.5l7.4-28.3C409.1,422.4,412.6,419,415.7,419.8z M397.1,413.9l-4.6,16l4.2,1.2l4.6-16l5.7,1.6L396.3,454l-5.7-1.6l4.6-16.2
		l-4.2-1.2l-4.6,16.2l-5.7-1.6l10.7-37.4L397.1,413.9z M364.3,436.1l4.3-20.1c1-4.9,4.3-8.4,7.3-7.7l5.1,1.1c3,0.6,4.5,5.1,3.5,10
		l-0.1,0.5l-3.5-0.7l0-0.2c0.5-2.1-0.2-4-1.5-4.3l-2-0.4c-1.3-0.3-2.7,1.2-3.1,3.3l-4.2,19.6c-0.5,2.1,0.2,4,1.5,4.3l2,0.4
		c1.3,0.3,2.7-1.2,3.1-3.3l0.1-0.3l3.5,0.7l-0.1,0.5c-1,4.9-4.3,8.4-7.3,7.7l-5.1-1.1C364.8,445.5,363.2,441,364.3,436.1z
		 M335.6,398.6l9,22.5l4.2-19.7l3.3,0.7l-8.1,38l-2.2-0.4l-8.7-22.3l-4.2,19.5l-3.3-0.7l8.1-38L335.6,398.6z M310.6,404
		c0.7-5.1,3.8-8.9,6.9-8.5l4.9,0.7c3.1,0.4,5,5,4.3,10.1l-4.1,29l-5.7-0.8l2.3-16.5l-4.8-0.7l-2.3,16.5l-5.7-0.8L310.6,404z
		 M299.9,392l5.8,0.8l-5.1,38.5l-5.8-0.8L299.9,392z M278.5,390l6,0.6l-3.3,33.1l7.7,0.8l-0.6,5.6l-7.7-0.8l-1.7-0.2l-4.3-0.4
		L278.5,390z M257,397.2c0.3-5.2,3-9.2,6.2-9.1l4.9,0.3c3.1,0.2,5.5,4.5,5.2,9.7l-1.5,29.3l-5.7-0.3l0.9-16.6l-4.8-0.2l-0.9,16.6
		l-5.7-0.3L257,397.2z M237.1,387l10.8,0.2c2.9,0.1,5.1,4,5,8.8l-0.5,21.6c-0.1,4.8-2.5,8.6-5.4,8.5l-10.8-0.2L237.1,387z"/>
	<path class="st0" d="M484,510.5v69.6c8.1-1,15.6-2.7,22.5-4.9v-60.7C498.8,513.3,491.2,512,484,510.5z"/>
	<path class="st0" d="M526,517.3v49.6c9.1-4.9,16.5-10.4,22.5-15.6v-21.7L530,527c4-2.7,7.8-5.4,11.5-8.1
		C536.3,518.5,531.1,517.9,526,517.3z"/>
	<path class="st0" d="M400,488.2V488c0,0-0.1,0-0.3-0.1c0.1,0,0.1,0,0.2,0c0,0-0.1,0-0.2-0.1c-0.2-0.1-0.6-0.2-1.1-0.3c0,0,0,0,0,0
		c-0.2-0.1-0.5-0.2-0.8-0.2c0.1,0,0.1,0,0.1,0c-0.1,0-0.2-0.1-0.3-0.1c0,0,0.1,0,0.1,0c-16-4.5-109.8-30.3-163.6-30.3
		c-13,0-25.4,0.8-37.2,2.2c15.9,21.2,39.2,45,73.2,67.8l-36,5c0,0,31.3,49,97.1,49c2.3,0,4.7-0.1,7.2-0.2c1.5-6.7,4.2-19.2,7.4-35.8
		c0.1-0.7,0.3-1.4,0.4-2.1c0.7-3.5,1.3-7.2,2-11c0.1-0.8,0.3-1.5,0.4-2.3c0.8-4.7,1.7-9.6,2.6-14.6c0.4-2.5,0.9-5.1,1.3-7.8
		c0.4-2.6,0.9-5.3,1.3-8c0.1-0.9,0.3-1.8,0.4-2.7c0.3-1.8,0.6-3.7,0.9-5.5c0.1-0.9,0.3-1.9,0.4-2.8c0.3-1.9,0.6-3.8,0.8-5.7
		c0.3-1.9,0.6-3.8,0.8-5.8c1.3,0.3,2.5,0.6,3.7,0.9c0.1,0,0.3,0.1,0.4,0.1c1.2,0.3,2.4,0.6,3.5,0.9c0,0,0.1,0,0.1,0c0,0,0,0,0,0
		c-7.6,53.4-16.9,96-19.4,106.9L400,705.7V488.2z"/>
	<path class="st0" d="M449.1,515.5c0.2,1.4,0.5,2.9,0.7,4.3c0.5,2.8,1,5.6,1.5,8.3s1,5.3,1.4,7.9c3.9,21,7.3,36.9,9.1,44.8
		c0.9,0,1.8,0.1,2.8,0.1v-74.6c-6.5-1.5-12.6-3-18.3-4.5c0.2,0.1,0.4,0.1,0.6,0.2c0.2,1.5,0.5,3.1,0.7,4.6
		C448.1,509.7,448.6,512.6,449.1,515.5z"/>
	<path class="st0" d="M209.1,546.7c-34.1-43.5-43-95.7-45-127.9c-0.1-0.3-0.3-0.6-0.4-0.9c-2,8.5-3.7,16.7-4.9,24.7
		c-5.7,37.7-2.3,71.4,10.2,100.3c31.5,72.5,99,101.8,106.6,104.9c2.6,1.1,6.1,2.4,10.1,4l0.1,0c24.5,9.7,65.6,25.9,87.5,41
		c6.3,4.3,12.6,9.3,18.8,14.9l-30.8-67.9C311.2,629.6,251.1,600.4,209.1,546.7z"/>
	<path class="st0" d="M407.9,707.6c6.2-5.6,12.5-10.6,18.8-14.9c21.9-15,63-31.3,87.5-41l0.1,0c4-1.6,7.5-3,10.1-4
		c7.6-3.1,75.1-32.3,106.6-104.9c12.5-28.8,16-62.6,10.2-100.3c-0.9-6.2-2.1-12.5-3.6-18.9C635,456,625.1,507,591.1,549.3
		c-42.5,52.8-102.5,81.1-152.5,90.8L407.9,707.6z"/>
	<path class="st0" d="M399,94.8c-32.6,0-59,26.4-59,59s26.4,59,59,59c32.6,0,59-26.4,59-59S431.6,94.8,399,94.8z M400.5,116.1
		l17.9-4.2l13.6,9.3l1.8,18.4L422,142l-21.5-15.5V116.1z M397.5,116.1v10.5l-21.9,15.8l-10.7-2.8l2.1-19.2l12.7-9.4L397.5,116.1z
		 M379.6,102.4l-1.1,5.8l-13.3,9.8l-8.7,1.1C362.5,111.6,370.5,105.8,379.6,102.4z M352.9,183.9c-5.5-8.4-8.7-18.3-8.9-29l7.8,4.4
		l2.3,15.8L352.9,183.9z M357.2,175.1l-2.5-17.4l9.2-15.3l10.7,2.8l8.1,27.3l-8.5,9.3L357.2,175.1z M399,208.8c-6,0-11.8-1-17.2-2.8
		l7.6-5.2l18.2,0.3l7.6,5.3C410.1,208,404.6,208.8,399,208.8z M407.7,198.1l-18.5-0.3l-12.8-14.3l8.8-9.6h26.9l9,9.8L407.7,198.1z
		 M454,154.2c-0.1,11.3-3.5,21.7-9.4,30.4l-1.2-8l3.2-18.1L454,154.2z M440.6,175l-17.1,7l-8.9-9.7l9-27.5l11.1-2.3l8.9,15.2
		L440.6,175z M433.7,118.8l-13-8.9l-3-7.7c9.3,3.4,17.4,9.2,23.6,16.6H433.7z"/>
	<path class="st0" d="M464.5,75.6c-7.3-0.6-14.9-1.1-22.5-1.5V104c12.4,10.7,20.8,25.9,22.5,43.2V75.6z"/>
	<path class="st0" d="M250.5,278c10,0,15,9.5,15,9.5H281c0,0-9-22.5-31.5-22.5s-33,21.5-33,35s10,36,33,36s31.5-22.5,31.5-22.5
		h-15.5c-1.5,4-9,9-16.5,9s-19-8-19-21.5S240.5,278,250.5,278z"/>
	<path class="st0" d="M322,336h13.5c0,0,0-32.5,0-38.5s-8.5-13-15-13c-5,0-13.7,0-18,10.4V265H289v71h13.5v-34.3
		c2.1-4.1,5.7-8.5,11-7.7c9.5,1.5,8.5,8.5,8.5,8.5V336z"/>
	<path class="st0" d="M375.5,336h14c0,0,0-37,0-42s-10-10-22.5-10s-24,6-24,16.5h14c0,0-1.5-8,10-8s10.5,12,6,13s-31.5-1.5-30,16.5
		s25.5,16.5,32.5,9V336z M366.2,326.8c-8.5,0-9.7-2.8-9.7-7s6.8-6.8,13.5-6.8c4,0,5.5-2.9,5.5-2.9s0,5.4,0,8.4
		S374.7,326.8,366.2,326.8z"/>
	<path class="st0" d="M443.3,336c0,0,0-26.7,0-37c0-10.3-7.7-14.3-17-14.3c-6,0-11.8,2.2-15.3,7.7v-7.7h-13v51.6h13v-35.9
		c2.5-2.7,6.1-5.7,10-5.7c7,0,9,4.3,9,12c0,7.7,0,29.3,0,29.3H443.3z"/>
	<path class="st0" d="M469.3,341.3c0-5.7,0-56.7,0-56.7h-13c0,0,0,48.3,0,51.3s-1,4.7-3,4.7s-9.7,0-9.7,0v11.7c0,0,9.7,0,14,0
		C462,352.3,469.3,347,469.3,341.3z"/>
	<path class="st0" d="M528.5,310c0-14.3-11.6-25.8-25.8-25.8c-14.3,0-25.8,11.6-25.8,25.8s11.6,25.8,25.8,25.8
		C516.9,335.8,528.5,324.3,528.5,310z M502.7,322.5c-6.9,0-12.5-5.6-12.5-12.5s5.6-12.5,12.5-12.5s12.5,5.6,12.5,12.5
		S509.6,322.5,502.7,322.5z"/>
	<path class="st0" d="M558.7,341.7c2.7-7,19.7-57,19.7-57h-14l-9.7,35l-12-35h-14.2c0,0,14.2,38.7,16.5,44.7s0.3,12.3-3.3,12.3
		c-3.7,0-13.7,0-13.7,0v10.7c0,0,10.7,0,16.3,0C550,352.3,556,348.7,558.7,341.7z"/>
	<path class="st0" d="M353.5,280c0,0,14.5-3.5,26.5,0c0,0,9.5-21,37-31C417,249,377.5,245,353.5,280z"/>
	<path class="st0" d="M490.1,282c0,0,16.8-7.1,29.4,2.7c0,0-33-73.7-132.5-38.2C387,246.5,447.3,228,490.1,282z"/>
	<path class="st0" d="M217.3,93.3c-19.9,4.4-36.4,8.8-48.5,12.4C228,230,198.2,316.8,183.6,356.2c17.3-2.8,36.6-4.2,57.4-3.2
		c48.2,2.4,95.4,13.3,125.7,21.7c0,0,0,0,0,0c0.1-2.9,0.2-5.8,0.3-8.7c0.2-7.9,0.4-15.8,0.6-23.7H243v-0.9
		c-11.6-1.9-19.1-8.9-23.5-14.8c-5.6-7.6-9-17.8-9-26.6c0-17.2,13.6-41,39-41c18,0,28.5,11.8,33.5,19.6V259h25.5v21.4
		c4.6-1.9,9.3-1.9,12-1.9c4.5,0,9.6,2.1,13.8,5.7c2.3,2,4.1,4.2,5.4,6.5c0,0,11.3-19.8,29.8-33.4c0.3-16.2,0.6-31.1,0.8-44.2
		c-22-10.7-37.1-33.2-37.1-59.2c0-36.4,29.5-65.8,65.8-65.8c8.3,0,16.2,1.5,23.5,4.3v-19c-7.4-0.2-14.9-0.3-22.5-0.3
		C358.5,73,293.2,76.5,217.3,93.3z"/>
	<path class="st0" d="M400,342.3h-24.4c-0.2,7.9-0.4,15.9-0.6,23.9c-0.1,3.6-0.2,7.1-0.4,10.7c15.9,4.6,25.4,8,25.4,8V342.3z"/>
	<path class="st0" d="M400,219.6c-0.3,0-0.7,0-1,0c-7.3,0-14.2-1.2-20.8-3.4c-0.1,9.3-0.3,19.5-0.5,30.3c2.3-1.2,10.6-5.1,22.3-8.5
		V219.6z"/>
	<path class="st0" d="M377.6,252.1c2.6-1.4,5.3-2.7,8.1-3.8l-8-1.2C377.7,248.8,377.6,250.4,377.6,252.1z"/>
	<path class="st0" d="M442,203.7v29c4.3,0.2,8.6,0.6,13,1.4c3.3,0.6,6.5,1.2,9.5,2v-75.5C462.8,177.7,454.4,193,442,203.7z"/>
	<path class="st0" d="M464.5,356.5c-2.3,1.2-4.7,1.8-6.8,1.8H442v37.9c7,1.7,14.6,3.5,22.5,5.3V356.5z"/>
	<path class="st0" d="M506.5,80c-7.3-0.9-14.8-1.8-22.5-2.6v165.4c9.2,4.3,16.4,9.5,22.5,15.2V80z"/>
	<path class="st0" d="M484,405.7c7.4,1.5,15,2.9,22.5,4.2v-67.6H484V405.7z"/>
	<path class="st0" d="M548.5,357.9c-1.4,0.3-2.7,0.5-4.2,0.5H526v54.6c7.8,1.1,15.3,1.9,22.5,2.5V357.9z"/>
	<path class="st0" d="M548.5,283.2V86.5c-7.1-1.3-14.6-2.5-22.5-3.7v195.9h21L548.5,283.2z"/>
	<path class="st0" d="M590.5,95.1c-2.6-0.6-5.2-1.2-7.8-1.8c-4.6-1-9.5-2.1-14.7-3.1v188.5h18.7l-2.7,7.9
		c-0.5,1.6-10.3,30.3-16,46.7v82.8c7.7,0,15.2-0.4,22.5-0.9V95.1z"/>
</g>
</svg>
