<?xml version="1.0" encoding="utf-8"?>
<!-- Generator: Adobe Illustrator 22.1.0, SVG Export Plug-In . SVG Version: 6.00 Build 0)  -->
<svg version="1.1" id="图层_1" xmlns="http://www.w3.org/2000/svg" xmlns:xlink="http://www.w3.org/1999/xlink" x="0px" y="0px"
	 viewBox="0 0 800 800" style="enable-background:new 0 0 800 800;" xml:space="preserve">
<style type="text/css">
	.st0{fill:#1B4275;}
</style>
<path class="st0" d="M631.1,105.7c-9,18.9-15.9,36.9-21.1,54.1V99.9C618.1,102,625.1,103.9,631.1,105.7z M633.9,408.8
	c-5.3-19.7-11.7-36.9-16.5-49.8c-2.2-5.9-4.8-12.9-7.4-21.1v75.2C618.3,412,626.3,410.5,633.9,408.8z M645.4,356.7
	c4.6,12.4,10,27.7,14.6,44.9c13.7-4.5,25.4-9.7,34.8-15L645.4,356.7z M129.2,475.4c-11.1,4.3-20.6,9-28.2,13.6l31.7,26.6
	C130.3,502.7,129.1,489.3,129.2,475.4z M642.9,411.7c2.4,9.4,4.5,19.4,6.1,29.7c3.4,22.4,3.7,43.5,0.8,63.2
	c30.6-8.7,49.1-19.4,49.1-19.4v-96C685.6,397.4,666.4,405.6,642.9,411.7z M475.1,440.8c-1.2-0.2-2.6,1.2-3,3.2l-3.9,19.4
	c-0.4,2,0.3,3.9,1.5,4.1c1.2,0.2,2.6-1.2,3-3.2l3.9-19.4C477,442.9,476.3,441.1,475.1,440.8z M416.8,425.7l-0.3-0.1
	c-1.2-0.3-2.6,1-3.1,3l-1.9,7.2l4.6,1.2l1.9-7.2C418.6,427.9,418,426,416.8,425.7z M628.8,414.9c-10.2,24.5-32.6,62.3-81.4,99.5
	C470.8,508.6,400,483,400,483s-107-31-166-31c-14.2,0-27.8,0.9-40.5,2.6c-23-32.2-28.9-57.9-30.2-64.8c-4.9,15.4-9.5,32.9-12.3,51.6
	c-1.2,7.6-1.9,15.1-2.4,22.5c-19.7,5.7-35.9,13-47.6,20.2v-96c0,0,59-34,140-30s159,32.2,159,32.2s107,31,166,31
	C588.8,421.2,610,418.8,628.8,414.9z M253,396c0.1-4.8-2.2-8.7-5-8.8l-10.8-0.2l-0.8,38.9l10.8,0.2c2.9,0.1,5.3-3.8,5.4-8.5L253,396
	z M268.1,388.3l-4.9-0.3c-3.1-0.2-5.9,3.9-6.2,9.1l-1.5,29.3l5.7,0.3l0.9-16.6l4.8,0.2l-0.9,16.6l5.7,0.3l1.5-29.3
	C273.6,392.8,271.3,388.5,268.1,388.3z M288.9,424.5l-7.7-0.8l3.3-33.1l-6-0.6l-3.8,38.7l4.3,0.4l1.7,0.2l7.7,0.8L288.9,424.5z
	 M305.6,392.7l-5.8-0.8l-5.1,38.5l5.8,0.8L305.6,392.7z M322.6,435.3l4.1-29c0.7-5.1-1.2-9.7-4.3-10.1l-4.9-0.7
	c-3.1-0.4-6.2,3.4-6.9,8.5l-4.1,29l5.7,0.8l2.3-16.5l4.8,0.7l-2.3,16.5L322.6,435.3z M352,402.1l-3.3-0.7l-4.2,19.7l-9-22.5
	l-1.9-0.4l-8.1,38l3.3,0.7l4.2-19.5l8.7,22.3l2.2,0.4L352,402.1z M380.2,439l-3.5-0.7l-0.1,0.3c-0.5,2.1-1.9,3.6-3.1,3.3l-2-0.4
	c-1.3-0.3-1.9-2.2-1.5-4.3l4.2-19.6c0.5-2.1,1.9-3.6,3.1-3.3l2,0.4c1.3,0.3,1.9,2.2,1.5,4.3l0,0.2l3.5,0.7l0.1-0.5
	c1-4.9-0.5-9.4-3.5-10l-5.1-1.1c-3-0.6-6.2,2.8-7.3,7.7l-4.3,20.1c-1,4.9,0.5,9.4,3.5,10l5.1,1.1c3,0.6,6.2-2.8,7.3-7.7L380.2,439z
	 M407,416.7l-5.7-1.6l-4.6,16l-4.2-1.2l4.6-16l-5.7-1.6l-10.7,37.4l5.7,1.6l4.6-16.2l4.2,1.2l-4.6,16.2l5.7,1.6L407,416.7z
	 M416.1,459.9l7.4-28.3c1.3-5-0.1-9.7-3.1-10.5l-4.8-1.2c-3-0.8-6.6,2.6-7.9,7.6l-7.4,28.3l5.6,1.5l4.2-16.1l4.6,1.2l-4.2,16.1
	L416.1,459.9z M438,465.3l8.6-37.9l-3.1-0.7l-4.4,19.7l-8-22.5l-1.8-0.4l-8.6,37.9l3.1,0.7l4.4-19.4l7.8,22.2L438,465.3z
	 M457.8,462.2l6.9-29.6l-5.8-1.3l-6.7,28.9c-0.4,1.9-1.7,3.2-2.8,2.9c-1.1-0.3-1.7-2-1.3-3.9l2-8.4l-5.8-1.3l-2.1,9.1
	c-1.1,4.6,0.3,8.8,3.1,9.4l5.7,1.3C453.6,469.9,456.7,466.8,457.8,462.2z M478.7,435.6l-4.9-1c-3-0.6-6.3,3-7.3,8l-4,20
	c-1,5,0.6,9.6,3.7,10.2l4.9,1c3,0.6,6.3-3,7.3-8l4-20C483.4,440.8,481.7,436.3,478.7,435.6z M504,440.5l-5.7-1.1l-2.6,13.5
	c-0.4,2-1.7,3.5-2.9,3.3c-1.2-0.2-1.9-2.1-1.5-4.1l2.6-13.5l-5.7-1.1l-2.4,12.6c-0.9,4.8,0.5,9.1,3.2,10.2l-3.1,16.3l5.9,1.1
	l3.1-16.3c2.9,0,5.8-3.5,6.8-8.3L504,440.5z M534.1,445.1l-6.3-0.8L525,444l-3.1-0.4l-4.6,38.6l5.9,0.7l2-16.5l5.2,0.6l0.7-5.7
	l-5.2-0.6l1.3-10.7l7.7,0.9l0.4-3.4C535.4,446.2,534.9,445.1,534.1,445.1z M556.9,448.8l-5.2-0.5c-3-0.3-5.9,3.5-6.3,8.5l-2,20.5
	c-0.5,5,1.6,9.3,4.6,9.6l5.2,0.5c3,0.3,5.9-3.5,6.3-8.5l0-0.5l-3.5-0.3l0,0.3c-0.2,2.1-1.4,3.8-2.7,3.7l-2.1-0.2
	c-1.3-0.1-2.2-2-2-4.1l1.9-20c0.2-2.1,1.4-3.8,2.7-3.7l2.1,0.2c1.3,0.1,2.2,2,2,4.1l0,0.2l3.5,0.3l0-0.5
	C562,453.3,560,449.1,556.9,448.8z M265.5,393.7l-0.3,0c-1.2-0.1-2.3,1.6-2.5,3.6l-0.4,7.4l4.8,0.2l0.4-7.4
	C267.7,395.4,266.8,393.7,265.5,393.7z M319.4,401.3l-0.3,0c-1.2-0.2-2.5,1.3-2.8,3.4l-1,7.4l4.8,0.7l1-7.4
	C321.4,403.3,320.6,401.5,319.4,401.3z M244.8,392.9l-1.1,0c-0.5,0-0.9,0.6-0.9,1.4l-0.5,24.8c0,0.8,0.3,1.4,0.8,1.4l1.1,0
	c1.3,0,2.4-1.7,2.5-3.9l0.4-19.6C247.2,394.7,246.1,392.9,244.8,392.9z M161,351c-1.2,3.4-2.6,6.9-4,10.8c5.5-1.4,11.3-2.7,17.4-3.9
	c0.2-0.5,0.4-1.1,0.6-1.6c14.3-38.5,47.1-126.6-17.5-255.5c12.9-4,32.8-9.6,58.1-15.2C292.2,68.6,358.1,65,400,65
	c75.9,0,142.1,11.2,184.4,20.5c25.3,5.6,45.2,11.2,58.1,15.2c-64.6,128.9-31.9,217-17.5,255.5c3.4,9.2,7.7,20.6,11.8,33.6
	c0,0,0,0,0,0c0,0.1,0.1,0.3,0.1,0.4c0.5,1.7,1.1,3.4,1.6,5.1c0,0.1,0.1,0.3,0.1,0.4c0.5,1.7,1,3.5,1.6,5.3c0.1,0.4,0.2,0.8,0.3,1.1
	c0.4,1.6,0.9,3.2,1.3,4.8c5-1.3,9.8-2.6,14.4-4.1c-5.5-20.3-12-38.1-17.2-51.9c-16-43-46-130,25-259c0,0-114-42-264-42
	S136,92,136,92C207,221,177,308,161,351z M649,509.8C649,509.8,649,509.8,649,509.8c-0.1,0.4-0.2,0.8-0.2,1.2
	c-0.3,1.5-0.6,3-0.9,4.5c-0.1,0.7-0.3,1.4-0.4,2c-0.3,1.3-0.6,2.5-0.9,3.7c-0.2,0.6-0.3,1.3-0.5,1.9c-0.5,1.8-1,3.6-1.5,5.3
	c-0.1,0.2-0.1,0.4-0.2,0.6c-0.5,1.6-1,3.2-1.5,4.8c-0.2,0.6-0.4,1.1-0.6,1.7c-0.4,1.3-0.9,2.5-1.4,3.8c-0.2,0.5-0.4,1.1-0.6,1.6
	c-0.7,1.7-1.4,3.5-2.1,5.2c-1.3,2.9-2.6,5.8-4,8.6c-0.5,1.1-1.1,2.2-1.7,3.3c-0.9,1.7-1.7,3.3-2.6,5c-1.6,2.8-3.2,5.5-4.8,8.2
	c-3.7,5.9-7.5,11.5-11.5,16.7c-0.8,1-1.5,2-2.3,3c-1,1.3-2,2.5-3,3.7c-2.8,3.4-5.7,6.6-8.6,9.7c-1.5,1.5-2.9,3-4.4,4.5
	s-2.9,2.9-4.4,4.3c-2.9,2.8-5.9,5.4-8.8,7.8c-3.6,3.1-7.2,5.9-10.7,8.6c-1.4,1.1-2.8,2.1-4.2,3.1c-5.5,3.9-10.7,7.3-15.5,10.2
	c-1.2,0.7-2.3,1.4-3.5,2.1c-1.7,1-3.3,1.9-4.9,2.7c-1,0.6-2,1.1-3,1.6c-1.4,0.7-2.8,1.4-4,2c-0.8,0.4-1.6,0.8-2.3,1.1
	c-0.7,0.4-1.4,0.7-2.1,1c-1.3,0.6-2.3,1.1-3.2,1.4c-0.6,0.3-1.1,0.5-1.5,0.6c-0.7,0.3-1.4,0.6-2.2,0.9c-1.2,0.5-2.4,1-3.8,1.5
	c-1.4,0.5-2.8,1.1-4.3,1.7c-21.1,8.3-54.7,21.6-76.9,34.5c-0.2,0.1-0.4,0.2-0.6,0.4c-3,1.8-5.8,3.5-8.3,5.2c0,0,0,0,0,0
	c-0.1,0.1-0.2,0.1-0.3,0.2c-1.2,0.8-2.3,1.6-3.5,2.5c-2.1,1.5-4.1,3.1-6.1,4.7c-0.3,0.2-0.6,0.5-0.9,0.7c-1.8,1.5-3.5,2.9-5.2,4.4
	c-0.1,0.1-0.2,0.2-0.3,0.3c-4.8,4.2-9.1,8.5-12.7,12.3c-0.6,0.6-1.4,0.9-2.2,0.9s-1.6-0.3-2.2-0.9c-6.4-6.7-14.6-14.6-24.2-21.7
	c-0.4-0.3-0.9-0.6-1.3-1c-0.8-0.6-1.7-1.2-2.5-1.8c-0.3-0.2-0.6-0.4-0.9-0.6c-2.4-1.6-5.1-3.3-7.9-5c-0.7-0.4-1.5-0.9-2.3-1.3
	c-2-1.1-4-2.2-6.1-3.4c-1.7-0.9-3.5-1.8-5.4-2.8s-3.7-1.8-5.6-2.8c-2.8-1.4-5.7-2.7-8.7-4.1c-2.9-1.3-5.9-2.7-8.9-4
	s-5.9-2.6-8.9-3.8c-1.7-0.7-3.3-1.4-5-2.1c-1.3-0.5-2.5-1-3.7-1.5c-1.9-0.8-3.8-1.6-5.7-2.3c-6.5-2.6-12.6-5-17.9-7.1
	c-0.5-0.2-1-0.4-1.5-0.6c-0.5-0.2-1-0.4-1.4-0.6c-2.4-0.9-4.5-1.8-6.3-2.5c-0.4-0.1-0.7-0.3-1-0.4c-0.4-0.2-0.9-0.4-1.5-0.6
	c-0.8-0.4-1.9-0.8-3.2-1.4c-0.6-0.3-1.3-0.6-2.1-1c-0.7-0.4-1.5-0.7-2.3-1.1c-1.2-0.6-2.6-1.3-4-2c-0.9-0.5-1.9-1-3-1.6
	c-1.5-0.8-3.2-1.8-4.9-2.7c-1.1-0.7-2.3-1.3-3.5-2.1c-4.8-2.9-10-6.3-15.5-10.2c-1.4-1-2.8-2-4.2-3.1c-3.5-2.6-7.1-5.5-10.7-8.6
	c-2.9-2.5-5.8-5.1-8.8-7.8c-1.5-1.4-2.9-2.8-4.4-4.3s-2.9-3-4.4-4.5c-2.9-3.1-5.8-6.3-8.6-9.7c-1-1.2-2-2.5-3-3.7
	c-0.8-1-1.6-2-2.3-3c-4-5.2-7.9-10.8-11.5-16.7c-1.6-2.7-3.3-5.4-4.8-8.2c-0.9-1.6-1.8-3.3-2.6-5c-0.6-1.1-1.1-2.2-1.7-3.3
	c-1.4-2.8-2.7-5.7-4-8.6c-0.7-1.7-1.4-3.4-2.1-5.2c-0.2-0.5-0.4-1.1-0.6-1.6c-0.5-1.2-0.9-2.5-1.4-3.8c-0.2-0.6-0.4-1.2-0.6-1.8
	c-0.5-1.4-1-2.9-1.4-4.4c-0.1-0.4-0.2-0.7-0.3-1c-0.5-1.7-1-3.5-1.5-5.3c-0.2-0.7-0.3-1.4-0.5-2.1c-0.3-1.1-0.6-2.3-0.8-3.4
	c-0.2-0.8-0.4-1.6-0.5-2.4c-0.2-1.1-0.5-2.3-0.7-3.4c-0.1-0.8-0.3-1.5-0.4-2.3c-0.3-1.7-0.6-3.4-0.8-5.1c-0.1-1-0.3-1.9-0.4-2.9
	c-0.1-0.9-0.2-1.8-0.3-2.8c-0.1-1.1-0.2-2.1-0.3-3.2c-0.1-0.8-0.1-1.7-0.2-2.5c-0.3-4-0.5-8-0.6-12.1c0-0.7,0-1.4,0-2.1
	c0-1.3,0-2.5,0-3.8c0-0.7,0-1.4,0-2.1c0-1.3,0-2.6,0.1-3.9c-5.3,1.6-10.4,3.2-15.2,5c-0.4,25.5,3.6,52.2,14.8,78.1
	c33,76,101,109.7,119,117c18,7.3,70,26.7,93.3,42.7c23.3,16,39.7,38.3,39.7,38.3s16.3-22.3,39.7-38.3c23.3-16,75.3-35.3,93.3-42.7
	c18-7.3,86-41,119-117c6.8-15.6,10.9-31.5,13-47.2C660.1,506.5,654.8,508.2,649,509.8z M404,489.5c0.1,0,0.2,0.1,0.3,0.1
	C404.2,489.6,404.1,489.6,404,489.5z M405,489.9c0.1,0,0.3,0.1,0.4,0.1C405.2,490,405.1,489.9,405,489.9z M402.9,489.2
	c-0.1,0-0.2-0.1-0.3-0.1C402.7,489.1,402.8,489.1,402.9,489.2z M408.3,491c-0.1,0-0.2-0.1-0.3-0.1
	C408.1,490.9,408.2,490.9,408.3,491z M400.1,488.2C400,488.2,400,488.2,400.1,488.2C400,488.2,400,488.2,400.1,488.2z M407.1,490.6
	c-0.1,0-0.2-0.1-0.3-0.1C406.9,490.5,407,490.5,407.1,490.6z M400.5,488.3c0.1,0,0.2,0.1,0.3,0.1
	C400.7,488.4,400.6,488.4,400.5,488.3z M411.7,492.1c0.1,0,0.2,0.1,0.3,0.1C411.9,492.1,411.8,492.1,411.7,492.1z M402.2,488.9
	c-0.1,0-0.3-0.1-0.4-0.1C401.9,488.8,402,488.9,402.2,488.9z M401.3,488.6c-0.1,0-0.2-0.1-0.3-0.1
	C401.1,488.6,401.2,488.6,401.3,488.6z M400.3,488.3c-0.1,0-0.1,0-0.2-0.1C400.2,488.2,400.2,488.3,400.3,488.3z M446.8,502.1
	c0.2,1.5,0.5,3.1,0.7,4.6c0.5,3,1,6,1.5,8.9c0.2,1.4,0.5,2.9,0.7,4.3c0.5,2.8,1,5.6,1.5,8.3s1,5.3,1.4,7.9c3.9,21,7.3,36.9,9.1,44.8
	c0.9,0,1.8,0.1,2.8,0.1v-74.6C458,504.9,446.6,502,446.8,502.1z M484,580.1c8.1-1,15.6-2.7,22.5-4.9v-60.7c-7.7-1.2-15.3-2.6-22.5-4
	V580.1z M530,527c4-2.7,7.8-5.4,11.5-8.1c-5.2-0.5-10.4-1-15.5-1.6v49.6c9.1-4.9,16.5-10.4,22.5-15.6v-21.7L530,527z M420.8,494.9
	c0.1,0,0.3,0.1,0.4,0.1C421.1,494.9,421,494.9,420.8,494.9z M416.3,493.5c-0.1,0-0.2-0.1-0.3-0.1
	C416.1,493.4,416.2,493.5,416.3,493.5z M345.6,545.1c0.1-0.7,0.3-1.4,0.4-2.1c0.7-3.5,1.3-7.2,2-11c0.1-0.8,0.3-1.5,0.4-2.3
	c0.8-4.7,1.7-9.6,2.6-14.6c0.4-2.5,0.9-5.1,1.3-7.8c0.4-2.6,0.9-5.3,1.3-8c0.1-0.9,0.3-1.8,0.4-2.7c0.3-1.8,0.6-3.7,0.9-5.5
	c0.1-0.9,0.3-1.9,0.4-2.8c0.3-1.9,0.6-3.8,0.8-5.7c0.3-1.9,0.6-3.8,0.8-5.8c1.3,0.3-68-19.7-123-19.7c-13,0-25.4,0.8-37.2,2.2
	c15.9,21.2,39.2,45,73.2,67.8l-36,5c0,0,31.3,49,97.1,49c2.3,0,4.7-0.1,7.2-0.2C339.7,574.1,342.4,561.6,345.6,545.1z M361.3,639.8
	c-50-10.2-110.1-39.3-152.2-93c-34.1-43.5-43-95.7-45-127.9c-0.1-0.3-0.3-0.6-0.4-0.9c-2,8.5-3.7,16.7-4.9,24.7
	c-5.7,37.7-2.3,71.4,10.2,100.3c31.5,72.5,99,101.8,106.6,104.9c2.6,1.1,6.1,2.4,10.1,4l0.1,0c24.5,9.7,65.6,25.9,87.5,41
	c6.3,4.3,12.6,9.3,18.8,14.9L361.3,639.8z M641.1,442.6c-0.9-6.2-2.1-12.5-3.6-18.9C635,456,625.1,507,591.1,549.3
	c-42.5,52.8-102.5,81.1-152.5,90.8l-30.7,67.6c6.2-5.6,12.5-10.6,18.8-14.9c21.9-15,63-31.3,87.5-41l0.1,0c4-1.6,7.5-3,10.1-4
	c7.6-3.1,75.1-32.3,106.6-104.9C643.4,514,646.9,480.3,641.1,442.6z M438.4,499.9c0.1,0-38.4-11.7-38.4-11.7v217.5l54.6-120.2
	C452.5,576.1,445.2,543.1,438.4,499.9z M458,153.8c0,32.6-26.4,59-59,59c-32.6,0-59-26.4-59-59s26.4-59,59-59
	C431.6,94.8,458,121.2,458,153.8z M421.1,183.8l-9-9.8h-26.9l-8.8,9.6l12.8,14.3l18.5,0.3L421.1,183.8z M364.9,139.5l10.7,2.8
	l21.9-15.8v-10.5l-17.8-5.1l-12.7,9.4L364.9,139.5z M418.4,111.9l-17.9,4.2v10.4L422,142l11.9-2.4l-1.8-18.4L418.4,111.9z
	 M443.7,157.7l-8.9-15.2l-11.1,2.3l-9,27.5l8.9,9.7l17.1-7L443.7,157.7z M354.6,157.7l2.5,17.4l16.9,6.6l8.5-9.3l-8.1-27.3
	l-10.7-2.8L354.6,157.7z M344,154.8c0.2,10.7,3.4,20.6,8.9,29l1.2-8.8l-2.3-15.8L344,154.8z M444.6,184.6c5.9-8.7,9.4-19.2,9.4-30.4
	l-7.4,4.3l-3.2,18.1L444.6,184.6z M417.7,102.1l3,7.7l13,8.9h7.6C435.1,111.3,427,105.5,417.7,102.1z M356.4,119.1l8.7-1.1l13.3-9.8
	l1.1-5.8C370.5,105.8,362.5,111.6,356.4,119.1z M399,208.8c5.6,0,11.1-0.9,16.2-2.4l-7.6-5.3l-18.2-0.3l-7.6,5.2
	C387.2,207.9,393,208.8,399,208.8z M249.5,265c-22.5,0-33,21.5-33,35s10,36,33,36s31.5-22.5,31.5-22.5h-15.5c-1.5,4-9,9-16.5,9
	s-19-8-19-21.5s10.5-23,20.5-23s15,9.5,15,9.5H281C281,287.5,272,265,249.5,265z M320.5,284.5c-5,0-13.7,0-18,10.4V265H289v71h13.5
	v-34.3c2.1-4.1,5.7-8.5,11-7.7c9.5,1.5,8.5,8.5,8.5,8.5V336h13.5c0,0,0-32.5,0-38.5S327,284.5,320.5,284.5z M389.5,294
	c0,5,0,42,0,42h-14v-5c-7,7.5-31,9-32.5-9s25.5-15.5,30-16.5s5.5-13-6-13s-10,8-10,8h-14c0-10.5,11.5-16.5,24-16.5
	S389.5,289,389.5,294z M375.5,310.1c0,0-1.5,2.9-5.5,2.9c-6.8,0-13.5,2.5-13.5,6.8s1.2,7,9.7,7s9.3-5.2,9.3-8.2
	S375.5,310.1,375.5,310.1z M426.3,284.7c-6,0-11.8,2.2-15.3,7.7v-7.7h-13v51.6h13v-35.9c2.5-2.7,6.1-5.7,10-5.7c7,0,9,4.3,9,12
	c0,7.7,0,29.3,0,29.3h13.3c0,0,0-26.7,0-37C443.3,288.7,435.7,284.7,426.3,284.7z M456.3,284.7c0,0,0,48.3,0,51.3s-1,4.7-3,4.7
	s-9.7,0-9.7,0v11.7c0,0,9.7,0,14,0c4.3,0,11.7-5.3,11.7-11c0-5.7,0-56.7,0-56.7H456.3z M528.5,310c0,14.3-11.6,25.8-25.8,25.8
	c-14.3,0-25.8-11.6-25.8-25.8s11.6-25.8,25.8-25.8C516.9,284.2,528.5,295.7,528.5,310z M515.2,310c0-6.9-5.6-12.5-12.5-12.5
	s-12.5,5.6-12.5,12.5s5.6,12.5,12.5,12.5S515.2,316.9,515.2,310z M545,329.3c2.3,6,0.3,12.3-3.3,12.3c-3.7,0-13.7,0-13.7,0v10.7
	c0,0,10.7,0,16.3,0c5.7,0,11.7-3.7,14.3-10.7c2.7-7,19.7-57,19.7-57h-14l-9.7,35l-12-35h-14.2C528.5,284.7,542.7,323.3,545,329.3z
	 M353.5,280c0,0,14.5-3.5,26.5,0c0,0,9.5-21,37-31C417,249,377.5,245,353.5,280z M387,246.5c0,0,60.3-18.5,103.1,35.5
	c0,0,16.8-7.1,29.4,2.7C519.5,284.7,486.5,211,387,246.5z M243,342.3v-0.9c-11.6-1.9-19.1-8.9-23.5-14.8c-5.6-7.6-9-17.8-9-26.6
	c0-17.2,13.6-41,39-41c18,0,28.5,11.8,33.5,19.6V259h25.5v21.4c4.6-1.9,9.3-1.9,12-1.9c4.5,0,9.6,2.1,13.8,5.7
	c2.3,2,4.1,4.2,5.4,6.5c0,0,11.3-19.8,29.8-33.4c0.3-16.2,0.6-31.1,0.8-44.2c-22-10.7-37.1-33.2-37.1-59.2
	c0-36.4,29.5-65.8,65.8-65.8c8.3,0,16.2,1.5,23.5,4.3v-19c-7.4-0.2-14.9-0.3-22.5-0.3c-41.5,0-106.8,3.5-182.7,20.3
	c-19.9,4.4-36.4,8.8-48.5,12.4C228,230,198.2,316.8,183.6,356.2c17.3-2.8,36.6-4.2,57.4-3.2c48.2,2.4,95.4,13.3,125.7,21.7
	c0.1-2.9,0.2-5.8,0.3-8.7c0.2-7.9,0.4-15.8,0.6-23.7H243z M422.1,233.5c-0.1-6.2-0.2-12.2-0.3-17.9c-6.8,2.5-14.1,3.9-21.8,4v18.5
	C406.4,236.2,413.9,234.5,422.1,233.5z M424.4,342.3H400V385v0.2c0,0,10.3,3,26.2,7.1c-0.5-8.7-1-17.4-1.2-26
	C424.8,358.2,424.6,350.3,424.4,342.3z M455,234c3.3,0.6,6.5,1.2,9.5,2v-75.5c-1.7,17.2-10.1,32.4-22.5,43.2v29
	C446.3,232.8,450.6,233.2,455,234z M506.5,258V80c-7.3-0.9-14.8-1.8-22.5-2.6v165.4C493.2,247.1,500.4,252.3,506.5,258z
	 M464.5,147.2V75.6c-7.3-0.6-14.9-1.1-22.5-1.5V104C454.4,114.7,462.8,129.9,464.5,147.2z M582.7,93.3c-4.6-1-9.5-2.1-14.7-3.1
	v188.5h18.7l-2.7,7.9c-0.5,1.6-10.3,30.3-16,46.7v82.8c7.7,0,15.2-0.4,22.5-0.9V95.1C587.9,94.5,585.3,93.9,582.7,93.3z M547,278.7
	l1.5,4.5V86.5c-7.1-1.3-14.6-2.5-22.5-3.7v195.9H547z M457.7,358.3H442v37.9c7,1.7,14.6,3.5,22.5,5.3v-45
	C462.2,357.7,459.8,358.3,457.7,358.3z M544.3,358.3H526v54.6c7.8,1.1,15.3,1.9,22.5,2.5v-57.5C547.1,358.2,545.8,358.3,544.3,358.3
	z M484,342.3v63.3c7.4,1.5,15,2.9,22.5,4.2v-67.6H484z"/>
</svg>
