<?xml version="1.0" encoding="utf-8"?>
<!-- Generator: Adobe Illustrator 22.1.0, SVG Export Plug-In . SVG Version: 6.00 Build 0)  -->
<svg version="1.1" id="图层_1" xmlns="http://www.w3.org/2000/svg" xmlns:xlink="http://www.w3.org/1999/xlink" x="0px" y="0px"
	 viewBox="0 0 800 800" style="enable-background:new 0 0 800 800;" xml:space="preserve">
<style type="text/css">
	.st0{fill:#FFFFFF;}
	.st1{fill:#2C2B57;}
	.st2{fill:#EE1B35;}
</style>
<g>
	<path class="st0" d="M400,50c-32.3,0-167,17-262,42.3c0,0,0,182.7,0,338.7s101,259,262,319c161-60,262-163,262-319s0-338.7,0-338.7
		C567,67,432.3,50,400,50z"/>
	<path class="st1" d="M400,56c30,0,159.7,15.9,256,41v334c0,37.5-6,72.9-17.9,105.1c-11.5,31.2-28.7,60.3-51.2,86.4
		C544,672.3,481.2,713,400,743.6c-81.2-30.5-144-71.2-186.8-121c-22.5-26.2-39.8-55.3-51.2-86.4C150,503.9,144,468.5,144,431V97
		C240.3,71.9,370,56,400,56 M400,50c-32.3,0-167,17-262,42.3c0,0,0,182.7,0,338.7s101,259,262,319c161-60,262-163,262-319
		s0-338.7,0-338.7C567,67,432.3,50,400,50L400,50z"/>
	<path class="st1" d="M400,60c29.5,0,156.4,15.5,252,40.1V431c0,37-5.9,71.9-17.7,103.8C623,565.5,606,594.2,583.8,620
		c-42.1,49-103.9,89.1-183.8,119.3c-79.9-30.2-141.7-70.4-183.8-119.3c-22.2-25.8-39.2-54.5-50.5-85.2C153.9,502.9,148,468,148,431
		V100.1C243.6,75.5,370.5,60,400,60z"/>
	<path class="st0" d="M311.2,668h4c-12.2-13.5-25.6-30.7-38.1-51.8l-8.4,0.1c-18.3-27.7-28.2-56.8-28.2-56.8h9l0.7-0.3
		c-5.7-15.8-10.6-33-14.4-51.6l-10.3,0.3c0,0-5.5-29.5-7.5-57h10.7c-0.4-7.8-0.7-15.7-0.7-23.9c0-9.1,0-18.1,0-27.1h-11.3v-57.5H228
		c0-17.6,0-34.8,0-51.5h-11.3v-30H228c0-39.4,0-75.4,0-106h-11.3v-29.3H228c0-11,0-21,0-29.8c-22.7,4.3-45.5,9.1-67,14.4
		c0,76.1,0,210.1,0,317.8c0,39,6.3,73.2,17.2,103.1c10.8,28.9,26.9,56,47.9,80.4c25.7,29.9,57.6,54.2,98.4,77.1
		c11,5.9,23.6,13.5,34.5,18.4c0,0-6.7-4.2-17-12.9C324.8,681,311.2,668,311.2,668z"/>
	<path class="st2" d="M172.4,513.5c0.4,1.5,0.9,3,1.4,4.5c0.4,1.3,0.8,2.6,1.3,4c0.1,0.5,0.3,0.9,0.4,1.4
		c4.5,13.2,9.8,25.6,15.9,37.2c0.1,0.3,0.3,0.5,0.4,0.8c0.6,1.1,1.2,2.3,1.8,3.4c0.4,0.7,0.8,1.4,1.1,2.1c0.4,0.7,0.8,1.4,1.2,2.1
		c0.6,1.1,1.3,2.2,1.9,3.3c0.2,0.3,0.4,0.7,0.6,1c8,13.3,17.2,26.1,27.6,38.3c19.4,22.5,43.2,43.2,71.2,61.8
		c17.6,11.5,35.1,20.9,51.1,28.4c0,0-146.3-72.7-146.3-284.7c0-139.1,0-253.7,0-316c-14,2.9-27.7,6-41,9.2c0,76.8,0,212.8,0,320.8
		c0,28.8,3.7,56.2,11.1,81.7C172.2,513,172.3,513.2,172.4,513.5z"/>
	<path class="st0" d="M488.8,668h-4c12.2-13.5,25.6-30.7,38.1-51.8l8.4,0.1c18.3-27.7,28.2-56.8,28.2-56.8h-9l-0.7-0.3
		c5.7-15.8,10.6-33,14.4-51.6l10.3,0.3c0,0,5.5-29.5,7.5-57h-10.7c0.4-7.8,0.7-15.7,0.7-23.9c0-9.1,0-18.1,0-27.1h11.3v-57.5H572
		c0-17.6,0-34.8,0-51.5h11.3v-30H572c0-39.4,0-75.4,0-106h11.3v-29.3H572c0-11,0-21,0-29.8c22.7,4.3,45.5,9.1,67,14.4
		c0,76.1,0,210.1,0,317.8c0,39-6.3,73.2-17.2,103.1c-10.8,28.9-26.9,56-47.9,80.4c-25.7,29.9-59.1,55.1-99.9,78
		c-11,5.9-22.1,12.7-33,17.5c0,0,6.7-4.2,17-12.9C475.2,681,488.8,668,488.8,668z"/>
	<path class="st2" d="M627.6,513.5c-0.4,1.5-0.9,3-1.4,4.5c-0.4,1.3-0.8,2.6-1.3,4c-0.1,0.5-0.3,0.9-0.4,1.4
		c-4.5,13.2-9.8,25.6-15.9,37.2c-0.1,0.3-0.3,0.5-0.4,0.8c-0.6,1.1-1.2,2.3-1.8,3.4c-0.4,0.7-0.8,1.4-1.1,2.1
		c-0.4,0.7-0.8,1.4-1.2,2.1c-0.6,1.1-1.3,2.2-1.9,3.3c-0.2,0.3-0.4,0.7-0.6,1c-8,13.3-17.2,26.1-27.6,38.3
		c-19.4,22.5-43.2,43.2-71.2,61.8c-17.6,11.5-35.1,20.9-51.1,28.4c0,0,146.3-72.7,146.3-284.7c0-139.1,0-253.7,0-316
		c14,2.9,27.7,6,41,9.2c0,76.8,0,212.8,0,320.8c0,28.8-3.7,56.2-11.1,81.7C627.8,513,627.7,513.2,627.6,513.5z"/>
	<path class="st0" d="M400,72.7c0,0-48,2-156.3,20c0,0,58.7-8,156.3-11.3c97.7,3.3,156.3,11.3,156.3,11.3
		C448,74.7,400,72.7,400,72.7z"/>
	<g>
		<path class="st1" d="M400,134.3c-87,0-168.3,5.3-282,33.3v132c0,0,119.7-34,282-34s282,34,282,34v-132
			C568.3,139.7,487,134.3,400,134.3z"/>
		<path class="st0" d="M400,134.3c87,0,168.3,5.3,282,33.3v132c0,0-119.7-34-282-34s-282,34-282,34v-132
			C231.7,139.7,313,134.3,400,134.3 M400,129.3c-88.4,0-170.4,5.7-283.2,33.5l-3.8,0.9v3.9v132v6.6l6.4-1.8
			c0.3-0.1,30.4-8.6,79.8-16.9c45.6-7.7,117.4-16.9,200.9-16.9s155.3,9.2,200.9,16.9c49.4,8.4,79.5,16.8,79.8,16.9l6.4,1.8l0-6.6
			v-132v-3.9l-3.8-0.9C570.4,135,488.4,129.3,400,129.3L400,129.3z"/>
	</g>
	<g>
		<path class="st0" d="M368.2,555.6c2.5,3.6,5.5,2.9,4.1,1.2s-2.5-9.4-3.4-16.2s-1.1-6.5-2-7.8s-2.4-1.8-5.1-2.6s-3.4-2.5-3.4-2.5
			c-0.6,3.8,0.5,6.6,2.9,13.9S365.8,552,368.2,555.6z"/>
		<path class="st0" d="M378.8,548.8c0.8-1.3,1.2-5.8,1.4-9.2c0.2-3.4-0.3-4.5-2.3-5c-1.5-0.4-4.6-0.7-6.1-0.9
			c-0.6-0.1-1.1,0.4-1.1,0.9c0,1.9,1.1,5.3,3.2,9.9C376.6,550.1,378,550.1,378.8,548.8z"/>
		<path class="st0" d="M386.7,547.9c2.9,0,2.9-8.1,2.7-11.2c0-0.7-0.6-1.3-1.3-1.4c-1.8-0.2-3.8-0.1-5.1,0c-0.7,0.1-1.2,0.8-1.1,1.5
			C382.4,540,383.8,547.9,386.7,547.9z"/>
		<path class="st0" d="M396.1,546.5c2.1-0.2,2.2-5.8,2.5-7.8c0.3-2.1,0.5-3.2-0.7-3.3c-1.2-0.2-5.8-0.1-5.8-0.1s-1.3-0.1-0.8,1.9
			C392.2,541.2,394,546.7,396.1,546.5z"/>
		<path class="st0" d="M375.3,580c-0.9,2.8-2.9,10.4-2,15.4c1.1,5.2,1.9,5,4,5.2s3.4,0,3.9,0s1.6-1.9,0.8-5.1
			c-0.8-2.8-3-12.7-5.2-15.8C376.3,579.2,375.5,579.3,375.3,580z"/>
		<path class="st0" d="M387.1,587.9c0,0-1.8,0-2.8,4.8s-1.5,7.9,1,8.4s4.8-0.4,5.1-1.4S390.4,588.4,387.1,587.9z"/>
		<path class="st0" d="M395.2,589.8c0,0-2,1.9-2.5,6.6s0.4,5.4,2.8,5.4s4.4,0,3.6-3.9S398,589.9,395.2,589.8z"/>
		<path class="st0" d="M361.6,457.4c-1.1,0.2-2.8-0.1-4-1.4c-1.2-1.3-1.1-3.9,0.2-5.6c0,0-4.3-3.2-8.8-4.2c0,0,1.3,1.9,1.7,4.7
			s0.5,8.2,5.2,9.2s6.2,0.8,9.2-0.7l-1.9-3.2C363.3,456.3,362.7,457.2,361.6,457.4z"/>
		<path class="st0" d="M310.5,365.7c0.8,5.7,2.5,23.2,2,35.2c0,0-15.5,1.8-20.8,3.4c0,0,8,11.4,10.8,12.1l-18.9,6.2l14.8,5.2
			c0,0-14.4,7.2-16.6,8.1c-2.2,0.9-7,3.2-8.9,3.2c0,0,0.4,2.2,4.3,2.2c3.9,0,7.8-0.3,7.8-0.3s-5.2,6.2-6.2,10.8
			c-1,4.6-0.6,9.5-0.6,9.5l16.2-8.8c0,0-14.6,25.3-13.1,46.8c0,0,4.8-12,22.2-13.2c0,0-9.3,20.7-3.8,48.8c0,0,3-11.2,13.1-19.7
			c2.6-2.3,5.7-5.2,5.7-5.2s-9.4,22.5,0.4,39.3c0,0,1-3.8,3.3-5.8s8.8-7.2,10.7-10.2c0,0,2.1,5.7,4.7,8.4s10.8,10,13.2,13.8
			s6.8,10.4,8.5,26.8c0,0,2.9-8.2,0-15.5s-7.5-12.8-9.2-15.2s-5.2-6.1-7.1-11.6l14.5,6.4c0,0-4.5-7.6-5-13.8s-0.1-9.9,2.1-13.9
			s9.5-15.9,9.5-15.9s-3,9.6-4,14.1c-2.6,8.4,8.4,14.6,17.6,14.9s22.5,0.4,22.5,0.4s13.2-0.1,22.5-0.4s20.2-6.5,17.6-14.9
			c-1-4.5-4-14.1-4-14.1s7.2,11.9,9.5,15.9s2.6,7.8,2.1,13.9s-5,13.8-5,13.8l14.5-6.4c-1.9,5.5-5.4,9.1-7.1,11.6s-6.4,8-9.2,15.2
			s0,15.5,0,15.5c1.8-16.4,6-23,8.5-26.8s10.6-11,13.2-13.8s4.7-8.4,4.7-8.4c1.8,3,8.3,8.2,10.7,10.2s3.3,5.8,3.3,5.8
			c9.8-16.8,0.4-39.3,0.4-39.3s3.1,2.8,5.7,5.2c10.1,8.5,13.1,19.7,13.1,19.7c5.5-28.2-3.8-48.8-3.8-48.8
			c17.3,1.2,22.2,13.2,22.2,13.2c1.5-21.5-13.1-46.8-13.1-46.8l16.2,8.8c0,0,0.4-4.9-0.6-9.5c-1-4.6-6.2-10.8-6.2-10.8
			s3.8,0.3,7.8,0.3c3.9,0,4.3-2.2,4.3-2.2c-1.9,0.1-6.8-2.2-8.9-3.2c-2.2-0.9-16.6-8.1-16.6-8.1l14.8-5.2l-18.9-6.2
			c2.8-0.7,10.8-12.1,10.8-12.1c-5.3-1.7-20.8-3.4-20.8-3.4c-0.5-12.1,1.2-29.6,2-35.2c0.8-5.7,2.5-15.3,4.5-25.7
			c2-10.3,4-24.9,4-24.9s-9.8,6.4-18.6,19.8s-18.9,30.2-26.1,43.2l6.9,13.6c0,0-14.2-11.9-22.9-14.6c0,0-23.9-0.6-37.2,5.9
			c-13.4-6.5-37.2-5.9-37.2-5.9c-8.6,2.8-22.9,14.6-22.9,14.6l6.9-13.6c-7.2-13-17.2-29.9-26.1-43.2S302,315.1,302,315.1
			s2,14.6,4,24.9C308,350.3,309.7,360,310.5,365.7z M366.2,475.7c-6.5,3.3-13.7,5.7-19.3,6.2c-5.7,0.5-8.8-1.8-12.5-5
			c-3.7-3.2-13-8.7-22.5-8.7c0,0,7.3-3.3,16.7-0.5s11.7,3.5,15.3,4.8c3.7,1.3,12.8,3,18.7,0.7c5.8-2.3,12-4.5,18.5-4.2
			C381,469,372.7,472.3,366.2,475.7z M379.7,408.5c0,0,15.8,5.7,20.3,20.7c4.5-15,20.3-20.7,20.3-20.7c-14.5,11-20.3,66.2-20.3,66.2
			S394.2,419.5,379.7,408.5z M419.6,509.5c-1.6,6.2-3,10.4-7.5,13.5s-12.1,2.1-12.1,2.1s-7.6,1-12.1-2.1s-5.9-7.2-7.5-13.5
			s-3-11.6-1-14.6s3.9-4.4,4.9-5s3.4-0.4,5.2,0.8c0.6,0.3,2.2,0,2.2,0s-3.3-9.6-9.7-11.2c0,0,7.6-0.3,11.2,5.5
			c2.1,3.3,3.2,4.2,4.1,4.6c0.9,0.4,3.3-0.3,1.6-4.8s-5.8-12-15.9-15.8c0,0,12.6,2.1,17,9.8c4.4-7.6,17-9.8,17-9.8
			c-10.1,3.8-14.2,11.3-15.9,15.8s0.7,5.2,1.6,4.8c0.9-0.4,2-1.2,4.1-4.6c3.7-5.8,11.2-5.5,11.2-5.5c-6.3,1.7-9.7,11.2-9.7,11.2
			s1.6,0.4,2.2,0c1.9-1.1,4.2-1.4,5.2-0.8s2.9,2,4.9,5S421.2,503.2,419.6,509.5z M488.2,468.2c-9.5,0-18.8,5.5-22.5,8.7
			c-3.7,3.2-6.8,5.5-12.5,5c-5.7-0.5-12.8-2.8-19.3-6.2c-6.5-3.3-14.8-6.7-14.8-6.7c6.5-0.3,12.7,1.8,18.5,4.2
			c5.8,2.3,15,0.7,18.7-0.7c3.7-1.3,6-2,15.3-4.8S488.2,468.2,488.2,468.2z M478.2,359.2c3.2-7,12.8-25,12.8-25s-6,25-8,34.3
			c-2,9.3-1.2,25-1.2,25c-7.3-11.8-7.3-14.5-8-18.3C473.2,371.3,475,366.2,478.2,359.2z M461.5,405.2c0,0-9.2,2.2-20.7,18.7
			c0,0,14.5-5,25-1c0,0-21.5-2.8-43.7,32.2C422.2,455,430.2,407.5,461.5,405.2z M434.6,447.6c8.4-7.3,13.5-8.5,24.5-11.9
			c11-3.4,17.2-11.6,18.8-13.8c1.6-2.2,3.9-3.5,3.9-3.5c-6.3,18.4-21.6,25.2-21.6,25.2s-2.9,6.3-3.8,8.8c-0.8,2.4-0.5,3.6-0.5,3.6
			s1.1-0.8,12.8-0.4c11.7,0.3,13.1,2.9,13.1,2.9c-21-1.3-23.7-0.2-27.7,3.2s-7.8,5-11.3,5.2c-3.6,0.2-7.8-0.1-9.4-0.5
			c-1.6-0.4-3.5-0.7-5.7-0.7c-2.2,0-6.5,2.1-6.5,2.1S426.2,454.9,434.6,447.6z M400,398.8c4.2-6.7,20.7-7.8,20.7-7.8
			c-16.5,5.2-20.7,19.8-20.7,19.8s-4.2-14.7-20.7-19.8C379.3,391,395.8,392.2,400,398.8z M372.3,465.6c-2.2,0-4.1,0.2-5.7,0.7
			c-1.6,0.4-5.8,0.7-9.4,0.5c-3.6-0.2-7.3-1.8-11.3-5.2s-6.7-4.5-27.7-3.2c0,0,1.4-2.6,13.1-2.9c11.7-0.3,12.8,0.4,12.8,0.4
			s0.3-1.2-0.5-3.6c-0.8-2.4-3.8-8.8-3.8-8.8s-15.3-6.8-21.6-25.2c0,0,2.3,1.3,3.9,3.5c1.6,2.2,7.8,10.3,18.8,13.8
			c11,3.4,16.1,4.6,24.5,11.9c8.4,7.3,13.4,20.1,13.4,20.1S374.5,465.6,372.3,465.6z M338.5,405.2c31.3,2.3,39.3,49.8,39.3,49.8
			c-22.2-35-43.7-32.2-43.7-32.2c10.5-4,25,1,25,1C347.7,407.3,338.5,405.2,338.5,405.2z M321.8,359.2c3.2,7,5,12.2,4.3,16
			c-0.7,3.8-0.7,6.5-8,18.3c0,0,0.8-15.7-1.2-25c-2-9.3-8-34.3-8-34.3S318.7,352.2,321.8,359.2z"/>
		<path class="st0" d="M407.6,491.1c-3.8-0.8-7.6-0.7-7.6-0.7s-3.9-0.1-7.6,0.7s-4.2,2.3-4.1,3.3s1,3.4,4.1,2.5s7.7-1,7.7-1
			s4.6,0.1,7.7,1s4-1.5,4.1-2.5S411.4,491.9,407.6,491.1z"/>
		<path class="st0" d="M437.9,575.3c0.4-4.9,1.8-8.4,3.5-12.9s7-10.6,9.1-13.2s4.1-6.3,4.1-6.3s-6.4,3.4-14.2,10.9
			s-8.6,21.6-8.5,25.1s0.2,10.4,0.1,17.5s-5.6,7.8-9.1,7.9s-22.9,1.2-22.9,1.2s-19.4-1.1-22.9-1.2s-9-0.8-9.1-7.9s0-14,0.1-17.5
			s-0.6-17.6-8.5-25.1s-14.2-10.9-14.2-10.9s2,3.6,4.1,6.3s7.4,8.8,9.1,13.2s3.1,7.9,3.5,12.9s-1.9,9.7-1.9,11.7s0,9.8,0,12.8
			s1.5,5.9,9.9,8.5s26.9,7.2,29.9,9.9c3-2.6,21.5-7.2,29.9-9.9s9.9-5.6,9.9-8.5s0-10.8,0-12.8S437.5,580.2,437.9,575.3z"/>
		<path class="st0" d="M444,460.2c4.8-1,4.9-6.5,5.2-9.2s1.7-4.7,1.7-4.7c-4.4,0.9-8.8,4.2-8.8,4.2c1.3,1.7,1.4,4.2,0.2,5.6
			c-1.2,1.3-2.9,1.6-4,1.4c-1.1-0.2-1.8-1.1-1.8-1.1l-1.9,3.2C437.8,461,439.2,461.2,444,460.2z"/>
		<path class="st0" d="M536,467.8c-2.8-10.3-6.8-19.8-6.8-19.8c3,0,6-1.7,10.2-5.2c4.2-3.5,10.9-9.8,10.9-9.8
			c-21.8-0.2-27-4.2-27-4.2l17.2-7.2c-4-2.2-27.8-8.5-27.8-8.5l14-13l-23.2-5.8c0,0-1-19.2,0.8-33s2.2-22.2,1.8-32.2
			s-3.5-20.2-3.5-20.2c-8.5-0.8-14.5,3-19.8,6.5s-15.8,15.2-23,25.2s-20.5,24-20.5,24l-32.4,0.5c-2.8,1.4-6.8,1.3-6.8,1.3
			s-4.1,0.1-6.8-1.3l-32.4-0.5c0,0-13.2-14-20.5-24s-17.8-21.8-23-25.2s-11.2-7.2-19.8-6.5c0,0-3,10.2-3.5,20.2s0,18.5,1.8,32.2
			s0.8,33,0.8,33l-23.2,5.8l14,13c0,0-23.8,6.2-27.8,8.5l17.2,7.2c0,0-5.2,4-27,4.2c0,0,6.8,6.3,10.9,9.8c4.2,3.5,7.2,5.2,10.2,5.2
			c0,0-4,9.5-6.8,19.8s-4.7,15.5-4.7,15.5l15.8-8.7c0,0-5.3,14.8-2.3,29.2s10.8,30.7,10.8,30.7s1.3-26.3,6-32.7
			c0,0-3.3,23.8,1.3,36.3s15,24,15,24l0.5-15.8c0,0,2.2,6.8,7,13.5s13,17.5,13,17.5s-1-10.2-1.2-15.5c-0.2-5.3,4.8-12.7,6.7-13.7
			c0,0,7.8,7.2,11.2,12.3c3.3,5.2,7,13,5.7,28c-1.3,15-1,12.2-1.2,16.8c-0.2,4.7,1.3,7.3,5,9.5c3.7,2.2,9.8,5.2,13.3,6.8
			c3.5,1.7,6,4,8.5,9.7s5.7,13.3,5.7,13.3l7.2-11c0,0,2.5,7.8,4.8,11c2.3,3.2,6,7.5,7.8,8.3c1.8-0.8,5.5-5.2,7.8-8.3
			c2.3-3.2,4.8-11,4.8-11l7.2,11c0,0,3.2-7.7,5.7-13.3s5-8,8.5-9.7c3.5-1.7,9.7-4.7,13.3-6.8c3.7-2.2,5.2-4.8,5-9.5
			c-0.2-4.7,0.2-1.8-1.2-16.8c-1.3-15,2.3-22.8,5.7-28c3.3-5.2,11.2-12.3,11.2-12.3c1.8,1,6.8,8.3,6.7,13.7
			c-0.2,5.3-1.2,15.5-1.2,15.5s8.2-10.8,13-17.5s7-13.5,7-13.5l0.5,15.8c0,0,10.3-11.5,15-24s1.3-36.3,1.3-36.3
			c4.7,6.3,6,32.7,6,32.7s7.8-16.3,10.8-30.7s-2.3-29.2-2.3-29.2l15.8,8.7C540.7,483.3,538.8,478.2,536,467.8z M511.7,459.2
			c16.7,32.2,8,48.8,8,48.8c-3.2-14.8-18.3-18.7-18.3-18.7s2,7.8,3.8,26.8c1.8,19-5.7,28-5.7,28c-0.6-16.2-13-25.8-13-25.8
			c8.8,23.6-5.9,39.2-5.9,39.2c0-3.8-2.4-7.2-4-9.2c-1.6-2.1-4.8-5.1-6.2-6.6c-1.4-1.5-3.4-4.1-3.4-4.1c0.1,2.1-1.2,3.8-2.2,4.8
			c-1.1,1.1-3.5,3.2-10.7,11.2s-9.3,20.5-9.3,25.3c0,4.8,1.1,17.8,1.3,24s-2.8,7.9-4.8,8.7s-10,4.4-13.3,6.1s-6.1,6.4-6.7,7.9
			s-2.7,6.1-2.7,6.1s-2-3.8-3.8-6.7s-2.8-3.8-4.1-3.6s-1.7,1.8-4.3,10.9s-6.4,12-6.4,12s-3.8-2.9-6.4-12s-3.1-10.7-4.3-10.9
			s-2.3,0.7-4.1,3.6s-3.8,6.7-3.8,6.7s-2.1-4.6-2.7-6.1s-3.4-6.2-6.7-7.9s-11.2-5.4-13.3-6.1s-5-2.4-4.8-8.7s1.3-19.2,1.3-24
			c0-4.8-2.2-17.3-9.3-25.3s-9.6-10.1-10.7-11.2c-1.1-1.1-2.3-2.8-2.2-4.8c0,0-2,2.6-3.4,4.1c-1.4,1.5-4.7,4.5-6.2,6.6
			c-1.6,2.1-4,5.4-4,9.2c0,0-14.7-15.6-5.9-39.2c0,0-12.4,9.5-13,25.8c0,0-7.5-9-5.7-28c1.8-19,3.8-26.8,3.8-26.8
			s-15.2,3.8-18.3,18.7c0,0-8.7-16.7,8-48.8L271,469.8c0,0,1.9-7.7,2.5-10.4s2.1-9.7,8.6-16.7c0,0-6.3-0.1-9.4-0.2s-6.8-3-7.4-3.8
			c0,0,2.7-0.2,7.9-1.9s20.7-8.8,20.7-8.8s-14.8-4.1-16.9-5.7l22.8-5.9l-14.2-13.2l16.9-4.4c0,0,1.2-13.2,0.7-21.8
			s-2.5-26.3-3.2-32.2s-0.2-20,2-29.8c7.8,0.7,13.5,6.9,17,10.2s15,16.8,23.3,27.7c8.3,10.8,16.4,17.5,16.4,17.5H390
			c0.3,0,0.7,0.1,1,0.3c1.9,1.1,6.2,2,9,2s7.1-0.9,9-2c0.3-0.2,0.6-0.3,1-0.3h31.3c0,0,8.1-6.7,16.4-17.5
			c8.3-10.8,19.8-24.3,23.3-27.7s9.2-9.6,17-10.2c2.2,9.8,2.7,23.9,2,29.8s-2.7,23.7-3.2,32.2s0.7,21.8,0.7,21.8l16.9,4.4
			l-14.2,13.2l22.8,5.9c-2.1,1.6-16.9,5.7-16.9,5.7s15.4,7.1,20.7,8.8s7.9,1.9,7.9,1.9c-0.6,0.8-4.3,3.7-7.4,3.8s-9.4,0.2-9.4,0.2
			c6.4,7.1,8,14,8.6,16.7s2.5,10.4,2.5,10.4L511.7,459.2z"/>
		<path class="st0" d="M431.8,555.6c2.5-3.6,4.5-6.8,6.9-14s3.5-10.1,2.9-13.9c0,0-0.6,1.6-3.4,2.5s-4.2,1.4-5.1,2.6s-1.1,0.9-2,7.8
			s-2,14.6-3.4,16.2S429.2,559.2,431.8,555.6z"/>
		<path class="st0" d="M421.2,548.8c0.8,1.3,2.2,1.3,4.8-4.3c2.1-4.6,3.2-8,3.2-9.9c0-0.6-0.5-1-1.1-0.9c-1.5,0.2-4.6,0.5-6.1,0.9
			c-2,0.5-2.6,1.6-2.3,5C420,542.9,420.3,547.4,421.2,548.8z"/>
		<path class="st0" d="M413.3,547.9c2.9,0,4.3-7.9,4.7-11.1c0.1-0.7-0.4-1.4-1.1-1.5c-1.3-0.1-3.2-0.3-5.1,0
			c-0.7,0.1-1.3,0.7-1.3,1.4C410.5,539.8,410.4,547.9,413.3,547.9z"/>
		<path class="st0" d="M403.9,546.5c2.1,0.2,3.9-5.3,4.8-9.3c0.5-2-0.8-1.9-0.8-1.9s-4.7-0.1-5.8,0.1c-1.2,0.2-1,1.2-0.7,3.3
			C401.8,540.8,401.8,546.3,403.9,546.5z"/>
		<path class="st0" d="M374.2,553.7c2.2,2.5,3.8,7.8,3.7,10.2c-0.2,2.4-0.7,10.8,0.2,13.4c2,5.6,6.3,7.5,6.3,7.5
			c-3.1-5.9-0.8-10.8-0.8-10.8c1.7,7.2,6.2,9.2,6.2,9.2c3.1-6,10.2-5.5,10.2-5.5s7.1-0.5,10.2,5.5c0,0,4.6-1.9,6.2-9.2
			c0,0,2.2,4.8-0.8,10.8c0,0,4.3-1.9,6.3-7.5c0.8-2.7,0.3-11,0.2-13.4c-0.2-2.4,1.4-7.8,3.7-10.2c0,0-4.2-0.4-6.1,3.5
			c-1.9,3.9-2.9,8.9-5,10.2c0,0-0.2-5.9-0.5-7.2c-0.3-1.3-1.5-3.8-4.3-4.3c-2.8-0.6-4.9,1.3-5.6,1.6s-4.2,0.2-4.2,0.2
			s-3.6,0.1-4.2-0.2s-2.8-2.2-5.6-1.6c-2.8,0.6-4,3-4.3,4.3c-0.3,1.3-0.5,7.2-0.5,7.2c-2.2-1.2-3.2-6.2-5-10.2
			C378.4,553.2,374.2,553.7,374.2,553.7z"/>
		<path class="st0" d="M423.4,579.7c-2.2,3-4.5,13-5.2,15.8c-0.9,3.2,0.2,5.1,0.8,5.1s1.8,0.2,3.9,0s2.9,0,4-5.2
			c0.9-5-1.2-12.6-2-15.4C424.5,579.3,423.7,579.2,423.4,579.7z"/>
		<path class="st0" d="M412.9,587.9c-3.2,0.5-3.8,10.8-3.4,11.8s2.6,1.9,5.1,1.4s2-3.6,1-8.4S412.9,587.9,412.9,587.9z"/>
		<path class="st0" d="M404.8,589.8c-2.8,0.1-3.1,4.2-3.9,8.1s1.2,3.9,3.6,3.9s3.2-0.6,2.8-5.4S404.8,589.8,404.8,589.8z"/>
	</g>
	<g>
		<path class="st0" d="M202.8,233.8l23.8-4l-2.5-14.5l-5,0.8l-19.5-53.5l-31.8,5.5l-1.2,56.8l-5.5,0.8l2.2,15l23.5-3.8l-0.4-18.2
			l11.2-1.7L202.8,233.8z M186.1,205.9l-0.6-28.6l8.4,27.6L186.1,205.9z"/>
		<polygon class="st0" points="215.5,159.8 218.2,185.8 232.8,184.5 231.2,172.8 238.2,172 242.5,213 237.2,213.5 239,228.2 
			269.8,225 268,210 262.5,210.5 258.2,169.5 264.2,169 265.8,180.5 280.2,179 277.5,152.5 		"/>
		<polygon class="st0" points="326,220 351.5,218.8 350.8,203.8 345.2,204 342.8,163 348.2,162.5 347.2,148 321.8,150 323.4,177.2 
			313.4,177.8 311.8,150 285.8,151.8 286.5,166.2 292.5,166.2 295,207.8 290,207.8 290.4,222 316,221 314.3,192.6 324.3,192.2 		"/>
		<polygon class="st0" points="355.3,148 355.7,162.5 361.3,162.5 362,203.7 356,204 356.3,218.7 409.3,218 409,190.4 391,190.4 
			391,203.3 381.3,203.3 381,162.5 387,162.5 387,147.3 		"/>
		<polygon class="st0" points="469,171.3 469.7,148.7 416.3,147.3 416.3,161.7 421.7,162 420.3,203.3 414.7,203.3 414,218 
			468.3,219.7 468.7,195.3 451.7,194.7 451.3,204.3 440,204 440.5,189.5 456.3,190 456.3,176.3 440.9,176.3 441.3,163 452.7,163.3 
			452.7,171.3 		"/>
		<polygon class="st0" points="479.7,149.3 477.7,175.7 492,177 492.7,165.3 499.2,165.8 496,206.7 490,206.7 489,220.7 
			520.3,223.7 521.3,209.3 516,208.3 519.5,167.5 526.3,168 525.3,179.7 539.7,181 541.7,154.7 		"/>
		<polygon class="st0" points="579,174.3 581,159.7 550,155.7 548.7,170 554,170.8 548.2,211.5 542.3,210.7 540.7,225.3 571.7,230 
			573.7,215.3 568,214.5 574,173.6 		"/>
		<path class="st0" d="M635.7,168.7l-3.7,22.7l-17.3-3l1-8l-10-2l-6.3,40.7l10.3,1.7l2-11.7l16.7,2.7L624,238l-34.9-5.6
			c-7-1.1-11.7-7.8-10.5-14.7l7.7-44.2c1.2-6.9,7.7-11.5,14.6-10.4L635.7,168.7z"/>
	</g>
	<g>
		<path class="st0" d="M318.5,100.2l0.1,9.9c0,0.6-0.1,1-0.2,1.3c-0.2,0.3-0.5,0.7-1.1,1.2c0.6,0.6,1,1,1.2,1.4
			c0.1,0.4,0.2,0.8,0.2,1.2l0.1,8.5c0,0.9-0.2,1.6-0.7,2.1c-0.5,0.5-1.3,0.7-2.5,0.8l-3.3,0l0,1l-3.7,0l-0.2-27.2L318.5,100.2z
			 M314.8,103.8l-2.8,0l0.1,7.2l1.6,0c0.8,0,1.2-0.4,1.2-1.3L314.8,103.8z M312.1,114.6l0.1,8.5l1.4,0c0.7,0,1.1-0.1,1.2-0.1
			c0.1-0.1,0.2-0.3,0.2-0.7l0-6.1c0-0.8-0.1-1.2-0.2-1.3s-0.5-0.2-0.9-0.2L312.1,114.6z M319.8,116.8l0-3.4l5.5,0l-0.1-9.1l-5.5,0
			l0-3.3l5.5,0l0-1.3l3.9,0l0,1.3l6.3,0l0,3.3l-6.3,0l0.1,9.1l6.3,0l0,3.4l-6.7,0.1l-0.6,2.2l2.7,0l2.6,4.3c0.1,0.2,0.3,0.3,0.5,0.5
			c0.3,0.2,0.5,0.3,0.7,0.3l0.9,0l0,3.2l-2.3,0c-0.7,0-1.2,0-1.4-0.1c-0.2-0.1-0.5-0.2-0.8-0.4c-0.3-0.2-0.5-0.6-0.8-1.2l-2.7-5
			l-1.5,4.6c-0.3,0.8-0.5,1.3-0.8,1.7c-0.2,0.3-0.9,0.5-1.9,0.5l-3.4,0l0-3.2l1.6,0l0.6,0c0.2-0.1,0.4-0.6,0.7-1.5l2-5.9
			L319.8,116.8z M322.6,106.1l0.2,1.6c0,0.4,0.1,0.7,0.3,0.8c0.1,0.1,0.3,0.2,0.4,0.2l0.5,0l0,3l-1.3,0c-0.7,0-1.2,0-1.4-0.2
			c-0.3-0.1-0.5-0.3-0.6-0.5c-0.2-0.2-0.3-0.6-0.3-1.1l-0.6-3.8L322.6,106.1z M330.5,111.4l0-3l0.5,0c0.2,0,0.4,0,0.6-0.1
			c0.1-0.1,0.2-0.4,0.4-0.8l0.4-1.5l3,0l-0.5,2.7c-0.2,0.7-0.4,1.4-0.7,1.9c-0.3,0.5-1,0.8-2.2,0.8L330.5,111.4z"/>
		<path class="st0" d="M339.7,102.8l-0.2-3.1l26.8-1.6l0.2,3.1l-8.4,0.5l0.2,3.1l8-0.5l0.9,15.4c0.1,1.7,0,2.9-0.2,3.6
			c-0.3,0.7-0.7,1.1-1.3,1.4c-0.6,0.3-1.5,0.4-2.8,0.5l-21.3,1.2l-1.2-20.6l7.6-0.4l-0.2-3.1L339.7,102.8z M362.9,119.3l-2.9,0.2
			c-0.9,0.1-1.7,0-2.5-0.2c-0.8-0.2-1.3-0.7-1.6-1.5c-0.3-0.8-0.5-1.6-0.6-2.2l-0.4-7.5l-3.1,0.2l0.5,7.9c0.1,1.1-0.2,2.1-0.7,2.9
			c-0.6,0.8-1.7,1.2-3.5,1.3l-2.7,0.2l0.1,2.4l16.8-1c0.6,0,0.8-0.5,0.8-1.4L362.9,119.3z M345.1,117.5l2.4-0.1c0.5,0,0.9-0.2,1-0.4
			c0.1-0.2,0.2-0.6,0.1-1.2l-0.4-7.2l-3.6,0.2L345.1,117.5z M354.7,105l-0.2-3.1l-3.1,0.2l0.2,3.1L354.7,105z M362.2,107.7l-3.7,0.2
			l0.4,6c0.1,1,0.2,1.7,0.5,2c0.3,0.3,0.7,0.4,1.3,0.3l2.1-0.1L362.2,107.7z"/>
		<path class="st0" d="M373.3,97.7h4.5v12.1h21v3.7h-21v6c0,0.9,0.1,1.4,0.3,1.7c0.2,0.2,0.5,0.3,1,0.3h3.8v3.8H376
			c-0.9,0-1.5-0.3-2-0.8c-0.5-0.5-0.7-1.3-0.7-2.3v-8.6h-1.5v-3.7h1.5V97.7z M386.1,115l4.1,3.3c2.2,1.8,3.7,2.7,4.4,2.9
			c0.7,0.2,1.7,0.3,3.1,0.3h1.1v3.8h-2.4l-2.9,0.1c-0.8-0.1-1.5-0.4-2.2-0.9s-1.8-1.4-3.5-2.7l-8.4-6.8H386.1z M392.3,98l6.5-0.1
			l-7.1,5.7c-1.5,1.2-2.7,2.1-3.6,2.6c-0.8,0.5-1.7,0.8-2.6,0.8l-2.9-0.1h-2.4v-3.7h1.1c1.7,0,2.7-0.1,3.2-0.2
			c0.5-0.1,2.2-1.2,5.3-3.4L392.3,98z"/>
		<path class="st0" d="M405.7,101.7v2.4h-4.2v-5.7h10.8l0.9-1h3.8l0.7,1h10.9v5.7h-4.2v-2.4H405.7z M403.8,110.5h-2.3V107h2.3v-1.6
			h4.3v1.6h14.2v-1.7h4.3v1.7h2.1v3.6h-2.1v3.7c0,0.9-0.1,1.6-0.3,2.3s-0.8,1.2-1.8,1.8l-4.1,2l1.4,0.6c0.2,0.1,0.6,0.2,1.2,0.2
			l2.2,0.2h3.6v3.5h-5.5c-1.2,0-2,0-2.4-0.1c-0.4,0-1-0.2-1.7-0.5l-4.4-1.7l-4.5,1.7c-0.4,0.2-0.9,0.3-1.4,0.4s-1.5,0.2-2.8,0.2
			h-4.5v-3.5h2.3c1.7,0,2.8,0,3.1-0.1c0.3,0,0.8-0.2,1.4-0.3l1.7-0.5l-4-1.6c-0.9-0.3-1.4-0.7-1.7-1.2c-0.3-0.4-0.4-1-0.4-1.6V110.5
			z M415.1,118.2l5.3-2.2c0.9-0.4,1.4-0.7,1.6-1s0.2-0.8,0.2-1.4v-3.1h-14.2v3.1c0,1,0.1,1.7,0.3,2s0.6,0.5,1.2,0.8L415.1,118.2z"/>
		<path class="st0" d="M432.9,123l2.6,0.1c1,0,1.8-0.1,2.2-0.2c0.4-0.2,0.9-0.5,1.2-1.1l1.4-2l4.7,0.1l-2.1,3.4
			c-0.8,1.4-1.6,2.3-2.2,2.6c-0.6,0.3-1.9,0.4-3.9,0.4l-4.1-0.1L432.9,123z M452.2,119.3l-0.1,2.5c0,0.6,0,0.9,0.2,1.1
			c0.1,0.2,0.5,0.3,1,0.3l6.2,0.2l-0.1,3.1l-8.1-0.2c-0.9,0-1.6-0.1-2-0.3c-0.4-0.1-0.7-0.5-1-0.9c-0.2-0.5-0.4-1.1-0.3-1.9l0.1-3.9
			l-15.1-0.4l0.2-8.7l26.7,0.6l-0.1,5.7c0,1-0.3,1.7-0.8,2.2c-0.5,0.5-1.2,0.7-2.1,0.7L452.2,119.3z M460.3,100l-0.1,3.1l-26.7-0.6
			l0.1-3.1l10.6,0.2l0.6-1.1l4.2,0.1l0.7,1.1L460.3,100z M453.5,105.7l0.8-1.6l4.2,0.1l0,1.6l1.8,0l0,3.1l-26.7-0.6l0.1-3.1l2.3,0.1
			l0-1.4l4.2,0.1l0.7,1.4L453.5,105.7z M455.8,113.8l-18.7-0.4l-0.1,2.5l17.6,0.4c0.5,0,0.8-0.1,0.9-0.2c0.1-0.2,0.2-0.4,0.2-0.7
			L455.8,113.8z"/>
		<path class="st0" d="M464.6,104.4l0.1-3.3l5.1,0.2l0.1-2.5l3.9,0.1l-0.1,2.5l2,0.1l-0.1,3.3l-2-0.1l-0.1,2l1.6,0.1l-0.1,3.8
			l-1.6-0.1l-0.4,12.3c0,0.5-0.1,0.9-0.2,1.4c-0.1,0.4-0.3,0.8-0.5,1.1c-0.2,0.3-0.7,0.6-1.3,0.8c-0.6,0.2-1.3,0.3-2.1,0.2l-4.5-0.1
			l0.1-3.3l3.4,0.1c0.8,0,1.3-0.5,1.3-1.5l0.2-5.5l-1.2,1.9c-0.2,0.3-0.4,0.5-0.6,0.8c-0.3,0.3-0.5,0.5-0.7,0.6
			c-0.2,0.1-0.5,0.1-0.9,0.1l-1.8-0.1l0.1-3.9l0.9,0c0.2,0,0.4-0.1,0.6-0.2c0.1-0.2,0.3-0.4,0.5-0.7l3.4-6.2l0.1-3.7L464.6,104.4z
			 M476,111.4l0.1-3.3l5.2,0.2l0.1-3.6l-5-0.2l0.1-3.3l5,0.2l0.1-2.5l3.8,0.1l-0.1,2.5l5.7,0.2l-0.1,3.3l-5.7-0.2l-0.1,3.6l5.7,0.2
			l-0.1,3.3l-5.4,7.7l2,2.6c0.6,0.8,1.4,1.1,2.4,1.2l0.9,0l-0.1,3.3l-2.6-0.1c-1.1,0-1.9-0.2-2.3-0.6c-0.4-0.3-0.8-0.7-1.2-1.2
			l-1.8-2.3l-1.8,2.1c-0.6,0.6-1.1,1.1-1.7,1.3c-0.5,0.2-1.1,0.3-1.8,0.3l-2.7-0.1l0.1-3.3l1.1,0c0.3,0,0.7-0.1,1.1-0.2
			c0.4-0.2,0.7-0.4,1-0.7l2.4-2.9l-4.2-6.5l4.3,0.1l2.4,3.2l3-4.3L476,111.4z"/>
	</g>
	<g>
		<polygon class="st0" points="257,237.8 277.8,235.2 278.2,240.5 263.8,242 264.5,250 278.2,248.8 278.8,253.8 265,255 
			266.5,267.8 260.5,268.5 		"/>
		<path class="st0" d="M303.3,251.9c-0.3-5.1-1.5-8.9-9.5-8.9c-9.2,0.2-11.8,2.8-11,12c0.8,9.2,2.3,11,12.8,10.5
			S303.7,257,303.3,251.9z M294.2,261.3c-4.6,0.2-5.7-0.3-5.8-6.8c-0.1-6.4,0.6-7.2,5.2-7.3c3.6,0,4.3,0.8,4.6,5.8
			S298.8,261.1,294.2,261.3z"/>
		<path class="st0" d="M327.6,250.1c-0.3-5.1-1.5-8.9-9.5-8.9c-9.2,0.2-11.8,2.8-11,12c0.8,9.2,2.3,11,12.8,10.5
			S327.9,255.2,327.6,250.1z M318.4,259.6c-4.6,0.2-5.7-0.3-5.8-6.8c-0.1-6.4,0.6-7.2,5.2-7.3c3.6,0,4.3,0.8,4.6,5.8
			S323,259.3,318.4,259.6z"/>
		<path class="st0" d="M347.1,253.8l-4.8-0.1c0,0,0.1,1.9,0.1,3s-1.1,1.6-1.9,1.8c-0.5,0.1-1.5,0.1-2.1,0c-0.3,0-0.5-0.2-0.5-0.5
			l-0.6-13.2l8.8-0.4l-0.2-3.9l-8.8,0.4l-0.2-5h-5.2c0,0,0.1,2.2,0.2,5.3l-3,0.1l0.2,3.9l2.9-0.1c0.2,4.7,0.3,9.9,0.5,11.9
			c0.2,3.9,1.5,5.9,6.1,5.8S347.8,263.2,347.1,253.8z"/>
		<path class="st0" d="M369.9,247c-0.4-4.5-2.5-7.6-8.2-7.8c-3.9-0.1-6,1.9-7,3.2l-0.4-11.8h-5.6l1.1,31.1h5.6l-0.1-3.1
			c2,3.7,5.3,3.2,8,3.1c3.4-0.1,6.5-2.2,6.6-5.5S370.2,251.5,369.9,247z M360,257.8c-4.1,0.2-4.9-3-4.9-7s-0.6-7.4,4.9-7.4
			c3.3,0,4.5,2.3,4.5,7.2S364.1,257.5,360,257.8z"/>
		<path class="st0" d="M394,246.7c-0.1-4.2-1.5-5.8-2.8-6.7c-1.3-0.9-5.5-1.1-10.2-1c-4.7,0.1-6.2,2.3-6.2,3.9
			c-0.1,1.6-0.2,2.8-0.2,2.8l5.6,0.1c-0.2-2.1,0.6-3.2,1.8-3.2s2.3-0.1,3.7,0c1.3,0.1,2.9,1,2.9,3.2c0,0.6,0,2.2,0,4.2
			c-0.7-1-1.8-1.9-3.4-2c-3.1-0.2-7-1.1-9.9,1.7c-1.7,1.7-1.7,3.5-1.3,6.4s2.2,5.8,7.3,5.5c3.9-0.2,6-0.5,7.3-2.6c0,1.4,0,2.3,0,2.3
			h5.3C394,261.2,394.1,250.8,394,246.7z M383.4,257.7c-3.5,0.2-4.3-1.5-4.4-3.3s1.6-2.8,4.4-2.9c2-0.1,4.6,0.2,5.2,2.2
			c0,0.7,0,1.3,0,2C388.2,257.4,386.4,257.5,383.4,257.7z"/>
		<polygon class="st0" points="399.2,230 404.8,230 404.6,261.2 399.2,261.2 		"/>
		<polygon class="st0" points="409.9,230 415.3,230 415.2,261.2 409.8,261.2 		"/>
		<path class="st0" d="M454,241.7h5.9c0,0,0-2.1,0-4.5c0-2.4-1.9-6.4-9.4-6.6c-7.5-0.2-15.2-0.8-15.8,6.7
			c-0.7,7.4-0.7,13.8-0.6,17.2c0.1,3.5,1.6,7.4,9.2,7.8c7.7,0.3,5.8,0.2,9.2,0.2s7-1.8,7.2-6.2c0-3.5-0.1-5-0.1-5l-5.8,0
			c0,0,0,1.4,0,2.7s-0.6,3-3.2,3.1s-4.1-0.1-6.6-0.1s-4.1-1.7-4.1-5.1s0.4-10.7,0.5-12.7s1.2-3.1,3.4-3.2s3.7-0.2,6.1-0.1
			s4,0.9,4.1,2.4S454,241.7,454,241.7z"/>
		<polygon class="st0" points="464.8,231.9 470.5,231.9 468.8,263.4 462.9,263.1 		"/>
		<path class="st0" d="M474.4,241.6h5.6c0,0-0.8,14.1-0.6,16s1.9,2.6,3.9,2.5s4.4-0.1,4.8-3.9s0.6-13.6,0.6-13.6l5.8,0.2l-0.9,21.8
			h-5.6V261c0,0-1.5,4-6.9,3.6s-7-2.9-7-5.1S474.4,241.6,474.4,241.6z"/>
		<path class="st0" d="M519,249.9c-0.6-5.6-6.1-5.8-9.6-5.7c-2.2,0.1-3.7,1.2-4.4,2l0.9-11.9l-5.8-0.4l-2.4,31.5l5.6,0.4l0.2-2.8
			c2.6,4.1,7.1,3.7,10.2,3.3c3.8-0.5,5-5,5.2-8.5S519.6,255.5,519,249.9z M513.8,258.6c-0.1,1.8-1.2,3.6-3.5,3.8s-1.8,0-3.2,0
			c-1.1,0-2.7-0.9-3.2-2.4l0.8-10.7c0.4-0.6,0.8-1,1.4-1c2.2-0.3,4.9,0,4.9,0c2.2,0.1,2.8,1.8,2.9,4.5S513.9,256.8,513.8,258.6z"/>
	</g>
</g>
</svg>
