<?xml version="1.0" encoding="utf-8"?>
<!-- Generator: Adobe Illustrator 22.1.0, SVG Export Plug-In . SVG Version: 6.00 Build 0)  -->
<svg version="1.1" id="图层_1" xmlns="http://www.w3.org/2000/svg" xmlns:xlink="http://www.w3.org/1999/xlink" x="0px" y="0px"
	 viewBox="0 0 800 800" style="enable-background:new 0 0 800 800;" xml:space="preserve">
<style type="text/css">
	.st0{fill:#1F4EA0;}
	.st1{fill:#FFFFFF;}
	.st2{fill:url(#SVGID_1_);}
	.st3{opacity:0.5;}
	.st4{fill:#1D4D9E;}
</style>
<path class="st0" d="M488.8,175.1c-13.7,35.9-48.5,61.5-89.2,61.5S324,211,310.3,175.1h-96c0,0,0,178.7,0,222.2
	s32.5,117.9,87.8,169.3s97.2,56.7,97.2,56.7s42-5.4,97.2-56.7c55.2-51.4,87.8-125.9,87.8-169.3s0-222.2,0-222.2H488.8z"/>
<path class="st1" d="M544.7,193.7h-65.9c-17.2,25.5-46.2,42.2-79.2,42.2s-62.1-16.7-79.2-42.2h-65.9c-14.2,0-25.7,11.5-25.7,25.7
	v177.2c0,20,7.9,47.5,21.7,75.4c15.5,31.3,37.3,61,61.5,83.5c44.2,41.1,79.2,50.9,87.6,52.7c8.3-1.8,43.3-11.6,87.6-52.7
	c24.2-22.5,46.1-52.2,61.5-83.5c13.8-28,21.7-55.5,21.7-75.4V219.4C570.4,205.2,558.9,193.7,544.7,193.7z"/>
<path class="st0" d="M693.8,267.8C653.5,109.4,456.4,74.9,456.4,74.9l0.1,15.6l8.6,1.7c0,0,14.1-0.4,31.3,10.3l-39.8-0.6l0,3.6
	c6.3,0.1,18.4,0.4,27,1.7c12.2,1.8,40.5,9.2,61.3,24.6c0,0-48-21.3-88.3-22.1l0.2,19.8c8.8-0.2,31.4,0.6,59.9,11.1
	c20.5,5.8,41.4,19.6,41.4,19.6s-49.1-21.1-101.3-24.2l0.6,68.2l64.6,12.8c0,0-29.3-12-37.2-15.2c-7.9-3.2-5.6-4.3,1.1-4.5
	c6.6-0.2,22,4.3,22,4.3l51.8,13.7l-68.1-28.7l4.3-5.1c96.7,6.2,155,82.2,155,82.2c-25.3-61.2-93.8-90.8-93.8-90.8
	s35.5,11.1,65.5,30.4S693.8,267.8,693.8,267.8z"/>
<path class="st0" d="M399.6,57.6c46.1,0,83.5,37.4,83.5,83.5s-37.4,83.5-83.5,83.5s-83.5-37.4-83.5-83.5S353.5,57.6,399.6,57.6
	 M399.6,49.9c-50.3,0-91.2,40.9-91.2,91.2s40.9,91.2,91.2,91.2s91.2-40.9,91.2-91.2S449.8,49.9,399.6,49.9L399.6,49.9z"/>
<path class="st0" d="M320.3,193.7h-66.2c-14.2,0-25.7,11.5-25.7,25.7v177.2c0,20,7.9,47.5,21.7,75.4c15.5,31.3,37.3,61,61.5,83.5
	c44.2,41.1,79.2,50.9,87.6,52.7V235.9C366.4,235.8,337.4,219.1,320.3,193.7z"/>
<path class="st1" d="M374.1,364.3c0,10.1,5.7,18.7,14.1,22.9l0,0c0,0,0.2,4,0.4,10.7h-16.9V412h17.2c0.6,27.4,1.1,70.5-1.5,91.8
	c-2.6,25.7-6.3,39.2-10.6,45.6c-4.3,6.4-20.7,13.6-32.3,10c-17.7-6.1-42.4-29.2-42.4-29.2c1.9-1.4,5.5-6.1,7.2-9.2
	c1.8-3.1-0.2-5.8-6.1-9.5c-5.9-3.7-14.4-5.5-20.2-6.4c-5.8-1-5.8,2.6-5.8,2.6l-1.4,7.5c10.9,15.1,23.1,29.1,35.9,41
	c44.2,41.1,79.2,50.9,87.6,52.7V389.8v-12.3c-12.9,3.4-12.9-9.6-11.1-13.4c2.1-4.8,6.4-6.5,11.1-6.9v-18.3
	C385.2,338.8,374.1,350.2,374.1,364.3z"/>
<path class="st0" d="M424.4,364.3c0,10.1-5.7,18.7-14.1,22.9l0,0c0,0-0.2,4-0.4,10.7h16.9V412h-17.2c-0.6,27.4-1.1,70.5,1.5,91.8
	c2.6,25.7,6.3,39.2,10.6,45.6c4.3,6.4,20.7,13.6,32.3,10c17.7-6.1,42.4-29.2,42.4-29.2c-1.9-1.4-5.5-6.1-7.2-9.2
	c-1.8-3.1,0.2-5.8,6.1-9.5s14.4-5.5,20.2-6.4c5.8-1,5.8,2.6,5.8,2.6l1.4,7.5c-10.9,15.1-23.1,29.1-35.9,41
	c-44.2,41.1-79.2,50.9-87.6,52.7V389.8v-12.3c12.9,3.4,12.9-9.6,11.1-13.4c-2.1-4.8-6.4-6.5-11.1-6.9v-18.3
	C413.3,338.8,424.4,350.2,424.4,364.3z"/>
<circle class="st1" cx="399.6" cy="141" r="83.5"/>
<path class="st0" d="M485.9,133.3l-11.6-37.9h-11.2l-40.6-28.6l-2.8-10.3h-39.5l-2.9,10.2l-40.5,29.7l-12.5,0.5l-10.6,36.6l8.8,6.1
	l16.7,47.4l-5.6,10.1l33.1,25l10-8.8l49.4-0.4l8.7,7.9l32.4-21.8l-4.6-12.3l15.5-48.3L485.9,133.3z M421.7,69.4l39.8,28l-7.6,24.2
	l-23.3,8l-29.5-22.5l0.3-23.3L421.7,69.4z M377.9,69.6l21,14.4l-0.3,22.2L368,129.5l-20.1-7.8l-8.3-24L377.9,69.6z M366.5,185.1
	l-25,0.6l-16-45.4l21.9-16l20,7.8l12.3,34.8L366.5,185.1z M425.3,210.6l-48.6,0.4l-8.3-24.1l13.1-18.2h36.7L432,186L425.3,210.6z
	 M460.8,184.4l-26.3,0.6l-14.5-18.2l11-34.5l22.7-7.8l21.6,14.7L460.8,184.4z"/>
<path class="st1" d="M391.5,120.9c0,0-9.4,6.6-12.2,18.8c-1.3,6-4.5,0.4-4.5-3.9c0-4.3,1.1-10.1,10.3-14.8
	C394.3,116.4,394.1,118.8,391.5,120.9z"/>
<path class="st1" d="M331.2,99.5c0,0-4.7,7.5-2.4,8.3c2.4,0.9,5.4-5.8,5.4-5.8S335.5,96.7,331.2,99.5z"/>
<path class="st1" d="M389.6,60.8l-3.4,2.6c0,0-2.4,4.3,2.4,2.1C393.2,63.3,396.7,60.1,389.6,60.8z"/>
<path class="st1" d="M464.1,101l-0.7,4.2c0,0-0.3,1.7,0.5,1.8c0.8,0.1,1.4,0.6,2-1.3s1.4-3.1,1.8-3.5c0.3-0.4,0.9-2-1.3-3.1
	C464.3,98.8,464.1,101,464.1,101z"/>
<g>
	<path class="st0" d="M124.8,374.4c0,0-13.3,11.1-15.4,42.8c-2.1,31.7,6.8,39.4,6.8,39.4s11.6-2.6,16.3-39.4
		C137.3,380.3,124.8,374.4,124.8,374.4z"/>
	<path class="st0" d="M148.1,431.3c0,0-15.1,8.5-23.1,39.2s-0.6,40-0.6,40s11.8-0.4,23.3-35.7C159.2,439.5,148.1,431.3,148.1,431.3z
		"/>
	<path class="st0" d="M153.2,488.4c0,0-11.7,12.8-9.7,44.5c2,31.7,12,38.1,12,38.1s11.1-4.1,11-41.2S153.2,488.4,153.2,488.4z"/>
	<path class="st0" d="M91.1,514.2c0,0-0.3,17.3,22.2,39.7s34.2,20.7,34.2,20.7s5.6-10.4-19-38.1C103.7,508.7,91.1,514.2,91.1,514.2z
		"/>
	<path class="st0" d="M83.4,435.8c0,0-6.2,16.2,7.2,44.9c13.5,28.8,25.1,31.2,25.1,31.2s8.9-7.8-4.8-42.3S83.4,435.8,83.4,435.8z"/>
	<path class="st0" d="M125.5,584.9c0,0,4.1,16.8,31.6,32.7s38.4,11.2,38.4,11.2s2.8-11.5-28.2-32S125.5,584.9,125.5,584.9z"/>
	<path class="st0" d="M177.2,545c0,0-7.5,15.6,3.5,45.4c11,29.8,22.4,33.1,22.4,33.1s9.5-7.1-1.3-42.6
		C191,545.3,177.2,545,177.2,545z"/>
	<path class="st0" d="M215.5,590.8c0,0-3.3,17,14.9,43s30.1,26.3,30.1,26.3s7.4-9.3-12.1-40.9S215.5,590.8,215.5,590.8z"/>
	<path class="st0" d="M264.5,626.3c0,0-0.2,17.3,22.4,39.6c22.6,22.3,34.3,20.5,34.3,20.5s5.6-10.4-19.3-38S264.5,626.3,264.5,626.3
		z"/>
	<path class="st0" d="M235.7,684.6c0,0,10.8,13.5,42.4,16.4s39.5-5.9,39.5-5.9s-2.3-11.6-39-17.2C242,672.4,235.7,684.6,235.7,684.6
		z"/>
	<path class="st0" d="M311.3,715.5c0,0,14.9,8.7,45.5,0.1s34.8-19.7,34.8-19.7s-6.3-10-42.6-2.1
		C312.8,701.8,311.3,715.5,311.3,715.5z"/>
	<path class="st0" d="M317.6,650.9c0,0,6.3,16.1,35.7,28.2c29.4,12.1,39.5,6,39.5,6s1.2-11.8-32.2-27.9
		C327.3,641,317.6,650.9,317.6,650.9z"/>
	<path class="st0" d="M176.2,643.8c0,0,8.4,15.2,39,23.4c30.7,8.2,40,0.8,40,0.8s-0.3-11.8-35.5-23.5S176.2,643.8,176.2,643.8z"/>
	<path class="st0" d="M345.1,741c0,0,18.2-15.8,30.4-23.8s14.2-9.2,14.2-9.2s1.5-1.1,2.6-0.4s3.1,1.4,1.6,3.3s-20.9,26.4-38.4,38.6
		C351.7,752.1,340.9,745.4,345.1,741z"/>
</g>
<g>
	<path class="st0" d="M675.2,374.4c0,0,13.3,11.1,15.4,42.8s-6.8,39.4-6.8,39.4s-11.6-2.6-16.3-39.4
		C662.7,380.3,675.2,374.4,675.2,374.4z"/>
	<path class="st0" d="M651.9,431.3c0,0,15.1,8.5,23.1,39.2c8,30.7,0.6,40,0.6,40s-11.8-0.4-23.3-35.7
		C640.8,439.5,651.9,431.3,651.9,431.3z"/>
	<path class="st0" d="M646.8,488.4c0,0,11.7,12.8,9.7,44.5c-2,31.7-12,38.1-12,38.1s-11.1-4.1-11-41.2S646.8,488.4,646.8,488.4z"/>
	<path class="st0" d="M708.9,514.2c0,0,0.3,17.3-22.2,39.7s-34.2,20.7-34.2,20.7s-5.6-10.4,19-38.1
		C696.3,508.7,708.9,514.2,708.9,514.2z"/>
	<path class="st0" d="M716.6,435.8c0,0,6.2,16.2-7.2,44.9c-13.5,28.8-25,31.2-25,31.2s-8.9-7.8,4.8-42.3S716.6,435.8,716.6,435.8z"
		/>
	<path class="st0" d="M674.5,584.9c0,0-4.1,16.8-31.6,32.7s-38.4,11.2-38.4,11.2s-2.8-11.5,28.2-32
		C663.6,576.4,674.5,584.9,674.5,584.9z"/>
	<path class="st0" d="M622.8,545c0,0,7.5,15.6-3.5,45.4c-11,29.8-22.4,33.1-22.4,33.1s-9.5-7.1,1.3-42.6
		C609,545.3,622.8,545,622.8,545z"/>
	<path class="st0" d="M584.5,590.8c0,0,3.3,17-14.9,43s-30.1,26.3-30.1,26.3s-7.4-9.3,12.1-40.9
		C571.1,587.6,584.5,590.8,584.5,590.8z"/>
	<path class="st0" d="M535.5,626.3c0,0,0.2,17.3-22.4,39.6c-22.6,22.3-34.3,20.5-34.3,20.5s-5.6-10.4,19.3-38
		C522.9,620.7,535.5,626.3,535.5,626.3z"/>
	<path class="st0" d="M564.3,684.6c0,0-10.8,13.5-42.4,16.4s-39.5-5.9-39.5-5.9s2.3-11.6,39-17.2C558,672.4,564.3,684.6,564.3,684.6
		z"/>
	<path class="st0" d="M488.7,715.5c0,0-14.9,8.7-45.5,0.1s-34.8-19.7-34.8-19.7s6.3-10,42.6-2.1
		C487.2,701.8,488.7,715.5,488.7,715.5z"/>
	<path class="st0" d="M482.4,650.9c0,0-6.3,16.1-35.7,28.2c-29.4,12.1-39.5,6-39.5,6s-1.2-11.8,32.2-27.9
		C472.7,641,482.4,650.9,482.4,650.9z"/>
	<path class="st0" d="M623.8,643.8c0,0-8.4,15.2-39,23.4c-30.7,8.2-40,0.8-40,0.8s0.3-11.8,35.5-23.5
		C615.5,632.7,623.8,643.8,623.8,643.8z"/>
	<path class="st0" d="M454.9,741c0,0-18.2-15.8-30.4-23.8s-14.2-9.2-14.2-9.2s-1.5-1.1-2.6-0.4s-3.1,1.4-1.6,3.3
		s20.9,26.4,38.4,38.6C448.3,752.1,459.1,745.4,454.9,741z"/>
</g>
<linearGradient id="SVGID_1_" gradientUnits="userSpaceOnUse" x1="198.3977" y1="238.7809" x2="483.5645" y2="523.9478">
	<stop  offset="0" style="stop-color:#FFFFFF;stop-opacity:0.6"/>
	<stop  offset="0.5" style="stop-color:#FFFFFF;stop-opacity:0"/>
</linearGradient>
<path class="st2" d="M320.3,193.7h-66.2c-14.2,0-25.7,11.5-25.7,25.7v177.2c0,20,7.9,47.5,21.7,75.4c15.5,31.3,37.3,61,61.5,83.5
	c44.2,41.1,79.2,50.9,87.6,52.7V235.9C366.4,235.8,337.4,219.1,320.3,193.7z"/>
<g>
	<path class="st0" d="M130.8,360l25,24.7l-2.2,47.2c38.2-36.6,64.5-38.8,64.5-38.8v-79.9C172.9,319.2,130.8,360,130.8,360z"/>
	<path class="st1" d="M218.2,324.1v58.8c-13.3,2.9-34.3,11.1-53.1,25.7l1.1-23.3l0.2-4.6l-3.3-3.2l-17.2-17
		C157.8,350.6,188,327.1,218.2,324.1z"/>
</g>
<g>
	<path class="st0" d="M580.1,313.1v79.9c0,0,26.3,2.2,64.5,38.8l-2.2-47.2l25-24.7C667.4,360,625.4,319.2,580.1,313.1z"/>
	<path class="st1" d="M652.4,360.4l-17.2,17l-3.3,3.2l0.2,4.6l1.1,23.3c-18.8-14.6-39.8-22.8-53.1-25.7v-58.8
		C610.3,327.1,640.4,350.6,652.4,360.4z"/>
</g>
<path class="st3" d="M396.2,252.6c-131,0-226,34.7-226,34.7l25.7,92.5c0,0,86-30.8,200.3-30.8s200.3,30.8,200.3,30.8l25.7-92.5
	C622.3,287.3,527.2,252.6,396.2,252.6L396.2,252.6z"/>
<g>
	<g>
		<path class="st4" d="M399.2,247.6c-131,0-226,34.7-226,34.7l25.7,92.5c0,0,86-30.8,200.3-30.8s200.3,30.8,200.3,30.8l25.7-92.5
			C625.3,282.3,530.2,247.6,399.2,247.6L399.2,247.6z"/>
		<path class="st1" d="M399.2,257.9c104.8,0,187.1,22.8,213.5,31.1l-20.2,72.7c-9.9-3-26.4-7.7-48.1-12.4
			c-33.1-7.1-85.2-15.6-145.2-15.6s-112,8.5-145.2,15.6c-21.7,4.7-38.2,9.3-48.1,12.4L185.7,289
			C212.2,280.7,294.4,257.9,399.2,257.9"/>
	</g>
	<g>
		<path class="st4" d="M211.4,300.1l11.9-2.5c2.7-0.6,4.8-0.8,6.3-0.7c2,0.2,3.9,0.8,5.5,1.9c1.7,1.1,3.1,2.7,4.2,4.6
			c1.1,1.9,2,4.4,2.7,7.4c0.6,2.7,0.7,5,0.5,7.1c-0.3,2.5-1.1,4.7-2.3,6.5c-0.9,1.3-2.2,2.5-4,3.6c-1.3,0.8-3.2,1.4-5.6,1.9
			l-12.3,2.6L211.4,300.1z M219.1,304.2l4.5,21.4l4.9-1c1.8-0.4,3.1-0.8,3.9-1.1c1-0.5,1.8-1.1,2.4-1.9c0.6-0.8,0.9-1.9,1.1-3.5
			c0.1-1.5-0.1-3.6-0.6-6.1c-0.5-2.5-1.2-4.4-1.9-5.6c-0.7-1.2-1.6-2.2-2.5-2.7c-1-0.6-2.1-0.9-3.3-0.9c-1,0-2.8,0.3-5.4,0.8
			L219.1,304.2z"/>
		<path class="st4" d="M280.3,321.1l-7.2,1.1l-4-7l-13.1,2.1l-1.5,7.9l-7,1.1l7.5-34.7l7-1.1L280.3,321.1z M266.1,310.1l-6.4-11.4
			l-2.5,12.8L266.1,310.1z"/>
		<path class="st4" d="M283.9,320.7l-3.9-32.6l6.6-0.8l3.3,27.1l16.5-2l0.7,5.5L283.9,320.7z"/>
		<path class="st4" d="M311.7,317.5l-3.2-32.9l6.7-0.6l3.2,32.9L311.7,317.5z"/>
		<path class="st4" d="M354.4,314.1l-7.3,0.5l-3.4-7.3l-13.2,0.9l-2.2,7.7l-7.1,0.5l10.5-33.9l7-0.5L354.4,314.1z M341.2,301.9
			l-5.4-11.9l-3.6,12.6L341.2,301.9z"/>
		<path class="st4" d="M358,314l-1.1-33.1l6.5-0.2l14.2,21.7l-0.7-22.1l6.2-0.2l1.1,33.1l-6.7,0.2l-14-21.1l0.7,21.6L358,314z"/>
		<path class="st4" d="M425,313.5l0.5-13.9L414,280l7.8,0.3l7.3,13.3l8.1-12.8l7.7,0.3l-12.8,18.8l-0.5,13.9L425,313.5z"/>
		<path class="st4" d="M447,314.4l1.9-33l6.7,0.4l-1.9,33L447,314.4z"/>
		<path class="st4" d="M460.1,315.2l2.7-33l22.6,1.8l-0.5,5.6l-16-1.3l-0.6,7.8l13.8,1.1l-0.5,5.6l-13.8-1.1l-1.1,14L460.1,315.2z"
			/>
		<path class="st4" d="M515.3,320.7l-7.2-0.8l-2-7.8l-13.1-1.5l-3.6,7.2l-7-0.8l16.6-31.4l7,0.8L515.3,320.7z M504.5,306.3
			l-3.1-12.7l-5.8,11.7L504.5,306.3z"/>
		<path class="st4" d="M518.7,321.2l5.1-32.7l6.4,1l10,23.9l3.4-21.8l6.1,1l-5.1,32.7l-6.6-1l-9.8-23.4l-3.3,21.3L518.7,321.2z"/>
		<path class="st4" d="M569,317.7l1.1-5.5l14.1,2.9l-2.7,12.9c-1.6,1-3.9,1.8-6.7,2.3c-2.8,0.5-5.6,0.4-8.2-0.1
			c-3.4-0.7-6.2-2-8.4-4c-2.2-1.9-3.7-4.4-4.4-7.3c-0.7-2.9-0.7-5.9-0.1-9c0.7-3.4,2-6.2,4-8.6c2-2.3,4.5-3.9,7.5-4.7
			c2.3-0.6,5-0.6,8.1,0c4,0.8,7,2.3,8.9,4.5c1.9,2.2,2.9,4.8,2.9,7.9l-6.8-0.1c-0.1-1.7-0.7-3.1-1.8-4.3c-1.1-1.2-2.5-2-4.4-2.4
			c-2.9-0.6-5.3-0.2-7.4,1.3c-2.1,1.5-3.5,4-4.2,7.5c-0.8,3.8-0.6,6.9,0.8,9.2c1.3,2.3,3.3,3.7,6.1,4.3c1.4,0.3,2.8,0.3,4.3,0.1
			c1.5-0.2,2.8-0.7,4-1.2l0.9-4.1L569,317.7z"/>
	</g>
</g>
</svg>
