<?xml version="1.0" encoding="utf-8"?>
<!-- Generator: Adobe Illustrator 22.1.0, SVG Export Plug-In . SVG Version: 6.00 Build 0)  -->
<svg version="1.1" id="图层_1" xmlns="http://www.w3.org/2000/svg" xmlns:xlink="http://www.w3.org/1999/xlink" x="0px" y="0px"
	 viewBox="0 0 800 800" style="enable-background:new 0 0 800 800;" xml:space="preserve">
<style type="text/css">
	.st0{fill:#1F4EA0;}
</style>
<path class="st0" d="M388.1,364.1c-1.8,3.8-1.8,16.8,11.1,13.4v-20.3C394.5,357.6,390.3,359.3,388.1,364.1z"/>
<path class="st0" d="M399.6,57.6c46.1,0,83.5,37.4,83.5,83.5s-37.4,83.5-83.5,83.5s-83.5-37.4-83.5-83.5S353.5,57.6,399.6,57.6
	 M399.6,49.9c-50.3,0-91.2,40.9-91.2,91.2s40.9,91.2,91.2,91.2s91.2-40.9,91.2-91.2S449.8,49.9,399.6,49.9L399.6,49.9z"/>
<path class="st0" d="M485.9,133.3l-11.6-37.9h-11.2l-40.6-28.6l-2.8-10.3h-39.5l-2.9,10.2l-40.5,29.7l-12.5,0.5l-10.6,36.6l8.8,6.1
	l16.7,47.4l-5.6,10.1l33.1,25l10-8.8l49.4-0.4l8.7,7.9l32.4-21.8l-4.6-12.3l15.5-48.3L485.9,133.3z M463.4,105.2l0.7-4.2
	c0,0,0.2-2.2,2.2-1.8c2.2,1,1.6,2.6,1.3,3.1c-0.3,0.4-1.1,1.6-1.8,3.5c-0.6,1.8-1.2,1.4-2,1.3S463.4,105.2,463.4,105.2z M401.5,83.9
	l20.2-14.5l39.8,28l-7.6,24.2l-23.3,8l-29.5-22.5L401.5,83.9z M386.2,63.3l3.4-2.6c7.1-0.6,3.6,2.6-1.1,4.7
	C383.8,67.6,386.2,63.3,386.2,63.3z M377.9,69.6l21,14.4l-0.3,22.2L368,129.5l-20.1-7.8l-8.3-24L377.9,69.6z M391.5,120.9
	c0,0-9.4,6.6-12.2,18.8c-1.3,6-4.5,0.4-4.5-3.9s1.1-10.1,10.3-14.8C394.3,116.4,394.1,118.8,391.5,120.9z M331.2,99.5
	c4.3-2.8,3,2.6,3,2.6s-3,6.6-5.4,5.8C326.5,107,331.2,99.5,331.2,99.5z M366.5,185.1l-25,0.6l-16-45.4l21.9-16l20,7.8l12.3,34.8
	L366.5,185.1z M425.3,210.6l-48.6,0.4l-8.3-24.1l13.1-18.2h36.7L432,186L425.3,210.6z M460.8,184.4l-26.3,0.6l-14.5-18.2l11-34.5
	l22.7-7.8l21.6,14.7L460.8,184.4z"/>
<g>
	<path class="st0" d="M124.8,374.4c0,0-13.3,11.1-15.4,42.8c-2.1,31.7,6.8,39.4,6.8,39.4s11.6-2.6,16.3-39.4
		C137.3,380.3,124.8,374.4,124.8,374.4z"/>
	<path class="st0" d="M148.1,431.3c0,0-15.1,8.5-23.1,39.2s-0.6,40-0.6,40s11.8-0.4,23.3-35.7C159.2,439.5,148.1,431.3,148.1,431.3z
		"/>
	<path class="st0" d="M153.2,488.4c0,0-11.7,12.8-9.7,44.5c2,31.7,12,38.1,12,38.1s11.1-4.1,11-41.2S153.2,488.4,153.2,488.4z"/>
	<path class="st0" d="M91.1,514.2c0,0-0.3,17.3,22.2,39.7s34.2,20.7,34.2,20.7s5.6-10.4-19-38.1C103.7,508.7,91.1,514.2,91.1,514.2z
		"/>
	<path class="st0" d="M83.4,435.8c0,0-6.2,16.2,7.2,44.9c13.5,28.8,25.1,31.2,25.1,31.2s8.9-7.8-4.8-42.3S83.4,435.8,83.4,435.8z"/>
	<path class="st0" d="M125.5,584.9c0,0,4.1,16.8,31.6,32.7s38.4,11.2,38.4,11.2s2.8-11.5-28.2-32S125.5,584.9,125.5,584.9z"/>
	<path class="st0" d="M177.2,545c0,0-7.5,15.6,3.5,45.4c11,29.8,22.4,33.1,22.4,33.1s9.5-7.1-1.3-42.6
		C191,545.3,177.2,545,177.2,545z"/>
	<path class="st0" d="M215.5,590.8c0,0-3.3,17,14.9,43s30.1,26.3,30.1,26.3s7.4-9.3-12.1-40.9S215.5,590.8,215.5,590.8z"/>
	<path class="st0" d="M264.5,626.3c0,0-0.2,17.3,22.4,39.6c22.6,22.3,34.3,20.5,34.3,20.5s5.6-10.4-19.3-38S264.5,626.3,264.5,626.3
		z"/>
	<path class="st0" d="M235.7,684.6c0,0,10.8,13.5,42.4,16.4s39.5-5.9,39.5-5.9s-2.3-11.6-39-17.2C242,672.4,235.7,684.6,235.7,684.6
		z"/>
	<path class="st0" d="M311.3,715.5c0,0,14.9,8.7,45.5,0.1s34.8-19.7,34.8-19.7s-6.3-10-42.6-2.1
		C312.8,701.8,311.3,715.5,311.3,715.5z"/>
	<path class="st0" d="M317.6,650.9c0,0,6.3,16.1,35.7,28.2c29.4,12.1,39.5,6,39.5,6s1.2-11.8-32.2-27.9
		C327.3,641,317.6,650.9,317.6,650.9z"/>
	<path class="st0" d="M176.2,643.8c0,0,8.4,15.2,39,23.4c30.7,8.2,40,0.8,40,0.8s-0.3-11.8-35.5-23.5S176.2,643.8,176.2,643.8z"/>
	<path class="st0" d="M345.1,741c0,0,18.2-15.8,30.4-23.8s14.2-9.2,14.2-9.2s1.5-1.1,2.6-0.4s3.1,1.4,1.6,3.3s-20.9,26.4-38.4,38.6
		C351.7,752.1,340.9,745.4,345.1,741z"/>
</g>
<g>
	<path class="st0" d="M675.2,374.4c0,0,13.3,11.1,15.4,42.8s-6.8,39.4-6.8,39.4s-11.6-2.6-16.3-39.4
		C662.7,380.3,675.2,374.4,675.2,374.4z"/>
	<path class="st0" d="M651.9,431.3c0,0,15.1,8.5,23.1,39.2c8,30.7,0.6,40,0.6,40s-11.8-0.4-23.3-35.7
		C640.8,439.5,651.9,431.3,651.9,431.3z"/>
	<path class="st0" d="M646.8,488.4c0,0,11.7,12.8,9.7,44.5c-2,31.7-12,38.1-12,38.1s-11.1-4.1-11-41.2S646.8,488.4,646.8,488.4z"/>
	<path class="st0" d="M708.9,514.2c0,0,0.3,17.3-22.2,39.7s-34.2,20.7-34.2,20.7s-5.6-10.4,19-38.1
		C696.3,508.7,708.9,514.2,708.9,514.2z"/>
	<path class="st0" d="M716.6,435.8c0,0,6.2,16.2-7.2,44.9c-13.5,28.8-25,31.2-25,31.2s-8.9-7.8,4.8-42.3S716.6,435.8,716.6,435.8z"
		/>
	<path class="st0" d="M674.5,584.9c0,0-4.1,16.8-31.6,32.7s-38.4,11.2-38.4,11.2s-2.8-11.5,28.2-32
		C663.6,576.4,674.5,584.9,674.5,584.9z"/>
	<path class="st0" d="M622.8,545c0,0,7.5,15.6-3.5,45.4c-11,29.8-22.4,33.1-22.4,33.1s-9.5-7.1,1.3-42.6
		C609,545.3,622.8,545,622.8,545z"/>
	<path class="st0" d="M584.5,590.8c0,0,3.3,17-14.9,43s-30.1,26.3-30.1,26.3s-7.4-9.3,12.1-40.9
		C571.1,587.6,584.5,590.8,584.5,590.8z"/>
	<path class="st0" d="M535.5,626.3c0,0,0.2,17.3-22.4,39.6c-22.6,22.3-34.3,20.5-34.3,20.5s-5.6-10.4,19.3-38
		C522.9,620.7,535.5,626.3,535.5,626.3z"/>
	<path class="st0" d="M564.3,684.6c0,0-10.8,13.5-42.4,16.4s-39.5-5.9-39.5-5.9s2.3-11.6,39-17.2C558,672.4,564.3,684.6,564.3,684.6
		z"/>
	<path class="st0" d="M488.7,715.5c0,0-14.9,8.7-45.5,0.1s-34.8-19.7-34.8-19.7s6.3-10,42.6-2.1
		C487.2,701.8,488.7,715.5,488.7,715.5z"/>
	<path class="st0" d="M482.4,650.9c0,0-6.3,16.1-35.7,28.2c-29.4,12.1-39.5,6-39.5,6s-1.2-11.8,32.2-27.9
		C472.7,641,482.4,650.9,482.4,650.9z"/>
	<path class="st0" d="M623.8,643.8c0,0-8.4,15.2-39,23.4c-30.7,8.2-40,0.8-40,0.8s0.3-11.8,35.5-23.5
		C615.5,632.7,623.8,643.8,623.8,643.8z"/>
	<path class="st0" d="M454.9,741c0,0-18.2-15.8-30.4-23.8s-14.2-9.2-14.2-9.2s-1.5-1.1-2.6-0.4s-3.1,1.4-1.6,3.3
		s20.9,26.4,38.4,38.6C448.3,752.1,459.1,745.4,454.9,741z"/>
</g>
<path class="st0" d="M399.2,247.6c-131,0-226,34.7-226,34.7l25.7,92.5c0,0,86-30.8,200.3-30.8s200.3,30.8,200.3,30.8l25.7-92.5
	C625.3,282.3,530.2,247.6,399.2,247.6z M592.6,361.7c-9.9-3-26.4-7.7-48.1-12.4c-33.2-7.1-85.2-15.6-145.2-15.6
	c-59.9,0-112,8.5-145.2,15.6c-21.7,4.7-38.2,9.3-48.1,12.4L185.7,289c26.5-8.3,108.7-31.1,213.5-31.1s187.1,22.8,213.5,31.1
	L592.6,361.7z"/>
<g>
	<path class="st0" d="M211.4,300.1l11.9-2.5c2.7-0.6,4.8-0.8,6.3-0.7c2,0.2,3.9,0.8,5.5,1.9c1.7,1.1,3.1,2.7,4.2,4.6
		c1.1,1.9,2,4.4,2.7,7.4c0.6,2.7,0.7,5,0.5,7.1c-0.3,2.5-1.1,4.7-2.3,6.5c-0.9,1.3-2.2,2.5-4,3.6c-1.3,0.8-3.2,1.4-5.6,1.9
		l-12.3,2.6L211.4,300.1z M219.1,304.2l4.5,21.4l4.9-1c1.8-0.4,3.1-0.8,3.9-1.1c1-0.5,1.8-1.1,2.4-1.9c0.6-0.8,0.9-1.9,1.1-3.5
		c0.1-1.5-0.1-3.6-0.6-6.1c-0.5-2.5-1.2-4.4-1.9-5.6c-0.7-1.2-1.6-2.2-2.5-2.7c-1-0.6-2.1-0.9-3.3-0.9c-1,0-2.8,0.3-5.4,0.8
		L219.1,304.2z"/>
	<path class="st0" d="M280.3,321.1l-7.2,1.1l-4-7l-13.1,2.1l-1.5,7.9l-7,1.1l7.5-34.7l7-1.1L280.3,321.1z M266.1,310.1l-6.4-11.4
		l-2.5,12.8L266.1,310.1z"/>
	<path class="st0" d="M283.9,320.7l-3.9-32.6l6.6-0.8l3.3,27.1l16.5-2l0.7,5.5L283.9,320.7z"/>
	<path class="st0" d="M311.7,317.5l-3.2-32.9l6.7-0.6l3.2,32.9L311.7,317.5z"/>
	<path class="st0" d="M354.4,314.1l-7.3,0.5l-3.4-7.3l-13.2,0.9l-2.2,7.7l-7.1,0.5l10.5-33.9l7-0.5L354.4,314.1z M341.2,301.9
		l-5.4-11.9l-3.6,12.6L341.2,301.9z"/>
	<path class="st0" d="M358,314l-1.1-33.1l6.5-0.2l14.2,21.7l-0.7-22.1l6.2-0.2l1.1,33.1l-6.7,0.2l-14-21.1l0.7,21.6L358,314z"/>
	<path class="st0" d="M425,313.5l0.5-13.9L414,280l7.8,0.3l7.3,13.3l8.1-12.8l7.7,0.3l-12.8,18.8l-0.5,13.9L425,313.5z"/>
	<path class="st0" d="M447,314.4l1.9-33l6.7,0.4l-1.9,33L447,314.4z"/>
	<path class="st0" d="M460.1,315.2l2.7-33l22.6,1.8l-0.5,5.6l-16-1.3l-0.6,7.8l13.8,1.1l-0.5,5.6l-13.8-1.1l-1.1,14L460.1,315.2z"/>
	<path class="st0" d="M515.3,320.7l-7.2-0.8l-2-7.8l-13.1-1.5l-3.6,7.2l-7-0.8l16.6-31.4l7,0.8L515.3,320.7z M504.5,306.3l-3.1-12.7
		l-5.8,11.7L504.5,306.3z"/>
	<path class="st0" d="M518.7,321.2l5.1-32.7l6.4,1l10,23.9l3.4-21.8l6.1,1l-5.1,32.7l-6.6-1l-9.8-23.4l-3.3,21.3L518.7,321.2z"/>
	<path class="st0" d="M569,317.7l1.1-5.5l14.1,2.9l-2.7,12.9c-1.6,1-3.9,1.8-6.7,2.3c-2.8,0.5-5.6,0.4-8.2-0.1c-3.4-0.7-6.2-2-8.4-4
		c-2.2-1.9-3.7-4.4-4.4-7.3c-0.7-2.9-0.7-5.9-0.1-9c0.7-3.4,2-6.2,4-8.6c2-2.3,4.5-3.9,7.5-4.7c2.3-0.6,5-0.6,8.1,0
		c4,0.8,7,2.3,8.9,4.5c1.9,2.2,2.9,4.8,2.9,7.9l-6.8-0.1c-0.1-1.7-0.7-3.1-1.8-4.3c-1.1-1.2-2.5-2-4.4-2.4c-2.9-0.6-5.3-0.2-7.4,1.3
		c-2.1,1.5-3.5,4-4.2,7.5c-0.8,3.8-0.6,6.9,0.8,9.2c1.3,2.3,3.3,3.7,6.1,4.3c1.4,0.3,2.8,0.3,4.3,0.1c1.5-0.2,2.8-0.7,4-1.2l0.9-4.1
		L569,317.7z"/>
</g>
<path class="st0" d="M693.8,267.8C660.9,138.4,523.4,91.7,474.1,78.9c4.6,5.5,8.5,11.6,11.8,18.1c3.3,1.4,6.9,3.2,10.6,5.5l-8.1-0.1
	c0.8,2,1.6,4,2.3,6.1c14.1,3.1,36.8,10.4,54.3,23.3c0,0-24.1-10.7-52.4-17.2c1.7,6.3,2.8,12.8,3.2,19.5c6.5,1.6,13.5,3.6,20.9,6.3
	c20.5,5.8,41.4,19.6,41.4,19.6s-27-11.6-62.2-18.8c-0.3,25.3-10.4,48.2-26.6,65.2l52.7,10.5c0,0-29.3-12-37.2-15.2
	c-7.9-3.2-5.6-4.3,1.1-4.5c6.6-0.2,22,4.3,22,4.3l51.8,13.7l-68.1-28.7l4.3-5.1c96.7,6.2,155,82.2,155,82.2
	c-25.3-61.2-93.8-90.8-93.8-90.8s35.5,11.1,65.5,30.4C652.7,222.4,693.8,267.8,693.8,267.8z"/>
<g>
	<path class="st0" d="M399.2,243.6v-7.8c-32.9-0.1-61.8-16.8-78.9-42.2h-0.4c-3.8-5.8-7.1-12-9.6-18.6h-96c0,0,0,42.5,0,91.1
		c6.7-1.7,14-3.4,22-5.1C273.1,253.1,331.2,243.6,399.2,243.6z"/>
	<path class="st0" d="M570.4,219.4v43.5c4.9,1.1,9.5,2.2,13.8,3.3c0-48.6,0-91.1,0-91.1h-95.4c-2.5,6.6-5.7,12.8-9.6,18.6h65.5
		C558.9,193.7,570.4,205.2,570.4,219.4z"/>
	<path class="st0" d="M642.4,384.7l25-24.7c0,0-21.3-20.7-49.9-34.8l-2.7,9.9c16.5,8.4,30.4,19.3,37.6,25.3l-17.2,17l-3.3,3.2
		l0.2,4.6l1.1,23.3c-17-13.2-35.8-21.1-49.1-24.7c0-3,0-6.2,0-9.7c-3.9-1.1-8.5-2.4-13.8-3.9v26.4c0,20-7.9,47.5-21.7,75.4
		c-7.4,14.9-16.2,29.4-26,43l-1.4-7.4c0,0,0-3.5-5.8-2.6s-14.3,2.7-20.2,6.4c-5.9,3.7-7.9,6.4-6.1,9.5c1.8,3.1,5.3,7.7,7.2,9.2
		c0,0-24.7,23.1-42.4,29.2c-11.6,3.7-27.9-3.5-32.3-10c-4.3-6.4-8-19.9-10.6-45.6c-2.6-21.3-2.1-64.4-1.5-91.8h17.2v-14.1H410
		c0.2-6.7,0.4-10.7,0.4-10.7l0,0c8.4-4.1,14.1-12.8,14.1-22.9c0-6.1-2.1-11.7-5.6-16c-6.4-0.2-13-0.3-19.6-0.3v9.2
		c4.7,0.4,9,2.1,11.1,6.9c1.8,3.8,1.8,16.8-11.1,13.4v12.3v218.4v0.7c-8.3-1.8-43.3-11.6-87.6-52.7c-12.8-11.9-25-25.9-35.9-41
		l1.4-7.5c0,0,0-3.5,5.8-2.6s14.3,2.7,20.2,6.4c5.9,3.7,7.9,6.4,6.1,9.5c-1.8,3.1-5.3,7.7-7.2,9.2c0,0,24.7,23.1,42.4,29.2
		c11.6,3.7,27.9-3.5,32.3-10c4.3-6.4,8-19.9,10.6-45.6c2.6-21.3,2.1-64.4,1.5-91.8h-17.2v-14.1h16.9c-0.2-6.7-0.4-10.7-0.4-10.7l0,0
		c-8.4-4.1-14.1-12.8-14.1-22.9c0-6.1,2.1-11.6,5.6-16c-50.3,1.6-93.7,8.8-122.4,15c-18.4,4-33.1,7.9-42.9,10.8c0,3.4,0,6.7,0,9.7
		c-13.3,3.5-32.1,11.5-49.3,24.7l1.1-23.3l0.2-4.6l-3.3-3.2l-17.2-17c7.2-6,21.2-17,37.8-25.4l0.3,0l-3-9.9
		c-28.7,14.1-50.1,34.9-50.1,34.9l25,24.7l-2.2,47.2c29.6-28.4,52.1-36.1,60.7-38.1c0,1.2,0,2.4,0,3.5c0,43.5,32.5,117.9,87.8,169.3
		s97.2,56.7,97.2,56.7s42-5.4,97.2-56.7c55.2-51.4,87.8-125.9,87.8-169.3c0-1.1,0-2.2,0-3.4c8.8,2.1,31.1,9.9,60.5,38.1L642.4,384.7
		z"/>
</g>
</svg>
