<?xml version="1.0" encoding="utf-8"?>
<!-- Generator: Adobe Illustrator 22.1.0, SVG Export Plug-In . SVG Version: 6.00 Build 0)  -->
<svg version="1.1" id="图层_1" xmlns="http://www.w3.org/2000/svg" xmlns:xlink="http://www.w3.org/1999/xlink" x="0px" y="0px"
	 viewBox="0 0 800 800" style="enable-background:new 0 0 800 800;" xml:space="preserve">
<style type="text/css">
	.st0{fill:#007AC3;}
</style>
<g>
	<path class="st0" d="M249.7,343.5c-40.7,20.3-63.2,47.4-63.2,76.5s22.4,56.2,63.2,76.5c40.2,20,93.6,31,150.3,31s110.1-11,150.3-31
		c40.7-20.3,63.2-47.4,63.2-76.5s-22.4-56.2-63.2-76.5c-1.7-0.9-3.5-1.7-5.3-2.5l183.3-76L570,280.5l-68.4,40.1l-2.1-40.1H400h-99.5
		l-2.1,40.1L230,280.5L71.7,265L255,341C253.2,341.8,251.4,342.7,249.7,343.5z M261.2,343.6L284,353c-19.6,17.8-31.6,40.2-32.4,64.5
		h-60C193,388.2,219.6,361.8,261.2,343.6z M521.4,481.8c8.5,6.3,14,11.8,16.8,14.8c-11,4.8-23.1,9.1-36.1,12.7
		c-1.1-0.9-4-3.1-8.6-5.9C504.1,497.2,513.5,489.9,521.4,481.8z M488.5,500.6c-6.5-3.4-15.4-7.3-26.7-10.6
		c6.1-9.4,11.1-20.2,14.4-32c12.5,4.5,22.7,9.5,30.8,14.3c3.8,2.2,7.2,4.5,10.4,6.6C509.3,487.1,499.5,494.4,488.5,500.6z
		 M305.6,502.9c-4.7,2.7-7.7,4.9-9.2,6c-12.8-3.6-24.8-7.9-35.7-12.8c2.9-3,8.6-8.5,17.4-14.9C285.9,489.4,295.1,496.7,305.6,502.9z
		 M282.2,478.5c10.3-6.9,24.1-14.5,41.5-20.6c3.4,11.7,8.2,22.5,14.3,31.8c-11.5,3.3-20.6,7.1-27.3,10.5
		C299.8,494,290.2,486.6,282.2,478.5z M357.2,322.1l10.6-2c1-0.2,2-0.3,3-0.5c-7.4,3.8-14.4,9-20.6,15.3v-11.1
		C352.6,323.2,354.9,322.7,357.2,322.1z M458.8,345.6c-1.8-2.5-3.7-4.9-5.7-7.1h17.8L458.8,345.6z M454.5,348.1l-11.4,6.7
		c-1.3-3.5-2.8-6.9-4.4-10.2c-3.6-7.4-7.7-13.6-12.2-18.6v-2.2C437.1,329.1,446.7,337.5,454.5,348.1z M440.9,490.4
		c4.5,0.8,8.7,1.7,12.6,2.7c-8.6,11.4-19.3,20-31.1,24.9c6-5.4,11.5-13,16.2-22.7C439.4,493.7,440.2,492.1,440.9,490.4z
		 M442.9,485.6c4-10.4,7-22.1,8.9-34.6c7.1,1.6,13.7,3.4,19.8,5.4c-3.4,12-8.4,22.9-14.7,32.2C452.5,487.5,447.8,486.5,442.9,485.6z
		 M361.3,495.3c4.7,9.6,10.2,17.3,16.2,22.7c-12-4.9-22.7-13.7-31.4-25.2c4-1,8.2-1.9,12.8-2.6C359.7,491.9,360.5,493.7,361.3,495.3
		z M343,488.3c-6.2-9.3-11.2-20.2-14.6-32.1c6.2-2,12.8-3.8,19.8-5.3c1.8,12.4,4.8,24.1,8.8,34.5C352,486.2,347.4,487.2,343,488.3z
		 M329.1,338.5h17.8c-2,2.2-3.9,4.6-5.7,7.1L329.1,338.5z M373.5,323.8v2.2c-4.4,4.9-8.5,11.2-12.2,18.6c-1.6,3.2-3,6.6-4.4,10.2
		l-11.4-6.7C353.3,337.5,362.9,329.1,373.5,323.8z M373.5,334v30.5l-12.2-7.1c1.4-3.7,2.9-7.2,4.5-10.5
		C368.2,342,370.8,337.7,373.5,334z M349.8,380.3c-2.3,11.7-3.6,24.3-3.7,37.2h-22.5c0.3-16,3.3-31.2,8.5-44.6L349.8,380.3z
		 M429.3,422.5H449c-0.1,7.7-0.6,15.2-1.5,22.5c-5.5-1.1-11.4-2-17.5-2.7L429.3,422.5z M370,442.2c-6.1,0.7-11.9,1.6-17.5,2.7
		c-0.9-7.3-1.4-14.8-1.4-22.4h19.7L370,442.2z M346,422.5c0.1,8,0.6,15.8,1.5,23.4c-7.3,1.6-14.1,3.4-20.4,5.4
		c-2.2-9.1-3.5-18.8-3.7-28.9H346z M353.1,449.9c5.3-1,10.8-1.9,16.6-2.6l-1.4,36.4c0,0,0,0,0,0c-2.2,0.3-4.2,0.6-6.3,0.9
		C358,474.2,355,462.5,353.1,449.9z M395.6,481.9c-0.4,0-0.7,0-1.1,0C394.8,481.9,395.2,481.9,395.6,481.9z M391.7,481.9
		c-0.4,0-0.8,0-1.1,0C391,482,391.3,482,391.7,481.9z M387.6,482.1c-0.2,0-0.5,0-0.7,0C387.1,482.1,387.4,482.1,387.6,482.1z
		 M383.2,482.3c-0.1,0-0.1,0-0.2,0C383.1,482.3,383.1,482.3,383.2,482.3z M379.6,482.6c-0.2,0-0.4,0-0.7,0.1
		C379.1,482.6,379.4,482.6,379.6,482.6z M375.9,482.9c-0.2,0-0.3,0-0.5,0C375.6,482.9,375.7,482.9,375.9,482.9z M431.6,483.8
		l-1.4-36.5c5.8,0.7,11.3,1.6,16.6,2.6c-1.9,12.6-4.9,24.4-9,34.8C435.8,484.4,433.8,484.1,431.6,483.8z M428,483.4
		C428,483.4,428,483.4,428,483.4C428,483.4,428,483.4,428,483.4z M420.5,482.7c-0.1,0-0.3,0-0.4,0
		C420.2,482.6,420.3,482.7,420.5,482.7z M416.7,482.4c-0.2,0-0.4,0-0.6,0C416.3,482.4,416.5,482.4,416.7,482.4z M408.5,482
		c-0.3,0-0.7,0-1,0C407.8,482,408.1,482,408.5,482z M404.5,481.9c-0.4,0-0.7,0-1.1,0C403.7,481.9,404.1,481.9,404.5,481.9z
		 M452.4,446c0.9-7.6,1.4-15.5,1.5-23.5h22.5c-0.2,10.1-1.5,19.9-3.7,29.1C466.5,449.5,459.7,447.6,452.4,446z M454,417.5
		c-0.1-12.9-1.4-25.5-3.7-37.2l17.7-7.3c5.2,13.4,8.2,28.5,8.5,44.6H454z M426.5,334c2.7,3.7,5.3,8,7.7,12.9
		c1.6,3.3,3.1,6.8,4.5,10.5l-12.2,7.1V334z M428,389.5l17.5-7.3c2.1,11.1,3.3,23,3.4,35.3h-19.9L428,389.5z M351,417.5
		c0.1-12.3,1.3-24.2,3.4-35.3l17.5,7.3l-1.1,28H351z M327.5,371c-5.5,14-8.6,29.8-8.9,46.5h-62c0.8-23.6,12.9-45.3,32.5-62.4
		L327.5,371z M318.5,422.5c0.2,10.6,1.5,20.8,3.9,30.5c-13.3,4.6-24.2,9.9-32.8,14.9c-4,2.3-7.7,4.6-11,6.9
		c-13.5-15.2-21.5-33-22.2-52.2H318.5z M341,494.1c8.3,11.4,18.4,20.5,29.8,26.2c-20-3-38.6-8.9-54.6-17.2
		C322.6,500.1,330.9,496.9,341,494.1z M365.8,493.1c-0.6-1.2-1.2-2.5-1.8-3.8c10.5-1.6,22.2-2.5,35.3-2.5c13.6,0,25.7,1,36.5,2.7
		c-0.5,1.2-1.1,2.4-1.7,3.6c-9.3,18.9-21.4,29.4-34.2,29.4C387.2,522.5,375.1,512.1,365.8,493.1z M458.7,494.5
		c10,2.8,18.1,6.1,24.3,9.1c-15.9,8.1-34.1,13.9-53.8,16.8C440.4,514.7,450.5,505.7,458.7,494.5z M509.8,468.1
		c-8.4-5-19.2-10.3-32.3-14.9c2.4-9.7,3.8-20,4-30.7h62c-0.7,19.4-8.9,37.4-22.6,52.7C517.5,472.9,513.8,470.5,509.8,468.1z
		 M481.5,417.5c-0.3-16.7-3.5-32.5-8.9-46.5l38.4-15.9c19.6,17.1,31.7,38.8,32.5,62.4H481.5z M449.8,334.9
		c-6.2-6.3-13.1-11.5-20.6-15.3c1,0.1,2,0.3,3,0.5l10.6,2c2.4,0.5,4.7,1.1,7,1.7V334.9z M191.6,422.5h60c0.6,20.2,9,39.1,23.1,55.1
		c-10.2,7.4-16.3,13.7-18.8,16.4C217.4,475.9,192.9,450.6,191.6,422.5z M302.7,510.6c2-1.3,4.6-2.9,8.1-4.8
		c8.7,4.8,18.2,8.9,28.3,12.2C326.4,516.1,314.2,513.6,302.7,510.6z M488.4,506.3c3.3,1.8,5.8,3.4,7.6,4.6c-11.1,2.8-22.8,5.2-35,7
		C470.7,514.8,479.9,510.9,488.4,506.3z M543,494.5c-2.4-2.8-8.3-9-18.1-16.4c14.4-16.1,23-35.2,23.6-55.6h60
		C607,450.8,582.2,476.4,543,494.5z M608.4,417.5h-60c-0.8-24.3-12.8-46.7-32.4-64.5l22.7-9.4C580.4,361.8,607,388.2,608.4,417.5z"
		/>
	<path class="st0" d="M400,146c93.5,0,175.1,50.5,219.2,125.7l102.4-10C668,137.2,544.2,50,400,50S132,137.2,78.4,261.6l102.4,10
		C224.9,196.5,306.5,146,400,146z M594.7,215.6l-7.6-7.9l7.9-7.6l7.6,7.9L594.7,215.6z M619.9,234.7c1.8-6.9,6.4-12.8,14-17.6
		c8-5.1,15.6-7,22.7-5.7c7.1,1.3,12.8,5.4,17.1,12.1c3.8,5.9,5.1,11.8,3.9,17.7c-0.7,3.5-2.6,7-5.7,10.6l-8.5-8.2
		c2.1-2.2,3.4-4.6,3.7-7.4c0.3-2.7-0.4-5.4-2-8c-2.3-3.6-5.4-5.7-9.4-6.3c-4-0.6-8.9,0.9-14.6,4.6c-6.1,3.9-9.8,7.8-10.9,11.6
		c-1.2,3.8-0.7,7.5,1.6,11c1.7,2.6,3.9,4.3,6.7,5.1c2.8,0.8,6.3,0.5,10.3-0.9l3,11.4c-6.2,1.9-11.6,2-16.4,0.3
		c-4.7-1.7-8.7-5.2-12-10.4C619.3,248.2,618.1,241.6,619.9,234.7z M580.4,127.8l31.2,23.8l-5.9,7.7l-22-16.8l-8.2,10.8l19,14.5
		l-5.9,7.7l-19-14.5l-14.8,19.4l-9.2-7L580.4,127.8z M448.3,104.3c1.5-5.8,4.1-10.6,7.7-14.4c3.6-3.9,8-6.4,13.3-7.5
		c4-0.9,8.7-0.7,14,0.7c6.9,1.8,11.9,4.7,15,8.5c3.1,3.9,4.6,8.5,4.3,13.9l-11.7-0.8c-0.1-2.9-1-5.5-2.7-7.6
		c-1.7-2.1-4.2-3.6-7.4-4.5c-4.9-1.3-9.2-0.7-12.9,1.6c-3.7,2.3-6.3,6.6-7.9,12.7c-1.7,6.6-1.6,11.9,0.5,15.9
		c2.1,4.1,5.5,6.7,10.2,7.9c2.3,0.6,4.8,0.8,7.4,0.5c2.6-0.3,4.9-0.9,6.9-1.8l1.8-7l-12.8-3.4l2.4-9.3l24.1,6.3l-5.8,22.1
		c-2.9,1.7-6.9,2.8-11.8,3.3c-4.9,0.6-9.6,0.2-14.2-1c-5.8-1.5-10.5-4.1-14.2-7.6c-3.7-3.6-6-7.9-7-13
		C446.7,114.8,446.9,109.6,448.3,104.3z M383.2,73.5l24.1,37.9l-0.6-38.2l10.7-0.2l0.9,57.3l-11.6,0.2l-23.7-37l0.6,37.3l-10.7,0.2
		L372,73.6L383.2,73.5z M334.1,79.2l2.6,9.3L307,96.9l3.4,12.2l27.7-7.7l2.6,9.3l-27.7,7.7l4.2,15l30.8-8.6l2.6,9.3l-42,11.7
		l-15.4-55.2L334.1,79.2z M261.6,103.5l4.8,8.4l-14.8,8.3l23.4,41.4l-10.1,5.7L241.5,126l-14.8,8.4l-4.8-8.4L261.6,103.5z
		 M197.4,144.8l36.8,43.9l-8.9,7.4l-36.8-43.9L197.4,144.8z M132.6,213.7l8.5-10.5l26.1,3.8l-9.3-24.5l8.4-10.4l12.6,37.3l18.7,15.1
		l-7.3,9l-18.7-15.2L132.6,213.7z"/>
	<path class="st0" d="M497,676.5c-1.6-1-3.1-1.2-4.6-0.7c-1.4,0.5-2.4,1.4-2.9,2.8c-0.5,1.4-0.4,3.4,0.5,5.9c0.9,2.5,2,4.2,3.4,5.1
		c1.4,0.9,2.9,1,4.4,0.5c1.5-0.5,2.5-1.5,3.1-3c0.6-1.5,0.5-3.3-0.2-5.6C499.8,679.1,498.5,677.4,497,676.5z"/>
	<polygon class="st0" points="568.7,660.9 576.6,655.5 568.6,643.8 	"/>
	<path class="st0" d="M533.3,660.9c-1.7-0.7-3.2-0.8-4.6-0.1c-1.3,0.7-2.2,1.7-2.5,3.2c-0.4,1.5,0.1,3.4,1.3,5.8
		c1.2,2.4,2.6,3.9,4.1,4.6s3,0.6,4.4-0.1c1.4-0.7,2.3-1.8,2.7-3.4s0.1-3.4-1-5.5C536.5,663.1,535,661.6,533.3,660.9z"/>
	<path class="st0" d="M725.3,270.6l-88.7,36.8c11.2,28.7,17.4,59.9,17.4,92.6c0,140.3-113.7,254-254,254S146,540.3,146,400
		c0-32.7,6.2-63.9,17.4-92.6l-88.7-36.8C58.8,310.6,50,354.3,50,400c0,193.3,156.7,350,350,350s350-156.7,350-350
		C750,354.3,741.2,310.6,725.3,270.6z M234.4,667.2c-1.4,2-3.2,3.4-5.5,4.4c-2.3,1-4.7,1.2-7.3,0.6c-2.6-0.6-5.3-1.9-8.3-3.9
		c-4.3-3-6.9-6.3-7.9-9.9c-0.9-3.6-0.3-7.5,1.9-11.6l7.2,4c-1.2,2.5-1.5,4.8-1,6.7c0.5,1.9,1.8,3.6,3.9,5.1c2.2,1.5,4.2,2.2,6,2.1
		c1.8-0.2,3.1-0.9,4-2.1c0.6-0.8,0.8-1.7,0.7-2.6c-0.1-0.9-0.6-2-1.5-3.2c-0.6-0.8-2.1-2.6-4.5-5.3c-3.1-3.5-4.9-6.4-5.4-8.8
		c-0.8-3.3-0.2-6.4,1.6-9.1c1.2-1.7,2.8-3,4.9-3.8c2-0.8,4.3-1,6.7-0.5s4.9,1.7,7.5,3.5c4.3,3,6.9,6.2,7.7,9.6
		c0.9,3.4,0.2,6.7-1.8,9.9l-7.1-4.5c0.9-2,1.2-3.7,0.7-5.1c-0.4-1.4-1.6-2.8-3.6-4.2c-2-1.4-3.9-2.1-5.6-2c-1.1,0-2,0.5-2.6,1.4
		c-0.6,0.8-0.7,1.7-0.4,2.8c0.4,1.3,1.9,3.6,4.7,6.7s4.7,5.7,5.7,7.6c1,2,1.5,4,1.4,6.1C236.8,662.9,235.9,665,234.4,667.2z
		 M243.3,685.9l19.6-36.7l7.4,4l-19.6,36.7L243.3,685.9z M298.9,710.4l-7.9-3l-6-31.3l-9.7,25.3l-7.3-2.8l14.9-38.9l7.6,2.9l6,32
		l9.9-26l7.3,2.8L298.9,710.4z M331.7,708.8c1.4,2.6,3.6,4.1,6.6,4.7c2.2,0.4,4.2,0.1,6.1-1s3.4-3,4.7-5.9l7.5,4.1
		c-2.1,4.2-4.8,7.1-8.1,8.7c-3.3,1.6-7.1,2-11.5,1.1c-5.4-1.1-9.5-3.8-12.3-8.2c-2.8-4.4-3.5-9.8-2.2-16.2
		c1.3-6.8,4.1-11.7,8.4-14.8s9.2-4,15-2.9c5,1,8.8,3.3,11.3,6.8c1.5,2.1,2.4,4.9,2.7,8.3l-8.5,0.3c-0.1-2.2-0.7-4.1-2-5.6
		c-1.3-1.5-3-2.5-5.2-2.9c-3-0.6-5.7,0-8,1.8c-2.3,1.8-4,5.1-4.9,10C330.1,702.4,330.3,706.2,331.7,708.8z M406,691.7l-22.4-0.7
		l-0.3,9.2l20.9,0.7l-0.2,7l-20.9-0.7l-0.4,11.3l23.2,0.8l-0.2,7l-31.6-1l1.4-41.6l30.8,1L406,691.7z M461.1,720.2l-5.7-29.5
		c-2.3,3.2-5.3,5.9-9,7.9l-1.4-7.1c1.9-1.1,3.9-2.8,5.9-5.1c2-2.3,3.3-4.8,3.7-7.5l6.4-1.2l8,41L461.1,720.2z M512.4,701.6
		c-1.6,4.1-4.5,6.9-8.8,8.3c-3.1,1-5.8,1.1-8.3,0.1c-2.5-1-4.5-3-6.2-6.1l7-3.3c0.7,1.4,1.5,2.4,2.5,2.8c1,0.5,2.1,0.5,3.3,0.1
		c1.6-0.5,2.6-1.7,3.2-3.5c0.6-1.8,0.3-5-0.9-9.6c-1.1,2.8-3.1,4.8-6,5.7c-3.1,1.1-6.2,0.8-9.2-0.9c-3.1-1.6-5.2-4.4-6.5-8.2
		c-1.4-4-1.3-7.6,0.3-10.9c1.5-3.3,4.1-5.5,7.8-6.8c4-1.4,7.8-0.9,11.4,1.3c3.6,2.2,6.6,6.9,9,13.9
		C513.5,691.8,513.9,697.5,512.4,701.6z M552,683.7c-1,4.3-3.5,7.4-7.6,9.4c-2.9,1.5-5.6,1.9-8.2,1.2c-2.6-0.7-4.9-2.4-6.9-5.2
		l6.5-4.2c0.9,1.3,1.8,2.1,2.9,2.5c1,0.3,2.2,0.2,3.3-0.4c1.5-0.7,2.4-2,2.7-3.9c0.4-1.9-0.4-5-2.2-9.4c-0.8,3-2.5,5.1-5.2,6.5
		c-2.9,1.5-6,1.6-9.3,0.4c-3.3-1.2-5.8-3.6-7.6-7.2c-1.9-3.8-2.3-7.4-1.2-10.8c1.1-3.4,3.4-6,6.8-7.8c3.8-1.9,7.6-2,11.5-0.3
		c3.9,1.7,7.5,5.9,10.8,12.6C551.8,673.8,553,679.4,552,683.7z M585.2,668.2l-4.7-6.9l-14.1,9.6l-3.9-5.8l0-32l5.5-3.8l14.9,21.8
		l4.3-2.9l4,5.8l-4.3,2.9l4.7,6.9L585.2,668.2z"/>
	<path class="st0" d="M303.2,575.5c-0.8,1-1.8,2.6-2.9,4.7c-1.2,2.1-1.7,3.4-1.7,3.8c0,0.4,0.3,0.7,0.8,0.7c0.8,0,1.6-0.6,2.5-1.8
		c2.8-4.2,4.8-7,5.9-8.2c1.1-1.3,1.7-2.9,1.7-4.9c0-2-0.6-4.5-1.8-7.6c-1.2-3.1-2.1-4.9-2.7-5.5c-0.6-0.6-0.9-1.2-1-1.8
		c-0.1-0.6-0.7-0.9-1.8-0.9c-1.1,0-2,0.3-2.5,0.9c-0.6,0.6-1.1,1-1.6,1.1c-7.7,2.7-12.3,4.8-13.8,6.1c-1.5,1.3-2.2,2.2-2.2,2.5
		c0,0.1,0.2,0.2,0.6,0.2c2,0,4-0.5,6-1.6c2-1.1,4.4-2.2,7.2-3.3c2.8-1.1,4.3-1.6,4.6-1.6c0.3,0,0.5,0.1,0.8,0.3
		c0.3,0.2,0.4,0.4,0.4,0.7c0,0.6-1,1.6-3.1,2.9c-2.1,1.3-4.5,2.5-7.4,3.6c-2.9,1.1-5.1,2.4-6.8,3.8c-1.7,1.5-2.5,2.5-2.5,3
		c0,0.5,0.3,0.8,1,0.8c0.7,0,2-0.4,4.1-1.2c2-0.8,3.9-1.8,5.7-3.2c1.7-1.3,3.8-2.7,6.2-4.1c2.4-1.4,3.8-2.2,4-2.3
		c0.3-0.1,0.5-0.1,0.8-0.1c0.8,0,1.2,0.5,1.2,1.5c0,0.3-0.2,0.6-0.5,1.1c-0.3,0.4-1.7,1.5-4,3.3c-2.3,1.8-5.2,3.8-8.6,6
		c-3.8,2.4-5.7,4.3-5.7,5.6c0,0.7,0.4,1,1.2,1c0.6,0,1.6-0.5,3-1.4c1.4-0.9,2.5-1.7,3.3-2.5c0.8-0.7,2.8-2.4,5.9-4.9
		c3.2-2.6,4.8-3.9,5-4c0.2-0.1,0.4-0.1,0.6-0.1c0.5,0,0.8,0.3,0.8,0.9c0,0.6-0.2,1.6-0.7,2.9C304.6,573.3,304,574.5,303.2,575.5z"/>
	<path class="st0" d="M315.5,560.1c1.5-0.9,2.3-1.6,2.3-2.2c0-1-0.8-1.8-2.3-2.2c-1.5-0.5-2.7-0.7-3.5-0.7c-0.7,0-1.1,0.2-1.1,0.5
		c0,0.3,0.2,0.7,0.5,1c0.4,0.3,0.5,0.7,0.5,1c0,0.4-0.7,1.1-2,2.1c-0.4,0.3-0.6,0.7-0.6,1.1c0,0.4,0.7,0.7,2,0.7
		C312.6,561.4,314,560.9,315.5,560.1z"/>
	<path class="st0" d="M321.6,554c-0.8,0.6-1.2,1.2-1.2,1.6c0,0.4,0.5,0.6,1.5,0.6c2.5,0,4.3-0.2,5.4-0.5c1-0.3,2-1.1,3-2.1
		c1-1.1,1.7-2.7,2.1-4.8c0.1-0.6,0.4-1.1,0.8-1.5c0.4-0.3,1.4-0.7,3-1.2c1.6-0.4,3-0.7,4-0.7c1,0,1.6,0.3,1.6,1c0,0.3-0.1,0.6-0.4,1
		c-1.9,3.4-2.8,5.7-2.8,7c0,1.2,0.9,1.8,2.7,1.8c4.1,0,6.7-0.1,7.9-0.2c1.2-0.1,2.1-0.6,2.7-1.4c0.6-0.8,1-1.4,1-1.8
		c0-0.5-0.5-0.8-1.4-0.8c-2.8,0-4.5-0.1-5.1-0.4c-0.7-0.2-1-0.6-1-1c0-0.8,1.2-2.3,3.7-4.3c0.7-0.6,1.3-1.3,1.9-2.1
		c0.5-0.8,0.8-1.5,0.8-2.1c0-0.9-0.6-1.3-1.8-1.3c-1.2,0-2.1,0-2.5-0.1c-0.5,0-1.2-0.3-2.2-0.7c-1-0.4-2.7-0.6-5-0.6
		c-2.4,0-5.3,0.3-8.7,0.8c-0.7,0.1-1.3,0.2-2,0.2l-1.9-0.1c-0.7,0-1.3,0.1-1.8,0.4c-0.5,0.2-0.8,0.5-0.8,0.8c0,0.3,0.2,0.8,0.6,1.4
		c0.4,0.6,0.6,1.6,0.6,3c0,1.4-0.2,2.7-0.7,4C324.8,551.2,323.6,552.5,321.6,554z"/>
	<path class="st0" d="M314.5,582c1.7,0,3.9-0.4,6.6-1.2c2.7-0.8,6.4-3.3,11.3-7.3c0.4-0.3,0.8-0.4,1.2-0.4c0.5,0,0.9,0.1,1.2,0.4
		c0.4,0.2,1.2,1.1,2.5,2.6c1.3,1.5,2.2,2.8,2.7,3.8c1.9,3.9,4.6,5.8,8.1,5.8c2.4,0,5-0.9,7.9-2.7c2.8-1.8,4.3-3,4.3-3.5
		c0-0.3-0.2-0.4-0.7-0.4s-0.9,0-1.4,0.1c-0.5,0.1-1.3,0-2.3-0.1c-1-0.2-1.8-0.4-2.3-0.7c-1.7-0.8-3.5-1.3-5.2-1.5
		c-1-0.1-2.1-0.4-3.2-0.9c-1.2-0.5-2.2-1.2-3-2.1c-0.9-0.9-1.8-1.8-2.7-2.7c-0.9-0.9-1.4-1.4-1.4-1.7c0-0.3,0.1-0.5,0.2-0.7
		c0.1-0.1,0.9-0.7,2.3-1.8c1.4-1,3.1-2.2,5.1-3.6c2.2-1.5,3.4-2.8,3.4-4c0-0.3-0.2-0.6-0.5-0.8c-0.4-0.2-0.8-0.3-1.3-0.3
		c-0.5,0-1.1,0.2-1.6,0.5c-0.6,0.4-1.1,0.5-1.6,0.5c-0.5,0-1.3-0.1-2.3-0.2c-1.1-0.1-3.1-0.2-5.9-0.2s-6,0.3-9.6,0.8
		c-0.4,0-0.9,0.1-1.6,0.1c-0.6,0-1.1,0-1.5-0.1c-0.4-0.1-0.7-0.1-1.1-0.1s-0.7,0.2-1.1,0.6c-0.4,0.4-0.5,0.8-0.5,1.3
		c0,1.3,0.9,2.3,2.7,3.1c0.9,0.4,2.2,1.2,3.8,2.3c1.6,1.1,2.5,1.8,2.8,2.1c0.3,0.3,0.4,0.6,0.4,0.9c0,0.3-0.1,0.5-0.4,0.7
		c-0.3,0.2-1.3,0.8-3.2,1.7c-1.9,0.9-3.8,1.7-5.6,2.4c-1.9,0.7-3.3,1-4.3,1c-1,0-1.8-0.2-2.5-0.6c-0.7-0.4-1.3-0.6-1.8-0.6
		c-0.5,0-0.9,0.6-1.3,1.7c-0.4,1.1-0.6,2.1-0.6,2.9C310.6,581,311.9,582,314.5,582z M329.8,563.5c0-0.6,1.5-0.9,4.5-0.9
		c3,0,4.5,0.3,4.5,0.9c0,0.4-0.5,1-1.5,1.8c-1,0.8-1.9,1.2-2.7,1.2c-0.6,0-1.2-0.2-1.8-0.7c-0.6-0.4-1.3-0.9-2-1.4
		C330.1,564,329.8,563.7,329.8,563.5z"/>
	<path class="st0" d="M292.8,549.6c-1,0.2-1.9,0.5-2.6,0.8c-0.7,0.3-1.3,0.5-1.8,0.5c-0.5,0-0.9,0-1.2-0.1c-0.8-0.1-1.5,0.1-2.3,0.8
		c-0.8,0.7-1.2,1.2-1.2,1.8c0,0.5,0.2,1.1,0.6,1.8c0.4,0.7,0.9,1.1,1.6,1.1c0.6,0,1.5-0.2,2.6-0.6c6.1-2.2,11.8-3.3,16.9-3.3
		c1.6,0,3.2,0.1,4.7,0.4c1.6,0.3,3.2,0.4,4.8,0.4c1.6,0,2.9-0.3,3.8-0.8c0.9-0.5,1.4-1,1.4-1.3c0-0.4-0.8-0.7-2.4-1.1
		c-1.6-0.4-3-0.7-4.3-0.8c-0.4,0-0.6-0.2-0.6-0.5s0.1-0.7,0.4-1.2c0.3-0.5,0.5-1.2,0.7-1.9c0.1-0.7,0.6-1.1,1.5-1.1l2.9,0.1
		c1.8,0,3.1-0.3,3.9-0.8c0.8-0.5,1.2-0.9,1.2-1.2c0-0.4-1.1-0.7-3.2-1.1c-2.2-0.3-4-0.5-5.7-0.6c-1.6-0.1-2.6-0.5-2.9-1.2
		c-1.3-2.4-3.8-3.6-7.5-3.6c-1.6,0-2.4,0.4-2.4,1.2v0.7c0,0.2-0.2,0.5-0.5,0.9c-0.3,0.4-0.7,0.7-1.2,1.1c-0.5,0.3-1,0.6-1.6,0.8
		c-0.6,0.2-1.8,0.5-3.6,0.7c-1.8,0.2-3.2,0.6-4.4,1c-1.2,0.4-2.1,0.7-2.9,0.7c-0.7,0-1.2,0-1.5-0.1c-0.2-0.1-0.4-0.1-0.6-0.1
		c-0.8,0-1.2,0.3-1.2,0.9c0,0.6,0.4,1.1,1.1,1.6c0.7,0.5,1.6,0.8,2.7,0.8c1.1,0,2-0.1,2.7-0.2c0.7-0.1,1.4-0.2,1.9-0.2
		c0.5,0,1,0.2,1.4,0.6c0.4,0.4,0.6,0.8,0.6,1.3C294.4,548.8,293.8,549.4,292.8,549.6z M300.5,544.3c0.8-0.4,3.1-0.5,6.7-0.5
		c1,0,1.5,0.5,1.5,1.4c0,0.9-0.5,1.7-1.5,2.5c-1,0.7-2,1.1-2.9,1.1c-1.4,0-2.6,0-3.6,0c-1,0-1.5-0.8-1.5-2.3
		C299.2,545.4,299.6,544.7,300.5,544.3z"/>
	<path class="st0" d="M316.6,570c0.9,0,1.9-0.3,2.7-0.8c0.9-0.5,1.3-1.1,1.3-1.6c0-0.7-1.1-1.6-3.3-2.6c-2.2-1.1-4-1.6-5.5-1.6
		c-0.4,0-0.8,0.1-1.1,0.3c-0.3,0.2-0.4,0.5-0.4,0.9c0,0.4,0.6,1.4,1.9,3C313.5,569.2,314.9,570,316.6,570z"/>
	<path class="st0" d="M492.8,584.5c2,0.6,4.5,1,7.6,1c2.3,0,3.8-0.2,4.6-0.7c0.8-0.5,1.4-1.2,2-2.3s0.9-2.4,1-3.7
		c0.3-4.3,0.6-6.9,0.9-7.8c0.2-0.9,0.6-1.4,1-1.4c0.1,0,0.3,0.1,0.6,0.2c0.3,0.1,0.7,0.2,1.4,0.2c1.5,0,3.7-0.7,6.5-2.1
		c2.9-1.4,4.3-2.3,4.3-2.8c0-0.3-0.4-0.5-1.2-0.5c-1.6-0.1-3.5-0.5-5.8-1c-2.3-0.5-4-1.1-5.1-1.7c-1.2-0.6-2.4-1.3-3.6-2.2
		c-1.2-0.9-2.1-1.7-2.7-2.3c-0.6-0.6-0.9-1.1-0.9-1.4c0-0.3,0.3-0.5,0.9-0.5c0.1,0,0.8,0.1,2.1,0.2c1.3,0.1,2.5,0.2,3.6,0.2
		c1.1,0,2.1-0.1,3-0.4c0.9-0.2,1.3-0.8,1.3-1.8c0-1-0.5-1.5-1.5-1.7c-1-0.2-1.9-0.3-2.7-0.5c-2.8-0.6-6.2-0.9-9.9-0.9
		c-1.2,0-2-0.1-2.3-0.2c-0.4-0.1-0.6-0.5-0.6-1s0.2-0.9,0.6-1c0.4-0.2,1.3-0.3,2.7-0.3c1.4,0,3,0.1,4.8,0.4c1.8,0.2,3.4,0.4,4.7,0.4
		c1.3,0,2.2-0.3,2.5-0.9c0.3-0.6,0.5-1.1,0.5-1.5s-0.3-0.7-0.9-0.7c-0.3,0-0.9-0.2-1.8-0.4c-2.7-0.8-6.4-1.2-11-1.2
		c-1.3,0-2.1-0.2-2.4-0.6c-0.3-0.4-0.5-1.2-0.5-2.2s0-1.9,0-2.4c0-0.6-0.2-1-0.5-1.4c-0.3-0.4-0.7-0.5-1.2-0.5c-0.5,0-0.8,0.2-1,0.6
		c-0.2,0.4-0.4,1.3-0.6,2.8c-0.2,1.5-0.5,2.5-0.9,3.2c-0.4,0.6-1,1-1.9,1.2c-3.6,0.3-7.1,0.9-10.3,1.7c-0.4,0.1-0.7,0.1-1,0.1
		c-0.3,0-0.5,0-0.7-0.1c-0.2,0-0.5-0.1-0.9-0.1c-0.4,0-0.8,0.2-1.2,0.5c-0.4,0.3-0.6,0.8-0.6,1.3s0.2,1.1,0.7,1.8
		c0.5,0.7,1.3,1,2.3,1c1.1,0,3.2-0.5,6.2-1.4c0.6-0.2,1.4-0.4,2.4-0.6c1-0.2,1.8-0.3,2.2-0.3c0.5,0,0.7,0.2,0.7,0.6
		c0,1.3-1,2.1-3,2.4c-2.3,0.4-4.5,0.9-6.6,1.5c-2.1,0.6-3.4,0.9-4,0.9l-1.1-0.1c-1.1,0-1.6,0.5-1.6,1.4c0,0.5,0.3,1.1,0.8,1.9
		c0.5,0.8,1.3,1.2,2.3,1.2c1,0,2.5-0.3,4.5-1c2-0.7,3.2-1,3.6-1c0.4,0,0.6,0.2,0.6,0.5s-0.7,1-2.1,2.1c-1.4,1.1-3.4,2.3-6.1,3.6
		c-2.6,1.3-4.6,1.9-5.8,1.9l-0.9-0.1c-0.7,0-1.1,0.2-1.1,0.5c0,0.3,0.4,0.9,1.1,1.7c0.7,0.8,1.8,1.2,3.1,1.2c2.2,0,5.1-1.2,8.6-3.5
		c0.2-0.1,0.4-0.2,0.6-0.2c0.2,0,0.3,0.2,0.3,0.7c0,0.5-0.4,1.2-1.1,2.1c-0.7,1-1.7,1.8-2.8,2.6c-1.2,0.8-1.8,1.4-1.8,1.8
		c0,0.4,0.3,0.8,0.9,1.1c0.6,0.3,1.4,0.5,2.6,0.5c1.1,0,3.5-0.4,7.2-1.1c1.3-0.3,4.1-0.4,8.4-0.4c2.5,0,4.4,0,5.6,0.1
		c1.3,0.1,1.9,0.3,1.9,0.5c0,0.3-0.2,0.8-0.5,1.5c-0.3,0.7-0.7,2.7-1.1,6c-0.1,0.7-0.5,1.3-1.3,1.8c-0.8,0.5-2,0.8-3.4,0.9
		c-1.4,0-3.4,0.1-5.9,0.3c-1.6,0.1-2.4,0.4-2.4,0.8C489.9,583.3,490.8,583.8,492.8,584.5z M494.9,566.1c-1.4,0-2.6,0.2-3.8,0.4
		c-1.2,0.2-1.9,0.3-2.1,0.3c-0.5,0-0.8-0.2-0.8-0.6c0-0.4,0.1-1,0.3-1.7c0.2-0.7,0.4-1.2,0.8-1.4c0.4-0.3,1.2-0.4,2.6-0.5
		c1.4-0.1,2.4-0.1,3.2-0.1c0.7,0,1.3,0.1,1.8,0.3c0.4,0.2,0.6,0.5,0.6,1C497.5,565.2,496.6,566,494.9,566.1z M497.1,558.3
		c-2.2,0.1-4.3,0.3-6.3,0.5c-1.1,0.1-1.6,0-1.6-0.4c0-0.1,0.4-0.6,1.2-1.5c0.8-0.9,1.4-1.4,1.8-1.6c0.5-0.2,1.2-0.3,2.3-0.3
		c1.1,0,1.9,0.1,2.3,0.3c0.4,0.2,0.9,0.6,1.4,1.2c0.5,0.6,0.8,1,0.8,1.3C499,558.1,498.4,558.3,497.1,558.3z M503.6,567
		c-0.6,0-1.2-0.1-1.8-0.4c-0.6-0.3-0.9-0.6-0.9-0.9c0-0.1,0.3-0.7,0.9-1.8c0.6-1.1,1.1-1.7,1.5-1.7c0.5,0,1.2,0.6,2.1,1.8
		c0.9,1.2,1.4,1.9,1.4,2.1c0,0.3-0.4,0.6-1.2,0.7C504.9,567,504.2,567,503.6,567z"/>
	<path class="st0" d="M496.1,577.7c1.3-0.4,2.4-0.9,3.2-1.8c0.8-0.8,1.2-1.4,1.2-1.7c0-0.3-0.3-0.5-0.8-0.5c-0.5,0-1.3,0-2.3-0.1
		c-1-0.1-2.1-0.1-3.3-0.1c-2.7,0-5.5,0.2-8.6,0.5c-3,0.3-5.6,0.7-7.6,1.3c-0.6,0.1-1,0.2-1.3,0.2c-0.3,0-0.6-0.1-1-0.2
		c-0.4-0.1-0.8-0.2-1.2-0.2c-0.5,0-0.9,0.2-1.2,0.6c-0.4,0.4-0.6,0.8-0.6,1.3s0.1,1.2,0.3,2.1c0.2,0.9,0.6,1.3,1.4,1.3
		c0.8,0,2.3-0.3,4.6-0.8c2.3-0.6,4.2-0.9,5.6-1c1.5-0.1,3.4-0.2,5.9-0.3C492.8,578.3,494.7,578.1,496.1,577.7z"/>
	<path class="st0" d="M511.2,542.4c2.4,0,3.6-0.4,3.6-1.3c0-0.5-0.3-1.1-0.9-1.8c-0.6-0.7-1.5-1-2.7-1c-0.5,0-1.4,0.1-2.9,0.4
		c-1.5,0.3-3.2,0.4-5.2,0.4c-2,0-2.9,0.3-2.9,0.8s1.2,1.1,3.7,1.6S508.8,542.4,511.2,542.4z"/>
	<path class="st0" d="M462.6,578.5c0,1.3,0.2,2.2,0.6,2.6c0.4,0.4,1.1,0.6,2.1,0.6c1,0,1.6-0.3,1.7-0.9c0.1-0.6,0.3-1.7,0.6-3.3
		c0.3-1.6,0.4-4.5,0.4-8.6c0-4.1,0.3-8.6,0.8-13.7c0.5-5,1.2-8.7,2.1-10.9c0.9-2.3,1.4-3.8,1.4-4.5s-0.2-1.4-0.6-2
		c-0.4-0.6-0.9-0.9-1.5-0.9c-0.3,0-0.6,0.1-1,0.3c-0.4,0.2-0.7,0.3-1,0.3s-0.9-0.1-1.8-0.2c-0.9-0.1-1.9-0.2-3.1-0.2
		c-1.2,0-2.6,0.1-4.2,0.2c-1.6,0.1-2.9-0.1-3.9-0.6c-0.6-0.2-1-0.4-1.4-0.4c-0.4,0-0.8,0.3-1.4,0.8c-0.6,0.6-0.9,1.2-0.9,2
		s0.3,2.3,0.8,4.5c0.5,2.2,0.8,4.1,0.8,5.7c0,3.5-0.5,7.1-1.4,10.9c-0.9,3.8-2.4,7.2-4.3,10c-1.9,2.8-2.9,5.6-2.9,8.3
		c0,1.2,0.2,2.3,0.6,3.2c0.4,1,1,1.4,1.6,1.4c0.6,0,1.8-1.2,3.7-3.7c1.8-2.5,3.3-5.5,4.4-9c0.3-1.1,1.1-1.8,2.2-2.2
		c1.1-0.4,2.6-0.5,4.6-0.5c1.1,0,1.7,0.3,1.7,0.9l-0.4,4.9C462.7,575.6,462.6,577.2,462.6,578.5z M458.1,546
		c0.2-0.6,0.8-1.1,1.8-1.4c1.1-0.3,2.1-0.5,3.2-0.5c1.1,0,1.8,0.1,2,0.4c0.3,0.2,0.4,1,0.4,2.2c0,1.2-0.1,2-0.3,2.4
		c-0.2,0.4-0.6,0.6-1,0.7c-0.5,0.1-1.3,0.1-2.4,0.2c-1.2,0.1-2,0.1-2.3,0.2H459c-0.8,0-1.2-0.6-1.2-1.7
		C457.8,547.4,457.9,546.6,458.1,546z M461.5,562.1l-3.8,0.3c-0.7,0-1-0.2-1-0.7c0-0.5,0.1-1.2,0.2-2.2c0.1-1,0.3-1.6,0.4-1.9
		c0.1-0.2,0.4-0.5,0.8-0.6c0.4-0.2,1.1-0.4,2.1-0.5c1-0.1,1.9-0.2,2.6-0.2c0.7,0,1.2,0.2,1.4,0.5c0.2,0.3,0.3,1,0.3,2
		c0,1-0.1,1.7-0.2,2.2c-0.1,0.5-0.3,0.8-0.6,0.9C463.4,561.9,462.7,562,461.5,562.1z"/>
	<path class="st0" d="M479.6,543.1c1.2,0,2.7-0.3,4.4-0.8c1.8-0.5,3.1-1.1,3.9-1.8c0.8-0.6,1.2-1.1,1.2-1.3c0-0.1-0.1-0.3-0.3-0.3
		c-0.2-0.1-1.1-0.2-2.7-0.4c-1.6-0.2-2.9-0.3-3.8-0.3s-1.7,0.1-2.2,0.4c-0.5,0.3-1.3,0.4-2.3,0.4c-1,0-1.5,0.3-1.5,1
		c0,0.7,0.3,1.3,0.8,2C477.5,542.8,478.4,543.1,479.6,543.1z"/>
</g>
</svg>
