<?xml version="1.0" encoding="utf-8"?>
<!-- Generator: Adobe Illustrator 22.1.0, SVG Export Plug-In . SVG Version: 6.00 Build 0)  -->
<svg version="1.1" id="图层_1" xmlns="http://www.w3.org/2000/svg" xmlns:xlink="http://www.w3.org/1999/xlink" x="0px" y="0px"
	 viewBox="0 0 800 800" style="enable-background:new 0 0 800 800;" xml:space="preserve">
<style type="text/css">
	.st0{fill:#920E14;}
	.st1{fill:#1B94D3;}
	.st2{fill:#FCD369;}
</style>
<path class="st0" d="M668.7,157.1C484,185.2,400,49,400,49s-84,136.2-268.7,108.1c0,0-25.1,486.3,268.7,593.9
	C693.8,643.5,668.7,157.1,668.7,157.1z M638.1,309.4H161.9c-6.3-53.7-7.4-99.1-7.4-125.7c8.7,0.7,17.3,1,25.8,1
	c84.5,0,145-33.1,180.9-61c16.4-12.7,29.3-25.5,38.8-36.2c9.5,10.7,22.4,23.4,38.8,36.2c35.9,27.8,96.4,61,180.9,61
	c8.5,0,17.1-0.3,25.8-1C645.5,210.3,644.4,255.7,638.1,309.4z"/>
<path class="st1" d="M638.1,309.4c6.3-53.8,7.4-99.1,7.4-125.7c-8.7,0.7-17.3,1-25.8,1c-84.5,0-145-33.1-180.9-61
	C422.4,111,409.5,98.3,400,87.6c-9.5,10.7-22.4,23.4-38.8,36.2c-35.9,27.8-96.4,61-180.9,61c-8.5,0-17.1-0.3-25.8-1
	c0,26.6,1.1,72,7.4,125.7H638.1z"/>
<path class="st2" d="M450.4,319.2H338.4l-156,105.2c5.4,22,11.6,43.1,18.5,63L450.4,319.2z"/>
<path class="st2" d="M636.9,319.2H574L227.7,552.8c8.2,16.9,17.1,32.9,26.7,47.7c1.5,2.3,3,4.6,4.5,6.8l372.7-251.4
	C633.6,343.4,635.4,331.1,636.9,319.2z"/>
<path class="st2" d="M570.4,556.6c15.2-30.6,28.2-64.6,39-101.8L303.2,661.3c15.9,15.8,33,29.4,51.2,40.9L570.4,556.6z"/>
<g>
	<g>
		<path class="st0" d="M563.1,484.2l-6.4,2.1c-0.3,0.1-5.7,1.9-12.3,6c0.2-1.2,0.3-2.4,0.4-3.6c8.5-3.7,23.7-14.5,19.4-44.1
			l-1.1-7.4l-6.5,3.5c-0.4,0.2-6.3,3.5-12.2,10.8c-0.1-1.3-0.3-2.6-0.5-4c5.4-6.3,14.6-21.8,3.7-44.6l-2.9-6.1l-5.1,4.4
			c-0.1,0.1-0.8,0.7-1.8,1.9c1.7-8.8,1.3-20.8-9.3-30.2l-6.1-5.4l-2.3,7.9c-0.1,0.2-0.6,2.3-1.2,5.5c-0.2-0.3-0.5-0.6-0.7-0.9
			c-1.2-4.9-6.2-18.9-22.9-23.7l-7.2-2l0.6,7.6c0.1,0.7,1.4,15.1,15.3,22.7l-7.1-1.7l2.8,8.9c0.3,0.8,5.2,15.9,16.7,22.4l-3.8-0.6
			l0.7,6.8c0.1,1.1,2.9,25.3,18.2,30.9c0.1,0.6,0.1,1.2,0.2,1.8c-1.4-1.2-2.9-2.2-4.6-3.1l-5.6-3.1l-1.9,6.2
			c-2.5,8.3-2.9,25.7,11.8,35.7c-0.4,2.9-0.9,5.7-1.6,8.5c-1.5-3.8-3.7-6.2-6.7-7.4l-4.3-1.7l-2.1,4.2c-0.5,1-11.5,23.1,1.2,36.2
			c-2.5,4.6-5.3,9-8.4,13.2c-0.8-3.6-2.3-7.2-4.5-10.6l-3.6-5.7l-4.5,4.9c-0.5,0.6-11.9,13.1-8,32.9c-1.2,1-2.5,1.9-3.7,2.8
			c-0.2-2.8-0.7-5.7-1.7-8.8l-1.5-4.8l-4.8,1.4c-6.8,1.9-18.8,10.4-18.5,28.9c-1.6,1-3.1,2-4.4,2.9c-1.9-0.7-3.6-1.4-5.3-2.1
			c-6.1-2.5-11.3-4.7-19.7-4.7c-12.4,0-24.8,4.8-29.7,6.9c-5-2.2-17.3-6.9-29.7-6.9c-8.3,0-13.6,2.2-19.7,4.7
			c-1.7,0.7-3.4,1.4-5.3,2.1c-1.3-0.9-2.7-1.8-4.4-2.9c0.3-18.5-11.7-27-18.5-28.9l-4.8-1.4l-1.5,4.8c-1,3-1.5,6-1.7,8.8
			c-1.2-0.9-2.4-1.8-3.7-2.7c3.9-19.9-7.5-32.4-8-32.9l-4.5-4.9l-3.6,5.7c-2.1,3.4-3.6,6.9-4.5,10.6c-3.1-4.2-5.9-8.6-8.4-13.2
			c12.7-13.1,1.7-35.2,1.2-36.2l-2.1-4.2l-4.3,1.7c-3,1.2-5.2,3.6-6.7,7.4c-0.6-2.8-1.2-5.7-1.6-8.5c14.7-10,14.3-27.4,11.8-35.7
			l-1.9-6.2l-5.6,3.1c-1.6,0.9-3.2,2-4.6,3.1c0.1-0.6,0.1-1.2,0.2-1.8c15.3-5.6,18.1-29.8,18.2-30.9l0.7-6.8l-3.7,0.5
			c11.5-6.5,16.4-21.6,16.7-22.4l2.8-8.9l-7.1,1.7c13.9-7.6,15.3-22,15.3-22.7l0.6-7.6l-7.2,2c-16.7,4.8-21.7,18.8-22.9,23.7
			c-0.2,0.3-0.5,0.6-0.7,0.9c-0.6-3.2-1.2-5.3-1.2-5.5l-2.3-7.9l-6.1,5.4c-10.6,9.4-11,21.4-9.3,30.2c-1-1.2-1.7-1.8-1.8-1.9
			l-5.1-4.4l-2.9,6.1c-11,22.8-1.7,38.3,3.7,44.6c-0.2,1.3-0.3,2.6-0.5,4c-5.9-7.4-11.8-10.6-12.2-10.8l-6.5-3.5l-1.1,7.4
			c-4.3,29.6,10.9,40.5,19.4,44.1c0.1,1.2,0.3,2.4,0.4,3.6c-6.6-4.1-12-5.9-12.3-6l-6.4-2.1l-0.4,6.8c-1.3,25.4,19,35.9,30.1,39.6
			c0.4,0.9,0.8,1.8,1.2,2.7c-1.2-0.5-1.9-0.8-2-0.8l-8.3-3l1.4,8.8c5.1,31.7,27.4,36.4,38.3,36.8c-7.5,1-12.3,3.1-12.6,3.2l-8.1,3.6
			l7,5.5c6,4.7,12.2,8,18.6,9.9l3.6,4.7c0.6,0.8,6.5,7.8,21.1,7.8c12.9,0,22.7-4.5,30.5-8.1c5.8-2.7,10.8-5,15.6-5
			c10.5,0,15.3,6.1,15.4,6.3l1.6,2.1H410l1.6-2.1c0-0.1,4.9-6.3,15.4-6.3c4.8,0,9.8,2.3,15.6,5c7.8,3.6,17.6,8.1,30.5,8.1
			c14.6,0,20.4-7,21.1-7.8l3.6-4.7c6.4-1.9,12.6-5.2,18.6-9.9l7-5.5l-8.1-3.6c-0.3-0.1-5-2.2-12.5-3.2c10.9-0.4,33.2-5.1,38.3-36.8
			l1.4-8.8l-8.3,3c-0.1,0-0.8,0.3-2,0.8c0.4-0.9,0.8-1.8,1.2-2.7c11.1-3.8,31.4-14.2,30.1-39.6L563.1,484.2z"/>
		<path class="st0" d="M399.9,575.8c60.4,0,109.3-48.7,109.3-108.7c0-60-48.9-108.7-109.3-108.7c-60.4,0-109.3,48.7-109.3,108.7
			C290.6,527.1,339.6,575.8,399.9,575.8z"/>
	</g>
	<g>
		<path class="st2" d="M503.9,471.4c-1.3,3-2.8,5.9-4.8,8.6c-8.9,12.4-23.4,18.7-43.3,18.7c-23.9,0-38.5-9.8-51.3-21v27.9
			c33.6,0.9,64.2,12.1,81.5,19.7C496.7,509.8,503.1,491.3,503.9,471.4z"/>
		<path class="st2" d="M467.3,388.2c-16.6,6.3-38.8,12.6-62.7,13.3v19.2c30.8-0.9,59.5-11,76.5-18.3
			C477,397.3,472.3,392.5,467.3,388.2z"/>
		<path class="st2" d="M395.6,469.4c-13.7-12.8-26.9-24.6-51.2-24.6c-16.6,0-28.9,4.8-36.4,14.2c-7.9,9.9-9.2,23.2-9,32.1
			c3,12.4,8.1,23.9,15.1,34.1c17.3-7.7,47.9-18.8,81.5-19.7V469.4z"/>
		<path class="st2" d="M404.6,363.8v29.8c20.4-0.7,39.7-5.7,55.1-11.2C444,371.5,425.1,364.7,404.6,363.8z"/>
		<path class="st2" d="M395.6,363.8c-20.5,0.9-39.4,7.7-55.1,18.7c15.4,5.5,34.8,10.5,55.1,11.2V363.8z"/>
		<path class="st2" d="M395.6,401.6c-23.8-0.7-46-7-62.7-13.3c-5.1,4.3-9.7,9-13.9,14.2c17,7.3,45.7,17.4,76.5,18.3V401.6z"/>
		<path class="st2" d="M301,453.2c9.3-11.7,23.9-17.6,43.4-17.6c23.8,0,38.4,10,51.2,21.4v-28.2c-33.6-0.9-64.2-12-81.4-19.7
			c-10.1,14.8-16.5,32.3-17.7,51.2C297.7,457.8,299.2,455.4,301,453.2z"/>
		<path class="st2" d="M395.6,513.5c-30.9,0.9-59.6,11-76.6,18.3c4.2,5.2,8.8,9.9,13.9,14.2c16.7-6.3,38.9-12.6,62.7-13.4V513.5z"/>
		<path class="st2" d="M404.6,540.6v29.9c20.5-0.9,39.5-7.7,55.2-18.7C444.5,546.4,425,541.3,404.6,540.6z"/>
		<path class="st2" d="M491.8,474.5c7.8-11,8.6-26.2,7.4-38.4c-3.1-9.7-7.6-18.8-13.2-27.1c-17.3,7.7-47.8,18.7-81.4,19.7v36.6
			c13.6,12.6,27,24.1,51.3,24.1C472.7,489.4,484.8,484.4,491.8,474.5z"/>
		<path class="st2" d="M481.2,531.9c-17-7.3-45.7-17.4-76.6-18.3v19.2c23.9,0.7,46.1,7,62.7,13.4C472.4,541.8,477.1,537,481.2,531.9
			z"/>
		<path class="st2" d="M395.6,540.6c-20.4,0.7-39.9,5.7-55.3,11.2c15.8,11.1,34.7,17.9,55.3,18.7V540.6z"/>
		<path class="st2" d="M536.8,505c1.5-6.3,2.6-13,3.2-20.1c6.1-1.8,23.4-9.7,19.1-39.5c0,0-13.1,7-18.7,24.8
			c-0.1-8.8-0.8-17-1.8-24.4c4.2-4.2,15.3-18.1,4.5-40.5c0,0-7.3,6.3-8.5,20.4c-1.4-5.3-3-10.1-4.7-14.4c2.6-5.7,8.5-22.7-4.7-34.4
			c0,0-2.7,9.5-2.3,19.4c-3.6-6.4-7-10.9-9.4-13.8c-0.2-1.2-3.2-16.4-19.5-21c0,0,1.2,14.6,16.4,20.2c2.6,2.4,7.7,7.9,12.8,17.8
			c0.1,0.9,0.2,1.8,0.4,2.7c-3.7-4.7-9.7-9.8-18.8-12c0,0,6.9,21.8,23,21.7c0.4,0.5,0.8,0.9,1.2,1.4c0,0,0,0,0.1-0.1
			c2.2,6.2,4.2,13.5,5.7,22c-2.7-6.7-7.5-14-16-15.2c0,0,2.7,25.3,17.8,27.2c0.9,8,1.5,16.8,1.5,26.6c0,0.5,0,1,0,1.5
			c-1.1-7-4.3-15.6-13.1-20.6c0,0-6.4,21.3,12.4,31.3c-1,8.9-3,17.3-5.6,25.2c-1.8,2.6-3.4,5.4-4.6,8.5c0.6-9.1,0.4-22.5-5.4-24.8
			c0,0-11.4,22.6,3.1,32.4c0,0.1,0,0.1,0,0.2c0,0,0,0,0,0c-6,11.8-13.4,21.8-20.7,29.6c2-6.2,2.4-14.3-3-22.9
			c0,0-11.3,12.1-5.9,31.3c-5.6,4.7-11.7,8.7-17.2,12.1c2.5-4.5,3.6-10.5,1.1-18.5c0,0-16.6,4.7-14.6,26.7c-4.1,2.5-6.9,4.4-9,5.9
			c-10.8-3.8-15.5-7.4-25.7-7.4c-14.7,0-29.7,7.4-29.7,7.4s-15.1-7.4-29.7-7.4c-10.2,0-14.9,3.6-25.7,7.4c-2-1.5-4.9-3.4-9-5.9
			c2-22-14.6-26.7-14.6-26.7c-2.6,8-1.4,14,1.1,18.5c-5.5-3.4-11.5-7.4-17.2-12.1c5.4-19.2-5.9-31.3-5.9-31.3
			c-5.4,8.6-5.1,16.6-3,22.9c-7.3-7.7-14.7-17.8-20.7-29.6c0,0,0,0,0,0c0-0.1,0-0.1,0-0.2c14.6-9.8,3.1-32.4,3.1-32.4
			c-5.8,2.3-6,15.7-5.4,24.8c-1.3-3.1-2.9-6-4.6-8.5c-2.7-7.9-4.7-16.3-5.7-25.2c18.9-10,12.4-31.3,12.4-31.3
			c-8.8,4.9-12,13.5-13.1,20.5c0-0.5,0-1,0-1.5c0-9.8,0.5-18.6,1.5-26.6c15.1-1.9,17.8-27.2,17.8-27.2c-8.5,1.3-13.3,8.5-16,15.2
			c1.5-8.4,3.5-15.7,5.7-22c0,0.1,0.1,0.1,0.1,0.1c0.4-0.4,0.8-0.9,1.2-1.4c16.1,0.1,23-21.7,23-21.7c-9.1,2.2-15,7.3-18.8,12
			c0.2-0.9,0.3-1.8,0.4-2.7c5.1-9.9,10.2-15.4,12.8-17.8c15.1-5.6,16.4-20.2,16.4-20.2c-16.3,4.6-19.3,19.8-19.5,21
			c-2.4,2.8-5.8,7.4-9.4,13.8c0.4-9.9-2.3-19.4-2.3-19.4c-13.3,11.8-7.3,28.7-4.7,34.4c-1.7,4.3-3.3,9.1-4.7,14.4
			c-1.2-14.1-8.5-20.5-8.5-20.5c-10.8,22.4,0.3,36.3,4.5,40.5c-1,7.4-1.7,15.6-1.8,24.4c-5.6-17.8-18.7-24.8-18.7-24.8
			c-4.3,29.8,13,37.7,19.1,39.5c0.6,7.1,1.7,13.9,3.2,20.1c-9.8-9.9-21.5-13.7-21.5-13.7c-1.2,23.3,19,32.1,28.7,35
			c3.4,7.7,7.2,14.4,10.9,20.1c-9.4-6.1-17.2-8.9-17.2-8.9c5.1,31.9,29.3,32.9,37.8,32.2c5.5,4.5,11.2,8.4,16.5,11.7
			c-18-4.3-31.6,1.7-31.6,1.7c20.5,16.1,38.9,10.1,45.7,6.8c2.4,1.5,4.2,2.7,5.8,3.7c-6.8,1.9-15.7,3.7-28.4,4.9c0,0,4.5,5.8,17,5.8
			c21.2,0,32.7-13.1,46.2-13.1c13.4,0,19.6,8.4,19.6,8.4h7.5h7.4c0,0,6.2-8.4,19.6-8.4c13.4,0,24.9,13.1,46.2,13.1
			c12.5,0,17-5.8,17-5.8c-12.6-1.2-21.6-3-28.4-4.9c1.5-1,3.4-2.2,5.8-3.7c6.9,3.3,25.2,9.2,45.7-6.8c0,0-13.6-6-31.6-1.7
			c5.3-3.3,11-7.2,16.5-11.7c8.5,0.7,32.6-0.3,37.8-32.2c0,0-7.8,2.8-17.2,8.9c3.8-5.7,7.6-12.3,10.9-20.1
			c9.7-2.9,29.9-11.7,28.7-35C558.3,491.3,546.6,495.1,536.8,505z"/>
	</g>
</g>
<g>
	<path class="st2" d="M231.2,277.9c3,2.2,6.3,4,9.8,5.3l-4.5,8.9c-1.8-0.6-3.6-1.3-5.4-2.3c-0.4-0.2-3.1-2-8.1-5.5
		c-4,1.8-8.4,2.7-13.2,2.7c-9.3,0-16.6-2.8-21.9-8.4c-5.3-5.6-7.9-13.5-7.9-23.7c0-10.2,2.6-18.1,7.9-23.7
		c5.3-5.6,12.5-8.5,21.5-8.5c9,0,16.1,2.8,21.3,8.5c5.3,5.6,7.9,13.5,7.9,23.7c0,5.4-0.7,10.1-2.2,14.2
		C235.4,271.9,233.6,275,231.2,277.9z M221.4,270.8c1.6-1.9,2.7-4.2,3.5-6.9c0.8-2.7,1.2-5.8,1.2-9.2c0-7.2-1.5-12.5-4.6-16.1
		c-3.1-3.5-7.1-5.3-12.1-5.3s-9,1.8-12.1,5.3c-3.1,3.6-4.6,8.9-4.6,16.1c0,7.3,1.5,12.7,4.6,16.3c3.1,3.6,7,5.4,11.7,5.4
		c1.8,0,3.4-0.3,5-0.9c-2.5-1.7-5-3-7.6-3.9l3.4-7.2C213.9,265.8,217.7,268,221.4,270.8z"/>
	<path class="st2" d="M249.5,223.6h12.2v33.7c0,5.3,0.2,8.8,0.5,10.4c0.5,2.5,1.8,4.6,3.7,6.1c2,1.5,4.7,2.3,8.1,2.3
		c3.5,0,6.1-0.7,7.8-2.2c1.8-1.5,2.8-3.2,3.2-5.4c0.4-2.1,0.5-5.6,0.5-10.6v-34.4h12.2v32.7c0,7.5-0.3,12.7-1,15.8
		c-0.7,3.1-1.9,5.7-3.7,7.8c-1.8,2.1-4.1,3.8-7.1,5.1c-3,1.3-6.9,1.9-11.6,1.9c-5.8,0-10.2-0.7-13.1-2.1s-5.3-3.2-7.1-5.3
		c-1.7-2.2-2.9-4.5-3.4-6.9c-0.8-3.6-1.2-8.8-1.2-15.8V223.6z"/>
	<path class="st2" d="M366.5,285.8h-13.3l-5.3-14.1h-24.2l-5,14.1h-13l23.6-62.2h12.9L366.5,285.8z M344,261.2l-8.3-23.1l-8.2,23.1
		H344z"/>
	<path class="st2" d="M374.3,285.8v-62.2h11.9l24.8,41.5v-41.5h11.4v62.2h-12.3l-24.4-40.6v40.6H374.3z"/>
	<path class="st2" d="M458.4,223.6h12.2v39.4c0,5.1-0.4,9.1-1.3,11.9c-1.2,3.6-3.3,6.5-6.4,8.7c-3.1,2.2-7.2,3.3-12.3,3.3
		c-6,0-10.6-1.7-13.8-5.2c-3.2-3.4-4.8-8.5-4.9-15.1l11.5-1.4c0.1,3.6,0.6,6.1,1.5,7.6c1.3,2.2,3.3,3.4,6,3.4c2.7,0,4.7-0.8,5.8-2.4
		c1.1-1.6,1.7-4.9,1.7-9.9V223.6z"/>
	<path class="st2" d="M484.5,285.8v-62.2h12.2v62.2H484.5z"/>
	<path class="st2" d="M564.2,285.8h-13.3l-5.3-14.1h-24.2l-5,14.1h-13l23.6-62.2h12.9L564.2,285.8z M541.7,261.2l-8.3-23.1
		l-8.2,23.1H541.7z"/>
	<path class="st2" d="M572.1,285.8v-62.2h11.9l24.8,41.5v-41.5h11.4v62.2h-12.3l-24.4-40.6v40.6H572.1z"/>
</g>
</svg>
