<?xml version="1.0" encoding="utf-8"?>
<!-- Generator: Adobe Illustrator 22.1.0, SVG Export Plug-In . SVG Version: 6.00 Build 0)  -->
<svg version="1.1" id="图层_1" xmlns="http://www.w3.org/2000/svg" xmlns:xlink="http://www.w3.org/1999/xlink" x="0px" y="0px"
	 viewBox="0 0 800 800" style="enable-background:new 0 0 800 800;" xml:space="preserve">
<style type="text/css">
	.st0{fill:#920E14;}
</style>
<g>
	<path class="st0" d="M667.5,158.3C483.6,186.2,400,50.7,400,50.7s-83.6,135.5-267.5,107.6c0,0-24.9,484.1,267.5,591.1
		C692.4,642.3,667.5,158.3,667.5,158.3z M571.2,224.4h11.8l24.7,41.3v-41.3H619v61.9h-12.2l-24.3-40.4v40.4h-11.3V224.4z
		 M526.4,224.4h12.9l24.1,61.9h-13.2l-5.3-14.1h-24.1l-5,14.1H503L526.4,224.4z M484.1,224.4h12.2v61.9h-12.2V224.4z M443.1,265.8
		c0.1,3.5,0.6,6.1,1.5,7.5c1.3,2.2,3.3,3.3,6,3.3c2.7,0,4.6-0.8,5.8-2.4c1.1-1.6,1.7-4.9,1.7-9.9v-40h12.1v39.2
		c0,5.1-0.4,9.1-1.3,11.8c-1.2,3.6-3.3,6.5-6.4,8.7c-3.1,2.2-7.2,3.3-12.2,3.3c-5.9,0-10.5-1.7-13.7-5.1c-3.2-3.4-4.8-8.4-4.8-15.1
		L443.1,265.8z M374.5,224.4h11.8l24.7,41.3v-41.3h11.3v61.9H410l-24.3-40.4v40.4h-11.3V224.4z M329.6,224.4h12.9l24.1,61.9h-13.2
		l-5.3-14.1H324l-5,14.1h-12.9L329.6,224.4z M250.2,224.4h12.2v33.5c0,5.3,0.2,8.8,0.5,10.3c0.5,2.5,1.8,4.6,3.7,6.1
		c2,1.5,4.6,2.3,8,2.3c3.5,0,6.1-0.7,7.8-2.2c1.8-1.4,2.8-3.2,3.2-5.3c0.4-2.1,0.5-5.6,0.5-10.5v-34.2h12.2v32.5
		c0,7.4-0.3,12.7-1,15.7c-0.7,3.1-1.9,5.7-3.6,7.8c-1.8,2.1-4.1,3.8-7.1,5c-3,1.3-6.8,1.9-11.6,1.9c-5.8,0-10.1-0.7-13.1-2
		c-3-1.4-5.3-3.1-7-5.3c-1.7-2.2-2.9-4.5-3.4-6.9c-0.8-3.5-1.2-8.8-1.2-15.7V224.4z M189,231.8c5.3-5.6,12.4-8.4,21.4-8.4
		c8.9,0,16,2.8,21.2,8.4c5.2,5.6,7.8,13.5,7.8,23.6c0,5.3-0.7,10-2.2,14.1c-1.1,3.1-2.8,6.1-5.3,9c3,2.2,6.2,3.9,9.7,5.2l-4.5,8.8
		c-1.8-0.6-3.6-1.3-5.4-2.3c-0.4-0.2-3.1-2-8.1-5.5c-3.9,1.8-8.3,2.7-13.1,2.7c-9.3,0-16.5-2.8-21.8-8.4c-5.2-5.6-7.9-13.5-7.9-23.6
		C181.1,245.2,183.7,237.4,189,231.8z M179.9,409.5c-7-31.1-12.1-61.5-15.7-89.9h174.5L183.4,424.3
		C182.2,419.4,181.1,414.5,179.9,409.5z M545.2,599.1C507,658.7,458.1,700.7,400,724c-15.8-6.3-30.9-14.1-45.3-23.1l214.9-144.9
		C562,571.2,553.9,585.6,545.2,599.1z M620.3,408.5c-3.6,15.9-7.6,31.2-11.9,46.1l-46,31l0.3,5c1.3,25.3-18.9,35.7-29.9,39.4
		c-0.4,0.9-0.8,1.8-1.2,2.6c1.2-0.5,1.9-0.8,2-0.8l8.2-3l-1.4,8.8c-5.1,31.5-27.3,36.2-38.1,36.6c7.5,1,12.2,3,12.5,3.2l8,3.6
		l-7,5.5c-5.9,4.7-12.1,7.9-18.5,9.8l-3.6,4.6c-0.6,0.8-6.5,7.8-21,7.8c-12.9,0-22.6-4.5-30.4-8.1c-5.8-2.6-10.7-4.9-15.5-4.9
		c-10.5,0-15.3,6.2-15.4,6.3l-1.5,2.1h-20l-1.1-1.5l-85.2,57.4c-15.9-15.8-30.7-33.8-44.2-53.8l26.8-18.1c-0.8-0.6-1.5-1.1-2.3-1.7
		l-7-5.5l8-3.6c0.3-0.1,5-2.2,12.5-3.2c-10.8-0.4-33-5.1-38.1-36.6l-1-5.9l-30,20.2c-9.8-20.2-18.8-41.9-26.7-65l34.7-23.4
		c-1-5.3-1.3-11.7-0.2-19.3l1.1-7.4l6.4,3.5c0.4,0.2,6.1,3.3,11.8,10.3l0.5-0.3c0.1-1.1,0.2-2.1,0.4-3.1
		c-5.3-6.3-14.6-21.7-3.6-44.4l2.9-6.1l5,4.4c0.1,0.1,0.8,0.7,1.8,1.9c-1.7-8.8-1.2-20.7,9.3-30.1l6.1-5.4l2.2,7.9
		c0.1,0.2,0.6,2.3,1.2,5.5c0.2-0.3,0.5-0.6,0.7-0.9c1.2-4.8,6.2-18.9,22.8-23.6l7.2-2l-0.6,7.6c-0.1,0.7-1.4,15-15.2,22.6l7.1-1.7
		l-2.8,8.9c-0.3,0.8-5.2,15.8-16.6,22.3l3.7-0.5l-0.7,6.8c-0.1,0.5-0.6,5.2-2.4,10.9l17.6-11.9c16.5-33.7,50.2-57.6,89.6-60.5
		l58.4-39.4h123l-65.4,44.1c6.5,5.9,9,13.3,9.8,16.5c0.2,0.3,0.5,0.6,0.7,0.9c0.6-3.2,1.2-5.3,1.2-5.5l2.2-7.9l6.1,5.4
		c10.6,9.3,11,21.3,9.3,30.1c1-1.2,1.7-1.8,1.8-1.9l5-4.4l2.9,6.1c1.2,2.6,2.2,5.1,3,7.5l80.5-54.3
		C627.6,373.2,624.3,390.7,620.3,408.5z"/>
	<path class="st0" d="M503.5,471c-1.3,3-2.8,5.8-4.7,8.5c-8.8,12.4-23.3,18.6-43.1,18.6c-23.8,0-38.3-9.7-51-20.9v27.8
		c33.5,0.9,63.9,12,81.1,19.6C496.2,509.3,502.7,490.9,503.5,471z"/>
	<path class="st0" d="M467,388.3c-16.6,6.3-38.7,12.5-62.4,13.3v19.1c30.7-0.9,59.3-11,76.2-18.2C476.6,397.3,472,392.5,467,388.3z"
		/>
	<path class="st0" d="M395.6,469c-13.6-12.7-26.8-24.4-50.9-24.4c-16.6,0-28.7,4.8-36.2,14.2c-7.9,9.9-9.2,23-9,32
		c2.9,12.3,8.1,23.8,15,34c17.2-7.6,47.6-18.7,81.1-19.6V469z"/>
	<path class="st0" d="M404.6,364v29.7c20.3-0.7,39.6-5.7,54.9-11.1C443.8,371.6,425,364.8,404.6,364z"/>
	<path class="st0" d="M395.6,364c-20.4,0.9-39.2,7.6-54.9,18.6c15.3,5.4,34.6,10.4,54.9,11.1V364z"/>
	<path class="st0" d="M395.6,401.5c-23.7-0.7-45.8-7-62.4-13.3c-5,4.3-9.7,9-13.8,14.1c16.9,7.3,45.5,17.3,76.2,18.2V401.5z"/>
	<path class="st0" d="M344.6,435.4c23.7,0,38.2,10,50.9,21.3v-28.1c-33.4-0.9-63.9-12-81.1-19.6c-10.1,14.7-16.4,32.1-17.6,51
		c1.3-2.4,2.8-4.8,4.5-7C310.7,441.3,325.2,435.4,344.6,435.4z"/>
	<path class="st0" d="M395.6,513c-30.8,0.9-59.4,11-76.2,18.3c4.1,5.1,8.8,9.9,13.8,14.1c16.6-6.3,38.7-12.6,62.4-13.3V513z"/>
	<path class="st0" d="M404.6,540v29.8c20.4-0.9,39.3-7.6,55-18.6C444.3,545.7,424.9,540.7,404.6,540z"/>
	<path class="st0" d="M491.4,474.2c7.8-10.9,8.5-26.1,7.4-38.2c-3.1-9.7-7.5-18.8-13.1-27c-17.2,7.6-47.6,18.7-81.1,19.6V465
		c13.5,12.6,26.8,24,51,24C472.3,489,484.4,484,491.4,474.2z"/>
	<path class="st0" d="M480.8,531.2c-16.9-7.3-45.5-17.3-76.2-18.3v19.1c23.7,0.7,45.9,7,62.4,13.3
		C472.1,541.1,476.7,536.4,480.8,531.2z"/>
	<path class="st0" d="M395.6,540c-20.3,0.7-39.7,5.7-55,11.1c15.7,11,34.6,17.8,55,18.6V540z"/>
	<path class="st0" d="M537.9,445.5c4.2-4.1,15.2-18,4.4-40.3c0,0-7.3,6.3-8.5,20.3c-1.4-5.2-3-10-4.6-14.3
		c2.6-5.7,8.5-22.5-4.7-34.3c0,0-2.7,9.4-2.3,19.3c-3.6-6.4-7-10.9-9.4-13.7c-0.2-1.2-3.2-16.3-19.4-20.9c0,0,1.2,14.5,16.3,20.1
		c2.6,2.4,7.6,7.9,12.7,17.7c0.1,0.9,0.2,1.8,0.4,2.7c-3.7-4.7-9.6-9.7-18.7-11.9c0,0,6.9,21.7,22.9,21.6c0.4,0.5,0.8,0.9,1.2,1.4
		c0,0,0,0,0.1-0.1c2.2,6.2,4.2,13.5,5.7,21.9c-2.7-6.7-7.5-13.9-15.9-15.2c0,0,2.7,25.2,17.7,27.1c0.9,7.9,1.5,16.7,1.5,26.5
		c0,0.5,0,1,0,1.5c-1.1-7-4.2-15.6-13-20.5c0,0-6.4,21.2,12.4,31.2c-1,8.8-2.9,17.2-5.6,25c-1.8,2.5-3.4,5.4-4.6,8.5
		c0.6-9,0.4-22.4-5.4-24.7c0,0-11.4,22.5,3.1,32.2c0,0.1,0,0.1,0,0.2c0,0,0,0,0,0c-6,11.8-13.3,21.7-20.6,29.4
		c2-6.2,2.4-14.2-3-22.8c0,0-11.2,12.1-5.9,31.2c-5.6,4.7-11.6,8.7-17.1,12c2.5-4.4,3.6-10.4,1-18.4c0,0-16.5,4.7-14.5,26.5
		c-4.1,2.5-6.9,4.4-8.9,5.9c-10.7-3.8-15.4-7.4-25.6-7.4c-14.6,0-29.6,7.4-29.6,7.4s-15-7.4-29.6-7.4c-10.2,0-14.9,3.6-25.6,7.4
		c-2-1.5-4.9-3.4-8.9-5.9c2-21.9-14.5-26.5-14.5-26.5c-2.5,8-1.4,14,1,18.4c-5.4-3.3-11.5-7.3-17.1-12c5.3-19.1-5.9-31.2-5.9-31.2
		c-5.4,8.6-5,16.6-3,22.8c-7.3-7.7-14.6-17.7-20.6-29.4c0,0,0,0,0,0c0-0.1,0-0.1,0-0.2c14.5-9.8,3.1-32.2,3.1-32.2
		c-5.8,2.3-5.9,15.7-5.4,24.7c-1.3-3.1-2.8-6-4.6-8.5c-2.7-7.8-4.7-16.2-5.6-25.1c18.8-9.9,12.4-31.2,12.4-31.2
		c-8.8,4.9-12,13.5-13,20.5c0-0.5,0-1,0-1.5c0-9.7,0.5-18.5,1.5-26.5c15-1.9,17.7-27.1,17.7-27.1c-8.4,1.2-13.3,8.5-16,15.2
		c1.5-8.4,3.5-15.7,5.7-21.9c0,0.1,0.1,0.1,0.1,0.1c0.4-0.4,0.8-0.9,1.2-1.4c16,0.1,22.9-21.6,22.9-21.6c-9,2.2-15,7.2-18.7,11.9
		c0.2-0.9,0.3-1.8,0.4-2.7c5.1-9.8,10.1-15.3,12.7-17.7c15.1-5.6,16.3-20.1,16.3-20.1c-16.3,4.6-19.2,19.7-19.4,20.9
		c-2.4,2.8-5.8,7.3-9.4,13.7c0.4-9.8-2.3-19.3-2.3-19.3c-13.2,11.7-7.3,28.6-4.7,34.3c-1.7,4.3-3.2,9.1-4.6,14.3
		c-1.2-14-8.5-20.4-8.5-20.4c-10.7,22.3,0.3,36.1,4.4,40.3c-1,7.4-1.7,15.5-1.8,24.3c-5.6-17.7-18.6-24.7-18.6-24.7
		c-4.3,29.7,13,37.5,19,39.3c0.6,7.1,1.7,13.8,3.2,20c-9.7-9.8-21.4-13.6-21.4-13.6c-1.2,23.2,18.9,32,28.5,34.8
		c3.3,7.7,7.1,14.4,10.9,20c-9.3-6-17.1-8.8-17.1-8.8c5.1,31.7,29.2,32.7,37.6,32.1c5.4,4.5,11.2,8.4,16.4,11.7
		c-17.9-4.3-31.4,1.7-31.4,1.7c20.4,16,38.7,10,45.5,6.8c2.3,1.4,4.2,2.7,5.7,3.7c-6.8,1.9-15.7,3.7-28.3,4.9c0,0,4.5,5.8,16.9,5.8
		c21.1,0,32.6-13,45.9-13c13.4,0,19.5,8.4,19.5,8.4h7.4h7.4c0,0,6.1-8.4,19.5-8.4c13.4,0,24.8,13,45.9,13c12.4,0,16.9-5.8,16.9-5.8
		c-12.6-1.2-21.5-3-28.3-4.9c1.5-1,3.4-2.2,5.7-3.7c6.8,3.2,25.1,9.2,45.5-6.8c0,0-13.5-6-31.4-1.7c5.3-3.3,11-7.1,16.4-11.7
		c8.4,0.7,32.5-0.3,37.6-32.1c0,0-7.8,2.8-17.1,8.8c3.7-5.6,7.5-12.3,10.9-20c9.6-2.9,29.7-11.6,28.5-34.8c0,0-11.7,3.8-21.4,13.6
		c1.5-6.2,2.6-12.9,3.2-20c6.1-1.8,23.3-9.7,19-39.3c0,0-13,7-18.6,24.7C539.6,461,538.9,452.9,537.9,445.5z"/>
	<polygon class="st0" points="532.7,238.8 524.6,261.8 541,261.8 	"/>
	<polygon class="st0" points="335.9,238.8 327.8,261.8 344.2,261.8 	"/>
	<path class="st0" d="M209.9,277c1.8,0,3.4-0.3,5-0.9c-2.5-1.7-5-3-7.5-3.9l3.4-7.1c4,1.4,7.8,3.5,11.5,6.3c1.6-1.9,2.7-4.2,3.5-6.8
		c0.8-2.7,1.2-5.7,1.2-9.2c0-7.1-1.5-12.5-4.6-16c-3.1-3.5-7.1-5.3-12-5.3s-9,1.8-12.1,5.3c-3.1,3.5-4.6,8.9-4.6,16
		c0,7.2,1.5,12.6,4.6,16.2C201.3,275.2,205.2,277,209.9,277z"/>
	<path class="st0" d="M505.4,440.4l10.6-7.2c-2.4-6.5-3-12.3-3.1-12.8l-0.7-6.8l3.8,0.6c-11.5-6.5-16.4-21.5-16.7-22.3l-2.8-8.9
		l7.1,1.7c-5.4-2.9-8.8-6.9-11.1-10.7l-19.2,12.9C488.8,401,500.2,419.5,505.4,440.4z"/>
	<path class="st0" d="M290.6,541.2c0.8-3.6,2.3-7.1,4.4-10.5l3.6-5.6l4.5,4.9c0.5,0.5,11.9,13,8,32.8c1.2,1,2.4,1.9,3.7,2.7
		c0.1-2.8,0.7-5.7,1.7-8.7l1.5-4.8l4.8,1.3c2.4,0.7,5.5,2.2,8.4,4.7l5.2-3.5c-17.1-12.3-30.5-29.5-38.1-49.4l-9.9,6.7
		c0,5.7-1.5,11.6-6,16.3C284.8,532.6,287.6,537,290.6,541.2z"/>
	<path class="st0" d="M268.3,532.7c-0.4-0.9-0.8-1.8-1.2-2.6c-1.2-0.4-2.4-0.9-3.8-1.4l-2.1,1.4l5.1,1.8
		C266.4,531.9,267.1,532.2,268.3,532.7z"/>
	<path class="st0" d="M504.8,530.7c2.1,3.4,3.6,6.9,4.4,10.5c3-4.2,5.9-8.6,8.4-13.2c-2.6-2.6-4.1-5.7-5-8.8l-10.5,7.1L504.8,530.7z
		"/>
	<path class="st0" d="M476.7,543.4c-9.6,9.5-21,17.3-33.7,22.7l-18,12.2c1.5-0.1,3-0.2,4.6-0.2c8.3,0,13.5,2.2,19.6,4.7
		c1.7,0.7,3.4,1.4,5.3,2.1c1.3-0.9,2.7-1.8,4.3-2.8c-0.3-18.4,11.7-26.8,18.4-28.8l4.7-1.3l1.5,4.8c1,3,1.5,5.9,1.7,8.7
		c1.2-0.9,2.4-1.8,3.7-2.7c-3.9-19.6,7.2-32,7.9-32.8L476.7,543.4z"/>
</g>
</svg>
