<?xml version="1.0" encoding="utf-8"?>
<!-- Generator: Adobe Illustrator 22.1.0, SVG Export Plug-In . SVG Version: 6.00 Build 0)  -->
<svg version="1.1" id="图层_1" xmlns="http://www.w3.org/2000/svg" xmlns:xlink="http://www.w3.org/1999/xlink" x="0px" y="0px"
	 viewBox="0 0 800 800" style="enable-background:new 0 0 800 800;" xml:space="preserve">
<style type="text/css">
	.st0{fill:#013791;}
</style>
<g>
	<path class="st0" d="M400,50C206.7,50,50,206.7,50,400s156.7,350,350,350s350-156.7,350-350S593.3,50,400,50z M400,735
		C215,735,65,585,65,400S215,65,400,65s335,150,335,335S585,735,400,735z"/>
	<path class="st0" d="M400,165c-129.8,0-235,105.2-235,235s105.2,235,235,235s235-105.2,235-235S529.8,165,400,165z M400,620
		c-121.5,0-220-98.5-220-220s98.5-220,220-220s220,98.5,220,220S521.5,620,400,620z"/>
	<path class="st0" d="M521.4,385.1C462.9,290.6,400,191.6,400,191.6s-62.9,99-121.4,193.5s-4.7,213,121.4,213
		S579.9,479.6,521.4,385.1z M323.7,366.3c0-0.6,0.4-1,1-1h143c0.6,0,1,0.4,1,1v31c0,0.6-0.4,1-1,1h-143c-0.6,0-1-0.4-1-1V366.3z
		 M323.6,407.2c0-0.6,0.4-1,1-1h60c0.6,0,1,0.4,1,1v31c0,0.6-0.4,1-1,1h-60c-0.6,0-1-0.4-1-1V407.2z M467.7,447.2c0.6,0,1,0.4,1,1
		v31c0,0.6-0.4,1-1,1h-143c-0.6,0-1-0.4-1-1v-31c0-0.6,0.4-1,1-1H467.7z M323.6,489.1c0-0.6,0.4-1,1-1h60c0.6,0,1,0.4,1,1v31
		c0,0.6-0.4,1-1,1h-60c-0.6,0-1-0.4-1-1V489.1z M468.7,561c0,0.6-0.4,1-1,1h-143c-0.6,0-1-0.4-1-1v-31c0-0.6,0.4-1,1-1h143
		c0.6,0,1,0.4,1,1V561z M502.1,520.1c0,0.6-0.4,1-1,1h-60c-0.6,0-1-0.4-1-1v-31c0-0.6,0.4-1,1-1h60c0.6,0,1,0.4,1,1V520.1z
		 M502.1,438.2c0,0.6-0.4,1-1,1h-60c-0.6,0-1-0.4-1-1v-31c0-0.6,0.4-1,1-1h60c0.6,0,1,0.4,1,1V438.2z"/>
	<path class="st0" d="M115.3,372.2c-18.8,0-34,15.2-34,34c0,18.8,15.2,34,34,34c18.8,0,34-15.2,34-34
		C149.3,387.4,134.1,372.2,115.3,372.2z M134.6,418.3l-10.2-6l1-12l9.4-6.9l11.2,3.5c0.9,2.9,1.3,5.9,1.3,9.1c0,3.4-0.6,6.8-1.6,9.9
		L134.6,418.3z M104.1,426.2l-12.4,1.5c-4.3-4.7-7.1-10.6-8-17.2l7.9-6.7l13.7,2.1l5.1,8.6L104.1,426.2z M113.3,394.5l-3-12.1
		l7.5-8.2c6.2,0.5,11.9,2.7,16.6,6.2l-0.4,12l-9.3,6.7L113.3,394.5z M97.9,379.4l10.9,3.4l3.2,12.6l-6.7,9.1l-12.8-2l-6.8-8.4
		C88.2,388,92.5,382.9,97.9,379.4z M108.5,437.4l-2.8-11.2l5.6-10.6l12.5-1.9l10.1,5.9l0.7,12c-5.4,4.1-12.1,6.5-19.3,6.5
		C113,438.2,110.7,437.9,108.5,437.4z"/>
	<path class="st0" d="M684.7,372.2c-18.8,0-34,15.2-34,34c0,18.8,15.2,34,34,34c18.8,0,34-15.2,34-34
		C718.7,387.4,703.4,372.2,684.7,372.2z M704,418.3l-10.2-6l1-12l9.4-6.9l11.2,3.5c0.9,2.9,1.3,5.9,1.3,9.1c0,3.4-0.6,6.8-1.6,9.9
		L704,418.3z M673.4,426.2l-12.4,1.5c-4.3-4.7-7.1-10.6-8-17.2l7.9-6.7l13.7,2.1l5.1,8.6L673.4,426.2z M682.7,394.5l-3-12.1l7.5-8.2
		c6.2,0.5,11.9,2.7,16.6,6.2l-0.4,12l-9.3,6.7L682.7,394.5z M667.2,379.4l10.9,3.4l3.2,12.6l-6.7,9.1l-12.8-2l-6.8-8.4
		C657.5,388,661.8,382.9,667.2,379.4z M677.9,437.4l-2.8-11.2l5.6-10.6l12.5-1.9l10.1,5.9l0.7,12c-5.4,4.1-12.1,6.5-19.3,6.5
		C682.3,438.2,680.1,437.9,677.9,437.4z"/>
	<g>
		<path class="st0" d="M313,644v9.5c0,0,14.5-4.5,17.5,1.5s0,11-7.5,15s-22.7,12.3-22.7,12.3l-1,7.3l32.7,9.7l2.3-9l-20.3-6
			c0,0,21-8.3,24.7-13.7c3.7-5.3,4.7-11.3,4.3-14.7s-4.3-11.7-11-12.3C325.3,643,320,643,313,644z"/>
		<path class="st0" d="M388.3,668.7c-0.7-11.7-7.6-16.6-15.7-17c-7.6-0.3-11.2,2.1-15.4,5.8s-6.2,13-6.8,25.8s5,22.2,18,23.2
			s19.5-16.2,19.8-22C388.7,678.8,389,680.3,388.3,668.7z M376.8,675.2c-0.5,10.8-3,21.2-7.8,21.5s-6.8-5-6.8-14.2s2-22.2,8.8-22.2
			C374,660.2,377.2,664.5,376.8,675.2z"/>
		<path class="st0" d="M400.5,658c0,0,11.3-1.3,15.5-4.2h7.7v42.7l9.3,0.3v8.2l-30-0.4v-8.2l9.8,0.1v-32.8c0,0-7.1,3.8-12.3,3.8V658
			z"/>
		<path class="st0" d="M444,651l6.7,27.5c0,0,9-4.5,14-3.5s6.2,2.8,6.7,5.2c0.5,2.3,0.3,10.5-5.7,11s-12.7-0.2-13.3-1.5L453,700
			c0,0,12,1.3,17.3-0.7c5.3-2,12.3-6.3,12.7-15.3s-4.3-18-11.7-18.3c-7.3-0.3-13.3,1-13.3,1l-1.7-9.3l18.4-4.4l-2.4-9.3L444,651z"/>
		<circle class="st0" cx="267.7" cy="649" r="8"/>
		<circle class="st0" cx="524.5" cy="651" r="8"/>
	</g>
	<g>
		<circle class="st0" cx="297.4" cy="142.2" r="10.2"/>
		<circle class="st0" cx="405.9" cy="122.7" r="10.2"/>
		<circle class="st0" cx="521.9" cy="152.4" r="10.2"/>
		<path class="st0" d="M272.5,171c-6-9-13.7-13.5-25-8.4c0,0,9.7-11.1,0.5-22.1c-7-8.4-21-5.5-24-3S196.5,157,196.5,157l43,60
			c0,0,17-13,24-18.5S278.5,180,272.5,171z M216.5,157.5l7.8-5.7c3.8-2.8,9.2-1.9,11.9,2c2.6,3.8,1.7,9-2.1,11.7l-7.7,5.5
			L216.5,157.5z M252.3,191.7c-7,5-7,5-7,5l-12.3-15c0,0,4.7-3.3,10-6.7c5.3-3.3,10.3-1.6,12,1S259.3,186.7,252.3,191.7z"/>
		<path class="st0" d="M342.7,89.3l16.7-2.7c0,0,5.7,31.3,7.7,46.7s-5,29.7-19.7,30.7h-13l-0.7-14.3c0,0,17.3,3.4,16.8-7.5
			C350,131.3,342.7,89.3,342.7,89.3z"/>
		<polygon class="st0" points="494.7,112.5 498,98.3 455.7,89.7 439,160.3 455.7,163 461.8,137.1 484.7,142.2 487.7,129.3 
			464.9,123.7 468.9,107 		"/>
		<path class="st0" d="M623,177l-11,13.7c0,0-9-19.7-21-20.7s-28.1,8.6-27.7,23c0.4,15.5,9.8,22.1,24.7,26l-10.7,12.7
			c0,0-32.7-13.7-32-38.3c0.7-24.7,22.3-38.7,38-39C599,154,611.3,162.7,623,177z"/>
	</g>
</g>
</svg>
