<?xml version="1.0" encoding="utf-8"?>
<!-- Generator: Adobe Illustrator 22.1.0, SVG Export Plug-In . SVG Version: 6.00 Build 0)  -->
<svg version="1.1" id="图层_1" xmlns="http://www.w3.org/2000/svg" xmlns:xlink="http://www.w3.org/1999/xlink" x="0px" y="0px"
	 viewBox="0 0 800 800" style="enable-background:new 0 0 800 800;" xml:space="preserve">
<style type="text/css">
	.st0{fill:#0060B4;}
	.st1{fill:#FFFFFF;}
	.st2{fill:#380001;}
	.st3{fill:#E50112;}
	.st4{fill:#80CCE3;}
	.st5{fill:#015EAD;}
</style>
<g>
	<g>
		<path class="st0" d="M400,50c-182.3,0-292.5,40.3-292.5,40.3s0,32.7,0,309.7S400,750,400,750s292.5-73,292.5-350s0-309.7,0-309.7
			S582.3,50,400,50z"/>
		<path class="st1" d="M400,72.2c91.7,0,164.3,10.6,209,19.5c27.8,5.5,48.6,11.1,61.3,14.8V400c0,58.8-14.2,112.5-42.1,159.4
			c-22.5,37.8-54.1,71.7-93.8,100.6C476.5,702.2,417.7,721.7,400,727c-17.6-5.2-75.5-24.3-133.2-66.1c-40-28.9-71.8-62.8-94.5-100.7
			C144,513,129.7,459.1,129.7,400V106.5C164.7,96.2,260.9,72.2,400,72.2"/>
		<path class="st0" d="M146.8,248.7V400c0,56,13.5,106.9,40.1,151.3c21.5,35.9,51.7,68.1,89.8,95.7c50.9,36.8,102.4,55.4,122.3,61.7
			l0.9,0.3l0.9-0.3c20.1-6.4,72.5-25.4,123.4-62.5c37.8-27.6,67.8-59.7,89.1-95.5c26.4-44.3,39.7-95,39.7-150.7V248.7H146.8z"/>
		<g>
			<path class="st2" d="M545.1,337l35.8,64.6h-50.4L494.7,337h-43.8l137.8,248.6c5.3-7.2,10.2-14.7,14.7-22.2c3-5,5.7-10,8.4-15.2
				l-69-124.4h50.4l39.3,70.9c5-18.4,8.3-37.5,9.7-57.3L586.6,337H545.1z"/>
			<path class="st2" d="M269,289.5l19,34.3h77.4l173.2,312.4c11-8.8,21.3-18.1,30.7-27.7L411.5,323.8h231.5v-34.3H269z"/>
		</g>
		<g>
			<path class="st3" d="M279.1,276.9l19,34.3h77.4l174.4,314.6c10.8-9.4,20.7-19.2,29.8-29.4L421.6,311.2h231.5v-34.3H279.1z"/>
			<path class="st3" d="M555.1,324.4l35.8,64.6h-50.4l-35.8-64.6H461l137.8,248.6c5.3-7.2,10.2-14.7,14.7-22.2c3-5,5.7-10,8.4-15.2
				l-69-124.4h50.4l39.3,70.9c5-18.4,8.3-37.5,9.7-57.3l-55.6-100.3H555.1z"/>
		</g>
		<g>
			<path class="st4" d="M253.9,248.7h-28.8l240.2,433.4c7.2-3.6,14.6-7.6,22.2-12L253.9,248.7z"/>
			<path class="st4" d="M169.1,248.7l251.2,453.2c6.9-2.6,14.8-5.8,23.5-9.7L197.9,248.7H169.1z"/>
			<path class="st4" d="M146.8,309.5l213.1,384.4c15.4,6.7,28.2,11.2,36.6,14L146.8,257.5V309.5z"/>
			<path class="st4" d="M146.8,400c0,3.6,0.1,7.2,0.2,10.8l131.6,237.5c14.9,10.7,29.9,19.8,44.1,27.5L146.8,358.5V400z"/>
		</g>
		<path class="st3" d="M400,709l-0.9-0.3c-19.8-6.3-71.4-25-122.3-61.7c-38.1-27.6-68.3-59.7-89.8-95.7
			c-26.6-44.5-40.1-95.4-40.1-151.3V119.5l2.3-0.6c41.7-11,129.7-29.5,250.9-29.5c90.3,0,161.7,10.4,205.7,19.1
			c15.9,3.2,31.1,6.7,45.2,10.4l2.3,0.6V400c0,55.7-13.4,106.4-39.7,150.7c-21.3,35.8-51.3,68-89.1,95.5
			c-51,37.1-103.3,56.1-123.4,62.5L400,709z M152.9,124.1V400c0,54.9,13.2,104.7,39.3,148.2c21.1,35.2,50.8,66.8,88.2,93.9
			c49.4,35.7,99.4,54.1,119.6,60.6c20.5-6.6,71.3-25.3,120.8-61.4c37.2-27.1,66.6-58.6,87.5-93.7c25.8-43.3,38.9-93,38.9-147.6
			V124.1c-13.4-3.5-27.7-6.8-42.6-9.7c-43.7-8.7-114.7-19-204.5-19C281.6,95.4,195.1,113.1,152.9,124.1z"/>
	</g>
	<g>
		<circle class="st5" cx="302.5" cy="494.6" r="103.9"/>
		<circle class="st1" cx="302.5" cy="494.6" r="95.8"/>
	</g>
	<path class="st5" d="M399.1,522.1l-16.4-1.2c1.4-4.7,4.6-18,3-37c3.2-8.2,6.1-21.1,5.1-39.9l-4,0.2c0.9,16.2-1.3,27.7-3.9,35.5
		c-4.4-2.2-13.9-6.7-25.6-9.7c-5-18.6-14.5-32.1-20.6-39.4c1.5-3.3,3.5-8.6,4.1-14.6c7.1,0.3,15.8,0.8,22.1,1.8l0.6-4
		c-6.7-1.1-15.9-1.6-23.2-1.9c-2.9-2.2-15.5-11-29.6-16.3c0,0-19.4,7.1-30.3,16.3c-15.2,0.7-27,3.6-35.5,6.7
		c5.4-5.9,9.7-9.5,9.7-9.5l-17.1,8.6l-6.9,7.6c-2.1,1.3-3.3,2.2-3.5,2.4l0.6,0.8l-17.5,19.5l-6.6,24.7l1,21.7
		c1.2-22.8,11.8-33.4,16.7-37.2c3.2,6.6,8.1,15.5,15.1,25.5c-0.6,8.2-1.9,27.8-0.4,36.4l-13.5,16.9c-9.6-6.5-17.9-31.5-17.9-31.5
		V515l12.6,27.5l-0.9,1.1l2.2,1.8l7.8,17l2-4.5c-4.7-6.3-5.6-12-5.5-15.9l16.3-20.3c5.6,3.9,18,11.7,30.5,12.5
		c2.6,9.3,7.9,22,18.2,36.9l-16.6,15.3l24.7,7.7l31.6-2l9.4-8.1l-4.7-12.4c2.3-2.5,4.7-5.3,7.2-8.5c5.7-7.3,12.1-17.4,15.9-28.8
		c4.3,0,16.5-0.8,24.9-9.5l18.4,1.3L399.1,522.1z M334.3,433.9c6.1,7.5,15.4,21.3,19.9,39.8c-2.7,6.2-8.3,18.2-15.3,28.8
		c-21.2,3.1-36.6,1.9-46.5,0.1c-2.6-5-10-18.7-17.7-30.8c0.4-1.2,0.9-2.5,1.5-3.8c3.1-7.6,9.1-19.6,20.4-35.3L334.3,433.9z
		 M281.7,415.9c2.1,4.1,6.1,11.1,10.7,15.8c-11.9,16.7-18,29.5-21.2,38c-5,0.1-18.7,1.3-32.7,8.6c-6.6-9.7-11.1-18.3-14.1-24.5
		c2.7-10.7,8.8-20.7,14.9-28.4C247.7,421.4,261.7,416.8,281.7,415.9z M328.5,569.8h-36.4c-10.8-15.3-16-28.3-18.5-37.5
		c3.1-3.6,10-12.2,18.4-25.5c5.6,1,12.8,1.8,21.6,1.8c7.1,0,15.2-0.5,24.3-1.8l14.2,24.4C347.4,547.2,336.5,561.2,328.5,569.8z"/>
	<g>
		<path class="st0" d="M195.5,167.3v-5.9h16.7c0.5-2.3,0.7-4.9,0.7-7.9h-15.1v-5.7h36.8v5.7h-15.4c-0.1,2.5-0.3,5.1-0.5,7.9h18.1
			v5.9h-16.3c3.2,7.2,8.9,12,16.9,14.4c-0.7,0.5-2,1.9-3.9,4.3c-0.5,0.6-0.8,1.1-1.1,1.4c-7.4-3.1-12.9-8.6-16.5-16.3
			c-2.5,6.5-7.8,11.8-16,16c-1.1-1.4-2.7-3.1-4.8-5c9.1-4.1,14.4-9,16-14.7H195.5z"/>
		<path class="st0" d="M240.8,161l3.4-4.1c2.2,1.6,4.5,3.4,7,5.6l-3.9,4.3c-0.8-0.7-1.9-1.7-3.2-2.9
			C242.6,162.6,241.5,161.6,240.8,161z M245.3,169.4c1.8,0.7,3.6,1.4,5.6,2c-1.4,5.4-2.8,10.7-3.9,15.8c-2.3-0.7-2.8-0.8-1.4-0.4
			c-1.3-0.5-2.8-1-4.3-1.4C242.2,182.8,243.6,177.5,245.3,169.4z M242,149.7l3.6-3.9c2.8,1.9,5.1,3.7,7,5.4l-4.1,4.1
			C246.3,153.2,244.2,151.4,242,149.7z M263,149v-3.6h5.9v3.6h11.5v6.8h2.5v4.3h-2.5v7H269v2.9h11.1v4.3H269v2.9h13.8v4.3H269v5.6
			H263v-5.6h-12.7v-4.3H263v-2.9h-10.8V170H263v-2.9h-9.7V163h9.7v-2.9h-12.4v-4.3H263v-2.9h-9.7V149H263z M274.5,155.8v-2.9H269
			v2.9H274.5z M269,163h5.6v-2.9H269V163z"/>
		<path class="st0" d="M287.5,167.3v-5.9h16.7c0.5-2.3,0.7-4.9,0.7-7.9h-15.1v-5.7h36.8v5.7h-15.4c-0.1,2.5-0.3,5.1-0.5,7.9h18.1
			v5.9h-16.3c3.2,7.2,8.9,12,16.9,14.4c-0.7,0.5-2,1.9-3.9,4.3c-0.5,0.6-0.8,1.1-1.1,1.4c-7.4-3.1-12.9-8.6-16.5-16.3
			c-2.5,6.5-7.8,11.8-16,16c-1.1-1.4-2.7-3.1-4.8-5c9.1-4.1,14.4-9,16-14.7H287.5z"/>
		<path class="st0" d="M332.9,160.8l3.4-4.1c2.2,1.6,4.4,3.4,6.8,5.4l-3.9,4.7C338.3,165.8,336.2,163.8,332.9,160.8z M337.9,169.4
			c1,0.5,2.6,1.1,4.8,1.8c0.2,0.1,0.4,0.2,0.5,0.2c-0.4,1.4-0.9,3.6-1.6,6.5c-1,3.9-1.7,6.9-2.3,9c-0.4-0.1-0.9-0.3-1.6-0.5
			c-1.8-0.6-3.1-1-3.9-1.1C335.2,180.8,336.6,175.6,337.9,169.4z M333.9,149.3l3.8-3.9c2.2,1.6,4.4,3.4,6.8,5.4l-3.9,4.3
			c-1-1-2.5-2.3-4.7-4.1C335.1,150.2,334.4,149.7,333.9,149.3z M342.4,170.7v-4.3h3.9l0.7-6.8c-0.7,0.6-1.4,1.3-2.2,2
			c-1-1.3-2.1-2.8-3.4-4.5c3.8-3.8,6.6-7.8,8.4-11.8l6.1,0.9c-0.2,0.4-0.6,1-1.1,1.8c-0.1,0.2-0.2,0.4-0.2,0.5h19.6v4.7h-22.4
			c-0.2,0.4-0.6,0.9-1.1,1.6c-0.4,0.5-0.7,0.9-0.9,1.3H372c-0.1,3.5-0.2,6.9-0.2,10.4h3.4v4.3h-3.4c-0.1,1.9-0.2,3.9-0.2,5.9h3.2
			v4.3h-3.4c0,1.9-0.5,3.3-1.4,4.1c-0.7,1-2.2,1.5-4.5,1.6c-1.1,0.1-3.8,0.2-8.3,0.2c-0.1-0.5-0.3-1.2-0.5-2.2
			c-0.4-1-0.6-1.7-0.7-2.2c2.8,0,4.9,0,6.5,0c1.4,0,2.4-0.1,2.9-0.2c0.2-0.4,0.4-0.8,0.4-1.4h-20.8l0.9-10.2H342.4z M354.4,173.2
			l2.7-2.5h-5.6l-0.5,5.9h7.9C357.3,175.4,355.8,174.3,354.4,173.2z M354.6,162.8l2.5-2.5h-4.5l-0.7,6.1h7.2
			C357.4,165,355.9,163.8,354.6,162.8z M363.2,174.1l-2.7,2.5h5.4c0-1.8,0.1-3.8,0.2-5.9h-7.9c0.5,0.2,1.4,0.8,2.7,1.8
			C361.8,173.2,362.6,173.8,363.2,174.1z M363.2,163.5l-2.7,2.9h5.6c0-1.9,0.1-3.9,0.2-6.1h-7.9c0.5,0.2,1.3,0.8,2.3,1.6
			C361.8,162.6,362.6,163.2,363.2,163.5z"/>
		<path class="st0" d="M383.8,164.1v-17.2h32.3v17.2h-12.4v5.7h14.7v5.2h-14.7v5.9c3.3,0,6.3,0,9,0c2.8,0,5.6-0.1,8.6-0.2
			c-0.8,2.2-1.4,3.9-1.8,5.4c-5,0-8.7,0-11.1,0c-2.9,0-5.4-0.1-7.5-0.2c-6.2,0-10.6-1.9-13.1-5.6c-1.4,2.5-3.3,4.8-5.6,7
			c-0.4-0.5-1-1.3-1.8-2.5c-0.6-1.2-1.1-2-1.6-2.5c3.9-3.5,6.2-8.9,6.8-16.2l5.7,0.9c-0.4,2.5-0.8,4.8-1.3,7
			c1.7,3.6,4.2,5.7,7.5,6.3v-16.3H383.8z M389.8,158.9h20.5v-6.6h-20.5V158.9z"/>
		<path class="st0" d="M425.8,184.5l-1.3-5.7c0.6-0.1,1.4-0.3,2.5-0.5c1.2-0.2,2-0.4,2.5-0.5v-10.4h-4.1v-5.4h4.1v-8.6h-4.5v-5.4
			h14.4v5.4h-4.3v8.6h3.8v5.4h-3.8v9.3c1.4-0.4,2.9-0.7,4.3-0.9c0,2,0,3.9,0,5.7C434.8,182.3,430.3,183.3,425.8,184.5z M456.5,148.6
			l3.2-3.2c1.8,1.3,3.7,2.9,5.7,4.7l-2.3,2.3h3.2v5.2h-10.6v2.9c0.1,0.2,0.2,0.5,0.4,0.9c0.2,0.8,0.7,2,1.4,3.6
			c1.9-2.2,3.6-4.1,5-5.9l4.7,3.6c-2.2,2.3-4.5,4.6-7.2,7c2.2,3.2,4.5,6.1,7.2,8.6c-1.2,1.8-2.3,3.6-3.2,5.4
			c-3.1-3-5.9-6.7-8.3-11.1v9.2c0,3.1-1.6,4.8-4.7,5c-1.7,0.1-3.8,0.2-6.5,0.2c-0.4-2.5-0.8-4.3-1.3-5.4c0.4,0,1,0,1.8,0
			c1,0.1,1.7,0.2,2.2,0.2c1.9,0,2.9-1,2.9-2.9v-4.3c-1.1,0.7-2.6,1.7-4.7,3.1c-1.7,1.2-3,2.1-3.9,2.7l-2.5-5.7
			c2.9-1.6,6.6-3.8,11.1-6.6v-10.2h-10.1v-5.2h10.1v-7h5.6v7h5C459.1,150.6,457.6,149.3,456.5,148.6z M439.5,161.7l4.5-2.7
			c1.4,1.9,3.1,4.4,4.8,7.5l-4.7,2.9C442.6,166.5,441,163.9,439.5,161.7z"/>
		<path class="st0" d="M477.7,145l5.6,1.6c-1,2.9-2,5.8-3.1,8.8V187h-5.7v-19.7c-0.1,0.2-0.3,0.6-0.5,1.1c-0.8,1.6-1.6,2.8-2.2,3.6
			c-0.1-0.5-0.2-1.2-0.4-2.2c-0.1-1-0.4-2.9-0.9-5.9C473.3,158.3,475.7,152,477.7,145z M499.1,182l2.9-4.1h-9.5l2.9,4.1
			c-1,0.4-2.3,1-4.1,2c-3.1,1.4-5.4,2.5-7,3.2c-0.8-1.8-1.8-3.4-2.9-4.8c3.7-1.2,7.2-2.7,10.6-4.5h-10.4V173h3.6v-26.2h24.6V173h3.6
			v4.8h-10.8c3.6,1.7,7.1,3.2,10.6,4.5l-3.1,5C506.7,185.4,503,183.6,499.1,182z M504.1,153.8v-2.3h-13.6v2.3H504.1z M490.5,158v2.3
			h13.6V158H490.5z M490.5,164.4v2.3h13.6v-2.3H490.5z M490.5,170.7v2.3h13.6v-2.3H490.5z"/>
		<path class="st0" d="M525.8,169.3l5.6,2.9c-3.1,5-6.5,9.3-10.1,12.9c-1.7-1.6-3.2-2.8-4.7-3.6
			C520.1,177.9,523.2,173.8,525.8,169.3z M535.5,162.6v-7.2h6.5v7.2h15.1v5.6H542v11.5c0,4.3-2.1,6.6-6.3,6.8c-1.9,0-4.2,0.1-7,0.2
			c-0.1-0.5-0.2-1.1-0.4-2c-0.2-1.2-0.6-2.6-1.1-4.1c1.8,0.2,3.6,0.4,5.4,0.4c1.9,0,2.9-0.8,2.9-2.5v-10.2h-16.9l3.1-20.1
			c10.7-0.2,21-1,31.1-2.2l2.2,5.6c-8.5,1.1-17.6,1.7-27.3,1.8l-1.6,9.3H535.5z M545.2,172.5l4.7-3.1c1.9,2,5,6,9.2,11.8
			c-1,0.5-2.3,1.3-4.1,2.3c-0.7,0.5-1.3,0.8-1.6,1.1C550.3,179.6,547.6,175.5,545.2,172.5z"/>
		<path class="st0" d="M585.8,150.1v4.7h-5.6l4.5,2c-0.8,1.4-1.9,2.9-3.1,4.5h5v4.7h-23.9v-4.7h5c-0.2-0.4-0.6-0.9-1.1-1.6
			c-0.7-1.1-1.3-1.9-1.8-2.5l4.1-2.3h-5.4v-4.7h8.3c-0.4-1.4-0.8-2.7-1.4-3.8l6.5-1.1c0.1,0.7,0.4,1.8,0.9,3.2
			c0.2,0.7,0.4,1.3,0.5,1.6H585.8z M570,186.1h-5.2v-16.9h19.9V186h-5.4v-2.3H570V186.1z M573.6,159.6l-2.9,1.6h4.7
			c1.4-2.2,2.6-4.3,3.6-6.5h-9.2C571.5,156.6,572.7,158.3,573.6,159.6z M579.3,179.3v-5.4H570v5.4H579.3z M599.6,163.2
			c3.6,3.6,5.4,7.5,5.4,11.7c0,4.3-1.9,6.7-5.7,7.2c-0.7,0.1-2,0.2-3.9,0.2c-0.1-2-0.5-4.1-1.1-6.1c1.2,0.1,2,0.2,2.5,0.2
			c1.7,0,2.5-0.8,2.5-2.5c0-3.2-1.7-6.6-5.2-10.1c1.4-3.6,2.8-7.4,4.1-11.3h-4.5V187h-5.6v-39.7h16v4.1c-0.5,1.3-1.6,4.1-3.2,8.3
			C600.4,161.2,600,162.3,599.6,163.2z"/>
	</g>
	<g>
		<path class="st0" d="M213.5,204.7h-7.4v19.1h-3.7v-19.1h-7.5v-3.2h18.6V204.7z"/>
		<path class="st0" d="M216.2,201.4h3.6v4h-3.6V201.4z M216.2,207.3h3.6v16.5h-3.6V207.3z"/>
		<path class="st0" d="M239.2,223.7h-3.6c-0.6-0.4-0.9-1.1-1-2c-1.2,1.6-3.2,2.4-5.8,2.4c-3.8-0.1-5.8-1.6-5.9-4.6
			c0.1-3.2,2.2-5.1,6.4-5.5c2.9-0.3,4.6-0.6,5-1.1c0.2-2.1-0.9-3.1-3.2-2.9c-2.5-0.1-3.9,0.8-4.2,2.8l-3.4-1c0.8-3.4,3.4-5.1,7.8-5
			c4.5-0.1,6.7,2.1,6.7,6.5v6.2C237.8,221.4,238.2,222.8,239.2,223.7z M234.2,217.2c0-0.3,0-0.8,0-1.5c-0.6,0.6-2,1.1-4.2,1.3
			c-2.4,0.2-3.6,1-3.4,2.4c-0.1,1.1,0.9,1.7,2.8,1.7C232.4,220.8,234,219.5,234.2,217.2z"/>
		<path class="st0" d="M256,213.3v10.4h-3.6v-10.1c0-2.4-1-3.7-2.9-3.7c-2.6,0.2-4,1.5-4.2,3.8v10h-3.4v-16.5h3.4v2
			c1-1.6,2.5-2.4,4.6-2.4C254.1,206.8,256.1,208.9,256,213.3z"/>
		<path class="st0" d="M260.2,207.3l3.6,0.1v17.4c0.1,2.8-1.3,4.2-4,4.1c-1.1,0-2.2-0.2-3.2-0.5l0.6-2.5c0.1,0,0.2,0,0.3,0.1
			c0.5,0.1,1,0.1,1.5,0.1c0.8,0,1.2-0.5,1.2-1.4V207.3z M260.2,201.4h3.6v4h-3.6V201.4z"/>
		<path class="st0" d="M267.8,201.4h3.6v4h-3.6V201.4z M267.8,207.3h3.6v16.5h-3.6V207.3z"/>
		<path class="st0" d="M289.4,213.3v10.4h-3.6v-10.1c0-2.4-1-3.7-2.9-3.7c-2.6,0.2-4,1.5-4.2,3.8v10h-3.4v-16.5h3.4v2
			c1-1.6,2.5-2.4,4.6-2.4C287.5,206.8,289.5,208.9,289.4,213.3z"/>
		<path class="st0" d="M318.3,204.7h-7.4v19.1h-3.7v-19.1h-7.5v-3.2h18.6V204.7z"/>
		<path class="st0" d="M321,201.4h3.6v4H321V201.4z M321,207.3h3.6v16.5H321V207.3z"/>
		<path class="st0" d="M344,223.7h-3.6c-0.6-0.4-0.9-1.1-1-2c-1.2,1.6-3.2,2.4-5.8,2.4c-3.8-0.1-5.8-1.6-5.9-4.6
			c0.1-3.2,2.2-5.1,6.4-5.5c2.9-0.3,4.6-0.6,5-1.1c0.2-2.1-0.9-3.1-3.2-2.9c-2.5-0.1-3.9,0.8-4.2,2.8l-3.4-1c0.8-3.4,3.4-5.1,7.8-5
			c4.5-0.1,6.7,2.1,6.7,6.5v6.2C342.6,221.4,343,222.8,344,223.7z M339,217.2c0-0.3,0-0.8,0-1.5c-0.6,0.6-2,1.1-4.2,1.3
			c-2.4,0.2-3.6,1-3.4,2.4c-0.1,1.1,0.9,1.7,2.8,1.7C337.2,220.8,338.8,219.5,339,217.2z"/>
		<path class="st0" d="M360.7,213.3v10.4h-3.6v-10.1c0-2.4-1-3.7-2.9-3.7c-2.6,0.2-4,1.5-4.2,3.8v10h-3.4v-16.5h3.4v2
			c1-1.6,2.5-2.4,4.6-2.4C358.9,206.8,360.9,208.9,360.7,213.3z"/>
		<path class="st0" d="M378.8,213.3v10.4h-3.6v-10.1c0-2.4-1-3.7-3-3.7c-2.4,0.2-3.8,1.5-4,3.8v10h-3.6v-22.3h3.6v7.8
			c0.9-1.5,2.4-2.3,4.5-2.3C376.9,206.9,378.9,209,378.8,213.3z"/>
		<path class="st0" d="M398.3,223.7h-3.6c-0.6-0.4-0.9-1.1-1-2c-1.2,1.6-3.2,2.4-5.8,2.4c-3.8-0.1-5.8-1.6-5.9-4.6
			c0.1-3.2,2.2-5.1,6.4-5.5c2.9-0.3,4.6-0.6,5-1.1c0.2-2.1-0.9-3.1-3.2-2.9c-2.5-0.1-3.9,0.8-4.2,2.8l-3.4-1c0.8-3.4,3.4-5.1,7.8-5
			c4.5-0.1,6.7,2.1,6.7,6.5v6.2C396.9,221.4,397.4,222.8,398.3,223.7z M393.4,217.2c0-0.3,0-0.8,0-1.5c-0.6,0.6-2,1.1-4.2,1.3
			c-2.4,0.2-3.6,1-3.4,2.4c-0.1,1.1,0.9,1.7,2.8,1.7C391.5,220.8,393.2,219.5,393.4,217.2z"/>
		<path class="st0" d="M401.1,201.4h3.6v4h-3.6V201.4z M401.1,207.3h3.6v16.5h-3.6V207.3z"/>
		<path class="st0" d="M432.8,204.7h-12.4v5.9h10.7v3.2h-10.7v9.9h-3.7v-22.4h16V204.7z"/>
		<path class="st0" d="M443.6,206.9c5,0.2,7.5,3.1,7.8,8.6c-0.1,5.6-2.8,8.5-8.1,8.6c-5-0.3-7.7-3.1-8-8.3
			C435.4,210.1,438.2,207.1,443.6,206.9z M443.3,221.4c2.7-0.1,4.1-2,4.2-5.7c-0.1-3.7-1.5-5.6-4.2-5.7c-2.9,0.1-4.3,2-4.4,5.8
			C439,219.4,440.5,221.2,443.3,221.4z"/>
		<path class="st0" d="M461.8,206.9c5,0.2,7.5,3.1,7.8,8.6c-0.1,5.6-2.8,8.5-8.1,8.6c-5-0.3-7.7-3.1-8-8.3
			C453.6,210.1,456.4,207.1,461.8,206.9z M461.5,221.4c2.7-0.1,4.1-2,4.2-5.7c-0.1-3.7-1.5-5.6-4.2-5.7c-2.9,0.1-4.3,2-4.4,5.8
			C457.2,219.4,458.7,221.2,461.5,221.4z"/>
		<path class="st0" d="M479.5,221.1l0.6,2.3c-1,0.4-2,0.6-3,0.6c-2.7,0.1-3.9-1.3-3.9-4v-9.9H471v-2.9h2.3v-4.1l3.4-1.7l0.1,5.8h2.9
			l-0.1,2.9h-2.8v9.8c-0.1,1.1,0.3,1.5,1,1.4C478.4,221.4,478.9,221.3,479.5,221.1z"/>
		<path class="st0" d="M485.8,223.7l-3.6,0.1v-22.4h3.6c0,1.5,0,4.1,0,7.6c0.9-1.3,2.4-2,4.3-2.2c4.7-0.1,7.1,2.9,7.1,8.8
			c0,5.5-2.3,8.3-6.8,8.4c-2.2-0.1-3.8-0.8-4.6-2.2C485.8,222.7,485.8,223.2,485.8,223.7z M485.8,214.4v2.2c0,3.2,1.3,4.8,4,4.8
			c2.6,0,3.9-1.9,3.9-5.6c0.1-3.9-1.2-5.9-3.9-5.7C487.1,210.1,485.8,211.5,485.8,214.4z"/>
		<path class="st0" d="M515.8,223.7h-3.6c-0.6-0.4-0.9-1.1-1-2c-1.2,1.6-3.2,2.4-5.8,2.4c-3.8-0.1-5.8-1.6-5.9-4.6
			c0.1-3.2,2.2-5.1,6.4-5.5c2.9-0.3,4.6-0.6,5-1.1c0.2-2.1-0.9-3.1-3.2-2.9c-2.5-0.1-3.9,0.8-4.2,2.8l-3.4-1c0.8-3.4,3.4-5.1,7.8-5
			c4.5-0.1,6.7,2.1,6.7,6.5v6.2C514.4,221.4,514.9,222.8,515.8,223.7z M510.9,217.2c0-0.3,0-0.8,0-1.5c-0.6,0.6-2,1.1-4.2,1.3
			c-2.4,0.2-3.6,1-3.4,2.4c-0.1,1.1,0.9,1.7,2.8,1.7C509,220.8,510.6,219.5,510.9,217.2z"/>
		<path class="st0" d="M518.5,201.4h3.6v22.3h-3.6V201.4z"/>
		<path class="st0" d="M526,201.4h3.6v22.3H526V201.4z"/>
		<path class="st0" d="M560.9,207.6l-3.9,1.1c-1-2.7-2.9-4.2-5.7-4.3c-4.2,0.2-6.5,3-6.7,8.3c0.1,5.4,2.2,8.1,6.5,8.3
			c3.4,0.1,5.5-1.7,6.2-5.3l4,1c-1.3,5-4.7,7.5-10.1,7.4c-6.8-0.1-10.3-3.9-10.4-11.4c0.1-7.5,3.7-11.4,10.8-11.6
			C556,201.1,559.1,203.3,560.9,207.6z"/>
		<path class="st0" d="M564.5,201.4h3.6v22.3h-3.6V201.4z"/>
		<path class="st0" d="M582.6,207.3h3.4v16.5h-3.4V222c-1,1.3-2.5,2-4.6,2c-4.2,0.1-6.2-2-6-6.1v-10.7h3.6v10.3
			c-0.1,2.5,0.9,3.7,3,3.7c2.5-0.2,3.9-1.5,4.1-3.8V207.3z"/>
		<path class="st0" d="M593.7,223.7l-3.6,0.1v-22.4h3.6c0,1.5,0,4.1,0,7.6c0.9-1.3,2.4-2,4.3-2.2c4.7-0.1,7.1,2.9,7.1,8.8
			c0,5.5-2.3,8.3-6.8,8.4c-2.2-0.1-3.8-0.8-4.6-2.2C593.7,222.7,593.7,223.2,593.7,223.7z M593.7,214.4v2.2c0,3.2,1.3,4.8,4,4.8
			c2.6,0,3.9-1.9,3.9-5.6c0.1-3.9-1.2-5.9-3.9-5.7C595,210.1,593.7,211.5,593.7,214.4z"/>
	</g>
</g>
</svg>
