<?xml version="1.0" encoding="utf-8"?>
<!-- Generator: Adobe Illustrator 22.1.0, SVG Export Plug-In . SVG Version: 6.00 Build 0)  -->
<svg version="1.1" id="图层_1" xmlns="http://www.w3.org/2000/svg" xmlns:xlink="http://www.w3.org/1999/xlink" x="0px" y="0px"
	 viewBox="0 0 800 800" style="enable-background:new 0 0 800 800;" xml:space="preserve">
<style type="text/css">
	.st0{fill:#015EAD;}
</style>
<g>
	<path class="st0" d="M400,50c-182.3,0-292.5,40.3-292.5,40.3s0,32.7,0,309.7S400,750,400,750s292.5-73,292.5-350s0-309.7,0-309.7
		S582.3,50,400,50z M670.3,400c0,58.8-14.2,112.5-42.1,159.4c-22.5,37.8-54.1,71.7-93.8,100.6C476.5,702.2,417.7,721.7,400,727
		c-17.6-5.2-75.5-24.3-133.2-66.1c-40-28.9-71.8-62.8-94.5-100.7C144,513,129.7,459.1,129.7,400V106.5
		c35-10.3,131.2-34.3,270.3-34.3c91.7,0,164.3,10.6,209,19.5c27.8,5.5,48.6,11.1,61.3,14.8V400z"/>
	<path class="st0" d="M400,89.3c-121.2,0-209.2,18.5-250.9,29.5l-2.3,0.6v129.2v8.8v52v49V400c0,3.6,0.1,7.2,0.2,10.8v0c0,0,0,0,0,0
		c0.1,4.5,0.4,9,0.7,13.4c0,0.4,0,0.7,0.1,1.1c0.1,1.1,0.2,2.2,0.3,3.3c0,0.5,0.1,1.1,0.1,1.6c0.1,1,0.2,2.1,0.3,3.1
		c0.1,0.6,0.1,1.2,0.2,1.8c0.1,1,0.2,2,0.3,3c0.1,0.6,0.1,1.3,0.2,1.9c0.1,1,0.2,1.9,0.4,2.9c0.1,0.7,0.2,1.3,0.3,2
		c0.1,0.9,0.3,1.9,0.4,2.8c0.1,0.7,0.2,1.3,0.3,2c0.1,0.9,0.3,1.8,0.4,2.8c0.1,0.7,0.2,1.3,0.3,2c0.2,0.9,0.3,1.8,0.5,2.7
		c0.1,0.7,0.2,1.4,0.4,2c0.2,0.9,0.3,1.8,0.5,2.7c0.1,0.7,0.3,1.4,0.4,2c0.2,0.9,0.4,1.8,0.5,2.6c0.1,0.7,0.3,1.4,0.5,2
		c0.2,0.9,0.4,1.7,0.6,2.6c0.2,0.7,0.3,1.4,0.5,2c0.2,0.9,0.4,1.7,0.6,2.6c0.2,0.7,0.3,1.3,0.5,2c0.2,0.9,0.4,1.7,0.7,2.6
		c0.2,0.7,0.4,1.3,0.5,2c0.2,0.9,0.5,1.7,0.7,2.6c0.1,0.2,0.1,0.4,0.2,0.6c0.6,2,1.2,4,1.8,6c0.2,0.7,0.5,1.5,0.7,2.2
		c0.2,0.7,0.5,1.5,0.7,2.2c0.2,0.8,0.5,1.5,0.7,2.2c0.2,0.7,0.5,1.5,0.8,2.2c0.3,0.8,0.5,1.5,0.8,2.3c0.3,0.7,0.5,1.4,0.8,2.2
		c0.3,0.8,0.6,1.5,0.8,2.3c0.3,0.7,0.5,1.4,0.8,2.1c0.3,0.8,0.6,1.5,0.9,2.3c0.3,0.7,0.6,1.4,0.8,2.1c0.3,0.8,0.6,1.5,0.9,2.3
		c0.3,0.7,0.6,1.4,0.9,2.1c0.3,0.8,0.6,1.5,1,2.3c0.3,0.7,0.6,1.4,0.9,2c0.3,0.8,0.7,1.5,1,2.3c0.3,0.7,0.6,1.3,0.9,2
		c0.4,0.8,0.7,1.5,1.1,2.3c0.3,0.6,0.6,1.3,0.9,1.9c0.4,0.8,0.8,1.5,1.1,2.3c0.3,0.6,0.6,1.3,0.9,1.9c0.4,0.8,0.8,1.6,1.2,2.4
		c0.3,0.6,0.6,1.2,0.9,1.8c0.4,0.8,0.9,1.6,1.3,2.5c0.3,0.6,0.6,1.1,0.9,1.7c0.5,0.9,1,1.8,1.5,2.7c0.3,0.5,0.5,0.9,0.8,1.4
		c0.8,1.4,1.6,2.7,2.4,4.1c21.5,35.9,51.7,68.1,89.8,95.7c1.3,0.9,2.6,1.9,3.9,2.8c1.2,0.8,2.4,1.7,3.5,2.5h0l0,0c0,0,0,0,0,0
		c0,0,0,0,0,0c0,0,0,0,0,0c4.6,3.2,9.2,6.2,13.8,9.1c0,0,0,0,0.1,0c4.6,2.9,9.1,5.6,13.6,8.2c0,0,0,0,0,0c0,0,0,0,0,0
		c3.7,2.2,7.4,4.2,11,6.2l0,0c0,0,0,0,0,0c8.3,4.5,16.4,8.6,24,12.1c0,0,0.1,0,0.1,0c1.5,0.7,2.9,1.4,4.3,2c0.1,0,0.2,0.1,0.3,0.1
		c1.4,0.6,2.8,1.3,4.1,1.9c0.1,0,0.1,0.1,0.2,0.1c18,8,32.8,13.3,42,16.2c0.5,0.2,0.9,0.3,1.4,0.4l0.9,0.3l0.9-0.3
		c15.2-4.9,49-17,86.6-38.7l0,0c0,0,0,0,0,0c1.5-0.9,3-1.8,4.5-2.7c0,0,0,0,0,0c1.5-0.9,3-1.8,4.5-2.7c0.1,0,0.1-0.1,0.2-0.1
		c1.5-0.9,2.9-1.8,4.4-2.7c0.2-0.1,0.4-0.2,0.5-0.3c1.4-0.9,2.7-1.7,4.1-2.6c0.3-0.2,0.6-0.4,0.9-0.6c1.2-0.8,2.4-1.6,3.7-2.4
		c0.5-0.3,1-0.7,1.5-1c1-0.7,2.1-1.4,3.1-2.1c0.8-0.5,1.6-1.1,2.4-1.7c0.8-0.5,1.5-1,2.3-1.6c1.6-1.1,3.1-2.2,4.7-3.4
		c2.3-1.7,4.5-3.3,6.7-5c1.9-1.5,3.8-2.9,5.6-4.4c0.3-0.2,0.5-0.4,0.8-0.6c4.3-3.4,8.4-6.8,12.4-10.3c0,0,0,0,0,0l0,0
		c10.7-9.4,20.7-19.2,29.8-29.4c0,0,0,0,0,0c0,0,0,0,0,0c1.6-1.8,3.2-3.6,4.7-5.4c0.1-0.1,0.2-0.3,0.4-0.4c1.6-1.8,3.1-3.7,4.6-5.6
		c0.1-0.1,0.1-0.2,0.2-0.2c3.2-3.9,6.2-7.9,9.1-11.9c0,0,0,0,0,0l0,0c5.3-7.2,10.2-14.7,14.7-22.2c2.2-3.7,4.3-7.5,6.4-11.4l0,0l0,0
		c0.7-1.4,1.5-2.8,2.2-4.1c0,0,0,0,0-0.1c0.7-1.4,1.4-2.7,2.1-4.1c0,0,0-0.1,0.1-0.1c0.7-1.4,1.3-2.7,2-4.1c0-0.1,0-0.1,0.1-0.2
		c0.6-1.4,1.3-2.7,1.9-4.1c0-0.1,0.1-0.1,0.1-0.2c0.6-1.4,1.2-2.8,1.8-4.1c0-0.1,0.1-0.1,0.1-0.2c0.6-1.4,1.2-2.8,1.7-4.2
		c0-0.1,0.1-0.1,0.1-0.2c0.6-1.4,1.1-2.8,1.7-4.2c0-0.1,0.1-0.1,0.1-0.2c0.5-1.4,1.1-2.8,1.6-4.2c0-0.1,0-0.1,0.1-0.2
		c0.5-1.4,1-2.9,1.5-4.3c0-0.1,0-0.1,0.1-0.2c0.5-1.4,1-2.9,1.5-4.3c0-0.1,0-0.1,0.1-0.2c0.5-1.5,0.9-2.9,1.4-4.4c0,0,0-0.1,0-0.1
		c0.5-1.5,0.9-3,1.3-4.5c0,0,0-0.1,0-0.1c0.4-1.5,0.9-3,1.3-4.5c0,0,0-0.1,0-0.1c0.4-1.5,0.8-3,1.2-4.6c0,0,0,0,0-0.1
		c0.4-1.5,0.8-3.1,1.1-4.6c0,0,0,0,0,0c0.4-1.6,0.7-3.1,1.1-4.7c0,0,0,0,0,0c0,0,0,0,0,0c2.1-9.3,3.7-18.9,4.9-28.6c0,0,0,0,0,0
		c0,0,0,0,0,0c0.6-4.9,1.1-9.8,1.4-14.8v0c0,0,0,0,0,0c0.1-1.9,0.3-3.8,0.4-5.7c0-0.3,0-0.6,0-0.9c0.1-1.6,0.2-3.2,0.2-4.8
		c0-0.5,0-0.9,0.1-1.4c0.1-1.5,0.1-3,0.1-4.5c0-0.5,0-1,0-1.5c0-1.9,0.1-3.9,0.1-5.8v-88.8v-34.3v-28.2V119.5l-2.3-0.6
		c-14.1-3.7-29.4-7.2-45.2-10.4C561.7,99.7,490.3,89.3,400,89.3z M152.9,268.4L234.7,416c-6.8,5.8-12.7,12.5-17.8,19.9l-64-115.4
		V268.4z M282.3,401L282.3,401c1.6-0.3,3.2-0.7,4.9-0.9c0,0,0,0,0.1,0c0.8-0.1,1.6-0.2,2.4-0.3c0,0,0.1,0,0.1,0
		c0.8-0.1,1.5-0.2,2.3-0.3c0.1,0,0.2,0,0.3,0c0.7-0.1,1.4-0.1,2.1-0.2c0.1,0,0.3,0,0.4,0c0.7-0.1,1.3-0.1,2-0.1c0.2,0,0.4,0,0.5,0
		c0.7,0,1.3-0.1,2-0.1c0.2,0,0.4,0,0.6,0c0.8,0,1.7,0,2.5,0c0.2,0,0.4,0,0.6,0c-6.6,2.9-16,7.6-22.5,13c-15.2,0.7-27,3.6-35.5,6.7
		c0.6-0.7,1.2-1.3,1.7-1.9c0.4-0.3,0.8-0.6,1.1-0.8c0,0,0.1,0,0.1-0.1c2.4-1.7,4.9-3.2,7.5-4.7c0,0,0.1,0,0.1-0.1
		c0.9-0.5,1.7-0.9,2.6-1.4l0,0C265.8,405.7,273.8,402.8,282.3,401z M341.8,407.2L341.8,407.2c1,0.4,1.9,0.9,2.9,1.4
		c0.1,0.1,0.3,0.1,0.4,0.2c0.9,0.4,1.8,0.9,2.7,1.4c0.1,0,0.1,0.1,0.2,0.1c0.9,0.5,1.9,1,2.8,1.6c0.1,0.1,0.3,0.2,0.4,0.2
		c0.3,0.2,0.6,0.3,0.8,0.5c-3.9-0.3-7.9-0.5-11.4-0.6c-2.1-1.5-9-6.4-17.8-11C329.4,402.4,335.7,404.5,341.8,407.2z M386.7,540.4
		L386.7,540.4c-0.5,0.9-1,1.7-1.5,2.6c-0.1,0.2-0.2,0.4-0.4,0.6c-0.5,0.8-0.9,1.5-1.4,2.3c0,0.1-0.1,0.1-0.1,0.2
		c-0.6,0.9-1.1,1.7-1.7,2.6c-0.1,0.1-0.2,0.2-0.2,0.3c-0.5,0.8-1.1,1.6-1.6,2.3c-0.1,0.1-0.1,0.1-0.2,0.2c-1.3,1.7-2.6,3.4-4,5
		c0,0-0.1,0.1-0.1,0.1c-1.4,1.6-2.8,3.2-4.3,4.8l0,0c-5.9,6.1-12.7,11.4-20.1,15.8l0,0c-2.5,1.5-5.2,2.9-7.9,4.2c0,0,0,0,0,0
		c-0.9,0.4-1.8,0.8-2.7,1.2c0,0,0,0-0.1,0c-1.2,0.5-2.4,1-3.6,1.5l0.2-0.2l-4.7-12.4c2.3-2.5,4.7-5.3,7.2-8.5
		c5.7-7.3,12.1-17.4,15.9-28.8c4.3,0,16.5-0.8,24.9-9.5l12.8,0.9C391.4,530.8,389.3,535.7,386.7,540.4z M359.1,417.4
		c0.1,0.1,0.2,0.2,0.3,0.2c0.8,0.6,1.7,1.3,2.5,1.9c0.1,0.1,0.2,0.1,0.3,0.2c0.7,0.6,1.5,1.2,2.2,1.8c0.1,0.1,0.2,0.2,0.4,0.3
		c0.8,0.7,1.6,1.4,2.3,2.1c0.1,0.1,0.1,0.1,0.2,0.2c0.7,0.6,1.4,1.3,2.1,2c0.1,0.1,0.3,0.3,0.4,0.4c0.7,0.7,1.5,1.5,2.2,2.2
		c0,0,0.1,0.1,0.1,0.1c0.7,0.7,1.3,1.4,2,2.2c0.1,0.1,0.3,0.3,0.4,0.4c1.4,1.5,2.7,3.1,3.9,4.8c0.1,0.2,0.3,0.3,0.4,0.5
		c1.2,1.6,2.4,3.3,3.6,5c0.1,0.2,0.2,0.4,0.4,0.6c0.5,0.8,1.1,1.6,1.6,2.5c0,0,0.1,0.1,0.1,0.1c0.5,0.9,1,1.8,1.6,2.7
		c0.1,0.2,0.2,0.4,0.3,0.6c0.3,0.5,0.5,1,0.8,1.5c0.2,13.4-1.8,23.2-4.1,30.1c-4.4-2.2-13.9-6.7-25.6-9.7
		c-5-18.6-14.5-32.1-20.6-39.4c1.5-3.3,3.5-8.6,4.1-14.6c5.7,0.2,12.4,0.6,18,1.2C359.1,417.3,359.1,417.3,359.1,417.4z
		 M354.2,473.8c-2.7,6.2-8.3,18.2-15.3,28.8c-21.2,3.1-36.6,1.9-46.5,0.1c-2.6-5-10-18.7-17.7-30.8c0.4-1.2,0.9-2.5,1.5-3.8
		c3.1-7.6,9.1-19.6,20.4-35.3l37.7,1.2C340.4,441.5,349.7,455.2,354.2,473.8z M328.5,569.8h-36.4c-10.8-15.3-16-28.3-18.5-37.5
		c3.1-3.6,10-12.2,18.4-25.5c5.6,1,12.8,1.8,21.6,1.8c7.1,0,15.2-0.5,24.3-1.8l14.2,24.4C347.4,547.2,336.5,561.2,328.5,569.8z
		 M271.2,469.6c-5,0.1-18.7,1.3-32.7,8.6c-6.6-9.7-11.1-18.3-14.1-24.5c2.7-10.7,8.8-20.7,14.9-28.4c8.4-3.9,22.3-8.6,42.3-9.4
		c2.1,4.1,6.1,11.1,10.7,15.8C280.5,448.4,274.4,461.1,271.2,469.6z M236.2,519l-13.5,16.9c-5.5-3.8-10.6-13.7-14-21.4
		c-1.3-6.4-2.1-13-2.1-19.8c0-6.7,0.7-13.2,2-19.6c3.9-10,9.6-15.5,12.8-18c3.2,6.6,8.1,15.5,15.1,25.5
		C236,490.8,234.7,510.5,236.2,519z M224.4,550.1c-1.1-3.2-1.4-5.9-1.3-8.2l16.3-20.3c5.6,3.9,18,11.7,30.5,12.5
		c2.6,9.3,7.9,22,18.2,36.9l-15.9,14.6C252.7,579.1,236,566.5,224.4,550.1z M333.3,593.9L392.1,700c-9.5-3.3-22.3-8.2-37.1-14.9
		L307,598.4C316.1,598.1,324.9,596.5,333.3,593.9z M440.8,687c-8.7,3.8-16.6,7-23.5,9.6l-62.3-112.3c7.4-4.3,14.2-9.6,20.2-15.5
		L440.8,687z M398.3,497.7c0,0.2,0,0.5,0,0.7c0,0.9-0.1,1.7-0.1,2.5c0,0.1,0,0.3,0,0.4c-0.1,2.1-0.4,4.2-0.6,6.3l0,0
		c-0.7,4.8-1.7,9.5-3,14l-11.7-0.9c1.4-4.7,4.6-18,3-37c2.4-6,4.6-14.5,5.2-26.1c0.3,0.7,0.6,1.4,0.9,2.1c0.1,0.2,0.2,0.4,0.2,0.6
		c0.3,0.8,0.6,1.6,0.9,2.4c0.1,0.2,0.1,0.4,0.2,0.6c0.3,1,0.6,1.9,0.9,2.9c0.1,0.2,0.1,0.4,0.2,0.6c0.2,0.8,0.5,1.7,0.7,2.5
		c0.1,0.2,0.1,0.5,0.2,0.7c0.3,1,0.5,2,0.7,3c0,0.2,0.1,0.4,0.1,0.5c0.2,0.9,0.4,1.7,0.5,2.6c0,0.3,0.1,0.5,0.1,0.8
		c0.2,1,0.4,2,0.5,3.1c0,0.1,0,0.3,0.1,0.4c0.1,0.9,0.3,1.8,0.4,2.7c0,0.3,0.1,0.5,0.1,0.8c0.1,1,0.2,2.1,0.3,3.2c0,0.1,0,0.2,0,0.3
		c0.1,1,0.1,2,0.2,2.9c0,0.3,0,0.6,0,0.8c0,1.1,0.1,2.2,0.1,3.2C398.3,495.7,398.3,496.7,398.3,497.7z M152.9,400v-30.6l51.1,92.2
		c-3.5,10.4-5.4,21.5-5.4,33c0,3.4,0.2,6.8,0.5,10.2l-45.4-82C153.2,415.4,152.9,407.7,152.9,400z M298.1,661.4
		C298.1,661.4,298.1,661.4,298.1,661.4C298.1,661.4,298.1,661.4,298.1,661.4z M280.3,642.1c-3-2.2-5.9-4.4-8.8-6.6l-32.5-58.6
		c11.4,8.8,24.7,15.3,39.2,18.8l38.9,70.1C305.2,658.9,292.7,651.1,280.3,642.1z M462.3,676.8l-71-128.2c5.6-9.1,9.7-19.2,12.3-29.9
		l81,146C476.9,669.2,469.5,673.2,462.3,676.8z M638.3,474.4l-35.1-63.3h-50.4l65.4,118c-3.1,6.3-6.4,12.4-10,18.5
		c-3.9,6.6-8.2,13.1-12.7,19.5L461,324.4h43.8l35.8,64.6h50.4l-35.8-64.6h41.5l50.1,90.4C645.9,435.4,643,455.3,638.3,474.4z
		 M647.1,311.2H421.6l155,279.6c-9.1,10.3-19,20.2-29.7,29.6L375.5,311.2h-77.4l-19-34.3h368V311.2z M647.1,248.7H253.9l81.7,147.4
		c-10-3.4-20.7-5.2-31.8-5.4l-78.8-142.1h-27.1l80.3,144.9c-8.4,2-16.4,5-23.9,9l-85.3-153.9h-16.2V124.1
		c42.3-11,128.7-28.7,247.1-28.7c89.8,0,160.8,10.3,204.5,19c14.9,3,29.3,6.2,42.6,9.7V248.7z"/>
	<path class="st0" d="M233.4,186c1.9-2.4,3.2-3.8,3.9-4.3c-8-2.4-13.6-7.2-16.9-14.4h16.3v-5.9h-18.1c0.2-2.8,0.4-5.4,0.5-7.9h15.4
		v-5.7h-36.8v5.7H213c0,3-0.2,5.6-0.7,7.9h-16.7v5.9H211c-1.6,5.7-6.9,10.7-16,14.7c2.2,1.9,3.8,3.6,4.8,5c8.1-4.2,13.5-9.5,16-16
		c3.6,7.8,9.1,13.2,16.5,16.3C232.6,187,232.9,186.6,233.4,186z"/>
	<path class="st0" d="M247.2,166.8l3.9-4.3c-2.5-2.2-4.8-4-7-5.6l-3.4,4.1c0.7,0.6,1.8,1.6,3.2,2.9
		C245.3,165.1,246.4,166,247.2,166.8z"/>
	<path class="st0" d="M246.9,187.2c1.2-5.1,2.5-10.4,3.9-15.8c-1.9-0.6-3.8-1.3-5.6-2c-1.7,8-3.1,13.3-4.1,16c1.6,0.5,3,1,4.3,1.4
		C244.1,186.4,244.6,186.5,246.9,187.2z"/>
	<path class="st0" d="M252.6,151.1c-1.9-1.7-4.2-3.5-7-5.4l-3.6,3.9c2.2,1.7,4.3,3.5,6.5,5.6L252.6,151.1z"/>
	<path class="st0" d="M263,155.8h-12.4v4.3H263v2.9h-9.7v4.1h9.7v2.9h-10.8v4.3H263v2.9h-12.7v4.3H263v5.6h5.9v-5.6h13.8v-4.3H269
		v-2.9h11.1V170H269v-2.9h11.5v-7h2.5v-4.3h-2.5V149H269v-3.6H263v3.6h-9.7v3.9h9.7V155.8z M269,152.9h5.6v2.9H269V152.9z
		 M269,160.1h5.6v2.9H269V160.1z"/>
	<path class="st0" d="M329.3,181.7c-8-2.4-13.6-7.2-16.9-14.4h16.3v-5.9h-18.1c0.2-2.8,0.4-5.4,0.5-7.9h15.4v-5.7h-36.8v5.7h15.1
		c0,3-0.2,5.6-0.7,7.9h-16.7v5.9h15.4c-1.6,5.7-6.9,10.7-16,14.7c2.2,1.9,3.8,3.6,4.8,5c8.1-4.2,13.5-9.5,16-16
		c3.6,7.8,9.1,13.2,16.5,16.3c0.2-0.4,0.6-0.8,1.1-1.4C327.2,183.6,328.6,182.1,329.3,181.7z"/>
	<path class="st0" d="M365.7,180.9c0,0.6-0.1,1.1-0.4,1.4c-0.5,0.1-1.4,0.2-2.9,0.2c-1.6,0-3.7,0-6.5,0c0.1,0.5,0.4,1.2,0.7,2.2
		c0.2,1,0.4,1.7,0.5,2.2c4.4,0,7.2-0.1,8.3-0.2c2.3-0.1,3.8-0.7,4.5-1.6c1-0.8,1.4-2.2,1.4-4.1h3.4v-4.3h-3.2c0-2,0.1-4,0.2-5.9h3.4
		v-4.3h-3.4c0-3.5,0.1-6.9,0.2-10.4h-22.1c0.2-0.4,0.5-0.8,0.9-1.3c0.5-0.7,0.8-1.3,1.1-1.6h22.4v-4.7h-19.6c0-0.1,0.1-0.3,0.2-0.5
		c0.5-0.8,0.8-1.4,1.1-1.8l-6.1-0.9c-1.8,4.1-4.6,8-8.4,11.8c1.3,1.7,2.5,3.2,3.4,4.5c0.7-0.7,1.4-1.4,2.2-2l-0.7,6.8h-3.9v4.3h3.4
		l-0.9,10.2H365.7z M365.9,176.6h-5.4l2.7-2.5c-0.6-0.4-1.4-0.9-2.3-1.6c-1.3-1-2.2-1.6-2.7-1.8h7.9
		C366,172.9,365.9,174.8,365.9,176.6z M366.3,160.3c-0.1,2.2-0.2,4.2-0.2,6.1h-5.6l2.7-2.9c-0.6-0.4-1.4-0.9-2.5-1.6
		c-1.1-0.8-1.9-1.4-2.3-1.6H366.3z M352.6,160.3h4.5l-2.5,2.5c1.3,1,2.8,2.2,4.5,3.6h-7.2L352.6,160.3z M351.5,170.7h5.6l-2.7,2.5
		c1.4,1.1,2.9,2.2,4.5,3.4H351L351.5,170.7z"/>
	<path class="st0" d="M333.8,185.2c0.8,0.1,2.2,0.5,3.9,1.1c0.7,0.2,1.3,0.4,1.6,0.5c0.6-2,1.4-5,2.3-9c0.7-2.9,1.3-5,1.6-6.5
		c-0.1,0-0.3-0.1-0.5-0.2c-2.3-0.7-3.9-1.3-4.8-1.8C336.6,175.6,335.2,180.8,333.8,185.2z"/>
	<path class="st0" d="M340.6,155.1l3.9-4.3c-2.4-2-4.7-3.8-6.8-5.4l-3.8,3.9c0.5,0.4,1.1,0.9,2,1.6
		C338.1,152.8,339.6,154.1,340.6,155.1z"/>
	<path class="st0" d="M339.1,166.8l3.9-4.7c-2.4-2-4.7-3.8-6.8-5.4l-3.4,4.1C336.2,163.8,338.3,165.8,339.1,166.8z"/>
	<path class="st0" d="M421.4,180.8c-3,0.1-5.9,0.2-8.6,0.2c-2.6,0-5.6,0-9,0V175h14.7v-5.2h-14.7v-5.7h12.4v-17.2h-32.3v17.2h13.8
		v16.3c-3.4-0.6-5.9-2.7-7.5-6.3c0.5-2.2,0.9-4.5,1.3-7l-5.7-0.9c-0.6,7.3-2.9,12.7-6.8,16.2c0.5,0.5,1,1.3,1.6,2.5
		c0.8,1.2,1.4,2,1.8,2.5c2.3-2.2,4.1-4.5,5.6-7c2.5,3.7,6.9,5.6,13.1,5.6c2.2,0.1,4.7,0.2,7.5,0.2c2.4,0,6.1,0,11.1,0
		C419.9,184.7,420.5,182.9,421.4,180.8z M389.8,158.9v-6.6h20.5v6.6H389.8z"/>
	<path class="st0" d="M450.3,167.8c-4.5,2.9-8.3,5.1-11.1,6.6l2.5,5.7c1-0.6,2.3-1.5,3.9-2.7c2-1.3,3.6-2.3,4.7-3.1v4.3
		c0,1.9-1,2.9-2.9,2.9c-0.5,0-1.2-0.1-2.2-0.2c-0.8,0-1.4,0-1.8,0c0.5,1.1,0.9,2.9,1.3,5.4c2.6,0,4.8-0.1,6.5-0.2
		c3.1-0.2,4.7-1.9,4.7-5v-9.2c2.4,4.4,5.1,8.1,8.3,11.1c1-1.8,2-3.6,3.2-5.4c-2.6-2.5-5-5.4-7.2-8.6c2.6-2.4,5-4.7,7.2-7l-4.7-3.6
		c-1.4,1.8-3.1,3.8-5,5.9c-0.7-1.6-1.2-2.8-1.4-3.6c-0.1-0.4-0.2-0.7-0.4-0.9v-2.9h10.6v-5.2h-3.2l2.3-2.3c-2-1.8-3.9-3.3-5.7-4.7
		l-3.2,3.2c1.1,0.7,2.5,2,4.3,3.8h-5v-7h-5.6v7h-10.1v5.2h10.1V167.8z"/>
	<path class="st0" d="M427.1,178.2c-1.1,0.2-1.9,0.4-2.5,0.5l1.3,5.7c4.4-1.2,9-2.2,13.6-3.1c0-1.8,0-3.7,0-5.7
		c-1.4,0.2-2.9,0.5-4.3,0.9v-9.3h3.8v-5.4h-3.8v-8.6h4.3v-5.4h-14.4v5.4h4.5v8.6h-4.1v5.4h4.1v10.4
		C429.1,177.8,428.3,178,427.1,178.2z"/>
	<path class="st0" d="M444,159l-4.5,2.7c1.6,2.2,3.1,4.7,4.7,7.7l4.7-2.9C447,163.5,445.4,161,444,159z"/>
	<path class="st0" d="M510,187.4l3.1-5c-3.5-1.3-7-2.8-10.6-4.5h10.8V173h-3.6v-26.2h-24.6V173h-3.6v4.8h10.4
		c-3.4,1.8-6.9,3.3-10.6,4.5c1.1,1.4,2,3.1,2.9,4.8c1.6-0.7,3.9-1.8,7-3.2c1.8-1,3.2-1.6,4.1-2l-2.9-4.1h9.5l-2.9,4.1
		C503,183.6,506.7,185.4,510,187.4z M490.5,151.5h13.6v2.3h-13.6V151.5z M490.5,158h13.6v2.3h-13.6V158z M490.5,164.4h13.6v2.3
		h-13.6V164.4z M490.5,173v-2.3h13.6v2.3H490.5z"/>
	<path class="st0" d="M477.7,145c-2,6.9-4.4,13.2-7.2,18.8c0.5,3,0.8,5,0.9,5.9c0.1,1,0.2,1.7,0.4,2.2c0.6-0.8,1.3-2,2.2-3.6
		c0.2-0.5,0.4-0.8,0.5-1.1V187h5.7v-31.6c1.1-3,2.1-5.9,3.1-8.8L477.7,145z"/>
	<path class="st0" d="M545.2,172.5c2.4,3,5.1,7.1,8.1,12.2c0.4-0.2,0.9-0.6,1.6-1.1c1.8-1.1,3.2-1.9,4.1-2.3
		c-4.2-5.9-7.2-9.8-9.2-11.8L545.2,172.5z"/>
	<path class="st0" d="M542,168.2h15.1v-5.6H542v-7.2h-6.5v7.2H526l1.6-9.3c9.7-0.1,18.8-0.7,27.3-1.8l-2.2-5.6
		c-10.1,1.2-20.4,1.9-31.1,2.2l-3.1,20.1h16.9v10.2c0,1.7-1,2.5-2.9,2.5c-1.8,0-3.6-0.1-5.4-0.4c0.5,1.6,0.8,2.9,1.1,4.1
		c0.1,0.8,0.2,1.5,0.4,2c2.8-0.1,5.1-0.2,7-0.2c4.2-0.2,6.3-2.5,6.3-6.8V168.2z"/>
	<path class="st0" d="M531.4,172.1l-5.6-2.9c-2.6,4.5-5.7,8.6-9.2,12.2c1.4,0.8,3,2,4.7,3.6C524.9,181.5,528.3,177.2,531.4,172.1z"
		/>
	<path class="st0" d="M579.3,186h5.4v-16.7h-19.9v16.9h5.2v-2.5h9.3V186z M570,179.3v-5.4h9.3v5.4H570z"/>
	<path class="st0" d="M584.7,156.7l-4.5-2h5.6v-4.7h-7.4c-0.1-0.4-0.3-0.9-0.5-1.6c-0.5-1.4-0.8-2.5-0.9-3.2l-6.5,1.1
		c0.6,1.1,1.1,2.3,1.4,3.8h-8.3v4.7h5.4l-4.1,2.3c0.5,0.6,1.1,1.4,1.8,2.5c0.5,0.7,0.8,1.3,1.1,1.6h-5v4.7h23.9v-4.7h-5
		C582.9,159.6,583.9,158.1,584.7,156.7z M575.4,161.2h-4.7l2.9-1.6c-0.8-1.3-2.1-2.9-3.8-4.8h9.2C578,156.9,576.8,159,575.4,161.2z"
		/>
	<path class="st0" d="M600.9,159.8c1.7-4.2,2.8-6.9,3.2-8.3v-4.1h-16V187h5.6v-34.6h4.5c-1.3,3.9-2.7,7.7-4.1,11.3
		c3.5,3.5,5.2,6.8,5.2,10.1c0,1.7-0.8,2.5-2.5,2.5c-0.5,0-1.3-0.1-2.5-0.2c0.6,2,1,4.1,1.1,6.1c1.9,0,3.2-0.1,3.9-0.2
		c3.8-0.5,5.7-2.9,5.7-7.2c0-4.2-1.8-8.1-5.4-11.7C600,162.3,600.4,161.2,600.9,159.8z"/>
	<polygon class="st0" points="194.9,204.7 202.5,204.7 202.5,223.7 206.1,223.7 206.1,204.7 213.5,204.7 213.5,201.4 194.9,201.4 	
		"/>
	<rect x="216.2" y="207.3" class="st0" width="3.6" height="16.5"/>
	<rect x="216.2" y="201.4" class="st0" width="3.6" height="4"/>
	<path class="st0" d="M237.8,213.3c0.1-4.4-2.2-6.5-6.7-6.5c-4.4-0.1-7,1.5-7.8,5l3.4,1c0.3-2,1.7-2.9,4.2-2.8
		c2.4-0.1,3.4,0.8,3.2,2.9c-0.4,0.4-2,0.8-5,1.1c-4.2,0.4-6.3,2.3-6.4,5.5c0.1,3,2.1,4.6,5.9,4.6c2.7,0,4.6-0.8,5.8-2.4
		c0.1,0.9,0.4,1.6,1,2h3.6c-0.9-0.9-1.4-2.3-1.4-4.2V213.3z M234.2,217.2c-0.2,2.4-1.8,3.7-4.8,3.9c-1.9,0-2.9-0.6-2.8-1.7
		c-0.1-1.4,1-2.2,3.4-2.4c2.2-0.2,3.6-0.6,4.2-1.3C234.2,216.4,234.2,216.9,234.2,217.2z"/>
	<path class="st0" d="M249.9,206.9c-2.1,0-3.6,0.8-4.6,2.4v-2h-3.4v16.5h3.4v-10c0.2-2.3,1.6-3.6,4.2-3.8c1.9,0,2.9,1.2,2.9,3.7
		v10.1h3.6v-10.4C256.1,208.9,254.1,206.8,249.9,206.9z"/>
	<path class="st0" d="M260.2,224.7c0,0.9-0.4,1.4-1.2,1.4c-0.5,0-1,0-1.5-0.1c-0.1-0.1-0.3-0.1-0.3-0.1l-0.6,2.5
		c1,0.4,2.1,0.5,3.2,0.5c2.7,0.1,4.1-1.3,4-4.1v-17.4l-3.6-0.1V224.7z"/>
	<rect x="260.2" y="201.4" class="st0" width="3.6" height="4"/>
	<rect x="267.8" y="207.3" class="st0" width="3.6" height="16.5"/>
	<rect x="267.8" y="201.4" class="st0" width="3.6" height="4"/>
	<path class="st0" d="M283.3,206.9c-2.1,0-3.6,0.8-4.6,2.4v-2h-3.4v16.5h3.4v-10c0.2-2.3,1.6-3.6,4.2-3.8c1.9,0,2.9,1.2,2.9,3.7
		v10.1h3.6v-10.4C289.5,208.9,287.5,206.8,283.3,206.9z"/>
	<polygon class="st0" points="299.7,204.7 307.2,204.7 307.2,223.7 310.9,223.7 310.9,204.7 318.3,204.7 318.3,201.4 299.7,201.4 	
		"/>
	<rect x="321" y="207.3" class="st0" width="3.6" height="16.5"/>
	<rect x="321" y="201.4" class="st0" width="3.6" height="4"/>
	<path class="st0" d="M342.6,213.3c0.1-4.4-2.2-6.5-6.7-6.5c-4.4-0.1-7,1.5-7.8,5l3.4,1c0.3-2,1.7-2.9,4.2-2.8
		c2.4-0.1,3.4,0.8,3.2,2.9c-0.4,0.4-2,0.8-5,1.1c-4.2,0.4-6.3,2.3-6.4,5.5c0.1,3,2.1,4.6,5.9,4.6c2.7,0,4.6-0.8,5.8-2.4
		c0.1,0.9,0.4,1.6,1,2h3.6c-0.9-0.9-1.4-2.3-1.4-4.2V213.3z M339,217.2c-0.2,2.4-1.8,3.7-4.8,3.9c-1.9,0-2.9-0.6-2.8-1.7
		c-0.1-1.4,1-2.2,3.4-2.4c2.2-0.2,3.6-0.6,4.2-1.3C339,216.4,339,216.9,339,217.2z"/>
	<path class="st0" d="M354.7,206.9c-2.1,0-3.6,0.8-4.6,2.4v-2h-3.4v16.5h3.4v-10c0.2-2.3,1.6-3.6,4.2-3.8c1.9,0,2.9,1.2,2.9,3.7
		v10.1h3.6v-10.4C360.9,208.9,358.9,206.8,354.7,206.9z"/>
	<path class="st0" d="M372.8,206.9c-2.2,0-3.7,0.8-4.5,2.3v-7.8h-3.6v22.3h3.6v-10c0.2-2.3,1.5-3.6,4-3.8c2,0,3,1.2,3,3.7v10.1h3.6
		v-10.4C378.9,209,376.9,206.9,372.8,206.9z"/>
	<path class="st0" d="M396.9,213.3c0.1-4.4-2.2-6.5-6.7-6.5c-4.4-0.1-7,1.5-7.8,5l3.4,1c0.3-2,1.7-2.9,4.2-2.8
		c2.4-0.1,3.4,0.8,3.2,2.9c-0.4,0.4-2,0.8-5,1.1c-4.2,0.4-6.3,2.3-6.4,5.5c0.1,3,2.1,4.6,5.9,4.6c2.7,0,4.6-0.8,5.8-2.4
		c0.1,0.9,0.4,1.6,1,2h3.6c-0.9-0.9-1.4-2.3-1.4-4.2V213.3z M393.4,217.2c-0.2,2.4-1.8,3.7-4.8,3.9c-1.9,0-2.9-0.6-2.8-1.7
		c-0.1-1.4,1-2.2,3.4-2.4c2.2-0.2,3.6-0.6,4.2-1.3C393.4,216.4,393.4,216.9,393.4,217.2z"/>
	<rect x="401.1" y="207.3" class="st0" width="3.6" height="16.5"/>
	<rect x="401.1" y="201.4" class="st0" width="3.6" height="4"/>
	<polygon class="st0" points="416.7,223.7 420.4,223.7 420.4,213.8 431.1,213.8 431.1,210.6 420.4,210.6 420.4,204.7 432.8,204.7 
		432.8,201.3 416.7,201.3 	"/>
	<path class="st0" d="M443.6,206.9c-5.4,0.1-8.1,3.1-8.3,8.9c0.3,5.2,2.9,8,8,8.3c5.3-0.1,8-3,8.1-8.6
		C451.1,210,448.5,207.1,443.6,206.9z M443.3,221.4c-2.9-0.1-4.3-2-4.4-5.6c0.1-3.8,1.5-5.7,4.4-5.8c2.7,0.1,4.1,2,4.2,5.7
		C447.5,219.4,446.1,221.3,443.3,221.4z"/>
	<path class="st0" d="M461.8,206.9c-5.4,0.1-8.1,3.1-8.3,8.9c0.3,5.2,2.9,8,8,8.3c5.3-0.1,8-3,8.1-8.6
		C469.3,210,466.7,207.1,461.8,206.9z M461.5,221.4c-2.9-0.1-4.3-2-4.4-5.6c0.1-3.8,1.5-5.7,4.4-5.8c2.7,0.1,4.1,2,4.2,5.7
		C465.7,219.4,464.3,221.3,461.5,221.4z"/>
	<path class="st0" d="M477.8,221.4c-0.7,0.1-1-0.3-1-1.4v-9.8h2.8l0.1-2.9h-2.9l-0.1-5.8l-3.4,1.7v4.1H471v2.9h2.3v9.9
		c-0.1,2.7,1.2,4.1,3.9,4c1-0.1,2-0.3,3-0.6l-0.6-2.3C478.9,221.3,478.4,221.4,477.8,221.4z"/>
	<path class="st0" d="M490.1,206.9c-1.9,0.1-3.4,0.9-4.3,2.2c0-3.6,0-6.1,0-7.6h-3.6v22.4l3.6-0.1c0-0.5,0-1.1,0-1.7
		c0.9,1.4,2.4,2.1,4.6,2.2c4.5-0.1,6.8-2.9,6.8-8.4C497.2,209.8,494.8,206.9,490.1,206.9z M489.8,221.4c-2.7,0-4-1.6-4-4.8v-2.2
		c0-2.9,1.3-4.3,4-4.3c2.7-0.1,3.9,1.8,3.9,5.7C493.6,219.5,492.3,221.4,489.8,221.4z"/>
	<path class="st0" d="M514.4,213.3c0.1-4.4-2.2-6.5-6.7-6.5c-4.4-0.1-7,1.5-7.8,5l3.4,1c0.3-2,1.7-2.9,4.2-2.8
		c2.4-0.1,3.4,0.8,3.2,2.9c-0.4,0.4-2,0.8-5,1.1c-4.2,0.4-6.3,2.3-6.4,5.5c0.1,3,2.1,4.6,5.9,4.6c2.7,0,4.6-0.8,5.8-2.4
		c0.1,0.9,0.4,1.6,1,2h3.6c-0.9-0.9-1.4-2.3-1.4-4.2V213.3z M510.9,217.2c-0.2,2.4-1.8,3.7-4.8,3.9c-1.9,0-2.9-0.6-2.8-1.7
		c-0.1-1.4,1-2.2,3.4-2.4c2.2-0.2,3.6-0.6,4.2-1.3C510.9,216.4,510.9,216.9,510.9,217.2z"/>
	<rect x="518.5" y="201.4" class="st0" width="3.6" height="22.3"/>
	<rect x="526" y="201.4" class="st0" width="3.6" height="22.3"/>
	<path class="st0" d="M551.1,220.9c-4.2-0.1-6.4-2.9-6.5-8.3c0.2-5.3,2.4-8.1,6.7-8.3c2.8,0.1,4.7,1.6,5.7,4.3l3.9-1.1
		c-1.8-4.3-4.9-6.5-9.4-6.6c-7,0.2-10.6,4.1-10.8,11.6c0.1,7.5,3.6,11.3,10.4,11.4c5.5,0.1,8.8-2.4,10.1-7.4l-4-1
		C556.6,219.2,554.5,221,551.1,220.9z"/>
	<rect x="564.5" y="201.4" class="st0" width="3.6" height="22.3"/>
	<path class="st0" d="M582.6,217.5c-0.2,2.3-1.6,3.6-4.1,3.8c-2.1,0.1-3.1-1.1-3-3.7v-10.3h-3.6v10.7c-0.1,4.2,1.9,6.2,6,6.1
		c2.1-0.1,3.6-0.8,4.6-2v1.7h3.4v-16.5h-3.4V217.5z"/>
	<path class="st0" d="M598,206.9c-1.9,0.1-3.4,0.9-4.3,2.2c0-3.6,0-6.1,0-7.6h-3.6v22.4l3.6-0.1c0-0.5,0-1.1,0-1.7
		c0.9,1.4,2.4,2.1,4.6,2.2c4.5-0.1,6.8-2.9,6.8-8.4C605.1,209.8,602.7,206.9,598,206.9z M597.7,221.4c-2.7,0-4-1.6-4-4.8v-2.2
		c0-2.9,1.3-4.3,4-4.3c2.7-0.1,3.9,1.8,3.9,5.7C601.5,219.5,600.2,221.4,597.7,221.4z"/>
</g>
</svg>
