<?xml version="1.0" encoding="utf-8"?>
<!-- Generator: Adobe Illustrator 22.1.0, SVG Export Plug-In . SVG Version: 6.00 Build 0)  -->
<svg version="1.1" id="图层_1" xmlns="http://www.w3.org/2000/svg" xmlns:xlink="http://www.w3.org/1999/xlink" x="0px" y="0px"
	 viewBox="0 0 800 800" style="enable-background:new 0 0 800 800;" xml:space="preserve">
<style type="text/css">
	.st0{fill:#2C2B57;}
</style>
<g>
	<path class="st0" d="M400,72.7c0,0-48,2-156.3,20c0,0,58.7-8,156.3-11.3c97.7,3.3,156.3,11.3,156.3,11.3
		C448,74.7,400,72.7,400,72.7z"/>
	<path class="st0" d="M368.2,555.6c2.5,3.6,5.5,2.9,4.1,1.2s-2.5-9.4-3.4-16.2s-1.1-6.5-2-7.8s-2.4-1.8-5.1-2.6s-3.4-2.5-3.4-2.5
		c-0.6,3.8,0.5,6.6,2.9,13.9S365.8,552,368.2,555.6z"/>
	<path class="st0" d="M378.8,548.8c0.8-1.3,1.2-5.8,1.4-9.2c0.2-3.4-0.3-4.5-2.3-5c-1.5-0.4-4.6-0.7-6.1-0.9
		c-0.6-0.1-1.1,0.4-1.1,0.9c0,1.9,1.1,5.3,3.2,9.9C376.6,550.1,378,550.1,378.8,548.8z"/>
	<path class="st0" d="M386.7,547.9c2.9,0,2.9-8.1,2.7-11.2c0-0.7-0.6-1.3-1.3-1.4c-1.8-0.2-3.8-0.1-5.1,0c-0.7,0.1-1.2,0.8-1.1,1.5
		C382.4,540,383.8,547.9,386.7,547.9z"/>
	<path class="st0" d="M396.1,546.5c2.1-0.2,2.2-5.8,2.5-7.8c0.3-2.1,0.5-3.2-0.7-3.3c-1.2-0.2-5.8-0.1-5.8-0.1s-1.3-0.1-0.8,1.9
		C392.2,541.2,394,546.7,396.1,546.5z"/>
	<path class="st0" d="M375.3,580c-0.9,2.8-2.9,10.4-2,15.4c1.1,5.2,1.9,5,4,5.2s3.4,0,3.9,0s1.6-1.9,0.8-5.1
		c-0.8-2.8-3-12.7-5.2-15.8C376.3,579.2,375.5,579.3,375.3,580z"/>
	<path class="st0" d="M387.1,587.9c0,0-1.8,0-2.8,4.8s-1.5,7.9,1,8.4s4.8-0.4,5.1-1.4S390.4,588.4,387.1,587.9z"/>
	<path class="st0" d="M395.2,589.8c0,0-2,1.9-2.5,6.6s0.4,5.4,2.8,5.4s4.4,0,3.6-3.9S398,589.9,395.2,589.8z"/>
	<path class="st0" d="M361.6,457.4c-1.1,0.2-2.8-0.1-4-1.4c-1.2-1.3-1.1-3.9,0.2-5.6c0,0-4.3-3.2-8.8-4.2c0,0,1.3,1.9,1.7,4.7
		s0.5,8.2,5.2,9.2s6.2,0.8,9.2-0.7l-1.9-3.2C363.3,456.3,362.7,457.2,361.6,457.4z"/>
	<path class="st0" d="M310.5,365.7c0.8,5.7,2.5,23.2,2,35.2c0,0-15.5,1.8-20.8,3.4c0,0,8,11.4,10.8,12.1l-18.9,6.2l14.8,5.2
		c0,0-14.4,7.2-16.6,8.1c-2.2,0.9-7,3.2-8.9,3.2c0,0,0.4,2.2,4.3,2.2c3.9,0,7.8-0.3,7.8-0.3s-5.2,6.2-6.2,10.8
		c-1,4.6-0.6,9.5-0.6,9.5l16.2-8.8c0,0-14.6,25.3-13.1,46.8c0,0,4.8-12,22.2-13.2c0,0-9.3,20.7-3.8,48.8c0,0,3-11.2,13.1-19.7
		c2.6-2.3,5.7-5.2,5.7-5.2s-9.4,22.5,0.4,39.3c0,0,1-3.8,3.3-5.8s8.8-7.2,10.7-10.2c0,0,2.1,5.7,4.7,8.4s10.8,10,13.2,13.8
		s6.8,10.4,8.5,26.8c0,0,2.9-8.2,0-15.5s-7.5-12.8-9.2-15.2s-5.2-6.1-7.1-11.6l14.5,6.4c0,0-4.5-7.6-5-13.8s-0.1-9.9,2.1-13.9
		s9.5-15.9,9.5-15.9s-3,9.6-4,14.1c-2.6,8.4,8.4,14.6,17.6,14.9s22.5,0.4,22.5,0.4s13.2-0.1,22.5-0.4s20.2-6.5,17.6-14.9
		c-1-4.5-4-14.1-4-14.1s7.2,11.9,9.5,15.9s2.6,7.8,2.1,13.9s-5,13.8-5,13.8l14.5-6.4c-1.9,5.5-5.4,9.1-7.1,11.6s-6.4,8-9.2,15.2
		s0,15.5,0,15.5c1.8-16.4,6-23,8.5-26.8s10.6-11,13.2-13.8s4.7-8.4,4.7-8.4c1.8,3,8.3,8.2,10.7,10.2s3.3,5.8,3.3,5.8
		c9.8-16.8,0.4-39.3,0.4-39.3s3.1,2.8,5.7,5.2c10.1,8.5,13.1,19.7,13.1,19.7c5.5-28.2-3.8-48.8-3.8-48.8
		c17.3,1.2,22.2,13.2,22.2,13.2c1.5-21.5-13.1-46.8-13.1-46.8l16.2,8.8c0,0,0.4-4.9-0.6-9.5c-1-4.6-6.2-10.8-6.2-10.8
		s3.8,0.3,7.8,0.3c3.9,0,4.3-2.2,4.3-2.2c-1.9,0.1-6.8-2.2-8.9-3.2c-2.2-0.9-16.6-8.1-16.6-8.1l14.8-5.2l-18.9-6.2
		c2.8-0.7,10.8-12.1,10.8-12.1c-5.3-1.7-20.8-3.4-20.8-3.4c-0.5-12.1,1.2-29.6,2-35.2c0.8-5.7,2.5-15.3,4.5-25.7
		c2-10.3,4-24.9,4-24.9s-9.8,6.4-18.6,19.8s-18.9,30.2-26.1,43.2l6.9,13.6c0,0-14.2-11.9-22.9-14.6c0,0-23.9-0.6-37.2,5.9
		c-13.4-6.5-37.2-5.9-37.2-5.9c-8.6,2.8-22.9,14.6-22.9,14.6l6.9-13.6c-7.2-13-17.2-29.9-26.1-43.2S302,315.1,302,315.1
		s2,14.6,4,24.9C308,350.3,309.7,360,310.5,365.7z M366.2,475.7c-6.5,3.3-13.7,5.7-19.3,6.2c-5.7,0.5-8.8-1.8-12.5-5
		c-3.7-3.2-13-8.7-22.5-8.7c0,0,7.3-3.3,16.7-0.5s11.7,3.5,15.3,4.8c3.7,1.3,12.8,3,18.7,0.7c5.8-2.3,12-4.5,18.5-4.2
		C381,469,372.7,472.3,366.2,475.7z M379.7,408.5c0,0,15.8,5.7,20.3,20.7c4.5-15,20.3-20.7,20.3-20.7c-14.5,11-20.3,66.2-20.3,66.2
		S394.2,419.5,379.7,408.5z M419.6,509.5c-1.6,6.2-3,10.4-7.5,13.5s-12.1,2.1-12.1,2.1s-7.6,1-12.1-2.1s-5.9-7.2-7.5-13.5
		s-3-11.6-1-14.6s3.9-4.4,4.9-5s3.4-0.4,5.2,0.8c0.6,0.3,2.2,0,2.2,0s-3.3-9.6-9.7-11.2c0,0,7.6-0.3,11.2,5.5
		c2.1,3.3,3.2,4.2,4.1,4.6c0.9,0.4,3.3-0.3,1.6-4.8s-5.8-12-15.9-15.8c0,0,12.6,2.1,17,9.8c4.4-7.6,17-9.8,17-9.8
		c-10.1,3.8-14.2,11.3-15.9,15.8s0.7,5.2,1.6,4.8c0.9-0.4,2-1.2,4.1-4.6c3.7-5.8,11.2-5.5,11.2-5.5c-6.3,1.7-9.7,11.2-9.7,11.2
		s1.6,0.4,2.2,0c1.9-1.1,4.2-1.4,5.2-0.8s2.9,2,4.9,5S421.2,503.2,419.6,509.5z M488.2,468.2c-9.5,0-18.8,5.5-22.5,8.7
		c-3.7,3.2-6.8,5.5-12.5,5c-5.7-0.5-12.8-2.8-19.3-6.2c-6.5-3.3-14.8-6.7-14.8-6.7c6.5-0.3,12.7,1.8,18.5,4.2
		c5.8,2.3,15,0.7,18.7-0.7c3.7-1.3,6-2,15.3-4.8S488.2,468.2,488.2,468.2z M478.2,359.2c3.2-7,12.8-25,12.8-25s-6,25-8,34.3
		c-2,9.3-1.2,25-1.2,25c-7.3-11.8-7.3-14.5-8-18.3C473.2,371.3,475,366.2,478.2,359.2z M461.5,405.2c0,0-9.2,2.2-20.7,18.7
		c0,0,14.5-5,25-1c0,0-21.5-2.8-43.7,32.2C422.2,455,430.2,407.5,461.5,405.2z M434.6,447.6c8.4-7.3,13.5-8.5,24.5-11.9
		c11-3.4,17.2-11.6,18.8-13.8c1.6-2.2,3.9-3.5,3.9-3.5c-6.3,18.4-21.6,25.2-21.6,25.2s-2.9,6.3-3.8,8.8c-0.8,2.4-0.5,3.6-0.5,3.6
		s1.1-0.8,12.8-0.4c11.7,0.3,13.1,2.9,13.1,2.9c-21-1.3-23.7-0.2-27.7,3.2s-7.8,5-11.3,5.2c-3.6,0.2-7.8-0.1-9.4-0.5
		c-1.6-0.4-3.5-0.7-5.7-0.7c-2.2,0-6.5,2.1-6.5,2.1S426.2,454.9,434.6,447.6z M400,398.8c4.2-6.7,20.7-7.8,20.7-7.8
		c-16.5,5.2-20.7,19.8-20.7,19.8s-4.2-14.7-20.7-19.8C379.3,391,395.8,392.2,400,398.8z M372.3,465.6c-2.2,0-4.1,0.2-5.7,0.7
		c-1.6,0.4-5.8,0.7-9.4,0.5c-3.6-0.2-7.3-1.8-11.3-5.2s-6.7-4.5-27.7-3.2c0,0,1.4-2.6,13.1-2.9c11.7-0.3,12.8,0.4,12.8,0.4
		s0.3-1.2-0.5-3.6c-0.8-2.4-3.8-8.8-3.8-8.8s-15.3-6.8-21.6-25.2c0,0,2.3,1.3,3.9,3.5c1.6,2.2,7.8,10.3,18.8,13.8
		c11,3.4,16.1,4.6,24.5,11.9c8.4,7.3,13.4,20.1,13.4,20.1S374.5,465.6,372.3,465.6z M338.5,405.2c31.3,2.3,39.3,49.8,39.3,49.8
		c-22.2-35-43.7-32.2-43.7-32.2c10.5-4,25,1,25,1C347.7,407.3,338.5,405.2,338.5,405.2z M321.8,359.2c3.2,7,5,12.2,4.3,16
		c-0.7,3.8-0.7,6.5-8,18.3c0,0,0.8-15.7-1.2-25c-2-9.3-8-34.3-8-34.3S318.7,352.2,321.8,359.2z"/>
	<path class="st0" d="M407.6,491.1c-3.8-0.8-7.6-0.7-7.6-0.7s-3.9-0.1-7.6,0.7s-4.2,2.3-4.1,3.3s1,3.4,4.1,2.5s7.7-1,7.7-1
		s4.6,0.1,7.7,1s4-1.5,4.1-2.5S411.4,491.9,407.6,491.1z"/>
	<path class="st0" d="M370.1,608.2c8.4,2.6,26.9,7.2,29.9,9.9c3-2.6,21.5-7.2,29.9-9.9s9.9-5.6,9.9-8.5s0-10.8,0-12.8
		s-2.2-6.8-1.9-11.7s1.8-8.4,3.5-12.9s7-10.6,9.1-13.2s4.1-6.3,4.1-6.3s-6.4,3.4-14.2,10.9s-8.6,21.6-8.5,25.1s0.2,10.4,0.1,17.5
		s-5.6,7.8-9.1,7.9s-22.9,1.2-22.9,1.2s-19.4-1.1-22.9-1.2s-9-0.8-9.1-7.9s0-14,0.1-17.5s-0.6-17.6-8.5-25.1s-14.2-10.9-14.2-10.9
		s2,3.6,4.1,6.3s7.4,8.8,9.1,13.2s3.1,7.9,3.5,12.9s-1.9,9.7-1.9,11.7s0,9.8,0,12.8S361.8,605.6,370.1,608.2z"/>
	<path class="st0" d="M444,460.2c4.8-1,4.9-6.5,5.2-9.2s1.7-4.7,1.7-4.7c-4.4,0.9-8.8,4.2-8.8,4.2c1.3,1.7,1.4,4.2,0.2,5.6
		c-1.2,1.3-2.9,1.6-4,1.4c-1.1-0.2-1.8-1.1-1.8-1.1l-1.9,3.2C437.8,461,439.2,461.2,444,460.2z"/>
	<path class="st0" d="M260.7,442.8c4.2,3.5,7.2,5.2,10.2,5.2c0,0-4,9.5-6.8,19.8s-4.7,15.5-4.7,15.5l15.8-8.7c0,0-5.3,14.8-2.3,29.2
		s10.8,30.7,10.8,30.7s1.3-26.3,6-32.7c0,0-3.3,23.8,1.3,36.3s15,24,15,24l0.5-15.8c0,0,2.2,6.8,7,13.5s13,17.5,13,17.5
		s-1-10.2-1.2-15.5c-0.2-5.3,4.8-12.7,6.7-13.7c0,0,7.8,7.2,11.2,12.3c3.3,5.2,7,13,5.7,28c-1.3,15-1,12.2-1.2,16.8
		c-0.2,4.7,1.3,7.3,5,9.5c3.7,2.2,9.8,5.2,13.3,6.8c3.5,1.7,6,4,8.5,9.7s5.7,13.3,5.7,13.3l7.2-11c0,0,2.5,7.8,4.8,11
		c2.3,3.2,6,7.5,7.8,8.3c1.8-0.8,5.5-5.2,7.8-8.3c2.3-3.2,4.8-11,4.8-11l7.2,11c0,0,3.2-7.7,5.7-13.3s5-8,8.5-9.7
		c3.5-1.7,9.7-4.7,13.3-6.8c3.7-2.2,5.2-4.8,5-9.5c-0.2-4.7,0.2-1.8-1.2-16.8c-1.3-15,2.3-22.8,5.7-28c3.3-5.2,11.2-12.3,11.2-12.3
		c1.8,1,6.8,8.3,6.7,13.7c-0.2,5.3-1.2,15.5-1.2,15.5s8.2-10.8,13-17.5s7-13.5,7-13.5l0.5,15.8c0,0,10.3-11.5,15-24
		s1.3-36.3,1.3-36.3c4.7,6.3,6,32.7,6,32.7s7.8-16.3,10.8-30.7s-2.3-29.2-2.3-29.2l15.8,8.7c0,0-1.8-5.2-4.7-15.5
		s-6.8-19.8-6.8-19.8c3,0,6-1.7,10.2-5.2c4.2-3.5,10.9-9.8,10.9-9.8c-21.8-0.2-27-4.2-27-4.2l17.2-7.2c-4-2.2-27.8-8.5-27.8-8.5
		l14-13l-23.2-5.8c0,0-1-19.2,0.8-33s2.2-22.2,1.8-32.2s-3.5-20.2-3.5-20.2c-8.5-0.8-14.5,3-19.8,6.5s-15.8,15.2-23,25.2
		s-20.5,24-20.5,24l-32.4,0.5c-2.8,1.4-6.8,1.3-6.8,1.3s-4.1,0.1-6.8-1.3l-32.4-0.5c0,0-13.2-14-20.5-24s-17.8-21.8-23-25.2
		s-11.2-7.2-19.8-6.5c0,0-3,10.2-3.5,20.2s0,18.5,1.8,32.2s0.8,33,0.8,33l-23.2,5.8l14,13c0,0-23.8,6.2-27.8,8.5l17.2,7.2
		c0,0-5.2,4-27,4.2C249.8,433,256.5,439.3,260.7,442.8z M273.2,436.8c5.2-1.8,20.7-8.8,20.7-8.8s-14.8-4.1-16.9-5.7l22.8-5.9
		l-14.2-13.2l16.9-4.4c0,0,1.2-13.2,0.7-21.8s-2.5-26.3-3.2-32.2s-0.2-20,2-29.8c7.8,0.7,13.5,6.9,17,10.2s15,16.8,23.3,27.7
		c8.3,10.8,16.4,17.5,16.4,17.5H390c0.3,0,0.7,0.1,1,0.3c1.9,1.1,6.2,2,9,2s7.1-0.9,9-2c0.3-0.2,0.6-0.3,1-0.3h31.3
		c0,0,8.1-6.7,16.4-17.5c8.3-10.8,19.8-24.3,23.3-27.7s9.2-9.6,17-10.2c2.2,9.8,2.7,23.9,2,29.8s-2.7,23.7-3.2,32.2
		s0.7,21.8,0.7,21.8l16.9,4.4l-14.2,13.2l22.8,5.9c-2.1,1.6-16.9,5.7-16.9,5.7s15.4,7.1,20.7,8.8s7.9,1.9,7.9,1.9
		c-0.6,0.8-4.3,3.7-7.4,3.8s-9.4,0.2-9.4,0.2c6.4,7.1,8,14,8.6,16.7s2.5,10.4,2.5,10.4l-17.3-10.7c16.7,32.2,8,48.8,8,48.8
		c-3.2-14.8-18.3-18.7-18.3-18.7s2,7.8,3.8,26.8c1.8,19-5.7,28-5.7,28c-0.6-16.2-13-25.8-13-25.8c8.8,23.6-5.9,39.2-5.9,39.2
		c0-3.8-2.4-7.2-4-9.2c-1.6-2.1-4.8-5.1-6.2-6.6c-1.4-1.5-3.4-4.1-3.4-4.1c0.1,2.1-1.2,3.8-2.2,4.8c-1.1,1.1-3.5,3.2-10.7,11.2
		s-9.3,20.5-9.3,25.3c0,4.8,1.1,17.8,1.3,24s-2.8,7.9-4.8,8.7s-10,4.4-13.3,6.1s-6.1,6.4-6.7,7.9s-2.7,6.1-2.7,6.1s-2-3.8-3.8-6.7
		s-2.8-3.8-4.1-3.6s-1.7,1.8-4.3,10.9s-6.4,12-6.4,12s-3.8-2.9-6.4-12s-3.1-10.7-4.3-10.9s-2.3,0.7-4.1,3.6s-3.8,6.7-3.8,6.7
		s-2.1-4.6-2.7-6.1s-3.4-6.2-6.7-7.9s-11.2-5.4-13.3-6.1s-5-2.4-4.8-8.7s1.3-19.2,1.3-24c0-4.8-2.2-17.3-9.3-25.3
		s-9.6-10.1-10.7-11.2c-1.1-1.1-2.3-2.8-2.2-4.8c0,0-2,2.6-3.4,4.1c-1.4,1.5-4.7,4.5-6.2,6.6c-1.6,2.1-4,5.4-4,9.2
		c0,0-14.7-15.6-5.9-39.2c0,0-12.4,9.5-13,25.8c0,0-7.5-9-5.7-28c1.8-19,3.8-26.8,3.8-26.8s-15.2,3.8-18.3,18.7c0,0-8.7-16.7,8-48.8
		L271,469.8c0,0,1.9-7.7,2.5-10.4s2.1-9.7,8.6-16.7c0,0-6.3-0.1-9.4-0.2s-6.8-3-7.4-3.8C265.3,438.7,268,438.5,273.2,436.8z"/>
	<path class="st0" d="M431.8,555.6c2.5-3.6,4.5-6.8,6.9-14s3.5-10.1,2.9-13.9c0,0-0.6,1.6-3.4,2.5s-4.2,1.4-5.1,2.6s-1.1,0.9-2,7.8
		s-2,14.6-3.4,16.2S429.2,559.2,431.8,555.6z"/>
	<path class="st0" d="M421.2,548.8c0.8,1.3,2.2,1.3,4.8-4.3c2.1-4.6,3.2-8,3.2-9.9c0-0.6-0.5-1-1.1-0.9c-1.5,0.2-4.6,0.5-6.1,0.9
		c-2,0.5-2.6,1.6-2.3,5C420,542.9,420.3,547.4,421.2,548.8z"/>
	<path class="st0" d="M413.3,547.9c2.9,0,4.3-7.9,4.7-11.1c0.1-0.7-0.4-1.4-1.1-1.5c-1.3-0.1-3.2-0.3-5.1,0
		c-0.7,0.1-1.3,0.7-1.3,1.4C410.5,539.8,410.4,547.9,413.3,547.9z"/>
	<path class="st0" d="M403.9,546.5c2.1,0.2,3.9-5.3,4.8-9.3c0.5-2-0.8-1.9-0.8-1.9s-4.7-0.1-5.8,0.1c-1.2,0.2-1,1.2-0.7,3.3
		C401.8,540.8,401.8,546.3,403.9,546.5z"/>
	<path class="st0" d="M374.2,553.7c2.2,2.5,3.8,7.8,3.7,10.2c-0.2,2.4-0.7,10.8,0.2,13.4c2,5.6,6.3,7.5,6.3,7.5
		c-3.1-5.9-0.8-10.8-0.8-10.8c1.7,7.2,6.2,9.2,6.2,9.2c3.1-6,10.2-5.5,10.2-5.5s7.1-0.5,10.2,5.5c0,0,4.6-1.9,6.2-9.2
		c0,0,2.2,4.8-0.8,10.8c0,0,4.3-1.9,6.3-7.5c0.8-2.7,0.3-11,0.2-13.4c-0.2-2.4,1.4-7.8,3.7-10.2c0,0-4.2-0.4-6.1,3.5
		c-1.9,3.9-2.9,8.9-5,10.2c0,0-0.2-5.9-0.5-7.2c-0.3-1.3-1.5-3.8-4.3-4.3c-2.8-0.6-4.9,1.3-5.6,1.6s-4.2,0.2-4.2,0.2
		s-3.6,0.1-4.2-0.2s-2.8-2.2-5.6-1.6c-2.8,0.6-4,3-4.3,4.3c-0.3,1.3-0.5,7.2-0.5,7.2c-2.2-1.2-3.2-6.2-5-10.2
		C378.4,553.2,374.2,553.7,374.2,553.7z"/>
	<path class="st0" d="M423.4,579.7c-2.2,3-4.5,13-5.2,15.8c-0.9,3.2,0.2,5.1,0.8,5.1s1.8,0.2,3.9,0s2.9,0,4-5.2
		c0.9-5-1.2-12.6-2-15.4C424.5,579.3,423.7,579.2,423.4,579.7z"/>
	<path class="st0" d="M412.9,587.9c-3.2,0.5-3.8,10.8-3.4,11.8s2.6,1.9,5.1,1.4s2-3.6,1-8.4S412.9,587.9,412.9,587.9z"/>
	<path class="st0" d="M404.8,589.8c-2.8,0.1-3.1,4.2-3.9,8.1s1.2,3.9,3.6,3.9s3.2-0.6,2.8-5.4S404.8,589.8,404.8,589.8z"/>
	<path class="st0" d="M321.2,111.6c0.3,0.1,0.7,0.2,1.4,0.2l1.3,0l0-3l-0.5,0c-0.1,0-0.2-0.1-0.4-0.2c-0.1-0.1-0.2-0.4-0.3-0.8
		l-0.2-1.6l-2.9,0l0.6,3.8c0.1,0.5,0.2,0.9,0.3,1.1C320.8,111.3,321,111.5,321.2,111.6z"/>
	<path class="st0" d="M318,125.7c0.5-0.5,0.7-1.2,0.7-2.1l-0.1-8.5c0-0.4-0.1-0.8-0.2-1.2c-0.1-0.4-0.5-0.8-1.2-1.4
		c0.6-0.5,1-0.9,1.1-1.2c0.2-0.3,0.2-0.7,0.2-1.3l-0.1-9.9l-10.2,0.1l0.2,27.2l3.7,0l0-1l3.3,0C316.8,126.5,317.6,126.2,318,125.7z
		 M312.1,103.8l2.8,0l0,6c0,0.8-0.4,1.3-1.2,1.3l-1.6,0L312.1,103.8z M314.8,123c-0.1,0.1-0.5,0.1-1.2,0.1l-1.4,0l-0.1-8.5l1.6,0
		c0.5,0,0.8,0.1,0.9,0.2c0.2,0.1,0.2,0.6,0.2,1.3l0,6.1C315,122.7,314.9,122.9,314.8,123z"/>
	<path class="st0" d="M331.6,108.3c-0.1,0.1-0.3,0.1-0.6,0.1l-0.5,0l0,3l1.5,0c1.2,0,1.9-0.3,2.2-0.8c0.3-0.5,0.5-1.2,0.7-1.9
		l0.5-2.7l-3,0l-0.4,1.5C331.8,108,331.7,108.3,331.6,108.3z"/>
	<path class="st0" d="M322,124.2l-0.6,0l-1.6,0l0,3.2l3.4,0c1,0,1.7-0.2,1.9-0.5c0.2-0.3,0.5-0.9,0.8-1.7l1.5-4.6l2.7,5
		c0.3,0.6,0.6,1,0.8,1.2c0.3,0.2,0.5,0.3,0.8,0.4c0.2,0.1,0.7,0.1,1.4,0.1l2.3,0l0-3.2l-0.9,0c-0.2,0-0.4-0.1-0.7-0.3
		c-0.3-0.2-0.4-0.4-0.5-0.5l-2.6-4.3l-2.7,0l0.6-2.2l6.7-0.1l0-3.4l-6.3,0l-0.1-9.1l6.3,0l0-3.3l-6.3,0l0-1.3l-3.9,0l0,1.3l-5.5,0
		l0,3.3l5.5,0l0.1,9.1l-5.5,0l0,3.4l4.9,0l-2,5.9C322.4,123.6,322.2,124.1,322,124.2z"/>
	<path class="st0" d="M341.6,126.4l21.3-1.2c1.3-0.1,2.2-0.2,2.8-0.5c0.6-0.3,1-0.7,1.3-1.4c0.3-0.7,0.3-1.9,0.2-3.6l-0.9-15.4
		l-8,0.5l-0.2-3.1l8.4-0.5l-0.2-3.1l-26.8,1.6l0.2,3.1l8.2-0.5l0.2,3.1l-7.6,0.4L341.6,126.4z M362.2,107.7l0.5,8.4l-2.1,0.1
		c-0.6,0-1-0.1-1.3-0.3c-0.3-0.3-0.4-0.9-0.5-2l-0.4-6L362.2,107.7z M354.5,101.9l0.2,3.1l-3.1,0.2l-0.2-3.1L354.5,101.9z
		 M351.5,119.1c0.6-0.8,0.8-1.8,0.7-2.9l-0.5-7.9l3.1-0.2l0.4,7.5c0,0.6,0.2,1.3,0.6,2.2c0.3,0.8,0.9,1.3,1.6,1.5
		c0.8,0.2,1.6,0.2,2.5,0.2l2.9-0.2l0.1,1.4c0.1,0.9-0.2,1.4-0.8,1.4l-16.8,1l-0.1-2.4l2.7-0.2C349.8,120.4,350.9,119.9,351.5,119.1z
		 M348.2,108.5l0.4,7.2c0,0.6,0,1-0.1,1.2c-0.1,0.2-0.5,0.3-1,0.4l-2.4,0.1l-0.5-8.7L348.2,108.5z"/>
	<path class="st0" d="M398.8,109.9h-21V97.7h-4.5v12.1h-1.5v3.7h1.5v8.6c0,1,0.2,1.8,0.7,2.3c0.5,0.5,1.1,0.8,2,0.8h6.9v-3.8h-3.8
		c-0.5,0-0.8-0.1-1-0.3c-0.2-0.2-0.3-0.8-0.3-1.7v-6h21V109.9z"/>
	<path class="st0" d="M392.3,98l-2.4,1.7c-3,2.1-4.8,3.2-5.3,3.4c-0.5,0.1-1.6,0.2-3.2,0.2h-1.1v3.7h2.4l2.9,0.1
		c0.9-0.1,1.8-0.4,2.6-0.8c0.8-0.5,2-1.3,3.6-2.6l7.1-5.7L392.3,98z"/>
	<path class="st0" d="M390.3,118.3l-4.1-3.3h-6.6l8.4,6.8c1.7,1.4,2.8,2.3,3.5,2.7s1.4,0.7,2.2,0.9l2.9-0.1h2.4v-3.8h-1.1
		c-1.3,0-2.3-0.1-3.1-0.3C394,121,392.5,120,390.3,118.3z"/>
	<path class="st0" d="M406.9,121.2c-0.3,0-1.4,0.1-3.1,0.1h-2.3v3.5h4.5c1.4,0,2.3-0.1,2.8-0.2s1-0.2,1.4-0.4l4.5-1.7l4.4,1.7
		c0.8,0.3,1.3,0.5,1.7,0.5c0.4,0,1.2,0.1,2.4,0.1h5.5v-3.5h-3.6l-2.2-0.2c-0.6,0-1-0.1-1.2-0.2l-1.4-0.6l4.1-2
		c1.1-0.5,1.7-1.1,1.8-1.8s0.3-1.4,0.3-2.3v-3.7h2.1V107h-2.1v-1.7h-4.3v1.7h-14.2v-1.6h-4.3v1.6h-2.3v3.6h2.3v5.5
		c0,0.7,0.1,1.2,0.4,1.6c0.3,0.4,0.9,0.8,1.7,1.2l4,1.6l-1.7,0.5C407.7,121.1,407.2,121.2,406.9,121.2z M409.6,116.3
		c-0.6-0.2-1.1-0.5-1.2-0.8s-0.3-0.9-0.3-2v-3.1h14.2v3.1c0,0.6-0.1,1.1-0.2,1.4s-0.7,0.6-1.6,1l-5.3,2.2L409.6,116.3z"/>
	<polygon class="st0" points="428.6,104 428.6,98.3 417.7,98.3 417,97.3 413.2,97.3 412.4,98.3 401.5,98.3 401.5,104 405.7,104 
		405.7,101.7 424.4,101.7 424.4,104 	"/>
	<polygon class="st0" points="460.3,100 449.7,99.8 448.9,98.7 444.8,98.6 444.1,99.7 433.6,99.4 433.5,102.6 460.2,103.1 	"/>
	<path class="st0" d="M456.8,119.4c0.9,0,1.6-0.2,2.1-0.7c0.5-0.5,0.8-1.2,0.8-2.2l0.1-5.7l-26.7-0.6l-0.2,8.7l15.1,0.4l-0.1,3.9
		c0,0.8,0.1,1.4,0.3,1.9c0.2,0.5,0.6,0.8,1,0.9c0.4,0.1,1.1,0.2,2,0.3l8.1,0.2l0.1-3.1l-6.2-0.2c-0.6,0-0.9-0.1-1-0.3
		s-0.2-0.5-0.2-1.1l0.1-2.5L456.8,119.4z M437.1,115.9l0.1-2.5l18.7,0.4l0,1.6c0,0.3-0.1,0.6-0.2,0.7c-0.1,0.2-0.4,0.2-0.9,0.2
		L437.1,115.9z"/>
	<polygon class="st0" points="460.2,105.8 458.4,105.8 458.5,104.1 454.3,104.1 453.5,105.7 440.8,105.4 440,104 435.9,103.9 
		435.8,105.3 433.5,105.2 433.5,108.3 460.2,108.9 	"/>
	<path class="st0" d="M437.6,122.8c-0.4,0.2-1.2,0.2-2.2,0.2l-2.6-0.1l-0.1,3.1l4.1,0.1c2,0,3.3-0.1,3.9-0.4
		c0.6-0.3,1.3-1.2,2.2-2.6l2.1-3.4l-4.7-0.1l-1.4,2C438.5,122.3,438.1,122.6,437.6,122.8z"/>
	<path class="st0" d="M491,105.1l0.1-3.3l-5.7-0.2l0.1-2.5l-3.8-0.1l-0.1,2.5l-5-0.2l-0.1,3.3l5,0.2l-0.1,3.6l-5.2-0.2l-0.1,3.3
		l10,0.3l-3,4.3l-2.4-3.2l-4.3-0.1l4.2,6.5l-2.4,2.9c-0.2,0.3-0.5,0.5-1,0.7c-0.4,0.2-0.8,0.3-1.1,0.2l-1.1,0l-0.1,3.3l2.7,0.1
		c0.7,0,1.3-0.1,1.8-0.3c0.5-0.2,1.1-0.7,1.7-1.3l1.8-2.1l1.8,2.3c0.4,0.5,0.8,0.9,1.2,1.2c0.4,0.3,1.2,0.5,2.3,0.6l2.6,0.1l0.1-3.3
		l-0.9,0c-1,0-1.9-0.4-2.4-1.2l-2-2.6l5.4-7.7l0.1-3.3l-5.7-0.2l0.1-3.6L491,105.1z"/>
	<path class="st0" d="M467.9,123l-3.4-0.1l-0.1,3.3l4.5,0.1c0.8,0,1.5-0.1,2.1-0.2c0.6-0.2,1.1-0.4,1.3-0.8c0.2-0.3,0.4-0.7,0.5-1.1
		c0.1-0.4,0.2-0.9,0.2-1.4l0.4-12.3l1.6,0.1l0.1-3.8l-1.6-0.1l0.1-2l2,0.1l0.1-3.3l-2-0.1l0.1-2.5l-3.9-0.1l-0.1,2.5l-5.1-0.2
		l-0.1,3.3l5.1,0.2l-0.1,3.7l-3.4,6.2c-0.2,0.3-0.4,0.6-0.5,0.7c-0.1,0.2-0.3,0.2-0.6,0.2l-0.9,0l-0.1,3.9l1.8,0.1
		c0.3,0,0.6,0,0.9-0.1c0.2-0.1,0.5-0.3,0.7-0.6c0.3-0.3,0.5-0.6,0.6-0.8l1.2-1.9l-0.2,5.5C469.1,122.5,468.7,123,467.9,123z"/>
	<polygon class="st0" points="186.1,205.9 193.9,204.9 185.5,177.2 	"/>
	<path class="st0" d="M293.6,247.2c-4.6,0.2-5.2,0.9-5.2,7.3c0.1,6.4,1.2,7,5.8,6.8c4.6-0.2,4.2-3.2,4-8.2S297.2,247.2,293.6,247.2z
		"/>
	<path class="st0" d="M317.8,245.5c-4.6,0.2-5.2,0.9-5.2,7.3c0.1,6.4,1.2,7,5.8,6.8c4.6-0.2,4.2-3.2,4-8.2S321.4,245.5,317.8,245.5z
		"/>
	<path class="st0" d="M511,248.2c0,0-2.7-0.3-4.9,0c-0.6,0.1-1.1,0.5-1.4,1l-0.8,10.7c0.6,1.6,2.1,2.4,3.2,2.4c1.4,0,0.9,0.2,3.2,0
		s3.4-2,3.5-3.8s0.2-3.2,0.1-5.9S513.2,248.2,511,248.2z"/>
	<path class="st0" d="M383.4,251.4c-2.8,0.1-4.5,1.1-4.4,2.9s0.9,3.5,4.4,3.3c3-0.1,4.8-0.3,5.2-2.1c0-0.6,0-1.3,0-2
		C388,251.7,385.4,251.3,383.4,251.4z"/>
	<path class="st0" d="M400,134.3c-87,0-168.3,5.3-282,33.3v132c0,0,119.7-34,282-34s282,34,282,34v-132
		C568.3,139.7,487,134.3,400,134.3z M414.7,203.3h5.7l1.3-41.3l-5.3-0.3v-14.3l53.3,1.3l-0.7,22.7h-16.3v-8l-11.3-0.3l-0.4,13.3
		h15.4V190l-15.9-0.5L440,204l11.3,0.3l0.3-9.7l17,0.7l-0.3,24.3L414,218L414.7,203.3z M311.8,150l1.7,27.8l10-0.6l-1.6-27.2l25.5-2
		l1,14.5l-5.5,0.5l2.5,41l5.5-0.2l0.8,15L326,220l-1.7-27.8l-10,0.3L316,221l-25.6,1l-0.4-14.2h5l-2.5-41.5h-6l-0.8-14.5L311.8,150z
		 M202.8,233.8l-5.1-16.8l-11.2,1.7l0.4,18.2l-23.5,3.8l-2.2-15l5.5-0.8l1.2-56.8l31.8-5.5L219,216l5-0.8l2.5,14.5L202.8,233.8z
		 M266.5,267.8l-6,0.8l-3.5-30.8l20.8-2.5l0.5,5.2l-14.5,1.5l0.8,8l13.8-1.2l0.5,5L265,255L266.5,267.8z M265.8,180.5l-1.5-11.5
		l-6,0.5l4.2,41l5.5-0.5l1.8,15l-30.8,3.2l-1.8-14.8l5.2-0.5l-4.2-41l-7,0.8l1.5,11.8l-14.5,1.2l-2.8-26l62-7.2l2.8,26.5
		L265.8,180.5z M295.7,265.5c-10.5,0.5-12-1.3-12.8-10.5c-0.8-9.2,1.8-11.8,11-12c8,0,9.2,3.8,9.5,8.9
		C303.7,257,306.2,265,295.7,265.5z M319.9,263.8c-10.5,0.5-12-1.3-12.8-10.5c-0.8-9.2,1.8-11.8,11-12c8,0,9.2,3.8,9.5,8.9
		C327.9,255.2,330.4,263.2,319.9,263.8z M338.6,262.5c-4.6,0.1-5.9-1.9-6.1-5.8c-0.1-1.9-0.3-7.1-0.5-11.9l-2.9,0.1l-0.2-3.9l3-0.1
		c-0.1-3-0.2-5.3-0.2-5.3h5.2l0.2,5l8.8-0.4l0.2,3.9l-8.8,0.4l0.6,13.2c0,0.3,0.2,0.5,0.5,0.5c0.6,0,1.6,0.1,2.1,0
		c0.8-0.1,1.9-0.6,1.9-1.8s-0.1-3-0.1-3l4.8,0.1C347.8,263.2,343.2,262.4,338.6,262.5z M369.9,256.2c-0.1,3.2-3.2,5.4-6.6,5.5
		c-2.7,0.1-6,0.6-8-3.1l0.1,3.1h-5.6l-1.1-31.1h5.6l0.4,11.8c1-1.3,3.1-3.3,7-3.2c5.8,0.1,7.9,3.2,8.2,7.8S370,253,369.9,256.2z
		 M394,261.2h-5.3c0,0,0-0.9,0-2.3c-1.3,2.1-3.4,2.4-7.3,2.6c-5.1,0.2-7-2.6-7.3-5.5s-0.3-4.8,1.3-6.4c2.9-2.8,6.8-1.8,9.9-1.7
		c1.5,0.1,2.6,1.1,3.4,2c0-1.9,0-3.5,0-4.2c0-2.2-1.6-3.1-2.9-3.2c-1.3-0.1-2.4,0-3.7,0s-2,1.1-1.8,3.2l-5.6-0.1
		c0,0,0.1-1.2,0.2-2.8c0.1-1.6,1.6-3.8,6.2-3.9c4.7-0.1,8.8,0.1,10.2,1c1.3,0.9,2.8,2.5,2.8,6.7C394.1,250.8,394,261.2,394,261.2z
		 M404.6,261.2l-5.3-0.1V230h5.6L404.6,261.2z M356.3,218.7L356,204l6-0.3l-0.7-41.2h-5.7l-0.3-14.5l31.7-0.7v15.2h-6l0.3,40.8h9.7
		v-13h18l0.3,27.6L356.3,218.7z M415.2,261.2h-5.4l0.1-31.2h5.4L415.2,261.2z M459.9,241.7H454c0,0,0-1.9-0.1-3.4s-1.7-2.2-4.1-2.4
		s-3.8-0.1-6.1,0.1s-3.4,1.2-3.4,3.2s-0.4,9.3-0.5,12.7s1.6,5.1,4.1,5.1s4,0.2,6.6,0.1s3.2-1.8,3.2-3.1s0-2.7,0-2.7l5.8,0
		c0,0,0.1,1.5,0.1,5c-0.2,4.4-3.8,6.2-7.2,6.2s-1.5,0.2-9.2-0.2c-7.7-0.3-9.2-4.2-9.2-7.8c-0.1-3.5-0.1-9.8,0.6-17.2
		c0.7-7.4,8.3-6.8,15.8-6.7s9.4,4.2,9.4,6.6C459.9,239.6,459.9,241.7,459.9,241.7z M468.8,263.4l-5.9-0.2l1.9-31.2h5.8L468.8,263.4z
		 M493.5,264.6h-5.6V261c0,0-1.5,4-6.9,3.6s-7-2.9-7-5.1s0.4-17.9,0.4-17.9h5.6c0,0-0.8,14.1-0.6,16s1.9,2.6,3.9,2.5
		s4.4-0.1,4.8-3.9s0.6-13.6,0.6-13.6l5.8,0.2L493.5,264.6z M519,257.9c-0.2,3.5-1.5,8-5.2,8.5c-3,0.4-7.6,0.9-10.2-3.3l-0.2,2.8
		l-5.6-0.4l2.4-31.5l5.8,0.4l-0.9,11.9c0.8-0.8,2.2-1.9,4.4-2c3.5-0.1,9,0.1,9.6,5.7S519.2,254.4,519,257.9z M525.3,179.7l1-11.7
		l-6.9-0.5l-3.5,40.9l5.3,1l-1,14.3l-31.3-3l1-14h6l3.2-40.8l-6.5-0.5L492,177l-14.3-1.3l2-26.3l62,5.3l-2,26.3L525.3,179.7z
		 M573.7,215.3l-2,14.7l-31-4.7l1.7-14.7l5.8,0.9l5.8-40.8l-5.3-0.8l1.3-14.3l31,4l-2,14.7l-5-0.7l-6,40.9L573.7,215.3z M632,191.3
		l-17.3-3l1-8l-10-2l-6.3,40.7l10.3,1.7l2-11.7l16.7,2.7L624,238l-34.9-5.6c-7-1.1-11.7-7.8-10.5-14.7l7.7-44.2
		c1.2-6.9,7.7-11.5,14.6-10.4l34.9,5.7L632,191.3z"/>
	<path class="st0" d="M360,243.4c-5.5,0-4.9,3.4-4.9,7.4s0.8,7.2,4.9,7s4.5-2.4,4.5-7.2S363.3,243.4,360,243.4z"/>
	<path class="st0" d="M204.5,286.7V423c0,34.7,5.1,87.8,29.7,143.4c24.7,55.9,63.1,100.6,114.1,132.8c-1.9-1.5-4-3.2-6.3-5.1
		c-17.2-13-30.8-26.1-30.8-26.1h4c-12.2-13.5-25.6-30.7-38.1-51.8l-8.4,0.1c-18.3-27.7-28.2-56.8-28.2-56.8h9l0.7-0.3
		c-5.7-15.8-10.6-33-14.4-51.6l-10.3,0.3c0,0-5.5-29.5-7.5-57h10.7c-0.4-7.8-0.7-15.7-0.7-23.9c0-9.1,0-18.1,0-27.1h-11.3v-57.5H228
		c0-17.6,0-34.8,0-51.5h-11.3v-6.3C212.4,285.4,208.4,286,204.5,286.7z"/>
	<path class="st0" d="M564.2,507.7c-3.7,18.6-8.7,35.8-14.4,51.6l0.7,0.3h9c0,0-9.8,29.2-28.2,56.8l-8.4-0.1
		c-12.5,21.1-25.9,38.3-38.1,51.8h4c0,0-13.6,13-30.8,26.1c-2.3,1.9-4.4,3.6-6.3,5.1c51-32.2,89.4-76.9,114.1-132.8
		c24.5-55.5,29.7-108.6,29.7-143.4V286.7c-3.9-0.6-7.9-1.3-12.2-1.9v6.3H572c0,16.7,0,33.9,0,51.5h11.3V400H572c0,9,0,18,0,27.1
		c0,8.2-0.2,16.1-0.7,23.9H582c-2,27.5-7.5,57-7.5,57L564.2,507.7z"/>
	<path class="st0" d="M620.3,105.8c-1.1-0.3-2.2-0.5-3.3-0.7c-2.2-0.5-4.3-1-6.5-1.4c-1-0.2-2.1-0.5-3.1-0.7c-2.3-0.5-4.6-1-6.9-1.5
		v43.8c12.5,2.2,25.3,4.6,38.5,7.4c0-15.5,0-29.8,0-42.5c-3-0.7-6.1-1.5-9.2-2.2c-1-0.2-2-0.5-2.9-0.7
		C624.7,106.8,622.5,106.3,620.3,105.8z"/>
	<path class="st0" d="M595.5,144.4v-43.9c-7.8-1.6-15.7-3.2-23.5-4.6c0,8.8,0,18.8,0,29.8h11.3v16.8
		C587.4,143.1,591.4,143.7,595.5,144.4z"/>
	<path class="st0" d="M216.7,142.4v-16.8H228c0-11,0-21,0-29.8c-7.8,1.5-15.7,3-23.5,4.6v43.9C208.6,143.7,212.6,143.1,216.7,142.4z
		"/>
	<path class="st0" d="M472.2,691.4c10-5.3,20.3-11.3,30.6-18.1c25.5-16.9,47.5-35.5,65.8-55.7c0.3-0.3,0.5-0.6,0.8-0.9
		c1.5-1.7,3.1-3.4,4.6-5.2c1.3-1.5,2.6-3,3.9-4.6c9-10.9,17-22.3,24-34.1c0.1-0.2,0.2-0.4,0.4-0.6c0.7-1.1,1.3-2.2,1.9-3.3
		c0-0.1,0.1-0.1,0.1-0.2c0.3-0.5,0.5-0.9,0.8-1.4c0.1-0.2,0.2-0.4,0.3-0.6c0.4-0.7,0.8-1.4,1.1-2.1c0.1-0.1,0.2-0.3,0.2-0.4
		c0.4-0.8,0.8-1.5,1.3-2.3c0.1-0.2,0.2-0.4,0.3-0.6c0.1-0.3,0.3-0.5,0.4-0.8c0.1-0.2,0.2-0.5,0.4-0.7c0.6-1.2,1.2-2.4,1.8-3.6
		c0-0.1,0.1-0.2,0.1-0.3c3.7-7.5,7.1-15.1,10-22.8c0,0,0,0,0-0.1c0.2-0.6,0.5-1.3,0.7-1.9c0.2-0.4,0.3-0.9,0.5-1.3
		c0.8-2.1,1.6-4.3,2.3-6.5c0.2-0.4,0.3-0.9,0.4-1.4c0.4-1.3,0.9-2.6,1.3-4c0.5-1.5,0.9-3,1.4-4.5c0.1-0.3,0.2-0.5,0.2-0.8
		c7.4-25.6,11.1-53,11.1-81.7c0-1,0-2,0-3c0-42.1,0-88.2,0-133.3c-10.9-2.3-23.7-4.7-38.1-7.2c-0.1,0-0.2,0-0.4-0.1V423
		c0,35.2-5.2,89-30.1,145.4C548.3,618.6,515.3,659.8,472.2,691.4z"/>
	<path class="st0" d="M183,105.1c-1.1,0.2-2.2,0.5-3.3,0.7c-2.2,0.5-4.4,1-6.5,1.5c-1,0.2-2,0.5-2.9,0.7c-3.1,0.7-6.2,1.5-9.2,2.2
		c0,12.7,0,27,0,42.5c13.2-2.8,26-5.2,38.5-7.4v-43.8c-2.3,0.5-4.6,1-6.9,1.5c-1,0.2-2.1,0.5-3.1,0.7
		C187.3,104.1,185.2,104.6,183,105.1z"/>
	<path class="st0" d="M199.1,287.6c-14.5,2.4-27.3,4.9-38.1,7.2c0,45.1,0,91.2,0,133.3c0,1,0,2,0,3c0,28.8,3.7,56.2,11.1,81.7
		c0.1,0.3,0.2,0.5,0.2,0.8c0.4,1.5,0.9,3,1.4,4.5c0.4,1.3,0.8,2.6,1.3,4c0.1,0.5,0.3,0.9,0.4,1.4c0.7,2.2,1.5,4.3,2.3,6.5
		c0.2,0.4,0.3,0.9,0.5,1.3c0.2,0.6,0.5,1.3,0.7,1.9c0,0,0,0,0,0.1c3,7.8,6.3,15.4,10,22.8c0,0.1,0.1,0.2,0.1,0.3
		c0.6,1.2,1.2,2.4,1.8,3.6c0.1,0.2,0.2,0.5,0.4,0.7c0.1,0.3,0.3,0.5,0.4,0.8c0.1,0.2,0.2,0.4,0.3,0.6c0.4,0.8,0.8,1.6,1.3,2.3
		c0.1,0.1,0.2,0.3,0.2,0.4c0.4,0.7,0.8,1.4,1.1,2.1c0.1,0.2,0.2,0.4,0.3,0.6c0.3,0.5,0.5,0.9,0.8,1.4c0,0.1,0.1,0.1,0.1,0.2
		c0.6,1.1,1.3,2.2,1.9,3.3c0.1,0.2,0.2,0.4,0.4,0.6c7,11.8,15,23.2,24,34.1c1.3,1.5,2.6,3.1,3.9,4.6c1.5,1.7,3,3.5,4.6,5.2
		c0.3,0.3,0.5,0.6,0.8,0.9c18.4,20.2,40.3,38.8,65.8,55.7c10.4,6.8,20.6,12.8,30.6,18.1c-43.1-31.5-76.1-72.8-98.3-123
		C204.7,512,199.5,458.2,199.5,423V287.5C199.4,287.5,199.3,287.5,199.1,287.6z"/>
	<path class="st0" d="M144,97c96.3-25.1,226-41,256-41s159.7,15.9,256,41v59.5c2,0.4,4,0.9,6,1.4c0-40,0-65.4,0-65.4
		C567,67,432.3,50,400,50S233,67,138,92.3c0,0,0,25.4,0,65.4c2-0.5,4-0.9,6-1.4V97z"/>
	<path class="st0" d="M656,431c0,37.5-6,72.9-17.9,105.1c-11.5,31.2-28.7,60.3-51.2,86.4C544,672.3,481.2,713,400,743.6
		c-81.2-30.5-144-71.2-186.8-121c-22.5-26.2-39.8-55.3-51.2-86.4C150,503.9,144,468.5,144,431V298.4c-2.1,0.5-4.1,0.9-6,1.4
		c0,42.8,0,88,0,131.2c0,156,101,259,262,319c161-60,262-163,262-319c0-43.2,0-88.4,0-131.2c-1.9-0.4-3.9-0.9-6-1.4V431z"/>
</g>
</svg>
