<?xml version="1.0" encoding="utf-8"?>
<!-- Generator: Adobe Illustrator 22.1.0, SVG Export Plug-In . SVG Version: 6.00 Build 0)  -->
<svg version="1.1" id="图层_1" xmlns="http://www.w3.org/2000/svg" xmlns:xlink="http://www.w3.org/1999/xlink" x="0px" y="0px"
	 viewBox="0 0 800 800" style="enable-background:new 0 0 800 800;" xml:space="preserve">
<style type="text/css">
	.st0{fill-rule:evenodd;clip-rule:evenodd;fill:#D12023;}
	.st1{fill:#D12023;}
</style>
<g>
	<path class="st0" d="M516.4,517.3c11.8-11.8,47.8-36.1,46.9-104.2c-6.3,16-32.3,58.9-57.8,65.5c19-24.6,34.5-71.9,15.4-132.1
		c6.7,43.8-36.4,114-85.1,124.2c-2.7,0.6-12.3,4.2-15,4.8c8.6-24.7,15-50.2-3.3-79.5c-4.9,45.1-46.1,45-73.3,75.3
		c0.9-20.8,15.1-22.5,12.1-40.8c-7.7,18.4-27.1,10.5-42.7,36.6c-11.2,18.9-11.4,31.7-12.1,46.7c-3.9-33.5-37.7-61.2-57.3-66.8
		c9.6,7.6,27,22.4,32.5,63.8c3.6,27.4-11.7,43.1-11.2,68.3c0.3,19,7.2,30.8,16,37.2c0-0.7,0-1.3,0-2c0-67,54.5-121.5,121.4-121.5
		c32.5,0,63,12.6,85.9,35.6c21.5,21.5,34,49.8,35.4,80c5.7-11.9,5.1-25.1,3.8-34.2c-4-30.3,42.5-75.2,63.6-71.1
		C564.5,494.5,530.8,507.2,516.4,517.3z M283.8,540.4c-7.7,10.8-11.2,27.6-11.2,27.6c-3.3-18,10.4-27.2,7.2-60
		c-2.1-21.2-11.3-39.2-21.6-51.2c15.2,7.6,31.2,40,30.9,68c-0.2,17.3,2,30.8,2,30.8S285.8,550,283.8,540.4z M311.2,526.5
		c-9.8-43,6.2-73.7,34-81C328,457.5,312.9,485.2,311.2,526.5z M390.4,460.5c-13,9-36,16.1-41.1,31.5c1.8-32.5,32.8-39.5,49.6-51.8
		c13.2-9.7,16.9-19.7,18.6-30C416.1,428.6,417.5,441.7,390.4,460.5z M429.3,480.8c-15.7,3.7-20.8,6.5-22.5,7.9
		c2.2-2.5,10-9.4,32.9-16.5c47.1-14.5,72.8-54.1,78.7-80.5c0.3,22.2-3.2,33.3-11.7,48.4c-9.7,17.1-30.1,40-63.4,42.7
		c14.8-3.4,24-11.5,28.3-18.2C465,470.4,461.4,473.3,429.3,480.8z M483.6,509.8c3.6-9.8,11-15.2,21.1-20.9
		c-9.5,0.7-27.1,6.7-38.9,16.8c10.8-14.1,29.8-21.1,40.7-24.7c23.9-8.1,43.4-34.6,52.8-54.5c-7.6,24.3-19,47.6-37.1,59
		C505.1,496.2,493,496.8,483.6,509.8z M520.4,570.7c-0.3-6.1-2.8-28.5,4.5-39.7c-8.1-1.4-22.5,1.4-23,2.8
		c-1.1-0.8,34-31.6,74.3-28.9C541.7,512.7,521.8,553.7,520.4,570.7z"/>
	<path class="st0" d="M463.5,290.8c1.3-0.7,3-1.3,5.1-1.8c-3.8,0.1-8.1-0.8-11.2-2.2c-0.7-0.4-1.4-0.8-2.1-1.3
		c-3-2.3-3.1-5.4,3.3-8.6c-15.9,3.6-21.7-15-14.9-19.2c-14.9,7.6-23.7,3-27.8-0.3c-0.4-6.4-1.5-13.2-4-16.7c-5.6-1.5-13.4,1-13.4,1
		s-9.8,3.6-14,10.2c-14.1-1.7-30-2.5-50.5,3.8c-12.9,4-23.7,10.6-32.1,19.4c-7.9,8.2-8.7,16.8-8.7,16.8s-0.4,2.6-8.2,5.4
		c-8,2.7-21.7,14.8-27.3,22.4c-5.5,7.5-8.2,12.5-5.9,16.1c0,8.5,7.8,16.5,12.9,15.7c1.1,9.6,12,10,12,10s13,15.7,18.4,15.4
		c-3-2.6-9.2-13.7-9-15.5c2.7,4.1,10.8,10.1,13.2,10.5c-1.5-1.9-7.5-12.5-7.3-15.6c1.1-0.7,1.3-1,3-2.2c5.6-3.9,6-9.1,10.8-13.6
		c4.8-4.5,9.8-5.2,15.2-5.5c5.4-0.3,14.4,5.9,19.4,10.6c5.3,5,9.1,21.4,6.9,29.2c-2.2,7.8-2.5,14.3-3.2,20.8
		c-0.7,6.5-5.2,7.9-5.2,7.9s-8.3-8.2-10.5-14.8c-2.6,6.9,2.9,21.4,2.9,21.4s-6.3-7.1-7.7-16.3c-2.8,5.8-1.1,13,1.6,23.1
		c-5,11.7,11.5,20.9,26.1,19.1c-7.8-4.7,2.1-9.7,17.4-7.7c-9.5-2-7.9-9.3,3.8-9.7c-5.9-3.1-5.1-10.2,0.6-14.4
		c4.8-3.6,8.1-1.3,9.7,4.3c1.6,5.4,1.8,8.6-4.3,15.6c-4.2,5-11.9,11-17.1,17.7c-4,5.2-8.1,10-12.4,20.7c16.6-23,58-17.6,67.2-69.6
		c0,0,9.7,10.6,14,29.2c5.5,24.2-3.7,48.6-3.7,48.6s27.6-7.2,42.2-19.3c32.7-27.2,45.2-60.6,45.7-76.3
		C514.9,360.8,500.5,317.2,463.5,290.8z M484.2,346.9c3.9,24.8-9,42.3-23.9,54.3c-10,8.2-16.7,13.2-22.7,29.2
		C438,392.7,482.2,387,484.2,346.9z M386.7,261.7c2.7-11.4,14.2-17.9,23.8-20.7c-6.8,2.3-15.6,7.2-19.2,21
		c-1.8,7-10.3,12.4-10.3,12.4S384.8,269.8,386.7,261.7z M302.3,278c12.7-15,41.4-29.4,81.7-24.4c-22.2-2.4-49,7.1-59.7,15.3
		c13-1.4,19.2,2.4,35.5,2.7c-73.2,1.1-48.3,14.8-64.8,21.3C300.3,287.6,297.3,283.1,302.3,278z M341.3,287.9
		c-12.9,0.5-28.8,7.7-32.2,12.2c4.7-6.9,21.4-18.4,36.5-18.8c12.9-0.4,29-6.6,34-10.2C370.3,282.8,348.2,287.7,341.3,287.9z
		 M341.7,293.3c-7.7,6.1-16.7,12.4-26.9,13.1c-5.7,0.4-15.3,3.7-20,7.6c10.3-9.7,11-11.1,22.1-12.7
		C324.4,300.3,338.3,295.7,341.7,293.3z M301.5,291.7c3.8-8.4,6.8-10.9,6.8-10.9s4.8-4.1,16.3-5.7c8.9-1.2,17.8-0.5,29.5,1.1
		c7.1,1,20.6-2.8,22.4-4.8c-2.8,3.3-15.9,6.8-21,7.5c-5.1,0.7-11.1-0.4-17.9,1.3c-4.4,1.1-8.9,2.5-15.6,7.7
		c-2.9,2.1-7.7,4.1-7.7,4.1S307.6,293.7,301.5,291.7z M306.6,295.4c-11,2.6-16.9,5.3-24.6,13.7c-7.7,8.4-8.7,10.4-9,12.9
		c-0.4,2.5-0.7,1.2-6.2,2.5c-4.5,1-5.2,3.3-7.4,5.5c-2.3,2.2-4.5-1.7-4.5-1.7C259,317.3,283.2,291.9,306.6,295.4z M267.1,334
		c-5.1,3.1,0.9,10.5-1.8,13.1c-9.5-1.9-10.9-13.9-10.9-13.9s4.6,0.9,7.9-3.7c3.3-4.6,8-4.4,10.4-1.8c4.1,4.5-0.2,8.8-0.2,8.8
		S272.2,330.9,267.1,334z M293.6,375.6c-3.6-0.6-13.4-11.6-15.9-15.7c1.9,0.2,3.9-0.5,3.9-0.5S287.3,371.9,293.6,375.6z
		 M296.9,370.1c-8.3-6.9-10.6-11.5-10.6-11.5c-0.1-0.4-0.5-0.9,0.7-1.4c0,0,1-0.6,2.7-1.2C289.6,359.9,294.8,367.7,296.9,370.1z
		 M282.1,351.6c0,0,3.1,1.2,14.6-4.7c-19.8,15-31.2,6.1-26.8-1.3c4.4,8.2,25.6-2.4,33.3-10.8C293.9,347.9,282.1,351.6,282.1,351.6z
		 M328.5,390.4c-0.3,3,8.1,19.5,8.1,19.5s-2.7-0.8-4.4,0.5C330.2,403.5,327.5,393.8,328.5,390.4z M323,395.7c0,4,2.2,11.7,5.9,16.2
		c-2,0.5-3,2.9-3,3.6C324.6,410.8,321,401.5,323,395.7z M344.9,434.8c-13.9-2.9-18.4-9.5-18.5-15c6.4,8.9,12.3,4.5,26.3,5.9
		C342.4,426.8,338,430.4,344.9,434.8z M348.7,345c-7.9-10.6-22.3-16.6-31.8-15.8c8.5-1.7,23.3,1.6,30,7.8
		c9.1,8.5,16.9,17.6,30.3,13.7C368.5,355.6,355.3,354,348.7,345z M380.6,375.4c17.8-18.5,10.2-38.4,13.4-52.2c-4.4-1-9-1.8-13.8-2.4
		c-4.1,10.3-8.7,18.1-17.9,21.4c8.1-5.7,10.4-12.9,13.2-22c-26.7-2.7-58.5,0.5-92.3,13.9c-6.2,2.8,1.4-2.6,1.4-2.6
		c1.1-0.6,2.9-1.5,5.4-2.3c1.1-1,3-2.4,3-2.4c1.3-0.8,3.5-1.9,6.4-3.2c0.7-0.7,1.4-1.2,1.4-1.2c7.5-5,46.3-25.6,88.5-23.6
		c4.6-3,10-4.5,15.9-3.5c-3.5,0.5-6.9,1.8-10,3.9c3.9,0.4,7.8,1,11.7,1.8c2.7-2,6.1-3.7,10.2-5.3c-9.1,6-13.7,16.1-16.3,26.5
		C397.1,337.8,400.4,361.8,380.6,375.4z M426.2,316.9c20.3-24.6-15.5-28-8.2-51.7c-0.2,5.3,7.5,7.1,18.4-0.5
		c-12.4,11.4-2.1,19.2,11,16.9c-7.2,3.8-15.2,13.2,7.9,9.7c-23.1,7.1-6.1,8.2,2.3,8.5c-21.5,3.3-17.3,9.4-3.6,14
		c-20.2-2.4-20.7,3.9-14,9c-20.8,0.1-38.7,32.7-34.4,56.6C398.8,349.8,415.2,330.2,426.2,316.9z M416.1,342.2
		c2.8,23.1,28.4,44.3,50.6,37.6c-14.6,5.7-31.9,4.6-41.7-5.2c2.2,17,14.3,18.8,8.8,41.7C431.2,387.4,403.6,384.8,416.1,342.2z
		 M457,444.4c-10.8,3.3-23.3,16.5-26.8,22.6c1.3-3.7,3.4-27.9,24.1-43.2c14.2-10.4,22.2-17.6,27.8-24.6
		c-11.1,24.8-26.3,36.8-26.3,36.8c9.4-2.3,21-6.3,30.6-14.6C483.9,429.1,469,440.8,457,444.4z"/>
	<path class="st0" d="M296.4,327.1c17-5.1,48.2-11,79.3-7.4c0.4-1.3,0.9-2.7,1.3-4.1c0.7-2.2,1.7-4.4,2.8-6.4
		C356,308,326.7,313.1,296.4,327.1z"/>
	<path class="st0" d="M381.5,317.5c-0.4,1-0.7,1.9-1.1,2.8c4.6,0.7,9.1,1.6,13.6,2.7c0-0.2,0.1-0.4,0.1-0.6c1.1-4.3,2.4-7.9,3.9-11
		c-4-0.8-8.3-1.5-12.8-1.9C383.9,311.9,382.5,314.6,381.5,317.5z"/>
	<path class="st0" d="M385.9,308.8c4.1,0.6,8.3,1.3,12.4,2.4c2-4,4.7-7.2,8.5-10c-3.9-0.7-8.1-1.1-12.5-1.3
		C391.1,302.2,388.2,305.2,385.9,308.8z"/>
	<path class="st0" d="M388,299.7c-22.3,0-48.9,5.6-76,18.7c16.9-6.1,42.2-12.5,68.4-10.3C382.5,304.9,385,302,388,299.7z"/>
	<g>
		<path class="st1" d="M479.9,167c-1.8-0.2-3.3,0.3-4.5,1.5c-1.2,1.3-1.9,3.3-2,6.2c-0.2,2.8,0.4,5,1.4,6.7c1.1,1.6,2.6,2.5,4.4,2.8
			c1.8,0.2,3.4-0.3,4.5-1.6c1.2-1.4,1.8-3.4,2-6.4c0.1-2.8-0.4-4.9-1.5-6.5C483.1,168.1,481.7,167.2,479.9,167z"/>
		<path class="st1" d="M507.5,177.3c0.4-0.5,0.6-1,0.6-1.8c0-0.9-0.2-1.5-0.6-2.1c-0.3-0.6-0.8-1-1.5-1.3c-0.4-0.1-1.4-0.4-3.2-0.7
			c-1.1-0.2-2.2-0.4-3.4-0.7c-0.2,2-0.2,4.1-0.4,6.2c1.1,0.2,2.1,0.4,3.2,0.6c2.1,0.4,3.4,0.6,4,0.5
			C506.8,177.9,507.3,177.7,507.5,177.3z"/>
		<path class="st1" d="M363.9,170.4c0.8-0.2,1.4-0.5,1.9-1.1c0.5-0.5,0.8-1.2,0.8-2c0.1-0.8-0.2-1.4-0.6-1.8
			c-0.3-0.4-0.8-0.7-1.6-0.7c-0.5,0-1.8,0.1-3.9,0.3c-0.9,0.1-1.8,0.2-2.7,0.3c-0.1,1.9-0.1,3.8-0.2,5.8c1-0.1,2-0.2,3.1-0.3
			C362.3,170.7,363.4,170.6,363.9,170.4z"/>
		<path class="st1" d="M365.2,175c-0.7-0.1-2.1-0.1-4.2,0.1c-1.3,0.1-2.6,0.3-3.9,0.4c-0.1,2.3-0.2,4.6-0.3,6.9
			c1.4-0.2,2.9-0.3,4.4-0.5c1.7-0.2,2.9-0.4,3.3-0.5c0.7-0.2,1.3-0.6,1.8-1.2c0.5-0.6,0.7-1.3,0.7-2.3c0-0.8-0.1-1.4-0.4-1.9
			C366.3,175.5,365.7,175.1,365.2,175z"/>
		<path class="st1" d="M219.3,203c0.9-0.5,1.6-1,2.3-1.7c0.5-0.7,0.8-1.5,0.8-2.4c0-0.8,0-1.5-0.5-1.8c-0.6-0.4-1.2-0.5-2.1-0.3
			c-0.5,0.1-2.1,0.6-4.7,1.4c-1,0.3-2.2,0.7-3.2,1.1c-0.1,2.1-0.3,4.2-0.5,6.3c1.3-0.4,2.5-0.8,3.7-1.1
			C217.3,203.7,218.7,203.2,219.3,203z"/>
		<path class="st1" d="M220.7,207.5c-0.8,0-2.4,0.4-4.9,1.2c-1.6,0.5-3.1,1-4.5,1.5c-0.2,2.6-0.4,5-0.5,7.6c1.7-0.6,3.4-1.2,5.3-1.8
			c2.1-0.6,3.4-1.1,3.9-1.4c0.9-0.5,1.6-1.1,2.1-1.8c0.6-0.8,0.9-1.7,0.9-2.6c0.1-0.9-0.1-1.5-0.6-1.9
			C221.9,207.8,221.5,207.5,220.7,207.5z"/>
		<path class="st1" d="M595.6,202.3c0-0.9-0.2-1.6-0.6-2.3c-0.4-0.7-0.9-1.2-1.7-1.6c-0.4-0.2-1.4-0.6-3.2-1.3
			c-1.2-0.4-2.3-0.8-3.5-1.2c-0.1,2-0.3,4.1-0.4,6.3c1.1,0.4,2.3,0.8,3.3,1.2c2.2,0.8,3.6,1.2,4.1,1.1c0.6,0,1.1-0.2,1.4-0.6
			C595.3,203.6,595.6,203,595.6,202.3z"/>
		<path class="st1" d="M620.6,245.8c-0.2-2.7-0.2-5.4-0.4-8.2c-0.7-13.2-1.6-34.1-2.7-47.1c-16.9-9.1-35.4-16.9-54.9-23.3
			c-20.1-6.6-41.3-11.7-63.1-15.5c-111.4-19.4-237.6-3.3-309.8,39.2c-0.8,9.6-1.5,26.8-2.1,35.9c-0.5,7.8-0.9,15.5-1.2,23
			c18.2-8.7,36.9-16.4,55.9-22.7c20.8-7,41.9-12.6,63.1-16.8c107.1-21.3,219.1-7.7,315.4,38.1L620.6,245.8z M227.7,212.5
			c-0.6,1.4-1.5,2.6-2.5,3.7c-1.1,1.1-2.3,2-3.8,2.6c-1,0.4-3.2,1.3-6.9,2.5c-3.3,1.1-6.5,2.2-9.7,3.2c0.4-4.8,0.6-9.6,0.9-14.4
			c0.4-4.6,0.6-9.2,1-13.8c3.6-1.1,7.3-2.3,10.9-3.4c2.2-0.7,3.7-1.1,4.8-1.2c1-0.2,2-0.1,2.8,0.2c0.8,0.3,1.4,0.8,2,1.6
			c0.5,0.8,0.8,1.7,0.8,2.9c0,1.3-0.5,2.5-1.2,3.8c-0.7,1.3-1.6,2.4-2.9,3.3c1.6,0,2.9,0.4,3.7,1.3c0.9,0.9,1.3,2.2,1.3,3.7
			C228.7,209.8,228.3,211.1,227.7,212.5z M255,186.3c-4.6,1.2-9.3,2.5-14.1,3.8c-0.1,2-0.2,4-0.4,6c4.4-1.2,8.8-2.4,13.4-3.6
			c-0.2,1.5-0.2,3-0.3,4.5c-4.5,1.2-8.9,2.5-13.3,3.6c-0.2,2.5-0.4,5.1-0.6,7.6c5.1-1.4,10.1-2.8,15-4.2c0,1.6-0.1,3.1-0.2,4.7
			c-6.9,2-13.7,3.9-20.7,5.8c0.4-4.8,0.7-9.5,1.1-14.1c0.3-4.5,0.7-9,1.1-13.5c6.5-1.7,13-3.4,19.3-5.1
			C255.2,183.3,255,184.8,255,186.3z M289.9,177.1c-2.6,0.6-5,1.2-7.4,1.8c-0.2,3.6-0.3,7.2-0.4,10.9c-0.2,3.7-0.4,7.4-0.5,11.3
			c-1.8,0.4-3.6,0.9-5.3,1.3c0.1-3.8,0.4-7.6,0.5-11.3c0.2-3.7,0.4-7.3,0.6-10.9c-2.5,0.5-5.1,1.1-7.5,1.7c0.1-1.4,0.1-2.9,0.2-4.4
			c6.6-1.5,13.3-3,19.9-4.6C290,174.2,289.9,175.6,289.9,177.1z M313.5,180.9c-0.2,4.3-0.2,8.8-0.4,13.2c-1.7,0.4-3.4,0.7-5.1,1.1
			c0.1-3.9,0.3-7.8,0.5-11.7c-3.3,0.7-6.6,1.3-9.8,2c-0.3,3.9-0.4,7.8-0.7,11.8c-1.8,0.4-3.5,0.7-5.2,1.1c0.2-4.6,0.6-9.1,0.9-13.5
			c0.2-4.4,0.5-8.7,0.7-13c1.7-0.4,3.4-0.7,5-1c-0.2,3.4-0.4,6.7-0.6,10.1c3.4-0.7,6.6-1.3,9.8-1.9c0.1-3.4,0.2-6.7,0.4-10
			c1.6-0.3,3.2-0.7,4.9-0.9C313.9,172.3,313.7,176.6,313.5,180.9z M338,168.2c-4.3,0.7-8.6,1.3-12.8,2c-0.2,1.9-0.2,3.7-0.4,5.6
			c4.1-0.7,8-1.3,12-1.9c0,1.4-0.1,2.9-0.1,4.3c-4,0.7-8.1,1.3-12.1,2c0,2.4-0.2,4.7-0.2,7.2c4.5-0.8,9.1-1.5,13.6-2.3
			c0,1.5,0,3-0.1,4.5c-6.3,1.1-12.4,2.1-18.8,3.2c0.3-4.5,0.5-8.9,0.8-13.3c0.2-4.3,0.3-8.5,0.7-12.7c5.8-1,11.6-1.9,17.5-2.8
			C338,165.3,338,166.8,338,168.2z M371.1,181.1c-0.6,1.2-1.2,2.2-2.1,2.9c-0.9,0.8-2,1.3-3.3,1.6c-0.7,0.2-2.7,0.5-5.8,0.8
			c-2.7,0.3-5.4,0.6-8,0.9c0.1-4.4,0.3-8.8,0.5-13c0.3-4.2,0.6-8.4,0.8-12.5c3.1-0.3,6.1-0.6,9.1-0.9c1.8-0.2,3.2-0.2,4.1-0.2
			c0.8,0.1,1.6,0.4,2.2,0.8c0.7,0.5,1.3,1.1,1.7,1.9c0.5,0.8,0.6,1.8,0.6,2.8c-0.1,1.1-0.4,2.2-1,3.3c-0.6,1.1-1.4,1.9-2.4,2.5
			c1.4,0.3,2.4,0.9,3.2,1.9c0.7,1,1.1,2.3,1.1,3.7C371.9,178.8,371.6,180,371.1,181.1z M394.6,162.7c-4.2,0.2-8.1,0.4-12.2,0.5
			c-0.1,1.8-0.2,3.7-0.3,5.5c3.8-0.2,7.6-0.4,11.4-0.5c0,1.4-0.1,2.8-0.1,4.2c-3.9,0.2-7.7,0.4-11.5,0.5c-0.2,2.4-0.3,4.7-0.5,7
			c4.3-0.2,8.6-0.4,13-0.7c-0.1,1.5-0.2,2.9-0.3,4.4c-5.8,0.3-11.7,0.6-17.7,0.9c0.2-4.3,0.6-8.7,0.8-12.9c0.3-4.2,0.6-8.3,0.9-12.4
			c5.5-0.2,11-0.5,16.7-0.8C394.7,160,394.6,161.4,394.6,162.7z M415.2,180.2c-0.8,1.3-1.9,2.3-3.2,2.9c-1.5,0.6-3.1,0.9-5.2,0.9
			c-2.9,0-5.1-0.8-6.5-2.3c-1.4-1.5-2.2-3.7-2.2-6.6c1.4-0.2,2.9-0.3,4.5-0.5c0.1,1.7,0.7,2.9,1.4,3.7c0.8,0.8,1.8,1.2,3.2,1.2
			c1.5,0,2.7-0.3,3.4-1c0.9-0.7,1.3-1.5,1.3-2.4c0-0.6-0.1-1.1-0.4-1.6c-0.3-0.4-0.7-0.8-1.5-1.1c-0.6-0.2-1.8-0.6-3.6-1.1
			c-2.4-0.7-4-1.6-4.9-2.5c-1.3-1.4-1.8-3.1-1.7-5c0.1-1.2,0.5-2.4,1.2-3.5c0.8-1.1,1.8-1.9,3.1-2.4c1.1-0.5,2.6-0.8,4.3-0.8
			c2.7,0,4.8,0.7,6.1,2.1c1.3,1.3,2,3.1,1.9,5.4c-1.5,0-2.9,0.1-4.5,0.2c-0.1-1.2-0.5-2.2-1.1-2.8c-0.6-0.6-1.6-0.9-2.7-0.9
			c-1.3,0-2.4,0.3-3.1,0.9c-0.5,0.4-0.8,0.9-0.9,1.5c0,0.6,0.1,1.1,0.5,1.5c0.7,0.5,2,1.1,4,1.7c2.2,0.6,3.8,1.2,4.8,1.8
			c1.1,0.6,1.8,1.5,2.3,2.6c0.5,1.1,0.8,2.5,0.7,4.1C416.5,177.6,416.1,179,415.2,180.2z M437.4,162.9c-2.1,0-4.3,0-6.5-0.1
			c0,3.3-0.2,6.8-0.3,10.3c-0.1,3.5-0.2,7-0.3,10.6c-1.5,0-3,0-4.6,0c0.2-3.6,0.4-7.1,0.5-10.6c0.1-3.5,0.2-6.9,0.3-10.3
			c-2.1,0-4.4,0-6.5-0.1c0-1.3,0.1-2.7,0.2-4.1c5.9,0.1,11.6,0.1,17.4,0.2C437.5,160.2,437.4,161.6,437.4,162.9z M465.8,165.7
			c-3.4-0.4-7-0.8-10.5-1.2c-0.2,1.9-0.3,3.9-0.4,5.8c3.1,0.3,6.1,0.7,9.1,1c-0.1,1.4-0.2,2.8-0.2,4.2c-3-0.3-6.1-0.7-9.2-1
			c-0.3,3.5-0.6,7.1-0.8,10.7c-1.5-0.1-3-0.3-4.5-0.5c0.3-4.3,0.7-8.5,0.9-12.6c0.2-4.1,0.7-8.2,1-12.2c4.9,0.5,9.9,1.1,14.8,1.6
			C466,163,465.9,164.4,465.8,165.7z M490.1,176.8c-0.2,4-1.1,7.1-3.1,9.1c-2,2.1-4.7,2.9-8,2.5c-3.4-0.4-5.9-1.9-7.8-4.5
			c-1.8-2.5-2.6-5.8-2.3-9.8c0.2-2.5,0.6-4.6,1.4-6.2c0.5-1.1,1.3-2.2,2.1-3c0.8-0.9,2-1.4,3-1.8c1.3-0.5,2.9-0.6,4.6-0.4
			c3.2,0.5,5.7,1.9,7.5,4.3C489.4,169.5,490.3,172.7,490.1,176.8z M508.3,193.5c-1-2.1-1.9-4.1-2.9-6.2c-1.1-2.2-1.9-3.5-2.2-4.1
			c-0.4-0.6-0.8-1-1.3-1.3c-0.4-0.3-1.2-0.5-2.2-0.7c-0.2,0-0.5-0.1-0.9-0.2c-0.2,3.5-0.5,7-0.6,10.6c-1.5-0.3-3.1-0.6-4.6-0.9
			c0.3-4.3,0.6-8.4,0.9-12.6c0.3-4.1,0.6-8.1,0.9-12.1c3.1,0.6,6.1,1.1,9.1,1.7c2.3,0.4,3.9,1,4.9,1.5c1,0.6,1.9,1.6,2.5,2.9
			c0.5,1.2,0.9,2.5,0.7,3.9c-0.1,1.8-0.6,3.3-1.6,4.4c-1,1-2.5,1.6-4.5,1.5c1,0.8,1.8,1.7,2.3,2.6c0.6,0.9,1.3,2.4,2.4,4.6
			c0.8,1.8,1.7,3.7,2.5,5.6C511.9,194.1,510.1,193.8,508.3,193.5z M534.2,178.6c-3.9-0.9-7.7-1.9-11.6-2.8c-0.1,1.8-0.2,3.6-0.3,5.4
			c3.6,0.9,7.1,1.8,10.8,2.7c-0.1,1.4-0.1,2.8-0.2,4.2c-3.7-0.9-7.4-1.8-11-2.7c-0.2,2.3-0.3,4.5-0.4,6.8c4.1,1.1,8.2,2,12.3,3.1
			c0,1.5-0.2,2.9-0.2,4.4c-5.7-1.4-11.4-2.8-17-4.2c0.3-4.3,0.6-8.5,0.9-12.6c0.4-4.1,0.7-8.2,1-12.2c5.2,1.3,10.6,2.6,15.9,3.9
			C534.4,175.9,534.3,177.3,534.2,178.6z M553,192.5c-1.6,3.9-3.1,7.7-4.7,11.6c-1.7-0.4-3.3-0.9-4.8-1.4c-1.1-4.7-2.1-9.3-3.1-13.9
			c-1-4.5-2-8.8-3-13.3c1.6,0.5,3.1,0.9,4.7,1.4c0.7,3.2,1.5,6.5,2.1,9.8c0.6,3.3,1.5,6.7,2.3,10.1c1.1-2.9,2.1-5.7,3.2-8.5
			c1.1-2.7,2.2-5.5,3.1-8.2c1.6,0.4,3.2,0.9,4.7,1.3C556,185,554.4,188.8,553,192.5z M577.2,192.5c-4-1.3-7.9-2.7-11.8-4.1
			c-0.1,1.8-0.3,3.6-0.4,5.4c3.6,1.3,7.3,2.6,11,3.9c-0.1,1.5-0.1,2.8-0.2,4.3c-3.7-1.3-7.5-2.6-11.2-3.9c-0.2,2.3-0.4,4.6-0.5,6.9
			c4.1,1.5,8.3,3,12.5,4.4c-0.1,1.4-0.2,2.9-0.4,4.4c-5.7-2-11.5-4-17.2-6.1c0.5-4.2,0.8-8.5,1.3-12.6c0.3-4.1,0.6-8.2,1-12.2
			c5.3,1.9,10.7,3.7,16.1,5.6C577.5,189.7,577.3,191.1,577.2,192.5z M595.7,220.9c-1-2.4-2.1-4.7-3-6.9c-1.1-2.5-1.8-4-2.2-4.7
			c-0.5-0.7-0.9-1.2-1.3-1.6c-0.5-0.4-1.2-0.8-2.3-1.2c-0.3-0.1-0.6-0.2-0.9-0.3c-0.2,3.6-0.5,7.2-0.7,10.8c-1.6-0.6-3-1.2-4.6-1.8
			c0.3-4.3,0.6-8.6,0.9-12.8c0.3-4.2,0.6-8.3,0.9-12.4c3.2,1.1,6.2,2.2,9.4,3.4c2.3,0.9,4.1,1.7,5.1,2.5c1.1,0.9,1.8,1.9,2.5,3.3
			c0.6,1.4,0.8,2.9,0.7,4.3c-0.1,1.9-0.6,3.3-1.6,4.2c-1.1,0.9-2.5,1.1-4.6,0.7c1,1,1.8,2,2.3,3c0.6,1,1.5,2.8,2.5,5.2
			c0.9,2.1,1.8,4.1,2.7,6.2C599.4,222.2,597.6,221.6,595.7,220.9z"/>
	</g>
	<path class="st0" d="M308.3,288.8c1.1,3.4,6.2,2.2,8.5,0.4c2.4-1.8,4.2-4.8,2-8.4c-1.6-2.5-4.4-2.4-6.6-0.4
		c-1.7,1.5,2.3,6.6,0.4,7.5c-2.4,1.3-2.7-2.6-4.1-2C308.2,286.1,307.7,287.5,308.3,288.8z"/>
	<path class="st0" d="M502.5,553.6c1.9,5.3,5.2,16.7,5.5,21c1.8,1.6,7.3,8.2,9.2,11.6C515,578.7,508.5,560.5,502.5,553.6z"/>
	<path class="st0" d="M293.3,315.3c0.5-0.5,1-0.9,1.4-1.3C294.2,314.4,293.7,314.8,293.3,315.3z"/>
	<path class="st0" d="M406,489.8c0,0,0.2-0.4,0.8-1C406,489.4,406,489.8,406,489.8z"/>
	<path class="st1" d="M446,706.5c-14.6,9.1-30,16.9-46.2,23.2c-15.2-7.1-29.5-14.9-43.1-23.4c-8.7,1.1-17.2,2.6-25.9,4.4
		c20.7,14.6,43.7,28.1,69.2,40.3c25.8-10.5,50-23.8,72.4-39.6C463.8,709.6,455,707.8,446,706.5z"/>
	<path class="st1" d="M657.3,116c0-6-5.1-10.8-11.4-10.8s-11.4,4.9-11.4,10.8c0,5,3.7,9.3,8.6,10.5c-25.5,25.1-81.5,18-104.1-23.5
		c5.5-0.6,9.8-5.3,9.8-11c0-6.1-5-11.1-11.1-11.1c-6.1,0-11.1,5-11.1,11.1c0,4,2.1,7.5,5.3,9.4c-45.4,34.8-103.8,9.4-125.8-25.4
		c5.2-2,8.9-7.1,8.9-13.1c0-7.7-6.3-14-13.9-14c-7.7,0-13.9,6.3-13.9,14c0,5.9,3.7,11,8.9,13c-19.7,34.5-82.3,61.2-127.2,24.7
		c4.2-1.5,7.3-5.6,7.3-10.4c0-6.1-5-11.1-11.1-11.1c-6.1,0-11.1,5-11.1,11.1c0,5.6,4.2,10.2,9.6,11c-22.8,44.1-76.5,48.7-104.8,24.7
		c3.9-1.7,6.6-5.5,6.6-9.8c0-6-5.1-10.8-11.4-10.8c-6.3,0-11.4,4.9-11.4,10.8c0,5.9,5,10.7,11.2,10.8l-2,64.7
		c-6.1,143.3-0.4,293.3,75.4,411.4c0.8-0.2,1.6-0.4,2.4-0.6c7.8-1.6,14.7-2.1,20.5-1.8c-16.6-25.9-30.2-54.5-40.7-85.4
		c-14.1-41.5-22.6-87.3-26.4-137.1c-2.4-31-3.6-63.5-2.1-97.5c92.8-59.3,286.6-84.4,441.8,0c1.1,37.7-0.6,72.8-4.2,106.8
		c-6.7,63.2-21,120.5-43.3,169c-7,15.3-14.9,29.8-23.5,43.5c7.3-0.5,14.6,1.4,21.6,3.6c61.1-97.5,90.4-234.6,76.5-410.3l-3.7-66.6
		C652.3,126.7,657.3,121.9,657.3,116z M622.9,257.3c-95.9-47.2-208.6-61.5-316.3-40.1c-21,4.2-41.8,9.7-62.2,16.6
		c-20.4,6.9-40.4,15.1-60,24.8l-0.4,0.2l-5.4,2.6l0.3-6c0.4-9.7,0.9-19.5,1.6-29.2c0.6-10,1.3-27.9,2.2-37.8l0.1-1.9l1.6-0.9
		c73.3-44,202.5-60.9,316.2-41.1c22.1,3.9,43.8,9.2,64.2,15.8c20.5,6.7,39.9,14.9,57.7,24.7h0l1.8,1l0.2,1.9
		c1.1,13.4,2.1,35,2.9,49.3c0.1,2.6,0.3,5.4,0.3,8.3c0.1,2.7,0.3,5.4,0.3,8.3v0.2l0.2,6L622.9,257.3z"/>
	<path class="st1" d="M573.9,630.4c0.2-1,0.1-1.8-0.4-2.6c-2.6-4.1-13.7-6.1-22.6-7.8c-11.2-2.1-18.1-3.5-19-7.5c0,0,0-0.1,0-0.1
		v30.1C551.3,642.7,568.1,638.4,573.9,630.4z"/>
	<path class="st1" d="M243.9,622.3c-9.5,0-16.2,2.3-17.9,6.1c-0.9,2-0.2,4.5,2,6.9c5.6,6,20.3,11.5,42.9,9.5v-32
		c-0.1,0.5-0.3,1-0.5,1.5C268,619.4,258.3,622.3,243.9,622.3z"/>
	<g>
		<polygon class="st1" points="341.5,670.7 346.7,669.7 342.4,661.9 		"/>
		<path class="st1" d="M482.2,665.7c-1.4-0.4-2.7-0.2-3.8,0.6c-1.2,0.8-2,2.4-2.6,4.7c-0.6,2.3-0.6,4,0,5.3c0.6,1.2,1.6,2,3.1,2.4
			c1.5,0.4,2.8,0.2,3.9-0.6c1.1-0.8,2-2.5,2.6-5c0.6-2.1,0.5-3.9-0.1-5.1C484.8,666.9,483.7,666.1,482.2,665.7z"/>
		<path class="st1" d="M645.8,675l-29.6-29.6l1-1.1c0.8-0.9,19.5-21.5,22.6-24.6c4.2-4.2,6.9-8.2,6.9-9.4c-0.3-0.1-1.4-0.2-4.4,0.7
			c-14.6,4.5-37.4,4.9-53,1c-3.7-0.9-7.5-2.2-11.5-3.6c-13.6-4.7-27.6-9.6-40.4,0.3c-2.1,1.6-2.7,2.7-2.5,3.2
			c0.5,2.2,9.8,3.9,16.6,5.2c10.5,1.9,21.4,4,24.6,9.2c1,1.6,1.2,3.3,0.7,5.2l-0.1,0.3l-0.2,0.2c-9.7,14-47.3,18.1-80.4,8.8
			c-39.7-11.2-116.9-26.1-188.3-1.1c-19.6,6.8-38.2,9.7-53.8,8.3c-12.7-1.1-23-5-28.2-10.6c-3-3.3-4-7-2.6-10.2
			c2.2-5,9.7-7.9,20.7-7.9c15.3,0,22.4-3.2,23.8-6.3c0.5-1.1,0.3-2.1-0.6-3.3c-3.9-5-18.1-8.2-36.8-4.3
			c-53.4,14.6-72.1,6.3-74.5,5.1c-0.9-0.2-1.3-0.1-1.5-0.1c-0.5,3.5,14.7,20.7,29.2,34.9l1.1,1.1l-8.3,8.3
			c-3.8,4.1-7.8,7.9-11.3,11.2c-5.6,5.3-11.4,10.8-11,12.9c0.1,0.4,0.7,0.8,1.3,1c25.8,7.9,62.2,1,62.6,1l1.8-0.4v21.3
			c0,0,0.7,4.4,13.4,9.8c27.2,10.1,56.5,5,89.1-2.1c31.2-6.8,57.8-10.4,101.7-8.2c18.6,0.9,36.4,4.6,53.6,8.2
			c21.8,4.5,42.4,8.8,62.8,7.1c18.5-1.5,40.5-5.7,40.5-16.9v-19.2l1.8,0.3c22.9,4,48.2,2.1,58.8,0c2.8-0.6,4.6-1.5,5.1-2.7
			C647,676.7,646,675.3,645.8,675z M300.2,690c-1.5,0.9-3.4,1.5-5.7,2c-2.7,0.6-5.1,0.5-7-0.1c-1.9-0.6-3.6-1.7-4.9-3.4
			c-1.4-1.7-2.2-3.7-2.7-6.1c-0.5-2.6-0.4-4.8,0.2-6.9c0.7-2.1,1.9-3.8,3.7-5.2c1.4-1.1,3.5-1.9,6.1-2.4c2.6-0.5,4.5-0.7,5.9-0.5
			c1.4,0.2,2.5,0.7,3.6,1.5c1,0.8,1.9,1.9,2.7,3.3l-6.7,2.6c-0.5-0.8-1.1-1.4-1.8-1.7c-0.8-0.4-1.7-0.4-2.8-0.2
			c-1.5,0.3-2.7,1.1-3.4,2.4c-0.7,1.3-0.9,3.1-0.3,5.5c0.5,2.5,1.3,4.2,2.5,5.1c1.2,0.9,2.6,1.2,4.3,0.8c0.8-0.2,1.5-0.4,2.2-0.8
			c0.7-0.4,1.4-0.9,2.2-1.7l-0.4-2.2l-4.8,1l-0.9-4.8l11.1-2.2l2,9.9C303.4,687.7,301.7,689.1,300.2,690z M330,676.7
			c-0.1,1.3-0.5,2.6-1.2,3.7c-0.7,1.1-1.5,2-2.4,2.6c-1.3,0.9-2.8,1.6-4.8,2.1c-1.1,0.3-2.4,0.5-3.7,0.7c-1.4,0.2-2.5,0.1-3.5-0.1
			c-1-0.2-2-0.7-3-1.4c-1-0.7-1.7-1.4-2.2-2.2c-0.8-1.4-1.3-2.6-1.6-3.7l-3.5-13.7l7.1-1.8l3.6,14c0.3,1.3,0.9,2.2,1.8,2.7
			c0.9,0.5,2,0.6,3.2,0.3c1.2-0.3,2.1-0.9,2.6-1.8c0.5-0.9,0.7-1.9,0.3-3.2l-3.6-14l7.1-1.8l3.5,13.7
			C330,674.1,330.1,675.4,330,676.7z M351.1,678l-1.9-3.6l-8.2,1.6l-0.4,4.1l-7.4,1.5l4.1-25l7.8-1.6l13.4,21.5L351.1,678z
			 M376.5,674.3l-10.3-11.9l1.5,12.9l-6.8,0.8l-2.6-23.5l6.8-0.8l10.3,12.1l-1.5-13.1l6.9-0.7l2.6,23.5L376.5,674.3z M405.7,672.4
			c-1.6,0.6-3.6,0.9-5.9,0.9c-2.8,0.1-5.1-0.4-6.9-1.3c-1.8-0.9-3.2-2.3-4.2-4.2c-1-1.8-1.6-4-1.6-6.5c0-2.6,0.4-4.8,1.4-6.8
			c1-1.9,2.5-3.4,4.6-4.4c1.6-0.8,3.7-1.3,6.5-1.3c2.6,0,4.5,0.1,5.9,0.6c1.3,0.4,2.4,1.2,3.3,2.1c0.9,1,1.5,2.2,2,3.7l-7,1.4
			c-0.3-0.9-0.8-1.6-1.5-2c-0.7-0.5-1.6-0.7-2.7-0.7c-1.6,0.1-2.9,0.6-3.8,1.8c-1,1.1-1.4,2.9-1.3,5.3c0.1,2.6,0.6,4.4,1.6,5.5
			c1,1.1,2.3,1.6,4.1,1.6c0.8,0,1.6-0.2,2.3-0.4c0.8-0.2,1.6-0.7,2.5-1.2l0-2.3l-4.9,0.1l-0.1-4.9l11.3-0.3l0.2,10.1
			C409.2,670.8,407.3,671.8,405.7,672.4z M437.4,655.7L423,668.5l13.7,1.1l-0.4,5.1l-22.4-1.8l0.4-4.9l14.2-12.6l-11.8-0.9l0.4-5.1
			l20.6,1.7L437.4,655.7z M461.9,679.3l-7.2-1.4l1.8-9.4l-7.9-1.5l-1.7,9.4l-7.2-1.4l4.4-23.3l7.2,1.4l-1.5,8.1l7.8,1.5l1.5-8.2
			l7.2,1.4L461.9,679.3z M492.5,675.1c-0.7,2.7-1.7,4.8-3.1,6.3c-1.4,1.5-3,2.4-4.9,3c-2,0.5-4.2,0.4-6.7-0.2
			c-2.6-0.7-4.6-1.7-6.1-2.9c-1.5-1.3-2.5-2.9-3.1-5c-0.6-2.1-0.6-4.4,0.2-7.1c1-3.8,2.8-6.4,5.4-7.9c2.6-1.5,5.8-1.8,9.5-0.9
			c3.8,1,6.5,2.8,8,5.4C493.2,668.3,493.5,671.4,492.5,675.1z M517.5,684.5c-0.3,1.3-0.9,2.6-1.6,3.7c-0.7,1.1-1.6,2-2.8,2.7
			c-1.1,0.7-2.2,1-3.3,1.2c-1.5,0.2-3.3,0-5.2-0.5c-1.1-0.3-2.3-0.7-3.6-1.2c-1.3-0.5-2.3-1.1-3.1-1.8c-0.8-0.7-1.4-1.6-1.9-2.6
			c-0.5-1-0.8-2.1-0.8-3c-0.1-1.6,0-3,0.3-4.1l3.6-13.7l7.1,1.8l-3.6,14c-0.3,1.3-0.2,2.3,0.3,3.2c0.5,0.9,1.4,1.5,2.6,1.8
			c1.2,0.3,2.3,0.2,3.1-0.3c0.9-0.5,1.5-1.4,1.8-2.7l3.6-14l7.1,1.8L517.5,684.5z"/>
	</g>
	<path class="st0" d="M290,641.7c-2.3-6.3-4.4-24.4-2.5-35.5c0.6-3.1,8.6-17.3,10.5-20.9c4.9-1.8,14.5-4,26.1-4.6
		c6.8,16.1,17.4,30.9,21.3,35.9c-1.7,3.6-3,7.4-4.1,11c1.5-0.3,3-0.5,4.5-0.8c0.9-3,2.1-6,3.4-8.9c6.6-1.4,25.7-5.7,44.3-10.3
		l15.6,15.7c2,0.1,4.1,0.2,6.1,0.3l-19.1-19.2c3.5-19.6,6.7-37.1,8-43.7c15.7-8.3,33.6-11.5,42.1-12.6c6.5,4.5,22.7,16.3,34.7,31.3
		c0.9,24.7-5.9,41.9-9.5,49c-1.7,0.7-3.4,1.4-5,2c4.9,1,9.6,2,14,3.1c-1.6-1.3-3.1-2.7-4.2-3.8c3.7-8.1,9.8-27.8,9.5-48.6
		c7.5-1.9,15-3.1,20.6-3.6c5.1,5.1,8.9,11.1,10.6,13.6c1.2,5.4,5,28.7-1.2,42.3c-1.5,4.1-3.9,6.2-7.3,6.9c2.6,0.5,5.3,0.9,7.9,1.2
		c3.8-6.6,5.9-15.4,5.9-27.2c0-65.9-53.3-119.4-119.4-119.4c-65.9,0-119.3,53.5-119.3,119.4c0,12.2,1.4,21.2,4.2,27.8
		C288.4,642,289.2,641.8,290,641.7z M484.3,531.1c1,0.9,3.1,3,4.5,4.7c-13.2-9.7-32.8-16.2-39.5-17.5c-5.2-5.3-18.6-15.5-46.2-20
		C434.6,498.3,463.2,510.8,484.3,531.1z M365.6,510.6c6.7-4.4,15.6-7.7,23.2-10c35.5,2.8,51.6,14.8,57.4,20.4
		c0.5,4.8,1,14.2-2.2,23.3c-9.2,1.3-25.8,4.5-41,12.4c-5-3.5-21-13.5-39.9-16.2C362.4,533.4,361.9,521,365.6,510.6z M345.2,513.4
		c3.8-0.7,9-1.3,15.5-0.9c-3,10.6-2.4,22-1.7,28.7c-5.4,3-20.8,12.9-32.8,33c-11.4,0.4-21.2,3.2-27.1,5.2
		c-1.6-4.4-2.2-10.2-2.4-14.3C307.2,543.3,324.2,525.2,345.2,513.4z"/>
	<path class="st1" d="M529.3,631.9c-2.7,3.5-5.5,6.9-8.4,10.2c2.8,0.3,5.6,0.4,8.4,0.5V631.9z"/>
	<path class="st1" d="M273,644.6c3-0.3,6-0.7,9.3-1.3c-3.2-3.6-6.2-7.2-9.3-10.9V644.6z"/>
</g>
</svg>
