<?xml version="1.0" encoding="utf-8"?>
<!-- Generator: Adobe Illustrator 23.0.3, SVG Export Plug-In . SVG Version: 6.00 Build 0)  -->
<svg version="1.1" id="图层_1" xmlns="http://www.w3.org/2000/svg" xmlns:xlink="http://www.w3.org/1999/xlink" x="0px" y="0px"
	 viewBox="0 0 800 800" style="enable-background:new 0 0 800 800;" xml:space="preserve">
<style type="text/css">
	.st0{fill:#FFFFFF;}
	.st1{fill:#C02C1F;}
	.st2{opacity:0.83;fill:#16853B;}
</style>
<g>
	<path d="M628.9,50c-26.5,15.2-63.9,18.3-81.4,18.3c-15.2,0-48.8-7.6-78.3-7.6c-4.5,0-9,0.2-13.2,0.6C424,64.4,400,79.2,400,79.2
		s-24-14.8-55.9-17.9c-4.3-0.4-8.7-0.6-13.2-0.6c-29.5,0-63.1,7.6-78.3,7.6c-17.5,0-54.9-3.1-81.4-18.3L85,184
		c0,0,47.1,37.5,48.7,123.8c1.6,86.2-40.5,124.7-53,137.1c0,0-1.6,82.3,61.6,143.9c63.1,61.6,138.7,88.1,162.1,99.7
		c23.4,11.7,87.7,36.4,95.7,61.4c8-25.1,72.3-49.7,95.7-61.4c23.4-11.7,99-38.2,162.1-99.7c63.1-61.6,61.6-143.9,61.6-143.9
		c-12.5-12.5-54.5-50.9-53-137.1S715,184,715,184L628.9,50L628.9,50z"/>
	<path class="st0" d="M625.6,63.7L702.9,184c-5,5.2-12.4,13.8-19.7,26.2c-20.9,35.1-25.8,73.1-26.2,98.8c-0.7,37.1,6.4,70.2,21,98.3
		c11.3,21.7,24.2,35.1,31.9,42.8c-0.6,16.1-6.5,82.5-58.7,133.4c-51.3,50-111.2,76.4-143.4,90.6c-6.8,3-12.2,5.4-16.3,7.5
		c-4,2-9.4,4.5-15.6,7.3c-31.6,14.4-61,28.8-75.8,45.1c-14.9-16.3-44.3-30.7-75.8-45.1c-6.2-2.8-11.6-5.3-15.6-7.3
		c-4.1-2.1-9.5-4.4-16.3-7.5c-32.2-14.2-92.1-40.6-143.4-90.6c-30.9-30.1-45.2-65.6-51.8-90.1c-5.4-20.1-6.6-36.3-6.9-43.2
		c7.7-7.7,20.6-21.1,31.9-42.8c14.6-28.1,21.7-61.2,21-98.3c-0.8-46.6-14.7-79.5-26.2-98.8c-7.4-12.4-14.7-21.1-19.7-26.2
		l77.3-120.3c31.4,14.6,70.2,15.4,78.1,15.4c7,0,16.9-1.4,28.3-3c14.9-2.1,33.5-4.6,50-4.6c4.4,0,8.6,0.2,12.3,0.6
		c29.2,2.9,51.7,16.4,51.9,16.6l4.9,3l4.9-3c0.2-0.1,22.5-13.7,51.9-16.6c3.8-0.4,7.9-0.6,12.3-0.6c16.5,0,35.1,2.6,50,4.6
		c11.5,1.6,21.3,3,28.3,3C555.5,79.2,594.2,78.4,625.6,63.7z"/>
	<path class="st1" d="M149.4,404.3c12-28.4,17.7-60.5,17.1-95.6c-0.9-51.7-16.6-88.6-29.5-110.4c-3.7-6.2-7.3-11.6-10.8-16.2
		l57.7-89.7c29.6,9.3,59.1,10.2,68.7,10.2c8.6,0,19.2-1.5,31.6-3.2c14.2-2,31.8-4.4,46.8-4.4c3.7,0,7.1,0.2,10.1,0.4
		c22.6,2.2,40.8,12.6,42,13.3l4.8,2.9c3.8,2.3,8,3.5,12.3,3.5s8.5-1.2,12.3-3.5l4.8-3c1-0.6,19.1-11,42-13.3c3-0.3,6.4-0.4,10.1-0.4
		c14.9,0,32.6,2.4,46.8,4.4c12.3,1.7,23,3.2,31.6,3.2c3.3,0,8.8-0.1,15.8-0.6L149.4,404.3z"/>
	<path class="st1" d="M685.7,458.9c-2.4,21.8-12.1,70.1-50.8,107.9c-48.2,47.1-105.6,72.3-136.5,85.9c-7.1,3.1-12.7,5.6-17.4,7.9
		c-3.7,1.8-8.9,4.2-14.9,6.9c-24.6,11.2-48.1,22.5-66.1,35.5c-18-13-41.5-24.3-66.1-35.5c-6-2.8-11.2-5.1-14.9-6.9
		c-4.6-2.3-10.3-4.8-17.4-7.9c-28.7-12.7-80.4-35.5-126.4-76.5l472.1-344.8c-10.5,28.7-13.5,56.6-13.9,77.2
		c-0.7,41.1,7.2,77.9,23.7,109.6C666.5,436.1,676.7,449.1,685.7,458.9z"/>
	<path class="st2" d="M673.9,182.1c-0.5,0.7-1.1,1.4-1.6,2.1l-514,375.4c-22.4-24.8-33.3-52.5-38.6-72.2c-3-11.4-4.6-21.3-5.4-28.5
		L616.2,92.4L673.9,182.1z"/>
	<path class="st0" d="M187.4,139c-0.8-1.9,1-3.8,2.9-3.1c8.6,3.2,26.6,9.5,41.2,11.7c2.5,0.4,3.5,3.4,1.8,5.2
		c-4.9,5.2-13.1,13.9-18.6,21c-1.7,2.2-5,2.1-6.6-0.1C203,166.6,193.2,152.5,187.4,139z M200.5,208.7c1.8,2,5,1.8,6.5-0.4
		c4.3-6.1,12.1-14.6,17-19.9c1.9-2.1,0.9-5.4-1.9-6.1c-20.8-4.7-33.7-9.5-40-12.2c-1.8-0.8-3.6,1-2.9,2.9
		C186.5,191.6,195.5,203.2,200.5,208.7z M231.2,195.8c-8.4,7.4-33.1,28.8-51.7,41c-2.2,1.4-2.6,4.5-0.9,6.5
		c5.3,6.3,15.6,18.8,20.7,27.3c1.5,2.4,4.9,2.4,6.4,0c7.3-12.2,23.6-42,28-73.4C233.8,195.7,232.2,194.9,231.2,195.8z M235.7,229.7
		c30.2-21.2,32.6-77.3,32.6-77.3h-27.8c-0.7,47.9-4.8,68.1-7.1,75.7C233,229.4,234.5,230.6,235.7,229.7z M350.9,205.8
		c-6.1-20.5-9.5-53.4-9.5-53.4h-27.3c9.4,39.5,28.8,51.7,35.2,54.7C350.3,207.5,351.2,206.7,350.9,205.8z M311.3,217.7v-80.4h-39
		v96.5h20.2c-25.2,19-51.9,29.8-63.9,34c-1.2,0.4-0.9,2.2,0.4,2.2c35.7,0.3,50.6-0.8,76.8-8.9c27.8-8.6,43.6-31.2,43.6-31.2
		l-21.3-32.2C323.2,205.1,317.4,211.7,311.3,217.7z"/>
	<path class="st0" d="M445.1,450h-31.3l3.2-15.2h28.1v-5.1h39v5.1h40.3v-5.1h39v5.1h25.1V450h-25.1v4.9h-39V450h-40.3v4.9h-39V450z
		 M589.5,551c-3.1,5-8.4,13.4-12,19.2c-1.5,2.5-4.6,3.6-7.3,2.5c-9-3.3-29.1-11.5-45.1-23.6v22.4h-39.2v-18.3
		c-30.1,15.6-57.2,18.2-69.5,18.4c-1.8,0-2.5-2.4-0.9-3.2c16.3-9.1,30.9-22,37.8-28.6h-39.5l3.2-15.2h68.8v-6.4h-21.3h-20.5h-6.8
		c-5.6,0-10.1-4.5-10.1-10.1v-29.6h-13.4l3.2-15.2h10.1v-5.6h37.4v5.6h12.2v-5.6H513v5.6h24.2v-5.6h36.2v5.6h14.9v15.2h-14.9v8.6
		c0,5.3-4.3,9.6-9.6,9.6h-77.5c-5.3,0-9.6-4.3-9.6-9.6v-8.6h-12.2v24.5h123.8v15.2h-63.2v6.4h63.2v15.2h-56.2
		c9.5,2.6,26.5,5.8,55.1,6.9C589.4,546.8,590.7,549.2,589.5,551z M513,478.6v3.6h24.2v-3.6H513z"/>
</g>
</svg>
