<?xml version="1.0" encoding="utf-8"?>
<!-- Generator: Adobe Illustrator 23.0.3, SVG Export Plug-In . SVG Version: 6.00 Build 0)  -->
<svg version="1.1" id="图层_1" xmlns="http://www.w3.org/2000/svg" xmlns:xlink="http://www.w3.org/1999/xlink" x="0px" y="0px"
	 viewBox="0 0 800 800" style="enable-background:new 0 0 800 800;" xml:space="preserve">
<style type="text/css">
	.st0{fill:#C02C1F;}
</style>
<path class="st0" d="M719.3,444.9c-12.5-12.5-54.5-50.9-53-137.1S715,184,715,184L628.9,50c-26.5,15.2-63.9,18.3-81.4,18.3
	c-15.2,0-48.8-7.6-78.3-7.6c-4.5,0-9,0.2-13.2,0.6C424,64.4,400,79.2,400,79.2s-24-14.8-55.9-17.9c-4.3-0.4-8.7-0.6-13.2-0.6
	c-29.5,0-63.1,7.6-78.3,7.6c-17.5,0-54.9-3.1-81.4-18.3L85,184c0,0,47.1,37.5,48.7,123.8c1.6,86.2-40.5,124.7-53,137.1
	c0,0-1.6,82.3,61.6,143.9c63.1,61.6,138.7,88.1,162.1,99.7c23.4,11.7,87.7,36.4,95.7,61.4c8-25.1,72.3-49.7,95.7-61.4
	c23.4-11.7,99-38.2,162.1-99.7C720.9,527.3,719.3,444.9,719.3,444.9z M651.2,583.6c-51.3,50-111.2,76.4-143.4,90.6
	c-6.8,3-12.2,5.4-16.3,7.5c-4,2-9.4,4.5-15.6,7.3c-31.6,14.4-61,28.8-75.8,45.1c-14.9-16.3-44.3-30.7-75.8-45.1
	c-6.2-2.8-11.6-5.3-15.6-7.3c-4.1-2.1-9.5-4.4-16.3-7.5c-32.2-14.2-92.1-40.6-143.4-90.6c-30.9-30.1-45.2-65.6-51.8-90.1
	c-5.4-20.1-6.6-36.3-6.9-43.2c7.7-7.7,20.6-21.1,31.9-42.8c14.6-28.1,21.7-61.2,21-98.3c-0.8-46.6-14.7-79.5-26.2-98.8
	c-7.4-12.4-14.7-21.1-19.7-26.2l77.3-120.3c31.4,14.6,70.2,15.4,78.1,15.4c7,0,16.9-1.4,28.3-3c14.9-2.1,33.5-4.6,50-4.6
	c4.4,0,8.6,0.2,12.3,0.6c29.2,2.9,51.7,16.4,51.9,16.6l4.9,3l4.9-3c0.2-0.1,22.5-13.7,51.9-16.6c3.8-0.4,7.9-0.6,12.3-0.6
	c16.5,0,35.1,2.6,50,4.6c11.5,1.6,21.3,3,28.3,3c8,0,46.7-0.8,78.1-15.4L702.9,184c-5,5.2-12.4,13.8-19.7,26.2
	c-20.9,35.1-25.8,73.1-26.2,98.8c-0.7,37.1,6.4,70.2,21,98.3c11.3,21.7,24.2,35.1,31.9,42.8C709.2,466.4,703.4,532.7,651.2,583.6z
	 M187.3,101.8c28.1,7.9,54.7,8.8,65.2,8.8c9.2,0,20.1-1.5,32.7-3.3c13.9-1.9,31.2-4.4,45.7-4.4c3.4,0,6.5,0.1,9.3,0.4
	c20.6,2,37.2,11.4,38.7,12.2l4.7,2.9c5,3.1,10.7,4.7,16.5,4.7c5.8,0,11.5-1.6,16.5-4.7l4.7-2.9c1.4-0.8,17.9-10.1,38.6-12.1
	c2.8-0.3,5.9-0.4,9.3-0.4c14.5,0,31.8,2.4,45.7,4.4c8.7,1.2,16.6,2.3,23.7,2.9L165.4,382.7c6.5-22.9,9.5-47.7,9.1-74.1
	c-1-53.5-17.2-91.7-30.7-114.3c-2.5-4.2-5.2-8.4-8-12.4L187.3,101.8 M183.8,92.4l-57.7,89.7c3.5,4.6,7.2,10,10.8,16.2
	c13,21.8,28.6,58.7,29.5,110.4c0.6,35.2-5.1,67.3-17.1,95.6L563.3,102c-7,0.5-12.5,0.6-15.8,0.6c-8.6,0-19.2-1.5-31.6-3.2
	c-14.2-2-31.9-4.4-46.8-4.4c-3.7,0-7.1,0.2-10.1,0.4c-22.9,2.2-41,12.7-42,13.3l-4.8,3c-3.8,2.3-8,3.5-12.3,3.5
	c-4.3,0-8.5-1.2-12.3-3.5l-4.8-2.9c-1.2-0.7-19.4-11.1-42-13.3c-3-0.3-6.4-0.4-10.1-0.4c-14.9,0-32.6,2.4-46.8,4.4
	c-12.3,1.7-23,3.2-31.6,3.2C242.9,102.6,213.4,101.7,183.8,92.4L183.8,92.4z M632.8,252c-5.4,22-7,42-7.3,56.5
	c-0.8,42.4,7.5,80.6,24.6,113.4c7.5,14.5,16.4,27.5,27.2,39.6c-1.4,10.7-4.4,25.8-10.9,42.4c-8.6,22.2-21.1,41.5-37.2,57.1
	c-47.2,46-103.7,70.9-134,84.3l-0.1,0c-7.4,3.3-13,5.7-17.7,8.1c-3.3,1.6-8,3.8-13.5,6.3l-1.2,0.5c-21.8,10-44.6,20.7-62.8,33
	c-18.3-12.3-41-23.1-62.8-33l-1.6-0.7c-5.3-2.4-9.8-4.5-13-6.1c-4.6-2.3-10-4.7-17.7-8.1c-26.2-11.5-73.6-32.5-116.7-68.7L632.8,252
	 M647.4,231.5L175.3,576.2c45.9,41.1,97.7,63.9,126.4,76.5c7.1,3.1,12.7,5.6,17.4,7.9c3.7,1.8,8.9,4.2,14.9,6.9
	c24.6,11.2,48.2,22.5,66.1,35.5c18-13,41.5-24.3,66.1-35.5c6-2.8,11.2-5.1,14.9-6.9c4.7-2.3,10.3-4.8,17.4-7.9
	c30.8-13.6,88.2-38.9,136.5-85.9c38.7-37.8,48.4-86.1,50.8-107.9c-9-9.8-19.2-22.8-28.5-40.7c-16.4-31.6-24.4-68.5-23.7-109.6
	C633.9,288,636.9,260.2,647.4,231.5L647.4,231.5z M673.9,182.1c-0.5,0.7-1.1,1.4-1.6,2.1l-514,375.4c-22.4-24.8-33.3-52.5-38.6-72.2
	c-3-11.4-4.6-21.3-5.4-28.5L616.2,92.4L673.9,182.1z M187.4,139c-0.8-1.9,1-3.8,2.9-3.1c8.6,3.2,26.6,9.5,41.2,11.7
	c2.5,0.4,3.5,3.4,1.8,5.2c-4.9,5.2-13.1,13.9-18.6,21c-1.7,2.2-5,2.1-6.6-0.1C203,166.6,193.2,152.5,187.4,139z M200.5,208.7
	c1.8,2,5,1.8,6.5-0.4c4.3-6.1,12.1-14.6,17-19.9c1.9-2.1,0.9-5.4-1.9-6.1c-20.8-4.7-33.7-9.5-40-12.2c-1.8-0.8-3.6,1-2.9,2.9
	C186.5,191.6,195.5,203.2,200.5,208.7z M231.2,195.8c-8.4,7.4-33.1,28.8-51.7,41c-2.2,1.4-2.6,4.5-0.9,6.5
	c5.3,6.3,15.6,18.8,20.7,27.3c1.5,2.4,4.9,2.4,6.4,0c7.3-12.2,23.6-42,28-73.4C233.8,195.7,232.2,194.9,231.2,195.8z M235.7,229.7
	c30.2-21.2,32.6-77.3,32.6-77.3h-27.8c-0.7,47.9-4.8,68.1-7.1,75.7C233,229.4,234.5,230.6,235.7,229.7z M350.9,205.8
	c-6.1-20.5-9.5-53.4-9.5-53.4h-27.3c9.4,39.5,28.8,51.7,35.2,54.7C350.3,207.5,351.2,206.7,350.9,205.8z M311.3,217.7v-80.4h-39
	v96.5h20.2c-25.2,19-51.9,29.8-63.9,34c-1.2,0.4-0.9,2.2,0.4,2.2c35.7,0.3,50.6-0.8,76.8-8.9c27.8-8.6,43.6-31.2,43.6-31.2
	l-21.3-32.2C323.2,205.1,317.4,211.7,311.3,217.7z M445.1,450h-31.3l3.2-15.2h28.1v-5.1h39v5.1h40.3v-5.1h39v5.1h25.1V450h-25.1v4.9
	h-39V450h-40.3v4.9h-39V450z M589.5,551c-3.1,5-8.4,13.4-12,19.2c-1.5,2.5-4.6,3.6-7.3,2.5c-9-3.3-29.1-11.5-45.1-23.6v22.4h-39.2
	v-18.3c-30.1,15.6-57.2,18.2-69.5,18.4c-1.8,0-2.5-2.4-0.9-3.2c16.3-9.1,30.9-22,37.8-28.6h-39.5l3.2-15.2h68.8v-6.4h-21.3h-20.5
	h-6.8c-5.6,0-10.1-4.5-10.1-10.1v-29.6h-13.4l3.2-15.2h10.1v-5.6h37.4v5.6h12.2v-5.6H513v5.6h24.2v-5.6h36.2v5.6h14.9v15.2h-14.9
	v8.6c0,5.3-4.3,9.6-9.6,9.6h-77.5c-5.3,0-9.6-4.3-9.6-9.6v-8.6h-12.2v24.5h123.8v15.2h-63.2v6.4h63.2v15.2h-56.2
	c9.5,2.6,26.5,5.8,55.1,6.9C589.4,546.8,590.7,549.2,589.5,551z M513,478.6v3.6h24.2v-3.6H513z"/>
</svg>
