<?xml version="1.0" encoding="utf-8"?>
<!-- Generator: Adobe Illustrator 22.1.0, SVG Export Plug-In . SVG Version: 6.00 Build 0)  -->
<svg version="1.1" id="图层_1" xmlns="http://www.w3.org/2000/svg" xmlns:xlink="http://www.w3.org/1999/xlink" x="0px" y="0px"
	 viewBox="0 0 800 800" style="enable-background:new 0 0 800 800;" xml:space="preserve">
<style type="text/css">
	.st0{fill:#F6B800;}
	.st1{fill:#FFFFFF;}
	.st2{fill:#0067AC;}
</style>
<g>
	<g>
		<path class="st0" d="M146.6,289.3c0.6-3.8,4.6-9.8,4.6-9.8c-22.5,0-27,29.5-27,29.5C141.8,307.7,145.8,294.3,146.6,289.3z"/>
		<path class="st0" d="M104.3,363.9l-2.5,2.8v2.4c0,0,1.6,2.8,3.6,2.5c2-0.3,3.1-5.5,3.1-5.5v-7.4c0,0,2.4,3.6,18-7.4
			c18.1-12,13-24.6,13-24.6s-0.8,2.8-4.4,4c-6.8,1.9-19.3,8.9-19.3,8.9v-10c36.2-5.5,31-22.5,31-22.5s-2.6,3.5-6.3,3.5
			c-11.8-0.3-19.4,6.5-19.4,6.5c1.1-4.1,0.3-11.8-2.8-15.9s-2-10-2-10c-15.5,8.1-5.3,31.7-5.3,31.7v13.8l-0.6,0.9
			c-2.4-7.6-7.5-12.6-9.4-15.1c-1.9-2.5-2.8-8.6-2.8-8.6c-15.4,21.1,5.8,45.1,5.8,45.1V363.9z"/>
		<path class="st0" d="M106.6,432c0.8,5.3,4.3,11,4.3,11l2.3,0.3l1.5-1.8l-0.5-2.2c-2.3-2.7-1.7-8.5-1.7-8.5s5.2-3,11.7-13
			c12.8-19.5,2.7-31,2.7-31s0.3,5-5.7,10.2c-8.7,6.8-12.3,17.5-12.3,17.5c-3.2-7.2-2-17.8-2-17.8s3.8,0.1,15.5-12.1
			c15.1-14.3,8.9-29.3,8.9-29.3s-1.3,4.9-9.8,9.8c-11.7,6.3-16,15-16,15c-1.7-7.2-11-17-14.5-19.4c-3.5-2.3-5.7-8.5-5.7-8.5
			c-10.2,23,15,42.9,16.3,45c-0.2,5.8,0.5,10.5,0.5,10.5c-7.5-2.7-20.2-14.7-20.2-14.7C80.1,422.1,106.6,432,106.6,432z"/>
		<path class="st0" d="M121.1,471.3c1.2,3.2,3,7.2,3,7.2l2,0.8l1.7-1l0.7-1.3l-4.3-9.2c0,0-1.7-5.3,1.3-8.7c3-3.3,9-13,10.2-22.2
			c1.2-9.2-2.7-17-7.3-19.7c0,0,1.7,4.7-2.2,9.3c-3.8,4.7-11,15.5-10,23.7c0,0-7.7-9.3-20.2-12c-6.5-1.8-9.3-7.2-9.3-7.2
			S83.4,453,112.8,464C120.3,467,120,468.2,121.1,471.3z"/>
		<path class="st0" d="M145,510.1h1.2l1.5-0.8l0.2-1.3l-0.7-1.7c0,0-2-3.2-4.3-5.2c-2.3-2-1.2-6-1.2-6s2.3-3.3,3.8-10
			c8.7-30.7-7.7-37.4-7.7-37.4s1.8,9.3-2,14.5c-8.1,10.5-5.9,22.4-5.9,22.4c-2.5-3-12.3-7.5-20.2-8c-7.8-0.5-13.3-5.3-13.3-5.3
			c3.5,27.9,41.2,30.4,41.2,30.4L145,510.1z"/>
		<path class="st0" d="M148.8,528.4c7.2-0.3,9.7,2.5,9.7,2.5l7.3,6.3l2.3,0.7l1.3-2.8l-0.8-1c0,0-1.5-1.2-4.2-3
			c-2.7-1.8-1.5-4.2-0.8-7.5c8.2-43.4-13.2-46.7-13.2-46.7s1.8,4.7-0.5,13.5c-3.5,10-1,23.7-1,23.7c-6.2-4.5-19.7-4-24.2-4
			s-10.3-2.3-10.3-2.3C120.1,524.9,141.7,528.7,148.8,528.4z"/>
		<path class="st0" d="M192.4,556.3l-3.3-18.5c-5.3-32.5-21.5-33.4-21.5-33.4s2.2,4.5,1.3,10.2c-2.2,13,3.8,26.5,3.8,26.5
			c-4.5-2.2-18.2-1.3-23,0s-12,0.5-12,0.5C155,565.1,192.4,556.3,192.4,556.3z"/>
		<path class="st0" d="M177,563.8c-8.7,1.3-13.3-1.5-13.3-1.5c11,23.7,41.7,14.8,41.7,14.8l0.8-13.9
			C200.4,562,185.7,562.4,177,563.8z"/>
	</g>
	<g>
		<path class="st0" d="M653.4,289.3c-0.6-3.8-4.6-9.8-4.6-9.8c22.5,0,27,29.5,27,29.5C658.2,307.7,654.2,294.3,653.4,289.3z"/>
		<path class="st0" d="M695.7,363.9l2.5,2.8v2.4c0,0-1.6,2.8-3.6,2.5s-3.1-5.5-3.1-5.5v-7.4c0,0-2.4,3.6-18-7.4
			c-18.1-12-13-24.6-13-24.6s0.8,2.8,4.4,4c6.8,1.9,19.3,8.9,19.3,8.9v-10c-36.2-5.5-31-22.5-31-22.5s2.6,3.5,6.3,3.5
			c11.8-0.3,19.4,6.5,19.4,6.5c-1.1-4.1-0.3-11.8,2.8-15.9s2-10,2-10c15.5,8.1,5.3,31.7,5.3,31.7v13.8l0.6,0.9
			c2.4-7.6,7.5-12.6,9.4-15.1c1.9-2.5,2.8-8.6,2.8-8.6c15.4,21.1-5.8,45.1-5.8,45.1V363.9z"/>
		<path class="st0" d="M693.4,432c-0.8,5.3-4.3,11-4.3,11l-2.3,0.3l-1.5-1.8l0.5-2.2c2.3-2.7,1.7-8.5,1.7-8.5s-5.2-3-11.7-13
			c-12.8-19.5-2.7-31-2.7-31s-0.3,5,5.7,10.2c8.7,6.8,12.3,17.5,12.3,17.5c3.2-7.2,2-17.8,2-17.8s-3.8,0.1-15.5-12.1
			c-15.1-14.3-8.9-29.3-8.9-29.3s1.3,4.9,9.8,9.8c11.7,6.3,16,15,16,15c1.7-7.2,11-17,14.5-19.4c3.5-2.3,5.7-8.5,5.7-8.5
			c10.2,23-15,42.9-16.3,45c0.2,5.8-0.5,10.5-0.5,10.5c7.5-2.7,20.2-14.7,20.2-14.7C719.9,422.1,693.4,432,693.4,432z"/>
		<path class="st0" d="M678.9,471.3c-1.2,3.2-3,7.2-3,7.2l-2,0.8l-1.7-1l-0.7-1.3l4.3-9.2c0,0,1.7-5.3-1.3-8.7
			c-3-3.3-9-13-10.2-22.2c-1.2-9.2,2.7-17,7.3-19.7c0,0-1.7,4.7,2.2,9.3c3.8,4.7,11,15.5,10,23.7c0,0,7.7-9.3,20.2-12
			c6.5-1.8,9.3-7.2,9.3-7.2s3.2,21.9-26.2,32.9C679.7,467,680,468.2,678.9,471.3z"/>
		<path class="st0" d="M655,510.1h-1.2l-1.5-0.8l-0.2-1.3l0.7-1.7c0,0,2-3.2,4.3-5.2s1.2-6,1.2-6s-2.3-3.3-3.8-10
			c-8.7-30.7,7.7-37.4,7.7-37.4s-1.8,9.3,2,14.5c8.1,10.5,5.9,22.4,5.9,22.4c2.5-3,12.3-7.5,20.2-8c7.8-0.5,13.3-5.3,13.3-5.3
			c-3.5,27.9-41.2,30.4-41.2,30.4L655,510.1z"/>
		<path class="st0" d="M651.2,528.4c-7.2-0.3-9.7,2.5-9.7,2.5l-7.3,6.3l-2.3,0.7l-1.3-2.8l0.8-1c0,0,1.5-1.2,4.2-3
			c2.7-1.8,1.5-4.2,0.8-7.5c-8.2-43.4,13.2-46.7,13.2-46.7s-1.8,4.7,0.5,13.5c3.5,10,1,23.7,1,23.7c6.2-4.5,19.7-4,24.2-4
			c4.5,0,10.3-2.3,10.3-2.3C679.9,524.9,658.3,528.7,651.2,528.4z"/>
		<path class="st0" d="M607.6,556.3l3.3-18.5c5.3-32.5,21.5-33.4,21.5-33.4s-2.2,4.5-1.3,10.2c2.2,13-3.8,26.5-3.8,26.5
			c4.5-2.2,18.2-1.3,23,0c4.8,1.3,12,0.5,12,0.5C645,565.1,607.6,556.3,607.6,556.3z"/>
		<path class="st0" d="M623,563.8c8.7,1.3,13.3-1.5,13.3-1.5c-11,23.7-41.7,14.8-41.7,14.8l-0.8-13.9
			C599.6,562,614.3,562.4,623,563.8z"/>
	</g>
	<path class="st0" d="M463.3,129.2c0,0-17.3,14.2-29-6.9c0,0-17.2,15-34.4-7.1c-17.1,22.1-34.4,7.1-34.4,7.1
		c-11.8,21.1-29,6.9-29,6.9l-3.5,32.9l66.9-31.1l66.9,31.1L463.3,129.2z"/>
	<circle class="st1" cx="399.9" cy="218.6" r="87.6"/>
	<polygon class="st2" points="185.7,471.9 399.9,377.1 614.1,471.9 614.1,578.3 399.9,673.2 185.7,578.3 185.7,471.9 185.7,471.9 	
		"/>
	<g>
		<path class="st1" d="M501.9,575.5c-1.1,0.9-0.9,6.3,0.2,7.1c6.5,0,12-0.5,25-0.5c16.3,0,24.5,0.5,30.4,0.5
			c1.3-0.9,1.5-6.3,0.5-7.2c-5.2-0.6-9.4-1.1-14.1-2c-5.4-1.1-6.5-3.1-6.7-8.5c-0.4-7.4-0.2-20.1-0.2-31.3l0.7-0.9
			c5.1,0,22.4,0,29,0.4c3.8,0.2,5.4,2,6.7,6.3c0.7,2.4,1.3,4.2,2.2,8.2c2.2,0.9,6.9,0.7,8.3-0.2c-0.4-6.5-0.5-12.9-0.5-19.8
			c0-6,0.7-14.3,1.3-19c-1.8-1.1-7.1-1.3-8.9-0.7c-0.6,3.4-1.3,5.8-2,7.8c-1.3,3.8-2.3,6.2-5.6,6.3c-6.3,0.5-18.8,0.5-30.4,0.5
			l-0.7-1.1c-0.2-13,0.2-25.5,0.2-38.6c0-0.9,1.1-3.1,2.2-3.2c5.8-0.6,24.5-0.2,31.5,0.2c5.3,0.2,6.7,2,8.5,6.5
			c1.1,4,1.5,6.3,2.5,11.8c1.1,1.1,7.3,0.5,8.2-0.7c0.2-10.1,1.5-22.1,2.5-26.4l-1.1-1.4c-4,0.5-12.7,0.5-18.8,0.5h-45.1
			c-9.4,0-20.1-0.5-24.3-0.5c-0.7,0.9-1.5,6.2-0.2,7.1c4.3,0.5,8,1.3,10.7,1.8c4,1.1,5.1,2.5,5.2,8.5c0.4,5.6,0.4,17.2,0.4,37.8
			c0,22.1,0.2,33.3-0.2,40c-0.4,6.3-1.2,7.6-6.7,9.1C510.2,574.2,506.4,574.9,501.9,575.5L501.9,575.5L501.9,575.5z"/>
		<path class="st1" d="M336.6,575.8c-12.9-2.2-15-2.9-21.9-10c-8.9-9.6-22.3-26.8-28.6-36.8l0.4-1.4c11.4-5.3,20.5-14.5,20.5-29.4
			c0-15.6-12.3-28.6-33.9-28.6c-6.7,0-17,0.2-31.9,0.2c-6.2,0-18.9-0.5-22.8-0.5c-1.1,0.7-1.5,6-0.5,7.1c4.2,0.5,7.6,1.1,10.7,1.8
			c4.9,1.3,6,3.1,6.2,8.5c0.2,4.2,0.2,16.3,0.2,40.6c0,10.1-0.2,33.2-0.6,36.8c-0.4,7.1-2.2,8.9-6.5,9.8c-2.7,0.5-5.6,1.1-9.8,1.5
			c-1.1,1.1-1.1,6,0,7.2c4.2,0,12.9-0.5,24.8-0.5c14.7,0,22.5,0.5,26.6,0.5c1.1-0.7,1.5-6.3,0.6-7.2c-4.9-0.6-8.2-0.9-11-1.6
			c-4.7-0.9-6.2-2.9-6.5-7.8c-0.4-4.7-0.4-20.5-0.4-30.4l0.7-1.1c2.7,0,11.2,0,13.6,0.4c1.5,0.2,3.4,0.9,4.5,2.4
			c6.9,10.2,16.9,25.6,23.7,34.1c3.6,4.2,6.5,6.3,9.2,8c7.4,3.8,22.8,3.8,31.3,3.8C336.6,582.5,337.5,576.4,336.6,575.8z
			 M277.6,523.5c-2.4,1.3-7.4,2.2-24.6,2.2l-0.9-0.9c0-12.5,0-36.6,0.4-43.3c0-0.9,0.9-2.5,1.4-2.9c2-0.7,5.8-1.1,6.9-1.1
			c19.4,0,27.5,9.8,27.5,26.8C288.3,513.5,283.6,520.4,277.6,523.5z"/>
		<path class="st1" d="M487.3,488.5c-3,0-11.1,0.7-26.3,0.7c-9.5,0-19.6-0.7-23.6-0.7c-0.9,0.7-1.6,8.8-0.5,9
			c5.1,0.7,10.2,1.9,12.7,2.8c4.6,1.9,3.4,6.2,2.5,8.5c-2.8,8.5-7.2,19.2-12,26.3l-1.9,0.2c-16.9-12.2-35.1-27.7-41.8-34.6l0.2-1.1
			c22.6-14.5,29.8-23.3,29.8-35.3c0-16.2-12.9-29.3-30.9-29.3c-19.8,0-38.3,15-38.3,37.4c0,12.9,5.5,22.6,12.9,31.6v1.2
			c-25.2,17.1-31.2,26.8-31.2,39.2c0,24,17.1,41.8,44.8,41.8c15.5,0,31.9-5.8,49.4-25.6c0.5-0.5,0.2-0.9,0.9-0.2
			c9.9,7.8,18.9,15,27.7,22.4c2.1,1.6,6,5.8,7.4,8.8c0.7,0.5,3.9,0.7,4.6,0c2.3-2.6,9.2-17.1,9.2-21.9c-4.4-5.3-21.2-17.5-34.9-27.5
			l-0.2-1.6c5.5-7.4,11.1-18.9,19.9-33.9c1.6-2.5,4.1-5.3,8.5-6.7c2.5-0.7,6.5-1.4,10.2-2.1C488.4,496.8,488.2,489.9,487.3,488.5z
			 M391,444.8c11.3,0,17.5,10.9,17.5,20.1c0,11.5-6.5,20.1-17.5,28.6h-2.1c-9-8.1-14.1-18-14.1-27.9
			C374.9,452.2,382.2,444.8,391,444.8z M424.7,555.4c-8.3,9.5-21,14.3-30.5,14.3c-18.9,0-34.2-12.2-34.2-30.7
			c0-12.5,6.9-19.6,15.5-27.2h1.6c14.3,14.1,31.9,28.9,47.8,41.6C425.7,554.1,425.2,554.7,424.7,555.4z"/>
	</g>
	<g>
		<path class="st1" d="M346.3,618.4c3.7,0,5.8-2,5.8-4.6c0-1.7-0.8-2.8-2.6-4c-1.1-0.7-1.6-1-2.7-1.7c-1-0.7-1.5-1.4-1.5-2.5
			c0-1.2,0.8-2.1,2.2-2.1c0.8,0,1.3,0.1,1.9,0.5c0.6,0.5,0.9,1.2,1.1,2.7l0.7,0c0.1-1.5,0.2-2.6,0.4-3.6c-1.1-0.1-2.1-0.4-3.9-0.4
			c-2.8,0-5.1,1.6-5.1,4.4c0,2.4,1.5,3.6,3.8,5c2.1,1.3,2.7,2.1,2.7,3.4c0,1.3-0.9,2-2.1,2c-0.8,0-1.6-0.2-2.3-0.6
			c-0.9-0.7-1.5-1.5-2.1-3.3l-0.7,0.2c0.1,0.8,0.5,3.4,0.7,3.8C343.1,618,344.7,618.4,346.3,618.4L346.3,618.4L346.3,618.4z"/>
		<path class="st1" d="M361.3,618.1l0.1-0.7l-1.2-0.2c-0.7-0.1-0.7-0.8-0.8-1.2c-0.1-0.9-0.1-2.4-0.1-5.7c0-2.1,0-4.1,0-4.9
			c0-0.9,0.1-1.1,0.6-1.3l1.2-0.2v-0.7c-0.5,0-1.3,0.1-3.5,0.1c-1.7,0-2.7-0.1-3.6-0.1v0.7l1.2,0.2l0.6,1c0.1,1.1,0.1,2.5,0.1,5.1
			c0,2.4,0,4.8-0.1,5.8c0,1-0.2,1.2-0.8,1.4l-1.1,0.2v0.7c0.9,0,1.5-0.1,3.7-0.1C359.3,618,360.2,618,361.3,618.1L361.3,618.1
			L361.3,618.1z"/>
		<path class="st1" d="M379.3,603.8v-0.7c-0.4,0-1.5,0.1-2.7,0.1c-1.4,0-2.5-0.1-3.2-0.1l0,0.7c0.7,0.1,1,0.1,1.4,0.2
			c0.8,0.2,1,0.5,1.1,1.4c0.1,1.4,0.1,5.3,0.1,8.3l-0.1,0c-1.7-2-5.4-6.9-7.2-9.3l-0.9-1.3c-0.3,0-0.9,0-1.6,0
			c-1.4,0-2.7-0.1-3.6-0.1l0,0.7l1.5,0.3c0.6,0.2,0.9,1,0.9,1.6c0,4.1-0.1,8.7-0.2,10c-0.1,0.8-0.3,1.2-0.8,1.4l-1.4,0.3v0.7
			c0.7,0,1.6-0.1,3.1-0.1c1.1,0,2.2,0.1,2.9,0.1l0-0.7l-1.4-0.2c-0.7-0.1-1-0.5-1.1-1.6c-0.1-1-0.1-6.3,0-9l0.1,0
			c1.3,1.8,7.4,9.8,8.6,11.5l2.3,0c0-0.9,0-2.3,0-3.3c0-3.1,0-7,0.2-9.3c0.1-0.9,0.3-1.3,1-1.5L379.3,603.8L379.3,603.8L379.3,603.8
			z"/>
		<path class="st1" d="M392.4,617.9c0.7-0.5,1.6-2.5,1.9-3.4l-0.6-0.4c-0.5,0.9-1.2,1.9-1.8,2.4c-0.8,0.7-1.8,0.8-2.6,0.8
			c-3.9,0-5.4-3.5-5.4-7.2c0-4.5,1.9-6.6,4.5-6.6c1,0,2,0.1,3,0.7c1,0.6,1.2,1.6,1.4,3l0.7-0.1c0-1.3,0.3-3.3,0.4-4
			c-1.2-0.1-3.2-0.4-4.9-0.4c-2.1,0-3.7,0.4-5,1.1c-2.7,1.4-3.9,3.9-3.9,6.6c0,5.3,3.2,8,8.6,8C390.5,618.4,391.7,618.1,392.4,617.9
			L392.4,617.9L392.4,617.9z"/>
		<path class="st1" d="M407.3,617.7c0.4-0.8,1-3.1,1-3.6l-0.7-0.2c-0.4,0.9-0.8,1.8-1.4,2.4c-0.5,0.5-0.8,0.7-2.1,0.7
			c-1.2,0-2.4-0.1-2.8-0.2l-0.5-0.8v-4.7l0.1-0.2c0.7,0,2.8,0,3.2,0.1l0.9,0.8c0.1,0.3,0.1,0.2,0.2,0.9l0.7,0c0-0.7-0.1-1.8-0.1-2.4
			c0-0.8,0.1-1.7,0.1-2.3l-0.7,0l-0.2,0.8c-0.2,0.7-0.4,1-1,1c-0.7,0-2.6,0-3.3,0l-0.1-0.2c0-1.7,0-3.4,0-5l0.2-0.4l3.4,0l0.9,0.6
			c0.2,0.4,0.4,1,0.5,1.9l0.7-0.1c0.1-1.3,0.2-2.9,0.4-3.6l-0.1-0.1c-0.8,0.1-2.1,0.1-3.1,0.1h-4.7c-1.2,0-2.7-0.1-3.6-0.1l0,0.7
			l1.2,0.2c0.5,0.2,0.6,0.4,0.7,1.1c0.1,0.9,0.1,2.8,0.1,4.7c0,2.7,0,4.8-0.1,6.1c0,0.8-0.2,1.1-0.7,1.2c-0.4,0.1-0.9,0.2-1.7,0.3
			v0.7c1.3,0,2.9-0.1,4.2-0.1c2.3,0,4.6,0.1,6.8,0.1C407,618.1,407.2,618,407.3,617.7L407.3,617.7L407.3,617.7z"/>
		<path class="st1" d="M428.6,617.8c0.5-0.6,1.3-3.2,1.6-4.1l-0.6-0.2c-0.7,1.5-1.4,1.9-1.9,2c-1.1,0-3.7,0-4.6-0.1l0-0.2
			c1-0.9,1.7-1.5,2.5-2.3c1.8-1.8,2.7-3.3,2.7-5c0-2.8-2-4.4-4.1-4.4c-1.8,0-3.7,1.1-5,3.4l0.5,0.5c1-1.1,2-1.4,2.8-1.4
			c1.8,0,2.6,1.4,2.6,3.2c0,1.5-0.6,3-1.5,4.3c-1.2,1.6-2.5,2.8-4.3,4.2l0,0.6c0.4,0,1,0,1.7,0c2.1,0,4.6,0.1,6.4,0.1
			C428.2,618,428.4,618,428.6,617.8L428.6,617.8L428.6,617.8z"/>
		<path class="st1" d="M451.1,618.1l0.1-0.7l-1.2-0.2c-0.6-0.1-0.7-0.8-0.8-1.7c-0.1-2-0.1-6.1-0.1-8.1c0-2,0-2.9,0.1-3.9l-0.3-0.2
			c-1.1,0.4-2.9,1.1-4.9,1.2l-0.1,0.7l1.1,0.2l0.6,0.9c0.1,0.7,0.1,2.5,0.1,4.5c0,2.3,0,3.8-0.1,4.8c0,0.8-0.1,1.4-0.8,1.6l-1.2,0.2
			v0.7c0.7,0,1.7-0.1,3.5-0.1C448.6,618,450.2,618.1,451.1,618.1L451.1,618.1L451.1,618.1z"/>
		<path class="st1" d="M460.8,618.1l0.1-0.7l-1.2-0.2c-0.6-0.1-0.7-0.8-0.8-1.7c-0.1-2-0.1-6.1-0.1-8.1c0-2,0-2.9,0.1-3.9l-0.3-0.2
			c-1.1,0.4-2.9,1.1-4.9,1.2l-0.1,0.7l1.1,0.2l0.6,0.9c0.1,0.7,0.1,2.5,0.1,4.5c0,2.3,0,3.8-0.1,4.8c0,0.8-0.1,1.4-0.8,1.6l-1.3,0.2
			v0.7c0.7,0,1.7-0.1,3.5-0.1C458.4,618,459.9,618.1,460.8,618.1L460.8,618.1L460.8,618.1z"/>
		<path class="st1" d="M440.8,605c-0.7-0.9-1.9-1.6-3.6-1.6c-1.1,0-2.3,0.3-3.3,1.1c-1.7,1.4-2.3,4-2.3,6.2c0,2.8,0.4,5.4,2.3,6.8
			c0.8,0.6,1.7,0.8,3,0.8c0.9,0,2-0.3,2.7-0.8c2.1-1.4,2.7-4.1,2.7-7C442.4,608,441.8,606.1,440.8,605z M438.1,617.2l-0.8,0.3
			c-1.3,0-2.2-2-2.2-7.2c0-3,0.4-5.2,1.2-5.9l0.6-0.2c1.4,0,2.2,2.5,2.2,6.8C439.1,615.4,438.6,616.7,438.1,617.2z"/>
	</g>
	<polygon class="st2" points="614.1,590.8 399.9,685.7 185.7,590.8 185.7,655.9 399.9,750.8 614.1,655.9 	"/>
	<g>
		<path class="st1" d="M439.1,701.3c-1.8-4-5.9-6.2-10.8-4c-2.7,1.2-4.3,3.1-4.9,5.3c-0.7,1.9-0.4,3.9,0.4,5.7
			c0.8,1.8,2.3,3.7,4.4,4.5c1.9,0.8,4.1,0.8,6.6-0.4c2.5-1.1,4.4-3.1,5-5.8C440.3,705,439.9,703,439.1,701.3z M436.8,709.6
			c-0.2,0.7-0.8,1.3-1.5,1.7c-1,0.4-2,0.4-2.9,0.2c-2.3-0.7-4.2-3.3-5.2-5.5c-1-2.3-1.4-4.5-0.6-6.1c0.3-0.6,0.9-1.1,1.6-1.4
			c1-0.4,1.8-0.5,2.7-0.1c2.1,0.7,3.9,3.1,4.9,5.5C436.7,705.7,437.3,708.1,436.8,709.6z"/>
		<path class="st1" d="M457.6,693.1c-1.8-4-5.9-6.2-10.8-4c-2.7,1.2-4.3,3.1-4.9,5.3c-0.7,1.9-0.4,3.9,0.4,5.7
			c0.8,1.8,2.3,3.7,4.4,4.5c1.9,0.8,4.1,0.8,6.6-0.4c2.5-1.1,4.4-3.1,5-5.8C458.7,696.8,458.4,694.8,457.6,693.1z M455.2,701.4
			c-0.3,0.7-0.8,1.3-1.5,1.7c-1,0.4-2,0.4-2.9,0.2c-2.3-0.7-4.2-3.3-5.2-5.5c-1-2.3-1.4-4.5-0.6-6.1c0.3-0.6,0.9-1.1,1.6-1.4
			c1-0.4,1.8-0.4,2.8-0.1c2.1,0.7,3.9,3.1,4.9,5.5C455.2,697.5,455.8,699.9,455.2,701.4z"/>
		<path class="st1" d="M488.9,682.7c-0.9-2.1-2.9-2.5-5.3-1.9l-0.1-0.1c1.7-1.3,2-2.9,1.4-4.2c-1.2-2.7-3.9-2.1-5.9-1.3
			c-0.6,0.3-2.3,1.1-4.1,1.9c-1.6,0.7-2.6,1.1-3.3,1.4l0.3,0.6l1.3-0.3c0.4,0,0.7,0.1,1,0.8c0.7,1.2,1.4,2.9,2.4,5.3
			c1.4,3.2,2.1,4.7,2.3,5.3c0.2,0.7,0.2,1-0.1,1.3c-0.3,0.3-0.6,0.5-1.3,0.9l0.3,0.6c1.6-0.7,5.4-2.3,6.5-2.7
			c1.4-0.6,2.8-1.5,3.7-2.5C489.4,686.2,489.7,684.5,488.9,682.7z M479.4,682.3c-0.7-1.6-1.7-3.9-2-4.8l0-0.4l0.4-0.3
			c2.1-0.9,3.6,0,4.4,1.7c0.5,1,0.5,1.8,0,2.5c-0.2,0.3-0.7,0.6-1.3,0.9l-1.2,0.5L479.4,682.3z M484.7,689.2c-0.2,0.1-1.1,0.3-1.8,0
			l-0.7-0.6c-0.6-1.2-1.6-3.5-2.3-5.2l0.1-0.2l0.8-0.4c2.2-1,4-0.2,4.9,1.8C486.6,686.9,486.2,688.5,484.7,689.2z"/>
		<path class="st1" d="M319,673.7c-2.7-1.2-5.2-1.1-7.2-0.1c-1.9,0.7-3.2,2.3-4,4.1c-0.8,1.8-1.2,4.1-0.4,6.3
			c0.7,1.9,2.2,3.6,4.7,4.7c2.5,1.1,5.3,1.2,7.7-0.2c1.5-0.9,2.8-2.4,3.5-4.2C325,680.4,323.9,675.9,319,673.7z M319.2,683.6
			c-0.9,2-2.2,4-3.8,4.6c-0.7,0.3-1.5,0.3-2.2,0c-1-0.4-1.6-1.1-2.1-2c-1-2.2-0.3-5.3,0.6-7.5c1-2.3,2.4-4.1,4.2-4.5
			c0.6-0.2,1.4-0.1,2.1,0.2c0.9,0.4,1.5,1,1.9,1.9C320.9,678.3,320.3,681.2,319.2,683.6z"/>
		<path class="st1" d="M261.4,648.6c-1.4-0.6-2.4-1.1-3-1.4l-0.3,0.6c0.6,0.4,0.9,0.5,1.3,0.8c0.6,0.5,0.7,0.9,0.5,1.8
			c-0.5,1.4-2.1,5.1-3.5,8h-0.1c-0.8-2.7-2.3-9-3-12c-0.2-0.8-0.3-1.2-0.3-1.6c-0.3-0.1-0.9-0.3-1.6-0.6c-1.3-0.6-2.6-1.2-3.4-1.6
			l-0.3,0.6l1.2,1c0.5,0.5,0.5,1.3,0.2,2c-1.8,4-3.8,8.4-4.5,9.5c-0.5,0.8-0.8,1-1.4,1l-1-0.2c-1.2-0.8-1.3-1.2-1.2-3.3
			c0.1-2.4,0.7-9.1,1-11.6l0.2-1.4l-1.1-0.5l-1.1-0.5l-1,1.2c-1.4,1.5-6.1,6.4-8.6,8.8c-1.2,1.1-1.6,1.2-3.3,0.7l-0.3,0.6
			c0.8,0.4,1.7,0.7,2.5,1c1.2,0.5,2.1,1,2.8,1.3l0.4-0.6l-1-0.7l-0.3-1.1c0.2-0.4,1.6-1.9,2.5-2.8l0.3-0.1c0.3,0.1,1.1,0.4,2,0.9
			c0.6,0.3,1.4,0.6,1.6,0.7l0.2,0.3c-0.1,1.1-0.2,3.1-0.4,4.1l-0.4,0.4l-1.3-0.2l-0.3,0.6c0.9,0.4,1.5,0.6,3.6,1.5
			c1.2,0.5,2,0.9,2.6,1.2v0l0.3,0.1l0.4,0.2l0,0c0.6,0.2,1.3,0.5,2.3,1c1.1,0.5,2.1,1,2.8,1.3l0.3-0.6l-1.2-0.8
			c-0.6-0.4-0.8-0.9-0.4-2c0.4-1,2.6-6.1,3.8-8.7l0.1,0c0.5,2.3,2.9,12.6,3.4,14.8l2.2,1c0.4-0.8,0.9-2.2,1.4-3.2
			c1.3-3,3.1-6.7,4.2-8.8c0.5-0.9,0.9-1.1,1.6-1l1,0.2l0.3-0.6C263.6,649.5,262.5,649.1,261.4,648.6z M237.9,647.6l-0.1,0.1
			c-0.3-0.1-0.9-0.4-1.7-0.7c-0.6-0.3-1.1-0.5-1.3-0.6l0-0.2c0.8-0.9,2.4-2.7,3.5-3.9l0.1,0C238.3,643.9,238,646.5,237.9,647.6z"/>
		<path class="st1" d="M373.2,704.2c-1-0.4-1.8-0.9-2.2-1l-0.3,0.6l0.9,0.7v1.1c-0.4,0.4-1.2,1.3-2.3,2l-0.2-0.1
			c-0.9-1.4-2-3.5-2.7-4.9l0-0.1c2.2-0.2,3.6-0.5,4.2-1.8c0.7-1.6-0.2-3.6-2.2-4.5c-2.4-1.1-4.9-0.2-5.8,1.9
			c-0.6,1.3-0.5,2.5-0.1,3.6l-0.1,0.1c-3.1,0.4-4,0.9-4.6,2.2c-1.2,2.6,0.2,5.2,2.8,6.3c1.7,0.8,3.5,0.7,5.7-0.2l0.1,0.1
			c0.7,1.1,1.1,2.1,1.8,3.3l0.5,1.2l0.4,0.2c0.5-0.2,2.6-1.5,2.9-2.1c-0.2-0.7-1.5-2.8-2.4-4.3l0-0.2c0.7-0.4,1.7-1.3,3.3-2.3
			l1.3-0.3l1,0.1l0.3-0.6C375.4,705.1,374.8,704.9,373.2,704.2z M366,709.3c-0.4,0.1-1.3,0.3-2.4-0.2c-2.1-0.9-3-3.3-2.3-5
			c0.3-0.7,0.8-1.3,1.5-1.6l0.1,0.1C363.8,704.6,365,707.2,366,709.3L366,709.3z M366.3,701.8l-0.1-0.1c-0.7-1.4-1-2.8-0.5-3.8
			c0.6-1.3,1.5-1.6,2.2-1.2c1,0.4,1.1,1.7,0.6,2.9C367.8,701,367,701.5,366.3,701.8z"/>
		<path class="st1" d="M599.7,633.5c-0.9-2.1-2.9-2.5-5.3-1.9l-0.1-0.1c1.6-1.3,2-2.9,1.4-4.2c-1.2-2.7-3.9-2.1-5.9-1.3
			c-0.6,0.3-2.3,1.1-4.1,1.9c-1.6,0.7-2.6,1.1-3.3,1.4l0.3,0.6l1.3-0.3c0.4,0,0.7,0.1,1.1,0.8c0.7,1.2,1.4,2.9,2.4,5.3
			c1.4,3.2,2.1,4.7,2.3,5.3c0.2,0.7,0.2,1-0.1,1.3c-0.3,0.3-0.6,0.5-1.3,0.9l0.3,0.6c1.6-0.7,5.4-2.3,6.5-2.7
			c1.4-0.6,2.8-1.5,3.7-2.5C600.1,637,600.5,635.4,599.7,633.5z M590.1,633.2c-0.7-1.6-1.7-3.9-2.1-4.8l0-0.4l0.4-0.3
			c2.1-0.9,3.6,0,4.4,1.7c0.4,1,0.4,1.8,0,2.5c-0.2,0.2-0.7,0.6-1.3,0.9l-1.2,0.5L590.1,633.2z M595.5,640c-0.2,0.1-1.1,0.3-1.8,0
			l-0.7-0.6c-0.6-1.2-1.6-3.5-2.3-5.2l0.1-0.2l0.8-0.4c2.2-1,4-0.2,4.9,1.8C597.3,637.8,596.9,639.3,595.5,640z"/>
		<path class="st1" d="M355.2,690.2c-1.7-0.8-3-1.3-4.5-1.9c-0.9-0.4-2.6-1.2-3.1-1.5l-0.3,0.6l1,0.7c0.4,0.3,0.4,0.7,0.2,1.4
			c-0.5,1.2-1.1,2.5-2.1,4.8c-0.6,1.4-2.2,4.9-2.6,5.6c-0.4,0.8-0.7,1-1.2,0.9l-1.1-0.3l-0.3,0.6c0.4,0.2,1.4,0.5,3.4,1.4
			c1.8,0.8,2.8,1.3,3.4,1.6l0.3-0.6l-1.1-0.7c-0.5-0.4-0.5-0.7-0.2-1.5c0.5-1.1,1.2-2.8,1.9-4.3l0.2-0.1l0.5,0.2l0.5,0.8
			c0.2,1.6,0.4,4.5,0.9,6l0.7,1.5c0.8,0.9,3,1.9,4.5,2.4l0.4-0.6c-1.1-0.6-1.2-0.8-1.6-1.9c-0.7-1.7-1.4-6.2-1.4-7.2l0.1-0.1
			c1.8,0.1,3.5-0.5,4.4-2.4C358.9,693.5,358,691.5,355.2,690.2z M354.4,695c-0.7,1.5-1.4,2-2.1,2c-0.6,0-1.7-0.3-2.7-0.9l-0.1-0.2
			c1.8-3.9,2.3-5.2,2.5-5.6l0.3-0.3l0.6,0.2C354.9,691.1,355.2,693.1,354.4,695z"/>
		<path class="st1" d="M507,679.3c-1.8,0.5-2,0.4-3.6-1.2c-1.7-1.7-6.2-6.6-8-8.5l-0.9-1.1l-1.1,0.6l-1.1,0.4l0.2,1.6
			c0.2,2,0.7,8.7,0.8,12.3c0,1.7-0.2,2-1.7,2.9l0.3,0.6c0.8-0.4,1.6-0.8,2.5-1.2c1.2-0.5,2.2-0.9,2.9-1.2l-0.2-0.7l-1.2,0.3
			c-0.7,0.1-0.9-0.2-1-0.5c-0.2-0.4-0.3-2.5-0.4-3.8l0.1-0.3c0.3-0.2,1-0.5,1.9-0.9c0.6-0.3,1.4-0.6,1.7-0.7l0.3,0.1
			c0.7,0.8,2.1,2.3,2.8,3l0,0.6l-1,0.8l0.3,0.6c0.9-0.4,1.4-0.7,3.5-1.6c1.6-0.7,2.8-1.1,3.3-1.4L507,679.3z M497.2,676.8
			c-0.2,0.1-0.9,0.4-1.7,0.7c-0.6,0.3-1.1,0.5-1.3,0.6l-0.1-0.1c-0.1-1.2-0.4-3.6-0.5-5.2l0.1,0c1,1.1,2.8,3.1,3.5,3.9L497.2,676.8z
			"/>
		<path class="st1" d="M214.5,632.8l0.8,0.3c0.5-1.2,1.6-3,2.2-3.7c-1-0.5-2.5-1.7-4.5-2.7c-2.2-1-3.6-1.2-5.1-1.3
			c-3.1-0.1-5.8,1.7-7.2,4.8c-2.3,5.3-0.3,9,4.9,11.3c2.1,1,4.8,1.4,5.9,1.5l0.3-0.4l-0.3-0.8c0.1-0.4,0.7-1.5,1-2.4
			c0.6-1.3,0.8-1.4,1.3-1.3l0.7,0.1l0.3-0.6c-0.5-0.2-1.2-0.4-2.9-1.2c-1.6-0.7-3.1-1.5-3.8-1.8l-0.3,0.7l1.3,0.8
			c0.6,0.5,0.6,0.9,0.2,1.8c-0.3,0.8-0.9,2.1-1.2,2.7l-0.7,0.5l-1-0.2c-3-1.3-3.8-5.1-1.8-9.5c2.2-4.8,5.1-5.2,7.3-4.3
			c1.3,0.6,2.3,1.3,2.8,2.4C215.1,630.3,215,631.2,214.5,632.8L214.5,632.8L214.5,632.8z"/>
		<path class="st1" d="M220.4,648L220.4,648c-4.2-1.8-4.7-4.5-4-6.9c0.5-1.8,2-5,3.6-8.5c0.3-0.7,0.2-1.2-0.2-1.6l-1-0.7l0.3-0.6
			c0.7,0.3,1.9,0.9,3.5,1.6c1.7,0.8,2.9,1.2,3.6,1.5l-0.3,0.6l-1.1-0.3c-0.6-0.1-1,0.2-1.4,0.9c-0.8,1.6-2,4.4-2.5,5.6
			c-0.5,1.1-0.9,2.1-1.1,3c-0.4,1.8,0.3,3.3,2.6,4.4c1.6,0.7,3.6,0.8,5.2-2.1c0.9-1.7,2.7-5.6,3.2-7.2c0.4-1,0.3-1.5-0.3-2l-1.1-0.7
			l0.3-0.6c0.8,0.3,1.6,0.8,2.7,1.3c1.6,0.7,2.1,0.9,2.7,1.1l-0.3,0.6l-1-0.2c-0.7-0.1-1,0.1-1.6,1.3c-0.4,0.8-2,4.3-2.8,5.8
			C227.1,649,224,649.6,220.4,648L220.4,648z"/>
		<path class="st1" d="M272.8,669.6l-0.3-0.8c0.1-0.4,0.7-1.6,1-2.4c0.6-1.3,0.8-1.4,1.3-1.3l0.7,0.1l0.3-0.6
			c-0.5-0.2-1.2-0.4-2.9-1.2c-1.6-0.7-3.1-1.5-3.8-1.8l-0.3,0.7l1.3,0.8c0.6,0.5,0.6,0.9,0.2,1.8c-0.3,0.8-0.9,2.1-1.2,2.7l-0.7,0.5
			l-1.1-0.2c-3-1.3-3.8-5.1-1.8-9.5c2.2-4.8,5.1-5.2,7.3-4.3c1.3,0.6,2.3,1.3,2.8,2.4c0.4,0.7,0.3,1.7-0.2,3.2l0.8,0.3
			c0.5-1.2,1.6-3,2.2-3.7c-1-0.6-2.5-1.7-4.5-2.7c-2.1-1-3.6-1.2-5.1-1.3c-3.1-0.1-5.8,1.7-7.2,4.8c-2.3,5.3-0.3,9,4.9,11.3
			c2.1,1,4.8,1.4,5.9,1.5L272.8,669.6L272.8,669.6L272.8,669.6z"/>
		<path class="st1" d="M285.6,676.2c0.8-0.6,2.4-2.7,2.9-3.4l-0.6-0.5c-1.3,1.1-2.4,1.9-3.2,2.1l-1.4-0.1c-2-0.9-4-1.8-4.3-2.1
			l0-0.2c2.3-1.6,11.4-8.4,13-9.5l0.1-0.5c-0.9-0.4-2.7-1.1-4-1.7l-4.8-2.1c-0.7-0.3-1.3-0.6-1.7-1l-0.5-0.3
			c-0.7,1.2-1.6,2.5-2.5,3.7l0.6,0.5c0.8-0.7,1.4-1.3,2-1.7l1.6-0.3c1,0.3,4,1.7,4.9,2.1l0,0.1c-1.5,1.3-11.2,8.2-13.4,9.4l-0.1,0.5
			c0.5,0.2,1.6,0.6,2.3,0.9c2,0.9,5,2.4,7.5,3.5C284.9,676.3,285.3,676.4,285.6,676.2L285.6,676.2L285.6,676.2z"/>
		<path class="st1" d="M302.4,682.9c-0.3-0.3-0.2-0.7,0.1-1.5c0.4-1.1,1.2-2.8,1.9-4.4c1.5-3.4,1.9-4.3,2.7-6
			c0.3-0.7,0.6-0.8,1.1-0.7l1.1,0.2l0.3-0.6c-0.6-0.3-1.4-0.5-3.2-1.3c-1.8-0.8-2.6-1.3-3.5-1.6l-0.3,0.6l1.1,0.7l0.2,1
			c-0.5,1.3-1.4,3.4-1.9,4.6l-0.2,0.1c-0.4-0.1-1.3-0.5-2.6-1.1c-2.7-1.2-2.9-1.3-3.1-1.5l-0.1-0.2c0.6-1.3,1.3-2.9,1.8-4.1
			c0.4-0.8,0.7-1,1.2-1l1.1,0.3l0.3-0.6c-0.7-0.3-1.6-0.6-3.4-1.4c-1.8-0.8-2.9-1.4-3.4-1.6l-0.3,0.6l1.1,0.7
			c0.4,0.4,0.4,0.7,0.1,1.5c-0.3,0.7-1.4,3.2-2.4,5.5c-0.9,2.1-1.9,4.2-2.1,4.6c-0.5,1.1-0.9,1.3-1.5,1.2l-1.1-0.3l-0.3,0.7
			c0.5,0.2,1.7,0.7,3.4,1.4c2,0.9,3.1,1.5,3.5,1.7l0.3-0.6l-1.1-0.8c-0.5-0.4-0.4-0.8-0.1-1.6c0.5-1.2,1.3-3,1.9-4.4l0.2-0.1
			c0.1,0,0.3,0.1,3.1,1.3c1,0.5,2.2,1,2.7,1.2l0.1,0.2c-0.7,1.5-1.5,3.4-2,4.5c-0.4,0.9-0.8,1.1-1.3,1l-1.1-0.3l-0.3,0.6
			c0.5,0.2,2.2,0.9,3.6,1.5c1.5,0.6,2.7,1.3,3.3,1.6l0.4-0.6C303,683.4,302.7,683.2,302.4,682.9L302.4,682.9L302.4,682.9z"/>
		<path class="st1" d="M337.8,692.5c0.7-1.5,2.4-5,2.8-5.8c0.6-1.1,0.9-1.3,1.6-1.2l1,0.2l0.3-0.6c-0.6-0.3-1.2-0.4-2.7-1.1
			c-1.1-0.5-1.9-0.9-2.7-1.3l-0.3,0.6l1.1,0.7c0.7,0.5,0.8,1,0.4,2c-0.6,1.6-2.3,5.5-3.2,7.2c-1.6,3-3.6,2.8-5.2,2.1
			c-2.3-1-3-2.6-2.6-4.4c0.2-0.9,0.6-2,1.1-3c0.5-1.2,1.7-4,2.5-5.6c0.3-0.7,0.8-1,1.4-0.9l1.1,0.3l0.3-0.6
			c-0.8-0.3-1.9-0.8-3.6-1.5c-1.6-0.7-2.7-1.3-3.5-1.6l-0.3,0.6l1,0.7c0.5,0.4,0.5,0.9,0.2,1.6c-1.5,3.5-3,6.7-3.6,8.5
			c-0.7,2.4-0.2,5,4,6.9C332.5,697.8,335.6,697.2,337.8,692.5L337.8,692.5L337.8,692.5z"/>
		<path class="st1" d="M390.7,706.1l0-0.2c-0.3-0.1-1.1-0.3-2.7-1l-5.2-2.3c-1.7-0.8-2.8-1.3-3.5-1.6l-0.3,0.6l1.1,0.8
			c0.5,0.3,0.6,0.5,0.2,1.4c-0.4,0.9-1,2.4-2.2,5.1c-0.6,1.4-2.2,4.8-2.5,5.4c-0.3,0.7-0.6,1-1.2,0.8l-1.1-0.3l-0.3,0.6
			c1.4,0.6,2.4,1,3.7,1.5c1.3,0.6,2.2,1.1,3.5,1.6l0.4-0.6l-1.2-0.8c-0.5-0.3-0.6-0.7-0.2-1.7c0.6-1.3,1.1-2.6,1.8-4.1l0.2-0.1
			c0.7,0.3,2.8,1.3,3.3,1.6c0.3,0.2,0.6,0.4,0.5,1l-0.2,1.2l0.7,0.2c0.3-0.7,0.7-1.6,1-2.3c0.4-0.9,0.9-1.8,1.2-2.4l-0.7-0.3l-0.8,1
			c-0.3,0.4-0.7,0.4-1.4,0.2c-0.8-0.3-2.5-1-3.2-1.3l-0.1-0.2c0.9-1.9,1.8-4,2.3-5.1l0.4-0.3c0.4,0.1,2.7,1.1,3.4,1.5l0.7,1
			c0.1,0.6-0.1,1.3-0.3,2.3l0.7,0.3C389.5,707.9,390.2,706.7,390.7,706.1L390.7,706.1L390.7,706.1z"/>
		<path class="st1" d="M421.1,712.7l0.7-0.4c-0.3-0.7-0.7-1.6-1.1-2.3c-0.4-0.9-0.8-1.8-1-2.5l-0.7,0.3l0.2,1.3
			c0,0.5-0.1,0.8-0.8,1.1c-0.7,0.4-2.4,1.1-3.1,1.4l-0.2-0.1c-0.8-1.9-1.8-4-2.2-5.2l0.1-0.5c0.4-0.3,2.7-1.2,3.3-1.5l1.2,0.1
			c0.5,0.4,1,0.9,1.5,1.8l0.7-0.3c-0.7-1.7-1.1-3-1.2-3.8l-0.2-0.1c-0.3,0.2-1,0.6-2.6,1.3l-5.2,2.3c-1.7,0.7-2.9,1.2-3.5,1.5
			l0.2,0.7l1.3-0.3c0.5-0.1,0.8-0.1,1.2,0.8c0.5,0.9,1.1,2.4,2.3,5.1c0.6,1.4,2.1,4.9,2.3,5.4c0.3,0.7,0.3,1.1-0.2,1.5l-1,0.6
			l0.3,0.6c1.4-0.6,2.4-1.1,3.6-1.7c1.3-0.6,2.3-0.9,3.5-1.5l-0.2-0.7l-1.4,0.4c-0.6,0.1-0.9,0-1.4-1c-0.6-1.3-1.2-2.6-1.9-4.1
			l0.1-0.2c0.7-0.3,2.8-1.2,3.4-1.4l1.1,0.3L421.1,712.7L421.1,712.7L421.1,712.7z"/>
		<path class="st1" d="M469.4,696.7c1.5-0.7,2.7-1.1,3.6-1.5l-0.2-0.6c-0.8,0.2-1,0.3-1.5,0.3l-1.2-0.8c-0.8-1.5-3.5-7.8-5-11.1
			l0-0.2c0.2-0.1,1.9-0.9,2.6-1.1l1.3,0.3c0.5,0.4,0.9,1.1,1.4,1.8l0.7-0.3c-0.6-1.5-1.1-3.3-1.2-4.2l-0.2-0.1
			c-0.6,0.5-1.2,0.9-2.4,1.4l-8.4,3.7c-0.6,0.3-1.4,0.6-2.3,0.6l-0.1,0.2c0.4,1,1.1,3,1.3,4l0.8-0.1c-0.1-0.8-0.1-1.7,0-2.4
			c0.1-0.6,0.3-1,0.8-1.3l2.4-1.1l0.2,0.1c1.6,3.6,3.8,8.4,4.7,10.8c0.4,1.1,0.4,1.5-0.2,1.9l-1.4,0.9l0.3,0.6
			C466.1,698.2,467.2,697.7,469.4,696.7L469.4,696.7L469.4,696.7z"/>
		<path class="st1" d="M518.6,674.6c0.1-1.1-0.3-4.1-0.5-4.8l-0.7,0.1c0,1.2-0.2,2.8-0.4,3.6c-0.2,0.8-0.6,1-1,1.3
			c-1,0.5-2.4,1-3,1.2l-0.8-0.5c-0.3-0.6-1.7-3.6-2.7-6c-1-2.3-1.8-4.2-1.9-4.5c-0.2-0.7-0.3-0.9,0.1-1.3l0.9-0.7l-0.3-0.6
			c-0.7,0.4-1.7,0.8-3.3,1.6c-2,0.9-2.5,1-3.4,1.4l0.3,0.6l1.2-0.3c0.7-0.1,0.9,0.3,1.1,0.7c0.5,0.9,1,2.2,2.2,4.9
			c1.3,2.9,2.3,5.3,2.5,5.9c0.2,0.6,0.2,1-0.2,1.3c-0.3,0.3-0.5,0.4-1.2,0.8l0.3,0.6c1-0.5,1.9-0.9,3.5-1.6c1.8-0.8,4.1-1.7,6-2.6
			C518.3,675,518.6,674.8,518.6,674.6L518.6,674.6L518.6,674.6z"/>
		<path class="st1" d="M532,668.6c0.1-1.1-0.3-4.1-0.5-4.8l-0.7,0.1c0,1.2-0.2,2.8-0.4,3.6c-0.2,0.8-0.6,1.1-1,1.2
			c-1,0.5-2.4,1-3,1.2l-0.8-0.5c-0.3-0.6-1.7-3.6-2.7-6c-1-2.3-1.8-4.1-1.9-4.5c-0.2-0.7-0.3-0.9,0.1-1.3l0.9-0.7l-0.3-0.6
			c-0.7,0.4-1.7,0.8-3.3,1.6c-2,0.9-2.5,1-3.4,1.4l0.3,0.6l1.2-0.3c0.7-0.1,0.9,0.2,1.1,0.7c0.5,0.9,1,2.2,2.2,4.9
			c1.3,2.9,2.3,5.3,2.5,5.9c0.2,0.6,0.2,1-0.2,1.3c-0.3,0.3-0.5,0.4-1.2,0.8l0.3,0.6c1-0.5,1.9-0.9,3.5-1.6c1.8-0.8,4.1-1.7,6-2.5
			C531.8,669.1,532,668.9,532,668.6L532,668.6L532,668.6z"/>
		<path class="st1" d="M555.8,658.2c0.5-0.8,0.5-3.1,0.4-4.1l-0.7-0.1c-0.1,1.1-0.3,2.3-0.7,3.1c-0.5,1-1.4,1.6-2.1,1.9
			c-3.7,1.7-6.7-1-8.3-4.5c-2-4.4-1-7.2,1.5-8.3c0.9-0.4,2-0.8,3.1-0.6c1.2,0.1,1.9,1.1,2.6,2.2l0.7-0.4c-0.5-1.2-1.1-3.3-1.3-4
			c-1.2,0.5-3.2,1-4.9,1.7c-2,0.9-3.4,1.9-4.4,3.2c-2,2.4-2.1,5.5-1,8.1c2.3,5.1,6.5,6.4,11.7,4
			C554.2,659.5,555.1,658.7,555.8,658.2L555.8,658.2L555.8,658.2z"/>
		<path class="st1" d="M570,651.7c0.2-1.1-0.3-4.1-0.5-4.8l-0.8,0.1c0,1.2-0.2,2.8-0.4,3.6c-0.2,0.8-0.6,1.1-1,1.2
			c-1,0.5-2.4,1.1-3,1.2l-0.8-0.5c-0.3-0.6-1.7-3.6-2.7-6c-1-2.3-1.8-4.1-1.9-4.5c-0.2-0.7-0.3-0.9,0.1-1.3l1-0.7l-0.3-0.6
			c-0.7,0.4-1.7,0.8-3.4,1.6c-2,0.9-2.5,1-3.4,1.4l0.3,0.6l1.2-0.3c0.7-0.1,0.9,0.3,1.1,0.7c0.5,0.9,1,2.2,2.2,4.9
			c1.3,2.9,2.3,5.3,2.5,5.9c0.2,0.6,0.2,1-0.2,1.3c-0.3,0.3-0.5,0.4-1.2,0.8l0.3,0.6c1-0.4,1.9-0.9,3.5-1.6c1.8-0.8,4.1-1.7,6-2.5
			C569.8,652.2,570,652,570,651.7L570,651.7L570,651.7z"/>
		<path class="st1" d="M572.1,646.5c1.3,2.1,3.6,3.5,7.8,1.6c3.6-1.6,5.2-4.3,3.2-9.1c-0.6-1.6-2.1-5.1-2.4-6
			c-0.4-1.2-0.4-1.6,0.1-2l0.9-0.6l-0.3-0.6c-0.6,0.3-1.1,0.6-2.7,1.3c-1.1,0.5-2,0.8-2.8,1.1l0.3,0.6l1.3-0.3
			c0.8-0.2,1.2,0.1,1.7,1.1c0.8,1.5,2.6,5.4,3.2,7.2c1.1,3.2-0.3,4.6-1.9,5.3c-2.3,1-3.9,0.5-5-1c-0.5-0.7-1-1.8-1.5-2.8
			c-0.5-1.2-1.8-4-2.5-5.6c-0.3-0.8-0.2-1.3,0.3-1.6l0.9-0.6l-0.3-0.6c-0.8,0.3-1.9,0.9-3.6,1.7c-1.6,0.7-2.8,1.2-3.5,1.5l0.3,0.6
			l1.2-0.3c0.6-0.1,1,0.2,1.3,0.8C569.7,641.6,571.1,644.9,572.1,646.5L572.1,646.5L572.1,646.5z"/>
		<polygon class="st1" points="547.1,690.9 547.1,690.9 547.1,690.8 547.1,690.9 		"/>
		<polygon class="st1" points="252.7,690.8 252.7,690.8 252.7,690.9 		"/>
	</g>
	<polygon class="st2" points="399.9,365.1 614.1,459.9 614.1,448.4 399.9,353.5 185.7,448.4 185.7,459.9 	"/>
	<polygon class="st2" points="399.9,341 614.1,435.9 614.1,424.4 399.9,329.5 185.7,424.3 185.7,435.8 	"/>
	<polygon class="st2" points="399.9,317 614.1,411.9 614.1,400.3 399.9,305.5 185.7,400.3 185.7,411.8 	"/>
	<path class="st2" d="M626,607.3v55.9l-70.7,31.5c0,0,0.3,11,14.3,9.5c14-1.5,71.6-18,122.6,13.5c0,0-7.5-25.8-42.5-54.9
		c23-26.1,54.1-20.1,54.1-20.1S684.9,612,626,607.3z"/>
	<path class="st2" d="M173.6,607.3v55.9l70.7,31.5c0,0-0.3,11-14.3,9.5c-14-1.5-71.6-18-122.6,13.5c0,0,7.5-25.8,42.5-54.9
		c-23-26.1-54.1-20.1-54.1-20.1S114.7,612,173.6,607.3z"/>
	<path class="st2" d="M305.5,199.3c0,0,4.8,1.6,5.7-8.2h6.5l13.2-14l2.5-13c0,0-0.2-0.3-0.6-0.8c-1.9,0.5-7.6,2-11.4,2.1
		c-7.3,0.1,5.4-2.9,9.5-3.9c-3.3-2.6-9.9-5.7-20.1-1.3c-11,5.5-11,15.7-11,17.7s-19.4,12.8-24,15.3c-4.7,2.5-13.5-3.7-14.8-4.3
		c-1.3-0.7-0.2-1,3.7-0.5c3.8,0.5,2.7-4.3-16.8-7.8c-9.8-1.8-3.9-4.5-0.1-4.3c0,2.3,4.9,3.2,6.5-1.3c1.6-4.5-0.9-5.8-3.3-5.8
		s-3.3,2-3.3,2h-0.8L246,171l-0.3-0.9h-5.2c0,0-4.7-9,7.2-7.4l0.9,0.3l-0.4-1.7c0,0-1.8-1.6,8.3-1.2c3.8-0.1,0.8-7.6,3.2-9.8
		c2.4-2.3-1.7-7.4-17.9-11.9c-3.6-1-6.4-4-10.1-4.1c-3.3-0.1-2.5-10.4-15.4-11.4c-2-0.2-3.7-0.3-5.4-0.4c0.9,2.2,2.6,4.8,5.6,5.8
		c5.8,2,6.7,5.5,7,7c-0.4,0.9-1.4,0-1.4,0s-1.4-4.3-6.4-5.2c-4.7-0.8-6.3-5.1-7.1-7.8c-7.9-0.3-12.6,0.4-17.3,4.3
		c-2.4,1.9-5.3-2.6-5.3-2.6s-5.3,5.6,5.4,13.1c2.6,2.3,1.4,2.9-4.8-1.9c-4-3.3-3.6-4.5-8.3,0.9c-4.6,5.4-6.4,9.3-6.4,10.4
		s1.9,2,8.8-1.9s8.5-1.8,0.4,2.1c-5.4,2.5-10.8,6.1-12,7.6c-1.3,1.5-2.3,1.9-2.9,2.1s3.6,3.5,9.6-2.5c6-6,2.5-0.6-1.6,3.3
		c-4.1,3.9-5.1,6.9-4.3,9.3s0.5-1.9,4.6-4.1c4.1-2.3,9.1-3.8,10.8-7.4c1.6-3.6,1.5-2.8,1.5-0.8c0,2-1.9,4.6-8.3,9s-6.5,8.6-4.5,13.3
		c2,4.6,4.1,6,3.6,10.9c-0.5,4.9-2.6,4.1-2.6,4.1s2.5,5.3,8.6,5.5c0,0,1.5-7.7-1.2-13.1c0,0,4.3-2,3.8,12.8c0,0,5.5,4.8,5.5,15.8
		c0,0,3.8,1.5,5-3c1.3-4.5,0.5-8.8-5.3-18.3c-5.8-9.5,5.4,5.9,5.4,5.9s4.6,5.6,2,13c-1.1,4.3-1.1,7.1-1.1,7.1s5-0.5,4.7,6.2
		c-0.1,2.7-0.3,5.7-0.3,8.3l1.4-1.2c0,0,2.3-0.9,0.8,1.5c-0.5,0.7-1.2,1.5-1.9,2.3c0.4,2.5,1.3,4.3,3.2,4.3
		c4.3,0.2,9.7-3.7,8.2-14.2c-1.3-7.8-6-5.5-7.2-23c0,0,1.8,13.3,7.8,19.9c4.8,5.7-1.2,18.2-6.5,21l-0.5,5.2c0,0-17.9,14-21,19.9
		c-3.2,5.8-2,12.2-2,12.2s-5.8,8.2-12.8,2.7c-7-5.5-1.8-15,1.3-18.7c3.2-3.7,17-22.2,19.2-33c2.2-10.8-3.3-28-19.4-29.9
		c-16-1.8-20.5,1.8-23.2,6.5c-2.7,4.7,3.2,6.8-5.8,12.3c-2.5,1.8,3.7,3,8.7-4.2l1-1.2l0.3,2c0,0-2.2,5.5-11.3,7.3
		c-4.2,1,3.5,6.3,12.8,5.2c9.3-1.2,18.5-5.3,17-21.5c0,0,19.7,2.8,12,24.2c-5.5,15.5-19,29.5-21.2,32.5c-2.2,3-11.3,21.7,4.3,30.4
		c9.2,4.5,18.4,0,18.4,0s1.3,8.5,6.5,15.2c2.5,2.8,2,26-6.5,36.7c-6.7,7.2-5.3,11.7-4.7,16.7c0.7,5,4.3,2.3,3.2,10.7
		c-2,0.2-2.7,3.7,0.3,5.5s1.8,9.7,3.3,12.5c1.5,2.8,3.1,6.5,3.1,6.5l5.1-2.2l-0.3-0.9c0,0,0.1-2.6,2.1,0.1l23.2-10.3
		c0,0-2.8,0.8-8.5-4.9c-5.7-5.7-8.8-5.7-10.5-5.5c0,0-1.2-4.3-2-7.3s1.4-9.6,22.5-28.8c9.4-9.4,6.1-23.8,6.1-23.8s10.1-8.6,12.5-11
		c2.4-2.4,6.5-1.5,6.5,0.7c0,2.2,0.3,19.7,3.5,22.2c0.7,1.8-7.5,3.3-7.6,8.2c0,2.8,0.1,5.3,0.1,5.3s14.6,4.1,16.9,10.5
		c0,0,20.3,1.1,26.4,5.3l18.2-8.1c-4.1-6.8-12.5-6.1-12.5-6.1s0.3-2.8,6.5-2c4.2,0.6,7.1,4.5,8.5,7l5.4-2.4c0,0,1.6-13.5-13-13.6
		c-8,0-10.4,3.1-10.4,3.1h-10.1c0,0-18.3-4.1-7.3-25.3c9.5-21.9,1.1-34.3-2.8-36.4c-3.9-2.1-15.4-4.6-23.1,1.3
		c0,0,6.1-8.3,11.1-10.8c5-2.5,7.9-4.6,9.2-6.9c0,0,8.2,0.2,18.7-1.4c-0.9-1.3-1.9-2.8-2.6-4.3c-2.1-4.5,1.3-1.2,1.3-1.2l3.9,5.1
		c4.5-0.8,9.2-1.8,13.9-3.3c5.3-2,4.5-5.2-5.3-6.8c-3-0.8,0.5-4.1,7.8,0c4.1,2.5,4.6,4.9,4.6,4.9s5.4,0.3,8.4-2s0.3-26.2,0.3-26.2
		h-4.6c0,0-6.6-2.6-13.1,5.1c-3.1,3.1-10.9,3.1-10.9,3.1s-9.1,1.1-12.1,2.5s-0.3-4.5,1.9-4.8s1.4-1.6,0.1-4s2.4,1.3,3.6,1
		s-0.1-2.6-2.5-4.5c-1.1-0.9-0.1-1.1,3.6-0.4c1.6,0.3,3.9-3.5,5-5.8c1.2-2.3,2.3,0.2,4.8-1.3s11.8-5.8,10.5-14.8h0.6L305.5,199.3z
		 M322,171.3l1.8-0.9l1.5-0.8h1.2h1.4l0.3,0.7l-0.2,0.8l-1.4,0.3l-1.5,0.3l-1.3,0.6l-1.8,0.3V171.3z M318.8,179.8l0.7-0.3h1l1.1,0.6
		l0.2,0.8v0.8c0,0-0.7,0.5-1,0.5c-0.3,0-0.9,0.2-1.3,0.1c-0.3-0.1-0.5-0.8-0.5-0.8l-0.8-1.1L318.8,179.8z M199.3,141.9
		c-4.1,3.4-7.9,7.4-5.4,9.8s5,2.8,5,2.8s-13.4,0.6-6-10c7.4-10.6,14.9-4.9,16.6-1.6C209.6,142.8,203.5,138.6,199.3,141.9z
		 M208.9,164.2c0,0-1.7,7.8-2.7,4.8c-6.2-20.2,11.2-24.4,11.2-24.4c-11.8,8.7-9.7,16.8-9.7,16.8l5.5-3.8c-6.2,7.8,6,19.7,6,19.7
		C211.1,173.6,208.9,164.2,208.9,164.2z M247.4,146.1c0,0,1.3,1.1,4.7,1.1c3.4,0,4.4,1.8,4.5,2.5v1.3c0,0-1-0.8-4.7-1.3
		c-3.7-0.4-4.6-2-5.1-2.8C246.4,146,247.4,146.1,247.4,146.1z M242.3,153.2h4.3v2h-4.3V153.2z M235.8,149.2c-0.7-1.7-2.2-2.3-4-2.3
		s-6-3.2-2-3c5.2,0.2,1.2-3.3,1.2-3.3c6,1.2,3.2,4.3,3.2,4.3C237,146.9,235.8,149.2,235.8,149.2z M237.8,158
		c-1.5-1.6,0.7-1.3,0.7-1.3s5.7,2.5,9.5,0.3c3.8-2.2,0.3,1.8,0.3,1.8S241.4,162.4,237.8,158z M314.7,236.4l-6.4,0.3v-1.3l3-0.9
		l2.3-0.4h1.1V236.4z M311.7,223.8h0.9l0.9,0.3l0.4,1.4l-0.5,1l-3.8,0.7h-1.5l-0.4-0.7L311.7,223.8z"/>
	<path class="st2" d="M495.5,196.1h0.6c-1.3,9,8,13.3,10.5,14.8s3.7-1,4.8,1.3c1.2,2.3,3.4,6.1,5,5.8c3.7-0.6,4.6-0.4,3.6,0.4
		c-2.4,1.9-3.8,4.3-2.5,4.5s4.9-3.4,3.6-1c-1.3,2.4-2,3.8,0.1,4c2.1,0.3,4.9,6.1,1.9,4.8c-3-1.4-12.1-2.5-12.1-2.5s-7.8,0-10.9-3.1
		c-6.5-7.8-13.1-5.1-13.1-5.1h-4.6c0,0-2.8,23.9,0.3,26.2s8.4,2,8.4,2s0.5-2.4,4.6-4.9c7.3-4.1,10.8-0.8,7.8,0
		c-9.8,1.6-10.6,4.9-5.3,6.8c4.7,1.5,9.5,2.6,13.9,3.3l3.9-5.1c0,0,3.3-3.3,1.3,1.2c-0.7,1.5-1.6,3-2.6,4.3
		c10.5,1.5,18.7,1.4,18.7,1.4c1.3,2.3,4.2,4.4,9.2,6.9s11.1,10.8,11.1,10.8c-7.8-5.9-19.3-3.4-23.1-1.3s-12.3,14.5-2.8,36.4
		c11,21.1-7.3,25.3-7.3,25.3h-10.1c0,0-2.4-3.1-10.4-3.1c-14.6,0.1-13,13.6-13,13.6l5.4,2.4c1.4-2.5,4.3-6.5,8.5-7
		c6.2-0.8,6.5,2,6.5,2s-8.4-0.6-12.5,6.1l18.2,8.1c6.1-4.2,26.4-5.3,26.4-5.3c2.3-6.4,16.9-10.5,16.9-10.5s0.1-2.5,0.1-5.3
		c-0.1-4.9-8.3-6.3-7.6-8.2c3.2-2.5,3.5-20,3.5-22.2c0-2.2,4.1-3.1,6.5-0.7s12.5,11,12.5,11s-3.3,14.3,6.1,23.8
		c21.1,19.1,23.3,25.8,22.5,28.8s-2,7.3-2,7.3c-1.7-0.2-4.8-0.2-10.5,5.5c-5.7,5.7-8.5,4.9-8.5,4.9l23.2,10.3c2-2.7,2.1-0.1,2.1-0.1
		l-0.3,0.9l5.1,2.2c0,0,1.6-3.7,3.1-6.5c1.5-2.8,0.3-10.7,3.3-12.5s2.3-5.3,0.3-5.5c-1.2-8.3,2.5-5.7,3.2-10.7c0.7-5,2-9.5-4.7-16.7
		c-8.5-10.7-9-33.9-6.5-36.7c5.2-6.7,6.5-15.2,6.5-15.2s9.2,4.5,18.4,0c15.7-8.7,6.5-27.4,4.3-30.4c-2.2-3-15.7-17-21.2-32.5
		c-7.7-21.4,12-24.2,12-24.2c-1.5,16.2,7.7,20.4,17,21.5c9.3,1.2,17-4.2,12.8-5.2c-9.2-1.8-11.3-7.3-11.3-7.3l0.3-2l1,1.2
		c5,7.2,11.2,6,8.7,4.2c-9-5.5-3.2-7.7-5.8-12.3c-2.7-4.7-7.2-8.3-23.2-6.5c-16,1.8-21.5,19-19.4,29.9c2.2,10.8,16,29.4,19.2,33
		c3.2,3.7,8.3,13.2,1.3,18.7s-12.8-2.7-12.8-2.7s1.2-6.3-2-12.2c-3.2-5.8-21-19.9-21-19.9l-0.5-5.2c-5.3-2.8-11.3-15.3-6.5-21
		c6-6.5,7.8-19.9,7.8-19.9c-1.2,17.5-5.8,15.2-7.2,23c-1.5,10.5,3.8,14.3,8.2,14.2c2-0.1,2.9-1.8,3.2-4.3c-0.7-0.7-1.4-1.5-1.9-2.3
		c-1.5-2.4,0.8-1.5,0.8-1.5l1.4,1.2c0.1-2.6-0.1-5.6-0.3-8.3c-0.3-6.7,4.7-6.2,4.7-6.2s0-2.8-1.1-7.1c-2.6-7.4,2-13,2-13
		s11.1-15.4,5.4-5.9c-5.8,9.5-6.5,13.8-5.3,18.3c1.3,4.5,5,3,5,3c0-11,5.5-15.8,5.5-15.8c-0.5-14.8,3.8-12.8,3.8-12.8
		c-2.8,5.4-1.2,13.1-1.2,13.1c6.1-0.2,8.6-5.5,8.6-5.5s-2.1,0.8-2.6-4.1c-0.5-4.9,1.6-6.3,3.6-10.9c2-4.6,1.9-8.9-4.5-13.3
		s-8.3-7-8.3-9c0-2-0.1-2.9,1.5,0.8c1.6,3.6,6.6,5.1,10.8,7.4s3.8,6.5,4.6,4.1s-0.1-5.4-4.3-9.3c-4.1-3.9-7.6-9.3-1.6-3.3
		c6,6,10.3,2.8,9.6,2.5s-1.6-0.6-2.9-2.1c-1.3-1.5-6.6-5.1-12-7.6c-8.1-3.9-6.5-6,0.4-2.1s8.8,3,8.8,1.9s-1.8-5-6.4-10.4
		c-4.6-5.4-4.3-4.1-8.3-0.9c-6.1,4.8-7.4,4.1-4.8,1.9c10.8-7.5,5.4-13.1,5.4-13.1s-2.9,4.5-5.3,2.6c-4.7-3.9-9.4-4.6-17.3-4.3
		c-0.8,2.7-2.4,6.9-7.1,7.8c-5,0.9-6.4,5.2-6.4,5.2s-1.1,0.9-1.4,0c0.3-1.5,1.2-5,7-7c3-1,4.7-3.6,5.6-5.8c-1.7,0.1-3.5,0.2-5.4,0.4
		c-12.8,1-12.1,11.3-15.4,11.4c-3.8,0.1-6.5,3.1-10.1,4.1c-16.3,4.5-20.4,9.7-17.9,11.9c2.4,2.3-0.7,9.8,3.2,9.8
		c10.1-0.4,8.3,1.2,8.3,1.2l-0.4,1.7l0.9-0.3c11.9-1.6,7.2,7.4,7.2,7.4h-5.2l-0.3,0.9l-0.7,0.2h-0.8c0,0-1-2-3.3-2s-4.9,1.3-3.3,5.8
		c1.6,4.5,6.5,3.7,6.5,1.3c3.8-0.2,9.8,2.4-0.1,4.3c-19.5,3.5-20.7,8.3-16.8,7.8s5-0.2,3.7,0.5c-1.3,0.7-10.2,6.8-14.8,4.3
		s-24-13.3-24-15.3s0-12.2-11-17.7c-10.2-4.4-16.8-1.3-20.1,1.3c4,0.9,16.8,4,9.5,3.9c-3.8-0.1-9.5-1.6-11.4-2.1
		c-0.4,0.5-0.6,0.8-0.6,0.8l2.5,13l13.2,14h6.5c0.8,9.8,5.7,8.2,5.7,8.2L495.5,196.1z M478.1,172.5l-1.8-0.3l-1.3-0.6l-1.5-0.3
		l-1.4-0.3l-0.2-0.8l0.3-0.7h1.4h1.2l1.5,0.8l1.8,0.9V172.5z M481.9,180.3l-0.8,1.1c0,0-0.2,0.8-0.5,0.8c-0.3,0.1-0.9-0.1-1.3-0.1
		c-0.3,0-1-0.5-1-0.5v-0.8l0.2-0.8l1.1-0.6h1l0.7,0.3L481.9,180.3z M590.5,142.8c1.8-3.3,9.3-9,16.6,1.6s-6,10-6,10s2.5-0.4,5-2.8
		s-1.3-6.4-5.4-9.8S590.5,142.8,590.5,142.8z M580.9,177.4c0,0,12.2-11.8,6-19.7l5.5,3.8c0,0,2.2-8.2-9.7-16.8
		c0,0,17.4,4.2,11.2,24.4c-1,3-2.7-4.8-2.7-4.8S589,173.6,580.9,177.4z M553.3,146.9c-0.5,0.8-1.4,2.4-5.1,2.8
		c-3.7,0.4-4.7,1.3-4.7,1.3v-1.3c0.1-0.7,1.1-2.5,4.5-2.5c3.4,0,4.7-1.1,4.7-1.1S553.8,146,553.3,146.9z M557.8,155.2h-4.3v-2h4.3
		V155.2z M566,144.9c0,0-2.8-3.1,3.2-4.3c0,0-4,3.5,1.2,3.3c4-0.2-0.2,3-2,3s-3.3,0.7-4,2.3C564.3,149.2,563.1,146.9,566,144.9z
		 M551.8,158.9c0,0-3.5-4,0.3-1.8c3.8,2.2,9.5-0.3,9.5-0.3s2.2-0.3,0.7,1.3C558.7,162.4,551.8,158.9,551.8,158.9z M485.4,234.2h1.1
		l2.3,0.4l3,0.9v1.3l-6.4-0.3V234.2z M492.4,226.4l-0.4,0.7h-1.5l-3.8-0.7l-0.5-1l0.4-1.4l0.9-0.3h0.9L492.4,226.4z"/>
	<path class="st0" d="M494.7,74.1c-36.4,7.2-40.2,32-40.2,32c12.6-1.2,8,13.2-3.7,10.2c-10.6-2.7-9.5-13.6-9.2-15.7
		c4.5-0.8,7.9-4.7,7.9-9.4c0-5.3-4.3-9.6-9.6-9.6c-5.3,0-9.6,4.3-9.6,9.6c0,3.6,2,6.7,4.9,8.4c-4.9,14.2-13.9,13.7-17.8,13.7
		c-3.8,0-13.2-4.5-10.2-11.3c4.2-6.3,12-0.8,12-0.8c-2.3-35.7-19.4-51.9-19.4-51.9s-17,16.2-19.4,51.9c0,0,7.8-5.5,12,0.8
		c3,6.8-6.3,11.3-10.2,11.3c-3.8,0-12.9,0.5-17.8-13.7c2.9-1.6,4.9-4.8,4.9-8.4c0-5.3-4.3-9.6-9.6-9.6c-5.3,0-9.6,4.3-9.6,9.6
		c0,4.7,3.4,8.6,7.9,9.4c0.3,2.1,1.3,13-9.2,15.7c-11.7,3-16.3-11.4-3.7-10.2c0,0-3.8-24.9-40.2-32C301,73.3,318,89.3,325.7,102
		c7.7,12.7,9,16.7,10.2,19.7c1.2,3,17.2,17.2,28.5-5.8c0,0,14.8,17.9,35.5-5.7c20.7,23.5,35.5,5.7,35.5,5.7
		c11.3,23,27.4,8.8,28.5,5.8c1.2-3,2.5-7,10.2-19.7C481.8,89.3,498.8,73.3,494.7,74.1z"/>
	<g>
		<path class="st2" d="M399.9,131c-48.4,0-87.6,39.2-87.6,87.6c0,48.4,39.2,87.6,87.6,87.6c48.4,0,87.6-39.2,87.6-87.6
			C487.5,170.2,448.3,131,399.9,131z M375.5,292.2l14.1-6.2l-19.4-28l-31.9-7.7v15.4c-9.8-12.8-15.8-28.8-16-46.1l10.2,11l20-25.7
			v-33.4l-17.2,4.2c9.8-14.7,24.4-25.9,41.6-31.2l0,0l-8.3,13l31.4,12l31.7-12.5l-8.1-12.3c16.8,5.4,31.2,16.4,40.9,30.8l-16.3-4
			v33.4l20,25.7l9.4-10.2c-0.4,16.7-6.1,32.1-15.5,44.6v-14.8l-31.9,7.7l-19.4,28l13.9,6.1c-7.8,2.6-16.1,4.1-24.7,4.1
			C391.4,296.2,383.2,294.8,375.5,292.2z"/>
		<polygon class="st2" points="431.1,208.9 399.9,184.9 368.7,208.9 380.7,244.6 399.9,244.6 419.1,244.6 		"/>
	</g>
</g>
</svg>
