<?xml version="1.0" encoding="utf-8"?>
<!-- Generator: Adobe Illustrator 22.1.0, SVG Export Plug-In . SVG Version: 6.00 Build 0)  -->
<svg version="1.1" id="图层_1" xmlns="http://www.w3.org/2000/svg" xmlns:xlink="http://www.w3.org/1999/xlink" x="0px" y="0px"
	 viewBox="0 0 800 800" style="enable-background:new 0 0 800 800;" xml:space="preserve">
<style type="text/css">
	.st0{fill:#0067AC;}
</style>
<g>
	<path class="st0" d="M146.6,289.3c0.6-3.8,4.6-9.8,4.6-9.8c-22.5,0-27,29.5-27,29.5C141.8,307.7,145.8,294.3,146.6,289.3z"/>
	<path class="st0" d="M104.3,363.9l-2.5,2.8v2.4c0,0,1.6,2.8,3.6,2.5s3.1-5.5,3.1-5.5v-7.4c0,0,2.4,3.6,18-7.4
		c18.1-12,13-24.6,13-24.6s-0.8,2.8-4.4,4c-6.8,1.9-19.3,8.9-19.3,8.9v-10c36.2-5.5,31-22.5,31-22.5s-2.6,3.5-6.3,3.5
		c-11.8-0.3-19.4,6.5-19.4,6.5c1.1-4.1,0.3-11.8-2.8-15.9s-2-10-2-10c-15.5,8.1-5.3,31.7-5.3,31.7v13.8l-0.6,0.9
		c-2.4-7.6-7.5-12.6-9.4-15.1s-2.8-8.6-2.8-8.6c-15.4,21.1,5.8,45.1,5.8,45.1V363.9z"/>
	<path class="st0" d="M106.6,432c0.8,5.3,4.3,11,4.3,11l2.3,0.3l1.5-1.8l-0.5-2.2c-2.3-2.7-1.7-8.5-1.7-8.5s5.2-3,11.7-13
		c12.8-19.5,2.7-31,2.7-31s0.3,5-5.7,10.2c-8.7,6.8-12.3,17.5-12.3,17.5c-3.2-7.2-2-17.8-2-17.8s3.8,0.1,15.5-12.1
		c15.1-14.3,8.9-29.3,8.9-29.3s-1.3,4.9-9.8,9.8c-11.7,6.3-16,15-16,15c-1.7-7.2-11-17-14.5-19.4s-5.7-8.5-5.7-8.5
		c-10.2,23,15,42.9,16.3,45c-0.2,5.8,0.5,10.5,0.5,10.5c-7.5-2.7-20.2-14.7-20.2-14.7C80.1,422.1,106.6,432,106.6,432z"/>
	<path class="st0" d="M121.1,471.3c1.2,3.2,3,7.2,3,7.2l2,0.8l1.7-1l0.7-1.3l-4.3-9.2c0,0-1.7-5.3,1.3-8.7c3-3.3,9-13,10.2-22.2
		c1.2-9.2-2.7-17-7.3-19.7c0,0,1.7,4.7-2.2,9.3c-3.8,4.7-11,15.5-10,23.7c0,0-7.7-9.3-20.2-12c-6.5-1.8-9.3-7.2-9.3-7.2
		S83.4,453,112.8,464C120.3,467,120,468.2,121.1,471.3z"/>
	<path class="st0" d="M109.8,476.5c-7.8-0.5-13.3-5.3-13.3-5.3c3.5,27.9,41.2,30.4,41.2,30.4l7.3,8.5h1.2l1.5-0.8l0.2-1.3l-0.7-1.7
		c0,0-2-3.2-4.3-5.2s-1.2-6-1.2-6s2.3-3.3,3.8-10c8.7-30.7-7.7-37.4-7.7-37.4s1.8,9.3-2,14.5c-8.1,10.5-5.9,22.4-5.9,22.4
		C127.5,481.5,117.6,477,109.8,476.5z"/>
	<path class="st0" d="M148.8,528.4c7.2-0.3,9.7,2.5,9.7,2.5l7.3,6.3l2.3,0.7l1.3-2.8l-0.8-1c0,0-1.5-1.2-4.2-3s-1.5-4.2-0.8-7.5
		c8.2-43.4-13.2-46.7-13.2-46.7s1.8,4.7-0.5,13.5c-3.5,10-1,23.7-1,23.7c-6.2-4.5-19.7-4-24.2-4c-4.5,0-10.3-2.3-10.3-2.3
		C120.1,524.9,141.7,528.7,148.8,528.4z"/>
	<path class="st0" d="M653.4,289.3c0.8,5,4.8,18.4,22.5,19.8c0,0-4.5-29.5-27-29.5C648.8,279.6,652.8,285.6,653.4,289.3z"/>
	<path class="st0" d="M659.3,310.5c-3.6,0-6.3-3.5-6.3-3.5s-5.1,17,31,22.5v10c0,0-12.5-7-19.3-8.9c-3.6-1.3-4.4-4-4.4-4
		s-5.1,12.6,13,24.6c15.6,11,18,7.4,18,7.4v7.4c0,0,1.1,5.3,3.1,5.5s3.6-2.5,3.6-2.5v-2.4l-2.5-2.8v-5.2c0,0,21.1-23.9,5.8-45.1
		c0,0-0.9,6.1-2.8,8.6s-7,7.5-9.4,15.1l-0.6-0.9v-13.8c0,0,10.3-23.5-5.3-31.7c0,0,1,5.9-2,10s-3.9,11.8-2.8,15.9
		C678.7,317,671.1,310.2,659.3,310.5z"/>
	<path class="st0" d="M694.4,380.1c0,0-4.3-8.7-16-15c-8.5-4.9-9.8-9.8-9.8-9.8s-6.3,15,8.9,29.3c11.8,12.2,15.5,12.1,15.5,12.1
		s1.2,10.6-2,17.8c0,0-3.7-10.7-12.3-17.5c-6-5.2-5.7-10.2-5.7-10.2s-10.2,11.5,2.7,31c6.5,10,11.7,13,11.7,13s0.7,5.8-1.7,8.5
		l-0.5,2.2l1.5,1.8l2.3-0.3c0,0,3.5-5.7,4.3-11c0,0,26.5-9.8,24.5-38.9c0,0-12.7,12-20.2,14.7c0,0,0.7-4.7,0.5-10.5
		c1.3-2.2,26.5-22,16.3-45c0,0-2.2,6.2-5.7,8.5S696,372.9,694.4,380.1z"/>
	<path class="st0" d="M704,438.3c-12.5,2.7-20.2,12-20.2,12c1-8.2-6.2-19-10-23.7c-3.8-4.7-2.2-9.3-2.2-9.3
		c-4.7,2.7-8.5,10.5-7.3,19.7c1.2,9.2,7.2,18.9,10.2,22.2c3,3.3,1.3,8.7,1.3,8.7l-4.3,9.2l0.7,1.3l1.7,1l2-0.8c0,0,1.8-4,3-7.2
		c1.2-3.2,0.8-4.3,8.3-7.3c29.4-11,26.2-32.9,26.2-32.9S710.6,436.5,704,438.3z"/>
	<path class="st0" d="M664.1,462.2c-3.8-5.2-2-14.5-2-14.5s-16.3,6.7-7.7,37.4c1.5,6.7,3.8,10,3.8,10s1.2,4-1.2,6s-4.3,5.2-4.3,5.2
		l-0.7,1.7l0.2,1.3l1.5,0.8h1.2l7.3-8.5c0,0,37.7-2.5,41.2-30.4c0,0-5.5,4.8-13.3,5.3c-7.8,0.5-17.7,5-20.2,8
		C670,484.5,672.3,472.7,664.1,462.2z"/>
	<path class="st0" d="M685.5,507.7c0,0-5.8,2.3-10.3,2.3c-4.5,0-18-0.5-24.2,4c0,0,2.5-13.7-1-23.7c-2.3-8.8-0.5-13.5-0.5-13.5
		s-21.4,3.3-13.2,46.7c0.7,3.3,1.8,5.7-0.8,7.5s-4.2,3-4.2,3l-0.8,1l1.3,2.8l2.3-0.7l7.3-6.3c0,0,2.5-2.8,9.7-2.5
		C658.3,528.7,679.9,524.9,685.5,507.7z"/>
	<path class="st0" d="M434.3,122.3c0,0-17.2,15-34.4-7.1c-17.1,22.1-34.4,7.1-34.4,7.1c-11.8,21.1-29,6.9-29,6.9l-3.1,28.8
		c16.5-18,40.1-29.3,66.5-29.3c26.3,0,50,11.3,66.5,29.3l-3.1-28.7C463.3,129.2,446,143.4,434.3,122.3z"/>
	<path class="st0" d="M374.9,465.6c0,9.9,5.1,19.9,14.1,27.9h2.1c11.1-8.5,17.5-17.1,17.5-28.6c0-9.2-6.2-20.1-17.5-20.1
		C382.2,444.8,374.9,452.2,374.9,465.6z"/>
	<path class="st0" d="M260.7,477.5c-1.1,0-4.9,0.4-6.9,1.1c-0.5,0.4-1.4,2-1.4,2.9c-0.4,6.7-0.4,30.8-0.4,43.3l0.9,0.9
		c17.2,0,22.3-0.9,24.6-2.2c6-3.1,10.7-10,10.7-19.2C288.3,487.3,280.1,477.5,260.7,477.5z"/>
	<path class="st0" d="M375.6,511.8c-8.5,7.6-15.5,14.8-15.5,27.2c0,18.5,15.2,30.7,34.2,30.7c9.5,0,22.2-4.8,30.5-14.3
		c0.5-0.7,0.9-1.4,0.2-2.1c-15.9-12.7-33.5-27.5-47.8-41.6H375.6z"/>
	<path class="st0" d="M436.9,604.1l-0.6,0.2c-0.8,0.7-1.2,2.9-1.2,5.9c0,5.2,0.9,7.2,2.2,7.2l0.8-0.3c0.5-0.5,1-1.8,1-6.3
		C439.1,606.6,438.3,604.1,436.9,604.1z"/>
	<path class="st0" d="M185.7,471.9l0,106.4l214.2,94.9l214.2-94.9l0.1-106.4l-214.3-94.9L185.7,471.9z M335.2,582.9
		c-8.5,0-23.9,0-31.3-3.8c-2.7-1.6-5.6-3.8-9.2-8c-6.9-8.5-16.9-23.9-23.7-34.1c-1.1-1.4-3.1-2.2-4.5-2.4
		c-2.4-0.4-10.9-0.4-13.6-0.4l-0.7,1.1c0,10,0,25.7,0.4,30.4c0.4,4.9,1.8,6.9,6.5,7.8c2.9,0.7,6.2,1.1,11,1.6
		c0.9,0.9,0.5,6.5-0.6,7.2c-4.2,0-11.9-0.5-26.6-0.5c-12,0-20.6,0.5-24.8,0.5c-1.1-1.3-1.1-6.2,0-7.2c4.2-0.4,7.1-0.9,9.8-1.5
		c4.3-0.9,6.2-2.7,6.5-9.8c0.4-3.6,0.6-26.6,0.6-36.8c0-24.3,0-36.4-0.2-40.6c-0.2-5.4-1.2-7.2-6.2-8.5c-3.1-0.7-6.5-1.3-10.7-1.8
		c-0.9-1.1-0.5-6.3,0.5-7.1c4,0,16.7,0.5,22.8,0.5c14.9,0,25.2-0.2,31.9-0.2c21.6,0,33.9,13,33.9,28.6c0,14.9-9.1,24.1-20.5,29.4
		l-0.4,1.4c6.3,10,19.7,27.2,28.6,36.8c6.9,7.1,9.1,7.8,21.9,10C337.5,576.4,336.6,582.5,335.2,582.9z M346.3,618.4
		c-1.6,0-3.2-0.5-3.7-0.8c-0.2-0.4-0.7-3-0.7-3.8l0.7-0.2c0.6,1.7,1.2,2.6,2.1,3.3c0.6,0.4,1.5,0.6,2.3,0.6c1.2,0,2.1-0.8,2.1-2
		c0-1.2-0.5-2-2.7-3.4c-2.3-1.5-3.8-2.6-3.8-5c0-2.9,2.3-4.4,5.1-4.4c1.8,0,2.8,0.3,3.9,0.4c-0.2,1-0.3,2-0.4,3.6l-0.7,0
		c-0.2-1.5-0.5-2.2-1.1-2.7c-0.6-0.4-1.1-0.5-1.9-0.5c-1.3,0-2.2,0.9-2.2,2.1c0,1,0.5,1.8,1.5,2.5c1,0.7,1.6,1,2.7,1.7
		c1.8,1.2,2.6,2.3,2.6,4C352,616.4,349.9,618.4,346.3,618.4z M361.3,618.1c-1.1,0-2-0.1-3.5-0.1c-2.2,0-2.8,0.1-3.7,0.1v-0.7
		l1.1-0.2c0.6-0.1,0.7-0.4,0.8-1.4c0.1-1,0.1-3.3,0.1-5.8c0-2.6,0-3.9-0.1-5.1l-0.6-1l-1.2-0.2v-0.7c0.9,0,1.9,0.1,3.6,0.1
		c2.2,0,3.1-0.1,3.5-0.1v0.7l-1.2,0.2c-0.5,0.2-0.6,0.5-0.6,1.3c0,0.7,0,2.8,0,4.9c0,3.4,0,4.8,0.1,5.7c0,0.4,0,1.1,0.8,1.2l1.2,0.2
		L361.3,618.1z M379.3,603.8l-1,0.2c-0.7,0.2-0.9,0.6-1,1.5c-0.1,2.3-0.2,6.2-0.2,9.3c0,1.1,0,2.5,0,3.3l-2.3,0
		c-1.2-1.7-7.3-9.8-8.6-11.5l-0.1,0c-0.1,2.7,0,8,0,9c0.1,1,0.4,1.4,1.1,1.6l1.4,0.2l0,0.7c-0.7,0-1.8-0.1-2.9-0.1
		c-1.4,0-2.4,0.1-3.1,0.1v-0.7l1.4-0.3c0.5-0.2,0.7-0.5,0.8-1.4c0.1-1.2,0.2-5.8,0.2-10c0-0.7-0.3-1.4-0.9-1.6l-1.5-0.3l0-0.7
		c0.9,0,2.2,0.1,3.6,0.1c0.7,0,1.4,0,1.6,0l0.9,1.3c1.8,2.4,5.5,7.2,7.2,9.3l0.1,0c0-3,0-6.8-0.1-8.3c-0.1-0.9-0.3-1.2-1.1-1.4
		c-0.4-0.1-0.8-0.1-1.4-0.2l0-0.7c0.7,0,1.8,0.1,3.2,0.1c1.1,0,2.2-0.1,2.7-0.1V603.8z M392.4,617.9c-0.8,0.2-1.9,0.6-3.7,0.6
		c-5.5,0-8.6-2.7-8.6-8c0-2.7,1.3-5.3,3.9-6.6c1.3-0.7,3-1.1,5-1.1c1.7,0,3.7,0.3,4.9,0.4c-0.2,0.7-0.4,2.7-0.4,4l-0.7,0.1
		c-0.2-1.3-0.4-2.4-1.4-3c-1-0.6-2-0.7-3-0.7c-2.6,0-4.5,2.1-4.5,6.6c0,3.7,1.6,7.2,5.4,7.2c0.8,0,1.8-0.2,2.6-0.8
		c0.6-0.5,1.3-1.5,1.8-2.4l0.6,0.4C394.1,615.4,393.1,617.4,392.4,617.9z M407.3,617.7c-0.1,0.2-0.3,0.4-1.3,0.4
		c-2.1,0-4.5-0.1-6.8-0.1c-1.3,0-2.9,0.1-4.2,0.1v-0.7c0.8-0.1,1.4-0.2,1.7-0.3c0.5-0.2,0.7-0.4,0.7-1.2c0.1-1.4,0.1-3.5,0.1-6.1
		c0-1.9,0-3.8-0.1-4.7c0-0.7-0.2-0.9-0.7-1.1l-1.2-0.2l0-0.7c0.8,0,2.4,0.1,3.6,0.1h4.7c0.9,0,2.3,0,3.1-0.1l0.1,0.1
		c-0.2,0.7-0.3,2.3-0.4,3.6l-0.7,0.1c-0.1-0.9-0.3-1.5-0.5-1.9l-0.9-0.6l-3.4,0l-0.2,0.4c0,1.6,0,3.4,0,5l0.1,0.2c0.6,0,2.5,0,3.3,0
		c0.5,0,0.8-0.3,1-1l0.2-0.8l0.7,0c0,0.6-0.1,1.5-0.1,2.3c0,0.6,0.1,1.7,0.1,2.4l-0.7,0c-0.2-0.7-0.1-0.6-0.2-0.9l-0.9-0.8
		c-0.4-0.1-2.5-0.1-3.2-0.1l-0.1,0.2v4.7l0.5,0.8c0.5,0.1,1.6,0.2,2.8,0.2c1.3,0,1.6-0.1,2.1-0.7c0.5-0.5,1-1.5,1.4-2.4l0.7,0.2
		C408.3,614.6,407.7,616.9,407.3,617.7z M428.6,617.8c-0.2,0.2-0.4,0.2-1.2,0.3c-1.8,0-4.3-0.1-6.4-0.1c-0.7,0-1.4,0-1.7,0l0-0.6
		c1.7-1.3,3-2.5,4.3-4.2c0.9-1.3,1.5-2.8,1.5-4.3c0-1.7-0.8-3.2-2.6-3.2c-0.9,0-1.8,0.3-2.8,1.4l-0.5-0.5c1.3-2.2,3.3-3.4,5-3.4
		c2.1,0,4.1,1.6,4.1,4.4c0,1.7-0.9,3.2-2.7,5c-0.8,0.8-1.6,1.4-2.5,2.3l0,0.2c0.9,0.1,3.5,0.1,4.6,0.1c0.5,0,1.2-0.4,1.9-2l0.6,0.2
		C429.9,614.6,429.1,617.2,428.6,617.8z M439.7,617.5c-0.7,0.5-1.8,0.8-2.7,0.8c-1.2,0-2.1-0.2-3-0.8c-1.8-1.4-2.3-4-2.3-6.8
		c0-2.2,0.6-4.8,2.3-6.2c1-0.8,2.2-1.1,3.3-1.1c1.7,0,2.9,0.7,3.6,1.6c0.9,1.1,1.5,3,1.5,5.6C442.4,613.4,441.7,616.1,439.7,617.5z
		 M451.1,618.1c-0.9,0-2.5-0.1-3.9-0.1c-1.8,0-2.7,0.1-3.5,0.1v-0.7l1.2-0.2c0.7-0.2,0.8-0.8,0.8-1.6c0-1,0-2.5,0.1-4.8
		c0-2,0-3.8-0.1-4.5l-0.6-0.9l-1.1-0.2l0.1-0.7c2-0.1,3.8-0.7,4.9-1.2l0.3,0.2c-0.1,1-0.1,1.9-0.1,3.9c0,2,0,6.1,0.1,8.1
		c0,0.9,0.1,1.6,0.8,1.7l1.2,0.2L451.1,618.1z M460.8,618.1c-0.9,0-2.5-0.1-3.9-0.1c-1.8,0-2.8,0.1-3.5,0.1v-0.7l1.3-0.2
		c0.7-0.2,0.8-0.8,0.8-1.6c0-1,0-2.5,0.1-4.8c0-2,0-3.8-0.1-4.5l-0.6-0.9l-1.1-0.2l0.1-0.7c2-0.1,3.8-0.7,4.9-1.2l0.3,0.2
		c-0.1,1-0.1,1.9-0.1,3.9c0,2,0,6.1,0.1,8.1c0.1,0.9,0.2,1.6,0.8,1.7l1.2,0.2L460.8,618.1z M501.9,575.5c4.5-0.5,8.3-1.3,10.7-1.8
		c5.4-1.4,6.3-2.7,6.7-9.1c0.4-6.7,0.2-17.9,0.2-40c0-20.6,0-32.2-0.4-37.8c-0.2-6-1.3-7.4-5.2-8.5c-2.7-0.5-6.3-1.3-10.7-1.8
		c-1.3-0.9-0.6-6.2,0.2-7.1c4.1,0,14.9,0.5,24.3,0.5h45.1c6.2,0,14.8,0,18.8-0.5l1.1,1.4c-1.1,4.3-2.4,16.3-2.5,26.4
		c-0.9,1.3-7,1.8-8.2,0.7c-1.1-5.4-1.4-7.8-2.5-11.8c-1.8-4.5-3.3-6.3-8.5-6.5c-7-0.4-25.7-0.7-31.5-0.2c-1.1,0.2-2.2,2.4-2.2,3.2
		c0,13.1-0.4,25.6-0.2,38.6l0.7,1.1c11.6,0,24.1,0,30.4-0.5c3.3-0.2,4.3-2.5,5.6-6.3c0.7-2,1.5-4.3,2-7.8c1.8-0.5,7.1-0.4,8.9,0.7
		c-0.5,4.7-1.3,13-1.3,19c0,6.9,0.2,13.2,0.5,19.8c-1.5,0.9-6.2,1.1-8.3,0.2c-0.9-4-1.4-5.8-2.2-8.2c-1.3-4.3-2.9-6.2-6.7-6.3
		c-6.5-0.4-23.9-0.4-29-0.4l-0.7,0.9c0,11.2-0.2,23.9,0.2,31.3c0.2,5.4,1.3,7.4,6.7,8.5c4.7,0.9,8.9,1.4,14.1,2
		c0.9,0.9,0.7,6.3-0.5,7.2c-6,0-14.1-0.5-30.4-0.5c-13.1,0-18.5,0.5-25,0.5C501,581.8,500.8,576.4,501.9,575.5z M426.6,464.2
		c0,12-7.2,20.8-29.8,35.3l-0.2,1.1c6.7,6.9,24.9,22.4,41.8,34.6l1.9-0.2c4.8-7.2,9.2-17.8,12-26.3c0.9-2.3,2.1-6.7-2.5-8.5
		c-2.5-0.9-7.6-2.1-12.7-2.8c-1.2-0.2-0.5-8.3,0.5-9c3.9,0,14.1,0.7,23.6,0.7c15.2,0,23.3-0.7,26.3-0.7c0.9,1.4,1.2,8.3-0.7,9.2
		c-3.7,0.7-7.6,1.4-10.2,2.1c-4.4,1.4-6.9,4.1-8.5,6.7c-8.8,15-14.3,26.6-19.9,33.9l0.2,1.6c13.6,9.9,30.5,22.2,34.9,27.5
		c0,4.8-6.9,19.4-9.2,21.9c-0.7,0.7-3.9,0.5-4.6,0c-1.4-3-5.3-7.2-7.4-8.8c-8.8-7.4-17.8-14.5-27.7-22.4c-0.7-0.7-0.5-0.2-0.9,0.2
		c-17.6,19.9-33.9,25.6-49.4,25.6c-27.7,0-44.8-17.8-44.8-41.8c0-12.5,6-22.2,31.2-39.2v-1.2c-7.4-9-12.9-18.7-12.9-31.6
		c0-22.4,18.5-37.4,38.3-37.4C413.6,434.9,426.6,448.1,426.6,464.2z"/>
	<path class="st0" d="M493.6,672.8c0.1,1.6,0.4,4,0.5,5.2l0.1,0.1c0.3-0.1,0.7-0.3,1.3-0.6c0.8-0.3,1.4-0.6,1.7-0.7l0-0.1
		c-0.7-0.8-2.5-2.8-3.5-3.9L493.6,672.8z"/>
	<path class="st0" d="M449.4,690.1c-1-0.3-1.8-0.3-2.8,0.1c-0.7,0.3-1.3,0.8-1.6,1.4c-0.9,1.6-0.5,3.8,0.6,6.1
		c1,2.2,2.8,4.8,5.2,5.5c0.9,0.3,1.9,0.3,2.9-0.2c0.7-0.3,1.3-0.9,1.5-1.7c0.6-1.5,0-3.9-0.9-5.9
		C453.3,693.2,451.5,690.8,449.4,690.1z"/>
	<path class="st0" d="M482.1,681c0.5-0.7,0.5-1.5,0-2.5c-0.8-1.8-2.3-2.7-4.4-1.7l-0.4,0.3l0,0.4c0.4,1,1.3,3.2,2,4.8l0.2,0.1
		l1.2-0.5C481.4,681.6,481.9,681.3,482.1,681z"/>
	<path class="st0" d="M480.7,682.9l-0.8,0.4l-0.1,0.2c0.8,1.7,1.8,4,2.3,5.2l0.7,0.6c0.7,0.3,1.6,0.1,1.8,0c1.5-0.7,1.9-2.3,0.9-4.4
		C484.7,682.7,482.9,682,480.7,682.9z"/>
	<path class="st0" d="M430.9,698.3c-1-0.3-1.8-0.3-2.7,0.1c-0.7,0.3-1.3,0.8-1.6,1.4c-0.9,1.6-0.5,3.8,0.6,6.1
		c1,2.2,2.8,4.8,5.2,5.5c0.9,0.3,1.9,0.3,2.9-0.2c0.7-0.3,1.3-0.9,1.5-1.7c0.6-1.5,0-3.9-0.9-5.9C434.8,701.4,433,698.9,430.9,698.3
		z"/>
	<path class="st0" d="M318.1,674.3c-0.7-0.3-1.5-0.4-2.1-0.2c-1.8,0.4-3.1,2.2-4.2,4.5c-1,2.2-1.7,5.3-0.6,7.5
		c0.4,0.9,1.1,1.6,2.1,2c0.7,0.3,1.5,0.3,2.2,0c1.5-0.6,2.9-2.7,3.8-4.6c1.1-2.4,1.6-5.3,0.7-7.3C319.6,675.3,319,674.7,318.1,674.3
		z"/>
	<path class="st0" d="M234.9,646.2l0,0.2c0.2,0.1,0.7,0.3,1.3,0.6c0.8,0.3,1.4,0.6,1.7,0.7l0.1-0.1c0.1-1.1,0.4-3.8,0.5-5.2l-0.1,0
		C237.2,643.5,235.7,645.3,234.9,646.2z"/>
	<path class="st0" d="M362.8,702.5c-0.7,0.3-1.2,0.9-1.5,1.6c-0.7,1.6,0.2,4,2.3,5c1.1,0.5,2,0.4,2.4,0.2l0.1-0.1
		c-1-2-2.3-4.6-3.2-6.7L362.8,702.5z"/>
	<path class="st0" d="M353,690.2l-0.6-0.2l-0.3,0.3c-0.2,0.4-0.8,1.6-2.5,5.6l0.1,0.2c1,0.6,2.1,0.9,2.7,0.9c0.7-0.1,1.4-0.5,2.1-2
		C355.2,693.1,354.9,691.1,353,690.2z"/>
	<path class="st0" d="M368.4,699.6c0.5-1.2,0.4-2.5-0.6-2.9c-0.7-0.3-1.6-0.1-2.2,1.2c-0.5,1.1-0.2,2.4,0.5,3.8l0.1,0.1
		C367,701.5,367.8,701,368.4,699.6z"/>
	<path class="st0" d="M614.1,590.8l-214.2,94.9l-214.2-94.9l0,65.1l214.2,94.9l214.2-94.9L614.1,590.8z M214.7,629.5
		c-0.5-1.1-1.5-1.8-2.8-2.4c-2.3-1-5.2-0.6-7.3,4.3c-1.9,4.4-1.2,8.1,1.8,9.5l1,0.2l0.7-0.5c0.3-0.6,1-1.9,1.2-2.7
		c0.3-0.9,0.3-1.3-0.2-1.8l-1.3-0.8l0.3-0.7c0.7,0.3,2.3,1.1,3.8,1.8c1.6,0.7,2.4,1,2.9,1.2l-0.3,0.6l-0.7-0.1
		c-0.5-0.1-0.7,0-1.3,1.3c-0.4,0.8-0.9,1.9-1,2.4l0.3,0.8l-0.3,0.4c-1.1-0.1-3.7-0.6-5.9-1.5c-5.2-2.3-7.3-6.1-4.9-11.3
		c1.4-3.1,4-4.8,7.2-4.8c1.5,0,3,0.3,5.1,1.3c2.1,0.9,3.5,2.1,4.5,2.7c-0.6,0.8-1.6,2.5-2.2,3.7l-0.8-0.3
		C215,631.2,215.1,630.3,214.7,629.5z M220.4,648c-4.2-1.8-4.7-4.5-4-6.9c0.5-1.8,2-5,3.6-8.5c0.3-0.7,0.2-1.2-0.2-1.6l-1-0.7
		l0.3-0.6c0.7,0.3,1.9,0.9,3.5,1.6c1.7,0.8,2.9,1.2,3.6,1.5l-0.3,0.6l-1.1-0.3c-0.6-0.1-1,0.2-1.4,0.9c-0.8,1.6-2,4.4-2.5,5.6
		c-0.5,1.1-0.9,2.1-1.1,3c-0.4,1.8,0.3,3.3,2.6,4.4c1.6,0.7,3.6,0.8,5.2-2.1c0.9-1.7,2.7-5.6,3.2-7.2c0.4-1,0.3-1.5-0.3-2l-1.1-0.7
		l0.3-0.6c0.8,0.3,1.6,0.8,2.7,1.3c1.6,0.7,2.1,0.9,2.7,1.1l-0.3,0.6l-1-0.2c-0.7-0.1-1,0.1-1.6,1.3c-0.4,0.8-2,4.3-2.8,5.8
		C227.1,649,224,649.6,220.4,648z M255.5,663.2l-2.2-1c-0.4-2.2-2.9-12.5-3.4-14.8l-0.1,0c-1.2,2.5-3.4,7.7-3.8,8.7
		c-0.4,1-0.2,1.5,0.4,2l1.2,0.8l-0.3,0.6c-0.7-0.3-1.7-0.9-2.8-1.3c-1-0.4-1.7-0.7-2.3-1l0,0l-0.4-0.2l-0.3-0.1v0
		c-0.6-0.3-1.5-0.7-2.6-1.2c-2.1-0.9-2.7-1.1-3.6-1.5l0.3-0.6l1.3,0.2l0.4-0.4c0.1-1,0.3-3,0.4-4.1l-0.2-0.3c-0.3-0.2-1-0.5-1.6-0.7
		c-0.9-0.4-1.6-0.7-2-0.9l-0.3,0.1c-0.9,1-2.4,2.4-2.5,2.8l0.3,1.1l1,0.7l-0.4,0.6c-0.7-0.3-1.6-0.8-2.8-1.3c-0.9-0.4-1.7-0.7-2.5-1
		l0.3-0.6c1.7,0.5,2.1,0.5,3.3-0.7c2.6-2.4,7.3-7.3,8.6-8.8l1-1.2l1.1,0.5l1.1,0.5l-0.2,1.4c-0.2,2.6-0.8,9.2-1,11.6
		c-0.1,2.1-0.1,2.4,1.2,3.3l1,0.2c0.6,0.1,0.9-0.2,1.4-1c0.7-1.1,2.7-5.5,4.5-9.5c0.3-0.6,0.3-1.5-0.2-2l-1.2-1l0.3-0.6
		c0.8,0.4,2.1,1,3.4,1.6c0.7,0.3,1.3,0.6,1.6,0.6c0,0.4,0.1,0.8,0.3,1.6c0.7,3.1,2.3,9.3,3,12h0.1c1.3-2.9,3-6.6,3.5-8
		c0.3-0.9,0.2-1.3-0.5-1.8c-0.4-0.3-0.7-0.5-1.3-0.8l0.3-0.6c0.6,0.3,1.7,0.8,3,1.4c1.1,0.5,2.2,0.9,2.6,1.1l-0.3,0.6l-1-0.2
		c-0.8-0.1-1.2,0.2-1.6,1c-1.1,2.1-2.8,5.9-4.2,8.8C256.5,661.1,255.9,662.4,255.5,663.2z M272.8,669.6l-0.3,0.4
		c-1.1-0.1-3.7-0.6-5.9-1.5c-5.2-2.3-7.3-6.1-4.9-11.3c1.4-3.1,4-4.8,7.2-4.8c1.5,0,2.9,0.3,5.1,1.3c2.1,0.9,3.6,2.1,4.5,2.7
		c-0.6,0.8-1.6,2.5-2.2,3.7l-0.8-0.3c0.5-1.6,0.6-2.5,0.2-3.2c-0.5-1.1-1.5-1.8-2.8-2.4c-2.3-1-5.2-0.6-7.3,4.3
		c-1.9,4.4-1.2,8.1,1.8,9.5l1.1,0.2l0.7-0.5c0.3-0.6,1-1.9,1.2-2.7c0.3-0.9,0.4-1.3-0.2-1.8l-1.3-0.8l0.3-0.7
		c0.7,0.3,2.3,1.1,3.8,1.8c1.7,0.7,2.4,1,2.9,1.2l-0.3,0.6l-0.7-0.1c-0.5-0.1-0.7,0-1.3,1.3c-0.4,0.8-0.9,1.9-1,2.4L272.8,669.6z
		 M285.6,676.2c-0.2,0.2-0.6,0.1-1.7-0.4c-2.5-1.1-5.5-2.5-7.5-3.5c-0.7-0.3-1.7-0.7-2.3-0.9l0.1-0.5c2.2-1.2,11.9-8.1,13.4-9.4
		l0-0.1c-0.9-0.4-3.9-1.7-4.9-2.1l-1.6,0.3c-0.5,0.4-1.1,0.9-2,1.7l-0.6-0.5c1-1.3,1.8-2.5,2.5-3.7l0.5,0.3c0.4,0.4,1,0.7,1.7,1
		l4.8,2.1c1.4,0.6,3.1,1.3,4,1.7l-0.1,0.5c-1.6,1.1-10.7,7.9-13,9.5l0,0.2c0.3,0.3,2.3,1.2,4.3,2.1l1.4,0.1c0.8-0.2,1.9-1.1,3.2-2.1
		l0.6,0.5C288,673.5,286.3,675.6,285.6,676.2z M302.4,682.9c0.3,0.3,0.6,0.4,1.3,0.9l-0.4,0.6c-0.7-0.3-1.9-0.9-3.3-1.6
		c-1.3-0.6-3-1.3-3.6-1.5l0.3-0.6l1.1,0.3c0.5,0.1,0.8-0.1,1.3-1c0.5-1.1,1.4-3,2-4.5l-0.1-0.2c-0.5-0.2-1.6-0.7-2.7-1.2
		c-2.8-1.2-3-1.3-3.1-1.3l-0.2,0.1c-0.6,1.5-1.4,3.2-1.9,4.4c-0.3,0.8-0.4,1.2,0.1,1.6l1.1,0.8l-0.3,0.6c-0.5-0.2-1.5-0.8-3.5-1.7
		c-1.7-0.8-2.9-1.2-3.4-1.4l0.3-0.7l1.1,0.3c0.7,0.2,1-0.1,1.5-1.2c0.2-0.3,1.2-2.5,2.1-4.6c1-2.3,2.1-4.8,2.4-5.5
		c0.3-0.8,0.3-1.1-0.1-1.5l-1.1-0.7l0.3-0.6c0.5,0.2,1.6,0.8,3.4,1.6c1.7,0.8,2.7,1.1,3.4,1.4l-0.3,0.6l-1.1-0.3
		c-0.5,0-0.8,0.2-1.2,1c-0.5,1.2-1.3,2.8-1.8,4.1l0.1,0.2c0.2,0.1,0.5,0.3,3.1,1.5c1.3,0.6,2.2,1,2.6,1.1l0.2-0.1
		c0.5-1.2,1.4-3.3,1.9-4.6l-0.2-1l-1.1-0.7l0.3-0.6c0.8,0.4,1.7,0.8,3.5,1.6c1.9,0.8,2.7,1.1,3.2,1.3l-0.3,0.6l-1.1-0.2
		c-0.5-0.1-0.7,0-1.1,0.7c-0.8,1.6-1.2,2.5-2.7,6c-0.7,1.6-1.5,3.4-1.9,4.4C302.1,682.2,302.1,682.6,302.4,682.9z M323.3,684.4
		c-0.8,1.7-2,3.3-3.5,4.2c-2.4,1.4-5.1,1.3-7.7,0.2c-2.5-1.1-4-2.8-4.7-4.7c-0.8-2.1-0.4-4.5,0.4-6.3c0.8-1.8,2.1-3.4,4-4.1
		c2.1-1,4.6-1.1,7.2,0.1C323.9,675.9,325,680.4,323.3,684.4z M340.6,686.7c-0.4,0.8-2,4.3-2.8,5.8c-2.3,4.7-5.3,5.3-8.9,3.7
		c-4.2-1.8-4.7-4.5-4-6.9c0.5-1.8,2-5,3.6-8.5c0.3-0.7,0.2-1.1-0.2-1.6l-1-0.7l0.3-0.6c0.7,0.3,1.9,0.9,3.5,1.6
		c1.7,0.8,2.8,1.2,3.6,1.5l-0.3,0.6l-1.1-0.3c-0.6-0.1-1,0.2-1.4,0.9c-0.8,1.6-2,4.4-2.5,5.6c-0.5,1.1-0.9,2.1-1.1,3
		c-0.4,1.8,0.3,3.3,2.6,4.4c1.6,0.7,3.6,0.8,5.2-2.1c0.9-1.7,2.7-5.6,3.2-7.2c0.4-1,0.3-1.5-0.4-2l-1.1-0.7l0.3-0.6
		c0.8,0.3,1.6,0.8,2.7,1.3c1.6,0.7,2.1,0.9,2.7,1.1l-0.3,0.6l-1-0.2C341.5,685.3,341.2,685.6,340.6,686.7z M354.9,705.4
		c0.5,1.2,0.6,1.3,1.6,1.9l-0.4,0.6c-1.5-0.5-3.7-1.6-4.5-2.4l-0.7-1.5c-0.5-1.5-0.7-4.4-0.9-6l-0.5-0.8l-0.5-0.2l-0.2,0.1
		c-0.6,1.5-1.4,3.2-1.9,4.3c-0.3,0.8-0.3,1.1,0.2,1.5l1.1,0.7l-0.3,0.6c-0.6-0.3-1.6-0.8-3.4-1.6c-2-0.9-3-1.2-3.4-1.4l0.3-0.6
		l1.1,0.3c0.6,0.1,0.9-0.1,1.2-0.9c0.4-0.7,1.9-4.2,2.6-5.6c1-2.3,1.6-3.6,2.1-4.8c0.3-0.7,0.2-1.1-0.2-1.4l-1-0.7l0.3-0.6
		c0.6,0.3,2.3,1.1,3.1,1.5c1.5,0.6,2.7,1.1,4.5,1.9c2.8,1.3,3.7,3.3,2.8,5.5c-0.8,1.8-2.6,2.4-4.4,2.4l-0.1,0.1
		C353.6,699.2,354.2,703.7,354.9,705.4z M369.2,714.8l-0.4-0.2l-0.5-1.2c-0.6-1.2-1.1-2.2-1.8-3.3l-0.1-0.1c-2.2,0.9-4,1-5.7,0.2
		c-2.6-1.1-3.9-3.7-2.8-6.3c0.6-1.3,1.4-1.8,4.6-2.2l0.1-0.1c-0.4-1.1-0.5-2.3,0.1-3.6c0.9-2,3.4-2.9,5.8-1.9c2.1,0.9,3,2.9,2.2,4.5
		c-0.6,1.3-2,1.6-4.2,1.8l0,0.1c0.6,1.5,1.8,3.5,2.7,4.9l0.2,0.1c1.1-0.8,2-1.6,2.3-2v-1.1l-0.9-0.7l0.3-0.6c0.4,0.2,1.2,0.6,2.2,1
		c1.6,0.7,2.2,0.9,2.5,1l-0.3,0.6l-1-0.1l-1.3,0.3c-1.6,1-2.6,1.9-3.3,2.3l0,0.2c0.9,1.5,2.2,3.6,2.4,4.3
		C371.8,713.4,369.7,714.7,369.2,714.8z M388.7,709.5l-0.7-0.3c0.3-1,0.4-1.7,0.3-2.3l-0.7-1c-0.6-0.3-2.9-1.4-3.4-1.5l-0.4,0.3
		c-0.6,1.1-1.5,3.2-2.3,5.1l0.1,0.2c0.7,0.3,2.4,1.1,3.2,1.3c0.7,0.3,1,0.2,1.4-0.2l0.8-1l0.7,0.3c-0.3,0.6-0.8,1.5-1.2,2.4
		c-0.3,0.7-0.7,1.7-1,2.3l-0.7-0.2l0.2-1.2c0-0.6-0.2-0.8-0.5-1c-0.5-0.3-2.7-1.3-3.3-1.6l-0.2,0.1c-0.7,1.5-1.3,2.8-1.8,4.1
		c-0.5,1-0.3,1.4,0.2,1.7l1.2,0.8l-0.4,0.6c-1.3-0.6-2.1-1-3.5-1.6c-1.2-0.5-2.3-0.9-3.7-1.5l0.3-0.6l1.1,0.3
		c0.7,0.1,0.9-0.2,1.2-0.8c0.3-0.5,1.8-3.9,2.5-5.4c1.2-2.7,1.9-4.2,2.2-5.1c0.3-0.9,0.2-1.1-0.2-1.4l-1.1-0.8l0.3-0.6
		c0.6,0.3,1.8,0.9,3.5,1.6l5.2,2.3c1.6,0.7,2.4,0.9,2.7,1l0,0.2C390.2,706.7,389.5,707.9,388.7,709.5z M421.1,712.7l-0.8-1l-1.1-0.3
		c-0.6,0.2-2.7,1.1-3.4,1.4l-0.1,0.2c0.7,1.5,1.3,2.9,1.9,4.1c0.5,1,0.8,1.1,1.4,1l1.4-0.4l0.2,0.7c-1.3,0.6-2.2,0.9-3.5,1.5
		c-1.2,0.6-2.2,1.1-3.6,1.7l-0.3-0.6l1-0.6c0.5-0.4,0.5-0.8,0.2-1.5c-0.2-0.6-1.7-4-2.3-5.4c-1.2-2.7-1.9-4.2-2.3-5.1
		c-0.4-0.8-0.7-0.9-1.2-0.8l-1.3,0.3l-0.2-0.7c0.6-0.3,1.8-0.7,3.5-1.5l5.2-2.3c1.6-0.7,2.3-1.1,2.6-1.3l0.2,0.1
		c0.1,0.8,0.6,2.1,1.2,3.8l-0.7,0.3c-0.6-0.8-1-1.4-1.5-1.8l-1.2-0.1c-0.7,0.3-3,1.2-3.3,1.5l-0.1,0.5c0.5,1.2,1.4,3.3,2.2,5.2
		l0.2,0.1c0.7-0.3,2.4-1.1,3.1-1.4c0.7-0.3,0.8-0.6,0.8-1.1l-0.2-1.3l0.7-0.3c0.2,0.6,0.6,1.6,1,2.5c0.3,0.7,0.8,1.6,1.1,2.3
		L421.1,712.7z M439.9,706.7c-0.6,2.7-2.5,4.7-5,5.8c-2.5,1.1-4.8,1.1-6.6,0.4c-2.1-0.9-3.6-2.8-4.4-4.5c-0.8-1.8-1.1-3.8-0.4-5.7
		c0.6-2.2,2.3-4.1,4.9-5.3c4.9-2.2,9,0,10.8,4C439.9,703,440.3,705,439.9,706.7z M458.3,698.5c-0.6,2.7-2.5,4.7-5,5.8
		c-2.5,1.1-4.8,1.1-6.6,0.4c-2.1-0.9-3.6-2.8-4.4-4.5c-0.8-1.8-1.1-3.8-0.4-5.7c0.6-2.2,2.2-4.1,4.9-5.3c4.9-2.2,9,0,10.8,4
		C458.4,694.8,458.7,696.8,458.3,698.5z M469.4,696.7c-2.2,1-3.3,1.5-4,1.9l-0.3-0.6l1.4-0.9c0.5-0.4,0.6-0.7,0.2-1.9
		c-0.9-2.4-3.1-7.2-4.7-10.8l-0.2-0.1l-2.4,1.1c-0.5,0.3-0.7,0.7-0.8,1.3c-0.1,0.7-0.1,1.6,0,2.4l-0.8,0.1c-0.2-1-0.9-3.1-1.3-4
		l0.1-0.2c0.9-0.1,1.7-0.4,2.3-0.6l8.4-3.7c1.2-0.5,1.8-0.9,2.4-1.4l0.2,0.1c0.2,1,0.7,2.7,1.2,4.2l-0.7,0.3c-0.5-0.8-1-1.4-1.4-1.8
		l-1.3-0.3c-0.7,0.2-2.3,1-2.6,1.1l0,0.2c1.5,3.3,4.2,9.5,5,11.1l1.2,0.8c0.5-0.1,0.6-0.1,1.5-0.3l0.2,0.6
		C472.1,695.6,470.9,696,469.4,696.7z M487.9,687.8c-0.9,1-2.3,1.9-3.7,2.5c-1,0.5-4.9,2-6.5,2.7l-0.3-0.6c0.7-0.4,1-0.6,1.3-0.9
		c0.3-0.3,0.4-0.6,0.1-1.3c-0.2-0.6-0.8-2.1-2.3-5.3c-1-2.4-1.8-4-2.4-5.3c-0.3-0.7-0.6-0.8-1-0.8l-1.3,0.3l-0.3-0.6
		c0.7-0.3,1.7-0.7,3.3-1.4c1.8-0.8,3.5-1.6,4.1-1.9c2-0.9,4.7-1.5,5.9,1.3c0.6,1.3,0.3,2.9-1.4,4.2l0.1,0.1c2.4-0.6,4.4-0.2,5.3,1.9
		C489.7,684.5,489.4,686.2,487.9,687.8z M503.8,681.4c-2.1,0.9-2.6,1.2-3.5,1.6l-0.3-0.6l1-0.8l0-0.6c-0.7-0.8-2-2.3-2.8-3l-0.3-0.1
		c-0.3,0.1-1.1,0.4-1.7,0.7c-0.9,0.4-1.6,0.7-1.9,0.9l-0.1,0.3c0.1,1.3,0.2,3.4,0.4,3.8c0.2,0.3,0.3,0.6,1,0.5l1.2-0.3l0.2,0.7
		c-0.8,0.3-1.7,0.7-2.9,1.2c-0.9,0.4-1.6,0.8-2.5,1.2l-0.3-0.6c1.5-1,1.8-1.3,1.7-2.9c-0.1-3.6-0.6-10.3-0.8-12.3l-0.2-1.6l1.1-0.4
		l1.1-0.6l0.9,1.1c1.8,1.9,6.3,6.8,8,8.5c1.6,1.6,1.8,1.7,3.6,1.2l0.2,0.7C506.6,680.2,505.5,680.6,503.8,681.4z M518.6,674.6
		c0,0.2-0.3,0.4-1.4,1c-1.9,0.8-4.2,1.7-6,2.6c-1.6,0.7-2.4,1.2-3.5,1.6l-0.3-0.6c0.7-0.4,0.8-0.5,1.2-0.8c0.4-0.3,0.4-0.7,0.2-1.3
		c-0.2-0.6-1.2-2.9-2.5-5.9c-1.2-2.7-1.7-4-2.2-4.9c-0.2-0.4-0.5-0.8-1.1-0.7l-1.2,0.3l-0.3-0.6c0.9-0.4,1.4-0.6,3.4-1.4
		c1.6-0.7,2.6-1.2,3.3-1.6l0.3,0.6l-0.9,0.7c-0.5,0.4-0.4,0.7-0.1,1.3c0.1,0.4,0.9,2.2,1.9,4.5c1,2.4,2.4,5.4,2.7,6l0.8,0.5
		c0.6-0.1,2-0.7,3-1.2c0.4-0.2,0.8-0.5,1-1.3c0.2-0.8,0.4-2.4,0.4-3.6l0.7-0.1C518.3,670.5,518.7,673.5,518.6,674.6z M532,668.6
		c0,0.2-0.3,0.4-1.4,1c-1.9,0.8-4.2,1.7-6,2.5c-1.6,0.7-2.4,1.2-3.5,1.6l-0.3-0.6c0.7-0.4,0.8-0.5,1.2-0.8c0.4-0.3,0.4-0.6,0.2-1.3
		c-0.2-0.6-1.2-3-2.5-5.9c-1.2-2.7-1.7-4-2.2-4.9c-0.2-0.4-0.5-0.8-1.1-0.7l-1.2,0.3l-0.3-0.6c0.9-0.4,1.4-0.6,3.4-1.4
		c1.6-0.7,2.6-1.2,3.3-1.6l0.3,0.6l-0.9,0.7c-0.5,0.4-0.4,0.7-0.1,1.3c0.1,0.4,0.9,2.2,1.9,4.5c1,2.4,2.4,5.4,2.7,6l0.8,0.5
		c0.6-0.1,2-0.7,3-1.2c0.4-0.2,0.8-0.5,1-1.2c0.2-0.8,0.4-2.4,0.4-3.6l0.7-0.1C531.7,664.5,532.2,667.6,532,668.6z M555.8,658.2
		c-0.6,0.6-1.6,1.4-3.3,2.1c-5.2,2.3-9.5,1.1-11.7-4c-1.2-2.6-1-5.6,1-8.1c1-1.2,2.4-2.3,4.4-3.2c1.6-0.7,3.7-1.3,4.9-1.7
		c0.2,0.8,0.8,2.8,1.3,4l-0.7,0.4c-0.7-1.2-1.4-2.1-2.6-2.2c-1.2-0.1-2.2,0.2-3.1,0.6c-2.5,1.1-3.5,3.9-1.5,8.3
		c1.6,3.5,4.6,6.2,8.3,4.5c0.7-0.3,1.7-0.9,2.1-1.9c0.3-0.8,0.6-2,0.7-3.1l0.7,0.1C556.3,655.1,556.2,657.4,555.8,658.2z M570,651.7
		c0,0.2-0.2,0.5-1.4,1c-1.9,0.8-4.2,1.7-6,2.5c-1.6,0.7-2.4,1.2-3.5,1.6l-0.3-0.6c0.7-0.4,0.8-0.5,1.2-0.8c0.4-0.3,0.4-0.6,0.2-1.3
		c-0.2-0.6-1.2-2.9-2.5-5.9c-1.2-2.7-1.7-4-2.2-4.9c-0.2-0.4-0.5-0.8-1.1-0.7l-1.2,0.3l-0.3-0.6c0.9-0.4,1.4-0.6,3.4-1.4
		c1.7-0.7,2.6-1.2,3.4-1.6l0.3,0.6l-1,0.7c-0.4,0.4-0.4,0.7-0.1,1.3c0.1,0.4,1,2.2,1.9,4.5c1,2.4,2.4,5.4,2.7,6l0.8,0.5
		c0.6-0.1,2-0.7,3-1.2c0.5-0.2,0.8-0.5,1-1.2c0.2-0.8,0.4-2.4,0.4-3.6l0.8-0.1C569.8,647.6,570.2,650.7,570,651.7z M579.9,648.1
		c-4.2,1.8-6.5,0.5-7.8-1.6c-1-1.6-2.4-4.9-3.9-8.4c-0.3-0.7-0.7-0.9-1.3-0.8l-1.2,0.3l-0.3-0.6c0.7-0.3,1.9-0.8,3.5-1.5
		c1.7-0.8,2.8-1.3,3.6-1.7l0.3,0.6l-0.9,0.6c-0.5,0.4-0.6,0.9-0.3,1.6c0.7,1.7,1.9,4.4,2.5,5.6c0.5,1.1,1,2.1,1.5,2.8
		c1.1,1.5,2.7,2,5,1c1.6-0.7,3-2.1,1.9-5.3c-0.6-1.8-2.4-5.7-3.2-7.2c-0.5-1-0.9-1.3-1.7-1.1l-1.3,0.3l-0.3-0.6
		c0.8-0.3,1.7-0.7,2.8-1.1c1.6-0.7,2.1-1,2.7-1.3l0.3,0.6l-0.9,0.6c-0.5,0.4-0.6,0.8-0.1,2c0.3,0.8,1.8,4.4,2.4,6
		C585,643.8,583.5,646.5,579.9,648.1z M598.7,638.6c-0.9,1-2.3,1.9-3.7,2.5c-1,0.4-4.9,2-6.5,2.7l-0.3-0.6c0.7-0.4,1-0.6,1.3-0.9
		c0.3-0.3,0.3-0.6,0.1-1.3c-0.2-0.6-0.8-2.1-2.3-5.3c-1.1-2.4-1.8-4-2.4-5.3c-0.3-0.7-0.6-0.8-1.1-0.8l-1.3,0.3l-0.3-0.6
		c0.7-0.3,1.7-0.7,3.3-1.4c1.8-0.8,3.5-1.6,4.1-1.9c2-0.9,4.7-1.5,5.9,1.3c0.6,1.3,0.2,2.9-1.4,4.2l0.1,0.1c2.5-0.6,4.4-0.2,5.3,1.9
		C600.5,635.4,600.1,637,598.7,638.6z"/>
	<path class="st0" d="M591.5,633.7l-0.8,0.4l-0.1,0.2c0.8,1.7,1.8,4,2.3,5.2l0.7,0.6c0.7,0.3,1.6,0.1,1.8,0c1.5-0.7,1.9-2.2,0.9-4.4
		C595.5,633.5,593.7,632.8,591.5,633.7z"/>
	<path class="st0" d="M592.9,631.9c0.5-0.7,0.5-1.5,0-2.5c-0.8-1.8-2.3-2.6-4.4-1.7l-0.4,0.3l0,0.4c0.4,1,1.3,3.2,2.1,4.8l0.2,0.1
		l1.2-0.5C592.1,632.5,592.7,632.1,592.9,631.9z"/>
	<polygon class="st0" points="399.9,353.5 185.7,448.4 185.7,459.9 399.9,365.1 614.1,459.9 614.1,448.4 	"/>
	<polygon class="st0" points="399.9,329.5 185.7,424.3 185.7,435.8 399.9,341 614.1,435.9 614.1,424.4 	"/>
	<path class="st0" d="M626,607.3v55.9l-70.7,31.5c0,0,0.3,11,14.3,9.5c14-1.5,71.6-18,122.6,13.5c0,0-7.5-25.8-42.5-54.9
		c23-26.1,54.1-20.1,54.1-20.1S684.9,612,626,607.3z"/>
	<path class="st0" d="M173.6,607.3c-58.9,4.7-77.7,35.4-77.7,35.4s31-5.9,54.1,20.1c-35,29.1-42.5,54.9-42.5,54.9
		c51-31.5,108.6-15,122.6-13.5s14.3-9.5,14.3-9.5l-70.7-31.5V607.3z"/>
	<path class="st0" d="M155.2,228.6c9.3-1.2,18.5-5.3,17-21.5c0,0,19.7,2.8,12,24.2c-5.5,15.5-19,29.5-21.2,32.5s-11.3,21.7,4.3,30.4
		c9.2,4.5,18.4,0,18.4,0s1.3,8.5,6.5,15.2c2.5,2.8,2,26-6.5,36.7c-6.7,7.2-5.3,11.7-4.7,16.7c0.7,5,4.3,2.3,3.2,10.7
		c-2,0.2-2.7,3.7,0.3,5.5c3,1.8,1.8,9.7,3.3,12.5s3.1,6.5,3.1,6.5l5.1-2.2l-0.3-0.9c0,0,0.1-2.6,2.1,0.1l23.2-10.3
		c0,0-2.8,0.8-8.5-4.9s-8.8-5.7-10.5-5.5c0,0-1.2-4.3-2-7.3s1.4-9.6,22.5-28.8c9.4-9.4,6.1-23.8,6.1-23.8s10.1-8.6,12.5-11
		c2.4-2.4,6.5-1.5,6.5,0.7c0,2.2,0.3,19.7,3.5,22.2c0.7,1.8-7.5,3.3-7.6,8.2c0,2.8,0.1,5.3,0.1,5.3s14.6,4.1,16.9,10.5
		c0,0,20.3,1.1,26.4,5.3l-101.4,44.9l0,11.5L399.9,317l214.2,94.8l0-11.5l-212.7-94.2c38-0.6,70.1-25.5,81.6-59.8c3.1,2,8,1.8,8,1.8
		s0.5-2.4,4.6-4.9c7.3-4.1,10.8-0.8,7.8,0c-9.8,1.6-10.6,4.9-5.3,6.8c4.7,1.5,9.5,2.6,13.9,3.3l3.9-5.1c0,0,3.3-3.3,1.3,1.2
		c-0.7,1.5-1.6,3-2.6,4.3c10.5,1.5,18.7,1.4,18.7,1.4c1.3,2.3,4.2,4.4,9.2,6.9s11.1,10.8,11.1,10.8c-7.8-5.9-19.3-3.4-23.1-1.3
		s-12.3,14.5-2.8,36.4c11,21.1-7.3,25.3-7.3,25.3h-10.1c0,0-2.4-3.1-10.4-3.1c-14.6,0.1-13,13.6-13,13.6l5.4,2.4
		c1.4-2.5,4.3-6.5,8.5-7c6.2-0.8,6.5,2,6.5,2s-8.4-0.6-12.5,6.1l18.2,8.1c6.1-4.2,26.4-5.3,26.4-5.3c2.3-6.4,16.9-10.5,16.9-10.5
		s0.1-2.5,0.1-5.3c-0.1-4.9-8.3-6.3-7.6-8.2c3.2-2.5,3.5-20,3.5-22.2c0-2.2,4.1-3.1,6.5-0.7c2.4,2.4,12.5,11,12.5,11
		s-3.3,14.3,6.1,23.8c21.1,19.1,23.3,25.8,22.5,28.8s-2,7.3-2,7.3c-1.7-0.2-4.8-0.2-10.5,5.5s-8.5,4.9-8.5,4.9l23.2,10.3
		c2-2.7,2.1-0.1,2.1-0.1l-0.3,0.9l5.1,2.2c0,0,1.6-3.7,3.1-6.5s0.3-10.7,3.3-12.5c3-1.8,2.3-5.3,0.3-5.5c-1.2-8.3,2.5-5.7,3.2-10.7
		c0.7-5,2-9.5-4.7-16.7c-8.5-10.7-9-33.9-6.5-36.7c5.2-6.7,6.5-15.2,6.5-15.2s9.2,4.5,18.4,0c15.7-8.7,6.5-27.4,4.3-30.4
		c-2.2-3-15.7-17-21.2-32.5c-7.7-21.4,12-24.2,12-24.2c-1.5,16.2,7.7,20.4,17,21.5s17-4.2,12.8-5.2c-9.2-1.8-11.3-7.3-11.3-7.3
		l0.3-2l1,1.2c5,7.2,11.2,6,8.7,4.2c-9-5.5-3.2-7.7-5.8-12.3c-2.7-4.7-7.2-8.3-23.2-6.5c-16,1.8-21.5,19-19.4,29.9
		c2.2,10.8,16,29.4,19.2,33c3.2,3.7,8.3,13.2,1.3,18.7s-12.8-2.7-12.8-2.7s1.2-6.3-2-12.2s-21-19.9-21-19.9l-0.5-5.2
		c-5.3-2.8-11.3-15.3-6.5-21c6-6.5,7.8-19.9,7.8-19.9c-1.2,17.5-5.8,15.2-7.2,23c-1.5,10.5,3.8,14.3,8.2,14.2c2-0.1,2.9-1.8,3.2-4.3
		c-0.7-0.7-1.4-1.5-1.9-2.3c-1.5-2.4,0.8-1.5,0.8-1.5l1.4,1.2c0.1-2.6-0.1-5.6-0.3-8.3c-0.3-6.7,4.7-6.2,4.7-6.2s0-2.8-1.1-7.1
		c-2.6-7.4,2-13,2-13s11.1-15.4,5.4-5.9s-6.5,13.8-5.3,18.3s5,3,5,3c0-11,5.5-15.8,5.5-15.8c-0.5-14.8,3.8-12.8,3.8-12.8
		c-2.8,5.4-1.2,13.1-1.2,13.1c6.1-0.2,8.6-5.5,8.6-5.5s-2.1,0.8-2.6-4.1s1.6-6.3,3.6-10.9s1.9-8.9-4.5-13.3s-8.3-7-8.3-9
		s-0.1-2.9,1.5,0.8s6.6,5.1,10.8,7.4s3.8,6.5,4.6,4.1s-0.1-5.4-4.3-9.3s-7.6-9.3-1.6-3.3s10.3,2.8,9.6,2.5s-1.6-0.6-2.9-2.1
		s-6.6-5.1-12-7.6c-8.1-3.9-6.5-6,0.4-2.1c6.9,3.9,8.8,3,8.8,1.9c0-1.1-1.8-5-6.4-10.4s-4.3-4.1-8.3-0.9c-6.1,4.8-7.4,4.1-4.8,1.9
		c10.8-7.5,5.4-13.1,5.4-13.1s-2.9,4.5-5.3,2.6c-4.7-3.9-9.4-4.6-17.3-4.3c-0.8,2.7-2.4,6.9-7.1,7.8c-5,0.9-6.4,5.2-6.4,5.2
		s-1.1,0.9-1.4,0c0.3-1.5,1.2-5,7-7c3-1,4.7-3.6,5.6-5.8c-1.7,0.1-3.5,0.2-5.4,0.4c-12.8,1-12.1,11.3-15.4,11.4
		c-3.8,0.1-6.5,3.1-10.1,4.1c-16.3,4.5-20.4,9.7-17.9,11.9s-0.7,9.8,3.2,9.8c10.1-0.4,8.3,1.2,8.3,1.2l-0.4,1.7l0.9-0.3
		c11.9-1.6,7.2,7.4,7.2,7.4h-5.2l-0.3,0.9l-0.7,0.2h-0.8c0,0-1-2-3.3-2s-4.9,1.3-3.3,5.8s6.5,3.7,6.5,1.3c3.8-0.2,9.8,2.4-0.1,4.3
		c-19.5,3.5-20.7,8.3-16.8,7.8s5-0.2,3.7,0.5c-1.3,0.7-10.2,6.8-14.8,4.3s-24-13.3-24-15.3s0-12.2-11-17.7
		c-10.2-4.4-16.8-1.3-20.1,1.3c4,0.9,16.8,4,9.5,3.9c-3.5-0.1-8.6-1.3-10.8-1.9c-16.1-19.8-40.6-32.4-68-32.4
		c-27.5,0-52,12.7-68.1,32.5c-2.4,0.6-7.2,1.8-10.5,1.8c-7.3,0.1,5.4-2.9,9.5-3.9c-3.3-2.6-9.9-5.7-20.1-1.3
		c-11,5.5-11,15.7-11,17.7s-19.4,12.8-24,15.3c-4.7,2.5-13.5-3.7-14.8-4.3c-1.3-0.7-0.2-1,3.7-0.5s2.7-4.3-16.8-7.8
		c-9.8-1.8-3.9-4.5-0.1-4.3c0,2.3,4.9,3.2,6.5-1.3s-0.9-5.8-3.3-5.8s-3.3,2-3.3,2h-0.8L246,171l-0.3-0.9h-5.2c0,0-4.7-9,7.2-7.4
		l0.9,0.3l-0.4-1.7c0,0-1.8-1.6,8.3-1.2c3.8-0.1,0.8-7.6,3.2-9.8c2.4-2.3-1.7-7.4-17.9-11.9c-3.6-1-6.4-4-10.1-4.1
		c-3.3-0.1-2.5-10.4-15.4-11.4c-2-0.2-3.7-0.3-5.4-0.4c0.9,2.2,2.6,4.8,5.6,5.8c5.8,2,6.7,5.5,7,7c-0.4,0.9-1.4,0-1.4,0
		s-1.4-4.3-6.4-5.2c-4.7-0.8-6.3-5.1-7.1-7.8c-7.9-0.3-12.6,0.4-17.3,4.3c-2.4,1.9-5.3-2.6-5.3-2.6s-5.3,5.6,5.4,13.1
		c2.6,2.3,1.4,2.9-4.8-1.9c-4-3.3-3.6-4.5-8.3,0.9s-6.4,9.3-6.4,10.4c0,1.1,1.9,2,8.8-1.9c6.9-3.9,8.5-1.8,0.4,2.1
		c-5.4,2.5-10.8,6.1-12,7.6s-2.3,1.9-2.9,2.1s3.6,3.5,9.6-2.5s2.5-0.6-1.6,3.3s-5.1,6.9-4.3,9.3s0.5-1.9,4.6-4.1s9.1-3.8,10.8-7.4
		s1.5-2.8,1.5-0.8s-1.9,4.6-8.3,9s-6.5,8.6-4.5,13.3s4.1,6,3.6,10.9s-2.6,4.1-2.6,4.1s2.5,5.3,8.6,5.5c0,0,1.5-7.7-1.2-13.1
		c0,0,4.3-2,3.8,12.8c0,0,5.5,4.8,5.5,15.8c0,0,3.8,1.5,5-3s0.5-8.8-5.3-18.3s5.4,5.9,5.4,5.9s4.6,5.6,2,13
		c-1.1,4.3-1.1,7.1-1.1,7.1s5-0.5,4.7,6.2c-0.1,2.7-0.3,5.7-0.3,8.3l1.4-1.2c0,0,2.3-0.9,0.8,1.5c-0.5,0.7-1.2,1.5-1.9,2.3
		c0.4,2.5,1.3,4.3,3.2,4.3c4.3,0.2,9.7-3.7,8.2-14.2c-1.3-7.8-6-5.5-7.2-23c0,0,1.8,13.3,7.8,19.9c4.8,5.7-1.2,18.2-6.5,21l-0.5,5.2
		c0,0-17.9,14-21,19.9c-3.2,5.8-2,12.2-2,12.2s-5.8,8.2-12.8,2.7c-7-5.5-1.8-15,1.3-18.7c3.2-3.7,17-22.2,19.2-33
		c2.2-10.8-3.3-28-19.4-29.9c-16-1.8-20.5,1.8-23.2,6.5c-2.7,4.7,3.2,6.8-5.8,12.3c-2.5,1.8,3.7,3,8.7-4.2l1-1.2l0.3,2
		c0,0-2.2,5.5-11.3,7.3C138.2,224.4,145.8,229.8,155.2,228.6z M607.1,144.4c7.4,10.6-6,10-6,10s2.5-0.4,5-2.8s-1.3-6.4-5.4-9.8
		s-10.3,0.9-10.3,0.9C592.3,139.6,599.8,133.8,607.1,144.4z M586.9,157.7l5.5,3.8c0,0,2.2-8.2-9.7-16.8c0,0,17.4,4.2,11.2,24.4
		c-1,3-2.7-4.8-2.7-4.8s-2.2,9.3-10.3,13.2C580.9,177.4,593,165.6,586.9,157.7z M566,144.9c0,0-2.8-3.1,3.2-4.3c0,0-4,3.5,1.2,3.3
		c4-0.2-0.2,3-2,3s-3.3,0.7-4,2.3C564.3,149.2,563.1,146.9,566,144.9z M553.5,153.2h4.3v2h-4.3V153.2z M543.5,151v-1.3
		c0.1-0.7,1.1-2.5,4.5-2.5c3.4,0,4.7-1.1,4.7-1.1s1.1-0.1,0.6,0.8c-0.5,0.8-1.4,2.4-5.1,2.8C544.5,150.1,543.5,151,543.5,151z
		 M551.8,158.9c0,0-3.5-4,0.3-1.8c3.8,2.2,9.5-0.3,9.5-0.3s2.2-0.3,0.7,1.3C558.7,162.4,551.8,158.9,551.8,158.9z M292.8,341.2
		c0,0,0.3-2.8,6.5-2c4.2,0.6,7.1,4.5,8.5,7l0.6-0.2l-3.1,1.4C301.2,340.6,292.8,341.2,292.8,341.2z M491.8,236.7l-6.1-0.2
		c0.2-0.8,0.3-1.5,0.4-2.3h0.4l2.3,0.4l3,0.9V236.7z M492,227.2h-1.5l-3.4-0.6c0.1-0.9,0.1-1.8,0.2-2.7l0.2-0.1h0.9l4,2.7L492,227.2
		z M494.6,199.3l0.9-3.2h0.6c-1.3,9,8,13.3,10.5,14.8s3.7-1,4.8,1.3c1.2,2.3,3.4,6.1,5,5.8c3.7-0.6,4.6-0.4,3.6,0.4
		c-2.4,1.9-3.8,4.3-2.5,4.5s4.9-3.4,3.6-1c-1.3,2.4-2,3.8,0.1,4c2.1,0.3,4.9,6.1,1.9,4.8c-3-1.4-12.1-2.5-12.1-2.5s-7.8,0-10.9-3.1
		c-5.5-6.5-11.1-5.7-12.7-5.3c0-0.4,0-0.8,0-1.3c0-9.6-1.6-18.9-4.4-27.5h5.9C489.8,200.9,494.6,199.3,494.6,199.3z M479.7,179.5h1
		l0.7,0.3l0.6,0.5l-0.8,1.1c0,0-0.2,0.8-0.5,0.8c-0.3,0.1-0.8,0-1.1-0.1c-0.3-0.7-0.6-1.4-1-2.1l0,0L479.7,179.5z M473.7,169.6h1.2
		l1.5,0.8l1.8,0.9v1.2l-1.8-0.3l-1.3-0.6l-1.4-0.3c-0.4-0.6-0.8-1.2-1.2-1.8H473.7z M376.9,144.5L376.9,144.5l-8.3,13l31.4,12
		l31.7-12.5l-8.1-12.3c16.8,5.4,31.2,16.4,40.9,30.8l-16.3-4v33.4l20,25.7l9.4-10.2c-0.4,16.7-6.1,32.1-15.5,44.6v-14.8l-31.9,7.7
		l-19.4,28l13.9,6.1c-7.8,2.6-16.1,4.1-24.7,4.1c-8.5,0-16.8-1.4-24.4-4l14.1-6.2l-19.4-28l-31.9-7.7v15.4
		c-9.8-12.8-15.8-28.8-16-46.1l10.2,11l20-25.7v-33.4l-17.2,4.2C345.1,161.1,359.7,149.9,376.9,144.5z M312.7,226.6l-3.1,0.6h-1.5
		l-0.4-0.7l4-2.7h0.8C312.5,224.7,312.6,225.6,312.7,226.6z M308.3,235.4l3-0.9l2.3-0.4h0.1c0.1,0.8,0.3,1.5,0.4,2.3l-5.8,0.2V235.4
		z M322,171.3l1.8-0.9l1.5-0.8h1.2h0.9c-0.4,0.6-0.8,1.2-1.2,1.8l-1.1,0.2l-1.3,0.6l-1.8,0.3V171.3z M318.8,179.8l0.7-0.3h1l0.9,0.5
		c-0.4,0.7-0.7,1.5-1.1,2.2c-0.3,0-0.6,0.1-0.8,0c-0.3-0.1-0.5-0.8-0.5-0.8l-0.8-1.1L318.8,179.8z M278.8,226c2.1-0.3,1.4-1.6,0.1-4
		s2.4,1.3,3.6,1s-0.1-2.6-2.5-4.5c-1.1-0.9-0.1-1.1,3.6-0.4c1.6,0.3,3.9-3.5,5-5.8c1.2-2.3,2.3,0.2,4.8-1.3s11.8-5.8,10.5-14.8h0.6
		l0.9,3.2c0,0,4.8,1.6,5.7-8.2h5.6c-2.9,8.7-4.4,17.9-4.4,27.5c0,0.4,0,0.8,0,1.2c-1.9-0.4-7.2-0.9-12.4,5.3
		c-3.1,3.1-10.9,3.1-10.9,3.1s-9.1,1.1-12.1,2.5S276.7,226.3,278.8,226z M257.6,262.1c5-2.5,7.9-4.6,9.2-6.9c0,0,8.2,0.2,18.7-1.4
		c-0.9-1.3-1.9-2.8-2.6-4.3c-2.1-4.5,1.3-1.2,1.3-1.2l3.9,5.1c4.5-0.8,9.2-1.8,13.9-3.3c5.3-2,4.5-5.2-5.3-6.8c-3-0.8,0.5-4.1,7.8,0
		c4.1,2.5,4.6,4.9,4.6,4.9s4.7,0.2,7.8-1.6c11.5,34.2,43.5,58.9,81.5,59.6l-85.1,37.7c0,0,1.6-13.5-13-13.6c-8,0-10.4,3.1-10.4,3.1
		h-10.1c0,0-18.3-4.1-7.3-25.3c9.5-21.9,1.1-34.3-2.8-36.4s-15.4-4.6-23.1,1.3C246.5,272.9,252.6,264.6,257.6,262.1z M247.4,146.1
		c0,0,1.3,1.1,4.7,1.1c3.4,0,4.4,1.8,4.5,2.5v1.3c0,0-1-0.8-4.7-1.3c-3.7-0.4-4.6-2-5.1-2.8C246.4,146,247.4,146.1,247.4,146.1z
		 M242.3,153.2h4.3v2h-4.3V153.2z M238.4,156.7c0,0,5.7,2.5,9.5,0.3c3.8-2.2,0.3,1.8,0.3,1.8s-6.8,3.5-10.5-0.8
		C236.3,156.4,238.4,156.7,238.4,156.7z M229.8,143.9c5.2,0.2,1.2-3.3,1.2-3.3c6,1.2,3.2,4.3,3.2,4.3c2.9,2,1.6,4.3,1.6,4.3
		c-0.7-1.7-2.2-2.3-4-2.3C229.9,146.9,225.7,143.7,229.8,143.9z M199.3,141.9c-4.1,3.4-7.9,7.4-5.4,9.8s5,2.8,5,2.8s-13.4,0.6-6-10
		c7.4-10.6,14.9-4.9,16.6-1.6C209.6,142.8,203.5,138.6,199.3,141.9z M208.9,164.2c0,0-1.7,7.8-2.7,4.8
		c-6.2-20.2,11.2-24.4,11.2-24.4c-11.8,8.7-9.7,16.8-9.7,16.8l5.5-3.8c-6.2,7.8,6,19.7,6,19.7C211.1,173.6,208.9,164.2,208.9,164.2z
		"/>
	<path class="st0" d="M335.9,121.7c1.2,3,17.2,17.2,28.5-5.8c0,0,14.8,17.9,35.5-5.7c20.7,23.5,35.5,5.7,35.5,5.7
		c11.3,23,27.4,8.8,28.5,5.8s2.5-7,10.2-19.7c7.7-12.7,24.7-28.7,20.5-27.9c-36.4,7.2-40.2,32-40.2,32c12.6-1.2,8,13.2-3.7,10.2
		c-10.6-2.7-9.5-13.6-9.2-15.7c4.5-0.8,7.9-4.7,7.9-9.4c0-5.3-4.3-9.6-9.6-9.6c-5.3,0-9.6,4.3-9.6,9.6c0,3.6,2,6.7,4.9,8.4
		c-4.9,14.2-13.9,13.7-17.8,13.7c-3.8,0-13.2-4.5-10.2-11.3c4.2-6.3,12-0.8,12-0.8c-2.3-35.7-19.4-51.9-19.4-51.9
		s-17,16.2-19.4,51.9c0,0,7.8-5.5,12,0.8c3,6.8-6.3,11.3-10.2,11.3c-3.8,0-12.9,0.5-17.8-13.7c2.9-1.6,4.9-4.8,4.9-8.4
		c0-5.3-4.3-9.6-9.6-9.6c-5.3,0-9.6,4.3-9.6,9.6c0,4.7,3.4,8.6,7.9,9.4c0.3,2.1,1.3,13-9.2,15.7c-11.7,3-16.3-11.4-3.7-10.2
		c0,0-3.8-24.9-40.2-32C301,73.3,318,89.3,325.7,102C333.4,114.7,334.7,118.7,335.9,121.7z"/>
	<polygon class="st0" points="399.9,244.6 419.1,244.6 431.1,208.9 399.9,184.9 368.7,208.9 380.7,244.6 	"/>
	<path class="st0" d="M163.7,562.3c3.8,8.2,9.9,12.5,16.3,14.6v-13.5c-1,0.1-2,0.3-3,0.4C168.4,565.1,163.7,562.3,163.7,562.3z"/>
	<path class="st0" d="M180,513.1c-6.1-8.3-12.5-8.7-12.5-8.7s2.2,4.5,1.3,10.2c-2.2,13,3.8,26.5,3.8,26.5c-4.5-2.2-18.2-1.3-23,0
		c-4.8,1.3-12,0.5-12,0.5c11,14.8,29.9,16.8,42.3,16.2V513.1z"/>
	<path class="st0" d="M662.3,541.6c0,0-7.2,0.8-12-0.5c-4.8-1.3-18.5-2.2-23,0c0,0,6-13.5,3.8-26.5c-0.8-5.7,1.3-10.2,1.3-10.2
		s-7.1,0.4-13.5,10.1v43.2C631.4,558.5,651.1,556.8,662.3,541.6z"/>
	<path class="st0" d="M619,563.3v13.9c6.8-2,13.3-6.3,17.3-14.9c0,0-4.7,2.8-13.3,1.5C621.8,563.6,620.4,563.4,619,563.3z"/>
</g>
</svg>
