<?xml version="1.0" encoding="utf-8"?>
<!-- Generator: Adobe Illustrator 22.1.0, SVG Export Plug-In . SVG Version: 6.00 Build 0)  -->
<svg version="1.1" id="图层_1" xmlns="http://www.w3.org/2000/svg" xmlns:xlink="http://www.w3.org/1999/xlink" x="0px" y="0px"
	 viewBox="0 0 800 800" style="enable-background:new 0 0 800 800;" xml:space="preserve">
<style type="text/css">
	.st0{fill:#0067AC;}
</style>
<g>
	<path class="st0" d="M146.9,289.4c0.6-3.8,4.6-9.8,4.6-9.8c-22.5,0-27,29.5-27,29.5C142,307.8,146.1,294.4,146.9,289.4z"/>
	<path class="st0" d="M104.5,363.9l-2.5,2.8v2.4c0,0,1.6,2.8,3.6,2.5s3.1-5.5,3.1-5.5v-7.4c0,0,2.4,3.6,18-7.4
		c18.1-12,13-24.6,13-24.6s-0.8,2.8-4.4,4c-6.8,1.9-19.2,8.9-19.2,8.9v-10c36.1-5.5,31-22.5,31-22.5s-2.6,3.5-6.2,3.5
		c-11.8-0.2-19.4,6.5-19.4,6.5c1.1-4.1,0.2-11.8-2.8-15.9s-2-10-2-10c-15.5,8.1-5.2,31.6-5.2,31.6v13.8l-0.6,0.9
		c-2.4-7.6-7.5-12.6-9.4-15.1s-2.8-8.6-2.8-8.6c-15.4,21.1,5.8,45,5.8,45V363.9z"/>
	<path class="st0" d="M106.9,431.9c0.8,5.3,4.3,11,4.3,11l2.3,0.3l1.5-1.8l-0.5-2.2c-2.3-2.7-1.7-8.5-1.7-8.5s5.2-3,11.7-13
		c12.8-19.5,2.7-31,2.7-31s0.3,5-5.7,10.2c-8.7,6.8-12.3,17.5-12.3,17.5c-3.2-7.2-2-17.8-2-17.8s3.8,0.1,15.5-12.1
		c15.1-14.2,8.9-29.2,8.9-29.2s-1.2,4.9-9.8,9.8c-11.7,6.3-16,15-16,15c-1.7-7.2-11-17-14.5-19.3c-3.5-2.3-5.7-8.5-5.7-8.5
		c-10.2,23,15,42.8,16.3,45c-0.2,5.8,0.5,10.5,0.5,10.5c-7.5-2.7-20.2-14.7-20.2-14.7C80.4,422.1,106.9,431.9,106.9,431.9z"/>
	<path class="st0" d="M121.4,471.3c1.2,3.2,3,7.2,3,7.2l2,0.8l1.7-1l0.7-1.3l-4.3-9.2c0,0-1.7-5.3,1.3-8.7c3-3.3,9-13,10.2-22.2
		s-2.7-17-7.3-19.7c0,0,1.7,4.7-2.2,9.3c-3.8,4.7-11,15.5-10,23.7c0,0-7.7-9.3-20.2-12c-6.5-1.8-9.3-7.2-9.3-7.2
		s-3.2,21.8,26.2,32.8C120.6,466.9,120.3,468.1,121.4,471.3z"/>
	<path class="st0" d="M110.1,476.4c-7.8-0.5-13.3-5.3-13.3-5.3c3.5,27.8,41.2,30.3,41.2,30.3l7.3,8.5h1.2l1.5-0.8l0.2-1.3l-0.7-1.7
		c0,0-2-3.2-4.3-5.2c-2.3-2-1.2-6-1.2-6s2.3-3.3,3.8-10c8.7-30.7-7.7-37.3-7.7-37.3s1.8,9.3-2,14.5c-8.1,10.5-5.9,22.3-5.9,22.3
		C127.8,481.4,117.9,476.9,110.1,476.4z"/>
	<path class="st0" d="M149.1,528.3c7.2-0.3,9.7,2.5,9.7,2.5l7.3,6.3l2.3,0.7l1.3-2.8l-0.8-1c0,0-1.5-1.2-4.2-3
		c-2.7-1.8-1.5-4.2-0.8-7.5c8.2-43.3-13.2-46.7-13.2-46.7s1.8,4.7-0.5,13.5c-3.5,10-1,23.7-1,23.7c-6.2-4.5-19.7-4-24.2-4
		s-10.3-2.3-10.3-2.3C120.4,524.8,141.9,528.6,149.1,528.3z"/>
	<path class="st0" d="M653.1,289.4c0.8,5,4.8,18.4,22.4,19.8c0,0-4.5-29.5-27-29.5C648.6,279.7,652.6,285.7,653.1,289.4z"/>
	<path class="st0" d="M659.1,310.6c-3.6,0-6.2-3.5-6.2-3.5s-5.1,17,31,22.5v10c0,0-12.5-7-19.2-8.9c-3.6-1.2-4.4-4-4.4-4
		s-5.1,12.6,13,24.6c15.6,11,18,7.4,18,7.4v7.4c0,0,1.1,5.2,3.1,5.5s3.6-2.5,3.6-2.5v-2.4l-2.5-2.8v-5.2c0,0,21.1-23.9,5.8-45
		c0,0-0.9,6.1-2.8,8.6s-7,7.5-9.4,15.1l-0.6-0.9v-13.8c0,0,10.2-23.5-5.2-31.6c0,0,1,5.9-2,10s-3.9,11.8-2.8,15.9
		C678.5,317.1,670.8,310.3,659.1,310.6z"/>
	<path class="st0" d="M694.1,380.1c0,0-4.3-8.7-16-15c-8.5-4.9-9.8-9.8-9.8-9.8s-6.2,15,8.9,29.2c11.8,12.2,15.5,12.1,15.5,12.1
		s1.2,10.6-2,17.8c0,0-3.7-10.7-12.3-17.5c-6-5.2-5.7-10.2-5.7-10.2s-10.2,11.5,2.7,31c6.5,10,11.7,13,11.7,13s0.7,5.8-1.7,8.5
		l-0.5,2.2l1.5,1.8l2.3-0.3c0,0,3.5-5.7,4.3-11c0,0,26.5-9.8,24.5-38.8c0,0-12.7,12-20.2,14.7c0,0,0.7-4.7,0.5-10.5
		c1.3-2.2,26.5-22,16.3-45c0,0-2.2,6.2-5.7,8.5C705.1,363.1,695.7,372.9,694.1,380.1z"/>
	<path class="st0" d="M703.7,438.3c-12.5,2.7-20.2,12-20.2,12c1-8.2-6.2-19-10-23.7c-3.8-4.7-2.2-9.3-2.2-9.3
		c-4.7,2.7-8.5,10.5-7.3,19.7s7.2,18.8,10.2,22.2c3,3.3,1.3,8.7,1.3,8.7l-4.3,9.2l0.7,1.3l1.7,1l2-0.8c0,0,1.8-4,3-7.2
		c1.2-3.2,0.8-4.3,8.3-7.3c29.3-11,26.2-32.8,26.2-32.8S710.2,436.4,703.7,438.3z"/>
	<path class="st0" d="M663.9,462.1c-3.8-5.2-2-14.5-2-14.5s-16.3,6.7-7.7,37.3c1.5,6.7,3.8,10,3.8,10s1.2,4-1.2,6
		c-2.3,2-4.3,5.2-4.3,5.2l-0.7,1.7l0.2,1.3l1.5,0.8h1.2l7.3-8.5c0,0,37.7-2.5,41.2-30.3c0,0-5.5,4.8-13.3,5.3
		c-7.8,0.5-17.7,5-20.2,8C669.7,484.4,672,472.6,663.9,462.1z"/>
	<path class="st0" d="M685.2,507.6c0,0-5.8,2.3-10.3,2.3s-18-0.5-24.2,4c0,0,2.5-13.7-1-23.7c-2.3-8.8-0.5-13.5-0.5-13.5
		s-21.3,3.3-13.2,46.7c0.7,3.3,1.8,5.7-0.8,7.5c-2.7,1.8-4.2,3-4.2,3l-0.8,1l1.3,2.8l2.3-0.7l7.3-6.3c0,0,2.5-2.8,9.7-2.5
		C658.1,528.6,679.6,524.8,685.2,507.6z"/>
	<path class="st0" d="M662.1,541.4c0,0-7.2,0.8-12-0.5s-18.5-2.2-23,0c0,0,6-13.5,3.8-26.5c-0.8-5.7,1.3-10.2,1.3-10.2
		s-11.6,0.6-18.4,20.5l0-52.9l-214-94.8l-214,94.7l0,52.4c-6.8-19.4-18.2-19.9-18.2-19.9s2.2,4.5,1.3,10.2
		c-2.2,13,3.8,26.5,3.8,26.5c-4.5-2.2-18.2-1.3-23,0s-12,0.5-12,0.5c12.8,17.4,36.5,17.1,48,15.7l0,5.5c-3.2,0.2-6.2,0.5-8.7,0.9
		c-8.7,1.3-13.3-1.5-13.3-1.5c4.9,10.6,13.8,14.7,22,15.9v0.1l214,94.8l214-94.8l0-0.1c8.3-1.2,17.3-5.3,22.2-16
		c0,0-4.7,2.8-13.3,1.5c-2.6-0.4-5.7-0.7-8.9-0.9l0-5.5C625.3,558.5,649.2,558.9,662.1,541.4z M335.2,582.7c-8.5,0-23.9,0-31.3-3.8
		c-2.7-1.6-5.6-3.8-9.2-8c-6.9-8.5-16.8-23.9-23.7-34c-1.1-1.4-3.1-2.2-4.5-2.4c-2.4-0.4-10.9-0.4-13.6-0.4l-0.7,1.1
		c0,9.9,0,25.7,0.4,30.4c0.4,4.9,1.8,6.9,6.5,7.8c2.9,0.7,6.1,1.1,11,1.6c0.9,0.9,0.5,6.5-0.6,7.2c-4.2,0-11.9-0.5-26.6-0.5
		c-11.9,0-20.6,0.5-24.8,0.5c-1.1-1.3-1.1-6.1,0-7.2c4.2-0.4,7.1-0.9,9.8-1.5c4.3-0.9,6.1-2.7,6.5-9.8c0.4-3.6,0.6-26.6,0.6-36.7
		c0-24.2,0-36.4-0.2-40.5c-0.2-5.4-1.2-7.2-6.1-8.5c-3.1-0.7-6.5-1.3-10.7-1.8c-0.9-1.1-0.5-6.3,0.5-7.1c4,0,16.6,0.5,22.8,0.5
		c14.8,0,25.1-0.2,31.8-0.2c21.5,0,33.8,13,33.8,28.6c0,14.8-9,24.1-20.4,29.3l-0.4,1.4c6.3,10,19.7,27.1,28.6,36.7
		c6.9,7.1,9,7.8,21.9,9.9C337.6,576.2,336.7,582.3,335.2,582.7z M346.3,618.2c-1.6,0-3.2-0.5-3.7-0.8c-0.2-0.4-0.7-3-0.7-3.8
		l0.7-0.2c0.6,1.7,1.2,2.6,2.1,3.3c0.6,0.4,1.5,0.6,2.3,0.6c1.2,0,2.1-0.8,2.1-2c0-1.2-0.5-2-2.7-3.4c-2.3-1.5-3.8-2.6-3.8-5
		c0-2.9,2.3-4.4,5.1-4.4c1.8,0,2.8,0.3,3.9,0.4c-0.2,1-0.3,2-0.4,3.6l-0.7,0c-0.2-1.5-0.5-2.2-1.1-2.7c-0.6-0.4-1.1-0.5-1.9-0.5
		c-1.3,0-2.2,0.9-2.2,2.1c0,1,0.5,1.8,1.5,2.5c1,0.7,1.6,1,2.7,1.7c1.8,1.2,2.6,2.3,2.6,4C352.1,616.2,350,618.2,346.3,618.2z
		 M361.3,617.9c-1.1,0-2-0.1-3.5-0.1c-2.2,0-2.8,0.1-3.7,0.1v-0.7l1.1-0.2c0.6-0.1,0.7-0.4,0.8-1.4c0.1-1,0.1-3.3,0.1-5.8
		c0-2.6,0-3.9-0.1-5l-0.6-1l-1.2-0.2v-0.7c0.9,0,1.9,0.1,3.6,0.1c2.2,0,3.1-0.1,3.5-0.1v0.7l-1.2,0.2c-0.5,0.2-0.6,0.5-0.6,1.3
		c0,0.7,0,2.8,0,4.9c0,3.4,0,4.8,0.1,5.7c0,0.4,0,1.1,0.8,1.2l1.2,0.2L361.3,617.9z M379.3,603.6l-1,0.2c-0.7,0.2-0.9,0.6-1,1.5
		c-0.1,2.3-0.2,6.2-0.2,9.3c0,1.1,0,2.5,0,3.3l-2.3,0c-1.2-1.7-7.3-9.7-8.6-11.5l-0.1,0c-0.1,2.7,0,8,0,9c0.1,1,0.4,1.4,1.1,1.6
		l1.4,0.2l0,0.7c-0.7,0-1.8-0.1-2.9-0.1c-1.4,0-2.4,0.1-3.1,0.1v-0.7l1.4-0.3c0.5-0.2,0.7-0.5,0.8-1.4c0.1-1.2,0.2-5.8,0.2-10
		c0-0.7-0.3-1.4-0.9-1.6l-1.5-0.3l0-0.7c0.9,0,2.2,0.1,3.6,0.1c0.7,0,1.4,0,1.6,0l0.9,1.3c1.8,2.4,5.5,7.2,7.2,9.2l0.1,0
		c0-3,0-6.8-0.1-8.3c-0.1-0.9-0.3-1.2-1.1-1.4c-0.4-0.1-0.8-0.1-1.4-0.2l0-0.7c0.7,0,1.8,0.1,3.2,0.1c1.1,0,2.2-0.1,2.6-0.1V603.6z
		 M392.4,617.7c-0.8,0.2-1.9,0.6-3.7,0.6c-5.4,0-8.6-2.7-8.6-8c0-2.7,1.3-5.3,3.9-6.6c1.3-0.7,3-1.1,5-1.1c1.7,0,3.7,0.3,4.9,0.4
		c-0.2,0.7-0.4,2.7-0.4,4l-0.7,0.1c-0.2-1.3-0.4-2.4-1.4-2.9c-1-0.6-2-0.7-3-0.7c-2.6,0-4.5,2.1-4.5,6.6c0,3.7,1.6,7.2,5.4,7.2
		c0.8,0,1.8-0.2,2.6-0.8c0.6-0.5,1.3-1.5,1.8-2.4l0.6,0.4C394.1,615.2,393.1,617.2,392.4,617.7z M407.3,617.5
		c-0.1,0.2-0.3,0.4-1.3,0.4c-2.1,0-4.5-0.1-6.8-0.1c-1.3,0-2.9,0.1-4.2,0.1v-0.7c0.8-0.1,1.4-0.2,1.7-0.3c0.5-0.2,0.7-0.4,0.7-1.2
		c0.1-1.4,0.1-3.5,0.1-6.1c0-1.9,0-3.8-0.1-4.7c0-0.7-0.2-0.9-0.7-1.1l-1.2-0.2l0-0.7c0.8,0,2.4,0.1,3.6,0.1h4.7
		c0.9,0,2.3,0,3.1-0.1l0.1,0.1c-0.2,0.7-0.3,2.3-0.4,3.6l-0.7,0.1c-0.1-0.9-0.3-1.5-0.5-1.9l-0.9-0.6l-3.4,0l-0.2,0.4
		c0,1.6,0,3.4,0,5l0.1,0.2c0.6,0,2.5,0,3.3,0c0.5,0,0.8-0.3,1-1l0.2-0.8l0.7,0c0,0.6-0.1,1.5-0.1,2.3c0,0.6,0.1,1.7,0.1,2.4l-0.7,0
		c-0.2-0.7-0.1-0.6-0.2-0.9l-0.9-0.8c-0.4-0.1-2.5-0.1-3.2-0.1l-0.1,0.2v4.7l0.5,0.8c0.5,0.1,1.6,0.2,2.8,0.2c1.3,0,1.6-0.1,2.1-0.7
		c0.5-0.5,1-1.5,1.4-2.4l0.7,0.2C408.3,614.4,407.7,616.7,407.3,617.5z M428.6,617.6c-0.2,0.2-0.4,0.2-1.2,0.3
		c-1.8,0-4.3-0.1-6.4-0.1c-0.7,0-1.4,0-1.7,0l0-0.6c1.7-1.3,3-2.5,4.3-4.2c0.9-1.3,1.5-2.8,1.5-4.3c0-1.7-0.8-3.2-2.6-3.2
		c-0.9,0-1.8,0.3-2.8,1.4l-0.5-0.5c1.3-2.2,3.3-3.4,5-3.4c2.1,0,4.1,1.6,4.1,4.4c0,1.7-0.9,3.2-2.7,5c-0.8,0.8-1.6,1.4-2.5,2.3
		l0,0.2c0.9,0.1,3.5,0.1,4.6,0.1c0.5,0,1.2-0.4,1.9-2l0.6,0.2C429.9,614.4,429.1,617,428.6,617.6z M439.6,617.3
		c-0.7,0.5-1.8,0.8-2.7,0.8c-1.2,0-2.1-0.2-3-0.8c-1.8-1.4-2.3-4-2.3-6.8c0-2.2,0.6-4.8,2.3-6.2c1-0.8,2.2-1.1,3.3-1.1
		c1.7,0,2.9,0.7,3.6,1.6c0.9,1.1,1.5,3,1.5,5.5C442.3,613.2,441.7,615.9,439.6,617.3z M451,617.9c-0.9,0-2.5-0.1-3.9-0.1
		c-1.8,0-2.7,0.1-3.5,0.1v-0.7l1.2-0.2c0.7-0.2,0.8-0.8,0.8-1.6c0-1,0-2.4,0.1-4.8c0-2,0-3.8-0.1-4.5l-0.6-0.9l-1.1-0.2l0.1-0.7
		c2-0.1,3.8-0.7,4.9-1.2l0.3,0.2c-0.1,1-0.1,1.9-0.1,3.9c0,2,0,6.1,0.1,8.1c0,0.9,0.1,1.6,0.8,1.7l1.2,0.2L451,617.9z M460.8,617.9
		c-0.9,0-2.5-0.1-3.9-0.1c-1.8,0-2.7,0.1-3.5,0.1v-0.7l1.3-0.2c0.7-0.2,0.8-0.8,0.8-1.6c0-1,0-2.4,0.1-4.8c0-2,0-3.8-0.1-4.5
		l-0.6-0.9l-1.1-0.2l0.1-0.7c2-0.1,3.8-0.7,4.9-1.2l0.3,0.2c-0.1,1-0.1,1.9-0.1,3.9c0,2,0,6.1,0.1,8.1c0.1,0.9,0.2,1.6,0.8,1.7
		l1.2,0.2L460.8,617.9z M486.5,497.6c-3.7,0.7-7.6,1.4-10.1,2.1c-4.4,1.4-6.9,4.1-8.5,6.7c-8.8,15-14.3,26.5-19.8,33.9l0.2,1.6
		c13.6,9.9,30.4,22.1,34.8,27.4c0,4.8-6.9,19.4-9.2,21.9c-0.7,0.7-3.9,0.5-4.6,0c-1.4-3-5.3-7.2-7.4-8.8
		c-8.8-7.4-17.8-14.5-27.7-22.4c-0.7-0.7-0.5-0.2-0.9,0.2c-17.5,19.8-33.9,25.6-49.4,25.6c-27.7,0-44.8-17.8-44.8-41.7
		c0-12.5,6-22.1,31.1-39.2v-1.2c-7.4-9-12.9-18.7-12.9-31.6c0-22.4,18.4-37.4,38.3-37.4c18,0,30.9,13.1,30.9,29.3
		c0,12-7.1,20.8-29.8,35.3l-0.2,1.1c6.7,6.9,24.9,22.4,41.7,34.6l1.9-0.2c4.8-7.2,9.2-17.8,12-26.3c0.9-2.3,2.1-6.7-2.5-8.5
		c-2.5-0.9-7.6-2.1-12.7-2.8c-1.2-0.2-0.5-8.3,0.5-9c3.9,0,14.1,0.7,23.5,0.7c15.2,0,23.3-0.7,26.3-0.7
		C488.1,489.8,488.4,496.7,486.5,497.6z M589.9,497.1c-0.9,1.3-7,1.8-8.2,0.7c-1.1-5.4-1.4-7.8-2.5-11.8c-1.8-4.5-3.3-6.3-8.5-6.5
		c-7-0.4-25.7-0.7-31.5-0.2c-1.1,0.2-2.2,2.4-2.2,3.2c0,13-0.4,25.5-0.2,38.6l0.7,1.1c11.6,0,24.1,0,30.4-0.5
		c3.3-0.2,4.3-2.5,5.6-6.3c0.7-2,1.5-4.3,2-7.8c1.8-0.5,7.1-0.4,8.9,0.7c-0.5,4.7-1.3,13-1.3,19c0,6.9,0.2,13.2,0.5,19.7
		c-1.5,0.9-6.1,1.1-8.3,0.2c-0.9-4-1.4-5.8-2.2-8.1c-1.3-4.3-2.9-6.2-6.7-6.3c-6.5-0.4-23.9-0.4-28.9-0.4l-0.7,0.9
		c0,11.2-0.2,23.9,0.2,31.3c0.2,5.4,1.3,7.4,6.7,8.5c4.7,0.9,8.9,1.4,14.1,2c0.9,0.9,0.7,6.3-0.5,7.2c-6,0-14.1-0.5-30.4-0.5
		c-13,0-18.5,0.5-25,0.5c-1.1-0.7-1.3-6.1-0.2-7c4.5-0.5,8.3-1.3,10.7-1.8c5.4-1.4,6.3-2.7,6.7-9c0.4-6.7,0.2-17.9,0.2-40
		c0-20.6,0-32.2-0.4-37.8c-0.2-6-1.3-7.4-5.2-8.5c-2.7-0.5-6.3-1.3-10.7-1.8c-1.3-0.9-0.6-6.1,0.2-7.1c4.1,0,14.8,0.5,24.2,0.5h45.1
		c6.1,0,14.8,0,18.8-0.5l1.1,1.4C591.4,475,590.1,487,589.9,497.1z"/>
	<path class="st0" d="M388.9,493.5h2.1c11.1-8.5,17.5-17.1,17.5-28.6c0-9.2-6.2-20.1-17.5-20.1c-8.8,0-16.2,7.4-16.2,20.8
		C374.9,475.5,380,485.4,388.9,493.5z"/>
	<path class="st0" d="M377.2,511.7h-1.6c-8.5,7.6-15.5,14.8-15.5,27.2c0,18.5,15.2,30.7,34.1,30.7c9.5,0,22.1-4.8,30.4-14.3
		c0.5-0.7,0.9-1.4,0.2-2.1C409,540.5,391.5,525.8,377.2,511.7z"/>
	<path class="st0" d="M260.9,477.4c-1.1,0-4.9,0.4-6.9,1.1c-0.5,0.4-1.4,2-1.4,2.9c-0.4,6.7-0.4,30.8-0.4,43.3l0.9,0.9
		c17.2,0,22.2-0.9,24.6-2.2c6-3.1,10.7-10,10.7-19.2C288.4,487.2,280.2,477.4,260.9,477.4z"/>
	<path class="st0" d="M436.8,603.9l-0.6,0.2c-0.8,0.7-1.2,2.9-1.2,5.9c0,5.2,0.9,7.2,2.2,7.2l0.8-0.3c0.5-0.5,1-1.8,1-6.3
		C439,606.4,438.2,603.9,436.8,603.9z"/>
	<path class="st0" d="M449.3,689.8c-1-0.3-1.8-0.3-2.8,0.1c-0.7,0.3-1.3,0.8-1.6,1.4c-0.9,1.6-0.4,3.8,0.6,6.1
		c1,2.2,2.8,4.8,5.2,5.5c0.9,0.3,1.9,0.3,2.9-0.2c0.7-0.3,1.3-0.9,1.5-1.7c0.6-1.5,0-3.9-0.9-5.9
		C453.2,692.9,451.4,690.5,449.3,689.8z"/>
	<path class="st0" d="M368.5,699.3c0.5-1.2,0.4-2.5-0.6-2.9c-0.7-0.3-1.6-0.1-2.2,1.2c-0.5,1.1-0.2,2.4,0.5,3.8l0.1,0.1
		C367,701.2,367.8,700.7,368.5,699.3z"/>
	<path class="st0" d="M480.6,682.6l-0.8,0.4l-0.1,0.2c0.8,1.7,1.8,3.9,2.3,5.2l0.7,0.6c0.7,0.3,1.6,0.1,1.8,0
		c1.5-0.7,1.9-2.3,0.9-4.4C484.6,682.4,482.8,681.7,480.6,682.6z"/>
	<path class="st0" d="M482,680.8c0.5-0.7,0.5-1.5,0-2.4c-0.8-1.8-2.3-2.7-4.4-1.7l-0.4,0.3l0,0.4c0.4,1,1.3,3.2,2,4.8l0.2,0.1
		l1.2-0.5C481.3,681.4,481.8,681,482,680.8z"/>
	<path class="st0" d="M353,690l-0.6-0.2l-0.3,0.3c-0.2,0.4-0.8,1.6-2.5,5.5l0.1,0.2c1,0.6,2.1,0.9,2.7,0.9c0.7-0.1,1.4-0.5,2.1-2
		C355.3,692.8,354.9,690.8,353,690z"/>
	<path class="st0" d="M235,646l0,0.1c0.2,0.1,0.7,0.3,1.3,0.6c0.8,0.3,1.4,0.6,1.7,0.7l0.1-0.1c0.1-1.1,0.4-3.7,0.5-5.2l-0.1,0
		C237.4,643.3,235.8,645.1,235,646z"/>
	<path class="st0" d="M318.1,674c-0.7-0.3-1.5-0.4-2.1-0.2c-1.8,0.4-3.1,2.2-4.2,4.5c-1,2.2-1.7,5.3-0.6,7.5c0.4,0.9,1.1,1.6,2.1,2
		c0.7,0.3,1.5,0.3,2.2,0c1.5-0.6,2.9-2.6,3.8-4.6c1.1-2.4,1.6-5.3,0.7-7.3C319.7,675.1,319.1,674.5,318.1,674z"/>
	<path class="st0" d="M493.5,672.5c0.1,1.6,0.4,4,0.5,5.2l0.1,0.1c0.3-0.1,0.7-0.3,1.3-0.5c0.8-0.3,1.4-0.6,1.7-0.7l0-0.1
		c-0.7-0.8-2.5-2.8-3.5-3.9L493.5,672.5z"/>
	<path class="st0" d="M362.8,702.2c-0.7,0.3-1.2,0.9-1.5,1.6c-0.7,1.6,0.2,4,2.3,5c1.1,0.5,2,0.4,2.4,0.2l0.1-0.1
		c-1-2-2.3-4.6-3.2-6.7L362.8,702.2z"/>
	<path class="st0" d="M430.9,698c-1-0.3-1.8-0.3-2.7,0.1c-0.7,0.3-1.3,0.8-1.6,1.4c-0.9,1.6-0.5,3.8,0.6,6.1c1,2.2,2.8,4.8,5.2,5.5
		c0.9,0.3,1.9,0.3,2.9-0.2c0.7-0.3,1.3-0.9,1.5-1.7c0.6-1.5,0-3.9-0.9-5.9C434.8,701.1,433,698.7,430.9,698z"/>
	<path class="st0" d="M591.3,633.5l-0.8,0.4l-0.1,0.2c0.8,1.7,1.8,3.9,2.3,5.2l0.7,0.6c0.7,0.3,1.6,0.1,1.8,0
		c1.5-0.7,1.9-2.2,0.9-4.4C595.3,633.3,593.5,632.5,591.3,633.5z"/>
	<path class="st0" d="M613.9,590.6l-214,94.8l-214-94.8l0,65l214,94.8l214-94.8L613.9,590.6z M214.9,629.3c-0.5-1.1-1.5-1.8-2.8-2.4
		c-2.3-1-5.2-0.6-7.3,4.2c-1.9,4.4-1.2,8.1,1.8,9.4l1,0.2l0.7-0.5c0.3-0.6,1-1.9,1.2-2.6c0.3-0.9,0.3-1.3-0.2-1.8l-1.3-0.8l0.3-0.7
		c0.7,0.3,2.3,1.1,3.8,1.8c1.6,0.7,2.4,1,2.9,1.2l-0.3,0.6l-0.7-0.1c-0.5-0.1-0.7,0-1.3,1.3c-0.4,0.8-0.9,1.9-1,2.4l0.3,0.8
		l-0.3,0.4c-1.1-0.1-3.7-0.6-5.9-1.5c-5.2-2.3-7.3-6.1-4.9-11.3c1.4-3.1,4-4.8,7.2-4.8c1.5,0,2.9,0.3,5.1,1.3
		c2.1,0.9,3.5,2.1,4.5,2.6c-0.6,0.8-1.6,2.5-2.1,3.7l-0.8-0.3C215.2,631,215.3,630.1,214.9,629.3z M220.6,647.8
		c-4.2-1.8-4.7-4.5-4-6.9c0.5-1.8,2-5,3.6-8.5c0.3-0.7,0.2-1.2-0.2-1.6l-1-0.7l0.3-0.6c0.7,0.3,1.9,0.9,3.4,1.6
		c1.7,0.8,2.9,1.2,3.6,1.5l-0.3,0.6l-1.1-0.3c-0.6-0.1-1,0.2-1.4,0.9c-0.8,1.6-2,4.4-2.5,5.6c-0.5,1.1-0.9,2.1-1.1,3
		c-0.4,1.8,0.3,3.3,2.6,4.4c1.6,0.7,3.6,0.8,5.2-2.1c0.9-1.7,2.7-5.6,3.2-7.2c0.4-1,0.3-1.5-0.3-2l-1.1-0.7l0.3-0.6
		c0.8,0.3,1.6,0.8,2.7,1.3c1.6,0.7,2.1,0.9,2.7,1.1l-0.3,0.6l-1-0.2c-0.7-0.1-1,0.1-1.6,1.3c-0.4,0.8-2,4.3-2.8,5.8
		C227.2,648.7,224.2,649.4,220.6,647.8z M255.7,663l-2.2-1c-0.4-2.2-2.9-12.5-3.4-14.8l-0.1,0c-1.2,2.5-3.4,7.7-3.8,8.7
		c-0.4,1-0.2,1.5,0.4,2l1.2,0.8l-0.3,0.6c-0.7-0.3-1.7-0.9-2.8-1.3c-1-0.4-1.7-0.7-2.3-1l0,0l-0.4-0.2l-0.3-0.1v0
		c-0.6-0.3-1.5-0.7-2.6-1.2c-2.1-0.9-2.7-1.1-3.6-1.5l0.3-0.6l1.3,0.2l0.4-0.4c0.1-1,0.3-3,0.4-4.1l-0.2-0.3c-0.3-0.2-1-0.5-1.6-0.7
		c-0.9-0.4-1.6-0.7-2-0.8l-0.3,0.1c-0.9,1-2.4,2.4-2.5,2.8l0.3,1.1l1,0.7l-0.4,0.6c-0.7-0.3-1.6-0.8-2.8-1.3c-0.9-0.4-1.7-0.7-2.5-1
		l0.3-0.6c1.7,0.5,2.1,0.5,3.3-0.7c2.6-2.4,7.2-7.3,8.6-8.8l1-1.2l1.1,0.5l1.1,0.5l-0.2,1.4c-0.2,2.6-0.8,9.2-1,11.6
		c-0.1,2.1-0.1,2.4,1.2,3.3l1,0.2c0.6,0.1,0.9-0.2,1.4-1c0.7-1.1,2.7-5.5,4.5-9.5c0.3-0.6,0.3-1.5-0.2-2l-1.2-1l0.3-0.6
		c0.8,0.4,2.1,1,3.4,1.6c0.7,0.3,1.3,0.6,1.6,0.6c0,0.4,0.1,0.8,0.3,1.6c0.7,3.1,2.3,9.3,3,12h0.1c1.3-2.9,3-6.6,3.4-8
		c0.3-0.9,0.2-1.3-0.5-1.8c-0.4-0.3-0.7-0.5-1.3-0.8l0.3-0.6c0.6,0.3,1.7,0.8,3,1.4c1.1,0.5,2.2,0.9,2.6,1.1l-0.3,0.6l-1-0.2
		c-0.8-0.1-1.2,0.2-1.6,1c-1.1,2.1-2.8,5.9-4.2,8.8C256.6,660.8,256,662.2,255.7,663z M272.9,669.3l-0.3,0.4
		c-1.1-0.1-3.7-0.6-5.9-1.5c-5.2-2.3-7.3-6.1-4.9-11.3c1.4-3.1,4-4.8,7.2-4.8c1.5,0,2.9,0.3,5.1,1.3c2.1,0.9,3.6,2.1,4.5,2.6
		c-0.6,0.8-1.6,2.5-2.1,3.7l-0.8-0.3c0.5-1.6,0.6-2.5,0.2-3.2c-0.5-1.1-1.5-1.8-2.8-2.4c-2.3-1-5.2-0.6-7.3,4.2
		c-1.9,4.4-1.2,8.1,1.8,9.4l1.1,0.2l0.7-0.5c0.3-0.6,1-1.9,1.2-2.6c0.3-0.9,0.4-1.3-0.2-1.8l-1.3-0.8l0.3-0.7
		c0.7,0.3,2.3,1.1,3.8,1.8c1.7,0.7,2.4,1,2.9,1.2l-0.3,0.6l-0.7-0.1c-0.5-0.1-0.7,0-1.3,1.3c-0.4,0.8-0.9,1.9-1,2.4L272.9,669.3z
		 M285.7,676c-0.2,0.2-0.6,0.1-1.7-0.4c-2.5-1.1-5.5-2.5-7.5-3.5c-0.7-0.3-1.7-0.7-2.3-0.9l0.1-0.5c2.2-1.2,11.9-8.1,13.4-9.4l0-0.1
		c-0.9-0.4-3.9-1.7-4.9-2.1l-1.6,0.3c-0.5,0.4-1.1,0.9-2,1.7l-0.6-0.5c1-1.3,1.8-2.5,2.5-3.7l0.5,0.3c0.4,0.4,1,0.7,1.7,1l4.8,2.1
		c1.4,0.6,3.1,1.3,4,1.7l-0.1,0.5c-1.6,1.1-10.7,7.9-13,9.5l0,0.2c0.3,0.3,2.3,1.2,4.3,2.1l1.4,0.1c0.8-0.2,1.9-1.1,3.2-2.1l0.6,0.5
		C288.1,673.3,286.4,675.4,285.7,676z M302.5,682.6c0.3,0.3,0.6,0.4,1.3,0.9l-0.4,0.6c-0.7-0.3-1.9-0.9-3.3-1.6
		c-1.3-0.6-3-1.3-3.6-1.5l0.3-0.6l1.1,0.3c0.5,0.1,0.8-0.1,1.2-1c0.5-1.1,1.4-3,2-4.5l-0.1-0.2c-0.5-0.2-1.6-0.7-2.7-1.2
		c-2.8-1.2-3-1.3-3.1-1.3l-0.2,0.1c-0.6,1.5-1.4,3.2-1.9,4.4c-0.3,0.8-0.4,1.2,0.1,1.6l1.1,0.8l-0.3,0.6c-0.5-0.2-1.5-0.8-3.5-1.7
		c-1.7-0.8-2.9-1.2-3.4-1.4l0.3-0.7l1.1,0.3c0.7,0.2,1-0.1,1.5-1.2c0.2-0.3,1.2-2.5,2.1-4.6c1-2.3,2.1-4.8,2.4-5.5
		c0.3-0.8,0.3-1.1-0.1-1.5l-1.1-0.7l0.3-0.6c0.5,0.2,1.6,0.8,3.4,1.6c1.7,0.8,2.7,1.1,3.4,1.4l-0.3,0.6l-1.1-0.3
		c-0.5,0-0.8,0.2-1.2,1c-0.5,1.2-1.3,2.8-1.8,4.1l0.1,0.2c0.2,0.1,0.5,0.3,3.1,1.5c1.3,0.6,2.2,1,2.6,1.1l0.2-0.1
		c0.5-1.2,1.4-3.3,1.9-4.6l-0.2-1l-1.1-0.7l0.3-0.6c0.8,0.4,1.7,0.8,3.5,1.6c1.9,0.8,2.7,1.1,3.2,1.3l-0.3,0.6l-1.1-0.2
		c-0.5-0.1-0.7,0-1.1,0.7c-0.8,1.6-1.2,2.5-2.7,6c-0.7,1.6-1.5,3.4-1.9,4.4C302.2,682,302.2,682.3,302.5,682.6z M323.3,684.1
		c-0.8,1.7-2,3.3-3.5,4.2c-2.4,1.4-5.1,1.3-7.6,0.2c-2.5-1.1-4-2.8-4.7-4.7c-0.8-2.1-0.4-4.5,0.4-6.3c0.8-1.8,2.1-3.4,4-4.1
		c2.1-1,4.6-1.1,7.2,0.1C324,675.6,325.1,680.1,323.3,684.1z M340.7,686.4c-0.4,0.8-2,4.3-2.8,5.8c-2.3,4.7-5.3,5.3-8.9,3.7
		c-4.2-1.8-4.7-4.5-4-6.9c0.5-1.8,2-5,3.6-8.5c0.3-0.7,0.2-1.1-0.2-1.6l-1-0.7l0.3-0.6c0.7,0.3,1.9,0.9,3.4,1.6
		c1.7,0.8,2.8,1.2,3.6,1.5l-0.3,0.6l-1.1-0.3c-0.6-0.1-1,0.2-1.4,0.9c-0.8,1.6-2,4.4-2.5,5.6c-0.5,1.1-0.9,2.1-1.1,3
		c-0.4,1.8,0.3,3.3,2.6,4.4c1.6,0.7,3.6,0.8,5.2-2.1c0.9-1.7,2.7-5.6,3.2-7.2c0.4-1,0.3-1.5-0.4-2l-1.1-0.7l0.3-0.6
		c0.8,0.3,1.6,0.8,2.7,1.3c1.6,0.7,2.1,0.9,2.7,1.1l-0.3,0.6l-1-0.2C341.6,685.1,341.3,685.3,340.7,686.4z M355,705.1
		c0.5,1.2,0.6,1.3,1.6,1.9l-0.4,0.6c-1.5-0.5-3.7-1.6-4.5-2.4l-0.7-1.5c-0.4-1.5-0.7-4.4-0.9-6l-0.5-0.8l-0.5-0.2l-0.2,0.1
		c-0.6,1.5-1.4,3.2-1.9,4.3c-0.3,0.8-0.3,1.1,0.2,1.5l1.1,0.7l-0.3,0.6c-0.6-0.3-1.6-0.8-3.4-1.6c-2-0.9-3-1.2-3.4-1.4l0.3-0.6
		l1.1,0.3c0.6,0.1,0.9-0.1,1.2-0.9c0.4-0.7,1.9-4.2,2.6-5.6c1-2.3,1.6-3.6,2.1-4.8c0.3-0.7,0.2-1.1-0.2-1.4l-1-0.7l0.3-0.6
		c0.6,0.3,2.3,1.1,3.1,1.5c1.5,0.6,2.7,1.1,4.5,1.9c2.8,1.3,3.7,3.3,2.8,5.5c-0.8,1.8-2.5,2.4-4.3,2.4l-0.1,0.1
		C353.6,698.9,354.2,703.4,355,705.1z M369.3,714.5l-0.4-0.2l-0.5-1.2c-0.6-1.2-1.1-2.2-1.8-3.3l-0.1-0.1c-2.2,0.9-4,1-5.7,0.2
		c-2.5-1.1-3.9-3.7-2.8-6.3c0.6-1.3,1.4-1.8,4.6-2.2l0.1-0.1c-0.4-1.1-0.5-2.3,0.1-3.6c0.9-2,3.4-2.9,5.8-1.9c2.1,0.9,3,2.9,2.2,4.5
		c-0.6,1.3-2,1.6-4.2,1.8l0,0.1c0.6,1.5,1.8,3.5,2.7,4.9l0.2,0.1c1.1-0.8,2-1.6,2.3-2v-1.1l-0.9-0.7l0.3-0.6c0.4,0.2,1.2,0.6,2.2,1
		c1.6,0.7,2.2,0.9,2.5,1l-0.3,0.6l-1-0.1l-1.3,0.3c-1.6,1-2.6,1.9-3.3,2.3l0,0.2c0.9,1.5,2.2,3.5,2.4,4.3
		C371.9,713.1,369.8,714.3,369.3,714.5z M388.7,709.2l-0.7-0.3c0.3-1,0.4-1.7,0.3-2.3l-0.7-1c-0.6-0.3-2.9-1.4-3.3-1.5l-0.4,0.3
		c-0.6,1.1-1.5,3.2-2.3,5.1l0.1,0.2c0.7,0.3,2.4,1.1,3.2,1.3c0.7,0.3,1,0.2,1.4-0.2l0.8-1l0.7,0.3c-0.3,0.6-0.8,1.5-1.2,2.4
		c-0.3,0.7-0.7,1.7-1,2.3l-0.7-0.2l0.2-1.2c0-0.6-0.2-0.8-0.5-1c-0.5-0.3-2.7-1.3-3.3-1.6L381,711c-0.7,1.5-1.2,2.8-1.8,4.1
		c-0.5,1-0.3,1.4,0.2,1.7l1.2,0.8l-0.4,0.6c-1.3-0.6-2.1-1-3.5-1.6c-1.2-0.5-2.3-0.9-3.7-1.5l0.3-0.6l1.1,0.3
		c0.7,0.1,0.9-0.2,1.2-0.8c0.3-0.5,1.8-3.9,2.5-5.4c1.2-2.7,1.9-4.2,2.2-5.1c0.3-0.9,0.2-1.1-0.2-1.4l-1.1-0.8l0.3-0.6
		c0.6,0.3,1.8,0.9,3.4,1.6l5.1,2.3c1.6,0.7,2.4,0.9,2.7,1l0,0.2C390.2,706.4,389.5,707.6,388.7,709.2z M421,712.4l-0.8-1l-1.1-0.3
		c-0.6,0.2-2.7,1.1-3.4,1.4l-0.1,0.2c0.7,1.5,1.3,2.8,1.9,4.1c0.5,1,0.8,1.1,1.4,1l1.4-0.4l0.2,0.7c-1.3,0.6-2.2,0.9-3.5,1.5
		c-1.2,0.6-2.2,1.1-3.6,1.7l-0.3-0.6l1-0.6c0.5-0.4,0.4-0.8,0.2-1.5c-0.2-0.6-1.7-4-2.3-5.4c-1.2-2.7-1.9-4.2-2.3-5.1
		c-0.4-0.8-0.7-0.9-1.2-0.8l-1.3,0.3l-0.2-0.7c0.6-0.3,1.8-0.7,3.5-1.5l5.2-2.3c1.6-0.7,2.3-1.1,2.6-1.3l0.2,0.1
		c0.1,0.8,0.6,2.1,1.2,3.8l-0.7,0.3c-0.6-0.8-1-1.4-1.5-1.8l-1.2-0.1c-0.7,0.3-3,1.2-3.3,1.5l-0.1,0.5c0.5,1.2,1.4,3.3,2.2,5.2
		l0.2,0.1c0.7-0.3,2.4-1.1,3.1-1.4c0.7-0.3,0.8-0.6,0.8-1.1l-0.2-1.2l0.7-0.3c0.2,0.6,0.6,1.6,1,2.5c0.3,0.7,0.8,1.6,1.1,2.3
		L421,712.4z M439.8,706.4c-0.6,2.7-2.5,4.7-5,5.8c-2.5,1.1-4.7,1.1-6.6,0.4c-2.1-0.9-3.6-2.8-4.4-4.5c-0.8-1.8-1.1-3.8-0.4-5.7
		c0.6-2.2,2.3-4.1,4.9-5.3c4.9-2.2,9,0,10.8,4C439.9,702.7,440.2,704.7,439.8,706.4z M458.3,698.2c-0.6,2.7-2.5,4.7-5,5.8
		c-2.5,1.1-4.7,1.1-6.6,0.4c-2.1-0.9-3.6-2.8-4.4-4.5c-0.8-1.8-1.1-3.8-0.4-5.7c0.6-2.2,2.2-4.1,4.9-5.3c4.9-2.2,9,0,10.8,4
		C458.3,694.6,458.7,696.5,458.3,698.2z M469.3,696.4c-2.2,1-3.3,1.5-4,1.9l-0.3-0.6l1.4-0.9c0.5-0.4,0.6-0.7,0.2-1.9
		c-0.9-2.4-3.1-7.2-4.7-10.8l-0.2-0.1l-2.4,1.1c-0.5,0.3-0.7,0.7-0.8,1.3c-0.1,0.7-0.1,1.6,0,2.4l-0.8,0.1c-0.2-1-0.9-3.1-1.3-4
		l0.1-0.2c0.9-0.1,1.7-0.4,2.3-0.6l8.4-3.7c1.2-0.5,1.8-0.9,2.4-1.4l0.2,0.1c0.2,1,0.7,2.7,1.2,4.2l-0.7,0.3c-0.5-0.8-1-1.4-1.4-1.8
		l-1.3-0.3c-0.7,0.2-2.3,1-2.6,1.1l0,0.2c1.5,3.3,4.2,9.5,5,11.1l1.2,0.8c0.5-0.1,0.6-0.1,1.5-0.3l0.2,0.6
		C472,695.3,470.8,695.7,469.3,696.4z M487.8,687.5c-0.9,1-2.3,1.9-3.7,2.5c-1,0.5-4.9,2-6.4,2.7l-0.3-0.6c0.7-0.4,1-0.6,1.3-0.9
		c0.3-0.3,0.4-0.6,0.1-1.3c-0.2-0.6-0.8-2.1-2.3-5.3c-1-2.4-1.8-4-2.4-5.3c-0.3-0.7-0.6-0.8-1-0.8l-1.3,0.3l-0.3-0.6
		c0.7-0.3,1.7-0.7,3.3-1.4c1.8-0.8,3.5-1.6,4.1-1.9c2-0.9,4.7-1.5,5.9,1.3c0.6,1.3,0.3,2.9-1.4,4.2l0.1,0.1c2.4-0.6,4.4-0.2,5.3,1.9
		C489.6,684.3,489.3,685.9,487.8,687.5z M503.7,681.1c-2.1,0.9-2.6,1.2-3.5,1.6l-0.3-0.6l1-0.8l0-0.6c-0.7-0.8-2-2.3-2.8-3l-0.3-0.1
		c-0.3,0.1-1.1,0.4-1.7,0.7c-0.9,0.4-1.6,0.7-1.9,0.9l-0.1,0.3c0.1,1.3,0.2,3.4,0.4,3.8c0.2,0.3,0.3,0.6,1,0.5l1.2-0.3l0.2,0.7
		c-0.8,0.3-1.7,0.7-2.9,1.2c-0.9,0.4-1.6,0.8-2.5,1.2l-0.3-0.6c1.5-1,1.8-1.3,1.7-2.9c-0.1-3.5-0.6-10.3-0.8-12.3l-0.2-1.5l1.1-0.4
		l1.1-0.6l0.9,1.1c1.8,1.9,6.3,6.8,8,8.5c1.6,1.6,1.8,1.7,3.6,1.2l0.2,0.7C506.5,680,505.4,680.3,503.7,681.1z M518.5,674.3
		c0,0.2-0.3,0.4-1.4,1c-1.9,0.8-4.2,1.7-6,2.6c-1.6,0.7-2.4,1.2-3.5,1.6l-0.3-0.6c0.7-0.4,0.8-0.5,1.2-0.8c0.4-0.3,0.4-0.7,0.2-1.3
		c-0.2-0.6-1.2-2.9-2.5-5.9c-1.2-2.7-1.7-4-2.2-4.9c-0.2-0.4-0.5-0.8-1.1-0.7l-1.2,0.3l-0.3-0.6c0.9-0.4,1.4-0.6,3.4-1.4
		c1.6-0.7,2.6-1.2,3.3-1.6l0.3,0.6l-0.9,0.7c-0.4,0.4-0.4,0.7-0.1,1.3c0.1,0.4,0.9,2.2,1.9,4.5c1,2.4,2.4,5.4,2.7,6l0.8,0.5
		c0.6-0.1,2-0.7,3-1.2c0.4-0.2,0.8-0.5,1-1.3c0.2-0.8,0.4-2.4,0.4-3.6l0.7-0.1C518.2,670.2,518.6,673.3,518.5,674.3z M531.9,668.4
		c0,0.2-0.3,0.4-1.4,1c-1.9,0.8-4.2,1.7-6,2.5c-1.6,0.7-2.4,1.2-3.5,1.6l-0.3-0.6c0.7-0.4,0.8-0.5,1.2-0.8c0.4-0.3,0.4-0.6,0.2-1.3
		c-0.2-0.6-1.2-3-2.5-5.9c-1.2-2.7-1.7-4-2.2-4.9c-0.2-0.4-0.5-0.8-1.1-0.7l-1.2,0.3l-0.3-0.6c0.9-0.4,1.4-0.6,3.4-1.4
		c1.6-0.7,2.6-1.2,3.3-1.6l0.3,0.6l-0.9,0.7c-0.5,0.4-0.4,0.7-0.1,1.3c0.1,0.4,0.9,2.2,1.9,4.5c1,2.4,2.4,5.4,2.7,6l0.8,0.5
		c0.6-0.1,2-0.7,3-1.2c0.4-0.2,0.8-0.5,1-1.2c0.2-0.8,0.4-2.4,0.4-3.6l0.7-0.1C531.6,664.2,532,667.3,531.9,668.4z M555.6,657.9
		c-0.6,0.6-1.6,1.4-3.3,2.1c-5.2,2.3-9.5,1.1-11.7-4c-1.2-2.6-1-5.6,1-8c1-1.2,2.4-2.3,4.4-3.2c1.6-0.7,3.7-1.3,4.8-1.7
		c0.2,0.8,0.8,2.8,1.3,4l-0.7,0.4c-0.7-1.2-1.4-2.1-2.6-2.2c-1.2-0.1-2.2,0.2-3.1,0.6c-2.5,1.1-3.4,3.9-1.5,8.3
		c1.6,3.5,4.6,6.2,8.3,4.5c0.7-0.3,1.7-0.9,2.1-1.9c0.3-0.8,0.6-2,0.7-3.1l0.7,0.1C556.1,654.8,556.1,657.1,555.6,657.9z
		 M569.9,651.5c0,0.2-0.2,0.5-1.4,1c-1.9,0.8-4.2,1.7-6,2.5c-1.6,0.7-2.4,1.2-3.5,1.6l-0.3-0.6c0.7-0.4,0.8-0.5,1.2-0.8
		c0.4-0.3,0.4-0.6,0.2-1.3c-0.2-0.6-1.2-2.9-2.5-5.9c-1.2-2.7-1.7-4-2.2-4.9c-0.2-0.4-0.5-0.8-1.1-0.7l-1.2,0.3l-0.3-0.6
		c0.9-0.4,1.4-0.5,3.4-1.4c1.7-0.7,2.6-1.2,3.3-1.6l0.3,0.6l-1,0.7c-0.4,0.4-0.4,0.7-0.1,1.3c0.1,0.4,1,2.2,1.9,4.5
		c1,2.4,2.4,5.4,2.7,6l0.8,0.5c0.6-0.1,2-0.7,3-1.2c0.5-0.2,0.8-0.5,1-1.2c0.2-0.8,0.4-2.4,0.4-3.6l0.8-0.1
		C569.6,647.4,570,650.4,569.9,651.5z M579.7,647.9c-4.2,1.8-6.5,0.5-7.8-1.6c-1-1.6-2.4-4.9-3.9-8.4c-0.3-0.7-0.7-0.9-1.3-0.8
		l-1.2,0.3l-0.3-0.6c0.7-0.3,1.9-0.8,3.5-1.5c1.7-0.8,2.8-1.3,3.6-1.7l0.3,0.6l-0.9,0.6c-0.5,0.4-0.6,0.9-0.3,1.6
		c0.7,1.7,1.9,4.4,2.5,5.6c0.5,1.1,1,2.1,1.5,2.8c1.1,1.5,2.7,2,5,1c1.6-0.7,3-2.1,1.9-5.3c-0.6-1.8-2.4-5.7-3.2-7.2
		c-0.5-1-0.9-1.3-1.7-1.1l-1.3,0.3l-0.3-0.6c0.8-0.3,1.7-0.7,2.8-1.1c1.6-0.7,2.1-1,2.7-1.3l0.3,0.6l-0.9,0.6
		c-0.5,0.4-0.6,0.8-0.1,2c0.3,0.8,1.8,4.4,2.4,6C584.9,643.6,583.3,646.3,579.7,647.9z M598.5,638.4c-0.9,1-2.3,1.9-3.7,2.5
		c-1,0.4-4.9,2-6.5,2.7l-0.3-0.6c0.7-0.4,1-0.6,1.3-0.9c0.3-0.3,0.3-0.6,0.1-1.3c-0.2-0.6-0.8-2.1-2.3-5.3c-1.1-2.4-1.8-4-2.4-5.3
		c-0.3-0.7-0.6-0.8-1.1-0.8l-1.3,0.3l-0.3-0.6c0.7-0.3,1.7-0.7,3.3-1.4c1.8-0.8,3.5-1.6,4.1-1.9c2-0.9,4.7-1.5,5.9,1.3
		c0.6,1.2,0.2,2.9-1.4,4.2l0.1,0.1c2.5-0.6,4.4-0.2,5.3,1.9C600.3,635.1,599.9,636.8,598.5,638.4z"/>
	<path class="st0" d="M592.7,631.6c0.5-0.7,0.5-1.5,0-2.5c-0.8-1.8-2.3-2.6-4.4-1.7l-0.4,0.3l0,0.4c0.4,1,1.3,3.2,2.1,4.8l0.2,0.1
		l1.2-0.5C591.9,632.2,592.5,631.9,592.7,631.6z"/>
	<polygon class="st0" points="185.9,459.8 399.9,365.1 613.9,459.8 613.9,448.3 399.9,353.6 185.9,448.3 	"/>
	<polygon class="st0" points="613.9,435.8 613.9,424.3 399.9,329.6 185.9,424.3 185.9,435.8 399.9,341.1 	"/>
	<path class="st0" d="M625.8,607.1V663l-70.7,31.5c0,0,0.3,11,14.3,9.5s71.5-18,122.5,13.5c0,0-7.5-25.8-42.5-54.9
		c23-26,54-20.1,54-20.1S684.6,611.8,625.8,607.1z"/>
	<path class="st0" d="M173.8,607.1c-58.8,4.7-77.7,35.3-77.7,35.3s31-5.9,54,20.1c-35,29.1-42.5,54.9-42.5,54.9
		c51-31.5,108.5-15,122.5-13.5s14.3-9.5,14.3-9.5L173.8,663V607.1z"/>
	<path class="st0" d="M155.4,228.8c9.3-1.2,18.5-5.3,17-21.5c0,0,19.7,2.8,12,24.2c-5.5,15.5-19,29.5-21.2,32.5
		c-2.2,3-11.3,21.7,4.3,30.3c9.2,4.5,18.3,0,18.3,0s1.3,8.5,6.5,15.2c2.5,2.8,2,26-6.5,36.7c-6.7,7.2-5.3,11.7-4.7,16.7
		c0.7,5,4.3,2.3,3.2,10.7c-2,0.2-2.7,3.7,0.3,5.5s1.8,9.7,3.3,12.5c1.5,2.8,3.1,6.5,3.1,6.5l-5.3,2.3l0,11.5l214-94.7l214,94.8
		l0-11.5l-212.5-94.1c38-0.6,70.1-25.4,81.5-59.7c3,2,8,1.8,8,1.8s0.5-2.4,4.6-4.9c7.2-4.1,10.8-0.8,7.8,0
		c-9.8,1.6-10.6,4.9-5.3,6.8c4.7,1.5,9.5,2.6,13.9,3.3l3.9-5.1c0,0,3.3-3.3,1.2,1.2c-0.7,1.5-1.6,3-2.6,4.3
		c10.5,1.5,18.7,1.4,18.7,1.4c1.3,2.3,4.2,4.4,9.2,6.9s11.1,10.8,11.1,10.8c-7.8-5.9-19.2-3.4-23.1-1.2s-12.2,14.5-2.8,36.4
		c11,21.1-7.2,25.2-7.2,25.2h-10.1c0,0-2.4-3.1-10.4-3.1c-14.6,0.1-13,13.6-13,13.6l5.4,2.4c1.4-2.5,4.3-6.4,8.5-7
		c6.2-0.8,6.5,2,6.5,2s-8.4-0.6-12.5,6.1l18.2,8.1c6.1-4.2,26.4-5.3,26.4-5.3c2.2-6.4,16.9-10.5,16.9-10.5s0.1-2.5,0.1-5.2
		c-0.1-4.9-8.3-6.3-7.6-8.2c3.2-2.5,3.5-20,3.5-22.2c0-2.2,4.1-3.1,6.5-0.7s12.5,11,12.5,11s-3.3,14.3,6.1,23.8
		c21.1,19.1,23.2,25.8,22.5,28.8s-2,7.3-2,7.3c-1.7-0.2-4.8-0.2-10.5,5.5c-5.7,5.7-8.5,4.9-8.5,4.9l23.2,10.3c2-2.7,2.1-0.1,2.1-0.1
		l-0.3,0.9l5.1,2.2c0,0,1.6-3.7,3.1-6.5s0.3-10.7,3.3-12.5s2.3-5.3,0.3-5.5c-1.2-8.3,2.5-5.7,3.2-10.7c0.7-5,2-9.5-4.7-16.7
		c-8.5-10.7-9-33.8-6.5-36.7c5.2-6.7,6.5-15.2,6.5-15.2s9.2,4.5,18.3,0c15.7-8.7,6.5-27.3,4.3-30.3c-2.2-3-15.7-17-21.2-32.5
		c-7.7-21.3,12-24.2,12-24.2c-1.5,16.2,7.7,20.3,17,21.5c9.3,1.2,17-4.2,12.8-5.2c-9.2-1.8-11.3-7.3-11.3-7.3l0.3-2l1,1.2
		c5,7.2,11.2,6,8.7,4.2c-9-5.5-3.2-7.7-5.8-12.3c-2.7-4.7-7.2-8.3-23.2-6.5c-16,1.8-21.5,19-19.3,29.8c2.2,10.8,16,29.3,19.2,33
		c3.2,3.7,8.3,13.2,1.3,18.7s-12.8-2.7-12.8-2.7s1.2-6.3-2-12.2c-3.2-5.8-21-19.8-21-19.8l-0.5-5.2c-5.3-2.8-11.3-15.3-6.5-21
		c6-6.5,7.8-19.8,7.8-19.8c-1.2,17.5-5.8,15.2-7.2,23c-1.5,10.5,3.8,14.3,8.2,14.2c2-0.1,2.9-1.8,3.2-4.3c-0.7-0.7-1.4-1.5-1.9-2.3
		c-1.5-2.4,0.8-1.5,0.8-1.5l1.4,1.2c0.1-2.6-0.1-5.6-0.3-8.3c-0.3-6.7,4.7-6.2,4.7-6.2s0-2.8-1.1-7.1c-2.6-7.4,2-13,2-13
		s11.1-15.4,5.4-5.9s-6.5,13.8-5.2,18.2s5,3,5,3c0-11,5.5-15.8,5.5-15.8c-0.5-14.8,3.8-12.8,3.8-12.8c-2.8,5.4-1.2,13.1-1.2,13.1
		c6.1-0.2,8.6-5.5,8.6-5.5s-2.1,0.8-2.6-4.1s1.6-6.2,3.6-10.9s1.9-8.9-4.5-13.2s-8.2-7-8.2-9s-0.1-2.9,1.5,0.8s6.6,5.1,10.8,7.4
		s3.8,6.5,4.6,4.1s-0.1-5.4-4.2-9.2s-7.6-9.2-1.6-3.2s10.2,2.8,9.6,2.5s-1.6-0.6-2.9-2.1s-6.6-5.1-12-7.6c-8.1-3.9-6.5-6,0.4-2.1
		s8.8,3,8.8,1.9s-1.8-5-6.4-10.4s-4.2-4.1-8.2-0.9c-6.1,4.8-7.4,4.1-4.8,1.9c10.8-7.5,5.4-13.1,5.4-13.1s-2.9,4.5-5.3,2.6
		c-4.6-3.9-9.4-4.6-17.3-4.3c-0.8,2.7-2.4,6.9-7.1,7.8c-5,0.9-6.4,5.2-6.4,5.2s-1.1,0.9-1.4,0c0.3-1.5,1.2-5,7-7
		c3-1,4.6-3.6,5.6-5.8c-1.7,0.1-3.5,0.2-5.4,0.4c-12.8,1-12.1,11.3-15.4,11.4c-3.8,0.1-6.5,3.1-10.1,4.1
		c-16.2,4.5-20.3,9.7-17.9,11.9c2.4,2.2-0.7,9.8,3.2,9.8c10.1-0.4,8.3,1.2,8.3,1.2l-0.4,1.7l0.9-0.3c11.9-1.6,7.2,7.4,7.2,7.4h-5.2
		l-0.3,0.9l-0.7,0.2h-0.8c0,0-1-2-3.3-2s-4.9,1.3-3.2,5.8s6.5,3.7,6.5,1.3c3.8-0.2,9.8,2.4-0.1,4.2c-19.5,3.5-20.7,8.3-16.8,7.8
		c3.8-0.5,5-0.2,3.7,0.5c-1.3,0.7-10.2,6.8-14.8,4.3c-4.7-2.5-24-13.3-24-15.3s0-12.2-11-17.7c-10.2-4.4-16.8-1.3-20.1,1.3
		c4,0.9,16.8,4,9.5,3.9c-3.5-0.1-8.6-1.3-10.8-1.9c-16-19.7-40.5-32.4-67.9-32.4c-27.5,0-52,12.7-68,32.4c-2.4,0.6-7.2,1.8-10.5,1.8
		c-7.3,0.1,5.4-2.9,9.5-3.9c-3.3-2.6-9.9-5.7-20.1-1.3c-11,5.5-11,15.7-11,17.7s-19.3,12.8-24,15.3c-4.7,2.5-13.5-3.7-14.8-4.3
		c-1.3-0.7-0.2-1,3.7-0.5c3.8,0.5,2.7-4.3-16.8-7.8c-9.8-1.8-3.9-4.5-0.1-4.2c0,2.3,4.9,3.2,6.5-1.3s-0.9-5.8-3.2-5.8s-3.3,2-3.3,2
		h-0.8l-0.7-0.2l-0.3-0.9h-5.2c0,0-4.7-9,7.2-7.4l0.9,0.3l-0.4-1.7c0,0-1.8-1.6,8.3-1.2c3.8-0.1,0.8-7.6,3.2-9.8
		c2.4-2.2-1.7-7.4-17.9-11.9c-3.6-1-6.4-4-10.1-4.1c-3.3-0.1-2.5-10.4-15.4-11.4c-2-0.2-3.7-0.3-5.4-0.4c0.9,2.2,2.6,4.8,5.6,5.8
		c5.8,2,6.7,5.5,7,7c-0.4,0.9-1.4,0-1.4,0s-1.4-4.3-6.4-5.2c-4.7-0.8-6.3-5.1-7.1-7.8c-7.9-0.3-12.6,0.4-17.3,4.3
		c-2.4,1.9-5.3-2.6-5.3-2.6s-5.3,5.6,5.4,13.1c2.6,2.2,1.4,2.9-4.8-1.9c-4-3.2-3.6-4.5-8.2,0.9s-6.4,9.2-6.4,10.4s1.9,2,8.8-1.9
		s8.5-1.8,0.4,2.1c-5.4,2.5-10.8,6.1-12,7.6s-2.2,1.9-2.9,2.1s3.6,3.5,9.6-2.5s2.5-0.6-1.6,3.2s-5.1,6.9-4.2,9.2s0.5-1.9,4.6-4.1
		s9.1-3.8,10.8-7.4s1.5-2.8,1.5-0.8s-1.9,4.6-8.2,9s-6.5,8.6-4.5,13.2s4.1,6,3.6,10.9s-2.6,4.1-2.6,4.1s2.5,5.3,8.6,5.5
		c0,0,1.5-7.7-1.2-13.1c0,0,4.2-2,3.8,12.8c0,0,5.5,4.8,5.5,15.8c0,0,3.8,1.5,5-3s0.5-8.8-5.2-18.2s5.4,5.9,5.4,5.9s4.6,5.6,2,13
		c-1.1,4.3-1.1,7.1-1.1,7.1s5-0.5,4.7,6.2c-0.1,2.7-0.3,5.7-0.3,8.3l1.4-1.2c0,0,2.2-0.9,0.8,1.5c-0.5,0.7-1.2,1.5-1.9,2.3
		c0.4,2.5,1.3,4.3,3.2,4.3c4.3,0.2,9.7-3.7,8.2-14.2c-1.3-7.8-6-5.5-7.2-23c0,0,1.8,13.3,7.8,19.8c4.8,5.7-1.2,18.2-6.5,21l-0.5,5.2
		c0,0-17.8,14-21,19.8c-3.2,5.8-2,12.2-2,12.2s-5.8,8.2-12.8,2.7s-1.8-15,1.3-18.7c3.2-3.7,17-22.2,19.2-33
		c2.2-10.8-3.3-28-19.3-29.8c-16-1.8-20.5,1.8-23.2,6.5c-2.7,4.7,3.2,6.8-5.8,12.3c-2.5,1.8,3.7,3,8.7-4.2l1-1.2l0.3,2
		c0,0-2.2,5.5-11.3,7.3C138.4,224.6,146.1,229.9,155.4,228.8z M606.9,144.7c7.4,10.6-6,10-6,10s2.5-0.4,5-2.8s-1.2-6.4-5.4-9.8
		s-10.2,0.9-10.2,0.9C592.1,139.8,599.6,134.1,606.9,144.7z M586.7,157.9l5.5,3.8c0,0,2.2-8.2-9.7-16.8c0,0,17.3,4.2,11.2,24.3
		c-1,3-2.7-4.8-2.7-4.8s-2.2,9.3-10.3,13.2C580.7,177.6,592.9,165.8,586.7,157.9z M565.8,145.1c0,0-2.8-3.1,3.2-4.3
		c0,0-4,3.5,1.2,3.3c4-0.2-0.2,3-2,3s-3.3,0.7-4,2.3C564.2,149.4,562.9,147.2,565.8,145.1z M553.4,153.4h4.3v2h-4.3V153.4z
		 M543.4,151.2v-1.2c0.1-0.7,1.1-2.5,4.5-2.5c3.4,0,4.7-1.1,4.7-1.1s1.1-0.1,0.6,0.8c-0.5,0.8-1.4,2.4-5.1,2.8
		C544.4,150.4,543.4,151.2,543.4,151.2z M551.7,159.1c0,0-3.5-4,0.3-1.8c3.8,2.2,9.5-0.3,9.5-0.3s2.2-0.3,0.7,1.3
		C558.5,162.6,551.7,159.1,551.7,159.1z M292.9,341.3c0,0,0.3-2.8,6.5-2c4.2,0.6,7.1,4.5,8.5,7l-2.5,1.1
		C301.3,340.7,292.9,341.3,292.9,341.3z M491.7,236.8l-6.1-0.2c0.2-0.8,0.3-1.5,0.4-2.3h0.4l2.2,0.4l3,0.9V236.8z M491.9,227.3h-1.5
		l-3.4-0.6c0.1-0.9,0.1-1.8,0.2-2.7l0.2-0.1h0.9l4,2.7L491.9,227.3z M494.5,199.5l0.9-3.2h0.6c-1.3,9,8,13.3,10.5,14.8
		s3.7-1,4.8,1.3c1.2,2.3,3.4,6.1,5,5.8c3.7-0.6,4.6-0.4,3.6,0.4c-2.4,1.9-3.8,4.2-2.5,4.5s4.9-3.4,3.6-1s-2,3.8,0.1,4
		s4.9,6.1,1.9,4.8s-12.1-2.5-12.1-2.5s-7.8,0-10.9-3.1c-5.5-6.5-11-5.7-12.7-5.3c0-0.4,0-0.8,0-1.3c0-9.6-1.6-18.9-4.4-27.5h5.9
		C489.7,201.1,494.5,199.5,494.5,199.5z M479.6,179.7h1l0.7,0.3l0.6,0.5l-0.8,1.1c0,0-0.2,0.8-0.5,0.8c-0.3,0.1-0.8,0-1.1-0.1
		c-0.3-0.7-0.6-1.4-1-2.1l0,0L479.6,179.7z M473.6,169.8h1.2l1.5,0.8l1.8,0.9v1.2l-1.8-0.2l-1.3-0.6l-1.4-0.3
		c-0.4-0.6-0.8-1.2-1.2-1.8H473.6z M376.9,144.8L376.9,144.8l-8.3,13l31.3,12l31.7-12.5l-8.1-12.3c16.8,5.4,31.2,16.4,40.8,30.8
		l-16.3-4v33.3l20,25.7l9.4-10.1c-0.4,16.7-6.1,32.1-15.5,44.6v-14.8l-31.8,7.7l-19.3,27.9l13.9,6.1c-7.8,2.6-16.1,4.1-24.7,4.1
		c-8.5,0-16.7-1.4-24.4-4l14.1-6.2l-19.3-27.9l-31.8-7.7v15.4c-9.8-12.8-15.8-28.8-16-46.1l10.1,11l20-25.7v-33.3l-17.2,4.2
		C345.1,161.3,359.7,150.1,376.9,144.8z M312.8,226.7l-3.1,0.6h-1.5l-0.4-0.7l4-2.7h0.8C312.6,224.9,312.7,225.8,312.8,226.7z
		 M308.4,235.6l3-0.9l2.2-0.4h0.1c0.1,0.8,0.3,1.5,0.4,2.3l-5.8,0.2V235.6z M322.1,171.5l1.8-0.9l1.5-0.8h1.2h0.9
		c-0.4,0.6-0.8,1.2-1.2,1.8l-1.1,0.2l-1.3,0.6l-1.8,0.2V171.5z M318.8,180l0.7-0.3h1l0.9,0.5c-0.4,0.7-0.7,1.5-1.1,2.2
		c-0.3,0-0.6,0.1-0.8,0c-0.3-0.1-0.5-0.8-0.5-0.8l-0.8-1.1L318.8,180z M278.9,226.2c2.1-0.2,1.4-1.6,0.1-4s2.4,1.2,3.6,1
		s-0.1-2.6-2.5-4.5c-1.1-0.9-0.1-1.1,3.6-0.4c1.6,0.2,3.9-3.5,5-5.8c1.2-2.3,2.3,0.2,4.8-1.3s11.8-5.8,10.5-14.8h0.6l0.9,3.2
		c0,0,4.8,1.6,5.6-8.2h5.6c-2.9,8.6-4.4,17.9-4.4,27.5c0,0.4,0,0.8,0,1.2c-1.9-0.4-7.2-0.9-12.4,5.3c-3.1,3.1-10.9,3.1-10.9,3.1
		s-9.1,1.1-12.1,2.5S276.8,226.4,278.9,226.2z M257.8,262.3c5-2.5,7.9-4.6,9.2-6.9c0,0,8.2,0.2,18.7-1.4c-0.9-1.3-1.9-2.8-2.6-4.3
		c-2.1-4.5,1.2-1.2,1.2-1.2l3.9,5.1c4.5-0.8,9.2-1.8,13.9-3.3c5.3-2,4.5-5.2-5.3-6.8c-3-0.8,0.5-4.1,7.8,0c4.1,2.5,4.6,4.9,4.6,4.9
		s4.7,0.2,7.8-1.6c11.5,34.2,43.5,58.9,81.4,59.6l-85,37.6c0,0,1.6-13.5-13-13.6c-8,0-10.4,3.1-10.4,3.1h-10.1
		c0,0-18.2-4.1-7.2-25.2c9.5-21.9,1.1-34.2-2.8-36.4s-15.4-4.6-23.1,1.2C246.7,273.1,252.8,264.8,257.8,262.3z M247.6,146.4
		c0,0,1.2,1.1,4.7,1.1c3.4,0,4.4,1.8,4.5,2.5v1.2c0,0-1-0.8-4.7-1.2c-3.7-0.4-4.6-2-5.1-2.8C246.5,146.3,247.6,146.4,247.6,146.4z
		 M242.4,153.4h4.3v2h-4.3V153.4z M238.6,156.9c0,0,5.7,2.5,9.5,0.3c3.8-2.2,0.3,1.8,0.3,1.8s-6.8,3.5-10.5-0.8
		C236.4,156.6,238.6,156.9,238.6,156.9z M229.9,144.1c5.2,0.2,1.2-3.3,1.2-3.3c6,1.2,3.2,4.3,3.2,4.3c2.9,2,1.6,4.3,1.6,4.3
		c-0.7-1.7-2.2-2.3-4-2.3S225.9,143.9,229.9,144.1z M199.5,142.2c-4.1,3.4-7.9,7.4-5.4,9.8s5,2.8,5,2.8s-13.4,0.6-6-10
		s14.9-4.9,16.6-1.6C209.8,143.1,203.7,138.8,199.5,142.2z M209.1,164.4c0,0-1.7,7.8-2.7,4.8c-6.2-20.2,11.2-24.3,11.2-24.3
		c-11.8,8.7-9.7,16.8-9.7,16.8l5.5-3.8c-6.2,7.8,6,19.7,6,19.7C211.3,173.8,209.1,164.4,209.1,164.4z M222.8,338.2
		c9.4-9.4,6.1-23.8,6.1-23.8s10.1-8.6,12.5-11s6.5-1.5,6.5,0.7c0,2.2,0.3,19.7,3.5,22.2c0.7,1.8-7.5,3.3-7.6,8.2
		c0,2.8,0.1,5.2,0.1,5.2s14.6,4.1,16.9,10.5c0,0,20.3,1.1,26.4,5.3l1.1-0.5l-67.1,29.7c0,0-2.8,0.8-8.5-4.9
		c-5.7-5.7-8.8-5.7-10.5-5.5c0,0-1.2-4.3-2-7.3S201.7,357.3,222.8,338.2z M198,395l-1.7,0.8l-0.3-0.9C195.9,394.9,196,392.2,198,395
		z"/>
	<path class="st0" d="M335.9,121.9c1.2,3,17.2,17.2,28.5-5.8c0,0,14.8,17.8,35.5-5.7c20.7,23.5,35.5,5.7,35.5,5.7
		c11.3,23,27.3,8.8,28.5,5.8s2.5-7,10.2-19.7c7.7-12.7,24.7-28.7,20.5-27.8c-36.3,7.2-40.2,32-40.2,32c12.6-1.2,8,13.2-3.7,10.2
		c-10.6-2.7-9.5-13.6-9.2-15.7c4.5-0.8,7.9-4.7,7.9-9.4c0-5.3-4.3-9.6-9.6-9.6c-5.3,0-9.6,4.3-9.6,9.6c0,3.6,2,6.7,4.9,8.4
		c-4.9,14.2-13.9,13.7-17.7,13.7c-3.8,0-13.2-4.5-10.2-11.3c4.2-6.3,12-0.8,12-0.8c-2.3-35.7-19.3-51.9-19.3-51.9
		s-17,16.2-19.3,51.9c0,0,7.8-5.5,12,0.8c3,6.8-6.3,11.3-10.2,11.3c-3.8,0-12.9,0.5-17.7-13.7c2.9-1.6,4.9-4.8,4.9-8.4
		c0-5.3-4.3-9.6-9.6-9.6c-5.3,0-9.6,4.3-9.6,9.6c0,4.7,3.4,8.6,7.9,9.4c0.3,2.1,1.3,12.9-9.2,15.7c-11.7,3-16.3-11.4-3.7-10.2
		c0,0-3.8-24.8-40.2-32c-4.2-0.8,12.8,15.2,20.5,27.8C333.4,114.9,334.8,118.9,335.9,121.9z"/>
	<polygon class="st0" points="399.9,244.8 419.1,244.8 431.1,209.1 399.9,185.1 368.8,209.1 380.8,244.8 	"/>
	<path class="st0" d="M434.2,122.5c0,0-17.2,15-34.3-7.1c-17.1,22.1-34.3,7.1-34.3,7.1c-11.8,21.1-29,6.9-29,6.9l-3.1,28.6
		c16.5-18,40.1-29.2,66.4-29.2c26.3,0,49.9,11.3,66.4,29.2l-3.1-28.6C463.2,129.4,446,143.6,434.2,122.5z"/>
</g>
</svg>
