<?xml version="1.0" encoding="utf-8"?>
<!-- Generator: Adobe Illustrator 22.1.0, SVG Export Plug-In . SVG Version: 6.00 Build 0)  -->
<svg version="1.1" id="图层_1" xmlns="http://www.w3.org/2000/svg" xmlns:xlink="http://www.w3.org/1999/xlink" x="0px" y="0px"
	 viewBox="0 0 800 800" style="enable-background:new 0 0 800 800;" xml:space="preserve">
<style type="text/css">
	.st0{fill:#FFFFFF;}
	.st1{fill:#00A040;}
	.st2{fill:#FFEB00;}
	.st3{fill:#231815;}
</style>
<path class="st0" d="M400,749C97.2,605.3,97.2,276.8,97.2,276.8v-116L400,51l302.8,111.2v114.6C702.8,276.8,702.8,605.3,400,749z"/>
<path d="M400,66.3l288.5,105.9v104.6c0,0.2-0.1,20.5-4.7,52.5c-4.3,29.5-13.4,75.2-32.6,125.6c-21.5,56.4-50.9,107.2-87.5,151
	C519.3,658.8,464.3,701.5,400,733c-64.3-31.5-119.3-74.3-163.6-127.2c-36.6-43.7-66.1-94.5-87.5-151
	c-19.2-50.4-28.3-96.1-32.6-125.6c-4.6-32-4.7-52.3-4.7-52.5V170.9L400,66.3 M400,51L97.2,160.8v116c0,0,0,328.5,302.8,472.2
	c302.8-143.7,302.8-472.2,302.8-472.2V162.2L400,51L400,51z"/>
<path class="st1" d="M400,718.2C128,574.5,128,276.8,128,276.8v-95.5l272-99.5l272,99v96C672,276.8,672,574.5,400,718.2z"/>
<path class="st2" d="M614.8,378.5c0,0,0.6-1,0.6-2c1-2.5,1-5,1-6.6c-1.5-8.6-6-13.6-14.7-13.6c-1-0.5-1.5-0.5-2-0.5
	c-3,0.5-5.5,1.5-7.5,2.5c-3,2-4.6,4.5-5.5,8.1c-0.6,1.5-0.6,4.1-0.6,6.6c0,1,0,2,0.6,3c1,3.1,2.5,5.6,5.5,7.6l1,1l1-1.5
	c-1-0.5-1.5-1-2-1.5c-2.5-2.5-4.1-5-4.6-8.1c0-3,1-5.6,3.5-7.1l1-1c2-1,4.6-1.5,8.1-2h1.5c8.6-0.5,12.7,2,13.1,7.1
	c0.6,4-2.5,7.6-7.5,11.1v1l10.1-1V380C615.8,380,614.8,379.5,614.8,378.5z"/>
<path class="st2" d="M575.4,309.2c-1,0.5-1.5,0.5-2.5,0c-0.5-0.5-1-1-1.5-2h-1l2.5,6.6l6.6,17.1l7.1-1.5l3-1l-0.5-1
	c-1,0-1.5,0-2.5,0c-5.1-0.5-8.1-2.5-9.6-7.1c-1-2.5-1-4,1-4.6l8.6-3.5l5.5-2l4.6-2c1.5-0.5,3-1,3.5-0.5l1.5,1.5l0.5,1.5l1-0.5
	l-1.5-4.1l-4-9.7h-1c1,2.6,0.5,4.1-1.5,5.1l-3,1l-5.5,2L575.4,309.2z"/>
<path class="st2" d="M561.8,283c-1,0.5-2.1,1-2.6,0.5c-0.5,0-1-0.5-2-2.1l-0.5,0.5h-0.5l0.5,0.5l6,10.6l6.6,10.6l3.5-1.6l5.6-2
	l-0.5-1c-2,0.5-3.5,0.5-5,0c-3.5,0-6.1-2-8.1-5.1c-1.5-2.5-1.5-4,0-4.5l8.1-5l9.6-5.6c1.5-1,2.5-1.5,3.5-1h0.6c0.5,0.5,1,1.5,2,2.6
	l0.5-0.5l-2.5-4.5l-5.1-8.6l-1,0.5c1.5,2.5,1,4-0.5,5l-7.1,4l-10.1,6.1L561.8,283z"/>
<path class="st2" d="M540,257.2c-1,0-2-0.5-3-1l-0.5,0.5l3.5,5.1l2,2l0.6-1c-1.1-2-1.5-3-0.6-3.6c0.6-0.5,2-1.5,5.5-2l6.1,7.6
	c-1.5,2.5-2.5,4.1-3,5.1c-1,1-2.1,0.5-3.6-1.5l-1,0.5l8.6,10.6l0.5,0.5l0.5-1l-0.5-2c0-0.5,0.5-1.5,1.5-3c0-1,0.5-1.6,1-2.6l5-9.6
	l6.6-12.1l-0.5-1l-6.1,2.1l-6,1.5l-2,0.5l-10.7,3.5C542.6,256.7,541,257.2,540,257.2z M554.7,254.7l2-0.5l3.5-1.5l-3.5,6.6l-2,3.6
	v0.5l-5.6-7.1L554.7,254.7z"/>
<path class="st2" d="M521.3,236.9l-2,1c-1.1,0-1.5-0.5-3.1-1.5l-0.5,1l6.6,6.6l3.6,3c2,1.5,3.5,2.6,5,3.6c2.1,0.5,3.6,1,5.1,1
	c1.5-0.5,3-1,4-2.5h0.5c2.5-3,2.5-6.1-0.5-10.1l-0.5-1l0.5,0.5c4,2.1,7.1,1.6,9.1-0.5c3-3.5,2-7.6-3.5-13.1l-5.6-5.1l-4-4h-0.5
	l-0.5,1l1,0.5c1,1.5,1,3,0,4l-0.5,0.5l-4.6,4.5l-8.6,9.1L521.3,236.9z M536,231.4l4-4.5l1.5-1c0.5-1,1.5-1,3,0c2,2,2,4.5-0.5,7.1
	c-1.5,1.5-3,2.5-4,2.5h-0.5c-1,0-2.1-0.5-3.6-1.5l-1.5-1L536,231.4z M526.4,241.5l4.5-5l3-2.5l0.5,0.5l1.5,1.5c1.5,2,1.5,4.6,0,7.1
	l-1,1c-1.5,1.5-2.5,2.5-4,2.5c-1.5,1-3,0.5-4.5-1.1C524.9,244.5,524.9,243,526.4,241.5z"/>
<g>
	<path class="st2" d="M523.8,352.1c1.5-3.6,5.5-3,6.6,0c0.5,0.5,0.5,1,0.5,2c1,2,2.5,5,5.1,8.1c1,1.5,2.5,2.5,4,4
		c3.6,2.5,8.1,4.5,14.7,5.1c0.5,0,1,0,2,0v-3.5c-0.5-4.6-1-9.1-2-13.6c-3.1-16.7-8.1-30.9-14.7-43.5c-1-2.5-2.5-5.1-4-7.6
		c-1.5-2.5-3-5-5.1-7.6c-2.5-4-5.5-7.5-8.6-11.1c-3-4-6.1-7.6-9.6-11.1c-1-1-1.5-1.5-2.6-2.5c-3-3-8.1-8.1-13.6-12.2
		c-4-3-8.1-6.1-12.2-8.1c0,87.4,1.1,175.9,1.1,263.3c3.5-2,7.6-4.5,11.1-7.6c6.1-4.5,11.1-9.1,15.2-13.1l1-1.5
		c3.5-3,6.6-6.6,9.6-10.6c3-3.6,6.1-7.1,8.6-11.1c2.1-2.5,3.6-5.1,5.1-7.1c1.5-2.5,3-5.5,4-8.1c5.1-9.1,8.6-18.7,11.6-29.3
		c1.5-4.6,2.5-9.1,3.1-13.7c1-5,1.5-9.5,2-13.1V393l-2,0.5c-5.6,0.5-10.1,2-14.7,5c-1.5,1.5-3,2.5-4,4.5c-2,2-3.6,5.1-5.1,8.1
		l-0.5,1.5c-1,3-5.5,3-7.1-0.5l-1-1.5c-7.6-19.7-6.6-40.9,0-56.1C522.7,353.6,523.3,353.1,523.8,352.1z"/>
	<path class="st2" d="M446.5,286.4c-6.1,8-8.1,17.2-8.1,28.8c0,11.6,0.5,24.8,0,38.4c0,59.6,0,121.3,0,181c3-0.5,5.6-1.5,8.1-2.1
		c10.1-3.5,16.7-6.6,23.2-9.6c0-83.9,0-168.8,0-253.3c-10.6,4.5-15.2,7.6-19.7,12.1C449,283.4,447.4,284.9,446.5,286.4z"/>
	<path class="st2" d="M455.5,235.3c-3-1.6-6-2.6-9-3c-10.6-3.5-21.3-5.5-32.4-6.5c-4.5,0-9.1-0.5-13.6-0.5c-14.1,0-28.3,2-41.9,6
		c-4.6,1.5-9.1,3.1-14.1,4.6c-3,1.5-6.1,2.6-9.1,4.1c-6.6,4.5-4.6,12.6,1.5,14.1c3,1,5,1.5,7.6,3c1.5,0.5,3,1.5,5,3
		c3.5,2,6.6,4.1,9.1,6.6c9.1,8.1,15.2,18.2,18.2,31.8c2,8.1,1,18.7,1,28.8c0,16.2,0,32.9,0,49.6c0,53.1,0,108.1,0,161.2
		c6.5,1,14.7,1.5,22.7,1.5c4.6,0,9.6-0.5,13.6-0.5c4.1-0.5,7.1-0.5,9.1-1c0-53.6,0-108.7,0-161.7c0-16.2,0-32.8,0-49.1
		c0-10.6-0.5-21.2,1.5-29.8c4-15.2,10.7-25.3,21.8-33.8c1.5-1.5,3.5-3,6-4.6c9.6-6,18.7-4.1,17.2-13.6
		C469.2,239.4,460.6,237.4,455.5,235.3z"/>
	<path class="st2" d="M347.9,278.9c-1-1.1-2.1-2.1-3.5-2.6c-3-2.5-7.1-4.5-12.1-6.1c0,84,0,169.4,0,253.3c3,1.5,7.6,3.5,12.1,5
		c5,2,10.1,3.6,14.1,5.1c1.5,0.5,3,0.5,4.5,1.1c0-63.2,0-127.4,0-190.1c0.5-27.3,1-41-4.5-52.1C356.4,287.9,352.9,283.4,347.9,278.9
		z"/>
	<path class="st2" d="M296.3,400.1c-3,3-5.6,7.1-7.6,12.1c-0.5,3.1-4,4.5-7.1,0.5l-0.5-1.5c-9.1-18.7-6.1-43.4,0-59.1l0.5-0.5
		c1.5-2.5,5.5-2.5,6.5,0.5c1.5,5,4.5,9.6,8.1,12.6c5.5,4.6,12.6,7.1,19.7,6.6c0.5-40,0-78.9,0-120.8c-7.1,4-13.6,8.6-19.7,14.1
		c-5,4.6-10.1,9.6-14.6,14.7c-6.6,7.6-12.2,15.7-17.2,24.3c-4,7.6-7.6,15.1-10.6,23.3c-5.6,14.1-8.6,28.8-9.6,43.9
		c-0.5,8.1-0.5,16.2,0,24.2c1.1,14.7,4,29.3,9.6,43.5c3.1,8.1,6.6,15.7,10.6,23.3c5.1,8.1,10.6,16.2,17.2,23.7
		c4.5,5.1,9.6,10.1,14.6,14.7c6.1,5,13.1,10.1,20.2,14.6c0-40.4-0.5-81.4-0.5-121.8C307.9,393.5,301.4,395.6,296.3,400.1z"/>
</g>
<path class="st2" d="M250.4,230.9c0.5,0,1.5,1,2.5,2.1l1,1l8.1,10.1c1,1,2,2,2.5,2.5c1.5,1,3.6,1.5,5.1,1.5c2.5,0,5.6-1.5,8.1-4
	c2-1.5,3-3.1,4-4.6c0.5-1,0.5-2,1-3c0-1-0.5-2-1-3.5c-0.5-1.5-1.5-2.6-2.5-4.1l-9.1-11.1c-1.5-1.5-1.5-3.1,0-5.1l-0.5-0.5l-5.1,4
	l-2,2l0.5,1l1.5-1.5c2-0.5,3,0,4.5,2l8.6,10.1c4,4.5,4,8.6,0,12.1c-3.1,2.5-6.6,2-10.2-2.5l-3-3.6l-6.6-7.5c-1-1.5-1.5-2-1-3
	c-0.5-0.5,0.5-1.5,2-3.1l-1.1-0.5l-4,3.6l-7.1,6l0.5,0.5C248.8,230.9,249.8,230.9,250.4,230.9z"/>
<path class="st2" d="M233.7,270.8c4,2.6,7.1,3.6,10.6,3.6c3.6-0.5,6.6-2,9.6-5c0.5-0.5,1.1-1,1.5-2c3.1-4,5.1-7.6,5.6-10.6l-4.5-3.6
	c-1.5-1-2-1.5-2-2c0-1,0.5-1.5,1-3l-0.5-0.5l-1.1,1l-8.1,10.6l0.5,0.5c1.5-1.5,2-2,3-2.5c0.5,0,1,0,2,1l2.5,1.5l1.1,1.5
	c2,1,2,2.5,0,5.1l-1.1,1c-2.5,2.5-5.6,2.5-9.6,1c-1.5-1-3.5-2-5.6-4c-2.5-1.5-4.5-3.5-5.5-5.1c-2.5-3.5-3-6.6-0.5-9.6l0.5-0.5
	c2.5-2.5,6.1-3.6,11.1-2.5l1.5,0.5l0.5-1l-2.1-1.5l-6-4.5l-0.5,1c0.5,1.1,1,2.1,0.5,2.6c-0.5,0-1,0.5-2,1c-1,1-2,1.5-3,2.5
	c-1,0.5-1.5,1-2,2c-5.1,7.6-4.6,14.7,2,20.7L233.7,270.8z"/>
<path class="st2" d="M207.4,324.4h1c2,0.5,4,1,6.1,1c2.5-0.5,4.5-1,6.5-2c2-2,4-4.5,6.1-8.1c1.5-5,2.5-9.1,2-12.1l-2-1l-3-1
	c-1.5-0.5-2.5-1-2.5-1.5c-0.5-0.5-0.5-1.5,0.5-3.5h-1l-5.6,13.6l0.5,0.5c1-2,1.5-3,2-3c0.5-0.5,1.5-0.5,2.6,0h0.5l4,1.5
	c2.1,1,2.6,2.5,1,5.6c-1,2.5-2.5,4-5.1,4.6c-2,0-4,0-6.5-0.5c-1.5-0.5-3.1-1-4.6-1.5l-1.5-0.5c-7.6-3.6-10.1-7.6-8.6-12.1
	c1.5-3,4.5-5,8.6-5.5c1-0.5,2.5-0.5,3.5-0.5l0.5-1l-4-1.5l-5.6-2.5l-0.5,1.5c1.5,0.5,1.5,1.5,1.5,2.5c0,0-0.5,0.5-1.5,1.5
	c-2,2-3,3.5-4,5.5C195.8,313.3,198.3,319.9,207.4,324.4z"/>
<path class="st2" d="M189.7,351.2l18.7,5.1h1.5c1.1,0.5,2.1,1,2.1,1.5c0.5,0.5,0.5,1.5,0.5,3.5h1l1-4.6l1-5h-1v0.5
	c-1,2.5-2.5,3-5.1,2h-1l-15.7-4l15.7-7.6l6.1-3.1l5.6-2.5v-1l-5.6-1.5l-6.1-1.5l-12.6-3.5c-2.5,0-3-1.6-3-4h-1l-2,9.1h1
	c1-2.6,2.5-3.6,5.1-3l12.6,3.6l-21.2,10.1l-2.5,9.1h1C185.7,353.7,187.2,352.7,189.7,351.2z"/>
<path class="st2" d="M188.2,371.9l20.2,1.5l0.5,0.5c1,0,2,0,2.5,1c0,0.5,0.5,1.5,0.5,3h1l1.5-15.2h-1c-0.5,3-1.5,4.1-4.1,4.1h-1
	l-19.7-2c-2,0-3-1.5-3-4.1l0.5-0.5h-1l-1.5,15.2h1C184.7,373,186.2,371.5,188.2,371.9z"/>
<path class="st2" d="M400.3,156.6c30.5,0,60.1,6,87.9,17.7c26.9,11.4,51,27.7,71.8,48.4c20.7,20.7,37,44.9,48.4,71.8
	c11.8,27.8,17.7,57.4,17.7,87.9s-6,60.1-17.7,87.9c-11.4,26.9-27.7,51-48.4,71.8c-20.7,20.7-44.9,37-71.8,48.4
	c-27.8,11.8-57.4,17.7-87.9,17.7s-60.1-6-87.9-17.7c-26.9-11.4-51-27.7-71.8-48.4c-20.7-20.7-37-44.9-48.4-71.8
	c-11.8-27.8-17.7-57.4-17.7-87.9s6-60.1,17.7-87.9c11.4-26.9,27.7-51,48.4-71.8s44.9-37,71.8-48.4
	C340.2,162.6,369.8,156.6,400.3,156.6 M400.3,146.3c-130.4,0-236.1,105.7-236.1,236.1s105.7,236.1,236.1,236.1
	s236.1-105.7,236.1-236.1S530.6,146.3,400.3,146.3L400.3,146.3z"/>
<path class="st2" d="M400.3,216.6c44.3,0,85.9,17.2,117.2,48.6c31.3,31.3,48.6,72.9,48.6,117.2s-17.2,85.9-48.6,117.2
	c-31.3,31.3-72.9,48.6-117.2,48.6s-85.9-17.2-117.2-48.6c-31.3-31.3-48.6-72.9-48.6-117.2s17.2-85.9,48.6-117.2
	S356,216.6,400.3,216.6 M400.3,208.4c-96.1,0-174,77.9-174,174s77.9,174,174,174s174-77.9,174-174S496.3,208.4,400.3,208.4
	L400.3,208.4z"/>
<path class="st2" d="M601.7,460.4c-1,0.5-2,0.5-3,0l-6.6-3l-5.5-2.5l-7.1-3c-1-0.5-1.5-1.1-1.5-2.1c-0.5-0.5,0-1.5,0.5-3l-1-0.5
	l-4.6,10.1l-1.5,3.1c-2.5,6-2,10.6,1.5,13.1l1,1c4,1.5,7.6,0,10.6-4c-0.5,3.6,0,6.5,2,8.1l1,0.5c1.5,1,3.1,1,4.6,0.5
	c2.5-1,4.6-3.5,6.6-8.1l3-6.6l2.6-5.6l-1-0.5C602.7,458.9,602.2,459.9,601.7,460.4z M586,463.5c-2,4-5,5-9,3c-2-1-3.6-2-4.1-3.5
	c-0.5-1-0.5-2,0-3v-0.5c1-2.1,2-2.6,3.5-1.5l10.1,4.5L586,463.5z M597.6,470c-1,2-3,3.1-5.6,2l-1.5-0.5c-2-1-3.6-2-4-3V468v-1.6
	c0-1,0.5-2,1-3.5l4.6,2l4.6,2C598.1,467.5,598.1,468.5,597.6,470z"/>
<path class="st2" d="M610.7,425c-0.5,0-1.5,0-3,0l-6.1-1.5l-8-2h-1.5c-2-0.5-4.1-0.5-5.5,0.5l-1.5,1c-2,1.5-3.1,4-4,8.1
	c-1.1,3.5-0.5,6.5,0.9,8.6c0.6,1.5,2.1,2.5,4.6,3.5c1,0,2,0.5,3,1.1l2.5,0.5l9.6,2l1.5,0.5c2,0,3,1.5,2.5,4h1l2-9.1h-0.5
	c-1,3-2.5,4.1-5.6,3l-1-0.5l-9.6-2l-2.5-0.5c-1-0.5-2-0.5-3-1c-3.6-1.5-5.1-4.5-4.1-8.6c0.5-2.5,2-4.1,4.1-4.6
	c1.5-0.5,3.5,0,5.5,0.5l9.6,2l4.5,1c1.5,0.5,2.6,1.1,3.1,1.5c0.5,0.5,0.5,1.5,0,3.5l1,0.5l3.5-14.6h-1
	C612.3,424,611.8,424.5,610.7,425z"/>
<path class="st2" d="M612.3,392.7l-10.6-0.5l-9.6-1h-0.5c-1.5,0-2-0.5-2.5-1c-0.5,0-0.5-1-0.5-3h-1l-1,13.2l-1,12.1h1l5.5,1.5l3.5,1
	v-1.5c-1.5-0.5-2.5-1-3.5-1.5c-3.5-2.5-5.1-5.5-4.6-10.1c0-2.5,1-4,3.1-3.5h1.5l9.6,1l9.1,0.5c2,0,3.1,0.5,3.6,1
	c0.5,0.5,0.5,1.5,0.5,3.6h1l1-15.2h-1C615.4,391.6,614.3,393.1,612.3,392.7z"/>
<path class="st2" d="M496,225.4h0.5l12.6,8l1-1c-2-1-2.5-2-2.5-2.5c-0.5-0.5,0-1.5,1-3l4-7.1l8.1-12.7l1.5,1.5
	c3,2.5,3.6,5.6,1.5,9.1l1,1l4.5-7.6l-7.1-4.5l-9.6-5.6l-5.5-3.6l-4.6,7.1l1,0.5c2.5-3,5.5-4,9.1-2.5c1,0.5,1.5,0.5,2,1l-2,3.1
	l-10.1,16.7c-1,1-1.5,2.1-2.5,2.1c-0.5,0.5-1.5,0-3-1.1l-0.5,0.5L496,225.4z"/>
<path class="st2" d="M474.8,214.7c2.5,0.5,4.6,1,6.1,1.5c6,0.5,11.1-2.5,14.2-9.1c1-2,1-3.5,1.5-5v-4.6c-1-4.5-4-8.1-9.1-11.1
	c-2-0.5-4.5-1-6.6-1c-6.1-0.5-10.6,2.5-13.7,9.1C463.7,203.6,466.2,210.2,474.8,214.7z M473.8,197.5c2.5-4.5,4.5-7.6,7.1-9.1
	c2-1,4.1-1,6-0.5c4.1,2,4.6,7.6,1,16.2c-2,4.5-4.5,8.1-7,9.1c-1.5,1-3.6,1-5.5,0.5C470.7,211.2,470.3,206.1,473.8,197.5z"/>
<path class="st2" d="M443,203.6c1.5,0.5,2.5,0.5,3.5,0.5c7.6,0.5,12.6-3.6,15.2-11.6c1.5-9.6-2.6-15.7-11.6-18.7
	c-1.5,0-2.6-0.5-3.5-0.5c-7.6,0-12.6,4.1-15.1,12.1C429.8,195,433.9,201.1,443,203.6z M438.9,186.9c1.5-6.6,4.1-10.1,7.6-11.6
	c1,0,2,0,3,0c5.1,1.5,6,6.6,4.6,15.2c-1.6,7.1-4.1,11.1-7.6,12.1c-1,0-2,0-3.1,0C438.4,201.1,436.9,196,438.9,186.9z"/>
<path class="st2" d="M416.2,198.6l0.5-1c-1,0-2,0-2.5,0l-1.5-0.5c-0.5-0.5-1-1.5-0.5-3.1l0.5-9.5h1.5c3,0.5,4.6,2.5,4.6,7h1.5
	l1-14.6h-1.5c-0.5,4-2.6,6-5.6,6l-1.5-0.5l1-9.6c0-1,0-1.5,0.5-2c0.5,0,1.5,0,2.5,0c3.6,0.5,5.6,1,7.1,2c1,1,1.5,3,2,6h1l0.5-9.1
	l-13.2-0.5l-11.1-1l-0.5,1c3,0,4,1.5,4,3.5l-1.5,20.7c0,1.5-0.5,2-1,2.5c-0.5,0.5-1.5,0.5-3,0.5v1l13.1,1H416.2z"/>
<path class="st2" d="M344.4,176.8c1,0.5,2,1,3,2l3.6,20.2c0.5,1.5,0,2.5,0,3c-0.5,0.5-1.5,1-3,1.5v1l9.6-2v-1
	c-3,0.5-4.6-0.5-4.6-3.5l-3.1-17.2l8.6,7.6l14.7,12.1h1l-4.6-25.3c-0.5-2,0.5-3.5,3-4l-0.5-1l-9.1,1.5v1c3.1-0.5,4.5,1,5.1,3.5
	l2,13.2l-11.6-10.1l-6.6-5.6l-7.6,1.5h-1.5l0.5,1L344.4,176.8z"/>
<path class="st2" d="M326.2,213.2h0.5l-0.5-1c-2,0.5-3.6,0.5-3.6-0.5c-0.5-0.5-0.5-2.5-0.5-6l4-1.5l5.1-2c2,2,3.5,3.5,4.1,4.5
	c0.5,1,0,2-2,3h-0.5v1l11.7-4.6l2-0.5l-0.5-1h-1.5l-1-0.5c-0.5,0-2-1-4.1-3.6l-13.1-13.7l-4.5-4h-1l-0.5,26.3c0.5,3.6-0.5,5.6-2,6.1
	l0.5,1L326.2,213.2z M322.2,192.5l4,4l4,4.5l-4,1.5l-4,1.5V192.5z"/>
<path class="st2" d="M283.3,219.8c3.5,5.6,8.1,8.1,13.1,8.1c2.5-0.5,5-1,7.6-2.5c8.1-5.1,10.1-12.2,6.1-20.8
	c-4.1-5.6-8.1-8.1-13.7-8.1c-2,0-4.6,1-7.6,2c-3.6,2.5-6.1,5-7.1,8.1c-1.1,3-1.1,6.5,0,10.1C282.2,217.8,282.7,218.8,283.3,219.8z
	 M289.8,200.1c2-1,4.5-1,6.6,0.5c2.5,1.5,4.6,4.1,6.6,7.6c5,8.1,5,13.7,0.5,16.2c-2,1.1-4.6,1.1-7.1-0.5c-2-1-4.6-4.1-6.6-7.6
	C285.3,208.1,285.3,202.6,289.8,200.1z"/>
<path class="st2" d="M228.1,458.9c-0.5-1-1-1.5-1-2c-2.1-3-4.1-5-6.1-6.1c-2-0.5-3.5-0.5-5.6,0.5l-1,0.5c-3.1,2-3.5,5-2.5,9.6v0.5
	c-1.5-1.5-2.5-2.5-3.5-3.6c-2-1-3.5-1-5.6-0.5c-4,2-4.5,6.6-1.5,13.6l5.6,12.1l1-0.5c-1-2-1-3.6,0.5-4.6h0.5l5.6-2.5l6.5-3l6.1-2.6
	l1-0.5c1-0.5,2-0.5,2.5-0.5c0.5,0.5,1.5,1,2.1,2.5h0.5l0.5-0.5l-0.5-1.5L228.1,458.9z M214.5,468.5l-6.1,2.6l-3,1.5
	c-1,0.5-2,0-2.5-1.5c-1.5-2.6-0.5-5.1,3-6.6c1,0,2-0.5,2.5-0.5c1-0.5,2-0.5,2.5,0c1.5,0.5,2.5,2,3.5,4.1V468.5z M227.2,462.4
	l-1.5,1.1l-4.6,2l-5.6,2.6l-0.5-1c0-1-0.5-2-0.5-2.5v-2c0.5-2,1.5-3.5,4.5-4.5c0.5-0.5,1.1-0.5,2-1.1c2.6-0.5,4.6,0.5,6.1,3.1
	C227.6,460.9,227.6,461.9,227.2,462.4z"/>
<path class="st2" d="M214.5,442.7l2.5-0.5c1-0.5,2,0,2.5,0c0,0.5,0.6,1.5,1.5,3h1l-1-4.5l-4.5-20.7h-2l-6.1,0.5h-1v1.1h1
	c2.5,0.5,4.6,2,6.1,3.5c1.5,1.5,2.5,3.5,3,6.1c0.5,2.5,0,4-1.5,4l-1.5,0.5l-6.1,1l-3,0.5c-0.5-2,0-4,0.5-5c0.5-1,1.5-1.5,2.5-2l2-1
	v-1l-2,0.5l-12.1,2.6v1c2.5,0,4,0,5.6,1c1,0.5,1.5,2,2,4.5l-9.6,2c-1.5,0.5-2.5-0.5-2.5-2.5c-1-3.5-1-6,0-7.6c0.5-1.5,2-3,4.5-3.5
	v-1.5l-8.6,2l5.5,24.8l0.5-0.5c-0.5-2.5,0.5-4.1,2.5-4.5l12.1-2.5L214.5,442.7z"/>
<path class="st2" d="M185.1,392.2c0.6-0.5,1.5-1,2.6-1h20.7h3.5c1-0.5,2,0,2.5,0c0.5,0.5,1,1.5,1,2.5c0,1.1-0.5,1.5-1,2l-1.5-0.5
	l-1-0.5c-2.1,0-3.5,1-3.5,3c0.5,2,1.5,3,3.5,3c1-0.5,2-0.5,2.5-1c1.5-1.5,2.5-3.5,2.5-6.6c0-3-1-5.6-2.5-7.1c-1.5-1.5-3.5-2-6.1-2
	h-0.5h-19.2c-1.5,0-2.5,0-3.6-0.5c0-0.5-0.5-1.5-0.5-3h-1v15.1h1C184.7,393.6,185.1,392.7,185.1,392.2z"/>
<path class="st2" d="M208.4,413.4l2.5-0.5c1,0,2,0,2.5,0.5c0,0.5,0.5,1.5,1,3h1l-1-8.5l-1-6.6h-1c0.5,3.1-0.5,4.6-2.6,5.1h-1.5
	l-19.2,2.5c-2,0-3.5-1-3.5-3.6l-0.6-0.5h-1l2,15.2h1c-0.5-2.5,0.5-4,3-4.6L208.4,413.4z"/>
<path class="st1" d="M243.8,531.7c107.2-25.8,205.7-25.8,312.9,0c39.4,10.6,54.6,13.7,79.4,21.7c16.6,5,25.8-2.5,9.1-7.6
	c-12.1-4-18.2-10.6-4.1-9.5l71.2,20.2l-48.5,61.7l-23.3-6.1l15.7-52.6l-32.4,81.4c-3.6,9.6-10.1,11.1-18.2,9.1
	c-150.1-52-260.8-52-411.4,0c-7.6,2.1-14.2,0.5-17.7-9.1l-32.3-81.4l15.7,52.6l-23.8,6.1l-48-61.7l71.3-20.2c14.1-1,8.1,5.5-4,9.5
	c-16.7,5.1-7.6,12.6,9.1,7.6C189.2,545.3,204.4,542.3,243.8,531.7z"/>
<path class="st3" d="M648.2,530.2c-7.1-2-15.7-2-19.2,0.5c-6.1,3.1-7.6,6.1-6.1,12.6l0.5,0.5C548.1,518,474.3,504.8,400,504.8
	c-73.8,0-147.6,13.2-222.9,38.9l0.5-0.5c1.5-6.5-0.5-9.6-6.1-12.6c-4-2.5-12.1-2.5-19.2-0.5L75,551.9l59.7,74.8l27.3-6.6L173,652
	c3.5,10.6,16.2,8.6,24.8,5c74.3-25.3,138.5-38.4,202.2-38.4c64.2,0,127.9,13.1,202.2,38.4c9.1,3.5,21.7,5.5,25.3-5l11.1-31.9
	l27.3,6.6l59.2-74.8L648.2,530.2z M663.8,618.1l-23.3-6.1l15.7-52.6l-32.4,81.4c-3.6,9.6-10.1,11.1-18.2,9.1
	c-74.8-26.2-140.5-39.4-205.7-39.4c-65.2,0-130.4,13.1-205.7,39.4c-7.6,2.1-14.2,0.5-17.7-9.1l-32.3-81.4l15.7,52.6l-23.8,6.1
	l-48-61.7l71.3-20.2c14.1-1,8.1,5.5-4,9.5c-16.7,5.1-7.6,12.6,9.1,7.6c24.8-8.1,39.9-11.1,79.4-21.7
	c53.6-12.6,105.1-19.2,156.2-19.2c51.5,0,103.1,6.6,156.7,19.2c39.4,10.6,54.6,13.7,79.4,21.7c16.6,5,25.8-2.5,9.1-7.6
	c-12.1-4-18.2-10.6-4.1-9.5l71.2,20.2L663.8,618.1z"/>
<g>
	<polygon class="st2" points="592.1,560 584,595.8 564.3,550.9 548.1,544.8 532.4,613 553.7,617.6 560.2,584.8 578.4,626.7 
		595.6,632.8 610.7,566.5 	"/>
	<path class="st2" d="M496,532.7l-13.6-2l-14.2,9.1l-12.1,57.1l20.2,3l4-22.3l15.7,2.6l8.1,1l-4.1,22.7l19.7,4.1l11.6-58.1
		l-10.6-13.1L496,532.7z M506.6,567.1l-10.6-2l-13.2-2l2.6-12.6l10.6,1.5l13.1,2.5L506.6,567.1z"/>
	<polygon class="st2" points="311.5,534.2 320.1,583.7 296.9,588.3 286.7,538.7 267.5,543.8 278.7,596.4 294.4,606 331.7,598.4 
		340.9,584.8 331.3,530.6 	"/>
	<polygon class="st2" points="226.6,583.2 230.2,597.9 241.3,595.3 244.3,604.5 221.6,610.6 211,576.1 252.9,564 248.3,548.4 
		201.4,562 190.7,579.7 203.9,623.2 218,626.2 255.4,615.6 264.5,602.4 257,574.7 	"/>
</g>
<g>
	<path class="st2" d="M400,473.9c33.4,0,61.2,27.3,61.2,61.2c0,33.4-27.8,61.2-61.2,61.2c-33.8,0-61.1-27.8-61.1-61.2
		C338.8,501.2,366.1,473.9,400,473.9z"/>
	<path class="st0" d="M400.2,484.8c27.8,0,50.1,22.7,50.1,50.5c0,27.8-22.3,50-50.1,50c-27.8,0-50.5-22.2-50.5-50
		C349.7,507.5,372.5,484.8,400.2,484.8z"/>
	<path class="st3" d="M438.7,500.8c-3.5-4.6-8.1-8.1-13.1-10.6c-8.7-5-19.2-7.6-28.8-6.6c-1,0-1.5,0-2,0c-9.6,1-19.2,4.6-27.3,11.1
		l-1.5,1.5c-11.2,9.6-17.2,23.3-17.7,36.9v3.6c0.5,11.6,5,23.2,13.1,32.8c2,2,4,4,6.1,5.6c8.1,6.6,17.7,10.6,27.3,11.1
		c0.5,0.5,1,0.5,2,0.5c9.6,0.5,19.7-1.5,28.8-6.6c3-2,6-4,9.1-6.6c11.1-9.6,16.7-23.2,17.2-37.3v-2.5
		C451.3,522,447.2,509.9,438.7,500.8z M394.7,487.6l2-1.5l0.5-0.5c10.1-0.5,19.7,1.5,28.4,7.1c2,1,3.5,2,5,3.5l1.5,7.6l-6.5,3.5
		l-6.1,3.6l-20.2-7.1l-2.5-6.1l-2-3.6l-2-4.5L394.7,487.6z M359.3,506.9c2.1-3,4.6-6.1,8.1-9.1c4.6-4.1,9.1-6.6,14.2-8.6l8.6,1.5
		l4.5,9.1l2,3.5l0.5,1l-0.5,1l-2,2.5l-8.6,13.2l-18.7,3h-1.5l-7.1-12.1L359.3,506.9z M367.4,572.6c-1.5-1.5-3-3-4.5-4.5
		c-4.5-5.6-8.1-12.1-10.1-18.7l5.6-2.6l9.1,9.6l7.1,6.6l1.5,15.1C372.9,576.6,370.4,574.6,367.4,572.6z M393.2,558.4l-17.7,3
		l-8.1-8.6l-8.1-8.1l6.6-18.2l1.5-0.5l19.2-2.6l8.1,11.1l2,2.6l1,1.5l-1,5.6l-2,6.6L393.2,558.4z M395.2,560l1.5-5.6l3.5-14.2
		l17.2-5.6l8.1,8.1l6.5,6.6l-3.6,15.7l-3,1l-16.7,6.1l-12.2-11.1L395.2,560z M433.1,572.1c-2.5,2-5.1,4.1-7.6,5.5
		c-7.6,4.6-16.7,7.1-25.3,7.1l8.6-10.1l16.7-6.1l4-1.5l5.6,3C434.6,571.1,433.6,571.6,433.1,572.1z M433.6,547.3l-8.1-8.1l-6.6-6.6
		l1.5-19.7l5.1-3l6.5-3.5l13.1,8.6l1,1.5l3,20.8L433.6,547.3z"/>
</g>
<g>
	<path class="st0" d="M348.7,631.7c-0.5,1.6-1.6,3.3-3.2,5.2c-1.6,1.8-3.5,3.5-5.7,4.9l0.6,4.1c1.3-0.7,2.7-1.6,4.2-2.8
		c1.5-1.2,2.8-2.4,3.7-3.5l3.7,27.3l4.3-0.6l-4.7-35.1L348.7,631.7z"/>
	<path class="st0" d="M387.3,630.7c-1.9-1.2-4-1.9-6.3-1.9c-3.2,0-5.8,1.1-7.9,3.3c-2.1,2.2-3.2,5.1-3.2,8.6c0,3.5,1,6.3,3,8.4
		c2,2.1,4.5,3.2,7.4,3.2c1.7,0,3.4-0.4,4.9-1.3c1.5-0.9,2.7-2,3.5-3.4c0,0.4,0,0.7,0,0.9c0,1.8-0.2,3.6-0.6,5.3s-1,3.1-1.6,4.1
		c-0.6,1-1.5,1.8-2.5,2.4c-1,0.6-2.2,0.9-3.5,0.9c-1.6,0-2.8-0.4-3.8-1.3c-1-0.9-1.7-2.3-2-4.3l-4.2,0.4c0.4,2.8,1.4,4.9,3.2,6.5
		s4,2.3,6.8,2.3c2.6,0,4.9-0.7,6.8-2.1c1.9-1.4,3.4-3.4,4.4-6.1c1-2.7,1.5-6.3,1.5-10.8c0-4.3-0.5-7.6-1.5-9.9
		C390.7,633.7,389.2,632,387.3,630.7z M386.4,646.4c-1.3,1.4-2.9,2.1-4.9,2.1c-2,0-3.7-0.7-5-2.1c-1.4-1.4-2-3.2-2-5.5
		c0-2.5,0.7-4.5,2.1-6.1s3.1-2.4,5-2.4c1.9,0,3.5,0.7,4.8,2.2c1.3,1.5,2,3.4,2,5.9C388.3,643.1,387.7,645,386.4,646.4z"/>
	<path class="st0" d="M422.2,630c-1.9-1.2-4-1.9-6.3-1.9c-3.2,0-5.8,1.1-7.9,3.3c-2.1,2.2-3.2,5.1-3.2,8.6c0,3.5,1,6.3,3,8.4
		c2,2.1,4.5,3.2,7.4,3.2c1.7,0,3.4-0.4,4.9-1.3c1.5-0.9,2.7-2,3.5-3.4c0,0.4,0,0.7,0,0.9c0,1.8-0.2,3.6-0.6,5.3
		c-0.4,1.7-1,3.1-1.6,4.1c-0.6,1-1.5,1.8-2.5,2.4c-1,0.6-2.2,0.9-3.5,0.9c-1.6,0-2.8-0.4-3.8-1.3c-1-0.9-1.7-2.3-2-4.3l-4.2,0.4
		c0.4,2.8,1.4,4.9,3.2,6.5s4,2.3,6.8,2.3c2.6,0,4.9-0.7,6.8-2.1c1.9-1.4,3.4-3.4,4.4-6.1c1-2.7,1.5-6.3,1.5-10.8
		c0-4.3-0.5-7.6-1.5-9.9C425.6,633,424.1,631.3,422.2,630z M421.3,645.7c-1.3,1.4-2.9,2.1-4.9,2.1c-2,0-3.7-0.7-5-2.1
		c-1.4-1.4-2-3.2-2-5.5c0-2.5,0.7-4.5,2.1-6.1s3.1-2.4,5-2.4c1.9,0,3.5,0.7,4.8,2.2c1.3,1.5,2,3.4,2,5.9
		C423.2,642.4,422.6,644.3,421.3,645.7z"/>
	<path class="st0" d="M459.2,633.7c-1.8-2-4.4-3.1-7.8-3.4c-3.3-0.2-6.1,0.4-8.2,2c-2.1,1.6-3.4,4-4,7.3l4.4,0.8
		c0.2-2.2,0.9-3.9,2.3-5c1.3-1.2,3-1.7,5.1-1.5c2,0.1,3.5,0.8,4.7,2.1c1.1,1.3,1.6,2.8,1.5,4.5c-0.1,1.6-0.9,3.3-2.4,5
		c-1.5,1.7-4.2,4-8.3,6.9c-2.6,1.8-4.6,3.5-6,4.9c-1.4,1.4-2.5,2.9-3.2,4.5c-0.4,0.9-0.7,1.9-0.7,3l23.2,1.7l0.3-4.2l-17.3-1.3
		c0.5-0.7,1.2-1.5,2-2.2c0.8-0.7,2.6-2.1,5.3-4.1c3.3-2.4,5.7-4.3,7.1-5.7c1.4-1.4,2.5-2.8,3.2-4.1c0.7-1.3,1.1-2.7,1.2-4.1
		C461.8,638.1,461,635.7,459.2,633.7z"/>
</g>
</svg>
