<?xml version="1.0" encoding="utf-8"?>
<!-- Generator: Adobe Illustrator 22.1.0, SVG Export Plug-In . SVG Version: 6.00 Build 0)  -->
<svg version="1.1" id="图层_1" xmlns="http://www.w3.org/2000/svg" xmlns:xlink="http://www.w3.org/1999/xlink" x="0px" y="0px"
	 viewBox="0 0 800 800" style="enable-background:new 0 0 800 800;" xml:space="preserve">
<style type="text/css">
	.st0{fill:#00A040;}
</style>
<g>
	<path class="st0" d="M614.6,378.5c0,0,0.6-1,0.6-2c1-2.5,1-5,1-6.6c-1.5-8.6-6-13.6-14.7-13.6c-1-0.5-1.5-0.5-2-0.5
		c-3,0.5-5.5,1.5-7.5,2.5c-3,2-4.6,4.5-5.5,8.1c-0.6,1.5-0.6,4.1-0.6,6.6c0,1,0,2,0.6,3c1,3.1,2.5,5.6,5.5,7.6l1,1l1-1.5
		c-1-0.5-1.5-1-2-1.5c-2.5-2.5-4.1-5-4.6-8.1c0-3,1-5.6,3.5-7.1l1-1c2-1,4.6-1.5,8.1-2h1.5c8.6-0.5,12.7,2,13.1,7.1
		c0.6,4-2.5,7.6-7.5,11.1v1l10.1-1V380C615.6,380,614.6,379.5,614.6,378.5z"/>
	<path class="st0" d="M575.2,309.2c-1,0.5-1.5,0.5-2.5,0c-0.5-0.5-1-1-1.5-2h-1l2.5,6.6l6.6,17.1l7.1-1.5l3-1l-0.5-1
		c-1,0-1.5,0-2.5,0c-5.1-0.5-8.1-2.5-9.6-7.1c-1-2.5-1-4,1-4.6l8.6-3.5l5.5-2l4.6-2c1.5-0.5,3-1,3.5-0.5l1.5,1.5l0.5,1.5l1-0.5
		l-1.5-4.1l-4-9.7h-1c1,2.6,0.5,4.1-1.5,5.1l-3,1l-5.5,2L575.2,309.2z"/>
	<path class="st0" d="M561.5,283c-1,0.5-2.1,1-2.6,0.5c-0.5,0-1-0.5-2-2.1l-0.5,0.5h-0.5l0.5,0.5l6,10.6l6.6,10.6l3.5-1.6l5.6-2
		l-0.5-1c-2,0.5-3.5,0.5-5,0c-3.5,0-6.1-2-8.1-5.1c-1.5-2.5-1.5-4,0-4.5l8.1-5l9.6-5.6c1.5-1,2.5-1.5,3.5-1h0.6c0.5,0.5,1,1.5,2,2.6
		l0.5-0.5l-2.5-4.5l-5.1-8.6l-1,0.5c1.5,2.5,1,4-0.5,5l-7.1,4l-10.1,6.1L561.5,283z"/>
	<path class="st0" d="M539.8,257.2c-1,0-2-0.5-3-1l-0.5,0.5l3.5,5.1l2,2l0.6-1c-1.1-2-1.5-3-0.6-3.6c0.6-0.5,2-1.5,5.5-2l6.1,7.6
		c-1.5,2.5-2.5,4.1-3,5.1c-1,1-2.1,0.5-3.6-1.5l-1,0.5l8.6,10.6l0.5,0.5l0.5-1l-0.5-2c0-0.5,0.5-1.5,1.5-3c0-1,0.5-1.6,1-2.6l5-9.6
		l6.6-12.1l-0.5-1l-6.1,2.1l-6,1.5l-2,0.5l-10.7,3.5C542.3,256.7,540.8,257.2,539.8,257.2z M554.5,254.7l2-0.5l3.5-1.5l-3.5,6.6
		l-2,3.6v0.5l-5.6-7.1L554.5,254.7z"/>
	<path class="st0" d="M521.1,236.9l-2,1c-1.1,0-1.5-0.5-3.1-1.5l-0.5,1l6.6,6.6l3.6,3c2,1.5,3.5,2.6,5,3.6c2.1,0.5,3.6,1,5.1,1
		c1.5-0.5,3-1,4-2.5h0.5c2.5-3,2.5-6.1-0.5-10.1l-0.5-1l0.5,0.5c4,2.1,7.1,1.6,9.1-0.5c3-3.5,2-7.6-3.5-13.1l-5.6-5.1l-4-4h-0.5
		l-0.5,1l1,0.5c1,1.5,1,3,0,4l-0.5,0.5l-4.6,4.5l-8.6,9.1L521.1,236.9z M535.7,231.4l4-4.5l1.5-1c0.5-1,1.5-1,3,0c2,2,2,4.5-0.5,7.1
		c-1.5,1.5-3,2.5-4,2.5h-0.5c-1,0-2.1-0.5-3.6-1.5l-1.5-1L535.7,231.4z M526.1,241.5l4.5-5l3-2.5l0.5,0.5l1.5,1.5
		c1.5,2,1.5,4.6,0,7.1l-1,1c-1.5,1.5-2.5,2.5-4,2.5c-1.5,1-3,0.5-4.5-1.1C524.6,244.5,524.6,243,526.1,241.5z"/>
	<path class="st0" d="M250.2,230.9c0.5,0,1.5,1,2.5,2.1l1,1l8.1,10.1c1,1,2,2,2.5,2.5c1.5,1,3.6,1.5,5.1,1.5c2.5,0,5.6-1.5,8.1-4
		c2-1.5,3-3.1,4-4.6c0.5-1,0.5-2,1-3c0-1-0.5-2-1-3.5c-0.5-1.5-1.5-2.6-2.5-4.1l-9.1-11.1c-1.5-1.5-1.5-3.1,0-5.1l-0.5-0.5l-5.1,4
		l-2,2l0.5,1l1.5-1.5c2-0.5,3,0,4.5,2l8.6,10.1c4,4.5,4,8.6,0,12.1c-3.1,2.5-6.6,2-10.2-2.5l-3-3.6l-6.6-7.5c-1-1.5-1.5-2-1-3
		c-0.5-0.5,0.5-1.5,2-3.1l-1.1-0.5l-4,3.6l-7.1,6l0.5,0.5C248.6,230.9,249.6,230.9,250.2,230.9z"/>
	<path class="st0" d="M233.5,270.8c4,2.6,7.1,3.6,10.6,3.6c3.6-0.5,6.6-2,9.6-5c0.5-0.5,1.1-1,1.5-2c3.1-4,5.1-7.6,5.6-10.6
		l-4.5-3.6c-1.5-1-2-1.5-2-2c0-1,0.5-1.5,1-3l-0.5-0.5l-1.1,1l-8.1,10.6l0.5,0.5c1.5-1.5,2-2,3-2.5c0.5,0,1,0,2,1l2.5,1.5l1.1,1.5
		c2,1,2,2.5,0,5.1l-1.1,1c-2.5,2.5-5.6,2.5-9.6,1c-1.5-1-3.5-2-5.6-4c-2.5-1.5-4.5-3.5-5.5-5.1c-2.5-3.5-3-6.6-0.5-9.6l0.5-0.5
		c2.5-2.5,6.1-3.6,11.1-2.5l1.5,0.5l0.5-1l-2.1-1.5l-6-4.5l-0.5,1c0.5,1.1,1,2.1,0.5,2.6c-0.5,0-1,0.5-2,1c-1,1-2,1.5-3,2.5
		c-1,0.5-1.5,1-2,2c-5.1,7.6-4.6,14.7,2,20.7L233.5,270.8z"/>
	<path class="st0" d="M207.2,324.4h1c2,0.5,4,1,6.1,1c2.5-0.5,4.5-1,6.5-2c2-2,4-4.5,6.1-8.1c1.5-5,2.5-9.1,2-12.1l-2-1l-3-1
		c-1.5-0.5-2.5-1-2.5-1.5c-0.5-0.5-0.5-1.5,0.5-3.5h-1l-5.6,13.6l0.5,0.5c1-2,1.5-3,2-3c0.5-0.5,1.5-0.5,2.6,0h0.5l4,1.5
		c2.1,1,2.6,2.5,1,5.6c-1,2.5-2.5,4-5.1,4.6c-2,0-4,0-6.5-0.5c-1.5-0.5-3.1-1-4.6-1.5l-1.5-0.5c-7.6-3.6-10.1-7.6-8.6-12.1
		c1.5-3,4.5-5,8.6-5.5c1-0.5,2.5-0.5,3.5-0.5l0.5-1l-4-1.5l-5.6-2.5l-0.5,1.5c1.5,0.5,1.5,1.5,1.5,2.5c0,0-0.5,0.5-1.5,1.5
		c-2,2-3,3.5-4,5.5C195.6,313.3,198.1,319.9,207.2,324.4z"/>
	<path class="st0" d="M189.5,351.2l18.7,5.1h1.5c1.1,0.5,2.1,1,2.1,1.5c0.5,0.5,0.5,1.5,0.5,3.5h1l1-4.6l1-5h-1v0.5
		c-1,2.5-2.5,3-5.1,2h-1l-15.7-4l15.7-7.6l6.1-3.1l5.6-2.5v-1l-5.6-1.5l-6.1-1.5l-12.6-3.5c-2.5,0-3-1.6-3-4h-1l-2,9.1h1
		c1-2.6,2.5-3.6,5.1-3l12.6,3.6L187,345.1l-2.5,9.1h1C185.5,353.7,187,352.7,189.5,351.2z"/>
	<path class="st0" d="M188,371.9l20.2,1.5l0.5,0.5c1,0,2,0,2.5,1c0,0.5,0.5,1.5,0.5,3h1l1.5-15.2h-1c-0.5,3-1.5,4.1-4.1,4.1h-1
		l-19.7-2c-2,0-3-1.5-3-4.1l0.5-0.5h-1l-1.5,15.2h1C184.4,373,186,371.5,188,371.9z"/>
	<path class="st0" d="M601.4,460.4c-1,0.5-2,0.5-3,0l-6.6-3l-5.5-2.5l-7.1-3c-1-0.5-1.5-1.1-1.5-2.1c-0.5-0.5,0-1.5,0.5-3l-1-0.5
		l-4.6,10.1l-1.5,3.1c-2.5,6-2,10.6,1.5,13.1l1,1c4,1.5,7.6,0,10.6-4c-0.5,3.6,0,6.5,2,8.1l1,0.5c1.5,1,3.1,1,4.6,0.5
		c2.5-1,4.6-3.5,6.6-8.1l3-6.6l2.6-5.6l-1-0.5C602.4,458.9,601.9,459.9,601.4,460.4z M585.8,463.5c-2,4-5,5-9,3c-2-1-3.6-2-4.1-3.5
		c-0.5-1-0.5-2,0-3v-0.5c1-2.1,2-2.6,3.5-1.5l10.1,4.5L585.8,463.5z M597.4,470c-1,2-3,3.1-5.6,2l-1.5-0.5c-2-1-3.6-2-4-3V468v-1.6
		c0-1,0.5-2,1-3.5l4.6,2l4.6,2C597.9,467.5,597.9,468.5,597.4,470z"/>
	<path class="st0" d="M610.5,425c-0.5,0-1.5,0-3,0l-6.1-1.5l-8-2h-1.5c-2-0.5-4.1-0.5-5.5,0.5l-1.5,1c-2,1.5-3.1,4-4,8.1
		c-1.1,3.5-0.5,6.5,0.9,8.6c0.6,1.5,2.1,2.5,4.6,3.5c1,0,2,0.5,3,1.1l2.5,0.5l9.6,2l1.5,0.5c2,0,3,1.5,2.5,4h1l2-9.1H608
		c-1,3-2.5,4.1-5.6,3l-1-0.5l-9.6-2l-2.5-0.5c-1-0.5-2-0.5-3-1c-3.6-1.5-5.1-4.5-4.1-8.6c0.5-2.5,2-4.1,4.1-4.6
		c1.5-0.5,3.5,0,5.5,0.5l9.6,2l4.5,1c1.5,0.5,2.6,1.1,3.1,1.5c0.5,0.5,0.5,1.5,0,3.5l1,0.5l3.5-14.6h-1
		C612.1,424,611.5,424.5,610.5,425z"/>
	<path class="st0" d="M612.1,392.7l-10.6-0.5l-9.6-1h-0.5c-1.5,0-2-0.5-2.5-1c-0.5,0-0.5-1-0.5-3h-1l-1,13.2l-1,12.1h1l5.5,1.5
		l3.5,1v-1.5c-1.5-0.5-2.5-1-3.5-1.5c-3.5-2.5-5.1-5.5-4.6-10.1c0-2.5,1-4,3.1-3.5h1.5l9.6,1l9.1,0.5c2,0,3.1,0.5,3.6,1
		c0.5,0.5,0.5,1.5,0.5,3.6h1l1-15.2h-1C615.1,391.6,614.1,393.1,612.1,392.7z"/>
	<path class="st0" d="M495.8,225.4h0.5l12.6,8l1-1c-2-1-2.5-2-2.5-2.5c-0.5-0.5,0-1.5,1-3l4-7.1l8.1-12.7l1.5,1.5
		c3,2.5,3.6,5.6,1.5,9.1l1,1l4.5-7.6l-7.1-4.5l-9.6-5.6l-5.5-3.6l-4.6,7.1l1,0.5c2.5-3,5.5-4,9.1-2.5c1,0.5,1.5,0.5,2,1l-2,3.1
		l-10.1,16.7c-1,1-1.5,2.1-2.5,2.1c-0.5,0.5-1.5,0-3-1.1l-0.5,0.5L495.8,225.4z"/>
	<path class="st0" d="M474.6,214.7c2.5,0.5,4.6,1,6.1,1.5c6,0.5,11.1-2.5,14.2-9.1c1-2,1-3.5,1.5-5v-4.6c-1-4.5-4-8.1-9.1-11.1
		c-2-0.5-4.5-1-6.6-1c-6.1-0.5-10.6,2.5-13.7,9.1C463.5,203.6,466,210.2,474.6,214.7z M473.6,197.5c2.5-4.5,4.5-7.6,7.1-9.1
		c2-1,4.1-1,6-0.5c4.1,2,4.6,7.6,1,16.2c-2,4.5-4.5,8.1-7,9.1c-1.5,1-3.6,1-5.5,0.5C470.5,211.2,470,206.1,473.6,197.5z"/>
	<path class="st0" d="M442.8,203.6c1.5,0.5,2.5,0.5,3.5,0.5c7.6,0.5,12.6-3.6,15.2-11.6c1.5-9.6-2.6-15.7-11.6-18.7
		c-1.5,0-2.6-0.5-3.5-0.5c-7.6,0-12.6,4.1-15.1,12.1C429.6,195,433.6,201.1,442.8,203.6z M438.7,186.9c1.5-6.6,4.1-10.1,7.6-11.6
		c1,0,2,0,3,0c5.1,1.5,6,6.6,4.6,15.2c-1.6,7.1-4.1,11.1-7.6,12.1c-1,0-2,0-3.1,0C438.2,201.1,436.7,196,438.7,186.9z"/>
	<path class="st0" d="M416,198.6l0.5-1c-1,0-2,0-2.5,0l-1.5-0.5c-0.5-0.5-1-1.5-0.5-3.1l0.5-9.5h1.5c3,0.5,4.6,2.5,4.6,7h1.5l1-14.6
		h-1.5c-0.5,4-2.6,6-5.6,6l-1.5-0.5l1-9.6c0-1,0-1.5,0.5-2c0.5,0,1.5,0,2.5,0c3.6,0.5,5.6,1,7.1,2c1,1,1.5,3,2,6h1l0.5-9.1
		l-13.2-0.5l-11.1-1l-0.5,1c3,0,4,1.5,4,3.5l-1.5,20.7c0,1.5-0.5,2-1,2.5c-0.5,0.5-1.5,0.5-3,0.5v1l13.1,1H416z"/>
	<path class="st0" d="M344.2,176.8c1,0.5,2,1,3,2l3.6,20.2c0.5,1.5,0,2.5,0,3c-0.5,0.5-1.5,1-3,1.5v1l9.6-2v-1
		c-3,0.5-4.6-0.5-4.6-3.5l-3.1-17.2l8.6,7.6l14.7,12.1h1l-4.6-25.3c-0.5-2,0.5-3.5,3-4l-0.5-1l-9.1,1.5v1c3.1-0.5,4.5,1,5.1,3.5
		l2,13.2l-11.6-10.1l-6.6-5.6l-7.6,1.5h-1.5l0.5,1L344.2,176.8z"/>
	<path class="st0" d="M326,213.2h0.5l-0.5-1c-2,0.5-3.6,0.5-3.6-0.5c-0.5-0.5-0.5-2.5-0.5-6l4-1.5l5.1-2c2,2,3.5,3.5,4.1,4.5
		c0.5,1,0,2-2,3h-0.5v1l11.7-4.6l2-0.5l-0.5-1h-1.5l-1-0.5c-0.5,0-2-1-4.1-3.6L326,186.9l-4.5-4h-1l-0.5,26.3c0.5,3.6-0.5,5.6-2,6.1
		l0.5,1L326,213.2z M321.9,192.5l4,4l4,4.5l-4,1.5l-4,1.5V192.5z"/>
	<path class="st0" d="M283.1,219.8c3.5,5.6,8.1,8.1,13.1,8.1c2.5-0.5,5-1,7.6-2.5c8.1-5.1,10.1-12.2,6.1-20.8
		c-4.1-5.6-8.1-8.1-13.7-8.1c-2,0-4.6,1-7.6,2c-3.6,2.5-6.1,5-7.1,8.1c-1.1,3-1.1,6.5,0,10.1C282,217.8,282.5,218.8,283.1,219.8z
		 M289.6,200.1c2-1,4.5-1,6.6,0.5c2.5,1.5,4.6,4.1,6.6,7.6c5,8.1,5,13.7,0.5,16.2c-2,1.1-4.6,1.1-7.1-0.5c-2-1-4.6-4.1-6.6-7.6
		C285,208.1,285,202.6,289.6,200.1z"/>
	<path class="st0" d="M227.9,458.9c-0.5-1-1-1.5-1-2c-2.1-3-4.1-5-6.1-6.1c-2-0.5-3.5-0.5-5.6,0.5l-1,0.5c-3.1,2-3.5,5-2.5,9.6v0.5
		c-1.5-1.5-2.5-2.5-3.5-3.6c-2-1-3.5-1-5.6-0.5c-4,2-4.5,6.6-1.5,13.6l5.6,12.1l1-0.5c-1-2-1-3.6,0.5-4.6h0.5l5.6-2.5l6.5-3l6.1-2.6
		l1-0.5c1-0.5,2-0.5,2.5-0.5c0.5,0.5,1.5,1,2.1,2.5h0.5l0.5-0.5L233,470L227.9,458.9z M214.3,468.5l-6.1,2.6l-3,1.5
		c-1,0.5-2,0-2.5-1.5c-1.5-2.6-0.5-5.1,3-6.6c1,0,2-0.5,2.5-0.5c1-0.5,2-0.5,2.5,0c1.5,0.5,2.5,2,3.5,4.1V468.5z M226.9,462.4
		l-1.5,1.1l-4.6,2l-5.6,2.6l-0.5-1c0-1-0.5-2-0.5-2.5v-2c0.5-2,1.5-3.5,4.5-4.5c0.5-0.5,1.1-0.5,2-1.1c2.6-0.5,4.6,0.5,6.1,3.1
		C227.4,460.9,227.4,461.9,226.9,462.4z"/>
	<path class="st0" d="M214.3,442.7l2.5-0.5c1-0.5,2,0,2.5,0c0,0.5,0.6,1.5,1.5,3h1l-1-4.5l-4.5-20.7h-2l-6.1,0.5h-1v1.1h1
		c2.5,0.5,4.6,2,6.1,3.5c1.5,1.5,2.5,3.5,3,6.1c0.5,2.5,0,4-1.5,4l-1.5,0.5l-6.1,1l-3,0.5c-0.5-2,0-4,0.5-5c0.5-1,1.5-1.5,2.5-2l2-1
		v-1l-2,0.5l-12.1,2.6v1c2.5,0,4,0,5.6,1c1,0.5,1.5,2,2,4.5l-9.6,2c-1.5,0.5-2.5-0.5-2.5-2.5c-1-3.5-1-6,0-7.6c0.5-1.5,2-3,4.5-3.5
		v-1.5l-8.6,2l5.5,24.8l0.5-0.5c-0.5-2.5,0.5-4.1,2.5-4.5l12.1-2.5L214.3,442.7z"/>
	<path class="st0" d="M184.9,392.2c0.6-0.5,1.5-1,2.6-1h20.7h3.5c1-0.5,2,0,2.5,0c0.5,0.5,1,1.5,1,2.5c0,1.1-0.5,1.5-1,2l-1.5-0.5
		l-1-0.5c-2.1,0-3.5,1-3.5,3c0.5,2,1.5,3,3.5,3c1-0.5,2-0.5,2.5-1c1.5-1.5,2.5-3.5,2.5-6.6c0-3-1-5.6-2.5-7.1c-1.5-1.5-3.5-2-6.1-2
		h-0.5h-19.2c-1.5,0-2.5,0-3.6-0.5c0-0.5-0.5-1.5-0.5-3h-1v15.1h1C184.4,393.6,184.9,392.7,184.9,392.2z"/>
	<path class="st0" d="M208.2,413.4l2.5-0.5c1,0,2,0,2.5,0.5c0,0.5,0.5,1.5,1,3h1l-1-8.5l-1-6.6h-1c0.5,3.1-0.5,4.6-2.6,5.1h-1.5
		l-19.2,2.5c-2,0-3.5-1-3.5-3.6l-0.6-0.5h-1l2,15.2h1c-0.5-2.5,0.5-4,3-4.6L208.2,413.4z"/>
	<path class="st0" d="M171.3,530.6c5.6,3.1,7.6,6.1,6.1,12.6l-0.5,0.5c4.2-1.4,8.4-2.8,12.5-4.2c-15.7-26.5-29.4-54.8-40.7-84.7
		c-19.2-50.4-28.3-96.1-32.6-125.6c-4.6-32-4.7-52.3-4.7-52.5V170.9L399.7,66.3l288.5,105.9v104.6c0,0.2-0.1,20.5-4.7,52.5
		c-4.3,29.5-13.4,75.2-32.6,125.6c-11.3,29.8-24.9,58.1-40.6,84.6c4.3,1.4,8.6,2.8,12.9,4.3l-0.5-0.5c-1.5-6.5,0-9.6,6.1-12.6
		c1-0.7,2.3-1.2,3.9-1.5c69.9-128.7,69.9-252.3,69.9-252.3V162.2L399.8,51L97,160.8v116c0,0,0,123.5,69.9,252.2
		C168.6,529.4,170.1,529.9,171.3,530.6z"/>
	<path class="st0" d="M535,636.9c-38.7,38.8-84,71-135.2,96.1c-51.2-25.1-96.5-57.3-135.2-96.1c-5.3,1.3-10.6,2.8-16,4.3
		c39.3,40.8,88.8,78.2,151.2,107.8c62.4-29.6,111.9-67,151.2-107.8C545.6,639.7,540.3,638.3,535,636.9z"/>
	<g>
		<polygon class="st0" points="485.2,550.4 482.7,563 495.8,565 506.4,567.1 508.9,554.4 495.8,551.9 		"/>
		<path class="st0" d="M640.9,536.2c-14.2-1-8.1,5.5,4.1,9.5c16.7,5.1,7.5,12.6-9.1,7.6c-24.8-8.1-40-11.1-79.4-21.7
			c-33.7-8.1-66.5-13.6-99-16.6c2.2,6.3,3.4,13.1,3.4,20.1c0,33.4-27.8,61.2-61.2,61.2c-33.8,0-61.1-27.8-61.1-61.2
			c0-7,1.2-13.8,3.4-20.1c-32.3,3-64.9,8.6-98.4,16.6c-39.5,10.6-54.6,13.7-79.4,21.7c-16.7,5-25.8-2.5-9.1-7.6
			c12.1-4,18.2-10.6,4-9.5l-71.3,20.2l48,61.7l23.8-6.1L144,559.5l32.3,81.4c3.6,9.6,10.1,11.1,17.7,9.1c150.6-52,261.3-52,411.4,0
			c8.1,2.1,14.7,0.5,18.2-9.1l32.4-81.4L640.3,612l23.3,6.1l48.5-61.7L640.9,536.2z M255.2,615.6l-37.4,10.6l-14.1-3l-13.1-43.5
			l10.6-17.7l47-13.6l4.6,15.7l-42,12.1l10.6,34.4l22.7-6.1l-3-9.1l-11.1,2.5l-3.6-14.7l30.4-8.6l7.6,27.8L255.2,615.6z
			 M331.5,598.4l-37.4,7.6l-15.7-9.6l-11.2-52.6l19.2-5l10.2,49.5l23.2-4.6l-8.6-49.5l19.7-3.6l9.6,54.1L331.5,598.4z M519.6,608
			l-19.7-4.1l4.1-22.7l-8.1-1l-15.7-2.6l-4,22.3l-20.2-3l12.1-57.1l14.2-9.1l13.6,2l24.8,4.1l10.6,13.1L519.6,608z M595.3,632.8
			l-17.1-6.1L560,584.8l-6.6,32.8l-21.3-4.6l15.7-68.2l16.2,6l19.7,45l8.1-35.9l18.7,6.6L595.3,632.8z"/>
	</g>
	<g>
		<path class="st0" d="M348.5,631.7c-0.5,1.6-1.6,3.3-3.2,5.2c-1.6,1.8-3.5,3.5-5.7,4.9l0.6,4.1c1.3-0.7,2.7-1.6,4.2-2.8
			c1.5-1.2,2.8-2.4,3.7-3.5l3.7,27.3l4.3-0.6l-4.7-35.1L348.5,631.7z"/>
		<path class="st0" d="M387.1,630.7c-1.9-1.2-4-1.9-6.3-1.9c-3.2,0-5.8,1.1-7.9,3.3c-2.1,2.2-3.2,5.1-3.2,8.6c0,3.5,1,6.3,3,8.4
			c2,2.1,4.5,3.2,7.4,3.2c1.7,0,3.4-0.4,4.9-1.3c1.5-0.9,2.7-2,3.5-3.4c0,0.4,0,0.7,0,0.9c0,1.8-0.2,3.6-0.6,5.3s-1,3.1-1.6,4.1
			c-0.6,1-1.5,1.8-2.5,2.4c-1,0.6-2.2,0.9-3.5,0.9c-1.6,0-2.8-0.4-3.8-1.3c-1-0.9-1.7-2.3-2-4.3l-4.2,0.4c0.4,2.8,1.4,4.9,3.2,6.5
			s4,2.3,6.8,2.3c2.6,0,4.9-0.7,6.8-2.1c1.9-1.4,3.4-3.4,4.4-6.1c1-2.7,1.5-6.3,1.5-10.8c0-4.3-0.5-7.6-1.5-9.9
			C390.5,633.7,389,632,387.1,630.7z M386.2,646.4c-1.3,1.4-2.9,2.1-4.9,2.1c-2,0-3.7-0.7-5-2.1c-1.4-1.4-2-3.2-2-5.5
			c0-2.5,0.7-4.5,2.1-6.1s3.1-2.4,5-2.4c1.9,0,3.5,0.7,4.8,2.2c1.3,1.5,2,3.4,2,5.9C388.1,643.1,387.5,645,386.2,646.4z"/>
		<path class="st0" d="M422,630c-1.9-1.2-4-1.9-6.3-1.9c-3.2,0-5.8,1.1-7.9,3.3c-2.1,2.2-3.2,5.1-3.2,8.6c0,3.5,1,6.3,3,8.4
			c2,2.1,4.5,3.2,7.4,3.2c1.7,0,3.4-0.4,4.9-1.3c1.5-0.9,2.7-2,3.5-3.4c0,0.4,0,0.7,0,0.9c0,1.8-0.2,3.6-0.6,5.3
			c-0.4,1.7-1,3.1-1.6,4.1c-0.6,1-1.5,1.8-2.5,2.4c-1,0.6-2.2,0.9-3.5,0.9c-1.6,0-2.8-0.4-3.8-1.3c-1-0.9-1.7-2.3-2-4.3l-4.2,0.4
			c0.4,2.8,1.4,4.9,3.2,6.5s4,2.3,6.8,2.3c2.6,0,4.9-0.7,6.8-2.1c1.9-1.4,3.4-3.4,4.4-6.1c1-2.7,1.5-6.3,1.5-10.8
			c0-4.3-0.5-7.6-1.5-9.9C425.3,633,423.9,631.3,422,630z M421.1,645.7c-1.3,1.4-2.9,2.1-4.9,2.1c-2,0-3.7-0.7-5-2.1
			c-1.4-1.4-2-3.2-2-5.5c0-2.5,0.7-4.5,2.1-6.1s3.1-2.4,5-2.4c1.9,0,3.5,0.7,4.8,2.2c1.3,1.5,2,3.4,2,5.9
			C423,642.4,422.4,644.3,421.1,645.7z"/>
		<path class="st0" d="M458.9,633.7c-1.8-2-4.4-3.1-7.8-3.4c-3.3-0.2-6.1,0.4-8.2,2c-2.1,1.6-3.4,4-4,7.3l4.4,0.8
			c0.2-2.2,0.9-3.9,2.3-5c1.3-1.2,3-1.7,5.1-1.5c2,0.1,3.5,0.8,4.7,2.1c1.1,1.3,1.6,2.8,1.5,4.5c-0.1,1.6-0.9,3.3-2.4,5
			c-1.5,1.7-4.2,4-8.3,6.9c-2.6,1.8-4.6,3.5-6,4.9c-1.4,1.4-2.5,2.9-3.2,4.5c-0.4,0.9-0.7,1.9-0.7,3l23.2,1.7l0.3-4.2l-17.3-1.3
			c0.5-0.7,1.2-1.5,2-2.2c0.8-0.7,2.6-2.1,5.3-4.1c3.3-2.4,5.7-4.3,7.1-5.7c1.4-1.4,2.5-2.8,3.2-4.1c0.7-1.3,1.1-2.7,1.2-4.1
			C461.6,638.1,460.8,635.7,458.9,633.7z"/>
	</g>
	<path class="st0" d="M227.6,528.3c-14.8-17.4-26.7-36.8-35.7-58c-11.8-27.8-17.7-57.4-17.7-87.9s6-60.1,17.7-87.9
		c11.4-26.9,27.7-51,48.4-71.8c20.7-20.7,44.9-37,71.8-48.4c27.8-11.8,57.4-17.7,87.9-17.7s60.1,6,87.9,17.7
		c26.9,11.4,51,27.7,71.8,48.4s37,44.9,48.4,71.8c11.8,27.8,17.7,57.4,17.7,87.9s-6,60.1-17.7,87.9c-8.9,21.1-20.9,40.5-35.7,58
		c3.6,1,7.2,2,10.8,3c33-40.6,52.9-92.4,52.9-148.9c0-130.4-105.7-236.1-236.1-236.1S163.9,252,163.9,382.4
		c0,56.4,19.8,108.2,52.8,148.9C220.4,530.2,224,529.2,227.6,528.3z"/>
	<path class="st0" d="M287.3,514.9c3.6-0.6,7.1-1.2,10.7-1.8c-5.3-4.2-10.4-8.6-15.2-13.5c-31.3-31.3-48.6-72.9-48.6-117.2
		s17.2-85.9,48.6-117.2c31.3-31.3,72.9-48.6,117.2-48.6s85.9,17.2,117.2,48.6c31.3,31.3,48.6,72.9,48.6,117.2s-17.2,85.9-48.6,117.2
		c-4.8,4.8-9.9,9.3-15.2,13.5c3.6,0.6,7.1,1.2,10.7,1.8C550.2,483,574,435.5,574,382.4c0-96.1-77.9-174-174-174s-174,77.9-174,174
		C226,435.5,249.8,483,287.3,514.9z"/>
	<path class="st0" d="M253.6,438.5c3.1,8.1,6.6,15.7,10.6,23.3c5.1,8.1,10.6,16.2,17.2,23.7c4.5,5.1,9.6,10.1,14.6,14.7
		c4.5,3.7,9.5,7.4,14.7,11c1.8-0.3,3.7-0.5,5.5-0.8c0-39-0.5-78.4-0.5-117.4c-8.1,0.5-14.7,2.5-19.7,7.1c-3,3-5.6,7.1-7.6,12.1
		c-0.5,3.1-4,4.5-7.1,0.5l-0.5-1.5c-9.1-18.7-6.1-43.4,0-59.1l0.5-0.5c1.5-2.5,5.5-2.5,6.5,0.5c1.5,5,4.5,9.6,8.1,12.6
		c5.5,4.6,12.6,7.1,19.7,6.6c0.5-40,0-78.9,0-120.8c-7.1,4-13.6,8.6-19.7,14.1c-5,4.6-10.1,9.6-14.6,14.7
		c-6.6,7.6-12.2,15.7-17.2,24.3c-4,7.6-7.6,15.1-10.6,23.3c-5.6,14.1-8.6,28.8-9.6,43.9c-0.5,8.1-0.5,16.2,0,24.2
		C245.1,409.7,248,424.4,253.6,438.5z"/>
	<path class="st0" d="M489.4,511.2c2.3-1.5,4.6-3.1,6.8-5c6.1-4.5,11.1-9.1,15.2-13.1l1-1.5c3.5-3,6.6-6.6,9.6-10.6
		c3-3.6,6.1-7.1,8.6-11.1c2.1-2.5,3.6-5.1,5.1-7.1c1.5-2.5,3-5.5,4-8.1c5.1-9.1,8.6-18.7,11.6-29.3c1.5-4.6,2.5-9.1,3.1-13.7
		c1-5,1.5-9.5,2-13.1V393l-2,0.5c-5.6,0.5-10.1,2-14.7,5c-1.5,1.5-3,2.5-4,4.5c-2,2-3.6,5.1-5.1,8.1l-0.5,1.5c-1,3-5.5,3-7.1-0.5
		l-1-1.5c-7.6-19.7-6.6-40.9,0-56.1c0.5-1,1-1.5,1.5-2.5c1.5-3.6,5.5-3,6.6,0c0.5,0.5,0.5,1,0.5,2c1,2,2.5,5,5.1,8.1
		c1,1.5,2.5,2.5,4,4c3.6,2.5,8.1,4.5,14.7,5.1c0.5,0,1,0,2,0v-3.5c-0.5-4.6-1-9.1-2-13.6c-3.1-16.7-8.1-30.9-14.7-43.5
		c-1-2.5-2.5-5.1-4-7.6c-1.5-2.5-3-5-5.1-7.6c-2.5-4-5.5-7.5-8.6-11.1c-3-4-6.1-7.6-9.6-11.1c-1-1-1.5-1.5-2.6-2.5
		c-3-3-8.1-8.1-13.6-12.2c-4-3-8.1-6.1-12.2-8.1c0,86.4,1,173.8,1.1,260.1C486.6,510.8,488,511,489.4,511.2z"/>
	<path class="st0" d="M362.8,486.3c0-47.4,0-95,0-141.8c0.5-27.3,1-41-4.5-52.1c-2-4.6-5.6-9.1-10.6-13.6c-1-1.1-2.1-2.1-3.5-2.6
		c-3-2.5-7.1-4.5-12.1-6.1c0,79,0,159.2,0,238.4c4.4-0.5,8.9-0.9,13.3-1.3C349.5,499,355.5,491.8,362.8,486.3z"/>
	<path class="st0" d="M469.5,245.5c-0.5-6.1-9.1-8.1-14.2-10.1c-3-1.6-6-2.6-9-3c-10.6-3.5-21.3-5.5-32.4-6.5
		c-4.5,0-9.1-0.5-13.6-0.5c-14.1,0-28.3,2-41.9,6c-4.6,1.5-9.1,3.1-14.1,4.6c-3,1.5-6.1,2.6-9.1,4.1c-6.6,4.5-4.6,12.6,1.5,14.1
		c3,1,5,1.5,7.6,3c1.5,0.5,3,1.5,5,3c3.5,2,6.6,4.1,9.1,6.6c9.1,8.1,15.2,18.2,18.2,31.8c2,8.1,1,18.7,1,28.8c0,16.2,0,32.9,0,49.6
		c0,33.3,0,67.3,0,101.2c6.9-2.7,14.4-4.2,22.3-4.2c8.2,0,16,1.6,23.2,4.6c0-34.3,0-68.6,0-102.2c0-16.2,0-32.8,0-49.1
		c0-10.6-0.5-21.2,1.5-29.8c4-15.2,10.7-25.3,21.8-33.8c1.5-1.5,3.5-3,6-4.6C461.9,253.1,471,255,469.5,245.5z"/>
	<path class="st0" d="M438.4,500.8c-3.5-4.6-8.1-8.1-13.1-10.6c-8.7-5-19.2-7.6-28.8-6.6c-1,0-1.5,0-2,0c-9.6,1-19.2,4.6-27.3,11.1
		l-1.5,1.5c-11.2,9.6-17.2,23.3-17.7,36.9v3.6c0.5,11.6,5,23.2,13.1,32.8c2,2,4,4,6.1,5.6c8.1,6.6,17.7,10.6,27.3,11.1
		c0.5,0.5,1,0.5,2,0.5c9.6,0.5,19.7-1.5,28.8-6.6c3-2,6-4,9.1-6.6c11.1-9.6,16.7-23.2,17.2-37.3v-2.5
		C451.1,522,447,509.9,438.4,500.8z M394.5,487.6l2-1.5l0.5-0.5c10.1-0.5,19.7,1.5,28.4,7.1c2,1,3.5,2,5,3.5l1.5,7.6l-6.5,3.5
		l-6.1,3.6l-20.2-7.1l-2.5-6.1l-2-3.6l-2-4.5L394.5,487.6z M359,506.9c2.1-3,4.6-6.1,8.1-9.1c4.6-4.1,9.1-6.6,14.2-8.6l8.6,1.5
		l4.5,9.1l2,3.5l0.5,1l-0.5,1l-2,2.5l-8.6,13.2l-18.7,3h-1.5l-7.1-12.1L359,506.9z M367.2,572.6c-1.5-1.5-3-3-4.5-4.5
		c-4.5-5.6-8.1-12.1-10.1-18.7l5.6-2.6l9.1,9.6l7.1,6.6l1.5,15.1C372.7,576.6,370.2,574.6,367.2,572.6z M392.9,558.4l-17.7,3
		l-8.1-8.6l-8.1-8.1l6.6-18.2l1.5-0.5l19.2-2.6l8.1,11.1l2,2.6l1,1.5l-1,5.6l-2,6.6L392.9,558.4z M395,560l1.5-5.6l3.5-14.2
		l17.2-5.6l8.1,8.1l6.5,6.6l-3.6,15.7l-3,1l-16.7,6.1l-12.2-11.1L395,560z M432.9,572.1c-2.5,2-5.1,4.1-7.6,5.5
		c-7.6,4.6-16.7,7.1-25.3,7.1l8.6-10.1l16.7-6.1l4-1.5l5.6,3C434.4,571.1,433.4,571.6,432.9,572.1z M433.4,547.3l-8.1-8.1l-6.6-6.6
		l1.5-19.7l5.1-3l6.5-3.5l13.1,8.6l1,1.5l3,20.8L433.4,547.3z"/>
	<path class="st0" d="M449.8,281.8c-1,1.5-2.6,3.1-3.5,4.6c-6.1,8-8.1,17.2-8.1,28.8c0,11.6,0.5,24.8,0,38.4c0,44,0,89.2,0,133.9
		c6.6,5.3,12.1,12,16,19.6c5.1,0.4,10.2,0.9,15.3,1.5c0-79.3,0-159.3,0-239C458.8,274.2,454.3,277.3,449.8,281.8z"/>
</g>
</svg>
