<?xml version="1.0" encoding="utf-8"?>
<!-- Generator: Adobe Illustrator 22.1.0, SVG Export Plug-In . SVG Version: 6.00 Build 0)  -->
<svg version="1.1" id="图层_1" xmlns="http://www.w3.org/2000/svg" xmlns:xlink="http://www.w3.org/1999/xlink" x="0px" y="0px"
	 viewBox="0 0 800 800" style="enable-background:new 0 0 800 800;" xml:space="preserve">
<style type="text/css">
	.st0{fill-rule:evenodd;clip-rule:evenodd;fill:#E94820;}
	.st1{fill:#E94820;}
</style>
<g>
	<g>
		<polygon class="st0" points="469.9,196.1 524.1,288.1 579.7,196.1 		"/>
		<polygon class="st0" points="384.2,196.1 481.5,359.2 512.4,308.1 442,196.1 		"/>
		<polygon class="st0" points="299,196.1 437.4,432.7 468.4,380 357.1,196.1 		"/>
		<polygon class="st0" points="216.4,196.1 396.5,501.5 426.7,449.6 275.8,196.1 		"/>
	</g>
	<path class="st1" d="M135.6,51v545.9L399.9,749h0.8l263.7-152.1V51H135.6z M648.7,590.4l-248,142.8H400L151.3,590.4V66.7h497.4
		V590.4z"/>
	<path class="st1" d="M634.8,80.6V584L400,719.4L165.2,584V80.6H634.8 M640.4,75h-5.5H165.2h-5.5v5.5V584v3.2l2.8,1.6l234.8,135.4
		l2.8,1.6l2.8-1.6l234.8-135.4l2.8-1.6V584V80.6V75L640.4,75z"/>
	<path class="st0" d="M194.2,464.9c2-0.2,3.4-1,4.4-2.6c0.6-0.9,0.9-2.2,1.2-3.7l0.5-3.4c0.3-2.3,0.7-3.7,0.9-4.4
		c0.4-1,1.2-1.5,2.3-1.6c1-0.1,1.9,0.3,2.6,1.1c0.8,0.8,1.3,2.1,1.5,4c0.2,2.3-0.3,4-1.4,5c-0.6,0.7-1.5,1-2.7,1.3l0.2,3
		c2.4-0.1,4.2-1.1,5.2-3c1-1.8,1.4-3.9,1.3-6.4c-0.2-2.7-0.9-4.7-2.3-6.1c-1.4-1.4-3.1-2-5.1-1.9c-1.9,0.2-3.3,1-4.1,2.5
		c-0.5,1-0.9,2.5-1.2,4.5l-0.5,3.3c-0.3,1.8-0.6,3.1-1,3.9c-0.5,0.9-1.3,1.3-2.5,1.4c-1.6,0.2-2.8-0.8-3.6-2.6c-0.4-1-0.7-2-0.8-3.3
		c-0.2-2.6,0.4-4.6,1.9-5.7c0.8-0.6,1.8-1,3-1.1l-0.2-3c-2.5,0.1-4.3,1-5.6,2.8c-1.3,1.8-1.9,4.1-1.7,7.1c0.2,2.5,0.8,4.7,2.1,6.5
		C189.8,464.2,191.6,465,194.2,464.9z"/>
	<polygon class="st0" points="214.3,487.2 205.2,489.2 202.7,477.1 211.8,475.2 211.1,472.1 189.1,476.7 189.8,479.9 200.1,477.7 
		202.6,489.7 192.3,491.9 193,495 215,490.4 	"/>
	<path class="st0" d="M219.9,505.6l-24.1-0.3l1.2,3.1h7.2l3.3,8.7l-5.4,4.6l1.3,3.3l17.9-16L219.9,505.6L219.9,505.6z M209.4,515.2
		L209.4,515.2l-2.7-6.9h10.7L209.4,515.2z"/>
	<polygon class="st0" points="234.7,537.4 218.8,546.2 228.9,527 227.1,523.6 207.5,534.5 208.9,537.3 224.9,528.4 214.8,547.8 
		216.5,551 236.2,540.1 	"/>
	<path class="st0" d="M249,563.8c0.7-2.7,0-5.4-2-8l-5.7-7.7l-18,13.6l5.7,7.6c2.5,3.2,5.5,4.4,9.3,3.7c2.2-0.4,4.1-1.4,6-2.8
		C246.8,568.4,248.3,566.3,249,563.8L249,563.8z M242,568L242,568c-0.5,0.4-1.3,0.9-2,1.2c-1.3,0.6-2.4,0.9-3.6,1
		c-1.4,0.1-2.6-0.3-3.7-1.1c-0.6-0.4-1.2-1-1.9-1.9l-3.4-4.6l13.8-10.4l3.4,4.5c1.5,2.1,2.1,4,1.5,5.9
		C245.6,564.6,244.2,566.4,242,568z"/>
	<path class="st0" d="M266.3,576.4c-2.9-2.8-6-3.9-9.4-3.3c-2.7,0.4-5.1,1.7-7.2,3.9c-2.3,2.5-3.6,5.1-3.8,8
		c-0.1,3.1,1.2,5.9,3.8,8.4c2.8,2.7,5.8,3.9,9.2,3.4c2.9-0.3,5.4-1.7,7.8-4.1c2.1-2.3,3.3-4.6,3.6-7.1
		C270.7,582.3,269.3,579.2,266.3,576.4L266.3,576.4z M264.3,590.4L264.3,590.4c-1.8,1.8-3.8,2.9-6,3.4c-2.2,0.5-4.3-0.2-6.3-2.2
		c-2.1-2.1-3.1-4.2-2.9-6.3c0.3-2.2,1.2-4.1,3-5.9c2.2-2.2,4.3-3.4,6.6-3.5c2.2,0,4.2,0.8,6,2.5c1.8,1.7,2.7,3.7,2.6,5.9
		C267.2,586.5,266.2,588.5,264.3,590.4z"/>
	<polygon class="st0" points="282.9,613.9 283.5,592.1 280.4,590 267.5,608.4 270,610.2 280.5,595.2 280,617.1 282.9,619.1 
		295.7,600.7 293.3,599 	"/>
	<path class="st0" d="M313,609.4c-2.9-1.5-5.7-1.7-8.5-0.6c-2.9,1-5.2,3.3-6.9,6.6c-1.6,3.4-1.9,6.6-0.9,9.5
		c1.1,2.4,2.8,4.2,5.3,5.5c2,1,3.7,1.4,5.4,1.3c0.9,0,2.1-0.3,3.6-0.9l-0.6,3l1.8,0.9l5.3-10.8l-9.4-4.6l-1.1,2.3l6.6,3.2
		c-1.2,2.4-2.7,3.8-4.5,4.2c-1.8,0.4-3.6,0.2-5.5-0.8c-2.4-1.2-3.9-2.8-4.3-4.8c-0.4-2.1,0-4.3,1.2-6.7c1.3-2.8,3.1-4.6,5-5.4
		c2-0.7,4-0.6,6,0.4c1.6,0.8,2.9,1.8,3.6,3c0.8,1.2,1,2.6,0.6,4.3l2.8,1.3c0.8-2.8,0.4-5.3-1.3-7.3
		C316.5,611.6,314.9,610.4,313,609.4z"/>
	<polygon class="st0" points="347.3,623.1 344.2,622.4 338.8,644.2 353.5,647.8 354.1,645.3 342.6,642.3 	"/>
	<path class="st0" d="M380.3,643c-0.2,1.7-0.6,2.8-1.2,3.7c-1.2,1.7-3.2,2.3-5.8,2c-2.2-0.3-3.8-1.3-4.5-3c-0.5-1.1-0.7-2.6-0.5-4.2
		l1.7-13.8l-3.2-0.3l-1.5,12.4c-0.3,2.7-0.2,4.9,0.4,6.6c1.1,2.8,3.6,4.5,7.6,5c4,0.5,6.8-0.5,8.6-3c1-1.4,1.6-3.5,2-6.2l1.5-12.5
		l-3.2-0.3L380.3,643z"/>
	<polygon class="st0" points="409.9,629 410.6,647.3 398,629.5 394.2,629.6 394.9,652.1 398,651.9 397.4,633.8 410.2,651.5 
		413.7,651.4 412.9,629 	"/>
	<polygon class="st0" points="429,646.5 427.6,639.1 440.4,636.6 439.9,634.1 427.1,636.5 425.8,629.8 439.6,627.1 439.2,624.5 
		422.2,627.7 426.5,649.8 443.6,646.4 443.2,643.8 	"/>
	<polygon class="st0" points="462.5,617.3 468.4,634.5 451.2,621.1 447.6,622.4 454.9,643.6 457.8,642.6 451.9,625.4 469.2,638.7 
		472.7,637.5 465.3,616.3 	"/>
	<path class="st0" d="M487.7,617l1.2,2.2l6.6-3.5c1.2,2.4,1.5,4.4,0.8,6.1c-0.7,1.7-2,3-3.9,4.1c-2.5,1.3-4.6,1.5-6.5,0.6
		c-1.9-0.9-3.4-2.5-4.8-4.9c-1.4-2.7-1.8-5.1-1.2-7.2c0.6-2.1,1.9-3.6,3.8-4.7c1.6-0.8,3.1-1.2,4.6-1.1c1.4,0.1,2.7,0.7,3.8,2
		l2.8-1.5c-1.8-2.3-4.1-3.5-6.7-3.5c-1.8,0-3.7,0.6-5.7,1.6c-2.9,1.6-4.7,3.7-5.5,6.6c-0.9,3-0.4,6.1,1.4,9.4
		c1.8,3.3,4.1,5.5,7.1,6.3c2.6,0.6,5.1,0.3,7.6-1.1c1.9-1,3.3-2.2,4.2-3.5c0.5-0.9,1-2,1.4-3.5l2,2.2l1.8-1l-5.6-10.6L487.7,617z"/>
	<polygon class="st0" points="525.7,580.7 523.9,578.7 509.3,591 511,593 517.1,587.9 529.8,603.1 532.3,601 519.7,585.8 	"/>
	<path class="st0" d="M532,570l10.4,21.8l2.2-2.4l-3.2-6.5l6.4-6.8l6.6,2.8l2.3-2.6l-22.3-9L532,570L532,570z M545.3,575.2
		L545.3,575.2l-5,5.4l-4.7-9.6L545.3,575.2z"/>
	<polygon class="st0" points="545,554.4 563.2,567.7 565.1,565 546.9,551.9 	"/>
	<path class="st0" d="M575.8,536.6c-1.7-1-3.4-1.2-5-0.4c-1,0.4-2,1.2-3.1,2.4l-2.4,2.5c-1.6,1.6-2.7,2.6-3.3,3
		c-0.9,0.6-1.9,0.6-2.8,0c-0.9-0.5-1.4-1.4-1.7-2.4c-0.2-1.1,0.2-2.5,1.2-4.1c1.2-2,2.5-3.1,4.1-3.4c0.9-0.1,1.8,0,2.9,0.6l1.5-2.6
		c-2.1-1.2-4.2-1.4-6-0.5c-1.9,0.9-3.4,2.4-4.7,4.6c-1.4,2.3-1.9,4.4-1.6,6.3c0.3,1.9,1.5,3.4,3.2,4.4c1.6,1,3.1,1.1,4.7,0.3
		c0.9-0.5,2.1-1.5,3.6-3.1l2.3-2.4c1.2-1.3,2.2-2.1,3.1-2.6c0.8-0.4,1.8-0.3,2.8,0.3c1.4,0.9,1.9,2.2,1.5,4.2c-0.2,1-0.6,2-1.2,3.1
		c-1.4,2.2-3,3.5-4.9,3.6c-0.9,0.1-2-0.2-3.1-0.8l-1.5,2.6c2,1.2,4.1,1.5,6.2,0.9c2-0.7,3.8-2.4,5.4-4.9c1.3-2.1,2-4.3,2-6.5
		C578.9,539.6,578,537.8,575.8,536.6z"/>
	<polygon class="st0" points="571,506.3 579.7,509.7 575,521.2 566.4,517.7 565.3,520.7 586.1,529.1 587.3,526.1 577.6,522.1 
		582.1,510.7 591.9,514.7 593.1,511.7 572.3,503.3 	"/>
	<path class="st0" d="M576.6,487.8l19.6,14.1l0.8-3.2l-5.9-4.1l2.2-9l7.2-0.8l0.8-3.4l-23.9,2.8L576.6,487.8L576.6,487.8z
		 M590.7,485.9L590.7,485.9l-1.8,7.2l-8.7-6.1L590.7,485.9z"/>
	<polygon class="st0" points="604.4,452.2 582,450.3 581.8,453.3 599.8,454.9 580.8,465.2 580.4,469 602.8,470.9 603,467.9 
		584.9,466.3 604.1,455.9 	"/>
	<path class="st0" d="M208.9,107.9v-3.4H260v3.4h-3.5c-1.4,0-2.7,0.1-3.8,0.3c-1,0.1-4.9,0.4-5.7,0.9c-0.7,0.4-1.2,1.1-1.5,2.1
		c-0.3,0.9-0.4,2.2-0.4,3.9v44.5c0,1.4,0.1,2.5,0.3,3.3c0.2,0.8,0.8,1.3,1.5,1.8c0.7,0.4,1.6,0.6,2.9,0.8c1.2,0.1,2.8,0.1,4.8,0.1
		h13.6c1.5,0,0.7-0.1,3.2-0.3c2.7-0.2,5.2-0.6,7.6-1.2c2.6-0.6,4.7-1.5,6.6-2.7c1.8-1.1,3-2.2,3.7-3.2c0.8-1,1.5-2,1.9-2.9
		c0.5-1,0.9-1.7,1.1-2.4l0.7-2.9l0.4-2.2h8.3l-5.9,21.1h-87.3v-3.4h3c1.7,0,3.3-0.1,4.7-0.2c1.5-0.2,2.6-0.5,3.2-1
		c0.7-0.5,1.1-1.1,1.2-1.9c0.2-0.8,0.3-2.1,0.3-3.8v-43.7c0-1.2-0.2-2.2-0.6-3.3c-0.3-1.1-0.8-1.9-1.5-2.4c-0.6-0.5-1.4-0.9-2.6-1
		c-1.1-0.2-2.5-0.4-4.2-0.4H208.9z"/>
	<path class="st0" d="M380,104.5h31.3v3h-5.2c-2,0-0.7,0.1-2,0.4c-1.2,0.1-2.1,0.4-2.6,0.8c-0.5,0.3-0.9,1-1.2,1.9
		c-0.2,0.9-0.3,1.7-0.3,2.3V172h-8.8l-63.4-55v42.9c0,0.8,0.1,1.6,0.3,2.6c0.3,1,0.7,1.6,1.3,2.1c0.6,0.4,1.6,0.7,2.9,1
		c1.3,0.3,2.8,0.3,4.7,0.3h6.9v3.1h-36.2v-3.1h5.7c1.5,0,2.8,0,3.9-0.3c1.2-0.2,2.1-0.4,2.7-0.9c0.7-0.5,1.2-1.1,1.5-1.7
		c0.3-0.7,0.4-1.7,0.4-3v-44.2c0-2-5.8-8.1-8.6-8.1h-5.9v-3h30.9l54.3,42.3v-33.9c0-1-0.1-1.9-0.4-2.6c-0.2-0.8-0.6-1.3-1.3-1.6
		c-0.6-0.4-1.4-0.7-2.5-0.8c-1.1-0.1-2.2-0.2-3.2-0.2H380V104.5z"/>
	<path class="st0" d="M418.5,104.1h89.8v22.5h-5.3l-0.5-2.5c-0.2-0.7-0.8-2.2-1.8-4.3c-1-2.3-1.9-4.1-2.7-5.4
		c-0.7-1.3-1.8-2.5-3.4-3.6c-1.4-1.2-3-2-4.5-2.5c-1.4-0.5-3.1-0.7-5.1-0.7h-9.8v52.8c0,0.8,0.2,1.6,0.7,2.3c0.5,0.7,1,1.3,1.6,1.6
		c0.6,0.3,1.8,0.7,3.5,1c1.7,0.3,3.4,0.4,5.4,0.4h5.4v3.4h-56v-3.4l6.6-0.1c2.1,0,3.8-0.1,5.1-0.3c1.4-0.1-0.6-0.5,0.3-0.8
		c0.8-0.5,1.4-1,1.8-1.8c0.4-0.8,0.6-1.6,0.6-2.6v-52.4h-5c-2.5,0-4.4,0.1-5.8,0.4c-1.3,0.3-2.7,0.7-4.2,1.3c-1.4,0.7-2.7,1.5-4,2.6
		c-1.2,1.1-2.2,2.4-3.2,3.9c-0.9,1.4-1.7,3-2.4,4.8c-0.7,1.7-1.2,3.3-1.6,4.6l-0.5,1.5h-4.9V104.1z"/>
	<path class="st0" d="M519.4,146.8h4.3c0,1,0.3,2,0.6,3.2c0.3,1.2,0.9,2.7,1.9,4.8c1.1,1.9,2.3,3.5,3.8,4.7c1.6,1.2,3.3,2.3,5.2,3.3
		c1.8,1,4,1.9,6.6,2.8c2.5,0.9,5,1.5,7.6,1.9c2.7,0.4,4.9,0.6,6.9,0.6c3.5,0.1,6.4-0.3,8.8-1c2.3-0.8,4.2-1.5,5.4-2.3
		c1.3-1,2.3-1.9,3.1-2.8c0.7-1,1.1-2.4,1.1-4.1c-0.1-1.9-0.8-3.6-1.9-4.9c-1.3-1.5-3-2.6-5.1-3.7c-2.1-1-5.5-2.2-10.4-3.7
		c-4.8-1.4-9-2.6-12.4-3.4c-3.5-0.9-6-1.5-7.5-1.9c-1.4-0.4-3.1-1.1-5.1-2c-2-1-3.7-2-5.2-3c-1.5-1.1-2.8-2.3-3.9-3.6
		c-1-1.4-1.9-2.8-2.5-4.4c-0.6-1.6-0.8-3.4-0.7-5.3c0-0.7,0.1-1.4,0.2-2c0.1-0.5,0.3-1.3,0.6-2.4c0.4-1,0.9-2.3,1.5-3.7
		c0.7-1.5,1.9-2.9,3.5-4.2c1.6-1.3,3.5-2.5,5.5-3.6c2.1-1.1,4.3-2.1,6.7-2.6c2.5-0.6,4.5-1,5.9-1.1c1.5-0.1,3.1-0.2,4.9-0.2
		c1.8,0.1,3.3,0.2,4.5,0.3c1.4,0.1,3.3,0.4,5.8,1c2.6,0.5,4.7,1,6.3,1.3l4.7,1.4c1.1,0.4,2.1,0.7,3.1,1c1,0.2,1.9,0.3,2.5,0.2
		l1.4-0.4c0.4-0.2,0.7-0.7,0.8-1.3l0.8-4.1l4.6-0.1l0.7,22.9h-4.6c-0.4-1.4-0.8-2.7-1.3-4.2c-0.4-1.4-1.2-2.8-2.4-4.1
		c-1-1.3-2.6-2.7-4.9-3.9c-2.1-1.2-4.3-2.3-6.6-3.2c-2.2-0.8-4.5-1.5-6.7-2.1c-2.1-0.6-3.9-0.9-5.1-1.1c-1.3-0.1-2.6-0.2-3.6-0.2
		c-2.5,0.1-4.8,0.3-6.8,0.9c-1.9,0.5-3.8,1.3-5.4,2.5c-1.6,1.1-2.8,2.3-3.7,3.6c-0.8,1.3-1.3,2.5-1.4,3.7c0,1.1,0.3,2.2,1,3.1
		c0.6,1,1.5,2,2.8,2.9c1.4,0.9,3.3,1.8,5.9,2.7c2.6,1,5.7,1.9,9.3,3c3.8,1,7.9,2.1,12.7,3.3c4.8,1.2,8,2,9.9,2.6
		c1.9,0.6,3.9,1.4,6.1,2.4c2.2,1,4,2.2,5.4,3.4c1.4,1.2,2.6,2.8,3.5,4.9c1,2.2,1.5,4.4,1.4,6.8c-0.2,2.3-1,4.7-2.2,7.1
		c-1.4,2.4-3.4,4.7-6.3,6.9c-2.9,2.1-6.4,3.7-10.7,4.7c-4.2,1-8.1,1.6-11.6,1.6c-2,0.1-4.1,0-6.1-0.1c-2-0.2-4-0.6-6-1.1
		c-1.9-0.5-4.3-1.2-7.1-2.2c-2.8-1-5.3-1.9-7.4-2.8c-2.1-1-3.5-1.6-4.2-1.7l-1.3-0.3l-1.4,0.5c-0.4,0.3-0.7,0.8-0.8,1.5
		c-0.2,0.7-0.3,1.6-0.4,2.8l-0.3,3.2h-4.4V146.8z"/>
	<g>
		<path class="st0" d="M503.8,331.3l-2.5,4.1c7.4,7,14.2,14.7,20.1,23l-1.6-0.9l-15.7,47l-37.7,13l-9.7-8.6L441.4,435l-4,6.8l-4-6.8
			l-46.8-80l0,11.1l-3,2.2l47,78.9l1.4,2.3l-1.4,2.4l-30.2,51.8l-4,6.8l-4-6.8L334.2,405l-16.6,12.3l0.6-2l-35.3-11.7l-15.2-45.7
			c6.8-9.5,14.7-18.2,23.4-25.9l-2.4-4.1c-2.7,2.3-5.3,4.7-7.8,7.3c-14.7,14.7-26.3,31.9-34.4,51C238.2,406,234,427,234,448.6
			c0,21.7,4.2,42.7,12.6,62.4c8.1,19.1,19.7,36.2,34.4,51c14.7,14.7,31.9,26.3,51,34.4c19.8,8.4,40.8,12.6,62.4,12.6
			c42.9,0,83.1-16.7,113.4-47c14.7-14.7,26.3-31.9,34.3-51c8.4-19.8,12.6-40.8,12.6-62.4c0-42.9-16.7-83.2-46.9-113.4
			C506.5,333.9,505.1,332.6,503.8,331.3z M266.7,537.9c-17.7-25.3-28.1-56-28.1-89.2c0-1.7,0-3.3,0.1-5l0.8,1.7l39.8-30.9l35.1,13.1
			l27.2,83.2l-1.1-0.8L321,535.2L266.7,537.9z M437.9,598.2c-13.8,4-28.4,6.2-43.5,6.2c-16.8,0-33-2.7-48.1-7.6l-17.2-53.9
			l21.1-24.9h87.1l22,27.6L437.9,598.2z M550.2,448.6c0,32.5-9.9,62.6-26.9,87.5l-54,0.9l-23.5-28.6l26.2-79l0,0l37.1-11.3l41.1,30
			C550.2,448.3,550.2,448.5,550.2,448.6z"/>
		<path class="st0" d="M432.1,311.1l11.5-6.3l-6.5-10.8c-5.8-1.6-11.7-2.9-17.7-3.8L432.1,311.1z"/>
		<path class="st0" d="M344.8,303l17.7,10.7L351,294.1c-3.2,0.9-6.5,1.9-9.7,3.1L344.8,303z"/>
	</g>
</g>
</svg>
