<?xml version="1.0" encoding="utf-8"?>
<!-- Generator: Adobe Illustrator 22.1.0, SVG Export Plug-In . SVG Version: 6.00 Build 0)  -->
<svg version="1.1" id="图层_1" xmlns="http://www.w3.org/2000/svg" xmlns:xlink="http://www.w3.org/1999/xlink" x="0px" y="0px"
	 viewBox="0 0 800 800" style="enable-background:new 0 0 800 800;" xml:space="preserve">
<style type="text/css">
	.st0{fill:#E60012;}
</style>
<g>
	<g>
		<path class="st0" d="M342.4,150C342.4,150,342.4,150,342.4,150C342.4,150,342.4,150,342.4,150C342.5,150,342.5,150,342.4,150
			C342.4,150,342.4,150,342.4,150z"/>
		<path class="st0" d="M736.3,337.3C736.3,337.3,736.3,337.3,736.3,337.3L736.3,337.3z"/>
		<path class="st0" d="M342.4,150C342.3,150,342.3,150.1,342.4,150L342.4,150z"/>
		<path class="st0" d="M748.8,317.9c-0.6,0-0.8,0.6-1.3,0.9c0,1.5,0,3,0,4.6c-0.8,0-1.5,0.1-2.2,0.1c-0.4,0.8-0.7,1.6-1.1,2.4
			c-0.5,0.1-1,0.1-1.6,0.2c0,0.7-0.1,1.4-0.1,2.1c-0.6,0.9-1.8,0.9-2.5,1.9c0,0.7,0,1.6,0,2.5c-0.4,0.4-0.7,0.6-0.9,0.8
			c-0.6,0.1-1.2-0.2-1.5,0.4c0,0.6,0,1.2,0,1.7c-0.4,0.7-0.6,1.2-0.9,1.7c0,0-0.1,0-0.1,0c-0.8,0.5-1.2,0.7-1.5,0.9c0,0.8,0,1.4,0,2
			c-0.4,0.3-0.7,0.6-0.9,0.8c-0.6,0.1-1.1-0.2-1.5,0.3c0,0.6,0,1.2,0,1.9c-0.8,0.6-1.7,1.2-2.5,1.7c-0.1,0.2-0.8,2.7-0.8,2.7
			c-0.4,0.7-1.2,0.7-1.7,1.1c-0.1,0.7,0.2,1.4-0.3,2.2c-0.6,0-1.3,0-2,0c-0.4,0.4-0.7,0.7-0.9,1c0,0.4,0,0.8,0,1.3
			c-0.3,0.1-0.6,0-0.9,0.2c-0.3,0.2-0.6,0.5-1,0.9c0,1,0,2.1,0,3.2c-0.4,0.4-0.7,0.6-0.9,0.9c-0.6,0.1-1.1-0.2-1.5,0.3
			c0,0.4,0,0.8,0,1.3c-0.3,0.3-0.6,0.6-0.9,0.9c-0.5,0-1,0.1-1.5,0.2c-0.1,0.6-0.1,1-0.2,1.5c-0.6,0.9-1.8,0.8-2.4,1.8
			c0,0.4,0,0.8,0,1.2c-0.8,0.4-1.7,0.9-2.5,1.3c0,1.2,0,2.3,0,3.5c0,0.2-0.2,0.3-0.2,0.5c-0.7,0-1.4,0.1-2.1,0.1
			c-0.1,0.6-0.1,1.1-0.2,1.6c-0.5,0.3-1.2,0.3-1.5,0.9c-0.8-0.1-1,0.5-1.6,1c0,1,0,2.2,0,3.2c-0.6,0.4-1.4-0.1-1.8,0.5
			c-0.4,0.5-1,0.2-1.4,0.3c-0.2,0-0.3,0.2-0.5,0.4c0,0.4,0,0.8,0,1.2c-0.3,0.3-0.6,0.6-0.9,0.9c-0.4,0-0.8,0-1.3,0
			c-0.3,0.4-0.8,0.7-0.9,1.2c-0.2,0.7-0.7,1-1,1.3c-0.6,0.2-1.1-0.2-1.5,0.4c0,1.2,0,2.5,0,3.7c-0.3,0.3-0.6,0.6-0.9,0.9
			c-0.5,0-1,0.1-1.6,0.1c0,0.8-0.1,1.5-0.1,2.1c-0.5,0.7-1.2,0.8-1.8,1.2c-0.2,1.1,0.1,2.3-0.1,3.3c-0.5,0.5-1,0.8-1.6,1
			c-0.7,0.2-0.7,1.1-1.2,1.8c-0.6,0-1.3,0-2,0c-0.4,0.4-0.6,0.7-0.8,0.9c0,0.6-0.1,1-0.1,1.4c-0.5,0.2-0.7,0.8-1.3,0.9
			c-0.4,0.1-0.8,0.6-1.2,0.9c0,1.3,0,2.6,0,3.8c-0.6,0.5-1.6,0.5-1.9,1.5c0,0.9,0,1.9,0,2.9c-0.6,0.6-1.1,1.2-1.4,2
			c-0.4,0.8-1.5,0.9-2.2,1.4c-0.6,0.1-1.2-0.1-1.9,0.2c0,1.7-1.9,1.5-2.6,2.6c0,0.4,0,0.8,0,1.2c-0.4,0.2-0.8,0.4-1.3,0.6
			c-0.4,0.2-0.8,0.4-1.3,0.6c0.1,0.8-0.6,1.1-0.9,1.5c-0.5,0.1-1-0.2-1.5,0.2c-0.4,0.7,0.4,1.7-0.4,2.3c-0.4,0-0.8,0-1.3,0
			c-0.3-0.3-0.6-0.6-0.9-0.9c0.4-0.4,0.8-0.9,1.1-1.2c0.3-0.6-0.1-1.2,0.4-1.6c0.5,0,1-0.1,1.4-0.1c0.5-1.1-0.2-2.2,0.5-3.1
			c0.4,0,0.9,0,1.3,0c0.3-0.3,0.6-0.6,0.9-0.9c0.2-1.1-0.1-2.2,0.1-3.3c0.4-0.3,0.7-0.6,1-0.9c0.7,0,1.3,0,1.8,0
			c0.4-0.5,0.9-0.8,1-1.6c0.1-0.5,0.8-0.9,1.1-1.2c0.2-0.9-0.3-1.7,0.4-2.3c0.4,0,0.8,0,1.2,0c0.3-0.3,0.6-0.6,0.9-0.9
			c0-1.2,0-2.5,0-3.7c0-0.1,0.1-0.2,0.2-0.3c0.5,0,1-0.1,1.4-0.2c0.3-0.3,0.6-0.6,0.8-0.9c0.1-0.5-0.2-1.1,0.3-1.5c0.4,0,0.8,0,1,0
			c0.6-0.4,1-0.7,1.2-0.8c0-0.7,0.1-1.1,0.1-1.5c0.8-0.2,1.4-0.5,1.8-1.1c0-0.4,0-0.8,0-1.2c0.2-0.2,0.4-0.5,0.6-0.7
			c0-0.4,0-0.8,0-1.2c0.3-0.3,0.6-0.6,0.9-0.9c0.5,0,1,0,1.6-0.1c0-0.8,0-1.6,0-2.1c0.5-0.8,1.3-0.9,1.8-1.3c0-0.5,0.1-1,0.1-1.4
			c0.3-0.3,0.4-0.4,0.6-0.6c0-1.4,0-2.7,0-4.1c0-0.2,0.1-0.4,0.2-0.6c0.5-0.1,1-0.1,1.4-0.2c0.3-0.3,0.6-0.6,0.7-0.8
			c0.2-0.7-0.1-1.2,0.4-1.6c0.5-0.1,1,0.2,1.5-0.2c0.3-0.6-0.2-1.5,0.7-1.9c0.1-0.8,0.7-1.4,0.8-1.9c0.7-0.5,1.2-0.8,1.7-1.2
			c0.1-0.9-0.2-1.6,0.3-2.2c0.5,0,1-0.1,1.5-0.1c0.1-0.6,0.1-1.1,0.2-1.6c0.6-0.6,1.2-1.2,1.8-1.8c0-0.2,0-0.4,0-0.6
			c0.4-0.4,0.8-0.9,1.3-1.3c0-0.4,0-0.8,0-1.2c0.3-0.3,0.6-0.6,0.9-0.9c0.3-0.1,0.6-0.1,0.9-0.2c0.1-0.8,0.1-1.5,0.2-2.2
			c0.9-0.4,0.2-1.3,0.7-1.9c0.6-0.9,1.9-0.8,2.4-1.9c0-0.7,0-1.6,0-2.5c0.3-0.1,0.6-0.2,1-0.3c0.3-0.5,1.2-0.9,1.5-1.7
			c0-0.3,0-0.6,0-1c0.4-0.7,1.1-1.1,1.9-1.4c0-0.6,0-1.2,0-1.8c0.2-0.2,0.4-0.5,0.6-0.7c0-0.6,0-1.2,0-1.8c0.7-0.5,1.9-0.4,1.9-1.6
			c-0.5-0.5-0.9-0.9-1.4-1.4c0.5-0.6,1-1,1.4-1.4c-0.2-1.2,0.9-2,0.7-3.2c0-0.1,0.1-0.1,0.2-0.2c0.2,0,0.4,0,0.7,0
			c0.3-0.4,0.8-0.8,0.8-1.2c0.1-0.6,0.9-0.9,0.7-1.6c0-0.2,0.6-0.5,0.8-0.9c0.4-0.7,0.7-1.4,1-2.1c0.1-0.4,0-0.8,0.3-1.1
			c0.2-0.3,0.2-0.8,0.5-1c0.6-0.6,1.2-1.1,1.7-1.6c0-1.8,0-3.3,0-4.9c0-0.2-0.2-0.3-0.3-0.5c-0.4,0-0.8,0-1.4,0
			c-0.6,0.8-1.2,1.7-1.7,2.4c-0.6,0.1-1.2-0.2-1.6,0.3c0,0.6,0,1.2,0,1.9c-0.3,0.2-0.6,0.5-1,0.9c-0.4,0-0.9,0.1-1.4,0.2
			c-0.2,1.1,0,2.3-0.1,3.1c-0.4,0.7-0.7,1.3-0.9,1.8c-0.2,0-0.4,0-0.6,0c-0.3,0.5-0.5,1-1,1.9c0,0.5,0,1.4,0,2.4
			c-0.6,0.1-1.1,0.1-1.5,0.2c-0.3,0.3-0.6,0.6-0.9,0.9c0,0.7,0,1.3,0,1.7c-0.4,0.7-0.6,1.2-0.9,1.7c-0.2,0-0.4,0-0.7,0
			c-0.5,0.6-1.3,1.1-1.4,1.8c-0.3,1.1-1.8,0.6-2,2c-0.1,0.4,0.3,1.1-0.2,1.8c-0.5,0.1-1,0.1-1.5,0.2c-0.3,0.3-0.6,0.6-0.9,0.9
			c0,0.4,0,0.8,0,1.2c-0.6,1-1.9,0.9-2.5,1.9c0,0.5,0,1,0,1.5c0,0.6,0.2,1.2-0.3,1.9c-1.3,0-2.6,0-3.8,0c-0.4,0.4-0.7,0.7-0.9,1
			c0,1.1,0,2.1,0,3.1c-0.3,0.4-0.6,0.7-0.9,0.9c-0.4,0-0.9,0-1.3,0c-0.6,0.4-0.9,1.1-1.1,1.7c-0.3,0.7-1.2,0.6-1.7,1.1
			c0,1.2,0,2.5,0,3.7c-0.3,0.3-0.6,0.6-0.9,0.9c-0.5,0.1-1-0.2-1.5,0.2c-0.4,0.7,0.3,1.7-0.2,2.1c-1,0.5-1.8-0.1-2.4,0.5
			c-0.1,0.5-0.1,1-0.2,1.6c-0.6,0.3-1.2,0.7-1.8,1c0,0.4,0,0.8,0,1.2c-0.2,0.2-0.4,0.5-0.6,0.7c0,0.6,0,1.2,0,1.8
			c-0.4,0.7-1.1,0.9-1.8,1.2c-0.1,0.5-0.1,1-0.2,1.4c-0.3,0.3-0.6,0.6-0.9,0.9c-0.4,0-0.8,0-1.2,0c-0.3,0.3-0.6,0.6-0.9,0.9
			c0,0.3,0,0.6,0,0.7c-0.3,1.3-1.1,1.4-1.3,2.3c-0.1,0.6-0.8,1.1-1.2,1.6c0,0.5-0.1,0.9-0.1,1.4c-0.6,0-1,0.2-1.4,0.5
			c-0.4,0.3-1.1,0.3-1.7,0.4c0,0.5,0,1,0,1.4c-0.8,0.4-1.7,0.9-2.5,1.3c0,0.5,0,0.9,0,1.3c-0.8,0.4-1.6,0.8-2.4,1.1
			c0,0.2,0,0.4-0.1,0.8c-0.6,0.5-1.3,1.1-1.8,1.6c-0.2,0.8,0.2,1.4-0.4,1.8c-0.4,0-0.8,0-1,0c-0.6,0.4-1,0.7-1.2,0.8
			c0,0.7-0.1,1.1-0.1,1.5c-0.3,0.1-0.5,0.1-0.6,0.2c-0.8,0.4-1.5,1-1.8,1.9c-0.3,0.9-1,1.1-1.8,1.4c-0.1,0.5-0.1,1-0.2,1.4
			c-0.4,0.3-0.6,0.9-1.3,0.9c-0.6-0.1-0.8-0.6-1.2-0.9c0-1,0-2.1,0-3.1c0.3-0.3,0.6-0.6,0.9-0.9c0.5,0,1-0.1,1.5-0.1
			c0.1-0.6,0.1-1.1,0.2-1.5c0.3-0.3,0.6-0.7,0.8-0.9c0.5-0.1,1.1,0.2,1.6-0.3c0-0.7,0.1-1.4,0.1-2c0.8-0.6,1.7,0.2,2.5-0.6
			c0-0.6,0-1.3,0-2c0.9-0.2,1.6-0.5,1.8-1.5c0.3-0.9,0.9-1.7,1.2-2.6c0.4-1.1,1.8-0.9,2.3-1.8c0.1-0.1,0.1-0.2,0.2-0.2
			c0-0.2,0-0.4,0-0.6c0.8-0.4,1.7-0.9,2.5-1.3c0-0.5,0-0.9,0-1.4c0.3-0.1,0.6-0.1,1-0.2c0.2-0.2,0.5-0.5,0.8-0.9c0-0.4,0-0.8,0-1
			c0.4-0.6,0.7-1,0.8-1.2c0.8-0.1,1.3,0.2,1.7-0.4c0-0.6,0-1.2,0-1.9c1-1,2.1-2.1,3.1-3.1c0-0.2,0-0.4,0-1c0.5-0.4,1.3-1,1.8-1.4
			c0.2-1-0.3-1.8,0.4-2.4c0.4,0,0.8,0,1.2,0c0.6-0.4,0.9-1.1,1.1-1.7c0.3-0.7,1.2-0.6,1.7-1.1c0-0.4,0-0.8,0-1.2
			c0.2-0.2,0.3-0.3,0.6-0.6c0-0.8,0-1.7,0-2.2c1.2-1.2,2.2-2.2,3.3-3.3c0.3,0,0.8,0.3,1.2-0.4c0-0.4,0-0.8,0-1.1
			c0.5-0.6,1.1-1.1,1.5-1.5c0.4-0.1,0.7-0.2,0.9-0.2c0.2-0.8-0.1-1.6,0.7-2c0-0.4,0-0.8,0-1.3c0.8-0.6,1.7-1.2,2.5-1.8
			c0-0.5,0-0.8,0-1.1c0-0.5,0.8-0.7,0.6-1.3c0.6-0.7,1.2-1.4,1.9-2.1c0-0.6,0-1.2,0-1.8c0.6-0.6,1.2-1.2,1.8-1.8
			c0.3-0.9,0.9-1.7,0.8-2.8c0.6-0.1,1.1-0.1,1.5-0.2c0.3-0.3,0.6-0.6,0.9-0.9c0-0.9,0-1.7,0-2.3c0.4-1,1.1-1.2,1.7-1.4
			c0.3-0.6,0.4-1.3,0.8-1.9c0.5-0.8,1.2-1.4,1.9-2.1c0-0.4,0-0.8,0-1.2c0.3-0.3,0.6-0.6,0.9-0.9c0.5,0,1-0.1,1.6-0.1
			c0-0.8,0-1.5,0-2.1c0.3-0.4,0.5-0.6,0.7-0.9c0-1,0-2.1,0-3.1c0.3-0.1,0.6-0.1,0.9-0.2c1.1-1.1,2.2-2.2,3.2-3.2
			c0.3-0.8,0.6-1.5,0.8-2c0.7-0.5,1.3-0.9,1.8-1.2c0-0.5,0-1,0-1.1c0.3-0.7,0.5-1.1,0.8-1.7c0.5-0.5,1.1-1.1,1.7-1.7
			c0-0.4,0-0.8,0-1.2c0.2-0.2,0.4-0.5,0.6-0.7c0-0.4,0-0.8,0-1.2c0.7-0.4,1.5-0.6,1.9-1.4c-0.2-1.1,0.6-1.8,1-2.7
			c0.5-0.1,1,0.2,1.6-0.4c0-1.2,0-2.5,0-3.8c0.4-0.4,0.7-0.6,0.9-0.8c0.6-0.1,1.2,0.2,1.5-0.4c0-1.2,0-2.5,0-3.7
			c0.3-0.3,0.6-0.6,0.9-0.9c0.5,0,1-0.1,1.6-0.1c0-1.4,0-2.8,0-3.9c0.7-1,2-1,2.5-2c0-1,0-2.1,0-3.2c0.8-0.6,1.7-1.2,2.5-1.8
			c0-1.3,0-2.5,0-3.6c0-0.2-0.2-0.3-0.3-0.5c-0.7,0.1-1.4-0.2-2.1,0.2c-0.1,0.5-0.1,1-0.2,1.5c-0.3,0.3-0.6,0.6-0.9,0.8
			c-0.6,0.1-1.1-0.2-1.5,0.3c0,0.8,0,1.7,0,2.3c-0.4,0.7-0.6,1.2-0.9,1.7c-0.5,0.1-1,0.1-1.6,0.2c0,0.9,0,1.9,0,2.6
			c-0.4,0.4-0.7,0.7-1,1c-0.5,0.1-1.1-0.2-1.6,0.3c0,1,0,2.1,0,3.2c-0.4,0.4-0.7,0.7-1,0.9c-0.4,0-0.8,0-1.2,0
			c-0.4,0.8-0.8,1.6-1.1,2.4c-0.5,0.1-1,0.1-1.6,0.2c0,0.8-0.1,1.5-0.1,1.9c-0.4,0.7-0.6,1.3-0.9,1.7c-0.5,0.3-1.1-0.2-1.6,0.5
			c0,0.8,0,1.7,0,2.5c-0.4,0.4-0.7,0.6-0.9,0.9c-0.6,0.1-1.2-0.2-1.5,0.3c0,0.4,0,0.8,0,1c-0.4,0.7-0.6,1.2-0.9,1.7
			c-0.8-0.1-1.2,0.6-1.7,1.2c0,0.7,0,1.6,0,2.3c-0.3,0.3-0.6,0.6-0.9,0.9c-0.5,0.1-1.1-0.2-1.5,0.3c0,0.4,0,0.8,0,1.2
			c-0.5,0.4-0.7,1-1.5,1.1c-0.4,0-0.8,0.6-1.1,0.9c0,0.7,0,1.3,0,1.7c-0.4,0.7-0.7,1.3-0.9,1.8c-0.5,0.1-1.1-0.2-1.5,0.3
			c0,0.7-0.1,1.4-0.1,2.1c-0.7,0.5-1.5,0.8-2,1.3c-0.5,0.5-0.6,1.5-1.4,1.9c-0.5,0.1-1-0.2-1.6,0.3c0,0.8,0,1.7,0,2.5
			c-0.6,0.6-1,1-1.5,1.4c-0.3,0.2-0.7,0.3-1,0.4c0,0.7,0,1.3,0,1.9c-0.9,0.4-1.7,0.9-2.5,1.3c0,0.5,0,0.9,0,1.2
			c-1.4,1.4-2.9,2.9-4.2,4.2c-0.3,0.6-0.5,1-0.8,1.7c0,0.4-0.1,1.1-0.1,1.8c-0.6,0.1-1.1,0.1-1.5,0.2c-0.4,0.3-0.7,0.6-0.8,0.7
			c-0.4,0.7,0.1,1.3-0.5,1.7c-0.4,0-0.8,0-1.2,0c-0.4,0.3-0.8,0.7-1,0.8c0,0.7,0,1.1-0.1,1.5c-0.3,0.3-0.6,0.6-0.9,0.9
			c-0.3-0.3-0.6-0.6-0.9-0.9c0-0.8,0-1.7,0-2.9c0.7-0.7,1.5-1.5,2.5-2.5c0-0.2,0-0.6,0.1-1c1.2-0.2,1.8-1.1,2.5-1.8
			c0-0.8,0-1.6,0-2.4c0.6-1,1.8-0.9,2.4-1.8c0.1-0.5,0.1-1,0.1-1.4c0.6-1,2-0.9,2.4-2c0-0.3,0-0.7,0-1.1c0.6-0.6,1.2-1.2,1.6-1.6
			c0.3-0.6,0.5-1.1,1-2c0,0.1-0.4-0.5,0.1-0.9c0.5,0,1-0.1,1.4-0.2c0.3-0.3,0.6-0.6,0.9-0.9c0-0.8,0-1.7,0-2.5
			c0.8-0.8,1.7-1.7,2.5-2.5c0-0.4,0-0.8,0-1.4c1.3,0.1,1.8-1,2.6-1.8c0-0.4,0-0.8,0-1.2c0.7-0.3,1.7-0.4,1.7-1.1
			c0-0.8,1.1-1.1,0.8-1.9c0.8-0.8,1.6-1.6,2.5-2.5c0-0.8,0-1.7,0-2.6c0.7-0.6,1.3-1.2,1.9-1.7c0-0.5,0-0.9,0-1.3
			c0.3-0.3,0.6-0.6,0.9-0.9c0.4,0,0.8,0,1.2,0c0.3-0.6,0.6-1.2,1-1.8c0-0.5,0-1,0-1.8c0.6-0.5,1.3-1,1.9-1.5c0-0.7,0-1.1,0-1.5
			c0.3-0.3,0.6-0.6,0.9-0.9c0.4,0,0.8,0,1.2,0c0.3-0.6,0.6-1.2,1-1.9c0-0.5,0-1.1,0-1.5c0.7-0.5,1.3-0.8,1.8-1.2c0-0.5,0-1,0-1.4
			c0.2-0.2,0.4-0.5,0.6-0.7c0-0.6,0-1.2,0-1.9c0.3-0.1,0.6-0.2,1-0.3c0.6-0.6,1.5-1.2,1.7-2.3c0.1-0.3,0.6-0.6,0.9-0.8
			c0.2-0.1,0.5-0.2,0.8-0.3c0-0.7,0-1.3,0-1.9c0.5-1,1.8-0.9,2.5-2c0-1.6,0-3.3,0-4.9c0.7-1.1,2-0.9,2.5-2c0-0.4,0-0.8,0-1.2
			c0.5-1,1.8-0.9,2.5-2c0-0.9,0-2.1,0-2.6c0.4-1,0.6-1.4,0.7-1.6c0.7-0.5,1.3-0.9,1.8-1.2c0-1.9,0-3.7,0-5.5c0-0.1,0-0.2,0-0.3
			c0-0.1-0.1-0.2-0.2-0.2c-0.7-0.1-1.4-0.2-2.2,0.1c0,0.9,0,1.8,0,2.3c-0.5,0.9-0.7,1.4-1,1.9c-0.2,0-0.4,0-0.6,0
			c-0.3,0.3-0.6,0.6-0.9,0.9c0,0.4,0,0.8,0,1c-0.4,0.5-0.7,1-0.8,1.2c-0.7,0-1.1,0.1-1.6,0.1c-0.2,1.4,0,2.7-0.1,4.1
			c-0.3,0.3-0.6,0.6-0.9,0.9c-0.5,0.1-1-0.2-1.5,0.2c-0.1,0.5-0.1,1-0.2,1.4c-0.3,0.3-0.6,0.6-0.9,0.9c-0.4,0-0.8,0-1.3,0
			c-0.1,0.4-0.2,0.9-0.4,1.1c-0.5,0.4-0.3,1-0.6,1.3c-0.5,0.1-1,0.1-1.6,0.2c0,0.9,0,1.8,0,2.3c-0.5,0.9-0.7,1.4-1,1.9
			c-0.2,0-0.4,0-0.6,0c-0.3,0.4-0.8,0.6-0.9,1c0,0.6-0.1,1-0.1,1.3c-0.4,0.4-0.7,0.6-0.9,0.8c-0.6,0.1-1.2-0.2-1.5,0.4
			c0,0.5,0,1,0,1.6c0,0,0,0.1,0,0.1c-0.4,0.7-0.6,1.2-0.9,1.7c-0.3,0.6-1,0.6-1.6,0.9c0,0.7,0,1.4,0,2c-0.4,0.4-0.7,0.7-1,0.9
			c-0.4,0-0.8,0-1.3,0c-0.1,0.3-0.1,0.6-0.3,1.1c-0.2,0.2-0.6,0.6-1,0.9c-0.4,0.3-1,0.6-1.5,0.9c0,0.4,0,0.8,0,1
			c-0.4,0.5-0.6,0.8-0.8,1.1c-0.6,0.1-1.2-0.2-1.7,0.4c0,0.8,0,1.7,0,2.4c-0.7,1.1-2,0.9-2.5,2.1c0,0.7,0,1.5,0,2.3
			c-0.4,1.1-1.7,0.8-2.2,1.7c-0.4,0.8-0.8,1.5-1.2,2.5c-0.9-0.3-1.1,0.5-1.7,1c0,0.6,0,1.2,0,1.8c-0.8,0.4-1.6,0.8-2.4,1.1
			c-0.1,0.5-0.1,1-0.2,1.4c-0.6,1-2,0.8-2.4,1.9c0,0.8,0,1.6,0,2.4c-0.6,1-1.8,0.9-2.4,1.8c0,0.7-0.1,1.4-0.1,2.1
			c-0.6,0.4-1.2,0.7-1.8,1.1c0.2,0.6-0.4,0.9-0.6,1.3c-0.1,0.7,0.3,1.4-0.3,2.1c-0.4,0-0.8,0-1.1,0c-0.5,0.4-0.9,0.7-1.1,0.8
			c0,0.7-0.1,1.1-0.1,1.5c-0.6,0.6-1.2,1.2-1.8,1.8c0.2,0.7-0.4,0.9-0.6,1.4c0,0.6,0,1.2,0,1.9c-0.3,0.1-0.6,0.2-1.2,0.3
			c-0.1,0.1-0.4,0.6-0.8,0.9c-0.5,0.3-0.4,0.9-0.7,1.3c-0.3,0.3-0.6,0.5-0.9,0.8c-0.4,0.3-1.4,1.6-1.4,2c0,0.6,0,1.3,0,1.9
			c0,0.2-0.2,0.3-0.3,0.5c-0.4,0-0.8,0-1.3,0c-0.2,0.3-0.5,0.6-0.9,1.1c0,0.9,0,2,0,2.9c-0.7,1.1-2,0.9-2.5,2c0,0.4,0,0.8,0,1.2
			c-0.3,0.3-0.6,0.6-0.9,0.9c-0.2,0-0.4,0-0.8,0c0.1,0.7-0.3,1.3-0.9,1.7c-0.6,0.4-0.3,1.2-0.9,1.5c-0.6,0.4-1.1,0.9-1.4,1.2
			c-0.2,1.1,0.2,1.9-0.4,2.5c-0.5,0.1-1-0.2-1.5,0.3c0,0.5-0.1,1-0.2,1.4c-0.6,0.9-1.9,0.8-2.4,1.8c0,0.4,0,0.8,0,1.2
			c-0.2,0.2-0.4,0.5-0.6,0.7c0,0.4,0,0.8,0,1.2c-0.5,0.4-0.8,0.9-1.5,1c-0.4,0-0.8,0.6-0.9,0.9c0,0.6-0.1,1-0.1,1.4
			c-0.7,0.1-1.2,0.2-1.8,0.3c0,0.5,0,1,0,1.4c-0.3,0.2-0.6,0.5-0.9,0.8c-0.4,0.4-1.2-0.2-1.6,0.6c0,0.4,0,0.8,0,1.2
			c-0.6,0.6-1.2,1.2-1.8,1.8c0.1,0.9-0.6,1.2-1.1,1.6c-0.5,0.1-1.1-0.2-1.4,0.3c0,0.4,0,0.8,0,1.2c-0.3,0.3-0.6,0.6-1,1
			c-0.6,0-1.3,0-2.1,0c0,0.8-0.1,1.5-0.1,1.9c-0.4,0.8-0.6,1.4-1,1.8c-0.5,0.6-1,1-1.5,1.5c0,0.5,0,0.9,0,1.3c-0.3,0.3-0.6,0.6-1,1
			c-0.6,0-1.3,0-2,0c-0.2,1.4-1.3,1.9-2,2.8c0,0.4,0,0.8,0,1.2c-0.3,0.3-0.6,0.6-0.9,0.9c-0.5,0-0.9,0.1-1.5,0.2
			c-0.3,1.4,0,2.7-0.2,4c-0.3,0.3-0.6,0.6-0.9,0.9c-0.4,0-0.9,0-1.3,0c-0.4,0.5-0.8,0.8-1,1.5c-0.1,0.6-1.3,0.4-1.6,1.1
			c-0.2,0.4-0.6,0.7-0.9,1.2c-0.4,0.8-1.5,1.3-1.7,2.1c-0.3,1-0.9,1.4-1.8,1.8c-0.4,0.1-0.8,0.6-0.9,1.2c-0.1,0.4-0.6,0.8-0.9,1.2
			c-0.5,0-0.9,0-1.3,0c-0.3,0.3-0.6,0.6-0.9,0.9c0,0.5,0,1-0.1,1.4c-0.5,0.2-0.9,0.3-1.2,0.4c0,0.5,0,0.9,0,1.3
			c-0.3,0.3-0.6,0.6-0.9,0.9c-0.4,0-0.8,0-1.4,0c-0.2,0.2-0.6,0.5-0.6,0.9c0,1-0.8,1-1.3,1.3c-0.4,0.2-0.9,0.4-1.3,0.7
			c0,1.2,0,2.5,0,3.7c0,0.1-0.1,0.2-0.2,0.3c-0.5,0.1-1,0.1-1.4,0.2c-0.3,0.3-0.6,0.6-0.9,0.9c0,0.4,0,0.8,0,1.3
			c-0.8,0.4-1.6,0.7-2.4,1.1c-0.1,0.5-0.1,1-0.2,1.5c-0.5,0.1-1.9,0.6-2,0.6c-1.1,0.4-2.1-0.1-3,0.4c0,0.9,0,1.7,0,2.5
			c-0.2,0.2-0.4,0.5-0.6,0.6c-0.1,0.4-0.2,0.6-0.2,0.9c-0.9-0.1-1.5,0.5-1.7,1.2c-0.2,1-0.8,1.3-1.6,1.5c-0.3,0.1-0.6,0.6-0.9,0.9
			c0,1,0,2.1,0,3.1c-0.3,0.3-0.6,0.6-0.9,0.9c-0.5,0-0.9,0.1-1.5,0.2c-0.1,0.3-0.1,0.6-0.2,0.9c-0.8,0.8-1.6,1.6-2.4,2.4
			c-0.1,0.5,0.2,1-0.3,1.6c-0.5,0-1.2-0.2-1.7,0c-0.6,0.3-1.2,0.7-2.1,0.6c-0.3,0.3-0.8,0.7-0.9,1.1c-0.1,0.7-0.5,0.7-1,0.8
			c-0.4,0.1-0.8,0.7-0.9,1.1c-0.1,0.6-0.6,0.8-0.9,1.3c-1.1,0-2.2,0-3.2,0c-0.4,0.4-0.7,0.7-0.9,0.9c0.2,1.2-0.9,2.1-0.8,3.2
			c0,0.1-0.1,0.1-0.2,0.2c-0.4,0-0.8,0-1.2,0c-0.3,0.3-0.6,0.6-0.8,0.8c-0.3,0.7,0.1,1.5-0.3,2.2c-0.6,0.1-1.1,0.2-1.7,0.3
			c0,0.7,0,1.4,0,2c-0.7,0.6-0.6,1.7-1.6,2.2c-0.4,0-0.8,0-1.2,0c-0.2,0.2-0.5,0.4-0.7,0.6c-0.4,0-0.8,0-1.2,0
			c-0.3,0.6-0.6,1.2-0.9,1.8c0,0.1,0,0.2,0,0.3c0.2,0.2,0.4,0.5,0.6,0.7c0.1,0.5-0.1,0.8-0.4,1.1c-0.2,0.3-0.3,0.7-0.4,1.1
			c-2,0.1-4,0-6,0.1c-0.5,0.8-0.9,1.6-1.4,2.3c-0.1,0.6,0.1,1.3-0.2,1.9c-0.6,0.4-1.5-0.2-1.9,0.7c-0.7,0.1-1.4,0.1-2.1,0.2
			c-0.3,0.3-0.6,0.6-0.9,0.9c0,0.6,0,1.3,0,2c-0.3,0.1-0.6,0.2-1.1,0.3c-0.2,0.2-0.7,0.7-1,1.2c-0.4,0.6-1.1,0.4-1.5,0.9
			c-0.3,0.3-0.6,0.5-0.7,1c-0.1,0.4-0.5,0.8-0.8,1.2c-0.5,0-0.9,0-1.3,0c-0.8,0.4-1,1.2-1.4,1.9c-0.4,0-0.8,0-1.2,0
			c-0.4,0.8-0.7,1.6-1.1,2.5c-0.6,0-1.4,0-1.9,0c-0.3,0.3-0.4,0.4-0.6,0.6c-1.3,0.2-2.7-0.1-4.1,0.2c0,1.2,0,2.3,0,3.2
			c-0.4,0.5-0.7,0.8-1,1.1c-0.5,0-0.9,0-1.3,0c-0.3,0.3-0.6,0.6-0.9,0.9c0,0.5-0.1,1-0.1,1.5c-1.7,0-2.8,1.1-4,1.5
			c-0.5,0.7-0.8,1.3-1.2,1.8c-0.8,0-1.4,0-1.8,0c-0.8,0.8-1.6,1.5-2.4,2.2c0,0.4,0,0.9,0,1.1c-0.6,0.7-1.1,1.2-1.5,1.7
			c-0.7,0-1.3,0-1.9,0c-0.8,0.8-1.6,1.6-2.5,2.5c-1.3,0.1-2.7-0.1-4,0.1c0.1,1.9-1.9,1.6-2.6,2.7c0,0.4,0,0.8,0,1.2
			c-0.6,0.3-1.2,0.6-1.9,1c-0.9,0-1.9,0-2.5,0c-1.3,0.5-1.6,1.7-2.8,1.9c-1,0.2-0.9,1.7-1.8,2.4c-0.6,0-1.2,0-1.8,0
			c-0.4,0.5-1,0.7-1.7,0.9c0,1.1,0,2.2,0,3.2c-0.4,0.4-0.7,0.7-1,1c-1.3,0-2.5,0-3.5,0c-0.7,0.4-1.3,0.6-1.8,0.9
			c-0.6,0.4-1,1-1.6,1.5c-0.4,0-0.8,0-1.2,0c-0.2,0.2-0.5,0.4-0.7,0.6c-0.6,0-1.2,0-1.9,0c-0.4,0.6-0.5,1.6-1.5,1.9
			c-0.5,0-1.1,0-1.6,0c-0.7,0.5-0.8,1.2-1.2,1.8c-0.4,0-0.8,0-1.2,0c-0.2,0.2-0.5,0.4-0.7,0.6c-1.2,0-2.5,0-3.8,0
			c-0.3,0.4-0.8,0.7-0.9,1.2c-0.1,0.7-0.7,1-1.2,1.4c-1.4,0-2.8,0-3.9,0c-0.8,0.3-1.3,0.5-1.8,0.8c0,0.4-0.2,0.8-0.5,1.3
			c-0.4,0.5-0.9,0.3-1.3,0.6c-0.4,0.3-0.8,0.5-1.3,0.7c0.2,0.2,0.4,0.4,0.6,0.7c-0.5,0.3-0.9,0.7-1.5,0.9c-0.6,0.2-1.5-0.1-1.9,0.7
			c-1.3,0.1-2.7-0.1-4,0.1c-0.1,0.7-0.2,1.3-0.3,1.8c-1,0-1.8,0-2.6,0c-0.2,0.2-0.5,0.4-0.7,0.6c-1,0-2.1,0-3.1,0
			c-0.5,0.6-0.5,1.6-1.6,1.9c-0.8,0-1.9,0-2.6,0c-0.8,0.4-1.3,0.7-1.7,0.9c0,0.3,0,0.5-0.1,0.6c-0.5,0.3-1,0.5-1.7,0.9
			c-0.6,0-1.5,0-2.1,0c-0.7,0.4-1.2,0.6-1.7,0.9c-0.1,0.3-0.1,0.6-0.2,0.9c-1.4,0-2.7,0-4,0c-0.1,0-0.1-0.1-0.2-0.2
			c-0.1-0.3-0.1-0.6-0.2-0.9c-0.6,0-1.1,0-1.5,0c-0.2,0.7-0.5,1.4-1.1,1.8c-0.6,0-1.2,0-1.8,0c-0.2,0.2-0.5,0.4-0.7,0.6
			c-0.5,0.1-1-0.2-1.5,0.2c-0.1,0.3-0.1,0.6-0.2,0.9c-0.4,0.3-0.8,0-1.2,0.2c-0.4,0.1-0.7,0.4-1.1,0.7c-1.4,0-2.8,0-4.3,0
			c-0.2,0.5-0.8,0.6-0.8,1.3c-0.1,0.4-0.5,0.8-0.8,1.2c-3.8,0-7.6,0-11.3,0c-0.2,0.2-0.5,0.4-0.4,0.4c-0.9,0.5-1.7-0.1-2.4,0.5
			c0.2,0.2,0.4,0.4,0.7,0.8c-1,0-1.8,0.2-2.6,0.8c-2.8,0-5.7,0-8.7,0c-0.4,0.6-0.7,1.2-1.1,1.8c-0.3,0-0.6-0.1-1-0.2
			c0.3-0.3,0.4-0.5,0.7-0.9c-0.3-0.3-0.6-0.7-0.9-0.9c-0.9,0.2-1.7-0.3-2.3,0.4c0,0.4,0,0.8,0,1.2c-0.3,0.3-0.6,0.6-0.9,0.9
			c-0.7,0-1.4,0.2-2.1-0.1c-0.2-0.2-0.3-0.3-0.5-0.5c-1.2,0-2.5,0-3.8,0c-0.2,0.2-0.5,0.4-0.7,0.6c-0.9,0-1.7,0-2.5,0
			c-0.3-0.2-0.5-0.4-0.7-0.6c-0.8-0.1-1.4,0.2-2,0.7c-1.4,0-2.8,0-4.2,0c-0.7,0.5-0.8,1.2-1.2,1.8c-0.2,0-0.4,0-0.6,0
			c-0.3-0.7-0.6-1.4-1.3-1.9c-1.5,0-2.9,0-4.4,0c-0.3,0.3-0.6,0.6-0.9,0.9c-0.1,0.5,0.2,1-0.2,1.5c-0.2,0-0.4,0.1-0.7,0.1
			c-0.3-0.3-0.9-0.7-0.9-1.1c-0.1-0.8-0.6-1-1-1.5c-1.3,0-2.5,0-3.8,0c-0.3-0.3-0.6-0.6-0.9-0.9c0-0.5-0.1-1-0.1-1.6
			c-0.5,0.1-0.8,0.1-1.2,0.2c0,0.6,0,1,0,1.4c-0.3,0.3-0.6,0.6-1,0.9c-0.6,0-1.4,0-2.1,0c-0.8,0-1.6-0.2-2.5,0.2
			c-0.3,0.5-0.7,1.1-1,1.7c-0.2,0-0.4,0-0.6,0c-0.4-0.7-0.5-1.5-1.5-1.9c-3.6,0-7.4,0-10.9,0c-1.2-0.6-1-2-2.1-2.5
			c-1.4,0-2.9,0-4.3,0c-0.2-0.2-0.5-0.4-0.7-0.6c-0.8,0-1.7,0-2.5,0c-0.4-0.6-0.5-1.6-1.5-1.9c-3.2,0-6.5,0-9.8,0
			c-0.2-0.2-0.3-0.3-0.5-0.5c-0.7-0.3-1.6,0.3-2.3-0.4c0.4-0.2,0.8-0.4,1.3-0.6c-0.7-0.5-1.5-0.2-2.1-0.3c-0.9-0.8-2.4-0.8-2.4-2.3
			c-0.6-0.3-1.1-0.6-1.8-0.9c-1.1,0-2.3,0-3.5,0c-0.3-0.4-0.6-0.7-0.8-0.9c-0.1-0.6,0.2-1.2-0.3-1.5c-1.3,0-2.5,0-3.8,0
			c-0.3-0.3-0.6-0.6-0.9-0.9c0-0.4,0-0.8,0-1.1c-0.4-0.8-1.2-1.1-1.9-1.4c0-0.2,0-0.4,0-0.6c-0.3-0.3-0.6-0.6-0.9-0.9
			c-0.6,0-1.2,0-1.9,0c-0.6-0.8-1.2-1.7-1.8-2.5c-0.7-0.1-2.7-0.8-2.9-1c0-0.2,0-0.4,0-0.6c-0.3-0.3-0.6-0.6-0.9-0.9
			c-0.7-0.1-1.4,0.1-2.1-0.2c-0.1-0.5-0.1-1-0.1-1.2c-0.4-0.5-0.6-0.8-0.9-1.1c-0.5,0-0.9,0-1.3,0c-0.3-0.3-0.6-0.6-0.9-0.9
			c0-0.2,0-0.4,0-0.7c-1.2-0.6-2.4-1.2-3.6-1.8c0.1-1.2-1-2.1-0.8-3.3c-0.7-0.3-1.4-0.5-1.9-0.9c-0.4-0.2-1-0.6-1.1-1
			c-0.1-0.6-0.4-1-0.8-1.3c-0.6-0.4-0.4-1.1-0.9-1.5c-0.3-0.3-0.4-0.8-0.6-1.2c-0.5,0-0.9,0-1.3-0.1c-0.1,0-0.1-0.1-0.3-0.3
			c0-1.2,0-2.5,0-3.9c-0.6-0.1-1.1-0.1-1.3-0.1c-0.8-0.6-1.3-1.1-1.8-1.5c0-0.6,0-1,0-1.5c-0.3-0.1-0.6-0.1-0.9-0.2
			c-0.3-0.5-1.3-0.7-0.8-1.7c0.4-0.1,0.7-0.3,1.1-0.4c0-0.5,0-0.9,0-1.6c-0.5-0.4-1.3-1-1.9-1.5c0-0.8,0-1.4,0-2.1
			c-0.3-0.1-0.6-0.1-1-0.2c-0.2-0.2-0.5-0.5-0.9-0.9c0-0.8,0-1.7,0-2.5c-0.3-0.3-0.4-0.4-0.6-0.6c0-1.4,0-2.9,0-4.3
			c-0.4-0.8-1.2-1-1.9-1.4c0.2-0.7-0.5-0.8-0.6-1.2c0-3.7,0-7.2,0-10.7c0.3-0.3,0.5-0.5,0.7-0.7c0.3-0.2,0.7-0.3,1.1-0.4
			c0-0.3-0.1-0.6-0.1-0.9c-0.4-0.2-0.8-0.3-1-0.3c-0.4-0.8-0.6-1.4-0.9-2c0.6-0.3,0.8-1,1.6-1c0.4,0,0.7-0.6,1-0.9
			c0-0.6-0.1-1-0.1-1.4c-0.6-0.1-1.2-0.2-1.8-0.3c0-0.6-0.2-1.1,0.1-1.6c0.6-0.1,1.1-0.2,1.7-0.3c0-0.7,0-1.4,0-2
			c0.2-0.2,0.4-0.5,0.6-0.7c0-0.9,0-1.7,0-2.5c-0.8-0.5-0.7-1.2-0.5-1.9c0.4-0.4,0.9-0.9,1.3-1.3c0.3-0.3,0.6-0.6,0.5-1.1
			c-0.4-0.4-0.8-0.9-1.2-1.3c0-0.6,0-1.2,0-1.9c-0.8-0.5-0.6-1.2-0.5-1.9c0.8-0.4,1.6-0.7,2.4-1.1c0-1.7,0-3.5,0-5.2
			c-0.2-0.2-0.4-0.4-0.5-0.5c0.7-0.5,0.5-1.5,1.2-2c0-1,0-2.1,0-3.1c0.3-0.3,0.6-0.6,0.9-0.9c0.3-0.1,0.6-0.1,1-0.2
			c0-1.6,0-3.1,0-4.5c0.7-1.1,2-1,2.5-2c0-1.7,0-3.3,0-5c0.3-0.3,0.6-0.6,0.9-0.9c0.5,0,1-0.1,1.6-0.1c0-2.3,0-4.4,0-6.3
			c0.4-0.5,0.7-0.9,0.8-0.9c0.7-0.3,1.3,0.1,1.7-0.4c0-0.7,0.1-1.4,0.1-2c0.2-0.2,0.4-0.4,0.6-0.6c0-0.6,0-1.2,0-1.8
			c0.2-0.2,0.4-0.5,0.6-0.7c0-0.4,0-0.8,0-1.7c0.3-0.2,0.8-0.5,1.3-0.8c0-0.6,0-1,0-1.2c0.4-0.4,0.6-0.8,0.8-1
			c0.6-0.1,1.2,0.2,1.6-0.3c0-0.4,0-0.8,0-1.3c0.8-0.6,1.7-1.2,2.6-1.8c0-1.1,0-2.2,0-3.2c0.3-0.3,0.6-0.6,0.9-0.9
			c0.5-0.1,1.1,0.2,1.5-0.2c0.1-0.5,0.1-1,0.2-1.4c0.6-1,1.9-0.8,2.4-1.9c0-0.4,0-0.8,0-1.3c1.8,0,1.7-2,2.9-2.7c0.4,0,0.8,0,1.2,0
			c0.3-0.3,0.6-0.6,0.9-0.9c0-0.6,0-1.3,0-1.8c0.7-0.9,0.9-2.4,2.4-2.4c0.1-0.6,0.1-1,0.2-1.5c0.3-0.3,0.6-0.6,0.8-0.7
			c0.7-0.3,1.2,0.1,1.6-0.4c0-0.5,0.1-1,0.1-1.5c0.6-0.1,1.1-0.1,1.4-0.2c0.5-0.4,0.8-0.6,1.1-0.9c0-0.5,0-0.9,0-1.3
			c0.6-0.6,1.2-1.2,1.8-1.8c0.1-0.7-0.1-1.5,0.7-1.9c0-0.4,0-0.8,0-1.3c0.8-0.4,1.7-0.9,2.5-1.3c0.1-0.6-0.2-1.1,0.3-1.5
			c0.4,0,0.8,0,1.3,0c0.3-0.8,1.5-1,1.5-2.1c0-0.1,0.5-0.3,0.7-0.4c0.3-0.2,0.6-0.5,1-0.6c0.5-0.1,1,0,1.6,0c0.2,0,0.3-0.2,0.5-0.3
			c0-0.4,0-0.8,0-1.2c0.3-0.3,0.6-0.6,0.9-0.9c0.5,0,1-0.1,1.5-0.1c0.1-0.6,0.1-1.1,0.2-1.7c0.6-0.4,1.3-0.8,2-1.3
			c0.7-0.5,0.4-1.6,1.3-1.9c0.5-0.1,1-0.1,1.5-0.2c0.1-0.5,0.1-1,0.2-1.5c0.3-0.3,0.6-0.6,0.7-0.7c0.7-0.4,1.3,0.1,1.7-0.4
			c0.1-0.5,0.1-1,0.2-1.5c1.1-0.2,2.1-0.5,3-1.1c0-0.2,0-0.4,0-0.6c0.7-1,1.8-1.2,3-1.5c0.9-0.9,1.7-1.7,2.7-2.7
			c0.3,0,0.7,0,1.1-0.1c0.3-0.9,0.5-1.5,1.4-1.9c1.1-0.4,1.8-1.2,2.1-2.5c1.1,0,2.2,0,3,0c0.5-0.4,0.9-0.7,1.1-0.9
			c0-0.5,0-0.9,0-1.3c0.5-0.2,0.9-0.4,1.3-0.7c0.5-0.3,1.2-0.3,1.5-0.9c0.3-0.6,1.1-0.5,1.5-0.9c0.4-0.5,1.2-0.3,1.5-0.9
			c1.3,0,1.5-1.1,1.9-1.9c0.7-0.3,1.5,0.2,2.2-0.3c0.1-0.5,0.1-1,0.2-1.5c0.3-0.3,0.6-0.6,0.9-0.9c1.3,0,2.5,0,3.7,0
			c0.4-0.3,0.7-0.6,1-0.9c0-0.2,0-0.5,0-0.7c0.5-0.3,1-0.5,1.8-0.9c0.4,0,1,0,1.7,0c0.6-0.8,1.2-1.7,1.8-2.6c1.3,0.3,2.1-1,3.3-0.6
			c0.4-0.7,0.7-1.3,1.1-1.9c0.7-0.1,1.4,0.2,2.1-0.2c0.1-0.5,0.1-1,0.1-1.2c0.4-0.5,0.6-0.9,0.9-1.1c0.5,0,0.9,0,1.3,0
			c0.6-0.6,1.2-1.2,1.6-1.6c0.6-0.3,1.1-0.5,2-1c0.2-0.1,0.9,0.4,1.6-0.1c0.1-0.5,0.1-1,0.2-1.4c0.3-0.3,0.6-0.6,0.9-0.9
			c0.6,0,1.3,0,1.4,0c1.9-0.6,2.8-1.9,4.5-2.5c0.4,0,1.3,0,2.2,0c0.6-0.8,1.2-1.7,1.8-2.6c1.2,0,2.2,0,3.2,0c1-0.6,0.9-1.9,1.8-2.4
			c0.5-0.1,1,0.2,1.5-0.2c0.1-0.5,0.1-1,0.2-1.4c0.3-0.3,0.6-0.6,0.9-0.9c1.3,0,2.5,0,3.7,0c0.8-1.1,2.3-1.3,3.1-2.5
			c0.6,0,1.3,0,1.9,0c0.3-0.7,0.6-1.5,1.4-1.9c1.2,0.2,2-1,3.1-0.7c1-0.6,0.9-1.9,1.9-2.4c1,0,2.1,0,3.1,0c0.4-0.5,0.9-0.7,1-1.5
			c0-0.4,0.6-0.7,0.9-1c0.7,0,1.2,0,1.7,0c0.8-0.7,2.1-0.8,2.6-1.9c0.5,0,0.9,0,1.3,0c0.4-0.8,1.5-0.6,2-1.3
			c0.6-0.9,1.7-1.3,2.7-1.8c0.3,0,0.6,0,1,0c0.9-1.4,2.7-1.6,4-2.6c1,0,2,0,3.1,0c0.1-0.3,0.1-0.6,0.2-0.9c0.3-0.3,0.6-0.6,0.9-0.9
			c0.4,0,0.8,0,1.2,0c0.2-0.2,0.5-0.4,0.7-0.6c0.4,0,0.8,0,1.2,0c0.3-0.3,0.6-0.6,0.9-0.9c0-0.2,0-0.4,0-0.8
			c1.2-0.7,3.1-0.7,3.4-2.7c1.1,0,2.1,0,3.2,0c0.2-0.2,0.5-0.4,0.6-0.6c0.4-0.1,0.7-0.2,0.9-0.2c0.1-0.4,0.1-0.7,0.3-0.9
			c0.2-0.3,0.6-0.6,0.7-0.7c1.5,0,2.7,0,4,0c0.1,0,0.1,0.1,0.2,0.2c0,0.2,0,0.4,0,0.6c-0.3,0.3-0.6,0.6-0.9,0.9c-0.4,0-0.8,0-1.2,0
			c-0.4,0.5-1.1,0.7-1,1.6c0.3,0.3,0.6,0.7,0.9,0.9c0.6,0.1,1.1,0,1.6,0.3c0.9,0.6,1,0.5,1.9,0c0.4-0.2,0.8-0.4,1.1-0.6
			c0.2-0.6-0.1-1.2,0.4-1.6c1.4,0,2.9,0,4.4,0c0.2-0.2,0.5-0.4,0.5-0.5c0.8-0.4,1.6,0.1,2.3-0.4c0.1-0.3,0.1-0.6,0.2-0.9
			c0.4-0.2,0.9-0.2,1.3-0.6c0.4-0.5,1.2,0.1,1.7-0.4c0.3-0.3,0.8-0.4,1.2-0.7c0.1-0.5-0.2-1.1,0.4-1.6c1.2,0,2.5,0,3.8,0
			c0.4-0.4,0.6-0.7,0.8-0.9c0-0.5,0-0.9,0.1-1.3c0.6-0.3,1.2-0.4,1.6-0.9c0.8,0,1.6,0,2.5,0c0.4-0.7,0.5-1.6,1.4-1.9
			c1,0.3,1.6-0.7,2.3-0.8c0.4-0.7,0.8-1.2,1.2-1.7c0.8,0,1.4,0,2,0c1-0.5,0.9-1.9,1.8-2.4c0.9-0.4,1.7-1,2.5-0.8
			c0.5-0.7,0.9-1.3,1.2-1.8c1,0,1.8,0,2.6,0c0.3-0.3,0.6-0.6,0.9-0.9c0-0.5,0-1,0.1-1.6c1.1,0,2,0,2.8,0c0.5-1,1.4-0.4,2-0.8
			c0.2-0.7,0.5-1.3,1.1-1.7c0.6,0,1.2,0,1.9,0c0.2-0.2,0.5-0.4,0.6-0.6c0.4-0.1,0.7-0.2,0.9-0.2c-0.1-0.9,0.6-1.3,1.2-1.8
			c0.5,0,1.1,0,1.7,0c0.3-0.3,0.8-0.6,0.8-1c0.1-0.7,0.4-0.7,0.9-0.9c0.9-0.5,1.9-1,2.9-1.5c0-0.5,0.1-1,0.1-1.6c1,0,1.9,0,2.6,0
			c0.5-0.4,0.8-0.7,1.1-0.9c-0.2-0.3-0.4-0.5-0.6-0.7c0.5-0.3,1.1-0.6,1.8-0.9c1,0,2.3,0,3.5,0c0.2-0.2,0.5-0.4,0.7-0.6
			c0.8,0,1.7,0,2.6,0c0.1-0.3,0.2-0.6,0.2-0.8c1.5-1.5,2.9-2.9,4.3-4.3c0-0.3,0-0.6,0-0.9c1-0.3,1.8-1,2.9-0.9c1-0.6,0.9-2,1.9-2.4
			c0.5-0.2,1,0.2,1.5-0.3c0-0.4,0-0.8,0-1.3c0.8-0.6,1.7-1.2,2.6-1.8c0-1.2,0-2.2,0-3.1c0.3-0.4,0.6-0.7,0.9-1c0.5,0,0.9,0,1.3,0
			c0.3-0.3,0.6-0.6,0.9-0.9c0-0.5,0-1,0.1-1.4c0.4-0.1,0.7-0.2,1-0.3c0.1-0.1,0.2-0.1,0.2-0.2c0.1-1.4,1.5-2.3,1.4-3.8
			c0-0.1,0.1-0.1,0.2-0.2c0.2,0,0.4,0,0.6,0c0.9-0.4,0.8-1.6,1.6-2.2c0-1.8,0-3.5,0-5.3c0-0.2,0.1-0.4,0.1-0.3
			c0.7-0.5,1.3-0.9,1.8-1.3c0-1.4,0-2.6,0-3.8c0.2-0.2,0.3-0.3,0.5-0.5c0-1.3,0-2.6,0-3.9c-0.2-0.2-0.3-0.3-0.6-0.6
			c0-3.3,0-6.7,0-10.2c-0.7-0.4-1.2-0.7-1.9-1.1c0-1.2,0-2.5,0-3.7c-0.2-0.2-0.4-0.5-0.6-0.7c0-0.6,0-1.2,0-1.9
			c-0.3-0.3-0.6-0.6-0.9-0.9c-0.2,0-0.4,0-0.8,0c-0.2-0.9-0.6-1.6-1.8-2c-0.9-0.3-1.1-1.6-1.5-2.4c-0.5-0.9-0.7-1.8-1.6-2.5
			c-0.8,0-1.7,0-2.5,0c-0.3-0.3-0.6-0.6-0.9-0.9c0-0.5-0.1-1-0.1-1.5c-0.6-0.1-1.1-0.1-1.5-0.2c-0.4-0.3-0.7-0.6-1-0.8
			c-0.1-0.6,0.2-1.1-0.3-1.6c-0.7,0-1.4-0.1-2-0.1c-0.2-0.2-0.4-0.4-0.6-0.6c-0.4,0-0.8,0-1.2,0c-0.3-0.8-0.6-1.5-1.4-1.9
			c-1.6,0-3.3,0-4.7,0c-0.7-0.4-1.3-0.6-1.8-0.9c0-0.4,0-0.8,0-1.3c0-0.1-0.1-0.1-0.3-0.3c-1,0-2.1,0-2.7,0c-1-0.4-1.4-0.6-1.6-0.7
			c-0.5-0.7-0.9-1.3-1.2-1.8c-5.8,0-11.4,0-17,0c-0.3-0.2-0.5-0.4-0.7-0.6c-0.7,0-1.3,0-1.9,0c-0.2,0.2-0.3,0.3-0.5,0.5
			c-1.3,0-2.6,0-3.7,0c-0.5-0.4-0.8-0.6-1-0.8c-0.3-0.8,0.4-1,0.6-1.5c0.1-0.7-0.3-1.5,0.4-2.1c0.4,0.2,1-0.2,1.5,0.3
			c0.1,0.5,0.1,1,0.2,1.4c0.3,0.3,0.6,0.6,0.9,0.9c0.6,0,1.3,0,1.8,0c0.2,0.2,0.3,0.3,0.5,0.5c0.4,0,0.9,0,1.3,0
			c0.3-0.3,0.6-0.4,0.8-0.6c2.9,0,5.8,0,8.7,0c0.4-1,1.4-0.3,2-0.7c0.2-0.4,0.1-0.7-0.2-1.1c-0.4-0.7-1.2-0.6-1.8-1
			c-0.5-0.4-1.4-0.2-2-0.3c-0.3-0.3-0.7-0.6-0.9-0.9c0-0.3,0-0.5,0-0.7c-0.5-0.3-1-0.5-1.8-0.9c-2.7,0-5.8,0-8.8,0
			c-0.1,0-0.2,0-0.3,0c-0.1,0-0.2-0.1-0.3-0.2c-0.1-0.5-0.1-1-0.2-1.4c-0.3-0.3-0.6-0.6-0.9-0.8c-0.3,0.3-0.6,0.6-0.9,0.9
			c-0.1,0.5,0.2,1-0.3,1.5c-1.5,0-3,0-4.5,0c-0.3-0.4-0.6-0.6-0.9-0.9c-0.1-0.6,0.2-1.1-0.3-1.5c-0.4,0-0.8,0-1.3,0
			c-0.2,0.3-0.5,0.6-0.8,1c0,0.4-0.1,0.9-0.2,1.3c-0.1,0.1-0.2,0.2-0.3,0.2c-1.9,0-3.7,0-5.6,0c-0.3-0.3-0.6-0.6-0.9-0.9
			c-0.1-0.5,0.2-1-0.2-1.5c-1.5-0.6-2.6,0.7-4,0.6c-0.2,0.4-0.3,0.8-0.4,1.2c-0.3,0-0.5,0-0.7,0c-0.2,0.2-0.5,0.4-0.7,0.6
			c-3.7,0-7.3,0-11,0c-0.2,0-0.4-0.1-0.5-0.2c-0.1-0.5-0.1-1-0.2-1.4c-0.3-0.3-0.6-0.6-0.8-0.8c-0.5,0-0.9,0-1.3,0
			c-0.3,0.3-0.5,0.5-0.7,0.7c-0.2,0.3-0.3,0.7-0.4,1.1c-0.6,0-1.1,0.2-1.5-0.1c-0.1-0.4-0.3-0.7-0.4-1.1c-1.2,0-2.4,0-3.5,0
			c-0.2,0-0.4,0.1-0.7,0.2c0.4,0.9-0.5,1.1-1,1.6c-0.6,0-1.3,0-1.9,0c-0.3-0.5-0.9-0.6-0.9-1.3c0.2-0.3,0.4-0.8,0.6-1.1
			c0-0.2,0-0.3-0.1-0.4c-0.8-0.8-1.6-1.6-2.4-2.4c-0.1-0.5,0.2-1-0.3-1.6c-1.2,0-2.6,0-3.8,0c-0.3-0.3-0.4-0.4-0.6-0.6
			c-3.2,0-6.4,0-9.2,0c-0.7,0.3-1,0.5-2,1c-0.1,0.1-0.7,0.9-1.2,1.5c-3.3,0-6.5,0-9.5,0c-0.4,0.3-0.7,0.6-1,0.9
			c-0.1,0.6,0.2,1.1-0.3,1.5c-0.5,0-1,0-1.6,0c0-1,0-1.9,0-2.4c-0.5-0.9-0.7-1.4-1-1.9c-0.2,0-0.4,0-0.6,0c-0.4-0.5-0.8-0.8-1-1.5
			c-0.2-0.6-0.9-1.1-1.4-1.6c-0.1-0.1-0.4-0.1-0.7-0.1c-0.3,0.3-0.7,0.6-0.8,0.7c-0.3,0.9,0.1,1.5-0.6,1.9c-0.4-0.2-1,0.2-1.4-0.3
			c-0.1-0.5-0.1-1-0.2-1.5c-0.3-0.3-0.6-0.6-0.8-0.8c-0.5,0-0.9,0-1.2,0c-0.4,0.4-0.7,0.6-1,0.8c-0.1,0.6,0.2,1.2-0.3,1.6
			c-0.1,0-0.2,0.1-0.3,0.1c-8.5,0-16.9,0-25.4,0c-0.2,0-0.4,0-0.6,0c-0.1,0-0.2,0.1-0.4,0.3c-0.3,0.4-0.6,1-1,1.6
			c-0.6,0-1.2,0-1.8,0c-0.2,0.2-0.5,0.4-0.7,0.6c-3.8,0-7.5,0-11.2,0c-0.2,0.2-0.3,0.3-0.6,0.6c-0.8,0-1.7,0-2.7,0
			c-0.1,0.4-0.1,0.7-0.2,1c-0.2,0.2-0.5,0.5-0.9,0.9c-1,0-2,0-3.1,0c-0.1,0-0.2-0.1-0.4-0.3c-0.3-0.4-0.6-1-0.9-1.6
			c-0.2,0-0.4,0-0.6,0c-0.5,0.6-0.5,1.6-1.5,1.9c-1.3,0-2.8,0-4.2,0c-0.2,0.2-0.3,0.3-0.6,0.6c-0.8,0-1.7,0-2.6,0
			c-0.2,0.5-0.3,0.8-0.4,1.2c-1.9,0-3.8,0-5.7,0c-0.1,0-0.2-0.1-0.2-0.2c-0.1-0.3-0.1-0.6-0.3-1c-0.4-0.2-0.9,0-1.3-0.5
			c-0.3-0.4-0.7-0.3-1,0c-0.1,0.5-0.1,1-0.1,1.4c-0.4,0.3-0.7,0.6-1,0.9c-1.5,0-2.9,0-4.4,0c-1,0.2-0.6,1.3-1.1,1.8
			c-0.5,0-1,0.1-1.3,0.1c-0.3,0.3-0.4,0.4-0.6,0.6c-2.2,0-4.4,0-6.6,0c-0.2,0-0.4-0.1-0.6-0.2c0-0.5,0-1,0-1.6c2,0,4,0,5.9,0
			c1-0.6,0.9-1.9,2-2.5c1.4,0,2.9,0,4.4,0c0.4-0.5,1-0.7,0.8-1.6c-0.4-0.4-1-0.9-1.7-1.5c-3.5,0-7,0-10.4,0
			c-0.4-0.4-0.7-0.6-1.1-0.9c0.3-0.3,0.6-0.6,1-1c0.8,0,1.7,0,2.5,0c0.3,0.2,0.5,0.7,1.2,0.6c0.2-0.1,0.5-0.4,0.8-0.6
			c2.3,0,4.6,0,6.9,0c0.4-0.8,0.7-1.6,1.1-2.5c3.2,0,6.4,0,9.5,0c0.3-0.3,0.4-0.4,0.6-0.6c0.7,0,1.4-0.1,2.1-0.1
			c0.1-0.7,0.2-1.2,0.3-1.8c0.3,0,0.5,0,0.7,0c0.3,0.7,0.6,1.4,1.5,1.9c0.6-0.3,1.4,0.3,2.1-0.4c0-0.6,0-1.3,0-1.9
			c0.8-0.5,1.8,0.2,2.4-0.5c0-0.2,0-0.4,0-0.6c-0.3-0.3-0.6-0.6-0.9-0.9c-5,0-10,0-15,0c-0.2,0-0.4,0-0.6,0
			c-0.6,0.8-0.9,1.4-1.3,1.9c-1.6,0-3,0-4.5,0c-0.3,0.2-0.5,0.4-0.7,0.6c-2.3,0-4.6,0-6.9,0c-0.4,0.6-0.5,1.4-1.3,1.9
			c-2,0-4.2,0-6.2,0c-0.3,0.3-0.4,0.4-0.7,0.7c-0.8,0-1.7,0-2.4,0c-0.5,0.8-0.9,1.3-1.2,1.8c-1.2,0-2.2,0-3.2,0
			c-0.3,0.2-0.5,0.4-0.7,0.6c-0.7,0-1.3,0-1.9,0c-0.3-0.2-0.5-0.4-0.7-0.6c-0.8-0.2-1.4,0.3-1.9,0.5c-0.7,0-1.3,0-1.9,0
			c-0.2-0.2-0.4-0.4-0.5-0.5c-0.6,0-1.2,0-1.7,0c-0.5,0.3-0.9,0.6-1.1,0.8c-0.2,0.8,0.2,1.4-0.4,1.7c-0.7,0-1.3,0-1.8,0
			c-0.4-0.3-0.7-0.5-1-0.7c-0.4,0.3-0.8,0.5-1.2,0.8c-1.6,0-3.2,0-4.5,0c-0.8,0.4-1.3,0.5-1.8,0.8c0,0.2,0,0.6-0.2,0.8
			c-0.2,0.3-0.6,0.6-0.8,0.9c-1.7,0-3.4,0-4.8,0c-0.7,0.4-1.2,0.6-1.8,0.9c0.2,0.9-0.5,1.2-1.2,1.6c-0.9,0-2,0-2.6,0
			c-0.8,0.4-1.3,0.5-1.5,0.6c-0.5,0.7-0.8,1.3-1.2,1.8c-1,0-1.8,0-2.4,0c-0.7,0.4-1.2,0.6-1.7,0.9c0,0.2,0,0.4-0.1,0.7
			c-0.3,0.2-0.6,0.5-1.1,0.9c-2.7,0-5.7,0-8.5,0c-1.1,0.7-1,2-2,2.5c-1.9,0-3.7,0-5.6,0c-1,0.5-0.9,1.8-2,2.5c-1,0-2.1,0-3.2,0
			c-0.4,0.7-0.7,1.3-1.1,1.9c-0.2,0-0.4,0-0.6,0c-0.2,0.2-0.5,0.4-0.7,0.6c-0.8,0-1.7,0-2.5,0c-0.3,0.3-0.6,0.6-0.9,0.9
			c0.2,0.2,0.4,0.4,0.6,0.7c-0.3,0.3-0.6,0.6-0.9,0.9c-1.3,0.1-2.7-0.1-3.9,0.1c-0.4,0.5-0.8,0.8-0.9,1.4c-0.1,0.4-0.6,0.8-0.9,1.1
			c-0.7,0-1.3,0-1.7,0c-0.8,0.4-1.3,0.7-1.8,0.9c0,0.2,0,0.4,0,0.6c-0.3,0.3-0.6,0.6-0.9,0.9c-1.3,0.1-2.7-0.1-4,0.1
			c-0.1,0.6-0.1,1.1-0.2,1.4c-0.4,0.5-0.6,0.8-0.9,1.1c-1.3,0-2.6,0-3.9,0c-0.1,0.5-0.9,0.6-0.8,1.2c0,0.6-0.6,0.8-0.9,1.3
			c-1.3,0-2.6,0-3.4,0c-1,0.4-1.4,0.6-1.9,0.8c-0.1,0.4-0.2,0.7-0.4,1.1c-0.7-0.3-1,0.4-1.4,0.6c-1.1,0-2.3,0-3.4,0
			c-0.2,0-0.3,0.2-0.5,0.3c0,0.4,0,0.8,0,1.3c-0.3,0.2-0.6,0.5-1.2,0.9c-1.9,0-4,0-6.1,0c-0.4,0.4-0.7,0.7-0.8,0.8
			c-0.3,0.7,0.1,1.2-0.4,1.6c-2.1,0-4.2,0-6.2,0c-0.8,0.4-1,1.2-1.4,1.9c-0.7-0.2-0.8,0.5-1.4,0.7c-1.1,0-2.3,0-3.4,0
			c-0.4,0.2-0.6,0.4-0.9,0.6c-0.2,0.1-0.5,0.2-0.7,0.3c-0.2,0.9-0.2,0.9-1,1.6c-1.4,0-2.9,0-4.4,0c-0.1,0-0.2,0.1-0.2,0.2
			c-0.1,0.6-0.2,1.1-0.3,1.7c-0.6,0-1,0-1.4,0c-0.2,0.2-0.5,0.4-0.7,0.6c-1.2,0-2.5,0-3.7,0c-0.3,0.3-0.6,0.6-0.9,0.9
			c0,0.2,0,0.4,0,0.6c-0.3,0.3-0.6,0.6-0.9,0.9c-1.3,0.2-2.7-0.1-4,0.1c-0.1,0.7-0.2,1.2-0.3,1.8c-0.3,0-0.5,0-0.7,0
			c-0.2,0.2-0.5,0.4-0.7,0.7c-1,0-2.1,0-3.1,0c-0.1,0-0.1,0.1-0.2,0.2c-0.1,0.5-0.1,1-0.2,1.4c-0.6,0.5-1.6-0.2-2,0.7
			c-0.8,0-1.6,0.1-2.5,0.1c-0.2,0-0.3,0.2-0.5,0.3c0,0.4,0,0.8,0,1.2c-0.5,0.3-1,0.5-1.9,1c-0.5,0-1.4,0-2.3,0
			c-0.4,0.7-0.7,1.2-1.1,1.8c-0.6-0.2-0.9,0.4-1.5,0.7c-0.9,0-1.9,0-2.9,0c-0.1,0-0.1,0.1-0.2,0.2c0,0.4,0,0.8,0,1.2
			c-0.5,0.3-1,0.6-1.5,0.9c-0.5,0.3-1.3-0.3-1.6,0.5c-0.1,0.5,0.2,1-0.4,1.6c-0.6,0-1.3,0-1.9,0c-0.3,0.3-0.4,0.4-0.6,0.6
			c-0.4,0-0.8,0-1.3,0c-0.5,0.5-0.4,1.5-1.1,1.7c-1.1,0.3-1.6,1.1-2.2,1.7c-0.1,0.4-0.2,0.7-0.3,0.9c-0.5,0-0.9,0-1.3,0
			c-0.2,0.2-0.5,0.4-0.7,0.6c-0.4,0-0.8,0-1.2,0c-0.4,0.5-0.9,0.7-1,1.5c0,0.4-0.6,0.7-0.9,1c-0.6,0-1,0.1-1.3,0.1
			c-0.3,0.3-0.6,0.5-0.7,0.8c-0.2,0.3-0.3,0.7-0.4,1c-0.4,0.1-0.7,0.1-0.9,0.2c-0.5,0.6-1.2,1-1.4,1.7c0,0.3,0,0.7,0,1
			c-0.7,0.5-1.7,0.6-1.9,1.8c0.2,0.2,0.4,0.6,0.7,0.9c0,0.6,0,1.2,0,1.9c0.3,0.1,0.6,0.1,1,0.2c0.2,0.2,0.5,0.5,0.8,0.9
			c0,0.6,0.1,1.3,0.1,2c0.6,0.1,1.2,0.2,1.8,0.3c0,0.5,0,1,0,1.4c0.2,0.2,0.4,0.5,0.6,0.7c0,1,0,2.1,0,2.9c-0.4,0.7-0.6,1.2-0.9,1.7
			c-0.2,0-0.5,0-0.6,0.1c-0.4,0.3-0.7,0.7-1.1,1c0,1.8,0,3.4,0,5c-0.5,0.5-0.9,1-1.4,1.4c-0.3,0.2-0.7,0.3-1.1,0.4
			c0,0.3,0,0.5,0,0.7c-0.5,0.5-1,1-1.6,1.6c-0.6,0-1.2,0-1.7,0c-0.7,0.4-1.2,0.6-1.7,0.9c0,0.5-0.1,1-0.2,1.5
			c-0.8,0-1.5,0.1-2.1,0.1c-0.3,0.2-0.5,0.4-0.8,0.6c-0.6,0-1.2,0-1.8,0c-0.6,0.6-1.2,1.2-1.8,1.8c-0.4,0-0.8,0-1,0
			c-0.7,0.4-1.2,0.6-1.7,0.9c-0.6,0.3-0.7,1-0.9,1.5c-2.4,0.2-2.9,0.4-5.2,2.6c-1.9,0-3.7,0-5.6,0c-1,0.6-0.9,1.8-1.8,2.4
			c-0.5,0.1-1,0.1-1.5,0.2c-0.4,0.6-0.7,1.2-1,1.8c-0.2,0-0.4,0-0.6,0c-0.5,0.5-1,1-1.6,1.6c0,0.2,0,0.4,0,0.6
			c-0.5,0.4-0.8,0.9-1.5,1c-0.8,0.2-1,1.2-1.4,1.8c-0.5,0.8-1.7,0.6-2.2,1.6c0,0.1,0,0.2,0,0.3c0,0.6-0.6,0.8-0.9,1.2
			c-0.4,0-0.8,0-1.4,0c-0.8,0.8-1.7,1.7-2.5,2.5c-0.4,0-0.8,0-0.9,0c-1.3,0.6-1.1,2-2.1,2.5c-0.5,0.1-1-0.2-1.5,0.2
			c-0.1,0.5-0.1,1-0.2,1.4c-0.3,0.3-0.6,0.6-0.9,0.8c-0.6,0.1-1.1-0.2-1.5,0.3c0,0.4,0,0.8,0,1.3c-0.3,0.3-0.6,0.5-0.9,0.8
			c-2.5,0-5.1,0-7.6,0c-0.2-0.2-0.4-0.4-0.5-0.5c-2.1,0-4.1,0-6.3,0c-0.2,0.2-0.4,0.4-0.7,0.6c-0.8,0-1.7,0-2.5,0
			c-0.8,0.8-1.6,1.6-2.5,2.5c-0.8,0-1.7,0-2.5,0c-0.4,0.5-0.8,0.8-0.9,1.3c-0.1,0.5-0.7,1-1.2,1.4c-0.4,0.3-0.8,0.5-1.3,0.7
			c0,0.2,0,0.4,0,0.7c-0.4,0.2-0.6,0.8-0.9,0.9c-0.7,0-1.1,0.1-1.4,0.1c-0.7,1.4-0.8,3.1-2.7,3.3c0,3.2,0,6.3,0,9.4
			c-0.2,0.2-0.4,0.5-0.6,0.7c0,0.2,0,0.4,0,0.6c0.3,0.3,0.6,0.6,0.9,0.9c0.5,0,1,0.1,1.6,0.1c0,1.2,0,2.3,0,2.9
			c0.7,0.9,1.2,1.5,1.5,1.9c0.5,0.2,0.8,0.2,1.1,0.3c0,0.7,0,1.3,0,1.9c0.5,0.6,0.9,1.1,1.7,1.1c0.2,0.7,0.5,1.3,1.1,1.7
			c0.8,0,1.7,0,2.9,0c0.7,0.7,1.6,1.6,2.6,2.6c0.4,0,1,0,1.6,0c0.2,0.9,0.6,1.5,1.4,1.8c0.7,0.3,1.4,0.8,2.2,0.6
			c1.1,0.5,0.8,2.1,2.1,2.5c0.3,0,0.6,0,1,0c0.6,0.7,1.2,1.3,1.7,1.9c0.7,0,1.1,0,1.5,0c0.3,0.2,0.5,0.4,0.7,0.6c0.4,0,0.8,0,1.2,0
			c0.4,0.8,0.8,1.6,1.1,2.4c0.3,0.1,0.6,0.1,0.8,0.2c1.1,1,1.9,2.2,3.3,2.7c0.3,0.1,0.6,0.5,0.7,1c0.1,0.4,0.5,0.8,0.8,1.2
			c0.6,0.2,1.1-0.2,1.6,0.2c0.1,0.6,0.2,1.1,0.3,1.7c0.5,0,1,0,1.4,0c0.2,0.2,0.5,0.4,0.7,0.6c0.4,0,0.8,0,1.2,0
			c0.3,0.3,0.6,0.6,0.9,0.9c0.1,0.3,0.1,0.6,0.2,0.9c0.6,0.1,1.1,0.1,1.5,0.2c0.2,0.2,0.3,0.3,0.5,0.5c1.1,0.2,2.3-0.1,3.1,0.1
			c0.5,0.8,0.9,1.3,1.2,1.8c2.2,0,4.3,0,6.8,0c0.5-0.5,1.1-1.1,1.9-1.9c0.8,0,1.8,0,2.8,0c0.2-0.2,0.4-0.4,0.6-0.6
			c0.6,0.2,1.3-0.2,2,0.2c0.1,0.1,0.3,0.3,0.5,0.5c0.6-0.2,1.4,0.2,2-0.2c0.2-0.2,0.3-0.3,0.5-0.4c1.5,0,2.9,0,4.4,0
			c0.3,0.2,0.5,0.4,0.7,0.6c0.5,0,0.9,0,1.2,0c0.3-0.2,0.5-0.4,0.8-0.6c0.6,0,1.2,0.1,1.8,0.1c0.6,0.9,1.5,0.4,2.3,0.5
			c0.6,0.7,1.2,1.3,1.7,1.9c0.9,0,1.5,0,2.1,0c0.3,0.2,0.5,0.4,0.6,0.6c1,0.5,1.5-0.5,2.4-0.6c0.2,0.2,0.4,0.4,0.8,0.7
			c1.4,0,2.9,0,4.2,0c0.5,0.8,0.9,1.3,1.2,1.8c1.8,0,3.5,0,5.1,0c0.2-0.2,0.5-0.4,0.7-0.6c0.5-0.1,1.1,0.2,1.5-0.2
			c0.1-0.3,0.1-0.6,0.2-0.9c0.8-0.1,1.6-0.3,2.4,0.1c0,0.2,0,0.5,0,0.7c0.3,0.3,0.6,0.6,0.9,0.9c0.5,0,0.9,0,1.5,0
			c0.1-0.6,0.2-1.2,0.3-1.8c0.5,0,1,0,1.3,0c1-0.8,1.3-1.9,1.8-3c1.8-0.2,1.7-1.9,2.8-3.4c0.2-0.2,0.8-0.8,1.4-1.4
			c0.1-1.5,0-3.1,0.1-4.6c0.7-0.4,1.3-0.8,1.7-1c0.2-0.4,0.2-0.7,0.4-0.9c0.6-1,1.1-2.1,1-3.4c0-0.1,0.2-0.3,0.3-0.5
			c0.5-0.1,1,0.2,1.5-0.2c0-0.2,0-0.4,0.1-0.5c-0.3-0.4-0.6-0.8-0.9-1.1c-0.8,0-1.4,0-1.8,0c-0.5-0.3-0.9-0.5-1.2-0.7
			c-0.5,0.4-0.8,0.7-1.2,1c0,0.8,0,1.4,0,1.7c-0.6,0.7-1.1,1.3-1.3,1.6c-0.6,0.2-0.8,0.3-1.1,0.4c0,0.7,0,1.3,0,2
			c-0.3,0.3-0.6,0.5-1,0.8c-1,0-2.1,0-3.2,0c-0.3-0.5-0.3-0.8,0-1.1c0.3-0.1,0.6-0.1,0.8-0.2c0.5-0.6,1.2-1,1.4-1.6
			c0-0.5,0.1-0.9,0.1-1.3c0.9-0.2,1.5-0.5,1.8-1.4c0.3-0.8,0.8-1.4,1.7-2c0.6-0.4,0.5-1.3,1.1-1.7c0.6,0,1.2,0,1.8,0
			c0.3-0.5,0.5-1.1,0.9-1.8c0-0.2,0-0.6,0-1c0.4-0.8,1.2-0.9,1.9-1.4c0-0.6,0-1.2,0-1.6c0.4-0.7,0.6-1.3,0.9-1.8c0.4,0,0.8,0,1.3,0
			c0.3-0.3,0.6-0.6,0.9-0.9c0-0.4,0-0.8,0-1.4c0.6-0.5,1.3-1.1,1.9-1.6c0-0.8,0-1.5,0-1.8c0.4-0.7,0.7-1.3,0.9-1.8c1,0,2.1,0,3.1,0
			c0.3-0.3,0.6-0.6,0.9-0.9c0-0.2,0-0.4,0-0.6c0.6-0.3,1.2-0.7,1.9-1c0.7,0,1.5,0,2.3,0c0.4-0.9,0.7-1.7,1.2-2.4
			c0.5-0.7,1.2-1.4,2-1.9c0.7-0.4,1.6-0.8,2.7-0.7c-0.4-1,0.4-1.3,0.9-1.8c0.2,0,0.4,0,0.7,0c0.6-0.6,1.2-1.1,1.7-1.8
			c0.6-0.7,1.5-0.9,2.3-1.4c0.5,0,1,0,1.6,0c0.2-0.2,0.4-0.4,0.7-0.6c0.4,0,0.8,0,1.3,0c0.6-1.2,1.2-2.4,1.8-3.7
			c0.6-0.3,1.5,0.2,1.9-0.8c1.1,0,2.2,0,3.5,0c0.8-0.8,1.6-1.6,2.4-2.5c1,0,2,0,3.1,0c0.1-0.3,0.1-0.6,0.2-1c0.4-0.4,1-0.9,1.5-1.5
			c0.4,0,0.8,0,1.2,0c0.7-0.4,1-1.2,1.4-1.9c0.6,0,1.2,0,1.8,0c0.3-0.2,0.5-0.4,0.7-0.6c0.8-0.1,1.5,0.3,2.1-0.3c0-0.2,0-0.4,0-0.6
			c0.6-0.3,1.2-0.6,1.8-1c0.6-0.1,1.2,0.1,1.8-0.2c0.3-0.4,0.7-0.6,0.8-1.2c0.1-0.4,0.6-0.8,0.9-1.1c1.1,0,2.2,0,3.2,0
			c0.3-0.3,0.6-0.6,0.9-0.9c0-0.2,0-0.4,0-0.6c0.3-0.3,0.6-0.6,0.9-0.9c0.5,0,1-0.1,1.5-0.1c0.1-0.6,0.1-1.1,0.2-1.5
			c0.3-0.4,0.6-0.7,0.9-1c1.3,0,2.6,0,3.8,0c0.2-0.2,0.5-0.4,0.7-0.6c0.4,0,0.8,0,1.3,0c0.1-0.3,0.2-0.6,0.3-1
			c0.4-0.4,0.9-0.9,1.7-1.5c0.7,0,1.6,0,2,0c1.4-0.6,1.2-1.7,2-2.3c0.7-0.6,1.3-1.3,2-2c0.4,0,0.8,0,1.4,0c-0.1-1,1-0.4,1.4-0.9
			c0-0.5,0-0.9,0-1.4c-0.4-0.3-0.7-0.6-0.9-0.8c-0.9,0-1.8,0-2.3,0c-0.7,0.4-1.3,0.7-1.8,0.9c0.3,0.8-0.5,1-0.9,1.5
			c-1.2,0-2.5,0-3.7,0c-0.1,0-0.2-0.1-0.2-0.2c-0.1-1.4-0.1-1.4,0.2-1.7c0.6,0,1.3,0,1.9,0c0.2-0.2,0.5-0.4,0.7-0.6
			c0.4,0,0.8,0,1.2,0c0.5-0.6,0.5-1.6,1.3-1.8c0.5,0,0.9,0,1.3-0.1c0.2-0.5,0.8-0.7,0.8-1.3c0.1-0.4,0.6-0.8,0.8-1.2
			c1.3,0,2.6,0,3.8,0c0.2-0.2,0.5-0.4,0.7-0.7c1,0.4,2,0.7,2.7,1.6c-0.2,0.2-0.3,0.3-0.6,0.6c0.2,0.8-0.3,1.8,0.3,2.8
			c0.3-0.1,0.6-0.1,0.9-0.1c0.1-0.7,0.2-1.2,0.3-1.8c0.8,0,1.4,0,2,0c0.5-0.5,1-1,1.6-1.6c0-0.5,0-1,0-1.6c-1.1,0-2.3,0-3.4,0
			c-0.1,0-0.1-0.1-0.2-0.2c-0.4-0.8,0.3-1.1,0.6-1.5c0.7-0.4,1.4,0,2-0.2c0.4,0.4,0.7,0.7,1,1c0,0.3,0,0.6,0,0.9c2.1,0,4.3,0,6.4,0
			c0.2,0,0.3-0.2,0.5-0.3c0-0.4,0-0.8,0-1.3c-0.3-0.1-0.6-0.1-0.8-0.2c-0.3-0.2-0.6-0.4-0.9-0.6c-0.6,0-1.2,0-1.7,0
			c-0.3-0.3-0.8-0.5-0.9-1.1c0.3-0.3,0.6-0.6,0.8-0.7c1.4,0,2.6,0,3.9,0c0.1,0,0.1,0.1,0.2,0.2c0.1,0.3,0.1,0.6,0.2,0.9
			c0.4,0,0.6,0,0.9,0c0.3-0.8,0.6-1.4,0.9-2c-0.3-0.4-0.5-0.6-0.5-0.7c0.3-0.4,0.6-0.7,0.8-1c1.6,0,3,0,4.4,0c1-0.6,0.9-1.9,1.9-2.5
			c1.7,0,3.4,0,5.2,0c0.1,0,0.2,0,0.3,0c0.1,0,0.2-0.1,0.4-0.3c0.3-0.4,0.6-1,1-1.6c0.2,0,0.4,0,0.6,0c0.3-0.3,0.6-0.6,0.9-0.9
			c0-0.4,0-0.8,0-1.3c0.3-0.2,0.6-0.5,1.1-0.9c1.1,0,2.4,0,3.3,0c0.8-0.4,1.3-0.7,1.8-0.9c-0.2-0.3-0.4-0.5-0.5-0.7
			c0.6-0.2,1.2-0.4,1.7-0.9c1.6,0,3.3,0,4.9,0c0.9-0.6,0.9-1.9,1.9-2.5c0.6,0,1.2,0,1.8,0c0.7-0.5,1.1-1.2,1.4-1.9
			c0.6,0.2,0.9-0.4,1.4-0.7c1.2,0,2.4,0,3.5,0c0.3-0.2,0.6-0.4,0.8-0.6c0.2-0.1,0.5-0.2,0.8-0.3c0-0.3,0-0.5,0-0.7
			c0.5-0.3,1-0.5,1.8-0.9c1.1-0.1,2.4,0.1,3.7-0.1c0.4-0.7,0.7-1.2,1.1-1.8c0.6,0.2,0.9-0.5,1.4-0.7c0.5,0,1.1,0,1.7,0
			c0.9-0.6,0.9-1.9,1.9-2.5c1.2,0,2.5,0,3.6,0c1.2-0.2,0.6-2.1,2.1-1.9c0.9-1.1,2.1-0.3,3.2-0.7c0.4-0.9,1.3-0.4,1.9-0.7
			c0.2-0.7,0.4-1.4,1.1-1.8c2.1,0,4.1,0,6.2,0c0.2-0.2,0.5-0.4,0.7-0.6c0.5-0.1,1,0.2,1.5-0.3c-0.2-0.2-0.4-0.4-0.5-0.6
			c0.6-0.3,1.1-0.6,1.7-1c1,0.6,1.4-0.8,2.3-0.6c0.2,0.2,0.4,0.4,0.7,0.6c0.6,0,1.2,0,1.9,0c0.2-0.2,0.4-0.4,0.7-0.6
			c0.4,0,0.8,0,1.2,0c0.4-0.6,0.5-1.5,1.5-1.9c0.3,0,0.7,0,1,0c1-0.6,0.9-1.9,1.9-2.5c0.4,0,0.8,0,1.2,0c0.8-0.4,1-1.2,1.4-1.9
			c1.2,0,2.5,0,3.7,0c0.2-0.2,0.3-0.3,0.6-0.6c1,0,2.1,0,2.8,0c0.9-0.5,1.4-0.7,1.8-0.9c0.1-0.4,0.2-0.6,0.3-0.9
			c0.8,0,1.5-0.1,2.1-0.1c0.3-0.3,0.4-0.4,0.6-0.6c0.6,0,1.2,0,1.9,0c0.1,0,0.2-0.1,0.2-0.2c0.2-1.4,0.2-1.4,0.5-1.7
			c0.4,0,0.8,0,1.2,0c0.3-0.2,0.5-0.4,0.7-0.6c1.7,0,3.3,0,4.9,0c0.4-0.3,0.7-0.6,0.9-0.8c0.1-0.4,0.2-0.7,0.2-1.1
			c1.4,0,2.7,0,3.9,0c0.3-0.3,0.4-0.4,0.6-0.6c1.4,0,2.9,0,4.4,0c0.2-0.2,0.5-0.4,0.6-0.6c0.3-0.1,0.6-0.1,0.9-0.2
			c0.1-0.4,0.2-0.7,0.2-0.9c0.6-0.2,1.1-0.4,1.5-0.8c3.7,0,7.3,0,11,0c0.2,0,0.3-0.2,0.5-0.3c0-0.4,0-0.8,0-1.3c0.7-0.3,1.4-0.7,2-1
			c0.3,0.3,0.5,0.5,0.8,0.7c1.3,0,2.6,0,4,0c0.2,0,0.4-0.1,0.6-0.2c0.1-0.1,0.3-0.3,0.4-0.4c2.3,0,4.6,0,6.9,0c0.6-0.4,1-1,1.1-1.8
			c2.3,0,4.7,0,7,0c0.3-0.3,0.4-0.4,0.6-0.6c6.1,0,12.2,0,18.3,0c0.2,0.2,0.4,0.4,0.6,0.6c1.6,0,3.4,0,4.9,0
			c0.5,0.8,0.9,1.3,1.2,1.8c0.6,0,1,0,1.4,0c0.3-0.3,0.6-0.6,0.9-0.9c0.1-0.3,0.1-0.6,0.2-1c0.4,0.1,0.8,0.1,1.1,0.2
			c0,0.4,0,0.6,0,0.8c0.3,0.3,0.6,0.6,0.9,0.9c1.5,0.1,3-0.1,4.2,0c1.4,0.7,1.1,2.1,2.3,2.5c0.9,0,2,0,3,0c0.3,0.3,0.6,0.6,0.9,0.9
			c0,0.2,0,0.4,0,0.6c0.6,0.3,1.2,0.6,1.8,0.9c0.6,0.2,1.2-0.2,1.8,0.1c0.4,0.8,0.7,1.6,1.1,2.4c0.5,0,0.9,0,1.3,0
			c0.3,0.3,0.6,0.6,0.9,0.9c0,0.5,0,1,0.1,1.5c0.8,0,1.4,0.4,1.6,0.9c0.3,0.9,1,1.5,1.6,2.2c0.7,0.7,0.8,1.9,1.8,2.3
			c0,1.5,0,3,0,4.7c0.3,0.2,0.8,0.5,1.3,0.9c-0.5,0.5-0.9,0.9-1.3,1.3c0,1.4,0,2.9,0,4.4c-1.6,1.1-2.1,3.2-3.7,4.2
			c0,0.3,0,0.5-0.1,0.7c-0.6,0.3-1.1,0.8-1.7,0.9c-0.6,0.1-0.9,0.5-1.2,0.8c-0.3,0.4-0.2,0.9-0.7,1.3c-0.4,0.3-0.7,0.6-0.8,1.2
			c-0.1,0.5-0.6,1-1.3,1.1c-0.4,0.1-0.8,0.6-1,0.7c-0.3,0.7,0.1,1.3-0.4,1.7c-0.5,0-1,0.1-1.4,0.1c-0.2,0.2-0.4,0.4-0.5,0.5
			c-0.4,0-0.8,0-1.3,0c-0.6,0.8-1.2,1.7-1.8,2.5c-0.7,0.1-1.2-0.2-1.2-0.2c-0.6,1.1-0.1,1.6-0.6,2.1c-0.5,0.1-1,0.1-1.4,0.2
			c-0.3,0.3-0.6,0.6-0.7,0.8c-0.2,0.7,0.1,1.2-0.4,1.6c-0.4,0-0.8,0-1.3,0c-0.3,0.3-0.7,0.7-1,1.1c-0.3,0.4-0.6,1-0.9,1.5
			c-0.4,0-0.8,0-1.3,0c-0.8,0.8-1.6,1.7-2.4,2.5c-0.7,0-1.3,0-1.9,0c-0.3,0.3-0.6,0.6-0.9,0.9c-0.1,0.5,0.2,1-0.2,1.5
			c-1.6-0.1-2.6,1.2-4.1,1.5c-0.1,0.3-0.1,0.6-0.2,0.8c-2.6,1.1-2.6,1.1-3.3,2.8c-1.4-0.5-2.5,0.7-3.8,0.7c-0.4,0.7-0.8,1.2-1.1,1.7
			c-0.5,0-1,0-1.4,0c-0.3,0.4-0.8,0.7-0.8,1.2c-0.1,0.6-0.6,0.8-0.9,1.3c-1.1,0-2.2,0-3.1,0c-1.1,0.7-1,2-2,2.5c-1,0-2.1,0-3.1,0
			c-0.2,0.2-0.5,0.4-0.7,0.6c-0.6,0-1.2,0-2.1,0c0.4,0.9-0.4,1.2-0.9,1.9c-0.8,0-1.7,0-2.1,0c-1,0.4-1.4,0.6-1.9,0.8
			c-0.1,0.6-0.3,1.3-0.9,1.5c-1,0.3-1.7,1.1-2.3,1.8c-0.1,0.4-0.1,0.6-0.2,1c-1.4,0-2.7,0-4,0c-0.4,0.9-0.8,1.7-1.1,2.5
			c-0.7,0-1.3,0-1.9,0c-0.2,0.2-0.5,0.4-0.7,0.6c-0.4,0-0.8,0-1.5,0c0.3,1-0.5,1.4-1.2,1.9c-0.3,0-0.7,0-1.1,0
			c-0.4,0.8-0.7,1.6-1.1,2.5c-0.9,0-1.8,0-2.6,0c-0.3,0.3-0.4,0.4-0.6,0.6c-0.2,0-0.4,0-0.6,0c-0.3,0.7-0.6,1.5-1.4,1.9
			c-0.5,0-1.2,0-1.7,0c-0.6,0.6-1.2,1.2-1.6,1.6c-0.7,0.4-1.2,0.6-1.8,0.9c-0.4,0.1-1.2-0.3-1.8,0.2c-0.1,0.4-0.2,0.7-0.3,1.1
			c-0.5,0-0.9,0-1.3,0c-0.5,0.6-0.5,1.6-1.3,1.8c-0.5,0-0.9,0-1.3,0.1c-0.1,0.3-0.1,0.6-0.2,1c-0.3,0.3-0.5,0.5-0.9,0.9
			c-0.4,0-0.8,0-1.3,0c-0.4,0.8-0.9,1.7-1.3,2.5c-1.2,0-2.4,0-3.5,0c-0.2,0-0.3,0.2-0.5,0.3c0,0.5-0.1,1-0.1,1.4
			c-0.3,0.3-0.6,0.6-0.9,0.9c-1.2,0-2.5,0-4,0c0,0.6,0,1.1-0.1,1.6c-0.3,0.3-0.6,0.6-0.9,0.9c-0.8,0-1.7,0-2.5,0
			c-0.2,0.2-0.5,0.4-0.7,0.7c-0.2,0-0.4,0-0.6,0c-0.1,0-0.1,0.1-0.2,0.2c0,0.1-0.1,0.2-0.1,0.3c0,0.2-0.1,0.4-0.2,0.7
			c-1.3,0.2-2.6,0-4,0.1c-0.9,0.6-0.9,1.8-1.8,2.4c-0.5,0-1,0.1-1.4,0.1c-0.2,0.2-0.4,0.4-0.5,0.5c-0.4,0-0.8,0-1.4,0
			c-0.3,0.5-0.7,1.1-1.2,1.8c-0.3,0.2-0.9,0.4-1.5,0.8c-0.4,0-1,0-1.7,0c-0.8,0.8-1.6,1.7-2.4,2.5c-0.7,0-1.3,0-2.4,0
			c-0.3,0.5-0.9,1.2-1.4,1.9c-0.8,0-1.4,0-2,0c-0.3,0.4-0.6,0.7-0.8,0.9c-0.1,0.6,0.2,1.2-0.3,1.5c-0.6,0-1.3,0-1.9,0
			c-0.2,0.2-0.5,0.4-0.7,0.6c-0.4,0-0.8,0-1.2,0c-0.5,0.6-0.5,1.6-1.4,1.9c-0.3,0-0.6,0-0.9,0c-0.5,0.1-0.7,0.8-1.3,0.6
			c-0.4,0.6-0.9,1.3-1.2,1.9c-0.5,0-0.9,0-1.2,0c-0.7,0.4-1.2,0.6-1.7,0.9c0.1,0.8-0.5,1.2-1.1,1.6c-0.4,0-0.8,0-0.9,0
			c-1.3,0.6-1.1,2-2.2,2.5c-1,0-2.1,0-3.1,0c-0.2,0.2-0.5,0.4-0.7,0.6c-0.4,0-0.8,0-1.2,0c-0.5,0.6-0.5,1.6-1.4,1.9
			c-0.8,0.3-1.6,0.7-2.3,0.7c-0.5,0.7-0.8,1.3-1.2,1.8c-0.5,0-1,0-1.2,0c-0.7,0.4-1.2,0.6-1.7,0.9c0,0.2,0,0.4,0,0.7
			c-0.3,0.2-0.6,0.5-1.1,0.9c-0.6,0-1.5,0-2.3,0c-1.1,0.7-1,2-2,2.5c-1,0-2,0-3.1,0c-0.1,0-0.1,0.1-0.2,0.2c-0.1,0.5-0.1,1-0.2,1.4
			c-0.3,0.3-0.6,0.6-0.9,0.9c-0.4,0-0.8,0-1.1,0c-0.5,0.4-0.8,0.6-0.9,0.8c-0.1,0.5-0.2,0.8-0.2,0.9c-0.6,0.3-1,0.5-1.6,0.8
			c-0.4,0-1,0-1.7,0c-0.6,0.8-1.2,1.7-1.8,2.6c-0.8,0-1.4,0-1.9,0c-1,0.6-0.9,1.9-1.9,2.5c-0.4,0-0.8,0-1.3,0
			c-0.3,0.5-0.9,0.7-1,1.5c0,0.4-0.6,0.7-0.9,1.1c-0.9,0-1.8,0-2.5,0c-0.9,0.6-0.8,1.8-1.6,2.2c-0.8,0.4-1.6,0.7-2.4,1.1
			c0,0.5-0.1,1-0.1,1.6c-1.4,0-2.7,0-3.9,0c-0.5,0.4-0.8,0.7-1.1,1c0,0.5,0,0.9,0,1.4c-1.8,0-1.7,2-2.9,2.7c-0.6,0-1.2,0-1.8,0
			c-1,0.6-0.9,1.8-1.8,2.4c-1.1,0.2-2.3-0.1-3.4,0.2c-0.1,0.5-0.1,1-0.2,1.5c-0.3,0.3-0.6,0.6-0.8,0.9c-0.5,0.1-1.1-0.2-1.5,0.3
			c-0.1,0.5-0.1,1-0.2,1.4c-0.3,0.3-0.6,0.6-0.9,0.9c-0.4,0-0.8,0-1.2,0c-0.4,0.5-0.9,0.8-1,1.5c-0.1,0.7-1,0.9-1.7,1.1
			c-0.1,0.5-0.1,1-0.2,1.5c-0.3,0.3-0.6,0.6-0.9,0.9c-0.4,0-0.8,0-1.2,0c-0.9,0.6-0.9,1.9-1.8,2.4c-0.7,0-1.4,0.1-2.1,0.1
			c-0.1,0.6-0.1,1.1-0.2,1.6c-0.4,0.4-0.7,0.7-1.1,1.1c-0.1,0.5-0.1,1-0.2,1.4c-0.4,0.3-0.7,0.6-0.9,0.8c-0.6,0.1-1.2-0.2-1.5,0.4
			c0,0.4,0,0.8,0,1.2c-0.8,0.4-1.7,0.9-2.6,1.3c0.6,1.4-0.8,2.5-0.7,3.8c0,0.1-0.1,0.1-0.2,0.2c-0.4,0-0.8,0-1.3,0
			c-0.2,1.3-1.5,0.1-2,0.9c0,0.4,0,0.8,0,1.2c-0.2,0.2-0.4,0.5-0.6,0.7c0,0.6,0,1.2,0,1.9c-0.5,0.3-1,0.5-1.9,1c-0.7,0-1.8,0-3,0
			c0,0.8,0,1.5,0,1.7c-1.3,1.3-2.2,2.2-3.3,3.3c-0.2,0-0.6,0-0.9,0.1c-0.5,0.7,0.1,1.6-0.7,2c-0.1,0.8-0.2,1.6-0.3,2.3
			c-0.6,0-1,0-1.4,0c-0.3,0.3-0.6,0.6-0.9,0.9c0,0.4,0,0.8,0,1.2c-0.5,0.7-1.2,1.1-1.9,1.4c0,0.4,0,0.8,0,1.2
			c-0.3,0.3-0.6,0.6-0.9,0.9c-0.4,0-0.8,0-1.3,0c-0.3,0.3-0.5,0.6-1,1.1c0,1.1,0,2.5,0,3.8c-0.7,0.1-1.3,0.2-1.9,0.3
			c0,0.8,0,1.5,0,2.1c-0.3,0.3-0.4,0.4-0.6,0.6c0,0.4,0,0.8,0,1.2c-0.5,1-1.8,0.9-2.5,1.9c0,0.7,0,1.7,0,2.6
			c-0.5,0.2-0.7,0.8-1.3,0.9c-0.4,0.1-0.8,0.6-1.2,0.8c-0.1,0.8,0.2,1.5-0.2,2.2c-0.5,0.1-1,0.1-1.6,0.2c0,0.7-0.1,1.4-0.1,2.1
			c-0.2,0.2-0.4,0.5-0.6,0.7c-0.1,0.6,0.2,1.1-0.3,1.5c-0.4,0-0.8,0-1.3,0c-0.3,0.3-0.6,0.6-1,1c0,1,0,2.1,0,3.3
			c-0.6,0.1-1.1,0.1-1.7,0.2c-0.3,0.4-0.1,0.9-0.5,1.3c-0.4,0.4-0.3,1.2-0.9,1.5c-0.4,0.2-0.8,0.4-1.2,0.6c0,0.7,0,1.3,0,1.8
			c-0.2,0.3-0.4,0.5-0.6,0.8c0,0.8,0,1.6,0,2.5c-0.6,0.1-1.2,0.2-1.8,0.3c0,1.8,0,3.4,0,5.1c-0.2,0.2-0.4,0.5-0.6,0.7
			c0,0.4,0,0.8,0,1.2c-0.4,0.8-1.2,1-1.9,1.4c0,1.2,0,2.5,0,3.7c-0.2,0.2-0.3,0.3-0.6,0.6c0,1.1,0,2.3,0,3.6c0,0.2-0.2,0.3-0.3,0.5
			c-0.6,0-1.3,0-1.9,0c-0.3,0.4-0.8,0.6-1,1.5c0,0.2,0.6,0.4,0.6,0.7c0,0.6,0.3,0.9,0.7,1.3c0,1.1,0,2.1,0,3.1
			c-0.3,0.3-0.6,0.6-0.9,0.9c-0.5,0-1,0-1.6,0.1c0,1.1,0,2,0,2.8c-0.3,0.3-0.4,0.4-0.6,0.6c0,0.5,0,1,0,1.3c0.3,0.4,0.4,0.6,0.6,0.8
			c0,0.5-0.1,0.9-0.1,1.1c-0.3,0.3-0.4,0.4-0.6,0.6c0,0.4,0,0.8,0,1.2c-0.1,0.5,0.2,1-0.2,1.5c-0.5,0.1-1,0.1-1.6,0.2
			c-0.1,2.2,0,4.3-0.1,6.5c-0.3,0.3-0.6,0.6-0.9,0.9c-0.5,0.1-1-0.2-1.6,0.3c0,1.1,0,2.4,0,3.6c0,0.2,0.2,0.3,0.3,0.5
			c0.5,0.1,1-0.2,1.5,0.2c0,0.7,0,1.4,0,2.1c-0.6,0.1-1.2,0.2-1.8,0.3c0,1.8,0,3.5,0,5.1c0,0.1,0.1,0.2,0.2,0.2
			c0.6,0.1,1.1,0.2,1.7,0.3c0,2.9,0,5.8,0,8.6c0,0.2-0.1,0.4-0.2,0.6c-0.5,0.1-1,0.1-1.7,0.2c0.6,0.8-0.3,1-0.5,1.5
			c0,1.8,0,3.4,0,4.8c0.4,0.8,0.7,1.3,0.9,1.8c0.4,0,0.8,0,1.2,0c0.1,0,0.1,0.1,0.2,0.2c0,1.3,0,2.7,0,4c-0.6,0.1-1.2,0.2-1.8,0.3
			c0,1-0.1,2,0,2.8c0.7,0.1,1.3,0.2,1.8,0.4c0,0.5,0,1,0,1.4c0.2,0.2,0.4,0.5,0.6,0.7c0,1.8,0,3.6,0,5.3c0,0.2,0.2,0.3,0.3,0.5
			c0.5,0,1,0.1,1.6,0.1c0,1.1,0,2.1,0,3.2c0,0.2-0.2,0.3-0.3,0.5c-0.5,0.1-1-0.2-1.5,0.2c-0.1,0.8-0.3,1.6,0.1,2.1
			c0.6,0.3,1.2-0.1,1.6,0.4c0.2,0.6-0.2,1.3,0.4,1.7c0.5,0.4,0,1.1,0.3,1.4c0.4,0.5,0.5,1.1,0.8,1.6c0.3,0.1,0.6,0.2,1,0.3
			c0.1,1.7,0,3.5,0.1,5.2c0.2,0.2,0.3,0.3,0.6,0.6c0,0.9,0,1.9,0,2.9c0,0.2,0.2,0.3,0.3,0.5c0.5,0.1,1-0.2,1.6,0.3
			c0,0.6,0,1.3,0,1.9c0.3,0.3,0.4,0.4,0.7,0.7c0,0.8,0,1.7,0,2.6c0.7,0.1,1.3,0.2,1.8,0.3c0,0.3,0,0.5,0,0.7
			c0.2,0.2,0.4,0.5,0.6,0.7c0,0.6,0,1.2,0,1.8c0.4,0.7,1.1,0.9,1.9,1.2c0,0.9,0,1.8,0,2.6c0.3,0.3,0.4,0.4,0.6,0.6
			c0.4,0.7-0.3,1.7,0.5,2.3c0.4,0,0.8,0,1.2,0c0.3,0.5,0.5,1.1,0.9,1.8c0,0.2,0,0.6,0,1c0.7,0.3,1.5,0.6,1.9,1.4
			c0,0.6-0.1,1.2,0.5,1.7c0.3,0.3,0.3,1.1,0.4,1.7c0.5,0,1,0,1.4,0c0.1,0,0.1,0.1,0.3,0.3c0,1.2,0,2.5,0,3.8c0.4,0.4,0.7,0.6,1,0.9
			c0.4,0,0.8,0,1.1,0c0.4,0.4,0.8,0.6,1.1,0.9c0,1.1,0,2.1,0,3.2c0,0.1,0.1,0.1,0.2,0.2c0.5,0.1,1,0.1,1.6,0.2
			c0,0.8,0.1,1.5,0.1,2.1c0.6,0.9,1.9,0.9,2.5,2c0,0.5,0,1.2,0,1.8c0.3,0.3,0.4,0.4,0.6,0.6c0.1,0.5-0.2,1,0.2,1.5
			c0.5,0.1,1,0.1,1.6,0.2c0,0.5,0.1,1,0.1,1.5c0.3,0.3,0.6,0.6,0.9,0.9c0.5,0.1,1-0.2,1.5,0.2c0.1,0.5,0.1,1,0.2,1.4
			c0.3,0.3,0.6,0.6,0.8,0.7c0.7,0.3,1.2-0.1,1.7,0.4c0,0.4,0,0.8,0,0.9c0.4,0.6,0.7,1,0.8,1.2c0.7,0,1.1,0.1,1.5,0.1
			c0.4,0.4,0.6,0.7,0.8,0.8c0.2,0.7-0.1,1.2,0.4,1.6c0.5,0.1,1-0.2,1.5,0.2c0.1,0.7,0.1,1.4,0.2,2.1c0.9,0.4,0.2,1.3,0.7,2
			c0.4,0,0.9,0.1,1.2,0.1c0.7,0.6,1.2,1.1,1.6,1.4c0.2,0.5,0.2,0.8,0.3,1c0.6,0,1.1,0.1,1.4,0.1c0.3,0.3,0.4,0.4,0.6,0.6
			c0.5,0.1,1-0.2,1.5,0.2c0.1,0.5,0.1,1,0.2,1.4c0.3,0.3,0.6,0.6,0.9,0.8c0.6,0.1,1.1-0.2,1.5,0.3c0,0.4,0,0.8,0,1.3
			c0.3,0.3,0.6,0.5,1,0.9c0.4,0,0.9,0.1,1.5,0.2c0.3,0.6,0.7,1.2,1,1.8c0.4,0,0.8,0,1.2,0c0.2,0.2,0.5,0.4,0.7,0.6
			c0.7,0.1,1.5-0.3,2.1,0.3c0,0.5,0.1,1,0.1,1.4c2.6,1.1,2.6,1.1,3.4,2.7c0.4,0,0.8,0,1.2,0c0.2,0.2,0.5,0.4,0.7,0.6
			c0.4,0,0.8,0,1.2,0c0.4,0.5,0.9,0.7,1,1.5c0,0.4,0.6,0.7,0.9,1.1c0.7,0,1.3,0,2,0c0.3,0.6,0.7,1.2,1,1.8c0.4,0,0.8,0,1.2,0
			c0.2,0.2,0.5,0.4,0.7,0.6c0.5,0.1,1-0.2,1.5,0.2c0.1,0.5,0.1,1,0.2,1.5c1.3,0.6,3,0.8,3.2,2.7c1.3,0,2.5,0,3.8,0
			c0.1,0,0.2-0.1,0.3-0.2c0-0.4,0-0.9,0-1.4c-0.3-0.3-0.6-0.7-0.8-0.9c-0.6-0.1-1.1,0.2-1.5-0.3c-0.1-0.5-0.1-1-0.2-1.4
			c-0.3-0.3-0.6-0.6-0.9-0.9c-0.4,0-0.8,0-1.2,0c-0.4-0.7-0.4-1.7-1.4-1.8c-0.7-0.1-1-0.6-1.3-1.1c-0.1-0.5,0.2-1.1-0.4-1.4
			c-0.4,0-0.8,0-1.2,0c-0.6-0.7-1.2-1.3-2.2-1.6c0.1-0.3,0.1-0.6,0.2-0.8c1.2,0,2.3,0,3.5,0c0.4,0.6,0.7,1.2,0.9,1.5
			c0.6,0.4,1.1,0.6,1.6,0.9c0.3,0,0.7,0,1.1,0c1,0.6,0.9,1.8,1.8,2.4c0.5,0.1,1,0.1,1.5,0.2c0,0.5,0.1,1,0.1,1.5
			c0.3,0.3,0.6,0.6,0.9,0.9c0.4,0,0.8,0,1.3,0c0.5,0.5,1,1.1,1.6,1.5c0.7,0.4,1.5,0.6,1.9,1.4c0.1,0.5-0.2,1,0.3,1.5
			c0.4,0,0.8,0,1.2,0c0.2,0.2,0.5,0.4,0.7,0.6c0.4,0,0.8,0,1.2,0c0.6,0.4,0.9,1,1.2,1.9c1.2-0.4,1.9,0.6,2.9,0.9c0,0.2,0,0.4,0,0.6
			c0.3,0.3,0.6,0.6,0.9,0.9c0.4,0,0.8,0,1.2,0c0.2,0.2,0.5,0.4,0.7,0.7c1.2,0,2.5,0,3.7,0c0.1,0,0.1,0.1,0.2,0.2
			c0.1,0.5,0.1,1,0.2,1.6c0.5,0,1,0.1,1.5,0.1c0.3,0.3,0.6,0.6,0.9,0.9c0,0.2,0,0.4,0,0.6c0.5,0.5,1,1,1.6,1.6c1,0,2.1,0,3.1,0
			c0.8,0.4,1,1.2,1.4,1.9c0.8,0,1.6,0,2.4,0c0.3,0.2,0.5,0.4,0.9,0.7c0.4-0.2,0.8-0.5,1.3-0.8c0.5,0,1.1,0,1.8,0
			c0.4-0.6,0.7-1.2,1-1.8c0.4,0,0.8,0,1.4,0c0.4,0.6,0.8,1.2,1.2,1.8c0.4,0,0.8,0,1.2,0c0.5-1.1,0.5-1.1,1.4-1.8c0.3,0,0.6,0,1,0
			c0.9,1.3,2.7,1.5,3.9,2.5c0.6,0,1.2,0,1.8,0c0.6,0.6,1.2,1.2,1.8,1.8c1.2,0,2.5,0,3.6,0c0.5,0.3,0.9,0.5,1.6,0.9
			c0,0.1,0.1,0.5,0.3,0.8c0.2,0.3,0.6,0.6,0.8,0.8c2.2,0,4.3,0,6.3,0c0.3-0.5,0.9-0.6,0.9-1.5c-0.1-0.3-0.6-0.5-0.9-0.9
			c-1.2,0-2.5,0-3.8,0c-0.2-0.3-0.5-0.6-0.9-1c0-0.4-0.1-0.9-0.2-1.5c-0.9,0-1.8,0-2.3,0c-0.9-0.5-1.4-0.7-2-1
			c0.1-0.3,0.1-0.6,0.2-0.9c2.9,0,5.7,0,8.5,0c0.3,0.6,0.7,1.2,1,1.8c2.3,0,4.6,0,6.9,0c0.1,0,0.2,0.1,0.2,0.2
			c0.1,0.1,0.3,0.3,0.5,0.4c1.5,0,2.9,0,4.4,0c0.7,0.4,0.9,1.1,1.1,1.9c3.2,0,6.4,0,9.4,0c0.4,0.3,0.6,0.5,0.7,0.6
			c1.4,0,2.6,0,3.8,0c0.2-0.2,0.4-0.4,0.6-0.6c1.3,0,2.6,0,4,0c0.2,0,0.4,0.1,0.6,0.2c0.1,0.1,0.3,0.3,0.5,0.5
			c0.9-0.2,1.8,0.1,2.5-0.1c0.3-0.3,0.5-0.4,0.6-0.6c2.9,0,5.8,0,8.7,0c0.7-0.4,0.9-1.1,1.1-1.8c1.1,0,2.2,0,3.3,0
			c0.6,0.6,1.2,1.2,1.8,1.8c2,0,4,0,5.9,0c0.2,0,0.4-0.1,0.5-0.2c0.2-0.8,0.5-1.5,1.2-1.7c0.5,0.5,0.9,0.9,1,1c1.2,0.3,2,0,2.5,0.8
			c0.9,0,1.8,0.1,2.7,0c0.1-0.7,0.2-1.3,0.3-1.8c1,0,1.8,0,2.6,0c0.2-0.2,0.5-0.4,0.7-0.6c2.1,0,4.2,0,6.2,0c0.6-0.4,0.8-1.3,2-1.2
			c0.2,0.3,0.6,0.9,0.8,1.2c0.7,0,1.3,0.2,1.3,0.1c0.6-0.9,1-1.5,1.4-2c3,0,6,0,8.9,0c0.2-0.2,0.3-0.3,0.6-0.6c0.8,0,1.7,0,2.5,0
			c0.5-0.5,0.8-0.8,1.3-1.3c0.8,0,1.7,0,2.5,0c0.3-0.3,0.4-0.4,0.6-0.6c1,0,2.1,0,3.1,0c0.2-0.2,0.5-0.4,0.7-0.6c0.4,0,0.8,0,1.2,0
			c0.4-0.7,0.5-1.5,1.5-1.9c0.5,0,1.1,0,1.6,0c0.3-0.2,0.5-0.4,0.8-0.6c2.1,0,4.1,0,6.2,0c0.2-0.7,0.5-1.4,1.1-1.8
			c0.4,0,0.8,0,1.2,0c0.2-0.2,0.5-0.4,0.7-0.6c1.4,0,2.7,0,4.1,0c0.2,0,0.4-0.1,0.5-0.2c0.1-0.5,0.1-1,0.2-1.4
			c0.6-0.3,1.1-0.6,1.8-0.9c1.5,0,3.1,0,4.7,0c0.7-0.5,0.8-1.2,1.2-1.8c1.1,0.2,1.8-0.6,2.8-0.9c0.1-0.5,0.1-1,0.2-1.7
			c1.8,0,3.5,0,5,0c0.7-0.4,1.2-0.6,1.7-0.9c0-0.5,0-1,0.1-1.6c1.7,0,3.2,0,4.6,0c0.4-0.3,0.6-0.5,0.7-0.6c1.6,0,3.1,0,4.4,0
			c0.2,0.2,0.4,0.4,0.5,0.5c0.4,0,0.8,0,1.1,0c0.4-0.3,0.8-0.6,0.9-0.7c0.3-0.9-0.1-1.5,0.6-1.8c0.4,0,0.8,0,1.2,0
			c0.3-0.3,0.6-0.6,0.9-0.9c0-0.4,0-0.8,0-1.3c0.6-0.3,1.1-0.6,1.7-0.8c0.2,0.2,0.3,0.3,0.5,0.5c1,0,2.1,0,3.1,0
			c0.2-0.2,0.4-0.4,0.7-0.6c0.2,0,0.4,0,0.6,0c0.4-0.7,0.6-1.5,1.4-1.9c1.2,0,2.4,0,3.5,0c1-0.4,0.8-1.4,1.4-2
			c0.6-0.6,1.8-0.5,2-1.5c0-0.5,0.1-0.9,0.1-1.4c1.4-0.2,2.7,0,4.1-0.1c0.4-0.8,0.7-1.6,1.1-2.5c1.3,0,2.6,0,3.8,0
			c0.4-0.4,0.7-0.7,0.9-1c0.1-0.6-0.2-1.1,0.3-1.5c1.4,0,2.9,0,4.4,0c0.4-0.6,1-0.6,1.5-0.9c0.2-1.9,2.2-1.7,3.2-2.6
			c0.1-0.5-0.2-1,0.3-1.5c1,0,2,0,3.1,0c0.2-0.2,0.5-0.4,0.7-0.6c0.9-0.1,1.8,0.1,2.4,0c0.6-0.8,1-1.4,1.1-1.5
			c1.1-0.6,1.8,0,2.5-0.6c0-0.4,0-0.8,0-1.3c0.3-0.2,0.6-0.5,1.1-0.9c0.7,0,1.6,0,1.9,0c1-0.4,1.4-0.6,1.6-0.7
			c0.5-0.7,0.9-1.3,1.2-1.8c0.5,0,1,0,1.4,0c0.3-0.3,0.6-0.6,0.9-0.9c0-0.5,0-1,0.1-1.6c1.5,0,2.8,0,3.8,0c0.5-0.4,0.9-0.7,1-0.8
			c0.1-0.5,0.2-0.8,0.2-0.9c0.6-0.3,1-0.5,1.6-0.8c0.2,0,0.6,0,1.1,0c0.7-0.9,1.4-1.9,2.1-3c0-0.3,0-0.7,0-1.1
			c0.6-0.3,1.2-0.6,1.8-0.9c0.5,0,1,0,1.7,0c0.6-0.8,1.2-1.7,1.8-2.5c1.3,0,2.4,0,3.6,0c0.2,0,0.3-0.2,0.5-0.3c0-0.4,0-0.8,0-1.2
			c0.1,0.1,0.2,0.2,0.3,0.3c0.2-0.5,0.5-1,0.6-1.2c0.7,0,1.1-0.1,1.6-0.1c0.4-0.6,0.7-1.2,1.1-1.8c0.2,0,0.4,0,0.6,0
			c0.5-0.5,1-1,1.6-1.6c0.1-0.5-0.2-1,0.3-1.6c1.2,0,2.6,0,3.8,0c0.6-0.8-0.1-1.7,0.5-2.4c0.7,0,1.4-0.1,2-0.1
			c0.6-0.8-0.2-1.7,0.5-2.4c0.4,0,0.8,0,1.3,0c0.3-0.3,0.5-0.6,0.9-1c0-0.4,0.1-0.9,0.2-1.3c0.1-0.1,0.2-0.2,0.3-0.2
			c1.9,0,3.7,0,5.6,0c0.3-0.3,0.6-0.6,0.9-0.9c0-0.2,0-0.4,0-0.6c0.5-0.5,1-1,1.6-1.6c0.2,0,0.4,0,0.6,0c0.3-0.8,0.6-1.5,1.4-1.9
			c0.7-0.1,1.4,0.3,2.1-0.3c0-0.3,0-0.6,0-0.7c0.5-0.8,0.7-1.2,0.9-1.5c0.7,0,1.1-0.1,1.4-0.1c0.6-0.8-0.1-1.7,0.5-2.4
			c0.7,0,1.4-0.1,2.1-0.1c0.1-0.7,0.2-1.2,0.3-1.8c1.7,0.2,2.8-1.2,4.2-1.5c0-0.3,0-0.5,0-0.7c0.5-0.3,1-0.6,1.5-0.9
			c0.5-0.3,1.3,0.3,1.6-0.5c0.3-0.7-0.3-1.4,0.3-2.1c0.7,0,1.4-0.1,2-0.1c0.5-0.8-0.2-1.8,0.5-2.4c0.6,0,1.2,0,2,0
			c0.3-0.5,0.7-1.1,1.2-1.8c0.2-0.1,0.5-0.2,0.9-0.3c0-0.3,0-0.5,0-0.7c0.2-0.2,0.4-0.5,0.6-0.7c0-0.8,0-1.7,0-2.5
			c0.3-0.3,0.6-0.6,0.9-0.9c1.3-0.1,2.7,0.1,3.9-0.1c0.3-0.3,0.4-0.4,0.6-0.6c0.7-0.1,1.4,0.2,2.1-0.2c0.1-0.5,0.1-1,0.2-1.6
			c0.7,0,1.4,0,1.6,0c0.8-0.4,1.1-0.6,1.5-0.7c0.4-0.1,0.8,0.1,1.1-0.3c0-0.6,0-1.2,0-1.8c0.2-0.2,0.4-0.5,0.6-0.7
			c0-0.4,0-0.8,0-1.2c0.5-1,1.8-0.9,2.5-2c0-1,0-2.1,0-3.3c1.4-0.2,2.8,0,4.1-0.1c0.3-0.3,0.6-0.6,0.9-0.9c0.1-0.5-0.2-1,0.2-1.5
			c0.7-0.1,1.4-0.1,2.1-0.2c0.4-0.9,1.3-0.3,1.9-0.7c0.1-1.1,0.6-2.1,1-2.9c0.5-0.3,1.1,0.2,1.5-0.3c0.2-0.7-0.1-1.5,0.7-1.9
			c0-0.7,0.1-1.4,0.1-2.1c0.6-0.1,1.1-0.1,1.7-0.2c0.4-0.6,0.8-1.2,1.2-1.8c1.3,0.1,1.3,1.2,1.8,1.9c0.4,0,0.8,0,1.2,0
			c0.3-0.3,0.6-0.6,0.9-0.9c0-0.4,0-0.8,0-1.2c0.2-0.2,0.4-0.5,0.6-0.7c0-0.4,0-0.8,0-1.4c0.6-0.4,1.2-0.8,1.9-1.2
			c0.1-0.5-0.2-1.1,0.3-1.5c1.2,0,2.5,0,3.8,0c0.3-0.3,0.6-0.6,0.9-0.9c0-0.4,0.1-0.9,0.2-1.4c0.9-0.4,1.7-0.7,2.4-1.1
			c0-0.5,0-0.9,0-1.3c0.8-0.3,0.5-1.3,1.1-1.8c0.5-0.4,1.1-0.9,1.4-1.6c0-0.3,0-0.6,0-0.8c0.4-0.5,0.7-0.9,0.8-1.1
			c0.8-0.1,1.3,0.2,1.7-0.4c0-0.4,0-0.8,0-1.2c0.3-0.3,0.6-0.6,0.9-0.9c0.4,0,0.8,0,1.2,0c0.5-0.5,1.1-0.9,1.1-1.7
			c0.7-0.2,1.3-0.5,1.7-1.1c0-0.4,0-0.8,0-1c0.4-0.7,0.6-1.2,0.9-1.7c0.5,0,1,0,1.4,0c0.2,0.2,0.4,0.4,0.5,0.5c0.4,0,0.8,0,1.3,0
			c0.2-0.3,0.5-0.6,0.9-1.1c0-0.9,0-2,0-3c0.4-0.4,0.7-0.7,0.9-0.9c0.6-0.1,1.1,0.2,1.5-0.3c0-0.4,0-0.8,0-1.3
			c0.3-0.3,0.6-0.6,0.9-0.9c0.5,0,1-0.1,1.5-0.2c0-1,0-1.9,0-2.5c0.7-0.8,1.1-1.3,1.5-1.7c0.5-0.1,0.8-0.2,1.1-0.3
			c0-0.5,0-0.9,0-1.5c0.3-0.3,0.7-0.6,1.1-0.9c0.5-0.3,1-0.6,1.5-0.9c0-0.4,0-0.8,0-1.1c0.3-0.4,0.6-0.7,0.9-0.9
			c0.5-0.1,1.1,0.2,1.6-0.4c0-1.2,0-2.5,0-3.8c0.6-0.6,1-1,1.6-1.6c0.8,0.4,1.3-0.4,2.1-0.6c0.9-0.2,1.2-1.1,1.9-1.5
			c0.1-1.3,1.4-1.7,2-2.7c0-2,0-4.1,0-6.2c0.2-0.3,0.4-0.5,0.6-0.8c0-0.4,0-0.8,0-1.1c0.4-0.4,0.6-0.7,0.9-1c0.5,0,0.9,0,1.2,0
			c0.6-0.5,1.1-1,1.6-1.5c0-0.2,0-0.4,0-0.6c0.5-1,1.8-0.9,2.5-2c0-0.7,0-1.7,0-2.6c0.7-0.5,1.5-0.8,2-1.3c0.6-0.5,0.5-1.5,1.4-2
			c0.4,0,0.8,0,1.3,0c0.2-0.3,0.5-0.6,1-1.2c0.1-0.2-0.5-0.9,0.3-1.3c0.4,0,0.8,0,1.2,0c0.3-0.5,0.5-1.1,0.9-1.8c0-0.2,0-0.6,0-1.3
			c0.5-0.5,1.2-1.1,1.9-1.7c0-0.6,0-1.2,0-1.8c0.3-0.3,0.6-0.6,0.9-0.9c0.8,0,1.7,0,2.2,0c0.7-0.4,1.3-0.6,1.8-0.9
			c0-0.6,0-1.3,0-1.9c0.2-0.2,0.4-0.5,0.6-0.7c0-0.7,0-1.3,0-1.9c-0.2-0.3-0.4-0.5-0.6-0.7c-0.1-0.8,0.3-1.4,0.6-2
			c0.3-0.6-0.3-1.4,0.4-2c1,0,2.1,0,3.1,0c0.3-0.3,0.6-0.6,0.9-0.9c0-0.6,0-1.2,0-1.8c0.2-0.2,0.4-0.5,0.6-0.7c0-0.4,0-0.8,0-1.2
			c-0.3-0.3-0.6-0.6-0.9-0.9c-0.7,0-1.4-0.2-2.1,0.1c-0.2,0.2-0.3,0.3-0.5,0.5c-0.6,0-1.2,0-1.9,0c-0.7,0-1.4-0.2-2.1,0.2
			c-0.1,0.5-0.1,1-0.2,1.4c-1.1,1.1-2.3,2.3-3.4,3.4c-0.4,0-0.8,0-1.3,0c-0.3,0.3-0.6,0.6-1,1c0,0.8,0,1.7,0,2.5
			c-0.3,0.3-0.6,0.6-0.8,0.8c-0.6,0.1-1.1,0.2-1.7,0.3c0,0.8,0,1.4,0,2c-0.5,1.1-2.1,0.9-2.6,2.3c0,0.4,0,1,0,1.6
			c-0.4,0.4-0.8,0.9-1.2,1.2c-0.4,0.3-0.8,0.4-1.3,0.6c-0.1,0.7,0.2,1.5-0.2,2.1c-0.5,0.1-1,0.1-1.5,0.2c-0.3,0.3-0.6,0.6-0.9,0.9
			c0,0.4,0,0.8,0,1.3c-0.9,0.1-1.4,0.7-2,1.3c-0.6,0.6-0.4,1.6-1.3,2c-0.5,0.1-1,0.1-1.6,0.2c0,1.2,0,2.3,0,3.2
			c-0.8,1.2-2.7,1-2.7,2.7c-0.9,0.4-1.7,0.8-2.4,1.1c0,0.5,0,0.9,0,1.3c-0.6,1-1.8,0.9-2.4,1.8c-0.1,0.5-0.1,1-0.2,1.5
			c-0.5,0-1,0.1-1.5,0.1c-0.4,0.8-0.7,1.6-1.1,2.4c-0.5,0-1,0-1.6,0c-0.1-1-0.1-1.9,0-2.8c0.2-0.3,0.4-0.5,0.6-0.7
			c0.1-0.6-0.2-0.8-0.5-1.1c-0.2-0.3-0.3-0.7-0.4-1c-0.4-0.1-0.7-0.2-1-0.3c0-0.4,0.1-0.6,0.1-0.9c0.4-0.2,0.8-0.3,1.1-0.4
			c0.1-0.8-0.1-1.5,0.2-2.2c0.6-0.1,1.2-0.4,1.7,0.2c0,0.4,0,0.8,0,1.2c0.3,0.3,0.6,0.6,0.9,0.9c0.4,0,0.8,0,1.3,0
			c0.2-0.2,0.5-0.6,0.8-1c0-1.1,0-2.5,0-3.7c-0.4-0.3-0.7-0.6-0.9-0.8c-0.6-0.1-1.1,0.2-1.5-0.3c0-0.6,0-1.2,0-2
			c1,0.1,0.3-1,0.9-1.4c0.6,0.7,1.2,1.3,1.6,1.8c1.6,0,2.9,0,4.1,0c0.3-0.3,0.6-0.6,0.9-0.9c0-0.7,0.2-1.4-0.2-2.1
			c-0.5-0.1-1-0.1-1.4-0.2c-0.3-0.4-0.9-0.6-0.8-1.5c0.7-0.3,1.5-0.8,2.5-1.2c0-1.3,0-2.6,0-3.8c1-1,1.9-1.9,2.8-2.8
			c0.4,0,0.8,0,0.9,0c0.7-0.4,1.1-0.7,1.3-0.8c0-0.7,0.1-1.1,0.1-1.5c0.9-0.4,1.7-0.8,2.5-1.1c0-0.7,0-1.3,0-1.9
			c0-0.7-0.2-1.4,0.3-2.2c1.7,0.2,1.5-1.6,2.3-2.4c0-0.6,0-1.2,0-1.7c0.3-0.3,0.6-0.6,0.9-0.9c1.1,0,2.1,0,3.1,0
			c0.3-0.3,0.6-0.6,0.9-0.9c0-0.6,0-1.3,0-1.9c0-0.7-0.2-1.4,0.3-2.2c1.3,0,2.6,0,3.5,0c0.8-0.4,1.3-0.7,1.8-0.9
			c0.3-0.7-0.5-0.9-0.5-1c0-2,0-3.7,0-5.4c0.3-0.1,0.6-0.1,0.9-0.2c0.3-0.3,0.6-0.6,0.9-0.9c0-0.4,0-0.8,0-1.2
			c0.2-0.2,0.4-0.5,0.6-0.7c0-0.6,0-1.2,0-1.7c0.8-1.1,1.5-2.1,2.1-3c0.5,0,0.9,0,1.3,0c0.3-0.3,0.6-0.6,0.9-0.9
			c0.1-0.5-0.2-1,0.3-1.5c0.5,0,1-0.1,1.4-0.2c0.3-0.3,0.6-0.6,0.9-0.9c0-1.1,0-2.1,0-2.8c0.3-0.7,0.5-1.2,0.8-1.7
			c0.5-0.5,1.1-1.1,1.7-1.7c0-0.6,0-1.2,0-1.9c0.7-0.7,1.3-1.6,2.4-1.8c-0.1-1.1,0.6-1.9,0.9-3.1c0.7-0.6,1.5-1.4,2.3-2.2
			c0-0.4,0-0.8,0-1.3c0.3-0.1,0.6-0.1,1-0.3c0.2-0.2,0.4-0.5,0.9-1c0-0.9,0-2,0-3.3c0.8-0.8,1.6-1.6,2.5-2.4c-0.2-1.1,0.9-2,0.8-3.1
			c0-0.1,0.1-0.1,0.2-0.2c0.5-0.1,1,0.2,1.5-0.3c0-0.4,0-0.8,0-1.3c0.8-0.8,1.7-1.7,2.6-2.5c0-0.9,0-1.7,0-2.5
			c0.6-0.9,1.9-0.9,2.5-1.9c0-1,0-2.1,0-3.5c0.7-0.6,1.7-1.3,2.5-2c0-0.8,0-1.4,0-1.8c0.3-0.6,0.7-1.2,1-1.7
			c0.5-0.2,1.1,0.2,1.5-0.4c0-0.4,0-0.8,0-1.3c0.3-0.3,0.6-0.5,1-0.9c0.4,0,0.9-0.1,1.5-0.2c0-0.5,0.1-1,0.1-1.5
			c0.3-0.3,0.6-0.6,0.9-0.9c0.2,0,0.4,0,0.6,0c0.3-0.3,0.6-0.6,0.9-0.9c0-1.9,0-3.9,0-5.9c0-0.1,0-0.2,0-0.3c0-0.1,0.1-0.2,0.5-0.7
			c0,0.1,0.2-0.4,0.3-0.8c1.9-0.2,1.7-2.2,2.6-3.2c0.5-0.1,1,0.2,1.5-0.3c0-0.7,0.1-1.4,0.1-2.2c0.6,0,1.1-0.1,1.6-0.1
			c0.3-0.3,0.6-0.6,0.9-0.9c0-1.2,0-2.5,0-3.8c0.5-0.3,0.7-0.9,1.5-1c0.4,0,0.7-0.6,1-0.9c0-0.7,0-1.2,0-1.7c0.4-0.7,0.7-1.5,1.2-2
			c0.6-0.6,0.5-1.5,1.2-2c0-1.1,0-2.1,0-3.1C749.6,318.6,749.4,318,748.8,317.9z M680.5,353.8c1-0.9,2-2,3-2.9
			c0.1-0.4,0.2-0.7,0.3-1.1c0.4,0.3,0.7,0.6,1,0.9c0,0.9,0,1.8,0,2.6c-0.5,0.5-1,0.1-1.5,0.3c-0.5,0.4-0.2,1-0.3,1.4
			c-0.1,0.4-0.5,0.7-0.6,1c-0.1,0.6-0.6,0.8-0.9,1.3c-0.4-0.4-0.6-0.6-0.9-0.9C680.5,355.7,680.5,354.8,680.5,353.8z M678.9,357.4
			c0.3,0,0.6,0.1,0.8,0.1c0,0.1,0,0.3,0,0.4c-0.3,0-0.6,0.1-0.8,0.1c-0.1,0-0.2-0.2-0.2-0.4C678.7,357.6,678.8,357.4,678.9,357.4z
			 M678.9,359.3c0.5,0.4,0.5,0.8,0,1.3C678.4,360.1,678.4,359.7,678.9,359.3z M675.4,361.5c0.5-0.6,1.1-0.3,1.7-0.2
			c0.4,0.7,0.1,1.4,0.2,2.3c-0.7,0-1.2,0-1.7,0C675.2,362.9,675.5,362.2,675.4,361.5z M674.1,366.4c0.1,0.1,0.4,0.4,0.7,0.7
			c0,0.2,0,0.5,0,0.7c-0.5,0.4-1,0.1-1.5,0.3c-0.1-0.2-0.2-0.5-0.4-1C673.2,366.9,673.6,366.6,674.1,366.4z M493.1,170.3
			c0.3-0.3,0.6-0.6,0.9-0.9c0.4,0,0.8,0,1.3,0c0.2,0.3,0.5,0.6,0.9,1c0,0.5,0,0.9-0.1,1.3c-0.3,0-0.6,0.1-0.9,0.1
			c-0.4,0-0.8,0-1.2,0c-0.3,0-0.6-0.1-0.9-0.1C493.1,171.3,493.1,170.8,493.1,170.3z M484.6,270.9c-0.2,0-0.4,0-0.8,0
			c-0.1-0.3-0.1-0.7-0.2-1.1c0.4-0.1,0.7-0.1,0.9-0.2C485.1,270.1,485.1,270.5,484.6,270.9z M483.7,169.8c0-0.4,0-0.8,0-1.3
			c0.3-0.2,0.6-0.5,1.1-0.9c0.1,0.3,0.2,0.7,0.3,1.1c0.1-0.1,0.3-0.2,0.4-0.3c0,0.5,0.1,1,0.1,1.5c0.4,0.2,0.8,0.4,1.3,0.7
			c0.4,0.2,0.8,0.3,1.2,0.5c-0.6,0.6-1.1,0.1-1.8,0.5c-0.1,0-0.3,0.3-0.5,0.5c-0.6,0-1.3,0-1.9,0c-0.3-0.3-0.6-0.6-0.9-0.9
			C482.9,170.4,483.3,170.1,483.7,169.8z M476.3,170.2c0.1-0.1,0.2-0.2,0.2-0.2c1.4,0,2.9,0,4.6,0c0,1,0,1-0.7,1.7
			c-0.1,0.1-0.2,0.2-0.2,0.2c-1.2,0-2.5,0-3.7,0C476.2,171.1,476.2,171.1,476.3,170.2z M319.5,160.3c0.2-0.1,0.4-0.2,0.6-0.2
			c1.1,0,2.3,0,3.4,0c0.3,0.3,0.6,0.5,0.9,0.8c0,0.5-0.5,0.6-0.7,1.1c-1.5,0-2.8,0-4.1,0C319.5,161.2,319.5,160.7,319.5,160.3z
			 M314.2,160.4c0.4-0.6,1.1-0.3,2.1-0.4c0,0.7,0,1.2,0,1.7c-0.7,0.5-1.4,0.2-2.2,0.2c-0.2-0.3-0.5-0.6-0.9-1.1
			C313.5,160.7,313.8,160.6,314.2,160.4z M309.4,162.8c0.6-0.5,1.3-0.5,1.9,0c0,0.2,0,0.4,0,0.6c-0.5,0.4-0.8,1.3-1.7,0.8
			C309.3,163.8,309.6,163.3,309.4,162.8z M325.6,169.3c-0.8,0.3-1.6,0.1-2.4,0.1c-0.7,0-1.4,0-2.1,0c-0.3,0.3-0.5,0.5-0.9,0.7
			c-0.3-0.2-0.7-0.4-1.2-0.7c-0.5,0-1.2,0-2,0c0,0.5-0.1,1-0.1,1.5c-0.3,0.3-0.6,0.6-0.9,0.9c-0.8,0-1.7,0-2.5,0
			c-0.2,0.2-0.5,0.4-0.7,0.6c-0.6,0.2-0.9-0.4-1.3-0.6c-0.7,0-1.3,0-1.9,0c-0.3,0.3-0.6,0.6-0.9,0.9c0,0.4,0,0.8,0,1.2
			c-0.1,0.1-0.1,0.2-0.2,0.2c-1.2,0-2.5,0-3.8,0c-0.6,0.9-1.3,1.8-1.9,2.6c-1.5,0-3,0-4.5,0c-0.2,0.2-0.3,0.3-0.4,0.4
			c-0.2,0.1-0.4,0.2-0.6,0.2c-1.6,0-3.1,0-4.6,0c-0.3-0.3-0.6-0.6-0.9-0.9c0-0.4,0-0.8,0-1.2c1-0.9,3-0.7,3.2-2.6
			c0.7-0.4,1.4-0.1,2.1-0.2c0.6,0,1.3,0,1.6,0c0.7-0.4,1.3-0.5,1.7-0.9c0.5-0.6,1.2-0.2,1.8-0.5c0.3-0.3,0.7-0.7,1.2-1.2
			c2.3,0,4.6,0,6.9,0c0.3-0.3,0.4-0.4,0.6-0.6c1.7,0,3.4,0,5.2,0c0.1-0.7,0.1-1.2,0.2-1.6c2.6-0.3,6.8-0.3,9.8,0
			C326.7,168.5,326,168.8,325.6,169.3z M374,176.7c-0.3,0.3-0.6,0.6-0.9,0.9c-0.6,0.2-0.9-0.3-1.3-0.6c-1,0-2.1,0-2.9,0
			c-0.7-0.4-1.2-0.6-1.7-0.9c0-0.2,0-0.4-0.1-0.6c0.1-0.1,0.1-0.2,0.2-0.2c0.7-0.3,1.6,0,2.2-0.8c0.8,0.1,1.7-0.3,2.3,0.5
			c0.7,0.1,1.4,0.1,2.1,0.2C374.2,175.6,373.9,176.2,374,176.7z M375,173.8c-0.5-0.4-0.5-0.9-0.1-1.3c0.2,0,0.4,0,0.8,0
			c0.1,0.3,0.1,0.7,0.2,1.1C375.5,173.7,375.2,173.8,375,173.8z M388.5,174.4c-1.4,0-3.1,0-4.7,0c-0.1,0-0.2,0.1-0.3,0.2
			c0,0.3,0,0.7-0.1,1.5c-0.2,0.1-0.6,0.4-1,0.7c-0.1-0.1-0.2-0.2-0.5-0.5c-0.6,0-1.3-0.1-2-0.1c-0.5-0.4-0.2-1-0.3-1.5
			c-0.2-0.2-0.4-0.4-0.6-0.7c0-0.4,0-0.8,0-1.5c3.6,0,7,0,10.4,0c0.3,0.3,0.6,0.6,0.9,0.9C389.7,173.8,389.2,174.1,388.5,174.4z
			 M418.5,157.6c0,0.6,0,1.1,0,1.5c-0.5,0.6-1.1,0.3-1.7,0.2c-0.5-0.4,0-1-0.3-1.4C417.2,157.1,417.9,157.7,418.5,157.6z
			 M418.3,169.4c-0.9,0-1.8,0-2.6,0c-0.2-0.2-0.4-0.4-0.6-0.5c-0.2,0.2-0.4,0.4-0.5,0.5c-1,0-2,0-3.2,0c-0.3,0.4-0.7,0.9-1.1,1.4
			c-0.5-0.5-0.8-0.9-1.1-1.2c-0.7-0.3-1.3-0.2-1.9-0.2c-0.5,0-1,0-1.5,0c-0.6,0.5-0.2,1-0.4,1.6c-0.4,0.2-0.9,0.5-1.4,0.7
			c0,0,0,0.1,0,0.1c-0.1,0-0.2,0.1-0.3,0.1c-2.1,0-4.2,0-6.2,0c-0.3,0-0.5-0.1-0.8-0.2c0-0.5,0-0.9,0-1.4c1.3-0.5,2.8,0.1,4.2-0.3
			c0.2-0.2,0.3-0.3,0.6-0.6c0.8,0,1.7,0,2.7,0c0-0.6,0.1-1.1,0.1-1.6c2.2-0.4,5.9-0.4,10.4-0.1c0.1,0.1,0.3,0.3,0.5,0.5
			c0.2-0.2,0.4-0.4,0.7-0.6c0.8,0,1.6,0,2.5,0c0.3,0.3,0.5,0.6,0.9,0.9C418.8,168.7,418.6,169,418.3,169.4z M431,166.7
			c-0.8,0.4-1.7,0.1-2.5,0.2c-0.7,0.1-1.5,0-2.2,0c-0.5,0.4-0.2,1-0.3,1.5c-0.2,0.2-0.5,0.5-0.8,0.9c-1.3,0-2.6,0-3.9,0
			c-0.1-0.1-0.2-0.1-0.2-0.2c0-0.4,0-0.8,0-1.3c0.2-0.2,0.4-0.4,0.6-0.6c0-0.4,0-0.8,0-1.2c0.4-0.5,0.9-0.2,1.7-0.4
			c0.2-0.3,0.6-0.8,0.7-1c1-0.3,1.3,0.1,1.6,0.5c1.7,0,3.4,0,5.3,0C431,165.7,431,166.2,431,166.7z M451.6,163.5
			c-0.5,0.5-1,1.1-1.5,1.7c-0.5-0.2-0.8-0.4-1.5-0.7c-2.2,0-4.8,0-7.4,0c-0.5,0.4-0.1,1-0.2,1.2c-0.4,0.6-0.7,1-0.9,1.3
			c-1.5,0-1.4-1.2-2-1.9c-0.4,0-0.8,0-1.2,0c-0.2-0.2-0.5-0.4-0.7-0.6c-1.5,0-2.9,0-4.4,0c-0.6-0.5-0.3-1.1-0.2-1.7
			c0.1-0.1,0.2-0.2,0.2-0.2c3.7,0,7.5,0,11.2,0c0.3-0.3,0.6-0.6,0.9-0.9c0-0.5,0.1-1,0.1-1.5c0.3,0,0.6-0.1,0.9-0.1
			c0.5,0.5,0.2,1,0.3,1.5c0.6,0.8,1.6,0.1,2.3,0.4c0.1,0.1,0.3,0.3,0.5,0.5c0.8,0,1.6,0,2.5,0c0.3,0.3,0.6,0.5,0.9,0.8
			C451.6,163.4,451.7,163.5,451.6,163.5z M467.7,171.3c-0.3,0-0.6-0.1-0.8-0.1c0-0.1,0-0.3,0-0.4c0.3,0,0.6-0.1,0.8-0.1
			c0.1,0,0.2,0.2,0.2,0.4C467.9,171.1,467.8,171.3,467.7,171.3z M472.9,170.9c-0.4,0.4-0.4,0.4-2,0.2
			C471.8,170.6,472.4,170.6,472.9,170.9z M472.4,276.5c0.8,0.4,1.3,0.8,1.9,1.1c0,0.2,0,0.4-0.1,0.6c-0.5,0.3-1,0.5-1.7,0.9
			c-0.2,0-0.6,0-0.8,0c-0.7-0.4-1.2-0.6-1.7-0.9C470.4,277.2,471.5,277.2,472.4,276.5z M466.2,279.9c0.7-0.4,1.4,0,2.1-0.3
			c0.1,0.3,0.2,0.6,0.4,1c-0.4,0.3-0.8,0.6-1.3,0.9c-0.2,0-0.6,0-1,0c-0.3-0.3-0.6-0.6-0.9-0.9C465.8,280.4,466,280.1,466.2,279.9z
			 M224.1,582.2c-0.4,0.4-1,0-1.4,0.2c-0.6-0.7-0.6-1.3,0-1.9c0.2,0,0.4,0,0.6,0C223.6,581,224.6,581.3,224.1,582.2z M231.7,593
			c-0.7,0-1.2,0-1.7,0c-0.4-0.7-0.2-1.4-0.2-2.1c-0.1-0.1-0.3-0.3-0.5-0.5c-0.3-0.6-0.1-1.4-0.1-2.1c0.7-0.7,1.5,0,2.2-0.3
			c0.2,0.2,0.3,0.3,0.3,0.4C231.7,589.9,231.7,591.3,231.7,593z M242.5,588.2c0.3-0.1,0.5-0.1,0.8-0.2c0.6,0.7,0.6,1.3,0,1.9
			c-0.2,0-0.4,0-0.6,0C242.1,589.4,242.4,588.8,242.5,588.2z M241.7,583.9c-0.4,0.5-0.6,0.8-0.8,1c-0.3,0-0.5,0-0.7,0
			c-0.6-0.5-0.1-1.1-0.3-1.5C240.9,582.6,241.2,583.5,241.7,583.9z M234,597.4c-0.5,0-0.9,0-1.3,0c-0.3-0.3-0.3-0.3-0.2-1.7
			c0.4-0.4,1-0.1,1.5-0.2c0.3,0.3,0.5,0.6,0.8,0.9C234.4,596.9,234.2,597.2,234,597.4z M254.2,619.8c-0.7,0.4-1.5,0.2-2.3,0.2
			c-0.1-0.6-0.2-1.1-0.3-1.8c-0.5-0.1-1-0.1-1.5-0.2c-0.1-0.1-0.3-0.3-0.6-0.6c-1.2,0-2.5,0-3.6,0c-0.5-0.4-0.8-0.7-1.1-0.9
			c0-0.5,0-0.9,0-1.3c-0.2-0.2-0.3-0.3-0.5-0.5c-0.1-0.4-0.1-0.9-0.2-1.4c-0.4-0.5-1-0.1-1.5-0.2c-0.7-0.6-0.2-1.4-0.4-2.3
			c-0.2-0.1-0.6-0.4-1.3-0.8c-0.1,0-0.5,0-1,0c-0.1-0.3-0.2-0.6-0.3-0.9c-0.6-0.7-1.2-1.5-2.4-1.7c0-0.4,0-0.8-0.1-1.5
			c-0.2-0.1-0.6-0.4-1.4-0.8c-0.1,0-0.4,0-0.8,0c-0.1-0.2-0.3-0.3-0.3-0.5c0-2.3,0-4.6,0-6.9c0.4-0.1,0.7-0.1,1-0.1
			c0.3,0.6,0.6,1.3,1,1.9c-0.1,0.2-0.3,0.5-0.4,0.7c-0.4,0.6-0.2,1.4-0.2,2.1c0.3,0.3,0.6,0.6,0.9,0.9c0.6,0,1.2,0,1.8,0
			c0.8,0.6,0.1,1.6,0.5,2.3c0.6,0.4,1.4,0.1,2.4,0.2c0,0.9,0,1.6,0,2.4c0.6,0,1.1,0.1,1.6,0.1c0.3,0.3,0.6,0.6,0.9,0.9
			c0,0.4,0,0.8,0,1.4c0.6,0.1,1.1,0.2,1.7,0.3c0.4,0.4,0.1,1,0.2,1.5c0.5,0.5,1,1,1.6,1.6c0.2,0,0.4,0,0.7,0
			c0.1,0.3,0.2,0.7,0.4,1.1c0.9,0.2,1.7,1.1,2.8,0.9c0.9,0.9,1.8,1.8,2.7,2.7C254.2,618.8,254.2,619.3,254.2,619.8z M289.5,625.7
			c0.6,0,1.1,0,1.5,0c0.4,0.3,0.4,0.3,0.2,1.7c-0.4,0.5-1,0-1.4,0.3C289,626.9,289.6,626.3,289.5,625.7z M267.1,620.1
			c-0.2-0.3-0.5-0.7-0.9-1.3c0,0,0-0.4,0-0.6c-0.6-0.4-1.2-0.7-1.8-1c0-0.5,0-1,0-1.4c0.5-0.4,1-0.2,1.5-0.2
			c0.3,0.3,0.6,0.6,0.9,0.9c-0.2,0.2-0.4,0.4-0.6,0.7c0,0.3,0,0.6,0,0.9c1,0.1,2,0.1,2.9,0.1c0.4,0.5,0.1,1,0.2,1.5
			C268.7,620.3,268,619.9,267.1,620.1z M270.6,622.5c-0.6,0-1.1-0.8-1.2-1.9c0.8,0,1.4,0,2,0C272.2,621.2,272,621.5,270.6,622.5z
			 M283.7,632.3c-0.1,0.1-0.1,0.2-0.2,0.2c-1,0-2.1,0-3.2,0c-0.2-0.2-0.5-0.5-0.8-0.8c-0.1-0.5-0.1-1-0.2-1.4
			c-0.5-0.5-1-0.1-1.5-0.2c-0.3-0.3-0.6-0.6-0.9-0.9c0-0.4,0-0.8,0-1.2c-0.7-0.4-1.5-0.6-1.9-1.4c0-0.4,0-0.8,0-1.2
			c-0.6-0.6-1.4-0.2-2.1-0.3c-0.5-0.5-1.3-0.7-1-1.6c0.1-0.1,0.2-0.2,0.2-0.2c0.8,0,1.7,0,2.4,0c1.1,0.5,0.9,1.9,2.3,2.5
			c0.3,0,1,0,1.6,0c0.5,0.6,0.2,1.1,0.3,1.6c1.1,1.1,2.2,2.2,3.4,3.4c0.5,0,1,0.1,1.4,0.2C283.9,631.2,283.7,631.8,283.7,632.3z
			 M285.5,635c0,0-0.4-0.2-0.7-0.4c-0.4-0.3-0.7-0.7-0.4-1.2c0.7-0.4,1.4,0,2.3-0.3c0.1,0.5,0.1,0.7,0.2,1.1
			C286.6,634.4,286.2,634.6,285.5,635z M286.8,624.1c0.2-0.5,0.3-0.7,0.4-1c0.5,0,0.9,0,1.3,0c0.3,0.3,0.3,0.3,0.3,1.7
			c-0.3,0.1-0.5,0.1-0.7,0.2C287.5,624.7,287.1,624.4,286.8,624.1z M290,637.2c0.1,0.1-0.1-0.1-0.3-0.3c-0.4,0-0.8,0-1.2,0
			c-0.5-0.4-0.5-0.8,0-1.3c0.8,0,1.6,0,2.4,0c0.1,0,0.2,0.1,0.2,0.2c0,0.2,0.1,0.4,0.2,0.8C291,636.8,290.5,637,290,637.2z
			 M292.2,628.2c0.4,0,0.8,0,1.4,0c0.1,0.3,0.1,0.7,0.2,0.9c-0.5,0.5-1.1,0.2-1.6,0.3C291.7,629,291.8,628.6,292.2,628.2z
			 M293.3,640.1c-0.8,0.1-1-0.6-1.4-1c-0.2-0.8,0.6-1,0.9-1.6c0.3,0.8,1.4,0.5,1.6,1.3C294.4,639.5,293.8,639.7,293.3,640.1z
			 M295.1,632.4c0-0.1-0.4-0.4-0.7-0.8c0-0.2,0-0.4,0-0.6c0.1-0.1,0.1-0.2,0.2-0.2c0.8,0,1.6,0,2.7,0c0.1,0.2,0.4,0.6,0.6,0.9
			C297.2,631.8,296.6,632.8,295.1,632.4z M300.4,641.9c-0.3,0-0.6-0.1-0.8-0.1c0-0.1,0-0.3,0-0.4c0.3,0,0.6-0.1,0.8-0.1
			c0.1,0,0.2,0.2,0.2,0.4C300.6,641.8,300.4,641.9,300.4,641.9z M300.8,635.1c-0.4,0.1-0.6-0.2-1-0.5c-0.3-0.2-0.7-0.3-1.1-0.4
			c0-0.3,0.1-0.6,0.1-0.9c0.9-0.2,1.8,0,2.7-0.1c0.3,0.3,0.6,0.6,0.9,0.9C302,634.4,301.4,634.7,300.8,635.1z M303.2,636.6
			c0-0.2,0-0.4,0-0.8c0.9-0.3,1.9-0.1,3-0.2c0.1,0.4,0.1,0.6,0.2,0.9C305.9,637.1,305.2,637.1,303.2,636.6z M312.6,641.6
			c0-0.2,0-0.4,0-0.6c0.1-0.1,0.1-0.2,0.2-0.2c1.5,0,3,0,4.5,0c0.3,0.3,0.6,0.6,0.9,0.8C316.2,642.1,314.4,642.1,312.6,641.6z
			 M626.3,443.3c-0.6-0.4-0.3-0.9-0.4-1.7c0.3-0.2,0.7-0.4,1.2-0.7c0.5,0.5-0.1,1.3,0.2,2.1C626.8,443.2,626.6,443.3,626.3,443.3z
			 M630.3,440.7c-0.8,0-1.4,0-2.3,0c-0.2-0.2-0.5-0.5-0.8-0.7c0.4-1.2,1.7-0.9,2.1-1.7c0.4,0.4,0.7,0.7,1,1
			C630.3,439.6,630.3,440,630.3,440.7z M632.8,435.3c0,0.5-0.7,0.7-0.6,1.3c0.1,0.4,0.1,0.8-0.3,1.1c-0.2,0-0.4,0-0.6,0
			c-0.1-0.1-0.2-0.1-0.2-0.2c0-1.1,0-2.2,0-3.3c0.4-0.4,1-0.1,1.5-0.2C633,434.2,632.8,434.8,632.8,435.3z M633.8,433.3
			c-0.5-0.4-0.5-0.9-0.1-1.3c0.2,0,0.4,0,0.8,0c0.1,0.3,0.1,0.7,0.2,1.1C634.3,433.2,634.1,433.2,633.8,433.3z M636.1,510.3
			c-0.1-0.3-0.1-0.6-0.2-1c0.4-0.1,0.7-0.1,1.2-0.2c0.1,0.4,0.1,0.7,0.2,1.2C636.7,510.3,636.4,510.3,636.1,510.3z M649.4,413.3
			c0.4-0.1,0.6-0.2,0.9-0.2c0.2-0.8-0.1-1.6,0.7-2c0-0.4,0-0.8,0-1.2c0.7-0.3,1.5-0.7,1.9-1.4c0-0.4,0-0.8,0-1.2
			c0.3-0.3,0.6-0.6,0.9-0.9c1.3,0,2.7,0,4,0c0,0.6,0,1,0.1,1.5c-0.4,0.4-1,0.7-1.2,1.3c-0.2,0.5-0.3,0.9-0.7,1.3
			c-0.5,0.4-1,0.8-1.3,1c0,0.8,0,1.2,0,1.5c-0.5,0.5-1,0.2-1.6,0.3c-0.2,0.3-0.5,0.6-0.9,1c0,0.3,0,0.7,0,1.1
			c-0.3,0.3-0.6,0.6-0.9,1c-0.8,0-1.6,0-2.8,0c-0.1-0.2-0.4-0.6-0.8-1.2C648.2,414.2,648.9,413.8,649.4,413.3z M646.4,452.6
			c-0.7-0.3-0.5-0.7-0.1-1.2C646.7,451.9,646.7,452.2,646.4,452.6z M647.9,420.6c-0.8,0-1.5,0.1-2.2,0.1c-0.3,0.3-0.6,0.6-0.9,0.9
			c0,0.4,0,0.8,0,1.4c-0.3,0.1-0.7,0.1-1,0.2c-0.2-0.2-0.3-0.3-0.3-0.4c0-1,0-2.1,0-3.1c0.4-0.7,1.1-0.9,1.8-1.2
			c0-0.4,0-0.8,0.1-1.5c0.2-0.1,0.6-0.4,1.1-0.8c0.2,0,0.6,0,1.1,0c0.1,0.2,0.3,0.4,0.3,0.5C647.9,418.1,647.9,419.3,647.9,420.6z
			 M652,445.8c-1,0-2.1,0-3.1,0c-0.4-0.5-1.3-0.7-0.8-1.9c0.5,0,1,0,1.3,0c1.1-0.5,0.9-2.1,2.1-2.5c0.2,0,0.4,0.1,0.6,0.1
			c0.4,0.7,0,1.4,0.3,2.2c0.1,0.1,0.3,0.4,0.5,0.6C653,445,652.3,445.3,652,445.8z M667.9,425.5c-0.8,0.4-0.6,1.2-0.7,1.9
			c-0.6,0.9-1.8,0.9-2.4,1.8c0,0.5-0.1,1-0.1,1.5c-0.6,0.1-1.1,0.1-1.5,0.2c-0.4,0.3-0.7,0.6-1,0.9c0,0.5,0,0.9,0,1.3
			c-0.4,0.5-1,0.2-1.6,0.4c-0.1,0.1-0.4,0.4-0.8,0.7c0,0.6,0,1.2,0,1.5c-1.8,1.8-3.4,3.4-5.1,5.1c-0.1,0-0.5,0-0.9,0
			c-0.3-0.3-0.6-0.6-0.9-0.9c0.7-0.7,1.2-1.6,2.3-1.8c0.5-0.5-0.2-1.3,0.4-1.7c0.7-0.4,0.1-1.2,0.5-1.8c0.2,0,0.5-0.1,0.9-0.2
			c0.8-0.4,0.7-1.5,1.4-2.1c0-0.8,0-1.7,0-2.5c0.3-0.3,0.6-0.5,1-1c0.9,0,2.1,0,3.3,0c0-0.6,0.1-1.1,0.1-1.6
			c0.6-0.9,1.8-0.9,2.4-1.8c0-0.4,0-0.8,0-1.2c0.3-0.3,0.7-0.7,1-0.9c0.9-0.1,1.1,0.6,1.5,1C667.9,424.6,667.9,425,667.9,425.5z
			 M673.8,428.3c-0.3-0.4-0.5-0.7-0.8-1.1c0.3-0.3,0.6-0.6,0.9-0.9c0.3,0.3,0.6,0.6,0.9,0.9C674.5,427.6,674.3,427.9,673.8,428.3z"
			/>
		<path class="st0" d="M736.3,337.3C736.4,337.3,736.4,337.3,736.3,337.3C736.4,337.3,736.4,337.3,736.3,337.3
			C736.4,337.3,736.4,337.3,736.3,337.3z"/>
		<path class="st0" d="M714.9,407.3c0-0.2,0-0.4,0-0.6c0-0.1-0.1-0.1-0.2-0.3c-0.7,0-1.4,0-2.2,0c0,1,0,1.9,0,2.5
			c-0.5,1.2-1.8,1-2.3,1.8c-0.5,0.8-0.9,1.7-1.3,2.5c-1.3,0-1.3,0-1.5,0.3c0,0.8,0,1.7,0,2.5c0.2,0.2,0.4,0.5,0.6,0.7
			c0.1,0.5-0.2,1.1,0.3,1.5c1,0,2,0,3,0c0.1,0,0.2-0.1,0.4-0.3c0-0.3-0.1-0.7,0-1.1c0.1-0.4,0.5-0.6,0.6-1c0.1-0.5,0-1,0-1.6
			c0-0.2,0.2-0.3,0.3-0.5c0.6,0,1.2,0,1.9,0c0.3-0.4,0.9-0.6,1-1.4c-0.1-0.2-0.4-0.5-0.7-0.9C714.9,410.2,714.9,408.7,714.9,407.3z"
			/>
		<path class="st0" d="M738.4,254c0.4,0,0.8,0,1.2,0c0.2,0.2,0.5,0.4,0.7,0.6c0.4,0,0.9,0,1.3,0c0.3-0.3,0.6-0.6,0.9-0.9
			c0-0.4,0-0.8,0-1.2c-0.4-0.4-0.6-1.1-1.5-1c-0.2,0.2-0.4,0.4-0.8,0.7c-0.8,0-1.7,0-2.5,0C737.1,253.3,738.1,253.5,738.4,254z"/>
		<path class="st0" d="M324.7,386.3c-0.3,0.4-0.6,0.7-0.9,0.9c0.4,1,0.8,1.7,1.3,2.1c0.2-0.1,0.4-0.1,0.5-0.2
			c0.5-0.5,1.2-0.9,1.3-1.5c-0.4-0.7-0.7-1.2-0.8-1.5C325.5,386.3,325.1,386.3,324.7,386.3z"/>
		<path class="st0" d="M724.5,319.1c-0.6,0.3-1.3-0.2-2,0.3c0,0.4,0,0.9,0,1.5c0.5,0.1,0.6,0.8,1.2,0.5c0.5-0.2,0.9-0.4,1.3-0.6
			C724.9,320.1,725.2,319.5,724.5,319.1z"/>
		<path class="st0" d="M733.3,304.1c0.2,0,0.4,0,0.7,0c0.3-0.4,1.1-0.6,0.9-1.7c-0.2-0.1-0.6-0.4-1.3-0.8c-0.1,0-0.2,0-0.4,0
			C733.1,302.5,732.9,303.3,733.3,304.1z"/>
		<path class="st0" d="M611.1,410.6c0.6,0.1,1.2,0.4,1.7-0.2c0-0.2,0-0.4,0-0.6c-0.5-0.4-0.7-1.3-2-0.7
			C611.1,409.6,610.6,410.2,611.1,410.6z"/>
		<path class="st0" d="M349.2,162.5c-1,0-2.1,0-3.1,0c-0.1,0-0.2,0.1-0.5,0.4c3,0.3,3,0.3,3.8-0.2
			C349.4,162.7,349.3,162.5,349.2,162.5z"/>
	</g>
	<path class="st0" d="M339.4,402.6c0,0,15.1-19.2,37.1-34.3l12.4,9.6l-9.6,26.1l-30.2,9.6L339.4,402.6z"/>
	<path class="st0" d="M424.5,368.3l9.6-5.5c0,0,15.1-1.4,42.6,17.9l-5.5,9.6l-30.2,1.4L424.5,368.3z"/>
	<path class="st0" d="M461.6,446.6c0,0,13.7-8.2,23.3-22h12.4c0,0,2.7,28.8-17.9,56.3h-13.7C465.7,480.9,467.1,463,461.6,446.6z"/>
	<path class="st0" d="M405.3,487.8c0,0-9.6,12.4-24.7,16.5l4.1,13.7l37.1,1.4c0,0,8.2-4.1,15.1-16.5
		C436.9,502.9,417.7,498.7,405.3,487.8z"/>
	<path class="st0" d="M338,438.3l22,17.9l-5.5,31.6h-13.7c0,0-12.4-12.4-13.7-42.6L338,438.3z"/>
	<path class="st0" d="M388.8,413.6c0,0-11,26.1-12.4,37.1c0,0,23.3,13.7,31.6,24.7c0,0,19.2-20.6,38.5-28.8c0,0-13.7-33-15.1-41.2
		C431.4,405.4,408.1,412.2,388.8,413.6z"/>
</g>
</svg>
