<?xml version="1.0" encoding="utf-8"?>
<!-- Generator: Adobe Illustrator 22.1.0, SVG Export Plug-In . SVG Version: 6.00 Build 0)  -->
<svg version="1.1" id="图层_1" xmlns="http://www.w3.org/2000/svg" xmlns:xlink="http://www.w3.org/1999/xlink" x="0px" y="0px"
	 viewBox="0 0 800 800" style="enable-background:new 0 0 800 800;" xml:space="preserve">
<style type="text/css">
	.st0{fill-rule:evenodd;clip-rule:evenodd;fill:#F08300;}
	.st1{fill-rule:evenodd;clip-rule:evenodd;fill:#FFFFFF;}
	.st2{fill:#FFFFFF;}
</style>
<g>
	<path class="st0" d="M400.8,50c-97.4,0-199.7,19.2-304.1,56.4c0,13.9,0,277.7,0,277.7S77.3,638.9,400.8,750
		c32.3-10,304.1-109.4,302.6-365.9V106.4C600.6,69.2,498.3,50,400.8,50z"/>
	<path class="st1" d="M644.8,529.6L644.8,529.6l-7.9-13.2l9.4-11.1l-14.1,3.5l-7.9-13.5l-1.5,16.1l-15.4,3.9L622,521l-1.3,14.6
		l9.6-11.5L644.8,529.6 M630.2,522.7L630.2,522.7l-1.1-6.4l13.5,11.5L630.2,522.7 M635.7,516.5L635.7,516.5l-6.7-0.2l14.8-9.4
		L635.7,516.5 M631.6,509.5L631.6,509.5l-2.6,6.9l-4-18.5L631.6,509.5 M623.7,511.8L623.7,511.8l5.4,4.6l-18.4-1.2L623.7,511.8
		 M622.9,519.8L622.9,519.8l6.1-3.5l-7.3,16.8L622.9,519.8 M680.2,446.1L680.2,446.1l-12.4-8.5l3.8-14.3l-11.4,9l-12.8-8.8l5.3,15.2
		l-12.2,10.1l15.8-1.2l5.2,14.2l3.8-14.6L680.2,446.1 M664.3,446.4L664.3,446.4l-3.8-5.4l17.2,4.5L664.3,446.4 M666.4,438.1
		L666.4,438.1l-5.9,2.8l9.3-14.9L666.4,438.1 M660,433.4L660,433.4l0.6,7.6l-11.2-15.2L660,433.4 M654.1,439L654.1,439l6.5,2
		l-17.2,6.6L654.1,439 M656.4,446.6L656.4,446.6l4.1-5.7l0.5,18L656.4,446.6 M685.6,356.5L685.6,356.5l-14.7-3.7l-1.4-14.7
		l-7.5,12.3l-15.4-4l10.5,12.5l-7.9,13.8l14.1-6.3l9.6,11.3l-1.1-15.1L685.6,356.5 M670.8,362.1L670.8,362.1l-5.7-3.8l17.8-1.5
		L670.8,362.1 M670,353.9L670,353.9l-5,4.4l3.8-17.1L670,353.9 M662.1,351.4L662.1,351.4l2.9,6.9l-15.8-10.1L662.1,351.4
		 M658.2,358.8L658.2,358.8l6.9-0.5l-13.7,12.4L658.2,358.8 M663.2,365.2L663.2,365.2l1.9-6.8l6.6,16.8L663.2,365.2 M666.3,270.4
		L666.3,270.4l-14.9,2.5l-7.1-12.9l-2.1,14.4l-15.3,2.2l14.4,7.6l-1.5,15.7l10.4-11.6l13.3,6.7l-7.1-13.3L666.3,270.4 M654.9,281.5
		L654.9,281.5l-6.4-1.3l15.6-8.5L654.9,281.5 M650.8,274L650.8,274l-2.4,6.2l-3.8-17.2L650.8,274 M642.7,275.4L642.7,275.4l5.8,4.8
		l-18.7-2.9L642.7,275.4 M642.3,283.4L642.3,283.4l6.2-3.2l-7.6,16.8L642.3,283.4 M649.3,287.4L649.3,287.4l-0.9-7.2l13,12.6
		L649.3,287.4 M621.3,194.3L621.3,194.3l-12.4,8.8l-11.8-8.6l4.1,13.7l-12.8,8.8l16,0.5l5.3,14.9l4.4-14.7l14.9,0.2l-12.1-8.9
		L621.3,194.3 M615.9,209.2L615.9,209.2l-6.7,1.8l10.7-14.5L615.9,209.2 M609,204.4L609,204.4l0.1,6.6l-10.4-14.3L609,204.4
		 M601.9,208.8L601.9,208.8l7.2,2.2l-18.1,5L601.9,208.8 M605.3,216.3L605.3,216.3l3.9-5.3l0.1,18.3L605.3,216.3 M613.3,217l-4.2-6
		l17.3,5.8L613.3,217L613.3,217z"/>
	<path class="st1" d="M154.6,529.6l14.5-5.4l9.7,11.5l-1.3-14.6l14.5-5.8l-15.4-3.9l-1.5-16.1l-7.9,13.5l-14.1-3.5l9.4,11.1
		L154.6,529.6L154.6,529.6 M169.3,522.7l-12.4,5.1l13.6-11.5L169.3,522.7L169.3,522.7 M163.8,516.5l-8.2-9.6l14.8,9.4L163.8,516.5
		L163.8,516.5 M167.8,509.5l6.6-11.7l-4,18.5L167.8,509.5L167.8,509.5 M175.8,511.8l13.1,3.3l-18.4,1.2L175.8,511.8L175.8,511.8
		 M176.5,519.8l1.1,13.3l-7.3-16.8L176.5,519.8L176.5,519.8 M119.2,446.1l15.1,1.2l3.8,14.6l5.2-14.2l15.8,1.2l-12.2-10.1l5.3-15.2
		l-12.9,8.8l-11.4-9l3.8,14.3L119.2,446.1L119.2,446.1 M135.1,446.4l-13.4-1l17.2-4.5L135.1,446.4L135.1,446.4 M133,438.1l-3.3-12.1
		l9.2,14.9L133,438.1L133,438.1 M139.4,433.4l10.6-7.6l-11.2,15.2L139.4,433.4L139.4,433.4 M145.3,439l10.8,8.5l-17.2-6.6L145.3,439
		L145.3,439 M143,446.6l-4.6,12.3l0.5-18L143,446.6L143,446.6 M113.8,356.5l13.8,6.2l-1.1,15.1l9.6-11.3l14.1,6.3l-8-13.8l10.5-12.5
		l-15.4,4l-7.5-12.3l-1.4,14.7L113.8,356.5L113.8,356.5 M128.6,362.1l-12.1-5.3l17.8,1.5L128.6,362.1L128.6,362.1 M129.3,353.9
		l1.2-12.6l3.8,17.1L129.3,353.9L129.3,353.9 M137.3,351.4l12.9-3.2l-15.8,10.1L137.3,351.4L137.3,351.4 M141.2,358.8l6.8,11.9
		l-13.7-12.4L141.2,358.8L141.2,358.8 M136.2,365.2l-8.5,10l6.6-16.8L136.2,365.2L136.2,365.2 M133.1,270.4l10,11.2l-7.1,13.3
		l13.3-6.7l10.4,11.6l-1.5-15.7l14.4-7.6l-15.3-2.2l-2-14.4l-7.1,12.9L133.1,270.4L133.1,270.4 M144.5,281.5l-9.2-9.8l15.6,8.5
		L144.5,281.5L144.5,281.5 M148.6,274l6.2-11l-3.8,17.2L148.6,274L148.6,274 M156.7,275.4l12.9,1.9l-18.7,2.9L156.7,275.4
		L156.7,275.4 M157.1,283.4l1.4,13.6l-7.6-16.8L157.1,283.4L157.1,283.4 M150.1,287.4l-12.1,5.4l13-12.6L150.1,287.4L150.1,287.4
		 M178.1,194.3l4.4,14.7l-12.2,8.9l14.9-0.2l4.4,14.7l5.3-14.9l16-0.5l-12.8-8.8l4.1-13.7l-11.8,8.6L178.1,194.3L178.1,194.3
		 M183.6,209.2l-4-12.6l10.7,14.5L183.6,209.2L183.6,209.2 M190.4,204.4l10.3-7.8L190.3,211L190.4,204.4L190.4,204.4 M197.5,208.8
		l10.9,7.2l-18.1-5L197.5,208.8L197.5,208.8 M194.1,216.3l-4,13l0.1-18.3L194.1,216.3L194.1,216.3 M186.1,217l-13.1-0.2l17.3-5.8
		L186.1,217L186.1,217z"/>
	<g>
		<g>
			<g>
				<path class="st2" d="M250.3,327.7c0,0,1.2-10.3,9.3-6c8.1,4.3,10.8,10.6,5.8,12.4c-5,1.8-10.3,0.8-10.3,0.8l1.6,8
					c0,0,2.5,3.8,11,0c8.4-3.8,6.6-5.2,12.5-5.3c5.9-0.1,22-5.4,23-12.6c1-7.3,5-1.8,4.2,2.8c-0.7,4.7-5.3,13.9-26.5,18.1
					c-28.4,5.6-59.8,62.8,2.3,90.5c0,0-38.2-42.1,6.5-63c0,0,9-3.4,31.3-5.9c0,0,24.4-40.9-12-74.5l-4.2-11.8c0,0-3.4,0.4-5.5,3.5
					l-13,3.5c0,0-14.9-3.5-26,7c0,0,1,3.7-3.2,4.8c-4.2,1.1-11.7,6.6-14,7.2c-2.3,0.6-1.2,2.8-2.8,4.2c-1.6,1.4-1.2,4.8-0.3,8.1
					c0.9,3.3,2.6,5.8,4.4,5.3C246.4,324.3,250.3,327.7,250.3,327.7z"/>
				<path class="st2" d="M251.1,414.1c0,0,13.5,20.8,26.2,23.3c0,0-25.3,5.8-35.9-3.8c-10.5-9.6-21.7-16.1-27.5-17
					c-5.7-0.9-10.8-12.5-10.8-12.5l-2.8,0.7l-4.2-15.8c0,0,16.4-1.9,18.6,8c2.2,9.9,2.3,10.3,9.6,13.4
					C231.5,413.4,244.2,409,251.1,414.1z"/>
				<path class="st2" d="M299.2,485.9c0,0,15.2-2.6,16.2-0.9l9.8-2.6c0,0,7.1-29.3,28.4-42.5c0,0-3.3-6.6-4.3-12.3
					c-1-5.7-2.4-20.3-11-24.4c-8.6-4.2-7.7-8.4-0.9-5.2c6.8,3.1,11.5,5.9,17,26.3c0,0,25-1.2,38.1-21.2
					c13.1-19.9,23.7-34.2,4.9-91.4c0,0,25.4-11.3,25-31.1c-0.3-19.8,0.5-28,14-27.7c0,0,2.4,12.8,7.1,13.5l14.4-3.9l-3.4-12.5
					c0,0-12-3.8-14.2-6.6c-2.3-2.9-18.5,3.5-18.5,3.5s-19,3.6-18.6,25.4l-36.7,9.8c0,0,18.6-12.4,20.1-34.8
					c1.5-22.3-1.9-36.8,20.3-43.3c0,0,4.2-2.1,3.2-5.8c-1-3.7-4.6-5-6.7-4.4c-2.1,0.6-19.8,3.3-23.8,18.8
					c-4.1,15.5,1.6,31.9-3.7,41.1c-5.3,9.1-16.2,20.3-19,24.8c-2.8,4.5-5.5,11.9-2.5,24.3c3.1,12.4,7,19.5,9.8,22.8
					c2.8,3.2,8.4,19.4,6.8,26.3c-1.6,6.9-14,18.4-24.7,20.3c-10.7,1.9-19.8-2.4-33-0.4c-13.1,2-26.7,3.7-35.1,16.6
					c-8.5,13-1.4,39.2,13.2,48.5c14.7,9.3,37.2,2.2,37.2,2.2s5.8-2.5,2.9,3.4c-2.9,6-12.8,20.1-13.5,23.8c-0.8,3.7-6.2,2.2-6.2,2.2
					s-4.7,0.2-7.7,1.1c-3,0.8-5.2,2.9-6,5.6C297.6,477.9,298.2,484.9,299.2,485.9z"/>
				<path class="st2" d="M411.3,361.5c0,0-0.7-24.7-5.1-34.7c0,0,9.2-1,9.2-7.5c0-6.5,1.2-12.3,8.5-12.7s11.4,9.1,24.2,8.5
					c12.8-0.7,11.4-1.3,11.4-1.3l7.1,26.5c0,0-3,10-13.3-1.2c-10.2-11.2-5.9-12.6-11.4-14.6c-5.5-2-10.2-2.7-13.9,1
					c-3.7,3.7,1,11.9,0.8,17C428.7,347.4,422.4,358.5,411.3,361.5z"/>
			</g>
			<g>
				<path class="st2" d="M549.7,479.8c0,0-1.2,10.3-9.4,6c-8.1-4.3-10.8-10.6-5.8-12.4c5-1.8,10.3-0.8,10.3-0.8l-1.7-8
					c0,0-2.5-3.8-11,0c-8.4,3.7-6.6,5.2-12.5,5.3c-6,0.1-22,5.4-23,12.6c-1,7.3-5,1.8-4.3-2.8c0.7-4.7,5.3-13.9,26.5-18.1
					c28.4-5.6,59.8-62.8-2.4-90.5c0,0,38.2,42-6.5,63c0,0-9.1,3.4-31.3,5.9c0,0-24.4,40.9,12,74.5l4.2,11.8c0,0,3.4-0.4,5.5-3.5
					l13-3.5c0,0,14.9,3.5,26-7c0,0-1-3.7,3.2-4.8c4.2-1.1,11.7-6.6,14-7.2c2.3-0.6,1.2-2.8,2.8-4.2c1.6-1.4,1.2-4.8,0.3-8.1
					c-0.9-3.3-2.5-5.8-4.4-5.3C553.6,483.2,549.7,479.8,549.7,479.8z"/>
				<path class="st2" d="M548.9,393.3c0,0-13.5-20.8-26.2-23.4c0,0,25.3-5.8,35.9,3.8c10.6,9.6,21.7,16.1,27.5,17.1
					c5.7,0.9,10.8,12.5,10.8,12.5l2.8-0.7l4.2,15.8c0,0-16.4,1.9-18.6-8c-2.1-9.9-2.3-10.3-9.6-13.4
					C568.5,394.1,555.8,398.5,548.9,393.3z"/>
				<path class="st2" d="M500.8,321.6c0,0-15.2,2.6-16.2,0.9l-9.8,2.6c0,0-7.1,29.3-28.4,42.5c0,0,3.3,6.6,4.3,12.3
					c1,5.7,2.4,20.3,11,24.4c8.6,4.2,7.7,8.4,0.9,5.2c-6.8-3.1-11.5-5.9-17-26.3c0,0-25.1,1.2-38.2,21.2
					c-13.1,19.9-23.7,34.2-4.9,91.4c0,0-25.4,11.3-25,31.1c0.3,19.8-0.5,28-14,27.7c0,0-2.4-12.8-7.1-13.6l-14.4,3.9l3.4,12.5
					c0,0,12,3.8,14.2,6.7c2.3,2.9,18.5-3.5,18.5-3.5s19-3.6,18.6-25.4l36.7-9.8c0,0-18.6,12.4-20.1,34.8
					c-1.5,22.3,1.9,36.8-20.3,43.3c0,0-4.2,2.1-3.2,5.8c1,3.7,4.6,5,6.7,4.4c2.1-0.6,19.8-3.3,23.8-18.8c4.1-15.5-1.6-31.9,3.7-41.1
					c5.3-9.1,16.2-20.3,19-24.8c2.8-4.5,5.5-11.9,2.5-24.3c-3.1-12.4-7-19.5-9.8-22.7c-2.9-3.2-8.4-19.4-6.8-26.3
					c1.6-6.9,14-18.4,24.7-20.3c10.7-1.9,19.8,2.4,33,0.4c13.1-2,26.7-3.7,35.1-16.6c8.5-13,1.4-39.2-13.2-48.5
					c-14.7-9.3-37.2-2.2-37.2-2.2s-5.8,2.6-2.9-3.4c2.9-6,12.8-20.1,13.5-23.8c0.8-3.7,6.1-2.1,6.1-2.1s4.7-0.2,7.7-1.1
					c3-0.8,5.2-2.9,6-5.6C502.5,329.6,501.8,322.6,500.8,321.6z"/>
				<path class="st2" d="M388.7,446c0,0,0.7,24.7,5.1,34.7c0,0-9.2,1-9.2,7.5c0,6.5-1.2,12.3-8.5,12.7c-7.3,0.5-11.4-9.1-24.2-8.5
					c-12.8,0.7-11.4,1.3-11.4,1.3l-7.1-26.5c0,0,3-10,13.3,1.2c10.2,11.2,5.9,12.6,11.4,14.6c5.5,2,10.2,2.7,13.9-1
					c3.7-3.7-0.9-11.9-0.8-17C371.4,460.1,377.6,449,388.7,446z"/>
			</g>
		</g>
	</g>
	<path class="st1" d="M399.9,454.8c28.1,0,51.1-23,51.1-51c0-28.1-23-51.1-51.1-51.1c-28,0-50.9,23-50.9,51.1
		C349,431.8,371.9,454.8,399.9,454.8L399.9,454.8z"/>
	<path class="st0" d="M399.9,451.2c26.2,0,47.6-21.4,47.6-47.4c0-26.2-21.4-47.6-47.6-47.6c-26.1,0-47.4,21.4-47.4,47.6
		C352.5,429.9,373.8,451.2,399.9,451.2L399.9,451.2z"/>
	<g>
		<path class="st2" d="M224.9,561.4c-1,1-2,2-3.2,3.1c-1.1,1.1-2.9,2.9-5.3,5.2c-1.2,1.2-2.5,2.5-3.9,3.9c-1.4,1.4-2.9,2.9-4.3,4.3
			c-1.1,1.1-2.2,1.9-3.4,2.6c-1.2,0.7-2.5,1-3.9,1.2c-1.4,0.1-3-0.2-4.8-0.8c-1.8-0.7-3.7-1.9-5.9-3.6l2.1-2.9
			c1.5,1.2,2.8,2.1,3.8,2.6c1,0.6,2.1,0.9,3.2,0.9c1,0,2.1-0.2,3-0.7c1-0.5,2.1-1.3,3.2-2.5c1.3-1.3,2.5-2.5,3.8-3.8
			c1.2-1.2,2.4-2.4,3.5-3.5c2.6-2.6,4.6-4.6,5.7-5.8c1.2-1.2,2.3-2.3,3.3-3.3L224.9,561.4z"/>
		<path class="st2" d="M233.3,597.3c-1.3,1.6-2.8,2.8-4.5,3.8c-1.7,1-3.5,1.5-5.4,1.7c-1.6,0.1-3.1,0-4.6-0.5
			c-1.5-0.5-2.9-1.2-4.2-2.4c-1.3-1.1-2.3-2.3-3.1-3.7c-0.8-1.4-1.2-2.9-1.4-4.4c-0.2-1.8,0-3.7,0.6-5.6c0.6-1.9,1.6-3.6,2.9-5.3
			c1.3-1.5,2.7-2.8,4.2-3.7c1.5-0.9,3.3-1.4,5.1-1.7c1.7-0.2,3.3-0.1,4.9,0.4c1.6,0.5,3.1,1.3,4.4,2.4c1.4,1.2,2.5,2.4,3.2,3.8
			c0.8,1.4,1.2,3,1.3,4.6c0.2,1.9-0.1,3.7-0.7,5.5C235.6,594.1,234.6,595.8,233.3,597.3z M230,594.8c1-1.3,1.9-2.7,2.4-4.2
			c0.6-1.5,0.8-3.1,0.6-4.6c-0.1-0.9-0.4-1.8-0.9-2.7c-0.5-0.9-1.1-1.6-1.9-2.3c-0.9-0.8-1.9-1.3-2.8-1.6c-0.9-0.3-2-0.3-3.1-0.2
			c-1.3,0.1-2.6,0.6-4,1.4c-1.3,0.8-2.5,1.8-3.5,3c-1.1,1.4-2,2.8-2.5,4.3c-0.5,1.5-0.7,3-0.4,4.6c0.1,0.9,0.5,1.8,0.9,2.6
			c0.5,0.8,1.1,1.5,1.9,2.2c0.8,0.7,1.8,1.2,2.7,1.5c1,0.3,2,0.4,3,0.3c1.4-0.1,2.8-0.6,4.1-1.4C227.8,597,229,596,230,594.8z"/>
		<path class="st2" d="M248.3,623.5l-3.4-2.3c0.3-0.4,1.2-1.7,2.7-4c1.5-2.3,2.5-3.7,2.9-4.2c0.5-0.8,1.3-1.9,2.2-3.3
			c1-1.5,1.7-2.6,2.2-3.2c1.1-1.7,1.5-3.1,1.4-4.2c-0.1-1.1-0.9-2.2-2.4-3.2c-0.9-0.6-2.2-1.1-3.8-1.5c-1.7-0.4-3.4-0.6-5.3-0.7
			c-0.1,0.2-0.7,1-1.7,2.6c-1.1,1.6-2,3-2.9,4.3c-1.1,1.7-2.5,3.7-4.1,6.2c-1.6,2.4-2.4,3.7-2.5,3.8l-3.4-2.3c0.1-0.1,0.7-1,1.8-2.6
			c1.2-1.7,2.8-4.1,5.1-7.5c1-1.5,2.2-3.3,3.6-5.4c1.4-2.1,2.8-4.3,4.3-6.6l3.3,2.2l-1.7,2.5l0,0.1c2.8,0.2,5,0.6,6.7,1
			c1.7,0.5,3,1,3.9,1.6c1.8,1.2,2.9,2.8,3.3,4.7c0.3,1.9-0.2,3.9-1.6,5.9c-1.2,1.8-2.3,3.4-3.2,4.7c-0.9,1.3-1.6,2.4-2.2,3.2
			c-0.9,1.3-2,3-3.3,5C249,622.4,248.3,623.4,248.3,623.5z"/>
		<path class="st2" d="M282.4,627.3c-0.9,1.8-2.2,3.3-3.7,4.6c-1.5,1.3-3.2,2.2-5,2.7c-1.5,0.4-3.1,0.6-4.6,0.4
			c-1.5-0.2-3-0.7-4.6-1.5c-1.5-0.8-2.7-1.8-3.7-3c-1-1.2-1.8-2.6-2.3-4.1c-0.6-1.7-0.7-3.6-0.5-5.6c0.2-2,0.9-3.9,1.8-5.7
			c0.9-1.8,2.1-3.2,3.4-4.4c1.3-1.2,2.9-2.1,4.7-2.6c1.6-0.5,3.3-0.7,4.9-0.6c1.7,0.2,3.3,0.7,4.8,1.5c1.6,0.8,2.9,1.9,3.9,3.1
			c1,1.2,1.8,2.7,2.2,4.2c0.5,1.9,0.7,3.7,0.4,5.5C284,623.6,283.4,625.4,282.4,627.3z M278.6,625.4c0.8-1.4,1.3-3,1.6-4.6
			c0.3-1.6,0.2-3.2-0.3-4.6c-0.3-0.9-0.8-1.7-1.4-2.5c-0.7-0.8-1.4-1.4-2.3-1.9c-1.1-0.6-2.1-0.9-3-1c-1-0.1-2,0-3.1,0.4
			c-1.3,0.4-2.5,1.1-3.6,2.1c-1.2,1-2.1,2.3-2.9,3.6c-0.8,1.6-1.4,3.1-1.6,4.7c-0.2,1.6-0.1,3.1,0.5,4.6c0.3,0.9,0.8,1.6,1.4,2.4
			c0.6,0.7,1.4,1.3,2.3,1.7c1,0.5,2,0.8,3,1c1,0.1,2,0,3-0.3c1.4-0.4,2.6-1.1,3.7-2.1C277,628,277.9,626.8,278.6,625.4z"/>
		<path class="st2" d="M308.5,638.3c-0.8,1.9-1.9,3.5-3.3,4.9c-1.4,1.4-3,2.5-4.7,3.2c-1.5,0.6-3,0.8-4.5,0.8c-1.5,0-3.1-0.4-4.7-1
			c-1.5-0.6-2.9-1.5-4-2.6c-1.1-1.1-2-2.4-2.7-3.8c-0.7-1.7-1.1-3.5-1-5.5c0-2,0.5-4,1.3-5.9c0.8-1.8,1.8-3.4,3-4.7
			c1.2-1.3,2.7-2.4,4.4-3.1c1.5-0.7,3.2-1,4.9-1c1.7,0,3.3,0.3,4.9,1c1.7,0.7,3.1,1.6,4.2,2.7c1.1,1.1,2,2.5,2.6,4
			c0.7,1.8,1,3.6,0.9,5.4C309.7,634.5,309.3,636.4,308.5,638.3z M304.6,636.8c0.6-1.5,1-3.1,1.1-4.7c0.1-1.6-0.2-3.2-0.8-4.6
			c-0.4-0.9-0.9-1.7-1.7-2.3c-0.7-0.7-1.5-1.2-2.5-1.6c-1.1-0.5-2.1-0.7-3.1-0.7c-1,0-2,0.2-3,0.7c-1.2,0.5-2.3,1.4-3.4,2.5
			c-1.1,1.1-1.9,2.4-2.5,3.9c-0.7,1.6-1.1,3.3-1.1,4.8c-0.1,1.6,0.2,3.1,0.9,4.6c0.4,0.8,0.9,1.6,1.6,2.2c0.7,0.6,1.5,1.2,2.4,1.5
			c1,0.4,2,0.6,3.1,0.7c1,0,2-0.2,3-0.6c1.3-0.6,2.5-1.4,3.5-2.5C303.1,639.6,304,638.3,304.6,636.8z"/>
		<path class="st2" d="M330.2,658.9l-3.9-1.2c0.2-0.5,0.6-2,1.5-4.6c0.8-2.6,1.3-4.2,1.5-4.9c0.3-0.9,0.7-2.1,1.2-3.8
			c0.5-1.7,0.9-2.9,1.1-3.7c0.5-2,0.6-3.5,0.1-4.5c-0.4-1-1.5-1.8-3.2-2.3c-1-0.3-2.4-0.4-4.1-0.3c-1.7,0.1-3.4,0.4-5.3,0.9
			c-0.1,0.2-0.4,1.2-0.9,3c-0.5,1.8-1,3.5-1.5,5c-0.6,1.9-1.3,4.3-2.1,7.1c-0.8,2.8-1.2,4.2-1.3,4.4l-3.9-1.2c0-0.1,0.4-1.2,1-3.1
			c0.6-1.9,1.5-4.8,2.6-8.6c0.5-1.8,1.1-3.8,1.8-6.2c0.7-2.4,1.4-4.9,2.2-7.6l3.8,1.2l-0.9,2.9v0.1c2.8-0.6,5-0.9,6.7-1
			c1.7,0,3.1,0.1,4.2,0.4c2.1,0.6,3.6,1.8,4.5,3.6c0.9,1.7,1,3.8,0.3,6.1c-0.6,2.1-1.2,3.9-1.7,5.5c-0.5,1.5-0.8,2.8-1.1,3.7
			c-0.5,1.5-1,3.4-1.7,5.7C330.6,657.6,330.3,658.8,330.2,658.9z"/>
		<path class="st2" d="M376.6,635.4c-0.3-0.1-1.4-0.2-3.4-0.6c-2-0.3-4.4-0.7-7.2-1.1c-1.3-0.2-2.5-0.4-3.6-0.5
			c-1.1-0.2-2-0.3-2.8-0.4c-0.3,2-0.6,4.1-1,6.4c-0.4,2.3-0.7,4.3-0.9,6.1c0.2,0,0.8,0.1,1.8,0.3c1,0.1,1.9,0.3,2.8,0.4
			c2.8,0.4,5.5,0.8,8,1.2c2.5,0.4,3.9,0.5,4.2,0.6l-0.6,3.7c-0.3-0.1-1.9-0.3-4.8-0.8c-2.8-0.5-5.4-0.9-7.7-1.2
			c-0.7-0.1-1.5-0.2-2.5-0.4c-1-0.1-1.6-0.2-1.8-0.3c-0.5,3-0.9,5.9-1.3,8.7c-0.4,2.7-0.7,4.9-0.9,6.6l-4.2-0.6
			c0.2-1,0.5-2.9,0.9-5.5c0.4-2.7,1-6.5,1.7-11.5c0.3-2,0.7-4.5,1.2-7.8c0.5-3.2,0.9-6.5,1.4-10c1.3,0.2,2.8,0.4,4.6,0.7
			c1.8,0.3,3.7,0.6,5.8,0.9c3,0.5,5.5,0.8,7.5,1.1c2,0.3,3.1,0.4,3.4,0.5L376.6,635.4z"/>
		<path class="st2" d="M402.8,654.9c-0.1,2-0.5,4-1.3,5.8c-0.8,1.8-1.9,3.4-3.4,4.6c-1.2,1.1-2.5,1.8-3.9,2.3
			c-1.4,0.5-3,0.7-4.8,0.6c-1.7-0.1-3.2-0.4-4.7-1.1c-1.4-0.6-2.7-1.5-3.8-2.7c-1.3-1.3-2.2-2.9-2.9-4.9c-0.7-1.9-0.9-3.9-0.8-6
			c0.1-2,0.5-3.8,1.2-5.5c0.7-1.7,1.7-3.1,3.1-4.4c1.2-1.2,2.6-2,4.2-2.6c1.6-0.6,3.2-0.8,5-0.8c1.8,0.1,3.4,0.5,4.9,1.1
			c1.5,0.7,2.7,1.6,3.8,2.9c1.3,1.4,2.2,3,2.8,4.8C402.7,650.9,402.9,652.8,402.8,654.9z M398.6,654.9c0.1-1.6-0.1-3.2-0.6-4.8
			c-0.5-1.6-1.2-2.9-2.3-4c-0.7-0.7-1.4-1.2-2.4-1.6c-0.9-0.4-1.9-0.6-2.9-0.7c-1.2,0-2.3,0.1-3.2,0.4c-0.9,0.3-1.8,0.9-2.6,1.7
			c-1,0.9-1.7,2.1-2.3,3.5c-0.6,1.4-0.9,2.9-1,4.5c-0.1,1.8,0.1,3.4,0.6,4.9c0.5,1.5,1.3,2.8,2.4,4c0.6,0.6,1.4,1.1,2.3,1.5
			c0.9,0.4,1.8,0.6,2.8,0.6c1.1,0.1,2.1-0.1,3.1-0.4c1-0.3,1.8-0.9,2.6-1.5c1-1,1.9-2.2,2.4-3.6
			C398.2,657.9,398.5,656.4,398.6,654.9z"/>
		<path class="st2" d="M431.4,653c0.1,2-0.1,4-0.7,5.9c-0.6,1.9-1.5,3.6-2.8,4.9c-1.1,1.2-2.3,2.1-3.6,2.8c-1.4,0.7-2.9,1.1-4.7,1.2
			c-1.7,0.1-3.3,0-4.8-0.5c-1.5-0.5-2.9-1.2-4.1-2.2c-1.4-1.2-2.5-2.7-3.4-4.5c-0.9-1.8-1.4-3.7-1.5-5.8c-0.1-2,0-3.9,0.5-5.6
			c0.5-1.7,1.3-3.3,2.5-4.8c1.1-1.3,2.4-2.3,3.9-3.1c1.5-0.8,3.1-1.2,4.8-1.3c1.8-0.1,3.5,0,5,0.5c1.5,0.5,2.9,1.3,4.1,2.4
			c1.4,1.3,2.5,2.7,3.3,4.4C430.8,649,431.2,650.9,431.4,653z M427.2,653.4c-0.1-1.6-0.5-3.2-1.2-4.7c-0.7-1.5-1.6-2.7-2.8-3.7
			c-0.7-0.6-1.6-1.1-2.5-1.4c-1-0.3-1.9-0.4-3-0.3c-1.2,0.1-2.2,0.3-3.1,0.8c-0.9,0.5-1.7,1.1-2.4,2c-0.8,1-1.5,2.3-1.9,3.8
			c-0.4,1.5-0.6,3-0.5,4.6c0.1,1.8,0.5,3.4,1.2,4.8c0.7,1.5,1.6,2.7,2.9,3.7c0.7,0.6,1.5,1,2.4,1.2c0.9,0.3,1.9,0.4,2.9,0.3
			c1.1-0.1,2.1-0.3,3-0.8c0.9-0.5,1.7-1.1,2.4-1.9c0.9-1.1,1.6-2.4,2-3.8C427.2,656.5,427.4,655,427.2,653.4z"/>
		<path class="st2" d="M452.3,659.5l0.1,3.3c-0.1,0-0.4,0.1-0.9,0.2c-0.5,0.1-0.9,0.2-1.2,0.2c-3.5,0.6-6.3,0.3-8.4-0.8
			c-2.1-1.2-3.4-3.3-3.9-6.3c-0.3-1.9-0.7-4-1-6.2c-0.3-2.2-0.8-4.9-1.3-8.2l-4.3,0.7l-0.5-3l4.5-0.7l-1-6.2l3.8-0.6l1.1,6.2
			l9.3-1.6l0.5,3l-9.3,1.6c0.1,0.4,0.2,1.4,0.5,3.3c0.3,1.8,0.5,3.1,0.6,4c0.1,0.7,0.3,1.6,0.5,2.7c0.2,1.1,0.4,2.3,0.7,3.8
			c0.4,2.3,1.3,3.8,2.7,4.6c1.4,0.8,3.3,1,5.9,0.5c0.3,0,0.7-0.1,1.1-0.2C451.9,659.6,452.2,659.6,452.3,659.5z"/>
		<path class="st2" d="M476.7,642.7c0.7,2.8,0.7,5.3-0.1,7.7c-0.8,2.4-2.3,4.3-4.3,5.9c-1.3,1.1-2.9,2-4.8,2.8
			c-1.8,0.8-4.1,1.6-6.8,2.3c-0.4,0.1-0.8,0.2-1.1,0.3c-0.4,0.1-0.8,0.2-1.1,0.3c-0.3-1.3-0.9-3.7-1.9-7.3c-0.9-3.5-2-7.8-3.3-12.8
			c-0.8-3-1.6-6-2.4-8.8c-0.8-2.9-1.6-5.8-2.4-8.7l4-1.1l3,11.7c3.5-0.9,6.3-1.3,8.6-1.3c2.2,0,4.2,0.4,5.8,1c1.7,0.7,3.1,1.7,4.3,3
			C475.3,639.1,476.2,640.7,476.7,642.7z M472.6,643.9c-0.5-2.1-1.6-3.6-3.1-4.7c-1.5-1.1-3.3-1.7-5.3-1.8c-1-0.1-2.1-0.1-3.3,0
			c-1.1,0.1-2.3,0.3-3.5,0.6c-0.2,0.1-0.4,0.1-0.7,0.2c-0.2,0.1-0.4,0.1-0.6,0.1c0.1,0.4,0.4,1.7,1,4.1c0.6,2.3,1.1,4.3,1.5,5.8
			c0.7,2.8,1.3,4.8,1.6,6c0.3,1.2,0.7,2.3,1,3.5c1.8-0.5,3.5-1.1,5-1.8c1.5-0.7,2.7-1.5,3.6-2.4c1.4-1.3,2.3-2.8,2.7-4.4
			C473.2,647.6,473.1,645.8,472.6,643.9z"/>
		<path class="st2" d="M498,633.3c1.5,4.1,2.7,7.4,3.6,9.9c0.9,2.6,1.4,3.9,1.5,4.1c-0.2,0.1-0.9,0.5-2.2,1.1
			c-1.3,0.6-3.1,1.4-5.2,2.2c-1.3,0.5-2.8,0.9-4.2,1.1c-1.5,0.3-2.8,0.3-3.9,0.2c-1.5-0.1-2.9-0.6-4.1-1.3c-1.2-0.7-2.1-1.9-2.6-3.3
			c-0.6-1.6-0.6-3.1,0-4.6c0.5-1.5,1.5-2.9,3-4.3c0.9-0.8,2.2-1.8,3.8-2.8c1.6-1,3.6-2,5.8-3c-0.6-1.3-1.3-2.2-2.1-2.8
			c-0.8-0.6-1.9-1-3.1-1c-0.8,0-1.7,0.1-2.6,0.2c-0.9,0.2-2,0.5-3.2,1c-0.7,0.3-1.4,0.5-1.9,0.7c-0.5,0.2-1.2,0.5-2.1,0.9l-0.8-3.4
			c0.2-0.1,0.7-0.3,1.4-0.6c0.7-0.3,1.7-0.7,3-1.2c1.9-0.7,3.8-1.2,5.4-1.3c1.7-0.2,3.2,0,4.5,0.6c1.3,0.5,2.3,1.3,3.3,2.4
			C496.2,629.2,497.1,630.9,498,633.3z M496.3,640.7c-0.2-0.6-0.5-1.3-0.8-2.1c-0.3-0.9-0.7-1.9-1.1-3c-0.7,0.3-1.9,0.9-3.6,1.8
			c-1.7,0.9-3.1,1.9-4.2,2.8c-0.8,0.7-1.4,1.5-1.9,2.5c-0.5,0.9-0.5,1.9-0.1,3c0.4,1.1,1,1.9,1.9,2.4c0.9,0.5,1.9,0.7,3.1,0.6
			c0.9,0,1.9-0.1,2.9-0.4c1-0.2,2.1-0.6,3.2-1c0.3-0.1,0.7-0.3,1.2-0.5c0.5-0.2,1-0.4,1.5-0.6c0-0.1-0.2-0.7-0.6-1.6
			C497.4,643.6,496.9,642.3,496.3,640.7z"/>
		<path class="st2" d="M514,642.6l-3.7,1.7c-0.1-0.2-1.1-2.5-3-7c-2-4.5-3.6-8.2-4.9-11.2c-0.8-1.9-1.9-4.3-3.2-7.2
			c-1.3-2.9-2.8-6.2-4.4-9.7l3.7-1.7c1.1,2.5,2.3,5.3,3.7,8.6c1.4,3.2,2.6,6,3.6,8.2c2.1,4.8,4,9.1,5.7,12.7
			C513.1,640.5,513.9,642.4,514,642.6z"/>
		<path class="st2" d="M524.6,637.6l-3.7,1.8c-0.1-0.2-1.2-2.5-3.3-6.9c-2.1-4.4-3.9-8.1-5.3-11c-0.9-1.9-2.1-4.2-3.5-7.1
			c-1.4-2.8-3-6-4.8-9.6l3.7-1.8c1.2,2.4,2.5,5.2,4,8.4c1.5,3.2,2.8,5.9,3.9,8.1c2.3,4.8,4.4,8.9,6.1,12.5
			C523.6,635.5,524.5,637.4,524.6,637.6z"/>
		<path class="st2" d="M554.2,617.1l1.5,3.2c-0.1,0.1-0.3,0.2-0.6,0.3c-0.3,0.2-0.5,0.3-0.7,0.4c-1.9,1.2-3.8,2.1-5.7,2.7
			c-1.9,0.6-3.7,1-5.5,1.1c-2.4,0.1-4.6-0.4-6.6-1.4c-2-1-3.6-2.5-4.8-4.5c-1.1-1.8-1.6-3.7-1.6-5.8c0-2.1,0.5-4,1.4-5.9
			c0.8-1.7,2-3.3,3.7-4.9c1.6-1.6,3.4-3,5.4-4.2c0.2-0.1,0.3-0.2,0.5-0.3c0.2-0.1,0.3-0.2,0.4-0.3l2,2.9c-0.1,0.1-0.2,0.1-0.4,0.2
			c-0.1,0.1-0.2,0.1-0.3,0.2c-1.7,1-3,1.9-4.1,2.8c-1.1,0.9-2,1.9-2.8,3c-1.1,1.5-1.7,3.1-1.8,4.9c-0.1,1.8,0.3,3.4,1.2,4.9
			c1,1.8,2.3,3,3.8,3.7c1.5,0.7,3.2,1,4.9,0.8c1.3-0.1,2.7-0.5,4.2-1c1.4-0.6,2.9-1.3,4.4-2.2c0.2-0.1,0.5-0.3,0.8-0.5
			C553.9,617.2,554.1,617.1,554.2,617.1z"/>
		<path class="st2" d="M563.5,614.9l-3.4,2.3c-0.1-0.2-1.5-2.3-4.2-6.4c-2.7-4.1-5-7.5-6.8-10.2c-1.2-1.7-2.6-3.9-4.4-6.5
			c-1.8-2.6-3.8-5.6-6-8.8l3.4-2.3c1.5,2.2,3.2,4.8,5.2,7.8c2,3,3.6,5.4,5,7.5c3,4.4,5.6,8.2,7.8,11.5
			C562.2,613,563.4,614.7,563.5,614.9z"/>
		<path class="st2" d="M587.4,597.2l-3.2,2.4l-1.9-2.4l0,0c-0.5,1.4-1.2,3-2.1,4.8c-0.9,1.8-2.1,3.2-3.5,4.3c-1.9,1.4-3.8,2-5.7,1.7
			c-1.9-0.3-3.7-1.5-5.3-3.5c-0.9-1.1-1.9-2.4-3.1-4c-1.2-1.5-2-2.6-2.6-3.3c-1-1.3-2.2-2.8-3.6-4.6c-1.4-1.8-2.3-2.9-2.5-3.1
			l3.3-2.5c0.1,0.2,0.9,1.2,2.3,3c1.4,1.8,2.5,3.3,3.3,4.4c0.7,1,1.7,2.1,2.8,3.6c1.1,1.4,1.9,2.4,2.3,3c1.3,1.6,2.5,2.6,3.6,2.9
			c1.1,0.4,2.3,0,3.5-0.9c1.2-1,2.4-2.3,3.3-4.1c1-1.8,1.6-3.2,2-4.2c-0.1-0.2-0.7-0.9-1.8-2.3c-1.1-1.4-2.4-3.1-4-5.1
			c-1.1-1.5-2.5-3.2-4.1-5.2c-1.6-2-2.5-3.1-2.6-3.3l3.2-2.5c0.2,0.2,0.8,1,1.8,2.4c1,1.3,2.7,3.6,5.2,6.8c1.4,1.8,2.6,3.4,3.7,4.7
			C582.8,591.3,584.7,593.7,587.4,597.2z"/>
		<path class="st2" d="M601.1,565.7c2,2,3.3,4.3,3.7,6.8c0.4,2.5,0.2,4.9-0.8,7.3c-0.6,1.6-1.6,3.2-2.8,4.8
			c-1.2,1.6-2.8,3.4-4.8,5.4c-0.3,0.3-0.6,0.5-0.8,0.8c-0.3,0.3-0.6,0.5-0.8,0.8c-0.9-1-2.7-2.8-5.2-5.4c-2.5-2.6-5.6-5.8-9.2-9.5
			c-2.2-2.2-4.4-4.4-6.4-6.5c-2.1-2.1-4.2-4.2-6.4-6.4l3-2.9l8.4,8.7c2.6-2.5,4.9-4.3,6.8-5.3c2-1.1,3.8-1.8,5.6-2
			c1.8-0.3,3.6-0.1,5.2,0.5C598.1,563.2,599.6,564.2,601.1,565.7z M598.1,568.7c-1.5-1.5-3.2-2.4-5-2.6c-1.9-0.2-3.7,0.1-5.5,1
			c-0.9,0.4-1.9,1-2.8,1.7c-0.9,0.7-1.8,1.4-2.7,2.3c-0.2,0.2-0.3,0.3-0.5,0.5c-0.2,0.2-0.3,0.3-0.4,0.4c0.3,0.3,1.2,1.3,2.9,3
			c1.7,1.7,3,3.2,4.1,4.3c2.1,2.1,3.5,3.6,4.4,4.4c0.9,0.8,1.8,1.7,2.6,2.6c1.4-1.4,2.5-2.7,3.5-4c0.9-1.3,1.6-2.6,2-3.9
			c0.6-1.8,0.6-3.5,0.2-5.1C600.5,571.6,599.5,570.1,598.1,568.7z"/>
	</g>
	<g>
		<path class="st2" d="M253.2,132.5V183h0c-0.3,11-7.4,19.7-16.1,19.7v7.3c17,0,30.8-11.8,30.8-26.3v-51.3H253.2z"/>
		<path class="st2" d="M308.2,125.1c21.5-20.4,53.1-33.3,88.5-33.3c30.3,0,57.9,9.5,78.7,25c-22-19.1-52.8-30.9-86.8-30.9
			c-39.7,0-75,16.1-97.1,41c3.8-1.4,8-2.2,12.3-2.2C305.2,124.8,306.7,124.9,308.2,125.1z"/>
		<path class="st2" d="M457.4,160.3c0-16.1-13.1-29.3-29.3-29.3c-16.1,0-29.2,13.1-29.2,29.3c0,16.2,13.1,29.3,29.2,29.3
			c7,0,13.5-2.4,18.5-6.6c-2.7-3.3-4.8-7-6.2-11c-3.1,3.3-7.5,5.3-12.4,5.3c-9.3,0-16.9-7.6-16.9-17c0-9.4,7.6-17,16.9-17
			c9.4,0,17,7.6,17,17l0,0c0,16.2,13.1,29.3,29.3,29.3c16.2,0,29.3-13.1,29.3-29.3c0-16.1-13.1-29.3-29.3-29.3
			c-7,0-13.4,2.5-18.5,6.6c2.7,3.3,4.7,7,6.1,11c3.1-3.3,7.5-5.3,12.3-5.3c9.4,0,17,7.6,17,17c0,9.4-7.6,17-17,17
			C465,177.3,457.4,169.7,457.4,160.3L457.4,160.3L457.4,160.3z"/>
		<path class="st2" d="M374.7,132.5h-35.1v55.6h12.3v-43.9h19.3c4.8,0,8.8,3.9,8.8,8.8v35.1h12.3v-38.1
			C392.2,140.4,384.4,132.5,374.7,132.5z"/>
		<path class="st2" d="M545.4,132.5h-35.1v55.6h12.3v-43.9h19.3c4.8,0,8.8,3.9,8.8,8.8v35.1H563v-38.1
			C563,140.4,555.1,132.5,545.4,132.5z"/>
		<g>
			<path class="st2" d="M303.7,131.1c-16.2,0-29.3,13.1-29.3,29.3c0,16.2,13.1,29.3,29.3,29.3c16.1,0,29.3-13.1,29.3-29.3
				C333,144.2,319.9,131.1,303.7,131.1z M303.7,177.3c-9.4,0-17-7.6-17-17c0-9.4,7.6-17,17-17c9.4,0,17,7.6,17,17
				C320.7,169.7,313.1,177.3,303.7,177.3z"/>
		</g>
	</g>
	<g>
		<path class="st1" d="M378.6,366c-0.5-1.5-0.8-3-0.9-4.5c-4,2.1-7.6,4.8-10.9,7.9c1.3,0.6,2.7,1.3,3.9,2.2
			C373.1,369.5,375.8,367.6,378.6,366z"/>
		<path class="st1" d="M429.2,371.7c1.2-0.9,2.5-1.6,3.9-2.2c-3.2-3.1-6.8-5.8-10.8-7.9c-0.1,1.4-0.4,3-0.9,4.4
			C424.2,367.6,426.9,369.5,429.2,371.7z"/>
		<path class="st1" d="M442.5,412.4c-0.7,3.2-1.7,6.3-3,9.2c1.3,0.9,2.4,2,3.3,3.1c2-4,3.4-8.3,4.2-12.8
			C445.6,412.2,444,412.5,442.5,412.4z"/>
		<path class="st1" d="M400,447.1c-1.6,0-3.2-0.1-4.8-0.3c-0.4,1.5-1.1,2.9-1.9,4.1c2.2,0.3,4.4,0.5,6.7,0.5c2.3,0,4.6-0.2,6.8-0.5
			c-0.8-1.2-1.5-2.6-1.9-4.1C403.2,447,401.6,447.1,400,447.1z"/>
		<path class="st1" d="M357.5,412.4c-1.5,0-3.1-0.2-4.5-0.5c0.8,4.5,2.2,8.8,4.2,12.8c0.9-1.1,2.1-2.2,3.3-3.1
			C359.2,418.7,358.2,415.6,357.5,412.4z"/>
		<g>
			<path class="st1" d="M403,379.8c8.3,1,15.3,6.3,18.8,13.6l6.2-2c-1.6-4.2-3.9-12.1-1.6-16.4c0.3-0.6,0.7-1.1,1.1-1.6
				c-2.2-2-4.5-3.7-7.1-5.1c-0.3,0.5-0.7,1-1.2,1.5c-3.4,3.5-11.7,3.7-16.2,3.5V379.8z"/>
			<path class="st1" d="M424.1,403.7c0,6.9-2.9,13.2-7.6,17.6l3.8,5.3c3.5-2.8,10.3-7.5,15.1-6.6c0.6,0.1,1.2,0.3,1.8,0.5
				c1.2-2.6,2.1-5.4,2.7-8.3c-0.6-0.2-1.2-0.4-1.8-0.6c-4.4-2.2-7.1-10-8.3-14.3l-6.2,2C424,400.6,424.1,402.2,424.1,403.7z"/>
			<path class="st1" d="M375.9,403.7c0-1.6,0.2-3.1,0.4-4.5l-6.2-2c-1.2,4.3-4,12.1-8.3,14.3c-0.6,0.3-1.2,0.5-1.8,0.6
				c0.6,2.9,1.5,5.7,2.7,8.3c0.6-0.2,1.2-0.4,1.8-0.5c4.8-0.8,11.6,3.9,15.1,6.6l3.8-5.3C378.8,416.9,375.9,410.6,375.9,403.7z"/>
			<path class="st1" d="M411.6,424.8c-3.4,1.9-7.4,3-11.6,3c-4.2,0-8.2-1.1-11.6-3l-3.8,5.3c3.7,2.5,10.3,7.5,11,12.4
				c0.1,0.6,0.1,1.3,0.1,1.9c1.4,0.2,2.9,0.2,4.4,0.2c1.5,0,2.9-0.1,4.4-0.2c0-0.6,0-1.3,0.1-1.9c0.7-4.8,7.3-9.9,11-12.4
				L411.6,424.8z"/>
			<path class="st1" d="M372,391.4l6.2,2c3.4-7.3,10.5-12.6,18.8-13.6v-6.5c-4.5,0.2-12.8,0-16.2-3.5c-0.4-0.5-0.8-1-1.2-1.5
				c-2.5,1.5-4.9,3.2-7.1,5.1c0.4,0.5,0.8,1,1.1,1.6C375.9,379.3,373.6,387.2,372,391.4z"/>
		</g>
	</g>
	<path class="st2" d="M384.9,710c1.3,0.8,2.8,1.2,4.3,1.2c2.2,0,3.9-0.9,5.1-2.6s1.8-4.2,1.8-7.3c0,0,0,0-0.1,0
		c-1.1,2-2.9,3.1-5.4,3.1c-2,0-3.7-0.7-5.1-2.1c-1.3-1.4-2-3.2-2-5.5c0-2.4,0.7-4.4,2.2-5.9c1.5-1.5,3.4-2.3,5.7-2.3
		c2.4,0,4.3,1,5.7,2.9s2,4.7,2,8.3c0,4.5-0.9,8-2.6,10.4c-1.8,2.4-4.2,3.6-7.3,3.6c-1.7,0-3.2-0.3-4.3-0.8V710z M386.6,696.4
		c0,1.6,0.4,2.9,1.3,3.9c0.8,1,2,1.4,3.5,1.4c1.3,0,2.4-0.4,3.2-1.3c0.9-0.9,1.3-1.9,1.3-3.2c0-1.8-0.4-3.2-1.3-4.4
		c-0.9-1.1-2-1.7-3.4-1.7c-1.3,0-2.4,0.5-3.3,1.5S386.6,694.9,386.6,696.4z"/>
	<path class="st2" d="M403.8,710c1.3,0.8,2.8,1.2,4.3,1.2c2.2,0,3.9-0.9,5.1-2.6c1.2-1.7,1.8-4.2,1.8-7.3c0,0,0,0-0.1,0
		c-1.1,2-2.9,3.1-5.4,3.1c-2,0-3.7-0.7-5.1-2.1c-1.3-1.4-2-3.2-2-5.5c0-2.4,0.7-4.4,2.2-5.9c1.5-1.5,3.4-2.3,5.7-2.3
		c2.4,0,4.3,1,5.7,2.9c1.4,1.9,2,4.7,2,8.3c0,4.5-0.9,8-2.6,10.4c-1.8,2.4-4.2,3.6-7.3,3.6c-1.7,0-3.2-0.3-4.3-0.8V710z
		 M405.5,696.4c0,1.6,0.4,2.9,1.3,3.9c0.8,1,2,1.4,3.5,1.4c1.3,0,2.4-0.4,3.2-1.3c0.9-0.9,1.3-1.9,1.3-3.2c0-1.8-0.4-3.2-1.3-4.4
		c-0.9-1.1-2-1.7-3.4-1.7c-1.3,0-2.4,0.5-3.3,1.5S405.5,694.9,405.5,696.4z"/>
	<path class="st2" d="M422,709.3c1.7,1.3,3.6,1.9,5.6,1.9c1.7,0,3-0.4,4-1.2c1-0.8,1.5-1.9,1.5-3.3c0-3.1-2.2-4.6-6.6-4.6h-2v-2.5
		h1.9c3.9,0,5.9-1.4,5.9-4.3c0-2.7-1.5-4-4.5-4c-1.7,0-3.3,0.6-4.8,1.7v-2.9c1.6-0.9,3.5-1.4,5.6-1.4c2.1,0,3.7,0.5,5,1.6
		c1.3,1.1,1.9,2.5,1.9,4.2c0,3.2-1.6,5.2-4.9,6.2v0.1c1.8,0.2,3.2,0.8,4.2,1.9c1,1.1,1.5,2.4,1.5,3.9c0,2.2-0.8,4-2.4,5.3
		c-1.6,1.3-3.7,2-6.3,2c-2.3,0-4.2-0.4-5.6-1.3V709.3z"/>
	<path class="st2" d="M375.1,710.3v-21.9h-1.2c-0.8,0.7-1.9,1.4-3.4,2.2c-1.5,0.8-2.8,1.4-4.1,1.7v3c1-0.2,2-0.7,3.2-1.3
		c1.1-0.6,2-1.1,2.4-1.6v17.8h-5.2v3h5.2h3.1h5.3v-3H375.1z"/>
</g>
</svg>
