<?xml version="1.0" encoding="utf-8"?>
<!-- Generator: Adobe Illustrator 22.1.0, SVG Export Plug-In . SVG Version: 6.00 Build 0)  -->
<svg version="1.1" id="图层_1" xmlns="http://www.w3.org/2000/svg" xmlns:xlink="http://www.w3.org/1999/xlink" x="0px" y="0px"
	 viewBox="0 0 800 800" style="enable-background:new 0 0 800 800;" xml:space="preserve">
<style type="text/css">
	.st0{fill:#F08300;}
</style>
<g>
	<path class="st0" d="M400.8,50c-97.4,0-199.7,19.2-304.1,56.4c0,13.9,0,277.7,0,277.7S77.3,638.9,400.8,750
		c32.3-10,304.1-109.4,302.6-365.9V106.4C600.6,69.2,498.3,50,400.8,50z M654.4,544.1c-22.5,39.8-54.4,76.6-94.6,109.1
		c-70.8,57.4-144.4,83.5-158.9,88.3c-71.4-24.8-131.4-58.9-178.3-101.2c-37.8-34.1-67.3-73.7-87.5-117.6
		c-18.1-39.1-25.4-74.6-28.3-97.4c-3.2-24.8-2.1-40.6-2.1-40.7l0-0.3v-0.3V112c102.2-35.8,201.7-54,296.1-54
		c94.9,0,193.9,18.2,294.6,54l0,272.1C695.8,441.5,682,495.4,654.4,544.1z"/>
	<polygon class="st0" points="632.3,508.7 624.3,495.1 622.8,511.2 607.5,515.1 622,521 620.7,535.6 630.3,524.1 644.8,529.6 
		637,516.3 646.4,505.2 	"/>
	<polygon class="st0" points="671.6,423.3 660.2,432.3 647.3,423.6 652.7,438.8 640.4,448.9 656.2,447.7 661.4,461.9 665.1,447.3 
		680.2,446.1 667.8,437.6 	"/>
	<polygon class="st0" points="669.5,338.1 662,350.4 646.6,346.4 657.2,358.9 649.2,372.7 663.3,366.4 673,377.8 671.9,362.7 
		685.6,356.5 670.9,352.8 	"/>
	<polygon class="st0" points="641.3,284.2 639.8,299.9 650.2,288.3 663.4,294.9 656.3,281.6 666.3,270.4 651.4,272.9 644.3,259.9 
		642.2,274.4 626.9,276.5 	"/>
	<polygon class="st0" points="604.4,217.4 609.7,232.4 614.1,217.7 629,217.9 616.9,209 621.3,194.3 608.9,203.1 597.1,194.5 
		601.2,208.1 588.4,216.9 	"/>
	<polygon class="st0" points="191.9,515.1 176.6,511.2 175.1,495.1 167.1,508.7 153,505.2 162.4,516.3 154.6,529.6 169.1,524.1 
		178.7,535.6 177.4,521 	"/>
	<polygon class="st0" points="146.8,438.8 152.1,423.6 139.2,432.3 127.8,423.3 131.6,437.6 119.2,446.1 134.3,447.3 138,461.9 
		143.2,447.7 159,448.9 	"/>
	<polygon class="st0" points="126.4,377.8 136.1,366.4 150.2,372.7 142.3,358.9 152.8,346.4 137.4,350.4 129.9,338.1 128.5,352.8 
		113.8,356.5 127.5,362.7 	"/>
	<polygon class="st0" points="136,294.9 149.2,288.3 159.6,299.9 158.1,284.2 172.5,276.5 157.2,274.4 155.1,259.9 148,272.9 
		133.1,270.4 143.1,281.6 	"/>
	<polygon class="st0" points="185.3,217.7 189.7,232.4 195,217.4 211,216.9 198.2,208.1 202.3,194.5 190.6,203.1 178.1,194.3 
		182.6,209 170.4,217.9 	"/>
	<path class="st0" d="M281.1,345.8c-28.4,5.6-59.8,62.8,2.3,90.5c0,0-38.2-42.1,6.5-63c0,0,9-3.4,31.3-5.9c0,0,24.4-40.9-12-74.5
		l-4.2-11.8c0,0-3.4,0.4-5.5,3.5l-13,3.5c0,0-14.9-3.5-26,7c0,0,1,3.7-3.2,4.8c-4.2,1.1-11.7,6.6-14,7.2c-2.3,0.6-1.2,2.8-2.8,4.2
		c-1.6,1.4-1.2,4.8-0.3,8.1c0.9,3.3,2.6,5.8,4.4,5.3c1.9-0.5,5.8,2.9,5.8,2.9s1.2-10.3,9.3-6c8.1,4.3,10.8,10.6,5.8,12.4
		c-5,1.8-10.3,0.8-10.3,0.8l1.6,8c0,0,2.5,3.8,11,0c8.4-3.8,6.6-5.2,12.5-5.3c5.9-0.1,22-5.4,23-12.6c1-7.3,5-1.8,4.2,2.8
		C306.9,332.5,302.3,341.7,281.1,345.8z"/>
	<path class="st0" d="M196.1,389l4.2,15.8l2.8-0.7c0,0,5.1,11.6,10.8,12.5c5.7,1,16.9,7.4,27.5,17c10.5,9.6,35.9,3.8,35.9,3.8
		c-12.7-2.6-26.2-23.3-26.2-23.3c-6.9-5.1-19.6-0.7-26.9-3.7c-7.3-3-7.4-3.5-9.6-13.4C212.5,387.1,196.1,389,196.1,389z"/>
	<path class="st0" d="M542.7,507.5c4.2-1.1,11.7-6.6,14-7.2c2.3-0.6,1.2-2.8,2.8-4.2c1.6-1.4,1.2-4.8,0.3-8.1
		c-0.9-3.3-2.5-5.8-4.4-5.3c-1.8,0.5-5.8-2.9-5.8-2.9s-1.2,10.3-9.4,6c-8.1-4.3-10.8-10.6-5.8-12.4c5-1.8,10.3-0.8,10.3-0.8l-1.7-8
		c0,0-2.5-3.8-11,0c-8.4,3.7-6.6,5.2-12.5,5.3c-6,0.1-22,5.4-23,12.6c-1,7.3-5,1.8-4.3-2.8c0.7-4.7,5.3-13.9,26.5-18.1
		c28.4-5.6,59.8-62.8-2.4-90.5c0,0,38.2,42-6.5,63c0,0-9.1,3.4-31.3,5.9c0,0-24.4,40.9,12,74.5l4.2,11.8c0,0,3.4-0.4,5.5-3.5l13-3.5
		c0,0,14.9,3.5,26-7C539.5,512.4,538.5,508.7,542.7,507.5z"/>
	<path class="st0" d="M522.7,370c12.6,2.6,26.2,23.4,26.2,23.4c6.8,5.1,19.6,0.7,26.9,3.7c7.3,3,7.4,3.5,9.6,13.4
		c2.1,9.9,18.6,8,18.6,8l-4.2-15.8l-2.8,0.7c0,0-5.1-11.6-10.8-12.5c-5.7-1-16.9-7.4-27.5-17.1C548.1,364.2,522.7,370,522.7,370z"/>
	<path class="st0" d="M459.5,313.7L459.5,313.7C459.6,313.8,459.5,313.7,459.5,313.7z"/>
	<path class="st0" d="M340.5,493.7L340.5,493.7C340.5,493.7,340.5,493.7,340.5,493.7z"/>
	<path class="st0" d="M359.7,564.1c2.3,2.9,18.5-3.5,18.5-3.5s19-3.6,18.6-25.4l36.7-9.8c0,0-18.6,12.4-20.1,34.8
		c-1.5,22.3,1.9,36.8-20.3,43.3c0,0-4.2,2.1-3.2,5.8c1,3.7,4.6,5,6.7,4.4c2.1-0.6,19.8-3.3,23.8-18.8c4.1-15.5-1.6-31.9,3.7-41.1
		c5.3-9.1,16.2-20.3,19-24.8c2.8-4.5,5.5-11.9,2.5-24.3c-3.1-12.4-7-19.5-9.8-22.7c-2.9-3.2-8.4-19.4-6.8-26.3
		c1.6-6.9,14-18.4,24.7-20.3c10.7-1.9,19.8,2.4,33,0.4c13.1-2,26.7-3.7,35.1-16.6c8.5-13,1.4-39.2-13.2-48.5
		c-14.7-9.3-37.2-2.2-37.2-2.2s-5.8,2.6-2.9-3.4c2.9-6,12.8-20.1,13.5-23.8c0.8-3.7,6.1-2.1,6.1-2.1s4.7-0.2,7.7-1.1
		c3-0.8,5.2-2.9,6-5.6c0.8-2.7,0.1-9.7-0.9-10.7c0,0-15.2,2.6-16.2,0.9l-9.8,2.6c0,0-7.1,29.3-28.4,42.5c0,0,3.3,6.6,4.3,12.3
		c1,5.7,2.4,20.3,11,24.4c8.6,4.2,7.7,8.4,0.9,5.2c-4.7-2.2-8.4-4.1-12-11.7c-2.2-18.3-14.2-33.8-30.5-40.9c5.6-4.6,8.6-11,8.7-14.5
		c0.1-5-4.5-13.2-0.8-17c3.7-3.7,8.4-3,13.9-1c5.5,2,1.2,3.4,11.4,14.6c10.2,11.2,13.3,1.2,13.3,1.2l-7.1-26.4
		c-0.2,0.2-1.7,0.7-11.4,1.2c-12.8,0.7-16.8-8.9-24.2-8.5s-8.5,6.3-8.5,12.7c0,6.5-9.2,7.5-9.2,7.5c2.9,6.5,4.1,19,4.7,27.1
		c-1.2-0.3-2.5-0.5-3.7-0.7c-1-10.8-4-24.2-9.7-41.5c0,0,25.4-11.3,25-31.1c-0.3-19.8,0.5-28,14-27.7c0,0,2.4,12.8,7.1,13.5
		l14.4-3.9l-3.4-12.5c0,0-12-3.8-14.2-6.6c-2.3-2.9-18.5,3.5-18.5,3.5s-19,3.6-18.6,25.4l-36.7,9.8c0,0,18.6-12.4,20.1-34.8
		c1.5-22.3-1.9-36.8,20.3-43.3c0,0,4.2-2.1,3.2-5.8c-1-3.7-4.6-5-6.7-4.4c-2.1,0.6-19.8,3.3-23.8,18.8c-4.1,15.5,1.6,31.9-3.7,41.1
		c-5.3,9.1-16.2,20.3-19,24.8c-2.8,4.5-5.5,11.9-2.5,24.3c3.1,12.4,7,19.5,9.8,22.8c2.8,3.2,8.4,19.4,6.8,26.3
		c-1.6,6.9-14,18.4-24.7,20.3c-10.7,1.9-19.8-2.4-33-0.4c-13.1,2-26.7,3.7-35.1,16.6c-8.5,13-1.4,39.2,13.2,48.5
		c14.7,9.3,37.2,2.2,37.2,2.2s5.8-2.5,2.9,3.4c-2.9,6-12.8,20.1-13.5,23.8c-0.8,3.7-6.2,2.2-6.2,2.2s-4.7,0.2-7.7,1.1
		c-3,0.8-5.2,2.9-6,5.6c-0.8,2.7-0.1,9.7,0.9,10.7c0,0,15.2-2.6,16.2-0.9l9.8-2.6c0,0,7.1-29.3,28.4-42.5c0,0-3.3-6.6-4.3-12.3
		c-1-5.7-2.4-20.3-11-24.4c-8.6-4.2-7.7-8.4-0.9-5.2c4.7,2.2,8.3,4.1,11.9,11.7c2.1,18.4,14.1,33.9,30.5,41
		c-5.5,4.6-8.5,11-8.6,14.5c-0.1,5,4.5,13.2,0.8,17c-3.7,3.7-8.4,3-13.9,1c-5.5-2-1.2-3.4-11.4-14.6c-10.2-11.2-13.3-1.2-13.3-1.2
		l7.1,26.4c0.2-0.2,1.7-0.7,11.4-1.2c12.8-0.7,16.8,8.9,24.2,8.5c7.3-0.5,8.5-6.3,8.5-12.7c0-6.5,9.2-7.5,9.2-7.5
		c-2.8-6.4-4.1-19-4.7-27.1c1.2,0.3,2.5,0.5,3.7,0.7c1.1,10.8,4,24.2,9.7,41.5c0,0-25.4,11.3-25,31.1c0.3,19.8-0.5,28-14,27.7
		c0,0-2.4-12.8-7.1-13.6l-14.4,3.9l3.4,12.5C345.4,557.4,357.4,561.2,359.7,564.1z M357.3,424.6c0.9-1.1,2-2.1,3.2-2.9
		c-1.3-2.9-2.3-6-3-9.2c-1.5,0-2.9-0.2-4.3-0.5c-0.5-2.6-0.7-5.4-0.7-8.1c0-13.4,5.6-25.5,14.5-34.2c1.3,0.5,2.6,1.2,3.7,2.1
		c2.4-2.2,5-4.1,7.8-5.7c-0.5-1.4-0.7-2.8-0.9-4.2c6.6-3.5,14.2-5.6,22.2-5.6c8.1,0,15.7,2,22.4,5.6c-0.1,1.4-0.4,2.8-0.8,4.2
		c2.8,1.6,5.4,3.5,7.8,5.7c1.1-0.9,2.4-1.5,3.7-2.1c9,8.7,14.6,20.8,14.6,34.2c0,2.8-0.3,5.5-0.7,8.1c-1.4,0.3-2.8,0.5-4.3,0.5
		c-0.7,3.2-1.7,6.3-3,9.2c1.2,0.8,2.3,1.9,3.2,2.9c-6.8,13.8-20.2,23.9-36,26.2c-0.7-1.2-1.4-2.5-1.8-3.9c-1.6,0.2-3.2,0.3-4.8,0.3
		c-1.6,0-3.2-0.1-4.8-0.3c-0.4,1.4-1.1,2.7-1.8,3.9C377.5,448.6,364.1,438.4,357.3,424.6z"/>
	<path class="st0" d="M212.5,573.7c1.4-1.4,2.7-2.7,3.9-3.9c2.4-2.4,4.2-4.1,5.3-5.2c1.1-1.1,2.2-2.1,3.2-3.1l-3-3
		c-1,1-2.1,2.1-3.3,3.3c-1.2,1.2-3.1,3.2-5.7,5.8c-1.1,1.1-2.3,2.3-3.5,3.5c-1.2,1.2-2.5,2.5-3.8,3.8c-1.2,1.2-2.3,2-3.2,2.5
		c-1,0.5-2,0.7-3,0.7c-1.1,0-2.1-0.3-3.2-0.9c-1-0.6-2.3-1.5-3.8-2.6l-2.1,2.9c2.2,1.8,4.1,3,5.9,3.6c1.8,0.6,3.4,0.9,4.8,0.8
		c1.4-0.1,2.7-0.5,3.9-1.2c1.2-0.7,2.3-1.5,3.4-2.6C209.7,576.5,211.1,575.1,212.5,573.7z"/>
	<path class="st0" d="M233.3,597.3c1.3-1.6,2.3-3.3,2.9-5c0.6-1.7,0.8-3.6,0.7-5.5c-0.1-1.6-0.5-3.2-1.3-4.6
		c-0.8-1.4-1.8-2.7-3.2-3.8c-1.3-1.1-2.8-1.9-4.4-2.4c-1.6-0.5-3.3-0.6-4.9-0.4c-1.9,0.2-3.6,0.8-5.1,1.7c-1.6,0.9-3,2.1-4.2,3.7
		c-1.3,1.6-2.3,3.4-2.9,5.3c-0.6,1.9-0.8,3.8-0.6,5.6c0.2,1.6,0.7,3,1.4,4.4c0.8,1.4,1.8,2.6,3.1,3.7c1.4,1.1,2.8,1.9,4.2,2.4
		c1.4,0.5,3,0.6,4.6,0.5c1.9-0.1,3.7-0.7,5.4-1.7C230.5,600.2,232,598.9,233.3,597.3z M226.5,597.8c-1.3,0.8-2.7,1.2-4.1,1.4
		c-1,0.1-2,0-3-0.3c-1-0.3-1.9-0.8-2.7-1.5c-0.8-0.6-1.4-1.4-1.9-2.2c-0.5-0.8-0.8-1.7-0.9-2.6c-0.2-1.6-0.1-3.2,0.4-4.6
		c0.5-1.5,1.4-2.9,2.5-4.3c1-1.2,2.2-2.2,3.5-3c1.3-0.8,2.7-1.3,4-1.4c1.1-0.1,2.2-0.1,3.1,0.2c0.9,0.3,1.9,0.8,2.8,1.6
		c0.8,0.6,1.4,1.4,1.9,2.3c0.5,0.9,0.8,1.8,0.9,2.7c0.2,1.5,0,3.1-0.6,4.6c-0.6,1.5-1.4,2.9-2.4,4.2C229,596,227.8,597,226.5,597.8z
		"/>
	<path class="st0" d="M260.5,601.5c-0.3-1.9-1.4-3.5-3.3-4.7c-0.9-0.6-2.2-1.1-3.9-1.6c-1.7-0.5-3.9-0.8-6.7-1l0-0.1l1.7-2.5
		l-3.3-2.2c-1.5,2.3-3,4.5-4.3,6.6c-1.4,2-2.6,3.8-3.6,5.4c-2.2,3.3-3.9,5.8-5.1,7.5c-1.2,1.7-1.8,2.5-1.8,2.6l3.4,2.3
		c0.1-0.1,0.9-1.4,2.5-3.8c1.6-2.4,2.9-4.5,4.1-6.2c0.9-1.3,1.8-2.7,2.9-4.3c1.1-1.6,1.6-2.4,1.7-2.6c1.9,0.1,3.6,0.4,5.3,0.7
		c1.7,0.4,2.9,0.9,3.8,1.5c1.5,1,2.3,2.1,2.4,3.2c0.1,1.1-0.4,2.5-1.4,4.2c-0.5,0.7-1.2,1.8-2.2,3.2c-1,1.5-1.7,2.6-2.2,3.3
		c-0.4,0.5-1.3,1.9-2.9,4.2c-1.5,2.3-2.5,3.6-2.7,4l3.4,2.3c0.1-0.1,0.7-1.2,2-3.2c1.3-2,2.4-3.7,3.3-5c0.6-0.8,1.3-1.9,2.2-3.2
		c0.9-1.3,1.9-2.9,3.2-4.7C260.3,605.4,260.8,603.4,260.5,601.5z"/>
	<path class="st0" d="M283.9,616.3c-0.4-1.6-1.2-3-2.2-4.2c-1-1.2-2.3-2.3-3.9-3.1c-1.5-0.8-3.1-1.3-4.8-1.5c-1.7-0.2-3.3,0-4.9,0.6
		c-1.8,0.6-3.4,1.4-4.7,2.6c-1.3,1.2-2.5,2.7-3.4,4.4c-1,1.8-1.6,3.7-1.8,5.7c-0.3,2-0.1,3.9,0.5,5.6c0.5,1.5,1.2,2.9,2.3,4.1
		c1,1.2,2.3,2.2,3.7,3c1.6,0.8,3.1,1.4,4.6,1.5c1.5,0.2,3,0,4.6-0.4c1.8-0.5,3.5-1.4,5-2.7c1.5-1.3,2.8-2.8,3.7-4.6
		c1-1.8,1.6-3.6,1.8-5.5C284.5,620,284.4,618.1,283.9,616.3z M280.2,620.9c-0.3,1.6-0.8,3.1-1.6,4.6c-0.7,1.4-1.7,2.6-2.8,3.6
		c-1.1,1-2.4,1.7-3.7,2.1c-1,0.3-2,0.4-3,0.3c-1-0.1-2-0.4-3-1c-0.9-0.5-1.6-1.1-2.3-1.7c-0.6-0.7-1.1-1.5-1.4-2.4
		c-0.6-1.5-0.7-3.1-0.5-4.6c0.2-1.6,0.8-3.1,1.6-4.7c0.7-1.4,1.7-2.6,2.9-3.6c1.2-1,2.4-1.7,3.6-2.1c1.1-0.3,2.1-0.5,3.1-0.4
		s2,0.4,3,1c0.9,0.5,1.7,1.1,2.3,1.9c0.7,0.8,1.1,1.6,1.4,2.5C280.4,617.7,280.5,619.2,280.2,620.9z"/>
	<path class="st0" d="M308.8,627.2c-0.6-1.6-1.5-2.9-2.6-4c-1.1-1.1-2.5-2-4.2-2.7c-1.6-0.7-3.3-1-4.9-1c-1.7,0-3.3,0.3-4.9,1
		c-1.7,0.7-3.2,1.8-4.4,3.1c-1.2,1.3-2.2,2.9-3,4.7c-0.8,1.9-1.2,3.9-1.3,5.9c0,2,0.3,3.9,1,5.5c0.6,1.5,1.5,2.7,2.7,3.8
		c1.1,1.1,2.5,2,4,2.6c1.6,0.7,3.2,1,4.7,1c1.5,0,3-0.3,4.5-0.8c1.8-0.7,3.3-1.7,4.7-3.2c1.4-1.4,2.5-3.1,3.3-4.9
		c0.8-1.9,1.2-3.8,1.3-5.6C309.8,630.8,309.5,629,308.8,627.2z M305.6,632.1c-0.1,1.6-0.5,3.2-1.1,4.7c-0.6,1.5-1.4,2.7-2.5,3.9
		c-1,1.1-2.2,1.9-3.5,2.5c-0.9,0.4-1.9,0.6-3,0.6c-1,0-2.1-0.2-3.1-0.7c-0.9-0.4-1.7-0.9-2.4-1.5c-0.7-0.6-1.2-1.4-1.6-2.2
		c-0.7-1.5-1-3-0.9-4.6c0.1-1.6,0.5-3.2,1.1-4.8c0.6-1.4,1.4-2.7,2.5-3.9c1.1-1.2,2.2-2,3.4-2.5c1.1-0.5,2.1-0.7,3-0.7
		c1,0,2,0.2,3.1,0.7c0.9,0.4,1.8,0.9,2.5,1.6c0.7,0.7,1.3,1.5,1.7,2.3C305.5,629,305.8,630.5,305.6,632.1z"/>
	<path class="st0" d="M330.9,630.7c-1-0.3-2.4-0.4-4.2-0.4c-1.7,0-4,0.4-6.7,1v-0.1l0.9-2.9l-3.8-1.2c-0.8,2.7-1.5,5.2-2.2,7.6
		c-0.7,2.4-1.3,4.4-1.8,6.2c-1.2,3.8-2,6.7-2.6,8.6c-0.6,1.9-0.9,3-1,3.1l3.9,1.2c0-0.2,0.5-1.6,1.3-4.4c0.8-2.8,1.5-5.1,2.1-7.1
		c0.5-1.5,0.9-3.2,1.5-5c0.5-1.8,0.8-2.8,0.9-3c1.8-0.5,3.6-0.7,5.3-0.9c1.7-0.1,3.1,0,4.1,0.3c1.7,0.5,2.8,1.3,3.2,2.3
		c0.4,1,0.4,2.5-0.1,4.5c-0.2,0.8-0.6,2-1.1,3.7c-0.5,1.7-0.9,3-1.2,3.8c-0.2,0.6-0.7,2.3-1.5,4.9c-0.8,2.6-1.3,4.2-1.5,4.6l3.9,1.2
		c0-0.1,0.4-1.3,1-3.6c0.7-2.3,1.2-4.2,1.7-5.7c0.3-0.9,0.7-2.2,1.1-3.7c0.5-1.5,1-3.4,1.7-5.5c0.7-2.3,0.6-4.4-0.3-6.1
		C334.6,632.5,333.1,631.3,330.9,630.7z"/>
	<path class="st0" d="M373.9,651.4l0.6-3.7c-0.3,0-1.7-0.2-4.2-0.6c-2.5-0.3-5.2-0.7-8-1.2c-0.9-0.1-1.8-0.3-2.8-0.4
		c-1-0.2-1.6-0.2-1.8-0.3c0.3-1.7,0.6-3.8,0.9-6.1c0.4-2.3,0.7-4.4,1-6.4c0.8,0.1,1.7,0.3,2.8,0.4c1.1,0.2,2.3,0.3,3.6,0.5
		c2.9,0.4,5.3,0.8,7.2,1.1c2,0.3,3.1,0.5,3.4,0.6l0.6-3.7c-0.3,0-1.4-0.2-3.4-0.5c-2-0.3-4.5-0.6-7.5-1.1c-2-0.3-3.9-0.6-5.8-0.9
		c-1.8-0.3-3.4-0.5-4.6-0.7c-0.5,3.4-0.9,6.8-1.4,10c-0.5,3.2-0.9,5.8-1.2,7.8c-0.8,5-1.3,8.8-1.7,11.5c-0.4,2.7-0.7,4.5-0.9,5.5
		l4.2,0.6c0.2-1.6,0.5-3.9,0.9-6.6c0.4-2.7,0.8-5.6,1.3-8.7c0.2,0,0.8,0.1,1.8,0.3c1,0.1,1.8,0.3,2.5,0.4c2.3,0.3,4.8,0.7,7.7,1.2
		C372,651.1,373.5,651.3,373.9,651.4z"/>
	<path class="st0" d="M402.1,649.2c-0.6-1.8-1.5-3.3-2.8-4.8c-1.1-1.3-2.4-2.2-3.8-2.9c-1.4-0.7-3.1-1-4.9-1.1
		c-1.7-0.1-3.4,0.2-5,0.8c-1.6,0.6-3,1.5-4.2,2.6c-1.4,1.3-2.4,2.8-3.1,4.4c-0.7,1.7-1.1,3.5-1.2,5.5c-0.1,2.1,0.2,4.1,0.8,6
		c0.6,1.9,1.6,3.5,2.9,4.9c1.1,1.2,2.4,2,3.8,2.7c1.4,0.6,3,1,4.7,1.1c1.8,0.1,3.4-0.1,4.8-0.6c1.4-0.5,2.7-1.3,3.9-2.3
		c1.4-1.2,2.5-2.8,3.4-4.6c0.8-1.8,1.2-3.7,1.3-5.8C402.9,652.8,402.7,650.9,402.1,649.2z M398.6,654.9c-0.1,1.6-0.4,3.1-1,4.5
		c-0.6,1.4-1.4,2.6-2.4,3.6c-0.8,0.7-1.6,1.2-2.6,1.5c-1,0.3-2,0.5-3.1,0.4c-1,0-1.9-0.3-2.8-0.6c-0.9-0.4-1.6-0.9-2.3-1.5
		c-1.2-1.1-2-2.5-2.4-4c-0.5-1.5-0.7-3.2-0.6-4.9c0.1-1.6,0.4-3.1,1-4.5c0.6-1.4,1.4-2.6,2.3-3.5c0.8-0.8,1.7-1.3,2.6-1.7
		c0.9-0.4,2-0.5,3.2-0.4c1,0,2,0.3,2.9,0.7c0.9,0.4,1.7,0.9,2.4,1.6c1.1,1.1,1.8,2.5,2.3,4C398.5,651.6,398.7,653.2,398.6,654.9z"/>
	<path class="st0" d="M428,663.8c1.2-1.4,2.2-3,2.8-4.9c0.6-1.9,0.8-3.9,0.7-5.9c-0.2-2.1-0.6-3.9-1.4-5.6c-0.8-1.7-1.9-3.1-3.3-4.4
		c-1.2-1.1-2.6-1.9-4.1-2.4c-1.5-0.5-3.2-0.7-5-0.5c-1.7,0.1-3.3,0.6-4.8,1.3c-1.5,0.8-2.8,1.8-3.9,3.1c-1.2,1.4-2.1,3-2.5,4.8
		c-0.5,1.7-0.7,3.6-0.5,5.6c0.2,2.1,0.7,4,1.5,5.8c0.9,1.8,2,3.3,3.4,4.5c1.2,1,2.6,1.7,4.1,2.2c1.5,0.5,3.1,0.6,4.8,0.5
		c1.8-0.1,3.3-0.5,4.7-1.2C425.7,665.9,426.9,665,428,663.8z M422.4,663.7c-0.9,0.4-1.9,0.7-3,0.8c-1,0.1-1.9,0-2.9-0.3
		c-0.9-0.3-1.7-0.7-2.4-1.2c-1.3-1-2.3-2.2-2.9-3.7c-0.6-1.4-1-3-1.2-4.8c-0.1-1.6,0-3.1,0.5-4.6c0.4-1.5,1.1-2.7,1.9-3.8
		c0.7-0.9,1.5-1.5,2.4-2c0.8-0.4,1.9-0.7,3.1-0.8c1-0.1,2,0,3,0.3c1,0.3,1.8,0.7,2.5,1.4c1.2,1,2.1,2.2,2.8,3.7
		c0.6,1.5,1,3.1,1.2,4.7c0.1,1.6,0,3.1-0.5,4.6c-0.4,1.4-1.1,2.7-2,3.8C424.1,662.6,423.3,663.2,422.4,663.7z"/>
	<path class="st0" d="M451.5,659.7c-0.4,0.1-0.8,0.1-1.1,0.2c-2.5,0.4-4.5,0.3-5.9-0.5c-1.4-0.8-2.3-2.3-2.7-4.6
		c-0.2-1.5-0.5-2.7-0.7-3.8c-0.2-1.1-0.3-1.9-0.5-2.7c-0.1-0.9-0.4-2.2-0.6-4c-0.3-1.8-0.5-2.9-0.5-3.3l9.3-1.6l-0.5-3l-9.3,1.6
		l-1.1-6.2l-3.8,0.6l1,6.2l-4.5,0.7l0.5,3l4.3-0.7c0.6,3.2,1,6,1.3,8.2c0.3,2.2,0.7,4.3,1,6.2c0.5,3.1,1.8,5.2,3.9,6.3
		c2.1,1.2,4.9,1.5,8.4,0.8c0.3-0.1,0.8-0.1,1.2-0.2c0.5-0.1,0.8-0.2,0.9-0.2l-0.1-3.3C452.2,659.6,451.9,659.6,451.5,659.7z"/>
	<path class="st0" d="M474.1,637.7c-1.2-1.4-2.6-2.3-4.3-3c-1.6-0.6-3.6-1-5.8-1c-2.2,0-5.1,0.4-8.6,1.3l-3-11.7l-4,1.1
		c0.8,3,1.6,5.9,2.4,8.7c0.8,2.9,1.5,5.8,2.4,8.8c1.3,5,2.4,9.2,3.3,12.8c0.9,3.5,1.5,5.9,1.9,7.3c0.4-0.1,0.7-0.2,1.1-0.3
		c0.4-0.1,0.8-0.2,1.1-0.3c2.7-0.7,5-1.5,6.8-2.3c1.9-0.8,3.4-1.7,4.8-2.8c2.1-1.6,3.5-3.6,4.3-5.9c0.8-2.4,0.9-4.9,0.1-7.7
		C476.2,640.7,475.3,639.1,474.1,637.7z M472.8,649.2c-0.4,1.6-1.3,3.1-2.7,4.4c-1,0.9-2.2,1.7-3.6,2.4c-1.5,0.7-3.1,1.3-5,1.8
		c-0.3-1.2-0.7-2.4-1-3.5c-0.3-1.2-0.9-3.2-1.6-6c-0.4-1.5-0.9-3.4-1.5-5.8c-0.6-2.3-0.9-3.7-1-4.1c0.2,0,0.3-0.1,0.6-0.1
		c0.2-0.1,0.4-0.1,0.7-0.2c1.2-0.3,2.3-0.5,3.5-0.6c1.2-0.1,2.2-0.1,3.3,0c2,0.1,3.7,0.8,5.3,1.8c1.5,1.1,2.5,2.7,3.1,4.7
		C473.1,645.8,473.2,647.6,472.8,649.2z"/>
	<path class="st0" d="M498,633.3c-0.9-2.4-1.8-4.1-2.7-5.2c-0.9-1.1-2-1.9-3.3-2.4c-1.3-0.5-2.8-0.7-4.5-0.6
		c-1.7,0.2-3.5,0.6-5.4,1.3c-1.3,0.5-2.3,0.8-3,1.2c-0.7,0.3-1.2,0.5-1.4,0.6l0.8,3.4c0.9-0.4,1.6-0.7,2.1-0.9
		c0.5-0.2,1.1-0.5,1.9-0.7c1.2-0.4,2.2-0.8,3.2-1c0.9-0.2,1.8-0.3,2.6-0.2c1.2,0,2.2,0.4,3.1,1c0.8,0.6,1.6,1.6,2.1,2.8
		c-2.2,1-4.2,2-5.8,3c-1.7,1-2.9,1.9-3.8,2.8c-1.4,1.3-2.5,2.8-3,4.3c-0.5,1.5-0.5,3,0,4.6c0.6,1.5,1.4,2.6,2.6,3.3
		c1.2,0.8,2.6,1.2,4.1,1.3c1.2,0.1,2.5,0,3.9-0.2c1.4-0.3,2.9-0.6,4.2-1.1c2.2-0.8,3.9-1.5,5.2-2.2c1.3-0.6,2-1,2.2-1.1
		c-0.1-0.2-0.6-1.6-1.5-4.1C500.7,640.7,499.5,637.4,498,633.3z M496.9,646.9c-0.5,0.2-0.9,0.3-1.2,0.5c-1.1,0.4-2.1,0.7-3.2,1
		c-1,0.2-2,0.4-2.9,0.4c-1.2,0-2.2-0.2-3.1-0.6c-0.9-0.5-1.5-1.3-1.9-2.4c-0.4-1-0.3-2,0.1-3c0.5-1,1.1-1.8,1.9-2.5
		c1.1-0.9,2.4-1.9,4.2-2.8c1.7-0.9,2.9-1.5,3.6-1.8c0.4,1.1,0.8,2.1,1.1,3c0.3,0.9,0.6,1.6,0.8,2.1c0.6,1.7,1.1,3,1.5,3.9
		c0.4,1,0.6,1.5,0.6,1.6C497.9,646.5,497.4,646.7,496.9,646.9z"/>
	<path class="st0" d="M505.8,624.2c-1-2.2-2.2-5-3.6-8.2c-1.4-3.2-2.7-6.1-3.7-8.6l-3.7,1.7c1.6,3.6,3.1,6.8,4.4,9.7
		c1.3,2.9,2.4,5.3,3.2,7.2c1.3,3,2.9,6.7,4.9,11.2c2,4.5,3,6.8,3,7l3.7-1.7c-0.1-0.2-0.9-2.1-2.6-5.7
		C509.8,633.3,507.9,629,505.8,624.2z"/>
	<path class="st0" d="M515.7,619.5c-1.1-2.2-2.4-4.9-3.9-8.1c-1.5-3.2-2.9-6-4-8.4l-3.7,1.8c1.8,3.5,3.4,6.7,4.8,9.6
		c1.4,2.8,2.5,5.2,3.5,7.1c1.4,2.9,3.2,6.6,5.3,11c2.1,4.4,3.2,6.7,3.3,6.9l3.7-1.8c-0.1-0.2-1-2-2.8-5.6
		C520.1,628.4,518.1,624.3,515.7,619.5z"/>
	<path class="st0" d="M553.6,617.4c-0.3,0.2-0.6,0.3-0.8,0.5c-1.5,0.9-2.9,1.6-4.4,2.2c-1.4,0.6-2.9,0.9-4.2,1
		c-1.7,0.2-3.4-0.1-4.9-0.8c-1.5-0.7-2.8-1.9-3.8-3.7c-0.9-1.5-1.3-3.1-1.2-4.9c0.1-1.8,0.7-3.4,1.8-4.9c0.8-1.1,1.8-2.1,2.8-3
		c1.1-0.9,2.4-1.9,4.1-2.8c0.1-0.1,0.2-0.1,0.3-0.2c0.1-0.1,0.2-0.2,0.4-0.2l-2-2.9c-0.1,0.1-0.2,0.2-0.4,0.3
		c-0.2,0.1-0.3,0.2-0.5,0.3c-2,1.2-3.8,2.6-5.4,4.2c-1.6,1.6-2.8,3.2-3.7,4.9c-0.9,1.9-1.4,3.8-1.4,5.9c0,2.1,0.5,4,1.6,5.8
		c1.2,2,2.8,3.5,4.8,4.5c2,1,4.2,1.5,6.6,1.4c1.8-0.1,3.6-0.4,5.5-1.1c1.9-0.6,3.8-1.5,5.7-2.7c0.2-0.1,0.4-0.2,0.7-0.4
		c0.3-0.2,0.5-0.3,0.6-0.3l-1.5-3.2C554.1,617.1,553.9,617.2,553.6,617.4z"/>
	<path class="st0" d="M552.2,598.2c-1.3-2-3-4.5-5-7.5c-2-2.9-3.7-5.5-5.2-7.8l-3.4,2.3c2.2,3.3,4.2,6.2,6,8.8
		c1.8,2.6,3.2,4.8,4.4,6.5c1.8,2.7,4,6.1,6.8,10.2c2.7,4.1,4.1,6.2,4.2,6.4l3.4-2.3c-0.1-0.2-1.3-1.9-3.5-5.2
		C557.7,606.4,555.1,602.6,552.2,598.2z"/>
	<path class="st0" d="M578.1,585.3c-2.5-3.2-4.2-5.4-5.2-6.8c-1-1.3-1.6-2.1-1.8-2.4l-3.2,2.5c0.1,0.2,1,1.3,2.6,3.3
		c1.6,2,2.9,3.7,4.1,5.2c1.6,2,2.9,3.7,4,5.1c1.1,1.4,1.6,2.1,1.8,2.3c-0.3,1-1,2.4-2,4.2c-1,1.8-2.1,3.2-3.3,4.1
		c-1.2,0.9-2.4,1.2-3.5,0.9c-1.1-0.3-2.4-1.3-3.6-2.9c-0.5-0.6-1.2-1.6-2.3-3c-1.1-1.4-2-2.6-2.8-3.6c-0.8-1.1-1.9-2.5-3.3-4.4
		c-1.4-1.8-2.1-2.8-2.3-3l-3.3,2.5c0.2,0.2,1,1.3,2.5,3.1c1.5,1.8,2.7,3.4,3.6,4.6c0.5,0.7,1.4,1.8,2.6,3.3c1.2,1.5,2.2,2.9,3.1,4
		c1.6,2,3.3,3.2,5.3,3.5c2,0.3,3.9-0.3,5.7-1.7c1.4-1.1,2.6-2.5,3.5-4.3c0.9-1.8,1.6-3.4,2.1-4.8l0,0l1.9,2.4l3.2-2.4
		c-2.7-3.4-4.6-5.8-5.6-7.2C580.7,588.6,579.5,587.1,578.1,585.3z"/>
	<path class="st0" d="M601.1,565.7c-1.4-1.5-3-2.5-4.7-3.1c-1.7-0.6-3.4-0.8-5.2-0.5c-1.7,0.3-3.6,0.9-5.6,2c-2,1.1-4.2,2.9-6.8,5.3
		l-8.4-8.7l-3,2.9c2.2,2.2,4.3,4.3,6.4,6.4c2.1,2.1,4.2,4.3,6.4,6.5c3.6,3.7,6.7,6.8,9.2,9.5c2.5,2.6,4.3,4.4,5.2,5.4
		c0.3-0.3,0.5-0.5,0.8-0.8c0.3-0.3,0.6-0.6,0.8-0.8c2-2,3.6-3.7,4.8-5.4c1.2-1.6,2.1-3.2,2.8-4.8c1-2.4,1.3-4.8,0.8-7.3
		C604.3,570,603.1,567.7,601.1,565.7z M600.7,578.4c-0.4,1.2-1.1,2.5-2,3.9c-0.9,1.3-2.1,2.6-3.5,4c-0.9-0.9-1.7-1.7-2.6-2.6
		c-0.9-0.8-2.3-2.3-4.4-4.4c-1.1-1.1-2.5-2.5-4.1-4.3c-1.7-1.8-2.6-2.8-2.9-3c0.1-0.1,0.3-0.2,0.4-0.4c0.2-0.2,0.3-0.3,0.5-0.5
		c0.9-0.8,1.8-1.6,2.7-2.3c0.9-0.7,1.9-1.2,2.8-1.7c1.8-0.9,3.6-1.2,5.5-1c1.9,0.2,3.5,1,5,2.6c1.4,1.4,2.3,2.9,2.8,4.6
		C601.3,574.9,601.3,576.6,600.7,578.4z"/>
	<path class="st0" d="M267.8,183.8v-51.3h-14.6V183h0c-0.3,11-7.4,19.7-16.1,19.7v7.3C254.1,210.1,267.8,198.3,267.8,183.8z"/>
	<path class="st0" d="M308.2,125.1c21.5-20.4,53.1-33.3,88.5-33.3c30.3,0,57.9,9.5,78.7,25c-22-19.1-52.8-30.9-86.8-30.9
		c-39.7,0-75,16.1-97.1,41c3.8-1.4,8-2.2,12.3-2.2C305.2,124.8,306.7,124.9,308.2,125.1z"/>
	<path class="st0" d="M455.9,137.6c2.7,3.3,4.7,7,6.1,11c3.1-3.3,7.5-5.3,12.3-5.3c9.4,0,17,7.6,17,17c0,9.4-7.6,17-17,17
		c-9.4,0-17-7.6-17-17c0-16.1-13.1-29.3-29.3-29.3c-16.1,0-29.2,13.1-29.2,29.3c0,16.2,13.1,29.3,29.2,29.3c7,0,13.5-2.4,18.5-6.6
		c-2.7-3.3-4.8-7-6.2-11c-3.1,3.3-7.5,5.3-12.4,5.3c-9.3,0-16.9-7.6-16.9-17c0-9.4,7.6-17,16.9-17c9.4,0,17,7.6,17,17
		c0,16.2,13.1,29.3,29.3,29.3c16.2,0,29.3-13.1,29.3-29.3c0-16.1-13.1-29.3-29.3-29.3C467.4,131.1,460.9,133.5,455.9,137.6z"/>
	<path class="st0" d="M392.2,188.1v-38.1c0-9.7-7.9-17.6-17.6-17.6h-35.1v55.6h12.3v-43.9h19.3c4.8,0,8.8,3.9,8.8,8.8v35.1H392.2z"
		/>
	<path class="st0" d="M522.5,144.2h19.3c4.8,0,8.8,3.9,8.8,8.8v35.1H563v-38.1c0-9.7-7.9-17.6-17.6-17.6h-35.1v55.6h12.3V144.2z"/>
	<path class="st0" d="M303.7,189.6c16.1,0,29.3-13.1,29.3-29.3c0-16.1-13.1-29.3-29.3-29.3c-16.2,0-29.3,13.1-29.3,29.3
		C274.4,176.5,287.5,189.6,303.7,189.6z M303.7,143.3c9.4,0,17,7.6,17,17c0,9.4-7.6,17-17,17c-9.4,0-17-7.6-17-17
		C286.7,150.9,294.3,143.3,303.7,143.3z"/>
	<path class="st0" d="M421.8,393.4l6.2-2c-1.6-4.2-3.9-12.1-1.6-16.4c0.3-0.6,0.7-1.1,1.1-1.6c-2.2-2-4.5-3.7-7.1-5.1
		c-0.3,0.5-0.7,1-1.2,1.5c-3.4,3.5-11.7,3.7-16.2,3.5v6.5C411.3,380.8,418.4,386.1,421.8,393.4z"/>
	<path class="st0" d="M424.1,403.7c0,6.9-2.9,13.2-7.6,17.6l3.8,5.3c3.5-2.8,10.3-7.5,15.1-6.6c0.6,0.1,1.2,0.3,1.8,0.5
		c1.2-2.6,2.1-5.4,2.7-8.3c-0.6-0.2-1.2-0.4-1.8-0.6c-4.4-2.2-7.1-10-8.3-14.3l-6.2,2C424,400.6,424.1,402.2,424.1,403.7z"/>
	<path class="st0" d="M375.9,403.7c0-1.6,0.2-3.1,0.4-4.5l-6.2-2c-1.2,4.3-4,12.1-8.3,14.3c-0.6,0.3-1.2,0.5-1.8,0.6
		c0.6,2.9,1.5,5.7,2.7,8.3c0.6-0.2,1.2-0.4,1.8-0.5c4.8-0.8,11.6,3.9,15.1,6.6l3.8-5.3C378.8,416.9,375.9,410.6,375.9,403.7z"/>
	<path class="st0" d="M395.6,442.5c0.1,0.6,0.1,1.3,0.1,1.9c1.4,0.2,2.9,0.2,4.4,0.2c1.5,0,2.9-0.1,4.4-0.2c0-0.6,0-1.3,0.1-1.9
		c0.7-4.8,7.3-9.9,11-12.4l-3.8-5.3c-3.4,1.9-7.4,3-11.6,3c-4.2,0-8.2-1.1-11.6-3l-3.8,5.3C388.3,432.6,394.9,437.6,395.6,442.5z"/>
	<path class="st0" d="M378.2,393.4c3.4-7.3,10.5-12.6,18.8-13.6v-6.5c-4.5,0.2-12.8,0-16.2-3.5c-0.4-0.5-0.8-1-1.2-1.5
		c-2.5,1.5-4.9,3.2-7.1,5.1c0.4,0.5,0.8,1,1.1,1.6c2.3,4.3-0.1,12.2-1.6,16.4L378.2,393.4z"/>
	<path class="st0" d="M391.4,688.6c-2.3,0-4.2,0.8-5.7,2.3c-1.5,1.5-2.2,3.5-2.2,5.9c0,2.2,0.7,4.1,2,5.5c1.3,1.4,3,2.1,5.1,2.1
		c2.5,0,4.3-1,5.4-3.1c0,0,0,0,0.1,0c0,3.2-0.6,5.6-1.8,7.3c-1.2,1.7-2.9,2.6-5.1,2.6c-1.6,0-3-0.4-4.3-1.2v2.9
		c1.2,0.6,2.6,0.8,4.3,0.8c3.1,0,5.6-1.2,7.3-3.6c1.8-2.4,2.6-5.9,2.6-10.4c0-3.6-0.7-6.4-2-8.3
		C395.8,689.5,393.9,688.6,391.4,688.6z M394.6,700.4c-0.9,0.9-1.9,1.3-3.2,1.3c-1.5,0-2.6-0.5-3.5-1.4c-0.8-1-1.3-2.3-1.3-3.9
		c0-1.5,0.4-2.7,1.3-3.7c0.9-1,1.9-1.5,3.3-1.5c1.4,0,2.6,0.6,3.4,1.7c0.9,1.1,1.3,2.6,1.3,4.4C395.9,698.4,395.5,699.5,394.6,700.4
		z"/>
	<path class="st0" d="M410.3,688.6c-2.3,0-4.2,0.8-5.7,2.3s-2.2,3.5-2.2,5.9c0,2.2,0.7,4.1,2,5.5s3,2.1,5.1,2.1c2.5,0,4.3-1,5.4-3.1
		c0,0,0,0,0.1,0c0,3.2-0.6,5.6-1.8,7.3s-2.9,2.6-5.1,2.6c-1.6,0-3-0.4-4.3-1.2v2.9c1.2,0.6,2.6,0.8,4.3,0.8c3.1,0,5.6-1.2,7.3-3.6
		s2.6-5.9,2.6-10.4c0-3.6-0.7-6.4-2-8.3C414.7,689.5,412.8,688.6,410.3,688.6z M413.5,700.4c-0.9,0.9-1.9,1.3-3.2,1.3
		c-1.5,0-2.6-0.5-3.5-1.4c-0.8-1-1.3-2.3-1.3-3.9c0-1.5,0.4-2.7,1.3-3.7c0.9-1,1.9-1.5,3.3-1.5c1.4,0,2.6,0.6,3.4,1.7
		s1.3,2.6,1.3,4.4C414.8,698.4,414.4,699.5,413.5,700.4z"/>
	<path class="st0" d="M430.5,700.6L430.5,700.6c3.3-1,4.9-3,4.9-6.2c0-1.7-0.6-3.1-1.9-4.2c-1.3-1.1-2.9-1.6-5-1.6
		c-2.1,0-4,0.5-5.6,1.4v2.9c1.5-1.2,3.1-1.7,4.8-1.7c3,0,4.5,1.3,4.5,4c0,2.9-2,4.3-5.9,4.3h-1.9v2.5h2c4.4,0,6.6,1.5,6.6,4.6
		c0,1.4-0.5,2.5-1.5,3.3c-1,0.8-2.3,1.2-4,1.2c-2.1,0-4-0.6-5.6-1.9v3.2c1.4,0.9,3.3,1.3,5.6,1.3c2.6,0,4.7-0.7,6.3-2
		c1.6-1.3,2.4-3.1,2.4-5.3c0-1.6-0.5-2.9-1.5-3.9C433.7,701.4,432.3,700.8,430.5,700.6z"/>
	<path class="st0" d="M375.1,688.4h-1.2c-0.8,0.7-1.9,1.4-3.4,2.2c-1.5,0.8-2.8,1.4-4.1,1.7v3c1-0.2,2-0.7,3.2-1.3
		c1.1-0.6,2-1.1,2.4-1.6v17.8h-5.2v3h5.2h3.1h5.3v-3h-5.3V688.4z"/>
</g>
</svg>
