<?xml version="1.0" encoding="utf-8"?>
<!-- Generator: Adobe Illustrator 22.1.0, SVG Export Plug-In . SVG Version: 6.00 Build 0)  -->
<svg version="1.1" id="图层_1" xmlns="http://www.w3.org/2000/svg" xmlns:xlink="http://www.w3.org/1999/xlink" x="0px" y="0px"
	 viewBox="0 0 800 800" style="enable-background:new 0 0 800 800;" xml:space="preserve">
<style type="text/css">
	.st0{fill:#E01B20;}
	.st1{fill:#FCC500;}
	.st2{fill:#FFFFFF;}
	.st3{fill:#E5171B;}
	.st4{fill:#FFBE0E;}
</style>
<g>
	<g>
		<g>
			<g>
				<circle class="st0" cx="400" cy="400" r="350"/>
				<path class="st1" d="M400,70c44.6,0,87.8,8.7,128.4,25.9c39.3,16.6,74.6,40.4,104.9,70.7c30.3,30.3,54.1,65.6,70.7,104.9
					C721.3,312.2,730,355.4,730,400s-8.7,87.8-25.9,128.4c-16.6,39.3-40.4,74.6-70.7,104.9c-30.3,30.3-65.6,54.1-104.9,70.7
					C487.8,721.3,444.6,730,400,730s-87.8-8.7-128.4-25.9c-39.3-16.6-74.6-40.4-104.9-70.7c-30.3-30.3-54.1-65.6-70.7-104.9
					C78.7,487.8,70,444.6,70,400s8.7-87.8,25.9-128.4c16.6-39.3,40.4-74.6,70.7-104.9c30.3-30.3,65.6-54.1,104.9-70.7
					C312.2,78.7,355.4,70,400,70 M400,50C206.7,50,50,206.7,50,400s156.7,350,350,350s350-156.7,350-350S593.3,50,400,50L400,50z"/>
				<circle class="st2" cx="400" cy="400" r="214.2"/>
				<path class="st1" d="M400,199.8c27,0,53.3,5.3,77.9,15.7c23.8,10.1,45.3,24.5,63.7,42.9c18.4,18.4,32.8,39.8,42.9,63.7
					c10.4,24.7,15.7,50.9,15.7,77.9s-5.3,53.3-15.7,77.9c-10.1,23.8-24.5,45.3-42.9,63.7c-18.4,18.4-39.8,32.8-63.7,42.9
					C453.3,595,427,600.2,400,600.2s-53.3-5.3-77.9-15.7c-23.8-10.1-45.3-24.5-63.7-42.9c-18.4-18.4-32.8-39.8-42.9-63.7
					C205,453.3,199.8,427,199.8,400s5.3-53.3,15.7-77.9c10.1-23.8,24.5-45.3,42.9-63.7c18.4-18.4,39.8-32.8,63.7-42.9
					C346.7,205,373,199.8,400,199.8 M400,185.8c-118.3,0-214.2,95.9-214.2,214.2S281.7,614.2,400,614.2S614.2,518.3,614.2,400
					S518.3,185.8,400,185.8L400,185.8z"/>
			</g>
			<g>
				<path class="st3" d="M532,314.3H293c-10.5,0-19-8.5-19-19v-3h239c10.5,0,19,8.5,19,19V314.3z"/>
				<path class="st3" d="M498.3,252.3h-50.7c-8.6,0-17,2.8-24,7.9L257.7,383h45.7c18.4,0,36.2-6.2,50.6-17.5L498.3,252.3z"/>
				<path class="st4" d="M445,314.3l88,68h-33.3c-26.3,0-51.7-9.3-71.7-26.4l-49-41.6H445z"/>
				<path class="st4" d="M240.5,400h63l61,56.5h-40.8c-22.3,0-43.5-9.8-58-26.8L240.5,400z"/>
				<path class="st4" d="M412.5,467h63l61,56.5h-40.8c-22.3,0-43.5-9.8-58-26.8L412.5,467z"/>
				<path class="st3" d="M386,467h-63l-61,56.5h40.8c22.3,0,43.5-9.8,58-26.8L386,467z"/>
				<path class="st3" d="M340,400h63l61,56.5h-40.8c-22.3,0-43.5-9.8-58-26.8L340,400z"/>
				<path class="st4" d="M440,400h63l61,56.5h-40.8c-22.3,0-43.5-9.8-58-26.8L440,400z"/>
			</g>
		</g>
		<g>
			<path class="st2" d="M157.8,391.6l-47.6-7.9l2.9-17.6l-6.8-1.1l-3.4,20.4l-10.2-1.7l11.2-68l10.2,1.7l-3.4,20.4l6.8,1.1l2.9-17.6
				l47.9,7.9l-1.8,10.8l-4.2-0.7l-6.7,40.5l4,0.7L157.8,391.6z M108.1,354.3l6.8,1.1l0.9-5.4L109,349L108.1,354.3z M122.3,374.4
				l13.3,2.2c-2.1-4.8-6.2-7.6-12.3-8.4L122.3,374.4z M146,345.2c-0.9,6.5-4.8,9.1-11.8,7.9l-8.2-1.4l-0.9,5.4
				c9.3,1.3,16,5.9,20.1,13.8c-2.8,1.7-5.5,3.6-8.3,5.9l9.1,1.5l6.7-40.5l-5.4-0.9L146,345.2z M129,333.9l-1.1,6.8l5.4,0.9
				c1.9,0.3,3-0.5,3.3-2.4l0.7-4L129,333.9z"/>
			<path class="st2" d="M129,305.8l-15-7.2l11.3-23.5c-1.2-0.1-2.9-0.4-5-0.8c-0.9,0-1.4,0-1.5-0.1l5.4-12.7c1.2,0.2,3.5,0.6,7,1.4
				l10.7-22.3l15.3,7.3l-5.2,10.9l-6-2.9l-12.4,25.9l8.3-10.7c1.9,2.2,3.5,4.4,4.7,6.7l14.8-30.8l9.6,4.6l-4.6,9.6
				c4.2,4.6,7.2,9.2,9,13.9c4-4.4,8.5-8.9,13.4-13.3l7.2,9.5c-6.8,5.8-13,11.5-18.6,16.9c0.1,8.6-1.8,20.1-5.7,34.5
				c-4.7-0.4-8.6-0.4-11.7-0.2c3.7-11.6,5.6-19.5,5.9-23.6c-4.6,4.4-9,8.5-13,12.5c-1.9-3.5-3.8-6.8-5.7-10.1l-6.2,12.9l-9.6-4.6
				l9.1-18.9c-2.2-3-4.5-6-6.8-9l-5,10.4l5.7,2.7L129,305.8z M156.2,294.9c2.7-3,5.9-6.4,9.7-10.3c-0.7-4.2-2.6-7.9-5.4-11.2
				l-7.3,15.3C154.3,290.7,155.3,292.8,156.2,294.9z"/>
			<path class="st2" d="M161.1,230.5l17.4-19.5c-6-5.9-10.1-9.8-12.2-11.7l8.6-9.6c4.9,4.9,9,8.8,12.2,11.7l17.6-19.7l8.6,7.6
				l-17.6,19.7c12.9,7.4,26.2,6.6,39.9-2.4c0.2,1.2,0.4,3,0.7,5.2c0.6,3.9,1.2,6.7,1.7,8.4c-12.4,6.4-24.3,7.4-35.8,3
				c5.3,9.1,5.6,21.4,1.1,37.1c-4.7-0.8-9-1.1-13.1-0.9c6.4-16.9,5.1-30.3-3.7-40.2l-16.8,18.8L161.1,230.5z"/>
			<path class="st2" d="M220.1,153.7c7.4,3.5,14.1,6.8,20.2,10l-5.5,10.6c-4.9-2.8-11.7-6.3-20.3-10.7L220.1,153.7z M223,183
				l58.6-36.8l6,9.5l-58.6,36.8L223,183z M237.8,139.2c6.3,5.3,12.1,10.4,17.3,15.2l-8.2,8.5c-3.3-3.1-7.9-7.4-13.8-12.7
				c-1.5-1.3-2.7-2.3-3.5-2.9L237.8,139.2z M248.6,181.2l11.8,2.1c-2.3,8.2-5.4,17.4-9.2,27.5c-0.3-0.1-0.8-0.2-1.6-0.4
				c-4.8-1.5-8.1-2.3-10-2.5C242.5,201,245.5,192.1,248.6,181.2z M256.4,129.9l12-1.4c0,3.6,0,9.2-0.1,16.6c0,4,0.1,7,0.1,8.8
				l-11.6,0.5C256.8,146.4,256.7,138.3,256.4,129.9z M267.9,168.7c4.8,0.4,13.2,1.2,25.3,2.4c1.5,0.2,2.6,0.3,3.3,0.3l-2.7,11.9
				c-3.5-0.5-9.2-1.1-17.1-1.8c-5.1-0.6-8.9-1.1-11.4-1.3L267.9,168.7z"/>
			<path class="st2" d="M310.1,104.7l11-3.1l2.1,7.5l12.7-3.6l-1.4-5l10.8-3.1l3.9,13.5l-58,16.5l-3.9-13.5l10.8-3.1l1.4,5l12.7-3.6
				L310.1,104.7z M293.2,145.9l-3.9-13.5l26.2-7.5c-0.5-0.4-1-1.2-1.5-2.2c-0.2-0.1-0.4-0.3-0.4-0.5l12.4-3.5
				c0.6,0.8,1.2,1.7,1.7,2.8l25.1-7.2l3.9,13.5l-6.3,1.8l1.7,6.1l-50,14.2l-1.7-6.1L293.2,145.9z M295.1,154.9l64.9-18.5l2.4,8.6
				l-16.6,4.7c6.2,0.2,12.6,0.5,19,0.8l-2.6,9.7c-6-0.9-13.1-1.5-21.2-2l2.3-7.8l-6.6,1.9l1.5,5.2c2.1,6,0.1,9.9-5.9,11.8
				c-1.4,0.6-5,1.7-10.7,3.3c-0.4-0.7-1-1.9-1.9-3.6c-0.7-1.2-1.3-2.1-1.7-2.8c-2,2-5.2,4.6-9.4,7.8c-1.4,1.2-2.6,2.1-3.4,2.8
				c-2.1-2.4-4.5-4.7-7.3-6.9c5.9-3.9,10.7-7.4,14.6-10.7l-14.9,4.2L295.1,154.9z M302.7,137.6l0.9,3l41.7-11.9l-0.9-3L302.7,137.6z
				 M322.9,162.5c-1,0.7-1.8,1.4-2.4,2.2l3.6-1c2.4-0.7,3.2-2.3,2.5-4.9l-0.9-3.3l-8.8,2.5L322.9,162.5z"/>
			<path class="st2" d="M406.3,91.5l10.9,0.2l-0.1,5.2l18.7,0.3l-0.1,8.6l-18.7-0.3l0,2.6l17.2,0.3l-0.3,20.1l-45.3-0.7l0.1-9.2
				c-0.6,0.8-1.5,1.9-2.6,3.4c-1.2,1.7-2.1,2.9-2.6,3.7l-0.6,34.4l-10.3-0.2l0.4-22.7c-1.9,1.9-3.4,3.2-4.4,3.9
				c-0.2-1.9-0.6-4.6-1.3-8.1c-0.4-1.5-0.6-2.8-0.8-3.7c5.8-5.5,10.7-11.6,14.7-18.4l7.7,5.3l0.1-8.6l17.2,0.3l0-2.6l-18.4-0.3
				l0.1-4.3c-4.3,4.9-9.7,10.4-16.3,16.4c-1.1-4-2.4-7.8-3.8-11.3c4.8-4.1,9.3-8.8,13.4-14.1l6.8,5.9l0-1.1l18.4,0.3L406.3,91.5z
				 M417.2,145.7c2.3,1,4.6,1.8,6.9,2.4c-0.7-1.9-1.6-3.5-2.5-4.6l8.4-3c1.1,1.9,2.4,4.5,3.9,7.8c1.1,2.3,1.9,4,2.5,4.9l-8.4,3.3
				c-0.7-1.9-1.6-3.7-2.5-5.2c-0.6,1-1,2-1.2,3.1c-1.2,3.8-4.5,5.6-9.8,5.3l-9.8-0.2c-5.7,0.1-8.5-2.4-8.2-7.6l0.1-6.9
				c-0.6,1.3-1.4,3.2-2.4,5.7c-1.2,2.5-2.1,4.4-2.7,5.7c-3-1.4-5.8-2.4-8.3-3c1.8-3,3.7-7.2,5.7-12.5l7.7,2.4l0-2.3l9.8,0.2
				l-0.1,7.2c-0.2,2.5,0.9,3.7,3.4,3.5l2.9,0c2.1,0,3.3-0.7,3.5-2.2C416.6,148.5,417,147.2,417.2,145.7z M435.7,139.6l-19.5-0.3
				c0.9,1.7,1.8,3.6,2.5,5.5l-8.7,3.9c-0.7-2.9-1.9-6.1-3.6-9.5l-19.8-0.3l0.1-8.6l49.1,0.8L435.7,139.6z M397.9,115.2l-0.1,4.9
				l3.7,0.1l0.1-4.9L397.9,115.2z M409.4,115.4l-0.1,4.9l4,0.1l0.1-4.9L409.4,115.4z M424.8,120.5l0.1-4.9l-3.7-0.1l-0.1,4.9
				L424.8,120.5z"/>
			<path class="st2" d="M453.2,130.5l10.6,4.6c-1.4,3.4-2.8,6.6-4.3,9.5c1,5.5,3.3,9.4,7,11.9l6.9-23.4l-21.8-6.4l8.1-27.5
				l53.7,15.8l-8.1,27.5l-20.4-6l-2,6.9l22.9,6.7l-2.9,9.9l-22.9-6.7l-2.2,7.4c6.8,2,15.7,4.6,26.7,7.8c-0.3,0.5-0.9,1.2-1.6,2.2
				c-2.3,3.1-3.9,5.3-4.7,6.7c-2.4-0.7-5.8-1.8-10.1-3.3c-9.9-2.9-16.4-5-19.4-6.3c-9-2.6-14.5-6.9-16.6-12.7
				c-2.8,2.6-6.3,5.2-10.7,7.9c-0.1-0.2-0.3-0.7-0.5-1.3c-2.1-4.4-3.7-7.6-4.7-9.5C444.2,149.2,449.8,141.8,453.2,130.5z M466,120.5
				l30.6,9l2.4-8.3l-30.6-9L466,120.5z"/>
			<path class="st2" d="M529.7,133.7l5.6-8.7l19.3,12.4l-5.6,8.7l-5.1-3.2l-7.1,11.1l4.6,2.9l-5.6,8.7l-4.6-2.9l-7.4,11.6
				c2,0.8,3.7,1.6,5.3,2.4c-2.2,3.4-4.1,6.4-5.7,8.9c-1.2-0.6-3.2-1.4-5.9-2.4c-6.3-2.9-11.2-5-14.7-6.3l4.6-10.4
				c2.1,0.9,4.4,2,6.8,3.3l8.2-12.8l-4.8-3.1l5.6-8.7l4.8,3.1l7.1-11.1L529.7,133.7z M579.7,183.4c-2.2,0.6-5.8,1.4-10.7,2.4
				c-2.1,0.5-3.6,0.8-4.4,1c-0.1,4.7,0.9,10.1,2.9,16.2c-0.7,0.4-1.9,1.2-3.5,2.2c-3.2,1.8-5.5,3.1-6.9,3.8
				c-2-6.5-2.6-14.1-1.7-22.9l-6.8,10.6c-3.5,6.2-8.2,7.4-14.2,3.5c-0.7-0.3-3.4-1.8-7.9-4.7c1.6-3.5,2.7-6.7,3.3-9.5
				c1.3,1.1,3.2,2.4,5.7,4c2.3,1.7,4.2,1.2,5.7-1.5l2.9-4.6c-1.6,0.1-4.2,0.2-7.8,0.5c-3.8,0.3-6.6,0.4-8.4,0.4l2.5-11.4
				c0.7,0,1.8,0,3.3,0.1c6.9,0.3,12.4,0.4,16.7,0.5l8.3-13.1l-13.1-8.3l5.4-8.5l13.1,8.3l6-9.4l8.9,5.7l-6,9.4l5.8,3.7
				c0-0.7-0.1-1.6-0.2-2.9c-0.3-2.7-0.5-4.6-0.4-5.7l8.8,0.1c0.1,1.9,0.6,4.8,1.3,8.7c0.2,0.8,0.2,1.4,0.2,1.8l-6.2,0.1l6,3.9
				l-5.4,8.5l-15.2-9.7c-1,3.7-1.8,7.1-2.5,10.3c3.6-1.1,7.2-2.2,10.7-3.4L579.7,183.4z M551.4,157.8c-0.1,1.5-0.1,3.9-0.1,7.1
				c-0.2,3.1-0.3,5.4-0.3,6.9l-10.4-0.8c0.7-5,1.2-9.8,1.4-14.4L551.4,157.8z"/>
			<path class="st2" d="M568.7,228l-7-8l22.6-19.9c-3.3,0.6-6.4,1.1-9.4,1.4c0.6-0.5,1.3-1.3,2.2-2.3c3.9-4,6.8-7.1,8.5-9.4
				c11.7-3.2,21.8-7.1,30.2-11.7l5,10.1c-4.2,2.2-8.7,4.1-13.4,5.7L568.7,228z M590.5,242.8c-6.2-2.7-12.4-6-18.7-9.9
				c0.3-0.5,0.7-1.5,1.2-3c1-2.7,1.7-4.7,2.2-6.2c3.6,2.9,8.4,5.9,14.3,8.8L579.3,221l6.9-6.1l2.7,3l32.8-28.8l27.9,31.7l-32.8,28.8
				l3,3.4l-6.9,6.1l-9.9-11.2c1.1,2.4,2.5,5.7,4.2,10c0.9,2.2,1.7,3.8,2.3,4.8l-9.7,2c-0.5-1.4-1.2-3.4-2.3-6
				c-1.7-5.4-3.3-9.8-4.8-13.3l7.2-1l-8-9.1L590.5,242.8z M598.9,223.6l-2.8,2.5l13.7,15.5l2.8-2.5L598.9,223.6z M606.6,216.8
				l-2.8,2.5l13.7,15.5l2.8-2.5L606.6,216.8z M614.4,210l-2.6,2.3l13.7,15.5l2.6-2.3L614.4,210z M622.4,203l-2.8,2.5l13.7,15.5
				l2.8-2.5L622.4,203z"/>
			<path class="st2" d="M634.7,266.9l-1.2,11.7c-10-1.4-18.2-3.2-24.7-5.2c1.1-3.9,1.9-7.7,2.2-11.5
				C618.3,264.2,626.1,265.9,634.7,266.9z M662,271.8l5.3,11.2l-10.4,4.9l10.3,21.8l-9.9,4.6L647,292.5l-15.1,7.1
				c-7.2,4-12.4,2.4-15.7-5c-2-3.3-3.8-6.7-5.4-10.1c1.4-1.1,3.6-2.9,6.7-5.4c1.3-0.8,2.2-1.4,2.6-1.9c1.5,3.1,2.8,5.9,3.9,8.3
				c1,2.5,2.8,3,5.5,1.5l12.2-5.7l-11.5-24.4l33.5-11.7c7.7,16.4,16.1,32.2,25.1,47.2l-8.3,8c-6.4-11.4-13.7-24.9-21.9-40.5
				l-12.8,4.4l5.7,12.2L662,271.8z M650.9,303.4c-1.8,4.2-4.7,10.6-8.8,19.1c-0.5,1.3-0.9,2.2-1.2,2.8l-10.3-6.3
				c1-1.9,2.6-5.2,5-9.6c2.9-5.2,4.9-9,6-11.4L650.9,303.4z"/>
			<path class="st2" d="M634.6,341.3l-1.7-10.5l28.6-4.5l5.2,33.2l-28.4,4.5l-1.6-10.2l3.1-0.5l-2-12.5L634.6,341.3z M678,384.4
				c-3.8,5.3-8.9,8.4-15.1,9.3c-8.3,1.7-13.2-1.2-14.7-8.7c-0.3-2.1-0.6-4-0.9-5.7l7.1-2.9l-15,2.4l-1.6-10.2l64.6-10.2l4.2,26.9
				l-10.2,1.6L678,384.4z M653.9,338.2l-7.4,1.2l2,12.5l7.4-1.2L653.9,338.2z M693.8,370.3l-36.6,5.8l0.6,4c0.2,2.5,1.8,3.5,4.8,3
				c4.2-0.7,8.6-3.5,13.2-8.5l18.9,1.7L693.8,370.3z M689,356.8l-1.2-7.9l-1,6.6c-1.1-0.6-2.6-1.2-4.7-1.9c-1.4-0.5-2.5-1-3.1-1.3
				l1.2,7.7l-9.1,1.4l-6.1-38.6l9.1-1.4l1.2,7.7c2.1-1.7,3.9-3.5,5.5-5.5l3.8,5.5l-1.1-7.1l9.1-1.4l1.8,11.6c2.2-0.9,4.2-1.8,6-2.7
				l2.7,11.8c-0.7,0.3-1.8,0.8-3.3,1.4c-1.5,0.6-2.6,1.1-3.6,1.4l1.8,11.3L689,356.8z M679.5,338.8l-3.3-4.4l1.1,6.8
				c0.8,0.3,2,0.6,3.7,1.2c1.3,0.6,3.3,1.2,6.1,1.9l-1.8-11.3c-0.3,0.4-0.9,1-1.8,1.7C682.9,335.6,681.6,337,679.5,338.8z"/>
		</g>
		<g>
			<path class="st2" d="M109.8,481.4l46.8-17.4l6,16.2c6.2,16.6,1.7,27.7-13.5,33.4c-7.2,2.7-13.9,2.5-20-0.5
				c-6.1-3-10.5-8.2-13.3-15.6L109.8,481.4z M152.2,477l-30.5,11.3l2,5.4c1.8,4.7,4.5,7.9,8.4,9.6c3.8,1.7,8.1,1.6,13-0.2
				c4.7-1.7,7.8-4.5,9.3-8.3c1.6-3.8,1.5-7.9-0.2-12.4L152.2,477z"/>
			<path class="st2" d="M151.8,566.9l-6.8-10.7l9.2-16.4c0.3-0.6,1.1-1.5,2.2-2.6l-0.1-0.1c-0.7,0.3-1.9,0.5-3.5,0.8l-18.7,1.2
				l-6.8-10.8l29.7,0.2l13.3-25.7l6.9,10.9l-8.9,14.5c-0.7,1.2-1.6,2.3-2.7,3.5l0.1,0.1c1.4-0.3,2.9-0.6,4.5-0.9l17.2-1.1l6.4,10
				l-29,0.5L151.8,566.9z"/>
			<path class="st2" d="M176.7,598.2c-3.6-1.8-7.2-5-10.8-9.6c-4.6-5.9-6.5-12-5.6-18.3c0.9-6.2,4.3-11.7,10.2-16.2
				c6.2-4.8,12.8-6.8,19.8-6c7,0.8,12.9,4.3,17.6,10.5c3,3.9,5,7.5,6,10.9l-8.1,6.3c-0.5-3.9-2.1-7.5-4.7-10.9
				c-3-3.9-6.6-6-10.9-6.4c-4.3-0.4-8.4,0.9-12.3,4c-3.9,3-6.1,6.5-6.8,10.5s0.4,7.9,3.3,11.6c2.7,3.5,6,6.1,10,7.6L176.7,598.2z"/>
			<path class="st2" d="M181.6,605.5l33.8-36.7l12.7,11.7c13,12,14.1,24,3.1,35.9c-5.2,5.7-11.2,8.5-18.1,8.6
				c-6.8,0.1-13.1-2.5-18.9-7.9L181.6,605.5z M217.4,582.4l-22,23.9l4.3,3.9c3.7,3.4,7.6,5,11.8,4.7c4.2-0.3,8-2.3,11.5-6.1
				c3.4-3.6,4.9-7.5,4.6-11.6c-0.3-4.1-2.3-7.8-5.8-11L217.4,582.4z"/>
			<path class="st2" d="M282.7,630.2l-15.5-8.8l-6.4,11.1l14.2,8.1l-4.3,7.6l-14.2-8.1l-9.8,17.1l-9.2-5.3l24.8-43.3l24.7,14.1
				L282.7,630.2z"/>
			<path class="st2" d="M275.4,646.8c2.8-7.3,7.1-12.5,13.1-15.4c6-3,12.5-3.2,19.5-0.5c6.7,2.5,11.2,6.8,13.6,12.7
				c2.4,6,2.3,12.5-0.4,19.4c-2.7,7.3-7.1,12.4-13,15.3c-5.9,2.9-12.3,3.1-19.2,0.5c-6.7-2.5-11.3-6.8-13.8-12.7
				C272.7,660.2,272.8,653.7,275.4,646.8z M286,650.2c-1.7,4.5-2,8.7-0.9,12.4c1.1,3.7,3.6,6.3,7.4,7.7c3.9,1.5,7.5,1.2,10.7-0.7
				c3.2-1.9,5.7-5.2,7.5-9.9c1.8-4.9,2.2-9.1,1.2-12.7c-1-3.6-3.5-6.2-7.3-7.6c-3.9-1.5-7.5-1.2-10.8,0.9S287.8,645.6,286,650.2z"/>
			<path class="st2" d="M326.2,665c1.3-7.7,4.6-13.6,10-17.7s11.7-5.5,19.1-4.2c7,1.2,12.3,4.5,15.8,9.9s4.6,11.8,3.4,19.1
				c-1.3,7.7-4.6,13.5-9.9,17.5c-5.3,4-11.5,5.4-18.7,4.2c-7.1-1.2-12.4-4.5-16-9.9C326.2,678.6,325,672.3,326.2,665z M337.3,666.3
				c-0.8,4.8-0.3,8.9,1.5,12.3c1.8,3.4,4.7,5.5,8.7,6.2c4.1,0.7,7.6-0.2,10.3-2.7c2.8-2.5,4.6-6.2,5.4-11.2
				c0.9-5.1,0.4-9.4-1.3-12.7c-1.7-3.4-4.6-5.4-8.6-6.1c-4.1-0.7-7.6,0.3-10.5,2.9C340,657.7,338.2,661.5,337.3,666.3z"/>
			<path class="st2" d="M415.8,657.9l-14.2-0.2l-0.7,41.2l-10.7-0.2l0.7-41.2l-14.2-0.2l0.1-8.7l39.1,0.6L415.8,657.9z"/>
			<path class="st2" d="M423.4,698.3l-6.6-49.5l17.6-2.4c5.4-0.7,9.7-0.3,12.9,1.4c3.2,1.7,5,4.3,5.5,7.9c0.4,2.7-0.2,5.2-1.8,7.4
				c-1.5,2.3-3.6,4-6.3,5.1l0,0.1c3.5,0,6.5,0.9,8.9,2.7c2.4,1.8,3.8,4.4,4.3,7.6c0.6,4.5-0.5,8.3-3.4,11.4s-7,5-12.6,5.7
				L423.4,698.3z M428.4,655.3l1.6,12.2l5-0.7c2.4-0.3,4.2-1.2,5.5-2.5c1.2-1.3,1.7-3,1.4-5.1c-0.5-3.8-3.5-5.3-9.1-4.6L428.4,655.3
				z M431.1,675.5l1.8,13.6l6.3-0.8c2.7-0.4,4.7-1.3,6-2.7c1.3-1.4,1.9-3.3,1.6-5.4c-0.3-2.1-1.2-3.6-2.9-4.6
				c-1.6-0.9-3.8-1.2-6.6-0.9L431.1,675.5z"/>
			<path class="st2" d="M510.1,677.4l-11.2,3.2l-6.7-10l-17.4,5l-0.4,12l-11.1,3.2l3.9-53l12-3.4L510.1,677.4z M487.6,663.4
				l-10.2-15.1c-0.7-1-1.3-2.3-1.9-4l-0.3,0.1c0.3,1.4,0.4,2.9,0.3,4.3l-0.7,18.3L487.6,663.4z"/>
			<path class="st2" d="M543.8,661.8L517,673.6L496.7,628l9.7-4.3l16.7,37.7l17.1-7.6L543.8,661.8z"/>
			<path class="st2" d="M574.8,641.1l-24.7,15.8l-26.9-42l9-5.7l22.2,34.7l15.7-10.1L574.8,641.1z"/>
			<path class="st2" d="M622.2,597.5c-1.3,3.8-4.1,7.8-8.2,11.9c-5.4,5.3-11.2,7.9-17.5,7.8c-6.3-0.1-12.1-2.8-17.4-8.2
				c-5.5-5.6-8.3-11.9-8.3-19c0-7,2.8-13.3,8.3-18.8c3.5-3.4,6.8-5.8,10.1-7.2l7.2,7.3c-3.8,1-7.2,2.9-10.2,5.9
				c-3.5,3.4-5.2,7.3-5,11.5c0.1,4.3,1.9,8.2,5.5,11.8c3.4,3.5,7.2,5.3,11.3,5.5s7.8-1.4,11.2-4.7c3.2-3.1,5.3-6.7,6.4-10.8
				L622.2,597.5z"/>
			<path class="st2" d="M647.3,568.5l-17.9,23.2l-39.6-30.4l6.5-8.4l32.7,25.1l11.4-14.8L647.3,568.5z"/>
			<path class="st2" d="M652.1,517.5c13,7.3,16.1,16.9,9.4,29c-6.5,11.7-16.1,13.9-28.8,6.9l-25.3-14.2l5.2-9.3l25.4,14.2
				c7.3,4.1,12.5,3.2,15.7-2.5c3.1-5.6,1.2-10.4-5.8-14.3l-25.8-14.4l5.2-9.3L652.1,517.5z"/>
			<path class="st2" d="M676,515.8l-47-16.7l5.9-16.7c1.8-5.1,4.2-8.7,7.1-10.8c2.9-2.1,6.1-2.5,9.6-1.3c2.6,0.9,4.5,2.6,5.8,5
				c1.3,2.4,1.9,5,1.7,7.9l0.1,0c1.6-3.1,3.7-5.4,6.5-6.6c2.7-1.3,5.6-1.4,8.7-0.3c4.3,1.5,7.1,4.2,8.6,8.2s1.2,8.5-0.6,13.8
				L676,515.8z M640,491.7l11.6,4.1l1.7-4.8c0.8-2.3,0.9-4.3,0.3-6c-0.6-1.7-1.9-2.9-3.9-3.6c-3.6-1.3-6.3,0.7-8.2,6L640,491.7z
				 M659.2,498.6l12.9,4.6l2.1-6c0.9-2.5,1-4.7,0.3-6.6c-0.7-1.8-2-3.1-4.1-3.9c-2-0.7-3.8-0.5-5.4,0.5c-1.6,1-2.9,2.8-3.8,5.5
				L659.2,498.6z"/>
		</g>
	</g>
	<g>
		<g>
			<circle class="st4" cx="127.6" cy="427.6" r="24"/>
			<path class="st0" d="M139.4,422.4c-1-5,2.7-9,2.7-9l-5.7-4c0,0-3.7,4.7-9.3,4.7c-5.7,0-8-4.7-8-4.7l-5.7,4.3c0,0,3.3,4,2.7,9
				c-0.7,5-8.3,5.7-8.3,5.7l1.7,7.7c0,0,6.7-3.3,11.3,0.3c4.7,3.7,3,10,3,10l9,0.3c0,0-1.3-6,2.3-10c3.7-4,11.3-1,11.3-1l1-7.5
				C147.4,428.2,140.4,427.4,139.4,422.4z M128.3,434.7c-4.1,0-7.4-3.3-7.4-7.4s3.3-7.4,7.4-7.4c4.1,0,7.4,3.3,7.4,7.4
				S132.4,434.7,128.3,434.7z"/>
		</g>
		<g>
			<circle class="st4" cx="672.9" cy="427.6" r="24"/>
			<path class="st0" d="M684.7,422.4c-1-5,2.7-9,2.7-9l-5.7-4c0,0-3.7,4.7-9.3,4.7c-5.7,0-8-4.7-8-4.7l-5.7,4.3c0,0,3.3,4,2.7,9
				c-0.7,5-8.3,5.7-8.3,5.7l1.7,7.7c0,0,6.7-3.3,11.3,0.3c4.7,3.7,3,10,3,10l9,0.3c0,0-1.3-6,2.3-10c3.7-4,11.3-1,11.3-1l1-7.5
				C692.7,428.2,685.7,427.4,684.7,422.4z M673.6,434.7c-4.1,0-7.4-3.3-7.4-7.4s3.3-7.4,7.4-7.4s7.4,3.3,7.4,7.4
				S677.7,434.7,673.6,434.7z"/>
		</g>
	</g>
</g>
</svg>
