<?xml version="1.0" encoding="utf-8"?>
<!-- Generator: Adobe Illustrator 22.1.0, SVG Export Plug-In . SVG Version: 6.00 Build 0)  -->
<svg version="1.1" id="图层_1" xmlns="http://www.w3.org/2000/svg" xmlns:xlink="http://www.w3.org/1999/xlink" x="0px" y="0px"
	 viewBox="0 0 800 800" style="enable-background:new 0 0 800 800;" xml:space="preserve">
<style type="text/css">
	.st0{fill:#E5171B;}
</style>
<g>
	<path class="st0" d="M400,50C206.7,50,50,206.7,50,400s156.7,350,350,350s350-156.7,350-350S593.3,50,400,50z M633.3,633.3
		c-30.3,30.3-65.6,54.1-104.9,70.7C487.8,721.3,444.6,730,400,730s-87.8-8.7-128.4-25.9c-39.3-16.6-74.6-40.4-104.9-70.7
		c-30.3-30.3-54.1-65.6-70.7-104.9C78.7,487.8,70,444.6,70,400s8.7-87.8,25.9-128.4c16.6-39.3,40.4-74.6,70.7-104.9
		c30.3-30.3,65.6-54.1,104.9-70.7C312.2,78.7,355.4,70,400,70s87.8,8.7,128.4,25.9c39.3,16.6,74.6,40.4,104.9,70.7
		c30.3,30.3,54.1,65.6,70.7,104.9C721.3,312.2,730,355.4,730,400s-8.7,87.8-25.9,128.4C687.5,567.7,663.7,603,633.3,633.3z"/>
	<path class="st0" d="M400,614.2c118.3,0,214.2-95.9,214.2-214.2S518.3,185.8,400,185.8S185.8,281.7,185.8,400
		S281.7,614.2,400,614.2z M258.4,258.4c18.4-18.4,39.8-32.8,63.7-42.9c24.7-10.4,50.9-15.7,77.9-15.7s53.3,5.3,77.9,15.7
		c23.8,10.1,45.3,24.5,63.7,42.9c18.4,18.4,32.8,39.8,42.9,63.7c10.4,24.7,15.7,50.9,15.7,77.9s-5.3,53.3-15.7,77.9
		c-10.1,23.8-24.5,45.3-42.9,63.7c-18.4,18.4-39.8,32.8-63.7,42.9C453.3,595,427,600.2,400,600.2s-53.3-5.3-77.9-15.7
		c-23.8-10.1-45.3-24.5-63.7-42.9c-18.4-18.4-32.8-39.8-42.9-63.7C205,453.3,199.8,427,199.8,400s5.3-53.3,15.7-77.9
		C225.6,298.2,240,276.8,258.4,258.4z"/>
	<path class="st0" d="M354,365.5l44.4-34.8L428,356c20,17,45.4,26.4,71.7,26.4H533l-88-68h87v-3c0-10.5-8.5-19-19-19h-65.7l51-40
		h-50.7c-8.6,0-17,2.8-24,7.9l-43.4,32.1H274v3c0,10.5,8.5,19,19,19h57.5L257.7,383h45.7C321.7,383,339.5,376.8,354,365.5z"/>
	<path class="st0" d="M323.7,456.5h40.8l-61-56.5h-63l25.2,29.7C280.2,446.7,301.4,456.5,323.7,456.5z"/>
	<path class="st0" d="M412.5,467l25.2,29.7c14.5,17,35.7,26.8,58,26.8h40.8l-61-56.5H412.5z"/>
	<path class="st0" d="M262,523.5h40.8c22.3,0,43.5-9.8,58-26.8L386,467h-63L262,523.5z"/>
	<path class="st0" d="M464,456.5L403,400h-63l25.2,29.7c14.5,17,35.7,26.8,58,26.8H464z"/>
	<path class="st0" d="M440,400l25.2,29.7c14.5,17,35.7,26.8,58,26.8H564L503,400H440z"/>
	<path class="st0" d="M113.2,366.2l-2.9,17.6l47.6,7.9l1.8-11l-4-0.7l6.7-40.5l4.2,0.7l1.8-10.8l-47.9-7.9l-2.9,17.6l-6.8-1.1
		l3.4-20.4l-10.2-1.7l-11.2,68l10.2,1.7l3.4-20.4L113.2,366.2z M129,333.9l8.2,1.4l-0.7,4c-0.3,1.9-1.4,2.7-3.3,2.4l-5.4-0.9
		L129,333.9z M126,351.8l8.2,1.4c7,1.2,10.9-1.5,11.8-7.9l1.4-8.2l5.4,0.9l-6.7,40.5l-9.1-1.5c2.7-2.3,5.5-4.2,8.3-5.9
		c-4.1-7.9-10.8-12.5-20.1-13.8L126,351.8z M123.3,368.2c6.1,0.8,10.2,3.6,12.3,8.4l-13.3-2.2L123.3,368.2z M109,349l6.8,1.1
		l-0.9,5.4l-6.8-1.1L109,349z"/>
	<path class="st0" d="M131.3,309.7l9.6,4.6l6.2-12.9c1.8,3.2,3.7,6.6,5.7,10.1c4-4,8.4-8.2,13-12.5c-0.3,4.1-2.2,12-5.9,23.6
		c3.1-0.2,7-0.2,11.7,0.2c4-14.4,5.9-25.9,5.7-34.5c5.6-5.4,11.8-11,18.6-16.9l-7.2-9.5c-4.9,4.4-9.4,8.9-13.4,13.3
		c-1.8-4.7-4.8-9.3-9-13.9l4.6-9.6l-9.6-4.6l-14.8,30.8c-1.2-2.3-2.8-4.5-4.7-6.7l-8.3,10.7c2.4,3,4.6,6,6.8,9L131.3,309.7z
		 M160.5,273.4c2.9,3.3,4.7,7,5.4,11.2c-3.8,3.9-7,7.3-9.7,10.3c-0.9-2.1-1.9-4.2-3.1-6.2L160.5,273.4z"/>
	<path class="st0" d="M129,305.8l5.2-10.9l-5.7-2.7l5-10.4l12.4-25.9l6,2.9l5.2-10.9l-15.3-7.3l-10.7,22.3c-3.4-0.8-5.8-1.3-7-1.4
		l-5.4,12.7c0.2,0.1,0.7,0.1,1.5,0.1c2.1,0.4,3.8,0.7,5,0.8L114,298.5L129,305.8z"/>
	<path class="st0" d="M169.7,238.2l16.8-18.8c8.8,9.9,10.1,23.4,3.7,40.2c4.1-0.2,8.4,0.1,13.1,0.9c4.5-15.7,4.2-28.1-1.1-37.1
		c11.5,4.4,23.4,3.4,35.8-3c-0.5-1.7-1.1-4.5-1.7-8.4c-0.3-2.3-0.5-4-0.7-5.2c-13.7,9-27,9.9-39.9,2.4l17.6-19.7l-8.6-7.6
		l-17.6,19.7c-3.3-2.9-7.4-6.8-12.2-11.7l-8.6,9.6c2.1,1.9,6.2,5.8,12.2,11.7l-17.4,19.5L169.7,238.2z"/>
	
		<rect x="220.7" y="163.8" transform="matrix(0.8468 -0.5319 0.5319 0.8468 -50.9935 161.7202)" class="st0" width="69.2" height="11.2"/>
	<path class="st0" d="M296.4,171.5c-0.7,0-1.8-0.1-3.3-0.3c-12.1-1.2-20.5-2-25.3-2.4l-2.6,11.5c2.4,0.3,6.2,0.7,11.4,1.3
		c7.9,0.7,13.6,1.3,17.1,1.8L296.4,171.5z"/>
	<path class="st0" d="M251.2,210.7c3.8-10.1,6.9-19.2,9.2-27.5l-11.8-2.1c-3.1,11-6.1,19.9-9,26.7c1.9,0.2,5.3,1,10,2.5
		C250.4,210.5,250.9,210.7,251.2,210.7z"/>
	<path class="st0" d="M246.9,162.9l8.2-8.5c-5.3-4.8-11.1-9.9-17.3-15.2l-8.1,8.1c0.8,0.6,2,1.6,3.5,2.9
		C239,155.6,243.6,159.8,246.9,162.9z"/>
	<path class="st0" d="M268.4,153.8c0-1.8,0-4.7-0.1-8.8c0-7.5,0.1-13,0.1-16.6l-12,1.4c0.3,8.4,0.5,16.6,0.5,24.5L268.4,153.8z"/>
	<path class="st0" d="M240.3,163.7c-6.1-3.2-12.8-6.5-20.2-10l-5.6,10c8.6,4.3,15.3,7.9,20.3,10.7L240.3,163.7z"/>
	<path class="st0" d="M297.6,163.5l14.9-4.2c-3.8,3.3-8.7,6.9-14.6,10.7c2.8,2.2,5.3,4.5,7.3,6.9c0.8-0.6,1.9-1.6,3.4-2.8
		c4.3-3.2,7.4-5.8,9.4-7.8c0.4,0.7,1,1.6,1.7,2.8c0.9,1.7,1.5,2.9,1.9,3.6c5.7-1.6,9.3-2.7,10.7-3.3c6-1.9,8-5.9,5.9-11.8l-1.5-5.2
		l6.6-1.9l-2.3,7.8c8.1,0.5,15.1,1.2,21.2,2l2.6-9.7c-6.5-0.3-12.8-0.6-19-0.8l16.6-4.7l-2.4-8.6l-64.9,18.5L297.6,163.5z
		 M325.7,155.5l0.9,3.3c0.7,2.6-0.1,4.2-2.5,4.9l-3.6,1c0.6-0.8,1.4-1.5,2.4-2.2l-6.1-4.5L325.7,155.5z"/>
	<path class="st0" d="M326,118.7l-12.4,3.5c0.1,0.2,0.2,0.3,0.4,0.5c0.5,1.1,1,1.8,1.5,2.2l-26.2,7.5l3.9,13.5l7.2-2l1.7,6.1
		l50-14.2l-1.7-6.1l6.3-1.8l-3.9-13.5l-25.1,7.2C327.2,120.4,326.6,119.5,326,118.7z M345.2,128.7l-41.7,11.9l-0.9-3l41.7-11.9
		L345.2,128.7z"/>
	<polygon class="st0" points="349.1,110.9 345.3,97.4 334.5,100.4 335.9,105.4 323.2,109 321.1,101.6 310.1,104.7 312.2,112.2 
		299.5,115.8 298.1,110.8 287.3,113.9 291.2,127.4 	"/>
	<path class="st0" d="M386.6,138.8l19.8,0.3c1.7,3.5,2.9,6.6,3.6,9.5l8.7-3.9c-0.7-1.9-1.6-3.8-2.5-5.5l19.5,0.3l0.1-8.6l-49.1-0.8
		L386.6,138.8z"/>
	<path class="st0" d="M406.4,141.2l-9.8-0.2l0,2.3l-7.7-2.4c-2,5.3-3.9,9.5-5.7,12.5c2.5,0.6,5.2,1.6,8.3,3c0.6-1.3,1.5-3.2,2.7-5.7
		c1-2.5,1.8-4.4,2.4-5.7l-0.1,6.9c-0.3,5.2,2.5,7.7,8.2,7.6l9.8,0.2c5.4,0.3,8.6-1.5,9.8-5.3c0.2-1.1,0.6-2.2,1.2-3.1
		c0.9,1.5,1.8,3.3,2.5,5.2l8.4-3.3c-0.6-1-1.4-2.6-2.5-4.9c-1.5-3.3-2.8-5.9-3.9-7.8l-8.4,3c0.9,1.2,1.8,2.7,2.5,4.6
		c-2.3-0.6-4.6-1.4-6.9-2.4c-0.2,1.5-0.6,2.9-1.2,4c-0.2,1.5-1.4,2.3-3.5,2.2l-2.9,0c-2.5,0.2-3.6-1-3.4-3.5L406.4,141.2z"/>
	<path class="st0" d="M388.8,107.6l-0.1,8.6l-7.7-5.3c-3.9,6.8-8.8,13-14.7,18.4c0.2,1,0.4,2.2,0.8,3.7c0.7,3.5,1.1,6.1,1.3,8.1
		c1-0.7,2.4-2.1,4.4-3.9l-0.4,22.7l10.3,0.2l0.6-34.4c0.6-0.8,1.5-2,2.6-3.7c1.2-1.5,2.1-2.6,2.6-3.4l-0.1,9.2l45.3,0.7l0.3-20.1
		l-17.2-0.3l0-2.6l18.7,0.3l0.1-8.6l-18.7-0.3l0.1-5.2l-10.9-0.2l-0.1,5.2l-18.4-0.3l0,1.1l-6.8-5.9c-4.1,5.3-8.6,10-13.4,14.1
		c1.5,3.5,2.8,7.2,3.8,11.3c6.6-6,12.1-11.5,16.3-16.4l-0.1,4.3l18.4,0.3l0,2.6L388.8,107.6z M401.5,120.1l-3.7-0.1l0.1-4.9l3.7,0.1
		L401.5,120.1z M421.1,115.6l3.7,0.1l-0.1,4.9l-3.7-0.1L421.1,115.6z M409.4,115.4l4,0.1l-0.1,4.9l-4-0.1L409.4,115.4z"/>
	<path class="st0" d="M441.5,163.2c4.4-2.7,8-5.3,10.7-7.9c2.1,5.8,7.6,10,16.6,12.7c3,1.3,9.5,3.4,19.4,6.3
		c4.4,1.5,7.7,2.6,10.1,3.3c0.8-1.4,2.4-3.6,4.7-6.7c0.7-1,1.2-1.7,1.6-2.2c-11-3.2-19.9-5.8-26.7-7.8l2.2-7.4l22.9,6.7l2.9-9.9
		l-22.9-6.7l2-6.9l20.4,6l8.1-27.5l-53.7-15.8l-8.1,27.5l21.8,6.4l-6.9,23.4c-3.7-2.5-6-6.4-7-11.9c1.5-3,2.9-6.1,4.3-9.5l-10.6-4.6
		c-3.3,11.4-9,18.7-16.9,22c1,1.9,2.6,5.1,4.7,9.5C441.2,162.5,441.4,163,441.5,163.2z M466,120.5l2.4-8.3l30.6,9l-2.4,8.3
		L466,120.5z"/>
	<path class="st0" d="M545.9,152.6l13.1,8.3l-8.3,13.1c-4.3,0-9.9-0.2-16.7-0.5c-1.5-0.1-2.7-0.1-3.3-0.1l-2.5,11.4
		c1.8,0,4.6-0.1,8.4-0.4c3.6-0.2,6.1-0.4,7.8-0.5l-2.9,4.6c-1.5,2.7-3.4,3.2-5.7,1.5c-2.4-1.5-4.3-2.9-5.7-4
		c-0.6,2.8-1.7,5.9-3.3,9.5c4.5,2.9,7.1,4.4,7.9,4.7c6,3.8,10.7,2.6,14.2-3.5l6.8-10.6c-0.8,8.8-0.3,16.4,1.7,22.9
		c1.4-0.7,3.6-2,6.9-3.8c1.6-1,2.7-1.8,3.5-2.2c-2-6.1-3-11.5-2.9-16.2c0.8-0.2,2.2-0.5,4.4-1c4.9-0.9,8.5-1.7,10.7-2.4l-3.6-9.8
		c-3.5,1.2-7,2.3-10.7,3.4c0.7-3.2,1.5-6.6,2.5-10.3l15.2,9.7l5.4-8.5l-6-3.9l6.2-0.1c0-0.4,0-1-0.2-1.8c-0.7-3.9-1.1-6.7-1.3-8.7
		l-8.8-0.1c0,1.1,0.1,3,0.4,5.7c0.1,1.2,0.2,2.2,0.2,2.9l-5.8-3.7l6-9.4l-8.9-5.7l-6,9.4l-13.1-8.3L545.9,152.6z"/>
	<path class="st0" d="M507.4,166.4l-4.6,10.4c3.5,1.3,8.4,3.4,14.7,6.3c2.7,1.1,4.7,1.9,5.9,2.4c1.6-2.6,3.6-5.6,5.7-8.9
		c-1.6-0.8-3.3-1.6-5.3-2.4l7.4-11.6l4.6,2.9l5.6-8.7l-4.6-2.9l7.1-11.1l5.1,3.2l5.6-8.7L535.3,125l-5.6,8.7l5.3,3.4l-7.1,11.1
		l-4.8-3.1l-5.6,8.7l4.8,3.1l-8.2,12.8C511.8,168.5,509.5,167.4,507.4,166.4z"/>
	<path class="st0" d="M542,156.5c-0.2,4.6-0.7,9.4-1.4,14.4l10.4,0.8c0.1-1.5,0.2-3.9,0.3-6.9c0-3.2,0-5.5,0.1-7.1L542,156.5z"/>
	<path class="st0" d="M577,199.3c-0.9,1-1.6,1.8-2.2,2.3c3-0.3,6.2-0.8,9.4-1.4L561.7,220l7,8l38.8-34.1c4.7-1.6,9.2-3.5,13.4-5.7
		l-5-10.1c-8.4,4.6-18.5,8.5-30.2,11.7C583.8,192.2,581,195.3,577,199.3z"/>
	<path class="st0" d="M586.2,214.9l-6.9,6.1l10.2,11.6c-5.9-3-10.7-5.9-14.3-8.8c-0.5,1.5-1.2,3.5-2.2,6.2c-0.5,1.5-0.9,2.4-1.2,3
		c6.3,3.9,12.5,7.2,18.7,9.9l1.5-7.4l8,9.1l-7.2,1c1.5,3.5,3.2,7.9,4.8,13.3c1.1,2.6,1.8,4.7,2.3,6l9.7-2c-0.6-1-1.4-2.6-2.3-4.8
		c-1.8-4.3-3.2-7.7-4.2-10l9.9,11.2l6.9-6.1l-3-3.4l32.8-28.8l-27.9-31.7l-32.8,28.8L586.2,214.9z M622.4,203l13.7,15.5l-2.8,2.5
		l-13.7-15.5L622.4,203z M614.4,210l13.7,15.5l-2.6,2.3l-13.7-15.5L614.4,210z M606.6,216.8l13.7,15.5l-2.8,2.5l-13.7-15.5
		L606.6,216.8z M598.9,223.6l13.7,15.5l-2.8,2.5l-13.7-15.5L598.9,223.6z"/>
	<path class="st0" d="M641.8,281.3l-12.2,5.7c-2.7,1.5-4.5,1-5.5-1.5c-1.1-2.4-2.4-5.2-3.9-8.3c-0.4,0.4-1.3,1-2.6,1.9
		c-3.1,2.5-5.3,4.3-6.7,5.4c1.6,3.5,3.4,6.8,5.4,10.1c3.3,7.4,8.5,9,15.7,5l15.1-7.1l10.3,21.8l9.9-4.6l-10.3-21.8l10.4-4.9
		l-5.3-11.2l-10.4,4.9l-5.7-12.2l12.8-4.4c8.2,15.6,15.5,29.1,21.9,40.5l8.3-8c-9-15-17.3-30.8-25.1-47.2l-33.5,11.7L641.8,281.3z"
		/>
	<path class="st0" d="M634.7,266.9c-8.5-1.1-16.4-2.7-23.6-5.1c-0.3,3.8-1.1,7.6-2.2,11.5c6.5,2,14.7,3.8,24.7,5.2L634.7,266.9z"/>
	<path class="st0" d="M650.9,303.4l-9.2-5.5c-1.2,2.5-3.2,6.3-6,11.4c-2.3,4.5-4,7.7-5,9.6l10.3,6.3c0.4-0.6,0.8-1.5,1.2-2.8
		C646.1,314,649.1,307.6,650.9,303.4z"/>
	<path class="st0" d="M702.4,358.5l-64.6,10.2l1.6,10.2l15-2.4l-7.1,2.9c0.3,1.7,0.6,3.6,0.9,5.7c1.6,7.5,6.5,10.4,14.7,8.7
		c6.2-1,11.3-4.1,15.1-9.3l18.4,2.6l10.2-1.6L702.4,358.5z M675.9,374.6c-4.6,5-9,7.8-13.2,8.5c-3,0.5-4.6-0.5-4.8-3l-0.6-4
		l36.6-5.8l0.9,6L675.9,374.6z"/>
	<path class="st0" d="M638.4,363.9l28.4-4.5l-5.2-33.2l-28.6,4.5l1.7,10.5l3.4-0.5l2,12.5l-3.1,0.5L638.4,363.9z M653.9,338.2
		l2,12.5l-7.4,1.2l-2-12.5L653.9,338.2z"/>
	<path class="st0" d="M684.7,329l-3.8-5.5c-1.6,2-3.5,3.8-5.5,5.5l-1.2-7.7l-9.1,1.4l6.1,38.6l9.1-1.4l-1.2-7.7
		c0.6,0.3,1.7,0.7,3.1,1.3c2,0.6,3.6,1.3,4.7,1.9l1-6.6l1.2,7.9l9.1-1.4l-1.8-11.3c0.9-0.3,2.1-0.8,3.6-1.4c1.5-0.6,2.5-1.1,3.3-1.4
		l-2.7-11.8c-1.8,0.9-3.8,1.8-6,2.7l-1.8-11.6l-9.1,1.4L684.7,329z M687.1,344.3c-2.8-0.7-4.9-1.4-6.1-1.9c-1.6-0.5-2.9-0.9-3.7-1.2
		l-1.1-6.8l3.3,4.4c2-1.9,3.4-3.2,4-4.1c0.9-0.7,1.4-1.3,1.8-1.7L687.1,344.3z"/>
	<path class="st0" d="M149.1,513.6c15.2-5.7,19.7-16.8,13.5-33.4l-6-16.2l-46.8,17.4l6,16.1c2.7,7.4,7.2,12.5,13.3,15.6
		C135.2,516.1,141.9,516.3,149.1,513.6z M123.7,493.8l-2-5.4l30.5-11.3l2,5.4c1.7,4.5,1.7,8.7,0.2,12.4c-1.6,3.8-4.7,6.5-9.3,8.3
		c-4.8,1.8-9.1,1.9-13,0.2C128.3,501.7,125.5,498.5,123.7,493.8z"/>
	<path class="st0" d="M193.8,539.9l-6.4-10l-17.2,1.1c-1.6,0.3-3.1,0.6-4.5,0.9l-0.1-0.1c1-1.2,1.9-2.3,2.7-3.5l8.9-14.5l-6.9-10.9
		l-13.3,25.7l-29.7-0.2l6.8,10.8l18.7-1.2c1.6-0.3,2.7-0.5,3.5-0.8l0.1,0.1c-1.1,1.1-1.9,2-2.2,2.6l-9.2,16.4l6.8,10.7l13-26.5
		L193.8,539.9z"/>
	<path class="st0" d="M174.4,584.6c-2.9-3.7-4-7.6-3.3-11.6s2.9-7.5,6.8-10.5c4-3.1,8.1-4.4,12.3-4c4.3,0.4,7.9,2.5,10.9,6.4
		c2.6,3.4,4.2,7,4.7,10.9l8.1-6.3c-1-3.4-3-7-6-10.9c-4.8-6.2-10.6-9.7-17.6-10.5c-7-0.8-13.6,1.2-19.8,6c-5.9,4.6-9.3,10-10.2,16.2
		c-0.9,6.2,1,12.3,5.6,18.3c3.6,4.6,7.2,7.8,10.8,9.6l7.7-6C180.5,590.6,177.1,588.1,174.4,584.6z"/>
	<path class="st0" d="M228.1,580.5l-12.7-11.7l-33.8,36.7l12.6,11.6c5.8,5.3,12.1,7.9,18.9,7.9c6.8-0.1,12.8-2.9,18.1-8.6
		C242.2,604.4,241.2,592.5,228.1,580.5z M222.9,608.9c-3.5,3.8-7.3,5.8-11.5,6.1c-4.2,0.3-8.1-1.3-11.8-4.7l-4.3-3.9l22-23.9
		l4.2,3.9c3.5,3.3,5.5,6.9,5.8,11C227.7,601.4,226.2,605.3,222.9,608.9z"/>
	<polygon class="st0" points="260.9,632.5 267.2,621.3 282.7,630.2 287,622.6 262.3,608.5 237.5,651.8 246.8,657.1 256.5,640 
		270.8,648.1 275.1,640.6 	"/>
	<path class="st0" d="M308,630.9c-7-2.6-13.5-2.5-19.5,0.5c-6,3-10.4,8.1-13.1,15.4c-2.6,6.9-2.6,13.4-0.1,19.3
		c2.5,6,7.1,10.2,13.8,12.7c6.9,2.6,13.3,2.4,19.2-0.5c5.9-2.9,10.3-8,13-15.3c2.6-7,2.7-13.5,0.4-19.4
		C319.3,637.6,314.7,633.4,308,630.9z M310.6,659.7c-1.8,4.7-4.2,8-7.5,9.9c-3.2,1.9-6.8,2.2-10.7,0.7c-3.8-1.4-6.3-4-7.4-7.7
		c-1.1-3.7-0.8-7.8,0.9-12.4c1.7-4.6,4.3-7.9,7.6-10s6.9-2.3,10.8-0.9c3.8,1.4,6.3,4,7.3,7.6C312.9,650.6,312.5,654.8,310.6,659.7z"
		/>
	<path class="st0" d="M355.2,643.1c-7.4-1.3-13.8,0.2-19.1,4.2s-8.6,10-10,17.7c-1.2,7.3,0,13.6,3.6,19c3.6,5.4,9,8.7,16,9.9
		c7.2,1.2,13.5-0.2,18.7-4.2c5.3-4,8.6-9.9,9.9-17.5c1.2-7.3,0.1-13.7-3.4-19.1S362.3,644.3,355.2,643.1z M363.3,670.9
		c-0.8,4.9-2.6,8.6-5.4,11.2c-2.8,2.5-6.2,3.4-10.3,2.7c-4-0.7-6.9-2.7-8.7-6.2c-1.8-3.4-2.3-7.5-1.5-12.3c0.8-4.9,2.7-8.6,5.6-11.2
		c2.9-2.6,6.4-3.6,10.5-2.9c4,0.7,6.9,2.7,8.6,6.1C363.7,661.6,364.2,665.8,363.3,670.9z"/>
	<polygon class="st0" points="376.7,657.2 390.9,657.5 390.3,698.7 400.9,698.8 401.6,657.6 415.8,657.9 416,649.2 376.9,648.5 	"/>
	<path class="st0" d="M453.6,671.2c-2.4-1.8-5.4-2.7-8.9-2.7l0-0.1c2.6-1.1,4.7-2.8,6.3-5.1c1.5-2.3,2.1-4.7,1.8-7.4
		c-0.5-3.6-2.3-6.3-5.5-7.9c-3.2-1.7-7.5-2.1-12.9-1.4l-17.6,2.4l6.6,49.5l18.5-2.5c5.5-0.7,9.7-2.7,12.6-5.7s4-6.9,3.4-11.4
		C457.4,675.6,456,673,453.6,671.2z M428.4,655.3l4.5-0.6c5.5-0.7,8.6,0.8,9.1,4.6c0.3,2.1-0.2,3.8-1.4,5.1c-1.2,1.3-3,2.2-5.5,2.5
		l-5,0.7L428.4,655.3z M445.2,685.5c-1.3,1.4-3.3,2.3-6,2.7l-6.3,0.8l-1.8-13.6l6.2-0.8c2.7-0.4,4.9-0.1,6.6,0.9
		c1.6,1,2.6,2.5,2.9,4.6C447,682.3,446.5,684.1,445.2,685.5z"/>
	<path class="st0" d="M467.2,637.7l-3.9,53l11.1-3.2l0.4-12l17.4-5l6.7,10l11.2-3.2l-30.9-43.1L467.2,637.7z M474.8,667l0.7-18.3
		c0.1-1.4,0-2.9-0.3-4.3l0.3-0.1c0.6,1.7,1.3,3,1.9,4l10.2,15.1L474.8,667z"/>
	<polygon class="st0" points="523.2,661.4 506.5,623.7 496.7,628 517,673.6 543.8,661.8 540.2,653.8 	"/>
	<polygon class="st0" points="554.4,643.8 532.1,609.1 523.2,614.8 550.1,656.9 574.8,641.1 570.1,633.8 	"/>
	<path class="st0" d="M608.9,601.4c-3.4,3.3-7.1,4.9-11.2,4.7s-7.8-2-11.3-5.5c-3.5-3.6-5.3-7.5-5.5-11.8c-0.1-4.3,1.6-8.1,5-11.5
		c3-3,6.5-5,10.2-5.9l-7.2-7.3c-3.2,1.4-6.6,3.8-10.1,7.2c-5.6,5.5-8.3,11.7-8.3,18.8c0,7,2.8,13.4,8.3,19c5.3,5.3,11,8.1,17.4,8.2
		c6.3,0.1,12.1-2.5,17.5-7.8c4.2-4.1,6.9-8.1,8.2-11.9l-6.9-7C614.2,594.7,612.1,598.3,608.9,601.4z"/>
	<polygon class="st0" points="629.1,578 596.4,552.9 589.9,561.3 629.5,591.7 647.3,568.5 640.4,563.2 	"/>
	<path class="st0" d="M652.1,517.5l-24.8-13.9l-5.2,9.3l25.8,14.4c7,3.9,8.9,8.7,5.8,14.3c-3.2,5.7-8.4,6.5-15.7,2.5l-25.4-14.2
		l-5.2,9.3l25.3,14.2c12.7,7.1,22.2,4.8,28.8-6.9C668.2,534.4,665.1,524.7,652.1,517.5z"/>
	<path class="st0" d="M674.3,476.3c-3.1-1.1-6-1-8.7,0.3c-2.7,1.3-4.9,3.5-6.5,6.6l-0.1,0c0.2-2.9-0.4-5.5-1.7-7.9
		c-1.3-2.4-3.2-4.1-5.8-5c-3.4-1.2-6.6-0.8-9.6,1.3c-2.9,2.1-5.3,5.7-7.1,10.8l-5.9,16.7l47,16.7l6.2-17.6c1.9-5.3,2.1-9.9,0.6-13.8
		S678.6,477.8,674.3,476.3z M653.3,491.1l-1.7,4.8l-11.6-4.1l1.5-4.3c1.9-5.3,4.6-7.3,8.2-6c2,0.7,3.3,1.9,3.9,3.6
		C654.2,486.8,654.1,488.8,653.3,491.1z M674.2,497.2l-2.1,6l-12.9-4.6l2.1-5.9c0.9-2.6,2.2-4.4,3.8-5.5c1.6-1,3.4-1.2,5.4-0.5
		c2.1,0.7,3.5,2,4.1,3.9C675.2,492.5,675.1,494.7,674.2,497.2z"/>
	<circle class="st0" cx="128.3" cy="427.3" r="7.4"/>
	<path class="st0" d="M127.6,451.6c13.3,0,24-10.7,24-24s-10.7-24-24-24s-24,10.7-24,24S114.3,451.6,127.6,451.6z M107.7,428.4
		c0,0,7.7-0.7,8.3-5.7c0.7-5-2.7-9-2.7-9l5.7-4.3c0,0,2.3,4.7,8,4.7c5.7,0,9.3-4.7,9.3-4.7l5.7,4c0,0-3.7,4-2.7,9s8,5.8,8,5.8
		l-1,7.5c0,0-7.7-3-11.3,1c-3.7,4-2.3,10-2.3,10l-9-0.3c0,0,1.7-6.3-3-10c-4.7-3.7-11.3-0.3-11.3-0.3L107.7,428.4z"/>
	<circle class="st0" cx="673.6" cy="427.3" r="7.4"/>
	<path class="st0" d="M672.9,403.6c-13.3,0-24,10.7-24,24s10.7,24,24,24c13.3,0,24-10.7,24-24S686.1,403.6,672.9,403.6z
		 M691.7,435.7c0,0-7.7-3-11.3,1c-3.7,4-2.3,10-2.3,10l-9-0.3c0,0,1.7-6.3-3-10c-4.7-3.7-11.3-0.3-11.3-0.3l-1.7-7.7
		c0,0,7.7-0.7,8.3-5.7c0.7-5-2.7-9-2.7-9l5.7-4.3c0,0,2.3,4.7,8,4.7c5.7,0,9.3-4.7,9.3-4.7l5.7,4c0,0-3.7,4-2.7,9s8,5.8,8,5.8
		L691.7,435.7z"/>
</g>
</svg>
