<?xml version="1.0" encoding="utf-8"?>
<!-- Generator: Adobe Illustrator 22.1.0, SVG Export Plug-In . SVG Version: 6.00 Build 0)  -->
<svg version="1.1" id="图层_1" xmlns="http://www.w3.org/2000/svg" xmlns:xlink="http://www.w3.org/1999/xlink" x="0px" y="0px"
	 viewBox="0 0 800 800" style="enable-background:new 0 0 800 800;" xml:space="preserve">
<style type="text/css">
	.st0{fill:#CF000A;}
	.st1{fill:#C6000D;}
	.st2{fill:#000201;}
	.st3{fill:#FEE101;}
	.st4{fill:#FCE000;}
	.st5{fill:#D50505;}
	.st6{fill:#010101;}
	.st7{fill:#FFFFFF;}
	.st8{fill:#C30409;}
</style>
<g>
	<g>
		<path class="st0" d="M719.5,622l-57-113.5H400H137.5L80.5,622C141,610,234,601.5,234,601.5l-23.5,63C321,642.5,400,643,400,643
			s79-0.5,189.5,21.5l-23.5-63C566,601.5,659,610,719.5,622z"/>
		<g>
			<path class="st1" d="M603,245c-14.8-10.8-13.2-34.2-0.5-37.5c12.7-3.3,15.8,6,16.7,9.7c0.8,3.7-1.2,5.3-2,3
				c-4.3-12.7-17.7-7.5-20-0.3c-2.3,7.2-1,22,15,22.2c16,0.2,23.2-19,21.2-32s-18.5-19.2-26.8-25.3c-8.3-6.2-8.3-23.3-8.3-23.3
				c-12,17.5-18,17.5-22.5,17.7c-4.5,0.2-20.3-1.5-30,8c-9.7,9.5-9.8,21.9-4.1,32.6c5.7,10.7,16.5,9.2,21.8,7.2
				c5.3-2,12.8-14.2,6.3-21.8s-13.1-2.5-15.1-1.2c-2,1.3-3.2,1.1-2.2-0.9c4.5-10.5,20.5-8.7,23.3,1.8c2.8,10.5-2.5,18.3-11,25
				s-27.2,0.3-27.2,0.3c1.5-9.2-3.2-16.2-25.5-30.2c-22.3-14-25.3-25-25.3-25c-2.6,6.4-10.6,11.2-28,9.6s-35-12.4-42.1-25
				s-5.6-30.1,4.8-38.4s26.1-3.5,30.5,4.6s1.6,10.6,0.4,8.6c-2.5-5-19.2-15.8-27.7-1.8s-4.5,27,7,34s28,4,37.2-8.2s10.8-34,1-49
				S440.8,89.8,436.8,89s-13-1.8-23.2-12S400,50,400,50s-3.2,16.8-13.5,27s-19.2,11.2-23.2,12s-23.5,5.5-33.2,20.5s-8.2,36.8,1,49
				s25.8,15.2,37.2,8.2s15.5-20,7-34s-25.2-3.2-27.7,1.8c-1.2,2-4-0.5,0.4-8.6s20.1-12.9,30.5-4.6s11.9,25.8,4.8,38.4
				s-24.8,23.4-42.1,25s-25.4-3.2-28-9.6c0,0-3,11-25.3,25c-22.3,14-27,21-25.5,30.2c0,0-18.7,6.3-27.2-0.3s-13.8-14.5-11-25
				c2.8-10.5,18.8-12.3,23.3-1.8c1.1,2-0.2,2.2-2.2,0.9c-2-1.3-8.6-6.3-15.1,1.2s1,19.8,6.3,21.8c5.3,2,16.2,3.4,21.8-7.2
				c5.7-10.7,5.6-23.1-4.1-32.6c-9.7-9.5-25.5-7.8-30-8c-4.5-0.2-10.5-0.2-22.5-17.7c0,0,0,17.2-8.3,23.3
				c-8.3,6.2-24.8,12.3-26.8,25.3s5.2,32.2,21.2,32c16-0.2,17.3-15,15-22.2c-2.3-7.2-15.7-12.3-20,0.3c-0.8,2.3-2.8,0.7-2-3
				c0.8-3.7,4-13,16.7-9.7c12.7,3.3,14.3,26.7-0.5,37.5l-44.8,10.2c0,0,2.2,138.5,41.5,253.2C233,623,287.7,709.7,400,750
				c112.3-40.3,167-127,206.3-241.7c39.3-114.7,41.5-253.2,41.5-253.2L603,245z"/>
			<path class="st2" d="M622.8,296.2l-56.5-11l2-34.5C489.5,240,400,181.7,400,181.7s-89.5,58.3-168.2,69.1l2,34.5l-56.5,11
				c0,0-0.2,116.1,38.4,220.8C254.3,621.7,310,696.5,400,733c90-36.5,145.7-111.3,184.3-216C623,412.3,622.8,296.2,622.8,296.2z"/>
			<path class="st3" d="M604,353.3L564,328v-31c-118.3-54.7-164-113.5-164-113.5S354.3,242.3,236,297v31l-40,25.3
				c0,0-3.7,68.3,31.7,164.3c35.3,96,96,166.7,172.3,201c76.3-34.3,137-105,172.3-201C607.7,421.7,604,353.3,604,353.3z"/>
		</g>
		<path class="st4" d="M701.5,608.5l-49-91H400H147.5l-49,91c0,0,85-12.5,149-16.5L222,655c0,0,114-18.5,178-18.5S578,655,578,655
			l-25.5-63C616.5,596,701.5,608.5,701.5,608.5z"/>
		<path class="st5" d="M643,522H400H157l-42,80.5c75.5-16,285-19.5,285-19.5s209.5,3.5,285,19.5L643,522z"/>
		<path class="st5" d="M541,591.3c-47.7-4.3-141-4.3-141-4.3s-93.3,0-141,4.3l-23,56.3c0,0,72.3-15.3,164-15.3s164,15.3,164,15.3
			L541,591.3z"/>
	</g>
	<g>
		<g>
			<path class="st6" d="M387.4,408.1c-0.2-2.2-5.6-12.2-6-14s-2.9-9.4-2.9-9.4s-2.2,0.8-7.2-1.3c-5-2.1-14.3-5.1-17-5.2
				c0,0,2-22.9,4-28.2c0.5-1.8,1,1.1,1.9,2.1s3.5,3.9,5.4,5.2s2.1,3.2,1.5,4.8s-0.4,3.3,0.7,4.1s0.8,3.1-1.4,1.1c0,0-7.4,6,3.1,12
				c2.1,1.1,2.6-2.4,2.1-5.1c0,0,2.8-3.4,3.5-5.1c0.7-1.7-1-3.6-0.1-7.9c0.3-2.1-1.5-3.2-3-4.1c-1.5-0.9-8.3-9.6-9-13.4
				c-0.7-3.8-4.1-6.4-8.2-2.6c-4.1,3.8-10.8,20.8-11.2,22.2c-0.5,1.3-4,1.8-7.1-0.8c-3.1-2.7-5.9-5.3-12.2-7
				c-6.3-1.7-15.4-5.8-15-9.7c0.4-3.8,0.2-2.8,0.2-2.8s-1.8-1.2-1.7-1.5s1.1-0.8,4.3-0.5s7.2-2.5,7.2-2.5s3.2,1.1,4.1,1.4
				c0.9,0.3,1.2,1.6,1.7,2.8c0.4,1.2,1,2.8,2.5,2.5c1.5-0.2,2.4-1.3,3.2-1.3s1.7,0.4,2.3,0.7c0.6,0.3,1.8,0.2,2.3-1.2
				c0.6-1.5,2.8-3.9,3.6-4.5s0.8-5.4-0.5-7.6c0,0-3.3-0.1-14.2-9.2c-0.5-1.4-0.9-2.9-2.8-4.1s-5.1-1.4-5.5-3.5
				c-0.3-1.2-2.4-1.3-3.4-1.2c-0.3,0-0.6-0.2-0.6-0.6l0-0.6c0-0.3,0.2-0.5,0.4-0.6c0.6-0.1,1.8-0.5,2.3-1.2c0.8-1,2.4-1.5-1.9-10.4
				c0,0-1,5.8-3.8,7.4c-2.8,1.6-6,2.3-8.8,2.1s-9.6,9.5-11.7,10.2c-2.1,0.7-3.2-0.4-3.4-2.8c0,0-0.9,4,1.1,4c1.3,0,1.9,0,1.9,0v1.9
				c0,0-11-0.7-11.5,11.2c0,0,1.5-1.3,2.1-1.9s2.4,0.1,0,2.8s-4,7.7-1.2,12.4s-0.1,10.2-2.1,12.6s-2.1,4.5,5.1,8.9
				c0,0-1.8-2.7-2.2-3.4c-0.3-0.7-1.4-3,2.2-7.1h1.9c0,0-0.2,2.3-0.3,3.6c-0.1,1.3-0.7,4.5,2.2,7.2c2.8,2.8,5.5,7.8,3.8,9.3
				c-1.7,1.5-8.5,4.8-8.6-3c0,0-5,9,5.7,6.9c2.3-0.8,3.1,1.2,1.2,2.2s-5.6,2.5-8.3,0c0,0,2.5,8,13.9,1.8c2.2-1.5,6.8-0.5,1.3,8.2
				s-7.6,11.6-7.6,11.6s-22.2,7.7-22.7,22.3c0,0-10.9-6.5-18.9-2.4S232,437.5,232,446.6s2.1,13,2.2,14.8s-0.4,4.1-2.2,5.4
				c0,0,3,0.9,3.9-5.2c0,0,5.9,6.9,2.6,13.2s-3.6,9.9,2.5,15s-0.2,14.4-5.4,12.4s-6.5-7.2-6.5-7.2s-1.9,10.5,8,11.4
				c0,0-7.4,7.6-14.6-6.5c0,0,2.5,12.5,12,12.1s12.4-3.8,12.4-3.8s12.6,1.5,9.1-13.5c0,0,2.9,3.2,5.8,0.5c0,0-5.2-0.2-3.4-3.8
				s7.9-6.1,1.4-19.5c0,0,5.5-3.5,0.2-12.1c0,0,4-0.5,3.7,5.9c0,0,6.4-6.1-1.1-12.6c0,0,0.8-0.5,2.6,0.8c0,0,0.5-3.2-6.9-7.4
				c0,0,3.4-3.1,1.8-6.6c0,0-1.9,3.1-3.4,3.3c0,0-3.8-2.1-0.8-5.6s6.9-1.8,6.9-1.8s-0.4,3.8,2.9,8.3c3.3,4.6,8.5,7.5,9.9,9.8
				c1.4,2.3,3.2,9.1-1.8,14.2c-5,5.2-7.7,6.5-8.7,9.8c-1,3.3-0.9,4.5,1.4,7.6c2.3,3.1,4.4,7.8,4.8,11.6c0.4,3.8,1.9,9.8,4.9,10.1
				c1.5,0.2,1.7,1.4,1.7,1.8h-1v5.2c0,0,3.1,2.9,6.3,3s6.6-0.9,5.4-3.4s-2.2-1-1.8-4.3c0.1-1-4.9-1.1-8.8-11.3s-4.1-18.9,4.2-25.2
				c8.3-6.3,8.5-6,11.2-7.2c2.7-1.2,4.8-3.7,5.7-7.8c0.8-4.2,1.5-7.9,1.6-8.6s0.5-2.1,3.1-0.4s1.9,2,1.4,6.2s-1.1,8.3,0.6,9.5
				s3.5,0.8,4.9,0.4s1.8-0.3,3,0.3s2.4,1.3,5.1,0s4.8-2.2,6.8-1.5c2,0.7,6.1-1.2,7.1-1.7s3.1-1.2,4.2,0.2c1.1,1.4,2.8,1.2,3.6,1.2
				c0.8,0,1.8,0.8,1.2,2.2c-0.6,1.4,0.5,4.1,2.4,4.2s2,0.1,2,0.1s4.5-0.2,5.8-0.5s2-2.2,2-2.2s-2-1.1-3.1-2.2S349,462,349,462
				l-2.1-3c0,0-2.2,0.7-3.9-2.2s-6.6-3-10.1-0.8s-12.9,4.5-17.1,0.5c-4.2-4-1.5-7,2.9-12.9c4.4-5.9,2.9-10,1.3-12.1
				c0,0,8.4-5.2,10.1-6.4c1.7-1.2,6.8-5,10.2-7.2l5.5-9.5l3.5-5.7c0,0,1.3-7.7,4-9l2.2-4c0,0,9.8-0.2,17.5,3.4
				c3.1,1.2,2.7,5.1,2.7,5.1l3.9,10.7c0,0,0.4,1.2-0.7,2.2c-0.6,0.5-0.2,5,0.3,5.9l-0.8,1c0,0-4.8,1.2-5.1,4.6c0,0,4.5,5,6.6,5.7
				s5.5,0.2,5.5,0.2s-0.9-8.1-1-9.6s0.5-4.5,2.2-5C387.6,413.4,387.6,410.4,387.4,408.1z M316.5,321.6c0,0,1.1,0,2,0.6
				s1.5,1.4,1.5,1.4s-0.2,0.7-1.2,0.4c-1-0.3-1.4-0.4-1.7-1.3C316.8,322.1,316.1,322.3,316.5,321.6z"/>
			<path class="st6" d="M435.2,300.2c11.8-12,3-20.7-4.3-26.7c-7.3-6-6.3-14.5-4.8-17c1.6-2.5,6.8-4.3,3-4.7s-12,1.5-13.7,10.2
				c-1.7,8.7,4.1,13.8,8.5,22.1s-3.6,12-7.4,12s-9.4-6.9-9.1-15.5c0.2-6.6,2.7-9.8,3.9-10.9c0.4-0.4,0.6-0.8,0.6-1.3
				c0.1-1.2,0.1-2.5-1.1-2.9c-1.5-0.5-4.9-4-4.9-6v-4.3c0-1.7,1.4-3.1,3.1-3.1h0.3c0.2,0,0.4-0.2,0.4-0.4c0-0.6-0.2-1.7-1.5-2.5
				c-1.8-1.1-3.9-4.1-5.5-6.2s-1.9-5.2-2.6-5.2s-1,3.1-2.6,5.2s-3.8,5.1-5.5,6.2c-1.2,0.8-1.5,1.9-1.5,2.5c0,0.2,0.2,0.4,0.4,0.4
				h0.3c1.7,0,3.1,1.4,3.1,3.1v4.3c0,2-3.4,5.5-4.9,6c-1.2,0.4-1.2,1.7-1.1,2.9c0,0.5,0.3,1,0.6,1.3c1.2,1.1,3.7,4.3,3.9,10.9
				c0.2,8.6-5.3,15.5-9.1,15.5s-11.8-3.7-7.4-12s10.2-13.5,8.5-22.1c-1.7-8.7-9.8-10.5-13.7-10.2s1.4,2.2,3,4.7
				c1.5,2.5,2.5,11-4.8,17c-7.3,6-16.2,14.7-4.3,26.7c0,0-9.2,7.3-2.3,14c6.8,6.7,14.5,3.5,21.5-2.7c7-6.2,8.3,0.7,6,3.8
				c-2.3,3.1-11.6,11.8-4,17.9v24.4h2.1v-24.1h1.4v24.1h2.1v-24.1h1.9v24.1h1.2v-24.1h2.1v119.2l6.3-0.2v-119h2.1v24.1h1.2v-24.1
				h1.9v24.1h2.1v-24.1h1.4v24.1h2.1v-24.4c7.6-6.2-1.7-14.8-4-17.9c-2.3-3.2-1-10,6-3.8c7,6.2,14.7,9.3,21.5,2.7
				C444.3,307.5,435.2,300.2,435.2,300.2z"/>
			<path class="st6" d="M413.4,414c1.7,0.5,2.3,3.5,2.2,5s-1,9.6-1,9.6s3.4,0.5,5.5-0.2s6.6-5.7,6.6-5.7c-0.3-3.3-5.1-4.6-5.1-4.6
				l-0.8-1c0.5-0.9,0.9-5.4,0.3-5.9c-1.1-0.9-0.7-2.2-0.7-2.2l3.9-10.7c0,0-0.4-3.8,2.7-5.1c7.8-3.7,17.5-3.4,17.5-3.4l2.2,4
				c2.7,1.3,4,9,4,9l3.5,5.7l5.5,9.5c3.3,2.2,8.5,6,10.2,7.2c1.7,1.2,10.1,6.4,10.1,6.4c-1.6,2.1-3.1,6.2,1.3,12.1
				c4.4,5.9,7.1,8.9,2.9,12.9c-4.2,4-13.6,1.8-17.1-0.5s-8.4-2.1-10.1,0.8s-3.9,2.2-3.9,2.2l-2.1,3c0,0-0.5,2.2-1.6,3.4
				s-3.1,2.2-3.1,2.2s0.8,2,2,2.2s5.8,0.5,5.8,0.5s0,0,2-0.1s3-2.8,2.4-4.2c-0.6-1.4,0.3-2.2,1.2-2.2c0.8,0,2.5,0.2,3.6-1.2
				c1.1-1.4,3.2-0.7,4.2-0.2s5.1,2.3,7.1,1.7c2-0.7,4.1,0.2,6.8,1.5s3.8,0.6,5.1,0s1.6-0.7,3-0.3s3.2,0.8,4.9-0.4s1.1-5.2,0.6-9.5
				s-1.2-4.5,1.4-6.2s3-0.4,3.1,0.4s0.8,4.5,1.6,8.6c0.8,4.2,3,6.7,5.7,7.8c2.7,1.2,2.8,0.8,11.2,7.2c8.3,6.3,8.1,15,4.2,25.2
				s-8.9,10.3-8.8,11.3c0.4,3.3-0.6,1.8-1.8,4.3s2.1,3.5,5.4,3.4s6.3-3,6.3-3v-5.2h-1c0-0.4,0.2-1.6,1.7-1.8c3-0.3,4.5-6.3,4.9-10.1
				c0.4-3.8,2.5-8.5,4.8-11.6c2.3-3.1,2.4-4.2,1.4-7.6c-1-3.3-3.7-4.7-8.7-9.8c-5-5.2-3.2-11.9-1.8-14.2c1.4-2.3,6.6-5.2,9.9-9.8
				c3.3-4.6,2.9-8.3,2.9-8.3s3.9-1.8,6.9,1.8s-0.8,5.6-0.8,5.6c-1.5-0.2-3.4-3.3-3.4-3.3c-1.7,3.4,1.8,6.6,1.8,6.6
				c-7.4,4.2-6.9,7.4-6.9,7.4c1.8-1.3,2.6-0.8,2.6-0.8c-7.4,6.5-1.1,12.6-1.1,12.6c-0.3-6.4,3.7-5.9,3.7-5.9
				c-5.2,8.6,0.2,12.1,0.2,12.1c-6.5,13.4-0.5,16,1.4,19.5s-3.4,3.8-3.4,3.8c2.9,2.8,5.8-0.5,5.8-0.5c-3.5,15,9.1,13.5,9.1,13.5
				s2.9,3.4,12.4,3.8s12-12.1,12-12.1c-7.2,14.1-14.6,6.5-14.6,6.5c9.9-0.9,8-11.4,8-11.4s-1.4,5.2-6.5,7.2s-11.5-7.2-5.4-12.4
				s5.8-8.6,2.5-15s2.6-13.2,2.6-13.2c0.9,6.1,3.9,5.2,3.9,5.2c-1.9-1.2-2.4-3.6-2.2-5.4s2.2-5.6,2.2-14.8s-4.2-16.4-12.2-20.5
				s-18.9,2.4-18.9,2.4c-0.5-14.6-22.7-22.3-22.7-22.3s-2.1-2.8-7.6-11.6s-0.9-9.8,1.3-8.2c11.4,6.2,13.9-1.8,13.9-1.8
				c-2.8,2.5-6.4,1.1-8.3,0s-1.1-3,1.2-2.2c10.7,2.2,5.7-6.9,5.7-6.9c0,7.8-6.9,4.5-8.6,3c-1.7-1.5,1-6.5,3.8-9.3
				c2.8-2.8,2.3-6,2.2-7.2c-0.1-1.3-0.3-3.6-0.3-3.6h1.9c3.6,4.1,2.5,6.5,2.2,7.1c-0.3,0.7-2.2,3.4-2.2,3.4c7.2-4.4,7.1-6.5,5.1-8.9
				s-4.8-7.9-2.1-12.6s1.1-9.7-1.2-12.4s-0.7-3.3,0-2.8s2.1,1.9,2.1,1.9c-0.5-11.8-11.5-11.2-11.5-11.2v-1.9c0,0,0.6,0,1.9,0
				c2-0.1,1.1-4,1.1-4c-0.2,2.4-1.3,3.5-3.4,2.8c-2.1-0.7-8.8-10.4-11.7-10.2s-6.1-0.5-8.8-2.1c-2.8-1.6-3.8-7.4-3.8-7.4
				c-4.2,8.9-2.7,9.4-1.9,10.4c0.6,0.7,1.7,1,2.3,1.2c0.3,0.1,0.4,0.3,0.4,0.6l0,0.6c0,0.3-0.3,0.6-0.6,0.6c-1,0-3.2,0-3.4,1.2
				c-0.4,2.1-3.6,2.4-5.5,3.5s-2.2,2.6-2.8,4.1c-10.9,9.1-14.2,9.2-14.2,9.2c-1.3,2.2-1.2,7-0.5,7.6s3,3,3.6,4.5
				c0.6,1.5,1.7,1.6,2.3,1.2c0.6-0.3,1.5-0.8,2.3-0.7s1.8,1.1,3.2,1.3c1.5,0.2,2-1.4,2.5-2.5c0.4-1.2,0.8-2.4,1.7-2.8
				c0.9-0.3,4.1-1.4,4.1-1.4s3.9,2.8,7.2,2.5s4.2,0.2,4.3,0.5s-1.7,1.5-1.7,1.5s-0.2-1,0.2,2.8c0.4,3.8-8.7,8-15,9.7
				c-6.3,1.7-9.2,4.3-12.2,7c-3.1,2.7-6.6,2.2-7.1,0.8c-0.5-1.3-7.2-18.3-11.2-22.2c-4.1-3.8-7.5-1.2-8.2,2.6
				c-0.7,3.8-7.5,12.5-9,13.4c-1.5,0.9-3.3,2-3,4.1c0.9,4.3-0.8,6.2-0.1,7.9c0.7,1.7,3.5,5.1,3.5,5.1c-0.6,2.6,0,6.1,2.1,5.1
				c10.5-6,3.1-12,3.1-12c-2.2,2-2.4-0.3-1.4-1.1s1.3-2.6,0.7-4.1s-0.4-3.4,1.5-4.8s4.5-4.2,5.4-5.2s1.4-3.9,1.9-2.1
				c2,5.4,4,28.2,4,28.2c-2.7,0.1-12,3.1-17,5.2c-5,2.1-7.2,1.3-7.2,1.3s-2.5,7.6-2.9,9.4s-5.8,11.8-6,14S412.4,413.4,413.4,414z
				 M482.9,322.8c-0.3,0.9-0.8,1-1.7,1.3c-1,0.3-1.2-0.4-1.2-0.4s0.6-0.7,1.5-1.4s2-0.6,2-0.6C483.9,322.3,483.2,322.1,482.9,322.8z
				"/>
		</g>
		<path d="M329.2,517.7c0.7-6.1,2.2-12,4.4-17.6c0.5,3.6,1.5,9.2,3.4,17.6h0.8h27.7l-4.8-8.5c5.7-17,12.9-25.5,16.1-28.7l28.8-0.9
			c3.2,3,10.9,11.3,16.7,26.6l-5.9,11.5h35.2c0,0-0.1-3.1-1-4.6c2.5-2.6,7-8.6,10.1-18.4l5.3,3.5c2.6,6.1,4.3,12.6,5.1,19.4h4
			c-4.1-37.7-36.1-67-74.9-67s-70.7,29.3-74.9,67H329.2z M459.1,493.7c-2.9,9.8-7.6,15.8-9.9,18.4c-3.1-1.8-13.8-6.3-25.6-6.1
			c-5.6-15-12.9-23.4-16.5-26.9l9.8-15.2c6.5,0.1,18.1,1.3,28.9,7.7C448,474.3,453.6,481.6,459.1,493.7z M400,454.7
			c15,0,28.9,4.6,40.4,12.6c-9.5-4-18.7-4.8-24.1-4.8c-2.2-1.7-7.8-5.5-16.4-7.7C399.9,454.7,399.9,454.7,400,454.7z M380.8,457.3
			c-4.4,2.5-9.2,5.5-10.8,7.2c0,0,0,0,0,0c-3.4,0.4-6.5,1.1-9.2,1.9C366.9,462.4,373.6,459.3,380.8,457.3z M356.4,469.6
			c3.3-1.3,8-2.9,13.5-3.5c-0.1,3,0.4,9.9,5,14c-3.6,3.7-10.2,12.2-15.8,28.5c-3.3,0.7-15.4,3.6-20.8,8.5
			c-2.4-10.7-3.3-16.7-3.6-19.8C339.6,486.3,347.1,476.8,356.4,469.6z"/>
	</g>
	<g>
		<polygon class="st7" points="166.5,531 138.8,587.8 144.8,587.8 171.8,531 		"/>
		<polygon class="st7" points="175.5,531 149,586.5 154.5,586.5 175.5,541 164.5,585 172.8,584.5 196.8,531 191.5,531 173.2,571.5 
			183.2,531 		"/>
		<polygon class="st7" points="200,531 177.2,584 182.5,584 201,540.2 192.8,582 201,581.8 221.2,531 216.2,531 200.5,569 
			207.5,531 		"/>
		<polygon class="st7" points="224.5,531 204.5,581.2 222.8,580.2 226,570.5 214,571 219,558 229,558 232.5,549.5 222.2,549.8 
			226.2,539.8 236.8,539.8 239.8,531 		"/>
		<path class="st7" d="M255.2,531h-11.5l-17.2,48.5h6l6.8-21.2l4.1-0.1c1.6-0.1,2.7,1.4,2.3,2.9c-1.4,5-4.2,14.7-4.4,17.2h6
			c0,0,1.2-8.5,2.8-13s2.2-9.8-1-11.2c0,0,6.2-3,8-9.5S260,535.2,255.2,531z M242,550.8l3.8-11.2h6C251.8,539.5,253.5,552,242,550.8
			z"/>
		<polygon class="st7" points="273,531 259.8,577 265.5,577 276,538.2 271.8,576.2 276.5,576.2 292.5,539.5 283.5,575.8 289,575.8 
			299.2,531 291.5,531 278.2,561.2 281.5,531 		"/>
		<path class="st7" d="M314,529.8c-8.2,0-13.8,12.2-16.5,21.8s-1.2,23,5.8,23.8s11.2-5.2,16.2-20S319.2,529.8,314,529.8z
			 M314.5,553.7c-3.2,10.7-5.3,13.2-8.8,13.2s-4.7-6.8-2.2-16s5.5-13.5,8.7-13.5C315.3,537.3,317.7,543,314.5,553.7z"/>
		<polygon class="st7" points="327.8,531 320.5,574 325.7,574 331,539.2 335.7,573.3 343.5,573.2 348.5,531 343.5,531 339.5,561.3 
			335.2,531 		"/>
		<path class="st7" d="M366.5,543.7h5.5c0,0,1-13.9-8.2-13.9c-9.2,0-15.5,13.4-15.3,24.6c0.2,11.2,3,25.5,21.7,16.8l0.8-22h-10.2
			v6.2h4.5v8.8c0,0-10.7,7.3-11-8.7c-0.3-16,6.5-18.2,8.3-18.2C364.5,537.3,367,539,366.5,543.7z"/>
		<path class="st7" d="M386.8,529.8c-3.8,0-11,4.8-12.2,20.8c-1.2,16,6.8,22.7,10.5,22.8c3.7,0.2,11.8-2.5,12.8-20.7
			C399,534.5,390.5,529.8,386.8,529.8z M385.7,565.2c-1.5,0-5.3-2.3-5.3-14.7c0-12.3,6-13.3,6-13.3c2.7,0,5.7,2.9,5.7,14.6
			C392,563.5,387.2,565.2,385.7,565.2z"/>
		<polygon class="st7" points="401.2,531 406.5,531 406.5,563.5 417.3,563.5 417.3,572.5 401.2,572.5 		"/>
		<polygon class="st7" points="418.3,531 420.7,572.5 426,572.5 423.7,531 		"/>
		<path class="st7" d="M447.2,572.5h6L439.5,531h-5.8l-5.3,41.5h5.3l1.1-10.7h9.1L447.2,572.5z M435.5,554.8l1.6-15.2l4.6,15.2
			H435.5z"/>
		<polygon class="st7" points="457.7,531 459,538.8 469.7,538.8 462.2,563 463.5,573.2 482.7,573.2 481,564.7 468.7,564.7 
			476.2,538.8 474.8,531 		"/>
		<polygon class="st7" points="501.2,574.7 506.7,574.7 496.3,531 491.2,531 495,547.7 486.3,547.7 482.7,531 477.8,531 
			486.2,573.8 492,573.8 487.6,553.7 496.4,553.7 		"/>
		<path class="st7" d="M526.3,548.5c-6.7-16.7-13.7-19.5-18.7-18c-2.2,0.7-8.3,6-1.7,25.5s15,21.3,19.3,19.7
			C529.7,574,533,565.2,526.3,548.5z M521.8,567.5c-2.2,0.8-7-0.8-11-13.2s-1.7-16,0-16.7c2.3-0.9,7.8,1.8,11,13.5
			C525,562.8,524,566.7,521.8,567.5z"/>
		<polygon class="st7" points="524.7,531 538.3,576.8 544,576.8 531.7,539.3 553.5,577.8 561.5,578 545.5,531 540.2,531 552,565.3 
			532.3,531 		"/>
		<path class="st7" d="M575.3,545.7h-5.8c0,0-3.5-9.5-8.2-7.8c-4.7,1.7-1.7,12.5,1.7,19.7s8,16.2,15.7,12.8l-3.8-10h-4.3l-3.3-7.7
			h10.7l10.2,25.7c0,0-17.3,9.2-29.1-18c-9.8-24-4.8-28.5-1.1-30.2C561.5,528.5,569.2,531.7,575.3,545.7z"/>
		<polygon class="st7" points="571.8,531 578.2,531 590.8,551.8 586.8,531 592.3,531 598,563.3 605.3,581.2 599.2,581.2 592,562.5 
					"/>
		<path class="st7" d="M624.7,551.2c-11.2-21.2-19.7-22-22.8-20.8c-4,1.5-4.3,11.8,5.5,32c9.8,20.2,20.7,23.7,24.2,21.3
			C635,581.3,635.8,572.3,624.7,551.2z M626,574.8c-2,1.3-8.8-1.2-15.5-16.8c-6.7-15.7-5.8-18.5-4.3-19.5c1.7-1.2,7.7,1,14.3,15.7
			C627.2,568.8,628,573.5,626,574.8z"/>
		<path class="st7" d="M618.8,531c0,0,12.8,27.5,16.2,34.3c3.3,6.8,15.5,26.7,24.3,21.3c8.8-5.3-12.8-38.8-20.2-55.5h-5.3
			c0,0,17.5,35.3,18.7,37.8s3.3,13.8-4,7.8S624.3,531,624.3,531H618.8z"/>
		<polygon class="st7" points="281.8,603.8 283.5,598.2 266.5,599.8 252.8,635.8 258.6,635.8 265.4,618 276,617 278.2,611 
			267.9,611.7 270.8,604.2 		"/>
		<path class="st7" d="M300.8,596.5c-19.8-1.5-23.2,25.2-22.2,31.5s15.8,8,23.7-7.8S307.4,597,300.8,596.5z M298,615.8
			c-4.5,10.8-8.8,11.2-11.8,10.2s-1.5-9.2,0-13s5.5-12.8,10.8-12C300.7,601.5,302.5,605,298,615.8z"/>
		<path class="st7" d="M324.5,595c-11.8-0.2-16.5,15.2-17.5,26s17.2,14.2,24.7-4.8S330.8,595.1,324.5,595z M326.8,613.7
			c-3.5,12.3-15.5,16.2-13,0s10-14.4,10-14.4C327.5,599.5,330.2,601.3,326.8,613.7z"/>
		<polygon class="st7" points="338,595 358,595 358,599.2 350.8,599.2 346,627.2 339.8,627.2 344.8,599.2 337.5,599.2 		"/>
		<path class="st7" d="M379,601c0.8-4.5-3.2-6.5-5.5-6.5s-12.8,0-12.8,0l-4.2,31.5c0,0,6.2,0,10.2,0s10.8-1.5,11.8-9.5s-5-8.8-5-8.8
			S378.2,605.4,379,601z M372.2,616.2c-0.1,1.2-0.7,4-2.8,4c-2.1,0-6,0-6,0l0.9-8.6c0,0,3.2,0,5.7,0S372.2,615,372.2,616.2z
			 M370.2,605c-1.5,0-5,0-5,0l0.5-6.8c0,0,3.1,0,4.8,0s2.3,1.5,2.3,3.5S371.8,605,370.2,605z"/>
		<path class="st7" d="M399,625h5.8l-7.8-31.5h-6.8l-11.2,32h5.6l2.3-7.2h10.6L399,625z M388.8,612.4l4.5-14.1l3,14.1H388.8z"/>
		<polygon class="st7" points="407.8,593.5 407.8,625 424.5,625 424.5,620.2 413.5,620.2 412.8,593.5 		"/>
		<polygon class="st7" points="426,594 427.8,625.5 445.2,625.5 445.2,620.2 433.2,620.2 431.2,594 		"/>
		<path class="st7" d="M474,604h-5.5c0,0-1.8-6.5-5.8-5.6s-3.9,7.1-1.6,14.6s3.6,9.2,6.5,8.8s3.4-1.8,2.9-6.1h6.4c0,0,0,3.8,0,5.5
			s-1.4,5.8-7.6,5.8s-11.9-2.1-14.6-15.2s0.6-17.9,7.4-17.4S471.9,596.9,474,604z"/>
		<polygon class="st7" points="474.5,595.4 480,595.4 486.2,622 497,622.5 499,628.8 481.8,627.6 		"/>
		<path class="st7" d="M492.8,596.1h5.2c0,0,4.5,15,5.4,17.5s3.8,10.8,7.2,10.9s7,0.2,4.4-7.2s-7.4-20.4-7.4-20.4l5.8,0.2
			c0,0,6,16.6,7.1,19.9s3.6,11.6-4.1,13.5s-14.9-4.8-17.8-14.4S492.8,596.1,492.8,596.1z"/>
		<path class="st7" d="M546.4,624.9c-1.6-5.8-5.4-11.2-9.4-11.4c0,0,5.1-3.2,0.5-8.8s-7.2-7.5-19.8-6.9l11.9,33.6c0,0,6.4,1,10.6,1
			S548,630.6,546.4,624.9z M527.9,610.1l-2.8-7.1c6.4-0.8,6.8,2.1,7.8,3.6s0.8,3.6-0.6,3.6C530.9,610.1,527.9,610.1,527.9,610.1z
			 M539.6,625.5h-6.1l-3.4-9.4c0,0,3.1-1.6,7.1,1.2S539.6,625.5,539.6,625.5z"/>
	</g>
	<g>
		<path class="st8" d="M347.5,676.4v-17.7h3.6v7h7v-7h3.6v17.7h-3.6v-7.8h-7v7.8H347.5z"/>
		<path class="st8" d="M364.6,667.6c0-1.8,0.3-3.3,0.8-4.6c0.4-0.9,1-1.7,1.7-2.4c0.7-0.7,1.5-1.3,2.3-1.6c1.1-0.5,2.4-0.7,3.8-0.7
			c2.6,0,4.7,0.8,6.3,2.4c1.6,1.6,2.4,3.9,2.4,6.8c0,2.9-0.8,5.1-2.3,6.7c-1.6,1.6-3.6,2.4-6.2,2.4c-2.6,0-4.7-0.8-6.3-2.4
			C365.4,672.6,364.6,670.4,364.6,667.6z M368.3,667.5c0,2,0.5,3.5,1.4,4.6c0.9,1,2.1,1.6,3.5,1.6c1.4,0,2.6-0.5,3.5-1.5
			c0.9-1,1.4-2.6,1.4-4.6c0-2-0.4-3.6-1.3-4.6c-0.9-1-2.1-1.5-3.6-1.5c-1.5,0-2.7,0.5-3.6,1.5C368.8,663.9,368.3,665.4,368.3,667.5z
			"/>
		<path class="st8" d="M384.6,676.4v-17.7h3.6v7h7v-7h3.6v17.7h-3.6v-7.8h-7v7.8H384.6z"/>
		<path class="st8" d="M402.5,676.4v-17.7h3.6v7h7v-7h3.6v17.7h-3.6v-7.8h-7v7.8H402.5z"/>
		<path class="st8" d="M419.7,667.6c0-1.8,0.3-3.3,0.8-4.6c0.4-0.9,1-1.7,1.7-2.4c0.7-0.7,1.5-1.3,2.3-1.6c1.1-0.5,2.4-0.7,3.8-0.7
			c2.6,0,4.7,0.8,6.3,2.4c1.6,1.6,2.4,3.9,2.4,6.8c0,2.9-0.8,5.1-2.3,6.7c-1.6,1.6-3.6,2.4-6.2,2.4c-2.6,0-4.7-0.8-6.3-2.4
			C420.5,672.6,419.7,670.4,419.7,667.6z M423.4,667.5c0,2,0.5,3.5,1.4,4.6c0.9,1,2.1,1.6,3.5,1.6c1.4,0,2.6-0.5,3.5-1.5
			c0.9-1,1.4-2.6,1.4-4.6c0-2-0.4-3.6-1.3-4.6c-0.9-1-2.1-1.5-3.6-1.5s-2.7,0.5-3.6,1.5C423.8,663.9,423.4,665.4,423.4,667.5z"/>
		<path class="st8" d="M443.7,676.4v-14.7h-5.3v-3h14.1v3h-5.3v14.7H443.7z"/>
	</g>
</g>
</svg>
