<?xml version="1.0" encoding="utf-8"?>
<!-- Generator: Adobe Illustrator 22.1.0, SVG Export Plug-In . SVG Version: 6.00 Build 0)  -->
<svg version="1.1" id="图层_1" xmlns="http://www.w3.org/2000/svg" xmlns:xlink="http://www.w3.org/1999/xlink" x="0px" y="0px"
	 viewBox="0 0 800 800" style="enable-background:new 0 0 800 800;" xml:space="preserve">
<style type="text/css">
	.st0{fill:#C6000D;}
</style>
<g>
	<path class="st0" d="M215.9,517.5h11.8C192.3,421.6,196,353.3,196,353.3l40-25.3v-31c118.3-54.7,164-113.5,164-113.5
		s45.7,58.8,164,113.5v31l40,25.3c0,0,3.7,68.3-31.6,164.2h11.8c0.1-0.2,0.1-0.3,0.2-0.5c38.7-104.7,38.4-220.8,38.4-220.8l-56.5-11
		l2-34.5C489.5,240,400,181.7,400,181.7s-89.5,58.3-168.2,69.1l2,34.5l-56.5,11c0,0-0.2,116.1,38.4,220.8
		C215.7,517.2,215.8,517.3,215.9,517.5z"/>
	<path class="st0" d="M400,718.7c-37.1-16.7-70.5-42-99.1-74.6c-5.4,0.6-10.8,1.3-15.9,2c30.7,38.6,68.2,68,115.1,87
		c46.8-19,84.4-48.4,115.1-87c-5.2-0.7-10.5-1.3-15.9-2C470.5,676.7,437.1,702,400,718.7z"/>
	<path class="st0" d="M553.1,508.1c0,0,2.9,3.4,12.4,3.8s12-12.1,12-12.1c-7.2,14.1-14.6,6.5-14.6,6.5c9.9-0.9,8-11.4,8-11.4
		s-1.4,5.2-6.5,7.2s-11.5-7.2-5.4-12.4s5.8-8.6,2.5-15s2.6-13.2,2.6-13.2c0.9,6.1,3.9,5.2,3.9,5.2c-1.9-1.2-2.4-3.6-2.2-5.4
		s2.2-5.6,2.2-14.8s-4.2-16.4-12.2-20.5s-18.9,2.4-18.9,2.4c-0.5-14.6-22.7-22.3-22.7-22.3s-2.1-2.8-7.6-11.6s-0.9-9.8,1.3-8.2
		c11.4,6.2,13.9-1.8,13.9-1.8c-2.8,2.5-6.4,1.1-8.3,0s-1.1-3,1.2-2.2c10.7,2.2,5.7-6.9,5.7-6.9c0,7.8-6.9,4.5-8.6,3
		c-1.7-1.5,1-6.5,3.8-9.3c2.8-2.8,2.3-6,2.2-7.2c-0.1-1.3-0.3-3.6-0.3-3.6h1.9c3.6,4.1,2.5,6.5,2.2,7.1c-0.3,0.7-2.2,3.4-2.2,3.4
		c7.2-4.4,7.1-6.5,5.1-8.9s-4.8-7.9-2.1-12.6s1.1-9.7-1.2-12.4s-0.7-3.3,0-2.8s2.1,1.9,2.1,1.9c-0.5-11.8-11.5-11.2-11.5-11.2v-1.9
		c0,0,0.6,0,1.9,0c2-0.1,1.1-4,1.1-4c-0.2,2.4-1.3,3.5-3.4,2.8c-2.1-0.7-8.8-10.4-11.7-10.2s-6.1-0.5-8.8-2.1
		c-2.8-1.6-3.8-7.4-3.8-7.4c-4.2,8.9-2.7,9.4-1.9,10.4c0.6,0.7,1.7,1,2.3,1.2c0.3,0.1,0.4,0.3,0.4,0.6l0,0.6c0,0.3-0.3,0.6-0.6,0.6
		c-1,0-3.2,0-3.4,1.2c-0.4,2.1-3.6,2.4-5.5,3.5s-2.2,2.6-2.8,4.1c-10.9,9.1-14.2,9.2-14.2,9.2c-1.3,2.2-1.2,7-0.5,7.6s3,3,3.6,4.5
		c0.6,1.5,1.7,1.6,2.3,1.2c0.6-0.3,1.5-0.8,2.3-0.7s1.8,1.1,3.2,1.3c1.5,0.2,2-1.4,2.5-2.5c0.4-1.2,0.8-2.4,1.7-2.8
		c0.9-0.3,4.1-1.4,4.1-1.4s3.9,2.8,7.2,2.5s4.2,0.2,4.3,0.5s-1.7,1.5-1.7,1.5s-0.2-1,0.2,2.8c0.4,3.8-8.7,8-15,9.7
		c-6.3,1.7-9.2,4.3-12.2,7c-3.1,2.7-6.6,2.2-7.1,0.8c-0.5-1.3-7.2-18.3-11.2-22.2c-4.1-3.8-7.5-1.2-8.2,2.6
		c-0.7,3.8-7.5,12.5-9,13.4c-1.5,0.9-3.3,2-3,4.1c0.9,4.3-0.8,6.2-0.1,7.9c0.7,1.7,3.5,5.1,3.5,5.1c-0.6,2.6,0,6.1,2.1,5.1
		c10.5-6,3.1-12,3.1-12c-2.2,2-2.4-0.3-1.4-1.1s1.3-2.6,0.7-4.1s-0.4-3.4,1.5-4.8s4.5-4.2,5.4-5.2s1.4-3.9,1.9-2.1
		c2,5.4,4,28.2,4,28.2c-2.7,0.1-12,3.1-17,5.2c-5,2.1-7.2,1.3-7.2,1.3s-2.5,7.6-2.9,9.4s-5.8,11.8-6,14s-0.2,5.3,0.8,5.9
		c1.7,0.5,2.3,3.5,2.2,5s-1,9.6-1,9.6s3.4,0.5,5.5-0.2s6.6-5.7,6.6-5.7c-0.3-3.3-5.1-4.6-5.1-4.6l-0.8-1c0.5-0.9,0.9-5.4,0.3-5.9
		c-1.1-0.9-0.7-2.2-0.7-2.2l3.9-10.7c0,0-0.4-3.8,2.7-5.1c7.8-3.7,17.5-3.4,17.5-3.4l2.2,4c2.7,1.3,4,9,4,9l3.5,5.7l5.5,9.5
		c3.3,2.2,8.5,6,10.2,7.2c1.7,1.2,10.1,6.4,10.1,6.4c-1.6,2.1-3.1,6.2,1.3,12.1c4.4,5.9,7.1,8.9,2.9,12.9c-4.2,4-13.6,1.8-17.1-0.5
		s-8.4-2.1-10.1,0.8s-3.9,2.2-3.9,2.2l-2.1,3c0,0-0.5,2.2-1.6,3.4c-0.7,0.7-1.7,1.4-2.4,1.8c-12.1-9.7-27.3-15.7-43.9-16.4V333.5
		h2.1v24.1h1.2v-24.1h1.9v24.1h2.1v-24.1h1.4v24.1h2.1v-24.4c7.6-6.2-1.7-14.8-4-17.9c-2.3-3.2-1-10,6-3.8c7,6.2,14.7,9.3,21.5,2.7
		c6.8-6.7-2.3-14-2.3-14c11.8-12,3-20.7-4.3-26.7c-7.3-6-6.3-14.5-4.8-17c1.6-2.5,6.8-4.3,3-4.7s-12,1.5-13.7,10.2
		c-1.7,8.7,4.1,13.8,8.5,22.1s-3.6,12-7.4,12s-9.4-6.9-9.1-15.5c0.2-6.6,2.7-9.8,3.9-10.9c0.4-0.4,0.6-0.8,0.6-1.3
		c0.1-1.2,0.1-2.5-1.1-2.9c-1.5-0.5-4.9-4-4.9-6v-4.3c0-1.7,1.4-3.1,3.1-3.1h0.3c0.2,0,0.4-0.2,0.4-0.4c0-0.6-0.2-1.7-1.5-2.5
		c-1.8-1.1-3.9-4.1-5.5-6.2s-1.9-5.2-2.6-5.2s-1,3.1-2.6,5.2s-3.8,5.1-5.5,6.2c-1.2,0.8-1.5,1.9-1.5,2.5c0,0.2,0.2,0.4,0.4,0.4h0.3
		c1.7,0,3.1,1.4,3.1,3.1v4.3c0,2-3.4,5.5-4.9,6c-1.2,0.4-1.2,1.7-1.1,2.9c0,0.5,0.3,1,0.6,1.3c1.2,1.1,3.7,4.3,3.9,10.9
		c0.2,8.6-5.3,15.5-9.1,15.5s-11.8-3.7-7.4-12s10.2-13.5,8.5-22.1c-1.7-8.7-9.8-10.5-13.7-10.2s1.4,2.2,3,4.7c1.5,2.5,2.5,11-4.8,17
		c-7.3,6-16.2,14.7-4.3,26.7c0,0-9.2,7.3-2.3,14c6.8,6.7,14.5,3.5,21.5-2.7c7-6.2,8.3,0.7,6,3.8c-2.3,3.1-11.6,11.8-4,17.9v24.4h2.1
		v-24.1h1.4v24.1h2.1v-24.1h1.9v24.1h1.2v-24.1h2.1v117.2c-16.6,0.7-31.7,6.7-43.9,16.4c-0.7-0.4-1.7-1.1-2.3-1.8
		c-1.1-1.1-1.6-3.4-1.6-3.4l-2.1-3c0,0-2.2,0.7-3.9-2.2s-6.6-3-10.1-0.8s-12.9,4.5-17.1,0.5c-4.2-4-1.5-7,2.9-12.9
		c4.4-5.9,2.9-10,1.3-12.1c0,0,8.4-5.2,10.1-6.4c1.7-1.2,6.8-5,10.2-7.2l5.5-9.5l3.5-5.7c0,0,1.3-7.7,4-9l2.2-4
		c0,0,9.8-0.2,17.5,3.4c3.1,1.2,2.7,5.1,2.7,5.1l3.9,10.7c0,0,0.4,1.2-0.7,2.2c-0.6,0.5-0.2,5,0.3,5.9l-0.8,1c0,0-4.8,1.2-5.1,4.6
		c0,0,4.5,5,6.6,5.7s5.5,0.2,5.5,0.2s-0.9-8.1-1-9.6s0.5-4.5,2.2-5c1-0.6,1-3.6,0.8-5.9s-5.6-12.2-6-14s-2.9-9.4-2.9-9.4
		s-2.2,0.8-7.2-1.3c-5-2.1-14.3-5.1-17-5.2c0,0,2-22.9,4-28.2c0.5-1.8,1,1.1,1.9,2.1s3.5,3.9,5.4,5.2s2.1,3.2,1.5,4.8
		s-0.4,3.3,0.7,4.1s0.8,3.1-1.4,1.1c0,0-7.4,6,3.1,12c2.1,1.1,2.6-2.4,2.1-5.1c0,0,2.8-3.4,3.5-5.1c0.7-1.7-1-3.6-0.1-7.9
		c0.3-2.1-1.5-3.2-3-4.1c-1.5-0.9-8.3-9.6-9-13.4c-0.7-3.8-4.1-6.4-8.2-2.6c-4.1,3.8-10.8,20.8-11.2,22.2c-0.5,1.3-4,1.8-7.1-0.8
		c-3.1-2.7-5.9-5.3-12.2-7c-6.3-1.7-15.4-5.8-15-9.7c0.4-3.8,0.2-2.8,0.2-2.8s-1.8-1.2-1.7-1.5s1.1-0.8,4.3-0.5s7.2-2.5,7.2-2.5
		s3.2,1.1,4.1,1.4c0.9,0.3,1.2,1.6,1.7,2.8c0.4,1.2,1,2.8,2.5,2.5c1.5-0.2,2.4-1.3,3.2-1.3s1.7,0.4,2.3,0.7c0.6,0.3,1.8,0.2,2.3-1.2
		c0.6-1.5,2.8-3.9,3.6-4.5s0.8-5.4-0.5-7.6c0,0-3.3-0.1-14.2-9.2c-0.5-1.4-0.9-2.9-2.8-4.1s-5.1-1.4-5.5-3.5
		c-0.3-1.2-2.4-1.3-3.4-1.2c-0.3,0-0.6-0.2-0.6-0.6l0-0.6c0-0.3,0.2-0.5,0.4-0.6c0.6-0.1,1.8-0.5,2.3-1.2c0.8-1,2.4-1.5-1.9-10.4
		c0,0-1,5.8-3.8,7.4c-2.8,1.6-6,2.3-8.8,2.1s-9.6,9.5-11.7,10.2c-2.1,0.7-3.2-0.4-3.4-2.8c0,0-0.9,4,1.1,4c1.3,0,1.9,0,1.9,0v1.9
		c0,0-11-0.7-11.5,11.2c0,0,1.5-1.3,2.1-1.9s2.4,0.1,0,2.8s-4,7.7-1.2,12.4s-0.1,10.2-2.1,12.6s-2.1,4.5,5.1,8.9
		c0,0-1.8-2.7-2.2-3.4c-0.3-0.7-1.4-3,2.2-7.1h1.9c0,0-0.2,2.3-0.3,3.6c-0.1,1.3-0.7,4.5,2.2,7.2c2.8,2.8,5.5,7.8,3.8,9.3
		c-1.7,1.5-8.5,4.8-8.6-3c0,0-5,9,5.7,6.9c2.3-0.8,3.1,1.2,1.2,2.2s-5.6,2.5-8.3,0c0,0,2.5,8,13.9,1.8c2.2-1.5,6.8-0.5,1.3,8.2
		s-7.6,11.6-7.6,11.6s-22.2,7.7-22.7,22.3c0,0-10.9-6.5-18.9-2.4S232,437.5,232,446.6s2.1,13,2.2,14.8s-0.4,4.1-2.2,5.4
		c0,0,3,0.9,3.9-5.2c0,0,5.9,6.9,2.6,13.2s-3.6,9.9,2.5,15s-0.2,14.4-5.4,12.4s-6.5-7.2-6.5-7.2s-1.9,10.5,8,11.4
		c0,0-7.4,7.6-14.6-6.5c0,0,2.5,12.5,12,12.1s12.4-3.8,12.4-3.8s12.6,1.5,9.1-13.5c0,0,2.9,3.2,5.8,0.5c0,0-5.2-0.2-3.4-3.8
		s7.9-6.1,1.4-19.5c0,0,5.5-3.5,0.2-12.1c0,0,4-0.5,3.7,5.9c0,0,6.4-6.1-1.1-12.6c0,0,0.8-0.5,2.6,0.8c0,0,0.5-3.2-6.9-7.4
		c0,0,3.4-3.1,1.8-6.6c0,0-1.9,3.1-3.4,3.3c0,0-3.8-2.1-0.8-5.6s6.9-1.8,6.9-1.8s-0.4,3.8,2.9,8.3c3.3,4.6,8.5,7.5,9.9,9.8
		c1.4,2.3,3.2,9.1-1.8,14.2c-5,5.2-7.7,6.5-8.7,9.8c-1,3.3-0.9,4.5,1.4,7.6c2.3,3.1,4.4,7.8,4.8,11.6c0.4,3.8,1.9,9.8,4.9,10.1
		c1.5,0.2,1.7,1.4,1.7,1.8h-1v5.2c0,0,3.1,2.9,6.3,3s6.6-0.9,5.4-3.4s-2.2-1-1.8-4.3c0.1-1-4.9-1.1-8.8-11.3s-4.1-18.9,4.2-25.2
		c8.3-6.3,8.5-6,11.2-7.2c2.7-1.2,4.8-3.7,5.7-7.8c0.8-4.2,1.5-7.9,1.6-8.6s0.5-2.1,3.1-0.4s1.9,2,1.4,6.2s-1.1,8.3,0.6,9.5
		s3.5,0.8,4.9,0.4s1.8-0.3,3,0.3s2.4,1.3,5.1,0s4.8-2.2,6.8-1.5c2,0.7,6.1-1.2,7.1-1.7s3.1-1.2,4.2,0.2c1.1,1.4,2.8,1.2,3.6,1.2
		c0.8,0,1.8,0.8,1.2,2.2c-0.6,1.4,0.5,4.1,2.4,4.2s2,0.1,2,0.1s1.8-0.1,3.5-0.2c-13.3,12-22.3,28.7-24.3,47.5h4
		c0.7-6.1,2.2-12,4.4-17.6c0.5,3.6,1.5,9.2,3.4,17.6h0.8h27.7l-4.8-8.5c5.7-17,12.9-25.5,16.1-28.7l28.8-0.9
		c3.2,3,10.9,11.3,16.7,26.6l-5.9,11.5h35.2c0,0-0.1-3.1-1-4.6c2.5-2.6,7-8.6,10.1-18.4l5.3,3.5c2.6,6.1,4.3,12.6,5.1,19.4h4
		c-2.1-18.8-11-35.5-24.3-47.5c1.7,0.1,3.5,0.2,3.5,0.2s0,0,2-0.1s3-2.8,2.4-4.2c-0.6-1.4,0.3-2.2,1.2-2.2c0.8,0,2.5,0.2,3.6-1.2
		c1.1-1.4,3.2-0.7,4.2-0.2s5.1,2.3,7.1,1.7c2-0.7,4.1,0.2,6.8,1.5s3.8,0.6,5.1,0s1.6-0.7,3-0.3s3.2,0.8,4.9-0.4s1.1-5.2,0.6-9.5
		s-1.2-4.5,1.4-6.2s3-0.4,3.1,0.4s0.8,4.5,1.6,8.6c0.8,4.2,3,6.7,5.7,7.8c2.7,1.2,2.8,0.8,11.2,7.2c8.3,6.3,8.1,15,4.2,25.2
		s-8.9,10.3-8.8,11.3c0.4,3.3-0.6,1.8-1.8,4.3s2.1,3.5,5.4,3.4s6.3-3,6.3-3v-5.2h-1c0-0.4,0.2-1.6,1.7-1.8c3-0.3,4.5-6.3,4.9-10.1
		c0.4-3.8,2.5-8.5,4.8-11.6c2.3-3.1,2.4-4.2,1.4-7.6c-1-3.3-3.7-4.7-8.7-9.8c-5-5.2-3.2-11.9-1.8-14.2c1.4-2.3,6.6-5.2,9.9-9.8
		c3.3-4.6,2.9-8.3,2.9-8.3s3.9-1.8,6.9,1.8s-0.8,5.6-0.8,5.6c-1.5-0.2-3.4-3.3-3.4-3.3c-1.7,3.4,1.8,6.6,1.8,6.6
		c-7.4,4.2-6.9,7.4-6.9,7.4c1.8-1.3,2.6-0.8,2.6-0.8c-7.4,6.5-1.1,12.6-1.1,12.6c-0.3-6.4,3.7-5.9,3.7-5.9
		c-5.2,8.6,0.2,12.1,0.2,12.1c-6.5,13.4-0.5,16,1.4,19.5s-3.4,3.8-3.4,3.8c2.9,2.8,5.8-0.5,5.8-0.5
		C540.5,509.6,553.1,508.1,553.1,508.1z M482.9,322.8c-0.3,0.9-0.8,1-1.7,1.3c-1,0.3-1.2-0.4-1.2-0.4s0.6-0.7,1.5-1.4s2-0.6,2-0.6
		C483.9,322.3,483.2,322.1,482.9,322.8z M316.5,321.6c0,0,1.1,0,2,0.6s1.5,1.4,1.5,1.4s-0.2,0.7-1.2,0.4c-1-0.3-1.4-0.4-1.7-1.3
		C316.8,322.1,316.1,322.3,316.5,321.6z M359.1,508.5c-3.3,0.7-15.4,3.6-20.8,8.5c-2.4-10.7-3.3-16.7-3.6-19.8
		c4.8-10.9,12.3-20.4,21.7-27.7c3.3-1.3,8-2.9,13.5-3.5c-0.1,3,0.4,9.9,5,14C371.4,483.7,364.7,492.2,359.1,508.5z M370,464.5
		C370,464.5,370,464.5,370,464.5c-3.4,0.4-6.5,1.1-9.2,1.9c6.1-4,12.8-7.1,20-9.1C376.4,459.8,371.5,462.8,370,464.5z M399.8,454.7
		c0.1,0,0.1,0,0.2,0c15,0,28.9,4.6,40.4,12.6c-9.5-4-18.7-4.8-24.1-4.8C414,460.7,408.4,456.9,399.8,454.7z M459.1,493.7
		c-2.9,9.8-7.6,15.8-9.9,18.4c-3.1-1.8-13.8-6.3-25.6-6.1c-5.6-15-12.9-23.4-16.5-26.9l9.8-15.2c6.5,0.1,18.1,1.3,28.9,7.7
		C448,474.3,453.6,481.6,459.1,493.7z"/>
	<path class="st0" d="M386.3,537.2c0,0-6,1-6,13.3c0,12.3,3.8,14.7,5.3,14.7s6.3-1.7,6.3-13.4C392,540.1,389,537.2,386.3,537.2z"/>
	<polygon class="st0" points="437.2,539.7 435.5,554.8 441.8,554.8 	"/>
	<path class="st0" d="M312.2,537.3c-3.2,0-6.2,4.3-8.7,13.5s-1.3,16,2.2,16s5.7-2.5,8.8-13.2C317.7,543,315.3,537.3,312.2,537.3z"/>
	<path class="st0" d="M521.8,567.5c2.2-0.8,3.2-4.7,0-16.3c-3.2-11.7-8.7-14.4-11-13.5c-1.7,0.7-4,4.3,0,16.7
		S519.7,568.3,521.8,567.5z"/>
	<path class="st0" d="M245.8,539.5l-3.8,11.2c11.5,1.2,9.8-11.2,9.8-11.2H245.8z"/>
	<path class="st0" d="M626,574.8c2-1.3,1.2-6-5.5-20.7c-6.7-14.7-12.6-16.8-14.3-15.7c-1.5,1-2.3,3.8,4.3,19.5
		C617.2,573.7,624,576.2,626,574.8z"/>
	<path class="st0" d="M685,602.5L643,522H400H157l-42,80.5c75.5-16,285-19.5,285-19.5S609.5,586.5,685,602.5z M624.3,531
		c0,0,16.8,39.8,24.2,45.8s5.2-5.3,4-7.8s-18.7-37.8-18.7-37.8h5.3c7.4,16.7,29.1,50.2,20.2,55.5c-8.8,5.3-21-14.5-24.3-21.3
		S618.8,531,618.8,531H624.3z M601.8,530.3c3.2-1.2,11.7-0.3,22.8,20.8c11.2,21.2,10.3,30.2,6.8,32.5c-3.5,2.3-14.3-1.2-24.2-21.3
		C597.5,542.2,597.8,531.8,601.8,530.3z M578.2,531l12.7,20.8l-4-20.8h5.5l5.7,32.3l7.3,17.8h-6.2l-7.2-18.7L571.8,531H578.2z
		 M557.8,530.1c3.7-1.6,11.3,1.5,17.5,15.5h-5.8c0,0-3.5-9.5-8.2-7.8c-4.7,1.7-1.7,12.5,1.7,19.7c3.3,7.2,8,16.2,15.7,12.8l-3.8-10
		h-4.3l-3.3-7.7h10.7l10.2,25.7c0,0-17.3,9.2-29.1-18C549.2,536.3,554.2,531.8,557.8,530.1z M532.3,531l19.7,34.3L540.2,531h5.3
		l16,47l-8-0.2l-21.8-38.5l12.3,37.5h-5.7L524.7,531H532.3z M507.7,530.5c4.9-1.5,12,1.3,18.7,18c6.7,16.7,3.3,25.5-1,27.2
		c-4.3,1.7-12.7-0.2-19.3-19.7S505.5,531.2,507.7,530.5z M482.7,531l3.6,16.7h8.7l-3.8-16.7h5.2l10.3,43.7h-5.5l-4.8-21h-8.8
		l4.4,20.2h-5.8l-8.3-42.8H482.7z M474.8,531l1.3,7.8l-7.5,25.8H481l1.7,8.5h-19.2l-1.3-10.2l7.5-24.2H459l-1.3-7.8H474.8z
		 M433.7,531h5.8l13.7,41.5h-6l-3.2-10.7h-9.1l-1.1,10.7h-5.3L433.7,531z M423.7,531l2.3,41.5h-5.3l-2.3-41.5H423.7z M401.2,531h5.3
		v32.5h10.8v9h-16.2V531z M138.8,587.8l27.8-56.8h5.2l-27,56.8H138.8z M164.5,585l11-44l-21,45.5H149l26.5-55.5h7.8l-10,40.5
		l18.2-40.5h5.2l-24,53.5L164.5,585z M192.8,582l8.2-41.8L182.5,584h-5.2l22.8-53h7.5l-7,38l15.8-38h5L201,581.8L192.8,582z
		 M222.8,580.2l-18.2,1l20-50.2h15.2l-3,8.8h-10.5l-4,10l10.2-0.2L229,558h-10l-5,13l12-0.5L222.8,580.2z M257,544.5
		c-1.8,6.5-8,9.5-8,9.5c3.2,1.5,2.5,6.8,1,11.2s-2.8,13-2.8,13h-6c0.2-2.6,2.9-12.2,4.4-17.2c0.4-1.5-0.7-3-2.3-2.9l-4.1,0.1
		l-6.8,21.2h-6l17.2-48.5h11.5C260,535.2,258.8,538,257,544.5z M283.5,575.8l9-36.2l-16,36.8h-4.8l4.2-38L265.5,577h-5.8l13.2-46
		h8.5l-3.2,30.2l13.2-30.2h7.8L289,575.8H283.5z M303.2,575.2c-7-0.8-8.5-14.2-5.8-23.8s8.2-21.8,16.5-21.8
		c5.2,0,10.5,10.8,5.5,25.5S310.2,576,303.2,575.2z M335.7,573.3l-4.7-34.2l-5.3,34.8h-5.2l7.3-43h7.3l4.3,30.3l4-30.3h5l-5,42.2
		L335.7,573.3z M372,543.7h-5.5c0.5-4.7-2-6.3-3.8-6.3c-1.8,0-8.7,2.2-8.3,18.2c0.3,16,11,8.7,11,8.7v-8.8h-4.5v-6.2H371l-0.8,22
		c-18.7,8.7-21.5-5.7-21.7-16.8s6.2-24.6,15.3-24.6C373,529.8,372,543.7,372,543.7z M398,552.7c-1,18.2-9.2,20.8-12.8,20.7
		c-3.7-0.2-11.7-6.8-10.5-22.8c1.2-16,8.3-20.8,12.2-20.8C390.5,529.8,399,534.5,398,552.7z"/>
	<path class="st0" d="M297,601c-5.2-0.8-9.2,8.2-10.8,12s-3,12,0,13s7.2,0.5,11.8-10.2S300.7,601.5,297,601z"/>
	<path class="st0" d="M323.8,599.2c0,0-7.5-1.8-10,14.4s9.5,12.3,13,0S327.5,599.5,323.8,599.2z"/>
	<path class="st0" d="M370.6,598.2c-1.8,0-4.8,0-4.8,0l-0.5,6.8c0,0,3.5,0,5,0s2.7-1.2,2.7-3.2S372.3,598.2,370.6,598.2z"/>
	<path class="st0" d="M370,611.7c-2.5,0-5.7,0-5.7,0l-0.9,8.6c0,0,3.9,0,6,0c2.1,0,2.7-2.8,2.8-4C372.2,615,372.5,611.7,370,611.7z"
		/>
	<path class="st0" d="M532.9,606.6c-1-1.4-1.4-4.3-7.8-3.6l2.8,7.1c0,0,3,0,4.4,0C533.6,610.1,533.9,608,532.9,606.6z"/>
	<path class="st0" d="M530.1,616.1l3.4,9.4h6.1c0,0,1.6-5.2-2.4-8.1S530.1,616.1,530.1,616.1z"/>
	<path class="st0" d="M400,587c0,0-93.3,0-141,4.3l-23,56.3c0,0,72.3-15.3,164-15.3s164,15.3,164,15.3l-23-56.3
		C493.3,587,400,587,400,587z M276,617l-10.6,1l-6.9,17.8h-5.8l13.8-36l17-1.5l-1.8,5.5l-11,0.5l-2.9,7.5l10.4-0.7L276,617z
		 M278.5,628c-1-6.2,2.5-33,22.2-31.5c6.7,0.5,9.3,8,1.4,23.8S279.5,634.2,278.5,628z M331.8,616.2c-7.5,19-25.7,15.5-24.7,4.8
		s5.7-26.2,17.5-26C330.8,595.1,339.2,597.2,331.8,616.2z M346,627.2h-6.2l5-28.1h-7.2l0.5-4.2h20v4.2h-7.2L346,627.2z M379,601
		c-0.8,4.5-5.5,6.8-5.5,6.8s6,0.8,5,8.8s-7.8,9.5-11.8,9.5s-10.2,0-10.2,0l4.2-31.5c0,0,10.5,0,12.8,0S379.8,596.5,379,601z
		 M399,625l-1.5-6.8H387l-2.3,7.2h-5.6l11.2-32h6.8l7.8,31.5H399z M424.5,625h-16.8v-31.5h5l0.8,26.8h11V625z M445.2,625.5h-17.5
		L426,594h5.2l2,26.2h12V625.5z M476.9,621.1c0,1.8-1.4,5.8-7.6,5.8s-11.9-2.1-14.6-15.2s0.6-17.9,7.4-17.4s9.9,2.6,12,9.8h-5.5
		c0,0-1.8-6.5-5.8-5.6s-3.9,7.1-1.6,14.6s3.6,9.2,6.5,8.8s3.4-1.8,2.9-6.1h6.4C476.9,615.6,476.9,619.4,476.9,621.1z M481.8,627.6
		l-7.2-32.2h5.5l6.2,26.6l10.8,0.5l2,6.2L481.8,627.6z M516.4,630.5c-7.8,1.9-14.9-4.8-17.8-14.4s-5.9-20-5.9-20h5.2
		c0,0,4.5,15,5.4,17.5s3.8,10.8,7.2,10.9s7,0.2,4.4-7.2s-7.4-20.4-7.4-20.4l5.8,0.2c0,0,6,16.6,7.1,19.9S524.1,628.6,516.4,630.5z
		 M546.4,624.9c1.6,5.8-1.9,7.5-6.1,7.5s-10.6-1-10.6-1l-11.9-33.6c12.5-0.6,15.1,1.2,19.8,6.9s-0.5,8.8-0.5,8.8
		C541,613.7,544.8,619.1,546.4,624.9z"/>
	<polygon class="st0" points="388.8,612.4 396.3,612.4 393.2,598.2 	"/>
	<polygon class="st0" points="347.5,658.6 347.5,676.4 351,676.4 351,668.6 358.1,668.6 358.1,676.4 361.6,676.4 361.6,658.6 
		358.1,658.6 358.1,665.6 351,665.6 351,658.6 	"/>
	<path class="st0" d="M379.5,674.2c1.6-1.6,2.3-3.9,2.3-6.7c0-2.9-0.8-5.1-2.4-6.8c-1.6-1.6-3.7-2.4-6.3-2.4c-1.4,0-2.7,0.2-3.8,0.7
		c-0.8,0.3-1.6,0.9-2.3,1.6c-0.7,0.7-1.2,1.5-1.7,2.4c-0.5,1.2-0.8,2.7-0.8,4.6c0,2.8,0.8,5,2.3,6.7c1.6,1.6,3.7,2.4,6.3,2.4
		C375.9,676.7,377.9,675.9,379.5,674.2z M369.7,672c-0.9-1-1.4-2.6-1.4-4.6c0-2,0.5-3.6,1.4-4.6c0.9-1,2.1-1.5,3.6-1.5
		c1.5,0,2.7,0.5,3.6,1.5c0.9,1,1.3,2.5,1.3,4.6c0,2.1-0.5,3.6-1.4,4.6c-0.9,1-2.1,1.5-3.5,1.5C371.8,673.6,370.6,673.1,369.7,672z"
		/>
	<polygon class="st0" points="384.6,658.6 384.6,676.4 388.2,676.4 388.2,668.6 395.2,668.6 395.2,676.4 398.8,676.4 398.8,658.6 
		395.2,658.6 395.2,665.6 388.2,665.6 388.2,658.6 	"/>
	<polygon class="st0" points="402.5,658.6 402.5,676.4 406.1,676.4 406.1,668.6 413.1,668.6 413.1,676.4 416.7,676.4 416.7,658.6 
		413.1,658.6 413.1,665.6 406.1,665.6 406.1,658.6 	"/>
	<path class="st0" d="M434.6,674.2c1.6-1.6,2.3-3.9,2.3-6.7c0-2.9-0.8-5.1-2.4-6.8c-1.6-1.6-3.7-2.4-6.3-2.4c-1.4,0-2.7,0.2-3.8,0.7
		c-0.8,0.3-1.6,0.9-2.3,1.6c-0.7,0.7-1.2,1.5-1.7,2.4c-0.5,1.2-0.8,2.7-0.8,4.6c0,2.8,0.8,5,2.3,6.7c1.6,1.6,3.7,2.4,6.3,2.4
		C430.9,676.7,433,675.9,434.6,674.2z M424.8,672c-0.9-1-1.4-2.6-1.4-4.6c0-2,0.5-3.6,1.4-4.6c0.9-1,2.1-1.5,3.6-1.5
		c1.5,0,2.7,0.5,3.6,1.5c0.9,1,1.3,2.5,1.3,4.6c0,2.1-0.5,3.6-1.4,4.6c-0.9,1-2.1,1.5-3.5,1.5S425.7,673.1,424.8,672z"/>
	<polygon class="st0" points="447.3,676.4 447.3,661.6 452.5,661.6 452.5,658.6 438.4,658.6 438.4,661.6 443.7,661.6 443.7,676.4 	
		"/>
	<path class="st0" d="M566.7,601.6c8.5,0.8,95.4,9,152.8,20.4l-57-113.5h-56.2c0-0.1,0-0.1,0.1-0.2
		c39.3-114.7,41.5-253.2,41.5-253.2L603,245c-14.8-10.8-13.2-34.2-0.5-37.5c12.7-3.3,15.8,6,16.7,9.7c0.8,3.7-1.2,5.3-2,3
		c-4.3-12.7-17.7-7.5-20-0.3c-2.3,7.2-1,22,15,22.2c16,0.2,23.2-19,21.2-32s-18.5-19.2-26.8-25.3c-8.3-6.2-8.3-23.3-8.3-23.3
		c-12,17.5-18,17.5-22.5,17.7c-4.5,0.2-20.3-1.5-30,8c-9.7,9.5-9.8,21.9-4.1,32.6c5.7,10.7,16.5,9.2,21.8,7.2
		c5.3-2,12.8-14.2,6.3-21.8s-13.1-2.5-15.1-1.2c-2,1.3-3.2,1.1-2.2-0.9c4.5-10.5,20.5-8.7,23.3,1.8c2.8,10.5-2.5,18.3-11,25
		s-27.2,0.3-27.2,0.3c1.5-9.2-3.2-16.2-25.5-30.2c-22.3-14-25.3-25-25.3-25c-2.6,6.4-10.6,11.2-28,9.6s-35-12.4-42.1-25
		s-5.6-30.1,4.8-38.4s26.1-3.5,30.5,4.6s1.6,10.6,0.4,8.6c-2.5-5-19.2-15.8-27.7-1.8s-4.5,27,7,34s28,4,37.2-8.2s10.8-34,1-49
		S440.8,89.8,436.8,89s-13-1.8-23.2-12S400,50,400,50s-3.2,16.8-13.5,27s-19.2,11.2-23.2,12s-23.5,5.5-33.2,20.5s-8.2,36.8,1,49
		s25.8,15.2,37.2,8.2s15.5-20,7-34s-25.2-3.2-27.7,1.8c-1.2,2-4-0.5,0.4-8.6s20.1-12.9,30.5-4.6s11.9,25.8,4.8,38.4
		s-24.8,23.4-42.1,25s-25.4-3.2-28-9.6c0,0-3,11-25.3,25c-22.3,14-27,21-25.5,30.2c0,0-18.7,6.3-27.2-0.3s-13.8-14.5-11-25
		c2.8-10.5,18.8-12.3,23.3-1.8c1.1,2-0.2,2.2-2.2,0.9c-2-1.3-8.6-6.3-15.1,1.2s1,19.8,6.3,21.8c5.3,2,16.2,3.4,21.8-7.2
		c5.7-10.7,5.6-23.1-4.1-32.6c-9.7-9.5-25.5-7.8-30-8c-4.5-0.2-10.5-0.2-22.5-17.7c0,0,0,17.2-8.3,23.3
		c-8.3,6.2-24.8,12.3-26.8,25.3s5.2,32.2,21.2,32c16-0.2,17.3-15,15-22.2c-2.3-7.2-15.7-12.3-20,0.3c-0.8,2.3-2.8,0.7-2-3
		c0.8-3.7,4-13,16.7-9.7c12.7,3.3,14.3,26.7-0.5,37.5l-44.8,10.2c0,0,2.2,138.5,41.5,253.2c0,0.1,0,0.1,0.1,0.2h-56.2L80.5,622
		c57.5-11.4,144.4-19.6,152.8-20.4c0.1,0.2,0.3,0.5,0.4,0.7l-23.2,62.2c20.2-4,39.3-7.3,57-9.9c32.9,42.2,75.2,74.9,132.5,95.4
		c57.3-20.6,99.6-53.2,132.5-95.4c17.8,2.7,36.9,5.9,57,9.9l-23.2-62.2C566.4,602,566.6,601.8,566.7,601.6z M578,655
		c0,0-23.9-3.9-56-8.1c-2,2.5-4,5-6,7.5c-31.7,38.5-69,66-113.8,84.2l-2.3,0.9l-2.3-0.9c-44.8-18.2-82-45.7-113.8-84.2
		c-2-2.4-4-4.9-6-7.5c-32.1,4.2-56,8.1-56,8.1l23.4-57.7c-0.9-1.6-1.8-3.3-2.7-4.9c-63.4,4.3-144.2,16.2-144.2,16.2l49-91h62
		c-19.8-54.2-29.1-111.1-33.5-149.4c-4.8-42-4.7-70.6-4.7-71.8l0-4.9l4.8-0.9l51.4-10l-1.7-29.3l-0.3-5.5l5.5-0.8
		c39.8-5.4,82.7-23.6,111.7-37.9c31.6-15.6,53.9-30.1,54.1-30.2l3.3-2.1l3.3,2.1c0.9,0.6,89.3,57.7,165.8,68.2l5.5,0.8l-0.3,5.5
		l-1.7,29.3l51.4,10l4.8,0.9l0,4.9c0,1.2,0,29.8-4.7,71.8c-4.3,38.4-13.7,95.3-33.5,149.4h62l49,91c0,0-80.8-11.9-144.2-16.2
		c-0.9,1.7-1.8,3.3-2.7,4.9L578,655z"/>
</g>
</svg>
