<?xml version="1.0" encoding="utf-8"?>
<!-- Generator: Adobe Illustrator 22.1.0, SVG Export Plug-In . SVG Version: 6.00 Build 0)  -->
<svg version="1.1" id="图层_1" xmlns="http://www.w3.org/2000/svg" xmlns:xlink="http://www.w3.org/1999/xlink" x="0px" y="0px"
	 viewBox="0 0 800 800" style="enable-background:new 0 0 800 800;" xml:space="preserve">
<style type="text/css">
	.st0{fill:#003586;}
</style>
<g>
	<path class="st0" d="M555.7,186.3c0,0-4.3-27-26-44c-24.7-20.7-64-30-87.3-35.3c-4.3-1-19.1-12.2-25.6-24S400,50,400,50
		s-10.2,21.2-16.8,33s-21.2,23-25.6,24c-23.3,5.3-62.7,14.7-87.3,35.3c-21.7,17-26,44-26,44C155,201,136,259.7,136,291
		c0,31.3,0,263,0,297s12,60,30.5,76s35.5,23.5,71.5,29.5c40.5,6,77.5,19.5,94,27s68,29.5,68,29.5s51.5-22,68-29.5s53.5-21,94-27
		c36-6,53-13.5,71.5-29.5s30.5-42,30.5-76s0-265.7,0-297C664,259.7,645,201,555.7,186.3z M646,588c0,26.7-8.6,48.8-24.3,62.4
		c-14.4,12.5-27.5,19.5-62.5,25.3c-39.7,5.9-77.9,19-98.6,28.4c-12.5,5.7-45.9,20-60.6,26.3c-14.7-6.3-48.1-20.6-60.6-26.3
		c-20.7-9.4-59-22.5-98.6-28.4c-35-5.9-48.1-12.8-62.5-25.3C162.6,636.8,154,614.7,154,588V291c0-7.8,1.6-28,16.9-47.5
		c15.9-20.4,41.6-33.7,76.4-39.4l12.8-2.1l2.1-12.8c0-0.2,3.7-20.4,19.3-32.7l0.2-0.2l0.2-0.2c21.9-18.4,59.6-27,79.8-31.6
		c11.3-2.6,29.4-18.6,37.3-32.8c0.3-0.6,0.7-1.2,1-1.8c0.3,0.6,0.7,1.2,1,1.8c7.9,14.3,26,30.2,37.3,32.8
		c20.2,4.6,57.9,13.2,79.8,31.6l0.2,0.2l0.2,0.2c15.2,11.9,19.1,31.5,19.3,32.8l1.9,12.7l13,2.1c34.8,5.7,60.5,19,76.4,39.4
		C644.4,263,646,283.2,646,291V588z"/>
	<path class="st0" d="M339.2,546.9l2.4,7c0,0,7.8,3.2,12.4,4.6c0.2,0,0.3,0.1,0.5,0.2c-3.6-2.2-6.2-4.8-6.7-5.9
		c-0.9-2-2.3-6.5-2.3-6.5l-11.8-7.6l-5.5,9.9l-8.6-3L300,556.4l21.7-5.6l16.9,11.8l-7.9-11.1l3.5-7.6L339.2,546.9z"/>
	<path class="st0" d="M354.6,558.7c2.5,1.6,5.5,2.9,8.5,3.5C363.9,562.4,359.1,560.1,354.6,558.7z"/>
	<path class="st0" d="M261.7,363.7c27.3-22.3,106-66,106-66s-35.7,7.7-57.3,18.7c-21.7,11-69.7,35.7-128.7,69.7l4,59
		C185.7,445,234.3,386,261.7,363.7z"/>
	<path class="st0" d="M287.2,323.2c-7.1,0.1-14.4-2.8-14.4-2.8c30-17.8,109.7-49,143.7-53.8c34-4.8,68.2,5.8,70.5,6.2
		s4.4-0.1,5.3-0.5c0.9-0.4,2.9-1.3,4.3-1.2c4.3,0.5,6.3,5.8,4.8,9.3s-11.7,12.8-11.7,12.8c9.5-3.7,11.8-4.7,13-1.2
		c2.5,11.5-4.7,24.3-4.7,24.3c-1.2-4.5-8.8-13.8-26.2-6.5c-17.3,7.3-33.3,21.3-45,52c-11.7,30.7,2.3,51.7,24.2,51.3
		c21.8-0.3,35.2-37.9,36.8-41.9s3.4-4.3,4.1-3.5c0.7,0.8,4.4,4.8,3.7,9.1c-5,32-33,58.8-33,58.8c3-6.5,2.2-14.5,2.2-14.5
		c-33.8,7-105,0.5-121.5-19.5c-14-17-11.3-42.7-10.1-50c0.1-0.7-0.7-1.2-1.3-0.7c-23.2,19-19.4,47.8-9.1,63c18,24,58.8,23,58.8,23
		c-33.8,40-24.2,75.5-24.2,75.5H388c-15-12-9.7-42.8-5.5-57.3s10.3-19.8,17.5-20.7c7.2-0.8,34-2.3,41.5-3c7.5-0.7,9.8,0.5,10.3,3.5
		c1.5,14.8-23.8,30.8-23.8,30.8c53.7-14.2,68.5-66.7,72.1-79.2s0.9-19.2-1.8-20.8s-4.4-3-4.4-6.6s-3-9-3-9
		c-1.8,19.8-25.8,58.8-37.5,54s-14-15.2-12.5-30.8s12.5-38.5,23.5-48.8s18.8-14.5,26.5-10.5s2.8,20.5,2.8,20.5s10.8-14.5,14-24.2
		c2.7-8.2,0.5-19.8-0.3-23.2c-0.1-0.7,0-1.4,0.3-1.9c8.1-13.1,9.7-20.9,9.9-24.6c0.1-1.3-1.2-2.2-2.4-1.7
		c-14.9,5.6-40.1-0.6-56.2-2.7c-17-2.2-37.5-0.8-59,2.8c-62,10.5-100,26.5-133,42.8S205.8,325,205.8,325
		C248.2,338.8,287.2,323.2,287.2,323.2z"/>
	<path class="st0" d="M441.8,292c3-2,14.8-4.8,14.8-4.8c-13.5-6.8-29-4.8-41.5-1.5C402.7,289,379,298,379,298
		c28.5-6.7,43.8-8.3,43.8-8.3c-1.8,1.3-2.7,5.5,1,6.8c7.3,1.8,7.8-4.8,7.8-4.8c1.8,5.5-1.7,14-1.7,14
		C431.8,301.8,438.8,294,441.8,292z"/>
	<path class="st0" d="M410.5,334.7c10.5,0.7,15.7-8.7,15.7-8.7c-19.7,12.5-29.8-3.2-29.8-3.2C397.5,327.3,400,334,410.5,334.7z"/>
	
		<ellipse transform="matrix(0.8875 -0.4607 0.4607 0.8875 -194.0022 162.5836)" class="st0" cx="236.1" cy="478.7" rx="17.6" ry="11.6"/>
	
		<ellipse transform="matrix(0.8875 -0.4607 0.4607 0.8875 -169.058 150.4363)" class="st0" cx="223.6" cy="421.5" rx="15.9" ry="9.4"/>
	<path class="st0" d="M252.9,403.6c-4.7,2.5-7,7.4-5.1,11.1c1.9,3.7,7.3,4.6,12,2.2c4.7-2.5,7-7.4,5.1-11.1S257.7,401.1,252.9,403.6
		z"/>
	
		<ellipse transform="matrix(0.9252 -0.3795 0.3795 0.9252 -156.8873 116.7915)" class="st0" cx="217.8" cy="456.3" rx="9.3" ry="7.2"/>
	<ellipse transform="matrix(0.9252 -0.3795 0.3795 0.9252 -150.1508 128.946)" class="st0" cx="252" cy="445.3" rx="9.7" ry="7.5"/>
	
		<ellipse transform="matrix(0.9252 -0.3795 0.3795 0.9252 -157.0962 138.6981)" class="st0" cx="273.3" cy="467.8" rx="10.2" ry="8.8"/>
	
		<ellipse transform="matrix(0.7071 -0.7071 0.7071 0.7071 -242.6211 356.5488)" class="st0" cx="309.1" cy="471.1" rx="10" ry="7.8"/>
	
		<ellipse transform="matrix(0.7071 -0.7071 0.7071 0.7071 -255.7417 365.1989)" class="st0" cx="313" cy="491.3" rx="11.9" ry="8.7"/>
	
		<ellipse transform="matrix(0.7071 -0.7071 0.7071 0.7071 -238.5278 384.9442)" class="st0" cx="345.4" cy="480.4" rx="11.1" ry="8.1"/>
	
		<ellipse transform="matrix(0.7071 -0.7071 0.7071 0.7071 -220.9608 368.0461)" class="st0" cx="333.8" cy="450.7" rx="10.8" ry="7.5"/>
	
		<ellipse transform="matrix(0.7071 -0.7071 0.7071 0.7071 -214.4728 387.0751)" class="st0" cx="360" cy="452.4" rx="9.2" ry="6.7"/>
	<path class="st0" d="M272.6,485.3c-4.2,1.7-6.4,5.9-5,9.4s6,4.9,10.2,3.2c4.2-1.7,6.4-5.9,5-9.4
		C281.3,485.1,276.7,483.6,272.6,485.3z"/>
	
		<ellipse transform="matrix(0.843 -0.5379 0.5379 0.843 -191.5352 228.8167)" class="st0" cx="296.2" cy="442.6" rx="15.4" ry="10"/>
	<path class="st0" d="M285.1,431.9c5.4-3.1,8-8.7,5.8-12.5c-2.2-3.8-8.3-4.4-13.7-1.2c-5.4,3.1-8,8.7-5.8,12.5
		C273.6,434.4,279.7,435,285.1,431.9z"/>
	<ellipse transform="matrix(0.866 -0.5 0.5 0.866 -160.943 198.5681)" class="st0" cx="290.1" cy="399.6" rx="12.1" ry="7.9"/>
	
		<ellipse transform="matrix(0.9283 -0.3719 0.3719 0.9283 -118.7849 127.9246)" class="st0" cx="272.2" cy="371.9" rx="9.9" ry="7.5"/>
	<path class="st0" d="M293.5,342.6c-4.7,1.9-7.3,6.6-5.7,10.5c1.6,3.9,6.7,5.6,11.4,3.7c4.7-1.9,7.3-6.6,5.7-10.5
		C303.3,342.4,298.2,340.8,293.5,342.6z"/>
	
		<ellipse transform="matrix(0.9501 -0.3119 0.3119 0.9501 -90.9309 116.9416)" class="st0" cx="320.2" cy="342.8" rx="12.3" ry="8.3"/>
	<ellipse transform="matrix(0.9501 -0.3119 0.3119 0.9501 -86.1382 123.3978)" class="st0" cx="342.7" cy="331" rx="6.5" ry="4.6"/>
	
		<ellipse transform="matrix(0.9501 -0.3119 0.3119 0.9501 -90.2915 127.8999)" class="st0" cx="354.7" cy="346.2" rx="9.9" ry="7.3"/>
	<path class="st0" d="M366.3,392.5c5.7-1.9,9.3-6.5,8.1-10.3s-6.9-5.4-12.6-3.5c-5.7,1.9-9.3,6.5-8.1,10.3S360.6,394.4,366.3,392.5z
		"/>
	
		<ellipse transform="matrix(0.9501 -0.3119 0.3119 0.9501 -95.7807 139.7533)" class="st0" cx="389.1" cy="369.3" rx="9.2" ry="7.1"/>
	<path class="st0" d="M357.6,374c-0.9-2.3-4.5-3.1-7.9-1.7c-3.4,1.4-5.5,4.4-4.5,6.7c0.9,2.3,4.5,3.1,7.9,1.7S358.5,376.3,357.6,374
		z"/>
	<path class="st0" d="M376.7,409.1c1.5,3.1,5.8,4.2,9.8,2.4c3.9-1.8,5.9-5.9,4.5-9s-5.8-4.2-9.8-2.4
		C377.2,401.9,375.2,405.9,376.7,409.1z"/>
	<path class="st0" d="M261.6,261.9c10.5-3.9,11-10.5,10-15.5s-4.6-3.9-5.8-3.2s-3,2-3.2,1c-0.5-3,5.8-6.5,5.8-6.5l-0.6-4.6
		c-10.8,6.8-8.1,14.9-6.8,17.2c1.2,2.3,4.2,0.5,6.5-0.7c2.3-1.2,2.1,1.2,1.7,1.9c-0.4,0.8-4.3,6.5-12.1,6.8s-4.8-13.2-4.8-13.2
		C248,252.6,251.1,265.8,261.6,261.9z"/>
	<polygon class="st0" points="292,218.7 288.8,216.3 287,219.8 290.2,222.5 	"/>
	<path class="st0" d="M289.8,251.1c3.5-1.8,7.3-5.2,6.7-13c0,0,5.6-0.9,7.6-1.2s3.5-2.5,3.7-3.7c0,0,1.7,2.4,4.2,2.2s7.4-1,8.9-1.4
		c1.5-0.4,2.6-1.3,2.9-3.2c0,0,1.6,2.2,4.2,1.8c2.7-0.4,8.4-1.7,9.7-2s2.3-1,2.8-3.6c0,0,1.8,2.6,3.8,2.3s6.9-0.9,8.8-1.4
		c1.9-0.5,3.1-0.8,3.7-3.7c0,0,1.8,2.6,4.6,2.2c2.8-0.3,11.1-2.1,13.1-2.6c4.8-1.2,5.4-9,0.2-16l-1.8,4.7c0,0,1.9,1.5,2.8,2.9
		c0.8,1.4,0.8,2.1-2.5,2.8c-3.2,0.7-9.6,1.8-11.3,2.1s-3.8-0.6-5.6-3.9c0,0,0.3,4.8-2.4,5.3s-7.2,1.3-8.4,1.5s-3.2-0.5-3.8-3.4
		s-3.2-19.2-3.2-19.2s-1.9,1.9-2.2,3.2s-0.5,1.9,0.2,5.2s2.3,11.4,2.6,12.5s-0.1,2.9-1.4,3.2s-8.2,1.6-9.4,1.8s-3.1,0.6-4.8-4.6
		c0,0-0.1,2.6-0.4,3.9s-0.9,1.8-2.4,2.1s-6.9,1.2-7.9,1.3s-2.4,0.8-5.2-3.5c0,0-0.2,1.9-0.6,3s-1.6,1.9-2.9,2.2s-5.8,1-7.3,1.2
		s-2.6-0.6-4.5-5.5l-1.5,5.6c0,0,2.2,3.5,3,5s1.8,3.7-2,6.9s-6.6,5.2-9.1,5.7C282.4,249.8,286.2,252.9,289.8,251.1z"/>
	<polygon class="st0" points="320.2,240.3 323.3,242.7 325.2,239.3 322.1,236.8 	"/>
	<polygon class="st0" points="331.2,238.1 328.2,235.6 326.4,239 329.4,241.4 	"/>
	<polygon class="st0" points="329.2,243.8 326.2,241.1 324.4,244.7 327.4,247.1 	"/>
	<polygon class="st0" points="371.5,235.2 373.3,231.8 370.2,229.3 368.4,232.8 	"/>
	<polygon class="st0" points="374.6,231.4 377.7,234.1 379.4,230.5 376.3,228.1 	"/>
	<polygon class="st0" points="414.2,205.5 411.8,202.1 409.1,205.1 411.3,208.3 	"/>
	<path class="st0" d="M412.6,241.8c2.6-0.4,7.1-3.5,7.1-3.5c-10.1,1.3-19.7-1.7-17.6-9.2c2.1-7.6,13.3-7.9,13.3-7.9l3.1-4.3
		c0,0-5.1,2.1-8.7,1c-3.6-1.1-2.6-3.2-0.4-3.8c2.2-0.6,3.2,0.6,3.2,0.6l2.8-3.2c-5.3-2.7-8.2,0.6-10,3.4c-1.8,2.8,1,5.9,1,5.9
		c-2.5,1.5-7.4,5.4-7.6,10.1C398.6,242.2,410,242.2,412.6,241.8z"/>
	<path class="st0" d="M427,227.1c2.2,0.1,4.8,0.4,6.9,0.5c2.2,0.1,4.6-0.4,5.6-2.4c0,0,1.4,3.4,4.9,3.6c3.5,0.2,8.2,1.1,11.9,1
		c3.8-0.1,7.5-8.8,3.8-15.6l-2.8,4c0,0,2.1,1.8,1.8,5.8c0,0-9.8-0.8-13.2-1.1s-4.3-3.8-4.5-5.4c0,0-1.1,4.4-3.2,4.4
		c-2.1,0-10.3-1-11.2-1c-0.9,0-1-1.3-0.8-3.2s1.7-20.1,1.7-20.1l-3.8,3.4c0,0-1.2,18.3-1.4,21.5C422.7,225.6,424.8,227,427,227.1z"
		/>
	<polygon class="st0" points="441,208.1 438.7,204.7 435.9,207.7 438.2,211.1 	"/>
	<polygon class="st0" points="447.2,208.7 444.8,205.2 442.1,208 444.4,211.3 	"/>
	<path class="st0" d="M472.1,241.2c4.6-0.3,8.7-2.9,10.8-8c0,0,18.8,6.2,21.8,7c3,0.8,5,0.9,6.4-0.7c1.4-1.6,2.3-2.5,3-3.5
		c0.7-1,1.1-3.7-0.5-4.6c-1.6-0.9-15.3-6.3-16.1-6.7s-1.6-1.4,0.6-1.5c2.2-0.1,10.1-0.2,10.1-0.2l3.2-3.2c0,0-10.7,0.2-12.5,0.6
		c-1.8,0.3-4.7,2.4-4.8,4.2c-0.2,1.8,0.2,2.6,2.2,3.3c1.9,0.8,12.8,4.9,14.1,5.5s2.2,2.6,0,2.1s-22.2-7.1-23.8-7.6s-2.2-1.6-2.1-3.2
		c0.1-1.7,0.1-4,0.1-4l-3.8,4.1c0,0,0.3,4.6,0.2,6.9s-3.4,5.8-15.8,5.2C465.2,237,467.5,241.6,472.1,241.2z"/>
	<polygon class="st0" points="507.2,212.9 505.8,209.9 503.1,211.9 504.8,215 	"/>
	<polygon class="st0" points="506.3,219.2 508.8,217.2 507.5,214.2 505,216.2 	"/>
	<polygon class="st0" points="504,215.9 502.5,213 500,215 501.6,218 	"/>
	<polygon class="st0" points="543.3,230.1 541.8,226.2 538.5,228.7 540.1,232.4 	"/>
	<polygon class="st0" points="549.3,231.7 547.7,228 544.4,230.4 545.9,234.2 	"/>
	<path class="st0" d="M521.6,242.8c0,0-0.3,2.8,1.8,3.7c2.1,0.8,8.4,2.8,10.8,3.4c2.3,0.7,4.5,0.8,5.4-0.3c0.9-1.1,2.4-3.1,3-4.1
		s1.8-4.3,0.8-9.1l-3.5,3.1c0,0,0.7,2.7,0.9,3.6c0.2,0.9-0.2,2.5-1.8,2.1s-10.8-3.4-12.1-3.9s-1.7-1.2-1.2-2.6s3.7-11.5,3.7-11.5
		l-4,2.4l-0.3,1.8c0,0-3.8,0.7-7.2,5C514.6,240.6,516.9,243.4,521.6,242.8z M521.1,235c0.8-0.7,3.4-1.8,3.4-1.8s-0.9,3.6-1,3.6
		s-1.5,0.1-2,0S520.2,235.6,521.1,235z"/>
	<path class="st0" d="M291.3,615.7c2-3,4.1-5.4,6.4-7.2c-12.7-2.1-20.9-7.7-24.5-16.7H294v-6.1h-21.5v-9.1h18.1v-5.9h-43.5v5.9h16.9
		v9.1h-20.8v6.1h20c-2.4,8.9-9.9,15.2-22.5,18.8c2.6,1.5,4.8,3.5,6.6,5.7c10.6-3.8,17.7-9.2,21.3-16.3
		C273.5,607.4,281,612.6,291.3,615.7z"/>
	<path class="st0" d="M377.1,579.2h-5.2V607h-11.1v-33c0-2,0.2-3.6,0.5-4.7c0-0.3,0-0.5,0-0.6c0.2-0.4-1-0.6-3.4-0.6h-5.4V607h-11.3
		v-24c0-1,0.2-1.9,0.5-2.8c0-0.6,0-0.9,0-1.1c0-0.4-1.1-0.6-3.2-0.4h-5.4v34.1h38.8v2.2h8.6v-31.5c0-1.3,0.2-2.4,0.5-3.2
		c0-0.3,0-0.5,0-0.6C381,579.2,379.7,579,377.1,579.2z"/>
	<rect x="426.2" y="582.2" class="st0" width="11.8" height="4.5"/>
	<rect x="449.3" y="588.5" class="st0" width="12.3" height="4.5"/>
	<rect x="426.2" y="588.5" class="st0" width="11.8" height="4.5"/>
	<polygon class="st0" points="464.6,617.2 464.6,594.8 422.2,594.8 422.2,600.2 456.5,600.2 456.5,602.3 423.9,602.3 423.9,607.5 
		456.5,607.5 456.5,609.7 422,609.7 422,614.7 456.5,614.7 456.5,617.2 	"/>
	<rect x="449.3" y="582.2" class="st0" width="12.1" height="4.5"/>
	<polygon class="st0" points="471.2,575.5 447.6,575.5 447.6,573.6 466.1,573.6 466.1,568 422,568 422,573.6 440.2,573.6 
		440.2,575.5 417,575.5 417,589.4 424.4,589.4 424.4,580.3 440.2,580.3 440.2,593.5 447.6,593.5 447.6,580.3 463.6,580.3 
		463.6,589.6 471.2,589.6 	"/>
	<path class="st0" d="M557.3,611c0.5-3.4,0.7-8.4,0.7-15c0.2-2.7,0.2-4.7,0.2-6c0.2-1.6,0.2-3.9,0.2-7.1c0.2-3.1,0.2-5.5,0.2-7.1
		h-15.4c0.2-0.3,0.4-0.8,0.7-1.5c1.1-2.3,2.1-4,2.9-5.2c-2.6-0.7-5.9-1.4-9.8-1.9c-1.1,5.7-2.6,10.2-4.4,13.5
		c-4.1-3.7-5.9-5.2-5.4-4.3l-2,1.5c0-0.1-0.1-0.4-0.2-0.6c-0.7-1.3-1.1-2.1-1.5-2.6c1.5-0.6,3.1-1.1,4.9-1.7c1.3-0.4,2-0.7,2-0.9
		c-0.2-0.3-2.4-1.9-6.6-4.9c-4.2,3.1-11.1,5.7-20.6,7.5c1.3,1.3,2.3,3.1,2.9,5.4c1-0.3,1.8-0.5,2.4-0.6c1.5,1.4,2.6,3.1,3.4,5.2
		c-2.6,1.3-5.6,2.3-9.1,3c1.6,1.6,2.9,3.2,3.9,4.9c2.6-0.7,5.8-1.9,9.6-3.6c0.7,0.3,1.2,0.6,1.7,1.1c-4.6,3.4-9.8,6.2-15.7,8.4
		c2.6,1.4,4.4,2.8,5.4,4.1c4.7-2.4,9.1-5.2,13.2-8.2l0.7,1.3c-4.9,5.2-11.1,9.2-18.6,12.2c2.3,1.7,4,3.1,5.1,4.3
		c5.2-2.1,10-5.3,14.2-9.4c0.8,6.7-2.1,9.4-8.8,7.9c1.3,2,2.1,4.1,2.4,6.2c9.5,0.6,14-2.7,13.7-9.9v-7.3c-0.2-5.4-2.5-9.9-7.1-13.3
		c3.6-2,6.6-3.4,9.1-4.1c-1.6,2.6-3,4.5-4.2,5.8c2.6,0.4,5.2,1.1,7.8,2.1c0.2-0.3,0.4-0.6,0.7-1.1c1.8-2.9,3.2-5.4,4.2-7.5h9.8v3.2
		c0,5.2-0.3,12.7-1,22.5c0.7,2.7-2.3,3.6-8.8,2.6c1.5,2.3,2.3,4.7,2.4,7.3C552.2,617.6,557,615.5,557.3,611z M518.6,581.8
		c-0.3,0.1-0.6,0.3-0.7,0.4c0-0.1-0.1-0.4-0.2-0.6c-1-1.9-1.8-3.1-2.4-3.9l2.7-1.1c0.8,1.4,1.5,2.9,2,4.5
		C519.6,581.3,519.2,581.5,518.6,581.8z"/>
	<path class="st0" d="M541.4,589.1c-0.7,0.1-3,0.9-7.1,2.4c1.6,3.3,2.9,7.2,3.7,11.6c1.5-0.1,3.4-0.6,5.9-1.3c1.1-0.3,2-0.5,2.4-0.6
		c0.3-0.4,0.2-1.1-0.2-1.9v-0.2C544.7,595.1,543.2,591.8,541.4,589.1z"/>
	<polygon class="st0" points="238.9,630.2 245.2,630.2 245.2,646.3 251.5,646.3 251.5,630.2 257.9,630.2 257.9,624.9 238.9,624.9 	
		"/>
	<rect x="261" y="624.9" class="st0" width="6.3" height="21.5"/>
	<path class="st0" d="M277.4,624.9l-7.6,21.5h6.4l1-3.5h7.1l1,3.5h6.6l-7.6-21.5H277.4z M278.5,638.1l2.2-7.7l2.2,7.7H278.5z"/>
	<polygon class="st0" points="306.9,636.7 299.2,624.9 293.4,624.9 293.4,646.3 299.3,646.3 299.3,634.5 306.9,646.3 312.8,646.3 
		312.8,624.9 306.9,624.9 	"/>
	<path class="st0" d="M330.8,633.8c-1.2-0.6-3.1-1.3-5.9-1.9c-1.1-0.2-1.8-0.5-2.1-0.8c-0.3-0.3-0.5-0.6-0.5-0.9
		c0-0.5,0.2-0.9,0.6-1.2c0.4-0.3,0.9-0.5,1.6-0.5c0.9,0,1.6,0.2,2.1,0.7s0.8,1.1,1,2.1l5.9-0.4c-0.3-2.2-1.1-3.8-2.4-4.9
		c-1.4-1-3.3-1.5-5.9-1.5c-2.1,0-3.8,0.3-5,0.8s-2.1,1.3-2.7,2.3c-0.6,1-0.9,2-0.9,3.1c0,1.7,0.6,3.1,1.8,4.1c1.2,1.1,3.1,2,5.9,2.6
		c1.7,0.4,2.7,0.8,3.2,1.2s0.7,0.9,0.7,1.5c0,0.6-0.2,1.1-0.7,1.5c-0.5,0.4-1.2,0.7-2.1,0.7c-1.2,0-2.1-0.4-2.8-1.3
		c-0.4-0.5-0.7-1.3-0.8-2.3l-6,0.4c0.2,2.2,0.9,4,2.3,5.4s3.7,2.1,7.2,2.1c2,0,3.6-0.3,4.9-0.9c1.3-0.6,2.3-1.5,3-2.6
		c0.7-1.2,1.1-2.4,1.1-3.8c0-1.2-0.3-2.2-0.8-3.2S332,634.4,330.8,633.8z"/>
	<polygon class="st0" points="350,632.4 343.2,632.4 343.2,624.9 336.9,624.9 336.9,646.3 343.2,646.3 343.2,637.6 350,637.6 
		350,646.3 356.3,646.3 356.3,624.9 350,624.9 	"/>
	<path class="st0" d="M366.1,624.9l-7.6,21.5h6.4l1-3.5h7.1l1,3.5h6.6l-7.6-21.5H366.1z M367.2,638.1l2.2-7.7l2.2,7.7H367.2z"/>
	<polygon class="st0" points="396.1,636.7 388.5,624.9 382.6,624.9 382.6,646.3 388.5,646.3 388.5,634.5 396.1,646.3 402,646.3 
		402,624.9 396.1,624.9 	"/>
	<polygon class="st0" points="421.4,624.9 415.1,624.9 415.1,646.3 431.2,646.3 431.2,641 421.4,641 	"/>
	<polygon class="st0" points="440.3,637.2 450,637.2 450,632.9 440.3,632.9 440.3,629.4 450.8,629.4 450.8,624.9 434,624.9 
		434,646.3 451.1,646.3 451.1,641.5 440.3,641.5 	"/>
	<path class="st0" d="M463.7,624.5c-3.3,0-5.9,1-7.7,2.9c-1.8,2-2.8,4.7-2.8,8.2c0,2.5,0.5,4.6,1.4,6.3s2.1,2.9,3.6,3.7
		c1.5,0.8,3.4,1.2,5.7,1.2c2.3,0,4.1-0.4,5.6-1.3c1.5-0.9,2.7-2.1,3.5-3.8c0.8-1.6,1.2-3.7,1.2-6.2c0-3.5-0.9-6.1-2.7-8.1
		C469.7,625.5,467.1,624.5,463.7,624.5z M466.8,640.3c-0.7,0.9-1.8,1.4-3.1,1.4c-1.3,0-2.3-0.5-3.1-1.4c-0.8-0.9-1.1-2.5-1.1-4.7
		c0-2.2,0.4-3.8,1.1-4.7s1.8-1.4,3-1.4c1.3,0,2.4,0.5,3.1,1.4c0.8,0.9,1.2,2.4,1.2,4.4C468,637.8,467.6,639.4,466.8,640.3z"/>
	<path class="st0" d="M488,624.9h-10.4v21.5h6.3v-8h3.4c2.5,0,4.4-0.6,5.6-1.8c1.2-1.2,1.8-2.9,1.8-5.1c0-2.1-0.6-3.7-1.7-4.9
		C492,625.4,490.3,624.9,488,624.9z M487.9,633.3c-0.5,0.4-1.3,0.7-2.5,0.7h-1.5v-4.8h1.8c1.2,0,2,0.2,2.4,0.7s0.6,1,0.6,1.7
		C488.7,632.3,488.4,632.9,487.9,633.3z"/>
	<path class="st0" d="M503.2,624.9l-7.6,21.5h6.4l1-3.5h7.1l1,3.5h6.6l-7.6-21.5H503.2z M504.4,638.1l2.2-7.7l2.2,7.7H504.4z"/>
	<path class="st0" d="M535.8,638.8c-0.4-0.6-0.8-1-1-1.1c-0.3-0.3-0.9-0.5-1.6-0.8c0.9-0.2,1.7-0.5,2.2-0.8c0.8-0.5,1.5-1.2,2-2.1
		c0.5-0.9,0.7-1.9,0.7-3.1c0-1.4-0.3-2.5-0.9-3.5c-0.6-1-1.5-1.6-2.5-2c-1-0.4-2.5-0.5-4.4-0.5h-10.4v21.5h6.3v-8.7h0.6
		c0.6,0,1.1,0.2,1.5,0.5c0.3,0.3,0.7,0.8,1.1,1.7l3.4,6.6h7.1l-3-6.2C536.6,639.8,536.3,639.4,535.8,638.8z M531.4,632.6
		c-0.3,0.4-0.6,0.6-1,0.7c-0.8,0.2-1.4,0.3-1.7,0.3h-2.6v-4.4h2.8c1.1,0,1.9,0.2,2.3,0.6s0.6,0.9,0.6,1.6
		C531.8,631.8,531.7,632.2,531.4,632.6z"/>
	<path class="st0" d="M558.4,627.9c-0.7-1-1.7-1.7-2.8-2.3c-1.1-0.5-2.6-0.8-4.4-0.8h-9.3v21.5h9.3c1.1,0,2.4-0.2,3.7-0.6
		c1-0.3,1.9-0.9,2.8-1.7c0.9-0.9,1.6-1.9,2.1-3.2s0.7-3,0.7-5.3c0-1.5-0.2-2.9-0.5-4.2C559.7,630.1,559.1,628.9,558.4,627.9z
		 M553.7,639.4c-0.3,0.8-0.7,1.3-1.3,1.6c-0.6,0.3-1.5,0.5-2.8,0.5h-1.5v-11.7h1.6c1.6,0,2.8,0.4,3.5,1.3s1.1,2.4,1.1,4.7
		C554.2,637.4,554,638.6,553.7,639.4z"/>
	<path class="st0" d="M575,259c-24.9,0-45,20.1-45,45c0,24.9,20.1,45,45,45c24.9,0,45-20.1,45-45C620,279.1,599.9,259,575,259z
		 M603.1,272.1l-1,0.1c-6.2-5.3-13.9-7.3-19.1-8l-2.4-2.4C589.1,263,596.9,266.7,603.1,272.1z M580.3,266c4.9,0.4,14.3,2,21.2,8.4
		c1,2.4,2.5,6.6,2.8,10.2l-11.8,5.7l-16.4-8.5l-3.2-12.1C574.5,268.8,577.7,267.1,580.3,266z M570.9,270l3.2,12.3l-11.6,13.9
		l-16.7-0.8c-2-2.7-2.2-8.7-2.2-12l13.7-13.6C559.7,269.6,566.2,269.3,570.9,270z M556.6,265.7l-0.1,2.1l-13.7,13.6l-4.9,2
		C542.1,275.8,548.7,269.5,556.6,265.7z M532.6,306.7c1.7,2.2,4.1,4.3,5,5.1c1.3,4.4,4,10.9,9.6,17.6c0.4,3.6,1,6.4,1.4,8
		C539.5,330,533.4,319,532.6,306.7z M548.6,327.7c-5.1-6.1-7.6-12.2-8.9-16.3c0.2-4,4.7-12.2,5.8-14l16.7,0.8l8.4,15.7l-7.1,14.9
		C559.7,329,551.8,328.1,548.6,327.7z M575,346.5c-3.8,0-7.5-0.5-11-1.5c3.7-0.4,8.6-2.7,10.6-3.7c0.6,0,1.3,0,1.9,0
		c4.9,0,11.2-0.7,17.3-3.5l5.4,1.1C592.3,343.7,584,346.5,575,346.5z M592.7,336.1c-6.5,2.9-13.3,3.4-18.2,3.2
		c-3.6-2.8-7.6-7.4-9.4-9.5l7-14.7l17.4-3.3l10.3,10.8C598.7,327.4,594.6,333.5,592.7,336.1z M615.2,295.9c0.4-0.5,0.8-1,1.2-1.5
		c0.7,3.1,1.1,6.3,1.1,9.6c0,5.8-1.2,11.4-3.3,16.4c-0.2-1.7-0.3-3.6-0.3-4.6C616.1,307.5,615.7,300.1,615.2,295.9z M611.9,315.4
		c-4.7,4.1-9,5.3-10.9,5.6l-9.9-10.5l1.9-18.2l12-5.8c1.6,1.7,5.9,6.4,8.2,9.7C613.7,300.2,614,307.4,611.9,315.4z"/>
	<path class="st0" d="M290.8,534.8l12.1,8.9l9.3-8.5l11.3,2.5l11.5-11c0,0,8.1-0.2,10.4-0.4c2.3-0.2,8.3-4.4,9.9-5.5
		c1.3-0.9,6.2-4.6,7.7-5.8h-5.6h-1.9l-0.5-1.9c0,0,0-0.2-0.1-0.4c-6.5,7.5-11.4,9.1-12.9,8.5c-2.4-0.9-5.4-6-5.4-6l-14.5,15
		c-3-2.8-6.4-3.1-6.4-3.1c-7.2,3.4-14.9,2.1-16.2,0.6s-5.2-5.2-5.2-5.2L246,555.9L290.8,534.8z"/>
	<path class="st0" d="M488.2,532.8l28.2,14.4c4.6-3.4,9.6-5.4,9.6-5.4l27.6,17.4c-1.9-2.8-12-13.5-17.6-19.8s-8.6-8.6-10.9-9.6
		s-2.5,1.6-2.5,1.6l-9.8,7.4l-27.6-22.9l-8.1,4.4c0,0-9.4-10.6-17.5-19.9s-10.8-8.9-10.8-8.9l-9.6,7.2c0,0-1.9-2.8-6-9.9
		s-5.1-7.2-6.9-7.1s-4.1,1-8.4-1s-12.4-13.5-12.4-13.5l-23.5,22.2l-1.5,0.4c0.1,1.6,0.3,3.1,0.6,4.7c8.2-2.3,10.1-4.1,11.1-5.3
		c3.7-4.8,9.3-9.5,10.2-10.2s3.4-2.5,3.2-1.2c-1.6,7-1.1,15.4-0.7,17.1s2,3.8,2.2,5.1s2.5,11.6,2.5,11.6l-14.9,1.7l-0.4,1.4l0.6,0.5
		h-0.7l-5.8,18l-31.1,15.9l37.5-11.5l6-14.5l41.9-9.5l9.8-7.9L461,525l-14.2,6.2l1,10.2l-15.8,4.6l21.5-2.2l-0.4-10l26.8-4.1
		L488.2,532.8z"/>
</g>
</svg>
