<?xml version="1.0" encoding="utf-8"?>
<!-- Generator: Adobe Illustrator 23.0.3, SVG Export Plug-In . SVG Version: 6.00 Build 0)  -->
<svg version="1.1" id="图层_1" xmlns="http://www.w3.org/2000/svg" xmlns:xlink="http://www.w3.org/1999/xlink" x="0px" y="0px"
	 viewBox="0 0 800 800" style="enable-background:new 0 0 800 800;" xml:space="preserve">
<style type="text/css">
	.st0{fill:#008CD8;}
	.st1{fill:#F39200;}
	.st2{fill:#00A040;}
</style>
<g>
	<g>
		<path class="st0" d="M191.9,318.9l40.6-27.7c0,0-5.2-13.5-2.6-22.6c2.6-9,11-34.2,13.5-40c2.6-5.8,3.9-11.6-11-3.9
			c-14.8,7.7-14.8,8.4-19.4,8.4c-4.5,0-7.7-5.2-9.7-12.3c-1.9-7.1-5.2-1.9-6.5,3.2c-1.3,5.2-2.7,15-3.2,18.9
			c-0.4,3.9-4.6,16.3-12,23.2c-7.4,6.9-7.7,10.9-6.8,13.6s10.7,9,12.8,15.4C189.9,301.6,190.8,303,191.9,318.9z"/>
		<path class="st0" d="M334.5,241.8c0,0,49.2-15.4,95.5-20.3c0,0,0.1-11.3,3.1-16.7s9.2-10.4,18.3-17c9.2-6.6,12.2-12.9,3.3-17
			c-8.9-4.1-15.6-5.1-25.3-7.9c-9.7-2.7-23.7-10.2-32.9-25.2s-11.4-18.6-16.3-18.6c-4.9,0-7.3,4.7-9.3,9c-2,4.3-10.3,19-19.6,21.7
			c-9.3,2.7-13,3.7-24,5.6c-11,1.9-19.4,3.4-19.9,7.4c-0.4,4,4.9,8,8.7,11c3.9,3,17.7,13,21.2,25.5
			C340.8,211.8,336.5,234.7,334.5,241.8z"/>
		<path class="st0" d="M566.4,174.2c3.5,3.9,10,11.2,11.6,12.5s2.7,0,2-4.2c-0.6-4.2-2.7-14.5-4.3-20.1c-1.6-5.6-4.2-14.7,1.5-16.6
			c5.7-1.9,6.7-3.4,3-9c-3.7-5.6-13.6-15.7-27.9-28.6c-14.3-13-33.1-27.7-39-30.8s-5.6-0.6-4.7,2.6c0.9,3.2-0.9,6.9-7.2,6.9
			s-27-3.2-31.6-3.4c-4.6-0.2-3.8,2.6,0,4.8s19.5,10.6,28.9,22.4c9.3,11.8,7.6,26.7,7.2,32.7c-0.4,6,2.6,13.1,12.7,11.8
			c10.1-1.3,22.2-4.7,31.5,3.2C559.4,166.4,566.4,174.2,566.4,174.2z"/>
		<path class="st0" d="M393.1,86.2c12.3,0,28.6,4.6,38.8,7.7c10.2,3.1,10.6,0,6-6.6s-10.3-12.9-10-18.2s9.3-8.4,11.3-9.3
			c2-0.9,3.1-2.7-5.9-3.9s-32.5-4-43.6-4.7c-11.2-0.7-25.9-1.3-31.3-1.3c-5.4,0-4.9,2.5-5,3.3c-0.1,0.9-0.4,4.1-5.9,5.9
			s-25.6,5.7-26.6,8.4c-1,2.7,11.6,1.7,16.9,2.9c5.3,1.1,14.3,3.7,13.7,12.6C351,92,350.7,94,352,95.2c1.3,1.2,4.3,3.3,14.4-1.2
			C376.6,89.4,382.7,86.2,393.1,86.2z"/>
		<path class="st0" d="M243.1,112.5c4.5-3.8,9-11.2,11.8-15.8c2.8-4.6,5.1-6.6,11.8,0c6.6,6.6,13.9,12.6,31.5,9.8
			c17.6-2.8,18.7-0.9,6.4,10.7s-21.5,20.8-15.4,42.7s-3,21.2-16.7,13.9c-13.7-7.3-23.4-8.4-43.1,9.4c-6,5.4-10.5,6.4-6-11.2
			s6.9-28.3-1.8-39.3C212.8,122,230.2,123.5,243.1,112.5z"/>
		<path class="st0" d="M623,252.2c-53.2,9-96.6,23-128.4,35.4c-84.3,32.9-140.6,75.2-172.5,99.5c-27.4,20.9-51,41.7-70.8,60.9
			C225.1,423.9,204,394,191,360.6c43.7-32.1,102.4-68.4,176.3-97.9c93.4-37.3,179-51,244.5-55.3C617,221.7,620.8,236.7,623,252.2z"
			/>
		<path class="st1" d="M572.8,270.4c-36.2,19.1-78.7,46.2-121.4,84.5c-52.4,47-89.9,97.4-116.7,142.7c-23.8-8-46.2-20.1-66.3-35.4
			c9.1-11.5,20.2-24.8,33.5-39.1c5.8-6.3,23.2-28,44.9-43.8c33.3-24.1,76-50.6,128.1-73.8C510.1,289.9,543.2,278.7,572.8,270.4z"/>
		<path class="st2" d="M625.3,284.2c0,32.4-6.9,63.2-19.2,91c-23.4,5.2-48.4,12-74.5,20.9c-71,24.1-128.4,55.8-172,84.9
			c15.4-25.2,35.8-54.2,62.2-84.1c27.4-31,54.7-55.4,78.5-74.2c18.9-10,41-20.3,66.1-29.6c20.9-7.7,40.6-13.6,58.8-18.2
			C625.3,278.1,625.3,281.1,625.3,284.2z"/>
		<path class="st0" d="M571.6,391.7c-20.2,11.6-45.5,28.9-70.9,53.8c-20,19.6-35.4,39.3-47.2,57.1c-16.9,4.1-34.5,6.2-52.6,6.2
			c-9.5,0-18.9-0.7-28.3-2c9.2-9.8,19.2-19.9,30.3-30.1c15-13.8,29.6-26,43.5-36.6c19-8.7,39.3-17.4,60.9-25.7
			C529.6,405.6,551.1,398.2,571.6,391.7z"/>
		<path class="st1" d="M587.2,409.4c-27.9,41.4-69.2,73-117.6,88.6c3.2-6.4,7.1-13.3,11.9-20.5c5.8-8.6,11.7-15.8,17.2-21.7
			c14.1-8.9,29.7-18,46.9-26.9C560,421.4,574,415,587.2,409.4z"/>
	</g>
	<g>
		<path class="st0" d="M554.8,750c0-0.4,0-0.8,0-1.2c0-22.8,0-45.7,0-68.5c0-0.4,0-0.7,0-1.2c0.5,0,0.8-0.1,1.2-0.1c5,0,10,0,15,0
			c0.4,0,0.8,0,1.2,0c0.6,0,0.7,0.1,0.8,0.8c0.1,1,0.2,1,1.2,0.8c1.4-0.3,2.8-0.6,4.2-0.9c1-0.2,2.1-0.4,3.1-0.6
			c0.1,0,0.3-0.1,0.4-0.1c1.8-0.1,3.6-0.3,5.4-0.4c0.6,0,1.2,0.1,1.8,0.1c1.3,0.1,2.5,0.1,3.8,0.2c1.2,0.1,2.4,0.2,3.6,0.6
			c1.2,0.4,2.5,0.6,3.8,1c2.3,0.7,4.4,1.8,6.3,3.2c2.2,1.6,3.9,3.5,5.2,5.9c1.2,2.1,1.9,4.4,2.5,6.8c0.7,2.7,0.5,5.4,0.8,8.1
			c0.1,1.1,0,2.3-0.1,3.4c0,0.5-0.1,1-0.1,1.5c0.1,1.6-0.4,3.2-0.6,4.7c-0.3,2.8-1.5,5.3-2.8,7.8c-1,1.8-2.3,3.3-3.8,4.7
			c-2.3,1.9-4.8,3.3-7.7,4.1c-2,0.6-4.1,1-6.2,1.3c-3.5,0.5-7,0.2-10.5,0.3c-0.3,0-0.7-0.1-1-0.1c-0.7-0.1-1.3-0.2-2-0.3
			c-0.3,0-0.7-0.1-1-0.1c-0.2,0-0.4-0.2-0.6-0.2c-1.9-0.1-3.6-0.7-5.6-1.1c0,0.3-0.1,0.6-0.1,0.8c0,4.1,0,8.1,0,12.2
			c0,2.1,0,4.3,0,6.4C566.9,750,560.8,750,554.8,750z M573,705.6C573,705.6,573,705.6,573,705.6c0,4.5,0,9,0,13.5c0,1.6,0,3.1,0,4.7
			c0,0.5,0,1,0.6,1.1c1.7,0.4,3.3,0.9,5,1.2c1.4,0.2,2.8,0.2,4.2,0.1c1.6-0.1,3.2,0,4.7-0.4c2.9-0.6,5.7-1.5,7.8-3.8
			c0.8-0.9,1.5-1.9,2-2.9c0.6-1.3,1.2-2.7,1.3-4.3c0.1-1.5,0.5-3.1,0.5-4.6c0-3.8,0.3-7.5-0.2-11.3c-0.3-2-0.6-3.9-1.4-5.8
			c-1-2.6-2.8-4.5-5.2-5.8c-1.6-0.8-3.3-1.5-5.2-1.6c-0.3,0-0.5-0.1-0.8-0.2c-0.4-0.1-0.7-0.1-1.1-0.1c-1.2,0-2.3,0-3.5,0
			c-1.1,0-2.1-0.1-3.2,0c-1.5,0.1-3,0.4-4.4,0.6c-0.8,0.1-1.1,0.2-1.1,1.3C573,693.5,573,699.5,573,705.6z"/>
		<path class="st0" d="M303.4,750c0.6-1.9,1.2-3.8,1.9-5.7c1-2.7,2.1-5.3,3.1-8c0.4-1,0.7-2,1-2.9c0.4-1.2,0.9-2.4,1.4-3.6
			c1.5-4,3.1-8.1,4.6-12.1c1.2-3.3,2.4-6.7,3.7-10c1-2.6,2-5.2,3-7.8c1-2.6,1.9-5.1,2.8-7.7c0.3-0.9,0.7-1.8,1.1-2.7
			c1.1-3,2.2-5.9,3.3-8.9c0.7-1.9,0.4-1.5,2.2-1.5c5.1,0,10.3,0,15.4,0c0.8,0,1.6,0,2.4,0c0.8,0,1,0,1.3,0.8c0.7,1.8,1.4,3.5,2,5.3
			c0.8,2,1.5,4.1,2.2,6.1c1.4,3.7,2.7,7.3,4.1,10.9c1.1,2.9,2.2,5.8,3.3,8.7c0.9,2.5,1.8,5,2.7,7.4c0.2,0.6,0.5,1.2,0.7,1.8
			c1.1,2.7,2.1,5.4,3.2,8.2c1,2.6,1.9,5.3,2.8,7.9c0.6,1.5,1.2,3,1.7,4.5c0.8,2.1,1.6,4.3,2.4,6.5c0.3,0.7,0.5,1.4,0.8,2.1
			c0.1,0.3,0.1,0.6,0.2,1c-6.3,0-12.5,0-18.8,0c-0.1-0.4-0.1-0.8-0.3-1.2c-1.1-2.8-2.1-5.6-3.2-8.4c-0.7-1.9-1.4-3.7-2.1-5.6
			c-0.2-0.6-0.5-0.8-1.1-0.8c-0.1,0-0.3,0-0.4,0c-9.8,0-19.6,0-29.5,0c-0.2,0-0.5,0-0.7,0c-0.4,0-0.7,0.1-0.8,0.6
			c-0.6,1.5-1.1,3-1.7,4.6c-0.7,2-1.5,4-2.2,6c-0.6,1.6-1.1,3.2-1.6,4.8C310.6,750,307,750,303.4,750z M335.9,691.9
			c-0.2,0.3-0.3,0.4-0.3,0.5c-1.5,4-2.9,7.9-4.4,11.9c-1,2.6-2,5.3-3,7.9c-1.4,3.6-2.7,7.3-4.1,10.9c-0.2,0.5-0.4,1-0.5,1.5
			c-0.2,0.6-0.1,0.9,0.6,0.9c0.4,0,0.8,0,1.2,0c7.3,0,14.7,0,22,0c1.3,0,1.4-0.2,1-1.3c-0.4-1.2-0.8-2.3-1.3-3.5c-1-2.6-2-5.3-3-7.9
			c-0.9-2.4-1.8-4.7-2.7-7.1c-0.9-2.3-1.8-4.7-2.7-7c-0.8-2.1-1.6-4.1-2.3-6.2C336.3,692.4,336.1,692.2,335.9,691.9z"/>
		<path class="st0" d="M508,750c0-0.6-0.4-0.5-0.8-0.6c-1.1-0.1-2.3-0.1-3.4-0.4c-2.9-0.6-5.8-1.4-8.5-2.7c-3-1.5-5.5-3.4-7.6-5.9
			c-1.7-2.1-3.1-4.4-3.8-7c-0.4-1.5-0.8-3.1-1.1-4.6c-0.1-0.4-0.1-0.8-0.1-1.2c0-14.5,0-28.9,0-43.4c0-1.4,0-2.8,0-4.2
			c0-0.3,0-0.6,0.1-0.9c0.6,0,1.1-0.1,1.5-0.1c3.3,0,6.5,0,9.8,0c1,0,1.1,0,1.1,1c0,2.2,0,4.5,0,6.7c0,12.4,0,24.7,0,37.1
			c0,1.7,0,3.4,0.4,5.1c0.6,3.3,1.9,6.5,4.3,8.9c1.2,1.2,2.8,2.2,4.5,2.8c1,0.3,2,0.8,3,0.9c1.3,0.2,2.6,0.1,3.9,0.1
			c0.6,0,1.3,0,1.9-0.1c0.9-0.1,1.7-0.2,2.5-0.5c2.1-0.5,4-1.5,5.6-3c0.9-0.9,1.7-2.1,2.3-3.2c0.8-1.4,1.2-3,1.6-4.6
			c0.5-1.9,0.4-3.7,0.4-5.6c0-14.4,0-28.7,0-43.1c0-0.8,0-1.6,0-2.6c0.6,0,1.2-0.1,1.7-0.1c4.2,0,8.5,0,12.7,0c1.2,0,2.4,0,3.7,0
			c0,0.4,0.1,0.8,0.1,1.2c0,1.9,0,3.7,0,5.6c0,12.7,0,25.5,0,38.2c0,1.9-0.1,3.8-0.4,5.7c-0.9,5.7-3.6,10.3-8.3,13.8
			c-3.7,2.8-7.9,4.5-12.4,5.4c-1.4,0.3-2.7,0.5-4.1,0.7c-0.4,0.1-0.6,0.1-0.7,0.5C514.5,750,511.2,750,508,750z"/>
		<path class="st0" d="M255.2,750c0-0.4,0.1-0.9,0.1-1.3c0-22.6,0-45.2,0-67.9c0-0.6,0-1.1,0-1.8c0.5,0,0.8-0.1,1.2-0.1
			c12.4,0,24.8,0,37.2,0c2.2,0,4.5,0,6.8,0c0,0.3,0.1,0.6,0.1,0.8c0,2.3,0,4.6,0,6.9c0,0.8-0.1,0.9-0.9,0.9c-8.5,0-17.1,0-25.6,0
			c-0.9,0-1,0.1-1,1.1c0,5.1,0,10.3,0,15.4c0,1.8,0,3.5,0,5.3c0,0.9,0.1,1,1,1c0.6,0,1.2-0.1,1.8-0.1c5.9,0,11.7,0,17.6,0
			c2.1,0,4.1,0,6.2,0c0.8,0,0.9,0.1,0.9,0.8c0,2.3,0,4.7,0,7c0,0.8-0.1,0.9-1,0.9c-2.7,0-5.4,0-8.1,0c-5.8,0-11.7,0-17.5,0
			c-0.8,0-0.9,0.1-0.9,0.9c0,2.4,0,4.8,0,7.2c0,7.2,0,14.4,0,21.6c0,0.5,0,0.9,0,1.4C267.1,750,261.1,750,255.2,750z"/>
		<path class="st0" d="M443,750c-0.2-0.4-0.6-0.5-1-0.5c-3.8-0.3-7.4-1.4-10.9-3c-2.3-1.1-4.4-2.5-6.4-4.1c-1.3-1.1-2.6-2.2-3.7-3.5
			c-1.6-1.9-3.1-3.9-4.2-6.1c-1-1.9-1.9-3.8-2.5-5.9c-0.5-1.7-1.1-3.3-1.2-5.1c-0.1-1.4-0.4-2.7-0.5-4c-0.1-1.6,0-3.2-0.1-4.8
			c-0.1-1.5,0.1-3,0.3-4.5c0.4-3.2,1.3-6.2,2.6-9.2c1.2-2.9,2.8-5.7,4.8-8.1c2.7-3.2,5.8-5.9,9.6-7.9c2.4-1.3,4.9-2.2,7.5-2.9
			c2.3-0.6,4.6-1.1,7-1.1c0.5,0,1.1-0.2,1.6-0.2c1.3,0,2.7,0.1,4,0.1c0.3,0,0.6,0.1,0.9,0.1c2.2,0,4.3,0.4,6.4,1
			c2.4,0.7,4.9,1.4,7.2,2.5c1.6,0.8,3.1,1.6,4.7,2.4c0.7,0.3,1.4,0.6,2.1,0.8c1.3,0.4,1.3,0.5,1.3,1.8c-0.1,1.4,0,2.8,0,4.2
			c0,1,0,2,0,3c0,0.5-0.2,0.7-0.7,0.7c-1.2,0.1-2.2-0.7-2.4-1.9c-0.2-1.5-1.2-2.3-2.4-2.8c-1.6-0.7-3.3-1.3-5-1.8
			c-3.7-1.1-7.5-1.6-11.3-1.3c-3.9,0.3-7.6,1.4-10.9,3.5c-1.9,1.2-3.5,2.6-4.9,4.2c-1.4,1.5-2.4,3.3-3.3,5.1
			c-1.1,2.1-1.7,4.3-2.2,6.6c-0.6,2.6-0.7,5.2-0.7,7.9c0,0.4,0,0.9,0,1.3c-0.1,2.2,0.4,4.4,0.9,6.6c0.6,2.8,1.7,5.3,3.1,7.7
			c1.7,2.8,3.9,5.2,6.7,7c1.6,1,3.2,1.9,4.9,2.4c1.9,0.6,3.8,1.3,5.8,1.2c0.7,0,1.4,0.2,2.1,0.2c1.8,0.1,3.6-0.2,5.4-0.6
			c4.2-0.8,7.8-2.7,11.2-5.2c1-0.7,1.8-1.7,2.7-2.5c0.1-0.1,0.3-0.3,0.4-0.4c0.6,0.2,0.7,0.7,0.7,1.1c0,2.5,0,5,0,7.5
			c0,0.4-0.2,0.7-0.5,1c-3.2,2.1-6.7,3.8-10.4,5c-1.6,0.6-3.3,0.8-5,1.3c-1,0.3-2.1,0.3-3.2,0.4c-0.4,0-0.8,0-0.9,0.6
			C449.2,750,446.1,750,443,750z"/>
		<path class="st0" d="M214.8,750c-0.1-0.5-0.4-0.6-0.8-0.6c-4.4-0.2-8.5-1.7-12.3-3.7c-3.3-1.7-6.1-4-8.6-6.8
			c-2.2-2.5-4.1-5.3-5.4-8.4c-1-2.4-1.9-4.9-2.4-7.5c-0.3-1.7-0.5-3.5-0.7-5.2c-0.2-1.6-0.4-3.2-0.3-4.8c0.1-1.7,0.4-3.4,0.6-5
			c0.3-3.1,1.2-6.1,2.4-8.9c1.1-2.7,2.5-5.3,4.4-7.6c1.1-1.3,2.2-2.5,3.4-3.7c1.6-1.6,3.5-2.9,5.4-4.1c2.4-1.5,5.1-2.5,7.8-3.3
			c1.5-0.4,3.1-0.8,4.6-1c2.4-0.3,4.8-0.7,7.2-0.6c1.7,0.1,3.5,0.2,5.2,0.5c3.3,0.5,6.3,1.6,9.4,2.7c1.5,0.5,2.8,1.3,4.2,2
			c1.4,0.7,2.8,1.6,4.3,2c0.6,0.1,0.8,0.5,0.8,1.1c0,1.1,0,2.3,0,3.4c0,1.4,0,2.7,0,4.1c0,0.3,0,0.6-0.1,0.9c-0.5,0-1,0.1-1.4,0
			c-0.6-0.2-1.2-0.5-1.3-1.2c-0.1-0.4-0.2-0.8-0.3-1.2c-0.3-0.7-0.7-1.3-1.4-1.7c-2.3-1.3-4.7-2-7.2-2.6c-0.4-0.1-0.8-0.3-1.1-0.4
			c-3.1-0.7-6.2-0.8-9.3-0.6c-1.9,0.1-3.8,0.5-5.6,1.1c-2.1,0.7-4,1.6-5.8,2.9c-2.1,1.4-3.9,3.2-5.4,5.3c-1.1,1.6-2,3.2-2.7,5
			c-0.5,1.3-0.9,2.7-1.3,4.1c-1.1,3.7-1.2,7.5-1,11.3c0.1,1.9,0.4,3.7,0.9,5.6c0.7,2.3,1.4,4.6,2.6,6.8c1.6,2.9,3.6,5.3,6.3,7.3
			c2.3,1.7,4.8,2.9,7.6,3.6c2,0.5,4.1,0.7,6.2,1c0.8,0.1,1.7,0,2.6-0.1c1.1-0.1,2.1-0.2,3.1-0.5c3.6-0.8,6.9-2.3,9.8-4.5
			c0.8-0.6,1.6-1.2,2.4-1.8c0.5-0.4,0.9-0.9,1.3-1.4c0.4-0.5,0.8-0.4,1,0.2c0.1,0.2,0.1,0.5,0.1,0.7c0,2.3,0,4.5,0,6.8
			c0,0.9-0.4,1.5-1.1,1.9c-3.3,2-6.8,3.7-10.5,4.8c-1.7,0.5-3.4,0.8-5.1,1.1c-0.8,0.2-1.6,0.2-2.5,0.3c-0.3,0-0.6,0.2-0.6,0.5
			C221.3,750,218.1,750,214.8,750z"/>
		<path class="st0" d="M371.4,598.9c1.2,0.3,2.3,0.5,3.3,0.7c1.1,0.2,2.2,0.4,3.3,0.6c0.5,0.1,1,0.2,1.6,0.2
			c0.8,0.1,1.5,0.1,2.4,0.2c0.2,0.8,0.2,1.7,0,2.7c-0.1,0.6-0.2,1.1-0.2,1.7c-0.1,0.4-0.1,0.7-0.2,1.1c-0.1,0.5-0.2,1-0.2,1.6
			c-0.2,1-0.3,2-0.5,3c-0.2,0.9-0.4,1.7-0.5,2.6c0,0.4,0.1,0.9,0.3,1.3c1.4,2.7,3.2,5.1,5.5,7.2c1.7,1.5,3.6,2.5,5.7,3.3
			c0.8,0.3,1.1,0.2,1.1-0.7c0-1.5,0-3.1,0-4.6c0-1.2-0.1-2.5-0.1-3.7c0-5.4,0-10.8,0-16.2c0-1.1,0.1-2.2,0.1-3.3
			c0-1-0.1-1.1-1.1-1.1c-4,0-7.9,0-11.9,0c-2,0-3.9,0.2-5.9,0.3c-1.6,0.1-3.2,0.1-4.8,0.1c-0.6,0-0.7-0.1-0.8-0.8c0-0.4,0-0.8,0-1.2
			c0-7.8,0-15.6,0-23.4c0-1.2,0-2.5,0-3.7c0-0.3,0.1-0.5,0.1-0.8c0.3,0,0.6,0,0.8,0c1.5,0.1,2.9,0.2,4.4,0.2c15.6,0,31.2,0,46.8,0
			c0.8,0,1.6-0.1,2.4-0.2c0.8-0.1,0.9,0,0.9,0.7c0,9.5,0,18.9,0,28.4c0,0.7-0.1,0.8-0.8,0.8c-2.4-0.1-4.8-0.2-7.2-0.3
			c-0.3,0-0.7,0-1,0c-3.9,0-7.9,0-11.8,0c-0.7,0-0.8,0.1-0.8,0.8c0,2.6,0,5.2,0,7.8c0,1.4,0,1.4,1.4,1.4c5.8,0,11.5,0,17.3,0
			c1,0,2,0,3.2,0c0,2.9,0.1,5.9-0.1,8.9c-0.3,0-0.6,0.1-0.8,0.1c-2.9-0.1-5.7-0.2-8.6-0.2c-3.8,0-7.6,0-11.4,0c-1,0-1.1,0.1-1.1,1
			c0,3.8,0,7.6,0,11.4c0,0.2,0,0.3,0,0.5c0.1,0.7,0.3,1,0.9,0.9c1.6-0.2,3.2,0.5,4.8,0.3c0.2,0,0.3,0,0.5,0.1
			c1.2,0.5,2.5,0.3,3.8,0.4c2.2,0.1,4.3,0.2,6.5,0.2c2.7,0,5.4-0.1,8.1-0.2c0.4,0,0.7-0.1,1.1-0.2c0.3-0.1,0.6-0.1,1-0.2
			c0.9-0.1,1.8-0.3,2.8-0.4c1.3-0.3,2.6-0.6,4-0.9c0.1,0.2,0.2,0.4,0.2,0.6c-0.3,1.2-0.6,2.4-1,3.5c-0.1,0.2-0.1,0.4-0.2,0.6
			c-0.3,1.9-0.7,3.8-1,5.7c-0.1,0.4-0.3,0.7-0.7,0.7c-0.3,0-0.7,0-1,0c-3.4,0.3-6.7,0.3-10.1,0.3c-2.4,0-4.9,0-7.3,0
			c-1.2,0-2.4-0.2-3.6-0.3c-0.5,0-1.1,0-1.6-0.1c-1-0.1-1.9-0.2-2.9-0.3c-0.2,0-0.4-0.1-0.6-0.1c-1.5-0.1-3.1-0.2-4.6-0.3
			c-0.5,0-1-0.2-1.5-0.3c-0.2,0-0.4-0.1-0.6-0.2c-1.5-0.1-2.9-0.5-4.4-0.7c-1.8-0.3-3.5-0.7-5.2-1.4c-2.1-0.9-4.2-1.8-6.1-3.1
			c-1.5-1-2.9-2.2-4.2-3.6c-0.8-0.8-1.6-1.6-2.1-2.7c-0.1-0.2-0.2-0.4-0.4-0.7c-0.3,0.4-0.5,0.6-0.6,0.8c-0.7,1.3-1.3,2.6-2.1,3.9
			c-0.7,1.2-1.7,2.2-2.5,3.4c-1.6,2.4-3.9,4.1-5.8,6.2c-0.3,0.3-0.6,0.5-0.9,0.8c-2.4-2.7-4.8-5.3-7.2-8c0.1-0.1,0.1-0.3,0.2-0.3
			c1.1-0.8,2.2-1.5,3.3-2.3c2.2-1.6,4.2-3.3,5.6-5.7c0.4-0.8,0.7-1.6,1.1-2.5c1.1-2.7,1.9-5.5,2.4-8.4c0.2-1.1,0.5-2.3,0.7-3.4
			c0.1-0.6,0-1.1,0.1-1.7c0.4-1.6,0.2-3.2,0.2-4.9c0-0.9-0.2-1.8-0.2-2.7C371.4,599.7,371.4,599.4,371.4,598.9z M396.4,586.8
			c5.7,0,11.5,0,17.2,0c0.8,0,1-0.2,1-1c0-3.1,0-6.2,0-9.3c0-1.5,0-1.5-1.6-1.5c-10.1,0-20.3,0-30.4,0c-1.2,0-2.3,0-3.5,0
			c-0.9,0-1,0.1-1,1c0,3.2,0,6.5,0,9.7c0,0.9,0.1,1.1,1,1.1c0.3,0,0.5,0,0.8,0C385.4,586.8,390.9,586.8,396.4,586.8z"/>
		<path class="st0" d="M195,615.5c-0.4,0-0.7,0.1-1.1,0.1c-2.8,0-5.6,0-8.4,0c-0.2,0-0.4,0-0.6,0c-0.4,0-0.5-0.2-0.5-0.6
			c0-0.6,0.1-1.2,0.1-1.8c0.1-1.4,0.2-2.8,0.2-4.2c0-7.6,0-15.1,0-22.7c0-1.9-0.2-3.8-0.3-5.7c-0.1-1,0-1.1,1-1.1c0.9,0,1.9,0,2.8,0
			c0.4,0,0.9,0,1.3,0.1c1.2,0.1,2.4,0.3,3.6,0.3c6,0,11.9,0,17.9,0c0.3,0,0.6,0,0.9,0c0.8,0,1-0.2,1-1c0-1.6,0-3.1,0-4.7
			c0-2.9-0.1-5.9-0.1-8.8c0-0.5,0.2-0.7,0.6-0.7c0.8,0,1.5,0,2.3,0c2.5,0,4.9,0,7.4,0c1,0,1,0.1,1,1c-0.1,4.1-0.2,8.3-0.2,12.4
			c0,1.7-0.3,1.8,1.8,1.8c6.5,0,13.1,0,19.6,0c0.7,0,1.4-0.2,2.1-0.2c1.7-0.1,3.4-0.1,5.1-0.2c0.5,0,0.7,0.3,0.6,0.7
			c0,0.7,0,1.5-0.1,2.2c0,0.9-0.2,1.7-0.2,2.6c0,8.1,0,16.2,0,24.3c0,1.5,0.2,3.1,0.3,4.6c0,0.3,0,0.5,0,0.8c0,0.8-0.2,0.9-0.9,0.9
			c-0.9,0-1.8,0-2.7,0c-2.1,0-4.3,0-6.4,0c-0.9,0-0.9,0-1.1-0.9c-0.1-0.4-0.3-0.6-0.7-0.6c-0.3,0-0.5,0-0.8,0c-4.4,0-8.7,0-13.1,0.1
			c-0.9,0-1.8,0-2.7,0c-0.7,0-0.8,0.1-0.8,0.7c0,5.4,0,10.9,0,16.3c0,2.7,0.1,5.4,0.2,8.1c0,0.8-0.1,0.9-0.9,0.9c-3.2,0-6.3,0-9.5,0
			c-0.9,0-1-0.1-1-1.1c0.1-6.3,0.1-12.6,0.2-18.9c0-1.7,0-3.5,0-5.2c0-0.8-0.2-1-1-1c-5.2,0-10.3,0-15.5,0c-0.1,0-0.3,0-0.4,0
			c-0.8,0-0.7,0-0.8,0.8C195.1,615,195,615.2,195,615.5z M232.9,589.4C232.9,589.4,232.9,589.4,232.9,589.4c-2.6,0-5.3,0-7.9,0
			c-1.1,0-1.2,0.1-1.2,1.2c0,0.5,0,0.9,0,1.4c0,3.8,0,7.5,0,11.3c0,0.5,0.2,0.7,0.7,0.7c0.9,0,1.9,0,2.8,0c4.6,0,9.1,0,13.7,0
			c0.8,0,0.9-0.1,0.9-0.9c0-2.3,0-4.6,0-6.9c0-2,0-4.1,0-6.1c0-0.6-0.1-0.7-0.7-0.7c-0.2,0-0.4,0-0.6,0
			C238,589.4,235.4,589.4,232.9,589.4z M203.8,589.4C203.8,589.4,203.8,589.4,203.8,589.4c-1.5,0-3,0-4.5,0c-1.1,0-2.3,0-3.4,0
			c-0.7,0-0.8,0.1-0.8,0.8c0,0.1,0,0.3,0,0.4c0,4,0,8,0,12c0,1.5,0,1.5,1.5,1.5c3.9,0,7.9,0,11.8,0c1.1,0,2.3,0,3.4,0
			c0.9,0,1-0.1,1-1c0-0.5,0-1,0-1.5c0-3.7,0-7.5,0-11.2c0-0.8-0.2-0.9-0.9-0.9C209.2,589.4,206.5,589.4,203.8,589.4z"/>
		<path class="st0" d="M332.3,639.4c-0.1-0.2-0.1-0.3-0.1-0.4c-0.1-1.3-0.1-1.2-1.4-1.2c-13.8,0-27.6,0-41.4,0c-1.8,0-3.5,0-5.3,0
			c-0.3,0-0.7,0-0.8,0.4c-0.1,0.6-0.6,0.6-1.1,0.6c-2.3,0-4.5,0-6.8,0c-0.4,0-0.8,0-1.2,0c-0.6,0-0.7-0.2-0.6-0.8
			c0.7-10.5,0.2-20.9,0.3-31.4c0.1-10.7,0-21.5,0-32.2c0-1.7-0.2-3.4-0.3-5.1c0-0.2-0.1-0.5-0.1-0.7c0-0.7,0.1-0.9,0.9-0.8
			c0,0,0.1,0,0.1,0c2.1,0,4.3,0.1,6.4,0.1c19.3,0,38.7,0,58,0c0.7,0,1.3-0.1,2-0.2c0.9-0.1,1,0.1,1,0.9c0,1.4-0.1,2.7-0.2,4.1
			c-0.1,1.8-0.1,3.5-0.1,5.3c0,17.8,0,35.7,0,53.5c0,2.3,0.2,4.6,0.2,6.9c0,1,0,1.1-1,1.1c-2.5,0-5.1,0-7.6,0
			C333,639.4,332.7,639.4,332.3,639.4z M332.2,603C332.2,603,332.2,603,332.2,603c0-8.5,0-17,0-25.5c0-0.9-0.1-1-1-1
			c-1,0-1.9,0-2.9,0c-14.7,0-29.4,0-44.1,0c-0.2,0-0.3,0-0.5,0c-0.3,0-0.5,0.2-0.5,0.6c0,1.8,0,3.5,0,5.3c0,3.8,0.1,7.5,0.1,11.3
			c0,8.8,0,17.5,0,26.3c0,2.8,0,5.6,0,8.4c0,0.9,0.1,1,1,1c3.8,0,7.5,0,11.3,0c11.8,0,23.7,0,35.5,0c1.1,0,1.1,0,1.2-1.1
			c0-0.2,0-0.4,0-0.6C332.2,619.5,332.2,611.3,332.2,603z"/>
		<path class="st0" d="M514.9,622.6c-0.3-1.1-0.6-2.1-0.6-3.2c0.1-0.8,0.1-1.7-0.3-2.5c-0.1-0.3,0-0.6-0.1-0.9c0-0.3,0-0.5,0-0.8
			c-0.2-0.9-0.5-1.8-0.6-2.7c-0.1-1.6-0.7-3.1-1.1-4.6c-0.4-1.6-0.8-3.3-1.3-4.9c0-0.2-0.1-0.3-0.1-0.5c-0.4,0-0.4,0.3-0.4,0.6
			c0,1.4,0.1,2.9,0,4.3c0,1-0.1,2.1-0.2,3.1c0,0.5-0.1,0.9-0.1,1.4c0,1.3,0,2.7,0,4c0,0.3,0,0.6,0,0.9c-0.5,1.7-0.3,3.4-0.4,5.1
			c0,0.7-0.2,1.4-0.2,2.1c-0.1,0.5-0.1,1-0.2,1.5c-0.2,1.7-0.3,3.4-0.9,5c-0.5,1.4-1.2,2.7-2.1,3.8c-0.7,0.8-1.3,1.6-2,2.4
			c-1.2,1.2-2.6,2-4.2,2.4c-1.7,0.5-3.4,0.8-5.2,1.1c-0.7,0.1-1.4,0-2.2,0c-0.5-1.7-1-3.5-1.7-5.1c-0.7-1.6-1.6-3.2-2.4-4.9
			c0.9,0,1.9-0.1,2.8-0.1c1.3,0,2.7,0.1,4-0.3c0.4-0.1,0.8-0.3,1.2-0.5c1.4-1,2.2-2.4,2.6-4c0.3-0.9,0.4-1.9,0.4-2.8
			c0.1-2.1,0.4-4.1,0.5-6.1c0-0.2,0.1-0.5,0.1-0.7c0.1-3.4,0.2-6.8,0.3-10.2c0-1.1,0.1-2.3,0.2-3.4c0-0.8,0.1-1.6,0.2-2.4
			c0-2.9,0-5.9,0-8.8c0-0.3,0-0.6-0.1-0.8c-0.1-0.2-0.3-0.5-0.5-0.5c-2.2,0-4.3,0-6.5,0c-0.1,0-0.2,0.1-0.3,0.1
			c-0.3,1.2-0.5,2.4-0.5,3.7c0,0.9-0.1,1.8-0.2,2.7c0,0.2-0.1,0.4-0.1,0.6c-0.1,1.7-0.2,3.3-0.3,5c0,0.7-0.2,1.3-0.2,2
			c0,0.2-0.1,0.3-0.1,0.5c0.1,1.3-0.2,2.6-0.4,4c-0.2,1.7-0.6,3.3-0.9,5c-0.3,1.7-0.7,3.3-1.1,5c-0.1,0.5-0.4,0.9-0.5,1.4
			c-0.9,2.9-2.1,5.6-3.7,8.2c-0.9,1.5-2,2.9-3.3,4.1c-1.3,1.2-2.6,2.4-4,3.5c-1.5,1.1-3.2,2.1-4.8,3.1c-0.6,0.4-1.1,0.7-1.7,1
			c-0.8,0.4-0.9,0.4-1.4-0.4c-0.8-1.2-1.5-2.4-2.4-3.5c-1-1.1-2.1-2.1-3.2-3.2c-0.2-0.2-0.3-0.3-0.5-0.5c1.2-0.6,2.4-1.1,3.6-1.6
			c1.4-0.5,2.6-1.3,3.8-2.2c2.2-1.6,4.1-3.5,5.7-5.7c1.4-2,2.5-4.1,3-6.5c0.3-1.4,0.7-2.7,1-4.1c0.2-0.8,0.3-1.6,0.3-2.4
			c0-1.4,0.6-2.7,0.4-4.2c0-0.2,0.1-0.5,0.1-0.7c0.1-0.3,0.2-0.6,0.2-0.9c0.1-1.6,0.2-3.2,0.4-4.8c0.1-0.8,0.2-1.6,0.3-2.4
			c0.1-1.3,0.1-2.6,0.1-3.9c0-0.7,0-1.5,0.1-2.2c0-0.6-0.2-0.9-0.8-0.8c-1.6,0.1-3.3,0.2-4.9,0.2c-1.9,0.1-3.7,0.1-5.6,0.1
			c-0.7,0-0.9-0.2-0.9-1c0-1.8,0.1-3.5,0.1-5.3c0-0.8-0.1-1.5-0.1-2.3c0-0.8,0.2-0.9,1-0.9c3.6,0,7.1,0.1,10.7,0.1
			c1,0,1.2-0.1,1.2-1.1c0-4.6,0-9.1,0-13.7c0-0.4,0-0.7,0.1-1.1c1.1,0.1,2.1,0.1,3.1,0.2c1,0.1,2,0.1,3,0.2c1.4,0.1,2.7,0.2,4.1,0.3
			c0.6,0,0.6,0.4,0.6,0.8c-0.1,1.9-0.3,3.8-0.4,5.7c0,0.6,0,1.1,0,1.7c-0.1,2-0.2,3.9-0.4,5.9c0,0.2,0,0.4,0,0.6
			c0,0.3,0.2,0.6,0.6,0.6c0.4,0,0.7,0,1.1,0c3.6,0,7.2,0,10.8,0c1.2,0,2.4-0.2,3.7-0.3c0.9-0.1,1,0,1,0.9c0.1,1.5,0.2,3-0.2,4.5
			c-0.1,0.4-0.1,0.8-0.1,1.2c0,1.9,0,3.7,0,5.6c0,0.4-0.1,0.9-0.1,1.3c-0.1,1.4-0.2,2.7-0.2,4.1c0,0.6,0.2,0.8,0.8,0.6
			c1.9-0.6,3.8-1.2,5.5-2.3c1.4-1,1.6-0.9,2.1,0.7c0.7,2,1.3,4.1,2.1,6.1c0.9,2.4,1.4,4.9,2,7.3c0.4,1.6,0.6,3.2,0.9,4.8
			c0.2,1.3,0.4,2.5,0.7,3.8c0.1,0.4,0,0.6-0.4,0.7c-3,0.8-5.8,2-8.6,3.1C515.2,622.5,515.1,622.5,514.9,622.6z"/>
		<path class="st0" d="M611.1,578.6c-0.6,0-1.2,0-1.7,0c-3.7,0-7.5,0-11.2,0c-1,0-1.1,0.1-1.5,1c-0.8,1.9-1.6,3.9-2.4,5.8
			c-0.9,2.2-1.8,4.3-2.8,6.5c-0.1,0.2-0.2,0.5-0.3,0.7c-0.5,1-0.5,1,0.6,1.4c0,0.2,0.1,0.4,0.1,0.6c0,1.7-0.1,3.3-0.1,5
			c0,1.7-0.1,3.4-0.1,5.1c0,8.7,0,17.3,0,26c0,1.9,0.2,3.7,0.2,5.6c0,1,0,1.9-0.1,2.9c0,0.7-0.1,0.9-0.9,0.9c-1,0-2.1,0-3.1,0
			c-1.7,0-3.5,0-5.2,0c-0.9,0-1-0.1-1-1.1c0-0.9,0.1-1.9,0.1-2.8c0-7.7,0.1-15.5,0.1-23.2c0-0.9,0-1.8,0-2.7c0-0.2-0.1-0.5-0.2-1
			c-0.5,0.7-0.9,1.1-1.3,1.6c-1.7,2.3-3.4,4.7-5.2,6.9c-1.8,2.1-3.6,4.1-5.7,5.8c-1.4,1.1-2.7,2.3-4.2,3.4c-0.1,0.1-0.2,0.1-0.4,0.2
			c-0.2-0.3-0.3-0.5-0.4-0.8c-1-2.5-2.5-4.9-4.1-7.1c-0.2-0.3-0.5-0.5-0.7-0.8c-0.2-0.3-0.4-0.7-0.6-1c1.3-0.6,2.5-1.1,3.7-1.8
			c2.3-1.3,4.3-2.9,5.9-5c0.1-0.1,0.2-0.3,0.3-0.4c2.1-2.1,3.8-4.6,5.5-7c1.7-2.4,3.2-4.9,4.6-7.5c1.9-3.4,3.5-7,4.9-10.7
			c0.7-1.9,1.4-3.8,2.1-5.7c0.3-0.9,0.2-1.1-0.7-1.1c-6,0-12.1,0-18.1,0c-0.2,0-0.4,0-0.6,0c-0.5,0-0.7-0.2-0.7-0.7
			c0-0.7,0-1.4,0-2.1c0-1.9,0-3.7,0-5.6c0-0.9,0.2-1,1-1c1.5,0,2.9,0,4.4,0c10.3,0.4,20.5,0.1,30.8,0.2c1.1,0,2.2-0.1,3.3-0.2
			c1.8,0,3.6,0,5.4-0.1c0.5,0,0.8,0.2,0.8,0.7c0,2.8,0,5.5,0,8.3C611.3,578.3,611.2,578.4,611.1,578.6z"/>
		<path class="st0" d="M536.9,589.1c0-0.3-0.1-0.5-0.1-0.8c0-2.4,0-4.8,0-7.2c0-0.2,0-0.3,0-0.5c0-0.4,0.3-0.6,0.7-0.5
			c3.1,0,6.1,0.1,9.2,0.1c1.4,0,1.5,0,1.5-1.4c0-3.3,0-6.7,0-10c0-1.4-0.1-2.9-0.2-4.3c0-0.6,0-0.8,0.6-0.8c3,0,6.1,0,9.1,0
			c0.1,0,0.2,0.1,0.3,0.1c0,0.4,0,0.9,0,1.4c0,4.6,0,9.2,0,13.8c0,0.1,0,0.3,0,0.4c0.1,0.7,0.2,0.8,0.9,0.8c1.4,0,2.8,0,4.2,0
			c1.4,0,2.8-0.1,4.2-0.2c0.5,0,0.6,0.3,0.6,0.7c0,0.8,0,1.7,0,2.5c0,1.6,0,3.1,0,4.7c0,0.3,0,0.5,0,0.8c0,0.4-0.3,0.6-0.7,0.6
			c-2,0-4,0-6-0.1c-0.8,0-1.6,0-2.4-0.1c-0.5,0-0.7,0.2-0.8,0.7c0,1.2,0,2.3,0,3.5c0,0.6-0.1,1.3-0.1,1.9c0,0.3,0,0.6,0.1,1
			c0.7,0,1.1-0.3,1.5-0.6c0.9-0.7,1.8-1.4,2.7-2.2c0.5-0.4,0.8-0.4,1.1,0.2c0.8,1.3,1.7,2.6,2.5,3.9c1.4,2.2,2.8,4.4,4.3,6.6
			c0.1,0.1,0.2,0.3,0.3,0.4c0.5,0.8,0.5,0.9-0.1,1.5c-1.5,1.6-3.1,3.1-4.7,4.7c-0.5,0.5-0.9,1-1.4,1.6c-0.1,0.2-0.3,0.3-0.6,0.5
			c-1.5-3.6-2.8-7.3-5.3-10.3c-0.3,0.1-0.3,0.4-0.3,0.7c0,4.3,0,8.5,0,12.8c0,7.2,0,14.3,0,21.5c0,0.6,0.1,1.2,0.1,1.8
			c0,0.7-0.1,0.9-0.8,0.9c-2.8,0-5.7,0-8.5,0c-0.7,0-0.9-0.2-0.8-0.8c0.6-5.6,0.2-11.3,0.3-16.9c0.1-2.7,0-5.4,0-8.1
			c0-0.3-0.1-0.6-0.1-1.2c-1.6,2.1-3,4-4.5,5.8c-1.5,1.8-3.1,3.6-4.8,5.6c-0.2-0.5-0.3-0.8-0.3-1.1c-0.3-1.9-0.8-3.8-1.4-5.7
			c-0.5-1.6-0.9-3.3-1.4-5c-0.1-0.5,0-0.8,0.4-1.1c2.2-1.5,3.9-3.4,5.3-5.6c1.4-2.2,2.6-4.6,3.6-7c1-2.3,2-4.7,2.5-7.3
			c0.1-0.5,0.2-1.1,0.3-1.6c0.1-0.7-0.1-1-0.9-1c-1.5,0-3,0-4.5,0C540.5,589.1,538.8,589.1,536.9,589.1z"/>
		<path class="st0" d="M447.4,583.2c1,0.1,1.8,0.2,2.6,0.3c0.9,0.1,1.8,0.1,2.7,0.1c0.7,0,0.8-0.1,0.8-0.8c0-3.4,0-6.9,0-10.3
			c0-2.3-0.2-4.5-0.3-6.8c0-0.3,0-0.6,0-1c0.4-0.1,0.8-0.1,1.1-0.1c2.6,0,5.1,0,7.7,0c0.2,0,0.3,0,0.5,0c0.6,0.1,0.8,0.2,0.8,0.8
			c0,1.3,0.1,2.7,0,4c-0.5,4.1-0.3,8.3-0.3,12.4c0,0.4,0,0.7,0,1.1c0,0.6,0.1,0.8,0.8,0.8c1.4-0.1,2.8-0.2,4.2-0.3
			c0.5,0,1-0.1,1.6-0.1c0.1,0.4,0.1,0.8,0.1,1.1c0,2.1,0,4.2-0.1,6.3c0,0.5,0,0.9,0.1,1.4c0.1,0.8-0.1,1-0.9,1c-1.5,0-3.1,0-4.6,0
			c-0.2,0-0.3,0-0.5,0c-0.7,0.1-0.7,0.1-0.8,0.8c0,0.8,0,1.5,0,2.3c0,10.8,0,21.6,0,32.4c0,1.1,0.2,2.2,0.2,3.3
			c0.1,2.4,0.1,4.8,0.2,7.2c0,0.7-0.1,0.8-0.8,0.9c-1,0-1.9,0-2.9,0c-1.8,0-3.6,0-5.4,0c-0.9,0-1-0.1-1-1c0-1.1,0-2.2,0-3.3
			c0-1.4,0.1-2.9,0.2-4.3c0.1-1.7,0.1-3.5,0.1-5.2c0-9.2,0-18.5,0-27.7c0-1.5,0-3,0-4.5c0-0.7-0.1-0.8-0.8-0.8c-1.4,0-2.7,0-4.1,0
			c-1.1,0-1.2-0.1-1.2-1.2c0-2.4,0-4.7-0.1-7.1C447.4,584.3,447.4,583.9,447.4,583.2z"/>
		<path class="st0" d="M592.5,599c2.8-1.6,5.9-2.6,8.3-4.9c0.2,0.3,0.4,0.4,0.6,0.7c0.7,1.2,1.4,2.5,2.1,3.7
			c0.9,1.6,1.8,3.2,2.7,4.9c1.4,2.6,2.8,5.2,4.1,7.8c1.3,2.5,2.5,5.1,3.8,7.6c0.9,1.8,0.8,1.9-0.6,2.9c-2.1,1.5-4.2,3-6.3,4.5
			c-0.3,0.2-0.5,0.4-0.8,0.7c-0.3-1-0.6-1.9-0.9-2.7c-0.8-2.1-1.5-4.3-2.4-6.3c-1-2.3-2.3-4.4-3.5-6.6c-1.6-3-3.3-5.9-5-8.9
			c-0.5-0.9-1.1-1.7-1.7-2.6C592.7,599.6,592.6,599.4,592.5,599z"/>
		<path class="st0" d="M472.4,620.3c-2.7-1.8-5.2-3.6-7.9-5.5c0.1-0.2,0.3-0.5,0.4-0.8c1.8-2.6,3.1-5.4,4-8.4
			c0.4-1.3,0.6-2.6,0.8-3.9c0.2-1.2,0.5-2.3,0.7-3.5c0.1-0.5,0-1,0-1.5c0-0.8,0.2-0.9,1-0.6c2.4,0.8,4.7,1.7,7.2,2
			c0.2,0,0.4,0.1,0.6,0.1c0.6,0.2,0.7,0.4,0.5,1c-0.4,1.9-0.7,3.9-1.2,5.8c-0.5,2-1,4-1.6,5.9c-1,3.1-2.2,6.1-4.1,8.8
			C472.6,620,472.5,620.1,472.4,620.3z"/>
		<path class="st0" d="M328.3,612.3c-1.2,1.3-2.3,2.5-3.5,3.8c0.2,0.1,0.4,0.3,0.6,0.3c1.5,0,2.9-0.1,4.4-0.2c0.8,0,1,0,1,0.8
			c0,1.1,0,2.3,0,3.4c0,1.1,0,2.3,0,3.4c0,0.7-0.2,0.8-0.9,0.7c-1.6-0.1-3.3-0.2-4.9-0.2c-11.9,0-23.9,0-35.8,0
			c-1.4,0-2.8,0.1-4.3,0.2c-0.3-0.7-0.3-7.4,0-8.4c0.4,0,0.9,0.1,1.4,0.1c3.2,0.1,6.4,0.1,9.6,0.1c2.1,0,4.2,0,6.3,0
			c0.8,0,0.9-0.1,0.9-0.9c0-2.9,0-5.9,0-8.8c0-1-0.1-1.1-1.1-1c-3.7,0-7.4,0.1-11.1,0.1c-0.9,0-1.8,0-2.6,0c-0.3-0.8-0.3-7.4,0-8.5
			c4.9,0.3,9.8,0.2,14.8,0.2c0-0.5,0.1-0.9,0.1-1.2c0-2,0-4,0-6c0-0.6-0.1-0.7-0.9-0.7c-3.7,0-7.3,0-11,0c-1.5,0-3.1,0-4.6,0
			c-0.2,0-0.4-0.1-0.6-0.1c0-0.2-0.1-0.4-0.1-0.6c0-1.5,0-3,0-4.5c0-0.8,0-1.5,0-2.3c0-0.9,0.1-0.9,0.9-0.9c1.7,0.1,3.4,0.1,5.1,0.1
			c11.1,0,22.2,0,33.3,0c1.1,0,2.3-0.1,3.4-0.1c0.5,0,0.9,0,1.5,0c0,0.4,0.1,0.7,0.1,1c0,2.2,0,4.4,0,6.6c0,0.2,0,0.3,0,0.5
			c0,0.5-0.2,0.7-0.7,0.7c-0.1,0-0.3,0-0.4,0c-1.5-0.6-3.1-0.4-4.7-0.4c-3.6,0-7.2,0-10.8,0c-1.1,0-1.1,0.1-1.1,1.1c0,2,0,4,0,6
			c0,0.7,0.1,0.8,0.8,0.8c4.2,0,8.4,0,12.6-0.1c0.3,0,0.7-0.1,1-0.1c0.6-0.1,0.8,0,0.9,0.7c0,0.2,0,0.3,0,0.5c0,2.3-0.1,4.6-0.1,6.9
			c0,0.1,0,0.2-0.1,0.4c-1.8,0-3.6,0-5.4,0c0,0.1-0.1,0.2-0.1,0.2C324.1,608.1,326.1,610.1,328.3,612.3z M313.8,609.3
			c0.4-0.3,0.5-0.5,0.7-0.6c1-0.8,1.9-1.5,2.9-2.3c0.1-0.1,0.2-0.4,0.4-0.6c-0.3,0-0.4-0.1-0.6-0.1c-1.3,0-2.5,0-3.8,0
			c-0.8,0-0.9,0.1-0.9,0.9c0,1.7,0,3.3-0.1,5c0,1.3,0,2.7,0,4c0,0.7,0.2,0.9,0.9,0.9c0.6,0,1.2,0,1.8,0c1.5,0,2.9,0,4.4,0
			c0.2,0,0.5-0.2,0.7-0.3c0.1-0.1-0.1-0.4-0.2-0.6c-1.5-1.8-3.1-3.6-5-5.1C314.6,610,314.3,609.7,313.8,609.3z"/>
	</g>
</g>
</svg>
