<?xml version="1.0" encoding="utf-8"?>
<!-- Generator: Adobe Illustrator 23.0.3, SVG Export Plug-In . SVG Version: 6.00 Build 0)  -->
<svg version="1.1" id="图层_1" xmlns="http://www.w3.org/2000/svg" xmlns:xlink="http://www.w3.org/1999/xlink" x="0px" y="0px"
	 viewBox="0 0 800 800" style="enable-background:new 0 0 800 800;" xml:space="preserve">
<style type="text/css">
	.st0{fill:#008CD8;}
	.st1{fill:#F39200;}
	.st2{fill:#00A040;}
</style>
<g>
	<path class="st0" d="M82.4,460.3l62-42.3c0,0-7.9-20.7-3.9-34.5c3.9-13.8,16.7-52.2,20.7-61c3.9-8.9,5.9-17.7-16.7-5.9
		s-22.6,12.8-29.5,12.8c-6.9,0-11.8-7.9-14.8-18.7c-3-10.8-7.9-3-9.8,4.9c-2,7.9-4.2,22.9-4.8,28.8c-0.7,5.9-7.1,24.9-18.3,35.4
		c-11.3,10.5-11.8,16.7-10.3,20.8s16.4,13.7,19.5,23.6C79.3,434,80.8,436.1,82.4,460.3z"/>
	<path class="st0" d="M300.1,342.7c0,0,75.1-23.6,145.8-31c0,0,0.2-17.2,4.8-25.5s14-15.9,27.9-26c14-10,18.5-19.6,5-26
		c-13.5-6.3-23.8-7.9-38.6-12c-14.8-4.1-36.2-15.5-50.2-38.4c-14-22.9-17.5-28.4-24.9-28.4c-7.4,0-11.1,7.2-14.2,13.7
		s-15.7,29-29.9,33.2c-14.2,4.1-19.9,5.7-36.7,8.5c-16.8,2.8-29.7,5.2-30.3,11.3c-0.7,6.1,7.4,12.2,13.3,16.8
		c5.9,4.6,27.1,19.9,32.3,38.8C309.7,296.9,303.1,331.8,300.1,342.7z"/>
	<path class="st0" d="M654,239.6c5.4,5.9,15.2,17,17.7,19.1s4.1,0,3.1-6.4s-4.1-22.1-6.5-30.6c-2.5-8.5-6.4-22.4,2.3-25.4
		c8.7-2.9,10.2-5.2,4.5-13.7c-5.7-8.5-20.7-23.9-42.5-43.7c-21.8-19.8-50.6-42.2-59.6-47c-9-4.7-8.5-1-7.2,3.9
		c1.3,4.9-1.3,10.5-11,10.5c-9.7,0-41.2-4.9-48.3-5.2c-7-0.3-5.7,3.9,0,7.4c5.7,3.4,29.8,16.2,44,34.2c14.2,18,11.6,40.8,11,49.9
		s3.9,20,19.3,18c15.4-2,33.9-7.2,48.1,4.9C643.2,227.6,654,239.6,654,239.6z"/>
	<path class="st0" d="M389.5,105.3c18.8,0,43.6,7,59.1,11.8c15.5,4.8,16.1,0,9.2-10c-7-10-15.7-19.6-15.3-27.7
		c0.4-8.1,14.2-12.9,17.2-14.2c3.1-1.3,4.8-4.1-8.9-5.9s-49.5-6.1-66.6-7.2c-17-1.1-39.5-2-47.8-2s-7.4,3.8-7.6,5.1
		c-0.2,1.3-0.7,6.3-8.9,8.9c-8.3,2.6-39.1,8.7-40.6,12.9c-1.5,4.1,17.7,2.6,25.8,4.4c8.1,1.7,21.8,5.7,20.9,19.2
		c-0.9,13.5-1.3,16.6,0.7,18.5c2,1.8,6.5,5.1,22-1.9C364.2,110.1,373.6,105.3,389.5,105.3z"/>
	<path class="st0" d="M160.5,145.4c6.9-5.8,13.7-17.1,18-24.1s7.9-10,18,0s21.3,19.2,48.1,14.9s28.5-1.3,9.8,16.4
		s-32.7,31.8-23.6,65.1s-4.6,32.4-25.5,21.3c-20.9-11.1-35.7-12.8-65.8,14.4c-9.2,8.2-16,9.8-9.2-17s10.5-43.2-2.8-59.9
		C114.4,159.8,140.9,162.1,160.5,145.4z"/>
	<path class="st0" d="M740.4,358.5c-81.2,13.7-147.4,35.1-195.9,54c-128.6,50.2-214.6,114.8-263.2,151.9
		c-41.8,31.9-77.8,63.7-108,93C133.1,620.6,101,574.9,81.1,524c66.7-49,156.3-104.4,269-149.4c142.5-57,273.1-77.8,373.2-84.4
		C731.2,312,737,334.9,740.4,358.5z"/>
	<path class="st1" d="M663.6,386.4c-55.2,29.1-120.1,70.5-185.3,129c-79.9,71.8-137.2,148.7-178,217.8
		c-36.3-12.2-70.5-30.7-101.2-54c13.8-17.5,30.9-37.9,51.2-59.7c8.9-9.6,35.4-42.8,68.5-66.8c50.9-36.8,116-77.2,195.5-112.6
		C568.1,416.2,618.6,398.9,663.6,386.4z"/>
	<path class="st2" d="M743.8,407.4c0,49.4-10.5,96.4-29.3,138.9c-35.8,8-73.9,18.4-113.7,31.9c-108.4,36.7-196,85.2-262.5,129.6
		c23.6-38.4,54.6-82.7,94.9-128.3c41.8-47.3,83.5-84.6,119.8-113.3c28.9-15.3,62.5-31,100.8-45.2c31.9-11.8,62-20.8,89.7-27.7
		C743.7,398,743.8,402.7,743.8,407.4z"/>
	<path class="st0" d="M661.9,571.4c-30.8,17.8-69.4,44-108.2,82c-30.6,29.9-54.1,60-72.1,87.1c-25.8,6.2-52.6,9.5-80.3,9.5
		c-14.5,0-28.9-1-43.1-3.1c14-14.9,29.4-30.3,46.2-45.9c22.8-21.1,45.2-39.7,66.3-55.9c28.9-13.3,60-26.5,93-39.3
		C597.8,592.7,630.6,581.3,661.9,571.4z"/>
	<path class="st1" d="M685.7,598.4c-42.5,63.2-105.5,111.4-179.5,135.2c4.8-9.7,10.8-20.3,18.2-31.3c8.9-13.2,17.9-24.2,26.2-33.2
		c21.5-13.6,45.3-27.5,71.6-41C644.2,616.8,665.5,607,685.7,598.4z"/>
</g>
</svg>
