<?xml version="1.0" encoding="utf-8"?>
<!-- Generator: Adobe Illustrator 23.0.3, SVG Export Plug-In . SVG Version: 6.00 Build 0)  -->
<svg version="1.1" id="图层_1" xmlns="http://www.w3.org/2000/svg" xmlns:xlink="http://www.w3.org/1999/xlink" x="0px" y="0px"
	 viewBox="0 0 800 800" style="enable-background:new 0 0 800 800;" xml:space="preserve">
<style type="text/css">
	.st0{fill:#275699;}
	.st1{fill:#FFFFFF;}
	.st2{fill:#008CD8;}
	.st3{fill:#F39200;}
	.st4{fill:#00A040;}
</style>
<path class="st0" d="M721.3,559.9H78.7c-15.8,0-28.7-12.8-28.7-28.7V268.7c0-15.8,12.8-28.7,28.7-28.7h599.2
	c39.8,0,72.2,32.3,72.2,72.2v219.1C750,547.1,737.2,559.9,721.3,559.9z"/>
<path class="st1" d="M719.1,548.7H503.3c-34.2,0-61.9-27.7-61.9-61.9V271c0-10.9,8.8-19.7,19.7-19.7h215.7
	c34.2,0,61.9,27.7,61.9,61.9V529C738.7,539.9,729.9,548.7,719.1,548.7z"/>
<path class="st1" d="M180.1,462.2h-6.4v2.4h19.4v-2.4H186v-12.1h7v-2.4h-7v-5h7v-2.4h-19.3v2.4h6.5v5h-6.5v2.4h6.5V462.2z
	 M186.2,452.4l2.2,8.3h4.8l-2.2-8.3H186.2z M280.5,449.7l1.6-7.6h-4.8l-1.6,7.6H280.5z M280.2,451.3h-4.8l3.2,18.3h4.9L280.2,451.3z
	 M299.8,447.1v-2.4h-2.6v-10h-5.8v10h-2.6v2.4h2.6v22.4h5.8v-22.4H299.8z M313.2,438.8h-1.5l0.2-4.1h-5.2l-0.2,4.1h-5.8v2.4h5.6
	l-1.5,28.3h5.2l1.5-28.3h1.7v24.4c0,1-0.8,1.8-1.8,1.8H311v2.2h2.2h0.3h3.5c1.1,0,2.1-0.9,2.1-2.1v-28.8h-0.4L313.2,438.8
	L313.2,438.8z M301.2,443.3l-1.8,25.9h3.9l1.8-25.9H301.2z M320.2,443.3h2.8v25.9h-2.8V443.3z M337.3,443.4l5-6h10.1l4.9,6h7.4
	l-6.9-8.4h-1.5h-5.9h-6.2h-7.4h-3.2l1.3,2.2l-5,6.2H337.3z M331.3,445.8h31.7v2.4h-31.7V445.8z M329.8,454h7.7l-7.4,15.1h4.4h2.9
	h19.6h1.8h2.7c0.7-1.1,0.9-1.4,1.6-2.5l-4.9-10.2h-7.2l5,10.2h-17.2L345,454h19.5v-2.4h-34.7L329.8,454L329.8,454z M158.8,439.5H153
	h-7.4v-4.9h-6.1v4.9h-5.2h-2v2.4h7.2v18.1h-8v-20.5h-5.9h-1.2c0,0.1,0,0.3,0.1,0.4l1.1,1.8v18.4v2.4h5.8h8v7.2h6.2v-7.2h7.3h0.7h3.1
	c1.1,0,2.1-0.9,2.1-2.1v-20.9L158.8,439.5L158.8,439.5z M153,460.1h-7.4v-18.1h7.4V460.1z M197.1,435.2h-2.7h-14.2H174v2.4h20.3
	v29.1h-21.7v-31.5h-5.8l0,0l0,0h-1.2c0,0.1,0,0.3,0.1,0.4l1.1,1.7v31.8h4h1.8h21.7h0.8h2.9c1.1,0,2.1-0.9,2.1-2.1v-31.9L197.1,435.2
	L197.1,435.2L197.1,435.2z M227.4,466.5V456H241v-2.6h-13.5v-4.7h5.9l0,0h5.8c1.1,0,2.1-0.9,2.1-2.1v-11.6h-7.9H217v3.2h16.4v7.9
	h-17.9V435h-4h-3.8l0,0l0,0h-1.2c0,0.1,0,0.3,0.1,0.4l1.1,1.7v11.5h7.3l0,0h6.4v17.9h-7.2l2.9-16h-6.5l-3.4,18.6h2.7h3.9h28.5v-2.6
	L227.4,466.5L227.4,466.5z M257.3,465.9v-15.3h2.9v-2.4h-2.9v-9.4h3.7v-2.5h-13.2v2.5h3.7v9.4h-2.9v2.4h2.9v15.8l-3.9,0.3l0.2,2.4
	l12.4-1.1l-0.2-2.4L257.3,465.9z M266.4,442.1h-4.8l1.6,7.6h4.8L266.4,442.1z M263.8,451.3l-3.2,18.3h4.8l3.2-18.3H263.8z
	 M281.7,438v-1.9h-4.1v1.9h-2.7v-3.1h-3h-2.8l0,0l0,0H268c0,0.1,0,0.3,0.1,0.3l1,1.6v1.2h-7.8v2.5h7.7v25.9c0,0.7-0.5,1.2-1.2,1.2
	h-1.4v2h2.6h0.2h3.6c1.1,0,2.1-0.9,2.1-2.1v-27.1h7.7v-2.5L281.7,438L281.7,438L281.7,438z M131.3,483.8l2,0.6
	c-0.3,1.1-0.8,1.9-1.5,2.4c-0.7,0.5-1.6,0.8-2.7,0.8c-1.3,0-2.4-0.4-3.3-1.3c-0.9-0.9-1.3-2.1-1.3-3.8c0-1.7,0.4-2.9,1.3-3.9
	c0.9-0.9,2-1.4,3.4-1.4c1.2,0,2.2,0.4,3,1.1c0.4,0.4,0.8,1.1,1,1.9l-2,0.5c-0.1-0.5-0.4-0.9-0.8-1.2s-0.8-0.4-1.3-0.4
	c-0.8,0-1.3,0.3-1.8,0.8c-0.4,0.5-0.7,1.4-0.7,2.6c0,1.2,0.2,2.1,0.7,2.7c0.4,0.6,1.1,0.8,1.8,0.8c0.5,0,1-0.2,1.4-0.5
	C130.9,485.1,131.2,484.6,131.3,483.8z M135.1,487.5v-10h2v3.9h4v-3.9h2v10h-2v-4.4h-4v4.4H135.1z M145.1,487.5v-10h2v10H145.1z
	 M149.1,487.5v-10h2l4.1,6.7v-6.7h1.9v10h-2l-4-6.6v6.6H149.1z M159.2,487.5v-10h7.4v1.7h-5.4v2.2h5v1.7h-5v2.7h5.6v1.7L159.2,487.5
	L159.2,487.5z M168,484.3l2-0.2c0.1,0.7,0.3,1.1,0.7,1.5c0.4,0.3,0.8,0.4,1.5,0.4s1.1-0.1,1.5-0.4s0.5-0.6,0.5-1
	c0-0.2-0.1-0.4-0.2-0.6c-0.1-0.1-0.4-0.3-0.7-0.4c-0.2-0.1-0.8-0.2-1.6-0.4c-1.1-0.3-1.9-0.6-2.3-1c-0.6-0.6-0.9-1.2-0.9-2
	c0-0.5,0.1-1,0.4-1.5c0.3-0.4,0.7-0.8,1.2-1c0.5-0.2,1.2-0.3,2-0.3c1.2,0,2.2,0.3,2.8,0.8c0.6,0.6,1,1.3,1,2.2l-2,0.1
	c-0.1-0.5-0.3-0.9-0.6-1.1c-0.3-0.2-0.7-0.3-1.3-0.3c-0.6,0-1.1,0.1-1.4,0.4c-0.2,0.1-0.3,0.4-0.3,0.6c0,0.2,0.1,0.4,0.3,0.6
	c0.3,0.2,0.9,0.4,1.9,0.7c1,0.2,1.7,0.4,2.2,0.7c0.4,0.3,0.8,0.6,1.1,1s0.4,0.9,0.4,1.6c0,0.6-0.1,1.1-0.5,1.6
	c-0.3,0.5-0.8,0.9-1.3,1.1c-0.6,0.2-1.3,0.4-2.2,0.4c-1.2,0-2.2-0.3-2.9-0.9C168.5,486.3,168.2,485.4,168,484.3z M177.9,487.5v-10
	h7.4v1.7h-5.4v2.2h5v1.7h-5v2.7h5.6v1.7L177.9,487.5L177.9,487.5z M191.2,487.5v-10h6.9v1.7h-4.8v2.4h4.2v1.7h-4.2v4.3L191.2,487.5
	L191.2,487.5L191.2,487.5z M199.3,482.6c0-1,0.1-1.9,0.4-2.6c0.2-0.5,0.5-1,0.9-1.3c0.4-0.4,0.8-0.7,1.3-0.9
	c0.7-0.3,1.3-0.4,2.1-0.4c1.5,0,2.7,0.4,3.6,1.3c0.9,0.9,1.3,2.2,1.3,3.8c0,1.6-0.4,2.9-1.3,3.8c-0.9,0.9-2,1.3-3.5,1.3
	c-1.5,0-2.7-0.4-3.6-1.3C199.7,485.4,199.3,484.2,199.3,482.6z M201.4,482.5c0,1.1,0.3,2,0.8,2.6c0.5,0.6,1.2,0.9,2,0.9
	c0.8,0,1.5-0.3,2-0.9c0.5-0.6,0.8-1.5,0.8-2.6c0-1.1-0.3-2-0.8-2.6c-0.5-0.6-1.2-0.8-2-0.8s-1.5,0.3-2,0.9
	C201.6,480.5,201.4,481.4,201.4,482.5z M210.2,482.6c0-1,0.1-1.9,0.4-2.6c0.2-0.5,0.5-1,0.9-1.3c0.4-0.4,0.8-0.7,1.3-0.9
	c0.7-0.3,1.3-0.4,2.1-0.4c1.5,0,2.7,0.4,3.6,1.3c0.9,0.9,1.3,2.2,1.3,3.8c0,1.6-0.4,2.9-1.3,3.8c-0.9,0.9-2,1.3-3.5,1.3
	s-2.7-0.4-3.6-1.3C210.6,485.4,210.2,484.2,210.2,482.6z M212.3,482.5c0,1.1,0.3,2,0.8,2.6c0.5,0.6,1.2,0.9,2,0.9
	c0.8,0,1.5-0.3,2-0.9s0.8-1.5,0.8-2.6c0-1.1-0.3-2-0.8-2.6c-0.5-0.6-1.2-0.8-2-0.8c-0.8,0-1.5,0.3-2,0.9
	C212.5,480.5,212.3,481.4,212.3,482.5z M223.8,487.5v-8.3h-3v-1.7h8v1.7h-2.9v8.3H223.8z M230.1,477.5h4c0.8,0,1.4,0,1.8,0.1
	s0.8,0.2,1.1,0.4c0.3,0.2,0.6,0.5,0.8,0.8c0.2,0.3,0.3,0.8,0.3,1.2c0,0.4-0.1,0.9-0.4,1.3s-0.6,0.7-1,0.9c0.6,0.2,1.1,0.5,1.4,0.9
	c0.3,0.4,0.5,0.9,0.5,1.5c0,0.4-0.1,0.9-0.3,1.3c-0.2,0.4-0.5,0.8-0.9,1s-0.8,0.4-1.3,0.5c-0.3,0-1.1,0.1-2.5,0.1h-3.4L230.1,477.5
	L230.1,477.5z M232.1,479.2v2.3h1.3c0.8,0,1.3,0,1.5,0c0.3,0,0.6-0.1,0.8-0.3c0.2-0.2,0.3-0.4,0.3-0.8c0-0.3-0.1-0.6-0.3-0.8
	c-0.2-0.2-0.4-0.3-0.8-0.3c-0.2,0-0.8,0-1.7,0H232.1L232.1,479.2z M232.1,483.2v2.7h1.9c0.7,0,1.2,0,1.4-0.1c0.3,0,0.5-0.2,0.7-0.4
	c0.2-0.2,0.3-0.5,0.3-0.8c0-0.3-0.1-0.6-0.2-0.8c-0.1-0.2-0.3-0.4-0.7-0.4c-0.3-0.1-0.9-0.1-1.8-0.1L232.1,483.2L232.1,483.2z
	 M249.3,487.5H247l-0.9-2.3h-4l-0.8,2.3h-2.1l3.9-10h2.1L249.3,487.5z M245.6,483.6l-1.4-3.7l-1.3,3.7H245.6z M250.4,487.5v-10h2
	v8.3h5v1.7L250.4,487.5L250.4,487.5z M259,487.5v-10h2v8.3h5v1.7L259,487.5L259,487.5z M279.6,487.5h-2.2l-0.9-2.3h-4l-0.8,2.3h-2.2
	l3.9-10h2.1L279.6,487.5z M275.9,483.6l-1.4-3.7l-1.3,3.7H275.9z M280.2,484.3l2-0.2c0.1,0.7,0.3,1.1,0.7,1.5
	c0.4,0.3,0.8,0.4,1.5,0.4s1.1-0.1,1.5-0.4c0.3-0.3,0.5-0.6,0.5-1c0-0.2-0.1-0.4-0.2-0.6c-0.1-0.1-0.4-0.3-0.7-0.4
	c-0.2-0.1-0.8-0.2-1.6-0.4c-1.1-0.3-1.9-0.6-2.3-1c-0.6-0.6-0.9-1.2-0.9-2c0-0.5,0.1-1,0.4-1.5c0.3-0.4,0.7-0.8,1.2-1
	c0.5-0.2,1.2-0.3,2-0.3c1.2,0,2.2,0.3,2.8,0.8c0.7,0.6,1,1.3,1,2.2l-2,0.1c-0.1-0.5-0.3-0.9-0.6-1.1c-0.3-0.2-0.7-0.3-1.3-0.3
	c-0.6,0-1.1,0.1-1.3,0.4c-0.2,0.1-0.3,0.4-0.3,0.6c0,0.2,0.1,0.4,0.3,0.6c0.3,0.2,0.9,0.4,1.9,0.7c1,0.2,1.7,0.4,2.2,0.7
	c0.4,0.3,0.8,0.6,1.1,1s0.4,0.9,0.4,1.6c0,0.6-0.1,1.1-0.5,1.6c-0.3,0.5-0.8,0.9-1.3,1.1c-0.6,0.2-1.3,0.4-2.2,0.4
	c-1.2,0-2.2-0.3-2.9-0.9C280.7,486.3,280.3,485.4,280.2,484.3z M289.6,484.3l2-0.2c0.1,0.7,0.3,1.1,0.7,1.5c0.4,0.3,0.8,0.4,1.5,0.4
	s1.1-0.1,1.5-0.4s0.5-0.6,0.5-1c0-0.2-0.1-0.4-0.2-0.6c-0.1-0.1-0.4-0.3-0.7-0.4c-0.2-0.1-0.8-0.2-1.6-0.4c-1.1-0.3-1.9-0.6-2.3-1
	c-0.6-0.6-0.9-1.2-0.9-2c0-0.5,0.1-1,0.4-1.5c0.3-0.4,0.7-0.8,1.2-1c0.5-0.2,1.2-0.3,2-0.3c1.2,0,2.2,0.3,2.8,0.8
	c0.7,0.6,1,1.3,1,2.2l-2,0.1c-0.1-0.5-0.3-0.9-0.6-1.1c-0.3-0.2-0.7-0.3-1.3-0.3c-0.6,0-1.1,0.1-1.4,0.4c-0.2,0.1-0.3,0.4-0.3,0.6
	c0,0.2,0.1,0.4,0.3,0.6c0.3,0.2,0.9,0.4,1.9,0.7c1,0.2,1.7,0.4,2.2,0.7c0.4,0.3,0.8,0.6,1.1,1s0.4,0.9,0.4,1.6
	c0,0.6-0.1,1.1-0.5,1.6c-0.3,0.5-0.8,0.9-1.3,1.1c-0.6,0.3-1.3,0.4-2.2,0.4c-1.2,0-2.2-0.3-2.9-0.9
	C290.1,486.3,289.7,485.4,289.6,484.3z M299,482.6c0-1,0.1-1.9,0.4-2.6c0.2-0.5,0.5-1,0.9-1.3c0.4-0.4,0.8-0.7,1.3-0.9
	c0.7-0.3,1.3-0.4,2.1-0.4c1.5,0,2.7,0.4,3.6,1.3c0.9,0.9,1.3,2.2,1.3,3.8c0,1.6-0.4,2.9-1.3,3.8c-0.9,0.9-2,1.3-3.5,1.3
	c-1.5,0-2.7-0.4-3.6-1.3C299.4,485.4,299,484.2,299,482.6z M301.1,482.5c0,1.1,0.3,2,0.8,2.6c0.5,0.6,1.2,0.9,2,0.9s1.5-0.3,2-0.9
	s0.8-1.5,0.8-2.6c0-1.1-0.3-2-0.8-2.6c-0.5-0.6-1.2-0.8-2-0.8s-1.5,0.3-2,0.9C301.3,480.5,301.1,481.4,301.1,482.5z M316.7,483.8
	l2,0.6c-0.3,1.1-0.8,1.9-1.5,2.4c-0.7,0.5-1.6,0.8-2.7,0.8c-1.3,0-2.4-0.4-3.3-1.3s-1.3-2.1-1.3-3.8c0-1.7,0.4-2.9,1.3-3.9
	c0.9-0.9,2-1.4,3.4-1.4c1.2,0,2.2,0.4,3,1.1c0.4,0.4,0.8,1.1,1,1.9l-2,0.5c-0.1-0.5-0.4-0.9-0.8-1.2c-0.4-0.3-0.8-0.4-1.3-0.4
	c-0.8,0-1.3,0.3-1.8,0.8c-0.4,0.5-0.7,1.4-0.7,2.6c0,1.2,0.2,2.1,0.7,2.7c0.4,0.6,1.1,0.8,1.8,0.8c0.5,0,1-0.2,1.4-0.5
	C316.3,485.1,316.6,484.6,316.7,483.8z M320.4,487.5v-10h2v10H320.4z M333.4,487.5h-2.2l-0.9-2.3h-4l-0.8,2.3h-2.1l3.9-10h2.1
	L333.4,487.5z M329.7,483.6l-1.4-3.7l-1.3,3.7H329.7z M335.7,487.5v-8.3h-3v-1.7h8v1.7h-2.9v8.3H335.7z M341.9,487.5v-10h2v10H341.9
	z M345.5,482.6c0-1,0.1-1.9,0.4-2.6c0.2-0.5,0.5-1,0.9-1.3c0.4-0.4,0.8-0.7,1.3-0.9c0.7-0.3,1.3-0.4,2.1-0.4c1.5,0,2.7,0.4,3.6,1.3
	c0.9,0.9,1.3,2.2,1.3,3.8c0,1.6-0.4,2.9-1.3,3.8c-0.9,0.9-2,1.3-3.5,1.3c-1.5,0-2.7-0.4-3.6-1.3
	C345.9,485.4,345.5,484.2,345.5,482.6z M347.6,482.5c0,1.1,0.3,2,0.8,2.6c0.5,0.6,1.2,0.9,2,0.9s1.5-0.3,2-0.9s0.8-1.5,0.8-2.6
	c0-1.1-0.3-2-0.8-2.6c-0.5-0.6-1.2-0.8-2-0.8s-1.5,0.3-2,0.9C347.8,480.5,347.6,481.4,347.6,482.5z M356.8,487.5v-10h2l4.1,6.7v-6.7
	h1.9v10h-2l-4-6.6v6.6H356.8z M123.7,371.6c0,32.7,26.4,43.3,39.5,43.3h16.7c3.1,0,5.7-2.6,5.7-5.7v-13.9c0,0-9.6,0-17.8,0
	c-8.2,0-23.5-5.7-23.5-23.7c0-18.2,16.6-23.3,24.5-23.3h11.5c3.1,0,5.7-2.6,5.7-5.7v-15.1c0,0-2.8,0-18.3,0
	C151.8,327.6,123.7,338.9,123.7,371.6z M220.8,367.5v-18.8h31.6c2.4,0,4.4-1.4,5.2-3.7l6.5-17v-0.5h-64.4v87.3h21.5v-26.4h16.3
	c2.4,0,4.4-1.4,5.2-3.7l6.5-17.2H220.8L220.8,367.5z M301.5,327.5H284c-3.7,0-5.8,1.3-6.8,4l-32,83.5h22.6l4.4-11.3L301.5,327.5z
	 M305.7,383.3h-20.4l-7.7,20.4h36.2l4.3,11h22.6l-34-86.7l-11.2,29.2L305.7,383.3z M336.1,321.2l0.1,5.5l-3.5,4.1l-0.7-1.7l2.2-6.8
	L336.1,321.2z M347.6,313.7c9.1,0,16.5,7.4,16.5,16.5s-7.4,16.5-16.5,16.5c-9.1,0-16.5-7.4-16.5-16.5S338.5,313.7,347.6,313.7
	 M347.6,312.2c-10,0-18,8.1-18,18s8.1,18,18,18s18-8.1,18-18S357.6,312.2,347.6,312.2L347.6,312.2z M347.9,322.6l-7.2,5.8l3,8.3h8.3
	l3-7.7L347.9,322.6z M342.5,316.3l5.2,1.9l5-1.9l-1.3-1.2l-7.2-0.2L342.5,316.3z M359.5,321.2l-0.1,5.5l3.5,4.1l0.8-1.7l-2.2-6.8
	L359.5,321.2z M335.5,338.2l5.3,1.5l2.9,4.5l-1.8,0.2l-5.9-4L335.5,338.2z M360,338.2l-5.3,1.5l-2.9,4.5l1.8,0.2l5.9-4L360,338.2z"
	/>
<g>
	<path class="st2" d="M481.1,420.7l21.3-14.5c0,0-2.7-7.1-1.3-11.8c1.3-4.7,5.7-17.9,7.1-20.9c1.3-3,2-6.1-5.7-2s-7.8,4.4-10.1,4.4
		c-2.4,0-4-2.7-5.1-6.4s-2.7-1-3.4,1.7s-1.4,7.9-1.7,9.9c-0.2,2-2.4,8.5-6.3,12.1c-3.9,3.6-4,5.7-3.5,7.1c0.5,1.4,5.6,4.7,6.7,8.1
		C480.1,411.7,480.6,412.4,481.1,420.7z"/>
	<path class="st2" d="M555.8,380.4c0,0,25.7-8.1,50-10.6c0,0,0.1-5.9,1.6-8.8c1.6-2.8,4.8-5.5,9.6-8.9c4.8-3.4,6.4-6.7,1.7-8.9
		c-4.6-2.2-8.2-2.7-13.2-4.1c-5.1-1.4-12.4-5.3-17.2-13.2c-4.8-7.9-6-9.7-8.5-9.7s-3.8,2.5-4.9,4.7s-5.4,10-10.3,11.4
		c-4.9,1.4-6.8,1.9-12.6,2.9s-10.2,1.8-10.4,3.9c-0.2,2.1,2.5,4.2,4.6,5.8c2,1.6,9.3,6.8,11.1,13.3
		C559.1,364.6,556.8,376.6,555.8,380.4z"/>
	<path class="st2" d="M677.1,345c1.9,2,5.2,5.8,6.1,6.6s1.4,0,1.1-2.2c-0.3-2.2-1.4-7.6-2.2-10.5s-2.2-7.7,0.8-8.7
		c3-1,3.5-1.8,1.6-4.7s-7.1-8.2-14.6-15c-7.5-6.8-17.3-14.5-20.4-16.1c-3.1-1.6-2.9-0.3-2.5,1.3s-0.4,3.6-3.8,3.6
		c-3.3,0-14.1-1.7-16.6-1.8c-2.4-0.1-2,1.3,0,2.5s10.2,5.6,15.1,11.7c4.9,6.2,4,14,3.8,17.1s1.3,6.8,6.6,6.2s11.6-2.5,16.5,1.7
		S677.1,345,677.1,345z"/>
	<path class="st2" d="M586.5,299c6.4,0,15,2.4,20.3,4s5.5,0,3.1-3.4c-2.4-3.4-5.4-6.7-5.2-9.5c0.1-2.8,4.9-4.4,5.9-4.9
		s1.6-1.4-3.1-2c-4.7-0.6-17-2.1-22.8-2.5c-5.8-0.4-13.5-0.7-16.4-0.7s-2.5,1.3-2.6,1.7s-0.2,2.2-3.1,3.1c-2.8,0.9-13.4,3-13.9,4.4
		c-0.5,1.4,6.1,0.9,8.8,1.5c2.8,0.6,7.5,1.9,7.2,6.6c-0.3,4.6-0.4,5.7,0.2,6.3c0.7,0.6,2.2,1.8,7.6-0.6S581,299,586.5,299z"/>
	<path class="st2" d="M507.9,312.7c2.4-2,4.7-5.9,6.2-8.3s2.7-3.4,6.2,0c3.5,3.4,7.3,6.6,16.5,5.1s9.8-0.4,3.4,5.6
		c-6.4,6.1-11.2,10.9-8.1,22.3c3.1,11.4-1.6,11.1-8.8,7.3c-7.2-3.8-12.2-4.4-22.6,4.9c-3.1,2.8-5.5,3.4-3.1-5.8s3.6-14.8-1-20.5
		C492.1,317.7,501.2,318.4,507.9,312.7z"/>
	<path class="st2" d="M706.8,385.8c-27.9,4.7-50.5,12-67.2,18.5c-44.1,17.2-73.6,39.4-90.2,52.1c-14.3,10.9-26.7,21.8-37,31.9
		c-13.8-12.6-24.8-28.3-31.6-45.8c22.9-16.8,53.6-35.8,92.2-51.2c48.9-19.5,93.6-26.7,127.9-28.9
		C703.6,369.8,705.6,377.7,706.8,385.8z"/>
	<path class="st3" d="M680.4,395.3c-18.9,10-41.2,24.2-63.5,44.2c-27.4,24.6-47,51-61,74.7c-12.4-4.2-24.2-10.5-34.7-18.5
		c4.7-6,10.6-13,17.5-20.5c3.1-3.3,12.1-14.7,23.5-22.9c17.4-12.6,39.8-26.5,67-38.6C647.7,405.5,665,399.6,680.4,395.3z"/>
	<path class="st4" d="M707.9,402.6c0,16.9-3.6,33.1-10.1,47.6c-12.3,2.7-25.3,6.3-39,10.9c-37.2,12.6-67.2,29.2-90,44.4
		c8.1-13.2,18.7-28.3,32.5-44c14.3-16.2,28.6-29,41.1-38.8c9.9-5.2,21.4-10.6,34.6-15.5c10.9-4.1,21.3-7.1,30.8-9.5
		C707.9,399.3,707.9,400.9,707.9,402.6z"/>
	<path class="st2" d="M679.8,458.8c-10.6,6.1-23.8,15.1-37.1,28.1c-10.5,10.3-18.5,20.6-24.7,29.9c-8.8,2.1-18,3.2-27.5,3.2
		c-5,0-9.9-0.4-14.8-1.1c4.8-5.1,10.1-10.4,15.8-15.7c7.8-7.2,15.5-13.6,22.7-19.2c9.9-4.6,20.6-9.1,31.9-13.5
		C657.9,466.1,669.1,462.2,679.8,458.8z"/>
	<path class="st3" d="M688,468c-14.6,21.7-36.2,38.2-61.5,46.4c1.7-3.3,3.7-7,6.2-10.7c3-4.5,6.1-8.3,9-11.4
		c7.4-4.7,15.5-9.4,24.5-14.1C673.8,474.3,681.1,471,688,468z"/>
</g>
</svg>
