<?xml version="1.0" encoding="utf-8"?>
<!-- Generator: Adobe Illustrator 23.0.3, SVG Export Plug-In . SVG Version: 6.00 Build 0)  -->
<svg version="1.1" id="图层_1" xmlns="http://www.w3.org/2000/svg" xmlns:xlink="http://www.w3.org/1999/xlink" x="0px" y="0px"
	 viewBox="0 0 800 800" style="enable-background:new 0 0 800 800;" xml:space="preserve">
<style type="text/css">
	.st0{fill:#008CD8;}
</style>
<path class="st0" d="M274.5,479.9l1.4,3.7h-2.8L274.5,479.9z M242.8,483.6h2.8l-1.4-3.7L242.8,483.6z M326.9,483.6h2.8l-1.4-3.7
	L326.9,483.6z M235.6,483.3c-0.3-0.1-0.9-0.1-1.8-0.1l-1.6,0v2.7h1.9c0.7,0,1.2,0,1.4-0.1c0.3,0,0.5-0.2,0.7-0.4
	c0.2-0.2,0.3-0.5,0.3-0.8c0-0.3-0.1-0.6-0.2-0.8C236.1,483.5,235.9,483.4,235.6,483.3z M303.9,479c-0.8,0-1.5,0.3-2,0.9
	c-0.5,0.6-0.8,1.5-0.8,2.6c0,1.1,0.3,2,0.8,2.6c0.5,0.6,1.2,0.9,2,0.9s1.5-0.3,2-0.9c0.5-0.6,0.8-1.5,0.8-2.6c0-1.1-0.3-2-0.8-2.6
	C305.4,479.3,304.7,479,303.9,479z M350.4,479c-0.8,0-1.5,0.3-2,0.9c-0.6,0.6-0.8,1.5-0.8,2.6c0,1.1,0.3,2,0.8,2.6
	c0.5,0.6,1.2,0.9,2,0.9s1.5-0.3,2-0.9c0.5-0.6,0.8-1.5,0.8-2.6c0-1.1-0.3-2-0.8-2.6C351.9,479.3,351.2,479,350.4,479z M234.9,481.5
	c0.3,0,0.6-0.1,0.8-0.3c0.2-0.2,0.3-0.4,0.3-0.8c0-0.3-0.1-0.6-0.3-0.8c-0.2-0.2-0.4-0.3-0.8-0.3c-0.2,0-0.8,0-1.7,0h-1.2v2.3h1.3
	C234.3,481.5,234.7,481.5,234.9,481.5z M145.7,460.1h7.4v-18.1h-7.4V460.1z M750,312.2v219.1c0,15.8-12.8,28.7-28.7,28.7H78.7
	c-15.8,0-28.7-12.8-28.7-28.7V268.7c0-15.8,12.8-28.7,28.7-28.7h599.2C717.7,240.1,750,272.4,750,312.2z M329.8,451.6v2.4h7.7
	l-7.4,15.1h4.4h2.9h19.6h1.8h2.7c0.7-1.1,0.9-1.4,1.6-2.5l-4.9-10.2h-7.2l5,10.2h-17.2L345,454h19.5v-2.4H329.8z M362.9,448.2v-2.4
	h-31.7v2.4H362.9z M340.7,414.6l-34-86.7l-11.2,29.2l10.3,26.1h-20.4l-7.7,20.4h36.2l4.3,11H340.7z M275.4,451.3l3.2,18.3h4.9
	l-3.2-18.3H275.4z M280.5,449.7l1.6-7.6h-4.8l-1.6,7.6H280.5z M277.2,331.4l-32,83.5h22.6l4.4-11.3l29.3-76.2H284
	C280.3,327.5,278.2,328.7,277.2,331.4z M260.6,469.6h4.8l3.2-18.3h-4.9L260.6,469.6z M263.2,449.7h4.8l-1.6-7.6h-4.8L263.2,449.7z
	 M260.9,436.3h-13.2v2.5h3.7v9.4h-2.9v2.4h2.9v15.8l-3.9,0.3l0.2,2.4l12.4-1.1l-0.2-2.4l-2.8,0.2v-15.3h2.9v-2.4h-2.9v-9.4h3.7
	V436.3z M199.6,414.8h21.5v-26.4h16.3c2.4,0,4.4-1.4,5.2-3.7l6.5-17.2h-28.3v-18.8h31.6c2.4,0,4.4-1.4,5.2-3.7l6.5-17v-0.5h-64.4
	V414.8z M123.7,371.6c0,32.7,26.4,43.3,39.5,43.3h16.7c3.1,0,5.7-2.6,5.7-5.7v-13.9c0,0-9.6,0-17.8,0s-23.5-5.7-23.5-23.7
	c0-18.2,16.6-23.3,24.5-23.3h11.5c3.1,0,5.7-2.6,5.7-5.7v-15.1c0,0-2.8,0-18.3,0C151.8,327.6,123.7,338.9,123.7,371.6z M193,440.3
	h-19.3v2.4h6.5v5h-6.5v2.4h6.5v12.1h-6.4v2.4h19.4v-2.4H186v-12.1h7v-2.4h-7v-5h7V440.3z M191.1,452.4h-4.8l2.2,8.3h4.8L191.1,452.4
	z M126.7,482.4c0-1.2,0.2-2.1,0.7-2.6c0.5-0.5,1.1-0.8,1.8-0.8c0.5,0,1,0.1,1.3,0.4c0.4,0.3,0.7,0.7,0.8,1.2l2-0.5
	c-0.2-0.8-0.6-1.5-1-1.9c-0.8-0.7-1.8-1.1-3-1.1c-1.4,0-2.6,0.5-3.4,1.4c-0.9,1-1.3,2.2-1.3,3.9c0,1.6,0.4,2.9,1.3,3.8
	s2,1.3,3.3,1.3c1.1,0,1.9-0.3,2.7-0.8c0.7-0.5,1.2-1.3,1.5-2.4l-2-0.6c-0.2,0.7-0.4,1.3-0.8,1.6c-0.4,0.3-0.9,0.5-1.4,0.5
	c-0.7,0-1.3-0.2-1.8-0.8C126.9,484.5,126.7,483.6,126.7,482.4z M143.1,477.5h-2v3.9h-4v-3.9h-2v10h2v-4.4h4v4.4h2V477.5z
	 M147.1,477.5h-2v10h2V477.5z M157,477.5h-1.9v6.7l-4.1-6.7h-2v10h1.9V481l4,6.6h2V477.5z M158.9,439.6h-0.1v0H153h-7.4v-4.9h-6.1
	v4.9h-5.2h-2v2.4h7.2v18.1h-8v-20.5h-5.9h-1.2c0,0.1,0,0.3,0.1,0.4l1.1,1.8v18.4v2.4h5.8h8v7.2h6.2v-7.2h7.3h0.7h3.1
	c1.1,0,2.1-0.9,2.1-2.1V439.6z M166.8,485.9h-5.6v-2.7h5v-1.7h-5v-2.2h5.4v-1.7h-7.4v10v0h7.6V485.9z M176.2,484.7
	c0-0.7-0.1-1.2-0.4-1.6c-0.3-0.4-0.7-0.8-1.1-1c-0.5-0.3-1.2-0.5-2.2-0.7c-1-0.2-1.6-0.4-1.9-0.7c-0.2-0.2-0.3-0.4-0.3-0.6
	c0-0.2,0.1-0.5,0.3-0.6c0.3-0.3,0.8-0.4,1.4-0.4c0.6,0,1,0.1,1.3,0.3c0.3,0.2,0.5,0.6,0.6,1.1l2-0.1c0-0.9-0.3-1.7-1-2.2
	c-0.6-0.6-1.6-0.8-2.8-0.8c-0.8,0-1.5,0.1-2,0.3c-0.5,0.2-0.9,0.6-1.2,1c-0.3,0.5-0.4,1-0.4,1.5c0,0.8,0.3,1.5,0.9,2
	c0.4,0.3,1.2,0.7,2.3,1c0.8,0.2,1.4,0.4,1.6,0.4c0.3,0.1,0.6,0.3,0.7,0.4c0.2,0.2,0.2,0.4,0.2,0.6c0,0.3-0.1,0.7-0.5,1
	s-0.8,0.4-1.5,0.4c-0.7,0-1.1-0.1-1.5-0.4c-0.4-0.3-0.6-0.8-0.7-1.5l-2,0.2c0.2,1.1,0.5,2,1.2,2.7c0.7,0.6,1.7,0.9,2.9,0.9
	c0.9,0,1.7-0.1,2.2-0.4c0.6-0.3,1-0.7,1.3-1.1C176,485.8,176.2,485.2,176.2,484.7z M185.5,485.9h-5.6v-2.7h5v-1.7h-5v-2.2h5.4v-1.7
	h-7.4v10v0h7.6V485.9z M198.1,477.5h-6.9v10v0h2v-4.3h4.2v-1.7h-4.2v-2.4h4.8V477.5z M198.1,469.1c1.1,0,2.1-0.9,2.1-2.1v-31.9H197
	v0h-2.7h-14.2H174v2.4h20.3v29.1h-21.7v-31.5h-5.8h-1.2c0,0.1,0,0.3,0.1,0.4l1.1,1.7v31.8h4h1.8h21.7h0.8H198.1z M208.9,482.5
	c0-1.6-0.4-2.9-1.3-3.8c-0.9-0.9-2.1-1.3-3.6-1.3c-0.8,0-1.5,0.1-2.1,0.4c-0.4,0.2-0.9,0.5-1.3,0.9c-0.4,0.4-0.7,0.9-0.9,1.3
	c-0.3,0.7-0.4,1.6-0.4,2.6c0,1.6,0.4,2.8,1.3,3.8c0.9,0.9,2.1,1.3,3.6,1.3c1.5,0,2.7-0.4,3.5-1.3
	C208.5,485.4,208.9,484.2,208.9,482.5z M209.7,469.1h3.9h28.5v-2.6l-14.7,0.1V456H241v-2.6h-13.5v-4.7h5.9h5.8
	c1.1,0,2.1-0.9,2.1-2.1v-11.6h-7.9H217v3.2h16.4v7.9h-17.9V435h-4h-3.8h-1.2c0,0.1,0,0.3,0.1,0.4l1.1,1.7v11.5h7.3h6.4v17.9h-7.2
	l2.9-16h-6.5l-3.4,18.6H209.7z M219.9,482.5c0-1.6-0.4-2.9-1.3-3.8c-0.9-0.9-2.1-1.3-3.6-1.3c-0.8,0-1.5,0.1-2.1,0.4
	c-0.4,0.2-0.9,0.5-1.3,0.9c-0.4,0.4-0.7,0.9-0.9,1.3c-0.3,0.7-0.4,1.6-0.4,2.6c0,1.6,0.4,2.8,1.3,3.8c0.9,0.9,2.1,1.3,3.6,1.3
	c1.5,0,2.7-0.4,3.5-1.3C219.4,485.4,219.9,484.2,219.9,482.5z M228.8,477.5h-8v1.7h3v8.3h2.1v-8.3h2.9V477.5z M238.5,484.6
	c0-0.6-0.1-1.1-0.5-1.5c-0.3-0.4-0.8-0.7-1.4-0.9c0.4-0.2,0.8-0.5,1-0.9c0.3-0.4,0.4-0.8,0.4-1.3c0-0.4-0.1-0.8-0.3-1.2
	c-0.2-0.3-0.4-0.6-0.8-0.8c-0.3-0.2-0.7-0.3-1.1-0.4c-0.4-0.1-1-0.1-1.8-0.1h-4v10h3.4c1.3,0,2.1,0,2.5-0.1c0.5-0.1,1-0.2,1.3-0.5
	c0.4-0.3,0.6-0.6,0.9-1C238.4,485.5,238.5,485,238.5,484.6z M249.3,487.5l-4-10h-2.1l-3.9,10h2.1l0.8-2.3h4l0.9,2.3H249.3z
	 M257.4,485.9h-5v-8.3h-2v10h7.1V485.9z M266,485.9h-5v-8.3h-2v10h7.1V485.9z M269.2,469.5h3.6c1.1,0,2.1-0.9,2.1-2.1v-27.1h7.7
	v-2.5h-0.9v-1.8h-4.1v1.9h-2.7v-3.1h-3h-2.8H268c0,0.1,0,0.3,0.1,0.3l1,1.6v1.2h-7.8v2.5h7.7v25.9c0,0.7-0.5,1.2-1.2,1.2h-1.4v2h2.6
	H269.2z M279.6,487.5l-4-10h-2.1l-3.9,10h2.2l0.8-2.3h4l0.9,2.3H279.6z M288.4,484.7c0-0.7-0.1-1.2-0.4-1.6c-0.3-0.4-0.7-0.8-1.1-1
	c-0.5-0.3-1.2-0.5-2.2-0.7c-1-0.2-1.6-0.4-1.9-0.7c-0.2-0.2-0.3-0.4-0.3-0.6c0-0.2,0.1-0.5,0.3-0.6c0.3-0.3,0.7-0.4,1.3-0.4
	c0.6,0,1,0.1,1.3,0.3c0.3,0.2,0.5,0.6,0.6,1.1l2-0.1c0-0.9-0.3-1.7-1-2.2c-0.6-0.6-1.6-0.8-2.8-0.8c-0.8,0-1.5,0.1-2,0.3
	c-0.5,0.2-0.9,0.6-1.2,1c-0.3,0.5-0.4,1-0.4,1.5c0,0.8,0.3,1.5,0.9,2c0.4,0.3,1.2,0.7,2.3,1c0.8,0.2,1.4,0.4,1.6,0.4
	c0.3,0.1,0.6,0.3,0.7,0.4c0.2,0.2,0.2,0.4,0.2,0.6c0,0.3-0.1,0.7-0.5,1s-0.8,0.4-1.5,0.4c-0.7,0-1.1-0.1-1.5-0.4s-0.6-0.8-0.7-1.5
	l-2,0.2c0.1,1.1,0.6,2,1.3,2.7c0.7,0.6,1.7,0.9,2.9,0.9c0.9,0,1.7-0.1,2.2-0.4c0.6-0.3,1-0.7,1.3-1.1
	C288.3,485.8,288.4,485.2,288.4,484.7z M288.8,447.1h2.6v22.4h5.8v-22.4h2.6v-2.4h-2.6v-10h-5.8v10h-2.6V447.1z M299.4,469.2h3.9
	l1.8-25.9h-3.8L299.4,469.2z M297.7,484.7c0-0.7-0.1-1.2-0.4-1.6c-0.3-0.4-0.7-0.8-1.1-1c-0.5-0.3-1.2-0.5-2.2-0.7
	c-1-0.2-1.6-0.4-1.9-0.7c-0.2-0.2-0.3-0.4-0.3-0.6c0-0.2,0.1-0.5,0.3-0.6c0.3-0.3,0.8-0.4,1.4-0.4c0.6,0,1,0.1,1.3,0.3
	c0.3,0.2,0.5,0.6,0.6,1.1l2-0.1c0-0.9-0.3-1.7-1-2.2c-0.6-0.6-1.6-0.8-2.8-0.8c-0.8,0-1.5,0.1-2,0.3c-0.5,0.2-0.9,0.6-1.2,1
	c-0.3,0.5-0.4,1-0.4,1.5c0,0.8,0.3,1.5,0.9,2c0.4,0.3,1.2,0.7,2.3,1c0.8,0.2,1.4,0.4,1.6,0.4c0.3,0.1,0.6,0.3,0.7,0.4
	c0.2,0.2,0.2,0.4,0.2,0.6c0,0.3-0.1,0.7-0.5,1c-0.3,0.3-0.8,0.4-1.5,0.4s-1.1-0.1-1.5-0.4s-0.6-0.8-0.7-1.5l-2,0.2
	c0.1,1.1,0.5,2,1.2,2.7c0.7,0.6,1.7,0.9,2.9,0.9c0.9,0,1.6-0.1,2.2-0.4c0.6-0.3,1-0.7,1.3-1.1C297.6,485.8,297.7,485.2,297.7,484.7z
	 M308.7,482.5c0-1.6-0.4-2.9-1.3-3.8c-0.9-0.9-2.1-1.3-3.6-1.3c-0.8,0-1.5,0.1-2.1,0.4c-0.4,0.2-0.9,0.5-1.3,0.9
	c-0.4,0.4-0.7,0.9-0.9,1.3c-0.3,0.7-0.4,1.6-0.4,2.6c0,1.6,0.4,2.8,1.3,3.8c0.9,0.9,2.1,1.3,3.6,1.3c1.5,0,2.7-0.4,3.5-1.3
	C308.2,485.4,308.7,484.2,308.7,482.5z M312.1,482.4c0-1.2,0.2-2.1,0.7-2.6c0.5-0.5,1.1-0.8,1.8-0.8c0.5,0,1,0.1,1.3,0.4
	c0.4,0.3,0.7,0.7,0.8,1.2l2-0.5c-0.2-0.8-0.6-1.5-1-1.9c-0.8-0.7-1.8-1.1-3-1.1c-1.4,0-2.6,0.5-3.4,1.4c-0.9,1-1.3,2.2-1.3,3.9
	c0,1.6,0.4,2.9,1.3,3.8s2,1.3,3.3,1.3c1.1,0,1.9-0.3,2.7-0.8c0.7-0.5,1.2-1.3,1.5-2.4l-2-0.6c-0.1,0.7-0.4,1.3-0.8,1.6
	c-0.4,0.3-0.9,0.5-1.4,0.5c-0.7,0-1.3-0.2-1.8-0.8C312.3,484.5,312.1,483.6,312.1,482.4z M319,438.8h-0.4l-5.5,0h-1.5l0.2-4.1h-5.2
	l-0.2,4.1h-5.8v2.4h5.6l-1.5,28.3h5.2l1.5-28.3h1.7v24.4c0,1-0.8,1.8-1.8,1.8H311v2.2h2.2h0.3h3.5c1.1,0,2.1-0.9,2.1-2.1V438.8z
	 M322.4,477.5h-2v10h2V477.5z M323,443.3h-2.8v25.9h2.8V443.3z M333.4,487.5l-4-10h-2.1l-3.9,10h2.1l0.8-2.3h4l0.9,2.3H333.4z
	 M340.7,477.5h-8v1.7h3v8.3h2v-8.3h2.9V477.5z M343.9,477.5h-2v10h2V477.5z M355.2,482.5c0-1.6-0.4-2.9-1.3-3.8
	c-0.9-0.9-2.1-1.3-3.6-1.3c-0.8,0-1.5,0.1-2.1,0.4c-0.4,0.2-0.9,0.5-1.3,0.9c-0.4,0.4-0.7,0.9-0.9,1.3c-0.3,0.7-0.4,1.6-0.4,2.6
	c0,1.6,0.4,2.8,1.3,3.8c0.9,0.9,2.1,1.3,3.6,1.3c1.5,0,2.7-0.4,3.5-1.3C354.7,485.4,355.2,484.2,355.2,482.5z M364.7,477.5h-1.9v6.7
	l-4.1-6.7h-2v10h1.9V481l4,6.6h2V477.5z M364.8,443.4l-6.9-8.4h-1.5h-5.9h-6.2h-7.4h-3.2l1.3,2.2l-5,6.2h7.4l5-6h10.1l4.9,6H364.8z
	 M365.6,330.2c0-10-8.1-18-18-18s-18,8.1-18,18c0,10,8.1,18,18,18S365.6,340.1,365.6,330.2z M738.7,313.3
	c0-34.2-27.7-61.9-61.9-61.9H461.1c-10.9,0-19.7,8.8-19.7,19.7v215.7c0,34.2,27.7,61.9,61.9,61.9h215.7c10.9,0,19.7-8.8,19.7-19.7
	V313.3z M364.1,330.2c0,9.1-7.4,16.5-16.5,16.5s-16.5-7.4-16.5-16.5s7.4-16.5,16.5-16.5S364.1,321.1,364.1,330.2z M342.5,316.3
	l5.2,1.9l5-1.9l-1.3-1.2l-7.2-0.2L342.5,316.3z M332.7,330.8l3.5-4.1l-0.1-5.5l-1.9,1.1l-2.2,6.8L332.7,330.8z M343.7,344.1
	l-2.9-4.5l-5.3-1.5l0.5,2.1l5.9,4L343.7,344.1z M352.1,336.8l3-7.7l-7.2-6.5l-7.2,5.8l3,8.3H352.1z M360,338.2l-5.3,1.5l-2.9,4.5
	l1.8,0.2l5.9-4L360,338.2z M359.4,326.8l3.5,4.1l0.8-1.7l-2.2-6.8l-1.9-1.1L359.4,326.8z M215.1,479c-0.8,0-1.5,0.3-2,0.9
	c-0.5,0.6-0.8,1.5-0.8,2.6c0,1.1,0.3,2,0.8,2.6c0.5,0.6,1.2,0.9,2,0.9c0.8,0,1.5-0.3,2-0.9c0.5-0.6,0.8-1.5,0.8-2.6
	c0-1.1-0.3-2-0.8-2.6C216.6,479.3,215.9,479,215.1,479z M204.2,479c-0.8,0-1.5,0.3-2,0.9c-0.6,0.6-0.8,1.5-0.8,2.6
	c0,1.1,0.3,2,0.8,2.6c0.5,0.6,1.2,0.9,2,0.9c0.8,0,1.5-0.3,2-0.9c0.5-0.6,0.8-1.5,0.8-2.6c0-1.1-0.3-2-0.8-2.6
	C205.7,479.3,205,479,204.2,479z M481.1,420.7l21.3-14.5c0,0-2.7-7.1-1.3-11.8c1.3-4.7,5.7-17.9,7.1-20.9c1.3-3,2-6.1-5.7-2
	s-7.8,4.4-10.1,4.4c-2.4,0-4-2.7-5.1-6.4s-2.7-1-3.4,1.7s-1.4,7.9-1.7,9.9c-0.2,2-2.4,8.5-6.3,12.1c-3.9,3.6-4,5.7-3.5,7.1
	c0.5,1.4,5.6,4.7,6.7,8.1C480.1,411.7,480.6,412.4,481.1,420.7z M555.8,380.4c0,0,25.7-8.1,50-10.6c0,0,0.1-5.9,1.6-8.8
	c1.6-2.8,4.8-5.5,9.6-8.9c4.8-3.4,6.4-6.7,1.7-8.9c-4.6-2.2-8.2-2.7-13.2-4.1c-5.1-1.4-12.4-5.3-17.2-13.2c-4.8-7.9-6-9.7-8.5-9.7
	s-3.8,2.5-4.9,4.7s-5.4,10-10.3,11.4c-4.9,1.4-6.8,1.9-12.6,2.9s-10.2,1.8-10.4,3.9c-0.2,2.1,2.5,4.2,4.6,5.8
	c2,1.6,9.3,6.8,11.1,13.3C559.1,364.6,556.8,376.6,555.8,380.4z M677.1,345c1.9,2,5.2,5.8,6.1,6.6s1.4,0,1.1-2.2
	c-0.3-2.2-1.4-7.6-2.2-10.5s-2.2-7.7,0.8-8.7c3-1,3.5-1.8,1.6-4.7s-7.1-8.2-14.6-15c-7.5-6.8-17.3-14.5-20.4-16.1
	c-3.1-1.6-2.9-0.3-2.5,1.3s-0.4,3.6-3.8,3.6c-3.3,0-14.1-1.7-16.6-1.8c-2.4-0.1-2,1.3,0,2.5s10.2,5.6,15.1,11.7
	c4.9,6.2,4,14,3.8,17.1s1.3,6.8,6.6,6.2s11.6-2.5,16.5,1.7S677.1,345,677.1,345z M586.5,299c6.4,0,15,2.4,20.3,4s5.5,0,3.1-3.4
	c-2.4-3.4-5.4-6.7-5.2-9.5c0.1-2.8,4.9-4.4,5.9-4.9s1.6-1.4-3.1-2c-4.7-0.6-17-2.1-22.8-2.5c-5.8-0.4-13.5-0.7-16.4-0.7
	s-2.5,1.3-2.6,1.7s-0.2,2.2-3.1,3.1c-2.8,0.9-13.4,3-13.9,4.4c-0.5,1.4,6.1,0.9,8.8,1.5c2.8,0.6,7.5,1.9,7.2,6.6
	c-0.3,4.6-0.4,5.7,0.2,6.3c0.7,0.6,2.2,1.8,7.6-0.6S581,299,586.5,299z M496.7,323.4c4.5,5.7,3.3,11.3,1,20.5s0,8.6,3.1,5.8
	c10.3-9.3,15.4-8.8,22.6-4.9c7.2,3.8,11.9,4.2,8.8-7.3c-3.1-11.4,1.7-16.3,8.1-22.3c6.4-6.1,5.8-7.1-3.4-5.6s-13-1.7-16.5-5.1
	c-3.5-3.4-4.7-2.4-6.2,0s-3.8,6.3-6.2,8.3C501.2,318.4,492.1,317.7,496.7,323.4z M700.9,362.3c-34.3,2.3-79.1,9.4-127.9,28.9
	c-38.6,15.4-69.3,34.4-92.2,51.2c6.8,17.4,17.8,33.1,31.6,45.8c10.4-10.1,22.7-20.9,37-31.9c16.7-12.7,46.1-34.9,90.2-52.1
	c16.6-6.5,39.3-13.8,67.2-18.5C705.6,377.7,703.6,369.8,700.9,362.3z M629.3,413.7c-27.3,12.1-49.6,26-67,38.6
	c-11.4,8.2-20.4,19.6-23.5,22.9c-7,7.5-12.8,14.4-17.5,20.5c10.5,8,22.2,14.3,34.7,18.5c14-23.7,33.6-50.1,61-74.7
	c22.3-20.1,44.6-34.2,63.5-44.2C665,399.6,647.7,405.5,629.3,413.7z M707.8,397.7c-9.5,2.4-19.8,5.4-30.8,9.5
	c-13.1,4.9-24.7,10.2-34.6,15.5c-12.5,9.8-26.7,22.6-41.1,38.8c-13.8,15.7-24.5,30.8-32.5,44c22.8-15.2,52.8-31.8,90-44.4
	c13.7-4.6,26.7-8.2,39-10.9c6.5-14.5,10.1-30.7,10.1-47.6C707.9,400.9,707.9,399.3,707.8,397.7z M646.2,470.6
	c-11.3,4.4-21.9,8.9-31.9,13.5c-7.3,5.6-14.9,11.9-22.7,19.2c-5.8,5.3-11,10.6-15.8,15.7c4.9,0.7,9.8,1.1,14.8,1.1
	c9.5,0,18.7-1.1,27.5-3.2c6.2-9.3,14.2-19.6,24.7-29.9c13.3-13,26.5-22,37.1-28.1C669.1,462.2,657.9,466.1,646.2,470.6z
	 M666.2,478.2c-9,4.6-17.2,9.4-24.5,14.1c-2.8,3.1-5.9,6.9-9,11.4c-2.5,3.8-4.6,7.4-6.2,10.7c25.4-8.2,47-24.7,61.5-46.4
	C681.1,471,673.8,474.3,666.2,478.2z"/>
</svg>
