<?xml version="1.0" encoding="utf-8"?>
<!-- Generator: Adobe Illustrator 22.1.0, SVG Export Plug-In . SVG Version: 6.00 Build 0)  -->
<svg version="1.1" id="图层_1" xmlns="http://www.w3.org/2000/svg" xmlns:xlink="http://www.w3.org/1999/xlink" x="0px" y="0px"
	 viewBox="0 0 800 800" style="enable-background:new 0 0 800 800;" xml:space="preserve">
<style type="text/css">
	.st0{fill-rule:evenodd;clip-rule:evenodd;fill:#6A1014;}
	.st1{fill:url(#SVGID_1_);}
	.st2{fill:url(#SVGID_2_);}
	.st3{fill:#E95504;}
	.st4{fill:#EF8200;}
	.st5{fill:#F6AA00;}
	.st6{fill:url(#SVGID_3_);}
	.st7{fill:#E50012;}
	.st8{fill:#FFFFFF;}
</style>
<g>
	<path class="st0" d="M710,184.2l-12.8-8.8c0,0-26.4,24.2-55,24.2c-11.4,0-26-5.1-26-17.2c0-19.8,23.1-36.3,23.1-36.3l-16.5-8.4
		c0,0-35.6,30.4-77.8,30.4c-23.8,0-38.5-10.6-38.5-29c0-18.3,9.9-30.8,9.9-30.8l-27.9-3.7c-12.8,23.5-43.7,48.8-88.5,48.8
		c-44.8,0-75.6-25.3-88.4-48.8l-27.9,3.7c0,0,9.9,12.5,9.9,30.8c0,18.3-14.7,29-38.5,29c-42.2,0-77.8-30.4-77.8-30.4l-16.5,8.4
		c0,0,23.1,16.5,23.1,36.3c0,12.1-14.7,17.2-26,17.2c-28.6,0-55-24.2-55-24.2L90,184.2c0,0,62.7,72.4,62.7,202.3
		c0,72.6-6.1,91.3-6.1,117.7c0,26.4,7.7,134.8,253.3,244.8c245.6-110,253.4-218.4,253.4-244.8c0-26.4-6.1-45.1-6.1-117.7
		C647.3,256.7,710,184.2,710,184.2z"/>
	<radialGradient id="SVGID_1_" cx="399.9663" cy="326.0297" r="232.9549" gradientUnits="userSpaceOnUse">
		<stop  offset="0" style="stop-color:#FFF000"/>
		<stop  offset="1" style="stop-color:#F29600"/>
	</radialGradient>
	<path class="st1" d="M641.7,386.5c0-68.4,27-159.6,27-159.6s-85.4-62.7-268.8-62.7c-183.4,0-268.8,62.7-268.8,62.7
		s27,91.2,27,159.6c0,45.6-2.4,70.4-4.2,88.5c-1.1,11-1.9,19.6-1.9,29.3c0,38.3,24.2,138.1,247.8,238.9
		c223.6-100.8,247.8-200.6,247.8-238.9c0-9.7-0.8-18.3-1.9-29.3C644.1,456.9,641.7,432.1,641.7,386.5z"/>
	<radialGradient id="SVGID_2_" cx="399.9657" cy="512.7761" r="220.825" gradientUnits="userSpaceOnUse">
		<stop  offset="0" style="stop-color:#E50012"/>
		<stop  offset="1" style="stop-color:#900000"/>
	</radialGradient>
	<path class="st2" d="M400,301.7c-110,0-184.8,22.6-227,40.7c1.7,15,2.8,30,2.8,44.1c0,46.4-2.4,71.7-4.2,90.1
		c-1,10.5-1.8,18.8-1.8,27.6c0,14.9,4.7,45.8,36.2,85c38.4,47.8,103.6,93,194,134.6c90.4-41.6,155.7-86.8,194-134.6
		c31.5-39.2,36.2-70.1,36.2-85c0-8.8-0.8-17.1-1.8-27.6c-1.8-18.5-4.2-43.8-4.2-90.2c0-14.2,1.1-29.2,2.8-44.1
		C584.7,324.3,510,301.7,400,301.7z"/>
	<path class="st3" d="M427.8,78.7c0,15.3-12.4,27.8-27.8,27.8c-15.3,0-27.8-12.4-27.8-27.8s12.4-27.8,27.8-27.8
		C415.4,50.9,427.8,63.3,427.8,78.7z"/>
	<circle class="st4" cx="234.4" cy="92.8" r="22.6"/>
	<path class="st5" d="M137.5,130.5c0,10.8-8.8,19.6-19.6,19.6c-10.8,0-19.6-8.8-19.6-19.6c0-10.8,8.8-19.6,19.6-19.6
		C128.7,111,137.5,119.7,137.5,130.5z"/>
	<path class="st4" d="M542.9,92.8c0,12.5,10.1,22.6,22.6,22.6c12.5,0,22.7-10.1,22.7-22.6s-10.1-22.6-22.7-22.6
		C553.1,70.2,542.9,80.3,542.9,92.8z"/>
	<path class="st5" d="M662.5,130.5c0,10.8,8.8,19.6,19.6,19.6c10.8,0,19.6-8.8,19.6-19.6c0-10.8-8.8-19.6-19.6-19.6
		C671.3,111,662.5,119.7,662.5,130.5z"/>
	<radialGradient id="SVGID_3_" cx="399.9657" cy="504.5464" r="165.4959" gradientUnits="userSpaceOnUse">
		<stop  offset="0" style="stop-color:#D7000F"/>
		<stop  offset="1" style="stop-color:#900000"/>
	</radialGradient>
	<path class="st6" d="M364.2,302.6v404c-24.9-12.7-47.6-25.7-67.9-39V309C316.9,306,339.6,303.7,364.2,302.6z M173,342.4
		c1.7,15,2.8,30,2.8,44.1c0,46.4-2.4,71.7-4.2,90.1c-1,10.5-1.8,18.8-1.8,27.6c0,14.9,4.7,45.8,36.2,85c6.5,8.1,13.8,16.1,21.8,24.1
		v-290C205.7,329.5,187.4,336.2,173,342.4z M435.7,302.6v404c24.9-12.7,47.6-25.7,67.9-39V309C483,306,460.4,303.7,435.7,302.6z
		 M594,589.3c31.5-39.2,36.2-70.1,36.2-85c0-8.8-0.8-17.1-1.8-27.6c-1.8-18.5-4.2-43.8-4.2-90.2c0-14.2,1.1-29.2,2.8-44.1
		c-14.4-6.2-32.7-12.9-54.8-19v290C580.2,605.4,587.5,597.4,594,589.3z"/>
	<g>
		<path class="st7" d="M370.8,682.8c-0.7,0-1.3-0.2-1.9-0.5c-1.8-1.1-2.6-3.5-1.4-5.3c21.7-31.1,42.9-35.3,42.9-35.3
			s-20.2,10.1-36.3,39.2C373.5,682.2,372.2,682.8,370.8,682.8L370.8,682.8z"/>
		<path class="st7" d="M316.9,659.3c0,0,26.1-30.5,67.9-18.7C384.9,640.6,361.5,672.5,316.9,659.3z"/>
		<path class="st7" d="M271.3,640.3c0,0,31.6-29.2,76.2-12.9C347.5,627.4,320.5,655.4,271.3,640.3z"/>
		<path class="st7" d="M229.7,602.9c0,0,42.6-20.9,77.9,9.6C307.6,612.5,268.5,634.2,229.7,602.9z"/>
		<path class="st7" d="M220.4,547c0,0,45.1,1.1,64.9,44C285.3,591,241,592.7,220.4,547z"/>
		<path class="st7" d="M187.6,497c0,0,43.5,2.7,60.8,45.9C248.4,542.9,207.4,544.3,187.6,497z"/>
		<path class="st7" d="M195.1,438.4c0,0,35.2,19,38,67.1C233,505.5,198.1,489.5,195.1,438.4z"/>
		<path class="st7" d="M192.6,380.3c0,0,31.4,24.2,31.6,73.2C224.2,453.5,188.7,430.1,192.6,380.3z"/>
		<path class="st7" d="M224.5,336.9c0,0,20.4,35.8,2.8,81.2C227.2,418,206.9,382.5,224.5,336.9z"/>
		<path class="st7" d="M429.1,682.8c0.7,0,1.3-0.2,1.9-0.5c1.8-1.1,2.6-3.5,1.4-5.3c-21.7-31.1-42.9-35.3-42.9-35.3
			s20.2,10.1,36.3,39.2C426.5,682.2,427.8,682.8,429.1,682.8L429.1,682.8z"/>
		<path class="st7" d="M483,659.3c0,0-26.1-30.5-67.9-18.7C415.1,640.6,438.4,672.5,483,659.3z"/>
		<path class="st7" d="M528.7,640.3c0,0-31.6-29.2-76.2-12.9C452.5,627.4,479.4,655.4,528.7,640.3z"/>
		<path class="st7" d="M570.2,602.9c0,0-42.6-20.9-77.9,9.6C492.4,612.5,531.4,634.2,570.2,602.9z"/>
		<path class="st7" d="M579.6,547c0,0-45.1,1.1-64.9,44C514.6,591,558.9,592.7,579.6,547z"/>
		<path class="st7" d="M612.3,497c0,0-43.5,2.7-60.8,45.9C551.5,542.9,592.5,544.3,612.3,497z"/>
		<path class="st7" d="M604.9,438.4c0,0-35.2,19-38,67.1C566.9,505.5,601.9,489.5,604.9,438.4z"/>
		<path class="st7" d="M607.4,380.3c0,0-31.4,24.2-31.6,73.2C575.7,453.5,611.2,430.1,607.4,380.3z"/>
		<path class="st7" d="M575.4,336.9c0,0-20.4,35.8-2.8,81.2C572.7,418,593,382.5,575.4,336.9z"/>
	</g>
	<path class="st8" d="M264.1,473c0,0-20.4-35.6-20.4-59.1c0-32.6,42.9-36.7,56.5-44c13.6-7.3,24.2-39.2,90.6-39.2
		c70.1,0,119.9,64.9,123.6,64.9c3.7,0,7-18,7-18s21.6,14.3,21.6,45.9c0,31.5-24.2,42.2-24.2,42.2s3.7,2.6,12.1,2.6
		c12.8,0,17.6-18.3,17.6-18.3s9.2,13.9,9.2,35.6c0,21.6-14.7,51.4-46.6,51.4c-25.7,0-33.7-15.4-33.7-15.4s58.3,14.3,58.7-41.8
		c0,0-4,4.4-16.5,4.4c-19.8,0-27.5-25.3-27.5-25.3s48.5-3.8,30.1-49.9c0,0-1.8,11.7-10.6,11.7c-13.9,0-53.6-76.7-129.5-76.7
		c-46.2,0-70.9,26.7-70.9,29.1c0,2.4,3,2.7,3,2.7h59.1l-31.9,20.9c0,0-13.5-14.9-32.5-14.9c-11.6,0-33,12.4-40.3,17.6
		c-17.2,12.4-1.1,41.8-1.1,41.8s9.5-14.3,31.9-14.3s101.2,15,101.2,90.6c0,54.3-51,89.1-51,89.1s37-44.7,37-89.1
		c0-44-50.1-69.9-85.6-69.9C279.9,447.5,264.1,473,264.1,473z"/>
	<g>
		<path d="M204,245.9c-2.5,1.1-4.6,2.1-6.4,2.8l-14.7,5.8l-7.8-19.6l10.1-4c2-0.8,4.3-1.6,7-2.5l0.3-0.1l-1.7-4.4l-0.3,0.1
			c-2.2,1-4.6,2-7,3l-9.9,3.9l-2.7-6.8c-0.8-1.9-1.5-3.9-2.2-6l-0.1-0.3l-5,2l0.1,0.3c1,2.1,1.9,4.2,2.6,6l11.9,30.3l-10.7,4.2
			c-2.1,0.8-4.4,1.6-6.8,2.5l-0.3,0.1l1.7,4.4l0.3-0.1c2.5-1.1,4.7-2.1,6.6-2.8l29.9-11.8c1.9-0.8,4.1-1.6,6.6-2.4l0.3-0.1l-1.7-4.4
			L204,245.9z"/>
		<path d="M247.7,219c-2.4-0.8-4.4-2.3-5.9-4.3l4-1c1.4-0.4,3.1-0.8,5.2-1.2l0.3-0.1l-1-4l-0.3,0.1c-1.9,0.6-3.7,1.2-5.3,1.6
			l-4.1,1.1l-1.7-6.5l2.5-0.7c1.8-0.5,3.7-0.9,5.6-1.3l0.3-0.1l-1-3.8l-0.3,0.1c-1.9,0.6-3.9,1.2-5.7,1.7l-2.3,0.6
			c-0.6-2.4-1.1-4.5-1.4-6.2l-0.1-0.3l-4.4,1.1l0.1,0.3c0.5,1.5,1.1,3.6,1.8,6l-6.3,1.6c-0.6-2.4-1.1-4.5-1.4-6.2l-0.1-0.3l-4.4,1.1
			l0.1,0.3c0.6,1.8,1.2,3.8,1.8,6.1l-1.7,0.5c-1.5,0.4-3.3,0.8-5.4,1.2l-0.3,0.1l1,3.8l0.3-0.1c2-0.7,3.7-1.2,5.1-1.6l1.7-0.5
			l1.7,6.5l-1.9,0.5c-2.7,0.7-5.1,1.3-7.2,1.7l-0.3,0.1l1,4l0.3-0.1c2.2-0.7,4.6-1.4,7.1-2.1l1.3-0.3c-0.6,2.2-1.7,4.4-3,6.4
			c-1.5,2.1-3.1,3.8-4.9,5l-0.4,0.3l0.4,0.2c1.5,0.7,2.7,1.5,3.8,2.4l0.2,0.2l0.2-0.2c1-1.2,2.1-2.6,3.3-4.3l3.2,12.4
			c0.6,2.2,1.9,3.2,4,3.2c0.6,0,1.4-0.1,2.1-0.3l14.2-3.7c1.7-0.4,2.8-1.1,3.4-2c0.6-0.9,0.9-2.7,1.1-5.5l0-0.3l-0.3,0
			c-1.5,0.1-2.9-0.1-4.1-0.8l-0.4-0.2l0,0.5c0.2,2.8,0,3.8-0.2,4.2c-0.3,0.5-1.1,0.8-2.2,1.1l-11,2.9c-0.4,0.1-0.7,0.2-1,0.2
			c-1,0-1.5-0.5-1.8-1.5l-1-3.7l15.2-4l-0.1-0.3c-0.6-1.9-1.1-3.4-1.4-4.5l-1-3.8c1.3,0.7,2.6,1.3,3.8,1.7c1.4,0.4,3,0.8,4.8,1
			l0.3,0l0-0.3c0-1.5,0.6-3,1.7-4.6l0.4-0.5l-0.7,0.1C252.8,220.1,250.2,219.9,247.7,219z M230.4,213.9l-1.6-6.3l6.1-1.6l1.6,6.3
			L230.4,213.9z M241.9,220.5l-13.1,3.4c1-2.2,1.7-4.3,2-6.3l7-1.8C239.1,217.8,240.5,219.4,241.9,220.5z M241.1,224.5l1.1,4.1
			l-10.8,2.8l-1.1-4.1L241.1,224.5z"/>
		<path d="M208.5,210.7c1.4,0.8,2.7,1.6,3.9,2.6l0.3,0.2l0.1-0.3c0.6-1.4,1.3-2.7,2.2-3.7l0.2-0.2l-0.2-0.2
			c-1.1-0.7-2.3-1.5-3.8-2.1c-1.5-0.7-2.9-1.3-4.4-2l-0.2-0.1l-0.1,0.2c-0.6,1.1-1.2,2.4-1.8,3.7l-0.1,0.3l0.3,0.1
			C205.9,209.5,207.1,210,208.5,210.7z"/>
		<path d="M214.6,225.3l0.1-0.3c0.4-1.5,0.9-2.9,1.5-4l0.1-0.3l-0.3-0.1c-1.5-0.6-2.9-1.2-4.4-1.6c-1.5-0.5-2.9-0.9-4.3-1.4
			l-0.3-0.1l-0.1,0.3c-0.4,1.4-0.8,2.7-1.3,3.9l-0.1,0.3l0.3,0.1c1.6,0.4,3.1,0.9,4.4,1.4c1.3,0.5,2.6,1.1,4.1,1.7L214.6,225.3z"/>
		<path d="M215.3,229.9l-0.4-0.2l0,0.5c0,3.1-0.3,6.1-0.8,8.8c-0.5,2.7-1.1,5.3-1.9,7.6l-0.1,0.3l0.3,0c1.7,0.2,3.5,0.7,5.2,1.4
			l0.4,0.1l0-0.4c0.2-3,0.4-6.1,0.7-9.2c0.2-3.1,0.6-5.4,1-6.9l0.1-0.3l-0.3-0.1C218,231.2,216.6,230.6,215.3,229.9z"/>
		<path d="M302.6,224c-2.2-0.4-4.2-1.2-5.9-2.4l6.7-1.1c2.3-0.4,4.6-0.7,6.9-0.9l0.3,0l-0.6-3.8l-0.3,0.1c-2.3,0.5-4.6,0.9-6.9,1.3
			l-12.6,2c-0.2-1.1-0.3-2.5-0.5-4.2l0-0.3l-4.9,0.8l0.1,0.3c0.4,1.6,0.7,3,0.9,4.2l-12.4,2c-3.1,0.5-5.5,0.8-7.1,0.9l-0.3,0
			l0.6,3.8l0.3-0.1c2.4-0.5,4.8-1,7.1-1.3l6.8-1.1c-1.2,1.9-3,3.6-5.5,5c-2.7,1.6-5.4,2.8-8,3.7l-0.5,0.2l0.4,0.3
			c1.5,1.1,2.7,2.2,3.4,3.3l0.2,0.2l0.2-0.2c1.6-1.1,3.2-2.1,4.7-2.9c1.5-0.9,2.9-1.8,4.2-2.9c1.2-1,2.4-2.2,3.4-3.5
			c1-1.2,1.9-2.6,2.7-4.1l0.4-0.1l0.7,4.4c0.3,2.1,0.6,4.2,0.8,6.1l0,0.3l5.1-0.8l-0.1-0.3c-0.6-2-1-4-1.4-6l-0.7-4.4l0.6-0.1
			c1.1,0.9,2.2,1.7,3.2,2.4c1.1,0.7,2.4,1.4,3.8,2c1.4,0.6,3.1,1.2,5,1.6c1.9,0.5,4.1,1,6.7,1.5l0.3,0.1l0.1-0.3
			c0.3-1.4,0.9-2.9,1.8-4.4l0.2-0.4l-0.4,0C308.2,224.8,305.1,224.5,302.6,224z"/>
		<path d="M268.6,203.6l1.3,8.3c0.3,2,0.6,4.3,0.9,6.7l0,0.3l4.6-0.7l-0.3-2l25.6-4.1c2-0.3,4-0.6,6.1-0.8l0.3,0l-0.6-3.8l-0.3,0.1
			c-2.1,0.5-4.2,0.9-6.3,1.2l-10.1,1.6l-0.4-2.5l8.3-1.3c1.9-0.3,3.9-0.6,6.1-0.8l0.3,0l-0.6-3.8l-0.3,0.1c-2.1,0.5-4.2,0.9-6.1,1.2
			l-8.3,1.3l-0.5-2.9l7.9-1.3c1.7-0.3,3.6-0.5,5.7-0.7l0.3,0l-0.6-3.8l-0.3,0.1c-2,0.5-3.9,0.8-5.7,1.1l-7.9,1.3l-0.4-2.7l10.5-1.7
			c1.7-0.3,3.9-0.5,6.5-0.8l0.3,0l-0.6-3.8l-0.3,0.1c-2.4,0.5-4.6,0.9-6.5,1.2l-10.8,1.7l0.2-0.1c1.1-1,2.1-1.9,3.1-2.6l0.3-0.2
			l-0.3-0.2c-0.8-0.7-1.7-1.5-2.7-2.3c-0.9-0.8-1.6-1.4-1.9-1.8l-0.2-0.2l-0.2,0.2c-1.2,1-2.2,2-2.9,2.8l-0.2,0.2l0.2,0.2
			c0.8,0.6,1.4,1.2,2,1.8c0.6,0.7,1.4,1.4,2.4,2.1l0.2,0.1l-13.1,2.1c0.4-1,0.8-1.8,1.2-2.6c0.4-0.8,1-1.6,1.7-2.4l0.3-0.3l-0.4-0.1
			c-2.2-0.6-3.9-1.2-5.3-1.7l-0.3-0.1l-0.1,0.3c-0.5,1.9-1.1,3.7-1.7,5.5c-0.6,1.8-1.3,3.4-2.1,5c-0.8,1.6-1.6,3.1-2.5,4.5
			c-0.9,1.4-1.8,2.7-2.7,3.8l-0.2,0.3l0.4,0.1c1.5,0.6,2.8,1.2,3.8,1.9l0.2,0.1l0.1-0.2c0.5-0.9,1.1-1.8,1.6-2.5
			C267.8,205.1,268.2,204.4,268.6,203.6z M272.6,200.6l-0.4-2.7l10.9-1.7l0.4,2.7L272.6,200.6z M273.6,206.9l-0.5-2.9l10.9-1.7
			l0.5,2.9L273.6,206.9z M274.6,212.8l-0.4-2.5l10.9-1.7l0.4,2.5L274.6,212.8z"/>
		<path d="M364.3,213.4l-1.6-21.6c-0.3-3.7-0.5-7.4-0.6-10.9l0-0.3l-41.5,3.1l0,0.3c0.4,3.7,0.8,7.4,1,10.9l1.6,21.6
			c0.3,3.9,0.5,7.8,0.6,11.5l0,0.3l4.9-0.4l-0.2-3.3l31.8-2.4l0.2,2.9l4.9-0.4l0-0.3C365,221,364.6,217.3,364.3,213.4z M360,218
			l-31.8,2.4l-2.4-32.8l31.8-2.4L360,218z"/>
		<path d="M355.3,192.9c-1.9,0.3-4.2,0.5-6.7,0.7c-0.2-2.7-0.2-4.8-0.1-6.3l0-0.3l-5.2,0.4l0,0.3c0.2,1.5,0.5,3.6,0.7,6.3l-8,0.6
			c-1.9,0.1-3.9,0.2-6,0.2l-0.3,0l0.3,4.5l0.3,0c2.2-0.3,4.3-0.5,6.1-0.7l4.7-0.3c-1.1,2.5-2.6,5-4.3,7.4c-1.8,2.5-4.5,4.9-8,7.2
			l-0.4,0.3l0.5,0.2c1.5,0.7,2.7,1.6,3.6,2.7l0.2,0.2l0.2-0.2c2.7-2.4,5.1-4.9,6.9-7.5c1.7-2.3,3.2-5,4.5-8.1l0.7,9.9
			c0.1,1.2-0.1,1.9-0.5,2c-0.4,0.1-1.4,0.3-4.4,0.3l-0.5,0l0.3,0.4c1,1.5,1.6,3,1.7,4.3l0,0.3l0.3,0c2.2-0.3,4.1-0.8,5.7-1.4
			c1.7-0.6,2.4-2.1,2.1-4.2l-1.1-14.5c2.4-0.2,4.7-0.3,6.7-0.3l0.3,0l-0.3-4.5L355.3,192.9z"/>
		<path d="M412.5,217.6c-3.1,0.2-6.7,0.2-10.6,0l-0.1-9.8l10.2-0.1c1.6,0,3.4,0.1,5.6,0.2l0.3,0l0-4.3l-0.3,0
			c-2.4,0.2-4.5,0.2-6.2,0.2l-9.6,0.1l-0.1-7.7l13-0.1l0-0.3c-0.2-2.7-0.2-5.5-0.3-8.4c0-2.9,0-5.5,0.2-7.8l0-0.3l-30.5,0.2l0,0.3
			c0.2,2.3,0.2,5,0.3,7.8c0,2.8,0,5.7-0.1,8.4l0,0.3l12.8-0.1l0.1,20.6c-2.4-1-4.3-2-5.7-3.1c-1.4-1.1-2.6-2.2-3.3-3.2
			c0.6-4.5,1.3-7.5,2-8.8l0.1-0.4h-0.4c-1.6,0-3.3-0.2-5.2-0.6l-0.3-0.1l0,0.3c0,3.7-0.3,6.7-1.1,9c-0.7,2.3-1.6,4.4-2.5,6.3
			c-0.9,1.8-2.1,3.4-3.6,4.8l-0.3,0.3l0.3,0.2c1.5,0.8,2.9,1.8,4.1,2.8l0.2,0.2l0.2-0.3c1.2-1.9,2.2-3.7,3-5.2l2.2-4.4
			c3.5,3.3,6.9,5.3,10.1,6c3.2,0.7,6.8,1.2,10.6,1.5c3.8,0.2,8.2,0.4,13.1,0.5l0.3,0l0-0.3c0-1.1,0.1-2.1,0.3-2.9
			c0.2-0.9,0.5-1.6,0.9-2.3l0.3-0.5l-0.5,0.1C418.7,217.1,415.6,217.4,412.5,217.6z M410,192.4l-20.9,0.1l-0.1-9.1l20.9-0.1
			L410,192.4z"/>
		<path d="M472.9,187.8l0.1,0.3l3.7-2.1l-0.1-0.2c-1.2-2.1-2.5-4.1-3.7-5.9l-0.1-0.2l-0.2,0.1c-1,0.6-2.1,1.2-3.2,1.8l-0.3,0.2
			l0.2,0.3C470.5,183.6,471.7,185.5,472.9,187.8z"/>
		<path d="M455.9,205l0.2-0.1c1.1-0.6,2.2-1.2,3.3-1.8l0.2-0.1l-0.1-0.2c-1.4-2.5-2.7-4.8-4.1-6.9l-0.2-0.2l-0.2,0.2
			c-0.8,0.6-1.9,1.2-3,1.8l-0.3,0.1l0.2,0.3c1.3,2.1,2.6,4.4,3.8,6.9L455.9,205z"/>
		<path d="M470.3,208.8c1.7-1.2,3.3-2.6,4.9-4.2c1.6-1.6,3.1-2.7,4.5-3.4l0.4-0.2l-0.3-0.3c-1.4-1.2-2.7-2.3-3.7-3.4l-0.2-0.2
			l-0.2,0.3c-1.9,3-4.3,5.6-7.1,7.7c-1-1.7-1.8-3.6-2.2-5.8l0.5-6.7l6.3,0.5c2,0.1,3.9,0.4,5.7,0.6l0.3,0l0.3-4.1l-0.6,0
			c-1.7,0-3.5-0.1-5.5-0.2l-6.3-0.5c0.2-4.4,0.6-7.4,1.1-9.1l0.1-0.3l-5-0.4v0.3c0,1.8-0.2,4.9-0.5,9.2c-5.2-0.4-8.7-0.7-10.4-1
			l-0.3,0l-0.3,3.8l0,0.3h0.3c1.8,0,5.3,0.2,10.4,0.6l-0.7,10.5c-2,3-4.2,5.8-6.7,8.3c-2.4,2.5-4.9,4.6-7.4,6.4l-0.4,0.3l0.4,0.2
			c1.4,0.6,2.6,1.6,3.4,2.8l0.2,0.3l0.2-0.3c2.1-2.3,4-4.5,5.7-6.4c1.5-1.7,2.8-3.1,3.9-4.4l-0.9,12.3c0,0.1-0.1,0.5-2.3,0.5
			c-0.5,0-1.1,0-1.8-0.1l-0.5,0l0.2,0.4c0.6,1.3,1,2.7,1.3,4.4l0,0.3l0.3,0c2.1-0.3,3.7-0.6,4.9-0.9c1.2-0.4,2-1.7,2.1-4l1.1-15.1
			c2.8,6.6,6.1,12,9.8,15.9l0.2,0.2l0.2-0.2c1.2-1.4,2.4-2.3,3.8-2.7l0.5-0.2l-0.5-0.3C477,218.4,473.8,214.6,470.3,208.8z"/>
		<path d="M449.3,216.1l-0.1-0.3c-0.2-1-0.4-2.1-0.6-3.3l-0.1-0.3l-0.3,0.1c-1.6,0.7-3.6,1.3-5.9,1.9l0.9-11.7
			c1.7,0.1,3.3,0.3,5,0.6l0.3,0l0.3-4.3l-0.6,0c-1.6,0-3.2-0.1-4.8-0.2l0.7-9.9c2.3,0.2,4.4,0.4,6.1,0.6l0.3,0l0.3-4.3l-1,0
			c-1.4,0-2.7,0-4-0.1l-7.6-0.6c-1.2-0.1-2.7-0.3-4.5-0.5l-0.3,0l-0.3,4l0.1,0.3h0.3c1.7,0,3.9,0.1,6.4,0.3l-0.7,9.9
			c-2.1-0.2-4.1-0.4-5.9-0.6l-0.3,0l-0.3,4l0.1,0.3h0.3c1.7,0,3.6,0.1,5.8,0.2l-0.9,12.9c-2.7,0.9-5,1.4-6.7,1.5l-0.4,0l0.1,0.3
			c0.6,1.6,1.1,3,1.6,4.3l0.1,0.3l0.3-0.1c1.8-1,4.4-1.9,7.5-2.9c3.1-1,6-1.8,8.5-2.3L449.3,216.1z"/>
		<path d="M510.7,221.4l-0.2-0.3l-0.2,0.2c-2,2.1-5.7,4.3-10.9,6.3l-0.4,0.2l0.3,0.3c1.3,1.3,2.2,2.4,2.8,3.3l0.1,0.2l0.2-0.1
			c2.7-1.4,5-2.6,6.8-3.6c1.7-1,3.4-1.9,4.8-2.4l0.4-0.2l-0.3-0.3C512.5,223.6,511.3,222.4,510.7,221.4z"/>
		<path d="M506.8,186.7l0.3-0.3l-0.3-0.2c-1.8-1-3.1-1.9-4.1-2.9l-0.3-0.3l-0.2,0.4c-1.8,4.4-4,8.4-6.5,11.8
			c-2.5,3.4-4.7,5.7-6.6,6.9l-0.3,0.2l0.2,0.2c1,1.2,1.8,2.5,2.3,3.8l0.2,0.4l0.3-0.3c1.3-1.5,2.9-3.4,4.5-5.6l-3.2,20.5
			c-0.5,3.2-1,6-1.5,8.3l-0.1,0.3l4.9,0.8l0-0.3c0.1-2.3,0.4-5.2,0.9-8.6l4.3-27.2C503.8,190.5,505.5,187.9,506.8,186.7z"/>
		<path d="M534.7,191.2l0.1-0.3l-24.2-3.8l0,0.3c-0.3,2.6-0.6,5.4-1.1,8.4l-3.2,20.1c-1.5-0.3-3.2-0.6-4.8-1l-0.3-0.1l-0.6,4l0.3,0
			c1.9,0.2,4,0.4,6.1,0.8l21.8,3.4c1.6,0.2,3.3,0.6,5,1l0.3,0.1l0.6-4.1l-0.3,0c-1.5-0.1-3-0.3-4.4-0.5l3.2-20.3
			C533.8,196.1,534.3,193.3,534.7,191.2z M526.4,215.6l-0.5,3.3l-15.4-2.4l0.5-3.3L526.4,215.6z M527.5,208.5l-0.6,3.5l-15.4-2.4
			l0.6-3.5L527.5,208.5z M529.2,197.5l-15.4-2.4l0.6-3.7l15.4,2.4L529.2,197.5z M528.6,201.1l-0.6,3.7l-15.4-2.4l0.6-3.7
			L528.6,201.1z"/>
		<path d="M526.1,226.3c-1.6-1.2-2.9-2.2-3.7-2.9l-0.2-0.2l-0.2,0.2c-1.2,1.2-2.1,2.2-2.9,2.9l-0.3,0.2l0.3,0.2c2.1,1.3,5.3,4,9.6,8
			l0.2,0.2l0.2-0.2c0.9-1.1,1.9-2.1,3.1-3l0.3-0.2l-0.3-0.2C529.8,229.2,527.7,227.6,526.1,226.3z"/>
		<path d="M582,234.5c-1.3-2.5-2.6-4.6-3.7-6.3l-0.1-0.2l-0.2,0.1c-1.3,0.8-2.6,1.4-3.9,1.9l-0.3,0.1l0.2,0.3
			c3.8,6.6,6.2,11.3,7.3,13.8l0.1,0.3l0.3-0.2c0.8-0.6,2.4-1.3,4.5-2l0.3-0.1l-0.2-0.3C584.7,239.5,583.3,236.9,582,234.5z"/>
		<path d="M588.1,202l-0.1-0.2l-0.2,0c-2.4,0.2-6,0-10.5-0.6c-4.6-0.6-11.2-2.1-19.8-4.5l-0.2-0.1l-0.1,0.2
			c-2.8,8.2-4.6,12.8-5.3,13.8c-0.7,1-1.5,1.7-2.4,2.1l-0.2,0.1l0.1,0.2c0.7,1.7,1,3.1,1,4l0,0.3l0.3-0.1c1.6-0.3,4.2,0,7.8,0.8
			l9.1,2.4l-4.4,16.9c-0.3,1.1-0.8,1.2-1.2,1.2c-0.2,0-0.4,0-0.6-0.1c-1.1-0.4-2.4-0.8-3.8-1.3L557,237l0.2,0.6
			c0.6,1.4,0.9,3.2,0.9,5.5l0,0.2l0.2,0.1c1.4,0.4,2.9,0.6,4.5,0.6l0.6,0c1.8-0.1,3.1-1.2,3.7-3.5l4.9-18.7l9.3,2.4
			c1.6,0.4,3.7,1,6.5,1.9l0.3,0.1l1.1-4.2l-0.3-0.1c-3.2-0.7-5.4-1.2-6.6-1.5l-9.3-2.4l1-3.7c0.4-1.6,1-3.4,1.8-5.3l0.1-0.3
			l-5.2-1.3l0,0.3c-0.4,2.6-0.7,4.4-1,5.5l-1,3.9l-12.8-3.3c1-2.4,2.7-6.4,5-12c4.8,1.4,9.9,2.6,15,3.6c5.3,1,10.1,2,14.4,3l0.6,0.1
			l-0.3-0.5C589.8,206.9,589,204.9,588.1,202z"/>
		<path d="M561.3,226l-0.4-0.3c-1.1-0.7-2.5-1.9-4.1-3.6l-0.2-0.2l-0.2,0.2c-1.8,2.1-3.9,3.9-6.2,5.5c-2.3,1.6-4.7,2.9-7.3,3.9
			l-0.4,0.2l0.4,0.3c1.9,1.5,3,2.6,3.5,3.4l0.1,0.2l0.2-0.1c1.7-1,4-2.6,7-4.7c3-2.1,5.4-3.7,7.1-4.6L561.3,226z"/>
		<path d="M610,229.1l4.7-0.4l0-0.3c-0.2-2.9-0.3-4.8-0.3-5.9l0-0.3l-0.3,0c-1.4,0.1-2.7,0.1-3.9,0.3l-0.3,0l0,0.3
			c0.1,3,0.1,5.1,0.1,6L610,229.1z"/>
		<path d="M618.7,222.9c5.9,2.3,9.6,3.9,11.1,4.6l0.3,0.1l1.6-4l-0.3-0.1c-1.6-0.5-5.3-1.9-11.4-4.2c-0.3-0.1-0.6-0.2-0.8-0.3l0.2,0
			c1.4-0.2,2.8-0.2,4.4,0l0.3,0l0-0.3c0-1-0.1-3-0.2-5.8l0-0.3l-0.3,0c-1.8-0.1-3.2-0.1-4.5,0l-0.3,0l0,0.3c0.1,3,0.2,4.9,0.2,5.8
			l0,0.3c-5.5-2.2-9-3.6-10.5-4.3l-0.3-0.1l-1.6,4l0.3,0.1C608.9,219.1,612.8,220.6,618.7,222.9z"/>
		<path d="M651.6,228.4l-16.6-6.5l-0.1,0.3c-0.9,3-1.9,6-3,8.8l-9.2,23.4c-1.1,2.9-2.3,5.7-3.5,8.4l-0.1,0.3l4.2,1.6l14.7-37.4
			l6.5,2.6c-4.2,5.9-7.3,9.9-9.2,11.9l-0.1,0.1l0.1,0.2c0.9,1.8,1.8,4.2,2.6,6.9c0.8,2.8,0.9,4.8,0.4,5.9c-0.5,1.2-1.4,1.9-2.7,2.2
			c-1.3,0.3-3.5-0.2-6.4-1.5l-0.4-0.2l0.1,0.5c0.3,2.3,0.2,4.1-0.1,5.4l-0.1,0.3l0.3,0.1c3.3,0.6,6,0.7,7.9,0.3
			c1.9-0.4,3.6-1.7,4.9-3.8c1.4-2.1,1.8-4.5,1.3-7.1c-0.5-2.5-1.4-5.2-2.7-8.1c2.8-3.6,6.6-8.4,11.3-14.2L651.6,228.4z"/>
		<path d="M621.7,242.3l-18.4-7.2l-0.1,0.3c-1.1,3.3-2.3,6.4-3.5,9.4c-1.1,2.9-2.4,6-3.8,9.2l-0.1,0.3l4.2,1.6l1.8-4.6l9.9,3.9
			l-1.4,3.6l4.4,1.7l0.1-0.3c0.9-3.1,2-6.2,3.2-9.2c1.2-2.9,2.4-5.8,3.8-8.5L621.7,242.3z M615.9,244.2l-2.9,7.4l-9.9-3.9l2.9-7.4
			L615.9,244.2z"/>
		<path d="M606.7,232.2l14.4,5.7c2,0.8,3.7,1.6,5,2.4l0.3,0.2l1.7-4.2l-0.3-0.1c-1.4-0.4-3.9-1.3-7.5-2.7c2.8-2.6,4.7-4.2,5.6-4.6
			l0.4-0.2l-0.4-0.3c-1.4-1-2.7-1.9-4-2.9l-0.2-0.2l-0.2,0.2c-0.9,1.2-2.6,3.4-4.9,6.5c-7.9-3.1-12.7-5-14.1-5.8l-0.3-0.1l-1.7,4.2
			l0.3,0.1C602.5,230.7,604.5,231.3,606.7,232.2z"/>
	</g>
	<g>
		<path d="M222.9,284.1c-3.1-1.4-7.3-2.3-12.5-2.4c-10.9-0.4-14-0.7-14.7-0.8c-2.7-0.8-4.3-2.3-5-4.5c-0.6-1.8-0.4-3.5,0.5-5.1
			c0.9-1.6,2.6-2.8,5.1-3.6c3.8-1.2,7.7-0.8,11.7,1.2c3.1,1.5,5.9,3.7,8.6,6.6c2.9,3.1,3,3.9,3,4l0.9,0.5l0.7-0.8l-6-19.3l-1.6,0.5
			l0.1,0.5c0.2,0.8,0.3,1.4,0.2,1.8c-0.2,1.3-1.1,2.1-2.7,2.7c-1.3,0.4-3.7,0.4-6.9,0.1c-3.4-0.4-6.2-0.2-8.5,0.5
			c-5.2,1.6-9.3,4.6-12.2,9c-2.9,4.4-3.7,8.8-2.4,13.1c1,3.3,3,5.9,5.8,7.8c2.5,1.6,5.9,2.7,10,3.2c3.6,0.2,7.3,0.3,11,0.5
			c7.3,0.3,11.6,2.4,12.7,6.2c0.7,2.2,0.5,4.1-0.5,5.7c-1,1.6-2.7,2.8-4.9,3.5c-4.5,1.4-9.3,0.9-14.2-1.6c-3.8-1.9-7.3-4.7-10.5-8.4
			c-3.9-4.3-3.7-5.3-3.6-5.5l0.5-1.1l-2.1,0.7l7.6,24.4l2,0.8l-0.3-1c0-0.2,0-1,0.1-2.4c0.3-1.5,1.4-2.6,3.3-3.1
			c1.6-0.5,4.5-0.6,8.4-0.4c4.1,0.3,7.4,0,9.7-0.7c5.9-1.8,10.2-5,12.9-9.5c2.7-4.5,3.3-9.2,1.8-14.1
			C229.4,288.9,226.8,285.9,222.9,284.1z"/>
		<polygon points="279.3,298.9 269.8,249.9 277.2,248.5 276.8,246.8 242.7,253.4 243.1,255.1 250.4,253.7 259.8,302.7 252.4,304.1 
			252.7,305.8 286.5,299.3 286.2,297.6 		"/>
		<path d="M345.3,242.6c-4.5-2.1-10.1-2.8-16.5-2.2l-30.8,2.9l0.1,1.6l6.8-0.6l4.6,49.8l-6.8,0.6l0.2,1.7l34.5-3.2l-0.2-1.7
			l-9.1,0.8l-2-21.1c2.7,0.6,5.6,0.7,8.5,0.5c5.5-0.5,10.2-2.2,13.8-5.1c4.1-3.2,6-7.3,5.6-12C353.6,249.1,350.6,245.1,345.3,242.6z
			 M330.3,270.1c-0.4,0-1.1-0.1-2-0.2c-0.9-0.1-1.7-0.3-2.4-0.5l-2.5-26.9l2.4-0.2c3-0.3,5.3,0.5,7.1,2.3c1.8,1.9,3,5.6,3.5,11.1
			c0.4,4.3,0.4,7.4,0,9.2c-0.8,3.1-2.7,4.7-5.9,5L330.3,270.1z"/>
		<path d="M403.3,267.4l8.6,0.1l-0.1,15.7c0,1.8-0.6,3.3-1.8,4.6c-1.2,1.3-2.7,1.9-4.9,1.9c0,0,0,0,0,0c-3.2,0-5.3-1.4-6.6-4.2
			c-1.3-2.9-1.9-10.6-1.8-23c0-5.6,0.2-9.6,0.6-12.1c1-7.9,3.9-11.8,8.9-11.8c3,0,6.1,1.4,9.1,4.2c2.2,2.1,4.3,4.7,6.2,7.8
			c0.9,1.5,1.7,3.6,2.3,6.1c0.2,0.9,0.4,2.1,0.7,3.6l0.1,0.4l1.7,0.2l0.2-23.9l-1.8,0.2l0,0.5c0,1-0.1,1.7-0.3,2.1
			c-0.5,1.3-1.6,1.9-3.3,1.9h0c-0.4,0-2-0.4-8.6-3.3c-2.3-1-4.5-1.5-6.5-1.6l-0.3,0c-7.9,0-14.8,2.6-20.6,7.8
			c-5.9,5.2-8.9,11.7-8.9,19.3c-0.1,7.8,2.8,14.5,8.6,19.8c5.5,5.1,12.2,7.7,20,7.7h0.1c2.6,0,6.6-1.2,12-3.8c2.2-1,4.3-1.6,6.4-1.6
			c0,0,0,0,0,0c2.6,0,4.3,0.8,5.4,2.4c0.3,0.5,0.6,1.3,0.8,2.3l0.1,0.4l1.6,0l0.2-23.6l7.2,0.1l0-1.9l-35-0.3L403.3,267.4z"/>
		<path d="M495.2,244.3l7.5,1.2l-7.9,49.3l-7.5-1.2l-0.3,1.7l35.2,5.7l0-1.8l-8.3-1.3l3.6-22.6c1.5,0.3,2.9,0.8,3.9,1.6
			c1.2,0.8,2.4,2,3.5,3.4c0.8,1.1,1.4,2.4,1.8,3.9c0.3,1.5,0.3,3.2,0,5.3c-0.1,0.3-0.2,0.8-0.4,1.3l-0.2,0.6l2,0.3l4.3-26.9
			l-1.7-0.3l-0.1,0.5c-0.5,3.1-2.1,5.4-4.8,6.9c-2.6,1.4-5.3,2-8.1,1.7l4-24.9c3,0.8,5.5,1.8,7.5,3.2c2.1,1.4,4.2,3.4,6.3,6.1
			c1.9,2.4,3.2,4.7,3.9,6.8c0.7,2,0.8,4.3,0.5,6.8l-0.1,0.5l1.9,0.3l3.5-21.7l-49.9-8L495.2,244.3z"/>
		<path d="M615.8,268.6l-0.1,0.3c-0.4,0.8-0.7,1.4-0.9,1.7c-0.9,1-2.1,1.2-3.8,0.7c-0.4-0.1-1.8-0.9-7.5-5.2c-2-1.5-4-2.6-5.9-3.1
			c-7.7-2.3-15.2-1.7-22.3,1.8c-7.1,3.4-11.8,8.7-13.8,15.7c-2.2,7.7-1.2,15.1,3,22c4.3,6.9,10.6,11.6,18.9,14
			c3.7,1.1,7,1.6,9.7,1.6c1,0,1.9-0.1,2.7-0.2c3.2-0.5,6.3-2.1,9.1-4.8c1.2-1.2,2.1-2.3,2.7-3.3c0.6-1,1.1-2.3,1.6-3.9l0.2-0.5
			l-1.9-0.5l-0.2,0.5c-0.4,1.3-0.9,2.5-1.4,3.5c-0.5,1-1.3,1.9-2.2,2.9c-2.1,2-4.5,3.4-7,4.1c-2.6,0.7-5.3,0.7-8.3-0.2
			c-6.1-1.8-9.4-5.6-10-11.7c-0.4-4.4,0.7-11.1,3.3-20.1c1.5-5,2.7-8.7,3.7-10.9c3-6.8,7-9.5,12-8c3.4,1,6.2,3.1,8.3,6.2
			c1.6,2.4,2.9,5.8,3.8,10c0.4,1.9,0.5,4.2,0.3,6.9c-0.1,0.9-0.2,2.2-0.4,3.8l1.1,0.2l6.8-23.3L615.8,268.6z"/>
	</g>
</g>
</svg>
