<?xml version="1.0" encoding="utf-8"?>
<!-- Generator: Adobe Illustrator 22.1.0, SVG Export Plug-In . SVG Version: 6.00 Build 0)  -->
<svg version="1.1" id="图层_1" xmlns="http://www.w3.org/2000/svg" xmlns:xlink="http://www.w3.org/1999/xlink" x="0px" y="0px"
	 viewBox="0 0 800 800" style="enable-background:new 0 0 800 800;" xml:space="preserve">
<style type="text/css">
	.st0{fill-rule:evenodd;clip-rule:evenodd;fill:#990000;}
	.st1{fill:#990000;}
</style>
<path class="st0" d="M710,184.2l-12.8-8.8c0,0-26.4,24.2-55,24.2c-11.4,0-26-5.1-26-17.2c0-19.8,23.1-36.3,23.1-36.3l-16.5-8.4
	c0,0-35.6,30.4-77.8,30.4c-23.8,0-38.5-10.6-38.5-29c0-18.3,9.9-30.8,9.9-30.8l-27.9-3.7c-12.8,23.5-43.7,48.8-88.5,48.8
	c-44.8,0-75.6-25.3-88.4-48.8l-27.9,3.7c0,0,9.9,12.5,9.9,30.8c0,18.3-14.7,29-38.5,29c-42.2,0-77.8-30.4-77.8-30.4l-16.5,8.4
	c0,0,23.1,16.5,23.1,36.3c0,12.1-14.7,17.2-26,17.2c-28.6,0-55-24.2-55-24.2L90,184.2c0,0,62.7,72.4,62.7,202.3
	c0,72.6-6.1,91.3-6.1,117.7c0,26.4,7.7,134.8,253.3,244.8c245.6-110,253.4-218.4,253.4-244.8c0-26.4-6.1-45.1-6.1-117.7
	C647.3,256.7,710,184.2,710,184.2z M647.8,504.3c0,38.3-24.2,138.1-247.8,238.9C176.4,642.4,152.2,542.5,152.2,504.3
	c0-9.7,0.8-18.3,1.9-29.3c1.8-18.1,4.2-42.9,4.2-88.5c0-68.4-27-159.6-27-159.6s85.4-62.7,268.8-62.7c183.4,0,268.8,62.7,268.8,62.7
	s-27,91.2-27,159.6c0,45.6,2.4,70.4,4.2,88.5C646.9,485.9,647.8,494.6,647.8,504.3z"/>
<path class="st1" d="M427.8,78.7c0,15.3-12.4,27.8-27.8,27.8c-15.3,0-27.8-12.4-27.8-27.8s12.4-27.8,27.8-27.8
	C415.4,50.9,427.8,63.3,427.8,78.7z"/>
<circle class="st1" cx="234.4" cy="92.8" r="22.6"/>
<path class="st1" d="M137.5,130.5c0,10.8-8.8,19.6-19.6,19.6c-10.8,0-19.6-8.8-19.6-19.6c0-10.8,8.8-19.6,19.6-19.6
	C128.7,111,137.5,119.7,137.5,130.5z"/>
<path class="st1" d="M542.9,92.8c0,12.5,10.1,22.6,22.6,22.6c12.5,0,22.7-10.1,22.7-22.6s-10.1-22.6-22.7-22.6
	C553.1,70.2,542.9,80.3,542.9,92.8z"/>
<path class="st1" d="M662.5,130.5c0,10.8,8.8,19.6,19.6,19.6c10.8,0,19.6-8.8,19.6-19.6c0-10.8-8.8-19.6-19.6-19.6
	C671.3,111,662.5,119.7,662.5,130.5z"/>
<g>
	<path class="st1" d="M370.8,682.8c-0.7,0-1.3-0.2-1.9-0.5c-1.8-1.1-2.6-3.5-1.4-5.3c21.7-31.1,42.9-35.3,42.9-35.3
		s-20.2,10.1-36.3,39.2C373.5,682.2,372.2,682.8,370.8,682.8L370.8,682.8z"/>
	<path class="st1" d="M316.9,659.3c0,0,26.1-30.5,67.9-18.7C384.9,640.6,361.5,672.5,316.9,659.3z"/>
	<path class="st1" d="M271.3,640.3c0,0,31.6-29.2,76.2-12.9C347.5,627.4,320.5,655.4,271.3,640.3z"/>
	<path class="st1" d="M229.7,602.9c0,0,42.6-20.9,77.9,9.6C307.6,612.5,268.5,634.2,229.7,602.9z"/>
	<path class="st1" d="M220.4,547c0,0,45.1,1.1,64.9,44C285.3,591,241,592.7,220.4,547z"/>
	<path class="st1" d="M187.6,497c0,0,43.5,2.7,60.8,45.9C248.4,542.9,207.4,544.3,187.6,497z"/>
	<path class="st1" d="M195.1,438.4c0,0,35.2,19,38,67.1C233,505.5,198.1,489.5,195.1,438.4z"/>
	<path class="st1" d="M192.6,380.3c0,0,31.4,24.2,31.6,73.2C224.2,453.5,188.7,430.1,192.6,380.3z"/>
	<path class="st1" d="M224.5,336.9c0,0,20.4,35.8,2.8,81.2C227.2,418,206.9,382.5,224.5,336.9z"/>
	<path class="st1" d="M429.1,682.8c0.7,0,1.3-0.2,1.9-0.5c1.8-1.1,2.6-3.5,1.4-5.3c-21.7-31.1-42.9-35.3-42.9-35.3
		s20.2,10.1,36.3,39.2C426.5,682.2,427.8,682.8,429.1,682.8L429.1,682.8z"/>
	<path class="st1" d="M483,659.3c0,0-26.1-30.5-67.9-18.7C415.1,640.6,438.4,672.5,483,659.3z"/>
	<path class="st1" d="M528.7,640.3c0,0-31.6-29.2-76.2-12.9C452.5,627.4,479.4,655.4,528.7,640.3z"/>
	<path class="st1" d="M570.2,602.9c0,0-42.6-20.9-77.9,9.6C492.4,612.5,531.4,634.2,570.2,602.9z"/>
	<path class="st1" d="M579.6,547c0,0-45.1,1.1-64.9,44C514.6,591,558.9,592.7,579.6,547z"/>
	<path class="st1" d="M612.3,497c0,0-43.5,2.7-60.8,45.9C551.5,542.9,592.5,544.3,612.3,497z"/>
	<path class="st1" d="M604.9,438.4c0,0-35.2,19-38,67.1C566.9,505.5,601.9,489.5,604.9,438.4z"/>
	<path class="st1" d="M607.4,380.3c0,0-31.4,24.2-31.6,73.2C575.7,453.5,611.2,430.1,607.4,380.3z"/>
	<path class="st1" d="M575.4,336.9c0,0-20.4,35.8-2.8,81.2C572.7,418,593,382.5,575.4,336.9z"/>
</g>
<path class="st1" d="M264.1,473c0,0-20.4-35.6-20.4-59.1c0-32.6,42.9-36.7,56.5-44c13.6-7.3,24.2-39.2,90.6-39.2
	c70.1,0,119.9,64.9,123.6,64.9c3.7,0,7-18,7-18s21.6,14.3,21.6,45.9c0,31.5-24.2,42.2-24.2,42.2s3.7,2.6,12.1,2.6
	c12.8,0,17.6-18.3,17.6-18.3s9.2,13.9,9.2,35.6c0,21.6-14.7,51.4-46.6,51.4c-25.7,0-33.7-15.4-33.7-15.4s58.3,14.3,58.7-41.8
	c0,0-4,4.4-16.5,4.4c-19.8,0-27.5-25.3-27.5-25.3s48.5-3.8,30.1-49.9c0,0-1.8,11.7-10.6,11.7c-13.9,0-53.6-76.7-129.5-76.7
	c-46.2,0-70.9,26.7-70.9,29.1c0,2.4,3,2.7,3,2.7h59.1l-31.9,20.9c0,0-13.5-14.9-32.5-14.9c-11.6,0-33,12.4-40.3,17.6
	c-17.2,12.4-1.1,41.8-1.1,41.8s9.5-14.3,31.9-14.3s101.2,15,101.2,90.6c0,54.3-51,89.1-51,89.1s37-44.7,37-89.1
	c0-44-50.1-69.9-85.6-69.9C279.9,447.5,264.1,473,264.1,473z"/>
<g>
	
		<rect x="389" y="183.3" transform="matrix(1 -6.807588e-03 6.807588e-03 1 -1.2697 2.7239)" class="st0" width="20.9" height="9.1"/>
	
		<rect x="274.3" y="209.4" transform="matrix(0.9876 -0.1572 0.1572 0.9876 -29.6444 46.6039)" class="st0" width="11" height="2.5"/>
	<path class="st0" d="M360,218l-2.4-32.8l-31.8,2.4l2.4,32.8L360,218z M329.1,212.9c3.5-2.3,6.2-4.7,8-7.2c1.7-2.4,3.1-4.9,4.3-7.4
		l-4.7,0.3c-1.9,0.1-3.9,0.4-6.1,0.7l-0.3,0l-0.3-4.5l0.3,0c2,0,4-0.1,6-0.2l8-0.6c-0.2-2.7-0.4-4.8-0.7-6.3l0-0.3l5.2-0.4l0,0.3
		c-0.2,1.4-0.1,3.6,0.1,6.3c2.5-0.2,4.7-0.4,6.7-0.7l0.3,0l0.3,4.5l-0.3,0c-2,0-4.3,0.1-6.7,0.3l1.1,14.5c0.3,2.2-0.4,3.6-2.1,4.2
		c-1.6,0.6-3.5,1.1-5.7,1.4l-0.3,0l0-0.3c-0.1-1.3-0.7-2.8-1.7-4.3l-0.3-0.4l0.5,0c3-0.1,4.1-0.2,4.4-0.3c0.4-0.1,0.6-0.9,0.5-2
		l-0.7-9.9c-1.3,3.1-2.8,5.8-4.5,8.1c-1.9,2.6-4.2,5.1-6.9,7.5l-0.2,0.2l-0.2-0.2c-0.9-1.1-2.1-2.1-3.6-2.7l-0.5-0.2L329.1,212.9z"
		/>
	<rect x="272.3" y="197" transform="matrix(0.9876 -0.1572 0.1572 0.9876 -27.7329 46.146)" class="st0" width="11" height="2.8"/>
	<path class="st0" d="M336.5,265c0.4-1.8,0.4-4.9,0-9.2c-0.5-5.5-1.7-9.3-3.5-11.1c-1.8-1.9-4.1-2.6-7.1-2.3l-2.4,0.2l2.5,26.9
		c0.6,0.2,1.4,0.4,2.4,0.5c0.9,0.1,1.6,0.2,2,0.2l0.2,0C333.8,269.8,335.7,268.1,336.5,265z"/>
	<rect x="273.3" y="203.1" transform="matrix(0.9876 -0.1572 0.1572 0.9876 -28.6931 46.37)" class="st0" width="11" height="3"/>
	
		<rect x="519.9" y="186.7" transform="matrix(0.1558 -0.9878 0.9878 0.1558 248.4445 679.6336)" class="st0" width="3.8" height="15.5"/>
	
		<rect x="516.7" y="208.3" transform="matrix(0.1559 -0.9878 0.9878 0.1559 224.1705 694.4686)" class="st0" width="3.4" height="15.5"/>
	
		<rect x="605.6" y="240.7" transform="matrix(0.3656 -0.9308 0.9308 0.3656 157.763 723.3785)" class="st0" width="7.9" height="10.6"/>
	
		<rect x="518.8" y="194" transform="matrix(0.1558 -0.9878 0.9878 0.1558 240.205 684.6747)" class="st0" width="3.8" height="15.5"/>
	
		<rect x="517.7" y="201.3" transform="matrix(0.1558 -0.9878 0.9878 0.1558 232.0874 689.6509)" class="st0" width="3.6" height="15.5"/>
	<path class="st0" d="M662.9,229c-7.1-4.6-27.7-16.8-62-29c-25.4-9-53.3-16.1-82.9-21.2c-37-6.4-76.7-9.7-118.1-9.7
		c-41.5,0-81.4,3.3-118.5,9.7c-29.6,5.2-57.5,12.3-83,21.3c-34.1,12.1-54.4,24.2-61.5,28.8c5,17.7,26.2,96,26.2,157.5
		c0,45.8-2.4,70.7-4.2,88.9c-1.1,10.9-1.9,19.4-1.9,28.8c0,11.8,2.4,24.5,7,37.6c6.5,18.3,17.2,36.9,32,55.2
		C236.4,647.4,305,694.7,400,737.7c94.9-43,163.5-90.3,203.9-140.5c14.7-18.4,25.5-37,32-55.2c4.6-13.1,7-25.8,7-37.6
		c0-9.4-0.8-18-1.9-28.8c-1.8-18.2-4.2-43.2-4.2-88.9c0-19.7,2.4-54.2,13.6-106.5C655.5,255.9,660.8,236.6,662.9,229z M608.3,214.5
		l0.3,0.1c1.5,0.7,5,2.2,10.5,4.3l0-0.3c0-0.9,0-2.8-0.2-5.8l0-0.3l0.3,0c1.2-0.1,2.7-0.1,4.5,0l0.3,0l0,0.3
		c0.1,2.8,0.1,4.8,0.2,5.8l0,0.3l-0.3,0c-1.5-0.2-3-0.2-4.4,0l-0.2,0c0.3,0.1,0.5,0.2,0.8,0.3c6.1,2.4,9.8,3.8,11.4,4.2l0.3,0.1
		l-1.6,4l-0.3-0.1c-1.5-0.7-5.2-2.3-11.1-4.6c-5.9-2.3-9.8-3.8-11.7-4.4l-0.3-0.1L608.3,214.5z M609.9,222.8l0-0.3l0.3,0
		c1.2-0.1,2.5-0.2,3.9-0.3l0.3,0l0,0.3c0,1,0.1,3,0.3,5.9l0,0.3l-4.7,0.4l0-0.3C610,227.9,610,225.9,609.9,222.8z M602.2,226
		l0.3,0.1c1.4,0.7,6.2,2.7,14.1,5.8c2.4-3.1,4-5.3,4.9-6.5l0.2-0.2l0.2,0.2c1.3,0.9,2.6,1.9,4,2.9l0.4,0.3l-0.4,0.2
		c-0.9,0.5-2.8,2-5.6,4.6c3.6,1.4,6.1,2.3,7.5,2.7l0.3,0.1l-1.7,4.2l-0.3-0.2c-1.3-0.8-3-1.6-5-2.4l-14.4-5.7
		c-2.3-0.9-4.3-1.5-5.9-1.9l-0.3-0.1L602.2,226z M595.9,254c1.4-3.2,2.7-6.3,3.8-9.2c1.2-2.9,2.3-6.1,3.5-9.4l0.1-0.3l18.4,7.2
		l-0.1,0.3c-1.3,2.7-2.6,5.5-3.8,8.5c-1.1,2.9-2.2,6-3.2,9.2l-0.1,0.3l-4.4-1.7l1.4-3.6l-9.9-3.9l-1.8,4.6l-4.2-1.6L595.9,254z
		 M609.6,280.9c-0.9-4.2-2.2-7.6-3.8-10c-2.1-3.1-4.9-5.2-8.3-6.2c-5-1.5-9,1.2-12,8c-1,2.2-2.2,5.9-3.7,10.9
		c-2.6,9-3.8,15.8-3.3,20.1c0.6,6.1,3.8,9.9,10,11.7c2.9,0.9,5.7,0.9,8.3,0.2c2.6-0.7,4.9-2.1,7-4.1c1-0.9,1.7-1.9,2.2-2.9
		c0.5-1,1-2.1,1.4-3.5l0.2-0.5l1.9,0.5l-0.2,0.5c-0.5,1.6-1,2.9-1.6,3.9c-0.6,1-1.5,2.1-2.7,3.3c-2.8,2.7-5.8,4.3-9.1,4.8
		c-0.8,0.1-1.7,0.2-2.7,0.2c-2.7,0-6-0.5-9.7-1.6c-8.3-2.4-14.7-7.2-18.9-14c-4.3-6.9-5.3-14.3-3-22c2-6.9,6.7-12.2,13.8-15.7
		c7.1-3.4,14.6-4,22.3-1.8c1.9,0.6,3.9,1.6,5.9,3.1c5.7,4.3,7.1,5.1,7.5,5.2c1.6,0.5,2.9,0.3,3.8-0.7c0.2-0.3,0.6-0.9,0.9-1.7
		l0.1-0.3l1.6-0.1l-6.8,23.3l-1.1-0.2c0.2-1.6,0.4-2.9,0.4-3.8C610.1,285.1,610,282.8,609.6,280.9z M573.7,230.2l0.3-0.1
		c1.3-0.5,2.6-1.2,3.9-1.9l0.2-0.1l0.1,0.2c1.1,1.7,2.4,3.8,3.7,6.3c1.3,2.4,2.7,5,4.2,7.5l0.2,0.3l-0.3,0.1c-2.1,0.7-3.7,1.4-4.5,2
		l-0.3,0.2l-0.1-0.3c-1-2.5-3.5-7.2-7.3-13.8L573.7,230.2z M549.5,212.8c0.9-0.4,1.7-1.2,2.4-2.1c0.7-1,2.4-5.6,5.3-13.8l0.1-0.2
		l0.2,0.1c8.6,2.4,15.2,3.9,19.8,4.5c4.5,0.6,8.1,0.8,10.5,0.6l0.2,0l0.1,0.2c0.9,2.9,1.7,4.9,2.3,5.9l0.3,0.5l-0.6-0.1
		c-4.3-1-9.1-2-14.4-3c-5.2-1-10.2-2.2-15-3.6c-2.2,5.5-3.9,9.6-5,12l12.8,3.3l1-3.9c0.3-1,0.6-2.9,1-5.5l0-0.3l5.2,1.3l-0.1,0.3
		c-0.8,1.9-1.4,3.7-1.8,5.3l-1,3.7l9.3,2.4c1.2,0.3,3.4,0.8,6.6,1.5l0.3,0.1l-1.1,4.2l-0.3-0.1c-2.8-0.9-5-1.5-6.5-1.9l-9.3-2.4
		l-4.9,18.7c-0.6,2.3-1.8,3.4-3.7,3.5l-0.6,0c-1.5,0-3-0.2-4.5-0.6l-0.2-0.1l0-0.2c0-2.2-0.3-4.1-0.9-5.5L557,237l0.6,0.2
		c1.4,0.5,2.7,0.9,3.8,1.3c0.2,0.1,0.4,0.1,0.6,0.1c0.4,0,0.9-0.1,1.2-1.2l4.4-16.9l-9.1-2.4c-3.6-0.8-6.2-1-7.8-0.8l-0.3,0.1l0-0.3
		c0-1-0.4-2.3-1-4l-0.1-0.2L549.5,212.8z M542.9,231.6c2.5-1,5-2.4,7.3-3.9c2.3-1.6,4.4-3.4,6.2-5.5l0.2-0.2l0.2,0.2
		c1.7,1.7,3.1,2.9,4.1,3.6l0.4,0.3l-0.4,0.2c-1.8,0.9-4.2,2.5-7.1,4.6c-3,2.1-5.3,3.7-7,4.7l-0.2,0.1l-0.1-0.2
		c-0.5-0.8-1.7-2-3.5-3.4l-0.4-0.3L542.9,231.6z M510.6,187.4l0-0.3l24.2,3.8l-0.1,0.3c-0.5,2.1-1,4.9-1.5,8.1l-3.2,20.3
		c1.4,0.2,2.9,0.4,4.4,0.5l0.3,0l-0.6,4.1l-0.3-0.1c-1.8-0.4-3.5-0.8-5-1l-21.8-3.4c-2.1-0.3-4.2-0.6-6.1-0.8l-0.3,0l0.6-4l0.3,0.1
		c1.6,0.4,3.2,0.7,4.8,1l3.2-20.1C509.9,192.8,510.3,190,510.6,187.4z M532.5,231.5l-0.3,0.2c-1.2,0.9-2.3,1.9-3.1,3l-0.2,0.2
		l-0.2-0.2c-4.2-4-7.4-6.7-9.6-8l-0.3-0.2l0.3-0.2c0.8-0.7,1.8-1.7,2.9-2.9l0.2-0.2l0.2,0.2c0.9,0.7,2.1,1.7,3.7,2.9
		c1.6,1.2,3.7,2.9,6.1,4.9L532.5,231.5z M514.3,225.4l-0.4,0.2c-1.5,0.6-3.1,1.4-4.8,2.4c-1.8,1-4,2.3-6.8,3.6l-0.2,0.1l-0.1-0.2
		c-0.5-0.9-1.5-2-2.8-3.3l-0.3-0.3l0.4-0.2c5.3-2.1,9-4.2,10.9-6.3l0.2-0.2l0.2,0.3c0.7,0.9,1.8,2.1,3.4,3.6L514.3,225.4z
		 M489.1,202.2c1.8-1.2,4-3.5,6.6-6.9c2.5-3.4,4.7-7.3,6.5-11.8l0.2-0.4l0.3,0.3c0.9,1,2.3,1.9,4.1,2.9l0.3,0.2l-0.3,0.3
		c-1.3,1.2-3,3.8-5.2,7.9l-4.3,27.2c-0.5,3.4-0.9,6.3-0.9,8.6l0,0.3l-4.9-0.8l0.1-0.3c0.5-2.3,1-5.1,1.5-8.3l3.2-20.5
		c-1.7,2.2-3.2,4.1-4.5,5.6l-0.3,0.3l-0.2-0.4c-0.5-1.3-1.2-2.6-2.3-3.8l-0.2-0.2L489.1,202.2z M487.2,293.5l7.5,1.2l7.9-49.3
		l-7.5-1.2l0.3-1.7l49.9,8l-3.5,21.7l-1.9-0.3l0.1-0.5c0.4-2.5,0.2-4.7-0.5-6.8c-0.7-2.1-2-4.4-3.9-6.8c-2-2.6-4.2-4.7-6.3-6.1
		c-2-1.3-4.5-2.4-7.5-3.2l-4,24.9c2.8,0.3,5.6-0.2,8.1-1.7c2.7-1.5,4.3-3.8,4.8-6.9l0.1-0.5l1.7,0.3l-4.3,26.9l-2-0.3l0.2-0.6
		c0.2-0.5,0.3-1,0.4-1.3c0.3-2,0.3-3.8,0-5.3c-0.3-1.4-0.9-2.7-1.8-3.9c-1.1-1.4-2.3-2.6-3.5-3.4c-1.1-0.7-2.4-1.3-3.9-1.6
		l-3.6,22.6l8.3,1.3l0,1.8l-35.2-5.7L487.2,293.5z M469.3,181.6c1.1-0.6,2.2-1.2,3.2-1.8l0.2-0.1l0.1,0.2c1.3,1.8,2.5,3.7,3.7,5.9
		l0.1,0.2l-3.7,2.1l-0.1-0.3c-1.2-2.3-2.4-4.2-3.7-5.8l-0.2-0.3L469.3,181.6z M452.2,187.7l0.3,0c1.7,0.3,5.2,0.6,10.4,1
		c0.3-4.3,0.5-7.4,0.5-9.2v-0.3l5,0.4l-0.1,0.3c-0.5,1.7-0.9,4.7-1.1,9.1l6.3,0.5c2,0.1,3.8,0.2,5.5,0.2l0.6,0l-0.3,4.1l-0.3,0
		c-1.8-0.3-3.7-0.5-5.7-0.6l-6.3-0.5l-0.5,6.7c0.5,2.1,1.2,4.1,2.2,5.8c2.8-2.1,5.2-4.7,7.1-7.7l0.2-0.3l0.2,0.2
		c1,1,2.2,2.2,3.7,3.4l0.3,0.3l-0.4,0.2c-1.4,0.7-2.9,1.9-4.5,3.4c-1.6,1.6-3.2,3-4.9,4.2c3.5,5.7,6.7,9.6,9.5,11.6l0.5,0.3
		l-0.5,0.2c-1.4,0.4-2.6,1.4-3.8,2.7l-0.2,0.2l-0.2-0.2c-3.6-3.9-6.9-9.3-9.8-15.9l-1.1,15.1c-0.2,2.3-0.9,3.7-2.1,4
		c-1.1,0.3-2.8,0.6-4.9,0.9l-0.3,0l0-0.3c-0.3-1.6-0.7-3.1-1.3-4.4l-0.2-0.4l0.5,0c0.7,0,1.3,0.1,1.8,0.1c2.2,0,2.3-0.4,2.3-0.5
		l0.9-12.3c-1.1,1.3-2.4,2.8-3.9,4.4c-1.7,1.9-3.6,4.1-5.7,6.4l-0.2,0.3l-0.2-0.3c-0.8-1.3-2-2.2-3.4-2.8l-0.4-0.2l0.4-0.3
		c2.4-1.7,4.9-3.9,7.4-6.4c2.4-2.5,4.7-5.3,6.7-8.3l0.7-10.5c-5.1-0.4-8.6-0.6-10.4-0.6H452l0-0.3L452.2,187.7z M452,197.5
		c1.1-0.6,2.2-1.2,3-1.8l0.2-0.2l0.2,0.2c1.3,2.1,2.7,4.5,4.1,6.9l0.1,0.2l-0.2,0.1c-1,0.6-2.1,1.2-3.3,1.8l-0.2,0.1l-0.1-0.3
		c-1.2-2.4-2.5-4.7-3.8-6.9l-0.2-0.3L452,197.5z M431.3,216.6c1.7-0.1,4-0.6,6.7-1.5l0.9-12.9c-2.1-0.1-4.1-0.2-5.8-0.2h-0.3
		l-0.1-0.3l0.3-4l0.3,0c1.8,0.3,3.8,0.5,5.9,0.6l0.7-9.9c-2.5-0.2-4.7-0.3-6.4-0.3h-0.3l-0.1-0.3l0.3-4l0.3,0
		c1.8,0.3,3.3,0.4,4.5,0.5l7.6,0.6c1.3,0.1,2.7,0.1,4,0.1l1,0l-0.3,4.3l-0.3,0c-1.7-0.3-3.8-0.5-6.1-0.6l-0.7,9.9
		c1.6,0.1,3.2,0.2,4.8,0.2l0.6,0l-0.3,4.3l-0.3,0c-1.7-0.3-3.4-0.4-5-0.6l-0.9,11.7c2.3-0.6,4.3-1.2,5.9-1.9l0.3-0.1l0.1,0.3
		c0.2,1.2,0.4,2.4,0.6,3.3l0.1,0.3l-0.3,0.1c-2.5,0.5-5.4,1.3-8.5,2.3c-3.1,1-5.7,2-7.5,2.9l-0.3,0.1l-0.1-0.3
		c-0.5-1.3-1-2.7-1.6-4.3l-0.1-0.3L431.3,216.6z M377,221.1c1.5-1.4,2.7-3,3.6-4.8c0.9-1.9,1.8-4,2.5-6.3c0.7-2.3,1.1-5.3,1.1-9
		l0-0.3l0.3,0.1c1.8,0.4,3.6,0.6,5.2,0.6h0.4l-0.1,0.4c-0.7,1.3-1.3,4.3-2,8.8c0.8,1,1.9,2.2,3.3,3.2c1.4,1,3.3,2,5.7,3.1l-0.1-20.6
		l-12.8,0.1l0-0.3c0.1-2.8,0.2-5.6,0.1-8.4c0-2.8-0.1-5.5-0.3-7.8l0-0.3l30.5-0.2l0,0.3c-0.1,2.3-0.2,4.9-0.2,7.8
		c0,2.9,0.1,5.8,0.3,8.4l0,0.3l-13,0.1l0.1,7.7l9.6-0.1c1.7,0,3.7-0.1,6.2-0.2l0.3,0l0,4.3l-0.3,0c-2.1-0.1-4-0.2-5.6-0.2l-10.2,0.1
		l0.1,9.8c4,0.2,7.6,0.2,10.6,0c3.2-0.2,6.3-0.5,9.3-0.8l0.5-0.1l-0.3,0.5c-0.4,0.7-0.7,1.4-0.9,2.3c-0.2,0.9-0.3,1.8-0.3,2.9l0,0.3
		l-0.3,0c-4.9-0.1-9.4-0.3-13.1-0.5c-3.8-0.3-7.3-0.8-10.6-1.5c-3.2-0.7-6.6-2.8-10.1-6l-2.2,4.4c-0.7,1.5-1.7,3.3-3,5.2l-0.2,0.3
		l-0.2-0.2c-1.2-1.1-2.6-2-4.1-2.8l-0.3-0.2L377,221.1z M385.1,244.6c5.8-5.1,12.7-7.8,20.6-7.8l0.3,0c2,0,4.2,0.5,6.5,1.6
		c6.6,2.8,8.2,3.3,8.6,3.3h0c1.7,0,2.8-0.6,3.3-1.9c0.2-0.4,0.2-1.1,0.3-2.1l0-0.5l1.8-0.2l-0.2,23.9l-1.7-0.2l-0.1-0.4
		c-0.3-1.6-0.5-2.8-0.7-3.6c-0.6-2.5-1.4-4.6-2.3-6.1c-1.9-3.1-3.9-5.7-6.2-7.8c-3-2.8-6.1-4.2-9.1-4.2c-5,0-7.9,3.9-8.9,11.8
		c-0.3,2.5-0.5,6.6-0.6,12.1c-0.1,12.3,0.5,20.1,1.8,23c1.2,2.8,3.4,4.2,6.6,4.2c0,0,0,0,0,0c2.1,0,3.7-0.6,4.9-1.9
		c1.2-1.3,1.8-2.8,1.8-4.6l0.1-15.7l-8.6-0.1l0-1.9l35,0.3l0,1.9l-7.2-0.1l-0.2,23.6l-1.6,0l-0.1-0.4c-0.2-1.1-0.5-1.8-0.8-2.3
		c-1.1-1.6-2.8-2.4-5.4-2.4c0,0,0,0,0,0c-2.1,0-4.2,0.5-6.4,1.6c-5.4,2.5-9.4,3.8-12,3.8h-0.1c-7.8-0.1-14.5-2.7-20-7.7
		c-5.7-5.3-8.6-11.9-8.6-19.8C376.2,256.4,379.2,249.8,385.1,244.6z M362.1,180.6l0,0.3c0.1,3.5,0.3,7.2,0.6,10.9l1.6,21.6
		c0.3,3.8,0.6,7.6,1,11.1l0,0.3l-4.9,0.4l-0.2-2.9l-31.8,2.4l0.2,3.3l-4.9,0.4l0-0.3c-0.1-3.7-0.4-7.6-0.6-11.5l-1.6-21.6
		c-0.3-3.5-0.6-7.1-1-10.9l0-0.3L362.1,180.6z M328.1,292.4l9.1-0.8l0.2,1.7l-34.5,3.2l-0.2-1.7l6.8-0.6l-4.6-49.8l-6.8,0.6
		l-0.1-1.6l30.8-2.9c6.5-0.6,12,0.1,16.5,2.2c5.4,2.5,8.3,6.5,8.9,11.9c0.4,4.7-1.4,8.8-5.6,12c-3.7,2.9-8.3,4.6-13.8,5.1
		c-3,0.3-5.8,0.1-8.5-0.5L328.1,292.4z M309.9,215.8l0.6,3.8l-0.3,0c-2.4,0.2-4.7,0.5-6.9,0.9l-6.7,1.1c1.7,1.1,3.7,1.9,5.9,2.4
		c2.5,0.5,5.6,0.9,9.4,1.1l0.4,0l-0.2,0.4c-0.9,1.5-1.4,3-1.8,4.4l-0.1,0.3l-0.3-0.1c-2.6-0.6-4.8-1.1-6.7-1.5c-1.9-0.5-3.6-1-5-1.6
		c-1.4-0.6-2.7-1.3-3.8-2c-1.1-0.7-2.2-1.5-3.2-2.4l-0.6,0.1l0.7,4.4c0.3,2,0.8,4.1,1.4,6l0.1,0.3l-5.1,0.8l0-0.3
		c-0.2-2-0.4-4-0.8-6.1l-0.7-4.4l-0.4,0.1c-0.9,1.5-1.8,2.9-2.7,4.1c-1,1.3-2.1,2.4-3.4,3.5c-1.2,1-2.6,2-4.2,2.9
		c-1.5,0.9-3.1,1.9-4.7,2.9l-0.2,0.2l-0.2-0.2c-0.7-1.1-1.9-2.2-3.4-3.3l-0.4-0.3l0.5-0.2c2.6-0.8,5.3-2.1,8-3.7
		c2.5-1.5,4.3-3.2,5.5-5l-6.8,1.1c-2.3,0.4-4.6,0.8-7.1,1.3l-0.3,0.1l-0.6-3.8l0.3,0c1.6-0.1,4-0.4,7.1-0.9l12.4-2
		c-0.2-1.1-0.5-2.5-0.9-4.2l-0.1-0.3l4.9-0.8l0,0.3c0.1,1.7,0.3,3.2,0.5,4.2l12.6-2c2.3-0.4,4.6-0.8,6.9-1.3L309.9,215.8z
		 M250.4,253.7l-7.3,1.4l-0.3-1.7l34.1-6.6l0.3,1.7l-7.4,1.4l9.5,49l6.9-1.3l0.3,1.7l-33.8,6.6l-0.3-1.7l7.5-1.4L250.4,253.7z
		 M261.5,206c0.9-1.1,1.8-2.4,2.7-3.8c0.9-1.4,1.7-2.9,2.5-4.5c0.8-1.6,1.5-3.2,2.1-5c0.6-1.8,1.2-3.6,1.7-5.5l0.1-0.3l0.3,0.1
		c1.3,0.5,3.1,1,5.3,1.7l0.4,0.1l-0.3,0.3c-0.7,0.8-1.3,1.6-1.7,2.4c-0.4,0.7-0.8,1.6-1.2,2.6l13.1-2.1l-0.2-0.1
		c-1-0.7-1.8-1.4-2.4-2.1c-0.6-0.7-1.3-1.3-2-1.8l-0.2-0.2l0.2-0.2c0.7-0.8,1.7-1.8,2.9-2.8l0.2-0.2l0.2,0.2c0.3,0.4,1,1,1.9,1.8
		c1,0.8,1.9,1.6,2.7,2.3l0.3,0.2l-0.3,0.2c-1,0.7-2,1.6-3.1,2.6l-0.2,0.1l10.8-1.7c1.9-0.3,4.1-0.7,6.5-1.2l0.3-0.1l0.6,3.8l-0.3,0
		c-2.7,0.3-4.8,0.6-6.5,0.8l-10.5,1.7l0.4,2.7l7.9-1.3c1.8-0.3,3.7-0.7,5.7-1.1l0.3-0.1l0.6,3.8l-0.3,0c-2.1,0.2-4,0.4-5.7,0.7
		l-7.9,1.3l0.5,2.9l8.3-1.3c1.9-0.3,3.9-0.7,6.1-1.2l0.3-0.1l0.6,3.8l-0.3,0c-2.2,0.2-4.3,0.5-6.1,0.8l-8.3,1.3l0.4,2.5l10.1-1.6
		c2-0.3,4.1-0.7,6.3-1.2l0.3-0.1l0.6,3.8l-0.3,0c-2.1,0.2-4.2,0.5-6.1,0.8l-25.6,4.1l0.3,2l-4.6,0.7l0-0.3c-0.3-2.5-0.5-4.8-0.9-6.7
		l-1.3-8.3c-0.4,0.8-0.8,1.4-1.2,2c-0.5,0.8-1,1.6-1.6,2.5l-0.1,0.2l-0.2-0.1c-1.1-0.7-2.3-1.3-3.8-1.9l-0.4-0.1L261.5,206z
		 M216.7,206.8c2.1-0.4,4-0.8,5.4-1.2l1.7-0.5c-0.6-2.2-1.2-4.3-1.8-6.1l-0.1-0.3l4.4-1.1l0.1,0.3c0.3,1.7,0.8,3.7,1.4,6.2l6.3-1.6
		c-0.7-2.5-1.3-4.5-1.8-6l-0.1-0.3l4.4-1.1l0.1,0.3c0.3,1.7,0.8,3.7,1.4,6.2l2.3-0.6c1.9-0.5,3.8-1.1,5.7-1.7l0.3-0.1l1,3.8
		l-0.3,0.1c-1.9,0.4-3.8,0.8-5.6,1.3l-2.5,0.7l1.7,6.5l4.1-1.1c1.6-0.4,3.4-1,5.3-1.6l0.3-0.1l1,4l-0.3,0.1
		c-2.1,0.4-3.8,0.8-5.2,1.2l-4,1c1.5,2.1,3.5,3.5,5.9,4.3c2.5,0.9,5.1,1.1,7.6,0.7l0.7-0.1l-0.4,0.5c-1.1,1.5-1.7,3.1-1.7,4.6l0,0.3
		l-0.3,0c-1.8-0.2-3.4-0.6-4.8-1c-1.2-0.4-2.5-0.9-3.8-1.7l1,3.8c0.3,1.1,0.8,2.6,1.4,4.5l0.1,0.3l-15.2,4l1,3.7
		c0.3,1,0.8,1.5,1.8,1.5c0.3,0,0.7-0.1,1-0.2l11-2.9c1.1-0.3,1.9-0.7,2.2-1.1c0.2-0.3,0.4-1.3,0.2-4.2l0-0.5l0.4,0.2
		c1.3,0.6,2.7,0.9,4.1,0.8l0.3,0l0,0.3c-0.1,2.8-0.5,4.6-1.1,5.5c-0.6,0.9-1.7,1.6-3.4,2l-14.2,3.7c-0.8,0.2-1.5,0.3-2.1,0.3
		c-2.1,0-3.5-1.1-4-3.2l-3.2-12.4c-1.2,1.7-2.3,3.2-3.3,4.3l-0.2,0.2l-0.2-0.2c-1.1-0.8-2.3-1.6-3.8-2.4l-0.4-0.2l0.4-0.3
		c1.8-1.2,3.4-2.8,4.9-5c1.4-2,2.4-4.1,3-6.4l-1.3,0.3c-2.5,0.7-4.9,1.3-7.1,2.1l-0.3,0.1l-1-4l0.3-0.1c2.1-0.4,4.6-1,7.2-1.7
		l1.9-0.5l-1.7-6.5l-1.7,0.5c-1.4,0.4-3.1,0.9-5.1,1.6l-0.3,0.1l-1-3.8L216.7,206.8z M194.4,323.2l0.3,1l-2-0.8l-7.6-24.4l2.1-0.7
		l-0.5,1.1c-0.1,0.2-0.2,1.2,3.6,5.5c3.2,3.7,6.8,6.5,10.5,8.4c4.9,2.5,9.7,3,14.2,1.6c2.2-0.7,3.9-1.9,4.9-3.5
		c1-1.6,1.2-3.5,0.5-5.7c-1.2-3.8-5.5-5.9-12.7-6.2c-3.7-0.2-7.3-0.3-11-0.5c-4.2-0.5-7.5-1.6-10-3.2c-2.9-1.9-4.8-4.5-5.8-7.8
		c-1.3-4.3-0.5-8.7,2.4-13.1c2.9-4.3,7-7.4,12.2-9c2.3-0.7,5.2-0.9,8.5-0.5c3.2,0.4,5.5,0.4,6.9-0.1c1.6-0.5,2.5-1.4,2.7-2.7
		c0-0.4,0-1-0.2-1.8l-0.1-0.5l1.6-0.5l6,19.3l-0.7,0.8l-0.9-0.5c0-0.1-0.1-0.9-3-4c-2.6-2.9-5.5-5.2-8.6-6.6c-4-2-7.9-2.4-11.7-1.2
		c-2.5,0.8-4.2,2-5.1,3.6c-0.9,1.6-1.1,3.3-0.5,5.1c0.7,2.2,2.3,3.7,5,4.5c0.7,0.2,3.8,0.5,14.7,0.8c5.2,0.1,9.4,0.9,12.5,2.4
		c3.9,1.8,6.5,4.8,7.7,8.9c1.5,4.9,0.9,9.6-1.8,14.1c-2.7,4.5-7,7.6-12.9,9.5c-2.4,0.7-5.6,1-9.7,0.7c-3.9-0.3-6.8-0.1-8.4,0.4
		c-1.9,0.6-3,1.6-3.3,3.1C194.5,322.2,194.4,323,194.4,323.2z M212,246.8l0.1-0.3c0.8-2.3,1.5-4.9,1.9-7.6c0.5-2.7,0.7-5.7,0.8-8.8
		l0-0.5l0.4,0.2c1.3,0.8,2.7,1.3,4.2,1.6l0.3,0.1l-0.1,0.3c-0.4,1.5-0.8,3.8-1,6.9c-0.2,3.1-0.5,6.2-0.7,9.2l0,0.4l-0.4-0.1
		c-1.7-0.7-3.5-1.1-5.2-1.4L212,246.8z M216.3,220.8l-0.1,0.3c-0.5,1.1-1,2.5-1.5,4l-0.1,0.3l-0.3-0.1c-1.4-0.6-2.8-1.2-4.1-1.7
		c-1.3-0.5-2.7-1-4.4-1.4l-0.3-0.1l0.1-0.3c0.5-1.2,0.9-2.6,1.3-3.9l0.1-0.3l0.3,0.1c1.4,0.5,2.8,1,4.3,1.4c1.5,0.5,2.9,1,4.4,1.6
		L216.3,220.8z M204.7,208.8c0.6-1.3,1.3-2.5,1.8-3.7l0.1-0.2l0.2,0.1c1.4,0.6,2.9,1.3,4.4,2c1.5,0.7,2.7,1.4,3.8,2.1l0.2,0.2
		l-0.2,0.2c-0.8,1.1-1.6,2.3-2.2,3.7l-0.1,0.3l-0.3-0.2c-1.2-0.9-2.5-1.8-3.9-2.6c-1.4-0.8-2.6-1.3-3.7-1.6l-0.3-0.1L204.7,208.8z
		 M162.5,267.3l-0.3,0.1l-1.7-4.4l0.3-0.1c2.4-0.8,4.7-1.6,6.8-2.5l10.7-4.2L166.3,226c-0.7-1.9-1.6-3.9-2.6-6l-0.1-0.3l5-2l0.1,0.3
		c0.7,2.1,1.4,4.1,2.2,6l2.7,6.8l9.9-3.9c2.4-1,4.8-2,7-3l0.3-0.1l1.7,4.4l-0.3,0.1c-2.6,0.9-5,1.7-7,2.5l-10.1,4l7.8,19.6l14.7-5.8
		c1.8-0.7,4-1.6,6.4-2.8l0.3-0.1l1.7,4.4l-0.3,0.1c-2.5,0.8-4.7,1.6-6.6,2.4l-29.9,11.8C167.2,265.2,165,266.2,162.5,267.3z
		 M594,589.3c-38.4,47.8-103.6,93-194,134.6c-90.4-41.6-155.7-86.8-194-134.6c-31.5-39.2-36.2-70.1-36.2-85c0-8.8,0.8-17.1,1.8-27.6
		c1.8-18.5,4.2-43.7,4.2-90.1c0-14.2-1.1-29.2-2.8-44.1c42.2-18.1,116.9-40.7,227-40.7c110,0,184.8,22.6,227,40.7
		c-1.7,15-2.8,30-2.8,44.1c0,46.4,2.4,71.7,4.2,90.2c1,10.5,1.8,18.8,1.8,27.6C630.2,519.2,625.5,550.1,594,589.3z M641.5,258.1
		c-1.4,2.1-3,3.4-4.9,3.8c-1.9,0.4-4.5,0.3-7.9-0.3l-0.3-0.1l0.1-0.3c0.4-1.3,0.4-3.1,0.1-5.4l-0.1-0.5l0.4,0.2
		c2.9,1.3,5.1,1.8,6.4,1.5c1.3-0.3,2.2-1.1,2.7-2.2c0.5-1.2,0.4-3.2-0.4-5.9c-0.8-2.8-1.7-5.1-2.6-6.9l-0.1-0.2l0.1-0.1
		c1.9-2,5-6,9.2-11.9l-6.5-2.6l-14.7,37.4l-4.2-1.6l0.1-0.3c1.2-2.7,2.4-5.5,3.5-8.4l9.2-23.4c1.1-2.8,2.1-5.7,3-8.8l0.1-0.3
		l16.6,6.5l-0.2,0.3c-4.7,5.8-8.5,10.6-11.3,14.2c1.3,2.9,2.3,5.6,2.7,8.1C643.3,253.6,642.9,256,641.5,258.1z"/>
	<path class="st0" d="M228.8,223.9l13.1-3.4c-1.4-1.1-2.8-2.7-4.1-4.8l-7,1.8C230.5,219.6,229.9,221.7,228.8,223.9z"/>
	<rect x="229.5" y="206.8" transform="matrix(0.9675 -0.253 0.253 0.9675 -45.5543 65.665)" class="st0" width="6.3" height="6.5"/>
	
		<rect x="230.6" y="225.8" transform="matrix(0.9675 -0.2529 0.2529 0.9675 -49.9615 67.1464)" class="st0" width="11.2" height="4.2"/>
</g>
</svg>
