<?xml version="1.0" encoding="utf-8"?>
<!-- Generator: Adobe Illustrator 22.1.0, SVG Export Plug-In . SVG Version: 6.00 Build 0)  -->
<svg version="1.1" id="图层_1" xmlns="http://www.w3.org/2000/svg" xmlns:xlink="http://www.w3.org/1999/xlink" x="0px" y="0px"
	 viewBox="0 0 800 800" style="enable-background:new 0 0 800 800;" xml:space="preserve">
<style type="text/css">
	.st0{fill:#D61518;}
	.st1{fill:#F2C820;}
	.st2{fill:#FFFFFF;}
</style>
<g>
	<g>
		<path class="st0" d="M690.9,158.6c0,0-181.3,15.3-290.9-108.6C290.4,173.9,109.1,158.6,109.1,158.6c-9,37.5-37.5,196.5,43.5,363
			S400,750,400,750s166.4-61.9,247.4-228.4S699.9,196.1,690.9,158.6z"/>
		<path class="st1" d="M674.3,172.4c0,0-170.9,14.4-274.3-102.4C296.7,186.8,125.7,172.4,125.7,172.4c-8.5,35.4-35.4,185.3,41,342.2
			S400,730,400,730s156.9-58.4,233.3-215.4S682.8,207.8,674.3,172.4z"/>
		<path class="st0" d="M649.3,193.1c0,0-155.4,13.1-249.3-93.1c-93.9,106.2-249.3,93.1-249.3,93.1c-7.7,32.1-32.1,168.4,37.3,311.1
			S400,700,400,700s142.6-53.1,212.1-195.8S657.1,225.2,649.3,193.1z"/>
		<path class="st2" d="M400,100c75.3,85.2,190.2,93.6,232.8,93.6c10.5,0,16.6-0.5,16.6-0.5c7.7,32.1,32.1,168.4-37.3,311.1
			C542.6,646.9,400,700,400,700s-142.6-53.1-212.1-195.8c-69.4-142.7-45-279-37.3-311.1c0,0,6.1,0.5,16.6,0.5
			C209.8,193.6,324.7,185.2,400,100 M400,94l-3,3.4c-32,36.1-74.6,62.2-126.8,77.6c-43.6,12.8-83.2,14.7-103,14.7
			c-10.2,0-16.2-0.5-16.2-0.5l-3.4-0.3l-0.8,3.3c-2.9,12-12.1,55.6-10.4,115.1c2,70.6,18.2,137.4,48,198.7
			c16,32.9,37.2,63.8,63.1,91.8c20.7,22.4,44.3,42.9,70.3,61.2c44.2,31,79.4,44.3,80.9,44.9l1.4,0.5l1.4-0.5
			c1.5-0.5,36.6-13.8,80.9-44.9c26-18.2,49.6-38.8,70.3-61.2c25.9-28,47.1-58.9,63.1-91.8c29.8-61.3,45.9-128.1,48-198.7
			c1.7-59.5-7.5-103.2-10.4-115.1l-0.8-3.3l-3.4,0.3c-0.1,0-6.1,0.5-16.2,0.5c-19.7,0-59.4-1.9-102.9-14.7
			C477.6,159.6,435,133.5,403,97.3L400,94L400,94z"/>
	</g>
	<g>
		<path class="st2" d="M258,365.5c0,0,25.8,3,46.8,32.5c0,0-18,16.5-28.2,32.8C276.5,430.8,280.5,387.2,258,365.5z"/>
		<path class="st2" d="M355.3,451.7c0,0,5,14,9,16.3l5-17l3.7,39.3C373,490.3,356,485.7,355.3,451.7z"/>
		<path class="st2" d="M383.7,481.3l-12,15.3c-28.3-14-24.3-54.3-24.3-54.3c-13.2,12.1-4.3,41.9-4.3,41.9
			c-35.2-5.8-29.2-30.8-29.2-30.8c-6.2,5.2-9,16-9,16c-4.8-20.5,8.9-55.2,8.9-55.2c-34,47.3-17,87.5-17,87.5l1-16.5
			c2,39.3,21.7,51.3,21.7,51.3c-11.7-18-8.3-51.3-8.3-51.3c12.7,38.7,32.7,37.7,32.7,37.7c-13.7-5.3-15.3-32-15.3-32l15.3,23.7h24.7
			c2,13-14,26.7-14,26.7C387,531.7,383.7,481.3,383.7,481.3z M346.7,507.8c0,0-11.3-9.8-12.3-20l16,1.5
			C350.3,489.3,338.5,496.3,346.7,507.8z M360.5,510.8c7.8-9.9,4.2-9.1,3.9-8.5s-7.2,7.3-12.9,1.8s1.5-13.3,1.5-13.3
			c11,4.7,17,14.5,17,14.5L360.5,510.8z"/>
		<path class="st2" d="M298,414.3c0,0-68.7,82.7-5,150.7c0,0-9,0.2-11.5-1c0,0,13,16.5,40,29.5c0,0-4-10.5-3.8-25.5l28.2,25.5
			l35.8,73.2l-23-23.2c0,0-3.5,3.5-3.2,9.8c0,0-11.8-13.5-14-38.8c0,0-3,8.8-2.8,17.2c0,0-13.3-24.2-14.4-29.8
			c0,0-12.8-0.2-20.3-6.2l5,11.8c0,0-45.5-16.5-46.5-76.5c0,0-2.8,0.8-4.5,11.5c0,0-15.7-54.5,12.7-95.8c0,0-8.7,4-15.7-5
			c0,0,18,2,22.3-3.7C281.7,432.3,293.3,416.2,298,414.3z"/>
		<path class="st2" d="M542,365.5c0,0-25.8,3-46.8,32.5c0,0,18,16.5,28.2,32.8C523.5,430.8,519.5,387.2,542,365.5z"/>
		<path class="st2" d="M444.7,451.7c0,0-5,14-9,16.3l-5-17l-3.7,39.3C427,490.3,444,485.7,444.7,451.7z"/>
		<path class="st2" d="M445.7,541.3c0,0-16-13.7-14-26.7h24.7l15.3-23.7c0,0-1.7,26.7-15.3,32c0,0,20,1,32.7-37.7
			c0,0,3.3,33.3-8.3,51.3c0,0,19.7-12,21.7-51.3l1,16.5c0,0,17-40.2-17-87.5c0,0,13.7,34.7,8.9,55.2c0,0-2.8-10.8-9-16
			c0,0,6,25-29.2,30.8c0,0,8.8-29.8-4.3-41.9c0,0,4,40.3-24.3,54.3l-12-15.3C416.3,481.3,413,531.7,445.7,541.3z M449.7,489.3
			l16-1.5c-1,10.2-12.3,20-12.3,20C461.5,496.3,449.7,489.3,449.7,489.3z M430,505.3c0,0,6-9.8,17-14.5c0,0,7.2,7.8,1.5,13.3
			s-12.5-1.2-12.9-1.8s-3.9-1.5,3.9,8.5L430,505.3z"/>
		<path class="st2" d="M502,414.3c0,0,68.7,82.7,5,150.7c0,0,9,0.2,11.5-1c0,0-13,16.5-40,29.5c0,0,4-10.5,3.8-25.5L454,593.5
			l-35.8,73.2l23-23.2c0,0,3.5,3.5,3.2,9.8c0,0,11.8-13.5,14-38.8c0,0,3,8.8,2.8,17.2c0,0,13.3-24.2,14.4-29.8
			c0,0,12.8-0.2,20.3-6.2l-5,11.8c0,0,45.5-16.5,46.5-76.5c0,0,2.8,0.8,4.5,11.5c0,0,15.7-54.5-12.7-95.8c0,0,8.7,4,15.7-5
			c0,0-18,2-22.3-3.7C518.3,432.3,506.7,416.2,502,414.3z"/>
		<path class="st2" d="M439.3,588.5h-27.7l-9.8-10v-4.7l8.3-7.2c0,0,3.3,0,6.5,0c3.2,0,11-4.6,9-26.1c0,0-6.7,19.8-25.7,19.8
			s-25.7-19.8-25.7-19.8c-2,21.5,5.8,26.1,9,26.1c3.2,0,6.5,0,6.5,0l8.3,7.2v4.7l-9.8,10h-27.7l-13.8-12.7l8.2,18h11.8
			c1.3,13.5,9.2,21.8,9.2,21.8v-21.8h18.5c0-1.2,0.2-2.4,1.6-2.5c2,0,3.9,0,3.9,0s2,0,3.9,0c1.4,0.1,1.6,1.3,1.6,2.5H424v21.8
			c0,0,7.8-8.3,9.2-21.8H445l8.2-18L439.3,588.5z"/>
		<polygon class="st2" points="423.7,619.8 423.7,639.3 400,639.3 376.3,639.3 376.3,619.8 363.7,634.2 386,656.3 393.2,650.5 
			400,655.5 406.8,650.5 414,656.3 436.3,634.2 		"/>
	</g>
	<g>
		<path class="st1" d="M258,362c0,0,52.5-5.5,80.8,13c0,0-18,14.2-27.5,32c0,0-1.5-9,8.5-23.8l-10.8,9
			C309,392.2,297.5,372.5,258,362z"/>
		<path class="st1" d="M333,393c0,0,17-31.3,62.7-31.3v5.5c0,4-3,7.3-6.9,7.8C376.4,376.5,350.3,380.9,333,393z"/>
		<path class="st1" d="M382.8,386.8c0,0-22.2-15.2-51,19.8S315,456.8,315,456.8s8-25.2,30-32.8c0,0-4.8,6.5-6.2,8.8s-3.2,9,1.8,11.8
			s13.8,1.2,17.2-2.2s22.8-28.5,30.8-27.5c0,0-14-4.5-26.5,3c0,0,11.5-15.8,28.2-17.8c0,0-27.5-6.8-58.8,21.5c0,0,10.5-16.2,23-24.2
			S382.8,386.8,382.8,386.8z"/>
		<path class="st1" d="M291,449.3c0,0-9.7,28.7,6.7,64.7l-7-4c0,0,5.7,10.3,5.8,18.5c0,0,2.7-9.5,4-10.8c0,0,5.3,17,7.3,20.8
			s5.5,13,5.5,13.8l4-13.2c0,0,10.8,14.7,14.5,19.8c0,0,24.5-14.7,38-21.3l-33.5,31.8l5.3,15.8c0,0-7.5-2.2-22-20l0.3,7.8
			c0,0-10.5-6-20-33.2l-0.2,14c0,0-13-12.3-17.3-39.7c-4.3-27.3-4-45.3-4-45.3l6.5,7.3C285,476.3,282.5,458.2,291,449.3z"/>
		<path class="st1" d="M542,362c0,0-52.5-5.5-80.8,13c0,0,18,14.2,27.5,32c0,0,1.5-9-8.5-23.8l10.8,9C491,392.2,502.5,372.5,542,362
			z"/>
		<path class="st1" d="M467,393c0,0-17-31.3-62.7-31.3v5.5c0,4,3,7.3,6.9,7.8C423.6,376.5,449.7,380.9,467,393z"/>
		<path class="st1" d="M417.2,386.8c0,0,22.2-15.2,51,19.8s16.8,50.2,16.8,50.2s-8-25.2-30-32.8c0,0,4.8,6.5,6.2,8.8s3.2,9-1.8,11.8
			s-13.8,1.2-17.2-2.2s-22.8-28.5-30.8-27.5c0,0,14-4.5,26.5,3c0,0-11.5-15.8-28.2-17.8c0,0,27.5-6.8,58.8,21.5
			c0,0-10.5-16.2-23-24.2S417.2,386.8,417.2,386.8z"/>
		<path class="st1" d="M509,449.3c0,0,9.7,28.7-6.7,64.7l7-4c0,0-5.7,10.3-5.8,18.5c0,0-2.7-9.5-4-10.8c0,0-5.3,17-7.3,20.8
			s-5.5,13-5.5,13.8l-4-13.2c0,0-10.8,14.7-14.5,19.8c0,0-24.5-14.7-38-21.3l33.5,31.8l-5.3,15.8c0,0,7.5-2.2,22-20l-0.3,7.8
			c0,0,10.5-6,20-33.2l0.2,14c0,0,13-12.3,17.3-39.7c4.3-27.3,4-45.3,4-45.3l-6.5,7.3C515,476.3,517.5,458.2,509,449.3z"/>
		<path class="st1" d="M400,414.8c-11.2,22.9-32.9,21.9-32.9,21.9c24.8,5.1,32.9-4.5,32.9-4.5s8.1,9.6,32.9,4.5
			C432.9,436.6,411.2,437.6,400,414.8z"/>
		<path class="st1" d="M405,438.4c0,0-2,1.7-2.7,2.2c-0.7,0.6-1.5,0.7-2.3,0.7s-1.7-0.1-2.3-0.7c-0.7-0.6-2.7-2.2-2.7-2.2
			c-1.4,6.8-12,11.2-12,11.2c12.5,1.9,13.8-3.4,13.8-3.4l3.2,6.6l3.2-6.6c0,0,1.3,5.3,13.8,3.4C417,449.7,406.4,445.2,405,438.4z"/>
		<path class="st1" d="M400,454c-8.4,17.4-26.2,16.8-26.2,16.8c23.3,5.2,26.2-3.7,26.2-3.7s2.9,8.8,26.2,3.7
			C426.2,470.8,408.4,471.4,400,454z"/>
		<path class="st1" d="M437,595.3c0,0,0.1,39.6-19.2,39.6H400h-17.8c-19.3,0-19.2-39.6-19.2-39.6h-7.3c7.2,50.3,17.6,45.6,25.1,45.6
			s19.2,0,19.2,0s11.8,0,19.2,0s17.9,4.8,25.1-45.6H437z"/>
	</g>
	<g>
		<polygon class="st2" points="290.3,192 318,175 343.3,190.7 400,152 452.7,191.3 480.7,174 511.3,192 		"/>
		<g>
			<polygon class="st1" points="299.5,192 313,181.8 327.2,192 			"/>
			<polygon class="st1" points="329.2,192 334.8,187.8 341,192 			"/>
			<polygon class="st1" points="360.8,192 382.8,176.8 390,182.8 407.2,166.2 445.2,192 			"/>
			<polygon class="st1" points="473.2,192 490,180.8 506.8,192 			"/>
		</g>
	</g>
	<g>
		<circle class="st2" cx="400.5" cy="154.5" r="27.2"/>
		<path class="st1" d="M400.5,128.8c14.2,0,25.8,11.6,25.8,25.8s-11.6,25.8-25.8,25.8s-25.8-11.6-25.8-25.8S386.3,128.8,400.5,128.8
			 M400.5,127.2c-15,0-27.2,12.2-27.2,27.2s12.2,27.2,27.2,27.2c15,0,27.2-12.2,27.2-27.2S415.5,127.2,400.5,127.2L400.5,127.2z"/>
		<polygon class="st1" points="400,141.3 403,150.4 412.5,150.4 404.8,156 407.7,165.1 400,159.5 392.3,165.1 395.2,156 
			387.5,150.4 397,150.4 		"/>
		<g>
			<path class="st0" d="M374.8,152.4l3.6,5.9l8.1-8.8l-1.4-10.9l-6.5,2.1C376.6,144.2,375.2,148.2,374.8,152.4z"/>
			<path class="st0" d="M420.5,170.7l-0.3-7.3l-10.7,2.5l-5.3,10.7l7,1.2C414.8,176.3,418,173.8,420.5,170.7z"/>
			<path class="st0" d="M422.6,141.4l-6.7-2.2l-1.4,10.9l8.1,8.8l3.6-6C425.9,148.7,424.7,144.8,422.6,141.4z"/>
			<path class="st0" d="M389.8,177.9l6.8-1.2l-5.3-10.7l-10.7-2.5l-0.3,6.9C382.8,173.6,386.1,176.2,389.8,177.9z"/>
			<path class="st0" d="M405.9,129.3c-1.7-0.4-3.5-0.6-5.4-0.6c-2.2,0-4.3,0.3-6.3,0.8l-4.2,5.8l10,4.7l10.8-5.1L405.9,129.3z"/>
		</g>
	</g>
	<g>
		<circle class="st1" cx="357.1" cy="210.1" r="3.1"/>
		<circle class="st1" cx="444.1" cy="210.1" r="3.1"/>
		<path class="st1" d="M379.6,202.2v16.5H375v-10.8c-0.7,0.6-1.5,1-2.1,1.4c-0.7,0.3-1.6,0.7-2.6,1v-3.7c1.5-0.5,2.7-1.1,3.6-1.8
			c0.8-0.7,1.5-1.5,2-2.6H379.6z"/>
		<path class="st1" d="M385.6,214.8l4.4-0.6c0.1,0.6,0.3,1.1,0.6,1.3s0.6,0.4,1,0.4c0.7,0,1.3-0.4,1.7-1.1c0.3-0.5,0.5-1.7,0.7-3.4
			c-0.5,0.5-1.1,0.9-1.6,1.2c-0.6,0.3-1.2,0.4-1.9,0.4c-1.4,0-2.6-0.5-3.6-1.5c-1-1-1.5-2.3-1.5-3.9c0-1.1,0.3-2,0.8-2.9
			s1.2-1.5,2.1-2c0.9-0.4,2-0.7,3.3-0.7c1.6,0,2.9,0.3,3.8,0.8c1,0.5,1.7,1.4,2.3,2.6s0.9,2.8,0.9,4.7c0,2.9-0.6,5-1.8,6.3
			c-1.2,1.3-2.9,2-5,2c-1.3,0-2.3-0.1-3-0.4s-1.3-0.7-1.8-1.3S385.8,215.6,385.6,214.8z M393.7,207.7c0-0.9-0.2-1.5-0.7-2
			s-1-0.7-1.6-0.7c-0.6,0-1.1,0.2-1.5,0.7c-0.4,0.4-0.6,1.1-0.6,2c0,0.9,0.2,1.6,0.6,2c0.4,0.5,0.9,0.7,1.5,0.7
			c0.6,0,1.1-0.2,1.6-0.7C393.5,209.2,393.7,208.5,393.7,207.7z"/>
		<path class="st1" d="M402.8,202.3h10.5v3.5h-7.1l-0.4,2.4c0.5-0.2,1-0.4,1.5-0.5c0.5-0.1,1-0.2,1.4-0.2c1.6,0,2.9,0.5,3.9,1.4
			c1,1,1.5,2.2,1.5,3.6c0,1-0.3,2-0.8,3c-0.5,1-1.2,1.7-2.2,2.2s-2.1,0.8-3.6,0.8c-1.1,0-2-0.1-2.7-0.3c-0.8-0.2-1.4-0.5-1.9-0.9
			c-0.5-0.4-1-0.8-1.3-1.3s-0.6-1.1-0.8-1.9l4.5-0.5c0.1,0.7,0.4,1.3,0.8,1.6c0.4,0.4,0.9,0.6,1.4,0.6c0.6,0,1.1-0.2,1.5-0.7
			c0.4-0.5,0.6-1.2,0.6-2.1c0-1-0.2-1.6-0.6-2.1c-0.4-0.4-0.9-0.7-1.6-0.7c-0.4,0-0.8,0.1-1.2,0.3c-0.3,0.2-0.6,0.4-1,0.8l-3.8-0.5
			L402.8,202.3z"/>
		<path class="st1" d="M418.2,202.3h10.5v3.5h-7.1l-0.4,2.4c0.5-0.2,1-0.4,1.5-0.5s1-0.2,1.4-0.2c1.6,0,2.9,0.5,3.9,1.4
			c1,1,1.5,2.2,1.5,3.6c0,1-0.3,2-0.8,3c-0.5,1-1.2,1.7-2.2,2.2c-0.9,0.5-2.1,0.8-3.6,0.8c-1.1,0-2-0.1-2.7-0.3
			c-0.8-0.2-1.4-0.5-1.9-0.9c-0.5-0.4-1-0.8-1.3-1.3s-0.6-1.1-0.8-1.9l4.5-0.5c0.1,0.7,0.4,1.3,0.8,1.6c0.4,0.4,0.9,0.6,1.4,0.6
			c0.6,0,1.1-0.2,1.5-0.7c0.4-0.5,0.6-1.2,0.6-2.1c0-1-0.2-1.6-0.6-2.1c-0.4-0.4-0.9-0.7-1.6-0.7c-0.4,0-0.8,0.1-1.2,0.3
			c-0.3,0.2-0.6,0.4-1,0.8l-3.8-0.5L418.2,202.3z"/>
	</g>
	<polygon class="st2" points="164.7,238 187.3,238 200.3,267.3 214.7,238 236.3,238 210.7,285.7 210.7,314.5 190.3,314.5 190.3,286 
			"/>
	<path class="st1" d="M236.3,238l-25.7,47.7v28.8h-20.3V286l-25.7-48h22.7l13,29.3l14.3-29.3H236.3 M242.2,234.5h-5.9h-21.7h-2.2
		l-1,2l-11,22.6l-10-22.5l-0.9-2.1h-2.3h-22.7h-5.8l2.8,5.2l25.3,47.2v27.6v3.5h3.5h20.3h3.5v-3.5v-28l25.2-46.9L242.2,234.5
		L242.2,234.5z"/>
	<path class="st2" d="M282,314h19.3l-24.7-76h-21.3L231,314.5h19l2.7-10.5h26.6L282,314z M256,291l9.7-38l10.2,38H256z"/>
	<path class="st1" d="M276.7,238l24.7,76H282l-2.7-10h-26.6l-2.7,10.5h-19l24.3-76.5H276.7 M256,291h19.9l-10.2-38L256,291
		 M279.2,234.5h-2.5h-21.3h-2.6l-0.8,2.4l-24.3,76.5l-1.5,4.6h4.8h19h2.7l0.7-2.6l2-7.9h21.2l2,7.4l0.7,2.6h2.7h19.3h4.8l-1.5-4.6
		l-24.7-76L279.2,234.5L279.2,234.5z M260.5,287.5l5.3-20.7l5.5,20.7H260.5L260.5,287.5z"/>
	<path class="st2" d="M544.2,314h19.3l-24.7-76h-21.3l-24.3,76.5h19l2.7-10.5h26.6L544.2,314z M518.2,291l9.7-38l10.2,38H518.2z"/>
	<path class="st1" d="M538.9,238l24.7,76h-19.3l-2.7-10h-26.6l-2.7,10.5h-19l24.3-76.5H538.9 M518.2,291h19.9l-10.2-38L518.2,291
		 M541.4,234.5h-2.5h-21.3H515l-0.8,2.4l-24.3,76.5l-1.5,4.6h4.8h19h2.7l0.7-2.6l2-7.9h21.2l2,7.4l0.7,2.6h2.7h19.3h4.8l-1.5-4.6
		l-24.7-76L541.4,234.5L541.4,234.5z M522.7,287.5l5.3-20.7l5.5,20.7H522.7L522.7,287.5z"/>
	<polygon class="st2" points="310.3,238 310.3,314.5 328.3,314.5 328.3,265 356.7,314.5 376,314.5 376,238 357.1,238 357.1,286.7 
		329.3,238 	"/>
	<path class="st1" d="M376,238v76.5h-19.3L328.3,265v49.5h-18V238h19l27.8,48.7V238H376 M379.5,234.5H376h-18.9h-3.5v3.5v35.5
		l-21.3-37.2l-1-1.8h-2h-19h-3.5v3.5v76.5v3.5h3.5h18h3.5v-3.5v-36.3l21.8,38.1l1,1.8h2H376h3.5v-3.5V238V234.5L379.5,234.5z"/>
	<polygon class="st2" points="572.6,238 572.6,314.5 590.6,314.5 590.6,265 619,314.5 638.3,314.5 638.3,238 619.4,238 619.4,286.7 
		591.6,238 	"/>
	<path class="st1" d="M638.3,238v76.5H619L590.6,265v49.5h-18V238h19l27.8,48.7V238H638.3 M641.8,234.5h-3.5h-18.9h-3.5v3.5v35.5
		l-21.3-37.2l-1-1.8h-2h-19h-3.5v3.5v76.5v3.5h3.5h18h3.5v-3.5v-36.3l21.8,38.1l1,1.8h2h19.3h3.5v-3.5V238V234.5L641.8,234.5z"/>
	<path class="st2" d="M438,274c0,0,11.7-5.3,11.7-17c0-11.7-8.7-19-19.7-19s-40,0-40,0v76.5c0,0,29.7,0,42,0s20.3-9.5,20.3-22.2
		S442.3,274.3,438,274z M408.7,253h14.7c4.6,0,8.3,3.7,8.3,8.3s-3.7,8.3-8.3,8.3h-14.7V253z M425.7,299.3h-17v-18.7h17
		c5.2,0,9.3,4.2,9.3,9.3S430.8,299.3,425.7,299.3z"/>
	<path class="st1" d="M430,238c11,0,19.7,7.3,19.7,19c0,11.7-11.7,17-11.7,17c4.3,0.3,14.3,5.7,14.3,18.3s-8,22.2-20.3,22.2
		s-42,0-42,0V238C390,238,419,238,430,238 M408.7,269.7h14.7c4.6,0,8.3-3.7,8.3-8.3s-3.7-8.3-8.3-8.3h-14.7V269.7 M408.7,299.3h17
		c5.2,0,9.3-4.2,9.3-9.3s-4.2-9.3-9.3-9.3h-17V299.3 M430,234.5h-40h-3.5v3.5v76.5v3.5h3.5h42c6.9,0,13.1-2.7,17.4-7.5
		c4.1-4.6,6.4-11.1,6.4-18.2c0-9.7-5.1-16-10.4-19.2c3.7-3.3,7.7-8.5,7.7-16.1C453.2,244,443.4,234.5,430,234.5L430,234.5z
		 M412.2,256.5h11.2c2.7,0,4.8,2.2,4.8,4.8s-2.2,4.8-4.8,4.8h-11.2V256.5L412.2,256.5z M412.2,284.2h13.5c3.2,0,5.8,2.6,5.8,5.8
		c0,3.2-2.6,5.8-5.8,5.8h-13.5V284.2L412.2,284.2z"/>
	<rect x="464.3" y="238" class="st2" width="19.7" height="76.5"/>
	<path class="st1" d="M484,238v76.5h-19.7V238H484 M487.5,234.5H484h-19.7h-3.5v3.5v76.5v3.5h3.5H484h3.5v-3.5V238V234.5
		L487.5,234.5z"/>
	<g>
		<g>
			<path class="st1" d="M202.7,353.5c-1.7-0.2-5.5-1.7-7.2-4.2s-4.2-4.7-8.5-4.7c0,0-6.2,0-6.8,2.3c-0.7,2.3-2.3,5.2-4,6.5
				c-1.7,1.3-11.5,5.3-11.5,15.2c0,9.8,8.3,21,21.7,21c13.3,0,23.8-8,24-19.7C210.5,358.3,204.3,353.7,202.7,353.5z M187.2,377
				c-4.2,0-9.3-4.7-9.3-9.2s7.5-7.8,9.3-7.8c3.8,0,9.2,3,9,7.7C196,372.3,191.3,377,187.2,377z"/>
			<path class="st1" d="M218.5,339c0-2.5,6.2-4.7,13.3-1.3c7.2,3.3,8,7.2,7.7,9.5c-0.3,2.3-4.2,3.5-3.7,6s3,3.3,3.3,5.3
				c0.3,2,0,26.7,0,30.2s0.3,7.2-8.7,8.2s-30.2,1.7-32.7,7.7l9.2,6.7c0,0,5.5,0.8,9.5-0.7s13-5.3,17.3-0.2c4.3,5.2,5,9.7-4.8,13
				c-9.8,3.3-23.2,2.2-26.2,1.2s-18.2-13-19.3-15.5s3.3-7.7,10-9.8c6.7-2.2,29.8-5.5,32.2-8.2v-8.8c0,0-7,0-8.7,0s-9.7-4.2-3.3-8.7
				h12v-8.8c0,0-6.2,0-9,0c-2.8,0-7.3-6.5-2.8-8c0,0,4.3,0,7,0c2.7,0,6.7-3.3,6.7-6.8s-1-4.5-3.5-5.5S218.5,342.5,218.5,339z"/>
		</g>
		<path class="st1" d="M557.8,349c-0.5,2.5,1.6,5,3.5,5.2s2.8,2.9,2.6,7.1s0.1,12.5-0.2,15.4s-1.9,14.2,1.2,14.8s35-0.8,36.8-2
			s1.8-1.4,1.9-3.8s-0.9-18.6-0.9-19.4s-1.9-6-1.5-7.1s2.8-2.4,3.2-4.1s-0.6-8.8-8.9-10.1s-11,1.6-10.9,3.2s4.6,5.9,6.8,6.5
			c0,0,0,17.9,0,19.8s-0.6,5.5-4.4,5.5s-6.5,0-8.2,0s-4.4-1.4-4.5-3.2s0-3.2,0-4.1s2.2-3,6.2-3.1s6.8,0,7.8-0.6s1.6-2.5,1.6-4.1
			s0-5.5-3.4-5.8s-9.6,0-10.6,0s-3.2-3.6-1-4.8s0.8-7.2-5.2-7.6S558.4,345.8,557.8,349z"/>
		<path class="st1" d="M614.1,336c3.3-0.4,10.9,0.4,14,5.8s1.5,6.9-0.5,8.6s-2.1,3.9,0.9,8c1.6,3,1.5,29,1.4,31.5
			c-0.1,2.5-0.1,6.2-7,6.2s-26.1,2.6-34.1,4.8c0,0,0.5,6.5,6.2,8.1s14.8-0.5,18.8-1.8s10.9,0,12,6.1s-7.2,11.6-13.9,12
			s-14.8,0-16.5,0s-21-21.6-21-21.6s4.4-8.8,42.1-11.5v-9c0,0-5.5,0-7.4,0s-3.8-2.8-4.1-4.9s-0.5-3.5,5.1-3.9s13.4-5.1,5.2-9
			c0,0-5.6,0-7.6,0s-6-6.1-2.2-7.9l6.6-0.4c0,0,5.8-1.1,5.8-5.6s-7.5-9.4-7.6-10.4S609.4,336.6,614.1,336z"/>
	</g>
</g>
</svg>
