<?xml version="1.0" encoding="utf-8"?>
<!-- Generator: Adobe Illustrator 22.1.0, SVG Export Plug-In . SVG Version: 6.00 Build 0)  -->
<svg version="1.1" id="图层_1" xmlns="http://www.w3.org/2000/svg" xmlns:xlink="http://www.w3.org/1999/xlink" x="0px" y="0px"
	 viewBox="0 0 800 800" style="enable-background:new 0 0 800 800;" xml:space="preserve">
<style type="text/css">
	.st0{fill:#09378D;}
</style>
<g>
	<path class="st0" d="M400,50C206.7,50,50,206.7,50,400s156.7,350,350,350s350-156.7,350-350S593.3,50,400,50z M400,725.5
		C220.2,725.5,74.5,579.8,74.5,400S220.2,74.5,400,74.5S725.5,220.2,725.5,400S579.8,725.5,400,725.5z"/>
	<path class="st0" d="M534.5,626.9c-0.1-0.9-0.8-2.4-2-4.4l-1.2-2c-1.3-2.1-2.2-3.4-3-3.9c-0.5-0.3-1-0.5-1.6-0.5
		c-0.5,0-1,0.1-1.5,0.4c-1,0.6-1.5,1.6-1.3,2.7c0.1,1,0.8,2.4,2,4.4l1.2,2c1.7,2.9,2.5,3.7,3,4c0.5,0.3,1,0.5,1.5,0.5
		c0.5,0,1-0.2,1.6-0.5C534.2,629,534.7,628.1,534.5,626.9z"/>
	<path class="st0" d="M544.1,641.6l-2.2-3.8c-1.3-2.1-2.2-3.4-3-3.9c-0.5-0.3-0.9-0.4-1.5-0.4c-0.5,0-1.1,0.2-1.7,0.5
		c-1.4,0.8-1.6,2-1.5,2.8c0.1,1,0.7,2.4,1.9,4.5l2.2,3.8c1.3,2.2,2.3,3.4,3.1,3.9c0.5,0.3,1,0.4,1.5,0.4c0.5,0,1.1-0.2,1.7-0.5
		c1.1-0.6,1.6-1.6,1.5-2.9C545.9,645,545.3,643.6,544.1,641.6z"/>
	<polygon class="st0" points="443,124.7 442.7,124.7 435.2,151.4 442.7,152.4 	"/>
	<path class="st0" d="M444,250.4c-9-8.8-31.5-11.4-31.5-11.4C414.6,241.3,440.2,253.6,444,250.4z"/>
	<path class="st0" d="M473.5,646.9c-0.6-2.4-1.2-3.8-1.7-4.6c-0.5-0.7-1.3-1-2.1-1c-0.3,0-0.5,0-0.8,0.1c-1.2,0.3-1.9,1.1-2.1,2.3
		c-0.2,1,0,2.5,0.6,4.8l6,23.9c0.8,3.3,1.4,4.2,1.8,4.7c0.5,0.6,1.2,1,2,1c0.3,0,0.6,0,0.9-0.1c1.1-0.3,1.9-1.1,2.1-2.3
		c0.2-1,0-2.5-0.6-4.8L473.5,646.9z"/>
	<path class="st0" d="M622.7,177.3C563.2,117.8,484.1,85,400,85s-163.2,32.8-222.7,92.3C117.8,236.8,85,315.9,85,400
		s32.8,163.2,92.3,222.7C236.8,682.2,315.9,715,400,715s163.2-32.8,222.7-92.3C682.2,563.2,715,484.1,715,400
		S682.2,236.8,622.7,177.3z M113,377c3.3-15.6,20.9-15.2,25.6-14.9c4.6,0.7,4.5,5.2,8.5,6.7c5.9,2.6,4.9,4.3,5.2,5.4s1.1,1,0.9,2.1
		s-4.5,1.6-5.1,0s-7.2-3.7-10.4-1.4s-3.1,5.9-0.4,9.8s11.4,4.4,10.8,0.5s-2.3-3.3-2.3-3.3c1,2.8-0.4,3.7-2.4,3.7s-3.9-2-4.4-5.2
		s3.7-4.8,8.5-2.8c4.8,2,7,7.2,7.7,9s-0.7,8.1-8.5,9s-13.8-4.4-13.8-4.4c-2.6,0.7-6.8,0-10.9-0.9s-7.4-6.3-7.4-6.3
		S112.1,381.2,113,377z M155.7,423.2c-1.5,2.5-5,11.2-13.7,11.8c-8.8,0.6-19.7,1.3-22.8-2.3c-3.1-3.6-3.8-5.8-9.5-7.1
		s-7.3-3.9-5.4-5.5c1.9-1.6,4.5-1.5,8.8-1.3c4.2,0.1,7.4-4.8,7.6-8c0.1-3.2-1.6-7.7-7.1-8.3c-5.5-0.6-5.4,7-2,7
		c3.4,0,1.7-2.5,0.3-2.3c-1.3-0.4-1.3-1.8,0.2-1.9s6.1-1.1,5.9,5.1s-13.5,5.6-15.2-0.7s-2-13.3,0.7-19.9s4.1-8.3,6.9-7.7
		c1.9,0.5,1.8,8.9,11.8,12.1c7,0.8,11-0.2,11-0.2s7.4,6.4,13,5.6c5.5-0.9,6.1-3.2,7.7-3.5c1.6-0.3,3.2,1.3,3.2,7.9
		S157.2,420.7,155.7,423.2z M612.4,404.4c-21,3.1-16.4,32.2-16.4,32.2s-13.6-11.6-6.1-26S612.4,404.4,612.4,404.4z M533.3,464.5
		c6.7-39.7-6.4-55.4-6.4-55.4c25.1-2.9,22.8,55.4,31.8,61.2c18.7-10.8,20.1-35.6,20.4-42.3c0.3-6.7,5-12.2,8.5,1.5
		c5.5,25.7-7,46.4-12,53.4c-5,7-19.5,17.2-19.5,23.6c-1.2,23.6-6.1,36.8-6.1,36.8L539.4,533C547.6,497.1,533.3,464.5,533.3,464.5z
		 M517.5,464.2c3.6-2.4,5.5-2.9,10.4-11c1.5-0.7,2.3,2.2,1.5,6.9c-0.9,4.7-4.4,22-8.5,29.3c-2.5,1-2.2,0.4-2.5-1.8
		c-0.3-2.2-6.9-16.8-10.2-20.7c-3.4-3.9-10.6-14.7-23.5-20.9c0,0-3.9-26-37.5-46.4c0,0-9.3-23-33.5-30.3c-24.2-7.3-16.6,9-16.6,9
		s-67.1-19-66.5-71.8c0.6-52.8,59.4-60.4,84.9-56.7c0,0,14,11,19.9,14.1c0,0-32.6-3-49.7,2.5s-37.4,20.1-31.5,45.9
		s43.1,36.1,78.3,39.8s70.7,21.9,87.7,52.5s8.5,43,2.9,48.6c-3.6,3.6-8.7,5.1-10.3,7.3C511.7,462.4,513.8,466.4,517.5,464.2z
		 M496.5,467.6c-2.6-8.1-7.4-3.4-7.8-1.1c-0.4,2.3-1.3,12.7-10.1,23.6l-9.2-1.2c0,0,14.3-12.7,16.3-38.6c0,0,17.5,6.8,31.9,43.8
		l-11.6,17.3c0,0-12.2-1.8-20.3-15.3C485.8,496,499.5,478.3,496.5,467.6z M421.6,437.9c0,0,16.5-0.4,20,12.2s-9.6,18.5-9.6,18.5
		S437.9,449.9,421.6,437.9z M405.2,436c0,0,15.5-1.5,21.1,12.1c3.5,9.7-4.8,16.6-6.9,17.2C419.5,465.3,421.3,446.1,405.2,436z
		 M387.6,433.1c0,0,15.3-3.6,23.3,12c4.4,9.2,1,16.9-8.9,20.4C402,465.5,409.5,445.1,387.6,433.1z M293.4,440.7
		c5.8-1.5,27.7-4.2,44.2,3.9c16.5,8.2,23,12.5,38.5,27c0,0-12,4.1-14.7,6.1c0,0-19.5-18.2-45.1-25.5c-25.5-7.3-25.2,17.5-22.3,23.2
		c0,0-13.6-0.4-21.7,4.1c-8.2,4.5-53.5,11.5-63.9,8.6c-10.4-2.9-7.9-11.5-3.9-13c3.9-1.5,10.1-0.9,17.4,1.3
		c7.3,2.2,31.1-1.5,39.2-6.4c3.9-2,2-6.3-0.7-4.2c-2.8,2-19,6.6-26.7,6.7c-7.7,0.1-18.5-0.7-29.6-6.3c-11.1-5.5-11.2-11.4-9.2-14.6
		c2-3.2,7.6-4.8,14.4,1.6c6.9,6.4,24.2,13.3,39.8,7.7c15.6-5.5,19.5-9.6,21-11.2c1.5-1.6,0.1-4.4-3.1-2.2s-18.5,11.1-32.2,10.5
		c-13.7-0.6-24.1-7.7-29.2-15.8c-5.1-8-7.1-16.3,0.7-27.6c7.9-11.2,19.4-7.3,21.1-1.5c1.8,5.8,0.6,11.4-7.7,11.7
		c-8.3,0.3-6.7,6.4-5.8,8.6c2.3,5.7,9.3,16.3,26.2,12c16.9-4.4,33.4-11.5,45.9-16.3c12.5-4.8,33.1-7.3,58.8,7
		c25.7,14.3,46.4,33.5,46.4,33.5l-10.5,0.9c0,0-17.8-18.4-36.8-27.4c-19-9-44-10.8-53.1-8.2C286,436.5,287.6,442.1,293.4,440.7z
		 M271.2,509.2c-3.1,3.3-0.7,10.5,1.5,10.3s9.8-0.7,9.8-0.7l1.1,2.6l-19.5,3.3c-3.7-5.7-4.6-16,0.4-22.8s16.8-9.4,26.5-5
		s7,6.3,11.4,5.7s31.1-4.2,31.1-4.2s0.7,5-5.9,6.1c-22.3,3.9-30.4,12.5-31.8,13.8s-4.9,1.3-5.2-0.4s0-8.2,0-8.2
		C283,502.9,274.2,505.9,271.2,509.2z M260.4,526.2c0,0-6.3,9.2-24.7,16.4c0,0-13.1-20.6-0.7-51.2c0,0,19.5-5.7,30.4-5.9
		C265.5,485.5,252.1,503.5,260.4,526.2z M306.1,485.6c-15.2-4.7-14.6-38,8.6-31.3c23.2,6.7,43.5,24.3,43.5,24.3
		c-8.6,4.4-17,13.9-17,13.9C338.4,488.9,321.2,490.3,306.1,485.6z M216.2,357.3c3.9,4.2,1.5,19.9-9.4,20.3s-13.1-7-13.1-7
		C210.1,373.3,216.2,357.3,216.2,357.3z M193.3,358.9c0,0,13.8-1.1,22.8-16.4c0,0,3.9,7.2-1.8,14.2S200.1,366.8,193.3,358.9z
		 M265.7,305.1c-7-4.8-9-10.3-9.8-21.2s7.4-20.6,16.6-21.9c16.3-2.2,17.7,8.2,15.3,14.2c-3.1,5.9-10.7,5.2-13.7,2.2s-5.6-0.1-7.1,3
		s9.8,20.2,15.5,26.1s10.7,26.5-2.8,38.5s-18.6,21.9-21.7,33.2s8.1,26.7,24.7,30.6s21.4,11.8,21.4,11.8
		c-17.5,0.4-46.2,15.1-46.2,15.1c-25.2-11.2-36.3-32.2-27.6-46.2s13.3-30.2,17.3-38.7s2.8-16.8-8.1-18.6s-20.1,14-20.1,14
		c-1.8-12,0.2-22.3,10.5-30.8s16.2-2.2,20.3,3.3s12,9.4,17.3,5.5S272.7,309.9,265.7,305.1z M406.1,409.2
		c-11.8-9.2-25.8-14.9-37.2-16.5c-11.4-1.6-0.2,14.1,17.1,22.2s45.9,24.1,3.3,14.2c-30.4-7.4-38.9-23.4-44-31.5
		c0,0-40,7.7-52.3-17.9s9.2-35.9,17.5-35.7s15.1,5,17.9,11.2s-1.5,11.2-5.2,10.7s-8-1.8-10.1-11.1c0,0-8.8,0.3-11.7,5.8
		c-2.9,5.5,3.8,22.8,26.1,21.6c22.3-1.2,32.5-10.2,62.3,0.9c10.2,2.9,11.6-1,9.2-6.7c-2.4-5.7,1.9-8.6,10.4-5.5
		c8.5,3.1,25.2,7.5,39.9,38.1c7.7,17.3,0.2,22.3-6.1,21.4S417.9,418.4,406.1,409.2z M322.9,251.8c2.3,3.9,6.3,7.3,15.3,7.7
		c9,0.4,18.7-2.6,18.7-2.6c-5.7,1.9-16,12.2-16,12.2c-14,3.9-26.5-4.5-29.8-11.2c-3.2-6.7-2.3-19.8,3.5-24.8c5.8-5,13.7-4.1,19.5-1
		c5.8,3.1,1.8,13.7-3.8,12.8C322.1,243.9,320.5,247.9,322.9,251.8z M333.2,281.6c0,0-3.4,6.1-4.8,13.4c0,0-18.8-0.1-24.8-8
		c-6-7.9-9.8-14.7-6.7-18.8c3.1-4.1,9.2-4.1,11.5,2.3C310.8,276.9,311.6,284.5,333.2,281.6z M327.2,312.8c0,0-13.6,1.6-19.5-1.2
		c-6-2.8-11.2-8.9-11.1-13.6c0.1-4.7,7.6-5.4,10.8-0.7c3.2,4.7,6.3,7.9,20.1,3.6C327.5,301,326.9,307,327.2,312.8z M504.4,267
		c25.1-2,35,5.2,37.6,19.5c2.6,14.3-0.6,18.1,5.2,21.6c0,0-10.2,2.3-17.5-4.1c0,0,0.6-14-5.8-19.5c-6.4-5.5-16-7-29.2-5.5
		c-13.1,1.5-27.1-7.4-17.8-28.1C477,250.9,479.3,269,504.4,267z M501.4,264.1v-5.8c0,0,7.4-7.7,16.5-0.7v6.6H501.4z M583.5,337.3
		c3.5,1.6,7.4,3.6,4.8,10.9c-2.6,7.3-10.5,4.2-13.4,2c-2.9-2.2-20.2-15.9-34.4-24.1c-5.8-3.4-14.1-1.6-17.4-2.8
		c-3.2-1.2-14.5-7-23.8-17.9c-7-8.3-10.1-9.9-14.6-8.5c-4.5,1.5-8.8,6.6-7,15.2c0,0-13.9-8.2-7.1-21.6c6.7-13.4,23.2-11.2,31.8-2.5
		s22.8,23.3,47.5,24.9c24.8,1.6,25.4,13.4,24.4,20.1C574.3,333.2,580,335.7,583.5,337.3z M577.4,408.3c0,0-12.7-13.8-4.2-24.3
		s20.3-3.3,20.3-3.3C575.4,385.6,577.4,408.3,577.4,408.3z M427.2,323.7c2.1,0.3,4,1.1,6.9,4.8s-0.4,10.5-7.9,8.5
		c-11.6-2.8-20.3-30.6,4.2-35c24.6-4.4,33.6,22.5,55.7,43.8s47.2,21.7,47.2,21.7l9.6,16.2c0,0-18.4-7.7-31.3-10.3
		s-27.8-12.2-44.2-32.6s-28.2-33.7-37.3-29.6S425.2,323.3,427.2,323.7z M527.3,351.1c-3.2-6.3-32.2-24.8-42.1-31.1
		c-6.3-3.9-5.5-16.3-1-18.8c4.5-2.5,7-1.2,8.2,3.8c1.2,5,4.1,11.4,15.8,18.4s28.1,20.7,34.9,34.4c4.4,8.9,7,13,7,13
		s6.4-5.5,12.1-2.6c0,0-7.3,4.5-8,10.9c-0.7,6.4-5.8,9-10.5,1C538.8,372.1,530.5,357.4,527.3,351.1z M553.7,361.1
		c-6.1-0.4-8.6-2.5-13.6-12.4c-5-9.9-10.8-17.9-19.2-22.3c0,0,16.5-0.7,24.5,16c4.8,10.4,7.4,11.2,9.5,10.8s4.2-4.1,1-6.3
		c-3.2-2.2-5.2-5.2-4.1-6.6s6.1-3.9,12.8,5.5C571.4,355.4,560.7,361.1,553.7,361.1z M514.2,283.6c3.9,0,9.4,3.1,9.4,9
		s-5.7,5.7-10.1,2S509.2,283.6,514.2,283.6z M476.6,276.4c0,0-12,8.1-10.9,19.5c0,0-19.7-15.5-42.7-14.2s-38.1,11.2-37.2,21
		s5.5,9.2,9.8,6.6s11.6,6.6,0.2,12.5s-27.1-7.4-22.8-24.5C377.5,280.1,399.8,260,476.6,276.4z M448.4,268.8c0,0-27.7-14.3-44.6-33.5
		c0,0,60.1-3.8,67.7,35.3C471.5,270.5,454.8,267.9,448.4,268.8z M600.2,391.2c-16.8,7.9-14,28.7-14,28.7s-7.9-3.9-5.2-17.9
		S600.2,391.2,600.2,391.2z M575.9,174.5c3.8-0.6,8,1.2,12.6,5.4c4.2,3.8,6.4,7.4,6.4,10.9c0,3.4-2.1,7.5-6.4,12.3l-5.1,5.2
		l-9.1-7.6l4.7-4.8c2.5-2.8,4-4.8,4.3-6.1c0.3-1.3,0-2.4-1.2-3.4c-1.1-1-2.3-1.3-3.5-0.8c-1.2,0.5-3.1,2.1-5.6,4.9l-16.4,18.2
		c-2.5,2.8-3.9,4.8-4.3,6.1c-0.3,1.3,0,2.5,1.2,3.5c1.1,1,2.2,1.3,3.4,0.8c1.2-0.5,2.8-1.9,5-4.2l4.6-4.9l8.9,7.8l-4.7,5
		c-4.3,4.8-8.2,7.4-11.6,7.8c-3.4,0.4-7.3-1.4-11.5-5.2c-4.6-4.2-6.8-8.1-6.6-12c0.2-3.8,3-8.8,8.4-14.8l12.8-14.2
		C567.5,178.4,572.1,175.1,575.9,174.5z M564.6,163.1l-4.9,7.7l-10.6-6.7l-8.2,13l10,6.3l-4.9,7.7l-10-6.3l-13.7,21.6l-10.3-6.5
		l31.6-50.1L564.6,163.1z M481.6,121.8l11.8,4l-2.2,35.6l11.1-32.5l11.4,4.9l-19.5,54.7l-12.1-4l4-41.1l-13.3,37.7l-10.8-4
		L481.6,121.8z M436.6,113.7l15.6,2l2.3,60l-11.8-1.5l0-12.5l-10.2-1.3l-3.6,12.1l-10.7-1.4L436.6,113.7z M390.4,109.9l0.3,23.5
		l8.4-0.1l-0.3-23.5l12.2-0.2l0.9,59.2l-12.2,0.2l-0.4-26.7l-8.4,0.1l0.4,26.7l-12.2,0.2l-0.9-59.2L390.4,109.9z M517,253
		c0,0-11.4-5.1-16.2,3.1c0,0-18.5-27.3-88.2-22.9c-29.5,1.8-51.9,9.6-60.1,1.2c-8.2-8.5-3.2-20.7,3.5-21c6.7-0.3,9.5,5.8,8.6,9.8
		s-1.2,9,9.2,6.3C373.8,229.4,482,202.5,517,253z M336.5,121.6c2.2-3.1,5.6-5.3,10.2-6.5c4.4-1.2,8-0.9,10.9,0.8
		c2.9,1.7,4.9,4.8,6,9.3l1.1,4.3l-11.5,3l-1.3-5.1c-0.4-1.5-0.9-2.5-1.5-3.1c-0.6-0.5-1.4-0.6-2.5-0.3c-1.1,0.3-1.7,0.8-2,1.5
		s-0.2,1.9,0.2,3.4l1,3.7c0.4,1.5,1.1,2.6,2.1,3.6c1,0.9,2.7,1.9,5.1,2.9l5.8,2.4c0.3,0.1,0.8,0.3,1.4,0.5c2.8,1.1,4.8,2.2,6,3.4
		c0.9,0.9,1.7,2,2.3,3.2s1.2,2.8,1.7,4.6l0.9,3.5c1.2,4.4,0.7,8.2-1.4,11.3c-2.1,3.1-5.7,5.3-10.8,6.6c-5.2,1.4-9.2,1.2-12-0.4
		c-2.9-1.6-5-5-6.3-10.2l-1.1-4.2l11.8-3.1l1.3,4.9c0.5,1.8,1,2.9,1.8,3.5s1.7,0.7,2.9,0.4c1.2-0.3,2-0.9,2.3-1.7
		c0.3-0.8,0.2-2.2-0.3-4l-0.6-2.2c-0.4-1.6-1.1-2.9-2.1-3.9c-1-1-3.1-2.1-6.2-3.3l-5.8-2.4c-2.8-1.1-4.9-2.6-6.5-4.3
		c-1.5-1.7-2.7-4-3.4-6.7l-1.3-5C333.8,128.2,334.3,124.7,336.5,121.6z M299.5,130.9l21.2,30l-12-32.9l10.5-3.8l18.8,53.5l-11.4,2.9
		l-21-31.8l12.7,35.4l-9.6,3.6L289.9,135L299.5,130.9z M258.1,151.1l20.7,36.4c1.9,3.3,3.3,5.3,4.4,6c1.1,0.7,2.3,0.7,3.6-0.1
		c1.3-0.8,2-1.8,1.9-3.1c-0.1-1.3-1-3.6-2.9-6.9l-20.7-36.4l10.7-6l19.3,34.1c3.9,7,5.6,12.4,5,16.2c-0.6,3.8-3.5,7.2-8.9,10.2
		c-5.3,3-9.7,3.8-13.2,2.4s-7.3-5.7-11.3-12.7l-19.3-34.1L258.1,151.1z M218.2,178.1l16.1,20.3l-9.4-25.6l9-7.1l9.1,25l29.3,20.1
		l-9.5,7.5l-27.7-19l19.9,25.1l-9.1,7.2l-36.8-46.4L218.2,178.1z M202.7,342.2c4.4-3.5,11.6-10.9,11.8-17.7c0,0,6.3,12.2-2.6,20.6
		s-17.3,8.1-23-0.7C188.9,344.4,198.3,345.8,202.7,342.2z M276.1,644.7c-0.2,1-0.6,2.2-1.1,3.5l-1.1,2.6c-1.3,3.1-3.3,5.1-5.9,5.9
		c-0.9,0.3-1.9,0.5-3,0.5c-1.9,0-4.1-0.5-6.4-1.5c-3.7-1.6-6-3.5-6.9-5.7c-0.9-2.2-0.6-5.1,1-8.8l1-2.4l7.4,3.1l-1.2,2.9
		c-0.6,1.5-0.9,2.7-0.7,3.6c0.2,1,0.9,1.8,2.2,2.3c0.6,0.3,1.2,0.4,1.7,0.4c0.5,0,1-0.1,1.4-0.4c0.8-0.5,1.5-1.5,2.1-3.1l0.7-1.7
		c0.6-1.4,0.8-2.7,0.6-4c-0.2-1.2-0.9-3-2.4-5.4l-2.5-4.4c-1.1-1.9-1.8-3.8-1.9-5.5c-0.1-1.7,0.3-3.5,1.1-5.5l1.6-3.8
		c1.2-2.7,3-4.4,5.6-5.2c1-0.3,2-0.5,3.1-0.5c1.8,0,3.8,0.5,5.9,1.3c3.1,1.3,5.1,3.1,6,5.3c0.9,2.2,0.6,5-0.7,8.1l-1,2.5l-7.1-3
		l1.3-3c0.6-1.3,0.8-2.4,0.6-3.2c-0.2-0.9-0.9-1.6-1.9-2.1c-0.5-0.2-1-0.3-1.5-0.3c-0.5,0-0.9,0.1-1.3,0.4c-0.7,0.4-1.3,1.3-1.9,2.6
		l-1.2,2.8c-0.5,1.2-0.7,2.5-0.5,3.8c0.2,1.2,0.8,2.7,1.9,4.6l2.5,4.4c0.1,0.2,0.3,0.6,0.6,1c1.1,1.9,1.8,3.5,2,4.8
		C276.3,642.7,276.3,643.7,276.1,644.7z M281.7,666.5l17.6-41.8l7.4,3.1l-17.6,41.8L281.7,666.5z M328,683.3l-8.6-2v-34.6l-8.6,32
		l-8.6-3.1l13.9-44l8.1,1.4v33.2l9.5-30.1l8.1,2L328,683.3z M371.6,656.5l-0.1,0.9l-7.6-1l0-0.1c0.4-3.2,0.4-5.2,0-6.3
		c-0.3-0.9-1.1-2-3-2.3c-0.2,0-0.4,0-0.6,0c-1.2,0-2.2,0.5-2.9,1.5c-0.7,1-1.2,3-1.6,6.1l-2.4,19.3c-0.4,3.1-0.4,5.2,0,6.3
		c0.3,0.9,1.1,2.1,3.1,2.3c0.2,0,0.4,0,0.6,0c1.2,0,2.2-0.5,2.8-1.4c0.7-1,1.1-2.7,1.5-5.4l0.2-1.8l7.6,1l-0.2,1.7
		c-0.6,4.9-1.9,8.2-3.8,9.8c-1.4,1.2-3.5,1.8-6.3,1.8c-0.9,0-1.9-0.1-3-0.2c-4.6-0.6-7.7-2.1-9.1-4.4c-1.5-2.4-1.9-6.8-1.1-12.9
		l1.9-15.1c0.8-6.1,2.2-10.2,4.2-12.2c1.5-1.5,3.9-2.2,7-2.2c0.9,0,2,0.1,3,0.2c4.2,0.5,7.1,1.8,8.5,3.8
		C371.8,648.2,372.2,651.7,371.6,656.5z M403.2,691.7h-18.4v-45.4h17.6v5.5h-8.7h-0.9v0.9v11.6v0.9h0.9h8.1v5.5h-8.1h-0.9v0.9v13.7
		v0.9h0.9h9.6V691.7z M426,689.6l-0.7-7.3l9.1-16.2c1.1-1.9,1.9-3.8,2.4-5.4c0.5-1.7,0.7-3.3,0.6-4.6l-0.2-1.8c-0.2-2.4-0.5-4-1-4.8
		c-0.5-0.9-1.3-1.4-2.4-1.4c-0.1,0-0.2,0-0.3,0c-1.2,0.1-2,0.8-2.4,1.9c-0.3,0.9-0.3,2.5-0.1,4.9l0.1,1l-7.5,0.7
		c-0.4-4.3,0.1-7.3,1.5-9.1c1.4-1.7,4.1-2.8,8.1-3.2c0.8-0.1,1.6-0.1,2.3-0.1c2.8,0,4.9,0.6,6.2,1.7c1.6,1.5,2.7,4.4,3.1,8.9
		l0.1,0.7c0.2,2,0.1,3.9-0.4,5.7c-0.4,1.8-1.3,3.8-2.5,5.9l-8.9,15.5l-0.8,1.5l1.7-0.2l14.2-1.3l0.5,5.2L426,689.6z M486.4,676.9
		c-1,2.2-3.5,3.8-7.3,4.8c-1.6,0.4-3,0.6-4.3,0.6c-1.9,0-3.4-0.4-4.5-1.3c-2-1.5-3.6-4.9-4.9-10.1l-4.4-17.3
		c-1.3-5.2-1.4-8.9-0.4-11.2c1-2.2,3.5-3.8,7.4-4.8c1.6-0.4,3-0.6,4.3-0.6c1.8,0,3.3,0.4,4.5,1.3c2,1.5,3.6,4.9,4.9,10l4.4,17.3
		C487.3,670.9,487.4,674.7,486.4,676.9z M514.3,667.8l-13.1-30.3l-0.9-2l-0.8,2c-0.4,1-0.8,1.9-1.4,2.7c-0.3,0.5-0.7,1-1.1,1.4
		l-2.5-5.9c1-1.4,1.8-2.8,2.3-4.3c0.5-1.4,0.8-2.9,0.8-4.3l5.8-2.5l17.4,40.3L514.3,667.8z M552.4,646c-0.6,2.2-2.6,4.3-5.8,6.3
		c-2.6,1.5-4.8,2.3-6.8,2.3c-0.5,0-1-0.1-1.5-0.2c-2.2-0.5-4.2-2.4-6.1-5.6l-2.2-3.7c-1.2-2-1.7-3.8-1.6-5.6
		c0.1-1.7,0.8-3.3,2.2-4.7l2.1-2.2l-2.9,0.8c-0.7,0.2-1.4,0.3-2.1,0.3c-1,0-1.9-0.2-2.8-0.6c-1.5-0.7-2.8-1.8-3.8-3.5l-1.3-2.3
		c-1.9-3.2-2.5-5.9-2-8c0.6-2.2,2.5-4.3,5.7-6.2c2.5-1.5,4.7-2.2,6.6-2.2c0.5,0,1,0.1,1.5,0.2c2.2,0.5,4.2,2.4,6.1,5.6l1.3,2.3
		c1,1.6,1.4,3.3,1.3,5c-0.1,1.7-0.8,3.1-2.1,4.4l-2.1,2.2l3-0.8c0.8-0.2,1.5-0.3,2.2-0.3c1,0,2,0.2,3,0.7c1.6,0.7,3,2.1,4.1,4
		l2.2,3.7C552.3,641.1,553,643.8,552.4,646z M584.3,577l-23.3,0.3l-8.5-6.4c0,0-20.7-2.6-27.7-8.8s-5.2-9.9-5.2-9.9l-23.9-14.9
		l-1.5,1.2l3.4,4.2l1.5,9.3l13.8,13.1l0.2,7.7l15.3,9.2l8.1,9.2l-31.1-14c0,0-6.8,2.2-11.6-1.3s-6.8-7.4-6.6-12.9
		c-7.9-0.9-10.5-1.1-13.1-1.3s-4.6-1.3-7.2-4.6s-7.2-6.1-10.7-5.7l-3.7-4.6l-11.2-1.3l-10.9-10.1c0,0,3.4-2.8,5-3.9s1.5-4.4-3.9-7.2
		s-16.2-10.7-16.2-10.7L405.2,531c0,0-8.5-3.9-15.8-2s-6.1,9.2-3.5,11.6l-9.4,5.2l-2.8,2.8l-2.8,0.4l-4.4-0.4c0,0-6.9,4.6-8.4,4.4
		c-1.5-0.2-1.6-3.1,0-4.6c1.6-1.5,15.4-19.5,15.4-19.5l0.2-3.5l1.3-2l6.3-5.9l-0.9-3.7l-1.8-3.5v-9.4l-3.5-0.2l-3.1-5.2
		c0,0-9.6,3.3-9.4,7.2c0,0-3.1,2.8-10.3,6.1s-8.3,9-8.5,13.1s-10.5,11.6-14.4,11.9s-4.2-6.1-10.4,0.7s-6.9,7.8-8.9,8.9
		s-13.2,6.2-18.2,8.5s-9,0-10.6-2.8l-18.9,1.6l-14.8,10.3c0,0-6,0.7-8.5,3.7s-9.4,9.4-12.4,9.7s-21.5,1.3-21.5,1.3l-20.1,5.5
		l17.5-13.4l9.4,1.2l46.7-26l8.8-7.3l4.1-1.5c0,0,12.8-1.8,19.5-2.3c6.7-0.6,11.4-4.1,14.3-6.7s11.7-6.7,21.9-9
		c10.2-2.3,11.1-4.7,16-11.1c5-6.4,25.4-23.6,40.2-23.3c14.9,0.3,30,4.1,43.6,12.5c17.4-1.5,34,3.5,36,5.5c4.4-0.9,13.7,1.2,23.6,16
		c20.7,7.3,41.7,19.5,48.4,30.6c7.6,7.6,28.6,18.7,28.6,18.7s35.9,11.7,40.5,11.1c0,0,9.9,9,12.8,9.6
		C617.3,586.1,605.6,587,584.3,577z M645.1,386.7c0.7-1.8,2.8-7,7.7-9c4.8-2,9-0.5,8.5,2.8s-2.4,5.2-4.4,5.2s-3.4-0.9-2.4-3.7
		c0,0-1.8-0.5-2.3,3.3s8.2,3.4,10.8-0.5s2.7-7.5-0.4-9.8s-9.7-0.2-10.4,1.4s-4.9,1.1-5.1,0s0.5-1,0.9-2.1c0.4-1.1-0.7-2.8,5.2-5.4
		c4-1.5,3.9-6.1,8.5-6.7c4.7-0.4,22.3-0.8,25.6,14.9c0.9,4.2-1.5,7-1.5,7s-3.3,5.5-7.4,6.3s-8.3,1.5-10.9,0.9c0,0-5.9,5.2-13.8,4.4
		S644.4,388.4,645.1,386.7z M688.8,409.3c3.4,0,3.5-7.6-2-7c-5.5,0.6-7.3,5.1-7.1,8.3c0.1,3.2,3.4,8.2,7.6,8
		c4.2-0.1,6.9-0.3,8.8,1.3c1.9,1.6,0.3,4.2-5.4,5.5s-6.4,3.5-9.5,7.1c-3.1,3.6-14,2.9-22.8,2.3c-8.8-0.6-12.2-9.3-13.7-11.8
		c-1.5-2.5-1.2-12.7-1.2-19.2s1.6-8.2,3.2-7.9c1.6,0.3,2.2,2.6,7.7,3.5c5.5,0.9,13-5.6,13-5.6s4,1,11,0.2c10-3.2,9.9-11.6,11.8-12.1
		c2.8-0.7,4.2,1.1,6.9,7.7s2.4,13.6,0.7,19.9s-14.9,7-15.2,0.7s4.3-5.2,5.9-5.1s1.5,1.4,0.2,1.9C687,406.8,685.4,409.3,688.8,409.3z
		"/>
</g>
</svg>
