<?xml version="1.0" encoding="utf-8"?>
<!-- Generator: Adobe Illustrator 22.1.0, SVG Export Plug-In . SVG Version: 6.00 Build 0)  -->
<svg version="1.1" id="图层_1" xmlns="http://www.w3.org/2000/svg" xmlns:xlink="http://www.w3.org/1999/xlink" x="0px" y="0px"
	 viewBox="0 0 800 800" style="enable-background:new 0 0 800 800;" xml:space="preserve">
<style type="text/css">
	.st0{fill:#EF8200;}
	.st1{fill:#FCD13E;}
	.st2{fill:#FFFFFF;}
	.st3{fill:#E50012;}
	.st4{fill:#83181D;}
	.st5{fill-rule:evenodd;clip-rule:evenodd;fill:#FCD13E;}
	.st6{fill-rule:evenodd;clip-rule:evenodd;fill:#E50012;}
	.st7{fill-rule:evenodd;clip-rule:evenodd;fill:#FFFFFF;}
</style>
<path class="st0" d="M400,750.1c275-100,275-280,275-280v-420H400C400,50.1,400,480.1,400,750.1z"/>
<path class="st1" d="M400,750.1c-275-100-275-280-275-280v-420h275C400,50.1,400,480.1,400,750.1z"/>
<path class="st2" d="M654,71.1v399c0,0.1-0.1,9.9-4.1,25.8c-3.7,14.7-11.5,37.7-28,64c-18.6,29.7-44.1,57.4-75.8,82.5
	c-39.3,31-88.3,58-145.6,80.3c-57.6-22.2-106.8-49.3-146.2-80.3c-31.9-25.1-57.5-52.8-76.1-82.5c-16.5-26.3-24.4-49.3-28.1-64
	c-4-15.9-4.1-25.7-4.1-25.8v-399H654 M661,64.1H139v406c0,0,0,160,261.5,260c260.5-100,260.5-260,260.5-260V64.1L661,64.1z"/>
<path class="st3" d="M400,710.1c-245-100-245-240-245-240v-390h490v390C645,470.1,645,610.1,400,710.1z"/>
<path class="st4" d="M640,85.1v385c0,0.1-0.1,8.7-3.8,22.9c-3.5,13.1-10.9,33.7-26.5,57.7c-17.5,27-41.7,52.7-71.7,76.3
	c-37.2,29.3-83.6,55.4-138,77.8c-54.4-22.4-100.8-48.5-138-77.8c-30-23.6-54.1-49.3-71.7-76.3c-15.6-24-23-44.6-26.5-57.7
	c-3.8-14.2-3.8-22.8-3.8-22.9v-385H640 M645,80.1H155v390c0,0,0,140,245,240c245-100,245-240,245-240V80.1L645,80.1z"/>
<path class="st5" d="M488.7,319.1c5.2,4.1,6.9,8.4,6.1,15.5c-0.9,7.6-3.3,9.6,3.1,16.3c11.7,12.1,43.3,21.7,60.9,27.3
	c-0.3,5.5-6.7,14.4-10.6,18.3c-5.3,5.2-13,9.6-20.8,9.5c-24.9-20.5-40.2-33-75.7-27.3c-2,14,26.8,31.2,41.1,34.9
	c12.2,3.2,12.4,2.1,22,3.8c-1,3.6-7.7,9.8-11,11.9c-4.3,2.8-12.7,5.9-17.8,4.9c-6-7.7-3.9-7.3-13.5-11.7c-5.9-2.7-15.7-2.3-21.8-0.5
	c-15.6,4.6-18.8,15-38.2,8.5c-4.9-2.9-10.3-7.5-9-13.9c21.4,9.6,28.5-12.1,20.8-21.8c-8.1-10.2-21.4-11.9-32.7-6.1
	c-9.3,4.7-15.9,13.6-17.2,23.7c-2.2,17.4,7,31.8,24.2,37.2c15.5,4.9,28.7,0.3,37.9,0.6c-5.3,4.8-11.8,8.6-18.4,11.3
	c-13.6,5.5-29.4,8-44,5c-15.7-3.2-28.5-11.6-30.8-28.5c-1.7-12.9,2.6-16.9,5.3-24.1c-5.3,2.8-9.6,10.7-11.6,16.6
	c-7.7,23.3,11.4,43.9,32.6,47.2c4.9,2,18.4,2.2,24,1.8c20-1.5,24.9-6.1,40.5-11.3c3.3-1.1,19.1-5.1,20.2-5.9
	c3.3,0.6,24.8-4.1,42.1,2c11,3.9,21.2,9.2,29.2,17.2c14.3,14.4,23.9,41,17.2,60.3c-0.7,2.1-2.9,7-2.8,8.6
	c-0.1-0.2-1.7-14.2-2.4-16.8c-10.4-36.2-55.1-51.6-88.5-38.1c-4.6,1.9-9.7,3.3-14.4,5c-33.1,11.9-62.7,18.4-96.6,5.4
	c-5.6-2.2-12.9-5.5-17.9-9c-10.4-7.2-18.7-17.7-23.7-29.6c-11.1-26.2,1.8-48.3,1.9-50.6c1.8-1.8,7.7-14.1,17.7-21.9
	c1.9-1.5,3.8-3.5,5.6-4.6l17.8-11.1c-6.2,0.9-22.2,8.2-27.6,12.1c-8.4,6-14.6,11.3-20,20.4c-8.5,9.9-11.4,32-10,45.5
	c1.4,14.3,5.2,20.8,11.4,31.7c12.4,21.8,45.2,32.1,68.8,34.2c7.1,0.6,14.6-0.2,21.2,0.4c-5.2,6.1-31.3,9-37.3,9
	c-22.7-0.1-44.3-8.8-62.1-22.3c-7.1-5.4-16.3-17.7-19.6-26.7c-2.6-7.2-2.7-11.8-4.1-19c-5.3,1.9-12.5,9.1-17.6,10.5
	c-2.1-4.8-1.6-21.5-1.1-27.4c1.9-22.4,11.8-45.8,29.4-59.6l-19.1-1.9c1.7-8,23.2-27.6,32.8-33.3c20-12.1,25.2-14,47.8-18.5
	c-20.9-9.6-22.4-9.4-41.4-24.6c-11.3-9-18.7-21.6-23.8-35c-2.9-7.8-2.4-24.3,7.5-26.3c0.5,0.6,2.7,6.2,6,11.2
	c10.2,15.5,27.8,25.9,42.9,35.8c9.5,6.2,59.6,33.9,71.2,26.9L378,310.3c-0.9-2-31.7-22.6-38.6-46.7c-2.2-7.8-1.9-17.6,5.4-21.7
	c2.8,2.6,5.5,9.2,21.3,23c13.7,12.1,38.6,24.9,56.6,31.8c10.7,4.1,22.4,7.7,33.5,10.7C464.6,309.6,482.4,314,488.7,319.1
	L488.7,319.1z M523,531.1c-11.5-20.5-33.3-28.1-55.7-25.9c-8.8,0.9-25.1,4.4-33,7.8c-9.5,4.1-19.7,7.3-29.3,11.6
	c-22.1,9.9-39.7,17-64.9,16.9c-23.4-0.1-46.8-9.8-64.4-24.9c-5.5-4.7-20.5-19.1-22.9-25.9c-1.2-0.7-2.1-3.1-3-4.4
	c-8.8,50.9,39,115.8,84.5,133.3c7.1,2.7,12.6,5.2,20.1,7.4c40.2,11.6,76.9,7.9,114.9-9C499.2,604.7,544.3,569.1,523,531.1z"/>
<path class="st6" d="M438.4,331.5c-0.4-0.4,31.2-1.4,38.3,6.4c1.1,1.2,1.1,6.8-7.2,11.4c-2.9,1.6-4.1,1.4-6.9,0.2
	C462.6,349.5,448.6,342.7,438.4,331.5z"/>
<path class="st7" d="M444.3,154.6v7.7l-3.5,3.5h3.3v7.9h16.6c0,0,3.3,0.5,3.9-4.2c0,0,1.2-3.7-2.6-5.4c0,0,3.2-1.7,2.7-4.7
	c0,0-0.4-4.4-3.4-4.6C458.4,154.5,444.3,154.6,444.3,154.6z"/>
<path class="st7" d="M287,114.5h-65.7c0,0-22.7,2.1-23.6,26.5v37.9c0,0,0.4,18.1,22.7,24.4h53.9l13.1-18.5h-66.1V133h53.5L287,114.5
	z"/>
<path class="st7" d="M391.8,114.9H327c0,0-20.6-0.8-25.7,26.5v14.7l-12.6,18.1h12.6v28.2h24v-28.2h47.2l13.1-17.7h-59.4v-24.4H380
	L391.8,114.9z"/>
<path class="st7" d="M601.7,114.5h-63.6c0,0-21.5-0.8-25.7,24v40c0,0,0.8,20.2,22.7,24H589l13.1-17.7h-65.7v-52.2h53L601.7,114.5z"
	/>
<path class="st7" d="M499.4,114.5c0,0-67.4-1.1-67.4,0c0,1.1-19.2,0.8-23.2,23.8v11.4h24V133h53L499.4,114.5z"/>
<path class="st7" d="M409.1,179v23.8h23.6v-24C432.7,178.9,409.1,178.9,409.1,179z"/>
<polygon class="st7" points="396.6,154.7 396.6,173.4 401.8,173.4 401.8,166 405.7,166 405.7,162.3 401.5,162.3 401.5,154.7 "/>
<path class="st7" d="M439.5,154.8H425c0,0-4.1,0.4-4.6,5.1v2.5l-2.9,3.7l3.1,0.1v2.9c0,0,0.4,3.8,4,4.4H437l2.5-3.9h-13.7v-3.4h9.5
	l3.1-3.9H426v-4h11.3L439.5,154.8z"/>
<rect x="492" y="154.9" class="st7" width="5.1" height="18.9"/>
<path class="st7" d="M488.3,154.8h-14.4c0,0-4.1,0.4-4.6,5.1v2.5l-2.9,3.7l3.1,0.1v2.9c0,0,0.4,3.8,4,4.4h12.5l2.5-3.9h-13.7v-3.4
	h9.5l3.1-3.9h-12.4v-4h11.3L488.3,154.8z"/>
<path class="st6" d="M449.2,158.6v3.6h10.1v-3.7C459.3,158.5,449.2,158.5,449.2,158.6z"/>
<path class="st6" d="M449.2,166v3.6h10.1v-3.7C459.3,165.9,449.2,165.9,449.2,166z"/>
<polygon class="st7" points="414.6,154.7 414.6,173.4 409.3,173.4 409.3,166 405.4,166 405.4,162.3 409.7,162.3 409.7,154.7 "/>
</svg>
