<?xml version="1.0" encoding="utf-8"?>
<!-- Generator: Adobe Illustrator 22.1.0, SVG Export Plug-In . SVG Version: 6.00 Build 0)  -->
<svg version="1.1" id="图层_1" xmlns="http://www.w3.org/2000/svg" xmlns:xlink="http://www.w3.org/1999/xlink" x="0px" y="0px"
	 viewBox="0 0 800 800" style="enable-background:new 0 0 800 800;" xml:space="preserve">
<style type="text/css">
	.st0{fill:#E50012;}
	.st1{fill-rule:evenodd;clip-rule:evenodd;fill:#E50012;}
</style>
<g>
	<path class="st0" d="M400,50H125v420c0,0,0,180,275,280c275-100,275-280,275-280V50H400z M661,470c0,0,0,160-260.5,260
		C139,630,139,470,139,470V64h522V470z"/>
	<path class="st0" d="M640,85v385c0,0.1-0.1,8.7-3.8,22.9c-3.5,13.1-10.9,33.7-26.5,57.7c-17.5,27-41.7,52.7-71.7,76.3
		c-37.2,29.3-83.6,55.4-138,77.8c-54.4-22.4-100.8-48.5-138-77.8c-30-23.6-54.1-49.3-71.7-76.3c-15.6-24-23-44.6-26.5-57.7
		c-3.8-14.2-3.8-22.8-3.8-22.9V85H640 M645,80H155v390c0,0,0,140,245,240c245-100,245-240,245-240V80L645,80z"/>
	<g>
		<path class="st0" d="M467.2,505.1c-8.8,0.9-25.1,4.4-33,7.8c-9.5,4.1-19.7,7.3-29.3,11.6c-22.1,9.9-39.7,17-64.9,16.9
			c-23.4-0.1-46.8-9.8-64.4-24.9c-5.5-4.7-20.5-19.1-22.9-25.9c-1.2-0.7-2.1-3.1-3-4.4c-8.8,50.9,39,115.8,84.5,133.3
			c7.1,2.7,12.6,5.2,20.1,7.4c40.2,11.6,76.9,7.9,114.9-9c30-13.4,75.2-48.9,53.9-86.9C511.5,510.5,489.7,502.9,467.2,505.1z"/>
		<path class="st0" d="M527.4,405.9c7.8,0.1,15.6-4.3,20.8-9.5c3.9-3.9,10.3-12.8,10.6-18.3c-17.6-5.6-49.2-15.2-60.9-27.3
			c-6.4-6.7-4-8.7-3.1-16.3c0.9-7.2-0.8-11.4-6.1-15.5c-6.4-5-24.2-9.5-32.5-11.7c-11.1-3-22.8-6.6-33.5-10.7
			c-18.1-6.9-42.9-19.7-56.6-31.8c-15.7-13.8-18.5-20.5-21.3-23c-7.3,4.1-7.6,13.9-5.4,21.7c6.8,24.2,37.6,44.7,38.6,46.7l16.6,11.8
			c-11.6,6.9-61.7-20.7-71.2-26.9c-15.1-9.9-32.6-20.2-42.9-35.8c-3.3-5.1-5.6-10.6-6-11.2c-9.9,2-10.4,18.5-7.5,26.3
			c5,13.4,12.4,26,23.8,35c19.1,15.2,20.5,15,41.4,24.6c-22.6,4.5-27.8,6.4-47.8,18.5c-9.5,5.7-31.1,25.4-32.8,33.3l19.1,1.9
			c-17.6,13.8-27.5,37.1-29.4,59.6c-0.5,5.9-1,22.5,1.1,27.4c5.1-1.3,12.3-8.5,17.6-10.5c1.4,7.2,1.5,11.8,4.1,19
			c3.3,9,12.5,21.3,19.6,26.7c17.8,13.5,39.3,22.2,62.1,22.3c6,0,32.1-2.9,37.3-9c-6.5-0.6-14.1,0.3-21.2-0.4
			c-23.6-2.1-56.5-12.3-68.8-34.2c-6.2-11-10-17.5-11.4-31.7c-1.4-13.5,1.5-35.6,10-45.5c5.4-9.1,11.6-14.3,20-20.4
			c5.4-3.9,21.4-11.2,27.6-12.1l-17.8,11.1c-1.8,1.2-3.7,3.2-5.6,4.6c-10,7.8-15.9,20.1-17.7,21.9c-0.1,2.3-13.1,24.4-1.9,50.6
			c5.1,11.9,13.3,22.4,23.7,29.6c5.1,3.5,12.3,6.9,17.9,9c34,13,63.5,6.5,96.6-5.4c4.7-1.7,9.8-3.1,14.4-5
			c33.4-13.5,78.1,2,88.5,38.1c0.8,2.6,2.3,16.6,2.4,16.8c-0.1-1.6,2.1-6.5,2.8-8.6c6.7-19.3-2.8-45.9-17.2-60.3
			c-8-8-18.2-13.4-29.2-17.2c-17.3-6.1-38.8-1.4-42.1-2c-1.2,0.8-17,4.8-20.2,5.9c-15.5,5.1-20.4,9.8-40.5,11.3
			c-5.6,0.4-19.1,0.2-24-1.8c-21.2-3.3-40.3-23.9-32.6-47.2c2-5.9,6.3-13.8,11.6-16.6c-2.7,7.3-7,11.2-5.3,24.1
			c2.2,16.9,15.1,25.3,30.8,28.5c14.6,2.9,30.4,0.5,44-5c6.6-2.7,13.1-6.5,18.4-11.3c-9.2-0.3-22.3,4.3-37.9-0.6
			c-17.2-5.4-26.4-19.9-24.2-37.2c1.3-10.1,7.9-19,17.2-23.7c11.3-5.8,24.6-4,32.7,6.1c7.7,9.7,0.6,31.4-20.8,21.8
			c-1.3,6.4,4.2,11.1,9,13.9c19.4,6.4,22.6-3.9,38.2-8.5c6.1-1.8,16-2.2,21.8,0.5c9.6,4.4,7.6,4.1,13.5,11.7
			c5.1,1,13.4-2.1,17.8-4.9c3.3-2.1,10-8.2,11-11.9c-9.7-1.7-9.8-0.6-22-3.8c-14.4-3.7-43.1-20.9-41.1-34.9
			C487.3,372.9,502.6,385.4,527.4,405.9z M438.4,331.3c-0.4-0.4,31.2-1.4,38.3,6.4c1.1,1.2,1.1,6.8-7.2,11.4
			c-2.9,1.6-4.1,1.4-6.9,0.2C462.6,349.3,448.6,342.6,438.4,331.3z"/>
	</g>
	<path class="st1" d="M287,114.3h-65.7c0,0-22.7,2.1-23.6,26.5v37.9c0,0,0.4,18.1,22.7,24.4h53.9l13.1-18.5h-66.1v-51.8h53.5
		L287,114.3z"/>
	<path class="st1" d="M391.8,114.7H327c0,0-20.6-0.8-25.7,26.5V156l-12.6,18.1h12.6v28.2h24v-28.2h47.2l13.1-17.7h-59.4V132H380
		L391.8,114.7z"/>
	<path class="st1" d="M601.7,114.3h-63.6c0,0-21.5-0.8-25.7,24v40c0,0,0.8,20.2,22.7,24H589l13.1-17.7h-65.7v-52.2h53L601.7,114.3z"
		/>
	<path class="st1" d="M499.4,114.3c0,0-67.4-1.1-67.4,0c0,1.1-19.2,0.8-23.2,23.8v11.4h24v-16.6h53L499.4,114.3z"/>
	<path class="st1" d="M409.1,178.9v23.8h23.6v-24C432.7,178.7,409.1,178.7,409.1,178.9z"/>
	<polygon class="st1" points="396.6,154.5 396.6,173.3 401.8,173.3 401.8,165.9 405.7,165.9 405.7,162.2 401.5,162.2 401.5,154.5 	
		"/>
	<path class="st1" d="M439.5,154.7H425c0,0-4.1,0.4-4.6,5.1v2.5l-2.9,3.7l3.1,0.1v2.9c0,0,0.4,3.8,4,4.4H437l2.5-3.9h-13.7v-3.4h9.5
		l3.1-3.9H426v-4h11.3L439.5,154.7z"/>
	<rect x="492" y="154.8" class="st1" width="5.1" height="18.9"/>
	<path class="st1" d="M488.3,154.7h-14.4c0,0-4.1,0.4-4.6,5.1v2.5l-2.9,3.7l3.1,0.1v2.9c0,0,0.4,3.8,4,4.4h12.5l2.5-3.9h-13.7v-3.4
		h9.5l3.1-3.9h-12.4v-4h11.3L488.3,154.7z"/>
	<path class="st1" d="M462,163.9c0,0,3.2-1.7,2.7-4.7c0,0-0.4-4.4-3.4-4.6c-2.9-0.2-17.1-0.1-17.1-0.1v7.7l-3.5,3.5h3.3v7.9h16.6
		c0,0,3.3,0.5,3.9-4.2C464.6,169.3,465.8,165.6,462,163.9z M459.3,169.5h-10.1v-3.6c0-0.1,10.1-0.1,10.1-0.1V169.5z M459.3,162.1
		h-10.1v-3.6c0-0.1,10.1-0.1,10.1-0.1V162.1z"/>
	<polygon class="st1" points="414.6,154.5 414.6,173.3 409.3,173.3 409.3,165.9 405.4,165.9 405.4,162.2 409.7,162.2 409.7,154.5 	
		"/>
</g>
</svg>
