<?xml version="1.0" encoding="utf-8"?>
<!-- Generator: Adobe Illustrator 22.1.0, SVG Export Plug-In . SVG Version: 6.00 Build 0)  -->
<svg version="1.1" id="图层_1" xmlns="http://www.w3.org/2000/svg" xmlns:xlink="http://www.w3.org/1999/xlink" x="0px" y="0px"
	 viewBox="0 0 800 800" style="enable-background:new 0 0 800 800;" xml:space="preserve">
<style type="text/css">
	.st0{fill:#C1A567;}
	.st1{fill:#00462D;}
	.st2{fill-rule:evenodd;clip-rule:evenodd;fill:#FFFFFF;}
	.st3{fill-rule:evenodd;clip-rule:evenodd;fill:#C1A567;}
</style>
<circle class="st0" cx="400" cy="400" r="350"/>
<circle class="st1" cx="400" cy="400" r="338.3"/>
<path class="st0" d="M286.5,253.3c21.8,12,59.9,27.2,113.8,27.3c53.8-0.1,92-15.3,113.8-27.3c4.3,55.9,14.7,192.6,15.3,211.3
	c0.3,8.8-2.4,23.8-10.8,39.6c-6.2,11.7-17.8,27.4-37.4,36.5c-42.7,16.1-66.7,31-79.5,40.9l-1.3-1.5l-1.3,1.5
	c-12.8-9.8-36.8-24.8-79.5-40.9c-19.6-9.1-31.1-24.9-37.4-36.5c-8.4-15.7-11.1-30.7-10.8-39.6C271.9,445.9,282.2,309.2,286.5,253.3
	 M526.2,228.5c0,0-43.1,38-125.9,38.1c-82.8-0.1-125.9-38.1-125.9-38.1s-16.3,211.6-17.1,235.7c-0.8,24.1,15.2,70.4,56.8,89.4
	c62.2,23.4,82.5,43.6,85.9,47.5v0.7c0,0,0.1-0.1,0.3-0.4c0.2,0.2,0.3,0.4,0.3,0.4v-0.7c3.5-3.9,23.7-24.2,85.9-47.5
	c41.6-19.1,57.6-65.3,56.8-89.4C542.5,440.1,526.2,228.5,526.2,228.5L526.2,228.5z"/>
<g>
	<path class="st2" d="M473.8,352.7c0,0,29.1,32.5,18.1,78.1c-5.8-14-11.2-28.5-22.4-34.8C476.1,382.7,475.4,367.8,473.8,352.7
		L473.8,352.7z M487.5,446.3L487.5,446.3c0,0-14.7,41-60,53.2c9.6-11.7,19.7-23.4,19.9-36.3C462.2,462.6,475,454.9,487.5,446.3
		L487.5,446.3z M413.6,503.9L413.6,503.9c0,0-42.7,8.7-76.6-23.8c15,2.1,30.2,4.7,41.3-1.8C386.5,490.7,399.7,497.7,413.6,503.9
		L413.6,503.9z M324.8,467.4L324.8,467.4c0,0-28.3-33.2-16.1-78.6c5.4,14.1,10.4,28.7,21.5,35.3
		C323.3,437.3,323.5,452.2,324.8,467.4L324.8,467.4z M313,374.2L313,374.2c0,0,14.7-41,60.1-53.1c-9.6,11.7-19.7,23.4-19.9,36.3
		C338.3,357.8,325.5,365.5,313,374.2L313,374.2z M387.7,318.2L387.7,318.2c0,0,42.7-8.7,76.6,23.8c-15-2.1-30.2-4.8-41.3,1.8
		C414.8,331.4,401.6,324.5,387.7,318.2z"/>
	<path class="st2" d="M399.2,357.7c3.5,0,6.9,0.4,10.2,1c-20.1,3.7-35.4,21.5-35.4,42.6c0,23.9,19.5,43.4,43.4,43.4
		c11.3,0,21.6-4.4,29.4-11.5c-8.5,17.7-26.6,29.9-47.5,29.9c-29,0-52.7-23.7-52.7-52.7C346.5,381.4,370.2,357.7,399.2,357.7z"/>
	<path class="st2" d="M424,396.5c-0.9,0.5-28.8,3.1-26.3-17.5c0-0.5,3.5-1.5,7.5-0.7c-1-4-0.2-7.5,0.4-7.5
		C426.1,367.6,424.4,395.5,424,396.5z"/>
	<path class="st2" d="M427.5,396.5c0.9,0.5,28.8,3.1,26.3-17.5c0-0.5-3.5-1.5-7.5-0.7c1-4,0.2-7.5-0.4-7.5
		C425.5,367.6,427.1,395.5,427.5,396.5z"/>
	<path class="st2" d="M424,400.2c-0.9-0.4-28.8-3.1-26.3,17.5c0,0.5,3.5,1.5,7.5,0.6c-1,4-0.2,7.5,0.4,7.5
		C426.1,429.1,424.4,401.2,424,400.2z"/>
	<path class="st2" d="M427.5,400.2c0.9-0.4,28.8-3.1,26.3,17.5c0,0.5-3.5,1.5-7.5,0.6c1,4,0.2,7.5-0.4,7.5
		C425.5,429.1,427.1,401.2,427.5,400.2z"/>
</g>
<g>
	<g>
		<polygon class="st0" points="212.1,184.4 204.1,176.7 178,203.8 174.9,206.9 170,212 221.6,261.9 226.6,256.7 229.6,253.6 
			255.7,226.5 247.7,218.8 221.6,245.8 207.7,232.4 227.3,212.1 219.3,204.3 199.7,224.7 186,211.5 		"/>
		<polygon class="st0" points="271.3,144.8 265.4,135.3 233.4,155.2 229.8,157.5 223.7,161.3 261.7,222.2 267.8,218.4 271.5,216.1 
			303.4,196.2 297.5,186.7 265.5,206.6 255.3,190.3 279.3,175.3 273.4,165.8 249.4,180.8 239.4,164.7 		"/>
		<polygon class="st0" points="321.8,115 337.2,161.5 298.2,122.8 287.2,126.5 309.8,194.7 320.8,191.1 305.4,144.6 344.4,183.3 
			355.4,179.7 332.8,111.4 		"/>
		<polygon class="st0" points="608.1,186.6 575.7,223.3 589.4,170.2 580.7,162.5 533.2,216.5 541.9,224.2 574.3,187.4 560.6,240.6 
			569.3,248.2 616.8,194.2 		"/>
		<path class="st0" d="M130.8,303L130.8,303c-5.3,3.3-8.3,5.2-13.6,8.6l-6,26.5c2.9,4.6,4.5,7.1,7.4,11.7l50,11.3l1.9,0.4
			c4.4-2.8,6.9-4.3,11.3-7.1l0.5-2.4l3.4-14.9c-2.7-4.4-4.3-6.8-7-11.1l9.1,2.1l2.6-11.6l-40.5-9.2l-2.6,11.6l29.4,6.7l-5.4,23.9
			l-48.4-11L130.8,303z"/>
		<path class="st0" d="M220,264.3l-34.3-1.2c-1.6-5.6-2.5-8.9-4.1-14.6l-17.1-9.6c-5.9,1.7-9.2,2.6-15.1,4.3l-1,1.7L138,263.6
			l-6.4,11.4l9.7,5.4l17.1,9.6l9.7,5.4l26.5,14.8l6.4-11.4L174.4,284l4.9-8.8l33.9,1.3L220,264.3z M147.7,269l10.4-18.7l17.1,9.6
			l-10.4,18.7L147.7,269z"/>
		<polygon class="st0" points="409.4,104.1 356,105.5 356.3,116.8 377.1,116.2 378.7,176.8 390.6,176.5 388.9,115.9 409.7,115.3 		
			"/>
		<path class="st0" d="M429,113.6l-6.8,55.1c2.8,3.6,4.4,5.6,7.2,9.3l30.7,3.8c3.6-2.8,5.6-4.4,9.3-7.2l6.8-55.1
			c-2.8-3.6-4.4-5.6-7.2-9.3l-30.7-3.8C434.6,109.2,432.6,110.7,429,113.6z M457.5,170l-22.8-2.8l6.1-49.3l22.8,2.8L457.5,170z"/>
		<polygon class="st0" points="548.5,139.6 525.9,173.6 530.6,143.5 527,141.8 523.4,140.1 503,162.7 515.1,123.8 503,118 
			482.5,187.9 493,192.9 515.1,166.7 508.7,200.4 519.2,205.4 560.6,145.4 		"/>
		<polygon class="st0" points="661.8,285.9 671.7,280.9 656.1,250.6 650.3,239.3 640.4,244.4 623.3,253.2 613.4,258.3 586.4,272.2 
			592.2,283.5 619.2,269.6 630.4,291.4 640.3,286.3 629.1,264.5 646.2,255.6 		"/>
		<path class="st0" d="M625.5,326.5l48.5-9l6.7,36.1l0,0c3.5-5.1,5.5-8,9-13.1l-4.9-26.4c-5.1-3.5-8-5.5-13.1-9l-48.5,9
			c-3.5,5.1-5.5,8-9,13.1l4.9,26.4c5.1,3.5,8,5.5,13.1,9l0,0L625.5,326.5z"/>
	</g>
	<g>
		<polygon class="st0" points="292.2,608.6 264.1,591.2 260.3,597.3 280.7,609.9 242.1,626.7 238.4,632.8 266.5,650.2 270.3,644.1 
			249.7,631.3 288.4,614.7 		"/>
		<polygon class="st0" points="320.6,618.8 313.4,638.9 299.4,633.9 306.6,613.8 299,611.1 282.4,657.3 290,660.1 296.9,641 
			310.8,646 304,665.1 311.6,667.8 328.2,621.6 		"/>
		<polygon class="st0" points="367.6,638.1 368.4,630.6 342.9,627.9 340,627.5 335.1,627 330,675.7 334.8,676.2 337.8,676.5 
			363.3,679.2 364.1,671.6 338.6,668.9 340,655.8 359.2,657.9 360,650.3 340.8,648.3 342.1,635.4 		"/>
		<path class="st0" d="M394.5,633.2l-1.2,41.4c0,0,0,0,0,0L371,674c0,0,0,0,0,0l0,0c2.8,3,4.4,4.7,7.2,7.6l17.4,0.5
			c2.2-2.1,3.4-3.2,5.6-5.2l1.3-43.5c0,0,0,0,0,0L394.5,633.2C394.5,633.2,394.5,633.2,394.5,633.2z"/>
		
			<rect x="416" y="632.3" transform="matrix(0.9993 -3.791259e-02 3.791259e-02 0.9993 -24.5999 16.4054)" class="st0" width="8.5" height="49"/>
		<path class="st0" d="M466.4,673.3l9.1-2.1l-25-44.2l-0.2,0l-8.4,2l-0.2,0l-2.6,50.7l9.1-2.1l0.6-14.6l10.5-2.5L466.4,673.3z
			 M449,656.3l0.6-13.3l6.4,11.6L449,656.3z"/>
		<polygon class="st0" points="493.8,613 506.3,643.9 478.1,619.3 470.8,622.3 489.1,667.7 496.5,664.7 483.9,633.8 512.1,658.4 
			519.5,655.4 501.1,610 		"/>
		<path class="st0" d="M541,595.9L541,595.9c-4.1-1.1-6.4-1.8-10.5-2.9l-16.1,9.2c-1,3.5-1.5,5.5-2.5,9.1l17.3,30.3l0.6,1.1
			c3.4,0.9,5.3,1.5,8.8,2.4l1.4-0.8l9-5.1c0.9-3.4,1.4-5.3,2.4-8.7l3.1,5.5l7-4l-14-24.6l-7,4l10.2,17.9l-14.5,8.3l-16.8-29.4
			L541,595.9z"/>
	</g>
</g>
<g>
	<polygon class="st3" points="553.3,410.5 558.8,470.4 710.4,470.4 699.5,440.4 710.4,410.5 	"/>
	<polygon class="st3" points="246.7,410.5 241.2,470.4 89.6,470.4 100.5,440.4 89.6,410.5 	"/>
</g>
<g>
	<polygon class="st1" points="155.1,459.5 149.3,459.5 149.3,428 143.8,428 149.6,422.2 155.1,422.2 	"/>
	<path class="st1" d="M184.1,422.2h-11.5l-4.8,4.8l-0.2,0.2v12.2l4.8,4.8l0.2,0.2h10.6v9.3h-16.4l5.8,5.8h11.4l5-5v-27.3
		L184.1,422.2z M183.2,438.5h-9.8V428h9.8V438.5z"/>
	<path class="st1" d="M618.1,422.2h-11.5l-4.8,4.8l-0.2,0.2v12.2l4.8,4.8l0.2,0.2h10.6v9.3h-16.4l5.8,5.8h11.4l5-5v-27.3
		L618.1,422.2z M617.2,438.5h-9.8V428h9.8V438.5z"/>
	<path class="st1" d="M656.3,426.6l-3.9-4.4h-13.6l-3.9,4.4v12.1l1.9,2.1l-1.9,2.1v12.1l3.9,4.4h13.6l3.9-4.4V443l-1.9-2.1l1.9-2.1
		V426.6z M651.1,454.9h-11v-11.8h11V454.9z M651.1,438.5h-11v-11.8h11V438.5z"/>
</g>
</svg>
