<?xml version="1.0" encoding="utf-8"?>
<!-- Generator: Adobe Illustrator 22.1.0, SVG Export Plug-In . SVG Version: 6.00 Build 0)  -->
<svg version="1.1" id="图层_1" xmlns="http://www.w3.org/2000/svg" xmlns:xlink="http://www.w3.org/1999/xlink" x="0px" y="0px"
	 viewBox="0 0 800 800" style="enable-background:new 0 0 800 800;" xml:space="preserve">
<style type="text/css">
	.st0{fill-rule:evenodd;clip-rule:evenodd;fill:#00462D;}
</style>
<g>
	<path class="st0" d="M400,50C206.7,50,50,206.7,50,400s156.7,350,350,350s350-156.7,350-350S593.3,50,400,50z M400,738.3
		C213.1,738.3,61.7,586.9,61.7,400S213.1,61.7,400,61.7S738.3,213.1,738.3,400S586.9,738.3,400,738.3z"/>
	<path class="st0" d="M400.3,601.5c0.2,0.2,0.3,0.4,0.3,0.4v-0.7c3.5-3.9,23.7-24.2,85.9-47.5c41.6-19.1,57.6-65.3,56.8-89.4
		c-0.8-24.1-17.1-235.7-17.1-235.7s-43.1,38-125.9,38.1c-82.8-0.1-125.9-38.1-125.9-38.1s-16.3,211.6-17.1,235.7
		c-0.8,24.1,15.2,70.4,56.8,89.4c62.2,23.4,82.5,43.6,85.9,47.5v0.7C400,601.8,400.1,601.7,400.3,601.5z M399,581.5
		c-12.8-9.8-36.8-24.8-79.5-40.9c-19.6-9.1-31.1-24.9-37.4-36.5c-8.4-15.7-11.1-30.7-10.8-39.6c0.6-18.7,11-155.4,15.3-211.3
		c21.8,12,59.9,27.2,113.8,27.3c53.8-0.1,92-15.3,113.8-27.3c4.3,55.9,14.7,192.6,15.3,211.3c0.3,8.8-2.4,23.8-10.8,39.6
		c-6.2,11.7-17.8,27.4-37.4,36.5c-42.7,16.1-66.7,31-79.5,40.9l-1.3-1.5L399,581.5z"/>
	<path class="st0" d="M427.5,499.4c45.4-12.1,60-53.2,60-53.2c-12.5,8.7-25.3,16.3-40.2,16.9C447.2,476,437,487.7,427.5,499.4z"/>
	<path class="st0" d="M413.6,503.9c-13.9-6.2-27.1-13.3-35.2-25.6c-11.1,6.5-26.3,3.9-41.3,1.8C370.9,512.6,413.6,503.9,413.6,503.9
		z"/>
	<path class="st0" d="M491.9,430.8c11-45.6-18.1-78.1-18.1-78.1c1.6,15.1,2.2,30.1-4.3,43.3C480.7,402.3,486.1,416.8,491.9,430.8z"
		/>
	<path class="st0" d="M422.9,343.9c11.1-6.6,26.3-3.9,41.3-1.8c-33.9-32.5-76.6-23.8-76.6-23.8C401.6,324.5,414.8,331.4,422.9,343.9
		z"/>
	<path class="st0" d="M373,321c-45.4,12.1-60.1,53.1-60.1,53.1c12.5-8.7,25.4-16.3,40.2-16.9C353.3,344.4,363.4,332.7,373,321z"/>
	<path class="st0" d="M308.7,388.8c-12.1,45.3,16.1,78.6,16.1,78.6c-1.3-15.2-1.5-30.1,5.4-43.2C319.1,417.5,314,402.9,308.7,388.8z
		"/>
	<path class="st0" d="M346.5,410.4c0,29,23.7,52.7,52.7,52.7c20.9,0,39-12.2,47.5-29.9c-7.7,7.2-18.1,11.5-29.4,11.5
		c-23.9,0-43.4-19.5-43.4-43.4c0-21.2,15.3-38.9,35.4-42.6c-3.3-0.6-6.7-1-10.2-1C370.2,357.7,346.5,381.4,346.5,410.4z"/>
	<path class="st0" d="M405.6,370.8c-0.6,0-1.4,3.5-0.4,7.5c-4-0.9-7.5,0.1-7.5,0.7c-2.5,20.6,25.4,18,26.3,17.5
		C424.4,395.5,426.1,367.6,405.6,370.8z"/>
	<path class="st0" d="M446,370.8c-20.5-3.2-18.9,24.7-18.4,25.6c0.9,0.5,28.8,3.1,26.3-17.5c0-0.5-3.5-1.5-7.5-0.7
		C447.4,374.4,446.5,370.8,446,370.8z"/>
	<path class="st0" d="M405.6,425.9c20.5,3.3,18.8-24.7,18.4-25.6c-0.9-0.4-28.8-3.1-26.3,17.5c0,0.5,3.5,1.5,7.5,0.6
		C404.2,422.3,405,425.9,405.6,425.9z"/>
	<path class="st0" d="M446,425.9c0.5,0,1.4-3.5,0.4-7.5c4,0.9,7.5-0.1,7.5-0.6c2.5-20.6-25.3-18-26.3-17.5
		C427.1,401.2,425.5,429.1,446,425.9z"/>
	<polygon class="st0" points="226.6,256.7 229.6,253.6 255.7,226.5 247.7,218.8 221.6,245.8 207.7,232.4 227.3,212.1 219.3,204.3 
		199.7,224.7 186,211.5 212.1,184.4 204.1,176.7 178,203.8 174.9,206.9 170,212 221.6,261.9 	"/>
	<polygon class="st0" points="267.8,218.4 271.5,216.1 303.4,196.2 297.5,186.7 265.5,206.6 255.3,190.3 279.3,175.3 273.4,165.8 
		249.4,180.8 239.4,164.7 271.3,144.8 265.4,135.3 233.4,155.2 229.8,157.5 223.7,161.3 261.7,222.2 	"/>
	<polygon class="st0" points="320.8,191.1 305.4,144.6 344.4,183.3 355.4,179.7 332.8,111.4 321.8,115 337.2,161.5 298.2,122.8 
		287.2,126.5 309.8,194.7 	"/>
	<polygon class="st0" points="541.9,224.2 574.3,187.4 560.6,240.6 569.3,248.2 616.8,194.2 608.1,186.6 575.7,223.3 589.4,170.2 
		580.7,162.5 533.2,216.5 	"/>
	<path class="st0" d="M168.6,361.1l1.9,0.4c4.4-2.8,6.9-4.3,11.3-7.1l0.5-2.4l3.4-14.9c-2.7-4.4-4.3-6.8-7-11.1l9.1,2.1l2.6-11.6
		l-40.5-9.2l-2.6,11.6l29.4,6.7l-5.4,23.9l-48.4-11l8-35.5l0,0c-5.3,3.3-8.3,5.2-13.6,8.6l-6,26.5c2.9,4.6,4.5,7.1,7.4,11.7
		L168.6,361.1z"/>
	<path class="st0" d="M158.3,290l9.7,5.4l26.5,14.8l6.4-11.4L174.4,284l4.9-8.8l33.9,1.3l6.8-12.2l-34.3-1.2
		c-1.6-5.6-2.5-8.9-4.1-14.6l-17.1-9.6c-5.9,1.7-9.2,2.6-15.1,4.3l-1,1.7L138,263.6l-6.4,11.4l9.7,5.4L158.3,290z M158.1,250.4
		l17.1,9.6l-10.4,18.7l-17.1-9.6L158.1,250.4z"/>
	<polygon class="st0" points="377.1,116.2 378.7,176.8 390.6,176.5 388.9,115.9 409.7,115.3 409.4,104.1 356,105.5 356.3,116.8 	"/>
	<path class="st0" d="M460.1,181.7c3.6-2.8,5.6-4.4,9.3-7.2l6.8-55.1c-2.8-3.6-4.4-5.6-7.2-9.3l-30.7-3.8c-3.6,2.8-5.6,4.4-9.3,7.2
		l-6.8,55.1c2.8,3.6,4.4,5.6,7.2,9.3L460.1,181.7z M440.8,118l22.8,2.8l-6.1,49.3l-22.8-2.8L440.8,118z"/>
	<polygon class="st0" points="515.1,166.7 508.7,200.4 519.2,205.4 560.6,145.4 548.5,139.6 525.9,173.6 530.6,143.5 527,141.8 
		523.4,140.1 503,162.7 515.1,123.8 503,118 482.5,187.9 493,192.9 	"/>
	<polygon class="st0" points="586.4,272.2 592.2,283.5 619.2,269.6 630.4,291.4 640.3,286.3 629.1,264.5 646.2,255.6 661.8,285.9 
		671.7,280.9 656.1,250.6 650.3,239.3 640.4,244.4 623.3,253.2 613.4,258.3 	"/>
	<path class="st0" d="M614.2,327.1l4.9,26.4c5.1,3.5,8,5.5,13.1,9l-6.7-36.1l48.5-9l6.7,36.1v0c3.5-5.1,5.5-8,9-13.1l-4.9-26.4
		c-5.1-3.5-8-5.5-13.1-9l-48.5,9C619.7,319.1,617.7,322,614.2,327.1z"/>
	<polygon class="st0" points="288.4,614.7 292.2,608.6 264.1,591.2 260.3,597.3 280.7,609.9 242.1,626.7 238.4,632.8 266.5,650.2 
		270.3,644.1 249.7,631.3 	"/>
	<polygon class="st0" points="313.4,638.9 299.4,633.9 306.6,613.8 299,611.1 282.4,657.3 290,660.1 296.9,641 310.8,646 304,665.1 
		311.6,667.8 328.2,621.6 320.6,618.8 	"/>
	<polygon class="st0" points="340,627.5 335.1,627 330,675.7 334.8,676.2 337.8,676.5 363.3,679.2 364.1,671.6 338.6,668.9 
		340,655.8 359.2,657.9 360,650.3 340.8,648.3 342.1,635.4 367.6,638.1 368.4,630.6 342.9,627.9 	"/>
	<path class="st0" d="M394.5,633.2C394.5,633.2,394.5,633.2,394.5,633.2l-1.2,41.4c0,0,0,0,0,0L371,674c0,0,0,0,0,0
		c2.8,3,4.4,4.7,7.2,7.6l17.4,0.5c2.2-2,3.4-3.2,5.6-5.2l1.3-43.5c0,0,0,0,0,0L394.5,633.2z"/>
	
		<rect x="416" y="632.3" transform="matrix(0.9993 -3.791289e-02 3.791289e-02 0.9993 -24.6001 16.4055)" class="st0" width="8.5" height="49"/>
	<path class="st0" d="M450.2,627l-8.4,2l-0.2,0l-2.6,50.7l9.1-2.1l0.6-14.6l10.5-2.5l7.1,12.8l9.1-2.1l-25-44.2L450.2,627z
		 M449,656.3l0.6-13.3l6.4,11.6L449,656.3z"/>
	<polygon class="st0" points="493.8,613 506.3,643.9 478.1,619.3 470.8,622.3 489.1,667.7 496.5,664.7 483.9,633.8 512.1,658.4 
		519.5,655.4 501.1,610 	"/>
	<path class="st0" d="M540.6,611.4l10.2,17.9l-14.5,8.3l-16.8-29.4l21.6-12.3l0,0c-4.1-1.1-6.4-1.8-10.5-2.9l-16.1,9.2
		c-1,3.5-1.5,5.5-2.5,9.1l17.3,30.3l0.6,1.1c3.4,0.9,5.3,1.5,8.8,2.4l1.4-0.8l9-5.1c0.9-3.4,1.4-5.3,2.4-8.7l3.1,5.5l7-4l-14-24.6
		L540.6,611.4z"/>
	<rect x="173.5" y="428" class="st0" width="9.8" height="10.5"/>
	<path class="st0" d="M246.7,410.5H89.6l10.9,29.9l-10.9,29.9h151.7L246.7,410.5z M155.1,459.5h-5.8V428h-5.5l5.8-5.8h5.5V459.5z
		 M189.1,454.5l-5,5h-11.4l-5.8-5.8h16.4v-9.3h-10.6l-0.2-0.2l-4.8-4.8v-12.2l0.2-0.2l4.8-4.8h11.5l5,5V454.5z"/>
	<rect x="640.1" y="426.8" class="st0" width="11" height="11.8"/>
	<rect x="607.5" y="428" class="st0" width="9.8" height="10.5"/>
	<rect x="640.1" y="443.1" class="st0" width="11" height="11.8"/>
	<path class="st0" d="M710.4,410.5H553.3l5.4,59.9h151.7l-10.9-29.9L710.4,410.5z M623.1,454.5l-5,5h-11.4l-5.8-5.8h16.4v-9.3h-10.6
		l-0.2-0.2l-4.8-4.8v-12.2l0.2-0.2l4.8-4.8h11.5l5,5V454.5z M656.3,438.7l-1.9,2.1l1.9,2.1v12.1l-3.9,4.4h-13.6l-3.9-4.4V443
		l1.9-2.1l-1.9-2.1v-12.1l3.9-4.4h13.6l3.9,4.4V438.7z"/>
</g>
</svg>
