<?xml version="1.0" encoding="utf-8"?>
<!-- Generator: Adobe Illustrator 22.1.0, SVG Export Plug-In . SVG Version: 6.00 Build 0)  -->
<svg version="1.1" id="图层_1" xmlns="http://www.w3.org/2000/svg" xmlns:xlink="http://www.w3.org/1999/xlink" x="0px" y="0px"
	 viewBox="0 0 800 800" style="enable-background:new 0 0 800 800;" xml:space="preserve">
<style type="text/css">
	.st0{fill:url(#SVGID_1_);}
	.st1{fill:#1D191B;}
	.st2{fill:#FFFFFF;}
	.st3{fill:url(#SVGID_2_);}
	.st4{fill:url(#SVGID_3_);}
	.st5{fill:#FFDA3A;}
</style>
<g>
	<g>
		<g>
			<g>
				<radialGradient id="SVGID_1_" cx="400" cy="367.2152" r="247.377" gradientUnits="userSpaceOnUse">
					<stop  offset="0" style="stop-color:#DF212A"/>
					<stop  offset="1" style="stop-color:#C1262C"/>
				</radialGradient>
				<path class="st0" d="M731.1,333.7c-110.3-60.1-242.6-79.6-331.1-79.6s-220.8,19.5-331.1,79.6l24.2,54.5c0,0-10,33.5-9,92.1
					c0,0,121-71.5,315.8-71.5s315.8,71.5,315.8,71.5c1-58.6-9-92.1-9-92.1L731.1,333.7z"/>
				<path class="st1" d="M400,262.2c48.9,0,104.2,6.1,155.7,17.1c61.3,13.1,116.7,32.6,165,58l-21.2,47.7l-1.2,2.7l0.8,2.8
					c0.1,0.3,8.2,28.2,8.7,76.5c-13.7-6.9-39-18.4-74.4-30c-32.1-10.5-65.9-18.9-100.6-24.9c-43.3-7.5-88-11.3-132.9-11.3
					s-89.6,3.8-132.9,11.3c-34.7,6-68.5,14.4-100.6,24.9c-35.4,11.6-60.7,23.1-74.4,30c0.6-48.3,8.6-76.2,8.7-76.5l0.8-2.8l-1.2-2.7
					l-21.2-47.7c48.3-25.4,103.8-44.9,165-58C295.8,268.2,351.1,262.2,400,262.2 M400,254.1c-88.5,0-220.8,19.5-331.1,79.6
					l24.2,54.5c0,0-10,33.5-9,92.1c0,0,121-71.5,315.8-71.5s315.8,71.5,315.8,71.5c1-58.6-9-92.1-9-92.1l24.2-54.5
					C620.8,273.7,488.5,254.1,400,254.1L400,254.1z"/>
			</g>
			<g>
				<g>
					<path class="st2" d="M670.6,253.2c-104.1-18-88.1-104.8-88.1-104.8c-94.8-16.7-155-14-182.5-14s-87.8-2.7-182.5,14
						c0,0,16,86.8-88.1,104.8c0,0-7.7,163.5,73.4,286.6S400,720,400,720S516.1,663,597.2,539.8S670.6,253.2,670.6,253.2z"/>
					<path class="st1" d="M425.8,152.3c29.6,0,75.3,1.2,137.9,11.3c0.4,15.3,3.9,37.9,18.6,59c15.4,22.1,39.1,37.3,70.5,45.3
						c-0.1,16.1-1.2,44.9-6.3,79.9c-4.6,31.7-11.6,61.9-20.7,89.8c-11.3,34.6-26,65.7-43.6,92.4c-40.3,61.1-89.7,105.1-124.1,131.2
						c-25.7,19.5-47.1,32.3-58.1,38.4c-11-6.1-32.4-18.9-58.1-38.4c-34.4-26.1-83.8-70.1-124.1-131.2c-17.5-26.6-32.2-57.6-43.5-92
						c-9.1-27.8-16.1-57.9-20.8-89.4c-5.2-35.2-6.3-64.5-6.4-80.7c31.4-8,55.1-23.2,70.5-45.3c14.7-21,18.2-43.7,18.6-59
						c62.6-10,108.3-11.3,137.9-11.3c5.8,0,11,0,15.6,0.1c3.8,0,7.1,0.1,10.2,0.1c3,0,6.3,0,10.2-0.1
						C414.8,152.3,420,152.3,425.8,152.3 M425.8,134.3c-10.5,0-19.1,0.2-25.8,0.2c-6.7,0-15.3-0.2-25.8-0.2
						c-32.9,0-84.9,1.5-156.7,14.2c0,0,16,86.8-88.1,104.8c0,0-7.7,163.5,73.4,286.6S400,720,400,720S516.1,663,597.2,539.8
						s73.4-286.6,73.4-286.6c-104.1-18-88.1-104.8-88.1-104.8C510.7,135.8,458.8,134.3,425.8,134.3L425.8,134.3z"/>
					<radialGradient id="SVGID_2_" cx="400" cy="425.038" r="262.8534" gradientUnits="userSpaceOnUse">
						<stop  offset="0" style="stop-color:#DF212A"/>
						<stop  offset="1" style="stop-color:#C1262C"/>
					</radialGradient>
					<path class="st3" d="M425.8,164.3c27.7,0,69.5,1.1,126.4,9.6c1.6,16,6.7,36.2,20.2,55.5c9.3,13.3,21.4,24.5,36,33.3
						c9.6,5.8,20.4,10.5,32.2,14.2c-0.4,16.7-1.9,41.5-6.2,70.5c-4.6,30.8-11.4,60.1-20.3,87.2c-10.9,33.3-25.1,63.1-42,88.8
						c-39.2,59.5-87.3,102.4-120.8,127.9c-21.4,16.3-39.7,27.8-51.4,34.6c-31.4-18.3-112.1-71.3-172.1-162.4
						c-16.9-25.7-31-55.5-42-88.8c-8.9-27.1-15.7-56.4-20.3-87.2c-4.3-29-5.8-53.8-6.2-70.5c11.8-3.7,22.6-8.4,32.2-14.2
						c14.7-8.8,26.8-20,36-33.3c13.4-19.3,18.5-39.4,20.2-55.5c56.9-8.5,98.8-9.6,126.4-9.6c5.7,0,10.9,0,15.5,0.1
						c3.7,0,7.2,0.1,10.3,0.1c3.1,0,6.6,0,10.3-0.1C414.9,164.3,420.1,164.3,425.8,164.3z"/>
				</g>
				<g>
					<circle class="st2" cx="401" cy="180.5" r="130.5"/>
					<path class="st1" d="M401,50c-72.1,0-130.5,58.4-130.5,130.5S328.9,310.9,401,310.9c72.1,0,130.5-58.4,130.5-130.5
						S473.1,50,401,50z M512.3,129.3c-5.6-6.2-12.7-13.5-18.8-18.2c-0.9-4.3-2.5-10.1-5.3-16.7C498.3,104.7,506.4,116.5,512.3,129.3
						z M490.5,111.7L476.1,127c-22-9.5-41.3-12.8-52.5-13.9c-2.9-5-14.1-23.6-25.8-30c7.8-11.1,14.9-17,19-19.9
						c5.3,0.4,18.2,1.6,28.8,3.1c13.2,5.2,25.5,12.6,36.4,22.2C486.9,97.8,489.3,106.2,490.5,111.7z M327.6,82.4
						C348.7,66.6,374.2,58,401,58c1.5,0,3.1,0,4.6,0.1c3,1.3,5.9,2.7,7.6,3.9c-4.5,3.4-11.2,9.6-18.4,20c-4.9,0.3-30.1,2.4-46.1,13
						c-9.5-2.6-20.3-3-27.2-3C322.6,90.1,324.9,86.3,327.6,82.4z M280.2,200.7c-1.1-6.6-1.7-13.4-1.7-20.2
						c0-23.3,6.4-45.5,18.5-64.7c5.7-6.3,13.5-14.2,21.6-20.5c6-0.1,17.7,0,27.8,2.4c-2.3,4.8-8.3,20.2-3.8,40.3
						c-9.6,8.2-25.3,23.3-36.3,42.1c-12.2-2.7-23.2-6.5-23.2-6.5C281.1,184.1,280.3,193.4,280.2,200.7z M487.6,267.1
						c-23.1,23.1-53.9,35.9-86.6,35.9c-32.7,0-63.5-12.7-86.6-35.9c-14.4-14.4-24.7-31.7-30.5-50.6l31.4-0.6
						c-3.1-10-5.8-28.7-6.5-33.9c10.9-18.9,26.9-34.1,36.3-42.1c5.7,1.8,22.1,6.9,44.2,10.6l17.6,50.6l2.8-1l-17.5-50.1
						c3.7-3.6,17.9-17.5,30.8-33.8c11.2,1.1,30.9,4.3,53.4,14.3c3.3,5.8,11.6,22.7,14.8,47.3l-20.3,28l2.4,1.8l20.2-27.8
						c4.3,0.3,14.2,1.5,21,6.8c1.5,7.8,3,17.1,2.1,21.8l3,0.5c1-5.4-0.7-15.7-2.3-23.8c0.8-6,2.5-18.6,3.8-28.9
						c1.6,8,2.4,16.1,2.4,24.5C523.5,213.2,510.7,243.9,487.6,267.1z"/>
				</g>
				<radialGradient id="SVGID_3_" cx="400" cy="293.7142" r="221.7705" gradientUnits="userSpaceOnUse">
					<stop  offset="0" style="stop-color:#DF212A"/>
					<stop  offset="1" style="stop-color:#C1262C"/>
				</radialGradient>
				<path class="st4" d="M679.3,249c0,0-89.1-57.8-279.3-57.8S120.7,249,120.7,249c-8.5,97.1,13.5,147.2,13.5,147.2
					c95.6-54.6,265.8-52.9,265.8-52.9s170.2-1.7,265.8,52.9C665.8,396.2,687.8,346.1,679.3,249z"/>
				<path class="st1" d="M400,199.2c42.7,0,83.8,3,122,8.8c30.6,4.7,59.4,11.2,85.7,19.4c35,10.9,56.2,22,63.9,26.3
					c3.7,46.8,0.1,81.7-3.7,103c-2.2,12.5-4.7,21.8-6.6,27.8c-92.8-48-242.5-49.4-259.7-49.4c-0.9,0-1.5,0-1.6,0c-0.2,0-0.8,0-1.6,0
					c-17.2,0-166.9,1.4-259.7,49.4c-5.4-17.3-15.8-61.3-10.3-130.9c7.7-4.4,28.9-15.4,63.9-26.3c26.3-8.2,55.2-14.7,85.7-19.4
					C316.2,202.2,357.3,199.2,400,199.2 M400,191.2c-190.2,0-279.3,57.8-279.3,57.8c-8.5,97.1,13.5,147.2,13.5,147.2
					c90.1-51.4,246.4-52.9,264.1-52.9c1.1,0,1.6,0,1.6,0s0.6,0,1.6,0c17.7,0,174,1.5,264.1,52.9c0,0,22-50.1,13.5-147.2
					C679.3,249,590.2,191.2,400,191.2L400,191.2z"/>
			</g>
		</g>
		<g>
			<path class="st5" d="M320.7,429.5c-1.8-2.3-15.5-16-15.5-16c-2.1,1.5,6,14.2,8.5,18.1c0.5,0.7,0.3,1.7-0.5,2.1
				c-1.8,1.1-5.8,2.8-14.3,3.5c-17.8,1.3-54.8-11.8-65.3-17.3c-10.5-5.5-6.8-2-6.8-2c32.8,25.5,66.1,30,79.3,28.3
				c10.6-1.4,14.7-9.8,15.8-13.2c0.3-0.8,0.1-1.7-0.4-2.4L320.7,429.5z"/>
			<path class="st5" d="M381,623.4c-8.5-7.6-18.1-6.3-20.5-5.9c-0.3,0.1-0.6,0.3-0.6,0.6c-0.6,4.6,3.9,4.4,4.3,3.2
				c0.3-1.2,4.8-1.3,4.5,1.2c-0.3,2.5,0.8,7.3,5.8,9.8s15.5,3,15.5,3C390,633.2,390.7,632.2,381,623.4z"/>
			<path class="st5" d="M579.9,429c22.3-24,30-36.5,33.5-42.3c3.5-5.8-1.8-8.3-8.8-5.8c-7,2.5-37.8,16.8-66.3,18.8
				c-28.5,2-48.8,0.5-63.6,5.5c0,0-10.5-5-25.3-4.3c-14.8,0.8-31.5,13.5-42.3,13.5c-5.7,0-7.3,0.1-7.3,0.1s-1.6-0.1-7.3-0.1
				c-10.8,0-27.5-12.8-42.3-13.5c-14.8-0.8-25.3,4.3-25.3,4.3c-14.8-5-35-3.5-63.6-5.5s-59.3-16.3-66.3-18.8c-7-2.5-12.3,0-8.8,5.8
				s11.3,18.3,33.5,42.3c22.3,24,47.8,28.5,47.8,28.5c-44.3,7-52.9,8.3-48.1,10.1s25,25.2,46.4,31.5c21.4,6.3,42.4-7,42.4-7
				c-14.3,32.4-12.8,54.9-12.2,60c0.1,0.7,0.5,1.3,1,1.7c25.4,18.9,34.3,28.5,40.5,40.4c5.5,10.4,3.7,25.9,3.1,29.8
				c-0.1,0.6,0.1,1.2,0.4,1.7c2.6,3.8,14.1,20.2,19.2,25.3c5.7,5.7,32.4,4.3,39.4,4.3s33.7,1.3,39.4-4.3c5-5,16.5-21.5,19.2-25.3
				c0.3-0.5,0.5-1.1,0.4-1.7c-0.6-3.9-2.4-19.4,3.1-29.8c6.3-11.9,15.2-21.5,40.5-40.4c0.6-0.4,0.9-1,1-1.7
				c0.6-5.1,2.2-27.5-12.2-60c0,0,21,13.3,42.4,7s41.5-29.7,46.4-31.5s-3.8-3.1-48.1-10.1C532.1,457.5,557.7,453,579.9,429z
				 M461.3,421.7c-2.3,11.5-0.3,29,21.3,42.5l0.3,1.5c0.1,0.5,0.5,0.8,1,0.7c3.6-0.5,17.8-2.4,25.2-3.2c8.5-1,26,1.2,34,3.2
				c8,2,15,3.7,22,3c0,0-37.4,39.7-67.7,15c0,0,19.7,1,25.4-1c5.7-2,14.3-8.3,28-7.7c0,0-7-6-27.4-5c-20.4,1-20,4.7-26.4,5
				c-6.3,0.3-19.7-0.7-24-1.7c0,0,0.7,3.7,14.7,16c0,0,7,23,8.7,34c1.4,9,0.9,20.3,0.7,24.1c0,0.8-0.5,1.5-1.1,1.9
				c-3.3,2.1-13.2,8.4-19.3,11.7c-7.3,4-17.7,6-24,42.4c0,0-6.3,1.7-1.3-19.4c5-21,5.3-22.2,5.3-22.2s-0.2-3.5-5,6.8
				c-4.8,10.3-6.9,12.6-9.2,26.1c0,0-9.2-4.4-15.5-4.4s-11,6.7-12.3,10c-0.4,1.3,3.1-0.8,6.2-3.3c3.1-2.5,15.1,0.3,25.8,5.7
				l2.8,18.4c0.1,0.8-0.1,1.6-0.7,2.2l-17.5,17.8c-1,1-2.5,1.5-3.9,1.3c-4.7-0.7-16-2.1-27.4-1.7c-11.4-0.4-22.7,1-27.4,1.7
				c-1.4,0.2-2.9-0.3-3.9-1.3l-17.5-17.8c-0.6-0.6-0.8-1.4-0.7-2.2l2.8-18.4c10.7-5.3,22.7-8.2,25.8-5.7c3.1,2.5,6.6,4.6,6.2,3.3
				c-1.3-3.3-6-10-12.3-10s-15.5,4.4-15.5,4.4c-2.3-13.5-4.3-15.8-9.2-26.1c-4.8-10.3-5-6.8-5-6.8s0.3,1.2,5.3,22.2
				c5,21-1.3,19.4-1.3,19.4c-6.3-36.4-16.7-38.4-24-42.4c-6.1-3.3-16-9.6-19.3-11.7c-0.7-0.4-1.1-1.1-1.1-1.9
				c-0.2-3.7-0.6-15,0.7-24.1c1.7-11,8.7-34,8.7-34c14-12.3,14.7-16,14.7-16c-4.3,1-17.7,2-24,1.7c-6.3-0.3-6-4-26.4-5
				c-20.4-1-27.4,5-27.4,5c13.7-0.7,22.4,5.7,28,7.7c5.7,2,25.4,1,25.4,1c-30.4,24.7-67.7-15-67.7-15c7,0.7,14-1,22-3
				c8-2,25.5-4.2,34-3.2c7.4,0.9,21.6,2.8,25.2,3.2c0.5,0.1,0.9-0.2,1-0.7l0.3-1.5c21.5-13.5,23.5-31,21.3-42.5s-3.5-7.3-3.5-7.3
				c3.3,26.8-14.5,41.5-18.3,41.5s-26.3,0.8-35-0.5c-47.3-8-85.3-61.1-89.3-66.3c-4-5.3-2.5-9.2,1.3-6.5c7,5,25.8,15.3,49.3,21.5
				s52.6,1.8,64.6,1c12-0.8,25.8,7,25.8,7c9.5-8,27.3-3.3,34,0c6.8,3.3,13.4,5.5,18.3,5.5s14.3,0,14.3,0s9.4,0,14.3,0
				s11.5-2.3,18.3-5.5c6.8-3.3,24.5-8,34,0c0,0,13.8-7.8,25.8-7c12,0.8,41,5.3,64.6-1c23.5-6.3,42.3-16.5,49.3-21.5
				c3.8-2.7,5.3,1.3,1.3,6.5c-4,5.3-42,58.3-89.3,66.3c-8.8,1.3-31.3,0.5-35,0.5s-21.5-14.8-18.3-41.5
				C464.8,414.5,463.6,410.2,461.3,421.7z"/>
			<path class="st5" d="M493.8,446.2c13.3,1.8,46.5-2.8,79.3-28.3c0,0,3.8-3.5-6.8,2c-10.5,5.5-47.5,18.5-65.3,17.3
				c-8.5-0.7-12.5-2.4-14.3-3.5c-0.7-0.5-0.9-1.4-0.5-2.1c2.6-3.9,10.6-16.7,8.5-18.1c0,0-13.8,13.8-15.5,16l-1,1.2
				c-0.5,0.7-0.7,1.6-0.4,2.4C479.2,436.4,483.2,444.8,493.8,446.2z"/>
			<path class="st5" d="M410,635.4c0,0,10.5-0.5,15.5-3s6.1-7.3,5.8-9.8c-0.3-2.5,4.2-2.3,4.5-1.2c0.3,1.1,4.8,1.3,4.3-3.2
				c0-0.3-0.3-0.6-0.6-0.6c-2.4-0.5-12-1.7-20.5,5.9C409.3,632.2,410,633.2,410,635.4z"/>
			<path class="st5" d="M453.6,450.8c0,0-5.4,4.5-8,15.5c-2.1,7.9,5.2,18.5,24.9,35.9l-40.9,32.7c0,0-17.2-15-4.2-30.7
				c13-15.7,11.5-17,3-9.7c-8.5,7.3-14.7,13.7-15.3,17.5c0,0-6.8-5.3-10.7-5.3c0,0-0.3-22.2-2.3-24.3c-2.1,2.1-2.3,24.3-2.3,24.3
				c-3.8,0-10.7,5.3-10.7,5.3c-0.7-3.8-6.8-10.2-15.3-17.5c-8.5-7.3-10-6,3,9.7c13,15.7-4.2,30.7-4.2,30.7l-40.9-32.7
				c19.7-17.4,27-28,24.9-35.9c-2.6-11-8-15.5-8-15.5c-1,22.8-30.9,38-30.9,38s4,17.4,9.7,20.4c5.7,3,4.7,3,14,20.4
				c9.3,17.4,11.3,16,14.7,16s12-2.9,12-2.9s-6.8,8-10.8,13.3c-4,5.3-10.5-2-17-8.8c-6.5-6.8-5-3-5-3c14.3,19,18.8,19.5,21.3,18.8
				s12.5-17.3,12.5-17.3c1.8,3.3,3.8,30.5,4.3,37s1.5,10.5,2.3,7c3.3-26-2.5-50.5-2.5-50.5c13-5,15.8-22.4,15.8-22.4
				c6.8-6,13.3-6.1,13.3-6.1s6.5,0.1,13.3,6.1c0,0,2.8,17.4,15.8,22.4c0,0-5.8,24.4-2.5,50.5c0.8,3.5,1.8-0.5,2.3-7s2.5-33.8,4.3-37
				c0,0,10,16.5,12.5,17.3s7,0.3,21.3-18.8c0,0,1.5-3.8-5,3c-6.5,6.8-13,14-17,8.8c-4-5.3-10.8-13.3-10.8-13.3s8.7,2.9,12,2.9
				s5.3,1.3,14.7-16c9.3-17.4,8.3-17.4,14-20.4c5.7-3,9.7-20.4,9.7-20.4S454.6,473.5,453.6,450.8z M349.6,538.5
				c-4.7-6.7-7.7-17.4-7.7-17.4c-0.1-2.4,11,5.7,11,5.7s-1.7,6.3,2.7,9c4.3,2.7,7-2,7-2l2.7,3.7
				C365.3,537.5,354.3,545.2,349.6,538.5z M451.7,538.5c-4.7,6.7-15.7-1-15.7-1l2.7-3.7c0,0,2.7,4.7,7,2c4.3-2.7,2.7-9,2.7-9
				s11.1-8.1,11-5.7C459.4,521.2,456.4,531.8,451.7,538.5z"/>
		</g>
		<g>
			<polygon class="st2" points="191.1,289.9 209.5,311.9 219.8,282.2 234.8,279.6 218.1,322.3 223.5,348.6 207.8,351 204.8,325.3 
				174.4,293.9 			"/>
			<path class="st2" d="M297.9,333.3l16.4-1.3l-34.4-59.4l-18,3l-21.7,68.7l16.4-2.3l6.4-24.7l24.3-3.7L297.9,333.3z M265.7,306.6
				l5.8-22.4l10.7,19.9L265.7,306.6z"/>
			<polygon class="st2" points="317.2,267.9 318.2,331.6 330.6,331.6 330.6,284.2 363.3,328.6 379,328.3 379,263.9 365.3,263.9 
				366.6,312.3 333.9,267.2 			"/>
			<polygon class="st2" points="459.4,266.2 452.4,330.3 467.4,330.3 474.7,266.2 			"/>
			<path class="st2" d="M527.8,338l15,0.7l-14-67.1l-18-0.7l-40.7,59.7h15.7l12.3-18.9l25.4,2.1L527.8,338z M504.1,302.6l13.7-21
				l3.9,22L504.1,302.6z"/>
			<polygon class="st2" points="565.2,277.9 547.8,341 561.5,343 573.5,297.8 591.2,351 609.2,354.3 626.6,291.3 612.2,288.6 
				599.9,335.6 583.2,281.6 			"/>
			<path class="st2" d="M433,295.4c0,0,12.3-2.5,12.3-15.9c0-13.3-12.3-16.2-16.2-16.2c-3.8,0-33.9,0.5-33.9,0.5L392,328
				c0,0,27.4,0,36.4,0c9,0,17-7.3,17-17.7C445.4,299.9,435.7,295.9,433,295.4z M421.4,319.3c-4.3,0-15.3,0-15.3,0l1-19.7
				c0,0,12,0,16,0s8.3,4,8.3,9.8C431.4,315.3,425.7,319.3,421.4,319.3z M423,290.9c-2.3,0-14.7,0-14.7,0v-18c0,0,7.7-0.3,11.7-0.3
				c4,0,11.7,1,11.7,8.3C431.7,288.3,425.4,290.9,423,290.9z"/>
		</g>
		<g>
			<path class="st5" d="M298.3,391.1c-0.4-2-0.8-3.6-1.1-4.8c2.7,0.8,5.2,1,7.2,0.7c0.8-0.1,1.6-0.4,2.3-0.7
				c0.7-0.4,1.2-0.8,1.4-1.3s0.4-1.1,0.3-1.6c-0.1-0.4-0.2-0.8-0.4-1.2c-0.3-0.4-0.8-0.9-1.5-1.3c-0.9-0.6-2.4-1.6-4.5-3
				c-1-0.7-1.8-1.1-2.1-1.4c-0.9-0.6-1.6-1.2-2.1-1.7c-0.5-0.5-0.9-1.1-1.2-1.6c-0.3-0.6-0.5-1.2-0.6-1.8c-0.2-1.2,0-2.4,0.5-3.6
				s1.4-2.2,2.7-3c1.3-0.8,3-1.4,5-1.7c1.9-0.3,4-0.4,6.4-0.3c0.3,1.4,0.6,2.9,1.1,4.6c-2.2-0.5-4.1-0.6-5.8-0.3
				c-1.3,0.2-2.3,0.6-3,1.3c-0.7,0.7-1,1.4-0.9,2.2c0,0.2,0.1,0.4,0.2,0.6c0.1,0.2,0.2,0.4,0.4,0.6c0.1,0.2,0.4,0.4,0.7,0.8
				c0.3,0.3,0.8,0.6,1.5,1c0.6,0.4,1.2,0.7,1.6,0.9l2.7,1.8c0.7,0.4,1.3,0.8,1.9,1.2c0.6,0.4,1,0.8,1.5,1.2c0.4,0.4,0.7,0.8,1,1.2
				c0.3,0.4,0.5,0.8,0.6,1.2c0.2,0.4,0.3,0.9,0.3,1.3c0.2,1.1,0.1,2.2-0.3,3.2s-1,2-1.8,2.7c-0.9,0.8-1.8,1.4-2.9,1.8
				c-1.1,0.4-2.3,0.7-3.6,0.9c-0.8,0.1-1.8,0.2-3,0.2C301.6,391.3,300.1,391.2,298.3,391.1z"/>
			<path class="st5" d="M317.5,388.4c-0.3-4.6-0.6-9.2-1-14c-0.4-4.8-0.8-8.4-1.1-10.9l-0.3-2.1l3.3-0.4c0.2,0,1.2-0.2,3-0.4
				c0.3,7,1.2,16,2.4,27l-2.9,0.3C320.5,388,319.3,388.2,317.5,388.4z"/>
			<path class="st5" d="M327.1,386.6c0-2.4,0-5-0.2-8l-0.4-9.7c-0.2-3.5-0.4-6.6-0.6-9.4c1.5-0.1,2.8-0.2,3.9-0.3
				c0.8-0.1,1.9-0.2,3.5-0.4c1.7,2.5,4.1,5.7,7.1,9.6c3,3.9,5.4,7.2,7.3,9.8l-0.9-18.4c0-0.4-0.1-1.2-0.2-2.2
				c1.2-0.1,2.2-0.2,2.8-0.2c0.3,0,1.2-0.1,2.8-0.3l0.2,7.3l0.5,12.5l0.4,7.3c-1.4,0.1-2.5,0.2-3.5,0.3c-0.8,0.1-2,0.2-3.7,0.4
				c-0.8-1.1-1.3-1.9-1.7-2.5c-0.6-0.8-1.9-2.5-3.9-5.1c-1.3-1.7-3-3.8-5-6.5c-1.5-1.9-2.7-3.6-3.8-5.1c0.1,2.1,0.3,6.1,0.6,11.9
				c0.1,2.4,0.3,5.2,0.5,8.4c-1.2,0.1-2.1,0.2-2.7,0.2C329.6,386.3,328.6,386.4,327.1,386.6z"/>
			<path class="st5" d="M378.5,377.6c-0.3,1.5-0.5,3.1-0.8,4.7c-1.5,0.3-2.9,0.4-4.1,0.6c-1.3,0.1-2.3,0.2-3.2,0.2
				c-2,0-3.9-0.3-5.7-0.8s-3.4-1.4-4.9-2.6c-1.4-1.2-2.5-2.6-3.1-4.4c-0.6-1.7-1-3.6-1-5.6c0-2.2,0.4-4.2,1.2-6.1
				c0.8-1.9,1.9-3.4,3.4-4.7s3.2-2.2,5.2-2.9c2-0.6,4.1-0.9,6.2-0.9c2.1,0,4.5,0.2,7,0.7c0,1.2,0.1,2,0.1,2.5l0.1,2.1
				c-1.5-0.4-2.7-0.7-3.7-0.8c-1-0.1-1.9-0.2-2.8-0.2c-1.4,0-2.8,0.2-4.1,0.6c-1.3,0.4-2.5,1.1-3.5,2.1c-1,0.9-1.8,2.1-2.3,3.4
				c-0.5,1.3-0.8,2.7-0.8,4.2c0,1.7,0.3,3.3,1,4.6c0.7,1.4,1.7,2.5,3.2,3.3c1.5,0.8,3.3,1.3,5.4,1.3
				C373.4,378.8,375.8,378.4,378.5,377.6z"/>
			<path class="st5" d="M382.5,382.4l0.3-7.6l0.1-8.8l0-8l-0.1-2.7c3.3-0.1,6.7-0.2,10.2-0.3l3.8-0.2l5.7-0.2l-0.1,4.3l-1.9,0
				c-0.5,0-1.2,0-2.1,0c-0.9,0-1.8,0-2.8,0.1c-2.1,0.1-3.4,0.1-4,0.2s-1.5,0.1-2.7,0.2l-0.1,7c1.8,0,3.6-0.1,5.5-0.1
				c1.3,0,3.4-0.2,6.4-0.4c-0.1,1.2-0.1,2.7-0.1,4.3c-3.5,0.1-5.6,0.1-6.1,0.2c-1.6,0.1-3.5,0.2-5.8,0.3l0,7.4l2.2-0.1
				c0.6,0,2.1-0.1,4.4-0.2l4.3-0.2l2.9-0.2c-0.1,1.5-0.1,3-0.1,4.4c-3.4,0.1-6.5,0.2-9.3,0.3l-6.5,0.3L382.5,382.4z"/>
			<path class="st5" d="M415.4,382.3c0-0.5,0.1-0.9,0.1-1.2l0.1-2.9c1.7-1.5,3.2-2.9,4.5-4.3c1.4-1.4,2.8-2.9,4.2-4.4
				c1.4-1.6,2.5-2.8,3.2-3.8c0.6-0.8,1-1.4,1.2-1.8c0.2-0.4,0.3-0.7,0.4-1c0.1-0.3,0.1-0.5,0.1-0.8c0-0.7-0.2-1.3-0.7-1.8
				c-0.4-0.5-1-0.8-1.8-1.1c-0.8-0.3-1.6-0.4-2.6-0.4c-0.9,0-1.9,0.1-3,0.2c-1.1,0.2-2.5,0.5-4.2,0.9l0.4-2c0.1-0.5,0.2-1.3,0.4-2.4
				c3.1-0.6,6-0.8,8.8-0.8c1.3,0,2.5,0.1,3.7,0.4s2.3,0.7,3.2,1.2c0.9,0.6,1.6,1.3,2,2c0.4,0.8,0.6,1.6,0.6,2.4c0,0.5,0,1-0.1,1.5
				c-0.1,0.5-0.2,0.9-0.4,1.4c-0.4,0.8-0.8,1.6-1.4,2.5c-0.5,0.8-1.4,1.9-2.6,3.3s-2.4,2.8-3.8,4.3c-1.4,1.5-2.9,3-4.6,4.6h1.8
				l4.4,0c1.5,0,2.5,0,3.2,0c0.7,0,1.5-0.1,2.5-0.2c0,0.4-0.1,0.9-0.1,1.6c-0.1,0.7-0.1,1.5-0.2,2.6c-3,0-6.1,0-9.4,0
				C421.4,382.3,418,382.3,415.4,382.3z"/>
			<path class="st5" d="M450.5,356.4c2.1,0.1,3.9,0.6,5.3,1.5c1.5,0.9,2.6,2.4,3.3,4.4c0.8,2,1.1,4.3,1,6.9c-0.1,2.1-0.4,4.1-1,6.2
				s-1.3,3.7-2.2,5c-0.9,1.3-2.2,2.3-3.7,3c-1.6,0.7-3.2,1-5,0.9c-1.7-0.1-3.2-0.4-4.5-1.1c-1.3-0.7-2.4-1.7-3.2-2.9
				c-0.8-1.2-1.3-2.6-1.6-4s-0.4-3-0.3-4.6c0.1-2.2,0.4-4.3,1-6.3c0.6-2.1,1.4-3.8,2.3-5.2c1-1.4,2.3-2.4,3.8-3
				C447.2,356.6,448.9,356.3,450.5,356.4z M450.3,360.5c-0.5,0-1,0.1-1.5,0.2c-0.5,0.2-1,0.5-1.4,0.9c-0.5,0.4-0.9,1-1.2,1.6
				c-0.3,0.6-0.6,1.3-0.9,2.2c-0.3,0.9-0.5,1.9-0.7,3.1c-0.2,1.2-0.3,2.4-0.3,3.7c-0.1,1.8,0.1,3.3,0.4,4.4c0.3,1.1,0.8,2,1.5,2.7
				c0.7,0.6,1.5,1,2.5,1c0.5,0,1-0.1,1.5-0.3c0.5-0.2,1-0.6,1.5-1.1c0.5-0.6,1-1.4,1.5-2.4c0.4-1.1,0.8-2.3,1-3.6
				c0.2-1.3,0.4-2.6,0.4-4c0.1-1.8-0.1-3.4-0.4-4.6c-0.3-1.2-0.8-2.1-1.5-2.8S451.2,360.5,450.3,360.5z"/>
			<path class="st5" d="M469,386.3c0.4-2,0.7-4.3,1.1-6.9l1.1-7.9c0.4-2.7,0.7-5,0.9-6.9c-0.6,0.3-1.1,0.6-1.4,0.7
				c-0.3,0.2-1.1,0.6-2.4,1.4c0.1-0.8,0.3-1.8,0.4-2.8s0.2-1.8,0.3-2.4c0.5-0.2,1.1-0.5,1.9-0.9c0.8-0.4,1.3-0.6,1.5-0.7
				c0.2-0.1,0.5-0.3,0.8-0.5c0.8,0.1,1.7,0.2,2.8,0.3c1.1,0.1,2.1,0.2,3.1,0.2l-0.5,2.7c-0.1,0.6-0.2,1.5-0.4,2.7l-2.2,15.6
				l-0.3,2.3c-0.1,0.5-0.1,1-0.2,1.5l-0.2,2.1c-0.9-0.1-1.9-0.2-2.9-0.3C471.1,386.5,470,386.4,469,386.3z"/>
			<path class="st5" d="M496.1,373.9c0.9-0.1,1.7-0.1,2.4,0c1.4,0.2,2.6,0.6,3.8,1.2c1.2,0.6,2,1.6,2.6,3c0.6,1.3,0.7,2.7,0.6,4.2
				c-0.1,1.2-0.5,2.4-1.1,3.6c-0.6,1.1-1.5,2.1-2.5,3c-1.1,0.8-2.4,1.4-3.8,1.6c-1.4,0.3-2.9,0.3-4.4,0.1c-1.3-0.2-2.6-0.5-3.8-0.9
				c-1.2-0.5-2.2-1.2-3.2-2c-0.9-0.9-1.5-1.9-1.9-3.1c-0.3-1.2-0.5-2.4-0.3-3.6c0.1-0.9,0.3-2,0.7-3.1c0.3-1.1,1-2.5,1.9-4
				s2.1-3.3,3.6-5.1c1.5-1.8,3.1-3.7,4.9-5.5l7.2,0.8c-2.2,2-3.6,3.4-4.4,4.2c-1,1.1-2,2.2-3,3.4c-0.9,1.2-1.7,2.3-2.4,3.3
				c-0.7,1-1.2,2.1-1.7,3c-0.3,0.6-0.5,1.1-0.7,1.7c-0.2,0.6-0.3,1.2-0.4,1.7c-0.2,1.4,0.1,2.6,0.9,3.6c0.7,1,1.8,1.5,3.1,1.7
				c1,0.1,1.9,0,2.6-0.4c0.8-0.4,1.4-0.9,1.8-1.6c0.4-0.7,0.7-1.5,0.8-2.4c0.1-0.9,0-1.6-0.2-2.3c-0.3-0.7-0.8-1.2-1.5-1.6
				c-0.8-0.4-1.6-0.6-2.4-0.7c-0.5-0.1-1.2-0.1-1.9,0C494.8,375.6,495.7,374.4,496.1,373.9z"/>
		</g>
		<g>
			<path class="st2" d="M312.2,243.3h11.3v10.6c0,0.6,0.5,1.1,1.1,1.1l26.6-1.9v5l-30.4,2.5c-2,0.2-3.7-1.3-3.8-3.3l-0.6-10.4h-4.3
				V243.3z"/>
			<path class="st2" d="M463.3,241.9l11.2,1.1l-1.1,10.6c-0.1,0.6,0.4,1.2,1,1.2l26.7,0.8l-0.5,5l-30.5-0.6c-2,0-3.5-1.7-3.4-3.6
				l0.4-10.4l-4.2-0.4L463.3,241.9z"/>
			<path class="st2" d="M342.9,244.2l6.7,0.3l-1.4-34.6c0-0.8-0.7-1.5-1.5-1.5h-10.4l0.3,3h3.6c0.6,0,1.1,0.5,1.1,1.1l0.3,5.3h-12.1
				c-2.6-3.8-7-6.2-12.1-6.2c-8,0-14.5,6.3-14.5,14.1c0,7.8,6.5,14.1,14.5,14.1c5.9,0,11-3.5,13.3-8.4h11.6L342.9,244.2z
				 M317.4,234.2c-4.5,0-8.2-3.9-8.2-8.7c0-4.8,3.7-8.7,8.2-8.7c4.5,0,8.2,3.9,8.2,8.7C325.6,230.3,321.9,234.2,317.4,234.2z
				 M331.9,227c0-0.4,0.1-0.9,0.1-1.3c0-1.3-0.2-2.6-0.6-3.8h10.4l0.3,5.2H331.9z"/>
			<path class="st2" d="M491.8,210.8l0.5,2.7l2.8,0.2l-0.1,5.2h-10.3l0.1-4.3c0-1.4-1.1-2.6-2.5-2.6h-6.6l-0.2,2.7l3.2,0.2l-0.2,6.3
				h-12.9l0.2-8.2c0-1-0.8-1.9-1.8-1.9l-7.5-0.3l-0.2,3.3h2.8l-0.8,20.1c-0.1,2,1.5,3.6,3.5,3.6l18.4-0.1c2.1,0,3.9-1.7,3.9-3.8
				l0.1-2h10.5l-0.3,15.8h7.2l0.9-33.6c0-1.7-1.3-3.1-3-3.1L491.8,210.8z M478.2,233.2h-12.8l0.2-7.2h12.9L478.2,233.2z M484.4,228
				l0.2-5h10.4l-0.1,5H484.4z"/>
		</g>
	</g>
	<g>
		<g>
			<path class="st5" d="M130.6,505.2c-1.5,7.4-4.9,34.9,24.8,49.4c0.8,0.4,1.8-0.1,2-1c1.2-7,3.3-32.9-24.7-49.3
				C131.8,503.8,130.8,504.2,130.6,505.2z"/>
			<path class="st5" d="M126.8,555.9l12.3,19c2.5,3.8,6.5,6.5,11,7.3l21.8,3.8c1,0.2,1.6-0.9,1.1-1.7l-13.3-18.4
				c-3.6-5.1-9.2-8.4-15.4-9.3l-16.5-2.3C126.9,554.1,126.3,555.1,126.8,555.9z"/>
			<path class="st5" d="M149.4,589.6l13.8,18c2.8,3.6,7,5.9,11.5,6.3l22.1,2c1,0.1,1.6-1,0.9-1.8L183,596.8c-4-4.7-9.8-7.6-16.1-8
				l-16.6-1C149.4,587.8,148.8,588.8,149.4,589.6z"/>
			<path class="st5" d="M174.6,622.1l14.7,17.2c3,3.5,7.3,5.6,11.8,5.7l22.2,0.9c1,0,1.5-1.1,0.8-1.8l-15.6-16.5
				c-4.3-4.5-10.2-7.1-16.4-7.2l-16.7-0.1C174.5,620.3,173.9,621.4,174.6,622.1z"/>
			<path class="st5" d="M200.9,652.3l15.5,16.5c3.1,3.3,7.5,5.2,12.1,5.2l22.2-0.1c1,0,1.5-1.2,0.8-1.9L235,656.2
				c-4.5-4.3-10.5-6.7-16.8-6.4l-16.7,0.6C200.7,650.5,200.2,651.6,200.9,652.3z"/>
			<path class="st5" d="M228.6,680.7l16.5,15.5c3.3,3.1,7.8,4.7,12.4,4.4l22.1-1.5c1-0.1,1.4-1.3,0.6-1.9l-17.3-14.7
				c-4.7-4-10.9-6-17.1-5.3l-16.6,1.7C228.3,678.9,227.9,680,228.6,680.7z"/>
			<path class="st5" d="M257.9,707.4l17.4,14.6c3.5,2.9,8.1,4.3,12.6,3.7l22-2.8c1-0.1,1.3-1.4,0.5-1.9l-18.1-13.7
				c-5-3.8-11.2-5.3-17.4-4.4l-16.5,2.6C257.5,705.7,257.2,706.8,257.9,707.4z"/>
			<path class="st5" d="M290.4,732.8l18,13.8c3.6,2.8,8.3,3.9,12.8,3.2L343,746c1-0.2,1.2-1.4,0.4-2l-18.7-12.9
				c-5.1-3.5-11.5-4.8-17.6-3.6l-16.3,3.4C290,731.1,289.7,732.3,290.4,732.8z"/>
			<path class="st5" d="M169.1,529.7l-5,21.1c-1,4.3-0.2,8.7,2.2,12.4l11.8,17.6c0.5,0.8,1.7,0.5,1.9-0.4l4-21.4
				c1.1-5.9-0.3-11.9-3.7-16.7l-9.3-12.9C170.5,528.6,169.3,528.8,169.1,529.7z"/>
			<path class="st5" d="M190,560.1l-3.8,21.3c-0.8,4.3,0.3,8.7,2.9,12.2l12.8,16.9c0.6,0.7,1.7,0.4,1.9-0.5l2.8-21.5
				c0.8-5.9-0.9-11.9-4.7-16.5l-10-12.4C191.3,558.9,190.2,559.2,190,560.1z"/>
			<path class="st5" d="M211.4,590.1l-1.8,21.6c-0.4,4.4,1.1,8.7,4.1,11.9l14.3,15.6c0.6,0.7,1.8,0.3,1.8-0.7l0.7-21.7
				c0.2-6-2.1-11.7-6.2-16l-11.2-11.4C212.6,588.8,211.5,589.2,211.4,590.1z"/>
			<path class="st5" d="M236.2,617l-0.9,21.6c-0.2,4.4,1.5,8.6,4.5,11.7l14.9,15c0.7,0.7,1.8,0.2,1.8-0.7l-0.2-21.7
				c0-6-2.5-11.6-6.9-15.7L238,616.3C237.3,615.7,236.3,616.1,236.2,617z"/>
			<path class="st5" d="M262.8,643.7l0,21.7c0,4.4,1.8,8.5,5,11.5l15.5,14.4c0.7,0.6,1.8,0.1,1.7-0.8l-1.1-21.7
				c-0.3-5.9-3-11.5-7.5-15.4l-12-10.4C263.8,642.4,262.8,642.9,262.8,643.7z"/>
			<path class="st5" d="M291.7,669.3l0.6,21.6c0.1,4.4,2.1,8.5,5.4,11.4l15.9,14c0.7,0.6,1.8,0.1,1.7-0.9l-1.7-21.7
				c-0.5-5.9-3.3-11.4-7.9-15.2l-12.3-10.1C292.7,667.9,291.6,668.5,291.7,669.3z"/>
			<path class="st5" d="M320.7,693.6l2.3,21.5c0.5,4.3,2.7,8.3,6.2,10.9l17,12.7c0.7,0.6,1.8-0.1,1.6-1l-3.3-21.5
				c-0.9-5.9-4.2-11.1-9.1-14.6l-13.1-9.1C321.6,692.1,320.6,692.7,320.7,693.6z"/>
		</g>
		<g>
			<path class="st5" d="M669.4,505.2c1.5,7.4,4.9,34.9-24.8,49.4c-0.8,0.4-1.8-0.1-2-1c-1.2-7-3.3-32.9,24.7-49.3
				C668.2,503.8,669.2,504.2,669.4,505.2z"/>
			<path class="st5" d="M673.2,555.9l-12.3,19c-2.5,3.8-6.5,6.5-11,7.3l-21.8,3.8c-1,0.2-1.6-0.9-1.1-1.7l13.3-18.4
				c3.6-5.1,9.2-8.4,15.4-9.3l16.5-2.3C673.1,554.1,673.7,555.1,673.2,555.9z"/>
			<path class="st5" d="M650.6,589.6l-13.8,18c-2.8,3.6-7,5.9-11.5,6.3l-22.1,2c-1,0.1-1.6-1-0.9-1.8l14.7-17.3
				c4-4.7,9.8-7.6,16.1-8l16.6-1C650.6,587.8,651.2,588.8,650.6,589.6z"/>
			<path class="st5" d="M625.4,622.1l-14.7,17.2c-3,3.5-7.3,5.6-11.8,5.7l-22.2,0.9c-1,0-1.5-1.1-0.8-1.8l15.6-16.5
				c4.3-4.5,10.2-7.1,16.4-7.2l16.7-0.1C625.5,620.3,626.1,621.4,625.4,622.1z"/>
			<path class="st5" d="M599.1,652.3l-15.5,16.5c-3.1,3.3-7.5,5.2-12.1,5.2l-22.2-0.1c-1,0-1.5-1.2-0.8-1.9l16.3-15.8
				c4.5-4.3,10.5-6.7,16.8-6.4l16.7,0.6C599.3,650.5,599.8,651.6,599.1,652.3z"/>
			<path class="st5" d="M571.4,680.7l-16.5,15.5c-3.3,3.1-7.8,4.7-12.4,4.4l-22.1-1.5c-1-0.1-1.4-1.3-0.6-1.9l17.3-14.7
				c4.7-4,10.9-6,17.1-5.3l16.6,1.7C571.7,678.9,572.1,680,571.4,680.7z"/>
			<path class="st5" d="M542.1,707.4L524.7,722c-3.5,2.9-8.1,4.3-12.6,3.7l-22-2.8c-1-0.1-1.3-1.4-0.5-1.9l18.1-13.7
				c5-3.8,11.2-5.3,17.4-4.4l16.5,2.6C542.5,705.7,542.8,706.8,542.1,707.4z"/>
			<path class="st5" d="M509.6,732.8l-18,13.8c-3.6,2.8-8.3,3.9-12.8,3.2L457,746c-1-0.2-1.2-1.4-0.4-2l18.7-12.9
				c5.1-3.5,11.5-4.8,17.6-3.6l16.3,3.4C510,731.1,510.3,732.3,509.6,732.8z"/>
			<path class="st5" d="M630.9,529.7l5,21.1c1,4.3,0.2,8.7-2.2,12.4l-11.8,17.6c-0.5,0.8-1.7,0.5-1.9-0.4l-4-21.4
				c-1.1-5.9,0.3-11.9,3.7-16.7l9.3-12.9C629.5,528.6,630.7,528.8,630.9,529.7z"/>
			<path class="st5" d="M610,560.1l3.8,21.3c0.8,4.3-0.3,8.7-2.9,12.2l-12.8,16.9c-0.6,0.7-1.7,0.4-1.9-0.5l-2.8-21.5
				c-0.8-5.9,0.9-11.9,4.7-16.5l10-12.4C608.7,558.9,609.8,559.2,610,560.1z"/>
			<path class="st5" d="M588.6,590.1l1.8,21.6c0.4,4.4-1.1,8.7-4.1,11.9l-14.3,15.6c-0.6,0.7-1.8,0.3-1.8-0.7l-0.7-21.7
				c-0.2-6,2.1-11.7,6.2-16l11.2-11.4C587.4,588.8,588.5,589.2,588.6,590.1z"/>
			<path class="st5" d="M563.8,617l0.9,21.6c0.2,4.4-1.5,8.6-4.5,11.7l-14.9,15c-0.7,0.7-1.8,0.2-1.8-0.7l0.2-21.7
				c0-6,2.5-11.6,6.9-15.7l11.6-10.9C562.7,615.7,563.7,616.1,563.8,617z"/>
			<path class="st5" d="M537.2,643.7l0,21.7c0,4.4-1.8,8.5-5,11.5l-15.5,14.4c-0.7,0.6-1.8,0.1-1.7-0.8l1.1-21.7
				c0.3-5.9,3-11.5,7.5-15.4l12-10.4C536.2,642.4,537.2,642.9,537.2,643.7z"/>
			<path class="st5" d="M508.3,669.3l-0.6,21.6c-0.1,4.4-2.1,8.5-5.4,11.4l-15.9,14c-0.7,0.6-1.8,0.1-1.7-0.9l1.7-21.7
				c0.5-5.9,3.3-11.4,7.9-15.2l12.3-10.1C507.3,667.9,508.4,668.5,508.3,669.3z"/>
			<path class="st5" d="M479.3,693.6l-2.3,21.5c-0.5,4.3-2.7,8.3-6.2,10.9l-17,12.7c-0.7,0.6-1.8-0.1-1.6-1l3.3-21.5
				c0.9-5.9,4.2-11.1,9.1-14.6l13.1-9.1C478.4,692.1,479.4,692.7,479.3,693.6z"/>
		</g>
	</g>
</g>
</svg>
