<?xml version="1.0" encoding="utf-8"?>
<!-- Generator: Adobe Illustrator 22.1.0, SVG Export Plug-In . SVG Version: 6.00 Build 0)  -->
<svg version="1.1" id="图层_1" xmlns="http://www.w3.org/2000/svg" xmlns:xlink="http://www.w3.org/1999/xlink" x="0px" y="0px"
	 viewBox="0 0 800 800" style="enable-background:new 0 0 800 800;" xml:space="preserve">
<style type="text/css">
	.st0{fill:#C1262C;}
</style>
<g>
	<path class="st0" d="M320.7,429.5c-1.8-2.3-15.5-16-15.5-16c-2.1,1.5,6,14.2,8.5,18.1c0.5,0.7,0.3,1.7-0.5,2.1
		c-1.8,1.1-5.8,2.8-14.3,3.5c-17.8,1.3-54.8-11.8-65.3-17.3c-10.5-5.5-6.8-2-6.8-2c32.8,25.5,66.1,30,79.3,28.3
		c10.6-1.4,14.7-9.8,15.8-13.2c0.3-0.8,0.1-1.7-0.4-2.4L320.7,429.5z"/>
	<path class="st0" d="M381,623.4c-8.5-7.6-18.1-6.3-20.5-5.9c-0.3,0.1-0.6,0.3-0.6,0.6c-0.6,4.6,3.9,4.4,4.3,3.2
		c0.3-1.2,4.8-1.3,4.5,1.2s0.8,7.3,5.8,9.8s15.5,3,15.5,3C390,633.2,390.7,632.2,381,623.4z"/>
	<path class="st0" d="M604.7,380.9c-7,2.5-37.8,16.8-66.3,18.8c-28.5,2-48.8,0.5-63.6,5.5c0,0-10.5-5-25.3-4.3
		c-14.8,0.8-31.5,13.5-42.3,13.5c-5.7,0-7.3,0.1-7.3,0.1s-1.6-0.1-7.3-0.1c-10.8,0-27.5-12.8-42.3-13.5c-14.8-0.8-25.3,4.3-25.3,4.3
		c-14.8-5-35-3.5-63.6-5.5c-28.5-2-59.3-16.3-66.3-18.8c-7-2.5-12.3,0-8.8,5.8s11.3,18.3,33.5,42.3c22.3,24,47.8,28.5,47.8,28.5
		c-44.3,7-52.9,8.3-48.1,10.1c4.8,1.8,25,25.2,46.4,31.5c21.4,6.3,42.4-7,42.4-7c-14.3,32.4-12.8,54.9-12.2,60
		c0.1,0.7,0.5,1.3,1,1.7c25.4,18.9,34.3,28.5,40.5,40.4c5.5,10.4,3.7,25.9,3.1,29.8c-0.1,0.6,0.1,1.2,0.4,1.7
		c2.6,3.8,14.1,20.2,19.2,25.3c5.7,5.7,32.4,4.3,39.4,4.3s33.7,1.3,39.4-4.3c5-5,16.5-21.5,19.2-25.3c0.3-0.5,0.5-1.1,0.4-1.7
		c-0.6-3.9-2.4-19.4,3.1-29.8c6.3-11.9,15.2-21.5,40.5-40.4c0.6-0.4,0.9-1,1-1.7c0.6-5.1,2.2-27.5-12.2-60c0,0,21,13.3,42.4,7
		s41.5-29.7,46.4-31.5s-3.8-3.1-48.1-10.1c0,0,25.5-4.5,47.8-28.5c22.3-24,30-36.5,33.5-42.3C617,380.9,611.7,378.4,604.7,380.9z
		 M607.5,389.2c-4,5.3-42,58.3-89.3,66.3c-8.8,1.3-31.3,0.5-35,0.5s-21.5-14.8-18.3-41.5c0,0-1.3-4.3-3.5,7.3
		c-2.3,11.5-0.3,29,21.3,42.5l0.3,1.5c0.1,0.5,0.5,0.8,1,0.7c3.6-0.5,17.8-2.4,25.2-3.2c8.5-1,26,1.2,34,3.2s15,3.7,22,3
		c0,0-37.4,39.7-67.7,15c0,0,19.7,1,25.4-1c5.7-2,14.3-8.3,28-7.7c0,0-7-6-27.4-5c-20.4,1-20,4.7-26.4,5c-6.3,0.3-19.7-0.7-24-1.7
		c0,0,0.7,3.7,14.7,16c0,0,7,23,8.7,34c1.4,9,0.9,20.3,0.7,24.1c0,0.8-0.5,1.5-1.1,1.9c-3.3,2.1-13.2,8.4-19.3,11.7
		c-7.3,4-17.7,6-24,42.4c0,0-6.3,1.7-1.3-19.4c5-21,5.3-22.2,5.3-22.2s-0.2-3.5-5,6.8c-4.8,10.3-6.9,12.6-9.2,26.1
		c0,0-9.2-4.4-15.5-4.4s-11,6.7-12.3,10c-0.4,1.3,3.1-0.8,6.2-3.3c3.1-2.5,15.1,0.3,25.8,5.7l2.8,18.4c0.1,0.8-0.1,1.6-0.7,2.2
		l-17.5,17.8c-1,1-2.5,1.5-3.9,1.3c-4.7-0.7-16-2.1-27.4-1.7c-11.4-0.4-22.7,1-27.4,1.7c-1.4,0.2-2.9-0.3-3.9-1.3l-17.5-17.8
		c-0.6-0.6-0.8-1.4-0.7-2.2l2.8-18.4c10.7-5.3,22.7-8.2,25.8-5.7c3.1,2.5,6.6,4.6,6.2,3.3c-1.3-3.3-6-10-12.3-10s-15.5,4.4-15.5,4.4
		c-2.3-13.5-4.3-15.8-9.2-26.1c-4.8-10.3-5-6.8-5-6.8s0.3,1.2,5.3,22.2c5,21-1.3,19.4-1.3,19.4c-6.3-36.4-16.7-38.4-24-42.4
		c-6.1-3.3-16-9.6-19.3-11.7c-0.7-0.4-1.1-1.1-1.1-1.9c-0.2-3.7-0.6-15,0.7-24.1c1.7-11,8.7-34,8.7-34c14-12.3,14.7-16,14.7-16
		c-4.3,1-17.7,2-24,1.7c-6.3-0.3-6-4-26.4-5c-20.4-1-27.4,5-27.4,5c13.7-0.7,22.4,5.7,28,7.7c5.7,2,25.4,1,25.4,1
		c-30.4,24.7-67.7-15-67.7-15c7,0.7,14-1,22-3c8-2,25.5-4.2,34-3.2c7.4,0.9,21.6,2.8,25.2,3.2c0.5,0.1,0.9-0.2,1-0.7l0.3-1.5
		c21.5-13.5,23.5-31,21.3-42.5c-2.3-11.5-3.5-7.3-3.5-7.3c3.3,26.8-14.5,41.5-18.3,41.5s-26.3,0.8-35-0.5
		c-47.3-8-85.3-61.1-89.3-66.3c-4-5.3-2.5-9.2,1.3-6.5c7,5,25.8,15.3,49.3,21.5s52.6,1.8,64.6,1c12-0.8,25.8,7,25.8,7
		c9.5-8,27.3-3.3,34,0c6.8,3.3,13.4,5.5,18.3,5.5s14.3,0,14.3,0s9.4,0,14.3,0s11.5-2.3,18.3-5.5c6.8-3.3,24.5-8,34,0
		c0,0,13.8-7.8,25.8-7c12,0.8,41,5.3,64.6-1c23.5-6.3,42.3-16.5,49.3-21.5C610,380,611.5,383.9,607.5,389.2z"/>
	<path class="st0" d="M566.4,420c-10.5,5.5-47.5,18.5-65.3,17.3c-8.5-0.7-12.5-2.4-14.3-3.5c-0.7-0.5-0.9-1.4-0.5-2.1
		c2.6-3.9,10.6-16.7,8.5-18.1c0,0-13.8,13.8-15.5,16l-1,1.2c-0.5,0.7-0.7,1.6-0.4,2.4c1.2,3.3,5.2,11.8,15.8,13.2
		c13.3,1.8,46.5-2.8,79.3-28.3C573.2,418,576.9,414.5,566.4,420z"/>
	<path class="st0" d="M410,635.4c0,0,10.5-0.5,15.5-3s6.1-7.3,5.8-9.8s4.2-2.3,4.5-1.2c0.3,1.1,4.8,1.3,4.3-3.2
		c0-0.3-0.3-0.6-0.6-0.6c-2.4-0.5-12-1.7-20.5,5.9C409.3,632.2,410,633.2,410,635.4z"/>
	<path class="st0" d="M445.5,466.3c-2.1,7.9,5.2,18.5,24.9,35.9l-40.9,32.7c0,0-17.2-15-4.2-30.7c13-15.7,11.5-17,3-9.7
		c-8.5,7.3-14.7,13.7-15.3,17.5c0,0-6.8-5.3-10.7-5.3c0,0-0.3-22.2-2.3-24.3c-2.1,2.1-2.3,24.3-2.3,24.3c-3.8,0-10.7,5.3-10.7,5.3
		c-0.7-3.8-6.8-10.2-15.3-17.5c-8.5-7.3-10-6,3,9.7c13,15.7-4.2,30.7-4.2,30.7l-40.9-32.7c19.7-17.4,27-28,24.9-35.9
		c-2.6-11-8-15.5-8-15.5c-1,22.8-30.9,38-30.9,38s4,17.4,9.7,20.4c5.7,3,4.7,3,14,20.4c9.3,17.4,11.3,16,14.7,16s12-2.9,12-2.9
		s-6.8,8-10.8,13.3c-4,5.3-10.5-2-17-8.8c-6.5-6.8-5-3-5-3c14.3,19,18.8,19.5,21.3,18.8s12.5-17.3,12.5-17.3
		c1.8,3.3,3.8,30.5,4.3,37s1.5,10.5,2.3,7c3.3-26-2.5-50.5-2.5-50.5c13-5,15.8-22.4,15.8-22.4c6.8-6,13.3-6.1,13.3-6.1
		s6.5,0.1,13.3,6.1c0,0,2.8,17.4,15.8,22.4c0,0-5.8,24.4-2.5,50.5c0.8,3.5,1.8-0.5,2.3-7s2.5-33.8,4.3-37c0,0,10,16.5,12.5,17.3
		s7,0.3,21.3-18.8c0,0,1.5-3.8-5,3c-6.5,6.8-13,14-17,8.8c-4-5.3-10.8-13.3-10.8-13.3s8.7,2.9,12,2.9s5.3,1.3,14.7-16
		c9.3-17.4,8.3-17.4,14-20.4c5.7-3,9.7-20.4,9.7-20.4s-29.9-15.3-30.9-38C453.6,450.8,448.2,455.3,445.5,466.3z M349.6,538.5
		c-4.7-6.7-7.7-17.4-7.7-17.4c-0.1-2.4,11,5.7,11,5.7s-1.7,6.3,2.7,9c4.3,2.7,7-2,7-2l2.7,3.7C365.3,537.5,354.3,545.2,349.6,538.5z
		 M451.7,538.5c-4.7,6.7-15.7-1-15.7-1l2.7-3.7c0,0,2.7,4.7,7,2c4.3-2.7,2.7-9,2.7-9s11.1-8.1,11-5.7
		C459.4,521.2,456.4,531.8,451.7,538.5z"/>
	<polygon class="st0" points="207.8,351 223.5,348.6 218.1,322.3 234.8,279.6 219.8,282.2 209.5,311.9 191.1,289.9 174.4,293.9 
		204.8,325.3 	"/>
	<path class="st0" d="M262.9,317.3l24.3-3.7l10.6,19.7l16.4-1.3l-34.4-59.4l-18,3l-21.7,68.7l16.4-2.3L262.9,317.3z M271.5,284.2
		l10.7,19.9l-16.5,2.5L271.5,284.2z"/>
	<polygon class="st0" points="333.9,267.2 317.2,267.9 318.2,331.6 330.6,331.6 330.6,284.2 363.3,328.6 379,328.3 379,263.9 
		365.3,263.9 366.6,312.3 	"/>
	<polygon class="st0" points="474.7,266.2 459.4,266.2 452.4,330.3 467.4,330.3 	"/>
	<path class="st0" d="M485.8,330.6l12.3-18.9l25.4,2.1l4.3,24.1l15,0.7l-14-67.1l-18-0.7l-40.7,59.7H485.8z M517.8,281.6l3.9,22
		l-17.6-1L517.8,281.6z"/>
	<polygon class="st0" points="573.5,297.8 591.2,351 609.2,354.3 626.6,291.3 612.2,288.6 599.9,335.6 583.2,281.6 565.2,277.9 
		547.8,341 561.5,343 	"/>
	<path class="st0" d="M445.4,310.3c0-10.3-9.7-14.3-12.3-14.8c0,0,12.3-2.5,12.3-15.9c0-13.3-12.3-16.2-16.2-16.2
		c-3.8,0-33.9,0.5-33.9,0.5L392,328c0,0,27.4,0,36.4,0S445.4,320.6,445.4,310.3z M408.3,272.9c0,0,7.7-0.3,11.7-0.3
		c4,0,11.7,1,11.7,8.3c0,7.3-6.3,10-8.7,10s-14.7,0-14.7,0V272.9z M406,319.3l1-19.7c0,0,12,0,16,0s8.3,4,8.3,9.8s-5.7,9.8-10,9.8
		C417,319.3,406,319.3,406,319.3z"/>
	<path class="st0" d="M296.5,373.1c0.3,0.6,0.7,1.1,1.2,1.6c0.5,0.5,1.2,1.1,2.1,1.7c0.4,0.3,1.1,0.8,2.1,1.4c2.2,1.4,3.7,2.3,4.5,3
		c0.7,0.4,1.2,0.9,1.5,1.3c0.2,0.3,0.4,0.7,0.4,1.2c0.1,0.6,0,1.1-0.3,1.6c-0.3,0.5-0.8,1-1.4,1.3c-0.7,0.4-1.5,0.6-2.3,0.7
		c-2.1,0.3-4.5,0.1-7.2-0.7c0.4,1.2,0.7,2.8,1.1,4.8c1.9,0.1,3.4,0.2,4.5,0.2c1.1,0,2.1-0.1,3-0.2c1.3-0.2,2.5-0.5,3.6-0.9
		c1.1-0.4,2.1-1,2.9-1.8c0.9-0.8,1.5-1.7,1.8-2.7c0.4-1.1,0.5-2.1,0.3-3.2c-0.1-0.5-0.2-0.9-0.3-1.3c-0.2-0.4-0.4-0.8-0.6-1.2
		s-0.6-0.8-1-1.2c-0.4-0.4-0.9-0.8-1.5-1.2c-0.6-0.4-1.2-0.8-1.9-1.2l-2.7-1.8c-0.4-0.2-1-0.5-1.6-0.9s-1.1-0.7-1.5-1
		c-0.3-0.3-0.6-0.6-0.7-0.8s-0.3-0.4-0.4-0.6c-0.1-0.2-0.2-0.4-0.2-0.6c-0.1-0.8,0.2-1.5,0.9-2.2c0.7-0.7,1.7-1.2,3-1.3
		c1.7-0.3,3.7-0.1,5.8,0.3c-0.5-1.7-0.8-3.3-1.1-4.6c-2.4-0.1-4.5,0-6.4,0.3c-2.1,0.3-3.8,0.9-5,1.7s-2.2,1.8-2.7,3
		c-0.5,1.2-0.7,2.4-0.5,3.6C296.1,371.9,296.2,372.5,296.5,373.1z"/>
	<path class="st0" d="M316.5,374.4c0.4,4.8,0.7,9.4,1,14c1.8-0.3,2.9-0.4,3.4-0.5l2.9-0.3c-1.3-11-2.1-20-2.4-27
		c-1.8,0.3-2.8,0.4-3,0.4l-3.3,0.4l0.3,2.1C315.7,366,316.1,369.7,316.5,374.4z"/>
	<path class="st0" d="M326.9,378.6c0.1,2.9,0.2,5.6,0.2,8c1.5-0.2,2.5-0.3,2.9-0.3c0.6-0.1,1.5-0.1,2.7-0.2c-0.2-3.2-0.4-6-0.5-8.4
		c-0.3-5.8-0.5-9.8-0.6-11.9c1,1.4,2.3,3.1,3.8,5.1c2,2.6,3.7,4.8,5,6.5c2,2.6,3.3,4.2,3.9,5.1c0.4,0.5,1,1.4,1.7,2.5
		c1.7-0.2,2.9-0.3,3.7-0.4c1-0.1,2.1-0.2,3.5-0.3l-0.4-7.3l-0.5-12.5l-0.2-7.3c-1.6,0.2-2.5,0.3-2.8,0.3c-0.6,0.1-1.6,0.1-2.8,0.2
		c0.1,1,0.2,1.8,0.2,2.2l0.9,18.4c-1.9-2.6-4.3-5.9-7.3-9.8c-3-3.9-5.4-7.1-7.1-9.6c-1.5,0.2-2.7,0.3-3.5,0.4
		c-1.1,0.1-2.4,0.2-3.9,0.3c0.2,2.7,0.5,5.8,0.6,9.4L326.9,378.6z"/>
	<path class="st0" d="M359.8,379.6c1.4,1.2,3.1,2.1,4.9,2.6c1.8,0.6,3.7,0.8,5.7,0.8c0.9,0,2-0.1,3.2-0.2c1.3-0.1,2.6-0.3,4.1-0.6
		c0.2-1.6,0.5-3.2,0.8-4.7c-2.8,0.8-5.2,1.2-7.2,1.2c-2.2,0-4-0.4-5.4-1.3c-1.5-0.8-2.5-2-3.2-3.3c-0.7-1.4-1-2.9-1-4.6
		c0-1.4,0.3-2.8,0.8-4.2c0.5-1.3,1.3-2.5,2.3-3.4c1-0.9,2.1-1.6,3.5-2.1c1.3-0.4,2.7-0.6,4.1-0.6c0.9,0,1.8,0.1,2.8,0.2
		c1,0.1,2.2,0.4,3.7,0.8l-0.1-2.1c0-0.5-0.1-1.3-0.1-2.5c-2.5-0.5-4.9-0.7-7-0.7c-2.2,0-4.3,0.3-6.2,0.9c-2,0.6-3.7,1.6-5.2,2.9
		s-2.6,2.9-3.4,4.7c-0.8,1.9-1.2,3.9-1.2,6.1c0,2,0.3,3.9,1,5.6C357.3,376.9,358.4,378.4,359.8,379.6z"/>
	<path class="st0" d="M382.5,382.4l3.9-0.2l6.5-0.3c2.8-0.1,5.9-0.2,9.3-0.3c0-1.4,0-2.8,0.1-4.4l-2.9,0.2l-4.3,0.2
		c-2.3,0.1-3.7,0.2-4.4,0.2l-2.2,0.1l0-7.4c2.3-0.2,4.3-0.3,5.8-0.3c0.5,0,2.5-0.1,6.1-0.2c0-1.7,0.1-3.1,0.1-4.3
		c-3,0.2-5.2,0.3-6.4,0.4c-1.8,0.1-3.7,0.1-5.5,0.1l0.1-7c1.2-0.1,2.1-0.1,2.7-0.2c0.6,0,1.9-0.1,4-0.2c1,0,1.9-0.1,2.8-0.1
		c0.9,0,1.6,0,2.1,0l1.9,0l0.1-4.3l-5.7,0.2l-3.8,0.2c-3.5,0.1-6.9,0.2-10.2,0.3l0.1,2.7l0,8l-0.1,8.8L382.5,382.4z"/>
	<path class="st0" d="M434.7,382.3c0.1-1.1,0.1-2,0.2-2.6c0.1-0.7,0.1-1.2,0.1-1.6c-1,0.1-1.8,0.2-2.5,0.2c-0.7,0-1.8,0-3.2,0
		l-4.4,0h-1.8c1.7-1.6,3.2-3.1,4.6-4.6c1.4-1.5,2.7-2.9,3.8-4.3c1.2-1.4,2-2.5,2.6-3.3c0.5-0.8,1-1.7,1.4-2.5
		c0.2-0.4,0.3-0.9,0.4-1.4c0.1-0.5,0.1-1,0.1-1.5c0-0.8-0.2-1.7-0.6-2.4c-0.4-0.8-1.1-1.5-2-2c-0.9-0.6-2-1-3.2-1.2
		c-1.2-0.2-2.4-0.4-3.7-0.4c-2.8,0-5.8,0.3-8.8,0.8c-0.2,1.1-0.3,1.9-0.4,2.4l-0.4,2c1.7-0.4,3.1-0.7,4.2-0.9c1.1-0.2,2.1-0.2,3-0.2
		c1,0,1.9,0.1,2.6,0.4c0.8,0.3,1.4,0.6,1.8,1.1c0.4,0.5,0.7,1,0.7,1.8c0,0.3,0,0.6-0.1,0.8c-0.1,0.3-0.2,0.6-0.4,1
		c-0.2,0.4-0.6,1-1.2,1.8c-0.7,1-1.8,2.2-3.2,3.8c-1.4,1.6-2.8,3.1-4.2,4.4c-1.4,1.4-2.9,2.8-4.5,4.3l-0.1,2.9c0,0.3,0,0.7-0.1,1.2
		c2.7,0,6,0,9.9,0C428.6,382.3,431.7,382.3,434.7,382.3z"/>
	<path class="st0" d="M440.6,380.4c0.8,1.2,1.8,2.2,3.2,2.9c1.3,0.7,2.8,1.1,4.5,1.1c1.8,0.1,3.4-0.3,5-0.9c1.6-0.7,2.8-1.7,3.7-3
		c0.9-1.3,1.7-3,2.2-5c0.6-2,0.9-4.1,1-6.2c0.1-2.6-0.2-4.9-1-6.9c-0.8-2-1.9-3.5-3.3-4.4c-1.5-0.9-3.2-1.5-5.3-1.5
		c-1.7-0.1-3.3,0.2-4.8,0.9c-1.5,0.6-2.8,1.6-3.8,3s-1.8,3.1-2.3,5.2c-0.6,2.1-0.9,4.2-1,6.3c-0.1,1.6,0.1,3.1,0.3,4.6
		C439.3,377.8,439.8,379.1,440.6,380.4z M444.2,372.1c0-1.2,0.2-2.5,0.3-3.7c0.2-1.2,0.4-2.2,0.7-3.1c0.3-0.9,0.6-1.6,0.9-2.2
		c0.3-0.6,0.7-1.1,1.2-1.6c0.5-0.4,1-0.8,1.4-0.9c0.5-0.2,1-0.3,1.5-0.2c1,0,1.8,0.4,2.5,1.1c0.7,0.7,1.2,1.6,1.5,2.8
		c0.3,1.2,0.4,2.7,0.4,4.6c0,1.3-0.2,2.7-0.4,4c-0.2,1.3-0.6,2.5-1,3.6c-0.4,1.1-0.9,1.9-1.5,2.4c-0.5,0.6-1,0.9-1.5,1.1
		c-0.5,0.2-1,0.3-1.5,0.3c-0.9,0-1.8-0.4-2.5-1c-0.7-0.6-1.2-1.5-1.5-2.7C444.3,375.4,444.2,373.9,444.2,372.1z"/>
	<path class="st0" d="M472.1,364.7c-0.2,1.9-0.5,4.2-0.9,6.9l-1.1,7.9c-0.4,2.6-0.7,4.9-1.1,6.9c1,0.1,2.1,0.1,3.3,0.3
		c1.1,0.1,2,0.2,2.9,0.3l0.2-2.1c0-0.5,0.1-1,0.2-1.5l0.3-2.3l2.2-15.6c0.2-1.2,0.3-2,0.4-2.7l0.5-2.7c-1-0.1-2-0.1-3.1-0.2
		c-1.1-0.1-2-0.2-2.8-0.3c-0.3,0.2-0.6,0.4-0.8,0.5c-0.2,0.1-0.7,0.4-1.5,0.7c-0.8,0.4-1.4,0.7-1.9,0.9c0,0.6-0.1,1.3-0.3,2.4
		c-0.1,1-0.3,2-0.4,2.8c1.3-0.7,2.1-1.2,2.4-1.4C471,365.2,471.4,365,472.1,364.7z"/>
	<path class="st0" d="M486.6,387.7c0.9,0.9,2,1.6,3.2,2c1.2,0.5,2.5,0.8,3.8,0.9c1.5,0.2,3,0.1,4.4-0.1s2.7-0.8,3.8-1.6
		c1.1-0.8,1.9-1.8,2.5-3c0.6-1.1,1-2.3,1.1-3.6c0.2-1.5,0-2.9-0.6-4.2c-0.6-1.3-1.4-2.3-2.6-3c-1.2-0.6-2.4-1-3.8-1.2
		c-0.7-0.1-1.5-0.1-2.4,0c-0.3,0.5-1.3,1.7-2.8,3.7c0.8-0.1,1.4-0.1,1.9,0c0.9,0.1,1.7,0.3,2.4,0.7c0.8,0.4,1.3,0.9,1.5,1.6
		c0.3,0.7,0.3,1.4,0.2,2.3c-0.1,0.9-0.4,1.7-0.8,2.4c-0.4,0.7-1,1.3-1.8,1.6c-0.8,0.4-1.7,0.5-2.6,0.4c-1.3-0.2-2.3-0.7-3.1-1.7
		c-0.7-1-1-2.2-0.9-3.6c0.1-0.6,0.2-1.1,0.4-1.7c0.2-0.6,0.4-1.2,0.7-1.7c0.5-1,1-2,1.7-3c0.7-1,1.5-2.1,2.4-3.3
		c0.9-1.2,1.9-2.3,3-3.4c0.7-0.8,2.2-2.2,4.4-4.2l-7.2-0.8c-1.8,1.9-3.5,3.7-4.9,5.5c-1.5,1.8-2.7,3.5-3.6,5.1
		c-0.9,1.6-1.6,2.9-1.9,4c-0.3,1.1-0.6,2.1-0.7,3.1c-0.1,1.2,0,2.4,0.3,3.6C485.1,385.7,485.7,386.8,486.6,387.7z"/>
	<path class="st0" d="M323.4,253.9v-10.6h-11.3v3.5h4.3l0.6,10.4c0.1,2,1.8,3.4,3.8,3.3l30.4-2.5v-5l-26.6,1.9
		C323.9,255,323.4,254.5,323.4,253.9z"/>
	<path class="st0" d="M470.2,259.9l30.5,0.6l0.5-5l-26.7-0.8c-0.6,0-1.1-0.6-1-1.2l1.1-10.6l-11.2-1.1l-0.4,3.5l4.2,0.4l-0.4,10.4
		C466.7,258.2,468.2,259.8,470.2,259.9z"/>
	<path class="st0" d="M317.4,239.8c5.9,0,11-3.5,13.3-8.4h11.6l0.7,12.8l6.7,0.3l-1.4-34.6c0-0.8-0.7-1.5-1.5-1.5h-10.4l0.3,3h3.6
		c0.6,0,1.1,0.5,1.1,1.1l0.3,5.3h-12.1c-2.6-3.8-7-6.2-12.1-6.2c-8,0-14.5,6.3-14.5,14.1C302.9,233.5,309.4,239.8,317.4,239.8z
		 M341.8,221.8l0.3,5.2h-10.2c0-0.4,0.1-0.9,0.1-1.3c0-1.3-0.2-2.6-0.6-3.8H341.8z M317.4,216.7c4.5,0,8.2,3.9,8.2,8.7
		c0,4.8-3.7,8.7-8.2,8.7c-4.5,0-8.2-3.9-8.2-8.7C309.2,220.6,312.9,216.7,317.4,216.7z"/>
	<path class="st0" d="M458.4,234.2c-0.1,2,1.5,3.6,3.5,3.6l18.4-0.1c2.1,0,3.9-1.7,3.9-3.8l0.1-2h10.5l-0.3,15.8h7.2l0.9-33.6
		c0-1.7-1.3-3.1-3-3.1l-7.8-0.1l0.5,2.7l2.8,0.2l-0.1,5.2h-10.3l0.1-4.3c0-1.4-1.1-2.6-2.5-2.6h-6.6l-0.2,2.7l3.2,0.2l-0.2,6.3
		h-12.9l0.2-8.2c0-1-0.8-1.9-1.8-1.9l-7.5-0.3l-0.2,3.3h2.8L458.4,234.2z M484.6,223h10.4l-0.1,5h-10.4L484.6,223z M465.6,226h12.9
		l-0.2,7.2h-12.8L465.6,226z"/>
	<path class="st0" d="M157.4,553.6c1.2-7,3.3-32.9-24.7-49.3c-0.8-0.5-1.9,0-2.1,0.9c-1.5,7.4-4.9,34.9,24.8,49.4
		C156.2,555,157.2,554.5,157.4,553.6z"/>
	<path class="st0" d="M171.9,585.9c1,0.2,1.6-0.9,1.1-1.7l-13.3-18.4c-3.6-5.1-9.2-8.4-15.4-9.3l-16.5-2.3c-0.9-0.1-1.6,0.9-1.1,1.7
		l12.3,19c2.5,3.8,6.5,6.5,11,7.3L171.9,585.9z"/>
	<path class="st0" d="M196.8,615.9c1,0.1,1.6-1,0.9-1.8L183,596.8c-4-4.7-9.8-7.6-16.1-8l-16.6-1c-0.9-0.1-1.5,1-0.9,1.7l13.8,18
		c2.8,3.6,7,5.9,11.5,6.3L196.8,615.9z"/>
	<path class="st0" d="M223.3,646c1,0,1.5-1.1,0.8-1.8l-15.6-16.5c-4.3-4.5-10.2-7.1-16.4-7.2l-16.7-0.1c-0.9,0-1.4,1.1-0.8,1.8
		l14.7,17.2c3,3.5,7.3,5.6,11.8,5.7L223.3,646z"/>
	<path class="st0" d="M250.6,673.9c1,0,1.5-1.2,0.8-1.9L235,656.2c-4.5-4.3-10.5-6.7-16.8-6.4l-16.7,0.6c-0.9,0-1.4,1.1-0.8,1.8
		l15.5,16.5c3.1,3.3,7.5,5.2,12.1,5.2L250.6,673.9z"/>
	<path class="st0" d="M280.2,697.2l-17.3-14.7c-4.7-4-10.9-6-17.1-5.3l-16.6,1.7c-0.9,0.1-1.3,1.2-0.6,1.9l16.5,15.5
		c3.3,3.1,7.8,4.7,12.4,4.4l22.1-1.5C280.5,699,280.9,697.8,280.2,697.2z"/>
	<path class="st0" d="M310.4,721l-18.1-13.7c-5-3.8-11.2-5.3-17.4-4.4l-16.5,2.6c-0.9,0.1-1.2,1.3-0.5,1.9l17.4,14.6
		c3.5,2.9,8.1,4.3,12.6,3.7l22-2.8C310.9,722.8,311.2,721.6,310.4,721z"/>
	<path class="st0" d="M343.5,744.1l-18.7-12.9c-5.1-3.5-11.5-4.8-17.6-3.6l-16.3,3.4c-0.9,0.2-1.2,1.4-0.4,1.9l18,13.8
		c3.6,2.8,8.3,3.9,12.8,3.2L343,746C344,745.9,344.3,744.6,343.5,744.1z"/>
	<path class="st0" d="M180.1,580.3l4-21.4c1.1-5.9-0.3-11.9-3.7-16.7l-9.3-12.9c-0.5-0.7-1.6-0.5-1.9,0.4l-5,21.1
		c-1,4.3-0.2,8.7,2.2,12.4l11.8,17.6C178.7,581.5,179.9,581.3,180.1,580.3z"/>
	<path class="st0" d="M203.7,610l2.8-21.5c0.8-5.9-0.9-11.9-4.7-16.5l-10-12.4c-0.6-0.7-1.7-0.4-1.8,0.5l-3.8,21.3
		c-0.8,4.3,0.3,8.7,2.9,12.2l12.8,16.9C202.4,611.3,203.6,611,203.7,610z"/>
	<path class="st0" d="M229.9,638.5l0.7-21.7c0.2-6-2.1-11.7-6.2-16l-11.2-11.4c-0.6-0.6-1.7-0.2-1.8,0.6l-1.8,21.6
		c-0.4,4.4,1.1,8.7,4.1,11.9l14.3,15.6C228.7,639.9,229.8,639.5,229.9,638.5z"/>
	<path class="st0" d="M256.6,664.7l-0.2-21.7c0-6-2.5-11.6-6.9-15.7L238,616.3c-0.6-0.6-1.7-0.2-1.8,0.7l-0.9,21.6
		c-0.2,4.4,1.5,8.6,4.5,11.7l14.9,15C255.5,666.1,256.6,665.6,256.6,664.7z"/>
	<path class="st0" d="M283.4,691.3c0.7,0.6,1.8,0.1,1.7-0.8l-1.1-21.7c-0.3-5.9-3-11.5-7.5-15.4l-12-10.4c-0.7-0.6-1.7-0.1-1.7,0.8
		l0,21.7c0,4.4,1.8,8.5,5,11.5L283.4,691.3z"/>
	<path class="st0" d="M297.6,702.4l15.9,14c0.7,0.6,1.8,0.1,1.7-0.9l-1.7-21.7c-0.5-5.9-3.3-11.4-7.9-15.2l-12.3-10.1
		c-0.7-0.6-1.7-0.1-1.7,0.8l0.6,21.6C292.4,695.4,294.3,699.5,297.6,702.4z"/>
	<path class="st0" d="M344.5,716.3c-0.9-5.9-4.2-11.1-9.1-14.6l-13.1-9.1c-0.7-0.5-1.7,0.1-1.6,1l2.3,21.5c0.5,4.3,2.7,8.3,6.2,10.9
		l17,12.7c0.7,0.6,1.8-0.1,1.6-1L344.5,716.3z"/>
	<path class="st0" d="M644.6,554.6c29.8-14.5,26.4-42,24.8-49.4c-0.2-1-1.3-1.4-2.1-0.9c-28,16.4-25.9,42.3-24.7,49.3
		C642.8,554.5,643.8,555,644.6,554.6z"/>
	<path class="st0" d="M672.1,554.2l-16.5,2.3c-6.2,0.9-11.7,4.2-15.4,9.3L627,584.2c-0.6,0.8,0.1,1.9,1.1,1.7l21.8-3.8
		c4.5-0.8,8.5-3.4,11-7.3l12.3-19C673.7,555.1,673.1,554.1,672.1,554.2z"/>
	<path class="st0" d="M649.7,587.8l-16.6,1c-6.2,0.4-12,3.3-16.1,8l-14.7,17.3c-0.6,0.7,0,1.9,0.9,1.8l22.1-2
		c4.6-0.4,8.7-2.7,11.5-6.3l13.8-18C651.2,588.8,650.6,587.8,649.7,587.8z"/>
	<path class="st0" d="M624.6,620.3l-16.7,0.1c-6.2,0-12.2,2.6-16.4,7.2l-15.6,16.5c-0.7,0.7-0.1,1.9,0.8,1.8l22.2-0.9
		c4.6-0.2,8.9-2.3,11.8-5.7l14.7-17.2C626.1,621.4,625.5,620.3,624.6,620.3z"/>
	<path class="st0" d="M598.4,650.4l-16.7-0.6c-6.2-0.2-12.3,2.1-16.8,6.4L548.7,672c-0.7,0.7-0.2,1.9,0.8,1.9l22.2,0.1
		c4.6,0,8.9-1.9,12.1-5.2l15.5-16.5C599.8,651.6,599.3,650.5,598.4,650.4z"/>
	<path class="st0" d="M570.8,678.8l-16.6-1.7c-6.2-0.6-12.4,1.3-17.1,5.3l-17.3,14.7c-0.7,0.6-0.3,1.8,0.6,1.9l22.1,1.5
		c4.6,0.3,9-1.3,12.4-4.4l16.5-15.5C572.1,680,571.7,678.9,570.8,678.8z"/>
	<path class="st0" d="M541.6,705.5l-16.5-2.6c-6.2-1-12.4,0.6-17.4,4.4L489.6,721c-0.8,0.6-0.4,1.8,0.5,1.9l22,2.8
		c4.5,0.6,9.1-0.8,12.6-3.7l17.4-14.6C542.8,706.8,542.5,705.7,541.6,705.5z"/>
	<path class="st0" d="M509.1,730.9l-16.3-3.4c-6.1-1.3-12.5,0-17.6,3.6l-18.7,12.9c-0.8,0.6-0.5,1.8,0.4,2l21.9,3.7
		c4.5,0.8,9.1-0.4,12.8-3.2l18-13.8C510.3,732.3,510,731.1,509.1,730.9z"/>
	<path class="st0" d="M621.8,580.7l11.8-17.6c2.4-3.6,3.2-8.1,2.2-12.4l-5-21.1c-0.2-0.9-1.3-1.1-1.9-0.4l-9.3,12.9
		c-3.5,4.8-4.8,10.9-3.7,16.7l4,21.4C620.1,581.3,621.3,581.5,621.8,580.7z"/>
	<path class="st0" d="M598.1,610.5l12.8-16.9c2.6-3.5,3.7-7.9,2.9-12.2l-3.8-21.3c-0.2-0.9-1.3-1.2-1.8-0.5l-10,12.4
		c-3.7,4.6-5.4,10.6-4.7,16.5l2.8,21.5C596.4,611,597.6,611.3,598.1,610.5z"/>
	<path class="st0" d="M571.9,639.2l14.3-15.6c3-3.2,4.4-7.5,4.1-11.9l-1.8-21.6c-0.1-0.9-1.2-1.3-1.8-0.6l-11.2,11.4
		c-4.2,4.3-6.4,10-6.2,16l0.7,21.7C570.2,639.5,571.3,639.9,571.9,639.2z"/>
	<path class="st0" d="M545.2,665.4l14.9-15c3.1-3.1,4.7-7.3,4.5-11.7l-0.9-21.6c0-0.9-1.1-1.3-1.8-0.7l-11.6,10.9
		c-4.3,4.1-6.8,9.8-6.9,15.7l-0.2,21.7C543.4,665.6,544.5,666.1,545.2,665.4z"/>
	<path class="st0" d="M516.6,691.3l15.5-14.4c3.2-3,5-7.1,5-11.5l0-21.7c0-0.9-1-1.4-1.7-0.8l-12,10.4c-4.5,3.9-7.2,9.5-7.5,15.4
		l-1.1,21.7C514.8,691.4,515.9,692,516.6,691.3z"/>
	<path class="st0" d="M486.4,716.3l15.9-14c3.3-2.9,5.2-7,5.4-11.4l0.6-21.6c0-0.9-1-1.4-1.7-0.8l-12.3,10.1
		c-4.6,3.8-7.5,9.3-7.9,15.2l-1.7,21.7C484.6,716.4,485.7,716.9,486.4,716.3z"/>
	<path class="st0" d="M477,715.1l2.3-21.5c0.1-0.9-0.9-1.5-1.6-1l-13.1,9.1c-4.9,3.4-8.2,8.7-9.1,14.6l-3.3,21.5
		c-0.1,0.9,0.9,1.5,1.6,1l17-12.7C474.3,723.4,476.6,719.5,477,715.1z"/>
	<path class="st0" d="M731.1,333.7c-16.3-8.9-33.1-16.9-50.2-24c0,0,0,0,0,0c0.7-17.6,0.4-37.8-1.6-60.7c0,0-25.6-16.6-78.6-32
		c0,0,0,0,0,0c-25.1-30.9-18.2-68.6-18.2-68.6c-20.8-3.7-40-6.4-57.5-8.4C508,87.8,458.9,50,401,50c-57.8,0-106.9,37.6-124,89.8
		c-18.1,2.1-37.9,4.8-59.5,8.7c0,0,7,37.7-18.2,68.6c0,0,0,0,0,0c-53,15.4-78.6,32-78.6,32c-2,22.8-2.3,43.1-1.6,60.7c0,0,0,0,0,0
		c-17.1,7.2-33.8,15.1-50.2,24l24.2,54.5c0,0-10,33.5-9,92.1c0,0,26.5-15.6,74.6-32.3c0-0.1-0.1-0.2-0.1-0.3
		c10.5,31.2,24.8,62.8,44.1,92.1C283.9,663,400,720,400,720S516.1,663,597.2,539.8c19.3-29.3,33.6-61,44.1-92.1
		c0,0.1-0.1,0.2-0.1,0.3c48.1,16.6,74.6,32.3,74.6,32.3c1-58.6-9-92.1-9-92.1L731.1,333.7z M680.7,313.9c0,0.1,0,0.2,0,0.4
		C680.7,314.1,680.7,314,680.7,313.9z M594.9,215.4c-0.2,0-0.4-0.1-0.5-0.1C594.6,215.3,594.8,215.4,594.9,215.4z M585.1,212.8
		c-0.1,0-0.1,0-0.2,0C585,212.7,585.1,212.8,585.1,212.8z M563.7,163.5c0.3,12.4,2.7,29.5,11.3,46.7c0,0,0,0,0,0
		c-13.7-3.3-28.7-6.3-45.2-9c1.1-6.8,1.6-13.7,1.6-20.7c0-7.4-0.6-14.7-1.8-21.8C540.4,160,551.7,161.6,563.7,163.5z M529.8,201.2
		c-1.4-0.2-2.9-0.5-4.3-0.7C526.9,200.7,528.4,201,529.8,201.2z M521,156c1.6,8,2.4,16.1,2.4,24.5c0,6.6-0.5,13.1-1.5,19.5
		c-0.8-0.1-1.5-0.2-2.3-0.3c-0.5-4.7-1.4-10.1-2.3-14.7C518.1,178.9,519.8,166.3,521,156z M516.5,199.2c-10.9-1.6-22.3-2.9-34.3-4.1
		l11.3-15.5c4.3,0.3,14.2,1.5,21,6.8C515.3,190.5,516.1,195.1,516.5,199.2z M310.9,195.8c-1-6-1.8-11.4-2.1-13.9
		c10.9-18.9,26.9-34.1,36.3-42.1c5.7,1.8,22.1,6.9,44.2,10.6l14.2,40.8c-1.2,0-2.3,0-3.5,0C367.3,191.2,337.6,192.9,310.9,195.8z
		 M392.3,149.9c3.7-3.6,17.9-17.5,30.8-33.8c11.2,1.1,30.9,4.3,53.4,14.3c3.3,5.8,11.6,22.7,14.8,47.3l-12.4,17.1
		c-22.2-2-46.2-3.3-72.2-3.5c0,0,0.1,0,0.2,0L392.3,149.9z M512.3,129.3c-5.6-6.2-12.7-13.5-18.8-18.2c-0.9-4.3-2.5-10.1-5.3-16.7
		C498.3,104.7,506.4,116.5,512.3,129.3z M445.5,66.3c13.2,5.2,25.5,12.6,36.4,22.2c4.9,9.2,7.4,17.6,8.6,23.2L476.1,127
		c-22-9.5-41.3-12.8-52.5-13.9c-2.9-5-14.1-23.6-25.8-30c7.8-11.1,14.9-17,19-19.9C422,63.6,434.9,64.8,445.5,66.3z M327.6,82.4
		C348.7,66.6,374.2,58,401,58c1.5,0,3.1,0,4.6,0.1c3,1.3,5.9,2.7,7.6,3.9c-4.5,3.4-11.2,9.6-18.4,20c-4.9,0.3-30.1,2.4-46.1,13
		c-9.5-2.6-20.3-3-27.2-3C322.6,90.1,324.9,86.3,327.6,82.4z M297,115.7c5.7-6.3,13.5-14.2,21.6-20.5c6-0.1,17.7,0,27.8,2.4
		c-2.3,4.8-8.3,20.2-3.8,40.3c-9.6,8.2-25.3,23.3-36.3,42.1c-12.2-2.7-23.2-6.5-23.2-6.5c-2,10.1-2.8,19.1-3,26.2c0,0,0,0,0,0
		c-0.1,0-0.1,0-0.2,0c-1-6.3-1.5-12.7-1.5-19.2C278.5,157.2,285,135,297,115.7z M303.1,196.6c-0.4,0-0.7,0.1-1.1,0.1
		C302.4,196.7,302.7,196.7,303.1,196.6z M295.4,197.6c-0.2,0-0.5,0.1-0.7,0.1C294.9,197.6,295.1,197.6,295.4,197.6z M287.7,198.6
		c-0.1,0-0.1,0-0.2,0C287.6,198.6,287.6,198.6,287.7,198.6z M236.3,163.5c12.7-2,24.7-3.7,36.1-5.1c-1.2,7.2-1.9,14.5-1.9,22
		c0,7,0.5,13.8,1.6,20.4c0,0,0,0,0,0c-17.2,2.8-32.9,5.9-47.1,9.3c0,0,0,0,0,0C233.6,193,236,175.9,236.3,163.5z M205.6,215.3
		c-0.2,0-0.3,0.1-0.5,0.1C205.2,215.4,205.4,215.3,205.6,215.3z M215,212.7c0,0-0.1,0-0.1,0C214.9,212.8,215,212.7,215,212.7z
		 M128.3,253.8c7.7-4.4,28.9-15.4,63.9-26.3c26.3-8.2,55.2-14.7,85.7-19.4c38.2-5.9,79.3-8.8,122-8.8s83.8,3,122,8.8
		c30.6,4.7,59.4,11.2,85.7,19.4c35,10.9,56.2,22,63.9,26.3c3.7,46.8,0.1,81.7-3.7,103c-2.2,12.5-4.7,21.8-6.6,27.8
		c-92.8-48-242.5-49.4-259.7-49.4c-0.9,0-1.5,0-1.6,0c-0.2,0-0.8,0-1.6,0c-17.2,0-166.9,1.4-259.7,49.4
		C133.2,367.4,122.8,323.4,128.3,253.8z M653.9,389.9c-1-0.5-2.1-1-3.1-1.5C651.8,388.9,652.9,389.4,653.9,389.9z M648.5,387.3
		c-0.8-0.4-1.5-0.7-2.3-1C646.9,386.6,647.7,386.9,648.5,387.3z M644.1,385.3c-0.8-0.4-1.6-0.7-2.4-1
		C642.5,384.6,643.3,384.9,644.1,385.3z M158.3,384.2c-0.8,0.3-1.6,0.7-2.4,1C156.7,384.9,157.5,384.6,158.3,384.2z M153.8,386.2
		c-0.8,0.3-1.5,0.7-2.3,1C152.3,386.9,153,386.6,153.8,386.2z M149.2,388.4c-1,0.5-2,1-3,1.5C147.2,389.4,148.2,388.9,149.2,388.4z
		 M119.3,314.2c0-0.1,0-0.2,0-0.4C119.3,314,119.3,314.1,119.3,314.2z M156.2,440.4c-30,10.4-51.7,20.3-64.1,26.6
		c0.6-48.3,8.6-76.2,8.7-76.5l0.8-2.8l-1.2-2.7l-21.2-47.7c12.9-6.8,26.3-13.1,40.2-19.1c3.1,51.6,14.7,78,14.7,78
		c2.9-1.7,5.9-3.3,8.9-4.8c3.5,16,7.9,32.7,13.3,49.6C156.4,440.8,156.3,440.6,156.2,440.4z M582.2,529.9
		c-40.3,61.1-89.7,105.1-124.1,131.2c-25.7,19.5-47.1,32.3-58.1,38.4c-11-6.1-32.4-18.9-58.1-38.4c-34.4-26.1-83.8-70.1-124.1-131.2
		c-17.5-26.6-32.2-57.6-43.5-92c-5.7-17.3-10.5-35.5-14.5-54.4c91.3-39,222.3-40.3,238.5-40.3c1.1,0,1.6,0,1.6,0s0.6,0,1.6,0
		c16.1,0,147.1,1.2,238.5,40.3c-3.9,18.7-8.7,36.8-14.4,54C614.4,472.1,599.8,503.2,582.2,529.9z M707.9,467
		c-12.4-6.2-34-16.2-64.1-26.6c-0.1,0.2-0.1,0.4-0.2,0.6c5.4-16.9,9.8-33.5,13.3-49.6c3,1.6,6,3.2,8.9,4.8c0,0,11.6-26.4,14.7-78
		c13.9,5.9,27.3,12.3,40.2,19.1l-21.2,47.7l-1.2,2.7l0.8,2.8C699.2,390.8,707.3,418.7,707.9,467z"/>
</g>
</svg>
