<?xml version="1.0" encoding="utf-8"?>
<!-- Generator: Adobe Illustrator 22.1.0, SVG Export Plug-In . SVG Version: 6.00 Build 0)  -->
<svg version="1.1" id="图层_1" xmlns="http://www.w3.org/2000/svg" xmlns:xlink="http://www.w3.org/1999/xlink" x="0px" y="0px"
	 viewBox="0 0 800 800" style="enable-background:new 0 0 800 800;" xml:space="preserve">
<style type="text/css">
	.st0{fill:#BA1924;}
	.st1{fill:#F5ED18;}
	.st2{fill:#7D5614;}
	.st3{fill:#FFFF00;}
</style>
<g>
	<g>
		<g>
			<g>
				<path class="st0" d="M693.2,50h-85.1c-5.5,0-10,4.5-10,10v18.2H574V60c0-5.5-4.5-10-10-10h-80.1c-5.5,0-10,4.5-10,10v18.2h-24.1
					V60c0-5.5-4.5-10-10-10H400h-39.8c-5.5,0-10,4.5-10,10v18.2h-24.1V60c0-5.5-4.5-10-10-10H236c-5.5,0-10,4.5-10,10v18.2H202V60
					c0-5.5-4.5-10-10-10h-85.1c0,0-12.6,66.8-12.6,161.5S114.1,620.7,400,750c285.9-129.3,305.8-443.7,305.8-538.5
					S693.2,50,693.2,50z"/>
				<path class="st1" d="M684.7,60c3.2,20.5,11.1,77.6,11.1,151.5c0,50.3-5.9,150.1-45.1,252.7c-22.3,58.5-52.6,110.2-90,153.9
					C517.1,669.1,463,709.8,400,739c-63-29.2-117.1-69.8-160.8-120.9c-37.4-43.7-67.7-95.4-90-153.9
					c-39.2-102.6-45.1-202.4-45.1-252.7c0-73.8,7.8-131,11.1-151.5h76.7v18.2v10h10H226h10v-10V60h80.1v18.2v10h10h24.1h10v-10V60
					H400h39.8v18.2v10h10h24.1h10v-10V60H564v18.2v10h10H598h10v-10V60H684.7 M693.2,50h-85.1c-5.5,0-10,4.5-10,10v18.2H574V60
					c0-5.5-4.5-10-10-10h-80.1c-5.5,0-10,4.5-10,10v18.2h-24.1V60c0-5.5-4.5-10-10-10H400h-39.8c-5.5,0-10,4.5-10,10v18.2h-24.1V60
					c0-5.5-4.5-10-10-10H236c-5.5,0-10,4.5-10,10v18.2H202V60c0-5.5-4.5-10-10-10h-85.1c0,0-12.6,66.8-12.6,161.5
					S114.1,620.7,400,750c285.9-129.3,305.8-443.7,305.8-538.5S693.2,50,693.2,50L693.2,50z"/>
			</g>
			<path class="st2" d="M657.7,168.7c0,0,16,119-16,232.3C609.6,514.3,548.1,632.6,400,708.1C251.9,632.6,190.4,514.3,158.3,401
				s-16-232.3-16-232.3H400H657.7 M663,162.6h-5.3H400H142.3H137l-0.7,5.2c-0.2,1.2-4.1,30.7-4.1,74.5c0,40.4,3.5,101.1,20.3,160.3
				c18.9,66.8,44.5,122.3,78.2,169.6c20.1,28.2,43.5,53.9,69.6,76.5c28.4,24.7,61.1,46.4,96.9,64.7l2.7,1.4l2.7-1.4
				c35.9-18.3,68.5-40.1,96.9-64.7c26.1-22.6,49.5-48.4,69.6-76.5c33.7-47.3,59.3-102.8,78.2-169.6c16.8-59.2,20.3-119.8,20.3-160.3
				c0-43.8-3.9-73.2-4.1-74.5L663,162.6L663,162.6z"/>
			<g>
				<path class="st1" d="M471.2,604.5c-33.6-11.5-39.6-18.6-70.7-20.1c-30-1.5-64.3,5.1-113.5,43.9c10.7,10.4,22.2,20.4,34.6,30.1
					c7.2-11.1,20.3-27.7,37.8-35.3c27.6-12,62.2-16.5,88.7-7c22.7,8.2,34.9,15.2,59.9,17.1c5.8-5.4,11.3-10.9,16.7-16.5
					C510.8,614.8,490.4,611.1,471.2,604.5z"/>
				<path class="st1" d="M475.2,553.4c-62.7-9.5-116.3-31.6-170-22.1c-37.3,6.6-57.7,16.4-75,29.5c7.8,11.5,16.2,22.7,25.4,33.7
					c17.2-14.1,49.4-35.4,88.7-36.7c59.2-2,97.3,14,121.8,23.1c20.9,7.7,53.2,10.6,82.1,8.9c10.6-13.1,20.2-26.6,29-40.3
					C551.4,554.3,512.3,559,475.2,553.4z"/>
				<path class="st1" d="M657.7,168.7H400H142.3c0,0-16,119,16,232.3c11.8,41.7,27.6,84.1,50.2,124.8c13.6-9.6,48-30.9,87.6-32
					c51.1-1.5,98.8,25.6,161.9,41.1c47.5,11.7,105.3-5.3,141.4-24.4c18.3-35.9,31.7-72.9,42.1-109.4
					C673.8,287.7,657.7,168.7,657.7,168.7z"/>
			</g>
		</g>
		<path class="st0" d="M464.2,227.5l5-11.5c0,0,67.2-8,113.3,34.1s68.7,108.3,27.6,178l-7-10.5c0,0-11,28.6-42.1,44.6l-6.5-6.5
			c0,0-19.1,0.5-43.1,49.6c0,0-8.5,0-19.1-3.5l-0.5,7c0,0-59.2-5.5-90.2-61.7c-4.5-8.5,1-25.6,9.5-32.1c0,0-7-4-26.1,4
			c0,0-16.4-17-0.7-35.8l-8.1-9.6v-16.5l-9.3-7.6c0,0-6.7-24.4,39.8-40.4v-5.3l-6,1c0,0,0.7-9,9-12.4c0,0-2-6.7-8.4-11.4
			c0,0-0.8-8.9,4.2-9.4c0,0-1-4.5,8-2.5c0,0,0-11,0-15.5c0-4.5,7-10.5,16-11C429.6,242.5,426.1,222.5,464.2,227.5z"/>
		<path class="st1" d="M601.6,378.9c0,0-3-19.1-20.1-23.1c0,0,13.5,39.1-27.1,70.7l-2.5-24.1c0,0-11,27.6-18,35.6
			c-7,8-24.1,10.5-30.6,38.6c0,0-12-14,7-38.6C529.4,413.5,539,405,539,405l-0.7-4c0,0,19.4-15,25.1-28.7
			c5.7-13.7,3.7-36.8-2.7-65.5C560.8,306.7,609.8,323.6,601.6,378.9z M551.8,333.1c0,0-3.3,30.1-25.7,51.8
			c-22.4,21.7-28.4,28.7-40.4,38.4c-12,9.7-10,32.4-2.3,48.5c0,0,2-25.4,7.4-31.4s35.8-30.4,42.5-36.1
			C539.7,398.6,561.4,372.6,551.8,333.1z M556.1,282.3c0,0,40.4,12.7,59.5,67.9c0,0,0.7-47.5-25.7-72.5s-63.2-13.7-65.2-7.4
			c0,0,48.5-7.7,65.2,20.1C589.9,290.3,573.8,280,556.1,282.3z M577.8,266.3c0,0-28.9-42.8-69.5-15.2c-4.5,3.5,4.5,6,10.5,3.5
			C524.8,252.1,541.7,243.5,577.8,266.3z M457.7,278.6c42.6-48.6,67.7-42.6,67.7-42.6c-15.5-9-41.6-7.5-41.6-7.5L457.7,278.6z
			 M453.1,240c0,0-11.5-0.5-15,6.5l16,32.1L453.1,240z M429.1,253.5c0,0-10,6.1-5,14.6c3,5,15,3.3,15,3.3L429.1,253.5z M419.1,278.6
			V290c0,0,12.4-8.4,14.7-7.7c2.3,0.7,0.3,3.3-7.7,9.7c-8,6.4-9.4,13-8.4,17l4-3.7c0,0,0.6-5.7,4.3-9s12.7-12.4,12.7-12.4
			s-0.3-5-7-5.3C425.1,278.3,419.1,278.6,419.1,278.6z M478.2,282h8c0,0,8-9.4,12-8.4c4,1,11.4,1.3,20.4,10c4,4.3,2.3,9.7-2.7,10.7
			c-5,1-15.1,3.8-16.4,18.4c0,0,0.7-2.8,3-3.3c2.3-0.5,16.8-6.3,22.8-11c6-4.8,13-10.5,3-17s-26.1-16.8-34.3-12S480.2,277,478.2,282
			z M507.5,332v25.1c3,0.8,13.5,10.5,13.5,10.5c3.3-3.3,3-16.3,2.5-22.1s-11.8-13.8-11.8-13.8c4.3-1.5,21.1,3.5,21.1,3.5
			c-0.5-10.3-9-20.6-9-20.6h-22.6L507.5,332z M415.7,440.4c18,30.1,21.1,28.4,21.1,28.4c-19.4-30.4-17.4-42.1-17.4-42.1
			S411.4,433.7,415.7,440.4z M388.3,392.9c-3.3,4.9-1.3,9.6,1.3,9.6c2.7,0,5.3,0,14.7,0c9.4,0,12-1.5,8.4-4.8
			c-3.7-3.3-17.4-14.4-17.4-14.4S391.6,387.9,388.3,392.9z M460.7,435.1c-7.5,12.5,1.5,41.6,1.5,41.6c-16.8-5.5-23.6-19.3-24.6-35.8
			c-1-16.5,27.6-25.1,34.6-28.8c7-3.8,13.8-11,18.6-17c4.8-6,5.5-2.5,6-27.3c0.5-24.8-18.6-45.4-18.6-45.4s5.5,16.5,7,34.1
			c1.5,17.5-1.5,27.1-8.2,32.6c-6.7,5.5-24.9,19.6-24.9,19.6c4-20.1,24.1-23.6,28.1-41.6s-2-20.1-2-20.1
			c-9,21.7-17.5,20.1-17.5,20.1c1.5-2,3-21.6,3-21.6l-10.5-1c0,4-6,7-14,9c-8,2-20.4,2.5-20.4,2.5s11.7,7,10.7,15.4
			c-1,8.4-8.7,10.7-16.4,11.4c-7.7,0.7-18.4-1.7-24.1-10.7c-5.7-9,4.3-19.7,7.4-19.4c3,0.3,1.7,3.3,4.1,3c2.4-0.3,5.9-9.7,2.9-13
			c-3-3.3-6.7,2-11.4,3.3c-4.7,1.3-17.4,0-17.4,0c9.7-18.4,38.8-30.8,44.1-33.1c3-5,4.3-5,14-14.4c9.7-9.4,13.7-8.4,16.7-8.4
			c3,0,11.7,0,11.7,0c2.3,7.4,9.4,9.7,9.4,9.7c-5.3,0.7-4,4.3-1,6c6.7,5,15.7-2.3,15.7-2.3s-0.7,15.7,2,21.7c2.7,6,11.3,24,15.8,30
			c4.5,6,6,5,7,12s-5.3,18.8-15.3,28.8C484.7,406,468.2,422.5,460.7,435.1z M462.7,322.1c-0.3-5-6.7-4.5-8.5-3.3c-3.7,3.5-8,4-8,4
			c-4,3.7,8.3,3.7,8.3,3.7c-0.7,1.3-1.9,4.7-1.9,4.7C459.8,330.8,463,327.1,462.7,322.1z M471.2,314.1c-10.7-1-22.4-2-27.7-7.9
			c-5.3-5.9,8.4-9.1,8.4-9.1c-16-2.7-15.2,8-15.2,8c-9.2,3-3,12.5-3,12.5s-6.5-0.5-9.3,1.5c-2.8,2-22.3,16.8-22.3,16.8l13.3,1.3
			c1.8-2.5,10.8-10.8,10.8-10.8c4.5-0.5,7.3-1.3,7.3-1.3c-0.3-3.8,4.3-6.5,4.3-6.5s2.2,2.9,7.5,3.3c5.3,0.3,7.4-5,7.4-5L471.2,314.1
			z"/>
	</g>
	<path class="st0" d="M351.7,376.4c-0.1-0.5-2.3-11.3-36.8-17.4c0-0.1,0-0.2,0-0.3c2.7-0.7,12.7-3.7,13.1-10.3v-9.7l-0.1-0.4
		c-0.2-0.4-4-8.8-31.6-12.2v-3.3l-0.1-0.4c-0.2-0.3-3.9-7.6-16-10.9v-7l-2.2-1.9v-8.2l-3.8-2.9v-2.3h-0.5v-4.3l-5.1-1l-2.5,2.1v8.7
		l-2.9,2.2l-1.2,0.2l-2.7,2.1v7.6l-1.5,3c-4.4,0.1-29.9,1-34.6,12.3l-0.1,0.2l0,7.3c0,0.1-0.1,0.2-0.1,0.2l0.1,0l0,2.3
		c0.1,0.2,1.3,4.9,7.1,8.1c-6.4,0.7-19.3,2.8-27.2,8.1c-0.2,0.1-5,2.2-5.3,8.4c-1.8,0.9-7,4-7.2,9.8c-1.6,1-6.6,4.4-6.8,8.7
		l-0.3,7.2c0,0.1,0,0.1-0.1,0.2l0,0l-0.1,1.7c0,0.3,0.2,7.9,19.5,13.2c-0.9,0.8-1.9,1.9-2.2,3v8.7c0,0.6,0.4,3.6,8.3,5.9l0,2
		c0.1,0.9,1.6,5.2,18.3,7.6c-2.9,0.7-5.3,1.5-5.7,2.6l-0.1,9.4l0.3,0.3c0.3,0.3,3,2.8,17.4,3.1v2.9l-0.6,0.1v9.8l0.7,1.8h3v7.7h61.3
		v-8.1h-1.1v-2h-7.6v-7h-3.6v-7.4h-3v-2.1h1.6v-1.5c4-0.2,17.8-1.1,20.5-5.1l0.2-0.2v-9.3l-0.4-0.3c-0.2-0.1-4.1-2.8-13.6-4.3
		c10.8-0.9,35.5-3.7,36.9-11.7v-4.4c3.7-0.8,18.5-4.8,18.3-13.6L351.7,376.4z M311.1,358.3v-1.9l-7.8-2.8V350l-0.5-0.3
		c-3.4-1.8-11.1-4-18.3-5.7c12.8,1.9,27.2,5.8,28.5,12.8l0.1,0.4c0,0.2,0,0.4,0,0.6c-0.1,0.3-0.1,0.6-0.1,0.8
		C312.5,358.5,311.9,358.4,311.1,358.3z M267.8,340.4c-3.3-0.4-7.4-0.6-11.6-0.8c2.8-0.9,6.9-2,11.6-2.2V340.4z M315.1,356.6
		c0.3-5.6-0.3-10.6-0.4-11c-1.4-3.5-11-7-18.6-9.2c10.7,1,27.1,3.8,30,12C325.8,353.1,318.2,355.8,315.1,356.6z M326.1,339l0,5.7
		c-8.5-10.6-38-10.7-39.3-10.7l-0.2,1.9c9.5,2.2,25,6.9,26.3,10.2c0,0,0.4,3,0.4,6.9c-7.7-10-37.7-12.1-43.6-12.4v-5.1l-1,0
		c-9.7,0.1-17.2,3.8-17.5,4l0,0.1c-2.4,0-4.7,0-6.8,0v-0.9c0.5-0.7,2-2.4,5.6-4.3l0.9-0.4c2.4-1.1,5.5-2.2,9.7-3.2
		c0.2,0,23.7-3.5,34.7-2.7C320.3,330.9,325.5,337.9,326.1,339z M238.9,330c0.9,1.1,3.2,2.9,8.1,3.9c-2.2,1.4-3.4,2.7-4,3.5
		c-1.7-0.7-5.2-2.5-5.4-5.4C237.6,331.9,237.6,331.1,238.9,330z M240.5,328.9c1.2-0.7,3-1.4,5.4-2v4.8
		C242.7,330.8,241.2,329.6,240.5,328.9z M261.4,300.3l1.5-1.2l0.9-0.1l4.3-3.1v-8.7l1.1-0.9l2.6,0.5v4.7h0.5v1.3l3.8,2.9v8.1
		l2.2,1.9v5.6c-4-0.6-14.4-0.9-18.3-1.1l1.2-2.4L261.4,300.3z M225.2,322.8c4.8-10.7,33.1-10.9,33.4-10.9l0.1,0l0,0
		c6.4,0.1,16.8,0.6,19.7,1.1l0.7,0.2c10.8,2.7,14.8,8.8,15.4,9.9v2.9c-0.5,0-1.1,0-1.7-0.1c-9.8-6.8-26.7-7.7-27.4-7.7
		c-15.3-1.2-27,2.1-27.5,2.2c-7.1,1.8-10.7,4.3-12.7,6.4V322.8z M225.2,332v-1.9c0.5-1.1,3.1-5.3,13.2-7.8c0.1,0,11.9-3.3,26.9-2.2
		c0.2,0,14.3,0.8,23.9,5.8c-11.5,0.3-27.1,2.6-28.7,2.8c-3.7-0.1-10,0.8-12.6,1.2v-4.5l0-1.1l-1.4,0.3c-11.4,2.7-10.8,7-10.7,7.4
		c0.2,4.2,4.8,6.4,6.8,7.1v0.4c-4.7,0.1-8.1,0.2-8.5,0.2C226.7,337.1,225.2,332,225.2,332z M204.1,350.2c10.2-6.9,29.9-8.3,30.1-8.3
		l0-0.2c2.6-0.1,22.7-0.7,33.5,0.7v0.1l0.9,0c1,0.2,25.4,5.1,32.8,8.7v1.9c-8.3-1.9-27.3-4.4-28.2-4.5c-21.4-2.2-44.6,0.3-44.8,0.3
		c-16,2.2-24.9,5.5-28.5,7C200.6,351.8,203.9,350.3,204.1,350.2z M199.1,358.4L199.1,358.4c0,0,0.1-0.1,0.3-0.1l0.4-0.2v0
		c2.5-1.1,11.5-4.8,28.8-7.2c0.2,0,23.1-2.5,44.3-0.3c0.2,0,21.7,2.8,29.1,4.7l7.1,2.5v0.2c-5.4-0.9-15.6-2.2-32.2-3.3
		c-0.3,0-32.4-2.6-67.1,5.1c-0.4,0.1-9.2,1.9-17.1,5.6C193.8,361,198.5,358.7,199.1,358.4z M185.8,375.4c0.2-4,6.3-7.4,6.3-7.4
		l0.5-0.3l0-0.1c7.9-3.9,17.6-5.9,17.7-5.9c34.5-7.7,66.2-5.1,66.6-5.1c21.8,1.4,32.7,3.3,35.8,3.9l0,0l0.4,0.1
		c0.4,0.1,0.6,0.1,0.6,0.1l0,0c33.6,5.8,36.1,15.9,36.1,15.9v5.7c-7.5-8.9-34.9-13.1-36.2-13.3c-25.2-3.7-56.4-3.1-56.7-3.1
		c-33.2-0.5-55.2,5.7-55.3,5.8c-9.2,2.5-13.7,5.6-16,7.9L185.8,375.4z M202.6,409.2l0-8.5c0.1-0.6,1.7-1.9,3-2.8l0.1-0.1
		c1-0.6,9.2-5,40.1-6.4l0-0.8c2.1-0.1,30.4-0.8,50.4,1.3v8.8c0,0,0,0,0,0.1c0,0,0,0,0,0.1v0.8c-2.6,0.9-9.6,1-12.2,1.1l-1,0v3.5l1,0
		c2.8,0,5.3,1,5.3,1c1.6,0.7,1.6,1.9,1.6,2.1v4v0.7l-4.9-0.8c-22.8-4.9-49.5-3.2-49.7-3.2c-15.6-0.2-22.5,2.8-25.3,4.7v-1.2
		l-0.7-0.2C203.1,411.6,202.6,409.2,202.6,409.2z M292.7,409.5c0-0.1,0.2-2.5-2.7-3.9c0,0-0.1,0-0.1,0c7-0.8,17.9-2.3,21.4-5.1
		c1.8,1,3.1,2.1,3.1,3.4c-1,1-6.4,5.3-21.7,6.1L292.7,409.5z M298.1,401.8c1.4-0.1,3.9-0.4,6.5-0.7c-1.9,0.5-4.2,0.9-6.5,1.3V401.8z
		 M298.1,399.9v-3.1c3,0.4,6.5,1.1,9.5,2.1C303.9,399.3,299.9,399.7,298.1,399.9z M246.5,388.7v-9.4c9.3-0.4,20.6-0.5,32.1,0.7
		l-0.1,1c0.3,0,29.7,2.5,42.8,7l3,1.1c6.7,2.2,7.2,6.6,7.2,8.2l0,2.6c-7.1-7.2-30.2-9.2-31.2-9.3C281.5,388,252.2,388.6,246.5,388.7
		z M244.6,381.6c-2.3,0.2-9.3,0.8-11.9,1.3l-4.6-2.1c3.4-0.4,9.2-1,16.4-1.4V381.6z M289.7,378.6l2.7,1.2v0.7
		c-1.1-0.1-2.2-0.3-3.2-0.4C289.4,379.7,289.6,379.2,289.7,378.6z M327.3,388.2c3.3-1.3,6-3.2,7-4c0.7,0.4,1,0.7,1,0.7
		c0.7,1,1,2,0.7,2.9c-0.5,2-3,3.6-4.3,4.2C330.9,390.7,329.6,389.3,327.3,388.2z M324.5,387.1c-6.5-2.9-19.6-5-30.1-6.4v-2.2
		l-4.2-1.9c0-0.2,0.1-0.3,0.1-0.5c2.4-0.5,6.8-2.2,8-2.7c18.6,1.8,29.6,6.9,34.3,9.7C331,384.2,327.9,386.2,324.5,387.1z
		 M290.5,374.1c0-0.5,0.1-1,0.1-1.5c1.4,0.1,2.6,0.2,3.4,0.3C292.7,373.5,291.5,373.9,290.5,374.1z M287.2,379.9
		c-3.1-0.3-5.6-0.6-7-0.7v-7.3c3.2,0.2,6.1,0.4,8.5,0.6C288.4,375.9,287.8,379,287.2,379.9z M278.3,378c-24-2.3-47.3,0.4-52.6,1.1
		v-5c17.7-3.3,38.3-3.1,52.6-2.3V378z M217,376.1c1.6,0.9,5.2,1.9,6.7,2.3v3l0.8-0.1l7.9,3.7l0.3-0.1c1.9-0.4,9.1-1.1,11.8-1.3v6
		c-1.6,0.1-4.7,0-4.7,0c-12.9-0.3-32.7-5.7-32.9-5.7l-0.8,1.7c3.1,2.4,12,4.6,17.8,5.8c-5.8,0.8-10,1.7-12.9,2.5
		c-10.8-3.4-11.9-7.2-11.9-7.2C198.8,380.7,211.9,377,217,376.1z M211.1,417.2c1.3-1.2,7-5.3,25.2-5.1c0.2,0,14.9-1,31.7,0.6
		c-6.9-0.2-13.8-0.2-18.9-0.1c-4.3,0-7.1,0.1-7.1,0.1c-17.3,0-18.8,4.3-18.9,5.3c0.1,2.7,5.4,4.4,11.1,5.5c-0.1,0-0.2,0-0.4,0
		C215.5,421.8,211.8,418.1,211.1,417.2z M234.2,425.4L234.2,425.4c1.9-0.2,8.7-0.6,12.3-0.3l0.1-1.9c-10.1-0.8-20.9-3.1-21.5-5.2
		c0.3-0.6,2.8-3.5,17-3.5c0,0,2.4,0,6.2-0.1v9.6l1,0c13.9-0.5,33.1,0.2,33.3,0.3c2,0,3.8,0.1,5.5,0.3l-0.2,9.3l-1.1-0.1
		c-0.2,0-18.9-2.4-43-1.7c0,0-1.4,0-3.6,0c-10.3,0.1-14.7,1-16.7,1.9V428C224.5,427.2,229.7,426.1,234.2,425.4z M286.3,442.2
		c-16.5-1.8-39.9,0.1-45.1,0.6v-4.6v-4.2c1.6,0,2.6,0,2.7,0c20.7-0.6,37.4,1.1,41.7,1.6v1h0.8L286.3,442.2z M290,428.5
		c0.5,0.1,1,0.3,1.3,0.5c-0.2,0.2-0.6,0.4-1.3,0.5V428.5z M290,431.3c1.1-0.1,2.1-0.4,2.6-1c0.5-0.5,0.7-1.1,0.7-1.6
		c-0.2-1.4-2-2-3.3-2.3v-1.9c10.3,0.9,16,3,18,4c-2.7,2.2-11.8,3.4-18,3.7V431.3z M223.8,435.9c1.4-0.9,6-1.8,15.4-2v4.2
		C229,437.8,225,436.5,223.8,435.9z M240.6,452.7l0-7.9c2.8-0.3,28.3-2.5,45.7-0.6v7.3c-8.1-0.4-21.6-0.9-35.9-0.3
		c-0.9,0-5.8-0.2-7.4,1.3c-0.1,0.1-0.1,0.2-0.2,0.3H240.6z M300.6,454.2v2h1.1v4.2h-57.5v-6.6c0.4-0.6,3.2-1,6.1-0.8
		c20.2-0.9,38.8,0.4,42.6,0.7v0.4H300.6z M289.4,439.8v7.4h3.6v4.6c-0.9-0.1-2.6-0.2-4.8-0.3v-11.7H289.4z M308.5,420.6v6.1
		c-3-1.3-11-4.1-25.9-4.4c-0.2,0-18.5-0.7-32.4-0.3v-7.6c11.7,0,31.2,0.1,40.5,1.7v0.1l0.9,0.1C301.9,417.3,307.1,419.8,308.5,420.6
		z M292.7,413.3l0-1.4c18.3-0.9,23.2-6.8,23.4-7l0.2-0.2l0-0.3c0.7-6.6-14.1-9-18.3-9.5v-2.6c0.6,0.1,1.3,0.1,1.9,0.2
		c7.9,0.7,29,3.9,31.4,10.7C330.1,409,307.5,412.4,292.7,413.3z M333.4,396.9c0-0.8-0.2-1.9-0.7-3c1.2-0.6,4.5-2.5,5.3-5.5
		c0.4-1.5,0.1-3.1-1.2-4.7c-0.5-0.4-12.3-10.1-40.8-12.4c-0.5-0.1-47.9-5.6-79.4,2.9c-0.8,0.1-19.9,3.7-19.5,12.7
		c0.1,0.5,0.9,4.4,10.7,8c-1.5,0.5-2.4,1-2.9,1.3c-19-4.9-19.5-11.6-19.5-11.6l0.1-1.5c0.5-1.1,3.5-5.9,16.7-9.4
		c0.2-0.1,21.9-6.2,54.8-5.7c0.3,0,31.4-0.6,56.4,3c9.6,1.4,34.6,6.9,36.3,15.2C348.8,392.6,337.1,395.9,333.4,396.9z"/>
	<g>
		<path class="st0" d="M160.7,216.2v-4.6h21.7v-2.4h-18.6v-4.4h18.6v-2.6H162v-4.4h20.4v-3.9h7.5v3.9h20.4v4.4h-20.4v2.6h18.6v4.4
			h-18.6v2.4h21.7v4.6H160.7z M173,237v7.9h-7v-26.5h40.1v20.4c0,3.6-2,5.6-6.1,5.9c-1.9,0.1-5.3,0.2-10.1,0.2
			c0-0.1-0.1-0.4-0.2-0.9c-0.3-1.2-0.7-2.7-1.3-4.6c0.4,0,1.2,0.1,2.2,0.2c2,0.1,4.1,0.2,6.1,0.2c1.6,0,2.4-0.7,2.4-2.2V237H173z
			 M199,225.8v-2.6H173v2.6H199z M173,230.2v2.4H199v-2.4H173z"/>
		<path class="st0" d="M240.6,232v-7.5h6.6v7.5h6.8V226h6.4v11.8h-32.9V226h6.4v5.9H240.6z M240.4,210l2.8-5c2.9,1,6.2,2.4,9.9,4.2
			l-0.7,1.1c2,0.1,4,0.2,5.9,0.2c2.2,0,3.4-1.2,3.5-3.5c0-1,0.1-2,0.2-2.8h-24.5v13.6h36.6c0,1-0.1,2.7-0.2,5
			c-0.3,4.7-0.5,8.4-0.7,11.2c-0.1,7-3.7,10.5-10.7,10.5c-1.5,0-5,0-10.7,0c-0.3-1.3-0.6-3-0.9-5c0-0.3,0-0.5,0-0.7
			c3.1,0.3,6.6,0.4,10.7,0.4c2.6,0,4-1.8,4.2-5.3c0.1-2.3,0.4-5.8,0.7-10.5h-36.2v-24.8h9.6c0.7-1.8,1.4-3.3,2-4.6l7.5,1.1
			c-0.3,0.3-0.7,0.9-1.1,1.8c-0.6,0.7-1,1.3-1.3,1.8h22.4c-0.1,3.9-0.4,7.2-0.7,9.6c-0.4,5.3-3.4,7.9-9,7.9c-2.2,0.1-4.3,0.1-6.4,0
			c-0.1-1.2-0.4-2.8-0.9-4.8c-0.1-0.4-0.2-0.7-0.2-0.9l-1.8,4.2c-1.8-0.9-4.3-2-7.7-3.5C241.8,210.7,241,210.3,240.4,210z"/>
		<path class="st0" d="M296.6,209.8c1.2,0,2.6-0.1,4.2-0.2c1.3-1.9,2.5-3.9,3.5-6.1l6.6,3.5c-2.9,5.1-6.8,10.7-11.6,16.9
			c3.1-0.3,6.1-0.7,9-1.1c-0.4,2.9-0.7,5.3-0.7,7c-8.3,0.6-13.6,1.3-15.8,2.2l-2.8-7c1.8-0.6,4.4-3.6,7.9-9c-2.9,0.1-5,0.4-6.4,0.9
			l-2.2-6.4c1.9-1.5,5-7,9.4-16.7l7.2,2.8C301.6,202.4,298.8,206.8,296.6,209.8z M289.8,242l-1.3-6.8c6.6-0.9,13-1.8,19.3-2.6
			c-0.1,1.2-0.2,2.3-0.2,3.5h12.5V205h-11v-7h29.1v7h-10.7v31.1h12.3v6.6h-32.7v-3.3c-1,0.1-2.6,0.4-4.6,0.7
			C296.8,240.8,292.6,241.4,289.8,242z"/>
		<path class="st0" d="M364.7,194.5l4.8,3.1c-1.9,3.1-3.9,6.1-6.1,9c2.3,8.2,3.1,18.6,2.2,31.3c-0.6,4.4-2.7,6.6-6.4,6.6
			c-1.8,0.1-3.3,0.2-4.6,0.2c-0.3-2.2-0.7-4.3-1.1-6.4c0.9,0.3,2,0.4,3.3,0.4c1.8,0,2.8-0.8,3.1-2.4c0.3-3.9,0.3-4.3,0-1.1
			c0.3-3.2,0.4-6.5,0.4-9.9c-1.5,2.6-3.2,5-5.3,7.2c-0.6-2-1.5-4.2-2.6-6.4c3.1-3.1,5.5-6.4,7.2-9.9c-0.1-1.6-0.4-3.1-0.7-4.4
			c-1.3,1.3-2.6,2.6-3.9,3.7c-0.6-1.8-1.5-3.7-2.6-5.9c0.3-0.3,0.8-0.8,1.5-1.5c1.3-1.2,2.3-2.2,3.1-3.1c-1.3-3.1-2.9-5.8-4.8-8.3
			l4.2-2.8c2,2.2,3.6,4.4,4.6,6.6C362.3,198.6,363.5,196.5,364.7,194.5z M374.8,219v-24.8h5.5v25.2c0.3,11.1-2.2,19.8-7.5,26.1
			c-1.8-1.3-3.5-2.6-5.3-3.9C372.8,236,375.2,228.5,374.8,219z M367.5,230.2v-28.9h5v28.9H367.5z M387.2,238.1h-4.8v-30.9h7v-5.3
			h-8.1v-5.7h22.8v5.7h-8.8v5.3h7.5v25.4c0,3.1-1.2,4.7-3.5,4.8c-0.3,0.1-0.8,0.2-1.5,0.2c-0.6,0.1-1,0.2-1.3,0.2
			c-0.1-0.4-0.3-0.9-0.4-1.5c-0.3-0.9-0.5-1.5-0.7-2v10.5h-5.9v-32h-2.2V238.1z M396.4,232c1,0,1.5-0.7,1.5-2.2v-16.9h-2.6V232
			C395.8,232,396.2,232,396.4,232z"/>
	</g>
	<g>
		<g>
			<g>
				<path class="st2" d="M229.8,130.3c0,5.3,0,10.6,0,15.9c0,1.1-0.2,1.3-1.3,1.3c-3.2,0-6.5,0-9.7,0c-0.7,0-1.2-0.3-1.4-0.9
					c-0.8-2.1-1.7-4.2-2.5-6.3c-1.4-3.6-2.9-7.1-4.3-10.7c-1.4-3.6-2.9-7.1-4.3-10.7c-0.2-0.5-1.3-0.8-1.6-0.5
					c-0.1,0.1-0.1,0.3-0.1,0.5c0.1,4,0.1,8.1,0.2,12.1c0.1,5.2,0.1,10.3,0.2,15.5c0,0.8-0.2,1-1,1c-1.5,0-3.1,0-4.6,0
					c-0.7,0-1-0.3-1-1c0-0.2,0-0.3,0-0.5c0-10.5,0-21,0-31.4c0-0.2,0-0.5,0-0.7c0.1-0.6,0.5-0.7,1-0.7c2.8,0,5.6,0,8.4,0
					c0.7,0,1.5,0,2.2,0c0.6,0,1,0.3,1.2,0.8c1.6,4.2,3.3,8.3,4.9,12.5c1.7,4.3,3.4,8.5,5,12.8c0.5,1.2,1,2.5,1.5,3.7
					c0.1,0.3,0.2,0.6,0.6,0.5c0.1-0.1,0.3-0.4,0.3-0.6c-0.1-8.4-0.2-16.9-0.2-25.3c0-1.1,0-2.2,0-3.4c0-0.7,0.2-0.9,0.9-0.9
					c1.5,0,3,0,4.5,0c0.9,0,1.1,0.3,1.1,1.2C229.8,119.6,229.8,124.9,229.8,130.3z"/>
				<path class="st2" d="M162.5,148c0.2,1.2,0.4,2.3,0.7,3.3c0,0.1,0.4,0.3,0.6,0.3c2.3,0,4.6,0,6.9,0c1.1,0,1.3,0.1,1.3,1.3
					c0,1,0,1.9,0,2.9c0,0.6-0.3,0.9-0.8,0.9c-2.6,0-5.2,0-7.8-0.1c-2-0.1-3.4-1.3-4.3-3c-0.9-1.5-1.4-3.1-1.7-4.8
					c-0.1-0.6-0.4-0.9-1-1c-1.5-0.3-3.1-0.6-4.5-1.1c-3.4-1.2-5.6-3.7-6.8-7.1c-1.1-3.1-1.2-6.3-1.2-9.5c0-2.3,0.1-4.5,0.6-6.7
					c0.7-3.3,2-6.2,4.9-8.2c2-1.4,4.2-2.1,6.6-2.3c2.1-0.2,4.2-0.3,6.3-0.2c2.6,0.1,5.1,0.6,7.4,1.8c2.7,1.4,4.4,3.6,5.4,6.4
					c1.1,3.2,1.3,6.5,1.3,9.9c0,2.2-0.1,4.5-0.6,6.7c-0.7,3.4-2.1,6.3-5,8.3c-1.8,1.2-3.8,1.8-5.9,2.1
					C164,147.8,163.3,147.9,162.5,148z M169.4,130.3c-0.1,0-0.1,0-0.2,0c0-1.3,0.1-2.6,0-3.9c-0.1-1.7-0.3-3.4-1-4.9
					c-1.1-2.5-3.3-3.6-5.8-3.9c-2-0.2-4-0.2-6,0.2c-1.3,0.3-2.4,0.8-3.4,1.8c-1.3,1.3-1.9,3-2.1,4.8c-0.5,4.3-0.6,8.6,0.2,12.9
					c0.7,3.8,2.9,5.3,6.2,5.8c2.1,0.3,4.1,0.3,6.2-0.2c1.3-0.3,2.5-0.8,3.4-1.8c1.3-1.4,1.9-3.1,2.1-5
					C169.2,134.1,169.3,132.2,169.4,130.3z"/>
				<path class="st2" d="M274.4,130.2c0-5.3,0-10.5,0-15.8c0-0.3,0-0.6,0.1-0.8c0.2-0.3,0.4-0.4,0.7-0.6c0.1-0.1,0.4,0,0.6,0
					c5,0,10,0,14.9,0.1c2.4,0,4.9,0.4,7.1,1.4c2.9,1.2,4.7,3.4,5.7,6.3c1.1,3.1,1.3,6.4,1.3,9.7c0,2.2-0.1,4.5-0.6,6.7
					c-0.6,2.7-1.6,5.3-3.8,7.2c-1.4,1.2-3,1.9-4.7,2.4c-2.5,0.6-5.1,0.7-7.7,0.7c-4.1,0-8.3,0-12.4,0c-1.1,0-1.3-0.2-1.3-1.3
					C274.4,140.9,274.4,135.6,274.4,130.2z M281.1,130.2c0,3.9,0,7.8,0,11.6c0,0.7,0,0.7,0.8,0.7c2.1,0,4.2,0,6.3,0
					c1.3,0,2.6-0.1,3.9-0.3c1.8-0.3,3.3-1.1,4.2-2.7c0.7-1.1,1.1-2.3,1.2-3.5c0.6-4.2,0.7-8.4-0.2-12.6c-0.3-1.3-0.8-2.5-1.8-3.5
					c-1.4-1.4-3.1-1.8-5-1.9c-2.9-0.1-5.8-0.1-8.7-0.1c-0.7,0-0.7,0-0.7,0.7C281.1,122.5,281.1,126.4,281.1,130.2z"/>
				<path class="st2" d="M376.6,130.3c0,0.9,0,1.9,0,2.8c-0.1,2.9-0.6,5.7-1.9,8.3c-1.2,2.3-3,4-5.3,5c-2,0.9-4.1,1.3-6.3,1.5
					c-2.5,0.2-5,0.2-7.4-0.2c-3.2-0.5-6-1.6-8.2-4.2c-1.3-1.6-2.1-3.4-2.6-5.4c-0.9-3.8-0.9-7.6-0.7-11.4c0.2-2.6,0.7-5.2,1.9-7.6
					c1.4-2.8,3.7-4.6,6.6-5.5c3.8-1.2,7.7-1.2,11.6-0.8c1.8,0.2,3.6,0.7,5.2,1.5c2.4,1.1,4.1,2.9,5.3,5.3c0.8,1.8,1.3,3.7,1.5,5.6
					c0.2,1.7,0.2,3.4,0.3,5.1C376.7,130.3,376.6,130.3,376.6,130.3z M369.9,130.3c-0.1,0-0.1,0-0.2,0c0-1.3,0.1-2.6,0-3.9
					c-0.1-1.7-0.3-3.4-1-4.9c-1.1-2.5-3.3-3.6-5.8-3.9c-2-0.2-4-0.2-6,0.2c-1.8,0.4-3.3,1.3-4.3,3c-0.8,1.4-1.1,2.9-1.2,4.5
					c-0.3,4-0.5,8,0.3,12c0.8,3.8,2.9,5.3,6.2,5.8c2.1,0.3,4.3,0.3,6.4-0.2c1.2-0.3,2.3-0.8,3.2-1.8c1.3-1.4,1.9-3.1,2.1-5
					C369.7,134.1,369.7,132.2,369.9,130.3z"/>
				<path class="st2" d="M266.4,135.8c0,2.4,0,4.8,0,7.2c0,0.7-0.1,1.3-0.3,2c-0.4,1.2-1.5,1.7-2.6,2c-4.4,1.1-8.9,1.3-13.4,0.9
					c-2.2-0.2-4.4-0.6-6.4-1.6c-2.6-1.2-4.4-3.2-5.4-5.8c-1-2.6-1.4-5.2-1.4-8c0-2.4,0-4.8,0.3-7.3c0.3-3,1.2-5.8,3.1-8.2
					c1.2-1.5,2.8-2.5,4.6-3.2c2.9-1.1,5.9-1.3,8.9-1.3c2.7,0,5.5,0.3,8.2,0.8c1.3,0.3,2.6,0.6,3.8,1c0.8,0.2,1,0.6,0.8,1.4
					c-0.2,0.9-0.4,1.8-0.6,2.7c-0.1,0.6-0.5,0.8-1.1,0.7c-1.5-0.3-2.9-0.7-4.4-1c-3.5-0.6-7-0.9-10.5-0.1c-2.9,0.7-4.7,2.5-5.5,5.4
					c-1,3.8-0.9,7.6-0.5,11.4c0.2,1.6,0.5,3.1,1.3,4.5c1,1.9,2.7,3,4.8,3.4c3.2,0.7,6.3,0.5,9.5,0c0.3-0.1,0.5-0.2,0.5-0.5
					c0-3,0-6,0-9c0-0.3-0.1-0.5-0.5-0.5c-1.5-0.2-3-0.4-4.5-0.5c-1.1-0.1-1.2-0.2-1.2-1.3c0-0.9,0-1.7,0-2.6c0-0.7,0.2-0.9,0.9-0.9
					c0.4,0,0.7,0,1.1,0c3.2,0,6.3,0,9.5,0c1.1,0,1.3,0.2,1.3,1.3C266.4,131.1,266.4,133.4,266.4,135.8
					C266.4,135.8,266.4,135.8,266.4,135.8z"/>
				<path class="st2" d="M337.5,147.4c-0.8,0-1.7,0-2.5,0c-0.5,0-0.9-0.2-1-0.7c-1-3.1-2-6.3-3-9.4c-0.2-0.7-0.5-1.3-0.6-2
					c-0.1-0.6-0.4-0.7-1-0.7c-2.1,0-4.2,0-6.4,0c-1.5,0-3,0-4.5,0c-0.5,0-0.7,0.2-0.9,0.6c-0.6,2-1.2,3.9-1.8,5.9
					c-0.6,1.9-1.2,3.8-1.8,5.6c-0.2,0.5-0.5,0.7-1,0.7c-1.7,0-3.3,0-5,0c-0.8,0-1-0.3-0.8-1.1c0.3-0.8,0.5-1.6,0.8-2.4
					c0.9-2.6,1.7-5.1,2.6-7.7c0.9-2.8,1.9-5.6,2.8-8.3c0.9-2.5,1.7-5,2.5-7.6c0.7-2.2,1.5-4.4,2.2-6.5c0.2-0.5,0.5-0.7,1-0.7
					c3.2,0,6.4,0,9.6,0c0.6,0,0.9,0.3,1.1,0.9c1.1,3.3,2.2,6.6,3.3,9.8c1,3.1,2.1,6.1,3.1,9.2c1.1,3.3,2.2,6.6,3.3,9.9
					c0.4,1.1,0.7,2.2,1.1,3.3c0.3,0.9,0.1,1.2-0.9,1.2C339,147.4,338.2,147.4,337.5,147.4z M323.8,129.7c1.4,0,2.8,0,4.1,0
					c0.6,0,0.7-0.1,0.5-0.7c-0.2-0.6-0.4-1.2-0.6-1.8c-0.9-2.7-1.7-5.4-2.6-8.1c-0.5-1.5-0.1-1.3-1.8-1.4c-0.5,0-0.7,0.2-0.9,0.6
					c-1.1,3.6-2.2,7.1-3.3,10.7c-0.2,0.6-0.2,0.6,0.4,0.6C321.2,129.7,322.5,129.7,323.8,129.7z"/>
				<path class="st2" d="M189.8,130c0,5.4,0,10.8,0,16.2c0,1.1-0.2,1.3-1.3,1.3c-1.5,0-2.9,0-4.4,0c-0.7,0-1-0.3-1-1
					c0-0.1,0-0.3,0-0.4c0-10.5,0-21.1,0-31.6c0-1.1,0.1-1.2,1.2-1.4c1.5-0.2,2.9-0.4,4.4-0.5c0.9-0.1,1.1,0.1,1.1,1
					C189.8,119.1,189.8,124.5,189.8,130z"/>
			</g>
			<g>
				<path class="st2" d="M463.8,130.4c0-5.5,0-11,0-16.5c0-0.2,0-0.5,0.2-0.7c0.1-0.1,0.3-0.2,0.4-0.3c0.2-0.1,0.4,0,0.5,0
					c4.5,0,9,0,13.5,0c1.5,0,3,0.1,4.6,0.2c1.3,0.1,2.5,0.4,3.7,0.8c1.2,0.4,2.4,1,3.4,1.8c1.3,1,2.2,2.2,2.9,3.7
					c0.6,1.2,1,2.5,1.3,3.8c0.2,1.2,0.4,2.5,0.5,3.7c0.2,1.7,0.2,3.5,0.1,5.2c0,1.4-0.1,2.8-0.4,4.1c-0.2,0.8-0.3,1.7-0.5,2.5
					c-0.7,2.5-1.8,4.7-3.9,6.4c-1.1,0.9-2.3,1.5-3.6,1.9c-1.6,0.5-3.2,0.8-4.8,0.9c-1.5,0.1-2.9,0.1-4.4,0.1c-4.2,0-8.4,0-12.6,0
					c-0.3,0-0.6,0-0.8-0.4c-0.1-0.1-0.1-0.3-0.1-0.4c0-0.1,0-0.3,0-0.4C463.8,141.3,463.8,135.9,463.8,130.4z M470.6,130.4
					c0,4,0,8.1,0,12.1c0,0.1,0,0.2,0,0.3c0,0.2,0.1,0.3,0.2,0.3c0.1,0,0.2,0,0.3,0c2.1,0,4.3,0,6.4,0c1.1,0,2.3-0.1,3.4-0.2
					c1-0.1,1.9-0.3,2.8-0.8c0.9-0.4,1.6-1,2.2-1.8c0.5-0.8,0.9-1.6,1.2-2.6c0.2-0.9,0.4-1.7,0.5-2.6c0.1-0.9,0.2-1.8,0.2-2.8
					c0.1-2.7,0.1-5.4-0.4-8.1c-0.2-1-0.5-1.9-0.9-2.8c-0.8-1.7-2.2-2.7-3.9-3.1c-1.2-0.3-2.4-0.5-3.6-0.5c-2.7,0-5.3,0-8,0
					c-0.4,0-0.4,0-0.4,0.4C470.6,122.2,470.6,126.3,470.6,130.4z"/>
				<path class="st2" d="M395.6,130.4c0-5.5,0-10.9,0-16.4c0-0.2,0-0.3,0-0.5c0-0.3,0.3-0.5,0.5-0.6c0.2,0,0.4-0.1,0.6-0.1
					c5,0,10.1,0,15.1,0c1,0,1.9,0,2.9,0.1c1,0.1,2,0.2,3,0.5c1.1,0.3,2.1,0.7,3,1.3c1,0.7,1.7,1.5,2.2,2.5c0.5,0.8,0.7,1.8,0.9,2.7
					c0.2,1.2,0.2,2.4,0.2,3.6c0,1.1-0.2,2.1-0.6,3.1c-0.6,1.4-1.5,2.5-2.9,3.2c-1.3,0.7-2.6,1-4.1,1.2c-0.2,0-0.4,0.1-0.3,0.4
					c0,0.2,0,0.4,0,0.7c0,0.3,0.1,0.4,0.3,0.4c0.6,0.1,1.1,0.1,1.7,0.2c1.3,0.2,2.6,0.5,3.7,1.3c0.7,0.5,1.2,1.2,1.6,2
					c0.6,1.3,0.8,2.7,0.9,4.1c0.1,2.3,0.2,4.6,0.3,7c0,0.6-0.3,0.9-0.9,0.9c-1.6,0-3.3,0-4.9,0c-0.1,0-0.2,0-0.3,0
					c-0.5,0-0.7-0.3-0.7-0.7c-0.2-2.6-0.3-5.2-0.5-7.8c-0.1-1.2-0.4-2.3-1.3-3.2c-0.5-0.5-1.2-0.9-1.9-1.2c-1.1-0.4-2.2-0.6-3.4-0.6
					c-2.7-0.1-5.3-0.2-8-0.3c-0.4,0-0.4,0-0.4,0.4c0,4.1,0,8.3,0,12.4c0,0.8-0.3,1.1-1,1c-1.6,0-3.3,0-4.9,0c-0.2,0-0.4,0-0.5-0.1
					c-0.2-0.1-0.4-0.3-0.4-0.5c0-0.2,0-0.3,0-0.5C395.6,141.4,395.6,135.9,395.6,130.4z M402.5,123.7c0,1.9,0,3.7,0,5.6
					c0,0.4,0,0.4,0.4,0.4c2.5-0.1,4.9-0.2,7.4-0.3c1.3-0.1,2.5-0.2,3.8-0.6c0.7-0.2,1.3-0.6,1.9-1.1c0.9-0.9,1.2-2,1.3-3.1
					c0.1-1.3,0.1-2.7-0.4-4c-0.3-0.9-0.9-1.6-1.7-2.1c-0.9-0.5-1.9-0.7-3-0.7c-3.1,0-6.2,0-9.2,0c-0.3,0-0.3,0.1-0.3,0.3
					C402.5,120,402.5,121.9,402.5,123.7z"/>
				<path class="st2" d="M432.1,130.4c0-5.5,0-10.9,0-16.4c0-0.2,0-0.3,0-0.5c0-0.3,0.3-0.5,0.5-0.6c0.2,0,0.4-0.1,0.7-0.1
					c7.2,0,14.5,0,21.7,0c0.2,0,0.3,0,0.5,0c0.6,0,0.8,0.3,0.8,0.9c0,1,0,2.1,0,3.1c0,0.1,0,0.2,0,0.4c0,0.6-0.3,0.8-0.9,0.8
					c-0.1,0-0.2,0-0.4,0c-5.3,0-10.5,0-15.8,0c-0.4,0-0.4,0-0.4,0.4c0,2.8,0,5.6,0,8.4c0,0.4,0,0.4,0.4,0.4c5,0,10.1,0,15.1,0
					c0.1,0,0.2,0,0.4,0c0.5,0,0.8,0.3,0.9,0.9c0,1.2,0,2.4,0,3.5c0,0.5-0.3,0.8-0.8,0.8c-0.1,0-0.3,0-0.4,0c-5,0-10.1,0-15.1,0
					c-0.4,0-0.4,0-0.4,0.4c0,3.2,0,6.4,0,9.5c0,0.4,0,0.4,0.4,0.4c5.3,0,10.7,0,16,0c0.1,0,0.3,0,0.4,0c0.4,0.1,0.7,0.4,0.7,0.8
					c0,1.2,0,2.4,0,3.5c0,0.5-0.3,0.8-0.8,0.8c-0.1,0-0.1,0-0.2,0c-7.4,0-14.8,0-22.3,0c-0.2,0-0.5,0-0.7-0.2
					c-0.2-0.1-0.3-0.3-0.3-0.5c-0.1-0.1,0-0.3,0-0.5C432.1,141.4,432.1,135.9,432.1,130.4z"/>
			</g>
			<g>
				<path class="st2" d="M625.1,130.4c0,5.2,0,10.5,0,15.7c0,0.2,0,0.3,0,0.5c0,0.4-0.3,0.7-0.7,0.7c-3.5,0-7,0-10.6,0
					c-0.6,0-0.8-0.5-1-0.9c-0.8-2.1-1.7-4.1-2.5-6.2c-0.8-2-1.6-4-2.4-6c-0.7-1.8-1.5-3.7-2.2-5.5c-0.7-1.7-1.3-3.4-2-5.1
					c-0.6-1.6-1.3-3.2-1.9-4.9c-0.1-0.3-0.3-0.5-0.6-0.4c-0.2,0-0.5,0-0.7,0c-0.3,0-0.4,0.1-0.4,0.4c0,1.8,0,3.6,0.1,5.5
					c0.1,4.5,0.1,9,0.2,13.5c0,2.8,0.1,5.6,0.1,8.5c0,0.8-0.2,1-1,1c-1.6,0-3.1,0-4.7,0c-0.7,0-0.9-0.3-0.9-0.9
					c0-10.7,0-21.4,0-32.1c0-0.6,0.2-0.9,0.8-0.9c0.2,0,0.4,0,0.7,0c3.3,0,6.7,0,10,0c0.6,0,1.1,0.2,1.3,0.8
					c0.1,0.2,0.2,0.4,0.3,0.6c0.7,1.8,1.4,3.5,2.1,5.3c0.7,1.7,1.3,3.4,2,5.1c0.6,1.5,1.2,3.1,1.8,4.6c0.5,1.4,1.1,2.8,1.6,4.2
					c0.5,1.4,1.1,2.8,1.6,4.1c0.5,1.4,1.1,2.8,1.6,4.2c0.1,0.2,0.2,0.4,0.2,0.6c0.1,0.3,0.3,0.3,0.6,0.3c0.3-0.1,0.2-0.3,0.2-0.4
					c-0.1-7.5-0.1-15-0.2-22.5c0-2,0-4,0-5.9c0-0.8,0.2-1,0.9-1c1.5,0,3.1,0,4.6,0c0.8,0,1,0.2,1,1
					C625.1,119.8,625.1,125.1,625.1,130.4z"/>
				<path class="st2" d="M554.9,130.4c0.1-1.8,0.2-3.6,0.4-5.3c0.2-1.5,0.5-2.9,1.1-4.4c0.7-1.9,1.8-3.5,3.3-4.8
					c1.3-1.1,2.9-1.8,4.6-2.3c2.5-0.7,5-0.9,7.6-0.8c1.2,0,2.4,0.1,3.6,0.3c3.1,0.4,5.9,1.4,8.1,3.8c1.1,1.2,1.8,2.6,2.4,4.1
					c1.1,3.2,1.3,6.5,1.3,9.8c0,1.7-0.1,3.5-0.3,5.2c-0.2,1.4-0.5,2.9-1.1,4.2c-0.7,1.7-1.6,3.2-2.9,4.4c-1.1,1-2.5,1.7-3.9,2.2
					c-2.6,0.9-5.3,1.1-8.1,1.1c-1.6,0-3.2-0.1-4.8-0.4c-2.8-0.5-5.3-1.5-7.3-3.7c-1-1.1-1.7-2.4-2.3-3.8c-1-2.7-1.3-5.5-1.4-8.4
					C555,131.3,555,130.8,554.9,130.4C555,130.4,554.9,130.4,554.9,130.4z M580.3,130.4C580.3,130.4,580.3,130.4,580.3,130.4
					c0-1,0-2.1,0-3.1c-0.1-1.7-0.2-3.3-0.8-4.9c-0.3-0.9-0.7-1.7-1.3-2.4c-1-1.2-2.4-1.8-3.8-2c-2.6-0.4-5.2-0.5-7.8,0.3
					c-0.9,0.3-1.6,0.7-2.3,1.3c-1.2,1.2-1.8,2.7-2.1,4.3c-0.2,1-0.3,2-0.3,2.9c-0.1,2.2-0.1,4.5,0,6.7c0.1,1.7,0.3,3.4,0.9,5.1
					c0.5,1.3,1.2,2.3,2.3,3c1.4,0.9,3,1.2,4.6,1.3c1.6,0.1,3.2,0.1,4.8-0.3c0.8-0.2,1.6-0.5,2.3-0.9c1.5-0.9,2.3-2.3,2.8-4
					c0.4-1.4,0.6-2.8,0.6-4.2C580.3,132.6,580.3,131.5,580.3,130.4z"/>
				<path class="st2" d="M642.8,147.8c-1-0.1-2.8-0.3-4.6-0.5c-1.7-0.2-3.3-0.6-4.9-1.1c-0.5-0.2-0.7-0.5-0.7-1
					c0.1-0.6,0.2-1.1,0.3-1.7c0.1-0.5,0.2-1,0.3-1.5c0.1-0.4,0.3-0.6,0.7-0.6c0.4,0,0.7,0.1,1.1,0.2c1,0.2,2,0.5,3.1,0.7
					c0.9,0.2,1.8,0.3,2.7,0.4c1.6,0.2,3.1,0.3,4.7,0.2c1.4-0.1,2.8-0.4,4-1.1c1.6-1,2.2-2.9,1.9-4.6c-0.3-1.8-1.5-2.8-3.1-3.3
					c-1.6-0.5-3.3-0.7-4.9-1c-1.9-0.3-3.8-0.6-5.6-1.4c-1.6-0.7-3.1-1.6-4.1-3.1c-0.7-1-1.1-2.1-1.3-3.3c-0.2-1.2-0.2-2.3-0.1-3.5
					c0.2-2.3,1-4.4,2.9-6c1-0.8,2.1-1.4,3.3-1.8c2.8-1,5.8-1.1,8.7-0.9c1.7,0.1,3.3,0.3,5,0.6c1.3,0.2,2.6,0.6,3.9,0.9
					c0.6,0.2,1,0.6,0.8,1.3c-0.2,1-0.4,2-0.6,2.9c-0.1,0.4-0.4,0.6-0.8,0.6c-0.4,0-0.9-0.1-1.3-0.2c-3.2-0.8-6.4-1.3-9.6-1.1
					c-1.3,0.1-2.7,0.3-3.9,1c-1.2,0.7-1.8,1.7-1.9,3.1c-0.1,1.2,0.1,2.3,1,3.1c0.6,0.7,1.4,1,2.3,1.3c1.6,0.5,3.3,0.7,5,1
					c1.6,0.3,3.2,0.5,4.7,1c1.8,0.5,3.4,1.4,4.6,2.9c0.7,0.9,1.2,1.9,1.4,3c0.3,1.4,0.5,2.7,0.4,4.1c-0.2,2.2-0.8,4.1-2.2,5.8
					c-0.9,1-2,1.7-3.2,2.3C649.9,147.7,646.8,147.9,642.8,147.8z"/>
				<path class="st2" d="M513.8,130.4c0-5.3,0-10.6,0-15.9c0-0.7,0.2-0.9,0.9-1c1.2-0.1,2.5-0.3,3.7-0.5c0.4-0.1,0.8-0.1,1.3-0.1
					c0.5,0,0.7,0.2,0.7,0.7c0,0.2,0,0.3,0,0.5c0,9.2,0,18.3,0,27.5c0,0.6,0,0.6,0.6,0.6c4.8,0,9.6,0,14.3,0c0.2,0,0.3,0,0.5,0
					c0.4,0,0.7,0.3,0.7,0.7c0,1.3,0,2.5,0,3.8c0,0.4-0.3,0.7-0.7,0.7c-0.1,0-0.2,0-0.3,0c-6.9,0-13.7,0-20.6,0c-0.2,0-0.3,0-0.5,0
					c-0.4,0-0.6-0.3-0.6-0.7c0-0.2,0-0.3,0-0.5C513.8,140.9,513.8,135.6,513.8,130.4z"/>
				<path class="st2" d="M548.2,130.1c0,5.4,0,10.8,0,16.3c0,0.4,0,0.7-0.4,0.9c-0.2,0.1-0.3,0.1-0.5,0.1c-1.6,0-3.2,0-4.8,0
					c-0.6,0-0.9-0.3-0.9-0.9c0-4.4,0-8.8,0-13.2c0-6.3,0-12.5,0-18.8c0-0.8,0.2-0.9,0.9-1c1.2-0.1,2.4-0.3,3.7-0.5
					c0.4-0.1,0.8-0.1,1.3-0.1c0.5,0,0.7,0.2,0.7,0.6c0,0.2,0,0.3,0,0.5C548.2,119.3,548.2,124.7,548.2,130.1z"/>
			</g>
		</g>
		<g>
			<g>
				<path class="st3" d="M227.8,128.3c0,5.3,0,10.6,0,15.9c0,1.1-0.2,1.3-1.3,1.3c-3.2,0-6.5,0-9.7,0c-0.7,0-1.2-0.3-1.4-0.9
					c-0.8-2.1-1.7-4.2-2.5-6.3c-1.4-3.6-2.9-7.1-4.3-10.7c-1.4-3.6-2.9-7.1-4.3-10.7c-0.2-0.5-1.3-0.8-1.6-0.5
					c-0.1,0.1-0.1,0.3-0.1,0.5c0.1,4,0.1,8.1,0.2,12.1c0.1,5.2,0.1,10.3,0.2,15.5c0,0.8-0.2,1-1,1c-1.5,0-3.1,0-4.6,0
					c-0.7,0-1-0.3-1-1c0-0.2,0-0.3,0-0.5c0-10.5,0-21,0-31.4c0-0.2,0-0.5,0-0.7c0.1-0.6,0.5-0.7,1-0.7c2.8,0,5.6,0,8.4,0
					c0.7,0,1.5,0,2.2,0c0.6,0,1,0.3,1.2,0.8c1.6,4.2,3.3,8.3,4.9,12.5c1.7,4.3,3.4,8.5,5,12.8c0.5,1.2,1,2.5,1.5,3.7
					c0.1,0.3,0.2,0.6,0.6,0.5c0.1-0.1,0.3-0.4,0.3-0.6c-0.1-8.4-0.2-16.9-0.2-25.3c0-1.1,0-2.2,0-3.4c0-0.7,0.2-0.9,0.9-0.9
					c1.5,0,3,0,4.5,0c0.9,0,1.1,0.3,1.1,1.2C227.8,117.6,227.8,122.9,227.8,128.3z"/>
				<path class="st3" d="M160.5,146c0.2,1.2,0.4,2.3,0.7,3.3c0,0.1,0.4,0.3,0.6,0.3c2.3,0,4.6,0,6.9,0c1.1,0,1.3,0.1,1.3,1.3
					c0,1,0,1.9,0,2.9c0,0.6-0.3,0.9-0.8,0.9c-2.6,0-5.2,0-7.8-0.1c-2-0.1-3.4-1.3-4.3-3c-0.9-1.5-1.4-3.1-1.7-4.8
					c-0.1-0.6-0.4-0.9-1-1c-1.5-0.3-3.1-0.6-4.5-1.1c-3.4-1.2-5.6-3.7-6.8-7.1c-1.1-3.1-1.2-6.3-1.2-9.5c0-2.3,0.1-4.5,0.6-6.7
					c0.7-3.3,2-6.2,4.9-8.2c2-1.4,4.2-2.1,6.6-2.3c2.1-0.2,4.2-0.3,6.3-0.2c2.6,0.1,5.1,0.6,7.4,1.8c2.7,1.4,4.4,3.6,5.4,6.4
					c1.1,3.2,1.3,6.5,1.3,9.9c0,2.2-0.1,4.5-0.6,6.7c-0.7,3.4-2.1,6.3-5,8.3c-1.8,1.2-3.8,1.8-5.9,2.1
					C162,145.8,161.3,145.9,160.5,146z M167.4,128.3c-0.1,0-0.1,0-0.2,0c0-1.3,0.1-2.6,0-3.9c-0.1-1.7-0.3-3.4-1-4.9
					c-1.1-2.5-3.3-3.6-5.8-3.9c-2-0.2-4-0.2-6,0.2c-1.3,0.3-2.4,0.8-3.4,1.8c-1.3,1.3-1.9,3-2.1,4.8c-0.5,4.3-0.6,8.6,0.2,12.9
					c0.7,3.8,2.9,5.3,6.2,5.8c2.1,0.3,4.1,0.3,6.2-0.2c1.3-0.3,2.5-0.8,3.4-1.8c1.3-1.4,1.9-3.1,2.1-5
					C167.2,132.1,167.3,130.2,167.4,128.3z"/>
				<path class="st3" d="M272.4,128.2c0-5.3,0-10.5,0-15.8c0-0.3,0-0.6,0.1-0.8c0.2-0.3,0.4-0.4,0.7-0.6c0.1-0.1,0.4,0,0.6,0
					c5,0,10,0,14.9,0.1c2.4,0,4.9,0.4,7.1,1.4c2.9,1.2,4.7,3.4,5.7,6.3c1.1,3.1,1.3,6.4,1.3,9.7c0,2.2-0.1,4.5-0.6,6.7
					c-0.6,2.7-1.6,5.3-3.8,7.2c-1.4,1.2-3,1.9-4.7,2.4c-2.5,0.6-5.1,0.7-7.7,0.7c-4.1,0-8.3,0-12.4,0c-1.1,0-1.3-0.2-1.3-1.3
					C272.4,138.9,272.4,133.6,272.4,128.2z M279.1,128.2c0,3.9,0,7.8,0,11.6c0,0.7,0,0.7,0.8,0.7c2.1,0,4.2,0,6.3,0
					c1.3,0,2.6-0.1,3.9-0.3c1.8-0.3,3.3-1.1,4.2-2.7c0.7-1.1,1.1-2.3,1.2-3.5c0.6-4.2,0.7-8.4-0.2-12.6c-0.3-1.3-0.8-2.5-1.8-3.5
					c-1.4-1.4-3.1-1.8-5-1.9c-2.9-0.1-5.8-0.1-8.7-0.1c-0.7,0-0.7,0-0.7,0.7C279.1,120.5,279.1,124.4,279.1,128.2z"/>
				<path class="st3" d="M374.6,128.3c0,0.9,0,1.9,0,2.8c-0.1,2.9-0.6,5.7-1.9,8.3c-1.2,2.3-3,4-5.3,5c-2,0.9-4.1,1.3-6.3,1.5
					c-2.5,0.2-5,0.2-7.4-0.2c-3.2-0.5-6-1.6-8.2-4.2c-1.3-1.6-2.1-3.4-2.6-5.4c-0.9-3.8-0.9-7.6-0.7-11.4c0.2-2.6,0.7-5.2,1.9-7.6
					c1.4-2.8,3.7-4.6,6.6-5.5c3.8-1.2,7.7-1.2,11.6-0.8c1.8,0.2,3.6,0.7,5.2,1.5c2.4,1.1,4.1,2.9,5.3,5.3c0.8,1.8,1.3,3.7,1.5,5.6
					c0.2,1.7,0.2,3.4,0.3,5.1C374.7,128.3,374.6,128.3,374.6,128.3z M367.9,128.3c-0.1,0-0.1,0-0.2,0c0-1.3,0.1-2.6,0-3.9
					c-0.1-1.7-0.3-3.4-1-4.9c-1.1-2.5-3.3-3.6-5.8-3.9c-2-0.2-4-0.2-6,0.2c-1.8,0.4-3.3,1.3-4.3,3c-0.8,1.4-1.1,2.9-1.2,4.5
					c-0.3,4-0.5,8,0.3,12c0.8,3.8,2.9,5.3,6.2,5.8c2.1,0.3,4.3,0.3,6.4-0.2c1.2-0.3,2.3-0.8,3.2-1.8c1.3-1.4,1.9-3.1,2.1-5
					C367.7,132.1,367.7,130.2,367.9,128.3z"/>
				<path class="st3" d="M264.4,133.8c0,2.4,0,4.8,0,7.2c0,0.7-0.1,1.3-0.3,2c-0.4,1.2-1.5,1.7-2.6,2c-4.4,1.1-8.9,1.3-13.4,0.9
					c-2.2-0.2-4.4-0.6-6.4-1.6c-2.6-1.2-4.4-3.2-5.4-5.8c-1-2.6-1.4-5.2-1.4-8c0-2.4,0-4.8,0.3-7.3c0.3-3,1.2-5.8,3.1-8.2
					c1.2-1.5,2.8-2.5,4.6-3.2c2.9-1.1,5.9-1.3,8.9-1.3c2.7,0,5.5,0.3,8.2,0.8c1.3,0.3,2.6,0.6,3.8,1c0.8,0.2,1,0.6,0.8,1.4
					c-0.2,0.9-0.4,1.8-0.6,2.7c-0.1,0.6-0.5,0.8-1.1,0.7c-1.5-0.3-2.9-0.7-4.4-1c-3.5-0.6-7-0.9-10.5-0.1c-2.9,0.7-4.7,2.5-5.5,5.4
					c-1,3.8-0.9,7.6-0.5,11.4c0.2,1.6,0.5,3.1,1.3,4.5c1,1.9,2.7,3,4.8,3.4c3.2,0.7,6.3,0.5,9.5,0c0.3-0.1,0.5-0.2,0.5-0.5
					c0-3,0-6,0-9c0-0.3-0.1-0.5-0.5-0.5c-1.5-0.2-3-0.4-4.5-0.5c-1.1-0.1-1.2-0.2-1.2-1.3c0-0.9,0-1.7,0-2.6c0-0.7,0.2-0.9,0.9-0.9
					c0.4,0,0.7,0,1.1,0c3.2,0,6.3,0,9.5,0c1.1,0,1.3,0.2,1.3,1.3C264.4,129.1,264.4,131.4,264.4,133.8
					C264.4,133.8,264.4,133.8,264.4,133.8z"/>
				<path class="st3" d="M335.5,145.4c-0.8,0-1.7,0-2.5,0c-0.5,0-0.9-0.2-1-0.7c-1-3.1-2-6.3-3-9.4c-0.2-0.7-0.5-1.3-0.6-2
					c-0.1-0.6-0.4-0.7-1-0.7c-2.1,0-4.2,0-6.4,0c-1.5,0-3,0-4.5,0c-0.5,0-0.7,0.2-0.9,0.6c-0.6,2-1.2,3.9-1.8,5.9
					c-0.6,1.9-1.2,3.8-1.8,5.6c-0.2,0.5-0.5,0.7-1,0.7c-1.7,0-3.3,0-5,0c-0.8,0-1-0.3-0.8-1.1c0.3-0.8,0.5-1.6,0.8-2.4
					c0.9-2.6,1.7-5.1,2.6-7.7c0.9-2.8,1.9-5.6,2.8-8.3c0.9-2.5,1.7-5,2.5-7.6c0.7-2.2,1.5-4.4,2.2-6.5c0.2-0.5,0.5-0.7,1-0.7
					c3.2,0,6.4,0,9.6,0c0.6,0,0.9,0.3,1.1,0.9c1.1,3.3,2.2,6.6,3.3,9.8c1,3.1,2.1,6.1,3.1,9.2c1.1,3.3,2.2,6.6,3.3,9.9
					c0.4,1.1,0.7,2.2,1.1,3.3c0.3,0.9,0.1,1.2-0.9,1.2C337,145.4,336.2,145.4,335.5,145.4z M321.8,127.7c1.4,0,2.8,0,4.1,0
					c0.6,0,0.7-0.1,0.5-0.7c-0.2-0.6-0.4-1.2-0.6-1.8c-0.9-2.7-1.7-5.4-2.6-8.1c-0.5-1.5-0.1-1.3-1.8-1.4c-0.5,0-0.7,0.2-0.9,0.6
					c-1.1,3.6-2.2,7.1-3.3,10.7c-0.2,0.6-0.2,0.6,0.4,0.6C319.2,127.7,320.5,127.7,321.8,127.7z"/>
				<path class="st3" d="M187.8,128c0,5.4,0,10.8,0,16.2c0,1.1-0.2,1.3-1.3,1.3c-1.5,0-2.9,0-4.4,0c-0.7,0-1-0.3-1-1
					c0-0.1,0-0.3,0-0.4c0-10.5,0-21.1,0-31.6c0-1.1,0.1-1.2,1.2-1.4c1.5-0.2,2.9-0.4,4.4-0.5c0.9-0.1,1.1,0.1,1.1,1
					C187.8,117.1,187.8,122.5,187.8,128z"/>
			</g>
			<g>
				<path class="st3" d="M461.8,128.4c0-5.5,0-11,0-16.5c0-0.2,0-0.5,0.2-0.7c0.1-0.1,0.3-0.2,0.4-0.3c0.2-0.1,0.4,0,0.5,0
					c4.5,0,9,0,13.5,0c1.5,0,3,0.1,4.6,0.2c1.3,0.1,2.5,0.4,3.7,0.8c1.2,0.4,2.4,1,3.4,1.8c1.3,1,2.2,2.2,2.9,3.7
					c0.6,1.2,1,2.5,1.3,3.8c0.2,1.2,0.4,2.5,0.5,3.7c0.2,1.7,0.2,3.5,0.1,5.2c0,1.4-0.1,2.8-0.4,4.1c-0.2,0.8-0.3,1.7-0.5,2.5
					c-0.7,2.5-1.8,4.7-3.9,6.4c-1.1,0.9-2.3,1.5-3.6,1.9c-1.6,0.5-3.2,0.8-4.8,0.9c-1.5,0.1-2.9,0.1-4.4,0.1c-4.2,0-8.4,0-12.6,0
					c-0.3,0-0.6,0-0.8-0.4c-0.1-0.1-0.1-0.3-0.1-0.4c0-0.1,0-0.3,0-0.4C461.8,139.3,461.8,133.9,461.8,128.4z M468.6,128.4
					c0,4,0,8.1,0,12.1c0,0.1,0,0.2,0,0.3c0,0.2,0.1,0.3,0.2,0.3c0.1,0,0.2,0,0.3,0c2.1,0,4.3,0,6.4,0c1.1,0,2.3-0.1,3.4-0.2
					c1-0.1,1.9-0.3,2.8-0.8c0.9-0.4,1.6-1,2.2-1.8c0.5-0.8,0.9-1.6,1.2-2.6c0.2-0.9,0.4-1.7,0.5-2.6c0.1-0.9,0.2-1.8,0.2-2.8
					c0.1-2.7,0.1-5.4-0.4-8.1c-0.2-1-0.5-1.9-0.9-2.8c-0.8-1.7-2.2-2.7-3.9-3.1c-1.2-0.3-2.4-0.5-3.6-0.5c-2.7,0-5.3,0-8,0
					c-0.4,0-0.4,0-0.4,0.4C468.6,120.2,468.6,124.3,468.6,128.4z"/>
				<path class="st3" d="M393.6,128.4c0-5.5,0-10.9,0-16.4c0-0.2,0-0.3,0-0.5c0-0.3,0.3-0.5,0.5-0.6c0.2,0,0.4-0.1,0.6-0.1
					c5,0,10.1,0,15.1,0c1,0,1.9,0,2.9,0.1c1,0.1,2,0.2,3,0.5c1.1,0.3,2.1,0.7,3,1.3c1,0.7,1.7,1.5,2.2,2.5c0.5,0.8,0.7,1.8,0.9,2.7
					c0.2,1.2,0.2,2.4,0.2,3.6c0,1.1-0.2,2.1-0.6,3.1c-0.6,1.4-1.5,2.5-2.9,3.2c-1.3,0.7-2.6,1-4.1,1.2c-0.2,0-0.4,0.1-0.3,0.4
					c0,0.2,0,0.4,0,0.7c0,0.3,0.1,0.4,0.3,0.4c0.6,0.1,1.1,0.1,1.7,0.2c1.3,0.2,2.6,0.5,3.7,1.3c0.7,0.5,1.2,1.2,1.6,2
					c0.6,1.3,0.8,2.7,0.9,4.1c0.1,2.3,0.2,4.6,0.3,7c0,0.6-0.3,0.9-0.9,0.9c-1.6,0-3.3,0-4.9,0c-0.1,0-0.2,0-0.3,0
					c-0.5,0-0.7-0.3-0.7-0.7c-0.2-2.6-0.3-5.2-0.5-7.8c-0.1-1.2-0.4-2.3-1.3-3.2c-0.5-0.5-1.2-0.9-1.9-1.2c-1.1-0.4-2.2-0.6-3.4-0.6
					c-2.7-0.1-5.3-0.2-8-0.3c-0.4,0-0.4,0-0.4,0.4c0,4.1,0,8.3,0,12.4c0,0.8-0.3,1.1-1,1c-1.6,0-3.3,0-4.9,0c-0.2,0-0.4,0-0.5-0.1
					c-0.2-0.1-0.4-0.3-0.4-0.5c0-0.2,0-0.3,0-0.5C393.6,139.4,393.6,133.9,393.6,128.4z M400.4,121.7c0,1.9,0,3.7,0,5.6
					c0,0.4,0,0.4,0.4,0.4c2.5-0.1,4.9-0.2,7.4-0.3c1.3-0.1,2.5-0.2,3.8-0.6c0.7-0.2,1.3-0.6,1.9-1.1c0.9-0.9,1.2-2,1.3-3.1
					c0.1-1.3,0.1-2.7-0.4-4c-0.3-0.9-0.9-1.6-1.7-2.1c-0.9-0.5-1.9-0.7-3-0.7c-3.1,0-6.2,0-9.2,0c-0.3,0-0.3,0.1-0.3,0.3
					C400.5,118,400.4,119.8,400.4,121.7z"/>
				<path class="st3" d="M430.1,128.4c0-5.5,0-10.9,0-16.4c0-0.2,0-0.3,0-0.5c0-0.3,0.3-0.5,0.5-0.6c0.2,0,0.4-0.1,0.7-0.1
					c7.2,0,14.5,0,21.7,0c0.2,0,0.3,0,0.5,0c0.6,0,0.8,0.3,0.8,0.9c0,1,0,2.1,0,3.1c0,0.1,0,0.2,0,0.4c0,0.6-0.3,0.8-0.9,0.8
					c-0.1,0-0.2,0-0.4,0c-5.3,0-10.5,0-15.8,0c-0.4,0-0.4,0-0.4,0.4c0,2.8,0,5.6,0,8.4c0,0.4,0,0.4,0.4,0.4c5,0,10.1,0,15.1,0
					c0.1,0,0.2,0,0.4,0c0.5,0,0.8,0.3,0.9,0.9c0,1.2,0,2.4,0,3.5c0,0.5-0.3,0.8-0.8,0.8c-0.1,0-0.3,0-0.4,0c-5,0-10.1,0-15.1,0
					c-0.4,0-0.4,0-0.4,0.4c0,3.2,0,6.4,0,9.5c0,0.4,0,0.4,0.4,0.4c5.3,0,10.7,0,16,0c0.1,0,0.3,0,0.4,0c0.4,0.1,0.7,0.4,0.7,0.8
					c0,1.2,0,2.4,0,3.5c0,0.5-0.3,0.8-0.8,0.8c-0.1,0-0.1,0-0.2,0c-7.4,0-14.8,0-22.3,0c-0.2,0-0.5,0-0.7-0.2
					c-0.2-0.1-0.3-0.3-0.3-0.5c-0.1-0.1,0-0.3,0-0.5C430.1,139.3,430.1,133.9,430.1,128.4z"/>
			</g>
			<g>
				<path class="st3" d="M623.1,128.4c0,5.2,0,10.5,0,15.7c0,0.2,0,0.3,0,0.5c0,0.4-0.3,0.7-0.7,0.7c-3.5,0-7,0-10.6,0
					c-0.6,0-0.8-0.5-1-0.9c-0.8-2.1-1.7-4.1-2.5-6.2c-0.8-2-1.6-4-2.4-6c-0.7-1.8-1.5-3.7-2.2-5.5c-0.7-1.7-1.3-3.4-2-5.1
					c-0.6-1.6-1.3-3.2-1.9-4.9c-0.1-0.3-0.3-0.5-0.6-0.4c-0.2,0-0.5,0-0.7,0c-0.3,0-0.4,0.1-0.4,0.4c0,1.8,0,3.6,0.1,5.5
					c0.1,4.5,0.1,9,0.2,13.5c0,2.8,0.1,5.6,0.1,8.5c0,0.8-0.2,1-1,1c-1.6,0-3.1,0-4.7,0c-0.7,0-0.9-0.3-0.9-0.9
					c0-10.7,0-21.4,0-32.1c0-0.6,0.2-0.9,0.8-0.9c0.2,0,0.4,0,0.7,0c3.3,0,6.7,0,10,0c0.6,0,1.1,0.2,1.3,0.8
					c0.1,0.2,0.2,0.4,0.3,0.6c0.7,1.8,1.4,3.5,2.1,5.3c0.7,1.7,1.3,3.4,2,5.1c0.6,1.5,1.2,3.1,1.8,4.6c0.5,1.4,1.1,2.8,1.6,4.2
					c0.5,1.4,1.1,2.8,1.6,4.1c0.5,1.4,1.1,2.8,1.6,4.2c0.1,0.2,0.2,0.4,0.2,0.6c0.1,0.3,0.3,0.3,0.6,0.3c0.3-0.1,0.2-0.3,0.2-0.4
					c-0.1-7.5-0.1-15-0.2-22.5c0-2,0-4,0-5.9c0-0.8,0.2-1,0.9-1c1.5,0,3.1,0,4.6,0c0.8,0,1,0.2,1,1
					C623.1,117.8,623.1,123.1,623.1,128.4z"/>
				<path class="st3" d="M552.9,128.4c0.1-1.8,0.2-3.6,0.4-5.3c0.2-1.5,0.5-2.9,1.1-4.4c0.7-1.9,1.8-3.5,3.3-4.8
					c1.3-1.1,2.9-1.8,4.6-2.3c2.5-0.7,5-0.9,7.6-0.8c1.2,0,2.4,0.1,3.6,0.3c3.1,0.4,5.9,1.4,8.1,3.8c1.1,1.2,1.8,2.6,2.4,4.1
					c1.1,3.2,1.3,6.5,1.3,9.8c0,1.7-0.1,3.5-0.3,5.2c-0.2,1.4-0.5,2.9-1.1,4.2c-0.7,1.7-1.6,3.2-2.9,4.4c-1.1,1-2.5,1.7-3.9,2.2
					c-2.6,0.9-5.3,1.1-8.1,1.1c-1.6,0-3.2-0.1-4.8-0.4c-2.8-0.5-5.3-1.5-7.3-3.7c-1-1.1-1.7-2.4-2.3-3.8c-1-2.7-1.3-5.5-1.4-8.4
					C553,129.3,553,128.8,552.9,128.4C553,128.4,552.9,128.4,552.9,128.4z M578.3,128.4C578.3,128.4,578.3,128.4,578.3,128.4
					c0-1,0-2.1,0-3.1c-0.1-1.7-0.2-3.3-0.8-4.9c-0.3-0.9-0.7-1.7-1.3-2.4c-1-1.2-2.4-1.8-3.8-2c-2.6-0.4-5.2-0.5-7.8,0.3
					c-0.9,0.3-1.6,0.7-2.3,1.3c-1.2,1.2-1.8,2.7-2.1,4.3c-0.2,1-0.3,2-0.3,2.9c-0.1,2.2-0.1,4.5,0,6.7c0.1,1.7,0.3,3.4,0.9,5.1
					c0.5,1.3,1.2,2.3,2.3,3c1.4,0.9,3,1.2,4.6,1.3c1.6,0.1,3.2,0.1,4.8-0.3c0.8-0.2,1.6-0.5,2.3-0.9c1.5-0.9,2.3-2.3,2.8-4
					c0.4-1.4,0.6-2.8,0.6-4.2C578.3,130.5,578.3,129.5,578.3,128.4z"/>
				<path class="st3" d="M640.8,145.8c-1-0.1-2.8-0.3-4.6-0.5c-1.7-0.2-3.3-0.6-4.9-1.1c-0.5-0.2-0.7-0.5-0.7-1
					c0.1-0.6,0.2-1.1,0.3-1.7c0.1-0.5,0.2-1,0.3-1.5c0.1-0.4,0.3-0.6,0.7-0.6c0.4,0,0.7,0.1,1.1,0.2c1,0.2,2,0.5,3.1,0.7
					c0.9,0.2,1.8,0.3,2.7,0.4c1.6,0.2,3.1,0.3,4.7,0.2c1.4-0.1,2.8-0.4,4-1.1c1.6-1,2.2-2.9,1.9-4.6c-0.3-1.8-1.5-2.8-3.1-3.3
					c-1.6-0.5-3.3-0.7-4.9-1c-1.9-0.3-3.8-0.6-5.6-1.4c-1.6-0.7-3.1-1.6-4.1-3.1c-0.7-1-1.1-2.1-1.3-3.3c-0.2-1.2-0.2-2.3-0.1-3.5
					c0.2-2.3,1-4.4,2.9-6c1-0.8,2.1-1.4,3.3-1.8c2.8-1,5.8-1.1,8.7-0.9c1.7,0.1,3.3,0.3,5,0.6c1.3,0.2,2.6,0.6,3.9,0.9
					c0.6,0.2,1,0.6,0.8,1.3c-0.2,1-0.4,2-0.6,2.9c-0.1,0.4-0.4,0.6-0.8,0.6c-0.4,0-0.9-0.1-1.3-0.2c-3.2-0.8-6.4-1.3-9.6-1.1
					c-1.3,0.1-2.7,0.3-3.9,1c-1.2,0.7-1.8,1.7-1.9,3.1c-0.1,1.2,0.1,2.3,1,3.1c0.6,0.7,1.4,1,2.3,1.3c1.6,0.5,3.3,0.7,5,1
					c1.6,0.3,3.2,0.5,4.7,1c1.8,0.5,3.4,1.4,4.6,2.9c0.7,0.9,1.2,1.9,1.4,3c0.3,1.4,0.5,2.7,0.4,4.1c-0.2,2.2-0.8,4.1-2.2,5.8
					c-0.9,1-2,1.7-3.2,2.3C647.9,145.7,644.8,145.9,640.8,145.8z"/>
				<path class="st3" d="M511.8,128.4c0-5.3,0-10.6,0-15.9c0-0.7,0.2-0.9,0.9-1c1.2-0.1,2.5-0.3,3.7-0.5c0.4-0.1,0.8-0.1,1.3-0.1
					c0.5,0,0.7,0.2,0.7,0.7c0,0.2,0,0.3,0,0.5c0,9.2,0,18.3,0,27.5c0,0.6,0,0.6,0.6,0.6c4.8,0,9.6,0,14.3,0c0.2,0,0.3,0,0.5,0
					c0.4,0,0.7,0.3,0.7,0.7c0,1.3,0,2.5,0,3.8c0,0.4-0.3,0.7-0.7,0.7c-0.1,0-0.2,0-0.3,0c-6.9,0-13.7,0-20.6,0c-0.2,0-0.3,0-0.5,0
					c-0.4,0-0.6-0.3-0.6-0.7c0-0.2,0-0.3,0-0.5C511.8,138.9,511.8,133.6,511.8,128.4z"/>
				<path class="st3" d="M546.2,128.1c0,5.4,0,10.8,0,16.3c0,0.4,0,0.7-0.4,0.9c-0.2,0.1-0.3,0.1-0.5,0.1c-1.6,0-3.2,0-4.8,0
					c-0.6,0-0.9-0.3-0.9-0.9c0-4.4,0-8.8,0-13.2c0-6.3,0-12.5,0-18.8c0-0.8,0.2-0.9,0.9-1c1.2-0.1,2.4-0.3,3.7-0.5
					c0.4-0.1,0.8-0.1,1.3-0.1c0.5,0,0.7,0.2,0.7,0.6c0,0.2,0,0.3,0,0.5C546.2,117.3,546.2,122.7,546.2,128.1z"/>
			</g>
		</g>
	</g>
</g>
</svg>
