<?xml version="1.0" encoding="utf-8"?>
<!-- Generator: Adobe Illustrator 22.1.0, SVG Export Plug-In . SVG Version: 6.00 Build 0)  -->
<svg version="1.1" id="图层_1" xmlns="http://www.w3.org/2000/svg" xmlns:xlink="http://www.w3.org/1999/xlink" x="0px" y="0px"
	 viewBox="0 0 800 800" style="enable-background:new 0 0 800 800;" xml:space="preserve">
<style type="text/css">
	.st0{fill:#BA1924;}
</style>
<path class="st0" d="M684.7,60c3.2,20.5,11.1,77.6,11.1,151.5c0,50.3-5.9,150.1-45.1,252.7c-22.3,58.5-52.6,110.2-90,153.9
	C517.1,669.1,463,709.8,400,739c-63-29.2-117.1-69.8-160.8-120.9c-37.4-43.7-67.7-95.4-90-153.9c-39.2-102.6-45.1-202.4-45.1-252.7
	c0-73.8,7.8-131,11.1-151.5h76.7v18.2v10h10H226h10v-10V60h80.1v18.2v10h10h24.1h10v-10V60H400h39.8v18.2v10h10h24.1h10v-10V60H564
	v18.2v10h10H598h10v-10V60H684.7 M693.2,50h-85.1c-5.5,0-10,4.5-10,10v18.2H574V60c0-5.5-4.5-10-10-10h-80.1c-5.5,0-10,4.5-10,10
	v18.2h-24.1V60c0-5.5-4.5-10-10-10H400h-39.8c-5.5,0-10,4.5-10,10v18.2h-24.1V60c0-5.5-4.5-10-10-10H236c-5.5,0-10,4.5-10,10v18.2
	H202V60c0-5.5-4.5-10-10-10h-85.1c0,0-12.6,66.8-12.6,161.5S114.1,620.7,400,750c285.9-129.3,305.8-443.7,305.8-538.5
	S693.2,50,693.2,50L693.2,50z"/>
<path class="st0" d="M601.6,378.9c0,0-3-19.1-20.1-23.1c0,0,13.5,39.1-27.1,70.7l-2.5-24.1c0,0-11,27.6-18,35.6
	c-7,8-24.1,10.5-30.6,38.6c0,0-12-14,7-38.6C529.4,413.5,539,405,539,405l-0.7-4c0,0,19.4-15,25.1-28.7c5.7-13.7,3.7-36.8-2.7-65.5
	C560.8,306.7,609.8,323.6,601.6,378.9z M551.8,333.1c0,0-3.3,30.1-25.7,51.8c-22.4,21.7-28.4,28.7-40.4,38.4
	c-12,9.7-10,32.4-2.3,48.5c0,0,2-25.4,7.4-31.4s35.8-30.4,42.5-36.1C539.7,398.6,561.4,372.6,551.8,333.1z M556.1,282.3
	c0,0,40.4,12.7,59.5,67.9c0,0,0.7-47.5-25.7-72.5s-63.2-13.7-65.2-7.4c0,0,48.5-7.7,65.2,20.1C589.9,290.3,573.8,280,556.1,282.3z
	 M577.8,266.3c0,0-28.9-42.8-69.5-15.2c-4.5,3.5,4.5,6,10.5,3.5C524.8,252.1,541.7,243.5,577.8,266.3z M457.7,278.6
	c42.6-48.6,67.7-42.6,67.7-42.6c-15.5-9-41.6-7.5-41.6-7.5L457.7,278.6z M453.1,240c0,0-11.5-0.5-15,6.5l16,32.1L453.1,240z
	 M429.1,253.5c0,0-10,6.1-5,14.6c3,5,15,3.3,15,3.3L429.1,253.5z M419.1,278.6V290c0,0,12.4-8.4,14.7-7.7c2.3,0.7,0.3,3.3-7.7,9.7
	c-8,6.4-9.4,13-8.4,17l4-3.7c0,0,0.6-5.7,4.3-9s12.7-12.4,12.7-12.4s-0.3-5-7-5.3C425.1,278.3,419.1,278.6,419.1,278.6z M478.2,282
	h8c0,0,8-9.4,12-8.4c4,1,11.4,1.3,20.4,10c4,4.3,2.3,9.7-2.7,10.7c-5,1-15.1,3.8-16.4,18.4c0,0,0.7-2.8,3-3.3
	c2.3-0.5,16.8-6.3,22.8-11c6-4.8,13-10.5,3-17s-26.1-16.8-34.3-12S480.2,277,478.2,282z M507.5,332v25.1c3,0.8,13.5,10.5,13.5,10.5
	c3.3-3.3,3-16.3,2.5-22.1s-11.8-13.8-11.8-13.8c4.3-1.5,21.1,3.5,21.1,3.5c-0.5-10.3-9-20.6-9-20.6h-22.6L507.5,332z M415.7,440.4
	c18,30.1,21.1,28.4,21.1,28.4c-19.4-30.4-17.4-42.1-17.4-42.1S411.4,433.7,415.7,440.4z M388.3,392.9c-3.3,4.9-1.3,9.6,1.3,9.6
	c2.7,0,5.3,0,14.7,0c9.4,0,12-1.5,8.4-4.8c-3.7-3.3-17.4-14.4-17.4-14.4S391.6,387.9,388.3,392.9z M460.7,435.1
	c-7.5,12.5,1.5,41.6,1.5,41.6c-16.8-5.5-23.6-19.3-24.6-35.8c-1-16.5,27.6-25.1,34.6-28.8c7-3.8,13.8-11,18.6-17
	c4.8-6,5.5-2.5,6-27.3c0.5-24.8-18.6-45.4-18.6-45.4s5.5,16.5,7,34.1c1.5,17.5-1.5,27.1-8.2,32.6c-6.7,5.5-24.9,19.6-24.9,19.6
	c4-20.1,24.1-23.6,28.1-41.6s-2-20.1-2-20.1c-9,21.7-17.5,20.1-17.5,20.1c1.5-2,3-21.6,3-21.6l-10.5-1c0,4-6,7-14,9
	c-8,2-20.4,2.5-20.4,2.5s11.7,7,10.7,15.4c-1,8.4-8.7,10.7-16.4,11.4c-7.7,0.7-18.4-1.7-24.1-10.7c-5.7-9,4.3-19.7,7.4-19.4
	c3,0.3,1.7,3.3,4.1,3c2.4-0.3,5.9-9.7,2.9-13c-3-3.3-6.7,2-11.4,3.3c-4.7,1.3-17.4,0-17.4,0c9.7-18.4,38.8-30.8,44.1-33.1
	c3-5,4.3-5,14-14.4c9.7-9.4,13.7-8.4,16.7-8.4c3,0,11.7,0,11.7,0c2.3,7.4,9.4,9.7,9.4,9.7c-5.3,0.7-4,4.3-1,6
	c6.7,5,15.7-2.3,15.7-2.3s-0.7,15.7,2,21.7c2.7,6,11.3,24,15.8,30c4.5,6,6,5,7,12s-5.3,18.8-15.3,28.8
	C484.7,406,468.2,422.5,460.7,435.1z M462.7,322.1c-0.3-5-6.7-4.5-8.5-3.3c-3.7,3.5-8,4-8,4c-4,3.7,8.3,3.7,8.3,3.7
	c-0.7,1.3-1.9,4.7-1.9,4.7C459.8,330.8,463,327.1,462.7,322.1z M471.2,314.1c-10.7-1-22.4-2-27.7-7.9c-5.3-5.9,8.4-9.1,8.4-9.1
	c-16-2.7-15.2,8-15.2,8c-9.2,3-3,12.5-3,12.5s-6.5-0.5-9.3,1.5c-2.8,2-22.3,16.8-22.3,16.8l13.3,1.3c1.8-2.5,10.8-10.8,10.8-10.8
	c4.5-0.5,7.3-1.3,7.3-1.3c-0.3-3.8,4.3-6.5,4.3-6.5s2.2,2.9,7.5,3.3c5.3,0.3,7.4-5,7.4-5L471.2,314.1z"/>
<g>
	<path class="st0" d="M298.1,396.8v3.1c1.8-0.2,5.8-0.6,9.5-1C304.6,397.9,301.1,397.2,298.1,396.8z"/>
	<path class="st0" d="M298.1,402.4c2.3-0.4,4.5-0.8,6.5-1.3c-2.5,0.3-5.1,0.5-6.5,0.7V402.4z"/>
	<path class="st0" d="M290,405.6c2.9,1.4,2.7,3.8,2.7,3.9l0,0.5c15.3-0.8,20.6-5.1,21.7-6.1c0-1.3-1.3-2.4-3.1-3.4
		c-3.5,2.8-14.4,4.3-21.4,5.1C290,405.5,290,405.6,290,405.6z"/>
	<path class="st0" d="M290,429.5c0.7-0.1,1.1-0.3,1.3-0.5c-0.2-0.2-0.7-0.3-1.3-0.5V429.5z"/>
	<path class="st0" d="M278.3,378v-6.2c-14.3-0.7-34.9-0.9-52.6,2.3v5C230.9,378.5,254.3,375.7,278.3,378z"/>
	<path class="st0" d="M290,426.5c1.3,0.3,3.1,0.9,3.3,2.3c0,0.5-0.2,1.1-0.7,1.6c-0.6,0.5-1.5,0.8-2.6,1v1c6.3-0.3,15.4-1.5,18-3.7
		c-2.1-0.9-7.7-3.1-18-4V426.5z"/>
	<path class="st0" d="M300,392.5c-0.6-0.1-1.3-0.2-1.9-0.2v2.6c4.1,0.5,18.9,2.9,18.3,9.5l0,0.3l-0.2,0.2c-0.2,0.3-5.1,6.1-23.4,7
		l0,1.4c14.8-0.9,37.4-4.3,38.7-10.1C329,396.4,307.9,393.2,300,392.5z"/>
	<path class="st0" d="M244.6,379.4c-7.2,0.4-13,1-16.4,1.4l4.6,2.1c2.5-0.5,9.5-1.1,11.9-1.3V379.4z"/>
	<path class="st0" d="M324.3,389.1l-3-1.1c-13.1-4.5-42.5-7-42.8-7l0.1-1c-11.5-1.1-22.8-1.1-32.1-0.7v9.4c5.8-0.1,35-0.7,53.7,1.8
		c1.1,0.1,24.1,2.2,31.2,9.3l0-2.6C331.5,395.6,331,391.2,324.3,389.1z"/>
	<path class="st0" d="M239.8,389.6c0,0,3.1,0.1,4.7,0v-6c-2.6,0.2-9.8,0.9-11.8,1.3l-0.3,0.1l-7.9-3.7l-0.8,0.1v-3
		c-1.5-0.4-5.1-1.4-6.7-2.3c-5.2,0.9-18.2,4.6-17.9,10.6c0,0,1.1,3.8,11.9,7.2c2.9-0.8,7.1-1.7,12.9-2.5c-5.8-1.2-14.7-3.4-17.8-5.8
		l0.8-1.7C207.1,383.9,226.9,389.3,239.8,389.6z"/>
	<path class="st0" d="M293,453.7c-3.9-0.3-22.4-1.6-42.6-0.7c-2.9-0.2-5.7,0.2-6.1,0.8v6.6h57.5v-4.2h-1.1v-2H293V453.7z"/>
	<rect x="173" y="230.2" class="st0" width="26.1" height="2.4"/>
	<path class="st0" d="M234.2,423.5c-5.7-1.1-11-2.9-11.1-5.5c0.1-1,1.6-5.3,18.9-5.3c0,0,2.8-0.1,7.1-0.1c5.1,0,12,0,18.9,0.1
		c-16.8-1.5-31.5-0.6-31.7-0.6c-18.3-0.2-24,3.9-25.2,5.1c0.7,0.9,4.5,4.6,22.8,6.3C234,423.5,234.1,423.5,234.2,423.5z"/>
	<path class="st0" d="M239.2,438.1v-4.2c-9.4,0.1-14,1.1-15.4,2C225,436.5,229,437.8,239.2,438.1z"/>
	<path class="st0" d="M398,229.8v-16.9h-2.6V232c0.4,0,0.8,0,1.1,0C397.5,232,398,231.2,398,229.8z"/>
	<path class="st0" d="M280.2,371.9v7.3c1.5,0.1,3.9,0.4,7,0.7c0.6-0.8,1.2-4,1.4-7.4C286.3,372.3,283.4,372.1,280.2,371.9z"/>
	<path class="st0" d="M288.2,451.5c2.2,0.1,3.8,0.2,4.8,0.3v-4.6h-3.6v-7.4h-1.2V451.5z"/>
	<path class="st0" d="M243.8,432c24.1-0.7,42.8,1.7,43,1.7l1.1,0.1l0.2-9.3c-1.7-0.1-3.5-0.2-5.5-0.3c-0.2,0-19.3-0.8-33.3-0.3l-1,0
		v-9.6c-3.8,0-6.2,0.1-6.2,0.1c-14.2,0-16.7,2.9-17,3.5c0.6,2.1,11.4,4.3,21.5,5.2l-0.1,1.9c-3.6-0.2-10.4,0.2-12.3,0.3l0,0
		c-4.5,0.6-9.6,1.7-10.6,2.5v5.9c2-0.9,6.5-1.8,16.7-1.9C242.4,432,243.8,432,243.8,432z"/>
	<path class="st0" d="M250.3,451.1c14.3-0.6,27.8-0.2,35.9,0.3v-7.3c-17.4-1.9-42.9,0.4-45.7,0.6l0,7.9h2.1c0.1-0.1,0.1-0.2,0.2-0.3
		C244.6,450.9,249.4,451,250.3,451.1z"/>
	<rect x="173" y="223.2" class="st0" width="26.1" height="2.6"/>
	<path class="st0" d="M243.8,433.9c-0.1,0-1.1,0-2.7,0v4.2v4.6c5.2-0.5,28.6-2.4,45.1-0.6l0-5.7h-0.8v-1
		C281.2,435,264.5,433.3,243.8,433.9z"/>
	<path class="st0" d="M290.8,416.2L290.8,416.2c-9.3-1.6-28.8-1.8-40.5-1.8v7.6c13.9-0.4,32.2,0.3,32.4,0.3
		c14.9,0.3,22.8,3,25.9,4.4v-6.1c-1.4-0.8-6.6-3.3-16.8-4.3L290.8,416.2z"/>
	<path class="st0" d="M273.2,348.6c0.9,0.1,19.9,2.6,28.2,4.5v-1.9c-7.4-3.6-31.8-8.5-32.8-8.7l-0.9,0v-0.1
		c-10.8-1.3-30.9-0.7-33.5-0.7l0,0.2c-0.2,0-19.9,1.4-30.1,8.3c-0.3,0.1-3.5,1.6-4.2,5.8c3.5-1.5,12.5-4.7,28.5-7
		C228.7,348.9,251.8,346.4,273.2,348.6z"/>
	<path class="st0" d="M277,354.7c16.6,1.1,26.8,2.4,32.2,3.3v-0.2l-7.1-2.5c-7.4-1.9-28.9-4.7-29.1-4.7c-21.2-2.2-44.1,0.3-44.3,0.3
		c-17.3,2.4-26.4,6.1-28.8,7.2v0l-0.4,0.2c-0.2,0.1-0.3,0.1-0.3,0.1l0,0c-0.6,0.3-5.3,2.6-6.3,7c7.9-3.7,16.7-5.5,17.1-5.6
		C244.7,352.1,276.7,354.7,277,354.7z"/>
	<path class="st0" d="M242.5,339.6v-0.4c-2-0.7-6.6-2.9-6.8-7.1c-0.1-0.3-0.6-4.7,10.7-7.4l1.4-0.3l0,1.1v4.5
		c2.5-0.4,8.9-1.2,12.6-1.2c1.6-0.2,17.1-2.5,28.7-2.8c-9.6-5.1-23.7-5.8-23.9-5.8c-15-1.2-26.8,2.1-26.9,2.2
		c-10,2.5-12.6,6.7-13.2,7.8v1.9c0,0,1.5,5.2,8.8,7.8C234.4,339.8,237.8,339.6,242.5,339.6z"/>
	<path class="st0" d="M237.8,320.5c0.5-0.1,12.2-3.4,27.5-2.2c0.7,0,17.7,0.9,27.4,7.7c0.6,0,1.1,0,1.7,0.1v-2.9
		c-0.7-1.1-4.6-7.2-15.4-9.9l-0.7-0.2c-2.9-0.5-13.3-1-19.7-1.1l0,0l-0.1,0c-0.3,0-28.5,0.2-33.4,10.9v4
		C227.1,324.8,230.8,322.2,237.8,320.5z"/>
	<path class="st0" d="M278.3,305.4l-2.2-1.9v-8.1l-3.8-2.9v-1.3h-0.5v-4.7l-2.6-0.5l-1.1,0.9v8.7l-4.3,3.1l-0.9,0.1l-1.5,1.2
		l-0.1,7.3l-1.2,2.4c3.9,0.1,14.3,0.4,18.3,1.1V305.4z"/>
	<path class="st0" d="M256.9,365.9c0.3,0,31.5-0.6,56.7,3.1c1.3,0.2,28.7,4.4,36.2,13.3v-5.7c0,0-2.6-10-36.1-15.9l0,0
		c0,0-0.2-0.1-0.6-0.1l-0.4-0.1l0,0c-3.1-0.6-14-2.5-35.8-3.9c-0.3,0-32.1-2.5-66.6,5.1c-0.1,0-9.8,2-17.7,5.9l0,0.1l-0.5,0.3
		c-0.1,0-6.1,3.4-6.3,7.4l-0.2,4.1c2.3-2.3,6.8-5.4,16-7.9C201.8,371.6,223.7,365.4,256.9,365.9z"/>
	<path class="st0" d="M210.9,413.7v1.2c2.8-1.9,9.7-4.9,25.3-4.7c0.2,0,26.9-1.8,49.7,3.2l4.9,0.8v-0.7v-4c0-0.2,0-1.3-1.6-2.1
		c0,0-2.5-1-5.3-1l-1,0v-3.5l1,0c2.6,0,9.6-0.2,12.2-1.1V401c0,0,0,0,0-0.1c0,0,0,0,0-0.1V392c-20-2.1-48.3-1.4-50.4-1.3l0,0.8
		c-30.9,1.4-39.1,5.8-40.1,6.4l-0.1,0.1c-1.3,0.9-2.8,2.2-3,2.8l0,8.5c0,0,0.4,2.3,7.6,4.2L210.9,413.7z"/>
	<path class="st0" d="M663.7,167.9l-0.7-5.2h-5.3H400H142.3H137l-0.7,5.2c-0.2,1.2-4.1,30.7-4.1,74.5c0,40.4,3.5,101.1,20.3,160.3
		c18.9,66.8,44.5,122.3,78.2,169.6c20.1,28.2,43.5,53.9,69.6,76.5c28.4,24.7,61.1,46.4,96.9,64.7l2.7,1.4l2.7-1.4
		c35.9-18.3,68.5-40.1,96.9-64.7c26.1-22.6,49.5-48.4,69.6-76.5c33.7-47.3,59.3-102.8,78.2-169.6c16.8-59.2,20.3-119.8,20.3-160.3
		C667.7,198.5,663.8,169.1,663.7,167.9z M381.3,196.2h22.8v5.7h-8.8v5.3h7.5v25.4c0,3.1-1.2,4.7-3.5,4.8c-0.3,0.1-0.8,0.2-1.5,0.2
		c-0.6,0.1-1,0.2-1.3,0.2c-0.1-0.4-0.3-0.9-0.4-1.5c-0.3-0.9-0.5-1.5-0.7-2v10.5h-5.9v-32h-2.2v25.2h-4.8v-30.9h7v-5.3h-8.1V196.2z
		 M374.8,194.3h5.5v25.2c0.3,11.1-2.2,19.8-7.5,26.1c-1.8-1.3-3.5-2.6-5.3-3.9c5.3-5.6,7.7-13.1,7.2-22.6V194.3z M372.6,230.2h-5
		v-28.9h5V230.2z M356.3,194c2,2.2,3.6,4.4,4.6,6.6c1.3-2,2.6-4.1,3.7-6.1l4.8,3.1c-1.9,3.1-3.9,6.1-6.1,9
		c2.3,8.2,3.1,18.6,2.2,31.3c-0.6,4.4-2.7,6.6-6.4,6.6c-1.8,0.1-3.3,0.2-4.6,0.2c-0.3-2.2-0.7-4.3-1.1-6.4c0.9,0.3,2,0.4,3.3,0.4
		c1.8,0,2.8-0.8,3.1-2.4c0.3-3.9,0.3-4.3,0-1.1c0.3-3.2,0.4-6.5,0.4-9.9c-1.5,2.6-3.2,5-5.3,7.2c-0.6-2-1.5-4.2-2.6-6.4
		c3.1-3.1,5.5-6.4,7.2-9.9c-0.1-1.6-0.4-3.1-0.7-4.4c-1.3,1.3-2.6,2.6-3.9,3.7c-0.6-1.8-1.5-3.7-2.6-5.9c0.3-0.3,0.8-0.8,1.5-1.5
		c1.3-1.2,2.3-2.2,3.1-3.1c-1.3-3.1-2.9-5.8-4.8-8.3L356.3,194z M309.1,198h29.1v7h-10.7v31.1h12.3v6.6h-32.7v-3.3
		c-1,0.1-2.6,0.4-4.6,0.7c-5.7,0.7-9.9,1.4-12.7,2l-1.3-6.8c6.6-0.9,13-1.8,19.3-2.6c-0.1,1.2-0.2,2.3-0.2,3.5h12.5V205h-11V198z
		 M297.7,193.8l7.2,2.8c-3.4,5.7-6.1,10.1-8.3,13.1c1.2,0,2.6-0.1,4.2-0.2c1.3-1.9,2.5-3.9,3.5-6.1l6.6,3.5
		c-2.9,5.1-6.8,10.7-11.6,16.9c3.1-0.3,6.1-0.7,9-1.1c-0.4,2.9-0.7,5.3-0.7,7c-8.3,0.6-13.6,1.3-15.8,2.2l-2.8-7
		c1.8-0.6,4.4-3.6,7.9-9c-2.9,0.1-5,0.4-6.4,0.9l-2.2-6.4C290.2,209,293.3,203.5,297.7,193.8z M230.3,198.6h9.6
		c0.7-1.8,1.4-3.3,2-4.6l7.5,1.1c-0.3,0.3-0.7,0.9-1.1,1.8c-0.6,0.7-1,1.3-1.3,1.8h22.4c-0.1,3.9-0.4,7.2-0.7,9.6
		c-0.4,5.3-3.4,7.9-9,7.9c-2.2,0.1-4.3,0.1-6.4,0c-0.1-1.2-0.4-2.8-0.9-4.8c-0.1-0.4-0.2-0.7-0.2-0.9l-1.8,4.2
		c-1.8-0.9-4.3-2-7.7-3.5c-1-0.4-1.8-0.8-2.4-1.1l2.8-5c2.9,1,6.2,2.4,9.9,4.2l-0.7,1.1c2,0.1,4,0.2,5.9,0.2c2.2,0,3.4-1.2,3.5-3.5
		c0-1,0.1-2,0.2-2.8h-24.5v13.6h36.6c0,1-0.1,2.7-0.2,5c-0.3,4.7-0.5,8.4-0.7,11.2c-0.1,7-3.7,10.5-10.7,10.5c-1.5,0-5,0-10.7,0
		c-0.3-1.3-0.6-3-0.9-5c0-0.3,0-0.5,0-0.7c3.1,0.3,6.6,0.4,10.7,0.4c2.6,0,4-1.8,4.2-5.3c0.1-2.3,0.4-5.8,0.7-10.5h-36.2V198.6z
		 M227.5,226h6.4v5.9h6.8v-7.5h6.6v7.5h6.8V226h6.4v11.8h-32.9V226z M160.7,211.6h21.7v-2.4h-18.6v-4.4h18.6v-2.6H162v-4.4h20.4
		v-3.9h7.5v3.9h20.4v4.4h-20.4v2.6h18.6v4.4h-18.6v2.4h21.7v4.6h-50.8V211.6z M173,244.9h-7v-26.5h40.1v20.4c0,3.6-2,5.6-6.1,5.9
		c-1.9,0.1-5.3,0.2-10.1,0.2c0-0.1-0.1-0.4-0.2-0.9c-0.3-1.2-0.7-2.7-1.3-4.6c0.4,0,1.2,0.1,2.2,0.2c2,0.1,4.1,0.2,6.1,0.2
		c1.6,0,2.4-0.7,2.4-2.2V237H173V244.9z M200.7,409.2v-8.7c0.2-1.1,1.2-2.1,2.2-3c-19.2-5.3-19.5-12.8-19.5-13.2l0.1-1.7l0,0
		c0,0,0-0.1,0.1-0.2l0.3-7.2c0.2-4.4,5.2-7.8,6.8-8.7c0.2-5.8,5.5-8.9,7.2-9.8c0.3-6.2,5.1-8.3,5.3-8.4c7.8-5.3,20.8-7.4,27.2-8.1
		c-5.8-3.2-7-7.9-7.1-8.1l0-2.3l-0.1,0c0,0,0-0.1,0.1-0.2l0-7.3l0.1-0.2c4.7-11.2,30.2-12.2,34.6-12.3l1.5-3v-7.6l2.7-2.1l1.2-0.2
		l2.9-2.2v-8.7l2.5-2.1l5.1,1v4.3h0.5v2.3l3.8,2.9v8.2l2.2,1.9v7c12.2,3.3,15.9,10.6,16,10.9l0.1,0.4v3.3
		c27.6,3.4,31.4,11.8,31.6,12.2l0.1,0.4v9.7c-0.4,6.5-10.5,9.6-13.1,10.3c0,0.1,0,0.2,0,0.3c34.5,6.2,36.7,17,36.8,17.4l0,8.8
		c0.1,8.9-14.7,12.8-18.3,13.6v4.4c-1.5,8-26.1,10.8-36.9,11.7c9.5,1.5,13.4,4.2,13.6,4.3l0.4,0.3v9.3l-0.2,0.2
		c-2.6,4-16.4,4.9-20.5,5.1v1.5h-1.6v2.1h3v7.4h3.6v7h7.6v2h1.1v8.1h-61.3v-7.7h-3l-0.7-1.8V443l0.6-0.1V440
		c-14.3-0.3-17.1-2.8-17.4-3.1l-0.3-0.3l0.1-9.4c0.4-1.1,2.8-1.9,5.7-2.6c-16.8-2.4-18.2-6.7-18.3-7.6l0-2
		C201.1,412.9,200.7,409.8,200.7,409.2z M400,708.1c-29.4-15-55.4-31.7-78.5-49.7c7.2-11.1,20.3-27.7,37.8-35.3
		c27.6-12,62.2-16.5,88.7-7c22.7,8.2,34.8,15.2,59.9,17.1C478.3,660.9,442.8,686.3,400,708.1z M524.6,616.7
		c-13.9-1.9-34.2-5.6-53.4-12.1c-33.6-11.5-39.6-18.6-70.7-20.1c-30-1.5-64.2,5.1-113.5,43.9c-11.3-10.9-21.7-22.2-31.4-33.8
		c17.2-14.1,49.4-35.4,88.7-36.7c59.2-2,97.3,14,121.8,23.1c20.9,7.7,53.1,10.6,82.1,8.9C540.9,599,533,607.9,524.6,616.7z
		 M577.3,549.5c-25.8,4.8-65,9.5-102.1,3.9c-62.7-9.5-116.3-31.6-170-22.1c-37.3,6.6-57.7,16.4-75,29.5c-7.8-11.5-15-23.2-21.6-35.1
		c13.6-9.6,48-30.9,87.6-32c51.1-1.5,98.8,25.6,161.9,41.1c47.5,11.7,105.3-5.3,141.4-24.4C592.8,523.6,585.4,536.7,577.3,549.5z
		 M610.1,428l-7-10.5c0,0-11,28.6-42.1,44.6l-6.5-6.5c0,0-19.1,0.5-43.1,49.6c0,0-8.5,0-19.1-3.5l-0.5,7c0,0-59.2-5.5-90.2-61.7
		c-4.5-8.5,1-25.6,9.5-32.1c0,0-7-4-26.1,4c0,0-16.4-17-0.7-35.8l-8.1-9.6v-16.5l-9.3-7.6c0,0-6.7-24.4,39.8-40.4v-5.3l-6,1
		c0,0,0.7-9,9-12.4c0,0-2-6.7-8.4-11.4c0,0-0.8-8.9,4.2-9.4c0,0-1-4.5,8-2.5c0,0,0-11,0-15.5c0-4.5,7-10.5,16-11
		c0,0-3.5-20.1,34.6-15l5-11.5c0,0,67.2-8,113.3,34.1C628.6,292.2,651.2,358.3,610.1,428z"/>
	<path class="st0" d="M207.8,394.8c-9.7-3.6-10.6-7.5-10.7-8c-0.4-8.9,18.6-12.5,19.5-12.7c31.5-8.6,78.9-3,79.4-2.9
		c28.6,2.2,40.3,12,40.8,12.4c1.3,1.7,1.6,3.2,1.2,4.7c-0.8,2.9-4.1,4.9-5.3,5.5c0.5,1.2,0.6,2.2,0.7,3c3.7-0.9,15.4-4.3,16.3-10.8
		c-1.7-8.3-26.8-13.8-36.3-15.2c-25-3.7-56.1-3-56.4-3c-32.9-0.5-54.6,5.6-54.8,5.7c-13.1,3.5-16.1,8.3-16.7,9.4l-0.1,1.5
		c0,0,0.5,6.8,19.5,11.6C205.4,395.8,206.3,395.4,207.8,394.8z"/>
	<path class="st0" d="M290.5,374.1c1-0.3,2.3-0.7,3.5-1.1c-0.9-0.1-2-0.2-3.4-0.3C290.6,373.1,290.5,373.6,290.5,374.1z"/>
	<path class="st0" d="M296.1,336.4c7.6,2.2,17.2,5.7,18.6,9.2c0.1,0.4,0.7,5.4,0.4,11c3-0.9,10.6-3.5,11-8.2
		C323.3,340.1,306.8,337.3,296.1,336.4z"/>
	<path class="st0" d="M336.1,387.9c0.2-1,0-1.9-0.7-2.9c0,0-0.4-0.3-1-0.7c-1,0.8-3.7,2.7-7,4c2.2,1.1,3.6,2.5,4.5,3.9
		C333.1,391.5,335.6,389.9,336.1,387.9z"/>
	<path class="st0" d="M289.2,380.1c1,0.1,2.1,0.2,3.2,0.4v-0.7l-2.7-1.2C289.6,379.2,289.4,379.7,289.2,380.1z"/>
	<path class="st0" d="M240.5,328.9c0.7,0.7,2.2,1.9,5.4,2.8v-4.8C243.4,327.5,241.7,328.2,240.5,328.9z"/>
	<path class="st0" d="M290.1,376.7l4.2,1.9v2.2c10.5,1.4,23.6,3.5,30.1,6.4c3.4-0.9,6.5-2.9,8.1-4c-4.7-2.8-15.7-7.9-34.3-9.7
		c-1.3,0.5-5.6,2.2-8,2.7C290.2,376.3,290.2,376.5,290.1,376.7z"/>
	<path class="st0" d="M267.8,337.5c-4.7,0.2-8.8,1.2-11.6,2.2c4.2,0.1,8.3,0.4,11.6,0.8V337.5z"/>
	<path class="st0" d="M238.9,330c-1.3,1.1-1.2,1.9-1.2,1.9c0.1,3,3.6,4.7,5.4,5.4c0.6-0.8,1.8-2.1,4-3.5
		C242.1,332.8,239.8,331,238.9,330z"/>
	<path class="st0" d="M260.6,330.7c-4.2,0.9-7.3,2.1-9.7,3.2l-0.9,0.4c-3.6,1.8-5.1,3.6-5.6,4.3v0.9c2.1,0,4.5,0,6.8,0l0-0.1
		c0.3-0.2,7.8-3.9,17.5-4l1,0v5.1c5.9,0.3,35.9,2.3,43.6,12.4c0-3.8-0.4-6.8-0.4-6.9c-1.3-3.3-16.8-8-26.3-10.2l0.2-1.9
		c1.4,0,30.8,0.2,39.3,10.7l0-5.7c-0.6-1.1-5.9-8.1-30.8-11C284.3,327.2,260.8,330.7,260.6,330.7z"/>
	<path class="st0" d="M313,358.6c0-0.2,0.1-0.5,0.1-0.8c0-0.2,0-0.4,0-0.6l-0.1-0.4c-1.3-7.1-15.7-10.9-28.5-12.8
		c7.2,1.7,14.9,3.9,18.3,5.7l0.5,0.3v3.6l7.8,2.8v1.9C311.9,358.4,312.5,358.5,313,358.6z"/>
</g>
<g>
	<g>
		<path class="st0" d="M228.8,128.3c0,5.3,0,10.6,0,15.9c0,1.1-0.2,1.3-1.3,1.3c-3.2,0-6.5,0-9.7,0c-0.7,0-1.2-0.3-1.4-0.9
			c-0.8-2.1-1.7-4.2-2.5-6.3c-1.4-3.6-2.9-7.1-4.3-10.7c-1.4-3.6-2.9-7.1-4.3-10.7c-0.2-0.5-1.3-0.8-1.6-0.5
			c-0.1,0.1-0.1,0.3-0.1,0.5c0.1,4,0.1,8.1,0.2,12.1c0.1,5.2,0.1,10.3,0.2,15.5c0,0.8-0.2,1-1,1c-1.5,0-3.1,0-4.6,0
			c-0.7,0-1-0.3-1-1c0-0.2,0-0.3,0-0.5c0-10.5,0-21,0-31.4c0-0.2,0-0.5,0-0.7c0.1-0.6,0.5-0.7,1-0.7c2.8,0,5.6,0,8.4,0
			c0.7,0,1.5,0,2.2,0c0.6,0,1,0.3,1.2,0.8c1.6,4.2,3.3,8.3,4.9,12.5c1.7,4.3,3.4,8.5,5,12.8c0.5,1.2,1,2.5,1.5,3.7
			c0.1,0.3,0.2,0.6,0.6,0.5c0.1-0.1,0.3-0.4,0.3-0.6c-0.1-8.4-0.2-16.9-0.2-25.3c0-1.1,0-2.2,0-3.4c0-0.7,0.2-0.9,0.9-0.9
			c1.5,0,3,0,4.5,0c0.9,0,1.1,0.3,1.1,1.2C228.8,117.6,228.8,122.9,228.8,128.3z"/>
		<path class="st0" d="M161.5,146c0.2,1.2,0.4,2.3,0.7,3.3c0,0.1,0.4,0.3,0.6,0.3c2.3,0,4.6,0,6.9,0c1.1,0,1.3,0.1,1.3,1.3
			c0,1,0,1.9,0,2.9c0,0.6-0.3,0.9-0.8,0.9c-2.6,0-5.2,0-7.8-0.1c-2-0.1-3.4-1.3-4.3-3c-0.9-1.5-1.4-3.1-1.7-4.8
			c-0.1-0.6-0.4-0.9-1-1c-1.5-0.3-3.1-0.6-4.5-1.1c-3.4-1.2-5.6-3.7-6.8-7.1c-1.1-3.1-1.2-6.3-1.2-9.5c0-2.3,0.1-4.5,0.6-6.7
			c0.7-3.3,2-6.2,4.9-8.2c2-1.4,4.2-2.1,6.6-2.3c2.1-0.2,4.2-0.3,6.3-0.2c2.6,0.1,5.1,0.6,7.4,1.8c2.7,1.4,4.4,3.6,5.4,6.4
			c1.1,3.2,1.3,6.5,1.3,9.9c0,2.2-0.1,4.5-0.6,6.7c-0.7,3.4-2.1,6.3-5,8.3c-1.8,1.2-3.8,1.8-5.9,2.1
			C163,145.8,162.3,145.9,161.5,146z M168.4,128.3c-0.1,0-0.1,0-0.2,0c0-1.3,0.1-2.6,0-3.9c-0.1-1.7-0.3-3.4-1-4.9
			c-1.1-2.5-3.3-3.6-5.8-3.9c-2-0.2-4-0.2-6,0.2c-1.3,0.3-2.4,0.8-3.4,1.8c-1.3,1.3-1.9,3-2.1,4.8c-0.5,4.3-0.6,8.6,0.2,12.9
			c0.7,3.8,2.9,5.3,6.2,5.8c2.1,0.3,4.1,0.3,6.2-0.2c1.3-0.3,2.5-0.8,3.4-1.8c1.3-1.4,1.9-3.1,2.1-5
			C168.2,132.1,168.3,130.2,168.4,128.3z"/>
		<path class="st0" d="M273.4,128.2c0-5.3,0-10.5,0-15.8c0-0.3,0-0.6,0.1-0.8c0.2-0.3,0.4-0.4,0.7-0.6c0.1-0.1,0.4,0,0.6,0
			c5,0,10,0,14.9,0.1c2.4,0,4.9,0.4,7.1,1.4c2.9,1.2,4.7,3.4,5.7,6.3c1.1,3.1,1.3,6.4,1.3,9.7c0,2.2-0.1,4.5-0.6,6.7
			c-0.6,2.7-1.6,5.3-3.8,7.2c-1.4,1.2-3,1.9-4.7,2.4c-2.5,0.6-5.1,0.7-7.7,0.7c-4.1,0-8.3,0-12.4,0c-1.1,0-1.3-0.2-1.3-1.3
			C273.4,138.9,273.4,133.6,273.4,128.2z M280.1,128.2c0,3.9,0,7.8,0,11.6c0,0.7,0,0.7,0.8,0.7c2.1,0,4.2,0,6.3,0
			c1.3,0,2.6-0.1,3.9-0.3c1.8-0.3,3.3-1.1,4.2-2.7c0.7-1.1,1.1-2.3,1.2-3.5c0.6-4.2,0.7-8.4-0.2-12.6c-0.3-1.3-0.8-2.5-1.8-3.5
			c-1.4-1.4-3.1-1.8-5-1.9c-2.9-0.1-5.8-0.1-8.7-0.1c-0.7,0-0.7,0-0.7,0.7C280.1,120.5,280.1,124.4,280.1,128.2z"/>
		<path class="st0" d="M375.6,128.3c0,0.9,0,1.9,0,2.8c-0.1,2.9-0.6,5.7-1.9,8.3c-1.2,2.3-3,4-5.3,5c-2,0.9-4.1,1.3-6.3,1.5
			c-2.5,0.2-5,0.2-7.4-0.2c-3.2-0.5-6-1.6-8.2-4.2c-1.3-1.6-2.1-3.4-2.6-5.4c-0.9-3.8-0.9-7.6-0.7-11.4c0.2-2.6,0.7-5.2,1.9-7.6
			c1.4-2.8,3.7-4.6,6.6-5.5c3.8-1.2,7.7-1.2,11.6-0.8c1.8,0.2,3.6,0.7,5.2,1.5c2.4,1.1,4.1,2.9,5.3,5.3c0.8,1.8,1.3,3.7,1.5,5.6
			c0.2,1.7,0.2,3.4,0.3,5.1C375.7,128.3,375.6,128.3,375.6,128.3z M368.9,128.3c-0.1,0-0.1,0-0.2,0c0-1.3,0.1-2.6,0-3.9
			c-0.1-1.7-0.3-3.4-1-4.9c-1.1-2.5-3.3-3.6-5.8-3.9c-2-0.2-4-0.2-6,0.2c-1.8,0.4-3.3,1.3-4.3,3c-0.8,1.4-1.1,2.9-1.2,4.5
			c-0.3,4-0.5,8,0.3,12c0.8,3.8,2.9,5.3,6.2,5.8c2.1,0.3,4.3,0.3,6.4-0.2c1.2-0.3,2.3-0.8,3.2-1.8c1.3-1.4,1.9-3.1,2.1-5
			C368.7,132.1,368.7,130.2,368.9,128.3z"/>
		<path class="st0" d="M265.4,133.8c0,2.4,0,4.8,0,7.2c0,0.7-0.1,1.3-0.3,2c-0.4,1.2-1.5,1.7-2.6,2c-4.4,1.1-8.9,1.3-13.4,0.9
			c-2.2-0.2-4.4-0.6-6.4-1.6c-2.6-1.2-4.4-3.2-5.4-5.8c-1-2.6-1.4-5.2-1.4-8c0-2.4,0-4.8,0.3-7.3c0.3-3,1.2-5.8,3.1-8.2
			c1.2-1.5,2.8-2.5,4.6-3.2c2.9-1.1,5.9-1.3,8.9-1.3c2.7,0,5.5,0.3,8.2,0.8c1.3,0.3,2.6,0.6,3.8,1c0.8,0.2,1,0.6,0.8,1.4
			c-0.2,0.9-0.4,1.8-0.6,2.7c-0.1,0.6-0.5,0.8-1.1,0.7c-1.5-0.3-2.9-0.7-4.4-1c-3.5-0.6-7-0.9-10.5-0.1c-2.9,0.7-4.7,2.5-5.5,5.4
			c-1,3.8-0.9,7.6-0.5,11.4c0.2,1.6,0.5,3.1,1.3,4.5c1,1.9,2.7,3,4.8,3.4c3.2,0.7,6.3,0.5,9.5,0c0.3-0.1,0.5-0.2,0.5-0.5
			c0-3,0-6,0-9c0-0.3-0.1-0.5-0.5-0.5c-1.5-0.2-3-0.4-4.5-0.5c-1.1-0.1-1.2-0.2-1.2-1.3c0-0.9,0-1.7,0-2.6c0-0.7,0.2-0.9,0.9-0.9
			c0.4,0,0.7,0,1.1,0c3.2,0,6.3,0,9.5,0c1.1,0,1.3,0.2,1.3,1.3C265.4,129.1,265.4,131.4,265.4,133.8
			C265.4,133.8,265.4,133.8,265.4,133.8z"/>
		<path class="st0" d="M336.5,145.4c-0.8,0-1.7,0-2.5,0c-0.5,0-0.9-0.2-1-0.7c-1-3.1-2-6.3-3-9.4c-0.2-0.7-0.5-1.3-0.6-2
			c-0.1-0.6-0.4-0.7-1-0.7c-2.1,0-4.2,0-6.4,0c-1.5,0-3,0-4.5,0c-0.5,0-0.7,0.2-0.9,0.6c-0.6,2-1.2,3.9-1.8,5.9
			c-0.6,1.9-1.2,3.8-1.8,5.6c-0.2,0.5-0.5,0.7-1,0.7c-1.7,0-3.3,0-5,0c-0.8,0-1-0.3-0.8-1.1c0.3-0.8,0.5-1.6,0.8-2.4
			c0.9-2.6,1.7-5.1,2.6-7.7c0.9-2.8,1.9-5.6,2.8-8.3c0.9-2.5,1.7-5,2.5-7.6c0.7-2.2,1.5-4.4,2.2-6.5c0.2-0.5,0.5-0.7,1-0.7
			c3.2,0,6.4,0,9.6,0c0.6,0,0.9,0.3,1.1,0.9c1.1,3.3,2.2,6.6,3.3,9.8c1,3.1,2.1,6.1,3.1,9.2c1.1,3.3,2.2,6.6,3.3,9.9
			c0.4,1.1,0.7,2.2,1.1,3.3c0.3,0.9,0.1,1.2-0.9,1.2C338,145.4,337.2,145.4,336.5,145.4z M322.8,127.7c1.4,0,2.8,0,4.1,0
			c0.6,0,0.7-0.1,0.5-0.7c-0.2-0.6-0.4-1.2-0.6-1.8c-0.9-2.7-1.7-5.4-2.6-8.1c-0.5-1.5-0.1-1.3-1.8-1.4c-0.5,0-0.7,0.2-0.9,0.6
			c-1.1,3.6-2.2,7.1-3.3,10.7c-0.2,0.6-0.2,0.6,0.4,0.6C320.2,127.7,321.5,127.7,322.8,127.7z"/>
		<path class="st0" d="M188.8,128c0,5.4,0,10.8,0,16.2c0,1.1-0.2,1.3-1.3,1.3c-1.5,0-2.9,0-4.4,0c-0.7,0-1-0.3-1-1
			c0-0.1,0-0.3,0-0.4c0-10.5,0-21.1,0-31.6c0-1.1,0.1-1.2,1.2-1.4c1.5-0.2,2.9-0.4,4.4-0.5c0.9-0.1,1.1,0.1,1.1,1
			C188.8,117.1,188.8,122.5,188.8,128z"/>
	</g>
	<g>
		<path class="st0" d="M462.8,128.4c0-5.5,0-11,0-16.5c0-0.2,0-0.5,0.2-0.7c0.1-0.1,0.3-0.2,0.4-0.3c0.2-0.1,0.4,0,0.5,0
			c4.5,0,9,0,13.5,0c1.5,0,3,0.1,4.6,0.2c1.3,0.1,2.5,0.4,3.7,0.8c1.2,0.4,2.4,1,3.4,1.8c1.3,1,2.2,2.2,2.9,3.7
			c0.6,1.2,1,2.5,1.3,3.8c0.2,1.2,0.4,2.5,0.5,3.7c0.2,1.7,0.2,3.5,0.1,5.2c0,1.4-0.1,2.8-0.4,4.1c-0.2,0.8-0.3,1.7-0.5,2.5
			c-0.7,2.5-1.8,4.7-3.9,6.4c-1.1,0.9-2.3,1.5-3.6,1.9c-1.6,0.5-3.2,0.8-4.8,0.9c-1.5,0.1-2.9,0.1-4.4,0.1c-4.2,0-8.4,0-12.6,0
			c-0.3,0-0.6,0-0.8-0.4c-0.1-0.1-0.1-0.3-0.1-0.4c0-0.1,0-0.3,0-0.4C462.8,139.3,462.8,133.9,462.8,128.4z M469.6,128.4
			c0,4,0,8.1,0,12.1c0,0.1,0,0.2,0,0.3c0,0.2,0.1,0.3,0.2,0.3c0.1,0,0.2,0,0.3,0c2.1,0,4.3,0,6.4,0c1.1,0,2.3-0.1,3.4-0.2
			c1-0.1,1.9-0.3,2.8-0.8c0.9-0.4,1.6-1,2.2-1.8c0.5-0.8,0.9-1.6,1.2-2.6c0.2-0.9,0.4-1.7,0.5-2.6c0.1-0.9,0.2-1.8,0.2-2.8
			c0.1-2.7,0.1-5.4-0.4-8.1c-0.2-1-0.5-1.9-0.9-2.8c-0.8-1.7-2.2-2.7-3.9-3.1c-1.2-0.3-2.4-0.5-3.6-0.5c-2.7,0-5.3,0-8,0
			c-0.4,0-0.4,0-0.4,0.4C469.6,120.2,469.6,124.3,469.6,128.4z"/>
		<path class="st0" d="M394.6,128.4c0-5.5,0-10.9,0-16.4c0-0.2,0-0.3,0-0.5c0-0.3,0.3-0.5,0.5-0.6c0.2,0,0.4-0.1,0.6-0.1
			c5,0,10.1,0,15.1,0c1,0,1.9,0,2.9,0.1c1,0.1,2,0.2,3,0.5c1.1,0.3,2.1,0.7,3,1.3c1,0.7,1.7,1.5,2.2,2.5c0.5,0.8,0.7,1.8,0.9,2.7
			c0.2,1.2,0.2,2.4,0.2,3.6c0,1.1-0.2,2.1-0.6,3.1c-0.6,1.4-1.5,2.5-2.9,3.2c-1.3,0.7-2.6,1-4.1,1.2c-0.2,0-0.4,0.1-0.3,0.4
			c0,0.2,0,0.4,0,0.7c0,0.3,0.1,0.4,0.3,0.4c0.6,0.1,1.1,0.1,1.7,0.2c1.3,0.2,2.6,0.5,3.7,1.3c0.7,0.5,1.2,1.2,1.6,2
			c0.6,1.3,0.8,2.7,0.9,4.1c0.1,2.3,0.2,4.6,0.3,7c0,0.6-0.3,0.9-0.9,0.9c-1.6,0-3.3,0-4.9,0c-0.1,0-0.2,0-0.3,0
			c-0.5,0-0.7-0.3-0.7-0.7c-0.2-2.6-0.3-5.2-0.5-7.8c-0.1-1.2-0.4-2.3-1.3-3.2c-0.5-0.5-1.2-0.9-1.9-1.2c-1.1-0.4-2.2-0.6-3.4-0.6
			c-2.7-0.1-5.3-0.2-8-0.3c-0.4,0-0.4,0-0.4,0.4c0,4.1,0,8.3,0,12.4c0,0.8-0.3,1.1-1,1c-1.6,0-3.3,0-4.9,0c-0.2,0-0.4,0-0.5-0.1
			c-0.2-0.1-0.4-0.3-0.4-0.5c0-0.2,0-0.3,0-0.5C394.6,139.4,394.6,133.9,394.6,128.4z M401.4,121.7c0,1.9,0,3.7,0,5.6
			c0,0.4,0,0.4,0.4,0.4c2.5-0.1,4.9-0.2,7.4-0.3c1.3-0.1,2.5-0.2,3.8-0.6c0.7-0.2,1.3-0.6,1.9-1.1c0.9-0.9,1.2-2,1.3-3.1
			c0.1-1.3,0.1-2.7-0.4-4c-0.3-0.9-0.9-1.6-1.7-2.1c-0.9-0.5-1.9-0.7-3-0.7c-3.1,0-6.2,0-9.2,0c-0.3,0-0.3,0.1-0.3,0.3
			C401.5,118,401.4,119.8,401.4,121.7z"/>
		<path class="st0" d="M431.1,128.4c0-5.5,0-10.9,0-16.4c0-0.2,0-0.3,0-0.5c0-0.3,0.3-0.5,0.5-0.6c0.2,0,0.4-0.1,0.7-0.1
			c7.2,0,14.5,0,21.7,0c0.2,0,0.3,0,0.5,0c0.6,0,0.8,0.3,0.8,0.9c0,1,0,2.1,0,3.1c0,0.1,0,0.2,0,0.4c0,0.6-0.3,0.8-0.9,0.8
			c-0.1,0-0.2,0-0.4,0c-5.3,0-10.5,0-15.8,0c-0.4,0-0.4,0-0.4,0.4c0,2.8,0,5.6,0,8.4c0,0.4,0,0.4,0.4,0.4c5,0,10.1,0,15.1,0
			c0.1,0,0.2,0,0.4,0c0.5,0,0.8,0.3,0.9,0.9c0,1.2,0,2.4,0,3.5c0,0.5-0.3,0.8-0.8,0.8c-0.1,0-0.3,0-0.4,0c-5,0-10.1,0-15.1,0
			c-0.4,0-0.4,0-0.4,0.4c0,3.2,0,6.4,0,9.5c0,0.4,0,0.4,0.4,0.4c5.3,0,10.7,0,16,0c0.1,0,0.3,0,0.4,0c0.4,0.1,0.7,0.4,0.7,0.8
			c0,1.2,0,2.4,0,3.5c0,0.5-0.3,0.8-0.8,0.8c-0.1,0-0.1,0-0.2,0c-7.4,0-14.8,0-22.3,0c-0.2,0-0.5,0-0.7-0.2
			c-0.2-0.1-0.3-0.3-0.3-0.5c-0.1-0.1,0-0.3,0-0.5C431.1,139.3,431.1,133.9,431.1,128.4z"/>
	</g>
	<g>
		<path class="st0" d="M624.1,128.4c0,5.2,0,10.5,0,15.7c0,0.2,0,0.3,0,0.5c0,0.4-0.3,0.7-0.7,0.7c-3.5,0-7,0-10.6,0
			c-0.6,0-0.8-0.5-1-0.9c-0.8-2.1-1.7-4.1-2.5-6.2c-0.8-2-1.6-4-2.4-6c-0.7-1.8-1.5-3.7-2.2-5.5c-0.7-1.7-1.3-3.4-2-5.1
			c-0.6-1.6-1.3-3.2-1.9-4.9c-0.1-0.3-0.3-0.5-0.6-0.4c-0.2,0-0.5,0-0.7,0c-0.3,0-0.4,0.1-0.4,0.4c0,1.8,0,3.6,0.1,5.5
			c0.1,4.5,0.1,9,0.2,13.5c0,2.8,0.1,5.6,0.1,8.5c0,0.8-0.2,1-1,1c-1.6,0-3.1,0-4.7,0c-0.7,0-0.9-0.3-0.9-0.9c0-10.7,0-21.4,0-32.1
			c0-0.6,0.2-0.9,0.8-0.9c0.2,0,0.4,0,0.7,0c3.3,0,6.7,0,10,0c0.6,0,1.1,0.2,1.3,0.8c0.1,0.2,0.2,0.4,0.3,0.6
			c0.7,1.8,1.4,3.5,2.1,5.3c0.7,1.7,1.3,3.4,2,5.1c0.6,1.5,1.2,3.1,1.8,4.6c0.5,1.4,1.1,2.8,1.6,4.2c0.5,1.4,1.1,2.8,1.6,4.1
			c0.5,1.4,1.1,2.8,1.6,4.2c0.1,0.2,0.2,0.4,0.2,0.6c0.1,0.3,0.3,0.3,0.6,0.3c0.3-0.1,0.2-0.3,0.2-0.4c-0.1-7.5-0.1-15-0.2-22.5
			c0-2,0-4,0-5.9c0-0.8,0.2-1,0.9-1c1.5,0,3.1,0,4.6,0c0.8,0,1,0.2,1,1C624.1,117.8,624.1,123.1,624.1,128.4z"/>
		<path class="st0" d="M553.9,128.4c0.1-1.8,0.2-3.6,0.4-5.3c0.2-1.5,0.5-2.9,1.1-4.4c0.7-1.9,1.8-3.5,3.3-4.8
			c1.3-1.1,2.9-1.8,4.6-2.3c2.5-0.7,5-0.9,7.6-0.8c1.2,0,2.4,0.1,3.6,0.3c3.1,0.4,5.9,1.4,8.1,3.8c1.1,1.2,1.8,2.6,2.4,4.1
			c1.1,3.2,1.3,6.5,1.3,9.8c0,1.7-0.1,3.5-0.3,5.2c-0.2,1.4-0.5,2.9-1.1,4.2c-0.7,1.7-1.6,3.2-2.9,4.4c-1.1,1-2.5,1.7-3.9,2.2
			c-2.6,0.9-5.3,1.1-8.1,1.1c-1.6,0-3.2-0.1-4.8-0.4c-2.8-0.5-5.3-1.5-7.3-3.7c-1-1.1-1.7-2.4-2.3-3.8c-1-2.7-1.3-5.5-1.4-8.4
			C554,129.3,554,128.8,553.9,128.4C554,128.4,553.9,128.4,553.9,128.4z M579.3,128.4C579.3,128.4,579.3,128.4,579.3,128.4
			c0-1,0-2.1,0-3.1c-0.1-1.7-0.2-3.3-0.8-4.9c-0.3-0.9-0.7-1.7-1.3-2.4c-1-1.2-2.4-1.8-3.8-2c-2.6-0.4-5.2-0.5-7.8,0.3
			c-0.9,0.3-1.6,0.7-2.3,1.3c-1.2,1.2-1.8,2.7-2.1,4.3c-0.2,1-0.3,2-0.3,2.9c-0.1,2.2-0.1,4.5,0,6.7c0.1,1.7,0.3,3.4,0.9,5.1
			c0.5,1.3,1.2,2.3,2.3,3c1.4,0.9,3,1.2,4.6,1.3c1.6,0.1,3.2,0.1,4.8-0.3c0.8-0.2,1.6-0.5,2.3-0.9c1.5-0.9,2.3-2.3,2.8-4
			c0.4-1.4,0.6-2.8,0.6-4.2C579.3,130.5,579.3,129.5,579.3,128.4z"/>
		<path class="st0" d="M641.8,145.8c-1-0.1-2.8-0.3-4.6-0.5c-1.7-0.2-3.3-0.6-4.9-1.1c-0.5-0.2-0.7-0.5-0.7-1
			c0.1-0.6,0.2-1.1,0.3-1.7c0.1-0.5,0.2-1,0.3-1.5c0.1-0.4,0.3-0.6,0.7-0.6c0.4,0,0.7,0.1,1.1,0.2c1,0.2,2,0.5,3.1,0.7
			c0.9,0.2,1.8,0.3,2.7,0.4c1.6,0.2,3.1,0.3,4.7,0.2c1.4-0.1,2.8-0.4,4-1.1c1.6-1,2.2-2.9,1.9-4.6c-0.3-1.8-1.5-2.8-3.1-3.3
			c-1.6-0.5-3.3-0.7-4.9-1c-1.9-0.3-3.8-0.6-5.6-1.4c-1.6-0.7-3.1-1.6-4.1-3.1c-0.7-1-1.1-2.1-1.3-3.3c-0.2-1.2-0.2-2.3-0.1-3.5
			c0.2-2.3,1-4.4,2.9-6c1-0.8,2.1-1.4,3.3-1.8c2.8-1,5.8-1.1,8.7-0.9c1.7,0.1,3.3,0.3,5,0.6c1.3,0.2,2.6,0.6,3.9,0.9
			c0.6,0.2,1,0.6,0.8,1.3c-0.2,1-0.4,2-0.6,2.9c-0.1,0.4-0.4,0.6-0.8,0.6c-0.4,0-0.9-0.1-1.3-0.2c-3.2-0.8-6.4-1.3-9.6-1.1
			c-1.3,0.1-2.7,0.3-3.9,1c-1.2,0.7-1.8,1.7-1.9,3.1c-0.1,1.2,0.1,2.3,1,3.1c0.6,0.7,1.4,1,2.3,1.3c1.6,0.5,3.3,0.7,5,1
			c1.6,0.3,3.2,0.5,4.7,1c1.8,0.5,3.4,1.4,4.6,2.9c0.7,0.9,1.2,1.9,1.4,3c0.3,1.4,0.5,2.7,0.4,4.1c-0.2,2.2-0.8,4.1-2.2,5.8
			c-0.9,1-2,1.7-3.2,2.3C648.9,145.7,645.8,145.9,641.8,145.8z"/>
		<path class="st0" d="M512.8,128.4c0-5.3,0-10.6,0-15.9c0-0.7,0.2-0.9,0.9-1c1.2-0.1,2.5-0.3,3.7-0.5c0.4-0.1,0.8-0.1,1.3-0.1
			c0.5,0,0.7,0.2,0.7,0.7c0,0.2,0,0.3,0,0.5c0,9.2,0,18.3,0,27.5c0,0.6,0,0.6,0.6,0.6c4.8,0,9.6,0,14.3,0c0.2,0,0.3,0,0.5,0
			c0.4,0,0.7,0.3,0.7,0.7c0,1.3,0,2.5,0,3.8c0,0.4-0.3,0.7-0.7,0.7c-0.1,0-0.2,0-0.3,0c-6.9,0-13.7,0-20.6,0c-0.2,0-0.3,0-0.5,0
			c-0.4,0-0.6-0.3-0.6-0.7c0-0.2,0-0.3,0-0.5C512.8,138.9,512.8,133.6,512.8,128.4z"/>
		<path class="st0" d="M547.2,128.1c0,5.4,0,10.8,0,16.3c0,0.4,0,0.7-0.4,0.9c-0.2,0.1-0.3,0.1-0.5,0.1c-1.6,0-3.2,0-4.8,0
			c-0.6,0-0.9-0.3-0.9-0.9c0-4.4,0-8.8,0-13.2c0-6.3,0-12.5,0-18.8c0-0.8,0.2-0.9,0.9-1c1.2-0.1,2.4-0.3,3.7-0.5
			c0.4-0.1,0.8-0.1,1.3-0.1c0.5,0,0.7,0.2,0.7,0.6c0,0.2,0,0.3,0,0.5C547.2,117.3,547.2,122.7,547.2,128.1z"/>
	</g>
</g>
</svg>
