<?xml version="1.0" encoding="utf-8"?>
<!-- Generator: Adobe Illustrator 22.1.0, SVG Export Plug-In . SVG Version: 6.00 Build 0)  -->
<svg version="1.1" id="图层_1" xmlns="http://www.w3.org/2000/svg" xmlns:xlink="http://www.w3.org/1999/xlink" x="0px" y="0px"
	 viewBox="0 0 800 800" style="enable-background:new 0 0 800 800;" xml:space="preserve">
<style type="text/css">
	.st0{fill:#DEB639;}
	.st1{fill:#CA1C1D;}
	.st2{fill:#E4CE3C;}
	.st3{fill:#FFFFFF;}
</style>
<g>
	<g>
		<path class="st0" d="M625,148.5C516,147.5,458,50,458,50h-58h-58c0,0-58,97.5-167,98.5l-59,99.2c0,0,52,368.3,284,502.3
			c232-134,284-502.3,284-502.3L625,148.5z"/>
		<path class="st1" d="M609.2,166.2c-101.3-0.9-155.2-91.6-155.2-91.6H400h-53.9c0,0-53.9,90.6-155.2,91.6L136,258.4
			c0,0,48.3,342.4,264,467c215.7-124.6,264-467,264-467L609.2,166.2z"/>
	</g>
	<path class="st2" d="M321.3,322.1c0,0-2.5,5.5-0.8,6.4s4.9,4.3,31.1-3c0,0-2.7-6.9,0.7-11.5c3.4-4.6,2.7-8.3,90-11.7
		c0,0-31.5,2.5-47.5,9.4s-16.4,7.8-16.9,12.2s8,6.9,15,5.8s14.5-2.9,16-8.4c0,0,2.2,6.5,17.1,6.1s33.4-3.4,42.1-6.6
		s13.2-7.9,7.1-13.5c0,0,8.1,3.6,7.8,9.2s-8.6,9.5-23.6,11.6s-36.8,3-40.2,2.9s-3.9,5.2-2.8,6.6c1.2,1.5,2.8,3.4,5.9,3.5
		s33.9,0,46.1-7.1c0,0-16.2,15.9-55,16.5c-4.6,0.2-4.4,4.4-2.8,6s7.9,5.4,31.4-2.9c0,0-16.5,12.1-38.5,17.8s-36.8,3-74.3,16.5
		s-42.6,31.8-43.1,43s5.8,23.5,21.2,29.8c0,0-32.5-3.2-29.5-39.8s49.8-47.8,57.8-50.5s24.9-9.9,27.5-11.8s-2.4-4.6-8.8-3.9
		c-4.7,0.5-7.3,4.3-8.7,6.2c-1.3,1.9-3.9-0.6-15.1-8.1c0,0,3.1,1.1,17.8-4.3c2.2-0.8,5.8-2,7.1-2.5s1-2.5,0.9-3.2
		c-0.2-0.7-1.3-2.8-3.6-2.2s-33.9,8.8-36.1,9.4c-2.2,0.6-6.8-0.3-4.7-11.2C314.2,328.2,321.3,322.1,321.3,322.1z"/>
	<path class="st2" d="M508.6,300.1c0,0,22.9-13.6,28.9,13.4s-37.5,58-76.5,56c0,0,7.2,12.8-0.8,25.5s-12.4,15.6-25.4,17.2
		c0,0,20.5,4.1,37.1-10.8c7.1-6.2,6.1-17.9,6.1-17.9s35.9,0.9,66.4-32.4c15-16.5,16.8-35.5,8.8-48.5S523.2,283.4,508.6,300.1z"/>
	<path class="st2" d="M435.8,373.8c0,0,6.1,0,5.4,4.5s-2.8,17.4-31.4,23.9c-6.8,1.8-16.4,1.5-23.5,1.1s-58.5,1.4-71.8,23.2
		s4,39.6,21.6,34c0,0-68.8,29.5-83.9,39.9c0,0,28.9-8.4,42.9-10s31.1-4.5,35.9-2.2c0,0-3.8-10.2,14.6-20.2c15-8.1,22.6-8.8,25.4-9.4
		s10.6-10.2-11.8-13c-5.4-0.6-14.8-0.6-16.1-4s-3.1-12.4,12.4-22.5c8.4-5.2,23.5-7.1,35.5-7.9s20.6-1.4,26.1-1.8s30.1-4.1,35-18.9
		S444.1,368.4,435.8,373.8z"/>
	<path class="st2" d="M390.7,490.5c0,0,56.5-19.2,78.5-1.2c0,0-7-40.2,62.3-18.7c0,0-35.2-16.5-47.2-20.8c-12-4.3-31.5-8.2-33.5-9
		c-2-0.8-20.3-14.3,26.5-12.7c15.8,0.5,24.8-9.8,25.5-16.8c0.7-7-1-12.3-6.8-14.7c-5.8-2.3-9.7,1.3-9.7,2.3c0,0,5.8,0.3,5.7,7.5
		s-6.8,13.7-18.7,15.8c-11.8,2.2-37,2.7-42.7,3c-5.7,0.3-26,2.5-31.3,5.3c-5.3,2.8-7.8,6.2-6.7,8.7c1.2,2.5,1,4.3,14.7,2.7
		c13.7-1.7,52,2.2,79,13.7C486.3,455.7,430.8,461.7,390.7,490.5z"/>
	<g>
		<polygon class="st3" points="274.2,257.5 258,209.8 271,205.5 266.8,192.2 227,205.5 231.8,218.5 244.7,214.2 260.8,262 		"/>
		<polygon class="st3" points="322.8,231 305,235 302.4,223.8 320.2,219.8 317.2,206.2 299.4,210.4 296.8,199 314.8,195 
			311.8,181.5 280,188.5 294.5,251.5 325.8,244.5 		"/>
		<polygon class="st3" points="353.5,198.6 352.4,189.5 343.4,190.6 347.9,227 356.9,226.1 355.8,216.8 369.5,215.2 371.4,229 
			363.1,239.4 344.8,241.5 334.5,233.4 329,187.8 337,177.4 355.1,175.1 365.8,183.4 367.2,197 		"/>
		<polygon class="st3" points="405,237.1 418.9,236.9 418.5,172.8 404.6,172.8 404.8,198 395.6,198.2 395.4,172.8 381.6,172.8 
			382,237.1 395.9,237.1 395.7,211.9 404.9,211.9 		"/>
		<path class="st3" d="M452.7,239.2l13.7,1.2l-6.5-65.5l-18.7-1.2l-17,63L438,238l2.3-9.1l11.5,0.7L452.7,239.2z M443.8,215.4
			l4.9-19.3l1.8,19.7L443.8,215.4z"/>
		<polygon class="st3" points="483,177.7 471.5,241 485.2,243.7 489.8,218.8 494.2,245 508,247.7 519.5,184.5 505.7,181.8 
			501.3,207 497,180 		"/>
		<path class="st3" d="M562.2,196l-26.7-7.7l-18.2,61.8l26.2,7.7l12-6.2l13-44L562.2,196z M543.3,243.5l-8.8-2.8l10.5-35l8.5,2.5
			L543.3,243.5z"/>
	</g>
	<g>
		<polygon class="st3" points="357.8,572.7 348.2,572.7 348.2,566 354.8,559.3 367.8,559.3 374.7,566.2 374.7,580.8 367.9,587.6 
			358.2,587.6 358.2,595.8 374.7,595.8 374.7,605.8 348.2,605.8 348.2,584.5 354.9,577.8 364.7,577.8 364.7,569.2 358,569.2 		"/>
		<polygon class="st3" points="440.8,572.7 431.2,572.7 431.2,566 437.8,559.3 450.8,559.3 457.7,566.2 457.7,580.8 450.9,587.6 
			441.2,587.6 441.2,595.8 457.7,595.8 457.7,605.8 431.2,605.8 431.2,584.5 437.9,577.8 447.7,577.8 447.7,569.2 441,569.2 		"/>
		<rect x="414.5" y="559.3" class="st3" width="10" height="46.5"/>
		<path class="st3" d="M401.3,559.3h-13.5l-6.5,6.7v33.3l6.5,6.5h13.8l6.4-6.4V566L401.3,559.3z M397.8,595.8h-6.5v-26.5h6.5V595.8z
			"/>
	</g>
</g>
</svg>
