<?xml version="1.0" encoding="utf-8"?>
<!-- Generator: Adobe Illustrator 22.1.0, SVG Export Plug-In . SVG Version: 6.00 Build 0)  -->
<svg version="1.1" id="图层_1" xmlns="http://www.w3.org/2000/svg" xmlns:xlink="http://www.w3.org/1999/xlink" x="0px" y="0px"
	 viewBox="0 0 800 800" style="enable-background:new 0 0 800 800;" xml:space="preserve">
<style type="text/css">
	.st0{fill:#CA1C1D;}
</style>
<g>
	<path class="st0" d="M625,148.5C516,147.5,458,50,458,50h-58h-58c0,0-58,97.5-167,98.5l-59,99.2c0,0,52,368.3,284,502.3
		c232-134,284-502.3,284-502.3L625,148.5z M400,725.4c-215.7-124.6-264-467-264-467l54.8-92.2c101.3-0.9,155.2-91.6,155.2-91.6H400
		h53.9c0,0,53.9,90.6,155.2,91.6l54.8,92.2C664,258.4,615.7,600.8,400,725.4z"/>
	<path class="st0" d="M307.5,460.8c-15.5-6.2-21.8-18.5-21.2-29.8s5.6-29.5,43.1-43s52.3-10.8,74.3-16.5c22-5.7,38.5-17.8,38.5-17.8
		c-23.5,8.2-29.8,4.5-31.4,2.9s-1.9-5.8,2.8-6c38.8-0.6,55-16.5,55-16.5c-12.2,7.1-43,7.2-46.1,7.1s-4.7-2-5.9-3.5
		c-1.1-1.5-0.8-6.8,2.8-6.6s25.2-0.8,40.2-2.9s23.2-6,23.6-11.6s-7.8-9.2-7.8-9.2c6.1,5.6,1.6,10.2-7.1,13.5s-27.2,6.2-42.1,6.6
		s-17.1-6.1-17.1-6.1c-1.5,5.5-9,7.2-16,8.4s-15.5-1.2-15-5.8s0.9-5.4,16.9-12.2s47.5-9.4,47.5-9.4c-87.3,3.3-86.6,7.1-90,11.7
		c-3.4,4.6-0.7,11.5-0.7,11.5c-26.2,7.3-29.4,3.9-31.1,3s0.8-6.4,0.8-6.4s-7.1,6.1-9.2,16.9c-2.2,10.8,2.4,11.8,4.7,11.2
		c2.2-0.6,33.9-8.9,36.1-9.4c2.2-0.5,3.4,1.5,3.6,2.2c0.2,0.7,0.4,2.7-0.9,3.2s-4.9,1.8-7.1,2.5c-14.7,5.4-17.8,4.3-17.8,4.3
		c11.2,7.5,13.8,10,15.1,8.1c1.3-1.9,4-5.7,8.7-6.2c6.4-0.8,11.4,2,8.8,3.9s-19.5,9-27.5,11.8S281,384.5,278,421
		S307.5,460.8,307.5,460.8z"/>
	<path class="st0" d="M508.6,300.1c0,0,22.9-13.6,28.9,13.4s-37.5,58-76.5,56c0,0,7.2,12.8-0.8,25.5s-12.4,15.6-25.4,17.2
		c0,0,20.5,4.1,37.1-10.8c7.1-6.2,6.1-17.9,6.1-17.9s35.9,0.9,66.4-32.4c15-16.5,16.8-35.5,8.8-48.5S523.2,283.4,508.6,300.1z"/>
	<path class="st0" d="M359.2,445.5c-5.4-0.6-14.8-0.6-16.1-4s-3.1-12.4,12.4-22.5c8.4-5.2,23.5-7.1,35.5-7.9s20.6-1.4,26.1-1.8
		s30.1-4.1,35-18.9s-8-22.1-16.4-16.8c0,0,6.1,0,5.4,4.5s-2.8,17.4-31.4,23.9c-6.8,1.8-16.4,1.5-23.5,1.1s-58.5,1.4-71.8,23.2
		s4,39.6,21.6,34c0,0-68.8,29.5-83.9,39.9c0,0,28.9-8.4,42.9-10s31.1-4.5,35.9-2.2c0,0-3.8-10.2,14.6-20.2c15-8.1,22.6-8.8,25.4-9.4
		S381.6,448.2,359.2,445.5z"/>
	<path class="st0" d="M450.8,440.8c-2-0.8-20.3-14.3,26.5-12.7c15.8,0.5,24.8-9.8,25.5-16.8c0.7-7-1-12.3-6.8-14.7
		c-5.8-2.3-9.7,1.3-9.7,2.3c0,0,5.8,0.3,5.7,7.5c-0.2,7.2-6.8,13.7-18.7,15.8c-11.8,2.2-37,2.7-42.7,3c-5.7,0.3-26,2.5-31.3,5.3
		c-5.3,2.8-7.8,6.2-6.7,8.7c1.2,2.5,1,4.3,14.7,2.7c13.7-1.7,52,2.2,79,13.7c0,0-55.5,6-95.7,34.8c0,0,56.5-19.2,78.5-1.2
		c0,0-7-40.2,62.3-18.7c0,0-35.2-16.5-47.2-20.8S452.8,441.7,450.8,440.8z"/>
	<polygon class="st0" points="274.2,257.5 258,209.8 271,205.5 266.8,192.2 227,205.5 231.8,218.5 244.7,214.2 260.8,262 	"/>
	<polygon class="st0" points="325.8,244.5 322.8,231 305,235 302.4,223.8 320.2,219.8 317.2,206.2 299.4,210.4 296.8,199 314.8,195 
		311.8,181.5 280,188.5 294.5,251.5 	"/>
	<polygon class="st0" points="344.8,241.5 363.1,239.4 371.4,229 369.5,215.2 355.8,216.8 356.9,226.1 347.9,227 343.4,190.6 
		352.4,189.5 353.5,198.6 367.2,197 365.8,183.4 355.1,175.1 337,177.4 329,187.8 334.5,233.4 	"/>
	<polygon class="st0" points="395.9,237.1 395.7,211.9 404.9,211.9 405,237.1 418.9,236.9 418.5,172.8 404.6,172.8 404.8,198 
		395.6,198.2 395.4,172.8 381.6,172.8 382,237.1 	"/>
	<path class="st0" d="M440.3,228.9l11.5,0.7l0.9,9.6l13.7,1.2l-6.5-65.5l-18.7-1.2l-17,63L438,238L440.3,228.9z M448.7,196.2
		l1.8,19.7l-6.7-0.4L448.7,196.2z"/>
	<polygon class="st0" points="489.8,218.8 494.2,245 508,247.7 519.5,184.5 505.7,181.8 501.3,207 497,180 483,177.7 471.5,241 
		485.2,243.7 	"/>
	<path class="st0" d="M535.5,188.3l-18.2,61.8l26.2,7.7l12-6.2l13-44l-6.3-11.7L535.5,188.3z M543.3,243.5l-8.8-2.8l10.5-35l8.5,2.5
		L543.3,243.5z"/>
	<polygon class="st0" points="354.8,559.3 348.2,566 348.2,572.7 357.8,572.7 358,569.2 364.7,569.2 364.7,577.8 354.9,577.8 
		348.2,584.5 348.2,605.8 374.7,605.8 374.7,595.8 358.2,595.8 358.2,587.6 367.9,587.6 374.7,580.8 374.7,566.2 367.8,559.3 	"/>
	<polygon class="st0" points="437.8,559.3 431.2,566 431.2,572.7 440.8,572.7 441,569.2 447.7,569.2 447.7,577.8 437.9,577.8 
		431.2,584.5 431.2,605.8 457.7,605.8 457.7,595.8 441.2,595.8 441.2,587.6 450.9,587.6 457.7,580.8 457.7,566.2 450.8,559.3 	"/>
	<rect x="414.5" y="559.3" class="st0" width="10" height="46.5"/>
	<path class="st0" d="M387.8,559.3l-6.5,6.7v33.3l6.5,6.5h13.8l6.4-6.4V566l-6.7-6.7H387.8z M397.8,595.8h-6.5v-26.5h6.5V595.8z"/>
</g>
</svg>
