<?xml version="1.0" encoding="utf-8"?>
<!-- Generator: Adobe Illustrator 22.1.0, SVG Export Plug-In . SVG Version: 6.00 Build 0)  -->
<svg version="1.1" id="图层_1" xmlns="http://www.w3.org/2000/svg" xmlns:xlink="http://www.w3.org/1999/xlink" x="0px" y="0px"
	 viewBox="0 0 800 800" style="enable-background:new 0 0 800 800;" xml:space="preserve">
<style type="text/css">
	.st0{fill:#004EA2;}
	.st1{fill:#E70012;}
	.st2{fill:#FFFFFF;}
</style>
<path class="st0" d="M400.7,49c-44.5,29.6-285.5,69-285.5,69s10.1,129.1,19.5,182.1c9.4,53,41.3,216.8,94.4,294.1
	C291.5,700.3,400.7,751,400.7,751s109.2-50.7,171.6-156.8c53-77.2,85-241,94.4-294.1c9.4-53,19.5-182.1,19.5-182.1
	S445.2,78.6,400.7,49L400.7,49z"/>
<path class="st1" d="M400.7,58.5c22.5,12.4,75.5,27.2,157.8,44.1c51.9,10.7,100.8,19.1,118.9,22.2c-2.3,28.3-10.9,129.1-18.8,173.9
	c-4.8,27.1-15.1,81-30.6,137.2c-19.2,69.6-40.2,121.3-62.4,153.6l-0.2,0.2l-0.1,0.2c-31.4,53.5-75.4,92.3-106.7,115.5
	c-27,20-49.5,32.1-57.9,36.3c-8.3-4.2-30.6-16.2-57.5-36.1c-31.4-23.2-75.5-62.1-107-115.7l-0.1-0.2l-0.2-0.2
	c-22.2-32.3-43.2-84-62.4-153.6c-15.5-56.2-25.9-110.1-30.6-137.2c-7.9-44.7-16.5-145.6-18.8-173.9c18.2-3.1,67.1-11.5,118.9-22.2
	C325.2,85.7,378.2,70.9,400.7,58.5"/>
<path class="st0" d="M184,109c-27.8,5.2-49.9,10.1-61,12c0.1,1.5,1.3,7.2,1.4,9.1L314.8,683c10.1,8.8,19.7,16.4,28.4,22.8
	c26.9,19.9,49.2,31.9,57.5,36.1c0.3-0.2,0.7-0.3,1-0.5L184,109z"/>
<path class="st0" d="M616.2,113.9c27.8,5.2,50.7,6.2,61.8,8.1c-0.1,1.5-0.4,6.2-0.6,8.1L487,683c-10.1,8.8-19.7,16.4-28.4,22.8
	c-26.9,19.9-49.2,31.9-57.5,36.1c-0.3-0.2-0.7-0.3-1-0.5L616.2,113.9z"/>
<g>
	<path class="st2" d="M374.3,279.6c-0.1-0.2-0.3-0.5-0.7-0.9c-0.3-0.4-0.7-0.8-1.2-1.1c-0.5-0.4-1.1-0.7-1.8-1
		c-0.7-0.3-1.6-0.4-2.6-0.4c-1.3,0-2.5,0.2-3.7,0.7c-1.2,0.5-2.2,1.2-3.2,2c-1,0.8-1.8,1.8-2.5,2.9c-0.7,1.1-1.1,2.3-1.4,3.6
		c-0.2,1.3-0.2,2.5,0.1,3.7c0.3,1.1,0.8,2.1,1.4,3c0.7,0.9,1.5,1.5,2.5,2c1,0.5,2.1,0.7,3.3,0.7c1.3,0,2.6-0.3,3.8-0.9
		c1.3-0.6,2.4-1.4,3.4-2.3h4.4c-0.9,1.2-1.9,2.2-2.9,3c-1,0.8-2.1,1.5-3.1,2c-1.1,0.5-2.1,0.9-3.2,1.1c-1.1,0.2-2.1,0.3-3,0.3
		c-1.7,0-3.3-0.3-4.7-1c-1.4-0.7-2.5-1.6-3.4-2.8c-0.9-1.2-1.6-2.5-1.9-4c-0.4-1.5-0.4-3.2-0.1-4.9c0.3-1.8,1-3.4,1.9-4.9
		c1-1.5,2.1-2.8,3.4-4c1.3-1.1,2.8-2,4.5-2.6c1.6-0.6,3.3-1,5-1c0.5,0,1,0,1.5,0.1c0.6,0.1,1.2,0.2,1.8,0.4c0.6,0.2,1.2,0.4,1.9,0.7
		c0.6,0.3,1.2,0.7,1.8,1.2c1,0.8,1.6,1.6,2,2.3c0.4,0.8,0.7,1.4,0.9,2H374.3z"/>
	<path class="st2" d="M390.5,297.6l2-10.5h-10l-2,10.5H377l4.5-24.2h3.5l-1.9,10.5h10l1.9-10.5h3.5l-4.5,24.2H390.5z"/>
	<path class="st2" d="M397.5,297.6l4.5-24.2h3.5l-4.5,24.2H397.5z"/>
	<path class="st2" d="M420,297.6l-8.5-18.7h-0.1l-3.5,18.7h-3.5l4.5-24.2h3.9l8.4,18.4h0.1l3.4-18.4h3.5l-4.5,24.2H420z"/>
	<path class="st2" d="M442.9,297.6l-1.4-7.1h-8.7l-4,7.1h-3.7l13.7-24.2h3.2l4.7,24.2H442.9z M440.9,287.2l-1.4-9.3h-0.1l-4.8,9.3
		H440.9z"/>
</g>
<g>
	<path class="st2" d="M320.5,316.4c-0.1-0.2-0.3-0.5-0.7-0.9c-0.3-0.4-0.7-0.8-1.2-1.1c-0.5-0.4-1.1-0.7-1.8-1
		c-0.7-0.3-1.6-0.4-2.6-0.4c-1.3,0-2.5,0.2-3.7,0.7s-2.2,1.2-3.2,2c-1,0.8-1.8,1.8-2.5,2.9c-0.7,1.1-1.1,2.3-1.4,3.6
		c-0.2,1.3-0.2,2.5,0.1,3.7c0.3,1.1,0.8,2.1,1.4,3c0.7,0.9,1.5,1.5,2.5,2c1,0.5,2.1,0.7,3.3,0.7c1.3,0,2.6-0.3,3.8-0.9
		c1.3-0.6,2.4-1.4,3.4-2.3h4.4c-0.9,1.2-1.9,2.2-2.9,3c-1,0.8-2.1,1.5-3.1,2c-1.1,0.5-2.1,0.9-3.2,1.1c-1.1,0.2-2.1,0.3-3,0.3
		c-1.7,0-3.3-0.3-4.7-1c-1.4-0.7-2.5-1.6-3.4-2.8c-0.9-1.2-1.6-2.5-1.9-4c-0.4-1.5-0.4-3.2-0.1-4.9c0.3-1.8,1-3.4,1.9-4.9
		c1-1.5,2.1-2.8,3.4-4c1.3-1.1,2.8-2,4.5-2.6c1.6-0.6,3.3-1,5-1c0.5,0,1,0,1.5,0.1c0.6,0.1,1.2,0.2,1.8,0.4c0.6,0.2,1.2,0.4,1.9,0.7
		c0.6,0.3,1.2,0.7,1.8,1.2c1,0.8,1.6,1.6,2,2.3c0.4,0.8,0.7,1.4,0.9,2H320.5z"/>
	<path class="st2" d="M336.7,334.5l2-10.5h-10l-2,10.5h-3.5l4.5-24.2h3.5l-1.9,10.5h10l1.9-10.5h3.5l-4.5,24.2H336.7z"/>
	<path class="st2" d="M369.9,322.4c-0.3,1.7-0.9,3.2-1.8,4.8c-0.9,1.5-2,2.8-3.4,4c-1.4,1.1-2.9,2.1-4.5,2.8c-1.7,0.7-3.4,1-5.2,1
		c-1.8,0-3.4-0.3-4.8-1c-1.4-0.7-2.6-1.6-3.5-2.8c-0.9-1.2-1.5-2.5-1.9-4c-0.4-1.5-0.4-3.1,0-4.8c0.3-1.6,0.9-3.2,1.8-4.7
		c0.9-1.5,2-2.9,3.4-4c1.3-1.2,2.8-2.1,4.5-2.8c1.7-0.7,3.4-1,5.3-1c1.8,0,3.4,0.3,4.8,1c1.4,0.7,2.6,1.6,3.5,2.7s1.6,2.5,1.9,4
		C370.2,319.1,370.2,320.7,369.9,322.4z M366.3,322.5c0.2-1.1,0.2-2.2,0-3.3c-0.2-1.1-0.6-2.1-1.1-3c-0.6-0.9-1.4-1.7-2.4-2.2
		c-1-0.6-2.3-0.9-3.8-0.9c-1.6,0-3,0.3-4.2,0.9c-1.2,0.6-2.3,1.4-3.2,2.3c-0.9,0.9-1.7,1.9-2.2,3c-0.6,1.1-0.9,2.1-1.1,3.1
		c-0.2,1-0.2,2,0,3.1c0.2,1.1,0.5,2.1,1.1,3c0.6,0.9,1.4,1.7,2.4,2.3c1,0.6,2.3,0.9,3.9,0.9c1.6,0,3-0.3,4.2-0.9
		c1.2-0.6,2.3-1.4,3.2-2.3c0.9-0.9,1.7-1.9,2.2-3C365.8,324.4,366.2,323.4,366.3,322.5z"/>
	<path class="st2" d="M385.5,334.5l-8.5-18.7h-0.1l-3.5,18.7h-3.5l4.5-24.2h3.9l8.4,18.4h0.1l3.4-18.4h3.5l-4.5,24.2H385.5z"/>
	<path class="st2" d="M413.9,316.3c-0.2-0.3-0.5-0.6-0.8-1c-0.3-0.4-0.7-0.7-1.2-1.1c-0.5-0.3-1-0.6-1.7-0.9
		c-0.7-0.2-1.4-0.4-2.3-0.4c-1.3,0-2.5,0.3-3.7,0.8c-1.2,0.5-2.3,1.2-3.2,2c-1,0.9-1.8,1.9-2.5,3c-0.7,1.1-1.1,2.3-1.4,3.6
		c-0.2,1.3-0.2,2.6,0.1,3.7c0.3,1.1,0.8,2.1,1.5,2.9c0.7,0.8,1.5,1.5,2.5,1.9c1,0.5,2.1,0.7,3.2,0.7c0.1,0,0.3,0,0.7,0
		c0.3,0,0.8-0.1,1.3-0.2c0.5-0.1,1.1-0.3,1.7-0.5c0.6-0.2,1.3-0.6,1.9-1c0.7-0.4,1.3-1,2-1.7c0.6-0.7,1.3-1.5,1.9-2.5h-11.3l0.6-3.2
		h15.3c-0.4,2-1.1,3.8-2.2,5.4c-1,1.6-2.3,2.9-3.6,3.9c-1.4,1-2.8,1.8-4.4,2.4c-1.6,0.5-3.1,0.8-4.6,0.8c-1.8,0-3.3-0.3-4.7-1
		c-1.4-0.7-2.5-1.6-3.4-2.7c-0.9-1.1-1.5-2.5-1.9-4c-0.3-1.5-0.4-3.1-0.1-4.8c0.3-1.7,1-3.4,1.9-4.9c0.9-1.5,2-2.9,3.4-4
		c1.3-1.1,2.8-2.1,4.4-2.7c1.6-0.7,3.3-1,5.1-1c1,0,2,0.1,3,0.4c1,0.3,1.9,0.7,2.8,1.2c0.9,0.5,1.6,1.2,2.3,2
		c0.7,0.8,1.2,1.8,1.6,2.9H413.9z"/>
	<path class="st2" d="M442.5,334.9c-0.8,0-1.5-0.1-2-0.2c-0.6-0.1-1.1-0.3-1.5-0.4c-0.4-0.2-0.8-0.4-1.2-0.6
		c-0.3-0.2-0.7-0.4-0.9-0.7c-1.2,0.6-2.4,1-3.6,1.4c-1.2,0.3-2.5,0.5-3.7,0.5c-1.7,0-3.2-0.3-4.6-1c-1.4-0.7-2.5-1.6-3.5-2.7
		c-0.9-1.1-1.6-2.5-1.9-4c-0.4-1.5-0.4-3.2-0.1-4.9c0.3-1.7,1-3.4,1.9-4.9c0.9-1.5,2-2.8,3.4-4c1.3-1.1,2.8-2,4.5-2.7
		c1.6-0.6,3.3-1,5.1-1s3.4,0.3,4.8,1c1.4,0.7,2.5,1.6,3.5,2.7c0.9,1.1,1.5,2.5,1.9,4c0.3,1.5,0.4,3.1,0.1,4.8
		c-0.2,1.1-0.5,2-0.9,2.9c-0.4,0.9-0.8,1.7-1.2,2.4c-0.4,0.7-0.9,1.3-1.3,1.8c-0.4,0.5-0.8,1-1.1,1.3c0.2,0.2,0.5,0.3,0.7,0.4
		c0.2,0.1,0.5,0.2,0.7,0.3c0.2,0.1,0.5,0.1,0.8,0.1c0.3,0,0.7,0,1.1,0L442.5,334.9z M437.3,328.7c0.2-0.2,0.5-0.5,0.9-0.9
		c0.3-0.4,0.7-0.8,1-1.3c0.3-0.5,0.7-1.1,1-1.8c0.3-0.7,0.5-1.4,0.7-2.3c0.2-1.2,0.2-2.4,0-3.6c-0.2-1.1-0.7-2.1-1.3-3
		c-0.6-0.9-1.4-1.5-2.4-2c-1-0.5-2.1-0.8-3.4-0.8c-1.2,0-2.5,0.3-3.7,0.8c-1.2,0.5-2.3,1.2-3.2,2c-1,0.9-1.8,1.9-2.5,3
		c-0.7,1.2-1.1,2.4-1.4,3.7c-0.1,0.6-0.2,1-0.2,1.4c0,0.3,0,0.7,0,1c0.9-0.3,1.8-0.6,2.7-0.6c0.9-0.1,1.6-0.1,2.1-0.1
		c1.8,0,3.5,0.4,5.1,1.2C434.2,326.1,435.8,327.2,437.3,328.7z M434.1,330.6c-0.8-0.7-1.5-1.2-2.2-1.6c-0.7-0.4-1.3-0.7-1.9-1
		c-0.6-0.3-1.2-0.4-1.8-0.5c-0.6-0.1-1.1-0.1-1.7-0.1c-0.4,0-0.8,0-1,0c-0.3,0-0.5,0.1-0.8,0.1c-0.2,0-0.4,0.1-0.6,0.2
		c-0.2,0.1-0.3,0.1-0.5,0.2c0.6,1.2,1.5,2.1,2.7,2.8c1.2,0.7,2.5,1,3.9,1c1.1,0,1.9-0.1,2.5-0.4
		C433.3,331.1,433.7,330.8,434.1,330.6z"/>
	<path class="st2" d="M444.3,334.5l4.5-24.2h3.5l-4.5,24.2H444.3z"/>
	<path class="st2" d="M466.8,334.5l-8.5-18.7h-0.1l-3.5,18.7h-3.5l4.5-24.2h3.9l8.4,18.4h0.1l3.4-18.4h3.5l-4.5,24.2H466.8z"/>
	<path class="st2" d="M495.2,316.3c-0.2-0.3-0.5-0.6-0.8-1c-0.3-0.4-0.7-0.7-1.2-1.1c-0.5-0.3-1-0.6-1.7-0.9
		c-0.7-0.2-1.4-0.4-2.3-0.4c-1.3,0-2.5,0.3-3.7,0.8s-2.3,1.2-3.2,2c-1,0.9-1.8,1.9-2.5,3c-0.7,1.1-1.1,2.3-1.4,3.6
		c-0.2,1.3-0.2,2.6,0.1,3.7c0.3,1.1,0.8,2.1,1.5,2.9c0.7,0.8,1.5,1.5,2.5,1.9c1,0.5,2.1,0.7,3.2,0.7c0.1,0,0.3,0,0.7,0
		c0.3,0,0.8-0.1,1.3-0.2c0.5-0.1,1.1-0.3,1.7-0.5c0.6-0.2,1.3-0.6,1.9-1c0.7-0.4,1.3-1,2-1.7c0.6-0.7,1.3-1.5,1.9-2.5h-11.3l0.6-3.2
		h15.3c-0.4,2-1.1,3.8-2.2,5.4c-1,1.6-2.3,2.9-3.6,3.9c-1.4,1-2.8,1.8-4.4,2.4c-1.6,0.5-3.1,0.8-4.6,0.8c-1.8,0-3.3-0.3-4.7-1
		c-1.4-0.7-2.5-1.6-3.4-2.7c-0.9-1.1-1.5-2.5-1.9-4c-0.3-1.5-0.4-3.1-0.1-4.8c0.3-1.7,0.9-3.4,1.9-4.9c0.9-1.5,2-2.9,3.4-4
		c1.3-1.1,2.8-2.1,4.4-2.7c1.6-0.7,3.3-1,5.1-1c1,0,2,0.1,3,0.4c1,0.3,1.9,0.7,2.8,1.2c0.9,0.5,1.6,1.2,2.3,2
		c0.7,0.8,1.2,1.8,1.6,2.9H495.2z"/>
</g>
<path class="st2" d="M156.6,409.4c-8.6,0-38.2-0.4-38.2-0.4l-25,93.2l47.2,0.4c0,0,46-7.4,52.3-55
	C196.7,415.6,165.1,409.4,156.6,409.4z M162.4,466.7c-9.4,13.7-26.1,14.8-26.1,14.8l-14-0.4l14-49.9l18.3,0.4
	C172.5,435.5,171.8,453,162.4,466.7z"/>
<path class="st0" d="M118.3,409c0,0,29.6,0.4,38.2,0.4c8.6,0,40.2,6.2,36.3,38.2c-6.2,47.6-52.3,55-52.3,55l-47.2-0.4L118.3,409
	 M136.3,481.5c0,0,16.8-1.2,26.1-14.8s10.1-31.2-7.8-35.1l-18.3-0.4l-14,49.9L136.3,481.5 M114.8,404.2l-0.9,3.5l-25,93.2l-1.6,5.8
	l6,0l47.2,0.4l0.4,0l0.4-0.1c0.5-0.1,12.6-2.1,25.6-10.3c12.1-7.7,27.1-22.3,30.6-48.7c1.4-11.8-1.3-21.6-8-29.2
	c-10.4-11.7-27.2-14.3-32.9-14.3c-8.5,0-37.9-0.4-38.2-0.4L114.8,404.2L114.8,404.2z M128.4,476.6l11.4-40.7l14.2,0.3
	c4.8,1.1,8,3.5,9.3,7c2.1,5.4,0.3,13.4-4.8,20.8c-7.5,10.9-20.7,12.6-22.4,12.8L128.4,476.6L128.4,476.6z"/>
<path class="st2" d="M535,409.4c-8.6,0-38.2-0.4-38.2-0.4l-25,93.2l47.2,0.4c0,0,46-7.4,52.3-55C575.2,415.6,543.6,409.4,535,409.4z
	 M540.9,466.7c-9.4,13.7-26.1,14.8-26.1,14.8l-14-0.4l14-49.9l18.3,0.4C551,435.5,550.3,453,540.9,466.7z"/>
<path class="st0" d="M496.8,409c0,0,29.6,0.4,38.2,0.4c8.6,0,40.2,6.2,36.3,38.2c-6.2,47.6-52.3,55-52.3,55l-47.2-0.4L496.8,409
	 M514.8,481.5c0,0,16.8-1.2,26.1-14.8c9.4-13.7,10.1-31.2-7.8-35.1l-18.3-0.4l-14,49.9L514.8,481.5 M493.2,404.2l-0.9,3.5l-25,93.2
	l-1.6,5.8l6,0l47.2,0.4l0.4,0l0.4-0.1c0.5-0.1,12.6-2.1,25.6-10.3c12.1-7.7,27.1-22.3,30.6-48.7c1.4-11.8-1.3-21.6-8-29.2
	c-10.4-11.7-27.2-14.3-32.9-14.3c-8.5,0-37.9-0.4-38.2-0.4L493.2,404.2L493.2,404.2z M506.9,476.6l11.4-40.7l14.2,0.3
	c4.8,1.1,8,3.5,9.3,7c2.1,5.4,0.3,13.4-4.8,20.8c-7.5,10.9-20.7,12.6-22.4,12.8L506.9,476.6L506.9,476.6z"/>
<path class="st2" d="M258.7,409h-19.5l-65.5,93.6h25.7l13.7-21.1h34.3l3.1,21.1h24.2L258.7,409z M227.1,461.6l13.3-20.7l4.3,20.3
	L227.1,461.6z"/>
<path class="st0" d="M258.7,409l16,93.6h-24.2l-3.1-21.1h-34.3l-13.7,21.1h-25.7l65.5-93.6H258.7 M227.1,461.6l17.6-0.4l-4.3-20.3
	L227.1,461.6 M262.7,404.3h-3.9h-19.5h-2.4l-1.4,2l-65.5,93.6l-5.2,7.4h9h25.7h2.5l1.4-2.1l12.3-18.9h27.7l2.5,17.1l0.6,4h4h24.2
	h5.5l-0.9-5.5l-16-93.6L262.7,404.3L262.7,404.3z M235.8,456.7l2.4-3.7l0.8,3.6L235.8,456.7L235.8,456.7z"/>
<path class="st2" d="M636.9,409h-19.5l-65.5,93.6h25.7l13.7-21.1h34.3l3.1,21.1h24.2L636.9,409z M605.3,461.6l13.3-20.7l4.3,20.3
	L605.3,461.6z"/>
<path class="st0" d="M636.9,409l16,93.6h-24.2l-3.1-21.1h-34.3l-13.7,21.1h-25.7l65.5-93.6H636.9 M605.3,461.6l17.6-0.4l-4.3-20.3
	L605.3,461.6 M640.9,404.3h-3.9h-19.5H615l-1.4,2l-65.5,93.6l-5.2,7.4h9h25.7h2.5l1.4-2.1l12.3-18.9h27.7l2.5,17.1l0.6,4h4h24.2h5.5
	l-0.9-5.5l-16-93.6L640.9,404.3L640.9,404.3z M614,456.7l2.4-3.7l0.8,3.6L614,456.7L614,456.7z"/>
<polygon class="st2" points="304,409 323.9,409 350.4,461.2 364,409 387.4,409 362.9,502.6 343.4,502.6 317.2,449.1 302.8,502.6 
	279.4,502.6 "/>
<path class="st0" d="M387.4,409l-24.6,93.6h-19.5l-26.1-53.4l-14.4,53.4h-23.4L304,409h19.9l26.5,52.3L364,409H387.4 M393.5,404.3
	h-6.1H364h-3.6l-0.9,3.5L349,448.1L328,406.9l-1.3-2.6h-2.9H304h-3.6l-0.9,3.5l-24.6,93.6l-1.5,5.9h6.1h23.4h3.6l0.9-3.5l11.2-41.4
	l20.7,42.2l1.3,2.6h2.9h19.5h3.6l0.9-3.5l24.6-93.6L393.5,404.3L393.5,404.3z"/>
<path class="st2" d="M479.5,423.8l-17.9,16.8c0,0-8.2-15.2-29.2-9.4c-17.9,5.5-25.7,25.7-25.4,34.7s7,15.6,12.9,16.4
	s25.4,2.7,26.5-13.6h-21.5l5.9-21.5h44l-10.5,42.1c0,0-27.7,24.6-62.6,11.3c-27.1-12.9-19.3-46-10-61.2c6.2-10.1,23.8-30,47.6-30.8
	S471.3,413.6,479.5,423.8z"/>
<path class="st0" d="M443.4,408.5c20.7,0,28.4,5.7,36.1,15.3l-17.9,16.8c0,0-5.8-10.7-20-10.7c-2.7,0-5.8,0.4-9.2,1.3
	c-17.9,5.5-25.7,25.7-25.4,34.7c0.4,9,7,15.6,12.9,16.4c1.6,0.2,4.1,0.5,7.1,0.5c8,0,18.6-2.2,19.5-14.2h-21.5l5.8-21.4h44
	l-10.5,42.1c0,0-17.2,15.3-41.5,15.3c-6.6,0-13.7-1.1-21.1-4c-27.1-12.9-19.3-46-10-61.2c6.2-10.1,23.8-30,47.6-30.8
	C440.7,408.5,442.1,408.5,443.4,408.5 M443.4,403.8c-1.4,0-2.8,0-4.2,0.1c-25,0.8-44.1,21.2-51.4,33c-7.1,11.5-12.2,30.1-7.7,45.5
	c3,10.1,9.6,17.7,19.6,22.4l0.2,0.1l0.2,0.1c7.4,2.8,15.1,4.3,22.8,4.3c25.8,0,43.8-15.8,44.6-16.4l1.1-1l0.3-1.4l10.5-42.1l1.4-5.8
	h-6h-8.4l16.4-15.3l3.2-3l-2.7-3.4c-3.5-4.4-8-9.2-14.8-12.5C461.9,405.3,454,403.8,443.4,403.8L443.4,403.8z M433.6,435.7
	c2.8-0.8,5.4-1.2,7.9-1.2c10.2,0,14.9,6.5,15.8,8h-26.5h-3.6l-0.9,3.4l-5.8,21.4l-1.6,5.9h6.1h15.2c-3.2,4.8-10.2,4.8-13.2,4.8
	c-2,0-4.1-0.2-6.4-0.5c-3.4-0.5-8.5-5-8.8-11.9C411.3,459.2,417.4,440.6,433.6,435.7L433.6,435.7z"/>
<polygon class="st2" points="683.2,409 706.6,409 682.1,502.6 658.7,502.6 "/>
<path class="st0" d="M706.6,409l-24.6,93.6h-23.4l24.6-93.6H706.6 M712.7,404.3h-6.1h-23.4h-3.6l-0.9,3.5l-24.6,93.6l-1.5,5.9h6.1
	h23.4h3.6l0.9-3.5l24.6-93.6L712.7,404.3L712.7,404.3z"/>
<path class="st2" d="M381.8,173.6l-47.2,79.6H413c0,0-18.1-17.5-10.5-39.8C410.1,191.2,385.6,171.3,381.8,173.6z"/>
<path class="st2" d="M390.2,170.1c0,0,42.1-21.1,68.4,23.4c22.2,45.6-18.1,76.6-43.3,50.9S432.9,208.7,390.2,170.1z"/>
</svg>
