<?xml version="1.0" encoding="utf-8"?>
<!-- Generator: Adobe Illustrator 22.1.0, SVG Export Plug-In . SVG Version: 6.00 Build 0)  -->
<svg version="1.1" id="图层_1" xmlns="http://www.w3.org/2000/svg" xmlns:xlink="http://www.w3.org/1999/xlink" x="0px" y="0px"
	 viewBox="0 0 800 800" style="enable-background:new 0 0 800 800;" xml:space="preserve">
<style type="text/css">
	.st0{fill:#004EA2;}
</style>
<g>
	<g>
		<path class="st0" d="M374.4,279.9c-0.1-0.2-0.3-0.5-0.7-0.9c-0.3-0.4-0.7-0.8-1.2-1.1c-0.5-0.4-1.1-0.7-1.8-1
			c-0.7-0.3-1.6-0.4-2.5-0.4c-1.3,0-2.5,0.2-3.7,0.7c-1.2,0.5-2.2,1.1-3.2,2c-1,0.8-1.8,1.8-2.5,2.9c-0.7,1.1-1.1,2.3-1.4,3.6
			c-0.2,1.3-0.2,2.5,0.1,3.7c0.3,1.1,0.8,2.1,1.4,3c0.7,0.8,1.5,1.5,2.5,2c1,0.5,2.1,0.7,3.3,0.7c1.3,0,2.6-0.3,3.8-0.9
			c1.3-0.6,2.4-1.4,3.4-2.3h4.3c-0.9,1.2-1.9,2.2-2.9,3c-1,0.8-2.1,1.5-3.1,2c-1.1,0.5-2.1,0.9-3.2,1.1c-1.1,0.2-2.1,0.3-3,0.3
			c-1.7,0-3.3-0.3-4.6-1c-1.4-0.7-2.5-1.6-3.4-2.7c-0.9-1.2-1.5-2.5-1.9-4s-0.4-3.1-0.1-4.9c0.3-1.8,1-3.4,1.9-4.9
			c0.9-1.5,2.1-2.8,3.4-4c1.3-1.1,2.8-2,4.4-2.6c1.6-0.6,3.3-0.9,5-0.9c0.5,0,1,0,1.5,0.1c0.6,0.1,1.2,0.2,1.8,0.4
			c0.6,0.2,1.2,0.4,1.8,0.7c0.6,0.3,1.2,0.7,1.8,1.2c1,0.8,1.6,1.6,2,2.3c0.4,0.8,0.7,1.4,0.9,2H374.4z"/>
		<path class="st0" d="M390.5,297.9l2-10.5h-10l-2,10.5H377l4.5-24.2h3.5l-1.9,10.4h10l1.9-10.4h3.5l-4.5,24.2H390.5z"/>
		<path class="st0" d="M397.5,297.9l4.5-24.2h3.5l-4.5,24.2H397.5z"/>
		<path class="st0" d="M419.9,297.9l-8.5-18.7h-0.1l-3.5,18.7h-3.5l4.5-24.2h3.9l8.4,18.4h0.1l3.4-18.4h3.5l-4.5,24.2H419.9z"/>
		<path class="st0" d="M442.8,297.9l-1.4-7.1h-8.7l-4,7.1H425l13.7-24.2h3.2l4.7,24.2H442.8z M440.8,287.6l-1.4-9.2h-0.1l-4.8,9.2
			H440.8z"/>
	</g>
	<g>
		<path class="st0" d="M320.7,316.7c-0.1-0.2-0.3-0.5-0.7-0.9c-0.3-0.4-0.7-0.8-1.2-1.1s-1.1-0.7-1.8-1c-0.7-0.3-1.6-0.4-2.5-0.4
			c-1.3,0-2.5,0.2-3.7,0.7c-1.2,0.5-2.2,1.1-3.2,2c-1,0.8-1.8,1.8-2.5,2.9c-0.7,1.1-1.1,2.3-1.4,3.6c-0.2,1.3-0.2,2.5,0.1,3.7
			c0.3,1.1,0.8,2.1,1.4,3c0.7,0.8,1.5,1.5,2.5,2c1,0.5,2.1,0.7,3.3,0.7c1.3,0,2.6-0.3,3.8-0.9c1.3-0.6,2.4-1.4,3.4-2.3h4.3
			c-0.9,1.2-1.9,2.2-2.9,3c-1,0.8-2.1,1.5-3.1,2c-1.1,0.5-2.1,0.9-3.2,1.1c-1.1,0.2-2.1,0.3-3,0.3c-1.7,0-3.3-0.3-4.6-1
			c-1.4-0.7-2.5-1.6-3.4-2.7c-0.9-1.2-1.5-2.5-1.9-4s-0.4-3.1-0.1-4.9c0.3-1.8,1-3.4,1.9-4.9c0.9-1.5,2.1-2.8,3.4-4
			c1.3-1.1,2.8-2,4.4-2.6c1.6-0.6,3.3-0.9,5-0.9c0.5,0,1,0,1.5,0.1c0.6,0.1,1.2,0.2,1.8,0.4c0.6,0.2,1.2,0.4,1.8,0.7
			c0.6,0.3,1.2,0.7,1.8,1.2c1,0.8,1.6,1.6,2,2.3c0.4,0.8,0.7,1.4,0.9,2H320.7z"/>
		<path class="st0" d="M336.9,334.7l2-10.5h-10l-2,10.5h-3.5l4.5-24.2h3.5l-1.9,10.4h10l1.9-10.4h3.5l-4.5,24.2H336.9z"/>
		<path class="st0" d="M370,322.6c-0.3,1.7-0.9,3.2-1.8,4.7c-0.9,1.5-2,2.8-3.4,4c-1.4,1.1-2.9,2.1-4.5,2.7c-1.7,0.7-3.4,1-5.2,1
			c-1.8,0-3.4-0.3-4.8-1c-1.4-0.7-2.6-1.6-3.5-2.8c-0.9-1.2-1.5-2.5-1.9-4c-0.4-1.5-0.4-3.1,0-4.8c0.3-1.6,0.9-3.2,1.8-4.7
			c0.9-1.5,2-2.9,3.3-4c1.3-1.2,2.8-2.1,4.5-2.8c1.7-0.7,3.4-1,5.3-1c1.8,0,3.4,0.3,4.8,1c1.4,0.7,2.6,1.6,3.5,2.7
			c0.9,1.1,1.6,2.5,1.9,4C370.3,319.3,370.3,320.9,370,322.6z M366.4,322.7c0.2-1.1,0.2-2.2,0-3.3c-0.2-1.1-0.6-2.1-1.1-3
			c-0.6-0.9-1.4-1.7-2.4-2.2c-1-0.6-2.3-0.9-3.8-0.9c-1.6,0-3,0.3-4.2,0.9c-1.2,0.6-2.3,1.4-3.2,2.3c-0.9,0.9-1.6,1.9-2.2,3
			c-0.6,1.1-0.9,2.1-1.1,3.1c-0.2,1-0.2,2,0,3.1c0.2,1.1,0.5,2.1,1.1,3c0.6,0.9,1.4,1.7,2.4,2.3c1,0.6,2.3,0.9,3.9,0.9
			c1.6,0,3-0.3,4.2-0.9c1.2-0.6,2.3-1.4,3.2-2.3c0.9-0.9,1.6-1.9,2.2-3C365.9,324.7,366.3,323.6,366.4,322.7z"/>
		<path class="st0" d="M385.5,334.7L377,316h-0.1l-3.5,18.7H370l4.5-24.2h3.9l8.4,18.4h0.1l3.4-18.4h3.5l-4.5,24.2H385.5z"/>
		<path class="st0" d="M413.8,316.6c-0.2-0.3-0.5-0.6-0.8-1c-0.3-0.4-0.7-0.7-1.2-1.1c-0.5-0.3-1-0.6-1.7-0.9
			c-0.7-0.2-1.4-0.4-2.3-0.4c-1.3,0-2.5,0.3-3.7,0.8c-1.2,0.5-2.2,1.2-3.2,2s-1.8,1.9-2.5,3c-0.7,1.1-1.1,2.3-1.4,3.6
			c-0.2,1.3-0.2,2.6,0.1,3.7c0.3,1.1,0.8,2.1,1.5,2.9c0.7,0.8,1.5,1.5,2.5,1.9s2.1,0.7,3.2,0.7c0.1,0,0.3,0,0.7,0
			c0.3,0,0.8-0.1,1.3-0.2c0.5-0.1,1.1-0.3,1.7-0.5c0.6-0.2,1.3-0.6,1.9-1c0.7-0.4,1.3-1,2-1.7s1.3-1.5,1.8-2.5h-11.3l0.6-3.2h15.3
			c-0.4,2-1.1,3.8-2.2,5.4c-1,1.6-2.2,2.9-3.6,3.9c-1.4,1-2.8,1.8-4.4,2.4c-1.6,0.5-3.1,0.8-4.6,0.8c-1.8,0-3.3-0.3-4.7-1
			c-1.4-0.7-2.5-1.6-3.4-2.7c-0.9-1.1-1.5-2.5-1.9-4c-0.3-1.5-0.4-3.1-0.1-4.8c0.3-1.7,0.9-3.4,1.9-4.9c0.9-1.5,2-2.9,3.3-4
			c1.3-1.1,2.8-2,4.4-2.7c1.6-0.7,3.3-1,5.1-1c1,0,2,0.1,3,0.4c1,0.3,1.9,0.7,2.8,1.2c0.8,0.5,1.6,1.2,2.3,2
			c0.7,0.8,1.2,1.8,1.6,2.9H413.8z"/>
		<path class="st0" d="M442.4,335.1c-0.8,0-1.5-0.1-2-0.2c-0.6-0.1-1.1-0.3-1.5-0.4c-0.4-0.2-0.8-0.4-1.2-0.6
			c-0.3-0.2-0.7-0.4-0.9-0.7c-1.2,0.6-2.4,1-3.6,1.4c-1.2,0.3-2.5,0.5-3.7,0.5c-1.7,0-3.2-0.3-4.6-1c-1.4-0.7-2.5-1.6-3.4-2.7
			c-0.9-1.1-1.6-2.5-1.9-4c-0.4-1.5-0.4-3.2-0.1-4.9c0.3-1.7,0.9-3.4,1.9-4.9c0.9-1.5,2-2.8,3.4-4c1.3-1.1,2.8-2,4.4-2.7
			c1.6-0.6,3.3-1,5.1-1s3.3,0.3,4.7,1c1.4,0.7,2.5,1.6,3.4,2.7c0.9,1.1,1.5,2.5,1.9,4c0.3,1.5,0.4,3.1,0.1,4.8
			c-0.2,1.1-0.5,2-0.9,2.9c-0.4,0.9-0.8,1.7-1.2,2.4c-0.4,0.7-0.9,1.3-1.3,1.8c-0.4,0.5-0.8,1-1.1,1.3c0.2,0.2,0.5,0.3,0.7,0.4
			c0.2,0.1,0.5,0.2,0.7,0.3c0.2,0.1,0.5,0.1,0.8,0.1c0.3,0,0.7,0,1.1,0L442.4,335.1z M437.2,328.9c0.2-0.2,0.5-0.5,0.8-0.9
			c0.3-0.4,0.7-0.8,1-1.3c0.3-0.5,0.7-1.1,0.9-1.8c0.3-0.7,0.5-1.4,0.7-2.3c0.2-1.2,0.2-2.4,0-3.5c-0.2-1.1-0.7-2.1-1.3-3
			s-1.4-1.5-2.4-2c-1-0.5-2.1-0.8-3.4-0.8c-1.2,0-2.5,0.3-3.6,0.8c-1.2,0.5-2.3,1.2-3.2,2c-1,0.8-1.8,1.9-2.5,3
			c-0.7,1.2-1.1,2.4-1.4,3.7c-0.1,0.6-0.2,1-0.2,1.4c0,0.3,0,0.7,0,1c0.9-0.3,1.8-0.6,2.7-0.6c0.9-0.1,1.6-0.1,2.1-0.1
			c1.8,0,3.4,0.4,5,1.2C434.1,326.3,435.7,327.4,437.2,328.9z M434,330.8c-0.8-0.7-1.5-1.2-2.2-1.6c-0.7-0.4-1.3-0.7-1.9-1
			c-0.6-0.3-1.2-0.4-1.7-0.5c-0.6-0.1-1.1-0.1-1.7-0.1c-0.4,0-0.8,0-1,0c-0.3,0-0.5,0.1-0.7,0.1c-0.2,0-0.4,0.1-0.6,0.2
			c-0.2,0.1-0.3,0.1-0.5,0.2c0.6,1.2,1.5,2.1,2.6,2.8c1.2,0.7,2.5,1,3.9,1c1.1,0,1.9-0.1,2.5-0.4C433.2,331.3,433.6,331,434,330.8z"
			/>
		<path class="st0" d="M444.1,334.7l4.5-24.2h3.5l-4.5,24.2H444.1z"/>
		<path class="st0" d="M466.6,334.7l-8.5-18.7h-0.1l-3.5,18.7h-3.5l4.5-24.2h3.9l8.4,18.4h0.1l3.4-18.4h3.5l-4.5,24.2H466.6z"/>
		<path class="st0" d="M494.9,316.6c-0.2-0.3-0.5-0.6-0.8-1c-0.3-0.4-0.7-0.7-1.2-1.1c-0.5-0.3-1-0.6-1.7-0.9
			c-0.7-0.2-1.4-0.4-2.3-0.4c-1.3,0-2.5,0.3-3.7,0.8s-2.2,1.2-3.2,2s-1.8,1.9-2.4,3c-0.7,1.1-1.1,2.3-1.4,3.6
			c-0.2,1.3-0.2,2.6,0.1,3.7c0.3,1.1,0.8,2.1,1.5,2.9c0.7,0.8,1.5,1.5,2.5,1.9c1,0.5,2.1,0.7,3.2,0.7c0.1,0,0.3,0,0.7,0
			c0.3,0,0.8-0.1,1.3-0.2s1.1-0.3,1.7-0.5c0.6-0.2,1.3-0.6,1.9-1c0.7-0.4,1.3-1,2-1.7s1.3-1.5,1.8-2.5h-11.3l0.6-3.2h15.3
			c-0.4,2-1.1,3.8-2.2,5.4c-1,1.6-2.2,2.9-3.6,3.9c-1.4,1-2.8,1.8-4.4,2.4c-1.6,0.5-3.1,0.8-4.6,0.8c-1.8,0-3.3-0.3-4.7-1
			c-1.4-0.7-2.5-1.6-3.4-2.7c-0.9-1.1-1.5-2.5-1.9-4c-0.3-1.5-0.4-3.1-0.1-4.8c0.3-1.7,0.9-3.4,1.9-4.9c0.9-1.5,2-2.9,3.3-4
			c1.3-1.1,2.8-2,4.4-2.7c1.6-0.7,3.3-1,5.1-1c1,0,2,0.1,3,0.4c1,0.3,1.9,0.7,2.8,1.2c0.8,0.5,1.6,1.2,2.3,2
			c0.7,0.8,1.2,1.8,1.6,2.9H494.9z"/>
	</g>
	<g>
		<path class="st0" d="M157.2,409.3c-8.6,0-38.1-0.4-38.1-0.4l-24.9,92.9l47.1,0.4c0,0,45.9-7.4,52.1-54.8
			C197.3,415.6,165.8,409.3,157.2,409.3z M163.1,466.5c-9.3,13.6-26.1,14.8-26.1,14.8l-14-0.4l14-49.8l18.3,0.4
			C173.2,435.4,172.4,452.9,163.1,466.5z"/>
		<path class="st0" d="M534.7,409.3c-8.6,0-38.1-0.4-38.1-0.4l-24.9,92.9l47.1,0.4c0,0,45.9-7.4,52.1-54.8
			C574.7,415.6,543.2,409.3,534.7,409.3z M540.5,466.5c-9.3,13.6-26.1,14.8-26.1,14.8l-14-0.4l14-49.8l18.3,0.4
			C550.6,435.4,549.8,452.9,540.5,466.5z"/>
		<path class="st0" d="M259.1,408.9h-19.4l-65.3,93.3H200l13.6-21h34.2l3.1,21h24.1L259.1,408.9z M227.6,461.4l13.2-20.6l4.3,20.2
			L227.6,461.4z"/>
		<path class="st0" d="M636.2,408.9h-19.4l-65.3,93.3h25.7l13.6-21H625l3.1,21h24.1L636.2,408.9z M604.7,461.4l13.2-20.6l4.3,20.2
			L604.7,461.4z"/>
		<polygon class="st0" points="304.2,408.9 324.1,408.9 350.5,461.1 364.1,408.9 387.5,408.9 363,502.3 343.5,502.3 317.5,449 
			303.1,502.3 279.7,502.3 		"/>
		<path class="st0" d="M479.2,423.7l-17.9,16.7c0,0-8.2-15.2-29.2-9.3c-17.9,5.4-25.7,25.7-25.3,34.6c0.4,8.9,7,15.6,12.8,16.3
			c5.8,0.8,25.3,2.7,26.4-13.6h-21.4l5.8-21.4h43.9l-10.4,42c0,0-27.6,24.6-62.4,11.3c-27.1-12.8-19.3-45.9-10-61.1
			c6.2-10.1,23.7-29.9,47.4-30.7C462.9,407.8,471.1,413.6,479.2,423.7z"/>
		<polygon class="st0" points="682.4,408.9 705.8,408.9 681.3,502.3 657.9,502.3 		"/>
	</g>
	<path class="st0" d="M381.8,174.2l-47,79.3h78.2c0,0-18.1-17.5-10.5-39.7S385.7,171.9,381.8,174.2z"/>
	<path class="st0" d="M390.2,170.8c0,0,42-21,68.2,23.3c22.2,45.5-18.1,76.4-43.2,50.8C390.2,219.2,432.8,209.2,390.2,170.8z"/>
	<g>
		<path class="st0" d="M157.2,403.5C157.2,403.5,157.2,403.5,157.2,403.5c2.2,0,5.2,0.3,8.7,1c-11-44-18.5-83.5-22.3-105.5
			c-7.9-44.6-16.4-145.2-18.7-173.4c18.1-3.1,66.9-11.5,118.6-22.2c82-16.9,134.8-31.7,157.3-44c22.5,12.3,75.3,27.1,157.3,44
			c51.7,10.6,100.5,19.1,118.6,22.2c-2.3,28.2-10.9,128.8-18.7,173.4c-3.8,21.7-11.2,60.6-22,104.1h0.4h4.9l0.8,4.9l0.4,2.5
			c11.7-46.4,19.6-87.9,23.5-110.1c9.3-52.9,19.4-181.6,19.4-181.6S445,79.6,400.7,50C356.3,79.6,116,118.8,116,118.8
			s10.1,128.7,19.4,181.6C139.2,321.5,146.4,359.9,157.2,403.5z"/>
		<path class="st0" d="M619.9,487.1h-8.2c-14.8,44-30.4,78.2-46.7,101.9l-0.2,0.2l-0.1,0.2c-31.4,53.3-75.1,92-106.4,115.2
			c-26.9,19.9-49.4,32-57.7,36.2c-8.3-4.2-30.5-16.1-57.4-36c-31.3-23.1-75.3-62-106.7-115.4l-0.1-0.2l-0.2-0.2
			c-13.6-19.8-26.8-46.9-39.3-80.9h-8.7c11.9,32.7,25.7,62.9,41.3,85.6C291.8,699.4,400.7,750,400.7,750s108.9-50.6,171.1-156.3
			c18.8-27.3,34.9-65.5,48.3-105.7L619.9,487.1z"/>
	</g>
	<g>
		<path class="st0" d="M534.7,403.5c7.2,0,23.4,3.1,33.6,14.7c2.6,2.9,4.6,6.2,6,9.7l102.3-297c0.2-1.9,0.3-3.7,0.4-5.2
			c-11.1-1.9-33.7-5.8-61.5-11l-99.4,288.7C523.5,403.4,531,403.5,534.7,403.5z"/>
		<path class="st0" d="M540.3,508.1l6.4-9.2l2.9-4.1c-1.4,1-2.7,1.9-4,2.7c-13.1,8.3-25.4,10.4-25.9,10.5l-0.5,0.1l-0.5,0l-38.5-0.3
			l-80.1,232.6c0.4,0.2,0.7,0.4,1,0.5c8.3-4.2,30.5-16.1,57.4-36c8.6-6.4,18.2-14,28.3-22.7l60-174.1H540.3z"/>
	</g>
	<g>
		<path class="st0" d="M308.7,503.8l-1.2,4.3h-4.5H282h-2.2h-4.7h-2.9h-17.1l60,174.1c10,8.7,19.6,16.3,28.3,22.7
			c26.9,19.8,49.1,31.8,57.4,36c0.3-0.2,0.7-0.3,1-0.5L313.8,485L308.7,503.8z"/>
		<path class="st0" d="M224.8,420.1l10.1-14.5l1.7-2.5h3h19.4h4.9l0.8,4.9l13.2,77.5l15.5-59L186.3,114.7
			c-27.8,5.2-50.4,9.1-61.5,11c0.1,1.5,0.3,3.3,0.4,5.2L224.8,420.1z"/>
	</g>
</g>
</svg>
