<?xml version="1.0" encoding="utf-8"?>
<!-- Generator: Adobe Illustrator 22.1.0, SVG Export Plug-In . SVG Version: 6.00 Build 0)  -->
<svg version="1.1" id="图层_1" xmlns="http://www.w3.org/2000/svg" xmlns:xlink="http://www.w3.org/1999/xlink" x="0px" y="0px"
	 viewBox="0 0 800 800" style="enable-background:new 0 0 800 800;" xml:space="preserve">
<style type="text/css">
	.st0{fill:#F9BE00;}
	.st1{fill:#122357;}
	.st2{fill:#01A2D8;}
	.st3{fill:#FFFFFF;}
	.st4{fill:#16235A;}
	.st5{fill:#F7B400;}
</style>
<g>
	<g>
		<path class="st0" d="M400,50H152.6c0,0,0,182.1,0,384.6S400,750,400,750s247.4-112.9,247.4-315.4s0-384.6,0-384.6H400z"/>
		<path class="st1" d="M626.4,71v363.6c0,42.2-11.9,83.7-35.4,123.5c-19.2,32.5-46.2,64-80.2,93.6c-45.7,39.7-92,65.3-110.8,74.9
			c-18.7-9.5-64.4-34.8-109.9-74.2c-34.2-29.6-61.4-61.2-80.7-93.8c-23.7-39.9-35.7-81.6-35.7-124V71H400H626.4z"/>
	</g>
	<g>
		<g>
			<path class="st2" d="M314,482.8v28h28.5v-47.2C342.5,463.5,335.2,475,314,482.8z M330,500.3h-3.6v-14.2c0-1,0.8-1.8,1.8-1.8l0,0
				c1,0,1.8,0.8,1.8,1.8V500.3z"/>
			<path class="st2" d="M342.5,462.2c0,0-15.7,16.3-30.3,18.5v9.7c0,0-9-9.5-16.2-12.5C296,477.8,321.5,476.2,342.5,462.2z"/>
			<path class="st2" d="M318.7,463v9c3.1-0.7,6.8-2.2,10.3-4v-4.7c0-1,0.8-1.9,1.9-1.9c1,0,1.9,0.8,1.9,1.9v2.7
				c5.4-3,9.7-5.9,9.7-5.9v-12.3C337.5,454.3,318.7,463,318.7,463z"/>
			<path class="st2" d="M342.5,445.8c0,0-14.8,12-37.8,12.5c0,0,11.4,6.8,12.4,9.9v-6.4C317.1,461.8,334.5,455.1,342.5,445.8z"/>
			<path class="st2" d="M324.8,445v7.7c2.4-0.8,4.8-1.7,7-2.8v-3.3c0-1,0.8-1.8,1.8-1.8s1.8,0.8,1.8,1.8v1.5
				c4.2-2.3,7.1-4.3,7.1-4.3v-9.6C334.3,442.2,324.8,445,324.8,445z"/>
			<path class="st2" d="M342.5,432.1c0,0-5.8,6.8-19.7,12v5.6c0,0-5.5-6.3-11.2-7.8C311.7,441.9,329.5,441.2,342.5,432.1z"/>
			<path class="st2" d="M328,431.9v5.5c1.9-0.4,3.8-1.1,5.6-1.9v-2.9c0-0.8,0.7-1.5,1.5-1.5s1.5,0.7,1.5,1.5v1.5
				c3.4-1.8,5.9-3.5,5.9-3.5V423C337.2,427.2,328,431.9,328,431.9z"/>
			<path class="st2" d="M342.5,421.5c0,0-12.1,7.3-26.9,7.2c0,0,8.8,3.6,11.1,7.1V431C326.7,431,333.7,428.4,342.5,421.5z"/>
			<path class="st2" d="M329.8,419.2v5.7c1.9-0.3,3.7-0.8,5.2-1.4v-3c0-0.7,0.6-1.3,1.3-1.3c0.7,0,1.3,0.6,1.3,1.3v1.9
				c3.1-1.4,4.9-2.8,4.9-2.8v-9.1C336.5,417.1,329.8,419.2,329.8,419.2z"/>
			<path class="st2" d="M342.5,408.9c0,0-11.6,8.9-23,8.1c0,0,7.4,3.6,8.8,6.2v-4.6C328.2,418.6,336,416.4,342.5,408.9z"/>
		</g>
		<g>
			<path class="st2" d="M344.3,463.5v47.2h28.5v-28C351.6,475,344.3,463.5,344.3,463.5z M356.8,486.1c0-1,0.8-1.8,1.8-1.8l0,0
				c1,0,1.8,0.8,1.8,1.8v14.2h-3.6V486.1z"/>
			<path class="st2" d="M344.3,462.2c0,0,15.7,16.3,30.3,18.5v9.7c0,0,9-9.5,16.2-12.5C390.8,477.8,365.3,476.2,344.3,462.2z"/>
			<path class="st2" d="M368.2,463v9c-3.1-0.7-6.8-2.2-10.3-4v-4.7c0-1-0.8-1.9-1.9-1.9c-1,0-1.9,0.8-1.9,1.9v2.7
				c-5.4-3-9.7-5.9-9.7-5.9v-12.3C349.3,454.3,368.2,463,368.2,463z"/>
			<path class="st2" d="M344.3,445.8c0,0,14.8,12,37.8,12.5c0,0-11.4,6.8-12.4,9.9v-6.4C369.7,461.8,352.3,455.1,344.3,445.8z"/>
			<path class="st2" d="M362,445v7.7c-2.4-0.8-4.8-1.7-7-2.8v-3.3c0-1-0.8-1.8-1.8-1.8s-1.8,0.8-1.8,1.8v1.5
				c-4.2-2.3-7.1-4.3-7.1-4.3v-9.6C352.5,442.2,362,445,362,445z"/>
			<path class="st2" d="M344.3,432.1c0,0,5.8,6.8,19.7,12v5.6c0,0,5.5-6.3,11.2-7.8C375.2,441.9,357.3,441.2,344.3,432.1z"/>
			<path class="st2" d="M358.8,431.9v5.5c-1.9-0.4-3.8-1.1-5.6-1.9v-2.9c0-0.8-0.7-1.5-1.5-1.5s-1.5,0.7-1.5,1.5v1.5
				c-3.4-1.8-5.9-3.5-5.9-3.5V423C349.6,427.2,358.8,431.9,358.8,431.9z"/>
			<path class="st2" d="M344.3,421.5c0,0,12.1,7.3,26.9,7.2c0,0-8.8,3.6-11.1,7.1V431C360.2,431,353.2,428.4,344.3,421.5z"/>
			<path class="st2" d="M357.1,419.2v5.7c-1.9-0.3-3.7-0.8-5.2-1.4v-3c0-0.7-0.6-1.3-1.3-1.3c-0.7,0-1.3,0.6-1.3,1.3v1.9
				c-3.1-1.4-4.9-2.8-4.9-2.8v-9.1C350.3,417.1,357.1,419.2,357.1,419.2z"/>
			<path class="st2" d="M344.3,408.9c0,0,11.6,8.9,23,8.1c0,0-7.4,3.6-8.8,6.2v-4.6C358.6,418.6,350.8,416.4,344.3,408.9z"/>
		</g>
		<path class="st2" d="M344,408.9v-1.1c0,0,1.3-0.8,1.3-3.3s-1.3-3.7-1.3-3.7s0.3-0.3,0.3-1.7c0-1.8-0.7-2.4-0.7-2.4s0-2.1,0-2.4
			c0-0.4-0.3-0.4-0.3-0.4c0,0-0.3,0.1-0.3,0.4c0,0.2,0,2.4,0,2.4s-0.7,0.6-0.7,2.4c0,1.3,0.3,1.7,0.3,1.7s-1.3,1.2-1.3,3.7
			s1.3,3.3,1.3,3.3v1.1c0,0,0.3-0.1,0.7-0.1C343.7,408.8,344,408.9,344,408.9z"/>
	</g>
	<path class="st2" d="M531,226c0,0,71.3,43,64,164.3c0,0-11.3-94.7-62-114c0,0,22.7,20.7,25.3,51.3c0,0-18-56.7-104-52.7
		C454.3,275,513.7,257,531,226z"/>
	<path class="st2" d="M308.3,242.3c0,0,11.3-1.3,21-11C329.3,231.3,327.3,249.7,308.3,242.3z"/>
	<path class="st2" d="M221,249.2L206,264v-9.6c0-2.9,2.3-5.2,5.2-5.2H221z"/>
	<path class="st2" d="M245.5,303c0,0-1.8,11.8,0,23.3c0,0-9.8-1.7-12.5-21.7L245.5,303z"/>
	<path class="st2" d="M266.2,301.3V320c0,0-9.5-0.7-11.2-18.2L266.2,301.3z"/>
	<path class="st2" d="M285.5,302l-9.8-0.7c0,0,0.8,11.2,9.2,16.9L285.5,302z"/>
	<path class="st2" d="M277,343.5c0,0-1.8,18.8,1,23.8l-11.8-2.8C266.2,364.5,267,346.2,277,343.5z"/>
	<path class="st2" d="M295,349.3c0,0,0.3,13.3,4.3,17l-13,0.9C286.3,367.2,284.7,353.7,295,349.3z"/>
	<path class="st2" d="M315,349.3c0,0-1.7,9.7,1.3,13l-10,3.3C306.3,365.7,305.3,350,315,349.3z"/>
	<path class="st2" d="M593,429c-5.5,23.5-14,34.5-14,34.5c-3.5-85-58.5-87-82-77.5s-23.2,42.2-7.3,49.7c15.8,7.5,22.8-9.2,22.8-9.2
		c-19.5,11-23-7.5-15.5-17s31-9.5,34,21S503,485,503,485c0.5-17-4-28.5-4-28.5c-16,32-37.5,36-37.5,36c16-20.5,6-59,6-59
		c-2,5.5-30,64.5-101.4,68.5s-88.9-45.2-88.9-45.2c-1.8,3.8,0,13.5,0,13.5c-13.2-13-8-24.8-2.5-29s12.5-0.8,12.2,5s-10,3-10,3
		c3.2,7.2,9.5,7,15.2,4.2s8.5-13.8,0-21.2s-27.9-7.9-41.2,4.8c-13.3,12.7-10,44-10,44c-28.7-20.7-32.7-50-32.7-50
		C190.3,604.3,400,697,400,697C625.7,588.3,593,429,593,429z M283,565.5c0,0,5.5,23.5,24,41.5c0,0-67.5-30-74.5-114
		c0,0,21,54.5,75.5,71.5C308,564.5,305,570,283,565.5z M268.2,508.5h7.8c0,0-13.5-15-12-29.5c0,0,15.5,40,58.5,53
		C322.5,532,296,538.5,268.2,508.5z M481.3,499.7c0,0,7.3-0.7,16.3-7.7c0,0-5,19.3-29,28.2C468.7,520.2,480.7,508.7,481.3,499.7z
		 M481.7,540.7c0,0,34.7-14.7,51-54c0,0,0.7,36.3-44.7,67C488,553.7,484.3,543.3,481.7,540.7z M492,608c1.3-9.7,3.7-15.5,1-33.5
		c0,0,73-31.5,62-143.5C555,431,600,527.3,492,608z"/>
	<g>
		<path class="st3" d="M400,507.8c-44.9,0-81.5,36.6-81.5,81.5c0,44.9,36.6,81.5,81.5,81.5c44.9,0,81.5-36.6,81.5-81.5
			C481.5,544.3,444.9,507.8,400,507.8z M424.6,663.8l8.2-15L401.6,637L371,650.8l9.4,14.4c-17.6-4.5-32.8-15.1-43.4-29.3l16.8,2.9
			l1-33.1l-22.2-24.9l-10.9,13.7c-0.1-1.7-0.2-3.5-0.2-5.2c0-16.9,5.4-32.6,14.6-45.4l2.4,16.8l31.9-9.1l16.7-28.7l-16.5-6.3
			c9.1-3.7,19-5.7,29.4-5.7c8.3,0,16.2,1.3,23.7,3.7l-15.5,7.8l18.4,27.4l32.5,6.9l1.2-17.4c11.2,13.5,18,30.9,18,49.8l-12.1-12.6
			l-20.4,26l3.5,33.2l16.8-4.4C456.5,646.4,441.9,658,424.6,663.8z"/>
		<polygon class="st3" points="374,559.3 366.3,599.2 401.9,620.1 432.4,592.9 416,555.2 		"/>
	</g>
	<path class="st4" d="M376,551.9c1.6,0,3.4,1.5,3.9,4.5c0.3,2.1,2.9,2.9,4.7,2.9c1.8,0,6.1,0,6.1,1.4c0,1.6-0.5,1.4-0.5,2.3
		c0,0.9,1.5,1.9,2.8,1.9c1.5,0,1.3-0.4,2-0.4c0.7,0,1.2,1.1,2.5,1.1c1,0,1-0.2,1.3-0.2c0.3,0,1.6,0.8,2.4,0.8s2.2-1,3-1
		s0.7,0.6,2.1,0.6c0.8,0,0.9,0.4,1.1,1.2c0.1,0.8,1.7,1.2,1.7,2s0.1,1.2,0.1,1.8c0,0.7,0.7,1.3,1.9,1.6c1.2,0.3,3.3,0.7,4.7,2.6
		c1.1,1.5,2.8,2.6,4,3.3c1.2,0.7,4.3,3.2,5.1,4.4c0.8,1.2,2.5,2,3.2,2.4c0.5,0.3,0.3,1.5,0.2,1.9c-0.2,0.9-0.1,1.5-0.5,2
		c-0.6,0.8-2,2-2,4c0,1.6,0.2,1.7,0.2,2.2s-0.5,0.8-1.1,1.2s-1.7,1.6-1.7,3.5s1.1,2.8,1.7,2.8c0.7,0,1.4,0.3,1.4,1.1
		s-0.3,1.5-0.3,2.3s1.5,2.3,4.1,2.5c2.6,0.2,2.7,1.1,3.4,2c0.7,0.9,2.1,2.7,3.9,3.2c1.7,0.5,2.1,1.1,2.6,2.3s1.6,2.3,2.5,3.7
		c0.9,1.4,2.3,4.4,2.3,5.6s-0.6,2.5-0.6,3.5c0,1,0.3,1.1,0.3,2c0,0.9,0,2.4,0,3.4s0.5,4.2-0.2,5.7c-0.7,1.5-0.4,2.9-2,2.9
		c-1.8,0-13.3-7.4-14.8-9.3c-1.8-2.3-3.9-1.8-4.3-3.4c-0.3-1.2-1-2.4-2-3.1c-3.1-2.3-5.2-3.5-6.4-4.6c-1-0.9-2.2-1.1-2.7-1.1
		s-3.6,1.6-4.9,1.6c-1.2,0-2.6,0-3.5,0c-0.9,0-0.7-0.5-1.1-0.5c-0.5,0-0.7,0.5-1.1,1.3c-0.3,0.8-0.7,2.2-1.4,2.2
		c-0.5,0-2.1-1.4-2.6-1.9c-0.6-0.5-0.9-1.5-1.1-2c-0.2-0.5-1-0.3-1.5-0.3c-0.5,0-1,0.3-1.5,0.3c-0.6,0-2-0.2-2-1.1s0.4-1.8,0.2-3.3
		c-0.2-1.5-3.6-9.2-4.2-10.5c-0.6-1.3-1.8-2.2-3.5-2.7c-1.2-0.4-4.8-3.3-5.9-4.2c-1.1-0.9-2.1-0.9-3-0.7c-0.9,0.2-1.4-0.9-1.9-1.5
		c-0.5-0.6-3.6-3.7-5-4.4c-1.4-0.7-3.5-1.5-3.5-4.3s4.1-11.2,4.1-13c0-1.7-0.9-1.8-2.1-2.2c-1.3-0.4-1-0.6-1-1.5
		c0-0.9,1.2-1.5,1.2-4s-0.4-2.7,0.7-3.5s1.3-2.3,1.4-3.4c0-1,0-1.5,0-2.2c0-0.7-0.1-1.1-0.9-1.6c-0.8-0.5-1.1-1.4-1.1-1.9
		s0.6-1.3,1.6-2.1c0.8-0.6,1.7,0.1,2.5-0.4C372,553.3,374.7,551.9,376,551.9z"/>
	<g>
		<path class="st5" d="M380.9,601v-3.3l4.1-9.6l0-0.1c0.7-1.7,1.1-3,1.1-3.9v-1.7c0-0.8-0.1-1.3-0.2-1.6c-0.1-0.3-0.4-0.4-0.7-0.4
			c-0.3,0-0.6,0.1-0.7,0.4c-0.1,0.3-0.2,0.8-0.2,1.6v2.5H381v-2.5c0-1.6,0.4-2.8,1.1-3.7c0.7-0.8,1.8-1.3,3.2-1.3
			c1.3,0,2.4,0.4,3.2,1.2c0.8,0.8,1.2,1.8,1.2,3.1v1.3c0,0.7-0.1,1.4-0.3,2.2c-0.2,0.8-0.5,1.6-0.8,2.4l-4.3,10h5v3.1H380.9z"/>
		<path class="st5" d="M391.7,583c0-1.9,0.3-3.3,1-4.1c0.7-0.9,1.8-1.3,3.3-1.3c1.5,0,2.6,0.4,3.3,1.3c0.7,0.9,1,2.2,1,4.2v12.8
			c0,1.9-0.3,3.3-1,4.1c-0.7,0.9-1.8,1.3-3.3,1.3c-1.5,0-2.6-0.4-3.3-1.3c-0.7-0.9-1-2.2-1-4.1V583z M395.2,582.1v14.5
			c0,0.7,0.1,1.1,0.2,1.3c0.1,0.2,0.3,0.3,0.6,0.3c0.3,0,0.5-0.1,0.6-0.3c0.1-0.2,0.2-0.7,0.2-1.3v-14.5c0-0.7-0.1-1.1-0.2-1.3
			c-0.1-0.2-0.3-0.3-0.6-0.3c-0.3,0-0.5,0.1-0.6,0.3C395.3,581,395.2,581.5,395.2,582.1z"/>
		<path class="st5" d="M404.8,601v-19c-0.4,0.5-0.7,1-1.1,1.5c-0.4,0.5-0.8,0.9-1.3,1.3v-4c0.6-0.6,1.2-1.1,1.7-1.6
			c0.5-0.5,0.9-0.9,1.2-1.3h2.9V601H404.8z"/>
		<path class="st5" d="M419.1,595.9c0,1.9-0.3,3.3-1,4.1c-0.7,0.9-1.8,1.3-3.3,1.3c-1.5,0-2.6-0.4-3.3-1.3c-0.7-0.8-1-2.2-1-4.1V583
			c0-1.9,0.3-3.3,1-4.1c0.7-0.9,1.8-1.3,3.2-1.3c1.3,0,2.4,0.4,3.1,1.2c0.8,0.8,1.2,1.8,1.2,3.2v2h-3.3v-1.4c0-0.8-0.1-1.3-0.2-1.5
			c-0.1-0.2-0.4-0.4-0.7-0.4c-0.3,0-0.5,0.1-0.7,0.4c-0.1,0.3-0.2,0.8-0.2,1.5v4.1c0.4-0.3,0.7-0.5,1.1-0.7c0.4-0.1,0.7-0.2,1.1-0.2
			c0.9,0,1.6,0.3,2.1,1c0.5,0.7,0.7,1.6,0.7,2.9V595.9z M415.6,596.5v-6.3c0-0.7-0.1-1.2-0.2-1.4c-0.1-0.2-0.3-0.4-0.6-0.4
			c-0.3,0-0.5,0.1-0.6,0.4c-0.1,0.2-0.2,0.7-0.2,1.4v6.3c0,0.7,0.1,1.1,0.2,1.4c0.1,0.2,0.3,0.4,0.6,0.4c0.3,0,0.5-0.1,0.6-0.3
			C415.5,597.7,415.6,597.2,415.6,596.5z"/>
	</g>
	<g>
		<path class="st3" d="M247,81.9c-5.2,2.4-6.3,3.4-7.4,6.5c-0.7,2.1-0.9,3.4-0.9,8.6v33.1h-7.1l-19.9-34.4v20.4
			c0,8,0.9,10.5,4.3,12.7l0.3,0.2c-2.5-0.8-4-2.2-4.9-4.8c-0.8-2-0.9-3.2-0.9-9.8V93.8l-2.2-3.9v21.7c0,8.7,0.3,11.1,1.6,13.5
			c1.4,2.3,3.4,3.6,7,4.6l3.6,3.5h-22.6l-0.7-1h20.9l-2.2-2.1h-19.5c6.8-2.2,8.5-4.9,8.5-14V86l-5.6-4.2h21.2l-5.9,3.6l20.4,35.4
			v-4.5L217.5,86l5.9-3.5l0.8,0.7l-5.2,3.2l16,28.1V96.8c0-8.1,0-8.1-0.9-9.9c-1-2.2-2.7-3.5-6.2-5H247z M247.6,85.9
			c-4.2,0.8-5.5,2.8-5.5,8.6v38.7h-9l-0.5-1h8.4V94.9c0-7.1,1.6-9.3,7.4-10.1L247.6,85.9z"/>
		<path class="st3" d="M285.8,86.3l6.8,16.4l1.7-0.8L288.1,87l4.4-4.5l1.1,0.4l-4.2,4.5l5.9,14l0.6-0.4c2.7-2.1,2.7-2.1,3-2.4
			c0.5,2.2,2.2,6.1,3.4,7.6h-1.6c-2.8,0-4.7,0.4-6,1.2l7.7,18.4l6.3,4.4h-21.2l5.8-4.4l-4.6-10.9c-2.2,1.8-6.1,6.3-7.1,7.9l-0.9-0.2
			c2.1-3,4.2-5.4,7.8-8.6l-0.8-1.7c-2.4,1.7-6.7,6.1-8.4,8.7c-2.7-3.9-3.2-4.5-6.7-8.7c-2.2,4.4-3.3,7.8-3.3,10.5
			c0,3.3,0.6,4.3,6.2,10.5h-22.7l-0.9-1H273c-4.6-5-5.3-6.2-5.3-9.4c0-2.7,1-6.1,3.5-11.5l-1.9-1.8c-2,4.6-3.9,10.5-3.9,12.5
			c0,2.8,0.8,4.1,4.2,7.3c0.2,0.2,0.4,0.5,0.7,0.7h-21c7.4-3,12.3-9.6,16.6-22.5c-0.7-0.8-4.2-1.8-6.4-2c0.9-1.2,3.1-5.1,3.5-6.5
			c0.3,0.2,0.5,0.4,0.7,0.6l1.9,1.5c0.7,0.6,1.5,1.2,2.3,1.7l0.8-1.6c-0.8-0.6-1.5-1.2-2.3-1.8c-0.4-0.3-1-0.8-2.1-1.5l0.7-0.8
			c0.9,0.5,3.3,2.2,4.2,3.1l5.8-14.1l-4.5-4.3h19.4L285.8,86.3z M271.1,105.4c2.8,2.6,4.6,4.5,7.4,8.1l0.4,0.5l0.4-0.5l0.6-0.6
			l0.4-0.5c-1.7-2.4-4.7-5.7-6.8-7.3l5.3-12.7l-1.2-2.9L271.1,105.4z M275.1,104.9c0.2,0.2,0.9,0.9,2.2,2.2c1.4,1.4,1.8,1.9,4,4.8
			c1-1.2,2.6-2.7,4.2-4L279.7,94L275.1,104.9z M302.6,100.3c0.5,2.1,2.2,5.5,4.7,9.3c-2.3-0.2-6.7-0.5-7.8-0.5h-0.9l7,16.7l9.4,7.4
			h-24.3l-0.9-1H312l-7.5-6l-7.5-17.7c1.2-0.2,1.6-0.3,3.2-0.3c1.8,0,2.9,0.1,5.1,0.3c-2.3-3.8-3.4-6-4-8.8L302.6,100.3z"/>
		<path class="st3" d="M365.1,81.9c-5.2,2.4-6.3,3.4-7.4,6.5c-0.7,2.1-0.9,3.4-0.9,8.6v33.1h-7.1l-19.9-34.4v20.4
			c0,8,0.9,10.5,4.3,12.7l0.3,0.2c-2.5-0.8-4-2.2-4.9-4.8c-0.8-2-0.9-3.2-0.9-9.8V93.8l-2.2-3.9v21.7c0,8.7,0.3,11.1,1.6,13.5
			c1.4,2.3,3.4,3.6,7,4.6l3.6,3.5H316l-0.7-1h20.9l-2.2-2.1h-19.5c6.8-2.2,8.5-4.9,8.5-14V86l-5.6-4.2h21.2l-5.9,3.6l20.4,35.4v-4.5
			L335.6,86l5.9-3.5l0.8,0.7l-5.2,3.2l16,28.1V96.8c0-8.1,0-8.1-0.9-9.9c-1-2.2-2.7-3.5-6.2-5H365.1z M365.8,85.9
			c-4.2,0.8-5.5,2.8-5.5,8.6v38.7h-9l-0.5-1h8.4V94.9c0-7.1,1.6-9.3,7.4-10.1L365.8,85.9z"/>
		<path class="st3" d="M434.9,87.3c-0.9,1.5-2,3.8-2.8,6.2l-0.4-0.3c-1.7-6.2-4.1-8.1-10.4-8.1c-1.5,0-2.4,0-4.3,0.2V126l4.9,4.1
			h-19.1l5.9-4.4V88.3c-1.2-0.1-2-0.1-2.8-0.1c-6,0-8.1,1.7-8.5,6.9h-1.1c0.3-2.6,0.7-4,1.6-5.2c1.2-1.7,4-2.8,7.5-2.8l2.9,0.1h0.4
			v-1.8c-1.6-0.2-2.6-0.2-4-0.2c-5.2,0-7.5,0.9-9,3.5c-0.9,1.5-1.4,3.1-1.5,5.2h-0.5c-1.6-4.5-2.5-6.5-5.9-12.1h50.6L434.9,87.3z
			 M419,87.3c1.1-0.1,1.7-0.1,2.3-0.1c5.3,0,7.1,0.6,8.4,2.8c-2.4-1.4-4.4-1.8-7.5-1.8c-0.9,0-1.4,0-2.1,0.2l0.2,37.7l6.6,7.1h-21.4
			l-0.9-1h20.1l-5.6-5.8V87.3z M440.9,84.3c-2.3,2.5-3.6,4.9-6.3,11.4l-0.9-0.8c2.3-5.8,4.5-9.6,6.4-11.3L440.9,84.3z"/>
		<path class="st3" d="M481,87.4c4.3,4.5,6.8,11.7,6.8,19.4c0,14.5-8.7,23.9-22.1,23.9c-5.9,0-11.6-2.1-15.8-5.7
			c-5.3-4.5-7.8-10.8-7.8-18.9c0-15.1,9-24.7,23.5-24.7C471.5,81.4,477.5,83.7,481,87.4z M451.2,106.9c0,6.3,0.9,11.1,2.9,14.7
			c2,3.5,6.3,5.9,10.9,5.9c8.9,0,13.5-7.3,13.5-21.2c0-7.5-0.8-12.2-2.7-15.8c-1.9-3.7-5.9-5.9-10.9-5.9
			C456,84.7,451.2,92.5,451.2,106.9z M478.7,83.3c8,3.5,13,12.5,13,23.4c0,8-2.7,15.2-7.3,20.1c-4,4.2-10.8,6.9-17.3,6.9
			c-5.2,0-9.3-1.3-13.7-4.3v-0.2c3.4,2.1,8.2,3.4,13.1,3.4c14.2,0,24.1-10.5,24.1-25.7c0-10.5-4.4-19.1-11.9-23.1V83.3z
			 M461.7,126.6c-5.6-3.6-7.8-8.9-7.8-18.8c0-14,4-20.8,12.2-20.8c3.5,0,6.6,1.2,8.3,3.4c-3.7-1.9-5.3-2.4-7.8-2.4
			c-7.7,0-11.4,6.4-11.4,19.7c0,9.1,2.3,15.5,6.9,18.5L461.7,126.6z"/>
		<path class="st3" d="M544.1,81.9c-5.2,2.4-6.3,3.4-7.4,6.5c-0.7,2.1-0.9,3.4-0.9,8.6v33.1h-7.1l-19.9-34.4v20.4
			c0,8,0.9,10.5,4.3,12.7l0.3,0.2c-2.5-0.8-4-2.2-4.9-4.8c-0.8-2-0.9-3.2-0.9-9.8V93.8l-2.2-3.9v21.7c0,8.7,0.3,11.1,1.6,13.5
			c1.4,2.3,3.4,3.6,7,4.6l3.6,3.5H495l-0.7-1h20.9l-2.2-2.1h-19.5c6.8-2.2,8.5-4.9,8.5-14V86l-5.6-4.2h21.2l-5.9,3.6l20.4,35.4v-4.5
			L514.6,86l5.9-3.5l0.8,0.7l-5.2,3.2l16,28.1V96.8c0-8.1,0-8.1-0.9-9.9c-1-2.2-2.7-3.5-6.2-5H544.1z M544.8,85.9
			c-4.2,0.8-5.5,2.8-5.5,8.6v38.7h-9l-0.5-1h8.4V94.9c0-7.1,1.6-9.3,7.4-10.1L544.8,85.9z"/>
		<path class="st3" d="M588.1,97c-1.1-7.9-5.7-12.1-13.3-12.1c-4.2,0-8.2,1.5-10.9,4.3c-3.8,3.7-5.5,9.1-5.5,16.8
			c0,14.5,6.4,21.4,20,21.4h6.7V108h-10.6c-4.6,0-6-0.3-7.8-1.8v-0.9c2,1.3,3.4,1.6,7.9,1.6H585v-2h-11.7c-3.1,0-3.3,0-4.7-0.4
			c-2.2-0.5-3.4-1.9-3.4-3.7c0-2.1,1.6-3.8,3.5-3.8c1.6,0,2.8,1.2,2.8,2.5c0,1.2-0.6,1.7-2.4,2.1c-0.3,0.1-0.5,0.2-0.5,0.4
			c0,0.4,0.3,0.5,2.8,0.5h27.7l-5.8,5.1v18.5l5.4,4.2h-21.5c-10.4,0-10.4,0-14.5-1.8c-8.9-3.9-14.1-12.1-14.1-22
			c0-6.6,2.4-13.1,6.5-17.3c4.3-4.4,11.4-7.3,17.9-7.3c2.9,0,6.4,0.5,10.1,1.4c5.6,1.4,5.7,1.4,7.5,1.4c1.7,0,3.4-0.4,5.3-1.2
			L588.1,97z M585,91.3c-4.5-2.8-6.4-3.5-9.5-3.5c-3.4,0-6.8,1.4-9,3.7c-2.9,3-4.1,7.3-4.1,14.8c0,10.2,1.8,14.5,7.8,18.9v0.5
			c-6.5-3.5-9.1-9.4-9.1-20.4c0-11.6,5.3-18.5,14.3-18.5c4,0,7,1.4,9.6,4.4V91.3z M596.6,108.4V126l7,7.1
			c-8.4-0.1-14.8-0.1-19.5-0.1c-4.2,0-6.4,0-10.7,0.1h-1.9c-3.1,0-4.7-0.5-7.2-2.1h0.9c2.4,0.9,4,1.1,9.9,1.1h26.2l-5.8-5.8V108
			l4.7-4.3l0.7,0.8L596.6,108.4z M591.3,98.2l-1-0.4l7.2-12.7l0.9,0.5L591.3,98.2z"/>
	</g>
	<g>
		<path class="st3" d="M197.9,145.2c0.3-2.5,0.3-2.9,0.4-5.5c1.6,0.1,4.2,0.1,7.7,0.1c3.3,0,5.6-0.1,8-0.1v1.2
			c-2.4,3.1-6,8.3-8.7,12.1c-1.1,1.5-2.4,3.4-3.1,4.5h6.3c1.1,0,2.2,0,2.8-0.5c1-0.9,1.6-2.5,1.8-3.3h1.3c-0.1,0.5-0.1,0.7-0.6,2.7
			c-0.2,0.8-0.4,2-0.4,2.4c0,0.1-0.1,0.5-0.1,0.6c-0.6,0-2.3-0.1-4-0.1c-1.7,0-3.3-0.1-3.8-0.1H205c-2.2,0-5.7,0.1-8.3,0.1v-1.1
			c0.5-0.8,0.7-0.9,1.8-2.5c1.2-1.7,1.3-1.9,2.6-3.6c2.2-3.1,4.4-6.1,6.5-9.3c0.1-0.1,0.7-1,0.8-1.2h-5.8c-1.8,0-2.4,0-3.2,2.7
			c-0.1,0.3-0.3,0.8-0.3,1H197.9z"/>
		<path class="st3" d="M216.4,139.7c1,0.1,2.5,0.1,5.4,0.1c2.7,0,4.5-0.1,5.4-0.1v1c-0.1,0-0.4,0.1-0.5,0.1c-2.7,0.4-2.7,0.5-2.7,3
			v4.5c0.8,0,1.9,0.1,4.3,0.1c2.1,0,2.9,0,3.6-0.1c0-1.2,0-5.3,0-5.7c-0.1-1.2-0.2-1.4-2.6-1.8c-0.2,0-0.5-0.1-0.6-0.1v-1
			c1,0.1,2.7,0.1,5.1,0.1c2.2,0,3.9-0.1,5.7-0.1v1c-0.1,0-0.4,0.1-0.5,0.1c-2.3,0.5-2.4,0.5-2.5,1.2c-0.1,0.4-0.1,0.9-0.1,1.3
			c0,1.2,0,1.6-0.1,5.8c0,1.1,0.1,6,0.1,7c0,1.4,0,1.6,2.6,1.9c0.2,0,0.5,0.1,0.6,0.1v1c-0.6,0-1.3-0.1-2.2-0.1
			c-0.9,0-1.9-0.1-3.2-0.1c-2.3,0-3.8,0.1-5.4,0.1v-1c0.1,0,0.4-0.1,0.6-0.1c2.5-0.5,2.6-0.5,2.6-2.1l0-6.1c-0.6,0-3.7-0.1-3.9-0.1
			l-4,0.1c0,3.8,0,5.6,0.1,6.8c0,0.8,0.2,1.1,2.5,1.4c0.2,0,0.5,0.1,0.6,0.1v1c-0.6,0-1.4-0.1-2.3-0.1c-0.9,0-2.1-0.1-3.4-0.1
			c-2.6,0-4.1,0.1-5.1,0.1v-1c0.1,0,0.4-0.1,0.6-0.1c2.6-0.5,2.6-0.6,2.6-2.2l0-5.4c0-1.3,0-7.9-0.1-8.6c-0.1-0.8-0.4-0.9-2.5-1.2
			c-0.2,0-0.5-0.1-0.5-0.1V139.7z"/>
		<path class="st3" d="M251.9,140.7c-0.1,0-0.4,0.1-0.6,0.1c-2.4,0.3-2.7,0.5-2.7,1.8v13.2c0,1.7,0,1.9,2.7,2.3
			c0.2,0,0.5,0.1,0.6,0.1v1c-0.6,0-1.3-0.1-2.1-0.1c-0.9,0-1.9-0.1-3-0.1c-2.1,0-3.9,0.1-5.6,0.1v-1l0.4-0.1
			c2.5-0.4,2.7-0.5,2.8-1.9c0-0.8,0-2.2,0-3.1l0-10.3c0-1.5-0.1-1.6-2.5-2c-0.2,0-0.5-0.1-0.6-0.1v-1c1.4,0.1,3.6,0.1,5.5,0.1
			c2,0,3.7-0.1,5.3-0.1V140.7z"/>
		<path class="st3" d="M253.3,139.7c0.8,0,4.4,0.1,5.1,0.1c1.4,0,4-0.1,5.1-0.1v1c-0.1,0-0.3,0.1-0.5,0.1c-0.7,0.2-1.6,0.4-1.6,0.8
			c0,0.1,0.1,0.4,0.2,0.6c0.5,0.8,1.2,2,1.8,3.1c0.3,0.6,1.1,1.9,1.8,3.1c0,0.1,0.3,0.5,0.4,0.6l2.3-4.1c0.3-0.5,1.8-3.2,1.8-3.4
			c0-0.3-0.4-0.5-1.7-0.7c-0.1,0-0.4-0.1-0.4-0.1v-1c2.9,0.1,3.2,0.1,3.9,0.1c0.9,0,2.3-0.1,3.7-0.1v1c-2.3,0.5-2.8,0.7-3.8,2.2
			c-0.3,0.5-1.4,2.2-4.6,7.3c-0.1,0.1-0.4,0.5-0.4,0.6v4.4c0,1.3,0,1.5,0.1,1.8c0.1,0.7,0.6,0.8,2.7,1.2c0.1,0,0.4,0.1,0.5,0.1v1
			c-0.9,0-1.9-0.1-2.8-0.1c-0.9,0-1.8-0.1-2.5-0.1c-1,0-4.2,0.1-5.5,0.1v-1c0.1,0,0.5-0.1,0.7-0.1c2.5-0.4,2.5-0.4,2.5-3v-4.1
			c-0.1-0.1-2.4-3.7-2.8-4.3c-0.8-1.3-1.6-2.5-2.5-3.8c-1-1.5-1.5-1.8-3.5-2.3V139.7z"/>
		<path class="st3" d="M276.5,139.7c2,0.1,3.7,0.1,5.5,0.1c1.9,0,3.9-0.1,5.2-0.1v1c-1.5,0.3-2.7,0.5-3,0.8c-0.3,0.3-0.3,1.4-0.3,2
			v7.1c0,1.1,0,3,0.4,4c0.8,2.1,2.8,2.6,4.7,2.6c5.3,0,5.3-3.5,5.3-8.3c0-0.9-0.1-6.5-0.3-7.1c-0.1-0.4-0.5-0.5-2.2-0.8
			c-0.2,0-0.5-0.1-0.6-0.1v-1c1.2,0.1,3,0.1,4.2,0.1c1.5,0,2.8-0.1,3.9-0.1v1c-0.1,0-0.5,0.1-0.7,0.1c-2.3,0.4-2.3,0.6-2.3,2.2
			c-0.1,3.1-0.1,3.6-0.1,8.3c0,3.8-1,5.2-1.9,6.1c-1.2,1.2-3,2.2-6.5,2.2c-8.3,0-8.4-4.8-8.4-7.4v-8.5c0-0.6,0-1.6-0.2-2
			c-0.2-0.5-0.6-0.6-2.2-0.8c-0.2-0.1-0.6-0.1-0.7-0.1V139.7z"/>
		<path class="st3" d="M300.9,139.7c0.7,0.1,1.9,0.1,3.6,0.1c1.7,0,2.9-0.1,4-0.1c1.5,1.9,3.3,4,5,6l4.7,5.6
			c0.1,0.1,0.6,0.8,0.8,0.9c0-4.9-0.1-9.5-0.2-10.3c-0.1-0.8-0.9-0.9-2.4-1.1c-0.1,0-0.5-0.1-0.6-0.1v-1c0.9,0.1,2.2,0.1,4,0.1
			c1.7,0,3-0.1,4.2-0.1v1c-0.1,0-0.4,0.1-0.6,0.1c-1.8,0.3-2.3,0.4-2.4,1.3c-0.1,1.1-0.2,8.3-0.2,8.4c0,3,0.1,5.9,0.1,8.8
			c-0.6,0.2-0.7,0.2-1.3,0.5c-0.8-1-1-1.2-2.8-3.3c-1.2-1.5-2.2-2.8-4.4-5.3c-1.1-1.2-5.7-6.6-6.5-7.7l-0.1,0.1l0,5.8
			c0,1,0.1,7.3,0.2,7.9c0.1,0.5,0.6,0.6,2.4,0.9c0.2,0.1,0.5,0.1,0.6,0.1v1c-0.4,0-1.1-0.1-1.7-0.1s-1.4-0.1-2.2-0.1
			c-1.3,0-2.8,0.1-4.3,0.1v-1c0.1,0,0.4-0.1,0.7-0.1c2.2-0.3,2.3-0.4,2.4-2c0.1-5.8,0.2-7.3,0.2-8.8c0-0.5,0-3.1,0-3.6
			c0-2.3-0.1-2.4-2.7-2.9c-0.2,0-0.6-0.1-0.7-0.1V139.7z"/>
		<path class="st3" d="M334.3,139.7c1.6,0,4.7,0.1,7.1,0.1c3.4,0,7.1-0.1,10.3-0.1c0.1,2.8,0.2,4.1,0.4,5.4h-1.2
			c0-0.1-0.1-0.3-0.1-0.4c-1-3.2-1.3-3.2-3.3-3.2h-5.5v6.7h2.5c2.3,0,2.5,0,3.1-2.9h1.2c-0.1,0.8-0.2,2.1-0.2,4
			c0,1.8,0.1,2.5,0.2,3.4h-1.2l-0.2-0.7c-0.5-2.3-0.5-2.3-2.9-2.3h-2.6v6.2c0,1.7,0,1.9,2.9,2.2c0.2,0,0.6,0.1,0.7,0.1v1
			c-0.7,0-1.6-0.1-2.6-0.1c-1,0-2.1-0.1-3.3-0.1c-2.4,0-3.8,0.1-5.3,0.1v-1c0.1,0,0.4-0.1,0.6-0.1c2.5-0.4,2.5-0.6,2.6-2
			c0-2.5,0.1-12.1,0-13.7c0-1.2-0.2-1.2-2.6-1.6c-0.2,0-0.5-0.1-0.6-0.1V139.7z"/>
		<path class="st3" d="M365.9,139.3c7.5,0,10.2,4.8,10.2,9.5c0,4.4-2.4,10.8-11,10.8c-7,0-10.3-4-10.3-9.9
			C354.8,144,358.6,139.3,365.9,139.3z M365.7,158.2c4.3,0,5.5-3.8,5.5-8.4c0-4.7-1.2-9-5.7-9c-5.2,0-5.7,5.7-5.7,8.2
			C359.8,153.4,360.8,158.2,365.7,158.2z"/>
		<path class="st3" d="M390.9,139.3c7.5,0,10.2,4.8,10.2,9.5c0,4.4-2.4,10.8-11,10.8c-7,0-10.3-4-10.3-9.9
			C379.8,144,383.6,139.3,390.9,139.3z M390.6,158.2c4.3,0,5.5-3.8,5.5-8.4c0-4.7-1.2-9-5.7-9c-5.2,0-5.7,5.7-5.7,8.2
			C384.7,153.4,385.8,158.2,390.6,158.2z"/>
		<path class="st3" d="M421,145.5c-0.1-0.1-0.2-0.5-0.3-0.8c-0.2-0.7-0.8-2.4-1.2-2.8c-0.3-0.3-0.5-0.4-2.9-0.4h-1.4v12.9
			c0,0.6,0,2.7,0.3,3.1c0.2,0.2,0.3,0.4,2.3,0.7c0.2,0,0.5,0.1,0.6,0.1v1c-1.3-0.1-2.4-0.1-3.3-0.1c-0.9,0-1.6,0-2.2,0
			c-1.7,0-3.6,0.1-5.2,0.1v-1c3.1-0.5,3.2-0.5,3.2-2l0-2v-12.7h-2.4c-1.8,0-2.2,0-3.1,3.1c-0.1,0.3-0.2,0.8-0.3,0.9h-1.3
			c0.4-2.8,0.4-3,0.4-5.8c4.9,0.1,8.1,0.1,8.6,0.1c2.7,0,6.5,0,9-0.1c0,2.7,0.3,4.8,0.4,5.8H421z"/>
		<path class="st3" d="M424.2,139.7c2.5,0.1,4.9,0.1,5.9,0.1c0.9,0,2.3,0,3-0.1c2.5-0.1,4.4-0.1,5.8,0.6c1.4,0.7,2.2,2,2.2,3.6
			c0,3.4-3.3,4.5-4.4,4.8v0.1c1.4,0.1,5.3,0.3,5.3,4.4c0,1.9-1.1,6-8.8,6c-0.8,0-1.7-0.1-2.1-0.1c-0.6,0-1.6-0.1-2.2-0.1
			c-0.6,0-3.7,0.1-4.7,0.2v-1c0.1,0,0.4-0.1,0.6-0.1c2.5-0.5,2.6-0.5,2.7-1.8c0-0.8,0-2.6,0-3.4l0-3.6c0-0.8,0-6.5-0.2-7.3
			c-0.1-0.6-0.4-0.7-0.7-0.8c-0.1,0-1.6-0.3-2.4-0.5V139.7z M431.7,148.3c1.9,0,5.2,0.1,5.2-3.8c0-2.1-1.1-3.3-3.4-3.3
			c-0.7,0-1.2,0.1-1.7,0.1V148.3z M431.7,157.5c0.5,0.1,1,0.2,1.8,0.2c1.8,0,4-0.6,4-4.2c0-3.9-2.8-3.8-5.7-3.8V157.5z"/>
		<path class="st3" d="M456.4,158.2c0.1,0,0.3,0,0.4-0.1c1.1-0.2,1.9-0.3,1.9-1c0-0.3-1-2.7-1.3-3.2c-0.1-0.2-0.3-0.6-0.3-0.7
			c-0.7,0-2,0-3.4,0c-1.1,0-2.3,0-3.7,0c0,0.1-0.2,0.5-0.3,0.6c-0.2,0.5-1.3,3-1.3,3.4c0,0.6,0.4,0.7,2,0.9l0.3,0.1v1
			c-0.3,0-0.8-0.1-1.3-0.1c-0.6,0-1.3-0.1-2.1-0.1c-1.8,0-2.9,0.1-3.6,0.1v-1c1.7-0.3,2.1-0.6,2.6-1.7c2.2-4.2,4.4-9.1,6.2-13
			c0.1-0.2,0.3-0.7,0.5-1.2l1.4-3h1.1c1.3,3.2,2.8,6.4,4.3,9.5c2.6,5.6,3,6.3,3.7,7.7c0.6,1.1,1,1.3,2.2,1.6l0.7,0.2v1
			c-0.5,0-1.1-0.1-1.8-0.1c-0.8,0-1.7-0.1-2.8-0.1c-2.2,0-3.7,0.1-5.4,0.1V158.2z M453.7,145.2l-2.9,6.5c2.5,0,3.1,0,5.8,0
			L453.7,145.2z"/>
		<path class="st3" d="M467.9,139.7c1.3,0.1,3.6,0.1,5.7,0.1c2.1,0,3.9-0.1,5.5-0.1v1l-0.7,0.1c-0.5,0.1-2.1,0.3-2.4,0.4
			c-0.5,0.2-0.5,0.7-0.5,1.2l0,3.5v11.5h5.2c2.2,0,2.5-0.1,4.8-3.8h1.3c-0.6,1.6-1.4,4.1-1.9,5.6c-2-0.1-4.1-0.1-5.8-0.1
			c-1.8,0-3.3,0-4.3,0c-3.3,0-5.4,0.1-6.9,0.1v-1c0.1,0,0.4-0.1,0.6-0.1c2.4-0.4,2.5-0.5,2.6-1.5l0-3.5c0-1,0-10.3-0.1-10.9
			c-0.1-0.9-0.3-1-2.3-1.4c-0.3,0-0.7-0.1-0.8-0.1V139.7z"/>
		<path class="st3" d="M488.6,139.7c1.3,0.1,3.6,0.1,5.7,0.1c2.1,0,3.9-0.1,5.5-0.1v1l-0.7,0.1c-0.5,0.1-2.1,0.3-2.4,0.4
			c-0.5,0.2-0.5,0.7-0.5,1.2l0,3.5v11.5h5.2c2.2,0,2.5-0.1,4.8-3.8h1.3c-0.6,1.6-1.4,4.1-1.9,5.6c-2-0.1-4.1-0.1-5.8-0.1
			c-1.8,0-3.3,0-4.3,0c-3.3,0-5.4,0.1-6.9,0.1v-1c0.1,0,0.4-0.1,0.6-0.1c2.4-0.4,2.5-0.5,2.6-1.5l0-3.5c0-1,0-10.3-0.1-10.9
			c-0.1-0.9-0.3-1-2.3-1.4c-0.3,0-0.7-0.1-0.8-0.1V139.7z"/>
		<path class="st3" d="M538.3,156.8c-2.8,1.8-5.4,2.9-9,2.9c-7.4,0-10.4-4.8-10.4-9.8c0-4.9,2.9-10.6,11.7-10.6c3,0,5.2,0.6,7.5,1.3
			c-0.1,0.5-0.1,0.9-0.1,1.8c0,1.7,0.1,3,0.2,4.1h-1.6l-0.2-0.6c-0.5-1.9-0.8-2.6-1.4-3.3c-0.8-0.8-2.1-1.6-4.4-1.6
			c-6.1,0-6.9,5.4-6.9,8c0,4.8,2.4,8.3,7.6,8.3c2.3,0,4.1-0.6,6.1-1.7L538.3,156.8z"/>
		<path class="st3" d="M541.4,139.7c1.3,0.1,3.6,0.1,5.7,0.1c2.1,0,3.9-0.1,5.5-0.1v1l-0.7,0.1c-0.5,0.1-2.1,0.3-2.4,0.4
			c-0.5,0.2-0.5,0.7-0.5,1.2l0,3.5v11.5h5.2c2.2,0,2.5-0.1,4.8-3.8h1.3c-0.6,1.6-1.4,4.1-1.9,5.6c-2-0.1-4.1-0.1-5.8-0.1
			c-1.8,0-3.3,0-4.3,0c-3.3,0-5.4,0.1-6.9,0.1v-1c0.1,0,0.4-0.1,0.6-0.1c2.4-0.4,2.5-0.5,2.6-1.5l0-3.5c0-1,0-10.3-0.1-10.9
			c-0.1-0.9-0.3-1-2.3-1.4c-0.3,0-0.7-0.1-0.8-0.1V139.7z"/>
		<path class="st3" d="M561.1,139.7c2,0.1,3.7,0.1,5.5,0.1c1.9,0,3.9-0.1,5.2-0.1v1c-1.5,0.3-2.7,0.5-3,0.8c-0.3,0.3-0.3,1.4-0.3,2
			v7.1c0,1.1,0,3,0.4,4c0.8,2.1,2.8,2.6,4.7,2.6c5.3,0,5.3-3.5,5.3-8.3c0-0.9-0.1-6.5-0.3-7.1c-0.1-0.4-0.5-0.5-2.2-0.8
			c-0.2,0-0.5-0.1-0.6-0.1v-1c1.2,0.1,3,0.1,4.2,0.1c1.5,0,2.8-0.1,3.9-0.1v1c-0.1,0-0.5,0.1-0.7,0.1c-2.3,0.4-2.3,0.6-2.3,2.2
			c-0.1,3.1-0.1,3.6-0.1,8.3c0,3.8-1,5.2-1.9,6.1c-1.2,1.2-3,2.2-6.5,2.2c-8.3,0-8.4-4.8-8.4-7.4v-8.5c0-0.6,0-1.6-0.2-2
			c-0.2-0.5-0.6-0.6-2.2-0.8c-0.2-0.1-0.6-0.1-0.7-0.1V139.7z"/>
		<path class="st3" d="M585.5,139.7c2.5,0.1,4.9,0.1,5.9,0.1c0.9,0,2.3,0,3-0.1c2.5-0.1,4.4-0.1,5.8,0.6c1.4,0.7,2.2,2,2.2,3.6
			c0,3.4-3.3,4.5-4.4,4.8v0.1c1.4,0.1,5.3,0.3,5.3,4.4c0,1.9-1.1,6-8.8,6c-0.8,0-1.7-0.1-2.1-0.1c-0.6,0-1.6-0.1-2.2-0.1
			c-0.6,0-3.7,0.1-4.7,0.2v-1c0.1,0,0.4-0.1,0.6-0.1c2.5-0.5,2.6-0.5,2.7-1.8c0-0.8,0-2.6,0-3.4l0-3.6c0-0.8,0-6.5-0.2-7.3
			c-0.1-0.6-0.4-0.7-0.7-0.8c-0.1,0-1.6-0.3-2.4-0.5V139.7z M593,148.3c1.9,0,5.2,0.1,5.2-3.8c0-2.1-1.1-3.3-3.4-3.3
			c-0.7,0-1.2,0.1-1.7,0.1V148.3z M593,157.5c0.5,0.1,1,0.2,1.8,0.2c1.8,0,4-0.6,4-4.2c0-3.9-2.8-3.8-5.7-3.8V157.5z"/>
	</g>
	<path class="st2" d="M462,282c-38.5,0.5-51-9-51-9c33,6,46.5-9,46.5-9c-17.5,2.5-29.2-3-29.2-3c83.3-2.7,109.3-52.7,109.3-52.7
		c-25.3,16-47,17-69.3,15.7c-22.7-1.3-36-11-49.3-11.3c-13.3-0.3-25.3,8.3-25.3,8.3c11.3-16.7,23.3-16,31.7-14.7
		c8.3,1.3,20.3,9.3,44.3,11.7c30.1,2.9,48-4.3,48-4.3c-28.7-8.3-39.7-16.3-39.7-16.3l16.7-1C438.3,159,374.3,196,374.3,196
		c13.3-19,47.3-23.7,47.3-23.7c-90-9.7-107,34.7-107,34.7h7.3c-19.7,16.3-34,17.7-38.7,19c-4.7,1.3-2.3,6-2.3,6l3.3,2.3L273,246.5
		c-33.5,0-45,0-48.5,3.5s-19.8,20.3-19.8,20.3c12.7,37.7,20.3,34,26.3,33c96-19,113,36.7,113,36.7c-24.7,44-82,26.7-82,26.7
		c-5.7,45.3,11.7,52.3,11.7,52.3l-0.7-11c14,21.3,30.3,21.3,30.3,21.3c-19.7-20-18-37.7-18-37.7c27-6.7,50.7,2.3,50.7,2.3l-13.3-14
		c29.7-1.3,35.7,24.3,35.7,24.3c54-4,60,72.3,60,72.3C465,402,426,355,426,355l12,9.3c-30.3-85.7-136-89.7-136-89.7
		c47.7-11.3,74,3.7,74,3.7c-6.7-0.7-13,3-13,3c96,10,102.5,109,102.5,109c20-51.2-2-73.8-2-73.8c38.5,3.5,59,53,59,53
		c-5.5-45-22-53.5-22-53.5c7.5,1,27,13,27,13C520.5,312,500.5,281.5,462,282z M455.3,189c0,0-27.3-4.7-48.7,3.7
		C406.7,192.7,429.3,176.3,455.3,189z M219.3,279.3c0,0,4.3,11.7,21.7,13C241,292.3,219,301.7,219.3,279.3z M407,339.3h-4.7
		c0,0,20,27.3,18.3,44c0,0-15-49-62.7-77.7C358,305.7,386.7,310,407,339.3z M391,402.8c0,0-14.8-11.8-27.2-9.5c0,0-6.5-16.8-22.5-18
		C341.2,375.2,373.2,368.5,391,402.8z M322.4,249.3c-14.7,2.7-17-5.7-37.7-3c0,0,2.7-5.7,8.3-7.7s17.7,0.3,24.7-4.7
		s23.3-19.3,24.7-22C342.3,212,345,244.1,322.4,249.3z M401.3,230.7c0,0,6.3-7.3,14-6.7c7.7,0.7,20,8.3,45.3,7
		c0,0-5.3,15.7-31.7,17.7c0,0,19-11,20.3-12.4c0,0-16.3-0.1-21.8-1.3C418.7,232.4,412.4,229.3,401.3,230.7z"/>
</g>
</svg>
