<?xml version="1.0" encoding="utf-8"?>
<!-- Generator: Adobe Illustrator 22.1.0, SVG Export Plug-In . SVG Version: 6.00 Build 0)  -->
<svg version="1.1" id="图层_1" xmlns="http://www.w3.org/2000/svg" xmlns:xlink="http://www.w3.org/1999/xlink" x="0px" y="0px"
	 viewBox="0 0 800 800" style="enable-background:new 0 0 800 800;" xml:space="preserve">
<style type="text/css">
	.st0{fill:#122357;}
</style>
<g>
	<path class="st0" d="M400,50H152.6c0,0,0,182.1,0,384.6S400,750,400,750s247.4-112.9,247.4-315.4s0-384.6,0-384.6H400z
		 M626.4,434.6c0,42.2-11.9,83.7-35.4,123.5c-19.2,32.5-46.2,64-80.2,93.6c-45.7,39.7-92,65.3-110.8,74.9
		c-18.7-9.5-64.4-34.8-109.9-74.2c-34.2-29.6-61.4-61.2-80.7-93.8c-23.7-39.9-35.7-81.6-35.7-124V71H400h226.4V434.6z"/>
	<path class="st0" d="M531,226c-17.3,31-76.7,49-76.7,49c86-4,104,52.7,104,52.7c-2.7-30.7-25.3-51.3-25.3-51.3
		c50.7,19.3,62,114,62,114C602.3,269,531,226,531,226z"/>
	<path class="st0" d="M329.3,231.3c-9.7,9.7-21,11-21,11C327.3,249.7,329.3,231.3,329.3,231.3z"/>
	<path class="st0" d="M206,254.4v9.6l15-14.8h-9.8C208.3,249.2,206,251.5,206,254.4z"/>
	<path class="st0" d="M233,304.7c2.7,20,12.5,21.7,12.5,21.7c-1.8-11.5,0-23.3,0-23.3L233,304.7z"/>
	<path class="st0" d="M266.2,320v-18.7l-11.2,0.5C256.7,319.3,266.2,320,266.2,320z"/>
	<path class="st0" d="M285,318.2l0.5-16.2l-9.8-0.7C275.8,301.3,276.5,312.5,285,318.2z"/>
	<path class="st0" d="M266.2,364.5l11.8,2.8c-2.8-5-1-23.8-1-23.8C267,346.2,266.2,364.5,266.2,364.5z"/>
	<path class="st0" d="M295,349.3c-10.3,4.3-8.7,17.9-8.7,17.9l13-0.9C295.3,362.7,295,349.3,295,349.3z"/>
	<path class="st0" d="M306.3,365.7l10-3.3c-3-3.3-1.3-13-1.3-13C305.3,350,306.3,365.7,306.3,365.7z"/>
	<path class="st0" d="M312.2,490.3v-9.7c14.7-2.2,30.3-18.5,30.3-18.5c-21,14-46.5,15.7-46.5,15.7
		C303.2,480.8,312.2,490.3,312.2,490.3z"/>
	<path class="st0" d="M342.5,447.8c-5,6.5-23.8,15.2-23.8,15.2v9c3.1-0.7,6.8-2.2,10.3-4v-4.7c0-1,0.8-1.9,1.9-1.9
		c1,0,1.9,0.8,1.9,1.9v2.7c5.4-3,9.7-5.9,9.7-5.9V447.8z"/>
	<path class="st0" d="M304.8,458.2c0,0,11.4,6.8,12.4,9.9v-6.4c0,0,17.4-6.6,25.4-16C342.5,445.8,327.8,457.8,304.8,458.2z"/>
	<path class="st0" d="M342.5,434.1c-8.2,8.1-17.7,10.9-17.7,10.9v7.7c2.4-0.8,4.8-1.7,7-2.8v-3.3c0-1,0.8-1.8,1.8-1.8
		s1.8,0.8,1.8,1.8v1.5c4.2-2.3,7.1-4.3,7.1-4.3V434.1z"/>
	<path class="st0" d="M311.7,441.9c5.7,1.4,11.2,7.8,11.2,7.8v-5.6c13.8-5.2,19.7-12,19.7-12C329.5,441.2,311.7,441.9,311.7,441.9z"
		/>
	<path class="st0" d="M342.5,423c-5.2,4.2-14.5,8.9-14.5,8.9v5.5c1.9-0.4,3.8-1.1,5.6-1.9v-2.9c0-0.8,0.7-1.5,1.5-1.5
		s1.5,0.7,1.5,1.5v1.5c3.4-1.8,5.9-3.5,5.9-3.5V423z"/>
	<path class="st0" d="M315.6,428.8c0,0,8.8,3.6,11.1,7.1V431c0,0,7-2.6,15.8-9.5C342.5,421.5,330.4,428.8,315.6,428.8z"/>
	<path class="st0" d="M342.5,410.5c-6,6.6-12.8,8.7-12.8,8.7v5.7c1.9-0.3,3.7-0.8,5.2-1.4v-3c0-0.7,0.6-1.3,1.3-1.3
		c0.7,0,1.3,0.6,1.3,1.3v1.9c3.1-1.4,4.9-2.8,4.9-2.8V410.5z"/>
	<path class="st0" d="M319.5,417c0,0,7.4,3.6,8.8,6.2v-4.6c0,0,7.8-2.2,14.2-9.8C342.5,408.9,330.9,417.8,319.5,417z"/>
	<path class="st0" d="M390.8,477.8c0,0-25.5-1.7-46.5-15.7c0,0,15.7,16.3,30.3,18.5v9.7C374.7,490.3,383.7,480.8,390.8,477.8z"/>
	<path class="st0" d="M368.2,472v-9c0,0-18.8-8.7-23.8-15.2v12.3c0,0,4.3,2.9,9.7,5.9v-2.7c0-1,0.8-1.9,1.9-1.9c1,0,1.9,0.8,1.9,1.9
		v4.7C361.4,469.8,365.1,471.3,368.2,472z"/>
	<path class="st0" d="M382.1,458.2c-23-0.5-37.8-12.5-37.8-12.5c8,9.4,25.4,16,25.4,16v6.4C370.7,465,382.1,458.2,382.1,458.2z"/>
	<path class="st0" d="M362,452.7V445c0,0-9.5-2.8-17.7-10.9v9.6c0,0,2.9,2,7.1,4.3v-1.5c0-1,0.8-1.8,1.8-1.8s1.8,0.8,1.8,1.8v3.3
		C357.2,450.9,359.6,451.9,362,452.7z"/>
	<path class="st0" d="M364,444.1v5.6c0,0,5.5-6.3,11.2-7.8c0,0-17.8-0.8-30.8-9.8C344.3,432.1,350.2,438.9,364,444.1z"/>
	<path class="st0" d="M358.8,437.4v-5.5c0,0-9.2-4.6-14.5-8.9v7.5c0,0,2.5,1.7,5.9,3.5v-1.5c0-0.8,0.7-1.5,1.5-1.5s1.5,0.7,1.5,1.5
		v2.9C355.1,436.2,357,436.9,358.8,437.4z"/>
	<path class="st0" d="M360.2,431v4.8c2.3-3.5,11.1-7.1,11.1-7.1c-14.8,0.1-26.9-7.2-26.9-7.2C353.2,428.4,360.2,431,360.2,431z"/>
	<path class="st0" d="M357.1,424.9v-5.7c0,0-6.8-2.1-12.8-8.7v9.1c0,0,1.9,1.4,4.9,2.8v-1.9c0-0.7,0.6-1.3,1.3-1.3
		c0.7,0,1.3,0.6,1.3,1.3v3C353.4,424.1,355.2,424.6,357.1,424.9z"/>
	<path class="st0" d="M344.3,408.9c6.5,7.5,14.2,9.8,14.2,9.8v4.6c1.4-2.6,8.8-6.2,8.8-6.2C356,417.8,344.3,408.9,344.3,408.9z"/>
	<path class="st0" d="M343.3,408.8c0.4,0,0.7,0.1,0.7,0.1v-1.1c0,0,1.3-0.8,1.3-3.3s-1.3-3.7-1.3-3.7s0.3-0.3,0.3-1.7
		c0-1.8-0.7-2.4-0.7-2.4s0-2.1,0-2.4c0-0.4-0.3-0.4-0.3-0.4c0,0-0.3,0.1-0.3,0.4c0,0.2,0,2.4,0,2.4s-0.7,0.6-0.7,2.4
		c0,1.3,0.3,1.7,0.3,1.7s-1.3,1.2-1.3,3.7s1.3,3.3,1.3,3.3v1.1C342.6,408.9,342.9,408.8,343.3,408.8z"/>
	<path class="st0" d="M579,463.5c-3.5-85-58.5-87-82-77.5s-23.2,42.2-7.3,49.7c15.8,7.5,22.8-9.2,22.8-9.2c-19.5,11-23-7.5-15.5-17
		s31-9.5,34,21S503,485,503,485c0.5-17-4-28.5-4-28.5c-16,32-37.5,36-37.5,36c16-20.5,6-59,6-59c-1.9,5.3-28.2,60.8-94.7,68v-18.7
		c-21.2-7.8-28.5-19.2-28.5-19.2v38c-0.6-0.1-1.2-0.1-1.8-0.2v-37.8c0,0-7.2,11.5-28.5,19.2v10.6c-28.5-13.2-36.8-36.6-36.8-36.6
		c-1.8,3.8,0,13.5,0,13.5c-13.2-13-8-24.8-2.5-29s12.5-0.8,12.2,5s-10,3-10,3c3.2,7.2,9.5,7,15.2,4.2s8.5-13.8,0-21.2
		s-27.9-7.9-41.2,4.8c-13.3,12.7-10,44-10,44c-28.7-20.7-32.7-50-32.7-50C190.3,604.3,400,697,400,697c225.7-108.7,193-268,193-268
		C587.5,452.5,579,463.5,579,463.5z M481.3,499.7c0,0,7.3-0.7,16.3-7.7c0,0-5,19.3-29,28.2C468.7,520.2,480.7,508.7,481.3,499.7z
		 M356.8,486.1c0-1,0.8-1.8,1.8-1.8c1,0,1.8,0.8,1.8,1.8v14.2h-3.6V486.1z M326.4,486.1c0-1,0.8-1.8,1.8-1.8s1.8,0.8,1.8,1.8V499
		c-1.2-0.3-2.4-0.6-3.6-1V486.1z M283,565.5c0,0,5.5,23.5,24,41.5c0,0-67.5-30-74.5-114c0,0,21,54.5,75.5,71.5
		C308,564.5,305,570,283,565.5z M268.2,508.5h7.8c0,0-13.5-15-12-29.5c0,0,15.5,40,58.5,53C322.5,532,296,538.5,268.2,508.5z
		 M400,670.8c-44.9,0-81.5-36.6-81.5-81.5s36.6-81.5,81.5-81.5c44.9,0,81.5,36.6,81.5,81.5S444.9,670.8,400,670.8z M481.7,540.7
		c0,0,34.7-14.7,51-54c0,0,0.7,36.3-44.7,67C488,553.7,484.3,543.3,481.7,540.7z M492,608c1.3-9.7,3.7-15.5,1-33.5
		c0,0,73-31.5,62-143.5C555,431,600,527.3,492,608z"/>
	<path class="st0" d="M414.8,598.3c0.3,0,0.5-0.1,0.6-0.3c0.1-0.2,0.2-0.7,0.2-1.4v-6.3c0-0.7-0.1-1.2-0.2-1.4
		c-0.1-0.2-0.3-0.4-0.6-0.4c-0.3,0-0.5,0.1-0.6,0.4c-0.1,0.2-0.2,0.7-0.2,1.4v6.3c0,0.7,0.1,1.1,0.2,1.4
		C414.3,598.2,414.5,598.3,414.8,598.3z"/>
	<path class="st0" d="M396,598.3c0.3,0,0.5-0.1,0.6-0.3c0.1-0.2,0.2-0.7,0.2-1.3v-14.5c0-0.7-0.1-1.1-0.2-1.3
		c-0.1-0.2-0.3-0.3-0.6-0.3c-0.3,0-0.5,0.1-0.6,0.3c-0.1,0.2-0.2,0.7-0.2,1.3v14.5c0,0.7,0.1,1.1,0.2,1.3
		C395.5,598.2,395.7,598.3,396,598.3z"/>
	<path class="st0" d="M367.8,565.3c-1.1,0.8-0.7,1-0.7,3.5c0,2.5-1.2,3.1-1.2,4s-0.3,1,1,1.5c1.3,0.4,2.1,0.5,2.1,2.2
		c0,1.7-4.1,10.2-4.1,13s2.1,3.7,3.5,4.3s4.5,3.7,5,4.4c0.5,0.6,1,1.6,1.9,1.5c0.9-0.2,2-0.2,3,0.7c1.1,0.9,4.7,3.8,5.9,4.2
		c1.6,0.5,2.9,1.4,3.5,2.7c0.6,1.3,4,8.9,4.2,10.5c0.2,1.5-0.2,2.3-0.2,3.3c0,1,1.4,1.1,2,1.1c0.6,0,1-0.3,1.5-0.3
		c0.5,0,1.3-0.3,1.5,0.3c0.2,0.5,0.6,1.5,1.1,2c0.6,0.5,2.1,1.9,2.6,1.9c0.7,0,1.1-1.4,1.4-2.2c0.3-0.8,0.6-1.3,1.1-1.3
		c0.5,0,0.3,0.5,1.1,0.5c0.9,0,2.3,0,3.5,0s4.3-1.6,4.9-1.6s1.7,0.2,2.7,1.1c1.2,1.1,3.4,2.3,6.4,4.6c0.9,0.7,1.7,1.9,2,3.1
		c0.4,1.6,2.6,1.2,4.3,3.4c1.5,2,13,9.3,14.8,9.3c1.6,0,1.3-1.3,2-2.9c0.7-1.5,0.2-4.8,0.2-5.7c0-1,0-2.5,0-3.4c0-0.9-0.3-1.1-0.3-2
		s0.6-2.3,0.6-3.5s-1.4-4.2-2.3-5.6s-2-2.5-2.5-3.7c-0.5-1.3-0.9-1.9-2.6-2.3c-1.7-0.5-3.1-2.3-3.9-3.2c-0.7-0.9-0.8-1.8-3.4-2
		c-2.6-0.2-4.1-1.8-4.1-2.5s0.3-1.4,0.3-2.3s-0.7-1.1-1.4-1.1c-0.7,0-1.7-1-1.7-2.8s1.1-3.1,1.7-3.5s1.1-0.7,1.1-1.2
		c0-0.4-0.2-0.5-0.2-2.2c0-2,1.3-3.2,2-4c0.4-0.5,0.3-1,0.5-2c0.1-0.4,0.3-1.6-0.2-1.9c-0.7-0.4-2.3-1.3-3.2-2.4
		c-0.8-1.2-3.9-3.6-5.1-4.4c-1.2-0.7-2.9-1.8-4-3.3c-1.5-1.9-3.6-2.4-4.7-2.6c-1.2-0.3-1.9-1-1.9-1.6s0-1-0.1-1.8s-1.6-1.2-1.7-2
		c-0.1-0.8-0.2-1.2-1.1-1.2c-1.4,0-1.3-0.6-2.1-0.6s-2.2,1-3,1s-2.1-0.8-2.4-0.8s-0.3,0.2-1.3,0.2c-1.3,0-1.9-1.1-2.5-1.1
		c-0.7,0-0.5,0.4-2,0.4c-1.3,0-2.8-0.9-2.8-1.9c0-0.9,0.5-0.7,0.5-2.3c0-1.4-4.3-1.4-6.1-1.4s-4.4-0.8-4.7-2.9
		c-0.5-3-2.3-4.5-3.9-4.5c-1.3,0-4,1.5-4.8,1.9c-0.8,0.4-1.6-0.3-2.5,0.4c-1,0.8-1.6,1.6-1.6,2.1s0.2,1.4,1.1,1.9
		c0.8,0.5,0.9,0.9,0.9,1.6c0,0.7,0,1.2,0,2.2C369.1,562.9,368.9,564.4,367.8,565.3z M410.5,583c0-1.9,0.3-3.3,1-4.1
		c0.7-0.9,1.8-1.3,3.2-1.3c1.3,0,2.4,0.4,3.1,1.2c0.8,0.8,1.2,1.8,1.2,3.2v2h-3.3v-1.4c0-0.8-0.1-1.3-0.2-1.5
		c-0.1-0.2-0.4-0.4-0.7-0.4c-0.3,0-0.5,0.1-0.7,0.4c-0.1,0.3-0.2,0.8-0.2,1.5v4.1c0.4-0.3,0.7-0.5,1.1-0.7c0.4-0.1,0.7-0.2,1.1-0.2
		c0.9,0,1.6,0.3,2.1,1c0.5,0.7,0.7,1.6,0.7,2.9v6.3c0,1.9-0.3,3.3-1,4.1c-0.7,0.9-1.8,1.3-3.3,1.3c-1.5,0-2.6-0.4-3.3-1.3
		c-0.7-0.8-1-2.2-1-4.1V583z M402.4,580.8c0.6-0.6,1.2-1.1,1.7-1.6c0.5-0.5,0.9-0.9,1.2-1.3h2.9V601h-3.4v-19
		c-0.4,0.5-0.7,1-1.1,1.5c-0.4,0.5-0.8,0.9-1.3,1.3V580.8z M391.7,583c0-1.9,0.3-3.3,1-4.1c0.7-0.9,1.8-1.3,3.3-1.3
		c1.5,0,2.6,0.4,3.3,1.3c0.7,0.9,1,2.2,1,4.2v12.8c0,1.9-0.3,3.3-1,4.1c-0.7,0.9-1.8,1.3-3.3,1.3c-1.5,0-2.6-0.4-3.3-1.3
		c-0.7-0.9-1-2.2-1-4.1V583z M380.9,597.7l4.1-9.6l0-0.1c0.7-1.7,1.1-3,1.1-3.9v-1.7c0-0.8-0.1-1.3-0.2-1.6
		c-0.1-0.3-0.4-0.4-0.7-0.4c-0.3,0-0.6,0.1-0.7,0.4c-0.1,0.3-0.2,0.8-0.2,1.6v2.5H381v-2.5c0-1.6,0.4-2.8,1.1-3.7
		c0.7-0.8,1.8-1.3,3.2-1.3c1.3,0,2.4,0.4,3.2,1.2c0.8,0.8,1.2,1.8,1.2,3.1v1.3c0,0.7-0.1,1.4-0.3,2.2c-0.2,0.8-0.5,1.6-0.8,2.4
		l-4.3,10h5v3.1h-8.4V597.7z"/>
	<path class="st0" d="M196.4,130.1l20.9,0c-3.6-1-6-2.7-7.4-5c-1.3-2.4-1.6-4.8-1.6-13.5V89.9l23.3,40.2h7.1V97
		c0-5.2,0.2-6.5,0.9-8.6c1.1-3.2,2.2-4.2,7.4-6.5h-19.1c3.5,1.5,5.2,2.8,6.2,5c0.9,1.8,0.9,1.8,0.9,9.9v24.1l-20.4-35.4l5.9-3.6
		h-21.2l5.6,4.2v30.1C204.9,125.2,203.2,127.9,196.4,130.1z"/>
	<path class="st0" d="M314.6,130.1l20.9,0c-3.6-1-6-2.7-7.4-5c-1.3-2.4-1.6-4.8-1.6-13.5V89.9l23.3,40.2h7.1V97
		c0-5.2,0.2-6.5,0.9-8.6c1.1-3.2,2.2-4.2,7.4-6.5H346c3.5,1.5,5.2,2.8,6.2,5c0.9,1.8,0.9,1.8,0.9,9.9v24.1l-20.4-35.4l5.9-3.6h-21.2
		l5.6,4.2v30.1C323.1,125.2,321.4,127.9,314.6,130.1z"/>
	<path class="st0" d="M493.5,130.1l20.9,0c-3.6-1-6-2.7-7.4-5c-1.3-2.4-1.6-4.8-1.6-13.5V89.9l23.3,40.2h7.1V97
		c0-5.2,0.2-6.5,0.9-8.6c1.1-3.2,2.2-4.2,7.4-6.5H525c3.5,1.5,5.2,2.8,6.2,5c0.9,1.8,0.9,1.8,0.9,9.9v24.1l-20.4-35.4l5.9-3.6h-21.2
		l5.6,4.2v30.1C502.1,125.2,500.4,127.9,493.5,130.1z"/>
	<path class="st0" d="M269.8,129.4c-3.4-3.2-4.2-4.5-4.2-7.3c0-2,1.9-7.9,3.9-12.5l1.9,1.8l0.9,0.8c3.5,4.2,4,4.8,6.7,8.7
		c1.6-2.6,5.9-7,8.4-8.7l5.8,13.5l-5.8,4.4h21.2l-6.3-4.4l-7.7-18.4c1.3-0.8,3.2-1.2,6-1.2h1.6c-1.1-1.5-2.8-5.5-3.4-7.6
		c-0.3,0.3-0.3,0.3-3,2.4l-0.6,0.4l-0.9,0.5l-1.7,0.8l-6.8-16.4l4.3-4.5h-19.4l4.5,4.3l-7.1,16.8c-0.9-0.5-1.6-1.1-2.3-1.7l-1.9-1.5
		c-0.2-0.2-0.4-0.4-0.7-0.6c-0.4,1.4-2.6,5.3-3.5,6.5c2.2,0.2,5.7,1.2,6.4,2c-4.3,12.9-9.2,19.5-16.6,22.5h21
		C270.2,129.9,269.9,129.6,269.8,129.4z M285.4,107.8c-1.6,1.3-3.2,2.8-4.2,4c-2.2-2.8-2.6-3.4-4-4.8c-1.2-1.2-2-1.9-2.2-2.2
		l4.6-10.9L285.4,107.8z"/>
	<path class="st0" d="M393.5,94h0.5c0.1-2.1,0.6-3.7,1.5-5.2c1.5-2.6,3.9-3.5,9-3.5c1.5,0,2.4,0.1,4,0.2v40.2l-5.9,4.4h19.1
		l-4.9-4.1V85.3c1.9-0.2,2.8-0.2,4.3-0.2c6.3,0,8.7,1.8,10.4,8.1l0.4,0.3c0.9-2.5,1.9-4.7,2.8-6.2l3.4-5.4h-50.6
		C391,87.4,391.9,89.4,393.5,94z"/>
	<path class="st0" d="M449.9,125c4.1,3.6,9.9,5.7,15.8,5.7c13.4,0,22.1-9.5,22.1-23.9c0-7.7-2.5-14.8-6.8-19.4
		c-3.5-3.7-9.5-6-15.4-6c-14.5,0-23.5,9.5-23.5,24.7C442.1,114.2,444.6,120.5,449.9,125z M465,84.7c4.9,0,9,2.2,10.9,5.9
		c1.9,3.5,2.7,8.2,2.7,15.8c0,13.9-4.6,21.2-13.5,21.2c-4.6,0-8.9-2.4-10.9-5.9c-2-3.5-2.9-8.4-2.9-14.7
		C451.2,92.5,456,84.7,465,84.7z"/>
	<path class="st0" d="M562.8,128.2c4,1.8,4,1.8,14.5,1.8h21.5l-5.4-4.2v-18.5l5.8-5.1h-27.7c-2.5,0-2.8-0.1-2.8-0.5
		c0-0.2,0.3-0.3,0.5-0.4c1.8-0.4,2.4-0.8,2.4-2.1c0-1.3-1.3-2.5-2.8-2.5c-1.9,0-3.5,1.8-3.5,3.8c0,1.8,1.2,3.2,3.4,3.7
		c1.5,0.4,1.6,0.4,4.7,0.4H585v22.5h-6.7c-13.6,0-20-6.9-20-21.4c0-7.8,1.7-13.1,5.5-16.8c2.8-2.8,6.7-4.3,10.9-4.3
		c7.7,0,12.2,4.2,13.3,12.1l7.8-13.8c-1.9,0.8-3.6,1.2-5.3,1.2c-1.8,0-1.9,0-7.5-1.4c-3.7-0.9-7.1-1.4-10.1-1.4
		c-6.5,0-13.6,2.9-17.9,7.3c-4,4.2-6.5,10.7-6.5,17.3C548.7,116.2,553.9,124.3,562.8,128.2z"/>
	<path class="st0" d="M205.5,159.1c0.5,0,2.1,0,3.8,0.1c1.7,0,3.4,0.1,4,0.1c0-0.1,0.1-0.5,0.1-0.6c0-0.3,0.2-1.5,0.4-2.4
		c0.4-1.9,0.5-2.1,0.6-2.7h-1.3c-0.3,0.8-0.8,2.4-1.8,3.3c-0.5,0.5-1.6,0.5-2.8,0.5h-6.3c0.7-1.1,2-3,3.1-4.5
		c2.7-3.8,6.3-9,8.7-12.1v-1.2c-2.5,0.1-4.7,0.1-8,0.1c-3.5,0-6.1-0.1-7.7-0.1c-0.1,2.6-0.1,3-0.4,5.5h1.2c0.1-0.1,0.2-0.6,0.3-1
		c0.8-2.7,1.4-2.7,3.2-2.7h5.8c-0.1,0.2-0.6,1-0.8,1.2c-2.1,3.1-4.3,6.2-6.5,9.3c-1.3,1.8-1.4,1.9-2.6,3.6c-1.1,1.6-1.3,1.8-1.8,2.5
		v1.1c2.5-0.1,6.1-0.1,8.3-0.1H205.5z"/>
	<path class="st0" d="M236.4,142c0.1-0.8,0.2-0.8,2.5-1.2c0.2,0,0.5-0.1,0.5-0.1v-1c-1.8,0.1-3.5,0.1-5.7,0.1
		c-2.4,0-4.1-0.1-5.1-0.1v1c0.1,0,0.4,0.1,0.6,0.1c2.4,0.3,2.6,0.5,2.6,1.8c0,0.4,0,4.5,0,5.7c-0.8,0-1.6,0.1-3.6,0.1
		c-2.4,0-3.5,0-4.3-0.1v-4.5c0-2.5,0-2.5,2.7-3c0.1,0,0.4-0.1,0.5-0.1v-1c-0.8,0-2.7,0.1-5.4,0.1c-2.9,0-4.4-0.1-5.4-0.1v1
		c0.1,0,0.4,0.1,0.5,0.1c2.1,0.3,2.4,0.5,2.5,1.2c0.1,0.7,0.1,7.2,0.1,8.6l0,5.4c0,1.6,0,1.7-2.6,2.2c-0.2,0-0.5,0.1-0.6,0.1v1
		c1-0.1,2.5-0.1,5.1-0.1c1.3,0,2.5,0,3.4,0.1c0.9,0,1.7,0.1,2.3,0.1v-1c-0.1,0-0.4-0.1-0.6-0.1c-2.3-0.3-2.5-0.6-2.5-1.4
		c-0.1-1.2-0.1-2.9-0.1-6.8l4-0.1c0.2,0,3.3,0.1,3.9,0.1l0,6.1c0,1.6,0,1.6-2.6,2.1c-0.2,0.1-0.5,0.1-0.6,0.1v1
		c1.6-0.1,3.1-0.1,5.4-0.1c1.2,0,2.3,0,3.2,0.1c0.9,0,1.6,0.1,2.2,0.1v-1c-0.1,0-0.4-0.1-0.6-0.1c-2.6-0.4-2.6-0.6-2.6-1.9
		c0-1-0.1-5.9-0.1-7c0-4.2,0-4.7,0.1-5.8C236.3,142.9,236.3,142.5,236.4,142z"/>
	<path class="st0" d="M251.3,140.8c0.2,0,0.5-0.1,0.6-0.1v-1c-1.6,0.1-3.3,0.1-5.3,0.1c-1.8,0-4.1-0.1-5.5-0.1v1
		c0.1,0,0.4,0.1,0.6,0.1c2.4,0.4,2.5,0.5,2.5,2l0,10.3c0,0.9,0,2.3,0,3.1c0,1.4-0.2,1.5-2.8,1.9l-0.4,0.1v1c1.7-0.1,3.5-0.1,5.6-0.1
		c1.2,0,2.2,0,3,0.1c0.9,0,1.6,0.1,2.1,0.1v-1c-0.1,0-0.4-0.1-0.6-0.1c-2.7-0.4-2.7-0.6-2.7-2.3v-13.2
		C248.7,141.3,248.9,141.1,251.3,140.8z"/>
	<path class="st0" d="M266.9,150.2c3.2-5.1,4.2-6.8,4.6-7.3c1-1.5,1.5-1.8,3.8-2.2v-1c-1.4,0.1-2.8,0.1-3.7,0.1c-0.7,0-1,0-3.9-0.1
		v1c0.1,0,0.3,0.1,0.4,0.1c1.3,0.3,1.7,0.4,1.7,0.7c0,0.2-1.6,2.9-1.8,3.4l-2.3,4.1c-0.1-0.1-0.4-0.5-0.4-0.6
		c-0.7-1.2-1.5-2.5-1.8-3.1c-0.6-1-1.3-2.3-1.8-3.1c-0.1-0.2-0.2-0.4-0.2-0.6c0-0.5,0.9-0.7,1.6-0.8c0.2,0,0.4-0.1,0.5-0.1v-1
		c-1.1,0-3.7,0.1-5.1,0.1c-0.7,0-4.3-0.1-5.1-0.1v1c2,0.4,2.5,0.7,3.5,2.3c0.8,1.3,1.7,2.5,2.5,3.8c0.4,0.6,2.7,4.2,2.8,4.3v4.1
		c0,2.6,0,2.6-2.5,3c-0.2,0-0.6,0.1-0.7,0.1v1c1.3,0,4.5-0.1,5.5-0.1c0.7,0,1.6,0,2.5,0.1c0.9,0,1.9,0.1,2.8,0.1v-1
		c-0.1,0-0.3-0.1-0.5-0.1c-2.1-0.4-2.5-0.5-2.7-1.2c0-0.2-0.1-0.5-0.1-1.8v-4.4C266.6,150.7,266.8,150.2,266.9,150.2z"/>
	<path class="st0" d="M288,159.7c3.5,0,5.3-1,6.5-2.2c0.9-0.9,1.8-2.3,1.9-6.1c0-4.7,0-5.2,0.1-8.3c0.1-1.6,0.1-1.9,2.3-2.2
		c0.2-0.1,0.6-0.1,0.7-0.1v-1c-1.1,0.1-2.4,0.1-3.9,0.1c-1.2,0-3-0.1-4.2-0.1v1c0.1,0,0.4,0.1,0.6,0.1c1.7,0.3,2,0.4,2.2,0.8
		c0.2,0.6,0.3,6.2,0.3,7.1c0,4.9,0,8.3-5.3,8.3c-1.9,0-3.9-0.5-4.7-2.6c-0.4-1-0.4-2.9-0.4-4v-7.1c0-0.6,0-1.7,0.3-2
		c0.3-0.3,1.5-0.5,3-0.8v-1c-1.3,0.1-3.3,0.1-5.2,0.1c-1.8,0-3.5-0.1-5.5-0.1v1c0.1,0,0.5,0.1,0.7,0.1c1.6,0.3,2,0.4,2.2,0.8
		c0.2,0.4,0.2,1.5,0.2,2v8.5C279.6,154.8,279.7,159.7,288,159.7z"/>
	<path class="st0" d="M300.9,139.7v1c0.1,0,0.5,0.1,0.7,0.1c2.6,0.5,2.7,0.6,2.7,2.9c0,0.5,0,3.1,0,3.6c0,1.6-0.1,3-0.2,8.8
		c-0.1,1.6-0.1,1.7-2.4,2c-0.2,0-0.6,0.1-0.7,0.1v1c1.6-0.1,3-0.1,4.3-0.1c0.8,0,1.5,0,2.2,0.1c0.7,0,1.3,0.1,1.7,0.1v-1
		c-0.1,0-0.4-0.1-0.6-0.1c-1.7-0.3-2.2-0.4-2.4-0.9c-0.1-0.6-0.2-6.9-0.2-7.9l0-5.8l0.1-0.1c0.8,1.1,5.4,6.5,6.5,7.7
		c2.1,2.5,3.2,3.8,4.4,5.3c1.7,2.1,1.9,2.3,2.8,3.3c0.6-0.2,0.8-0.3,1.3-0.5c-0.1-2.9-0.1-5.9-0.1-8.8c0-0.1,0-7.2,0.2-8.4
		c0.1-0.9,0.5-1.1,2.4-1.3c0.2-0.1,0.6-0.1,0.6-0.1v-1c-1.2,0.1-2.5,0.1-4.2,0.1c-1.8,0-3.1-0.1-4-0.1v1c0.1,0,0.5,0.1,0.6,0.1
		c1.5,0.2,2.2,0.3,2.4,1.1c0.2,0.8,0.2,5.5,0.2,10.3c-0.1-0.1-0.7-0.8-0.8-0.9l-4.7-5.6c-1.7-2-3.5-4.1-5-6c-1.1,0.1-2.3,0.1-4,0.1
		C302.8,139.8,301.7,139.8,300.9,139.7z"/>
	<path class="st0" d="M347.4,141.5c2,0,2.3,0,3.3,3.2c0,0.1,0.1,0.4,0.1,0.4h1.2c-0.2-1.3-0.3-2.6-0.4-5.4
		c-3.2,0.1-6.9,0.1-10.3,0.1c-2.4,0-5.5-0.1-7.1-0.1v1c0.1,0,0.4,0.1,0.6,0.1c2.4,0.4,2.6,0.5,2.6,1.6c0.1,1.6,0,11.2,0,13.7
		c0,1.4-0.1,1.6-2.6,2c-0.2,0-0.5,0.1-0.6,0.1v1c1.5-0.1,2.9-0.1,5.3-0.1c1.2,0,2.3,0,3.3,0.1c1,0,1.9,0.1,2.6,0.1v-1
		c-0.1,0-0.5-0.1-0.7-0.1c-2.9-0.3-2.9-0.5-2.9-2.2v-6.2h2.6c2.3,0,2.3,0,2.9,2.3l0.2,0.7h1.2c-0.1-0.9-0.2-1.7-0.2-3.4
		c0-1.9,0.1-3.2,0.2-4h-1.2c-0.7,2.9-0.8,2.9-3.1,2.9h-2.5v-6.7H347.4z"/>
	<path class="st0" d="M354.8,149.8c0,5.8,3.3,9.9,10.3,9.9c8.6,0,11-6.5,11-10.8c0-4.7-2.8-9.5-10.2-9.5
		C358.6,139.3,354.8,144,354.8,149.8z M365.4,140.8c4.5,0,5.7,4.3,5.7,9c0,4.5-1.2,8.4-5.5,8.4c-4.8,0-5.9-4.8-5.9-9.2
		C359.8,146.5,360.3,140.8,365.4,140.8z"/>
	<path class="st0" d="M390,159.7c8.6,0,11-6.5,11-10.8c0-4.7-2.8-9.5-10.2-9.5c-7.3,0-11.1,4.7-11.1,10.5
		C379.8,155.6,383.1,159.7,390,159.7z M390.4,140.8c4.5,0,5.7,4.3,5.7,9c0,4.5-1.2,8.4-5.5,8.4c-4.8,0-5.9-4.8-5.9-9.2
		C384.7,146.5,385.3,140.8,390.4,140.8z"/>
	<path class="st0" d="M416.6,141.5c2.4,0,2.6,0.1,2.9,0.4c0.4,0.4,0.9,2.1,1.2,2.8c0.1,0.3,0.2,0.7,0.3,0.8h1.3
		c-0.1-1-0.4-3.1-0.4-5.8c-2.5,0.1-6.3,0.1-9,0.1c-0.6,0-3.8,0-8.6-0.1c-0.1,2.8-0.1,3-0.4,5.8h1.3c0-0.1,0.2-0.6,0.3-0.9
		c0.9-3.1,1.3-3.1,3.1-3.1h2.4v12.7l0,2c0,1.5-0.1,1.5-3.2,2v1c1.6-0.1,3.5-0.1,5.2-0.1c0.6,0,1.3,0,2.2,0c0.9,0,2.1,0.1,3.3,0.1v-1
		c-0.1,0-0.4-0.1-0.6-0.1c-2.1-0.3-2.2-0.5-2.3-0.7c-0.3-0.3-0.3-2.5-0.3-3.1v-12.9H416.6z"/>
	<path class="st0" d="M433.1,139.8c-0.7,0-2.1,0.1-3,0.1c-1,0-3.3,0-5.9-0.1v1c0.8,0.2,2.3,0.5,2.4,0.5c0.4,0.1,0.6,0.3,0.7,0.8
		c0.2,0.8,0.2,6.5,0.2,7.3l0,3.6c0,0.8,0,2.7,0,3.4c-0.1,1.2-0.1,1.3-2.7,1.8c-0.2,0.1-0.5,0.1-0.6,0.1v1c1,0,4.2-0.2,4.7-0.2
		c0.6,0,1.6,0.1,2.2,0.1c0.4,0,1.3,0.1,2.1,0.1c7.7,0,8.8-4.1,8.8-6c0-4.1-3.9-4.3-5.3-4.4v-0.1c1.1-0.3,4.4-1.3,4.4-4.8
		c0-1.6-0.8-2.9-2.2-3.6C437.5,139.7,435.6,139.7,433.1,139.8z M437.4,153.5c0,3.6-2.2,4.2-4,4.2c-0.8,0-1.3-0.1-1.8-0.2v-7.8
		C434.6,149.7,437.4,149.6,437.4,153.5z M436.9,144.5c0,3.9-3.3,3.8-5.2,3.8v-6.9c0.5-0.1,1-0.1,1.7-0.1
		C435.8,141.2,436.9,142.4,436.9,144.5z"/>
	<path class="st0" d="M456.8,158.2c-0.1,0-0.3,0.1-0.4,0.1v1c1.7-0.1,3.2-0.1,5.4-0.1c1.1,0,2,0,2.8,0.1c0.8,0,1.4,0.1,1.8,0.1v-1
		l-0.7-0.2c-1.2-0.3-1.6-0.5-2.2-1.6c-0.7-1.4-1.1-2.1-3.7-7.7c-1.5-3.2-3-6.3-4.3-9.5h-1.1l-1.4,3c-0.2,0.5-0.5,1-0.5,1.2
		c-1.8,4-4,8.8-6.2,13c-0.6,1.1-1,1.4-2.6,1.7v1c0.7-0.1,1.8-0.1,3.6-0.1c0.9,0,1.6,0,2.1,0.1c0.6,0,1,0.1,1.3,0.1v-1l-0.3-0.1
		c-1.6-0.3-2-0.3-2-0.9c0-0.4,1.1-2.8,1.3-3.4c0.1-0.1,0.2-0.5,0.3-0.6c1.4,0,2.6,0,3.7,0c1.4,0,2.7,0,3.4,0c0,0.1,0.2,0.5,0.3,0.7
		c0.2,0.5,1.3,2.9,1.3,3.2C458.7,157.9,457.9,158,456.8,158.2z M450.7,151.7l2.9-6.5l2.8,6.5C453.9,151.7,453.2,151.7,450.7,151.7z"
		/>
	<path class="st0" d="M468.5,158.1c-0.2,0.1-0.5,0.1-0.6,0.1v1c1.5-0.1,3.6-0.1,6.9-0.1c1,0,2.5,0,4.3,0c1.8,0,3.8,0.1,5.8,0.1
		c0.4-1.5,1.3-4,1.9-5.6h-1.3c-2.3,3.7-2.5,3.8-4.8,3.8h-5.2V146l0-3.5c0-0.5,0-1.1,0.5-1.2c0.3-0.1,1.9-0.4,2.4-0.4l0.7-0.1v-1
		c-1.6,0.1-3.5,0.1-5.5,0.1c-2.1,0-4.4-0.1-5.7-0.1v1c0.1,0,0.5,0.1,0.8,0.1c2.1,0.4,2.2,0.5,2.3,1.4c0.1,0.6,0.1,9.9,0.1,10.9
		l0,3.5C471,157.7,470.9,157.7,468.5,158.1z"/>
	<path class="st0" d="M499.8,159.1c1.8,0,3.8,0.1,5.8,0.1c0.4-1.5,1.3-4,1.9-5.6h-1.3c-2.3,3.7-2.5,3.8-4.8,3.8h-5.2V146l0-3.5
		c0-0.5,0-1.1,0.5-1.2c0.3-0.1,1.9-0.4,2.4-0.4l0.7-0.1v-1c-1.6,0.1-3.5,0.1-5.5,0.1c-2.1,0-4.4-0.1-5.7-0.1v1
		c0.1,0,0.5,0.1,0.8,0.1c2.1,0.4,2.2,0.5,2.3,1.4c0.1,0.6,0.1,9.9,0.1,10.9l0,3.5c-0.1,1.1-0.2,1.1-2.6,1.5
		c-0.2,0.1-0.5,0.1-0.6,0.1v1c1.5-0.1,3.6-0.1,6.9-0.1C496.5,159.1,498,159.1,499.8,159.1z"/>
	<path class="st0" d="M530.8,139.3c-8.8,0-11.7,5.7-11.7,10.6c0,5,2.9,9.8,10.4,9.8c3.5,0,6.1-1.1,9-2.9l-0.7-1.3
		c-2,1.1-3.8,1.7-6.1,1.7c-5.2,0-7.6-3.4-7.6-8.3c0-2.6,0.8-8,6.9-8c2.3,0,3.6,0.7,4.4,1.6c0.6,0.7,0.9,1.4,1.4,3.3l0.2,0.6h1.6
		c-0.1-1.1-0.2-2.4-0.2-4.1c0-0.9,0-1.4,0.1-1.8C535.9,139.8,533.7,139.3,530.8,139.3z"/>
	<path class="st0" d="M541.4,140.7c0.1,0,0.5,0.1,0.8,0.1c2.1,0.4,2.2,0.5,2.3,1.4c0.1,0.6,0.1,9.9,0.1,10.9l0,3.5
		c-0.1,1.1-0.2,1.1-2.6,1.5c-0.2,0.1-0.5,0.1-0.6,0.1v1c1.5-0.1,3.6-0.1,6.9-0.1c1,0,2.5,0,4.3,0c1.8,0,3.8,0.1,5.8,0.1
		c0.4-1.5,1.3-4,1.9-5.6H559c-2.3,3.7-2.5,3.8-4.8,3.8H549V146l0-3.5c0-0.5,0-1.1,0.5-1.2c0.3-0.1,1.9-0.4,2.4-0.4l0.7-0.1v-1
		c-1.6,0.1-3.5,0.1-5.5,0.1c-2.1,0-4.4-0.1-5.7-0.1V140.7z"/>
	<path class="st0" d="M568.8,141.5c0.3-0.3,1.5-0.5,3-0.8v-1c-1.3,0.1-3.3,0.1-5.2,0.1c-1.8,0-3.5-0.1-5.5-0.1v1
		c0.1,0,0.5,0.1,0.7,0.1c1.6,0.3,2,0.4,2.2,0.8c0.2,0.4,0.2,1.5,0.2,2v8.5c0,2.6,0,7.4,8.4,7.4c3.5,0,5.3-1,6.5-2.2
		c0.9-0.9,1.8-2.3,1.9-6.1c0-4.7,0-5.2,0.1-8.3c0.1-1.6,0.1-1.9,2.3-2.2c0.2-0.1,0.6-0.1,0.7-0.1v-1c-1.1,0.1-2.4,0.1-3.9,0.1
		c-1.2,0-3-0.1-4.2-0.1v1c0.1,0,0.4,0.1,0.6,0.1c1.7,0.3,2,0.4,2.2,0.8c0.2,0.6,0.3,6.2,0.3,7.1c0,4.9,0,8.3-5.3,8.3
		c-1.9,0-3.9-0.5-4.7-2.6c-0.4-1-0.4-2.9-0.4-4v-7.1C568.6,142.9,568.6,141.8,568.8,141.5z"/>
	<path class="st0" d="M594.4,139.8c-0.7,0-2.1,0.1-3,0.1c-1,0-3.3,0-5.9-0.1v1c0.8,0.2,2.3,0.5,2.4,0.5c0.4,0.1,0.6,0.3,0.7,0.8
		c0.2,0.8,0.2,6.5,0.2,7.3l0,3.6c0,0.8,0,2.7,0,3.4c-0.1,1.2-0.1,1.3-2.7,1.8c-0.2,0.1-0.5,0.1-0.6,0.1v1c1,0,4.2-0.2,4.7-0.2
		c0.6,0,1.6,0.1,2.2,0.1c0.4,0,1.3,0.1,2.1,0.1c7.7,0,8.8-4.1,8.8-6c0-4.1-3.9-4.3-5.3-4.4v-0.1c1.1-0.3,4.4-1.3,4.4-4.8
		c0-1.6-0.8-2.9-2.2-3.6C598.8,139.7,596.9,139.7,594.4,139.8z M598.7,153.5c0,3.6-2.2,4.2-4,4.2c-0.8,0-1.3-0.1-1.8-0.2v-7.8
		C595.9,149.7,598.7,149.6,598.7,153.5z M598.1,144.5c0,3.9-3.3,3.8-5.2,3.8v-6.9c0.5-0.1,1-0.1,1.7-0.1
		C597.1,141.2,598.1,142.4,598.1,144.5z"/>
	<path class="st0" d="M231,303.3c96-19,113,36.7,113,36.7c-24.7,44-82,26.7-82,26.7c-5.7,45.3,11.7,52.3,11.7,52.3l-0.7-11
		c14,21.3,30.3,21.3,30.3,21.3c-19.7-20-18-37.7-18-37.7c27-6.7,50.7,2.3,50.7,2.3l-13.3-14c29.7-1.3,35.7,24.3,35.7,24.3
		c54-4,60,72.3,60,72.3C465,402,426,355,426,355l12,9.3c-30.3-85.7-136-89.7-136-89.7c47.7-11.3,74,3.7,74,3.7c-6.7-0.7-13,3-13,3
		c96,10,102.5,109,102.5,109c20-51.2-2-73.8-2-73.8c38.5,3.5,59,53,59,53c-5.5-45-22-53.5-22-53.5c7.5,1,27,13,27,13
		c-7-17-27-47.5-65.5-47s-51-9-51-9c33,6,46.5-9,46.5-9c-17.5,2.5-29.2-3-29.2-3c83.3-2.7,109.3-52.7,109.3-52.7
		c-25.3,16-47,17-69.3,15.7c-22.7-1.3-36-11-49.3-11.3c-13.3-0.3-25.3,8.3-25.3,8.3c11.3-16.7,23.3-16,31.7-14.7
		c8.3,1.3,20.3,9.3,44.3,11.7c30.1,2.9,48-4.3,48-4.3c-28.7-8.3-39.7-16.3-39.7-16.3l16.7-1C438.3,159,374.3,196,374.3,196
		c13.3-19,47.3-23.7,47.3-23.7c-90-9.7-107,34.7-107,34.7h7.3c-19.7,16.3-34,17.7-38.7,19c-4.7,1.3-2.3,6-2.3,6l3.3,2.3L273,246.5
		c-33.5,0-45,0-48.5,3.5s-19.8,20.3-19.8,20.3C217.3,308,225,304.3,231,303.3z M407,339.3h-4.7c0,0,20,27.3,18.3,44
		c0,0-15-49-62.7-77.7C358,305.7,386.7,310,407,339.3z M391,402.8c0,0-14.8-11.8-27.2-9.5c0,0-6.5-16.8-22.5-18
		C341.2,375.2,373.2,368.5,391,402.8z M415.3,224c7.7,0.7,20,8.3,45.3,7c0,0-5.3,15.7-31.7,17.7c0,0,19-11,20.3-12.4
		c0,0-16.3-0.1-21.8-1.3c-8.8-2.6-15.1-5.7-26.2-4.3C401.3,230.7,407.7,223.3,415.3,224z M455.3,189c0,0-27.3-4.7-48.7,3.7
		C406.7,192.7,429.3,176.3,455.3,189z M293,238.7c5.7-2,17.7,0.3,24.7-4.7s23.3-19.3,24.7-22c0,0,2.7,32.1-20,37.3
		c-14.7,2.7-17-5.7-37.7-3C284.7,246.3,287.3,240.7,293,238.7z M241,292.3c0,0-22,9.3-21.7-13C219.3,279.3,223.7,291,241,292.3z"/>
	<path class="st0" d="M408.2,522.3l15.5-7.8c-7.5-2.4-15.4-3.7-23.7-3.7c-10.4,0-20.3,2-29.4,5.7l16.5,6.3l-16.1,27.6
		c2.2-1.1,3.7-1.6,5-1.6c3.8,0,6.3,3.5,6.9,7c0.2,0.2,0.9,0.5,1.7,0.5c2.1,0,5.3,0,7.3,1.3l24.1-2.3l11,25.3
		c0.1,0.2,0.3,0.3,0.4,0.5c0.4,0.5,1.6,1.2,2,1.5l0.2,0.1c1.6,0.9,2.2,2.9,1.6,5.3c0,0.2-0.1,0.3-0.1,0.5c0,0.3-0.1,0.7-0.2,1.1
		l1.5,3.4L429,596c-0.3,1.1-1,2.1-2.3,2.9c-0.1,0.1-0.3,0.4-0.3,0.9c1.9,0.5,3.1,2,3.1,3.9c0,0.6-0.1,1.1-0.1,1.5
		c0.3,0.1,0.7,0.3,1.2,0.3c3.3,0.2,4.5,1.6,5.4,2.8c0.1,0.1,0.1,0.2,0.2,0.3l0.1,0.2c0.4,0.6,1.5,1.8,2.2,2c2.8,0.8,3.8,2.1,4.6,4.1
		c0.1,0.4,0.5,0.9,1,1.4c0.4,0.6,0.9,1.2,1.4,1.9c0,0,2.7,4.5,2.7,7.2c0,1-0.2,1.9-0.4,2.7c-0.1,0.3-0.2,0.7-0.2,0.8c0,0,0,0,0,0.1
		c0,0.1,0,0.1,0,0.2c0.1,0.4,0.3,0.9,0.3,1.8c0,0.5,0,1.1,0,1.7c0,0.6,0,1.2,0,1.7c0,0.2,0,0.4,0,0.8c0.2,2.3,0.2,4.5-0.6,6.2
		c-0.1,0.2-0.2,0.5-0.3,0.8c-0.3,0.9-1,3.8-4.4,3.8c-0.7,0-2.2,0-9.1-4.4c-2-1.3-6.7-4.4-8.1-6.1c-0.4-0.6-0.9-0.8-1.6-1.1
		c-1-0.5-2.8-1.3-3.3-3.5c-0.2-0.7-0.6-1.3-0.8-1.4c-1.4-1-2.6-1.8-3.6-2.5c-1.2-0.8-2.2-1.5-3-2.2c-0.2-0.2-0.4-0.2-0.5-0.3
		c-0.2,0.1-0.5,0.2-0.7,0.3c-1.8,0.7-3.1,1.3-4.4,1.3h-3.3c-0.5,1.2-1.6,3-3.8,3c-1.1,0-2.1-0.4-4.6-2.6c-0.4-0.4-0.8-0.9-1.1-1.3
		c-0.3,0.1-0.7,0.1-1.1,0.1c-2.9,0-5-1.7-5-4.1c0-0.6,0.1-1.1,0.2-1.6c0.1-0.5,0.1-0.9,0.1-1.4c-0.2-0.9-1.7-4.5-2.9-7.2l-19.7-11.6
		l0.6-2.9c-1.6-0.7-4.9-2.4-4.9-6.9c0-2,1-4.8,2.6-8.9c0.4-1.1,1-2.5,1.3-3.4c-1.4-0.5-3.1-1.4-2.9-4.1c0-0.1,0-0.1,0-0.2
		c0-1.1,0.4-1.9,0.7-2.4c0.3-0.5,0.4-0.8,0.4-1.6c0-0.6,0-1,0-1.4c-0.1-1.3-0.2-3,1.9-4.5c0-0.1,0.2-0.4,0.2-1.1c0-0.6,0-1,0-1.4
		c0,0,0,0,0,0c-1.5-1.1-2-2.9-2-4.1c0-1.1,0.5-2.2,1.5-3.3l-27.2,7.7l-2.4-16.8c-9.1,12.8-14.6,28.5-14.6,45.4
		c0,1.8,0.1,3.5,0.2,5.2l10.9-13.7l22.2,24.9l-1,33.1l-16.8-2.9c10.5,14.2,25.8,24.7,43.4,29.3l-9.4-14.4l30.6-13.8l31.1,11.8
		l-8.2,15c17.3-5.7,32-17.3,41.6-32.5l-16.8,4.4l-3.5-33.2l20.4-26l12.1,12.6c0-18.9-6.8-36.3-18-49.8l-1.2,17.4l-32.5-6.9
		L408.2,522.3z"/>
</g>
</svg>
