<?xml version="1.0" encoding="utf-8"?>
<!-- Generator: Adobe Illustrator 22.1.0, SVG Export Plug-In . SVG Version: 6.00 Build 0)  -->
<svg version="1.1" id="图层_1" xmlns="http://www.w3.org/2000/svg" xmlns:xlink="http://www.w3.org/1999/xlink" x="0px" y="0px"
	 viewBox="0 0 800 800" style="enable-background:new 0 0 800 800;" xml:space="preserve">
<style type="text/css">
	.st0{fill:#C6000A;}
	.st1{fill:#FFD800;}
	.st2{fill:#A30100;}
</style>
<g>
	<g>
		<g>
			<path class="st0" d="M400,50c-82.1,42.9-263.9,99.6-263.9,99.6S136,282.5,157,437c37.5,258,243,313,243,313s205.5-55,243-313
				c21-154.5,20.9-287.4,20.9-287.4S482.1,92.9,400,50z"/>
			<path class="st1" d="M400,57.9c75.3,38.5,227.5,87.5,256.9,96.8c-0.2,25.8-2.4,145.9-20.8,281.3c-8.4,57.8-26.1,109.8-52.7,154.8
				c-21.2,35.9-48.1,67.4-79.9,93.6c-28.4,23.4-55.5,38.1-73.2,46.4c-15.1,7-26.1,10.7-30.3,11.9c-9.5-2.9-54.5-18.1-103-57.9
				c-31.9-26.2-58.9-57.7-80.2-93.7c-26.7-45-44.5-97.2-52.9-155.2c-18.4-135.4-20.5-255.5-20.8-281.3
				C172.5,145.4,324.7,96.4,400,57.9 M400,50c-82.1,42.9-263.9,99.6-263.9,99.6S136,282.5,157,437c37.5,258,243,313,243,313
				s205.5-55,243-313c21-154.5,20.9-287.4,20.9-287.4S482.1,92.9,400,50L400,50z"/>
		</g>
		<path class="st1" d="M595,166c-71-23-195-25-195-25s-124,2-195,25c0,0-46.1,461.9,195,520.4C641.1,627.9,595,166,595,166z"/>
	</g>
	<g>
		<path class="st0" d="M301,180.5h-37l-3.2,39h36.8l1.8-19.8l-3-2.5l3.5-2.5L301,180.5z M288.5,185.5l-0.8,9h-12.3l0.8-9H288.5z
			 M273.5,214.8l1.4-14.6h12.4l-1.2,14.6H273.5z"/>
		<path class="st0" d="M336.2,219.5H349l-12.5-39H323l-19,39h12.8l5.5-12.1h11.1L336.2,219.5z M324.8,201.8l4.7-10.2l2.5,10.2H324.8
			z"/>
		<path class="st0" d="M355.8,180.5l-4,39h37.5l2.8-39H355.8z M377.2,214.2h-11.5l2-28.8h11.5L377.2,214.2z"/>
		<path class="st0" d="M458.5,180.5l-4,39H492l2.8-39H458.5z M480,214.2h-11.5l2-28.8H482L480,214.2z"/>
		<polygon class="st0" points="450.8,180.5 412.8,180.5 412.8,186.2 423.3,186.2 420,219.5 433.8,219.5 437.3,186.2 450.8,186.2 		
			"/>
		<polygon class="st0" points="527.3,180.5 525.2,214.2 512.8,214.2 515.1,180.5 502,180.5 499.8,219.5 536.5,219.5 539.5,180.5 		
			"/>
	</g>
	<g>
		<path class="st0" d="M112.3,628.3c0,0,88,10.7,138.7-44c0,0,40.7-11.3,44.7,24c4,35.3,6.7,64,6.7,64s-74,27.3-120.7,34
			c-46.7,6.7-59.2-3.3-64.2-8.8L112.3,628.3z"/>
		<path class="st2" d="M122.5,638c0,0,84,9,134.5-45.5h12c0,0-4.3,19.3-14.4,25.4L259,631c0,0,15.5-23.7,21-35.3
			c0,0,13.5,9.8,8.5,45.3s-15,32-33,37S134,715,127,691L122.5,638z"/>
		<path class="st0" d="M687.7,628.3c0,0-88,10.7-138.7-44c0,0-40.7-11.3-44.7,24c-4,35.3-6.7,64-6.7,64s74,27.3,120.7,34
			c46.7,6.7,59.2-3.3,64.2-8.8L687.7,628.3z"/>
		<path class="st2" d="M677.5,638c0,0-84,9-134.5-45.5h-12c0,0,4.3,19.3,14.4,25.4L541,631c0,0-15.5-23.7-21-35.3
			c0,0-13.5,9.8-8.5,45.3s15,32,33,37S666,715,673,691L677.5,638z"/>
		<path class="st0" d="M588.3,632.8c-22.5-9.1-98.7-37.2-188.3-37.2s-165.8,28-188.3,37.2c-3.3,1.3-4.3,5.6-1.8,8.2l67.2,73.2
			c1.5,1.7,4,2.1,6,1.1c63.8-31.2,116.9-27.6,116.9-27.6s53.1-3.5,116.9,27.6c2,1,4.5,0.6,6-1.1l67.2-73.2
			C592.5,638.4,591.6,634.2,588.3,632.8z"/>
		<path class="st1" d="M535,582.6c7.8,0,14,1.7,14,1.7c36.4,39.3,92.2,44.8,120.6,44.8c11.1,0,18-0.8,18-0.8l-5.2,69.2
			c-3.8,4.2-12,11-36.6,11c-7.5,0-16.6-0.6-27.6-2.2c-21.5-3.1-48.8-10.5-72-17.7l-23.4,25.5c-1,1.1-2.4,1.6-3.8,1.6
			c-0.8,0-1.5-0.2-2.3-0.5c-52-25.4-96.9-27.7-111.7-27.7c-3.4,0-5.2,0.1-5.2,0.1s-1.8-0.1-5.2-0.1c-14.8,0-59.7,2.4-111.7,27.7
			c-0.7,0.4-1.5,0.5-2.3,0.5c-1.4,0-2.8-0.6-3.8-1.6l-23.4-25.5c-23.2,7.1-50.5,14.6-72,17.7c-11,1.6-20.1,2.2-27.6,2.2
			c-24.5,0-32.7-6.8-36.6-11l-5.2-69.2c0,0,6.9,0.8,18,0.8c28.4,0,84.2-5.5,120.6-44.8c0,0,6.2-1.7,14-1.7c12,0,27.7,4.1,30.5,24.8
			c30.3-6.6,66.1-11.7,104.5-11.7s74.2,5.1,104.5,11.7C507.3,586.7,523,582.6,535,582.6 M535,576.6c-8.6,0-16,1.9-21.9,5.5
			c-6.5,4.1-11,10.2-13.3,18.1c-34.1-7-67.7-10.6-99.8-10.6s-65.7,3.6-99.8,10.6c-2.3-8-6.7-14-13.3-18.1
			c-5.9-3.7-13.3-5.5-21.9-5.5c-8.5,0-15.3,1.9-15.6,1.9l-1.6,0.5l-1.2,1.2c-14.9,16-49.7,42.9-116.2,42.9
			c-10.5,0-17.2-0.8-17.3-0.8l-7.2-0.9l0.5,7.3l5.2,69.2l0.2,2.1l1.4,1.5c5.1,5.6,14.9,13,41,13c8.3,0,17.9-0.8,28.4-2.3
			c17.7-2.5,41-8.2,69.3-16.8l20.9,22.7c2.1,2.3,5.1,3.6,8.2,3.6c1.7,0,3.4-0.4,4.9-1.1c50.2-24.5,93-27.1,109.1-27.1
			c3.1,0,4.8,0.1,4.8,0.1l0.4,0l0.4,0c0,0,1.7-0.1,4.8-0.1c16.1,0,58.9,2.6,109.1,27.1c1.5,0.7,3.2,1.1,4.9,1.1
			c3.1,0,6.1-1.3,8.2-3.6l20.9-22.7c28.3,8.6,51.6,14.2,69.3,16.8c10.6,1.5,20.1,2.3,28.4,2.3c26.2,0,35.9-7.4,41-13l1.4-1.5
			l0.2-2.1l5.2-69.2l0.5-7.3l-7.2,0.9c-0.1,0-6.8,0.8-17.3,0.8c-66.5,0-101.4-26.9-116.2-42.9l-1.2-1.2l-1.6-0.5
			C550.3,578.5,543.5,576.6,535,576.6L535,576.6z"/>
	</g>
	<g>
		<polygon class="st1" points="362.2,699.8 360.8,723 367.8,723 369.5,699.8 		"/>
		<path class="st1" d="M437.3,699.8h-4.5h-4.4h-4.6h-2.6l-1.5,23.2h1.4h5.6h4.6h6h1l1.8-23.2H437.3z M432.7,702.5l-0.4,6.5h-4.5
			l0.5-6.5H432.7z M426.9,720.2l0.6-8.5h4.5l-0.5,8.5H426.9z"/>
		<path class="st1" d="M390,699.8h-4.5h-4.4h-4.6h-2.6l-0.8,12h7.1h1.4h3.1l-0.5,8.5h-2.6h-2h-7l-0.2,2.8h1.4h5.6h4.6h6h1l1.8-23.2
			H390z M384.9,709h-4.5l0.5-6.5h4.4L384.9,709z"/>
		<path class="st1" d="M413.3,699.8h-4.5h-4.4h-4.6h-2.6l-0.8,12h7.1h1.4h3.1l-0.5,8.5h-2.6h-2h-7l-0.2,2.8h1.4h5.6h4.6h6h1
			l1.8-23.2H413.3z M408.2,709h-4.5l0.5-6.5h4.4L408.2,709z"/>
	</g>
	<g>
		<g>
			<path class="st1" d="M676.3,251c-24.7-32-73.3-70-73.3-70s4.7-18,13.3-46c8.7-28-8.7-24.7-13.3-18c-4.7,6.7-24,45.3-24,45.3
				c-46.7-36.7-99.3-70.7-116.7-76.7c-17.3-6-16,12.7-7.3,19.3c17.3,14,109,93,109,93c-48,117-83,158-83,158
				c-28-69.2-38.6-65.5-43.8-64.2c-3.3,0.8-6.5,7-4.9,12.6c6,17.3,10.7,59.3,10.7,59.3c-23.3,7.3-43,6.7-43,6.7s-19.7,0.7-43-6.7
				c0,0,4.7-42,10.7-59.3c1.6-5.6-1.6-11.8-4.9-12.6c-5.2-1.2-15.8-5-43.8,64.2c0,0-35-41-83-158c0,0,91.7-79,109-93
				c8.7-6.7,10-25.3-7.3-19.3c-17.3,6-70,40-116.7,76.7c0,0-19.3-38.7-24-45.3c-4.7-6.7-22-10-13.3,18c8.7,28,13.3,46,13.3,46
				s-48.7,38-73.3,70c-14.7,20-6.7,33,17.3,51s122,86,122,86l-12-1.7c0,0-9.3,16.7-41.3,22.7c0,0,23.3,40.7,93.3,20.7
				c0,0,7.3,7.3,6.7,20c-0.7,12.7-2.2,25.3-0.2,31.8c2,6.4,34.3,87.2,52.4,142.2c0.4,1.2,1.2,2.2,2.3,2.8
				c4.4,2.6,17.1,9.6,35.8,13.9c18.7-4.4,31.4-11.3,35.8-13.9c1.1-0.6,1.9-1.7,2.3-2.8c18.1-55,50.4-135.8,52.4-142.2
				c2-6.5,0.5-19.2-0.2-31.8c-0.7-12.7,6.7-20,6.7-20c70,20,93.3-20.7,93.3-20.7c-32-6-41.3-22.7-41.3-22.7l-12,1.7
				c0,0,98-68,122-86S691,271,676.3,251z"/>
			<path class="st0" d="M456.3,84.5c1.7,0,3.7,0.4,6,1.2c17.3,6,70,40,116.7,76.7c0,0,19.3-38.7,24-45.3c1.8-2.6,5.4-4.6,8.8-4.6
				c5.4,0,9.9,5.4,4.6,22.6c-8.7,28-13.3,46-13.3,46s48.7,38,73.3,70c14.7,20,6.7,33-17.3,51s-122,86-122,86l12-1.7
				c0,0,9.3,16.7,41.3,22.7c0,0-15,26.2-57.2,26.2c-10.4,0-22.4-1.6-36.2-5.5c0,0-7.3,7.3-6.7,20c0.7,12.7,2.2,25.3,0.2,31.8
				c-2,6.4-34.3,87.2-52.4,142.2c-0.4,1.2-1.2,2.2-2.3,2.8c-4.4,2.6-17.1,9.6-35.8,13.9c-18.7-4.4-31.4-11.3-35.8-13.9
				c-1.1-0.6-1.9-1.7-2.3-2.8c-18.1-55-50.4-135.8-52.4-142.2c-2-6.5-0.5-19.2,0.2-31.8c0.7-12.7-6.7-20-6.7-20
				c-13.8,3.9-25.8,5.5-36.2,5.5c-42.1,0-57.2-26.2-57.2-26.2c32-6,41.3-22.7,41.3-22.7l12,1.7c0,0-98-68-122-86s-32-31-17.3-51
				c24.7-32,73.3-70,73.3-70s-4.7-18-13.3-46c-5.3-17.3-0.8-22.6,4.6-22.6c3.3,0,7,2.1,8.8,4.6c4.7,6.7,24,45.3,24,45.3
				c46.7-36.7,99.3-70.7,116.7-76.7c2.3-0.8,4.3-1.2,6-1.2c10.8,0,8.8,14.7,1.3,20.5c-17.3,14-109,93-109,93c48,117,83,158,83,158
				c23.4-57.8,34.6-64.7,40.7-64.7c1.2,0,2.2,0.3,3.1,0.5c3.3,0.8,6.5,7,4.9,12.6c-6,17.3-10.7,59.3-10.7,59.3
				c19.7,6.2,36.9,6.7,41.7,6.7c0.9,0,1.3,0,1.3,0s0.5,0,1.3,0c4.8,0,21.9-0.5,41.7-6.7c0,0-4.7-42-10.7-59.3
				c-1.6-5.6,1.6-11.8,4.9-12.6c0.9-0.2,1.9-0.5,3.1-0.5c6.1,0,17.3,7,40.7,64.7c0,0,35-41,83-158c0,0-91.7-79-109-93
				C447.5,99.2,445.5,84.5,456.3,84.5 M456.3,73.5L456.3,73.5c-8.2,0-14.9,4.6-17.4,12c-3.1,9.3,0.9,21.6,9.3,28.1
				c14.6,11.8,82,69.7,102.6,87.5c-29.7,71.4-54,112.6-67.3,132.5c-7.6-17.1-14.3-29.7-20.4-38.2c-4.7-6.6-12.3-15.3-22.8-15.3
				c-2.4,0-4.3,0.5-5.5,0.7l-0.2,0.1c-4.3,1-8,4-10.6,8.4c-3.1,5.4-4,12.1-2.4,17.9l0.1,0.3l0.1,0.3c3.7,10.5,7.1,33.1,9,47.7
				c-14.3,3.4-25.9,3.8-29.6,3.8c-0.6,0-0.9,0-1,0l-0.4,0l-0.4,0c-0.1,0-0.4,0-1,0c-3.7,0-15.3-0.3-29.6-3.8
				c1.9-14.5,5.3-37.1,9-47.7l0.1-0.3l0.1-0.3c1.7-5.9,0.8-12.5-2.4-17.9c-2.6-4.4-6.3-7.3-10.6-8.4l-0.2,0c-1.1-0.3-3-0.7-5.5-0.7
				c-10.5,0-18,8.7-22.8,15.3c-6.1,8.4-12.8,21-20.4,38.2c-3.3-5.1-7.4-11.5-12.1-19.3c-12.6-21.4-32.2-58.1-55.2-113.2
				c20.6-17.8,88-75.7,102.6-87.5c8.4-6.5,12.5-18.8,9.3-28.1c-2.5-7.4-9.2-12-17.4-12.1c-3,0-6.2,0.6-9.6,1.8
				c-18,6.2-66.1,37.3-109.3,70.2c-6.3-12.4-15.4-29.9-18.8-34.8c-3.9-5.6-11-9.3-17.8-9.3c-5.6,0-10.7,2.5-14,7
				c-4.9,6.7-5.3,16.4-1.1,29.9c5.4,17.4,9.2,31,11.3,38.7c-13.8,11.2-49.1,40.9-69.5,67.4l-0.1,0.1l-0.1,0.1
				c-9.5,13-11.9,25-7.2,36.8c3.7,9.4,11.7,18.2,26.8,29.5c17.7,13.3,74.4,52.9,104,73.5c-4.3,4.1-13.5,10.6-30.8,13.9l-15.2,2.9
				l7.7,13.4c0.7,1.3,18.8,31.7,66.7,31.7c9.7,0,20.1-1.3,31-3.8c0.6,1.8,1,4.1,0.9,6.7c-0.1,2.6-0.3,5.3-0.5,7.9
				c-0.7,11.1-1.4,20.7,0.8,27.8c0.7,2.1,3.1,8.4,8.4,22.4c10.9,28.4,31.2,81.2,44,120.1c1.2,3.7,3.7,6.8,7.1,8.8
				c5,3,18.8,10.5,39,15.2l2.5,0.6l2.5-0.6c20.1-4.7,34-12.2,39-15.2c3.3-2,5.8-5.1,7.1-8.8c12.8-38.9,33.1-91.7,44-120.1
				c5.4-14,7.8-20.2,8.4-22.4c2.2-7.1,1.5-16.7,0.8-27.8c-0.2-2.6-0.3-5.2-0.5-7.9c-0.1-2.6,0.3-4.9,0.9-6.7
				c10.9,2.5,21.2,3.8,31,3.8c48,0,66-30.4,66.7-31.7l7.7-13.4l-15.2-2.9c-17.3-3.2-26.5-9.8-30.8-13.9
				c29.6-20.6,86.3-60.2,104-73.5c15.1-11.3,23.1-20.1,26.8-29.5c4.7-11.8,2.3-23.8-7.2-36.8l-0.1-0.1l-0.1-0.1
				c-20.4-26.5-55.7-56.2-69.5-67.4c2.1-7.6,6-21.2,11.3-38.7c4.2-13.5,3.8-23.3-1.1-29.9c-3.3-4.4-8.4-7-14-7
				c-6.7,0-13.9,3.7-17.8,9.3c-3.4,4.8-12.5,22.3-18.8,34.8c-43.1-32.9-91.3-64-109.3-70.2C462.5,74.1,459.3,73.5,456.3,73.5
				L456.3,73.5z"/>
		</g>
		<g>
			<path class="st0" d="M339.7,467.7c0,0,15.3,32.7,34.7,44c0,0-10.7,0.7-41.3-20C333,491.7,330.3,476.3,339.7,467.7z"/>
			<path class="st0" d="M209,219.7c-37.3,33.3-26.7,62-18.7,68s60,39.3,60,39.3C231,293,209,219.7,209,219.7z M201,245l3.3-6
				l18.7,57.3L201.7,283L201,245z"/>
			<path class="st0" d="M460.3,467.7c0,0-15.3,32.7-34.7,44c0,0,10.7,0.7,41.3-20C467,491.7,469.7,476.3,460.3,467.7z"/>
			<path class="st0" d="M590,183.5l15-45.5l-19.5,41.5c0,0-92-70.5-108-79c-9-5-17.8-0.8-9.5,6.5c8.3,7.3,39.3,26.7,110.3,88
				c0,0-50.7,126-99.3,172c0,0-17-36.5-23.3-36.8c-3.2-0.2-5.7,0-5.7,0v45.3c0,0-23.3,29.8-50,29.8s-50-29.8-50-29.8v-45.3
				c0,0-2.5-0.2-5.7,0C338,330.5,321,367,321,367c-48.7-46-99.3-172-99.3-172c71-61.3,102-80.7,110.3-88c8.3-7.3-0.5-11.5-9.5-6.5
				c-16,8.5-108,79-108,79L195,138l15,45.5c-40.5,30-90.3,83.5-77.7,94.2C197,335,303,402.5,303,402.5c-15-0.5-48.3-4.2-48.3-4.2
				c0.3,6.8,7.5,10.8,6.7,12.3c-0.8,1.5-5.3,1.8-7.5,2.5c-2.2,0.7-3,3.3-3.3,6.3s3,6,7.5,6s36,0.5,49-1c37.5-4.5,34.7,7.2,34,14.8
				s-13.2,20.9-16.5,25s-1.2,10.4,2.4,9c6.5-2.9,18.1-13.4,18.1-13.4c17.5,35.5,38,53,38,53c-17,3.5-36.7-3.3-36.7-3.3
				c0,109.7,53.7,120,53.7,120s53.7-10.3,53.7-120c0,0-19.7,6.8-36.7,3.3c0,0,20.5-17.5,38-53c0,0,11.6,10.5,18.1,13.4
				c3.6,1.4,5.6-4.9,2.4-9s-15.8-17.4-16.5-25s-3.5-19.3,34-14.8c13,1.5,44.5,1,49,1s7.8-3,7.5-6s-1.2-5.7-3.3-6.3
				c-2.2-0.7-6.7-1-7.5-2.5c-0.8-1.5,6.3-5.5,6.7-12.3c0,0-33.3,3.7-48.3,4.2c0,0,106-67.5,170.7-124.8
				C680.3,267,630.5,213.5,590,183.5z M153,279c-12.7-10.7,2.6-30.7,62-79.3c0,0,36.7,116.7,74.7,165.3
				C289.7,365,180.3,300.3,153,279z M647,279c-27.3,21.3-136.7,86-136.7,86c38-48.7,74.7-165.3,74.7-165.3
				C644.4,248.3,659.7,268.3,647,279z"/>
			<path class="st0" d="M549.7,327c0,0,52-33.3,60-39.3s18.7-34.7-18.7-68C591,219.7,569,293,549.7,327z M598.3,283L577,296.3
				l18.7-57.3l3.3,6L598.3,283z"/>
		</g>
	</g>
	<g>
		<g>
			<path class="st1" d="M319.8,654.1c3.3-0.8,4.9-1.2,8.2-1.9c-0.2-1.1-0.4-1.7-0.6-2.8c2.9-0.6,4.3-0.9,7.2-1.5
				c0.2,1.1,0.3,1.7,0.5,2.8c4.4-0.8,6.6-1.2,11.1-1.8c-0.2-1.1-0.2-1.7-0.4-2.8c2.9-0.4,4.4-0.6,7.4-0.9c0.1,1.1,0.2,1.7,0.3,2.8
				c5.5-0.6,8.3-0.8,13.9-1c0.2,4.1,0.3,6.2,0.4,10.3c0,1.1-0.1,2.1-0.4,3s-0.8,1.5-1.4,2c-0.6,0.5-1.5,0.8-2.6,1.1
				c-1.1,0.3-2.1,0.4-3.1,0.5c-12.3,1-24.6,3-36.5,6.1c1.5,5.7,2.2,8.5,3.6,14.2c0.8,3,0.5,5-0.7,6c-1.2,1-2.5,1.7-3.8,2.1
				c-0.8,0.2-1.3,0.4-2.1,0.6c-0.7-2.3-1-3.4-1.7-5.7c0.5-0.1,0.7-0.2,1.2-0.4c0.2-0.1,0.4-0.3,0.6-0.8s0.1-1.1-0.1-2
				c-3.6-12.5-7.3-25.1-10.9-37.6c8.7-2.5,13-3.6,21.9-5.3c0.6-1,0.9-1.4,1.6-2.4c3.2-0.6,4.8-0.9,8-1.3c1.1,0.7,1.6,1,2.7,1.7
				c9-1.2,13.5-1.7,22.5-2.1c0.1,2.2,0.2,3.3,0.3,5.6c-16.2,0.6-32.4,3.2-48.1,7.2C319.2,651.6,319.4,652.4,319.8,654.1z
				 M321.2,659.5c0.5,2,0.8,3,1.3,4.9c3.1-0.8,4.7-1.2,7.9-1.9c-0.4-2-0.7-3-1.1-5C326,658.3,324.4,658.7,321.2,659.5z M327.5,671.3
				c2.8-0.7,4.3-1,7.1-1.6c0.2,1,0.3,1.5,0.5,2.6c1.5-0.3,2.3-0.5,3.9-0.8c0.5-0.1,0.8-0.2,1.1-0.4c0.3-0.2,0.4-0.4,0.4-0.6
				c-0.2-0.9-0.2-1.3-0.4-2.2c2.5-0.4,3.8-0.6,6.3-1c0.3,1.8,0.4,2.7,0.7,4.5c0.2,1.3-0.1,2.3-0.7,3.1c-0.7,0.8-1.6,1.3-2.7,1.5
				c-3,0.5-4.4,0.8-7.4,1.4c0.3,1.5,0.5,2.2,0.8,3.7c0.1,0.5,0.3,0.8,0.6,1c0.3,0.2,1,0.2,2,0.1c3.6-0.7,5.4-1,9-1.5
				c0.3,2.2,0.5,3.3,0.8,5.5c-4.5,0.7-6.7,1-11.2,2c-2.3,0.5-4,0.4-5.2-0.3s-2-2-2.4-3.9C329.4,679.1,328.8,676.5,327.5,671.3z
				 M347.7,659.5c-0.3-2-0.4-3-0.7-5.1c-4.4,0.6-6.5,0.9-10.8,1.7c0.4,2,0.6,3,0.9,5C341.4,660.5,343.5,660.1,347.7,659.5z
				 M348.8,667.3c2.9-0.4,4.3-0.6,7.3-0.9c0.1,1,0.2,1.6,0.3,2.6c1.6-0.2,2.4-0.2,4-0.4c0.4,0,0.8-0.1,1.1-0.3
				c0.3-0.2,0.4-0.3,0.4-0.5c-0.1-0.9-0.1-1.3-0.2-2.2c2.5-0.2,3.8-0.3,6.4-0.4c0.1,1.8,0.1,2.7,0.2,4.5c0.1,1.3-0.2,2.3-0.8,2.8
				c-0.6,0.5-1.1,0.9-1.7,1.1s-1.1,0.3-1.5,0.3c-3,0.2-4.5,0.3-7.4,0.6c0.2,1.5,0.2,2.2,0.4,3.7c0,0.5,0.2,0.9,0.5,1.1
				c0.3,0.3,1,0.3,2,0.2c3.6-0.3,5.4-0.4,9.1-0.6c0.1,2.2,0.1,3.4,0.2,5.6c-4.6,0.2-6.8,0.4-11.4,0.8c-2.3,0.2-4,0-5.1-0.8
				c-1.1-0.8-1.8-2.1-2-4.1C349.9,675.3,349.5,672.6,348.8,667.3z M354.2,653.6c0.2,2,0.3,3,0.5,5.1c1.7-0.2,2.6-0.3,4.4-0.4
				c0.7-0.1,1.1-0.2,1.2-0.4c0.2-0.2,0.2-0.6,0.2-1.2c-0.1-1.4-0.2-2.2-0.3-3.6C357.8,653.3,356.6,653.4,354.2,653.6z"/>
		</g>
		<g>
			<path class="st1" d="M428.7,684.2c0.1-2.7,0.2-4,0.3-6.7c1.8,0.1,2.7,0.1,4.5,0.2c0.7-10.9,1.4-21.8,2.1-32.7
				c-2.2-0.1-3.3-0.2-5.5-0.3c0.1-2.7,0.2-4,0.3-6.7c2.3,0.1,3.4,0.1,5.6,0.3c0.1-1.7,0.2-2.5,0.3-4.2c3.3,0.2,5,0.3,8.3,0.7
				c-0.2,1.7-0.2,2.5-0.4,4.2c1.8,0.2,2.7,0.3,4.4,0.5c-0.3,2.6-0.5,4-0.8,6.6c-1.7-0.2-2.6-0.3-4.3-0.5
				c-1.1,10.9-2.1,21.8-3.2,32.6c2.1,0.2,3.2,0.3,5.2,0.6c0,0.3-0.1,0.4-0.1,0.7c0.3,0,0.5-0.1,0.7-0.1c0.2-0.1,0.3-0.2,0.4-0.4
				c0.1-0.2,0.2-0.5,0.3-0.9c0.1-0.4,0.1-0.6,0.1-0.7c1.6-12.6,3.3-25.3,4.9-37.9c8.5,1.1,12.8,1.9,21.2,3.7
				c0.3-1.5,0.5-2.3,0.9-3.8c3.2,0.7,4.8,1.1,7.9,1.9c-0.4,1.5-0.6,2.3-1,3.8c0.6,0.2,0.9,0.2,1.6,0.4c0.7-0.9,1-1.3,1.7-2.2
				c1.7,0.5,2.5,0.7,4.2,1.2c-0.3,1-0.4,1.5-0.7,2.4c0.7,0.2,1,0.3,1.7,0.5c-0.7,2.4-1.1,3.7-1.8,6.1c-3.3-1-4.9-1.4-8.2-2.3
				c-2.4,9.2-3.5,13.7-5.9,22.9c0.3,0.1,0.4,0.1,0.7,0.2c0.5,0.1,0.9,0.1,1.2-0.2c0.3-0.2,0.5-0.7,0.7-1.4c0.1-0.3,0.1-0.5,0.2-0.8
				c1.8-6.8,2.7-10.1,4.5-16.9c2.5,0.7,3.7,1,6.1,1.7c-2.2,7.4-3.3,11.2-5.5,18.6c-0.3,1-1,2.2-2,3.7c-1.1,1.5-2.8,1.9-5.3,1.2
				c-0.8-0.2-1.2-0.3-2-0.5c-0.1,0.5-0.2,0.8-0.3,1.3c-0.2,1-0.3,1.7-0.3,2.1c0.1,0.5,0.8,0.9,2.2,1.3c2,0.5,3,0.8,5,1.4
				c-0.7,2.2-1,3.3-1.7,5.5c-2.7-0.8-4-1.2-6.7-1.9c-2.7-0.7-4.3-1.5-4.9-2.5c-0.6-1-0.8-2-0.8-3.1c0-1.1,0.1-2,0.3-2.8
				c2.4-10.6,4.7-21.2,7.1-31.8c-5.1-1.1-7.7-1.6-12.9-2.5c-0.3,1.8-0.4,2.6-0.7,4.4c4.2,0.7,6.4,1.1,10.6,2c-2,9.4-4,18.9-6,28.3
				c-0.1,0.5-0.4,1.3-0.7,2.2c-0.4,0.9-1.1,1.7-2.3,2.4c-1.1,0.6-2.9,0.7-5.4,0.3c-0.8-0.1-1.2-0.2-2-0.3c0.2-1.5,0.4-2.3,0.6-3.8
				c-0.4,0.7-1.1,1.5-1.9,2.4s-2.7,1.1-5.5,0.8C438.8,684.8,435.4,684.5,428.7,684.2z M460.2,658.3c-1.3-0.2-1.9-0.3-3.2-0.5
				c-1.5,9.1-2.2,13.6-3.7,22.6c0.6,0.1,0.9,0.2,1.5,0.3c0.5,0.1,0.8,0,1-0.3c0.2-0.3,0.4-0.6,0.5-1c0.1-0.4,0.2-0.8,0.3-1.2
				C458,670.2,458.8,666.2,460.2,658.3z"/>
		</g>
	</g>
</g>
</svg>
