<?xml version="1.0" encoding="utf-8"?>
<!-- Generator: Adobe Illustrator 22.1.0, SVG Export Plug-In . SVG Version: 6.00 Build 0)  -->
<svg version="1.1" id="图层_1" xmlns="http://www.w3.org/2000/svg" xmlns:xlink="http://www.w3.org/1999/xlink" x="0px" y="0px"
	 viewBox="0 0 800 800" style="enable-background:new 0 0 800 800;" xml:space="preserve">
<style type="text/css">
	.st0{fill:#C6000A;}
</style>
<g>
	<polygon class="st0" points="362.2,699.8 360.8,723 367.8,723 369.5,699.8 	"/>
	<path class="st0" d="M431.3,723h6h1l1.8-23.2h-2.8h-4.5h-4.4h-4.6h-2.6l-1.5,23.2h1.4h5.6H431.3z M428.3,702.5h4.4l-0.4,6.5h-4.5
		L428.3,702.5z M427.6,711.8h4.5l-0.5,8.5h-4.6L427.6,711.8z"/>
	<path class="st0" d="M381.6,720.2h-2h-7l-0.2,2.8h1.4h5.6h4.6h6h1l1.8-23.2H390h-4.5h-4.4h-4.6h-2.6l-0.8,12h7.1h1.4h3.1l-0.5,8.5
		H381.6z M380.4,709l0.5-6.5h4.4l-0.4,6.5H380.4z"/>
	<path class="st0" d="M404.9,720.2h-2h-7l-0.2,2.8h1.4h5.6h4.6h6h1l1.8-23.2h-2.8h-4.5h-4.4h-4.6h-2.6l-0.8,12h7.1h1.4h3.1l-0.5,8.5
		H404.9z M403.8,709l0.5-6.5h4.4l-0.4,6.5H403.8z"/>
	<path class="st0" d="M374.3,511.7c-19.3-11.3-34.7-44-34.7-44c-9.3,8.7-6.7,24-6.7,24C363.7,512.3,374.3,511.7,374.3,511.7z"/>
	<path class="st0" d="M190.3,287.7c8,6,60,39.3,60,39.3C231,293,209,219.7,209,219.7C171.7,253,182.3,281.7,190.3,287.7z M201.7,283
		l-0.7-38l3.3-6l18.7,57.3L201.7,283z"/>
	<path class="st0" d="M460.3,467.7c0,0-15.3,32.7-34.7,44c0,0,10.7,0.7,41.3-20C467,491.7,469.7,476.3,460.3,467.7z"/>
	<path class="st0" d="M590,183.5l15-45.5l-19.5,41.5c0,0-92-70.5-108-79c-9-5-17.8-0.8-9.5,6.5c8.3,7.3,39.3,26.7,110.3,88
		c0,0-50.7,126-99.3,172c0,0-17-36.5-23.3-36.8c-3.2-0.2-5.7,0-5.7,0v45.3c0,0-23.3,29.8-50,29.8s-50-29.8-50-29.8v-45.3
		c0,0-2.5-0.2-5.7,0C338,330.5,321,367,321,367c-48.7-46-99.3-172-99.3-172c71-61.3,102-80.7,110.3-88c8.3-7.3-0.5-11.5-9.5-6.5
		c-16,8.5-108,79-108,79L195,138l15,45.5c-40.5,30-90.3,83.5-77.7,94.2C197,335,303,402.5,303,402.5c-15-0.5-48.3-4.2-48.3-4.2
		c0.3,6.8,7.5,10.8,6.7,12.3c-0.8,1.5-5.3,1.8-7.5,2.5c-2.2,0.7-3,3.3-3.3,6.3s3,6,7.5,6s36,0.5,49-1c37.5-4.5,34.7,7.2,34,14.8
		s-13.2,20.9-16.5,25s-1.2,10.4,2.4,9c6.5-2.9,18.1-13.4,18.1-13.4c17.5,35.5,38,53,38,53c-17,3.5-36.7-3.3-36.7-3.3
		c0,109.7,53.7,120,53.7,120s53.7-10.3,53.7-120c0,0-19.7,6.8-36.7,3.3c0,0,20.5-17.5,38-53c0,0,11.6,10.5,18.1,13.4
		c3.6,1.4,5.6-4.9,2.4-9s-15.8-17.4-16.5-25s-3.5-19.3,34-14.8c13,1.5,44.5,1,49,1s7.8-3,7.5-6s-1.2-5.7-3.3-6.3
		c-2.2-0.7-6.7-1-7.5-2.5c-0.8-1.5,6.3-5.5,6.7-12.3c0,0-33.3,3.7-48.3,4.2c0,0,106-67.5,170.7-124.8
		C680.3,267,630.5,213.5,590,183.5z M153,279c-12.7-10.7,2.6-30.7,62-79.3c0,0,36.7,116.7,74.7,165.3C289.7,365,180.3,300.3,153,279
		z M647,279c-27.3,21.3-136.7,86-136.7,86c38-48.7,74.7-165.3,74.7-165.3C644.4,248.3,659.7,268.3,647,279z"/>
	<path class="st0" d="M591,219.7c0,0-22,73.3-41.3,107.3c0,0,52-33.3,60-39.3S628.3,253,591,219.7z M598.3,283L577,296.3l18.7-57.3
		l3.3,6L598.3,283z"/>
	<path class="st0" d="M430.3,730.8c-15.1,7-26.1,10.7-30.3,11.9c-7.6-2.3-38.4-12.7-75.5-37.5c-2.7,0.9-5.5,1.8-8.4,2.8
		c46.1,31.9,83.9,42,83.9,42s37.8-10.1,83.9-42c-2.8-1-5.6-1.9-8.4-2.8C457.9,717,442,725.3,430.3,730.8z"/>
	<path class="st0" d="M549,584.3c0,0-36.8-10.2-43.8,19.1c41.2,9,72.2,20.6,84.6,25.6c2.8,1.1,4.8,3.5,5.5,6.4
		c0.7,2.9-0.2,6-2.2,8.1L550.6,690c22.2,6.7,47.5,13.5,67.7,16.4c46.7,6.7,59.2-3.3,64.2-8.8l5.2-69.2
		C687.7,628.3,599.7,639,549,584.3z"/>
	<path class="st0" d="M204.8,635.6c0.7-2.9,2.7-5.3,5.5-6.4c12.4-5,43.3-16.7,84.6-25.6c-7-29.4-43.8-19.1-43.8-19.1
		c-50.7,54.7-138.7,44-138.7,44l5.2,69.2c5,5.5,17.5,15.5,64.2,8.8c20.2-2.9,45.5-9.6,67.7-16.4l-42.5-46.3
		C204.9,641.5,204.1,638.5,204.8,635.6z"/>
	<path class="st0" d="M322.2,207.4h11.1l2.9,12.1H349l-12.5-39H323l-19,39h12.8L322.2,207.4z M329.5,191.5l2.5,10.2h-7.1
		L329.5,191.5z"/>
	<path class="st0" d="M392,180.5h-36.2l-4,39h37.5L392,180.5z M377.2,214.2h-11.5l2-28.8h11.5L377.2,214.2z"/>
	<path class="st0" d="M494.8,180.5h-36.2l-4,39H492L494.8,180.5z M480,214.2h-11.5l2-28.8H482L480,214.2z"/>
	<polygon class="st0" points="420,219.5 433.8,219.5 437.3,186.2 450.8,186.2 450.8,180.5 412.8,180.5 412.8,186.2 423.3,186.2 	"/>
	<path class="st0" d="M347.7,659.5c-0.3-2-0.4-3-0.7-5.1c-4.4,0.6-6.5,0.9-10.8,1.7c0.4,2,0.6,3,0.9,5
		C341.4,660.5,343.5,660.1,347.7,659.5z"/>
	<path class="st0" d="M359.1,658.3c0.7-0.1,1.1-0.2,1.2-0.4c0.2-0.2,0.2-0.6,0.2-1.2c-0.1-1.4-0.2-2.2-0.3-3.6
		c-2.4,0.2-3.6,0.3-6.1,0.5c0.2,2,0.3,3,0.5,5.1C356.4,658.5,357.3,658.5,359.1,658.3z"/>
	<path class="st0" d="M329.2,657.6c-3.2,0.7-4.8,1.1-8,1.9c0.5,2,0.8,3,1.3,4.9c3.1-0.8,4.7-1.2,7.9-1.9
		C329.9,660.6,329.7,659.6,329.2,657.6z"/>
	<path class="st0" d="M685.2,244.5l-0.1-0.1l-0.1-0.1c-6.5-8.5-14.6-17.3-23-25.7c0,0,0,0,0,0c1.8-42.7,1.8-69,1.8-69
		s-14.4-4.5-36.9-11.9c-0.1,0.2-0.1,0.4-0.2,0.5c4.2-13.5,3.8-23.3-1.1-29.9c-3.3-4.4-8.4-7-14-7c-6.7,0-13.9,3.7-17.8,9.3
		c-1.6,2.3-4.4,7.4-7.7,13.4c0,0,0,0,0,0c-26.8-9.2-57.6-20.1-87.8-31.6c0,0,0,0,0,0c-14.1-8.6-25.6-14.8-32.6-17.2
		c-3.4-1.2-6.6-1.8-9.6-1.8h0c-1.5,0-2.9,0.2-4.3,0.4c-19.5-8.2-37.3-16.3-52-23.9c-14.7,7.7-32.6,15.8-52,23.9
		c-1.4-0.3-2.8-0.4-4.3-0.4c-3,0-6.2,0.6-9.6,1.8c-7,2.4-18.6,8.6-32.6,17.2c0,0,0,0,0,0c-30.1,11.5-61,22.4-87.8,31.6
		c-3.2-6-6.1-11.1-7.7-13.4c-3.9-5.6-11-9.3-17.8-9.3c-5.6,0-10.7,2.5-14,7c-4.8,6.6-5.2,16.2-1.3,29.4
		c-22.5,7.4-36.9,11.9-36.9,11.9s0,26.3,1.8,69c0,0,0,0,0,0c-8.4,8.4-16.4,17.2-23,25.7l-0.1,0.1l-0.1,0.1c-9.5,13-11.9,25-7.2,36.8
		c3.7,9.4,11.7,18.2,26.8,29.5c2.5,1.9,5.8,4.3,9.7,7.1c0,0,0,0,0,0c3,36.6,7.2,77,12.9,119.1c10,69.1,32.2,123.7,59.2,166.5
		c2.1-1.2,4.1-2.3,6.1-3.5c-1.8-2.9-3.7-5.9-5.4-8.8c-26.7-45-44.5-97.2-52.9-155.2c-5.4-39.5-9.4-77.8-12.3-112.7c0,0,0,0,0,0
		c24.7,17.7,63.9,45.1,86.9,61c-4.3,4.1-13.5,10.6-30.8,13.9l-15.2,2.9l7.7,13.4c0.7,1.3,18.8,31.7,66.7,31.7c9.7,0,20.1-1.3,31-3.8
		c0.6,1.8,1,4.1,0.9,6.7c-0.1,2.6-0.3,5.3-0.5,7.9c-0.7,11.1-1.4,20.7,0.8,27.8c0.7,2.1,3.1,8.4,8.4,22.4
		c8.5,22,22.6,58.8,34.5,92.3c-63.1,7.9-112.8,26.3-130.2,33.4c-3.3,1.3-4.3,5.6-1.8,8.2l67.2,73.2c1.5,1.7,4,2.1,6,1.1
		c63.8-31.2,116.9-27.6,116.9-27.6s53.1-3.5,116.9,27.6c2,1,4.5,0.6,6-1.1l67.2-73.2c2.4-2.6,1.5-6.8-1.8-8.2
		c-17.4-7.1-67.1-25.5-130.2-33.4c11.9-33.5,26-70.3,34.5-92.3c5.4-14,7.8-20.2,8.4-22.4c2.2-7.1,1.5-16.7,0.8-27.8
		c-0.2-2.6-0.3-5.2-0.5-7.9c-0.1-2.6,0.3-4.9,0.9-6.7c10.9,2.5,21.2,3.8,31,3.8c48,0,66-30.4,66.7-31.7l7.7-13.4l-15.2-2.9
		c-17.3-3.2-26.5-9.8-30.8-13.9c22.9-16,62.1-43.3,86.9-61c0,0,0,0,0,0c-3,35-6.9,73.2-12.3,112.7c-8.4,57.8-26.1,109.8-52.7,154.8
		c-1.8,3.1-3.7,6.2-5.7,9.2c1.9,1.2,4,2.4,6.1,3.5c27-42.8,49.1-97.4,59.2-166.5c5.7-42,9.9-82.5,12.9-119.1
		c3.9-2.8,7.2-5.2,9.7-7.1c15.1-11.3,23.1-20.1,26.8-29.5C697.1,269.5,694.7,257.5,685.2,244.5z M625,144.4
		c14.7,4.8,25.9,8.4,31.9,10.3c-0.1,8.9-0.4,29.1-1.5,57.3c0,0,0,0,0,0c-15.8-15.2-31.6-28.4-39.8-35.1
		C617.3,170.2,620.5,158.9,625,144.4z M525.9,110.1c19.9,7.3,39.4,14.1,57.1,20.2c-2.7,5.2-5.5,10.5-7.8,15.2
		C558.8,133,541.8,120.8,525.9,110.1C525.9,110.1,525.9,110.1,525.9,110.1z M361.1,85.5c-1-3-2.7-5.5-4.9-7.5
		c16.2-6.9,31.1-13.7,43.8-20.2c12.7,6.5,27.6,13.3,43.8,20.2c-2.2,2-3.9,4.5-4.9,7.5c-3.1,9.3,0.9,21.6,9.3,28.1
		c10.9,8.8,50.8,43,79.1,67.3l-2.1,33.3h-12.5l2.3-33.8H502l-2.2,39h36.8l2.2-28.8c4.9,4.2,9,7.7,12.1,10.4
		c-29.7,71.4-54,112.6-67.3,132.5c-7.6-17.1-14.3-29.7-20.4-38.2c-4.7-6.6-12.3-15.3-22.8-15.3c-2.4,0-4.3,0.5-5.5,0.7l-0.2,0.1
		c-4.3,1-8,4-10.6,8.4c-3.1,5.4-4,12.1-2.4,17.9l0.1,0.3l0.1,0.3c3.7,10.5,7.1,33.1,9,47.7c-14.3,3.4-25.9,3.8-29.6,3.8
		c-0.6,0-0.9,0-1,0l-0.4,0l-0.4,0c-0.1,0-0.4,0-1,0c-3.7,0-15.3-0.3-29.6-3.8c1.9-14.5,5.3-37.1,9-47.7l0.1-0.3l0.1-0.3
		c1.7-5.9,0.8-12.5-2.4-17.9c-2.6-4.4-6.3-7.3-10.6-8.4l-0.2,0c-1.1-0.3-3-0.7-5.5-0.7c-10.5,0-18,8.7-22.8,15.3
		c-6.1,8.4-12.8,21-20.4,38.2c-3.3-5.1-7.4-11.5-12.1-19.3c-12.6-21.4-32.2-58.1-55.2-113.2c3.5-3,8.4-7.2,14.1-12.1l-2.5,30.5h36.8
		l1.8-19.8l-3-2.5l3.5-2.5l1.3-14.2h-27.8c28.3-24.3,67.8-58.1,78.6-66.9C360.2,107.1,364.3,94.8,361.1,85.5z M287.2,200.1
		l-1.2,14.6h-12.5l1.4-14.6H287.2z M275.4,194.5l0.8-9h12.2l-0.8,9H275.4z M217,130.3c17.8-6.1,37.3-12.9,57.1-20.2c0,0,0,0,0,0
		c-15.9,10.7-33,22.9-49.3,35.4C222.4,140.8,219.7,135.4,217,130.3C217,130.3,217,130.3,217,130.3z M175,144.4
		c4.4,14.5,7.6,25.8,9.5,32.5c-8.2,6.7-24.1,19.9-39.8,35.1c0,0,0,0,0,0c-1.1-28.2-1.4-48.3-1.5-57.3
		C149.2,152.8,160.4,149.2,175,144.4z M326.8,690.2c-1.2,1-2.5,1.7-3.8,2.1c-0.8,0.2-1.3,0.4-2.1,0.6c-0.7-2.3-1-3.4-1.7-5.7
		c0.5-0.1,0.7-0.2,1.2-0.4c0.2-0.1,0.4-0.3,0.6-0.8s0.1-1.1-0.1-2c-3.6-12.5-7.3-25.1-10.9-37.6c8.7-2.5,13-3.6,21.9-5.3
		c0.6-1,0.9-1.4,1.6-2.4c3.2-0.6,4.8-0.9,8-1.3c1.1,0.7,1.6,1,2.7,1.7c9-1.2,13.5-1.7,22.5-2.1c0.1,2.2,0.2,3.3,0.3,5.6
		c-16.2,0.6-32.4,3.2-48.1,7.2c0.4,1.7,0.7,2.5,1.1,4.2c3.3-0.8,4.9-1.2,8.2-1.9c-0.2-1.1-0.4-1.7-0.6-2.8c2.9-0.6,4.3-0.9,7.2-1.5
		c0.2,1.1,0.3,1.7,0.5,2.8c4.4-0.8,6.6-1.2,11.1-1.8c-0.2-1.1-0.2-1.7-0.4-2.8c2.9-0.4,4.4-0.6,7.4-0.9c0.1,1.1,0.2,1.7,0.3,2.8
		c5.5-0.6,8.3-0.8,13.9-1c0.2,4.1,0.3,6.2,0.4,10.3c0,1.1-0.1,2.1-0.4,3c-0.3,0.9-0.8,1.5-1.4,2c-0.6,0.5-1.5,0.8-2.6,1.1
		c-1.1,0.3-2.1,0.4-3.1,0.5c-12.3,1-24.6,3-36.5,6.1c1.5,5.7,2.2,8.5,3.6,14.2C328.3,687.3,328,689.3,326.8,690.2z M338.3,688.5
		c-2.3,0.5-4,0.4-5.2-0.3c-1.1-0.7-2-2-2.4-3.9c-1.3-5.2-1.9-7.9-3.1-13.1c2.8-0.7,4.3-1,7.1-1.6c0.2,1,0.3,1.5,0.5,2.6
		c1.5-0.3,2.3-0.5,3.9-0.8c0.5-0.1,0.8-0.2,1.1-0.4c0.3-0.2,0.4-0.4,0.4-0.6c-0.2-0.9-0.2-1.3-0.4-2.2c2.5-0.4,3.8-0.6,6.3-1
		c0.3,1.8,0.4,2.7,0.7,4.5c0.2,1.3-0.1,2.3-0.7,3.1c-0.7,0.8-1.6,1.3-2.7,1.5c-3,0.5-4.4,0.8-7.4,1.4c0.3,1.5,0.5,2.2,0.8,3.7
		c0.1,0.5,0.3,0.8,0.6,1c0.3,0.2,1,0.2,2,0.1c3.6-0.7,5.4-1,9-1.5c0.3,2.2,0.5,3.3,0.8,5.5C345,687.2,342.7,687.6,338.3,688.5z
		 M357.7,685.5c-2.3,0.2-4,0-5.1-0.8c-1.1-0.8-1.8-2.1-2-4.1c-0.7-5.3-1.1-8-1.8-13.3c2.9-0.4,4.3-0.6,7.3-0.9
		c0.1,1,0.2,1.6,0.3,2.6c1.6-0.2,2.4-0.2,4-0.4c0.4,0,0.8-0.1,1.1-0.3c0.3-0.2,0.4-0.3,0.4-0.5c-0.1-0.9-0.1-1.3-0.2-2.2
		c2.5-0.2,3.8-0.3,6.4-0.4c0.1,1.8,0.1,2.7,0.2,4.5c0.1,1.3-0.2,2.3-0.8,2.8c-0.6,0.5-1.1,0.9-1.7,1.1s-1.1,0.3-1.5,0.3
		c-3,0.2-4.5,0.3-7.4,0.6c0.2,1.5,0.2,2.2,0.4,3.7c0,0.5,0.2,0.9,0.5,1.1c0.3,0.3,1,0.3,2,0.2c3.6-0.3,5.4-0.4,9.1-0.6
		c0.1,2.2,0.1,3.4,0.2,5.6C364.5,684.9,362.3,685.1,357.7,685.5z M473,643.3c0.3-1.5,0.5-2.3,0.9-3.8c3.2,0.7,4.8,1.1,7.9,1.9
		c-0.4,1.5-0.6,2.3-1,3.8c0.6,0.2,0.9,0.2,1.6,0.4c0.7-0.9,1-1.3,1.7-2.2c1.7,0.5,2.5,0.7,4.2,1.2c-0.3,1-0.4,1.5-0.7,2.4
		c0.7,0.2,1,0.3,1.7,0.5c-0.7,2.4-1.1,3.7-1.8,6.1c-3.3-1-4.9-1.4-8.2-2.3c-2.4,9.2-3.5,13.7-5.9,22.9c0.3,0.1,0.4,0.1,0.7,0.2
		c0.5,0.1,0.9,0.1,1.2-0.2c0.3-0.2,0.5-0.7,0.7-1.4c0.1-0.3,0.1-0.5,0.2-0.8c1.8-6.8,2.7-10.1,4.5-16.9c2.5,0.7,3.7,1,6.1,1.7
		c-2.2,7.4-3.3,11.2-5.5,18.6c-0.3,1-1,2.2-2,3.7c-1.1,1.5-2.8,1.9-5.3,1.2c-0.8-0.2-1.2-0.3-2-0.5c-0.1,0.5-0.2,0.8-0.3,1.3
		c-0.2,1-0.3,1.7-0.3,2.1c0.1,0.5,0.8,0.9,2.2,1.3c2,0.5,3,0.8,5,1.4c-0.7,2.2-1,3.3-1.7,5.5c-2.7-0.8-4-1.2-6.7-1.9
		c-2.7-0.7-4.3-1.5-4.9-2.5c-0.6-1-0.8-2-0.8-3.1c0-1.1,0.1-2,0.3-2.8c2.4-10.6,4.7-21.2,7.1-31.8c-5.1-1.1-7.7-1.6-12.9-2.5
		c-0.3,1.8-0.4,2.6-0.7,4.4c4.2,0.7,6.4,1.1,10.6,2c-2,9.4-4,18.9-6,28.3c-0.1,0.5-0.4,1.3-0.7,2.2c-0.4,0.9-1.1,1.7-2.3,2.4
		c-1.1,0.6-2.9,0.7-5.4,0.3c-0.8-0.1-1.2-0.2-2-0.3c0.2-1.5,0.4-2.3,0.6-3.8c-0.4,0.7-1.1,1.5-1.9,2.4c-0.8,0.9-2.7,1.1-5.5,0.8
		c-6.6-0.8-10-1.1-16.7-1.4c0.1-2.7,0.2-4,0.3-6.7c1.8,0.1,2.7,0.1,4.5,0.2c0.7-10.9,1.4-21.8,2.1-32.7c-2.2-0.1-3.3-0.2-5.5-0.3
		c0.1-2.7,0.2-4,0.3-6.7c2.3,0.1,3.4,0.1,5.6,0.3c0.1-1.7,0.2-2.5,0.3-4.2c3.3,0.2,5,0.3,8.3,0.7c-0.2,1.7-0.2,2.5-0.4,4.2
		c1.8,0.2,2.7,0.3,4.4,0.5c-0.3,2.6-0.5,4-0.8,6.6c-1.7-0.2-2.6-0.3-4.3-0.5c-1.1,10.9-2.1,21.8-3.2,32.6c2.1,0.2,3.2,0.3,5.2,0.6
		c0,0.3-0.1,0.4-0.1,0.7c0.3,0,0.5-0.1,0.7-0.1c0.2-0.1,0.3-0.2,0.4-0.4c0.1-0.2,0.2-0.5,0.3-0.9c0.1-0.4,0.1-0.6,0.1-0.7
		c1.6-12.6,3.3-25.3,4.9-37.9C460.4,640.7,464.6,641.5,473,643.3z M659,302c-24,18-122,86-122,86l12-1.7c0,0,9.3,16.7,41.3,22.7
		c0,0-15,26.2-57.2,26.2c-10.4,0-22.4-1.6-36.2-5.5c0,0-7.3,7.3-6.7,20c0.7,12.7,2.2,25.3,0.2,31.8c-2,6.4-34.3,87.2-52.4,142.2
		c-0.4,1.2-1.2,2.2-2.3,2.8c-4.4,2.6-17.1,9.6-35.8,13.9c-18.7-4.4-31.4-11.3-35.8-13.9c-1.1-0.6-1.9-1.7-2.3-2.8
		c-18.1-55-50.4-135.8-52.4-142.2c-2-6.5-0.5-19.2,0.2-31.8c0.7-12.7-6.7-20-6.7-20c-13.8,3.9-25.8,5.5-36.2,5.5
		c-42.1,0-57.2-26.2-57.2-26.2c32-6,41.3-22.7,41.3-22.7l12,1.7c0,0-98-68-122-86s-32-31-17.3-51c24.7-32,73.3-70,73.3-70
		s-4.7-18-13.3-46c-5.3-17.3-0.8-22.6,4.6-22.6c3.3,0,7,2.1,8.8,4.6c4.7,6.7,24,45.3,24,45.3c46.7-36.7,99.3-70.7,116.7-76.7
		c2.3-0.8,4.3-1.2,6-1.2c10.8,0,8.8,14.7,1.3,20.5c-17.3,14-109,93-109,93c48,117,83,158,83,158c23.4-57.8,34.6-64.7,40.7-64.7
		c1.2,0,2.2,0.3,3.1,0.5c3.3,0.8,6.5,7,4.9,12.6c-6,17.3-10.7,59.3-10.7,59.3c19.7,6.2,36.9,6.7,41.7,6.7c0.9,0,1.3,0,1.3,0
		s0.5,0,1.3,0c4.8,0,21.9-0.5,41.7-6.7c0,0-4.7-42-10.7-59.3c-1.6-5.6,1.6-11.8,4.9-12.6c0.9-0.2,1.9-0.5,3.1-0.5
		c6.1,0,17.3,7,40.7,64.7c0,0,35-41,83-158c0,0-91.7-79-109-93c-7.5-5.8-9.5-20.5,1.3-20.5c1.7,0,3.7,0.4,6,1.2
		c17.3,6,70,40,116.7,76.7c0,0,19.3-38.7,24-45.3c1.8-2.6,5.4-4.6,8.8-4.6c5.4,0,9.9,5.4,4.6,22.6c-8.7,28-13.3,46-13.3,46
		s48.7,38,73.3,70C691,271,683,284,659,302z"/>
	<path class="st0" d="M455.9,680.3c0.2-0.3,0.4-0.6,0.5-1c0.1-0.4,0.2-0.8,0.3-1.2c1.4-7.9,2.1-11.9,3.5-19.8
		c-1.3-0.2-1.9-0.3-3.2-0.5c-1.5,9.1-2.2,13.6-3.7,22.6c0.6,0.1,0.9,0.2,1.5,0.3C455.3,680.7,455.7,680.6,455.9,680.3z"/>
</g>
</svg>
