<?xml version="1.0" encoding="utf-8"?>
<!-- Generator: Adobe Illustrator 22.1.0, SVG Export Plug-In . SVG Version: 6.00 Build 0)  -->
<svg version="1.1" id="图层_1" xmlns="http://www.w3.org/2000/svg" xmlns:xlink="http://www.w3.org/1999/xlink" x="0px" y="0px"
	 viewBox="0 0 800 800" style="enable-background:new 0 0 800 800;" xml:space="preserve">
<style type="text/css">
	.st0{fill:#C6000A;}
	.st1{fill:#FFFFFF;}
	.st2{fill:#C6AA8F;}
</style>
<circle class="st0" cx="400" cy="400" r="350"/>
<g>
	<path class="st1" d="M469.7,272c-6.9-1.6-7.7,7-2.3,9.3c5.3,2.3,38.7,18.3,50.3,34c3.3,5.7,2.3,8.3-11.3,24
		c-12.1,13.8-126.5,154.7-153.1,187.5c-3.1,3.8-2.6,9.3,1.1,12.5l4.8,4.1c3.9,3.4,9.8,2.7,13-1.3c29.3-37.9,159.9-207,162.9-210.5
		c3.3-4,7.7-5.3,17,0c9.3,5.3,17.3,11,25,26.3c2,4.7,7.3,2.3,8.8,1.2c1.5-1.2,6.2-3,2.7-9S557.3,292.8,469.7,272z"/>
	<path class="st1" d="M414.3,496.2l-6.7,8.4c-2,2.5-2.1,6.1-0.1,8.7c9.6,12.4,17.4,22.5,22.3,28.9c3.1,4.1,9.1,4.7,13,1.3l4.8-4.1
		c3.7-3.2,4.2-8.7,1.1-12.5c-5.3-6.5-14.1-17.4-24.9-30.7C421.4,493.1,416.7,493.2,414.3,496.2z"/>
	<path class="st1" d="M394.1,468.4c2.1-2.6,2.1-6.3,0-8.8c-41.6-51.1-90.7-111.4-98.4-120.2c-13.7-15.7-14.7-18.3-11.3-24
		c11.7-15.7,45-31.7,50.3-34c5.3-2.3,4.6-11-2.3-9.3c-87.7,20.8-115.3,72.2-118.8,78.2s1.2,7.8,2.7,9c1.5,1.2,6.8,3.5,8.8-1.2
		c7.7-15.3,15.7-21,25-26.3c9.3-5.3,13.7-4,17,0c2,2.4,63.4,81.8,111.5,144c2.4,3.2,7.2,3.2,9.7,0.1L394.1,468.4z"/>
</g>
<g>
	<g>
		<path class="st2" d="M183.7,273.8c0,0-22.7,44.7-12.7,98.2s37.7,91.3,53.3,113.3c0,0-47.3-38.8-70.3-98.8S161.3,288.2,183.7,273.8
			z"/>
		<path class="st2" d="M134.5,363c0,0,35,97.5,83,133.5s100,55,113.5,72.5s27.5,39,17.2,61.8c-0.8,1.5-3.9,3.2-2.2-2.7
			s4.4-18.6-19.1-14.1c-4.8,0.6-20.2,5.9-21.9,5.1s4.1-7.9,6.2-11.1s13.6-22.9-7.5-40s-29.1-24.5-79.4-56
			C200.8,497.2,111,432,134.5,363z"/>
		<path class="st2" d="M138.2,444.2c0,0,19.8,39.5,66.2,67.8s91.8,50.2,102.8,77.5c2,7.2,2.5,13.8-13.5,14.8c0,0,11-5.8,2.8-15.2
			s-23.8-18.5-42.8-26.8S142,509,138.2,444.2z"/>
		<path class="st2" d="M155.5,510.2c0,0,54.5,44,123.2,70.8c7.6,3.2,29.7,16,6.4,24.1c-0.6,0.2-1.1-0.4-0.7-0.9
			c2.2-3.2,6-10.7-2.4-15.6c-11-6.4-31.5-11-37.2-12.6C239.2,574.3,171,557,155.5,510.2z"/>
	</g>
	<path class="st2" d="M248.8,503.5c0,0,32.8-34.5,74.5-45.2V400c0,0-30.1,5.5-73.9,38.8l6,26.5L248.8,503.5z"/>
	<path class="st0" d="M314.2,448.7V405c0,0-35.2,14-61.8,34.5l6,25.7l-5.5,26.5C252.8,491.7,282.8,460.7,314.2,448.7z"/>
	<polygon class="st2" points="279.3,436.7 277,442.2 270.5,443.2 274.9,446.7 274.2,453.2 279.3,450.5 284.7,453.2 283.2,446.7 
		288.3,443.2 281.8,442.3 	"/>
	<g>
		<path class="st2" d="M616.3,273.8c0,0,22.7,44.7,12.7,98.2s-37.7,91.3-53.3,113.3c0,0,47.3-38.8,70.3-98.8
			S638.7,288.2,616.3,273.8z"/>
		<path class="st2" d="M665.5,363c0,0-35,97.5-83,133.5s-100,55-113.5,72.5s-27.5,39-17.2,61.8c0.8,1.5,3.9,3.2,2.2-2.7
			s-4.4-18.6,19.1-14.1c4.8,0.6,20.2,5.9,21.9,5.1s-4.1-7.9-6.2-11.1s-13.6-22.9,7.5-40s29.1-24.5,79.4-56
			C599.2,497.2,689,432,665.5,363z"/>
		<path class="st2" d="M661.8,444.2c0,0-19.8,39.5-66.2,67.8s-91.8,50.2-102.8,77.5c-2,7.2-2.5,13.8,13.5,14.8c0,0-11-5.8-2.8-15.2
			s23.8-18.5,42.8-26.8S658,509,661.8,444.2z"/>
		<path class="st2" d="M644.5,510.2c0,0-54.5,44-123.2,70.8c-7.6,3.2-29.7,16-6.4,24.1c0.6,0.2,1.1-0.4,0.7-0.9
			c-2.2-3.2-6-10.7,2.4-15.6c11-6.4,31.5-11,37.2-12.6C560.8,574.3,629,557,644.5,510.2z"/>
	</g>
	<polygon class="st1" points="427.7,590.8 408.2,588.5 400,571 391.8,588.5 372.3,590.8 386.8,604.2 383.2,623.3 400,614.2 
		416.8,623.3 413.2,604.2 	"/>
	<path class="st2" d="M551.2,503.5c0,0-32.8-34.5-74.5-45.2V400c0,0,30.1,5.5,73.9,38.8l-6,26.5L551.2,503.5z"/>
	<path class="st0" d="M485.8,448.7V405c0,0,35.2,14,61.8,34.5l-6,25.7l5.5,26.5C547.2,491.7,517.2,460.7,485.8,448.7z"/>
	<polygon class="st2" points="520.7,436.7 523,442.2 529.5,443.2 525.1,446.7 525.8,453.2 520.7,450.5 515.3,453.2 516.8,446.7 
		511.7,443.2 518.2,442.3 	"/>
	<path class="st2" d="M400,379c0,0-52.5-1.8-97,18.8v50.6l11.6-0.5l8.6,2.2c0,0,30.9-14,76.8-14s76.8,14,76.8,14l8.6-2.2l11.6,0.5
		v-50.6C452.5,377.2,400,379,400,379z"/>
	<path class="st0" d="M400,381.5c0,0-49.5-2.8-94.5,18V442c0,0,39.5-21.2,94.5-21.2s94.5,21.2,94.5,21.2v-42.5
		C449.5,378.8,400,381.5,400,381.5z"/>
</g>
<path class="st2" d="M378.2,261.4l-39.7,53.9c-0.9,1.2-2.6,1.2-3.5,0l-3.2-4.4c-0.7-1-2.2-1.1-3-0.3c-6,6-26.4,26.2-27.1,26.8
	c-0.8,0.8-0.8,2.4,1.4,1.6c1.8-0.6,17.5-8.5,22.6-11.1c1-0.5,2.1-0.3,2.9,0.5l15.4,15.4c0.7,0.7,0.9,1.6,0.7,2.5
	c-1.3,5.4-6,24.4-6.3,25.9c-0.4,1.8,1.8,2.4,2.5,0.8s39.8-75.3,39.8-75.3h2l9.9,15.1c0.7,1,2.2,1,2.8-0.1l2.1-3.6
	c0.5-0.8,1.6-0.9,2.2-0.2c6.9,7.9,40.3,46.1,41.6,47.4c1.5,1.5,3.8,0.3,2.2-2.7S429.2,327,429.2,327v-2l20-15.8
	c0.7-0.5,1.6-0.5,2.2,0.1c4.8,4.5,24.3,23,25.4,24.2c1.3,1.3,2.8-0.2,2-2.3c-0.8-2.2-4-10.5-4-10.5l1.7-1.3c0,0,19,14.3,20.3,15.3
	c1.3,1,3.5-0.3,1.5-2.5l-24.7-26.7c-0.7-0.8-2-0.9-2.8-0.1l-4.6,4.2c-0.6,0.6-1.6,0.5-2.2,0l-20-19.5c-0.9-0.9-2.4-0.9-3.3,0
	L422,308.1c-0.8,0.8-2.2,0.6-2.7-0.4l-13.6-26.1c-0.5-1-1.8-1.3-2.7-0.7l-6.3,4.3c-0.8,0.5-1.9,0.3-2.4-0.5l-13.7-23.1
	C380.1,260.7,378.8,260.6,378.2,261.4z"/>
<path class="st2" d="M398.2,176.2c-2.9,0-5.2,2.4-5.2,5.2c0,2.3,1.4,4.2,3.4,4.9l-0.2,5.7c-2.6-0.4-11.5-1.1-19.7,4.1
	c-9.8,6.2-16.8,15.5-34.5,16.5c-4.2,0.5-3.5,3.2-2.2,4.8s5.4,8.3,1.4,12.3s-11.5,12-11.8,15.3c-0.3,3.3,2,7,11.8,5.2
	c9.8-1.8,22.3-5.5,29.5-16.2c7.2-10.7,14.8-20.7,24-7.7c0.1,0.2,0.2,0.4,0.3,0.6l-1.4,39.6c-0.1,1.8,1.4,3.3,3.2,3.3
	c1.8,0,3.2-1.4,3.2-3.2l0.2-80.4c1.9-0.8,3.3-2.7,3.3-4.9C403.5,178.6,401.1,176.2,398.2,176.2z M392.8,211.5c0,0-4.4-0.2-7.5,0
	s-10.1,9-12.6,13.1s-7.5,10.6-15.2,16.2c-9.8,7.1-21.4,5.5-22.9,5.1c-1.5-0.4-1-1.2,0.3-1.2c15.8,0.3,19.6-9.2,20.3-11.6
	c0.1-0.3-0.1-0.5-0.4-0.5c-1,0-3.2-0.2-3.7-1.4c-0.7-1.6,1.8-3.2,2.8-3.8s2.4-1.3,3.9-3.2c3-3.5,0.6-6.3-1.1-6.3
	c-1.7,0-3.2,0.3-5.8,0.4c-2.7,0.1-2.9-2.4-0.5-2.7c7.2-0.7,11.8-3.8,17.9-9.7s13.1-8.8,15.2-9.9s6-1.5,6.6,0.6s-1.8,3.6-4.6,5.9
	s-2.1,4.5,0,4.5C393.2,206.9,392.8,211.5,392.8,211.5z"/>
<g>
	<path class="st2" d="M337.9,416.8l4-0.9l-8.5-15.4l-5.5,0.8l-0.9,18.4l3.9-0.7v-5.2l4.8-1.2L337.9,416.8z M330.9,410.9v-7.2
		l3.4,6.3L330.9,410.9z"/>
	<polygon class="st2" points="341.5,398.4 344.4,415.4 347.8,415 345.6,402.7 354.2,413.8 358.4,413.2 355.6,395.8 351.9,396.4 
		354.2,408.4 345.8,397.6 	"/>
	<polygon class="st2" points="359.6,395.2 361.6,412.5 365,412.2 363.9,399.8 371.4,411.4 375.4,411.2 373.9,393.6 370.2,394 
		371.9,406.2 364.1,394.8 	"/>
	<path class="st2" d="M389.2,410.1h3.9l-5.9-17.1l-5.2,0.2l-4.1,17.2h4.1l0.9-4.4l5-0.2L389.2,410.1z M383.4,403.5l1.4-7.1l2.3,7.1
		H383.4z"/>
	<path class="st2" d="M396.1,410.1v-17.2h4.9c1.8,0,3.1,0.1,3.6,0.3c0.9,0.3,1.6,0.8,2.2,1.7c0.6,0.9,0.9,2,0.9,3.3
		c0,1.1-0.2,1.9-0.5,2.7c-0.3,0.7-0.8,1.3-1.3,1.7c-0.5,0.4-1,0.7-1.6,0.8c-0.7,0.2-1.8,0.2-3.2,0.2h-2v6.5H396.1z M399.1,395.8v4.9
		h1.7c1.2,0,2-0.1,2.4-0.3s0.7-0.5,0.9-0.8s0.3-0.8,0.3-1.3c0-0.6-0.2-1.1-0.5-1.5c-0.3-0.4-0.7-0.7-1.2-0.8
		c-0.4-0.1-1.1-0.1-2.2-0.1H399.1z"/>
	<path class="st2" d="M411.3,392.9l3.5,0.1l-0.3,9.3c-0.1,1.5,0,2.4,0,2.9c0.1,0.7,0.5,1.3,1,1.7s1.3,0.7,2.3,0.7
		c1,0,1.7-0.1,2.2-0.5c0.5-0.4,0.8-0.9,1-1.4c0.1-0.6,0.2-1.6,0.3-2.9l0.3-9.5l3.5,0.1l-0.3,9c-0.1,2.1-0.2,3.5-0.4,4.4
		c-0.2,0.8-0.6,1.5-1.1,2.1c-0.5,0.6-1.2,1-2.1,1.3c-0.9,0.3-2,0.5-3.3,0.4c-1.6-0.1-2.9-0.3-3.7-0.7c-0.8-0.4-1.5-0.9-2-1.5
		s-0.8-1.3-0.9-1.9c-0.2-1-0.3-2.4-0.2-4.4L411.3,392.9z"/>
	<path class="st2" d="M437.4,404.2c0,0,3.8,0.1,3.9-4.6s-7.3-5.1-8.4-5.1l-3.4-0.2l-1.9,17l3.8,0.4l0.6-6.6c3.9,0.1,3.9,1.8,4,2.6
		s0.4,5.2,0.4,5.2h3.9c0,0-0.2-2.4-0.6-5S437.4,404.2,437.4,404.2z M435.3,402.8c-0.6,0-2-0.1-3.2-0.1l0.5-5.3c0.6,0,1.3,0,2.1,0
		c1.7,0,3,1.2,2.9,2.6S436.3,402.8,435.3,402.8z"/>
	<polygon class="st2" points="445.4,396.2 442.5,413.6 445.7,414 447.8,401.4 452.4,415.3 456.4,416.1 459.3,398.5 455.8,398 
		453.9,410.3 449.8,396.7 	"/>
	<path class="st2" d="M469.8,419l3.8,1.1l-1.1-18.3l-5-1.4l-9,15.8l3.6,1l2.1-4.1l5.3,1.1L469.8,419z M465.5,410.7l3.4-6.5l0.4,7.2
		L465.5,410.7z"/>
</g>
<g>
	<path class="st1" d="M262.2,628.8l-9.6,33.3c-3.1,10.8,2.9,22.1,13.7,25.5l2.8,0.9c11,3.5,22.7-2.7,26-13.7l10.4-34l-12-3
		l-10.3,33.8c-1.6,5.2-7.1,8.2-12.4,6.6h0c-5.3-1.6-8.2-7.1-6.6-12.4l10.1-33.5L262.2,628.8z"/>
	<polygon class="st1" points="317.2,644 310,698 321.2,699.2 326.5,659.5 341.8,702 354.8,704 362.2,650 350.5,648.5 346.5,687.2 
		331.5,645.8 	"/>
	<polygon class="st1" points="375.5,650.8 388.2,650.8 386.8,705.5 374,704.8 	"/>
	<path class="st1" d="M440,658.8l-1-10.5l-41.2,3l0.5,10l14.6-0.9L416,704c0,0,12.8,1,12.5,0c-0.2-0.8-2.5-33.6-3.3-44.4L440,658.8z
		"/>
	<polygon class="st1" points="490.5,683 468.5,687.8 466.2,675 486,671 483.5,661.2 464.4,665.2 462.2,653.8 483,650 480.8,640 
		448.2,646.8 458.8,699.8 493,693.2 	"/>
	<path class="st1" d="M543,639.2c-5-7.2-16-19.8-51-1l18,50c0,0,26.8-5.2,34-16.8S548,646.5,543,639.2z M519,676l-12-34
		c0,0,4.2-2.8,11.2-3.2s13.2,1.5,16.8,17S519,676,519,676z"/>
</g>
<g>
	<path class="st1" d="M240.7,195.6c-5.8-4.2-12.2-5-19.3-2.3c-4,1.6-8.3,4.3-13,8.2c-6,4.9-10.4,6.1-13,3.7
		c-2.9-2.7-2.8-6.3,0.3-10.6c4.1-5.3,8.9-6.3,14.5-3.2l6.1-12.4c-11.6-5.9-21.6-2.9-30.2,8.9c-7.8,11.5-7.7,21,0.3,28.5
		c7.8,6.5,16.2,6,25.1-1.3c2.6-2.4,6-4.9,10.3-7.5c4.3-2.3,7.8-2.3,10.5,0c3.9,3.5,4,7.7,0.5,12.6c-5,6.5-11.4,7.3-19.3,2.6
		l-5.9,12.6c13.5,6.6,24.9,3.7,34.2-8.7C250.8,214.2,250.5,203.8,240.7,195.6z"/>
	
		<rect x="245.4" y="138.1" transform="matrix(0.7813 -0.6241 0.6241 0.7813 -51.2933 194.1227)" class="st1" width="12" height="64.3"/>
	<path class="st1" d="M314.4,141.2c3.4,9.1,1.8,15.6-5,19.5c-9.1,4-17.1,0-24.1-12c-6-12.3-4.9-21,3.4-26.2
		c6.2-2.9,11.8-1.8,16.7,3.3l10.5-9.5c-9.9-9.5-21-11.1-33.3-4.9c-16.5,10.3-20.1,25.2-10.6,44.5c11.3,18.8,25.7,24,43.3,15.6
		c13.2-7.2,17.7-18.2,13.3-33L314.4,141.2z"/>
	<polygon class="st1" points="379.9,86.1 382.3,113 356.7,115.3 354.3,88.4 341,89.5 347,156.8 360.3,155.6 357.9,128.4 
		383.5,126.1 385.9,153.3 399.2,152.2 393.2,84.9 	"/>
	<path class="st1" d="M464.6,93.7l-7.2,37.4c-2.1,11.1-7.2,15.8-15.2,14.3c-8.3-1.8-11.5-8.2-9.6-19.1l7.2-37.4L427,86.5l-7.2,37.4
		c-3.6,19.4,2.9,30.7,19.2,33.8c17.2,3.3,27.7-4.9,31.5-24.7l7.1-36.8L464.6,93.7z"/>
	<path class="st1" d="M525.6,118.1l-53.2,44.5l13.5,7.8l11.1-10l21.1,12.2l-3.1,14.6l13.8,8l11.8-68.4L525.6,118.1z M525.8,138.1
		l-4.3,23.5l-16-9.3l17.4-15.6c1.6-1.2,3-2.6,4.2-4.4l0.3,0.1C526.8,134.2,526.3,136.1,525.8,138.1z"/>
	<path class="st1" d="M608.9,186.5l-27,24.9c-3.2,3-5.6,5.3-7.1,6.9l-0.2,0.2c0.6-1.1,1.3-2.8,2.1-5.2c0.2-0.7,0.4-1.2,0.6-1.6
		l14.7-43.5l-9.6-10.4l-48.3,44.6l8.4,9.1l26.6-24.5c3.4-3.1,6-5.7,7.9-7.7c-0.8,2.1-1.5,4.2-2.3,6.4l-14.8,44.7l9.1,9.8l48.3-44.6
		L608.9,186.5z"/>
</g>
</svg>
