<?xml version="1.0" encoding="utf-8"?>
<!-- Generator: Adobe Illustrator 22.1.0, SVG Export Plug-In . SVG Version: 6.00 Build 0)  -->
<svg version="1.1" id="图层_1" xmlns="http://www.w3.org/2000/svg" xmlns:xlink="http://www.w3.org/1999/xlink" x="0px" y="0px"
	 viewBox="0 0 800 800" style="enable-background:new 0 0 800 800;" xml:space="preserve">
<style type="text/css">
	.st0{fill:#C6000A;}
	.st1{fill:#FFFFFF;}
	.st2{fill:#C6AA8F;}
</style>
<g>
	<circle class="st0" cx="400" cy="400" r="350"/>
	<g>
		<path class="st1" d="M469.7,272c-6.9-1.6-7.7,7-2.3,9.3c5.3,2.3,38.7,18.3,50.3,34c3.3,5.7,2.3,8.3-11.3,24
			c-12.1,13.8-126.5,154.7-153.1,187.5c-3.1,3.8-2.6,9.3,1.1,12.5l4.8,4.1c3.9,3.4,9.8,2.7,13-1.3c29.3-37.9,159.9-207,162.9-210.5
			c3.3-4,7.7-5.3,17,0c9.3,5.3,17.3,11,25,26.3c2,4.7,7.3,2.3,8.8,1.2c1.5-1.2,6.2-3,2.7-9S557.3,292.8,469.7,272z"/>
		<path class="st1" d="M414.3,496.2l-6.7,8.4c-2,2.5-2.1,6.1-0.1,8.7c9.6,12.4,17.4,22.5,22.3,28.9c3.1,4.1,9.1,4.7,13,1.3l4.8-4.1
			c3.7-3.2,4.2-8.7,1.1-12.5c-5.3-6.5-14.1-17.4-24.9-30.7C421.4,493.1,416.7,493.2,414.3,496.2z"/>
		<path class="st1" d="M394.1,468.4c2.1-2.6,2.1-6.3,0-8.8c-41.6-51.1-90.7-111.4-98.4-120.2c-13.7-15.7-14.7-18.3-11.3-24
			c11.7-15.7,45-31.7,50.3-34c5.3-2.3,4.6-11-2.3-9.3c-87.7,20.8-115.3,72.2-118.8,78.2s1.2,7.8,2.7,9c1.5,1.2,6.8,3.5,8.8-1.2
			c7.7-15.3,15.7-21,25-26.3c9.3-5.3,13.7-4,17,0c2,2.4,63.4,81.8,111.5,144c2.4,3.2,7.2,3.2,9.7,0.1L394.1,468.4z"/>
	</g>
	<g>
		<g>
			<path class="st2" d="M183.7,273.8c0,0-22.7,44.7-12.7,98.2s37.7,91.3,53.3,113.3c0,0-47.3-38.8-70.3-98.8
				S161.3,288.2,183.7,273.8z"/>
			<path class="st2" d="M134.5,363c0,0,35,97.5,83,133.5s100,55,113.5,72.5s27.5,39,17.2,61.8c-0.8,1.5-3.9,3.2-2.2-2.7
				s4.4-18.6-19.1-14.1c-4.8,0.6-20.2,5.9-21.9,5.1s4.1-7.9,6.2-11.1s13.6-22.9-7.5-40s-29.1-24.5-79.4-56
				C200.8,497.2,111,432,134.5,363z"/>
			<path class="st2" d="M138.2,444.2c0,0,19.8,39.5,66.2,67.8s91.8,50.2,102.8,77.5c2,7.2,2.5,13.8-13.5,14.8c0,0,11-5.8,2.8-15.2
				s-23.8-18.5-42.8-26.8S142,509,138.2,444.2z"/>
			<path class="st2" d="M155.5,510.2c0,0,54.5,44,123.2,70.8c7.6,3.2,29.7,16,6.4,24.1c-0.6,0.2-1.1-0.4-0.7-0.9
				c2.2-3.2,6-10.7-2.4-15.6c-11-6.4-31.5-11-37.2-12.6C239.2,574.3,171,557,155.5,510.2z"/>
		</g>
		<path class="st2" d="M248.8,503.5c0,0,32.8-34.5,74.5-45.2V400c0,0-30.1,5.5-73.9,38.8l6,26.5L248.8,503.5z"/>
		<path class="st0" d="M314.2,448.7V405c0,0-35.2,14-61.8,34.5l6,25.7l-5.5,26.5C252.8,491.7,282.8,460.7,314.2,448.7z"/>
		<polygon class="st2" points="279.3,436.7 277,442.2 270.5,443.2 274.9,446.7 274.2,453.2 279.3,450.5 284.7,453.2 283.2,446.7 
			288.3,443.2 281.8,442.3 		"/>
		<g>
			<path class="st2" d="M616.3,273.8c0,0,22.7,44.7,12.7,98.2s-37.7,91.3-53.3,113.3c0,0,47.3-38.8,70.3-98.8
				S638.7,288.2,616.3,273.8z"/>
			<path class="st2" d="M665.5,363c0,0-35,97.5-83,133.5s-100,55-113.5,72.5s-27.5,39-17.2,61.8c0.8,1.5,3.9,3.2,2.2-2.7
				s-4.4-18.6,19.1-14.1c4.8,0.6,20.2,5.9,21.9,5.1s-4.1-7.9-6.2-11.1s-13.6-22.9,7.5-40s29.1-24.5,79.4-56
				C599.2,497.2,689,432,665.5,363z"/>
			<path class="st2" d="M661.8,444.2c0,0-19.8,39.5-66.2,67.8s-91.8,50.2-102.8,77.5c-2,7.2-2.5,13.8,13.5,14.8c0,0-11-5.8-2.8-15.2
				s23.8-18.5,42.8-26.8S658,509,661.8,444.2z"/>
			<path class="st2" d="M644.5,510.2c0,0-54.5,44-123.2,70.8c-7.6,3.2-29.7,16-6.4,24.1c0.6,0.2,1.1-0.4,0.7-0.9
				c-2.2-3.2-6-10.7,2.4-15.6c11-6.4,31.5-11,37.2-12.6C560.8,574.3,629,557,644.5,510.2z"/>
		</g>
		<polygon class="st1" points="427.7,590.8 408.2,588.5 400,571 391.8,588.5 372.3,590.8 386.8,604.2 383.2,623.3 400,614.2 
			416.8,623.3 413.2,604.2 		"/>
		<path class="st2" d="M551.2,503.5c0,0-32.8-34.5-74.5-45.2V400c0,0,30.1,5.5,73.9,38.8l-6,26.5L551.2,503.5z"/>
		<path class="st0" d="M485.8,448.7V405c0,0,35.2,14,61.8,34.5l-6,25.7l5.5,26.5C547.2,491.7,517.2,460.7,485.8,448.7z"/>
		<polygon class="st2" points="520.7,436.7 523,442.2 529.5,443.2 525.1,446.7 525.8,453.2 520.7,450.5 515.3,453.2 516.8,446.7 
			511.7,443.2 518.2,442.3 		"/>
		<path class="st2" d="M400,379c0,0-52.5-1.8-97,18.8v50.6l11.6-0.5l8.6,2.2c0,0,30.9-14,76.8-14s76.8,14,76.8,14l8.6-2.2l11.6,0.5
			v-50.6C452.5,377.2,400,379,400,379z"/>
		<path class="st0" d="M400,381.5c0,0-49.5-2.8-94.5,18V442c0,0,39.5-21.2,94.5-21.2s94.5,21.2,94.5,21.2v-42.5
			C449.5,378.8,400,381.5,400,381.5z"/>
	</g>
	<path class="st2" d="M378.2,261.4l-39.7,53.9c-0.9,1.2-2.6,1.2-3.5,0l-3.2-4.4c-0.7-1-2.2-1.1-3-0.3c-6,6-26.4,26.2-27.1,26.8
		c-0.8,0.8-0.8,2.4,1.4,1.6c1.8-0.6,17.5-8.5,22.6-11.1c1-0.5,2.1-0.3,2.9,0.5l15.4,15.4c0.7,0.7,0.9,1.6,0.7,2.5
		c-1.3,5.4-6,24.4-6.3,25.9c-0.4,1.8,1.8,2.4,2.5,0.8s39.8-75.3,39.8-75.3h2l9.9,15.1c0.7,1,2.2,1,2.8-0.1l2.1-3.6
		c0.5-0.8,1.6-0.9,2.2-0.2c6.9,7.9,40.3,46.1,41.6,47.4c1.5,1.5,3.8,0.3,2.2-2.7S429.2,327,429.2,327v-2l20-15.8
		c0.7-0.5,1.6-0.5,2.2,0.1c4.8,4.5,24.3,23,25.4,24.2c1.3,1.3,2.8-0.2,2-2.3c-0.8-2.2-4-10.5-4-10.5l1.7-1.3c0,0,19,14.3,20.3,15.3
		c1.3,1,3.5-0.3,1.5-2.5l-24.7-26.7c-0.7-0.8-2-0.9-2.8-0.1l-4.6,4.2c-0.6,0.6-1.6,0.5-2.2,0l-20-19.5c-0.9-0.9-2.4-0.9-3.3,0
		L422,308.1c-0.8,0.8-2.2,0.6-2.7-0.4l-13.6-26.1c-0.5-1-1.8-1.3-2.7-0.7l-6.3,4.3c-0.8,0.5-1.9,0.3-2.4-0.5l-13.7-23.1
		C380.1,260.7,378.8,260.6,378.2,261.4z"/>
	<path class="st2" d="M398.2,176.2c-2.9,0-5.2,2.4-5.2,5.2c0,2.3,1.4,4.2,3.4,4.9l-0.2,5.7c-2.6-0.4-11.5-1.1-19.7,4.1
		c-9.8,6.2-16.8,15.5-34.5,16.5c-4.2,0.5-3.5,3.2-2.2,4.8s5.4,8.3,1.4,12.3s-11.5,12-11.8,15.3c-0.3,3.3,2,7,11.8,5.2
		c9.8-1.8,22.3-5.5,29.5-16.2c7.2-10.7,14.8-20.7,24-7.7c0.1,0.2,0.2,0.4,0.3,0.6l-1.4,39.6c-0.1,1.8,1.4,3.3,3.2,3.3
		c1.8,0,3.2-1.4,3.2-3.2l0.2-80.4c1.9-0.8,3.3-2.7,3.3-4.9C403.5,178.6,401.1,176.2,398.2,176.2z M392.8,211.5c0,0-4.4-0.2-7.5,0
		s-10.1,9-12.6,13.1s-7.5,10.6-15.2,16.2c-9.8,7.1-21.4,5.5-22.9,5.1c-1.5-0.4-1-1.2,0.3-1.2c15.8,0.3,19.6-9.2,20.3-11.6
		c0.1-0.3-0.1-0.5-0.4-0.5c-1,0-3.2-0.2-3.7-1.4c-0.7-1.6,1.8-3.2,2.8-3.8s2.4-1.3,3.9-3.2c3-3.5,0.6-6.3-1.1-6.3
		c-1.7,0-3.2,0.3-5.8,0.4c-2.7,0.1-2.9-2.4-0.5-2.7c7.2-0.7,11.8-3.8,17.9-9.7s13.1-8.8,15.2-9.9s6-1.5,6.6,0.6s-1.8,3.6-4.6,5.9
		s-2.1,4.5,0,4.5C393.2,206.9,392.8,211.5,392.8,211.5z"/>
	<g>
		<path class="st2" d="M337.9,416.8l4-0.9l-8.5-15.4l-5.5,0.8l-0.9,18.4l3.9-0.7v-5.2l4.8-1.2L337.9,416.8z M330.9,410.9v-7.2
			l3.4,6.3L330.9,410.9z"/>
		<polygon class="st2" points="341.5,398.4 344.4,415.4 347.8,415 345.6,402.7 354.2,413.8 358.4,413.2 355.6,395.8 351.9,396.4 
			354.2,408.4 345.8,397.6 		"/>
		<polygon class="st2" points="359.6,395.2 361.6,412.5 365,412.2 363.9,399.8 371.4,411.4 375.4,411.2 373.9,393.6 370.2,394 
			371.9,406.2 364.1,394.8 		"/>
		<path class="st2" d="M389.2,410.1h3.9l-5.9-17.1l-5.2,0.2l-4.1,17.2h4.1l0.9-4.4l5-0.2L389.2,410.1z M383.4,403.5l1.4-7.1l2.3,7.1
			H383.4z"/>
		<path class="st2" d="M396.1,410.1v-17.2h4.9c1.8,0,3.1,0.1,3.6,0.3c0.9,0.3,1.6,0.8,2.2,1.7c0.6,0.9,0.9,2,0.9,3.3
			c0,1.1-0.2,1.9-0.5,2.7c-0.3,0.7-0.8,1.3-1.3,1.7c-0.5,0.4-1,0.7-1.6,0.8c-0.7,0.2-1.8,0.2-3.2,0.2h-2v6.5H396.1z M399.1,395.8
			v4.9h1.7c1.2,0,2-0.1,2.4-0.3s0.7-0.5,0.9-0.8s0.3-0.8,0.3-1.3c0-0.6-0.2-1.1-0.5-1.5c-0.3-0.4-0.7-0.7-1.2-0.8
			c-0.4-0.1-1.1-0.1-2.2-0.1H399.1z"/>
		<path class="st2" d="M411.3,392.9l3.5,0.1l-0.3,9.3c-0.1,1.5,0,2.4,0,2.9c0.1,0.7,0.5,1.3,1,1.7s1.3,0.7,2.3,0.7
			c1,0,1.7-0.1,2.2-0.5c0.5-0.4,0.8-0.9,1-1.4c0.1-0.6,0.2-1.6,0.3-2.9l0.3-9.5l3.5,0.1l-0.3,9c-0.1,2.1-0.2,3.5-0.4,4.4
			c-0.2,0.8-0.6,1.5-1.1,2.1c-0.5,0.6-1.2,1-2.1,1.3c-0.9,0.3-2,0.5-3.3,0.4c-1.6-0.1-2.9-0.3-3.7-0.7c-0.8-0.4-1.5-0.9-2-1.5
			s-0.8-1.3-0.9-1.9c-0.2-1-0.3-2.4-0.2-4.4L411.3,392.9z"/>
		<path class="st2" d="M437.4,404.2c0,0,3.8,0.1,3.9-4.6s-7.3-5.1-8.4-5.1l-3.4-0.2l-1.9,17l3.8,0.4l0.6-6.6c3.9,0.1,3.9,1.8,4,2.6
			s0.4,5.2,0.4,5.2h3.9c0,0-0.2-2.4-0.6-5S437.4,404.2,437.4,404.2z M435.3,402.8c-0.6,0-2-0.1-3.2-0.1l0.5-5.3c0.6,0,1.3,0,2.1,0
			c1.7,0,3,1.2,2.9,2.6S436.3,402.8,435.3,402.8z"/>
		<polygon class="st2" points="445.4,396.2 442.5,413.6 445.7,414 447.8,401.4 452.4,415.3 456.4,416.1 459.3,398.5 455.8,398 
			453.9,410.3 449.8,396.7 		"/>
		<path class="st2" d="M469.8,419l3.8,1.1l-1.1-18.3l-5-1.4l-9,15.8l3.6,1l2.1-4.1l5.3,1.1L469.8,419z M465.5,410.7l3.4-6.5l0.4,7.2
			L465.5,410.7z"/>
	</g>
	<g>
		<path class="st1" d="M233.7,234l7.3-11.7L184.7,206l-9.7,14.3l37.7,45.3l7.3-11.3l-9.8-10.6l9.4-14.3L233.7,234z M203.2,236.1
			L187.3,219l22.4,7.2L203.2,236.1z"/>
		<polygon class="st1" points="206.2,177.7 217.2,167.8 259.5,183.2 232.3,154.5 241,146.8 278.7,188.2 268.7,197.3 224.7,181 
			252.5,211.5 243.8,219.2 		"/>
		<polygon class="st1" points="259.5,133.8 285,183.8 295.3,178.5 276.3,141.8 314.5,169 326.5,163 301.2,112.7 290.5,118.2 
			309.5,153 272.7,127.2 		"/>
		<path class="st1" d="M366.7,153.2l13.3-2.8L350.8,99l-16.3,3.5l-4.5,58.7l12.8-2.5l0.5-15l16.5-3.7L366.7,153.2z M343.7,133.7
			l0.8-23.4l10.8,20.9L343.7,133.7z"/>
		<path class="st1" d="M421,100.2c-4.5-5.5-15.6-5.9-23-5.7l0-0.1l-12.5,0.5l-0.8,55.8l12.5,0.2l0.3-20.2h11c0,0,9,0,14-7.3
			S426.8,107.3,421,100.2z M404.6,121h-7l0,0l0.4-17.2h6.6c4.7,0,8.6,3.8,8.6,8.6C413.2,117.2,409.3,121,404.6,121z"/>
		<path class="st1" d="M444,97.5l-8.6,33.9c-3,11.7,3.7,23.7,15.1,27.4h0c12.4,4,25.7-3.1,29.1-15.7l9.2-33.6l-12.5-3.3l-9.4,35.9
			c-1.5,5.7-7.5,9-13.1,7.1h0c-5.1-1.7-8-7.1-6.7-12.3l9.5-35.7L444,97.5z"/>
		<path class="st1" d="M533.3,132.2c-5.7-4.3-12.3-9.3-25.6-13.9l-26.2,49l11.2,6l10.8-19.2c0,0,1.8,0.7,5,2.8s3,6,1.7,11.7
			c-1.3,5.7-2.8,12.5-2.8,12.5l11.7,6.7c0,0,1.5-10.5,3.3-16c1.8-5.5,1.5-10.2-1.5-13.3c0,0,9,1.5,14.5-5.7
			C540.8,145.5,539,136.5,533.3,132.2z M524.2,145.9L524.2,145.9c-2.2,3.7-6.9,4.9-10.6,2.8l-6-2.9l7.3-13.5l6,2.6
			C525.1,136.9,526.5,142,524.2,145.9z"/>
		<polygon class="st1" points="560,148.3 521.8,189.8 530.7,197.7 558.5,166.8 546.3,212.5 556.2,221.2 594.2,179.8 586,172.2 
			559.5,201.8 571.2,158 		"/>
		<path class="st1" d="M615.3,207.8l-56,15.8l6.5,11.3l14.2-4.8l9.3,14.1l-10.2,11.2l7.3,11.7l38-45.5L615.3,207.8z M596.2,236.7
			l-6.5-9.7l22-7.3L596.2,236.7z"/>
	</g>
	<g>
		<path class="st1" d="M262.2,628.8l-9.6,33.3c-3.1,10.8,2.9,22.1,13.7,25.5l2.8,0.9c11,3.5,22.7-2.7,26-13.7l10.4-34l-12-3
			l-10.3,33.8c-1.6,5.2-7.1,8.2-12.4,6.6h0c-5.3-1.6-8.2-7.1-6.6-12.4l10.1-33.5L262.2,628.8z"/>
		<polygon class="st1" points="317.2,644 310,698 321.2,699.2 326.5,659.5 341.8,702 354.8,704 362.2,650 350.5,648.5 346.5,687.2 
			331.5,645.8 		"/>
		<polygon class="st1" points="375.5,650.8 388.2,650.8 386.8,705.5 374,704.8 		"/>
		<path class="st1" d="M440,658.8l-1-10.5l-41.2,3l0.5,10l14.6-0.9L416,704c0,0,12.8,1,12.5,0c-0.2-0.8-2.5-33.6-3.3-44.4L440,658.8
			z"/>
		<polygon class="st1" points="490.5,683 468.5,687.8 466.2,675 486,671 483.5,661.2 464.4,665.2 462.2,653.8 483,650 480.8,640 
			448.2,646.8 458.8,699.8 493,693.2 		"/>
		<path class="st1" d="M543,639.2c-5-7.2-16-19.8-51-1l18,50c0,0,26.8-5.2,34-16.8S548,646.5,543,639.2z M519,676l-12-34
			c0,0,4.2-2.8,11.2-3.2s13.2,1.5,16.8,17S519,676,519,676z"/>
	</g>
</g>
</svg>
