<?xml version="1.0" encoding="utf-8"?>
<!-- Generator: Adobe Illustrator 22.1.0, SVG Export Plug-In . SVG Version: 6.00 Build 0)  -->
<svg version="1.1" id="图层_1" xmlns="http://www.w3.org/2000/svg" xmlns:xlink="http://www.w3.org/1999/xlink" x="0px" y="0px"
	 viewBox="0 0 800 800" style="enable-background:new 0 0 800 800;" xml:space="preserve">
<style type="text/css">
	.st0{fill:#C6000A;}
</style>
<g>
	<path class="st0" d="M400,50C206.7,50,50,206.7,50,400s156.7,350,350,350s350-156.7,350-350S593.3,50,400,50z M639,639
		c-31,31-67.2,55.4-107.4,72.4C489.9,729.1,445.6,738,400,738s-89.9-8.9-131.6-26.6C228.2,694.4,192,670,161,639
		c-31-31-55.4-67.2-72.4-107.4C70.9,489.9,62,445.6,62,400s8.9-89.9,26.6-131.6C105.6,228.2,130,192,161,161
		c31-31,67.2-55.4,107.4-72.4C310.1,70.9,354.4,62,400,62s89.9,8.9,131.6,26.6C571.8,105.6,608,130,639,161
		c31,31,55.4,67.2,72.4,107.4C729.1,310.1,738,354.4,738,400s-8.9,89.9-26.6,131.6C694.4,571.8,670,608,639,639z"/>
	<path class="st0" d="M448.8,526.9c-5.3-6.5-14.1-17.4-24.9-30.7c-2.5-3-7.1-3-9.6,0l-6.7,8.4c-2,2.5-2.1,6.1-0.1,8.7
		c9.6,12.4,17.4,22.5,22.3,28.9c3.1,4.1,9.1,4.7,13,1.3l4.8-4.1C451.3,536.2,451.8,530.6,448.8,526.9z"/>
	<polygon class="st0" points="281.8,442.3 279.3,436.7 277,442.2 270.5,443.2 274.9,446.7 274.2,453.2 279.3,450.5 284.7,453.2 
		283.2,446.7 288.3,443.2 	"/>
	<path class="st0" d="M224.3,485.3c-15.7-22-43.3-59.8-53.3-113.3s12.7-98.2,12.7-98.2c-22.3,14.3-52.7,52.7-29.7,112.7
		S224.3,485.3,224.3,485.3z"/>
	<path class="st0" d="M224.3,512c50.3,31.5,58.3,38.9,79.4,56s9.6,36.8,7.5,40s-7.9,10.4-6.2,11.1s17.1-4.5,21.9-5.1
		c23.5-4.5,20.8,8.1,19.1,14.1s1.4,4.2,2.2,2.7c10.2-22.8-3.8-44.2-17.2-61.8s-65.5-36.5-113.5-72.5s-83-133.5-83-133.5
		C111,432,200.8,497.2,224.3,512z"/>
	<path class="st0" d="M253.8,562.2c19,8.2,34.5,17.2,42.8,26.8s-2.8,15.2-2.8,15.2c16-1,15.5-7.5,13.5-14.8
		c-11-27.2-56.2-49.2-102.8-77.5s-66.2-67.8-66.2-67.8C142,509,234.8,554,253.8,562.2z"/>
	<path class="st0" d="M284.4,604.2c-0.3,0.5,0.2,1.1,0.7,0.9c23.3-8.2,1.1-21-6.4-24.1c-68.8-26.8-123.2-70.8-123.2-70.8
		c15.5,46.8,83.7,64.1,89.3,65.8c5.7,1.7,26.2,6.2,37.2,12.6C290.4,593.5,286.7,601,284.4,604.2z"/>
	<path class="st0" d="M629,372c-10,53.5-37.7,91.3-53.3,113.3c0,0,47.3-38.8,70.3-98.8s-7.3-98.3-29.7-112.7
		C616.3,273.8,639,318.5,629,372z"/>
	<path class="st0" d="M582.5,496.5c-48,36-100,55-113.5,72.5s-27.5,39-17.2,61.8c0.8,1.5,3.9,3.2,2.2-2.7s-4.4-18.6,19.1-14.1
		c4.8,0.6,20.2,5.9,21.9,5.1s-4.1-7.9-6.2-11.1s-13.6-22.9,7.5-40s29.1-24.5,79.4-56c23.6-14.8,113.3-80,89.8-149
		C665.5,363,630.5,460.5,582.5,496.5z"/>
	<path class="st0" d="M595.5,512c-46.5,28.2-91.8,50.2-102.8,77.5c-2,7.2-2.5,13.8,13.5,14.8c0,0-11-5.8-2.8-15.2
		s23.8-18.5,42.8-26.8S658,509,661.8,444.2C661.8,444.2,642,483.8,595.5,512z"/>
	<path class="st0" d="M514.8,605.1c0.6,0.2,1.1-0.4,0.7-0.9c-2.2-3.2-6-10.7,2.4-15.6c11-6.4,31.5-11,37.2-12.6
		c5.7-1.7,73.8-19,89.3-65.8c0,0-54.5,44-123.2,70.8C513.7,584.2,491.5,597,514.8,605.1z"/>
	<polygon class="st0" points="383.2,623.3 400,614.2 416.8,623.3 413.2,604.2 427.7,590.8 408.2,588.5 400,571 391.8,588.5 
		372.3,590.8 386.8,604.2 	"/>
	<path class="st0" d="M551.2,503.5l-6.6-38.2l6-26.5c-22.1-16.8-40.7-26.5-53.7-32v-9.1c-44.5-20.5-97-18.8-97-18.8
		s-52.5-1.8-97,18.8v9.1c-13,5.5-31.6,15.2-53.7,32l6,26.5l-6.6,38.2c0,0,32.8-34.5,74.5-45.2v-8.1c0,0,30.9-14,76.8-14
		s76.8,14,76.8,14v8.1C518.5,469,551.2,503.5,551.2,503.5z M497,409.9c12.5,5.8,33.4,16.3,50.7,29.6l-6,25.7l5.5,26.5
		c0,0-30-31-61.3-43v-0.8l11.2,0.4V409.9z M252.8,491.7l5.5-26.5l-6-25.7c17.3-13.3,38.1-23.8,50.7-29.6v38.5l11.2-0.4v0.8
		C282.8,460.7,252.8,491.7,252.8,491.7z M400,420.8c-55,0-94.5,21.2-94.5,21.2v-42.5c45-20.8,94.5-18,94.5-18s49.5-2.8,94.5,18V442
		C494.5,442,455,420.8,400,420.8z"/>
	<polygon class="st0" points="515.3,453.2 520.7,450.5 525.8,453.2 525.1,446.7 529.5,443.2 523,442.2 520.7,436.7 518.2,442.3 
		511.7,443.2 516.8,446.7 	"/>
	<path class="st0" d="M496.8,334.7c1.3,1,3.5-0.3,1.5-2.5l-24.7-26.7c-0.7-0.8-2-0.9-2.8-0.1l-4.6,4.2c-0.6,0.6-1.6,0.5-2.2,0
		l-20-19.5c-0.9-0.9-2.4-0.9-3.3,0L422,308.1c-0.8,0.8-2.2,0.6-2.7-0.4l-13.6-26.1c-0.5-1-1.8-1.3-2.7-0.7l-6.3,4.3
		c-0.8,0.5-1.9,0.3-2.4-0.5l-13.7-23.1c-0.5-0.9-1.7-0.9-2.3-0.1l-39.7,53.9c-0.9,1.2-2.6,1.2-3.5,0l-3.2-4.4c-0.7-1-2.2-1.1-3-0.3
		c-6,6-26.4,26.2-27.1,26.8c-0.8,0.8-0.8,2.4,1.4,1.6c1.8-0.6,17.5-8.5,22.6-11.1c1-0.5,2.1-0.3,2.9,0.5l15.4,15.4
		c0.7,0.7,0.9,1.6,0.7,2.5c-1.3,5.4-6,24.4-6.3,25.9c-0.4,1.8,1.8,2.4,2.5,0.8s39.8-75.3,39.8-75.3h2l9.9,15.1c0.7,1,2.2,1,2.8-0.1
		l2.1-3.6c0.5-0.8,1.6-0.9,2.2-0.2c6.9,7.9,40.3,46.1,41.6,47.4c1.5,1.5,3.8,0.3,2.2-2.7S429.2,327,429.2,327v-2l20-15.8
		c0.7-0.5,1.6-0.5,2.2,0.1c4.8,4.5,24.3,23,25.4,24.2c1.3,1.3,2.8-0.2,2-2.3c-0.8-2.2-4-10.5-4-10.5l1.7-1.3
		C476.5,319.3,495.5,333.7,496.8,334.7z"/>
	<path class="st0" d="M341.2,250.3c9.8-1.8,22.3-5.5,29.5-16.2c7.2-10.7,14.8-20.7,24-7.7c0.1,0.2,0.2,0.4,0.3,0.6l-1.4,39.6
		c-0.1,1.8,1.4,3.3,3.2,3.3c1.8,0,3.2-1.4,3.2-3.2l0.2-80.4c1.9-0.8,3.3-2.7,3.3-4.9c0-2.9-2.4-5.2-5.2-5.2s-5.2,2.4-5.2,5.2
		c0,2.3,1.4,4.2,3.4,4.9l-0.2,5.7c-2.6-0.4-11.5-1.1-19.7,4.1c-9.8,6.2-16.8,15.5-34.5,16.5c-4.2,0.5-3.5,3.2-2.2,4.8
		s5.4,8.3,1.4,12.3s-11.5,12-11.8,15.3C329,248.5,331.3,252.2,341.2,250.3z M334.8,244.8c15.8,0.3,19.6-9.2,20.3-11.6
		c0.1-0.3-0.1-0.5-0.4-0.5c-1,0-3.2-0.2-3.7-1.4c-0.7-1.6,1.8-3.2,2.8-3.8s2.4-1.3,3.9-3.2c3-3.5,0.6-6.3-1.1-6.3
		c-1.7,0-3.2,0.3-5.8,0.4c-2.7,0.1-2.9-2.4-0.5-2.7c7.2-0.7,11.8-3.8,17.9-9.7s13.1-8.8,15.2-9.9s6-1.5,6.6,0.6s-1.8,3.6-4.6,5.9
		s-2.1,4.5,0,4.5c7.8-0.1,7.2,4.5,7.2,4.5s-4.4-0.2-7.5,0s-10.1,9-12.6,13.1s-7.5,10.6-15.2,16.2c-9.8,7.1-21.4,5.5-22.9,5.1
		C333,245.6,333.5,244.8,334.8,244.8z"/>
	<path class="st0" d="M327.9,401.2l-0.9,18.4l3.9-0.7v-5.2l4.8-1.2l2.2,4.1l4-0.9l-8.5-15.4L327.9,401.2z M330.9,410.9v-7.2l3.4,6.3
		L330.9,410.9z"/>
	<polygon class="st0" points="351.9,396.4 354.2,408.4 345.8,397.6 341.5,398.4 344.4,415.4 347.8,415 345.6,402.7 354.2,413.8 
		358.4,413.2 355.6,395.8 	"/>
	<polygon class="st0" points="370.2,394 371.9,406.2 364.1,394.8 359.6,395.2 361.6,412.5 365,412.2 363.9,399.8 371.4,411.4 
		375.4,411.2 373.9,393.6 	"/>
	<path class="st0" d="M382,393.2l-4.1,17.2h4.1l0.9-4.4l5-0.2l1.4,4.2h3.9l-5.9-17.1L382,393.2z M383.4,403.5l1.4-7.1l2.3,7.1H383.4
		z"/>
	<path class="st0" d="M404.6,393.2c-0.6-0.2-1.8-0.3-3.6-0.3h-4.9v17.2h3v-6.5h2c1.4,0,2.4-0.1,3.2-0.2c0.5-0.1,1.1-0.4,1.6-0.8
		s0.9-1,1.3-1.7c0.3-0.7,0.5-1.6,0.5-2.7c0-1.4-0.3-2.5-0.9-3.3S405.4,393.4,404.6,393.2z M404.1,399.6c-0.2,0.4-0.5,0.7-0.9,0.8
		c-0.4,0.2-1.2,0.3-2.4,0.3h-1.7v-4.9h1.5c1.1,0,1.8,0,2.2,0.1c0.5,0.1,0.9,0.4,1.2,0.8c0.3,0.4,0.5,0.9,0.5,1.5
		C404.5,398.7,404.4,399.2,404.1,399.6z"/>
	<path class="st0" d="M421.1,402.8c0,1.4-0.1,2.3-0.3,2.9c-0.1,0.6-0.4,1.1-1,1.4s-1.3,0.6-2.2,0.5c-1,0-1.7-0.3-2.3-0.7
		s-0.9-1-1-1.7c-0.1-0.4-0.1-1.4,0-2.9l0.3-9.3l-3.5-0.1l-0.3,9.2c-0.1,1.9,0,3.4,0.2,4.4c0.1,0.7,0.4,1.3,0.9,1.9
		c0.5,0.6,1.1,1.1,2,1.5c0.8,0.4,2.1,0.6,3.7,0.7c1.4,0,2.5-0.1,3.3-0.4s1.5-0.8,2.1-1.3c0.5-0.6,0.9-1.3,1.1-2.1s0.4-2.3,0.4-4.4
		l0.3-9l-3.5-0.1L421.1,402.8z"/>
	<path class="st0" d="M441.2,399.6c0.1-4.8-7.3-5.1-8.4-5.1l-3.4-0.2l-1.9,17l3.8,0.4l0.6-6.6c3.9,0.1,3.9,1.8,4,2.6
		s0.4,5.2,0.4,5.2h3.9c0,0-0.2-2.4-0.6-5s-2.3-3.7-2.3-3.7S441.2,404.3,441.2,399.6z M435.3,402.8c-0.6,0-2-0.1-3.2-0.1l0.5-5.3
		c0.6,0,1.3,0,2.1,0c1.7,0,3,1.2,2.9,2.6S436.3,402.8,435.3,402.8z"/>
	<polygon class="st0" points="455.8,398 453.9,410.3 449.8,396.7 445.4,396.2 442.5,413.6 445.7,414 447.8,401.4 452.4,415.3 
		456.4,416.1 459.3,398.5 	"/>
	<path class="st0" d="M467.5,400.4l-9,15.8l3.6,1l2.1-4.1l5.3,1.1l0.3,4.7l3.8,1.1l-1.1-18.3L467.5,400.4z M465.5,410.7l3.4-6.5
		l0.4,7.2L465.5,410.7z"/>
	<path class="st0" d="M220,254.3l-9.8-10.6l9.4-14.3l14.1,4.6l7.3-11.7L184.7,206l-9.7,14.3l37.7,45.3L220,254.3z M203.2,236.1
		L187.3,219l22.4,7.2L203.2,236.1z"/>
	<polygon class="st0" points="252.5,211.5 224.7,181 268.7,197.3 278.7,188.2 241,146.8 232.3,154.5 259.5,183.2 217.2,167.8 
		206.2,177.7 243.8,219.2 	"/>
	<polygon class="st0" points="295.3,178.5 276.3,141.8 314.5,169 326.5,163 301.2,112.7 290.5,118.2 309.5,153 272.7,127.2 
		259.5,133.8 285,183.8 	"/>
	<path class="st0" d="M343.4,143.7l16.5-3.7l6.8,13.2l13.3-2.8L350.8,99l-16.3,3.5l-4.5,58.7l12.8-2.5L343.4,143.7z M344.5,110.3
		l10.8,20.9l-11.6,2.4L344.5,110.3z"/>
	<path class="st0" d="M397.5,130.7h11c0,0,9,0,14-7.3s4.3-16-1.5-23.2c-4.5-5.5-15.6-5.9-23-5.7l0-0.1l-12.5,0.5l-0.8,55.8l12.5,0.2
		L397.5,130.7z M397.6,121l0.4-17.2h6.6c4.7,0,8.6,3.8,8.6,8.6c0,4.7-3.8,8.6-8.6,8.6L397.6,121L397.6,121z"/>
	<path class="st0" d="M450.5,158.8L450.5,158.8c12.4,4,25.7-3.1,29.1-15.7l9.2-33.6l-12.5-3.3l-9.4,35.9c-1.5,5.7-7.5,9-13.1,7.1
		c-5.1-1.7-8-7.1-6.7-12.3l9.5-35.7L444,97.5l-8.6,33.9C432.5,143.1,439.1,155.1,450.5,158.8z"/>
	<path class="st0" d="M492.8,173.2l10.8-19.2c0,0,1.8,0.7,5,2.8s3,6,1.7,11.7c-1.3,5.7-2.8,12.5-2.8,12.5l11.7,6.7
		c0,0,1.5-10.5,3.3-16c1.8-5.5,1.5-10.2-1.5-13.3c0,0,9,1.5,14.5-5.7c5.5-7.2,3.7-16.2-2-20.5c-5.7-4.3-12.3-9.3-25.6-13.9l-26.2,49
		L492.8,173.2z M515,132.3l6,2.6c4,2,5.5,7.1,3.2,11v0c-2.2,3.7-6.9,4.9-10.6,2.8l-6-2.9L515,132.3z"/>
	<polygon class="st0" points="530.7,197.7 558.5,166.8 546.3,212.5 556.2,221.2 594.2,179.8 586,172.2 559.5,201.8 571.2,158 
		560,148.3 521.8,189.8 	"/>
	<path class="st0" d="M565.8,235l14.2-4.8l9.3,14.1l-10.2,11.2l7.3,11.7l38-45.5l-9.2-13.8l-56,15.8L565.8,235z M611.7,219.7
		l-15.4,17l-6.5-9.7L611.7,219.7z"/>
	<path class="st0" d="M283.2,671.5c-1.6,5.2-7.1,8.2-12.4,6.6l0,0c-5.3-1.6-8.2-7.1-6.6-12.4l10.1-33.5l-12-3.5l-9.6,33.3
		c-3.1,10.8,2.9,22.1,13.7,25.5l2.8,0.9c11,3.5,22.7-2.7,26-13.7l10.4-34l-12-3L283.2,671.5z"/>
	<polygon class="st0" points="346.5,687.2 331.5,645.8 317.2,644 310,698 321.2,699.2 326.5,659.5 341.8,702 354.8,704 362.2,650 
		350.5,648.5 	"/>
	<polygon class="st0" points="374,704.8 386.8,705.5 388.2,650.8 375.5,650.8 	"/>
	<path class="st0" d="M439,648.2l-41.2,3l0.5,10l14.6-0.9L416,704c0,0,12.8,1,12.5,0c-0.2-0.8-2.5-33.6-3.3-44.4l14.8-0.9L439,648.2
		z"/>
	<polygon class="st0" points="468.5,687.8 466.2,675 486,671 483.5,661.2 464.4,665.2 462.2,653.8 483,650 480.8,640 448.2,646.8 
		458.8,699.8 493,693.2 490.5,683 	"/>
	<path class="st0" d="M492,638.2l18,50c0,0,26.8-5.2,34-16.8s4-25-1-32.2S527,619.5,492,638.2z M519,676l-12-34
		c0,0,4.2-2.8,11.2-3.2s13.2,1.5,16.8,17S519,676,519,676z"/>
	<path class="st0" d="M577,358c2,4.7,7.3,2.3,8.8,1.2c1.5-1.2,6.2-3,2.7-9s-31.2-57.4-118.8-78.2c-6.9-1.6-7.7,7-2.3,9.3
		c5.3,2.3,38.7,18.3,50.3,34c3.3,5.7,2.3,8.3-11.3,24c-3.9,4.5-18.5,22.2-37.3,45.3c6.6,1.8,13.3,3.9,19.9,6.5
		c25.4-32.8,45-58.1,46.1-59.4c3.3-4,7.7-5.3,17,0C561.3,337,569.3,342.7,577,358z"/>
	<path class="st0" d="M423.5,440.4c-29.6,36.4-58.5,72-70.3,86.5c-3.1,3.8-2.6,9.3,1.1,12.5l4.8,4.1c3.9,3.4,9.8,2.7,13-1.3
		c12.6-16.3,43.8-56.7,75.6-97.8C440.7,442.8,432.6,441.3,423.5,440.4z"/>
	<path class="st0" d="M332.3,272c-87.7,20.8-115.3,72.2-118.8,78.2s1.2,7.8,2.7,9c1.5,1.2,6.8,3.5,8.8-1.2c7.7-15.3,15.7-21,25-26.3
		c9.3-5.3,13.7-4,17,0c1.1,1.3,20.4,26.3,45.6,58.8c6.7-2.5,13.4-4.6,20-6.3c-18.7-22.9-33.1-40.4-37-44.8
		c-13.7-15.7-14.7-18.3-11.3-24c11.7-15.7,45-31.7,50.3-34C339.9,279,339.2,270.4,332.3,272z"/>
	<path class="st0" d="M353.9,444c8.3,10.8,16.6,21.5,24.5,31.7c2.4,3.2,7.2,3.2,9.7,0.1l5.9-7.4c2.1-2.6,2.1-6.3,0-8.8
		c-5.2-6.3-10.4-12.8-15.7-19.3C369.2,441.1,361,442.5,353.9,444z"/>
</g>
</svg>
