<?xml version="1.0" encoding="utf-8"?>
<!-- Generator: Adobe Illustrator 22.1.0, SVG Export Plug-In . SVG Version: 6.00 Build 0)  -->
<svg version="1.1" id="图层_1" xmlns="http://www.w3.org/2000/svg" xmlns:xlink="http://www.w3.org/1999/xlink" x="0px" y="0px"
	 viewBox="0 0 800 800" style="enable-background:new 0 0 800 800;" xml:space="preserve">
<style type="text/css">
	.st0{fill:#09378D;}
</style>
<path class="st0" d="M400,50C206.7,50,50,206.7,50,400s156.7,350,350,350s350-156.7,350-350S593.3,50,400,50z M400,725.5
	C220.2,725.5,74.5,579.8,74.5,400S220.2,74.5,400,74.5S725.5,220.2,725.5,400S579.8,725.5,400,725.5z"/>
<g>
	<path class="st0" d="M364.6,223.1c0.9-3.9-1.9-10.1-8.6-9.8c-6.7,0.3-11.7,12.5-3.5,21c8.2,8.5,30.6,0.6,60.1-1.2
		c69.7-4.4,88.2,22.9,88.2,22.9c4.8-8.2,16.2-3.1,16.2-3.1c-35-50.5-143.2-23.6-143.2-23.6C363.4,232.1,363.7,227,364.6,223.1z"/>
	<path class="st0" d="M517.8,257.5c-9-7-16.5,0.7-16.5,0.7v5.8h16.5V257.5z"/>
	<path class="st0" d="M403.8,235.2c16.9,19.2,44.6,33.5,44.6,33.5c6.4-0.9,23,1.8,23,1.8C463.9,231.4,403.8,235.2,403.8,235.2z
		 M412.5,239c0,0,22.5,2.6,31.5,11.4C440.2,253.6,414.6,241.3,412.5,239z"/>
	<path class="st0" d="M523.2,453.4c5.5-5.5,14.1-17.9-2.9-48.6s-52.5-48.8-87.7-52.5s-72.4-14-78.3-39.8s14.4-40.5,31.5-45.9
		s49.7-2.5,49.7-2.5c-5.9-3.1-19.9-14.1-19.9-14.1c-25.6-3.6-84.4,3.9-84.9,56.7c-0.6,52.8,66.5,71.8,66.5,71.8s-7.6-16.3,16.6-9
		c24.2,7.3,33.5,30.3,33.5,30.3c33.5,20.4,37.5,46.4,37.5,46.4c12.8,6.1,20.1,16.9,23.5,20.9c3.4,3.9,9.9,18.5,10.2,20.7
		c0.3,2.2,0,2.8,2.5,1.8c4.1-7.3,7.6-24.6,8.5-29.3c0.9-4.7,0-7.6-1.5-6.9c-4.9,8.1-6.8,8.6-10.4,11c-3.7,2.2-5.8-1.8-4.5-3.5
		C514.5,458.5,519.7,456.9,523.2,453.4z"/>
	<path class="st0" d="M330.3,245c5.5,0.9,9.6-9.7,3.8-12.8c-5.8-3.1-13.7-3.9-19.5,1c-5.8,5-6.7,18.1-3.5,24.8
		c3.2,6.7,15.8,15.2,29.8,11.2c0,0,10.4-10.4,16-12.2c0,0-9.6,3.1-18.7,2.6c-9-0.4-13-3.8-15.3-7.7
		C320.5,247.9,322.1,243.9,330.3,245z"/>
	<path class="st0" d="M296.9,268.2c-3.1,4.1,0.7,10.9,6.7,18.8c6,7.9,24.8,8,24.8,8c1.5-7.3,4.8-13.4,4.8-13.4
		c-21.6,2.9-22.5-4.7-24.8-11.1C306.1,264.1,300,264.1,296.9,268.2z"/>
	<path class="st0" d="M307.4,297.3c-3.2-4.7-10.6-3.9-10.8,0.7c-0.1,4.7,5.1,10.8,11.1,13.6c6,2.8,19.5,1.2,19.5,1.2
		c-0.3-5.8,0.3-11.8,0.3-11.8C313.7,305.2,310.6,302,307.4,297.3z"/>
	<path class="st0" d="M267.7,325.2c-5.2,3.9-13.1,0-17.3-5.5s-10.1-11.8-20.3-3.3s-12.2,18.8-10.5,30.8c0,0,9.2-15.8,20.1-14
		s12,10.1,8.1,18.6s-8.5,24.7-17.3,38.7s2.4,35,27.6,46.2c0,0,28.7-14.7,46.2-15.1c0,0-4.8-7.9-21.4-11.8S255,390.6,258,379.2
		s8.1-21.2,21.7-33.2s8.5-32.6,2.8-38.5s-17.1-23.1-15.5-26.1s4.2-6,7.1-3s10.6,3.7,13.7-2.2c2.4-6,1-16.4-15.3-14.2
		c-9.2,1.2-17.5,10.9-16.6,21.9s2.8,16.4,9.8,21.2S272.9,321.2,267.7,325.2z"/>
	<path class="st0" d="M211.9,345.1c9-8.3,2.6-20.6,2.6-20.6c-0.2,6.8-7.4,14.2-11.8,17.7s-13.8,2.2-13.8,2.2
		C194.6,353.2,202.9,353.4,211.9,345.1z"/>
	<path class="st0" d="M214.3,356.7c5.7-7,1.8-14.2,1.8-14.2c-9,15.3-22.8,16.4-22.8,16.4C200.1,366.8,208.6,363.7,214.3,356.7z"/>
	<path class="st0" d="M206.8,377.7c10.9-0.4,13.3-16.2,9.4-20.3c0,0-6.1,16-22.5,13.3C193.7,370.7,195.9,378.1,206.8,377.7z"/>
	<path class="st0" d="M290.9,435c9-2.6,34.1-0.9,53.1,8.2c19,9,36.8,27.4,36.8,27.4l10.5-0.9c0,0-20.7-19.2-46.4-33.5
		c-25.7-14.3-46.2-11.8-58.8-7c-12.5,4.8-29,12-45.9,16.3c-16.9,4.4-24-6.3-26.2-12c-0.9-2.2-2.5-8.3,5.8-8.6
		c8.3-0.3,9.5-5.8,7.7-11.7c-1.8-5.8-13.3-9.8-21.1,1.5c-7.9,11.2-5.8,19.5-0.7,27.6c5.1,8,15.5,15.2,29.2,15.8
		c13.7,0.6,29-8.3,32.2-10.5s4.5,0.6,3.1,2.2c-1.5,1.6-5.4,5.7-21,11.2c-15.6,5.5-33-1.3-39.8-7.7c-6.9-6.4-12.4-4.8-14.4-1.6
		c-2,3.2-1.9,9,9.2,14.6c11.1,5.5,21.9,6.4,29.6,6.3c7.7-0.1,23.9-4.7,26.7-6.7c2.8-2,4.7,2.2,0.7,4.2c-8.2,5-31.9,8.6-39.2,6.4
		c-7.3-2.2-13.4-2.8-17.4-1.3c-3.9,1.5-6.4,10.1,3.9,13c10.4,2.9,55.7-4.1,63.9-8.6c8.2-4.5,21.7-4.1,21.7-4.1
		c-2.9-5.7-3.2-30.5,22.3-23.2c25.5,7.3,45.1,25.5,45.1,25.5c2.8-2,14.7-6.1,14.7-6.1c-15.5-14.4-22-18.8-38.5-27
		c-16.5-8.2-38.4-5.4-44.2-3.9C287.6,442.1,286,436.5,290.9,435z"/>
	<path class="st0" d="M341.1,492.5c0,0,8.4-9.4,17-13.9c0,0-20.3-17.6-43.5-24.3c-23.2-6.7-23.7,26.6-8.6,31.3
		C321.2,490.3,338.4,488.9,341.1,492.5z"/>
	<path class="st0" d="M235.1,491.4c-12.5,30.6,0.7,51.2,0.7,51.2c18.4-7.2,24.7-16.4,24.7-16.4c-8.3-22.8,5-40.7,5-40.7
		C254.5,485.8,235.1,491.4,235.1,491.4z"/>
	<path class="st0" d="M290.6,517.9c0.2,1.8,3.8,1.8,5.2,0.4s9.5-9.8,31.8-13.8c6.6-1.1,5.9-6.1,5.9-6.1s-26.7,3.5-31.1,4.2
		s-1.8-1.3-11.4-5.7s-21.4-1.8-26.5,5s-4.2,17.1-0.4,22.8l19.5-3.3l-1.1-2.6c0,0-7.7,0.4-9.8,0.7s-4.6-7-1.5-10.3s11.8-6.3,19.5,0.6
		C290.6,509.7,290.4,516.2,290.6,517.9z"/>
	<path class="st0" d="M449.2,409c-14.7-30.6-31.4-35.1-39.9-38.1c-8.5-3.1-12.8-0.2-10.4,5.5c2.4,5.7,1,9.6-9.2,6.7
		c-29.8-11.1-40-2-62.3-0.9c-22.3,1.2-29-16-26.1-21.6c2.9-5.5,11.7-5.8,11.7-5.8c2.1,9.3,6.4,10.6,10.1,11.1s8.1-4.6,5.2-10.7
		s-9.6-10.9-17.9-11.2s-29.8,10.1-17.5,35.7s52.3,17.9,52.3,17.9c5,8.1,13.6,24.1,44,31.5c42.7,9.8,14-6.1-3.3-14.2
		s-28.4-23.8-17.1-22.2c11.4,1.6,25.4,7.4,37.2,16.5s30.6,20.3,37,21.2S456.9,426.2,449.2,409z"/>
	<path class="st0" d="M441.6,450.2c-3.5-12.7-20-12.2-20-12.2c16.3,12,10.4,30.8,10.4,30.8S445.1,462.9,441.6,450.2z"/>
	<path class="st0" d="M426.4,448.2c-5.7-13.7-21.1-12.1-21.1-12.1c16,10.1,14.3,29.3,14.3,29.3C421.6,464.8,429.9,457.9,426.4,448.2
		z"/>
	<path class="st0" d="M410.9,445.1c-8-15.6-23.3-12-23.3-12c21.9,12,14.4,32.4,14.4,32.4C412,462,415.3,454.2,410.9,445.1z"/>
	<path class="st0" d="M506.1,511.3l11.6-17.3c-14.4-37-31.9-43.8-31.9-43.8c-2,26-16.3,38.6-16.3,38.6l9.2,1.2
		c8.8-10.9,9.6-21.3,10.1-23.6c0.4-2.3,5.2-7,7.8,1.1c3.1,10.7-10.7,28.4-10.7,28.4C493.8,509.6,506.1,511.3,506.1,511.3z"/>
	<path class="st0" d="M549.9,543.2c0,0,5-13.1,6.1-36.8c0-6.4,14.6-16.6,19.5-23.6c5-7,17.5-27.7,12-53.4c-3.5-13.7-8.2-8.2-8.5-1.5
		c-0.3,6.7-1.8,31.5-20.4,42.3c-9-5.8-6.7-64.2-31.8-61.2c0,0,13.1,15.8,6.4,55.4c0,0,14.3,32.7,6.1,68.5L549.9,543.2z"/>
	<path class="st0" d="M593.6,380.8c0,0-11.8-7.2-20.3,3.3s4.2,24.3,4.2,24.3S575.4,385.6,593.6,380.8z"/>
	<path class="st0" d="M580.9,402c-2.6,14,5.2,17.9,5.2,17.9s-2.8-20.8,14-28.7C600.2,391.2,583.5,388,580.9,402z"/>
	<path class="st0" d="M589.9,410.5c-7.4,14.4,6.1,26,6.1,26s-4.6-29.1,16.4-32.2C612.4,404.4,597.3,396.1,589.9,410.5z"/>
	<path class="st0" d="M477,250.9c-9.3,20.7,4.7,29.5,17.8,28.1c13.1-1.5,22.8,0,29.2,5.5c6.4,5.5,5.8,19.5,5.8,19.5
		c7.3,6.4,17.5,4.1,17.5,4.1c-5.8-3.5-2.6-7.3-5.2-21.6c-2.6-14.3-12.5-21.6-37.6-19.5C479.3,269,477,250.9,477,250.9z"/>
	<path class="st0" d="M523.6,292.6c0-5.9-5.5-9-9.4-9c-5,0-5,7.2-0.7,10.9S523.6,298.5,523.6,292.6z"/>
	<path class="st0" d="M373.1,297.2c-4.4,17.1,11.4,30.4,22.8,24.5s4.2-15.1-0.2-12.5s-9,3.3-9.8-6.6s14.2-19.7,37.2-21
		s42.7,14.2,42.7,14.2c-1.1-11.4,10.9-19.5,10.9-19.5C399.8,260,377.5,280.1,373.1,297.2z"/>
	<path class="st0" d="M430.3,311.1c9.1-4,20.9,9.3,37.3,29.6s31.3,30,44.2,32.6s31.3,10.3,31.3,10.3l-9.6-16.2
		c0,0-25.2-0.4-47.2-21.7S455,297.6,430.5,302c-24.6,4.4-15.8,32.2-4.2,35c7.4,2,10.7-4.8,7.9-8.5s-4.8-4.5-6.9-4.8
		S421.2,315.1,430.3,311.1z"/>
	<path class="st0" d="M549.9,313.1c-24.8-1.6-38.9-16.2-47.5-24.9s-25.1-10.9-31.8,2.5c-6.7,13.4,7.1,21.6,7.1,21.6
		c-1.8-8.6,2.5-13.7,7-15.2c4.5-1.5,7.6,0.2,14.6,8.5c9.3,11,20.6,16.8,23.8,17.9c3.2,1.2,11.5-0.6,17.4,2.8
		c14.2,8.2,31.5,21.9,34.4,24.1c2.9,2.2,10.8,5.2,13.4-2c2.6-7.3-1.3-9.3-4.8-10.9c-3.5-1.6-9.2-4.1-9.2-4.1
		C575.3,326.5,574.7,314.7,549.9,313.1z"/>
	<path class="st0" d="M554,379.1c0.7-6.4,8-10.9,8-10.9c-5.7-2.9-12.1,2.6-12.1,2.6s-2.6-4.1-7-13c-6.7-13.7-23.2-27.4-34.9-34.4
		s-14.6-13.4-15.8-18.4c-1.2-5-3.6-6.3-8.2-3.8c-4.5,2.5-5.2,14.9,1,18.8c9.9,6.2,38.9,24.8,42.1,31.1c3.2,6.3,11.5,21,16.2,29
		C548.2,388.2,553.3,385.6,554,379.1z"/>
	<path class="st0" d="M564.6,345.9c-6.7-9.5-11.7-6.9-12.8-5.5s0.9,4.4,4.1,6.6c3.2,2.2,1,5.8-1,6.3s-4.7-0.4-9.5-10.8
		c-8-16.8-24.5-16-24.5-16c8.5,4.4,14.3,12.4,19.2,22.3c5,9.9,7.4,12,13.6,12.4C560.7,361.1,571.4,355.4,564.6,345.9z"/>
	<path class="st0" d="M122,390.4c4.2,0.9,8.3,1.5,10.9,0.9c0,0,5.9,5.2,13.8,4.4s9.2-7.2,8.5-9s-2.8-7-7.7-9c-4.8-2-9-0.5-8.5,2.8
		s2.4,5.2,4.4,5.2s3.4-0.9,2.4-3.7c0,0,1.8-0.5,2.3,3.3s-8.2,3.4-10.8-0.5s-2.7-7.5,0.4-9.8s9.7-0.2,10.4,1.4s4.9,1.1,5.1,0
		s-0.5-1-0.9-2.1s0.7-2.8-5.2-5.4c-4-1.5-3.9-6.1-8.5-6.7c-4.7-0.4-22.3-0.8-25.6,14.9c-0.9,4.2,1.5,7,1.5,7S117.8,389.5,122,390.4z
		"/>
	<path class="st0" d="M153.7,396.1c-1.6,0.3-2.2,2.6-7.7,3.5c-5.5,0.9-13-5.6-13-5.6s-4,1-11,0.2c-10-3.2-9.9-11.6-11.8-12.1
		c-2.8-0.7-4.2,1.1-6.9,7.7s-2.4,13.6-0.7,19.9s14.9,7,15.2,0.7s-4.3-5.2-5.9-5.1s-1.5,1.4-0.2,1.9c1.4-0.2,3,2.3-0.3,2.3
		c-3.4,0-3.5-7.6,2-7c5.5,0.6,7.3,5.1,7.1,8.3c-0.1,3.2-3.4,8.2-7.6,8c-4.2-0.1-6.9-0.3-8.8,1.3c-1.9,1.6-0.3,4.2,5.4,5.5
		s6.4,3.5,9.5,7.1c3.1,3.6,14,2.9,22.8,2.3c8.8-0.6,12.2-9.3,13.7-11.8c1.5-2.5,1.2-12.7,1.2-19.2S155.3,395.8,153.7,396.1z"/>
	<path class="st0" d="M653.6,395.6c7.9,0.9,13.8-4.4,13.8-4.4c2.6,0.7,6.8,0,10.9-0.9s7.4-6.3,7.4-6.3s2.4-2.8,1.5-7
		c-3.3-15.6-20.9-15.2-25.6-14.9c-4.6,0.7-4.5,5.2-8.5,6.7c-5.9,2.6-4.9,4.3-5.2,5.4c-0.4,1.1-1.1,1-0.9,2.1s4.5,1.6,5.1,0
		s7.2-3.7,10.4-1.4s3.1,5.9,0.4,9.8s-11.4,4.4-10.8,0.5s2.3-3.3,2.3-3.3c-1,2.8,0.4,3.7,2.4,3.7s3.9-2,4.4-5.2s-3.7-4.8-8.5-2.8
		c-4.8,2-7,7.2-7.7,9S645.8,394.8,653.6,395.6z"/>
	<path class="st0" d="M688.5,407.1c1.3-0.4,1.3-1.8-0.2-1.9s-6.1-1.1-5.9,5.1s13.5,5.6,15.2-0.7s2-13.3-0.7-19.9s-4.1-8.3-6.9-7.7
		c-1.9,0.5-1.8,8.9-11.8,12.1c-7,0.8-11-0.2-11-0.2s-7.4,6.4-13,5.6c-5.5-0.9-6.1-3.2-7.7-3.5c-1.6-0.3-3.2,1.3-3.2,7.9
		s-0.3,16.8,1.2,19.2c1.5,2.5,5,11.2,13.7,11.8c8.8,0.6,19.7,1.3,22.8-2.3c3.1-3.6,3.8-5.8,9.5-7.1s7.3-3.9,5.4-5.5
		c-1.9-1.6-4.5-1.5-8.8-1.3c-4.2,0.1-7.4-4.8-7.6-8c-0.1-3.2,1.6-7.7,7.1-8.3c5.5-0.6,5.4,7,2,7C685.4,409.3,687,406.8,688.5,407.1z
		"/>
	<path class="st0" d="M563.9,565.4c0,0-21-11.1-28.6-18.7c-6.7-11.1-27.7-23.3-48.4-30.6c-9.9-14.9-19.2-16.9-23.6-16
		c-2-2-18.7-7-36-5.5c-13.6-8.5-28.7-12.2-43.6-12.5c-14.9-0.3-35.3,16.9-40.2,23.3c-5,6.4-5.8,8.8-16,11.1c-10.2,2.3-19,6.4-21.9,9
		s-7.6,6.1-14.3,6.7c-6.7,0.6-19.5,2.3-19.5,2.3l-4.1,1.5l-8.8,7.3l-46.7,26l-9.4-1.2l-17.5,13.4l20.1-5.5c0,0,18.6-1,21.5-1.3
		s9.8-6.7,12.4-9.7s8.5-3.7,8.5-3.7l14.8-10.3l18.9-1.6c1.6,2.8,5.7,5.1,10.6,2.8s16.2-7.4,18.2-8.5s2.6-2.1,8.9-8.9
		s6.5-0.3,10.4-0.7s14.2-7.8,14.4-11.9s1.3-9.8,8.5-13.1s10.3-6.1,10.3-6.1c-0.2-3.9,9.4-7.2,9.4-7.2l3.1,5.2l3.5,0.2v9.4l1.8,3.5
		l0.9,3.7l-6.3,5.9l-1.3,2l-0.2,3.5c0,0-13.8,17.9-15.4,19.5c-1.6,1.5-1.5,4.4,0,4.6c1.5,0.2,8.4-4.4,8.4-4.4l4.4,0.4l2.8-0.4
		l2.8-2.8l9.4-5.2c-2.6-2.4-3.7-9.6,3.5-11.6s15.8,2,15.8,2l10.1-17.5c0,0,10.7,7.9,16.2,10.7s5.5,6.1,3.9,7.2s-5,3.9-5,3.9
		l10.9,10.1l11.2,1.3l3.7,4.6c3.5-0.4,8.1,2.4,10.7,5.7s4.6,4.4,7.2,4.6s5.2,0.4,13.1,1.3c-0.2,5.5,1.8,9.4,6.6,12.9
		s11.6,1.3,11.6,1.3l31.1,14l-8.1-9.2l-15.3-9.2l-0.2-7.7L499.1,552l-1.5-9.3l-3.4-4.2l1.5-1.2l23.9,14.9c0,0-1.8,3.8,5.2,9.9
		s27.7,8.8,27.7,8.8l8.5,6.4l23.3-0.3c21.3,9.9,33,9,33,9c-2.9-0.6-12.8-9.6-12.8-9.6C599.8,577,563.9,565.4,563.9,565.4z"/>
	<path class="st0" d="M274.2,637c-0.3-0.5-0.5-0.8-0.6-1l-2.5-4.4c-1.1-1.9-1.7-3.4-1.9-4.6c-0.2-1.2,0-2.5,0.5-3.8l1.2-2.8
		c0.6-1.4,1.2-2.2,1.9-2.6c0.4-0.2,0.8-0.4,1.3-0.4c0.5,0,0.9,0.1,1.5,0.3c1.1,0.5,1.7,1.2,1.9,2.1c0.2,0.8,0,1.8-0.6,3.2l-1.3,3
		l7.1,3l1-2.5c1.3-3.2,1.6-5.9,0.7-8.1c-0.9-2.2-2.9-4-6-5.3c-2.1-0.9-4.1-1.3-5.9-1.3c-1.1,0-2.1,0.2-3.1,0.5
		c-2.6,0.8-4.5,2.5-5.6,5.2l-1.6,3.8c-0.8,1.9-1.2,3.8-1.1,5.5c0.1,1.7,0.7,3.5,1.9,5.5l2.5,4.4c1.4,2.4,2.2,4.2,2.4,5.4
		c0.2,1.3,0,2.6-0.6,4l-0.7,1.7c-0.7,1.6-1.4,2.6-2.1,3.1c-0.4,0.3-0.9,0.4-1.4,0.4c-0.5,0-1.1-0.1-1.7-0.4
		c-1.2-0.5-1.9-1.3-2.2-2.3c-0.2-0.9,0-2.1,0.7-3.6l1.2-2.9l-7.4-3.1l-1,2.4c-1.6,3.7-1.9,6.6-1,8.8c0.9,2.2,3.2,4.1,6.9,5.7
		c2.3,1,4.5,1.5,6.4,1.5c1.1,0,2.1-0.2,3-0.5c2.6-0.8,4.5-2.8,5.9-5.9l1.1-2.6c0.6-1.3,1-2.5,1.1-3.5c0.2-1,0.2-1.9,0.1-2.9
		C276,640.6,275.4,639,274.2,637z"/>
	<polygon class="st0" points="272.6,611.9 272.6,611.9 272.6,611.9 	"/>
	
		<rect x="271.5" y="643.1" transform="matrix(0.3879 -0.9217 0.9217 0.3879 -416.3614 667.215)" class="st0" width="45.4" height="8"/>
	<path class="st0" d="M361.8,642.3c-1.1-0.1-2.1-0.2-3-0.2c-3.1,0-5.4,0.7-7,2.2c-2,2-3.5,6-4.2,12.2l-1.9,15.1
		c-0.8,6.2-0.4,10.5,1.1,12.9c1.5,2.3,4.5,3.8,9.1,4.4c1.1,0.1,2.1,0.2,3,0.2c2.8,0,4.9-0.6,6.3-1.8c1.9-1.6,3.2-4.9,3.8-9.8
		l0.2-1.7l-7.6-1l-0.2,1.8c-0.3,2.7-0.8,4.4-1.5,5.4c-0.6,0.9-1.6,1.4-2.8,1.4c-0.2,0-0.4,0-0.6,0c-1.9-0.2-2.7-1.4-3.1-2.3
		c-0.4-1.2-0.4-3.2,0-6.3l2.4-19.3c0.4-3.2,0.9-5.1,1.6-6.1c0.7-1,1.7-1.5,2.9-1.5c0.2,0,0.4,0,0.6,0c1.9,0.2,2.7,1.4,3,2.3
		c0.4,1.1,0.4,3.2,0,6.3l0,0.1l7.6,1l0.1-0.9c0.6-4.8,0.2-8.3-1.2-10.3C368.9,644.1,366.1,642.8,361.8,642.3z"/>
	<polygon class="st0" points="392.8,686.2 392.8,685.3 392.8,671.5 392.8,670.7 393.6,670.7 401.7,670.7 401.7,665.1 393.6,665.1 
		392.8,665.1 392.8,664.3 392.8,652.7 392.8,651.8 393.6,651.8 402.4,651.8 402.4,646.3 384.8,646.3 384.8,691.7 403.2,691.7 
		403.2,686.2 393.6,686.2 	"/>
	<polygon class="st0" points="435.6,644 435.6,644 435.6,644 	"/>
	<path class="st0" d="M434,683.7l-1.7,0.2l0.8-1.5l8.9-15.5c1.2-2.1,2.1-4.1,2.5-5.9c0.4-1.8,0.5-3.7,0.4-5.7l-0.1-0.7
		c-0.4-4.4-1.4-7.4-3.1-8.9c-1.3-1.1-3.4-1.7-6.2-1.7c-0.7,0-1.5,0-2.3,0.1c-4,0.4-6.8,1.4-8.1,3.2c-1.3,1.7-1.8,4.8-1.5,9.1
		l7.5-0.7l-0.1-1c-0.2-2.4-0.2-3.9,0.1-4.9c0.4-1.1,1.2-1.8,2.4-1.9c0.1,0,0.2,0,0.3,0c1.1,0,1.9,0.5,2.4,1.4c0.5,0.8,0.8,2.4,1,4.8
		l0.2,1.8c0.1,1.3-0.1,2.9-0.6,4.6c-0.5,1.7-1.3,3.5-2.4,5.4l-9.1,16.2l0.7,7.3l22.6-2.1l-0.5-5.2L434,683.7z"/>
	<path class="st0" d="M481.6,648.4c-1.3-5.2-3-8.5-4.9-10c-1.1-0.9-2.6-1.3-4.5-1.3c-1.3,0-2.7,0.2-4.3,0.6c-3.9,1-6.4,2.6-7.4,4.8
		c-1,2.2-0.9,6,0.4,11.2l4.4,17.3c1.3,5.2,3,8.6,4.9,10.1c1.1,0.9,2.7,1.3,4.5,1.3c1.3,0,2.7-0.2,4.3-0.6c3.9-1,6.3-2.6,7.3-4.8
		c1-2.3,0.9-6-0.4-11.2L481.6,648.4z M480.1,675.7c-0.2,1.2-0.9,2-2.1,2.3c-0.3,0.1-0.6,0.1-0.9,0.1c-0.8,0-1.5-0.3-2-1
		c-0.4-0.4-1-1.4-1.8-4.7l-6-23.9c-0.6-2.2-0.8-3.8-0.6-4.8c0.2-1.2,0.9-2,2.1-2.3c0.3-0.1,0.5-0.1,0.8-0.1c0.8,0,1.6,0.4,2.1,1
		c0.6,0.7,1.1,2.2,1.7,4.6l6,23.9C480.1,673.1,480.3,674.7,480.1,675.7z"/>
	<path class="st0" d="M497.6,627.2c0,1.4-0.3,2.9-0.8,4.3c-0.5,1.4-1.3,2.9-2.3,4.3l2.5,5.9c0.4-0.5,0.8-0.9,1.1-1.4
		c0.6-0.8,1-1.7,1.4-2.7l0.8-2l0.9,2l13.1,30.3l6.5-2.8l-17.4-40.3L497.6,627.2z"/>
	<path class="st0" d="M548.3,634.3c-1.2-1.9-2.5-3.3-4.1-4c-0.9-0.4-1.9-0.7-3-0.7c-0.7,0-1.4,0.1-2.2,0.3l-3,0.8l2.1-2.2
		c1.2-1.3,1.9-2.7,2.1-4.4c0.1-1.7-0.3-3.3-1.3-5l-1.3-2.3c-1.9-3.2-3.9-5.1-6.1-5.6c-0.5-0.1-1-0.2-1.5-0.2c-1.9,0-4.1,0.7-6.6,2.2
		c-3.2,1.9-5.2,4-5.7,6.2c-0.6,2.2,0.1,4.9,2,8l1.3,2.3c1,1.6,2.2,2.8,3.8,3.5c0.9,0.4,1.9,0.6,2.8,0.6c0.7,0,1.4-0.1,2.1-0.3
		l2.9-0.8l-2.1,2.2c-1.4,1.4-2.1,3-2.2,4.7c-0.1,1.7,0.4,3.6,1.6,5.6l2.2,3.7c1.9,3.2,4,5.1,6.1,5.6c0.5,0.1,1,0.2,1.5,0.2
		c1.9,0,4.2-0.8,6.8-2.3c3.3-1.9,5.2-4,5.8-6.3c0.6-2.2,0-4.9-1.9-8.1L548.3,634.3z M533.2,629.6c-0.5,0.3-1,0.5-1.6,0.5
		c-0.5,0-1-0.2-1.5-0.5c-0.5-0.3-1.3-1.1-3-4l-1.2-2c-1.2-2-1.8-3.5-2-4.4c-0.2-1.2,0.3-2.1,1.3-2.7c0.5-0.3,1-0.4,1.5-0.4
		c0.5,0,1.1,0.2,1.6,0.5c0.8,0.6,1.7,1.8,3,3.9l1.2,2c1.2,2,1.9,3.5,2,4.4C534.7,628.1,534.2,629,533.2,629.6z M544.6,648.9
		c-0.6,0.3-1.1,0.5-1.7,0.5c-0.5,0-1-0.1-1.5-0.4c-0.8-0.5-1.8-1.8-3.1-3.9l-2.2-3.8c-1.2-2.1-1.8-3.5-1.9-4.5
		c-0.1-0.8,0.1-2,1.5-2.8c0.6-0.3,1.1-0.5,1.7-0.5c0.5,0,1,0.1,1.5,0.4c0.8,0.5,1.8,1.7,3,3.9l2.2,3.8c1.2,2,1.8,3.4,1.9,4.4
		C546.2,647.3,545.7,648.2,544.6,648.9z"/>
	<polygon class="st0" points="255,224.5 235.1,199.4 262.8,218.3 272.3,210.8 243,190.7 233.9,165.7 224.9,172.8 234.3,198.4 
		218.2,178.1 209.1,185.3 245.9,231.7 	"/>
	<path class="st0" d="M278,203.9c3.5,1.4,7.9,0.6,13.2-2.4c5.3-3,8.3-6.4,8.9-10.2c0.6-3.8-1.1-9.2-5-16.2l-19.3-34.1l-10.7,6
		l20.7,36.4c1.9,3.3,2.8,5.6,2.9,6.9c0.1,1.3-0.6,2.3-1.9,3.1c-1.4,0.8-2.6,0.8-3.6,0.1c-1.1-0.7-2.6-2.7-4.4-6l-20.7-36.4l-10.6,6
		l19.3,34.1C270.7,198.2,274.5,202.5,278,203.9z"/>
	<path class="st0" d="M336.1,137c0.7,2.7,1.8,5,3.4,6.7c1.5,1.7,3.7,3.2,6.5,4.3l5.8,2.4c3.1,1.2,5.2,2.3,6.2,3.3
		c1,1,1.7,2.3,2.1,3.9l0.6,2.2c0.5,1.9,0.6,3.2,0.3,4c-0.3,0.8-1.1,1.4-2.3,1.7c-1.2,0.3-2.2,0.2-2.9-0.4s-1.3-1.8-1.8-3.5l-1.3-4.9
		l-11.8,3.1l1.1,4.2c1.4,5.2,3.5,8.5,6.3,10.2c2.8,1.6,6.9,1.8,12,0.4c5.1-1.3,8.7-3.5,10.8-6.6c2.1-3.1,2.6-6.9,1.4-11.3l-0.9-3.5
		c-0.5-1.8-1-3.4-1.7-4.6s-1.4-2.3-2.3-3.2c-1.2-1.2-3.2-2.3-6-3.4c-0.6-0.3-1.1-0.4-1.4-0.5l-5.8-2.4c-2.4-1-4.1-1.9-5.1-2.9
		c-1-0.9-1.7-2.1-2.1-3.6l-1-3.7c-0.4-1.6-0.5-2.7-0.2-3.4s0.9-1.2,2-1.5c1.1-0.3,1.9-0.2,2.5,0.3c0.6,0.5,1.1,1.5,1.5,3.1l1.3,5.1
		l11.5-3l-1.1-4.3c-1.2-4.5-3.2-7.6-6-9.3c-2.9-1.7-6.5-2-10.9-0.8c-4.7,1.2-8.1,3.4-10.2,6.5c-2.2,3.1-2.7,6.6-1.7,10.4L336.1,137z
		"/>
	<polygon class="st0" points="391.3,169.1 390.9,142.4 399.3,142.3 399.7,169 411.9,168.8 411,109.6 398.8,109.8 399.1,133.2 
		390.8,133.3 390.4,109.9 378.2,110.1 379.1,169.3 	"/>
	<path class="st0" d="M432.5,160.3l10.2,1.3l0,12.5l11.8,1.5l-2.3-60l-15.6-2L418.2,171l10.7,1.4L432.5,160.3z M442.7,124.7l0.3,0
		l-0.3,27.7l-7.5-0.9L442.7,124.7z"/>
	<polygon class="st0" points="522.4,206.4 536,184.8 546,191.1 550.9,183.4 540.9,177.1 549.1,164.1 559.8,170.8 564.6,163.1 
		543.7,149.8 512.1,199.9 	"/>
	<path class="st0" d="M549.4,198.5c-5.4,6-8.2,10.9-8.4,14.8c-0.2,3.8,2,7.8,6.6,12c4.3,3.9,8.1,5.6,11.5,5.2
		c3.4-0.4,7.3-2.9,11.6-7.8l4.7-5l-8.9-7.8l-4.6,4.9c-2.1,2.4-3.8,3.8-5,4.2c-1.2,0.5-2.3,0.2-3.4-0.8c-1.1-1-1.5-2.2-1.2-3.5
		c0.3-1.3,1.8-3.3,4.3-6.1l16.4-18.2c2.5-2.8,4.4-4.4,5.6-4.9c1.2-0.5,2.4-0.2,3.5,0.8c1.1,1,1.5,2.1,1.2,3.4
		c-0.3,1.3-1.8,3.3-4.3,6.1l-4.7,4.8l9.1,7.6l5.1-5.2c4.3-4.8,6.4-8.9,6.4-12.3c0-3.4-2.1-7.1-6.4-10.9c-4.6-4.2-8.8-6-12.6-5.4
		c-3.8,0.6-8.4,3.9-13.7,9.8L549.4,198.5z"/>
	<polygon class="st0" points="318.4,184.1 305.7,148.7 326.7,180.5 338,177.6 319.2,124.2 308.7,128 320.8,160.9 299.5,130.9 
		289.9,135 308.7,187.8 	"/>
	<polygon class="st0" points="486.2,143.4 482.2,184.5 494.2,188.5 513.7,133.8 502.3,128.9 491.1,161.3 493.3,125.8 481.6,121.8 
		462.1,177.1 472.9,181.1 	"/>
	<polygon class="st0" points="324.1,666.3 324.1,633.2 316,631.8 302,675.8 310.7,678.9 319.3,646.8 319.3,681.4 328,683.3 
		341.6,638.2 333.5,636.2 	"/>
</g>
</svg>
