<?xml version="1.0" encoding="utf-8"?>
<!-- Generator: Adobe Illustrator 22.1.0, SVG Export Plug-In . SVG Version: 6.00 Build 0)  -->
<svg version="1.1" id="图层_1" xmlns="http://www.w3.org/2000/svg" xmlns:xlink="http://www.w3.org/1999/xlink" x="0px" y="0px"
	 viewBox="0 0 800 800" style="enable-background:new 0 0 800 800;" xml:space="preserve">
<style type="text/css">
	.st0{fill:#242362;}
</style>
<path class="st0" d="M434,571.4c1.1-0.5,2-1.3,2.6-2.4c0.6-1.1,0.9-2.3,0.9-3.5c0-1.8-0.6-3.3-1.7-4.5c-1.1-1.1-2.9-1.6-5.3-1.6
	c-4.2,0.2-6.2,0.2-10.4,0.3c0,5.1,0,7.7,0,12.8c3.7-0.1,5.6-0.2,9.3-0.3C431.3,572.3,432.9,571.9,434,571.4z"/>
<path class="st0" d="M401.5,577.3c-1.1-0.4-2.7-0.6-4.8-0.7c-3,0-4.6,0-7.6-0.1c0,5.3,0,8,0,13.3c3.3,0,4.9,0.1,8.2,0.1
	c1.4,0,2.4-0.1,3-0.2c1-0.2,1.8-0.6,2.5-1.1c0.7-0.5,1.2-1.2,1.7-2.2c0.4-0.9,0.7-2,0.7-3.3c0-1.4-0.3-2.7-0.9-3.8
	C403.5,578.4,402.6,577.7,401.5,577.3z"/>
<path class="st0" d="M389.1,560.2c0,4.7,0,7,0,11.7c2.8,0,4.3,0.1,7.1,0.1c1.9,0,3.3-0.1,4.1-0.4c1.1-0.4,1.9-1,2.5-1.9
	c0.6-0.9,0.8-2,0.8-3.4c0-1.3-0.3-2.4-0.8-3.4c-0.5-1-1.3-1.6-2.2-2c-1-0.4-2.6-0.5-5-0.6C393,560.3,391.7,560.3,389.1,560.2z"/>
<path class="st0" d="M352.8,571.4c2,0.1,3.5,0,4.7-0.5c1.1-0.4,2-1.2,2.6-2.2c0.6-1,0.9-2.2,0.9-3.4c0-1.8-0.6-3.4-1.7-4.6
	c-1.1-1.2-2.9-1.9-5.3-2.1c-4.2-0.3-6.2-0.4-10.4-0.7c0,5.1,0,7.7,0,12.8C347.2,571,349.1,571.2,352.8,571.4z"/>
<path class="st0" d="M431,473.4c0,0,0.2-0.6,0.6-1.8C431.3,472.2,431.2,472.8,431,473.4z"/>
<path class="st0" d="M598.1,432.1c1.9-10.3,32.5-224.9,32.5-224.9c-204.3,18.4-244.4-98.7-244.4-98.7
	c34.8,137.3,206.9,122,206.9,122s-8.4,53.6-16.1,110.9s-9.9,84.2-20.7,107.9c-8.1,17.8-33.4,55.6-45.5,73.2
	c17.1-3.4,33-7.4,47.6-11.9C570.9,487.8,596.7,439.9,598.1,432.1z"/>
<path class="st0" d="M463.4,529.8c53.1-58.7,71.6-144.5,73.2-159c1.7-16.1,5.2-109.6,5.2-109.6c-66.6-9.8-114.2-51.6-114.2-51.6
	c17.8,35.6,76.3,62,76.3,62s1.1,88.4,0,100.4c-1.1,12-8,51.6-19.2,89.5c-7.2,24.4-25.9,52.8-38.4,70
	C452.1,530.9,457.8,530.4,463.4,529.8z"/>
<path class="st0" d="M345.3,177.8c-88.7,49.7-185.1,36.7-185.1,36.7l7.3,39.7c-17.5-3-28.8-3.7-28.8-3.7
	c20.7,26.8,25.2,59.7,25.2,59.7c3.1-11.5,1.5-27.5,1.5-27.5c166,16.8,189,102.5,189,102.5c-28.1-30.2-115.7-35.5-166.8-35.8
	c-1.2-15.6-5.1-41.1-5.1-41.1c23-2.9,75.2,2.9,75.2,2.9c-29.8-13.8-83.2-8.6-83.2-8.6c5.7,12.6,6.3,46.8,6.3,46.8l0,0
	c-18.9,0-31.4,0.7-31.4,0.7c20.7,24.5,32.9,58.9,32.9,58.9l-5.4-35.2c163.7-26.8,193.6,38.3,193.6,38.3
	c-16.8-108.4-133.9-144.6-194.9-156.2l-4.8-30c89.1,6.5,154.5-16.1,154.5-16.1c130.8,159,81.1,279.8,54.7,323.3
	c3.8,0.1,7.7,0.2,11.6,0.3C512.2,362.7,345.3,177.8,345.3,177.8z"/>
<path class="st0" d="M200.6,428.3l-5.2-35.1c0,0,15.7-6.1,63.5-4.6c0,0-19.9-10.3-71.5-0.8l7,43.2c-6,2.6-12.2,5.5-18.6,8.6
	c0,0,20.1,8.6,44.8,43.6c0,0-8.5-24.4-13.4-29c0,0,87-66.5,154.3-8.7C361.4,445.5,337.8,370.7,200.6,428.3z"/>
<path class="st0" d="M258.4,512.5l26.3-14.8l-4.6-25.5h-28.9c0,0-9.1,12.6-12.2,24C239,496.1,250.4,509.8,258.4,512.5z"/>
<path class="st0" d="M340.3,505l-11.5-14.3L309.3,505v23h18.9C332.9,522.8,340.3,505,340.3,505z"/>
<path class="st0" d="M323.6,467.7c1.9-1.6,3.8-3.3,5.7-4.9c-11.5-10.4-23.7-16.6-37.2-16.9c2.6,4.1,5.1,8.2,7.7,12.3
	C307,460.4,315.3,464,323.6,467.7z"/>
<path class="st0" d="M264,451.4l-1-0.5c0,0-13.1,3.4-26.2,13.1l2.2,2.6C239,466.6,258.6,453.4,264,451.4z"/>
<path class="st0" d="M348.8,630.3c-1-0.4-3.2-0.8-6.5-1.1c-2.4-0.2-3.6-0.3-5.9-0.6c0,3.9,0,5.8,0,9.6c2.7,0.3,4.1,0.4,6.8,0.7
	c2.7,0.2,4.3,0.3,5.1,0.2c1.1-0.1,2-0.5,2.7-1.2c0.7-0.7,1-1.7,1-3c0-1.1-0.3-2-0.8-2.8C350.6,631.4,349.8,630.8,348.8,630.3z"/>
<path class="st0" d="M235.8,595c-3-0.8-5.4-0.5-7.2,1.1c-1.8,1.5-2.7,4.4-2.7,8.5c0,4.1,0.9,7.5,2.8,10.1c1.9,2.6,4.2,4.4,7.1,5.2
	c2.9,0.8,5.2,0.4,7.1-1.2c1.8-1.6,2.8-4.5,2.8-8.7c0-4.1-0.9-7.4-2.7-10C241.1,597.5,238.7,595.8,235.8,595z"/>
<path class="st0" d="M375.2,632.9c4,0.2,6,0.2,10,0.3c-2-5.4-3-8.1-5-13.5C378.2,625,377.2,627.6,375.2,632.9z"/>
<path class="st0" d="M274.7,604.4c-3-0.6-5.4-0.1-7.2,1.5c-1.8,1.7-2.7,4.6-2.7,8.7c0,4.1,0.9,7.4,2.8,9.9c1.9,2.5,4.3,4.1,7.2,4.7
	c2.9,0.6,5.3,0,7.1-1.7c1.9-1.7,2.8-4.7,2.8-8.9c0-4.1-0.9-7.4-2.7-9.8C280.1,606.5,277.7,605,274.7,604.4z"/>
<path class="st0" d="M346.5,623.5c1.3,0,2.3-0.4,3-1c0.7-0.7,1.1-1.6,1.1-2.7c0-1.1-0.3-2-0.9-2.8c-0.6-0.7-1.6-1.3-2.8-1.5
	c-0.7-0.1-2.8-0.4-6.3-0.7c-1.7-0.2-2.5-0.2-4.2-0.4c0,3.3,0,5,0,8.3c1.9,0.2,2.9,0.3,4.8,0.5C344,623.4,345.8,623.5,346.5,623.5z"
	/>
<path class="st0" d="M600.3,608.5c1-0.6,1.9-1.3,2.6-2.3c0.7-1,1-2.1,1-3.4c0-1.1-0.3-1.9-0.8-2.5c-0.5-0.6-1.3-0.9-2.2-0.9
	c-1,0-3.1,0.5-6.3,1.6c-2.3,0.8-3.4,1.1-5.8,1.9c0,3.9,0,5.8,0,9.6c2.6-0.8,4-1.3,6.6-2.1C598,609.5,599.6,608.8,600.3,608.5z"/>
<path class="st0" d="M598.7,593.5c1.2-0.6,2.2-1.3,2.9-2.3c0.7-1,1-2,1-3.2c0-1.1-0.3-1.9-0.9-2.4s-1.5-0.6-2.7-0.4
	c-0.7,0.2-2.7,0.8-6.1,1.9c-1.6,0.5-2.5,0.8-4.1,1.3c0,3.3,0,5,0,8.3c1.9-0.6,2.8-0.9,4.7-1.5C596.3,594.4,598,593.8,598.7,593.5z"
	/>
<path class="st0" d="M114.3,456.2L159,611.1c0,0,89.5,56.2,241,56.2s242.1-56.2,242.1-56.2l44.8-154.9c0,0-94.1,88.4-286.9,88.4
	S114.3,456.2,114.3,456.2z M339.1,553.3c5.8,0.5,8.7,0.7,14.5,1c2.9,0.2,5.1,0.6,6.7,1.4c1.5,0.8,2.7,2.1,3.6,3.9
	c0.9,1.8,1.4,3.8,1.4,5.9c0,2.8-0.8,5-2.3,6.9c-1.5,1.8-3.8,2.9-7,3.2c1.1,0.7,2,1.4,2.6,2.1c1.3,1.4,2.5,3.2,3.6,5.4
	c2.3,4.3,3.4,6.5,5.7,10.8c-2.2-0.1-3.3-0.1-5.5-0.2c-1.7-3.3-2.6-5-4.3-8.3c-1.3-2.4-2.3-4.2-3.1-5.5c-0.8-1.3-1.6-2.2-2.2-2.7
	c-0.6-0.5-1.3-0.9-2-1.2c-0.5-0.2-1.3-0.3-2.4-0.3c-2-0.1-3-0.2-5-0.4c0,6.9,0,10.3,0,17.2c-1.7-0.1-2.6-0.2-4.3-0.3
	C339.1,579.2,339.1,566.2,339.1,553.3z M308.7,550.2c9.4,1.1,14.2,1.6,23.6,2.5c0,1.8,0,2.7,0,4.6c-7.7-0.7-11.6-1.1-19.3-2
	c0,4.8,0,7.1,0,11.9c7.2,0.8,10.8,1.2,18.1,1.8c0,1.8,0,2.7,0,4.6c-7.2-0.7-10.9-1-18.1-1.8c0,5.3,0,7.9,0,13.2c8,0.9,12,1.3,20.1,2
	c0,1.8,0,2.7,0,4.6c-9.8-0.9-14.7-1.4-24.4-2.5C308.7,576.1,308.7,563.2,308.7,550.2z M279.6,546.2c3.4,11.8,5.1,17.7,8.4,29.5
	c0.7,2.4,1.2,4.6,1.7,6.6c0.5-2,1.1-4.1,1.8-6.1c3.5-10.8,5.3-16.2,8.8-27c1.8,0.2,2.6,0.3,4.4,0.6c-4.2,12.4-8.5,24.8-12.8,37.1
	c-1.8-0.3-2.6-0.4-4.4-0.6c-4.2-13.6-8.4-27.2-12.6-40.8C276.8,545.8,277.8,545.9,279.6,546.2z M248.2,540.5
	c9.3,1.9,14,2.7,23.3,4.3c0,1.8,0,2.7,0,4.6c-7.7-1.3-11.5-2-19.1-3.5c0,4.8,0,7.1,0,11.9c7.1,1.4,10.7,2.1,17.9,3.3
	c0,1.8,0,2.7,0,4.6c-7.2-1.2-10.7-1.9-17.9-3.3c0,5.3,0,7.9,0,13.2c7.9,1.6,11.9,2.3,19.8,3.6c0,1.8,0,2.7,0,4.6
	c-9.7-1.6-14.5-2.5-24.1-4.5C248.2,566.4,248.2,553.5,248.2,540.5z M214.1,589.1c-6.8-2.1-10.2-3.3-17-5.6c0,3.4,0,5.1,0,8.5
	c5.9,2,8.8,3,14.7,4.9c0,2.4,0,3.7,0,6.1c-5.9-1.9-8.8-2.9-14.7-4.9c0,6.1,0,9.2,0,15.3c-2.8-1-4.2-1.5-7.1-2.5c0-12,0-24.1,0-36.1
	c9.6,3.5,14.4,5.1,24.1,8.1C214.1,585.4,214.1,586.7,214.1,589.1z M248.4,624.5c-3.1,2.5-7.3,3.1-12.6,1.6
	c-5.3-1.5-9.5-4.3-12.6-8.5c-3.1-4.2-4.7-9.2-4.7-14.9c0-3.7,0.5-6.6,1.6-8.8c0.8-1.6,1.9-2.9,3.3-4c1.4-1,2.9-1.7,4.6-1.9
	c2.2-0.3,4.8-0.1,7.7,0.7c5.2,1.4,9.5,4.2,12.6,8.3c3.2,4.1,4.8,9.1,4.8,14.9C253.1,617.8,251.5,622,248.4,624.5z M287.5,633
	c-3.2,2.7-7.4,3.5-12.7,2.4c-5.4-1.1-9.6-3.7-12.8-7.7c-3.2-4-4.7-8.9-4.7-14.6c0-3.7,0.5-6.6,1.6-8.9c0.8-1.6,1.9-3,3.3-4.2
	c1.4-1.1,3-1.9,4.6-2.2c2.2-0.5,4.8-0.4,7.8,0.2c5.3,1.1,9.6,3.6,12.8,7.4c3.2,3.9,4.8,8.8,4.8,14.6
	C292.2,626,290.6,630.3,287.5,633z M324.2,613c-4.3-0.5-6.5-0.8-10.8-1.4c0,12,0,18,0,30c-2.9-0.4-4.4-0.6-7.3-1.1c0-12,0-18,0-30
	c-4.3-0.7-6.5-1-10.8-1.8c0-2.4,0-3.7,0-6.1c11.5,2,17.3,2.8,28.9,4.3C324.2,609.4,324.2,610.6,324.2,613z M358.4,640.6
	c-0.8,1.5-1.8,2.7-3.2,3.5c-1.3,0.8-3,1.3-4.9,1.3c-1.2,0-4.2-0.1-8.9-0.5c-5-0.5-7.5-0.7-12.4-1.3c0-12,0-24.1,0-36.1
	c5.8,0.7,8.7,1,14.6,1.5c2.9,0.3,5,0.6,6.5,0.9c1.4,0.4,2.7,0.9,3.8,1.8c1.1,0.8,2.1,1.9,2.8,3.2s1.1,2.7,1.1,4.3
	c0,1.7-0.5,3.2-1.4,4.6c-0.9,1.3-2.2,2.3-3.8,2.9c2.2,0.8,3.9,2,5.1,3.6c1.2,1.6,1.8,3.5,1.8,5.6
	C359.5,637.5,359.2,639.1,358.4,640.6z M390.8,647.6c-1.3-3.3-1.9-4.9-3.2-8.3c-5.9-0.1-8.8-0.2-14.6-0.5c-1.2,3.2-1.8,4.8-3,8.1
	c-3.1-0.2-4.7-0.2-7.8-0.4c4.8-11.8,9.5-23.6,14.3-35.4c3.1,0.1,4.7,0.2,7.8,0.3c4.9,12.1,9.8,24.2,14.7,36.3
	C395.6,647.7,394,647.7,390.8,647.6z M540.5,631.7c-10.1,2.3-15.2,3.4-25.4,5.3c0-11.9,0-23.9,0-35.8c2.9-0.5,4.4-0.8,7.3-1.4
	c0,11.9,0,17.8,0,29.7c7.2-1.4,10.9-2.2,18.1-3.9C540.5,628.1,540.5,629.3,540.5,631.7z M581.7,584.7c5.7-1.7,8.5-2.6,14.1-4.5
	c2.8-0.9,4.9-1.5,6.2-1.7c1.4-0.2,2.6-0.2,3.7,0.2c1.1,0.4,2,1.1,2.7,2.1s1.1,2.3,1.1,3.8c0,1.7-0.4,3.4-1.3,5.1
	c-0.9,1.7-2.1,3.2-3.6,4.4c2.1-0.1,3.8,0.4,4.9,1.5c1.1,1.1,1.7,2.7,1.7,4.8c0,1.6-0.4,3.4-1.1,5.2c-0.7,1.8-1.8,3.4-3,4.8
	c-1.3,1.4-2.9,2.5-4.7,3.4c-1.2,0.5-4,1.6-8.6,3.1c-4.8,1.6-7.2,2.3-12,3.8C581.7,608.7,581.7,596.7,581.7,584.7z M555.4,621.2
	c1.2,0.6,2.8,0.6,4.8,0.1c2-0.5,3.6-1.4,4.6-2.5c1-1.1,1.7-2.3,1.9-3.6c0.2-1.3,0.3-3.4,0.3-6.2c0-8,0-12,0-20
	c2.9-0.8,4.3-1.2,7.2-2c0,7.6,0,11.4,0,18.9c0,4.3-0.2,7.4-0.6,9.3c-0.4,1.9-1.1,3.6-2.1,5.1c-1,1.5-2.4,2.9-4.2,4.1
	c-1.7,1.2-4,2.2-6.9,3c-3.4,0.9-6,1.2-7.8,0.8c-1.8-0.4-3.2-1-4.2-2.1c-1-1-1.7-2.2-2-3.5c-0.5-1.9-0.7-4.9-0.7-9
	c0-7.7,0-11.5,0-19.2c2.9-0.7,4.3-1.1,7.2-1.8c0,7.8,0,11.7,0,19.5c0,3.1,0.1,5.1,0.3,6C553.4,619.6,554.2,620.6,555.4,621.2z
	 M527.3,545.3c10.3-1.7,15.4-2.7,25.6-4.7c0,1.8,0,2.7,0,4.6c-4.3,0.9-6.4,1.3-10.7,2.1c0,11.4,0,22.8,0,34.2
	c-1.7,0.3-2.6,0.5-4.3,0.8c0-11.4,0-22.8,0-34.2c-4.3,0.8-6.4,1.1-10.7,1.9C527.3,548,527.3,547.1,527.3,545.3z M497.1,549.7
	c1.7-0.2,2.6-0.3,4.3-0.6c0,6.4,0,9.6,0,15.9c6.8-0.9,10.2-1.4,16.9-2.4c0-6.4,0-9.6,0-15.9c1.7-0.3,2.6-0.4,4.3-0.7
	c0,12.9,0,25.9,0,38.8c-1.7,0.3-2.6,0.4-4.3,0.7c0-7.3,0-11,0-18.3c-6.8,1-10.1,1.5-16.9,2.4c0,7.3,0,11,0,18.3
	c-1.7,0.2-2.6,0.3-4.3,0.6C497.1,575.6,497.1,562.6,497.1,549.7z M504.9,606.1c1.6,1.3,2.9,3.3,3.7,6c-2.9,1.2-4.3,1.8-7.2,3
	c-0.4-1.8-1.3-3.1-2.7-4c-1.4-0.9-3-1.1-5-0.9c-2.7,0.4-4.9,1.7-6.6,3.8s-2.5,5.4-2.5,9.7c0,4.6,0.8,7.7,2.5,9.4
	c1.7,1.7,3.8,2.4,6.4,2c1.9-0.3,3.6-1.2,5-2.6c1.4-1.5,2.4-3.6,3-6.3c2.8,0.4,4.3,0.6,7.1,1c-1.1,4.1-2.9,7.4-5.4,9.7
	c-2.5,2.3-5.7,3.8-9.6,4.4c-4.8,0.7-8.8-0.4-11.9-3.2c-3.1-2.9-4.7-7.2-4.7-12.8c0-6,1.6-10.9,4.7-14.6c3.1-3.7,7.2-6,12.3-6.7
	C498.5,603.3,502.1,604,504.9,606.1z M462.3,562.3c1.3-3.4,3.3-6,5.8-7.8c2.5-1.8,5.4-2.9,8.6-3.2c2.4-0.2,4.5,0,6.4,0.7
	c1.9,0.7,3.4,1.8,4.5,3.3c1.1,1.5,1.9,3.5,2.5,6.1c-1.6,0.7-2.3,1-3.9,1.7c-0.5-1.9-1.1-3.4-1.8-4.5c-0.7-1.1-1.8-1.8-3.1-2.4
	c-1.4-0.5-2.9-0.7-4.5-0.6c-2,0.2-3.7,0.7-5.1,1.6c-1.4,0.8-2.6,1.9-3.5,3.1c-0.9,1.2-1.6,2.6-2.1,4c-0.8,2.5-1.3,5.1-1.3,7.9
	c0,3.5,0.5,6.3,1.5,8.6c1,2.2,2.5,3.8,4.4,4.8c1.9,1,4,1.3,6.1,1.1c1.9-0.2,3.7-0.8,5.5-1.8c1.8-1,3.1-2.1,4.1-3.2
	c0-2.9,0-4.3,0-7.2c-3.8,0.4-5.8,0.6-9.6,1c0-1.8,0-2.7,0-4.6c5.5-0.6,8.3-0.9,13.8-1.5c0,5.8,0,8.6,0,14.4c-2.1,2.3-4.3,4-6.6,5.3
	c-2.3,1.3-4.6,2-7,2.2c-3.2,0.3-6.1-0.2-8.8-1.6c-2.6-1.4-4.6-3.6-6-6.6c-1.3-3-2-6.4-2-10.2C460.3,569.2,461,565.7,462.3,562.3z
	 M459.9,644.9c-10.3,1-15.4,1.4-25.7,1.9c0-11.9,0-23.9,0-35.8c3-0.2,4.4-0.2,7.4-0.4c0,11.9,0,17.8,0,29.7c7.3-0.5,11-0.8,18.3-1.5
	C459.9,641.2,459.9,642.4,459.9,644.9z M449.4,554.2c1.7-0.1,2.6-0.2,4.3-0.3c0,12.9,0,25.9,0,38.8c-1.7,0.1-2.6,0.2-4.3,0.3
	C449.4,580.1,449.4,567.1,449.4,554.2z M415.6,555.6c5.8-0.1,8.7-0.2,14.6-0.4c2.9-0.1,5.2,0.1,6.7,0.8c1.5,0.6,2.7,1.8,3.6,3.5
	c0.9,1.7,1.4,3.6,1.4,5.8c0,2.8-0.8,5.1-2.3,7.1c-1.5,2-3.8,3.3-7,3.9c1.2,0.6,2,1.2,2.6,1.8c1.3,1.3,2.5,3,3.6,5
	c2.3,4.1,3.4,6.2,5.7,10.3c-2.2,0.1-3.3,0.2-5.5,0.3c-1.7-3.1-2.6-4.7-4.3-7.9c-1.3-2.3-2.3-4-3.1-5.2c-0.8-1.2-1.6-2-2.2-2.5
	c-0.6-0.5-1.3-0.8-2-1c-0.5-0.1-1.3-0.1-2.4-0.1c-2,0.1-3,0.1-5,0.1c0,6.9,0,10.3,0,17.2c-1.7,0-2.6,0.1-4.3,0.1
	C415.6,581.5,415.6,568.5,415.6,555.6z M428.7,641c0,2.4,0,3.6,0,6.1c-10.3,0.5-15.5,0.6-25.8,0.6c0-11.9,0-23.9,0-35.8
	c3,0,4.4,0,7.4-0.1c0,11.9,0,17.8,0,29.7C417.7,641.4,421.3,641.3,428.7,641z M406.7,560.5c0.9,1.6,1.3,3.3,1.3,5.1
	c0,1.7-0.4,3.2-1.1,4.7c-0.8,1.5-1.9,2.7-3.5,3.6c2,0.7,3.5,1.8,4.6,3.5c1.1,1.6,1.6,3.6,1.6,5.9c0,1.8-0.3,3.5-1,5.1
	c-0.7,1.6-1.5,2.8-2.4,3.6c-1,0.9-2.2,1.5-3.6,1.9c-1.4,0.4-3.2,0.7-5.3,0.6c-5,0-7.5-0.1-12.5-0.2c0-12.9,0-25.9,0-38.8
	c4.9,0.1,7.4,0.1,12.3,0.2c2.5,0,4.5,0.4,6,1.2C404.6,557.7,405.8,558.9,406.7,560.5z"/>
<path class="st0" d="M164.9,482.5C133.9,355.8,95.5,200.7,90.2,190c0,0,28.7,4.6,51.1-8.6C163.6,168.2,284.1,112,400,86.7
	c115.9,25.2,236.4,81.5,258.8,94.7c22.4,13.2,51.1,8.6,51.1,8.6c-5.4,10.8-43.9,166.2-74.8,293c5.9-3.2,11.2-6.3,16-9.3
	c53-194,93.2-317,93.2-317c-60.8,16.1-71.1,4.6-95.2-9.2C519.3,77.5,400,50,400,50s-119.3,27.5-249,97.5
	c-24.1,13.8-34.4,25.2-95.2,9.2c0,0,40.1,122.7,93.1,316.3C153.6,476.1,158.9,479.2,164.9,482.5z"/>
<path class="st0" d="M595.1,647.9C505.6,703,400,727,400,727S294.4,703,204.9,647.9c0,0-0.7-3-2-8.5c-4-1.6-7.8-3.1-11.4-4.6
	c1.3,4.9,2.5,9.9,3.8,14.9c0,0,44.4,42.2,204.7,100.3c160.3-58.1,204.7-100.3,204.7-100.3c1.2-4.9,2.5-9.7,3.7-14.5
	c-3.5,1.5-7.3,3-11.4,4.5C595.8,645,595.1,647.9,595.1,647.9z"/>
</svg>
