<?xml version="1.0" encoding="utf-8"?>
<!-- Generator: Adobe Illustrator 22.1.0, SVG Export Plug-In . SVG Version: 6.00 Build 0)  -->
<svg version="1.1" id="图层_1" xmlns="http://www.w3.org/2000/svg" xmlns:xlink="http://www.w3.org/1999/xlink" x="0px" y="0px"
	 viewBox="0 0 800 800" style="enable-background:new 0 0 800 800;" xml:space="preserve">
<style type="text/css">
	.st0{fill:#231815;}
	.st1{fill-rule:evenodd;clip-rule:evenodd;fill:#231815;}
	.st2{fill-rule:evenodd;clip-rule:evenodd;fill:#D7000F;}
	.st3{fill:url(#SVGID_1_);}
	.st4{fill:url(#SVGID_2_);}
	.st5{fill:url(#SVGID_3_);}
	.st6{fill:url(#SVGID_4_);}
	.st7{fill:url(#SVGID_5_);}
</style>
<g>
	<path class="st0" d="M82.7,556.7c-0.5,0.2-0.9,0.4-1.2,0.6c-0.4,0.2-0.9,0.4-1.5,0.5c-0.5,0.2-1.1,0.3-1.7,0.4
		c-0.6,0.1-1.2,0.2-2,0.2c-1.3,0-2.6-0.2-3.7-0.6c-1.1-0.4-2.1-1-2.9-1.8c-0.8-0.8-1.4-1.8-1.9-3c-0.4-1.2-0.7-2.6-0.7-4.2
		c0-1.5,0.2-2.9,0.6-4.1c0.4-1.2,1.1-2.2,1.9-3.1c0.8-0.8,1.7-1.4,2.9-1.8c1.1-0.4,2.4-0.6,3.7-0.6c1,0,2,0.1,3,0.4s2.1,0.7,3.3,1.3
		v2.9h-0.2c-1-0.9-2-1.5-3-1.9c-1-0.4-2.1-0.6-3.2-0.6c-0.9,0-1.8,0.2-2.5,0.5c-0.8,0.3-1.4,0.8-2,1.4c-0.6,0.6-1,1.4-1.3,2.4
		c-0.3,1-0.5,2.1-0.5,3.3c0,1.3,0.2,2.4,0.5,3.4c0.4,0.9,0.8,1.7,1.4,2.3c0.6,0.6,1.3,1.1,2,1.4s1.6,0.4,2.5,0.4
		c1.2,0,2.3-0.2,3.3-0.6c1-0.4,2-1,2.9-1.8h0.2V556.7z"/>
	<path class="st0" d="M100.4,558.1h-2.5V549h-9.3v9.1h-2.5v-18.6h2.5v7.3h9.3v-7.3h2.5V558.1z"/>
	<path class="st0" d="M112,558.1h-7.3v-1.9h2.4v-14.8h-2.4v-1.9h7.3v1.9h-2.4v14.8h2.4V558.1z"/>
	<path class="st0" d="M130.3,558.1h-3.1l-8.8-16.6v16.6h-2.3v-18.6h3.8l8,15.2v-15.2h2.3V558.1z"/>
	<path class="st0" d="M147.5,558.1h-12.2v-18.6h12.2v2.2h-9.8v5.1h9.8v2.2h-9.8v6.9h9.8V558.1z"/>
	<path class="st0" d="M164.9,552.8c0,0.7-0.2,1.4-0.5,2.1c-0.3,0.7-0.8,1.3-1.4,1.8c-0.7,0.5-1.4,0.9-2.3,1.2
		c-0.9,0.3-2,0.4-3.2,0.4c-1.3,0-2.5-0.1-3.6-0.4s-2.2-0.6-3.3-1.1v-3.1h0.2c0.9,0.8,2,1.4,3.3,1.8s2.4,0.6,3.5,0.6
		c1.5,0,2.7-0.3,3.6-0.9c0.9-0.6,1.3-1.3,1.3-2.3c0-0.8-0.2-1.4-0.6-1.8c-0.4-0.4-1-0.7-1.8-0.9c-0.6-0.2-1.3-0.3-2-0.4
		c-0.7-0.1-1.5-0.2-2.3-0.4c-1.6-0.3-2.9-0.9-3.7-1.8s-1.2-1.9-1.2-3.3c0-1.6,0.7-2.8,2-3.8s3-1.5,5-1.5c1.3,0,2.5,0.1,3.6,0.4
		c1.1,0.2,2.1,0.6,2.9,0.9v2.9H164c-0.7-0.6-1.6-1.1-2.8-1.5c-1.2-0.4-2.3-0.6-3.5-0.6c-1.3,0-2.4,0.3-3.2,0.8s-1.2,1.3-1.2,2.1
		c0,0.8,0.2,1.4,0.6,1.8c0.4,0.4,1.1,0.8,2.1,1c0.5,0.1,1.3,0.3,2.3,0.4c1,0.2,1.8,0.3,2.5,0.5c1.4,0.4,2.4,0.9,3.1,1.7
		C164.6,550.4,164.9,551.4,164.9,552.8z"/>
	<path class="st0" d="M181.1,558.1h-12.2v-18.6h12.2v2.2h-9.8v5.1h9.8v2.2h-9.8v6.9h9.8V558.1z"/>
	<path class="st0" d="M205.9,541.7h-9.4v5.2h8.1v2.2h-8.1v8.9H194v-18.6h11.9V541.7z"/>
	<path class="st0" d="M222.6,541.6c0.8,0.8,1.3,1.9,1.7,3.1c0.4,1.2,0.6,2.6,0.6,4.1c0,1.5-0.2,2.9-0.6,4.1c-0.4,1.2-1,2.2-1.7,3
		c-0.8,0.8-1.7,1.5-2.7,1.9c-1,0.4-2.2,0.6-3.6,0.6c-1.3,0-2.5-0.2-3.6-0.6c-1.1-0.4-2-1.1-2.7-1.9c-0.7-0.8-1.3-1.8-1.7-3
		c-0.4-1.2-0.6-2.6-0.6-4.1c0-1.5,0.2-2.9,0.6-4.1c0.4-1.2,1-2.2,1.7-3.1c0.7-0.8,1.6-1.4,2.7-1.9s2.3-0.6,3.5-0.6
		c1.3,0,2.5,0.2,3.6,0.7C220.9,540.2,221.8,540.8,222.6,541.6z M222.4,548.8c0-2.4-0.5-4.3-1.6-5.6c-1.1-1.3-2.6-2-4.4-2
		c-1.9,0-3.4,0.7-4.4,2c-1.1,1.3-1.6,3.2-1.6,5.6c0,2.4,0.5,4.3,1.6,5.6c1.1,1.3,2.6,1.9,4.4,1.9c1.8,0,3.3-0.6,4.4-1.9
		C221.8,553.1,222.4,551.2,222.4,548.8z"/>
	<path class="st0" d="M242.7,541.6c0.8,0.8,1.3,1.9,1.7,3.1c0.4,1.2,0.6,2.6,0.6,4.1c0,1.5-0.2,2.9-0.6,4.1c-0.4,1.2-1,2.2-1.7,3
		c-0.8,0.8-1.7,1.5-2.7,1.9c-1,0.4-2.2,0.6-3.6,0.6c-1.3,0-2.5-0.2-3.6-0.6c-1.1-0.4-2-1.1-2.7-1.9c-0.7-0.8-1.3-1.8-1.7-3
		c-0.4-1.2-0.6-2.6-0.6-4.1c0-1.5,0.2-2.9,0.6-4.1c0.4-1.2,1-2.2,1.7-3.1c0.7-0.8,1.6-1.4,2.7-1.9s2.3-0.6,3.5-0.6
		c1.3,0,2.5,0.2,3.6,0.7C241.1,540.2,242,540.8,242.7,541.6z M242.5,548.8c0-2.4-0.5-4.3-1.6-5.6c-1.1-1.3-2.6-2-4.4-2
		c-1.9,0-3.4,0.7-4.4,2c-1.1,1.3-1.6,3.2-1.6,5.6c0,2.4,0.5,4.3,1.6,5.6c1.1,1.3,2.6,1.9,4.4,1.9c1.8,0,3.3-0.6,4.4-1.9
		C241.9,553.1,242.5,551.2,242.5,548.8z"/>
	<path class="st0" d="M261.6,541.7h-6.6v16.4h-2.5v-16.4h-6.6v-2.2h15.7V541.7z"/>
	<path class="st0" d="M278.1,552.4c0,0.9-0.2,1.7-0.5,2.4c-0.3,0.7-0.8,1.3-1.4,1.7c-0.7,0.5-1.5,0.9-2.3,1.2
		c-0.8,0.2-1.9,0.3-3.2,0.3h-6.6v-18.6h5.5c1.4,0,2.4,0,3,0.1c0.7,0.1,1.3,0.3,1.9,0.6c0.7,0.4,1.2,0.8,1.5,1.4
		c0.3,0.6,0.5,1.2,0.5,2c0,0.9-0.2,1.6-0.7,2.3s-1,1.1-1.8,1.5v0.1c1.3,0.3,2.2,0.8,3,1.7S278.1,551.1,278.1,552.4z M273.9,544
		c0-0.4-0.1-0.8-0.2-1.1c-0.1-0.3-0.4-0.6-0.7-0.7c-0.4-0.2-0.9-0.4-1.4-0.4c-0.6-0.1-1.2-0.1-2.1-0.1h-2.9v5.4h3.2
		c0.8,0,1.4,0,1.8-0.1c0.5-0.1,0.9-0.2,1.3-0.5c0.4-0.2,0.7-0.6,0.8-1S273.9,544.5,273.9,544z M275.5,552.5c0-0.7-0.1-1.3-0.3-1.8
		c-0.2-0.4-0.6-0.8-1.2-1.1c-0.4-0.2-0.9-0.3-1.5-0.4c-0.6-0.1-1.3-0.1-2.1-0.1h-3.9v6.9h3.3c1.1,0,2-0.1,2.7-0.2
		c0.7-0.1,1.3-0.3,1.7-0.6c0.5-0.3,0.8-0.7,1-1.1C275.4,553.7,275.5,553.1,275.5,552.5z"/>
	<path class="st0" d="M296.2,558.1h-2.6l-1.8-5.2h-8l-1.8,5.2h-2.5l6.8-18.6h3.3L296.2,558.1z M291,550.8l-3.3-9.1l-3.3,9.1H291z"/>
	<path class="st0" d="M310.8,558.1h-11.8v-18.6h2.5v16.4h9.3V558.1z"/>
	<path class="st0" d="M325,558.1h-11.8v-18.6h2.5v16.4h9.3V558.1z"/>
	<path class="st0" d="M351.1,558.1h-2.6l-1.8-5.2h-8l-1.8,5.2h-2.5l6.8-18.6h3.3L351.1,558.1z M345.9,550.8l-3.3-9.1l-3.3,9.1H345.9
		z"/>
	<path class="st0" d="M367.3,552.8c0,0.7-0.2,1.4-0.5,2.1c-0.3,0.7-0.8,1.3-1.4,1.8c-0.7,0.5-1.4,0.9-2.3,1.2
		c-0.9,0.3-2,0.4-3.2,0.4c-1.3,0-2.5-0.1-3.6-0.4s-2.2-0.6-3.3-1.1v-3.1h0.2c0.9,0.8,2,1.4,3.3,1.8s2.4,0.6,3.5,0.6
		c1.5,0,2.7-0.3,3.6-0.9c0.9-0.6,1.3-1.3,1.3-2.3c0-0.8-0.2-1.4-0.6-1.8c-0.4-0.4-1-0.7-1.8-0.9c-0.6-0.2-1.3-0.3-2-0.4
		c-0.7-0.1-1.5-0.2-2.3-0.4c-1.6-0.3-2.9-0.9-3.7-1.8s-1.2-1.9-1.2-3.3c0-1.6,0.7-2.8,2-3.8c1.3-1,3-1.5,5-1.5
		c1.3,0,2.5,0.1,3.6,0.4c1.1,0.2,2.1,0.6,2.9,0.9v2.9h-0.2c-0.7-0.6-1.6-1.1-2.8-1.5c-1.2-0.4-2.3-0.6-3.5-0.6
		c-1.3,0-2.4,0.3-3.2,0.8c-0.8,0.5-1.2,1.3-1.2,2.1c0,0.8,0.2,1.4,0.6,1.8c0.4,0.4,1.1,0.8,2.1,1c0.5,0.1,1.3,0.3,2.3,0.4
		c1,0.2,1.8,0.3,2.5,0.5c1.4,0.4,2.4,0.9,3.1,1.7C367,550.4,367.3,551.4,367.3,552.8z"/>
	<path class="st0" d="M384.5,552.8c0,0.7-0.2,1.4-0.5,2.1c-0.3,0.7-0.8,1.3-1.4,1.8c-0.7,0.5-1.4,0.9-2.3,1.2
		c-0.9,0.3-2,0.4-3.2,0.4c-1.3,0-2.5-0.1-3.6-0.4c-1.1-0.2-2.2-0.6-3.3-1.1v-3.1h0.2c0.9,0.8,2,1.4,3.3,1.8s2.4,0.6,3.5,0.6
		c1.5,0,2.7-0.3,3.6-0.9c0.9-0.6,1.3-1.3,1.3-2.3c0-0.8-0.2-1.4-0.6-1.8c-0.4-0.4-1-0.7-1.8-0.9c-0.6-0.2-1.3-0.3-2-0.4
		c-0.7-0.1-1.5-0.2-2.3-0.4c-1.6-0.3-2.9-0.9-3.7-1.8s-1.2-1.9-1.2-3.3c0-1.6,0.7-2.8,2-3.8s3-1.5,5-1.5c1.3,0,2.5,0.1,3.6,0.4
		c1.1,0.2,2.1,0.6,2.9,0.9v2.9h-0.2c-0.7-0.6-1.6-1.1-2.8-1.5c-1.2-0.4-2.3-0.6-3.5-0.6c-1.3,0-2.4,0.3-3.2,0.8
		c-0.8,0.5-1.2,1.3-1.2,2.1c0,0.8,0.2,1.4,0.6,1.8c0.4,0.4,1.1,0.8,2.1,1c0.5,0.1,1.3,0.3,2.3,0.4c1,0.2,1.8,0.3,2.5,0.5
		c1.4,0.4,2.4,0.9,3.1,1.7C384.2,550.4,384.5,551.4,384.5,552.8z"/>
	<path class="st0" d="M402.4,541.6c0.8,0.8,1.3,1.9,1.7,3.1c0.4,1.2,0.6,2.6,0.6,4.1c0,1.5-0.2,2.9-0.6,4.1c-0.4,1.2-1,2.2-1.7,3
		c-0.8,0.8-1.7,1.5-2.7,1.9c-1,0.4-2.2,0.6-3.6,0.6c-1.3,0-2.5-0.2-3.6-0.6c-1.1-0.4-2-1.1-2.7-1.9c-0.7-0.8-1.3-1.8-1.7-3
		c-0.4-1.2-0.6-2.6-0.6-4.1c0-1.5,0.2-2.9,0.6-4.1c0.4-1.2,1-2.2,1.7-3.1c0.7-0.8,1.6-1.4,2.7-1.9s2.3-0.6,3.5-0.6
		c1.3,0,2.5,0.2,3.6,0.7C400.7,540.2,401.6,540.8,402.4,541.6z M402.1,548.8c0-2.4-0.5-4.3-1.6-5.6c-1.1-1.3-2.6-2-4.4-2
		c-1.9,0-3.4,0.7-4.4,2c-1.1,1.3-1.6,3.2-1.6,5.6c0,2.4,0.5,4.3,1.6,5.6c1.1,1.3,2.6,1.9,4.4,1.9c1.8,0,3.3-0.6,4.4-1.9
		C401.6,553.1,402.1,551.2,402.1,548.8z"/>
	<path class="st0" d="M423,556.7c-0.5,0.2-0.9,0.4-1.2,0.6s-0.9,0.4-1.5,0.5c-0.5,0.2-1.1,0.3-1.7,0.4s-1.2,0.2-2,0.2
		c-1.3,0-2.6-0.2-3.7-0.6c-1.1-0.4-2.1-1-2.9-1.8c-0.8-0.8-1.4-1.8-1.9-3c-0.4-1.2-0.7-2.6-0.7-4.2c0-1.5,0.2-2.9,0.6-4.1
		s1.1-2.2,1.9-3.1c0.8-0.8,1.7-1.4,2.9-1.8c1.1-0.4,2.4-0.6,3.7-0.6c1,0,2,0.1,3,0.4s2.1,0.7,3.3,1.3v2.9h-0.2c-1-0.9-2-1.5-3-1.9
		c-1-0.4-2.1-0.6-3.2-0.6c-0.9,0-1.8,0.2-2.5,0.5c-0.8,0.3-1.4,0.8-2,1.4c-0.6,0.6-1,1.4-1.3,2.4s-0.5,2.1-0.5,3.3
		c0,1.3,0.2,2.4,0.5,3.4c0.4,0.9,0.8,1.7,1.4,2.3c0.6,0.6,1.3,1.1,2,1.4c0.8,0.3,1.6,0.4,2.5,0.4c1.2,0,2.3-0.2,3.3-0.6s2-1,2.9-1.8
		h0.2V556.7z"/>
	<path class="st0" d="M433,558.1h-7.3v-1.9h2.4v-14.8h-2.4v-1.9h7.3v1.9h-2.4v14.8h2.4V558.1z"/>
	<path class="st0" d="M451.9,558.1h-2.6l-1.8-5.2h-8l-1.8,5.2H435l6.8-18.6h3.3L451.9,558.1z M446.6,550.8l-3.3-9.1l-3.3,9.1H446.6z
		"/>
	<path class="st0" d="M466.4,541.7h-6.6v16.4h-2.5v-16.4h-6.6v-2.2h15.7V541.7z"/>
	<path class="st0" d="M475.5,558.1h-7.3v-1.9h2.4v-14.8h-2.4v-1.9h7.3v1.9h-2.4v14.8h2.4V558.1z"/>
	<path class="st0" d="M493.5,541.6c0.8,0.8,1.3,1.9,1.7,3.1c0.4,1.2,0.6,2.6,0.6,4.1c0,1.5-0.2,2.9-0.6,4.1c-0.4,1.2-1,2.2-1.7,3
		c-0.8,0.8-1.7,1.5-2.7,1.9c-1,0.4-2.2,0.6-3.6,0.6c-1.3,0-2.5-0.2-3.6-0.6c-1.1-0.4-2-1.1-2.7-1.9c-0.7-0.8-1.3-1.8-1.7-3
		c-0.4-1.2-0.6-2.6-0.6-4.1c0-1.5,0.2-2.9,0.6-4.1c0.4-1.2,1-2.2,1.7-3.1c0.7-0.8,1.6-1.4,2.7-1.9s2.3-0.6,3.5-0.6
		c1.3,0,2.5,0.2,3.6,0.7C491.9,540.2,492.8,540.8,493.5,541.6z M493.3,548.8c0-2.4-0.5-4.3-1.6-5.6c-1.1-1.3-2.6-2-4.4-2
		c-1.9,0-3.4,0.7-4.4,2c-1.1,1.3-1.6,3.2-1.6,5.6c0,2.4,0.5,4.3,1.6,5.6c1.1,1.3,2.6,1.9,4.4,1.9c1.8,0,3.3-0.6,4.4-1.9
		C492.8,553.1,493.3,551.2,493.3,548.8z"/>
	<path class="st0" d="M514,558.1h-3.1l-8.8-16.6v16.6h-2.3v-18.6h3.8l8,15.2v-15.2h2.3V558.1z"/>
	<path class="st0" d="M541.4,552.8c0,0.7-0.2,1.4-0.5,2.1c-0.3,0.7-0.8,1.3-1.4,1.8c-0.7,0.5-1.4,0.9-2.3,1.2
		c-0.9,0.3-2,0.4-3.2,0.4c-1.3,0-2.5-0.1-3.6-0.4s-2.2-0.6-3.3-1.1v-3.1h0.2c0.9,0.8,2,1.4,3.3,1.8c1.2,0.4,2.4,0.6,3.5,0.6
		c1.5,0,2.7-0.3,3.6-0.9c0.9-0.6,1.3-1.3,1.3-2.3c0-0.8-0.2-1.4-0.6-1.8c-0.4-0.4-1-0.7-1.8-0.9c-0.6-0.2-1.3-0.3-2-0.4
		c-0.7-0.1-1.5-0.2-2.3-0.4c-1.6-0.3-2.9-0.9-3.7-1.8c-0.8-0.8-1.2-1.9-1.2-3.3c0-1.6,0.7-2.8,2-3.8c1.3-1,3-1.5,5-1.5
		c1.3,0,2.5,0.1,3.6,0.4c1.1,0.2,2.1,0.6,2.9,0.9v2.9h-0.2c-0.7-0.6-1.6-1.1-2.8-1.5c-1.2-0.4-2.3-0.6-3.5-0.6
		c-1.3,0-2.4,0.3-3.2,0.8s-1.2,1.3-1.2,2.1c0,0.8,0.2,1.4,0.6,1.8s1.1,0.8,2.1,1c0.5,0.1,1.3,0.3,2.3,0.4c1,0.2,1.8,0.3,2.5,0.5
		c1.4,0.4,2.4,0.9,3.1,1.7C541.1,550.4,541.4,551.4,541.4,552.8z"/>
	<path class="st0" d="M559.4,550.6c0,1.3-0.1,2.5-0.4,3.5s-0.8,1.8-1.5,2.5c-0.6,0.6-1.4,1.1-2.2,1.4c-0.9,0.3-1.9,0.4-3,0.4
		c-1.2,0-2.2-0.2-3-0.5c-0.9-0.3-1.6-0.8-2.2-1.4c-0.7-0.7-1.2-1.5-1.5-2.5c-0.3-1-0.4-2.2-0.4-3.6v-11.1h2.5v11.2
		c0,1,0.1,1.8,0.2,2.4s0.4,1.1,0.7,1.6c0.4,0.5,0.9,0.9,1.5,1.2c0.6,0.3,1.4,0.4,2.3,0.4c0.9,0,1.6-0.1,2.3-0.4
		c0.6-0.3,1.1-0.7,1.5-1.2c0.3-0.5,0.6-1,0.7-1.6c0.1-0.6,0.2-1.4,0.2-2.3v-11.3h2.5V550.6z"/>
	<path class="st0" d="M576.2,545.1c0,0.8-0.1,1.6-0.4,2.3c-0.3,0.7-0.7,1.3-1.2,1.8c-0.6,0.6-1.4,1.1-2.3,1.4s-2,0.5-3.3,0.5h-2.5
		v6.9h-2.5v-18.6h5c1.1,0,2.1,0.1,2.8,0.3c0.8,0.2,1.5,0.5,2.1,0.9c0.7,0.5,1.3,1.1,1.6,1.8C576,543.1,576.2,544,576.2,545.1z
		 M573.7,545.2c0-0.6-0.1-1.2-0.3-1.7c-0.2-0.5-0.6-0.9-1-1.2c-0.4-0.3-0.9-0.4-1.4-0.6s-1.2-0.2-1.9-0.2h-2.4v7.4h2.1
		c1,0,1.8-0.1,2.4-0.3c0.6-0.2,1.1-0.5,1.5-0.9c0.4-0.4,0.7-0.8,0.8-1.3C573.6,546.2,573.7,545.7,573.7,545.2z"/>
	<path class="st0" d="M591.7,558.1h-12.2v-18.6h12.2v2.2H582v5.1h9.8v2.2H582v6.9h9.8V558.1z"/>
	<path class="st0" d="M611,558.1h-3.2l-6.2-7.4h-3.5v7.4h-2.5v-18.6h5.2c1.1,0,2.1,0.1,2.8,0.2s1.4,0.4,2,0.8c0.7,0.4,1.2,1,1.6,1.6
		s0.6,1.5,0.6,2.5c0,1.3-0.3,2.5-1,3.4s-1.6,1.6-2.8,2L611,558.1z M605.2,544.7c0-0.5-0.1-1-0.3-1.4c-0.2-0.4-0.5-0.8-0.9-1
		c-0.4-0.2-0.8-0.4-1.3-0.5c-0.5-0.1-1.1-0.1-1.7-0.1h-2.9v7h2.5c0.8,0,1.5-0.1,2-0.2c0.6-0.1,1.1-0.4,1.5-0.8
		c0.4-0.3,0.7-0.8,0.8-1.2C605.1,546,605.2,545.4,605.2,544.7z"/>
	<path class="st0" d="M634.1,558.1h-11.8v-18.6h2.5v16.4h9.3V558.1z"/>
	<path class="st0" d="M648.9,558.1h-12.2v-18.6h12.2v2.2h-9.8v5.1h9.8v2.2h-9.8v6.9h9.8V558.1z"/>
	<path class="st0" d="M667.4,558.1h-2.6l-1.8-5.2h-8l-1.8,5.2h-2.5l6.8-18.6h3.3L667.4,558.1z M662.2,550.8l-3.3-9.1l-3.3,9.1H662.2
		z"/>
	<path class="st0" d="M685.7,556.7c-1,0.5-2.1,0.9-3.3,1.2c-1.2,0.3-2.4,0.5-3.5,0.5c-1.4,0-2.8-0.2-4-0.6c-1.2-0.4-2.2-1-3.1-1.8
		c-0.9-0.8-1.5-1.8-2-3c-0.5-1.2-0.7-2.6-0.7-4.2c0-3,0.9-5.3,2.6-7c1.7-1.7,4.1-2.6,7.1-2.6c1.1,0,2.1,0.1,3.2,0.4
		c1.1,0.3,2.3,0.7,3.6,1.3v2.9h-0.2c-0.3-0.2-0.6-0.5-1.1-0.8c-0.5-0.3-1-0.6-1.4-0.8c-0.6-0.3-1.2-0.5-2-0.6s-1.6-0.3-2.5-0.3
		c-2.1,0-3.7,0.7-4.9,2c-1.2,1.3-1.8,3.1-1.8,5.4c0,2.4,0.6,4.3,1.9,5.6c1.3,1.3,3,2,5.2,2c0.8,0,1.6-0.1,2.4-0.2
		c0.8-0.2,1.5-0.4,2.1-0.6v-4.6h-5v-2.2h7.4V556.7z"/>
	<path class="st0" d="M704,550.6c0,1.3-0.1,2.5-0.4,3.5s-0.8,1.8-1.5,2.5c-0.6,0.6-1.4,1.1-2.2,1.4c-0.9,0.3-1.9,0.4-3,0.4
		c-1.2,0-2.2-0.2-3-0.5c-0.9-0.3-1.6-0.8-2.2-1.4c-0.7-0.7-1.2-1.5-1.5-2.5c-0.3-1-0.4-2.2-0.4-3.6v-11.1h2.5v11.2
		c0,1,0.1,1.8,0.2,2.4c0.1,0.6,0.4,1.1,0.7,1.6c0.4,0.5,0.9,0.9,1.5,1.2c0.6,0.3,1.4,0.4,2.3,0.4c0.9,0,1.6-0.1,2.3-0.4
		c0.6-0.3,1.1-0.7,1.5-1.2c0.3-0.5,0.6-1,0.7-1.6c0.1-0.6,0.2-1.4,0.2-2.3v-11.3h2.5V550.6z"/>
	<path class="st0" d="M721,558.1h-12.2v-18.6H721v2.2h-9.8v5.1h9.8v2.2h-9.8v6.9h9.8V558.1z"/>
</g>
<g>
	<path class="st0" d="M450.8,573v14.3h-2.9v-1.6h-7.8v9.5h-2.9v-9.5h-7.7v1.8h-2.8V573h10.5v-5.2h2.9v5.2H450.8z M437.3,582.9v-7.2
		h-7.7v7.2H437.3z M447.9,582.9v-7.2h-7.8v7.2H447.9z"/>
	<path class="st0" d="M480.9,569.1v26.1h-3v-1.5h-18.9v1.5h-2.8v-26.1H480.9z M478,591.1v-19.5h-18.9v19.5H478z M476.6,586.5v2.3
		h-15.9v-2.3h6.5v-4.4h-5.3v-2.4h5.3v-3.6h-6.1v-2.4H476v2.4h-6.2v3.6h5.6v2.4h-5.6v4.4h4.1c-0.5-0.9-1.7-2.3-2.7-3.3l1.8-1
		c1,0.9,2.2,2.3,2.8,3.1l-1.8,1.1H476.6z"/>
	<path class="st0" d="M500,591.8c1.5,0.3,3.2,0.4,4.9,0.4c1.1,0,5.8,0,7.3-0.1c-0.4,0.7-0.9,1.9-1,2.7h-6.4c-6.1,0-10.7-1.1-13.7-6
		c-1,2.5-2.4,4.7-4.3,6.3c-0.5-0.6-1.4-1.5-2-1.9c3.4-2.6,4.7-7.5,5.2-11.7l2.9,0.4c-0.2,1.2-0.4,2.4-0.7,3.7c1.1,2.7,2.8,4.4,5,5.4
		v-11.4h-8.7v-10.3H509v10.3h-9v4.2h9.8v2.6H500V591.8z M491.3,576.9h14.8v-5h-14.8V576.9z"/>
	<path class="st0" d="M541.6,578c-1.6,2.1-3.5,4.5-5,6.1c1.3,2.7,3.1,4.8,5.8,6.7c-0.6,0.5-1.4,1.4-1.7,2.2
		c-2.9-2.2-4.9-4.6-6.3-7.8v6.7c0,1.5-0.4,2.3-1.3,2.7c-0.9,0.5-2.3,0.6-4.6,0.6c-0.1-0.7-0.6-1.9-1-2.7c1.6,0.1,3,0,3.5,0
		c0.5,0,0.7-0.2,0.7-0.7v-6.1c-2.3,2.3-4.7,4.5-6.6,6.3l-1.7-2.4l0.4-0.3c-3.1,1-6.3,2-8.8,2.8l-0.6-2.7c1-0.3,2.4-0.7,3.8-1.1v-7.8
		h-3.2v-2.6h3.2v-5.9h-3.4v-2.6h9.2v2.6h-3.3v5.9h2.8v2.6h-2.8v7l3.4-1l0.4,2.2c2-1.6,4.7-3.9,7.2-6.1v-7.5h-7.1v-2.6h7.1v-5h2.7v5
		h7.5v2.6h-7.5v1.2c0.3,2,0.7,3.8,1.3,5.3c1.3-1.6,2.7-3.5,3.6-5.1L541.6,578z M527,577c1.3,1.6,2.6,3.8,3.1,5.3l-2.3,1.1
		c-0.4-1.5-1.7-3.8-3-5.5L527,577z M539,572.7c-0.7-1-2.2-2.3-3.5-3.3l1.5-1.4c1.3,0.9,2.8,2.1,3.6,3L539,572.7z"/>
	<path class="st0" d="M550.4,577.3v17.9h-2.7v-17.9h-3.1v-2.6h3.1v-6.9h2.7v6.9h3v2.6H550.4z M569.7,587.8c-0.3-2.1-1-5.5-1.8-8.3
		c-0.3,9.3-0.6,12.8-1.5,13.9c-0.6,0.9-1.3,1.2-2.3,1.3c-1,0.1-2.5,0.1-4.1,0c-0.1-0.8-0.4-1.9-0.8-2.7c1.6,0.1,3,0.1,3.7,0.1
		c0.5,0,0.8-0.1,1.1-0.5c0.7-0.9,1-5,1.3-15.8h-3.5c-0.2,6.2-1.5,13.6-8.1,19.2c-0.5-0.6-1.5-1.5-2.1-1.9c6.2-5,7.4-11.7,7.6-17.2
		h-4.9v-2.7h5V568h2.6v5.3h6.2v1.3c0,1.6-0.1,3.1-0.1,4.5l2.2-0.4c0.8,2.7,1.7,6.4,2.1,8.4L569.7,587.8z M556.8,579.2
		c-0.7,3.1-1.8,6.2-3.1,8.2c-0.5-0.4-1.5-1.1-2.1-1.4c1.3-1.8,2.2-4.5,2.7-7.3L556.8,579.2z"/>
	<path class="st0" d="M590.4,568.9c-0.3,0.4-0.6,0.8-0.9,1.3c2.8,2.6,7.5,5.6,12.1,7.2c-0.6,0.5-1.5,1.7-1.9,2.4
		c-1.6-0.7-3.3-1.5-4.8-2.4v2.1h-14v-1.9c-1.5,0.9-3.1,1.8-4.8,2.5c-0.4-0.7-1.3-1.9-2-2.4c5.7-2.3,10.9-6,13.7-9.9L590.4,568.9z
		 M575.7,582.5h24.4v2.7h-12.8c-1.6,2.1-3.5,4.2-5.4,5.9l12.1-0.8c-1-1.1-2.1-2.2-3.1-3.2l2.4-1.2c2.6,2.3,5.4,5.5,6.7,7.7l-2.5,1.5
		c-0.4-0.7-0.9-1.5-1.6-2.4c-15.2,1.2-17,1.3-18.3,1.8c-0.2-0.6-0.6-2.1-1-2.8c0.7-0.1,1.4-0.7,2.3-1.5c0.8-0.7,2.7-2.7,4.5-5h-7.9
		V582.5z M594.1,576.8c-2.4-1.5-4.6-3.3-6.2-4.9c-1.7,1.8-3.7,3.4-5.9,4.9H594.1z"/>
	<path class="st0" d="M612.5,590.9c1.7,0.7,3.9,0.8,6.6,0.8c1.8,0,10.4,0,12.6-0.1c-0.4,0.7-1,1.9-1.1,2.7h-11.4
		c-6,0-9.5-0.9-11.8-4.6c-0.3,2.1-0.8,3.9-1.6,5.3c-0.4-0.3-1.6-1-2.2-1.3c1.6-3,1.9-7.6,1.9-12.8l2.5,0.2c0,1.4-0.1,2.8-0.1,4.1
		c0.5,1.7,1.2,3,2.2,3.9v-10.1h-5.6v-2.5h5.2v-3.3H605v-2.4h4.6v-3.3h2.5v3.3h4.5v2.4h-4.5v3.3h5v1c2.3-1.4,3.6-3.5,4.1-6.5h-3.7
		V569h13c0,0,0,0.7,0,1c-0.2,5.2-0.5,7.3-1.2,8.1c-0.5,0.6-1,0.8-1.8,0.9c-0.7,0.1-1.9,0.1-3.2,0c-0.1-0.7-0.3-1.7-0.7-2.4
		c1.1,0.1,2.2,0.1,2.6,0.1c0.4,0,0.7-0.1,0.9-0.3c0.4-0.4,0.6-1.7,0.7-5.1h-3.9c-0.6,4.1-2.4,6.8-5.3,8.6c-0.3-0.3-0.9-0.8-1.4-1.2
		v0.5h-4.7v3.8h4.3v2.4h-4.3V590.9z M618.4,580.4h11.5v9.2h-11.5V580.4z M620.9,587.3h6.1v-4.7h-6.1V587.3z"/>
	<path class="st0" d="M644,582.1c0,0.7,0.1,1.8,0.1,2.4c-7.8,2.3-8.9,2.7-9.5,3.2c-0.1-0.5-0.6-1.8-0.9-2.5c0.7-0.1,1.4-0.8,2.3-1.9
		c0.5-0.6,1.6-2,2.8-3.8c-3.3,0.4-4,0.6-4.5,0.8c-0.1-0.6-0.6-1.9-0.9-2.5c0.5-0.1,1.1-0.8,1.8-1.8c0.7-1,2.8-4.7,4-8.3l2.5,1.3
		c-1.3,2.9-3,6-4.8,8.5l3.4-0.4c0.7-1,1.3-2.1,1.8-3.2l2.3,1.4c-1.7,2.9-3.6,5.8-5.7,8.3L644,582.1z M644.6,589.5
		c-3.4,1.4-7.1,2.9-9.9,4l-0.7-2.7c2.5-0.8,6.4-2.3,10.1-3.7L644.6,589.5z M660.3,578.1c-0.9,4.3-2.4,7.9-4.4,10.7
		c1.6,1.7,3.5,3.1,5.5,4c-0.6,0.5-1.4,1.5-1.8,2.3c-2-1-3.8-2.4-5.4-4.1c-1.6,1.8-3.5,3.2-5.5,4.3c-0.4-0.7-1.3-1.7-1.9-2.1
		c2.1-1,4-2.4,5.7-4.2c-1.3-1.7-2.3-3.5-3.2-5.5c-0.9,4.8-2.3,8.8-4.7,11.9c-0.4-0.4-1.8-1.3-2.4-1.7c3.9-4.5,5.1-12.1,5.5-21.3
		h-3.1v-2.6h13.2c-0.7,2.5-1.4,5.4-2.2,7.9h2.5l0.5-0.1L660.3,578.1z M650.4,572.2c-0.1,2.1-0.3,4.2-0.5,6.1c1,3,2.4,5.9,4.2,8.3
		c1.3-1.9,2.4-4.2,3-6.8h-5c0.7-2,1.5-5,2.2-7.7H650.4z"/>
	<path class="st0" d="M673.9,589.3v5.8h-2.4v-5.4c-2.7,0.4-5.3,0.9-7.4,1.3l-0.6-2.6c0.5-0.1,1.1-0.1,1.8-0.2v-16.7h-1.5V569h11.2
		v2.5h-1.2v15.4l2.2-0.4l0.2,2.4L673.9,589.3z M667.8,571.5v3.7h3.8v-3.7H667.8z M667.8,581.3h3.8v-3.8h-3.8V581.3z M667.8,587.8
		c1.2-0.2,2.5-0.4,3.8-0.6v-3.7h-3.8V587.8z M683.8,583.8c1.3,4.1,3.8,7.5,7.4,9c-0.6,0.5-1.4,1.6-1.8,2.3c-3-1.5-5.2-4.1-6.7-7.4
		c-1,2.7-3,5.4-6.5,7.7c-0.4-0.6-1.4-1.5-2.1-2c4.7-2.9,6.2-6.5,6.7-9.7h-5.6v-2.5h5.8c0-0.4,0-0.8,0-1.2v-3.7H676v-2.5h3.6
		c-0.6-1.3-1.7-3.2-2.9-4.5l2.3-1.1c1.2,1.4,2.4,3.2,3,4.4l-2.3,1.2h3.6c1-1.6,2.2-3.9,2.9-5.6l2.8,0.8c-0.9,1.7-2,3.4-2.9,4.8h3.7
		v2.5h-5.9v3.7c0,0.4,0,0.7,0,1.1h6.9v2.5H683.8z"/>
	<path class="st0" d="M714.4,581.9c1.8,1.3,4.3,2.4,6.6,3c-0.6,0.5-1.4,1.5-1.7,2.1c-1.2-0.4-2.4-0.9-3.5-1.5v5.1h-2.6v-4.7h-12v4.9
		h-2.5v-5.2c-1.2,0.7-2.5,1.3-3.8,1.7c-0.4-0.6-1.1-1.6-1.6-2c2.4-0.7,5.1-1.9,7-3.4h-6.2v-2h7.4v-1.6h-3.9v-1.6h3.9v-1.5h-4.3v-1.6
		h4.3v-1.2h2.6v1.2h6.1v-1.2h2.6v1.2h4.3v1.6h-4.3v1.5h4v1.6h-4v1.6h7.4v2H714.4z M708.7,586.6c-1.1,5.3-4.1,7.5-13.7,8.5
		c-0.1-0.6-0.7-1.6-1.1-2.1c8.9-0.7,11.1-2.3,12-6.3H708.7z M696.9,574.5h-2.5v-4.8H706c-0.2-0.5-0.5-1-0.7-1.5l2.7-0.7
		c0.4,0.7,0.9,1.5,1.2,2.2h10.7v4.8h-2.6v-2.6h-20.4V574.5z M713.3,583.8c-0.8-0.6-1.5-1.3-2.1-1.9h-7.9c-0.6,0.7-1.3,1.3-2.1,1.9
		H713.3z M704.1,576.8h6.1v-1.5h-6.1V576.8z M704.1,579.9h6.1v-1.6h-6.1V579.9z M709,589.5c3.6,0.8,8.6,2.4,11.3,3.5l-1.5,2
		c-2.5-1.2-7.5-2.9-11.2-3.9L709,589.5z"/>
</g>
<path class="st1" d="M515.2,506.1c-3.2,1-6.1,1.9-8.8,2.7c-2.6,0.8-5.9,1.7-10,2.6c-3.5,0.7-7.2,1.4-11.1,1.9
	c-3.9,0.6-8.1,0.8-12.7,0.8c-8.5,0-16-0.9-22.4-2.7c-6.4-1.8-11.6-4.7-15.5-8.6c-3.9-3.8-6.3-8.6-7.3-14.4c-1-5.8-0.2-12.7,2.2-20.4
	c2.4-7.4,5.9-13.9,10.4-19.8c4.6-5.7,10.1-10.7,16.5-14.7c6.3-3.9,13.2-6.8,20.9-8.9c7.8-2,16-3,24.7-3c6.3,0,12.4,0.6,18.4,1.7
	c5.9,1.2,12.3,3.2,19.1,6.1l-4.4,14.1h-1.2c-5.1-4.1-10.6-7.1-16.4-8.9c-5.8-1.9-12.3-2.9-19.6-2.9c-6,0-11.6,0.7-16.8,2.2
	c-5.2,1.4-10.2,3.7-14.9,6.8c-4.6,3-8.7,6.8-12.2,11.4c-3.5,4.6-6.1,9.8-8,15.9c-2,6.3-2.6,11.6-1.8,16.2c0.8,4.5,2.5,8.2,5.2,11
	c2.7,2.9,6.4,5.1,10.8,6.6c4.5,1.4,9.5,2.1,15,2.1c7.6,0,14.9-1,22.2-3c7.2-2,14.4-4.9,21.3-8.8h1.1L515.2,506.1z"/>
<path class="st1" d="M627.6,487.1c-1.1,3.5-3.3,6.9-6.5,10.3c-3.2,3.4-7.1,6.2-11.7,8.6c-5,2.6-10.6,4.5-16.7,6
	c-6,1.4-13,2.1-20.9,2.1c-8.5,0-16-0.6-22.4-1.8c-6.4-1.2-12.7-3-18.9-5.3l4.7-14.8h1.1c4.8,3.7,10.7,6.6,17.9,8.7
	c7.1,2,14.1,3.1,21,3.1c9.7,0,17.7-1.4,24-4.2c6.3-2.8,10.2-6.4,11.7-11c1.2-3.9,0.9-6.9-1.1-8.7c-2-1.9-5.4-3.3-10.2-4.4
	c-3.7-0.8-7.8-1.5-12.3-2c-4.4-0.5-9.1-1.2-14-2c-9.9-1.6-16.7-4.5-20.5-8.5c-3.8-4.1-4.6-9.4-2.5-15.9c2.4-7.5,8.5-13.6,18.3-18.4
	c9.9-4.8,21.2-7.2,34-7.2c8.3,0,15.7,0.6,22.3,1.8c6.5,1.2,12.1,2.7,16.9,4.4l-4.5,14h-1.1c-3.6-2.9-8.8-5.2-15.5-7.1
	c-6.7-1.9-13.8-2.9-21.5-2.9c-8.4,0-15.5,1.3-21.5,4c-5.9,2.7-9.5,6-10.8,10.1c-1.2,3.7-0.8,6.7,1,8.8c1.8,2.1,5.8,3.8,11.8,4.8
	c3.2,0.6,7.8,1.2,13.8,2c6,0.8,11,1.7,15,2.5c8.2,1.7,13.9,4.4,17.2,7.9C629,475.7,629.6,480.7,627.6,487.1"/>
<path class="st1" d="M662.8,423.4h15.7l-24.3,77.5H721l-3.9,11.8h-68.5c-5.7,0-10.4-4.6-10.4-10.4c0-0.9,0.1-2,0.4-2.9L662.8,423.4z
	"/>
<path class="st2" d="M85.7,396.5c4.8,23.1,23.4,37.6,45.3,37.6c19.8,0,35.9-12.9,41.6-30.8c0.5,2.9,1.5,6,1.5,9.1
	c0,31.9-27.7,57.7-59.7,57.7c-24.2,0-44-12.9-52.7-34C54.1,421,51,399.4,51,380.7c0-72.3,56.9-131,127.7-136.4
	c0,0-53.5,11.1-80.6,69c0,0-10.3,17.1-13.7,47.9C84.5,361.3,81.4,375.8,85.7,396.5"/>
<linearGradient id="SVGID_1_" gradientUnits="userSpaceOnUse" x1="86.3889" y1="374.9332" x2="228.8537" y2="292.6811">
	<stop  offset="0" style="stop-color:#FFE900"/>
	<stop  offset="0.1279" style="stop-color:#FBCC01"/>
	<stop  offset="0.3781" style="stop-color:#F39902"/>
	<stop  offset="0.5966" style="stop-color:#EE7403"/>
	<stop  offset="0.7726" style="stop-color:#EA5D04"/>
	<stop  offset="0.884" style="stop-color:#E95504"/>
</linearGradient>
<path class="st3" d="M97.4,364.5c-0.4,13.2,0.9,25,4.7,36.9c3.7,11.1,15.6,18.3,27,18.3c14.2,0,25.8-11.6,25.8-25.8
	c0-5.2-1.6-10.3-4.3-14.4c-10.1-14.2-17.1-31.5-17.1-50.3c0-41,29.3-75.5,67.5-84.6C142.9,253.4,99.4,305.1,97.4,364.5"/>
<path class="st2" d="M178.8,388.1c15.4,13.5,26.2,31.5,26.2,52.4c0,36-28.7,62.6-65.1,65.1c-1.2,0.1-2.8,0-3.9-0.1
	c4.2,0.7,9.1,1.8,13.4,1.6c44.2-2.5,85.2-36.6,89-84.2c0-16-3.8-30.7-14.1-44.4c-44.9-45.6-44.5-72-44.5-75.1
	c0-23.8,19.3-43.1,43.1-43.1c0,0,29.2-1.4,61.8,22.4c-18.8-17.2-41.6-31.5-71.6-32c-37.2,1.5-63.5,30.8-63,64.6
	c-0.3,6.5,0.3,13,0.8,19.9C152.6,356.4,165.2,375.9,178.8,388.1"/>
<path class="st1" d="M121.8,499.2c-13.3-4.8-25.8-14.3-36.2-28c0,0,20,9,46.5,6.1c0,0,42.2-3.2,55.7-46.7c0,0,7.7,50.2-44.9,67.6
	c0,0-5.7,1.8-11.4,2.2C126.1,500.8,121.8,499.2,121.8,499.2"/>
<linearGradient id="SVGID_2_" gradientUnits="userSpaceOnUse" x1="147.3469" y1="445.6888" x2="259.7381" y2="445.6888">
	<stop  offset="0" style="stop-color:#FFE900"/>
	<stop  offset="1" style="stop-color:#E95504"/>
</linearGradient>
<path class="st4" d="M249.8,423c0,49.1-43.6,88.9-97.4,88.9c-1.7,0-3.4-0.1-5.1-0.2c20.3,8.4,42,6.7,42,6.7
	c34.4-3,70.4-42.8,70.4-81.2c0-19.6-1.9-40.5-24.5-64.4C235.3,372.8,249.8,399,249.8,423"/>
<path class="st1" d="M269,414.6c0.3,0.1-5.7-24.4-14.5-37.5c-8.1-12.1-15.5-17.4-23.3-24.3c-5-3.9-15.2-12.6-15.2-12.6
	C200.3,326,196.7,319,196.7,319c-3.3-4.9-5.2-10.8-5.2-16.9c0-14.7,10.5-27.1,24.9-31.1c35.2-8.6,63,15,63,15
	c46.5,35.8,46.8,96.3,46.8,96.3c0,44.9-17.5,76.8-48.1,103.4c32.4-34.8,39.3-76.4,39.3-76.4c6.7-38.7-6.8-66.9-6.8-66.9
	c-35.1-74.7-84.2-55.6-84.2-55.6c-9.3,2.4-16.1,10.8-16.1,20.8c0,1.2-0.9,14.7,19.7,33.4c7.8,7.4,17.5,14.8,25.2,25.8
	C267.3,383.8,269.6,403.2,269,414.6"/>
<path class="st2" d="M234.5,515.2c16.8-1.8,41.3-7.2,41.3-7.2c64.7-16.8,79.3-42.6,146.6-90.9c67.2-48.3,138-44.9,138-44.9
	s-6.3-2.1-25.3-5c-18.9-2.9-43.7-3.8-43.7-3.8c-86.2,1-90.1,25.5-138.4,76.1c-48.3,50.6-93.3,57.9-93.3,57.9
	c25.7-21.5,45-59.8,47.8-101.8c1-16.3-2.2-32.4-7.7-46.8c0,0-21-53.7-60.5-53.1c0,0-22.8-0.4-16.2,18.9c0,0,3.1,7.2,18.1,19.7
	c25.5,18.8,39.2,50.2,39.2,84c0,48.3-26.3,80.6-63.9,97.3C216.3,515.5,222.2,516.4,234.5,515.2"/>
<linearGradient id="SVGID_3_" gradientUnits="userSpaceOnUse" x1="253.3536" y1="236.193" x2="471.6838" y2="236.193">
	<stop  offset="0" style="stop-color:#FFE900"/>
	<stop  offset="1" style="stop-color:#E95504"/>
</linearGradient>
<path class="st5" d="M331.3,214.9c-42.6,37.5-78,32.4-78,32.4c32.6,9.5,50.7,33.6,53.8,35.2c3.1,1.5,21.6-0.7,21.6-0.7
	c42.5-4.9,58.7-17,90.1-47.4c27.2-26.4,52.8-31.8,52.8-31.8c-11.3-2.3-52.4-10.6-52.4-10.6c-8.4-1.7-16.2-2.4-23.4-2.4
	C353.2,189.4,331.3,214.9,331.3,214.9"/>
<linearGradient id="SVGID_4_" gradientUnits="userSpaceOnUse" x1="409.0363" y1="314.4795" x2="665.6796" y2="314.4795">
	<stop  offset="0" style="stop-color:#FFE900"/>
	<stop  offset="1" style="stop-color:#E95504"/>
</linearGradient>
<path class="st6" d="M647.5,268.6c-11.5,4-29.5,6-29.5,6c-14.7,0.9-23.9-1.1-33.4-3c-13.9-2.9-28.4-5.8-61.4,0.3
	C465.4,282.6,409,368.9,409,368.9s4.5-1.4,13.4-6.2c9-4.8,14.8-7.6,14.8-7.6c33.8-13.8,55.5-11.7,55.5-11.7c9.8-0.8,20.7,0,32.2,0.9
	c21.6,1.6,45.6,3.3,69.5-6.4c36.5-14.8,71.2-77.9,71.2-77.9S657.9,265,647.5,268.6"/>
<linearGradient id="SVGID_5_" gradientUnits="userSpaceOnUse" x1="312.157" y1="331.947" x2="749" y2="331.947">
	<stop  offset="0" style="stop-color:#FFE900"/>
	<stop  offset="1" style="stop-color:#E95504"/>
</linearGradient>
<path class="st7" d="M315.4,291.4c0,0,0.1,0,0.2,0.1C315.5,291.4,315.4,291.3,315.4,291.4C315.4,291.3,315.4,291.4,315.4,291.4
	 M622,228.1c-23.9,11.5-34.4,18-49.2,16.9c-12.7-1-22.7-8.4-22.7-8.4c-35.1-23.6-75.6-33.6-122,16.9c-52.5,57.1-108.7,39.2-112.5,38
	c0.5,0.4,2.4,2.9,9.2,15.1c10.2,18.2,14.4,43.9,14.4,43.9c14.3,69.5-27.1,109.1-27.1,109.1c15.2-12.1,24.5-17.6,51.5-49.7
	c28.2-33.6,33.8-51.4,75.7-106c31.6-41.1,72.8-51.1,97.9-53.1c0,0,15-2.1,36.2,2.6c18.3,4,40,15,93.5-8.8c58.1-25.8,82-19.5,82-19.5
	s-19.3-20.7-54.4-20.7C655.1,204.3,644.4,217.4,622,228.1"/>
</svg>
