<?xml version="1.0" encoding="utf-8"?>
<!-- Generator: Adobe Illustrator 23.0.3, SVG Export Plug-In . SVG Version: 6.00 Build 0)  -->
<svg version="1.1" id="图层_1" xmlns="http://www.w3.org/2000/svg" xmlns:xlink="http://www.w3.org/1999/xlink" x="0px" y="0px"
	 viewBox="0 0 800 800" style="enable-background:new 0 0 800 800;" xml:space="preserve">
<style type="text/css">
	.st0{fill:#C95D2B;}
	.st1{fill:#FFFFFF;}
	.st2{fill-rule:evenodd;clip-rule:evenodd;fill:#231815;}
	.st3{fill-rule:evenodd;clip-rule:evenodd;fill:#D7000F;}
	.st4{fill:url(#SVGID_1_);}
	.st5{fill:url(#SVGID_2_);}
	.st6{fill:url(#SVGID_3_);}
	.st7{fill:url(#SVGID_4_);}
	.st8{fill:url(#SVGID_5_);}
</style>
<g>
	<path class="st0" d="M721.35,559.95H78.65c-15.82,0-28.65-12.83-28.65-28.65V268.71c0-15.82,12.83-28.65,28.65-28.65h599.19
		c39.85,0,72.15,32.3,72.15,72.15v219.09C750,547.12,737.17,559.95,721.35,559.95z"/>
	<path class="st1" d="M719.05,548.66H503.33c-34.21,0-61.94-27.73-61.94-61.94V271c0-10.86,8.8-19.66,19.66-19.66h215.72
		c34.21,0,61.94,27.73,61.94,61.94V529C738.71,539.86,729.91,548.66,719.05,548.66z"/>
	<path class="st1" d="M180.12,462.24h-6.36v2.42h19.36v-2.42h-7.12v-12.13h6.98v-2.39h-6.98v-4.98h6.98v-2.42h-19.32v2.42h6.46v4.98
		h-6.46v2.39h6.46V462.24z M186.23,452.39l2.25,8.3h4.81l-2.21-8.3H186.23z M280.54,449.73l1.62-7.64h-4.84l-1.59,7.64H280.54z
		 M280.19,451.28h-4.84l3.21,18.32h4.87L280.19,451.28z M299.83,447.1v-2.42h-2.56v-9.96h-5.84v9.96h-2.59v2.42h2.59v22.37h5.84
		V447.1H299.83z M313.17,438.77h-1.52l0.24-4.11h-5.15l-0.24,4.11h-5.77v2.42h5.57l-1.49,28.35h5.19l1.49-28.35h1.66v24.44
		c0,0.97-0.8,1.8-1.8,1.8h-0.38v2.25h2.21h0.35h3.46c1.14,0,2.07-0.9,2.07-2.07v-28.8h-0.38L313.17,438.77L313.17,438.77z
		 M301.21,443.3l-1.83,25.86h3.87l1.76-25.86H301.21z M320.22,443.3h2.77v25.89h-2.77V443.3z M337.34,443.44l4.98-6.05h10.09
		l4.94,6.05h7.43l-6.91-8.43h-1.49h-5.95h-6.19h-7.43h-3.21l1.35,2.25l-5.05,6.19H337.34z M331.25,445.79h31.67v2.42h-31.67V445.79z
		 M329.8,454.01h7.74l-7.36,15.14h4.42h2.94h19.57h1.8h2.66c0.69-1.07,0.86-1.42,1.56-2.45l-4.91-10.16h-7.16l4.98,10.23h-17.22
		l6.19-12.72h19.5v-2.42h-34.67v2.39H329.8z M158.79,439.53h-5.74h-7.36v-4.91h-6.12v4.91h-5.15h-1.97v2.42h7.16v18.15h-7.95v-20.53
		h-5.88h-1.21c0,0.1,0.03,0.28,0.1,0.38l1.11,1.8v18.36v2.42h5.84h7.95v7.19h6.15v-7.19h7.33h0.69h3.11c1.14,0,2.07-0.9,2.07-2.07
		v-20.88h-0.14V439.53z M153.05,460.1h-7.36v-18.15h7.36V460.1z M197.05,435.21h-2.73h-14.21h-6.08v2.42h20.26v29.11h-21.74v-31.53
		h-5.84l0,0l0,0h-1.18c0,0.14,0.03,0.28,0.1,0.38l1.07,1.69v31.84h4.01h1.83h21.74h0.83h2.94c1.14,0,2.07-0.9,2.07-2.07v-31.87
		h-3.11v0.03H197.05z M227.44,466.53v-10.58h13.52v-2.63h-13.52v-4.74h5.88l0,0h5.81c1.14,0,2.07-0.9,2.07-2.07v-11.58h-7.88h-16.35
		v3.21h16.35v7.88h-17.91v-11.06h-4.01h-3.84l0,0l0,0h-1.18c0,0.14,0.03,0.28,0.1,0.38l1.07,1.73v11.55h7.33l0,0h6.4v17.87h-7.19
		l2.87-16.01h-6.53l-3.39,18.6h2.66h3.91h28.49v-2.63L227.44,466.53L227.44,466.53z M257.27,465.91v-15.31h2.87v-2.39h-2.87v-9.44
		h3.66v-2.45h-13.17v2.45h3.7v9.44h-2.9v2.39h2.9v15.83l-3.87,0.31l0.21,2.42l12.44-1.11l-0.21-2.39L257.27,465.91z M266.37,442.09
		h-4.84l1.62,7.64h4.81L266.37,442.09z M263.81,451.28l-3.21,18.32h4.84l3.25-18.32H263.81z M281.75,438.01v-1.87h-4.11v1.87h-2.7
		v-3.15h-3.01h-2.83l0,0l0,0h-1.11c0,0.1,0.03,0.28,0.1,0.35l0.97,1.59v1.18h-7.78v2.45h7.74v25.89c0,0.66-0.52,1.18-1.18,1.18
		h-1.42v2.04h2.63h0.17h3.6c1.14,0,2.07-0.9,2.07-2.07v-27.07h7.74v-2.45h-0.93v0.07H281.75z M131.34,483.85l1.97,0.62
		c-0.31,1.11-0.8,1.9-1.52,2.42c-0.73,0.52-1.59,0.8-2.66,0.8c-1.31,0-2.42-0.45-3.28-1.35c-0.86-0.9-1.28-2.14-1.28-3.77
		c0-1.66,0.41-2.94,1.28-3.91c0.86-0.9,2.01-1.42,3.42-1.42c1.21,0,2.25,0.38,3.01,1.11c0.45,0.41,0.8,1.07,1.04,1.87l-2.01,0.48
		c-0.1-0.52-0.38-0.93-0.76-1.24s-0.83-0.45-1.35-0.45c-0.76,0-1.35,0.28-1.83,0.8c-0.45,0.52-0.69,1.42-0.69,2.59
		c0,1.24,0.24,2.14,0.69,2.73c0.45,0.55,1.07,0.8,1.8,0.8c0.52,0,0.97-0.17,1.42-0.52C130.89,485.13,131.16,484.57,131.34,483.85z
		 M135.07,487.55v-10.03h2.01v3.94h3.98v-3.94h2.01v10.03h-2.01v-4.39h-3.98v4.39H135.07z M145.1,487.55v-10.03h2.01v10.03H145.1z
		 M149.07,487.55v-10.03h1.97l4.08,6.71v-6.71h1.9v10.03h-2.04l-4.04-6.57v6.57H149.07z M159.2,487.55v-10.03h7.43v1.69h-5.43v2.25
		h5.05v1.69h-5.05v2.73h5.6v1.69h-7.61V487.55z M168.02,484.3l1.97-0.17c0.1,0.66,0.35,1.14,0.73,1.45
		c0.38,0.31,0.83,0.45,1.49,0.45s1.14-0.14,1.49-0.41s0.48-0.62,0.48-0.97c0-0.24-0.07-0.45-0.24-0.62
		c-0.14-0.14-0.38-0.31-0.73-0.41c-0.24-0.07-0.8-0.24-1.62-0.45c-1.11-0.28-1.87-0.62-2.28-0.97c-0.62-0.55-0.9-1.21-0.9-2.01
		c0-0.48,0.14-0.97,0.41-1.45c0.31-0.45,0.73-0.8,1.24-1.04c0.52-0.24,1.21-0.35,1.97-0.35c1.24,0,2.21,0.28,2.83,0.83
		c0.62,0.55,0.97,1.28,0.97,2.21l-2.01,0.07c-0.07-0.52-0.28-0.86-0.55-1.11c-0.31-0.24-0.73-0.35-1.28-0.35
		c-0.62,0-1.07,0.1-1.42,0.38c-0.24,0.14-0.31,0.38-0.31,0.62c0,0.24,0.1,0.45,0.31,0.62c0.28,0.24,0.86,0.45,1.87,0.69
		c0.97,0.24,1.69,0.45,2.21,0.73c0.45,0.28,0.83,0.62,1.11,1.04s0.41,0.93,0.41,1.59c0,0.55-0.14,1.11-0.48,1.62
		c-0.31,0.48-0.76,0.86-1.35,1.14c-0.55,0.24-1.31,0.38-2.21,0.38c-1.24,0-2.25-0.31-2.9-0.86
		C168.53,486.27,168.19,485.37,168.02,484.3z M177.9,487.55v-10.03h7.43v1.69h-5.43v2.25h5.05v1.69h-5.05v2.73h5.6v1.69h-7.61
		V487.55z M191.18,487.55v-10.03h6.88v1.69h-4.84v2.39h4.22v1.69h-4.22v4.29h-2.04V487.55L191.18,487.55z M199.27,482.57
		c0-1.04,0.14-1.9,0.45-2.59c0.24-0.48,0.52-0.97,0.93-1.35c0.38-0.41,0.83-0.73,1.28-0.9c0.66-0.28,1.35-0.38,2.14-0.38
		c1.49,0,2.66,0.45,3.56,1.35c0.86,0.9,1.31,2.21,1.31,3.84c0,1.62-0.45,2.87-1.31,3.8c-0.86,0.9-2.04,1.35-3.53,1.35
		c-1.49,0-2.7-0.45-3.56-1.35C199.72,485.4,199.27,484.16,199.27,482.57z M201.41,482.5c0,1.14,0.28,2.01,0.8,2.59
		c0.52,0.55,1.18,0.86,2.01,0.86c0.8,0,1.49-0.31,1.97-0.86c0.48-0.55,0.8-1.45,0.8-2.63c0-1.14-0.28-2.01-0.76-2.59
		c-0.48-0.55-1.18-0.83-2.01-0.83s-1.52,0.31-2.01,0.86C201.62,480.49,201.41,481.36,201.41,482.5z M210.19,482.57
		c0-1.04,0.14-1.9,0.45-2.59c0.24-0.48,0.52-0.97,0.93-1.35c0.38-0.41,0.83-0.73,1.28-0.9c0.66-0.28,1.35-0.38,2.14-0.38
		c1.49,0,2.66,0.45,3.56,1.35c0.86,0.9,1.31,2.21,1.31,3.84c0,1.62-0.45,2.87-1.31,3.8c-0.86,0.9-2.04,1.35-3.53,1.35
		s-2.7-0.45-3.56-1.35C210.64,485.4,210.19,484.16,210.19,482.57z M212.26,482.5c0,1.14,0.28,2.01,0.8,2.59
		c0.52,0.55,1.18,0.86,2.01,0.86c0.8,0,1.49-0.31,1.97-0.86s0.8-1.45,0.8-2.63c0-1.14-0.28-2.01-0.76-2.59
		c-0.48-0.55-1.18-0.83-2.01-0.83c-0.83,0-1.52,0.31-2.01,0.86C212.54,480.49,212.26,481.36,212.26,482.5z M223.78,487.55v-8.33
		h-2.97v-1.69h7.99v1.69h-2.94v8.33H223.78z M230.07,477.49h4.01c0.8,0,1.42,0.03,1.8,0.1s0.76,0.17,1.07,0.41
		c0.31,0.24,0.55,0.48,0.76,0.83c0.17,0.35,0.31,0.76,0.31,1.18c0,0.45-0.1,0.9-0.38,1.28s-0.62,0.69-1.04,0.86
		c0.62,0.17,1.11,0.48,1.42,0.9c0.35,0.41,0.48,0.93,0.48,1.52c0,0.45-0.1,0.9-0.31,1.31c-0.24,0.41-0.48,0.76-0.86,1.04
		s-0.83,0.41-1.35,0.48c-0.35,0.03-1.14,0.07-2.45,0.07h-3.42v-9.99H230.07z M232.14,479.18v2.32h1.31c0.8,0,1.28,0,1.49-0.03
		c0.35-0.03,0.62-0.14,0.83-0.35c0.17-0.17,0.31-0.45,0.31-0.8c0-0.31-0.07-0.55-0.28-0.76c-0.17-0.17-0.41-0.31-0.76-0.35
		c-0.17-0.03-0.8-0.03-1.73-0.03H232.14L232.14,479.18z M232.14,483.16v2.7h1.9c0.73,0,1.21-0.03,1.42-0.07
		c0.31-0.03,0.52-0.17,0.73-0.41c0.17-0.24,0.28-0.48,0.28-0.83c0-0.31-0.07-0.55-0.24-0.76c-0.14-0.24-0.35-0.38-0.66-0.45
		c-0.28-0.1-0.86-0.14-1.8-0.14L232.14,483.16L232.14,483.16z M249.25,487.55h-2.21l-0.86-2.28h-4.01l-0.83,2.28h-2.14l3.91-10.03
		h2.14L249.25,487.55z M245.55,483.57l-1.42-3.7l-1.35,3.7H245.55z M250.39,487.55v-9.96h2.01v8.26h5.05v1.69L250.39,487.55
		L250.39,487.55z M258.97,487.55v-9.96h2.01v8.26h5.05v1.69L258.97,487.55L258.97,487.55z M279.64,487.55h-2.21l-0.86-2.28h-4.01
		l-0.83,2.28h-2.18l3.91-10.03h2.14L279.64,487.55z M275.87,483.57l-1.42-3.7l-1.35,3.7H275.87z M280.19,484.3l1.97-0.17
		c0.1,0.66,0.35,1.14,0.73,1.45c0.38,0.31,0.83,0.45,1.49,0.45s1.14-0.14,1.49-0.41c0.35-0.28,0.48-0.62,0.48-0.97
		c0-0.24-0.07-0.45-0.24-0.62c-0.14-0.14-0.38-0.31-0.73-0.41c-0.24-0.07-0.8-0.24-1.62-0.45c-1.11-0.28-1.87-0.62-2.28-0.97
		c-0.62-0.55-0.9-1.21-0.9-2.01c0-0.48,0.14-0.97,0.41-1.45c0.31-0.45,0.73-0.8,1.24-1.04c0.52-0.24,1.21-0.35,1.97-0.35
		c1.24,0,2.21,0.28,2.83,0.83c0.66,0.55,0.97,1.28,0.97,2.21l-2.01,0.07c-0.07-0.52-0.28-0.86-0.55-1.11
		c-0.31-0.24-0.73-0.35-1.28-0.35c-0.62,0-1.07,0.1-1.35,0.38c-0.24,0.14-0.31,0.38-0.31,0.62c0,0.24,0.1,0.45,0.31,0.62
		c0.28,0.24,0.86,0.45,1.87,0.69c0.97,0.24,1.69,0.45,2.21,0.73c0.45,0.28,0.83,0.62,1.11,1.04s0.41,0.93,0.41,1.59
		c0,0.55-0.14,1.11-0.48,1.62c-0.31,0.48-0.76,0.86-1.35,1.14c-0.55,0.24-1.31,0.38-2.21,0.38c-1.24,0-2.25-0.31-2.9-0.86
		C280.75,486.27,280.33,485.37,280.19,484.3z M289.56,484.3l1.97-0.17c0.1,0.66,0.35,1.14,0.73,1.45c0.38,0.31,0.83,0.45,1.49,0.45
		s1.14-0.14,1.49-0.41s0.48-0.62,0.48-0.97c0-0.24-0.07-0.45-0.24-0.62c-0.14-0.14-0.38-0.31-0.73-0.41
		c-0.24-0.07-0.8-0.24-1.62-0.45c-1.11-0.28-1.87-0.62-2.28-0.97c-0.62-0.55-0.9-1.21-0.9-2.01c0-0.48,0.14-0.97,0.41-1.45
		c0.31-0.45,0.73-0.8,1.24-1.04c0.52-0.24,1.21-0.35,1.97-0.35c1.24,0,2.21,0.28,2.83,0.83c0.66,0.55,0.97,1.28,0.97,2.21
		l-2.01,0.07c-0.07-0.52-0.28-0.86-0.55-1.11c-0.31-0.24-0.73-0.35-1.28-0.35c-0.62,0-1.07,0.1-1.42,0.38
		c-0.24,0.14-0.31,0.38-0.31,0.62c0,0.24,0.1,0.45,0.31,0.62c0.28,0.24,0.86,0.45,1.87,0.69c0.97,0.24,1.69,0.45,2.21,0.73
		c0.45,0.28,0.83,0.62,1.11,1.04s0.41,0.93,0.41,1.59c0,0.55-0.14,1.11-0.48,1.62c-0.31,0.48-0.76,0.86-1.35,1.14
		c-0.62,0.28-1.31,0.38-2.21,0.38c-1.24,0-2.25-0.31-2.9-0.86C290.08,486.27,289.67,485.37,289.56,484.3z M299,482.57
		c0-1.04,0.14-1.9,0.45-2.59c0.24-0.48,0.52-0.97,0.93-1.35c0.38-0.41,0.83-0.73,1.28-0.9c0.66-0.28,1.35-0.38,2.14-0.38
		c1.49,0,2.66,0.45,3.56,1.35c0.86,0.9,1.31,2.21,1.31,3.84c0,1.62-0.45,2.87-1.31,3.8c-0.86,0.9-2.04,1.35-3.53,1.35
		c-1.49,0-2.7-0.45-3.56-1.35C299.45,485.4,299,484.16,299,482.57z M301.07,482.5c0,1.14,0.28,2.01,0.8,2.59
		c0.52,0.55,1.18,0.86,2.01,0.86s1.49-0.31,1.97-0.86s0.8-1.45,0.8-2.63c0-1.14-0.28-2.01-0.76-2.59c-0.48-0.55-1.18-0.83-2.01-0.83
		s-1.52,0.31-2.01,0.86C301.35,480.49,301.07,481.36,301.07,482.5z M316.73,483.85l1.97,0.62c-0.31,1.11-0.8,1.9-1.52,2.42
		c-0.73,0.52-1.59,0.8-2.66,0.8c-1.31,0-2.42-0.45-3.28-1.35s-1.28-2.14-1.28-3.77c0-1.66,0.41-2.94,1.28-3.91
		c0.86-0.9,2.01-1.42,3.42-1.42c1.21,0,2.25,0.38,3.01,1.11c0.45,0.41,0.8,1.07,1.04,1.87l-2.01,0.48c-0.1-0.52-0.38-0.93-0.76-1.24
		c-0.38-0.31-0.83-0.45-1.35-0.45c-0.76,0-1.35,0.28-1.83,0.8c-0.45,0.52-0.69,1.42-0.69,2.59c0,1.24,0.24,2.14,0.69,2.73
		c0.45,0.55,1.07,0.8,1.8,0.8c0.52,0,0.97-0.17,1.42-0.52C316.28,485.13,316.59,484.57,316.73,483.85z M320.36,487.55v-10.03h2.01
		v10.03H320.36z M333.4,487.55h-2.21l-0.86-2.28h-4.01l-0.83,2.28h-2.14l3.91-10.03h2.14L333.4,487.55z M329.66,483.57l-1.42-3.7
		l-1.35,3.7H329.66z M335.68,487.55v-8.33h-3.01v-1.69h7.99v1.69h-2.94v8.33H335.68z M341.93,487.55v-10.03h2.01v10.03H341.93z
		 M345.49,482.57c0-1.04,0.14-1.9,0.45-2.59c0.24-0.48,0.52-0.97,0.93-1.35c0.38-0.41,0.83-0.73,1.28-0.9
		c0.66-0.28,1.35-0.38,2.14-0.38c1.49,0,2.66,0.45,3.56,1.35c0.86,0.9,1.31,2.21,1.31,3.84c0,1.62-0.45,2.87-1.31,3.8
		c-0.86,0.9-2.04,1.35-3.53,1.35c-1.49,0-2.7-0.45-3.56-1.35C345.91,485.4,345.49,484.16,345.49,482.57z M347.57,482.5
		c0,1.14,0.28,2.01,0.8,2.59c0.52,0.55,1.18,0.86,2.01,0.86s1.49-0.31,1.97-0.86s0.8-1.45,0.8-2.63c0-1.14-0.28-2.01-0.76-2.59
		c-0.48-0.55-1.18-0.83-2.01-0.83s-1.52,0.31-2.01,0.86C347.81,480.49,347.57,481.36,347.57,482.5z M356.8,487.55v-10.03h1.97
		l4.08,6.71v-6.71h1.9v10.03h-2.04l-4.01-6.57v6.57H356.8z M123.66,371.64c0,32.67,26.38,43.35,39.48,43.35h16.73
		c3.15,0,5.67-2.56,5.67-5.74v-13.86c0,0-9.64,0-17.84,0c-8.19,0-23.54-5.74-23.54-23.75c0-18.18,16.59-23.27,24.48-23.27h11.51
		c3.15,0,5.67-2.56,5.67-5.74v-15.14c0,0-2.83,0-18.32,0C151.77,327.63,123.66,338.93,123.66,371.64z M220.77,367.49v-18.81h31.6
		c2.39,0,4.42-1.42,5.22-3.66l6.46-17.04v-0.48h-64.44v87.32h21.47v-26.45h16.28c2.39,0,4.42-1.42,5.22-3.66l6.46-17.22H220.77
		L220.77,367.49z M301.49,327.46h-17.53c-3.7,0-5.77,1.28-6.78,3.98l-32.05,83.52h22.57l4.42-11.3L301.49,327.46z M305.74,383.25
		h-20.36l-7.74,20.4h36.16l4.25,10.99h22.61l-33.98-86.7l-11.2,29.18L305.74,383.25z M336.13,321.23l0.1,5.53l-3.49,4.08l-0.73-1.69
		l2.21-6.81L336.13,321.23z M347.64,313.66c9.09,0,16.49,7.4,16.49,16.49s-7.4,16.49-16.49,16.49c-9.09,0-16.49-7.4-16.49-16.49
		S338.55,313.66,347.64,313.66 M347.64,312.18c-9.96,0-18.01,8.05-18.01,18.01s8.05,18.01,18.01,18.01s18.01-8.05,18.01-18.01
		S357.59,312.18,347.64,312.18L347.64,312.18z M347.95,322.62l-7.16,5.84l3.01,8.33h8.33l3.01-7.67L347.95,322.62z M342.49,316.33
		l5.15,1.94l5.01-1.94l-1.35-1.24l-7.16-0.17L342.49,316.33z M359.46,321.23l-0.1,5.53l3.46,4.08l0.76-1.69l-2.25-6.81
		L359.46,321.23z M335.47,338.21l5.32,1.45l2.94,4.46l-1.8,0.24l-5.95-4.01L335.47,338.21z M360.01,338.21l-5.32,1.45l-2.94,4.46
		l1.8,0.24l5.95-4.01L360.01,338.21z"/>
	<g>
		<path class="st2" d="M629.69,452.28c-1.1,0.34-2.1,0.65-3.03,0.93c-0.89,0.28-2.03,0.58-3.44,0.89c-1.2,0.24-2.48,0.48-3.82,0.65
			c-1.34,0.21-2.79,0.28-4.37,0.28c-2.92,0-5.5-0.31-7.7-0.93c-2.2-0.62-3.99-1.62-5.33-2.96c-1.34-1.31-2.17-2.96-2.51-4.95
			c-0.34-1.99-0.07-4.37,0.76-7.02c0.83-2.54,2.03-4.78,3.58-6.81c1.58-1.96,3.47-3.68,5.67-5.06c2.17-1.34,4.54-2.34,7.19-3.06
			c2.68-0.69,5.5-1.03,8.49-1.03c2.17,0,4.26,0.21,6.33,0.58c2.03,0.41,4.23,1.1,6.57,2.1l-1.51,4.85h-0.41
			c-1.75-1.41-3.65-2.44-5.64-3.06c-1.99-0.65-4.23-1-6.74-1c-2.06,0-3.99,0.24-5.78,0.76c-1.79,0.48-3.51,1.27-5.12,2.34
			c-1.58,1.03-2.99,2.34-4.2,3.92c-1.2,1.58-2.1,3.37-2.75,5.47c-0.69,2.17-0.89,3.99-0.62,5.57c0.28,1.55,0.86,2.82,1.79,3.78
			c0.93,1,2.2,1.75,3.71,2.27c1.55,0.48,3.27,0.72,5.16,0.72c2.61,0,5.12-0.34,7.63-1.03c2.48-0.69,4.95-1.69,7.32-3.03h0.38
			L629.69,452.28z"/>
		<path class="st2" d="M668.34,445.75c-0.38,1.2-1.13,2.37-2.24,3.54s-2.44,2.13-4.02,2.96c-1.72,0.89-3.65,1.55-5.74,2.06
			c-2.06,0.48-4.47,0.72-7.19,0.72c-2.92,0-5.5-0.21-7.7-0.62c-2.2-0.41-4.37-1.03-6.5-1.82l1.62-5.09h0.38
			c1.65,1.27,3.68,2.27,6.16,2.99c2.44,0.69,4.85,1.07,7.22,1.07c3.34,0,6.09-0.48,8.25-1.44s3.51-2.2,4.02-3.78
			c0.41-1.34,0.31-2.37-0.38-2.99c-0.69-0.65-1.86-1.13-3.51-1.51c-1.27-0.28-2.68-0.52-4.23-0.69c-1.51-0.17-3.13-0.41-4.81-0.69
			c-3.4-0.55-5.74-1.55-7.05-2.92c-1.31-1.41-1.58-3.23-0.86-5.47c0.83-2.58,2.92-4.68,6.29-6.33c3.4-1.65,7.29-2.48,11.69-2.48
			c2.85,0,5.4,0.21,7.67,0.62c2.24,0.41,4.16,0.93,5.81,1.51l-1.55,4.81h-0.38c-1.24-1-3.03-1.79-5.33-2.44c-2.3-0.65-4.75-1-7.39-1
			c-2.89,0-5.33,0.45-7.39,1.38c-2.03,0.93-3.27,2.06-3.71,3.47c-0.41,1.27-0.28,2.3,0.34,3.03c0.62,0.72,1.99,1.31,4.06,1.65
			c1.1,0.21,2.68,0.41,4.75,0.69c2.06,0.28,3.78,0.58,5.16,0.86c2.82,0.58,4.78,1.51,5.91,2.72
			C668.82,441.83,669.03,443.55,668.34,445.75"/>
		<path class="st2" d="M680.44,423.84h5.4l-8.36,26.65h22.97l-1.34,4.06h-23.56c-1.96,0-3.58-1.58-3.58-3.58
			c0-0.31,0.03-0.69,0.14-1L680.44,423.84z"/>
		<path class="st3" d="M481.99,414.59c1.65,7.94,8.05,12.93,15.58,12.93c6.81,0,12.35-4.44,14.31-10.59c0.17,1,0.52,2.06,0.52,3.13
			c0,10.97-9.53,19.84-20.53,19.84c-8.32,0-15.13-4.44-18.12-11.69c-2.61-5.19-3.68-12.62-3.68-19.05
			c0-24.86,19.57-45.05,43.91-46.91c0,0-18.4,3.82-27.72,23.73c0,0-3.54,5.88-4.71,16.47C481.57,402.49,480.51,407.47,481.99,414.59
			"/>
		
			<linearGradient id="SVGID_1_" gradientUnits="userSpaceOnUse" x1="482.1943" y1="394.8095" x2="531.1909" y2="423.0977" gradientTransform="matrix(1 0 0 -1 0 802)">
			<stop  offset="0" style="stop-color:#FFE900"/>
			<stop  offset="0.1279" style="stop-color:#FBCC01"/>
			<stop  offset="0.3781" style="stop-color:#F39902"/>
			<stop  offset="0.5966" style="stop-color:#EE7403"/>
			<stop  offset="0.7726" style="stop-color:#EA5D04"/>
			<stop  offset="0.884" style="stop-color:#E95504"/>
		</linearGradient>
		<path class="st4" d="M486.01,403.59c-0.14,4.54,0.31,8.6,1.62,12.69c1.27,3.82,5.36,6.29,9.29,6.29c4.88,0,8.87-3.99,8.87-8.87
			c0-1.79-0.55-3.54-1.48-4.95c-3.47-4.88-5.88-10.83-5.88-17.3c0-14.1,10.08-25.96,23.21-29.09
			C501.66,365.38,486.7,383.16,486.01,403.59"/>
		<path class="st3" d="M514,411.7c5.3,4.64,9.01,10.83,9.01,18.02c0,12.38-9.87,21.53-22.39,22.39c-0.41,0.03-0.96,0-1.34-0.03
			c1.44,0.24,3.13,0.62,4.61,0.55c15.2-0.86,29.3-12.59,30.61-28.96c0-5.5-1.31-10.56-4.85-15.27
			c-15.44-15.68-15.3-24.76-15.3-25.83c0-8.18,6.64-14.82,14.82-14.82c0,0,10.04-0.48,21.25,7.7c-6.47-5.91-14.31-10.83-24.62-11
			c-12.79,0.52-21.84,10.59-21.66,22.22c-0.1,2.24,0.1,4.47,0.28,6.84C504.99,400.8,509.33,407.51,514,411.7"/>
		<path class="st2" d="M494.4,449.91c-4.57-1.65-8.87-4.92-12.45-9.63c0,0,6.88,3.1,15.99,2.1c0,0,14.51-1.1,19.15-16.06
			c0,0,2.65,17.26-15.44,23.25c0,0-1.96,0.62-3.92,0.76C495.88,450.46,494.4,449.91,494.4,449.91"/>
		
			<linearGradient id="SVGID_2_" gradientUnits="userSpaceOnUse" x1="503.1702" y1="370.4996" x2="541.8234" y2="370.4996" gradientTransform="matrix(1 0 0 -1 0 802)">
			<stop  offset="0" style="stop-color:#FFE900"/>
			<stop  offset="1" style="stop-color:#E95504"/>
		</linearGradient>
		<path class="st5" d="M538.42,423.7c0,16.88-14.99,30.57-33.49,30.57c-0.58,0-1.17-0.03-1.75-0.07c6.98,2.89,14.44,2.3,14.44,2.3
			c11.83-1.03,24.21-14.72,24.21-27.92c0-6.74-0.65-13.93-8.43-22.15C533.43,406.44,538.42,415.45,538.42,423.7"/>
		<path class="st2" d="M545.02,420.82c0.1,0.03-1.96-8.39-4.99-12.9c-2.79-4.16-5.33-5.98-8.01-8.36c-1.72-1.34-5.23-4.33-5.23-4.33
			c-5.4-4.88-6.64-7.29-6.64-7.29c-1.13-1.69-1.79-3.71-1.79-5.81c0-5.06,3.61-9.32,8.56-10.69c12.1-2.96,21.66,5.16,21.66,5.16
			c15.99,12.31,16.09,33.12,16.09,33.12c0,15.44-6.02,26.41-16.54,35.56c11.14-11.97,13.51-26.27,13.51-26.27
			c2.3-13.31-2.34-23.01-2.34-23.01c-12.07-25.69-28.96-19.12-28.96-19.12c-3.2,0.83-5.54,3.71-5.54,7.15
			c0,0.41-0.31,5.06,6.77,11.49c2.68,2.54,6.02,5.09,8.67,8.87C544.44,410.22,545.23,416.9,545.02,420.82"/>
		<path class="st3" d="M533.16,455.41c5.78-0.62,14.2-2.48,14.2-2.48c22.25-5.78,27.27-14.65,50.41-31.26
			c23.11-16.61,47.46-15.44,47.46-15.44s-2.17-0.72-8.7-1.72c-6.5-1-15.03-1.31-15.03-1.31c-29.64,0.34-30.98,8.77-47.59,26.17
			c-16.61,17.4-32.08,19.91-32.08,19.91c8.84-7.39,15.47-20.56,16.44-35.01c0.34-5.61-0.76-11.14-2.65-16.09
			c0,0-7.22-18.47-20.81-18.26c0,0-7.84-0.14-5.57,6.5c0,0,1.07,2.48,6.22,6.77c8.77,6.47,13.48,17.26,13.48,28.89
			c0,16.61-9.04,27.72-21.97,33.46C526.9,455.51,528.93,455.82,533.16,455.41"/>
		
			<linearGradient id="SVGID_3_" gradientUnits="userSpaceOnUse" x1="539.6224" y1="442.4959" x2="614.6934" y2="442.4959" gradientTransform="matrix(1 0 0 -1 0 802)">
			<stop  offset="0" style="stop-color:#FFE900"/>
			<stop  offset="1" style="stop-color:#E95504"/>
		</linearGradient>
		<path class="st6" d="M566.45,352.14c-14.65,12.9-26.82,11.14-26.82,11.14c11.21,3.27,17.44,11.55,18.5,12.1
			c1.07,0.52,7.43-0.24,7.43-0.24c14.62-1.69,20.19-5.85,30.98-16.3c9.35-9.08,18.16-10.94,18.16-10.94
			c-3.89-0.79-18.02-3.65-18.02-3.65c-2.89-0.58-5.57-0.83-8.05-0.83C573.98,343.37,566.45,352.14,566.45,352.14"/>
		
			<linearGradient id="SVGID_4_" gradientUnits="userSpaceOnUse" x1="593.166" y1="415.6249" x2="681.4078" y2="415.6249" gradientTransform="matrix(1 0 0 -1 0 802)">
			<stop  offset="0" style="stop-color:#FFE900"/>
			<stop  offset="1" style="stop-color:#E95504"/>
		</linearGradient>
		<path class="st7" d="M675.18,370.61c-3.95,1.38-10.14,2.06-10.14,2.06c-5.06,0.31-8.22-0.38-11.49-1.03
			c-4.78-1-9.77-1.99-21.11,0.1c-19.88,3.68-39.27,33.36-39.27,33.36s1.55-0.48,4.61-2.13c3.09-1.65,5.09-2.61,5.09-2.61
			c11.62-4.75,19.09-4.02,19.09-4.02c3.37-0.28,7.12,0,11.07,0.31c7.43,0.55,15.68,1.13,23.9-2.2
			c12.55-5.09,24.48-26.79,24.48-26.79S678.76,369.37,675.18,370.61"/>
		
			<linearGradient id="SVGID_5_" gradientUnits="userSpaceOnUse" x1="559.8431" y1="409.5897" x2="710.0538" y2="409.5897" gradientTransform="matrix(1 0 0 -1 0 802)">
			<stop  offset="0" style="stop-color:#FFE900"/>
			<stop  offset="1" style="stop-color:#E95504"/>
		</linearGradient>
		<path class="st8" d="M560.98,378.45c0,0,0.03,0,0.07,0.03C561.01,378.45,560.98,378.41,560.98,378.45
			C560.98,378.41,560.98,378.45,560.98,378.45 M666.41,356.68c-8.22,3.95-11.83,6.19-16.92,5.81c-4.37-0.34-7.81-2.89-7.81-2.89
			c-12.07-8.12-26-11.55-41.95,5.81c-18.05,19.64-37.38,13.48-38.69,13.07c0.17,0.14,0.83,1,3.16,5.19
			c3.51,6.26,4.95,15.1,4.95,15.1c4.92,23.9-9.32,37.52-9.32,37.52c5.23-4.16,8.43-6.05,17.71-17.09
			c9.7-11.55,11.62-17.68,26.03-36.45c10.87-14.13,25.04-17.57,33.67-18.26c0,0,5.16-0.72,12.45,0.89
			c6.29,1.38,13.76,5.16,32.15-3.03c19.98-8.87,28.2-6.71,28.2-6.71s-6.64-7.12-18.71-7.12C677.8,348.5,674.12,353,666.41,356.68"/>
	</g>
</g>
</svg>
