<?xml version="1.0" encoding="utf-8"?>
<!-- Generator: Adobe Illustrator 23.0.3, SVG Export Plug-In . SVG Version: 6.00 Build 0)  -->
<svg version="1.1" id="图层_1" xmlns="http://www.w3.org/2000/svg" xmlns:xlink="http://www.w3.org/1999/xlink" x="0px" y="0px"
	 viewBox="0 0 800 800" style="enable-background:new 0 0 800 800;" xml:space="preserve">
<style type="text/css">
	.st0{fill:#C95D2B;}
</style>
<path class="st0" d="M274.45,479.87l1.42,3.7h-2.77L274.45,479.87z M204.21,479.04c-0.83,0-1.52,0.31-2.01,0.86
	c-0.59,0.59-0.8,1.45-0.8,2.59c0,1.14,0.28,2.01,0.8,2.59c0.52,0.55,1.18,0.86,2.01,0.86c0.8,0,1.49-0.31,1.97-0.86
	c0.48-0.55,0.8-1.45,0.8-2.63c0-1.14-0.28-2.01-0.76-2.59C205.73,479.32,205.04,479.04,204.21,479.04z M350.37,479.04
	c-0.83,0-1.52,0.31-2.01,0.86c-0.55,0.59-0.8,1.45-0.8,2.59c0,1.14,0.28,2.01,0.8,2.59c0.52,0.55,1.18,0.86,2.01,0.86
	s1.49-0.31,1.97-0.86c0.48-0.55,0.8-1.45,0.8-2.63c0-1.14-0.28-2.01-0.76-2.59C351.89,479.32,351.2,479.04,350.37,479.04z
	 M303.87,479.04c-0.83,0-1.52,0.31-2.01,0.86c-0.52,0.59-0.8,1.45-0.8,2.59c0,1.14,0.28,2.01,0.8,2.59
	c0.52,0.55,1.18,0.86,2.01,0.86s1.49-0.31,1.97-0.86c0.48-0.55,0.8-1.45,0.8-2.63c0-1.14-0.28-2.01-0.76-2.59
	C305.39,479.32,304.7,479.04,303.87,479.04z M326.9,483.57h2.77l-1.42-3.7L326.9,483.57z M145.68,460.1h7.36v-18.15h-7.36V460.1z
	 M235.56,483.33c-0.28-0.1-0.86-0.14-1.8-0.14l-1.62-0.03v2.7h1.9c0.73,0,1.21-0.03,1.42-0.07c0.31-0.03,0.52-0.17,0.73-0.41
	c0.17-0.24,0.28-0.48,0.28-0.83c0-0.31-0.07-0.55-0.24-0.76C236.08,483.54,235.88,483.4,235.56,483.33z M234.94,481.46
	c0.35-0.03,0.62-0.14,0.83-0.35c0.17-0.17,0.31-0.45,0.31-0.8c0-0.31-0.07-0.55-0.28-0.76c-0.17-0.17-0.41-0.31-0.76-0.35
	c-0.17-0.03-0.8-0.03-1.73-0.03h-1.18v2.32h1.31C234.25,481.5,234.73,481.5,234.94,481.46z M364.13,330.15
	c0,9.09-7.4,16.49-16.49,16.49s-16.49-7.4-16.49-16.49s7.4-16.49,16.49-16.49S364.13,321.06,364.13,330.15z M342.49,316.33
	l5.15,1.94l5.01-1.94l-1.35-1.24l-7.16-0.17L342.49,316.33z M332.74,330.84l3.49-4.08l-0.1-5.53l-1.9,1.11l-2.21,6.81L332.74,330.84
	z M343.73,344.12l-2.94-4.46l-5.32-1.45l0.52,2.14l5.95,4.01L343.73,344.12z M352.13,336.79l3.01-7.67l-7.19-6.5l-7.16,5.84
	l3.01,8.33H352.13z M360.01,338.21l-5.32,1.45l-2.94,4.46l1.8,0.24l5.95-4.01L360.01,338.21z M359.36,326.76l3.46,4.08l0.76-1.69
	l-2.25-6.81l-1.87-1.11L359.36,326.76z M215.06,479.04c-0.83,0-1.52,0.31-2.01,0.86c-0.52,0.59-0.8,1.45-0.8,2.59
	c0,1.14,0.28,2.01,0.8,2.59c0.52,0.55,1.18,0.86,2.01,0.86c0.8,0,1.49-0.31,1.97-0.86c0.48-0.55,0.8-1.45,0.8-2.63
	c0-1.14-0.28-2.01-0.76-2.59C216.59,479.32,215.89,479.04,215.06,479.04z M242.79,483.57h2.77l-1.42-3.7L242.79,483.57z M750,312.21
	v219.09c0,15.82-12.83,28.65-28.65,28.65H78.65c-15.82,0-28.65-12.83-28.65-28.65V268.71c0-15.82,12.83-28.65,28.65-28.65h599.19
	C717.7,240.05,750,272.36,750,312.21z M329.83,451.63v2.39h7.71l-7.36,15.14h4.42h2.94h19.57h1.8h2.66
	c0.69-1.07,0.86-1.42,1.56-2.45l-4.91-10.16h-7.16l4.98,10.23h-17.22l6.19-12.72h19.5v-2.42H329.83z M362.92,448.21v-2.42h-31.67
	v2.42H362.92z M340.65,414.64l-33.98-86.7l-11.2,29.18l10.27,26.13h-20.36l-7.74,20.4h36.16l4.25,10.99H340.65z M275.35,451.28
	l3.21,18.32h4.87l-3.25-18.32H275.35z M280.54,449.73l1.62-7.64h-4.84l-1.59,7.64H280.54z M277.19,331.43l-32.05,83.52h22.57
	l4.42-11.3l29.35-76.19h-17.53C280.26,327.46,278.19,328.74,277.19,331.43z M260.59,469.61h4.84l3.25-18.32h-4.87L260.59,469.61z
	 M263.15,449.73h4.81l-1.59-7.64h-4.84L263.15,449.73z M260.94,436.32h-13.17v2.45h3.7v9.44h-2.9v2.39h2.9v15.83l-3.87,0.31
	l0.21,2.42l12.44-1.11l-0.21-2.39l-2.77,0.24v-15.31h2.87v-2.39h-2.87v-9.44h3.66V436.32z M199.61,414.81h21.47v-26.45h16.28
	c2.39,0,4.42-1.42,5.22-3.66l6.46-17.22h-28.28v-18.81h31.6c2.39,0,4.42-1.42,5.22-3.66l6.46-17.04v-0.48h-64.44V414.81z
	 M123.66,371.64c0,32.67,26.38,43.35,39.48,43.35h16.73c3.15,0,5.67-2.56,5.67-5.74v-13.86c0,0-9.64,0-17.84,0
	s-23.54-5.74-23.54-23.75c0-18.18,16.59-23.27,24.48-23.27h11.51c3.15,0,5.67-2.56,5.67-5.74v-15.14c0,0-2.83,0-18.32,0
	C151.77,327.63,123.66,338.93,123.66,371.64z M192.97,440.33h-19.32v2.42h6.46v4.98h-6.46v2.39h6.46v12.13h-6.36v2.42h19.36v-2.42
	h-7.12v-12.13h6.98v-2.39h-6.98v-4.98h6.98V440.33z M191.07,452.39h-4.84l2.25,8.3h4.81L191.07,452.39z M126.67,482.4
	c0-1.18,0.24-2.07,0.69-2.59c0.48-0.52,1.07-0.8,1.83-0.8c0.52,0,0.97,0.14,1.35,0.45c0.38,0.31,0.66,0.73,0.76,1.24l2.01-0.48
	c-0.24-0.8-0.59-1.45-1.04-1.87c-0.76-0.73-1.8-1.11-3.01-1.11c-1.42,0-2.56,0.52-3.42,1.42c-0.86,0.97-1.28,2.25-1.28,3.91
	c0,1.62,0.41,2.87,1.28,3.77s1.97,1.35,3.28,1.35c1.07,0,1.94-0.28,2.66-0.8c0.73-0.52,1.21-1.31,1.52-2.42l-1.97-0.62
	c-0.17,0.73-0.45,1.28-0.76,1.56c-0.45,0.35-0.9,0.52-1.42,0.52c-0.73,0-1.35-0.24-1.8-0.8
	C126.91,484.54,126.67,483.64,126.67,482.4z M143.06,477.52h-2.01v3.94h-3.98v-3.94h-2.01v10.03h2.01v-4.39h3.98v4.39h2.01V477.52z
	 M147.1,477.52h-2.01v10.03h2.01V477.52z M157.02,477.52h-1.9v6.71l-4.08-6.71h-1.97v10.03h1.87v-6.57l4.04,6.57h2.04V477.52z
	 M158.92,439.56h-0.14v-0.03h-5.74h-7.36v-4.91h-6.12v4.91h-5.15h-1.97v2.42h7.16v18.15h-7.95v-20.53h-5.88h-1.21
	c0,0.1,0.03,0.28,0.1,0.38l1.11,1.8v18.36v2.42h5.84h7.95v7.19h6.15v-7.19h7.33h0.69h3.11c1.14,0,2.07-0.9,2.07-2.07V439.56z
	 M166.81,485.89h-5.6v-2.73h5.05v-1.69h-5.05v-2.25h5.43v-1.69h-7.43v10.03v0.03h7.61V485.89z M176.17,484.68
	c0-0.66-0.14-1.18-0.41-1.59c-0.28-0.41-0.66-0.76-1.11-1.04c-0.52-0.28-1.24-0.48-2.21-0.73c-1-0.24-1.59-0.45-1.87-0.69
	c-0.21-0.17-0.31-0.38-0.31-0.62c0-0.24,0.07-0.48,0.31-0.62c0.35-0.28,0.8-0.38,1.42-0.38c0.55,0,0.97,0.1,1.28,0.35
	c0.28,0.24,0.48,0.59,0.55,1.11l2.01-0.07c0-0.93-0.35-1.66-0.97-2.21c-0.62-0.55-1.59-0.83-2.83-0.83c-0.76,0-1.45,0.1-1.97,0.35
	c-0.52,0.24-0.93,0.59-1.24,1.04c-0.28,0.48-0.41,0.97-0.41,1.45c0,0.8,0.28,1.45,0.9,2.01c0.41,0.35,1.18,0.69,2.28,0.97
	c0.83,0.21,1.38,0.38,1.62,0.45c0.35,0.1,0.59,0.28,0.73,0.41c0.17,0.17,0.24,0.38,0.24,0.62c0,0.35-0.14,0.69-0.48,0.97
	s-0.83,0.41-1.49,0.41c-0.66,0-1.11-0.14-1.49-0.45c-0.38-0.31-0.62-0.8-0.73-1.45l-1.97,0.17c0.17,1.07,0.52,1.97,1.21,2.66
	c0.66,0.55,1.66,0.86,2.9,0.86c0.9,0,1.66-0.14,2.21-0.38c0.59-0.28,1.04-0.66,1.35-1.14C176.04,485.78,176.17,485.23,176.17,484.68
	z M185.51,485.89h-5.6v-2.73h5.05v-1.69h-5.05v-2.25h5.43v-1.69h-7.43v10.03v0.03h7.61V485.89z M198.06,477.52h-6.88v10.03v0.03
	h2.04v-4.29h4.22v-1.69h-4.22v-2.39h4.84V477.52z M198.06,469.12c1.14,0,2.07-0.9,2.07-2.07v-31.87h-3.11v0.03h-2.7h-14.21h-6.08
	v2.42h20.26v29.11h-21.74v-31.53h-5.84h-1.18c0,0.14,0.03,0.28,0.1,0.38l1.07,1.69v31.84h4.01h1.83h21.74h0.83H198.06z
	 M208.95,482.53c0-1.62-0.45-2.94-1.31-3.84c-0.9-0.9-2.07-1.35-3.56-1.35c-0.8,0-1.49,0.1-2.14,0.38c-0.45,0.17-0.9,0.48-1.28,0.9
	c-0.41,0.38-0.69,0.86-0.93,1.35c-0.31,0.69-0.45,1.56-0.45,2.59c0,1.59,0.45,2.83,1.28,3.77c0.86,0.9,2.07,1.35,3.56,1.35
	c1.49,0,2.66-0.45,3.53-1.35C208.5,485.4,208.95,484.16,208.95,482.53z M209.71,469.09h3.91h28.49v-2.63l-14.66,0.07v-10.58h13.52
	v-2.63h-13.52v-4.74h5.88h5.81c1.14,0,2.07-0.9,2.07-2.07v-11.58h-7.88h-16.35v3.21h16.35v7.88h-17.91v-11.06h-4.01h-3.84h-1.18
	c0,0.14,0.03,0.28,0.1,0.38l1.07,1.73v11.55h7.33h6.4v17.87h-7.19l2.87-16.01h-6.53l-3.39,18.6H209.71z M219.87,482.53
	c0-1.62-0.45-2.94-1.31-3.84c-0.9-0.9-2.07-1.35-3.56-1.35c-0.8,0-1.49,0.1-2.14,0.38c-0.45,0.17-0.9,0.48-1.28,0.9
	c-0.41,0.38-0.69,0.86-0.93,1.35c-0.31,0.69-0.45,1.56-0.45,2.59c0,1.59,0.45,2.83,1.28,3.77c0.86,0.9,2.07,1.35,3.56,1.35
	c1.49,0,2.66-0.45,3.53-1.35C219.42,485.4,219.87,484.16,219.87,482.53z M228.79,477.52h-7.99v1.69h2.97v8.33h2.07v-8.33h2.94
	V477.52z M238.5,484.57c0-0.59-0.14-1.11-0.48-1.52c-0.31-0.41-0.8-0.73-1.42-0.9c0.41-0.17,0.76-0.48,1.04-0.86
	c0.28-0.38,0.38-0.83,0.38-1.28c0-0.41-0.14-0.83-0.31-1.18c-0.21-0.35-0.45-0.59-0.76-0.83c-0.31-0.24-0.69-0.35-1.07-0.41
	c-0.38-0.07-1-0.1-1.8-0.1h-3.98v9.99h3.42c1.31,0,2.11-0.03,2.45-0.07c0.52-0.07,0.97-0.21,1.35-0.48
	c0.38-0.28,0.62-0.62,0.86-1.04C238.4,485.47,238.5,485.02,238.5,484.57z M249.25,487.55l-4.01-10.03h-2.14l-3.91,10.03h2.14
	l0.83-2.28h4.01l0.86,2.28H249.25z M257.45,485.85h-5.05v-8.26h-2.01v9.96h7.05V485.85z M266.02,485.85h-5.05v-8.26h-2.01v9.96h7.05
	V485.85z M269.23,469.54h3.6c1.14,0,2.07-0.9,2.07-2.07v-27.07h7.74v-2.45h-0.9v-1.8h-4.11v1.87h-2.7v-3.15h-3.01h-2.83h-1.11
	c0,0.1,0.03,0.28,0.1,0.35l0.97,1.59v1.18h-7.78v2.45h7.74v25.89c0,0.66-0.52,1.18-1.18,1.18h-1.42v2.04h2.63H269.23z
	 M279.64,487.55l-4.04-10.03h-2.14l-3.91,10.03h2.18l0.83-2.28h4.01l0.86,2.28H279.64z M288.42,484.68c0-0.66-0.14-1.18-0.41-1.59
	c-0.28-0.41-0.66-0.76-1.11-1.04c-0.52-0.28-1.24-0.48-2.21-0.73c-1-0.24-1.59-0.45-1.87-0.69c-0.21-0.17-0.31-0.38-0.31-0.62
	c0-0.24,0.07-0.48,0.31-0.62c0.28-0.28,0.73-0.38,1.35-0.38c0.55,0,0.97,0.1,1.28,0.35c0.28,0.24,0.48,0.59,0.55,1.11l2.01-0.07
	c0-0.93-0.31-1.66-0.97-2.21c-0.62-0.55-1.59-0.83-2.83-0.83c-0.76,0-1.45,0.1-1.97,0.35c-0.52,0.24-0.93,0.59-1.24,1.04
	c-0.28,0.48-0.41,0.97-0.41,1.45c0,0.8,0.28,1.45,0.9,2.01c0.41,0.35,1.18,0.69,2.28,0.97c0.83,0.21,1.38,0.38,1.62,0.45
	c0.35,0.1,0.59,0.28,0.73,0.41c0.17,0.17,0.24,0.38,0.24,0.62c0,0.35-0.14,0.69-0.48,0.97s-0.83,0.41-1.49,0.41
	c-0.66,0-1.11-0.14-1.49-0.45s-0.62-0.8-0.73-1.45l-1.97,0.17c0.14,1.07,0.55,1.97,1.28,2.66c0.66,0.55,1.66,0.86,2.9,0.86
	c0.9,0,1.66-0.14,2.21-0.38c0.59-0.28,1.04-0.66,1.35-1.14C288.28,485.78,288.42,485.23,288.42,484.68z M288.84,447.1h2.59v22.37
	h5.84V447.1h2.56v-2.42h-2.56v-9.96h-5.84v9.96h-2.59V447.1z M299.38,469.16h3.87l1.76-25.86h-3.8L299.38,469.16z M297.72,484.68
	c0-0.66-0.14-1.18-0.41-1.59c-0.28-0.41-0.66-0.76-1.11-1.04c-0.52-0.28-1.24-0.48-2.21-0.73c-1-0.24-1.59-0.45-1.87-0.69
	c-0.21-0.17-0.31-0.38-0.31-0.62c0-0.24,0.07-0.48,0.31-0.62c0.35-0.28,0.8-0.38,1.42-0.38c0.55,0,0.97,0.1,1.28,0.35
	c0.28,0.24,0.48,0.59,0.55,1.11l2.01-0.07c0-0.93-0.31-1.66-0.97-2.21c-0.62-0.55-1.59-0.83-2.83-0.83c-0.76,0-1.45,0.1-1.97,0.35
	c-0.52,0.24-0.93,0.59-1.24,1.04c-0.28,0.48-0.41,0.97-0.41,1.45c0,0.8,0.28,1.45,0.9,2.01c0.41,0.35,1.18,0.69,2.28,0.97
	c0.83,0.21,1.38,0.38,1.62,0.45c0.35,0.1,0.59,0.28,0.73,0.41c0.17,0.17,0.24,0.38,0.24,0.62c0,0.35-0.14,0.69-0.48,0.97
	c-0.35,0.28-0.83,0.41-1.49,0.41s-1.11-0.14-1.49-0.45s-0.62-0.8-0.73-1.45l-1.97,0.17c0.1,1.07,0.52,1.97,1.21,2.66
	c0.66,0.55,1.66,0.86,2.9,0.86c0.9,0,1.59-0.1,2.21-0.38c0.59-0.28,1.04-0.66,1.35-1.14C297.58,485.78,297.72,485.23,297.72,484.68z
	 M308.68,482.53c0-1.62-0.45-2.94-1.31-3.84c-0.9-0.9-2.07-1.35-3.56-1.35c-0.8,0-1.49,0.1-2.14,0.38c-0.45,0.17-0.9,0.48-1.28,0.9
	c-0.41,0.38-0.69,0.86-0.93,1.35c-0.31,0.69-0.45,1.56-0.45,2.59c0,1.59,0.45,2.83,1.28,3.77c0.86,0.9,2.07,1.35,3.56,1.35
	c1.49,0,2.66-0.45,3.53-1.35C308.23,485.4,308.68,484.16,308.68,482.53z M312.07,482.4c0-1.18,0.24-2.07,0.69-2.59
	c0.48-0.52,1.07-0.8,1.83-0.8c0.52,0,0.97,0.14,1.35,0.45c0.38,0.31,0.66,0.73,0.76,1.24l2.01-0.48c-0.24-0.8-0.59-1.45-1.04-1.87
	c-0.76-0.73-1.8-1.11-3.01-1.11c-1.42,0-2.56,0.52-3.42,1.42c-0.86,0.97-1.28,2.25-1.28,3.91c0,1.62,0.41,2.87,1.28,3.77
	s1.97,1.35,3.28,1.35c1.07,0,1.94-0.28,2.66-0.8c0.73-0.52,1.21-1.31,1.52-2.42l-1.97-0.62c-0.14,0.73-0.45,1.28-0.76,1.56
	c-0.45,0.35-0.9,0.52-1.42,0.52c-0.73,0-1.35-0.24-1.8-0.8C312.31,484.54,312.07,483.64,312.07,482.4z M319.05,438.8h-0.38
	l-5.5-0.03h-1.52l0.24-4.11h-5.15l-0.24,4.11h-5.77v2.42h5.57l-1.49,28.35h5.19l1.49-28.35h1.66v24.44c0,0.97-0.8,1.8-1.8,1.8h-0.38
	v2.25h2.21h0.35h3.46c1.14,0,2.07-0.9,2.07-2.07V438.8z M322.37,477.52h-2.01v10.03h2.01V477.52z M322.99,443.3h-2.77v25.89h2.77
	V443.3z M333.4,487.55l-4.01-10.03h-2.14l-3.91,10.03h2.14l0.83-2.28h4.01l0.86,2.28H333.4z M340.65,477.52h-7.99v1.69h3.01v8.33
	h2.04v-8.33h2.94V477.52z M343.94,477.52h-2.01v10.03h2.01V477.52z M355.17,482.53c0-1.62-0.45-2.94-1.31-3.84
	c-0.9-0.9-2.07-1.35-3.56-1.35c-0.8,0-1.49,0.1-2.14,0.38c-0.45,0.17-0.9,0.48-1.28,0.9c-0.41,0.38-0.69,0.86-0.93,1.35
	c-0.31,0.69-0.45,1.56-0.45,2.59c0,1.59,0.41,2.83,1.28,3.77c0.86,0.9,2.07,1.35,3.56,1.35c1.49,0,2.66-0.45,3.53-1.35
	C354.72,485.4,355.17,484.16,355.17,482.53z M364.75,477.52h-1.9v6.71l-4.08-6.71h-1.97v10.03h1.9v-6.57l4.01,6.57h2.04V477.52z
	 M364.78,443.44l-6.91-8.43h-1.49h-5.95h-6.19h-7.43h-3.21l1.35,2.25l-5.05,6.19h7.43l4.98-6.05h10.09l4.94,6.05H364.78z
	 M365.65,330.19c0-9.96-8.05-18.01-18.01-18.01s-18.01,8.05-18.01,18.01c0,9.96,8.05,18.01,18.01,18.01S365.65,340.14,365.65,330.19
	z M738.71,313.28c0-34.21-27.73-61.94-61.94-61.94H461.05c-10.86,0-19.66,8.8-19.66,19.66v215.72c0,34.21,27.73,61.94,61.94,61.94
	h215.72c10.86,0,19.66-8.8,19.66-19.66V313.28z M631.3,447.47h-0.38c-2.37,1.34-4.85,2.34-7.32,3.03c-2.51,0.69-5.02,1.03-7.63,1.03
	c-1.89,0-3.61-0.24-5.16-0.72c-1.51-0.52-2.79-1.27-3.71-2.27c-0.93-0.96-1.51-2.24-1.79-3.78c-0.28-1.58-0.07-3.4,0.62-5.57
	c0.65-2.1,1.55-3.89,2.75-5.47c1.2-1.58,2.61-2.89,4.2-3.92c1.62-1.07,3.34-1.86,5.12-2.34c1.79-0.52,3.71-0.76,5.78-0.76
	c2.51,0,4.75,0.34,6.74,1c1.99,0.62,3.89,1.65,5.64,3.06h0.41l1.51-4.85c-2.34-1-4.54-1.69-6.57-2.1c-2.06-0.38-4.16-0.58-6.33-0.58
	c-2.99,0-5.81,0.34-8.49,1.03c-2.65,0.72-5.02,1.72-7.19,3.06c-2.2,1.38-4.09,3.1-5.67,5.06c-1.55,2.03-2.75,4.26-3.58,6.81
	c-0.83,2.65-1.1,5.02-0.76,7.02c0.34,1.99,1.17,3.65,2.51,4.95c1.34,1.34,3.13,2.34,5.33,2.96c2.2,0.62,4.78,0.93,7.7,0.93
	c1.58,0,3.03-0.07,4.37-0.28c1.34-0.17,2.61-0.41,3.82-0.65c1.41-0.31,2.54-0.62,3.44-0.89c0.93-0.28,1.93-0.58,3.03-0.93
	L631.3,447.47z M668.34,445.75c0.69-2.2,0.48-3.92-0.65-5.19c-1.13-1.2-3.1-2.13-5.91-2.72c-1.38-0.28-3.09-0.58-5.16-0.86
	c-2.06-0.28-3.65-0.48-4.75-0.69c-2.06-0.34-3.44-0.93-4.06-1.65c-0.62-0.72-0.76-1.75-0.34-3.03c0.45-1.41,1.69-2.54,3.71-3.47
	c2.06-0.93,4.5-1.38,7.39-1.38c2.65,0,5.09,0.34,7.39,1c2.3,0.65,4.09,1.44,5.33,2.44h0.38l1.55-4.81c-1.65-0.58-3.58-1.1-5.81-1.51
	c-2.27-0.41-4.81-0.62-7.67-0.62c-4.4,0-8.29,0.83-11.69,2.48c-3.37,1.65-5.47,3.75-6.29,6.33c-0.72,2.24-0.45,4.06,0.86,5.47
	c1.31,1.38,3.65,2.37,7.05,2.92c1.69,0.28,3.3,0.52,4.81,0.69c1.55,0.17,2.96,0.41,4.23,0.69c1.65,0.38,2.82,0.86,3.51,1.51
	c0.69,0.62,0.79,1.65,0.38,2.99c-0.52,1.58-1.86,2.82-4.02,3.78s-4.92,1.44-8.25,1.44c-2.37,0-4.78-0.38-7.22-1.07
	c-2.48-0.72-4.5-1.72-6.16-2.99h-0.38l-1.62,5.09c2.13,0.79,4.3,1.41,6.5,1.82c2.2,0.41,4.78,0.62,7.7,0.62
	c2.72,0,5.12-0.24,7.19-0.72c2.1-0.52,4.02-1.17,5.74-2.06c1.58-0.83,2.92-1.79,4.02-2.96S667.96,446.95,668.34,445.75
	 M672.12,449.98c-0.1,0.31-0.14,0.69-0.14,1c0,1.99,1.62,3.58,3.58,3.58h23.56l1.34-4.06h-22.97l8.36-26.65h-5.4L672.12,449.98z
	 M481.99,414.59c-1.48-7.12-0.41-12.1-0.45-12.14c1.17-10.59,4.71-16.47,4.71-16.47c9.32-19.91,27.72-23.73,27.72-23.73
	c-24.35,1.86-43.91,22.04-43.91,46.91c0,6.43,1.07,13.86,3.68,19.05c2.99,7.26,9.8,11.69,18.12,11.69c11,0,20.53-8.87,20.53-19.84
	c0-1.07-0.34-2.13-0.52-3.13c-1.96,6.16-7.5,10.59-14.31,10.59C490.03,427.52,483.64,422.54,481.99,414.59 M486.01,403.59
	c0.69-20.43,15.65-38.21,35.63-41.23c-13.14,3.13-23.21,14.99-23.21,29.09c0,6.47,2.41,12.41,5.88,17.3
	c0.93,1.41,1.48,3.16,1.48,4.95c0,4.88-3.99,8.87-8.87,8.87c-3.92,0-8.01-2.48-9.29-6.29C486.32,412.18,485.87,408.13,486.01,403.59
	 M514,411.7c-4.68-4.2-9.01-10.9-9.59-18.19c-0.17-2.37-0.38-4.61-0.28-6.84c-0.17-11.62,8.87-21.7,21.66-22.22
	c10.32,0.17,18.16,5.09,24.62,11c-11.21-8.18-21.25-7.7-21.25-7.7c-8.18,0-14.82,6.64-14.82,14.82c0,1.07-0.14,10.14,15.3,25.83
	c3.54,4.71,4.85,9.77,4.85,15.27c-1.31,16.37-15.41,28.1-30.61,28.96c-1.48,0.07-3.16-0.31-4.61-0.55c0.38,0.03,0.93,0.07,1.34,0.03
	c12.52-0.86,22.39-10.01,22.39-22.39C523.01,422.54,519.3,416.35,514,411.7 M494.4,449.91c0,0,1.48,0.55,3.34,0.41
	c1.96-0.14,3.92-0.76,3.92-0.76c18.09-5.98,15.44-23.25,15.44-23.25c-4.64,14.96-19.15,16.06-19.15,16.06
	c-9.11,1-15.99-2.1-15.99-2.1C485.53,444.99,489.83,448.26,494.4,449.91 M538.42,423.7c0-8.25-4.99-17.26-5.02-17.26
	c7.77,8.22,8.43,15.41,8.43,22.15c0,13.21-12.38,26.89-24.21,27.92c0,0-7.46,0.58-14.44-2.3c0.58,0.03,1.17,0.07,1.75,0.07
	C523.43,454.28,538.42,440.59,538.42,423.7 M545.02,420.82c0.21-3.92-0.58-10.59-4.75-16.44c-2.65-3.78-5.98-6.33-8.67-8.87
	c-7.08-6.43-6.77-11.07-6.77-11.49c0-3.44,2.34-6.33,5.54-7.15c0,0,16.88-6.57,28.96,19.12c0,0,4.64,9.7,2.34,23.01
	c0,0-2.37,14.31-13.51,26.27c10.52-9.15,16.54-20.12,16.54-35.56c0,0-0.1-20.81-16.09-33.12c0,0-9.56-8.12-21.66-5.16
	c-4.95,1.38-8.56,5.64-8.56,10.69c0,2.1,0.65,4.13,1.79,5.81c0,0,1.24,2.41,6.64,7.29c0,0,3.51,2.99,5.23,4.33
	c2.68,2.37,5.23,4.2,8.01,8.36C543.06,412.42,545.12,420.85,545.02,420.82 M533.16,455.41c-4.23,0.41-6.26,0.1-6.19,0.14
	c12.93-5.74,21.97-16.85,21.97-33.46c0-11.62-4.71-22.42-13.48-28.89c-5.16-4.3-6.22-6.77-6.22-6.77c-2.27-6.64,5.57-6.5,5.57-6.5
	c13.58-0.21,20.81,18.26,20.81,18.26c1.89,4.95,2.99,10.49,2.65,16.09c-0.96,14.44-7.6,27.61-16.44,35.01
	c0,0,15.47-2.51,32.08-19.91c16.61-17.4,17.95-25.83,47.59-26.17c0,0,8.53,0.31,15.03,1.31c6.53,1,8.7,1.72,8.7,1.72
	s-24.35-1.17-47.46,15.44c-23.14,16.61-28.16,25.48-50.41,31.26C547.36,452.93,538.93,454.79,533.16,455.41 M566.45,352.14
	c0,0,7.53-8.77,22.18-8.7c2.48,0,5.16,0.24,8.05,0.83c0,0,14.13,2.85,18.02,3.65c0,0-8.8,1.86-18.16,10.94
	c-10.8,10.45-16.37,14.62-30.98,16.3c0,0-6.36,0.76-7.43,0.24c-1.07-0.55-7.29-8.84-18.5-12.1
	C539.62,363.28,551.8,365.04,566.45,352.14 M675.18,370.61c3.58-1.24,6.22-2.96,6.22-2.96s-11.93,21.7-24.48,26.79
	c-8.22,3.34-16.47,2.75-23.9,2.2c-3.95-0.31-7.7-0.58-11.07-0.31c0,0-7.46-0.72-19.09,4.02c0,0-1.99,0.96-5.09,2.61
	c-3.06,1.65-4.61,2.13-4.61,2.13s19.4-29.68,39.27-33.36c11.35-2.1,16.33-1.1,21.11-0.1c3.27,0.65,6.43,1.34,11.49,1.03
	C665.04,372.67,671.23,371.98,675.18,370.61 M560.98,378.45C560.98,378.45,560.98,378.41,560.98,378.45c0-0.03,0.03,0,0.07,0.03
	C561.01,378.45,560.98,378.45,560.98,378.45 M666.41,356.68c7.7-3.68,11.38-8.18,24.93-8.15c12.07,0,18.71,7.12,18.71,7.12
	s-8.22-2.17-28.2,6.71c-18.4,8.18-25.86,4.4-32.15,3.03c-7.29-1.62-12.45-0.89-12.45-0.89c-8.63,0.69-22.8,4.13-33.67,18.26
	c-14.41,18.78-16.33,24.9-26.03,36.45c-9.29,11.04-12.48,12.93-17.71,17.09c0,0,14.24-13.62,9.32-37.52c0,0-1.44-8.84-4.95-15.1
	c-2.34-4.2-2.99-5.06-3.16-5.19c1.31,0.41,20.63,6.57,38.69-13.07c15.96-17.37,29.88-13.93,41.95-5.81c0,0,3.44,2.54,7.81,2.89
	C654.58,362.87,658.2,360.64,666.41,356.68"/>
</svg>
