<?xml version="1.0" encoding="utf-8"?>
<!-- Generator: Adobe Illustrator 22.1.0, SVG Export Plug-In . SVG Version: 6.00 Build 0)  -->
<svg version="1.1" id="图层_1" xmlns="http://www.w3.org/2000/svg" xmlns:xlink="http://www.w3.org/1999/xlink" x="0px" y="0px"
	 viewBox="0 0 800 800" style="enable-background:new 0 0 800 800;" xml:space="preserve">
<style type="text/css">
	.st0{fill:#FFF003;}
	.st1{fill:#019845;}
	.st2{fill:#1FAB39;}
	.st3{fill:#FFFFFF;}
</style>
<g>
	<path class="st0" d="M641.4,101.6c0,0-130.3,60.3-241.4-51.6c-111.1,111.9-241.4,51.6-241.4,51.6C129,336.1,139.3,451.9,141.7,473
		c0.3,2.3,0.9,4.6,2,6.6C247.1,687.2,400,750,400,750s152.9-62.8,256.4-270.3c1-2.1,1.7-4.3,2-6.6C660.7,451.9,671,336,641.4,101.6z
		"/>
	<path class="st1" d="M628.1,118.1c0,0-123.1,57-228.1-48.8C295,175,171.9,118.1,171.9,118.1c-28,221.5-18.3,331-16,350.9
		c0.2,2.2,0.9,4.3,1.9,6.3C255.5,671.4,400,730.7,400,730.7s144.5-59.3,242.2-255.4c1-2,1.6-4.1,1.9-6.3
		C646.4,449,656.1,339.6,628.1,118.1z"/>
	<path class="st2" d="M617,397.2l-174.8,34.1c-0.1-0.3-0.2-0.6-0.3-0.9h0.4l174.5-63.5c-0.1-5.1-0.2-10.4-0.4-15.9l-177.8,71.7
		c-0.1-0.2-0.2-0.4-0.3-0.5l1.2-0.4l175.5-104.8c-0.3-5.3-0.6-10.8-0.9-16.4L433.4,414.6c0,0,0-0.1-0.1-0.1l0.3-0.2L611,255
		c-0.5-6.7-1.1-13.5-1.8-20.5L427.9,408.8c-0.1-0.1-0.3-0.2-0.4-0.4l0.2-0.1l175.4-233.6c-0.8-6.5-1.5-13.1-2.4-19.9
		c-2.7,0.9-5.8,1.9-9.4,2.9L422.4,404.5c-0.7-0.5-1.5-1-2.2-1.4l0.1-0.1l117.4-237.4c-0.9,0-1.9,0-2.8,0c-6.1,0-12.1-0.3-18.1-0.8
		l-103,235.1c-0.1,0-0.2-0.1-0.4-0.1l62.1-243.5c-2.8-0.9-5.7-1.9-8.5-3c-2.1-0.8-4.3-1.7-6.4-2.6l-53.6,246.9
		c-0.8-0.2-1.6-0.4-2.4-0.6l17.7-268c-7.6-5.5-14.9-11.5-22-18.1L400,396.3c-1.8-0.2-3.7-0.3-5.5-0.3c-0.1,0-0.3,0-0.4,0
		l-31.8-256.9c-5.5,3.3-11.2,6.3-16.9,8.9l41.3,248.6c-0.7,0.1-1.5,0.2-2.2,0.4L282.9,164.8c-5.6,0.5-11.3,0.8-17.1,0.8l110.4,233.9
		c-0.3,0.1-0.6,0.2-0.9,0.4l-166.6-242c-3.6-1-6.8-2-9.5-3c-0.8,6.4-1.5,12.7-2.2,18.8l167.6,227.7L190.9,232.8
		c-0.7,7.3-1.3,14.4-1.9,21.3l170.6,156.2c0,0,0,0-0.1,0.1L185.8,299.2c-0.4,6.4-0.7,12.5-1,18.5L353,418.1
		c-0.5,0.7-0.9,1.4-1.4,2.2l-168.1-69.8c-0.2,5.4-0.3,10.7-0.4,15.7l164.7,61.7c-0.1,0.3-0.3,0.6-0.4,1l-164.6-32.7
		c0,5.4,0.1,10.5,0.2,15.3L343.7,437l1.6,0.1c-0.2,0.9-0.3,1.7-0.4,2.6H184.2c0.2,4.1,0.5,7.7,0.7,10.8H615
		c0.2-3.1,0.5-6.7,0.7-10.8H444.1c-0.1-0.5-0.1-1-0.2-1.5l172.9-25.8C616.9,407.7,617,402.6,617,397.2z"/>
	<path class="st3" d="M607.4,143.7c0,0-30.1,13.9-72.4,13.9c-39.3,0-89-12-134.9-58.3c-45.9,46.3-95.7,58.3-134.9,58.3
		c-42.3,0-72.4-13.9-72.4-13.9c-25.5,201.4-16.6,300.9-14.6,319c0.2,2,0.8,3.9,1.7,5.7C268.7,646.7,400,700.7,400,700.7
		s131.3-54,220.2-232.2c0.9-1.8,1.5-3.7,1.7-5.7C624,444.6,632.8,345.1,607.4,143.7z M199.3,154.8c12.7,4.4,36.3,10.8,65.7,10.8
		c23.5,0,46.4-4.1,67.8-12.3c24.2-9.2,46.8-23.6,67.1-42.8c20.4,19.2,42.9,33.6,67.1,42.8c21.5,8.2,44.3,12.3,67.8,12.3
		c29.4,0,53.1-6.4,65.7-10.8c20.6,167.7,17,262,14.3,295.7H185C182.3,416.9,178.7,322.6,199.3,154.8z M613.1,464.9
		c-19.9,40-43.7,76.8-70.6,109.6c-21.5,26.2-45.1,49.8-70.2,70.3c-35.1,28.7-63.3,43-72.3,47.2c-9-4.2-36.7-18.2-71.7-46.7
		c-25.1-20.4-48.8-44.1-70.4-70.4c-27.1-32.9-50.9-69.9-70.9-110c-0.5-0.9-0.8-2-0.9-3c-0.1-1.1-0.3-2.6-0.5-4.3h428.8
		c-0.2,1.8-0.3,3.2-0.5,4.3C613.8,462.9,613.5,463.9,613.1,464.9z"/>
	<path class="st0" d="M530,397.3c-50.7,6.7-57.7-30-51.7-42.7c6-12.7,26.3-8.7,26.3-8.7c-12.7-34.7-33.3-35.3-33.3-35.3
		c11.8,7.9,13.4,14.6,13.4,14.6c-4-1.2-32-10.2-34,18.8s44,59.5,44,59.5c-46.5-16.5-63-42-66.8-50.2s-5.5-12.2-11.5-17.5
		s-26.2-5.2-39.5,2s-34.8,18-56.5,18s-19.2-18.5-19.2-18.5s-2.2,0.2-18.8,0s-18.8-17.8-18.8-28.8s2.8-19.5,11-19.8s8.8,1.8,13,7.2
		s2.2,15.8,0.2,19.7c-2,3.8-9.5,2.2-10.3-0.2c-0.8-2.3-0.2-6.8,2.1-7.8c2.3-0.9,3.5-3,1.5-3.8c-4.2-1.2-8.8,1.8-9.5,8.2
		s4.8,12,11,11.8s13.8-4.5,13.5-19.5s-12-21.2-12-21.2c-2.2-42,57.2-56.2,57.2-56.2c-56.2,36.5-36.8,81.5-6,91.2
		s68.8-14.5,68.8-14.5c-62.5,18-73,1.5-74.5-8.5s-1.2-25.8,18-39.8s50.5-4.8,50.5-4.8c-6.5,28.8,7.2,41.5,21.8,48s35,7.5,44.5-0.5
		s0.2-21.2,0.2-21.2s9.8,6,16.5,6.5s13.2-4,13.2-4c-15,1-16-1-22-5.2S459,274,459,274s-6.5-5.2-12.8-0.5s2.2,16,2.2,16
		c-0.2-6-1-12.5,5.8-12.8s9.2,8.2,8.2,13.2s-9.8,8-17.8,7.8s-13.8-6.2-14.5-11.8s2-12.5,11.5-17.8s32.2-0.5,32.2-0.5
		c7.8,6,18.8,5.5,26.8,5s17.5-3.8,22.2-6.8s8.5-5.2,8.5-5.2c-8.5-1-11.2-0.5-26.2,5.2s-20.2,0-20.2,0c7.3,0,9.7-6.3,9.7-11.3
		s-5.3-11.3-16.3-12.7c-11-1.3-5.7,16.7-5.7,16.7c1.3-6.7,3.7-12.3,8.7-11.3s17.3,13.7-2,15.3c-19.3,1.7-24.5-6.4-40.5-4.2
		S415.8,277,415.8,277c-12.8-18.8,8.1-28.6,17.9-25.3c8.8,3,10.6,2.8,15.5,2.3c6.4-0.6,11-3.2,13.8-6.4s4.2-5,6.3-7.5
		c2.2-2.5,6.5-1.2,6.5-1.2s-4-7.2-16.2-7c-12.2,0.2-13.8,9.8-13.8,9.8c8-7,11.2-1,9.5,2.5c-1.7,3.5-12,2.8-12,2.8s-1.2-2.8-5.7-7.8
		c-4.1-4.6-12.7-4.6-14.1-4.6c0.8-0.1,3.4-1.3,3.4-13c0-13.7-15-16.2-15-16.2c12,13-3.5,18.5-3.5,18.5c11.2,10.2,9,21,9,21
		c-7.2-2.8-16,1.2-16,1.2s-12-9.8-15.2-12.4c-3.2-2.7-1.5-5.2-1-6.5s1.8-3,6.2-2s18.5,10.2,18.5,10.2c-43-65-63.5-70-63.5-70
		c10.3,10.3,19.2,20.6,26.1,29.3c-1.9-0.6-4.6-1-5.5,0.7c-1.4,2.8-0.8,5.9,1.6,7.8c2.2,1.7,8.5,3.8,9.9-0.7
		c6.6,8.7,10.4,14.5,10.4,14.5c-15.3-0.7-28.8-0.1-40.8,1.6v-28.8c0,0-7.2-7-10-24.2c0,0-5.5,14.5,4.8,26v27.9
		c-98.3,16.8-85.3,106.9-85.3,106.9c-29.3-14.7-38-44-38-44C212.3,404,325.2,428.8,343.9,432.1c-1.2,4.3-1.8,8.8-1.8,13.5
		c0,28.7,23.3,52,52,52s52-23.3,52-52c0-28.7-23.3-52-52-52c-21.4,0-39.9,13-47.8,31.5c-70.2-23-74.6-57.8-74.6-57.8
		c70.3,35.7,133.7-8.7,133.7-8.7c11.3,30,52.3,52.3,73,59c20.7,6.7,42.3,8,65,30.3c22.7,22.3,37,59.7,37,59.7
		C568.7,430,530,397.3,530,397.3z"/>
</g>
<path class="st0" d="M416.7,542.9c0-10.7,0-21.5,0-32.2c0-1.3,0-1.3,1.4-1.3c8.4,0,16.8-0.1,25.2,0.1c6.9,0.2,13.2,2.2,18.5,6.6
	c3.6,3.1,6,6.9,7.5,11.1c2.7,7.6,2.9,15.3,1.9,23.1c-0.8,5.8-2.6,11.2-6.3,16c-3.1,3.9-7.1,6.7-12.1,8.3c-4.1,1.3-8.3,1.9-12.6,1.9
	c-7.4,0-14.8,0-22.3,0c-0.9,0-1.2-0.3-1.2-1.1C416.7,564.6,416.7,553.7,416.7,542.9z M431.8,542.9c0,1,0,1.9,0,2.9c0,6,0,12,0,18
	c0,0.6,0,1.1,0.9,1c2.7-0.1,5.5,0.1,8.2-0.1c3.3-0.2,6.4-1.2,9-3.3c3.4-2.8,4.8-6.6,5.5-10.6c0.4-2.3,0.6-4.7,0.6-7
	c0.1-4.4-0.2-8.9-1.8-13.1c-2.2-5.7-6.4-9-12.9-9.6c-2.7-0.3-5.4-0.2-8.1-0.2c-1.4,0-1.4,0-1.4,1.3
	C431.8,529.1,431.8,536,431.8,542.9z"/>
<path class="st0" d="M386.1,532.7c-2,0-3.9,0-5.9,0c-0.7,0-0.9-0.2-1.1-0.9c-0.6-2-1.1-4.1-2.1-6c-2-3.9-5.5-5.7-10.1-5.6
	c-4.7,0.1-7.9,2.5-10.1,6.3c-1.6,2.7-2.5,5.7-3,8.8c-0.7,4.2-0.9,8.3-0.4,12.5c0.5,4.5,1.5,8.8,4.2,12.7c3.8,5.5,11,6.4,15.7,3.6
	c2.4-1.4,3.8-3.7,4.7-6.1c0.5-1.2,0.8-2.5,1.1-3.8c0.1-0.8,0.5-1,1.2-1c3.4,0,6.8,0,10.1,0c0.6,0,1.3,0,1.9,0c0.6,0,0.8,0.2,0.7,0.8
	c-0.6,5.1-2.2,9.8-5.5,14c-2.9,3.6-6.7,6-11.2,7.3c-6.1,1.8-12.2,1.7-18.3,0c-5.9-1.7-10.5-5.2-13.7-10.2c-2.3-3.4-3.7-7.2-4.6-11.2
	c-1.1-4.6-1.3-9.3-1.1-13.9c0.3-6.2,1.6-12.1,4.8-17.6c3.4-5.8,8.2-9.8,15-11.7c5.6-1.6,11.3-1.7,16.9-0.2c6.9,1.9,12,6.1,15.1,12.2
	c1.5,2.9,2.2,6,2.6,9.2c0.1,0.6-0.2,0.9-0.8,0.9C390.1,532.7,388.1,532.7,386.1,532.7z"/>
<path class="st0" d="M499,542.8c0-10.7,0-21.4,0-32.2c0-1.3,0-1.3,1.3-1.3c13.2,0,26.4,0,39.6,0c1.3,0,1.3,0,1.3,1.2
	c0,3.1,0,6.2,0,9.3c0,1.2,0,1.2-1.2,1.2c-8.5,0-17,0-25.5,0c-1.3,0-1.3,0-1.3,1.2c0,4.6,0,9.3,0,13.9c0,0.9,0.3,1.1,1.2,1.1
	c7.1,0,18.4,0,25.5,0c1.3,0,1.3,0,1.3,1.3c0,2.9,0,5.9,0,8.8c0,0.8-0.2,1.1-1.1,1.1c-7.2,0-18.4,0-25.6,0c-1.3,0-1.3,0-1.3,1.2
	c0,8.5,0,16.9,0,25.4c0,1.2,0,1.2-1.3,1.2c-4,0-7.9,0-11.9,0c-0.9,0-1.1-0.3-1.1-1.1C499,564.4,499,553.6,499,542.8z"/>
<path class="st0" d="M259.9,509.4c0.6,0,0.9-0.1,1.2-0.1c4.8,0,9.6,0,14.4,0c0.8,0,1.2,0.2,1.5,0.9c2.9,6.2,5.8,12.3,8.7,18.5
	c1.1,2.4,2.3,4.9,3.4,7.3c0.1,0.2,0.3,0.4,0.6,0.7c1.3-2.6,2.4-5.1,3.6-7.5c3-6.4,6-12.8,9.1-19.1c0.2-0.3,0.7-0.7,1.1-0.7
	c5,0,10,0,14.9,0c0.3,0,0.5,0.1,0.9,0.1c-1.1,2-2.1,3.8-3.1,5.7c-6.1,11.1-12.2,22.2-18.3,33.3c-0.2,0.5-0.3,1-0.3,1.5
	c0,8.4,0,16.9,0,25.3c0,1.2,0,1.2-1.3,1.2c-4.5,0-9,0-13.4,0c-1,0-1.3-0.3-1.3-1.1c0-8.4,0-16.7,0-25.1c0-0.7-0.2-1.5-0.6-2.2
	c-6.3-11.6-12.6-23.1-19-34.6C261.4,512.2,260.7,510.9,259.9,509.4z"/>
<g>
	<path class="st0" d="M424.3,647.4c3.6,0,7-1,10.1-2.7c0.2-0.1,0.5-0.3,0.7-0.4c0.8-0.4,1.6-0.2,2,0.5c0.5,0.7,0.5,1.7-0.3,2.2
		c-1,0.7-2.1,1.3-3.3,1.8c-3.3,1.3-6.7,2.1-10.2,1.8c-10.1-0.7-17.3-5.8-21.3-15c-1.9-4.3-2.3-8.9-1.3-13.5
		c1.8-8.5,6.8-14.5,14.8-17.8c3.3-1.4,6.8-1.9,10.4-1.6c3.8,0.3,7.3,1.3,10.5,3.3c1.6,1,2.4,2.4,2.3,4.2c-0.1,1.9-1.1,3.3-2.9,4.1
		c-1.3,0.5-2.5,0.4-3.8-0.2c-1.4-0.6-2.8-1.3-4.3-1.8c-2.3-0.7-4.7-0.7-7-0.1c-3.6,0.9-6.5,2.9-8.6,5.9c-1.9,2.7-2.8,5.7-2.7,9
		c0.2,4.9,2.3,8.8,6.3,11.6c2.9,2.1,6.2,2.9,9.8,2.6c2.2-0.2,4.2-0.8,6.1-2c0.7-0.5,0.9-1.1,0.6-1.8c-0.4-0.6-1.1-0.8-1.8-0.5
		c-1.4,0.7-2.8,1.3-4.4,1.5c-3.2,0.5-6.1-0.2-8.8-2.1c-2.6-1.8-4.3-4.3-4.9-7.5c-0.8-3.8,0.1-7.3,2.6-10.3c2-2.4,4.6-3.8,7.7-4.2
		c3-0.4,5.9,0.2,8.5,2c0.8,0.6,1.1,1.4,0.7,2.1c-0.4,1-1.4,1.3-2.3,0.7c-1.1-0.6-2.2-1.3-3.5-1.5c-3.4-0.6-6.3,0.4-8.5,3
		c-4.1,4.9-1.8,12.2,4.2,14.1c2.3,0.7,4.6,0.4,6.7-0.7c0.6-0.3,1.2-0.5,1.8-0.7c2.3-0.6,4.8,1,5.3,3.3c0.5,2.1-0.3,4.1-2.2,5.2
		c-3.4,2-7.1,2.8-11.1,2.4c-4.9-0.5-8.9-2.7-12-6.5c-3.2-3.9-4.6-8.4-4-13.5c0.6-5.4,3.3-9.8,7.8-12.9c4.1-2.8,8.6-3.8,13.5-2.9
		c2.1,0.4,4,1.2,5.9,2.2c0.5,0.3,1.1,0.3,1.6-0.1c0.4-0.4,0.6-0.9,0.4-1.4c-0.2-0.4-0.5-0.7-0.8-0.9c-1.7-1.1-3.6-1.8-5.6-2.2
		c-2.2-0.5-4.3-0.7-6.6-0.5c-4.7,0.5-8.8,2.3-12.3,5.5c-3.7,3.4-5.8,7.7-6.4,12.6c-1.2,9.3,4.4,18.6,13.2,21.9
		C419.4,646.9,421.8,647.4,424.3,647.4z"/>
	<path class="st0" d="M361.1,625.2c0-6.8,0-13.6,0-20.4c0-0.3,0-0.6,0.1-1c0.2-0.8,0.9-1.3,1.7-1.2c0.8,0.1,1.4,0.6,1.4,1.4
		c0,0.3,0,0.6,0,0.9c0,13.4,0,26.8,0,40.2c0,0.3,0,0.5,0,0.8c0.1,0.8,0.7,1.4,1.5,1.4c0.8,0,1.4-0.7,1.5-1.5c0-0.2,0-0.5,0-0.7
		c0-12.4,0-24.9,0-37.3c0-1.5,0.4-2.8,1.5-3.8c1-0.9,2.1-1.3,3.4-1.3c2.8,0,5.6,0,8.4,0c3.7,0,7.4,0,11.1,0c2.1,0,3.9,1.3,4.5,3.1
		c1.1,3.2-1.2,6.3-4.6,6.4c-4.7,0-9.3,0-14,0c-1,0-0.9-0.1-0.9,0.9c0,2.4,0,4.9,0,7.3c0,0.5,0.2,0.6,0.7,0.6c4.1,0,8.2,0,12.3,0
		c2.2,0,3.9,1.3,4.6,3.3c1,2.9-1.2,6.1-4.3,6.2c-4.2,0-8.4,0-12.5,0c-0.7,0-0.7,0-0.7,0.7c0,5.7,0,11.4,0,17.1c0,0.3,0,0.6-0.1,0.9
		c-0.2,0.9-0.8,1.4-1.7,1.3c-0.8-0.1-1.4-0.6-1.5-1.5c0-0.2,0-0.3,0-0.5c0-6.5,0-12.9,0-19.4c0-1,0.3-1.5,1.1-1.8
		c0.3-0.1,0.6-0.1,0.8-0.1c4.7,0,9.4,0,14.2,0c0.8,0,1.4-0.4,1.6-1.1c0.2-0.9-0.4-1.7-1.2-1.8c-0.3,0-0.6,0-0.9,0c-4.5,0-9,0-13.6,0
		c-1.5,0-2.1-0.6-2.1-2.1c0-3.8,0-7.6,0-11.4c0-1.4,0.6-2,2-2c5.2,0,10.5,0,15.7,0c0.3,0,0.5,0,0.8,0c0.8-0.1,1.3-0.7,1.3-1.5
		c0-0.7-0.5-1.3-1.3-1.4c-0.2,0-0.4,0-0.7,0c-6.2,0-12.5,0-18.7,0c-1.5,0-2,0.5-2,2c0,12.5,0,25.1,0,37.6c0,1.8-0.7,3.3-2.2,4.2
		c-1.6,1-3.2,1.1-4.8,0.2c-1.6-0.9-2.4-2.3-2.5-4.1c0-1.4,0-2.8,0-4.2C361.1,636.2,361.1,630.7,361.1,625.2z"/>
</g>
<g>
	<circle class="st3" cx="394.2" cy="445.2" r="44.2"/>
	<path d="M394.2,401c-24.4,0-44.2,19.8-44.2,44.2s19.8,44.2,44.2,44.2s44.2-19.8,44.2-44.2S418.6,401,394.2,401z M435.9,447
		l-14.5,7.5l-12.2-12.8l1.1-14.7l10.6-5.8l11.3,6.8c2.4,5.3,3.8,11.1,3.8,17.3C435.9,445.8,435.9,446.4,435.9,447z M399.4,475.8
		l-9.5-10.3l4.2-18l13.3-4l12.7,13.2l-1.4,12.1L399.4,475.8z M359.5,452.2l4.4-15.1l19.1-1.4l8.8,10.4l-4.3,18.3l-13.8,3.6
		L359.5,452.2z M420,412.5v6.3l-11.5,6.3l-14.9-6.3l-7-12.7l2.7-2.3c1.6-0.2,3.3-0.3,4.9-0.3C403.9,403.5,412.9,406.8,420,412.5z
		 M380.4,405.8l3.4,0.4l7.6,13.7l-8.6,13.2l-19.6,1.5l-5.8-9.2C362.3,416.3,370.5,409.3,380.4,405.8z M353.2,453.4l4.2,0.3
		l15.1,16.6l0.3,10.7C362.9,475.1,355.6,465.2,353.2,453.4z M394.2,487c-0.3,0-0.7,0-1,0l5.9-8.3l21.4-7.8l5.9,1
		C418.7,481,407.1,487,394.2,487z"/>
</g>
</svg>
