<?xml version="1.0" encoding="utf-8"?>
<!-- Generator: Adobe Illustrator 22.1.0, SVG Export Plug-In . SVG Version: 6.00 Build 0)  -->
<svg version="1.1" id="图层_1" xmlns="http://www.w3.org/2000/svg" xmlns:xlink="http://www.w3.org/1999/xlink" x="0px" y="0px"
	 viewBox="0 0 800 800" style="enable-background:new 0 0 800 800;" xml:space="preserve">
<style type="text/css">
	.st0{fill:#019845;}
</style>
<g>
	<path class="st0" d="M641.4,101.6c0,0-130.3,60.3-241.4-51.6c-111.1,111.9-241.4,51.6-241.4,51.6C129,336.1,139.3,451.9,141.7,473
		c0.3,2.3,0.9,4.6,2,6.6C247.1,687.2,400,750,400,750s152.9-62.8,256.4-270.3c1-2.1,1.7-4.3,2-6.6C660.7,451.9,671,336,641.4,101.6z
		 M644.1,469c-0.2,2.2-0.9,4.3-1.9,6.3C544.5,671.4,400,730.7,400,730.7s-144.5-59.3-242.2-255.4c-1-2-1.6-4.1-1.9-6.3
		c-2.3-20-12-129.4,16-350.9c0,0,123.1,57,228.1-48.8c105,105.7,228.1,48.8,228.1,48.8C656.1,339.6,646.4,449,644.1,469z"/>
	<path class="st0" d="M461.7,516.1c-5.2-4.5-11.6-6.4-18.5-6.6c-8.4-0.3-16.8-0.1-25.2-0.1c-1.4,0-1.4,0-1.4,1.3
		c0,10.7,0,21.5,0,32.2c0,10.8,0,21.7,0,32.5c0,0.9,0.3,1.1,1.2,1.1c7.4,0,14.8,0,22.3,0c4.3,0,8.5-0.5,12.6-1.9
		c4.9-1.6,9-4.3,12.1-8.3c3.7-4.8,5.6-10.2,6.3-16c1-7.8,0.8-15.6-1.9-23.1C467.7,523,465.3,519.2,461.7,516.1z M456,543.8
		c-0.1,2.3-0.2,4.7-0.6,7c-0.7,4-2.1,7.8-5.5,10.6c-2.6,2.2-5.6,3.1-9,3.3c-2.7,0.2-5.5,0.1-8.2,0.1c-0.9,0-0.9-0.5-0.9-1
		c0-6,0-12,0-18c0-1,0-1.9,0-2.9c0-6.9,0-13.8,0-20.7c0-1.3,0-1.3,1.4-1.3c2.7,0.1,5.4,0,8.1,0.2c6.5,0.6,10.7,3.9,12.9,9.6
		C455.8,534.9,456.2,539.3,456,543.8z"/>
	<path class="st0" d="M376.3,575.2c4.5-1.3,8.3-3.7,11.2-7.3c3.4-4.1,4.9-8.9,5.5-14c0.1-0.6-0.2-0.8-0.7-0.8c-0.6,0-1.3,0-1.9,0
		c-3.4,0-6.8,0-10.1,0c-0.7,0-1.1,0.2-1.2,1c-0.3,1.3-0.6,2.6-1.1,3.8c-0.9,2.5-2.3,4.7-4.7,6.1c-4.7,2.8-12,1.9-15.7-3.6
		c-2.6-3.9-3.6-8.2-4.2-12.7c-0.5-4.2-0.3-8.4,0.4-12.5c0.5-3.1,1.4-6,3-8.8c2.2-3.8,5.4-6.2,10.1-6.3c4.6-0.1,8.1,1.7,10.1,5.6
		c1,1.9,1.5,4,2.1,6c0.2,0.7,0.5,0.9,1.1,0.9c2,0,3.9,0,5.9,0c2,0,4.1,0,6.1,0c0.7,0,0.9-0.2,0.8-0.9c-0.4-3.2-1.1-6.3-2.6-9.2
		c-3.1-6.2-8.2-10.3-15.1-12.2c-5.6-1.5-11.3-1.4-16.9,0.2c-6.8,1.9-11.6,5.9-15,11.7c-3.2,5.5-4.5,11.4-4.8,17.6
		c-0.3,4.7,0,9.3,1.1,13.9c0.9,4,2.3,7.7,4.6,11.2c3.3,5,7.8,8.5,13.7,10.2C364,576.9,370.2,577,376.3,575.2z"/>
	<path class="st0" d="M541.1,538.5c0-1.3,0-1.3-1.3-1.3c-7.1,0-18.4,0-25.5,0c-0.9,0-1.2-0.2-1.2-1.1c0-4.6,0-9.3,0-13.9
		c0-1.2,0-1.2,1.3-1.2c8.5,0,17,0,25.5,0c1.2,0,1.2,0,1.2-1.2c0-3.1,0-6.2,0-9.3c0-1.2,0-1.2-1.3-1.2c-13.2,0-26.4,0-39.6,0
		c-1.3,0-1.3,0-1.3,1.3c0,10.7,0,21.4,0,32.2c0,10.8,0,21.6,0,32.4c0,0.9,0.3,1.1,1.1,1.1c4,0,7.9,0,11.9,0c1.2,0,1.3,0,1.3-1.2
		c0-8.5,0-16.9,0-25.4c0-1.2,0-1.2,1.3-1.2c7.2,0,18.4,0,25.6,0c0.9,0,1.1-0.3,1.1-1.1C541.1,544.4,541.2,541.5,541.1,538.5z"/>
	<path class="st0" d="M303.5,509.4c-0.4,0-0.9,0.4-1.1,0.7c-3.1,6.4-6.1,12.8-9.1,19.1c-1.2,2.5-2.3,4.9-3.6,7.5
		c-0.3-0.3-0.5-0.5-0.6-0.7c-1.2-2.4-2.3-4.9-3.4-7.3c-2.9-6.2-5.8-12.3-8.7-18.5c-0.3-0.6-0.7-0.9-1.5-0.9c-4.8,0-9.6,0-14.4,0
		c-0.3,0-0.6,0-1.2,0.1c0.8,1.5,1.5,2.7,2.2,4c6.3,11.5,12.7,23.1,19,34.6c0.4,0.7,0.6,1.5,0.6,2.2c0,8.4,0,16.7,0,25.1
		c0,0.9,0.3,1.1,1.3,1.1c4.5,0,8.9,0,13.4,0c1.3,0,1.3,0,1.3-1.2c0-8.4,0-16.9,0-25.3c0-0.5,0.1-1.1,0.3-1.5
		c6.1-11.1,12.2-22.2,18.3-33.3c1-1.9,2-3.7,3.1-5.7c-0.4-0.1-0.6-0.1-0.9-0.1C313.5,509.4,308.5,509.3,303.5,509.4z"/>
	<path class="st0" d="M434.6,606c-3.2-2-6.8-3-10.5-3.3c-3.6-0.3-7.1,0.2-10.4,1.6c-8,3.4-13,9.3-14.8,17.8c-1,4.6-0.6,9.2,1.3,13.5
		c4,9.3,11.2,14.4,21.3,15c3.5,0.2,7-0.5,10.2-1.8c1.2-0.5,2.3-1.1,3.3-1.8c0.7-0.5,0.7-1.4,0.3-2.2c-0.5-0.7-1.3-0.9-2-0.5
		c-0.2,0.1-0.5,0.2-0.7,0.4c-3.2,1.7-6.5,2.7-10.1,2.7c-2.5,0-5-0.5-7.4-1.3c-8.8-3.3-14.4-12.5-13.2-21.9c0.6-5,2.8-9.2,6.4-12.6
		c3.5-3.2,7.5-5.1,12.3-5.5c2.2-0.2,4.4,0,6.6,0.5c2,0.4,3.9,1.1,5.6,2.2c0.3,0.2,0.7,0.6,0.8,0.9c0.2,0.5,0.1,1-0.4,1.4
		c-0.5,0.4-1,0.4-1.6,0.1c-1.9-1-3.8-1.8-5.9-2.2c-4.9-0.9-9.5,0-13.5,2.9c-4.5,3.1-7.1,7.4-7.8,12.9c-0.6,5.1,0.8,9.6,4,13.5
		c3.1,3.7,7.1,5.9,12,6.5c4,0.4,7.7-0.3,11.1-2.4c1.9-1.1,2.7-3.1,2.2-5.2c-0.5-2.3-3.1-3.9-5.3-3.3c-0.6,0.2-1.2,0.4-1.8,0.7
		c-2.2,1.1-4.4,1.4-6.7,0.7c-6.1-1.9-8.3-9.2-4.2-14.1c2.2-2.7,5.1-3.6,8.5-3c1.3,0.2,2.4,0.9,3.5,1.5c0.9,0.5,1.9,0.2,2.3-0.7
		c0.4-0.8,0.1-1.5-0.7-2.1c-2.5-1.8-5.4-2.4-8.5-2c-3.1,0.4-5.7,1.8-7.7,4.2c-2.5,3-3.4,6.5-2.6,10.3c0.6,3.1,2.3,5.6,4.9,7.5
		c2.6,1.8,5.6,2.6,8.8,2.1c1.6-0.2,3-0.9,4.4-1.5c0.8-0.4,1.5-0.2,1.8,0.5c0.4,0.6,0.2,1.3-0.6,1.8c-1.9,1.2-3.9,1.8-6.1,2
		c-3.6,0.4-6.9-0.5-9.8-2.6c-4-2.8-6.1-6.7-6.3-11.6c-0.1-3.3,0.8-6.3,2.7-9c2.1-3,5-5,8.6-5.9c2.3-0.6,4.7-0.6,7,0.1
		c1.5,0.5,2.9,1.1,4.3,1.8c1.2,0.6,2.5,0.7,3.8,0.2c1.8-0.8,2.8-2.2,2.9-4.1C437.1,608.4,436.2,607,434.6,606z"/>
	<path class="st0" d="M392.8,602.7c-3.7,0-7.4,0-11.1,0c-2.8,0-5.6,0-8.4,0c-1.3,0-2.5,0.4-3.4,1.3c-1.1,1-1.5,2.3-1.5,3.8
		c0,12.4,0,24.9,0,37.3c0,0.2,0,0.5,0,0.7c-0.1,0.8-0.7,1.5-1.5,1.5c-0.8,0-1.4-0.6-1.5-1.4c0-0.3,0-0.5,0-0.8c0-13.4,0-26.8,0-40.2
		c0-0.3,0-0.6,0-0.9c-0.1-0.8-0.6-1.4-1.4-1.4c-0.8-0.1-1.5,0.4-1.7,1.2c-0.1,0.3-0.1,0.6-0.1,1c0,6.8,0,13.6,0,20.4
		c0,5.5,0,11,0,16.5c0,1.4,0,2.8,0,4.2c0.1,1.8,0.9,3.2,2.5,4.1c1.6,0.9,3.3,0.8,4.8-0.2c1.5-1,2.2-2.4,2.2-4.2
		c0-12.5,0-25.1,0-37.6c0-1.5,0.5-2,2-2c6.2,0,12.5,0,18.7,0c0.2,0,0.4,0,0.7,0c0.8,0.1,1.3,0.7,1.3,1.4c0,0.8-0.5,1.3-1.3,1.5
		c-0.2,0-0.5,0-0.8,0c-5.2,0-10.5,0-15.7,0c-1.4,0-2,0.6-2,2c0,3.8,0,7.6,0,11.4c0,1.5,0.6,2.1,2.1,2.1c4.5,0,9,0,13.6,0
		c0.3,0,0.6,0,0.9,0c0.9,0.1,1.4,0.9,1.2,1.8c-0.2,0.7-0.7,1.1-1.6,1.1c-4.7,0-9.4,0-14.2,0c-0.3,0-0.6,0-0.8,0.1
		c-0.8,0.3-1.1,0.9-1.1,1.8c0,6.5,0,12.9,0,19.4c0,0.2,0,0.3,0,0.5c0.1,0.9,0.6,1.5,1.5,1.5c0.9,0.1,1.5-0.5,1.7-1.3
		c0.1-0.3,0.1-0.6,0.1-0.9c0-5.7,0-11.4,0-17.1c0-0.7,0-0.7,0.7-0.7c4.2,0,8.4,0,12.5,0c3.1,0,5.3-3.2,4.3-6.2
		c-0.7-2.1-2.4-3.3-4.6-3.3c-4.1,0-8.2,0-12.3,0c-0.5,0-0.7-0.1-0.7-0.6c0-2.4,0-4.9,0-7.3c0-1-0.1-0.9,0.9-0.9c4.7,0,9.3,0,14,0
		c3.4,0,5.7-3.2,4.6-6.4C396.7,604,395,602.7,392.8,602.7z"/>
	<path class="st0" d="M357.4,453.7l-4.2-0.3c2.4,11.7,9.6,21.7,19.6,27.6l-0.3-10.7L357.4,453.7z"/>
	<path class="st0" d="M408.5,425l11.5-6.3v-6.3c-7.1-5.6-16.1-9-25.8-9c-1.7,0-3.3,0.1-4.9,0.3l-2.7,2.3l7,12.7L408.5,425z"/>
	<path class="st0" d="M382.8,433.2l8.6-13.2l-7.6-13.7l-3.4-0.4c-9.9,3.5-18.1,10.6-23.1,19.7l5.8,9.2L382.8,433.2z"/>
	<path class="st0" d="M534.9,157.6c-39.3,0-89-12-134.9-58.3c-45.9,46.3-95.7,58.3-134.9,58.3c-42.3,0-72.4-13.9-72.4-13.9
		c-25.5,201.4-16.6,300.9-14.6,319c0.2,2,0.8,3.9,1.7,5.7C268.7,646.7,400,700.7,400,700.7s131.3-54,220.2-232.2
		c0.9-1.8,1.5-3.7,1.7-5.7c2.1-18.2,10.9-117.7-14.6-319C607.4,143.7,577.2,157.6,534.9,157.6z M614,461.8c-0.1,1.1-0.4,2.1-0.9,3
		c-19.9,40-43.7,76.8-70.6,109.6c-21.5,26.2-45.1,49.8-70.2,70.3c-35.1,28.7-63.3,43-72.3,47.2c-9-4.2-36.7-18.2-71.7-46.7
		c-25.1-20.4-48.8-44.1-70.4-70.4c-27.1-32.9-50.9-69.9-70.9-110c-0.5-0.9-0.8-2-0.9-3c-0.1-1.1-0.3-2.6-0.5-4.3h157.9
		c5.4,23,26,40.1,50.6,40.1s45.2-17.1,50.6-40.1h107.1c17.7,22,28.5,50.2,28.5,50.2c-2.9-19.5-7.6-36.1-12.8-50.2h46.9
		C614.2,459.3,614.1,460.7,614,461.8z M394.1,393.6c-21.4,0-39.9,13-47.8,31.5c-70.2-23-74.6-57.8-74.6-57.8
		c70.3,35.7,133.7-8.7,133.7-8.7c11.3,30,52.3,52.3,73,59c20.7,6.7,42.3,8,65,30.3c0.8,0.8,1.6,1.7,2.4,2.5h-99.9
		c0.2-1.6,0.2-3.3,0.2-4.9C446.1,416.9,422.8,393.6,394.1,393.6z M438.4,445.2c0,24.4-19.8,44.2-44.2,44.2s-44.2-19.8-44.2-44.2
		s19.8-44.2,44.2-44.2S438.4,420.8,438.4,445.2z M615,450.5h-50.3c-15.4-36.9-34.7-53.2-34.7-53.2c-50.7,6.7-57.7-30-51.7-42.7
		c6-12.7,26.3-8.7,26.3-8.7c-12.7-34.7-33.3-35.3-33.3-35.3c11.8,7.9,13.4,14.6,13.4,14.6c-4-1.2-32-10.2-34,18.8s44,59.5,44,59.5
		c-46.5-16.5-63-42-66.8-50.2s-5.5-12.2-11.5-17.5s-26.2-5.2-39.5,2s-34.8,18-56.5,18s-19.2-18.5-19.2-18.5s-2.2,0.2-18.8,0
		s-18.8-17.8-18.8-28.8s2.8-19.5,11-19.8s8.8,1.8,13,7.2s2.2,15.8,0.2,19.7c-2,3.8-9.5,2.2-10.3-0.2c-0.8-2.3-0.2-6.8,2.1-7.8
		c2.3-0.9,3.5-3,1.5-3.8c-4.2-1.2-8.8,1.8-9.5,8.2s4.8,12,11,11.8s13.8-4.5,13.5-19.5s-12-21.2-12-21.2c-2.2-42,57.2-56.2,57.2-56.2
		c-56.2,36.5-36.8,81.5-6,91.2s68.8-14.5,68.8-14.5c-62.5,18-73,1.5-74.5-8.5s-1.2-25.8,18-39.8s50.5-4.8,50.5-4.8
		c-6.5,28.8,7.2,41.5,21.8,48s35,7.5,44.5-0.5s0.2-21.2,0.2-21.2s9.8,6,16.5,6.5s13.2-4,13.2-4c-15,1-16-1-22-5.2S459,274,459,274
		s-6.5-5.2-12.8-0.5s2.2,16,2.2,16c-0.2-6-1-12.5,5.8-12.8s9.2,8.2,8.2,13.2s-9.8,8-17.8,7.8s-13.8-6.2-14.5-11.8s2-12.5,11.5-17.8
		s32.2-0.5,32.2-0.5c7.8,6,18.8,5.5,26.8,5s17.5-3.8,22.2-6.8s8.5-5.2,8.5-5.2c-8.5-1-11.2-0.5-26.2,5.2s-20.2,0-20.2,0
		c7.3,0,9.7-6.3,9.7-11.3s-5.3-11.3-16.3-12.7c-11-1.3-5.7,16.7-5.7,16.7c1.3-6.7,3.7-12.3,8.7-11.3s17.3,13.7-2,15.3
		c-19.3,1.7-24.5-6.4-40.5-4.2S415.8,277,415.8,277c-12.8-18.8,8.1-28.6,17.9-25.3c8.8,3,10.6,2.8,15.5,2.3c6.4-0.6,11-3.2,13.8-6.4
		s4.2-5,6.3-7.5c2.2-2.5,6.5-1.2,6.5-1.2s-4-7.2-16.2-7c-12.2,0.2-13.8,9.8-13.8,9.8c8-7,11.2-1,9.5,2.5c-1.7,3.5-12,2.8-12,2.8
		s-1.2-2.8-5.7-7.8c-4.1-4.6-12.7-4.6-14.1-4.6c0.8-0.1,3.4-1.3,3.4-13c0-13.7-15-16.2-15-16.2c12,13-3.5,18.5-3.5,18.5
		c11.2,10.2,9,21,9,21c-7.2-2.8-16,1.2-16,1.2s-12-9.8-15.2-12.4c-3.2-2.7-1.5-5.2-1-6.5s1.8-3,6.2-2s18.5,10.2,18.5,10.2
		c-43-65-63.5-70-63.5-70c10.3,10.3,19.2,20.6,26.1,29.3c-1.9-0.6-4.6-1-5.5,0.7c-1.4,2.8-0.8,5.9,1.6,7.8c2.2,1.7,8.5,3.8,9.9-0.7
		c6.6,8.7,10.4,14.5,10.4,14.5c-15.3-0.7-28.8-0.1-40.8,1.6v-28.8c0,0-7.2-7-10-24.2c0,0-5.5,14.5,4.8,26v27.9
		c-98.3,16.8-85.3,106.9-85.3,106.9c-29.3-14.7-38-44-38-44C212.3,404,325.2,428.8,343.9,432.1c-1.2,4.3-1.8,8.8-1.8,13.5
		c0,1.7,0.1,3.3,0.2,4.9H185c-2.6-33.6-6.3-127.9,14.3-295.7c12.7,4.4,36.3,10.8,65.7,10.8c23.5,0,46.4-4.1,67.8-12.3
		c24.2-9.2,46.8-23.6,67.1-42.8c20.4,19.2,42.9,33.6,67.1,42.8c21.5,8.2,44.3,12.3,67.8,12.3c29.4,0,53.1-6.4,65.7-10.8
		C621.3,322.6,617.7,416.9,615,450.5z"/>
	<polygon class="st0" points="383,435.7 363.9,437.1 359.5,452.2 373.8,468 387.6,464.4 391.9,446.1 	"/>
	<path class="st0" d="M410.2,426.9l-1.1,14.7l12.2,12.8l14.5-7.5c0-0.6,0-1.2,0-1.7c0-6.2-1.4-12-3.8-17.3l-11.3-6.8L410.2,426.9z"
		/>
	<path class="st0" d="M399.1,478.6l-5.9,8.3c0.3,0,0.7,0,1,0c12.9,0,24.5-5.9,32.2-15.2l-5.9-1L399.1,478.6z"/>
	<polygon class="st0" points="418.7,468.8 420.1,456.7 407.4,443.5 394.1,447.5 389.9,465.5 399.4,475.8 	"/>
</g>
</svg>
