<?xml version="1.0" encoding="utf-8"?>
<!-- Generator: Adobe Illustrator 22.1.0, SVG Export Plug-In . SVG Version: 6.00 Build 0)  -->
<svg version="1.1" id="图层_1" xmlns="http://www.w3.org/2000/svg" xmlns:xlink="http://www.w3.org/1999/xlink" x="0px" y="0px"
	 viewBox="0 0 800 800" style="enable-background:new 0 0 800 800;" xml:space="preserve">
<style type="text/css">
	.st0{fill:#D0121B;}
	.st1{fill:#FFFFFF;}
	.st2{fill:#00901A;}
	.st3{fill:#231815;}
	.st4{fill:#DB3C11;}
	.st5{fill:#F6DEBD;}
	.st6{fill:#BE8A3B;}
	.st7{fill:#CF0916;}
	.st8{fill:#A6CAD8;}
	.st9{fill:none;stroke:#231815;stroke-width:0.5;stroke-miterlimit:22.9256;}
	.st10{fill:#BE8740;}
	.st11{fill:#BC8941;}
	.st12{fill:#DA8C18;}
	.st13{fill:#FFFFFF;stroke:#DA8C18;stroke-width:0.216;stroke-miterlimit:22.9256;}
	.st14{fill:#F6DDBD;}
	.st15{fill:#FFE100;}
	.st16{fill:#F1DEC3;}
	.st17{fill:#F7DDBE;}
	.st18{fill:#BD9E6A;}
	.st19{fill:#FADF1B;}
	.st20{fill:#FDFDFD;}
</style>
<g>
	<g>
		<rect x="150.3" y="50" class="st0" width="499.3" height="102.7"/>
		<path class="st0" d="M400,159.7H150.3v365.2c0,44.3,52.5,199.5,249.7,225.2c197.2-25.7,249.7-180.8,249.7-225.2V159.7H400z"/>
	</g>
	<rect x="179.5" y="183.1" class="st1" width="441" height="341.8"/>
	<g>
		<path class="st2" d="M298.9,188.2c0,0-25.6,15.2-34,43.8C264.9,231.9,290.3,213.2,298.9,188.2z"/>
		<path class="st2" d="M267.3,209.9c0,0-27.1,22.3-20.3,61.7c0,0,25-18.2,35.8-46.5c0,0-20.9,22.6-27.1,24.7
			C255.7,249.8,258.1,226.9,267.3,209.9z"/>
		<path class="st2" d="M241.4,244.2c0,0-18.8,40.8-0.3,69.1c0,0,26.8-45.3,31-59c0,0-24.1,29.8-30.4,31.6
			C241.7,285.9,239,257.3,241.4,244.2z"/>
		<path class="st2" d="M225.2,278.7c0,0-9.4,51.2,19.5,76.3c0,0,14.9-44.1,14.6-62.3c0,0-14.6,33.7-18.5,36.6
			C240.8,329.4,230.1,320.1,225.2,278.7z"/>
		<path class="st2" d="M218.2,327.9c0,0,0.6,27.4,13.4,39.9c3,3,27.4,27.4,27.4,27.4s-1.8-11.6,0.6-32.2c0.6-4.8,1.2-23.5-0.6-40.2
			c0,0-10.4,33.4-10.4,46.2C248.5,369,236.6,366.9,218.2,327.9z"/>
		<path class="st2" d="M225,374.4c0,0,15.2,24.1,41.4,36.1c0,0-5.1-34.6-2.7-48c0,0,18.2,62.9,21.7,69.4
			C285.5,431.9,237.5,424.4,225,374.4z"/>
		<path class="st2" d="M240.5,420c0,0,35.8,25,49.8,21.7c5.2-1.2,0.9-13.1-7.9-40.4c0,0,17.4,22.5,17.1,28.5
			c-0.6,14.9-21.2,18.2-21.2,18.2S256.9,454.5,240.5,420z"/>
		<path class="st2" d="M501.1,188.2c0,0,25.6,15.2,34,43.8C535.1,231.9,509.7,213.2,501.1,188.2z"/>
		<path class="st2" d="M532.7,209.9c0,0,27.1,22.3,20.3,61.7c0,0-25-18.2-35.8-46.5c0,0,20.9,22.6,27.1,24.7
			C544.3,249.8,541.9,226.9,532.7,209.9z"/>
		<path class="st2" d="M558.6,244.2c0,0,18.8,40.8,0.3,69.1c0,0-26.8-45.3-31-59c0,0,24.1,29.8,30.4,31.6
			C558.3,285.9,561,257.3,558.6,244.2z"/>
		<path class="st2" d="M574.8,278.7c0,0,9.4,51.2-19.5,76.3c0,0-14.9-44.1-14.6-62.3c0,0,14.6,33.7,18.5,36.6
			C559.2,329.4,569.9,320.1,574.8,278.7z"/>
		<path class="st2" d="M581.8,327.9c0,0-0.6,27.4-13.4,39.9c-3,3-27.4,27.4-27.4,27.4s1.8-11.6-0.6-32.2c-0.6-4.8-1.2-23.5,0.6-40.2
			c0,0,10.4,33.4,10.4,46.2C551.5,369,563.4,366.9,581.8,327.9z"/>
		<path class="st2" d="M575,374.4c0,0-15.2,24.1-41.4,36.1c0,0,5.1-34.6,2.7-48c0,0-18.2,62.9-21.8,69.4
			C514.5,431.9,562.5,424.4,575,374.4z"/>
		<path class="st2" d="M559.5,420c0,0-35.8,25-49.8,21.7c-5.2-1.2-0.9-13.1,7.9-40.4c0,0-17.4,22.5-17.1,28.5
			c0.6,14.9,21.2,18.2,21.2,18.2S543.1,454.5,559.5,420z"/>
		<path class="st2" d="M301.6,467.5c0,0,2.4-2,15,1.2c2.8,0.7,22.2,4.9,35,3.2c5.2-0.7,36.2,4.3,46,9.4c2.3,1.2,6.3,0.8,11.8-2.4
			c1.4-0.8,23.6-9.8,39.8-7.9c4.3,0.5,38.2-4.7,47.2-5.9c0,0,0.8,9.8,0,12.6l8.7,3.5c0,0-17.7,19.7-77.5,10.2
			c0,0,24.4,9.4,31.5,22.8c1.8,3.4,2.8,10.6-5.5,3.9c-8.3-6.7-32.3-26.4-52-26c-19.7,0.4-44.1,14.6-55.1,26c-2.4,2.4-11,3.9-4.7-4.7
			c3.6-4.9,21.3-16.9,31.1-21.6c0,0-52.7,12.2-77.9-10.2l9.4-1.2C304.3,480.4,305.5,471.4,301.6,467.5z"/>
	</g>
	<path class="st3" d="M303.2,216.4h-1.4l-0.3,1.4c-22.1,115.8,5.5,174.1,32.5,202.5c26.8,28.3,58.5,33.9,66.9,32.7
		c34.1-4.7,60.5-20.3,78.2-46.2c24.4-35.8,28.2-85.3,27-120.5c-1.3-38.1-8.4-68.2-8.5-68.5l-0.3-1.3h-1.3H303.2z"/>
	<path class="st4" d="M303.3,218.1h192.9c0,0,51,213.1-95.4,233.2C385.9,453.3,263,429.4,303.3,218.1z"/>
	<g>
		<g>
			<path class="st3" d="M433.1,260.2c0,0,7.4-0.7,11.6-0.3c0,0-2.4,9.8-8.3,11.7C436.4,271.6,437.2,264.8,433.1,260.2z"/>
			<g>
				<g>
					<g>
						<path class="st3" d="M377,270.2c0,0,3,6,6.3,6.1c0,0-4.8-3.1-2.7-13.6c0,0,2,3.7,3,4.5c2.4,1.9,3.5,1.1,2.7-1.4
							c-0.5-1.7-3.4-1.6-2.7-16.2c0,0,6.4,0.6,9.1,2.7c1.4,1.1,2.1,3.3,16.1,1.5c1.8-0.2,13.3-1,15.9-0.1
							c2.7,0.9,13.3,7.3,12.1,16.1c-0.5,3.9,0.7,4.8-5.4,18.2c-0.5,1.1,3.4-0.2,2.2,5.1c-0.4,1.9,0.6,5.4-4.8,7.4
							c-1.6,0.6-6.6,1.2-8.9,5.4c-0.6,1.1-3.3,4-5.7,4.2c-2.4,0.1-10.3,0.7-15.6-2.5C397,306.5,373.7,287.2,377,270.2z"/>
						<path class="st5" d="M384.6,251.1c0,0,5.7-0.5,12.1,5c0,0-1.1,3.8,4,4.1c1.2,0.1,7.5,1.6,7.3-2.9c0-1-1-2.9-1-2.9
							s8.8-1.6,15.9,7.3c0,0,1.5-2.3-2.1-8c0,0,11,2.7,14.5,11.3c0.6,1.4,2.9,7.1-4,19.6c-0.8,1.4,0.3,13.1,0.3,13.1
							s-3.4,2.7-7.6,3.8c-1,0.3-2.2,0.6-3.5,2.1c-1.3,1.5-4.7,5.4-6.1,5.7c-1.4,0.3-11.4,0.4-15.2-2.5c-0.9-0.7-20.2-17.1-21.5-33.1
							c0,0,3,4.5,6.6,4.1c0,0,1.9,0.3-1.8-4.1c-1.3-1.6-2.4-4.2-1.6-8.3c0,0,8.1,10.1,5.8-0.8C386.3,262,383.7,263.1,384.6,251.1z"
							/>
						<g>
							<g>
								<path class="st3" d="M384.5,252l-0.5,0.1l-0.2,7.7l0.9-0.3c0.3-0.1,0.6-0.1,0.7,0c0.4,0.2,0.5,1,0.7,1.8
									c0.2,0.8,0.4,1.6,0.8,2.2c1.3,1.8,2.7,2.2,3.6,2.2c1.3,0,2.3-0.7,2.7-1.3c2.9-4,0.5-6.8-1.4-9
									C388.3,251.2,384.6,252,384.5,252z"/>
								<path class="st6" d="M384.6,252.7c0,0,3.4-0.7,6.7,3.1c1.9,2.3,3.9,4.6,1.3,8.2c-0.7,1-3.1,2.1-5.2-0.9
									c-1-1.5-0.4-4.9-3-4.2L384.6,252.7z"/>
							</g>
							<g>
								<g>
									<g>
										<path class="st3" d="M386.1,268.9c0,0,0.6,0.9,5.2,1.6c1.3,0.2,3.3,1.9,2.4,5.4c-0.2,0.8-1.5,2.1-3.7,0.9
											c-0.7-0.4-1.2-3.1,1.3-3.9c0,0-2.4-1.2-2.7,2.2c-0.3,3.4,2.7,3.3,2.7,3.3s-0.1,10.6,2.1,11.9c0.8,0.5,1,1.2,1.2,2.2
											c0.2,1,1.5,7.2,12.8,8.9c1.6,0.3,7.6,1,8.8-3.9l1.6,0.1c0,0-2.1,6.9-6.3,6.7c-1.2,0-8.5-1-13.6-3.9
											c-0.9-0.5-1.8-0.3,1.8,1.5c3.6,1.8,8,4,12.2,3.6c1.5-0.2,6.9-2.2,7.4-7.4c0.2-1.5-5.4-1.3-6.3-1.4
											c-0.9-0.1-10.1-1.9-15.5-7.5c-1.8-1.9-4.9-4.6-5.1-10.9c0,0,2.1-0.7,2.1-5.7c0-2.7-3-3.3-4.5-3.4
											c-1.5-0.1-3.9,0.3-3.6-0.9L386.1,268.9z"/>
										<path class="st7" d="M397.1,295.4c0,0,13.1-1.6,14.7,5.4C411.9,300.8,403.5,303,397.1,295.4z"/>
									</g>
									<g>
										<g>
											<path class="st3" d="M397.7,279c-2.4,0.5-4.3,2.6-5.7,6.3c-0.3,0.8-0.4,2.5-0.5,4.3c-0.1,1.4-0.2,2.8-0.4,3.3
												c-0.5,1.8-2.1,5.1-3.2,5.2c-1.5,0.2-6.9-0.2-10.5-14.6l-1.4-4.2l0.4,4.4c0,0.3,0.7,8.5,6.1,14.9c0.6,0.7,2.6,2.1,4,2
												c3.4-0.3,5.7-2.4,6.3-6l0.1-0.8c0.3-2.1,1.1-7.6,2.8-10.5c0.7-1.2,1.6-1.9,2.2-1.9c0.4,0,1.5,0.4,2.2,1.2
												c0.6,0.6,0.8,1.3,0.7,2c-0.1,1.1-0.4,1.5-0.8,1.7c-0.6,0.4-1.3,2-1.2,3.5c0.1,1.1,0.6,2,1.6,2.5l0.3,0.2
												c1.1,0.8,4.5,3.3,12.8,5.1c1.6,0.4,14.1,1.4,17.6-0.7c0.6-0.4,2.7-2.3,2.7-4.4c0-0.1,0-0.1,0-0.2c-0.1-1.3-0.9-2.3-2.5-3
												c-0.7-0.3-1.6-0.4-2.2-0.4c0.3-0.8,1.4-2.1,4.8-2c0.2,0,1,0.2,1.6,0.9c0.5,0.5,1,1.4,0.9,2.8l-0.3,1.1
												c-0.5,1.6-1.3,4.4-1.1,7.3c0.1,1.4,0.8,3.8,4.2,4.1c1.2,0.1,6.4-1.4,8.1-4.1l3.3-4.1l-4,3.4c0,0-4.7,2.7-7.2,2.7
												c-1,0-1.7-0.3-2.2-0.8c-0.6-0.7-0.8-1.8-0.5-3.1l0.5-2c0.6-2,1.4-4.6,0.5-8.2c-0.2-0.7-1-1.5-2.2-2
												c-0.9-0.4-3.2-1.1-5.5,0.3l-0.6,0.3c-0.5,0.2-1.2,0.5-2.3,1.2c-0.8,0.6-2.4,0.9-2.7,0.8c-0.5-0.3-1.9-1.2-2.6-2.2
												c-0.8-1.2-1.8-3.1-5.6-2.8l-0.7-0.1c-1,0-1.2,0.2-2,0.8c-0.8,0.5-1.5,0.8-3.2,0.8c0,0-4.6,0.1-5.6,0.4
												c-0.3-0.1-1.4-1.3-1.9-2.4C402.3,280.7,399.8,278.6,397.7,279z"/>
											<path class="st6" d="M376.9,283.7c0,0,0.6,8.2,6,14.6c0.6,0.7,2.4,1.9,3.6,1.8c1.2-0.1,5-0.6,5.9-5.6
												c0.2-1,0.9-7.9,3-11.4c0.6-1.1,1.7-2.2,2.7-2.2c1,0,3.7,1.3,3.5,3.8c-0.1,1.1-0.4,1.7-1,2.1c-0.6,0.4-2.1,3.9,0.3,5.1
												c0.6,0.3,3.5,3.2,13,5.3c1.5,0.3,13.9,1.3,17.2-0.6c0.9-0.5,4.9-4.6,0.2-6.7c-1-0.5-2.7-0.3-2.7-0.3s0.2-3.2,5.5-3.1
												c0.8,0,3.2,1.2,3,4.3c-0.1,0.8-1.7,4.5-1.4,8.3c0.1,1.5,0.9,3.4,3.8,3.7c1,0.1,6.1-1.4,7.6-3.9c0,0-4.8,2.8-7.4,2.8
												c-2.7,0-3.6-2-3.2-4.5c0.4-2.5,2.1-5.3,1-10c-0.3-1.2-3.9-3.2-7-1.3c-0.5,0.3-1.3,0.4-2.9,1.5c-0.8,0.6-2.6,1.1-3.2,0.8
												c-0.6-0.3-2-1.3-2.8-2.4c-0.8-1.1-1.8-2.5-5.3-2.3c-1.4,0.1-1.5,0-2.4,0.6c-0.9,0.6-1.7,0.6-3.5,0.6
												c-0.7,0-5.2,0.2-5.6,0.4c-0.4,0.2-1.9-1.4-2.4-2.7c-0.5-1.3-2.8-3.3-4.7-2.9c-1.9,0.4-3.8,1.9-5.4,6
												c-0.5,1.3-0.5,6.4-0.9,7.6c-0.4,1.3-2.1,5.4-3.6,5.6C386.4,298.9,380.7,298.8,376.9,283.7z"/>
										</g>
										<g>
											<g>
												<path class="st3" d="M402.9,283c0,0-0.9-7.2,0-10c0.5-1.6,1.9-7.6,7.4-9.1c1-0.3,3.6,0.9,3.6,0.9l-0.6-1.9
													c0,0-0.3-10.3-4.9-10.3v-5.4c0,0,5.2,3.4,6.3,7.6c0.4,1.7,0.2,10,0.2,10s3,4,2.1,11.9c0,0,1.9-6.6,4.3-8.3
													c0,0,2.2-2.1,3-2.8c0.7-0.7,1.5-3,1.5-4.2c0-1.2,2.2-6.3,9.7-9.2c0,0-1.5,5.8-1.9,6.3c-0.4,0.4-4.2-0.6-5.1,1.2
													c-0.9,1.8-1.8,3.3-1.9,4.3c-0.1,1-1.9,3.3-2.7,3.6c0,0,4.9-1,6.1,2.4c0.8,2.3,2.5,6.5-0.6,12.2
													c-1.4,2.6-2.2,4.4-4.7,5.7c-2.1,1.1-2.7-2.9-2.7-2.9l-5.4-2.7l-4.6,1.6l-6,0.1L402.9,283z"/>
												<g>
													<path class="st1" d="M404,282.3c0,0-1.3-1.2-0.6-6.9c0.2-1.5,1.5-9.2,7.7-9.8c1.3-0.1,5.1,0.3,5.5,7.5
														c0.1,1.2-0.2,8.3-2.9,10.2c-0.9,0.6-0.8,1.4-4.4,1C408,284.1,404,282.3,404,282.3z"/>
													<path class="st1" d="M418.3,282.9l-3.3-0.4c0,0,4-10.3,6.6-12.1c1.2-0.8,5.5-3.3,8,1c0.7,1.1,1,6.1,0.1,8.2
														c-0.9,2.1-1.6,4.8-4.8,7.6c-0.9,0.8-2.1-0.1-2.2-0.7C422.6,285.9,420.2,284.2,418.3,282.9z"/>
													<g>
														<g>
															<path class="st3" d="M404,279.9c0,0,0.4-7.6,4-9.4c1.2-0.6,4.6-0.1,4.6,4.2c0,1.5-0.3,7.6-3.3,9.5
																C408,285.1,404,279.9,404,279.9z"/>
															<path class="st3" d="M418.3,282.9c0,0-0.1-4.9,1.2-7c0.5-0.8,2.1-3.1,3.4-3.1c1.3,0,3.7,1.2,3,7
																c-0.2,1.5-1,5.1-3.7,5.5C419.5,285.7,418.3,282.9,418.3,282.9z"/>
														</g>
														<g>
															<g>
																<path class="st8" d="M404.1,281.4c0,0-0.1-6.1,2.5-9.2c0.9-1,3-1.6,4.9,0.6c0.6,0.7,0.4,6-0.6,8.5
																	c-0.5,1.1-0.9,2.1-2.1,3C407.7,285.1,404.1,281.4,404.1,281.4z"/>
																<path class="st8" d="M419,279.5c0,0,0.2-2.7,1.9-5.1c0.6-0.8,3.4-1.3,4,1c0.2,1,1.2,6.6-1.8,9.2
																	C422.3,285.5,419,279.5,419,279.5z"/>
															</g>
															<g>
																<path class="st3" d="M408.3,272.5c1.5-0.1,2.8,2.5,2.5,4.6c-0.2,1.3-1.6,7-2.5,7.4c-0.9,0.4-1.6,0.4-3,0.3
																	c-1.3-0.1-0.9-2.6-0.7-4.3C404.7,278.7,404.9,272.6,408.3,272.5z"/>
																<path class="st3" d="M422.4,275.4c1.2,0,1.6,1.3,1.6,3c0,1.6,0.1,5.5-1.9,6.9c-0.5,0.3-3-1.2-3.3-1.6
																	c-0.3-0.4,0-2.5,0.3-3.4C419.5,279.3,420.1,275.4,422.4,275.4z"/>
																<g>
																	<path class="st1" d="M405.2,284.4c0,0-0.4-1.5-0.3-2.4c0.1-0.9,0.6-2.2,1-3.3c0.4-1.1,2.1-1.8,1.9,0
																		C407.7,280.5,407.7,284.7,405.2,284.4z"/>
																	<path class="st1" d="M421.8,280.2c0,0,0.2,3.3-0.6,3.7c-0.7,0.4-1.8-0.4-1.5-1.5
																		C420.1,281.4,419.8,280.1,421.8,280.2z"/>
																	<polygon class="st1" points="407.4,274.6 408.7,275 408.7,275.7 407.1,275.9 																	"/>
																	<polygon class="st1" points="421.1,276.8 422.4,276.9 422.1,278.1 421,278.1 																	"/>
																</g>
															</g>
														</g>
													</g>
												</g>
											</g>
											<path class="st9" d="M417.1,277c0,0-1.5,5.3-2.6,6.1"/>
											<polyline class="st9" points="414.5,283 417.1,282.9 417.1,277 											"/>
										</g>
										<g>
											<path class="st3" d="M406.1,292.1c0,0-1.8-1.9,0.1-3.6c0.7-0.6,2.8-1.6,4.2,0.3c0,0,0.3-2.8,1-4.4l0.9,0.1
												c0,0-1.2,3.3-1,4.4c0.1,1,1,1.5,1,1.5l-0.1,1.8h-1.6c0,0,0.3-2.7-2.4-2.7c-1.9,0-1.2,2.2-1.2,2.2L406.1,292.1z"/>
											<path class="st3" d="M420.4,294.1c0,0-0.9,0.1-0.7-1.6c0.1-1.8,2.4-1.8,2.4-1.8l0.6-3.7l0.6,0.2l-0.3,3.5
												c0,0,3.1,0,3.1,2.1c0,1-0.1,2.1-1.9,2.5c0,0,2.7-3-0.7-3C423.3,292.3,420.4,292.3,420.4,294.1z"/>
										</g>
										<path class="st3" d="M403.8,284.4c0,1.1-0.3,1.9-0.5,2c-0.4,0.2-1.6-0.4-2.1-0.9l-0.6,0.8c0.3,0.3,2,1.7,3.2,1.1
											c1.1-0.5,1.1-2.2,1.1-2.8L403.8,284.4z"/>
										<path class="st3" d="M425.4,287.9l0.2,3.4l4.4-1.9l-1.1-0.8c0,0-1.4,0.5-2.2,0.9c0-0.7-0.1-2-0.1-2L425.4,287.9z"/>
									</g>
								</g>
								<path class="st3" d="M383.9,279.2c0,0-2-0.7-1.9,1c0.1,1.7,1.2,3,2.5,2.7c1.3-0.3,2-1.2,1.9-3c-0.1-1.8-1.7-3.6-2.5-4.2
									c-0.8-0.6-0.8,1.6-0.8,1.6s1.9,0.3,2.2,1.4c0.3,1.1,0.7,2.9-1,2.9c-1.7,0-2.1-1.9-0.8-2L383.9,279.2z"/>
							</g>
						</g>
					</g>
					<g>
						<path class="st1" d="M434.2,261.3c0,0,7.5-1,9.1-0.6c0,0,0.8,4.4-6.6,10.3C436.7,271.1,437.7,265.9,434.2,261.3z"/>
						<g>
							<path class="st3" d="M435.4,264l-0.3,0.3l0.6,1.1c0.4,0.7,0.5,2.2,0.4,3.6l0.1,1.8l1.1-0.9c1.5-0.9,4-5.2,4.8-6.5l0.7-1.2
								l-1.3-0.3C438.2,261.2,435.5,263.9,435.4,264z"/>
							<path class="st10" d="M435.9,264.5l-0.2,0.2l0.2,0.2c0.7,0.7,1,3.2,0.7,4.1l0,0.6l0.5-0.3c1.4-0.8,4.2-5.7,4.5-6.3l0.2-0.4
								l-0.4-0.1C438.5,262,436,264.4,435.9,264.5z"/>
							<path class="st10" d="M436.1,264.7c0,0,2.4-2.4,5.2-1.8c0,0-3,5.4-4.4,6.2C436.9,269.1,437.1,265.7,436.1,264.7z"/>
						</g>
					</g>
				</g>
				<g>
					<g>
						<g>
							<path class="st11" d="M404.7,246.8c-1.1-0.7-4.6-15-4.7-18c-0.1-3-0.1-4.3-1.9-4.4c-1.7-0.1-2.3,3.3-2.9,5.1
								c-0.6,1.9,1,14.5,1,14.5c-2.1-0.6-3.1-2-5.1-3.6c-2-1.6-3.2-1.8-3.7-1.4c-2.1,1.4,2.9,7.2,4.3,7.7c6.4,2.3,5.4,4.4,5.4,8.3
								c0,3.9,3.1,3.7,5.7,3.6c2.6-0.1,3.9,0.4,3.6-1c-0.2-1,0.1-2.3,0.3-3C406,252.6,405.2,249.1,404.7,246.8
								C404.7,246.8,404.7,246.8,404.7,246.8z"/>
							<path class="st12" d="M415.7,244.2c2.3-1.7,9-0.7,9-0.7c-0.3-1.2-2.9-2.9-4.3-3.8c0,0.1,0,0.1,0,0.1c-8-0.7-15.5,6.8-15.7,7
								c0.5,2.3,1.2,5.8,2,7.8c0.1-0.3,0.2-0.5,0.2-0.5s1.1,0.1,1.1-1c0-8.6,0.9-5.7,0.9-5.7c4.4,2.7,5.6,7,5.6,7c6,1.7,8,5.8,8,5.8
								c0.1-6.3-5.7-10-5.7-10c5.9-1.2,9.5,3.1,10.8,4.7C426.6,244.4,415.7,244.2,415.7,244.2z"/>
							<path class="st11" d="M431.5,227.7c-4,5-5.1,13.4-5.1,13.4c-1.7-1.3-2.9-6.6-4.7-6.4c-1.7,0.1-1.4,4.3-1.3,5
								c1.4,0.9,4,2.6,4.3,3.8c0,0-6.7-1-9,0.7c0,0,10.9,0.1,11.8,10.7c0.1,0.2,0.3,0.3,0.4,0.4c1.3,1.6,4-0.9,4-0.9
								c-0.4-9.8,1.1-20.1,2-24.7C434.7,225.3,432.2,226.8,431.5,227.7z"/>
						</g>
						<path class="st13" d="M418.3,250.6c0,0,3.8-1.1,4.6,1.6C422.8,252.2,418.6,252.5,418.3,250.6z"/>
						<path class="st1" d="M418.3,244.1c0,0,3.1-1.4,3,0.4C421.3,244.5,419.8,245.5,418.3,244.1z"/>
					</g>
					<path class="st3" d="M434.1,226.3c-0.6-0.4-1.5-0.4-2.4,0.2c-3.4,1.9-4.9,9.1-5.5,12.6c-1.1-2.6-3.5-5.2-4.4-5.2
						c-0.9,0-1.9,1-1.9,2.7v3.4c-0.7-0.1-1.4-0.2-2.1-0.2l-1-0.1c-3-0.3-10.5,5.5-12.4,7c-1.2-3.8-2.2-9.6-3-14.2
						c-0.6-3.4-1-5.8-1.3-6.5c-0.5-1.2-1.1-1.7-1.8-1.8c-1.3-0.1-2.4,1.8-3,2.8c-0.6,1.1-0.8,3.4-0.8,6c0,3.8,0.4,8,0.6,9.8
						c-0.2-0.1-0.4-0.3-0.4-0.3c-1.3-0.8-3-1.8-3.8-2.9c-0.7-1-2.1-1.6-3.3-1.3c-0.9,0.2-1.6,1-1.7,2c-0.3,2.6,4.7,7.3,6.7,8.2
						c3.4,1.5,3.4,2.5,3.4,5.1l0.1,2.4c0.4,4.4,4.7,4.1,7.9,3.9l1.2-0.1c0.7,0,1.2-0.4,1.6-0.9c0.6-1,0.5-2.8,0.2-4.5
						c9.2-2.1,15.2,6.9,15.2,7l0.7,1.1l0.1-1.3c0-0.3,0-0.6,0-0.9c0-4.7-3.3-8.4-4.9-9.8c5.4-0.6,8.3,4.9,8.4,5.2l0.8,0.3l1.5,1.1
						l0.2,0c0.1,0,2.1-0.2,3.1-1.5c0.5-0.6,0.7-1.4,0.6-2.3c-0.3-1.8,0.4-9.5,2-22.9l0.1-0.8C435.2,227.9,434.9,226.8,434.1,226.3
						L434.1,226.3z M406.1,258.5L406.1,258.5c-0.2,0.3-0.5,0.5-0.9,0.5l-1.2,0.1c-3.7,0.2-6.6,0.2-6.9-3.1l-0.1-2.4
						c-0.1-2.7-0.1-4.2-4-5.9c-1.9-0.8-6.4-5.3-6.2-7.2c0.1-0.7,0.4-1.1,1-1.3c0.8-0.2,1.8,0.2,2.3,0.9c0.9,1.2,2.7,2.3,4.1,3.1
						l2,1.2l-0.1-0.9c-0.5-3.7-1.4-13.8-0.1-16.1c0.4-0.7,1.4-2.5,2.2-2.4c0.3,0,0.7,0.5,1,1.2c0.3,0.7,0.7,3.3,1.3,6.3
						c1,5.8,2.4,13.7,4,16.9C405.5,251.5,407.2,256.8,406.1,258.5L406.1,258.5z M417.2,249.8L417.2,249.8l-0.9,0.2l0.7,0.6
						c0.1,0,4.9,4,5.2,9.3c-2-2.4-7.4-7.8-15.1-6.3c-0.2-0.6-2.1-5.5-2.3-6.1c2.7-2.2,9.5-7.2,12-7l1,0.1c0.8,0.1,1.5,0.1,2.2,0.3
						c0,0,1.5,0.5,1.9,0.6c0.6,0.3,1.1,0.8,1.5,1.4c0,0,0,0,0,0c-0.8-0.1-2.1-0.3-2.1-0.3s-4.4,0.2-5.4,1.4l-0.5,0.7l0.8,0.1
						c0,0,3.4,0.3,5.6,1.5c0.8,0.6,2.5,1.9,3.8,3.5c0,0,0,0.1,0.1,0.1c0.6,1,1,2.3,1,3.9c0,0.1,0,0.3,0,0.4
						C425.3,252,422,248.6,417.2,249.8L417.2,249.8z M417.5,243.9L417.5,243.9c1-0.4,2.4-0.4,3.7-0.3l-0.1,1.2
						C419.9,244.3,418.5,244.1,417.5,243.9L417.5,243.9z M434.1,229.5L434.1,229.5l-0.1,0.8c-0.5,4.5-2.1,17.3-2.1,21.9
						c0,0.5,0,0.9,0.1,1.2c0,0.1,0,0.3,0,0.4c0,0.5-0.1,0.9-0.4,1.2c-0.7,0.9-2,1.1-2.3,1.1c-0.2-0.1-1.2-0.9-1.6-1.2
						c0-0.3,0-0.6,0-0.9c0-0.1,0-0.3,0-0.4c0-0.1,0-0.3,0-0.5c0-1.2-0.2-2.7-1.2-4c-1-1.6-2.4-2.8-3.8-3.7c-0.1-0.1-0.2-0.1-0.2-0.1
						c-0.2-0.1-0.3-0.2-0.4-0.3c0-0.3,0.1-1,0.1-1.5c0.4,0,0.8,0.1,1.2,0.1c0.3,0.1,0.6,0.1,0.9,0.2l0.8,0.2l-0.3-0.7l0,0
						c0,0,0,0,0,0v0c0,0,0,0,0,0c-0.1-0.1-0.1-0.3-0.2-0.5c-0.8-1.7-2.1-2.4-3.6-2.8c0-1.1,0-3.6,0-3.6c0-1.1,0.5-1.8,1-1.8
						c0.6,0.2,3.9,3.8,4.1,6.4l0.9,0c0-0.1,1.3-11.6,5.3-13.9c0.5-0.3,1.1-0.5,1.5-0.2c0.3,0.2,0.5,0.8,0.5,1.6
						C434.1,228.8,434.1,229.1,434.1,229.5z"/>
				</g>
			</g>
		</g>
		<g>
			<g>
				<path class="st3" d="M330.1,320.4c0,0,2-0.8,4.8,0.6c0,0,3.4-8.1,22.4-10.9l-0.2-2c0,0,18.5-3.2,25-1.2l0.4,0.6l4.2,0.4
					l25.8,4.4c0,0,13.5-2.4,23.8,10.1c0,0-0.6,3,1.8,5.4c2.4,2.4,8.3,11.9,12.9,7.5c1.4-1.4,5.4-4.6,11.1,1c0,0,10.9,0,8.9,7
					c-0.9,3-2.8,3-2.8,3s1.2,4.6-3.4,5.2c0,0,0.8,4.6-2,5c-2.8,0.4-7.2,1.8-9.5-2.4c0,0-6.4,2.4-7.9-6.4c0,0-12.9-2-18.7-7.2
					c0,0,0,1.8-3.6,0c-1.5-0.8-3.2-3.6-3.6-1.6c-0.4,2-3.8,14.1-12.1,18.7c-1.4,0.8-1.2,1.6-1.2,2.8c0,1.2-0.6,38.5-0.6,38.5
					s-7.4,3.6-10.5,6.8c-3.2,3.2-10.5,4.6-17.1-3.2c-2.5-3-4.2-10.7-4.6-13.1c0,0-2.4,0.2-4-1.2c-1.6-1.4-7.5-5.8-8.9-7
					c-1.4-1.2-8.9-3.2-8.9-6.6c0-3.4,3.8-3.8,6-4.2c2.2-0.4,3.4-0.4,2.8-3c-0.6-2.6-2-17.5,8.7-21.5c0,0,3-4-2-18.5
					c0,0-5.6,1-7.2,0.8l-0.8-1.8c0,0-12.1-0.8-13.1,0.8c-1,1.6-1.4,4,3,4.2c0,0,4,3.8-4.2,9.1c-1,0.6-2.8,1-2.8,1s-1.6-0.2-2.4,1.4
					c-0.8,1.6-4.4,1.2-5.6,0.4c-1.2-0.8-2.8-1.6-4.6-1.8c-1.8-0.2-2.6-1.4-2.4-3c0.2-1.6,0.4-3-1.8-4.2c-2.2-1.2-3.2-1.4-2-4.2
					c0.7-1.6,0.8-1.8-0.2-3.8C322.4,324.6,326.1,321.4,330.1,320.4z"/>
				<g>
					<g>
						<g>
							<path class="st7" d="M358.1,309.8c0,0,19-3.8,27.7-0.8c8.7,3,27.7,4.9,27.7,4.9s13.6-0.8,22,8.7l-9.5,17.1
								c0,0-6.2,1.6-6.2-7.1c0,0-0.8,6-1.6,8.1c-0.8,2.2-3.5,11.7-10,15.7c-1.9,1.2-3,0-6.2-1.1c-3.3-1.1-19.5-11.1-30.9-10.8
								c0,0,0.3-12.2-3-17.1c0,0,2.4-1.9,3.3-2.2c0,0-3.5,0.8-5.2,1.4c-1.6,0.5-5.7,0.8-5.7,0.8S358.1,317.1,358.1,309.8z"/>
							<g>
								<path class="st5" d="M434.8,325.3c0,0,7.1,10.3,11.4,11.9c1.6,0.6,1.9,1.9,6.8-2.2c1.2-1,9.2-0.8,8.7,5.7
									c-0.1,1.6,2.7,7.9-2.7,6.8c-1.3-0.3-3.5-3.8-3-7.3c0,0-1.4,1.4-1.4,2.4c0,1.1,1.1,3-0.5,3.8c-1.6,0.8-4.3-1.1-4.3-1.1
									s-1.9,2.7,5.7,2.2l0.3,1.9c0,0-4.1,0.3-2.7,3.3c0,0-5.7,3.3-6.8-6c0,0-17.6-3.3-19-7.6L434.8,325.3z"/>
								<path class="st5" d="M461.9,337.5c0,0,6.8,1.4,7.3,2.7c0.5,1.4,0.8,3-0.3,4.1c-1.1,1.1-3.5,1.4-5.2,0.3
									C462.2,343.4,462.2,343.2,461.9,337.5z"/>
								<path class="st5" d="M463,345.4c0,0,4.6,0.4,4.6,1.8c0,1.4-1.8,3.8-2.8,3.8c-1,0-4,1-6.8-0.6c-1.2-0.7-1.8-1.8-1-2.8
									C457,347.6,463.2,350.3,463,345.4z"/>
								<path class="st5" d="M464.2,352.3c0,0,0.4,4-4.6,3.8c-5-0.2-5.4-1.2-6-3.6c-0.6-2.4,1.6-3,3-2.2
									C458,351.1,458.4,352.1,464.2,352.3z"/>
							</g>
						</g>
						<g>
							<path class="st3" d="M386.6,307.1c0,0,1.5-1.6,4.9-2.4l0.5-4.3l6.6,7.2c0,0,9.6,2.9,12.1,2.3c0,0,8.1,8.9-4.9,19l-0.8-7.6
								l-2.4,3.5l-0.5-5.1l-6.5,7C395.5,326.6,385.2,315.5,386.6,307.1z"/>
							<g>
								<g>
									<g>
										<path class="st1" d="M387.6,307.6c0,0,2.1-1.8,3.3-1.2c0,0-1.5,4.2,11,11.9l-6,6C395.9,324.3,387.3,313.6,387.6,307.6z"/>
										<path class="st1" d="M410.8,313.3c0,0,3.6,6.9-3.9,12.8l-0.6-6.3L410.8,313.3z"/>
										<g>
											<path class="st7" d="M388.5,307.6c0,0,2.7,9.2,10.4,13.7l-1.5,1.5C397.4,322.8,386.7,312.7,388.5,307.6z"/>
											<path class="st7" d="M406.5,322c0,0,3.5-1.2,4.7-4.8c0,0,0.6,3.9-4.5,6L406.5,322z"/>
										</g>
									</g>
									<path class="st14" d="M394.8,303.9c0.9,1,0.6,5.2,14.9,6.4c0,0,0.6,5-6,10.3v-2.4c0,0-6.2-3.2-11.3-9.7
										c-1.3-1.7-0.8-2-0.2-3.2C392.8,304.1,393.2,302.1,394.8,303.9z"/>
								</g>
								<g>
									<path class="st15" d="M360.1,312.4c0,0,6-2.4,22.4-2.6c1.8,0,1.4,1.6-0.4,1.6C380.3,311.4,366,310.8,360.1,312.4z"/>
									<path class="st15" d="M413.1,314.6c0,0,16.5,2,21.1,10.1l-0.6,1.4c0,0-6-9.9-20.5-9.9V314.6z"/>
								</g>
							</g>
						</g>
					</g>
					<path class="st5" d="M357.1,310.8c0,0,0.8,9.3,2,14.5c0,0-16.1-2-16.7,5.4c0,0,1.4-2,2-0.4c0.6,1.6,2.8,2.2,3.4,2.2
						c0.6,0,0.8,2.2,0,3.2c-0.8,1-2.6,4-4.2,4.6c-1.6,0.6-2.4,0.2-3.2-0.4c-0.8-0.6-1.6-1.6,1.4-3.6c0.7-0.5-0.4-1.4-1.8,0.2
						c-1.4,1.6-3.2,2.8-1,3.8c0.9,0.4,1.8,1,0.4,1.8c-1.4,0.8-2.4,1.8-5.4,0.4c-1.5-0.7-5.6-1.6-5.6-1.6s-0.6-2.6,0-3.6
						c0.6-1,0-1.8-1.4-2.4c-1.4-0.6-3.8-1.4-2.6-4c0.5-1.2,2-2.6,0.8-3c-1.2-0.4-2.4-2.4,0.2-4.4c0.8-0.7,7-4.2,8.7-1.2l-1.2,2.2
						c0,0,0.8,0,2.8-3.4C337.8,317.8,343.8,314.8,357.1,310.8z"/>
				</g>
			</g>
			<g>
				<path class="st1" d="M370.4,345.1c0,0,12.8,2.2,17.7,4.7c2.3,1.2,8.1,4.7,13.8,6c1,0.2,3.9,0.6,4.3,1.7l-3.3-0.5
					c0,0-4.9-1.8-6.8-2.5c-1.8-0.7-8.6-4.6-15.1-6c-1.5-0.3-6.9-2.1-10.7-2.8V345.1z"/>
				<g>
					<g>
						<g>
							<path class="st1" d="M370,346.2l5.8,1.8c0,0-6.8,6,0,21.3L375,372c0,0-8.3,1.8-11.1,1c-2.8-0.8-3-4.4-3-5.2
								C360.9,367,357.5,352.7,370,346.2z"/>
							<path class="st1" d="M376.6,348.1c0,0,13.7,3.2,19.9,7.5c1.2,0.9,6.2,2.8,8.5,2.4l0.2,2.4l0.4,2.2l-10.3,3.4l-1.4-4.4
								l-0.8,0.2l1.2,4.2c0,0-4-3.8-13.9,3.8c-1.2,0.9-2.8,1.6-4.4-2.2C374.4,363.8,371.4,353.7,376.6,348.1z"/>
						</g>
						<g>
							<path class="st0" d="M361.9,370.6c0,0,10.5,0.8,13.5-0.8v0.8c0,0-1,1-13.3,1.4L361.9,370.6z"/>
							<path class="st0" d="M377,370c0,0,5.8-6.4,16.7-7l0.4,1.4c0,0-6-2.2-16.3,6L377,370z"/>
						</g>
					</g>
					<g>
						<path class="st16" d="M360.5,370.4l2,3.8l3.8,0.8c0,0,6,7,7,12.5c0,0-3.2,0.8-7.5-3.8c-1.2-1.2-11.1-6.8-11.9-7.3
							c-0.8-0.6-2.8-3.4,2.2-4.6C357.5,371.4,357.9,372.2,360.5,370.4z"/>
						<path class="st17" d="M367.4,374.4l8.3-1.2l0.6-3.8l2.2,2.6c0,0,0.4,1,2-0.2c1.6-1.2,7.9-7.5,14.1-4.4l0.6,2l-2.2,15.3
							c0,0-1-0.4-1.4,1c-0.4,1.4-3.2,4.6-4.6,5.8c-1.4,1.2-5.1,3.6-7.5,9.8C379.6,401.3,371,375.8,367.4,374.4z"/>
						<path class="st18" d="M383.3,405.2c1.5,1.2,4,3.4,8.9,1.4c1.6-0.7,10.3-8.5,14.3-7.7l-12.7-13.5c0,0-6.2,6.6-7.2,7.5
							C385.7,393.8,377.6,400.6,383.3,405.2z"/>
					</g>
				</g>
			</g>
		</g>
	</g>
	<g>
		<path class="st1" d="M436.1,379.8c0,11.6-9.8,20.9-21.9,20.9c-12.1,0-21.9-9.4-21.9-20.9s9.8-20.9,21.9-20.9
			C426.3,358.9,436.1,368.2,436.1,379.8z"/>
		<path class="st3" d="M434.5,379.8l1.4-1.7l-2.8-8.1l-2.3-1c-2.5-3.4-6.1-5.9-10.3-7.1l-2.3-2.6l-7.5,0.2l-3.4,3
			c-2.9,1.2-5.5,3-7.5,5.3l-4.2,0.8l-3.2,7.7l2.9,2.5c0,0.3-0.1,0.6-0.1,1c0,4,1.3,7.7,3.5,10.7l0.6,4.1l7.7,4.8l2-1.6
			c1.8,0.5,3.8,0.8,5.8,0.8c1.9,0,3.7-0.3,5.4-0.7l2.1,1.4l8.3-6.2l0.1-2.4C433.2,387.6,434.5,383.9,434.5,379.8
			C434.5,379.8,434.5,379.8,434.5,379.8L434.5,379.8z M423,391.3L423,391.3L423,391.3l-3.9-6.3l1.9-7.9l8.8-2l4.1,5.5
			c-0.1,3.4-1.2,6.5-3,9.2L423,391.3L423,391.3z M429.7,368.4L429.7,368.4l-0.1,6l-8.8,2l-5.7-4.7l-0.1-6.5l5.9-2.8
			C424.3,363.7,427.4,365.7,429.7,368.4L429.7,368.4z M408.2,362.9L408.2,362.9l6.2,2.4l0.1,6.5l-6.7,4.6l-7.9-2.5v-5.1
			C401.9,366.1,404.8,364.1,408.2,362.9L408.2,362.9z M395.9,378.2L395.9,378.2l3.6-3.8l7.6,2.4l2.3,8.3l-4,5.5l-6.7-1.1
			c-1.9-2.8-2.9-6.1-2.9-9.7C395.8,379.3,395.9,378.7,395.9,378.2L395.9,378.2z M409.4,397.2L409.4,397.2l-3.5-6.3l4-5.5l8.6-0.4
			l4.2,6.8l-3,5.5c-1.5,0.4-3.1,0.6-4.8,0.6C413,398,411.2,397.7,409.4,397.2z"/>
	</g>
	<g>
		<path class="st19" d="M273.7,435.2c0,0,62.4-20.4,127-20.4c64.6,0,123.2,19.8,123.2,19.8l0.6,37.6c0,0-68.4-18.2-123.2-18.2
			c-54.9,0-95,10-130.1,19.8L273.7,435.2z"/>
		<path d="M400.7,414.8c64.6,0,123.2,19.8,123.2,19.8l0.6,37.6c0,0-68.4-18.2-123.2-18.2c-54.9,0-95,10-130.1,19.8l2.5-38.6
			C273.7,435.2,336.1,414.8,400.7,414.8 M400.7,413.7c-64,0-126.7,20.2-127.3,20.4c-0.5,0.1-0.8,0.6-0.8,1l-2.5,38.6
			c0,0.4,0.1,0.7,0.4,1c0.2,0.2,0.5,0.3,0.7,0.3c0.1,0,0.2,0,0.3,0c36-10,75.8-19.7,129.8-19.7c54.1,0,122.2,18,122.9,18.1
			c0.1,0,0.2,0,0.3,0c0.3,0,0.5-0.1,0.7-0.2c0.3-0.2,0.5-0.6,0.4-0.9l-0.6-37.6c0-0.5-0.3-0.9-0.8-1.1
			C523.7,433.3,464.7,413.7,400.7,413.7L400.7,413.7z"/>
	</g>
	<g>
		<path class="st3" d="M305.2,438.5l-0.4-2.2l-0.3,0.1l-5,0.9l0.4,2.2l0.3,0c0.4-0.1,0.7,0,0.9,0c0.2,0.1,0.2,0.2,0.3,0.2
			c0.1,0.5-0.1,2-1.7,6.8c0,0-0.1,0.2-0.1,0.3c-0.6-0.9-3.1-4.6-3.1-4.6l-0.1-0.2c-0.4-0.6-0.5-0.9-0.6-1.1c0-0.3,0-0.5,0.1-0.6
			c0.1-0.2,0.3-0.3,0.7-0.3l0.2,0c0,0,0.2,0,0.2,0l0.4,0l-0.1-0.3l-0.4-1.9l-8.4,1.6l0.4,2.2l0.3,0c0.3,0,0.7,0.1,0.9,0.2
			c0.2,0.1,0.6,0.5,1.3,1.5c0,0,5.2,7.1,5.3,7.2c0,0.1,0.6,3.2,0.6,3.2c0.3,1.5,0.1,1.9,0.1,2.1c-0.1,0.2-0.4,0.4-1.3,0.6l-0.3,0.1
			l0.4,2.2l8.5-1.6l-0.4-2.2l-0.3,0c-0.9,0.1-1.2,0-1.4-0.1c-0.1-0.1-0.4-0.4-0.6-1.9c0,0-0.7-3.6-0.7-3.7c0.8-2.5,1.6-4.9,2.2-7.3
			c0,0,0.1-0.4,0.1-0.4c0.4-1.5,0.6-2,0.8-2.3c0.2-0.3,0.4-0.5,0.6-0.5L305.2,438.5z"/>
		<path class="st3" d="M323.2,450.1c-0.3-0.3-0.6-0.8-0.8-1.4l-6.9-15.7l-0.3,0l-4.6,0.7l0.8,1l0.2,0.4l0,0.2l0,0.3l-1.9,14.6
			c-0.1,0.9-0.3,1.5-0.4,1.8c-0.2,0.3-0.4,0.5-0.7,0.7l-0.2,0.1l0.3,2.2l5.3-0.7l-0.3-2.3l-0.4,0.1c-0.4,0.1-0.6,0-0.8-0.2
			c-0.2-0.2-0.3-0.5-0.4-0.8l0-0.4l0-0.6c0,0,0.2-2.1,0.2-2.5c0.5-0.1,3.9-0.6,4.4-0.6c0.2,0.4,1,2.6,1,2.6c0,0,0.2,0.6,0.2,0.6
			c0,0,0.1,0.4,0.1,0.4c0,0.3,0,0.5-0.1,0.7c-0.2,0.2-0.4,0.3-0.8,0.4l-0.3,0.1l0.3,2.3l7.7-1.1l-0.3-2.3l-0.3,0
			C323.7,450.5,323.4,450.4,323.2,450.1L323.2,450.1z M312.4,444.9L312.4,444.9c0.1-0.6,0.5-4.2,0.7-5.8c0.6,1.5,2,4.8,2.3,5.4
			C314.8,444.5,313,444.8,312.4,444.9z"/>
		<path class="st3" d="M356.8,444.8c-0.3-0.3-0.6-0.8-0.8-1.4l-6.9-15.7l-0.3,0l-4.6,0.7l0.8,1l0.2,0.4l0,0.2l0,0.3l-1.9,14.6
			c-0.1,0.9-0.3,1.5-0.4,1.8c-0.2,0.3-0.4,0.5-0.7,0.7l-0.2,0.1l0.3,2.2l5.3-0.7l-0.3-2.3l-0.4,0.1c-0.4,0-0.6,0-0.8-0.2
			c-0.2-0.2-0.3-0.5-0.4-0.8l0-0.4l0-0.6c0,0,0.2-2.1,0.2-2.6c0.5-0.1,3.9-0.6,4.4-0.6c0.2,0.4,1,2.6,1,2.6c0,0,0.2,0.6,0.2,0.6
			l0.1,0.4c0,0.3,0,0.5-0.1,0.7c-0.1,0.2-0.4,0.3-0.8,0.4l-0.3,0.1l0.3,2.3l7.7-1.1l-0.3-2.3l-0.3,0
			C357.3,445.2,357,445.1,356.8,444.8L356.8,444.8z M346,439.6L346,439.6c0.1-0.6,0.5-4.2,0.7-5.8c0.6,1.5,2,4.8,2.3,5.4
			C348.4,439.3,346.6,439.5,346,439.6z"/>
		<path class="st3" d="M474.5,449.3c-0.2-0.4-0.3-0.9-0.4-1.6l-2.1-17.5l-0.3,0l-4.6-0.7l0.5,1.2l0,0.5l0,0.2l-0.1,0.3l-6,13.8
			c-0.4,0.8-0.7,1.4-0.9,1.6c-0.2,0.3-0.5,0.4-0.9,0.5l-0.2,0l-0.3,2.3l5.3,0.8l0.3-2.4l-0.4-0.1c-0.4-0.1-0.6-0.2-0.7-0.4
			c-0.1-0.2-0.2-0.5-0.1-0.9l0.1-0.4l0.2-0.6c0,0,0.8-2,0.9-2.5c0.5,0.1,3.9,0.6,4.4,0.6c0,0.5,0.2,2.9,0.2,2.9c0,0,0,0.7,0,0.7
			l0,0.4c0,0.3-0.1,0.5-0.3,0.6c-0.2,0.1-0.5,0.2-0.9,0.1l-0.3,0l-0.3,2.3l7.7,1.1l0.3-2.3l-0.3-0.1
			C474.9,449.8,474.7,449.6,474.5,449.3L474.5,449.3z M465.7,441.1L465.7,441.1c0.2-0.6,1.7-4,2.4-5.5c0.2,1.7,0.6,5.3,0.6,5.9
			C468.1,441.5,466.3,441.2,465.7,441.1z"/>
		<path class="st3" d="M337.7,429.5l-0.3,0l-13.1,1.5l0.3,6.2l1.5-0.2l0-0.3c0.1-1.3,0.3-2.3,0.7-2.8c0.3-0.5,0.8-0.8,1.5-0.9
			c0,0,0.7-0.1,1-0.1c0.1,0.6,1.6,13.9,1.6,13.9l0.1,1.1l-0.1,0.5c-0.1,0.3-0.2,0.5-0.4,0.6c-0.2,0.2-0.6,0.3-1,0.3l-0.4,0l0.3,2.2
			l7.9-0.9l-0.2-2.2l-0.4,0c-0.4,0-0.8,0-1-0.1c-0.2-0.1-0.4-0.3-0.6-0.5c0,0-0.2-0.5-0.2-0.5c0,0-0.2-1.1-0.2-1.1
			s-1.5-13.3-1.6-13.9c0.3,0,0.9-0.1,0.9-0.1c0.8-0.1,1.4,0.1,1.8,0.5c0.5,0.5,0.9,1.3,1.2,2.6l0.1,0.3l1.5-0.2L337.7,429.5z"/>
		<path class="st3" d="M443,426.1l-0.3,0l-13.2-0.8l-0.8,6.1l1.6,0.1l0.1-0.3c0.3-1.3,0.7-2.2,1.2-2.6c0.4-0.5,0.9-0.7,1.6-0.6
			c0,0,0.7,0,1,0.1c0,0.6-0.8,14-0.8,14l-0.1,1.1l-0.1,0.5c-0.1,0.3-0.3,0.4-0.5,0.6c-0.3,0.1-0.6,0.2-1,0.2l-0.4,0l-0.1,2.2
			l7.9,0.5l0.1-2.2l-0.4,0c-0.4,0-0.8-0.1-1-0.3c-0.2-0.1-0.4-0.3-0.5-0.6c0,0-0.1-0.5-0.1-0.5c0,0,0-1.1,0-1.1s0.8-13.3,0.8-14
			c0.3,0,0.9,0.1,0.9,0.1c0.8,0,1.4,0.3,1.7,0.8c0.4,0.5,0.6,1.4,0.7,2.7l0,0.3l1.5,0.1L443,426.1z"/>
		<path class="st3" d="M358.8,426.5l0.1,2.2l0.3,0c0.7,0.1,1,0.2,1.1,0.4c0.1,0.1,0.3,0.5,0.3,1.5l0.7,11.8c0.1,1-0.1,1.4-0.2,1.5
			c-0.1,0.2-0.4,0.4-1.1,0.5l-0.3,0l0.1,2.2l7.3-0.4l-0.1-2.2l-0.3,0c-0.7-0.1-1-0.2-1.1-0.4c-0.1-0.1-0.3-0.5-0.4-1.5l-0.7-11.8
			c-0.1-1,0.1-1.4,0.2-1.5c0.1-0.2,0.4-0.4,1.1-0.5l0.3-0.1l-0.1-2.2l-0.3,0L358.8,426.5z"/>
		<path class="st3" d="M380.4,424.8v2.2l0.3,0c0.7,0.1,1,0.3,1.1,0.4c0.1,0.1,0.3,0.5,0.3,1.5v11.8c0,1-0.2,1.4-0.3,1.5
			c-0.1,0.1-0.4,0.3-1.1,0.4l-0.3,0v2.2h7.7v-2.2l-0.3,0c-0.9,0-1.2-0.2-1.4-0.4c-0.1-0.1-0.3-0.6-0.3-2c0,0,0-4.5,0-5.1
			c0.4,0,1.2,0,1.2,0c0.6,0,1,0.2,1.3,0.6c0.3,0.4,0.5,1,0.6,1.7l0,0.3h1.7v-7.1h-1.8l0,0.3c-0.1,0.7-0.3,1.3-0.6,1.6
			c-0.3,0.3-0.7,0.5-1.3,0.5c0,0-0.8,0-1.2,0c0-0.6,0-5.1,0-5.1c0-0.7,0.2-0.9,0.2-0.9c0.1,0,0.3-0.2,1.3-0.2c1.1,0,2,0.2,2.7,0.6
			c0.6,0.4,1.1,1.1,1.4,2l0.1,0.2h1.5v-5h-0.3H380.4z"/>
		<path class="st3" d="M408.1,427c-0.7-0.9-1.5-1.6-2.4-2.1c-0.9-0.5-1.9-0.7-2.9-0.7c-1.2,0-2.2,0.3-3.2,0.9
			c-1,0.6-1.8,1.4-2.6,2.6c-0.6,1-1.1,2.1-1.5,3.3c-0.3,1.2-0.5,2.5-0.5,3.9c0,1.4,0.2,2.7,0.5,3.9c0.3,1.2,0.8,2.3,1.4,3.2
			c0.8,1.1,1.6,1.9,2.5,2.4c0.9,0.5,2,0.8,3,0.8c1.2,0,2.4-0.3,3.4-1c1-0.6,1.9-1.6,2.7-2.8c0.6-0.9,1-1.9,1.3-3.2
			c0.3-1.2,0.4-2.5,0.4-3.8c0-1.5-0.2-2.9-0.6-4.1C409.4,429,408.9,427.9,408.1,427L408.1,427z M402.8,442.8L402.8,442.8
			c-1,0-1.8-0.7-2.3-2.1c-0.6-1.5-0.9-3.7-0.9-6.5c0-2.5,0.3-4.5,0.9-5.8c0.5-1.2,1.3-1.8,2.3-1.8c1,0,1.8,0.7,2.3,2.1
			c0.6,1.5,0.9,3.7,0.9,6.5c0,2.6-0.3,4.6-0.8,5.9C404.6,442.2,403.8,442.8,402.8,442.8z"/>
		<path class="st3" d="M424.7,427.3c-0.7-0.9-1.5-1.6-2.4-2.1c-0.9-0.5-1.9-0.7-2.9-0.7c-1.2,0-2.2,0.3-3.2,0.9
			c-1,0.6-1.8,1.4-2.6,2.6c-0.6,1-1.1,2.1-1.5,3.3c-0.3,1.2-0.5,2.5-0.5,3.9c0,1.4,0.2,2.7,0.5,3.9c0.3,1.2,0.8,2.3,1.4,3.2
			c0.7,1.1,1.6,1.9,2.5,2.4c0.9,0.5,2,0.8,3,0.8c1.2,0,2.4-0.3,3.4-1c1-0.6,1.9-1.6,2.7-2.8c0.6-0.9,1-2,1.3-3.2
			c0.3-1.2,0.4-2.5,0.4-3.8c0-1.5-0.2-2.9-0.6-4.1C425.9,429.3,425.4,428.2,424.7,427.3L424.7,427.3z M419.3,443.1L419.3,443.1
			c-1,0-1.8-0.7-2.3-2.1c-0.6-1.5-0.9-3.7-0.9-6.5c0-2.6,0.3-4.5,0.8-5.8c0.5-1.2,1.3-1.8,2.3-1.8c1,0,1.8,0.7,2.3,2.1
			c0.6,1.5,0.9,3.7,0.9,6.5c0,2.6-0.3,4.6-0.8,5.9C421.1,442.5,420.3,443.1,419.3,443.1z"/>
		<path class="st3" d="M454.8,438.3c1-0.3,1.8-0.8,2.4-1.4c0.8-0.8,1.2-1.9,1.3-3.1c0.1-1.6-0.3-2.9-1.2-3.9
			c-0.9-0.9-2.4-1.5-4.3-1.7l-7.6-0.7l-0.3,0l-0.2,2.3l0.3,0.1c0.8,0.2,1.1,0.4,1.2,0.6c0.1,0.1,0.2,0.5,0.2,1.6l-1.1,12.3
			c-0.1,1-0.3,1.4-0.4,1.5c-0.1,0.1-0.5,0.3-1.3,0.4l-0.3,0l-0.2,2.3l9,0.8c1.6,0.1,3.1-0.3,4.2-1.3c1.2-1,1.8-2.4,2-4
			c0.1-1.4-0.2-2.6-0.9-3.6C456.9,439.6,456,438.9,454.8,438.3L454.8,438.3z M453.1,436.3L453.1,436.3c-0.5,0.5-1.2,0.7-2.1,0.7
			c0,0-0.2,0-0.4-0.1c0.1-0.6,0.6-6.3,0.6-6.3l0-0.2c0,0,0.3,0,0.3,0c1,0.1,1.6,0.4,2,0.9c0.4,0.5,0.6,1.4,0.5,2.4
			C454,434.9,453.6,435.7,453.1,436.3L453.1,436.3z M450.2,446L450.2,446c-0.1-0.3-0.3-0.9-0.1-2.3c0,0,0.4-4.1,0.4-4.6c0,0,0,0,0,0
			c1.2,0.1,2,0.5,2.5,1.2c0.5,0.7,0.7,1.7,0.6,3.1c-0.1,1.1-0.4,1.9-0.8,2.5c-0.4,0.5-1,0.8-1.7,0.7
			C450.5,446.6,450.3,446.3,450.2,446z"/>
		<path class="st3" d="M490.3,449.1c-0.8,1.4-1.6,2.4-2.3,2.9c-0.7,0.5-1.6,0.6-2.6,0.5c-0.8-0.1-1.3-0.3-1.5-0.7
			c-0.1-0.2-0.3-0.8-0.1-2.6l1.3-10.7c0.1-1,0.3-1.4,0.4-1.5c0.1-0.1,0.4-0.3,1.1-0.3l0.2,0l0.3-2.2l-0.3,0l-6.6-0.8l-0.3,2.2
			l0.2,0.1c0.6,0.2,0.9,0.4,1,0.6c0.1,0.1,0.2,0.5,0.1,1.5l-1.4,11.7c-0.1,1-0.3,1.4-0.4,1.5c-0.1,0.1-0.4,0.3-1.1,0.3l-0.2,0
			l-0.3,2.2l12.4,1.5l1.7-6.2l-1.6-0.2L490.3,449.1z"/>
		<path class="st3" d="M505.2,451.8c-0.8,1.4-1.6,2.4-2.3,2.9c-0.7,0.5-1.6,0.6-2.6,0.5c-0.8-0.1-1.3-0.3-1.5-0.7
			c-0.1-0.2-0.3-0.8-0.1-2.6l1.3-10.7c0.1-1,0.3-1.4,0.4-1.5c0.1-0.1,0.4-0.3,1.1-0.3l0.2,0l0.3-2.2l-0.3,0l-6.6-0.8l-0.3,2.2
			l0.2,0.1c0.6,0.2,0.9,0.4,1,0.6c0.1,0.1,0.2,0.5,0.1,1.5l-1.4,11.7c-0.1,1-0.3,1.4-0.4,1.5c-0.1,0.1-0.4,0.3-1.1,0.3l-0.2,0
			l-0.3,2.2l12.4,1.5l1.7-6.2l-1.6-0.2L505.2,451.8z"/>
	</g>
	<g>
		<path class="st1" d="M315.9,652.1l-0.2-10.6c5.2-1.7,13.1-4.9,16.5-12.6h11.7l-0.1,46.8h-13.9l-0.2-30.2
			C325.3,648.2,320.7,650.7,315.9,652.1z"/>
		<path class="st1" d="M376.5,636.7c3.4,0,6.4,2.5,6.9,7.9c-0.4,5.2-3.1,7.9-6.7,7.9c-4.2,0-6.5-3.4-6.5-8.7
			C370.2,638.5,373.1,636.7,376.5,636.7L376.5,636.7z M375.7,676.1L375.7,676.1c18.1,0,21.2-8.7,21.2-27c0-11.8-6.9-20.6-20.8-20.6
			c-13,0.9-18.3,6.3-18.9,16c1.1,8.5,5.3,15.7,15.7,16c5.6,0.2,10.5-4.2,10.5-4.2c0,8.7-2.8,12.4-6.1,12.4c-3.3,0-4.2-1.3-5.1-5.1
			l-13.3,1.7C360,673.2,367,676.1,375.7,676.1z"/>
		<path class="st1" d="M420.9,636.7c3.4,0,6.4,2.5,6.9,7.9c-0.4,5.2-3.1,7.9-6.7,7.9c-4.2,0-6.5-3.4-6.5-8.7
			C414.5,638.5,417.5,636.7,420.9,636.7L420.9,636.7z M420.1,676.1L420.1,676.1c18.1,0,21.2-8.7,21.2-27c0-11.8-6.9-20.6-20.8-20.6
			c-13,0.9-18.3,6.3-18.9,16c1.1,8.5,5.3,15.7,15.7,16c5.6,0.2,10.5-4.2,10.5-4.2c0,8.7-2.8,12.4-6.1,12.4c-3.3,0-4.2-1.3-5.1-5.1
			l-13.3,1.7C404.4,673.2,411.4,676.1,420.1,676.1z"/>
		<path class="st1" d="M468.3,668.4c-3.4,0-6.4-2.5-6.9-7.9c0.4-5.2,3.1-7.9,6.7-7.9c4.2,0,6.5,3.4,6.5,8.7
			C474.6,666.6,471.7,668.4,468.3,668.4L468.3,668.4z M469.1,629L469.1,629c-18.1,0-21.9,8.5-21.9,26.8c0,11.8,7.7,20.8,21.5,20.8
			c13-0.9,18.3-6.3,18.9-16c-1.1-8.5-5.3-15.7-15.7-16c-5.6-0.2-10.5,4.2-10.5,4.2c0-8.7,2.8-12.5,6.1-12.5c3.3,0,4.2,1.3,5.1,5.1
			l13.3-1.1C484.8,632.5,477.8,629,469.1,629z"/>
		<g>
			<path class="st1" d="M245.1,580.3v-21.8h-15.9v21.8h-9.4v8.1h9.4V609h0.2c0.2,2.1,1.1,6.3,5.7,6.3c6.1,0,23.2,0,23.2,0v-9.6
				h-13.2v-17.3h55.6v-8.1H245.1z"/>
			<path class="st1" d="M294.6,559.5h-18.1c-9.6,8.1-25,16.3-25,16.3h21.6C289.3,567.7,294.6,559.5,294.6,559.5z"/>
			<path class="st1" d="M273,594.6h-17.3l23.4,19.7h20.6v-9.2h-11.6C278.9,596.8,273,594.6,273,594.6z"/>
		</g>
		<path class="st1" d="M394.1,586.3v-6.1h-34.6v-3.5h33.2V571h-33.2v-2.8h34v-5.7h-34v-3.3h-15.1v3.3h-31.8v5.7h31.8v2.8h-30.7v5.7
			h30.7v3.5h-32.4v6.1h9.4l-3.9,2.9h-4.7v8.1h3.3v16.9h59.6h14.2v-16.9h3.1v-8.1l-7.5-0.2l-1.2-2.7H394.1L394.1,586.3z M375.6,609.8
			L375.6,609.8h-46.2v-4.1h46.2V609.8L375.6,609.8z M329.4,601.3L329.4,601.3v-4.1h46.2v4.1H329.4L329.4,601.3z M372.1,591.9
			L372.1,591.9l1.1,0.2h-40.7l0.1-0.2l7.8-5.6h22.4L372.1,591.9z"/>
		<g>
			<path class="st1" d="M484.1,566.5v-5.3h-79.6v5.3h22.6v41.9h-22v6.3h78.6v-6.3h-21.1v-41.9H484.1L484.1,566.5z M447.4,608.4
				L447.4,608.4h-6v-41.9h6V608.4z"/>
			<path class="st1" d="M406.1,575.2h11.6c0,0,4.7,8.8,5.7,26.7H411C411,601.9,411.8,586.8,406.1,575.2z"/>
			<path class="st1" d="M481.9,575.2h-10.6c0,0-4.7,8.8-5.7,26.7h10.4C476.1,601.9,476.2,586.8,481.9,575.2z"/>
		</g>
		<g>
			<path class="st1" d="M529.9,604.6l-0.2,0c0,0,0,1.4,0,2.2c0,0.8,0,1.4-1.8,1.4c-1.8,0-5.1,0-5.1,0v6.1c0,0,11.4,0,14.2,0
				c2.8,0,5.9-0.2,5.9-3.9c0-1.7,0-3.5,0-4.9h0.2v-19.7h-13.2V604.6z"/>
			<path class="st1" d="M572.4,588.6c-0.8,0-2.2-1.8-3.1-2.4c-0.7-0.4-0.1-1.8,0.5-2.8h7.1v-5.1h-33.8v-2.9h32.6v-5.1h-32.6v-3.6
				h32.6v-4.9h-32.6v-3.9h-13.6v3.9h-32v4.9h32v3.6h-32v5.1h32v2.9h-33.4v5.1h7.5l-4.1,5.1h-3.9v6.3h9.4l5.7-5.7l4.5,6.3h12.4
				c0,0-4.1-6.9-4.5-7.7c-0.4-0.7-2.3-0.1,1.1-4.3h24.4c0.4,0.4,1,1,1.4,1.4c0.6,0.6,0,1.8-0.6,2.6c-0.6,0.8-4.7,8.5-4.7,8.5h11.8
				l3.9-5.7l5.1,4.7h11.6v-6.3C577.1,588.6,573.2,588.6,572.4,588.6z"/>
			<path class="st1" d="M525.8,599.2h-15.3c-3.3,2.2-9.4,9-9.4,9h-5.1v6.1h14.9c4.9-9.2,14.9-14.2,14.9-14.2V599.2z"/>
			<path class="st1" d="M562,599.2h-15.3v1c0,0,8.1,4.9,13,14.2h16.9v-6.1H569C569,608.2,565.3,601.3,562,599.2z"/>
		</g>
	</g>
	<path class="st19" d="M627.5,174.8v6.9v47.9v289.9c0,20.2-12.3,65.7-46.3,108.5c-19.2,24.1-42.7,44.3-69.9,60
		c-32.3,18.6-69.7,30.8-111.3,36.3c-41.6-5.5-79-17.7-111.3-36.3c-27.2-15.7-50.7-35.9-69.9-60c-34-42.8-46.3-88.3-46.3-108.5V229.7
		v-47.9v-6.9H627.5 M631,171.3H169v10.4v47.9v289.9c0,41,48.6,184.6,231,208.3c182.4-23.7,231-167.3,231-208.3V229.7v-47.9V171.3
		L631,171.3z"/>
	<g>
		<path class="st20" d="M206.2,91.5c-2.6-2.4-3.9-5.5-3.9-9.2c0-3.6,1.3-6.6,3.9-9.1c2.6-2.5,5.8-3.7,9.7-3.7c3.9,0,7.2,1.1,10,3.4
			l-3.6,3.7c-1.9-1.4-4-2.1-6.4-2.1c-2.4,0-4.4,0.7-5.9,2.2c-1.5,1.4-2.2,3.2-2.2,5.5c0,2.4,0.8,4.3,2.3,5.7
			c1.5,1.4,3.5,2.1,5.9,2.1c2.4,0,4.6-0.7,6.3-2l3.6,3.7c-2.8,2.3-6.1,3.4-10,3.4C212,95.2,208.8,93.9,206.2,91.5z"/>
		<path class="st20" d="M231.8,95.2V69.5h5.5v10.3h12.7V69.5h5.5v25.6l-5.5,0V84.6h-12.7v10.6H231.8z"/>
		<path class="st20" d="M259.8,95.2l10.9-25.6h5.5l10.9,25.6l-5.8,0l-1.6-3.9h-12.4l-1.6,3.9H259.8z M273.6,76.4l-4.1,9.7h8.2
			L273.6,76.4z"/>
		<path class="st20" d="M291.2,95.2V69.5h1.8l17.1,16.1V69.5h5.5v25.6h-2l-16.9-15.9v15.9H291.2z"/>
		<path class="st20" d="M323.6,91.5c-2.6-2.4-3.9-5.5-3.9-9.2c0-3.6,1.3-6.6,3.9-9.1c2.6-2.5,5.8-3.7,9.7-3.7c3.9,0,7.2,1.1,10,3.4
			l-3.6,3.7c-1.9-1.4-4-2.1-6.4-2.1c-2.4,0-4.4,0.7-5.9,2.2c-1.5,1.4-2.2,3.2-2.2,5.5c0,2.4,0.8,4.3,2.3,5.7
			c1.5,1.4,3.5,2.1,5.9,2.1c2,0,3.5-0.4,4.5-1.1v-4.4l-3.6,0v-4.8h9.1v12c-2.8,2.3-6.1,3.4-10,3.4C329.5,95.2,326.2,93.9,323.6,91.5
			z"/>
		<path class="st20" d="M351.4,91.5c-2.6-2.4-3.9-5.5-3.9-9.2c0-3.6,1.3-6.6,3.9-9.1c2.6-2.5,5.8-3.7,9.7-3.7c3.9,0,7.2,1.1,10,3.4
			l-3.6,3.7c-1.9-1.4-4-2.1-6.4-2.1c-2.4,0-4.4,0.7-5.9,2.2c-1.5,1.4-2.2,3.2-2.2,5.5c0,2.4,0.8,4.3,2.3,5.7
			c1.5,1.4,3.5,2.1,5.9,2.1c2.4,0,4.6-0.7,6.3-2l3.6,3.7c-2.8,2.3-6.1,3.4-10,3.4C357.2,95.2,354,93.9,351.4,91.5z"/>
		<path class="st20" d="M377,95.2V69.5h5.5v10.3h12.7V69.5h5.5v25.6l-5.5,0V84.6h-12.7v10.6H377z"/>
		<path class="st20" d="M411.5,69.5v14.9c0,1.9,0.6,3.4,1.8,4.3c1.2,0.9,2.7,1.4,4.5,1.4c1.8,0,3.3-0.5,4.5-1.4
			c1.2-0.9,1.8-2.3,1.8-4.3V69.5h5.5v16.2c0,2.6-1.1,4.8-3.4,6.7c-2.2,1.8-5.1,2.7-8.5,2.7s-6.2-0.9-8.5-2.7c-2.2-1.8-3.4-4-3.4-6.7
			V69.5H411.5z"/>
		<path class="st20" d="M435.6,95.2V69.5h1.8l17.1,16.1V69.5h5.5v25.6h-2L441,79.3v15.9H435.6z"/>
		<path class="st20" d="M476.7,69.5h6.4l6.3,8.4l6.5-8.4h6.3l-10,12.8v12.8h-5.5V82.4L476.7,69.5z"/>
		<path class="st20" d="M504.8,95.2l10.9-25.6h5.5L532,95.2l-5.8,0l-1.6-3.9h-12.4l-1.6,3.9H504.8z M518.6,76.4l-4.1,9.7h8.2
			L518.6,76.4z"/>
		<path class="st20" d="M558.3,69.5v4.8h-9.1v20.8h-5.5V74.3h-9.1v-4.8H558.3z"/>
		<path class="st20" d="M561,95.2l10.9-25.6h5.5l10.9,25.6l-5.8,0l-1.6-3.9h-12.4l-1.6,3.9H561z M574.7,76.4l-4.1,9.7h8.2
			L574.7,76.4z"/>
		<path class="st20" d="M592.3,69.5h5.4v25.7h-5.4V69.5z"/>
		<path class="st20" d="M233.4,130.2v-25.6h19.2v4.8h-13.7v5.5H249v4.8h-10.1v10.6H233.4z"/>
		<path class="st20" d="M259.1,126.5c-2.6-2.5-3.9-5.5-3.9-9.1c0-3.6,1.3-6.7,3.9-9.1c2.6-2.4,5.8-3.7,9.7-3.7
			c3.9,0,7.1,1.2,9.7,3.7c2.6,2.4,3.9,5.5,3.9,9.1c0,3.6-1.3,6.7-3.9,9.1c-2.6,2.4-5.8,3.7-9.7,3.7
			C264.9,130.2,261.7,129,259.1,126.5z M268.8,125.4c2.4,0,4.4-0.8,5.9-2.3c1.5-1.5,2.3-3.4,2.3-5.7c0-2.3-0.8-4.2-2.3-5.7
			c-1.5-1.5-3.5-2.3-5.9-2.3c-2.4,0-4.4,0.8-5.9,2.3c-1.5,1.5-2.3,3.4-2.3,5.7c0,2.3,0.8,4.2,2.3,5.7
			C264.4,124.6,266.4,125.4,268.8,125.4z"/>
		<path class="st20" d="M289,126.5c-2.6-2.5-3.9-5.5-3.9-9.1c0-3.6,1.3-6.7,3.9-9.1c2.6-2.4,5.8-3.7,9.7-3.7c3.9,0,7.1,1.2,9.7,3.7
			c2.6,2.4,3.9,5.5,3.9,9.1c0,3.6-1.3,6.7-3.9,9.1c-2.6,2.4-5.8,3.7-9.7,3.7C294.9,130.2,291.6,129,289,126.5z M298.7,125.4
			c2.4,0,4.4-0.8,5.9-2.3c1.5-1.5,2.3-3.4,2.3-5.7c0-2.3-0.8-4.2-2.3-5.7c-1.5-1.5-3.5-2.3-5.9-2.3c-2.4,0-4.4,0.8-5.9,2.3
			c-1.5,1.5-2.3,3.4-2.3,5.7c0,2.3,0.8,4.2,2.3,5.7C294.3,124.6,296.3,125.4,298.7,125.4z"/>
		<path class="st20" d="M338.7,104.5v4.8h-9.1v20.8h-5.5v-20.8H315v-4.8H338.7z"/>
		<path class="st20" d="M362.1,116.7c2.4,1.5,3.7,3.5,3.8,5.9c-0.2,4.8-3,7.4-8.2,7.7l-15.3,0v-25.6h14.5c4.6,0.3,7,2.8,7.3,7.5
			C364,114.4,363.3,115.9,362.1,116.7z M347.8,114.8h7.6c2.2,0,3.3-1.1,3.4-3.2c-0.1-1.3-1.2-1.9-3.3-2h-7.7V114.8z M347.8,126.2
			h8.9c2.6,0,3.9-1.3,3.9-3.7c-0.1-1.6-1.4-2.5-3.9-2.6h-9V126.2z"/>
		<path class="st20" d="M369.9,130.2l10.9-25.6h5.5l10.9,25.6l-5.8,0l-1.6-3.9h-12.4l-1.6,3.9H369.9z M383.7,111.4l-4.1,9.7h8.2
			L383.7,111.4z"/>
		<path class="st20" d="M406.7,104.5v20.8h14.5v4.8h-20v-25.6H406.7z"/>
		<path class="st20" d="M431.2,104.5v20.8h14.5v4.8h-20v-25.6H431.2z"/>
		<path class="st20" d="M465.6,126.5c-2.6-2.4-3.9-5.5-3.9-9.2c0-3.6,1.3-6.6,3.9-9.1c2.6-2.5,5.8-3.7,9.7-3.7c3.9,0,7.2,1.1,10,3.4
			l-3.6,3.7c-1.9-1.4-4-2.1-6.4-2.1c-2.4,0-4.4,0.7-5.9,2.2c-1.5,1.4-2.2,3.2-2.2,5.5c0,2.4,0.8,4.3,2.3,5.7
			c1.5,1.4,3.5,2.1,5.9,2.1c2.4,0,4.6-0.7,6.3-2l3.6,3.7c-2.8,2.3-6.1,3.4-10,3.4C471.4,130.2,468.2,128.9,465.6,126.5z"/>
		<path class="st20" d="M496.7,104.5v20.8h14.5v4.8h-20v-25.6H496.7z"/>
		<path class="st20" d="M520.7,104.5v14.9c0,1.9,0.6,3.4,1.8,4.3c1.2,0.9,2.7,1.4,4.5,1.4c1.8,0,3.3-0.5,4.5-1.4
			c1.2-0.9,1.8-2.3,1.8-4.3v-14.9h5.5v16.2c0,2.6-1.1,4.8-3.4,6.7c-2.2,1.8-5.1,2.7-8.5,2.7c-3.4,0-6.2-0.9-8.5-2.7
			c-2.2-1.8-3.4-4-3.4-6.7v-16.2H520.7z"/>
		<path class="st20" d="M564.2,116.7c2.4,1.5,3.7,3.5,3.8,5.9c-0.2,4.8-3,7.4-8.2,7.7l-15.3,0v-25.6h14.5c4.6,0.3,7,2.8,7.3,7.5
			C566,114.4,565.4,115.9,564.2,116.7z M549.9,114.8h7.6c2.2,0,3.3-1.1,3.4-3.2c-0.1-1.3-1.2-1.9-3.3-2h-7.7V114.8z M549.9,126.2
			h8.9c2.6,0,3.9-1.3,3.9-3.7c-0.1-1.6-1.4-2.5-3.9-2.6h-9V126.2z"/>
	</g>
	<g>
		<path class="st19" d="M272.7,450.9c0,0-24.1,7.8-46.9,20.6l19.8,8.5c0,0-15.4,24.3-17.8,30.7l76.6-30.4l-33.1-6.6L272.7,450.9z"/>
		<path d="M271.4,452.6l-1.4,21.1c0,0.6,0.4,1.1,0.9,1.2l29.2,5.9l-70.2,27.9c4.2-8.5,16.4-27.8,16.5-28c0.2-0.3,0.2-0.6,0.1-1
			s-0.3-0.6-0.7-0.7l-17.6-7.5C246.9,461.4,265.8,454.5,271.4,452.6 M272.7,450.9c0,0-24.1,7.8-46.9,20.6l19.8,8.5
			c0,0-15.4,24.3-17.8,30.7l76.6-30.4l-33.1-6.6L272.7,450.9L272.7,450.9z"/>
	</g>
	<g>
		<path class="st19" d="M524.1,448.4c0,0,32.6,12.1,42.8,18.7c2.2,1.5-0.5,2.3-1.3,2.6s-12,3.8-13.9,4.4c-1.9,0.6-4.5,0.6,1,9.7
			c5.5,9.1,13.7,22.5,13.7,22.5l-70-28.6l28.1-5.7L524.1,448.4z"/>
		<path d="M525.3,450.1c6.7,2.5,32.3,12.4,40.9,18c0,0,0.1,0.1,0.1,0.1c-0.3,0.2-0.7,0.3-0.9,0.4c-0.1,0-0.2,0.1-0.3,0.1
			c-0.7,0.3-11.7,3.7-13.8,4.4c-0.1,0-0.2,0.1-0.3,0.1c-0.8,0.2-2.1,0.6-2.6,1.8c-0.7,1.7,0.3,4.5,3.3,9.5c3.9,6.4,9.1,15,11.8,19.5
			l-63.1-25.8l24.3-4.9c0.6-0.1,0.9-0.6,0.9-1.2L525.3,450.1 M524.1,448.4l0.4,23.7l-28.1,5.7l70,28.6c0,0-8.1-13.4-13.7-22.5
			c-5.5-9.1-3-9.1-1-9.7s13.1-4.1,13.9-4.4s3.5-1.1,1.3-2.6C556.7,460.5,524.1,448.4,524.1,448.4L524.1,448.4z"/>
	</g>
</g>
</svg>
