<?xml version="1.0" encoding="utf-8"?>
<!-- Generator: Adobe Illustrator 22.1.0, SVG Export Plug-In . SVG Version: 6.00 Build 0)  -->
<svg version="1.1" id="图层_1" xmlns="http://www.w3.org/2000/svg" xmlns:xlink="http://www.w3.org/1999/xlink" x="0px" y="0px"
	 viewBox="0 0 800 800" style="enable-background:new 0 0 800 800;" xml:space="preserve">
<style type="text/css">
	.st0{fill:#FFFFFF;}
	.st1{fill:#003586;}
	.st2{fill:url(#SVGID_1_);}
</style>
<g>
	<g>
		<path class="st0" d="M555.7,186.3c0,0-4.3-27-26-44c-24.7-20.7-64-30-87.3-35.3c-4.3-1-19.1-12.2-25.6-24S400,50,400,50
			s-10.2,21.2-16.8,33s-21.2,23-25.6,24c-23.3,5.3-62.7,14.7-87.3,35.3c-21.7,17-26,44-26,44C155,201,136,259.7,136,291
			c0,31.3,0,263,0,297s12,60,30.5,76s35.5,23.5,71.5,29.5c40.5,6,77.5,19.5,94,27s68,29.5,68,29.5s51.5-22,68-29.5s53.5-21,94-27
			c36-6,53-13.5,71.5-29.5s30.5-42,30.5-76s0-265.7,0-297C664,259.7,645,201,555.7,186.3z"/>
		<path class="st1" d="M400,89.9c0.3,0.6,0.7,1.2,1,1.8c7.9,14.3,26,30.2,37.3,32.8c20.2,4.6,57.9,13.2,79.8,31.6l0.2,0.2l0.2,0.2
			c15.2,11.9,19.1,31.5,19.3,32.8l1.9,12.7l13,2.1c34.8,5.7,60.5,19,76.4,39.4C644.4,263,646,283.2,646,291v297
			c0,26.7-8.6,48.8-24.3,62.4c-14.4,12.5-27.5,19.5-62.5,25.3c-39.7,5.9-77.9,19-98.6,28.4c-12.5,5.7-45.9,20-60.6,26.3
			c-14.7-6.3-48.1-20.6-60.6-26.3c-20.7-9.4-59-22.5-98.6-28.4c-35-5.9-48.1-12.8-62.5-25.3C162.6,636.8,154,614.7,154,588V291
			c0-7.8,1.6-28,16.9-47.5c15.9-20.4,41.6-33.7,76.4-39.4l12.8-2.1l2.1-12.8c0-0.2,3.7-20.4,19.3-32.7l0.2-0.2l0.2-0.2
			c21.9-18.4,59.6-27,79.8-31.6c11.3-2.6,29.4-18.6,37.3-32.8C399.3,91.1,399.7,90.5,400,89.9 M400,50c0,0-10.2,21.2-16.8,33
			s-21.2,23-25.6,24c-23.3,5.3-62.7,14.7-87.3,35.3c-21.7,17-26,44-26,44C155,201,136,259.7,136,291s0,263,0,297s12,60,30.5,76
			s35.5,23.5,71.5,29.5c40.5,6,77.5,19.5,94,27s68,29.5,68,29.5s51.5-22,68-29.5s53.5-21,94-27c36-6,53-13.5,71.5-29.5
			s30.5-42,30.5-76s0-265.7,0-297s-19-90-108.3-104.7c0,0-4.3-27-26-44c-24.7-20.7-64-30-87.3-35.3c-4.3-1-19.1-12.2-25.6-24
			S400,50,400,50L400,50z"/>
		<radialGradient id="SVGID_1_" cx="487.4986" cy="345.214" r="463.0648" gradientUnits="userSpaceOnUse">
			<stop  offset="0" style="stop-color:#FFFFFF"/>
			<stop  offset="0.6002" style="stop-color:#EA5935"/>
			<stop  offset="1" style="stop-color:#E60012"/>
		</radialGradient>
		<path class="st2" d="M400,111.1c11.2,13,25.7,22.9,35.6,25.2c19.2,4.4,55.1,12.6,74.7,29.1l0.2,0.2l0.1,0.1l0.2,0.1l0.2,0.2
			c11.1,8.7,14.5,23.6,14.9,25.4l1.8,12.4l1.3,8.7l8.7,1.4l13,2.1c31.7,5.2,54.9,17,68.9,34.9c12.9,16.6,14.3,33.6,14.3,40.1v297
			c0,23.2-7.1,42.1-20.1,53.3c-13,11.2-24.2,17.1-56.6,22.6c-40.9,6.1-80.3,19.6-101.7,29.3c-11.2,5.1-39.8,17.4-55.6,24.2
			c-15.8-6.8-44.4-19.1-55.6-24.2c-21.4-9.7-60.9-23.2-101.7-29.3c-32.3-5.4-43.6-11.3-56.6-22.6c-13-11.2-20.1-30.2-20.1-53.3V291
			c0-6.5,1.4-23.6,14.3-40.1c14-18,37.2-29.7,68.9-34.9l12.8-2.1l8.5-1.4l1.4-8.5l2-12.6c0.2-1.1,3.5-16.3,14.9-25.3l0.2-0.2
			l0.2-0.1l0.1-0.1l0.2-0.2c19.7-16.5,55.5-24.7,74.8-29.1C374.3,133.9,388.9,124.1,400,111.1z"/>
	</g>
	<g>
		<path class="st0" d="M536.1,539.4c-5.6-6.2-8.6-8.6-10.9-9.6s-2.5,1.6-2.5,1.6l-9.8,7.4l-27.6-22.9l-8.1,4.4
			c0,0-9.4-10.6-17.5-19.9s-10.8-8.9-10.8-8.9l-9.6,7.2c0,0-1.9-2.8-6-9.9s-5.1-7.2-6.9-7.1s-4.1,1-8.4-1s-12.4-13.5-12.4-13.5
			l-23.5,22.2l-14.8,3.5c-12.2,24.8-23,29.1-25.4,28.2s-5.4-6-5.4-6l-14.5,15c-3-2.8-6.4-3.1-6.4-3.1c-7.2,3.4-14.9,2.1-16.2,0.6
			s-5.2-5.2-5.2-5.2L246,555.9l44.8-21.2l12.1,8.9l9.3-8.5l11.3,2.5l11.5-11c0,0,8.1-0.2,10.4-0.4c2.3-0.2,8.3-4.4,9.9-5.5
			c1.6-1.1,8.2-6.1,8.2-6.1c1.5-3.3,5.1-18.2,5.1-18.2l10.5-1.3c10.2-2.6,12.3-4.6,13.4-5.9c3.7-4.8,9.3-9.5,10.2-10.2
			s3.4-2.5,3.2-1.2c-1.6,7-1.1,15.4-0.7,17.1s2,3.8,2.2,5.1s2.5,11.6,2.5,11.6l-14.9,1.7l-6.4,19.8l-31.1,15.9l37.5-11.5l6-14.5
			l41.9-9.5l9.8-7.9L461,525l-14.2,6.2l1,10.2l-15.8,4.6l21.5-2.2l-0.4-10l26.8-4.1l8.4,3l28.2,14.4c4.6-3.4,9.6-5.4,9.6-5.4
			l27.6,17.4C551.9,556.4,541.8,545.6,536.1,539.4z"/>
		<path class="st0" d="M347.8,552.8c-0.9-2-2.3-6.5-2.3-6.5l-11.8-7.6l-5.5,9.9l-8.6-3L300,556.4l21.7-5.6l16.9,11.8l-7.9-11.1
			l3.5-7.6l5.1,2.9l2.4,7c0,0,7.8,3.2,12.4,4.6c0.2,0,0.3,0.1,0.5,0.2C351,556.5,348.4,553.9,347.8,552.8z"/>
		<path class="st0" d="M354.6,558.7c2.5,1.6,5.5,2.9,8.5,3.5C363.9,562.4,359.1,560.1,354.6,558.7z"/>
	</g>
	<g>
		<path d="M181.7,386l4,59c0,0,48.7-59,76-81.3c27.3-22.3,106-66,106-66s-35.7,7.7-57.3,18.7C288.7,327.3,240.7,352,181.7,386z"/>
		<path d="M287.2,323.2c0,0-39,15.5-81.5,1.8c0,0,28.2-7,61.2-23.2s71-32.2,133-42.8c21.5-3.5,42-5,59-2.8
			c16.1,2.1,41.3,8.3,56.2,2.7c1.2-0.5,2.5,0.4,2.4,1.7c-0.2,3.7-1.8,11.5-9.9,24.6c-0.4,0.6-0.5,1.3-0.3,1.9c0.8,3.5,3,15,0.3,23.2
			c-3.2,9.8-14,24.2-14,24.2s5-16.5-2.8-20.5s-15.5,0.2-26.5,10.5s-22,33.2-23.5,48.8s0.8,26,12.5,30.8s35.8-34.2,37.5-54
			c0,0,3,5.4,3,9s1.8,5.1,4.4,6.6s5.4,8.2,1.8,20.8s-18.5,65-72.1,79.2c0,0,25.3-16,23.8-30.8c-0.5-3-2.8-4.2-10.3-3.5
			s-34.3,2.2-41.5,3s-13.3,6.2-17.5,20.7s-9.5,45.3,5.5,57.3h-30.5c0,0-9.5-35.5,24.2-75.5c0,0-40.8,1-58.8-23
			c-10.3-15.2-14.1-43.9,9.1-63c0.6-0.5,1.4,0,1.3,0.7c-1.1,7.3-3.9,33,10.1,50c16.5,20,87.8,26.5,121.5,19.5c0,0,0.8,8-2.2,14.5
			c0,0,28-26.8,33-58.8c0.8-4.2-3-8.2-3.7-9.1c-0.7-0.8-2.5-0.5-4.1,3.5s-15,41.6-36.8,41.9c-21.8,0.3-35.8-20.7-24.2-51.3
			s27.7-44.7,45-52s25,2,26.2,6.5c0,0,7.2-12.8,4.7-24.3c-1.2-3.5-3.5-2.5-13,1.2c0,0,10.2-9.3,11.7-12.8s-0.5-8.8-4.8-9.3
			c-1.4-0.2-3.4,0.8-4.3,1.2c-0.9,0.4-3,0.8-5.3,0.5c-2.3-0.3-36.5-11-70.5-6.2c-34,4.8-113.7,36-143.7,53.8
			C272.8,320.5,280.2,323.3,287.2,323.2z"/>
		<path d="M379,298c0,0,23.7-9,36.2-12.3c12.5-3.3,28-5.3,41.5,1.5c0,0-11.8,2.8-14.8,4.8s-10,9.8-11.8,13.7c0,0,3.5-8.5,1.7-14
			c0,0-0.5,6.7-7.8,4.8c-3.7-1.3-2.8-5.5-1-6.8C422.8,289.7,407.5,291.3,379,298z"/>
		<path d="M396.3,322.8c0,0,10.2,15.7,29.8,3.2c0,0-5.2,9.3-15.7,8.7C400,334,397.5,327.3,396.3,322.8z"/>
		<ellipse transform="matrix(0.8875 -0.4607 0.4607 0.8875 -194.0022 162.5836)" cx="236.1" cy="478.7" rx="17.6" ry="11.6"/>
		<ellipse transform="matrix(0.8875 -0.4607 0.4607 0.8875 -169.0579 150.4361)" cx="223.6" cy="421.5" rx="15.9" ry="9.4"/>
		<ellipse transform="matrix(0.8875 -0.4607 0.4607 0.8875 -160.1498 164.2469)" cx="256.4" cy="410.2" rx="9.7" ry="7.5"/>
		<ellipse transform="matrix(0.9252 -0.3795 0.3795 0.9252 -156.8902 116.7947)" cx="217.8" cy="456.3" rx="9.3" ry="7.2"/>
		<ellipse transform="matrix(0.9252 -0.3795 0.3795 0.9252 -150.1493 128.944)" cx="252" cy="445.3" rx="9.7" ry="7.5"/>
		<ellipse transform="matrix(0.9252 -0.3795 0.3795 0.9252 -157.0947 138.6961)" cx="273.3" cy="467.8" rx="10.2" ry="8.8"/>
		<ellipse transform="matrix(0.7071 -0.7071 0.7071 0.7071 -242.6199 356.5432)" cx="309.1" cy="471.1" rx="10" ry="7.8"/>
		<ellipse transform="matrix(0.7071 -0.7071 0.7071 0.7071 -255.7411 365.196)" cx="313" cy="491.3" rx="11.9" ry="8.7"/>
		<ellipse transform="matrix(0.7071 -0.7071 0.7071 0.7071 -238.5277 384.9433)" cx="345.4" cy="480.4" rx="11.1" ry="8.1"/>
		<ellipse transform="matrix(0.7071 -0.7071 0.7071 0.7071 -220.961 368.0476)" cx="333.8" cy="450.7" rx="10.8" ry="7.5"/>
		<ellipse transform="matrix(0.7071 -0.7071 0.7071 0.7071 -214.4725 387.073)" cx="360" cy="452.4" rx="9.2" ry="6.7"/>
		<ellipse transform="matrix(0.9252 -0.3795 0.3795 0.9252 -166.0052 141.2045)" cx="275.2" cy="491.7" rx="8.2" ry="6.8"/>
		<ellipse transform="matrix(0.843 -0.5379 0.5379 0.843 -191.5351 228.8163)" cx="296.2" cy="442.6" rx="15.4" ry="10"/>
		<ellipse transform="matrix(0.866 -0.5 0.5 0.866 -174.8233 197.5004)" cx="281.1" cy="425" rx="11.3" ry="7.9"/>
		<ellipse transform="matrix(0.866 -0.5 0.5 0.866 -160.9427 198.5673)" cx="290.1" cy="399.6" rx="12.1" ry="7.9"/>
		<ellipse transform="matrix(0.9283 -0.3719 0.3719 0.9283 -118.7838 127.9229)" cx="272.2" cy="371.9" rx="9.9" ry="7.5"/>
		<ellipse transform="matrix(0.9283 -0.3719 0.3719 0.9283 -108.8198 135.2978)" cx="296.3" cy="349.7" rx="9.2" ry="7.6"/>
		<ellipse transform="matrix(0.9501 -0.3119 0.3119 0.9501 -90.9315 116.9427)" cx="320.2" cy="342.8" rx="12.3" ry="8.3"/>
		<ellipse transform="matrix(0.9501 -0.3119 0.3119 0.9501 -86.1378 123.397)" cx="342.7" cy="331" rx="6.5" ry="4.6"/>
		<ellipse transform="matrix(0.9501 -0.3119 0.3119 0.9501 -90.2917 127.9001)" cx="354.7" cy="346.2" rx="9.9" ry="7.3"/>
		<ellipse transform="matrix(0.9501 -0.3119 0.3119 0.9501 -102.1031 132.7564)" cx="364" cy="385.6" rx="10.9" ry="7.3"/>
		<ellipse transform="matrix(0.9501 -0.3119 0.3119 0.9501 -95.7832 139.7587)" cx="389.1" cy="369.3" rx="9.2" ry="7.1"/>
		<ellipse transform="matrix(0.9283 -0.3719 0.3719 0.9283 -114.8047 157.6959)" cx="351.4" cy="376.5" rx="6.7" ry="4.5"/>
		<ellipse transform="matrix(0.9069 -0.4214 0.4214 0.9069 -135.2459 199.5445)" cx="383.8" cy="405.7" rx="7.9" ry="6.3"/>
	</g>
	<g>
		<path class="st1" d="M267.8,233l0.6,4.6c0,0-6.2,3.5-5.8,6.5c0.2,1,2.1-0.4,3.2-1s4.8-1.8,5.8,3.2s0.5,11.6-10,15.5
			s-13.6-9.2-9.4-16.9c0,0-3,13.5,4.8,13.2s11.7-6,12.1-6.8c0.4-0.8,0.7-3.1-1.7-1.9c-2.3,1.2-5.2,3-6.5,0.7S257,239.8,267.8,233z"
			/>
		<polygon class="st1" points="288.8,216.3 287,219.8 290.2,222.5 292,218.7 		"/>
		<path class="st1" d="M292,226.6l-1.5,5.6c0,0,2.2,3.5,3,5s1.8,3.7-2,6.9s-6.6,5.2-9.1,5.7c0,0,3.8,3.1,7.3,1.2
			c3.5-1.8,7.3-5.2,6.7-13c0,0,5.6-0.9,7.6-1.2c2-0.3,3.5-2.5,3.7-3.7c0,0,1.7,2.4,4.2,2.2s7.4-1,8.9-1.4c1.5-0.4,2.6-1.3,2.9-3.2
			c0,0,1.6,2.2,4.2,1.8c2.7-0.4,8.4-1.7,9.7-2c1.2-0.3,2.3-1,2.8-3.6c0,0,1.8,2.6,3.8,2.3s6.9-0.9,8.8-1.4c1.9-0.5,3.1-0.8,3.7-3.7
			c0,0,1.8,2.6,4.6,2.2s11.1-2.1,13.1-2.6c4.8-1.2,5.4-9,0.2-16l-1.8,4.7c0,0,1.9,1.5,2.8,2.9c0.8,1.4,0.8,2.1-2.5,2.8
			s-9.6,1.8-11.3,2.1s-3.8-0.6-5.6-3.9c0,0,0.3,4.8-2.4,5.3s-7.2,1.3-8.4,1.5s-3.2-0.5-3.8-3.4s-3.2-19.2-3.2-19.2s-1.9,1.9-2.2,3.2
			s-0.5,1.9,0.2,5.2s2.3,11.4,2.6,12.5s-0.1,2.9-1.4,3.2s-8.2,1.6-9.4,1.8s-3.1,0.6-4.8-4.6c0,0-0.1,2.6-0.4,3.9s-0.9,1.8-2.4,2.1
			s-6.9,1.2-7.9,1.3s-2.4,0.8-5.2-3.5c0,0-0.2,1.9-0.6,3s-1.6,1.9-2.9,2.2s-5.8,1-7.3,1.2S293.9,231.5,292,226.6z"/>
		<polygon class="st1" points="322.1,236.8 320.2,240.3 323.3,242.7 325.2,239.3 		"/>
		<polygon class="st1" points="328.2,235.6 326.4,239 329.4,241.4 331.2,238.1 		"/>
		<polygon class="st1" points="326.2,241.1 324.4,244.7 327.4,247.1 329.2,243.8 		"/>
		<polygon class="st1" points="370.2,229.3 368.4,232.8 371.5,235.2 373.3,231.8 		"/>
		<polygon class="st1" points="376.3,228.1 374.6,231.4 377.7,234.1 379.4,230.5 		"/>
		<polygon class="st1" points="411.8,202.1 409.1,205.1 411.3,208.3 414.2,205.5 		"/>
		<path class="st1" d="M415.5,211.3l-2.8,3.2c0,0-1.1-1.2-3.2-0.6c-2.2,0.6-3.2,2.8,0.4,3.8c3.6,1.1,8.7-1,8.7-1l-3.1,4.3
			c0,0-11.2,0.3-13.3,7.9c-2.1,7.6,7.5,10.6,17.6,9.2c0,0-4.5,3.1-7.1,3.5c-2.6,0.4-14,0.4-13.7-11c0.2-4.6,5.1-8.6,7.6-10.1
			c0,0-2.8-3.1-1-5.9S410.2,208.7,415.5,211.3z"/>
		<path class="st1" d="M428,197.5l-3.8,3.4c0,0-1.2,18.3-1.4,21.5c-0.2,3.2,2,4.6,4.2,4.7c2.2,0.1,4.8,0.4,6.9,0.5
			c2.2,0.1,4.6-0.4,5.6-2.4c0,0,1.4,3.4,4.9,3.6s8.2,1.1,11.9,1s7.5-8.8,3.8-15.6l-2.8,4c0,0,2.1,1.8,1.8,5.8c0,0-9.8-0.8-13.2-1.1
			c-3.4-0.3-4.3-3.8-4.5-5.4c0,0-1.1,4.4-3.2,4.4c-2.1,0-10.3-1-11.2-1c-0.9,0-1-1.3-0.8-3.2C426.6,215.7,428,197.5,428,197.5z"/>
		<polygon class="st1" points="438.7,204.7 435.9,207.7 438.2,211.1 441,208.1 		"/>
		<polygon class="st1" points="444.8,205.2 442.1,208 444.4,211.3 447.2,208.7 		"/>
		<path class="st1" d="M484.5,220.8l-3.8,4.1c0,0,0.3,4.6,0.2,6.9c-0.1,2.3-3.4,5.8-15.8,5.2c0,0,2.3,4.6,6.9,4.2
			c4.6-0.3,8.7-2.9,10.8-8c0,0,18.8,6.2,21.8,7s5,0.9,6.4-0.7c1.4-1.6,2.3-2.5,3-3.5c0.7-1,1.1-3.7-0.5-4.6
			c-1.6-0.9-15.3-6.3-16.1-6.7c-0.8-0.3-1.6-1.4,0.6-1.5c2.2-0.1,10.1-0.2,10.1-0.2l3.2-3.2c0,0-10.7,0.2-12.5,0.6
			c-1.8,0.3-4.7,2.4-4.8,4.2s0.2,2.6,2.2,3.3c1.9,0.8,12.8,4.9,14.1,5.5c1.2,0.6,2.2,2.6,0,2.1s-22.2-7.1-23.8-7.6s-2.2-1.6-2.1-3.2
			C484.5,223.2,484.5,220.8,484.5,220.8z"/>
		<polygon class="st1" points="505.8,209.9 503.1,211.9 504.8,215 507.2,212.9 		"/>
		<polygon class="st1" points="507.5,214.2 505,216.2 506.3,219.2 508.8,217.2 		"/>
		<polygon class="st1" points="502.5,213 500,215 501.6,218 504,215.9 		"/>
		<polygon class="st1" points="541.8,226.2 538.5,228.7 540.1,232.4 543.3,230.1 		"/>
		<polygon class="st1" points="547.7,228 544.4,230.4 545.9,234.2 549.3,231.7 		"/>
		<path class="st1" d="M543.3,236.3l-3.5,3.1c0,0,0.7,2.7,0.9,3.6c0.2,0.9-0.2,2.5-1.8,2.1s-10.8-3.4-12.1-3.9s-1.7-1.2-1.2-2.6
			s3.7-11.5,3.7-11.5l-4,2.4l-0.3,1.8c0,0-3.8,0.7-7.2,5c-3.3,4.3-1,7.2,3.7,6.5c0,0-0.3,2.8,1.8,3.7c2.1,0.8,8.4,2.8,10.8,3.4
			c2.3,0.7,4.5,0.8,5.4-0.3c0.9-1.1,2.4-3.1,3-4.1S544.3,241.1,543.3,236.3z M523.5,236.8c-0.1,0-1.5,0.1-2,0s-1.2-1.2-0.4-1.8
			s3.4-1.8,3.4-1.8S523.6,236.8,523.5,236.8z"/>
	</g>
	<g>
		<path class="st0" d="M263.9,585.7v-9.1h-16.9v-5.9h43.5v5.9h-18.1v9.1H294v6.1h-20.8c3.6,9,11.7,14.6,24.5,16.7
			c-2.3,1.8-4.4,4.2-6.4,7.2c-10.3-3.1-17.8-8.3-22.7-15.6c-3.6,7-10.7,12.5-21.3,16.3c-1.8-2.3-4-4.2-6.6-5.7
			c12.6-3.7,20.1-9.9,22.5-18.8h-20v-6.1H263.9z"/>
		<path class="st0" d="M341.2,607h11.3V568h5.4c2.5,0,3.6,0.2,3.4,0.6c0,0.1,0,0.4,0,0.6c-0.3,1.2-0.5,2.7-0.5,4.7v33h11.1v-27.8
			h5.2c2.6-0.1,3.9,0,3.9,0.4c0,0.1,0,0.4,0,0.6c-0.3,0.9-0.5,1.9-0.5,3.2V615h-8.6v-2.2h-38.8v-34.1h5.4c2.1-0.1,3.2,0,3.2,0.4
			c0,0.1,0,0.5,0,1.1c-0.3,0.9-0.5,1.8-0.5,2.8V607z"/>
		<path class="st0" d="M424.4,589.4H417v-13.8h23.2v-1.9H422V568h44.1v5.6h-18.5v1.9h23.7v14.1h-7.6v-9.3h-16v13.2h-7.4v-13.2h-15.8
			V589.4z M423.9,607.5v-5.2h32.5v-2.2h-34.3v-5.4h42.4v22.5h-8.1v-2.6H422v-5h34.5v-2.2H423.9z M438,582.2v4.5h-11.8v-4.5H438z
			 M438,588.5v4.5h-11.8v-4.5H438z M461.4,582.2v4.5h-12.1v-4.5H461.4z M449.3,588.5h12.3v4.5h-12.3V588.5z"/>
		<path class="st0" d="M532.8,580.7c1.8-3.3,3.3-7.8,4.4-13.5c3.9,0.6,7.2,1.2,9.8,1.9c-0.8,1.1-1.8,2.9-2.9,5.2
			c-0.3,0.7-0.6,1.2-0.7,1.5h15.4c0,1.6-0.1,3.9-0.2,7.1c0,3.1-0.1,5.5-0.2,7.1c0,1.3-0.1,3.3-0.2,6c0,6.6-0.2,11.6-0.7,15
			c-0.3,4.6-5.1,6.7-14.2,6.2c-0.2-2.6-1-5-2.4-7.3c6.5,1,9.5,0.1,8.8-2.6c0.7-9.9,1-17.4,1-22.5v-3.2h-9.8c-1,2.1-2.4,4.7-4.2,7.5
			c-0.3,0.4-0.6,0.8-0.7,1.1c-2.6-1-5.2-1.7-7.8-2.1c1.1-1.3,2.5-3.2,4.2-5.8c-2.4,0.7-5.5,2.1-9.1,4.1c4.6,3.4,6.9,7.9,7.1,13.3
			v7.3c0.3,7.2-4.2,10.4-13.7,9.9c-0.3-2.1-1.1-4.2-2.4-6.2c6.7,1.4,9.6-1.2,8.8-7.9c-4.2,4.2-9,7.3-14.2,9.4
			c-1.1-1.1-2.9-2.6-5.1-4.3c7.5-3,13.7-7.1,18.6-12.2l-0.7-1.3c-4.1,3-8.5,5.7-13.2,8.2c-1-1.3-2.8-2.6-5.4-4.1
			c5.9-2.1,11.1-4.9,15.7-8.4c-0.5-0.4-1.1-0.8-1.7-1.1c-3.8,1.7-6.9,2.9-9.6,3.6c-1-1.7-2.3-3.4-3.9-4.9c3.4-0.7,6.4-1.7,9.1-3
			c-0.8-2-2-3.7-3.4-5.2c-0.7,0.1-1.5,0.4-2.4,0.6c-0.7-2.3-1.6-4.1-2.9-5.4c9.5-1.9,16.3-4.4,20.6-7.5c4.2,3,6.4,4.7,6.6,4.9
			c0,0.1-0.7,0.4-2,0.9c-1.8,0.6-3.4,1.1-4.9,1.7c0.3,0.4,0.8,1.3,1.5,2.6c0.2,0.3,0.2,0.5,0.2,0.6l2-1.5
			C526.9,575.6,528.7,577,532.8,580.7z M517.8,582.2c0.2-0.1,0.4-0.3,0.7-0.4c0.7-0.3,1.1-0.5,1.2-0.6c-0.5-1.6-1.1-3.1-2-4.5
			l-2.7,1.1c0.7,0.7,1.5,2,2.4,3.9C517.8,581.8,517.8,582.1,517.8,582.2z M541.4,589.1c1.8,2.7,3.3,6,4.7,9.9v0.2
			c0.5,0.9,0.6,1.5,0.2,1.9c-0.5,0.1-1.3,0.4-2.4,0.6c-2.4,0.7-4.4,1.1-5.9,1.3c-0.8-4.4-2-8.3-3.7-11.6
			C538.3,590,540.7,589.2,541.4,589.1z"/>
		<g>
			<path class="st0" d="M238.9,624.9h19.1v5.3h-6.4v16.2h-6.3v-16.2h-6.4V624.9z"/>
			<path class="st0" d="M261,624.9h6.3v21.5H261V624.9z"/>
			<path class="st0" d="M284.3,642.8h-7.1l-1,3.5h-6.4l7.6-21.5h6.8l7.6,21.5h-6.6L284.3,642.8z M283,638.1l-2.2-7.7l-2.2,7.7H283z"
				/>
			<path class="st0" d="M293.4,624.9h5.9l7.6,11.9v-11.9h5.9v21.5h-5.9l-7.6-11.8v11.8h-5.9V624.9z"/>
			<path class="st0" d="M315.8,639.2l6-0.4c0.1,1,0.4,1.8,0.8,2.3c0.6,0.9,1.6,1.3,2.8,1.3c0.9,0,1.6-0.2,2.1-0.7
				c0.5-0.4,0.7-1,0.7-1.5c0-0.6-0.2-1.1-0.7-1.5s-1.5-0.9-3.2-1.2c-2.7-0.7-4.7-1.5-5.9-2.6c-1.2-1.1-1.8-2.5-1.8-4.1
				c0-1.1,0.3-2.1,0.9-3.1c0.6-1,1.5-1.8,2.7-2.3s2.9-0.8,5-0.8c2.6,0,4.6,0.5,5.9,1.5c1.4,1,2.2,2.6,2.4,4.9l-5.9,0.4
				c-0.2-1-0.5-1.7-1-2.1s-1.2-0.7-2.1-0.7c-0.7,0-1.3,0.2-1.6,0.5c-0.4,0.3-0.6,0.7-0.6,1.2c0,0.3,0.2,0.6,0.5,0.9
				c0.3,0.3,1,0.5,2.1,0.8c2.7,0.6,4.7,1.3,5.9,1.9c1.2,0.6,2,1.4,2.6,2.4c0.5,0.9,0.8,2,0.8,3.2c0,1.4-0.4,2.6-1.1,3.8
				s-1.7,2-3,2.6c-1.3,0.6-2.9,0.9-4.9,0.9c-3.5,0-5.8-0.7-7.2-2.1C316.8,643.2,316,641.4,315.8,639.2z"/>
			<path class="st0" d="M336.9,624.9h6.3v7.5h6.9v-7.5h6.3v21.5H350v-8.7h-6.9v8.7h-6.3V624.9z"/>
			<path class="st0" d="M373,642.8h-7.1l-1,3.5h-6.4l7.6-21.5h6.8l7.6,21.5H374L373,642.8z M371.7,638.1l-2.2-7.7l-2.2,7.7H371.7z"
				/>
			<path class="st0" d="M382.6,624.9h5.9l7.6,11.9v-11.9h5.9v21.5h-5.9l-7.6-11.8v11.8h-5.9V624.9z"/>
			<path class="st0" d="M415.1,624.9h6.3V641h9.8v5.3h-16.1V624.9z"/>
			<path class="st0" d="M434,624.9h16.8v4.6h-10.5v3.4h9.8v4.4h-9.8v4.2h10.8v4.9H434V624.9z"/>
			<path class="st0" d="M453.2,635.6c0-3.5,0.9-6.2,2.8-8.2c1.8-2,4.4-2.9,7.7-2.9c3.4,0,6,1,7.8,2.9c1.8,1.9,2.7,4.6,2.7,8.1
				c0,2.5-0.4,4.6-1.2,6.2c-0.8,1.6-2,2.9-3.5,3.8c-1.5,0.9-3.4,1.3-5.6,1.3c-2.3,0-4.2-0.4-5.7-1.2c-1.5-0.8-2.7-2-3.6-3.7
				S453.2,638.1,453.2,635.6z M459.5,635.6c0,2.2,0.4,3.7,1.1,4.7s1.8,1.4,3.1,1.4c1.3,0,2.4-0.5,3.1-1.4c0.7-0.9,1.1-2.6,1.1-5
				c0-2-0.4-3.5-1.2-4.4c-0.8-0.9-1.8-1.4-3.1-1.4c-1.3,0-2.3,0.5-3,1.4C459.9,631.9,459.5,633.5,459.5,635.6z"/>
			<path class="st0" d="M477.6,624.9H488c2.3,0,4,0.6,5.1,1.7s1.7,2.8,1.7,4.9c0,2.2-0.6,3.9-1.8,5.1c-1.2,1.2-3.1,1.8-5.6,1.8h-3.4
				v8h-6.3V624.9z M483.9,634h1.5c1.2,0,2.1-0.2,2.5-0.7c0.5-0.4,0.7-1,0.7-1.7c0-0.7-0.2-1.2-0.6-1.7c-0.4-0.5-1.2-0.7-2.4-0.7
				h-1.8V634z"/>
			<path class="st0" d="M510.1,642.8H503l-1,3.5h-6.4l7.6-21.5h6.8l7.6,21.5h-6.6L510.1,642.8z M508.8,638.1l-2.2-7.7l-2.2,7.7
				H508.8z"/>
			<path class="st0" d="M519.8,646.3v-21.5h10.4c1.9,0,3.4,0.2,4.4,0.5c1,0.4,1.8,1,2.5,2c0.6,1,0.9,2.1,0.9,3.5
				c0,1.2-0.2,2.2-0.7,3.1c-0.5,0.9-1.1,1.6-2,2.1c-0.5,0.3-1.3,0.6-2.2,0.8c0.7,0.3,1.3,0.5,1.6,0.8c0.2,0.2,0.6,0.6,1,1.1
				c0.4,0.6,0.7,1,0.9,1.3l3,6.2h-7.1l-3.4-6.6c-0.4-0.8-0.8-1.4-1.1-1.7c-0.5-0.3-1-0.5-1.5-0.5h-0.6v8.7H519.8z M526.1,633.6h2.6
				c0.3,0,0.8-0.1,1.7-0.3c0.4-0.1,0.8-0.3,1-0.7c0.3-0.4,0.4-0.8,0.4-1.2c0-0.7-0.2-1.2-0.6-1.6s-1.2-0.6-2.3-0.6h-2.8V633.6z"/>
			<path class="st0" d="M541.8,624.9h9.3c1.8,0,3.3,0.3,4.4,0.8c1.1,0.5,2.1,1.3,2.8,2.3s1.3,2.1,1.6,3.4c0.3,1.3,0.5,2.7,0.5,4.2
				c0,2.3-0.2,4.1-0.7,5.3s-1.2,2.3-2.1,3.2c-0.9,0.9-1.8,1.4-2.8,1.7c-1.4,0.4-2.6,0.6-3.7,0.6h-9.3V624.9z M548.1,629.7v11.7h1.5
				c1.3,0,2.2-0.2,2.8-0.5c0.6-0.3,1-0.8,1.3-1.6c0.3-0.8,0.5-2,0.5-3.7c0-2.3-0.4-3.8-1.1-4.7s-1.9-1.3-3.5-1.3H548.1z"/>
		</g>
	</g>
	<g>
		<g>
			<circle class="st0" cx="575" cy="304" r="45"/>
		</g>
		<path d="M575,259c-24.9,0-45,20.1-45,45c0,24.9,20.1,45,45,45c24.9,0,45-20.1,45-45C620,279.1,599.9,259,575,259z M574.5,339.3
			c-3.6-2.8-7.6-7.4-9.4-9.5l7-14.7l17.4-3.3l10.3,10.8c-1,4.8-5.2,10.9-7.1,13.5C586.2,339,579.4,339.5,574.5,339.3z M539.7,311.4
			c0.2-4,4.7-12.2,5.8-14l16.7,0.8l8.4,15.7l-7.1,14.9c-3.7,0.3-11.6-0.6-14.8-1C543.5,321.6,540.9,315.5,539.7,311.4z M557.3,269.8
			c2.4-0.2,8.9-0.5,13.6,0.2l3.2,12.3l-11.6,13.9l-16.7-0.8c-2-2.7-2.2-8.7-2.2-12L557.3,269.8z M611.9,315.4
			c-4.7,4.1-9,5.3-10.9,5.6l-9.9-10.5l1.9-18.2l12-5.8c1.6,1.7,5.9,6.4,8.2,9.7C613.7,300.2,614,307.4,611.9,315.4z M576.1,281.8
			l-3.2-12.1c1.5-0.8,4.8-2.5,7.4-3.6c4.9,0.4,14.3,2,21.2,8.4c1,2.4,2.5,6.6,2.8,10.2l-11.8,5.7L576.1,281.8z M602.1,272.3
			c-6.2-5.3-13.9-7.3-19.1-8l-2.4-2.4c8.6,1.1,16.4,4.8,22.6,10.3L602.1,272.3z M613.9,315.8c2.2-8.3,1.9-15.7,1.3-19.9
			c0.4-0.5,0.8-1,1.2-1.5c0.7,3.1,1.1,6.3,1.1,9.6c0,5.8-1.2,11.4-3.3,16.4C614,318.7,613.9,316.8,613.9,315.8z M556.6,265.7
			l-0.1,2.1l-13.7,13.6l-4.9,2C542.1,275.8,548.7,269.5,556.6,265.7z M532.6,306.7c1.7,2.2,4.1,4.3,5,5.1c1.3,4.4,4,10.9,9.6,17.6
			c0.4,3.6,1,6.4,1.4,8C539.5,330,533.4,319,532.6,306.7z M564,345c3.7-0.4,8.6-2.7,10.6-3.7c0.6,0,1.3,0,1.9,0
			c4.9,0,11.2-0.7,17.3-3.5l5.4,1.1c-6.9,4.8-15.2,7.5-24.1,7.5C571.2,346.5,567.5,346,564,345z"/>
	</g>
</g>
</svg>
