<?xml version="1.0" encoding="utf-8"?>
<!-- Generator: Adobe Illustrator 22.1.0, SVG Export Plug-In . SVG Version: 6.00 Build 0)  -->
<svg version="1.1" id="图层_1" xmlns="http://www.w3.org/2000/svg" xmlns:xlink="http://www.w3.org/1999/xlink" x="0px" y="0px"
	 viewBox="0 0 800 800" style="enable-background:new 0 0 800 800;" xml:space="preserve">
<style type="text/css">
	.st0{fill:#C5000A;}
</style>
<g>
	<path class="st0" d="M587.9,235c15.3,25.8,13.8,69-18.3,90.1c0,0,24-2.4,37-1.3c0,0-26.8,20-26.8,35s-1.3,46-13,63
		c0,0,16.8-6.8,29.3-47.8c0,0,13.5,54.3-17.5,84.8s-69.2,26-76.9,26c-7.7,0-18.3,3-19,9.3c-0.7,6.3,3,11,5,14c2,3,3.7,10,3.3,14.7
		c-0.3,4.7,1.7,17-16,26c-5.3,3-2.3,9,3.7,9c6,0,10-1.7,16.7-7c6.7-2,19-0.3,24,2.7c5,3,8.2,4.8,13.4,5.1c5.3,0.3,10.5,0.3,12.5-2.5
		c2-2.8,9.3-1.5,10.8,2.3c0,0,4.3,0.2,11.3,0.6c21.4-38.7,38.4-82,50.6-129.3c8-31,18.2-80.7,21.2-141c1-20,0.9-35.9,0.6-46.2
		c-22-10.1-44.2-19-66.7-26.6C578.4,221.5,583.6,227.8,587.9,235z"/>
	<path class="st0" d="M400,680.1c0,0-31.5,0-68.5,0c21.1,17.6,43.9,33,68.5,46.2c24.6-13.2,47.4-28.6,68.5-46.2
		C431.5,680.1,400,680.1,400,680.1z"/>
	<path class="st0" d="M182,429.8c12.2,47.3,29.2,90.6,50.6,129.3c7-0.4,11.3-0.6,11.3-0.6c1.5-3.8,8.8-5,10.8-2.3s7.3,2.8,12.5,2.5
		c5.3-0.3,8.4-2.1,13.4-5.1c5-3,17.3-4.7,24-2.7c6.7,5.3,10.7,7,16.7,7c6,0,9-6,3.7-9c-17.7-9-15.7-21.3-16-26
		c-0.3-4.7,1.3-11.7,3.3-14.7c2-3,5.7-7.7,5-14c-0.7-6.3-11.3-9.3-19-9.3s-45.9,4.5-76.9-26c-31-30.5-17.5-84.8-17.5-84.8
		c12.5,41,29.3,47.8,29.3,47.8c-11.8-17-13-48-13-63s-26.8-35-26.8-35c13-1.2,37,1.3,37,1.3c-32-21-33.5-64.3-18.3-90.1
		c4.3-7.2,9.5-13.6,14.8-19c-22.4,7.7-44.7,16.6-66.7,26.6c-0.3,10.2-0.4,26.2,0.6,46.2C162.5,322.1,167.5,373.6,182,429.8z"/>
</g>
<path class="st0" d="M400,65l15.7,44.4c0,0,8.7-10,17.3-11c0,0-1.3,30.4,1.3,34.4c0,0,7.3-13.7,16-16.3v12.7c0,0,9,36,48,51.7
	c0,0-6.3-13.3,0.3-20.3c4.4-4.6,10-6.6,15.9-6.6c3.1,0,6.3,0.6,9.4,1.6l5.3-9.7c0,0-11.3-4.7-10.3-16c1-11.3,12-15,19.7-15
	c7.7,0,20.7,6.3,22.3,19c1.6,12.2,0.7,32-13.7,57.4c36.5,10.6,72.6,24.4,108,41.2c0.4,7.8,1.2,28.5-0.2,57.3
	c-3,61.6-13.4,112.4-21.7,144.2c-11.9,45.9-28.2,88.2-48.6,126.4c22.9,1.6,54.3,4.1,74.9,7.4c0,0-14,9.3-14,25c0,15.7,0,92.7,0,92.7
	s-56-5.3-110.7-5.3c-13.1,0-27.6,0-42.2,0c-27.7,25.3-58.8,46.9-92.9,64.3c-34.1-17.5-65.1-39-92.9-64.3c-14.6,0-29.1,0-42.2,0
	c-54.7,0-110.7,5.3-110.7,5.3s0-77,0-92.7c0-15.7-14-25-14-25c20.6-3.3,52-5.8,74.9-7.4c-20.4-38.2-36.7-80.5-48.6-126.4
	c-14.9-57.6-20-110.2-21.7-144.2c-1.4-28.8-0.6-49.5-0.2-57.3c35.4-16.8,71.5-30.6,108-41.2c0,0,0,0,0,0
	c-14.5-25.4-15.3-45.2-13.7-57.4c1.7-12.7,14.7-19,22.3-19c7.7,0,18.7,3.7,19.7,15c1,11.3-10.3,16-10.3,16l5.3,9.7
	c3.1-1,6.3-1.6,9.4-1.6c5.9,0,11.6,2,15.9,6.6c6.7,7,0.3,20.3,0.3,20.3c39-15.7,48-51.7,48-51.7v-12.7c8.7,2.7,16,16.3,16,16.3
	c2.7-4,1.3-34.4,1.3-34.4c8.7,1,17.3,11,17.3,11L400,65 M400,50l-4.7,13.3l-13.1,37.1c-3.8-3.1-9.1-6.4-14.6-7l-5.8-0.7l0.3,5.9
	c0.3,6.9,0.4,14.7,0.3,20.8c-3.1-3.3-6.9-6.5-11.1-7.8l-6.5-2v6.8v12c-0.6,2-3,9.5-8.8,18.3c-6.9,10.6-15.9,18.9-26.7,25
	c0.5-4.9-0.3-10.4-4.3-14.6c-5.1-5.3-11.8-8.2-19.6-8.2c-2.3,0-4.6,0.2-6.9,0.7l-1.1-2c4.2-3.1,9.4-8.9,8.6-18.2
	c-1.2-13.4-13.6-19.6-24.7-19.6c-10.2,0-25.3,8.1-27.3,23.4c-1.6,12.2-0.8,31.3,11.4,55c-34.7,10.4-69.3,23.8-102.8,39.7l-2.7,1.3
	l-0.2,3c-0.4,7.7-1.2,28.7,0.2,57.8c1.7,34.3,6.8,87.3,21.8,145.2c11.2,43.4,26.5,83.9,45.4,120.7c-21.9,1.6-49.1,4-67.7,6.9
	l-12.6,2l10.6,7.1c0.1,0.1,11.8,8.1,11.8,20.9v92.7v5.5l5.5-0.5c0.6-0.1,56.4-5.3,110.3-5.3h40.3c27.7,25,58.8,46.5,92.5,63.8
	l2.3,1.2l2.3-1.2c33.7-17.3,64.9-38.7,92.5-63.8h40.3c53.8,0,109.7,5.3,110.3,5.3l5.5,0.5v-5.5v-92.7c0-12.9,11.7-20.8,11.8-20.9
	l10.6-7.1l-12.6-2c-18.6-3-45.8-5.3-67.7-6.9c18.9-36.8,34.2-77.3,45.4-120.7c8.3-32,18.8-83.2,21.8-145.2
	c1.4-29.1,0.6-50.1,0.2-57.8l-0.2-3l-2.7-1.3c-33.6-16-68.1-29.3-102.8-39.7c7.3-14.3,14.1-34.1,11.4-55
	c-2-15.2-17.1-23.4-27.3-23.4c-11,0-23.5,6.1-24.7,19.6c-0.8,9.3,4.4,15.1,8.6,18.2l-1.1,2c-2.3-0.5-4.6-0.7-6.9-0.7
	c-7.7,0-14.5,2.8-19.6,8.2c-4,4.2-4.7,9.8-4.3,14.6c-26.2-14.7-34.3-39.3-35.5-43.2v-12v-6.8l-6.5,2c-4.2,1.3-8.1,4.4-11.1,7.8
	c-0.1-6.1,0-13.9,0.3-20.8l0.3-5.9l-5.8,0.7c-5.6,0.6-10.8,3.9-14.6,7l-13.1-37.1L400,50L400,50z"/>
<g>
	<path class="st0" d="M204.4,383.9c0,0,8.5,50.5,54.5,59c0,0,17.5,18,53.5,25.5c15,2.5,24.5,4,24.5,23c0,0-12-13-18-13
		c-6,0-41,0.5-53-2.5C253.9,472.9,202.9,462.9,204.4,383.9z"/>
	<path class="st0" d="M248.4,211.3c0,0-35,9-39,58c-1,20.5,7,35,24,48.5c17,13.5,18,17.3,15,26c0,0-13.2-15.3-36.2-12.7
		c0,0,16.7,13,16.3,56.7c-0.3,18.3,14.7,47,44.7,61c30,14,34.7,14.3,45.7,17s27,14,28.4,19.3c0,0,7-25.8-33.4-47.6
		c0,0,13.3,1.3,32,24.3c0,0-3.8-24-20.8-34.3s-31.8-8.8-36.3-9.3c-4.5-0.5-21.3-5-29.3-31.3c0,0,8.3,8.5,22.5,6.3
		c0,0-14.1-6.3-6.6-26.9s10.8-40.5,0.7-50.7c-10.2-10.2-26.3-19.3-27.7-27.7c0,0,18.8,18,32.4,14.3c0,0-22-29.7,10-58.7
		c0,0-0.3-25.3-28.5-24.8c-4-1.3-6.5-5.5-7.8-7.3c0,0-5.5,2.3-11.8,17C242.9,228.8,240.4,220.8,248.4,211.3z"/>
	<path class="st0" d="M298.3,299.2c0,0,5.5,10.5,21,17.3c9.4,4.3,10.3,12.9,7.8,17.9c-2.5,5-20.3,10-22.1-5.7
		c-0.7-4.8,7.3-5.2,7.8-0.5c0.2,1.6,5,1.7,4.3-1.8c-0.6-2.4-3.5,0.6-10-4.5C300.6,316.7,296.1,310.1,298.3,299.2z"/>
	<path class="st0" d="M595.6,383.9c0,0-8.5,50.5-54.5,59c0,0-17.5,18-53.5,25.5c-15,2.5-24.5,4-24.5,23c0,0,12-13,18-13
		c6,0,41,0.5,53-2.5S597.1,462.9,595.6,383.9z"/>
	<path class="st0" d="M551.6,211.3c0,0,35,9,39,58c1,20.5-7,35-24,48.5c-17,13.5-18,17.3-15,26c0,0,13.2-15.3,36.2-12.7
		c0,0-16.7,13-16.3,56.7c0.3,18.3-14.7,47-44.7,61c-30,14-34.7,14.3-45.7,17s-27,14-28.4,19.3c0,0-7-25.8,33.4-47.6
		c0,0-13.3,1.3-32,24.3c0,0,3.8-24,20.8-34.3s31.8-8.8,36.3-9.3c4.5-0.5,21.3-5,29.3-31.3c0,0-8.3,8.5-22.5,6.3
		c0,0,14.1-6.3,6.6-26.9s-10.8-40.5-0.7-50.7c10.2-10.2,26.3-19.3,27.7-27.7c0,0-18.8,18-32.4,14.3c0,0,22-29.7-10-58.7
		c0,0,0.3-25.3,28.5-24.8c4-1.3,6.5-5.5,7.8-7.3c0,0,5.5,2.3,11.8,17C557.1,228.8,559.6,220.8,551.6,211.3z"/>
	<path class="st0" d="M501.7,299.2c0,0-5.5,10.5-21,17.3c-9.4,4.3-10.3,12.9-7.8,17.9c2.5,5,20.3,10,22.1-5.7
		c0.7-4.8-7.3-5.2-7.8-0.5c-0.2,1.6-5,1.7-4.3-1.8c0.6-2.4,3.5,0.6,10-4.5C499.4,316.7,503.9,310.1,501.7,299.2z"/>
	<path class="st0" d="M475.5,501c0,0,4.3,19.3-9,18.8c-13.3-0.5-14.3-3.5-14.3-3.5s18.3-16.8-6.7-32.5c0,0,0.5,22.3-16.3,19.5
		c-11.3-1.8-18.8-3.3-29.3-3.3c-10.5,0-18,1.5-29.3,3.3c-16.8,2.8-16.3-19.5-16.3-19.5c-25,15.8-6.7,32.5-6.7,32.5s-1,3-14.3,3.5
		c-13.3,0.5-9-18.8-9-18.8c-11.3,13.3-13,29.3-1,39.3c12,10,45.3,0.5,45.3,0.5c-2.5,8.3-17,10.5-17,10.5
		c27.8,23,48.3-11.3,48.3-11.3s20.5,34.3,48.3,11.3c0,0-14.5-2.3-17-10.5c0,0,33.3,9.5,45.3-0.5C488.6,530.2,486.8,514.2,475.5,501z
		"/>
	<path class="st0" d="M545.1,123.1c-6-3.3-20-2-20,8c0,10,13.7,8.3,13.7,8.3c-4.3,15.3-12.7,26-12.7,26s-6.3-5-12.3-5
		c-6,0-12,2.7-12,10.7s12.7,9,12.7,9c-1.3,11-4.3,12.7-4.3,12.7c-64.8-22-65.4-66.9-65.4-66.9c-9.4,8.5-11,20.6-11,20.6
		c-6.7-5.7-8-37.7-8-37.7l-12,13.3L400,86l-13.7,36l-12-13.3c0,0-1.3,32-8,37.7c0,0-1.7-12-11-20.6c0,0-0.6,44.9-65.4,66.9
		c0,0-3-1.7-4.3-12.7c0,0,12.7-1,12.7-9s-6-10.7-12-10.7c-6,0-12.3,5-12.3,5s-8.3-10.7-12.7-26c0,0,13.7,1.7,13.7-8.3
		c0-10-14-11.3-20-8s-11.3,9.3-10,25.7c1.3,16.3,8,33.4,18,48c0,0-7.7,3.3-7,10.7c0.7,7.3,12.7,13,20.3,5.7c0,0,28.7,9.3,24.7,37.4
		c-1.3,10,6.4,11.8,11.3,11.2c0,0,6.5-11.1,16-13.5c0,0-2,11.9,4,13.9c0,0,3.8-5,10.3-5.5c0,0-11.5,7.8-11.8,13.5
		c0,0-5.5-6.5-5-16.5c0,0-13.3,7.3-13.5,19.5c-0.3,12.3,6.5,17.3,6.5,17.3s-16.3-2.3-13.8-27c0,0-8.3,5.3-8.3,23.8
		s21.9,25.4,26.3,29.4s8.7,7.3,7.7,15.7c-1,8.3-5.7,13-11.7,19.3c-6,6.3-12.3,15.7-4,28.7c0,0-10-6-8.7-19.3
		c1.3-13.3-11.7-19.7-18-17c0,0,7,7.3,6.3,14c-0.7,6.7-6.3,9.7-6.3,20.3s7,18.3,22,24.7c0,0-3.3,3.3-14.8-3
		c-11.5-6.3-19-2.5-22.7,1.3c0,0,7.7-0.8,18.2,8.2c10.5,9,40,24.5,72,10.5c0,0-6.8,8.8-18.5,13.5c0,0,41,2,49.5-26.8
		c0.9-3.3,2.1-13.5-6-17.1c-8.1-3.6-16.3-0.8-19.6,1.1c-1.9,1.1-22.6,4.3-29.2-11.9c-2.8-7.2,1.2-16.5,11.5-19.5
		c0,0-9.3,8.2-5.8,19.2s23.8,7.2,25.7,2.3c0.8-2.2,1-3.9-5.9-3.8c-3.1-0.1-2.6-3.9,1.4-4s4.8,0.8,7.8,6.6c2.9,5.8,11.4,9.8,26.3,9.8
		c14.8,0,23.3-4,26.3-9.8c2.9-5.8,3.8-6.7,7.8-6.6s4.5,3.9,1.4,4c-6.9-0.2-6.7,1.6-5.9,3.8c1.8,4.8,22.2,8.7,25.7-2.3
		s-5.8-19.2-5.8-19.2c10.3,3,14.3,12.3,11.5,19.5c-6.7,16.2-27.4,13-29.2,11.9c-3.4-1.9-11.5-4.8-19.6-1.1c-8.1,3.6-6.9,13.9-6,17.1
		c8.5,28.8,49.5,26.8,49.5,26.8c-11.8-4.8-18.5-13.5-18.5-13.5c32,14,61.5-1.5,72-10.5c10.5-9,18.2-8.2,18.2-8.2
		c-3.7-3.8-11.2-7.7-22.7-1.3c-11.5,6.3-14.8,3-14.8,3c15-6.3,22-14,22-24.7s-5.7-13.7-6.3-20.3c-0.7-6.7,6.3-14,6.3-14
		c-6.3-2.7-19.3,3.7-18,17c1.3,13.3-8.7,19.3-8.7,19.3c8.3-13,2-22.3-4-28.7c-6-6.3-10.7-11-11.7-19.3c-1-8.3,3.3-11.7,7.7-15.7
		s26.3-10.9,26.3-29.4s-8.3-23.8-8.3-23.8c2.5,24.8-13.8,27-13.8,27s6.8-5,6.5-17.3c-0.3-12.3-13.5-19.5-13.5-19.5
		c0.5,10-5,16.5-5,16.5c-0.3-5.8-11.8-13.5-11.8-13.5c6.5,0.5,10.3,5.5,10.3,5.5c6-2,4-13.9,4-13.9c9.5,2.4,16,13.5,16,13.5
		c4.9,0.6,12.6-1.2,11.3-11.2c-4-28,24.7-37.4,24.7-37.4c7.7,7.3,19.7,1.7,20.3-5.7c0.7-7.3-7-10.7-7-10.7c10-14.7,16.7-31.7,18-48
		C556.4,132.4,551.1,126.4,545.1,123.1z M371.3,336.4l2.2-4.2c0,0-16.5,1.9-18.5-0.8c-2-2.8-2.5-7.5,0-12.3c2.4-4.6,3.2-15.5,1-16.7
		c2.1,0.7,15.8,5.5,16.2,12.7c0.5,7.8,0,14,9.3,14.8C381.5,329.8,372.5,335.2,371.3,336.4z M445,331.3c-2,2.8-18.5,0.8-18.5,0.8
		l2.2,4.2c-1.2-1.2-10.2-6.5-10.2-6.5c9.3-0.8,8.8-7,9.3-14.8c0.5-7.1,14.1-12,16.2-12.7c-2.1,1.1-1.4,12.1,1,16.7
		C447.5,323.8,447,328.6,445,331.3z M446,247.8c-33.3,3-38.3,24.3-38.3,24.3h7.5c-8.5,2.5-15.3,12.6-15.3,12.6s-6.8-10.1-15.3-12.6
		h7.5c0,0-5-21.3-38.3-24.3c0,0-10-13.3-15-17c0,0,16-11,16.3-27.4c0,0,5.3,4.7,5.7,14.7c0,0,32.7-22.3,39-52c6.3,29.7,39,52,39,52
		c0.3-10,5.7-14.7,5.7-14.7c0.3,16.3,16.3,27.4,16.3,27.4C456,234.5,446,247.8,446,247.8z"/>
</g>
<path class="st0" d="M432.2,313c0,0,5.8,1.7,6.7,6.3c0.8,4.7-2.3,5.5-5.1,6c0,0,1.9-3,1.8-5c-0.1-2-0.8-4.8-4.3-5
	c-3.5-0.3-2.3,8.8-3.3,10.4c-1,1.6,3.3,2.1,6.8,2.1s9.8-3.3,7.8-9.8C440.5,311.6,434.9,306.7,432.2,313z"/>
<path class="st0" d="M367.8,313c0,0-5.8,1.7-6.7,6.3c-0.8,4.7,2.3,5.5,5.1,6c0,0-1.9-3-1.8-5c0.1-2,0.8-4.8,4.3-5
	c3.5-0.3,2.3,8.8,3.3,10.4c1,1.6-3.3,2.1-6.8,2.1s-9.8-3.3-7.8-9.8C359.5,311.6,365.1,306.7,367.8,313z"/>
<path class="st0" d="M431,243.3c-10.3-10.5-14.3-37.3-14.3-37.3c-4,2.8-6.5,9.5-6.5,9.5L400,194.3l-10.3,21.3c0,0-2.5-6.8-6.5-9.5
	c0,0-3.9,26.8-14.3,37.3c-2.3,3.5,0.5,5,4,5.5c3.2,0.5,21,6.5,26.1,12.7c0.5,0.6,1.4,0.6,1.9,0c5-6.2,22.8-12.3,26.1-12.7
	C430.5,248.3,433.3,246.8,431,243.3z"/>
<g>
	<path class="st0" d="M408.3,419.4c-4.5,0-8.3,9-8.3,9s-3.8-9-8.3-9s-14.3,3.8-14.3,31.8c0,1.8,0.5,4.1,4.6,1.8
		c4.1-2.4,9.8-4.3,17.9-4.3c8.1,0,13.8,1.9,17.9,4.3c4.1,2.4,4.6,0,4.6-1.8C422.5,423.2,412.8,419.4,408.3,419.4z"/>
	<path class="st0" d="M423.8,460.9C413.1,449.7,400,451,400,451s-13.1-1.4-23.8,9.9c-2.6,3-2.3,10.5-1.8,12c0.5,1.5,8.3,1.5,9.8,0
		c1.5-1.5,5.3-4.3,15.8-4.3c10.5,0,14.3,2.8,15.8,4.3c1.5,1.5,9.3,1.5,9.8,0C426,471.4,426.4,463.9,423.8,460.9z"/>
</g>
<g>
	<path class="st0" d="M369.6,464.5c0.6-0.4,1.3,0.1,1.2,0.8c-0.8,4.6-2.4,17.3,2.7,22.4c2.8,2.8,2.8,9-4,9c-6.8,0-11.5-2.5-11.5-12
		C357.9,475.7,361.1,469.7,369.6,464.5z"/>
	<path class="st0" d="M383.2,481.4c0,0,0.3,7,1.8,9s2.3,7.3-2.8,7.3C377.1,497.7,371.6,490.4,383.2,481.4z"/>
	<path class="st0" d="M391.7,482.9c0,0,1,5.3,4,7.5s1.8,7.3-2,7.3S382.9,494.7,391.7,482.9z"/>
	<path class="st0" d="M430.5,464.5c-0.6-0.4-1.3,0.1-1.2,0.8c0.8,4.6,2.4,17.3-2.7,22.4c-2.8,2.7-2.8,9,4,9c6.8,0,11.5-2.5,11.5-12
		C442.1,475.7,438.9,469.7,430.5,464.5z"/>
	<path class="st0" d="M416.8,481.4c0,0-0.3,7-1.8,9s-2.3,7.3,2.7,7.3C422.8,497.7,428.3,490.5,416.8,481.4z"/>
	<path class="st0" d="M408.3,482.9c0,0-1,5.3-4,7.5s-1.8,7.3,2,7.3C410.1,497.7,417.1,494.7,408.3,482.9z"/>
</g>
<g>
	<path class="st0" d="M296.7,667.4v-69.1h25.5v-9.9h-29.6v-14.8h98.7v14.8h-29.6v9.9h25.5v69.5h-15.6v-6.2h-58.8v5.8H296.7z
		 M359.6,639.8c-9.3,0.3-14-4.7-14-14.8v-11.9h-7.8c0.3,13.4-4.7,24-14.8,31.7c-3-3.6-6.4-7-10.3-10.3v13.2h58.8v-7.8H359.6z
		 M312.8,613.1v19.3c6.3-4.1,9.3-10.5,9-19.3H312.8z M337.8,588.4v9.9h7.8v-9.9H337.8z M371.6,613.1h-9.9v7.8c0,2.7,1.4,4.1,4.1,4.1
		h5.8V613.1z"/>
	<path class="st0" d="M424.1,569.5l16.4,4.1c-0.6,1.1-1,2.7-1.2,4.9c-0.3,0.3-0.4,0.6-0.4,0.8h23.8c-0.8-3-1.6-5.9-2.5-8.6l18.9-0.8
		c0.5,1.1,1.2,3.4,2.1,7c0.3,1.1,0.4,1.9,0.4,2.5h25.9v14.4h-69.9v-10.7c-0.6,1.4-1.2,3.3-2.1,5.8c-1.1,2.7-1.9,4.8-2.5,6.2v72.8
		h-15.6v-43.6c-2.2,3.6-4.5,7.3-7,11.1c-0.3-2.2-0.7-5.6-1.2-10.3c-0.8-5.5-1.4-9.6-1.6-12.3C414.8,600.1,420.2,585.7,424.1,569.5z
		 M440.1,667.8v-38.6h63.3v38.6h-15.6v-4.9h-32.1v4.9H440.1z M440.9,597.5h61.7v12.3h-61.7V597.5z M440.9,613.5h61.7v12.3h-61.7
		V613.5z M455.7,642.7v7.8h32.1v-7.8H455.7z"/>
	<polygon class="st0" points="254.2,588.8 254.2,644.7 235.7,644.7 235.7,570.3 217.2,570.3 206.9,570.3 217.2,579.2 217.2,644.7 
		198.7,644.7 198.7,588.8 181.4,588.8 170.4,588.8 181.4,597.5 181.4,660 254.2,660 254.2,667.4 271.4,667.4 271.4,588.8 	"/>
	<path class="st0" d="M623.1,589.2l6.6-14.8h-6.6h-39.5v6.6l-7.8-4.1c-2.7,3.6-5.3,7.3-7.8,11.1v-7.8h-11.9v-10.3h-14.8v10.3h-12.7
		v12.3h12.7v6.6h-15.6v12.7h18.9c-6,4.9-12.9,9.2-20.6,12.7c1.1,4.7,2.1,9.7,2.9,15.2c0.5-0.3,1.4-0.8,2.5-1.6
		c1.1-0.5,1.9-1,2.5-1.2v30.4h14.8v-4.1h17.3v4.1h14.4v-50.6h-19.3c1.9-1.6,3.7-3.3,5.3-4.9h16.9v-12.7h-5.8c2.7-3.3,4.9-6,6.6-8.2
		c0.8-0.8,1.4-1.5,1.6-2.1v79.3h10.5h4.3h10.2l-10.2-6v-17.9l2.9,11.9c2.5,0,5.2,0,8.2,0c10.7-0.3,15.9-6.6,15.6-18.9
		c0.3-8.5-3-16-9.9-22.6L623.1,589.2z M563.9,651.3h-17.3V646h17.3V651.3z M563.9,629.5v4.9h-17.3v-4.9H563.9z M562.6,594.7
		c-1.8,2-3.2,3.5-4.1,4.4h-2.5v-6.6h8.2C563.3,593.8,562.8,594.5,562.6,594.7z M604.6,641.5h-6.2v-52.2h8.6l-6.2,26.3
		c5.8,7.1,8.6,13.7,8.6,19.7C609.8,639.7,608.1,641.7,604.6,641.5z"/>
</g>
</svg>
