<?xml version="1.0" encoding="utf-8"?>
<!-- Generator: Adobe Illustrator 22.1.0, SVG Export Plug-In . SVG Version: 6.00 Build 0)  -->
<svg version="1.1" id="图层_1" xmlns="http://www.w3.org/2000/svg" xmlns:xlink="http://www.w3.org/1999/xlink" x="0px" y="0px"
	 viewBox="0 0 800 800" style="enable-background:new 0 0 800 800;" xml:space="preserve">
<style type="text/css">
	.st0{fill:#FFFFFF;}
	.st1{fill:#EBA407;}
	.st2{fill:#C20D22;}
	.st3{fill:#F29D01;}
	.st4{fill:#F39701;}
	.st5{fill:#C9BB9B;}
	.st6{fill:#C40E23;}
	.st7{fill:#251816;}
	.st8{fill:#231615;}
	.st9{fill:#F1591F;}
	.st10{fill:#1C1C0D;}
	.st11{fill:#EA5513;}
	.st12{fill:#046FBA;}
	.st13{fill:#1B2465;}
</style>
<g>
	<g>
		<circle class="st0" cx="400" cy="434" r="316"/>
		<path class="st1" d="M400,128.6c41.2,0,81.2,8.1,118.9,24c36.4,15.4,69,37.4,97.1,65.5c28.1,28.1,50.1,60.7,65.5,97.1
			c15.9,37.6,24,77.7,24,118.9s-8.1,81.2-24,118.9c-15.4,36.4-37.4,69-65.5,97.1s-60.7,50.1-97.1,65.5c-37.6,15.9-77.7,24-118.9,24
			s-81.2-8.1-118.9-24c-36.4-15.4-69-37.4-97.1-65.5c-28.1-28.1-50.1-60.7-65.5-97.1c-15.9-37.6-24-77.7-24-118.9s8.1-81.2,24-118.9
			c15.4-36.4,37.4-69,65.5-97.1c28.1-28.1,60.7-50.1,97.1-65.5C318.8,136.7,358.8,128.6,400,128.6 M400,118
			C225.5,118,84,259.5,84,434s141.5,316,316,316s316-141.5,316-316S574.5,118,400,118L400,118z"/>
		<circle class="st2" cx="400" cy="434" r="297"/>
	</g>
	<g>
		<g>
			<path class="st3" d="M532.7,318.2h-5.3H400H272.6h-5.3v5.3v71.6h-76.9h-9.9l5.6,8.2l19.1,28.1L186,459.5l-5.6,8.2h9.9H238
				c-4,6.7-5.7,14.7-4.4,22.8c0,0.1,0,0.2,0,0.3v47.4c0,18.6,15.1,33.7,33.7,33.7H300c9.4,11.9,20.6,22.8,33.3,32.3
				c38.9,29.2,63.3,47.6,63.5,47.7l3.2,2.4l3.2-2.4c0.2-0.2,24.7-18.6,63.5-47.7c12.7-9.5,23.8-20.4,33.3-32.3h32.8
				c18.6,0,33.7-15.1,33.7-33.7v-47.4c0-0.1,0-0.2,0-0.3c1.2-8.1-0.4-16.1-4.4-22.8h47.6h9.9l-5.6-8.2l-19.1-28.1l19.1-28.1l5.6-8.2
				h-9.9h-76.9v-71.6V318.2L532.7,318.2z"/>
			<path class="st3" d="M489.5,50c-3.8,0-7.3,1.5-9.7,3c-4.2,2.6-17.4,11.6-17.4,11.6c-0.4,0-0.9,0-1.3,0c-11.3,0-17.9,6.6-17.9,6.6
				s-5.3-4.2-16.6-4.2c-15.8,0-19.5,5.5-19.5,5.5c-0.9-0.7-7.1-0.7-7.1-0.7c-1.4,0-5.7,0-6.6,0.7c0,0-3.7-5.5-19.5-5.5
				c-11.3,0-16.6,4.2-16.6,4.2s-6.6-6.6-17.9-6.6c-0.4,0-0.8,0-1.3,0c0,0-13.2-9-17.4-11.6c-2.3-1.5-5.9-3-9.7-3c-3,0-6.2,1-9,3.8
				c-6.3,6.3-8.7,20.3-9,27.9c-0.3,7.6,0.3,25.3,9.5,40.8c0,0-5.8,6.9-14,6.9c-0.2,0-0.3,0-0.5,0c-8.4-0.3-17.6-4.5-19.5-5.5
				c-0.5-0.3-1.3-0.5-2.2-0.5c-2.2,0-5,1.1-5.2,3.9c-0.2,2.6-0.7,4.2,1.4,8.4c0,0,7,13.2,18.6,24.5c0,0-12.6,7.1-20.5,9.5
				c-7.9,2.4-7.6,9.2-3.7,11.8c3.9,2.6,9,4.2,17.9,4.5c0,0-12.9,12.9-7.6,35.3s16.6,32.1,16.6,32.1s-13.7,18.7-14.2,20.5l-9.7,7.6
				c0,0-12-9.7-22.6-10.8c0,0-7-8.8-18.6-12.6c-4.2-1.8-2.8-4.6-0.7-8.1c2.1-3.5,4.2-12.6-1.4-17.9c-4.7-4.4-11.2-8.2-18.2-8.2
				c-1.4,0-2.9,0.2-4.3,0.5l-14.7-23.9c-3.5-2.6-9-5.8-14.8-5.8c-0.8,0-1.6,0.1-2.4,0.2c-10.5,1.8-15.1,7.7-15.8,11.9
				c0,0-7.3-5.8-14.4-5.8c-0.7,0-1.4,0.1-2.1,0.2c-7.7,1.4-9.8,2.5-19,16.9c-4.2,7-2.1,16.1-1.4,17.6c0,0-10.2,3.9-13,21.8
				s10.2,22.8,10.2,22.8s-8.1,13.2,3.5,24.8c7.5,7.5,18.4,13,27.1,13c4.8,0,8.9-1.7,11.3-5.6c0,0,6.1,3,10.4,3.3
				c0,0,15.4,17.9,19.3,26.7c3.9,8.8,8.8,17.6,10.5,22.8c1.8,5.3,13.3,27.4,17.2,31.2c3.9,3.9,49.5,42.1,49.5,42.1H400h0.5h144.3
				c0,0,45.6-38.3,49.5-42.1c3.9-3.9,15.4-26,17.2-31.2c1.8-5.3,6.7-14,10.5-22.8c3.9-8.8,19.3-26.7,19.3-26.7
				c4.2-0.4,10.4-3.3,10.4-3.3c2.4,3.9,6.5,5.6,11.3,5.6c8.7,0,19.7-5.5,27.1-13c11.6-11.6,3.5-24.8,3.5-24.8s13-4.9,10.2-22.8
				s-13-21.8-13-21.8c0.7-1.4,2.8-10.5-1.4-17.6c-9.1-14.4-11.2-15.4-19-16.9c-0.7-0.1-1.4-0.2-2.1-0.2c-7.1,0-14.4,5.8-14.4,5.8
				c-0.7-4.2-5.3-10.2-15.8-11.9c-0.8-0.1-1.6-0.2-2.4-0.2c-6.3,0-12.4,3.8-15.8,6.5l-14.2,23.2c-1.4-0.4-2.9-0.5-4.3-0.5
				c-6.9,0-13.5,3.9-18.2,8.2c-5.6,5.3-3.5,14.4-1.4,17.9c2.1,3.5,3.5,6.3-0.7,8.1c-11.6,3.9-18.6,12.6-18.6,12.6
				c-10.5,1.1-22.6,10.8-22.6,10.8l-9.7-7.6c-0.5-1.8-14.2-20.5-14.2-20.5s11.3-9.7,16.6-32.1c5.3-22.4-7.6-35.3-7.6-35.3
				c9-0.3,14-1.8,17.9-4.5c3.9-2.6,4.2-9.5-3.7-11.8s-20.5-9.5-20.5-9.5c11.6-11.3,19.1-24.5,19.1-24.5c2.1-4.2,1.6-5.9,1.4-8.4
				c-0.2-2.8-2.9-3.9-5.2-3.9c-0.9,0-1.7,0.2-2.2,0.5c-1.8,1.1-11.1,5.3-19.5,5.5c-0.2,0-0.3,0-0.5,0c-8.2,0-14-6.9-14-6.9
				c9.2-15.5,9.7-33.2,9.5-40.8s-2.6-21.6-9-27.9C495.7,51,492.5,50,489.5,50L489.5,50z"/>
			<path class="st0" d="M489.5,56.3c1.8,0,1.6,3,3,4.3c4.2,4.2,7.2,13.4,7.5,21.7c0.2,6.5,1,22.7-7.4,36.9l-4.6,4.8l4.1,4.5
				c0.8,0.9,9,9.1,19.7,9.1c0.2,0,2.4,0.4,2.6,0.4c7.9-0.2,10.5-3.8,14.6-5.7l2-0.4c-0.1,0.1-6,13.2-16.7,23.7l-7.4,5.8l7.8,5.7
				c0.5,0.3,11.5,6.6,19.9,9.2c0.8,0.3,2.2,1,2.4,1.2c-2.3,1.5-3.9,1.9-12.2,2.1l-18.6,0.6l14.3,10.2c0.7,0.7,10.2,11.2,6,29.4
				c-4.7,19.8-14.5,28.7-14.6,28.8l-4.4,3.8l3.5,4.7c5.6,7.6,12.1,16.8,13.4,19l0.4,1.5l1.2,2.3l10.2,6.6l4,3.1l4,0.2
				c2.9-2.4,12.1-12,19.1-12.8l2.6-0.3l2.2-0.1c2.3,1.5,5.2-6.7,14.7-9.9l1.8-1.7l2.1-1.2c4-1.7,3.6-4.3,4.2-6.2
				c1.5-4.5-2.1-8.3-3.6-10.9c-1.1-1.9-1.2-6.4,1.5-8.9c4.4-4.2,7.7-6.1,12-6.1c0.9,0,2.6-0.1,3.5,0.1l4.4-0.2l2.4-4l9.1-9.4
				l4.5-12.8c3.9-2.9,7.9-4.5,11-4.5c0.5,0,0.9,0,1.4,0.1c8,1.3,9,6,9.2,7.3l3.2,10l8.4-6.6c1.5-1.1,6.5-4.4,10.4-4.4
				c0.4,0,0.7,0,1,0.1c5.7,1,5.4,1.8,13.5,14.5c2.5,4.3,2.6,9.7,2.2,11l-3.6,6.4l7,2.2c0.9,0.4,5.6,3.7,7.6,16.6
				c1.3,9.1-4,13-5.1,13.5l-6.4,6l3.7,6c0,0,1.3,2.3,1.7,5.5c0.5,4.3-0.9,8.1-4.3,11.5c-6.4,6.4-16,11.1-22.7,11.1
				c-4.3,0-5.5-1.9-5.9-2.6l-3-4.9l-7,0.5c-2,1-6,0.1-8,0.3l-4.3,3.6l-2.1,2.4c-1.6,1.9-14.7,18.7-18.8,28
				c-1.6,3.6-3.8,7.1-5.5,10.5c-2.4,5-4.6,10.1-5.8,13.6c-1.7,5-12,22.5-14,28.3c-2.6,2.6-27.8,25.6-46,40.9H400H258
				c-18.3-15.3-44.7-37.7-47.3-40.3c-2.8-2.8-14-23.8-15.7-28.8c-1.1-3.4-3.3-7.7-5.7-12.7c-1.7-3.5-3.5-7-5-10.6
				c-4.7-14.2-17.8-27.1-19.5-29l-1.4-1.8l-2.3-2.9c-2.1-0.2-7.6,0.3-9.7-0.7l-4.9-1.3l-3,4.9c-0.4,0.7-1.6,2.6-5.9,2.6
				c-6.7,0-16.2-4.7-22.7-11.1c-7.6-7.6-3.2-15.9-2.6-17l3-6.1l-6.3-5.5c-1.1-0.5-8-4.1-6-13.5c2-12.9,8.2-16.4,9.1-16.9l6.7-2.1
				l-3.2-6.4c-0.4-1.3-1.5-7.3,1-11.6c8.1-12.7,9-12.9,14.7-13.9c0.3-0.1,0.6-0.1,1-0.1c3.9,0,9,3.3,10.4,4.4l8.4,6.7l1.8-10.6
				c0.2-1.3,2.6-5.4,10.6-6.7c0.4-0.1,0.9-0.1,1.4-0.1c2.9,0,6.4,1.4,10.1,3.8l5.4,14.1l8.5,8.7l2.4,4l4.6-0.5
				c0.9-0.2,1.9,0.2,2.8,0.2c4.4,0,8.3,1.7,12.8,5.9c2.7,2.5,2.3,7.7,1.2,9.6c-1.6,2.6-4.8,6.1-3.4,10.5c0.6,1.9,2.4,5.8,6.4,7.5
				l0.8,0.5l1.2,1.1c9.6,3.2,13,9.7,13.1,9.7l3.3,0.6l2.6,0.3c7,0.7,15.9,7.7,18.9,10l3.1,2.7l5.1-3.3l10.4-6.6l0.9-2.3l0.4-1.5
				c1.3-2.3,7.8-11.5,13.4-19l4.2-3.6l-5.1-4.8c-0.1-0.1-9.9-9-14.6-28.8c-4.3-18.2,5.3-28.7,6-29.4l14.5-10.2l-18.8-0.5
				c-8.3-0.2-8.5-1-10.8-2.5c0.3-0.2,1.4-0.5,2.2-0.8c8.5-2.5,19.7-8.8,20.3-9.1l8-5.7l-9.1-6c-10.7-10.4-14.1-19.5-14.2-19.6
				l-0.5-1.4c-0.1-0.3-1.2-1.8-1.2-2.1c4,1.9,9.6,4.5,17.8,4.7c0.2,0,2.7-0.3,2.9-0.3c10.8,0,18.3-8.3,19.1-9.2l0.8-4.6l-2.3-3.9
				c-8.4-14.2-8.8-30.9-8.6-37.4c0.3-8.3,4-17.6,8.3-21.8c1.3-1.3,1.6-3.8,3.4-3.8c1.9,0,3.9,2.3,5.9,3.6c4.1,2.5,17.5,9.8,17.6,9.9
				l1.7,1.2l2.1-0.1c0.3,0,3.9,1.6,4.2,1.6c6.8,1.6,9.2,6.4,9.7,6.8l4.4,0.8l4.5-4c0.6-0.4,4.6-2.9,12.7-2.9
				c10.3,0,13.8,2.6,14.5,3.1l3.4,5.1l4.4-3.2c0.6-0.1,1.7-0.1,3.8-0.1c1.4,0,3.3,0.1,4.4,0.2l4.3,3.1l3.4-5.1
				c0.6-0.5,4.2-3.1,14.5-3.1c8.1,0,12.1,2.5,12.7,2.9l4.2,3.9l4.2-4.4c0.5-0.4,1.9-2.9,10-2.9c0.3,0,4.1-1.9,4.5-1.8l2.1,0.1
				l1.7-1.2c0.1-0.1,14-7.4,18-10C486,58.6,487.6,56.3,489.5,56.3L489.5,56.3z"/>
		</g>
		<path d="M348.4,123.3c0,0,14.7,6.3,25.8,25.5c0,0-19.7-16.3-22.9-17.9L348.4,123.3z"/>
		<g>
			<path class="st4" d="M350.1,81.9c-11.2-1.1-19-1.1-23.6,1.8c-4.7,2.8-11.8,8.4-11.8,8.4l-11.6-11.2
				c-2.1,21.4,12.3,37.2,12.3,37.2C324.9,103.7,350.1,81.9,350.1,81.9z"/>
			<path class="st4" d="M337.2,97.3c-3.9,0.9-30,38.4-30,38.4l-3,6.3l9.3-0.9l9.8-6C321.5,120.5,337.2,97.3,337.2,97.3z"/>
			<path class="st4" d="M317,280.1c0,0-12.3-3.3-26.5-1.6c0,0,7.7-17.4,9.1-20.4l-3.3-4.2l-9,8.8l-8.1,15.8l-13.7,11.1l-8.4,2.2
				l-15.8-11.4l-12.3-2.3l-9.5-9.7l-10.4-5.9c0,0,2.5,16.1,3.6,19.8s3.6,17.3-3.9,33.8c0,0,10.4-5.2,25.2-18.3
				c4-3.5,16.5-3.3,25.8,16.9l2,8.8c0,0,6.8-16.1,15.1-17.4c8.3-1.2,18.2,2.1,28.9,19.3l6.8-0.4l-5.6-18.1l-22.6-13.5
				C284.5,293.4,294.5,279.9,317,280.1z"/>
			<path class="st4" d="M484.6,118c0,0,14.4-15.8,12.3-37.2l-11.6,11.2c0,0-7.2-5.6-11.8-8.4c-4.7-2.8-12.4-2.8-23.6-1.8
				C449.9,81.9,475.1,103.7,484.6,118z"/>
			<polygon class="st4" points="427.7,76.6 400,80 372.3,76.6 400,91.4 			"/>
			<path class="st4" d="M486.5,141.2l9.3,0.9l-3-6.3c0,0-26.2-37.6-30-38.4c0,0,15.6,23.2,13.9,37.9L486.5,141.2z"/>
			<path class="st4" d="M466.9,146.8c-2.1-1.1-9.3-0.2-9.3-0.2s-9,11.8-12.8,13.3s-8.8,2.2-10.9,2.4l-6.1-3.9l-1.1-5.6
				c0,0,2.1-7.9,7.8-13.9c5.7-5.9,12.2-9.2,12.2-9.2l0.4,7.7c0,0,14,0.2,15.2,3.6l5.2-10.8c0,0-12.7-23.3-24.9-26
				c0,0,8.8,11.9,9.7,15.5c0,0-14.7,3.9-32.1,29.9c0,0,2.1-12.5,10.9-18.8l-13.7,7.7l-3.5-6l-4-4.6l-3.3-1.6l-2.8-1.8l-1.1-3.3v-7.7
				l-2.5-1.6l-2.5,1.6v7.7l-1.1,3.3l-2.8,1.8l-3.3,1.6l-4,4.6l-3.5,6l-13.7-7.7c8.8,6.3,10.9,18.8,10.9,18.8
				c-17.4-26-32.1-29.9-32.1-29.9c0.9-3.6,9.7-15.5,9.7-15.5c-12.2,2.7-24.9,26-24.9,26l5.2,10.8c1.2-3.4,15.2-3.6,15.2-3.6l0.4-7.7
				c0,0,6.5,3.3,12.2,9.2c5.7,5.9,7.8,13.9,7.8,13.9l-1.1,5.6l-6.1,3.9c-2.1-0.1-7.1-0.9-10.9-2.4s-12.8-13.3-12.8-13.3
				s-7.2-0.9-9.3,0.2c-2.1,1.1-7.2,11.1-7.2,11.1l13.7,9.1l4.6,9l8.4,1.1c7.9,25.7,21.8,32.8,21.8,32.8c-9-11.1-11.1-23.9-11.1-23.9
				c3.5,5.3,7.2,7.5,7.2,7.5l3.2,4.6l4.6,2.1l5.4-5.4l3.9,3.2l6.1,3l6.3,0.2l6.3-0.2l6.1-3l3.9-3.2l5.4,5.4l4.6-2.1l3.2-4.6
				c0,0,3.6-2.3,7.2-7.5c0,0-2.1,12.8-11.1,23.9c0,0,13.9-7.1,21.8-32.8l8.4-1.1l4.6-9l13.7-9.1C474.1,157.9,469,147.9,466.9,146.8z
				 M400,198.1c-9.2-4.2-10.5-10.3-10.5-10.3c6.1,6.1,8.1,6.1,8.1,6.1c-0.4-4.6-5.3-22.9-5.3-22.9c2,2.1,6.2,11.2,6.6,12
				c0.4,0.8,1.2,0,1.2,0s0.8,0.8,1.2,0c0.4-0.8,4.6-9.9,6.6-12c0,0-5,18.3-5.3,22.9c0,0,2,0,8.1-6.1
				C410.5,187.8,409.2,193.9,400,198.1z"/>
			<path class="st4" d="M587.2,282.4c1.1-3.7,3.6-19.8,3.6-19.8l-10.4,5.9l-9.5,9.7l-12.3,2.3l-15.8,11.4l-8.4-2.2l-13.7-11.1
				l-8.1-15.8l-9-8.8l-3.3,4.2c1.4,3,9.1,20.4,9.1,20.4c-14.2-1.8-26.5,1.6-26.5,1.6c22.5-0.2,32.5,13.3,32.5,13.3l-22.6,13.5
				l-5.6,18.1l6.8,0.4c10.7-17.2,20.5-20.5,28.9-19.3c8.3,1.2,15.1,17.4,15.1,17.4l2-8.8c9.3-20.2,21.8-20.4,25.8-16.9
				c14.7,13.2,25.2,18.3,25.2,18.3C583.6,299.6,586.1,286,587.2,282.4z"/>
		</g>
		<g>
			<path class="st5" d="M195.7,337.1c-5.6-10.5-13-7.4-13-7.4l28.8,59l12.6,17.6l12.6,0.4l-2.5-4.6
				C212.5,383.1,201.3,347.7,195.7,337.1z"/>
			<path class="st5" d="M187.6,284.2l3.3-4.5c0,0,18.1-1.6,18.8,33.5c0,0,10.2-13.3-0.4-45.4l-2.5-14l2.8-8.1l1.1-6l-8.1-4.9
				c0,0,0.4,20.7-5.3,21.1l-4.6-8.1c0,0-0.7,12.3-2.5,16.5C188.6,268.7,184.3,278.3,187.6,284.2z"/>
			<path class="st5" d="M180.6,251.5l10.5-14.7l-1.4-6.1l-8.1-10.2l-3.5-5.6l-7.4-9.5c0,0-1.1,26.2-10.9,26.3l-2.5-9.8
				c0,0-9.1,16.9-2.8,33.4l9.5-11.2l7.7-6c0,0,5.3,29.1,6.7,33l3.5-8.1l-2.5-4.9L180.6,251.5z"/>
			<path class="st5" d="M132.5,229.7l-4.3-5l-0.7,2.6l0.7,20.6l2.9,6.6l3.9-10.9l14.6-16.9v-9.6l-8.6-4.7
				C140.9,212.6,140.8,224.3,132.5,229.7z"/>
			<path class="st5" d="M125.9,246.8l-3.9-6.8c0,0,2.6,15.8-7.4,20l-2.9,0.8c0,0,0.3,13.2,13.4,19.2l-3.4-10.3l6.5-4.5l1.2-11.3
				L125.9,246.8z"/>
			<path class="st5" d="M128.1,265.2c0,0,9.1,10.5-1,27.6l-3.3-5.8h-2.9c0,0-1.6,19,17.4,21.8l-3.4-5.4l5-19.5
				C139.8,283.9,139.1,268.9,128.1,265.2z"/>
			<path class="st5" d="M529,176.5l-7.6-4.2L501.9,161l13.7-9l10.4-15.4c0,0-20,11.4-46.3,2.7l2.8,25.7l8.1,11.2
				c0,0,10.5,28.8-1.4,46.7c0,0,14.7,21.8-25.6,41.1l-3.5-7.5l-5.5-3.9l-6.8,0.5l-9.7,6.6l-7.7,12.9l-3.9,1.1l-2.9-5.5l-1.8-2.6
				l-5.8,5.8l-6.6,5l-5.5,2.1H400h-3.7l-5.5-2.1l-6.6-5l-5.8-5.8l-1.8,2.6l-2.9,5.5l-3.9-1.1l-7.7-12.9l-9.7-6.6l-6.8-0.5l-5.5,3.9
				l-3.5,7.5c-40.4-19.3-25.6-41.1-25.6-41.1c-11.9-17.9-1.4-46.7-1.4-46.7l8.1-11.2l2.8-25.7c-26.3,8.7-46.3-2.7-46.3-2.7
				l10.4,15.4l13.7,9l-19.5,11.3l-7.6,4.2l19.5,1.8l11.1-3.4l-19.5,14l-6.1,14.7l1.6,20.3l12.6,20.8l13.4,15l17.4,13.2
				c13.4,30.3,29.5,35.8,31.3,35.8s6.6-5,6.6-5c-0.5,4.5-5,23.2-5,23.2H400h46.1c0,0-4.5-18.7-5-23.2c0,0,4.7,5,6.6,5
				s17.9-5.5,31.3-35.8l17.4-13.2l13.4-15l12.6-20.8l1.6-20.3l-6.1-14.7l-19.5-14l11.1,3.4L529,176.5z"/>
			<path class="st5" d="M604.3,337.1c-5.6,10.5-16.9,46-38.6,65l-2.5,4.6l12.6-0.4l12.6-17.6l28.8-59
				C617.3,329.8,609.9,326.6,604.3,337.1z"/>
			<path class="st5" d="M590.3,313.2c0.7-35.1,18.8-33.5,18.8-33.5l3.3,4.5c3.3-5.9-1-15.5-2.8-19.7c-1.8-4.2-2.5-16.5-2.5-16.5
				l-4.6,8.1c-5.6-0.4-5.3-21.1-5.3-21.1l-8.1,4.9l1.1,6l2.8,8.1l-2.5,14C580.1,300,590.3,313.2,590.3,313.2z"/>
			<path class="st5" d="M640.1,231.8c-9.8,0-10.9-26.3-10.9-26.3l-7.4,9.5l-3.5,5.6l-8.1,10.2l-1.4,6.1l10.5,14.7l1.1,6.7L618,263
				l3.5,8.1c1.4-3.9,6.7-33,6.7-33l7.7,6l9.5,11.2c6.3-16.5-2.8-33.4-2.8-33.4L640.1,231.8z"/>
			<path class="st5" d="M668.9,254.6l2.9-6.6l0.7-20.6l-0.7-2.6l-4.3,5c-8.3-5.4-8.4-17.1-8.4-17.1l-8.6,4.7v9.6l14.6,16.9
				L668.9,254.6z"/>
			<path class="st5" d="M688.3,260.8l-2.9-0.8c-10-4.2-7.4-20-7.4-20l-3.9,6.8l-3.4,7.1l1.2,11.3l6.5,4.5l-3.4,10.3
				C688.1,273.9,688.3,260.8,688.3,260.8z"/>
			<path class="st5" d="M660.2,283.9l5,19.5l-3.4,5.4c19-2.7,17.4-21.8,17.4-21.8h-2.9l-3.3,5.8c-10.1-17.1-1-27.6-1-27.6
				C660.9,268.9,660.2,283.9,660.2,283.9z"/>
		</g>
		<path d="M451.6,123.3c0,0-14.7,6.3-25.8,25.5c0,0,19.7-16.3,22.9-17.9L451.6,123.3z"/>
		<path d="M696.7,255.7c-1.1-7.4-3.5-12.6-13.7-17.6c0,0,5.6-7,2.1-14c-3.5-7-7.7-12.3-11.6-16.1c-3.9-3.9-10.6-0.3-13.7,1.8
			c-3.2,2.1-9,5.7-9,5.7s-3.4-13.3-12.1-14.5c-7.5-1-13.3,1.4-15.8,6.4c-2.5,4.9-3.5,10.9-3.5,10.9s-4.2,1.8-12,13.3
			c0,0-6.7-2.1-12.3,0.7c-5.6,2.8-9.8,5.6-9.1,11.6c0.7,6,4.2,8.8,4.2,8.8s1.8,7.4-4.9,10.9c-6.7,3.5-9.1,4.9-11.6,6.3
			c-2.5,1.4-4.9,2.5-4.9,5.6c0,0-13.7,0.7-27.7,13.7l-14.7-9.5c0,0-6-15.1-18.3-25.6c0,0,16.1-15.1,19.3-30.5
			c3.2-15.4-2.5-29.8-6.7-34.1c-4.2-4.2-13-8.8-13-8.8s21.1,3.2,30.5-3.2c0,0-13-6-19.3-9.1c-6.3-3.2-11.2-6.7-11.2-6.7
			s19.3-11.6,24.2-31.2c0,0-14.7,8.8-25.3,4.9c-10.5-3.9-15.4-9.5-16.5-11.2c0,0,9.5-15.8,10.5-29.5c1.1-13.7-0.4-30.5-10.5-38.6
			c-5.3-0.7-11.9,6-16.9,9.1c-4.9,3.2-13.7,6.3-22.1,7.7c-4.1,0.8-6.2,6.1-6.2,6.1s-8.7-6.6-19.5-6.1c-10.8,0.5-18.2,5.5-18.2,5.5
			l-7.4-0.2l-7.4,0.2c0,0-7.4-5-18.2-5.5c-10.8-0.5-19.5,6.1-19.5,6.1s-2.1-5.3-6.2-6.1c-8.4-1.4-17.2-4.6-22.1-7.7
			c-4.9-3.2-11.6-9.8-16.9-9.1c-10.2,8.1-11.6,24.9-10.5,38.6c1.1,13.7,10.5,29.5,10.5,29.5c-1.1,1.8-6,7.4-16.5,11.2
			c-10.5,3.9-25.3-4.9-25.3-4.9c4.9,19.7,24.2,31.2,24.2,31.2s-4.9,3.5-11.2,6.7c-6.3,3.2-19.3,9.1-19.3,9.1
			c9.5,6.3,30.5,3.2,30.5,3.2s-8.8,4.6-13,8.8s-9.8,18.6-6.7,34.1c3.2,15.4,19.3,30.5,19.3,30.5c-12.3,10.5-18.3,25.6-18.3,25.6
			l-14.7,9.5c-14-13-27.7-13.7-27.7-13.7c0-3.2-2.5-4.2-4.9-5.6c-2.5-1.4-4.9-2.8-11.6-6.3c-6.7-3.5-4.9-10.9-4.9-10.9
			s3.5-2.8,4.2-8.8c0.7-6-3.5-8.8-9.1-11.6c-5.6-2.8-12.3-0.7-12.3-0.7c-7.7-11.6-12-13.3-12-13.3s-1-6-3.5-10.9
			c-2.5-4.9-8.2-7.4-15.8-6.4c-8.7,1.2-12.1,14.5-12.1,14.5s-5.9-3.6-9-5.7c-3.2-2.1-9.9-5.6-13.7-1.8c-3.9,3.9-8.1,9.1-11.6,16.1
			c-3.5,7,2.1,14,2.1,14c-10.2,4.9-12.6,10.2-13.7,17.6c-1.1,7.4-2.1,11.2,0.7,13.7c2.8,2.5,9.5,8.4,9.5,8.4
			c-8.1,18.3-2.8,18.6-1.4,20.4c1.4,1.8,6.3,6.7,13.7,11.9c7.4,5.3,17.6,0.4,17.6,0.4l-6-4.9l3.5-5.3c0,0,2.8,1.8,6.7,4.9
			c3.9,3.2,12.6,2.5,12.6,2.5s10.2,10.5,16.5,19c6.3,8.4,9.8,18.6,13.7,27.4c3.9,8.8,8.4,19.7,15.4,30.9c7,11.2,14.7,19.3,14.7,19.3
			l8.8-0.7c-6.3-3.2-14-13.7-14-13.7s13.7,1.1,20-0.7c6.3-1.8,12.3-11.6,14.4-16.1c2.1-4.6,9.1-19.7,9.1-19.7s-12.9,16.5-23.2,21.2
			c-10.3,4.7-23.2,1.3-28.4-1.1c-5.3-2.4-6.1-12.6-6.1-12.6c22.1,1.1,27.4-17.9,27.4-17.9c-21.3,16.3-29.8,8.7-31.6,6.8
			s-10.5-17.9-13.4-22.9c-2.9-5-16.9-20.3-16.9-20.3l19.2-0.3c-3.2-2.9-9-4.7-14.5-4.7s-18.2,0.8-20.8,0s-8.2-7.6-8.2-7.6v-4.2
			c9.7-0.8,14.7-0.7,17.4,1.4s10,1.2,10,1.2c-4.2,0.3-7.1-2.6-9-4.2s-3.2-3.2-6.3-2.9c-3.2,0.3-9.7,0.5-9.7,0.5l-0.5-8.7l-2.6,9.7
			c-0.5-3.7-3.9-8.4-3.9-8.4c0.3,3.7,0.8,9.5-2.1,17.4c-2.9,7.9-4.7,1.5-7.7-4.1c-3-5.6-4.2-7.7-7.9-7.2c-3.7,0.5-5.1,10.9-5.1,10.9
			c-6.8-4.2,1.1-15.3,1.1-15.3s1.8,1.6,4.6,2.8c2.8,1.2,8.5,0,8.5,0c-6.1-6.3-5.3-11.8-5.3-11.8c24.5-14,47.9,7.1,47.9,7.1
			c0.8-27.1-3.4-33.4-3.4-33.4c8.4-4.2,6.1-21.1,6.1-21.1c-0.5,3.9-3.4,13.4-5.8,14c-2.4,0.5-6.6,3.7-6.6,3.7
			c0.8-15.3-5.5-24-5.5-24l-5.5,5.8c1.8-10.3,5.8-18,13.5-17.3c7.7,0.7,11.9,7.4,13,13.7c1.1,6.3,3.8,17.8,3.8,17.8l0.5-14.2
			c2.1,1.1,8.2,11.6,8.2,11.6s-8.2,11.3-11.3,17.1c-3.2,5.8,0.5,11.3,0.5,11.3c-2.5,7.4-0.8,16.3,1.8,19.5c2.6,3.2,6.6,10,6.6,10
			c-0.5-7.6,5.5-14.7,5.5-14.7s3.2,0.3,5.3,0c2.1-0.3,5.5-4.2,5.5-4.2l-8.4-0.3c0,0,3.4-2.9,3.7-14.2c0.3-11.3-3.7-14.2-8.4-11.3
			c-4.7,2.9-7.9,11.1-7.9,11.1c-2.1,0.3-0.8-5.5-0.8-5.5s5.8-9.2,8.7-12.9c2.9-3.7,3.9-5.3,8.2-4.7s4.7,2.6,7.1,4.5s2.6,4.5,2.6,4.5
			s-3.7,0.8-3.2,8.7c1.6,19,7.4,29,7.4,29c-1.6-5.5-1.8-17.4-1.8-17.4c4.2,5.8,7.6,5.3,10.5,8.2s2.1,13.2,0.5,20.3
			c-1.6,7.1-14.5,24.2-14.5,24.2s2.4-0.3,14-10.5s9.7-25.8,9.7-25.8c24.5-0.3,30.8,46.3,30.8,46.3s-1.3-25.5,4.7-28.4
			c6.1-2.9,15.3-2.6,27.9,4.2c12.6,6.8,14.5,25.3,14.5,25.3l7.9-0.3c0.8-7.1-1.3-20.5-10.8-29.2c-9.5-8.7-34.8-9-34.8-9
			c9.7-9.7,46.3-11.8,46.3-11.8c-12.6-2.9-31.9-1.6-31.9-1.6c-0.3-12.4,12.1-18.4,12.1-18.4c10.8,12.9,41.9,24,41.9,24
			c-2.4-8.7-2.4-15-0.3-21.9c2.1-6.8,12.4-11.6,22.9,3.4c10.5,15,5.5,30.3,3.2,34c-2.4,3.7-3.4,10.3-1.3,14.7
			c2.1,4.5,10.8,17.1,10.8,17.1h12.6c-10-5.8-6.6-22.9-6.6-22.9c-6.3,4.2-6.3,14.5-6.3,14.5c-9-8.2-8.7-16.9-6.8-19.7
			s5-8.7,4.7-14.7c-0.2-2.1-0.5-4-0.9-5.8c8.6,17,28,19.5,28,19.5s19.4-2.6,28-19.5c-0.3,1.8-0.6,3.8-0.9,5.8
			c-0.3,6.1,2.9,11.8,4.7,14.7s2.1,11.6-6.8,19.7c0,0,0-10.3-6.3-14.5c0,0,3.4,17.1-6.6,22.9h12.6c0,0,8.7-12.6,10.8-17.1
			c2.1-4.5,1.1-11.1-1.3-14.7c-2.4-3.7-7.4-19,3.2-34c10.5-15,20.8-10.3,22.9-3.4c2.1,6.8,2.1,13.2-0.3,21.9c0,0,31.1-11.1,41.9-24
			c0,0,12.4,6.1,12.1,18.4c0,0-19.2-1.3-31.9,1.6c0,0,36.6,2.1,46.3,11.8c0,0-25.3,0.3-34.8,9c-9.5,8.7-11.6,22.1-10.8,29.2l7.9,0.3
			c0,0,1.8-18.4,14.5-25.3c12.6-6.8,21.9-7.1,27.9-4.2s4.7,28.4,4.7,28.4s6.3-46.6,30.8-46.3c0,0-1.8,15.5,9.7,25.8
			c11.6,10.3,14,10.5,14,10.5s-12.9-17.1-14.5-24.2c-1.6-7.1-2.4-17.4,0.5-20.3c2.9-2.9,6.3-2.4,10.5-8.2c0,0-0.3,11.8-1.8,17.4
			c0,0,5.8-10,7.4-29c0.5-7.9-3.2-8.7-3.2-8.7s0.3-2.6,2.6-4.5c2.4-1.8,2.9-3.9,7.1-4.5c4.2-0.5,5.3,1.1,8.2,4.7
			c2.9,3.7,8.7,12.9,8.7,12.9s1.3,5.8-0.8,5.5c0,0-3.2-8.2-7.9-11.1c-4.7-2.9-8.7,0-8.4,11.3c0.3,11.3,3.7,14.2,3.7,14.2l-8.4,0.3
			c0,0,3.4,3.9,5.5,4.2c2.1,0.3,5.3,0,5.3,0s6.1,7.1,5.5,14.7c0,0,3.9-6.8,6.6-10c2.6-3.2,4.4-12.1,1.8-19.5c0,0,3.7-5.5,0.5-11.3
			c-3.2-5.8-11.3-17.1-11.3-17.1s6.1-10.5,8.2-11.6l0.5,14.2c0,0,2.7-11.5,3.8-17.8c1.1-6.3,5.3-13,13-13.7s11.7,7,13.5,17.3
			l-5.5-5.8c0,0-6.3,8.7-5.5,24c0,0-4.2-3.2-6.6-3.7c-2.4-0.5-5.3-10-5.8-14c0,0-2.4,16.9,6.1,21.1c0,0-4.2,6.3-3.4,33.4
			c0,0,23.4-21.1,47.9-7.1c0,0,0.8,5.5-5.3,11.8c0,0,5.7,1.2,8.5,0c2.8-1.2,4.6-2.8,4.6-2.8s7.9,11.1,1.1,15.3
			c0,0-1.4-10.4-5.1-10.9c-3.7-0.5-4.9,1.6-7.9,7.2c-3,5.6-4.8,12-7.7,4.1c-2.9-7.9-2.4-13.7-2.1-17.4c0,0-3.4,4.7-3.9,8.4l-2.6-9.7
			l-0.5,8.7c0,0-6.6-0.3-9.7-0.5c-3.2-0.3-4.5,1.3-6.3,2.9s-4.7,4.5-9,4.2c0,0,7.4,0.9,10-1.2c2.6-2.1,7.6-2.2,17.4-1.4v4.2
			c0,0-5.5,6.8-8.2,7.6c-2.6,0.8-15.3,0-20.8,0s-11.3,1.8-14.5,4.7l19.2,0.3c0,0-14,15.3-16.9,20.3c-2.9,5-11.6,21.1-13.4,22.9
			s-10.3,9.5-31.6-6.8c0,0,5.3,19,27.4,17.9c0,0-0.8,10.3-6.1,12.6c-5.3,2.4-18.2,5.8-28.4,1.1c-10.3-4.7-23.2-21.2-23.2-21.2
			s7,15.1,9.1,19.7c2.1,4.6,8.1,14.4,14.4,16.1c6.3,1.8,20,0.7,20,0.7s-7.7,10.5-14,13.7l8.8,0.7c0,0,7.7-8.1,14.7-19.3
			c7-11.2,11.6-22.1,15.4-30.9c3.9-8.8,7.4-19,13.7-27.4c6.3-8.4,16.5-19,16.5-19s8.8,0.7,12.6-2.5c3.9-3.2,6.7-4.9,6.7-4.9l3.5,5.3
			l-6,4.9c0,0,10.2,4.9,17.6-0.4c7.4-5.3,12.3-10.2,13.7-11.9c1.4-1.8,6.7-2.1-1.4-20.4c0,0,6.7-6,9.5-8.4
			C698.8,266.9,697.7,263,696.7,255.7z M119.3,289.9c0.7-2.1,4-0.4,5.3,3.9c1.2,4.2,2.5,7.5,4.2,9.3c1.8,1.8,3.5,3.9,5.1,4.2
			c1.6,0.4,1.8,1.4,1.8,1.4s-7.4,2.1-16.1-8.4C117.9,298.3,118.6,292,119.3,289.9z M124.6,280.4c0,0-4.7-0.2-9.3-4.2
			c-4.6-4-6.1-7.8-6.1-7.8s0.2-5.7,1.6-7.3c0,0,5.6-0.5,8.6,8.1C122.3,277.8,124.6,280.4,124.6,280.4z M125.9,260
			c-0.8,6.8-5,7.9-5,7.9c0.5-3.4-1.6-6.1-3.9-7.9s-7.6-4.5-7.6-4.5c-1.6,5.3-1.3,12.9-1.3,12.9c-5.3-5.3-0.8-14.2,0.5-19.2
			c1.3-5,13.2-9.5,12.9-8.2s1.1,6.8,3.4,8.2C127.2,250.5,126.7,253.1,125.9,260z M130.9,251l-7.1-10c0,0,0.5-14.7,2.9-15.8
			c0,0,3.9,7.1,5.8,8.7C132.5,233.9,130.9,243.1,130.9,251z M134.6,228.6c-1.8-3.7-7.9-10.3-7.9-10.3c-5.5,5.5-5.5,17.6-5.5,17.6
			c-4.5-5.3-2.4-9.2-1.1-14c1.3-4.7,7.9-14,11.3-12.1c3.4,1.8,14.1,6.1,16.9,8.4c1.3,1.1,0.8,4.5-0.8,6.8
			c-1.6,2.4-12.9,17.1-12.9,17.1S136.4,232.3,134.6,228.6z M148,261.6l-9.5-18.7l5-6.1l6,23.7L148,261.6z M156.4,223.1l2.9,16.1
			c0,0-7.1,9.5-6.1,20.8c0,0-5.3-10.3-6.3-20C146.2,232.6,156.4,223.1,156.4,223.1z M182,269.2c1.3-2.1,2.1-6.8,2.9-9.2
			c0.8-2.4,7.4-9.7,7.4-9.7c4.2,5.3,2.3,15.2,0.8,18.2c-4.8,8.4-6.8,17.1-6.8,17.1C183,281.3,180.7,271.3,182,269.2z M461.5,71.9
			c2.1-0.5,6.1,0.1,8.3-1.8c2.3-1.9,5.1-3,9,0.7c3.9,3.7,5.1,6.1,4.1,9.6c0,0-12.6-8.2-25.5-6.3C457.4,74.1,460.4,72.2,461.5,71.9z
			 M473.5,83.6c4.7,2.8,11.8,8.4,11.8,8.4l11.6-11.2c2.1,21.4-12.3,37.2-12.3,37.2c-9.5-14.4-34.8-36.2-34.8-36.2
			C461.1,80.8,468.8,80.8,473.5,83.6z M321.2,70.8c3.9-3.7,6.7-2.6,9-0.7c2.3,1.9,6.3,1.3,8.3,1.8c1.1,0.3,4.1,2.1,4.1,2.1
			c-12.9-1.8-25.5,6.3-25.5,6.3C316.1,77,317.3,74.5,321.2,70.8z M303.1,80.8l11.6,11.2c0,0,7.2-5.6,11.8-8.4
			c4.7-2.8,12.4-2.8,23.6-1.8c0,0-25.3,21.8-34.8,36.2C315.4,118,301,102.2,303.1,80.8z M339.4,254.7c-6.6,5.8-4.7,20.8-4.7,20.8
			c-13.4-5.3-25.3-14-39.5-28.4s-16.3-31.9-17.1-41.3c-0.8-9.5,6.3-17.1,15-21.6c8.7-4.5,11.6-13.4,11.6-13.4
			c-12.1,6.3-26.9,4.5-26.9,4.5c24.5-8.2,25.8-17.1,25.8-17.1c-15,0.5-26.6-18.7-26.6-18.7c19,11.3,41.1,2.4,41.1,2.4
			c-3.9,5.5-3.7,24-3.7,24c-16.9,15.8-16.9,32.9-13.4,44.8c3.4,11.8,26.3,32.4,26.3,32.4c-0.3-7.4,3.2-13.2,8.7-13.4
			s16.9,16.1,16.9,16.1c-2.9-8.4-11.1-23.2-18.2-23.7c-7.1-0.5-9.5,11.8-9.5,11.8c-20-12.9-22.1-38.2-12.6-54c9.5-15.8,25-10,25-10
			s-7.1,6.3-5.8,16.3c2.1,13.4,10.5,16.9,10.5,16.9c1.1,21.9,19.7,41.9,19.7,41.9s4.2,10,6.1,21.6c0,0.5,0.1,1.1,0.2,1.6
			C360.1,248.3,344.7,250.1,339.4,254.7z M377.9,253.9c-2.6-2.4-4.5-6.6-6.3-10.3s-1.8-12.8-1.8-12.8c6.2,0.4,9-3.3,9-3.3
			s-0.1,1.9-0.6,3.2C377.6,232.1,377.9,253.9,377.9,253.9z M400,287.4c-17.9,0-21.3-20.8-21.3-20.8c12.3,14.7,21.3,12.9,21.3,12.9
			s9.1,1.7,21.3-12.9C421.3,266.6,417.9,287.4,400,287.4z M400,230l10.3-5.1c0,0,5.8-2.1,5.5,1.6s-1.3,6.3-4.5,10.3
			c0,0,0.3-7.4-4.7-4.7c-1.5,1-6.6,1.1-6.6,1.1s-5.1-0.1-6.6-1.1c-5-2.6-4.7,4.7-4.7,4.7c-3.2-3.9-4.2-6.6-4.5-10.3s5.5-1.6,5.5-1.6
			L400,230z M394,204.1c-3.2,0-6.3-4.9-6.3-4.9s4.3,3,5.7,3c1.4,0,6.6,0,6.6,0s5.1,0,6.6,0c1.4,0,5.7-3,5.7-3s-3.2,4.9-6.3,4.9
			c-3.2,0-6,0-6,0S397.2,204.1,394,204.1z M428.4,243.6c-1.8,3.7-3.7,7.9-6.3,10.3c0,0,0.3-21.9-0.3-23.2c-0.5-1.3-0.6-3.2-0.6-3.2
			s2.7,3.7,9,3.3C430.2,230.8,430.3,240,428.4,243.6z M430.3,228.1c0,0-6.3-0.5-13.2-5.3H409v-8.4c0,0,5.8-6.5,10.4-9.3
			c4.6-2.8,14.8-7.3,8.1-21.4c0,0-1.3,0.4-0.8,3.6c0.5,3.2,1.1,7.6-3.7,11.1l-5.8-5.5c0,0-6.8,6-8.5,6.7c-1.8,0.7-8.6,0.5-8.6,0.5
			s-6.8,0.2-8.6-0.5c-1.8-0.7-8.5-6.7-8.5-6.7l-5.8,5.5c-4.7-3.4-4.2-7.9-3.7-11.1c0.5-3.2-0.8-3.6-0.8-3.6
			c-6.7,14.1,3.5,18.6,8.1,21.4c4.6,2.8,10.4,9.3,10.4,9.3v8.4h-8.2c-6.8,4.7-13.2,5.3-13.2,5.3c-14.7-10.5-22.4-25.3-23.4-29.2
			c-2.4-15.3,3.2-19,3.2-19c6.8,21.3,24.2,29.5,24.2,29.5c-16.1-15-17.4-35-17.4-35s3.2-5.3,13.2-4.5c10,0.8,20,10.8,20,10.8
			c-2.9-11.3-17.9-14.7-25.5-14.2s-16.3,6.6-16.3,6.6c-3.4-6.3-11.6-12.6-15.3-12.9c-3.7-0.3-4.2-3.4-4.2-7.6
			c0.5-6.8,6.6-11.1,6.6-11.1c2.5,5.3,7.7,6.8,7.7,6.8c3.2,5.3,11.8,11.1,11.8,11.1c-3.9-6.5-4.3-7.5-4.3-7.5
			c5.8,10.2,16.3,8.3,16.3,8.3l-2.4,4.5c7.1-4.7,9.2-3.7,12.1-2.6c2.9,1.1,13.7,6.1,13.7,6.1s-10-7.1-12.4-10.8
			c-2.4-3.7-9.5-11.3-15-13.4c-5.5-2.1-21.6-1.3-21.6-1.3c-6.3-5.3-1.6-19,4.7-26.6S367.1,98,367.1,98c-25.3,6.8-30.8,17.6-38.7,29
			c-7.9,11.3-19.2,11.8-19.2,11.8c10-6.3,11.3-19.2,19-30c7.6-10.8,20.5-20.5,28.2-24.5s17.9-5.8,24-4.7c6.1,1.1,19.7,3.7,19.7,3.7
			s13.7-2.6,19.7-3.7c6.1-1.1,16.3,0.8,24,4.7s20.5,13.7,28.2,24.5c7.6,10.8,9,23.7,19,30c0,0-11.3-0.5-19.2-11.8
			c-7.9-11.3-13.4-22.1-38.7-29c0,0,15.3,10.3,21.6,17.9s11.1,21.3,4.7,26.6c0,0-16.1-0.8-21.6,1.3c-5.5,2.1-12.6,9.7-15,13.4
			c-2.4,3.7-12.4,10.8-12.4,10.8s10.8-5,13.7-6.1c2.9-1.1,5-2.1,12.1,2.6l-2.4-4.5c0,0,10.5,1.9,16.3-8.3c0,0-0.4,1-4.3,7.5
			c0,0,8.7-5.9,11.8-11.1c0,0,5.3-1.6,7.7-6.8c0,0,6.1,4.3,6.6,11.1c0,4.2-0.5,7.4-4.2,7.6c-3.7,0.3-11.8,6.6-15.3,12.9
			c0,0-8.7-6.1-16.3-6.6s-22.6,2.9-25.5,14.2c0,0,10-10,20-10.8c10-0.8,13.2,4.5,13.2,4.5s-1.3,20-17.4,35c0,0,17.4-8.2,24.2-29.5
			c0,0,5.5,3.7,3.2,19C452.7,202.8,445,217.6,430.3,228.1z M352.3,149.1c0,0,4.6-2.8,9.1-0.4c4.6,2.5,7.4,8.3,7.4,8.3
			s-6,1.2-10.2,0.4C354.4,156.5,352.4,150.5,352.3,149.1z M447.7,149.1c-0.2,1.4-2.1,7.4-6.3,8.3c-4.2,0.9-10.2-0.4-10.2-0.4
			s2.8-5.8,7.4-8.3C443.2,146.3,447.7,149.1,447.7,149.1z M504.8,247.1c-14.2,14.5-26.1,23.2-39.5,28.4c0,0,1.8-15-4.7-20.8
			c-5.3-4.6-20.6-6.4-28.9,13.2c0.1-0.5,0.1-1,0.2-1.6c1.8-11.6,6.1-21.6,6.1-21.6s18.7-20,19.7-41.9c0,0,8.4-3.4,10.5-16.9
			c1.3-10-5.8-16.3-5.8-16.3s15.5-5.8,25,10c9.5,15.8,7.4,41.1-12.6,54c0,0-2.4-12.4-9.5-11.8c-7.1,0.5-15.3,15.3-18.2,23.7
			c0,0,11.3-16.3,16.9-16.1s9,6.1,8.7,13.4c0,0,22.9-20.5,26.3-32.4c3.4-11.8,3.4-29-13.4-44.8c0,0,0.3-18.4-3.7-24
			c0,0,22.1,9,41.1-2.4c0,0-11.6,19.2-26.6,18.7c0,0,1.3,9,25.8,17.1c0,0-14.7,1.8-26.9-4.5c0,0,2.9,9,11.6,13.4
			c8.7,4.5,15.8,12.1,15,21.6C521.1,215.2,519,232.6,504.8,247.1z M613.8,285.5c0,0-2.1-8.7-6.8-17.1c-1.5-3-3.4-12.9,0.8-18.2
			c0,0,6.6,7.4,7.4,9.7c0.8,2.4,1.6,7.1,2.9,9.2C619.3,271.3,617,281.3,613.8,285.5z M680.5,300.3c-8.8,10.5-16.1,8.4-16.1,8.4
			s0.2-1.1,1.8-1.4c1.6-0.4,3.3-2.5,5.1-4.2c1.8-1.8,3-5.1,4.2-9.3c1.2-4.2,4.6-6,5.3-3.9C681.4,292,682.1,298.3,680.5,300.3z
			 M640.7,239.2l2.9-16.1c0,0,10.3,9.5,9.5,16.9c-1.1,9.7-6.3,20-6.3,20C647.8,248.6,640.7,239.2,640.7,239.2z M652,261.6l-1.5-1.1
			l6-23.7l5,6.1L652,261.6z M665.4,242.3c0,0-11.3-14.7-12.9-17.1s-2.1-5.7-0.8-6.8c2.8-2.3,13.4-6.6,16.9-8.4s10,7.4,11.3,12.1
			s3.4,8.7-1.1,14c0,0,0-12.1-5.5-17.6c0,0-6.1,6.6-7.9,10.3S665.4,242.3,665.4,242.3z M667.5,233.9c1.8-1.6,5.8-8.7,5.8-8.7
			c2.4,1.1,2.9,15.8,2.9,15.8l-7.1,10C669.1,243.1,667.5,233.9,667.5,233.9z M684.7,276.2c-4.6,4-9.3,4.2-9.3,4.2s2.3-2.6,5.3-11.2
			c3-8.6,8.6-8.1,8.6-8.1c1.4,1.6,1.6,7.3,1.6,7.3S689.3,272.2,684.7,276.2z M692,268.4c0,0,0.3-7.6-1.3-12.9c0,0-5.3,2.6-7.6,4.5
			c-2.4,1.8-4.5,4.5-3.9,7.9c0,0-4.2-1.1-5-7.9c-0.8-6.8-1.3-9.5,1.1-10.8c2.4-1.3,3.7-6.8,3.4-8.2s11.6,3.2,12.9,8.2
			C692.8,254.2,697.3,263.1,692,268.4z"/>
		<path d="M404.5,100.9c0,0-0.8-6.1,9-7.6c9.7-1.6,21.6-1.2,37.1,8.6c0,0-26-28.1-50.6-11.2c-24.6-16.9-50.6,11.2-50.6,11.2
			c15.5-9.8,27.4-10.2,37.1-8.6c9.7,1.6,9,7.6,9,7.6c-28.7-6.1-31.9,15.3-31.9,15.3c10.3-13.4,26.9-11.6,31.1-11.1
			c4.2,0.5,3.2,4.5,3.2,4.5c-22.4-1.8-27.6,12.7-27.6,12.7c11.6-10.7,22.4-8.8,24.8-7.4c2.4,1.3,1.6,7.9-0.3,9.2
			c-1.8,1.3-5.5,3.7-9,5.3c-3.4,1.6-4.5,6.1-4.5,6.1c-2.6-3.9-11.6-4.2-11.6-4.2c10.5,7.4,20.8,28.2,20.8,28.2s0.8-4.7,1.1-12.6
			s-1.6-6.6-2.9-10.5c-1.3-3.9,2.6-6.6,5.5-7.6c2.9-1.1,4.4-3.9,4.4-3.9c0-10,1.4-8.3,1.4-8.3s1.4-1.8,1.4,8.3c0,0,1.5,2.8,4.4,3.9
			c2.9,1.1,6.8,3.7,5.5,7.6c-1.3,3.9-3.2,2.6-2.9,10.5s1.1,12.6,1.1,12.6s10.3-20.8,20.8-28.2c0,0-9,0.3-11.6,4.2
			c0,0-1.1-4.5-4.5-6.1c-3.4-1.6-7.1-3.9-9-5.3c-1.8-1.3-2.6-7.9-0.3-9.2c2.4-1.3,13.2-3.3,24.8,7.4c0,0-5.3-14.6-27.6-12.7
			c0,0-1.1-3.9,3.2-4.5c4.2-0.5,20.8-2.4,31.1,11.1C436.3,116.2,433.2,94.9,404.5,100.9z"/>
		<path class="st6" d="M413.5,235.5c-4.4,9-13.5,7.3-13.5,7.3s-9.1,1.6-13.5-7.3c0,0,3.3,14.9-8.4,22.8c0,0,3.2,16.7,21.9,16.7
			s21.9-16.7,21.9-16.7C410.2,250.4,413.5,235.5,413.5,235.5z"/>
	</g>
	<g>
		<path class="st0" d="M532.7,462.5H400H267.3c-15.7,0-28.4,12.7-28.4,28.4v47.4c0,15.7,12.7,28.4,28.4,28.4H400h132.7
			c15.7,0,28.4-12.7,28.4-28.4v-47.4C561.1,475.2,548.4,462.5,532.7,462.5z"/>
		<path class="st7" d="M522.7,532H277.3c-2.3,0-4.2-1.9-4.2-4.2c0-2.3,1.9-4.2,4.2-4.2h245.4c2.3,0,4.2,1.9,4.2,4.2
			C526.9,530.1,525,532,522.7,532z"/>
		<path class="st7" d="M513.2,548.8H286.8c-2.3,0-4.2-1.9-4.2-4.2c0-2.3,1.9-4.2,4.2-4.2h226.5c2.3,0,4.2,1.9,4.2,4.2
			C517.4,546.9,515.6,548.8,513.2,548.8z"/>
		<path class="st8" d="M532.7,470.9c11,0,20,9,20,20v47.4c0,11-9,20-20,20H400H267.3c-11,0-20-9-20-20v-47.4c0-11,9-20,20-20H400
			H532.7 M532.7,462.5H400H267.3c-15.7,0-28.4,12.7-28.4,28.4v47.4c0,15.7,12.7,28.4,28.4,28.4H400h132.7
			c15.7,0,28.4-12.7,28.4-28.4v-47.4C561.1,475.2,548.4,462.5,532.7,462.5L532.7,462.5z"/>
	</g>
	<g>
		<path class="st2" d="M549.6,461.8L400,350.3L250.4,461.8c-22.9,17-10.8,53.4,17.7,53.4H400h131.9
			C560.4,515.1,572.4,478.8,549.6,461.8z"/>
		<path class="st8" d="M400,360.8l144.5,107.7c9,6.7,9.8,16.6,7.5,23.7c-2.3,7-8.8,14.5-20.1,14.5H400H268.1
			c-11.3,0-17.8-7.5-20.1-14.5c-2.3-7-1.6-16.9,7.4-23.7L400,360.8 M400,350.3L250.4,461.8c-22.9,17-10.8,53.4,17.7,53.4H400h131.9
			c28.5,0,40.6-36.3,17.7-53.4L400,350.3L400,350.3z"/>
	</g>
	<g>
		<g>
			<polygon class="st9" points="609.6,400.3 400,400.3 190.4,400.3 211.5,431.4 190.4,462.5 400,462.5 609.6,462.5 588.5,431.4 			
				"/>
			<path class="st8" d="M593.7,408.7l-12.1,17.9l-3.2,4.7l3.2,4.7l12.1,17.9H400H206.3l12.1-17.9l3.2-4.7l-3.2-4.7l-12.1-17.9H400
				H593.7 M609.6,400.3H400H190.4l21.1,31.1l-21.1,31.1H400h209.6l-21.1-31.1L609.6,400.3L609.6,400.3z"/>
		</g>
		<path class="st10" d="M568,427.7H232c-2.3,0-4.2-1.9-4.2-4.2s1.9-4.2,4.2-4.2h336c2.3,0,4.2,1.9,4.2,4.2S570.3,427.7,568,427.7z"
			/>
		<path class="st10" d="M568,444H232c-2.3,0-4.2-1.9-4.2-4.2s1.9-4.2,4.2-4.2h336c2.3,0,4.2,1.9,4.2,4.2S570.3,444,568,444z"/>
	</g>
	<g>
		<g>
			<path class="st11" d="M400,323.4H272.6c0,0,0,110.2,0,157.3s24.6,89.9,63.9,119.4c39.3,29.5,63.5,47.7,63.5,47.7
				s24.2-18.3,63.5-47.7c39.3-29.5,63.9-72.3,63.9-119.4s0-157.3,0-157.3H400z"/>
			<path class="st8" d="M519,331.9v148.9c0,42.7-22.1,83.8-60.5,112.6c-28.6,21.5-49.4,37.1-58.5,43.9c-9.1-6.8-29.9-22.5-58.5-43.9
				C303,564.5,281,523.4,281,480.7V331.9h119H519 M527.4,323.4H400H272.6c0,0,0,110.2,0,157.3c0,47,24.6,89.9,63.9,119.4
				c39.3,29.5,63.5,47.7,63.5,47.7s24.2-18.3,63.5-47.7c39.3-29.5,63.9-72.3,63.9-119.4C527.4,433.7,527.4,323.4,527.4,323.4
				L527.4,323.4z"/>
		</g>
		<g>
			<path class="st0" d="M400,343.1H293.6c0,0,0,80,0,139.4c0,59.3,34.4,85.3,66,109.9c19.7,15.4,40.4,29.5,40.4,29.5
				s20.7-14,40.4-29.5c31.6-24.6,66-50.6,66-109.9c0-59.3,0-139.4,0-139.4H400z M400,353.6h95.8v9.5H343.5
				c-10.3,0-18.6,8.3-18.6,18.6c0,10.3,8.3,18.6,18.6,18.6h112.7c3.9,0,7,3.1,7,7v74.5c0,3.9-3.1,7-7,7h-113c-3.5,0-6.3-2.8-6.3-6.3
				v-28.1c0-3.5,2.8-6.3,6.3-6.3h51.6v30.5h10.5v-30.5h46.3v-10.5h-46.3v-6.9c0-9.4-7.6-17-17-17h-84.1v-60H400z M435.1,583.1
				l-1.3,1c-12.9,10.1-26.4,19.7-33.9,25c-7.5-5.2-21-14.8-33.9-25l-1.2-0.9c-3.7-2.8-7.3-5.7-11-8.6h82.3
				c10.3,0,18.6-8.3,18.6-18.6s-8.3-18.6-18.6-18.6h-90.6c-4.8,0-8.8-3.9-8.8-8.8c0-4.8,3.9-8.8,8.8-8.8h144.3
				c-3,8.5-7.2,16.4-12.7,23.9C465.8,559.3,450.2,571.4,435.1,583.1z M493,509.2H345.6c-10.6,0-19.3,8.7-19.3,19.3
				c0,10.6,8.7,19.3,19.3,19.3h90.6c4.5,0,8.1,3.6,8.1,8.1c0,4.5-3.6,8.1-8.1,8.1h-94.7c-6.8-6.2-13.2-12.9-18.7-20.3
				c-12.7-17.5-18.7-36.9-18.7-61.1v-58.3h84.1c3.6,0,6.4,2.9,6.4,6.4v6.9h-51.6c-9.3,0-16.9,7.6-16.9,16.9v28.1
				c0,9.3,7.6,16.9,16.9,16.9h113c9.7,0,17.5-7.9,17.5-17.5v-74.5c0-9.7-7.9-17.5-17.5-17.5H343.5c-4.5,0-8.1-3.6-8.1-8.1
				c0-4.5,3.6-8.1,8.1-8.1h152.4v108.8C495.8,492.1,494.9,500.9,493,509.2z"/>
			<rect x="417.9" y="413.7" class="st0" width="28.1" height="10.5"/>
			<rect x="417.9" y="460.7" class="st0" width="28.1" height="10.5"/>
			<rect x="353.3" y="460.7" class="st0" width="28.1" height="10.5"/>
		</g>
	</g>
	<g>
		<g>
			<path class="st12" d="M184.1,517.2c0,0-4.9-17.2-6.3-22.8s-5.6-10.3-14.4-8.1c-8.8,2.1-23.9,7.1-29.1,8.8
				c-5.3,1.8-10.9,5.3-9.1,12.3c1.8,7,7.7,26.3,7.7,26.3l30.9-8.4l-4.6-18.6l-11.2,3.5l1.8,4.4l-9.8,3.7l-2.8-8.5l30.2-9.4l2.5,8.1
				l-3.9,1.3l3.9,12.7L184.1,517.2z"/>
			<path class="st0" d="M167.5,485.8c6,0,9.1,4,10.3,8.6c1.4,5.6,6.3,22.8,6.3,22.8l-14.4,5.3l-3.9-12.7l3.9-1.3l-2.5-8.1l-30.2,9.4
				l2.8,8.5l9.8-3.7l-1.8-4.4l11.2-3.5l4.6,18.6l-30.9,8.4c0,0-6-19.3-7.7-26.3c-1.8-7,3.9-10.5,9.1-12.3c5.3-1.8,20.4-6.7,29.1-8.8
				C164.9,485.9,166.2,485.8,167.5,485.8 M167.5,483.1c-1.5,0-3.1,0.2-4.7,0.6c-9.9,2.4-27.4,8.2-29.3,8.9
				c-11.8,3.9-11.9,11.4-10.9,15.4c1.8,7,7.5,25.7,7.8,26.5l0.8,2.4l2.5-0.7l30.9-8.4l2.5-0.7l-0.6-2.5l-4.6-18.6l-0.3-1.1l4-1.3
				l0.9,3.1l-1.4,0.5l-2.4,0.8l0.7,2.4l3.9,12.7l0.8,2.7l2.6-1l14.4-5.3l2.3-0.8l-0.7-2.4c0-0.2-4.9-17.2-6.3-22.7
				C178.6,487,173.9,483.1,167.5,483.1L167.5,483.1z M140.4,511.5l4.6-1.4l0.5,1.2l0.8,1.9l-4.7,1.8L140.4,511.5L140.4,511.5z"/>
		</g>
		<g>
			<path class="st12" d="M318.2,650c0,0-16.1-7.8-21.2-10.5c-5.1-2.7-11.4-2.6-15.6,5.3c-4.2,8-10.6,22.5-12.8,27.6
				s-3.3,11.6,3.1,15c6.4,3.4,24.8,11.8,24.8,11.8l14.3-28.7l-16.9-9l-4.9,10.7l4.4,1.6l-3.8,9.8l-8.2-3.6l13.1-28.8l7.7,3.5
				l-1.6,3.7l12.1,5.6L318.2,650z"/>
			<path class="st0" d="M291,637.9c2,0,4,0.6,5.9,1.6c5.1,2.7,21.2,10.5,21.2,10.5l-5.7,14.2l-12.1-5.6l1.6-3.7l-7.7-3.5l-13.1,28.8
				l8.2,3.6l3.8-9.8l-4.4-1.6l4.9-10.7l16.9,9l-14.3,28.7c0,0-18.4-8.4-24.8-11.8c-6.4-3.4-5.3-9.9-3.1-15s8.6-19.6,12.8-27.6
				C284,639.7,287.5,637.9,291,637.9 M291,635.2c-3.5,0-8.4,1.4-12,8.3c-4.8,9-12.1,25.9-12.9,27.8c-4.9,11.4,0.6,16.4,4.3,18.4
				c6.4,3.4,24.2,11.5,24.9,11.8l2.3,1.1l1.1-2.3l14.3-28.7l1.1-2.3l-2.3-1.2l-16.9-9l-1-0.5l1.8-3.9l2.9,1.4l-0.6,1.4l-1,2.3
				l2.3,1.1l12.1,5.6l2.5,1.2l1-2.6l5.7-14.2l0.9-2.3l-2.2-1.1c-0.2-0.1-16.1-7.8-21.1-10.5C295.8,635.9,293.4,635.2,291,635.2
				L291,635.2z M284.8,678.7l2-4.4l1.2,0.4l1.9,0.7l-1.8,4.7L284.8,678.7L284.8,678.7z"/>
		</g>
		<g>
			<path class="st12" d="M185.8,522.5l8.8,15.4l-37.2,21.8l3.9,7.7l37.2-20.4l9.5,15.1l-9.8,6.3l-2.5-3.5c0,0-22.1,12.3-27.7,15.4
				c-5.6,3.2-9.8,3.2-14.7-4.6c-4.9-7.7-6.3-12.6-8.4-16.5c-2.1-3.9-2.1-8.8,4.9-12.6s28.4-15.1,28.4-15.1l-2.1-3.5L185.8,522.5z"/>
			<path class="st0" d="M185.8,522.5l8.8,15.4l-37.2,21.8l3.9,7.7l37.2-20.4l9.5,15.1l-9.8,6.3l-2.5-3.5c0,0-22.1,12.3-27.7,15.4
				c-2.2,1.2-4.2,2-6.1,2c-3,0-5.7-1.8-8.7-6.5c-4.9-7.7-6.3-12.6-8.4-16.5c-2.1-3.9-2.1-8.8,4.9-12.6c7-3.9,28.4-15.1,28.4-15.1
				l-2.1-3.5L185.8,522.5 M186.8,518.9l-2.3,1.3l-9.8,5.6l-2.3,1.3l1.4,2.3l0.7,1.1c-5.8,3.1-20.5,10.8-26,13.8
				c-7.1,3.9-9.4,10-6,16.2c0.7,1.2,1.3,2.6,2,4.2c1.4,3.2,3.2,7.2,6.5,12.5c2.1,3.3,5.6,7.8,10.9,7.8c2.2,0,4.5-0.7,7.3-2.3
				c4.5-2.5,20-11.2,25.6-14.3l1.1,1.6l1.5,2.1l2.1-1.4l9.8-6.3l2.2-1.4l-1.4-2.2l-9.5-15.1l-1.3-2.1l-2.2,1.2l-34.8,19.1l-1.5-3.1
				l35.1-20.5l2.2-1.3l-1.3-2.3l-8.8-15.4L186.8,518.9L186.8,518.9z"/>
		</g>
		<g>
			<path class="st12" d="M232.3,592L217,574.4l-36.5,22.1l-2.7-3.2l-9.7,7.4l11.8,14l10.5-7.9l6.3,7.1l-9.5,10l11.8,12.9l8.9-7.4
				l-3.6-3.4L232.3,592z M198.8,601.2l17.9-11.3l-13.4,16.6L198.8,601.2z"/>
			<path class="st0" d="M217,574.4l15.3,17.6l-27.9,34l3.6,3.4l-8.9,7.4l-11.8-12.9l9.5-10l-6.3-7.1l-10.5,7.9l-11.8-14l9.7-7.4
				l2.7,3.2L217,574.4 M203.3,606.5l13.4-16.6l-17.9,11.3L203.3,606.5 M217.5,571l-1.9,1.2l-34.6,21l-1.3-1.5l-1.6-1.9l-2,1.5
				l-9.7,7.4l-2.2,1.7l1.8,2.1l11.8,14l1.6,1.9l2-1.5l8.6-6.4l3.1,3.5l-7.8,8.3l-1.7,1.8l1.7,1.8l11.8,12.9l1.7,1.8l1.9-1.6l8.9-7.4
				l2.3-1.9l-2.1-2l-1.8-1.7l26.4-32.1l1.4-1.7l-1.5-1.7L219,572.6L217.5,571L217.5,571z M202.8,601.8l1.8-1.2l-1.4,1.7L202.8,601.8
				L202.8,601.8z"/>
		</g>
		<g>
			<polygon class="st12" points="242.3,603.1 235.2,612.5 238.7,615.2 219.9,640.2 216.7,637.6 209.6,647 223.3,657.3 239.4,636.8 
				234.6,665.7 248.6,676 255.7,666.8 252.3,664.4 271,639.5 274.1,641.8 281.8,633.1 267.6,621.9 251.2,643.4 256.2,613.9 			"/>
			<path class="st0" d="M242.3,603.1l14,10.8l-5,29.5l16.3-21.5l14.2,11.2l-7.6,8.7l-3.2-2.2l-18.7,24.9l3.4,2.4l-7.1,9.2l-14-10.3
				l4.7-29l-16.1,20.5L209.6,647l7.1-9.5l3.2,2.6l18.8-25l-3.6-2.6L242.3,603.1 M241.8,599.4l-1.6,2.1l-7.1,9.5l-1.6,2.1l2.1,1.6
				l1.4,1.1l-15.6,20.7l-1-0.9l-2.1-1.8l-1.7,2.2l-7.1,9.5l-1.6,2.1l2.1,1.6l13.7,10.3l2.1,1.5l1.6-2l9.7-12.4l-3.1,18.8l-0.3,1.6
				l1.3,1l14,10.3l2.1,1.5l1.6-2l7.1-9.2l1.7-2.2l-2.3-1.6l-1.2-0.8l15.5-20.6l1.1,0.8l1.9,1.4l1.6-1.8l7.6-8.7l1.8-2.1l-2.2-1.7
				l-14.2-11.2l-2.1-1.7l-1.6,2.1l-9.8,13l3.2-18.9l0.3-1.6l-1.2-1l-14-10.8L241.8,599.4L241.8,599.4z"/>
		</g>
		<g>
			<path class="st12" d="M624.5,487.7c0,0-5.6,17-7.6,22.4c-2,5.4-1.1,11.6,7.4,14.8c8.5,3.1,23.7,7.5,29.1,9
				c5.3,1.5,12,1.7,14.4-5.1c2.5-6.8,8.4-26.1,8.4-26.1l-30.3-10.3l-6.7,18l11.3,3.4l1-4.6l10.2,2.5l-2.5,8.6l-30.3-9.2l2.5-8.1
				l3.9,1.1l4-12.7L624.5,487.7z"/>
			<path class="st0" d="M624.5,487.7l14.9,3.7l-4,12.7l-3.9-1.1l-2.5,8.1l30.3,9.2l2.5-8.6l-10.2-2.5l-1,4.6l-11.3-3.4l6.7-18
				l30.3,10.3c0,0-5.9,19.3-8.4,26.1c-1.6,4.5-5.1,5.9-8.8,5.9c-1.9,0-3.8-0.4-5.6-0.9c-5.3-1.5-20.6-5.9-29.1-9
				c-8.5-3.1-9.4-9.4-7.4-14.8C618.9,504.7,624.5,487.7,624.5,487.7 M622.8,484.5l-0.8,2.3c-0.1,0.2-5.6,17-7.5,22.4
				c-3,8.2,0.3,15,8.9,18.2c9.6,3.6,27.3,8.6,29.3,9.1c2.3,0.6,4.4,1,6.3,1c5.5,0,9.5-2.7,11.3-7.7c2.5-6.8,8.2-25.5,8.4-26.3
				l0.7-2.4l-2.4-0.8l-30.3-10.3l-2.4-0.8l-0.9,2.4l-6.7,18l-0.4,1.1l-4.1-1.2l1-3.1l1.5,0.4l2.5,0.7l0.8-2.4l4-12.7l0.8-2.7
				l-2.7-0.7l-14.9-3.7L622.8,484.5L622.8,484.5z M652.8,515.6l0.3-1.2l0.4-2l4.9,1.2l-1,3.4L652.8,515.6L652.8,515.6z"/>
		</g>
		<g>
			<polygon class="st12" points="578.1,581.5 588,588 590.4,584.3 616.6,601.3 614.2,604.7 624.2,611.1 633.5,596.8 611.9,582.1 
				641.1,584.9 650.4,570.3 640.7,563.8 638.6,567.4 612.5,550.4 614.5,547.1 605.3,540.1 595.1,555 617.7,569.9 587.9,566.9 			"/>
			<path class="st0" d="M605.3,540.1l9.2,7l-2,3.3l26.1,17l2.1-3.6l9.7,6.5l-9.3,14.6l-29.2-2.8l21.6,14.6l-9.3,14.4l-9.9-6.4
				l2.4-3.3l-26.2-17.1L588,588l-9.9-6.4l9.8-14.7l29.8,3L595.1,555L605.3,540.1 M604.7,536.3l-1.6,2.3l-10.2,15l-1.5,2.2l2.2,1.5
				l13.6,8.9l-19.1-1.9l-1.6-0.2l-0.9,1.3l-9.8,14.7l-1.5,2.2l2.2,1.5l9.9,6.4l2.2,1.4l1.4-2.2l1-1.5l21.7,14.1l-0.8,1.1l-1.6,2.2
				l2.3,1.5l9.9,6.4l2.2,1.4l1.4-2.2l9.3-14.4l1.4-2.2l-2.1-1.4l-13.1-8.9l19,1.8l1.6,0.2l0.9-1.4l9.3-14.6l1.4-2.2l-2.1-1.4
				l-9.7-6.5l-2.3-1.5l-1.4,2.4l-0.7,1.2l-21.7-14.1l0.7-1.1l1.2-2l-1.9-1.4l-9.2-7L604.7,536.3L604.7,536.3z"/>
		</g>
		<g>
			<path class="st12" d="M536.2,672.8c-2.5-5.3-12.3-26.7-14.7-31.6c-2.5-4.9-7.7-6.9-15.8-3.3c-8.1,3.6-26,12.4-26,12.4l4.6,10.2
				l3.9-1.4l13.7,28.1l-4.2,2.5l5.6,9.6c0,0,25.6-11.3,29.1-13.4C535.9,683.6,538.7,678,536.2,672.8z M515.5,681.9L501.1,652
				l7.7-3.2l14.7,28.1L515.5,681.9z"/>
			<path class="st0" d="M513.2,636c3.9,0,6.7,2,8.3,5.1c2.5,4.9,12.3,26.3,14.7,31.6c2.5,5.3-0.4,10.9-3.9,13
				c-3.5,2.1-29.1,13.4-29.1,13.4l-5.6-9.6l4.2-2.5l-13.7-28.1l-3.9,1.4l-4.6-10.2c0,0,17.9-8.8,26-12.4
				C508.5,636.6,511,636,513.2,636 M515.5,681.9l8.1-4.9l-14.7-28.1l-7.7,3.2L515.5,681.9 M513.2,633.4c-2.6,0-5.5,0.7-8.6,2.1
				c-8,3.6-25.9,12.4-26.1,12.5l-2.3,1.1l1,2.3l4.6,10.2l1,2.2l2.3-0.8l1.6-0.6l11.6,23.8l-2.1,1.2l-2.3,1.3l1.3,2.3l5.6,9.6l1.2,2
				l2.1-0.9c2.6-1.2,25.9-11.5,29.4-13.6c4.7-2.8,7.9-9.9,4.9-16.4c-0.6-1.4-1.8-3.9-3.2-6.9c-3.9-8.4-9.7-21.1-11.6-24.7
				C521.7,635.7,517.9,633.4,513.2,633.4L513.2,633.4z M504.7,653.4l2.9-1.2l12.5,23.8l-3.5,2.1L504.7,653.4L504.7,653.4z"/>
		</g>
		<g>
			<path class="st12" d="M591.3,628.2c-4.9-6.3-18.3-20.7-21.4-24.6c-3.2-3.9-12.3-2.8-15.4,0c-3.2,2.8-6,5.5-6,5.5s-3.5,3-7,6.5
				c-3.5,3.5-3.2,8.8,2.8,15.4c6,6.7,18.6,21.4,22.1,24.6c3.5,3.2,9.1,1.8,13.3-1.8c4.2-3.5,9.1-8.1,11.9-10.9
				C594.5,640.1,596.3,634.5,591.3,628.2z M574.5,644l-21.4-24.2l6.6-6l21.4,24.2L574.5,644z"/>
			<path class="st0" d="M562.9,601.1c2.8,0,5.6,0.7,7,2.5c3.2,3.9,16.5,18.3,21.4,24.6c4.9,6.3,3.2,11.9,0.4,14.7
				c-2.8,2.8-7.7,7.4-11.9,10.9c-2.6,2.2-5.7,3.5-8.5,3.5c-1.8,0-3.5-0.5-4.8-1.8c-3.5-3.2-16.1-17.9-22.1-24.6
				c-6-6.7-6.3-11.9-2.8-15.4c3.5-3.5,7-6.5,7-6.5s2.8-2.6,6-5.5C556.2,602.1,559.6,601.1,562.9,601.1 M574.5,644l6.7-6l-21.4-24.2
				l-6.6,6L574.5,644 M562.9,598.4c-4,0-8,1.2-10.2,3.2c-2.9,2.6-5.6,5.1-6,5.5c-0.5,0.4-3.8,3.2-7.1,6.6
				c-6.8,6.8-0.4,15.6,2.7,19.1c1.7,1.9,4,4.5,6.3,7.2c6.3,7.1,13.3,15.2,16,17.6c1.8,1.6,4,2.4,6.6,2.4c3.3,0,7.1-1.5,10.2-4.1
				c4.4-3.7,9.4-8.3,12.1-11c3.9-3.9,5.4-11.1-0.1-18.2c-3.1-3.9-9.3-10.9-14.4-16.6c-3.2-3.5-5.9-6.6-7.1-8.1
				C570.1,599.7,566.9,598.4,562.9,598.4L562.9,598.4z M556.8,620l2.7-2.4l17.9,20.3l-2.7,2.5L556.8,620L556.8,620z"/>
		</g>
	</g>
	<g>
		<path class="st0" d="M360.5,706.5l-24.6-3.4c0.6-2.4,1.8-4.5,3.5-6.5c1.7-1.9,4.7-4.1,9.1-6.5c2.6-1.5,4.4-2.6,5.2-3.4
			c0.8-0.8,1.3-1.7,1.4-2.5c0.1-0.9-0.1-1.7-0.7-2.4c-0.6-0.7-1.4-1.2-2.4-1.3c-1-0.1-1.9,0.1-2.7,0.6c-0.8,0.6-1.4,1.7-1.8,3.3
			l-8.1-1.8c0.6-2.3,1.5-4,2.5-5.2c1-1.2,2.4-2,4-2.5c1.7-0.5,3.9-0.5,6.6-0.1c2.9,0.4,5.1,1,6.6,1.9s2.6,2.1,3.4,3.5
			c0.7,1.5,1,3.1,0.7,4.8c-0.2,1.8-1,3.4-2.3,4.9c-1.3,1.5-3.4,3-6.5,4.6c-1.8,0.9-3,1.6-3.6,1.9c-0.6,0.4-1.4,0.9-2.2,1.5l12.8,1.8
			L360.5,706.5z"/>
		<path class="st0" d="M370.4,694.2c0-5.7,1-9.6,3.1-11.9c2-2.3,5.1-3.4,9.3-3.4c2,0,3.6,0.2,4.9,0.7c1.3,0.5,2.3,1.1,3.1,1.9
			s1.5,1.6,1.9,2.5c0.5,0.9,0.8,1.9,1.1,3.1c0.6,2.2,0.8,4.5,0.8,6.9c0,5.4-0.9,9.3-2.7,11.8c-1.8,2.5-5,3.8-9.4,3.8
			c-2.5,0-4.5-0.4-6.1-1.2c-1.5-0.8-2.8-2-3.8-3.5c-0.7-1.1-1.3-2.6-1.7-4.5S370.4,696.5,370.4,694.2z M378.6,694.3
			c0,3.8,0.3,6.4,1,7.8s1.6,2.1,2.9,2.1c0.8,0,1.6-0.3,2.2-0.9c0.6-0.6,1.1-1.5,1.4-2.8c0.3-1.3,0.4-3.3,0.4-5.9c0-3.9-0.3-6.6-1-8
			c-0.7-1.4-1.7-2-3-2c-1.4,0-2.4,0.7-3,2.1C378.9,687.9,378.6,690.5,378.6,694.3z"/>
		<path class="st0" d="M421.1,679.2v30.3h-8.4v-19.8c-1.4,1-2.7,1.9-3.9,2.5s-2.9,1.2-4.8,1.8v-6.8c2.8-0.9,5-2,6.6-3.3
			c1.6-1.3,2.8-2.8,3.7-4.7H421.1z"/>
		<path class="st0" d="M459.7,704l-24.6,3.4c-0.1-2.5,0.5-4.9,1.6-7.2c1.1-2.3,3.5-5.2,7-8.7c2.2-2.1,3.5-3.7,4-4.7
			c0.5-1,0.8-1.9,0.6-2.8c-0.1-0.9-0.6-1.6-1.3-2.2s-1.6-0.7-2.6-0.6c-1,0.1-1.9,0.6-2.4,1.3s-0.9,2-0.9,3.7l-8.3,0.5
			c0-2.3,0.3-4.2,1-5.6c0.7-1.4,1.8-2.6,3.2-3.5c1.5-0.9,3.6-1.5,6.3-1.9c2.9-0.4,5.2-0.4,6.9,0.1c1.7,0.4,3.1,1.3,4.2,2.5
			c1.1,1.2,1.8,2.7,2,4.4c0.2,1.8,0,3.6-0.9,5.4c-0.8,1.8-2.5,3.8-5,6.2c-1.5,1.4-2.5,2.3-3,2.8c-0.5,0.5-1.1,1.2-1.7,2.1l12.8-1.8
			L459.7,704z"/>
	</g>
	<g>
		<path class="st13" d="M225.6,632.7l-5.7,7.5l-3.2-2.6l-7.1,9.5l13.7,10.3l12.5-16C232.4,638.5,228.9,635.6,225.6,632.7z"/>
		<path class="st13" d="M210.6,618.4c-8.1-8.3-15.7-17.1-22.6-26.5l-7.5,4.5l-2.7-3.2l-9.7,7.4l11.8,14l10.5-7.9l6.3,7.1l-9.5,10
			l11.8,12.9l8.9-7.4l-3.6-3.4L210.6,618.4z"/>
		<path class="st13" d="M257.9,657c-6.7-4.3-13.3-8.9-19.5-13.8l-3.7,22.5l14,10.3l7.1-9.2l-3.4-2.4L257.9,657z"/>
		<path class="st13" d="M148.3,515.1l-8.5,3.2l-2.8-8.5l8.8-2.7c-1.4-4.8-2.6-9.6-3.7-14.5c-3.3,1.1-6.2,2-7.9,2.6
			c-5.3,1.8-10.9,5.3-9.1,12.3c1.8,7,7.7,26.3,7.7,26.3l20.1-5.5C151.3,523.9,149.7,519.5,148.3,515.1z"/>
		<path class="st13" d="M169.2,563.1l-8,4.4l-3.9-7.7l7.6-4.5c-2.3-4.4-4.4-8.8-6.4-13.3c-3.6,1.9-6.9,3.7-8.9,4.8
			c-7,3.9-7,8.8-4.9,12.6c2.1,3.9,3.5,8.8,8.4,16.5c4.9,7.7,9.1,7.7,14.7,4.6c1.7-1,5-2.8,8.7-4.9
			C174.1,571.5,171.6,567.3,169.2,563.1z"/>
		<path class="st13" d="M292.6,675.6l-3.1,8l-8.2-3.6l3.6-8c-4.5-2.2-8.9-4.5-13.3-6.9c-1.3,3-2.5,5.6-3.2,7.2
			c-2.2,5.1-3.3,11.6,3.1,15c6.4,3.4,24.8,11.8,24.8,11.8l9.1-18.2C301.1,679.3,296.8,677.5,292.6,675.6z"/>
		<path class="st13" d="M638.6,567.4l-7.5-4.9c-3.9,7-8,13.7-12.5,20.3l22.5,2.1l9.3-14.6l-9.7-6.5L638.6,567.4z"/>
		<path class="st13" d="M657,496.2c-1.1,4.5-2.3,9-3.6,13.4l8.3,2l-2.5,8.6l-8.4-2.6c-1.6,4.7-3.3,9.4-5.1,14
			c3.2,0.9,5.9,1.7,7.7,2.2c5.3,1.5,12,1.7,14.4-5.1c2.5-6.8,8.4-26.1,8.4-26.1L657,496.2z"/>
		<path class="st13" d="M531.8,663.2c-3.9,2.3-8,4.4-12,6.5l3.8,7.2l-8.1,4.9l-3.9-8.1c-4.4,2.1-8.9,4-13.5,5.8l3.7,7.6l-4.2,2.5
			l5.6,9.6c0,0,25.6-11.3,29.1-13.4c3.5-2.1,6.3-7.7,3.9-13C535.4,671,533.7,667.4,531.8,663.2z"/>
		<path class="st13" d="M586,621.8c-3.4,3.4-6.9,6.6-10.5,9.8l5.6,6.3l-6.7,6l-5.7-6.5c-3.6,3-7.3,5.9-11.1,8.7
			c3.8,4.3,7.1,7.9,8.7,9.4c3.5,3.2,9.1,1.8,13.3-1.8c4.2-3.5,9.1-8.1,11.9-10.9c2.8-2.8,4.6-8.4-0.4-14.7
			C590,626.5,588.2,624.3,586,621.8z"/>
		<path class="st13" d="M608.8,596.2l7.9,5.1l-2.4,3.3l9.9,6.4l9.3-14.4l-16.7-11.3C614.2,589.1,611.5,592.7,608.8,596.2z"/>
	</g>
</g>
</svg>
