<?xml version="1.0" encoding="utf-8"?>
<!-- Generator: Adobe Illustrator 22.1.0, SVG Export Plug-In . SVG Version: 6.00 Build 0)  -->
<svg version="1.1" id="图层_1" xmlns="http://www.w3.org/2000/svg" xmlns:xlink="http://www.w3.org/1999/xlink" x="0px" y="0px"
	 viewBox="0 0 800 800" style="enable-background:new 0 0 800 800;" xml:space="preserve">
<style type="text/css">
	.st0{fill:#C20D22;}
</style>
<g>
	<path class="st0" d="M691.4,302.4c-2.6,2.4-5.6,4.6-8.8,6.5c0.4,0.9,0.8,1.7,1.1,2.6c16.1,38,24.2,78.3,24.2,119.9
		c0,41.6-8.1,81.9-24.2,119.9c-15.5,36.7-37.7,69.6-66,97.9s-61.2,50.5-97.9,66c-38,16.1-78.3,24.2-119.9,24.2
		c-41.6,0-81.9-8.1-119.9-24.2c-36.7-15.5-69.6-37.7-97.9-66c-28.3-28.3-50.5-61.2-66-97.9c-16.1-38-24.2-78.3-24.2-119.9
		c0-41.6,8.1-81.9,24.2-119.9c0.4-1,0.8-1.9,1.2-2.9c-3.1-1.9-6.1-4.1-8.7-6.6c-17.6,39.5-27.4,83.3-27.4,129.3
		C81.4,607.3,224,750,400,750s318.6-142.7,318.6-318.6C718.6,385.4,708.9,341.8,691.4,302.4z"/>
	<path class="st0" d="M275.1,149.7c-2.6-3-4.9-5.9-6.8-8.6c-32.6,14.8-62.2,34.9-87.8,59.3l5.7,9.3
		C212.2,184.5,242.1,164.4,275.1,149.7z"/>
	<path class="st0" d="M524.9,149.7c33,14.6,62.8,34.8,88.9,60l5.7-9.3c-25.6-24.3-55.2-44.4-87.7-59.2
		C529.9,143.9,527.6,146.8,524.9,149.7z"/>
	<path class="st0" d="M348,118l2.9,7.7c3.2,1.6,23.1,18.1,23.1,18.1C362.8,124.4,348,118,348,118z"/>
	<path class="st0" d="M449.1,125.7l2.9-7.7c0,0-14.9,6.4-26,25.8C426,143.8,445.9,127.3,449.1,125.7z"/>
	<path class="st0" d="M386.5,87.8c9.8,1.6,9,7.7,9,7.7c-28.9-6.1-32.1,15.4-32.1,15.4c10.4-13.5,27.1-11.7,31.3-11.2
		s3.2,4.5,3.2,4.5C375.3,102.4,370,117,370,117c11.7-10.8,22.6-8.8,25-7.5c2.4,1.3,1.6,8-0.3,9.3c-1.9,1.3-5.6,3.7-9,5.3
		c-3.5,1.6-4.5,6.1-4.5,6.1c-2.7-4-11.7-4.2-11.7-4.2c10.6,7.4,21,28.4,21,28.4s0.8-4.8,1.1-12.7c0.3-8-1.6-6.6-2.9-10.6
		c-1.3-4,2.7-6.6,5.6-7.7c2.9-1.1,4.4-3.9,4.4-3.9c0-10.1,1.4-8.3,1.4-8.3s1.4-1.8,1.4,8.3c0,0,1.5,2.8,4.4,3.9
		c2.9,1.1,6.9,3.7,5.6,7.7c-1.3,4-3.2,2.7-2.9,10.6c0.3,8,1.1,12.7,1.1,12.7s10.4-21,21-28.4c0,0-9,0.3-11.7,4.2
		c0,0-1.1-4.5-4.5-6.1c-3.5-1.6-7.2-4-9-5.3c-1.9-1.3-2.7-8-0.3-9.3c2.4-1.3,13.3-3.3,25,7.5c0,0-5.3-14.7-27.9-12.8
		c0,0-1.1-4,3.2-4.5s21-2.4,31.3,11.2c0,0-3.2-21.5-32.1-15.4c0,0-0.8-6.1,9-7.7s21.8-1.2,37.4,8.7c0,0-26.2-28.3-51-11.3
		c-24.8-17-51,11.3-51,11.3C364.7,86.5,376.6,86.2,386.5,87.8z"/>
	<path class="st0" d="M101.5,265.3c2.8,2.5,9.6,8.5,9.6,8.5c-8.1,18.4-2.8,18.8-1.4,20.5c1.4,1.8,6.4,6.7,13.8,12
		c7.4,5.3,17.7,0.4,17.7,0.4l-6-5l3.5-5.3c0,0,2.8,1.8,6.7,5c3.9,3.2,12.7,2.5,12.7,2.5s10.3,10.6,16.6,19.1
		c6.4,8.5,9.9,18.8,13.8,27.6c3.9,8.9,8.5,19.8,15.6,31.2c4.1,6.6,8.5,12.1,11.4,15.6h-27l21.2,31.3L188.6,460h59.7
		c-9.4,7.5-12.5,18.5-10.7,28.5c0-0.2-0.1-0.3-0.1-0.5c0,0.2,0,0.5,0,0.7v47.8c0,15.8,12.8,28.7,28.7,28.7h35.6
		c9.5,12.5,21,23.8,34.1,33.6C375.6,628.6,400,647,400,647s24.4-18.4,64.1-48.2c13.1-9.8,24.6-21.2,34.1-33.6h35.6
		c15.8,0,28.7-12.8,28.7-28.7v-47.8c0-0.2,0-0.5,0-0.7c0,0.2-0.1,0.3-0.1,0.5c1.8-10-1.3-20.9-10.7-28.5h59.7l-21.2-31.3l21.2-31.3
		h-27c2.9-3.5,7.3-9,11.4-15.6c7.1-11.3,11.7-22.3,15.6-31.2c3.9-8.9,7.4-19.1,13.8-27.6c6.4-8.5,16.6-19.1,16.6-19.1
		s8.9,0.7,12.7-2.5c3.9-3.2,6.7-5,6.7-5l3.5,5.3l-6,5c0,0,10.3,5,17.7-0.4c7.4-5.3,12.4-10.3,13.8-12c1.4-1.8,6.7-2.1-1.4-20.5
		c0,0,6.7-6,9.6-8.5s1.8-6.4,0.7-13.8s-3.5-12.7-13.8-17.7c0,0,5.7-7.1,2.1-14.2c-3.5-7.1-7.8-12.4-11.7-16.3
		c-3.9-3.9-10.7-0.3-13.9,1.8c-3.2,2.1-9.1,5.7-9.1,5.7s-3.4-13.5-12.2-14.7c-7.6-1-13.4,1.5-15.9,6.4c-2.5,5-3.5,11-3.5,11
		s-4.3,1.8-12.1,13.5c0,0-6.7-2.1-12.4,0.7c-5.7,2.8-9.9,5.7-9.2,11.7s4.2,8.9,4.2,8.9s1.8,7.4-5,11c-6.7,3.5-9.2,5-11.7,6.4
		c-2.5,1.4-5,2.5-5,5.7c0,0-13.8,0.7-28,13.8l-14.9-9.6c0,0-6-15.2-18.4-25.8c0,0,16.3-15.2,19.5-30.8c3.2-15.6-2.5-30.1-6.7-34.3
		c-4.2-4.2-13.1-8.9-13.1-8.9s21.2,3.2,30.8-3.2c0,0-13.1-6-19.5-9.2c-6.4-3.2-11.3-6.7-11.3-6.7s19.5-11.7,24.4-31.5
		c0,0-14.9,8.9-25.5,5c-10.6-3.9-15.6-9.6-16.6-11.3c0,0,9.6-15.9,10.6-29.7c1.1-13.8-0.4-30.8-10.6-38.9c-5.3-0.7-12,6-17,9.2
		c-5,3.2-13.8,6.4-22.3,7.8c-4.2,0.8-6.3,6.1-6.3,6.1s-8.8-6.6-19.6-6.1s-18.3,5.6-18.3,5.6l-7.4-0.2l-7.4,0.2c0,0-7.4-5-18.3-5.6
		s-19.6,6.1-19.6,6.1s-2.1-5.3-6.3-6.1c-8.5-1.4-17.3-4.6-22.3-7.8c-5-3.2-11.7-9.9-17-9.2c-10.3,8.1-11.7,25.1-10.6,38.9
		c1.1,13.8,10.6,29.7,10.6,29.7c-1.1,1.8-6,7.4-16.6,11.3c-10.6,3.9-25.5-5-25.5-5c5,19.8,24.4,31.5,24.4,31.5s-5,3.5-11.3,6.7
		c-6.4,3.2-19.5,9.2-19.5,9.2c9.6,6.4,30.8,3.2,30.8,3.2s-8.9,4.6-13.1,8.9c-4.2,4.2-9.9,18.8-6.7,34.3
		c3.2,15.6,19.5,30.8,19.5,30.8c-12.4,10.6-18.4,25.8-18.4,25.8l-14.9,9.6c-14.2-13.1-28-13.8-28-13.8c0-3.2-2.5-4.2-5-5.7
		c-2.5-1.4-5-2.8-11.7-6.4c-6.7-3.5-5-11-5-11s3.5-2.8,4.2-8.9s-3.5-8.9-9.2-11.7c-5.7-2.8-12.4-0.7-12.4-0.7
		c-7.8-11.7-12.1-13.5-12.1-13.5s-1-6-3.5-11c-2.5-5-8.3-7.5-15.9-6.4c-8.8,1.2-12.2,14.7-12.2,14.7s-5.9-3.6-9.1-5.7
		c-3.2-2.1-10-5.7-13.9-1.8c-3.9,3.9-8.1,9.2-11.7,16.3c-3.5,7.1,2.1,14.2,2.1,14.2c-10.3,5-12.7,10.3-13.8,17.7
		S98.7,262.8,101.5,265.3z M106.7,264.3c0,0,0.2-5.8,1.6-7.3c0,0,5.7-0.5,8.7,8.1c3,8.7,5.3,11.3,5.3,11.3s-4.8-0.2-9.4-4.2
		C108.3,268.1,106.7,264.3,106.7,264.3z M117.1,296.5c-1.6-1.9-0.9-8.3-0.2-10.4c0.7-2.1,4.1-0.4,5.3,3.9c1.2,4.2,2.5,7.6,4.2,9.4
		c1.8,1.8,3.5,3.9,5.1,4.2c1.6,0.4,1.8,1.4,1.8,1.4S126,307.1,117.1,296.5z M204.7,451.5l12.2-18.1l3.2-4.8l-3.2-4.8l-12.2-18.1
		h66.8c0,3.5,0,7.1,0,10.6h-40.9c-2.3,0-4.2,1.9-4.2,4.2s1.9,4.2,4.2,4.2h40.9c0,2.7,0,5.3,0,8h-40.9c-2.3,0-4.2,1.9-4.2,4.2
		s1.9,4.2,4.2,4.2h40.9c0,3.4,0,6.8,0,10.1H204.7z M254.2,466.1l8.2-6.1h9c0,6.8,0,13,0,18.4c0,8.9,0.9,17.7,2.6,26.2c0,0,0,0,0,0
		h-7c-11.4,0-17.9-7.6-20.3-14.6C244.4,482.9,245.1,472.9,254.2,466.1z M266.2,556.7c-11.1,0-20.2-9-20.2-20.2v-31.9
		c5.1,5.2,12.3,8.5,21,8.5h9v0c0.8,2.9,1.6,5.7,2.5,8.5c0,0,0,0,0,0h-2.3c-2.3,0-4.2,1.9-4.2,4.2s1.9,4.2,4.2,4.2h5.4
		c1.2,2.9,2.4,5.7,3.8,8.5c0,0,0,0,0,0c-2.2,0.2-3.9,2-3.9,4.2c0,2.3,1.9,4.2,4.2,4.2h4.1c1.8,3.2,3.8,6.4,5.8,9.6H266.2z M459,592
		c-28.9,21.6-49.8,37.4-59,44.3c-9.2-6.9-30.1-22.7-59-44.3c-38.8-29.1-61-70.5-61-113.6V328.3h120h120v150.1
		C520,521.5,497.8,562.9,459,592z M400,225.6l10.4-5.1c0,0,5.8-2.1,5.6,1.6c-0.3,3.7-1.3,6.4-4.5,10.4c0,0,0.3-7.4-4.8-4.8
		c-1.5,1-6.6,1.1-6.6,1.1s-5.1-0.1-6.6-1.1c-5-2.7-4.8,4.8-4.8,4.8c-3.2-4-4.2-6.6-4.5-10.4c-0.3-3.7,5.6-1.6,5.6-1.6L400,225.6z
		 M394,199.5c-3.2,0-6.4-5-6.4-5s4.3,3.1,5.8,3.1s6.6,0,6.6,0s5.2,0,6.6,0s5.8-3.1,5.8-3.1s-3.2,5-6.4,5s-6,0-6,0
		S397.2,199.5,394,199.5z M386.4,231.1c4.4,9,13.6,7.4,13.6,7.4s9.2,1.7,13.6-7.4c0,0-3.4,15,8.5,23c0,0-3.2,16.8-22.1,16.8
		s-22.1-16.8-22.1-16.8C389.7,246.2,386.4,231.1,386.4,231.1z M422,226.4c-0.5-1.3-0.6-3.3-0.6-3.3s2.7,3.7,9,3.4
		c0,0,0.1,9.2-1.8,12.9c-1.9,3.7-3.7,8-6.4,10.4C422.3,249.7,422.6,227.7,422,226.4z M421.5,262.5c0,0-3.5,21-21.5,21
		s-21.5-21-21.5-21c12.4,14.9,21.5,13,21.5,13S409.2,277.2,421.5,262.5z M378,226.4c-0.5,1.3-0.3,23.4-0.3,23.4
		c-2.7-2.4-4.5-6.6-6.4-10.4c-1.9-3.7-1.8-12.9-1.8-12.9c6.3,0.4,9-3.4,9-3.4S378.5,225,378,226.4z M372.6,282.9
		c-0.2-2.1-0.5-4-0.9-5.9c8.6,17.1,28.2,19.7,28.2,19.7s19.6-2.6,28.2-19.7c-0.3,1.9-0.6,3.8-0.9,5.9c-0.3,6.1,2.9,11.9,4.8,14.9
		s2.1,11.7-6.9,19.9c0,0,0-10.4-6.4-14.6c0,0,1.9,9.4-1.2,16.7H400h-17.6c-3.1-7.3-1.2-16.7-1.2-16.7c-6.4,4.2-6.4,14.6-6.4,14.6
		c-9-8.2-8.8-17-6.9-19.9S372.9,289,372.6,282.9z M554,536.5c0,11.1-9,20.2-20.2,20.2h-29.6c2.1-3.1,4-6.3,5.8-9.6h4.1
		c2.3,0,4.2-1.9,4.2-4.2c0-2.2-1.7-4-3.9-4.2c1.4-2.8,2.6-5.7,3.8-8.5h5.4c2.3,0,4.2-1.9,4.2-4.2s-1.9-4.2-4.2-4.2h-2.3c0,0,0,0,0,0
		c0.9-2.8,1.8-5.6,2.5-8.5h9c8.7,0,15.9-3.4,21-8.5V536.5z M553.3,490c-2.3,7.1-8.9,14.6-20.3,14.6h-7c0,0,0,0,0,0
		c1.7-8.6,2.6-17.3,2.6-26.2c0-5.4,0-11.6,0-18.4h9l8.2,6.1C554.9,472.9,555.6,482.9,553.3,490z M595.3,405.9l-12.2,18.1l-3.2,4.8
		l3.2,4.8l12.2,18.1h-66.8c0-3.3,0-6.6,0-10.1h40.9c2.3,0,4.2-1.9,4.2-4.2s-1.9-4.2-4.2-4.2h-40.9c0-2.6,0-5.3,0-8h40.9
		c2.3,0,4.2-1.9,4.2-4.2s-1.9-4.2-4.2-4.2h-40.9c0-3.5,0-7.1,0-10.6H595.3z M682.9,296.5c-8.9,10.6-16.3,8.5-16.3,8.5
		s0.2-1.1,1.8-1.4c1.6-0.4,3.4-2.5,5.1-4.2c1.8-1.8,3-5.1,4.2-9.4c1.2-4.2,4.6-6,5.3-3.9C683.8,288.1,684.5,294.5,682.9,296.5z
		 M687.1,272.2c-4.6,4.1-9.4,4.2-9.4,4.2s2.3-2.7,5.3-11.3c3-8.7,8.7-8.1,8.7-8.1c1.4,1.6,1.6,7.3,1.6,7.3S691.7,268.1,687.1,272.2z
		 M693.9,245c1.3,5,5.8,14.1,0.5,19.4c0,0,0.3-7.7-1.3-13c0,0-5.3,2.7-7.7,4.5c-2.4,1.9-4.5,4.5-4,8c0,0-4.2-1.1-5-8
		c-0.8-6.9-1.3-9.6,1.1-10.9c2.4-1.3,3.7-6.9,3.5-8.2C680.7,235.4,692.6,239.9,693.9,245z M671.4,246.8c0-8-1.6-17.3-1.6-17.3
		c1.9-1.6,5.8-8.8,5.8-8.8c2.4,1.1,2.9,15.9,2.9,15.9L671.4,246.8z M653.9,213.9c2.8-2.3,13.5-6.6,17-8.5
		c3.5-1.9,10.1,7.4,11.4,12.2c1.3,4.8,3.5,8.8-1.1,14.1c0,0,0-12.2-5.6-17.8c0,0-6.1,6.6-8,10.4c-1.9,3.7,0,13.8,0,13.8
		s-11.4-14.9-13-17.3C653.1,218.4,652.5,215,653.9,213.9z M663.7,238.6l-9.6,18.9l-1.5-1.1l6-23.9L663.7,238.6z M655.2,235.7
		c-1.1,9.8-6.4,20.2-6.4,20.2c1.1-11.4-6.1-21-6.1-21l2.9-16.2C645.6,218.7,656,228.2,655.2,235.7z M539.1,324.1
		c0,0,6.4-47,31.1-46.7c0,0-1.9,15.7,9.8,26c11.7,10.4,14.1,10.6,14.1,10.6s-13-17.3-14.6-24.4s-2.4-17.5,0.5-20.4
		c2.9-2.9,6.4-2.4,10.6-8.2c0,0-0.3,11.9-1.9,17.5c0,0,5.8-10.1,7.4-29.2c0.5-8-3.2-8.8-3.2-8.8s0.3-2.7,2.7-4.5
		c2.4-1.9,2.9-4,7.2-4.5c4.2-0.5,5.3,1.1,8.2,4.8c2.9,3.7,8.8,13,8.8,13s1.3,5.8-0.8,5.6c0,0-3.2-8.2-8-11.2
		c-4.8-2.9-8.8,0-8.5,11.4c0.3,11.4,3.7,14.3,3.7,14.3l-8.5,0.3c0,0,3.5,4,5.6,4.2c2.1,0.3,5.3,0,5.3,0s6.1,7.2,5.6,14.9
		c0,0,4-6.9,6.6-10.1s4.4-12.2,1.9-19.6c0,0,3.7-5.6,0.5-11.4c-3.2-5.8-11.4-17.3-11.4-17.3s6.1-10.6,8.2-11.7l0.5,14.3
		c0,0,2.7-11.6,3.8-18s5.3-13.1,13.1-13.8c7.8-0.7,11.8,7.1,13.6,17.4l-5.6-5.8c0,0-6.4,8.8-5.6,24.2c0,0-4.2-3.2-6.6-3.7
		c-2.4-0.5-5.3-10.1-5.8-14.1c0,0-2.4,17,6.1,21.2c0,0-4.2,6.4-3.5,33.7c0,0,23.6-21.2,48.3-7.2c0,0,0.8,5.6-5.3,11.9
		c0,0,5.8,1.2,8.6,0c2.8-1.2,4.6-2.8,4.6-2.8s8,11.2,1.1,15.4c0,0-1.4-10.4-5.1-11c-3.7-0.5-5,1.6-8,7.3c-3,5.7-4.9,12.1-7.8,4.2
		c-2.9-8-2.4-13.8-2.1-17.5c0,0-3.5,4.8-4,8.5l-2.7-9.8l-0.5,8.8c0,0-6.6-0.3-9.8-0.5c-3.2-0.3-4.5,1.3-6.4,2.9
		c-1.9,1.6-4.8,4.5-9,4.2c0,0,7.4,0.9,10.1-1.2s7.7-2.3,17.5-1.5v4.2c0,0-5.6,6.9-8.2,7.7c-2.7,0.8-15.4,0-21,0s-11.4,1.9-14.6,4.8
		l19.4,0.3c0,0-14.1,15.4-17,20.4c-2.9,5-11.7,21.2-13.5,23.1c-1.9,1.9-10.4,9.6-31.9-6.9c0,0,5.3,19.1,27.6,18.1
		c0,0-0.8,10.4-6.1,12.7s-18.3,5.8-28.7,1.1s-23.4-21.4-23.4-21.4s7.1,15.2,9.2,19.8c2.1,4.6,8.1,14.5,14.5,16.3s20.2,0.7,20.2,0.7
		s-4.6,6.3-9.6,10.6h-48.1c0-40.5,0-77.5,0-77.5h-35.9c1.5-6,5.2-15.6,13.6-20.2c12.7-6.9,22-7.2,28.1-4.2
		C540.5,298.3,539.1,324.1,539.1,324.1z M615.6,281.6c0,0-2.1-8.8-6.9-17.3c-1.5-3-3.5-13,0.8-18.3c0,0,6.6,7.4,7.4,9.8
		c0.8,2.4,1.6,7.2,2.9,9.3C621.2,267.3,618.8,277.3,615.6,281.6z M515,272.8c0,0-19.4-1.3-32.1,1.6c0,0,36.9,2.1,46.7,11.9
		c0,0-25.5,0.3-35.1,9c-7.6,7-10.5,17-11,24.4h-54.3c2.5-3.9,5.5-8.5,6.6-10.9c2.1-4.5,1.1-11.2-1.3-14.9
		c-2.4-3.7-7.4-19.1,3.2-34.3c10.6-15.1,21-10.4,23.1-3.5s2.1,13.3-0.3,22c0,0,31.3-11.2,42.2-24.2
		C502.8,254.2,515.2,260.4,515,272.8z M524,134.2c0,0-11.7,19.4-26.8,18.9c0,0,1.3,9,26,17.3c0,0-14.9,1.9-27.1-4.5
		c0,0,2.9,9,11.7,13.5c8.8,4.5,15.9,12.2,15.1,21.8c-0.8,9.6-2.9,27.1-17.3,41.7s-26.3,23.4-39.8,28.7c0,0,1.9-15.1-4.8-21
		c-5.3-4.7-20.8-6.4-29.1,13.3c0.1-0.5,0.1-1,0.2-1.6c1.9-11.7,6.1-21.8,6.1-21.8s18.9-20.2,19.9-42.2c0,0,8.5-3.5,10.6-17
		c1.3-10.1-5.8-16.5-5.8-16.5s15.7-5.8,25.2,10.1c9.6,15.9,7.4,41.4-12.7,54.4c0,0-2.4-12.5-9.6-11.9s-15.4,15.4-18.3,23.9
		c0,0,11.4-16.5,17-16.2c5.6,0.3,9,6.1,8.8,13.5c0,0,23.1-20.7,26.6-32.7c3.5-11.9,3.5-29.2-13.5-45.1c0,0,0.3-18.6-3.7-24.2
		C482.6,136.6,504.9,145.6,524,134.2z M462,66.2c2.1-0.5,6.1,0.1,8.4-1.8c2.3-1.9,5.1-3,9,0.7c3.9,3.7,5.1,6.2,4.2,9.6
		c0,0-12.7-8.2-25.8-6.4C457.9,68.4,460.9,66.5,462,66.2z M474.1,78c4.7,2.8,11.9,8.5,11.9,8.5l11.7-11.3
		c2.1,21.6-12.4,37.5-12.4,37.5c-9.6-14.5-35.1-36.5-35.1-36.5C461.6,75.2,469.4,75.2,474.1,78z M320.5,65.1c3.9-3.7,6.7-2.7,9-0.7
		c2.3,1.9,6.3,1.3,8.4,1.8c1.1,0.3,4.1,2.2,4.1,2.2c-13-1.9-25.8,6.4-25.8,6.4C315.4,71.3,316.6,68.8,320.5,65.1z M302.3,75.2
		L314,86.5c0,0,7.2-5.7,11.9-8.5c4.7-2.8,12.5-2.8,23.8-1.8c0,0-25.5,22-35.1,36.5C314.7,112.7,300.2,96.8,302.3,75.2z M327.5,103.4
		c7.7-10.9,20.7-20.7,28.4-24.7c7.7-4,18.1-5.8,24.2-4.8c6.1,1.1,19.9,3.7,19.9,3.7s13.8-2.7,19.9-3.7c6.1-1.1,16.5,0.8,24.2,4.8
		c7.7,4,20.7,13.8,28.4,24.7s9,23.9,19.1,30.3c0,0-11.4-0.5-19.4-11.9c-8-11.4-13.5-22.3-39-29.2c0,0,15.4,10.4,21.8,18.1
		s11.2,21.5,4.8,26.8c0,0-16.2-0.8-21.8,1.3c-5.6,2.1-12.7,9.8-15.1,13.5s-12.5,10.9-12.5,10.9s10.9-5,13.8-6.1
		c2.9-1.1,5-2.1,12.2,2.7l-2.4-4.5c0,0,10.6,1.9,16.5-8.3c0,0-0.4,1-4.3,7.5c0,0,8.7-5.9,11.9-11.2c0,0,5.3-1.6,7.8-6.9
		c0,0,6.1,4.3,6.6,11.2c0,4.2-0.5,7.4-4.2,7.7c-3.7,0.3-11.9,6.6-15.4,13c0,0-8.8-6.1-16.5-6.6s-22.8,2.9-25.8,14.3
		c0,0,10.1-10.1,20.2-10.9c10.1-0.8,13.3,4.5,13.3,4.5s-1.3,20.2-17.5,35.3c0,0,17.5-8.2,24.4-29.7c0,0,5.6,3.7,3.2,19.1
		c-1.1,4-8.8,18.9-23.6,29.5c0,0-6.4-0.5-13.3-5.3H409v-8.5c0,0,5.8-6.5,10.4-9.4c4.6-2.8,14.9-7.3,8.1-21.6c0,0-1.3,0.4-0.8,3.6
		s1.1,7.7-3.7,11.2l-5.8-5.6c0,0-6.8,6-8.6,6.7c-1.8,0.7-8.7,0.5-8.7,0.5s-6.9,0.2-8.7-0.5c-1.8-0.7-8.6-6.7-8.6-6.7l-5.8,5.6
		c-4.8-3.5-4.2-8-3.7-11.2s-0.8-3.6-0.8-3.6c-6.8,14.3,3.5,18.8,8.1,21.6c4.6,2.8,10.4,9.4,10.4,9.4v8.5h-8.2
		c-6.9,4.8-13.3,5.3-13.3,5.3c-14.9-10.6-22.6-25.5-23.6-29.5c-2.4-15.4,3.2-19.1,3.2-19.1c6.9,21.5,24.4,29.7,24.4,29.7
		c-16.2-15.1-17.5-35.3-17.5-35.3s3.2-5.3,13.3-4.5c10.1,0.8,20.2,10.9,20.2,10.9c-2.9-11.4-18.1-14.9-25.8-14.3s-16.5,6.6-16.5,6.6
		c-3.5-6.4-11.7-12.7-15.4-13c-3.7-0.3-4.2-3.5-4.2-7.7c0.5-6.9,6.6-11.2,6.6-11.2c2.5,5.3,7.8,6.9,7.8,6.9
		c3.2,5.3,11.9,11.2,11.9,11.2c-3.9-6.5-4.3-7.5-4.3-7.5c5.8,10.3,16.5,8.3,16.5,8.3l-2.4,4.5c7.2-4.8,9.3-3.7,12.2-2.7
		c2.9,1.1,13.8,6.1,13.8,6.1s-10.1-7.2-12.5-10.9s-9.6-11.4-15.1-13.5c-5.6-2.1-21.8-1.3-21.8-1.3c-6.4-5.3-1.6-19.1,4.8-26.8
		s21.8-18.1,21.8-18.1c-25.5,6.9-31.1,17.8-39,29.2c-8,11.4-19.4,11.9-19.4,11.9C318.5,127.3,319.8,114.3,327.5,103.4z M448.2,144.1
		c-0.2,1.4-2.1,7.4-6.4,8.3s-10.3-0.4-10.3-0.4s2.8-5.8,7.4-8.3C443.5,141.2,448.2,144.1,448.2,144.1z M351.8,144.1
		c0,0,4.6-2.8,9.2-0.4c4.6,2.5,7.4,8.3,7.4,8.3s-6,1.2-10.3,0.4S352,145.5,351.8,144.1z M277.1,201.1c-0.8-9.6,6.4-17.3,15.1-21.8
		c8.8-4.5,11.7-13.5,11.7-13.5c-12.2,6.4-27.1,4.5-27.1,4.5c24.7-8.2,26-17.3,26-17.3c-15.1,0.5-26.8-18.9-26.8-18.9
		c19.1,11.4,41.4,2.4,41.4,2.4c-4,5.6-3.7,24.2-3.7,24.2c-17,15.9-17,33.2-13.5,45.1c3.5,11.9,26.6,32.7,26.6,32.7
		c-0.3-7.4,3.2-13.3,8.8-13.5c5.6-0.3,17,16.2,17,16.2c-2.9-8.5-11.2-23.4-18.3-23.9s-9.6,11.9-9.6,11.9
		c-20.2-13-22.3-38.5-12.7-54.4c9.6-15.9,25.2-10.1,25.2-10.1s-7.2,6.4-5.8,16.5c2.1,13.5,10.6,17,10.6,17
		c1.1,22,19.9,42.2,19.9,42.2s4.2,10.1,6.1,21.8c0,0.5,0.1,1.1,0.2,1.6c-8.3-19.7-23.8-17.9-29.1-13.3c-6.6,5.8-4.8,21-4.8,21
		c-13.5-5.3-25.5-14.1-39.8-28.7S277.9,210.7,277.1,201.1z M317.2,274.4c-12.7-2.9-32.1-1.6-32.1-1.6c-0.3-12.5,12.2-18.6,12.2-18.6
		c10.9,13,42.2,24.2,42.2,24.2c-2.4-8.8-2.4-15.1-0.3-22s12.5-11.7,23.1,3.5c10.6,15.1,5.6,30.5,3.2,34.3
		c-2.4,3.7-3.5,10.4-1.3,14.9c1.1,2.4,4.1,7,6.6,10.9h-54.3c-0.5-7.4-3.3-17.4-11-24.4c-9.6-8.8-35.1-9-35.1-9
		C280.2,276.6,317.2,274.4,317.2,274.4z M162.4,201.2c7.8,0.7,12,7.4,13.1,13.8s3.8,18,3.8,18l0.5-14.3c2.1,1.1,8.2,11.7,8.2,11.7
		s-8.2,11.4-11.4,17.3c-3.2,5.8,0.5,11.4,0.5,11.4c-2.6,7.4-0.8,16.5,1.9,19.6s6.6,10.1,6.6,10.1c-0.5-7.7,5.6-14.9,5.6-14.9
		s3.2,0.3,5.3,0c2.1-0.3,5.6-4.2,5.6-4.2l-8.5-0.3c0,0,3.5-2.9,3.7-14.3c0.3-11.4-3.7-14.3-8.5-11.4c-4.8,2.9-8,11.2-8,11.2
		c-2.1,0.3-0.8-5.6-0.8-5.6s5.8-9.3,8.8-13c2.9-3.7,4-5.3,8.2-4.8c4.2,0.5,4.8,2.7,7.2,4.5c2.4,1.9,2.7,4.5,2.7,4.5
		s-3.7,0.8-3.2,8.8c1.6,19.1,7.4,29.2,7.4,29.2c-1.6-5.6-1.9-17.5-1.9-17.5c4.2,5.8,7.7,5.3,10.6,8.2c2.9,2.9,2.1,13.3,0.5,20.4
		S205.9,314,205.9,314s2.4-0.3,14.1-10.6c11.7-10.4,9.8-26,9.8-26c24.7-0.3,31.1,46.7,31.1,46.7s-1.3-25.8,4.8-28.7
		c6.1-2.9,15.4-2.7,28.1,4.2c8.4,4.5,12.1,14.1,13.6,20.2h-35.9c0,0,0,37.1,0,77.5h-48.1c-5-4.4-9.6-10.6-9.6-10.6
		s13.8,1.1,20.2-0.7s12.4-11.7,14.5-16.3c2.1-4.6,9.2-19.8,9.2-19.8s-13,16.6-23.4,21.4s-23.4,1.3-28.7-1.1s-6.1-12.7-6.1-12.7
		c22.3,1.1,27.6-18.1,27.6-18.1c-21.5,16.5-30,8.8-31.9,6.9c-1.9-1.9-10.6-18.1-13.5-23.1c-2.9-5-17-20.4-17-20.4l19.4-0.3
		c-3.2-2.9-9-4.8-14.6-4.8s-18.3,0.8-21,0c-2.7-0.8-8.2-7.7-8.2-7.7v-4.2c9.8-0.8,14.9-0.7,17.5,1.5s10.1,1.2,10.1,1.2
		c-4.2,0.3-7.2-2.7-9-4.2c-1.9-1.6-3.2-3.2-6.4-2.9c-3.2,0.3-9.8,0.5-9.8,0.5l-0.5-8.8l-2.7,9.8c-0.5-3.7-4-8.5-4-8.5
		c0.3,3.7,0.8,9.6-2.1,17.5c-2.9,8-4.8,1.5-7.8-4.2c-3-5.7-4.2-7.8-8-7.3c-3.7,0.5-5.1,11-5.1,11c-6.9-4.2,1.1-15.4,1.1-15.4
		s1.8,1.6,4.6,2.8c2.8,1.2,8.6,0,8.6,0c-6.1-6.4-5.3-11.9-5.3-11.9c24.7-14.1,48.3,7.2,48.3,7.2c0.8-27.3-3.5-33.7-3.5-33.7
		c8.5-4.2,6.1-21.2,6.1-21.2c-0.5,4-3.5,13.5-5.8,14.1c-2.4,0.5-6.6,3.7-6.6,3.7c0.8-15.4-5.6-24.2-5.6-24.2l-5.6,5.8
		C150.7,208.3,154.6,200.5,162.4,201.2z M180.1,265.1c1.3-2.1,2.1-6.9,2.9-9.3c0.8-2.4,7.4-9.8,7.4-9.8c4.2,5.3,2.3,15.3,0.8,18.3
		c-4.8,8.5-6.9,17.3-6.9,17.3C181.2,277.3,178.8,267.3,180.1,265.1z M128.6,246.8l-7.2-10.1c0,0,0.5-14.9,2.9-15.9
		c0,0,4,7.2,5.8,8.8C130.2,229.6,128.6,238.8,128.6,246.8z M136.3,238.6l5-6.1l6,23.9l-1.5,1.1L136.3,238.6z M154.4,218.7l2.9,16.2
		c0,0-7.2,9.6-6.1,21c0,0-5.3-10.4-6.4-20.2C144,228.2,154.4,218.7,154.4,218.7z M117.7,217.6c1.3-4.8,8-14.1,11.4-12.2
		c3.5,1.9,14.2,6.2,17,8.5c1.3,1.1,0.8,4.5-0.8,6.9c-1.6,2.4-13,17.3-13,17.3s1.9-10.1,0-13.8c-1.9-3.7-8-10.4-8-10.4
		c-5.6,5.6-5.6,17.8-5.6,17.8C114.3,226.4,116.4,222.4,117.7,217.6z M106.1,245c1.3-5,13.3-9.6,13-8.2c-0.3,1.3,1.1,6.9,3.5,8.2
		c2.4,1.3,1.9,4,1.1,10.9c-0.8,6.9-5,8-5,8c0.5-3.5-1.6-6.1-4-8c-2.4-1.9-7.7-4.5-7.7-4.5c-1.6,5.3-1.3,13-1.3,13
		C100.2,259,104.7,250,106.1,245z"/>
	<path class="st0" d="M167.7,520.6l14.5-5.3c0,0-5-17.3-6.4-23c-1.4-5.7-5.7-10.3-14.5-8.2c-8.9,2.2-24.1,7.1-29.4,8.9
		s-11,5.3-9.2,12.4s7.8,26.6,7.8,26.6l31.2-8.5l-4.6-18.8l-11.3,3.5l1.8,4.4l-9.9,3.7l-2.8-8.6l30.4-9.4l2.5,8.1l-3.9,1.3
		L167.7,520.6z"/>
	<path class="st0" d="M311.8,663.5l5.7-14.4c0,0-16.2-7.9-21.4-10.6c-5.2-2.7-11.5-2.7-15.8,5.4c-4.3,8-10.7,22.7-12.9,27.8
		c-2.2,5.1-3.4,11.7,3.1,15.1c6.5,3.4,25,11.9,25,11.9l14.4-28.9l-17.1-9.1l-4.9,10.8l4.5,1.6l-3.8,9.9l-8.3-3.6l13.2-29l7.7,3.6
		l-1.6,3.8L311.8,663.5z"/>
	<path class="st0" d="M151.1,574.4c5,7.8,9.2,7.8,14.9,4.6c5.7-3.2,28-15.6,28-15.6l2.5,3.5l9.9-6.4l-9.6-15.2l-37.5,20.5l-3.9-7.8
		l37.5-22l-8.9-15.6l-9.9,5.7l2.1,3.5c0,0-21.6,11.3-28.7,15.2c-7.1,3.9-7.1,8.9-5,12.7C144.7,561.6,146.1,566.6,151.1,574.4z"/>
	<path class="st0" d="M215.5,572.9l-36.8,22.3l-2.7-3.2l-9.8,7.4l11.9,14.1l10.6-8l6.4,7.2l-9.6,10.1l11.9,13l8.9-7.4l-3.6-3.5
		l28.1-34.3L215.5,572.9z M201.6,605.3l-4.5-5.3l18.1-11.4L201.6,605.3z"/>
	<polygon class="st0" points="273.1,640.9 280.8,632.1 266.4,620.8 250,642.5 255,612.7 240.9,601.8 233.8,611.4 237.4,614 
		218.4,639.3 215.2,636.6 208,646.2 221.8,656.5 238,635.8 233.2,665 247.3,675.4 254.5,666.1 251,663.7 269.9,638.6 	"/>
	<path class="st0" d="M670.1,527c2.5-6.9,8.4-26.4,8.4-26.4L648,490.3l-6.7,18.1l11.4,3.4l1-4.7l10.3,2.5l-2.5,8.7l-30.5-9.3
		l2.5-8.1l4,1.1l4-12.8l-15-3.7c0,0-5.6,17.1-7.6,22.6s-1.1,11.7,7.4,14.9c8.5,3.2,23.9,7.6,29.3,9.1
		C660.9,533.7,667.6,533.9,670.1,527z"/>
	<polygon class="st0" points="652.5,568.8 642.8,562.2 640.6,565.8 614.3,548.7 616.3,545.4 607.1,538.3 596.7,553.4 619.5,568.3 
		589.5,565.3 579.6,580.1 589.6,586.6 592,582.9 618.5,600.1 616,603.4 626.1,610 635.4,595.5 613.7,580.7 643.1,583.5 	"/>
	<path class="st0" d="M504.1,698.8c0,0,25.8-11.4,29.4-13.6c3.5-2.1,6.4-7.8,3.9-13.1c-2.5-5.3-12.4-26.9-14.9-31.9
		c-2.5-5-7.8-7-15.9-3.3c-8.1,3.7-26.2,12.5-26.2,12.5l4.6,10.3l3.9-1.4l13.8,28.3l-4.2,2.5L504.1,698.8z M502,651.2l7.8-3.2
		l14.9,28.3l-8.1,5L502,651.2z"/>
	<path class="st0" d="M555.8,602.4c-3.2,2.8-6,5.5-6,5.5s-3.5,3-7.1,6.5c-3.5,3.5-3.2,8.9,2.8,15.6c6,6.7,18.8,21.6,22.3,24.8
		c3.5,3.2,9.2,1.8,13.5-1.8s9.2-8.1,12-11s4.6-8.5-0.4-14.9c-5-6.4-18.4-20.9-21.6-24.8C568.2,598.5,559,599.5,555.8,602.4z
		 M576,643.1l-21.5-24.4l6.7-6l21.6,24.4L576,643.1z"/>
	<path class="st0" d="M354.1,694.2c3.1-1.6,5.2-3.1,6.5-4.6c1.3-1.5,2.1-3.2,2.3-5c0.2-1.7,0-3.3-0.8-4.8c-0.7-1.5-1.9-2.7-3.4-3.6
		c-1.5-0.9-3.7-1.5-6.6-1.9c-2.8-0.4-5-0.3-6.7,0.1c-1.7,0.5-3,1.3-4.1,2.5c-1,1.2-1.9,2.9-2.5,5.2l8.2,1.8c0.5-1.6,1.1-2.8,1.8-3.3
		c0.8-0.6,1.7-0.8,2.7-0.6c1,0.1,1.8,0.6,2.4,1.3c0.6,0.7,0.8,1.6,0.7,2.5c-0.1,0.8-0.6,1.7-1.4,2.5c-0.8,0.8-2.5,2-5.2,3.5
		c-4.4,2.4-7.4,4.6-9.1,6.5c-1.7,2-2.9,4.1-3.5,6.5l24.8,3.4l0.9-6.7l-12.9-1.8c0.9-0.6,1.6-1.1,2.2-1.5
		C351.1,695.8,352.3,695.1,354.1,694.2z"/>
	<path class="st0" d="M390.8,681.1c-0.8-0.8-1.9-1.4-3.2-1.9c-1.3-0.5-3-0.7-5-0.7c-4.2,0-7.3,1.1-9.4,3.4c-2.1,2.3-3.1,6.3-3.1,12
		c0,2.3,0.2,4.4,0.6,6.4c0.4,1.9,1,3.4,1.7,4.5c1,1.6,2.3,2.7,3.8,3.5c1.6,0.8,3.6,1.2,6.1,1.2c4.5,0,7.7-1.3,9.5-3.8
		c1.8-2.5,2.8-6.5,2.8-11.9c0-2.4-0.3-4.8-0.8-7c-0.3-1.2-0.7-2.2-1.1-3.1C392.2,682.7,391.6,681.9,390.8,681.1z M386,700
		c-0.3,1.3-0.8,2.2-1.4,2.8c-0.6,0.6-1.4,0.9-2.2,0.9c-1.3,0-2.3-0.7-2.9-2.1c-0.7-1.4-1-4-1-7.8c0-3.8,0.3-6.4,0.9-7.8
		c0.6-1.4,1.6-2.1,3-2.1c1.4,0,2.4,0.7,3,2.1c0.7,1.4,1,4,1,8C386.4,696.7,386.2,698.7,386,700z"/>
	<path class="st0" d="M421.3,709.1v-30.5h-6.9c-0.9,1.9-2.1,3.5-3.7,4.7c-1.6,1.3-3.8,2.4-6.6,3.3v6.8c1.9-0.6,3.5-1.2,4.8-1.8
		c1.3-0.6,2.6-1.5,4-2.5v20H421.3z"/>
	<path class="st0" d="M444.1,691c-3.6,3.5-5.9,6.4-7.1,8.7c-1.1,2.4-1.7,4.8-1.6,7.3l24.8-3.4l-0.9-6.7l-12.9,1.8
		c0.7-0.8,1.2-1.5,1.7-2.1c0.5-0.5,1.5-1.5,3-2.9c2.5-2.4,4.2-4.4,5-6.2c0.8-1.8,1.1-3.6,0.9-5.4c-0.2-1.7-0.9-3.2-2-4.4
		c-1.1-1.2-2.5-2.1-4.2-2.5c-1.7-0.4-4-0.5-6.9-0.1c-2.8,0.4-4.9,1-6.4,1.9c-1.5,0.9-2.6,2.1-3.2,3.5c-0.7,1.4-1,3.3-1,5.7l8.4-0.5
		c0-1.7,0.3-2.9,0.9-3.7c0.6-0.8,1.4-1.2,2.4-1.3c1-0.1,1.9,0.1,2.7,0.6c0.8,0.6,1.2,1.3,1.3,2.2c0.1,0.8-0.1,1.8-0.6,2.8
		S446.3,688.8,444.1,691z"/>
	<path class="st0" d="M292.7,339.7c0,0,0,80.7,0,140.6c0,59.8,34.7,86,66.6,110.8c19.8,15.6,40.7,29.7,40.7,29.7
		s20.9-14.2,40.7-29.7c31.9-24.8,66.6-51,66.6-110.8c0-59.8,0-140.6,0-140.6H400H292.7z M477.8,541.9c-11.5,15.8-27.2,28-42.4,39.8
		l-1.3,1c-13,10.2-26.6,19.9-34.2,25.2c-7.6-5.3-21.2-15-34.2-25.2l-1.2-1c-3.7-2.9-7.4-5.8-11.1-8.7h83c10.3,0,18.8-8.4,18.8-18.8
		s-8.4-18.8-18.8-18.8h-91.3c-4.9,0-8.9-4-8.9-8.9c0-4.9,4-8.9,8.9-8.9h145.6C487.6,526.3,483.4,534.3,477.8,541.9z M496.7,480.2
		c0,9.7-1,18.6-2.9,26.9H345.1c-10.7,0-19.5,8.7-19.5,19.5c0,10.7,8.7,19.5,19.5,19.5h91.3c4.5,0,8.1,3.7,8.1,8.1
		c0,4.5-3.7,8.1-8.1,8.1H341c-6.9-6.2-13.3-13-18.8-20.5c-12.8-17.6-18.8-37.2-18.8-61.6v-58.8h84.8c3.6,0,6.5,2.9,6.5,6.5v6.9h-52
		c-9.4,0-17,7.6-17,17v28.3c0,9.4,7.6,17,17,17h114c9.8,0,17.7-7.9,17.7-17.7v-75.1c0-9.8-7.9-17.7-17.7-17.7H343
		c-4.5,0-8.1-3.7-8.1-8.1s3.7-8.1,8.1-8.1h153.7V480.2z M496.7,359.8H343c-10.3,0-18.8,8.4-18.8,18.8c0,10.3,8.4,18.8,18.8,18.8
		h113.7c3.9,0,7.1,3.2,7.1,7.1v75.1c0,3.9-3.2,7.1-7.1,7.1h-114c-3.5,0-6.4-2.9-6.4-6.4v-28.3c0-3.5,2.9-6.4,6.4-6.4h52v30.8h10.6
		v-30.8H452v-10.6h-46.7v-6.9c0-9.4-7.7-17.1-17.1-17.1h-84.8v-60.5H400h96.7V359.8z"/>
	<rect x="418.1" y="410.8" class="st0" width="28.3" height="10.6"/>
	<rect x="418.1" y="458.3" class="st0" width="28.3" height="10.6"/>
	<rect x="352.9" y="458.3" class="st0" width="28.3" height="10.6"/>
	<path class="st0" d="M407.8,166.5c-2,2.1-6.2,11.2-6.6,12c-0.4,0.8-1.2,0-1.2,0s-0.8,0.8-1.2,0c-0.4-0.8-4.6-9.9-6.6-12
		c0,0,5,18.3,5.3,22.9c0,0-2,0-8.1-6.1c0,0,1.3,6.1,10.5,10.3c9.2-4.2,10.5-10.3,10.5-10.3c-6.1,6.1-8.1,6.1-8.1,6.1
		C402.8,184.8,407.8,166.5,407.8,166.5z"/>
</g>
</svg>
