<?xml version="1.0" encoding="utf-8"?>
<!-- Generator: Adobe Illustrator 23.0.3, SVG Export Plug-In . SVG Version: 6.00 Build 0)  -->
<svg version="1.1" id="图层_1" xmlns="http://www.w3.org/2000/svg" xmlns:xlink="http://www.w3.org/1999/xlink" x="0px" y="0px"
	 viewBox="0 0 800 800" style="enable-background:new 0 0 800 800;" xml:space="preserve">
<style type="text/css">
	.st0{fill:#8B2A28;}
</style>
<path class="st0" d="M274.45,479.87l1.42,3.7h-2.77L274.45,479.87z M204.21,479.04c-0.83,0-1.52,0.31-2.01,0.86
	c-0.59,0.59-0.8,1.45-0.8,2.59c0,1.14,0.28,2.01,0.8,2.59c0.52,0.55,1.18,0.86,2.01,0.86c0.8,0,1.49-0.31,1.97-0.86
	c0.48-0.55,0.8-1.45,0.8-2.63c0-1.14-0.28-2.01-0.76-2.59C205.73,479.32,205.04,479.04,204.21,479.04z M350.37,479.04
	c-0.83,0-1.52,0.31-2.01,0.86c-0.55,0.59-0.8,1.45-0.8,2.59c0,1.14,0.28,2.01,0.8,2.59c0.52,0.55,1.18,0.86,2.01,0.86
	s1.49-0.31,1.97-0.86c0.48-0.55,0.8-1.45,0.8-2.63c0-1.14-0.28-2.01-0.76-2.59C351.89,479.32,351.2,479.04,350.37,479.04z
	 M145.68,460.1h7.36v-18.15h-7.36V460.1z M326.9,483.57h2.77l-1.42-3.7L326.9,483.57z M215.06,479.04c-0.83,0-1.52,0.31-2.01,0.86
	c-0.52,0.59-0.8,1.45-0.8,2.59c0,1.14,0.28,2.01,0.8,2.59c0.52,0.55,1.18,0.86,2.01,0.86c0.8,0,1.49-0.31,1.97-0.86
	c0.48-0.55,0.8-1.45,0.8-2.63c0-1.14-0.28-2.01-0.76-2.59C216.59,479.32,215.89,479.04,215.06,479.04z M303.87,479.04
	c-0.83,0-1.52,0.31-2.01,0.86c-0.52,0.59-0.8,1.45-0.8,2.59c0,1.14,0.28,2.01,0.8,2.59c0.52,0.55,1.18,0.86,2.01,0.86
	s1.49-0.31,1.97-0.86c0.48-0.55,0.8-1.45,0.8-2.63c0-1.14-0.28-2.01-0.76-2.59C305.39,479.32,304.7,479.04,303.87,479.04z
	 M364.13,330.15c0,9.09-7.4,16.49-16.49,16.49s-16.49-7.4-16.49-16.49s7.4-16.49,16.49-16.49S364.13,321.06,364.13,330.15z
	 M342.49,316.33l5.15,1.94l5.01-1.94l-1.35-1.24l-7.16-0.17L342.49,316.33z M332.74,330.84l3.49-4.08l-0.1-5.53l-1.9,1.11
	l-2.21,6.81L332.74,330.84z M343.73,344.12l-2.94-4.46l-5.32-1.45l0.52,2.14l5.95,4.01L343.73,344.12z M352.13,336.79l3.01-7.67
	l-7.19-6.5l-7.16,5.84l3.01,8.33H352.13z M360.01,338.21l-5.32,1.45l-2.94,4.46l1.8,0.24l5.95-4.01L360.01,338.21z M359.36,326.76
	l3.46,4.08l0.76-1.69l-2.25-6.81l-1.87-1.11L359.36,326.76z M235.56,483.33c-0.28-0.1-0.86-0.14-1.8-0.14l-1.62-0.03v2.7h1.9
	c0.73,0,1.21-0.03,1.42-0.07c0.31-0.03,0.52-0.17,0.73-0.41c0.17-0.24,0.28-0.48,0.28-0.83c0-0.31-0.07-0.55-0.24-0.76
	C236.08,483.54,235.88,483.4,235.56,483.33z M750,312.21v219.09c0,15.82-12.83,28.65-28.65,28.65H78.65
	c-15.82,0-28.65-12.83-28.65-28.65V268.71c0-15.82,12.83-28.65,28.65-28.65h599.19C717.7,240.05,750,272.36,750,312.21z
	 M329.83,451.63v2.39h7.71l-7.36,15.14h4.42h2.94h19.57h1.8h2.66c0.69-1.07,0.86-1.42,1.56-2.45l-4.91-10.16h-7.16l4.98,10.23
	h-17.22l6.19-12.72h19.5v-2.42H329.83z M362.92,448.21v-2.42h-31.67v2.42H362.92z M340.65,414.64l-33.98-86.7l-11.2,29.18
	l10.27,26.13h-20.36l-7.74,20.4h36.16l4.25,10.99H340.65z M275.35,451.28l3.21,18.32h4.87l-3.25-18.32H275.35z M280.54,449.73
	l1.62-7.64h-4.84l-1.59,7.64H280.54z M277.19,331.43l-32.05,83.52h22.57l4.42-11.3l29.35-76.19h-17.53
	C280.26,327.46,278.19,328.74,277.19,331.43z M260.59,469.61h4.84l3.25-18.32h-4.87L260.59,469.61z M263.15,449.73h4.81l-1.59-7.64
	h-4.84L263.15,449.73z M260.94,436.32h-13.17v2.45h3.7v9.44h-2.9v2.39h2.9v15.83l-3.87,0.31l0.21,2.42l12.44-1.11l-0.21-2.39
	l-2.77,0.24v-15.31h2.87v-2.39h-2.87v-9.44h3.66V436.32z M199.61,414.81h21.47v-26.45h16.28c2.39,0,4.42-1.42,5.22-3.66l6.46-17.22
	h-28.28v-18.81h31.6c2.39,0,4.42-1.42,5.22-3.66l6.46-17.04v-0.48h-64.44V414.81z M123.66,371.64c0,32.67,26.38,43.35,39.48,43.35
	h16.73c3.15,0,5.67-2.56,5.67-5.74v-13.86c0,0-9.64,0-17.84,0s-23.54-5.74-23.54-23.75c0-18.18,16.59-23.27,24.48-23.27h11.51
	c3.15,0,5.67-2.56,5.67-5.74v-15.14c0,0-2.83,0-18.32,0C151.77,327.63,123.66,338.93,123.66,371.64z M192.97,440.33h-19.32v2.42
	h6.46v4.98h-6.46v2.39h6.46v12.13h-6.36v2.42h19.36v-2.42h-7.12v-12.13h6.98v-2.39h-6.98v-4.98h6.98V440.33z M191.07,452.39h-4.84
	l2.25,8.3h4.81L191.07,452.39z M126.67,482.4c0-1.18,0.24-2.07,0.69-2.59c0.48-0.52,1.07-0.8,1.83-0.8c0.52,0,0.97,0.14,1.35,0.45
	c0.38,0.31,0.66,0.73,0.76,1.24l2.01-0.48c-0.24-0.8-0.59-1.45-1.04-1.87c-0.76-0.73-1.8-1.11-3.01-1.11
	c-1.42,0-2.56,0.52-3.42,1.42c-0.86,0.97-1.28,2.25-1.28,3.91c0,1.62,0.41,2.87,1.28,3.77s1.97,1.35,3.28,1.35
	c1.07,0,1.94-0.28,2.66-0.8c0.73-0.52,1.21-1.31,1.52-2.42l-1.97-0.62c-0.17,0.73-0.45,1.28-0.76,1.56
	c-0.45,0.35-0.9,0.52-1.42,0.52c-0.73,0-1.35-0.24-1.8-0.8C126.91,484.54,126.67,483.64,126.67,482.4z M143.06,477.52h-2.01v3.94
	h-3.98v-3.94h-2.01v10.03h2.01v-4.39h3.98v4.39h2.01V477.52z M147.1,477.52h-2.01v10.03h2.01V477.52z M157.02,477.52h-1.9v6.71
	l-4.08-6.71h-1.97v10.03h1.87v-6.57l4.04,6.57h2.04V477.52z M158.92,439.56h-0.14v-0.03h-5.74h-7.36v-4.91h-6.12v4.91h-5.15h-1.97
	v2.42h7.16v18.15h-7.95v-20.53h-5.88h-1.21c0,0.1,0.03,0.28,0.1,0.38l1.11,1.8v18.36v2.42h5.84h7.95v7.19h6.15v-7.19h7.33h0.69h3.11
	c1.14,0,2.07-0.9,2.07-2.07V439.56z M166.81,485.89h-5.6v-2.73h5.05v-1.69h-5.05v-2.25h5.43v-1.69h-7.43v10.03v0.03h7.61V485.89z
	 M176.17,484.68c0-0.66-0.14-1.18-0.41-1.59c-0.28-0.41-0.66-0.76-1.11-1.04c-0.52-0.28-1.24-0.48-2.21-0.73
	c-1-0.24-1.59-0.45-1.87-0.69c-0.21-0.17-0.31-0.38-0.31-0.62c0-0.24,0.07-0.48,0.31-0.62c0.35-0.28,0.8-0.38,1.42-0.38
	c0.55,0,0.97,0.1,1.28,0.35c0.28,0.24,0.48,0.59,0.55,1.11l2.01-0.07c0-0.93-0.35-1.66-0.97-2.21c-0.62-0.55-1.59-0.83-2.83-0.83
	c-0.76,0-1.45,0.1-1.97,0.35c-0.52,0.24-0.93,0.59-1.24,1.04c-0.28,0.48-0.41,0.97-0.41,1.45c0,0.8,0.28,1.45,0.9,2.01
	c0.41,0.35,1.18,0.69,2.28,0.97c0.83,0.21,1.38,0.38,1.62,0.45c0.35,0.1,0.59,0.28,0.73,0.41c0.17,0.17,0.24,0.38,0.24,0.62
	c0,0.35-0.14,0.69-0.48,0.97s-0.83,0.41-1.49,0.41c-0.66,0-1.11-0.14-1.49-0.45c-0.38-0.31-0.62-0.8-0.73-1.45l-1.97,0.17
	c0.17,1.07,0.52,1.97,1.21,2.66c0.66,0.55,1.66,0.86,2.9,0.86c0.9,0,1.66-0.14,2.21-0.38c0.59-0.28,1.04-0.66,1.35-1.14
	C176.04,485.78,176.17,485.23,176.17,484.68z M185.51,485.89h-5.6v-2.73h5.05v-1.69h-5.05v-2.25h5.43v-1.69h-7.43v10.03v0.03h7.61
	V485.89z M198.06,477.52h-6.88v10.03v0.03h2.04v-4.29h4.22v-1.69h-4.22v-2.39h4.84V477.52z M198.06,469.12
	c1.14,0,2.07-0.9,2.07-2.07v-31.87h-3.11v0.03h-2.7h-14.21h-6.08v2.42h20.26v29.11h-21.74v-31.53h-5.84h-1.18
	c0,0.14,0.03,0.28,0.1,0.38l1.07,1.69v31.84h4.01h1.83h21.74h0.83H198.06z M208.95,482.53c0-1.62-0.45-2.94-1.31-3.84
	c-0.9-0.9-2.07-1.35-3.56-1.35c-0.8,0-1.49,0.1-2.14,0.38c-0.45,0.17-0.9,0.48-1.28,0.9c-0.41,0.38-0.69,0.86-0.93,1.35
	c-0.31,0.69-0.45,1.56-0.45,2.59c0,1.59,0.45,2.83,1.28,3.77c0.86,0.9,2.07,1.35,3.56,1.35c1.49,0,2.66-0.45,3.53-1.35
	C208.5,485.4,208.95,484.16,208.95,482.53z M209.71,469.09h3.91h28.49v-2.63l-14.66,0.07v-10.58h13.52v-2.63h-13.52v-4.74h5.88h5.81
	c1.14,0,2.07-0.9,2.07-2.07v-11.58h-7.88h-16.35v3.21h16.35v7.88h-17.91v-11.06h-4.01h-3.84h-1.18c0,0.14,0.03,0.28,0.1,0.38
	l1.07,1.73v11.55h7.33h6.4v17.87h-7.19l2.87-16.01h-6.53l-3.39,18.6H209.71z M219.87,482.53c0-1.62-0.45-2.94-1.31-3.84
	c-0.9-0.9-2.07-1.35-3.56-1.35c-0.8,0-1.49,0.1-2.14,0.38c-0.45,0.17-0.9,0.48-1.28,0.9c-0.41,0.38-0.69,0.86-0.93,1.35
	c-0.31,0.69-0.45,1.56-0.45,2.59c0,1.59,0.45,2.83,1.28,3.77c0.86,0.9,2.07,1.35,3.56,1.35c1.49,0,2.66-0.45,3.53-1.35
	C219.42,485.4,219.87,484.16,219.87,482.53z M228.79,477.52h-7.99v1.69h2.97v8.33h2.07v-8.33h2.94V477.52z M238.5,484.57
	c0-0.59-0.14-1.11-0.48-1.52c-0.31-0.41-0.8-0.73-1.42-0.9c0.41-0.17,0.76-0.48,1.04-0.86c0.28-0.38,0.38-0.83,0.38-1.28
	c0-0.41-0.14-0.83-0.31-1.18c-0.21-0.35-0.45-0.59-0.76-0.83c-0.31-0.24-0.69-0.35-1.07-0.41c-0.38-0.07-1-0.1-1.8-0.1h-3.98v9.99
	h3.42c1.31,0,2.11-0.03,2.45-0.07c0.52-0.07,0.97-0.21,1.35-0.48c0.38-0.28,0.62-0.62,0.86-1.04
	C238.4,485.47,238.5,485.02,238.5,484.57z M249.25,487.55l-4.01-10.03h-2.14l-3.91,10.03h2.14l0.83-2.28h4.01l0.86,2.28H249.25z
	 M257.45,485.85h-5.05v-8.26h-2.01v9.96h7.05V485.85z M266.02,485.85h-5.05v-8.26h-2.01v9.96h7.05V485.85z M269.23,469.54h3.6
	c1.14,0,2.07-0.9,2.07-2.07v-27.07h7.74v-2.45h-0.9v-1.8h-4.11v1.87h-2.7v-3.15h-3.01h-2.83h-1.11c0,0.1,0.03,0.28,0.1,0.35
	l0.97,1.59v1.18h-7.78v2.45h7.74v25.89c0,0.66-0.52,1.18-1.18,1.18h-1.42v2.04h2.63H269.23z M279.64,487.55l-4.04-10.03h-2.14
	l-3.91,10.03h2.18l0.83-2.28h4.01l0.86,2.28H279.64z M288.42,484.68c0-0.66-0.14-1.18-0.41-1.59c-0.28-0.41-0.66-0.76-1.11-1.04
	c-0.52-0.28-1.24-0.48-2.21-0.73c-1-0.24-1.59-0.45-1.87-0.69c-0.21-0.17-0.31-0.38-0.31-0.62c0-0.24,0.07-0.48,0.31-0.62
	c0.28-0.28,0.73-0.38,1.35-0.38c0.55,0,0.97,0.1,1.28,0.35c0.28,0.24,0.48,0.59,0.55,1.11l2.01-0.07c0-0.93-0.31-1.66-0.97-2.21
	c-0.62-0.55-1.59-0.83-2.83-0.83c-0.76,0-1.45,0.1-1.97,0.35c-0.52,0.24-0.93,0.59-1.24,1.04c-0.28,0.48-0.41,0.97-0.41,1.45
	c0,0.8,0.28,1.45,0.9,2.01c0.41,0.35,1.18,0.69,2.28,0.97c0.83,0.21,1.38,0.38,1.62,0.45c0.35,0.1,0.59,0.28,0.73,0.41
	c0.17,0.17,0.24,0.38,0.24,0.62c0,0.35-0.14,0.69-0.48,0.97s-0.83,0.41-1.49,0.41c-0.66,0-1.11-0.14-1.49-0.45s-0.62-0.8-0.73-1.45
	l-1.97,0.17c0.14,1.07,0.55,1.97,1.28,2.66c0.66,0.55,1.66,0.86,2.9,0.86c0.9,0,1.66-0.14,2.21-0.38c0.59-0.28,1.04-0.66,1.35-1.14
	C288.28,485.78,288.42,485.23,288.42,484.68z M288.84,447.1h2.59v22.37h5.84V447.1h2.56v-2.42h-2.56v-9.96h-5.84v9.96h-2.59V447.1z
	 M299.38,469.16h3.87l1.76-25.86h-3.8L299.38,469.16z M297.72,484.68c0-0.66-0.14-1.18-0.41-1.59c-0.28-0.41-0.66-0.76-1.11-1.04
	c-0.52-0.28-1.24-0.48-2.21-0.73c-1-0.24-1.59-0.45-1.87-0.69c-0.21-0.17-0.31-0.38-0.31-0.62c0-0.24,0.07-0.48,0.31-0.62
	c0.35-0.28,0.8-0.38,1.42-0.38c0.55,0,0.97,0.1,1.28,0.35c0.28,0.24,0.48,0.59,0.55,1.11l2.01-0.07c0-0.93-0.31-1.66-0.97-2.21
	c-0.62-0.55-1.59-0.83-2.83-0.83c-0.76,0-1.45,0.1-1.97,0.35c-0.52,0.24-0.93,0.59-1.24,1.04c-0.28,0.48-0.41,0.97-0.41,1.45
	c0,0.8,0.28,1.45,0.9,2.01c0.41,0.35,1.18,0.69,2.28,0.97c0.83,0.21,1.38,0.38,1.62,0.45c0.35,0.1,0.59,0.28,0.73,0.41
	c0.17,0.17,0.24,0.38,0.24,0.62c0,0.35-0.14,0.69-0.48,0.97c-0.35,0.28-0.83,0.41-1.49,0.41s-1.11-0.14-1.49-0.45
	s-0.62-0.8-0.73-1.45l-1.97,0.17c0.1,1.07,0.52,1.97,1.21,2.66c0.66,0.55,1.66,0.86,2.9,0.86c0.9,0,1.59-0.1,2.21-0.38
	c0.59-0.28,1.04-0.66,1.35-1.14C297.58,485.78,297.72,485.23,297.72,484.68z M308.68,482.53c0-1.62-0.45-2.94-1.31-3.84
	c-0.9-0.9-2.07-1.35-3.56-1.35c-0.8,0-1.49,0.1-2.14,0.38c-0.45,0.17-0.9,0.48-1.28,0.9c-0.41,0.38-0.69,0.86-0.93,1.35
	c-0.31,0.69-0.45,1.56-0.45,2.59c0,1.59,0.45,2.83,1.28,3.77c0.86,0.9,2.07,1.35,3.56,1.35c1.49,0,2.66-0.45,3.53-1.35
	C308.23,485.4,308.68,484.16,308.68,482.53z M312.07,482.4c0-1.18,0.24-2.07,0.69-2.59c0.48-0.52,1.07-0.8,1.83-0.8
	c0.52,0,0.97,0.14,1.35,0.45c0.38,0.31,0.66,0.73,0.76,1.24l2.01-0.48c-0.24-0.8-0.59-1.45-1.04-1.87c-0.76-0.73-1.8-1.11-3.01-1.11
	c-1.42,0-2.56,0.52-3.42,1.42c-0.86,0.97-1.28,2.25-1.28,3.91c0,1.62,0.41,2.87,1.28,3.77s1.97,1.35,3.28,1.35
	c1.07,0,1.94-0.28,2.66-0.8c0.73-0.52,1.21-1.31,1.52-2.42l-1.97-0.62c-0.14,0.73-0.45,1.28-0.76,1.56
	c-0.45,0.35-0.9,0.52-1.42,0.52c-0.73,0-1.35-0.24-1.8-0.8C312.31,484.54,312.07,483.64,312.07,482.4z M319.05,438.8h-0.38
	l-5.5-0.03h-1.52l0.24-4.11h-5.15l-0.24,4.11h-5.77v2.42h5.57l-1.49,28.35h5.19l1.49-28.35h1.66v24.44c0,0.97-0.8,1.8-1.8,1.8h-0.38
	v2.25h2.21h0.35h3.46c1.14,0,2.07-0.9,2.07-2.07V438.8z M322.37,477.52h-2.01v10.03h2.01V477.52z M322.99,443.3h-2.77v25.89h2.77
	V443.3z M333.4,487.55l-4.01-10.03h-2.14l-3.91,10.03h2.14l0.83-2.28h4.01l0.86,2.28H333.4z M340.65,477.52h-7.99v1.69h3.01v8.33
	h2.04v-8.33h2.94V477.52z M343.94,477.52h-2.01v10.03h2.01V477.52z M355.17,482.53c0-1.62-0.45-2.94-1.31-3.84
	c-0.9-0.9-2.07-1.35-3.56-1.35c-0.8,0-1.49,0.1-2.14,0.38c-0.45,0.17-0.9,0.48-1.28,0.9c-0.41,0.38-0.69,0.86-0.93,1.35
	c-0.31,0.69-0.45,1.56-0.45,2.59c0,1.59,0.41,2.83,1.28,3.77c0.86,0.9,2.07,1.35,3.56,1.35c1.49,0,2.66-0.45,3.53-1.35
	C354.72,485.4,355.17,484.16,355.17,482.53z M364.75,477.52h-1.9v6.71l-4.08-6.71h-1.97v10.03h1.9v-6.57l4.01,6.57h2.04V477.52z
	 M364.78,443.44l-6.91-8.43h-1.49h-5.95h-6.19h-7.43h-3.21l1.35,2.25l-5.05,6.19h7.43l4.98-6.05h10.09l4.94,6.05H364.78z
	 M365.65,330.19c0-9.96-8.05-18.01-18.01-18.01s-18.01,8.05-18.01,18.01c0,9.96,8.05,18.01,18.01,18.01S365.65,340.14,365.65,330.19
	z M738.71,313.28c0-34.21-27.73-61.94-61.94-61.94H461.05c-10.86,0-19.66,8.8-19.66,19.66v215.72c0,34.21,27.73,61.94,61.94,61.94
	h215.72c10.86,0,19.66-8.8,19.66-19.66V313.28z M234.94,481.46c0.35-0.03,0.62-0.14,0.83-0.35c0.17-0.17,0.31-0.45,0.31-0.8
	c0-0.31-0.07-0.55-0.28-0.76c-0.17-0.17-0.41-0.31-0.76-0.35c-0.17-0.03-0.8-0.03-1.73-0.03h-1.18v2.32h1.31
	C234.25,481.5,234.73,481.5,234.94,481.46z M242.79,483.57h2.77l-1.42-3.7L242.79,483.57z M570.55,314.79L570.55,314.79
	L570.55,314.79C570.58,314.79,570.58,314.79,570.55,314.79L570.55,314.79z M705.56,378.99L705.56,378.99L705.56,378.99z
	 M570.55,314.79C570.52,314.83,570.52,314.79,570.55,314.79L570.55,314.79z M709.98,371.96c0,0.34,0,0.69,0,1.06
	c-0.24,0.17-0.21,0.48-0.41,0.69c-0.17,0.17-0.27,0.45-0.41,0.69c0,0.17,0,0.34,0,0.58c-0.1,0.1-0.21,0.31-0.34,0.31
	c-0.27,0.03-0.34,0.24-0.51,0.34c0,0.45,0,0.89,0,1.3c-0.1,0.1-0.21,0.21-0.31,0.31c-0.17,0-0.34,0.03-0.55,0.03
	c0,0.27-0.03,0.51-0.03,0.75c-0.17,0.17-0.34,0.07-0.51,0.1c-0.31,0.34-0.24,1.03-0.89,1.1c-0.03,0.14-0.1,0.31-0.1,0.27
	c-0.14,0.17-0.17,0.21-0.17,0.24s0,0.07,0,0.1c0,0.69,0,1.37,0,2.02c-0.1,0.1-0.21,0.21-0.31,0.31c-0.07,0-0.14,0-0.21,0
	c-0.1,0.1-0.21,0.21-0.31,0.31c0,0.17-0.03,0.34-0.03,0.51c-0.21,0.03-0.38,0.07-0.51,0.07c-0.14,0.14-0.24,0.21-0.34,0.31
	c0,0.17,0,0.31,0,0.45c-0.14,0.21-0.34,0.07-0.51,0.14c-0.1,0.17-0.24,0.38-0.34,0.58c0,0.14,0,0.34,0,0.62
	c-0.27,0.24-0.62,0.48-0.86,0.69c0,0.48,0,0.86,0,1.2c-0.21,0.34-0.65,0.34-0.86,0.65c0,0.27,0,0.55,0,0.86
	c-0.31,0.27-0.62,0.58-0.89,0.86c0,0.17,0,0.31,0,0.45c-0.17,0.17-0.34,0.07-0.51,0.1c-0.03,0.03-0.07,0.03-0.07,0.07
	c0.03,0.38-0.34,0.69-0.27,1.06c-0.31,0.27-0.58,0.55-0.86,0.82c0,0.45,0,0.82,0,1.13c-0.17,0.17-0.24,0.27-0.31,0.34
	c-0.14,0.07-0.24,0.07-0.34,0.1c0,0.17,0,0.31,0,0.45c-0.27,0.27-0.55,0.55-0.79,0.75c-0.1,0.41-0.34,0.69-0.31,1.06
	c-0.38,0.07-0.58,0.38-0.82,0.62c0,0.24,0,0.45,0,0.65c-0.21,0.21-0.41,0.41-0.58,0.58c-0.1,0.17-0.17,0.34-0.27,0.58
	c0,0.24,0,0.58,0,0.96c-0.1,0.1-0.21,0.21-0.31,0.31c-0.14,0.03-0.31,0.07-0.48,0.07c-0.17,0.17-0.07,0.34-0.1,0.51
	c-0.1,0.1-0.21,0.21-0.31,0.31c-0.14,0-0.27,0-0.45,0c-0.21,0.31-0.45,0.65-0.72,1.03c0,0.17,0,0.38,0,0.58
	c-0.07,0.07-0.14,0.17-0.21,0.24c0,0.14,0,0.27,0,0.41c-0.1,0.1-0.21,0.21-0.31,0.31c-0.1,0.03-0.21,0.03-0.31,0.07
	c0,0.58,0,1.17,0,1.85c0,0.03,0.27,0.1,0.17,0.34c-0.17,0.07-0.34,0.17-0.62,0.31c-0.31,0-0.75,0-1.2,0
	c-0.17,0.27-0.1,0.51-0.1,0.75c0,0.21,0,0.45,0,0.65c-0.1,0.1-0.21,0.21-0.31,0.31c-0.34,0-0.69,0-1.06,0
	c-0.1,0.1-0.21,0.21-0.31,0.31c0,0.17,0,0.38,0,0.58c-0.27,0.27-0.21,0.89-0.79,0.82c-0.17,0.27-0.1,0.51-0.1,0.75
	c0,0.21,0,0.41,0,0.65c-0.27,0.1-0.55,0.24-0.86,0.38c0,0.14-0.03,0.27-0.03,0.51c-0.07,0.03-0.21,0.14-0.45,0.27
	c-0.03,0-0.17,0-0.31,0c-0.31,0.31-0.62,0.62-0.96,0.96c0,0.41,0,0.86,0,1.3c-0.34,0.14-0.62,0.31-0.86,0.41
	c-0.03,0.31,0.17,0.38,0.27,0.51c0.14,0.03,0.31,0.03,0.48,0.07c0.14,0.24,0.07,0.48,0.07,0.72c-0.1,0.1-0.21,0.21-0.31,0.31
	c-0.41,0-0.86,0-1.41,0c-0.14-0.17-0.34-0.38-0.55-0.62c-0.21,0.14,0.03,0.51-0.31,0.48c0,0.27,0,0.48,0,0.69
	c0.14,0.17,0.31,0.07,0.51,0.1c0.07,0.07,0.17,0.17,0.31,0.27c0,0.41,0,0.89,0,1.27c-0.1,0.14-0.21,0.27-0.27,0.34
	c-0.17,0-0.31,0-0.45,0c-0.1-0.1-0.21-0.21-0.31-0.31c0-0.14,0-0.27,0-0.41c-0.17-0.21-0.38-0.1-0.58-0.07
	c-0.1,0.24-0.03,0.48-0.07,0.75c-0.1,0.03-0.24,0.07-0.38,0.14c0,0.1-0.03,0.17-0.03,0.31c0.1,0.03,0.21,0.07,0.34,0.1
	c0.03,0.1,0.07,0.24,0.14,0.34c0.1,0.1,0.21,0.17,0.17,0.38c-0.07,0.07-0.14,0.14-0.21,0.24c-0.03,0.31-0.03,0.62,0,0.96
	c0.21,0,0.38,0,0.55,0c0.14-0.27,0.24-0.55,0.38-0.82c0.17,0,0.34-0.03,0.51-0.03c0.03-0.17,0.03-0.34,0.07-0.51
	c0.21-0.31,0.62-0.27,0.82-0.62c0-0.14,0-0.27,0-0.45c0.24-0.1,0.51-0.24,0.82-0.38c0-0.58,0.65-0.51,0.93-0.93c0-0.31,0-0.69,0-1.1
	c0.21-0.03,0.38-0.03,0.55-0.07c0.31-0.14,0.24-0.48,0.45-0.69c0.21-0.21,0.38-0.41,0.69-0.45c0-0.17,0-0.31,0-0.45
	c0.1-0.1,0.21-0.21,0.31-0.31c0.17-0.03,0.34-0.03,0.51-0.07c0.14-0.21,0.03-0.48,0.07-0.72c0.17-0.07,0.31-0.1,0.45-0.21
	c0.14-0.1,0.27-0.27,0.41-0.41c0-0.21,0-0.41,0-0.55c0.17-0.48,0.72-0.41,0.89-0.79c0-0.21,0-0.41,0-0.69
	c0.21-0.03,0.38-0.07,0.58-0.1c0.07-0.07,0.17-0.17,0.27-0.27c0-0.27,0-0.58,0-0.86c0.14-0.14,0.24-0.24,0.34-0.34
	c0.17,0,0.31,0,0.45,0c0.38-0.38,0.79-0.79,1.17-1.17c0.03-0.14,0.03-0.31,0.07-0.48c0.24-0.14,0.48-0.07,0.72-0.07
	c0.24,0,0.45,0,0.65,0c0.07-0.07,0.1-0.1,0.17-0.17c0.24-0.1,0.48-0.03,0.72-0.03c0.1,0.1,0.21,0.21,0.31,0.31c0,0.14,0,0.27,0,0.41
	c-0.07,0.07-0.14,0.17-0.21,0.24c0,0.21,0,0.41,0,0.62c-0.1,0.1-0.21,0.21-0.31,0.31c-0.34,0-0.72,0-1.06,0
	c-0.24,0.21-0.03,0.48-0.14,0.69c-0.1,0.21-0.24,0.41-0.21,0.69c0.07,0.07,0.14,0.14,0.21,0.24c0,0.21,0,0.41,0,0.65
	c-0.07,0.07-0.14,0.17-0.21,0.24c0,0.21,0,0.45,0,0.65c-0.17,0.1-0.38,0.17-0.62,0.31c-0.17,0-0.48,0-0.75,0
	c-0.1,0.1-0.21,0.21-0.31,0.31c0,0.21,0,0.41,0,0.62c-0.24,0.21-0.48,0.41-0.65,0.58c0,0.24,0,0.38,0,0.45
	c-0.14,0.24-0.21,0.45-0.31,0.62c-0.14,0-0.27,0-0.41,0c-0.27,0.14-0.07,0.38-0.1,0.45c-0.17,0.21-0.27,0.31-0.34,0.41
	c-0.17,0-0.31,0-0.45,0c-0.31,0.17-0.27,0.51-0.48,0.69c-0.17,0.17-0.45,0.27-0.69,0.45c0,0.31,0,0.65,0,0.89
	c-0.24,0.38-0.69,0.34-0.86,0.69c0,0.07,0,0.14,0,0.21c-0.17,0.17-0.34,0.34-0.55,0.51c-0.1,0-0.24,0-0.41,0
	c-0.1,0.1-0.17,0.21-0.31,0.34c0,0.1,0,0.24,0,0.38c-0.07,0.1-0.14,0.17-0.21,0.27c0,0.72,0,1.44,0,2.13
	c-0.21,0.34-0.65,0.48-0.69,0.93c-0.24,0.14-0.34,0.45-0.65,0.51c-0.27,0.07-0.45,0.34-0.72,0.21c-0.21,0.21-0.34,0.34-0.55,0.55
	c0,0.45,0,0.89,0,1.3c-0.17,0.21-0.38,0.1-0.55,0.14c-0.1,0.07-0.21,0.17-0.31,0.31c0,0.1,0,0.24,0,0.38
	c-0.17,0.1-0.34,0.21-0.51,0.31c-0.14,0.1-0.27,0.21-0.38,0.31c0,0.21,0,0.34,0,0.51c-0.1,0.03-0.21,0.07-0.38,0.1
	c-0.14,0.14-0.27,0.31-0.51,0.58c0,0.21,0,0.51,0,0.86c-0.17,0.03-0.34,0.07-0.51,0.07c-0.1,0.1-0.21,0.21-0.31,0.31
	c0,0.17,0,0.31,0,0.45c-0.14,0.17-0.31,0.07-0.51,0.1c-0.07,0.07-0.17,0.17-0.31,0.31c0,0.34,0,0.72,0,1.03
	c-0.14,0.17-0.24,0.27-0.31,0.38c-0.17,0-0.31,0-0.45,0c-0.03-0.03-0.1-0.1-0.17-0.17c-0.14,0-0.31,0-0.48,0
	c-0.1,0.17-0.17,0.34-0.31,0.58c0,0.07,0,0.21,0,0.34c-0.14,0.21-0.34,0.31-0.58,0.38c0,0.27-0.21,0.41-0.38,0.58
	c-0.14,0-0.27,0-0.41,0c-0.1,0.1-0.21,0.21-0.31,0.31c0,0.14,0,0.27,0,0.41c-0.14,0.21-0.31,0.1-0.58,0.14
	c-0.03,0.07-0.14,0.21-0.27,0.38c0,0.07,0,0.17,0,0.27c-0.1,0.24-0.31,0.41-0.48,0.55c-0.21,0.17-0.1,0.51-0.38,0.62
	c0,0.14,0,0.27,0,0.45c-0.24,0.14-0.51,0.24-0.82,0.38c-0.03,0.17-0.07,0.34-0.07,0.48c-0.1,0.1-0.21,0.21-0.31,0.31
	c-0.45,0-0.89,0-1.3,0c-0.17,0.14-0.07,0.34-0.1,0.51c-0.24,0.14-0.45,0.27-0.65,0.41c0,0.21,0,0.34,0,0.48
	c-0.07,0.07-0.14,0.17-0.21,0.24c0,0.14,0,0.27,0,0.41c-0.1,0.1-0.21,0.21-0.31,0.31c-0.14,0-0.27,0-0.41,0
	c-0.17-0.24-0.17-0.62-0.62-0.65c-0.14,0.21-0.27,0.41-0.41,0.62c-0.21,0.03-0.38,0.03-0.58,0.07c0,0.24-0.03,0.48-0.03,0.72
	c-0.27,0.14-0.17,0.41-0.24,0.65c-0.14,0.17-0.34,0-0.51,0.1c-0.14,0.27-0.31,0.62-0.34,0.99c-0.21,0.14-0.51-0.07-0.65,0.24
	c-0.24,0.03-0.48,0.03-0.72,0.07c-0.14,0.17-0.03,0.34-0.07,0.51c-0.1,0.1-0.21,0.21-0.31,0.31c-0.45,0.03-0.93-0.03-1.41,0.03
	c0,0.41,0,0.79,0,1.13c-0.24,0.38-0.69,0.34-0.86,0.69c0,0.14,0,0.27,0,0.41c-0.07,0.07-0.14,0.17-0.21,0.24c0,0.21,0,0.41,0,0.62
	c-0.1,0.14-0.24,0.07-0.38,0.1c-0.14,0.03-0.24,0.1-0.51,0.24c-0.07,0-0.31,0-0.55,0c-0.03,0.21-0.03,0.38-0.07,0.55
	c-0.24,0.14-0.48,0.03-0.72,0.07c-0.07,0.07-0.1,0.1-0.21,0.21c-0.41,0.07-0.89,0-1.34,0.03c-0.1,0.1-0.21,0.21-0.31,0.31
	c0,0.27,0,0.58,0,0.86c-0.07,0.07-0.14,0.17-0.21,0.24c0,0.07,0,0.14,0,0.24c-0.14,0.03-0.24,0.07-0.31,0.1
	c-0.17,0.24-0.31,0.45-0.41,0.62c-0.27,0-0.48,0-0.69,0c-0.24,0.21,0,0.55-0.17,0.82c-0.21,0-0.45,0.03-0.69,0.03
	c-0.21,0.24,0,0.48-0.1,0.72c-0.1,0.27-0.38,0.07-0.55,0.17c-0.17,0.1-0.34,0.21-0.51,0.31c0,0.07,0,0.14,0,0.24
	c-0.48,0.1-0.86,0.58-1.44,0.51c-0.03,0.21-0.07,0.38-0.1,0.62c-0.24,0-0.48,0.03-0.72,0.03c-0.21,0.24,0.03,0.55-0.17,0.82
	c-0.1,0-0.24,0.03-0.48,0.03c-0.07,0.1-0.14,0.24-0.31,0.51c0,0.03,0,0.14,0,0.24c-0.24,0.21-0.48,0.07-0.72,0.1
	c-0.27,0.14-0.38,0.38-0.48,0.65c-0.07,0-0.14,0-0.21,0c-0.21,0.21-0.38,0.38-0.55,0.55c0,0.07,0,0.14,0,0.21
	c-0.1,0.1-0.21,0.21-0.31,0.31c-0.65,0-1.27,0-1.92,0c-0.03,0-0.07,0.03-0.1,0.07c-0.03,0.14-0.07,0.31-0.07,0.45
	c-0.14,0.14-0.21,0.24-0.31,0.34c-0.17,0-0.31,0-0.45,0c-0.24,0.24,0.03,0.55-0.17,0.82c-0.21,0-0.45,0.03-0.69,0.03
	c-0.21,0.24,0.03,0.55-0.17,0.82c-0.41,0-0.89,0-1.3,0c-0.17,0.21-0.07,0.38-0.1,0.55c-0.21,0.21-0.38,0.38-0.55,0.55
	c-0.07,0-0.14,0-0.21,0c-0.14,0.21-0.24,0.41-0.38,0.62c-0.17,0-0.31,0.03-0.55,0.03c-0.03,0.07-0.14,0.24-0.21,0.41
	c-0.03-0.03-0.07-0.07-0.1-0.1c0,0.14,0,0.27,0,0.41c-0.07,0.03-0.1,0.1-0.17,0.1c-0.41,0-0.79,0-1.23,0
	c-0.21,0.27-0.41,0.58-0.62,0.86c-0.24,0-0.41,0-0.58,0c-0.21,0.1-0.41,0.21-0.62,0.31c0,0.14,0,0.27,0,0.38
	c-0.24,0.38-0.48,0.72-0.72,1.03c-0.17,0-0.31,0-0.38,0c-0.21,0.1-0.34,0.17-0.55,0.27c0,0.03-0.03,0.14-0.07,0.31
	c-0.03,0.03-0.17,0.14-0.34,0.27c-0.34,0-0.79,0-1.3,0c-0.03,0.21-0.03,0.38-0.03,0.55c-0.1,0.1-0.21,0.21-0.31,0.31
	c-0.14,0-0.31,0-0.48,0c-0.1,0.17-0.24,0.38-0.41,0.62c-0.07,0.03-0.21,0.1-0.55,0.24c-0.1,0-0.41,0-0.65,0
	c-0.17,0.14-0.27,0.24-0.38,0.31c0,0.17,0,0.31,0,0.45c-0.24,0.21-0.48,0-0.86,0.21c-0.03,0.03-0.17,0.24-0.38,0.51
	c-0.21,0.03-0.51-0.03-0.82,0c-0.07,0.07-0.17,0.14-0.24,0.21c-0.38,0-0.72,0-1.06,0c-0.17,0.17-0.07,0.34-0.1,0.51
	c-0.34,0.31-1.03,0.24-1.1,0.89c-0.17,0.1-0.38,0.1-0.51,0.31c-0.51,0-1.03,0-1.51,0c-0.17,0.14-0.07,0.31-0.1,0.51
	c-0.07,0.1-0.17,0.21-0.31,0.34c-0.41,0-0.86,0-1.3,0c-0.14,0.31-0.24,0.58-0.38,0.86c-0.48,0.03-0.93-0.03-1.41,0.03
	c0,0.17-0.03,0.31-0.03,0.48c-0.07,0.34-0.48,0.31-0.69,0.51c-0.21,0.21-0.14,0.55-0.48,0.69c-0.38,0-0.79,0-1.2,0
	c-0.27,0.14-0.34,0.41-0.48,0.65c-0.07,0-0.14,0-0.21,0c-0.1,0.07-0.17,0.14-0.24,0.21c-0.34,0-0.72,0-1.06,0
	c-0.07-0.07-0.1-0.1-0.17-0.17c-0.21,0.07-0.38,0.17-0.58,0.27c0,0.17,0,0.31,0,0.45c-0.1,0.1-0.21,0.21-0.31,0.31
	c-0.14,0-0.27,0-0.41,0c-0.24,0.1-0.1,0.31-0.21,0.62c-0.03,0.03-0.17,0.14-0.31,0.24c-0.1,0-0.24,0-0.38,0
	c-0.03-0.03-0.1-0.1-0.17-0.17c-0.45,0-0.96,0-1.51,0c-0.03,0.03-0.1,0.1-0.24,0.21c-0.48,0-0.99,0-1.58,0
	c-0.03,0.21-0.03,0.38-0.03,0.55c-0.17,0.1-0.34,0.17-0.58,0.31c-0.51,0-1.1,0-1.71,0c-0.03,0.24-0.03,0.41-0.07,0.58
	c-0.34,0.1-0.58,0.38-0.96,0.31c-0.14,0.21-0.17,0.45-0.41,0.62c-0.55,0-1.1,0-1.61,0c-0.24,0.1-0.41,0.21-0.62,0.31
	c-0.03,0.14-0.03,0.31-0.07,0.48c-0.03,0.03-0.1,0.07-0.17,0.07c-0.48,0-0.93,0-1.41,0c-0.07,0.07-0.17,0.14-0.24,0.21
	c-0.14,0-0.27,0-0.41,0c-0.21,0.14-0.31,0.38-0.38,0.62c-0.72,0-1.41,0-2.13,0c-0.1,0.07-0.17,0.14-0.27,0.21c-0.17,0-0.38,0-0.55,0
	c-0.34,0.14-0.38,0.41-0.51,0.65c-0.14,0-0.27,0-0.41,0c-0.07,0.07-0.17,0.14-0.24,0.21c-0.34,0-0.72,0-1.06,0
	c-0.07,0.07-0.1,0.1-0.21,0.21c-0.27,0-0.58,0-0.86,0c-0.17,0.17-0.27,0.27-0.45,0.45c-0.27,0-0.58,0-0.86,0
	c-0.1,0.1-0.14,0.14-0.21,0.21c-0.99,0-2.02,0-3.05,0c-0.14,0.17-0.27,0.38-0.48,0.69c0,0.03-0.21-0.03-0.45-0.03
	c-0.07-0.1-0.21-0.31-0.27-0.41c-0.41-0.03-0.48,0.27-0.69,0.41c-0.69,0-1.41,0-2.13,0c-0.07,0.07-0.17,0.14-0.24,0.21
	c-0.27,0-0.55,0-0.89,0c-0.03,0.17-0.07,0.38-0.1,0.62c-0.31,0.03-0.62,0-0.93,0c-0.17-0.27-0.45-0.17-0.86-0.27
	c-0.03-0.03-0.17-0.17-0.34-0.34c-0.24,0.07-0.34,0.31-0.41,0.58c-0.03,0.03-0.1,0.07-0.17,0.07c-0.65,0-1.34,0-2.02,0
	c-0.21-0.21-0.41-0.41-0.62-0.62c-0.38,0-0.75,0-1.13,0c-0.07,0.24-0.14,0.48-0.38,0.62c-0.99,0-1.99,0-2.98,0
	c-0.03,0.07-0.1,0.1-0.21,0.21c-0.24,0.07-0.55-0.03-0.86,0.03c-0.07-0.07-0.14-0.14-0.17-0.17c-0.07-0.03-0.14-0.07-0.21-0.07
	c-0.48,0-0.93,0-1.37,0c-0.07,0.07-0.14,0.14-0.21,0.21c-0.41,0-0.82,0-1.3,0c-0.03-0.03-0.1-0.1-0.24-0.21c-1.03,0-2.13,0-3.22,0
	c-0.07-0.27-0.14-0.51-0.38-0.65c-0.51,0-0.99,0-1.51,0c-0.07-0.03-0.14-0.1-0.17-0.14c0-0.03-0.03-0.07-0.07-0.07
	c-0.79,0-1.58,0-2.37,0c-0.1-0.21-0.24-0.41-0.34-0.62c-0.96,0-1.92,0-2.91,0c-0.03,0.1-0.03,0.21-0.07,0.31
	c0.21,0.1,0.38,0.17,0.69,0.34c0.17,0,0.48,0,0.79,0c0.03,0.21,0.07,0.38,0.07,0.51c0.14,0.14,0.24,0.24,0.31,0.34
	c0.45,0,0.89,0,1.3,0c0.1,0.14,0.27,0.21,0.31,0.31c0,0.31-0.21,0.34-0.31,0.51c-0.69,0-1.41,0-2.16,0
	c-0.07-0.07-0.21-0.17-0.27-0.27c-0.07-0.1-0.1-0.24-0.1-0.27c-0.24-0.14-0.38-0.21-0.55-0.31c-0.38,0-0.82,0-1.23,0
	c-0.21-0.21-0.41-0.41-0.62-0.62c-0.21,0-0.41,0-0.62,0c-0.41-0.34-1.03-0.41-1.34-0.86c-0.14,0-0.24,0-0.34,0
	c-0.31,0.24-0.31,0.24-0.48,0.62c-0.14,0-0.27,0-0.41,0c-0.14-0.21-0.27-0.41-0.41-0.62c-0.21,0-0.34,0-0.48,0
	c-0.1,0.21-0.21,0.41-0.34,0.62c-0.24,0-0.45,0-0.62,0c-0.17,0.1-0.31,0.21-0.45,0.27c-0.14-0.1-0.21-0.17-0.31-0.24
	c-0.27,0-0.55,0-0.82,0c-0.14-0.24-0.21-0.51-0.48-0.65c-0.34,0-0.72,0-1.06,0c-0.21-0.21-0.38-0.38-0.55-0.55c0-0.07,0-0.14,0-0.21
	c-0.1-0.1-0.21-0.21-0.31-0.31c-0.17,0-0.34-0.03-0.51-0.03c-0.03-0.21-0.03-0.38-0.07-0.55c-0.03-0.03-0.03-0.07-0.07-0.07
	c-0.41,0-0.86,0-1.27,0c-0.07-0.1-0.17-0.17-0.24-0.24c-0.14,0-0.27,0-0.41,0c-0.1-0.1-0.21-0.21-0.31-0.31c0-0.07,0-0.14,0-0.21
	c-0.34-0.1-0.58-0.45-0.99-0.31c-0.1-0.31-0.21-0.51-0.41-0.65c-0.14,0-0.27,0-0.41,0c-0.07-0.07-0.17-0.14-0.24-0.21
	c-0.14,0-0.27,0-0.41,0c-0.17-0.17-0.07-0.34-0.1-0.51c-0.14-0.27-0.41-0.34-0.65-0.48c-0.21-0.14-0.38-0.34-0.55-0.51
	c-0.17,0-0.31,0-0.45,0c-0.1-0.1-0.21-0.21-0.31-0.31c0-0.17-0.03-0.34-0.03-0.51c-0.17-0.03-0.34-0.03-0.51-0.07
	c-0.31-0.21-0.27-0.62-0.62-0.82c-0.14,0-0.27,0-0.38,0c-0.17-0.1-0.34-0.17-0.55-0.31c-0.07-0.1-0.17-0.31-0.31-0.51
	c-0.41,0-0.79,0-1.2,0c-0.03,0.07-0.03,0.17-0.07,0.27c0.34,0.1,0.55,0.31,0.75,0.55c0.14,0,0.27,0,0.41,0
	c0.21,0.1,0.1,0.31,0.14,0.48c0.1,0.17,0.21,0.34,0.45,0.38c0.34,0.03,0.34,0.38,0.48,0.62c0.14,0,0.27,0,0.41,0
	c0.1,0.1,0.21,0.21,0.31,0.31c0.03,0.14,0.03,0.31,0.07,0.48c0.14,0.17,0.31,0.07,0.51,0.1c0.07,0.07,0.17,0.21,0.27,0.31
	c0,0.17,0,0.34,0,0.48c-0.03,0.03-0.07,0.07-0.1,0.07c-0.45,0-0.86,0-1.3,0c-0.07-0.65-0.65-0.72-1.1-0.93
	c-0.03-0.17-0.03-0.34-0.07-0.51c-0.17-0.14-0.34-0.03-0.51-0.07c-0.07-0.07-0.17-0.14-0.24-0.21c-0.14,0-0.27,0-0.41,0
	c-0.1-0.21-0.24-0.41-0.34-0.62c-0.24,0-0.45,0-0.69,0c-0.1-0.14-0.31-0.24-0.31-0.38c-0.03-0.27-0.21-0.34-0.34-0.51
	c-0.14,0-0.27,0-0.41,0c-0.07-0.07-0.17-0.14-0.24-0.21c-0.14,0-0.27,0-0.41,0c-0.27-0.55-0.27-0.55-1.17-0.93
	c0-0.14-0.03-0.31-0.03-0.48c-0.21-0.21-0.48-0.07-0.72-0.1c-0.07-0.07-0.17-0.14-0.24-0.21c-0.14,0-0.27,0-0.41,0
	c-0.1-0.21-0.24-0.41-0.34-0.62c-0.21-0.03-0.38-0.07-0.51-0.07c-0.14-0.14-0.24-0.21-0.34-0.31c0-0.17,0-0.31,0-0.45
	c-0.14-0.17-0.31-0.07-0.51-0.1c-0.1-0.07-0.21-0.17-0.31-0.27c-0.03-0.14-0.03-0.31-0.07-0.48c-0.17-0.14-0.34-0.03-0.51-0.07
	c-0.07-0.07-0.1-0.1-0.21-0.21c-0.1,0-0.27-0.03-0.48-0.03c-0.03-0.07-0.03-0.17-0.1-0.34c-0.14-0.1-0.31-0.27-0.55-0.48
	c-0.1,0-0.27-0.03-0.41-0.03c-0.17-0.24,0.07-0.55-0.24-0.69c-0.03-0.24-0.03-0.48-0.07-0.72c-0.17-0.14-0.34-0.03-0.51-0.07
	c-0.17-0.14-0.07-0.31-0.14-0.55c-0.07-0.03-0.14-0.14-0.27-0.27c-0.14,0-0.27-0.03-0.51-0.03c-0.03-0.07-0.14-0.21-0.27-0.41
	c0-0.03,0-0.17,0-0.31c-0.17-0.17-0.34-0.03-0.58-0.14c-0.07-0.03-0.17-0.14-0.27-0.24c-0.03-0.14-0.03-0.31-0.07-0.48
	c-0.17-0.14-0.34-0.03-0.51-0.07c-0.1-0.1-0.21-0.21-0.31-0.31c0-0.17-0.03-0.34-0.03-0.51c-0.21-0.03-0.38-0.03-0.55-0.07
	c-0.14-0.17-0.03-0.34-0.07-0.51c-0.07-0.07-0.1-0.1-0.21-0.21c0-0.21,0-0.45,0-0.62c-0.21-0.38-0.65-0.38-0.86-0.69
	c0-0.21-0.03-0.45-0.03-0.72c-0.21-0.03-0.38-0.03-0.55-0.07c-0.03-0.03-0.07-0.03-0.07-0.07c0-0.38,0-0.72,0-1.1
	c-0.1-0.1-0.24-0.17-0.38-0.31c-0.1,0-0.24,0-0.38,0c-0.1-0.1-0.21-0.17-0.34-0.31c0-0.45,0-0.89,0-1.3c-0.07-0.07-0.07-0.1-0.1-0.1
	c-0.14,0-0.31,0-0.48,0c-0.03-0.21-0.03-0.48-0.14-0.58c-0.21-0.17-0.17-0.38-0.17-0.58c-0.14-0.27-0.41-0.38-0.65-0.48
	c0-0.14,0-0.27,0-0.34c-0.14-0.24-0.21-0.45-0.31-0.62c-0.14,0-0.27,0-0.41,0c-0.27-0.21-0.03-0.55-0.17-0.79
	c-0.07-0.07-0.1-0.1-0.21-0.21c0-0.27,0-0.58,0-0.89c-0.27-0.1-0.51-0.17-0.65-0.41c0-0.21,0-0.41,0-0.62
	c-0.07-0.07-0.14-0.17-0.21-0.24c0-0.07,0-0.14,0-0.24c-0.17-0.03-0.38-0.07-0.62-0.1c0-0.31,0-0.62,0-0.89
	c-0.1-0.1-0.14-0.14-0.24-0.24c0-0.21,0-0.45,0-0.65c-0.21-0.17-0.38-0.07-0.55-0.1c-0.03-0.07-0.1-0.1-0.1-0.17
	c0-0.34,0-0.69,0-0.99c-0.1-0.1-0.14-0.14-0.21-0.21c-0.03-0.58,0-1.2-0.03-1.78c-0.14-0.03-0.24-0.07-0.34-0.1
	c-0.1-0.17-0.14-0.38-0.27-0.55c-0.1-0.1,0.07-0.34-0.1-0.48c-0.21-0.14-0.07-0.38-0.14-0.58c-0.14-0.17-0.34-0.03-0.55-0.14
	c-0.14-0.17-0.07-0.45-0.03-0.72c0.17-0.14,0.34-0.03,0.51-0.07c0.03-0.07,0.1-0.1,0.1-0.17c0-0.38,0-0.72,0-1.1
	c-0.21,0-0.38-0.03-0.55-0.03c-0.03-0.07-0.1-0.1-0.1-0.17c0-0.58,0-1.2,0-1.82c-0.07-0.07-0.14-0.17-0.21-0.24
	c0-0.14,0-0.31,0-0.48c-0.17-0.07-0.38-0.1-0.62-0.14c-0.03-0.27,0-0.62,0-0.96c0.21-0.03,0.41-0.07,0.62-0.1c0-0.45,0-0.93,0-1.37
	c-0.03-0.03-0.03-0.07-0.07-0.07c-0.14,0-0.27,0-0.41,0c-0.07-0.17-0.17-0.34-0.31-0.62c0-0.48,0-1.03,0-1.65
	c0.07-0.17,0.38-0.24,0.17-0.51c0.24-0.03,0.41-0.03,0.58-0.07c0.03-0.07,0.07-0.14,0.07-0.21c0-0.96,0-1.95,0-2.95
	c-0.21-0.03-0.38-0.07-0.58-0.1c-0.03,0-0.07-0.03-0.07-0.07c0-0.55,0-1.13,0-1.75c0.21-0.03,0.41-0.07,0.62-0.1
	c0-0.24,0-0.48,0-0.72c-0.17-0.14-0.34-0.03-0.51-0.07c-0.03-0.07-0.1-0.1-0.1-0.17c0-0.41,0-0.86,0-1.23
	c0.21-0.17,0.38-0.07,0.55-0.1c0.1-0.1,0.21-0.21,0.31-0.31c0.03-0.75,0-1.47,0.03-2.23c0.21-0.03,0.38-0.03,0.55-0.07
	c0.14-0.17,0.03-0.34,0.07-0.51c0-0.14,0-0.27,0-0.41c0.07-0.07,0.1-0.1,0.21-0.21c0-0.07,0.03-0.21,0.03-0.38
	c-0.07-0.07-0.1-0.14-0.21-0.27c0-0.1,0-0.27,0-0.45c0.07-0.07,0.1-0.1,0.21-0.21c0-0.27,0-0.58,0-0.96
	c0.21-0.03,0.38-0.03,0.55-0.03c0.1-0.1,0.21-0.21,0.31-0.31c0-0.34,0-0.69,0-1.06c-0.14-0.14-0.24-0.24-0.24-0.45
	c0-0.1-0.21-0.17-0.21-0.24c0.07-0.31,0.24-0.38,0.34-0.51c0.21,0,0.45,0,0.65,0c0.03-0.07,0.1-0.1,0.1-0.17c0-0.45,0-0.86,0-1.23
	c0.1-0.1,0.14-0.14,0.21-0.21c0-0.41,0-0.86,0-1.27c0.24-0.14,0.51-0.21,0.65-0.48c0-0.14,0-0.27,0-0.41
	c0.07-0.07,0.14-0.17,0.21-0.24c0-0.58,0-1.13,0-1.75c0.21-0.03,0.41-0.07,0.62-0.1c0-0.31,0-0.58,0-0.86
	c0.07-0.1,0.14-0.17,0.21-0.27c0-0.17,0-0.38,0-0.62c0.14-0.07,0.27-0.14,0.41-0.21c0.21-0.1,0.17-0.38,0.31-0.51
	c0.14-0.14,0.07-0.31,0.17-0.45c0.21-0.03,0.38-0.03,0.58-0.07c0-0.41,0-0.79,0-1.13c0.14-0.14,0.24-0.24,0.34-0.34
	c0.17,0,0.31,0,0.45,0c0.17-0.14,0.07-0.31,0.1-0.51c0.07-0.07,0.14-0.17,0.21-0.24c0-0.24,0.03-0.48,0.03-0.72
	c0.21-0.03,0.38-0.03,0.55-0.07c0.14-0.24,0.03-0.48,0.07-0.75c0.14-0.07,0.27-0.24,0.41-0.27c0.21-0.03,0.27-0.24,0.45-0.31
	c0-0.31,0-0.65,0-0.89c0.24-0.34,0.69-0.31,0.86-0.65c0-0.14,0-0.27,0-0.41c0.07-0.07,0.1-0.1,0.21-0.21c0-0.21,0-0.45,0-0.72
	c0.21-0.03,0.41-0.07,0.65-0.1c0-0.45,0-0.93,0-1.3c0.17-0.17,0.24-0.27,0.34-0.38c0.17,0,0.31,0,0.45,0
	c0.1-0.1,0.21-0.21,0.31-0.31c0-0.14,0-0.27,0-0.41c0.24-0.1,0.48-0.24,0.65-0.48c0-0.14,0-0.27,0-0.41c0.1-0.1,0.21-0.21,0.31-0.31
	c0.14,0,0.27,0,0.48,0c0.03-0.24,0.07-0.51,0.1-0.79c0.27-0.14,0.07-0.45,0.24-0.69c0.1-0.03,0.24-0.03,0.31-0.03
	c0.38-0.38,0.69-0.69,1.13-1.13c0-0.07,0-0.31,0-0.58c0.41,0,0.79,0,1.03,0c0.31-0.17,0.48-0.24,0.65-0.34c0-0.24,0-0.45,0-0.65
	c0.07-0.07,0.14-0.17,0.21-0.24c0-0.14,0-0.27,0-0.41c0.17-0.27,0.62,0.14,0.69-0.31c0.17,0,0.31,0,0.45,0
	c0.03-0.03,0.07-0.03,0.07-0.07c-0.03-0.45,0.45-0.82,0.24-1.3c0.31-0.14,0.62-0.31,0.89-0.45c0-0.14,0-0.27,0-0.41
	c0.1-0.21,0.31-0.1,0.51-0.14c0.07-0.07,0.17-0.17,0.31-0.27c0.03-0.14,0.03-0.31,0.07-0.48c0.14-0.14,0.24-0.24,0.38-0.38
	c0.03-0.17,0.03-0.34,0.07-0.55c0.24,0,0.48-0.03,0.72-0.03c0.31-0.17,0.31-0.62,0.62-0.82c0.14,0,0.27,0,0.41,0
	c0.1-0.1,0.21-0.21,0.31-0.31c0.03-0.17,0.03-0.34,0.07-0.51c0.24-0.07,0.55-0.14,0.58-0.38c0.03-0.24,0.21-0.34,0.34-0.51
	c0.14,0,0.27,0,0.41,0c0.1-0.1,0.21-0.21,0.31-0.31c0.03-0.14,0.03-0.31,0.07-0.48c0.14-0.17,0.34-0.07,0.51-0.1
	c0.07-0.1,0.17-0.21,0.27-0.31c0.03-0.17,0.03-0.34,0.07-0.51c0.38-0.1,0.79,0,1.17-0.07c0.31-0.21,0.27-0.62,0.62-0.82
	c0.21,0,0.41,0,0.62,0c0.41-0.24,0.38-0.93,0.99-0.93c0-0.17,0-0.31,0-0.48c0.1-0.1,0.21-0.21,0.38-0.34c0.41,0,0.86,0,1.34,0
	c0-0.21,0.03-0.38,0.03-0.55c0.27-0.14,0.55-0.24,0.82-0.38c0.27-0.14,0.24-0.55,0.55-0.75c0.24,0,0.55,0,0.86,0
	c0.1-0.14,0.31-0.24,0.31-0.38c0.03-0.27,0.24-0.34,0.34-0.51c0.17,0,0.31,0,0.45,0c0.34-0.21,0.31-0.65,0.65-0.86
	c0.17,0,0.38,0,0.65,0c0.21-0.31,0.41-0.62,0.62-0.89c0.24,0,0.45,0,0.58,0c0.21-0.1,0.34-0.17,0.55-0.27
	c0-0.03,0.03-0.14,0.07-0.31c0.03-0.07,0.14-0.14,0.31-0.27c0.1,0,0.24,0,0.38,0c0.1-0.1,0.21-0.21,0.31-0.31
	c0.03-0.14,0.03-0.31,0.07-0.48c0.03-0.03,0.03-0.07,0.07-0.07c0.38,0,0.72,0,1.06,0c0.34-0.17,0.31-0.62,0.69-0.86
	c0.27,0,0.58,0,0.79,0c0.17-0.14,0.27-0.24,0.38-0.31c0-0.1,0-0.17,0-0.24c0.17-0.1,0.34-0.17,0.58-0.31c0.07,0,0.24,0,0.41,0
	c0.14-0.17,0.24-0.38,0.41-0.62c0.24,0,0.51-0.14,0.79-0.24c0.31-0.1,0.31-0.45,0.48-0.65c0.14,0,0.27,0,0.41,0
	c0.07-0.07,0.17-0.14,0.24-0.21c0.34,0,0.72,0,1.06,0c0.38-0.17,0.31-0.65,0.75-0.86c0.03,0,0.17,0,0.31,0
	c0.21-0.14,0.41-0.27,0.38-0.55c0.17-0.1,0.34-0.17,0.58-0.31c0.1,0,0.24,0,0.41,0c0.1-0.21,0.27-0.45,0.41-0.65
	c0.21,0.07,0.27-0.17,0.45-0.21c0.1,0,0.21,0,0.31,0c0.31-0.1,0.31-0.45,0.48-0.65c0.14,0,0.27,0,0.41,0
	c0.07-0.07,0.17-0.14,0.24-0.21c0.21,0,0.45,0,0.65,0c0.17-0.1,0.07-0.31,0.1-0.51c0.07-0.07,0.17-0.17,0.27-0.31
	c0.21,0,0.41,0,0.69,0c0.17-0.24,0.38-0.48,0.48-0.65c0.38,0,0.58,0,0.82,0c0.27-0.27,0.55-0.58,0.82-0.86c0.24,0,0.45,0,0.58,0
	c0.21-0.14,0.41-0.21,0.51-0.27c0.17-0.24,0.31-0.45,0.41-0.62c0.21,0,0.34,0,0.48,0c0.03-0.03,0.1-0.1,0.17-0.17
	c0.14,0,0.31-0.03,0.48-0.03c0.31-0.21,0.31-0.62,0.62-0.82c0.48-0.03,0.93,0.03,1.37-0.03c0.03-0.1,0.07-0.17,0.07-0.24
	c0-0.03,0.03-0.07,0.03-0.1c0.03-0.03,0.03-0.07,0.07-0.07c0.07,0,0.14,0,0.21,0c0.07-0.1,0.17-0.17,0.24-0.24c0.27,0,0.58,0,0.86,0
	c0.1-0.1,0.21-0.21,0.31-0.31c0.03-0.17,0.03-0.34,0.03-0.55c0.51,0,0.96,0,1.37,0c0.1-0.1,0.21-0.21,0.31-0.31
	c0-0.14,0.03-0.31,0.03-0.48c0.07-0.03,0.1-0.1,0.17-0.1c0.38,0,0.79,0,1.2,0c0.14-0.27,0.31-0.58,0.45-0.86c0.17,0,0.31,0,0.45,0
	c0.14-0.14,0.21-0.21,0.31-0.31c0.03-0.14,0.03-0.24,0.07-0.34c0.14-0.03,0.27-0.03,0.45-0.03c0.27-0.07,0.27-0.41,0.45-0.62
	c0.14,0,0.27,0,0.45,0c0.03-0.14,0.07-0.24,0.1-0.38c0.21-0.17,0.48-0.03,0.62-0.07c0.21-0.1,0.38-0.17,0.62-0.31
	c0.14-0.14,0.34-0.34,0.55-0.55c0.17,0,0.41,0,0.58,0c0.27-0.14,0.38-0.41,0.48-0.65c0.07,0,0.14,0,0.21,0
	c0.07-0.07,0.1-0.1,0.21-0.21c0.27,0,0.58,0,0.89,0c0.14-0.31,0.24-0.58,0.38-0.86c0.14,0,0.27,0,0.38,0
	c0.24-0.17,0.51-0.31,0.41-0.65c0.24,0,0.38,0,0.51,0c0.07-0.07,0.17-0.14,0.24-0.21c0.21,0,0.41,0,0.65,0
	c0.1-0.27,0.24-0.55,0.38-0.86c0.45,0,0.89,0,1.37,0c0.03-0.14,0.03-0.21,0.07-0.34c0.21-0.24,0.45-0.51,0.79-0.62
	c0.21-0.07,0.27-0.31,0.31-0.51c0.17-0.07,0.31-0.14,0.65-0.27c0.14,0,0.45,0,0.72,0c0.17-0.24,0.45-0.34,0.31-0.65
	c0.31,0,0.51,0,0.72,0c0.07-0.07,0.17-0.14,0.24-0.21c0.34,0,0.72,0,1.06,0c0.34-0.17,0.31-0.62,0.69-0.86c0.31,0,0.69,0,1.06,0
	c0.1-0.17,0.27-0.24,0.31-0.45c0-0.17,0.17-0.27,0.27-0.41c0.14,0,0.31,0,0.48,0c0.1-0.17,0.24-0.34,0.38-0.58
	c0.45,0,0.82-0.41,1.3-0.24c0.24-0.58,0.24-0.58,1.13-0.96c0.03-0.07,0.03-0.17,0.07-0.27c0.51-0.1,0.86-0.55,1.41-0.51
	c0.14-0.17,0.03-0.34,0.07-0.51c0.1-0.1,0.21-0.21,0.31-0.31c0.21,0,0.41,0,0.65,0c0.27-0.27,0.55-0.58,0.82-0.86
	c0.17,0,0.31,0,0.45,0c0.1-0.17,0.21-0.38,0.31-0.51c0.1-0.14,0.24-0.27,0.34-0.38c0.17,0,0.31,0,0.45,0
	c0.17-0.14,0.07-0.31,0.14-0.55c0.03-0.07,0.14-0.17,0.24-0.27c0.14-0.03,0.31-0.03,0.48-0.07c0.17-0.17,0-0.34,0.21-0.72
	c0,0,0.17,0.1,0.41,0.07c0.21-0.27,0.41-0.58,0.62-0.86c0.17,0,0.31,0,0.45,0c0.03-0.03,0.1-0.1,0.17-0.17
	c0.14,0,0.31-0.03,0.48-0.03c0.17-0.14,0.03-0.34,0.14-0.58c0.07-0.03,0.21-0.21,0.34-0.24c0.24-0.03,0.41-0.21,0.45-0.38
	c0.03-0.21,0.14-0.31,0.27-0.41c0.17-0.14,0.14-0.31,0.24-0.45c0.1-0.1,0.21-0.24,0.41-0.27c0.21-0.03,0.38-0.21,0.58-0.31
	c0.03-0.07,0.03-0.14,0.03-0.24c0.55-0.34,0.72-1.06,1.27-1.44c0-0.51,0-1.03,0-1.51c0.14-0.14,0.27-0.27,0.45-0.45
	c-0.17-0.14-0.34-0.24-0.45-0.31c0-0.58,0-1.1,0-1.61c-0.34-0.14-0.38-0.55-0.62-0.79c-0.21-0.24-0.45-0.45-0.55-0.75
	c-0.07-0.17-0.27-0.31-0.55-0.31c-0.03-0.17-0.03-0.34-0.03-0.51c-0.1-0.1-0.21-0.21-0.31-0.31c-0.14,0-0.27,0-0.45,0
	c-0.14-0.27-0.24-0.55-0.38-0.82c-0.21-0.1-0.41,0.03-0.62-0.03c-0.21-0.1-0.41-0.21-0.62-0.31c0-0.07,0-0.14,0-0.21
	c-0.1-0.1-0.21-0.21-0.31-0.31c-0.34,0-0.72,0-1.03,0c-0.41-0.14-0.31-0.62-0.79-0.86c-0.41-0.03-0.93,0.03-1.44,0
	c-0.1-0.1-0.21-0.21-0.31-0.31c0-0.07,0-0.14,0-0.27c-0.1-0.03-0.24-0.03-0.38-0.07c-0.03,0.14-0.03,0.24-0.07,0.34
	c-0.1,0.1-0.21,0.21-0.31,0.31c-0.14,0-0.27,0-0.48,0c-0.1-0.17-0.24-0.34-0.41-0.62c-0.51,0-1.13,0-1.68,0
	c-0.07-0.07-0.14-0.14-0.21-0.21c-2.09,0-4.18,0-6.27,0c-0.07,0.07-0.1,0.1-0.21,0.21c-0.79,0-1.61,0-2.4,0
	c-0.03,0.27-0.17,0.48-0.38,0.62c-0.79,0-1.58,0-2.36,0c-0.03,0.03-0.1,0.1-0.14,0.14c-0.07,0.03-0.14,0.07-0.21,0.07
	c-0.48,0-0.93,0-1.37,0c-0.1-0.07-0.17-0.14-0.27-0.24c-0.21,0.1-0.45,0.24-0.69,0.34c0,0.17,0,0.31,0,0.45
	c-0.07,0.03-0.1,0.1-0.17,0.1c-1.27,0-2.5,0-3.77,0c-0.14,0.14-0.31,0.21-0.51,0.27c0,0.07-0.03,0.17-0.07,0.31
	c-0.1,0.03-0.21,0.03-0.31,0.07c-0.03,0.07-0.14,0.14-0.21,0.21c-0.51,0-1.03,0-1.51,0c-0.07,0.07-0.1,0.1-0.21,0.21
	c-0.41,0-0.86,0-1.34,0c0,0.14-0.03,0.24-0.07,0.38c-0.07,0.07-0.17,0.17-0.31,0.27c-0.55,0-1.1,0-1.68,0
	c-0.07,0.07-0.14,0.14-0.24,0.21c-0.14,0-0.27,0-0.41,0c-0.1,0.1-0.1,0.1-0.17,0.58c0,0.03-0.03,0.07-0.07,0.07
	c-0.24,0-0.45,0-0.65,0c-0.07,0.07-0.1,0.1-0.21,0.21c-0.21,0-0.45,0.03-0.72,0.03c-0.03,0.1-0.07,0.17-0.1,0.31
	c-0.14,0.07-0.31,0.14-0.62,0.31c-0.24,0-0.62,0-0.96,0c-0.1,0.1-0.14,0.14-0.21,0.21c-0.41,0-0.86,0-1.27,0
	c-0.14,0.24-0.21,0.51-0.48,0.65c-0.14,0-0.27,0-0.41,0c-0.34,0.21-0.31,0.65-0.65,0.86c-0.1,0-0.24,0-0.34,0
	c-0.34,0.14-0.38,0.45-0.51,0.65c-0.14,0-0.27,0-0.41,0c-0.1,0.07-0.17,0.14-0.24,0.21c-0.24,0-0.45,0-0.65,0
	c-0.1-0.07-0.17-0.14-0.24-0.21c-0.31-0.07-0.45,0.41-0.79,0.21c-0.21,0.14-0.38,0.24-0.58,0.34c0.03,0.07,0.1,0.14,0.17,0.21
	c-0.17,0.17-0.34,0.07-0.51,0.1c-0.07,0.07-0.17,0.14-0.24,0.21c-0.72,0-1.41,0-2.13,0c-0.24,0.14-0.31,0.38-0.38,0.62
	c-0.21,0.1-0.51-0.07-0.65,0.24c-0.38,0.14-0.79-0.14-1.1,0.24c-0.51-0.07-0.31,0.58-0.72,0.65c-0.38,0-0.82,0-1.23,0
	c-0.34,0.21-0.34,0.65-0.65,0.86c-0.21,0-0.41,0-0.58,0c-0.17,0.07-0.27,0.31-0.48,0.24c-0.14,0.21-0.24,0.38-0.38,0.62
	c-0.45,0.07-0.89,0-1.27,0.03c-0.27,0.14-0.45,0.21-0.62,0.31c0,0.07,0,0.14,0,0.24c-0.1,0.03-0.21,0.07-0.27,0.1
	c-0.07,0.07-0.17,0.14-0.27,0.21c-0.38,0-0.79,0-1.2,0c-0.17,0.1-0.27,0.31-0.48,0.24c-0.1,0.24-0.24,0.48-0.48,0.65
	c-0.21,0-0.41,0-0.62,0c-0.34,0.21-0.34,0.65-0.65,0.86c-0.55,0-1.13,0-1.68,0c-0.17,0.17-0.38,0.24-0.58,0.31
	c0.03,0.07,0.1,0.14,0.17,0.24c-0.17,0.07-0.34,0.17-0.62,0.31c-0.31,0-0.75,0-1.13,0c-0.17,0.14-0.27,0.24-0.38,0.31
	c0,0.17,0,0.31,0,0.45c-0.1,0.1-0.21,0.21-0.31,0.31c-0.07,0-0.14,0-0.21,0c-0.14,0.21-0.24,0.41-0.34,0.55
	c-0.07,0.07-0.1,0.1-0.14,0.1c-0.03,0-0.07,0-0.1,0c-0.62,0-1.2,0-1.78,0c-0.34,0.21-0.31,0.65-0.65,0.86c-0.48,0-0.96,0-1.51,0
	c-0.07,0.1-0.17,0.21-0.27,0.34c0,0.03,0.07,0.1,0.17,0.24c-0.1,0.21-0.21,0.41-0.31,0.69c-0.1,0-0.17,0-0.31,0
	c-0.03-0.1-0.03-0.21-0.07-0.31c-0.03-0.03-0.03-0.07-0.07-0.07c-0.45,0-0.86,0-1.34,0c-0.07,0.03-0.17,0.14-0.27,0.24
	c0.03,0.21,0.21,0.27,0.31,0.38c0.17,0,0.38,0,0.58,0c0.1,0.07,0.21,0.14,0.31,0.21c0.07,0.03,0.17,0.03,0.27,0.07
	c0,0.17,0,0.31,0,0.45c-0.07,0.03-0.1,0.1-0.17,0.1c-0.72,0-1.47,0-2.19,0c0-0.1,0-0.21,0-0.31c-0.1-0.1-0.21-0.21-0.34-0.34
	c-0.21,0.07-0.45-0.07-0.69,0.07c-0.1,0.14-0.34,0.24-0.21,0.51c0.03,0.03,0.03,0.07,0.07,0.07c0.38,0,0.79,0,1.17,0
	c0,0.21,0,0.38,0,0.55c-0.21,0.21-0.38,0.38-0.55,0.55c-0.21,0-0.41,0-0.69,0c-0.03,0.21-0.07,0.38-0.1,0.62
	c-0.1,0-0.21,0-0.31,0.03c-0.21-0.34-0.03-0.69-0.1-0.96c0.1-0.1,0.14-0.14,0.21-0.21c-0.24-0.31-0.58-0.41-0.93-0.55
	c-0.07,0.1-0.17,0.17-0.24,0.24c-0.41,0-0.86,0-1.3,0c-0.07,0.14-0.24,0.27-0.27,0.41c0,0.21-0.21,0.27-0.27,0.45
	c-0.14,0.03-0.27,0.03-0.45,0.03c-0.27,0.07-0.27,0.41-0.45,0.62c-0.14,0-0.27,0-0.41,0c-0.07,0.07-0.17,0.14-0.24,0.21
	c-0.21,0-0.45,0-0.65,0c-0.1,0.1-0.1,0.1-0.07,0.58c0,0.03,0.03,0.07,0.07,0.07c0.41,0,0.86,0,1.27,0c0.14-0.17,0.41-0.24,0.31-0.51
	c0.17-0.07,0.38-0.17,0.62-0.31c0.17,0,0.48,0,0.79,0c0.07,0.07,0.17,0.17,0.31,0.27c0,0.17,0,0.31,0,0.48
	c-0.14,0.17-0.51-0.03-0.48,0.31c-0.21,0-0.34,0-0.48,0c-0.24,0.24-0.45,0.48-0.69,0.69c-0.27,0.21-0.21,0.58-0.69,0.79
	c-0.14,0-0.45,0-0.69,0c-0.27,0.21-0.45,0.38-0.58,0.51c-0.03,0.14-0.07,0.24-0.1,0.34c-0.17,0-0.31,0-0.45,0
	c-0.07,0.07-0.17,0.14-0.24,0.21c-0.41,0-0.86,0-1.3,0c-0.1,0.1-0.21,0.21-0.31,0.34c-0.03,0.14-0.03,0.31-0.07,0.51
	c-0.17,0-0.34,0.03-0.51,0.03c-0.1,0.1-0.21,0.21-0.31,0.31c0,0.07,0,0.14,0,0.21c-0.1,0.1-0.21,0.21-0.31,0.31
	c-0.34,0-0.72,0-1.1,0c-0.1,0.1-0.27,0.24-0.31,0.38c-0.03,0.21-0.17,0.27-0.27,0.41c-0.21,0.1-0.41,0.03-0.62,0.07
	c-0.21,0.14-0.41,0.24-0.62,0.34c0,0.07,0,0.14,0,0.21c-0.21,0.21-0.45,0.07-0.72,0.1c-0.07,0.07-0.14,0.14-0.24,0.21
	c-0.21,0-0.41,0-0.62,0c-0.14,0.24-0.24,0.51-0.48,0.65c-0.14,0-0.27,0-0.41,0c-0.17,0.21-0.38,0.38-0.51,0.51
	c-0.03,0.14-0.03,0.24-0.07,0.34c-0.38,0-0.72,0-1.06,0c-0.27,0.31-0.55,0.58-0.82,0.86c-0.45,0-0.82,0-1.2,0
	c-0.14,0.34-0.45,0.17-0.65,0.27c-0.21,0.45-0.41,0.86-0.62,1.27c-0.17,0-0.31,0-0.45,0c-0.1,0.07-0.17,0.14-0.24,0.21
	c-0.21,0-0.38,0-0.55,0c-0.27,0.17-0.58,0.24-0.79,0.48c-0.17,0.24-0.38,0.41-0.58,0.62c-0.1,0-0.17,0-0.24,0
	c-0.17,0.17-0.45,0.27-0.31,0.62c-0.38-0.03-0.69,0.1-0.93,0.24c-0.27,0.17-0.51,0.41-0.69,0.65c-0.17,0.24-0.27,0.51-0.41,0.82
	c-0.27,0-0.55,0-0.79,0c-0.24,0.1-0.45,0.24-0.65,0.34c0,0.07,0,0.14,0,0.21c-0.1,0.1-0.21,0.21-0.31,0.31c-0.34,0-0.72,0-1.06,0
	c-0.07,0.17-0.17,0.38-0.31,0.62c0,0.1,0,0.34,0,0.62c-0.21,0.17-0.45,0.38-0.65,0.55c0,0.21,0,0.34,0,0.48
	c-0.1,0.1-0.21,0.21-0.31,0.31c-0.17,0-0.31,0-0.45,0c-0.1,0.17-0.17,0.38-0.31,0.62c0,0.14,0,0.34,0,0.55
	c-0.24,0.17-0.51,0.21-0.65,0.48c0,0.14,0,0.27,0,0.34c-0.14,0.24-0.21,0.45-0.31,0.62c-0.21,0-0.41,0-0.62,0
	c-0.21,0.14-0.17,0.45-0.38,0.58c-0.31,0.21-0.48,0.41-0.58,0.69c-0.1,0.31-0.31,0.41-0.62,0.48c0,0.14-0.03,0.27-0.03,0.45
	c-0.07,0.21-0.31,0.34-0.48,0.55c-0.07,0.03-0.17,0.03-0.27,0.07c-0.1,0.1-0.1,0.21,0,0.38c0.38,0,0.75,0,1.1,0
	c0.14-0.1,0.24-0.17,0.34-0.27c0-0.24,0-0.45,0-0.69c0.1-0.03,0.17-0.07,0.38-0.14c0.07-0.1,0.24-0.31,0.45-0.55
	c0-0.1,0-0.31,0-0.58c0.14-0.1,0.24-0.21,0.41-0.34c0.1,0.07,0.24,0.14,0.41,0.24c0.14,0,0.34,0,0.62,0c0.1,0.1,0.21,0.24,0.31,0.38
	c-0.03,0.03-0.03,0.1-0.03,0.17c-0.17,0.14-0.34,0.03-0.51,0.07c-0.03,0.07-0.1,0.14-0.1,0.17c0.03,0.45-0.14,0.82-0.34,1.17
	c-0.07,0.07-0.07,0.17-0.14,0.31c-0.14,0.07-0.34,0.21-0.58,0.34c-0.03,0.51,0,1.06-0.03,1.58c-0.21,0.21-0.41,0.41-0.48,0.48
	c-0.38,0.51-0.34,1.1-0.96,1.17c-0.17,0.38-0.27,0.75-0.62,1.03c-0.1,0-0.27,0-0.45,0c-0.03,0.21-0.07,0.41-0.1,0.62
	c-0.21,0-0.34,0-0.51,0c-0.1-0.1-0.21-0.21-0.31-0.31c0-0.07,0-0.17,0-0.24c-0.27-0.14-0.55-0.07-0.82-0.03
	c-0.03,0.1-0.03,0.21-0.07,0.31c-0.14,0.14-0.34,0.03-0.51,0.07c-0.07,0.07-0.17,0.14-0.24,0.21c-0.55,0-1.13,0-1.75,0
	c-0.1-0.17-0.24-0.34-0.41-0.62c-0.45,0-0.96,0-1.44,0c-0.14-0.1-0.21-0.17-0.27-0.24c-0.31,0.03-0.48,0.38-0.82,0.21
	c-0.03-0.07-0.1-0.14-0.21-0.21c-0.21,0-0.41,0-0.72,0c-0.17-0.21-0.38-0.41-0.58-0.65c-0.27-0.03-0.58,0.14-0.79-0.17
	c-0.21,0-0.41-0.03-0.62-0.03c-0.1,0.07-0.17,0.14-0.27,0.21c-0.1,0-0.24,0-0.41,0c-0.07-0.07-0.14-0.14-0.24-0.21
	c-0.51,0-0.99,0-1.51,0c-0.07,0.03-0.1,0.07-0.17,0.14c-0.21,0.14-0.48,0-0.69,0.07c-0.07-0.07-0.14-0.14-0.17-0.17
	c-0.24-0.14-0.48,0-0.69-0.07c-0.07,0.07-0.14,0.14-0.21,0.21c-0.34,0-0.69,0-0.96,0c-0.27,0.27-0.48,0.48-0.65,0.65
	c-0.86,0-1.58,0-2.33,0c-0.1-0.17-0.24-0.34-0.41-0.62c-0.27-0.07-0.69,0.03-1.06-0.03c-0.07-0.07-0.1-0.1-0.17-0.17
	c-0.14-0.03-0.31-0.03-0.51-0.07c-0.03-0.1-0.03-0.21-0.07-0.31c-0.1-0.1-0.21-0.21-0.31-0.31c-0.14,0-0.27,0-0.41,0
	c-0.07-0.07-0.17-0.14-0.24-0.21c-0.14,0-0.31,0-0.48,0c-0.03-0.21-0.07-0.38-0.1-0.58c-0.17-0.14-0.34,0-0.55-0.07
	c-0.1-0.14-0.24-0.27-0.27-0.41c-0.03-0.17-0.14-0.31-0.24-0.34c-0.48-0.17-0.75-0.58-1.13-0.93c-0.07-0.03-0.17-0.03-0.27-0.07
	c-0.1-0.27-0.24-0.55-0.38-0.82c-0.14,0-0.27,0-0.41,0c-0.07-0.07-0.14-0.14-0.24-0.21c-0.14,0-0.27,0-0.51,0
	c-0.17-0.21-0.38-0.41-0.58-0.65c-0.14,0-0.24,0-0.34,0c-0.45-0.14-0.34-0.69-0.72-0.86c-0.27,0.07-0.51-0.1-0.75-0.21
	c-0.27-0.1-0.41-0.31-0.48-0.62c-0.21,0-0.41,0-0.55,0c-0.34-0.34-0.65-0.65-0.89-0.89c-0.41,0-0.72,0-0.99,0
	c-0.21-0.14-0.31-0.34-0.38-0.58c-0.27,0-0.41-0.17-0.58-0.38c0-0.21,0-0.41,0-0.65c-0.1-0.03-0.21-0.03-0.38-0.1
	c-0.1-0.14-0.27-0.34-0.51-0.65c0-0.21,0-0.58,0-0.99c-0.21,0-0.38-0.03-0.55-0.03c-0.1-0.1-0.21-0.21-0.31-0.31
	c0-0.07,0-0.14,0-0.21c0.07-0.07,0.14-0.17,0.21-0.24c0-1.06,0-2.13,0-3.22c0.65-0.07,0.69-0.65,0.93-1.13
	c0.1,0,0.24-0.03,0.48-0.03c0.1-0.03,0.17-0.24,0.31-0.31c0-0.1,0-0.17,0-0.24c0.17-0.07,0.31-0.14,0.45-0.24
	c0.17-0.14,0.38-0.31,0.41-0.48s0.17-0.27,0.31-0.45c0.27,0,0.58,0,0.86,0c0.31-0.31,0.58-0.58,0.86-0.86c0.27,0,0.58,0,0.86,0
	c0.1-0.07,0.17-0.14,0.24-0.21c0.75,0,1.44,0,2.16,0c0.03,0.03,0.1,0.1,0.17,0.17c0.86,0,1.75,0,2.6,0c0.1-0.1,0.21-0.17,0.31-0.27
	c0-0.17,0-0.31,0-0.45c0.14-0.17,0.31-0.07,0.51-0.1c0.1-0.07,0.21-0.17,0.31-0.27c0.03-0.14,0.03-0.31,0.07-0.48
	c0.17-0.14,0.34-0.03,0.51-0.07c0.34-0.17,0.27-0.65,0.72-0.86c0.03,0,0.17,0,0.31,0c0.27-0.27,0.58-0.58,0.86-0.86
	c0.21,0,0.34,0,0.48,0c0.1-0.14,0.31-0.21,0.31-0.41c0-0.03,0-0.07,0-0.1c0.17-0.34,0.58-0.27,0.75-0.55
	c0.14-0.21,0.21-0.55,0.48-0.62c0.24-0.03,0.34-0.21,0.51-0.34c0-0.07,0-0.14,0-0.21c0.21-0.21,0.38-0.38,0.55-0.55
	c0.07,0,0.14,0,0.21,0c0.1-0.21,0.21-0.41,0.34-0.62c0.17-0.03,0.34-0.03,0.51-0.07c0.31-0.21,0.27-0.62,0.62-0.82
	c0.65,0,1.27,0,1.92,0c0.79-0.75,0.96-0.82,1.78-0.89c0.07-0.17,0.1-0.41,0.31-0.51c0.17-0.1,0.34-0.17,0.58-0.31
	c0.07,0,0.21,0,0.34,0c0.21-0.21,0.41-0.41,0.62-0.62c0.21,0,0.41,0,0.62,0c0.1-0.07,0.17-0.14,0.27-0.21
	c0.21,0,0.45-0.03,0.72-0.03c0.03-0.17,0.07-0.34,0.07-0.51c0.17-0.1,0.34-0.17,0.58-0.31c0.17,0,0.38,0,0.58,0
	c0.21-0.21,0.38-0.38,0.55-0.55c0-0.07,0-0.14,0-0.24c0.14-0.03,0.27-0.07,0.38-0.14c0.17-0.14,0.31-0.31,0.48-0.48
	c0-0.55,0-1.1,0-1.71c0.14-0.1,0.24-0.24,0.38-0.34c0.03-0.03,0.14-0.03,0.21-0.03c0.1-0.17,0.17-0.34,0.31-0.58
	c0-0.27,0-0.65,0-0.99c-0.07-0.07-0.14-0.17-0.21-0.24c0-0.14,0-0.31,0-0.48c-0.21-0.03-0.41-0.07-0.62-0.1
	c0-0.24-0.03-0.48-0.03-0.69c-0.1-0.14-0.21-0.24-0.27-0.31c-0.14-0.03-0.24-0.03-0.34-0.07c0-0.24,0-0.45,0-0.65
	c-0.1-0.1-0.17-0.24-0.24-0.31c0.07-0.41,0.41-0.45,0.65-0.62c0-0.1,0-0.24,0-0.34c0.07-0.24,0.31-0.38,0.48-0.58
	c0.07-0.03,0.17-0.03,0.31-0.07c0.03-0.1,0.07-0.24,0.14-0.34c0.03-0.1,0.14-0.17,0.24-0.27c0.1,0,0.24-0.03,0.45-0.03
	c0.1-0.1,0.31-0.21,0.31-0.34c0.03-0.27,0.21-0.34,0.34-0.51c0.14,0,0.27,0,0.41,0c0.07-0.07,0.17-0.14,0.24-0.21
	c0.14,0,0.27,0,0.45,0c0.03-0.07,0.07-0.17,0.1-0.31c0.21-0.21,0.38-0.48,0.75-0.58c0.24-0.07,0.21-0.41,0.38-0.58
	c0.17,0,0.31,0,0.45,0c0.07-0.07,0.1-0.1,0.21-0.21c0.21,0,0.45,0,0.65,0c0.21-0.21,0.1-0.38,0.14-0.55
	c0.1-0.27,0.38-0.07,0.55-0.17c0.17-0.1,0.34-0.21,0.51-0.31c0-0.14,0-0.27,0-0.41c0.03-0.03,0.03-0.07,0.07-0.07
	c0.34,0,0.69,0,0.99,0c0.21-0.1,0.31-0.31,0.51-0.24c0.14-0.21,0.24-0.38,0.38-0.62c0.31,0,0.62,0,0.79,0
	c0.31-0.17,0.48-0.24,0.65-0.34c0-0.14,0-0.27,0-0.41c0.07-0.03,0.1-0.1,0.17-0.1c0.31,0,0.58-0.03,0.86-0.03
	c0.14-0.31,0.48-0.07,0.69-0.24c0.03-0.14,0.03-0.31,0.07-0.48c0.03-0.03,0.03-0.07,0.07-0.07c0.34,0,0.72,0,1.06,0
	c0.07-0.1,0.17-0.17,0.24-0.24c0.07,0,0.14,0,0.24,0c0.03-0.21,0.07-0.38,0.1-0.62c0.45-0.07,0.93,0.03,1.37-0.03
	c0.1-0.1,0.21-0.21,0.31-0.31c0-0.07,0-0.14,0-0.21c0.1-0.1,0.21-0.21,0.31-0.31c0.41,0,0.86,0,1.27,0
	c0.07-0.07,0.17-0.14,0.24-0.21c0.14,0,0.27,0,0.48,0c0.03-0.21,0.07-0.38,0.1-0.58c0-0.03,0.03-0.07,0.07-0.07
	c0.51,0,1.03,0,1.51,0c0.27-0.24,0.27-0.24,0.34-0.55c0.07-0.03,0.17-0.07,0.24-0.1c0.1-0.07,0.17-0.14,0.31-0.21
	c0.38,0,0.79,0,1.17,0c0.21-0.07,0.24-0.31,0.48-0.24c0.14-0.24,0.21-0.51,0.48-0.65c0.69,0,1.41,0,2.13,0
	c0.17-0.14,0.03-0.31,0.14-0.55c0.03-0.03,0.14-0.14,0.27-0.27c0.72,0,1.44,0,2.09,0c0.21-0.14,0.31-0.24,0.41-0.31
	c0-0.17,0-0.31,0-0.45c0.07-0.03,0.1-0.1,0.17-0.1c0.38,0,0.79,0,1.17,0c0.14-0.07,0.24-0.31,0.48-0.21
	c0.07-0.14,0.1-0.24,0.14-0.38c0.17-0.07,0.31-0.14,0.65-0.27c0.27,0,0.72,0,1.17,0c0.1-0.17,0.31-0.24,0.31-0.45
	c-0.03-0.21,0.24-0.24,0.27-0.41c0.45,0,0.89,0,1.34,0c0.1-0.1,0.17-0.21,0.31-0.38c0.03-0.1,0.03-0.27,0.07-0.48
	c0.45-0.07,0.93,0,1.37-0.03c0.1-0.1,0.21-0.21,0.31-0.31c0-0.07,0-0.14,0-0.21c0.17-0.07,0.34-0.17,0.62-0.31c0.14,0,0.34,0,0.58,0
	c0.1-0.1,0.27-0.24,0.31-0.38c0.03-0.21,0.17-0.31,0.31-0.48c0.41-0.07,0.89,0,1.34-0.03c0.1-0.1,0.21-0.21,0.31-0.31
	c-0.07-0.1-0.14-0.17-0.21-0.24c0.1-0.1,0.21-0.21,0.31-0.31c0.27,0,0.58,0,0.86,0c0.07-0.07,0.17-0.14,0.24-0.21
	c0.07,0,0.14,0,0.21,0c0.14-0.21,0.24-0.41,0.38-0.65c0.38,0,0.75,0,1.1,0c0.38-0.24,0.34-0.69,0.69-0.86c0.65,0,1.27,0,1.92,0
	c0.34-0.17,0.31-0.62,0.69-0.86c0.96,0,1.99,0,2.91,0c0.17-0.14,0.27-0.24,0.38-0.31c0.03-0.1,0.03-0.17,0.03-0.24
	c0.17-0.1,0.34-0.17,0.58-0.31c0.21,0,0.48,0,0.82,0c0.14-0.17,0.24-0.38,0.41-0.62c0.07-0.03,0.24-0.07,0.51-0.21
	c0.21,0,0.58,0,0.89,0c0.24-0.14,0.48-0.24,0.41-0.55c0.21-0.1,0.38-0.17,0.62-0.31c0.48,0,1.06,0,1.65,0
	c0.07-0.1,0.21-0.21,0.27-0.31c0.07-0.07,0.07-0.21,0.07-0.27c0.17-0.1,0.34-0.14,0.62-0.27c0.45,0,0.99,0,1.54,0
	c0.14-0.1,0.27-0.17,0.41-0.27c0.1,0.07,0.21,0.14,0.34,0.24c0.17,0,0.38,0,0.62,0c0.21-0.1,0.07-0.31,0.14-0.58
	c0.07-0.07,0.21-0.17,0.38-0.27c0.17,0,0.38,0,0.58,0c0.03,0.03,0.1,0.1,0.17,0.17c0.21,0,0.41,0,0.65,0
	c0.17-0.07,0.38-0.24,0.65-0.17c0.07,0.07,0.14,0.14,0.24,0.21c0.21,0,0.41,0,0.65,0c0.07-0.07,0.14-0.14,0.24-0.21
	c0.34,0,0.69,0,1.1,0c0.1-0.17,0.24-0.34,0.41-0.62c0.24,0,0.55,0,0.82,0c0.1-0.1,0.14-0.14,0.24-0.24c0.69,0,1.44,0,2.13,0
	c0.27-0.17,0.31-0.45,0.45-0.65c0.79,0,1.58,0,2.37,0c0.07-0.07,0.14-0.14,0.24-0.21c0.51,0,0.99,0,1.54,0
	c0.14-0.17,0.24-0.38,0.45-0.65c0.07,0,0.14,0,0.21,0c1.71,0,3.43,0,5.14,0c0.1,0.1,0.21,0.21,0.31,0.31c0,0.07,0,0.14,0,0.21
	c-0.21,0.24-0.55,0-0.82,0.17c0,0.21,0,0.45,0,0.65c-0.24,0.24-0.51,0.03-0.72,0.14c-0.31-0.17-0.41-0.41-0.51-0.65
	c-0.07,0-0.14,0-0.24,0c-0.03,0.21-0.07,0.38-0.1,0.62c-0.24,0-0.48,0.03-0.72,0.03c-0.07,0.07-0.1,0.1-0.21,0.21
	c-1.06,0-2.16,0-3.26,0c-0.14,0.31-0.24,0.58-0.38,0.86c-0.79,0-1.58,0-2.36,0c-0.1,0.07-0.21,0.17-0.27,0.21
	c-0.24,0.03-0.31-0.14-0.41-0.21c-0.27,0-0.58,0-0.86,0c-0.14,0.14-0.24,0.24-0.34,0.34c0.14,0.1,0.24,0.17,0.38,0.31
	c1.17,0,2.37,0,3.56,0c0.24,0.21,0.45,0.38,0.58,0.51c0.07,0.31-0.14,0.38-0.27,0.55c-0.51,0-1.03,0-1.51,0
	c-0.38,0.21-0.34,0.65-0.69,0.86c-0.65,0-1.34,0-2.02,0c0,0.21,0,0.38,0,0.55c0.07,0.03,0.14,0.07,0.21,0.07c0.75,0,1.51,0,2.26,0
	c0.07-0.07,0.1-0.1,0.21-0.21c0.1,0,0.27-0.03,0.45-0.03c0.17-0.17,0.03-0.55,0.38-0.62c0.51,0,0.99,0,1.51,0
	c0.1-0.1,0.21-0.21,0.34-0.31c0-0.14,0-0.31,0.03-0.48c0.1-0.1,0.24-0.14,0.34,0c0.14,0.17,0.31,0.1,0.45,0.17
	c0.07,0.14,0.07,0.24,0.1,0.34c0,0.03,0.03,0.07,0.07,0.07c0.65,0,1.3,0,1.95,0c0.03-0.14,0.07-0.24,0.14-0.41c0.31,0,0.62,0,0.89,0
	c0.1-0.1,0.14-0.14,0.21-0.21c0.48,0,0.99,0,1.44,0c0.34-0.1,0.34-0.45,0.51-0.65c0.07,0,0.14,0,0.21,0
	c0.1,0.21,0.21,0.41,0.31,0.55c0.07,0.07,0.1,0.1,0.14,0.1c0.38,0,0.72,0,1.06,0c0.14-0.14,0.24-0.24,0.31-0.31
	c0.03-0.1,0.03-0.21,0.07-0.34c0.34,0,0.65,0,0.93,0c0.1-0.1,0.14-0.14,0.21-0.21c1.27,0,2.54,0,3.84,0
	c0.07-0.07,0.17-0.14,0.24-0.21c0.21,0,0.41,0,0.62,0c0.14-0.21,0.24-0.41,0.34-0.55c0.07-0.07,0.1-0.1,0.14-0.1
	c0.07,0,0.14,0,0.21,0c2.91,0,5.79,0,8.71,0c0.03,0,0.07-0.03,0.1-0.03c0.17-0.14,0.07-0.34,0.1-0.55c0.1-0.07,0.21-0.14,0.34-0.27
	c0.1,0,0.24,0,0.41,0c0.07,0.07,0.17,0.17,0.27,0.27c0.03,0.17,0.03,0.34,0.07,0.51c0.14,0.17,0.34,0.03,0.48,0.1
	c0.24-0.14,0.1-0.34,0.21-0.65c0.03-0.03,0.17-0.14,0.27-0.24c0.1,0,0.21,0,0.24,0.03c0.17,0.17,0.41,0.34,0.48,0.55
	c0.07,0.24,0.21,0.34,0.34,0.51c0.07,0,0.14,0,0.21,0c0.1,0.17,0.17,0.34,0.34,0.65c0,0.17,0,0.48,0,0.82c0.21,0,0.38,0,0.55,0
	c0.17-0.14,0.07-0.31,0.1-0.51c0.1-0.1,0.21-0.21,0.34-0.31c1.03,0,2.13,0,3.26,0c0.17-0.21,0.38-0.48,0.41-0.51
	c0.34-0.17,0.45-0.24,0.69-0.34c0.96,0,2.06,0,3.15,0c0.07,0.07,0.1,0.1,0.21,0.21c0.41,0,0.89,0,1.3,0
	c0.17,0.21,0.07,0.38,0.1,0.55c0.27,0.27,0.55,0.55,0.82,0.82c0.03,0.03,0.03,0.07,0.03,0.14c-0.07,0.1-0.14,0.27-0.21,0.38
	c0,0.24,0.21,0.27,0.31,0.45c0.21,0,0.45,0,0.65,0c0.17-0.17,0.48-0.24,0.34-0.55c0.1-0.03,0.17-0.07,0.24-0.07c0.38,0,0.79,0,1.2,0
	c0.03,0.14,0.1,0.24,0.14,0.38c0.14,0.1,0.31,0.03,0.51,0.03c0.03-0.14,0.07-0.27,0.14-0.38c0.07-0.07,0.14-0.14,0.24-0.24
	c0.14,0,0.27,0,0.45,0c0.07,0.07,0.17,0.17,0.27,0.27c0.03,0.14,0.03,0.31,0.07,0.48c0.03,0.03,0.1,0.07,0.17,0.07
	c1.27,0,2.5,0,3.77,0c0.07-0.07,0.17-0.14,0.24-0.21c0.07,0,0.14,0,0.24,0c0.03-0.14,0.07-0.27,0.14-0.41
	c0.48,0.03,0.86-0.41,1.37-0.21c0.14,0.17,0.03,0.34,0.07,0.51c0.1,0.1,0.21,0.21,0.31,0.31c0.65,0,1.27,0,1.92,0
	c0.03,0,0.07-0.03,0.1-0.07c0.03-0.14,0.07-0.31,0.07-0.45c0.1-0.14,0.21-0.24,0.27-0.34c0.17,0,0.31,0,0.45,0
	c0.17,0.14,0.07,0.31,0.1,0.51c0.1,0.1,0.21,0.17,0.31,0.31c0.51,0,1.03,0,1.54,0c0.17-0.17,0.07-0.34,0.1-0.51
	c0.1-0.1,0.21-0.21,0.31-0.31c0.1,0.07,0.21,0.17,0.31,0.27c0.03,0.14,0.03,0.31,0.07,0.48c0.03,0.03,0.07,0.07,0.1,0.07
	c0.03,0,0.07,0,0.1,0c1.03,0,2.09,0,3.02,0c0.27,0.14,0.45,0.21,0.62,0.31c0,0.07,0,0.14,0,0.24c0.07,0.1,0.21,0.21,0.31,0.31
	c0.21,0.03,0.51-0.03,0.69,0.1c0.21,0.14,0.48,0.1,0.62,0.34c0.1,0.14,0.14,0.24,0.07,0.38c-0.21,0.14-0.55-0.1-0.69,0.24
	c-0.99,0-1.99,0-2.98,0c-0.07,0.07-0.17,0.1-0.27,0.21c-0.14,0-0.31,0-0.45,0c-0.07-0.07-0.1-0.1-0.17-0.17c-0.17,0-0.41,0-0.62,0
	c-0.1-0.1-0.21-0.21-0.31-0.31c-0.03-0.14-0.03-0.31-0.07-0.48c-0.17-0.17-0.38-0.03-0.51-0.1c-0.24,0.21-0.1,0.48-0.14,0.72
	c-0.07,0.17-0.31,0.24-0.21,0.51c0.07,0.07,0.17,0.14,0.34,0.27c0.38,0,0.82,0,1.27,0c0.07-0.07,0.1-0.1,0.17-0.17
	c0.21,0,0.41,0,0.65,0c0.07,0.07,0.14,0.14,0.24,0.21c1.92,0,3.84,0,5.83,0c0.1,0.17,0.24,0.38,0.41,0.62
	c0.07,0.03,0.21,0.1,0.55,0.24c0.21,0,0.58,0,0.93,0c0.07,0.07,0.1,0.07,0.1,0.1c0,0.17,0,0.31,0,0.45c0.17,0.1,0.38,0.17,0.62,0.31
	c0.48,0,1.06,0,1.61,0c0.27,0.14,0.38,0.38,0.48,0.65c0.14,0,0.27,0,0.41,0c0.07,0.07,0.14,0.14,0.21,0.21
	c0.21,0,0.45,0.03,0.69,0.03c0.17,0.17,0.07,0.34,0.1,0.55c0.1,0.07,0.21,0.17,0.34,0.27c0.14,0.03,0.31,0.03,0.51,0.07
	c0,0.17,0.03,0.34,0.03,0.51c0.1,0.1,0.21,0.21,0.31,0.31c0.27,0,0.58,0,0.86,0c0.31,0.24,0.38,0.55,0.55,0.86
	c0.14,0.27,0.21,0.72,0.51,0.82c0.41,0.14,0.55,0.38,0.62,0.69c0.14,0,0.21,0,0.27,0c0.1,0.1,0.21,0.21,0.31,0.31
	c0,0.24,0,0.45,0,0.65c0.07,0.07,0.14,0.17,0.21,0.24c0,0.41,0,0.86,0,1.27c0.24,0.14,0.41,0.24,0.65,0.38c0,1.2,0,2.37,0,3.5
	c0.1,0.1,0.14,0.14,0.21,0.21c0,0.45,0,0.89,0,1.34c-0.07,0.07-0.1,0.1-0.17,0.17c0,0.41,0,0.82,0,1.3
	c-0.17,0.14-0.38,0.27-0.62,0.45c0-0.03-0.03,0.03-0.03,0.1c0,0.62,0,1.2,0,1.82c-0.27,0.21-0.24,0.62-0.55,0.75
	c-0.07,0-0.14,0-0.21,0c-0.03,0.03-0.07,0.03-0.07,0.07c0.03,0.51-0.45,0.82-0.48,1.3c0,0.03-0.03,0.03-0.07,0.07
	c-0.1,0.03-0.21,0.07-0.34,0.1c-0.03,0.14-0.03,0.31-0.03,0.48c-0.1,0.1-0.21,0.21-0.31,0.31c-0.14,0-0.27,0-0.45,0
	c-0.1,0.1-0.21,0.21-0.31,0.34c0,0.31,0,0.65,0,1.06c-0.31,0.21-0.62,0.41-0.89,0.62c0,0.17,0,0.31,0,0.45
	c-0.17,0.17-0.34,0.03-0.51,0.1c-0.34,0.14-0.31,0.62-0.65,0.82c-0.38-0.03-0.65,0.21-0.99,0.31c0,0.1,0,0.21,0,0.31
	c-0.48,0.48-0.96,0.96-1.47,1.47c0,0.07-0.03,0.17-0.07,0.27c-0.31,0-0.62,0-0.89,0c-0.07,0.07-0.17,0.14-0.24,0.21
	c-0.41,0-0.86,0-1.2,0c-0.24,0.1-0.45,0.21-0.62,0.31c0.07,0.07,0.14,0.14,0.21,0.24c-0.1,0.07-0.21,0.17-0.38,0.31
	c-0.24,0-0.55,0-0.89,0c0,0.21-0.03,0.38-0.03,0.55c-0.34,0.17-0.69,0.34-0.99,0.51c-0.17,0.07-0.27,0.07-0.31,0.31
	c0,0.14-0.17,0.24-0.27,0.34c-0.21,0-0.41,0-0.58,0c-0.21,0.17-0.45,0.31-0.41,0.62c-0.07,0-0.17,0.03-0.31,0.07
	c-0.03,0.07-0.14,0.14-0.21,0.21c-0.24,0-0.45,0-0.65,0c-0.21,0.14-0.31,0.34-0.38,0.58c-0.21,0.14-0.51-0.07-0.69,0.27
	c-0.27,0-0.58,0-0.96,0c-0.03,0.21-0.03,0.38-0.03,0.55c-0.1,0.1-0.21,0.21-0.31,0.31c-0.27,0-0.55,0-0.89,0
	c-0.1,0.17-0.24,0.38-0.41,0.62c-0.27-0.07-0.55,0.14-0.86,0.27c-0.31,0.17-0.27,0.65-0.62,0.82c-0.21,0-0.41,0-0.69,0
	c-0.14,0.17-0.27,0.34-0.41,0.58c-0.24,0.03-0.45,0.38-0.79,0.27c-0.31,0.1-0.34,0.41-0.48,0.65c-0.31,0-0.58,0-0.86,0
	c-0.14,0.17-0.34,0.21-0.55,0.31c-0.03,0.14-0.03,0.27-0.03,0.45c-0.07,0.07-0.14,0.17-0.27,0.31c-0.45,0-0.89,0-1.3,0
	c-0.21,0.17-0.1,0.38-0.14,0.55c-0.14,0.1-0.31,0.14-0.41,0.24c-0.17,0.17-0.45-0.03-0.58,0.14c-0.14,0.14-0.31,0.14-0.45,0.21
	c-0.03,0.1-0.03,0.21-0.07,0.31c-0.24,0.17-0.51,0-0.79,0.14c0,0.03-0.1,0.1-0.17,0.17c-0.51,0-1.03,0-1.51,0
	c-0.17,0.14-0.07,0.34-0.14,0.55c-0.1,0.07-0.24,0.14-0.38,0.21c-0.31,0.17-0.34,0.21-0.65,0c-0.17-0.1-0.34-0.07-0.55-0.1
	c-0.1-0.07-0.21-0.21-0.31-0.31c-0.03-0.31,0.21-0.38,0.34-0.55c0.14,0,0.27,0,0.41,0c0.1-0.1,0.21-0.21,0.31-0.31
	c0-0.07,0-0.14,0-0.21c-0.03-0.03-0.03-0.07-0.07-0.07c-0.45,0-0.86,0-1.37,0c-0.03,0.03-0.17,0.14-0.24,0.24
	c-0.07,0.07-0.07,0.17-0.1,0.31c-0.07,0-0.17,0.03-0.31,0.07c-0.03,0.07-0.14,0.14-0.21,0.21c-0.38,0-0.72,0-1.1,0
	c-0.1,0.69-0.75,0.69-1.17,0.93c0,0.14,0,0.21,0,0.27c-0.1,0.1-0.21,0.21-0.31,0.31c-0.14,0-0.27,0-0.41,0
	c-0.07,0.07-0.17,0.14-0.24,0.21c-0.14,0-0.27,0-0.41,0c-0.1,0.1-0.21,0.21-0.31,0.31c-0.03,0.1-0.03,0.21-0.07,0.31
	c-0.38,0-0.72,0-1.06,0c-0.45,0.34-1.06,0.41-1.37,0.89c-0.14,0-0.24,0-0.34,0c-0.34,0.17-0.72,0.31-0.93,0.62
	c-0.17,0.24-0.55,0.17-0.69,0.45c-0.14,0-0.27,0-0.45,0c-0.17,0.38-0.62,0.41-0.89,0.65c-0.17,0-0.34,0-0.58,0
	c-0.1,0.1-0.31,0.21-0.31,0.34c-0.03,0.27-0.21,0.34-0.34,0.51c-0.34,0-0.72,0-1.06,0c-0.34,0.17-0.31,0.62-0.65,0.82
	c-0.38-0.1-0.65,0.31-1.06,0.24c-0.27,0.14-0.38,0.41-0.48,0.65c-0.21,0-0.45,0-0.65,0c-0.27,0.41-0.79,0.48-1.06,0.86
	c-0.41,0-0.82,0-1.27,0c-0.1,0.1-0.21,0.21-0.31,0.31c-0.03,0.14-0.03,0.31-0.07,0.48c-0.17,0.14-0.34,0.03-0.51,0.07
	c-0.31,0.17-0.27,0.62-0.62,0.82c-0.34,0-0.69,0-1.1,0c-0.21,0.31-0.41,0.62-0.62,0.89c-0.31,0-0.62,0-0.75,0
	c-0.58,0.21-0.89,0.65-1.54,0.86c-0.03,0-0.27,0-0.48,0c-0.1,0.1-0.21,0.21-0.31,0.31c-0.03,0.14-0.03,0.31-0.07,0.48
	c-0.24,0.17-0.48,0-0.55,0.03c-0.31,0.17-0.48,0.24-0.69,0.34c-0.14,0.14-0.34,0.34-0.55,0.55c-0.14,0-0.27,0-0.45,0
	c-0.1,0.07-0.17,0.21-0.31,0.38c0,0.07,0,0.24-0.03,0.41c-0.24,0.14-0.48,0.03-0.72,0.07c-0.14,0.21-0.24,0.41-0.38,0.65
	c-0.41-0.14-0.69,0.31-1.13,0.21c-0.21,0.31-0.41,0.62-0.62,0.89c-0.24,0-0.45,0-0.58,0c-0.27,0.14-0.45,0.21-0.62,0.31
	c0,0.07,0,0.17,0,0.24c-0.1,0.1-0.21,0.21-0.34,0.31c-0.41,0-0.82,0-1.27,0c-0.1,0.1-0.21,0.21-0.31,0.31
	c-0.03,0.17-0.03,0.34-0.07,0.51c-0.24,0.17-0.51,0-0.75,0.1c-0.14,0.27-0.21,0.65-0.65,0.65c-0.1,0.21-0.38,0.14-0.51,0.31
	c-0.14,0.14-0.41,0.1-0.51,0.31c-0.1,0.21-0.34,0.21-0.51,0.31c-0.14,0.1-0.27,0.17-0.45,0.24c0,0.14,0,0.27,0,0.45
	c-0.07,0.07-0.21,0.17-0.38,0.31c-0.27,0-0.65,0-1.03,0c-0.1,0.45-0.34,0.72-0.72,0.86c-0.31,0.14-0.38,0.34-0.48,0.65
	c-0.14,0.03-0.27,0.03-0.38,0.03c-0.34,0.34-0.62,0.62-0.93,0.93c-0.41,0.1-0.79,0.17-1.03,0.51c0,0.07,0,0.14,0,0.21
	c-0.31,0.21-0.65,0.31-1.03,0.38c-0.03,0.17-0.03,0.34-0.07,0.51c-0.14,0.17-0.34,0-0.58,0.14c-0.03,0.03-0.14,0.14-0.24,0.24
	c-0.03,0.17-0.03,0.34-0.07,0.51c-0.17,0.03-0.34,0.03-0.51,0.07c-0.31,0.1-0.21,0.48-0.45,0.65c-0.24,0.17-0.48,0.31-0.69,0.45
	c-0.03,0.21-0.03,0.38-0.07,0.58c-0.17,0-0.34,0.03-0.51,0.03c-0.1,0.1-0.21,0.21-0.31,0.31c0,0.14,0,0.27,0,0.41
	c-0.07,0.03-0.1,0.1-0.17,0.1c-0.21,0-0.38-0.03-0.55,0c-0.14,0.03-0.24,0.14-0.34,0.21c-0.07,0.03-0.24,0.1-0.24,0.14
	c0,0.38-0.41,0.45-0.51,0.72c-0.17,0-0.31,0-0.45,0c-0.17,0.14-0.07,0.31-0.1,0.51c-0.27,0.14-0.58,0.31-0.86,0.45
	c0,0.17,0,0.31,0,0.45c-0.27,0.14-0.21,0.41-0.24,0.65c-0.21,0.21-0.41,0.41-0.62,0.62c0,0.14,0,0.27,0,0.45
	c-0.1,0.1-0.21,0.17-0.38,0.31c-0.1,0.03-0.27,0.03-0.48,0.07c0,0.17-0.03,0.34-0.03,0.51c-0.14,0.17-0.31,0.03-0.55,0.14
	c-0.07,0.03-0.17,0.14-0.27,0.24c-0.03,0.17-0.03,0.31-0.07,0.51c-0.51,0-0.58,0.51-0.82,0.82c0,0.17,0,0.41,0,0.62
	c-0.1,0.1-0.21,0.21-0.31,0.31c-0.14,0-0.27,0-0.41,0c-0.41,0.24-0.38,0.93-0.99,0.93c0,0.17,0,0.31,0,0.45
	c-0.17,0.38-0.62,0.31-0.82,0.65c-0.03,0.14-0.03,0.31-0.07,0.48c-0.14,0.14-0.34,0.03-0.51,0.07c-0.1,0.1-0.21,0.21-0.31,0.31
	c0,0.34,0,0.72,0,1.1c-0.31,0.21-0.62,0.41-0.89,0.62c0,0.17,0,0.31,0,0.45c-0.14,0.17-0.34,0.07-0.55,0.1
	c-0.07,0.07-0.14,0.21-0.27,0.34c0,0.07,0,0.21,0,0.41c-0.17,0.1-0.34,0.21-0.45,0.27c0,0.31,0,0.45,0,0.58
	c-0.07,0.07-0.14,0.17-0.21,0.24c0,0.21,0,0.41,0,0.62c-0.07,0.07-0.14,0.14-0.21,0.21c0,0.21-0.03,0.45-0.03,0.69
	c-0.14,0.17-0.34,0.03-0.58,0.14c-0.03,0-0.14,0.14-0.27,0.31c0,0.65,0,1.37,0,2.16c-0.21,0-0.38,0.03-0.55,0.03
	c-0.1,0.1-0.21,0.21-0.31,0.31c0,0.58,0,1.13,0,1.71c-0.17,0.34-0.62,0.31-0.86,0.69c0,0.48,0,0.99,0,1.54
	c-0.14,0.03-0.24,0.03-0.34,0.07c-0.1,0.1-0.21,0.21-0.31,0.31c0,0.34,0,0.72,0,1.06c-0.24,0.17-0.17,0.51-0.41,0.69
	c0.03,0.03,0.1,0.1,0.17,0.17c0,0.58,0,1.2,0,1.78c-0.27,0.14-0.55,0.24-0.82,0.38c-0.03,0.24-0.1,0.48,0.17,0.65
	c0,0.24,0,0.45,0,0.65c0.14,0.14,0.27,0.31,0.41,0.45c0.03,0.17-0.07,0.27-0.17,0.38c-0.14,0.14-0.31,0.31-0.45,0.45
	c-0.07,0.24-0.1,0.48,0.17,0.65c0,0.27,0,0.55,0,0.86c-0.07,0.07-0.14,0.17-0.21,0.24c0,0.21,0,0.45,0,0.69
	c-0.21,0.03-0.38,0.07-0.58,0.1c-0.1,0.17-0.03,0.34-0.03,0.55c0.21,0.03,0.41,0.07,0.62,0.1c0,0.14,0.03,0.27,0.03,0.48
	c-0.1,0.1-0.21,0.31-0.34,0.31c-0.27,0-0.34,0.24-0.55,0.34c0.1,0.21,0.17,0.41,0.31,0.69c0.07,0,0.21,0.03,0.34,0.1
	c0,0.1,0.03,0.21,0.03,0.31c-0.14,0.03-0.27,0.07-0.38,0.14c-0.07,0.07-0.14,0.14-0.24,0.24c0,1.2,0,2.4,0,3.67
	c0.03,0.14,0.27,0.17,0.21,0.41c0.24,0.14,0.51,0.21,0.65,0.48c0,0.48,0,0.99,0,1.47c0.07,0.07,0.1,0.1,0.21,0.21
	c0,0.27,0,0.58,0,0.86c0.14,0.14,0.24,0.24,0.31,0.31c0.14,0.03,0.24,0.03,0.34,0.07c0,0.24,0,0.45,0,0.72
	c0.21,0.17,0.48,0.38,0.65,0.51c0,0.24,0,0.38,0,0.55c-0.14,0.03-0.24,0.1-0.38,0.14c-0.17,0.34,0.17,0.41,0.27,0.58
	c0.1,0.03,0.21,0.03,0.31,0.07c0,0.17,0,0.31,0,0.51c0.17,0.14,0.34,0.31,0.62,0.51c0.07,0,0.24,0,0.45,0.03c0,0.48,0,0.93,0,1.34
	c0.07,0.07,0.07,0.1,0.1,0.1c0.14,0.03,0.27,0.03,0.45,0.03c0.07,0.14,0.1,0.31,0.21,0.41c0.17,0.14,0.1,0.38,0.31,0.51
	c0.14,0.1,0.24,0.24,0.27,0.45c0.03,0.14,0.24,0.27,0.38,0.34c0.17,0.14,0.41,0.21,0.65,0.31c-0.07,0.41,0.31,0.72,0.27,1.13
	c0.41,0.21,0.82,0.41,1.23,0.62c0,0.1,0,0.17,0,0.24c0.1,0.1,0.21,0.21,0.31,0.31c0.14,0,0.27,0,0.45,0c0.1,0.1,0.17,0.21,0.31,0.38
	c0,0.07,0,0.24,0.03,0.41c0.24,0.1,0.48,0.03,0.72,0.07c0.1,0.1,0.21,0.21,0.31,0.31c0,0.07,0,0.14,0,0.21
	c0.07,0.07,0.75,0.31,0.99,0.34c0.21,0.27,0.41,0.58,0.62,0.86c0.24,0,0.45,0,0.65,0c0.1,0.1,0.21,0.21,0.31,0.31
	c0,0.07,0,0.14,0,0.21c0.24,0.1,0.51,0.21,0.65,0.48c0,0.1,0,0.24,0,0.38c0.1,0.1,0.21,0.21,0.31,0.31c0.45,0,0.86,0,1.3,0
	c0.17,0.1,0.07,0.31,0.1,0.51c0.07,0.07,0.17,0.17,0.27,0.31c0.41,0,0.82,0,1.2,0c0.24,0.1,0.41,0.21,0.62,0.31
	c0,0.51,0.51,0.51,0.82,0.79c0.21,0.03,0.48-0.07,0.72,0.1c-0.17,0.07-0.31,0.14-0.45,0.21c0.24,0.24,0.55,0.03,0.79,0.14
	c0.07,0.07,0.1,0.1,0.17,0.17c1.13,0,2.26,0,3.36,0c0.34,0.1,0.38,0.45,0.51,0.65c0.27,0,0.58,0,0.86,0
	c0.07,0.07,0.17,0.14,0.24,0.21c0.48,0,0.99,0,1.47,0c0.38,0.17,0.31,0.65,0.72,0.86c1.2,0,2.5,0,3.74,0
	c0.34,0.14,0.38,0.41,0.51,0.65c0.07,0,0.14,0,0.21,0c0.1-0.21,0.24-0.41,0.34-0.58c0.31-0.14,0.58-0.07,0.86-0.07
	c0.24,0,0.51,0,0.72,0c0.14-0.1,0.24-0.21,0.34-0.31c0-0.14,0-0.27,0-0.48c0.14-0.03,0.24-0.03,0.41-0.07
	c0,0.21,0.03,0.38,0.03,0.55c0.1,0.1,0.21,0.21,0.31,0.31c0.45,0,0.86,0,1.3,0c0.14,0.17,0.31,0.24,0.34,0.51
	c0,0.14,0.21,0.27,0.31,0.38c0.1,0,0.17-0.03,0.24-0.03c0.14-0.17,0.03-0.34,0.07-0.51c0.1-0.1,0.21-0.21,0.31-0.31
	c0.51,0,0.99,0,1.51,0c0.24,0.17,0.34,0.41,0.45,0.65c0.07,0,0.14,0,0.21,0c0.14-0.21,0.17-0.45,0.41-0.62c0.48,0,0.96,0,1.44,0
	c0.21-0.17,0.41-0.27,0.69-0.24c0.07,0.07,0.14,0.14,0.24,0.21c0.27,0,0.55,0,0.86,0c0.07-0.07,0.17-0.14,0.24-0.21
	c0.45,0,0.89,0,1.3,0c0.07,0.07,0.1,0.1,0.17,0.17c0.24,0.1,0.48,0.03,0.72,0.03c0.1-0.1,0.21-0.21,0.31-0.31c0-0.14,0-0.27,0-0.41
	c0.21-0.24,0.48-0.07,0.79-0.14c0.1,0.07,0.21,0.21,0.31,0.31c-0.1,0.14-0.14,0.21-0.24,0.31c0.14,0.03,0.24,0.07,0.34,0.07
	c0.14-0.21,0.24-0.41,0.38-0.62c1.03,0,2.02,0,2.98,0c0.27-0.21,0.55-0.27,0.89-0.27c-0.1-0.14-0.17-0.21-0.24-0.27
	c0.24-0.21,0.51,0,0.82-0.17c-0.03,0,0.07-0.07,0.14-0.14c1.27,0,2.57,0,3.87,0c0.1-0.14,0.24-0.27,0.27-0.41
	c0-0.24,0.21-0.27,0.27-0.45c0.51,0,0.99,0,1.47,0c0.14-0.1,0.24-0.21,0.38-0.24c0.14-0.07,0.27,0.03,0.41-0.07
	c0.03-0.1,0.03-0.21,0.07-0.31c0.17-0.14,0.34-0.03,0.51-0.07c0.07-0.07,0.17-0.14,0.24-0.21c0.21,0,0.41,0,0.62,0
	c0.21-0.14,0.31-0.38,0.38-0.62c0.14,0,0.31,0,0.51,0c0.03,0.1,0.03,0.21,0.07,0.31c0.03,0.03,0.03,0.07,0.07,0.07
	c0.45,0,0.89,0,1.37,0c0.03-0.1,0.03-0.21,0.07-0.31c0.17-0.1,0.34-0.17,0.58-0.31c0.21,0,0.51,0,0.72,0
	c0.24-0.14,0.41-0.21,0.58-0.31c0.03-0.03,0.03-0.1,0.03-0.21c0.14-0.07,0.31-0.17,0.58-0.31c0.24,0,0.62,0,0.89,0
	c0.38-0.1,0.38-0.45,0.55-0.65c0.34,0,0.72,0,1.06,0c0.07-0.07,0.17-0.14,0.24-0.21c0.27,0,0.55,0,0.89,0
	c0.03-0.17,0.07-0.38,0.1-0.62c0.45-0.07,0.93,0,1.37-0.03c0.14-0.27,0.45-0.17,0.65-0.24c0.21-0.07,0.34-0.21,0.51-0.31
	c-0.07-0.1-0.14-0.17-0.21-0.24c0.17-0.07,0.31-0.14,0.45-0.24s0.31-0.03,0.45-0.21c0.1-0.17,0.17-0.31,0.17-0.45
	c0.17-0.1,0.34-0.17,0.62-0.27c0.38,0,0.86,0,1.34,0c0.17-0.14,0.38-0.24,0.41-0.48c0.03-0.17,0.21-0.27,0.31-0.41
	c0.45,0,0.89,0,1.3,0c0.07-0.07,0.17-0.14,0.24-0.21c0.14,0,0.27,0,0.41,0c0.14-0.21,0.17-0.45,0.41-0.62c0.17,0,0.38,0,0.55,0
	c0.34-0.1,0.38-0.45,0.51-0.65c0.24,0,0.45,0,0.65,0c0.07-0.07,0.17-0.14,0.24-0.21c0.14,0,0.27,0,0.41,0
	c0.21-0.17,0.34-0.38,0.55-0.51c0.17-0.1,0.38-0.17,0.62-0.31c0.34,0,0.75,0,1.2,0c0.1-0.1,0.21-0.21,0.34-0.34c0-0.34,0-0.72,0-1.1
	c0.24-0.07,0.45-0.14,0.58-0.31c0.21,0,0.41,0,0.62,0c0.31-0.24,0.27-0.75,0.62-0.82c0.41-0.07,0.51-0.48,0.96-0.65
	c0.21,0,0.55,0,0.86,0c0.24-0.14,0.45-0.24,0.65-0.34c0-0.14,0-0.27,0-0.41c0.24-0.38,0.93-0.27,0.89-0.93
	c0.45-0.07,0.93,0,1.37-0.03c0.31-0.31,0.58-0.58,0.86-0.86c0.21,0,0.41,0,0.65,0c0.14-0.17,0.31-0.34,0.51-0.58
	c0-0.07,0-0.24,0-0.38c0.27-0.24,0.55-0.48,0.82-0.75c0.14,0,0.34,0,0.62,0c0.14-0.17,0.24-0.38,0.41-0.62
	c0.41-0.14,0.79-0.51,1.37-0.51c0-0.17,0.03-0.34,0.03-0.51c0.1-0.1,0.21-0.21,0.31-0.31c0.14,0,0.27,0,0.45,0
	c0.1-0.1,0.21-0.21,0.34-0.38c0-0.31,0-0.69,0-1.1c0.48-0.1,0.96,0,1.41-0.07c0.07-0.07,0.1-0.1,0.21-0.21c0.17,0,0.45,0,0.65,0
	c0.14-0.31,0.24-0.58,0.38-0.86c0.14,0,0.27,0,0.41,0c0.14-0.24,0.21-0.51,0.48-0.65c0.14,0,0.27,0,0.45,0
	c0.1-0.14,0.24-0.27,0.27-0.41c0.03-0.17,0.14-0.24,0.24-0.34c0.14-0.17,0.38-0.1,0.51-0.31c0.1-0.17,0.27-0.34,0.34-0.41
	c0.17-0.03,0.27-0.07,0.38-0.1c0-0.24,0-0.48,0-0.69c0.1-0.1,0.21-0.21,0.31-0.31c0.24-0.03,0.48-0.03,0.72-0.07
	c0.14-0.31,0.45-0.1,0.65-0.24c0.1-0.21,0.03-0.45,0.07-0.65c0.17-0.24,0.31-0.51,0.48-0.79c0.69-0.03,1.37,0,2.06-0.03
	c0.03-0.14,0.07-0.27,0.14-0.38c0.1-0.1,0.17-0.21,0.14-0.38c-0.07-0.07-0.14-0.17-0.21-0.24c0-0.03,0-0.07,0-0.1
	c0.1-0.21,0.21-0.41,0.31-0.62c0.14,0,0.27,0,0.41,0c0.07-0.07,0.17-0.14,0.24-0.21c0.14,0,0.27,0,0.41,0
	c0.34-0.17,0.31-0.55,0.55-0.75c0-0.21,0-0.45,0-0.69c0.21-0.03,0.38-0.07,0.58-0.1c0.14-0.24,0-0.51,0.1-0.75
	c0.07-0.07,0.17-0.17,0.27-0.27c0.14,0,0.27,0,0.41,0c0.03-0.03,0.07-0.03,0.07-0.07c-0.03-0.38,0.34-0.69,0.27-1.1
	c0.07-0.07,0.17-0.17,0.31-0.31c0.34,0,0.72,0,1.1,0c0.1-0.17,0.27-0.24,0.31-0.45c0.03-0.14,0.17-0.34,0.31-0.38
	c0.17-0.03,0.31-0.03,0.34-0.27c0.03-0.14,0.21-0.27,0.31-0.38c0.31,0.03,0.51-0.1,0.72-0.21c0.17-0.07,0.41,0,0.58,0
	c0.17-0.21,0.07-0.38,0.1-0.55c0.27-0.27,0.55-0.55,0.82-0.82c0.03-0.1,0.03-0.21,0.07-0.31c0.21-0.03,0.34-0.07,0.51-0.07
	c0.1-0.1,0.21-0.21,0.31-0.31c0-0.34,0-0.72,0-1.06c0.1-0.1,0.21-0.27,0.31-0.31c0.27-0.07,0.48-0.17,0.55-0.51
	c0.07-0.24,0.27-0.45,0.58-0.41c0-0.1,0.03-0.17,0.07-0.31c0.07-0.03,0.14-0.14,0.21-0.21c0-0.27,0-0.55,0-0.86
	c0.31-0.17,0.65,0,1.03-0.14c0.03,0,0.51-0.17,0.69-0.21c0.03-0.17,0.03-0.34,0.07-0.51c0.27-0.14,0.55-0.24,0.82-0.38
	c0-0.17,0-0.31,0-0.45c0.1-0.1,0.21-0.21,0.31-0.31c0.14-0.03,0.31-0.03,0.48-0.07c0.03-0.03,0.07-0.07,0.07-0.1
	c0-0.41,0-0.86,0-1.27c0.14-0.1,0.31-0.17,0.45-0.24c0.17-0.1,0.45-0.1,0.45-0.45c0-0.14,0.14-0.24,0.21-0.31c0.21,0,0.34,0,0.48,0
	c0.1-0.1,0.21-0.21,0.31-0.31c0-0.14,0-0.27,0-0.45c0.1-0.03,0.24-0.07,0.41-0.14c0.03-0.14,0.03-0.31,0.03-0.48
	c0.1-0.1,0.21-0.21,0.31-0.31c0.14,0,0.27,0,0.45,0c0.1-0.14,0.27-0.27,0.31-0.41c0.03-0.21,0.17-0.38,0.31-0.41
	c0.31-0.14,0.51-0.27,0.62-0.62c0.07-0.27,0.45-0.45,0.58-0.72c0.1-0.17,0.24-0.27,0.31-0.41c0.1-0.24,0.51-0.17,0.55-0.38
	c0.07-0.24,0.21-0.34,0.34-0.51c0.14,0,0.31,0,0.45,0c0.1-0.1,0.21-0.21,0.31-0.31c0.07-0.45-0.03-0.89,0.07-1.37
	c0.21-0.03,0.34-0.07,0.51-0.07c0.1-0.1,0.21-0.21,0.31-0.31c0-0.14,0-0.27,0-0.41c0.24-0.31,0.62-0.48,0.69-0.96
	c0.24,0,0.48,0,0.69,0c0.14-0.14,0.24-0.24,0.34-0.34c0-0.14,0-0.27,0-0.45c0.17-0.17,0.34-0.31,0.51-0.51
	c0.14-0.14,0.21-0.34,0.34-0.62c0-0.14,0.03-0.38,0.03-0.65c0.27,0,0.51,0,0.72,0c0.14-0.14,0.24-0.24,0.34-0.34
	c0-0.14,0-0.27,0-0.41c0.1-0.17,0.31-0.07,0.48-0.1c0.17-0.14,0.41-0.24,0.38-0.55c0.21-0.21,0.41-0.41,0.62-0.62
	c0-0.14,0-0.27,0-0.41c0.14-0.27,0.41-0.07,0.55-0.21c0.1-0.1,0.21-0.21,0.31-0.27c0-0.14,0-0.31,0-0.48
	c0.21-0.03,0.38-0.07,0.62-0.1c0-0.14,0.03-0.27,0.03-0.48c0.03-0.1,0.17-0.31,0.31-0.31c0.24-0.03,0.34-0.21,0.51-0.34
	c0-0.14,0-0.27,0-0.41c0.07-0.07,0.14-0.17,0.21-0.24c0-0.14,0-0.27,0-0.41c0.17-0.34,0.62-0.31,0.82-0.62
	c0.03-0.14,0.07-0.31,0.07-0.48c0.17-0.17,0.34-0.07,0.51-0.1c0.21-0.21,0.07-0.48,0.14-0.86c0.1-0.1,0.27-0.27,0.48-0.41
	c0.21-0.1,0.1-0.38,0.31-0.51c0.21-0.14,0.34-0.34,0.31-0.58c0.14,0,0.21,0,0.27,0c0.1-0.1,0.21-0.21,0.31-0.31
	c0-0.14,0-0.27,0-0.41c0.17-0.38,0.62-0.31,0.86-0.69c0-0.31,0-0.69,0-0.99c0.14-0.17,0.24-0.27,0.31-0.38c0.17,0,0.31,0,0.45,0
	c0.03-0.07,0.1-0.1,0.1-0.17c0-0.21,0-0.45,0-0.65c0-0.14,0.34-0.58,0.48-0.69c0.1-0.1,0.21-0.17,0.31-0.27
	c0.1-0.14,0.07-0.34,0.24-0.45c0.14-0.1,0.24-0.27,0.27-0.31c0.21-0.03,0.31-0.07,0.41-0.1c0-0.24,0-0.45,0-0.65
	c0.07-0.17,0.27-0.24,0.21-0.48c0.21-0.21,0.41-0.41,0.62-0.62c0-0.14,0.03-0.27,0.03-0.51c0.07-0.03,0.21-0.14,0.38-0.27
	c0.1,0,0.24,0,0.38,0c0.21-0.24,0.07-0.48,0.1-0.72c0.07-0.14,0.27-0.24,0.21-0.45c0.21-0.14,0.41-0.24,0.62-0.38
	c0-0.24,0.03-0.48,0.03-0.72c0.21-0.31,0.62-0.27,0.82-0.62c0-0.27,0-0.55,0-0.82c0.14-0.38,0.62-0.31,0.82-0.65
	c0.03-0.14,0.03-0.31,0.07-0.48c0.27-0.1,0.55-0.24,0.82-0.38c0-0.21,0-0.41,0-0.62c0.21-0.17,0.27-0.45,0.58-0.34
	c0.14-0.34,0.27-0.58,0.41-0.86c0.17-0.31,0.62-0.21,0.75-0.58c0-0.27,0-0.55,0-0.79c0.17-0.41,0.62-0.34,0.86-0.72
	c0-0.24,0-0.55,0-0.82c0.17-0.21,0.38-0.1,0.58-0.14c0.07-0.1,0.14-0.21,0.27-0.38c0-0.07,0-0.21,0-0.34
	c0.17-0.1,0.38-0.21,0.51-0.31c0.14-0.1,0.27-0.24,0.34-0.31c0.07-0.17,0.07-0.27,0.1-0.38c0.17,0,0.31,0,0.45,0
	c0.1-0.07,0.21-0.17,0.34-0.31c0-0.21,0-0.45,0-0.69c0.21-0.1,0.45-0.1,0.55-0.31c0.1-0.17,0.17-0.34,0.31-0.58v-0.03
	c0-0.21,0-0.38,0-0.55c0.1-0.21,0.31-0.1,0.51-0.14c0.07-0.07,0.17-0.14,0.31-0.27c0-0.1,0.03-0.24,0.03-0.45
	c0.03-0.14,0.21-0.21,0.31-0.34c0.07,0,0.14,0,0.21,0c0.1-0.17,0.17-0.34,0.34-0.65c0-0.17,0-0.48,0-0.79
	c0.21-0.03,0.38-0.03,0.55-0.07c0.1-0.1,0.03-0.31,0.21-0.45c0.07-0.07,0.1-0.24,0.14-0.38c0.17,0,0.31,0,0.45,0
	c0.1-0.1,0.21-0.21,0.31-0.31c0.03-0.14,0.03-0.31,0.07-0.48c0.17-0.14,0.34-0.03,0.51-0.07c0.1-0.1,0.21-0.21,0.31-0.31
	c0.03-0.48-0.03-0.93,0.03-1.41c0.17,0,0.31-0.03,0.55-0.03c0.03-0.07,0.14-0.24,0.27-0.41c0-0.07,0-0.21,0-0.34
	c0.1-0.1,0.21-0.21,0.31-0.31c0.07,0,0.14,0,0.21,0c0.1-0.17,0.17-0.34,0.34-0.65c0-0.17,0-0.48,0-0.79
	c0.27-0.1,0.51-0.07,0.75-0.03c0.03,0,0.07,0.03,0.07,0.07c0,0.03,0,0.07,0,0.1c0,0.62,0,1.23,0,1.89c-0.17,0.1-0.38,0.24-0.62,0.41
	c-0.03,0.07-0.1,0.21-0.24,0.55c0,0.17,0,0.58,0,0.89c-0.24,0.38-0.69,0.34-0.86,0.69c0,0.14,0,0.27,0,0.41
	c-0.17,0.38-0.62,0.31-0.86,0.69c0,0.55,0,1.13,0,1.68c-0.24,0.38-0.69,0.34-0.86,0.69c0,0.21,0,0.41,0,0.65
	c-0.1,0.03-0.21,0.07-0.27,0.1c-0.1,0.07-0.27,0.17-0.31,0.27c-0.07,0.38-0.38,0.58-0.58,0.79c-0.14,0.03-0.24,0.07-0.34,0.1
	c0,0.24,0,0.45,0,0.65c-0.07,0.07-0.14,0.17-0.21,0.24c0,0.14,0,0.31,0,0.48c-0.17,0.14-0.38,0.24-0.62,0.41c0,0.14,0,0.34,0,0.51
	c-0.14,0.24-0.24,0.45-0.34,0.65c-0.14,0-0.27,0-0.41,0c-0.1,0.1-0.21,0.21-0.31,0.31c0,0.14,0,0.27,0,0.51
	c-0.21,0.17-0.45,0.34-0.65,0.51c0,0.27,0,0.45,0,0.62c-0.14,0.21-0.24,0.41-0.34,0.62c-0.14,0-0.27,0-0.41,0
	c-0.1,0.1-0.21,0.21-0.31,0.31c0,0.14,0,0.27,0,0.45c-0.21,0.17-0.41,0.38-0.65,0.58c0,0.31,0,0.62,0,0.89
	c-0.31,0.31-0.58,0.58-0.86,0.86c0.1,0.27-0.27,0.38-0.27,0.65c0,0.24-0.34,0.27-0.58,0.38c0,0.14,0,0.27,0,0.41
	c-0.27,0.27-0.45,0.65-0.89,0.62c0,0.21,0,0.34,0,0.48c-0.27,0.27-0.58,0.58-0.86,0.86c0,0.27,0,0.58,0,0.86
	c-0.1,0.1-0.21,0.21-0.31,0.31c-0.14,0.03-0.31,0.07-0.48,0.07c-0.17,0.14-0.03,0.34-0.03,0.31c-0.17,0.31-0.24,0.48-0.34,0.69
	c-0.14,0.14-0.34,0.34-0.55,0.55c0,0.14,0,0.27,0,0.38c-0.14,0.38-0.62,0.34-0.82,0.69c0,0.14,0,0.31-0.03,0.48
	c-0.21,0.31-0.62,0.27-0.82,0.62c0,0.27,0,0.55,0,0.82c-0.24,0.24-0.45,0.55-0.86,0.62c-0.03,0.14-0.03,0.27-0.03,0.34
	c-0.34,0.34-0.62,0.62-0.86,0.86c0,0.41,0,0.72,0,0.99c0.1,0.1,0.21,0.21,0.31,0.31c0.1-0.1,0.21-0.21,0.31-0.31
	c0.03-0.14,0.03-0.27,0.03-0.51c0.07-0.03,0.21-0.17,0.34-0.27c0.14,0,0.27,0,0.41,0c0.21-0.14,0.03-0.34,0.17-0.58
	c0.03-0.03,0.14-0.14,0.27-0.24c0.14-0.03,0.31-0.03,0.51-0.07c0-0.24,0.03-0.48,0.03-0.62c0.1-0.24,0.17-0.38,0.27-0.58
	c0.45-0.45,0.96-0.96,1.44-1.44c0-0.1,0-0.24,0-0.41c0.27-0.14,0.55-0.31,0.86-0.45c0-0.21,0-0.41,0-0.65
	c0.1-0.03,0.24-0.07,0.34-0.14c0.17-0.14,0.31-0.27,0.51-0.48c0-0.27,0-0.58,0-0.86c0.21-0.17,0.38-0.07,0.55-0.1
	c0.27-0.14,0.31-0.48,0.48-0.65c0.17-0.17,0.45-0.27,0.69-0.45c0-0.24,0.03-0.48,0.03-0.72c0.14-0.17,0.34-0.07,0.51-0.1
	c0.07-0.17,0.17-0.38,0.31-0.62c0-0.14,0-0.34,0-0.58c0.1-0.1,0.24-0.31,0.38-0.31c0.27-0.03,0.34-0.24,0.51-0.38
	c0-0.14,0-0.27,0-0.41c0.14-0.17,0.34-0.07,0.51-0.1c0.1-0.1,0.21-0.21,0.31-0.31c0-0.24,0-0.55,0-0.79
	c0.17-0.21,0.31-0.45,0.58-0.41c0.1-0.17,0.17-0.34,0.31-0.58c0-0.07,0-0.21,0-0.34c0.1-0.17,0.31-0.07,0.51-0.1
	c0.07-0.1,0.17-0.17,0.31-0.31c0-0.27,0-0.58,0-0.86c0.17-0.24,0.38-0.07,0.55-0.17c0.1-0.14,0.17-0.34,0.31-0.58
	c0-0.14,0.03-0.38,0.03-0.65c0.21-0.03,0.38-0.03,0.55-0.07c0.1-0.27,0.24-0.55,0.38-0.82c0.14,0,0.27,0,0.41,0
	c0.1-0.07,0.21-0.17,0.34-0.31c0-0.38,0-0.75,0-1.1c0.17-0.17,0.38-0.07,0.55-0.1c0.1-0.1,0.21-0.21,0.34-0.34c0-0.24,0-0.58,0-0.89
	c0.21-0.03,0.38-0.03,0.55-0.07c0.1-0.17,0.17-0.34,0.31-0.58c0-0.21,0-0.51,0-0.79c0.14-0.17,0.31-0.07,0.51-0.1
	c0.1-0.07,0.21-0.17,0.31-0.27c0.03-0.17,0.03-0.34,0.07-0.51c0.24-0.14,0.48-0.03,0.72-0.07c0.03,0.07,0.1,0.1,0.1,0.17
	c0,0.38,0,0.79,0,1.23c-0.27,0.21-0.58,0.41-0.86,0.62c0,0.38,0,0.75,0,1.1c-0.17,0.34-0.62,0.34-0.86,0.69c0,0.38,0,0.86,0,1.34
	c-0.21,0-0.38,0.03-0.55,0.03c-0.1,0.1-0.21,0.21-0.31,0.31c0,0.41,0,0.86,0,1.27c-0.1,0.21-0.31,0.1-0.51,0.14
	c-0.07,0.07-0.17,0.14-0.31,0.27c0,0.45,0,0.89,0,1.3c-0.21,0.21-0.38,0.1-0.55,0.14c-0.14,0.31-0.41,0.55-0.34,0.93
	c-0.14,0.27-0.41,0.34-0.65,0.48c0,0.14,0,0.27,0,0.41c-0.07,0.07-0.14,0.17-0.21,0.24c0,0.14,0,0.27,0,0.41
	c-0.21,0.21-0.41,0.41-0.58,0.58c-0.1,0.21-0.17,0.34-0.27,0.58c0,0.03,0,0.21,0,0.38c-0.17,0.1-0.38,0.24-0.62,0.41
	c-0.07,0.17-0.17,0.41-0.27,0.69c-0.34,0.34-0.72,0.72-1.1,1.1c-0.1,0.03-0.21,0.03-0.31,0.07c0,0.34,0,0.72,0,1.06
	c-0.07,0.1-0.14,0.17-0.24,0.31c0,0.21,0,0.45,0,0.72c-0.21,0-0.38,0.03-0.55,0.03c-0.1,0.1-0.21,0.21-0.31,0.31
	c0,0.14,0,0.27,0,0.41c-0.24,0.24-0.48,0.45-0.65,0.72c-0.14,0.21-0.17,0.45-0.27,0.65c-0.21,0.07-0.45,0.14-0.58,0.48
	c0,0.21,0,0.48,0,0.79c-0.1,0.1-0.21,0.21-0.31,0.31c-0.14,0.03-0.31,0.03-0.51,0.07c0.03,0.38-0.17,0.65-0.27,0.96
	c-0.21,0.21-0.41,0.41-0.62,0.62c0,0.21,0,0.41,0,0.62c-0.24,0.24-0.45,0.48-0.65,0.72c0.07,0.21-0.21,0.27-0.21,0.45
	c0,0.1,0,0.21,0,0.38c-0.27,0.21-0.58,0.41-0.86,0.62c0,0.17,0,0.31,0,0.45c-0.27,0.14-0.17,0.41-0.24,0.69
	c-0.07,0-0.17,0.03-0.31,0.07c-0.14,0.14-0.34,0.31-0.51,0.51c0,0.1,0,0.24,0,0.38c-0.14,0.24-0.31,0.14-0.41,0.14
	c-0.38,0.38-0.72,0.72-1.13,1.13c0,0.17,0,0.48,0,0.75c-0.1,0.1-0.14,0.14-0.21,0.21c0,0.14,0,0.27,0,0.41
	c-0.17,0.17-0.48,0.14-0.58,0.38c-0.07,0.21-0.17,0.45-0.38,0.58c-0.14,0-0.27,0-0.41,0c-0.24,0.21-0.07,0.48-0.14,0.82
	c-0.17,0.14-0.45,0.34-0.62,0.48c0,0.21,0,0.27,0,0.34c-0.34,0.34-0.72,0.72-1.06,1.06c0,0.24,0,0.45,0,0.65
	c-0.14,0.21-0.31,0.1-0.58,0.14c-0.03,0.07-0.14,0.21-0.27,0.41c0,0.07,0,0.21,0,0.34c-0.1,0.14-0.21,0.24-0.27,0.31
	c-0.14,0.03-0.24,0.03-0.34,0.07c0,0.17,0,0.31,0,0.48c-0.27,0.14-0.58,0.31-0.86,0.45c0,0.07,0,0.14,0,0.21
	c-0.03,0-0.03,0.03-0.07,0.07c-0.17,0.31-0.65,0.24-0.79,0.62c-0.1,0.31-0.31,0.58-0.41,0.89c-0.07,0.34-0.31,0.45-0.62,0.51
	c0,0.24,0,0.48,0,0.69c-0.27,0.27-0.58,0-0.86,0.21c0,0.21-0.03,0.45-0.03,0.69c-0.17,0.17-0.38,0.07-0.55,0.1
	c-0.07,0.07-0.17,0.21-0.27,0.31c-0.03,0.14-0.03,0.31-0.07,0.51c-0.17,0-0.34,0.03-0.51,0.03c-0.1,0.1-0.21,0.21-0.31,0.31
	c0,0.34,0,0.72,0,1.06c0.14,0.1,0.21,0.27,0.41,0.31c0.24,0,0.31-0.21,0.45-0.31c0.03-0.14,0.03-0.31,0.07-0.48
	c0.27-0.1,0.51-0.17,0.62-0.48c0.1-0.31,0.34-0.51,0.62-0.65c0.03-0.03,0.1-0.03,0.21-0.07c0-0.14,0.03-0.27,0.03-0.51
	c0.07-0.03,0.21-0.14,0.41-0.27c0.07,0,0.21,0,0.34,0c0.21-0.14,0.07-0.34,0.14-0.62c0.17-0.17,0.41-0.38,0.62-0.55
	c0.03-0.14,0.03-0.21,0.03-0.27c0.27-0.1,0.55-0.24,0.82-0.38c0-0.14,0-0.27,0-0.45c0.27-0.14,0.58-0.31,0.86-0.45
	c0-0.14,0-0.31,0-0.48c0.21-0.03,0.45-0.03,0.58-0.14c0.14-0.1,0.27-0.17,0.48-0.17c0-0.17,0.03-0.31,0.03-0.48
	c0.14-0.17,0.38-0.34,0.41-0.55c0.07-0.31,0.34-0.34,0.45-0.79c0-0.03,0-0.14,0-0.24c0.1-0.1,0.21-0.21,0.31-0.31
	c0.14,0,0.27,0,0.41,0c0.1-0.1,0.21-0.21,0.31-0.31c0.03-0.14,0.03-0.31,0.07-0.48c0.24-0.1,0.48-0.17,0.62-0.41
	c0-0.21,0-0.41,0-0.62c0.07-0.07,0.14-0.17,0.21-0.24c0-0.14,0-0.27,0-0.41c0.21-0.1,0.41-0.24,0.62-0.34
	c0.03-0.21,0.03-0.38,0.07-0.55c0.21-0.21,0.48,0,0.82-0.17c0.17-0.14-0.07-0.48,0.07-0.72c0.17-0.14,0.34-0.03,0.51-0.07
	c0.1-0.1,0.21-0.21,0.31-0.31c0-0.41,0-0.86,0-1.27c0.17-0.17,0.48-0.14,0.58-0.38c0.07-0.21,0.17-0.45,0.38-0.58
	c0.14,0,0.31,0,0.45,0c0.1-0.07,0.21-0.17,0.31-0.31c0-0.34,0-0.69,0-1.06c0.07-0.1,0.17-0.21,0.31-0.34c0.41,0,0.86,0,1.3,0
	c0.17-0.24,0.1-0.45,0.1-0.65c0-0.17,0-0.34,0-0.51c0.21-0.34,0.65-0.31,0.86-0.65c0-0.14,0-0.27,0-0.41
	c0.1-0.1,0.21-0.21,0.31-0.31c0.17-0.03,0.34-0.03,0.51-0.07c0.17-0.24,0.03-0.48,0.07-0.62c0.07-0.48,0.58-0.31,0.69-0.69
	c0.03-0.24,0.31-0.41,0.48-0.62c0.1,0,0.17,0,0.24,0c0.1-0.17,0.17-0.34,0.31-0.58c0-0.14,0-0.34,0-0.58
	c0.1-0.1,0.21-0.21,0.31-0.31c0.14-0.03,0.31-0.03,0.51-0.07c0-0.34,0-0.65,0-0.82c0.17-0.31,0.24-0.48,0.34-0.65
	c0.07,0,0.14,0,0.21,0c0.07-0.17,0.17-0.38,0.31-0.62c0.03-0.27-0.03-0.69,0.03-1.06c0.17-0.03,0.34-0.07,0.48-0.07
	c0.14-0.14,0.24-0.24,0.34-0.31c0-0.24,0-0.45,0-0.65c0.14-0.17,0.34-0.07,0.55-0.1c0.17-0.24,0.38-0.55,0.58-0.82
	c0.21,0,0.34,0,0.48,0c0.03,0.07,0.1,0.1,0.1,0.17c0,0.55,0,1.06,0,1.68c-0.17,0.17-0.38,0.34-0.58,0.55
	c-0.1,0.07-0.1,0.24-0.17,0.34c-0.1,0.1-0.07,0.24-0.1,0.38c-0.1,0.24-0.21,0.48-0.34,0.72c-0.07,0.14-0.27,0.24-0.27,0.31
	c0.07,0.24-0.21,0.34-0.24,0.55c0,0.14-0.17,0.27-0.27,0.41c-0.1,0-0.17,0-0.24,0c-0.03,0.03-0.07,0.03-0.07,0.07
	c0.07,0.41-0.31,0.69-0.24,1.1c-0.14,0.14-0.31,0.27-0.48,0.48c0.17,0.17,0.31,0.31,0.48,0.48c0,0.41-0.41,0.38-0.65,0.55
	c0,0.21,0,0.41,0,0.62c-0.07,0.07-0.14,0.17-0.21,0.24c0,0.21,0,0.41,0,0.62c-0.27,0.1-0.51,0.24-0.65,0.48c0,0.14,0,0.24,0,0.34
	c-0.1,0.27-0.41,0.41-0.51,0.58c-0.14,0.03-0.24,0.07-0.34,0.1c0,0.31,0,0.62,0,0.86c-0.17,0.38-0.62,0.34-0.82,0.65
	c-0.17,0.21,0.07,0.51-0.24,0.65c-0.03,0.24-0.03,0.48-0.07,0.75c-0.1,0.03-0.21,0.03-0.31,0.07c-0.1,0.1-0.21,0.21-0.31,0.31
	c0,0.14,0,0.27,0,0.41c-0.17,0.14-0.31,0.31-0.45,0.45c0,0.07,0,0.14,0,0.21c-0.21,0.21-0.41,0.41-0.62,0.62
	c-0.03,0.17-0.03,0.34-0.07,0.55c-0.17,0-0.34,0.03-0.51,0.03c-0.17,0.21-0.07,0.45-0.1,0.75c-0.17,0.14-0.34,0.24-0.58,0.41
	c-0.03,0.17-0.24,0.38-0.27,0.65c-0.31,0.14-0.14,0.45-0.24,0.65c-0.17,0.14-0.34,0.03-0.51,0.07c-0.17,0.14-0.07,0.31-0.14,0.55
	c-0.03,0.07-0.14,0.17-0.24,0.27c-0.14,0.03-0.31,0.03-0.48,0.07c-0.03,0.07-0.07,0.14-0.07,0.21c0,0.48,0,0.93,0,1.41
	c-0.07,0.07-0.1,0.1-0.21,0.21c0,0.14-0.03,0.31-0.03,0.48c-0.17,0.14-0.45,0.17-0.62,0.45c0,0.17,0,0.45,0,0.72
	c-0.21,0.03-0.38,0.03-0.55,0.03c-0.1,0.1-0.21,0.21-0.31,0.31c0,0.14,0,0.27,0,0.41c-0.07,0.07-0.14,0.17-0.21,0.24
	c0,0.14,0,0.27,0,0.41c-0.14,0.21-0.34,0.31-0.62,0.38c0,0.14-0.03,0.27-0.03,0.51c-0.07,0.03-0.21,0.14-0.41,0.27
	c-0.07,0-0.21,0-0.34,0c-0.17,0.14-0.07,0.34-0.1,0.51c-0.07,0.1-0.17,0.21-0.27,0.31c-0.14,0.03-0.31,0.07-0.48,0.07
	c-0.03,0.03-0.07,0.07-0.07,0.1c0,0.41,0,0.86,0,1.27c-0.1,0.1-0.21,0.21-0.31,0.31c-0.14,0-0.27,0-0.41,0
	c-0.24,0.21-0.07,0.48-0.14,0.79c-0.1,0.1-0.34,0.24-0.38,0.41c-0.03,0.27-0.21,0.38-0.34,0.55c-0.17,0-0.38,0-0.62,0
	c-0.1,0.1-0.21,0.21-0.34,0.31c-0.07,0.38,0.03,0.75-0.03,1.13c-0.1,0.1-0.21,0.21-0.31,0.31c-0.14,0-0.31,0-0.45,0
	c-0.24,0.31,0,0.69-0.17,1.06c-0.14,0-0.31,0.03-0.48,0.03c-0.17,0.14-0.03,0.34-0.14,0.55c-0.1,0.1-0.24,0.27-0.38,0.41
	c0.1,0.1,0.21,0.21,0.31,0.31c0.17,0,0.31,0,0.45,0c0.27-0.21,0-0.55,0.14-0.79c0.17-0.14,0.34-0.03,0.51-0.07
	c0.1-0.14,0.34-0.24,0.31-0.51c0.17-0.07,0.31-0.14,0.45-0.21c0.17-0.07,0.31-0.14,0.45-0.21c0-0.14,0-0.27,0-0.41
	c0.24-0.38,0.89-0.31,0.89-0.89c0.24-0.1,0.45-0.03,0.65-0.07c0.24-0.17,0.62-0.21,0.75-0.48c0.1-0.27,0.27-0.48,0.48-0.69
	c0-0.34,0-0.69,0-0.99c0.1-0.34,0.45-0.34,0.65-0.51c0-0.41,0-0.86,0-1.3c0.14-0.1,0.27-0.27,0.41-0.31
	c0.21-0.03,0.27-0.24,0.45-0.31c0-0.14,0.03-0.27,0.03-0.48c0.07-0.07,0.14-0.17,0.27-0.31c0.24,0,0.48,0,0.69,0
	c0.17-0.24,0.17-0.55,0.41-0.62c0.21-0.07,0.38-0.17,0.55-0.34c0.07-0.34-0.03-0.75,0.03-1.13c0.21-0.14,0.45-0.17,0.62-0.41
	c0-0.21,0.03-0.45,0.03-0.72c0.21,0,0.38-0.03,0.55-0.03c0.1-0.1,0.21-0.21,0.31-0.31c0-0.41,0-0.86,0-1.27
	c0.14-0.21,0.31-0.07,0.51-0.14c0.1-0.1,0.27-0.21,0.34-0.45c0.03-0.17,0.21-0.27,0.31-0.41c0.17,0,0.31,0,0.45,0
	c0.1-0.1,0.21-0.21,0.31-0.31c0-0.14,0-0.27,0-0.41c0.07-0.07,0.1-0.14,0.17-0.14c0.14-0.03,0.34,0.07,0.48-0.1
	c0.14-0.21,0.41-0.03,0.62-0.17c0-0.34,0-0.75,0-1.1c0.21-0.17,0.27-0.38,0.55-0.34c0.1-0.21,0.34-0.21,0.51-0.31
	c0.03-0.17,0.03-0.34,0.07-0.55c0.24,0,0.48-0.03,0.72-0.03c0-0.07,0.07-0.1,0.07-0.17c0-0.41,0-0.79,0-1.2
	c0.27-0.14,0.58-0.31,0.86-0.45c0-0.14,0-0.27,0-0.41c0.21-0.34,0.62-0.31,0.82-0.62c0.03-0.17,0.03-0.31,0.07-0.51
	c0.17-0.03,0.34-0.07,0.51-0.07c0.1-0.1,0.21-0.21,0.31-0.31c0-0.17,0-0.31,0-0.45c0.14-0.17,0.31-0.07,0.51-0.1
	c0.07-0.1,0.17-0.17,0.31-0.31c0-0.38,0-0.75,0-1.1c0.14-0.14,0.24-0.24,0.34-0.31c0.1-0.07,0.21-0.03,0.31-0.07
	c0-0.17,0-0.31,0-0.45c0.07-0.1,0.17-0.21,0.31-0.34c0.24,0,0.48,0,0.69,0c0.17-0.27,0.07-0.51,0.1-0.75
	c0.17-0.14,0.45-0.14,0.58-0.38c0,0,0.24-0.86,0.27-0.93c0.27-0.17,0.58-0.38,0.86-0.58c0-0.24,0-0.45,0-0.65
	c0.14-0.17,0.31-0.07,0.51-0.1c0.07-0.07,0.17-0.17,0.31-0.27c0-0.21,0-0.41,0-0.69c0.1-0.07,0.24-0.14,0.51-0.31h0.03
	c0.1-0.17,0.17-0.34,0.31-0.58c0-0.17,0-0.38,0-0.58c0.1-0.21,0.31-0.1,0.51-0.14c0.07-0.07,0.17-0.14,0.31-0.27
	c0-0.31,0-0.62,0-0.86c0.24-0.34,0.65-0.34,0.86-0.65c0-0.24,0.03-0.48,0.03-0.72c0.21-0.03,0.38-0.03,0.55-0.07
	c0.14-0.27,0.24-0.55,0.38-0.82c0.24,0,0.48-0.03,0.75-0.03c0-0.55,0-1.06,0-1.58c0.17-0.1,0.24-0.31,0.45-0.31
	C710.05,372.37,710.12,372.58,709.98,371.96z M686.47,385.54c0.1,0.1,0.17,0.17,0.31,0.31c0.1-0.17,0.27-0.24,0.31-0.45
	c0.03-0.1,0.17-0.21,0.21-0.34c0.03-0.14-0.07-0.34,0.1-0.48c0.17-0.07,0.34,0.07,0.51-0.1c0-0.27,0-0.58,0-0.89
	c-0.1-0.1-0.21-0.21-0.34-0.31c-0.03,0.14-0.07,0.24-0.1,0.38c-0.34,0.31-0.69,0.69-1.03,0.99
	C686.44,384.99,686.44,385.3,686.47,385.54z M685.82,385.95c0,0.07,0.03,0.14,0.07,0.14c0.07,0,0.17-0.03,0.27-0.03
	c0-0.03,0-0.1,0-0.14c-0.07,0-0.17-0.03-0.27-0.03C685.85,385.88,685.82,385.95,685.82,385.95z M685.89,386.98
	c0.17-0.17,0.17-0.31,0-0.45C685.72,386.67,685.72,386.8,685.89,386.98z M684.76,388c0.17,0,0.34,0,0.58,0
	c-0.03-0.31,0.07-0.55-0.07-0.79c-0.21-0.03-0.41-0.14-0.58,0.07C684.72,387.52,684.62,387.76,684.76,388z M683.83,389.2
	c0.07,0.17,0.1,0.27,0.14,0.34c0.17-0.07,0.34,0.03,0.51-0.1c0-0.07,0-0.17,0-0.24c-0.1-0.1-0.21-0.21-0.24-0.24
	C684.07,389.03,683.93,389.13,683.83,389.2z M622.2,322.23c0.1,0,0.21,0.03,0.31,0.03c0.14,0,0.27,0,0.41,0
	c0.1,0,0.21-0.03,0.31-0.03c0.03-0.14,0.03-0.27,0.03-0.45c-0.14-0.14-0.24-0.24-0.31-0.34c-0.17,0-0.31,0-0.45,0
	c-0.1,0.1-0.21,0.21-0.31,0.31C622.2,321.92,622.2,322.09,622.2,322.23z M619.26,355.78c-0.07,0.03-0.17,0.03-0.31,0.07
	c0.03,0.14,0.03,0.27,0.07,0.38c0.14,0,0.21,0,0.27,0C619.46,356.09,619.46,355.96,619.26,355.78z M618.74,322.06
	c0.1,0.1,0.21,0.21,0.31,0.31c0.21,0,0.45,0,0.65,0c0.07-0.07,0.14-0.17,0.17-0.17c0.24-0.14,0.41,0.03,0.62-0.17
	c-0.14-0.07-0.27-0.1-0.41-0.17c-0.17-0.1-0.31-0.17-0.45-0.24c0-0.17-0.03-0.34-0.03-0.51c-0.03,0.03-0.1,0.07-0.14,0.1
	c-0.03-0.14-0.07-0.27-0.1-0.38c-0.17,0.14-0.27,0.24-0.38,0.31c0,0.17,0,0.31,0,0.45C618.84,321.68,618.71,321.78,618.74,322.06z
	 M616.51,322.3c0.41,0,0.86,0,1.27,0c0,0,0.03-0.03,0.07-0.07c0.24-0.24,0.24-0.24,0.24-0.58c-0.58,0-1.1,0-1.58,0
	c0,0-0.03,0.03-0.07,0.07C616.41,322.02,616.41,322.02,616.51,322.3z M562.73,318.9c0.45,0,0.89,0,1.41,0
	c0.07-0.17,0.24-0.21,0.24-0.38c-0.1-0.1-0.21-0.17-0.31-0.27c-0.38,0-0.79,0-1.17,0c-0.07,0-0.14,0.03-0.21,0.07
	C562.7,318.46,562.7,318.63,562.73,318.9z M560.54,318.49c0.14,0.17,0.24,0.27,0.31,0.38c0.27,0,0.51,0.1,0.75-0.07
	c0-0.17,0-0.34,0-0.58c-0.34,0.03-0.58-0.07-0.72,0.14C560.75,318.42,560.64,318.46,560.54,318.49z M559.31,319.66
	c0.31,0.17,0.41-0.14,0.58-0.27c0-0.07,0-0.14,0-0.21c-0.21-0.17-0.45-0.17-0.65,0C559.31,319.35,559.2,319.52,559.31,319.66z
	 M564.96,320.82c-1.03-0.1-2.47-0.1-3.36,0c-0.03,0.14-0.03,0.31-0.07,0.55c-0.62,0-1.2,0-1.78,0c-0.07,0.07-0.1,0.1-0.21,0.21
	c-0.79,0-1.58,0-2.36,0c-0.17,0.17-0.31,0.31-0.41,0.41c-0.21,0.1-0.45-0.03-0.62,0.17c-0.14,0.14-0.34,0.17-0.58,0.31
	c-0.1,0-0.34,0-0.55,0c-0.24,0.03-0.48-0.07-0.72,0.07c-0.07,0.65-0.75,0.58-1.1,0.89c0,0.14,0,0.27,0,0.41
	c0.1,0.1,0.21,0.21,0.31,0.31c0.51,0,1.03,0,1.58,0c0.07,0,0.14-0.03,0.21-0.07c0.03-0.03,0.07-0.07,0.14-0.14c0.51,0,1.03,0,1.54,0
	c0.21-0.27,0.45-0.58,0.65-0.89c0.45,0,0.89,0,1.3,0c0.03,0,0.03-0.03,0.07-0.07c0-0.14,0-0.27,0-0.41c0.1-0.1,0.21-0.21,0.31-0.31
	c0.21,0,0.41,0,0.65,0c0.14,0.07,0.24,0.27,0.45,0.21c0.07-0.07,0.17-0.14,0.24-0.21c0.27,0,0.58,0,0.86,0
	c0.1-0.1,0.21-0.21,0.31-0.31c0-0.17,0.03-0.34,0.03-0.51c0.27,0,0.51,0,0.69,0c0.17,0.1,0.31,0.17,0.41,0.24
	c0.14-0.07,0.21-0.14,0.31-0.24c0.24,0,0.48,0,0.72,0c0.27,0,0.55,0.07,0.82-0.03C564.93,321.23,565.17,321.13,564.96,320.82z
	 M581.35,323.43c-0.24-0.03-0.48-0.03-0.72-0.07c-0.21-0.27-0.51-0.14-0.79-0.17c-0.21,0.27-0.51,0.17-0.75,0.27
	c-0.03,0-0.03,0.03-0.07,0.07c0.03,0.07,0.03,0.14,0.03,0.21c0.17,0.1,0.34,0.17,0.58,0.31c0.27,0,0.65,0,0.99,0
	c0.14,0.1,0.24,0.27,0.45,0.21c0.1-0.1,0.21-0.21,0.31-0.31C581.35,323.77,581.45,323.57,581.35,323.43z M582.03,322.88
	c-0.03-0.14-0.03-0.27-0.07-0.38c-0.14,0-0.21,0-0.27,0c-0.14,0.14-0.14,0.31,0.03,0.45C581.79,322.95,581.89,322.91,582.03,322.88z
	 M586.97,322.81c-0.1-0.1-0.21-0.21-0.31-0.31c-1.17,0-2.33,0-3.56,0c0,0.24,0,0.38,0,0.51c0.07,0.1,0.14,0.17,0.21,0.24
	c0.03,0.17-0.07,0.38,0.1,0.51c0.24,0,0.48,0.03,0.69,0.03c0.1,0.1,0.14,0.14,0.17,0.17c0.14-0.1,0.27-0.21,0.34-0.24
	c0.03-0.27,0.03-0.41,0.03-0.51c0.03-0.03,0.07-0.07,0.1-0.07c0.55,0,1.13,0,1.61,0C586.59,323.05,586.76,322.95,586.97,322.81z
	 M595.95,317.5c0.1,0.14-0.07,0.34,0.1,0.48c0.21,0.03,0.41,0.14,0.58-0.07c0-0.14,0-0.31,0-0.51
	C596.43,317.43,596.19,317.22,595.95,317.5z M596.91,321.13c-0.14-0.1-0.21-0.21-0.31-0.31c-0.31,0-0.58,0-0.86,0
	c-0.1,0.07-0.17,0.14-0.24,0.21c-0.07-0.07-0.14-0.14-0.17-0.17c-1.54-0.1-2.81-0.1-3.56,0.03c0,0.17-0.03,0.34-0.03,0.55
	c-0.34,0-0.65,0-0.93,0c-0.1,0.1-0.14,0.14-0.21,0.21c-0.48,0.14-0.99-0.07-1.44,0.1c0,0.17,0,0.31,0,0.48
	c0.1,0.03,0.17,0.07,0.27,0.07c0.69,0,1.41,0,2.13,0c0.03,0,0.07-0.03,0.1-0.03v-0.03c0.17-0.07,0.34-0.17,0.48-0.24
	c0.07-0.21-0.07-0.38,0.14-0.55c0.17,0,0.34,0,0.51,0c0.21,0,0.41-0.03,0.65,0.07c0.1,0.1,0.21,0.24,0.38,0.41
	c0.14-0.17,0.27-0.34,0.38-0.48c0.41,0,0.75,0,1.1,0c0.03-0.03,0.1-0.1,0.17-0.17c0.07,0.03,0.14,0.1,0.21,0.17
	c0.27,0,0.58,0,0.89,0C596.67,321.3,596.74,321.2,596.91,321.13z M600.92,319.97c-0.65,0-1.23,0-1.82,0
	c-0.1-0.14-0.21-0.27-0.55-0.17c-0.03,0.07-0.17,0.24-0.24,0.34c-0.27,0.07-0.45-0.03-0.58,0.14c0,0.14,0,0.27,0,0.41
	c-0.07,0.07-0.14,0.14-0.21,0.21c0,0.17,0,0.31,0,0.45c0,0.03,0.03,0.03,0.07,0.07c0.45,0,0.89,0,1.34,0
	c0.1-0.14,0.21-0.24,0.27-0.31c0.03-0.17-0.07-0.38,0.1-0.51c0.24,0,0.51,0.03,0.75,0c0.27-0.03,0.58,0.07,0.86-0.07
	C600.92,320.34,600.92,320.17,600.92,319.97z M607.91,319.35c-0.1-0.1-0.21-0.17-0.31-0.27c-0.31,0-0.58,0-0.86,0
	c-0.07-0.07-0.14-0.14-0.17-0.17c-0.24-0.1-0.58,0.14-0.79-0.14c-0.03-0.17,0.07-0.34-0.1-0.51c-0.1,0-0.21,0.03-0.31,0.03
	c0,0.17-0.03,0.34-0.03,0.51c-0.1,0.1-0.21,0.21-0.31,0.31c-1.27,0-2.57,0-3.84,0c0,0-0.03,0.03-0.07,0.07
	c-0.03,0.21-0.14,0.41,0.07,0.58c0.51,0,0.99,0,1.51,0c0.07,0.07,0.17,0.14,0.24,0.21c0.14,0,0.27,0,0.41,0
	c0.21,0.24,0.17,0.65,0.69,0.65c0.07-0.1,0.17-0.24,0.31-0.45c0.03-0.07-0.1-0.27,0.07-0.41c0.89,0,1.78,0,2.54,0
	c0.24,0.1,0.34,0.17,0.51,0.24c0.17-0.21,0.34-0.41,0.51-0.58C608.01,319.42,607.98,319.38,607.91,319.35z M613.57,322.02
	c0-0.07-0.03-0.14-0.07-0.14c-0.07,0-0.17,0.03-0.27,0.03c0,0.03,0,0.1,0,0.14c0.07,0,0.17,0.03,0.27,0.03
	C613.53,322.09,613.57,322.02,613.57,322.02z M614.59,322.02c0.55,0.07,0.55,0.07,0.69-0.07
	C615.11,321.85,614.9,321.85,614.59,322.02z M614.29,358.73c0.17,0.1,0.34,0.17,0.58,0.31c0.07,0,0.21,0,0.27,0
	c0.24-0.14,0.41-0.21,0.58-0.31c0.03-0.07,0.03-0.14,0.03-0.21c-0.21-0.1-0.38-0.24-0.65-0.38
	C614.8,358.39,614.42,358.39,614.29,358.73z M612.74,359.55c0.1,0.1,0.21,0.21,0.31,0.31c0.14,0,0.27,0,0.34,0
	c0.17-0.1,0.31-0.21,0.45-0.31c-0.07-0.14-0.1-0.24-0.14-0.34c-0.24,0.1-0.48-0.03-0.72,0.1
	C612.91,359.38,612.85,359.49,612.74,359.55z M529.73,462.35c-0.07,0-0.14,0-0.21,0c-0.21,0.21-0.21,0.41,0,0.65
	c0.14-0.07,0.34,0.07,0.48-0.07C530.17,462.62,529.83,462.52,529.73,462.35z M532.61,465.05c0-0.03-0.03-0.07-0.1-0.14
	c-0.24,0.1-0.51-0.14-0.75,0.1c0,0.24-0.07,0.51,0.03,0.72c0.07,0.07,0.14,0.14,0.17,0.17c0,0.24-0.07,0.48,0.07,0.72
	c0.17,0,0.34,0,0.58,0C532.61,466.05,532.61,465.57,532.61,465.05z M536.38,465.57c0.07,0,0.14,0,0.21,0c0.21-0.21,0.21-0.41,0-0.65
	c-0.1,0.03-0.17,0.03-0.27,0.07C536.27,465.19,536.17,465.4,536.38,465.57z M535.42,463.34c0.07,0.14-0.1,0.34,0.1,0.51
	c0.07,0,0.14,0,0.24,0c0.07-0.07,0.14-0.17,0.27-0.34C535.86,463.38,535.76,463.07,535.42,463.34z M533.67,467.8
	c-0.1-0.1-0.17-0.21-0.27-0.31c-0.17,0.03-0.38-0.07-0.51,0.07c-0.03,0.48-0.03,0.48,0.07,0.58c0.14,0,0.27,0,0.45,0
	C533.46,468.07,533.53,467.97,533.67,467.8z M540.32,475.41c-0.31-0.31-0.62-0.62-0.93-0.93c-0.38,0.07-0.65-0.24-0.96-0.31
	c-0.07-0.14-0.1-0.27-0.14-0.38c-0.1,0-0.17,0-0.24,0c-0.21-0.21-0.38-0.38-0.55-0.55c-0.03-0.17,0.07-0.38-0.07-0.51
	c-0.21-0.03-0.38-0.07-0.58-0.1c0-0.21,0-0.34,0-0.48c-0.1-0.1-0.21-0.21-0.31-0.31c-0.17,0-0.34-0.03-0.55-0.03
	c0-0.27,0-0.51,0-0.82c-0.34-0.03-0.62,0.07-0.82-0.07c-0.14-0.24,0.1-0.58-0.17-0.79c-0.21,0-0.41,0-0.62,0
	c-0.1-0.1-0.21-0.21-0.31-0.31c0-0.24-0.07-0.51,0.07-0.72c0.03-0.07,0.1-0.17,0.14-0.24c-0.14-0.21-0.24-0.45-0.34-0.65
	c-0.1,0-0.21,0-0.34,0.03c0,0.79,0,1.58,0,2.37c0,0.07,0.07,0.1,0.1,0.17c0.14,0,0.24,0,0.27,0c0.27,0.14,0.41,0.24,0.48,0.27
	c0.03,0.24,0.03,0.38,0.03,0.51c0.41,0.07,0.62,0.34,0.82,0.58c0.03,0.1,0.07,0.21,0.1,0.31c0.17,0,0.31,0,0.34,0
	c0.24,0.14,0.38,0.24,0.45,0.27c0.07,0.31-0.1,0.58,0.14,0.79c0.17,0.03,0.38-0.1,0.51,0.07c0.03,0.17,0.03,0.34,0.07,0.48
	c0.07,0.07,0.1,0.1,0.17,0.17c0,0.14,0,0.27,0,0.45c0.1,0.07,0.21,0.17,0.38,0.31c0.38,0,0.82,0,1.23,0c0.1,0.1,0.17,0.17,0.21,0.21
	c0.17,0.03,0.34,0.03,0.51,0.07c0.03,0.24,0.07,0.41,0.1,0.62c0.27,0,0.55,0.07,0.79-0.07
	C540.32,475.65,540.32,475.47,540.32,475.41z M552.52,478.53c0.14-0.1,0.34,0.07,0.48-0.1c0.07-0.48,0.07-0.48-0.07-0.58
	c-0.14,0-0.31,0-0.51,0C552.45,478.05,552.25,478.25,552.52,478.53z M545.49,475.78c-0.03-0.17,0.07-0.34-0.07-0.51
	c-0.31,0-0.65,0-0.99-0.03c0-0.1,0-0.21,0-0.31c0.07-0.1,0.14-0.17,0.21-0.24c-0.1-0.1-0.21-0.21-0.31-0.31
	c-0.17,0-0.34-0.07-0.51,0.07c0,0.14,0,0.31,0,0.48c0.21,0.1,0.41,0.21,0.62,0.34c0,0.07,0,0.21,0,0.21
	c0.14,0.21,0.24,0.34,0.31,0.45C545.05,475.85,545.29,475.99,545.49,475.78z M546.21,476.09c-0.21,0-0.41,0-0.69,0
	c0.03,0.38,0.21,0.65,0.41,0.65C546.42,476.4,546.49,476.3,546.21,476.09z M550.36,479.66c-0.14-0.03-0.31-0.07-0.48-0.07
	c-0.41-0.41-0.79-0.79-1.17-1.17c-0.03-0.17,0.07-0.34-0.1-0.55c-0.21,0-0.45,0-0.55,0c-0.48-0.21-0.41-0.69-0.79-0.86
	c-0.24,0-0.55,0-0.82,0c0,0-0.03,0.03-0.07,0.07c-0.1,0.31,0.17,0.38,0.34,0.55c0.24,0.03,0.51-0.1,0.72,0.1c0,0.14,0,0.27,0,0.41
	c0.14,0.27,0.41,0.34,0.65,0.48c0,0.14,0,0.27,0,0.41c0.1,0.1,0.21,0.21,0.31,0.31c0.17,0.03,0.34-0.1,0.51,0.07
	c0.03,0.14,0.03,0.31,0.07,0.48c0.1,0.1,0.21,0.21,0.27,0.27c0.38,0,0.75,0,1.1,0c0.03,0,0.03-0.03,0.07-0.07
	C550.43,479.93,550.5,479.72,550.36,479.66z M551.53,480.75c-0.03-0.14-0.03-0.21-0.07-0.38c-0.31,0.1-0.55-0.03-0.79,0.1
	c-0.1,0.17,0,0.31,0.14,0.41c0.1,0.07,0.24,0.14,0.24,0.14C551.29,480.89,551.42,480.82,551.53,480.75z M551.94,477.6
	c0.07-0.03,0.14-0.03,0.24-0.07c0-0.48,0-0.48-0.1-0.58c-0.14,0-0.27,0-0.45,0c-0.03,0.1-0.07,0.17-0.14,0.34
	C551.6,477.39,551.73,477.5,551.94,477.6z M553.03,481.58c-0.03-0.14-0.07-0.21-0.07-0.27c0-0.03-0.03-0.07-0.07-0.07
	c-0.27,0-0.55,0-0.82,0c-0.17,0.17-0.17,0.31,0,0.45c0.14,0,0.27,0,0.41,0c0.07,0.07,0.14,0.14,0.1,0.1
	C552.76,481.71,552.93,481.64,553.03,481.58z M553.34,479.11c0.17-0.03,0.38,0.07,0.55-0.1c-0.03-0.07-0.03-0.21-0.07-0.31
	c-0.21,0-0.34,0-0.48,0C553.21,478.83,553.17,478.97,553.34,479.11z M554.1,482.33c-0.07-0.27-0.45-0.17-0.55-0.45
	c-0.1,0.21-0.38,0.27-0.31,0.55c0.14,0.14,0.21,0.38,0.48,0.34C553.89,482.64,554.1,482.57,554.1,482.33z M555.3,479.9
	c-0.07-0.1-0.17-0.24-0.21-0.31c-0.38,0-0.65,0-0.93,0c-0.03,0-0.03,0.03-0.07,0.07c0,0.07,0,0.14,0,0.21
	c0.1,0.14,0.24,0.24,0.24,0.27C554.85,480.27,555.06,479.93,555.3,479.9z M556.22,483.32c0-0.07-0.03-0.14-0.07-0.14
	c-0.07,0-0.17,0.03-0.27,0.03c0,0.03,0,0.1,0,0.14c0.07,0,0.17,0.03,0.27,0.03C556.15,483.39,556.22,483.36,556.22,483.32z
	 M556.84,480.72c-0.1-0.1-0.21-0.21-0.31-0.31c-0.31,0.03-0.62-0.03-0.93,0.03c0,0.1-0.03,0.21-0.03,0.31
	c0.14,0.03,0.27,0.07,0.38,0.14c0.14,0.1,0.21,0.21,0.34,0.17C556.5,480.92,556.7,480.82,556.84,480.72z M558.21,481.54
	c-0.03-0.1-0.03-0.17-0.07-0.31c-0.38,0.03-0.72-0.03-1.03,0.07c0,0.14,0,0.21,0,0.27C557.8,481.75,558.04,481.75,558.21,481.54z
	 M562.25,483.29c-0.1-0.07-0.21-0.17-0.31-0.27c-0.51,0-1.03,0-1.54,0c-0.03,0-0.03,0.03-0.07,0.07c0,0.07,0,0.14,0,0.21
	C560.95,483.46,561.57,483.46,562.25,483.29z M668.2,415.22c-0.1-0.27,0.1-0.55-0.07-0.72c-0.17,0.1-0.31,0.17-0.41,0.24
	c0.03,0.27-0.07,0.45,0.14,0.58C667.96,415.32,668.03,415.29,668.2,415.22z M669.23,413.95c-0.1-0.1-0.21-0.21-0.34-0.34
	c-0.14,0.27-0.58,0.17-0.72,0.58c0.1,0.07,0.21,0.17,0.27,0.24c0.31,0,0.51,0,0.79,0C669.23,414.19,669.23,414.05,669.23,413.95z
	 M670.02,412.13c-0.17,0.03-0.38-0.07-0.51,0.07c0,0.38,0,0.75,0,1.13c0,0.03,0.03,0.03,0.07,0.07c0.07,0,0.14,0,0.21,0
	c0.14-0.1,0.14-0.24,0.1-0.38c-0.03-0.21,0.21-0.27,0.21-0.45S670.15,412.2,670.02,412.13z M670.74,411.83
	c-0.03-0.14-0.03-0.27-0.07-0.38c-0.14,0-0.21,0-0.27,0c-0.14,0.14-0.14,0.31,0.03,0.45C670.53,411.86,670.6,411.86,670.74,411.83z
	 M671.63,438.29c-0.03-0.17-0.03-0.27-0.07-0.41c-0.17,0.03-0.27,0.03-0.41,0.07c0.03,0.14,0.03,0.24,0.07,0.34
	C671.32,438.29,671.42,438.29,671.63,438.29z M675.19,405.69c0.14,0.21,0.24,0.34,0.27,0.41c0.41,0,0.69,0,0.96,0
	c0.1-0.14,0.21-0.24,0.31-0.34c0-0.14,0-0.27,0-0.38c0.14-0.14,0.24-0.24,0.31-0.34c0.21-0.03,0.38,0.07,0.55-0.1
	c0-0.1,0-0.24,0-0.51c0.1-0.07,0.27-0.21,0.45-0.34c0.14-0.14,0.17-0.27,0.24-0.45c0.07-0.21,0.27-0.31,0.41-0.45
	c-0.03-0.17-0.03-0.31-0.03-0.51c-0.45,0-0.93,0-1.37,0c-0.1,0.1-0.21,0.21-0.31,0.31c0,0.14,0,0.27,0,0.41
	c-0.14,0.24-0.41,0.38-0.65,0.48c0,0.14,0,0.27,0,0.41c-0.27,0.14-0.17,0.41-0.24,0.69c-0.1,0-0.17,0.03-0.31,0.07
	C675.6,405.21,675.36,405.35,675.19,405.69z M674.71,418.1c-0.14,0.17-0.21,0.31,0.03,0.41
	C674.85,418.37,674.85,418.27,674.71,418.1z M675.26,406.2c0-0.03-0.07-0.1-0.1-0.17c-0.17,0-0.31,0-0.38,0
	c-0.17,0.14-0.31,0.24-0.38,0.27c-0.03,0.24-0.03,0.38-0.03,0.51c-0.24,0.1-0.48,0.17-0.62,0.41c0,0.34,0,0.72,0,1.06
	c0,0.03,0.03,0.07,0.1,0.14c0.1-0.03,0.24-0.03,0.34-0.07c0-0.21,0-0.34,0-0.48c0.1-0.1,0.21-0.21,0.31-0.31
	c0.24,0,0.48-0.03,0.75-0.03C675.26,407.1,675.26,406.68,675.26,406.2z M676.98,415.66c-0.07-0.07-0.14-0.17-0.17-0.21
	c-0.1-0.27,0.03-0.51-0.1-0.75c-0.07,0-0.14-0.03-0.21-0.03c-0.41,0.14-0.34,0.69-0.72,0.86c-0.1,0-0.27,0-0.45,0
	c-0.17,0.41,0.14,0.48,0.27,0.65c0.34,0,0.72,0,1.06,0C676.77,416.01,677.01,415.9,676.98,415.66z M682.05,408.81
	c-0.14-0.14-0.21-0.38-0.51-0.34c-0.1,0.07-0.24,0.21-0.34,0.31c0,0.14,0,0.27,0,0.41c-0.21,0.31-0.62,0.31-0.82,0.62
	c0,0.17-0.03,0.34-0.03,0.55c-0.41,0-0.82,0-1.13,0c-0.14,0.17-0.24,0.24-0.34,0.34c0,0.27,0,0.58,0,0.86
	c-0.24,0.21-0.21,0.58-0.48,0.72c-0.14,0.03-0.24,0.07-0.31,0.07c-0.14,0.21,0.07,0.48-0.17,0.62c-0.21,0.14,0.03,0.41-0.14,0.58
	c-0.38,0.07-0.55,0.38-0.79,0.62c0.1,0.1,0.21,0.21,0.31,0.31c0.14,0,0.27,0,0.31,0c0.58-0.58,1.13-1.13,1.75-1.75
	c0-0.1,0-0.31,0-0.51c0.14-0.1,0.24-0.21,0.27-0.24c0.21-0.07,0.41,0.03,0.55-0.14c0-0.14,0-0.27,0-0.45
	c0.1-0.1,0.21-0.21,0.34-0.31c0.14-0.03,0.31-0.03,0.51-0.07c0-0.17,0.03-0.34,0.03-0.51c0.21-0.31,0.62-0.31,0.82-0.62
	c0.03-0.24-0.03-0.51,0.24-0.65C682.12,409.05,682.12,408.91,682.05,408.81z M684.48,409.8c-0.1-0.1-0.21-0.21-0.31-0.31
	c-0.1,0.1-0.21,0.21-0.31,0.31c0.1,0.14,0.17,0.24,0.27,0.38C684.31,410.04,684.38,409.94,684.48,409.8z M705.56,378.99
	C705.6,378.99,705.6,378.99,705.56,378.99C705.6,378.99,705.6,378.99,705.56,378.99C705.6,378.99,705.6,378.99,705.56,378.99z
	 M698.19,404.39c0.1,0.14,0.21,0.24,0.24,0.31c-0.03,0.27-0.24,0.34-0.34,0.48c-0.24,0-0.45,0-0.65,0c-0.03,0.07-0.1,0.1-0.1,0.17
	c0,0.21,0.03,0.38,0,0.55c-0.03,0.14-0.17,0.21-0.21,0.34c-0.03,0.14,0,0.27,0,0.38c-0.07,0.07-0.1,0.1-0.14,0.1
	c-0.34,0-0.69,0-1.03,0c-0.17-0.14-0.07-0.34-0.1-0.51c-0.07-0.07-0.14-0.17-0.21-0.24c0-0.27,0-0.58,0-0.86
	c0.07-0.1,0.07-0.1,0.51-0.1c0.14-0.27,0.27-0.58,0.45-0.86s0.62-0.21,0.79-0.62c0-0.21,0-0.51,0-0.86c0.27,0,0.51,0,0.75,0
	c0.03,0.07,0.07,0.07,0.07,0.1c0,0.07,0,0.14,0,0.21C698.23,403.46,698.23,403.98,698.19,404.39z M706.04,349.82
	c0.27,0,0.58,0,0.86,0c0.14-0.1,0.21-0.17,0.27-0.24c0.31-0.03,0.38,0.21,0.51,0.34c0,0.14,0,0.27,0,0.41
	c-0.1,0.1-0.21,0.21-0.31,0.31c-0.14,0-0.31,0-0.45,0c-0.07-0.07-0.17-0.14-0.24-0.21c-0.14,0-0.27,0-0.41,0
	C706.18,350.27,705.84,350.2,706.04,349.82z M564.96,395.72c0.03,0.1,0.14,0.27,0.27,0.51c-0.03,0.21-0.27,0.34-0.45,0.51
	c-0.03,0.03-0.1,0.03-0.17,0.07c-0.17-0.14-0.31-0.38-0.45-0.72c0.1-0.07,0.21-0.17,0.31-0.31
	C564.62,395.78,564.76,395.78,564.96,395.72z M701.69,373.33c-0.14,0.07-0.27,0.14-0.45,0.21c-0.21,0.1-0.24-0.14-0.41-0.17
	c0-0.21,0-0.38,0-0.51c0.24-0.17,0.48,0,0.69-0.1C701.76,372.89,701.65,373.09,701.69,373.33z M704.5,366.75c0.07,0,0.1,0,0.14,0
	c0.24,0.14,0.38,0.24,0.45,0.27c0.07,0.38-0.21,0.45-0.31,0.58c-0.1,0-0.17,0-0.24,0C704.4,367.34,704.46,367.06,704.5,366.75z
	 M662.55,403.6c0.45-0.21,0.51,0.1,0.69,0.24c0,0.07,0,0.14,0,0.21c-0.17,0.21-0.38,0.1-0.58,0.07
	C662.48,403.98,662.65,403.77,662.55,403.6z M572.95,319.14c-0.27,0.17-0.27,0.17-1.3,0.07c0.1-0.1,0.14-0.14,0.17-0.14
	c0.34,0,0.72,0,1.06,0C572.91,319.08,572.95,319.14,572.95,319.14z M572.85,405.14l10.35-3.29l3.29-8.95l-4.25-3.29
	c-7.54,5.18-12.72,11.76-12.72,11.76L572.85,405.14z M604.35,397.64l10.35-0.48l1.89-3.29c-9.43-6.62-14.6-6.14-14.6-6.14
	l-3.29,1.89L604.35,397.64z M612.81,428.21h4.7c7.06-9.43,6.14-19.3,6.14-19.3h-4.25c-3.29,4.73-7.99,7.54-7.99,7.54
	C613.29,422.07,612.81,428.21,612.81,428.21z M602.94,435.75c-2.37,4.25-5.18,5.66-5.18,5.66l-12.72-0.48l-1.41-4.7
	c5.18-1.41,8.47-5.66,8.47-5.66C596.36,434.31,602.94,435.75,602.94,435.75z M565.31,415.97c0.45,10.35,4.7,14.6,4.7,14.6h4.7
	l1.89-10.83l-7.54-6.14L565.31,415.97z M601.05,402.33c0.48,2.81,5.18,14.12,5.18,14.12c-6.62,2.81-13.2,9.87-13.2,9.87
	c-2.84-3.77-10.83-8.47-10.83-8.47c0.48-3.77,4.25-12.72,4.25-12.72C593.07,404.66,601.05,402.33,601.05,402.33z"/>
</svg>
