<?xml version="1.0" encoding="utf-8"?>
<!-- Generator: Adobe Illustrator 22.1.0, SVG Export Plug-In . SVG Version: 6.00 Build 0)  -->
<svg version="1.1" id="图层_1" xmlns="http://www.w3.org/2000/svg" xmlns:xlink="http://www.w3.org/1999/xlink" x="0px" y="0px"
	 viewBox="0 0 800 800" style="enable-background:new 0 0 800 800;" xml:space="preserve">
<style type="text/css">
	.st0{fill:#B02224;}
	.st1{fill:#027D37;}
	.st2{fill-rule:evenodd;clip-rule:evenodd;fill:#FFFFFF;}
	.st3{fill-rule:evenodd;clip-rule:evenodd;fill:#F29100;}
	.st4{fill-rule:evenodd;clip-rule:evenodd;}
	.st5{fill-rule:evenodd;clip-rule:evenodd;fill:#027D37;}
	.st6{fill:#FFFFFF;}
</style>
<g>
	<path d="M395.1,73.5C214.8,73.5,68.6,219.7,68.6,400s146.2,326.5,326.5,326.5S721.6,580.3,721.6,400S575.4,73.5,395.1,73.5
		L395.1,73.5z"/>
	<path class="st0" d="M395.1,80c43.2,0,85.1,8.5,124.5,25.1c38.1,16.1,72.3,39.2,101.7,68.6c29.4,29.4,52.5,63.6,68.6,101.7
		c16.7,39.4,25.1,81.3,25.1,124.5s-8.5,85.1-25.1,124.5c-16.1,38.1-39.2,72.3-68.6,101.7c-29.4,29.4-63.6,52.5-101.7,68.6
		c-39.4,16.7-81.3,25.1-124.5,25.1s-85.1-8.5-124.5-25.1c-38.1-16.1-72.3-39.2-101.7-68.6c-29.4-29.4-52.5-63.6-68.6-101.7
		C83.6,485.1,75.1,443.2,75.1,400s8.5-85.1,25.1-124.5c16.1-38.1,39.2-72.3,68.6-101.7c29.4-29.4,63.6-52.5,101.7-68.6
		C310,88.5,351.9,80,395.1,80"/>
	<path d="M395.1,155.1c-135.2,0-244.9,109.6-244.9,244.9s109.6,244.9,244.9,244.9S640,535.2,640,400S530.3,155.1,395.1,155.1
		L395.1,155.1z"/>
	<path class="st1" d="M395.1,161.6c32.2,0,63.4,6.3,92.8,18.7c28.4,12,53.9,29.2,75.8,51.1c21.9,21.9,39.1,47.4,51.1,75.8
		c12.4,29.4,18.7,60.6,18.7,92.8s-6.3,63.4-18.7,92.8c-12,28.4-29.2,53.9-51.1,75.8c-21.9,21.9-47.4,39.1-75.8,51.1
		c-29.4,12.4-60.6,18.7-92.8,18.7s-63.4-6.3-92.8-18.7c-28.4-12-53.9-29.2-75.8-51.1c-21.9-21.9-39.1-47.4-51.1-75.8
		c-12.4-29.4-18.7-60.6-18.7-92.8s6.3-63.4,18.7-92.8c12-28.4,29.2-53.9,51.1-75.8c21.9-21.9,47.4-39.1,75.8-51.1
		C331.7,167.9,362.9,161.6,395.1,161.6"/>
	<path class="st2" d="M490,473.9l-18.1,20.7l57.8,2.2C529.7,496.7,518.9,473.3,490,473.9z"/>
	<g>
		<path class="st2" d="M339.7,212.5c-1.8,1.6-4.5,2.8-7.9,3.9v7.9c2.4-0.6,4.3-1.4,5.7-2.2c1.6-0.6,3.1-1.6,4.7-3v23.6h9.8v-36h-8.1
			C343.1,209.1,341.5,210.9,339.7,212.5z"/>
		<path class="st2" d="M384.6,208.7c-2-1.2-4.7-1.8-7.9-2c-0.2,0-0.4,0-0.6,0c-3,0-5.3,0.6-7.3,1.6c-2,1-3.5,2.4-4.5,4.3
			c-1.2,2-1.8,4.1-1.8,6.5c0,3.3,1.2,6.3,3.3,8.5c2.2,2.4,4.7,3.3,7.9,3.3c1,0,2,0,3-0.2c0.4-0.2,1-0.4,1.4-0.6
			c1.2-0.6,2.4-1.4,3.5-2.6c-0.2,3.7-0.8,6.1-1.4,7.3c-0.8,1.6-2.2,2.6-3.5,2.6l-0.2,0c-0.8,0-1.6-0.4-2.2-1c-0.6-0.6-1-1.4-1.2-2.8
			l-9.8,1.2c0.6,1.8,1.4,3.3,2.6,4.7c1,1.2,2.4,2.2,3.9,2.8c1.6,0.8,3.9,1,6.7,1c0,0,0,0,0.2,0c4.5,0,8.3-1.6,11-4.3
			c2.6-3.1,3.9-7.7,3.9-14.2c0-4.3-0.6-7.7-2-10.4C388.5,211.9,386.7,209.9,384.6,208.7z M380.1,223.5c-1,1-2.2,1.4-3.3,1.6
			c-0.2,0-0.2,0-0.2,0c-1.4,0-2.4-0.6-3.3-1.6c-0.8-1.2-1.2-2.6-1.2-4.7c0-2,0.4-3.3,1.2-4.3c0.8-1,2-1.4,3.1-1.4c0.2,0,0.2,0,0.4,0
			c1.2,0,2.4,0.6,3.1,1.6c1,1,1.6,2.6,1.6,4.5C381.4,220.9,380.8,222.5,380.1,223.5z"/>
		<path class="st2" d="M417.4,208.7c-2.2-1.2-4.5-1.8-7.9-2c-0.2,0-0.4,0-0.6,0c-2.9,0-5.3,0.6-7.3,1.6c-2,1-3.5,2.4-4.5,4.3
			c-1.2,2-1.8,4.1-1.8,6.5c0,3.3,1.2,6.3,3.3,8.5c2.2,2.4,4.9,3.3,8.1,3.3c1,0,1.8,0,2.8-0.2c0.6-0.2,1-0.4,1.4-0.6
			c1.4-0.6,2.3-1.4,3.5-2.6c-0.4,3.7-0.8,6.1-1.4,7.3c-0.8,1.6-2,2.6-3.5,2.6v0c-1,0-1.6-0.4-2.3-1c-0.6-0.6-1-1.4-1.2-2.8l-9.8,1.2
			c0.6,1.8,1.4,3.3,2.6,4.7c1,1.2,2.4,2.2,3.9,2.8c1.8,0.8,3.9,1,6.7,1h0.2c4.5,0,8.1-1.6,10.8-4.3c2.6-3.1,3.9-7.7,3.9-14.2
			c0-4.3-0.6-7.7-1.8-10.4C421.2,211.9,419.4,209.9,417.4,208.7z M412.9,223.5c-1,1-2,1.4-3.3,1.6c-1.4,0-2.6-0.6-3.3-1.6
			c-1-1.2-1.4-2.6-1.4-4.7c0-2,0.4-3.3,1.2-4.3c1-1,2-1.4,3.3-1.4h0.2c1.2,0,2.4,0.6,3.3,1.6c0.6,1,1.2,2.6,1.2,4.5
			C414.1,220.9,413.7,222.5,412.9,223.5z"/>
		<path class="st2" d="M453.8,228.6v-21.8h-8.5l-4.7,5.7L427.5,228v8.1h13.2h4.7v6.7h8.5v-6.7h4.5v-7.5H453.8z M445.4,228.6h-4.7
			h-4.7l4.7-5.7l4.7-5.5V228.6z"/>
	</g>
	<path class="st2" d="M499.3,369.6c0,0,78.9-22.2,119.2,40.3c0,0,17.9,23.4,18.9,40.9c1.2,17.3,13.2,24.2,18.1,7.1
		c4.9-17.5,1-23-10.4-32.9c0,0-12-4.3-10.2-13.6c1.6-9.2,14.5-6.5,22.2-2.2c7.7,4.3,25,26.2,25.6,34.8c0.6,8.8,9.2,1.2,8.3-14.2
		c-1.2-15.1-7.1-21.6-13.8-27.1c-6.5-5.5-5.3-21.2,9.2-19.1c14.8,2.2,31.7,9.8,30.1,37c-1.8,27.3-1.2,33.2,8.1,31.1
		c9.2-2.2,1.6-21.2,14.7-21.2c13,0,8.1,25,4.3,36.6c-3.7,11.2-22.8,29.7-33.8,32.4c-10.8,2.6-179.6,17.3-179.6,17.3
		s13.6-35.4-40.1-43.9C490,473.1,520.3,421.3,499.3,369.6z"/>
	<path class="st3" d="M499.3,369.6l0.8,3.1h0.2c1.4-0.4,14.2-3.7,31.5-3.7c13,0,28.3,2,43.3,8.1c22.2,9.4,38.9,29.1,50.5,49.8
		c4.1,7.7,8.3,16.9,8.6,24.2c0.4,5.5,1.8,10.2,3.9,13.8c1,2,2.2,3.3,3.7,4.5c1.6,1,3.3,1.8,5.3,1.8c2.8,0,5.1-1.4,7.1-3.5
		c1.8-2.2,3.2-5.1,4.3-8.9c1.4-5.1,2.2-9.4,2.2-13.4c0-4.7-1.4-8.9-3.7-12.4c-6.9-10.2-9.2-8.7-15.5-13.4c-1-1-2-2-2.6-2.9
		c-0.8-1-1.2-2.2-1.2-3.3c0-0.4,0.2-0.8,0.2-1.2c0.2-1.6,0.8-2,1.6-2.6c0.8-0.6,2.2-1,3.9-1c3.5,0,8.5,1.8,12,3.7
		c1.4,0.8,3.7,2.8,6.3,5.5c3.9,3.9,8.5,9.4,11.8,14.6c1.8,2.5,3.1,5.1,4.1,7.3c1.2,2,1.6,3.9,1.8,4.7c0,1.6,0.4,3,1,4.3
		c0.4,0.6,1,1.4,1.8,1.8c0.8,0.4,1.6,0.8,2.6,0.8c1,0,1.8-0.4,2.4-0.8c1.4-0.6,2.2-1.6,3-2.6c1.2-1.8,2.2-3.7,3-6.3
		c0.6-2.6,1.2-5.5,1.2-8.9c0-1,0-2-0.2-2.9c-0.6-7.9-2.4-14-5.1-18.7c-2.8-4.7-6.3-7.9-9.6-10.8c-1.6-1.2-2.6-3.7-2.6-6.5
		c0-1.8,0.6-3.7,1.6-4.9c1.2-1.2,2.6-2,5.5-2c0.6,0,1.4,0,2.2,0.2c6.7,1,13.6,3.1,18.7,7.5c2.6,2.4,4.5,5.1,6.1,8.6
		c1.6,3.7,2.6,8.3,2.6,14c0,1.2-0.2,2.2-0.2,3.3c-0.4,7.3-0.8,13.2-0.8,17.9c0.2,5.1,0.4,8.9,1.6,12c0.6,1.4,1.6,2.9,3.1,3.7
		c1.4,1,3,1.4,4.5,1.4c1.2,0,2.4-0.2,3.7-0.6c1.8-0.4,3.3-1.2,4.3-2.4c2-2.2,2.8-4.5,3.1-6.9c0.8-3.3,1.2-6.9,2-9c0.4-1,1-1.6,1.6-2
		c0.4-0.4,1.4-0.8,2.9-0.8c1,0,1.8,0.2,2.4,0.6c0.8,0.4,1.4,1.4,2,3.1c0.6,1.6,1,3.9,1,6.5c0,7.3-2.2,16.3-4.1,21.8
		c-0.8,2.4-2.4,5.5-4.9,8.5c-3.5,4.9-8.5,10-13.4,14.2c-2.4,2-4.9,3.7-7.1,5.1c-2.4,1.4-4.5,2.2-6.1,2.5c-0.4,0.2-1.6,0.4-3.3,0.6
		c-6.9,1-21.2,2.5-38.9,4.3c-26.8,2.5-60.8,5.7-88.3,8.3c-13.8,1.2-26,2.4-34.6,2.9c-8.7,0.8-13.8,1.4-13.8,1.4l0.2,3.1l3.1,1.2
		c0-0.2,1.8-4.5,1.8-10.8c0-6.1-1.8-14.2-8.4-21.4c-6.5-7.1-17.7-13-36.2-15.9l-0.4,3.1l1,1.2c0-0.2,18.9-28.5,18.9-65.5
		c0-12.8-2-26.5-7.7-40.3L499.3,369.6l0.8,3.1L499.3,369.6l-3.1,1.4c5.3,12.8,7.3,25.8,7.3,37.8c0,17.5-4.1,33.2-8.1,44.4
		c-2.2,5.7-4.1,10.2-5.7,13.4c-0.8,1.6-1.4,2.7-1.8,3.7c-0.4,0.4-0.4,0.6-0.6,0.8l-0.2,0.2v0.2l-2.4,3.9l4.7,0.6
		c17.5,2.9,27.1,8.5,32.5,14.4c5.3,5.7,6.5,12,6.7,16.9c0,2.6-0.4,4.7-0.8,6.3c-0.2,0.8-0.4,1.4-0.4,1.8l-0.2,0.4l1.4,0.6l-1.4-0.6
		l1.4,0.6l-1.4-0.6l-2,4.9l5.3-0.4c0,0,42.1-3.7,85.8-7.7c21.6-2.2,43.9-4.1,61.2-5.9c8.7-1,16.1-1.8,21.8-2.4c3-0.4,5.3-0.6,7.1-1
		c2-0.2,3.3-0.4,4.1-0.6c3.3-1,6.9-2.8,10.4-5.1c5.3-3.7,11-8.7,15.5-14c4.7-5.3,8.5-10.6,10.2-15.5c2-6.1,4.3-15.5,4.3-24
		c0-3.9-0.6-7.9-2.4-11.2c-0.8-1.6-2-3-3.7-4.1c-1.6-1-3.5-1.4-5.7-1.4c-2,0-3.9,0.2-5.5,1c-1.4,0.8-2.6,1.8-3.3,2.9
		c-1.6,1.8-2.2,3.9-2.8,6.1c-0.6,3.1-1,6.1-1.6,8.3c-0.2,1-0.6,1.8-1,2.2c-0.4,0.4-0.6,0.6-1.4,0.8c-1,0.2-1.6,0.4-2.2,0.4
		c-0.6,0-1-0.2-1-0.2c-0.2-0.2-0.2-0.2-0.4-0.6c-0.4-0.4-0.6-1.6-1-3.1c-0.2-1.8-0.2-3.9-0.2-6.7c0-4.5,0.2-10.2,0.6-17.5
		c0.2-1.2,0.2-2.6,0.2-3.7c0-6.5-1.2-11.8-2.9-16.3c-3-6.9-7.7-11.8-13-14.7c-5.5-3.1-11.4-4.7-16.9-5.5c-1.2-0.2-2.2-0.2-3.1-0.2
		c-4.3-0.2-8.1,1.6-10.4,4.1c-2.4,2.7-3.3,6.1-3.3,9.2c0.2,4.3,1.8,8.6,5.1,11.6c3.1,2.6,5.9,5.3,8.1,9.1c2.2,3.7,3.7,8.7,4.3,15.9
		c0,0.8,0,1.6,0,2.4c0.2,4.1-0.8,7.5-1.8,9.6c-0.4-2-0.2-1.2-1-3.1c-2.2-5.7-6.9-12.6-11.8-18.7c-2.5-3.1-5.1-6.1-7.5-8.5
		c-2.6-2.4-4.7-4.3-6.9-5.5c-4.3-2.6-9.8-4.5-15.1-4.5c-2.6,0-5.3,0.6-7.5,2c-2.4,1.4-3.9,3.9-4.5,6.9c0,0.8-0.2,1.6-0.2,2.4
		c0,2.8,1,5.1,2.2,7.1c2,3,4.5,4.7,6.7,5.9c4.5,2.8,7.1,3.5,11.6,10.2c1.6,2.8,2.6,5.3,2.6,8.9c0,3.1-0.6,6.9-2,11.6
		c-1,3.1-2.2,5.3-3,6.5c-1.2,1-1.8,1.2-2.2,1.2c-0.4,0-0.8-0.2-1.4-0.6c-1-0.6-2.2-2.2-3.1-4.5c-1-2.4-1.8-5.3-2-9
		c-0.4-4.7-1.8-9.8-3.7-14.6c-10-25.6-34.6-54.3-59.6-64.7c-15.9-6.7-32.1-8.7-45.6-8.7c-19.3,0-33.2,3.9-33.4,3.9l-3.5,1l1.4,3.5
		L499.3,369.6z"/>
	<path class="st3" d="M508.7,403.8L508.7,403.8c0.6-0.2,6.9-1.6,15.7-1.6c13,0,31.5,3,48,15.7c16.5,13,31.5,36,36.8,77.7l6.5-1
		c-5.5-42.7-21.2-67.9-39.3-81.8c-17.9-14.2-38.2-17.1-51.9-17.1c-10.2,0-17.1,1.8-17.3,1.8L508.7,403.8z"/>
	<path class="st3" d="M506.2,428.4L506.2,428.4c0.4,0,2.6-0.2,5.7-0.2c8.5,0,24.6,1.4,39.7,10.6c7.5,4.5,14.8,11,20.7,20.3
		c5.9,9.2,10.6,21.2,13,37.2l6.5-1c-2.4-16.7-7.5-29.5-14-39.7c-9.8-15.1-23-23.8-35.2-28.5c-12.4-4.5-23.8-5.5-30.7-5.5
		c-3.9,0-6.5,0.4-6.5,0.4L506.2,428.4z"/>
	<path class="st3" d="M498.1,453.4L498.1,453.4c1.6,0.2,15.3,1,29.1,6.7c7.1,2.9,14,7.3,19.3,13c5.5,5.9,9.6,13.6,11,23.6l6.5-0.8
		c-1.6-11.8-6.7-21-13.2-27.7c-10-10.2-23-15.5-33.6-18.3c-10.6-2.8-18.9-2.9-18.9-2.9L498.1,453.4z"/>
	<path class="st2" d="M508.1,410.7c0,60.8-49.4,109.9-109.9,109.9c-61,0-110.1-49.2-110.1-109.9c0-61,49.2-110.3,110.1-110.3
		C458.8,300.4,508.1,349.8,508.1,410.7z"/>
	<path class="st4" d="M508.1,410.7H505c0,29.5-12,56.3-31.5,75.3c-19.3,19.5-46,31.5-75.3,31.5c-29.5,0-56.2-12-75.7-31.5
		c-19.3-19.1-31.3-45.8-31.3-75.3c0-29.5,12-56.2,31.3-75.7c19.5-19.3,46.2-31.3,75.7-31.3c29.3,0,56.1,12,75.3,31.3
		c19.5,19.5,31.5,46.2,31.5,75.7H508.1h3.3c0-62.7-50.7-113.5-113.3-113.5c-62.7,0-113.5,50.7-113.5,113.5
		c0,62.4,50.7,113.3,113.5,113.3c62.5,0,113.3-50.9,113.3-113.3H508.1z"/>
	<path class="st4" d="M314.8,378.5h-7.9c0,0-1.6,37.8-11.6,44.4l13.8,37.6c0,0,16.7-15,40.5-7.1l1.6-17.3
		C351.2,436.1,315.2,420.2,314.8,378.5L314.8,378.5z M315.8,369c17.7-43.7,51.5-44.2,51.5-44.2l1.8-9.4l-18.3-3.3
		c-24.4,11.2-46.6,41.1-46.6,41.1l1.2,19.3L315.8,369L315.8,369z M435.4,349.8l14.9-2.8c0,0-7.9-23.4-2.8-35.6c0,0-21-9.2-39.9-8.9
		c0,0-9.2,10.6-30.3,10.6l-0.6,10C376.7,323.2,409.8,318.7,435.4,349.8L435.4,349.8L435.4,349.8z M501.8,400.7l-5.5,22.2
		c0,0,7.7,4.9,7.7,15.5l4.5-35L501.8,400.7L501.8,400.7z M453.6,356.4l-14,2.2c0,0,9.4,40.9-13.8,61.6l6.7,9.8
		c0,0,24.8-17.7,56.4-10.4l5.5-20.1C494.5,399.5,460.7,376.9,453.6,356.4L453.6,356.4L453.6,356.4z M419.2,427.2
		c0,0-23.6,19.5-58.6,13.4l-1,15.5c0,0,29.3,7.7,41.5,40.7l12.6-5.5c0,0-9.2-31.9,10.4-52.9L419.2,427.2z"/>
	<path class="st2" d="M162.4,453.4c-3.3-15.9-5.9-35.6-5.9-58.2c0,0,70.2-61.4,143.2,4.9c46.8,47.4,27.7,99.9,27.7,99.9H179.3
		C179.3,500,168.5,482.7,162.4,453.4z"/>
	<path class="st3" d="M174.6,502.8l152.8,0.6h2.4l0.8-2.2c0-0.2,3.9-11.2,3.9-27.7c0-20.1-6.1-48.8-32.4-75.5v-0.2h-0.2
		c-26.1-23.8-52.7-31.9-75.9-31.9c-21.2,0-39.7,6.7-52.9,13.4c-6.3,3.2-12.6,6.7-16.1,9.2l-0.4,7.7c3.3-2.6,12.4-7.7,20.7-11.8
		c12.4-6.1,29.5-11.8,48.8-11.8c21.8,0,46.4,7.1,71.6,29.9l2.2-2.4l-2.4,2.4c25.2,25.4,30.7,52.1,30.7,71c0,7.7-1,14.2-1.8,18.7
		c-0.6,2.2-1,3.9-1.4,5.1c-0.2,0.6-0.2,1-0.4,1.4v0.2v0.2l3,1v-3.1l-152.8-0.6V502.8z"/>
	<g>
		<path class="st3" d="M301,461.3c-4.9-13-14-27.9-29.9-41.9h-0.2c-19.5-15.3-39.1-20.7-56.4-20.7c-6.7,0-13.2,0.8-19.1,2
			c-9.8,2.2-18.7,5.7-25.6,9.2c-5.3,2.6-9.6,5.3-12.8,7.3c0.2,2.5,0.4,5.1,0.8,7.7c2.5-2,8.1-5.9,15.9-9.6
			c6.1-2.9,13.4-5.9,21.6-7.7c5.9-1.4,12.4-2.4,19.1-2.4c16.1,0,34,4.7,52.3,19.3c15.1,13,23.4,26.9,28.1,39.1
			c4.5,12,5.3,22.2,5.3,27.9c0,1.6,0,2.9-0.2,3.7c0,0.4,0,0.6,0,0.8v0.2v0.2l6.5,0.8c0-0.2,0.2-2.2,0.2-5.7
			C306.7,485.3,305.9,474.1,301,461.3z"/>
		<path class="st3" d="M238.5,430.2c-11.8-4.3-22.6-5.9-32.3-5.9c-3.7,0-7.5,0.2-10.8,0.6v0c-10.8,1.6-19.7,4.9-26.1,8.5
			c-4.1,2-7.3,4.1-9.4,5.7c0.4,2.6,0.8,4.9,1.2,7.5c1.4-1.4,5.3-4.5,11.6-7.7c5.7-3,13.4-5.9,22.8-7.3c3.3-0.6,7.1-0.8,10.8-0.8
			c8.9,0,18.9,1.6,30.1,5.7c19.9,7.3,30.3,19.7,36,31.5c5.7,11.8,6.5,23.4,6.5,28.5c0,1,0,1.6,0,2.2v0.4v0.2l6.5,0.6
			c0,0,0-1.2,0-3.3c0-5.7-0.8-18.3-7.1-31.3C272.1,452,260.1,438.3,238.5,430.2z"/>
		<path class="st3" d="M200.5,475.4c-1.6-0.8-3.3-1.4-5.1-1.8c-7.7-2.2-15.1-2.7-20.6-2.7c-3.9,0-6.9,0.4-8.1,0.4
			c0.8,2.2,1.4,4.3,2.2,6.3c1.4-0.2,3.3-0.2,5.9-0.2c5.5,0,13.2,0.6,20.6,2.9c1,0.4,1.8,0.8,2.8,1c8.1,3.3,15.3,9.1,19.5,18.7h2
			l4.5-1.8C219.2,486.3,210,479.2,200.5,475.4z"/>
		<path class="st3" d="M228.3,459.5c-10.8-7.3-22.4-9.8-32.9-9.8c0,0-0.2,0-0.4,0c-14.2,0-26.2,4.3-32.1,6.7c0.4,2.2,1,4.5,1.6,6.5
			c4.7-2,16.7-6.7,30.5-6.7c0.2,0,0.4,0,0.4,0c9.4,0.2,19.7,2.4,29.1,8.7c9.6,6.5,18.7,17.3,25.6,35.2h0.2l5.9-2.2
			C249.1,478.8,239.1,466.8,228.3,459.5z"/>
	</g>
	<g>
		<rect x="57.7" y="501.2" class="st5" width="674.8" height="143.7"/>
		<path d="M732.5,501.2v143.7H57.7V501.2H732.5 M741.2,492.5h-8.7H57.7H49v8.7v143.7v8.7h8.7h674.8h8.7v-8.7V501.2V492.5
			L741.2,492.5z"/>
	</g>
	<g>
		<path class="st6" d="M142.8,547.4v70.8h20.7h9.4c7.5,0,11.2-3.5,11.2-10.4v-60.4h-20.6H142.8z M168.3,602.2c0,2.6-1.2,3.5-3.3,3.3
			h-1.6h-5.7V560h5.7h4.9V602.2z"/>
		<path class="st6" d="M139.6,528.5v13.4h23.8h27.1V606c0,3.1-1.2,4.5-3.7,4.1h-2.2v12.2h10c7.5,0,11.2-3.9,11.2-12.2v-68.2h4.1
			v-13.4h-46.6H139.6z"/>
		<path class="st6" d="M127.4,568.6l-2.7-9.6h-18.3l4.1,17.7c1.2,5.9,4.3,8.5,9,7.9h18.7v-12.2H132
			C129.8,572.7,128.2,571.6,127.4,568.6z"/>
		<path class="st6" d="M127.8,538.1l-2.4-11H107l3.9,20.3c0.6,5.3,3.9,7.7,9.6,7.1h17.7v-13H132C129.4,541.7,128,540.5,127.8,538.1z
			"/>
		<path class="st6" d="M115,608.2c-0.8,2-2.2,2.8-4.1,2.6h-5.3v11.2h13.6c6.7,0.2,10.4-2.2,11.4-7.5l7.3-25.2h-17.3L115,608.2z"/>
		<path class="st6" d="M326.1,528.5v-4.3h-8.5h-8.5v4.3H297h-31.3v12H297h12.2v6.9H297h-28.7v73.4h16.5v-19.9H297h12.2v19.9h8.5h8.5
			v-19.9h12.2h12.4v5.5c0.2,2.4-0.8,3.1-3.3,2.6h-9h-3.5v11.8h3.5h14.9c9.8,0.6,14.4-3.1,13.8-11v-62.3h-28.7h-12.2v-6.9h12.2h30.9
			v-12h-30.9H326.1z M309.2,588.3H297h-12.2v-7.5H297h12.2V588.3z M350.7,588.3h-12.4h-12.2v-7.5h12.2h12.4V588.3z M338.3,559.4
			h12.4v10.2h-11l5.1-7.3h-6.5h-11.8l-5.5,7.3h-3.3h-3.3l-5.5-7.7H297h-5.9l4.9,7.7h-11.2v-10.2H297h20.7H338.3z"/>
		<path class="st6" d="M521,527.9h-24.6h-5.5v-3.7h-5.5h-12.2v4.3h-26v11.2h26.4v4.7h-27.1V556h27.1v4.3h-26.4V572h26.4v4.7h-26.4
			v10.4h26.4v5.1h-26.4v10.4h26.4v3.7h11.8h6.5v-3.7h4.5h26.8v-10.4h-26.8h-4.1v-5.1h4.1h26.8v-10.4h-26.8h-4.1V572h4.1h11.4
			c9,0.4,13.6-3.3,13.6-10.8v-5.5h4.1v-11.2H521V527.9z M491.9,539.3h4.5h4.5v5.1h-4.5h-4.5V539.3z M501.3,558.6
			c-0.2,1.4-1,2-2.2,1.8h-2.8h-5.1V556h5.1h4.9L501.3,558.6z"/>
		<path class="st6" d="M485.4,608.5h-29.5c-8.5-0.8-13.4-3.1-14.9-7.1v-23.2c-0.4-2.2-1.4-4.3-3.2-6.3c-0.6-0.8-1-1.4-1-2l1-1.4
			c2-2,3.2-4.3,3.2-7.5v-37.4h-18.3v11.8h4.1v26c0,1.2-0.6,1.8-1.8,2.2h-0.4h-2v12.6h2c1.2,0.2,2,1.2,2.2,2.9v25.6
			c-0.2,2.4-1.2,3.7-2.8,3.7h-2.2v10.8h9c1.6,0,3.7-0.8,6.3-2.5c1-0.4,1.8-0.8,2.4-0.8c0.6,0,1.6,0.4,3.1,1.4c2.4,1.4,4.5,2,6.3,2
			h36.4h11h28.1v-10.8h-28.1H485.4z"/>
		<path class="st6" d="M671.8,595.2c4.9-0.4,7.9-4.1,8.7-11.4l4.1-53.7h-12.8H670l-3.7,49.2c-0.6,2.4-1.6,3.6-3.1,3.3H659v12.6h11
			C670.6,595.2,671.2,595.2,671.8,595.2z"/>
		<polygon class="st6" points="653.7,607.8 653.7,525.5 637.8,525.5 637.8,607.8 628.7,607.8 628.7,525.5 612.8,525.5 612.8,607.8 
			595.3,607.8 583.7,607.8 583.7,620.7 595.3,620.7 671.8,620.7 684.6,620.7 684.6,607.8 671.8,607.8 		"/>
		<path class="st6" d="M595.3,595.6h0.2h11.4V583h-3.1c-2.2,0.6-3.2-0.8-2.8-4.3l-2.8-48.2h-3h-11.6l3.1,52.9
			C586.9,591.8,589.6,596,595.3,595.6z"/>
	</g>
	<g>
		<path class="st6" d="M432.7,97l-0.1-0.4l-7.4-0.7l-23.1,45.7l7.7,0.8l6.5-13.6l18.7,1.9l4,14.6l8.2,0.8L432.7,97z M419.2,123
			l6.1-12.4c1.1-2.2,2-4.4,2.8-6.7c0.5,2.2,1.1,4.9,1.9,8l3.4,12.6L419.2,123z"/>
		<path class="st6" d="M235.5,141.9l-6.2,4l10.6,50.1l6.5-4.2l-3.4-14.7l15.8-10.2l12.3,8.9l6.9-4.5L235.5,141.9z M241.5,170.9
			l-3-13.5c-0.5-2.4-1.2-4.7-2-7c1.8,1.5,3.9,3.1,6.5,5l10.5,7.8L241.5,170.9z"/>
		<polygon class="st6" points="161.9,296.9 119.6,274.5 123,268.1 140,277.1 150.8,256.5 133.8,247.6 137.2,241.1 179.5,263.5 
			176.1,269.9 156.6,259.6 145.8,280.1 165.3,290.4 		"/>
		<polygon class="st6" points="184,256.7 183.6,256.4 146.1,227.6 167.4,199.9 172.6,203.9 155.8,225.8 166.3,233.9 182,213.4 
			187.2,217.4 171.5,237.9 183.2,246.9 200.7,224.2 206,228.2 		"/>
		<polygon class="st6" points="210.1,223.7 177.7,188.5 182.9,183.6 224.4,193.6 200.4,167.6 205.5,162.8 238,198 232.7,202.9 
			191.2,192.8 215.2,218.9 		"/>
		<polygon class="st6" points="280.1,170.6 261.4,126.6 268,123.8 268.2,124 303.7,147.1 289.8,114.5 296.2,111.7 315,155.7 
			308.4,158.6 272.7,135.2 286.6,167.9 		"/>
		<path class="st6" d="M365.9,145.3c-3.2,0-5.9-0.9-8-2.7c-2.5-2.2-4-5.7-4.5-10.5l0-0.5l6.5-1.6l0.1,0.6c0.5,3.4,1.4,5.7,2.6,6.7
			c1.2,1.1,2.8,1.5,4.7,1.3c1.4-0.2,2.6-0.6,3.6-1.4c1-0.8,1.5-1.7,1.8-2.8c0.3-1.2,0.3-3.1,0-5.7L369,96.2l7.2-0.8l3.6,32.2
			c0.4,3.9,0.3,7.1-0.4,9.4c-0.7,2.3-2.1,4.2-4.1,5.7c-2,1.4-4.4,2.3-7.2,2.6C367.3,145.3,366.6,145.3,365.9,145.3z"/>
		
			<rect x="390.7" y="94.8" transform="matrix(0.9999 -1.619877e-02 1.619877e-02 0.9999 -1.8713 6.4033)" class="st6" width="7.3" height="47.8"/>
		<polygon class="st6" points="486,157.1 479.1,155.2 465.8,114.6 456.3,148.8 449.5,146.9 462.4,100.8 469.3,102.8 482.6,143.3 
			492.1,109.1 498.9,111 		"/>
		<path class="st6" d="M512,168.8l-6.6-3.1l8.7-18.2l-4.8-32.9l8,3.8l2.3,17c0.4,2.8,0.6,5.6,0.8,8.3c2.1-1.5,4.6-3,7.4-4.7
			l14.3-8.7l7.7,3.7l-29.2,16.7L512,168.8z"/>
		<polygon class="st6" points="561.1,199.5 531.6,178.9 558.9,139.7 587.5,159.6 583.8,165 561.1,149.2 553.5,160.1 574.7,174.9 
			571,180.3 549.8,165.5 541.3,177.6 564.8,194.1 		"/>
		<polygon class="st6" points="626.5,239 612.9,221.8 596.2,234.9 591.7,229.2 629.3,199.6 649.5,225.3 644.3,229.3 628.6,209.4 
			618.1,217.7 631.7,234.9 		"/>
		<path class="st6" d="M641.6,288.7c-2.7,0-5.1-0.5-7.4-1.4c-4.1-1.7-7.3-4.8-9.7-9.1c-2.5-4.5-3.6-8.7-3.3-12.6
			c0.3-3.8,1.8-7.5,4.5-10.9c2.6-3.4,6-6.2,10-8.3c4.3-2.4,8.6-3.6,12.8-3.8c4.1-0.1,8,0.9,11.4,3.1c3.4,2.1,6.1,5.1,8.1,8.8
			c2.3,4.2,3.2,8.4,2.6,12.4c-0.6,4-2.5,7.7-5.8,11l-0.4,0.4l-4.9-5.4l0.3-0.4c2.4-2.5,3.7-5,4.1-7.4c0.3-2.4-0.2-5-1.6-7.6
			c-1.7-3-3.8-5.2-6.4-6.4c-2.6-1.2-5.3-1.6-8.2-1.1c-2.9,0.5-5.8,1.5-8.4,3c-3.4,1.9-6.1,4-8.1,6.4c-2,2.3-3,4.9-3.1,7.6
			c-0.1,2.7,0.5,5.3,1.8,7.7c1.6,2.9,3.8,4.9,6.6,6c2.8,1.1,6.1,1.1,9.8,0l0.5-0.2l1.9,7.2l-0.5,0.1
			C645.8,288.4,643.6,288.7,641.6,288.7z"/>
	</g>
</g>
</svg>
