<?xml version="1.0" encoding="utf-8"?>
<!-- Generator: Adobe Illustrator 22.1.0, SVG Export Plug-In . SVG Version: 6.00 Build 0)  -->
<svg version="1.1" id="图层_1" xmlns="http://www.w3.org/2000/svg" xmlns:xlink="http://www.w3.org/1999/xlink" x="0px" y="0px"
	 viewBox="0 0 800 800" style="enable-background:new 0 0 800 800;" xml:space="preserve">
<style type="text/css">
	.st0{fill:#B02224;}
</style>
<g>
	<path class="st0" d="M646.8,460.8c1,2.4,2.2,4,3.2,4.6c0.6,0.4,1,0.6,1.4,0.6c0.4,0,1-0.2,2.2-1.2c0.8-1.2,2-3.4,3-6.6
		c1.4-4.8,2-8.6,2-11.9c0-3.6-1-6.2-2.6-9.1c-4.6-6.8-7.2-7.6-11.8-10.4c-0.5-0.3-1-0.5-1.5-0.9c-0.4,3.9-0.9,7.7-1.5,11.5
		c1.8,4.6,3.1,9.5,3.5,14.1C645,455.4,645.8,458.4,646.8,460.8z"/>
	<path class="st0" d="M266.6,701.3c40.3,17,83.1,25.7,127.3,25.7c44.1,0,87-8.6,127.3-25.7c25.9-11,50.1-25.1,72.2-42.2H194.4
		C216.5,676.2,240.7,690.3,266.6,701.3z"/>
	<path class="st0" d="M349.9,239.3v-36.8h-8.2c-1,2.4-2.6,4.2-4.4,5.8c-1.8,1.6-4.6,2.8-8,4v8c2.4-0.6,4.4-1.4,5.8-2.2
		c1.6-0.6,3.2-1.6,4.8-3v24.1H349.9z"/>
	<path class="st0" d="M375.1,233.9l-0.2,0c-0.8,0-1.6-0.4-2.2-1c-0.6-0.6-1-1.4-1.2-2.8l-10.1,1.2c0.6,1.8,1.4,3.4,2.6,4.8
		c1,1.2,2.4,2.2,4,2.8c1.6,0.8,4,1,6.8,1c0,0,0,0,0.2,0c4.6,0,8.4-1.6,11.3-4.4c2.6-3.2,4-7.8,4-14.5c0-4.4-0.6-7.8-2-10.6
		c-1.2-2.6-3-4.6-5.2-5.8c-2-1.2-4.8-1.8-8-2c-0.2,0-0.4,0-0.6,0c-3,0-5.4,0.6-7.4,1.6c-2,1-3.6,2.4-4.6,4.4c-1.2,2-1.8,4.2-1.8,6.6
		c0,3.4,1.2,6.4,3.4,8.6c2.2,2.4,4.8,3.4,8,3.4c1,0,2,0,3-0.2c0.4-0.2,1-0.4,1.4-0.6c1.2-0.6,2.4-1.4,3.6-2.6
		c-0.2,3.8-0.8,6.2-1.4,7.4C377.9,232.9,376.5,233.9,375.1,233.9z M378.5,219.6c-1,1-2.2,1.4-3.4,1.6c-0.2,0-0.2,0-0.2,0
		c-1.4,0-2.4-0.6-3.4-1.6c-0.8-1.2-1.2-2.6-1.2-4.8c0-2,0.4-3.4,1.2-4.4c0.8-1,2-1.4,3.2-1.4c0.2,0,0.2,0,0.4,0
		c1.2,0,2.4,0.6,3.2,1.6c1,1,1.6,2.6,1.6,4.6C379.9,217,379.3,218.6,378.5,219.6z"/>
	<path class="st0" d="M408.6,233.9L408.6,233.9c-1,0-1.6-0.4-2.4-1c-0.6-0.6-1-1.4-1.2-2.8l-10.1,1.2c0.6,1.8,1.4,3.4,2.6,4.8
		c1,1.2,2.4,2.2,4,2.8c1.8,0.8,4,1,6.8,1h0.2c4.6,0,8.2-1.6,11.1-4.4c2.6-3.2,4-7.8,4-14.5c0-4.4-0.6-7.8-1.8-10.6
		c-1.4-2.6-3.2-4.6-5.2-5.8c-2.2-1.2-4.6-1.8-8-2c-0.2,0-0.4,0-0.6,0c-3,0-5.4,0.6-7.4,1.6c-2,1-3.6,2.4-4.6,4.4
		c-1.2,2-1.8,4.2-1.8,6.6c0,3.4,1.2,6.4,3.4,8.6c2.2,2.4,5,3.4,8.2,3.4c1,0,1.8,0,2.8-0.2c0.6-0.2,1-0.4,1.4-0.6
		c1.4-0.6,2.4-1.4,3.6-2.6c-0.4,3.8-0.8,6.2-1.4,7.4C411.4,232.9,410.2,233.9,408.6,233.9z M412,219.6c-1,1-2,1.4-3.4,1.6
		c-1.4,0-2.6-0.6-3.4-1.6c-1-1.2-1.4-2.6-1.4-4.8c0-2,0.4-3.4,1.2-4.4c1-1,2-1.4,3.4-1.4h0.2c1.2,0,2.4,0.6,3.4,1.6
		c0.6,1,1.2,2.6,1.2,4.6C413.2,217,412.9,218.6,412,219.6z"/>
	<path class="st0" d="M445.2,202.5l-4.8,5.8l-13.5,15.9v8.2h13.5h4.8v6.8h8.6v-6.8h4.6v-7.6h-4.6v-22.3H445.2z M445.2,224.8h-4.8
		h-4.8l4.8-5.8l4.8-5.6V224.8z"/>
	<path class="st0" d="M291.9,423.4l14.1,38.4c0,0,17.1-15.3,41.4-7.2l1.6-17.7c0,0-36.8-16.3-37.2-58.9h-8
		C303.7,378,302.1,416.6,291.9,423.4z"/>
	<path class="st0" d="M425.3,420.6l6.8,10c0,0,25.3-18.1,57.7-10.7l5.6-20.5c0,0-34.6-23.1-41.8-44l-14.3,2.2
		C439.4,357.7,449.1,399.5,425.3,420.6z"/>
	<polygon class="st0" points="281.1,562.9 281.1,573.3 292.6,573.3 287.5,565.5 293.6,565.5 305.6,565.5 311.2,573.3 314.7,573.3 
		318.1,573.3 323.7,565.9 335.8,565.9 342.4,565.9 337.2,573.3 348.4,573.3 348.4,562.9 335.8,562.9 314.7,562.9 293.6,562.9 	"/>
	<polygon class="st0" points="502,547.6 502,542.4 497.4,542.4 492.7,542.4 492.7,547.6 497.4,547.6 	"/>
	<path class="st0" d="M151.3,563.5v46.6h5.8h1.6c2.2,0.2,3.4-0.8,3.4-3.4v-43.2h-5H151.3z"/>
	<polygon class="st0" points="281.1,584.8 281.1,592.4 293.6,592.4 306,592.4 306,584.8 293.6,584.8 	"/>
	<polygon class="st0" points="323.3,584.8 323.3,592.4 335.8,592.4 348.4,592.4 348.4,584.8 335.8,584.8 	"/>
	<path class="st0" d="M500.2,563.9c1.2,0.2,2-0.4,2.2-1.8l0-2.6h-5h-5.2v4.4h5.2H500.2z"/>
	<path class="st0" d="M49.1,650.3h689.6V503.4H49.1V650.3z M178.2,612.3c0,7-3.8,10.6-11.5,10.6h-9.6H136v-72.3h21.1h21.1V612.3z
		 M663.6,586.6h4.2c1.6,0.2,2.6-1,3.2-3.4l3.8-50.2h1.8h13.1l-4.2,54.9c-0.8,7.4-3.8,11.3-8.8,11.7c-0.6,0-1.2,0-1.8,0h-11.3V586.6z
		 M598.5,533.3h3l2.8,49.2c-0.4,3.6,0.6,5,2.8,4.4h3.2v12.9h-11.7h-0.2c-5.8,0.4-8.6-3.8-8.6-12.5l-3.2-54.1H598.5z M586.6,612.3
		h11.9h17.9v-84h16.3v84h9.2v-84h16.3v84h18.5h13.1v13.3h-13.1h-78.2h-11.9V612.3z M446.3,547.6H474v-4.8h-26.9v-11.5h26.5v-4.4
		h12.5h5.6v3.8h5.6h25.1v16.9h4.6v11.5h-4.2v5.6c0,7.6-4.6,11.5-13.9,11.1h-11.7h-4.2v4.8h4.2h27.3v10.6h-27.3h-4.2v5.2h4.2h27.3
		v10.7h-27.3h-4.6v3.8h-6.6H474v-3.8h-26.9v-10.7H474v-5.2h-26.9v-10.6H474v-4.8h-26.9v-11.9H474v-4.4h-27.7V547.6z M421.2,613.1
		h2.2c1.6,0,2.6-1.4,2.8-3.8v-26.1c-0.2-1.8-1-2.8-2.2-3h-2v-12.9h2h0.4c1.2-0.4,1.8-1,1.8-2.2v-26.5H422v-12.1h18.7v38.2
		c0,3.2-1.2,5.6-3.2,7.6l-1,1.4c0,0.6,0.4,1.2,1,2c1.8,2,2.8,4.2,3.2,6.4v23.7c1.6,4,6.6,6.4,15.3,7.2h30.2h11.3h28.7v11h-28.7
		h-11.3h-37.2c-1.8,0-4-0.6-6.4-2c-1.6-1-2.6-1.4-3.2-1.4c-0.6,0-1.4,0.4-2.4,0.8c-2.6,1.8-4.8,2.6-6.4,2.6h-9.2V613.1z
		 M261.6,531.3h32H306v-4.4h8.7h8.6v4.4h12.5h31.5v12.3h-31.5h-12.5v7h12.5h29.3v63.7c0.6,8-4,11.9-14.1,11.3h-15.3h-3.6v-12.1h3.6
		h9.2c2.6,0.6,3.6-0.2,3.4-2.6v-5.6h-12.7h-12.5v20.3h-8.6H306v-20.3h-12.5h-12.5v20.3h-16.9v-75h29.3H306v-7h-12.5h-32V531.3z
		 M132.8,531.3h24.3h47.6V545h-4.2v69.7c0,8.4-3.8,12.5-11.5,12.5h-10.2v-12.5h2.2c2.6,0.4,3.8-1,3.8-4.2V545h-27.7h-24.3V531.3z
		 M118.3,529.9l2.4,11.3c0.2,2.4,1.6,3.6,4.2,3.4h6.4v13.3h-18.1c-5.8,0.6-9.2-1.8-9.8-7.2l-4-20.7H118.3z M117.5,562.5l2.8,9.8
		c0.8,3,2.4,4.2,4.6,3.8h6.4v12.5h-19.1c-4.8,0.6-8-2-9.2-8l-4.2-18.1H117.5z M98,615.3h5.4c2,0.2,3.4-0.6,4.2-2.6l5.6-19.3H131
		l-7.4,25.7c-1,5.4-4.8,7.8-11.7,7.6H98V615.3z"/>
	<path class="st0" d="M429.6,105.5c-0.8-3.1-1.5-5.8-2-8.1c-0.8,2.3-1.8,4.6-2.8,6.9l-6.3,12.7l14.5,1.5L429.6,105.5z"/>
	<path class="st0" d="M249.1,157.9l-10.7-7.9c-2.6-1.9-4.8-3.6-6.6-5.1c0.8,2.3,1.5,4.7,2.1,7.1l3,13.8L249.1,157.9z"/>
	<path class="st0" d="M162.1,494.5c-11.9-29.2-18.5-61.1-18.5-94.5c0-138.2,112-250.3,250.3-250.3s250.3,112,250.3,250.3
		c0,0.8,0,1.7,0,2.5c1.2-0.3,2.4-0.4,3.5-0.4c5.4,0,11,2,15.5,4.6c2.2,1.2,4.4,3.2,7,5.6c2.4,2.4,5,5.4,7.6,8.6
		c5,6.2,9.9,13.3,12.1,19.1c0.8,2,0.6,1.2,1,3.2c1-2.2,2-5.6,1.8-9.9c0-0.8,0-1.6,0-2.4c-0.6-7.4-2.2-12.5-4.4-16.3
		c-2.2-3.8-5-6.6-8.2-9.3c-3.4-3-5-7.4-5.2-11.8c0-3.2,1-6.6,3.4-9.4c2.4-2.6,6.2-4.4,10.7-4.2c1,0,2,0,3.2,0.2
		c5.6,0.8,11.7,2.4,17.3,5.6c4.5,2.5,8.5,6.4,11.5,11.6c-0.3-43.2-8.9-85.2-25.7-124.7c-16.5-38.9-40-73.9-70.1-103.9
		c-30-30-65-53.6-103.9-70.1C480.8,81.6,438,73,393.9,73c-44.1,0-87,8.6-127.3,25.7c-38.9,16.5-73.9,40-103.9,70.1
		c-30,30-53.6,65-70.1,103.9C75.5,313,66.9,355.9,66.9,400c0,32.4,4.7,64.1,13.9,94.5H162.1z M672.6,251.2c2.3,4.3,3.2,8.5,2.7,12.7
		c-0.6,4.1-2.6,7.9-5.9,11.2l-0.4,0.4l-5-5.6l0.4-0.4c2.4-2.5,3.8-5.1,4.2-7.6c0.4-2.5-0.2-5.1-1.7-7.8c-1.7-3.1-3.9-5.3-6.5-6.6
		c-2.6-1.3-5.4-1.6-8.4-1.1c-3,0.5-5.9,1.6-8.6,3c-3.5,1.9-6.3,4.1-8.3,6.5c-2,2.4-3.1,5-3.2,7.8c-0.1,2.8,0.5,5.5,1.9,7.9
		c1.6,3,3.9,5,6.7,6.2c2.8,1.1,6.2,1.1,10,0l0.6-0.2l1.9,7.4l-0.5,0.1c-2.3,0.6-4.5,0.9-6.6,0.9c-2.7,0-5.2-0.5-7.6-1.5
		c-4.1-1.7-7.5-4.9-9.9-9.3c-2.5-4.6-3.6-8.9-3.4-12.8c0.3-3.9,1.8-7.7,4.6-11.1c2.7-3.4,6.1-6.3,10.2-8.5c4.4-2.4,8.8-3.7,13-3.8
		c4.2-0.1,8.2,0.9,11.6,3.1C667.7,244.4,670.5,247.4,672.6,251.2z M633.2,195.2l20.6,26.2l-5.3,4.2l-16-20.4l-10.8,8.5l13.9,17.6
		l-5.3,4.2l-13.9-17.6l-17.1,13.4l-4.6-5.8L633.2,195.2z M590.5,154.3l-3.9,5.5l-23.1-16.1l-7.7,11.1l21.7,15.1l-3.8,5.5l-21.7-15.1
		l-8.7,12.4l24.1,16.8l-3.9,5.5l-30.2-21l28-40.1L590.5,154.3z M510.5,108.3l8.2,3.9l2.4,17.4c0.4,2.8,0.7,5.7,0.8,8.4
		c2.2-1.5,4.7-3.1,7.6-4.8l14.7-8.9l7.9,3.8l-29.8,17.1l-8.9,18.6l-6.7-3.2l8.9-18.6L510.5,108.3z M462.6,94.3l7.1,2l13.6,41.4
		l9.7-34.9l6.9,1.9l-13.1,47.1l-7.1-2l-13.6-41.4l-9.8,34.9l-6.9-1.9L462.6,94.3z M424.7,89.2l7.5,0.8l0.1,0.4l14.9,50.3l-8.4-0.8
		l-4.1-15l-19.1-1.9l-6.7,13.9l-7.9-0.8L424.7,89.2z M396.4,88l0.8,48.9l-7.4,0.1L389,88.2L396.4,88z M357.8,124.1l0.1,0.6
		c0.5,3.5,1.4,5.8,2.7,6.9c1.2,1.1,2.8,1.5,4.8,1.3c1.5-0.2,2.7-0.6,3.7-1.4c1-0.8,1.6-1.7,1.8-2.9c0.3-1.2,0.3-3.2,0-5.8l-3.7-33.3
		l7.4-0.8l3.7,32.9c0.4,4,0.3,7.3-0.4,9.6c-0.8,2.4-2.2,4.3-4.2,5.8c-2,1.4-4.5,2.3-7.4,2.6c-0.8,0.1-1.5,0.1-2.2,0.1
		c-3.3,0-6.1-0.9-8.2-2.8c-2.6-2.2-4.1-5.8-4.6-10.7l0-0.5L357.8,124.1z M263.9,117.7l0.2,0.2l36.3,23.7l-14.2-33.3l6.6-2.8l19.2,45
		l-6.7,2.9l-36.5-23.9l14.2,33.4l-6.6,2.8l-19.2-45L263.9,117.7z M230.8,136.2l43.4,30.2l-7.1,4.6l-12.5-9.1l-16.1,10.4l3.5,15
		l-6.6,4.3l-10.8-51.2L230.8,136.2z M177,178.9l42.4,10.2l-24.6-26.6l5.3-4.9l33.1,35.9l-5.4,5l-42.4-10.2l24.6,26.7l-5.3,4.9
		l-33.1-35.9L177,178.9z M161.1,195.5l5.3,4.1L149.3,222l10.7,8.2l16.1-20.9l5.3,4.1l-16.1,20.9l12,9.2l17.9-23.2l5.3,4.1
		l-22.4,29.1l-0.4-0.3l-38.3-29.5L161.1,195.5z M115.8,265.2l17.4,9.1l11.1-21l-17.4-9.1l3.5-6.6l43.2,22.8l-3.5,6.6l-19.9-10.5
		l-11.1,21L159,288l-3.5,6.6l-43.2-22.8L115.8,265.2z"/>
	<path class="st0" d="M216.2,494.5h26.2c-6.5-13.8-14.5-22.7-22.8-28.3c-9.7-6.4-20.1-8.6-29.8-8.8c0,0-0.2,0-0.4,0
		c-14,0-26.2,4.8-31.1,6.8c0.8,3.1,1.6,5.9,2.5,8.7c1.4-0.1,4.2-0.4,7.9-0.4c5.6,0,13.3,0.6,21.1,2.8c1.8,0.4,3.6,1,5.2,1.8
		C203,480.2,210.9,485.8,216.2,494.5z"/>
	<path class="st0" d="M150,396l0-0.9c0,0-0.1,0-0.1,0C150,395.4,150,395.7,150,396z"/>
	<path class="st0" d="M189.8,482.1c-7.6-2.4-15.5-3-21.1-3c-2.5,0-4.4,0-5.8,0.2c2.3,6.3,4.5,11.5,6.3,15.3H208
		c-4.2-5.4-9.6-9-15.4-11.4C191.6,482.9,190.8,482.5,189.8,482.1z"/>
	<path class="st0" d="M274.9,494.5c-0.4-6.1-1.9-15.5-6.5-25.1c-5.8-12.1-16.5-24.7-36.8-32.2c-11.5-4.2-21.7-5.8-30.7-5.8
		c-3.8,0-7.6,0.2-11.1,0.8c-9.6,1.4-17.5,4.4-23.3,7.4c-6.4,3.2-10.4,6.4-11.8,7.8c0.4,2.4,0.9,4.8,1.4,7.1c0.2,1,0.4,2,0.7,3
		c6-2.4,18.3-6.8,32.7-6.8c0.2,0,0.4,0,0.4,0c10.7,0,22.5,2.6,33.6,10c10,6.7,19.3,17.4,26.3,33.7H274.9z"/>
	<path class="st0" d="M294,402.4c0,0,0.1,0.1,0.1,0.1l2.2-2.4L294,402.4z"/>
	<path class="st0" d="M397,295c-64.1,0-116,51.9-116,116c0,32.8,13.7,62.5,35.8,83.6h10c-2.5-2.1-4.9-4.3-7.2-6.6
		c-19.7-19.5-32-46.8-32-77c0-19.2,5-37.2,13.6-52.9l0.8,13.7l10.6-3.4c18.1-44.6,52.7-45.2,52.7-45.2l1.8-9.6l-14.3-2.6
		c13.5-5.9,28.4-9.2,44-9.2c2.7,0,5.4,0.1,8.1,0.3c-3.5,3-12.9,9.3-29.4,9.3l-0.6,10.2c0,0,33.8-4.6,59.9,27.1l15.3-2.8
		c0,0-6.5-19.4-4-32.4c10.3,5.2,19.6,12.1,27.7,20.1c17.9,17.9,29.6,41.8,31.8,68.3l-2.8-1.2l-5.6,22.7c0,0,4.5,2.9,6.7,9.1
		c-4.3,21.5-15,40.7-30,55.4c-2.3,2.3-4.7,4.5-7.2,6.6H477c22-21.1,35.8-50.8,35.8-83.6C512.8,346.8,460.9,295,397,295z"/>
	<path class="st0" d="M749.9,438.5c-0.6-1.8-1.2-2.8-2-3.2c-0.6-0.4-1.4-0.6-2.4-0.6c-1.6,0-2.6,0.4-3,0.8c-0.6,0.4-1.2,1-1.6,2
		c-0.8,2.2-1.2,5.8-2,9.2c-0.4,2.4-1.2,4.8-3.2,7c-1,1.2-2.6,2-4.4,2.4c-1.4,0.4-2.6,0.6-3.8,0.6c-1.6,0-3.2-0.4-4.6-1.4
		c-1.6-0.8-2.6-2.4-3.2-3.8c-0.9-2.5-1.3-5.4-1.5-9l0,0c-0.1-1-0.1-2.1-0.1-3.3c0-4.8,0.4-10.9,0.8-18.3c0-1.2,0.2-2.2,0.2-3.4
		c0-5.8-1-10.5-2.6-14.3c-1.6-3.6-3.6-6.4-6.2-8.8c-5.2-4.4-12.3-6.6-19.1-7.6c-0.8-0.2-1.6-0.2-2.2-0.2c-3,0-4.4,0.8-5.6,2
		c-1,1.2-1.6,3.2-1.6,5c0,2.8,1,5.4,2.6,6.6c3.4,3,7,6.2,9.8,11.1c2.8,4.8,4.6,11.1,5.2,19.1c0.2,1,0.2,2,0.2,3
		c0,3.4-0.6,6.4-1.2,9.1c-0.8,2.6-1.8,4.6-3,6.4c-0.8,1-1.6,2-3,2.6c-0.6,0.4-1.4,0.8-2.4,0.8c-1,0-1.8-0.4-2.6-0.8
		c-0.8-0.4-1.4-1.2-1.8-1.8c-0.6-1.4-1-2.8-1-4.4c-0.2-0.8-0.6-2.8-1.8-4.8c-1-2.2-2.4-4.8-4.2-7.4c-3.4-5.2-8-10.9-12.1-14.9
		c-2.6-2.8-5-4.8-6.4-5.6c-3.6-2-8.6-3.8-12.3-3.8c-0.4,0-0.7,0-1.1,0.1c0,0-0.1,0-0.1,0c-0.3,0-0.6,0.1-0.9,0.1c0,0-0.1,0-0.1,0
		c-0.3,0.1-0.5,0.1-0.8,0.2c0,0-0.1,0-0.1,0c-0.4,0.1-0.7,0.3-1,0.5c-0.8,0.6-1.4,1-1.6,2.6c0,0.4-0.2,0.8-0.2,1.2
		c0,1.2,0.4,2.4,1.2,3.4c0.2,0.3,0.5,0.7,0.8,1c0.1,0.1,0.2,0.2,0.3,0.3c0.1,0.1,0.2,0.2,0.3,0.4c0.1,0.1,0.2,0.2,0.3,0.4
		c0.1,0.1,0.2,0.2,0.3,0.3c0.2,0.2,0.4,0.4,0.6,0.6c6.4,4.8,8.8,3.2,15.9,13.7c2.4,3.6,3.8,7.8,3.8,12.7c0,4-0.8,8.4-2.2,13.7
		c-1.2,3.8-2.6,6.8-4.4,9c-2,2.2-4.4,3.6-7.2,3.6c-2,0-3.8-0.8-5.4-1.8c-1.6-1.2-2.8-2.6-3.8-4.6c-0.3-0.4-0.5-0.9-0.8-1.3
		c-0.1-0.2-0.2-0.4-0.3-0.6c-0.1-0.3-0.3-0.6-0.4-0.8c-0.1-0.3-0.2-0.5-0.3-0.8c-0.1-0.2-0.2-0.4-0.3-0.7c-0.1-0.3-0.2-0.7-0.3-1
		c-0.1-0.2-0.1-0.4-0.2-0.6c-0.1-0.4-0.2-0.8-0.3-1.2c0-0.1-0.1-0.3-0.1-0.4c-0.1-0.4-0.2-0.9-0.3-1.4c0-0.1,0-0.2-0.1-0.3
		c-0.1-0.5-0.2-1-0.3-1.5c0-0.1,0-0.1,0-0.2c-0.1-0.6-0.2-1.1-0.2-1.7v0c-0.1-0.5-0.1-1-0.1-1.5c-0.4-7.4-4.6-16.9-8.8-24.7
		c-11.9-21.1-29-41.2-51.7-50.8c-15.3-6.2-31-8.2-44.2-8.2c-9.6,0-17.9,1-23.7,2c3,8.3,5,16.9,6.1,25.9c2.8-0.3,6.2-0.6,10.1-0.6
		c14.1,0,34.8,3,53.1,17.5c18.2,14,34,39.1,39.9,81.4h6.6H707h15.7c1.7-1.2,3.6-2.5,5.4-4c5-4.2,10.1-9.4,13.7-14.5
		c2.6-3,4.2-6.2,5-8.6c2-5.6,4.2-14.9,4.2-22.3C750.9,442.5,750.5,440.1,749.9,438.5z"/>
	<path class="st0" d="M528.8,461.4c-7.5-3.1-15-4.8-20.6-5.7c-2.4,6.1-5.4,11.9-8.7,17.4c14.1,3.3,23.1,8.5,28.8,14.7
		c2,2.2,3.6,4.5,4.9,6.8H559c-1.9-8.2-5.7-14.7-10.5-19.9C543.1,468.8,536.1,464.4,528.8,461.4z"/>
	<path class="st0" d="M544.5,427.6c12.5,4.8,25.9,13.7,36,29.1c6.3,9.9,11.3,22.1,13.8,37.8h17.9c-5.8-40.6-20.7-63.2-37.1-76.1
		c-16.9-13.1-35.8-16.1-49-16.1c-3.7,0-6.9,0.2-9.5,0.5c0.2,2.7,0.3,5.4,0.3,8.1c0,3.7-0.2,7.5-0.5,11.1
		C523.4,422.4,533.6,423.7,544.5,427.6z"/>
	<path class="st0" d="M510.6,449.2c2.4,0.4,5.1,1,8,1.7c10.9,2.8,24.1,8.2,34.4,18.7c6,6.2,10.8,14.5,12.9,24.9h21.7
		c-2.6-14.4-7.1-25.5-12.6-34.1c-6-9.4-13.5-16.1-21.1-20.7c-14.2-8.7-29.2-10.6-38.2-10.8C514.5,435.9,512.8,442.7,510.6,449.2z"/>
	<path class="st0" d="M163.7,410.1c7-3.6,16.1-7.2,26.1-9.4c6-1.2,12.7-2,19.5-2c17.7,0,37.8,5.4,57.7,21.1h0.2
		c4.3,3.8,8.1,7.6,11.5,11.5c-1.1-6.6-1.7-13.4-1.7-20.4c0-7,0.6-13.9,1.8-20.6c-20.3-13.8-39.9-18.4-57.8-18.4
		c-19.7,0-37.2,5.8-49.8,12.1c-8.4,4.2-17.7,9.4-21.1,12.1c0,7.4,0.3,14.6,0.8,21.4C154,415.4,158.4,412.7,163.7,410.1z"/>
	<path class="st0" d="M310.9,494.5c-2.7-2.8-5.3-5.7-7.7-8.8c0.3,3,0.4,5.7,0.4,7.8c0,0.3,0,0.7,0,1H310.9z"/>
	<path class="st0" d="M296.9,494.5c0-0.3,0-0.6,0-1c0-4.6-0.5-12.1-3-21.1c-4.6-7.7-8.4-16-11.2-24.7c-4.9-7.6-11.3-15.3-20-22.7
		c-18.7-14.9-37-19.7-53.5-19.7c-6.8,0-13.5,1-19.5,2.4c-8.4,1.8-15.9,4.8-22.1,7.8c-7.9,3.8-13.5,7.7-16.2,9.8
		c0.8,7.4,1.7,14.3,2.9,20.8c-0.3-2.1-0.7-4.1-1-6.2c2.2-1.6,5.4-3.8,9.7-5.8c6.6-3.6,15.7-7,26.7-8.6v0c3.4-0.4,7.2-0.6,11.1-0.6
		c9.9,0,20.9,1.6,33,6c22.1,8.2,34.4,22.3,40.6,35.8c5.2,10.7,6.7,21.2,7.1,27.9H296.9z"/>
	<path class="st0" d="M418.5,427.8c0,0-24.1,19.9-59.9,13.7l-1,15.9c0,0,27.3,7.2,40.6,37.2h12l2.7-1.2c0,0-9.4-32.6,10.7-54.1
		L418.5,427.8z"/>
</g>
</svg>
