<?xml version="1.0" encoding="utf-8"?>
<!-- Generator: Adobe Illustrator 22.1.0, SVG Export Plug-In . SVG Version: 6.00 Build 0)  -->
<svg version="1.1" id="图层_1" xmlns="http://www.w3.org/2000/svg" xmlns:xlink="http://www.w3.org/1999/xlink" x="0px" y="0px"
	 viewBox="0 0 800 800" style="enable-background:new 0 0 800 800;" xml:space="preserve">
<style type="text/css">
	.st0{fill:#012454;}
	.st1{fill:#0162B2;}
	.st2{fill:#FFFFFF;}
	.st3{fill:#F7B500;}
</style>
<g>
	<g>
		<g>
			<g>
				<path class="st0" d="M692.5,136.5c0,0-121-86.5-292.5-86.5s-292.5,86.5-292.5,86.5s-5.9,29.6-5.9,85.1
					C101.6,620.6,400,750,400,750s298.4-129.4,298.4-528.4C698.4,166.1,692.5,136.5,692.5,136.5z"/>
				<path class="st1" d="M400,68c37.5,0,75.7,4.3,113.3,12.9c30.2,6.9,60.3,16.5,89.2,28.5c36.6,15.2,62.3,30.6,73.4,37.7
					c1.6,11.6,4.4,36.9,4.4,74.5c0,88.2-15.1,170-44.9,243c-23.8,58.3-56.9,111.3-98.5,157.5c-37.1,41.2-74.3,69.3-99,85.6
					c-16.9,11.1-30.3,18.5-38,22.4c-7.7-3.9-21.2-11.2-38-22.4c-24.7-16.3-61.8-44.4-99-85.6c-41.6-46.2-74.8-99.1-98.5-157.5
					c-29.8-73-44.9-154.8-44.9-243c0-37.6,2.8-62.9,4.4-74.5c11.1-7.1,36.8-22.5,73.4-37.7c29-12.1,59-21.6,89.2-28.5
					C324.3,72.3,362.5,68,400,68 M400,50c-171.5,0-292.5,86.5-292.5,86.5s-5.9,29.6-5.9,85.1C101.6,620.6,400,750,400,750
					s298.4-129.4,298.4-528.4c0-55.5-5.9-85.1-5.9-85.1S571.5,50,400,50L400,50z"/>
			</g>
			<g>
				<path class="st1" d="M572.8,528.8c11.7-18.5,22.7-38.8,32.4-61.2c-17.7-38.3-54.4-133.8-67.9-290c-13.2-3.8-27.5-7.3-42.8-10.2
					C498.3,319.2,556.6,485.5,572.8,528.8z"/>
				<path class="st1" d="M628.2,402c13.7-50.5,20.9-108.8,17.7-175.9c0,0-26.6-19.4-74.8-37.3C576.8,225.3,594.1,322.7,628.2,402z"
					/>
				<path class="st1" d="M194.8,467.6c9.7,22.3,20.7,42.7,32.4,61.2c16.2-43.3,74.5-209.6,78.2-361.4c-15.3,2.9-29.6,6.4-42.8,10.2
					C249.1,333.9,212.5,429.3,194.8,467.6z"/>
				<path class="st1" d="M377.2,159c-11.9,0.5-23.5,1.5-34.6,2.7c-1.9,52.2-12.8,244.6-74,422.5c24.4,27.9,49.2,49.3,70.5,65.2
					C346.6,600,372.1,414.2,377.2,159z"/>
				<path class="st1" d="M228.9,188.8c-48.2,18-74.8,37.3-74.8,37.3c-3.2,67.1,4,125.4,17.7,175.9
					C205.9,322.7,223.2,225.3,228.9,188.8z"/>
				<path class="st1" d="M457.4,161.7c-11.1-1.3-22.6-2.2-34.6-2.7c5,255.2,30.6,441,38,490.5c21.4-15.9,46.2-37.3,70.5-65.2
					C470.2,406.3,459.3,214,457.4,161.7z"/>
			</g>
			<g>
				<circle class="st2" cx="385.3" cy="544.3" r="62.3"/>
				<g>
					<polygon class="st0" points="386.7,563 391.7,539.3 367,524 347.3,542.3 361,565 					"/>
					<path class="st0" d="M381,489.7l-6.4-6.7c-10,1.7-19.2,5.9-27,11.8l17.8,8.6L381,489.7z"/>
					<path class="st0" d="M388,482c-0.5,0-0.9,0-1.4,0c18.3,0.4,34.6,8.7,45.8,21.6l-15.4-0.3V525l18.3,13.7l10-10.8
						c1.4,5.2,2.2,10.7,2.2,16.4c0,12.2-3.5,23.7-9.7,33.3l-8.5-8.5L405,580l-3,17l10.4,3.3c-8.2,4-17.4,6.2-27.1,6.2
						c-2.9,0-5.7-0.2-8.4-0.6L355,588.3l-12.7,1c-9.4-9-16-20.8-18.3-34.2l9-16.5l-6.9-14c-2,6.2-3.1,12.7-3.1,19.5
						c0,0.5,0,0.9,0,1.4c0,0.5,0,0.9,0,1.4c0,0.9,0,1.9,0.1,2.8c0,0.4,0,0.8,0.1,1.2c0,0.4,0.1,0.8,0.1,1.3
						c2.7,33.4,30.6,59.7,64.8,59.7c35.9,0,65-29.1,65-65S423.9,482,388,482z"/>
				</g>
			</g>
			<path class="st3" d="M418.7,444.7c0,0,42.7,68.3,168,8.3c0,0-8.3,30.3-30.7,55.3C556,508.3,450,522.7,418.7,444.7z"/>
			<path class="st3" d="M371,440.3c0,0,28.7,62-32,79.3c-56,10.7-61.3-51.3-61.3-51.3s-24,5.3-66-19.3c0,0,36,102.7,132,81.3
				c23.3-6,33.3-21.8,38.3-37.8S384,448.7,371,440.3z"/>
			<path class="st3" d="M424.7,374.7c0,0,24.3-12,50.7,4.7c26.3,16.7,39.7,40.7,90,35.3c0,0-11.3,26.3-34.3,25
				c-23-1.3-30.7-13-52.3-32.3C457,388,446,377,424.7,374.7z"/>
			<path class="st3" d="M434.3,362.3c0,0,25.3-28,65.3-10.3s66,35.7,99.3,13.7c0,0-2.3,41.3-42.7,41.3c-31,0-38.7-7.7-70.7-34.3
				C467,357.3,441.3,360.7,434.3,362.3z"/>
			<path class="st3" d="M374,374.7c0,0-24.3-12-50.7,4.7c-26.3,16.7-39.7,40.7-90,35.3c0,0,11.3,26.3,34.3,25
				c23-1.3,30.7-13,52.3-32.3C341.7,388,352.7,377,374,374.7z"/>
			<path class="st3" d="M364.3,362.3c0,0-25.3-28-65.3-10.3s-66,35.7-99.3,13.7c0,0,2.3,41.3,42.7,41.3c31,0,38.7-7.7,70.7-34.3
				C331.7,357.3,357.3,360.7,364.3,362.3z"/>
			<path class="st3" d="M272.5,551.5c0,0,23,10,44,9c0,0,15.5,55,64,56s75-28,77-68s-34.5-66-43-74s-44-41-39-92s42-102,100.5-100.5
				c26.7,0.5,47,11.5,60,11s13.1-6.1,13.1-8s-1.2-8.8-10.9-8.3c0,0,7.8-8.3,21.2-0.7c13.3,7.7,6.3,30.7-10.7,31s-41-7.3-54.7-9.7
				c-13.7-2.3-28.3-0.3-33.3,4.3c0,0,21.3-4.7,53.3,5c32,9.7,55.7,8.3,61-10.3c5.3-18.7-2.7-41.7-32-43c0,0,34.3-13,52.7,12
				c18.3,25-6,55.7-6,55.7s21-11,19.7-37c0,0,25.7,0,32-59.3c0,0,21.7,81-29.7,122.3c-30.7,20.7-74.7,11-106-0.8s-62.7-15.8-96,34.8
				c0,0-4.7-12.7,10-34c0,0-34.7,27.3-16,95.3c3.3,13.3,18.8,30.7,39.3,52.2s29.5,54.5,17.5,85.5s-42.5,52.5-73,52.5
				S310,620.5,272.5,551.5z"/>
			<path class="st3" d="M462.5,254c0,0-28-2-41.5-12c0,0,15-3,11.5-24c0,0-4.2,11.2-9.5,14.2s-15.5-10.2-18.2-13.8
				s-15.8-9.8-19.4,2.5c0,0-1.7-5.7-8-5.7c-6.3,0-10.2,4.2-13,11.7c0,0,8.2-4.5,12.2-0.5s7.2,8.8,1.8,10.2C373,238,371,232,371,232
				s-3,12,4.7,12.3c7.7,0.3,7-1.7,10.3-1.3c3.3,0.3,8,2.3,8,11.7c0,9.3-12.3,21-19,30s-10.7,22.7-8.3,52c0,0-11.3-21.3-1.3-47
				c0,0-24.3-7.7-42.7-7.7c-18.3,0-43.7,8.7-51,10.7c-7.3,2-21.3,2.7-22.3-6c-1-8.7,13.3-10.3,13.3-10.3s-11.7-7.7-23.3,0.7
				c-11.7,8.3-5,23.3,1.7,26.7c6.7,3.3,18.3,5,33,1.7s40.7-16.3,62.3-3.3c0,0-14.3-6.7-54.7,5.7c-40.3,12.3-57.7,2.3-58.3-21.3
				c-0.7-23.7,20.7-33.7,32-33.7c0,0-27.3-11.3-47.7,8c-20.3,19.3-7.7,51.3,1.3,60c0,0-22-10.7-20.7-38.3c0,0-26.3-0.7-30-56.7
				c0,0-14,33,3.7,85.3c17.7,52.3,64.3,48.7,84.7,47.3c20.3-1.3,61.3-19.3,70.7-21c9.3-1.7,41.3-5,55.7,31.2c0,0,10.5-62.5,51-77.5
				c0,0,0.5-24.5-6-41C418,250,432.5,259,462.5,254z M395.5,225h-3.6c-0.5,0-1-0.4-1-1v-0.7c0-0.5,0.4-1,1-1h3.6c0.5,0,1,0.4,1,1
				v0.7C396.5,224.6,396,225,395.5,225z"/>
		</g>
		<g>
			<polygon class="st2" points="191.3,187 173.7,150.9 187.3,144.2 182.3,134 142.7,154.3 148,163.7 162.7,156.4 180.3,192 			"/>
			<path class="st2" d="M241.3,166.7l12.3-5L216,121.3l-13.3,4.3L202,181l11.7-3.3l0.3-12.8l19.3-7.2L241.3,166.7z M214.3,152.7
				l0.4-15.7l10.3,11.5L214.3,152.7z"/>
			<polygon class="st2" points="246.3,111 258,107.3 273,156.3 261.3,160 			"/>
			<polygon class="st2" points="270.6,103.5 315.5,94.6 317.3,105.2 299,137.7 324.3,133.7 326,145.3 282,153 280.8,142.6 
				300.1,109.3 273,114.7 			"/>
			<polygon class="st2" points="366.8,139.5 379.2,139 375.7,87.3 363.3,87.8 364.6,106.8 344.7,108.1 343.5,91 331.2,91.5 
				334.7,143.2 347,142.7 345.4,119 365.4,117.9 			"/>
			<path class="st2" d="M388.5,96.4v34c0,5,4.1,9.1,9.1,9.1h25.9c5,0,9.1-4.1,9.1-9.1v-34c0-5-4.1-9.1-9.1-9.1h-25.9
				C392.6,87.3,388.5,91.4,388.5,96.4z M421,128.5h-21v-30h21V128.5z"/>
			<path class="st2" d="M448.3,90.3l-5,43.3c-0.5,4.6,2.8,8.7,7.4,9.2l28.4,2.8c4.4,0.4,8.3-2.7,9-7l6.2-43.9l-13.3-1l-5.7,40l-19-2
				l5.3-41.3H448.3z"/>
			<path class="st2" d="M569,127l3.5-10l-30.5-9.1c-4.5-1.3-9.2,1.1-10.7,5.5l-13.8,40.1l12.5,4l5.6-17.2l24.9,7.9l3.5-10l-25.1-8.3
				l3.1-9.5L569,127z"/>
			<path class="st2" d="M646.2,148.6l-5.2,9.6l-25.5-11.8l-12.2,26l26,12.2l-5.2,10.5l-29.8-14.7c-4-2-5.7-6.8-3.7-10.8l15.2-31.5
				c1.9-4,6.8-5.7,10.8-3.8L646.2,148.6z"/>
			<polygon class="st2" points="568,159 564.3,169.7 574.7,173.3 578.7,163 			"/>
			<polygon class="st2" points="638.3,190 633,199.7 642.7,205.3 647.7,196 			"/>
		</g>
	</g>
	<g>
		<path class="st2" d="M370.6,686c0.4-0.5,1.4-1.6,3.6-3.4c2.7-2.3,4.5-4,5.4-5.3c1-1.3,1.4-2.9,1.4-4.6c0-1.9-0.7-3.6-2-4.9
			c-1.3-1.3-3.2-1.9-5.5-1.9c-2.2,0-4.1,0.6-5.4,1.9c-1.4,1.3-2.2,3-2.3,5.1l0,0.5h4l0-0.5c0.1-1.2,0.5-2.2,1.2-2.8
			c0.7-0.6,1.5-0.9,2.5-0.9c1.2,0,2,0.3,2.7,0.9c0.6,0.6,0.9,1.5,0.9,2.6c0,1.3-0.4,2.4-1.2,3.4c-0.8,1.1-2.4,2.5-4.6,4.3
			c-2.3,1.8-3.9,3.4-4.8,4.7c-0.9,1.3-1.4,2.7-1.4,4.2v0.5h15.9V686H370.6z"/>
		<path class="st2" d="M392.9,665.8c-5.2,0-7.8,4.1-7.8,12.2c0,8,2.6,12.1,7.8,12.1c5.2,0,7.8-4.1,7.8-12.1
			C400.8,669.9,398.1,665.8,392.9,665.8z M392.9,686.8c-1.2,0-2.1-0.6-2.8-1.8c-0.7-1.3-1-3.7-1-7c0-3.4,0.4-5.8,1-7.1
			c0.6-1.2,1.6-1.8,2.8-1.8c1.2,0,2.1,0.6,2.8,1.8c0.7,1.3,1,3.7,1,7.1c0,3.4-0.4,5.7-1,7C395.1,686.2,394.2,686.8,392.9,686.8z"/>
		<path class="st2" d="M410.3,665.8l-0.1,0.4c-0.5,2.5-2.3,3.7-5.6,3.7h-0.5v3.3h0.5c2.1,0,3.7-0.3,4.9-0.8v17.3h3.9v-23.9H410.3z"
			/>
		<polygon class="st2" points="418.7,666.2 418.7,669.9 429.9,669.9 421.5,689.7 425.9,689.7 434.2,668.9 434.2,666.2 		"/>
	</g>
</g>
</svg>
