<?xml version="1.0" encoding="utf-8"?>
<!-- Generator: Adobe Illustrator 22.1.0, SVG Export Plug-In . SVG Version: 6.00 Build 0)  -->
<svg version="1.1" id="图层_1" xmlns="http://www.w3.org/2000/svg" xmlns:xlink="http://www.w3.org/1999/xlink" x="0px" y="0px"
	 viewBox="0 0 800 800" style="enable-background:new 0 0 800 800;" xml:space="preserve">
<style type="text/css">
	.st0{fill:#012454;}
</style>
<g>
	<path class="st0" d="M692.5,136.5c0,0-121-86.5-292.5-86.5s-292.5,86.5-292.5,86.5s-5.9,29.6-5.9,85.1C101.6,620.6,400,750,400,750
		s298.4-129.4,298.4-528.4C698.4,166.1,692.5,136.5,692.5,136.5z M635.5,464.6c-23.8,58.3-56.9,111.3-98.5,157.5
		c-37.1,41.2-74.3,69.3-99,85.6c-16.9,11.1-30.3,18.5-38,22.4c-7.7-3.9-21.2-11.2-38-22.4c-24.7-16.3-61.8-44.4-99-85.6
		c-41.6-46.2-74.8-99.1-98.5-157.5c-29.8-73-44.9-154.8-44.9-243c0-37.6,2.8-62.9,4.4-74.5c11.1-7.1,36.8-22.5,73.4-37.7
		c29-12.1,59-21.6,89.2-28.5C324.3,72.3,362.5,68,400,68c37.5,0,75.7,4.3,113.3,12.9c30.2,6.9,60.3,16.5,89.2,28.5
		c36.6,15.2,62.3,30.6,73.4,37.7c1.6,11.6,4.4,36.9,4.4,74.5C680.4,309.8,665.3,391.6,635.5,464.6z"/>
	<path class="st0" d="M418.7,444.7c31.3,78,137.3,63.7,137.3,63.7c22.3-25,30.7-55.3,30.7-55.3C461.3,513,418.7,444.7,418.7,444.7z"
		/>
	<path class="st0" d="M242.3,407c31,0,38.7-7.7,70.7-34.3c18.7-15.3,44.3-12,51.3-10.3c0,0-25.3-28-65.3-10.3
		c-40,17.7-66,35.7-99.3,13.7C199.7,365.7,202,407,242.3,407z"/>
	<path class="st0" d="M246.7,358.3c20.3-1.3,61.3-19.3,70.7-21c9.3-1.7,41.3-5,55.7,31.2c0,0,10.5-62.5,51-77.5c0,0,0.5-24.5-6-41
		c0,0,14.5,9,44.5,4c0,0-28-2-41.5-12c0,0,15-3,11.5-24c0,0-4.2,11.2-9.5,14.2s-15.5-10.2-18.2-13.8s-15.8-9.8-19.4,2.5
		c0,0-1.7-5.7-8-5.7c-6.3,0-10.2,4.2-13,11.7c0,0,8.2-4.5,12.2-0.5s7.2,8.8,1.8,10.2C373,238,371,232,371,232s-3,12,4.7,12.3
		c7.7,0.3,7-1.7,10.3-1.3c3.3,0.3,8,2.3,8,11.7c0,9.3-12.3,21-19,30s-10.7,22.7-8.3,52c0,0-11.3-21.3-1.3-47c0,0-24.3-7.7-42.7-7.7
		c-18.3,0-43.7,8.7-51,10.7c-7.3,2-21.3,2.7-22.3-6c-1-8.7,13.3-10.3,13.3-10.3s-11.7-7.7-23.3,0.7c-11.7,8.3-5,23.3,1.7,26.7
		c6.7,3.3,18.3,5,33,1.7s40.7-16.3,62.3-3.3c0,0-14.3-6.7-54.7,5.7c-40.3,12.3-57.7,2.3-58.3-21.3c-0.7-23.7,20.7-33.7,32-33.7
		c0,0-27.3-11.3-47.7,8c-20.3,19.3-7.7,51.3,1.3,60c0,0-22-10.7-20.7-38.3c0,0-26.3-0.7-30-56.7c0,0-14,33,3.7,85.3
		C179.7,363.3,226.3,359.7,246.7,358.3z M391.9,225c-0.5,0-1-0.4-1-1v-0.7c0-0.5,0.4-1,1-1h3.6c0.5,0,1,0.4,1,1v0.7c0,0.5-0.4,1-1,1
		H391.9z"/>
	<path class="st0" d="M343.7,530.3c23.3-6,33.3-21.8,38.3-37.8s2-43.8-11-52.2c0,0,28.7,62-32,79.3c-56,10.7-61.3-51.3-61.3-51.3
		s-24,5.3-66-19.3C211.7,449,247.7,551.7,343.7,530.3z"/>
	<path class="st0" d="M323.3,379.3c-26.3,16.7-39.7,40.7-90,35.3c0,0,11.3,26.3,34.3,25c23-1.3,30.7-13,52.3-32.3s32.7-30.3,54-32.7
		C374,374.7,349.7,362.7,323.3,379.3z"/>
	<path class="st0" d="M478.7,407.3c21.7,19.3,29.3,31,52.3,32.3c23,1.3,34.3-25,34.3-25c-50.3,5.3-63.7-18.7-90-35.3
		c-26.3-16.7-50.7-4.7-50.7-4.7C446,377,457,388,478.7,407.3z"/>
	<path class="st0" d="M609.3,284c1.3,26-19.7,37-19.7,37s24.3-30.7,6-55.7c-18.3-25-52.7-12-52.7-12c29.3,1.3,37.3,24.3,32,43
		s-29,20-61,10.3c-32-9.7-53.3-5-53.3-5c5-4.7,19.7-6.7,33.3-4.3s37.7,10,54.7,9.7c17-0.3,24-23.3,10.7-31
		c-13.3-7.7-21.2,0.7-21.2,0.7c9.7-0.5,10.9,6.4,10.9,8.3c0,1.9-0.1,7.5-13.1,8s-33.3-10.5-60-11c-58.5-1.5-95.5,49.5-100.5,100.5
		s30.5,84,39,92s45,34,43,74s-28.5,69-77,68s-64-56-64-56c-21,1-44-9-44-9c37.5,69,84.5,81,115,81s61-21.5,73-52.5s3-64-17.5-85.5
		s-36-38.8-39.3-52.2c-18.7-68,16-95.3,16-95.3c-14.7,21.3-10,34-10,34c33.3-50.7,64.7-46.7,96-34.8c31.3,11.8,75.3,21.5,106,0.8
		c51.3-41.3,29.7-122.3,29.7-122.3C635,284,609.3,284,609.3,284z"/>
	<path class="st0" d="M434.3,362.3c7-1.7,32.7-5,51.3,10.3c32,26.7,39.7,34.3,70.7,34.3c40.3,0,42.7-41.3,42.7-41.3
		c-33.3,22-59.3,4-99.3-13.7C459.7,334.3,434.3,362.3,434.3,362.3z"/>
	<polygon class="st0" points="180.3,192 191.3,187 173.7,150.9 187.3,144.2 182.3,134 142.7,154.3 148,163.7 162.7,156.4 	"/>
	<path class="st0" d="M214,164.9l19.3-7.2l8.1,9l12.3-5L216,121.3l-13.3,4.3L202,181l11.7-3.3L214,164.9z M214.7,137l10.3,11.5
		l-10.7,4.2L214.7,137z"/>
	<polygon class="st0" points="273,156.3 258,107.3 246.3,111 261.3,160 	"/>
	<polygon class="st0" points="300.1,109.3 280.8,142.6 282,153 326,145.3 324.3,133.7 299,137.7 317.3,105.2 315.5,94.6 
		270.6,103.5 273,114.7 	"/>
	<polygon class="st0" points="347,142.7 345.4,119 365.4,117.9 366.8,139.5 379.2,139 375.7,87.3 363.3,87.8 364.6,106.8 
		344.7,108.1 343.5,91 331.2,91.5 334.7,143.2 	"/>
	<path class="st0" d="M397.6,139.5h25.9c5,0,9.1-4.1,9.1-9.1v-34c0-5-4.1-9.1-9.1-9.1h-25.9c-5,0-9.1,4.1-9.1,9.1v34
		C388.5,135.4,392.6,139.5,397.6,139.5z M400,98.5h21v30h-21V98.5z"/>
	<path class="st0" d="M450.7,142.8l28.4,2.8c4.4,0.4,8.3-2.7,9-7l6.2-43.9l-13.3-1l-5.7,40l-19-2l5.3-41.3h-13.3l-5,43.3
		C442.8,138.2,446.1,142.4,450.7,142.8z"/>
	<path class="st0" d="M535.6,140.3l24.9,7.9l3.5-10l-25.1-8.3l3.1-9.5l27,6.5l3.5-10l-30.5-9.1c-4.5-1.3-9.2,1.1-10.7,5.5
		l-13.8,40.1l12.5,4L535.6,140.3z"/>
	<path class="st0" d="M594.2,180.6l29.8,14.7l5.2-10.5l-26-12.2l12.2-26l25.5,11.8l5.2-9.6l-29.7-14.2c-4-1.9-8.9-0.2-10.8,3.8
		l-15.2,31.5C588.6,173.8,590.2,178.6,594.2,180.6z"/>
	<polygon class="st0" points="564.3,169.7 574.7,173.3 578.7,163 568,159 	"/>
	<polygon class="st0" points="633,199.7 642.7,205.3 647.7,196 638.3,190 	"/>
	<path class="st0" d="M374.2,682.6c2.7-2.3,4.5-4,5.4-5.3c1-1.3,1.4-2.9,1.4-4.6c0-1.9-0.7-3.6-2-4.9c-1.3-1.3-3.2-1.9-5.5-1.9
		c-2.2,0-4.1,0.6-5.4,1.9c-1.4,1.3-2.2,3-2.3,5.1l0,0.5h4l0-0.5c0.1-1.2,0.5-2.2,1.2-2.8c0.7-0.6,1.5-0.9,2.5-0.9
		c1.2,0,2,0.3,2.7,0.9c0.6,0.6,0.9,1.5,0.9,2.6c0,1.3-0.4,2.4-1.2,3.4c-0.8,1.1-2.4,2.5-4.6,4.3c-2.3,1.8-3.9,3.4-4.8,4.7
		c-0.9,1.3-1.4,2.7-1.4,4.2v0.5h15.9V686h-10.6C371,685.5,371.9,684.4,374.2,682.6z"/>
	<path class="st0" d="M392.9,665.8c-5.2,0-7.8,4.1-7.8,12.2c0,8,2.6,12.1,7.8,12.1c5.2,0,7.8-4.1,7.8-12.1
		C400.8,669.9,398.1,665.8,392.9,665.8z M395.7,685c-0.6,1.2-1.6,1.8-2.8,1.8c-1.2,0-2.1-0.6-2.8-1.8c-0.7-1.3-1-3.7-1-7
		c0-3.4,0.4-5.8,1-7.1c0.6-1.2,1.6-1.8,2.8-1.8c1.2,0,2.1,0.6,2.8,1.8c0.7,1.3,1,3.7,1,7.1C396.8,681.3,396.4,683.7,395.7,685z"/>
	<path class="st0" d="M410.2,666.2c-0.5,2.5-2.3,3.7-5.6,3.7h-0.5v3.3h0.5c2.1,0,3.7-0.3,4.9-0.8v17.3h3.9v-23.9h-3.1L410.2,666.2z"
		/>
	<polygon class="st0" points="418.7,669.9 429.9,669.9 421.5,689.7 425.9,689.7 434.2,668.9 434.2,666.2 418.7,666.2 	"/>
	<path class="st0" d="M476,410.3c-1.4-1.2-2.7-2.4-4-3.6c-15.7-14.1-25.5-22.8-39.3-26.5c1.9,27.8,4,53.9,6.2,78.1
		c11.5,7.7,29.3,15.3,55.1,15.3c1.9,0,3.7,0,5.6-0.1c-4.2-17.5-7.9-34.9-11.3-51.9c-0.6-0.5-1.1-1.1-1.7-1.6
		C483.4,417.1,479.9,413.8,476,410.3z"/>
	<path class="st0" d="M320.8,372.1c-0.3,1.5-0.5,3.1-0.8,4.6c0.4-0.2,0.8-0.5,1.1-0.7c9.9-6.3,20.7-9.5,32-9.5c6,0,11.1,0.9,15,1.9
		c0-0.3,0-0.7,0.1-1c-0.3-0.8-0.7-1.5-1-2.2c-0.7,0.7-1.8,1.2-2.8,1.2c-0.3,0-0.6,0-0.9-0.1c-2.8-0.7-7.9-1.4-13.7-1.4
		C341.7,364.8,330.7,366.2,320.8,372.1z"/>
	<path class="st0" d="M425.8,257.2c0.1,3,0.3,6,0.4,8.9c1.6,10.3,1.8,19.8,1.8,23.4c11.7-6.5,24.5-10.3,38.2-11.3
		c-0.8-7.1-1.5-13.9-2.2-20.6c-0.3,0.1-0.6,0.2-0.9,0.3c-6.2,1-12.3,1.6-18,1.6C437,259.5,430.6,258.5,425.8,257.2z"/>
	<path class="st0" d="M431.7,365.3c0.1,0.9,0.1,1.9,0.2,2.8c3.7-0.9,8.3-1.6,13.7-1.6c11.3,0,22,3.2,32,9.5c0.9,0.6,1.8,1.1,2.6,1.7
		c-0.3-1.6-0.5-3.1-0.8-4.7c-10.2-6.7-21.9-8.2-30.3-8.2c-5.8,0-10.9,0.7-13.7,1.4c-0.3,0.1-0.6,0.1-0.9,0.1
		C433.3,366.3,432.4,366,431.7,365.3z"/>
	<path class="st0" d="M582.3,249.7c6.6,2.9,12.2,7.3,16.6,13.3c4.1,5.6,6.5,11.8,7.3,18.5c0.1-0.1,0.1-0.2,0.2-0.3
		c0.8-0.8,1.8-1.2,2.9-1.2c0.2,0,22.2-1.5,28-55.8c0.1-1.1,0.7-2.1,1.6-2.8c-10.8-6.8-34-20.1-67.8-32.7
		C573.2,202.2,576.8,223.8,582.3,249.7z"/>
	<path class="st0" d="M571,371.7c-0.8-2.8-1.6-5.7-2.4-8.7c-0.4,0-0.8,0-1.2,0c-14.2,0-29.8-2.5-46.6-7.6c0.2,0.7,0.3,1.3,0.5,2
		c17,7.9,32,14.3,46.3,14.3C568.8,371.8,569.9,371.8,571,371.7z"/>
	<path class="st0" d="M278.9,356.8c0.2-0.8,0.4-1.6,0.5-2.4c-11.8,3.9-23.8,7.3-32.5,7.9l-0.7,0c-3.9,0.3-8.8,0.6-14.2,0.6
		c-0.2,0-0.5,0-0.7,0c-0.8,3-1.6,6-2.4,8.8c0.7,0,1.4,0,2.1,0C245.8,371.8,261.2,365,278.9,356.8z"/>
	<path class="st0" d="M162.3,225.4c1,14.9,4.3,35.1,14.7,46.2c5.7,6.1,10.9,6.7,11.4,6.7c1.1,0,2.1,0.4,2.8,1.2c0.8,0.8,1.1,1.9,1,3
		c-0.2,3.8,0.1,7.2,0.7,10.2c-0.2-1.9-0.3-3.8-0.3-5.7c0-11.7,4.2-21.8,12.2-29.3c3.8-3.6,8.2-6.5,12.9-8.6
		c5.4-25.7,9-47.1,11.1-60.5c-34.8,13-58.4,26.7-68.8,33.3C161.4,222.7,162.2,224,162.3,225.4z"/>
	<path class="st0" d="M275.2,564.3c-2.1,6.7-4.4,13.3-6.6,20c24.4,27.9,49.2,49.3,70.5,65.2c0.9-5.7,1.9-13.1,3.2-22.3
		c-4-1.7-7.9-3.7-11.7-5.9C309.6,609.3,291,590.1,275.2,564.3z"/>
	<path class="st0" d="M472.7,502.1c-12.1-4.9-22.7-11.2-31.6-18.9c0.1,1.3,0.2,2.6,0.4,3.9c1.5,1.5,2.9,3.1,4.4,4.7
		c10.9,11.4,18.5,25.6,21.9,41.1c3.6,16.3,2.4,33.1-3.6,48.6c-2.6,6.6-6,12.9-10.2,18.8c2.8,22.1,5.2,38.7,6.8,49.2
		c21.4-15.9,46.2-37.3,70.5-65.2c-8.3-24.1-15.7-48.5-22.2-72.7C497.6,509.9,485,507.1,472.7,502.1z"/>
	<path class="st0" d="M556.3,411c-8.7,0-15.7-0.6-22-2.1c0.1,0.3,0.2,0.6,0.2,0.9c5.1,1,10.7,1.6,17.1,1.6c4.2,0,8.6-0.2,13.2-0.7
		c0.1,0,0.3,0,0.4,0c1.3,0,2.5,0.6,3.2,1.6c0.8,1.1,1,2.6,0.5,4c-0.1,0.3-3,6.9-8.8,13.6c-4.9,5.7-10.5,9.7-16.5,11.9
		c2.3,7.6,4.5,14.9,6.7,21.7c11.1-3.7,22.6-8.4,34.5-14.1c0.5-0.3,1.1-0.4,1.7-0.4c0.9,0,1.8,0.3,2.6,0.9c1.2,1,1.7,2.6,1.3,4.1
		c-0.3,1.2-7.5,26.9-26.4,50.8c3.5,10,6.5,18.1,8.6,24c11.7-18.5,22.7-38.8,32.4-61.2c-6.3-13.7-15-34.6-24.3-63
		C574.7,408.4,566.7,411,556.3,411z"/>
	<path class="st0" d="M516,285.1c7.6,2.1,14.2,3.9,19.1,3.9c0.2,0,0.5,0,0.7,0c6.1-0.2,8.1-1.7,8.7-2.3c0.5-0.5,0.5-1,0.5-1.7
		c0-1-0.4-4.4-5.9-4.4c-0.2,0-0.5,0-0.8,0c-0.1,0-0.1,0-0.2,0c-1.6,0-3-0.9-3.6-2.3c-0.7-1.5-0.4-3.2,0.7-4.4
		c0.5-0.5,5.1-5.2,13.2-5.2c0.1,0,0.1,0,0.2,0c-0.6-3.6-1.2-7.3-1.8-11.1c-1.3-0.2-2.7-0.3-4.1-0.4c-1.9-0.1-3.5-1.5-3.8-3.4
		c-0.3-1.9,0.8-3.7,2.5-4.4c0.1-0.1,1.6-0.6,3.9-1.2c-3.2-22-6-45.6-8.2-70.8c-13.2-3.8-27.5-7.3-42.8-10.2
		c0.9,38.2,5.3,77.2,11.6,115C509.7,283.3,512.9,284.2,516,285.1z"/>
	<path class="st0" d="M614.2,350.1c-0.1,0.1-0.2,0.1-0.3,0.2c-1.4,0.9-2.8,1.8-4.2,2.6c5.5,16.7,11.7,33.2,18.5,49.1
		c8.3-30.5,14.1-63.8,16.8-100.2c-1,3.5-2.1,6.9-3.3,10.1C635.7,327.4,626.4,340.2,614.2,350.1z"/>
	<path class="st0" d="M207.9,450.3c-0.6-1.6-0.1-3.3,1.2-4.4c0.7-0.6,1.6-0.9,2.5-0.9c0.7,0,1.4,0.2,2,0.6
		c14.5,8.5,26.7,13.3,36.5,16c1.9-6.2,3.9-12.7,6-19.5c-6.4-2.1-12.4-6.2-17.7-12.3c-5.8-6.7-8.7-13.3-8.8-13.6
		c-0.6-1.3-0.4-2.8,0.5-4c0.8-1,2-1.6,3.2-1.6c0.1,0,0.3,0,0.4,0c4.6,0.5,9,0.7,13.2,0.7c7,0,13-0.7,18.5-1.9
		c0.1-0.3,0.2-0.6,0.3-0.9c-6.6,1.7-14,2.4-23.4,2.4c-9.8,0-17.5-2.3-23.5-5.7c-9.1,28-17.8,48.8-24,62.3
		c9.7,22.3,20.7,42.7,32.4,61.2c2.6-6.9,6.2-16.9,10.5-29.5c-1.6-1.8-3.2-3.7-4.8-5.7C215.7,472.3,208.2,451.2,207.9,450.3z"/>
	<path class="st0" d="M429.2,242.2c13.4,6.3,33.4,7.8,33.6,7.8c0.2,0,0.4,0.1,0.6,0.1c-3.8-40.5-5.4-71.6-6-88.4
		c-11.1-1.3-22.6-2.2-34.6-2.7c0.4,22.5,1.1,44.4,1.8,65.8c1.7-2.6,3.2-5.8,4.2-8.2c0.6-1.6,2.1-2.6,3.7-2.6c0.1,0,0.3,0,0.4,0
		c1.8,0.2,3.3,1.5,3.6,3.3C438.7,231.1,433.9,238.4,429.2,242.2z"/>
	<path class="st0" d="M158.2,312.3c-1.2-3.7-2.3-7.2-3.3-10.7c2.7,36.5,8.6,69.8,16.8,100.3c6.8-15.7,12.9-32.1,18.4-48.6
		C175.3,345,164.6,331.2,158.2,312.3z"/>
	<path class="st0" d="M375.8,211.4c0.5-17.1,1-34.6,1.3-52.4c-11.9,0.5-23.5,1.5-34.6,2.7c-0.7,20.5-2.9,62.6-8.9,117
		c16,1.9,32,6.9,32.8,7.1c0.8,0.3,1.6,0.8,2.1,1.5c1-1.8,2-3.5,3.2-5.1c0.4-0.6,0.9-1.2,1.3-1.8c0.5-10.6,1-21.4,1.4-32.3
		c-2.4-0.3-4.5-1.5-5.9-3.4c-3.5-4.7-1.9-12.3-1.5-13.8c0.1-0.4,0.3-0.8,0.5-1.1c-0.6,0.2-1.1,0.5-1.3,0.6c-0.6,0.3-1.3,0.5-1.9,0.5
		c-0.9,0-1.9-0.3-2.6-1c-1.3-1.1-1.7-2.9-1.1-4.4C361.9,222.2,365.6,212.3,375.8,211.4z"/>
	<path class="st0" d="M263.1,280.3c-0.1,0-10.3,1.6-9.8,5.9c0.4,3.4,6.3,3.7,8.8,3.7c2.8,0,6-0.4,8.6-1.1c1.1-0.3,2.8-0.8,4.7-1.4
		c4.8-1.4,11.3-3.4,18.5-5.2c6.3-37.8,10.6-76.8,11.6-114.9c-15.3,2.9-29.6,6.4-42.8,10.2c-2.2,25.1-4.9,48.6-8.1,70.5
		c1.4,0.5,2.2,0.8,2.3,0.8c1.8,0.7,2.8,2.6,2.4,4.5s-2,3.2-3.9,3.2c-0.7,0-1.4,0-2.1,0.1c-0.6,4.2-1.3,8.3-2,12.3
		c7.7,0,13.3,3.7,13.6,3.9c1.4,0.9,2.1,2.6,1.7,4.3C266.2,278.9,264.8,280.1,263.1,280.3z"/>
	<path class="st0" d="M322.7,410.3c-3.9,3.5-7.4,6.8-10.5,9.7c0,0-0.1,0-0.1,0.1c-5.2,26.2-11.3,53.2-18.3,80.4
		c7.9,10.7,18.7,16.3,32.3,16.4c4.4-9.6,11.2-18,19.7-24.6c2-1.5,4.1-3,6.3-4.3l0.2-0.1c1-0.6,2-1.2,3.1-1.7l0.3-0.2
		c1-0.5,2.1-1,3.1-1.5c3-31.4,5.9-66.5,8.6-104.8c-14.5,3.4-24.4,12.3-40.7,26.8C325.4,407.9,324,409.1,322.7,410.3z"/>
	<path class="st0" d="M320.1,540.4l0-0.3c0-0.6,0.1-1.3,0.1-1.9c0-0.3,0.1-0.7,0.1-1c-0.8,0-1.5,0-2.3,0c-11.5,0-22.5-1.8-33-5.4
		c-1.7,6.1-3.5,12.1-5.4,18.2c7.4,2.6,20.8,6.6,33.8,6.6c1,0,1.9,0,2.8-0.1c0.1,0,0.1,0,0.2,0c1.8,0,3.4,1.2,3.8,2.9
		c0,0.1,0.8,2.7,2.4,6.7c-1.3-4.4-2.1-8.9-2.5-13.6c0-0.4-0.1-0.9-0.1-1.3c0-0.4-0.1-0.9-0.1-1.3c-0.1-1.1-0.1-2-0.1-2.9
		c0-0.3,0-0.6,0-0.9c0-0.1,0-0.3,0-0.4c0-0.1,0-0.3,0-0.4c0-0.3,0-0.6,0-1c0-0.9,0-1.9,0.1-3C320.1,541,320.1,540.7,320.1,540.4z"/>
	<path class="st0" d="M363.6,502.5c3-3.1,5.3-6.6,7.1-10.5c1.3-2.9,2.3-5.9,2.9-8.9c-9.7,1.8-18.5,5.9-26.1,11.6L363.6,502.5z"/>
	<polygon class="st0" points="347.3,542.3 361,565 386.7,563 391.7,539.3 367,524 	"/>
	<path class="st0" d="M323.1,549.8c0,0.4,0,0.8,0.1,1.2c0,0.4,0.1,0.8,0.1,1.3c2.7,33.4,30.6,59.7,64.8,59.7c35.9,0,65-29.1,65-65
		s-29.1-65-65-65c-0.3,0-0.7,0-1,0c0,0,0,0,0,0c18.1,0.5,34.3,8.8,45.4,21.6l-15.4-0.3V525l18.3,13.7l10-10.8
		c1.4,5.2,2.2,10.7,2.2,16.4c0,12.2-3.5,23.7-9.7,33.3l-8.5-8.5L405,580l-3,17l10.4,3.3c-8.2,4-17.4,6.2-27.1,6.2
		c-2.9,0-5.7-0.2-8.4-0.6L355,588.3l-12.7,1c-9.4-9-16-20.8-18.3-34.2l9-16.5l-1.6-3.2c-2.7,0.3-5.3,0.5-7.9,0.7
		c-0.4,2.7-0.5,5.4-0.5,8.2c0,0.5,0,0.9,0,1.4c0,0.5,0,0.9,0,1.4C323,547.9,323,548.9,323.1,549.8z"/>
</g>
</svg>
