<?xml version="1.0" encoding="utf-8"?>
<!-- Generator: Adobe Illustrator 22.1.0, SVG Export Plug-In . SVG Version: 6.00 Build 0)  -->
<svg version="1.1" id="图层_1" xmlns="http://www.w3.org/2000/svg" xmlns:xlink="http://www.w3.org/1999/xlink" x="0px" y="0px"
	 viewBox="0 0 800 800" style="enable-background:new 0 0 800 800;" xml:space="preserve">
<style type="text/css">
	.st0{fill:#002956;}
</style>
<g>
	<path class="st0" d="M229.1,586.1c50,32.9,92.7,50.1,123,59.1c1.3-2.3,5.2-9,9-18.2c-1.5-0.4-3.1-0.9-4.7-1.4
		c-26-7.9-67.2-24-116.3-56.2c-44.8-29.4-69.4-60.8-79.7-101.8c-3.5-14-5.5-29.4-6-47.1c-8.9-4.5-15.4-8.9-19.7-12.3
		c-0.1,0.1-0.2,0.2-0.3,0.4C133.5,485,156.9,538.7,229.1,586.1z"/>
	
		<rect x="305.1" y="694.6" transform="matrix(0.2614 -0.9652 0.9652 0.2614 -448.2263 820.8986)" class="st0" width="14.4" height="17.4"/>
	<polygon class="st0" points="271.1,691.1 280.2,695 279.4,684.6 	"/>
	<polygon class="st0" points="135,578.1 139.4,584.6 142.3,580.1 145.7,582.4 142.1,588.6 144.8,592.6 156.7,584.6 147,570.1 	"/>
	<path class="st0" d="M248,669.7l-8.1-4.7l-7.2,12.5l5.9,3.4c1.4,0.8,2.8,1.5,4,1.9s2.3,0.6,3.3,0.5c1-0.1,1.9-0.4,2.8-1
		c0.8-0.6,1.6-1.5,2.3-2.7c1.2-2,1.5-3.8,1-5.5C251.5,672.4,250.2,671,248,669.7z"/>
	<polygon class="st0" points="592.3,655.7 583.1,650.9 584.2,661.3 	"/>
	<polygon class="st0" points="440.5,715.9 450.3,714.8 444.5,706.1 	"/>
	<path class="st0" d="M673,549l-18-36c-53.4,122.9-149.2,158.1-207,167.9c-1.1,2.4-1.7,3.2-2.2,4c-2.5,3.4-6.6,5.2-12.1,5.4
		l-2.4,4.1l-2.2,3.9l-1.9,3.3l-3.6-0.9l-4.4-1.1l-8.2-2l-1.1-0.3l-2.4,1.7l-3.6,2.6l-3,2.2l-2.9-2.2l-3.5-2.7l-6.9-5.1l-0.5,0
		l-10.1,1l-4.2,0.4l-3.5,0.3l-1.5-3.2l-1.8-3.8l-2.8-6C307.3,675.4,202,644.2,145,513l-18,36l-41-9.3c29,70,117,210.3,314,210.3
		s285-140.3,314-210.3L673,549z M146.3,597.6c-0.7,0.2-1.3,0.3-1.9,0.1c-0.6-0.1-1.1-0.5-1.7-1c-0.5-0.5-1.1-1.2-1.7-2.1l-1.4-2
		l-3.3,5.6l-2.9-4.3l3.4-5.4l-5.2-7.7c-0.6-0.9-1-1.7-1.3-2.3c-0.3-0.7-0.4-1.3-0.3-1.9c0.1-0.6,0.4-1.2,0.8-1.7
		c0.5-0.6,1.2-1.1,2-1.7l9.9-6.7c0.9-0.6,1.7-1,2.3-1.2c0.7-0.2,1.3-0.3,1.9-0.1c0.6,0.1,1.1,0.5,1.7,1c0.5,0.5,1.1,1.2,1.7,2.1
		l9.3,13.9c0.6,0.9,1,1.7,1.3,2.3c0.3,0.7,0.4,1.3,0.3,1.9c-0.1,0.6-0.4,1.2-0.8,1.7c-0.5,0.6-1.2,1.1-2,1.7l-9.9,6.7
		C147.8,597,147,597.4,146.3,597.6z M155.3,615l-3.5-4l17.2-14.9l3.5,4L155.3,615z M180.1,641.9l-2.2-21.7c0-0.4-0.1-0.9-0.1-1.3
		c0-0.4,0-0.9,0-1.4c-0.5,0.7-1,1.3-1.4,1.7c-0.4,0.5-0.7,0.8-0.9,1l-8.5,8.8l-3.4-3.3l15.8-16.3l2.6,2.5l2.2,20.7
		c0.1,0.6,0.1,1.2,0.2,1.8c0,0.6,0,1.2,0,1.8c0.6-0.7,1.1-1.3,1.6-1.8c0.4-0.5,0.8-0.9,1-1.1l8.3-8.6l3.4,3.3l-15.8,16.3
		L180.1,641.9z M225.1,656.8l-4.7-2.4l1.5-2l-13.2-10l-8.7,11.5l13.2,10l3.1-4l-6.9-5.2l2.3-3.1l11,8.3l-4.7,6.2
		c-0.6,0.8-1.2,1.5-1.8,1.9c-0.6,0.4-1.2,0.7-1.7,0.7c-0.6,0.1-1.2-0.1-1.9-0.4c-0.7-0.3-1.4-0.8-2.3-1.4l-12.5-9.4
		c-0.8-0.6-1.5-1.2-2-1.8c-0.5-0.6-0.8-1.1-0.9-1.7c-0.1-0.6,0-1.2,0.2-1.9c0.3-0.7,0.7-1.4,1.4-2.3l7.2-9.5
		c0.6-0.8,1.2-1.5,1.8-1.9c0.6-0.4,1.2-0.7,1.7-0.7s1.2,0.1,1.9,0.4c0.7,0.3,1.4,0.8,2.3,1.4l12.5,9.4c0.8,0.6,1.5,1.2,2,1.8
		c0.5,0.6,0.8,1.1,0.9,1.7c0.1,0.6,0.1,1.2-0.2,1.8s-0.7,1.4-1.3,2.2L225.1,656.8z M255.6,682.4c-1.1,1.9-2.4,3.3-4,4.3
		c-1.6,1-3.3,1.6-5.2,1.6c-1.3,0-2.7-0.2-4.1-0.8c-1.5-0.6-3.1-1.3-4.8-2.4l-11.5-6.6l11.4-19.7l12.6,7.3c3.7,2.1,6,4.6,6.9,7.4
		C257.8,676.4,257.4,679.3,255.6,682.4z M281.2,705.3l-0.5-5.6l-13.2-5.7l-4.4,3.5l-4.9-2.1l20.8-15.8l4.7,2l3,26L281.2,705.3z
		 M327.3,701.3l-3.1,11.6c-0.3,1-0.6,1.8-1,2.5c-0.4,0.6-0.8,1.1-1.3,1.3c-0.5,0.3-1.2,0.4-1.9,0.4c-0.7,0-1.6-0.2-2.6-0.5
		l-16.1-4.4c-1-0.3-1.9-0.6-2.5-0.9c-0.7-0.3-1.1-0.8-1.5-1.3c-0.3-0.5-0.5-1.1-0.5-1.8c0-0.7,0.1-1.6,0.4-2.6l3.1-11.6
		c0.3-1,0.6-1.8,1-2.5c0.4-0.6,0.8-1.1,1.3-1.3c0.5-0.3,1.2-0.4,1.9-0.4c0.7,0,1.6,0.2,2.6,0.5l16.1,4.4c1,0.3,1.9,0.6,2.5,0.9
		c0.7,0.3,1.1,0.8,1.5,1.3c0.3,0.5,0.5,1.1,0.5,1.8C327.8,699.4,327.6,700.3,327.3,701.3z M382,726l-5.3-0.4l0.7-9.7l-16.5-1.1
		l-0.7,9.7l-5.3-0.4l1.6-22.7l5.3,0.4l-0.6,8.8l16.5,1.1l0.6-8.8l5.3,0.4L382,726z M421.1,723.4c-0.2,0.7-0.5,1.3-0.9,1.7
		c-0.4,0.4-1,0.7-1.7,0.9c-0.7,0.2-1.6,0.3-2.7,0.3l-14.3,0.2c-1.1,0-1.9-0.1-2.7-0.2c-0.7-0.1-1.3-0.4-1.8-0.8
		c-0.4-0.4-0.8-0.9-1-1.6c-0.2-0.7-0.3-1.6-0.3-2.6l-0.3-17.3l5.3-0.1l0.3,18.4l15-0.2l-0.3-18.4l5.3-0.1l0.3,17.3
		C421.3,721.8,421.2,722.7,421.1,723.4z M456.2,723.3l-3.2-4.7l-14.3,1.5l-2.1,5.2l-5.3,0.5l10.4-23.9l5.1-0.5l15.3,21.2
		L456.2,723.3z M494.4,713.8l-19.3-10.1c-0.4-0.2-0.8-0.4-1.1-0.7c-0.4-0.2-0.7-0.5-1.1-0.7c0.3,0.8,0.5,1.6,0.7,2.1
		c0.2,0.6,0.3,1,0.3,1.3l2.6,12l-4.6,1l-4.9-22.2l3.5-0.8l18.5,9.6c0.5,0.3,1.1,0.6,1.6,0.8c0.5,0.3,1,0.6,1.5,1
		c-0.3-0.9-0.5-1.7-0.7-2.3s-0.3-1.1-0.4-1.5l-2.6-11.6l4.6-1l4.9,22.2L494.4,713.8z M534.5,698.8c-0.3,0.5-0.7,1-1.4,1.4
		c-0.6,0.4-1.4,0.8-2.4,1.1l-14.7,5.3c-1,0.4-1.9,0.6-2.6,0.7c-0.7,0.1-1.4,0-1.9-0.2s-1-0.6-1.4-1.2c-0.4-0.6-0.8-1.4-1.2-2.4
		l-4-11.3c-0.4-1-0.6-1.9-0.6-2.6c-0.1-0.7,0.1-1.4,0.3-1.9s0.7-1,1.4-1.4c0.6-0.4,1.4-0.8,2.4-1.1l14.7-5.3c1-0.3,1.8-0.6,2.5-0.7
		c0.7-0.1,1.4,0,1.9,0.2c0.5,0.2,1,0.6,1.4,1.2c0.4,0.6,0.8,1.3,1.1,2.3l0.2,0.5l-4.5,2.6l-0.9-2.4l-15.5,5.6l4.9,13.5l15.5-5.6
		l-1.7-4.8l-8.1,2.9l-1.3-3.6l13-4.7l2.6,7.4c0.4,1,0.6,1.9,0.6,2.6C534.9,697.6,534.8,698.2,534.5,698.8z M568.4,682.5l-4.5-8.7
		l-14.7,7.6l4.5,8.7l-4.7,2.4l-10.4-20.2l4.7-2.4l4,7.8l14.7-7.6l-4-7.8l4.7-2.4l10.4,20.2L568.4,682.5z M601.5,660.4l-5.1-2.5
		l-11.9,8.2l0.6,5.6l-4.3,3l-2.3-26l4.2-2.9l23.6,11.3L601.5,660.4z M613.9,649l-15.3-16.8l3.9-3.5l15.3,16.8L613.9,649z M641,623.7
		l-18.4-15l15.2-18.6l3.2,2.6L629.3,607l4.8,4l6.3-7.7l3.3,2.7l-6.3,7.7l7,5.7L641,623.7z M671.8,578.6c-0.3,0.7-0.7,1.5-1.3,2.5
		l-7.7,11.9c-0.6,0.9-1.2,1.7-1.7,2.2c-0.6,0.5-1.1,0.9-1.7,1c-0.6,0.2-1.3,0.1-2-0.1c-0.7-0.2-1.6-0.7-2.5-1.3l-10.5-6.8
		c-0.9-0.6-1.6-1.2-2.2-1.8c-0.5-0.6-0.8-1.2-0.9-1.8c-0.1-0.6,0-1.3,0.3-2c0.3-0.7,0.7-1.5,1.3-2.5l7.7-11.9
		c0.6-0.9,1.2-1.7,1.7-2.2s1.1-0.9,1.7-1c0.6-0.2,1.3-0.1,2,0.1c0.7,0.2,1.6,0.7,2.5,1.3l1.9,1.2l-2.3,5.1l-3.8-2.5l-8.1,12.5
		l12.6,8.2l8.1-12.5l-4.3-2.8l4-4l2.4,1.5c0.9,0.6,1.6,1.2,2.2,1.8c0.5,0.6,0.8,1.2,0.9,1.8C672.2,577.3,672.1,577.9,671.8,578.6z"
		/>
	<path class="st0" d="M91.1,302.8c0.5,10.2,4,19.8,9.6,26.5c-4.1,9.6-6,21.1-5.1,31.4c1.2,13.8,7.2,25.2,17.3,33.3
		c-0.3,1-0.5,2.1-0.5,3.2c0,6,4.9,10.9,10.9,10.9c6,0,10.9-4.9,10.9-10.9c0-4.9-3.3-9.1-7.8-10.4c-2.2-5.8-3.5-13.6-0.6-19.2
		c2.5-4.8,7.9-8,16-9.5l5.8-1l-1.9-5.5c-7-19.9-7.5-29.3-1.9-38.5c2.5-3.3,9.3-4.2,13.8-4.8l0.5-0.1c3.1-0.4,10.3-2.5,9-12.6
		c-0.5-4.2-5-7.6-10-7.6c-1.8,0-3.6,0.5-5.2,1.4c-1.5,0.8-2.6,1.9-3.4,3c-1.5-2-2.9-5.4-3.1-11.4c-0.1-2.6,4.2-4.3,4.2-4.3l4.5-1.6
		l-1.4-4.5c0-0.1-2.3-8.3,1.4-14.5c2.1-3.5,5.9-5.8,11.3-7c1.5-0.3,2.9-0.5,4.2-0.5c9.2,0,13.9,7.4,15.5,10.6
		c0.9,1.8,3.6,7.2,9.5,7.2c1.7,0,3.4-0.4,5.6-1.5c3.5-1.6,5.6-5.8,5.6-10.9c0-5.2-2.5-11.8-9.4-14.9l-1.2-0.5l-1.3,0.1
		c-1.5,0.1-3.1,0.2-4.6,0.2c-8.9,0-16.1-1.9-19.6-5.3c-1.9-1.8-3.1-4.9-3.2-8.2c-0.1-3.4,1.1-6.6,3.1-8.7l1.6-1.6l-0.2-2.3
		c-0.7-8.4,2.5-12.2,11.2-13.4l2.5-0.3l1.2-2.2c4.9-8.5,8.4-10,14.4-10c3.5,3.7,7,5.6,10.5,5.6c2.5,0,4.8-1,6.6-2.7
		c2-2,4.5-6.9,2.8-11.5c-0.8-2.3-2.8-5-7.5-6.4c0.1-0.1,0.1-0.3,0.2-0.4c0.8-1.1,2.7-1.8,5.4-2c0.8-0.1,1.5-0.1,2.2-0.1
		c5.8,0,8.9,1.9,10.3,3c0.3,2.1,1,5.3,3.3,7.6c1.8,1.8,4.1,2.8,6.8,2.8c1.6,0,3.3-0.4,5.1-1.1l0.2-0.1l0.2-0.1c4.2-2.2,6.2-7,5-11.8
		c-0.9-3.8-4.2-8.2-10.4-9.8c-0.3-1.3-0.8-2.8-1.8-4.1c-2.1-2.9-5.5-4.4-10-4.7c-1.8-2.6-4.9-5-9.1-5c-3.1,0-6.2,1.3-9.4,4
		c-1.3-0.3-2.9-0.5-4.6-0.5c-5.4,0-9.8,2.2-12.7,6.1c-0.8-0.3-1.7-0.4-2.7-0.4c-1.2,0-2.8,0.3-4.4,1.2c-2-2.6-4-6.2-3.6-9.7
		c0.3-3,2.6-7.5,11.6-12.1l3.6-1.8l-1-3.9c0,0-1.7-7.1,2.3-12.9c3.1-4.5,8.8-7.3,17.2-8.3c1-0.1,2-0.1,2.9-0.1
		c10.4,0,14,4.8,15.1,7.2c-2,2.5-3.1,5.5-3.1,8.8c0,7.8,6.3,14.1,14.1,14.1c7.8,0,14.1-6.3,14.1-14.1c0-4.4-2.1-8.5-5.4-11.1
		c-0.5-2.6-1.7-6.9-5-11.3c-7.9-10.6-21.3-12.8-31.2-12.8c-1.3,0-2.6,0-4,0.1c-3.4-0.3-6.8-0.5-10-0.5h0c-16.8,0-30.5,4-41,12
		c-11.4,8.7-18.5,21.9-21.2,39.2c-14.7,5.1-25.4,14.3-32,27.4c-8.5,16.8-7.7,36.3-5,46.7c-5.3,6.6-9.1,15.3-10.4,24.3
		c-1.7,11.3,0.3,22.7,5.8,33.4C93.8,279.8,90.5,291.1,91.1,302.8z M106.3,271c-13.7-23.3-6-46,4.2-57c-4.5-12.5-7.5-58.5,36-71.5
		c0.1-1.2,0.3-2.4,0.5-3.6c0.1-0.4,0.1-0.8,0.2-1.1c0.1-0.8,0.3-1.6,0.4-2.3c0.1-0.4,0.2-0.9,0.3-1.3c0.2-0.7,0.3-1.4,0.5-2
		c0.1-0.4,0.2-0.9,0.4-1.3c0.2-0.6,0.3-1.2,0.5-1.9c0.1-0.4,0.3-0.9,0.4-1.3c0.2-0.6,0.4-1.2,0.6-1.8c0.1-0.4,0.3-0.8,0.4-1.2
		c0.2-0.6,0.5-1.1,0.7-1.7c0.2-0.4,0.3-0.7,0.5-1.1c0.3-0.6,0.5-1.1,0.8-1.7c0.2-0.3,0.3-0.7,0.5-1c0.3-0.6,0.6-1.2,1-1.8
		c0.1-0.2,0.3-0.5,0.4-0.7c1-1.6,2-3.2,3.1-4.6c0.2-0.2,0.3-0.4,0.5-0.6c0.4-0.5,0.8-1,1.2-1.5c0.2-0.2,0.4-0.5,0.6-0.7
		c0.4-0.4,0.8-0.8,1.1-1.2c0.2-0.2,0.5-0.5,0.7-0.7c0.4-0.4,0.8-0.8,1.2-1.1c0.2-0.2,0.5-0.5,0.8-0.7c0.4-0.4,0.8-0.7,1.2-1
		c0.3-0.2,0.5-0.4,0.8-0.6c0.4-0.3,0.9-0.7,1.3-1c0.3-0.2,0.5-0.4,0.8-0.6c0.5-0.3,0.9-0.6,1.4-0.9c0.2-0.2,0.5-0.3,0.7-0.5
		c0.6-0.3,1.1-0.7,1.7-1c0.2-0.1,0.3-0.2,0.5-0.3c0.8-0.4,1.5-0.8,2.3-1.2c0,0,0,0,0,0c0.8-0.4,1.5-0.7,2.3-1
		c0.2-0.1,0.5-0.2,0.7-0.3c0.6-0.2,1.1-0.5,1.7-0.7c0.3-0.1,0.6-0.2,0.9-0.3c0.5-0.2,1.1-0.4,1.6-0.5c0.3-0.1,0.6-0.2,1-0.3
		c0.5-0.2,1.1-0.3,1.6-0.4c0.3-0.1,0.7-0.2,1-0.3c0.5-0.1,1.1-0.3,1.6-0.4c0.3-0.1,0.7-0.2,1-0.2c0.5-0.1,1.1-0.2,1.7-0.3
		c0.3-0.1,0.7-0.1,1-0.2c0.6-0.1,1.2-0.2,1.8-0.3c0.3,0,0.6-0.1,0.9-0.1c0.7-0.1,1.4-0.2,2.1-0.2c0.2,0,0.4-0.1,0.7-0.1
		c0.9-0.1,1.9-0.2,2.8-0.2c0.2,0,0.3,0,0.5,0c0.8,0,1.6-0.1,2.3-0.1c0.3,0,0.7,0,1,0c0.5,0,1,0,1.5,0c0.1,0,0.3,0,0.4,0
		c0.3,0,0.6,0,0.9,0c0.6,0,1.3,0,1.9,0c0.3,0,0.7,0,1,0c0.6,0,1.3,0.1,1.9,0.1c0.3,0,0.6,0,0.9,0.1c0.9,0.1,1.9,0.1,2.8,0.2
		c1-0.1,1.9-0.1,2.8-0.1c0.2,0,0.4,0,0.6,0c0.2,0,0.4,0,0.6,0c0.4,0,0.7,0,1.1,0c0.4,0,0.9,0,1.3,0c0.5,0,1,0.1,1.5,0.1
		c0.4,0,0.8,0,1.2,0.1c0.5,0,0.9,0.1,1.4,0.2c0.4,0,0.8,0.1,1.1,0.1c0.4,0.1,0.9,0.1,1.3,0.2c0.3,0.1,0.7,0.1,1,0.2
		c0.4,0.1,0.8,0.2,1.2,0.3c0.3,0.1,0.6,0.1,0.9,0.2c0.4,0.1,0.8,0.2,1.2,0.3c0.3,0.1,0.6,0.2,0.8,0.2c0.4,0.1,0.8,0.3,1.2,0.4
		c0.2,0.1,0.4,0.1,0.6,0.2c0.6,0.2,1.2,0.5,1.7,0.7c0.2,0.1,0.4,0.2,0.6,0.3c0.3,0.2,0.7,0.3,1,0.5c0.2,0.1,0.4,0.3,0.7,0.4
		c0.3,0.2,0.5,0.3,0.8,0.5c0.2,0.1,0.4,0.3,0.7,0.4c0.2,0.2,0.5,0.3,0.7,0.5c0.2,0.2,0.4,0.3,0.6,0.5c0.2,0.2,0.4,0.3,0.6,0.5
		c0.2,0.2,0.4,0.3,0.6,0.5c0.2,0.2,0.4,0.3,0.6,0.5c0.2,0.2,0.3,0.3,0.5,0.5c0.2,0.2,0.3,0.3,0.5,0.5c0.2,0.2,0.3,0.3,0.5,0.5
		c0.1,0.2,0.3,0.3,0.4,0.5c0.1,0.2,0.3,0.3,0.4,0.5c0.1,0.2,0.3,0.3,0.4,0.5c0.1,0.2,0.2,0.3,0.4,0.5c0.1,0.2,0.2,0.3,0.3,0.5
		c0.1,0.2,0.2,0.3,0.3,0.5c0.1,0.2,0.2,0.3,0.3,0.5c0.1,0.2,0.2,0.3,0.3,0.5c0.1,0.2,0.2,0.3,0.3,0.5c0.1,0.2,0.2,0.3,0.2,0.5
		c0.1,0.2,0.2,0.3,0.2,0.5c0.1,0.2,0.1,0.3,0.2,0.5c0.1,0.2,0.1,0.3,0.2,0.5c0.1,0.2,0.1,0.3,0.2,0.5c0.1,0.1,0.1,0.3,0.2,0.4
		c0.1,0.1,0.1,0.3,0.1,0.4c0,0.1,0.1,0.3,0.1,0.4c0,0.1,0.1,0.3,0.1,0.4c0,0.1,0.1,0.3,0.1,0.4c0,0.1,0.1,0.2,0.1,0.4
		c0,0.1,0.1,0.2,0.1,0.4c0,0.1,0,0.2,0.1,0.3c0,0.1,0,0.2,0.1,0.3c0,0.1,0,0.2,0.1,0.3c0,0.1,0,0.2,0,0.3c0,0.1,0,0.2,0,0.2
		c0,0.1,0,0.2,0,0.2c0,0.1,0,0.1,0,0.2c0,0.1,0,0.1,0,0.2c0,0,0,0.1,0,0.1c0,0,0,0.1,0,0.1c0,0.1,0,0.1,0,0.1l-0.3,0.3
		c3.2,1.4,5.4,4.6,5.4,8.3c0,5-4.1,9.1-9.1,9.1s-9.1-4.1-9.1-9.1c0-3.1,1.6-5.9,4-7.5L240,115c0-0.1,0-0.2-0.1-0.4c0,0,0-0.1,0-0.1
		c0-0.1,0-0.2-0.1-0.3c0-0.1,0-0.1,0-0.2c0-0.1,0-0.2-0.1-0.3c0-0.1,0-0.1-0.1-0.2c0-0.1-0.1-0.2-0.1-0.3c0-0.1,0-0.1-0.1-0.2
		c0-0.1-0.1-0.2-0.1-0.3c0-0.1-0.1-0.1-0.1-0.2c0-0.1-0.1-0.2-0.1-0.3c0-0.1-0.1-0.1-0.1-0.2c0-0.1-0.1-0.2-0.1-0.3
		c0-0.1-0.1-0.1-0.1-0.2c-0.1-0.1-0.1-0.2-0.2-0.3c0-0.1-0.1-0.1-0.1-0.2c-0.1-0.1-0.1-0.2-0.2-0.3c0-0.1-0.1-0.1-0.1-0.2
		c-0.1-0.1-0.1-0.2-0.2-0.3c0-0.1-0.1-0.1-0.1-0.2c-0.1-0.1-0.2-0.2-0.3-0.4c-0.1-0.1-0.1-0.1-0.2-0.2c-0.1-0.1-0.2-0.3-0.3-0.4
		c0-0.1-0.1-0.1-0.1-0.2c-0.1-0.2-0.3-0.3-0.4-0.5c0,0-0.1-0.1-0.1-0.1c-0.4-0.4-0.7-0.8-1.2-1.1c0,0,0,0-0.1-0.1
		c-0.2-0.2-0.4-0.3-0.6-0.5c-0.1,0-0.1-0.1-0.2-0.1c-0.2-0.1-0.3-0.3-0.5-0.4c-0.1-0.1-0.2-0.1-0.2-0.2c-0.2-0.1-0.3-0.2-0.5-0.3
		c-0.1-0.1-0.2-0.1-0.3-0.2c-0.2-0.1-0.3-0.2-0.5-0.3c-0.1-0.1-0.2-0.1-0.3-0.2c-0.2-0.1-0.3-0.2-0.5-0.3c-0.1-0.1-0.2-0.1-0.4-0.2
		c-0.2-0.1-0.4-0.2-0.5-0.3c-0.1-0.1-0.3-0.1-0.4-0.2c-0.2-0.1-0.4-0.2-0.6-0.2c-0.1-0.1-0.3-0.1-0.4-0.2c-0.2-0.1-0.4-0.1-0.6-0.2
		c-0.1,0-0.3-0.1-0.4-0.1c-0.2-0.1-0.4-0.1-0.6-0.2c-0.1,0-0.3-0.1-0.4-0.1c-0.2-0.1-0.5-0.1-0.7-0.2c-0.2,0-0.3-0.1-0.5-0.1
		c-0.2-0.1-0.5-0.1-0.8-0.1c-0.2,0-0.3-0.1-0.5-0.1c-0.3,0-0.6-0.1-0.9-0.1c-0.1,0-0.3,0-0.4-0.1c-0.4,0-0.7-0.1-1.1-0.1
		c-0.1,0-0.1,0-0.2,0c-0.5,0-0.9-0.1-1.4-0.1c-0.1,0-0.3,0-0.4,0c-0.4,0-0.7,0-1.1,0c-0.4,0-0.7,0-1.1,0c-0.2,0-0.4,0-0.5,0
		c-0.6,0-1.1,0.1-1.7,0.1c-30,3.8-23.8,27.5-23.8,27.5c-28.5,14.8-5.8,33.5-5.8,33.5c0.2-0.3,0.3-0.5,0.5-0.8
		c0.1-0.1,0.1-0.1,0.2-0.2c0.1-0.2,0.3-0.3,0.4-0.5c0-0.1,0.1-0.1,0.1-0.2c0.2-0.2,0.3-0.4,0.5-0.5c0,0,0.1,0,0.1-0.1
		c0.1-0.1,0.3-0.2,0.4-0.3c0.1,0,0.1-0.1,0.2-0.1c0.1-0.1,0.3-0.2,0.4-0.2c0,0,0.1,0,0.1-0.1c0.2-0.1,0.3-0.1,0.5-0.2
		c0,0,0.1,0,0.1,0c0.1,0,0.2-0.1,0.4-0.1c0,0,0.1,0,0.1,0c0.1,0,0.3,0,0.4,0c0,0,0,0,0.1,0c0,0,0,0,0,0c0.1,0,0.3,0,0.4,0
		c0,0,0.1,0,0.1,0c0.1,0,0.2,0,0.3,0.1c0,0,0.1,0,0.1,0c0.1,0,0.2,0.1,0.3,0.1c0,0,0.1,0,0.1,0c0.1,0.1,0.3,0.1,0.4,0.2
		c0,0,0.1,0,0.1,0c0.1,0.1,0.2,0.1,0.3,0.2c0,0,0.1,0,0.1,0.1c0.1,0.1,0.2,0.1,0.3,0.2c0,0,0,0,0.1,0.1c0.1,0.1,0.2,0.2,0.3,0.3
		c0,0,0,0,0.1,0c0.1,0.1,0.2,0.1,0.2,0.2c0,0,0.1,0.1,0.1,0.1c0.1,0.1,0.1,0.1,0.2,0.2c0,0,0,0,0.1,0.1c0.1,0.1,0.2,0.2,0.2,0.3
		c0,0,0,0,0,0c0.1,0.1,0.1,0.1,0.2,0.2c0,0,0,0,0.1,0.1c0,0.1,0.1,0.1,0.1,0.2c0,0,0,0,0,0.1c0,0.1,0.1,0.1,0.1,0.2c0,0,0,0,0,0
		c0,0.1,0.1,0.1,0.1,0.1c0,0,0,0,0,0c0,0,0,0,0,0.1c0,0,0,0,0,0c0,0,0,0,0,0c0.1-0.4,0.2-0.8,0.4-1.2c0-0.1,0.1-0.3,0.1-0.4
		c0.1-0.3,0.2-0.5,0.3-0.7c0.1-0.1,0.1-0.3,0.2-0.4c0.1-0.2,0.2-0.4,0.3-0.6c0.1-0.1,0.1-0.3,0.2-0.4c0.1-0.2,0.2-0.4,0.3-0.5
		c0.1-0.1,0.2-0.2,0.2-0.4c0.1-0.2,0.2-0.3,0.3-0.4c0.1-0.1,0.2-0.2,0.3-0.3c0.1-0.1,0.2-0.3,0.4-0.4c0.1-0.1,0.2-0.2,0.3-0.3
		c0.1-0.1,0.3-0.2,0.4-0.4c0.1-0.1,0.2-0.2,0.3-0.2c0.1-0.1,0.3-0.2,0.4-0.3c0.1-0.1,0.2-0.1,0.3-0.2c0.2-0.1,0.4-0.2,0.5-0.3
		c0.1,0,0.1-0.1,0.2-0.1c0.2-0.1,0.5-0.2,0.7-0.3c0.1,0,0.2-0.1,0.2-0.1c0.2-0.1,0.3-0.1,0.5-0.2c0.1,0,0.2-0.1,0.3-0.1
		c0.2,0,0.3-0.1,0.5-0.1c0.1,0,0.2-0.1,0.3-0.1c0.1,0,0.3-0.1,0.4-0.1c0.1,0,0.2,0,0.3-0.1c0.1,0,0.3,0,0.4-0.1c0.1,0,0.2,0,0.3,0
		c0.1,0,0.3,0,0.4,0c0.1,0,0.2,0,0.3,0c0.1,0,0.3,0,0.4,0c0.1,0,0.1,0,0.2,0c0,0,0.1,0,0.1,0c0.1,0,0.2,0,0.3,0c0.1,0,0.3,0,0.4,0
		c0.1,0,0.2,0,0.3,0c0.1,0,0.2,0,0.4,0c0.1,0,0.2,0,0.3,0c0.1,0,0.2,0,0.3,0c0.1,0,0.2,0,0.2,0c0.1,0,0.2,0,0.3,0c0.1,0,0.1,0,0.2,0
		c0.1,0,0.2,0,0.4,0.1c0.1,0,0.1,0,0.2,0c0.2,0,0.3,0.1,0.5,0.1c0,0,0.1,0,0.1,0c0.1,0,0.2,0,0.3,0.1c0.1,0,0.1,0,0.2,0
		c0.1,0,0.2,0,0.2,0.1c0.1,0,0.1,0,0.2,0c0.1,0,0.1,0,0.2,0.1c0.1,0,0.1,0,0.1,0c0.1,0,0.1,0,0.2,0.1c0,0,0.1,0,0.1,0
		c0,0,0.1,0,0.1,0c0,0,0.1,0,0.1,0c0,0,0.1,0,0.1,0c0,0,0,0,0.1,0c0,0,0.1,0,0.1,0c0,0,0,0,0,0c0,0,0,0,0,0c0.4-0.4,0.7-0.7,1.1-1.1
		c0.1-0.1,0.2-0.2,0.3-0.3c0.3-0.2,0.5-0.4,0.7-0.6c0.1-0.1,0.2-0.2,0.3-0.3c0.3-0.2,0.5-0.4,0.8-0.6c0.1,0,0.1-0.1,0.2-0.1
		c0.3-0.2,0.6-0.4,0.9-0.6c0.1,0,0.2-0.1,0.2-0.1c0.2-0.1,0.4-0.2,0.7-0.3c0.1,0,0.2-0.1,0.3-0.1c0.2-0.1,0.4-0.1,0.6-0.2
		c0.1,0,0.2-0.1,0.2-0.1c0.3-0.1,0.5-0.1,0.8-0.2c0,0,0.1,0,0.1,0c0.2,0,0.4,0,0.6,0c0,0,0.1,0,0.1,0c0,0,0.1,0,0.1,0
		c0.2,0,0.4,0,0.5,0c0.1,0,0.1,0,0.2,0c0.2,0,0.4,0.1,0.7,0.1c0,0,0,0,0.1,0c0.2,0.1,0.4,0.1,0.6,0.2c0.1,0,0.1,0,0.2,0.1
		c0.2,0.1,0.3,0.1,0.4,0.2c0,0,0.1,0,0.1,0.1c0.2,0.1,0.3,0.2,0.5,0.3c0,0,0,0,0.1,0.1c0.1,0.1,0.3,0.2,0.4,0.3c0,0,0.1,0.1,0.1,0.1
		c0.1,0.1,0.2,0.2,0.3,0.3c0,0,0.1,0.1,0.1,0.1c0.1,0.1,0.3,0.3,0.4,0.4c0,0,0,0.1,0.1,0.1c0.1,0.1,0.2,0.2,0.3,0.4
		c0,0,0.1,0.1,0.1,0.1c0.1,0.1,0.2,0.2,0.2,0.4c0,0,0,0,0,0c0.1,0.1,0.2,0.3,0.2,0.4c0,0,0,0.1,0,0.1c0.1,0.1,0.1,0.2,0.1,0.3
		c0,0,0,0.1,0,0.1c0,0.1,0.1,0.2,0.1,0.3c0,0,0,0,0,0c0,0.1,0.1,0.2,0.1,0.2c0,0,0,0,0,0c0,0,0,0.1,0,0.1c0,0,0,0,0,0c0,0,0,0,0,0
		c0.5,0,0.9,0,1.3,0c0,0,0.1,0,0.1,0c0.1,0,0.3,0,0.4,0c0.2,0,0.3,0,0.5,0c0.2,0,0.3,0,0.5,0c0.1,0,0.3,0,0.4,0c0.2,0,0.3,0,0.5,0.1
		c0.1,0,0.3,0,0.4,0.1c0.1,0,0.3,0.1,0.4,0.1c0.1,0,0.2,0,0.4,0.1c0.1,0,0.3,0.1,0.4,0.1c0.1,0,0.2,0.1,0.3,0.1
		c0.1,0,0.2,0.1,0.4,0.1c0.1,0,0.2,0.1,0.3,0.1c0.1,0,0.2,0.1,0.3,0.1c0.2,0.1,0.3,0.2,0.5,0.2c0.1,0,0.2,0.1,0.3,0.1
		c0.1,0.1,0.2,0.1,0.2,0.2c0.1,0,0.2,0.1,0.2,0.1c0.1,0.1,0.2,0.1,0.2,0.2c0.1,0.1,0.1,0.1,0.2,0.2c0.1,0.1,0.1,0.1,0.2,0.2
		c0.1,0.1,0.1,0.1,0.2,0.2c0.1,0.1,0.1,0.1,0.2,0.2c0,0.1,0.1,0.1,0.1,0.2c0.1,0.1,0.1,0.1,0.1,0.2c0,0.1,0.1,0.1,0.1,0.2
		c0,0.1,0.1,0.1,0.1,0.2c0,0.1,0.1,0.1,0.1,0.2c0,0.1,0.1,0.1,0.1,0.2c0,0.1,0.1,0.1,0.1,0.2c0,0.1,0.1,0.1,0.1,0.2
		c0,0.1,0,0.1,0.1,0.2c0,0.1,0,0.1,0.1,0.2c0,0.1,0,0.1,0,0.2c0,0.1,0,0.1,0.1,0.2c0,0.1,0,0.1,0,0.2c0,0.1,0,0.1,0,0.2
		c0,0.1,0,0.1,0,0.2c0,0.1,0,0.1,0,0.2c0,0.1,0,0.1,0,0.2c0,0.1,0,0.1,0,0.2c0,0.1,0,0.1,0,0.2c0,0.1,0,0.1,0,0.2c0,0.1,0,0.1,0,0.2
		c0,0.1,0,0.1,0,0.2c0,0,0,0.1,0,0.1c0,0.1,0,0.1,0,0.2c0,0,0,0.1,0,0.1c0,0.1,0,0.1,0,0.2c0,0,0,0.1,0,0.1c0,0,0,0.1,0,0.1
		c0,0,0,0.1,0,0.1c0,0,0,0.1,0,0.1c0,0,0,0.1,0,0.1c0,0,0,0.1,0,0.1s0,0.1,0,0.1c0,0,0,0.1,0,0.1c0,0,0,0,0,0.1c0,0,0,0,0,0
		c0,0,0,0.1,0,0.1c0,0,0,0,0,0c0,0,0,0,0,0c11,0,13.2,10,8,12.8c-0.3,0.1-0.6,0.2-0.9,0.3c-0.1,0-0.2,0.1-0.3,0.1
		c-0.2,0.1-0.4,0.1-0.5,0.1c-0.1,0-0.2,0-0.3,0.1c-0.2,0-0.3,0.1-0.5,0.1c-0.1,0-0.2,0-0.3,0c-0.1,0-0.3,0-0.4,0c-0.1,0-0.1,0-0.2,0
		c0,0,0,0-0.1,0c-0.3,0-0.6,0-0.8-0.1c0,0-0.1,0-0.1,0c-0.3-0.1-0.5-0.1-0.7-0.2c0,0,0,0,0,0c-0.2-0.1-0.4-0.2-0.6-0.3
		c0,0-0.1,0-0.1,0c-0.2-0.1-0.4-0.3-0.5-0.4c0,0-0.1-0.1-0.1-0.1c-0.2-0.2-0.3-0.3-0.4-0.5c0,0,0,0-0.1-0.1
		c-0.1-0.2-0.3-0.4-0.4-0.6c0,0,0,0,0,0c-0.1-0.2-0.2-0.4-0.3-0.6c0,0,0-0.1,0-0.1c-0.1-0.2-0.2-0.4-0.2-0.6c0,0,0-0.1,0-0.1
		c-0.1-0.2-0.1-0.4-0.2-0.6c0,0,0,0,0,0c-0.1-0.2-0.1-0.4-0.1-0.6c0,0,0-0.1,0-0.1c0-0.2-0.1-0.4-0.1-0.6c0,0,0-0.1,0-0.1
		c0-0.2,0-0.3-0.1-0.5c0,0,0,0,0,0c0-0.2,0-0.3,0-0.4c0,0,0,0,0,0c0-0.1,0-0.2,0-0.3c0,0,0,0,0,0c0-0.1,0-0.2,0-0.2c0,0,0,0,0,0
		c0,0,0-0.1,0-0.1s0,0-0.1-0.1c0,0,0,0,0,0c0,0-0.1-0.1-0.1-0.2c0,0-0.1-0.1-0.1-0.1c-0.1-0.1-0.1-0.1-0.2-0.2c0,0-0.1-0.1-0.1-0.1
		c-0.1-0.1-0.2-0.2-0.2-0.3c-0.1-0.1-0.1-0.1-0.2-0.2c-0.1-0.1-0.2-0.2-0.3-0.3c-0.1-0.1-0.2-0.1-0.2-0.2c-0.1-0.1-0.2-0.2-0.4-0.3
		c-0.1-0.1-0.2-0.2-0.3-0.2c-0.1-0.1-0.3-0.2-0.5-0.3c-0.1-0.1-0.2-0.2-0.4-0.2c-0.2-0.1-0.3-0.2-0.5-0.3c-0.1-0.1-0.3-0.2-0.4-0.2
		c-0.2-0.1-0.4-0.2-0.6-0.3c-0.2-0.1-0.3-0.2-0.5-0.2c-0.2-0.1-0.5-0.2-0.7-0.3c-0.2-0.1-0.4-0.1-0.5-0.2c-0.3-0.1-0.5-0.2-0.8-0.3
		c-0.2-0.1-0.4-0.1-0.6-0.2c-0.3-0.1-0.7-0.2-1-0.3c-0.2,0-0.4-0.1-0.6-0.1c-0.4-0.1-0.9-0.2-1.3-0.2c-0.1,0-0.3-0.1-0.4-0.1
		c-0.6-0.1-1.3-0.1-1.9-0.2c-0.2,0-0.3,0-0.5,0c-0.5,0-1.1,0-1.6,0c-0.1,0-0.2,0-0.2,0c-0.7,0-1.4,0-2.2,0.1
		c-13.2,1-10.2,11.5-10.2,11.5c11.8,1,7.8,8.8,6.2,10.2c-0.1,0.1-0.2,0.2-0.3,0.3c0,0-0.1,0.1-0.1,0.1c-0.1,0.1-0.1,0.1-0.2,0.2
		c0,0-0.1,0.1-0.1,0.1c-0.1,0.1-0.2,0.1-0.3,0.1c0,0-0.1,0.1-0.1,0.1c-0.1,0-0.2,0.1-0.3,0.1c0,0-0.1,0-0.1,0.1
		c-0.2,0.1-0.3,0.1-0.5,0.1c0,0,0,0-0.1,0c-0.1,0-0.3,0.1-0.5,0.1c-0.1,0-0.1,0-0.2,0c-0.1,0-0.2,0-0.3,0c-0.1,0-0.1,0-0.2,0
		c0,0-0.1,0-0.1,0c-0.2,0-0.4,0-0.6-0.1c0,0-0.1,0-0.1,0c-0.2,0-0.4-0.1-0.7-0.2c0,0,0,0,0,0c-0.2-0.1-0.4-0.2-0.7-0.3
		c0,0-0.1,0-0.1,0c-0.2-0.1-0.5-0.2-0.7-0.4c0,0-0.1-0.1-0.1-0.1c-0.3-0.1-0.5-0.3-0.8-0.5c0,0-0.1-0.1-0.1-0.1
		c-0.3-0.2-0.5-0.4-0.8-0.6c0,0-0.1,0-0.1-0.1c-0.3-0.2-0.6-0.5-0.9-0.8c-0.1-0.1-0.1-0.1-0.2-0.2c-0.3-0.3-0.6-0.6-0.9-0.9
		c-0.1-0.1-0.1-0.1-0.2-0.2c-0.3-0.4-0.7-0.7-1-1.1c-0.7,0-1.4-0.1-2-0.1c-0.3,0-0.6,0-0.9,0c-0.2,0-0.4,0-0.7,0c-0.3,0-0.7,0-1,0.1
		c-0.2,0-0.4,0-0.5,0c-0.4,0-0.8,0.1-1.2,0.2c-0.1,0-0.2,0-0.2,0c-0.5,0.1-0.9,0.2-1.4,0.3c-0.1,0-0.3,0.1-0.4,0.1
		c-0.3,0.1-0.6,0.2-0.9,0.3c-0.2,0.1-0.3,0.1-0.5,0.2c-0.3,0.1-0.5,0.2-0.8,0.3c-0.2,0.1-0.3,0.2-0.5,0.2c-0.2,0.1-0.5,0.2-0.7,0.4
		c-0.2,0.1-0.3,0.2-0.5,0.3c-0.2,0.1-0.4,0.3-0.7,0.4c-0.2,0.1-0.3,0.2-0.5,0.4c-0.2,0.2-0.4,0.3-0.6,0.5c-0.2,0.1-0.3,0.3-0.5,0.4
		c-0.2,0.2-0.4,0.4-0.6,0.6c-0.2,0.2-0.3,0.3-0.5,0.5c-0.2,0.2-0.4,0.4-0.6,0.7c-0.2,0.2-0.3,0.3-0.5,0.5c-0.2,0.2-0.4,0.5-0.6,0.8
		c-0.2,0.2-0.3,0.4-0.5,0.6c-0.2,0.3-0.4,0.6-0.6,0.9c-0.1,0.2-0.3,0.4-0.4,0.6c-0.2,0.3-0.5,0.7-0.7,1.1c-0.1,0.2-0.2,0.4-0.4,0.5
		c-0.4,0.6-0.7,1.2-1.1,1.8c-13.2,1.8-16.2,9.8-15.5,18.8c-6.2,6.5-5.8,18.2,0.2,24c0.3,0.3,0.7,0.7,1.1,1c0.1,0.1,0.3,0.2,0.4,0.3
		c0.3,0.2,0.5,0.4,0.8,0.6c0.2,0.1,0.3,0.2,0.5,0.3c0.3,0.2,0.6,0.3,0.8,0.5c0.2,0.1,0.3,0.2,0.5,0.3c0.3,0.2,0.6,0.3,0.9,0.5
		c0.2,0.1,0.3,0.2,0.5,0.2c0.4,0.2,0.8,0.3,1.2,0.5c0.1,0,0.2,0.1,0.3,0.1c0.5,0.2,1,0.4,1.6,0.5c0.1,0,0.3,0.1,0.4,0.1
		c0.4,0.1,0.8,0.2,1.2,0.3c0.2,0.1,0.4,0.1,0.6,0.1c0.4,0.1,0.7,0.2,1.1,0.3c0.2,0,0.4,0.1,0.6,0.1c0.4,0.1,0.8,0.1,1.1,0.2
		c0.2,0,0.4,0.1,0.6,0.1c0.4,0.1,0.8,0.1,1.3,0.2c0.2,0,0.4,0,0.5,0.1c0.6,0.1,1.2,0.1,1.8,0.2c0.1,0,0.1,0,0.2,0
		c0.5,0,1.1,0.1,1.6,0.1c0.2,0,0.4,0,0.6,0c0.4,0,0.8,0,1.2,0c0.2,0,0.5,0,0.7,0c0.3,0,0.7,0,1,0c0.5,0,1.1,0,1.6,0
		c0.2,0,0.5,0,0.7,0c0.8,0,1.5-0.1,2.3-0.1c8.2,3.8,7.5,15,3.8,16.8c-0.3,0.1-0.6,0.3-0.8,0.4c-0.1,0-0.2,0.1-0.2,0.1
		c-0.2,0.1-0.4,0.2-0.6,0.2c-0.1,0-0.1,0-0.2,0.1c-0.3,0.1-0.5,0.1-0.7,0.2c-0.1,0-0.1,0-0.2,0c-0.2,0-0.4,0-0.6,0c0,0-0.1,0-0.1,0
		c0,0-0.1,0-0.1,0c-0.2,0-0.4,0-0.5,0c0,0-0.1,0-0.1,0c-0.2,0-0.4-0.1-0.6-0.2c-0.1,0-0.1,0-0.2-0.1c-0.1-0.1-0.3-0.1-0.4-0.2
		c-0.1,0-0.1-0.1-0.2-0.1c-0.1-0.1-0.3-0.2-0.4-0.3c0,0-0.1-0.1-0.1-0.1c-0.2-0.2-0.4-0.3-0.5-0.6c0,0-0.1-0.1-0.1-0.1
		c-0.1-0.2-0.3-0.4-0.4-0.6c-0.1-0.1-0.1-0.2-0.2-0.3c-0.1-0.2-0.3-0.4-0.4-0.6c-0.1-0.1-0.1-0.2-0.2-0.3c-0.2-0.3-0.4-0.7-0.5-1
		c-0.1-0.2-0.3-0.5-0.4-0.8c0,0,0-0.1-0.1-0.1c-0.1-0.3-0.3-0.5-0.5-0.8c0-0.1-0.1-0.1-0.1-0.2c-0.2-0.3-0.4-0.6-0.6-0.9
		c0,0-0.1-0.1-0.1-0.2c-0.2-0.3-0.4-0.6-0.7-1c0,0,0,0,0,0c-0.2-0.3-0.5-0.6-0.7-1c0-0.1-0.1-0.1-0.1-0.2c-0.3-0.3-0.5-0.6-0.8-1
		c-0.1-0.1-0.1-0.1-0.2-0.2c-0.3-0.3-0.6-0.6-0.9-0.9c-0.1-0.1-0.1-0.1-0.2-0.2c-0.3-0.3-0.7-0.6-1-1c0,0,0,0-0.1-0.1
		c-0.4-0.3-0.7-0.6-1.1-0.9c-0.1,0-0.1-0.1-0.2-0.1c-0.4-0.3-0.8-0.6-1.2-0.8c-0.1-0.1-0.2-0.1-0.3-0.2c-0.4-0.3-0.8-0.5-1.3-0.7
		c-0.1,0-0.2-0.1-0.2-0.1c-0.5-0.2-1-0.5-1.5-0.7c0,0-0.1,0-0.1,0c-0.5-0.2-1-0.4-1.5-0.5c-0.1,0-0.1,0-0.2-0.1
		c-0.5-0.2-1.1-0.3-1.6-0.4c-0.1,0-0.2,0-0.3-0.1c-0.6-0.1-1.1-0.2-1.7-0.3c-0.1,0-0.2,0-0.3,0c-0.6-0.1-1.3-0.1-1.9-0.1
		c-0.2,0-0.5,0-0.7,0c-0.2,0-0.4,0-0.6,0c-0.3,0-0.5,0-0.8,0.1c-0.2,0-0.4,0-0.5,0c-0.3,0-0.6,0.1-0.9,0.1c-0.2,0-0.3,0-0.5,0.1
		c-0.5,0.1-0.9,0.2-1.4,0.3c-23.2,4.9-16.5,27.8-16.5,27.8s-7.8,2.8-7.5,9.2c0.8,17.8,11,18.8,11,18.8s-0.5-4.2,3-6.2
		c0.2-0.1,0.4-0.2,0.7-0.3c0.1,0,0.2-0.1,0.2-0.1c0.1-0.1,0.3-0.1,0.4-0.1c0.1,0,0.2,0,0.3-0.1c0.1,0,0.3-0.1,0.4-0.1
		c0.1,0,0.2,0,0.3,0c0.1,0,0.3,0,0.4,0c0,0,0,0,0,0c0,0,0.1,0,0.1,0c0.2,0,0.5,0,0.7,0.1c0.1,0,0.1,0,0.2,0c0.3,0,0.5,0.1,0.8,0.2
		c0,0,0.1,0,0.1,0c0.2,0.1,0.4,0.2,0.6,0.3c0.1,0,0.1,0.1,0.2,0.1c0.2,0.1,0.4,0.2,0.6,0.4c0,0,0,0,0.1,0c0.2,0.1,0.3,0.3,0.5,0.4
		c0,0,0.1,0.1,0.1,0.1c0.2,0.2,0.3,0.3,0.4,0.5c0,0,0,0,0,0c0.1,0.2,0.2,0.3,0.3,0.5c0,0,0,0.1,0.1,0.1c0.1,0.2,0.1,0.3,0.1,0.5
		c0.2,2,0.8,6.2-4.8,7s-14,1.8-17.8,7c-7.3,12-5.3,24,1.3,43c-29.3,5.3-22,29.9-18,38.3c0.1,0,0.3,0,0.4,0c3.2,0,5.9,2.6,5.9,5.9
		c0,3.2-2.6,5.9-5.9,5.9s-5.9-2.6-5.9-5.9c0-0.2,0-0.5,0-0.7c0.1-0.4,0.1-0.9,0.3-1.3s0.3-0.8,0.6-1.2c0.2-0.4,0.5-0.7,0.8-1
		c0.1-0.2,0.3-0.3,0.5-0.4c-0.2-0.2-0.3-0.3-0.3-0.3c-25-16.3-20.7-48-12.7-64C94.7,317,90.7,290,106.3,271z"/>
	<path class="st0" d="M540.9,123.1c0,7.8,6.3,14.1,14.1,14.1c7.8,0,14.1-6.3,14.1-14.1c0-3.2-1.1-6.3-3.1-8.8
		c1.1-2.4,4.7-7.2,15.1-7.2c0.9,0,1.9,0,2.9,0.1c8.3,1.1,14.1,3.9,17.2,8.3c4,5.8,2.3,12.9,2.3,12.9l-1,3.9l3.6,1.8
		c9,4.7,11.3,9.2,11.6,12.1c0.4,3.5-1.6,7.1-3.6,9.7c-1.6-0.9-3.1-1.2-4.4-1.2c-1,0-1.9,0.2-2.7,0.4c-2.9-3.9-7.3-6.1-12.7-6.1
		c-1.7,0-3.3,0.2-4.6,0.5c-3.2-2.6-6.3-4-9.4-4c-4.3,0-7.3,2.5-9.1,5c-4.5,0.3-7.9,1.9-10,4.7c-1,1.4-1.5,2.8-1.8,4.1
		c-6.2,1.6-9.4,5.9-10.4,9.8c-1.2,4.9,0.8,9.6,5,11.8l0.2,0.1l0.2,0.1c1.8,0.7,3.5,1.1,5.1,1.1c2.7,0,5-1,6.8-2.8
		c2.3-2.3,3-5.4,3.3-7.6c1.3-1.1,4.4-3,10.3-3c0.7,0,1.5,0,2.2,0.1c2.7,0.2,4.6,0.9,5.4,2c0.1,0.1,0.2,0.3,0.2,0.4
		c-4.7,1.4-6.7,4.1-7.5,6.4c-1.7,4.7,0.8,9.5,2.8,11.5c1.7,1.7,4.1,2.7,6.6,2.7c3.5,0,7-1.9,10.5-5.6c6,0,9.5,1.5,14.4,10l1.2,2.2
		l2.5,0.3c8.6,1.1,11.9,5,11.2,13.4l-0.2,2.3l1.6,1.6c2,2.1,3.1,5.3,3.1,8.7c-0.1,3.3-1.3,6.4-3.2,8.2c-3.5,3.4-10.6,5.3-19.6,5.3
		c-1.5,0-3.1-0.1-4.6-0.2l-1.3-0.1l-1.2,0.5c-6.9,3.1-9.4,9.8-9.4,14.9c0,5.1,2.1,9.3,5.6,10.9c2.2,1,3.9,1.5,5.6,1.5
		c5.9,0,8.6-5.5,9.5-7.2c1.6-3.2,6.3-10.6,15.5-10.6c1.4,0,2.8,0.2,4.2,0.5c5.4,1.1,9.2,3.5,11.3,7c3.7,6.2,1.5,14.5,1.4,14.5
		l-1.4,4.5l4.5,1.6c0,0,4.3,1.7,4.2,4.3c-0.3,6-1.7,9.4-3.1,11.4c-0.8-1.1-1.9-2.2-3.4-3c-1.6-0.9-3.4-1.4-5.2-1.4
		c-5,0-9.4,3.4-10,7.6c-1.3,10.1,5.9,12.1,9,12.6l0.5,0.1c4.5,0.6,11.3,1.5,13.8,4.8c5.6,9.2,5.1,18.6-1.9,38.5l-1.9,5.5l5.8,1
		c8.2,1.5,13.6,4.7,16,9.5c2.9,5.7,1.7,13.4-0.6,19.2c-4.5,1.3-7.8,5.5-7.8,10.4c0,6,4.9,10.9,10.9,10.9c6,0,10.9-4.9,10.9-10.9
		c0-1.1-0.2-2.2-0.5-3.2c10.2-8,16.1-19.5,17.3-33.3c0.9-10.3-1-21.7-5.1-31.4c5.5-6.7,9.1-16.3,9.6-26.5c0.6-11.7-2.7-23-9.2-32.2
		c5.5-10.7,7.5-22.1,5.8-33.4c-1.3-9-5.1-17.7-10.4-24.3c2.7-10.4,3.5-29.9-5-46.7c-6.6-13.1-17.4-22.3-32-27.4
		c-2.7-17.3-9.8-30.5-21.2-39.2c-10.4-8-24.2-12-41-12h0c-3.2,0-6.6,0.2-10,0.5c-1.4-0.1-2.7-0.1-4-0.1c-9.8,0-23.2,2.2-31.2,12.8
		c-3.3,4.4-4.5,8.7-5,11.3C543,114.6,540.9,118.7,540.9,123.1z M551,114.5c0,0,0.9-21.6,31.4-21.6c1.3,0,2.7,0,4.1,0.1
		c3.3-0.3,6.6-0.5,9.9-0.5c28.8,0,53.1,12.7,57.6,50c43.5,13,40.5,59,36,71.5c10.2,11,17.8,33.7,4.2,57c15.7,19,11.7,46-0.3,57.3
		c8,16,12.3,47.7-12.7,64c0,0-0.1,0.1-0.3,0.3c1.3,1.1,2.1,2.7,2.1,4.5c0,3.2-2.6,5.9-5.9,5.9s-5.9-2.6-5.9-5.9
		c0-3.2,2.6-5.9,5.9-5.9c0.1,0,0.3,0,0.4,0c4-8.4,11.2-32.9-18-38.3c6.7-19,8.7-31,1.3-43c-3.8-5.2-12.3-6.2-17.8-7s-5-5-4.8-7
		c0.2-1.5,2.4-3.2,5-3.2c0.9,0,1.8,0.2,2.8,0.7c3.5,2,3,6.2,3,6.2s10.2-1,11-18.8c0.2-6.5-7.5-9.2-7.5-9.2s6.8-22.9-16.5-27.8
		c-1.9-0.4-3.6-0.6-5.3-0.6c-11.7,0-17.8,9-20,13.4c-1.6,3.2-3.1,4.5-5,4.5c-1,0-2.2-0.4-3.5-1c-3.8-1.8-4.5-13,3.8-16.8
		c1.6,0.1,3.3,0.2,5,0.2c9,0,18-1.8,23-6.7c6-5.8,6.5-17.5,0.2-24c0.8-9-2.2-17-15.5-18.8c-5.5-9.7-10.4-12.6-18.8-12.6
		c-0.7,0-1.4,0-2.2,0.1c-3.5,4.2-6.3,5.5-8.2,5.5c-1.4,0-2.4-0.6-3-1.2c-1.5-1.5-5.5-9.2,6.2-10.2c0,0,3-10.5-10.2-11.5
		c-0.9-0.1-1.8-0.1-2.6-0.1c-11.2,0-15.1,5.9-15.1,5.9s0.2,7.5-5.2,7.5c-0.9,0-2-0.2-3.3-0.7c-5.2-2.8-3-12.8,8-12.8
		c0,0-2.5-8.3,8.3-8.3c0.5,0,0.9,0,1.4,0c0,0,1.8-5,6.2-5c2.1,0,4.7,1.1,8.1,4.5c0,0,2.7-1,6-1c4.1,0,9,1.6,10.8,8.8
		c0,0,2-3.1,4.6-3.1c1.4,0,2.9,0.8,4.4,3.4c0,0,22.8-18.8-5.8-33.5c0,0,6.2-23.8-23.8-27.5c-1.2-0.1-2.3-0.1-3.4-0.1
		c-15.5,0-20.1,9.4-20.6,12.9l-0.5,0.6c2.4,1.6,4,4.4,4,7.5c0,5-4.1,9.1-9.1,9.1s-9.1-4.1-9.1-9.1c0-3.7,2.2-6.9,5.4-8.3L551,114.5z
		"/>
	<path class="st0" d="M544,198.2c5.6,0,10.2-4.6,10.2-10.2c0-5.6-4.6-10.2-10.2-10.2s-10.2,4.6-10.2,10.2
		C533.9,193.6,538.4,198.2,544,198.2z M544,181.8c3.4,0,6.2,2.8,6.2,6.2s-2.8,6.2-6.2,6.2s-6.2-2.8-6.2-6.2S540.6,181.8,544,181.8z"
		/>
	<path class="st0" d="M517.2,239c0,5.7,4.6,10.3,10.3,10.3s10.3-4.6,10.3-10.3s-4.6-10.3-10.3-10.3S517.2,233.3,517.2,239z
		 M533.9,239c0,3.5-2.8,6.3-6.3,6.3s-6.3-2.8-6.3-6.3s2.8-6.3,6.3-6.3S533.9,235.5,533.9,239z"/>
	<path class="st0" d="M659.7,404.8c0.1-0.1,0.2-0.2,0.3-0.3c0.4-0.3,0.7-0.5,1-0.8c0.4-0.3,0.9-0.7,1.3-1c0,0,0,0,0,0
		c-0.7-1.8-1.1-3.7-1.1-5.7c0-0.6,0-1.2,0.1-1.7c-3.3,2.3-7,4.8-11.2,7.3c-19.7,11.6-54.2,25.9-107.4,29.5l-0.5,0.8
		c-0.9,1.4-1.9,3-2.9,4.7c0.9,0,1.7-0.1,2.6-0.1c53.8-1.7,87.6-14.8,106.5-25.5c0,0,0,0,0,0c0,0,0,0,0,0c0,0,0,0,0,0c0,0,0,0,0,0
		c0,0,0,0,0,0C653.1,409.4,656.8,406.9,659.7,404.8z"/>
	<path class="st0" d="M323.3,459.8c-0.1-0.4-0.2-0.7-0.3-0.8C323,459,323.1,459.3,323.3,459.8z"/>
	<path class="st0" d="M347.7,523.7c0,0-28.3-15.7-39.3,5c-11,20.7-31.3,25.7-31.3,25.7s24,3.3,36.7-18
		C326.3,515,347.7,523.7,347.7,523.7z"/>
	<path class="st0" d="M310.8,390.4l-5.2,4.1l6.2-1.4l-4.6,4l5.9-0.8l-3.7,3.3l5.2-0.2l-2.4,2.5c30.9,21.8,41.5,12,41.5,12
		s-34-16.7-34.7-48c-0.7-31.3,22.3-59.7,22.3-59.7l-6.5-4.1l3.5,6L332,305l3.6,5.8l-6.1-3.5l4.1,6.2l-6.4-3l4.1,5.6l-6.5-2.9
		l4.8,5.6l-7.1-2.8l4.6,5.4l-6.5-2.4l4.6,5.2l-6.8-2l5.1,5l-7-2.1l5,4.9l-7.1-1.9l5.1,4.8l-6.9-1.5l5.1,4.5l-7.1-1.2l6,4.6l-7.4-1.2
		l5.6,3.8l-7.2-0.6l5.8,3.9l-7.1-0.5l6,3.9l-7.4-0.1l6.5,2.9l-7.4,0.6l6.5,2.6l-7.5,0.9l6.9,2.5l-7.4,0.8l6.1,2.5l-7,1.2l6.6,2
		l-7.5,1.5l7.6,1.4l-7.4,2.9l7.4,0.1l-7.6,3.2l7.5,0.2l-7.2,3.1l7.8,0.2l-7.5,3.1l7.8,0.2l-7.5,3.4h8.1l-7.1,3.6l7.6-0.4l-6.8,4
		L310.8,390.4z"/>
	<path class="st0" d="M362.2,426.5v-4C322,419,304.5,399,304.5,399C324.5,423.5,362.2,426.5,362.2,426.5z"/>
	<path class="st0" d="M362.2,433.2v-4c-39.2-2-56-21-56-21C322.5,431,362.2,433.2,362.2,433.2z"/>
	<path class="st0" d="M363.2,439.5v-4.2c-39-1.8-54-18.5-54-18.5C322.5,436.2,363.2,439.5,363.2,439.5z"/>
	<path class="st0" d="M387.3,427.5c-19,0.8-23.7-5.8-23.7-5.8l-0.2,3.2C372.7,431.3,387.3,427.5,387.3,427.5z"/>
	<path class="st0" d="M389.3,434c0,0-17.2-0.2-25.2-5.7v2.7C364.2,431,374,437.2,389.3,434z"/>
	<path class="st0" d="M392,437c-19.4,2.5-27.5-3.5-27.5-3.5v3.5C378.4,442.3,392,437,392,437z"/>
	<path class="st0" d="M386.9,419v-2.7c-10.9-9.1-3.6-38.7-3.6-38.7c-12.8,26.8,1.9,41.2,1.9,41.2L386.9,419z"/>
	<ellipse class="st0" cx="369.1" cy="412.2" rx="1.9" ry="1.4"/>
	<ellipse class="st0" cx="373.9" cy="416.2" rx="2.1" ry="1.3"/>
	<path class="st0" d="M376.9,421.7c0.5,0,1-0.4,1-1s-0.4-1-1-1s-1,0.4-1,1S376.3,421.7,376.9,421.7z"/>
	<circle class="st0" cx="380.6" cy="419.9" r="0.9"/>
	<path class="st0" d="M378.7,387c-2-0.2-6.2,1.7-10.2,5.2c-21.3-4.7-25.3-25.7-25.3-25.7c10.8,7,24,7,23.8,2
		c-28.2-1.5-26-18.2-24.2-26.2c1.8-8,9.3-14.8,9.3-14.8c-0.1,9.5,7.5,11.1,7.5,11.1s-1.5,14.6,11.5,15.8s11.4,14.2,11.4,14.2
		c5-14.9,3.4-22.5,0.7-26.9s-11.5-9.1-22.1-6.2c-11.8-5-5.7-13.4-5.7-12.5s2,3,6.8,3.3s7.2,5.2,7.2,5.2c0.4-3.2-1.4-5.4-1.4-5.4
		c8.5,0.8,12.6,9.4,12.6,9.4c-5.2-16.8,7.6-23.6,7.6-23.6c-8.1-1.2-12.3,4.4-15.2,9.2c-2.8-6.2,7-11.7,7-11.7
		c-8.4-4.1-12.7,7.5-13.5,9.7c-1.7,0.9-10.2,2-8.7-1.2c1.6-3.2,13.1-14.8,13.1-14.8l-2.4-2.2l0.2,2.2l-1.8-1.4l0.7,1.8l-2.2-1.1
		l1.1,1.8l-2.3-1l1.2,2.1l-2.6-1.2l1.3,2.2l-2.8-1.1l1.2,1.9l-2.5-0.6l1.6,1.9l-3-1l1.8,2.2l-3.1-1.1l1.9,2.1l-3.2-0.9l1.8,1.9
		l-3.2-0.8l2.2,1.9l-3.2-0.6l2.4,2.1l-3.3-0.8l2.2,1.7l-3.2-0.2l2.4,1.8l-3.4-0.2l2.6,1.5h-3.7l2.6,1.4h-3.4l2.6,1.5h-3.3l2.6,1.4
		h-3.4l2.4,1.2l-2.5,0.1l1.5,0.9c-9.7,7.5-17,23.8-14,38.8c6.1,30.4,24.6,32.4,30.2,32.3c-1.8,2.1-3.3,4.6-4.3,7.3
		c-4.4-1.6-25.5-10.3-31.2-32.7c-6.3-25,14-46.7,14-46.7c8.4-21,21.7-29.9,21.7-29.9l-3.1-2.8l0.7,2.5l-2.3-1.7l1.1,2.2l-2.7-1.5
		l1.3,2.6l-2.4-1.8l1,2.6l-2.2-1.8l1.2,2.7l-2.7-1.6l1.2,2.5l-2.9-1.5l1.5,2.6l-2.8-1.4l1.7,2.5L351,299l1.5,2.5l-2.9-1.2l1.8,2.4
		l-3.1-1l2,2.5l-3.2-1l2.1,2.1l-3.4-0.6l2.2,2l-3.6-0.8l2.6,2l-3.7-0.1l2.8,1.5h-3.7l2.7,1.4l-3.7,0.2l3,1.2l-3.8,0.2l3.1,1
		l-4.1,0.8l3.4,0.8l-4.1,0.8l3.2,0.8l-3.9,0.8l3,0.7l-3.5,0.3l3.1,0.9l-3.5,0.8l2.8,0.9c0,0-10,7.7-14.7,21.7
		c-5.7,18.7-2.2,36,7.9,47.7c8.6,10,22.3,15.9,26,17.4c0,0.1,0,0.2,0,0.4c-1,12.6,14.5,15.2,14.5,15.2
		C352.6,404.2,378.7,387,378.7,387z M372.7,336.8c4.2,0,7.7,3.4,7.7,7.7c0,4.2-3.4,7.7-7.7,7.7s-7.7-3.4-7.7-7.7
		C365,340.2,368.4,336.8,372.7,336.8z"/>
	<path class="st0" d="M373,346.4c1.7,0,3.1-1.4,3.1-3.1c0-1.7-1.4-3.1-3.1-3.1c-1.7,0-3.1,1.4-3.1,3.1
		C369.9,345,371.3,346.4,373,346.4z M373.3,341.4c0.5,0,0.8,0.4,0.8,0.8c0,0.5-0.4,0.8-0.8,0.8c-0.5,0-0.8-0.4-0.8-0.8
		C372.5,341.7,372.9,341.4,373.3,341.4z"/>
	<path class="st0" d="M362.9,357.8c-8.8-1.1-9.2-14.7-9.2-14.7c-3.5,11.2,3.5,17.7,12.3,18.1s15.6,5.5,15.6,5.5
		C377.9,358.4,371.6,358.9,362.9,357.8z"/>
	<path class="st0" d="M403.1,378.6c0.4-11.6-1-15.5-5.5-17.1s-6.2-10.1-6.2-10.1c-0.1,9,2.9,10.8,6.8,13.2s3,13.8,3,13.8
		L403.1,378.6z"/>
	<path class="st0" d="M395.4,381.1c-0.1-12.2-3-12.4-5.4-12.1s-3.1,1.2-6.5,3.8s-8.2-2.8-8.2-2.8c-0.6,2.6,6.9,7.9,10.1,4.8
		c3.8-3.7,5.7-3.5,6.7-2.4s0.6,8.8,0.6,8.8H395.4z"/>
	<path class="st0" d="M369.4,283.4v0.8h1.3c-0.7,1.2,0,1.5,0,1.5c14.4-7.2,29.2-6.8,31.5-6.8s2.4,1.6,2.4,1.6s-0.1,14.1-0.2,16.8
		s-4,6.4-4,6.4s-2.9-1.8-8.1-1.5c-7.8,1-9.6,7.9-9.6,7.9c5.5,1.9,8-1.8,13.6-1.5s5,5.1,5,5.1c-15.1,12.9-12.5,28.8-12.5,28.8l4,3.9
		c0.8-26,15.2-32.4,15.2-32.4s14.5,6.4,15.2,32.4l4-3.9c0,0,2.6-15.9-12.5-28.8c0,0-0.6-4.9,5-5.1s8.1,3.4,13.6,1.5
		c0,0-1.9-6.9-9.6-7.9c-5.2-0.2-8.1,1.5-8.1,1.5s-3.9-3.8-4-6.4s-0.2-16.8-0.2-16.8s0.1-1.6,2.4-1.6s17.1-0.5,31.5,6.8
		c0,0,0.7-0.3,0-1.5h1.3v-0.8h-1.9c-0.2-0.3-0.5-0.6-0.9-1h2.4v-0.8h-2.8v-2.5h-0.8v2.1c-0.3-0.3-0.6-0.6-0.9-0.8v-3h-0.8v2.2
		c-0.3-0.2-0.5-0.4-0.8-0.7v-2.3h-0.8v1.7c-0.3-0.2-0.6-0.4-0.9-0.7V275h-0.8v2.1c-0.3-0.2-0.5-0.4-0.8-0.5v-2.4h-0.8v1.9
		c-0.3-0.2-0.5-0.3-0.8-0.5v-2.3h-0.8v1.8c-0.3-0.2-0.6-0.3-0.9-0.5v-2.1h-0.8v1.7c-0.3-0.1-0.6-0.3-0.9-0.4v-2.1h-0.8v1.7
		c-0.3-0.1-0.5-0.2-0.8-0.3v-2.3h-0.8v2c-0.3-0.1-0.5-0.2-0.8-0.3v-1.9h-0.8v1.6c-0.3-0.1-0.5-0.2-0.8-0.2v-2h-0.8v1.8
		c-0.3-0.1-0.6-0.1-0.9-0.2V269H424v2.3c-0.3-0.1-0.6-0.1-0.9-0.1v-2.7h-0.8v2.6c-0.3,0-0.6-0.1-0.8-0.1v-2.8h-0.8v2.7
		c-0.3,0-0.5,0-0.8,0v-2.6H419v2.6c-0.3,0-0.6,0-0.9,0v-2.6h-0.8v2.6c-0.3,0-0.6,0-0.8,0.1v-2.7h-0.8v2.8c-0.3,0-0.5,0.1-0.8,0.1v-2
		H414v2.1c-0.3,0-0.6,0.1-0.8,0.2V269h-0.8v2.5c-0.3,0.1-0.6,0.1-0.8,0.2v-1.8h-0.8v2c-0.3,0.1-0.6,0.2-0.9,0.3V270h-0.8v2.5
		c-0.3,0.1-0.5,0.2-0.8,0.3c-0.3-0.1-0.5-0.2-0.8-0.3V270h-0.8v2.2c-0.3-0.1-0.6-0.2-0.9-0.3v-2h-0.8v1.8c-0.3-0.1-0.6-0.1-0.8-0.2
		V269h-0.8v2.3c-0.3-0.1-0.6-0.1-0.8-0.2V269h-0.8v2c-0.3,0-0.5-0.1-0.8-0.1v-2.8h-0.8v2.7c-0.3,0-0.6-0.1-0.8-0.1v-2.6h-0.8v2.6
		c-0.3,0-0.6,0-0.9,0v-2.6h-0.8v2.6c-0.3,0-0.5,0-0.8,0v-2.7h-0.8v2.8c-0.3,0-0.6,0.1-0.8,0.1v-2.6h-0.8v2.7c-0.3,0-0.6,0.1-0.9,0.1
		V269h-0.8v2.4c-0.3,0.1-0.6,0.1-0.9,0.2v-1.8h-0.8v2c-0.3,0.1-0.5,0.2-0.8,0.2v-1.6h-0.8v1.9c-0.3,0.1-0.5,0.2-0.8,0.3v-2h-0.8v2.3
		c-0.3,0.1-0.5,0.2-0.8,0.3v-1.7h-0.8v2.1c-0.3,0.1-0.6,0.3-0.9,0.4v-1.7h-0.8v2.1c-0.3,0.2-0.6,0.3-0.9,0.5v-1.8H381v2.3
		c-0.3,0.2-0.5,0.3-0.8,0.5v-1.9h-0.8v2.4c-0.3,0.2-0.6,0.4-0.8,0.5V275h-0.8v2.7c-0.3,0.2-0.6,0.4-0.9,0.7v-1.7H376v2.3
		c-0.3,0.2-0.6,0.5-0.8,0.7v-2.2h-0.8v3c-0.3,0.3-0.6,0.6-0.9,0.8v-2.1h-0.8v2.5h-2.8v0.8h2.4c-0.4,0.4-0.7,0.7-0.9,1H369.4z"/>
	<path class="st0" d="M396.8,293.2c2.2-2,3.7-5.9,4.9-6.7l-0.1-1.8c0,0-4.1,0.2-5.6,2.6c-1.5,2.4-6.2,2.7-9.6,2.6
		c-3.4-0.1-7.9,1.2-11.5,5.9v3.8c0,0,6.3-5.1,9.9-5.3C388.4,294.2,394.6,295.2,396.8,293.2z"/>
	<path class="st0" d="M474.7,306.3c0,0,23,28.3,22.3,59.7c-0.7,31.3-34.7,48-34.7,48s10.7,9.8,41.5-12l-2.4-2.5l5.2,0.2l-3.7-3.3
		l5.9,0.8l-4.6-4l6.2,1.4l-5.2-4.1l7.2,0.8l-6.8-4l7.6,0.4l-7.1-3.6h8.1l-7.5-3.4l7.8-0.2l-7.5-3.1l7.8-0.2l-7.2-3.1l7.5-0.2
		l-7.6-3.2l7.4-0.1l-7.4-2.9l7.6-1.4l-7.5-1.5l6.6-2l-7-1.2l6.1-2.5l-7.4-0.8l6.9-2.5l-7.5-0.9l6.5-2.6l-7.4-0.6l6.5-2.9l-7.4,0.1
		l6-3.9l-7.1,0.5l5.8-3.9l-7.2,0.6l5.6-3.8l-7.4,1.2l6-4.6l-7.1,1.2l5.1-4.5l-6.9,1.5l5.1-4.8l-7.1,1.9l5-4.9l-7,2.1l5.1-5l-6.8,2
		l4.6-5.2l-6.5,2.4l4.6-5.4l-7.1,2.8l4.8-5.6l-6.5,2.9l4.1-5.6l-6.4,3l4.1-6.2l-6.1,3.5l3.6-5.8l-6.4,3.2l3.5-6L474.7,306.3z"/>
	<path class="st0" d="M453.8,422.5v4c0,0,37.8-3,57.8-27.5C511.5,399,494,419,453.8,422.5z"/>
	<path class="st0" d="M453.8,429.2v4c0,0,39.8-2.2,56-25C509.8,408.2,493,427.2,453.8,429.2z"/>
	<path class="st0" d="M452.8,439.5c0,0,40.8-3.2,54-22.8c0,0-15,16.8-54,18.5V439.5z"/>
	<path class="st0" d="M452.3,421.7c0,0-4.7,6.7-23.7,5.8c0,0,14.7,3.8,23.8-2.7L452.3,421.7z"/>
	<path class="st0" d="M451.8,428.3c-8,5.5-25.2,5.7-25.2,5.7c15.3,3.2,25.2-3,25.2-3V428.3z"/>
	<path class="st0" d="M424,437c0,0,13.6,5.3,27.5,0v-3.5C451.5,433.5,443.4,439.5,424,437z"/>
	<path class="st0" d="M429.1,416.3v2.7l1.7-0.1c0,0,14.8-14.4,1.9-41.2C432.7,377.7,440,407.2,429.1,416.3z"/>
	<ellipse class="st0" cx="446.9" cy="412.2" rx="1.9" ry="1.4"/>
	<ellipse class="st0" cx="442.1" cy="416.2" rx="2.1" ry="1.3"/>
	<path class="st0" d="M439.1,419.8c-0.5,0-1,0.4-1,1s0.4,1,1,1s1-0.4,1-1S439.7,419.8,439.1,419.8z"/>
	<circle class="st0" cx="435.4" cy="419.9" r="0.9"/>
	<path class="st0" d="M445,303.2c0,0,11.5,11.7,13.1,14.8c1.6,3.2-7,2.1-8.7,1.2c-0.8-2.2-5.1-13.8-13.5-9.7c0,0,9.8,5.4,7,11.7
		c-2.8-4.8-7.1-10.4-15.2-9.2c0,0,12.9,6.8,7.6,23.6c0,0,4.1-8.6,12.6-9.4c0,0-1.8,2.1-1.4,5.4c0,0,2.5-4.8,7.2-5.2s6.8-2.5,6.8-3.3
		s6,7.5-5.7,12.5c-10.6-2.9-19.5,1.9-22.1,6.2s-4.3,12,0.7,26.9c0,0-1.6-13.1,11.4-14.2s11.5-15.8,11.5-15.8s7.6-1.7,7.5-11.1
		c0,0,7.5,6.8,9.3,14.8c1.8,8,4,24.7-24.2,26.2c-0.2,5,13,5,23.8-2c0,0-4,21-25.3,25.7c-4-3.5-8.3-5.4-10.2-5.2
		c0,0,26.1,17.2,4.8,36.5c0,0,15.5-2.7,14.5-15.2c0-0.1,0-0.2,0-0.4c3.7-1.5,17.4-7.4,26-17.4c10-11.7,13.5-29,7.9-47.7
		c-4.7-14-14.7-21.7-14.7-21.7l2.8-0.9l-3.5-0.8l3.1-0.9l-3.5-0.3l3-0.7l-3.9-0.8l3.2-0.8l-4.1-0.8l3.4-0.8l-4.1-0.8l3.1-1l-3.8-0.2
		l3-1.2l-3.7-0.2l2.7-1.4h-3.7l2.8-1.5l-3.7,0.1l2.6-2l-3.6,0.8l2.2-2l-3.4,0.6l2.1-2.1l-3.2,1l2-2.5l-3.1,1l1.8-2.4l-2.9,1.2
		l1.5-2.5l-2.7,1.1l1.7-2.5l-2.8,1.4l1.5-2.6l-2.9,1.5l1.2-2.5l-2.7,1.6l1.2-2.7l-2.2,1.8l1-2.6l-2.4,1.8l1.3-2.6l-2.7,1.5l1.1-2.2
		l-2.3,1.7l0.7-2.5l-3.1,2.8c0,0,13.2,8.9,21.7,29.9c0,0,20.3,21.7,14,46.7c-5.7,22.4-26.8,31.1-31.2,32.7c-1-2.7-2.6-5.1-4.3-7.3
		c5.6,0.1,24.1-1.9,30.2-32.3c3-15-4.3-31.3-14-38.8l1.5-0.9l-2.5-0.1l2.4-1.2h-3.4l2.6-1.4h-3.3l2.6-1.5h-3.4l2.6-1.4h-3.7l2.6-1.5
		l-3.4,0.2l2.4-1.8l-3.2,0.2l2.2-1.7l-3.3,0.8l2.4-2.1l-3.2,0.6l2.2-1.9l-3.2,0.8l1.8-1.9l-3.2,0.9l1.9-2.1l-3.1,1.1l1.8-2.2l-3,1
		l1.6-1.9l-2.5,0.6l1.2-1.9l-2.8,1.1l1.3-2.2l-2.6,1.2l1.2-2.1l-2.3,1l1.1-1.8l-2.2,1.1l0.7-1.8l-1.8,1.4l0.2-2.2L445,303.2z
		 M443.3,352.1c-4.2,0-7.7-3.4-7.7-7.7c0-4.2,3.4-7.7,7.7-7.7s7.7,3.4,7.7,7.7C451,348.6,447.6,352.1,443.3,352.1z"/>
	<path class="st0" d="M443,340.2c-1.7,0-3.1,1.4-3.1,3.1c0,1.7,1.4,3.1,3.1,3.1c1.7,0,3.1-1.4,3.1-3.1
		C446.1,341.6,444.7,340.2,443,340.2z M442.7,343c-0.5,0-0.8-0.4-0.8-0.8c0-0.5,0.4-0.8,0.8-0.8c0.5,0,0.8,0.4,0.8,0.8
		C443.5,342.7,443.1,343,442.7,343z"/>
	<path class="st0" d="M462.3,343c0,0-0.5,13.6-9.2,14.7s-15,0.6-18.8,8.9c0,0,6.8-5.1,15.6-5.5S465.8,354.2,462.3,343z"/>
	<path class="st0" d="M417.9,364.6c3.9-2.5,6.9-4.2,6.8-13.2c0,0-1.8,8.5-6.2,10.1s-5.9,5.5-5.5,17.1l2-0.2
		C414.9,378.4,414,367.1,417.9,364.6z"/>
	<path class="st0" d="M430.7,374.8c3.2,3.1,10.7-2.1,10.1-4.8c0,0-4.9,5.2-8.2,2.8s-4.1-3.5-6.5-3.8s-5.2-0.1-5.4,12.1h2.8
		c0,0-0.4-7.6,0.6-8.8S426.9,371.1,430.7,374.8z"/>
	<path class="st0" d="M441.1,295.9c-3.6-4.8-8.1-6-11.5-5.9c-3.4,0.1-8.1-0.2-9.6-2.6c-1.5-2.4-5.6-2.6-5.6-2.6l-0.1,1.8
		c1.2,0.8,2.8,4.7,4.9,6.7s8.3,0.9,11.9,1.2c3.6,0.2,9.9,5.3,9.9,5.3V295.9z"/>
	<path class="st0" d="M377.9,450.2l-2.6,9.8v1.7c0,0,4.5,6.7,31.8,6.7s34.5-6.7,34.5-6.7v-1.4l-2.3-9.9l-2.1,10.2l-2-9.5
		c7.2-3.1,6.3-9.4,6.3-9.4c-19.5,1.1-29.8-7.4-32.7-10.3v-3c3.3-0.8,15.7-4.6,20.7-14.9c3-5.8-5.5-7.5-5.5-7.5l-16,0.2l-16-0.2
		c0,0-8.5,1.8-5.5,7.5c5,10.4,17.4,14.1,20.7,14.9v3c-2.8,2.8-13.1,11.4-32.7,10.3c0,0-0.9,6.7,7,9.6L379,460L377.9,450.2z
		 M434.8,451.2l-2,9.5l-1.1-8.6C432.9,451.8,433.9,451.5,434.8,451.2z M404.2,423.8c-1.3-1.7-4.8-8.9-7.7-9.1
		c-2.8-0.2-5.5,0.2-5.7-2.3c-0.2-2.5,1.3-2.9,3.6-2.9s13.6,0,13.6,0s11.3,0,13.6,0s3.8,0.4,3.6,2.9c-0.2,2.5-2.8,2.2-5.7,2.3
		c-2.8,0.2-6.3,7.4-7.7,9.1c-0.8,1.1-2.2,1.2-3,1.2v-8.2h-1.7v8.2C406.3,425.1,405,424.9,404.2,423.8z M384.7,452.2
		c0,0,4.4-11.5,22.9-11.7h0.8c16.3,0.1,21.6,9,22.7,11.2l-2.4,8.6l-2-10.2l-2.2,10.2l-1.8-10.2l-2.3,10.2l-1.8-10.2l-2.5,10.2
		l-1.5-10.2l-2.7,10l-1.7-10l-2.5,10l-1.5-10l-2.2,10.2l-2.2-10.2l-2,10l-2-10l-2.2,10l-2-10l-2.2,10l-1.7-10l-2.5,9.8l-1.5-9.8
		l-2.5,10l-1.3-8.7C382.8,451.7,383.7,452,384.7,452.2z"/>
	<path class="st0" d="M258.7,109.3c1.2,1.2,2.2,2.5,3.1,3.9c41.4-3.3,91.4-13.6,138.2-39.7c47,26.3,97.2,36.5,138.7,39.7
		c0.9-1.4,1.9-2.8,3.1-4c0.8-3.2,2.4-7.4,5.5-11.6c1-1.4,2.2-2.6,3.3-3.8c-42.4-2.3-99.2-12.3-150.1-43.9
		c-51.1,31.7-108.1,41.7-150.6,43.9c1.2,1.1,2.3,2.4,3.3,3.8C256.4,101.9,258,106.1,258.7,109.3z"/>
	<path class="st0" d="M256.7,432.1c-52.6-3.7-86.8-17.9-106.4-29.4c-4.2-2.5-7.9-4.9-11.2-7.3c0.1,0.6,0.1,1.1,0.1,1.7
		c0,2.1-0.4,4.1-1.2,6c0,0,0,0,0,0c0.4,0.3,0.8,0.6,1.3,1c0.2,0.1,0.4,0.3,0.5,0.4c0.3,0.2,0.6,0.4,0.9,0.6c0.2,0.2,0.5,0.3,0.7,0.5
		c0.3,0.2,0.5,0.4,0.8,0.6c0.3,0.2,0.6,0.4,0.8,0.6c0.3,0.2,0.5,0.4,0.8,0.5c0.3,0.2,0.6,0.4,0.9,0.6c0.3,0.2,0.6,0.4,0.9,0.6
		c0.3,0.2,0.6,0.4,0.9,0.6c0.3,0.2,0.7,0.4,1,0.6c0.3,0.2,0.6,0.4,0.9,0.5c0,0,0,0,0,0c0.4,0.2,0.8,0.5,1.2,0.7
		c-0.3-0.1-0.5-0.3-0.7-0.4c0.2,0.1,0.5,0.3,0.7,0.4c0.3,0.2,0.5,0.3,0.8,0.5c0,0,0,0,0,0c18.2,10.5,51.2,23.8,103.8,26
		C255.1,435.6,255.9,433.8,256.7,432.1z"/>
	<path class="st0" d="M148.5,410.2c0.1,0.1,0.3,0.2,0.4,0.3C148.8,410.4,148.6,410.3,148.5,410.2
		C148.5,410.2,148.5,410.2,148.5,410.2z"/>
	<path class="st0" d="M151.6,412c-0.4-0.2-0.8-0.4-1.1-0.7c0,0,0,0,0,0C150.9,411.6,151.2,411.8,151.6,412z"/>
	<path class="st0" d="M130.3,369.7c-1.8,3.6-1.2,8.8,0.1,13.2c2.6,1.3,4.7,3.3,6.3,5.6c4.3,3.4,9.5,7.1,16,10.8
		c19.4,11.3,53.3,25.3,105.9,28.8c1.4-3.1,2.8-6.1,3.9-8.7c-32.1-2.9-74.9-10.9-107.8-32c-11.5-7.4-18.8-14.5-23.1-19.5
		C131,368.6,130.6,369.1,130.3,369.7z"/>
	<path class="st0" d="M670.1,382.9c1.3-4.3,1.9-9.6,0.1-13.2c-0.3-0.6-0.7-1.2-1.1-1.7c-4.3,5-11.6,12.1-23.1,19.5
		c-31.1,20-71.1,28.2-102.5,31.5l0.5,7.3l0.1,1.8c51.3-3.7,84.6-17.5,103.8-28.7c6.4-3.8,11.7-7.5,16-10.8
		C665.4,386.2,667.5,384.2,670.1,382.9z"/>
	<path class="st0" d="M642.9,268.9c0.3-1.3,0.8-4.4,0.2-7.4c-5.1,8.2-12.5,18.8-22.4,30.2c-17,19.6-44.6,44.9-83.9,61.8l1.5,3.1
		l0.5,1l0.4,0.9l0.1,1l0.1,1.2l0.1,0.7c34.4-13,60.4-33.4,77.1-49.5c4.3-4.2,8.2-8.2,11.7-12.1c-0.2-1.5-0.2-3.2,0.1-5.1
		c0.8-6.5,6.9-11.5,14-12c0.9-1.2,1.6-2.2,2.3-3.2l-0.1,0l-4.5-1.6l1.4-4.6L642.9,268.9z"/>
	<path class="st0" d="M155.8,279.6c0.7,1,1.5,2.1,2.3,3.2c7.1,0.4,13.2,5.5,14,12c0.2,1.9,0.2,3.6,0.1,5.1
		c3.5,3.9,7.4,7.9,11.7,12.1c19.3,18.7,51,43,93.9,55.1c0.7-2.5,1.3-4.9,1.9-7.3c-47.9-16.3-80.7-45.8-100-68
		c-9.9-11.4-17.3-22-22.4-30.2c-0.6,3-0.1,6.1,0.2,7.4l1.4,4.4l1.4,4.6L155.8,279.6L155.8,279.6z"/>
	<path class="st0" d="M641.7,312.9c-2.4-0.3-5.9-1.3-8.8-3.9c-1.2-1.1-2.4-2.5-3.3-4.5c-3.1,3.3-6.4,6.8-10.1,10.3
		c-17.2,16.6-44,37.6-79.7,50.9l1,14.3c59.1-14.3,97.8-49.8,111.6-64.4c-1.9-1.5-8.1-2.3-10.2-2.6L641.7,312.9z"/>
	<path class="st0" d="M158.3,313c-2.1,0.3-8.3,1.1-10.2,2.6c14.9,15.7,58.6,55.7,125.6,67.3c0.2-0.9,0.5-1.7,0.7-2.5
		c0.8-3.1,1.6-6.3,2.5-9.4c-43.8-12.3-76.1-37.1-95.8-56.2c-3.6-3.5-7-7-10.1-10.3c-0.9,2-2.1,3.5-3.3,4.5c-2.9,2.6-6.4,3.6-8.8,3.9
		L158.3,313z"/>
	<path class="st0" d="M630.8,253.4c-6.2,0-9.6,4.9-11,7.9c-2.3,4.6-6.6,10-14,10c-2.4,0-4.9-0.6-7.7-1.9c-2.7-1.3-4.9-3.5-6.4-6.3
		c-0.5,0.7-1,1.4-1.6,2.1c-22.1,29.9-43,46.1-67.6,59l11.7,24c38.3-16.4,65.2-41,81.8-60.1c10.7-12.3,18.5-23.8,23.5-32.1
		c-1.4-1-3.3-1.7-5.6-2.2C632.9,253.5,631.8,253.4,630.8,253.4z"/>
	<path class="st0" d="M194.8,271.2c-7.4,0-11.7-5.4-14-10c-1.5-2.9-4.9-7.9-11-7.9c-1,0-2.1,0.1-3.2,0.3c-2.3,0.5-4.2,1.2-5.6,2.2
		c5,8.3,12.8,19.8,23.5,32.1c18.7,21.5,50.5,50.1,96.9,66c1.1-4,2-7.4,2.8-9.8c1.1-3.7,2.9-8.8,5-14.4
		c-29.5-13.9-53.3-30.2-78.7-64.5c-0.5-0.7-1-1.4-1.6-2.1c-1.5,2.8-3.6,5-6.4,6.3C199.7,270.6,197.2,271.2,194.8,271.2z"/>
	<path class="st0" d="M213.1,197.1c-0.7,0.1-1.4,0.2-2.1,0.2c-3.5,0-6.8-1.2-10.1-3.6c1.6,4.8,3.4,9.6,5.3,14.6
		c19,47.7,55.1,89.9,89.1,104.9c1.7-4.4,3.3-8.6,4.8-12.2c-35-23.5-60.4-52.2-81.7-92.5C216.4,204.7,214.7,200.9,213.1,197.1z"/>
	<path class="st0" d="M514.8,308.2c31.1-18.1,62.3-56.8,79.5-99.9c2-5,3.7-9.8,5.3-14.6c-3.3,2.4-6.7,3.6-10.1,3.6
		c-0.7,0-1.4-0.1-2.1-0.2c-1.5,3.9-3.3,7.6-5.2,11.3c-19.7,37.1-42.7,64.4-73.6,86.8L514.8,308.2z"/>
	<path class="st0" d="M370.4,686.4l1.8,3.8l4.2-0.4l10.1-1l2.4-0.2l0.9,0.7l7.5,5.6l3.5,2.7l3.6-2.6l4.2-3.1l3.3,0.8l8.2,2l4.4,1.1
		l2.2-3.9l3.4-5.9l0.4-0.7h1.7c6.8,0,8.7-2.6,9.3-3.4c0.5-0.6,1.1-1.4,4.4-9.3c1.2-2.9,0.8-6.2-1.1-8.7l-7.3-9.8l0.1-0.3
		c-0.5,0-1.1,0-1.6,0c-1.6,0-3.2-0.1-4.8-0.2L431,655l9.3,12.4c0.6,0.8,0.7,1.9,0.3,2.8c-1,2.5-3.1,7.3-3.6,8c-0.8,1-4.5,1-4.5,1
		l1.8-7.7c0.2-0.8,0.1-1.7-0.4-2.4l-8.5-14c-0.7-1.1-1.8-1.7-3-1.7c-0.6,0-1.1,0.1-1.7,0.4c-1.7,0.9-2.3,3-1.4,4.7l6.8,12.3
		c0.5,0.9,0.7,2,0.5,3.1l-1.6,9l-3.4,5.9l-8.2-2l3.7-8.8c0.4-1,0.5-2.1,0.3-3.2l-3.9-15.8c-0.4-1.7-1.9-2.8-3.6-2.8
		c-0.3,0-0.6,0-0.8,0.1c-1.9,0.4-3.2,2.3-2.8,4.3l2.9,14.4c0.2,1,0.1,2-0.2,2.9l-3.1,8.6l-5,3.6l-7.5-5.6l5.5-8.2
		c0.8-1.2,1.1-2.7,0.7-4.1l-4.5-18c-0.4-1.8-2.1-3-3.8-3c-0.5,0-1,0.1-1.5,0.3c-1.8,0.7-2.8,2.7-2.3,4.6l3.9,14.6
		c0.4,1.4,0.2,2.9-0.6,4.1l-4.9,8.1l-10.1,1l-15-32c0,0,7.3-11.5,13.1-27.9c-1.5-1.9-3-3.9-4.3-5.9c-5.7,17.6-13.8,30.5-13.9,30.6
		l-1.8,2.8l1.4,3L370.4,686.4z"/>
	<path class="st0" d="M432,483c17.7-4.3,30.3-8.3,35.3-17.3c0,0-16.7,5.3-37.7,6.7c-16.4,1-20.6,17.3-21.5,26.6
		c1.2-0.4,2.4-0.9,3.6-1.3C415.4,492.3,421.8,485.5,432,483z"/>
	<path class="st0" d="M376.9,520.2c1.4-1.5,2.8-2.9,4.2-4.3l-2-2.6l-29-0.3l-14.4-9.9l-8.2-25.8c-0.5-1.6-2.2-2.5-3.8-2
		c-1.6,0.5-2.5,2.2-2,3.8l8.8,27.7l17.6,12.1l27.9,0.2L376.9,520.2z"/>
	<path class="st0" d="M369.8,529.4l-0.3-0.2l-18.6,2.5c-1.6,0.2-2.8,1.7-2.6,3.4s1.7,2.8,3.4,2.6l14.2-1.9
		C367.1,533.6,368.4,531.4,369.8,529.4z"/>
	<path class="st0" d="M335.8,552.7l20.1,1.3l2.5,1.9c0.5-2.1,1-4.2,1.7-6.2l-2-1.5l-21.9-1.4c-1.6-0.1-3.1,1.2-3.2,2.8
		C332.9,551.1,334.2,552.6,335.8,552.7z"/>
	<path class="st0" d="M666.6,409c-0.3-0.3-0.7-0.6-1-1c-4.3,3.4-10.9,7.9-20.1,12.6c-0.4,17.7-2.4,33-6,47
		c-10.3,41-34.9,72.4-79.7,101.8c-16.7,10.9-32.4,20-47,27.6c-3.6,11.8-9.7,22.4-17.9,31.2c22.7-9.9,48.6-23.5,76.9-42.1
		C644,538.8,667.4,485.2,666.6,409z"/>
	<circle class="st0" cx="189.7" cy="214" r="6"/>
	<path class="st0" d="M196.3,233.3l1.2,0.5l1.2,0.5c9,4.1,12.3,12.7,12.3,19.5c0,1.6-0.2,3.1-0.5,4.6c1,1.5,2.1,2.9,3.1,4.4
		c24.8,33.5,48.1,49.5,76.9,63.1c1.1-3,2.3-6,3.4-9.1c-35-15.4-72-58.5-91.4-107.1c-2.4-5.9-4.4-11.7-6.3-17.4
		c-1.7,0.8-3.4,2.7-5.8,6.8l-1.2,2.2l-1.2,2.2l-2.5,0.3l-2.2,0.3c0.2,0.5,0.4,1.1,0.6,1.7c1.6-1.1,3.6-1.8,5.7-1.8
		c5.5,0,10,4.5,10,10c0,5-3.7,9.1-8.4,9.9c1.4,3.1,2.9,6.3,4.5,9.5L196.3,233.3z"/>
	<circle class="st0" cx="158.2" cy="359.8" r="6.2"/>
	<path class="st0" d="M148.2,361.9l-5.4,1c-3.3,0.6-6.1,1.5-8.2,2.7c4.2,4.8,11.3,11.7,22.5,18.8c32.7,20.8,75.4,28.6,107.1,31.3
		c0.8-1.7,1.3-3,1.6-3.7c0.6-1.6,3.7-13.1,6.4-23.3c-43.9-7.7-77.6-27.2-98.4-42.6c-12.8-9.4-22.2-18.3-28.3-24.5
		c-1.3,5.7-0.2,13.5,4.9,28.1l0.9,2.5c1.8-1.7,4.3-2.7,6.9-2.7c5.7,0,10.2,4.6,10.2,10.2s-4.6,10.2-10.2,10.2
		C153.3,370,149.2,366.5,148.2,361.9z"/>
	<path class="st0" d="M173.5,219.9c-1.1,1.1-1.7,3.1-1.7,5.1c0,2.4,0.9,4,1.6,4.7c2,1.9,7.2,3.9,16.1,3.9c0.6,0,1.2,0,1.9,0
		c-1.7-3.5-3.3-6.8-4.7-10.1c-4.1-1.3-7.1-5.1-7.1-9.6c0-1.7,0.5-3.4,1.2-4.8c-0.5-1.4-1.1-2.9-1.5-4.2c-1,0.4-1.8,0.8-2.2,1.4
		c-0.9,1-1.2,3-0.9,5.8l0.2,2.3l0.2,2.3l-1.6,1.6L173.5,219.9z"/>
	<circle class="st0" cx="610.9" cy="214" r="6"/>
	<path class="st0" d="M612.6,203.5l-1.2-2.2l-1.2-2.2c-2.4-4.2-4.1-6-5.8-6.8c-1.8,5.6-3.9,11.4-6.3,17.4
		c-17.6,44.1-49.6,83.6-81.5,102.1l4.3,8.8c24-12.6,44.5-28.5,66.1-57.8c1.1-1.4,2.1-2.9,3.1-4.4c-0.3-1.5-0.5-3-0.5-4.6
		c0-6.7,3.3-15.4,12.3-19.5l1.2-0.5l1.2-0.5l0.6,0c1.6-3.3,3.1-6.4,4.5-9.5c-4.8-0.8-8.4-4.9-8.4-9.9c0-5.5,4.5-10,10-10
		c2.1,0,4.1,0.7,5.7,1.8c0.2-0.6,0.4-1.1,0.6-1.7l-2.2-0.3L612.6,203.5z"/>
	<circle class="st0" cx="642.3" cy="359.8" r="6.2"/>
	<path class="st0" d="M650.1,349.7c5.1-14.5,6.2-22.3,4.9-28.1c-6,6.2-15.5,15.1-28.3,24.5c-18.7,13.8-47.9,31-85.5,39.9l2,29
		c30.8-3.2,69.9-11.3,100.3-30.7c11.2-7.1,18.3-14,22.5-18.8c-2.1-1.2-4.8-2.1-8.2-2.7l-5.4-1c-1,4.6-5.1,8.1-10,8.1
		c-5.7,0-10.2-4.6-10.2-10.2s4.6-10.2,10.2-10.2c2.7,0,5.1,1,6.9,2.7L650.1,349.7z"/>
	<path class="st0" d="M613.8,223.6c-1.4,3.3-3,6.6-4.7,10.1c0.6,0,1.3,0,1.9,0c8.9,0,14.2-2,16.1-3.9c0.7-0.7,1.6-2.3,1.6-4.7
		c0-2.1-0.6-4-1.7-5.1l-1.6-1.6l-1.6-1.6l0.2-2.3l0.2-2.3c0.2-2.8-0.1-4.7-0.9-5.8c-0.5-0.6-1.2-1-2.2-1.4c-0.5,1.3-1,2.7-1.5,4.2
		c0.8,1.4,1.2,3.1,1.2,4.8C620.9,218.5,617.9,222.3,613.8,223.6z"/>
	<path class="st0" d="M394.4,505.7c-6.9-5.9-17.6-10.1-35-14.7c-23.9-6.3-34.1-26.9-36-31.2c2.2,6.4,9.7,45.7,38.7,47.5
		c10.7,0.7,18.9,2,25,3.5C389.4,509,391.8,507.3,394.4,505.7z"/>
	<path class="st0" d="M511.3,573.8c0-41.4-33.6-75-75-75c-41.4,0-75,33.6-75,75s33.6,75,75,75C477.7,648.8,511.3,615.2,511.3,573.8z
		 M504.2,570.5c0.1,1.1,0.1,2.2,0.1,3.4c0,15.5-5.2,29.7-13.9,41.2l-0.7-4l8.8-33.3L504.2,570.5z M491.1,533.6l-9.5-0.9l-26.3-19
		l-4.8-6.4C467.1,510.8,481.4,520.4,491.1,533.6z M434.6,524.4l20-7.5l24.4,17.6v22.8l-22.6,6.7l-22-15.7L434.6,524.4z M413.5,509.8
		l-3.4,4.8l-22.8,20.2l-7.5,1.3C387.8,524,399.7,514.7,413.5,509.8z M431.6,524.6l-0.2,23.4l-20.6,17.9l-22.7-7.9l0.8-20.6
		l21.6-19.1L431.6,524.6z M381.5,614c-7.8-10.6-12.6-23.6-13.1-37.6l2.4,1.8l10.8,34.8V614z M383.9,610.7l-10.1-32.8l13.8-17
		l22.5,7.8l8.8,26.4L405,616.4L383.9,610.7z M436.3,641.8c-5.4,0-10.6-0.7-15.7-1.8l33.1-0.4l0,0C448.2,641,442.3,641.8,436.3,641.8
		z M451.5,636.5L451.5,636.5l-32.4,0.5l-11.5-19l13.7-21h27.3l14.4,18.1L451.5,636.5z M466,614.1l-15-18.9l7.3-28.6l21.8-6.4
		l15.4,17.5l-7.9,29.8L466,614.1z"/>
	<path class="st0" d="M332.2,172.5c0.1,0,0.3,0,0.4,0c11.6,0,34.6,6.2,51.7,16.2c7.7,4.5,27.9,15,50.5,15c14.9,0,28.1-4.5,39.3-13.2
		c12.8-10.1,21-24.2,23.9-40.9c2.2-12.5,0.5-22.1,0.5-22.5l-0.1-0.6l-0.2-0.5c-1.6-4.3-6.9-11.8-16.2-12.4c-0.5,0-1,0-1.4,0
		c0,0,0,0,0,0c-10.4,0-17.9,7.1-19.1,14c-0.1,0.6-0.2,1.4-0.3,2.4c-0.9,7.7-3.6,31.2-18.9,34c-2.5,0.5-5,0.7-7.4,0.7
		c-12.9,0-24.4-6.1-36.5-12.5c-3-1.6-6-3.2-9.1-4.7c-12.7-6.3-35-13.6-56.2-13.6c-7.3,0-13.9,0.9-19.5,2.7
		c-14.2,4.6-25.6,11.6-33.8,20.8c-6.9,7.8-11.4,17-13.5,27.5c-1.3-4.1-5.2-7-9.7-7c-5.6,0-10.2,4.6-10.2,10.2s4.6,10.2,10.2,10.2
		c3.6,0,6.7-1.8,8.5-4.6c-0.3,4-0.3,8.3,0,12.6c0.7,8.9,2.9,16.4,5.9,22.7c-4.7,1-8.3,5.1-8.3,10.1c0,5.7,4.6,10.3,10.3,10.3
		c3.7,0,7-2,8.8-5c2.5,2.5,5,4.7,7.4,6.4c5.8,4.3,11.9,7.3,17.7,9.4c-0.6,3.5-1.1,7.3-1.4,11.1c-0.6,6.9,2,13,4.9,17.7l-1.2,2.6
		l-0.1,0.1l-0.1,0.2c-0.6,1.6-15.8,39.4-20.2,53.8c-2.1,6.9-6,21.7-9.7,36c-3.5,13.3-7.9,30-8.8,32.2c-1.5,3.8-11.3,25-16.2,35.7
		l-0.3,0.7l-0.1,0.7l-12,63.3l-0.5,2.4l1.4,2l43,64.3l0.6,0.8l0.8,0.6l21.7,16.3l1.2,0.9l1.4,0.2l31.3,5.3l4,0.7l2.1-3.5l9-14.7
		l0.1-0.2c-0.7-3.7-1.2-7.4-1.4-11.2L352,569c-0.6-1.3-1.8-2.2-3.2-2.4l-20.8-3.1c-0.2,0-0.3,0-0.5,0c-1.7,0-3.2,1.4-3.2,3.2
		c0,1.5,1.1,2.8,2.6,3.1L344,573c1.3,0.2,2.3,1,2.9,2.2l5.8,11.5l-9,14.7l-31.3-5.3l-21.7-16.3l-32.3-48.3c7.8,1.1,23,0.9,35.6-13.1
		c17.7-19.7,36-5.7,36-5.7c-13.7-13.7-32.3-16-42.7-0.3c-7.7,11.7-22.9,16-30.1,17.4l-9.6-14.4l6.7-35.6c4.9,5.2,18.3,16.7,36.9,10
		c23.7-8.5,38,12.9,38,12.9s-7-24.3-26-25.7c-18.5-1.3-18.1,14.5-48.7,1.4l5-26.4c0,0,14.3-31,16.3-36c0.6-1.5,2.1-6.7,4-13.8
		l6.3,1.1l-7,2.1l7.4,1.2l-7.6,2.1l7.8,1.3l-7.2,2.6l7.6,0.9l-7.1,2.7l7.8,0.5l-6.8,2.8l7.3,0.4l-6.1,3.1l7-0.1l-5.7,3.4l7.4-0.6
		l-5.6,4.1l7-1.3l-4.9,4.6l6.9-2.1l-5.1,5.2l7.2-2.7l-4.6,5.4l6.4-2.8l-4.2,5.8l6.6-3.4l-3.8,6.1l6.1-4.1l-3.1,6.4l5.6-4.1l-2.5,6.3
		l5.3-4.8l-2.1,6.7l4.9-4.9l-1.6,6.8l4.8-5.5l-1.5,6.8l4.5-5.6l-1,7.2l4.1-5.9l-1.2,7.3l4.4-5.5l-0.8,6.4l4-5.6l-0.8,6.8l3.8-5.7
		l-0.3,7l3.8-6.5l0.2,4.7c-1.3-0.9-2-1.5-2-1.5s0.7,1.4,2.1,3.6l0,1.1l0.3-0.6c4.9,7.4,17.5,23,39.2,28.3
		c15.3,3.7,23.6,8.6,27.9,12.4c1.9-1,3.9-1.8,5.9-2.6c-5.4-17.8-20.6-18.1-35.5-21.1c-11.4-2.3-25.9-11.3-34-16.7l1.8-5.4l1.3,6.7
		l2.3-6l1,7.3l2.2-7l1.2,8l2.2-7.2l1.7,7.7l1.7-7.5l1.8,7.2l1.7-6.8l1.8,7.2l1.7-7.7l1.8,7.3l0.8-7.3l2.8,6.7l0.7-7l3.2,4.3v-5.7
		c-33-13-56-21.3-67-51s8-79,8-79l-7.4,0.1l3.8,5.1l-6.1-0.3c5.7-15.5,13.2-34.2,14.3-36.9c2.2,2.5,4,3.9,4,3.9
		c-7.8,15-1.2,20-1.2,20c5.7-11.6,12.3-19.7,13.9-21.6c-2.4-0.3-9.2-1.6-14.4-7l0,0c-1.5-1.6-2.8-3.5-3.9-5.8l0,0
		c-1.5-3.3-2.5-7.4-2.5-12.6c0-3.6,0.2-6.9,0.6-9.8c0.1-0.5,0.1-1,0.2-1.5c0-0.1,0-0.1,0-0.2c0.1-0.5,0.1-0.9,0.2-1.3
		c0-0.1,0-0.2,0-0.2c0.1-0.4,0.2-0.8,0.2-1.3c0-0.1,0-0.1,0-0.2c0.1-0.4,0.2-0.8,0.3-1.2c2.9-12.2,9.1-16.2,13.4-14
		c0.4,0.2,1,0.6,1.6,1.2l-5.8,0.3l7.4,1.6l-6.4,0.7l8,1.4l-7.8,0.8l9.2,1.8l-8.2,1l10.1,1.5l-8.4,1l9.6,1.1l-8.4,1l10.6,1.2
		l-9.2,1.1l11,1.4l-9.4,1.2l10.6,0.2l-8.8,2h10.2l-8,2.7l9.3-0.7l-7,3.2l8.3-0.8l-5.7,3.3l8-1.3l-6,3.8l7.8-1.7l-5,4.2l7.3-2.2
		l-4.5,3.8l6.8-0.8c-9.5,5.8-12.7,17-12.7,17l19.7-16.8c0,0,7.3,0.8,12.5-3c5.2-3.8,13-9.2,22.3-9.3c9.3-0.2,13.3,5.2,13.3,5.2
		s4-5.3,13.3-5.2c9.3,0.2,17.2,5.5,22.3,9.3c5.2,3.8,12.5,3,12.5,3l19.7,16.8c0,0-3.2-11.2-12.7-17l6.8,0.8l-4.5-3.8l7.3,2.2l-5-4.2
		l7.8,1.7l-6-3.8l8,1.3l-5.7-3.3l8.3,0.8l-7-3.2l9.3,0.7l-8-2.7h10.2l-8.8-2l10.6-0.2l-9.4-1.2l11-1.4l-9.2-1.1l10.6-1.2l-8.4-1
		l9.6-1.1l-8.4-1l10.1-1.5l-8.2-1l9.2-1.8l-7.8-0.8l8-1.4l-6.4-0.7l7.4-1.6l-5.8-0.3c0.6-0.5,1.2-0.9,1.6-1.2c5.8-3,15,5.2,15,29.8
		c0,8.3-2.5,13.9-5.8,17.7c-1.5,1.7-3.1,3-4.7,4l0,0c-4.2,2.7-8.6,3.5-10.3,3.7c1.6,1.9,8.2,10,13.9,21.6c0,0,6.5-5-1.2-20
		c0,0,0.1-0.1,0.2-0.2l13.8,28.3l-5.5-0.1c0,0,19,49.3,8,79s-34,38-67,51v5.7l3.2-4.3l0.7,7l2.8-6.7l0.8,7.3l1.8-7.3l1.7,7.7
		l1.8-7.2l1.7,6.8l1.8-7.2l1.7,7.5l1.7-7.7l2.2,7.2l1.2-8l2.2,7l1-7.3l2.3,6l1.3-6.7l2.2,6.5l0.8-7.2l2.7,6.5l0.3-7.8l3.8,6.5
		l-0.3-7l3.8,5.7l-0.8-6.8l4,5.6l-0.8-6.4l4.4,5.5l-1.2-7.3l4.1,5.9l-1-7.2l4.5,5.6l-1.5-6.8l4.8,5.5l-1.6-6.8l4.9,4.9l-2.1-6.7
		l5.3,4.8l-2.5-6.3l5.6,4.1l-3.1-6.4l6.1,4.1l-3.8-6.1l6.6,3.4l-4.2-5.8l6.4,2.8l-4.6-5.4l7.2,2.7l-5.1-5.2l6.9,2.1l-4.9-4.6l7,1.3
		l-5.6-4.1l7.4,0.6l-5.7-3.4l5.9,0.1l0.3,4c0,0-14,22-17.5,32.5c-0.1,0.3-0.2,0.6-0.3,0.9l-0.9-0.4c-22,21.3-59.7,25-59.7,25
		c37,15.3,53.7-3.8,53.7-3.8l0,0c-0.9,2.9-1.8,5.9-2.7,8.7c-11.9,12.2-24.5,13.4-35.6,11.3c4.7,2.2,9.2,4.8,13.3,7.8
		c10.3-1.2,16.4-6.2,20.1-11.1c-1.1,4.3-2,8.2-2.4,11l-6.7,9.8c1.4,1.5,2.8,3,4.1,4.6l7.5-11l0.8-1.2l0.2-1.4
		c1.3-9.8,9.2-33.4,13-44.8c0.5-1.3,0.9-2.5,1.2-3.6c2.7-8,13.1-25.2,16.9-31.2l1.1-1.7l-0.1-2l-1.7-24.6l0.1,0l-0.1,0l-0.2-3.4
		l0.2,0l-0.2,0l-2.6-37.3l-0.1-1.2l-0.5-1l-31.7-65.3c4-4.8,9.1-12.8,8.3-22.3c-1.2-15.5-4.9-29.5-13-33.2
		c-5.2-2.4-9.8,0.6-19.6,11.2c-11.3-7-30-28.1-36.6-36l-1.1-1.3l-1.6-0.6c-8.3-2.9-16.9-6.4-17-6.4l-2.2-0.9l-2.2,0.8l-6.8,2.6
		l-2.8,0.6l-7.4-3.1l-3.2-1.3l-2.5,1.9c-1.9,1-10.4,3.9-17.4,6.1l-2.6,0.8l-1.1,2.5c-0.7,1.7-2,3.7-3.7,5.9l-5.8-0.2
		c-2.1,0.2-20.2,2.2-23.7,2.9c-1.3,0.3-5.4,1.1-10.5,1.1c-5.2,0-12.4-0.9-17.4-5.3c-8.8-7.9-11.2-17.7-7.3-30.1
		C307.8,181.2,318.6,172.7,332.2,172.5z M256.5,194.2c-3.4,0-6.2-2.8-6.2-6.2s2.8-6.2,6.2-6.2s6.2,2.8,6.2,6.2
		S259.9,194.2,256.5,194.2z M336.2,455.5l0.7,5.7c-0.9-0.6-1.7-1.1-2.4-1.6L336.2,455.5z M280.1,401.5c0.2-0.9,0.5-1.8,0.7-2.7
		l5.5,1.1L280.1,401.5z M281.1,397.9c0.2-0.7,0.4-1.4,0.6-2.2l4.8,0.9L281.1,397.9z M281.9,394.9c0.2-0.8,0.4-1.6,0.6-2.4l4.2,1.5
		L281.9,394.9z M282.9,391.1c0.1-0.5,0.3-1.1,0.4-1.6l3.4,0.8L282.9,391.1z M283.7,387.9c0.2-0.6,0.3-1.2,0.5-1.9l3.2,0.9
		L283.7,387.9z M284.6,384.5c0.1-0.5,0.3-1,0.4-1.4l2.7,0.8L284.6,384.5z M285.5,381.3c0.1-0.5,0.3-1,0.4-1.5l2.6,0.8L285.5,381.3z
		 M286.4,377.8c0.1-0.4,0.2-0.9,0.4-1.3l2.6,0.7L286.4,377.8z M287.3,374.4c0.1-0.5,0.2-0.9,0.4-1.4l2.3,0.8L287.3,374.4z
		 M288.2,370.9c0.1-0.4,0.2-0.8,0.3-1.2l2.4,0.8L288.2,370.9z M289.1,367.6c0.1-0.4,0.2-0.9,0.3-1.3l2.5,0.7L289.1,367.6z
		 M290,364.2c0.1-0.5,0.3-1,0.4-1.4l2.3,0.8L290,364.2z M290.9,360.8c0.1-0.5,0.2-0.9,0.4-1.3l2.4,0.9L290.9,360.8z M291.8,357.7
		c0.2-0.6,0.3-1.1,0.4-1.6l2.7,1.2L291.8,357.7z M292.7,354.2c0.2-0.6,0.3-1.1,0.5-1.7l2.9,1.3L292.7,354.2z M293.6,350.9
		c0.2-0.7,0.4-1.3,0.5-1.9l3.3,1.8L293.6,350.9z M294.6,347.5c0-0.1,0-0.1,0-0.2c0.2-0.5,0.3-1.1,0.5-1.7l3.5,1.8H294.6z
		 M295.7,344.1c0.2-0.6,0.4-1.3,0.7-2l3.7,2.1L295.7,344.1z M296.8,340.9c0.3-0.8,0.6-1.6,0.9-2.5l3.7,2.8L296.8,340.9z M298,337.5
		c0.3-0.7,0.5-1.5,0.8-2.3l4.3,3L298,337.5z M304.2,334.9l-5.1-0.6c0.3-0.8,0.6-1.5,0.9-2.3L304.2,334.9z M532.7,422.4l-4.9-2.5
		l4.7-0.3L532.7,422.4z M532.4,418.4l-4.2-1.7l4-0.3L532.4,418.4z M532.2,414.7l-3.2-1.2l3.1-0.4L532.2,414.7z M531.9,410.9
		l-2.6-0.9l2.6-0.4L531.9,410.9z M531.6,407.2l-2.3-0.6l2.2-0.4L531.6,407.2z M531.4,403.8l-1.7-0.5l1.6-0.3L531.4,403.8z
		 M531.2,400.4l-1.5-0.4l1.4-0.3L531.2,400.4z M530.9,397l-1.4-0.3l1.4-0.3L530.9,397z M530.8,394.3l-1.4-0.3l1.4-0.5L530.8,394.3z
		 M530.5,390.6l-1.2-0.2l1.2-0.3L530.5,390.6z M530.3,387.4l-1.7-0.4l1.7-0.5L530.3,387.4z M530.1,384.2l-1.8-0.4l1.7-0.5
		L530.1,384.2z M529.8,381.1l-2.3-0.5l2.2-0.7L529.8,381.1z M529.6,377.8l-2.9-0.6l2.8-0.8L529.6,377.8z M529.4,374.6l-3.4-0.7
		l3.3-1.2L529.4,374.6z M529.2,371.2l-4.1-0.7l4-1.3L529.2,371.2z M528.9,368l-4.9-1l4.7-1.3L528.9,368z M528.7,364.9l-5.4-1.3
		l5.1-1.8L528.7,364.9z M528.4,361.4l-6.1-1l4.8-1.8L528.4,361.4z M526.8,358.1l-5.7-0.9l4.4-1.9L526.8,358.1z M525.1,354.4
		l-5.1-0.6l4-1.8L525.1,354.4z M523.4,350.9l-4.9-0.2l3.8-2L523.4,350.9z M521.7,347.5h-4.4l3.5-1.8L521.7,347.5z M520.1,344.2
		l-4.1,0.1l3.3-1.9L520.1,344.2z M518.5,341l-3.8,0.3l2.9-2.2L518.5,341z M516.9,337.6l-4,0.6l3.2-2.2L516.9,337.6z M515.4,334.5
		l-3.6,0.4l2.8-1.9L515.4,334.5z M513.8,331.3l-4.2,0.2l2.6-3.5L513.8,331.3z M273,245.3c-3.5,0-6.3-2.8-6.3-6.3
		c0-3.5,2.8-6.3,6.3-6.3c1.8,3.2,3.9,6,6,8.5C278.1,243.6,275.7,245.3,273,245.3z M379,217.3c0,0,17-5.3,19-6.8l5,2.1l0.8,7.3
		c-1.6-0.9-5.9-3.3-8.1-4.4c-2.8-1.4-4.6,0.4-6.4,1.9s-9.6,7-17.2,17.1c0,0,16.8-11.8,18.6-12.4s4.2-2.4,7.9-0.5
		c2.6,1.3,4.7,2.5,5.7,3.1l0.7,6.8c-2-0.8-7.2-2.8-9.2-3.6c-2.5-1-5.6-0.1-7.9,1s-11.1,6.1-21.5,15.9c0,0,18.9-10,22.1-11.1
		s8.3-2.5,16.9,2l0.7,7.2c-1.8-0.6-7.9-2.8-11.6-3.8c-4.4-1.2-11.5,3.6-21.4,12.6c0,0,15.6-7.9,18.4-8.4c2.4-0.4,12.3,2.2,15,2.9
		l0.2,1.7h3.4l0.1-1.5l13.4-0.1c8.4,2,18.9,5.6,18.9,5.6c-8.2-7.9-21.2-9.9-23.8-9.5c-2,0.3-6.6,0.9-8.3,1.2l0.4-6.7h14.9
		c7.6,1.6,23.4,7.9,23.4,7.9c-19.8-15.2-24-12.9-27.5-12.9c-2.7,0-8.2,0.2-10.5,0.3l0.4-6.4l13.3-1.4c5.8,2.2,19.4,12.2,19.4,12.2
		c-4.8-7.2-12.6-13.6-15.6-16s-4.1-2.4-5.9-1.9c-1.4,0.4-8.2,1.6-10.9,2.1l0.5-7.7l7.2-2.8c0,0,8.8,3.5,17.2,6.5
		c0,0,22.4,27,37.2,36.7c-0.5,0.6-1.1,1.2-1.7,1.9c0,0,0,0,0,0c0,0-11.6,13.4-16.1,12.8c-0.5-0.1-0.9-0.1-1.4-0.2l1.2-1.4
		c0,0-1.4-0.1-3.8,0.8c-0.2,0-0.3-0.1-0.5-0.1l2.9-2.1c0,0-3,0.5-4.8,1.5c0,0-0.1,0-0.1,0l3.2-2.7c0,0-2.9,0.3-5.5,1.9
		c0,0,0,0-0.1,0l3.7-3.1c0,0-3.3,0.6-5.4,2.3c0,0,0,0,0,0l3.3-3.3c0,0-3,0.9-4.8,2.6c0,0,0,0,0,0l2.9-3.4c0,0-2.5,0.7-4.3,2.7
		c0,0,0,0,0,0l2.5-3.6c0,0-2.3,1-4.1,2.7c0,0,0,0,0,0l2.2-3.6c0,0-2.2,0.3-4.2,2.5c0,0,0,0-0.1,0l2.1-3.7c0,0-1.9,0.8-4.1,2.8
		c0,0,0,0-0.1,0l2.4-3.8c0,0-3.3,1.5-4.4,3.1c0,0,0,0,0,0l2-3.8c0,0-2,0.2-3.8,3.3c0,0,0,0,0,0l1.7-4c0,0-1.3,0.1-3.7,3.5l1.4-4.2
		c0,0-2.4,1.5-3.7,3.7c0,0,0,0-0.1,0l1.5-4.5c0,0-2.6,2.1-3.4,4.1c0,0,0,0-0.1,0l0.8-4.7c0,0-1.8,2.4-2.7,4.4c0,0-0.1,0-0.1,0
		l0.5-4.7c0,0-1.6,2.1-2.5,4.4v-4.9l-1.9,4.7c0,0-0.1,0-0.1,0l-0.4-5.1l-1.3,4.9c-0.1,0-0.1,0-0.2,0l-0.9-5.1l-1.1,4.9
		c-0.1,0-0.1,0-0.2,0l-0.7-4.8l-1.3,4.7c0,0-0.1,0-0.1,0l-1.1-5l-1.2,4.9c-0.1,0-0.1,0-0.2,0l-1.4-5.2l-1.3,5.1c0,0-0.1,0-0.1,0
		l-1.3-5.1l-1.3,5.1c0,0-0.1,0-0.1,0l-1.3-5.1l-1.4,5.2c-0.1,0-0.1,0-0.2,0l-1.2-4.9l-1.1,5c0,0-0.1,0-0.1,0l-1.3-4.7l-0.7,4.8
		c-0.1,0-0.1,0-0.2,0l-1.1-4.9l-0.9,5.1c-0.1,0-0.1,0-0.2,0l-1.3-4.9l-0.4,5.1c0,0-0.1,0-0.1,0l-1.9-4.7v4.9
		c-0.9-2.3-2.5-4.4-2.5-4.4l0.5,4.7c0,0-0.1,0-0.1,0c-0.9-2-2.7-4.4-2.7-4.4l0.8,4.7c0,0,0,0-0.1,0c-0.8-2-3.4-4.1-3.4-4.1l1.5,4.5
		c0,0,0,0-0.1,0c-1.3-2.2-3.7-3.7-3.7-3.7l1.4,4.2c-2.3-3.4-3.7-3.5-3.7-3.5l1.7,4c0,0,0,0,0,0c-1.7-3-3.8-3.3-3.8-3.3l2,3.8
		c0,0,0,0,0,0c-1.1-1.6-4.4-3.1-4.4-3.1l2.4,3.8c0,0,0,0-0.1,0c-2.2-2-4.1-2.8-4.1-2.8l2.1,3.7c0,0,0,0-0.1,0
		c-1.9-2.3-4.2-2.5-4.2-2.5l2.2,3.6c0,0,0,0,0,0c-1.8-1.7-4.1-2.7-4.1-2.7l2.5,3.6c0,0,0,0,0,0c-1.9-2-4.3-2.7-4.3-2.7l2.9,3.4
		c0,0,0,0,0,0c-1.8-1.7-4.8-2.6-4.8-2.6l3.3,3.3c0,0,0,0,0,0c-2.1-1.7-5.4-2.3-5.4-2.3l3.7,3.1c0,0,0,0-0.1,0
		c-2.5-1.5-5.5-1.9-5.5-1.9l3.2,2.7c0,0-0.1,0-0.1,0c-1.8-1-4.8-1.5-4.8-1.5l2.9,2.1c-0.2,0-0.3,0.1-0.5,0.1
		c-2.4-0.8-3.8-0.8-3.8-0.8l1.2,1.4c-0.5,0.1-0.9,0.2-1.4,0.2c-4.5,0.7-16.1-12.8-16.1-12.8c0,0,0,0,0,0c-0.1-0.2-0.3-0.3-0.4-0.5
		C357.1,243.4,374.8,227,379,217.3z M341,229.6c0.2,0,0.4-0.1,0.5-0.1c3.3-0.7,23.2-2.8,23.2-2.8l-26.4,22.7c-1.6-1.7-3-3.2-4.3-4.5
		C334.3,242.2,336,234.8,341,229.6z M274.7,180.3c12.5,0.7,20.8,4.7,24.8,7.3c-1.2,3.8-1.9,7.4-2,11c-13.1-3.5-23.1,8.7-23.1,8.7
		c9-3.7,18.6-2.3,23.7-1c0.9,4.3,2.7,8.4,5.6,12.2l-0.6,0.1c-18,1.9-13.7,21.1-13.7,21.1c9.5-12.5,15.1-16.1,17.9-17
		c0.4,0.4,0.8,0.8,1.3,1.2c1.4,1.3,2.9,2.3,4.6,3.2c-12.6,7.1-9.4,19.7-9.4,19.7c7.2-9.8,12.9-14.7,16.3-17.1
		c5,1.2,10.1,1.2,14.1,0.9c-1,1.9-3.1,7.3-1,13.4c-6.5-6.3-10.4-7.9-14.6-6c-4.9,2.3-8.2,8.4-10.3,16.2c-6.7-2.5-13.6-6.3-19.7-11.8
		c-0.1-0.1-0.1-0.1-0.2-0.2c-1.4-1.2-2.7-2.5-3.8-3.9c-0.1-0.1-0.2-0.3-0.4-0.4c-0.1-0.1-0.2-0.2-0.3-0.4c-0.2-0.3-0.5-0.6-0.7-0.9
		c0,0,0,0,0,0c-1.8-2.2-3.3-4.4-4.5-6.3c0,0-0.1,0-0.1-0.1c-0.6-1-1.2-2-1.7-3.1c-0.9-1.6-1.3-2.7-1.3-2.7l0,0
		c-2.4-5.5-4.1-11.7-4.6-18.8c-3-40.5,23.2-56.8,44.2-63.5s53.5,1.8,71.2,10.5s35,21,56.8,17s23.2-37,24-41.2s6.2-9.5,14.2-9
		s11,8.5,11,8.5s0.8,4.6,0.5,11.5c-13.7-3-25.7,5.8-25.7,5.8c14.1,0,21.5,5.3,23.9,7.2c-0.7,3-1.7,6.2-3,9.4
		c-6.6-5.3-18.2-2.6-18.2-2.6c9.6,1.4,14.2,5.3,16,7.4c-2.1,4.1-4.8,8.1-8.3,12c-7.2-11.3-26.1-9.4-26.1-9.4
		c11.8,3.4,17.3,11.4,19.5,15.6c-0.3,0.2-0.5,0.5-0.8,0.7c-4.1,3.2-8.3,5.6-12.6,7.5c-1.8-8.6-11-13.8-11-13.8
		c4.1,4.1,5.7,11.4,6.3,15.6c-3.8,1.2-7.7,2-11.5,2.4c2.1-16.7-10.8-23.3-10.8-23.3c6.6,6.8,4.9,18.8,3.8,23.6
		c-4.2,0-8.3-0.4-12.3-1.1c3.6-7.3,0.1-17.2,0.1-17.2c0.7,7.5-3.4,13.3-5.8,16c-1-0.2-1.9-0.5-2.9-0.7c6.3-13.8-3.7-25-3.7-25
		c1.5,12.2-1.9,19.5-3.9,22.6c-4.7-1.7-9.1-3.6-12.9-5.6c4.4-8.2,2.1-17.5,2.1-17.5c-0.5,6.8-4.7,12.1-7.3,14.7
		c-0.2-0.1-0.4-0.3-0.7-0.4c-2.2-1.3-4.5-2.5-6.9-3.7c13-11.4,1.9-28.5,1.9-28.5c-0.2,15.3-6.3,22.3-9.6,25c-2.4-1-4.7-1.9-7.1-2.7
		c1.1-2.5,2.5-6.9,2.1-12.2c-0.7-8.7-15.7-18.7-15.7-18.7c7.6,14.4,5.1,23.5,3,27.5c-2.6-0.7-5.2-1.3-7.6-1.9
		c6.3-10.4-4.4-23-4.4-23c3.3,9.4,0.8,18.4-0.6,22.1c-1-0.2-2-0.3-3-0.4c4.1-15.4-10.4-23-10.4-23c5.5,7.2,4.1,17.6,3,22.5
		c-3.6,0.1-7.6,0.7-11.5,2c-0.5-2.8-2-5.6-6.6-10.5c-5-5.3-18.3-3-18.3-3c13,3.9,16,13.2,16.8,17.2c-1.1,0.7-2.2,1.4-3.2,2.1
		l0.1-0.3c-6-7-23.3-4.3-23.3-4.3c11.2,1.8,17.1,5.4,19.8,7.7c-1.1,1.2-2.2,2.4-3.1,3.7l0-0.1C295.3,169.3,274.7,180.3,274.7,180.3z
		"/>
</g>
</svg>
