<?xml version="1.0" encoding="utf-8"?>
<!-- Generator: Adobe Illustrator 22.1.0, SVG Export Plug-In . SVG Version: 6.00 Build 0)  -->
<svg version="1.1" id="图层_1" xmlns="http://www.w3.org/2000/svg" xmlns:xlink="http://www.w3.org/1999/xlink" x="0px" y="0px"
	 viewBox="0 0 800 800" style="enable-background:new 0 0 800 800;" xml:space="preserve">
<style type="text/css">
	.st0{fill:#B21E24;}
	.st1{fill:#040000;}
	.st2{fill:#CB8E51;}
	.st3{fill:#7B391B;}
	.st4{fill:#7A3D15;}
	.st5{fill:#BD7320;}
	.st6{fill:#CC8B51;}
	.st7{fill:#C48C50;}
	.st8{fill:#B4171F;}
</style>
<g>
	<path class="st0" d="M556.9,84c-6.3-3.1-13.6,2-12.9,9l3,29.7l-14.6-3.3L526,50h-65.3v23.9c0,6.1-4.9,11-11,11c-6.1,0-11-4.9-11-11
		V50h-38.2h-1.1h-38.2v23.9c0,6.1-4.9,11-11,11h0c-6.1,0-11-4.9-11-11V50h-65.3l-6.4,69.4l-14.6,3.3l3-29.7c0.7-7-6.5-12-12.9-9
		l-93.7,45.3c0,0,0,77.7,0,289.9c0,204.1,232.3,321.9,250,330.6l0.5,0.3l0.5-0.3c17.7-8.7,250-126.5,250-330.6
		c0-212.2,0-289.9,0-289.9L556.9,84z"/>
	<g>
		<path class="st1" d="M212.7,201c-28.8,8.7-48.5,16.7-55.9,19.9l-2.4,1v2.6v194.6c0,45.9,12.1,91,36,134.1
			c6.5,11.8,14,23.6,22.3,35.1V201z"/>
		<path class="st1" d="M287.4,668.5c27.2,23.3,53.9,41.5,74.7,54.5V173.8c-26.6,1.7-51.8,5.1-74.7,9.3V668.5z"/>
		<path class="st1" d="M436.9,723.6c20.7-12.8,47.4-31,74.7-54.2V182.7c-23-4.1-48.1-7.4-74.7-9.1V723.6z"/>
		<path class="st1" d="M586.3,200.5v389.4c8.7-12,16.6-24.2,23.4-36.6c23.9-43.1,36-88.3,36-134.1v-195v-2.6l-2.4-1
			C635.7,217.4,615.6,209.2,586.3,200.5z"/>
	</g>
	<g>
		<path class="st2" d="M356.8,291.8c13.2,1.4,25.2-2.6,28.4-3.9c0.6-0.2,1-0.6,1.2-1.2c15.9-34.7,5.4-50.5,0.1-55.7
			c-0.9-0.9-2.4-0.3-2.5,1c-0.6,29.9-21.2,51.2-28.1,57.5C355.2,290.3,355.6,291.7,356.8,291.8z"/>
		<path class="st2" d="M626.9,335.4c-11.3-2.5-17.8,4.6-20.4,6.3s-2.5,4-8,4c-5.5,0-3-4.5-3-4.5s5.5,1.8,10.8-2.7
			c5.3-4.5,3.3-8.5,3.3-8.5c-2.5,1-6,2.5-13.1-0.2c-13.4-4.8-25.7-1.7-36,5.5c-10.3,7.1-15.1,15.1-15.8,23.6
			c-0.8,10.5,7.1,17.1,11.1,39c4,21.9-8.3,28.2-8.3,28.2c-13.9-20.3-43.5-11-43.5-11c-7.8,32.2-44.2,42.3-44.2,42.3
			c2.5,11,3.5,17.4,15.1,33.5c11.6,16.1,30.7,22.7,44.8,18.1c14.1-4.6,30.5-6,35,1.3c4.5,7.3-3.2,19.4-15.6,27.2
			c-12.5,7.8-25.4-4.8-25.4-4.8c16.3,8.5,19.6-3.8,18.9-8.6c-0.7-4.8-6.5-10.5-17.8-10.5c-21.3,0.3-23.2,35.9-23.2,35.9h111.6
			c3.7-37.9-3-51-8.3-60.3c-5.3-9.3-28.1-21.9-35.7-29.2c-7.6-7.3-7.5-25.1-7.5-25.1s12.6-5.6,15.6-17.9c3-12.3-2.8-26.9-7-39
			c-4.2-12.1-5-13.9-4-20.3c1-6.3,9.6-5.5,9.6-5.5c5,7.6,9.3,11.5,19.4,13.4c10.1,2,17.6-5,20.9-8.8c3.3-3.8,8.5-11.5,14.3-14.1
			c5.8-2.7,7.3,0,10-1C633.4,341,631.3,336.5,626.9,335.4z"/>
		<path class="st2" d="M412.5,465.6c-0.8,0-1.1,1.1-0.4,1.5c14.5,10,22.6,30.1,22.6,30.1l29.6-14.6c-7.3-16.3-8-23.9-8-23.9
			C432,464.2,418,465.4,412.5,465.6z"/>
		<path class="st2" d="M373.8,443.5c-1,0-1.2,1.4-0.3,1.7c8.4,2.6,18.7,5.5,30.3,16c1.1,1,2.5,1.5,4,1.4
			c16-1.1,106.6-10.1,89.8-68.3c-0.4-1.2-2.1-1.2-2.4,0C491.3,407,471.8,442.8,373.8,443.5z"/>
		<path class="st2" d="M425.4,489.5c-10.5-15.9-28.4-34.9-58.3-42.6c-29.9-7.7-46.3,5-52.5,16.2c-6.2,11.2,6,28.1,19.9,18.2
			s1-17.7,1-17.7c6.5-1.5,17.4,8.5,7.2,20.4s-35.4,6.5-36.9-12c-1.5-18.4,14.4-35.1,58-34.6s87.2-8.2,105.8-20.2
			c18.7-12,27.9-31.4,18.4-52c-4.9-10.6-9-16.8-11.9-20.2c-1-1.2-2.9-0.2-2.5,1.3c2.5,8.3,5.9,24.2,0.9,36.7
			c-7.1,17.6-28.1,26.9-45,28.1c-16.9,1.2-92,0.5-118,12.5c-26.1,12-37.6,33.2-31.5,57.3c6,24.1,32.5,37.2,54.8,34.9
			c22.2-2.3,31-19.8,31-19.8c14.9,1.3,24.2,7.5,29.9,14.1c5.6,6.6,6.8,13.3,2.5,17.6c-4.3,4.3-10,2.2-13.8-1.2
			c-3.7-3.5-4.5-3.7-4.7-1c-0.2,2.7-2.7,16.9-16.4,15.2s-10-14.7-10-14.7c2.2,6.7,9.7,10,13.7,9c4-1,8.7-7.2,5.5-13.9
			c-3.2-6.7-17.4-10.7-29.9-1.7c-12.5,9-5,30.5-5,30.5l94.4-1.2c8.7-5.2,8.5-16.9,7.5-23.2C438.6,519.2,435.9,505.5,425.4,489.5z"/>
		<path class="st2" d="M330.4,518.7c-7.7,0.2-23.6-0.5-34.5-8c-14.9-10.2-27.5-26.4-24.7-48.6c2.8-22.2,19.4-44.8,48.8-48.3
			c27.7-3.3,48.1-5.9,60.8-25.6c0.8-1.3-0.4-2.9-1.8-2.5c-3.2,0.9-7.7,1.9-11.6,1.7c0,0,19.3-4.1,24.3-24.9c0.4-1.5-1.4-2.6-2.6-1.6
			c-2.9,2.4-7.2,5.8-11.5,8.1c0,0,16.2-13.4,10.7-29.6c-5.5-16.2-26.4-15.7-34.6-7c-2.7,3.2,0.7,3,3,2.7c2.2-0.2,10-1.7,10.5,4.7
			c0.5,6.5-9.7,11.2-18.2,4.2c-8.5-7-3.2-14.7,0.5-16.2c3.7-1.5,26.9-5,30.9-15.7c0,0-15.9-8.7-34.1,9c0,0,5.7-21.9,36.6-10.5
			c0,0-1.7,10.2-10,13.9c0,0,13.8,1.5,19.9,14.5c0.5,1.1,2.2,0.9,2.4-0.3c0.7-4,0.7-10.7-5.3-16.9c0,0,11.2-11-2.2-19.9
			c0,0-3.5-6.5-6.7-7.5c0,0-25.6,4-33.9-0.5l5.7-3c0,0,0-7.2-4-10.7s-13.4,12-14.9,14.2c-1.5,2.2-6.7,6.5-6.7,6.5
			s-22.9-6.5-39.8,0.5c-16.9,7-6.7,22.7-6.7,22.7l-13.4-1c0,0-4.2-5.7-20.9-1.7s-12.5,22.9,3.5,24.4c0,0-6.2,3.5-4,7.7
			c2.2,4.2,2.1,4,6.5,1.9c4.4-2.1,14.1-5.9,22.5-2.5c8.5,3.4,9,10.6-0.2,13.9c-9.2,3.4-20.7,2.6-23-2c-1.4-2-3.7,0.4-3.2,8
			c0.5,7.6,5.4,24.2,24.7,23c0,0,7.7-8.5,16.1-9.1c8.3-0.6,20.2,0.7,27-3.6c6.8-4.4,16.7-17.9,0-36.4c0,0,16.6,3.4,18.7,14.6
			c2.1,11.2-0.2,22.3-13.2,25.1c-12.9,2.8-33.7,5.3-50.1,22.1c-16.4,16.8-26.6,32-25.4,59.6c1.2,27.6,16.9,46.5,28.7,51.6
			c0,0-10.9,20.7-32.5,6.1c-0.8-0.6-1.9,0.1-1.8,1.1c0.4,3.7,0.3,10-3.9,11.8c-6,2.5-24.4,7.1-20.6-16.4c0,0,1.7,15.2,12,12.9
			c10.2-2.2,10-14.7,4.2-19.4c-5.7-4.7-20.4-5-26.4,1.5c-6,6.5-9.5,13.7-7.5,30.9h102.3l31.1-26.8
			C332.6,520.5,331.9,518.6,330.4,518.7z"/>
	</g>
	<g>
		<polygon class="st3" points="275.5,323.8 282.1,332.1 278,324 		"/>
		<polygon class="st3" points="265.3,321.8 272,331.8 268.6,323.1 		"/>
		<path class="st4" d="M242.4,333.1c0,0,3.1-5.2,8.2-5.6s10.5,0.9,12.2,6.1c1.7,5.2-1.9,12.6-12.5,13.4c-6.2,1-4.4-1.7-2.2-2.1
			c2.1-0.4,8-1.6,9.8-4.2c1.9-2.6,4.9-8.2-1.2-10s-8.7-0.2-12,4.9C243.6,337.1,241.4,334.5,242.4,333.1z"/>
	</g>
	<g>
		<path class="st5" d="M247.2,337.1c0,0,0.1-4,4.1-4.4c4-0.4,5.9,1.1,6,2.7c0.1,1.6-2,4.7-4.6,4.9S248.2,339.5,247.2,337.1z"/>
		<path class="st5" d="M256.1,377c0,0,8.7,4,16.4,1.2c7.7-2.7,12.7-6.5,14.4-10c0,0,2,5.2,7.5,4c0,0-3,6-1.2,9c0,0-15.9,2.2-21.7,9
			C271.5,390.2,261.8,389.7,256.1,377z"/>
		<path class="st5" d="M319.1,360.3c0,0-2.1,17.7-13.5,22.2C305.6,382.4,326.8,379.2,319.1,360.3z"/>
		<path class="st5" d="M326.8,309.7c0,0,7.3-9.1,15.2-11.7l18.9,4.3c1.3,0.3,1.4,2.1,0.2,2.6c-4.6,1.9-11.7,5.1-14.4,7.9
			c-2.5,2.6-5.1,12.8-6.8,20.1c-0.3,1.5-2.5,1.4-2.8-0.1c-0.5-3.6-1-7.6-1.4-10.1C335,317,330.3,310,326.8,309.7z"/>
		<path class="st5" d="M388.3,244.7c0,0-3,26.9-21.4,42.3c0,0,15.7,2.2,20.2-11.5C391.5,261.9,388.3,244.7,388.3,244.7z"/>
		<path class="st5" d="M375.8,340.4c0,0,0.7,11.7-9.7,14.7c-10.5,3-12.2,1.5-15.7,1c-3.5-0.5-6.5,1.2-4.7,6.5
			c1.7,5.2,1.2,13.7-4.2,19.4c-5.5,5.7-5,8-21.9,13.7c-16.9,5.7,11,21.7,54.5-4c0,0-27.9,9-25.6-5c0,0,20.9,1.2,33.9-12.5
			c0,0-16.2,5.5-20.9,2.2c-4.7-3.2,11-11.5,14.7-14.2C379.8,359.5,383.1,348.9,375.8,340.4z"/>
		<path class="st5" d="M273.7,418.2c0,0-33.5,28.2-6.6,91C267,509.2,223.9,451.1,273.7,418.2z"/>
		<path class="st5" d="M301.9,434.5c0,0-24.2,20.9-9.6,62.4C292.3,496.9,266.7,458.1,301.9,434.5z"/>
		<path class="st5" d="M255.1,544.4c0,0,31.5-2,56.8-16.3l-12.6,15.6L255.1,544.4z"/>
		<path class="st5" d="M370,456.7c0,0,35.2,15.9,59.1,73.7c0,0-10.6,13.6-38.8,14.6c0,0,29.9-0.7,35.9-0.7s10.3-6.6,4.6-24.2
			s-18.1-45.9-58.7-64.5C369.7,454.8,370,456.7,370,456.7z"/>
		<path class="st5" d="M407.7,429.3c0,0,60.5,0.7,79.2-50.3C486.9,379,489.9,431.8,407.7,429.3z"/>
		<path class="st5" d="M494.9,409.3c0,0-13.7,42.3-82.4,44.8C412.5,454.2,490.9,461.9,494.9,409.3z"/>
		<path class="st5" d="M506.6,421.3c0,0-1.7,28.2-33.6,34.2C473,455.5,511.8,459.4,506.6,421.3z"/>
		<path class="st5" d="M468,460.6c0,0,9.7,44.8,62.5,41.6c0,0-20.5,12.3-39.1-1C472.8,488,471.2,472.8,468,460.6z"/>
		<path class="st5" d="M555.6,470.1c0,0,24.2,12.5,38.6,62.8c0,0-6.2,10.7-39.3,12.2H596c0,0,7.7-14.9-2.7-36.1s-28.6-36-36-39.6
			C554.7,468.2,555.6,470.1,555.6,470.1z"/>
		<path class="st5" d="M558.5,350.3c0,0,8.1-15.6,30.9-15.4c7.3,0.3,3.8,4.5,1.2,5.8c-2.7,1.3-3.5,13.4,10,10.5
			c4.8-0.8,3.3,2.2-1.2,4.3c-4.5,2.2-12.1,6-19.9,0.8C571.7,351.2,569.7,345,558.5,350.3z"/>
	</g>
	<g>
		<path class="st1" d="M628.2,330.6l-0.1,0l-0.1,0c-1.9-0.4-3.8-0.6-5.7-0.6c-2.7,0-5.2,0.4-7.3,1.1c-0.1-1.3-0.5-2.4-0.9-3.2
			l-2-4.1l-4.3,1.7l-0.1,0.1c-1.2,0.5-2.3,0.9-3.9,0.9c-1.5,0-3.4-0.4-5.5-1.2l0,0l0,0c-4.8-1.7-9.7-2.6-14.6-2.6h0
			c-8.9,0-17.7,2.9-26,8.7c-11,7.7-17.1,16.8-17.9,27.3c-0.5,6.4,1.6,11.6,4.1,17.5c2.3,5.5,5.2,12.3,7.1,22.8
			c2,10.9-0.6,17-2.9,20.1c-6.9-7.1-16.7-10.9-28.7-10.9c-6.5,0-12,1.1-14.8,1.8c0.2-5.4-0.5-11.1-2.2-17.1c-0.8-2.7-3.2-4.5-6-4.5
			c0,0,0,0,0,0c1.4-8.3,0.1-16.8-3.7-25.1c-4.2-9.2-8.4-16.3-12.6-21.3c-1.2-1.5-3-2.3-4.9-2.3h0c-2,0-4,1-5.2,2.6
			c-1.2,1.6-1.6,3.7-1,5.6c5.4,18,3,28.7,1,33.4c-6.4,15.7-25.6,23.9-40.7,25c-3.3,0.2-8.8,0.4-15.9,0.6
			c-13.6,0.4-31.3,0.9-48.7,2.2c7.9-3.9,14.8-9.5,20.3-18c1.3-2,1.4-4.6,0.2-6.8c-0.1-0.2-0.3-0.4-0.4-0.6
			c4.8-4.3,9.4-10.7,11.6-19.8c0.5-2,0-4-1.2-5.6c-0.7-0.9-1.6-1.6-2.7-2c1.2-3.4,2-7.1,1.8-11.1c2.8-0.2,5.1-2.3,5.6-5.1
			c0.7-3.9,1-11-3.9-17.9c1.7-2.6,3.3-6.5,2.9-11c-0.3-3.3-1.9-8-7.8-12.3c-1-1.7-2.6-4.1-4.5-6c0.1,0,0.1,0,0.2-0.1
			c1.8-0.7,3.2-2,4-3.8c7.3-15.9,10.1-29.9,8.4-41.7c-1.5-10.1-5.9-16.2-9.3-19.6c-1.2-1.2-2.8-1.9-4.5-1.9c-3.5,0-6.4,2.8-6.4,6.3
			c-0.5,24-15.1,42.4-23.1,50.6c-0.8-2.1-2.1-4.3-4-5.9c-1.3-1.1-2.9-1.7-4.6-1.7c0,0,0,0,0,0c-4.9,0-9.7,4.6-17.3,16.2
			c-0.2,0.3-0.3,0.5-0.4,0.7c-0.5,0.7-2.1,2.3-3.8,3.8c-3.8-0.9-11.3-2.3-19.8-2.3c-7.9,0-14.8,1.2-20.6,3.6
			c-6.4,2.6-10.4,6.6-12.1,12c-1.1,3.5-0.9,6.9-0.3,9.8l-3.9-0.3c-2.1-1.5-5.9-3.3-12.4-3.3c-3.5,0-7.4,0.5-11.7,1.5
			c-9.4,2.2-15,9-14.4,17.2c0.3,4.2,2.3,8.3,5.6,11.4c1.4,1.3,3,2.4,4.7,3.3c-1,2.5-0.8,5.1,0.5,7.5c1.2,2.2,2.4,4.4,4.5,5.5
			c-2.1,2.3-3,6.3-2.6,11.8c0.2,2.8,1.1,10.2,5.8,16.8c5,7.1,12.6,10.9,22,10.9c0.4,0,0.8,0,1.2,0c-1.5,1.3-3,2.7-4.5,4.2
			c-17.5,17.8-28,34.6-26.8,63.3c0.7,16.8,6.4,29.2,11.1,36.7c4.3,6.9,9.7,12.6,15.2,16.3c-2.2,2.3-5.7,4.7-10.4,4.7
			c-3.6,0-7.6-1.5-11.9-4.4c-1-0.7-2.2-1.1-3.5-1.1c-0.3,0-0.7,0-1,0.1c-0.8-3.4-2.7-6.6-5.2-8.7c-3.5-2.9-9.2-4.6-15.4-4.6
			c-7.5,0-14,2.4-17.8,6.6c-2.7,2.9-6,7.1-7.9,13.4c-1.6,5.7-1.9,12.5-0.9,21.4l0.5,4.4h4.4h102.3h1.9l1.4-1.2l27.8-24
			c-2.6,10.8,1.4,22.5,1.6,23.3l1.2,3.4l3.6,0l94.4-1.2l1.3,0l1.2-0.7c11.8-7.1,10.8-22.1,9.8-28.2c-1.3-7.9-3.6-15.7-7-23.2
			l28.8-14.2c1.4,2.1,2.9,4.4,4.7,6.8c7.5,10.4,18.3,17.7,29.6,20.4c-4.8,4.3-7.9,10.3-9.8,15.8c-3.4,9.5-3.9,18.8-3.9,19.2
			l-0.3,5.3h5.3h111.6h4.5l0.4-4.5c3.6-37.6-2.4-51.8-8.9-63.2c-3.9-6.8-14.1-14-24-20.9c-5.1-3.6-10-7-12.5-9.4
			c-4.1-3.9-5.5-13.2-5.8-18.6c4.5-2.8,12.8-9.1,15.4-19.6c3.1-12.6-1.7-26.4-6-38.5c-0.4-1.1-0.8-2.2-1.1-3.3l-0.7-2.1
			c-3.5-10.3-3.8-11.2-3.1-15.8c0.1-0.7,1.2-1,2.1-1.2c4.9,6.9,10.2,11.1,21,13.3c1.5,0.3,3,0.4,4.5,0.4c9.6,0,16.8-5.9,21.1-10.9
			c0.8-0.9,1.6-1.9,2.4-3c2.8-3.5,6.6-8.3,10.1-9.9c1.1-0.5,2-0.8,2.8-0.8c0.4,0,0.8,0.1,1.3,0.2c0.7,0.1,1.5,0.3,2.5,0.3
			c1,0,2.1-0.2,3.1-0.6c2.8-1.1,4.5-3.7,4.4-6.7C636.7,335.8,633.1,331.9,628.2,330.6z M495.2,394.2c0.2-0.6,0.7-0.9,1.2-0.9
			c0.5,0,1.1,0.3,1.2,0.9c2.2,7.6,2.6,14.3,1.5,20.3c-2.9,11.7-10.1,20.2-17.7,26.1c-8.8,6.4-19.7,10.9-30.5,14.2
			c-21.7,4.7-34.2,5.7-38.7,5.9c-1.5,0.1-2.9,0.7-3.9,1.8c-0.1,0-0.1,0-0.2,0c-10.2-8.6-21.8-14.9-34.7-18.9
			c0.1-0.1,0.3-0.1,0.4-0.1C471.8,442.8,491.3,407,495.2,394.2z M384.1,232c0-0.9,0.7-1.4,1.4-1.4c0.4,0,0.7,0.1,1,0.4
			c5.3,5.2,15.8,21-0.1,55.7c-0.2,0.5-0.7,1-1.2,1.2c-1,0.4-3,1.1-5.5,1.8c-1.9,0.3-10.9,1.5-19.1,1.5c-1.1,0-2,0-2.9-0.1v-0.1
			c0-0.3,0-1.4-0.2-2.9C365.3,280.5,383.5,260,384.1,232z M331.5,521.5l-31.1,26.8H198c-2-17.2,1.5-24.4,7.5-30.9
			c3.2-3.4,8.7-5,14.2-5c4.8,0,9.5,1.2,12.2,3.5c5.7,4.7,6,17.2-4.2,19.4c-0.7,0.2-1.4,0.2-2,0.2c-8.5,0-10-13.2-10-13.2
			c-2.4,14.9,4.1,18.5,10.7,18.5c3.8,0,7.7-1.2,9.9-2.1c4.2-1.7,4.2-8.1,3.9-11.8c-0.1-0.7,0.5-1.3,1.2-1.3c0.2,0,0.5,0.1,0.7,0.2
			c5.6,3.8,10.5,5.2,14.7,5.2c11.8,0,17.8-11.3,17.8-11.3c-11.8-5.1-27.6-24.1-28.7-51.6c-1.2-27.6,9-42.8,25.4-59.6
			c16.4-16.8,36.7-18.4,50.1-22.1c12.8-3.5,15.3-13.9,13.2-25.1c-2.1-11.2-18.7-14.6-18.7-14.6c16.7,18.4,7.3,32.8,0,36.4
			c-8.6,4.2-18.7,3-27,3.6c-8.3,0.6-16.1,9.1-16.1,9.1c-0.6,0-1.2,0.1-1.8,0.1c-17.8,0-22.3-15.7-22.8-23.1c-0.4-5.9,1-8.6,2.2-8.6
			c0.4,0,0.7,0.2,1,0.7c1.4,2.7,5.9,4.1,11.2,4.1c3.8,0,8-0.7,11.8-2.1c9.2-3.4,8.7-10.6,0.2-13.9c-2.4-1-5-1.3-7.5-1.3
			c-6.2,0-12,2.3-15.1,3.8c-1.9,0.9-2.9,1.5-3.7,1.5c-1,0-1.5-1-2.8-3.4c-2.2-4.2,4-7.7,4-7.7c-15.9-1.5-20.2-20.4-3.5-24.4
			c4.3-1,7.8-1.4,10.6-1.4c8,0,10.3,3.2,10.3,3.2l13.4,1c0,0-10.2-15.7,6.7-22.7c5.9-2.4,12.6-3.2,18.7-3.2
			c11.4,0,21.1,2.7,21.1,2.7s5.2-4.2,6.7-6.5c1.3-2,9.1-14.7,13.6-14.7c0.5,0,1,0.2,1.4,0.5c1.8,1.6,2.8,4,3.4,6.1
			c0.9,3.5,0.4,4.7-1.2,5.6l-5.4,2c1.6,0.9,9.9,2.6,10.8,2.7c2,0.2,4.1,0.3,6.2,0.3c7.2,0,13.7-1.2,18.3-2.5c0,0,0.1,0,0.1,0
			c3.2,1,6.7,7.5,6.7,7.5c13.4,9,2.2,19.9,2.2,19.9c6,6.2,6.1,12.9,5.3,16.9c-0.1,0.7-0.7,1.1-1.3,1.1c-0.4,0-0.9-0.2-1.1-0.7
			c-6-13-19.9-14.5-19.9-14.5c8.2-3.7,10-13.9,10-13.9c-6.4-2.4-11.7-3.3-16.1-3.3c-16.9,0-20.5,13.8-20.5,13.8
			c9.2-8.9,17.7-11.1,24-11.1c6.2,0,10.1,2.1,10.1,2.1c-4,10.7-27.1,14.2-30.9,15.7c-3.7,1.5-9,9.2-0.5,16.2c3,2.4,6.1,3.4,9,3.4
			c5.3,0,9.5-3.5,9.2-7.7c-0.3-4.2-3.7-5.1-6.7-5.1c-1.6,0-3,0.2-3.8,0.3c-0.6,0.1-1.3,0.1-1.9,0.1c-1.7,0-3.1-0.5-1.1-2.9
			c3.6-3.8,9.5-6,15.6-6c7.9,0,16,3.8,19.1,13c5.5,16.2-10.7,29.6-10.7,29.6c4.3-2.3,8.6-5.7,11.5-8.1c0.3-0.3,0.7-0.4,1-0.4
			c1,0,1.8,0.9,1.6,2c-5,20.8-24.3,24.9-24.3,24.9c0.3,0,0.5,0,0.8,0c3.8,0,7.9-0.9,10.9-1.7c0.2,0,0.3-0.1,0.5-0.1
			c1.2,0,2.1,1.4,1.4,2.6c-12.7,19.7-33.1,22.3-60.8,25.6c-29.4,3.5-46,26.1-48.8,48.3c-2.8,22.2,9.7,38.3,24.7,48.6
			c1.4,0.9,2.9,1.8,4.4,2.5c9,5,19.3,7.7,29.5,7.7c0.7,0,1.4,0,2.1,0C331.8,521.1,331.7,521.3,331.5,521.5z M253.6,360.2
			C253.6,360.2,253.6,360.2,253.6,360.2l0.7-0.3c2.6-1.2,7.7-3.3,12.9-3.3c2.1,0,4,0.3,5.6,1c2.5,1,3.3,2.1,3.4,2.4
			c-0.1,0.3-0.9,1.3-3.5,2.2c-3.1,1.1-6.7,1.8-10.1,1.8c-4.5,0-6.5-1.1-6.8-1.4l-0.1-0.2l-0.2-0.3
			C254.9,361.3,254.3,360.7,253.6,360.2z M439.6,525.4c1,6.2,1.2,17.9-7.5,23.2l-94.4,1.2c0,0-7.5-21.6,5-30.5
			c5.2-3.7,10.6-5.2,15.4-5.2c6.9,0,12.5,3,14.4,6.9c3.2,6.7-1.5,12.9-5.5,13.9c-0.5,0.1-1,0.2-1.6,0.2c-4.1,0-10.2-3.2-12.1-9.1
			c0,0-3.7,12.9,10,14.7c0.8,0.1,1.5,0.1,2.3,0.1c11.7,0,13.9-12.8,14.2-15.3c0.1-1.2,0.3-1.9,0.9-1.9c0.7,0,1.8,0.9,3.9,2.9
			c2.2,2.1,5.2,3.7,8.1,3.7c2,0,3.9-0.7,5.6-2.4c4.3-4.3,3.2-11-2.5-17.6c-5.6-6.6-14.9-12.8-29.9-14.1c0,0-8.7,17.3-30.8,19.7
			c-16.1,0.3-23.8-2.6-32.5-6.8c-10.7-6-19.4-15.5-22.5-28c-6-24.1,5.5-45.3,31.5-57.3s101.1-11.3,118-12.5
			c16.9-1.2,37.9-10.5,45-28.1c5.1-12.5,1.6-28.4-0.9-36.7c-0.3-1,0.5-1.8,1.4-1.8c0.4,0,0.8,0.2,1.1,0.5c2.9,3.5,7,9.6,11.9,20.2
			c9.5,20.7,0.2,40.1-18.4,52c-18.2,11.6-59.9,20.2-102.3,20.2c-1.2,0-2.4,0-3.6,0c-0.6,0-1.3,0-1.9,0c-42.1,0-57.6,16.5-56.1,34.6
			c1,11.8,11.6,18.3,21.8,18.3c5.7,0,11.3-2,15-6.3c9.5-11.2,0.6-20.6-5.9-20.6c-0.5,0-0.9,0-1.4,0.1c0,0,12.9,7.7-1,17.7
			c-3,2.1-5.9,3-8.5,3c-9.8,0-16.3-12.4-11.4-21.2c4.9-8.8,16.1-18.6,35.2-18.6c5.2,0,14.7,1.4,19,2.8c3.9,1.3,16.4,5.4,32.2,17
			c8,5.9,16.1,13.7,21.7,21.2c6,8.1,10.4,18,10.4,18C437.4,513.3,438.9,521.1,439.6,525.4z M361.5,509.2c3.3-2.9,5.6-5.9,7-8
			c10,1.4,17.9,5.5,23.5,12c1.5,1.7,6,7.6,2.8,10.9c-0.9,0.9-1.6,1-2.1,1c-1.4,0-3.2-0.9-4.7-2.3c-2.8-2.6-4.7-4.2-7.3-4.2
			c0,0,0,0,0,0c-0.6,0-2,0.1-3.2,1c-0.1-0.3-0.2-0.5-0.4-0.8C374.6,513.6,368.7,510,361.5,509.2z M435.4,496.9
			c-1.7-3.4-3.7-6.8-5.9-10.1c-1-1.5-1.9-2.9-3-4.3c-2-3-4.4-6.1-7.1-8.9c-2-2.3-4.1-4.5-6.2-6.5c8.1-0.8,21.7-2.6,35.9-6.5
			c1-0.3,2-0.6,2.9-0.9c1-0.2,2-0.4,3.1-0.7l0.3,1.4c1.7,7.5,3,13.5,8.2,22.5L435.4,496.9z M630.8,342c-0.5,0.2-0.9,0.2-1.3,0.2
			c-1.1,0-2.2-0.5-3.8-0.5c-1.2,0-2.8,0.3-4.8,1.2c-5.8,2.7-11,10.3-14.3,14.1c-2.9,3.4-9,9.1-17.4,9.1c-1.1,0-2.3-0.1-3.6-0.4
			c-10.1-2-14.4-5.8-19.4-13.4c0,0-0.4,0-1,0c-2.3,0-7.9,0.5-8.7,5.5c-1,6.3-0.2,8.1,4,20.3c4.2,12.1,10,26.7,7,39
			c-3,12.3-15.6,17.9-15.6,17.9s-0.2,17.8,7.5,25.1c7.6,7.3,30.4,19.9,35.7,29.2c5.3,9.3,12,22.4,8.3,60.3H491.8
			c0,0,2-35.5,23.2-35.9c11.3,0,17.1,5.6,17.8,10.5c0.5,3.6-1.3,11.5-9.2,11.5c-2.6,0-5.8-0.8-9.7-2.9c0,0,7.6,7.4,16.7,7.4
			c2.8,0,5.8-0.7,8.7-2.5c12.5-7.8,20.1-19.9,15.6-27.2c-2.2-3.7-7.5-5.1-13.9-5.1c-6.4,0-14.1,1.5-21.1,3.8c-3,1-6.1,1.5-9.4,1.5
			c-12.4,0-26.2-6.8-35.4-19.5c-1.7-2.3-3.1-4.5-4.4-6.5l-1.8-4.1c-6.7-15-7.5-22.3-7.6-22.3l-0.1-1.1c3.4-1.1,13.5-4.8,23.2-12.5
			c5.3-3.8,9.6-8.1,12.8-12.8c3.5-5.1,5.8-10.6,6.9-16.5c0-0.1,0-0.1,0.1-0.2c0,0,6.8-2.1,15.4-2.1c9.4,0,20.9,2.5,28.1,13.1
			c0,0,12.3-6.3,8.3-28.2c-4-21.9-12-28.6-11.1-39c0.7-8.5,5.5-16.4,15.8-23.6c6.9-4.8,14.7-7.8,23.2-7.8c4.1,0,8.4,0.7,12.9,2.3
			c3,1.1,5.3,1.5,7.2,1.5c2.6,0,4.4-0.7,5.9-1.3c0,0,2,4-3.3,8.5c-2.9,2.5-5.9,3-8,3c-1.7,0-2.8-0.4-2.8-0.4s-2.5,4.5,3,4.5
			c5.5,0,5.3-2.3,8-4c2.3-1.4,7.3-6.8,15.8-6.8c1.4,0,3,0.2,4.6,0.5C631.3,336.5,633.4,341,630.8,342z M537.7,523.6
			c-0.5-4-3.1-7.8-7-10.5c-0.7-0.4-1.3-0.9-2.1-1.2c4.4-1,8.7-1.6,12.3-1.6c5,0,8.6,1,9.7,2.8c2.4,4-3,13.5-14,20.4
			c-0.4,0.2-0.7,0.4-1.1,0.6C537.6,530.7,538.2,526.6,537.7,523.6z"/>
		<path class="st1" d="M284.5,324.9c0,0,13.7,9.2,23.7-2.4c0,0-2.5,8.8-10.2,9.2C290.2,332.1,286.9,329.7,284.5,324.9z"/>
		<path class="st1" d="M283.8,319.9c0,0,5.9-6.5,15.3-6.2s17.7,6,17.7,6s1.4,0,1-1.2c-0.4-1.2-1.6-5,2.5-5.9
			c4.1-0.9,8.1,2.6,6.7,6.6c-1.4,4-6.4,4.4-10.3,3c-4-1.4-10.1-7-17.3-6.1c0,0-0.7,0.2,0.7,1.7c1.5,1.5,1,6.9-6.1,5.1
			c0,0,2.9-1.8,2.6-3.6c-0.2-1.7-0.7-3-2.5-3C292.4,316.3,287.4,318,283.8,319.9z"/>
	</g>
	<path class="st6" d="M556.9,84c-1.3-0.6-2.6-0.9-3.9-0.9c-5,0-9.5,4.3-8.9,9.9l3,29.7l-14.6-3.3L526,50h-65.3v23.9
		c0,6.1-4.9,11-11,11c-6.1,0-11-4.9-11-11V50h-38.2h-1.1h-38.2v23.9c0,6.1-4.9,11-11,11c-6.1,0-11-4.9-11-11V50h-65.3l-6.4,69.4
		l-14.6,3.3l3-29.7c0.6-5.6-3.9-9.9-8.9-9.9c-1.3,0-2.6,0.3-3.9,0.9l-93.7,45.3c0,0,0,77.7,0,289.9c0,204.1,232.3,321.9,250,330.6
		l0.5,0.3l0.5-0.3c17.7-8.7,250-126.5,250-330.6c0-212.2,0-289.9,0-289.9L556.9,84z M247.1,92.1C247.1,92.1,247.1,92.1,247.1,92.1
		C247.1,92.1,247.1,92.1,247.1,92.1C247.1,92.1,247.1,92.1,247.1,92.1l-2.9,29.8l-1.2,12.4l12.1-2.8l14.6-3.3l6.3-1.4l0.6-6.5
		l5.7-61.3h48.2v14.9c0,11,8.9,19.9,19.9,19.9s19.9-8.9,19.9-19.9V59h29.2h1.1h29.2v14.9c0,11,8.9,19.9,19.9,19.9
		c11,0,19.9-8.9,19.9-19.9V59h48.2l5.7,61.3l0.6,6.5l6.3,1.4l14.6,3.3l12.1,2.8l-1.2-12.4l-3-29.7c0,0,0,0,0,0c0,0,0,0,0,0
		c0,0,0,0,0,0l88.7,42.9v78.4c-11.1-4.6-33.3-13.1-64-21.7c-40.7-11.4-104.6-25.1-177.2-25.1c-72.6,0-136.4,13.6-177.2,25.1
		c-31.5,8.9-54.1,17.6-64.9,22.1v-78.8L247.1,92.1z M606.2,551.3c-19.2,34.7-46.1,68.3-80.1,99.8C472,701.5,415.4,732.1,400,740
		c-15.4-7.9-71.9-38.5-126.1-88.8c-33.9-31.6-60.9-65.1-80.1-99.8c-23.5-42.5-35.5-87-35.5-132.2V224.6
		c18-7.7,117.9-48.1,242.1-48.1c122.2,0,220.9,39.1,241.1,47.7v195C641.6,464.3,629.7,508.8,606.2,551.3z"/>
	<g>
		<path class="st7" d="M707.6,626.4l-49.1-17.6l2-45.5c0,0-14.3,11-81,37.9l8,19.9c0,0-83.1,32.4-187.4,32.5
			c-104.4-0.1-187.4-32.5-187.4-32.5l8-19.9c-66.7-26.9-81-37.9-81-37.9l2,45.5l-49.1,17.6c27.2,17.3,52.8,25.2,52.8,25.2
			l-12.3,20.3c111,54.8,255.3,53.5,267.1,53.5c11.8,0.1,156.1,1.4,267.1-53.5l-12.3-20.3C654.8,651.6,680.4,643.7,707.6,626.4z"/>
		<path class="st8" d="M646.5,643.2c17.9-6.5,42.8-19.9,42.8-19.9l-33.9-12l1-33.4c-20.3,13.9-54.5,25.9-54.5,25.9
			s18.1,2.7,24.4,5.1c6.3,2.5,2.5,9.3-1.3,10.8c-115.1,46-213.8,45.5-224.6,45.3v0c0,0-0.2,0-0.5,0c-0.3,0-0.5,0-0.5,0v0
			c-10.8,0.2-109.5,0.7-224.6-45.3c-3.8-1.5-7.6-8.3-1.3-10.8c6.3-2.5,24.4-5.1,24.4-5.1s-34.2-12-54.5-25.9l1,33.4l-33.9,12
			c0,0,24.9,13.4,42.8,19.9L142,664.1c0,0,96.7,51.6,257.5,51.8v0c0.2,0,0.3,0,0.5,0c0.2,0,0.3,0,0.5,0v0
			c160.8-0.2,257.5-51.8,257.5-51.8L646.5,643.2z"/>
	</g>
	<g>
		<path class="st6" d="M329.4,109.4c0.2,0,2.5-0.1,6.7-0.2c4.3-0.1,9.2-0.3,14.7-0.5l-0.1-4.3c-0.1-0.1-0.1-0.6,0-1.6
			c0.1-0.9,0.7-1.5,1.8-1.7c0.1,0,0.4,0.2,1.1,0.6c0.7,0.4,1.2,1.2,1.6,2.4c-0.3,0.3-0.4,1.8-0.3,4.3c0.5,0,3.5,0,8.8-0.2
			c5.3-0.2,9.6-0.6,12.9-1.2c0.3-0.1,0.6,0.1,1,0.6c0.2,0,0.2,0.4,0,1.1c0,0.1-0.3,0.5-1,1.3c-0.7,0.8-1.9,1.2-3.5,1.4
			c-0.2,0-2.1,0-5.6,0c-3.5,0-7.7,0-12.5,0l0.2,4.6c0.5,0,2.6,0,6.5-0.2c3.8-0.2,6.2-0.4,7-0.6c0.3,0,1.3,0.4,3,1.2
			c1.7,0.7,2.6,1.8,2.6,3.2c-0.1,0-0.2,0.8-0.4,2.5c-0.2,1.7-0.2,4.8,0,9.1c0.1,0.2-0.1,1.1-0.6,2.6c-0.5,1.5-1.7,2.6-3.8,3.3
			c0,0.2-3.4,0.4-10.1,0.7c0.3,0.4,3.5,2.3,9.5,5.9c6.1,3.6,13.3,6.7,21.7,9.4c0.3,0,0.6,0.3,1,0.9c0.2,0-0.1,0.4-0.9,1.1
			c-0.3,0.3-1.8,0.8-4.5,1.7c-2.7,0.9-4.9,0.5-6.7-1c-0.1,0-1-0.8-2.7-2.2c-1.7-1.4-3.9-3.1-6.4-5.1c-2.6-2-5.1-4-7.7-5.9
			c-2.6-1.9-4.7-3.3-6.5-4.3c0,0.5,0,2.8,0.2,7.1c0.1,4.3,0.4,7.6,0.9,10c0,0.2-0.1,1.2-0.2,3.1c-0.1,1.8-0.7,3.2-1.6,4.2
			c-0.2,0.1-0.7-0.2-1.7-0.9c-1-0.7-1.4-2.8-1.3-6.2c0,0.1-0.1-1.6-0.2-5.2c0.1,0.5,0.1-3.6-0.1-12.2c-0.1,0.3-2.5,2.7-7.3,7.1
			c-4.8,4.4-11.6,9.3-20.6,14.7c-0.2,0.1-0.8,0.2-1.9,0.3c-1.1,0.1-2-0.4-2.6-1.5c-0.1,0-0.1-0.4,0.1-1.1c0.2-0.7,1.1-1.4,2.6-2.2
			c0.5-0.2,3.7-2,9.4-5.4c5.8-3.4,11-7.3,15.7-11.7c-0.6,0.1-1.8,0.2-3.4,0.4c-1.6,0.2-2.6,0.3-2.9,0.5c-0.1,0.2-0.7,0.3-1.9,0.5
			c-1.2,0.2-2.3-0.4-3.4-2c-0.1,0.2-0.5-0.9-1.2-3.3c-0.7-2.4-1.2-7-1.5-13.8c-0.2-0.1-0.1-0.7,0.3-1.8c0.3-1.1,1.7-1.8,4.2-2
			c-0.6,0.1,3,0.1,10.6,0c0.1,0,0.4-0.1,1.1-0.2c0.7-0.1,1.3-0.2,1.7-0.3l-0.2-4.9c-0.5,0-3.3,0.2-8.4,0.6c-5.1,0.4-9.5,1-13.3,1.8
			c-0.2,0.1-1.1,0.2-2.7,0.3c-1.6,0.1-2.5-0.3-2.9-1.3c-0.1,0,0.2-0.5,0.9-1.4C325.3,111,326.9,110.2,329.4,109.4z M340.4,120.9
			c-0.5,0-1.2,0.2-2,0.6c-0.8,0.4-1.2,1.2-1,2.5c-0.2,0.1-0.2,0.5,0,1.2c0.1,0.7,1.1,0.9,2.8,0.8c-0.2,0.1,0.4,0,1.8-0.1
			c1.4-0.1,4.6-0.4,9.5-0.8l-0.2-5.2c-0.3,0-1.8,0.1-4.5,0.3C344,120.4,342,120.6,340.4,120.9z M341.4,129.5c-0.6,0-1.4,0.1-2.5,0.4
			c-1.1,0.3-1.5,1.1-1.2,2.4c-0.1,0.2,0,0.7,0.2,1.7c0.2,0.9,1,1.5,2.3,1.7c1,0,2.3,0,3.7-0.1c1.5-0.1,4.1-0.3,7.8-0.6l-0.2-6.5
			c-0.4,0.1-2.1,0.2-5,0.5C343.6,129.3,341.9,129.5,341.4,129.5z M356.9,125c0.3,0,2-0.2,5.1-0.5c3.1-0.3,5.5-0.5,7.3-0.6
			c0-0.4,0-1.2-0.1-2.5c0-0.1-0.2-0.4-0.5-1c-0.3-0.6-1-1-2.1-1.3c0.3,0-3.5,0.1-11.4,0.4l0.2,5.6C355.3,125,355.8,125,356.9,125z
			 M355.5,128.4l0.2,6.5c0.2,0,1.4,0,3.8-0.2c2.4-0.2,4.8-0.5,7.1-1c0.4,0,1-0.2,1.7-0.6c0.7-0.4,1.1-1.4,1.2-3c0,0.2,0-0.6-0.1-2.5
			C369,127.4,364.4,127.6,355.5,128.4z"/>
		<path class="st6" d="M442.3,130.9c-0.3,0-1.8,0.1-4.5,0.2c-2.8,0.1-5.3,0.7-7.7,1.7c-0.2,0.2-1.1,0.3-2.6,0.2
			c-1.5-0.1-2.5-1.5-3-4.3c0-0.1-0.1-1.5-0.4-4.3c-0.3-2.8-1-6.4-2.1-10.9c-0.2-0.1-0.3-0.6-0.4-1.6s0.4-2,1.5-2.8
			c0.1,0,0.7,0.2,1.8,0.7c1.1,0.5,2.1,1.5,2.9,3c0,0.2,0,1.6,0,4.3c0,2.6,0.1,5.5,0.1,8.6c-0.1,0.1,0,0.4,0.3,0.8
			c0.2,0.5,0.9,0.7,2.1,0.8c0.5,0.1,3.4,0.1,8.7,0.1c0.5,0,3.6,0,9.1-0.2c5.5-0.1,10.3-0.1,14.4,0.1c0.3,0,1.3,0.4,3.2,1.1
			c1.9,0.7,2.8,1.9,2.7,3.6c-0.1,0.1-0.4,0.3-0.8,0.9c-0.4,0.5-0.6,1-0.7,1.3c-0.1,0.1-0.3,0.8-0.8,2.2s-1.1,2.7-1.8,4
			c-0.2,0.2-0.3,0.6-0.5,1.1c0.1,0,0.4,0,1.1,0c-0.2,0,2.1,0.3,6.8,0.8c0.1,0.1,1.2,0.2,3.4,0.4c2.2,0.2,4.7,0.4,7.5,0.5
			c0.6,0,0.9,0.7,0.9,1.9c-0.1,0.3-0.8,1.1-2.3,2.5c-1.5,1.4-3.4,2.1-5.7,2.1c-0.2-0.2-2.9-1.2-8.1-2.9s-11.9-2.9-20.2-3.5
			c-0.3-0.2-0.7,0.1-1.1,0.9c0.1,0.5-1.6,3-4.9,7.5c-3.4,4.4-9.1,7.8-17.1,10c-0.2,0-0.9,0-2.1-0.2c-1.2-0.2-2.1-0.8-2.5-1.8
			c-0.1-0.1,0-0.5,0.2-1.3c0.2-0.8,1.1-1.6,2.6-2.2c0.4,0.1,2.9-0.6,7.3-2.2c4.5-1.6,8.4-4.5,11.9-8.8c0.3-0.3,0-0.8-0.8-1.4
			c-0.6,0-4,0.3-10.2,0.8c-6.2,0.6-11.4,1.5-15.8,2.8c-0.2,0.2-1,0.4-2.4,0.8c-1.4,0.4-2.7,0.1-3.6-0.9c-0.2-0.1,0-0.8,0.4-2.1
			c0.4-1.3,1.8-2.4,4-3.3c0.1,0,1.6-0.1,4.4-0.2c2.8-0.1,6.3-0.3,10.4-0.4c0.2,0,1.7,0,4.6,0c2.9,0,6.1-0.1,9.7-0.2
			c0.3,0.2,0.5-0.1,0.8-1.1c0.1,0.4,0.4-2.3,0.7-8.2C443.5,131.4,443.1,131.1,442.3,130.9z M443.1,120.2c-0.2,0.1-1,0.5-2.6,1.2
			c-0.2,0.2-0.8,0.2-1.9,0c-1.1-0.2-2-1.3-2.7-3.3c-0.1-0.1-0.2-1.1-0.6-3.2c-0.3-2-0.5-4.7-0.4-7.8c-0.2-0.2,0-0.8,0.3-1.9
			c0.4-1.1,1.8-1.6,4.2-1.5c-0.3,0,0.8,0.2,3.2,0.4s7.5,0.3,15.4,0.4c0.2,0,0.8,0.3,2,1c1.2,0.7,1.7,2.1,1.5,4.2
			c-0.3,0.5-0.8,2.9-1.6,7.3c0,0.2-0.2,0.8-0.9,1.8c-0.6,1.1-1.9,1.6-3.8,1.7c-0.2,0-1.5,0-4-0.1c-0.3,0-1.6,0-3.8-0.1
			C445.3,120.3,443.9,120.2,443.1,120.2z M441.6,116.5c0.1,0,1.2,0,3.6,0.1c2.3,0.1,5.2,0.1,8.7,0.2c0.1,0.1,0.4,0,1.1-0.2
			c0.7-0.2,1.2-0.8,1.6-1.9c0-0.2,0-1.6,0.1-4.3c0-0.1-0.2-0.4-0.5-1.1c-0.3-0.7-0.9-1.2-1.8-1.6c-0.6,0-2.8-0.1-6.4-0.2
			c-0.3,0-2.2-0.1-5.7-0.1c-0.1,0-0.6,0.1-1.4,0.4c-0.8,0.3-1.3,0.8-1.5,1.4c-0.1,0.2-0.1,0.9-0.1,2.3c0,1.4,0.1,2.5,0.3,3.4
			C439.1,115.4,439.8,116,441.6,116.5z M459.9,141.1c0,0.3,0.3,0.1,1-0.8c0.1,0.3,0.3-1.8,0.5-6.2c0.1-0.1-0.1-0.5-0.4-1.5
			c-0.3-0.9-1.2-1.7-2.6-2.2c-0.6-0.2-3.8-0.3-9.5-0.2c-0.5,0-1,0.5-1.5,1.4c0.1-0.1-0.1,1.7-0.4,5.2c-0.1,0.1-0.1,0.6-0.2,1.4
			c-0.1,0.8,0,1.4,0.1,1.8c-0.2,0.3,0.1,0.5,0.8,0.8c0.1,0,1.4,0,3.9,0.1C454.1,141,456.8,141.1,459.9,141.1z M470.1,163.6
			c0.1,0.2-0.4,0.2-1.6,0c-0.2,0.4-4.4-1.6-12.7-6c-0.2-0.1-0.8-0.4-1.8-1.2c-1.1-0.7-2-1.4-2.7-2c-0.2,0-0.5-0.4-1.1-1.3
			c-0.6-0.8-0.4-1.7,0.4-2.7c0.1-0.1,0.7-0.3,2.1-0.7c1.3-0.4,2.9-0.1,4.6,0.9c-0.2-0.1,0.4,0.6,1.9,2.2c1.5,1.6,5,4.8,10.7,9.6
			C470.1,162.5,470.2,162.9,470.1,163.6z"/>
	</g>
	<g>
		<path class="st7" d="M202.8,663c-0.4,1-1.1,1.9-2,2.6c-0.9,0.7-2.1,1.2-3.5,1.4c-1.4,0.2-3.1,0.2-4.9-0.1c-1.9-0.3-4-0.9-6.3-1.8
			c-1.2-0.5-2.4-1-3.6-1.7c-1-0.6-2.1-1.3-3.3-2.1c-1.2-0.8-2.3-1.8-3.2-2.9l3.4-3.5c0.9,1,1.8,1.8,2.8,2.6c1,0.7,1.9,1.3,2.7,1.8
			c1,0.6,2,1,2.9,1.4c3,1.1,5.3,1.7,7,1.8c1.7,0,2.7-0.4,3-1.3c0.2-0.6,0.1-1-0.2-1.5c-0.4-0.4-1-0.9-1.9-1.3
			c-0.2-0.1-0.6-0.3-1.2-0.6c-0.6-0.3-1.3-0.6-2.2-1c-0.9-0.4-1.8-0.8-2.9-1.2s-2.1-0.9-3.3-1.4c-1.1-0.5-2.1-1.1-3-1.7
			c-0.9-0.6-1.6-1.3-2.1-2.1c-0.5-0.8-0.8-1.6-1-2.4c-0.1-0.9,0-1.8,0.4-2.7c0.4-1,1-1.7,2-2.3c0.9-0.6,2.1-1,3.5-1.2
			c1.4-0.2,3-0.1,4.8,0.2c1.8,0.3,3.7,0.8,5.8,1.6c1.2,0.5,2.4,1,3.6,1.7c1,0.6,2.1,1.3,3.3,2.1c1.2,0.8,2.3,1.7,3.3,2.8l-3.2,3.5
			c-0.5-0.5-1.1-1-1.8-1.5c-0.7-0.5-1.4-1.1-2.2-1.6c-0.8-0.5-1.6-1-2.4-1.4c-0.8-0.4-1.6-0.8-2.4-1.1c-1.2-0.5-2.3-0.8-3.4-1.1
			c-1.1-0.3-2-0.5-2.9-0.5c-0.8-0.1-1.5,0-2.1,0.1c-0.5,0.2-0.9,0.4-1.1,0.8c-0.2,0.5-0.1,1,0.2,1.4s0.9,0.8,1.8,1.2
			c0.9,0.4,2.3,1,3.9,1.7c1.7,0.7,3.7,1.6,6,2.6c1.2,0.5,2.2,1.1,3,1.7c0.8,0.6,1.5,1.3,2,2c0.5,0.7,0.8,1.5,0.9,2.3
			C203.3,661.3,203.1,662.1,202.8,663z"/>
		<path class="st7" d="M232.7,668.8c-0.5,1.5-1.3,2.9-2.3,4.1c-1,1.2-2.3,2.1-3.7,2.8c-1.4,0.7-3,1.1-4.8,1.2
			c-1.8,0.1-3.6-0.2-5.5-0.8c-1.9-0.6-3.6-1.5-4.9-2.6c-1.4-1.1-2.4-2.4-3.2-3.8c-0.8-1.4-1.2-2.9-1.4-4.4c-0.1-1.6,0-3.1,0.5-4.6
			l3.5-10.6l5.3,1.7l-3.5,10.6c-0.3,0.9-0.4,1.8-0.4,2.7c0,0.9,0.2,1.8,0.6,2.6c0.4,0.8,1,1.6,1.8,2.2c0.8,0.7,1.8,1.2,3.1,1.6
			c1.3,0.4,2.4,0.6,3.4,0.5c1-0.1,1.9-0.3,2.7-0.7c0.8-0.4,1.5-1,2-1.7c0.6-0.7,1-1.5,1.3-2.4l3.5-10.6l5.3,1.7L232.7,668.8z"/>
		<path class="st7" d="M233.3,679.7l1.1-4.7l20.1-8.5l-17.3-3.9l1.1-4.7l24.8,5.6l-1.1,4.7l-20.1,8.5l17.3,3.9l-1.1,4.7L233.3,679.7
			z"/>
		<path class="st7" d="M280.8,690.2l1.7-9l-14.8-2.8l-1.7,9l-5.1-1l4.2-21.9l5.1,1l-1.5,8.2l14.8,2.8l1.5-8.2l5.1,1l-4.2,21.9
			L280.8,690.2z"/>
		<path class="st7" d="M320.9,685.6c-0.2,1.7-0.6,3.2-1.4,4.6c-0.8,1.4-1.8,2.6-3.1,3.6c-1.3,1-2.9,1.7-4.6,2.2
			c-1.8,0.5-3.8,0.6-5.9,0.4c-2.2-0.2-4.1-0.7-5.7-1.6c-1.6-0.8-3-1.9-4.1-3.1c-1.1-1.2-1.9-2.6-2.3-4.2c-0.5-1.5-0.6-3.1-0.5-4.8
			c0.2-1.7,0.6-3.2,1.4-4.6c0.8-1.4,1.8-2.6,3.1-3.6c1.3-1,2.9-1.7,4.6-2.2c1.8-0.5,3.8-0.6,5.9-0.4c2.2,0.2,4.1,0.7,5.7,1.6
			c1.6,0.8,3,1.9,4.1,3.1c1.1,1.2,1.9,2.6,2.3,4.2C320.9,682.4,321,684,320.9,685.6z M315.4,685.1c0.1-1,0-1.9-0.2-2.8
			c-0.3-0.9-0.7-1.8-1.3-2.5c-0.6-0.7-1.5-1.4-2.5-1.9c-1-0.5-2.2-0.8-3.6-1c-1.4-0.1-2.6-0.1-3.7,0.2c-1.1,0.3-2,0.7-2.8,1.3
			c-0.8,0.6-1.4,1.3-1.8,2.2c-0.4,0.8-0.7,1.8-0.8,2.7c-0.1,1,0,1.9,0.2,2.8c0.3,0.9,0.7,1.8,1.3,2.5c0.6,0.7,1.5,1.4,2.5,1.9
			c1,0.5,2.2,0.8,3.6,1c1.4,0.1,2.6,0.1,3.7-0.2c1.1-0.3,2-0.7,2.8-1.3c0.8-0.6,1.4-1.3,1.8-2.2C315,687,315.3,686,315.4,685.1z"/>
		<path class="st7" d="M424.2,691.7c-0.1,1.7-0.5,3.2-1.1,4.7c-0.7,1.5-1.7,2.7-2.9,3.8c-1.2,1.1-2.7,1.9-4.5,2.5
			c-1.8,0.6-3.7,0.8-5.9,0.7c-2.2-0.1-4.1-0.5-5.8-1.2c-1.7-0.7-3.1-1.7-4.3-2.8c-1.2-1.2-2-2.5-2.6-4c-0.6-1.5-0.8-3.1-0.8-4.8
			c0.1-1.7,0.5-3.2,1.1-4.7c0.7-1.5,1.7-2.7,2.9-3.8c1.2-1.1,2.7-1.9,4.5-2.5c1.8-0.6,3.7-0.8,5.9-0.7c2.2,0.1,4.1,0.5,5.8,1.2
			c1.7,0.7,3.1,1.7,4.3,2.8c1.2,1.2,2,2.5,2.6,4C424,688.5,424.3,690.1,424.2,691.7z M418.7,691.5c0-1-0.1-1.9-0.4-2.8
			c-0.3-0.9-0.8-1.7-1.5-2.4c-0.7-0.7-1.5-1.3-2.6-1.7c-1-0.4-2.3-0.7-3.7-0.7c-1.4-0.1-2.6,0.1-3.7,0.4c-1.1,0.3-2,0.9-2.7,1.5
			c-0.7,0.6-1.3,1.4-1.7,2.3c-0.4,0.9-0.6,1.8-0.6,2.8c0,1,0.1,1.9,0.4,2.8c0.3,0.9,0.8,1.7,1.5,2.4c0.7,0.7,1.5,1.3,2.6,1.7
			c1,0.4,2.3,0.7,3.7,0.7c1.4,0.1,2.6-0.1,3.7-0.4c1.1-0.3,2-0.8,2.7-1.5c0.7-0.6,1.3-1.4,1.7-2.3
			C418.4,693.4,418.6,692.5,418.7,691.5z"/>
		<path class="st7" d="M352.1,689c-0.1,1.6-0.6,3.1-1.3,4.5c-0.7,1.4-1.7,2.6-2.9,3.6c-1.2,1-2.7,1.7-4.4,2.3
			c-1.7,0.5-3.5,0.7-5.6,0.5c-2-0.2-3.8-0.6-5.4-1.4c-1.6-0.8-2.9-1.7-4-2.9c-1.1-1.2-1.9-2.5-2.4-4c-0.5-1.5-0.7-3-0.6-4.6
			l0.9-11.1l5.6,0.4l-0.9,11.1c-0.1,1,0,1.9,0.2,2.8c0.2,0.9,0.6,1.7,1.2,2.4c0.6,0.7,1.3,1.3,2.3,1.7c0.9,0.5,2.1,0.7,3.4,0.8
			c1.3,0.1,2.5,0,3.4-0.3c1-0.3,1.8-0.8,2.5-1.4c0.7-0.6,1.2-1.3,1.6-2.2c0.4-0.8,0.6-1.7,0.7-2.7l0.9-11.1l5.6,0.4L352.1,689z"/>
		<path class="st7" d="M391.9,690.1c0,1.5-0.3,3-0.9,4.3c-0.6,1.4-1.4,2.5-2.5,3.6c-1.1,1-2.5,1.8-4.1,2.4c-1.6,0.6-3.5,0.9-5.5,0.9
			h-14.2V679h14.2c2.1,0,3.9,0.3,5.5,0.9c1.6,0.6,3,1.4,4.1,2.4c1.1,1,2,2.2,2.5,3.6C391.6,687.1,391.9,688.6,391.9,690.1z
			 M386.4,690.1c0-0.9-0.2-1.7-0.5-2.5c-0.3-0.8-0.8-1.5-1.4-2.1c-0.6-0.6-1.4-1-2.4-1.4c-1-0.3-2.1-0.5-3.4-0.5h-8.9v13h8.9
			c1.3,0,2.5-0.2,3.4-0.5c1-0.3,1.8-0.8,2.4-1.4c0.6-0.6,1.1-1.3,1.4-2.1C386.3,691.9,386.4,691,386.4,690.1z"/>
		<path class="st7" d="M450.2,700.3l-16.3-14.7l0.9,15.6l-5.4,0.3l-1.3-22.3l5.4-0.3l16.3,14.7l-0.9-15.6l5.4-0.3l1.3,22.3
			L450.2,700.3z"/>
		<path class="st7" d="M488.6,685.4c0.1,1.6-0.1,3.2-0.6,4.6c-0.5,1.5-1.4,2.8-2.5,4c-1.1,1.2-2.6,2.2-4.3,3c-1.7,0.8-3.7,1.3-6,1.5
			c-2.3,0.2-4.3,0.1-6.1-0.4c-1.8-0.5-3.4-1.2-4.7-2.2c-1.3-1-2.4-2.1-3.1-3.5c-0.8-1.4-1.2-2.9-1.4-4.5c-0.1-1.6,0.1-3.2,0.6-4.6
			s1.4-2.8,2.5-4c1.1-1.2,2.6-2.2,4.3-3c1.7-0.8,3.7-1.3,6-1.5c1.5-0.1,2.9-0.1,4.2,0.1c1.3,0.2,2.5,0.5,3.6,1
			c1.1,0.4,2.1,1,2.9,1.6c0.9,0.7,1.6,1.4,2.2,2.2l-4.3,2.9c-0.7-1-1.8-1.8-3.1-2.4c-1.4-0.6-3.1-0.8-5.1-0.6
			c-1.5,0.1-2.8,0.4-3.9,0.9c-1.1,0.5-2,1.1-2.7,1.8s-1.2,1.5-1.5,2.4c-0.3,0.9-0.4,1.8-0.3,2.7s0.4,1.8,0.8,2.6
			c0.5,0.8,1.1,1.5,1.9,2.1c0.8,0.6,1.8,1,3,1.3c1.2,0.3,2.5,0.4,4,0.2c2.2-0.2,4-0.8,5.4-1.7c1.4-0.9,2.3-2.1,2.8-3.4l-10.5,0.9
			l-0.4-4.3l16.3-1.4c0.1,0.3,0.1,0.5,0.2,0.8C488.5,684.9,488.6,685.1,488.6,685.4z"/>
		<path class="st7" d="M520.4,690.7l-6.1,1.1l-7.6-15.3l-1.8,17l-6.1,1.1l-10.3-20.8l4.7-0.9l8.1,16.4l1.8-18.2l5.3-1l8,16.4
			l1.8-18.2l4.7-0.9L520.4,690.7z"/>
		<path class="st7" d="M553.1,673.4c0.3,1.6,0.3,3.1,0,4.7c-0.3,1.5-0.9,2.9-1.8,4.2c-0.9,1.3-2,2.4-3.5,3.3c-1.4,0.9-3.1,1.6-5,2
			c-1.9,0.4-3.7,0.4-5.4,0.1c-1.7-0.3-3.2-0.9-4.5-1.8c-1.3-0.9-2.4-1.9-3.2-3.2c-0.9-1.3-1.4-2.7-1.7-4.3l-2.1-11l5.3-1l2.1,11
			c0.2,0.9,0.5,1.8,1,2.6s1,1.4,1.8,2c0.7,0.5,1.6,0.9,2.6,1.1c1,0.2,2.1,0.2,3.3-0.1c1.2-0.2,2.3-0.6,3.1-1.2
			c0.8-0.6,1.5-1.2,1.9-2c0.5-0.8,0.8-1.6,0.9-2.5c0.1-0.9,0.1-1.8-0.1-2.8l-2.1-11l5.3-1L553.1,673.4z"/>
		<path class="st7" d="M569.1,662.1l1.5,4.8l11.9-3.6l1.5,4.6l-12,3.7l2.2,7.3l-4.6,1.4l-6.5-21.3l21.8-6.7l1.4,4.6L569.1,662.1z"/>
		<path class="st7" d="M616.4,659.6c-0.2,1.1-0.6,2.1-1.2,3.1c-0.6,1-1.3,1.9-2.2,2.8c-0.9,0.9-1.9,1.7-3.2,2.4
			c-1.2,0.7-2.6,1.3-4.2,1.7c-2.2,0.6-4.3,0.9-6.2,0.8c-1.9-0.1-3.6-0.5-5.1-1.2c-1.5-0.7-2.8-1.6-3.8-2.8c-1-1.2-1.8-2.6-2.2-4.1
			c-0.5-1.6-0.6-3.1-0.3-4.7c0.2-1.6,0.8-3,1.7-4.4c0.9-1.4,2.1-2.6,3.7-3.8c1.6-1.1,3.5-2,5.7-2.6c1.5-0.4,2.9-0.7,4.3-0.8
			c1.4-0.1,2.6,0,3.8,0.2c1.2,0.2,2.3,0.6,3.3,1.1c1,0.5,1.9,1.1,2.7,1.8l-3.9,3.8c-0.4-0.4-1-0.8-1.6-1.1c-0.6-0.3-1.3-0.5-2.1-0.6
			c-0.8-0.1-1.6-0.2-2.5-0.1c-0.9,0.1-1.9,0.2-2.8,0.5c-1.4,0.4-2.6,1-3.6,1.6c-1,0.7-1.7,1.4-2.2,2.2c-0.5,0.8-0.8,1.7-1,2.6
			c-0.1,0.9-0.1,1.8,0.2,2.7c0.3,0.9,0.7,1.7,1.3,2.4c0.6,0.7,1.3,1.3,2.2,1.7c0.9,0.4,1.9,0.6,3.1,0.7c1.2,0.1,2.5-0.1,3.9-0.5
			c1-0.3,2-0.7,2.8-1.2c0.8-0.5,1.5-1,2.1-1.6c0.6-0.6,1.1-1.2,1.4-1.8c0.4-0.6,0.6-1.3,0.7-1.9L616.4,659.6z"/>
	</g>
</g>
</svg>
