<?xml version="1.0" encoding="utf-8"?>
<!-- Generator: Adobe Illustrator 22.1.0, SVG Export Plug-In . SVG Version: 6.00 Build 0)  -->
<svg version="1.1" id="图层_1" xmlns="http://www.w3.org/2000/svg" xmlns:xlink="http://www.w3.org/1999/xlink" x="0px" y="0px"
	 viewBox="0 0 800 800" style="enable-background:new 0 0 800 800;" xml:space="preserve">
<style type="text/css">
	.st0{fill:#B4171F;}
</style>
<g>
	<path class="st0" d="M455.5,460.4l-0.3-1.4c-1,0.2-2.1,0.5-3.1,0.7c-1,0.3-1.9,0.6-2.9,0.9c-14.2,3.9-27.8,5.7-35.9,6.5
		c2.1,2.1,4.2,4.2,6.2,6.5c0,0,0,0,0,0c0.7,0.7,1.3,1.4,1.9,2.1c0,0.1,0.1,0.1,0.1,0.2c0.6,0.7,1.2,1.4,1.7,2.1
		c0.1,0.1,0.1,0.1,0.2,0.2c0.5,0.7,1.1,1.4,1.6,2.1c0,0.1,0.1,0.1,0.1,0.2c0.5,0.7,1,1.4,1.5,2.1c1,1.4,2,2.8,3,4.3
		c2.2,3.3,4.1,6.7,5.9,10.1l28.3-14C458.5,473.9,457.2,467.9,455.5,460.4z"/>
	<path class="st0" d="M215.3,526.7c0-0.1,0-0.2,0-0.2c0-0.5,0.1-1.1,0.1-1.7c0-0.1,0-0.3,0-0.4c0.1-0.6,0.2-1.2,0.3-1.9c0,0,0,0,0,0
		c0,0,0,0,0,0c0,0,0,0.1,0,0.1c0,0,0,0,0,0.1c0,0,0,0.1,0,0.1c0,0,0,0.1,0,0.1c0,0,0,0.1,0,0.2c0,0,0,0.1,0,0.1c0,0.1,0,0.1,0,0.2
		c0,0.1,0,0.1,0,0.2c0,0.1,0,0.1,0,0.2c0,0.1,0,0.1,0,0.2c0,0.1,0,0.2,0,0.2c0,0.1,0,0.1,0,0.2c0,0.1,0,0.2,0.1,0.3
		c0,0.1,0,0.2,0.1,0.2c0,0.1,0,0.2,0.1,0.3c0,0.1,0,0.2,0.1,0.3c0,0.1,0.1,0.2,0.1,0.3c0,0.1,0,0.2,0.1,0.3c0,0.1,0.1,0.2,0.1,0.3
		c0,0.1,0.1,0.2,0.1,0.3c0,0.1,0.1,0.2,0.1,0.3c0,0.1,0.1,0.2,0.1,0.3c0,0.1,0.1,0.3,0.1,0.4c0,0.1,0.1,0.2,0.1,0.2
		c0.1,0.2,0.2,0.4,0.2,0.6c0,0.1,0.1,0.1,0.1,0.2c0.1,0.1,0.1,0.3,0.2,0.4c0,0.1,0.1,0.2,0.1,0.3c0.1,0.1,0.1,0.2,0.2,0.4
		c0,0.1,0.1,0.2,0.1,0.3c0.1,0.1,0.1,0.2,0.2,0.4c0.1,0.1,0.1,0.2,0.2,0.3c0.1,0.1,0.1,0.2,0.2,0.3c0.1,0.1,0.1,0.2,0.2,0.3
		c0.1,0.1,0.1,0.2,0.2,0.3c0.1,0.1,0.1,0.2,0.2,0.3c0.1,0.1,0.1,0.2,0.2,0.3c0.1,0.1,0.1,0.2,0.2,0.3c0.1,0.1,0.2,0.2,0.2,0.3
		c0.1,0.1,0.1,0.2,0.2,0.2c0.1,0.1,0.2,0.2,0.3,0.3c0.1,0.1,0.2,0.2,0.2,0.2c0.1,0.1,0.2,0.2,0.3,0.3c0.1,0.1,0.2,0.1,0.2,0.2
		c0.1,0.1,0.2,0.2,0.3,0.2c0.1,0.1,0.2,0.1,0.3,0.2c0.1,0.1,0.2,0.1,0.4,0.2c0.1,0.1,0.2,0.1,0.3,0.2c0.1,0.1,0.3,0.1,0.4,0.2
		c0.1,0,0.1,0.1,0.2,0.1c0.2,0.1,0.4,0.2,0.6,0.2c0,0,0,0,0.1,0c0.2,0.1,0.5,0.1,0.7,0.2c0.1,0,0.2,0,0.2,0c0.2,0,0.3,0.1,0.5,0.1
		c0.1,0,0.2,0,0.3,0c0.2,0,0.3,0,0.5,0c0.2,0,0.4,0,0.6,0c0.1,0,0.2,0,0.3,0c0.3,0,0.6-0.1,1-0.2c10.2-2.2,10-14.7,4.2-19.4
		c-0.3-0.3-0.7-0.6-1.1-0.8c-0.1-0.1-0.3-0.2-0.4-0.2c-0.3-0.2-0.6-0.3-0.9-0.5c-0.2-0.1-0.4-0.2-0.6-0.2c-0.3-0.1-0.6-0.2-0.9-0.4
		c-0.2-0.1-0.5-0.1-0.7-0.2c-0.3-0.1-0.6-0.2-0.9-0.3c-0.2-0.1-0.5-0.1-0.7-0.2c-0.3-0.1-0.6-0.1-0.9-0.2c-0.3,0-0.5-0.1-0.8-0.1
		c-0.3-0.1-0.6-0.1-1-0.1c-0.3,0-0.6-0.1-0.8-0.1c-0.3,0-0.7-0.1-1-0.1c-0.3,0-0.6,0-0.8,0c-0.4,0-0.9,0-1.3,0c-0.1,0-0.1,0-0.2,0
		c-0.6,0-1.2,0.1-1.7,0.1c-0.1,0-0.1,0-0.2,0c-0.6,0.1-1.1,0.1-1.7,0.2c-0.1,0-0.2,0-0.2,0c-0.5,0.1-1.1,0.2-1.6,0.3
		c-0.1,0-0.2,0-0.2,0.1c-0.5,0.1-1,0.3-1.5,0.5c-0.1,0-0.2,0.1-0.2,0.1c-0.5,0.2-1,0.4-1.5,0.6c-0.1,0-0.1,0.1-0.2,0.1
		c-0.5,0.2-0.9,0.5-1.4,0.7c-0.1,0-0.1,0.1-0.1,0.1c-0.4,0.3-0.9,0.6-1.3,0.9c0,0-0.1,0-0.1,0.1c-0.4,0.3-0.8,0.7-1.2,1.1
		c-6,6.5-9.5,13.7-7.5,30.9h102.3l31.1-26.8c0.1-0.1,0.2-0.2,0.3-0.3c0.1-0.1,0.1-0.2,0.1-0.3c0,0,0,0,0,0c-0.7,0-1.4,0-2.1,0
		c-10.2,0-20.4-2.7-29.4-7.6c-1.6-0.8-3.1-1.6-4.5-2.6c-14.9-10.2-27.5-26.4-24.7-48.6c2.8-22.2,19.4-44.8,48.8-48.3
		c27.7-3.3,48.1-5.9,60.8-25.6c0.1-0.2,0.2-0.3,0.2-0.5c0-0.1,0-0.1,0-0.2c0-0.1,0-0.2,0-0.3c0-0.1,0-0.1,0-0.2c0-0.1,0-0.2-0.1-0.3
		c0-0.1,0-0.1-0.1-0.2c0-0.1-0.1-0.2-0.1-0.2c0-0.1-0.1-0.1-0.1-0.2c-0.1-0.1-0.1-0.1-0.2-0.2c0,0-0.1-0.1-0.1-0.1
		c-0.1-0.1-0.2-0.1-0.2-0.1c-0.1,0-0.1-0.1-0.2-0.1c-0.1,0-0.2,0-0.3-0.1c-0.1,0-0.1,0-0.2,0c-0.2,0-0.3,0-0.5,0.1
		c-0.4,0.1-0.8,0.2-1.2,0.3c-0.1,0-0.3,0.1-0.4,0.1c-0.3,0.1-0.6,0.1-0.9,0.2c-0.2,0-0.4,0.1-0.5,0.1c-0.3,0.1-0.6,0.1-0.8,0.2
		c-0.2,0-0.4,0.1-0.6,0.1c-0.3,0.1-0.6,0.1-0.8,0.2c-0.2,0-0.4,0.1-0.6,0.1c-0.3,0-0.6,0.1-0.8,0.1c-0.2,0-0.4,0.1-0.7,0.1
		c-0.3,0-0.6,0.1-0.8,0.1c-0.2,0-0.4,0-0.7,0.1c-0.3,0-0.5,0-0.8,0c-0.2,0-0.4,0-0.7,0c-0.1,0-0.3,0-0.4,0c-0.3,0-0.5,0-0.8,0
		c0,0,19.3-4.1,24.3-24.9c0-0.2,0-0.3,0-0.5c0,0,0-0.1,0-0.1c0-0.1,0-0.2-0.1-0.3c0,0,0-0.1,0-0.1c-0.1-0.1-0.1-0.3-0.2-0.4
		c0,0,0,0,0,0c-0.1-0.1-0.2-0.2-0.3-0.2c0,0-0.1,0-0.1-0.1c-0.1-0.1-0.2-0.1-0.3-0.1c0,0-0.1,0-0.1,0c-0.1,0-0.3-0.1-0.4,0
		c-0.1,0-0.2,0-0.3,0.1c-0.1,0-0.1,0-0.2,0c-0.2,0.1-0.3,0.2-0.5,0.3c-2.9,2.4-7.2,5.8-11.5,8.1c0,0,16.2-13.4,10.7-29.6
		c-0.2-0.5-0.4-1.1-0.6-1.6c-0.1-0.2-0.2-0.3-0.2-0.5c-0.2-0.3-0.3-0.7-0.5-1c-0.1-0.2-0.2-0.4-0.3-0.5c-0.2-0.3-0.3-0.6-0.5-0.8
		c-0.1-0.2-0.2-0.3-0.3-0.5c-0.2-0.3-0.4-0.5-0.5-0.7c-0.1-0.2-0.2-0.3-0.4-0.5c-0.2-0.2-0.4-0.5-0.6-0.7c-0.1-0.1-0.3-0.3-0.4-0.4
		c-0.2-0.2-0.4-0.4-0.7-0.7c-0.1-0.1-0.2-0.2-0.4-0.3c-0.3-0.2-0.6-0.5-0.9-0.7c-0.1-0.1-0.2-0.1-0.2-0.2c-0.4-0.3-0.8-0.6-1.2-0.8
		c-0.1-0.1-0.2-0.1-0.3-0.1c-0.3-0.2-0.6-0.4-1-0.5c-0.1-0.1-0.3-0.1-0.4-0.2c-0.3-0.1-0.6-0.3-0.8-0.4c-0.2-0.1-0.3-0.1-0.5-0.2
		c-0.3-0.1-0.5-0.2-0.8-0.3c-0.2-0.1-0.4-0.1-0.5-0.2c-0.3-0.1-0.5-0.2-0.8-0.2c-0.2,0-0.4-0.1-0.5-0.1c-0.3-0.1-0.6-0.1-0.9-0.2
		c-0.2,0-0.3-0.1-0.5-0.1c-0.3-0.1-0.6-0.1-1-0.1c-0.1,0-0.3,0-0.4-0.1c-0.5-0.1-0.9-0.1-1.4-0.1c0,0,0,0,0,0c-0.5,0-0.9,0-1.4,0
		c-0.1,0-0.2,0-0.2,0c-0.7,0-1.3,0-2,0.1c-0.1,0-0.1,0-0.2,0c-0.7,0.1-1.3,0.2-2,0.3c-0.1,0-0.2,0-0.4,0.1c-0.6,0.1-1.3,0.3-1.9,0.4
		c-0.1,0-0.2,0.1-0.3,0.1c-0.6,0.2-1.2,0.4-1.8,0.6c0,0-0.1,0-0.1,0c-0.6,0.2-1.1,0.5-1.7,0.7c-0.1,0-0.2,0.1-0.2,0.1
		c-0.5,0.3-1.1,0.6-1.6,0.9c-0.1,0.1-0.2,0.1-0.3,0.2c-0.5,0.3-1,0.7-1.4,1c-0.1,0.1-0.1,0.1-0.2,0.2c-0.5,0.4-0.9,0.8-1.3,1.2
		c-0.2,0.2-0.3,0.3-0.4,0.5c0,0-0.1,0.1-0.1,0.1c-0.1,0.1-0.2,0.2-0.2,0.3c0,0,0,0.1-0.1,0.1c-0.1,0.1-0.1,0.3-0.2,0.4
		c0,0,0,0,0,0.1c0,0.1,0,0.2-0.1,0.3c0,0,0,0.1,0,0.1c0,0.1,0,0.1,0,0.2c0,0,0,0,0,0.1c0,0.1,0.1,0.1,0.1,0.2c0,0,0,0,0,0
		c0,0,0.1,0.1,0.1,0.1c0,0,0,0,0.1,0c0.1,0,0.1,0.1,0.2,0.1c0,0,0,0,0,0c0.1,0,0.2,0.1,0.3,0.1c0,0,0.1,0,0.1,0c0.1,0,0.2,0,0.3,0
		c0,0,0.1,0,0.1,0c0.1,0,0.2,0,0.4,0c0,0,0,0,0,0c0.1,0,0.2,0,0.3,0c0.3,0,0.6,0,0.9,0c0,0,0,0,0.1,0c0.3,0,0.6-0.1,0.9-0.1
		c0.1,0,0.3,0,0.5-0.1c0.2,0,0.3,0,0.5-0.1c0,0,0.1,0,0.1,0c0.2,0,0.4,0,0.6-0.1c0.1,0,0.1,0,0.2,0c0.2,0,0.4,0,0.5,0
		c0.1,0,0.1,0,0.2,0c0.2,0,0.5,0,0.7,0c0,0,0.1,0,0.1,0c0.1,0,0.3,0,0.4,0c0.1,0,0.2,0,0.3,0c0.1,0,0.1,0,0.2,0c0.3,0,0.5,0,0.8,0
		c0,0,0.1,0,0.1,0c0.2,0,0.4,0.1,0.7,0.1c0.1,0,0.1,0,0.2,0c0.2,0,0.5,0.1,0.7,0.2c0,0,0.1,0,0.1,0c0.2,0.1,0.4,0.1,0.6,0.2
		c0,0,0.1,0,0.1,0.1c0.2,0.1,0.4,0.2,0.6,0.3c0,0,0.1,0.1,0.1,0.1c0.2,0.1,0.4,0.3,0.5,0.4c0,0,0.1,0,0.1,0.1
		c0.2,0.2,0.3,0.4,0.5,0.6c0,0,0.1,0.1,0.1,0.1c0.1,0.2,0.3,0.4,0.4,0.7c0,0,0,0,0,0.1c0.1,0.3,0.2,0.5,0.3,0.8c0,0.1,0,0.1,0.1,0.2
		c0.1,0.3,0.1,0.6,0.2,1c0,0.2,0,0.5,0,0.7c0,0.1,0,0.1,0,0.2c0,0.2,0,0.3-0.1,0.5c0,0.1,0,0.1,0,0.2c0,0.2-0.1,0.4-0.1,0.5
		c0,0,0,0.1,0,0.1c-0.1,0.2-0.2,0.4-0.3,0.6c0,0.1-0.1,0.1-0.1,0.2c-0.1,0.2-0.2,0.3-0.2,0.5c0,0.1-0.1,0.1-0.1,0.2
		c-0.1,0.1-0.2,0.3-0.3,0.4c0,0-0.1,0.1-0.1,0.1c-0.1,0.2-0.3,0.4-0.5,0.5c0,0-0.1,0.1-0.1,0.1c-0.1,0.1-0.3,0.3-0.4,0.4
		c-0.1,0-0.1,0.1-0.2,0.1c-0.1,0.1-0.3,0.2-0.4,0.3c-0.1,0-0.1,0.1-0.2,0.1c-0.4,0.3-0.9,0.5-1.4,0.8c-0.1,0-0.1,0.1-0.2,0.1
		c-0.2,0.1-0.4,0.1-0.5,0.2c-0.1,0-0.2,0.1-0.2,0.1c-0.2,0.1-0.4,0.1-0.7,0.2c0,0-0.1,0-0.1,0c-0.3,0.1-0.5,0.1-0.8,0.2
		c-0.1,0-0.1,0-0.2,0c-0.2,0-0.4,0.1-0.6,0.1c-0.1,0-0.2,0-0.3,0c-0.2,0-0.4,0-0.7,0c-0.1,0-0.1,0-0.2,0c0,0,0,0-0.1,0
		c-0.3,0-0.6,0-1,0c-0.1,0-0.1,0-0.2,0c-0.3,0-0.5-0.1-0.8-0.1c-0.1,0-0.2,0-0.3,0c-0.3-0.1-0.7-0.1-1-0.2c0,0,0,0,0,0
		c-0.3-0.1-0.7-0.2-1-0.3c-0.1,0-0.2-0.1-0.3-0.1c-0.3-0.1-0.5-0.2-0.8-0.3c-0.1,0-0.2-0.1-0.2-0.1c-0.3-0.2-0.7-0.3-1-0.5
		c-0.1,0-0.2-0.1-0.2-0.1c-0.3-0.2-0.5-0.3-0.8-0.5c-0.1-0.1-0.2-0.1-0.3-0.2c-0.3-0.2-0.7-0.5-1-0.8c-8.5-7-3.2-14.7,0.5-16.2
		s26.9-5,30.9-15.7c0,0-0.4-0.2-1-0.5c0,0-0.1,0-0.1,0c-0.1,0-0.3-0.1-0.4-0.2c0,0,0,0-0.1,0c-0.1,0-0.3-0.1-0.4-0.2
		c0,0-0.1,0-0.1,0c-0.1,0-0.3-0.1-0.4-0.1c-0.1,0-0.1,0-0.2-0.1c-0.2,0-0.3-0.1-0.5-0.1c-0.1,0-0.1,0-0.2-0.1
		c-0.2,0-0.3-0.1-0.5-0.1c-0.1,0-0.2,0-0.3-0.1c-0.2,0-0.3-0.1-0.5-0.1c-0.1,0-0.2,0-0.3-0.1c-0.2,0-0.3-0.1-0.5-0.1
		c-0.1,0-0.2,0-0.4-0.1c-0.2,0-0.4-0.1-0.5-0.1c-0.1,0-0.3,0-0.4-0.1c-0.2,0-0.4,0-0.5-0.1c-0.2,0-0.3,0-0.5,0c-0.2,0-0.4,0-0.5,0
		c-0.2,0-0.4,0-0.5,0c-0.2,0-0.4,0-0.5,0c-0.2,0-0.4,0-0.6,0c-0.2,0-0.4,0-0.6,0c-0.2,0-0.4,0-0.6,0c-0.2,0-0.4,0-0.6,0
		c-0.2,0-0.4,0-0.7,0c-0.2,0-0.4,0-0.6,0.1c-0.2,0-0.5,0-0.7,0.1c-0.2,0-0.4,0.1-0.6,0.1c-0.2,0-0.5,0.1-0.7,0.1
		c-0.2,0-0.4,0.1-0.6,0.1c-0.3,0.1-0.5,0.1-0.8,0.2c-0.2,0.1-0.4,0.1-0.6,0.2c-0.3,0.1-0.5,0.1-0.8,0.2c-0.2,0.1-0.4,0.1-0.6,0.2
		c-0.3,0.1-0.6,0.2-0.8,0.3c-0.2,0.1-0.4,0.2-0.6,0.2c-0.3,0.1-0.6,0.2-0.9,0.3c-0.2,0.1-0.4,0.2-0.7,0.3c-0.3,0.1-0.6,0.2-0.9,0.4
		c-0.2,0.1-0.5,0.2-0.7,0.3c-0.3,0.1-0.6,0.3-0.9,0.4c-0.2,0.1-0.5,0.3-0.7,0.4c-0.3,0.2-0.6,0.3-0.9,0.5c-0.3,0.2-0.5,0.3-0.8,0.5
		c-0.3,0.2-0.6,0.4-0.9,0.5c-0.3,0.2-0.5,0.4-0.8,0.6c-0.3,0.2-0.6,0.4-0.8,0.6c-0.3,0.2-0.6,0.5-0.9,0.7c-0.3,0.2-0.5,0.4-0.8,0.6
		c-0.3,0.3-0.7,0.6-1,0.9c-0.2,0.2-0.4,0.4-0.6,0.5c-0.6,0.5-1.1,1-1.7,1.6c0,0,0,0,0,0c0,0,0,0,0,0c0,0,0-0.1,0-0.1c0,0,0,0,0-0.1
		c0-0.1,0-0.1,0.1-0.2c0,0,0-0.1,0-0.1c0-0.1,0.1-0.2,0.1-0.4c0,0,0,0,0-0.1c0-0.1,0.1-0.2,0.1-0.4c0-0.1,0-0.1,0.1-0.2
		c0-0.1,0.1-0.2,0.1-0.3c0-0.1,0.1-0.1,0.1-0.2c0.1-0.1,0.1-0.3,0.2-0.4c0-0.1,0.1-0.1,0.1-0.2c0.1-0.2,0.2-0.4,0.3-0.6
		c0,0,0.1-0.1,0.1-0.1c0.1-0.2,0.2-0.3,0.3-0.5c0-0.1,0.1-0.2,0.1-0.2c0.1-0.2,0.2-0.3,0.3-0.5c0.1-0.1,0.1-0.2,0.2-0.2
		c0.1-0.2,0.2-0.4,0.4-0.5c0-0.1,0.1-0.1,0.1-0.2c0.2-0.2,0.4-0.5,0.6-0.7c0.1-0.1,0.1-0.1,0.2-0.2c0.2-0.2,0.3-0.4,0.5-0.6
		c0.1-0.1,0.2-0.2,0.2-0.3c0.2-0.2,0.3-0.3,0.5-0.5c0.1-0.1,0.2-0.2,0.3-0.3c0.2-0.2,0.4-0.4,0.6-0.6c0.1,0,0.1-0.1,0.2-0.1
		c0.3-0.2,0.6-0.5,0.9-0.7c0.1-0.1,0.2-0.1,0.3-0.2c0.2-0.2,0.4-0.3,0.7-0.5c0.1-0.1,0.2-0.2,0.3-0.2c0.2-0.1,0.5-0.3,0.7-0.4
		c0.1-0.1,0.2-0.1,0.3-0.2c0.3-0.2,0.7-0.4,1-0.5c0,0,0.1,0,0.1-0.1c0.4-0.2,0.8-0.4,1.2-0.5c0.1,0,0.3-0.1,0.4-0.1
		c0.3-0.1,0.6-0.2,0.9-0.3c0.2-0.1,0.3-0.1,0.5-0.1c0.3-0.1,0.7-0.2,1-0.3c0.2,0,0.3-0.1,0.5-0.1c0.5-0.1,1-0.2,1.5-0.3
		c0,0,0,0,0.1,0c0.5-0.1,1-0.1,1.5-0.2c0.2,0,0.4,0,0.5,0c0.4,0,0.8-0.1,1.2-0.1c0.2,0,0.4,0,0.6,0c0.1,0,0.3,0,0.4,0
		c0.3,0,0.6,0,0.8,0c0.2,0,0.4,0,0.6,0c0.6,0,1.2,0.1,1.8,0.1c0.1,0,0.2,0,0.2,0c0.7,0.1,1.4,0.2,2.1,0.3c0.2,0,0.4,0.1,0.7,0.1
		c0.5,0.1,1,0.2,1.6,0.3c0.3,0.1,0.6,0.1,0.8,0.2c0.5,0.1,1,0.2,1.5,0.4c0.3,0.1,0.6,0.2,0.9,0.2c0.6,0.2,1.1,0.3,1.7,0.5
		c0.3,0.1,0.5,0.2,0.8,0.2c0.9,0.3,1.7,0.6,2.6,0.9c0,0-1.7,10.2-10,13.9c0,0,13.8,1.5,19.9,14.5c0.1,0.1,0.1,0.2,0.2,0.3
		c0,0,0.1,0.1,0.1,0.1c0.1,0.1,0.1,0.1,0.2,0.1c0,0,0.1,0,0.1,0.1c0.1,0,0.1,0.1,0.2,0.1c0,0,0.1,0,0.1,0c0.1,0,0.1,0,0.2,0
		c0.1,0,0.2,0,0.2,0c0.1,0,0.1,0,0.2,0c0.1,0,0.2-0.1,0.2-0.1c0,0,0.1-0.1,0.1-0.1c0.1-0.1,0.1-0.1,0.2-0.2c0,0,0.1-0.1,0.1-0.1
		c0.1-0.1,0.1-0.3,0.2-0.4c0,0,0,0,0,0c0.1-0.7,0.2-1.6,0.3-2.5c0-0.3,0-0.7,0-1c0-1-0.1-2-0.2-3.1c-0.1-0.4-0.1-0.7-0.2-1.1
		c-0.2-0.7-0.4-1.5-0.7-2.3c-0.1-0.4-0.3-0.8-0.5-1.2c-0.9-1.9-2.2-3.9-4.1-5.9c0,0,11.2-11-2.2-19.9c0,0-3.5-6.5-6.7-7.5
		c0,0,0,0-0.1,0c-4.7,1.3-11.1,2.5-18.3,2.5c-2.1,0-4.2-0.1-6.2-0.3c-1-0.1-9.2-1.8-10.8-2.7l5.4-2l0,0c1.6-0.8,2.1-2.1,1.2-5.6
		c-0.1-0.2-0.1-0.5-0.2-0.7c0,0,0-0.1,0-0.1c-0.1-0.2-0.1-0.4-0.2-0.6c0-0.1-0.1-0.2-0.1-0.2c-0.1-0.2-0.1-0.4-0.2-0.6
		c0-0.1-0.1-0.2-0.1-0.3c-0.1-0.2-0.1-0.3-0.2-0.5c-0.1-0.1-0.1-0.3-0.2-0.4c-0.1-0.1-0.2-0.3-0.2-0.4c-0.1-0.1-0.2-0.3-0.3-0.4
		c-0.1-0.1-0.2-0.2-0.2-0.4c-0.1-0.2-0.2-0.3-0.4-0.5c-0.1-0.1-0.1-0.2-0.2-0.3c-0.2-0.2-0.4-0.5-0.7-0.7c-0.1-0.1-0.2-0.2-0.4-0.2
		c0,0-0.1,0-0.1-0.1c-0.1,0-0.2-0.1-0.3-0.1c0,0-0.1,0-0.1,0c-0.1,0-0.2,0-0.3,0c0,0-0.1,0-0.1,0c-0.1,0-0.2,0-0.3,0
		c-0.1,0-0.1,0-0.2,0c-0.1,0-0.3,0.1-0.4,0.1c0,0,0,0-0.1,0c-0.2,0-0.3,0.1-0.5,0.2c-0.1,0-0.1,0.1-0.2,0.1
		c-0.1,0.1-0.2,0.1-0.3,0.2c-0.1,0-0.1,0.1-0.2,0.1c-0.1,0.1-0.2,0.1-0.3,0.2c-0.1,0-0.1,0.1-0.2,0.2c-0.1,0.1-0.2,0.1-0.3,0.2
		c-0.1,0.1-0.2,0.1-0.2,0.2c-0.1,0.1-0.2,0.2-0.3,0.3c-0.1,0.1-0.2,0.1-0.2,0.2c-0.1,0.1-0.2,0.2-0.3,0.3c-0.1,0.1-0.1,0.1-0.2,0.2
		c-0.1,0.1-0.2,0.2-0.3,0.3c-0.1,0.1-0.1,0.1-0.2,0.2c-0.1,0.1-0.3,0.3-0.4,0.4c-0.1,0.1-0.1,0.1-0.2,0.2c-0.2,0.2-0.3,0.4-0.5,0.6
		c0,0,0,0,0,0c-0.2,0.2-0.4,0.4-0.6,0.6c-0.1,0.1-0.1,0.1-0.2,0.2c-0.1,0.2-0.3,0.3-0.4,0.5c-0.1,0.1-0.1,0.2-0.2,0.2
		c-0.1,0.1-0.2,0.3-0.3,0.4c-0.1,0.1-0.1,0.2-0.2,0.3c-0.1,0.1-0.2,0.3-0.3,0.4c-0.1,0.1-0.1,0.2-0.2,0.3c-0.1,0.1-0.2,0.3-0.3,0.4
		c-0.1,0.1-0.1,0.2-0.2,0.3c-0.1,0.1-0.2,0.3-0.3,0.4c-0.1,0.1-0.1,0.2-0.2,0.3c-0.1,0.1-0.2,0.3-0.3,0.4c-0.1,0.1-0.1,0.2-0.2,0.2
		c-0.1,0.2-0.2,0.3-0.4,0.5c0,0.1-0.1,0.1-0.1,0.2c-0.3,0.4-0.6,0.9-0.9,1.3c0,0.1-0.1,0.1-0.1,0.2c-0.1,0.1-0.2,0.3-0.3,0.4
		c-0.1,0.1-0.1,0.2-0.2,0.2c-0.1,0.1-0.2,0.2-0.2,0.3c0,0.1-0.1,0.1-0.1,0.2c-0.1,0.1-0.1,0.2-0.2,0.3c0,0.1-0.1,0.1-0.1,0.2
		c-0.1,0.1-0.1,0.2-0.2,0.3c0,0.1-0.1,0.1-0.1,0.2c-0.1,0.1-0.1,0.2-0.2,0.3c0,0.1-0.1,0.1-0.1,0.2c-0.1,0.1-0.1,0.2-0.2,0.3
		c0,0.1-0.1,0.1-0.1,0.2c0,0.1-0.1,0.1-0.1,0.1c-0.1,0.1-0.1,0.2-0.2,0.2c-1.5,2.2-6.7,6.5-6.7,6.5s0,0-0.1,0c0,0,0,0-0.1,0
		c-0.1,0-0.1,0-0.2-0.1c0,0-0.1,0-0.1,0c-0.1,0-0.2-0.1-0.4-0.1c0,0-0.1,0-0.1,0c-0.2,0-0.4-0.1-0.7-0.2c-0.1,0-0.1,0-0.2,0
		c-0.2,0-0.4-0.1-0.7-0.1c-0.1,0-0.2,0-0.3-0.1c-0.2-0.1-0.5-0.1-0.8-0.2c-0.1,0-0.2,0-0.2-0.1c-0.4-0.1-0.7-0.2-1.1-0.2
		c-0.1,0-0.1,0-0.2,0c-0.3-0.1-0.7-0.1-1.1-0.2c-0.1,0-0.3,0-0.4-0.1c-0.3-0.1-0.7-0.1-1-0.2c-0.1,0-0.3,0-0.4-0.1
		c-1-0.2-2-0.3-3.1-0.4c-0.1,0-0.3,0-0.5-0.1c-0.4,0-0.8-0.1-1.2-0.1c-0.2,0-0.3,0-0.5-0.1c-0.5,0-1-0.1-1.5-0.1c-0.1,0-0.2,0-0.3,0
		c-0.6,0-1.2-0.1-1.8-0.1c-0.2,0-0.3,0-0.5,0c-0.5,0-0.9,0-1.4-0.1c-0.2,0-0.4,0-0.6,0c-0.5,0-1,0-1.4,0c-0.2,0-0.3,0-0.5,0
		c-0.7,0-1.4,0-2.1,0c-0.2,0-0.3,0-0.5,0c-0.6,0-1.1,0.1-1.7,0.1c-0.2,0-0.4,0-0.6,0c-0.7,0.1-1.4,0.1-2.1,0.2c0,0,0,0,0,0
		c-0.7,0.1-1.4,0.2-2.1,0.3c-0.2,0-0.4,0.1-0.6,0.1c-0.6,0.1-1.1,0.2-1.7,0.3c-0.2,0-0.3,0.1-0.5,0.1c-0.7,0.1-1.4,0.3-2.1,0.5
		c-0.2,0-0.3,0.1-0.5,0.1c-0.6,0.2-1.1,0.3-1.6,0.5c-0.2,0.1-0.4,0.1-0.6,0.2c-0.7,0.2-1.4,0.5-2,0.8c-16.9,7-6.7,22.7-6.7,22.7
		l-11.8-0.9l3.3,8.5l-6.7-10c-0.6-0.3-1.3-0.6-2.2-0.9c0,0,0,0-0.1,0c-0.3-0.1-0.6-0.2-0.9-0.3c0,0-0.1,0-0.1,0
		c-0.3-0.1-0.6-0.1-1-0.2c0,0-0.1,0-0.1,0c-0.4-0.1-0.7-0.1-1.1-0.2c-0.1,0-0.2,0-0.2,0c-0.4,0-0.8-0.1-1.3-0.1c0,0-0.1,0-0.1,0
		c-0.4,0-0.8,0-1.3,0c-0.1,0-0.2,0-0.3,0c-0.2,0-0.4,0-0.6,0c-0.2,0-0.3,0-0.5,0c-0.2,0-0.4,0-0.6,0c-0.2,0-0.4,0-0.5,0
		c-0.2,0-0.4,0-0.6,0.1c-0.2,0-0.4,0-0.6,0c-0.2,0-0.4,0-0.7,0.1c-0.2,0-0.4,0-0.6,0.1c-0.2,0-0.5,0.1-0.7,0.1
		c-0.2,0-0.4,0.1-0.6,0.1c-0.3,0-0.5,0.1-0.8,0.1c-0.2,0-0.4,0.1-0.6,0.1c-0.3,0.1-0.6,0.1-1,0.2c-0.2,0-0.3,0.1-0.5,0.1
		c-0.5,0.1-1,0.2-1.6,0.4c-0.5,0.1-1,0.3-1.5,0.4c-0.2,0-0.3,0.1-0.5,0.2c-0.3,0.1-0.6,0.2-0.9,0.3c-0.2,0.1-0.3,0.1-0.5,0.2
		c-0.3,0.1-0.5,0.2-0.7,0.3c-0.2,0.1-0.3,0.2-0.5,0.3c-0.2,0.1-0.4,0.2-0.6,0.4c-0.2,0.1-0.3,0.2-0.4,0.3c-0.2,0.1-0.4,0.3-0.6,0.4
		c-0.1,0.1-0.3,0.2-0.4,0.3c-0.2,0.1-0.3,0.3-0.5,0.4c-0.1,0.1-0.2,0.2-0.4,0.3c-0.1,0.1-0.3,0.3-0.4,0.4c-0.1,0.1-0.2,0.2-0.3,0.4
		c-0.1,0.2-0.3,0.3-0.4,0.5c-0.1,0.1-0.2,0.3-0.3,0.4c-0.1,0.2-0.2,0.3-0.3,0.5c-0.1,0.1-0.2,0.3-0.2,0.4c-0.1,0.2-0.2,0.3-0.2,0.5
		c-0.1,0.1-0.1,0.3-0.2,0.4c-0.1,0.2-0.1,0.3-0.2,0.5c-0.1,0.2-0.1,0.3-0.2,0.5c0,0.2-0.1,0.3-0.1,0.5c0,0.2-0.1,0.3-0.1,0.5
		c0,0.2-0.1,0.3-0.1,0.5c0,0.2-0.1,0.3-0.1,0.5c0,0.1,0,0.3,0,0.4c0,0.2,0,0.4,0,0.5c0,0.1,0,0.3,0,0.4c0,0.2,0,0.4,0,0.6
		c0,0.1,0,0.1,0,0.2c0.1,0.9,0.3,1.8,0.6,2.7c0,0,0,0,0,0c0.1,0.3,0.2,0.5,0.3,0.8c0,0,0,0.1,0.1,0.1c0.1,0.2,0.2,0.5,0.4,0.7
		c0,0.1,0.1,0.1,0.1,0.2c0.1,0.2,0.3,0.5,0.4,0.7c0,0.1,0.1,0.1,0.1,0.2c0.2,0.2,0.3,0.4,0.5,0.7c0.1,0.1,0.1,0.1,0.2,0.2
		c0.2,0.2,0.4,0.4,0.5,0.6c0.1,0.1,0.1,0.1,0.2,0.2c0.2,0.2,0.4,0.4,0.6,0.6c0.1,0.1,0.1,0.1,0.2,0.2c0.2,0.2,0.4,0.4,0.7,0.6
		c0.1,0.1,0.1,0.1,0.2,0.2c0.2,0.2,0.5,0.4,0.7,0.5c0.1,0,0.1,0.1,0.2,0.1c0.3,0.2,0.5,0.3,0.8,0.5c0.1,0,0.1,0.1,0.2,0.1
		c0.3,0.2,0.6,0.3,0.8,0.4c0.1,0,0.1,0.1,0.2,0.1c0.3,0.1,0.6,0.3,0.9,0.4c0.1,0,0.1,0,0.2,0.1c0.3,0.1,0.7,0.2,1,0.4
		c0,0,0.1,0,0.1,0c0.4,0.1,0.8,0.2,1.1,0.3c0.3-0.2,0.7-0.4,1.1-0.4c2.1-0.4,8-1.6,9.8-4.2s4.9-8.2-1.2-10s-8.7-0.2-12,4.9
		c-1.1,1.5-3.4-1.1-2.4-2.5c0,0,3.1-5.2,8.2-5.6c5.1-0.4,10.5,0.9,12.2,6.1c1.7,5.2-1.9,12.6-12.5,13.4c-1.2,0.2-2.1,0.2-2.7,0.2
		c0,0,0,0,0,0c-0.2,0.1-0.3,0.3-0.5,0.5c-0.1,0.1-0.1,0.1-0.2,0.2c-0.1,0.1-0.1,0.1-0.2,0.2c-0.1,0.1-0.2,0.3-0.3,0.4
		c0,0.1-0.1,0.1-0.1,0.2c-0.1,0.2-0.2,0.3-0.3,0.5c0,0,0,0.1-0.1,0.1c-0.1,0.2-0.2,0.3-0.3,0.5c0,0,0,0.1-0.1,0.1
		c-0.1,0.2-0.2,0.4-0.2,0.6c0,0,0,0.1,0,0.1c-0.1,0.2-0.1,0.4-0.1,0.6c0,0,0,0,0,0c0,0.2,0,0.4,0,0.6c0,0,0,0.1,0,0.1
		c0,0.2,0.1,0.4,0.1,0.7c0,0,0,0.1,0,0.1c0.1,0.2,0.2,0.5,0.3,0.7c0.1,0.3,0.3,0.5,0.4,0.8c0,0.1,0.1,0.1,0.1,0.2
		c0.1,0.2,0.2,0.3,0.3,0.5c0,0.1,0.1,0.1,0.1,0.2c0.1,0.1,0.1,0.2,0.2,0.3c0,0.1,0.1,0.1,0.1,0.2c0.1,0.1,0.1,0.2,0.2,0.3
		c0,0.1,0.1,0.1,0.1,0.2c0.1,0.1,0.1,0.1,0.2,0.2c0,0,0.1,0.1,0.1,0.1c0.1,0.1,0.1,0.1,0.2,0.1c0,0,0.1,0.1,0.1,0.1
		c0.1,0,0.1,0.1,0.2,0.1c0,0,0.1,0,0.1,0c0.1,0,0.2,0,0.3,0c0.1,0,0.2,0,0.3,0c0,0,0.1,0,0.1,0c0.1,0,0.2,0,0.3-0.1
		c0,0,0.1,0,0.2-0.1c0.1,0,0.2-0.1,0.3-0.1c0.1,0,0.1,0,0.2-0.1c0.1,0,0.2-0.1,0.3-0.1c0.1,0,0.1-0.1,0.2-0.1
		c0.1-0.1,0.2-0.1,0.4-0.2c0.1,0,0.1-0.1,0.2-0.1c0.2-0.1,0.3-0.2,0.5-0.2c0.3-0.1,0.5-0.3,0.9-0.4c0.2-0.1,0.5-0.2,0.8-0.4
		c0.1,0,0.2-0.1,0.2-0.1c0.2-0.1,0.5-0.2,0.7-0.3c0.1,0,0.1-0.1,0.2-0.1c0.3-0.1,0.6-0.3,1-0.4c0.1,0,0.2-0.1,0.2-0.1
		c0.3-0.1,0.6-0.2,0.8-0.3c0.1,0,0.2-0.1,0.3-0.1c0.4-0.1,0.8-0.3,1.1-0.4c0,0,0,0,0.1,0c0.4-0.1,0.8-0.2,1.2-0.4
		c0.1,0,0.2-0.1,0.3-0.1c0.3-0.1,0.7-0.2,1-0.3c0.1,0,0.2,0,0.3-0.1c0.4-0.1,0.9-0.2,1.3-0.3c0.1,0,0.2,0,0.3-0.1
		c0.4-0.1,0.7-0.1,1.1-0.2c0.1,0,0.3,0,0.4-0.1c0.5-0.1,0.9-0.1,1.4-0.2c0,0,0.1,0,0.1,0c0.4,0,0.9-0.1,1.3-0.1c0.1,0,0.3,0,0.4,0
		c0.1,0,0.3,0,0.4,0c0.1,0,0.3,0,0.4,0c0.4,0,0.7,0,1.1,0c0.2,0,0.5,0,0.7,0.1c0.4,0,0.7,0.1,1.1,0.1c0.2,0,0.5,0.1,0.7,0.1
		c0.4,0.1,0.8,0.2,1.2,0.3c0.2,0,0.4,0.1,0.6,0.1c0.6,0.2,1.2,0.4,1.7,0.6c8.5,3.4,9,10.6-0.2,13.9c-0.5,0.2-1.1,0.4-1.6,0.5
		c-0.2,0.1-0.4,0.1-0.5,0.2c-0.4,0.1-0.7,0.2-1.1,0.3c-0.2,0.1-0.4,0.1-0.6,0.1c-0.4,0.1-0.7,0.2-1.1,0.2c-0.2,0-0.4,0.1-0.6,0.1
		c-0.4,0.1-0.8,0.1-1.2,0.2c-0.2,0-0.3,0.1-0.5,0.1c-0.6,0.1-1.1,0.1-1.7,0.2c-0.1,0-0.1,0-0.2,0c-0.5,0-1,0.1-1.4,0.1
		c-0.2,0-0.4,0-0.5,0c-0.2,0-0.5,0-0.7,0c-0.2,0-0.3,0-0.5,0c-0.1,0-0.2,0-0.3,0c-0.5,0-1,0-1.4-0.1c-0.1,0-0.2,0-0.3,0
		c-0.5,0-1-0.1-1.4-0.2c0,0,0,0-0.1,0c-0.4-0.1-0.9-0.1-1.3-0.2c-0.1,0-0.1,0-0.2,0c-0.4-0.1-0.8-0.2-1.2-0.3c-0.1,0-0.1,0-0.2-0.1
		c-0.4-0.1-0.7-0.3-1.1-0.4c0,0-0.1,0-0.1-0.1c-0.3-0.1-0.6-0.3-0.9-0.5c0,0-0.1,0-0.1-0.1c-0.3-0.2-0.6-0.4-0.8-0.6
		c0,0-0.1-0.1-0.1-0.1c-0.2-0.2-0.5-0.4-0.6-0.6c0,0-0.1-0.1-0.1-0.1c-0.2-0.2-0.4-0.5-0.5-0.7c-0.1-0.1-0.2-0.2-0.3-0.3
		c0,0-0.1,0-0.1-0.1c-0.1-0.1-0.1-0.1-0.2-0.1c0,0-0.1,0-0.1-0.1c-0.1,0-0.1-0.1-0.2-0.1c0,0-0.1,0-0.1,0c-0.1,0-0.1,0-0.2,0
		c0,0-0.1,0-0.1,0c-0.1,0-0.1,0-0.2,0.1c0,0,0,0-0.1,0c-0.1,0-0.2,0.1-0.3,0.2c0,0,0,0-0.1,0.1c-0.1,0.1-0.1,0.1-0.2,0.2
		c0,0-0.1,0.1-0.1,0.1c-0.1,0.1-0.1,0.2-0.2,0.3c0,0-0.1,0.1-0.1,0.1c-0.1,0.1-0.1,0.3-0.2,0.5c0,0,0,0,0,0
		c-0.1,0.2-0.1,0.4-0.2,0.6c0,0.1,0,0.1-0.1,0.2c0,0.2-0.1,0.3-0.1,0.5c0,0.1,0,0.2-0.1,0.2c0,0.2-0.1,0.4-0.1,0.6
		c0,0.1,0,0.1,0,0.2c0,0.3-0.1,0.6-0.1,0.9c0,0.1,0,0.2,0,0.2c0,0.3,0,0.5,0,0.8c0,0.1,0,0.2,0,0.4c0,0.3,0,0.5,0,0.8
		c0,0.1,0,0.2,0,0.4c0,0.4,0,0.8,0.1,1.2c0,0.2,0,0.5,0.1,0.7c0,0.1,0,0.2,0,0.3c0,0.2,0,0.3,0.1,0.5c0,0.1,0,0.2,0,0.3
		c0,0.2,0,0.3,0.1,0.5c0,0.1,0,0.3,0.1,0.4c0,0.2,0.1,0.3,0.1,0.5c0,0.1,0.1,0.3,0.1,0.4c0,0.2,0.1,0.3,0.1,0.5
		c0,0.1,0.1,0.3,0.1,0.4c0,0.2,0.1,0.3,0.1,0.5c0,0.2,0.1,0.3,0.1,0.5c0,0.2,0.1,0.3,0.1,0.5c0,0.2,0.1,0.3,0.1,0.5
		c0,0.2,0.1,0.3,0.1,0.5c0.1,0.2,0.1,0.3,0.2,0.5c0.1,0.2,0.1,0.3,0.2,0.5c0.1,0.2,0.1,0.3,0.2,0.5c0.1,0.2,0.1,0.3,0.2,0.5
		c0.1,0.2,0.1,0.3,0.2,0.5c0.1,0.2,0.1,0.3,0.2,0.5c0.1,0.2,0.2,0.3,0.2,0.5c0.1,0.2,0.1,0.3,0.2,0.5c0.1,0.2,0.2,0.3,0.3,0.5
		c0.1,0.2,0.2,0.3,0.2,0.5c0.1,0.2,0.2,0.3,0.3,0.5c0.1,0.2,0.2,0.3,0.3,0.5c0.1,0.2,0.2,0.3,0.3,0.5c0.1,0.1,0.2,0.3,0.3,0.4
		c0.1,0.2,0.2,0.3,0.3,0.5c0.1,0.1,0.2,0.3,0.3,0.4c0.1,0.2,0.2,0.3,0.4,0.5c0.1,0.1,0.2,0.3,0.3,0.4c0.1,0.2,0.3,0.3,0.4,0.5
		c0.1,0.1,0.2,0.3,0.4,0.4c0.1,0.2,0.3,0.3,0.4,0.4c0.1,0.1,0.3,0.3,0.4,0.4c0.1,0.1,0.3,0.3,0.4,0.4c0.1,0.1,0.3,0.3,0.4,0.4
		c0.2,0.1,0.3,0.3,0.5,0.4c0.2,0.1,0.3,0.2,0.5,0.4c0.2,0.1,0.3,0.3,0.5,0.4c0.2,0.1,0.3,0.2,0.5,0.3c0.2,0.1,0.3,0.2,0.5,0.3
		c0.2,0.1,0.4,0.2,0.5,0.3c0.2,0.1,0.4,0.2,0.5,0.3c0.2,0.1,0.4,0.2,0.6,0.3c0.2,0.1,0.4,0.2,0.6,0.3c0.2,0.1,0.4,0.2,0.6,0.3
		c0.2,0.1,0.4,0.2,0.6,0.2c0.2,0.1,0.4,0.2,0.7,0.2c0.2,0.1,0.4,0.1,0.6,0.2c0.2,0.1,0.5,0.1,0.7,0.2c0.2,0.1,0.4,0.1,0.6,0.2
		c0.3,0.1,0.5,0.1,0.8,0.2c0.2,0,0.4,0.1,0.6,0.1c0.3,0.1,0.7,0.1,1,0.1c0.2,0,0.3,0.1,0.5,0.1c0.5,0.1,1,0.1,1.6,0.1
		c0.1,0,0.2,0,0.3,0c0.5,0,0.9,0,1.4,0c0.6,0,1.2,0,1.8-0.1c0,0,7.7-8.5,16.1-9.1s18.4,0.5,27-3.6c5.8-3.7,13.7-13.9,6-28.1
		c-1.4-2.6-3.4-5.4-6-8.3c0,0,16.6,3.4,18.7,14.6c2.1,11.2-0.2,22.3-13.2,25.1c-13.4,3.7-33.7,5.3-50.1,22.1
		c-16.4,16.8-26.6,32-25.4,59.6s16.9,46.5,28.7,51.6c0,0,0,0,0,0c0,0,0,0,0,0c0,0,0,0.1-0.1,0.1c0,0,0,0,0,0.1
		c0,0.1-0.1,0.1-0.1,0.2c0,0,0,0,0,0c0,0.1-0.1,0.2-0.2,0.3c0,0-0.1,0.1-0.1,0.1c-0.1,0.1-0.1,0.2-0.2,0.3c0,0-0.1,0.1-0.1,0.1
		c-0.1,0.1-0.2,0.3-0.3,0.4c0,0-0.1,0.1-0.1,0.1c-0.1,0.1-0.2,0.3-0.3,0.4c0,0.1-0.1,0.1-0.1,0.2c-0.1,0.1-0.2,0.3-0.3,0.4
		c0,0.1-0.1,0.1-0.1,0.2c-0.1,0.2-0.3,0.4-0.5,0.6c0,0.1-0.1,0.1-0.1,0.2c-0.1,0.1-0.3,0.3-0.4,0.5c-0.1,0.1-0.1,0.1-0.2,0.2
		c-0.1,0.2-0.3,0.3-0.5,0.5c-0.1,0.1-0.1,0.1-0.2,0.2c-0.2,0.2-0.4,0.4-0.6,0.6c-0.1,0.1-0.1,0.1-0.2,0.2c-0.2,0.2-0.3,0.3-0.5,0.5
		c-0.1,0.1-0.2,0.1-0.2,0.2c-0.2,0.2-0.4,0.3-0.6,0.5c0,0-0.1,0.1-0.1,0.1c-0.3,0.2-0.5,0.4-0.8,0.6c-0.1,0.1-0.2,0.1-0.3,0.2
		c-0.2,0.1-0.4,0.3-0.6,0.4c-0.1,0.1-0.2,0.1-0.3,0.2c-0.3,0.2-0.6,0.4-0.9,0.5c0,0,0,0-0.1,0c-0.3,0.2-0.6,0.3-1,0.5
		c-0.1,0-0.2,0.1-0.3,0.1c-0.3,0.1-0.5,0.2-0.8,0.3c-0.1,0-0.2,0.1-0.3,0.1c-0.4,0.1-0.7,0.3-1.1,0.4c0,0-0.1,0-0.1,0
		c-0.3,0.1-0.7,0.2-1,0.3c-0.1,0-0.2,0.1-0.4,0.1c-0.3,0.1-0.6,0.1-0.9,0.2c-0.1,0-0.2,0-0.3,0c-0.4,0.1-0.8,0.1-1.3,0.1
		c-0.1,0-0.2,0-0.2,0c-0.3,0-0.5,0-0.8,0c-0.1,0-0.2,0-0.2,0c-0.3,0-0.6,0-0.8,0c-0.2,0-0.5,0-0.7-0.1c-0.3,0-0.6-0.1-0.9-0.1
		c-0.3,0-0.5-0.1-0.8-0.1c-0.3-0.1-0.6-0.1-0.9-0.2c-0.3-0.1-0.5-0.1-0.8-0.2c-0.3-0.1-0.6-0.2-1-0.3c-0.3-0.1-0.5-0.2-0.8-0.3
		c-0.3-0.1-0.7-0.3-1-0.4c-0.3-0.1-0.5-0.2-0.8-0.3c-0.4-0.2-0.7-0.3-1.1-0.5c-0.3-0.1-0.5-0.2-0.8-0.4c-0.4-0.2-0.9-0.5-1.3-0.7
		c-0.2-0.1-0.5-0.2-0.7-0.4c-0.7-0.4-1.3-0.8-2-1.3c-0.1-0.1-0.2-0.1-0.3-0.2c0,0-0.1,0-0.1,0c-0.1,0-0.1,0-0.2,0
		c-0.1,0-0.2,0-0.3,0c0,0,0,0-0.1,0c-0.1,0-0.1,0-0.2,0.1c0,0-0.1,0-0.1,0c-0.1,0-0.1,0.1-0.2,0.2c0,0,0,0,0,0
		c-0.1,0.1-0.1,0.1-0.2,0.2c0,0,0,0,0,0.1c0,0.1-0.1,0.1-0.1,0.2c0,0,0,0.1,0,0.1c0,0.1,0,0.2,0,0.3c0.4,3.7,0.3,10-3.9,11.8
		c-0.2,0.1-0.5,0.2-0.8,0.3c-0.1,0-0.1,0.1-0.2,0.1c-0.3,0.1-0.5,0.2-0.8,0.3c0,0-0.1,0-0.1,0c-0.3,0.1-0.7,0.2-1,0.3
		c-0.1,0-0.2,0.1-0.3,0.1c-0.3,0.1-0.6,0.2-1,0.3c-0.1,0-0.1,0-0.2,0c-0.4,0.1-0.8,0.2-1.2,0.3c-0.1,0-0.2,0-0.3,0.1
		c-0.3,0.1-0.7,0.1-1,0.2c-0.1,0-0.2,0-0.3,0c-0.4,0.1-0.8,0.1-1.2,0.1c-0.1,0-0.2,0-0.3,0c-0.4,0-0.7,0-1.1,0c-0.1,0-0.1,0-0.2,0
		c-0.1,0-0.1,0-0.2,0c-0.1,0-0.1,0-0.2,0c-0.3,0-0.6,0-0.9,0c0,0,0,0,0,0c-0.3,0-0.6-0.1-0.9-0.1c-0.1,0-0.1,0-0.2,0
		c-0.3,0-0.6-0.1-0.8-0.1c0,0-0.1,0-0.1,0c-0.2-0.1-0.5-0.1-0.7-0.2c-0.1,0-0.1,0-0.2,0c-0.3-0.1-0.5-0.2-0.8-0.3
		c-0.1,0-0.1,0-0.2-0.1c-0.2-0.1-0.5-0.2-0.7-0.3c0,0-0.1,0-0.1,0c-0.2-0.1-0.5-0.3-0.7-0.4c-0.1,0-0.1-0.1-0.2-0.1
		c-0.2-0.2-0.5-0.3-0.7-0.5c0,0,0,0,0,0c-0.2-0.2-0.4-0.4-0.6-0.6c0,0-0.1-0.1-0.1-0.1c-0.2-0.2-0.4-0.4-0.6-0.7
		c0,0-0.1-0.1-0.1-0.1c-0.2-0.2-0.3-0.5-0.5-0.7c0,0-0.1-0.1-0.1-0.1c-0.2-0.3-0.3-0.6-0.5-0.9c0-0.1-0.1-0.1-0.1-0.2
		c-0.1-0.3-0.3-0.6-0.4-0.9c0,0,0,0,0-0.1c-0.1-0.3-0.2-0.7-0.3-1.1c0-0.1,0-0.2-0.1-0.3c-0.1-0.4-0.2-0.8-0.2-1.2c0,0,0-0.1,0-0.1
		c-0.1-0.4-0.1-0.8-0.1-1.2c0-0.1,0-0.2,0-0.3c0-0.5,0-0.9-0.1-1.4c0-0.1,0-0.2,0-0.3C215.2,527.6,215.2,527.2,215.3,526.7z
		 M275.5,323.8l2.5,0.2l4.2,8.1L275.5,323.8z M297.9,331.8c-7.7,0.4-11-2.1-13.4-6.8c0,0,13.7,9.2,23.7-2.4
		C308.1,322.6,305.6,331.4,297.9,331.8z M327,319.2c-1.4,4-6.4,4.4-10.3,3c-4-1.4-10.1-7-17.3-6.1c0,0-0.7,0.2,0.7,1.7
		s1,6.9-6.1,5.1c0,0,2.9-1.8,2.6-3.6s-0.7-3-2.5-3c-1.7,0-6.7,1.6-10.3,3.6c0,0,5.9-6.5,15.3-6.2s17.7,6,17.7,6s1.4,0,1-1.2
		s-1.6-5,2.5-5.9C324.4,311.7,328.4,315.2,327,319.2z"/>
	<path class="st0" d="M515.9,533.9c0.3,0.1,0.6,0.3,0.9,0.4c0.2,0.1,0.4,0.1,0.6,0.2c0.3,0.1,0.5,0.2,0.8,0.3
		c0.2,0.1,0.4,0.1,0.6,0.2c0.2,0.1,0.5,0.2,0.7,0.2c0.2,0.1,0.4,0.1,0.6,0.1c0.2,0.1,0.4,0.1,0.6,0.2c0.2,0,0.4,0.1,0.5,0.1
		c0.2,0,0.4,0.1,0.6,0.1c0.2,0,0.3,0,0.5,0.1c0.2,0,0.4,0,0.6,0.1c0.2,0,0.3,0,0.5,0c0.2,0,0.3,0,0.5,0c0.4,0,0.8,0,1.2-0.1
		c0.1,0,0.2,0,0.3,0c0.3-0.1,0.7-0.1,1-0.2c0.1,0,0.1,0,0.2,0c0.4-0.1,0.7-0.2,1-0.4c0.1,0,0.2-0.1,0.2-0.1c0.3-0.1,0.5-0.3,0.8-0.4
		c0,0,0.1,0,0.1-0.1c0.3-0.2,0.5-0.4,0.8-0.6c0.1-0.1,0.1-0.1,0.2-0.2c0.2-0.2,0.4-0.4,0.6-0.6c0,0,0.1-0.1,0.1-0.1
		c0.2-0.2,0.4-0.5,0.6-0.7c0-0.1,0.1-0.1,0.1-0.2c0.2-0.2,0.3-0.5,0.4-0.7c0,0,0-0.1,0.1-0.1c0.1-0.3,0.3-0.5,0.4-0.8
		c0-0.1,0.1-0.1,0.1-0.2c0.1-0.3,0.2-0.5,0.3-0.8c0,0,0-0.1,0-0.1c0.1-0.3,0.2-0.6,0.2-0.8c0-0.1,0-0.1,0.1-0.2
		c0.1-0.3,0.1-0.5,0.2-0.8c0,0,0,0,0-0.1c0-0.3,0.1-0.5,0.1-0.8c0-0.1,0-0.1,0-0.2c0-0.3,0-0.5,0-0.7c0,0,0,0,0,0c0-0.3,0-0.5,0-0.7
		c0-0.1,0-0.1,0-0.2c0-0.2,0-0.4-0.1-0.6c-0.7-4.8-6.5-10.5-17.8-10.5c-21.3,0.3-23.2,35.9-23.2,35.9h111.6c3.7-37.9-3-51-8.3-60.3
		c-0.7-1.2-1.6-2.4-2.7-3.6s-2.5-2.5-4-3.8c-0.7-0.7-1.5-1.3-2.4-2c-1.6-1.3-3.4-2.6-5.2-4c-0.4-0.3-0.9-0.7-1.4-1
		c-1.4-1-2.7-2-4.1-2.9c-0.5-0.3-0.9-0.6-1.4-1c-4.5-3.2-8.9-6.2-12.1-8.8c-0.3-0.3-0.6-0.5-0.9-0.8c-0.6-0.5-1.1-1-1.6-1.4
		c-0.7-0.7-1.4-1.5-1.9-2.3c-0.2-0.3-0.4-0.6-0.6-0.9c-1.1-1.8-1.9-3.8-2.6-5.9c-2.4-7.6-2.4-16-2.4-16s12.6-5.6,15.6-17.9
		c0.2-0.8,0.3-1.5,0.5-2.3c0.2-1.6,0.4-3.2,0.4-4.8c0-5.7-1.3-11.6-3-17.5c-0.7-2.5-1.6-5-2.4-7.4c-0.6-1.6-1.1-3.2-1.6-4.7
		c-0.3-0.8-0.5-1.5-0.8-2.3s-0.5-1.5-0.7-2.2c-0.6-1.7-1.1-3.2-1.5-4.5c-0.5-1.6-0.9-2.9-1.3-4c-0.2-0.6-0.3-1.1-0.4-1.6
		c-0.2-1-0.4-2-0.4-2.9c0-0.3,0-0.6,0-0.9c0-1.2,0.1-2.5,0.4-4.1c0.1-0.4,0.1-0.7,0.2-1c0-0.1,0.1-0.2,0.1-0.3
		c0.1-0.2,0.2-0.4,0.3-0.6c0-0.1,0.1-0.2,0.2-0.3c0.1-0.2,0.2-0.4,0.4-0.5c0.1-0.1,0.1-0.1,0.2-0.2c0.2-0.2,0.4-0.4,0.6-0.6
		c0,0,0.1,0,0.1-0.1c0.2-0.2,0.4-0.3,0.6-0.4c0.1-0.1,0.2-0.1,0.2-0.1c0.2-0.1,0.3-0.2,0.5-0.3c0.1,0,0.2-0.1,0.3-0.1
		c0.2-0.1,0.4-0.2,0.6-0.2c0.1,0,0.1-0.1,0.2-0.1c0.3-0.1,0.5-0.2,0.8-0.2c0.1,0,0.1,0,0.2,0c0.2,0,0.4-0.1,0.6-0.1
		c0.1,0,0.2,0,0.3,0c0.2,0,0.3-0.1,0.5-0.1c0.1,0,0.2,0,0.2,0c0.2,0,0.4,0,0.5-0.1c0,0,0.1,0,0.1,0c0.2,0,0.4,0,0.6,0
		c0.1,0,0.1,0,0.1,0c0.1,0,0.2,0,0.3,0c0,0,0.1,0,0.1,0c0.1,0,0.1,0,0.2,0c0.1,0,0.2,0,0.3,0c0,0,0.1,0,0.1,0c0.1,0,0.1,0,0.2,0
		c0,0,0,0,0.1,0c0,0,0.1,0,0.1,0c0.3,0.5,0.6,0.9,0.9,1.4c2.5,3.6,4.9,6.2,8,8.2c2.7,1.7,6.1,3,10.5,3.8c0.6,0.1,1.2,0.2,1.8,0.3
		c0.2,0,0.4,0,0.6,0c0.4,0,0.8,0.1,1.2,0.1c0.1,0,0.3,0,0.4,0c0.4,0,0.8,0,1.2-0.1c0.2,0,0.4-0.1,0.6-0.1c0.3,0,0.7-0.1,1-0.2
		c0.2,0,0.4-0.1,0.6-0.1c0.3-0.1,0.6-0.1,0.9-0.2c0.2-0.1,0.4-0.1,0.6-0.2c0.3-0.1,0.6-0.2,0.9-0.3c0.2-0.1,0.4-0.1,0.6-0.2
		c0.3-0.1,0.6-0.2,0.9-0.4c0.2-0.1,0.3-0.1,0.5-0.2c0.3-0.2,0.6-0.3,0.9-0.5c0.1-0.1,0.2-0.1,0.4-0.2c0.4-0.2,0.8-0.5,1.2-0.7
		c0.1,0,0.1-0.1,0.2-0.1c0.3-0.2,0.6-0.4,1-0.6c0.1-0.1,0.3-0.2,0.4-0.3c0.2-0.2,0.5-0.3,0.7-0.5c0.1-0.1,0.3-0.2,0.4-0.3
		c0.2-0.2,0.4-0.3,0.6-0.5c0.1-0.1,0.3-0.2,0.4-0.3c0.2-0.2,0.4-0.3,0.5-0.5c0.1-0.1,0.2-0.2,0.3-0.3c0.2-0.2,0.3-0.3,0.5-0.5
		c0.1-0.1,0.2-0.2,0.3-0.3c0.2-0.2,0.3-0.3,0.5-0.5c0.1-0.1,0.2-0.2,0.2-0.2c0.2-0.2,0.4-0.5,0.6-0.7c0,0,0,0,0,0
		c0.8-1,1.8-2.1,2.8-3.4c1-1.3,2.2-2.7,3.4-4c0.6-0.7,1.2-1.4,1.9-2c0.3-0.3,0.6-0.6,1-0.9c0.7-0.6,1.3-1.2,2-1.7
		c1-0.8,2.1-1.5,3.2-2c0.3-0.1,0.6-0.3,0.9-0.4c0.1,0,0.2-0.1,0.3-0.1c0.2-0.1,0.5-0.2,0.7-0.2c0.1,0,0.1,0,0.2-0.1
		c0.3-0.1,0.5-0.1,0.8-0.2c0.1,0,0.1,0,0.2,0c0.2,0,0.4-0.1,0.6-0.1c0.1,0,0.1,0,0.2,0c0.2,0,0.4,0,0.6-0.1c0,0,0,0,0,0
		c0.2,0,0.3,0,0.5,0c0,0,0,0,0.1,0c0.4,0,0.7,0,1,0.1c0.1,0,0.1,0,0.1,0c0.3,0,0.6,0.1,0.9,0.1c0.3,0.1,0.6,0.1,0.8,0.1
		c0,0,0.1,0,0.1,0c0.3,0,0.5,0.1,0.8,0.1c0,0,0.1,0,0.1,0c0.1,0,0.3,0,0.4,0c0.1,0,0.1,0,0.2,0c0.2,0,0.4-0.1,0.6-0.2
		c2.7-1,0.5-5.5-3.8-6.6c-0.6-0.1-1.3-0.2-1.9-0.3c-0.1,0-0.2,0-0.3,0c-0.6-0.1-1.1-0.1-1.7-0.1c-0.1,0-0.2,0-0.3,0
		c-0.4,0-0.8,0-1.2,0c-0.2,0-0.4,0-0.6,0c-0.5,0-0.9,0.1-1.3,0.1c-0.1,0-0.2,0-0.3,0c-0.5,0.1-1,0.2-1.5,0.3c-0.1,0-0.3,0.1-0.4,0.1
		c-0.3,0.1-0.7,0.2-1,0.3c-0.2,0.1-0.3,0.1-0.5,0.2c-0.3,0.1-0.6,0.2-0.8,0.3c-0.2,0.1-0.3,0.1-0.5,0.2c-0.3,0.1-0.5,0.2-0.8,0.4
		c-0.1,0.1-0.3,0.1-0.4,0.2c-0.3,0.1-0.5,0.3-0.8,0.4c-0.1,0.1-0.2,0.1-0.3,0.2c-0.3,0.2-0.6,0.4-1,0.6c0,0-0.1,0-0.1,0
		c-0.3,0.2-0.7,0.4-1,0.6c-0.1,0.1-0.2,0.1-0.3,0.2c-0.2,0.1-0.4,0.3-0.6,0.4c-0.1,0.1-0.2,0.2-0.3,0.2c-0.2,0.1-0.4,0.3-0.5,0.4
		c-0.1,0.1-0.3,0.2-0.4,0.3c-0.2,0.1-0.3,0.3-0.5,0.4c-0.1,0.1-0.3,0.2-0.4,0.3c-0.1,0.1-0.1,0.1-0.2,0.2c-0.2,0.1-0.4,0.2-0.5,0.3
		c0,0,0,0,0,0c-0.8,0.5-1.4,1.1-1.9,1.7c-0.1,0.1-0.2,0.2-0.3,0.3c-1.1,1.1-2.3,2-5.7,2c-2.7,0-3.5-1.1-3.5-2.2s0.6-2.2,0.6-2.2
		s0,0,0,0c0,0,0,0,0,0c0,0,0,0,0.1,0c0,0,0.1,0,0.1,0c0,0,0.1,0,0.1,0c0.1,0,0.1,0,0.2,0c0,0,0.1,0,0.1,0c0.1,0,0.1,0,0.2,0
		c0.1,0,0.1,0,0.2,0c0.1,0,0.2,0,0.3,0c0.1,0,0.1,0,0.2,0c0.1,0,0.2,0,0.3,0c0.1,0,0.2,0,0.2,0c0.1,0,0.2,0,0.4,0c0.1,0,0.2,0,0.3,0
		c0.1,0,0.2,0,0.3,0c0.2,0,0.3,0,0.5,0c0.1,0,0.2,0,0.3,0c0.2,0,0.3,0,0.5-0.1c0.1,0,0.2,0,0.4-0.1c0.2,0,0.4-0.1,0.5-0.1
		c0.1,0,0.3-0.1,0.4-0.1c0.2,0,0.4-0.1,0.6-0.2c0.1,0,0.3-0.1,0.4-0.1c0.2-0.1,0.4-0.1,0.6-0.2c0.1-0.1,0.3-0.1,0.4-0.2
		c0.2-0.1,0.4-0.2,0.6-0.3c0.1-0.1,0.3-0.1,0.4-0.2c0.2-0.1,0.5-0.3,0.7-0.4c0.1-0.1,0.2-0.1,0.4-0.2c0.4-0.2,0.7-0.5,1.1-0.8
		c5.3-4.5,3.3-8.5,3.3-8.5c-0.2,0.1-0.3,0.1-0.5,0.2c-0.1,0-0.1,0-0.2,0.1c-0.1,0.1-0.3,0.1-0.4,0.2c-0.1,0-0.1,0.1-0.2,0.1
		c-0.1,0-0.3,0.1-0.4,0.1c-0.1,0-0.2,0.1-0.2,0.1c-0.1,0-0.3,0.1-0.4,0.1c-0.1,0-0.2,0-0.3,0.1c-0.2,0-0.3,0.1-0.5,0.1
		c-0.1,0-0.2,0-0.2,0.1c-0.2,0-0.5,0.1-0.7,0.1c0,0,0,0,0,0c-0.3,0-0.5,0.1-0.8,0.1c-0.1,0-0.2,0-0.3,0c-0.2,0-0.4,0-0.6,0
		c0,0-0.1,0-0.1,0c-0.1,0-0.3,0-0.4,0c-0.1,0-0.2,0-0.3,0c-0.3,0-0.6,0-0.9-0.1c0,0,0,0-0.1,0c-0.3,0-0.6-0.1-0.9-0.1
		c-0.1,0-0.2,0-0.3-0.1c-0.2,0-0.4-0.1-0.7-0.1c-0.1,0-0.3-0.1-0.4-0.1c-0.2-0.1-0.4-0.1-0.7-0.2c-0.1,0-0.3-0.1-0.4-0.1
		c-0.3-0.1-0.5-0.1-0.8-0.2c-0.1,0-0.2-0.1-0.4-0.1c-0.4-0.1-0.8-0.3-1.2-0.4c-0.7-0.3-1.5-0.5-2.2-0.7c-0.2-0.1-0.4-0.1-0.5-0.2
		c-0.7-0.2-1.5-0.4-2.2-0.6c0,0-0.1,0-0.1,0c-0.7-0.1-1.4-0.3-2.1-0.4c-0.2,0-0.4-0.1-0.5-0.1c-0.7-0.1-1.4-0.2-2.1-0.3
		c-0.1,0-0.1,0-0.2,0c-0.7-0.1-1.3-0.1-1.9-0.1c-0.2,0-0.3,0-0.5,0c-0.7,0-1.4,0-2.1,0c-0.1,0-0.2,0-0.3,0c-0.6,0-1.2,0.1-1.8,0.1
		c-0.2,0-0.3,0-0.5,0.1c-0.7,0.1-1.3,0.2-2,0.3c-0.1,0-0.1,0-0.2,0c-0.6,0.1-1.2,0.2-1.8,0.4c-0.2,0-0.3,0.1-0.5,0.1
		c-0.7,0.2-1.3,0.3-2,0.5c-0.1,0-0.1,0-0.2,0c-0.6,0.2-1.2,0.4-1.8,0.6c-0.2,0.1-0.3,0.1-0.5,0.2c-0.6,0.2-1.3,0.5-1.9,0.8
		c0,0-0.1,0-0.1,0c-0.6,0.3-1.2,0.5-1.8,0.8c-0.2,0.1-0.3,0.2-0.5,0.2c-0.6,0.3-1.2,0.6-1.8,1c0,0,0,0,0,0c-0.6,0.3-1.2,0.7-1.7,1
		c-0.1,0.1-0.3,0.2-0.4,0.3c-0.6,0.4-1.2,0.8-1.7,1.1c-3.2,2.2-5.9,4.5-8.1,6.9c-0.9,1-1.7,1.9-2.4,2.9c-0.4,0.5-0.7,1-1,1.5
		c-2.3,3.4-3.6,7-4.1,10.7c-0.1,0.5-0.1,1.1-0.2,1.6c-0.3,3.3,0.3,6.2,1.4,9.3c0.2,0.6,0.4,1.3,0.7,1.9c0.2,0.6,0.5,1.3,0.8,2
		c0.4,1,0.9,2.1,1.3,3.2c0.2,0.4,0.3,0.7,0.5,1.1c2.2,5.3,4.7,12,6.4,21.6c0.5,2.7,0.7,5.2,0.8,7.5c0.1,7.4-1.8,12.4-3.9,15.6
		c-2.5,3.7-5.2,5.1-5.2,5.1c-0.4-0.6-0.9-1.3-1.4-1.8c-0.2-0.2-0.3-0.4-0.5-0.6c-0.3-0.4-0.6-0.8-1-1.1c-0.2-0.2-0.4-0.4-0.6-0.6
		c-0.3-0.3-0.6-0.6-0.9-0.9c-0.2-0.2-0.5-0.4-0.7-0.6c-0.3-0.3-0.6-0.5-0.9-0.8c-0.2-0.2-0.5-0.4-0.7-0.5c-0.3-0.2-0.6-0.5-0.9-0.7
		c-0.3-0.2-0.5-0.3-0.8-0.5c-0.3-0.2-0.6-0.4-0.9-0.6c-0.3-0.2-0.5-0.3-0.8-0.4c-0.3-0.2-0.6-0.3-1-0.5c-0.3-0.1-0.6-0.3-0.8-0.4
		c-0.3-0.1-0.6-0.3-1-0.4c-0.3-0.1-0.6-0.2-0.9-0.3c-0.3-0.1-0.7-0.2-1-0.4c-0.3-0.1-0.6-0.2-0.9-0.3c-0.3-0.1-0.7-0.2-1-0.3
		c-0.3-0.1-0.6-0.2-0.9-0.2c-0.3-0.1-0.7-0.2-1-0.2c-0.3-0.1-0.6-0.1-0.9-0.2c-0.3-0.1-0.7-0.1-1-0.2c-0.3,0-0.6-0.1-0.9-0.1
		c-0.3,0-0.6-0.1-1-0.1c-0.3,0-0.6-0.1-0.9-0.1c-0.3,0-0.6-0.1-1-0.1c-0.3,0-0.6,0-0.8-0.1c-0.3,0-0.6,0-0.9-0.1c-0.3,0-0.6,0-0.8,0
		c-0.3,0-0.6,0-0.9,0c-0.3,0-0.5,0-0.8,0c-0.3,0-0.5,0-0.7,0c-0.3,0-0.6,0-0.9,0c-0.2,0-0.5,0-0.7,0c-0.3,0-0.6,0-0.8,0
		c-0.2,0-0.5,0-0.7,0c-0.3,0-0.5,0-0.8,0.1c-0.2,0-0.4,0-0.7,0.1c-0.3,0-0.5,0.1-0.8,0.1c-0.2,0-0.4,0-0.6,0.1
		c-0.2,0-0.5,0.1-0.7,0.1c-0.2,0-0.4,0.1-0.6,0.1c-0.2,0-0.5,0.1-0.7,0.1c-0.2,0-0.4,0.1-0.5,0.1c-0.2,0-0.4,0.1-0.6,0.1
		c-0.2,0-0.3,0.1-0.5,0.1c-0.2,0-0.4,0.1-0.6,0.1c-0.1,0-0.3,0.1-0.4,0.1c-0.2,0-0.4,0.1-0.5,0.1c-0.1,0-0.3,0.1-0.4,0.1
		c-0.2,0-0.3,0.1-0.5,0.1c-0.1,0-0.2,0.1-0.3,0.1c-0.1,0-0.3,0.1-0.4,0.1c-0.1,0-0.2,0-0.3,0.1c-0.1,0-0.2,0.1-0.3,0.1
		c-0.1,0-0.1,0-0.2,0.1c-0.1,0-0.2,0-0.2,0.1c-0.1,0-0.1,0-0.2,0c-0.1,0-0.1,0-0.2,0c0,0-0.1,0-0.1,0c-0.1,0-0.1,0-0.1,0
		c0,0.1,0,0.1-0.1,0.2c-1,5.9-3.3,11.4-6.9,16.5c-3.3,4.7-7.6,8.9-12.8,12.8c-6,4.7-12.2,8-16.8,10c0,0-0.1,0-0.1,0.1
		c-0.4,0.2-0.8,0.3-1.1,0.5c-0.1,0-0.2,0.1-0.2,0.1c-0.3,0.1-0.7,0.3-1,0.4c-0.1,0-0.2,0.1-0.3,0.1c-0.3,0.1-0.6,0.2-0.8,0.3
		c-0.1,0-0.2,0.1-0.3,0.1c-0.3,0.1-0.5,0.2-0.7,0.3c-0.1,0-0.2,0.1-0.2,0.1c-0.2,0.1-0.5,0.2-0.7,0.2c-0.1,0-0.1,0-0.2,0.1
		c-0.2,0.1-0.5,0.2-0.6,0.2l0.1,1.1c0,0.1,0.8,7.3,7.6,22.3l1.8,4.1c0.3,0.5,0.6,1,1,1.5c0,0,0.1,0.1,0.1,0.1
		c0.3,0.4,0.6,0.9,0.9,1.3c0.1,0.1,0.1,0.2,0.2,0.3c0.3,0.4,0.6,0.9,0.9,1.3c0.1,0.1,0.1,0.2,0.2,0.3c0.4,0.5,0.8,1.1,1.2,1.6
		c0.5,0.7,1,1.4,1.6,2.1c0.1,0.1,0.2,0.3,0.4,0.4c0.5,0.7,1.1,1.3,1.6,1.9c0.1,0.1,0.2,0.2,0.3,0.3c0.5,0.6,1,1.1,1.6,1.6
		c0.1,0.1,0.2,0.2,0.3,0.3c0.6,0.6,1.2,1.1,1.8,1.7c0.1,0.1,0.3,0.2,0.4,0.3c0.6,0.5,1.2,1,1.8,1.4c0.1,0,0.1,0.1,0.2,0.1
		c0.6,0.5,1.3,1,1.9,1.4c0.1,0.1,0.3,0.2,0.4,0.3c0.7,0.4,1.3,0.9,2,1.3c0,0,0.1,0.1,0.1,0.1c0.6,0.4,1.3,0.8,1.9,1.1
		c0.1,0.1,0.3,0.2,0.4,0.2c0.7,0.4,1.4,0.7,2,1c0.1,0.1,0.2,0.1,0.4,0.2c0.6,0.3,1.3,0.6,1.9,0.8c0.1,0,0.2,0.1,0.3,0.1
		c0.7,0.3,1.4,0.5,2.1,0.8c0.2,0.1,0.3,0.1,0.5,0.1c0.7,0.2,1.4,0.4,2.1,0.6c0,0,0,0,0.1,0c0.7,0.2,1.4,0.3,2.1,0.5
		c0.2,0,0.3,0.1,0.5,0.1c0.7,0.1,1.4,0.3,2.1,0.3c0.1,0,0.2,0,0.3,0c0.6,0.1,1.3,0.1,1.9,0.2c0.1,0,0.3,0,0.4,0c0.7,0,1.4,0.1,2,0.1
		c0.1,0,0.3,0,0.4,0c0.7,0,1.4,0,2.1-0.1c0,0,0,0,0.1,0c0.7-0.1,1.4-0.1,2.1-0.2c0.1,0,0.3,0,0.4-0.1c0.7-0.1,1.4-0.2,2-0.4
		c0.1,0,0.2-0.1,0.4-0.1c0.7-0.2,1.4-0.4,2-0.6c0.9-0.3,1.8-0.6,2.7-0.8c0,0,0,0,0,0c0.9-0.3,1.8-0.5,2.7-0.7c0,0,0,0,0,0
		c0.9-0.2,1.8-0.4,2.7-0.6c0,0,0,0,0,0c4.5-1,9-1.6,13-1.6c3.2,0,6.1,0.4,8.5,1.2c0.6,0.2,1.2,0.4,1.7,0.7c1.6,0.8,2.8,1.9,3.7,3.2
		c4.5,7.3-3.2,19.4-15.6,27.2c-0.4,0.2-0.8,0.5-1.1,0.7c-0.1,0.1-0.3,0.1-0.4,0.2c-0.2,0.1-0.5,0.2-0.7,0.4
		c-0.2,0.1-0.3,0.1-0.5,0.2c-0.2,0.1-0.4,0.2-0.7,0.3c-0.2,0.1-0.3,0.1-0.5,0.2c-0.2,0.1-0.4,0.1-0.6,0.2c-0.2,0-0.3,0.1-0.5,0.1
		c-0.2,0-0.4,0.1-0.6,0.1c-0.2,0-0.3,0.1-0.5,0.1c-0.2,0-0.4,0.1-0.6,0.1c-0.2,0-0.3,0-0.5,0c-0.2,0-0.4,0-0.6,0c-0.2,0-0.3,0-0.5,0
		c-0.1,0-0.2,0-0.3,0c-0.1,0-0.1,0-0.2,0c-0.5,0-1,0-1.5-0.1c-0.1,0-0.1,0-0.2,0c-0.4,0-0.9-0.1-1.3-0.2c-0.1,0-0.2,0-0.3-0.1
		c-0.5-0.1-0.9-0.2-1.4-0.3c-0.1,0-0.1,0-0.2-0.1c-0.4-0.1-0.8-0.2-1.2-0.4c-0.1,0-0.2-0.1-0.3-0.1c-0.4-0.2-0.9-0.3-1.3-0.5
		c-0.1,0-0.2-0.1-0.2-0.1c-0.4-0.2-0.7-0.3-1-0.5c-0.1,0-0.2-0.1-0.3-0.1c-0.4-0.2-0.8-0.4-1.1-0.6c-0.1,0-0.2-0.1-0.2-0.1
		c-0.3-0.2-0.6-0.3-0.9-0.5c-0.1,0-0.1-0.1-0.2-0.1c-0.3-0.2-0.6-0.4-0.9-0.6c-0.1,0-0.1-0.1-0.2-0.1c-0.3-0.2-0.5-0.3-0.7-0.5
		c0,0-0.1-0.1-0.1-0.1c-0.3-0.2-0.5-0.4-0.7-0.5c-0.1,0-0.1-0.1-0.2-0.1c-0.2-0.2-0.4-0.3-0.6-0.4c0,0,0,0-0.1-0.1
		c-0.2-0.2-0.4-0.3-0.5-0.4c0,0-0.1-0.1-0.1-0.1c-0.1-0.1-0.2-0.2-0.3-0.3c0,0,0,0,0,0c-0.1-0.1-0.2-0.2-0.2-0.2c0,0,0,0,0,0
		c0,0-0.1-0.1-0.1-0.1c0.5,0.3,1,0.5,1.5,0.7C515.5,533.7,515.7,533.8,515.9,533.9z"/>
	<path class="st0" d="M360.6,291.2c8.2,0,17.1-1.2,19.1-1.5c0,0,0,0,0.1,0c0.1,0,0.2-0.1,0.3-0.1c0.3-0.1,0.7-0.2,1-0.3
		c0.1,0,0.2-0.1,0.3-0.1c0.4-0.1,0.7-0.2,1-0.3c0.1,0,0.2-0.1,0.3-0.1c0.3-0.1,0.5-0.2,0.8-0.3c0.1,0,0.1,0,0.2-0.1
		c0.3-0.1,0.5-0.2,0.8-0.3c0.1,0,0.1,0,0.2-0.1c0.2-0.1,0.4-0.2,0.6-0.2c0.6-0.2,1-0.6,1.2-1.2c15.9-34.7,5.4-50.5,0.1-55.7
		c-0.1-0.1-0.2-0.2-0.3-0.2c0,0-0.1,0-0.1,0c-0.1-0.1-0.2-0.1-0.3-0.1c0,0,0,0,0,0c-0.1,0-0.2,0-0.3,0c0,0-0.1,0-0.1,0
		c-0.1,0-0.2,0-0.3,0.1c0,0,0,0,0,0c-0.1,0-0.2,0.1-0.3,0.2c0,0,0,0-0.1,0.1c-0.1,0.1-0.2,0.2-0.3,0.3c0,0,0,0,0,0
		c-0.1,0.1-0.1,0.2-0.2,0.3c0,0,0,0.1,0,0.1c0,0.1-0.1,0.3-0.1,0.4c0,0.9-0.1,1.8-0.1,2.7c0,0.3,0,0.6-0.1,0.9
		c0,0.6-0.1,1.2-0.1,1.8c0,0.3-0.1,0.7-0.1,1c-0.1,0.5-0.1,1-0.2,1.6c-0.1,0.4-0.1,0.7-0.2,1.1c-0.1,0.5-0.2,1-0.2,1.5
		c-0.1,0.4-0.1,0.7-0.2,1.1c-0.1,0.5-0.2,0.9-0.3,1.4c-0.1,0.4-0.2,0.7-0.3,1.1c-0.1,0.5-0.2,0.9-0.3,1.3c-0.1,0.4-0.2,0.7-0.3,1.1
		c-0.1,0.4-0.2,0.9-0.4,1.3c-0.1,0.4-0.2,0.7-0.3,1.1c-0.1,0.4-0.3,0.9-0.4,1.3c-0.1,0.3-0.2,0.7-0.3,1c-0.1,0.4-0.3,0.8-0.4,1.2
		c-0.1,0.3-0.2,0.7-0.4,1c-0.2,0.4-0.3,0.8-0.5,1.2c-0.1,0.3-0.3,0.6-0.4,1c-0.2,0.4-0.3,0.8-0.5,1.2c-0.1,0.3-0.3,0.6-0.4,0.9
		c-0.2,0.4-0.4,0.8-0.6,1.2c-0.1,0.3-0.3,0.6-0.4,0.9c-0.2,0.4-0.4,0.8-0.6,1.2c-0.1,0.3-0.3,0.5-0.4,0.8c-0.2,0.4-0.5,0.9-0.7,1.3
		c-0.1,0.2-0.2,0.4-0.3,0.6c-0.7,1.3-1.4,2.5-2.2,3.7c-0.1,0.2-0.2,0.4-0.4,0.6c-0.2,0.4-0.5,0.8-0.7,1.2c-0.1,0.2-0.3,0.4-0.4,0.7
		c-0.2,0.3-0.5,0.7-0.7,1c-0.2,0.2-0.3,0.5-0.5,0.7c-0.2,0.3-0.4,0.6-0.7,0.9c-0.2,0.2-0.3,0.5-0.5,0.7c-0.2,0.3-0.4,0.6-0.6,0.9
		c-0.2,0.2-0.3,0.4-0.5,0.7c-0.2,0.3-0.4,0.6-0.6,0.8c-0.2,0.2-0.3,0.4-0.5,0.6c-0.2,0.3-0.4,0.5-0.6,0.8c-0.2,0.2-0.3,0.4-0.5,0.6
		c-0.2,0.3-0.4,0.5-0.6,0.7c-0.2,0.2-0.3,0.4-0.5,0.6c-0.2,0.2-0.4,0.5-0.6,0.7c-0.2,0.2-0.3,0.4-0.5,0.6c-0.2,0.2-0.4,0.4-0.6,0.7
		c-0.2,0.2-0.3,0.3-0.5,0.5c-0.2,0.2-0.4,0.4-0.6,0.6c-0.1,0.2-0.3,0.3-0.4,0.5c-0.2,0.2-0.4,0.4-0.6,0.6c-0.1,0.1-0.3,0.3-0.4,0.4
		c-0.2,0.2-0.4,0.4-0.6,0.6c-0.1,0.1-0.2,0.2-0.3,0.3c-0.2,0.2-0.4,0.4-0.6,0.6c-0.1,0.1-0.2,0.2-0.3,0.3c-0.3,0.3-0.5,0.5-0.8,0.8
		c0.2,1.5,0.2,2.6,0.2,2.9v0.1C358.6,291.2,359.5,291.2,360.6,291.2z"/>
	<path class="st0" d="M439.6,525.4c-0.1-0.3-0.1-0.7-0.2-1.1c0-0.1,0-0.2-0.1-0.3c-0.1-0.3-0.1-0.7-0.2-1.1c0-0.1,0-0.1,0-0.2
		c-0.1-0.4-0.2-0.9-0.3-1.4c0-0.1-0.1-0.3-0.1-0.4c-0.1-0.4-0.2-0.8-0.3-1.2c0-0.1-0.1-0.3-0.1-0.4c-0.1-0.5-0.3-1-0.4-1.6
		c0-0.2-0.1-0.3-0.1-0.5c-0.1-0.4-0.2-0.9-0.4-1.3c-0.1-0.2-0.1-0.4-0.2-0.6c-0.2-0.6-0.3-1.2-0.5-1.8c-0.1-0.2-0.1-0.3-0.2-0.5
		c-0.2-0.5-0.3-1-0.5-1.5c-0.1-0.2-0.1-0.4-0.2-0.7c-0.2-0.7-0.5-1.3-0.7-2c-0.1-0.1-0.1-0.3-0.2-0.4c-0.2-0.6-0.5-1.2-0.7-1.8
		c-0.1-0.2-0.2-0.5-0.3-0.7c-0.3-0.6-0.5-1.3-0.8-1.9c-0.1-0.1-0.1-0.2-0.1-0.3c-0.2-0.5-0.4-0.9-0.7-1.4c-0.8-1.8-2.4-5-4.5-8.6
		c-0.1-0.2-0.2-0.4-0.3-0.5c-0.1-0.2-0.3-0.5-0.4-0.7c-0.6-0.9-1.2-1.9-1.8-2.8c-0.8-1.3-1.7-2.6-2.7-3.9
		c-5.6-7.5-13.7-15.3-21.7-21.2c-15.8-11.6-28.3-15.7-32.2-17c-0.6-0.2-1.1-0.3-1.7-0.5c-1.3-0.3-2.6-0.6-3.9-0.9
		c-4-0.8-8.8-1.3-12.2-1.4c-0.5,0-0.9,0-1.4,0c-0.2,0-0.4,0-0.6,0c-0.5,0-1,0-1.5,0c-0.2,0-0.4,0-0.7,0c-0.5,0-0.9,0.1-1.4,0.1
		c-0.2,0-0.4,0-0.6,0c-0.6,0.1-1.3,0.1-1.9,0.2c0,0-0.1,0-0.1,0c-0.6,0.1-1.1,0.2-1.7,0.3c-0.2,0-0.4,0.1-0.5,0.1
		c-0.4,0.1-0.8,0.2-1.3,0.3c-0.2,0-0.4,0.1-0.6,0.1c-0.4,0.1-0.9,0.2-1.3,0.3c-0.1,0-0.3,0.1-0.4,0.1c-0.6,0.2-1.1,0.3-1.6,0.5
		c-0.1,0-0.2,0.1-0.3,0.1c-0.4,0.1-0.9,0.3-1.3,0.4c-0.2,0.1-0.3,0.1-0.5,0.2c-0.4,0.1-0.7,0.3-1.1,0.4c-0.1,0.1-0.3,0.1-0.4,0.2
		c-0.4,0.2-0.9,0.4-1.3,0.6c-0.1,0-0.1,0-0.2,0.1c-0.5,0.2-0.9,0.5-1.4,0.7c-0.1,0.1-0.2,0.1-0.3,0.2c-0.3,0.2-0.7,0.4-1,0.6
		c-0.1,0.1-0.3,0.2-0.4,0.2c-0.3,0.2-0.6,0.4-0.9,0.6c-0.1,0.1-0.2,0.1-0.3,0.2c-0.8,0.5-1.6,1.1-2.3,1.7c-0.1,0.1-0.2,0.2-0.3,0.2
		c-0.3,0.2-0.5,0.4-0.8,0.6c-0.1,0.1-0.2,0.2-0.3,0.3c-0.3,0.2-0.5,0.5-0.8,0.7c-0.1,0.1-0.2,0.1-0.2,0.2c-0.3,0.3-0.7,0.6-1,0.9
		c-0.1,0.1-0.1,0.1-0.2,0.2c-0.3,0.3-0.5,0.5-0.7,0.8c-0.1,0.1-0.2,0.2-0.3,0.3c-0.2,0.2-0.4,0.5-0.6,0.7c-0.1,0.1-0.2,0.2-0.3,0.3
		c-0.2,0.3-0.4,0.5-0.7,0.8c0,0.1-0.1,0.1-0.1,0.2c-0.3,0.3-0.5,0.6-0.7,1c-0.1,0.1-0.1,0.2-0.2,0.3c-0.2,0.2-0.3,0.5-0.5,0.7
		c-0.1,0.1-0.1,0.2-0.2,0.3c-0.2,0.2-0.3,0.5-0.4,0.7c-0.1,0.1-0.1,0.2-0.2,0.3c-0.2,0.3-0.4,0.6-0.6,1c-0.2,0.3-0.3,0.6-0.5,1
		c0,0.1-0.1,0.2-0.1,0.3c-0.1,0.2-0.2,0.5-0.3,0.7c0,0.1-0.1,0.2-0.1,0.3c-0.1,0.2-0.2,0.5-0.2,0.7c0,0.1-0.1,0.2-0.1,0.3
		c-0.1,0.3-0.1,0.7-0.2,1c0,0.1,0,0.1,0,0.2c0,0.3-0.1,0.6-0.1,0.8c0,0.1,0,0.2,0,0.4c0,0.2,0,0.5,0,0.7c0,0.1,0,0.2,0,0.4
		c0,0.3,0,0.5,0,0.8c0,0.1,0,0.2,0,0.2c0,0.3,0.1,0.7,0.1,1c0,0.1,0,0.2,0.1,0.3c0,0.2,0.1,0.5,0.1,0.7c0,0.1,0.1,0.2,0.1,0.4
		c0.1,0.2,0.1,0.4,0.2,0.7c0,0.1,0.1,0.2,0.1,0.3c0.1,0.3,0.2,0.6,0.3,0.8c0,0,0,0.1,0.1,0.1c0.1,0.3,0.3,0.6,0.4,0.9
		c0,0.1,0.1,0.2,0.2,0.3c0.1,0.2,0.2,0.4,0.3,0.6c0.1,0.1,0.1,0.2,0.2,0.3c0.1,0.2,0.2,0.4,0.4,0.6c0.1,0.1,0.1,0.2,0.2,0.3
		c0.2,0.3,0.4,0.5,0.6,0.8c0,0,0.1,0.1,0.1,0.1c0.2,0.2,0.4,0.4,0.5,0.6c0.1,0.1,0.2,0.2,0.2,0.3c0.2,0.2,0.3,0.3,0.5,0.5
		c0.1,0.1,0.2,0.2,0.3,0.3c0.2,0.2,0.4,0.3,0.6,0.5c0.1,0.1,0.1,0.1,0.2,0.2c0.3,0.2,0.5,0.4,0.8,0.6c0.1,0,0.1,0.1,0.2,0.1
		c0.2,0.1,0.4,0.3,0.6,0.4c0.1,0.1,0.2,0.1,0.3,0.2c0.2,0.1,0.4,0.2,0.6,0.3c0.1,0,0.2,0.1,0.3,0.1c0.3,0.1,0.5,0.2,0.8,0.3
		c0.1,0,0.1,0,0.2,0.1c0.3,0.1,0.6,0.2,1,0.3c0.1,0,0.2,0,0.3,0.1c0.2,0,0.5,0.1,0.7,0.1c0.1,0,0.2,0,0.4,0c0.2,0,0.5,0,0.7,0.1
		c0.1,0,0.2,0,0.3,0c0.3,0,0.6,0,0.9,0c0.1,0,0.1,0,0.2,0c0.4,0,0.7-0.1,1.1-0.1c0.1,0,0.2,0,0.3-0.1c0.3-0.1,0.6-0.1,0.8-0.2
		c0.1,0,0.3-0.1,0.4-0.1c0.3-0.1,0.5-0.2,0.8-0.3c0.2-0.1,0.3-0.1,0.5-0.2c0.2-0.1,0.5-0.2,0.8-0.3c0.1-0.1,0.3-0.1,0.5-0.2
		c0.3-0.1,0.5-0.3,0.8-0.4c0.1-0.1,0.3-0.1,0.4-0.2c0.4-0.2,0.8-0.5,1.2-0.8c0,0,0,0,0,0c4.8-3.4,6.4-6.6,6.5-9.3
		c0.1-5.1-5.5-8.4-5.5-8.4h0l0,0c0,0,0,0,0,0c0.2,0,0.4-0.1,0.6-0.1c0.1,0,0.1,0,0.2,0c0.1,0,0.3,0,0.4,0c0,0,0,0,0,0
		c0.1,0,0.2,0,0.4,0c0.1,0,0.1,0,0.2,0c0.2,0,0.4,0,0.6,0.1c0,0,0,0,0.1,0c0.2,0,0.4,0.1,0.7,0.1c0.1,0,0.1,0,0.2,0.1
		c0.2,0,0.3,0.1,0.5,0.1c0.1,0,0.2,0.1,0.2,0.1c0.1,0.1,0.3,0.1,0.4,0.2c0.1,0,0.2,0.1,0.3,0.1c0.1,0.1,0.3,0.1,0.4,0.2
		c0.1,0,0.2,0.1,0.3,0.1c0.1,0.1,0.2,0.1,0.4,0.2c0.1,0.1,0.2,0.1,0.3,0.2c0.1,0.1,0.2,0.2,0.4,0.2c0.1,0.1,0.2,0.1,0.3,0.2
		c0.1,0.1,0.2,0.2,0.3,0.3c0.1,0.1,0.2,0.1,0.3,0.2c0.1,0.1,0.2,0.2,0.3,0.3c0.1,0.1,0.2,0.1,0.2,0.2c0.1,0.1,0.2,0.2,0.3,0.3
		c0.1,0.1,0.2,0.2,0.2,0.2c0.1,0.1,0.2,0.2,0.3,0.3c0.1,0.1,0.1,0.2,0.2,0.2c0.1,0.1,0.2,0.3,0.3,0.4c0.1,0.1,0.1,0.2,0.2,0.3
		c0.1,0.1,0.2,0.3,0.3,0.4c0.1,0.1,0.1,0.2,0.2,0.2c0.1,0.2,0.2,0.3,0.3,0.5c0,0.1,0.1,0.1,0.1,0.2c0.2,0.5,0.5,1,0.6,1.5
		c0,0.1,0,0.1,0.1,0.2c0.1,0.2,0.1,0.4,0.2,0.6c0,0.1,0,0.2,0.1,0.3c0,0.2,0.1,0.4,0.1,0.5c0,0.1,0,0.2,0,0.3c0,0.2,0,0.4,0.1,0.5
		c0,0.1,0,0.2,0,0.4c0,0.2,0,0.3,0,0.5c0,0.1,0,0.3,0,0.4c0,0.2,0,0.4,0,0.5c0,0.1,0,0.3-0.1,0.4c0,0.2-0.1,0.4-0.1,0.5
		c0,0.1-0.1,0.3-0.1,0.4c0,0.2-0.1,0.4-0.1,0.5c0,0.1-0.1,0.3-0.1,0.4c-0.1,0.2-0.1,0.4-0.2,0.6c-0.1,0.1-0.1,0.3-0.2,0.4
		c-0.1,0.2-0.2,0.4-0.2,0.6c-0.1,0.1-0.1,0.3-0.2,0.4c-0.1,0.2-0.2,0.4-0.3,0.6c-0.1,0.1-0.2,0.3-0.2,0.4c-0.1,0.2-0.3,0.4-0.4,0.6
		c-0.1,0.1-0.2,0.3-0.3,0.4c-0.2,0.2-0.3,0.5-0.5,0.7c-0.1,0.1-0.2,0.2-0.3,0.4c-0.3,0.4-0.6,0.7-0.9,1.1c0,0,0,0,0,0
		c-0.4,0.5-0.9,0.9-1.3,1.3c-0.1,0.1-0.2,0.2-0.4,0.3c-0.4,0.3-0.8,0.7-1.2,1c-0.1,0.1-0.2,0.1-0.2,0.2c-0.5,0.4-1,0.7-1.6,1
		c-0.1,0.1-0.3,0.1-0.4,0.2c-0.4,0.2-0.9,0.4-1.4,0.6c-0.1,0.1-0.3,0.1-0.4,0.2c-0.6,0.2-1.2,0.4-1.7,0.6c-0.1,0-0.2,0.1-0.4,0.1
		c-0.5,0.1-1,0.3-1.5,0.4c-0.2,0-0.3,0.1-0.5,0.1c-0.6,0.1-1.2,0.2-1.9,0.3c-0.1,0-0.1,0-0.2,0c-0.6,0-1.2,0.1-1.7,0.1
		c-0.1,0-0.2,0-0.3,0c-0.2,0-0.4,0-0.6,0c-0.1,0-0.2,0-0.2,0c-0.4,0-0.9,0-1.3-0.1c-0.1,0-0.2,0-0.3,0c-0.4,0-0.8-0.1-1.2-0.1
		c-0.1,0-0.1,0-0.2,0c-0.4-0.1-0.9-0.1-1.3-0.2c-0.1,0-0.2,0-0.3-0.1c-0.4-0.1-0.9-0.2-1.3-0.3c0,0,0,0,0,0
		c-0.4-0.1-0.8-0.3-1.3-0.4c-0.1,0-0.2-0.1-0.3-0.1c-0.4-0.1-0.8-0.3-1.2-0.5c-0.1,0-0.1,0-0.2-0.1c-0.4-0.2-0.7-0.3-1.1-0.5
		c-0.1,0-0.2-0.1-0.2-0.1c-0.4-0.2-0.8-0.4-1.2-0.6c-0.1,0-0.1-0.1-0.2-0.1c-0.3-0.2-0.7-0.4-1-0.6c-0.1,0-0.1-0.1-0.2-0.1
		c-0.4-0.2-0.7-0.5-1.1-0.8c-0.1-0.1-0.1-0.1-0.2-0.2c-0.3-0.3-0.7-0.5-1-0.8c0,0,0,0-0.1,0c-0.3-0.3-0.6-0.6-0.9-0.9
		c-0.1-0.1-0.1-0.1-0.2-0.2c-0.3-0.3-0.6-0.7-0.9-1c0,0,0-0.1-0.1-0.1c-0.3-0.3-0.5-0.7-0.7-1c-0.1-0.1-0.1-0.2-0.2-0.2
		c-0.2-0.4-0.5-0.7-0.7-1.1c0-0.1-0.1-0.1-0.1-0.2c-0.2-0.4-0.4-0.7-0.5-1.1c0-0.1-0.1-0.2-0.1-0.2c-0.2-0.4-0.4-0.8-0.5-1.3
		c0-0.1-0.1-0.2-0.1-0.3c-0.1-0.4-0.3-0.8-0.4-1.2c0-0.1,0-0.1,0-0.2c-0.1-0.5-0.2-0.9-0.3-1.4c0-0.1,0-0.2-0.1-0.3
		c-0.1-0.5-0.1-1-0.2-1.5c0,0,0,0,0,0c0,0,0,0,0,0c0-0.6-0.1-1.1-0.1-1.7c0-0.2,0-0.4,0-0.6c0-0.4,0-0.7,0-1.1c0-0.2,0-0.5,0-0.7
		c0-0.3,0-0.6,0.1-1c0-0.3,0.1-0.5,0.1-0.8c0-0.3,0.1-0.6,0.1-0.9c0-0.3,0.1-0.5,0.2-0.8c0.1-0.3,0.1-0.6,0.2-0.8
		c0.1-0.3,0.1-0.6,0.2-0.8c0.1-0.3,0.1-0.5,0.2-0.8c0.1-0.3,0.2-0.6,0.3-0.8c0.1-0.2,0.2-0.5,0.3-0.7c0.1-0.3,0.2-0.6,0.4-0.8
		c0.1-0.2,0.2-0.5,0.3-0.7c0.1-0.3,0.3-0.6,0.4-0.8c0.1-0.2,0.2-0.5,0.4-0.7c0.2-0.3,0.3-0.6,0.5-0.8c0.1-0.2,0.3-0.4,0.4-0.7
		c0.2-0.3,0.4-0.5,0.6-0.8c0.2-0.2,0.3-0.4,0.5-0.6c0.2-0.3,0.4-0.5,0.6-0.8c0.2-0.2,0.3-0.4,0.5-0.6c0.2-0.3,0.5-0.5,0.7-0.8
		c0.2-0.2,0.4-0.4,0.6-0.6c0.2-0.3,0.5-0.5,0.8-0.7c0.2-0.2,0.4-0.4,0.6-0.6c0.3-0.2,0.6-0.5,0.8-0.7c0.2-0.2,0.4-0.4,0.7-0.6
		c0.3-0.2,0.6-0.5,0.9-0.7c0.2-0.2,0.5-0.4,0.7-0.5c0.3-0.2,0.6-0.4,1-0.7c0.3-0.2,0.5-0.4,0.8-0.5c0.3-0.2,0.7-0.4,1-0.6
		c0.3-0.2,0.6-0.3,0.9-0.5c0.4-0.2,0.7-0.4,1.1-0.6c0.3-0.2,0.6-0.3,0.9-0.5c0.4-0.2,0.8-0.4,1.2-0.5c0.3-0.2,0.7-0.3,1-0.5
		c0.4-0.2,0.8-0.3,1.2-0.5c0.4-0.1,0.7-0.3,1.1-0.4c0.4-0.2,0.9-0.3,1.3-0.5c0.4-0.1,0.8-0.3,1.2-0.4c0.4-0.1,0.9-0.3,1.3-0.4
		c0.4-0.1,0.8-0.3,1.3-0.4c0.5-0.1,0.9-0.3,1.4-0.4c0.4-0.1,0.9-0.2,1.3-0.3c0.5-0.1,1-0.2,1.5-0.3c0.5-0.1,0.9-0.2,1.4-0.3
		c0.5-0.1,1-0.2,1.5-0.3c0.5-0.1,1-0.2,1.5-0.3c0.5-0.1,1-0.2,1.6-0.2c0.5-0.1,1.1-0.2,1.6-0.2c0.5-0.1,1.1-0.1,1.6-0.2
		c0.6-0.1,1.1-0.1,1.7-0.2c0.6-0.1,1.1-0.1,1.7-0.2c0.6-0.1,1.2-0.1,1.8-0.1c0.6,0,1.2-0.1,1.8-0.1c0.6,0,1.2-0.1,1.9-0.1
		c0.6,0,1.2,0,1.8-0.1c0.6,0,1.3,0,2-0.1c0.6,0,1.3,0,1.9,0c0.4,0,0.7,0,1.1,0c0.6,0,1.3,0,1.9,0c0,0,0,0,0.1,0c1.3,0,2.5,0,3.8,0
		c0.6,0,1.2,0,1.9,0c0.7,0,1.5,0,2.2,0c0.6,0,1.2,0,1.9,0c0.7,0,1.4,0,2.2,0c0.6,0,1.2,0,1.9-0.1c0.7,0,1.4,0,2.1-0.1
		c0.6,0,1.2-0.1,1.9-0.1c0.7,0,1.4-0.1,2.1-0.1c0.6,0,1.3-0.1,1.9-0.1c0.7,0,1.4-0.1,2.1-0.1c0.6,0,1.2-0.1,1.9-0.1
		c0.7,0,1.4-0.1,2.1-0.1c0.6,0,1.2-0.1,1.8-0.1c0.7-0.1,1.4-0.1,2.1-0.2c0.6-0.1,1.2-0.1,1.8-0.2c0.7-0.1,1.4-0.1,2.1-0.2
		c0.6-0.1,1.2-0.1,1.8-0.2c0.7-0.1,1.4-0.1,2-0.2c0.6-0.1,1.2-0.1,1.8-0.2c0.7-0.1,1.4-0.2,2-0.2c0.6-0.1,1.2-0.1,1.7-0.2
		c0.7-0.1,1.3-0.2,2-0.3c0.6-0.1,1.1-0.2,1.7-0.2c0.7-0.1,1.3-0.2,2-0.3c0.6-0.1,1.1-0.2,1.7-0.3c0.7-0.1,1.3-0.2,2-0.3
		c0.6-0.1,1.1-0.2,1.6-0.3c0.6-0.1,1.3-0.2,1.9-0.3c0.5-0.1,1.1-0.2,1.6-0.3c0.6-0.1,1.3-0.2,1.9-0.4c0.5-0.1,1.1-0.2,1.6-0.3
		c0.6-0.1,1.2-0.2,1.9-0.4c0.5-0.1,1-0.2,1.5-0.3c0.6-0.1,1.2-0.3,1.8-0.4c0.5-0.1,1-0.2,1.5-0.3c0.6-0.1,1.2-0.3,1.8-0.4
		c0.5-0.1,1-0.2,1.5-0.4c0.6-0.1,1.2-0.3,1.7-0.4c0.5-0.1,1-0.2,1.4-0.4c0.6-0.1,1.1-0.3,1.7-0.4c0.5-0.1,0.9-0.3,1.4-0.4
		c0.5-0.2,1.1-0.3,1.6-0.5c0.5-0.1,0.9-0.3,1.4-0.4c0.5-0.2,1.1-0.3,1.6-0.5c0.4-0.1,0.9-0.3,1.3-0.4c0.5-0.2,1-0.3,1.5-0.5
		c0.4-0.1,0.8-0.3,1.3-0.4c0.5-0.2,1-0.3,1.5-0.5c0.4-0.1,0.8-0.3,1.2-0.4c0.5-0.2,0.9-0.4,1.4-0.5c0.4-0.1,0.8-0.3,1.1-0.4
		c0.5-0.2,0.9-0.4,1.4-0.5c0.4-0.1,0.7-0.3,1.1-0.4c0.4-0.2,0.9-0.4,1.3-0.6c0.3-0.1,0.7-0.3,1-0.4c0.4-0.2,0.8-0.4,1.3-0.6
		c0.3-0.1,0.6-0.3,0.9-0.4c0.4-0.2,0.8-0.4,1.2-0.6c0.3-0.1,0.6-0.3,0.8-0.4c0.4-0.2,0.8-0.5,1.3-0.7c0.2-0.1,0.5-0.3,0.7-0.4
		c0.6-0.3,1.2-0.7,1.7-1c0,0,0.1,0,0.1,0c13.4-8.6,22-21,22.2-35c0.1-5.5-1.1-11.2-3.8-17c-2.4-5.3-4.7-9.5-6.7-12.8
		c-2-3.3-3.8-5.7-5.2-7.4c-0.1-0.1-0.2-0.2-0.4-0.3c0,0-0.1,0-0.1,0c-0.1-0.1-0.3-0.1-0.4-0.1c0,0,0,0-0.1,0c-0.1,0-0.2,0-0.4,0
		c0,0-0.1,0-0.1,0c-0.1,0-0.3,0.1-0.4,0.1c0,0-0.1,0-0.1,0c-0.1,0.1-0.2,0.1-0.3,0.2c0,0-0.1,0-0.1,0.1c-0.1,0.1-0.2,0.2-0.2,0.3
		c0,0,0,0,0,0.1c0,0.1-0.1,0.2-0.1,0.4c0,0,0,0.1,0,0.1c0,0.2,0,0.3,0.1,0.5c0.6,2.1,1.3,4.6,1.9,7.5c0.9,4.3,1.6,9.2,1.6,14.3
		c0,0.8,0,1.7-0.1,2.5c-0.1,1.7-0.3,3.4-0.5,5.1c-0.4,2.5-1.1,5-2,7.3c-1.1,2.7-2.6,5.3-4.3,7.6c-0.7,0.9-1.4,1.8-2.2,2.7
		c-1.2,1.4-2.5,2.7-3.9,3.9c-2,1.7-4.1,3.3-6.4,4.7c-0.4,0.2-0.8,0.5-1.2,0.7c-0.6,0.3-1.2,0.7-1.8,1c-2.1,1.1-4.3,2.2-6.5,3
		c-0.4,0.2-0.8,0.3-1.3,0.5c-0.7,0.3-1.4,0.5-2.1,0.8c-1.4,0.5-2.9,0.9-4.3,1.3c-2.6,0.7-5.1,1.2-7.6,1.5c-0.7,0.1-1.3,0.2-2,0.2
		c-0.5,0-1,0.1-1.5,0.1c-16.9,1.2-92,0.5-118,12.5c-6.6,3-12.3,6.6-16.9,10.8c-1.1,1-2.1,1.9-3.1,3c0,0,0,0,0,0
		c-3.9,4-7,8.5-9.2,13.2c-0.4,0.9-0.8,1.8-1.2,2.8c-0.5,1.3-0.9,2.6-1.3,3.9c-0.5,2-0.9,4.1-1.2,6.1c-0.1,0.7-0.1,1.5-0.2,2.2
		c-0.3,4.9,0.2,10,1.5,15.2c0.2,0.8,0.4,1.5,0.6,2.3c0.1,0.2,0.2,0.5,0.2,0.7c0.2,0.5,0.3,1,0.5,1.5c0.1,0.3,0.2,0.6,0.3,0.8
		c0.2,0.4,0.3,0.9,0.5,1.3c0.1,0.3,0.3,0.6,0.4,0.9c0.2,0.4,0.4,0.8,0.6,1.2c0.1,0.3,0.3,0.6,0.5,0.9c0.2,0.4,0.4,0.8,0.6,1.1
		c0.2,0.3,0.3,0.6,0.5,0.8c0.2,0.4,0.4,0.7,0.7,1.1c0.2,0.3,0.4,0.5,0.6,0.8c0.2,0.3,0.5,0.7,0.7,1c0.2,0.3,0.4,0.5,0.6,0.8
		c0.3,0.3,0.5,0.7,0.8,1c0.2,0.3,0.4,0.5,0.6,0.8c0.3,0.3,0.5,0.6,0.8,0.9c0.2,0.2,0.5,0.5,0.7,0.7c0.3,0.3,0.6,0.6,0.9,0.9
		c0.2,0.2,0.5,0.5,0.7,0.7c0.3,0.3,0.6,0.6,0.9,0.9c0.2,0.2,0.5,0.4,0.7,0.7c0.3,0.3,0.6,0.5,1,0.8c0.3,0.2,0.5,0.4,0.8,0.6
		c0.3,0.3,0.7,0.5,1,0.8c0.3,0.2,0.5,0.4,0.8,0.6c0.3,0.2,0.7,0.5,1,0.7c0.3,0.2,0.5,0.4,0.8,0.5c0.4,0.2,0.7,0.5,1.1,0.7
		c0.3,0.2,0.6,0.3,0.8,0.5c0.4,0.2,0.7,0.4,1.1,0.6c0.2,0.1,0.4,0.2,0.6,0.4c8.6,4.1,16.4,7,32.4,6.8c0,0,0,0,0,0
		c21-2.3,30-18.1,30.8-19.6c0-0.1,0.1-0.1,0.1-0.1l0,0c14.9,1.3,24.2,7.5,29.9,14.1c2.1,2.5,3.6,5,4.4,7.3c0.1,0.4,0.2,0.8,0.3,1.2
		c0.3,1.2,0.4,2.3,0.3,3.4c0,0.4-0.1,0.7-0.1,1.1c-0.3,1.7-1.1,3.3-2.5,4.7c-0.2,0.2-0.5,0.5-0.8,0.7c-0.1,0.1-0.2,0.1-0.2,0.2
		c-0.2,0.1-0.4,0.3-0.5,0.4c-0.1,0.1-0.2,0.1-0.3,0.2c-0.2,0.1-0.4,0.2-0.6,0.3c-0.1,0-0.2,0.1-0.3,0.1c-0.3,0.1-0.5,0.2-0.8,0.3
		c0,0,0,0,0,0c-0.3,0.1-0.5,0.1-0.8,0.2c-0.1,0-0.2,0-0.3,0c-0.2,0-0.4,0-0.6,0.1c-0.1,0-0.2,0-0.3,0c-0.1,0-0.1,0-0.2,0
		c-0.1,0-0.2,0-0.2,0c-0.2,0-0.4,0-0.7,0c-0.1,0-0.3,0-0.4,0c-0.2,0-0.5-0.1-0.7-0.1c-0.1,0-0.2,0-0.3-0.1c-0.7-0.2-1.3-0.4-2-0.7
		c-0.1,0-0.2-0.1-0.3-0.2c-0.2-0.1-0.4-0.2-0.6-0.3c-0.1-0.1-0.2-0.1-0.3-0.2c-0.2-0.1-0.4-0.2-0.6-0.4c-0.1-0.1-0.2-0.1-0.3-0.2
		c-0.2-0.1-0.4-0.3-0.6-0.4c-0.1-0.1-0.2-0.1-0.3-0.2c-0.3-0.2-0.5-0.5-0.8-0.7c-0.2-0.2-0.5-0.4-0.7-0.6c-0.1-0.1-0.1-0.1-0.2-0.2
		c-0.1-0.1-0.3-0.3-0.4-0.4c-0.1-0.1-0.1-0.1-0.2-0.2c-0.1-0.1-0.2-0.2-0.3-0.3c-0.1-0.1-0.1-0.1-0.2-0.2c-0.1-0.1-0.2-0.2-0.3-0.2
		c-0.1,0-0.1-0.1-0.2-0.1c-0.1-0.1-0.2-0.1-0.2-0.2c-0.1,0-0.1-0.1-0.2-0.1c-0.1,0-0.1-0.1-0.2-0.1c0,0-0.1-0.1-0.1-0.1
		c-0.1,0-0.1-0.1-0.2-0.1c0,0-0.1,0-0.1,0c-0.1,0-0.1,0-0.2,0c0,0-0.1,0-0.1,0c0,0-0.1,0-0.1,0c0,0-0.1,0-0.1,0c0,0,0,0-0.1,0
		c0,0-0.1,0-0.1,0.1c0,0,0,0-0.1,0.1c0,0-0.1,0.1-0.1,0.1c0,0,0,0.1,0,0.1c0,0,0,0.1-0.1,0.2c0,0,0,0.1,0,0.1c0,0.1,0,0.1-0.1,0.2
		c0,0,0,0.1,0,0.1c0,0.1,0,0.2,0,0.3c0,0,0,0.1,0,0.1c0,0.1,0,0.3-0.1,0.5c0,0.1,0,0.2,0,0.3c0,0,0,0.1,0,0.1c0,0.1,0,0.2,0,0.2
		c0,0,0,0.1,0,0.1c0,0.1,0,0.2,0,0.2c0,0.1,0,0.1,0,0.2c0,0.1,0,0.2,0,0.3c0,0.1,0,0.1,0,0.2c0,0.1,0,0.2-0.1,0.3
		c0,0.1,0,0.2-0.1,0.2c0,0.1,0,0.2-0.1,0.3c0,0.1,0,0.2-0.1,0.3c0,0.1,0,0.2-0.1,0.3c0,0.1,0,0.2-0.1,0.3c0,0.1-0.1,0.2-0.1,0.3
		c0,0.1-0.1,0.2-0.1,0.3c0,0.1-0.1,0.2-0.1,0.3c0,0.1-0.1,0.2-0.1,0.3c0,0.1-0.1,0.2-0.1,0.3c0,0.1-0.1,0.2-0.1,0.3
		c0,0.1-0.1,0.2-0.1,0.3c0,0.1-0.1,0.2-0.1,0.3c0,0.1-0.1,0.2-0.1,0.3c0,0.1-0.1,0.2-0.1,0.3c-0.1,0.1-0.1,0.2-0.2,0.4
		c-0.1,0.1-0.1,0.2-0.2,0.3c-0.1,0.1-0.1,0.2-0.2,0.4c-0.1,0.1-0.1,0.2-0.2,0.3c-0.1,0.1-0.1,0.2-0.2,0.4c-0.1,0.1-0.1,0.2-0.2,0.3
		c-0.1,0.1-0.2,0.3-0.3,0.4c-0.1,0.1-0.1,0.2-0.2,0.3c-0.1,0.2-0.3,0.4-0.4,0.7c-0.1,0.1-0.1,0.2-0.2,0.3c-0.1,0.1-0.2,0.3-0.3,0.4
		c-0.1,0.1-0.2,0.2-0.2,0.3c-0.1,0.1-0.2,0.2-0.3,0.4c-0.1,0.1-0.2,0.2-0.3,0.3c-0.1,0.1-0.2,0.2-0.3,0.3c-0.1,0.1-0.2,0.2-0.3,0.3
		c-0.1,0.1-0.2,0.2-0.3,0.3c-0.1,0.1-0.2,0.2-0.3,0.2c-0.1,0.1-0.2,0.2-0.4,0.3c-0.1,0.1-0.2,0.2-0.3,0.2c-0.1,0.1-0.3,0.2-0.4,0.3
		c-0.1,0.1-0.2,0.1-0.3,0.2c-0.1,0.1-0.3,0.2-0.4,0.2c-0.1,0.1-0.2,0.1-0.4,0.2c-0.1,0.1-0.3,0.1-0.4,0.2c-0.1,0.1-0.3,0.1-0.4,0.2
		c-0.2,0.1-0.3,0.1-0.5,0.2c-0.1,0-0.3,0.1-0.4,0.1c-0.2,0.1-0.3,0.1-0.5,0.1c-0.1,0-0.3,0.1-0.4,0.1c-0.2,0-0.4,0.1-0.5,0.1
		c-0.1,0-0.3,0.1-0.4,0.1c-0.2,0-0.4,0.1-0.6,0.1c-0.2,0-0.3,0-0.5,0c-0.2,0-0.4,0-0.6,0c-0.2,0-0.3,0-0.5,0c0,0-0.1,0-0.1,0
		c-0.2,0-0.4,0-0.7,0c-0.1,0-0.3,0-0.4,0c-0.4,0-0.8-0.1-1.2-0.1c-13.7-1.7-10-14.7-10-14.7c0.1,0.4,0.3,0.8,0.5,1.2
		c0.1,0.1,0.1,0.2,0.2,0.4c0.1,0.2,0.2,0.5,0.4,0.7c0.1,0.1,0.2,0.3,0.2,0.4c0.1,0.2,0.3,0.4,0.4,0.6c0.1,0.1,0.2,0.3,0.3,0.4
		c0.1,0.2,0.3,0.4,0.4,0.5c0.1,0.1,0.2,0.2,0.3,0.4c0.2,0.2,0.3,0.3,0.5,0.5c0.1,0.1,0.2,0.2,0.3,0.3c0.2,0.2,0.4,0.3,0.5,0.5
		c0.1,0.1,0.2,0.2,0.3,0.3c0.2,0.2,0.5,0.4,0.7,0.5c0.1,0,0.1,0.1,0.2,0.1c0.3,0.2,0.6,0.4,0.9,0.6c0.1,0.1,0.2,0.1,0.3,0.1
		c0.2,0.1,0.5,0.2,0.7,0.4c0.1,0.1,0.2,0.1,0.4,0.2c0.2,0.1,0.4,0.2,0.6,0.3c0.1,0.1,0.3,0.1,0.4,0.1c0.2,0.1,0.4,0.1,0.6,0.2
		c0.1,0,0.3,0.1,0.4,0.1c0.2,0.1,0.4,0.1,0.6,0.1c0.1,0,0.2,0.1,0.4,0.1c0.2,0,0.4,0.1,0.6,0.1c0.1,0,0.2,0,0.3,0c0.2,0,0.4,0,0.6,0
		c0.1,0,0.2,0,0.3,0c0.2,0,0.4,0,0.6,0c0.1,0,0.2,0,0.3,0c0.3,0,0.5-0.1,0.8-0.1c4-1,8.7-7.2,5.5-13.9c-0.1-0.2-0.2-0.5-0.4-0.7
		c0-0.1-0.1-0.1-0.1-0.2c-0.1-0.2-0.2-0.3-0.3-0.4c-0.1-0.1-0.1-0.2-0.2-0.2c-0.1-0.1-0.2-0.3-0.3-0.4c-0.1-0.1-0.1-0.2-0.2-0.2
		c-0.1-0.1-0.3-0.3-0.4-0.4c-0.1-0.1-0.1-0.1-0.2-0.2c-0.2-0.1-0.3-0.3-0.5-0.4c-0.1-0.1-0.1-0.1-0.2-0.2c-0.2-0.2-0.5-0.4-0.7-0.5
		c0,0-0.1,0-0.1-0.1c-0.2-0.2-0.5-0.3-0.7-0.4c-0.1-0.1-0.2-0.1-0.3-0.1c-0.2-0.1-0.4-0.2-0.6-0.3c-0.1-0.1-0.2-0.1-0.3-0.2
		c-0.2-0.1-0.4-0.2-0.6-0.3c-0.1,0-0.2-0.1-0.3-0.1c-0.2-0.1-0.4-0.2-0.6-0.2c-0.1,0-0.2-0.1-0.3-0.1c-0.3-0.1-0.5-0.2-0.8-0.2
		c-0.1,0-0.1,0-0.2-0.1c-0.3-0.1-0.7-0.2-1.1-0.3c-0.1,0-0.1,0-0.2,0c-0.3-0.1-0.6-0.1-0.9-0.2c-0.1,0-0.3,0-0.4-0.1
		c-0.2,0-0.5-0.1-0.8-0.1c-0.1,0-0.3,0-0.4,0c-0.2,0-0.5,0-0.7-0.1c-0.1,0-0.3,0-0.4,0c-0.3,0-0.5,0-0.8,0c-0.1,0-0.3,0-0.4,0
		c-0.5,0-1.1,0-1.6,0.1c-0.1,0-0.2,0-0.3,0c-0.6,0-1.1,0.1-1.7,0.2c0,0-0.1,0-0.1,0c-0.5,0.1-1.1,0.2-1.6,0.3c-0.1,0-0.2,0-0.3,0.1
		c-0.6,0.1-1.1,0.3-1.7,0.5c-0.1,0-0.2,0.1-0.4,0.1c-0.6,0.2-1.2,0.4-1.7,0.6c0,0-0.1,0-0.1,0c-0.6,0.2-1.1,0.5-1.7,0.8
		c-0.1,0.1-0.2,0.1-0.3,0.2c-0.6,0.3-1.1,0.6-1.7,0.9c-0.1,0.1-0.2,0.1-0.3,0.2c-0.6,0.4-1.2,0.7-1.7,1.2c-12.5,9-5,30.5-5,30.5
		l94.4-1.2C440.8,543.3,440.6,531.6,439.6,525.4z"/>
	<path class="st0" d="M373.6,443.5c-0.1,0-0.1,0-0.1,0.1c13,4,24.6,10.3,34.7,18.9c0.1,0,0.1,0,0.2,0c1-1.1,2.4-1.7,3.9-1.8
		c4.5-0.2,16.9-1.2,38.7-5.9c9.5-2.8,19-6.7,27.1-11.9c0,0,0,0,0,0c1.2-0.7,2.3-1.5,3.4-2.3c7.5-6,14.7-14.5,17.7-26.1c0,0,0,0,0,0
		c0.3-1.5,0.4-3,0.5-4.6c0,0,0,0,0-0.1c0-0.8,0-1.5,0-2.3c0-0.1,0-0.1,0-0.2c0-0.7,0-1.5-0.1-2.2c0-0.1,0-0.2,0-0.3
		c0-0.7-0.1-1.4-0.2-2.1c0-0.1,0-0.3,0-0.4c-0.1-0.7-0.2-1.4-0.3-2.1c0-0.2-0.1-0.4-0.1-0.6c-0.1-0.7-0.3-1.4-0.4-2.1
		c0-0.2-0.1-0.4-0.1-0.6c-0.2-0.9-0.5-1.8-0.7-2.8c0-0.2-0.1-0.3-0.2-0.4c0,0-0.1-0.1-0.1-0.1c-0.1-0.1-0.1-0.1-0.2-0.2
		c0,0-0.1,0-0.1-0.1c-0.1,0-0.1-0.1-0.2-0.1c-0.1,0-0.1,0-0.2,0c-0.1,0-0.1,0-0.2,0c-0.1,0-0.1,0-0.2,0c-0.1,0-0.1,0-0.2,0
		c-0.1,0-0.1,0.1-0.2,0.1c0,0-0.1,0-0.1,0.1c-0.1,0-0.1,0.1-0.2,0.2c0,0-0.1,0.1-0.1,0.1c-0.1,0.1-0.1,0.2-0.2,0.4
		c-3.9,12.8-23.4,48.6-121.4,49.3C373.7,443.5,373.6,443.5,373.6,443.5z"/>
	<path class="st0" d="M322.1,160.4c1.1-0.1,1.7-0.1,1.9-0.3c8.9-5.3,15.8-10.2,20.6-14.7c4.8-4.4,7.2-6.8,7.3-7.1
		c0.2,8.7,0.2,12.8,0.1,12.2c0.1,3.6,0.2,5.3,0.2,5.2c-0.1,3.4,0.3,5.5,1.3,6.2c1,0.7,1.5,1,1.7,0.9c0.9-1,1.5-2.4,1.6-4.2
		c0.1-1.8,0.2-2.9,0.2-3.1c-0.5-2.4-0.8-5.8-0.9-10c-0.1-4.3-0.2-6.6-0.2-7.1c1.7,1,3.9,2.4,6.5,4.3c2.6,1.9,5.2,3.9,7.7,5.9
		c2.6,2,4.7,3.7,6.4,5.1c1.7,1.4,2.6,2.1,2.7,2.2c1.8,1.5,4,1.9,6.7,1c2.7-0.9,4.2-1.4,4.5-1.7c0.8-0.8,1.1-1.1,0.9-1.1
		c-0.3-0.6-0.7-0.9-1-0.9c-8.4-2.7-15.6-5.8-21.7-9.4c-6.1-3.6-9.3-5.5-9.5-5.9c6.8-0.2,10.2-0.5,10.1-0.7c2-0.7,3.3-1.7,3.8-3.3
		c0.5-1.5,0.7-2.4,0.6-2.6c-0.3-4.3-0.3-7.4,0-9.1c0.2-1.7,0.4-2.6,0.4-2.5c0-1.4-0.9-2.5-2.6-3.2c-1.7-0.7-2.7-1.1-3-1.2
		c-0.8,0.2-3.2,0.4-7,0.6c-3.8,0.2-6,0.3-6.5,0.2l-0.2-4.6c4.8,0,8.9,0.1,12.5,0c3.5,0,5.4,0,5.6,0c1.6-0.2,2.8-0.6,3.5-1.4
		c0.7-0.8,1-1.2,1-1.3c0.2-0.7,0.2-1.1,0-1.1c-0.3-0.5-0.7-0.7-1-0.6c-3.3,0.6-7.6,1-12.9,1.2c-5.3,0.2-8.3,0.2-8.8,0.2
		c-0.1-2.5,0-4,0.3-4.3c-0.4-1.2-0.9-2-1.6-2.4c-0.7-0.4-1-0.6-1.1-0.6c-1.1,0.2-1.6,0.8-1.8,1.7c-0.1,0.9-0.1,1.4,0,1.6l0.1,4.3
		c-5.5,0.2-10.4,0.4-14.7,0.5c-4.3,0.1-6.5,0.2-6.7,0.2c-2.5,0.8-4.1,1.6-4.8,2.5c-0.7,0.9-1.1,1.3-0.9,1.4c0.4,0.9,1.4,1.4,2.9,1.3
		c1.6-0.1,2.4-0.2,2.7-0.3c3.8-0.8,8.2-1.4,13.3-1.8c5.1-0.4,7.9-0.6,8.4-0.6l0.2,4.9c-0.4,0.1-1,0.2-1.7,0.3
		c-0.7,0.1-1.1,0.2-1.1,0.2c-7.7,0.2-11.2,0.2-10.6,0c-2.5,0.2-3.9,0.9-4.2,2c-0.3,1.1-0.4,1.7-0.3,1.8c0.3,6.8,0.8,11.4,1.5,13.8
		c0.7,2.4,1.1,3.5,1.2,3.3c1.1,1.5,2.2,2.2,3.4,2c1.2-0.2,1.8-0.4,1.9-0.5c0.3-0.2,1.3-0.3,2.9-0.5c1.6-0.2,2.8-0.3,3.4-0.4
		c-4.7,4.3-10,8.2-15.7,11.7c-5.8,3.4-8.9,5.2-9.4,5.4c-1.6,0.7-2.4,1.5-2.6,2.2c-0.2,0.7-0.2,1.1-0.1,1.1
		C320.1,159.9,321,160.4,322.1,160.4z M369.5,130.1c-0.1,1.5-0.4,2.5-1.2,3c-0.7,0.4-1.3,0.7-1.7,0.6c-2.4,0.5-4.7,0.8-7.1,1
		c-2.4,0.2-3.6,0.2-3.8,0.2l-0.2-6.5c8.9-0.7,13.6-1,14-0.8C369.5,129.5,369.5,130.3,369.5,130.1z M366.6,119.1
		c1.1,0.2,1.8,0.7,2.1,1.3c0.3,0.6,0.5,1,0.5,1c0,1.3,0.1,2.2,0.1,2.5c-1.7,0.1-4.2,0.3-7.3,0.6c-3.1,0.3-4.8,0.4-5.1,0.5
		c-1.1,0-1.6,0.1-1.6,0.1l-0.2-5.6C362.5,119.2,366.3,119.1,366.6,119.1z M337.3,125.2c-0.1-0.7-0.1-1,0-1.2c-0.2-1.3,0.2-2.1,1-2.5
		c0.8-0.4,1.5-0.6,2-0.6c1.5-0.3,3.6-0.6,6.3-0.7c2.7-0.2,4.2-0.3,4.5-0.3l0.2,5.2c-4.9,0.4-8.1,0.7-9.5,0.8c-1.4,0.1-2,0.1-1.8,0.1
		C338.4,126.1,337.4,125.9,337.3,125.2z M343.9,135.6c-1.5,0.1-2.7,0.1-3.7,0.1c-1.3-0.2-2.1-0.8-2.3-1.7c-0.2-0.9-0.3-1.5-0.2-1.7
		c-0.3-1.3,0.2-2.1,1.2-2.4c1.1-0.3,1.9-0.5,2.5-0.4c0.5,0,2.2-0.2,5.1-0.5c2.9-0.3,4.6-0.5,5-0.5l0.2,6.5
		C348,135.3,345.3,135.5,343.9,135.6z"/>
	<path class="st0" d="M469.8,162.4c-5.7-4.8-9.2-8-10.7-9.6c-1.5-1.6-2.1-2.3-1.9-2.2c-1.7-0.9-3.3-1.2-4.6-0.9
		c-1.3,0.4-2,0.6-2.1,0.7c-0.9,1-1,1.9-0.4,2.7c0.6,0.8,1,1.3,1.1,1.3c0.7,0.6,1.6,1.3,2.7,2c1.1,0.7,1.7,1.1,1.8,1.2
		c8.3,4.4,12.6,6.4,12.7,6c1.2,0.2,1.7,0.3,1.6,0C470.2,162.9,470.1,162.5,469.8,162.4z"/>
	<path class="st0" d="M435.4,115c0.3,2,0.5,3.1,0.6,3.2c0.7,2,1.6,3.1,2.7,3.3c1.1,0.2,1.7,0.2,1.9,0c1.6-0.7,2.4-1.1,2.6-1.2
		c0.8,0,2.3,0.1,4.5,0.1c2.2,0.1,3.5,0.1,3.8,0.1c2.5,0.1,3.8,0.1,4,0.1c1.9-0.1,3.2-0.6,3.8-1.7c0.6-1.1,0.9-1.7,0.9-1.8
		c0.8-4.4,1.3-6.8,1.6-7.3c0.2-2.1-0.3-3.4-1.5-4.2c-1.2-0.7-1.9-1.1-2-1c-7.9,0-13-0.2-15.4-0.4c-2.4-0.2-3.4-0.3-3.2-0.4
		c-2.4-0.1-3.8,0.4-4.2,1.5c-0.4,1.1-0.5,1.7-0.3,1.9C434.9,110.3,435.1,113,435.4,115z M439.4,109.2c0.2-0.7,0.7-1.2,1.5-1.4
		c0.8-0.3,1.3-0.4,1.4-0.4c3.5,0.1,5.4,0.1,5.7,0.1c3.6,0.1,5.7,0.1,6.4,0.2c0.9,0.4,1.5,0.9,1.8,1.6c0.3,0.7,0.5,1.1,0.5,1.1
		c-0.1,2.6-0.1,4.1-0.1,4.3c-0.4,1.1-0.9,1.8-1.6,1.9c-0.7,0.2-1.1,0.3-1.1,0.2c-3.4-0.1-6.3-0.2-8.7-0.2c-2.3-0.1-3.5-0.1-3.6-0.1
		c-1.7-0.6-2.4-1.1-2-1.6c-0.2-0.9-0.3-2-0.3-3.4C439.3,110.1,439.3,109.3,439.4,109.2z"/>
	<path class="st0" d="M412.2,148.3c1.4-0.4,2.2-0.6,2.4-0.8c4.4-1.3,9.6-2.3,15.8-2.8c6.2-0.6,9.6-0.8,10.2-0.8
		c0.8,0.7,1,1.1,0.8,1.4c-3.4,4.3-7.4,7.2-11.9,8.8c-4.5,1.6-6.9,2.3-7.3,2.2c-1.5,0.7-2.4,1.4-2.6,2.2c-0.2,0.8-0.3,1.3-0.2,1.3
		c0.4,1,1.2,1.6,2.5,1.8c1.2,0.2,1.9,0.2,2.1,0.2c8-2.2,13.7-5.6,17.1-10c3.4-4.4,5-6.9,4.9-7.5c0.4-0.8,0.8-1.1,1.1-0.9
		c8.2,0.6,15,1.8,20.2,3.5c5.2,1.7,7.9,2.7,8.1,2.9c2.3,0,4.2-0.7,5.7-2.1c1.5-1.4,2.3-2.2,2.3-2.5c0-1.3-0.3-1.9-0.9-1.9
		c-2.9-0.1-5.4-0.2-7.5-0.5c-2.2-0.2-3.3-0.4-3.4-0.4c-4.8-0.5-7-0.8-6.8-0.8c-0.7,0-1.1,0-1.1,0c0.2-0.5,0.3-0.9,0.5-1.1
		c0.7-1.3,1.3-2.6,1.8-4s0.8-2.1,0.8-2.2c0.1-0.4,0.3-0.8,0.7-1.3c0.4-0.5,0.7-0.8,0.8-0.9c0-1.7-0.9-2.9-2.7-3.6
		c-1.9-0.7-2.9-1.1-3.2-1.1c-4.1-0.2-8.9-0.2-14.4-0.1c-5.5,0.1-8.6,0.2-9.1,0.2c-5.3,0-8.2,0-8.7-0.1c-1.2-0.1-1.9-0.3-2.1-0.8
		c-0.2-0.5-0.3-0.7-0.3-0.8c-0.1-3.1-0.1-5.9-0.1-8.6c0-2.6,0-4.1,0-4.3c-0.8-1.6-1.8-2.6-2.9-3c-1.1-0.5-1.7-0.7-1.8-0.7
		c-1.1,0.8-1.6,1.7-1.5,2.8c0.1,1,0.3,1.6,0.4,1.6c1.1,4.4,1.8,8,2.1,10.9c0.3,2.8,0.4,4.2,0.4,4.3c0.5,2.8,1.5,4.3,3,4.3
		c1.5,0.1,2.4,0,2.6-0.2c2.4-1,5-1.6,7.7-1.7c2.8-0.1,4.3-0.2,4.5-0.2c0.8,0.3,1.2,0.6,1.3,0.8c-0.3,5.9-0.5,8.7-0.7,8.2
		c-0.3,0.9-0.6,1.3-0.8,1.1c-3.6,0.1-6.8,0.2-9.7,0.2c-2.9,0-4.5,0.1-4.6,0c-4.1,0.1-7.6,0.2-10.4,0.4c-2.8,0.1-4.3,0.2-4.4,0.2
		c-2.2,0.9-3.6,2-4,3.3c-0.4,1.3-0.6,2-0.4,2.1C409.5,148.3,410.7,148.6,412.2,148.3z M446.7,138.2c0.1-0.8,0.1-1.3,0.2-1.4
		c0.4-3.5,0.5-5.3,0.4-5.2c0.5-0.9,1-1.4,1.5-1.4c5.8,0,8.9,0.1,9.5,0.2c1.4,0.6,2.3,1.3,2.6,2.2c0.3,0.9,0.4,1.4,0.4,1.5
		c-0.2,4.4-0.4,6.5-0.5,6.2c-0.7,0.8-1,1.1-1,0.8c-3-0.1-5.8-0.1-8.3-0.2c-2.5-0.1-3.8-0.1-3.9-0.1c-0.7-0.3-0.9-0.6-0.8-0.8
		C446.7,139.7,446.7,139.1,446.7,138.2z"/>
	<path class="st0" d="M557,438.1c0.4,5.4,1.8,14.7,5.8,18.6c2.6,2.5,7.4,5.8,12.5,9.4c3.7,2.6,7.5,5.2,10.9,7.9V371.1
		c-0.5-0.1-1.1-0.1-1.6-0.2c-10.8-2.1-16.1-6.4-21-13.3c-1,0.1-2,0.5-2.1,1.2c-0.7,4.6-0.5,5.5,3.1,15.8l0.7,2.1
		c0.4,1.1,0.8,2.2,1.1,3.3c4.2,12.1,9,25.9,6,38.5C569.8,428.9,561.5,435.3,557,438.1z"/>
	<path class="st0" d="M707.6,626.4l-49.1-17.6l2-45.5c0,0-14.3,11-81,37.9l8,19.9c0,0-83.1,32.4-187.4,32.5
		c-104.4-0.1-187.4-32.5-187.4-32.5l8-19.9c-66.7-26.9-81-37.9-81-37.9l2,45.5l-49.1,17.6c27.2,17.3,52.8,25.2,52.8,25.2l-12.3,20.3
		c111,54.8,255.3,53.5,267.1,53.5c11.8,0.1,156.1,1.4,267.1-53.5l-12.3-20.3C654.8,651.6,680.4,643.7,707.6,626.4z M658,664.1
		c0,0-96.7,51.6-257.5,51.8v0c-0.2,0-0.3,0-0.5,0c-0.2,0-0.3,0-0.5,0v0C238.7,715.7,142,664.1,142,664.1l11.5-20.9
		c-17.9-6.5-42.8-19.9-42.8-19.9l33.9-12l-1-33.4c20.3,13.9,54.5,25.9,54.5,25.9s-18.1,2.7-24.4,5.1c-6.3,2.5-2.5,9.3,1.3,10.8
		c115.1,46,213.8,45.5,224.6,45.3v0c0,0,0.2,0,0.5,0c0.3,0,0.5,0,0.5,0v0c10.8,0.2,109.5,0.7,224.6-45.3c3.8-1.5,7.6-8.3,1.3-10.8
		c-6.3-2.5-24.4-5.1-24.4-5.1s34.2-12,54.5-25.9l-1,33.4l33.9,12c0,0-24.9,13.4-42.8,19.9L658,664.1z"/>
	<path class="st0" d="M200.1,645.4c-1.2-0.7-2.4-1.2-3.6-1.7c-2-0.8-4-1.3-5.8-1.6s-3.4-0.3-4.8-0.2s-2.6,0.6-3.5,1.2
		c-1,0.6-1.6,1.4-2,2.3c-0.4,1-0.5,1.9-0.4,2.7c0.1,0.9,0.4,1.7,1,2.4s1.2,1.5,2.1,2.1c0.9,0.6,1.9,1.2,3,1.7c1.1,0.5,2.2,1,3.3,1.4
		c1.1,0.5,2,0.9,2.9,1.2c0.9,0.4,1.6,0.7,2.2,1c0.6,0.3,1,0.4,1.2,0.6c0.9,0.4,1.6,0.8,1.9,1.3c0.4,0.4,0.4,0.9,0.2,1.5
		c-0.3,0.9-1.3,1.3-3,1.3c-1.7,0-4-0.6-7-1.8c-1-0.4-1.9-0.9-2.9-1.4c-0.8-0.5-1.7-1.1-2.7-1.8c-1-0.7-1.9-1.6-2.8-2.6l-3.4,3.5
		c1,1.1,2.1,2.1,3.2,2.9c1.2,0.8,2.3,1.6,3.3,2.1c1.2,0.7,2.4,1.3,3.6,1.7c2.4,0.9,4.5,1.5,6.3,1.8c1.9,0.3,3.5,0.3,4.9,0.1
		c1.4-0.2,2.6-0.7,3.5-1.4c0.9-0.7,1.6-1.6,2-2.6c0.3-0.9,0.5-1.8,0.4-2.6c-0.1-0.8-0.4-1.6-0.9-2.3c-0.5-0.7-1.1-1.4-2-2
		c-0.8-0.6-1.8-1.2-3-1.7c-2.3-1-4.3-1.9-6-2.6c-1.7-0.7-3-1.3-3.9-1.7c-0.8-0.4-1.4-0.8-1.8-1.2c-0.3-0.4-0.4-0.9-0.2-1.4
		c0.2-0.4,0.5-0.7,1.1-0.8c0.5-0.2,1.2-0.2,2.1-0.1c0.8,0.1,1.8,0.3,2.9,0.5s2.2,0.7,3.4,1.1c0.8,0.3,1.6,0.7,2.4,1.1
		c0.8,0.4,1.6,0.9,2.4,1.4c0.8,0.5,1.5,1,2.2,1.6c0.7,0.5,1.3,1.1,1.8,1.5l3.2-3.5c-1-1.1-2.1-2-3.3-2.8
		C202.2,646.6,201.1,645.9,200.1,645.4z"/>
	<path class="st0" d="M230.9,656.5l-3.5,10.6c-0.3,0.9-0.7,1.7-1.3,2.4c-0.6,0.7-1.2,1.3-2,1.7c-0.8,0.4-1.7,0.7-2.7,0.7
		c-1,0.1-2.2-0.1-3.4-0.5s-2.3-0.9-3.1-1.6c-0.8-0.7-1.4-1.4-1.8-2.2c-0.4-0.8-0.6-1.7-0.6-2.6c0-0.9,0.1-1.8,0.4-2.7l3.5-10.6
		l-5.3-1.7l-3.5,10.6c-0.5,1.5-0.7,3.1-0.5,4.6c0.1,1.6,0.6,3,1.4,4.4c0.8,1.4,1.8,2.6,3.2,3.8c1.4,1.1,3,2,4.9,2.6
		c1.9,0.6,3.8,0.9,5.5,0.8c1.8-0.1,3.3-0.5,4.8-1.2c1.4-0.7,2.7-1.6,3.7-2.8c1-1.2,1.8-2.5,2.3-4.1l3.5-10.6L230.9,656.5z"/>
	<polygon class="st0" points="262,668.3 263,663.6 238.2,658 237.1,662.7 254.4,666.6 234.4,675 233.3,679.7 258.1,685.3 
		259.2,680.6 241.9,676.7 	"/>
	<polygon class="st0" points="283.5,676.4 268.7,673.6 270.2,665.5 265.1,664.5 260.9,686.4 266.1,687.4 267.8,678.4 282.6,681.2 
		280.8,690.2 286,691.2 290.1,669.2 285,668.3 	"/>
	<path class="st0" d="M318.1,676.7c-1.1-1.2-2.4-2.3-4.1-3.1c-1.6-0.8-3.6-1.4-5.7-1.6c-2.2-0.2-4.1-0.1-5.9,0.4
		c-1.8,0.5-3.3,1.2-4.6,2.2c-1.3,1-2.4,2.2-3.1,3.6c-0.8,1.4-1.3,2.9-1.4,4.6c-0.2,1.7,0,3.3,0.5,4.8c0.5,1.5,1.3,2.9,2.3,4.2
		c1.1,1.2,2.4,2.3,4.1,3.1c1.6,0.8,3.6,1.4,5.7,1.6c2.2,0.2,4.1,0.1,5.9-0.4c1.8-0.5,3.3-1.2,4.6-2.2c1.3-1,2.4-2.2,3.1-3.6
		c0.8-1.4,1.3-2.9,1.4-4.6c0.2-1.7,0-3.3-0.5-4.8C319.9,679.3,319.1,677.9,318.1,676.7z M315.4,685.1c-0.1,1-0.4,1.9-0.8,2.7
		c-0.4,0.8-1,1.6-1.8,2.2c-0.8,0.6-1.7,1-2.8,1.3c-1.1,0.3-2.3,0.4-3.7,0.2c-1.4-0.1-2.6-0.5-3.6-1c-1-0.5-1.8-1.1-2.5-1.9
		c-0.6-0.7-1.1-1.6-1.3-2.5c-0.3-0.9-0.3-1.9-0.2-2.8c0.1-1,0.4-1.9,0.8-2.7c0.4-0.8,1-1.6,1.8-2.2c0.8-0.6,1.7-1,2.8-1.3
		c1.1-0.3,2.3-0.4,3.7-0.2c1.4,0.1,2.6,0.5,3.6,1c1,0.5,1.8,1.1,2.5,1.9c0.6,0.7,1.1,1.6,1.3,2.5
		C315.4,683.1,315.5,684.1,315.4,685.1z"/>
	<path class="st0" d="M420.8,683c-1.2-1.2-2.6-2.1-4.3-2.8c-1.7-0.7-3.6-1.1-5.8-1.2c-2.2-0.1-4.1,0.2-5.9,0.7
		c-1.8,0.6-3.2,1.4-4.5,2.5c-1.2,1.1-2.2,2.3-2.9,3.8c-0.7,1.5-1.1,3-1.1,4.7c-0.1,1.7,0.2,3.2,0.8,4.8c0.6,1.5,1.4,2.8,2.6,4
		c1.2,1.2,2.6,2.1,4.3,2.8c1.7,0.7,3.6,1.1,5.8,1.2c2.2,0.1,4.1-0.2,5.9-0.7c1.8-0.6,3.2-1.4,4.5-2.5c1.2-1.1,2.2-2.3,2.9-3.8
		c0.7-1.5,1.1-3,1.1-4.7c0.1-1.7-0.2-3.2-0.8-4.8C422.9,685.5,422,684.2,420.8,683z M418,694.3c-0.4,0.9-0.9,1.6-1.7,2.3
		c-0.7,0.6-1.6,1.1-2.7,1.5c-1.1,0.4-2.3,0.5-3.7,0.4c-1.4-0.1-2.6-0.3-3.7-0.7c-1-0.4-1.9-1-2.6-1.7c-0.7-0.7-1.2-1.5-1.5-2.4
		c-0.3-0.9-0.4-1.8-0.4-2.8c0-1,0.3-1.9,0.6-2.8c0.4-0.9,0.9-1.6,1.7-2.3c0.7-0.6,1.6-1.1,2.7-1.5s2.3-0.5,3.7-0.4
		c1.4,0.1,2.6,0.3,3.7,0.7c1,0.4,1.9,1,2.6,1.7c0.7,0.7,1.2,1.5,1.5,2.4c0.3,0.9,0.4,1.8,0.4,2.8S418.4,693.4,418,694.3z"/>
	<path class="st0" d="M346.5,688.6c-0.1,1-0.3,1.8-0.7,2.7c-0.4,0.8-0.9,1.6-1.6,2.2c-0.7,0.6-1.5,1.1-2.5,1.4
		c-1,0.3-2.1,0.4-3.4,0.3c-1.3-0.1-2.4-0.4-3.4-0.8c-0.9-0.5-1.7-1-2.3-1.7c-0.6-0.7-1-1.5-1.2-2.4c-0.2-0.9-0.3-1.8-0.2-2.8
		l0.9-11.1l-5.6-0.4l-0.9,11.1c-0.1,1.6,0.1,3.2,0.6,4.6c0.5,1.5,1.3,2.8,2.4,4c1.1,1.2,2.4,2.1,4,2.9c1.6,0.8,3.4,1.2,5.4,1.4
		c2,0.2,3.9,0,5.6-0.5c1.7-0.5,3.1-1.3,4.4-2.3c1.2-1,2.2-2.2,2.9-3.6c0.7-1.4,1.2-2.9,1.3-4.5l0.9-11.1l-5.6-0.4L346.5,688.6z"/>
	<path class="st0" d="M388.5,682.2c-1.1-1-2.5-1.8-4.1-2.4c-1.6-0.6-3.5-0.9-5.5-0.9h-14.2v22.3h14.2c2.1,0,3.9-0.3,5.5-0.9
		c1.6-0.6,3-1.4,4.1-2.4c1.1-1,2-2.2,2.5-3.6c0.6-1.4,0.9-2.8,0.9-4.3c0-1.5-0.3-3-0.9-4.3C390.4,684.4,389.6,683.2,388.5,682.2z
		 M386,692.7c-0.3,0.8-0.8,1.5-1.4,2.1c-0.6,0.6-1.4,1-2.4,1.4c-1,0.3-2.1,0.5-3.4,0.5h-8.9v-13h8.9c1.3,0,2.5,0.2,3.4,0.5
		c1,0.3,1.8,0.8,2.4,1.4c0.6,0.6,1.1,1.3,1.4,2.1c0.3,0.8,0.5,1.6,0.5,2.5C386.4,691,386.3,691.9,386,692.7z"/>
	<polygon class="st0" points="448.9,678 449.8,693.6 433.5,678.9 428.2,679.2 429.4,701.5 434.8,701.2 433.9,685.6 450.2,700.3 
		455.6,700 454.3,677.7 	"/>
	<path class="st0" d="M488.5,684.6c0-0.3-0.1-0.5-0.2-0.8l-16.3,1.4l0.4,4.3l10.5-0.9c-0.5,1.3-1.4,2.4-2.8,3.4s-3.1,1.5-5.4,1.7
		c-1.5,0.1-2.8,0.1-4-0.2s-2.2-0.7-3-1.3s-1.5-1.3-1.9-2.1c-0.5-0.8-0.7-1.7-0.8-2.6s0-1.9,0.3-2.7c0.3-0.9,0.8-1.7,1.5-2.4
		s1.6-1.3,2.7-1.8c1.1-0.5,2.4-0.8,3.9-0.9c2-0.2,3.7,0,5.1,0.6c1.4,0.6,2.4,1.4,3.1,2.4l4.3-2.9c-0.6-0.8-1.4-1.6-2.2-2.2
		c-0.9-0.7-1.9-1.2-2.9-1.6c-1.1-0.4-2.3-0.8-3.6-1c-1.3-0.2-2.7-0.2-4.2-0.1c-2.3,0.2-4.2,0.7-6,1.5c-1.7,0.8-3.2,1.8-4.3,3
		c-1.1,1.2-2,2.5-2.5,4s-0.7,3-0.6,4.6c0.1,1.6,0.6,3.1,1.4,4.5c0.8,1.4,1.8,2.5,3.1,3.5c1.3,1,2.9,1.7,4.7,2.2
		c1.8,0.5,3.9,0.6,6.1,0.4c2.3-0.2,4.2-0.7,6-1.5c1.7-0.8,3.2-1.8,4.3-3c1.1-1.2,2-2.5,2.5-4c0.5-1.5,0.7-3,0.6-4.6
		C488.6,685.1,488.5,684.9,488.5,684.6z"/>
	<polygon class="st0" points="516.3,686.6 508.2,670.2 502.9,671.2 501.2,689.4 493.1,673 488.4,673.8 498.7,694.6 504.9,693.5 
		506.6,676.5 514.3,691.8 520.4,690.7 522.8,667.6 518.1,668.4 	"/>
	<path class="st0" d="M551,662.4l-5.3,1l2.1,11c0.2,0.9,0.2,1.9,0.1,2.8c-0.1,0.9-0.4,1.7-0.9,2.5c-0.5,0.8-1.1,1.4-1.9,2
		c-0.8,0.6-1.9,0.9-3.1,1.2c-1.2,0.2-2.4,0.3-3.3,0.1c-1-0.2-1.8-0.6-2.6-1.1c-0.7-0.5-1.3-1.2-1.8-2s-0.8-1.7-1-2.6l-2.1-11l-5.3,1
		l2.1,11c0.3,1.6,0.9,3,1.7,4.3c0.9,1.3,1.9,2.4,3.2,3.2c1.3,0.9,2.8,1.4,4.5,1.8c1.7,0.3,3.5,0.3,5.4-0.1c1.9-0.4,3.6-1,5-2
		c1.4-0.9,2.6-2,3.5-3.3c0.9-1.3,1.5-2.7,1.8-4.2c0.3-1.5,0.3-3.1,0-4.7L551,662.4z"/>
	<polygon class="st0" points="584.9,652.2 563.1,658.9 569.6,680.2 574.2,678.8 572,671.5 584,667.8 582.5,663.3 570.6,666.9 
		569.1,662.1 586.3,656.8 	"/>
	<path class="st0" d="M610.4,660.4c-0.4,0.6-0.8,1.2-1.4,1.8c-0.6,0.6-1.3,1.1-2.1,1.6c-0.8,0.5-1.8,0.9-2.8,1.2
		c-1.4,0.4-2.7,0.6-3.9,0.5c-1.2-0.1-2.2-0.3-3.1-0.7c-0.9-0.4-1.6-1-2.2-1.7c-0.6-0.7-1-1.5-1.3-2.4c-0.3-0.9-0.3-1.8-0.2-2.7
		c0.1-0.9,0.4-1.8,1-2.6c0.5-0.8,1.3-1.6,2.2-2.2c1-0.7,2.2-1.2,3.6-1.6c1-0.3,1.9-0.5,2.8-0.5c0.9-0.1,1.8,0,2.5,0.1
		c0.8,0.1,1.5,0.3,2.1,0.6c0.6,0.3,1.2,0.7,1.6,1.1l3.9-3.8c-0.8-0.7-1.7-1.3-2.7-1.8c-1-0.5-2.1-0.9-3.3-1.1
		c-1.2-0.2-2.5-0.3-3.8-0.2c-1.4,0.1-2.8,0.3-4.3,0.8c-2.2,0.6-4.1,1.5-5.7,2.6c-1.6,1.1-2.8,2.4-3.7,3.8c-0.9,1.4-1.5,2.9-1.7,4.4
		c-0.2,1.6-0.1,3.1,0.3,4.7c0.5,1.6,1.2,2.9,2.2,4.1c1,1.2,2.3,2.1,3.8,2.8c1.5,0.7,3.2,1.1,5.1,1.2c1.9,0.1,4-0.2,6.2-0.8
		c1.6-0.5,2.9-1,4.2-1.7c1.2-0.7,2.3-1.5,3.2-2.4c0.9-0.9,1.6-1.8,2.2-2.8c0.6-1,1-2,1.2-3.1l-5.3-1.1
		C611,659.1,610.8,659.8,610.4,660.4z"/>
	<path class="st0" d="M222,597.5l3.6,1.5l0,0l0.1,0l0,0v0l-1.5,3.7l-2.4,5.9c4.4,5.5,8.9,10.8,13.5,15.9c4.8,1.5,10.4,3.1,16.5,4.8
		l0,0c0,0,0,0,0,0c0,0,0,0,0,0l0,0c5,1.4,10.5,2.8,16.3,4.2c6.5,1.6,12.9,3,19.2,4.3v-84.5h-74.7v28.2c0.1,0.2,0.3,0.4,0.4,0.6
		c-7.1-10.1-13.5-20.4-19.2-30.7c-23.5-42.5-35.5-87-35.5-132.2V224.6c8.2-3.5,33.5-13.9,70.5-24.1c-5.7,1.6-11.1,3.1-16.2,4.7v303
		c2.2-0.5,4.5-0.7,6.9-0.7c6.3,0,11.9,1.7,15.4,4.6c2.6,2.1,4.4,5.3,5.2,8.7c0.3-0.1,0.7-0.1,1-0.1c1.2,0,2.4,0.4,3.5,1.1
		c4.3,2.9,8.3,4.4,11.9,4.4c4.7,0,8.2-2.5,10.4-4.7c-5.5-3.8-10.9-9.5-15.2-16.3c-4.7-7.4-10.4-19.8-11.1-36.7
		c-1.2-28.7,9.4-45.5,26.8-63.3c1.5-1.5,3-2.9,4.5-4.2c-0.4,0-0.8,0-1.2,0c-9.3,0-16.9-3.8-22-10.9c-4.7-6.7-5.6-14-5.8-16.8
		c-0.4-5.5,0.5-9.5,2.6-11.8c-2.2-1-3.4-3.3-4.5-5.5c-1.3-2.4-1.4-5-0.5-7.5c-1.7-0.9-3.3-2-4.7-3.3c-3.3-3.1-5.3-7.1-5.6-11.4
		c-0.6-8.2,5.1-14.9,14.4-17.2c4.3-1,8.2-1.5,11.7-1.5c6.5,0,10.3,1.8,12.4,3.3l3.9,0.3c-0.6-2.9-0.8-6.3,0.3-9.8
		c1.7-5.3,5.7-9.3,12.1-12c0.7-0.3,1.4-0.6,2.1-0.8v-109c-1.7,0.3-3.5,0.6-5.2,1c24.3-4.7,51.2-8.4,79.9-10.3v97.8
		c7.7-9.7,16.6-25,16.9-43.6c0.1-3.5,2.9-6.3,6.4-6.3c1.7,0,3.3,0.7,4.5,1.9c3.4,3.4,7.8,9.6,9.3,19.6c1.7,11.8-1.1,25.8-8.4,41.7
		c-0.8,1.7-2.3,3.1-4,3.8c-0.1,0-0.1,0-0.2,0.1c2,1.9,3.6,4.3,4.5,6c5.8,4.3,7.4,9,7.8,12.3c0.4,4.5-1.3,8.3-2.9,11
		c4.9,7,4.6,14,3.9,17.9c-0.5,2.8-2.8,4.9-5.6,5.1c0.2,4-0.5,7.8-1.8,11.1c1,0.4,2,1.1,2.7,2c1.3,1.6,1.7,3.6,1.2,5.6
		c-2.2,9.2-6.8,15.5-11.6,19.8c0.1,0.2,0.3,0.4,0.4,0.6c1.2,2.1,1.1,4.7-0.2,6.8c-5.5,8.5-12.3,14.1-20.3,18
		c17.4-1.3,35.1-1.8,48.7-2.2c7.1-0.2,12.6-0.4,15.9-0.6c2.4-0.2,4.9-0.5,7.5-1V177.6c26.6,1.6,51.7,4.9,74.7,9.1v221.9
		c2.3-0.3,5-0.5,7.9-0.5c12,0,21.8,3.7,28.7,10.9c2.3-3.1,4.8-9.2,2.9-20.1c-1.9-10.4-4.8-17.3-7.1-22.8c-2.5-6-4.6-11.1-4.1-17.5
		c0.8-10.4,6.8-19.6,17.9-27.3c8.3-5.8,17-8.7,26-8.7h0c0.9,0,1.7,0,2.6,0.1V204.6c28,8.4,47.5,16.3,55.4,19.6v195
		c0,45.2-11.9,89.6-35.5,132.2c-5.9,10.7-12.6,21.2-19.9,31.6v-28.3h-74.7v83.3c7.3-1.5,14.1-3,20.2-4.5c5.9-1.4,11.4-2.8,16.4-4.2
		l0,0c0,0,0,0,0,0c0,0,0,0,0,0l0,0c6.2-1.7,11.7-3.3,16.5-4.8c4.6-5.1,9-10.4,13.4-15.8l-2.4-6l-1.4-3.6l0,0l0-0.1l0.2-0.1l0,0
		l3.5-1.4c4.5-1.8,8.7-3.5,12.7-5.2c34.6-47.8,59.9-105.7,59.9-173.1c0-212.2,0-289.9,0-289.9L556.9,84c-1.3-0.6-2.6-0.9-3.9-0.9
		c-5,0-9.5,4.3-8.9,9.9l3,29.7l-14.6-3.3L526,50h-65.3v23.9c0,6.1-4.9,11-11,11c-6.1,0-11-4.9-11-11V50h-38.2h-1.1h-38.2v23.9
		c0,6.1-4.9,11-11,11s-11-4.9-11-11V50h-65.3l-6.4,69.4l-14.6,3.3l3-29.7c0.6-5.6-3.9-9.9-8.9-9.9c-1.3,0-2.6,0.3-3.9,0.9
		l-93.7,45.3c0,0,0,77.7,0,289.9c0,67.4,25.4,125.4,59.9,173.2C213.4,594,217.6,595.7,222,597.5z M217.6,588.3
		c-0.4-0.6-0.8-1.1-1.3-1.7C216.8,587.1,217.2,587.7,217.6,588.3z M221.6,593.6c-0.4-0.5-0.8-1-1.1-1.5
		C220.8,592.6,221.2,593.1,221.6,593.6z M579,593C579,593,578.9,593,579,593C578.9,593,579,593,579,593z M229.3,200.4
		c1.2-0.3,2.5-0.7,3.8-1C231.8,199.7,230.6,200.1,229.3,200.4z M233.8,199.2c1.2-0.3,2.4-0.6,3.6-1
		C236.2,198.6,235,198.9,233.8,199.2z M242.6,196.9c1.4-0.4,2.8-0.7,4.3-1.1C245.4,196.2,244,196.5,242.6,196.9z M238.2,198
		c1.2-0.3,2.5-0.7,3.8-1C240.7,197.4,239.4,197.7,238.2,198z M247,195.8c4.7-1.2,9.5-2.3,14.4-3.4
		C256.5,193.5,251.7,194.6,247,195.8z M267,191.2c1.4-0.3,2.8-0.6,4.2-0.9C269.8,190.6,268.4,190.9,267,191.2z M261.7,192.3
		c1.5-0.3,3.1-0.7,4.6-1C264.7,191.7,263.2,192,261.7,192.3z M272.1,190.1c1.4-0.3,2.8-0.6,4.2-0.9
		C274.9,189.5,273.5,189.8,272.1,190.1z M277.2,189.1c1.5-0.3,2.9-0.6,4.4-0.9C280.1,188.5,278.6,188.8,277.2,189.1z M362.2,177.8
		c6-0.4,12.2-0.7,18.4-0.9C374.3,177.1,368.2,177.4,362.2,177.8z M381.5,176.8c2.9-0.1,5.8-0.2,8.7-0.2
		C387.3,176.7,384.4,176.7,381.5,176.8z M391.6,176.6c3,0,5.9-0.1,8.9-0.1c2.8,0,5.6,0,8.4,0.1c-2.8,0-5.6-0.1-8.4-0.1
		C397.5,176.5,394.5,176.5,391.6,176.6z M410.3,176.6c2.8,0,5.6,0.1,8.3,0.2C415.9,176.7,413.1,176.6,410.3,176.6z M419.2,176.8
		c5.9,0.2,11.8,0.5,17.6,0.8C431,177.3,425.2,177,419.2,176.8z M517.8,187.9c1.3,0.2,2.6,0.5,3.9,0.7
		C520.4,188.4,519.1,188.1,517.8,187.9z M511.6,186.7c1.7,0.3,3.4,0.6,5.1,0.9C515,187.3,513.3,187,511.6,186.7z M537.7,192
		c1.5,0.3,3,0.7,4.5,1C540.7,192.6,539.2,192.3,537.7,192z M523.1,188.9c1.2,0.2,2.4,0.5,3.6,0.7
		C525.5,189.4,524.3,189.1,523.1,188.9z M528.1,189.9c1.2,0.2,2.3,0.5,3.5,0.7C530.4,190.4,529.3,190.2,528.1,189.9z M533,190.9
		c1.2,0.3,2.5,0.5,3.7,0.8C535.4,191.5,534.2,191.2,533,190.9z M542.4,193c3.2,0.7,6.3,1.5,9.4,2.2
		C548.7,194.5,545.6,193.8,542.4,193z M557.1,196.6c1.2,0.3,2.4,0.6,3.5,0.9C559.5,197.2,558.3,196.9,557.1,196.6z M552.4,195.4
		c1.3,0.3,2.6,0.6,3.9,1C555,196,553.7,195.7,552.4,195.4z M570,200c5.7,1.5,11.1,3.1,16.2,4.6C581.1,203.1,575.7,201.5,570,200z
		 M561.6,197.7c1.2,0.3,2.3,0.6,3.5,0.9C563.9,198.3,562.8,198,561.6,197.7z M565.9,198.8c1.2,0.3,2.5,0.7,3.7,1
		C568.4,199.5,567.1,199.2,565.9,198.8z M158.4,134.9l88.7-42.9c0,0,0,0,0,0c0,0,0,0,0,0c0,0,0,0,0,0l-3,29.7l-1.2,12.4l12.1-2.8
		l14.6-3.3l6.3-1.4l0.6-6.5l5.7-61.3h48.2v14.9c0,11,8.9,19.9,19.9,19.9c11,0,19.9-8.9,19.9-19.9V59h29.2h1.1h29.2v14.9
		c0,11,8.9,19.9,19.9,19.9c11,0,19.9-8.9,19.9-19.9V59h48.2l5.7,61.3l0.6,6.5l6.3,1.4l14.6,3.3l12.1,2.8l-1.2-12.4l-3-29.7
		c0,0,0,0,0,0c0,0,0,0,0,0c0,0,0,0,0,0l88.7,42.9v78.4c-11.1-4.6-33.3-13.1-64-21.7c-40.7-11.4-104.6-25.1-177.2-25.1
		c-72.6,0-136.4,13.6-177.2,25.1c-31.5,8.9-54.1,17.6-64.9,22.1V134.9z"/>
	<path class="st0" d="M400,740c4-2.1,10.9-5.7,19.8-10.8c-6.9,0.2-12.4,0.2-16.3,0.2c-1.4,0-2.5,0-3.3,0l-0.3,0l-0.4,0
		c-0.7,0-1.8,0-3.2,0c-3.8,0-9.3,0-16.2-0.2c-5.5-0.1-11.8-0.4-18.8-0.8c19.9,12.2,34.2,19.4,38.1,21.4l0.5,0.3l0.5-0.3
		c3.9-1.9,18.2-9.1,38.1-21.4c-7.1,0.4-13.4,0.6-18.8,0.8C410.9,734.3,404.1,737.9,400,740z"/>
	<path class="st0" d="M433.5,553.5l-1.3,0l-70,0.9v93.8c14.6,1.1,27.3,1.4,37.8,1.5c12.7,0,25-0.5,36.9-1.4v-96.9
		c-0.7,0.5-1.4,1-2.2,1.5L433.5,553.5z"/>
</g>
</svg>
