<?xml version="1.0" encoding="utf-8"?>
<!-- Generator: Adobe Illustrator 22.1.0, SVG Export Plug-In . SVG Version: 6.00 Build 0)  -->
<svg version="1.1" id="图层_1" xmlns="http://www.w3.org/2000/svg" xmlns:xlink="http://www.w3.org/1999/xlink" x="0px" y="0px"
	 viewBox="0 0 800 800" style="enable-background:new 0 0 800 800;" xml:space="preserve">
<style type="text/css">
	.st0{fill:#FFFFFF;}
	.st1{fill:#C5B485;}
	.st2{fill:#C3162D;}
	.st3{fill:#03213D;}
	.st4{fill:#07213E;}
	.st5{fill:#C6B584;}
</style>
<g>
	<g>
		<g>
			<path class="st0" d="M661,286.7l-7.4-2.3c-13.6-4.3-27.5-8.3-41.4-11.9v-3.9v-37.8v-7.3l0-2.4c18.3-14.2,29.8-23.8,29.8-23.8
				s-57,17-94.1,16.7c-20.6,0-38.9-3.3-54.6-9.7c-9.6-4-19.2-7.5-28.7-10.4v-16.3v-9.7l-9.2,3l-30.7,9.8l-4.9,1.6v1.5
				c-0.5-0.1-1-0.1-1.5-0.2c-8.1-1-13.4-1.1-15.3-1.1c-0.7,0-1.1,0-1.1,0l-1.8,0.1l-1.8-0.1c0,0-0.4,0-1.1,0
				c-1.9,0-7.3,0.1-15.3,1.1c-0.5,0.1-1,0.1-1.5,0.2v-1.5l-4.9-1.6l-30.7-9.8l-9.2-3v9.7v16.3c-9.5,3-19.1,6.5-28.7,10.4
				c-15.7,6.5-34,9.7-54.6,9.7c-37.2,0.3-94.1-16.7-94.1-16.7s11.5,9.6,29.8,23.8l0,2.4v7.3v37.8v3.9c-13.9,3.6-27.8,7.6-41.4,11.9
				l-7.4,2.3l-5,1.6v5.2v7.8v142.8v16.2v6l5.9,1l25.4,4.3l1.9,0.3l1.8-0.7c6.1-2.4,12.4-4.7,18.7-6.9v28.3c0,46.1,45,103,82.8,142.6
				c46.6,48.9,98.1,88.6,126.2,104.8l2.9,1.7l0.3,0.2l0.3-0.2l2.9-1.7c28.1-16.2,79.6-55.9,126.2-104.8
				c37.8-39.6,82.8-96.5,82.8-142.6v-28.3c6.3,2.2,12.6,4.5,18.7,6.9l1.8,0.7l1.9-0.3l25.4-4.3l5.9-1v-6v-16.2V301.3v-7.8v-5.2
				L661,286.7z"/>
			<path class="st1" d="M464.6,167.8v9.7v16.3c9.5,3,19.1,6.5,28.7,10.4c15.7,6.5,34,9.7,54.6,9.7c0.4,0,0.7,0,1.1,0
				c37.2,0,93-16.7,93-16.7s-11.5,9.6-29.8,23.8l0,2.4v7.3v37.8v3.9c13.9,3.6,27.8,7.6,41.4,11.9l7.4,2.3l5,1.6v5.2v7.8v142.8v16.2
				v6l-5.9,1l-25.4,4.3l-1.9,0.3l-1.8-0.7c-6.1-2.4-12.4-4.7-18.7-6.9v28.3c0,46.1-45,103-82.8,142.6
				c-46.6,48.9-98.1,88.6-126.2,104.8l-2.9,1.7l-0.3,0.2l-0.3-0.2l-2.9-1.7c-28.1-16.2-79.6-55.9-126.2-104.8
				c-37.8-39.6-82.8-96.5-82.8-142.6v-28.3c-6.3,2.2-12.6,4.5-18.7,6.9l-1.8,0.7l-1.9-0.3l-25.4-4.3l-5.9-1v-6v-16.2V301.3v-7.8
				v-5.2l5-1.6l7.4-2.3c13.6-4.3,27.5-8.3,41.4-11.9v-3.9v-37.8v-7.3l0-2.4c-18.3-14.2-29.8-23.8-29.8-23.8s55.9,16.7,93,16.7
				c0.4,0,0.7,0,1.1,0c20.6,0,38.9-3.3,54.6-9.7c9.6-4,19.2-7.5,28.7-10.4v-16.3v-9.7l9.2,3l30.7,9.8l4.9,1.6v1.5
				c0.5-0.1,1-0.1,1.5-0.2c8.1-1,13.4-1.1,15.3-1.1c0.7,0,1.1,0,1.1,0l1.8,0.1l1.8-0.1c0,0,0.4,0,1.1,0c1.9,0,7.3,0.1,15.3,1.1
				c0.5,0.1,1,0.1,1.5,0.2v-1.5l4.9-1.6l30.7-9.8L464.6,167.8 M471.7,158.1l-9.2,3l-9.2,3l-30.7,9.8l-4.9,1.6l-2,0.6
				c-6.5-0.7-11-0.7-12.7-0.7c-0.9,0-1.3,0-1.3,0l-1.6,0.1l-1.6-0.1c0,0-0.4,0-1.3,0c-1.8,0-6.2,0.1-12.7,0.7l-2-0.6l-4.9-1.6
				l-30.7-9.8l-9.2-3l-9.2-3v9.7v9.7v11.1c-8,2.7-16.2,5.7-24.3,9c-14.8,6.1-32.3,9.2-51.9,9.2h0l0,0c-0.3,0-0.7,0-1,0
				c-35.7,0-90.4-16.2-91-16.4l-33.2-9.9l26.7,22.2c0.1,0.1,10.7,8.9,27.3,21.8v6.3v36.2c-12.2,3.3-24.4,6.8-36.4,10.6l-7.4,2.3
				l-5,1.6l-5,1.6v5.2v5.2v7.8v142.8v16.2v6v6l5.9,1l5.9,1l25.4,4.3l1.9,0.3l1.9,0.3l1.8-0.7l1.8-0.7c3-1.2,6-2.3,9.1-3.4v18.2
				c0,22.1,9.5,48.2,28.3,77.6c14,21.8,32.9,45.3,56.4,69.9c47.1,49.4,99.3,89.6,127.8,106l2.9,1.7l0.3,0.2l3.5,2l3.5-2l0.3-0.2
				l2.9-1.7c28.5-16.4,80.7-56.6,127.8-106C558,615.5,577,592,591,570.1c18.8-29.4,28.3-55.5,28.3-77.6v-18.2c3,1.1,6.1,2.3,9.1,3.4
				l1.8,0.7l1.8,0.7l1.9-0.3l1.9-0.3l25.4-4.3l5.9-1l5.9-1v-6v-6v-16.2V301.3v-7.8v-5.2v-5.2l-5-1.6l-5-1.6l-7.4-2.3
				c-12-3.8-24.2-7.3-36.4-10.6v-36.2v-6.3c16.6-12.9,27.2-21.7,27.3-21.8l26.7-22.2l-33.2,9.9c-0.5,0.2-55.3,16.4-91,16.4
				c-0.3,0-0.7,0-1,0l0,0h0c-19.6,0-37.1-3.1-51.9-9.2c-8.1-3.3-16.3-6.4-24.3-9v-11.1v-9.7V158.1L471.7,158.1z"/>
		</g>
		<g>
			<g>
				<path class="st2" d="M497.6,234.7l-1,12.5c-8.7-1-17.8-2-27.3-2.8V232h-11.8v-9.4c-11.2-2.6-21.8-4.4-30.7-5.7
					c0,8.2,0,15.1,0,15.1h-2.4v9.8c-8.1-0.2-16.3-0.4-24.8-0.4c-8.5,0-16.7,0.1-24.8,0.4V232h-2.4c0,0,0-6.9,0-15.1
					c-8.9,1.3-19.5,3.1-30.7,5.7v9.4H330v12.4c-9.5,0.8-18.6,1.7-27.3,2.8l-1-12.5l-107.6-3.8v37.8c0,0,0,4.8,0,13
					c0,40.7,0,165.6,0,211c0,79.2,147,207.6,205.4,241.3c58.4-33.7,205.4-162,205.4-241.3c0-45.4,0-170.3,0-211c0-8.2,0-13,0-13
					v-37.8L497.6,234.7z"/>
				<path class="st2" d="M136.6,230.7c-0.1,0-0.1,0-0.2,0.1c-0.1,0-0.1,0-0.2,0.1C136.3,230.8,136.4,230.7,136.6,230.7z"/>
				<g>
					<g>
						<polygon class="st3" points="392.6,250.9 374.9,232 374.9,253.3 						"/>
						<path class="st3" d="M397.3,214.3v-12.6c-7.7,0-29.2-1.7-86.8,15.6c-62.6,21.3-122.8-5.9-122.8-5.9c5.2,7.5,17.8,15.1,34,20.5
							l79.9,2.9l1.1,12.5c8.7-1,23.7-2.5,23.7-2.5v-10.4l-17.7-1.9c1.6-0.6,3.2-1.1,4.7-1.8C353.7,216.7,397.3,214.3,397.3,214.3z"
							/>
					</g>
					<path class="st2" d="M372.5,191.9c0-0.5,0-0.9,0-1.2c0-3.5-16.5-8.3-30.7-8.3V199c-9.9,2.9-21,6.7-33.1,11.7
						c-47.4,19.6-103.8,5.9-117.4,2.1c0.8,0.3,1.8,0.7,3,1.1c0,0,0.1,0,0.1,0c0.5,0.2,1.1,0.4,1.7,0.6c0.1,0,0.2,0.1,0.2,0.1
						c0.6,0.2,1.2,0.4,1.9,0.6c0,0,0.1,0,0.1,0c0.6,0.2,1.3,0.4,2,0.6c0.1,0,0.2,0.1,0.2,0.1c0.7,0.2,1.4,0.4,2.1,0.7
						c0.1,0,0.3,0.1,0.4,0.1c0.7,0.2,1.5,0.4,2.2,0.7c0.1,0,0.3,0.1,0.4,0.1c0.8,0.2,1.6,0.4,2.4,0.7c0.1,0,0.1,0,0.2,0
						c0.8,0.2,1.7,0.5,2.6,0.7c0.2,0,0.4,0.1,0.5,0.1c0.9,0.2,1.7,0.4,2.6,0.7c0.2,0,0.4,0.1,0.6,0.1c0.9,0.2,1.9,0.4,2.8,0.7
						c0.1,0,0.3,0.1,0.4,0.1c0.9,0.2,1.8,0.4,2.7,0.6c0.2,0,0.4,0.1,0.6,0.1c1,0.2,2,0.4,3,0.6c0.3,0,0.5,0.1,0.8,0.1
						c1,0.2,2.1,0.4,3.1,0.5c0.2,0,0.4,0.1,0.7,0.1c1,0.2,2,0.3,3.1,0.5c0.1,0,0.3,0,0.4,0.1c1.1,0.2,2.2,0.3,3.4,0.5
						c0.3,0,0.5,0.1,0.8,0.1c1.1,0.1,2.3,0.3,3.4,0.4c0.3,0,0.5,0.1,0.8,0.1c1.2,0.1,2.4,0.2,3.6,0.3c0.1,0,0.3,0,0.4,0
						c1.2,0.1,2.3,0.2,3.5,0.3c0.2,0,0.5,0,0.7,0c1.2,0.1,2.5,0.1,3.7,0.2c0.3,0,0.6,0,0.9,0c1.3,0,2.5,0.1,3.8,0.1
						c0.2,0,0.4,0,0.7,0c1.2,0,2.5,0,3.8,0c0.2,0,0.3,0,0.5,0c1.3,0,2.7-0.1,4-0.1c0.3,0,0.6,0,0.8,0c1.3-0.1,2.7-0.1,4-0.2
						c0.3,0,0.5,0,0.8-0.1c1.4-0.1,2.8-0.2,4.2-0.3c0.1,0,0.1,0,0.2,0c1.4-0.1,2.8-0.3,4.2-0.5c0.2,0,0.5-0.1,0.7-0.1
						c1.4-0.2,2.8-0.4,4.2-0.6c0.3,0,0.6-0.1,0.9-0.1c1.4-0.2,2.8-0.5,4.3-0.7c0.2,0,0.4-0.1,0.6-0.1c1.4-0.3,2.8-0.6,4.2-0.9
						c0.2,0,0.3-0.1,0.5-0.1c1.5-0.3,2.9-0.7,4.4-1.1c0.3-0.1,0.6-0.1,0.8-0.2c1.4-0.4,2.9-0.8,4.3-1.2c0.3-0.1,0.5-0.2,0.8-0.2
						c1.5-0.5,3-0.9,4.5-1.5c57.6-17.3,79.1-15.6,86.8-15.6v-12.2C397.3,189.5,388.4,189.2,372.5,191.9z"/>
				</g>
				<g>
					<polygon class="st3" points="406.8,250.9 424.5,232 424.5,253.3 					"/>
					<path class="st3" d="M402.1,214.3v-12.6c7.7,0,29.2-1.7,86.8,15.6c62.6,21.3,122.8-5.9,122.8-5.9c-5.2,7.5-17.8,15.1-34,20.5
						l-79.9,2.9l-1.1,12.5c-8.7-1-23.7-2.5-23.7-2.5v-10.4l17.7-1.9c-1.6-0.6-3.2-1.1-4.7-1.8C445.8,216.7,402.1,214.3,402.1,214.3z
						"/>
				</g>
				<path class="st2" d="M426.9,191.9c0-0.5,0-4.5,0-4.5l30.7-9.8V199c9.9,2.9,21,6.7,33.1,11.7c47.4,19.6,103.8,5.9,117.4,2.1
					c-0.8,0.3-1.8,0.7-3,1.1c0,0-0.1,0-0.1,0c-0.5,0.2-1.1,0.4-1.7,0.6c-0.1,0-0.2,0.1-0.2,0.1c-0.6,0.2-1.2,0.4-1.9,0.6
					c0,0-0.1,0-0.1,0c-0.6,0.2-1.3,0.4-2,0.6c-0.1,0-0.2,0.1-0.2,0.1c-0.7,0.2-1.4,0.4-2.1,0.7c-0.1,0-0.3,0.1-0.4,0.1
					c-0.7,0.2-1.5,0.4-2.2,0.7c-0.1,0-0.3,0.1-0.4,0.1c-0.8,0.2-1.6,0.4-2.4,0.7c-0.1,0-0.1,0-0.2,0c-0.8,0.2-1.7,0.5-2.6,0.7
					c-0.2,0-0.4,0.1-0.5,0.1c-0.9,0.2-1.7,0.4-2.6,0.7c-0.2,0-0.4,0.1-0.6,0.1c-0.9,0.2-1.9,0.4-2.8,0.7c-0.1,0-0.3,0.1-0.4,0.1
					c-0.9,0.2-1.8,0.4-2.7,0.6c-0.2,0-0.4,0.1-0.6,0.1c-1,0.2-2,0.4-3,0.6c-0.3,0-0.5,0.1-0.8,0.1c-1,0.2-2.1,0.4-3.1,0.5
					c-0.2,0-0.4,0.1-0.7,0.1c-1,0.2-2,0.3-3.1,0.5c-0.1,0-0.3,0-0.4,0.1c-1.1,0.2-2.2,0.3-3.4,0.5c-0.3,0-0.5,0.1-0.8,0.1
					c-1.1,0.1-2.3,0.3-3.4,0.4c-0.3,0-0.5,0.1-0.8,0.1c-1.2,0.1-2.4,0.2-3.6,0.3c-0.1,0-0.3,0-0.4,0c-1.2,0.1-2.3,0.2-3.5,0.3
					c-0.2,0-0.5,0-0.7,0c-1.2,0.1-2.5,0.1-3.7,0.2c-0.3,0-0.6,0-0.9,0c-1.3,0-2.5,0.1-3.8,0.1c-0.2,0-0.4,0-0.7,0
					c-1.2,0-2.5,0-3.8,0c-0.2,0-0.3,0-0.5,0c-1.3,0-2.7-0.1-4-0.1c-0.3,0-0.6,0-0.8,0c-1.3-0.1-2.7-0.1-4-0.2c-0.3,0-0.5,0-0.8-0.1
					c-1.4-0.1-2.8-0.2-4.2-0.3c-0.1,0-0.1,0-0.2,0c-1.4-0.1-2.8-0.3-4.2-0.5c-0.2,0-0.5-0.1-0.7-0.1c-1.4-0.2-2.8-0.4-4.2-0.6
					c-0.3,0-0.6-0.1-0.9-0.1c-1.4-0.2-2.8-0.5-4.3-0.7c-0.2,0-0.4-0.1-0.6-0.1c-1.4-0.3-2.8-0.6-4.2-0.9c-0.2,0-0.3-0.1-0.5-0.1
					c-1.5-0.3-2.9-0.7-4.4-1.1c-0.3-0.1-0.6-0.1-0.8-0.2c-1.4-0.4-2.9-0.8-4.3-1.2c-0.3-0.1-0.5-0.2-0.8-0.2c-1.5-0.5-3-0.9-4.5-1.5
					c-57.6-17.3-79.1-15.6-86.8-15.6v-12.2C402.1,189.5,411,189.2,426.9,191.9z"/>
				<path class="st0" d="M151.1,301.3c0,0,217.4-87.9,497.2,0v142.8c0,0-215.1-93.9-497.2,0V301.3z"/>
				<path class="st2" d="M395,262.2c73.7,0,160,9.8,253.3,39.1v142.8c0,0-95.6-41.7-242.9-41.7c-73.7,0-160.2,10.4-254.3,41.7V301.3
					C151.1,301.3,247.7,262.2,395,262.2 M395.1,251.6L395.1,251.6c-42.6,0-108.3,3.4-179.6,19.8c-42.9,9.8-67.3,19.6-68.3,20
					l-6.6,2.7v7.2v142.8v14.7l14-4.7C236.6,426.8,321,413,405.3,413c143.4,0,237.8,40.4,238.7,40.8l14.9,6.5v-16.2V301.3v-7.8
					l-7.4-2.3C567.9,264.9,481.7,251.6,395.1,251.6L395.1,251.6z"/>
				<path class="st4" d="M405.3,413c-84.4,0-168.8,13.9-250.9,41.2l-14,4.7l23.5,5.8c0,0,207.4-101.5,469.5,0l25.4-4.3l-14.9-6.5
					C643.1,453.4,548.8,413,405.3,413z"/>
			</g>
			<path class="st0" d="M376.5,654.3c-16.5,12.3-37.1,19.9-51.1,23.9c30.7,31.6,55.9,45,74.3,55.6c47.2-27.2,149-105.6,191.1-191.2
				c-0.5-0.3-1.2-0.6-1.7-0.9c-31.9-17.7-98.1-36.4-98.1-36.4c10-4.9,23.4-17.8,28-51.9c5.2-26.4,19.4-37.1,27.9-43.6
				c2.6-1.9,4.5-3.4,5.7-5c2.1-1.7,3.7-4.5,3-7.3c-0.3-1.1-1.4-3.8-5.8-4.4l-0.7-0.1l-0.7,0.2c-1.1,0.3-26.3,7.3-42.5,23.1
				c-4.6,4.4-8.2,9.8-11.7,15c-9.2,13.6-18,26.6-44,28.4c-12-7.1-25.1-13.8-41.1-13.8c-12.8,0-25.5,4.2-39,12.9
				c-2.2-0.2-4.4-0.4-6.6-0.4c-8.2,0-14.7,2.6-22.2,8.8c-2.8-0.3-5.7-0.5-8.5-0.5c-3.9,0-9.6,0.4-14.1,4c-0.5,0.3-1.1,0.4-1.9,0.4
				c-4.6,0-12.5-5.2-17.8-11.5c-6-7.3-24-25.3-38.4-33.5l-0.1-0.1l-0.1,0c-1.4-0.7-2.5-1-3.5-1c-1.8,0-3.4,1-4,2.7
				c-1.2,3,1.4,6.3,3,7.9c1,0.9,3.6,3.5,6,6c2.7,2.8,5.6,5.7,7.1,7.1c1.2,1.1,2.9,7.2,4.2,12.1c4.5,16.6,11.9,44.3,37.6,46.3
				c-3.9,5.5-11.4,16.6-8.6,37.2c0,1.3-2,6.1-9.8,15.9c-5.7,7.2-11.7,13.4-13.4,14.6l-0.2,0.2l-0.2,0.2c-6.1,6.1-6.9,14.4-2.4,24.7
				c0.8,2.4,1.7,5.1,2.5,7.6c3.5,11.5,6.9,22.3,14.6,24.6c7.9,2.3,34.6,3.5,44.3,3.5c11.3,0,13.9-5.7,15.7-9.6
				c0.1-0.1,0.1-0.3,0.2-0.4c3.7-4.7,14-17.3,26.4-17.3c0.6,0,1.1,0,1.7,0.1c3.2,0.3,6.3,1.8,8.8,4.3
				C393.5,618,404.4,633.5,376.5,654.3z"/>
			<path class="st4" d="M585.4,552.1l-2.6-1.9c0,0-53.7-27.2-103.3-45.5c0,0,28.9,1.2,36-52c7.1-36,30.7-44.9,34.5-50.5
				c2.1-1.5,3.9-5-0.7-5.6c0,0-25.2,6.9-40.9,22.2c-15.7,15.3-19.7,42.1-59,44.5c-19.3-11.4-43.3-24-78.3-0.8
				c-10-1-17.3-1.4-28.5,8.5c-8.5-0.8-16.5-1.6-21.6,2.8c-6.3,3.9-18.1-4.1-24.4-11.8c-6.3-7.7-24-25-37.4-32.7
				c-4.3-2.2-2.8,1.8-0.6,3.7c2.2,2,10.2,10.4,13.2,13.2c6.9,6.3,7.1,55.9,40.5,57.5c13.2,0.8-10.8,6.7-6.3,40.3
				c0.5,7.1-20.3,30.5-24.6,33.7c-4.9,4.9-5.7,11.6-1.6,20.9c4.2,11.9,7.3,27.9,14.8,30.1c7.5,2.2,33.7,3.3,43.3,3.3
				s11-4.5,12.8-8.3c4.7-5.9,16.5-20.3,31.5-18.9c15,1.4,27.9,23.6,8.7,50.8c-16.9,22.2-51.6,33.5-51.6,33.5l56.8,42.4
				c1.3,0.8,2.6,1.6,3.8,2.3C445,707.8,543.3,624.9,585.4,552.1z"/>
			<path class="st2" d="M506.8,438.2c18.1-30.5,44.5-40.9,44.5-40.9v0l-5.3,0.4c-7.4,2.4-25.3,9.3-37.6,21.2
				c-15.7,15.3-19.7,42.1-59,44.5c-19.3-11.4-43.3-24-78.3-0.8c-10-1-17.3-1.4-28.5,8.5c-8.5-0.8-16.5-1.6-21.6,2.8
				c-6.3,3.9-18.1-4.1-24.4-11.8c-6.3-7.7-24-25-37.4-32.7c-1.4-0.7-2.2-0.8-2.5-0.4c1.3,1.3,8.6,8.7,14.1,13.4
				c6.1,5.2,8.1,12,16.2,26.9s20.2,20.8,25.5,18.2c8-3.8,10.6,0.4,12.1,1s5.8,4.8,4,12.1c-8.7,28.3-23.5,47.3-23.5,47.3l0,0
				c-3.9,9.4-20,27.3-23.7,30c-4.9,4.9-5.7,11.6-1.6,20.9c3.6,10.3,6.4,23.6,11.9,28.4c7.3-4.3,18.9-11.1,21.6-12.7
				c3.9-2.4,7.1-5.3,3.9-8.9c-14.8-13.4-5.9-29.3-1.4-33.1c4.5-3.7,12-8.5,12.4-25.4c0.8-22.8,12.4-40.1,13.2-43.3
				c0.8-3.1,3.9-3.9,3.9-1.6s-0.2,16.9,0,19.1c0.2,2.2,1.2,6.9,3.9,3.1c31.7-49.4,83.2-62.2,99.8-44.5
				C465.4,497.7,488.3,464.6,506.8,438.2z"/>
			<path class="st2" d="M375.9,510.5c0,0,7.9-2.8,15.2-2.8c7.3,0,14,0,14,0s4.1,2.6-0.6,3.5c-3.7,0.7-5.9,1.3-3.6,3.1
				s7.5,9.2,3.6,16.4c-3.7,6.3-13.6,6.1-15.8,6.1s-14.9,0-31.7-2.1c-2.4-0.4,0.7-2.5,1.8-3.4c1.1-0.9,4.1-6.1,4.1-6.1
				s1.3-1.3,2.9,0.4c1.5,1.7,11.6,6.1,15.8,2.2s4.6-9.2,2.1-11.8c-2.5-2.6-7.7-2.7-8.7-1.8c-1,0.9-1.4-0.9-0.7-2
				C374.9,511.1,375.9,510.5,375.9,510.5z"/>
		</g>
	</g>
	<g>
		<g>
			<path class="st2" d="M214.2,363.2c0,4.8-3.1,7.9-9.3,9.5c-12.3,3.2-18.4,4.9-30.5,8.6c-6.1,1.8-9.1,0.4-9.1-4.3
				c0-7.5,0-11.2,0-18.7c6-1.9,9-2.8,15.1-4.6c0,6.4,0,9.6,0,16c7.4-2.2,11.1-3.2,18.5-5.2c0-6.1,0-9.2,0-15.4
				c-10-4.6-20.2-9.1-30.3-13.4c-2.2-1-3.3-2.7-3.3-5.2c0-7,0-10.4,0-17.4c0-4.8,3-8.2,9.1-10c12.2-3.7,18.3-5.4,30.5-8.6
				c6.2-1.6,9.3,0,9.3,4.8c0,7,0,10.5,0,17.5c-6.1,1.5-9.2,2.3-15.2,3.9c0-5.9,0-8.9,0-14.8c-7.4,2-11.1,3-18.5,5.2
				c0,5.7,0,8.5,0,14.2c10.2,4.4,20.4,9,30.4,13.8c2.2,1,3.3,2.9,3.3,5.5C214.2,352,214.2,355.7,214.2,363.2z"/>
			<path class="st2" d="M278.1,357.5c-6.2,1-9.4,1.5-15.6,2.6c0-11.7,0-23.4,0-35.1c-8.4,1.5-12.5,2.3-20.9,4c0,11.7,0,23.4,0,35.1
				c-6.1,1.3-9.2,1.9-15.3,3.3c0-26.1,0-52.2,0-78.3c6.1-1.4,9.2-2.1,15.3-3.3c0,12.9,0,19.4,0,32.3c8.3-1.7,12.5-2.5,20.9-4
				c0-12.9,0-19.4,0-32.3c6.2-1.1,9.3-1.6,15.6-2.6C278.1,305.3,278.1,331.4,278.1,357.5z"/>
			<path class="st2" d="M333.6,350.8c-14.4,1.2-28.8,2.8-43.1,4.9c0-26.1,0-52.2,0-78.3c14.2-2,28.4-3.6,42.7-4.8
				c0,4.1,0,6.2,0,10.4c-10.9,0.9-16.3,1.5-27.2,2.8c0,9.1,0,13.7,0,22.9c9.3-1.1,14-1.6,23.4-2.5c0,4.1,0,6.1,0,10.2
				c-9.4,0.8-14.1,1.3-23.4,2.5c0,9.8,0,14.7,0,24.6c11-1.3,16.5-1.9,27.6-2.8C333.6,344.6,333.6,346.6,333.6,350.8z"/>
			<path class="st2" d="M397.2,348c-5.5,0-8.2,0-13.7,0.1c-8.3-16.1-16.6-32.3-25-48.4c0.7,2.4,1,4.2,1,5.6c0,14.5,0,29.1,0,43.6
				c-6.1,0.3-9.1,0.5-15.2,0.9c0-26.1,0-52.2,0-78.3c5.5-0.4,8.2-0.6,13.7-0.8c8.4,15.8,16.7,31.6,25,47.4c-0.7-2.4-1-4.3-1-5.6
				c0-14.2,0-28.4,0-42.6c6.1-0.1,9.1-0.2,15.2-0.2C397.2,295.8,397.2,321.9,397.2,348z"/>
			<path class="st2" d="M454,350c-16-1.1-32-1.8-48-1.9c0-2.5,0-3.8,0-6.3c9.7-20.2,19.4-40.5,29.2-60.7
				c-10.8-0.5-16.1-0.7-26.9-0.8c0-4.2,0-6.3,0-10.6c15.2,0.2,30.4,0.8,45.5,1.9c0,2.7,0,4.1,0,6.8c-9.8,19.8-19.5,39.6-29.2,59.5
				c11.7,0.4,17.6,0.7,29.3,1.5C454,343.7,454,345.8,454,350z"/>
			<path class="st2" d="M515.3,356.8c-6.2-1-9.4-1.4-15.6-2.2c0-11.7,0-23.4,0-35.1c-8.4-1.1-12.6-1.6-21.1-2.5
				c0,11.7,0,23.4,0,35.1c-6.2-0.6-9.3-0.9-15.6-1.5c0-26.1,0-52.2,0-78.3c6.2,0.5,9.3,0.8,15.6,1.5c0,12.9,0,19.4,0,32.3
				c8.4,0.9,12.6,1.4,21.1,2.5c0-12.9,0-19.4,0-32.3c6.3,0.8,9.4,1.3,15.6,2.2C515.3,304.7,515.3,330.7,515.3,356.8z"/>
			<path class="st2" d="M570.2,367.3c-14.1-3.2-28.4-6-42.7-8.4c0-26.1,0-52.2,0-78.3c14.2,2.4,28.3,5.2,42.3,8.4
				c0,4.1,0,6.2,0,10.4c-10.7-2.4-16.1-3.5-26.9-5.6c0,9.1,0,13.7,0,22.9c9.3,1.8,13.9,2.7,23.1,4.8c0,4.1,0,6.1,0,10.2
				c-9.2-2-13.9-3-23.1-4.8c0,9.8,0,14.7,0,24.6c10.9,2.1,16.4,3.2,27.2,5.7C570.2,361.1,570.2,363.1,570.2,367.3z"/>
			<path class="st2" d="M632.1,384.1c-5.3-1.7-7.9-2.5-13.2-4.1c-8-18.7-16.1-37.4-24.3-56.1c0.7,2.6,1,4.5,1,5.9
				c0,14.5,0,29.1,0,43.6c-5.9-1.6-8.9-2.3-14.9-3.8c0-26.1,0-52.2,0-78.3c5.4,1.3,8,2,13.4,3.4c8.2,18.3,16.3,36.7,24.3,55.1
				c-0.6-2.6-1-4.6-1-5.9c0-14.2,0-28.4,0-42.6c5.9,1.7,8.8,2.6,14.7,4.5C632.1,331.9,632.1,358,632.1,384.1z"/>
		</g>
	</g>
	<g>
		<g>
			<path class="st2" d="M304.1,364.2c-7.7,0.6-11.6,0.9-19.3,1.7c0,5.1,0,7.6,0,12.6c6.6-0.6,9.9-0.9,16.5-1.5c0,2.2,0,3.3,0,5.5
				c-6.6,0.5-9.9,0.8-16.5,1.5c0,7.5,0,11.3,0,18.9c-4.5,0.4-6.7,0.6-11.2,1.1c0-14.2,0-28.4,0-42.7c12.2-1.3,18.3-1.8,30.5-2.8
				C304.1,360.8,304.1,361.9,304.1,364.2z"/>
			<path class="st2" d="M347.3,394.7c0,2.6-2.3,4-6.9,4.2c-9.4,0.5-14,0.7-23.4,1.4c-4.4,0.3-6.6-0.8-6.6-3.4c0-11.6,0-23.2,0-34.8
				c0-2.6,2.2-4.1,6.6-4.4c9.3-0.6,14-0.9,23.4-1.4c4.6-0.2,6.9,1,6.9,3.6c0,4,0,6,0,10c-4.5,0.2-6.7,0.3-11.2,0.5
				c0-3.4,0-5.1,0-8.4c-5.8,0.3-8.7,0.5-14.5,0.8c0,12.7,0,19,0,31.7c5.8-0.4,8.7-0.5,14.5-0.8c0-3.6,0-5.4,0-9
				c4.5-0.2,6.7-0.3,11.2-0.5C347.3,388.4,347.3,390.5,347.3,394.7z"/>
			<path class="st2" d="M366.1,397.9c-4.3,0.1-6.5,0.2-10.8,0.3c0-2.6,0-4,0-6.6c4.3-0.2,6.5-0.2,10.8-0.3
				C366.1,394,366.1,395.3,366.1,397.9z"/>
			<path class="st2" d="M387.8,397.5c-4.4,0-6.6,0.1-11,0.2c0-12,0-18.1,0-30.1c-1.7,0-2.6,0.1-4.3,0.1c0-0.3,0-0.5,0-0.8
				c2.3-4.7,3.5-7.1,5.8-11.8c3.8-0.1,5.7-0.1,9.5-0.1C387.8,369.1,387.8,383.3,387.8,397.5z"/>
			<path class="st2" d="M433.5,394.1c0,2.6-2.3,3.8-6.8,3.7c-9-0.2-13.6-0.3-22.6-0.3c-4.5,0-6.8-1.3-6.8-3.9c0-3.6,0-5.4,0-9.1
				c4.4,0,6.6,0,11,0c0,3,0,4.5,0,7.5c5.6,0,8.4,0.1,14,0.2c0-5.1,0-7.7,0-12.8c-7.5-0.1-11.2-0.2-18.7-0.2c-4.4,0-6.7-1.3-6.7-3.8
				c0-6.6,0-9.9,0-16.6c0-2.6,2.2-3.9,6.7-3.9c9.2,0,13.8,0.1,22.9,0.3c4.6,0.1,6.9,1.5,6.9,4.1
				C433.5,370.8,433.5,382.4,433.5,394.1z M422.4,374c0-5.4,0-8.1,0-13.5c-5.7-0.1-8.6-0.1-14.3-0.2c0,5.4,0,8.1,0,13.5
				C413.8,373.8,416.7,373.9,422.4,374z"/>
			<path class="st2" d="M478.8,396.1c0,2.6-2.2,3.7-6.7,3.5c-9-0.5-13.5-0.8-22.6-1.1c-4.5-0.2-6.8-1.6-6.8-4.2c0-3.6,0-5.4,0-9.1
				c4.4,0.2,6.6,0.2,11,0.4c0,3,0,4.5,0,7.5c5.6,0.2,8.4,0.4,14,0.7c0-5.1,0-7.7,0-12.8c-7.4-0.4-11.2-0.6-18.6-0.9
				c-4.4-0.2-6.7-1.5-6.7-4.1c0-6.6,0-9.9,0-16.6c0-2.6,2.2-3.9,6.7-3.7c9.2,0.4,13.7,0.6,22.9,1.1c4.6,0.3,6.8,1.7,6.8,4.4
				C478.8,372.9,478.8,384.5,478.8,396.1z M467.7,375.7c0-5.4,0-8.1,0-13.5c-5.7-0.3-8.6-0.5-14.3-0.7c0,5.4,0,8.1,0,13.5
				C459.1,375.2,461.9,375.3,467.7,375.7z"/>
			<path class="st2" d="M525.8,396c-2.3-0.2-3.4-0.4-5.7-0.6c0,3.2,0,4.8,0,8c-4.3-0.4-6.4-0.6-10.6-1c0-3.2,0-4.8,0-8
				c-9.8-0.9-14.7-1.3-24.5-2c0-1.5,0-2.3,0-3.8c6.2-9.8,12.4-19.6,18.6-29.4c4.5,0.4,6.8,0.6,11.4,1c0,0.1,0,0.2,0,0.2
				c-7,10.9-10.4,16.4-17.4,27.4c4.8,0.4,7.2,0.6,12,1c0-5.1,0-7.7,0-12.8c4.3,0.4,6.4,0.6,10.6,1c0,5.1,0,7.7,0,12.8
				c2.3,0.2,3.4,0.3,5.7,0.6C525.8,392.7,525.8,393.8,525.8,396z"/>
		</g>
	</g>
	<g>
		<g>
			<path class="st2" d="M196.7,384.8c-4.3-1.5-7.1-3.5-7.1-3.5c0,0,0,0,0,0c0,0,0,0,0,0c0,0-1.3,3.1-4.3,6.3
				c-3,3.3-6.7,12.9,0.7,13.8c3.9,0,4.3-2.7,9.5,0.4c0,0,0,0,0,0c0,0,0,0,0,0c3-5,4.7-2.9,8-4.6
				C209.4,393.2,201.1,386.2,196.7,384.8z"/>
			<path class="st2" d="M219.9,413.8c4.5-1.3,8.8-1.1,8.8-1.1c0,0,0,0,0,0c0,0,0,0,0,0c0,0-2.9-2.6-4.7-6
				c-1.8-3.3-10.8-10.8-17.3-7.5c-2.9,2,0.1,3.3-7.1,5.1c0,0,0,0,0,0c0,0,0,0,0,0c4.3,3.9,0.6,4,0.8,6.8
				C202.1,416.5,215.4,415.1,219.9,413.8z"/>
			<path class="st2" d="M179.8,422.6c-4.8,0.8-8.7,2.8-8.7,2.8c0,0,0,0,0,0c0,0,0,0,0,0c0,0,1.3-3.4,1.2-7
				c-0.1-3.6,4.1-13.9,11.8-13.9c3.6,0.5,1.7,2.9,9,1.3c0,0,0,0,0,0c0,0,0,0,0,0c-1.7,5.3,1.7,3.7,2.9,6.3
				C197.3,417.5,184.6,421.8,179.8,422.6z"/>
			<g>
				<path class="st5" d="M197.5,403.1c-0.2,0-0.4,0-0.5-0.1c-0.2-0.1-0.1-0.4,0.1-0.5c4.2-2.6,6.4-3.8,10.6-6.1
					c0.2-0.1,0.5-0.1,0.7,0.1s0.1,0.4-0.1,0.5c-4.3,2.2-6.4,3.4-10.6,6C197.6,403.1,197.5,403.1,197.5,403.1z"/>
				<path class="st5" d="M211.6,395.4c0.1,0.4-0.3,0.8-0.9,0.9c-0.6,0.1-1.2-0.2-1.3-0.6s0.3-0.8,0.9-0.9
					C210.9,394.7,211.5,395,211.6,395.4z"/>
			</g>
			<g>
				<path class="st5" d="M194.8,403.5c0.1,0.1,0.2,0.2,0.1,0.3c-0.1,0.2-0.4,0.3-0.6,0.3c-5-0.6-7.5-0.9-12.4-1.1
					c-0.3,0-0.4-0.2-0.3-0.4c0.1-0.2,0.4-0.4,0.6-0.3c4.9,0.2,7.4,0.4,12.5,1.1C194.7,403.4,194.7,403.4,194.8,403.5z"/>
				<path class="st5" d="M178.4,402.1c0.4-0.4,1.1-0.5,1.5-0.3c0.4,0.2,0.4,0.7,0,1.1c-0.4,0.4-1.1,0.5-1.5,0.3
					C178,403,178,402.5,178.4,402.1z"/>
			</g>
			<g>
				<path class="st5" d="M196,405.3c0-0.1,0.2-0.2,0.4-0.3c0.3-0.1,0.5,0,0.6,0.2c1.1,3.5,1.6,5.3,2.7,8.8c0.1,0.2-0.1,0.4-0.4,0.4
					c-0.3,0.1-0.5,0-0.6-0.2c-1.1-3.5-1.6-5.3-2.7-8.8C196,405.4,196,405.3,196,405.3z"/>
				<path class="st5" d="M199.3,417c-0.6-0.1-0.9-0.4-0.8-0.9c0.2-0.4,0.8-0.7,1.3-0.7c0.6,0.1,0.9,0.5,0.8,0.9
					C200.5,416.8,199.9,417.1,199.3,417z"/>
			</g>
		</g>
	</g>
	<g>
		<g>
			<path class="st2" d="M610.7,387.5c-3-3.4-4.4-6.5-4.4-6.5c0,0,0,0,0,0c0,0,0,0,0,0c0,0-2.7,2.1-7,3.6c-4.3,1.5-12.4,8.5-6.5,12.7
				c3.3,1.8,5-0.4,8.1,4.8c0,0,0,0,0,0c0,0,0,0,0,0c5.1-3.1,5.6-0.4,9.4-0.4C617.5,400.9,613.8,390.9,610.7,387.5z"/>
			<path class="st2" d="M616.5,423.9c4.7,0.9,8.5,3,8.5,3c0,0,0,0,0,0c0,0,0,0,0,0c0,0-1.3-3.6-1.2-7.4c0.1-3.7-4.2-14.5-11.7-14.5
				c-3.5,0.5-1.6,3-8.9,1.2c0,0,0,0,0,0c0,0,0,0,0,0c1.8,5.5-1.6,3.8-2.7,6.4C599.3,418.3,611.8,423,616.5,423.9z"/>
			<path class="st2" d="M576.7,413.8c-4.5-1.5-8.9-1.4-8.9-1.4c0,0,0,0,0,0c0,0,0,0,0,0c0,0,2.9-2.5,4.6-5.9
				c1.7-3.3,10.6-10.8,17.2-7.2c2.9,2.1,0,3.4,7.2,5.3c0,0,0,0,0,0c0,0,0,0,0,0c-4.2,3.9-0.5,4.1-0.7,7
				C594.5,417.1,581.2,415.2,576.7,413.8z"/>
			<g>
				<path class="st5" d="M602,404.2c-0.2,0-0.3-0.2-0.4-0.3c-0.1-0.2,0.1-0.4,0.3-0.4c5-0.4,7.5-0.5,12.4-0.5c0.3,0,0.5,0.2,0.6,0.4
					c0.1,0.2-0.1,0.4-0.3,0.4c-4.9,0-7.4,0.1-12.4,0.4C602.1,404.3,602.1,404.2,602,404.2z"/>
				<path class="st5" d="M618.4,404c-0.1,0.4-0.6,0.6-1.2,0.3c-0.6-0.2-0.9-0.7-0.8-1.1s0.7-0.6,1.2-0.4
					C618.1,403,618.5,403.5,618.4,404z"/>
			</g>
			<g>
				<path class="st5" d="M599.5,403.3c0.1,0.1,0.1,0.3-0.1,0.4c-0.2,0.1-0.5,0.1-0.7,0c-4.1-2.9-6.1-4.2-10.3-6.7
					c-0.2-0.1-0.2-0.3-0.1-0.5c0.2-0.1,0.5-0.2,0.7,0c4.1,2.5,6.2,3.9,10.3,6.8C599.4,403.2,599.5,403.2,599.5,403.3z"/>
				<path class="st5" d="M586,394.4c0.6-0.2,1.2,0,1.5,0.4c0.2,0.4,0,0.8-0.6,1c-0.6,0.2-1.2,0-1.5-0.4
					C585.2,395.1,585.5,394.6,586,394.4z"/>
			</g>
			<g>
				<path class="st5" d="M599.6,405.5c0.1-0.1,0.3-0.1,0.5-0.1c0.3,0.1,0.4,0.3,0.4,0.5c-0.9,3.7-1.3,5.5-2.2,9.1
					c0,0.2-0.3,0.3-0.6,0.2c-0.3-0.1-0.4-0.3-0.4-0.5c0.9-3.7,1.3-5.5,2.2-9.1C599.5,405.6,599.6,405.5,599.6,405.5z"/>
				<path class="st5" d="M596.5,417.5c-0.5-0.3-0.6-0.8-0.2-1.1c0.4-0.3,1-0.3,1.5,0c0.5,0.3,0.6,0.8,0.2,1.1
					C597.7,417.9,597,417.8,596.5,417.5z"/>
			</g>
		</g>
	</g>
	<polygon class="st1" points="399.7,50 413.1,91.2 456.4,91.2 421.4,116.7 434.7,157.8 399.7,132.4 364.7,157.8 378,116.7 343,91.2 
		386.3,91.2 	"/>
</g>
</svg>
