<?xml version="1.0" encoding="utf-8"?>
<!-- Generator: Adobe Illustrator 23.0.3, SVG Export Plug-In . SVG Version: 6.00 Build 0)  -->
<svg version="1.1" id="图层_1" xmlns="http://www.w3.org/2000/svg" xmlns:xlink="http://www.w3.org/1999/xlink" x="0px" y="0px"
	 viewBox="0 0 800 800" style="enable-background:new 0 0 800 800;" xml:space="preserve">
<style type="text/css">
	.st0{fill:url(#SVGID_1_);}
	.st1{fill:url(#SVGID_2_);}
	.st2{fill:url(#SVGID_3_);}
	.st3{fill:url(#SVGID_4_);}
	.st4{fill:url(#SVGID_5_);}
	.st5{fill:url(#SVGID_6_);}
	.st6{fill:url(#SVGID_7_);}
	.st7{fill:url(#SVGID_8_);}
	.st8{fill:url(#SVGID_9_);}
	.st9{fill:url(#SVGID_10_);}
	.st10{fill:url(#SVGID_11_);}
	.st11{fill:url(#SVGID_12_);}
	.st12{fill:url(#SVGID_13_);}
	.st13{fill:url(#SVGID_14_);}
	.st14{fill:url(#SVGID_15_);}
	.st15{fill:url(#SVGID_16_);}
	.st16{fill:url(#SVGID_17_);}
</style>
<g>
	<g>
		<linearGradient id="SVGID_1_" gradientUnits="userSpaceOnUse" x1="370.457" y1="220.6862" x2="412.433" y2="338.815">
			<stop  offset="0.2381" style="stop-color:#D08D04"/>
			<stop  offset="0.4384" style="stop-color:#DCA200"/>
			<stop  offset="0.633" style="stop-color:#F9C972"/>
			<stop  offset="0.6568" style="stop-color:#EFBF5F"/>
			<stop  offset="0.706" style="stop-color:#DDAC3D"/>
			<stop  offset="0.7467" style="stop-color:#D2A128"/>
			<stop  offset="0.7734" style="stop-color:#CE9D20"/>
			<stop  offset="0.8319" style="stop-color:#B67F22"/>
			<stop  offset="0.8968" style="stop-color:#A26523"/>
			<stop  offset="0.9548" style="stop-color:#955524"/>
			<stop  offset="1" style="stop-color:#914F24"/>
		</linearGradient>
		<path class="st0" d="M460.9,288.5c0-35-33.7-48.8-58.6-48.8c-34.3,0-57.3,9.9-73.4,9.9c-10.2,0-20.2-2.8-20.7-17.2l-0.2,0.1
			c0,11.8,3.9,33.3,37,33.3c21.3,0,41-8.7,58.7-8.7c15.8,0,38.8,13.6,38.8,37.2c0,11-8.2,34.7-35.4,39.8c3.2,0.7,6.6,1,10.1,1
			C441.4,335.1,460.9,316.1,460.9,288.5z"/>
		<linearGradient id="SVGID_2_" gradientUnits="userSpaceOnUse" x1="369.4003" y1="295.7872" x2="442.5154" y2="295.7872">
			<stop  offset="0" style="stop-color:#984F24"/>
			<stop  offset="1" style="stop-color:#4F2511"/>
		</linearGradient>
		<path class="st1" d="M409.5,334.5c-0.8-0.1-1.6-0.3-2.4-0.4c27.2-5.1,35.4-28.7,35.4-39.8c0-23.5-23-37.2-38.8-37.2
			c-6.4,0-13.1,1.2-20.1,2.6c7.5,4,16.2,11.1,16.2,22.7c0,17.2-11.1,23.3-30.5,22.9C375.7,317.8,390.2,331.5,409.5,334.5z"/>
		<linearGradient id="SVGID_3_" gradientUnits="userSpaceOnUse" x1="263.7385" y1="182.46" x2="330.9116" y2="225.0421">
			<stop  offset="0" style="stop-color:#D08D04"/>
			<stop  offset="1" style="stop-color:#984F24"/>
		</linearGradient>
		<path class="st2" d="M278.4,173.1c-19.7,0-40.9,14.4-44.1,16.9c0,0,15.9-11.2,35.9-11.2c28.5,0,39,22.4,41.4,38.8
			c1.2-3.9,2.3-8.2,2.3-13.2C313.8,183.9,295.7,173.1,278.4,173.1z"/>
	</g>
	<radialGradient id="SVGID_4_" cx="346.2354" cy="214.6161" r="285.9831" gradientUnits="userSpaceOnUse">
		<stop  offset="0" style="stop-color:#FFE99C"/>
		<stop  offset="0.1074" style="stop-color:#FCE393"/>
		<stop  offset="0.2826" style="stop-color:#F2D27B"/>
		<stop  offset="0.5024" style="stop-color:#E3B653"/>
		<stop  offset="0.6404" style="stop-color:#D8A237"/>
		<stop  offset="0.8867" style="stop-color:#BA7A1A"/>
		<stop  offset="0.95" style="stop-color:#E1A535"/>
		<stop  offset="1" style="stop-color:#FBD482"/>
	</radialGradient>
	<path class="st3" d="M417.8,165.9c12.2,0,23.6,2.7,34,5.6c22.3,6.2,38.6,17.3,38.6,31.6c0,13.3-15.6,25.6-40.9,25.6
		c-63.4,0-91.3-71.5-145-71.5c-45.5,0-70.2,32.8-70.2,32.8c3.2-2.4,24.5-16.9,44.1-16.9c17.3,0,35.4,10.8,35.4,31.3
		c0,11.4-5.7,19.3-5.7,27c0,15.3,10.3,18.2,20.7,18.2c16.1,0,39.2-9.9,73.4-9.9c24.8,0,58.6,13.8,58.6,48.8
		c0,27.6-19.5,46.6-43.6,46.6c-26,0-45-19.8-50-34.8c-9-27-22-39.7-37.7-39.7c-17.4,0-29.5,19-49.3,19c-7.1,0-20.6-4.9-20.6-21.1
		c0-14.9,11.4-27.4,21.4-33.3c7-4.1,13.8-4.9,13.8-4.9c-12.8-4.1-44.3,13.4-44.3,40.1c0,11.7,5.8,24.3,15.6,32.5
		c9.2,7.7,22.2,11.2,34.7,11.2c7,0,16-0.9,24.3,1.6c12.7,3.7,23.8,13.1,23.8,29.9c0,17.7-12.9,48.1-37.7,48.1
		c-18.7,0-27-21.9-37-42.3c-6.8-13.6-19.8-28.7-38.2-28.7c-9.3,0-13.8,3.1-13.8,3.1s10.3-0.9,22.2,10c7.8,7.2,15.7,26.6,18.7,39.6
		C278.9,431.5,333.7,485,417.8,485c88.4,0,160.1-71.4,160.1-159.6C577.9,237.3,506.2,165.9,417.8,165.9z M401.8,475.6
		c-38.3,0-70.9-30.1-70.9-50.1c0-20,27.3-33.4,30.9-35.8c3.7-2.3,19.1-8.2,19.1-26c0-12.6-5.7-20-5.7-20s94.6,23.7,94.6,73.1
		C469.9,467.1,418.6,475.6,401.8,475.6z M518.7,419.9c-26.1,0-27-45-31.9-62.4c-4.3-15.2-13.8-26.2-28.7-38c0,0,35.5,1.9,62.7-40.5
		c9.3-14.4,9.3-27.2,22.5-27.2c9.8,0,31.9,22.6,31.9,74.8C575.1,376.6,538.7,419.9,518.7,419.9z"/>
	<g>
		<linearGradient id="SVGID_5_" gradientUnits="userSpaceOnUse" x1="458.0726" y1="338.7357" x2="552.2767" y2="338.7357">
			<stop  offset="0" style="stop-color:#984F24"/>
			<stop  offset="1" style="stop-color:#4F2511"/>
		</linearGradient>
		<path class="st4" d="M527.3,270.2c-0.5,0-1.2,0-1.8,0.1c-1.2,2.5-2.6,5.2-4.3,7.9c4.6,5.8,11.9,17.4,11.9,33.9
			c0,22.8-10.8,37.6-21.5,37.6c-13.6,0-9.4-14.8-13.7-28.2c-1.5-4.8-4.5-9.1-7-12.3c-17.9,11-32.9,10.3-32.9,10.3
			c14.9,11.8,24.4,22.8,28.7,38c3.2,11.5,4.7,34.9,12.9,49.5c1,0.2,2.1,0.3,3.5,0.3c13.4,0,49.1-30.3,49.1-84.6
			C552.3,273.8,529.8,270.2,527.3,270.2z"/>
		<linearGradient id="SVGID_6_" gradientUnits="userSpaceOnUse" x1="537.3759" y1="419.8774" x2="537.3759" y2="251.7146">
			<stop  offset="0" style="stop-color:#FFF57F"/>
			<stop  offset="3.448280e-02" style="stop-color:#FFE228"/>
			<stop  offset="0.1823" style="stop-color:#986935"/>
			<stop  offset="0.5714" style="stop-color:#A87436"/>
			<stop  offset="0.7586" style="stop-color:#AB7D38"/>
			<stop  offset="1" style="stop-color:#5C250D"/>
		</linearGradient>
		<path class="st5" d="M518.7,419.9c20,0,56.4-43.3,56.4-93.3c0-52.2-22.1-74.8-31.9-74.8c-10.4,0-12.6,8-17.7,18.6
			c0.6-0.1,1.2-0.1,1.8-0.1c2.4,0,25,3.6,25,52.5c0,54.4-35.7,84.6-49.1,84.6c-1.4,0-2.5-0.1-3.5-0.3
			C503.8,414.6,509.8,419.9,518.7,419.9z"/>
	</g>
	<g>
		<linearGradient id="SVGID_7_" gradientUnits="userSpaceOnUse" x1="370.1399" y1="409.7278" x2="454.7146" y2="409.7278">
			<stop  offset="0" style="stop-color:#984F24"/>
			<stop  offset="1" style="stop-color:#4F2511"/>
		</linearGradient>
		<path class="st6" d="M431.7,400.6c0-9.6,5.4-19.3,10.8-26.7c-27.9-20.2-67.2-30.1-67.2-30.1s5.7,7.3,5.7,20c0,5.8-1.7,10.4-4,13.9
			c12.3,7.1,26.7,18.6,26.7,34.3c0,12.8-15.3,28.3-36.4,28.6c-10.8,0.2-21.4,1-31.7-0.6c10.3,17.4,36.6,35.5,66.2,35.5
			c14.9,0,57-6.7,66.3-43.3C450.9,432.5,431.7,418.9,431.7,400.6z"/>
		<linearGradient id="SVGID_8_" gradientUnits="userSpaceOnUse" x1="346.9351" y1="394.0324" x2="457.8124" y2="471.5294">
			<stop  offset="0" style="stop-color:#945123"/>
			<stop  offset="7.606497e-02" style="stop-color:#985521"/>
			<stop  offset="0.1549" style="stop-color:#A5621A"/>
			<stop  offset="0.2346" style="stop-color:#B97610"/>
			<stop  offset="0.3" style="stop-color:#D08D04"/>
			<stop  offset="0.5443" style="stop-color:#F7B639"/>
			<stop  offset="0.645" style="stop-color:#E9A81D"/>
			<stop  offset="0.7432" style="stop-color:#DF9D08"/>
			<stop  offset="0.8079" style="stop-color:#DB9900"/>
			<stop  offset="0.8528" style="stop-color:#C17F0D"/>
			<stop  offset="0.9096" style="stop-color:#A76519"/>
			<stop  offset="0.9605" style="stop-color:#975521"/>
			<stop  offset="1" style="stop-color:#914F24"/>
		</linearGradient>
		<path class="st7" d="M361.8,389.8c-3.7,2.3-30.9,15.8-30.9,35.8c0,20,32.6,50.1,70.9,50.1c16.5,0,66.5-8.3,68.1-56.3
			c-8.2,21.5-38.1,34.5-60.7,34.5c-29.6,0-52.4-20.8-52.4-35.6c0-17.6,27.1-22.1,27.1-36.4c0-8.1-1.3-14.7-2.9-19.8
			c0,0.6,0.1,1.2,0.1,1.9C381,381.6,365.5,387.4,361.8,389.8z"/>
		<linearGradient id="SVGID_9_" gradientUnits="userSpaceOnUse" x1="378.483" y1="342.9271" x2="371.0307" y2="401.1683">
			<stop  offset="0" style="stop-color:#AF761F"/>
			<stop  offset="0.1963" style="stop-color:#B1781E"/>
			<stop  offset="0.267" style="stop-color:#B87F1A"/>
			<stop  offset="0.3021" style="stop-color:#BF8615"/>
			<stop  offset="0.3496" style="stop-color:#C88E0F"/>
			<stop  offset="0.4525" style="stop-color:#D39A06"/>
			<stop  offset="0.5975" style="stop-color:#DAA001"/>
			<stop  offset="1" style="stop-color:#DCA200"/>
		</linearGradient>
		<path class="st8" d="M368.8,401.6c17.4,0,33.1-17.5,33.1-38.8c0-2.5-0.5-6.6-1.1-10.6c-14.5-5.6-25.6-8.4-25.6-8.4s5.7,7.3,5.7,20
			c0,17.8-15.5,23.6-19.1,26c-1.9,1.2-9.8,5.2-17.1,11.5C359.1,398.2,362.2,401.6,368.8,401.6z"/>
	</g>
	<g>
		<linearGradient id="SVGID_10_" gradientUnits="userSpaceOnUse" x1="377.9855" y1="208.343" x2="467.3098" y2="208.343">
			<stop  offset="0" style="stop-color:#984F24"/>
			<stop  offset="1" style="stop-color:#4F2511"/>
		</linearGradient>
		<path class="st9" d="M422.9,188c-17.2,0-35,5.3-45,8.8c6.7,5.5,13.6,10.8,20.8,15.5c4.8-2.3,14.1-5.6,27.7-5.6
			c20.6,0,24.3,7.5,24.3,12.1c0,4.4-2.5,7.8-6.1,9.8c0,0,0,0,0,0c1.6,0.1,3.2,0.1,4.8,0.1c0.6,0,1.1,0,1.6,0
			c8.5-2.4,16.2-7.2,16.2-16.3C467.3,197.7,445.8,188,422.9,188z"/>
		<linearGradient id="SVGID_11_" gradientUnits="userSpaceOnUse" x1="381.2635" y1="151.2147" x2="483.1784" y2="235.8312">
			<stop  offset="0" style="stop-color:#C7953F"/>
			<stop  offset="7.805882e-02" style="stop-color:#D1A14B"/>
			<stop  offset="0.2989" style="stop-color:#E8BF6A"/>
			<stop  offset="0.4876" style="stop-color:#F7D17C"/>
			<stop  offset="0.6207" style="stop-color:#FCD883"/>
			<stop  offset="0.6727" style="stop-color:#FBD680"/>
			<stop  offset="0.716" style="stop-color:#F6CE75"/>
			<stop  offset="0.7563" style="stop-color:#EFC264"/>
			<stop  offset="0.7944" style="stop-color:#E4B14C"/>
			<stop  offset="0.8177" style="stop-color:#DCA439"/>
			<stop  offset="0.8475" style="stop-color:#CE8C2C"/>
			<stop  offset="0.8789" style="stop-color:#C47B22"/>
			<stop  offset="0.9133" style="stop-color:#BE711D"/>
			<stop  offset="0.9557" style="stop-color:#BC6E1B"/>
		</linearGradient>
		<path class="st10" d="M490.4,203.1c0-14.3-16.3-25.4-38.6-31.6c-10.4-2.9-21.8-5.6-34-5.6c-19.7,0-40.3,5.2-59.9,14.4
			c6.7,5.2,13.3,10.9,20.1,16.4l0,0c10-3.5,27.8-8.8,45-8.8c22.9,0,44.4,9.8,44.4,24.4c0,9.1-7.7,13.9-16.2,16.3
			C475.5,228.2,490.4,216.1,490.4,203.1z"/>
	</g>
	<g>
		<linearGradient id="SVGID_12_" gradientUnits="userSpaceOnUse" x1="281.1508" y1="215.8034" x2="281.1508" y2="280.0612">
			<stop  offset="0" style="stop-color:#D08D04"/>
			<stop  offset="1" style="stop-color:#984F24"/>
		</linearGradient>
		<path class="st11" d="M259.7,258.4c0,16.2,13.5,21.1,20.6,21.1c8.5,0,15.6-3.5,22.4-7.6c-3.4,1.2-7.2,2.2-11.4,2.2
			c-14.4,0-23.8-11-23.8-22.8c0-20.5,27.4-31.1,27.4-31.1s-6.8,0.8-13.8,4.9C271,231.1,259.7,243.6,259.7,258.4z"/>
		<linearGradient id="SVGID_13_" gradientUnits="userSpaceOnUse" x1="280.13" y1="309.3574" x2="289.9398" y2="385.7913">
			<stop  offset="0.2381" style="stop-color:#D08D04"/>
			<stop  offset="0.7685" style="stop-color:#DCA200"/>
			<stop  offset="0.8288" style="stop-color:#EFC415"/>
			<stop  offset="0.8768" style="stop-color:#FFE228"/>
			<stop  offset="0.881" style="stop-color:#FEE232"/>
			<stop  offset="0.8976" style="stop-color:#FCE258"/>
			<stop  offset="0.9151" style="stop-color:#FAE176"/>
			<stop  offset="0.9333" style="stop-color:#F8E18E"/>
			<stop  offset="0.9525" style="stop-color:#F7E19F"/>
			<stop  offset="0.9736" style="stop-color:#F6E1A9"/>
			<stop  offset="1" style="stop-color:#F6E1AC"/>
		</linearGradient>
		<path class="st12" d="M274.3,341.4c10.1,20.3,18.3,42.3,37,42.3c16.5,0,27.7-13.4,33.4-27.5c-4.7,7.1-13.3,16.1-23.9,16.1
			c-12.5,0-19.9-9.9-24.9-21.9c-2.6-6.3-5.3-11.3-6.4-14.3c-5.3-14.2-18.8-28.5-39.4-28.5c-16.8,0-27.6,8.2-27.6,8.2
			s4.4-3.1,13.8-3.1C254.5,312.7,267.5,327.8,274.3,341.4z"/>
		<linearGradient id="SVGID_14_" gradientUnits="userSpaceOnUse" x1="254.6284" y1="301.5702" x2="347.4879" y2="301.5702">
			<stop  offset="0" style="stop-color:#984F24"/>
			<stop  offset="1" style="stop-color:#4F2511"/>
		</linearGradient>
		<path class="st13" d="M325.3,305.6c-8.3-2.4-17.3-1.6-24.3-1.6c-12.6,0-25.5-3.6-34.7-11.2c-5-4.1-8.9-9.4-11.6-15.1
			c5.6,14.2,18.9,35.9,42.7,35.9c7.3,0,11.8-0.6,19.6-0.6c20.2,0,25.3,3.7,30.5,12.3C344,314.8,335.1,308.4,325.3,305.6z"/>
		<linearGradient id="SVGID_15_" gradientUnits="userSpaceOnUse" x1="261.2366" y1="340.6622" x2="347.6236" y2="340.6622">
			<stop  offset="0" style="stop-color:#984F24"/>
			<stop  offset="1" style="stop-color:#4F2511"/>
		</linearGradient>
		<path class="st14" d="M332,353.5c-10.9,0-19.7-5.9-27-13.6c-4.8-5-9.3-11.8-13.8-16.1c-10.4-9.7-21.6-13.4-30-14.8
			c14.4,4,24,15.5,28.2,26.9c1.1,3,3.8,8.1,6.4,14.3c5,12,12.4,21.9,24.9,21.9c10.6,0,19.2-9,23.9-16.1c1.2-3.1,2.2-6.2,2.9-9.2
			C344.2,350.5,339.2,353.5,332,353.5z"/>
	</g>
	<linearGradient id="SVGID_16_" gradientUnits="userSpaceOnUse" x1="400" y1="521.2908" x2="400" y2="582.6047">
		<stop  offset="0" style="stop-color:#D1A375"/>
		<stop  offset="0.45" style="stop-color:#925C30"/>
	</linearGradient>
	<path class="st15" d="M111.9,529.7c-1.7,0-9.7,0-19,0.1v-6h-9.8v6C72.8,530,63,530,60.2,530c-6.1,0-10.1-6.2-10.1-6.2
		c-1.2,9.7,4.5,12.1,9.6,12.1c2,0,12.5-0.1,23.3-0.1v31.6c-9.5,0-17.8,0-18.5,0c-1.7,0-2.7-1.9-2.7-4.1c0-2.2,0-22.3,0-22.3
		l-9.9-3.5c0,0,0,23.5,0,28.8s3.4,6.9,6.3,6.9c1.2,0,12.1,0,24.8,0v9.2h9.8v-9.2c15.8,0,31.1,0,31.1,0s0-27.1,0-34.9
		C124,530.6,116.1,529.7,111.9,529.7z M114.1,567.5c0,0-10.1,0-21.2,0v-31.6c8.5-0.1,15.5-0.1,16.6-0.1c2.9,0,4.5,1.6,4.5,3.8
		C114.1,541.7,114.1,567.5,114.1,567.5z M190.4,524.2c-6.1,0-59.9,0.7-59.9,0.7s0,45.8,0,50.3c0,4.5,1.8,7.3,5.8,7.3
		c4,0,66.1,0,66.1,0s0-42.7,0-49.3C202.4,526.5,196.5,524.2,190.4,524.2z M192.5,576.5c0,0-44.8,0-48.4,0c-3.5,0-3.9-2.1-3.9-4.4
		c0-2.3,0.1-41.4,0.1-41.4s44-0.4,46.9-0.4s5.3,0.9,5.3,4.2S192.5,576.5,192.5,576.5z M143,535.2h46.8v6h-18.4v7.5h18.4v6h-18.4V567
		h5.5l1-8.8h9.9l-1.2,8.8h3.2v6H143v-6h18.5v-12.3H143v-6h18.5v-7.5H143V535.2z M247.8,566.2h27.8v-6h-27.8v-7.6
		c14.2,0,27.9,0,27.9,0s0-14.5,0-20.5c0-6.1-8-8-11.8-8c-3.9,0-53.7,0.8-53.7,0.8s0,16.5,0,21.2c0,4.7,3.4,6.6,6.3,6.6
		c1.1,0,10.5,0,21.6,0v22.1c-8.6-1.1-13.1-4.1-15.3-6.5c1.9-7.9,1.8-11.9,1.8-11.9h-10c-0.6,12.4-6,26.2-6,26.2h10
		c0.9-2.5,1.7-4.9,2.4-7.1c3.3,2,8.7,4.6,18,5.7c4,0.5,38,1.4,38,1.4l2.3-6.1c0,0-16.7,0-31.2-0.9V566.2z M220,542.9
		c0-2.2,0-12.3,0-12.3s36.8-0.4,40.8-0.4s5,1.9,5,4.2c0,2.3,0,12.3,0,12.3s-39.6,0-42.2,0C221,546.7,220,545.2,220,542.9z
		 M284,527.5h24v6h-6.2v15.4h6.2v6h-6.2V572l6.2-1.3v6l-24,5v-6l8-1.6v-19.1h-8v-6h8v-15.4h-8V527.5z M346.1,521.9l9.8,2.1v10.1
		h-15.9c0,5.8,0,13.4,0,20.6l15.9,15v9.9l-15.9-15c0,6.8,0,12,0,12.9c0,3-2.3,5.1-3.9,5.1s-13.8,0-13.8,0l-1.6-5.9c0,0,6.2,0,6.8,0
		c0.7,0,2.6-0.9,2.6-2.7c0-1.3,0-25.7,0-40h-17.7v-6h17.7c0-2.5,0-4.1,0-4.1h9.8c0,0,0,1.5,0,4.1h6.1V521.9z M319.4,552.4
		c0,0-1.7-8.3-6.9-16h8.2c0,0,5.2,6.8,6.7,16H319.4z M340.9,552.4c1.6-9.2,6.7-16,6.7-16h8.2c-5.3,7.7-6.9,16-6.9,16H340.9z
		 M326.1,554.6c0,0-2.4,13.3-8.3,22.1h-8.5c0,0,6.6-10.1,8.8-22.1H326.1z M377.7,543v39.5h-9.8V543h-7.2v-6h7.2v-13.2h9.8V537h7v6
		H377.7z M429.4,550.4l6.5,5.7v9.9l-6.5-5.7c0,8.3,0,15.9,0,17.3c0,2.8-1.5,5.1-5,5.1s-12.6,0-12.6,0l-1.7-6c0,0,4.1,0,6,0
		c2,0,3.5-0.1,3.5-3.3c0,0,0-30.6,0-33.3c0-2.7-1.8-4.1-4.6-4.1c-0.7,0-2.7,0-5.3,0c-1.6,12.4-5.7,31.9-15.5,46.6h-10
		c0,0,12.1-18.7,15.8-46.6c-7,0-13.7,0.1-13.7,0.1v-5.8c0,0,6.9-0.2,14.4-0.3c0.2-2,0.3-4,0.4-6.1h9.8c0,0-0.1,2.2-0.4,5.9
		c4.1-0.1,7.4-0.1,8.6-0.1c3.7,0,10.5,1.3,10.5,8C429.4,539.8,429.4,544.7,429.4,550.4z M386.5,570.5h-7.8c0,0,5.9-13.8,8.5-27.8
		h7.8C395,542.6,391.5,560.1,386.5,570.5z M482.6,523c12,12.2,29.1,19.5,29.1,19.5v7.7c-23.4-8.8-35.9-22.3-35.9-22.3
		s-12.5,13.5-35.9,22.3v-7.7c0,0,17.1-7.3,29.1-19.5H482.6z M494.6,542.4v6h-37.8v-6H494.6z M443.5,555.2h64.4v6h-43.9
		c-1.6,2.6-6.3,10.4-7.2,11.9c-1.1,1.8-1.8,3.2,1.6,3c2.9-0.1,27.1-1.8,34.9-2.3l-3.1-7.9h10l6.3,16.4h-9.9l-1.2-3
		c-9.7,0.7-43.1,3.2-45.6,3.4c-3,0.2-7.3-1.3-4.2-6.2c2.6-4.1,7.6-12.5,9.2-15.2h-11.2V555.2z M544.2,574.9
		c15.5,1.6,46.3,1.6,46.3,1.6l-2.3,6.1c0,0-40.6-0.9-44.6-1.4c-8.7-1.1-14.2-3.2-17.8-5c-0.4,2.1-0.9,4.2-1.4,6.4h-8.4
		c0,0,3.9-16.6,3.8-27.2h8.5c0,0,0,5.2-1.2,13.2c0.9,0.8,2,1.7,3.6,2.5v-21.9h-12.2v-6h10.3v-9.9c-1.4,0-2.6,0-3.2,0
		c-3.3,0-11.4-1.6-10.1-12.1c0,0,4.2,6.2,11.1,6.2c0.6,0,1.4,0,2.2,0v-3.7h9.4v3.7c5.4,0,10.2,0,10.2,0v5.8c0,0-4.9,0-10.2,0v9.9
		h10.2v6h-8.3v9.4h8.3v6h-8.3v9.7C541.3,574.5,542.7,574.7,544.2,574.9z M582.1,549.2c-3.4,0-30.5,0-30.5,0v24.2h35.6
		c0,0,0-17.2,0-19.6S585.4,549.2,582.1,549.2z M577.9,567.5h-17V555c0,0,12.7,0,14.5,0c1.8,0,2.5,1.4,2.5,2.5
		C577.9,558.6,577.9,567.5,577.9,567.5z M551.2,547.1c0,0,5-10.9,5.9-16.9c-3.3,0-5.8,0.1-5.8,0.1v-6.1c0,0,23.9-0.4,28.5-0.4
		c4.6,0,8.3,1.9,8.3,6.1s0,9.7,0,12.1c0,2.4-1.3,5-4.7,5s-9.7,0-9.7,0l-1.8-5.8c0,0,3.2,0,4.4,0c1.2,0,2.4-0.8,2.4-2.9s0-4.8,0-5.9
		c0-1.1-0.9-2.4-3.4-2.4c-1,0-4.9,0-9.3,0.1c-0.5,2.6-2,9.6-5.5,17H551.2z M618.3,573l-22,7.1v-6.7l22-7.1V573z M597.3,562.9
		c1.9-2.5,10.9-15.6,10.9-15.6s-8.3,1.2-10,1.4s-2.8-0.3-1.1-3.4c1.7-3.1,11.4-21.1,11.4-21.1h10.8l-9,17.5l13.8-2.2L611.1,559
		l8.6-1.3l-2.6,5.5c0,0-16.7,2.7-18.7,3.1S595.3,565.4,597.3,562.9z M665.3,544.1c-1.9,0-10.6,0-10.6,0s6.8-11.6,8.2-14.1
		s2.1-6-1.9-6c-4,0-38.9,1-38.9,1l0,5.7l6.8-0.1c-1.1,24.6-11.7,51.9-11.7,51.9h9.1c3.8-9.9,6.4-19.5,8.1-27.8c2,5,5.3,10,8.7,14.4
		c-5.8,7.5-11.3,13.4-11.3,13.4h11.5c1.9-2.2,3.7-4.4,5.4-6.6c3.7,4,6.5,6.6,6.5,6.6h11.4c-5.1-4.7-9.4-9.2-12.9-13.4
		c7.2-10.5,11.7-19.5,12.5-20.8C667.4,546.4,667.2,544.1,665.3,544.1z M648.3,562c-7.1-10-10.1-18-11.3-22.8c0.5-4,0.7-7,0.8-8.8
		l14.6-0.3l-7.5,13.6v6.2h10.4C653.6,553.7,651.1,557.9,648.3,562z M692.2,558v24.5h-9.8v-29c-1.4,6.5-3.6,14.8-6.7,22.8h-7.5
		c0,0,8.1-22,9.2-35.2h5v-3.6h-9.2v-6h9.2v-7.7h9.8v7.7h9.3v6h-9.3v10.5l9.2,7.8V566L692.2,558z M729.1,531.1v51.5h-9.8v-47.9
		c-3.4,26.5-11.7,41.3-11.7,41.3h-8.1c10.1-22.8,11.7-39.7,12-44.9h-10.1v-6h43.7v6H729.1z M750,573h-7.5l-12.2-35h7.5L750,573z"/>
	<linearGradient id="SVGID_17_" gradientUnits="userSpaceOnUse" x1="398.8386" y1="593.8631" x2="398.8386" y2="642.8489">
		<stop  offset="0" style="stop-color:#D1A375"/>
		<stop  offset="0.55" style="stop-color:#925C30"/>
	</linearGradient>
	<path class="st16" d="M220.8,635.3l0.7,6.4c0,0-8.4,1-14.4,1.2c-11.8,0.3-16.7-6.9-16.7-20c0-8.4,1.7-21.1,15.6-20.9
		c0,0-3.4-4.5,1.3-8.1c0,0,0.2,6,8,7.9s5.8,7.4,5.8,7.4s-7.5-0.8-10.5-0.8c-5.9,0-10.2,1.7-10.2,14.5c0,12.7,5.8,13.3,10.4,13.3
		S220.8,635.3,220.8,635.3z M255,625.4v-6.7h-18.5c0-3.2,0-5.6,0-6.1c0-1.7,1.1-3.6,4.7-3.6c3.6,0,13.8,0,13.8,0v-6.2
		c0,0-2.1-0.2-12.6-0.2c-10.5,0-15.6,3.8-15.6,9.7c0,5.6,0,30.1,0,30.1h9.7c0,0,0-8.9,0-17H255z M283.9,607.3
		c1.9,4.7,13.6,35.1,13.6,35.1h-10.1l-3.2-9.5H268l-3.1,9.5h-10c0,0,12.3-31.4,13.8-35.1c1.5-3.7,4.4-5.6,7.6-5.6
		S282.5,603.8,283.9,607.3z M282,626.8l-6.2-18.1l-5.9,18.1H282z M334.6,621.7c-5.9-3.8-14.8-2.8-14.8-8.2c0-4.2,3.7-5.6,8-5.6
		c4.3,0,9.7,1.3,9.7,1.3c0.6-4.8-0.5-5.8-6.9-7.8c-6.4-2-7.2-7.6-7.2-7.6c-4.5,4.7-1,7.9-1,7.9c-7.3,1-12.1,5.6-12.1,11
		c0,5.4,3.8,8.4,7.1,10.4c5.1,3,13.4,2.1,13.4,8.2c0,3.1-2.8,5.2-8.5,5.2c-5.7,0-12-1.9-12-1.9v6.5c0,0,8.7,1.6,13.2,1.6
		c10.5,0,17.2-4.1,17.2-10.6C340.5,628.4,338.7,624.3,334.6,621.7z M368.6,629.8c0,2.9-2.2,6.2-7.2,6.2s-7.2-3.2-7.2-6.2
		c0-2.9,0-27.7,0-27.7h-10c0,0,0,19.2,0,27.5s6.1,12.9,17.1,12.9s17.1-4.7,17.1-12.9s0-27.5,0-27.5h-10
		C368.6,602.1,368.6,626.9,368.6,629.8z M417.6,615.9c0,11-11,13.4-23.5,13v13.5h-9.9v-39.2c0,0,7.8-1.5,14.7-1.5
		S417.6,603.3,417.6,615.9z M407.7,615.1c0-6.9-7.1-6.8-8.8-6.8s-4.9,0.4-4.9,0.4v13.6c0,0,3,0,5.4,0
		C401.8,622.4,407.7,621,407.7,615.1z M431.1,612.4c0-2.6,2.6-3.2,4.4-3.2s14.1,0,14.1,0v-6.2c0,0-8.7-0.3-12.3-0.3
		c-14.4,0-15.9,6-15.9,9.3s0,18.1,0,21.4c0,3.3,1.5,9.3,15.9,9.3c3.6,0,12.3-0.3,12.3-0.3v-6.2c0,0-12.2,0-14.1,0s-4.4-0.6-4.4-3.2
		c0-1,0-4.1,0-7.7h18.5v-6.6h-18.5C431.1,615.8,431.1,613.3,431.1,612.4z M488.9,615.6c0-13.4-14.1-13.8-18.5-13.8
		c-6,0-14.6,1.4-14.6,1.4v39.2h9.7v-33.4c0,0,0.8-0.6,4.8-0.6c3.9,0,9,0.8,9,6.5c0,5.7-5.4,7.5-6.9,7.5c-1.6,0-6.2,0.1-6.2,0.1
		l13.1,20h10.9L480,627.5C480,627.5,488.9,625.2,488.9,615.6z M519.4,636.2c-4.6,0-10.4-0.6-10.4-13.3c0-12.7,4.4-14.5,10.2-14.5
		c3,0,10.5,0.8,10.5,0.8s1.9-5.5-5.8-7.4c-7.8-1.9-8-7.9-8-7.9c-4.7,3.6-1.3,8.1-1.3,8.1c-13.8-0.2-15.6,12.5-15.6,20.9
		c0,13.1,5,20.3,16.8,20c6-0.2,14.4-1.2,14.4-1.2l-0.7-6.4C529.7,635.3,524,636.2,519.4,636.2z M559.7,629.8c0,2.9-2.2,6.2-7.2,6.2
		s-7.2-3.2-7.2-6.2c0-2.9,0-27.7,0-27.7h-10c0,0,0,19.2,0,27.5s6.1,12.9,17.1,12.9c11.1,0,17.1-4.7,17.1-12.9s0-27.5,0-27.5h-10
		C559.7,602.1,559.7,626.9,559.7,629.8z M607.4,615.9c0,11-11,13.4-23.5,13v13.5H574v-39.2c0,0,7.8-1.5,14.7-1.5
		C595.6,601.7,607.4,603.3,607.4,615.9z M597.5,615.1c0-6.9-7.1-6.8-8.8-6.8s-4.9,0.4-4.9,0.4v13.6c0,0,3,0,5.4,0
		C591.7,622.4,597.5,621,597.5,615.1z"/>
</g>
</svg>
