<?xml version="1.0" encoding="utf-8"?>
<!-- Generator: Adobe Illustrator 23.0.3, SVG Export Plug-In . SVG Version: 6.00 Build 0)  -->
<svg version="1.1" id="图层_1" xmlns="http://www.w3.org/2000/svg" xmlns:xlink="http://www.w3.org/1999/xlink" x="0px" y="0px"
	 viewBox="0 0 800 800" style="enable-background:new 0 0 800 800;" xml:space="preserve">
<style type="text/css">
	.st0{fill:url(#SVGID_1_);}
	.st1{fill:url(#SVGID_2_);}
	.st2{fill:url(#SVGID_3_);}
	.st3{fill:url(#SVGID_4_);}
	.st4{fill:url(#SVGID_5_);}
	.st5{fill:url(#SVGID_6_);}
	.st6{fill:url(#SVGID_7_);}
	.st7{fill:url(#SVGID_8_);}
	.st8{fill:url(#SVGID_9_);}
	.st9{fill:url(#SVGID_10_);}
	.st10{fill:url(#SVGID_11_);}
	.st11{fill:url(#SVGID_12_);}
	.st12{fill:url(#SVGID_13_);}
	.st13{fill:url(#SVGID_14_);}
	.st14{fill:url(#SVGID_15_);}
</style>
<g>
	<g>
		<linearGradient id="SVGID_1_" gradientUnits="userSpaceOnUse" x1="341.5515" y1="202.2897" x2="424.2012" y2="434.8825">
			<stop  offset="0.2381" style="stop-color:#D08D04"/>
			<stop  offset="0.4384" style="stop-color:#DCA200"/>
			<stop  offset="0.633" style="stop-color:#F9C972"/>
			<stop  offset="0.6568" style="stop-color:#EFBF5F"/>
			<stop  offset="0.706" style="stop-color:#DDAC3D"/>
			<stop  offset="0.7467" style="stop-color:#D2A128"/>
			<stop  offset="0.7734" style="stop-color:#CE9D20"/>
			<stop  offset="0.8319" style="stop-color:#B67F22"/>
			<stop  offset="0.8968" style="stop-color:#A26523"/>
			<stop  offset="0.9548" style="stop-color:#955524"/>
			<stop  offset="1" style="stop-color:#914F24"/>
		</linearGradient>
		<path class="st0" d="M519.6,335.8c0-68.9-66.4-96.1-115.3-96.1c-67.5,0-112.9,19.4-144.6,19.4c-20,0-39.8-5.5-40.8-33.8l-0.3,0.2
			c0,23.2,7.6,65.5,72.9,65.5c41.9,0,80.8-17,115.5-17c31,0,76.3,26.9,76.3,73.2c0,21.7-16.1,68.4-69.7,78.3c6.4,1.3,13,2,19.9,2
			C481.2,427.5,519.6,390.1,519.6,335.8z"/>
		<linearGradient id="SVGID_2_" gradientUnits="userSpaceOnUse" x1="339.4709" y1="350.1618" x2="483.4327" y2="350.1618">
			<stop  offset="0" style="stop-color:#984F24"/>
			<stop  offset="1" style="stop-color:#4F2511"/>
		</linearGradient>
		<path class="st1" d="M418.5,426.3c-1.6-0.3-3.2-0.5-4.8-0.9c53.6-10,69.7-56.6,69.7-78.3c0-46.3-45.3-73.2-76.3-73.2
			c-12.7,0-25.9,2.3-39.6,5.2c14.8,7.9,32,21.9,32,44.6c0,33.9-21.8,45.8-60,45.2C351.9,393.5,380.4,420.5,418.5,426.3z"/>
		<linearGradient id="SVGID_3_" gradientUnits="userSpaceOnUse" x1="131.4253" y1="127.0232" x2="263.6874" y2="210.8664">
			<stop  offset="0" style="stop-color:#D08D04"/>
			<stop  offset="1" style="stop-color:#984F24"/>
		</linearGradient>
		<path class="st2" d="M160.3,108.6c-38.7,0-80.6,28.4-86.9,33.2c0,0,31.2-22.1,70.7-22.1c56.2,0,76.7,44.1,81.4,76.5
			c2.4-7.7,4.5-16.2,4.5-26C230,129.8,194.4,108.6,160.3,108.6z"/>
	</g>
	<radialGradient id="SVGID_4_" cx="293.8597" cy="190.3379" r="563.0938" gradientUnits="userSpaceOnUse">
		<stop  offset="0" style="stop-color:#FFE99C"/>
		<stop  offset="0.1074" style="stop-color:#FCE393"/>
		<stop  offset="0.2826" style="stop-color:#F2D27B"/>
		<stop  offset="0.5024" style="stop-color:#E3B653"/>
		<stop  offset="0.6404" style="stop-color:#D8A237"/>
		<stop  offset="0.8867" style="stop-color:#BA7A1A"/>
		<stop  offset="0.95" style="stop-color:#E1A535"/>
		<stop  offset="1" style="stop-color:#FBD482"/>
	</radialGradient>
	<path class="st3" d="M434.7,94.4c24,0,46.4,5.2,66.9,11c43.9,12.3,76.1,34.1,76.1,62.2c0,26.2-30.7,50.5-80.5,50.5
		c-124.9,0-179.9-140.9-285.6-140.9c-89.5,0-138.3,64.6-138.3,64.6c6.3-4.8,48.2-33.2,86.9-33.2c34.1,0,69.7,21.2,69.7,61.6
		c0,22.4-11.1,38-11.1,53.1c0,30.1,20.3,35.8,40.8,35.8c31.7,0,77.1-19.4,144.6-19.4c48.9,0,115.3,27.2,115.3,96.1
		c0,54.3-38.3,91.7-85.9,91.7c-51.2,0-88.5-38.9-98.4-68.6c-17.7-53.1-43.2-78.2-74.3-78.2c-34.3,0-58.1,37.3-97,37.3
		c-14,0-40.6-9.6-40.6-41.5c0-29.3,22.4-53.9,42.2-65.5c13.8-8.1,27.1-9.7,27.1-9.7c-25.2-8-87.2,26.3-87.2,79
		c0,23,11.4,47.9,30.8,64c18.2,15.1,43.6,22.1,68.4,22.1c13.8,0,31.6-1.7,47.9,3.1c25,7.3,46.8,25.9,46.8,59
		c0,34.9-25.3,94.8-74.3,94.8c-36.9,0-53.1-43.2-72.9-83.2c-13.3-26.9-39-56.6-75.1-56.6c-18.3,0-27.1,6.1-27.1,6.1
		s20.3-1.8,43.7,19.7c15.3,14.1,30.8,52.5,36.8,77.9c30.8,130.2,138.7,235.8,304.2,235.8c174.1,0,315.3-140.7,315.3-314.2
		C750,235.1,608.8,94.4,434.7,94.4z M403.2,704.2c-75.4,0-139.6-59.3-139.6-98.6c0-39.3,53.7-65.9,60.9-70.4
		c7.2-4.6,37.7-16.1,37.7-51.1c0-24.9-11.1-39.3-11.1-39.3s186.2,46.7,186.2,144C537.3,687.5,436.3,704.2,403.2,704.2z M633.5,594.5
		c-51.4,0-53.2-88.6-62.9-122.9c-8.5-30-27.2-51.7-56.5-74.9c0,0,69.9,3.7,123.5-79.8c18.2-28.4,18.3-53.6,44.2-53.6
		c19.2,0,62.8,44.4,62.8,147.3C744.5,509.2,672.8,594.5,633.5,594.5z"/>
	<g>
		<linearGradient id="SVGID_5_" gradientUnits="userSpaceOnUse" x1="514.0645" y1="434.7264" x2="699.5501" y2="434.7264">
			<stop  offset="0" style="stop-color:#984F24"/>
			<stop  offset="1" style="stop-color:#4F2511"/>
		</linearGradient>
		<path class="st4" d="M650.4,299.7c-1.1,0-2.3,0.1-3.5,0.2c-2.4,4.9-5.1,10.1-8.4,15.5c9.1,11.4,23.5,34.3,23.5,66.8
			c0,44.9-21.3,74-42.3,74c-26.7,0-18.5-29.2-27-55.5c-3.1-9.4-8.8-17.9-13.8-24.2c-35.3,21.7-64.8,20.2-64.8,20.2
			c29.3,23.2,48,44.8,56.5,74.9c6.4,22.6,9.3,68.7,25.3,97.6c1.9,0.3,4.2,0.5,6.9,0.5c26.4,0,96.8-59.6,96.8-166.6
			C699.6,306.8,655.2,299.7,650.4,299.7z"/>
		<linearGradient id="SVGID_6_" gradientUnits="userSpaceOnUse" x1="670.2108" y1="594.4924" x2="670.2108" y2="263.3839">
			<stop  offset="0" style="stop-color:#FFF57F"/>
			<stop  offset="3.448280e-02" style="stop-color:#FFE228"/>
			<stop  offset="0.1823" style="stop-color:#986935"/>
			<stop  offset="0.5714" style="stop-color:#A87436"/>
			<stop  offset="0.7586" style="stop-color:#AB7D38"/>
			<stop  offset="1" style="stop-color:#5C250D"/>
		</linearGradient>
		<path class="st5" d="M633.5,594.5c39.3,0,111.1-85.3,111.1-183.8c0-102.9-43.6-147.3-62.8-147.3c-20.6,0-24.9,15.8-34.8,36.6
			c1.2-0.1,2.4-0.2,3.5-0.2c4.8,0,49.1,7.1,49.1,103.3c0,107-70.3,166.6-96.8,166.6c-2.7,0-5-0.2-6.9-0.5
			C604.2,584.2,615.9,594.5,633.5,594.5z"/>
	</g>
	<g>
		<linearGradient id="SVGID_7_" gradientUnits="userSpaceOnUse" x1="340.927" y1="574.5079" x2="507.4527" y2="574.5079">
			<stop  offset="0" style="stop-color:#984F24"/>
			<stop  offset="1" style="stop-color:#4F2511"/>
		</linearGradient>
		<path class="st6" d="M462.1,556.5c0-18.9,10.7-38.1,21.3-52.5c-55-39.8-132.3-59.2-132.3-59.2s11.1,14.4,11.1,39.3
			c0,11.5-3.3,20.4-7.9,27.4c24.3,13.9,52.6,36.7,52.6,67.6c0,25.2-30.1,55.7-71.6,56.4c-21.3,0.3-42.1,2-62.5-1.1
			c20.3,34.3,72,69.9,130.4,69.9c29.4,0,112.2-13.3,130.5-85.2C499.9,619.4,462.1,592.6,462.1,556.5z"/>
		<linearGradient id="SVGID_8_" gradientUnits="userSpaceOnUse" x1="295.2373" y1="543.6041" x2="513.5521" y2="696.194">
			<stop  offset="0" style="stop-color:#945123"/>
			<stop  offset="7.606497e-02" style="stop-color:#985521"/>
			<stop  offset="0.1549" style="stop-color:#A5621A"/>
			<stop  offset="0.2346" style="stop-color:#B97610"/>
			<stop  offset="0.3" style="stop-color:#D08D04"/>
			<stop  offset="0.5443" style="stop-color:#F7B639"/>
			<stop  offset="0.645" style="stop-color:#E9A81D"/>
			<stop  offset="0.7432" style="stop-color:#DF9D08"/>
			<stop  offset="0.8079" style="stop-color:#DB9900"/>
			<stop  offset="0.8528" style="stop-color:#C17F0D"/>
			<stop  offset="0.9096" style="stop-color:#A76519"/>
			<stop  offset="0.9605" style="stop-color:#975521"/>
			<stop  offset="1" style="stop-color:#914F24"/>
		</linearGradient>
		<path class="st7" d="M324.5,535.2c-7.2,4.6-60.9,31.1-60.9,70.4c0,39.3,64.2,98.6,139.6,98.6c32.6,0,130.9-16.3,134-110.9
			c-16.1,42.3-74.9,68-119.6,68c-58.3,0-103.2-41-103.2-70.1c0-34.7,53.4-43.6,53.4-71.7c0-15.9-2.5-28.9-5.7-39.1
			c0.1,1.2,0.1,2.4,0.1,3.7C362.2,519.1,331.7,530.6,324.5,535.2z"/>
		<linearGradient id="SVGID_9_" gradientUnits="userSpaceOnUse" x1="357.3544" y1="442.9791" x2="342.6811" y2="557.6545">
			<stop  offset="0" style="stop-color:#AF761F"/>
			<stop  offset="0.1963" style="stop-color:#B1781E"/>
			<stop  offset="0.267" style="stop-color:#B87F1A"/>
			<stop  offset="0.3021" style="stop-color:#BF8615"/>
			<stop  offset="0.3496" style="stop-color:#C88E0F"/>
			<stop  offset="0.4525" style="stop-color:#D39A06"/>
			<stop  offset="0.5975" style="stop-color:#DAA001"/>
			<stop  offset="1" style="stop-color:#DCA200"/>
		</linearGradient>
		<path class="st8" d="M338.3,558.5c34.3,0,65.2-34.4,65.2-76.3c0-4.9-0.9-13-2.1-20.8c-28.6-11.1-50.3-16.5-50.3-16.5
			s11.1,14.4,11.1,39.3c0,35.1-30.5,46.5-37.7,51.1c-3.7,2.3-19.2,10.3-33.7,22.7C319.3,551.9,325.3,558.5,338.3,558.5z"/>
	</g>
	<g>
		<linearGradient id="SVGID_10_" gradientUnits="userSpaceOnUse" x1="356.375" y1="177.9862" x2="532.2523" y2="177.9862">
			<stop  offset="0" style="stop-color:#984F24"/>
			<stop  offset="1" style="stop-color:#4F2511"/>
		</linearGradient>
		<path class="st9" d="M444.9,137.9c-33.9,0-68.9,10.3-88.5,17.3c13.2,10.8,26.7,21.3,41,30.5c9.5-4.5,27.8-11.1,54.5-11.1
			c40.6,0,47.8,14.9,47.8,23.8c0,8.6-4.9,15.4-12,19.3c0,0,0,0,0,0c3.1,0.2,6.3,0.3,9.5,0.3c1.1,0,2.1,0,3.2,0
			c16.7-4.8,31.8-14.1,31.8-32.1C532.3,157.1,489.9,137.9,444.9,137.9z"/>
		<linearGradient id="SVGID_11_" gradientUnits="userSpaceOnUse" x1="362.8292" y1="65.502" x2="563.4971" y2="232.1097">
			<stop  offset="0" style="stop-color:#C7953F"/>
			<stop  offset="7.805882e-02" style="stop-color:#D1A14B"/>
			<stop  offset="0.2989" style="stop-color:#E8BF6A"/>
			<stop  offset="0.4876" style="stop-color:#F7D17C"/>
			<stop  offset="0.6207" style="stop-color:#FCD883"/>
			<stop  offset="0.6727" style="stop-color:#FBD680"/>
			<stop  offset="0.716" style="stop-color:#F6CE75"/>
			<stop  offset="0.7563" style="stop-color:#EFC264"/>
			<stop  offset="0.7944" style="stop-color:#E4B14C"/>
			<stop  offset="0.8177" style="stop-color:#DCA439"/>
			<stop  offset="0.8475" style="stop-color:#CE8C2C"/>
			<stop  offset="0.8789" style="stop-color:#C47B22"/>
			<stop  offset="0.9133" style="stop-color:#BE711D"/>
			<stop  offset="0.9557" style="stop-color:#BC6E1B"/>
		</linearGradient>
		<path class="st10" d="M577.7,167.6c0-28.2-32.1-50-76.1-62.2c-20.5-5.7-42.9-11-66.9-11c-38.7,0-79.3,10.2-117.9,28.4
			c13.1,10.3,26.2,21.4,39.5,32.3l0,0c19.6-6.9,54.6-17.3,88.5-17.3c45,0,87.4,19.2,87.4,48.1c0,17.9-15.1,27.3-31.8,32.1
			C548.3,217,577.7,193.3,577.7,167.6z"/>
	</g>
	<g>
		<linearGradient id="SVGID_12_" gradientUnits="userSpaceOnUse" x1="165.7097" y1="192.6756" x2="165.7097" y2="319.1976">
			<stop  offset="0" style="stop-color:#D08D04"/>
			<stop  offset="1" style="stop-color:#984F24"/>
		</linearGradient>
		<path class="st11" d="M123.4,276.6c0,31.9,26.6,41.5,40.6,41.5c16.8,0,30.8-7,44-14.9c-6.6,2.4-14.3,4.3-22.4,4.3
			c-28.3,0-46.8-21.6-46.8-44.9c0-40.3,53.9-61.3,53.9-61.3s-13.3,1.7-27.1,9.7C145.8,222.7,123.4,247.3,123.4,276.6z"/>
		<linearGradient id="SVGID_13_" gradientUnits="userSpaceOnUse" x1="163.6997" y1="376.881" x2="183.0151" y2="527.3776">
			<stop  offset="0.2381" style="stop-color:#D08D04"/>
			<stop  offset="0.7685" style="stop-color:#DCA200"/>
			<stop  offset="0.8288" style="stop-color:#EFC415"/>
			<stop  offset="0.8768" style="stop-color:#FFE228"/>
			<stop  offset="0.881" style="stop-color:#FEE232"/>
			<stop  offset="0.8976" style="stop-color:#FCE258"/>
			<stop  offset="0.9151" style="stop-color:#FAE176"/>
			<stop  offset="0.9333" style="stop-color:#F8E18E"/>
			<stop  offset="0.9525" style="stop-color:#F7E19F"/>
			<stop  offset="0.9736" style="stop-color:#F6E1A9"/>
			<stop  offset="1" style="stop-color:#F6E1AC"/>
		</linearGradient>
		<path class="st12" d="M152.2,440c19.8,40,36,83.2,72.9,83.2c32.4,0,54.5-26.3,65.7-54.2c-9.3,14.1-26.2,31.7-47.1,31.7
			c-24.6,0-39.1-19.4-49-43.1c-5.2-12.3-10.5-22.3-12.7-28.2c-10.3-27.9-37-56-77.6-56c-33.1,0-54.4,16.2-54.4,16.2
			s8.7-6.1,27.1-6.1C113.2,383.4,138.9,413.1,152.2,440z"/>
		<linearGradient id="SVGID_14_" gradientUnits="userSpaceOnUse" x1="113.4878" y1="361.5483" x2="296.3258" y2="361.5483">
			<stop  offset="0" style="stop-color:#984F24"/>
			<stop  offset="1" style="stop-color:#4F2511"/>
		</linearGradient>
		<path class="st13" d="M252.6,369.4c-16.4-4.8-34.1-3.1-47.9-3.1c-24.7,0-50.2-7-68.4-22.1c-9.8-8.1-17.5-18.4-22.8-29.6
			c11,27.9,37.2,70.7,84.2,70.7c14.4,0,23.2-1.1,38.7-1.1c39.8,0,49.7,7.2,60,24.2C289.5,387.6,272,375.1,252.6,369.4z"/>
		<linearGradient id="SVGID_15_" gradientUnits="userSpaceOnUse" x1="126.4991" y1="438.5195" x2="296.5931" y2="438.5195">
			<stop  offset="0" style="stop-color:#984F24"/>
			<stop  offset="1" style="stop-color:#4F2511"/>
		</linearGradient>
		<path class="st14" d="M265.9,463.8c-21.6,0-38.8-11.6-53.1-26.7c-9.4-9.9-18.2-23.2-27.2-31.6c-20.5-19.1-42.6-26.5-59.1-29.1
			c28.3,8,47.2,30.6,55.5,53c2.2,5.8,7.5,15.9,12.7,28.2c9.9,23.7,24.5,43.1,49,43.1c20.9,0,37.8-17.7,47.1-31.7
			c2.4-6.1,4.4-12.2,5.8-18.2C289.8,457.9,280,463.8,265.9,463.8z"/>
	</g>
</g>
</svg>
