<?xml version="1.0" encoding="utf-8"?>
<!-- Generator: Adobe Illustrator 23.0.3, SVG Export Plug-In . SVG Version: 6.00 Build 0)  -->
<svg version="1.1" id="图层_1" xmlns="http://www.w3.org/2000/svg" xmlns:xlink="http://www.w3.org/1999/xlink" x="0px" y="0px"
	 viewBox="0 0 800 800" style="enable-background:new 0 0 800 800;" xml:space="preserve">
<style type="text/css">
	.st0{fill:#703805;}
</style>
<g>
	<path class="st0" d="M551.2,530.3c0,0,2.5,0,5.8-0.1c-0.9,5.9-5.9,16.9-5.9,16.9h9.3c3.6-7.3,5.1-14.3,5.5-17
		c4.4,0,8.3-0.1,9.3-0.1c2.4,0,3.4,1.3,3.4,2.4c0,1.1,0,3.8,0,5.9s-1.2,2.9-2.4,2.9c-1.2,0-4.4,0-4.4,0l1.8,5.8c0,0,6.3,0,9.7,0
		s4.7-2.5,4.7-5c0-2.4,0-8,0-12.1c0-4.2-3.7-6.1-8.3-6.1c-4.6,0-28.5,0.4-28.5,0.4V530.3z"/>
	<path class="st0" d="M598.1,548.8c1.7-0.2,10-1.4,10-1.4s-9,13.1-10.9,15.6c-1.9,2.5-0.8,3.6,1.2,3.3s18.7-3.1,18.7-3.1l2.6-5.5
		l-8.6,1.3l12.8-19.5l-13.8,2.2l9-17.5h-10.8c0,0-9.7,18.1-11.4,21.1C595.3,548.5,596.4,549,598.1,548.8z"/>
	<path class="st0" d="M319.4,552.4h8c-1.6-9.2-6.7-16-6.7-16h-8.2C317.7,544.1,319.4,552.4,319.4,552.4z"/>
	<path class="st0" d="M111.9,529.7c-1.7,0-9.7,0-19,0.1v-6h-9.8v6C72.8,530,63,530,60.2,530c-6.1,0-10.1-6.2-10.1-6.2
		c-1.2,9.7,4.5,12.1,9.6,12.1c2,0,12.5-0.1,23.3-0.1v31.6c-9.5,0-17.8,0-18.5,0c-1.7,0-2.7-1.9-2.7-4.1c0-2.2,0-22.3,0-22.3
		l-9.9-3.5c0,0,0,23.5,0,28.8s3.4,6.9,6.3,6.9c1.2,0,12.1,0,24.8,0v9.2h9.8v-9.2c15.8,0,31.1,0,31.1,0s0-27.1,0-34.9
		C124,530.6,116.1,529.7,111.9,529.7z M114.1,567.5c0,0-10.1,0-21.2,0v-31.6c8.5-0.1,15.5-0.1,16.6-0.1c2.9,0,4.5,1.6,4.5,3.8
		S114.1,567.5,114.1,567.5z"/>
	<path class="st0" d="M348.9,552.4c0,0,1.7-8.3,6.9-16h-8.2c0,0-5.2,6.8-6.7,16H348.9z"/>
	<polygon class="st0" points="143,541.2 161.5,541.2 161.5,548.7 143,548.7 143,554.7 161.5,554.7 161.5,567 143,567 143,573 
		189.8,573 189.8,567 186.6,567 187.8,558.1 177.8,558.1 176.9,567 171.4,567 171.4,554.7 189.8,554.7 189.8,548.7 171.4,548.7 
		171.4,541.2 189.8,541.2 189.8,535.2 143,535.2 	"/>
	<path class="st0" d="M224.5,556.4h-10c-0.6,12.4-6,26.2-6,26.2h10c0.9-2.5,1.7-4.9,2.4-7.1c3.3,2,8.7,4.6,18,5.7
		c4,0.5,38,1.4,38,1.4l2.3-6.1c0,0-16.7,0-31.2-0.9v-9.3h27.8v-6h-27.8v-7.6c14.2,0,27.9,0,27.9,0s0-14.5,0-20.5c0-6.1-8-8-11.8-8
		c-3.9,0-53.7,0.8-53.7,0.8s0,16.5,0,21.2s3.4,6.6,6.3,6.6c1.1,0,10.5,0,21.6,0v22.1c-8.6-1.1-13.1-4.1-15.3-6.5
		C224.6,560.4,224.5,556.4,224.5,556.4z M223.6,546.7c-2.6,0-3.6-1.6-3.6-3.8c0-2.2,0-12.3,0-12.3s36.8-0.4,40.8-0.4
		c4,0,5,1.9,5,4.2c0,2.3,0,12.3,0,12.3S226.2,546.7,223.6,546.7z"/>
	<polygon class="st0" points="596.3,580.1 618.3,573 618.3,566.3 596.3,573.4 	"/>
	<path class="st0" d="M355.9,523.9l-9.8-2.1v6.2h-6.1c0-2.5,0-4.1,0-4.1h-9.8c0,0,0,1.6,0,4.1h-17.7v6h17.7c0,14.2,0,38.7,0,40
		c0,1.8-1.9,2.7-2.6,2.7c-0.7,0-6.8,0-6.8,0l1.6,5.9c0,0,12.3,0,13.8,0s3.9-2.1,3.9-5.1c0-0.9,0-6.1,0-12.9l15.9,15v-9.9l-15.9-15
		c0-7.2,0-14.8,0-20.6h15.9V523.9z"/>
	<path class="st0" d="M511.6,542.5c0,0-17.1-7.3-29.1-19.5h-13.7c-12,12.2-29.1,19.5-29.1,19.5v7.7c23.4-8.8,35.9-22.3,35.9-22.3
		s12.5,13.5,35.9,22.3V542.5z"/>
	<path class="st0" d="M519.7,555.4c0.1,10.6-3.8,27.2-3.8,27.2h8.4c0.6-2.2,1-4.4,1.4-6.4c3.5,1.9,9.1,4,17.8,5
		c4,0.5,44.6,1.4,44.6,1.4l2.3-6.1c0,0-30.7,0-46.3-1.6c-1.5-0.1-2.8-0.4-4.1-0.6v-9.7h8.3v-6h-8.3v-9.4h8.3v-6h-10.2v-9.9
		c5.3,0,10.2,0,10.2,0v-5.8c0,0-4.8,0-10.2,0v-3.7h-9.4v3.7c-0.8,0-1.5,0-2.2,0c-6.9,0-11.1-6.2-11.1-6.2
		c-1.3,10.5,6.7,12.1,10.1,12.1c0.6,0,1.7,0,3.2,0v9.9h-10.3v6h12.2v21.9c-1.5-0.9-2.7-1.7-3.6-2.5c1.1-8,1.2-13.2,1.2-13.2H519.7z"
		/>
	<rect x="456.9" y="542.4" class="st0" width="37.8" height="6"/>
	<polygon class="st0" points="377.7,582.5 377.7,543 384.7,543 384.7,537 377.7,537 377.7,523.9 367.9,523.9 367.9,537 360.7,537 
		360.7,543 367.9,543 367.9,582.5 	"/>
	<path class="st0" d="M582.1,549.2c-3.4,0-30.5,0-30.5,0v24.2h35.6c0,0,0-17.2,0-19.6C587.2,551.4,585.4,549.2,582.1,549.2z
		 M577.9,567.5h-17V555c0,0,12.7,0,14.5,0c1.8,0,2.5,1.4,2.5,2.5S577.9,567.5,577.9,567.5z"/>
	<path class="st0" d="M416,576.6c-2,0-6,0-6,0l1.7,6c0,0,9.2,0,12.6,0s5-2.2,5-5.1c0-1.3,0-8.9,0-17.3l6.5,5.7v-9.9l-6.5-5.7
		c0-5.7,0-10.6,0-12.8c0-6.7-6.7-8-10.5-8c-1.1,0-4.4,0.1-8.6,0.1c0.3-3.7,0.4-5.9,0.4-5.9h-9.8c-0.1,2.1-0.2,4.1-0.4,6.1
		c-7.5,0.2-14.4,0.3-14.4,0.3v5.8c0,0,6.7,0,13.7-0.1c-3.7,27.8-15.8,46.6-15.8,46.6h10c9.9-14.8,13.9-34.3,15.5-46.6
		c2.6,0,4.6,0,5.3,0c2.8,0,4.6,1.4,4.6,4.1c0,2.7,0,33.3,0,33.3C419.5,576.4,418,576.6,416,576.6z"/>
	<path class="st0" d="M326.1,554.6h-8c-2.2,12-8.8,22.1-8.8,22.1h8.5C323.7,567.9,326.1,554.6,326.1,554.6z"/>
	<path class="st0" d="M745.1,525.1h-43.7v6h10.1c-0.3,5.2-2,22.1-12,44.9h8.1c0,0,8.3-14.9,11.7-41.3v47.9h9.8v-51.5h16V525.1z"/>
	<polygon class="st0" points="737.8,538 730.3,538 742.5,573 750,573 	"/>
	<path class="st0" d="M701.4,555.9l-9.2-7.8v-10.5h9.3v-6h-9.3v-7.7h-9.8v7.7h-9.2v6h9.2v3.6h-5c-1.1,13.2-9.2,35.2-9.2,35.2h7.5
		c3-8,5.2-16.3,6.7-22.8v29h9.8V558l9.2,8V555.9z"/>
	<path class="st0" d="M395,542.6h-7.8c-2.6,14-8.5,27.8-8.5,27.8h7.8C391.5,560.1,395,542.6,395,542.6z"/>
	<path class="st0" d="M500.2,565.8h-10l3.1,7.9c-7.8,0.5-32,2.2-34.9,2.3c-3.4,0.2-2.7-1.1-1.6-3c0.9-1.5,5.7-9.3,7.2-11.9h43.9v-6
		h-64.4v6h11.2c-1.6,2.7-6.6,11.1-9.2,15.2c-3.1,4.9,1.2,6.5,4.2,6.2c2.5-0.2,36-2.7,45.6-3.4l1.2,3h9.9L500.2,565.8z"/>
	<path class="st0" d="M665.3,544.1c-1.9,0-10.6,0-10.6,0s6.8-11.6,8.2-14.1c1.4-2.5,2.1-6-1.9-6c-4,0-38.9,1-38.9,1l0,5.7l6.8-0.1
		c-1.1,24.6-11.7,51.9-11.7,51.9h9.1c3.8-9.9,6.4-19.5,8.1-27.8c2,5,5.3,10,8.7,14.4c-5.8,7.5-11.3,13.4-11.3,13.4h11.5
		c1.9-2.2,3.7-4.4,5.4-6.6c3.7,4,6.5,6.6,6.5,6.6h11.4c-5.1-4.7-9.4-9.2-12.9-13.4c7.2-10.5,11.7-19.5,12.5-20.8
		C667.4,546.4,667.2,544.1,665.3,544.1z M648.3,562c-7.1-10-10.1-18-11.3-22.8c0.5-4,0.7-7,0.8-8.8l14.6-0.3l-7.5,13.6v6.2h10.4
		C653.6,553.7,651.1,557.9,648.3,562z"/>
	<polygon class="st0" points="284,533.5 291.9,533.5 291.9,548.9 284,548.9 284,554.9 291.9,554.9 291.9,574 284,575.7 284,581.6 
		308,576.7 308,570.7 301.8,572 301.8,554.9 308,554.9 308,548.9 301.8,548.9 301.8,533.5 308,533.5 308,527.5 284,527.5 	"/>
	<path class="st0" d="M202.4,533.2c0-6.7-5.9-9-12-9c-6.1,0-59.9,0.7-59.9,0.7s0,45.8,0,50.3c0,4.5,1.8,7.3,5.8,7.3s66.1,0,66.1,0
		S202.4,539.8,202.4,533.2z M192.5,576.5c0,0-44.8,0-48.4,0s-3.9-2.1-3.9-4.4c0-2.3,0.1-41.4,0.1-41.4s44-0.4,46.9-0.4
		c2.8,0,5.3,0.9,5.3,4.2S192.5,576.5,192.5,576.5z"/>
	<path class="st0" d="M488.9,615.6c0-13.4-14.1-13.8-18.5-13.8c-6,0-14.6,1.4-14.6,1.4v39.2h9.7v-33.4c0,0,0.8-0.6,4.8-0.6
		c3.9,0,9,0.8,9,6.5c0,5.7-5.4,7.5-6.9,7.5s-6.2,0.1-6.2,0.1l13.1,20h10.9L480,627.5C480,627.5,488.9,625.2,488.9,615.6z"/>
	<path class="st0" d="M519.4,636.2c-4.6,0-10.4-0.6-10.4-13.3c0-12.7,4.4-14.5,10.2-14.5c3,0,10.5,0.8,10.5,0.8s1.9-5.5-5.8-7.4
		c-7.8-1.9-8-7.9-8-7.9c-4.7,3.6-1.3,8.1-1.3,8.1c-13.8-0.2-15.6,12.5-15.6,20.9c0,13.1,5,20.3,16.8,20c6-0.2,14.4-1.2,14.4-1.2
		l-0.7-6.4C529.7,635.3,524,636.2,519.4,636.2z"/>
	<path class="st0" d="M588.7,601.7c-6.9,0-14.7,1.5-14.7,1.5v39.2h9.9v-13.5c12.5,0.4,23.5-2,23.5-13
		C607.4,603.3,595.6,601.7,588.7,601.7z M589.3,622.4c-2.4,0-5.4,0-5.4,0v-13.6c0,0,3.2-0.4,4.9-0.4s8.8-0.1,8.8,6.8
		C597.5,621,591.7,622.4,589.3,622.4z"/>
	<path class="st0" d="M559.7,629.8c0,2.9-2.2,6.2-7.2,6.2s-7.2-3.2-7.2-6.2s0-27.7,0-27.7h-10c0,0,0,19.2,0,27.5s6.1,12.9,17.1,12.9
		c11.1,0,17.1-4.7,17.1-12.9s0-27.5,0-27.5h-10C559.7,602.1,559.7,626.9,559.7,629.8z"/>
	<path class="st0" d="M255,618.8h-18.5c0-3.2,0-5.6,0-6.1c0-1.7,1.1-3.6,4.7-3.6s13.8,0,13.8,0v-6.2c0,0-2.1-0.2-12.6-0.2
		s-15.6,3.8-15.6,9.7c0,5.6,0,30.1,0,30.1h9.7c0,0,0-8.9,0-17H255V618.8z"/>
	<path class="st0" d="M210.6,636.2c-4.6,0-10.4-0.6-10.4-13.3c0-12.7,4.4-14.5,10.2-14.5c3.1,0,10.5,0.8,10.5,0.8s1.9-5.5-5.8-7.4
		c-7.8-1.9-8-7.9-8-7.9c-4.7,3.6-1.3,8.1-1.3,8.1c-13.8-0.2-15.6,12.5-15.6,20.9c0,13.1,5,20.3,16.7,20c6-0.2,14.4-1.2,14.4-1.2
		l-0.7-6.4C220.8,635.3,215.1,636.2,210.6,636.2z"/>
	<path class="st0" d="M368.6,629.8c0,2.9-2.2,6.2-7.2,6.2s-7.2-3.2-7.2-6.2s0-27.7,0-27.7h-10c0,0,0,19.2,0,27.5s6.1,12.9,17.1,12.9
		c11.1,0,17.1-4.7,17.1-12.9s0-27.5,0-27.5h-10C368.6,602.1,368.6,626.9,368.6,629.8z"/>
	<path class="st0" d="M276.3,601.7c-3.2,0-6.1,1.9-7.6,5.6s-13.8,35.1-13.8,35.1h10l3.1-9.5h16.2l3.2,9.5h10.1
		c0,0-11.7-30.4-13.6-35.1C282.5,603.8,279.6,601.7,276.3,601.7z M270,626.8l5.9-18.1l6.2,18.1H270z"/>
	<path class="st0" d="M334.6,621.7c-5.9-3.8-14.8-2.8-14.8-8.2c0-4.2,3.7-5.6,8-5.6c4.3,0,9.7,1.3,9.7,1.3c0.6-4.8-0.5-5.8-6.9-7.8
		c-6.4-2-7.2-7.6-7.2-7.6c-4.5,4.7-1,7.9-1,7.9c-7.3,1-12.1,5.6-12.1,11s3.8,8.4,7.1,10.4c5.1,3,13.4,2.1,13.4,8.2
		c0,3.1-2.8,5.2-8.5,5.2c-5.7,0-12-1.9-12-1.9v6.5c0,0,8.7,1.6,13.2,1.6c10.5,0,17.2-4.1,17.2-10.6
		C340.5,628.4,338.7,624.3,334.6,621.7z"/>
	<path class="st0" d="M431.1,612.4c0-2.6,2.6-3.2,4.4-3.2s14.1,0,14.1,0v-6.2c0,0-8.7-0.3-12.3-0.3c-14.4,0-15.9,6-15.9,9.3
		s0,18.1,0,21.4s1.5,9.3,15.9,9.3c3.6,0,12.3-0.3,12.3-0.3v-6.2c0,0-12.2,0-14.1,0s-4.4-0.6-4.4-3.2c0-1,0-4.1,0-7.7h18.5v-6.6
		h-18.5C431.1,615.8,431.1,613.3,431.1,612.4z"/>
	<path class="st0" d="M398.8,601.7c-6.9,0-14.7,1.5-14.7,1.5v39.2h9.9v-13.5c12.5,0.4,23.5-2,23.5-13
		C417.6,603.3,405.7,601.7,398.8,601.7z M399.4,622.4c-2.4,0-5.4,0-5.4,0v-13.6c0,0,3.2-0.4,4.9-0.4c1.7,0,8.8-0.1,8.8,6.8
		C407.7,621,401.8,622.4,399.4,622.4z"/>
	<path class="st0" d="M446.7,320.7c7.9-8.2,12.2-19.6,12.2-32.2c0-34.3-33.8-46.8-56.6-46.8c-20.1,0-36.5,3.5-49.7,6.3
		c-9.1,1.9-17,3.6-23.8,3.6c-4.1,0-14.1,0-19.4-7.6c1.6,5.8,5,11.8,11.5,16c2.7-0.9,5.6-1.4,8.5-1.4c7.1,0,13.6,2.4,19.4,7.1h0
		c19.8-0.9,38.2-8.6,54.8-8.6c15.8,0,38.8,13.7,38.8,37.2c0,10.3-7.2,31.7-30.3,38.6c1.6,0.2,3.3,0.3,5,0.3
		C428.6,333.1,439,328.7,446.7,320.7z"/>
	<path class="st0" d="M222.4,315.8c0,0,10.3-0.9,22.2,10c7.8,7.2,15.7,26.6,18.7,39.6C278.9,431.5,333.7,485,417.8,485
		c88.4,0,160.1-71.4,160.1-159.6c0-88.1-71.7-159.6-160.1-159.6c12.2,0,23.6,2.7,34,5.6c22.3,6.2,38.6,17.3,38.6,31.6
		c0,13.3-15.6,25.6-40.9,25.6c-63.4,0-91.3-71.5-145-71.5c-45.5,0-70.2,32.8-70.2,32.8c3.2-2.4,24.5-16.9,44.1-16.9
		c17.3,0,35.4,10.8,35.4,31.3c0,11.4-5.7,19.3-5.7,27c0,15.3,10.3,18.2,20.7,18.2c16.1,0,39.2-9.9,73.4-9.9
		c24.8,0,58.6,13.8,58.6,48.8c0,27.6-19.5,46.6-43.6,46.6c-2.7,0-5.3-0.2-7.8-0.6c0,0-0.1,0-0.1,0c-21.9-3.4-37.6-20.7-42.1-34.2
		c-9-27-22-39.7-37.7-39.7c-17.4,0-29.5,19-49.3,19c-7.1,0-20.6-4.9-20.6-21.1c0-14.9,11.4-27.4,21.4-33.3c7-4.1,13.8-5,13.8-5
		c-12.8-4.1-44.3,13.4-44.3,40.1c0,11.7,5.8,24.3,15.6,32.5c9.2,7.7,22.2,11.2,34.7,11.2c7,0,16-0.9,24.3,1.6
		c12.7,3.7,23.8,13.1,23.8,29.9c0,17.7-12.9,48.1-37.7,48.1c-18.7,0-27-21.9-37-42.3c-6.8-13.6-19.8-28.7-38.2-28.7
		C226.8,312.7,222.4,315.8,222.4,315.8z M520.8,278.9c9.3-14.4,9.3-27.2,22.5-27.2c9.8,0,31.9,22.6,31.9,74.8
		c0,50-36.4,93.3-56.4,93.3c-26.1,0-27-45-31.9-62.4c-4.3-15.2-13.8-26.2-28.7-38C458.1,319.5,493.6,321.3,520.8,278.9z
		 M350.5,396.8c0.8-0.6,1.6-1.1,2.4-1.6c-0.4,0.2-0.8,0.5-1.2,0.8c4.8-3.3,8.9-5.4,10.1-6.2c2.5-1.6,10.3-4.7,15.1-12c0,0,0,0,0,0
		c0.1-0.2,0.2-0.3,0.3-0.5c0,0,0-0.1,0.1-0.1c0,0,0.1-0.1,0.1-0.1c0,0,0,0.1-0.1,0.1c2.2-3.5,3.6-7.8,3.6-13.3c0-0.6,0-1.3-0.1-1.9
		c0,0.2,0,0.4,0,0.6c0-0.2,0-0.4,0-0.6c0,0,0,0,0,0c-0.5-11.5-5.6-18.1-5.6-18.1s94.6,23.7,94.6,73.1c0,50.1-51.3,58.7-68.1,58.7
		c-24.2,0-46-12-58.9-25.9c-0.7-0.7-1.3-1.4-1.9-2.2c-6.3-7.5-10-15.3-10-22C330.9,413,341.6,403.1,350.5,396.8z"/>
	<path class="st0" d="M442.8,464.7c-0.9,0.5-1.8,1-2.8,1.5C440.9,465.7,441.8,465.2,442.8,464.7z"/>
	<path class="st0" d="M455,455.4c-0.9,0.9-1.8,1.7-2.7,2.5C453.2,457.2,454.1,456.3,455,455.4z"/>
	<path class="st0" d="M460.8,448.4c-1.3,1.9-2.7,3.6-4.2,5.3C458.2,452,459.6,450.2,460.8,448.4z"/>
	<path class="st0" d="M462.7,445.4c-0.6,1-1.2,2-1.8,2.9C461.5,447.4,462.1,446.4,462.7,445.4z"/>
	<path class="st0" d="M468,432.3C468,432.3,468,432.3,468,432.3c-0.7,2.7-1.6,5.2-2.6,7.6C466.5,437.6,467.3,435.1,468,432.3z"/>
	<path class="st0" d="M488.4,203.1c0-6.2-3.4-12-10.2-17.3c-6.4-5-15.8-9.3-27-12.4c-9.7-2.7-21.3-5.5-33.4-5.5
		c-17.9,0-37.3,4.5-56.1,12.9c3.4,2.7,6.9,5.6,10.2,8.4c2.1,1.8,4.3,3.6,6.5,5.4c9.7-3.3,27.4-8.5,44.6-8.5
		c22.8,0,46.4,9.9,46.4,26.4c0,5.3-2.3,9.6-6.7,13c6.2-1.3,11.8-3.5,16.1-6.5C485,214.6,488.4,209,488.4,203.1z"/>
	<path class="st0" d="M285.3,225.2c-1,0.5-2.1,1-3.2,1.7c-10.2,6-20.4,18-20.4,31.5c0,6.5,2.3,11.5,6.9,15c3.9,3,8.7,4.1,11.8,4.1
		c5.3,0,10.1-1.5,14.6-3.6c-1.2,0.1-2.4,0.2-3.6,0.2c-14.4,0-23.8-11-23.8-22.8C267.5,239,277.4,230.2,285.3,225.2z"/>
	<path class="st0" d="M393.4,390C393.4,390,393.3,390,393.4,390c5.9,6.1,10.3,13.5,10.3,22.1c0,11.8-13.2,26-31.8,28.3
		c14,11.1,35.2,14.9,55.8,10c13.7-3.3,25.1-9.8,33-18.7c-14.8-3.1-28.9-15.3-28.9-31c0-8.9,4.6-17.9,9.6-24.9
		c-5.4-3.9-11.5-7.6-18.4-11.2c-7-3.6-14-6.8-20.4-9.3C403.3,361.8,404.2,378,393.4,390z"/>
	<path class="st0" d="M353,456.3c0.7,0.5,1.4,1,2.2,1.5c9.1,6.2,22.8,15.6,45.1,15.6c8.7,0,18.1-1.5,27.9-4.4
		c17.2-5.1,29.1-15,35.4-29.5c2.2-5.1,3.3-9.9,3.8-13.5c-8,12.7-21.9,22.1-39.3,26.2c-6.1,1.4-12.2,2.2-18.2,2.2
		c-15.3,0-29.8-4.6-40.1-13.2c-9.8-8.1-14.5-16.3-14-24.2c0.5-7.5,5.6-12.7,8.5-15.1c-0.8-0.1-1.6-0.2-2.3-0.4l-0.6-0.1
		c-5-0.9-10.2-0.5-14.1,0.2c-0.4,0.4-0.9,0.7-1.3,1.1l0,0l0,0c-8.8,7-13.1,14.8-12.7,23.2C333.7,439.8,346.3,451.9,353,456.3z"/>
	<path class="st0" d="M361.8,399.6l0.6,0.1c6.3,1.1,16.9,2.9,29.5-11.1c10.8-11.9,9.2-28.9,8.4-34.4c-9-3.5-16.6-5.9-21.1-7.2
		c4.8,10.4,5.3,19.8,1.6,27.9c-3.6,7.8-10.1,12.2-13.6,14.2c-5.4,3-11.3,6.4-16.5,10.2C354,399,357.9,399,361.8,399.6z"/>
	<path class="st0" d="M330.9,309.9c-6.8-3.5-13.5-4-19.2-4c-1.3,0-2.5,0-3.8,0c-1.1,0-2.2,0-3.2,0c-0.2,0-0.5,0-0.7,0h-1
		c-18.3-0.1-32.3-5.1-41.8-15.1c7.3,11.6,19,22.8,36.1,22.8c7.3,0,11.8-0.6,19.6-0.6c12.8,0,19.5,1.5,24,4.7
		C338.6,314.9,335.3,312.2,330.9,309.9z"/>
	<path class="st0" d="M305.1,339.9c-4.8-5-9.2-11.8-13.8-16.1c-7.7-7.2-15.9-11.1-23-13.2c10.9,5.1,17.9,14,24.5,30.3
		c7.7,19.2,14.1,27.5,22.8,29.6c9.1,2.2,17.9-1.8,25.7-11.4c1-2,1.8-4.2,2.7-6.6c0.4-1.1,0.7-2.2,1.1-3.3c-3.2,2.5-7.4,4.2-12.9,4.2
		C321.1,353.5,312.3,347.6,305.1,339.9z"/>
	<path class="st0" d="M236.3,310.6c5,0,10,1.2,14.6,3.4c7.2,3.4,17.4,10.8,25.1,26.5c0.2,0.4,0.6,1.2,1,2.1
		c2.8,5.8,11.1,23.2,15,27.7c0.3,0.3,0.6,0.7,0.9,1c4.4,5,8.6,9.8,16.3,10.3c0.6,0,1.2,0.1,1.8,0.1c6.6,0,17.5-2.3,26.2-15.4
		c-5.3,4.6-11,7-16.9,7c-1.8,0-3.6-0.2-5.4-0.7c-9.4-2.2-16.2-10.9-24.1-30.7c-7.6-18.8-15.7-27.4-30-31.7
		C251.9,307.3,242.1,309,236.3,310.6z"/>
	<path class="st0" d="M551.7,302.5c4.6,27.9,0,67-26.5,93c-8.3,8.2-15.9,12.5-22.5,12.9c3.8,5.7,8.9,9.5,15.9,9.5
		c9.4,0,23.1-10.9,34-27c7.6-11.2,20.4-34.4,20.4-64.3c0-28.4-6.5-46.1-12-56c-6.4-11.5-13.8-16.8-17.9-16.8
		c-7.5,0-9.9,4.4-14.1,13.5c-0.3,0.7-0.6,1.3-0.9,2C530.9,269.7,547,273.3,551.7,302.5z"/>
	<path class="st0" d="M488.7,356.9c1.1,3.8,1.9,8.6,2.9,14.2c2,11.6,4.5,25.6,10,35.3c6.3,0.1,14-4.1,22.3-12.3
		c25.9-25.5,30.4-63.9,25.9-91.3c-4.9-29.7-21.9-31.6-22.1-31.7c-0.1,0-0.2,0-0.4-0.1c-1.3,2.8-2.8,5.7-4.8,8.7
		c4.6,6.2,10.6,17.2,10.6,32.2c0,22.8-10.8,37.6-21.5,37.6c-13.6,0-9.4-14.8-13.7-28.2c-1.3-4-3.6-7.7-5.8-10.7
		c-3,1.8-6,3.5-9.1,4.9c-8.2,3.7-15.2,5-19.7,5.5C477.5,333.1,485,343.7,488.7,356.9z"/>
	<path class="st0" d="M310.7,213.2c0.7-2.7,1.1-5.6,1.1-8.8c0-11.2-5.7-18-10.4-21.8c-6.1-4.8-14.4-7.5-22.9-7.5
		c-8.5,0-17.2,2.8-24.5,6c4.9-1.4,10.4-2.3,16.3-2.3C296.2,178.8,307.1,197.4,310.7,213.2z"/>
	<path class="st0" d="M371.7,305.3c5.9,11,18.7,23.3,35.9,26.8c8.1-2.2,18.8-6.6,24.9-15.6c11.1-16.2,10.6-32.6-1.4-45
		c-8-8.3-17.5-12.3-29.2-12.4h-0.1c-3.9,0-9.5,0.9-15.5,2.1c6.8,4.2,13.6,10.9,13.6,21.2C399.9,298.9,389.6,305.1,371.7,305.3z"/>
	<path class="st0" d="M448.5,226.7c2.9,0,5.9-0.2,9-0.5c5.6-2.8,9.8-7.1,9.8-13.8c0-14.6-21.5-24.4-44.4-24.4c-16,0-32.5,4.6-42.8,8
		c6.2,4.9,13.8,10.7,20.8,15.3c5.2-2.2,13.8-4.7,25.5-4.7c20.6,0,24.3,7.5,24.3,12.1c0,3.2-1.4,6-3.5,8
		C447.7,226.7,448.1,226.7,448.5,226.7z"/>
</g>
</svg>
