<?xml version="1.0" encoding="utf-8"?>
<!-- Generator: Adobe Illustrator 23.0.3, SVG Export Plug-In . SVG Version: 6.00 Build 0)  -->
<svg version="1.1" id="图层_1" xmlns="http://www.w3.org/2000/svg" xmlns:xlink="http://www.w3.org/1999/xlink" x="0px" y="0px"
	 viewBox="0 0 800 800" style="enable-background:new 0 0 800 800;" xml:space="preserve">
<style type="text/css">
	.st0{fill:#703805;}
</style>
<g>
	<path class="st0" d="M491.6,399.3c15.5-16.1,24-38.7,24-63.5c0-67.6-66.6-92.2-111.4-92.2c-39.6,0-71.9,6.8-97.8,12.3
		c-18,3.8-33.6,7.1-46.8,7.1c-8,0-27.8,0-38.1-14.9c3.2,11.4,9.7,23.1,22.7,31.4c5.4-1.7,10.9-2.7,16.8-2.7c14.1,0,26.8,4.7,38.2,14
		h0c39-1.8,75.3-16.9,107.9-16.9c31,0,76.3,26.9,76.3,73.2c0,20.3-14.1,62.4-59.7,75.9c3.2,0.3,6.5,0.5,9.9,0.5
		C456,423.6,476.6,414.9,491.6,399.3z"/>
	<path class="st0" d="M50,389.5c0,0,20.3-1.8,43.7,19.7c15.3,14.1,30.8,52.5,36.8,77.9c30.8,130.2,138.7,235.8,304.2,235.8
		c174.1,0,315.3-140.7,315.3-314.2c0-173.5-141.2-314.2-315.3-314.2c24,0,46.4,5.2,66.9,11c43.9,12.3,76.1,34.1,76.1,62.2
		c0,26.2-30.7,50.5-80.5,50.5c-124.9,0-179.9-140.9-285.6-140.9c-89.5,0-138.3,64.6-138.3,64.6c6.3-4.8,48.2-33.2,86.9-33.2
		c34.1,0,69.7,21.2,69.7,61.6c0,22.4-11.1,38-11.1,53.1c0,30.1,20.3,35.8,40.8,35.8c31.7,0,77.1-19.4,144.6-19.4
		c48.9,0,115.3,27.2,115.3,96.1c0,54.3-38.3,91.7-85.9,91.7c-5.2,0-10.3-0.4-15.3-1.2c-0.1,0-0.1,0-0.2,0
		c-43.2-6.8-74.1-40.8-82.9-67.4c-17.7-53.1-43.2-78.2-74.3-78.2c-34.3,0-58.1,37.3-97,37.3c-14,0-40.6-9.6-40.6-41.5
		c0-29.3,22.4-53.9,42.2-65.5c13.8-8.1,27.1-9.7,27.1-9.7c-25.2-8-87.2,26.3-87.2,79c0,23,11.4,47.9,30.8,64
		c18.2,15.1,43.6,22.1,68.4,22.1c13.8,0,31.6-1.7,47.9,3.1c25,7.3,46.8,25.9,46.8,59c0,34.9-25.3,94.8-74.3,94.8
		c-36.9,0-53.1-43.2-72.9-83.2c-13.3-26.9-39-56.6-75.1-56.6C58.7,383.4,50,389.5,50,389.5z M637.5,317
		c18.2-28.4,18.3-53.6,44.2-53.6c19.2,0,62.8,44.4,62.8,147.3c0,98.5-71.7,183.8-111.1,183.8c-51.4,0-53.2-88.6-62.9-122.9
		c-8.5-30-27.2-51.7-56.5-74.9C514.1,396.8,584,400.4,637.5,317z M302.2,549c1.6-1.1,3.2-2.2,4.7-3.2c-0.7,0.5-1.5,1-2.3,1.5
		c9.4-6.4,17.4-10.6,19.9-12.2c4.8-3.1,20.2-9.3,29.7-23.7c0,0,0,0,0,0c0.2-0.3,0.4-0.6,0.6-0.9c0-0.1,0.1-0.1,0.1-0.2
		c0.1-0.1,0.1-0.2,0.2-0.3c0,0.1-0.1,0.1-0.1,0.2c4.3-6.8,7.2-15.4,7.2-26.3c0-1.3,0-2.5-0.1-3.7c0,0.4,0,0.8,0.1,1.3
		c0-0.4,0-0.8,0-1.2c0,0,0,0,0,0c-1-22.6-11-35.6-11-35.6s186.2,46.7,186.2,144c0,98.7-101.1,115.5-134.2,115.5
		c-47.6,0-90.7-23.6-116-50.9c-1.3-1.4-2.6-2.8-3.8-4.3c-12.5-14.7-19.8-30.2-19.8-43.4C263.6,581,284.7,561.4,302.2,549z"/>
	<path class="st0" d="M483.9,682.7c-1.8,1-3.6,2-5.5,3C480.3,684.8,482.1,683.8,483.9,682.7z"/>
	<path class="st0" d="M507.9,664.5c-1.7,1.7-3.5,3.4-5.3,5C504.4,667.9,506.2,666.2,507.9,664.5z"/>
	<path class="st0" d="M519.5,650.6c-2.6,3.7-5.3,7.2-8.2,10.4C514.2,657.7,517,654.3,519.5,650.6z"/>
	<path class="st0" d="M523.2,644.8c-1.2,2-2.4,3.9-3.6,5.7C520.8,648.7,522,646.8,523.2,644.8z"/>
	<path class="st0" d="M533.7,619C533.7,619,533.7,619,533.7,619c-1.4,5.3-3.1,10.3-5.1,15C530.6,629.4,532.3,624.4,533.7,619z"/>
	<path class="st0" d="M573.7,167.6c0-12.2-6.7-23.6-20-34c-12.7-9.8-31-18.3-53.1-24.5c-19.1-5.4-41.9-10.8-65.8-10.8
		c-35.3,0-73.4,8.8-110.4,25.4c6.7,5.4,13.5,11,20.1,16.5c4.2,3.5,8.5,7,12.8,10.5c19.1-6.6,54-16.8,87.7-16.8
		c44.9,0,91.3,19.4,91.3,52c0,10.3-4.5,19-13.1,25.6c12.3-2.5,23.1-6.9,31.7-12.8C567,190.3,573.7,179.2,573.7,167.6z"/>
	<path class="st0" d="M173.9,211.2c-2,0.9-4.2,2-6.3,3.3c-20,11.8-40.2,35.5-40.2,62.1c0,12.8,4.5,22.7,13.5,29.6
		c7.8,5.9,17.1,8,23.2,8c10.4,0,19.8-2.9,28.6-7.1c-2.3,0.3-4.6,0.5-7,0.5c-28.3,0-46.8-21.6-46.8-44.9
		C138.8,238.4,158.3,221.1,173.9,211.2z"/>
	<path class="st0" d="M386.7,535.6C386.6,535.6,386.6,535.6,386.7,535.6c11.7,12,20.2,26.5,20.2,43.5c0,23.3-25.9,51.2-62.7,55.7
		c27.5,21.8,69.4,29.3,109.9,19.7c26.9-6.4,49.4-19.4,65.1-36.9c-29.2-6-57-30.1-57-61.1c0-17.5,9.1-35.2,18.8-49.1
		c-10.6-7.6-22.7-15-36.2-22.1c-13.7-7.1-27.5-13.3-40.2-18.4C406.3,480.2,407.9,512.1,386.7,535.6z"/>
	<path class="st0" d="M307.1,666.2c1.4,0.9,2.8,1.9,4.3,2.9c17.9,12.3,45,30.8,88.8,30.8c17.1,0,35.7-2.9,55-8.6
		c33.8-10,57.3-29.5,69.6-58c4.4-10.1,6.5-19.5,7.5-26.6c-15.7,25-43.1,43.5-77.3,51.7c-12,2.8-24,4.2-35.9,4.2
		c-30.1,0-58.6-9-79-25.9c-19.4-16-28.6-32-27.6-47.6c1-14.7,11-24.9,16.8-29.7c-1.6-0.2-3.1-0.5-4.5-0.7l-1.1-0.2
		c-9.8-1.7-20.1-1-27.8,0.3c-0.9,0.7-1.8,1.4-2.6,2.1l0,0l-0.1,0c-17.3,13.7-25.7,29-25.1,45.7C269.2,633.8,294.1,657.5,307.1,666.2
		z"/>
	<path class="st0" d="M324.4,554.6l1.1,0.2c12.4,2.1,33.3,5.7,58.2-21.8c21.2-23.4,18.1-56.9,16.5-67.7
		c-17.6-6.9-32.7-11.7-41.6-14.3c9.4,20.5,10.5,38.9,3.1,55c-7,15.3-19.8,24-26.8,27.9c-10.6,5.8-22.2,12.6-32.6,20
		C309.1,553.3,316.9,553.3,324.4,554.6z"/>
	<path class="st0" d="M263.7,377.9c-13.3-7-26.6-7.9-37.8-7.9c-2.5,0-5,0.1-7.4,0.1c-2.2,0.1-4.3,0.1-6.3,0.1c-0.5,0-0.9,0-1.4,0
		h-1.9c-36.1-0.1-63.7-10.1-82.4-29.7c14.4,22.8,37.4,44.9,71.1,44.9c14.4,0,23.2-1.1,38.7-1.1c25.2,0,38.4,2.9,47.3,9.3
		C278.8,387.7,272.3,382.4,263.7,377.9z"/>
	<path class="st0" d="M212.8,437.1c-9.4-9.9-18.2-23.2-27.2-31.6c-15.2-14.2-31.3-21.9-45.3-26c21.5,10,35.3,27.6,48.3,59.8
		c15.2,37.8,27.8,54.1,44.8,58.2c17.9,4.3,35.3-3.4,50.6-22.3c1.9-4,3.6-8.3,5.3-13c0.7-2.1,1.5-4.3,2.1-6.5
		c-6.3,4.8-14.6,8.3-25.5,8.3C244.3,463.8,227.1,452.1,212.8,437.1z"/>
	<path class="st0" d="M77.4,379.3c9.9,0,19.6,2.3,28.8,6.7c14.2,6.8,34.3,21.3,49.5,52.3c0.4,0.9,1.1,2.3,2,4.1
		c5.4,11.3,21.9,45.8,29.6,54.6c0.6,0.6,1.1,1.3,1.7,1.9c8.7,9.9,16.9,19.2,32.2,20.2c1.1,0.1,2.3,0.1,3.5,0.1
		c13,0,34.5-4.5,51.6-30.4c-10.4,9.1-21.6,13.7-33.2,13.7c-3.5,0-7-0.4-10.6-1.3c-18.5-4.4-31.8-21.4-47.6-60.5
		c-14.9-37.1-30.9-54-59-62.5C108.1,372.8,88.9,376.2,77.4,379.3z"/>
	<path class="st0" d="M698.5,363.4c9,55,0,131.9-52.1,183.2c-16.3,16.1-31.2,24.6-44.3,25.3c7.4,11.3,17.5,18.6,31.3,18.6
		c18.4,0,45.4-21.4,67-53.2c15-22.1,40.1-67.8,40.1-126.6c0-55.9-12.9-90.8-23.7-110.3c-12.6-22.7-27.1-33.1-35.2-33.1
		c-14.8,0-19.4,8.6-27.7,26.6c-0.6,1.3-1.2,2.6-1.9,4C657.4,298.7,689.1,305.9,698.5,363.4z"/>
	<path class="st0" d="M574.3,470.6c2.1,7.4,3.8,16.9,5.7,27.9c4,22.8,8.8,50.5,19.7,69.5c12.4,0.2,27.5-8.1,43.9-24.2
		c51-50.2,59.8-125.7,51-179.7c-9.5-58.4-43.1-62.3-43.4-62.3c-0.2,0-0.5-0.1-0.7-0.2c-2.6,5.4-5.6,11.2-9.5,17.2
		c9,12.2,20.9,33.8,20.9,63.4c0,44.9-21.3,74-42.3,74c-26.7,0-18.5-29.2-27-55.5c-2.6-7.9-7-15.2-11.4-21c-5.8,3.6-11.8,6.8-18,9.5
		c-16.1,7.2-29.9,9.9-38.8,10.9C552.3,423.6,567,444.5,574.3,470.6z"/>
	<path class="st0" d="M223.8,187.5c1.3-5.3,2.2-11,2.2-17.2c0-22.1-11.2-35.5-20.6-42.9c-12-9.4-28.4-14.8-45.2-14.8
		c-16.7,0-33.8,5.4-48.3,11.8c9.6-2.7,20.5-4.6,32.1-4.6C195.3,119.8,216.9,156.5,223.8,187.5z"/>
	<path class="st0" d="M343.9,369c11.6,21.7,36.7,45.9,70.7,52.7c16-4.3,36.9-13,49.1-30.8c21.8-31.9,20.9-64.2-2.7-88.6
		c-15.7-16.3-34.5-24.2-57.6-24.4h-0.2c-7.7,0-18.7,1.8-30.5,4.1c13.4,8.3,26.8,21.5,26.8,41.7C399.4,356.3,379.3,368.6,343.9,369z"
		/>
	<path class="st0" d="M495.3,214.2c5.7,0,11.5-0.3,17.8-1c11-5.5,19.2-14,19.2-27.2c0-28.8-42.4-48-87.4-48
		c-31.5,0-64.1,9-84.3,15.8c12.2,9.7,27.1,21.1,41,30.1c10.2-4.3,27.1-9.2,50.3-9.2c40.6,0,47.8,14.9,47.8,23.8
		c0,6.4-2.7,11.8-7,15.7C493.6,214.2,494.4,214.2,495.3,214.2z"/>
</g>
</svg>
