<?xml version="1.0" encoding="utf-8"?>
<!-- Generator: Adobe Illustrator 23.0.3, SVG Export Plug-In . SVG Version: 6.00 Build 0)  -->
<svg version="1.1" id="图层_1" xmlns="http://www.w3.org/2000/svg" xmlns:xlink="http://www.w3.org/1999/xlink" x="0px" y="0px"
	 viewBox="0 0 800 800" style="enable-background:new 0 0 800 800;" xml:space="preserve">
<style type="text/css">
	.st0{fill:#804927;}
	.st1{fill:#FFFFFF;}
	.st2{fill:url(#SVGID_1_);}
	.st3{fill:url(#SVGID_2_);}
	.st4{fill:url(#SVGID_3_);}
	.st5{fill:url(#SVGID_4_);}
	.st6{fill:url(#SVGID_5_);}
	.st7{fill:url(#SVGID_6_);}
	.st8{fill:url(#SVGID_7_);}
	.st9{fill:url(#SVGID_8_);}
	.st10{fill:url(#SVGID_9_);}
	.st11{fill:url(#SVGID_10_);}
	.st12{fill:url(#SVGID_11_);}
	.st13{fill:url(#SVGID_12_);}
	.st14{fill:url(#SVGID_13_);}
	.st15{fill:url(#SVGID_14_);}
	.st16{fill:url(#SVGID_15_);}
</style>
<path class="st0" d="M721.3,559.9H78.7c-15.8,0-28.7-12.8-28.7-28.7V268.7c0-15.8,12.8-28.7,28.7-28.7h599.2
	c39.8,0,72.2,32.3,72.2,72.2v219.1C750,547.1,737.2,559.9,721.3,559.9z"/>
<path class="st1" d="M719.1,548.7H503.3c-34.2,0-61.9-27.7-61.9-61.9V271c0-10.9,8.8-19.7,19.7-19.7h215.7
	c34.2,0,61.9,27.7,61.9,61.9V529C738.7,539.9,729.9,548.7,719.1,548.7z"/>
<path class="st1" d="M180.1,462.2h-6.4v2.4h19.4v-2.4H186v-12.1h7v-2.4h-7v-5h7v-2.4h-19.3v2.4h6.5v5h-6.5v2.4h6.5V462.2z
	 M186.2,452.4l2.2,8.3h4.8l-2.2-8.3H186.2z M280.5,449.7l1.6-7.6h-4.8l-1.6,7.6H280.5z M280.2,451.3h-4.8l3.2,18.3h4.9L280.2,451.3z
	 M299.8,447.1v-2.4h-2.6v-10h-5.8v10h-2.6v2.4h2.6v22.4h5.8v-22.4H299.8z M313.2,438.8h-1.5l0.2-4.1h-5.2l-0.2,4.1h-5.8v2.4h5.6
	l-1.5,28.3h5.2l1.5-28.3h1.7v24.4c0,1-0.8,1.8-1.8,1.8H311v2.2h2.2h0.3h3.5c1.1,0,2.1-0.9,2.1-2.1v-28.8h-0.4L313.2,438.8
	L313.2,438.8z M301.2,443.3l-1.8,25.9h3.9l1.8-25.9H301.2z M320.2,443.3h2.8v25.9h-2.8V443.3z M337.3,443.4l5-6h10.1l4.9,6h7.4
	l-6.9-8.4h-1.5h-5.9h-6.2h-7.4h-3.2l1.3,2.2l-5,6.2H337.3z M331.3,445.8h31.7v2.4h-31.7V445.8z M329.8,454h7.7l-7.4,15.1h4.4h2.9
	h19.6h1.8h2.7c0.7-1.1,0.9-1.4,1.6-2.5l-4.9-10.2h-7.2l5,10.2h-17.2L345,454h19.5v-2.4h-34.7L329.8,454L329.8,454z M158.8,439.5H153
	h-7.4v-4.9h-6.1v4.9h-5.2h-2v2.4h7.2v18.1h-8v-20.5h-5.9h-1.2c0,0.1,0,0.3,0.1,0.4l1.1,1.8v18.4v2.4h5.8h8v7.2h6.2v-7.2h7.3h0.7h3.1
	c1.1,0,2.1-0.9,2.1-2.1v-20.9L158.8,439.5L158.8,439.5z M153,460.1h-7.4v-18.1h7.4V460.1z M197.1,435.2h-2.7h-14.2H174v2.4h20.3
	v29.1h-21.7v-31.5h-5.8l0,0l0,0h-1.2c0,0.1,0,0.3,0.1,0.4l1.1,1.7v31.8h4h1.8h21.7h0.8h2.9c1.1,0,2.1-0.9,2.1-2.1v-31.9L197.1,435.2
	L197.1,435.2L197.1,435.2z M227.4,466.5V456H241v-2.6h-13.5v-4.7h5.9l0,0h5.8c1.1,0,2.1-0.9,2.1-2.1v-11.6h-7.9H217v3.2h16.4v7.9
	h-17.9V435h-4h-3.8l0,0l0,0h-1.2c0,0.1,0,0.3,0.1,0.4l1.1,1.7v11.5h7.3l0,0h6.4v17.9h-7.2l2.9-16h-6.5l-3.4,18.6h2.7h3.9h28.5v-2.6
	L227.4,466.5L227.4,466.5z M257.3,465.9v-15.3h2.9v-2.4h-2.9v-9.4h3.7v-2.5h-13.2v2.5h3.7v9.4h-2.9v2.4h2.9v15.8l-3.9,0.3l0.2,2.4
	l12.4-1.1l-0.2-2.4L257.3,465.9z M266.4,442.1h-4.8l1.6,7.6h4.8L266.4,442.1z M263.8,451.3l-3.2,18.3h4.8l3.2-18.3H263.8z
	 M281.7,438v-1.9h-4.1v1.9h-2.7v-3.1h-3h-2.8l0,0l0,0H268c0,0.1,0,0.3,0.1,0.3l1,1.6v1.2h-7.8v2.5h7.7v25.9c0,0.7-0.5,1.2-1.2,1.2
	h-1.4v2h2.6h0.2h3.6c1.1,0,2.1-0.9,2.1-2.1v-27.1h7.7v-2.5L281.7,438L281.7,438L281.7,438z M131.3,483.8l2,0.6
	c-0.3,1.1-0.8,1.9-1.5,2.4c-0.7,0.5-1.6,0.8-2.7,0.8c-1.3,0-2.4-0.4-3.3-1.3c-0.9-0.9-1.3-2.1-1.3-3.8c0-1.7,0.4-2.9,1.3-3.9
	c0.9-0.9,2-1.4,3.4-1.4c1.2,0,2.2,0.4,3,1.1c0.4,0.4,0.8,1.1,1,1.9l-2,0.5c-0.1-0.5-0.4-0.9-0.8-1.2s-0.8-0.4-1.3-0.4
	c-0.8,0-1.3,0.3-1.8,0.8c-0.4,0.5-0.7,1.4-0.7,2.6c0,1.2,0.2,2.1,0.7,2.7c0.4,0.6,1.1,0.8,1.8,0.8c0.5,0,1-0.2,1.4-0.5
	C130.9,485.1,131.2,484.6,131.3,483.8z M135.1,487.5v-10h2v3.9h4v-3.9h2v10h-2v-4.4h-4v4.4H135.1z M145.1,487.5v-10h2v10H145.1z
	 M149.1,487.5v-10h2l4.1,6.7v-6.7h1.9v10h-2l-4-6.6v6.6H149.1z M159.2,487.5v-10h7.4v1.7h-5.4v2.2h5v1.7h-5v2.7h5.6v1.7L159.2,487.5
	L159.2,487.5z M168,484.3l2-0.2c0.1,0.7,0.3,1.1,0.7,1.5c0.4,0.3,0.8,0.4,1.5,0.4s1.1-0.1,1.5-0.4s0.5-0.6,0.5-1
	c0-0.2-0.1-0.4-0.2-0.6c-0.1-0.1-0.4-0.3-0.7-0.4c-0.2-0.1-0.8-0.2-1.6-0.4c-1.1-0.3-1.9-0.6-2.3-1c-0.6-0.6-0.9-1.2-0.9-2
	c0-0.5,0.1-1,0.4-1.5c0.3-0.4,0.7-0.8,1.2-1c0.5-0.2,1.2-0.3,2-0.3c1.2,0,2.2,0.3,2.8,0.8c0.6,0.6,1,1.3,1,2.2l-2,0.1
	c-0.1-0.5-0.3-0.9-0.6-1.1c-0.3-0.2-0.7-0.3-1.3-0.3c-0.6,0-1.1,0.1-1.4,0.4c-0.2,0.1-0.3,0.4-0.3,0.6c0,0.2,0.1,0.4,0.3,0.6
	c0.3,0.2,0.9,0.4,1.9,0.7c1,0.2,1.7,0.4,2.2,0.7c0.4,0.3,0.8,0.6,1.1,1s0.4,0.9,0.4,1.6c0,0.6-0.1,1.1-0.5,1.6
	c-0.3,0.5-0.8,0.9-1.3,1.1c-0.6,0.2-1.3,0.4-2.2,0.4c-1.2,0-2.2-0.3-2.9-0.9C168.5,486.3,168.2,485.4,168,484.3z M177.9,487.5v-10
	h7.4v1.7h-5.4v2.2h5v1.7h-5v2.7h5.6v1.7L177.9,487.5L177.9,487.5z M191.2,487.5v-10h6.9v1.7h-4.8v2.4h4.2v1.7h-4.2v4.3L191.2,487.5
	L191.2,487.5L191.2,487.5z M199.3,482.6c0-1,0.1-1.9,0.4-2.6c0.2-0.5,0.5-1,0.9-1.3c0.4-0.4,0.8-0.7,1.3-0.9
	c0.7-0.3,1.3-0.4,2.1-0.4c1.5,0,2.7,0.4,3.6,1.3c0.9,0.9,1.3,2.2,1.3,3.8c0,1.6-0.4,2.9-1.3,3.8c-0.9,0.9-2,1.3-3.5,1.3
	c-1.5,0-2.7-0.4-3.6-1.3C199.7,485.4,199.3,484.2,199.3,482.6z M201.4,482.5c0,1.1,0.3,2,0.8,2.6c0.5,0.6,1.2,0.9,2,0.9
	c0.8,0,1.5-0.3,2-0.9c0.5-0.6,0.8-1.5,0.8-2.6c0-1.1-0.3-2-0.8-2.6c-0.5-0.6-1.2-0.8-2-0.8s-1.5,0.3-2,0.9
	C201.6,480.5,201.4,481.4,201.4,482.5z M210.2,482.6c0-1,0.1-1.9,0.4-2.6c0.2-0.5,0.5-1,0.9-1.3c0.4-0.4,0.8-0.7,1.3-0.9
	c0.7-0.3,1.3-0.4,2.1-0.4c1.5,0,2.7,0.4,3.6,1.3c0.9,0.9,1.3,2.2,1.3,3.8c0,1.6-0.4,2.9-1.3,3.8c-0.9,0.9-2,1.3-3.5,1.3
	s-2.7-0.4-3.6-1.3C210.6,485.4,210.2,484.2,210.2,482.6z M212.3,482.5c0,1.1,0.3,2,0.8,2.6c0.5,0.6,1.2,0.9,2,0.9
	c0.8,0,1.5-0.3,2-0.9s0.8-1.5,0.8-2.6c0-1.1-0.3-2-0.8-2.6c-0.5-0.6-1.2-0.8-2-0.8c-0.8,0-1.5,0.3-2,0.9
	C212.5,480.5,212.3,481.4,212.3,482.5z M223.8,487.5v-8.3h-3v-1.7h8v1.7h-2.9v8.3H223.8z M230.1,477.5h4c0.8,0,1.4,0,1.8,0.1
	s0.8,0.2,1.1,0.4c0.3,0.2,0.6,0.5,0.8,0.8c0.2,0.3,0.3,0.8,0.3,1.2c0,0.4-0.1,0.9-0.4,1.3s-0.6,0.7-1,0.9c0.6,0.2,1.1,0.5,1.4,0.9
	c0.3,0.4,0.5,0.9,0.5,1.5c0,0.4-0.1,0.9-0.3,1.3c-0.2,0.4-0.5,0.8-0.9,1s-0.8,0.4-1.3,0.5c-0.3,0-1.1,0.1-2.5,0.1h-3.4L230.1,477.5
	L230.1,477.5z M232.1,479.2v2.3h1.3c0.8,0,1.3,0,1.5,0c0.3,0,0.6-0.1,0.8-0.3c0.2-0.2,0.3-0.4,0.3-0.8c0-0.3-0.1-0.6-0.3-0.8
	c-0.2-0.2-0.4-0.3-0.8-0.3c-0.2,0-0.8,0-1.7,0H232.1L232.1,479.2z M232.1,483.2v2.7h1.9c0.7,0,1.2,0,1.4-0.1c0.3,0,0.5-0.2,0.7-0.4
	c0.2-0.2,0.3-0.5,0.3-0.8c0-0.3-0.1-0.6-0.2-0.8c-0.1-0.2-0.3-0.4-0.7-0.4c-0.3-0.1-0.9-0.1-1.8-0.1L232.1,483.2L232.1,483.2z
	 M249.3,487.5H247l-0.9-2.3h-4l-0.8,2.3h-2.1l3.9-10h2.1L249.3,487.5z M245.6,483.6l-1.4-3.7l-1.3,3.7H245.6z M250.4,487.5v-10h2
	v8.3h5v1.7L250.4,487.5L250.4,487.5z M259,487.5v-10h2v8.3h5v1.7L259,487.5L259,487.5z M279.6,487.5h-2.2l-0.9-2.3h-4l-0.8,2.3h-2.2
	l3.9-10h2.1L279.6,487.5z M275.9,483.6l-1.4-3.7l-1.3,3.7H275.9z M280.2,484.3l2-0.2c0.1,0.7,0.3,1.1,0.7,1.5
	c0.4,0.3,0.8,0.4,1.5,0.4s1.1-0.1,1.5-0.4c0.3-0.3,0.5-0.6,0.5-1c0-0.2-0.1-0.4-0.2-0.6c-0.1-0.1-0.4-0.3-0.7-0.4
	c-0.2-0.1-0.8-0.2-1.6-0.4c-1.1-0.3-1.9-0.6-2.3-1c-0.6-0.6-0.9-1.2-0.9-2c0-0.5,0.1-1,0.4-1.5c0.3-0.4,0.7-0.8,1.2-1
	c0.5-0.2,1.2-0.3,2-0.3c1.2,0,2.2,0.3,2.8,0.8c0.7,0.6,1,1.3,1,2.2l-2,0.1c-0.1-0.5-0.3-0.9-0.6-1.1c-0.3-0.2-0.7-0.3-1.3-0.3
	c-0.6,0-1.1,0.1-1.3,0.4c-0.2,0.1-0.3,0.4-0.3,0.6c0,0.2,0.1,0.4,0.3,0.6c0.3,0.2,0.9,0.4,1.9,0.7c1,0.2,1.7,0.4,2.2,0.7
	c0.4,0.3,0.8,0.6,1.1,1s0.4,0.9,0.4,1.6c0,0.6-0.1,1.1-0.5,1.6c-0.3,0.5-0.8,0.9-1.3,1.1c-0.6,0.2-1.3,0.4-2.2,0.4
	c-1.2,0-2.2-0.3-2.9-0.9C280.7,486.3,280.3,485.4,280.2,484.3z M289.6,484.3l2-0.2c0.1,0.7,0.3,1.1,0.7,1.5c0.4,0.3,0.8,0.4,1.5,0.4
	s1.1-0.1,1.5-0.4s0.5-0.6,0.5-1c0-0.2-0.1-0.4-0.2-0.6c-0.1-0.1-0.4-0.3-0.7-0.4c-0.2-0.1-0.8-0.2-1.6-0.4c-1.1-0.3-1.9-0.6-2.3-1
	c-0.6-0.6-0.9-1.2-0.9-2c0-0.5,0.1-1,0.4-1.5c0.3-0.4,0.7-0.8,1.2-1c0.5-0.2,1.2-0.3,2-0.3c1.2,0,2.2,0.3,2.8,0.8
	c0.7,0.6,1,1.3,1,2.2l-2,0.1c-0.1-0.5-0.3-0.9-0.6-1.1c-0.3-0.2-0.7-0.3-1.3-0.3c-0.6,0-1.1,0.1-1.4,0.4c-0.2,0.1-0.3,0.4-0.3,0.6
	c0,0.2,0.1,0.4,0.3,0.6c0.3,0.2,0.9,0.4,1.9,0.7c1,0.2,1.7,0.4,2.2,0.7c0.4,0.3,0.8,0.6,1.1,1s0.4,0.9,0.4,1.6
	c0,0.6-0.1,1.1-0.5,1.6c-0.3,0.5-0.8,0.9-1.3,1.1c-0.6,0.3-1.3,0.4-2.2,0.4c-1.2,0-2.2-0.3-2.9-0.9
	C290.1,486.3,289.7,485.4,289.6,484.3z M299,482.6c0-1,0.1-1.9,0.4-2.6c0.2-0.5,0.5-1,0.9-1.3c0.4-0.4,0.8-0.7,1.3-0.9
	c0.7-0.3,1.3-0.4,2.1-0.4c1.5,0,2.7,0.4,3.6,1.3c0.9,0.9,1.3,2.2,1.3,3.8c0,1.6-0.4,2.9-1.3,3.8c-0.9,0.9-2,1.3-3.5,1.3
	c-1.5,0-2.7-0.4-3.6-1.3C299.4,485.4,299,484.2,299,482.6z M301.1,482.5c0,1.1,0.3,2,0.8,2.6c0.5,0.6,1.2,0.9,2,0.9s1.5-0.3,2-0.9
	s0.8-1.5,0.8-2.6c0-1.1-0.3-2-0.8-2.6c-0.5-0.6-1.2-0.8-2-0.8s-1.5,0.3-2,0.9C301.3,480.5,301.1,481.4,301.1,482.5z M316.7,483.8
	l2,0.6c-0.3,1.1-0.8,1.9-1.5,2.4c-0.7,0.5-1.6,0.8-2.7,0.8c-1.3,0-2.4-0.4-3.3-1.3s-1.3-2.1-1.3-3.8c0-1.7,0.4-2.9,1.3-3.9
	c0.9-0.9,2-1.4,3.4-1.4c1.2,0,2.2,0.4,3,1.1c0.4,0.4,0.8,1.1,1,1.9l-2,0.5c-0.1-0.5-0.4-0.9-0.8-1.2c-0.4-0.3-0.8-0.4-1.3-0.4
	c-0.8,0-1.3,0.3-1.8,0.8c-0.4,0.5-0.7,1.4-0.7,2.6c0,1.2,0.2,2.1,0.7,2.7c0.4,0.6,1.1,0.8,1.8,0.8c0.5,0,1-0.2,1.4-0.5
	C316.3,485.1,316.6,484.6,316.7,483.8z M320.4,487.5v-10h2v10H320.4z M333.4,487.5h-2.2l-0.9-2.3h-4l-0.8,2.3h-2.1l3.9-10h2.1
	L333.4,487.5z M329.7,483.6l-1.4-3.7l-1.3,3.7H329.7z M335.7,487.5v-8.3h-3v-1.7h8v1.7h-2.9v8.3H335.7z M341.9,487.5v-10h2v10H341.9
	z M345.5,482.6c0-1,0.1-1.9,0.4-2.6c0.2-0.5,0.5-1,0.9-1.3c0.4-0.4,0.8-0.7,1.3-0.9c0.7-0.3,1.3-0.4,2.1-0.4c1.5,0,2.7,0.4,3.6,1.3
	c0.9,0.9,1.3,2.2,1.3,3.8c0,1.6-0.4,2.9-1.3,3.8c-0.9,0.9-2,1.3-3.5,1.3c-1.5,0-2.7-0.4-3.6-1.3
	C345.9,485.4,345.5,484.2,345.5,482.6z M347.6,482.5c0,1.1,0.3,2,0.8,2.6c0.5,0.6,1.2,0.9,2,0.9s1.5-0.3,2-0.9s0.8-1.5,0.8-2.6
	c0-1.1-0.3-2-0.8-2.6c-0.5-0.6-1.2-0.8-2-0.8s-1.5,0.3-2,0.9C347.8,480.5,347.6,481.4,347.6,482.5z M356.8,487.5v-10h2l4.1,6.7v-6.7
	h1.9v10h-2l-4-6.6v6.6H356.8z M123.7,371.6c0,32.7,26.4,43.3,39.5,43.3h16.7c3.1,0,5.7-2.6,5.7-5.7v-13.9c0,0-9.6,0-17.8,0
	c-8.2,0-23.5-5.7-23.5-23.7c0-18.2,16.6-23.3,24.5-23.3h11.5c3.1,0,5.7-2.6,5.7-5.7v-15.1c0,0-2.8,0-18.3,0
	C151.8,327.6,123.7,338.9,123.7,371.6z M220.8,367.5v-18.8h31.6c2.4,0,4.4-1.4,5.2-3.7l6.5-17v-0.5h-64.4v87.3h21.5v-26.4h16.3
	c2.4,0,4.4-1.4,5.2-3.7l6.5-17.2H220.8L220.8,367.5z M301.5,327.5H284c-3.7,0-5.8,1.3-6.8,4l-32,83.5h22.6l4.4-11.3L301.5,327.5z
	 M305.7,383.3h-20.4l-7.7,20.4h36.2l4.3,11h22.6l-34-86.7l-11.2,29.2L305.7,383.3z M336.1,321.2l0.1,5.5l-3.5,4.1l-0.7-1.7l2.2-6.8
	L336.1,321.2z M347.6,313.7c9.1,0,16.5,7.4,16.5,16.5s-7.4,16.5-16.5,16.5c-9.1,0-16.5-7.4-16.5-16.5S338.5,313.7,347.6,313.7
	 M347.6,312.2c-10,0-18,8.1-18,18s8.1,18,18,18s18-8.1,18-18S357.6,312.2,347.6,312.2L347.6,312.2z M347.9,322.6l-7.2,5.8l3,8.3h8.3
	l3-7.7L347.9,322.6z M342.5,316.3l5.2,1.9l5-1.9l-1.3-1.2l-7.2-0.2L342.5,316.3z M359.5,321.2l-0.1,5.5l3.5,4.1l0.8-1.7l-2.2-6.8
	L359.5,321.2z M335.5,338.2l5.3,1.5l2.9,4.5l-1.8,0.2l-5.9-4L335.5,338.2z M360,338.2l-5.3,1.5l-2.9,4.5l1.8,0.2l5.9-4L360,338.2z"
	/>
<g>
	<g>
		<linearGradient id="SVGID_1_" gradientUnits="userSpaceOnUse" x1="570.0143" y1="332.2136" x2="598.3513" y2="411.9597">
			<stop  offset="0.2381" style="stop-color:#D08D04"/>
			<stop  offset="0.4384" style="stop-color:#DCA200"/>
			<stop  offset="0.633" style="stop-color:#F9C972"/>
			<stop  offset="0.6568" style="stop-color:#EFBF5F"/>
			<stop  offset="0.706" style="stop-color:#DDAC3D"/>
			<stop  offset="0.7467" style="stop-color:#D2A128"/>
			<stop  offset="0.7734" style="stop-color:#CE9D20"/>
			<stop  offset="0.8319" style="stop-color:#B67F22"/>
			<stop  offset="0.8968" style="stop-color:#A26523"/>
			<stop  offset="0.9548" style="stop-color:#955524"/>
			<stop  offset="1" style="stop-color:#914F24"/>
		</linearGradient>
		<path class="st2" d="M631.1,378c0-23.6-22.8-32.9-39.5-32.9c-23.1,0-38.7,6.7-49.6,6.7c-6.9,0-13.7-1.9-14-11.6l-0.1,0.1
			c0,7.9,2.6,22.5,25,22.5c14.4,0,27.7-5.8,39.6-5.8c10.6,0,26.2,9.2,26.2,25.1c0,7.5-5.5,23.4-23.9,26.9c2.2,0.4,4.5,0.7,6.8,0.7
			C617.9,409.4,631.1,396.6,631.1,378z"/>
		<linearGradient id="SVGID_2_" gradientUnits="userSpaceOnUse" x1="569.3009" y1="382.9126" x2="618.6592" y2="382.9126">
			<stop  offset="0" style="stop-color:#984F24"/>
			<stop  offset="1" style="stop-color:#4F2511"/>
		</linearGradient>
		<path class="st3" d="M596.4,409c-0.6-0.1-1.1-0.2-1.6-0.3c18.4-3.4,23.9-19.4,23.9-26.9c0-15.9-15.5-25.1-26.2-25.1
			c-4.3,0-8.9,0.8-13.6,1.8c5.1,2.7,11,7.5,11,15.3c0,11.6-7.5,15.7-20.6,15.5C573.6,397.8,583.3,407,596.4,409z"/>
		<linearGradient id="SVGID_3_" gradientUnits="userSpaceOnUse" x1="497.971" y1="306.408" x2="543.318" y2="335.1542">
			<stop  offset="0" style="stop-color:#D08D04"/>
			<stop  offset="1" style="stop-color:#984F24"/>
		</linearGradient>
		<path class="st4" d="M507.9,300.1c-13.3,0-27.6,9.7-29.8,11.4c0,0,10.7-7.6,24.2-7.6c19.3,0,26.3,15.1,27.9,26.2
			c0.8-2.6,1.6-5.6,1.6-8.9C531.8,307.4,519.6,300.1,507.9,300.1z"/>
	</g>
	<radialGradient id="SVGID_4_" cx="553.6628" cy="328.1158" r="193.0607" gradientUnits="userSpaceOnUse">
		<stop  offset="0" style="stop-color:#FFE99C"/>
		<stop  offset="0.1074" style="stop-color:#FCE393"/>
		<stop  offset="0.2826" style="stop-color:#F2D27B"/>
		<stop  offset="0.5024" style="stop-color:#E3B653"/>
		<stop  offset="0.6404" style="stop-color:#D8A237"/>
		<stop  offset="0.8867" style="stop-color:#BA7A1A"/>
		<stop  offset="0.95" style="stop-color:#E1A535"/>
		<stop  offset="1" style="stop-color:#FBD482"/>
	</radialGradient>
	<path class="st5" d="M602,295.2c8.2,0,15.9,1.8,22.9,3.8c15.1,4.2,26.1,11.7,26.1,21.3c0,9-10.5,17.3-27.6,17.3
		c-42.8,0-61.7-48.3-97.9-48.3c-30.7,0-47.4,22.2-47.4,22.2c2.2-1.6,16.5-11.4,29.8-11.4c11.7,0,23.9,7.3,23.9,21.1
		c0,7.7-3.8,13-3.8,18.2c0,10.3,7,12.3,14,12.3c10.9,0,26.4-6.7,49.6-6.7c16.8,0,39.5,9.3,39.5,32.9c0,18.6-13.1,31.5-29.5,31.5
		c-17.6,0-30.3-13.3-33.7-23.5c-6.1-18.2-14.8-26.8-25.5-26.8c-11.8,0-19.9,12.8-33.2,12.8c-4.8,0-13.9-3.3-13.9-14.2
		c0-10,7.7-18.5,14.5-22.5c4.7-2.8,9.3-3.3,9.3-3.3c-8.6-2.8-29.9,9-29.9,27.1c0,7.9,3.9,16.4,10.6,21.9c6.2,5.2,15,7.6,23.4,7.6
		c4.7,0,10.8-0.6,16.4,1c8.6,2.5,16.1,8.9,16.1,20.2c0,12-8.7,32.5-25.5,32.5c-12.7,0-18.2-14.8-25-28.5
		c-4.6-9.2-13.4-19.4-25.8-19.4c-6.3,0-9.3,2.1-9.3,2.1s7-0.6,15,6.7c5.2,4.8,10.6,18,12.6,26.7c10.6,44.7,47.6,80.8,104.3,80.8
		c59.7,0,108.1-48.2,108.1-107.7C710.1,343.5,661.7,295.2,602,295.2z M591.1,504.3c-25.8,0-47.9-20.3-47.9-33.8
		c0-13.5,18.4-22.6,20.9-24.1c2.5-1.6,12.9-5.5,12.9-17.5c0-8.5-3.8-13.5-3.8-13.5s63.9,16,63.9,49.4
		C637.1,498.6,602.5,504.3,591.1,504.3z M670.1,466.7c-17.6,0-18.3-30.4-21.6-42.1c-2.9-10.3-9.3-17.7-19.4-25.7
		c0,0,24,1.3,42.3-27.4c6.3-9.8,6.3-18.4,15.2-18.4c6.6,0,21.5,15.2,21.5,50.5C708.2,437.4,683.6,466.7,670.1,466.7z"/>
	<g>
		<linearGradient id="SVGID_5_" gradientUnits="userSpaceOnUse" x1="629.1616" y1="411.9062" x2="692.7567" y2="411.9062">
			<stop  offset="0" style="stop-color:#984F24"/>
			<stop  offset="1" style="stop-color:#4F2511"/>
		</linearGradient>
		<path class="st6" d="M675.9,365.6c-0.4,0-0.8,0-1.2,0.1c-0.8,1.7-1.7,3.5-2.9,5.3c3.1,3.9,8.1,11.7,8.1,22.9
			c0,15.4-7.3,25.4-14.5,25.4c-9.2,0-6.3-10-9.3-19c-1-3.2-3-6.1-4.7-8.3c-12.1,7.5-22.2,6.9-22.2,6.9c10.1,8,16.5,15.4,19.4,25.7
			c2.2,7.7,3.2,23.6,8.7,33.4c0.7,0.1,1.4,0.2,2.4,0.2c9.1,0,33.2-20.4,33.2-57.1C692.8,368.1,677.6,365.6,675.9,365.6z"/>
		<linearGradient id="SVGID_6_" gradientUnits="userSpaceOnUse" x1="682.6974" y1="466.6831" x2="682.6974" y2="353.1602">
			<stop  offset="0" style="stop-color:#FFF57F"/>
			<stop  offset="3.448280e-02" style="stop-color:#FFE228"/>
			<stop  offset="0.1823" style="stop-color:#986935"/>
			<stop  offset="0.5714" style="stop-color:#A87436"/>
			<stop  offset="0.7586" style="stop-color:#AB7D38"/>
			<stop  offset="1" style="stop-color:#5C250D"/>
		</linearGradient>
		<path class="st7" d="M670.1,466.7c13.5,0,38.1-29.2,38.1-63c0-35.3-14.9-50.5-21.5-50.5c-7.1,0-8.5,5.4-11.9,12.5
			c0.4,0,0.8-0.1,1.2-0.1c1.6,0,16.8,2.4,16.8,35.4c0,36.7-24.1,57.1-33.2,57.1c-0.9,0-1.7-0.1-2.4-0.2
			C660.1,463.1,664.1,466.7,670.1,466.7z"/>
	</g>
	<g>
		<linearGradient id="SVGID_7_" gradientUnits="userSpaceOnUse" x1="569.8002" y1="459.8313" x2="626.8947" y2="459.8313">
			<stop  offset="0" style="stop-color:#984F24"/>
			<stop  offset="1" style="stop-color:#4F2511"/>
		</linearGradient>
		<path class="st8" d="M611.4,453.7c0-6.5,3.7-13.1,7.3-18c-18.9-13.7-45.4-20.3-45.4-20.3s3.8,4.9,3.8,13.5c0,3.9-1.1,7-2.7,9.4
			c8.3,4.8,18,12.6,18,23.2c0,8.6-10.3,19.1-24.6,19.3c-7.3,0.1-14.4,0.7-21.4-0.4c7,11.8,24.7,24,44.7,24
			c10.1,0,38.5-4.5,44.7-29.2C624.3,475.2,611.4,466,611.4,453.7z"/>
		<linearGradient id="SVGID_8_" gradientUnits="userSpaceOnUse" x1="554.1351" y1="449.2357" x2="628.9859" y2="501.5522">
			<stop  offset="0" style="stop-color:#945123"/>
			<stop  offset="7.606497e-02" style="stop-color:#985521"/>
			<stop  offset="0.1549" style="stop-color:#A5621A"/>
			<stop  offset="0.2346" style="stop-color:#B97610"/>
			<stop  offset="0.3" style="stop-color:#D08D04"/>
			<stop  offset="0.5443" style="stop-color:#F7B639"/>
			<stop  offset="0.645" style="stop-color:#E9A81D"/>
			<stop  offset="0.7432" style="stop-color:#DF9D08"/>
			<stop  offset="0.8079" style="stop-color:#DB9900"/>
			<stop  offset="0.8528" style="stop-color:#C17F0D"/>
			<stop  offset="0.9096" style="stop-color:#A76519"/>
			<stop  offset="0.9605" style="stop-color:#975521"/>
			<stop  offset="1" style="stop-color:#914F24"/>
		</linearGradient>
		<path class="st9" d="M564.2,446.4c-2.5,1.6-20.9,10.7-20.9,24.1c0,13.5,22,33.8,47.9,33.8c11.2,0,44.9-5.6,45.9-38
			c-5.5,14.5-25.7,23.3-41,23.3c-20,0-35.4-14-35.4-24c0-11.9,18.3-14.9,18.3-24.6c0-5.4-0.9-9.9-1.9-13.4c0,0.4,0,0.8,0,1.3
			C577.1,440.8,566.7,444.8,564.2,446.4z"/>
		<linearGradient id="SVGID_9_" gradientUnits="userSpaceOnUse" x1="575.4324" y1="414.7357" x2="570.4016" y2="454.053">
			<stop  offset="0" style="stop-color:#AF761F"/>
			<stop  offset="0.1963" style="stop-color:#B1781E"/>
			<stop  offset="0.267" style="stop-color:#B87F1A"/>
			<stop  offset="0.3021" style="stop-color:#BF8615"/>
			<stop  offset="0.3496" style="stop-color:#C88E0F"/>
			<stop  offset="0.4525" style="stop-color:#D39A06"/>
			<stop  offset="0.5975" style="stop-color:#DAA001"/>
			<stop  offset="1" style="stop-color:#DCA200"/>
		</linearGradient>
		<path class="st10" d="M568.9,454.3c11.8,0,22.4-11.8,22.4-26.2c0-1.7-0.3-4.4-0.7-7.1c-9.8-3.8-17.3-5.7-17.3-5.7
			s3.8,4.9,3.8,13.5c0,12-10.4,16-12.9,17.5c-1.3,0.8-6.6,3.5-11.6,7.8C562.4,452.1,564.4,454.3,568.9,454.3z"/>
	</g>
	<g>
		<linearGradient id="SVGID_10_" gradientUnits="userSpaceOnUse" x1="575.0966" y1="323.881" x2="635.3974" y2="323.881">
			<stop  offset="0" style="stop-color:#984F24"/>
			<stop  offset="1" style="stop-color:#4F2511"/>
		</linearGradient>
		<path class="st11" d="M605.4,310.1c-11.6,0-23.6,3.5-30.3,5.9c4.5,3.7,9.2,7.3,14.1,10.5c3.3-1.6,9.5-3.8,18.7-3.8
			c13.9,0,16.4,5.1,16.4,8.2c0,3-1.7,5.3-4.1,6.6c0,0,0,0,0,0c1.1,0.1,2.2,0.1,3.3,0.1c0.4,0,0.7,0,1.1,0c5.7-1.6,10.9-4.8,10.9-11
			C635.4,316.7,620.9,310.1,605.4,310.1z"/>
		<linearGradient id="SVGID_11_" gradientUnits="userSpaceOnUse" x1="577.3095" y1="285.315" x2="646.1099" y2="342.4376">
			<stop  offset="0" style="stop-color:#C7953F"/>
			<stop  offset="7.805882e-02" style="stop-color:#D1A14B"/>
			<stop  offset="0.2989" style="stop-color:#E8BF6A"/>
			<stop  offset="0.4876" style="stop-color:#F7D17C"/>
			<stop  offset="0.6207" style="stop-color:#FCD883"/>
			<stop  offset="0.6727" style="stop-color:#FBD680"/>
			<stop  offset="0.716" style="stop-color:#F6CE75"/>
			<stop  offset="0.7563" style="stop-color:#EFC264"/>
			<stop  offset="0.7944" style="stop-color:#E4B14C"/>
			<stop  offset="0.8177" style="stop-color:#DCA439"/>
			<stop  offset="0.8475" style="stop-color:#CE8C2C"/>
			<stop  offset="0.8789" style="stop-color:#C47B22"/>
			<stop  offset="0.9133" style="stop-color:#BE711D"/>
			<stop  offset="0.9557" style="stop-color:#BC6E1B"/>
		</linearGradient>
		<path class="st12" d="M651,320.3c0-9.7-11-17.1-26.1-21.3c-7-2-14.7-3.8-22.9-3.8c-13.3,0-27.2,3.5-40.4,9.8
			c4.5,3.5,9,7.4,13.5,11.1l0,0c6.7-2.4,18.7-5.9,30.3-5.9c15.4,0,30,6.6,30,16.5c0,6.1-5.2,9.4-10.9,11
			C640.9,337.3,651,329.1,651,320.3z"/>
	</g>
	<g>
		<linearGradient id="SVGID_12_" gradientUnits="userSpaceOnUse" x1="509.7256" y1="328.9174" x2="509.7256" y2="372.2963">
			<stop  offset="0" style="stop-color:#D08D04"/>
			<stop  offset="1" style="stop-color:#984F24"/>
		</linearGradient>
		<path class="st13" d="M495.2,357.7c0,10.9,9.1,14.2,13.9,14.2c5.8,0,10.6-2.4,15.1-5.1c-2.3,0.8-4.9,1.5-7.7,1.5
			c-9.7,0-16.1-7.4-16.1-15.4c0-13.8,18.5-21,18.5-21s-4.6,0.6-9.3,3.3C502.9,339.2,495.2,347.7,495.2,357.7z"/>
		<linearGradient id="SVGID_13_" gradientUnits="userSpaceOnUse" x1="509.0365" y1="392.0735" x2="515.6589" y2="443.6723">
			<stop  offset="0.2381" style="stop-color:#D08D04"/>
			<stop  offset="0.7685" style="stop-color:#DCA200"/>
			<stop  offset="0.8288" style="stop-color:#EFC415"/>
			<stop  offset="0.8768" style="stop-color:#FFE228"/>
			<stop  offset="0.881" style="stop-color:#FEE232"/>
			<stop  offset="0.8976" style="stop-color:#FCE258"/>
			<stop  offset="0.9151" style="stop-color:#FAE176"/>
			<stop  offset="0.9333" style="stop-color:#F8E18E"/>
			<stop  offset="0.9525" style="stop-color:#F7E19F"/>
			<stop  offset="0.9736" style="stop-color:#F6E1A9"/>
			<stop  offset="1" style="stop-color:#F6E1AC"/>
		</linearGradient>
		<path class="st14" d="M505.1,413.7c6.8,13.7,12.4,28.5,25,28.5c11.1,0,18.7-9,22.5-18.6c-3.2,4.8-9,10.9-16.2,10.9
			c-8.4,0-13.4-6.7-16.8-14.8c-1.8-4.2-3.6-7.7-4.3-9.7c-3.5-9.6-12.7-19.2-26.6-19.2c-11.3,0-18.6,5.5-18.6,5.5s3-2.1,9.3-2.1
			C491.7,394.3,500.5,404.5,505.1,413.7z"/>
		<linearGradient id="SVGID_14_" gradientUnits="userSpaceOnUse" x1="491.821" y1="386.8166" x2="554.5083" y2="386.8166">
			<stop  offset="0" style="stop-color:#984F24"/>
			<stop  offset="1" style="stop-color:#4F2511"/>
		</linearGradient>
		<path class="st15" d="M539.5,389.5c-5.6-1.6-11.7-1-16.4-1c-8.5,0-17.2-2.4-23.4-7.6c-3.4-2.8-6-6.3-7.8-10.2
			c3.8,9.6,12.7,24.2,28.9,24.2c4.9,0,7.9-0.4,13.3-0.4c13.7,0,17.1,2.5,20.6,8.3C552.2,395.8,546.2,391.5,539.5,389.5z"/>
		<linearGradient id="SVGID_15_" gradientUnits="userSpaceOnUse" x1="496.282" y1="413.2067" x2="554.6" y2="413.2067">
			<stop  offset="0" style="stop-color:#984F24"/>
			<stop  offset="1" style="stop-color:#4F2511"/>
		</linearGradient>
		<path class="st16" d="M544.1,421.9c-7.4,0-13.3-4-18.2-9.2c-3.2-3.4-6.2-8-9.3-10.8c-7-6.6-14.6-9.1-20.3-10
			c9.7,2.7,16.2,10.5,19,18.2c0.7,2,2.6,5.4,4.3,9.7c3.4,8.1,8.4,14.8,16.8,14.8c7.2,0,13-6.1,16.2-10.9c0.8-2.1,1.5-4.2,2-6.2
			C552.3,419.9,548.9,421.9,544.1,421.9z"/>
	</g>
</g>
</svg>
