<?xml version="1.0" encoding="utf-8"?>
<!-- Generator: Adobe Illustrator 23.0.3, SVG Export Plug-In . SVG Version: 6.00 Build 0)  -->
<svg version="1.1" id="图层_1" xmlns="http://www.w3.org/2000/svg" xmlns:xlink="http://www.w3.org/1999/xlink" x="0px" y="0px"
	 viewBox="0 0 800 800" style="enable-background:new 0 0 800 800;" xml:space="preserve">
<style type="text/css">
	.st0{fill:#804927;}
</style>
<g>
	<polygon class="st0" points="273.1,483.6 275.9,483.6 274.5,479.9 	"/>
	<path class="st0" d="M350.4,479c-0.8,0-1.5,0.3-2,0.9c-0.6,0.6-0.8,1.5-0.8,2.6c0,1.1,0.3,2,0.8,2.6c0.5,0.6,1.2,0.9,2,0.9
		s1.5-0.3,2-0.9c0.5-0.6,0.8-1.5,0.8-2.6c0-1.1-0.3-2-0.8-2.6C351.9,479.3,351.2,479,350.4,479z"/>
	<polygon class="st0" points="326.9,483.6 329.7,483.6 328.2,479.9 	"/>
	<path class="st0" d="M204.2,479c-0.8,0-1.5,0.3-2,0.9c-0.6,0.6-0.8,1.5-0.8,2.6c0,1.1,0.3,2,0.8,2.6c0.5,0.6,1.2,0.9,2,0.9
		c0.8,0,1.5-0.3,2-0.9c0.5-0.6,0.8-1.5,0.8-2.6c0-1.1-0.3-2-0.8-2.6C205.7,479.3,205,479,204.2,479z"/>
	<path class="st0" d="M303.9,479c-0.8,0-1.5,0.3-2,0.9c-0.5,0.6-0.8,1.5-0.8,2.6c0,1.1,0.3,2,0.8,2.6c0.5,0.6,1.2,0.9,2,0.9
		s1.5-0.3,2-0.9c0.5-0.6,0.8-1.5,0.8-2.6c0-1.1-0.3-2-0.8-2.6C305.4,479.3,304.7,479,303.9,479z"/>
	<path class="st0" d="M234.9,481.5c0.3,0,0.6-0.1,0.8-0.3c0.2-0.2,0.3-0.4,0.3-0.8c0-0.3-0.1-0.6-0.3-0.8c-0.2-0.2-0.4-0.3-0.8-0.3
		c-0.2,0-0.8,0-1.7,0h-1.2v2.3h1.3C234.3,481.5,234.7,481.5,234.9,481.5z"/>
	<polygon class="st0" points="242.8,483.6 245.6,483.6 244.1,479.9 	"/>
	<path class="st0" d="M215.1,479c-0.8,0-1.5,0.3-2,0.9c-0.5,0.6-0.8,1.5-0.8,2.6c0,1.1,0.3,2,0.8,2.6c0.5,0.6,1.2,0.9,2,0.9
		c0.8,0,1.5-0.3,2-0.9c0.5-0.6,0.8-1.5,0.8-2.6c0-1.1-0.3-2-0.8-2.6C216.6,479.3,215.9,479,215.1,479z"/>
	<path class="st0" d="M235.6,483.3c-0.3-0.1-0.9-0.1-1.8-0.1l-1.6,0v2.7h1.9c0.7,0,1.2,0,1.4-0.1c0.3,0,0.5-0.2,0.7-0.4
		c0.2-0.2,0.3-0.5,0.3-0.8c0-0.3-0.1-0.6-0.2-0.8C236.1,483.5,235.9,483.4,235.6,483.3z"/>
	<rect x="145.7" y="441.9" class="st0" width="7.4" height="18.1"/>
	<path class="st0" d="M677.8,240.1H78.7c-15.8,0-28.7,12.8-28.7,28.7v262.6c0,15.8,12.8,28.7,28.7,28.7h642.7
		c15.8,0,28.7-12.8,28.7-28.7V312.2C750,272.4,717.7,240.1,677.8,240.1z M364.5,451.6v2.4H345l-6.2,12.7H356l-5-10.2h7.2l4.9,10.2
		c-0.7,1-0.9,1.4-1.6,2.5h-2.7h-1.8h-19.6h-2.9h-4.4l7.4-15.1h-7.7v-2.4H364.5z M331.3,448.2v-2.4h31.7v2.4H331.3z M318,414.6
		l-4.3-11h-36.2l7.7-20.4h20.4l-10.3-26.1l11.2-29.2l34,86.7H318z M280.2,451.3l3.2,18.3h-4.9l-3.2-18.3H280.2z M275.7,449.7
		l1.6-7.6h4.8l-1.6,7.6H275.7z M284,327.5h17.5l-29.3,76.2l-4.4,11.3h-22.6l32-83.5C278.2,328.7,280.3,327.5,284,327.5z
		 M263.8,451.3h4.9l-3.2,18.3h-4.8L263.8,451.3z M261.5,442.1h4.8l1.6,7.6h-4.8L261.5,442.1z M260.9,438.8h-3.7v9.4h2.9v2.4h-2.9
		v15.3l2.8-0.2l0.2,2.4l-12.4,1.1l-0.2-2.4l3.9-0.3v-15.8h-2.9v-2.4h2.9v-9.4h-3.7v-2.5h13.2V438.8z M199.6,327.5H264v0.5l-6.5,17
		c-0.8,2.2-2.8,3.7-5.2,3.7h-31.6v18.8H249l-6.5,17.2c-0.8,2.2-2.8,3.7-5.2,3.7h-16.3v26.4h-21.5V327.5z M167.5,327.5
		c15.5,0,18.3,0,18.3,0v15.1c0,3.2-2.5,5.7-5.7,5.7h-11.5c-7.9,0-24.5,5.1-24.5,23.3c0,18,15.3,23.7,23.5,23.7s17.8,0,17.8,0v13.9
		c0,3.2-2.5,5.7-5.7,5.7h-16.7c-13.1,0-39.5-10.7-39.5-43.3C123.7,338.9,151.8,327.6,167.5,327.5z M193,442.7h-7v5h7v2.4h-7v12.1
		h7.1v2.4h-19.4v-2.4h6.4v-12.1h-6.5v-2.4h6.5v-5h-6.5v-2.4H193V442.7z M193.3,460.7h-4.8l-2.2-8.3h4.8L193.3,460.7z M127.4,485.1
		c0.4,0.6,1.1,0.8,1.8,0.8c0.5,0,1-0.2,1.4-0.5c0.3-0.3,0.6-0.8,0.8-1.6l2,0.6c-0.3,1.1-0.8,1.9-1.5,2.4c-0.7,0.5-1.6,0.8-2.7,0.8
		c-1.3,0-2.4-0.4-3.3-1.3s-1.3-2.1-1.3-3.8c0-1.7,0.4-2.9,1.3-3.9c0.9-0.9,2-1.4,3.4-1.4c1.2,0,2.2,0.4,3,1.1c0.4,0.4,0.8,1.1,1,1.9
		l-2,0.5c-0.1-0.5-0.4-0.9-0.8-1.2c-0.4-0.3-0.8-0.4-1.3-0.4c-0.8,0-1.3,0.3-1.8,0.8c-0.4,0.5-0.7,1.4-0.7,2.6
		C126.7,483.6,126.9,484.5,127.4,485.1z M143.1,487.5h-2v-4.4h-4v4.4h-2v-10h2v3.9h4v-3.9h2V487.5z M147.1,487.5h-2v-10h2V487.5z
		 M157,487.5h-2l-4-6.6v6.6h-1.9v-10h2l4.1,6.7v-6.7h1.9V487.5z M158.9,460.4c0,1.2-0.9,2.1-2.1,2.1h-3.1H153h-7.3v7.2h-6.2v-7.2h-8
		h-5.8v-2.4v-18.4l-1.1-1.8c-0.1-0.1-0.1-0.3-0.1-0.4h1.2h5.9v20.5h8v-18.1h-7.2v-2.4h2h5.2v-4.9h6.1v4.9h7.4h5.7v0h0.1V460.4z
		 M166.8,487.6h-7.6v0v-10h7.4v1.7h-5.4v2.2h5v1.7h-5v2.7h5.6V487.6z M175.7,486.3c-0.3,0.5-0.8,0.9-1.3,1.1
		c-0.6,0.2-1.3,0.4-2.2,0.4c-1.2,0-2.2-0.3-2.9-0.9c-0.7-0.7-1-1.6-1.2-2.7l2-0.2c0.1,0.7,0.3,1.1,0.7,1.5c0.4,0.3,0.8,0.4,1.5,0.4
		c0.7,0,1.1-0.1,1.5-0.4s0.5-0.6,0.5-1c0-0.2-0.1-0.4-0.2-0.6c-0.1-0.1-0.4-0.3-0.7-0.4c-0.2-0.1-0.8-0.2-1.6-0.4
		c-1.1-0.3-1.9-0.6-2.3-1c-0.6-0.6-0.9-1.2-0.9-2c0-0.5,0.1-1,0.4-1.5c0.3-0.4,0.7-0.8,1.2-1c0.5-0.2,1.2-0.3,2-0.3
		c1.2,0,2.2,0.3,2.8,0.8c0.6,0.6,1,1.3,1,2.2l-2,0.1c-0.1-0.5-0.3-0.9-0.6-1.1c-0.3-0.2-0.7-0.3-1.3-0.3c-0.6,0-1.1,0.1-1.4,0.4
		c-0.2,0.1-0.3,0.4-0.3,0.6c0,0.2,0.1,0.4,0.3,0.6c0.3,0.2,0.9,0.4,1.9,0.7c1,0.2,1.7,0.4,2.2,0.7c0.4,0.3,0.8,0.6,1.1,1
		c0.3,0.4,0.4,0.9,0.4,1.6C176.2,485.2,176,485.8,175.7,486.3z M185.5,487.6h-7.6v0v-10h7.4v1.7h-5.4v2.2h5v1.7h-5v2.7h5.6V487.6z
		 M198.1,479.2h-4.8v2.4h4.2v1.7h-4.2v4.3h-2v0v-10h6.9V479.2z M195.1,469.1h-0.8h-21.7h-1.8h-4v-31.8l-1.1-1.7
		c-0.1-0.1-0.1-0.2-0.1-0.4h1.2h5.8v31.5h21.7v-29.1H174v-2.4h6.1h14.2h2.7v0h3.1V467c0,1.2-0.9,2.1-2.1,2.1H195.1z M207.6,486.3
		c-0.9,0.9-2,1.3-3.5,1.3c-1.5,0-2.7-0.4-3.6-1.3c-0.8-0.9-1.3-2.2-1.3-3.8c0-1,0.1-1.9,0.4-2.6c0.2-0.5,0.5-1,0.9-1.3
		c0.4-0.4,0.8-0.7,1.3-0.9c0.7-0.3,1.3-0.4,2.1-0.4c1.5,0,2.7,0.4,3.6,1.3c0.9,0.9,1.3,2.2,1.3,3.8
		C208.9,484.2,208.5,485.4,207.6,486.3z M207,469.1l3.4-18.6h6.5l-2.9,16h7.2v-17.9h-6.4h-7.3v-11.5l-1.1-1.7
		c-0.1-0.1-0.1-0.2-0.1-0.4h1.2h3.8h4V446h17.9v-7.9H217v-3.2h16.4h7.9v11.6c0,1.2-0.9,2.1-2.1,2.1h-5.8h-5.9v4.7H241v2.6h-13.5
		v10.6l14.7-0.1v2.6h-28.5h-3.9H207z M218.6,486.3c-0.9,0.9-2,1.3-3.5,1.3c-1.5,0-2.7-0.4-3.6-1.3c-0.8-0.9-1.3-2.2-1.3-3.8
		c0-1,0.1-1.9,0.4-2.6c0.2-0.5,0.5-1,0.9-1.3c0.4-0.4,0.8-0.7,1.3-0.9c0.7-0.3,1.3-0.4,2.1-0.4c1.5,0,2.7,0.4,3.6,1.3
		c0.9,0.9,1.3,2.2,1.3,3.8C219.9,484.2,219.4,485.4,218.6,486.3z M228.8,479.2h-2.9v8.3h-2.1v-8.3h-3v-1.7h8V479.2z M238.2,485.9
		c-0.2,0.4-0.5,0.8-0.9,1c-0.4,0.3-0.8,0.4-1.3,0.5c-0.3,0-1.1,0.1-2.5,0.1h-3.4v-10h4c0.8,0,1.4,0,1.8,0.1c0.4,0.1,0.8,0.2,1.1,0.4
		c0.3,0.2,0.6,0.5,0.8,0.8c0.2,0.3,0.3,0.8,0.3,1.2c0,0.4-0.1,0.9-0.4,1.3c-0.3,0.4-0.6,0.7-1,0.9c0.6,0.2,1.1,0.5,1.4,0.9
		c0.3,0.4,0.5,0.9,0.5,1.5C238.5,485,238.4,485.5,238.2,485.9z M247,487.5l-0.9-2.3h-4l-0.8,2.3h-2.1l3.9-10h2.1l4,10H247z
		 M257.4,487.5h-7.1v-10h2v8.3h5V487.5z M266,487.5H259v-10h2v8.3h5V487.5z M269.1,469.5h-2.6v-2h1.4c0.7,0,1.2-0.5,1.2-1.2v-25.9
		h-7.7V438h7.8v-1.2l-1-1.6c-0.1-0.1-0.1-0.2-0.1-0.3h1.1h2.8h3v3.1h2.7v-1.9h4.1v1.8h0.9v2.5h-7.7v27.1c0,1.2-0.9,2.1-2.1,2.1h-3.6
		H269.1z M277.4,487.5l-0.9-2.3h-4l-0.8,2.3h-2.2l3.9-10h2.1l4,10H277.4z M287.9,486.3c-0.3,0.5-0.8,0.9-1.3,1.1
		c-0.6,0.2-1.3,0.4-2.2,0.4c-1.2,0-2.2-0.3-2.9-0.9c-0.7-0.7-1.1-1.6-1.3-2.7l2-0.2c0.1,0.7,0.3,1.1,0.7,1.5s0.8,0.4,1.5,0.4
		c0.7,0,1.1-0.1,1.5-0.4s0.5-0.6,0.5-1c0-0.2-0.1-0.4-0.2-0.6c-0.1-0.1-0.4-0.3-0.7-0.4c-0.2-0.1-0.8-0.2-1.6-0.4
		c-1.1-0.3-1.9-0.6-2.3-1c-0.6-0.6-0.9-1.2-0.9-2c0-0.5,0.1-1,0.4-1.5c0.3-0.4,0.7-0.8,1.2-1c0.5-0.2,1.2-0.3,2-0.3
		c1.2,0,2.2,0.3,2.8,0.8c0.7,0.6,1,1.3,1,2.2l-2,0.1c-0.1-0.5-0.3-0.9-0.6-1.1c-0.3-0.2-0.7-0.3-1.3-0.3c-0.6,0-1.1,0.1-1.3,0.4
		c-0.2,0.1-0.3,0.4-0.3,0.6c0,0.2,0.1,0.4,0.3,0.6c0.3,0.2,0.9,0.4,1.9,0.7c1,0.2,1.7,0.4,2.2,0.7c0.4,0.3,0.8,0.6,1.1,1
		c0.3,0.4,0.4,0.9,0.4,1.6C288.4,485.2,288.3,485.8,287.9,486.3z M288.8,444.7h2.6v-10h5.8v10h2.6v2.4h-2.6v22.4h-5.8v-22.4h-2.6
		V444.7z M301.2,443.3h3.8l-1.8,25.9h-3.9L301.2,443.3z M297.2,486.3c-0.3,0.5-0.8,0.9-1.3,1.1c-0.6,0.3-1.3,0.4-2.2,0.4
		c-1.2,0-2.2-0.3-2.9-0.9c-0.7-0.7-1.1-1.6-1.2-2.7l2-0.2c0.1,0.7,0.3,1.1,0.7,1.5s0.8,0.4,1.5,0.4s1.1-0.1,1.5-0.4
		c0.3-0.3,0.5-0.6,0.5-1c0-0.2-0.1-0.4-0.2-0.6c-0.1-0.1-0.4-0.3-0.7-0.4c-0.2-0.1-0.8-0.2-1.6-0.4c-1.1-0.3-1.9-0.6-2.3-1
		c-0.6-0.6-0.9-1.2-0.9-2c0-0.5,0.1-1,0.4-1.5c0.3-0.4,0.7-0.8,1.2-1c0.5-0.2,1.2-0.3,2-0.3c1.2,0,2.2,0.3,2.8,0.8
		c0.7,0.6,1,1.3,1,2.2l-2,0.1c-0.1-0.5-0.3-0.9-0.6-1.1c-0.3-0.2-0.7-0.3-1.3-0.3c-0.6,0-1.1,0.1-1.4,0.4c-0.2,0.1-0.3,0.4-0.3,0.6
		c0,0.2,0.1,0.4,0.3,0.6c0.3,0.2,0.9,0.4,1.9,0.7c1,0.2,1.7,0.4,2.2,0.7c0.4,0.3,0.8,0.6,1.1,1c0.3,0.4,0.4,0.9,0.4,1.6
		C297.7,485.2,297.6,485.8,297.2,486.3z M307.4,486.3c-0.9,0.9-2,1.3-3.5,1.3c-1.5,0-2.7-0.4-3.6-1.3c-0.8-0.9-1.3-2.2-1.3-3.8
		c0-1,0.1-1.9,0.4-2.6c0.2-0.5,0.5-1,0.9-1.3c0.4-0.4,0.8-0.7,1.3-0.9c0.7-0.3,1.3-0.4,2.1-0.4c1.5,0,2.7,0.4,3.6,1.3
		c0.9,0.9,1.3,2.2,1.3,3.8C308.7,484.2,308.2,485.4,307.4,486.3z M312.8,485.1c0.4,0.6,1.1,0.8,1.8,0.8c0.5,0,1-0.2,1.4-0.5
		c0.3-0.3,0.6-0.8,0.8-1.6l2,0.6c-0.3,1.1-0.8,1.9-1.5,2.4c-0.7,0.5-1.6,0.8-2.7,0.8c-1.3,0-2.4-0.4-3.3-1.3s-1.3-2.1-1.3-3.8
		c0-1.7,0.4-2.9,1.3-3.9c0.9-0.9,2-1.4,3.4-1.4c1.2,0,2.2,0.4,3,1.1c0.4,0.4,0.8,1.1,1,1.9l-2,0.5c-0.1-0.5-0.4-0.9-0.8-1.2
		c-0.4-0.3-0.8-0.4-1.3-0.4c-0.8,0-1.3,0.3-1.8,0.8c-0.4,0.5-0.7,1.4-0.7,2.6C312.1,483.6,312.3,484.5,312.8,485.1z M319,467.6
		c0,1.2-0.9,2.1-2.1,2.1h-3.5h-0.3H311v-2.2h0.4c1,0,1.8-0.8,1.8-1.8v-24.4h-1.7l-1.5,28.3h-5.2l1.5-28.3h-5.6v-2.4h5.8l0.2-4.1h5.2
		l-0.2,4.1h1.5l5.5,0h0.4V467.6z M322.4,487.5h-2v-10h2V487.5z M323,469.2h-2.8v-25.9h2.8V469.2z M331.2,487.5l-0.9-2.3h-4l-0.8,2.3
		h-2.1l3.9-10h2.1l4,10H331.2z M340.7,479.2h-2.9v8.3h-2v-8.3h-3v-1.7h8V479.2z M343.9,487.5h-2v-10h2V487.5z M353.9,486.3
		c-0.9,0.9-2,1.3-3.5,1.3c-1.5,0-2.7-0.4-3.6-1.3c-0.9-0.9-1.3-2.2-1.3-3.8c0-1,0.1-1.9,0.4-2.6c0.2-0.5,0.5-1,0.9-1.3
		c0.4-0.4,0.8-0.7,1.3-0.9c0.7-0.3,1.3-0.4,2.1-0.4c1.5,0,2.7,0.4,3.6,1.3c0.9,0.9,1.3,2.2,1.3,3.8
		C355.2,484.2,354.7,485.4,353.9,486.3z M364.7,487.5h-2l-4-6.6v6.6h-1.9v-10h2l4.1,6.7v-6.7h1.9V487.5z M357.4,443.4l-4.9-6h-10.1
		l-5,6h-7.4l5-6.2l-1.3-2.2h3.2h7.4h6.2h5.9h1.5l6.9,8.4H357.4z M347.6,348.2c-10,0-18-8.1-18-18c0-10,8.1-18,18-18s18,8.1,18,18
		C365.6,340.1,357.6,348.2,347.6,348.2z M738.7,529c0,10.9-8.8,19.7-19.7,19.7H503.3c-34.2,0-61.9-27.7-61.9-61.9V271
		c0-10.9,8.8-19.7,19.7-19.7h215.7c34.2,0,61.9,27.7,61.9,61.9V529z"/>
	<path class="st0" d="M347.6,313.7c-9.1,0-16.5,7.4-16.5,16.5s7.4,16.5,16.5,16.5s16.5-7.4,16.5-16.5S356.7,313.7,347.6,313.7z
		 M344.1,314.9l7.2,0.2l1.3,1.2l-5,1.9l-5.2-1.9L344.1,314.9z M332,329.2l2.2-6.8l1.9-1.1l0.1,5.5l-3.5,4.1L332,329.2z M341.9,344.4
		l-5.9-4l-0.5-2.1l5.3,1.5l2.9,4.5L341.9,344.4z M343.8,336.8l-3-8.3l7.2-5.8l7.2,6.5l-3,7.7H343.8z M359.5,340.4l-5.9,4l-1.8-0.2
		l2.9-4.5l5.3-1.5L359.5,340.4z M359.5,321.2l1.9,1.1l2.2,6.8l-0.8,1.7l-3.5-4.1L359.5,321.2z"/>
</g>
<g>
	<path class="st0" d="M621.5,399.8c5.3-5.5,8.2-13.3,8.2-21.8c0-23.2-22.8-31.6-38.2-31.6c-13.6,0-24.6,2.3-33.5,4.2
		c-6.2,1.3-11.5,2.4-16.1,2.4c-2.7,0-9.5,0-13.1-5.1c1.1,3.9,3.3,7.9,7.8,10.8c1.8-0.6,3.8-0.9,5.8-0.9c4.8,0,9.2,1.6,13.1,4.8h0
		c13.4-0.6,25.8-5.8,37-5.8c10.6,0,26.2,9.2,26.2,25.1c0,7-4.8,21.4-20.5,26c1.1,0.1,2.2,0.2,3.4,0.2
		C609.2,408.1,616.3,405.1,621.5,399.8z"/>
	<path class="st0" d="M470.1,396.4c0,0,7-0.6,15,6.7c5.2,4.8,10.6,18,12.6,26.7c10.6,44.7,47.6,80.8,104.3,80.8
		c59.7,0,108.1-48.2,108.1-107.7c0-59.5-48.4-107.7-108.1-107.7c8.2,0,15.9,1.8,22.9,3.8c15.1,4.2,26.1,11.7,26.1,21.3
		c0,9-10.5,17.3-27.6,17.3c-42.8,0-61.7-48.3-97.9-48.3c-30.7,0-47.4,22.2-47.4,22.2c2.2-1.6,16.5-11.4,29.8-11.4
		c11.7,0,23.9,7.3,23.9,21.1c0,7.7-3.8,13-3.8,18.2c0,10.3,7,12.3,14,12.3c10.9,0,26.4-6.7,49.6-6.7c16.8,0,39.5,9.3,39.5,32.9
		c0,18.6-13.1,31.5-29.5,31.5c-1.8,0-3.5-0.1-5.2-0.4c0,0,0,0-0.1,0c-14.8-2.3-25.4-14-28.4-23.1c-6.1-18.2-14.8-26.8-25.5-26.8
		c-11.8,0-19.9,12.8-33.2,12.8c-4.8,0-13.9-3.3-13.9-14.2c0-10,7.7-18.5,14.5-22.5c4.7-2.8,9.3-3.3,9.3-3.3
		c-8.6-2.8-29.9,9-29.9,27.1c0,7.9,3.9,16.4,10.6,21.9c6.2,5.2,15,7.6,23.4,7.6c4.7,0,10.8-0.6,16.4,1c8.6,2.5,16.1,8.9,16.1,20.2
		c0,12-8.7,32.5-25.5,32.5c-12.7,0-18.2-14.8-25-28.5c-4.6-9.2-13.4-19.4-25.8-19.4C473,394.3,470.1,396.4,470.1,396.4z
		 M671.5,371.5c6.3-9.8,6.3-18.4,15.2-18.4c6.6,0,21.5,15.2,21.5,50.5c0,33.8-24.6,63-38.1,63c-17.6,0-18.3-30.4-21.6-42.1
		c-2.9-10.3-9.3-17.7-19.4-25.7C629.2,398.9,653.1,400.1,671.5,371.5z M556.5,451.1c0.5-0.4,1.1-0.7,1.6-1.1
		c-0.3,0.2-0.5,0.3-0.8,0.5c3.2-2.2,6-3.6,6.8-4.2c1.7-1.1,6.9-3.2,10.2-8.1c0,0,0,0,0,0c0.1-0.1,0.1-0.2,0.2-0.3c0,0,0,0,0-0.1
		c0,0,0-0.1,0.1-0.1c0,0,0,0,0,0.1c1.5-2.3,2.5-5.3,2.5-9c0-0.4,0-0.8,0-1.3c0,0.1,0,0.3,0,0.4c0-0.1,0-0.3,0-0.4c0,0,0,0,0,0
		c-0.3-7.8-3.8-12.2-3.8-12.2s63.9,16,63.9,49.4c0,33.8-34.7,39.6-46,39.6c-16.3,0-31.1-8.1-39.8-17.5c-0.4-0.5-0.9-1-1.3-1.5
		c-4.3-5-6.8-10.3-6.8-14.9C543.3,462.1,550.5,455.3,556.5,451.1z"/>
	<path class="st0" d="M618.8,496.9c-0.6,0.4-1.2,0.7-1.9,1C617.6,497.6,618.2,497.3,618.8,496.9z"/>
	<path class="st0" d="M627.1,490.7c-0.6,0.6-1.2,1.2-1.8,1.7C625.9,491.9,626.5,491.3,627.1,490.7z"/>
	<path class="st0" d="M631,485.9c-0.9,1.3-1.8,2.5-2.8,3.6C629.2,488.4,630.2,487.2,631,485.9z"/>
	<path class="st0" d="M632.3,483.9c-0.4,0.7-0.8,1.3-1.2,2C631.5,485.3,631.9,484.6,632.3,483.9z"/>
	<path class="st0" d="M635.9,475.1C635.9,475.1,635.9,475.1,635.9,475.1c-0.5,1.8-1.1,3.5-1.7,5.2
		C634.8,478.6,635.4,476.9,635.9,475.1z"/>
	<path class="st0" d="M649.6,320.3c0-4.2-2.3-8.1-6.9-11.6c-4.3-3.4-10.6-6.3-18.2-8.4c-6.6-1.8-14.4-3.7-22.6-3.7
		c-12.1,0-25.2,3-37.9,8.7c2.3,1.9,4.6,3.8,6.9,5.6c1.4,1.2,2.9,2.4,4.4,3.6c6.5-2.3,18.5-5.7,30.1-5.7c15.4,0,31.3,6.7,31.3,17.8
		c0,3.5-1.5,6.5-4.5,8.8c4.2-0.9,7.9-2.4,10.9-4.4C647.3,328.1,649.6,324.3,649.6,320.3z"/>
	<path class="st0" d="M512.5,335.3c-0.7,0.3-1.4,0.7-2.2,1.1c-6.9,4-13.8,12.2-13.8,21.3c0,4.4,1.6,7.8,4.6,10.1
		c2.7,2,5.8,2.7,7.9,2.7c3.6,0,6.8-1,9.8-2.4c-0.8,0.1-1.6,0.2-2.4,0.2c-9.7,0-16.1-7.4-16.1-15.4
		C500.5,344.6,507.2,338.7,512.5,335.3z"/>
	<path class="st0" d="M585.5,446.5C585.5,446.5,585.5,446.5,585.5,446.5c4,4.1,6.9,9.1,6.9,14.9c0,8-8.9,17.6-21.5,19.1
		c9.4,7.5,23.8,10.1,37.7,6.7c9.2-2.2,16.9-6.6,22.3-12.6c-10-2.1-19.5-10.3-19.5-20.9c0-6,3.1-12.1,6.5-16.8
		c-3.6-2.6-7.8-5.1-12.4-7.6c-4.7-2.5-9.4-4.6-13.8-6.3C592.2,427.5,592.8,438.4,585.5,446.5z"/>
	<path class="st0" d="M558.2,491.3c0.5,0.3,1,0.6,1.5,1c6.1,4.2,15.4,10.6,30.5,10.6c5.9,0,12.2-1,18.8-3
		c11.6-3.4,19.6-10.1,23.9-19.9c1.5-3.4,2.2-6.7,2.6-9.1c-5.4,8.6-14.8,14.9-26.5,17.7c-4.1,1-8.2,1.5-12.3,1.5
		c-10.3,0-20.1-3.1-27.1-8.9c-6.6-5.5-9.8-11-9.5-16.3c0.3-5,3.8-8.5,5.8-10.2c-0.5-0.1-1.1-0.2-1.5-0.2l-0.4-0.1
		c-3.4-0.6-6.9-0.4-9.5,0.1c-0.3,0.2-0.6,0.5-0.9,0.7l0,0l0,0c-5.9,4.7-8.8,10-8.6,15.7C545.2,480.2,553.7,488.3,558.2,491.3z"/>
	<path class="st0" d="M564.1,453l0.4,0.1c4.3,0.7,11.4,2,19.9-7.5c7.3-8,6.2-19.5,5.6-23.2c-6-2.4-11.2-4-14.3-4.9
		c3.2,7,3.6,13.4,1.1,18.9c-2.4,5.2-6.8,8.2-9.2,9.6c-3.6,2-7.6,4.3-11.2,6.9C558.9,452.6,561.6,452.6,564.1,453z"/>
	<path class="st0" d="M543.3,392.4c-4.6-2.4-9.1-2.7-12.9-2.7c-0.9,0-1.7,0-2.5,0c-0.8,0-1.5,0-2.2,0c-0.2,0-0.3,0-0.5,0h-0.7
		c-12.4,0-21.8-3.5-28.3-10.2c4.9,7.8,12.8,15.4,24.4,15.4c4.9,0,7.9-0.4,13.3-0.4c8.6,0,13.2,1,16.2,3.2
		C548.5,395.8,546.3,394,543.3,392.4z"/>
	<path class="st0" d="M525.9,412.7c-3.2-3.4-6.2-8-9.3-10.8c-5.2-4.9-10.7-7.5-15.5-8.9c7.4,3.4,12.1,9.5,16.5,20.5
		c5.2,12.9,9.5,18.5,15.4,19.9c6.1,1.5,12.1-1.2,17.3-7.7c0.6-1.4,1.2-2.9,1.8-4.5c0.3-0.7,0.5-1.5,0.7-2.2c-2.2,1.7-5,2.8-8.7,2.8
		C536.7,421.9,530.8,417.9,525.9,412.7z"/>
	<path class="st0" d="M479.5,392.9c3.4,0,6.7,0.8,9.9,2.3c4.9,2.3,11.8,7.3,17,17.9c0.1,0.3,0.4,0.8,0.7,1.4
		c1.9,3.9,7.5,15.7,10.2,18.7c0.2,0.2,0.4,0.4,0.6,0.7c3,3.4,5.8,6.6,11,6.9c0.4,0,0.8,0,1.2,0c4.5,0,11.8-1.6,17.7-10.4
		c-3.6,3.1-7.4,4.7-11.4,4.7c-1.2,0-2.4-0.1-3.6-0.4c-6.3-1.5-10.9-7.3-16.3-20.8c-5.1-12.7-10.6-18.5-20.2-21.4
		C490,390.7,483.4,391.8,479.5,392.9z"/>
	<path class="st0" d="M692.4,387.5c3.1,18.8,0,45.2-17.9,62.8c-5.6,5.5-10.7,8.4-15.2,8.7c2.6,3.9,6,6.4,10.7,6.4
		c6.3,0,15.6-7.3,23-18.3c5.1-7.6,13.8-23.2,13.8-43.4c0-19.2-4.4-31.1-8.1-37.8c-4.3-7.8-9.3-11.3-12.1-11.3c-5.1,0-6.7,3-9.5,9.1
		c-0.2,0.4-0.4,0.9-0.6,1.4C678.3,365.3,689.2,367.7,692.4,387.5z"/>
	<path class="st0" d="M649.8,424.2c0.7,2.5,1.3,5.8,2,9.6c1.4,7.8,3,17.3,6.8,23.8c4.3,0.1,9.4-2.8,15-8.3
		c17.5-17.2,20.5-43.1,17.5-61.6c-3.3-20-14.8-21.4-14.9-21.4c-0.1,0-0.2,0-0.2-0.1c-0.9,1.9-1.9,3.8-3.2,5.9
		c3.1,4.2,7.2,11.6,7.2,21.7c0,15.4-7.3,25.4-14.5,25.4c-9.2,0-6.3-10-9.3-19c-0.9-2.7-2.4-5.2-3.9-7.2c-2,1.2-4.1,2.3-6.2,3.3
		c-5.5,2.5-10.3,3.4-13.3,3.7C642.3,408.1,647.3,415.3,649.8,424.2z"/>
	<path class="st0" d="M529.7,327.1c0.4-1.8,0.8-3.8,0.8-5.9c0-7.6-3.8-12.2-7-14.7c-4.1-3.2-9.7-5.1-15.5-5.1
		c-5.7,0-11.6,1.9-16.6,4.1c3.3-0.9,7-1.6,11-1.6C519.9,303.9,527.3,316.5,529.7,327.1z"/>
	<path class="st0" d="M570.8,389.4c4,7.4,12.6,15.7,24.2,18.1c5.5-1.5,12.7-4.5,16.8-10.5c7.5-10.9,7.1-22-0.9-30.4
		c-5.4-5.6-11.8-8.3-19.7-8.4h-0.1c-2.6,0-6.4,0.6-10.5,1.4c4.6,2.8,9.2,7.4,9.2,14.3C589.9,385,583,389.2,570.8,389.4z"/>
	<path class="st0" d="M622.7,336.3c2,0,4-0.1,6.1-0.3c3.8-1.9,6.6-4.8,6.6-9.3c0-9.9-14.5-16.5-30-16.5c-10.8,0-22,3.1-28.9,5.4
		c4.2,3.3,9.3,7.3,14,10.3c3.5-1.5,9.3-3.2,17.2-3.2c13.9,0,16.4,5.1,16.4,8.2c0,2.2-0.9,4-2.4,5.4
		C622.1,336.3,622.4,336.3,622.7,336.3z"/>
</g>
</svg>
