<?xml version="1.0" encoding="utf-8"?>
<!-- Generator: Adobe Illustrator 22.1.0, SVG Export Plug-In . SVG Version: 6.00 Build 0)  -->
<svg version="1.1" id="图层_1" xmlns="http://www.w3.org/2000/svg" xmlns:xlink="http://www.w3.org/1999/xlink" x="0px" y="0px"
	 viewBox="0 0 800 800" style="enable-background:new 0 0 800 800;" xml:space="preserve">
<style type="text/css">
	.st0{fill:#155097;}
	.st1{fill:#D76024;}
	.st2{fill:#FFFFFF;}
	.st3{fill:#1D2088;}
	.st4{fill:#E60012;}
</style>
<g>
	<g>
		<g>
			<polygon points="99.4,557.4 226.8,583.9 174.6,508.9 			"/>
			<polygon points="700.6,557.4 573.2,583.9 625.4,508.9 			"/>
		</g>
		<g>
			<g>
				<path class="st0" d="M698.9,170.3c0,0-81.2,5.9-117.8-19.8c-36.6-25.7-42.9-52.8-42.9-97H400H261.7c0,44.2-6.3,71.3-42.9,97
					s-117.8,19.8-117.8,19.8c-4.9,74.2-10.9,202.9,71.3,360.3S400,746.5,400,746.5s145.5-58.4,227.7-215.8S703.9,244.6,698.9,170.3z
					"/>
				<path class="st1" d="M538.6,123.5c-8.9-16.4-12.2-34.9-13-57.1H400H274.4c-0.8,22.2-4.1,40.7-13,57.1v508.5
					c19.1,19.8,40.1,38.1,62.5,54.7c35.3,26,64.9,40.6,76.1,45.7c11.2-5.1,40.8-19.7,76.1-45.7c22.4-16.5,43.4-34.9,62.5-54.7V123.5
					z"/>
				<path class="st2" d="M519,73.3c1.3,20.1,4.8,35.4,11.1,48.9c8,17,20.6,31.2,39.6,44.5c28.2,19.8,74.8,24,108.9,24
					c0.6,0,1.2,0,1.7,0c1.9,34.8,2.6,76.6-4,126c-4.3,32.2-11.4,64.5-21.1,95.9c-11.3,36.5-26.5,73.2-45.1,108.9
					c-17.9,34.2-40.4,66.4-66.9,95.5c-21.3,23.4-45.3,45-71.2,64.1c-32.1,23.7-59.4,37.7-72,43.7c-12.6-5.9-39.9-20-72-43.7
					c-25.9-19.1-49.9-40.7-71.2-64.1c-26.6-29.2-49.1-61.3-66.9-95.5c-18.7-35.7-33.8-72.4-45.1-108.9
					c-9.7-31.4-16.8-63.7-21.1-95.9c-6.6-49.4-5.9-91.2-4-126c0.6,0,1.2,0,1.7,0c34.1,0,80.6-4.2,108.9-24
					c19-13.4,31.6-27.5,39.6-44.5c6.4-13.5,9.9-28.8,11.1-48.9h119H519 M525.6,66.4H400H274.4c-1.5,40.6-11.3,68.8-48.1,94.7
					c-14.8,10.4-44.9,22.7-104.9,22.7c-3,0-5.8,0-8.3-0.1c-2.2,37.6-3.3,81.6,3.7,133.9c4.4,32.6,11.5,65.2,21.3,97
					c11.4,36.9,26.8,74,45.6,110.1c18.1,34.8,41,67.4,68,97c21.6,23.7,45.9,45.6,72.2,65c35.3,26,64.9,40.6,76.1,45.7
					c11.2-5.1,40.8-19.7,76.1-45.7c26.3-19.4,50.6-41.3,72.2-65c27-29.6,49.8-62.2,68-97c18.9-36.1,34.2-73.2,45.6-110.1
					c9.8-31.8,17-64.4,21.3-97c7-52.3,5.9-96.3,3.7-133.9c-2.5,0.1-5.3,0.1-8.3,0.1c-59.9,0-90.1-12.4-104.9-22.7
					C536.9,135.2,527.1,107,525.6,66.4L525.6,66.4z"/>
			</g>
			<path class="st2" d="M461.7,177.3c0,0-15.5-12.9-57.1-33.3c-16.8-7.6-35.6,1.6-35.6,1.6s-26.5-5.2-41.6,18.3l1.2-8.2
				c0,0-16.3,14.1-20.3,17.8s-6.2,14.8-2,23.5l-9.4,7.9c0,0-0.5,2.5,6.4,2.5L276,223.8c0,0-2.5,17.1,7.7,28.7
				c10.1,11.6,19.1,17.5,22.3,19l0.2-11.7c0,0,8.9,9.6,14.5,12.4l-1-10.6c0,0,11.1-0.3,11.2,29.2l-6.8-4.8l0.7,12
				c0,0-4,0.7-13.7-5.8c0,0-5.6,21.8,13.7,40.6c19.3,18.8,30.7,18.5,45.5,18.8c0,0-5.1-2.5-9.2-9.6c0,0,10.1,5.3,23.1-1
				c13-6.3,22.3-14.5,24.9-18.3c5.3-0.6,19.1-3.5,25.9-9.9c6.8-6.4,14.5-16,18.1-24.1c7.4-2.5,24.3-6.4,53.3,0
				c0,0-7.4-13.2-37.1-31.8c0,0,23.9,2.6,58.6,33.5c0,0-4-20.5-24.9-40.3c0,0,8.1,1.6,19.1,12.7c0,0-31.3-76.4-88.8-88.4
				L461.7,177.3z"/>
			<path class="st3" d="M458.7,181.6c0,0-44.5-28.4-56.8-31.3c-12.2-3-18.1-3.6-30.7,1.3c0,0-30-3.3-39.6,19.1l1-9.6
				c0,0-15.6,13.9-18.6,16.9s-6.8,12.4-1.7,21.5c0,0-8.8,6.2-8.5,8.5c0.2,2.4,7.1,1.2,7.1,1.2s-24.1,12.9-27.1,15.8
				c0,0-6.4,25.9,27.9,44.9l-3.8-11.9c0,0,3-0.7,7.3,3.8c4.3,4.5,10.1,8.7,10.1,8.7l-1.3-10.7c0,0,7.3,0.3,9.2,12
				c2,11.7,0.8,14.5,0.8,14.5s-3.3-0.3-4.6-2.5c0,0-1.5,6.1,1,12c0,0-5.1-0.8-13.7-6.8c0,0-4.1,19.8,10.2,35.8
				c14.4,16,21.4,18.8,45.2,20.5l-7.8-7.4c0,0,17.2,6.9,44.2-20c0,0,17.7-1.3,24.4-8.7c6.8-7.4,16.8-23.6,16.8-23.6s23.1-6.6,49.7,0
				c0,0-3.5-9.2-33-29c0,0,17.5-0.5,53.1,30.9c0,0-1.8-17-23.3-38.4c0,0,9.7,4,17.8,11.9c0,0-33.2-74.6-80.7-81.7
				C433.5,179.4,448,178.8,458.7,181.6z"/>
			<g>
				<polygon class="st4" points="313.4,205 309.7,209.4 316.8,209.4 320.1,205.5 				"/>
				<polygon class="st4" points="349.4,201.9 326.4,214.1 331,215 352.5,214.1 369,201 				"/>
			</g>
			<g>
				<g>
					<path class="st2" d="M350.8,175.3c-0.3,0-0.5-0.1-0.7-0.3c-0.4-0.4-0.4-1,0-1.4c0.5-0.5,13.5-13.2,20.7-18.2
						c0.4-0.3,1.1-0.2,1.4,0.3c0.3,0.4,0.2,1.1-0.3,1.4c-7,4.8-20.3,17.8-20.4,18C351.3,175.2,351,175.3,350.8,175.3z"/>
					<path class="st2" d="M488.8,242.1c-0.3,0-0.6-0.2-0.8-0.4c-16.2-24.2-35-39.9-46.9-39.2c-12,0.8-35.1-10.3-36.1-10.7l-0.5-0.2
						l-0.1-0.5c-0.7-5.3-7.4-18.6-17.3-20.4c-9.8-1.9-19.1,5.9-19.2,6c-0.4,0.4-1,0.3-1.4-0.1c-0.4-0.4-0.3-1,0.1-1.4
						c0.4-0.3,10.1-8.4,20.9-6.4c10.3,2,17.6,14.9,18.8,21.6c3.4,1.6,24.1,11,34.7,10.3c12.7-0.8,31.8,14.9,48.6,40
						c0.3,0.5,0.2,1.1-0.3,1.4C489.2,242.1,489,242.1,488.8,242.1z"/>
					<path class="st2" d="M461.9,221.6c-0.3,0-0.6-0.1-0.8-0.4c-14.6-17.8-38-15.2-50.6-13.7c-0.7,0.1-1.4,0.2-2,0.2
						c-11.9,1.3-17.7-4.5-22.8-9.7c-5-5-12.8-9.7-12.9-9.7c-0.5-0.3-0.6-0.9-0.3-1.4c0.3-0.5,0.9-0.6,1.4-0.3
						c0.3,0.2,8.1,4.8,13.3,10.1c5.1,5.1,10.3,10.3,21.2,9.1c0.6-0.1,1.3-0.1,2-0.2c12-1.4,37-4.2,52.4,14.4c0.3,0.4,0.3,1-0.1,1.4
						C462.3,221.5,462.1,221.6,461.9,221.6z"/>
					<path class="st2" d="M478.7,256c-0.2,0-0.3,0-0.5-0.1c-28.8-15.3-39.7-12.9-47.7-11.2c-1.7,0.4-3.4,0.7-5,0.9
						c-9.1,0.8-20.4-5.3-20.8-5.6c-0.5-0.3-0.7-0.9-0.4-1.3c0.3-0.5,0.9-0.7,1.3-0.4c0.1,0.1,11.2,6,19.7,5.3
						c1.5-0.1,3.1-0.5,4.7-0.8c8.3-1.8,19.6-4.3,49,11.3c0.5,0.3,0.7,0.9,0.4,1.3C479.4,255.8,479,256,478.7,256z"/>
					<path class="st2" d="M485.9,280.2c-0.2,0-0.3,0-0.5-0.1c-21.1-10.8-38.3-5.4-43.1-3.4c-9.3,3.8-15.1,2.9-25.7,1.4l-2.6-0.4
						c-12.5-1.8-30-16.9-30.7-17.6c-0.4-0.4-0.5-1-0.1-1.4c0.4-0.4,1-0.5,1.4-0.1c0.2,0.2,17.7,15.4,29.7,17.1l2.6,0.4
						c10.6,1.5,15.9,2.3,24.7-1.3c5-2,22.9-7.7,44.7,3.5c0.5,0.2,0.7,0.8,0.4,1.3C486.6,280,486.2,280.2,485.9,280.2z"/>
					<path class="st2" d="M422.6,295.2c-1.7,0-3-0.5-3.8-1.1c-0.5-0.3-0.6-0.9-0.3-1.4c0.3-0.4,0.9-0.6,1.4-0.3
						c0.2,0.1,3.4,2.2,7.2-1.2c0.3-0.3,0.7-0.6,1-0.9c4.1-3.7,8.8-7.9,15.1-5.4c0.5,0.2,0.8,0.8,0.6,1.3c-0.2,0.5-0.8,0.8-1.3,0.6
						c-5.1-2.1-9,1.4-13,5.1c-0.4,0.3-0.7,0.6-1.1,0.9C426.3,294.6,424.3,295.2,422.6,295.2z"/>
					<path class="st2" d="M391.8,317.2c-6.8,0-12.3-5.8-12.6-6.1c-0.4-0.4-0.4-1,0-1.4c0.4-0.4,1-0.4,1.4,0
						c0.1,0.1,7.1,7.4,14.3,4.9c0.5-0.2,1.1,0.1,1.3,0.6c0.2,0.5-0.1,1.1-0.6,1.3C394.3,317,393.1,317.2,391.8,317.2z"/>
					<path class="st2" d="M370.3,334.2c-4.2,0-8.6-1.5-13-4.3c-4.7-3-7.7-6.6-7.8-6.7c-0.4-0.4-0.3-1,0.1-1.4c0.4-0.4,1-0.3,1.4,0.1
						c0.1,0.1,11.6,13.5,23.9,9.6c0.5-0.2,1.1,0.1,1.2,0.6c0.2,0.5-0.1,1.1-0.6,1.2C373.8,333.9,372.1,334.2,370.3,334.2z"/>
				</g>
				<path class="st2" d="M380.9,300c0,0-10.9-12.9-10.6-23.8s0-10.9,0-16.8c0-5.9-5.9-21.4-44.5-15.5l15.5-6.3l-24.1-0.7
					c0,0,22.1-3.3,30.4-8.6c8.2-5.3,19.5-14.5,27.4-14.8c7.9-0.3,14.1-0.3,18.6,2.6L373,188c0,0,7.7-4.7,9.7-6c2-1.3,7.6-2,11.1,2.5
					h-9.9v1.6c0,0,0.9,0,2.1,0c1.2,0,3,0.2,3,3.5c0,3.2,2.6,9.7,6.6,9.3c4-0.3,4.5-10.4,4.5-13.2c0-2.8-5.6-12.3-16.3-12.5
					c-10.7-0.2-25.2,11-33.3,28.8h15c0,0-12.3,13-14.9,6.6h-1.5c0,0-3.9,7-6,3.1c-1.6-2-5.3,0.7-6.4,2c-1.1,1.2-4.1,1-5.9-0.9
					c-1.9-1.9-12.2,2.3-15.5,6.3s-0.9,9.2-3.8,9.8c-2.9,0.6-10.8,3.9-10.7,10.1s3.3,12.6,14,13.9s18.6-3.4,21.4-4.2
					c2.8-0.8,22-0.1,22,16.2c0,0,0,9.7,0,13.4s-3,15.7-9.7,16c-6.7,0.3-17.1-7-17.1-7s0.8,8.4,3.7,11.1c0,0-6.2,1.2-15.8-5.4
					c0,0-3.7,15.7,7.4,21.3l0.1-5c0,0,10.9,12.2,29.1,10.7l-3.3-7c0,0,9.5,1.5,23.3-5.8l-6.3-7L380.9,300z"/>
				<path class="st2" d="M289.8,232.9c1.1-1.4,7.4,3.1,9.2,9.1c1.8,5.9,0.8,12.4-1.2,13C295.9,255.6,284.2,239.8,289.8,232.9z"/>
				<polygon class="st2" points="314.5,255 322,255 322.1,265.5 				"/>
				<path class="st2" d="M303.3,254.8c0,0,2.6,8.2,4.9,10.7c0,0-6.3-1.6-9.7-7.9L303.3,254.8z"/>
			</g>
		</g>
		<g>
			<path class="st0" d="M400,382.2c-187.1,0-350,75.2-350,75.2l49.4,100C275.6,485.5,400,493,400,493s124.4-7.6,300.6,64.3l49.4-100
				C750,457.4,587.1,382.2,400,382.2z"/>
			<path class="st2" d="M400,394.1c41.9,0,86.1,3.9,131.3,11.5c36.3,6.1,73.3,14.7,110,25.5c43.4,12.7,76.3,25.6,92.5,32.3l-39,78.9
				c-59.8-23.7-120-40.9-178.8-51.1c-50.8-8.9-87.6-10.2-105-10.2c-5.7,0-9.5,0.1-10.9,0.2c-1.5-0.1-5.2-0.2-10.9-0.2
				c-17.4,0-54.2,1.3-105,10.2c-58.9,10.3-119,27.5-178.8,51.1l-39-78.9c16.2-6.7,49-19.6,92.5-32.3c36.7-10.8,73.7-19.3,110-25.5
				C313.9,397.9,358.1,394.1,400,394.1"/>
		</g>
	</g>
	<g>
		<g>
			<circle cx="400" cy="596.6" r="48"/>
		</g>
		<g>
			<g>
				<path d="M354.8,545.3c0.5,0,1,0,1.5,0c1.5-17.1,14.3-30.8,30.9-33.8c-6.9-3.8-14.8-6-23.3-6c-26.5,0-48,21.5-48,48
					c0,6.1,1.2,12,3.3,17.4C324.1,556,338.2,545.3,354.8,545.3z"/>
			</g>
			<g>
				<path d="M338.4,631.9c0-4.9,1-9.6,2.7-13.9c-14-5.5-24-19.1-24-35.1c0-0.4,0-0.9,0-1.3c-8.6,8.7-13.9,20.6-13.9,33.8
					c0,26.5,21.5,48,48,48c1.3,0,2.7-0.1,4-0.2C345.1,656.5,338.4,644.9,338.4,631.9z"/>
			</g>
			<g>
				<path d="M430.2,539.3c2.9-0.7,5.9-1.1,9.1-1.1c14.3,0,26.8,8,33.1,19.8c0.6-3,0.9-6.2,0.9-9.4c0-26.5-21.5-48-48-48
					c-11.3,0-21.7,3.9-29.9,10.4C412.2,511.7,426.2,523.5,430.2,539.3z"/>
			</g>
			<g>
				<path d="M474.5,562.7c1.5,4.1,2.3,8.5,2.3,13.1c0,13.1-6.7,24.7-16.9,31.4c3.5,5.7,5.5,12.4,5.5,19.6c0,9-3.2,17.2-8.4,23.7
					c22.5-4,39.7-23.6,39.7-47.3C496.8,586.1,487.9,571.2,474.5,562.7z"/>
			</g>
			<g>
				<path d="M427.9,664.4c-8.8,0-16.8-3-23.2-8.1c-6.9,8.1-17.1,13.2-28.6,13.2c-5.1,0-10-1-14.5-2.9c8,15.4,24.1,26,42.6,26
					c22.3,0,41.1-15.2,46.4-35.9C444.3,661.5,436.4,664.4,427.9,664.4z"/>
			</g>
		</g>
	</g>
	<g>
		<path d="M123.6,506l-13.3-31.3l6.3-2.7l5.2,12.3l12.4-5.3l-5.2-12.3l6.3-2.7l13.3,31.3l-6.3,2.7l-5.8-13.7l-12.4,5.3l5.8,13.7
			L123.6,506z"/>
		<path d="M160.6,473l-5.9,0.9c-0.1-2.5,0.4-4.5,1.6-6.1c1.2-1.6,3.3-2.9,6.3-3.9c2.8-0.9,4.9-1.3,6.5-1.1c1.6,0.2,2.8,0.7,3.7,1.5
			c0.9,0.8,1.8,2.6,2.7,5.3l2.4,7.2c0.7,2.1,1.3,3.5,1.8,4.4c0.5,0.9,1.2,1.8,2.2,2.8l-6.1,2.1c-0.3-0.4-0.7-0.9-1.2-1.6
			c-0.2-0.3-0.4-0.5-0.5-0.7c-0.7,1.4-1.6,2.5-2.6,3.5c-1,0.9-2.2,1.6-3.6,2.1c-2.4,0.8-4.5,0.8-6.3,0c-1.8-0.8-3.1-2.3-3.7-4.2
			c-0.4-1.3-0.5-2.6-0.2-3.8c0.3-1.2,0.9-2.3,1.8-3.3c1-0.9,2.4-2,4.4-3.1c2.7-1.5,4.5-2.7,5.5-3.5l-0.2-0.6c-0.4-1.2-1-1.9-1.7-2.2
			c-0.8-0.3-1.9-0.2-3.6,0.4c-1.1,0.4-1.9,0.9-2.4,1.5C160.8,470.8,160.6,471.8,160.6,473z M170.5,475.2c-0.7,0.5-1.8,1.3-3.4,2.2
			c-1.6,0.9-2.6,1.7-3,2.2c-0.6,0.8-0.8,1.7-0.5,2.6c0.3,0.9,0.9,1.5,1.7,1.9c0.9,0.4,1.8,0.5,2.8,0.1c1.1-0.4,2.1-1.1,2.8-2.2
			c0.6-0.8,0.8-1.7,0.8-2.5c0-0.6-0.3-1.6-0.8-3.1L170.5,475.2z"/>
		<path d="M192.7,480.6l-9-32.8l6.3-1.7l4.8,17.4l5.1-10.4l7.7-2.1l-5.7,10.9l12.9,12.7l-6.8,1.9l-8.9-9l-2.1,3.9l2.1,7.6
			L192.7,480.6z"/>
		<path d="M224.7,472.2l-7.3-33.2l6.4-1.4l3.9,17.6l5.6-10.1l7.8-1.7l-6.3,10.6l12.2,13.3l-6.9,1.5l-8.4-9.5l-2.3,3.8l1.7,7.7
			L224.7,472.2z"/>
		<path d="M259.4,447.6l-6-0.1c0.3-2.5,1.1-4.4,2.5-5.8c1.4-1.4,3.7-2.4,6.8-2.9c2.9-0.5,5.1-0.5,6.6-0.1c1.5,0.4,2.7,1.1,3.4,2.1
			c0.7,0.9,1.4,2.8,1.8,5.6l1.2,7.5c0.4,2.1,0.7,3.7,1.1,4.7c0.4,1,0.9,2,1.7,3.1l-6.4,1.1c-0.2-0.4-0.6-1-0.9-1.8
			c-0.2-0.4-0.3-0.6-0.4-0.7c-0.9,1.3-2,2.3-3.1,3c-1.2,0.7-2.4,1.2-3.9,1.5c-2.5,0.4-4.6,0.1-6.3-1c-1.7-1.1-2.7-2.7-3-4.8
			c-0.2-1.4-0.1-2.7,0.4-3.8c0.5-1.2,1.3-2.2,2.3-2.9c1.1-0.8,2.7-1.6,4.9-2.4c2.9-1.1,4.9-2,6-2.6l-0.1-0.6
			c-0.2-1.2-0.7-2.1-1.4-2.5c-0.7-0.4-1.9-0.5-3.6-0.2c-1.1,0.2-2,0.6-2.6,1.1C259.9,445.6,259.6,446.4,259.4,447.6z M268.8,451.4
			c-0.8,0.4-2,1-3.7,1.6c-1.7,0.7-2.8,1.3-3.3,1.7c-0.7,0.7-1,1.6-0.9,2.5c0.2,0.9,0.6,1.6,1.4,2.2c0.8,0.5,1.7,0.7,2.7,0.5
			c1.2-0.2,2.2-0.8,3.1-1.7c0.7-0.7,1.1-1.5,1.2-2.4c0.1-0.6,0-1.6-0.3-3.2L268.8,451.4z"/>
		<path d="M310.2,457.6l-3.1-33.9l23.2-2.1l0.5,5.7l-16.4,1.5l0.7,8l14.1-1.3l0.5,5.7l-14.1,1.3L317,457L310.2,457.6z"/>
		<path d="M343.7,442.1c-0.1-2.2,0.3-4.3,1.3-6.4c1-2.1,2.4-3.7,4.3-4.8c1.9-1.2,4.1-1.8,6.5-1.9c3.7-0.2,6.8,0.9,9.3,3.2
			c2.5,2.3,3.8,5.3,4,9c0.2,3.7-0.9,6.9-3.2,9.4c-2.3,2.6-5.3,3.9-8.9,4.1c-2.3,0.1-4.4-0.3-6.5-1.2c-2.1-0.9-3.7-2.4-4.9-4.3
			C344.5,447.3,343.8,444.9,343.7,442.1z M350.4,442.1c0.1,2.4,0.8,4.3,2,5.5c1.2,1.2,2.7,1.8,4.4,1.8c1.7-0.1,3.1-0.8,4.2-2.1
			c1.1-1.3,1.6-3.3,1.5-5.7c-0.1-2.4-0.8-4.2-2-5.5c-1.2-1.2-2.7-1.8-4.4-1.8c-1.7,0.1-3.1,0.8-4.2,2.1
			C350.8,437.8,350.3,439.7,350.4,442.1z"/>
		<path d="M380,440.7c0-2.2,0.5-4.3,1.6-6.3s2.6-3.6,4.5-4.6c2-1.1,4.1-1.6,6.6-1.6c3.7,0,6.8,1.2,9.2,3.6c2.4,2.4,3.6,5.5,3.6,9.2
			c0,3.7-1.2,6.8-3.6,9.3c-2.4,2.4-5.4,3.7-9.1,3.7c-2.3,0-4.4-0.5-6.5-1.5c-2-1-3.6-2.5-4.7-4.5C380.5,445.9,380,443.5,380,440.7z
			 M386.7,441.1c0,2.4,0.6,4.3,1.7,5.6c1.2,1.3,2.6,2,4.3,2c1.7,0,3.1-0.6,4.3-1.9s1.7-3.2,1.7-5.7c0-2.4-0.6-4.3-1.7-5.6
			c-1.2-1.3-2.6-2-4.3-2c-1.7,0-3.1,0.6-4.3,1.9C387.3,436.7,386.7,438.6,386.7,441.1z"/>
		<path d="M429.6,429.6l-0.2,5.2l-4.5-0.2l-0.4,9.9c-0.1,2-0.1,3.2,0,3.5c0.1,0.3,0.3,0.6,0.5,0.8c0.3,0.2,0.7,0.3,1.1,0.4
			c0.6,0,1.5-0.2,2.6-0.5l0.4,5.1c-1.5,0.6-3.3,0.9-5.2,0.8c-1.2,0-2.2-0.3-3.2-0.7c-0.9-0.4-1.6-1-2-1.6c-0.4-0.6-0.7-1.5-0.8-2.6
			c-0.1-0.8-0.1-2.3,0-4.6l0.4-10.7l-3-0.1l0.2-5.2l3,0.1l0.2-4.9l6.7-3.6l-0.3,8.7L429.6,429.6z"/>
		<path d="M439.7,454.7l2.5-33.9l6.5,0.5l-0.9,12.2c2.2-2.1,4.6-3.1,7.4-2.9c3,0.2,5.4,1.5,7.2,3.8c1.8,2.3,2.6,5.5,2.3,9.6
			c-0.3,4.2-1.5,7.4-3.7,9.5c-2.2,2.1-4.7,3.1-7.5,2.9c-1.4-0.1-2.8-0.6-4.1-1.4c-1.3-0.8-2.4-1.9-3.3-3.4l-0.3,3.6L439.7,454.7z
			 M447.1,442.4c-0.2,2.5,0.1,4.5,0.8,5.7c1,1.8,2.4,2.8,4.3,2.9c1.4,0.1,2.7-0.4,3.8-1.6c1.1-1.2,1.7-3,1.9-5.7
			c0.2-2.8-0.2-4.9-1.1-6.2c-0.9-1.3-2.2-2-3.8-2.1c-1.6-0.1-2.9,0.4-4,1.5C447.9,438.1,447.3,439.9,447.1,442.4z"/>
		<path d="M482.5,441.2l-5.8-1.7c0.9-2.3,2.3-3.9,4-4.9c1.7-1,4.2-1.2,7.4-0.9c2.9,0.3,5,0.9,6.3,1.8c1.3,0.8,2.2,1.8,2.7,2.9
			c0.5,1.1,0.5,3.1,0.2,5.9l-0.9,7.6c-0.2,2.2-0.3,3.7-0.2,4.8c0.1,1,0.4,2.2,0.8,3.4l-6.4-0.7c-0.1-0.4-0.3-1.1-0.4-2
			c-0.1-0.4-0.1-0.7-0.1-0.8c-1.2,1-2.5,1.6-3.8,2c-1.3,0.4-2.7,0.5-4.1,0.3c-2.5-0.3-4.4-1.2-5.7-2.7c-1.3-1.5-1.8-3.3-1.6-5.4
			c0.2-1.4,0.6-2.6,1.4-3.6c0.8-1,1.8-1.7,3.1-2.2c1.3-0.4,3-0.7,5.3-0.9c3.1-0.2,5.3-0.5,6.5-0.9l0.1-0.6c0.1-1.2-0.1-2.2-0.6-2.8
			c-0.6-0.6-1.7-1-3.4-1.2c-1.2-0.1-2.1,0-2.8,0.4C483.6,439.4,483,440.1,482.5,441.2z M490.6,447.4c-0.9,0.2-2.2,0.4-4.1,0.5
			c-1.8,0.2-3.1,0.4-3.7,0.7c-0.9,0.5-1.4,1.2-1.5,2.1c-0.1,0.9,0.1,1.7,0.7,2.5c0.6,0.7,1.4,1.2,2.5,1.3c1.2,0.1,2.3-0.1,3.5-0.8
			c0.9-0.5,1.4-1.2,1.8-2c0.2-0.5,0.4-1.6,0.6-3.1L490.6,447.4z"/>
		<path d="M508.8,461.7l4.9-33.7l6.5,0.9l-4.9,33.7L508.8,461.7z"/>
		<path d="M528.7,464.8l5.6-33.5l6.4,1.1l-5.6,33.5L528.7,464.8z"/>
		<path d="M592.2,464.7l6,3.5c-1.8,3.4-4.1,5.7-6.8,7c-2.7,1.2-5.8,1.5-9.4,0.7c-4.4-1-7.7-3.3-9.8-7c-2.2-3.6-2.7-8.1-1.5-13.3
			c1.2-5.5,3.6-9.5,7.2-11.9c3.5-2.4,7.6-3.1,12.3-2.1c4.1,0.9,7.1,2.9,9.1,5.8c1.2,1.8,1.9,4,2,6.9l-7,0.1c0-1.8-0.5-3.4-1.5-4.6
			c-1-1.3-2.4-2.1-4.2-2.5c-2.5-0.6-4.7-0.1-6.6,1.3c-1.9,1.4-3.3,4.1-4.2,8.1c-0.9,4.2-0.9,7.4,0.2,9.5c1.1,2.1,2.9,3.5,5.3,4
			c1.8,0.4,3.4,0.2,5-0.7C589.8,468.5,591.1,467,592.2,464.7z"/>
		<path d="M608.3,481.5l8.5-32.9l6.3,1.6l-8.5,32.9L608.3,481.5z"/>
		<path d="M643.3,491.1l1-3.5c-1.2,1-2.6,1.7-4.3,2c-1.6,0.3-3.2,0.3-4.8-0.2c-1.6-0.5-2.9-1.2-4-2.3c-1.1-1.1-1.7-2.3-1.9-3.7
			c-0.2-1.4,0-3.3,0.7-5.5l4.3-15l6.3,1.8l-3.1,10.9c-1,3.3-1.4,5.4-1.4,6.2c0,0.8,0.3,1.5,0.7,2.1c0.5,0.6,1.2,1.1,2.1,1.3
			c1.1,0.3,2.1,0.3,3.1,0c1-0.3,1.8-0.9,2.4-1.7c0.6-0.8,1.3-2.9,2.3-6.3l2.9-10l6.3,1.8l-6.8,23.7L643.3,491.1z"/>
		<path d="M661.9,496.7l10.6-32.3l6.2,2l-3.8,11.6c2.6-1.5,5.2-1.9,7.9-1c2.9,0.9,4.9,2.7,6.1,5.4c1.2,2.7,1.2,5.9-0.1,9.8
			c-1.3,4-3.3,6.8-5.9,8.3c-2.6,1.5-5.3,1.9-8,1c-1.3-0.4-2.5-1.2-3.6-2.3c-1.1-1.1-1.9-2.5-2.4-4.1l-1.1,3.4L661.9,496.7z
			 M672,486.5c-0.8,2.4-1,4.3-0.6,5.8c0.5,2,1.7,3.3,3.5,3.9c1.4,0.4,2.7,0.2,4.1-0.6c1.3-0.9,2.4-2.5,3.3-5c0.9-2.7,1-4.8,0.4-6.3
			c-0.6-1.5-1.6-2.5-3.1-3c-1.5-0.5-2.9-0.3-4.3,0.5C673.9,482.6,672.8,484.2,672,486.5z"/>
	</g>
</g>
</svg>
