<?xml version="1.0" encoding="utf-8"?>
<!-- Generator: Adobe Illustrator 22.1.0, SVG Export Plug-In . SVG Version: 6.00 Build 0)  -->
<svg version="1.1" id="图层_1" xmlns="http://www.w3.org/2000/svg" xmlns:xlink="http://www.w3.org/1999/xlink" x="0px" y="0px"
	 viewBox="0 0 800 800" style="enable-background:new 0 0 800 800;" xml:space="preserve">
<style type="text/css">
	.st0{fill:#155097;}
</style>
<g>
	<path class="st0" d="M311.7,270l-3.8-11.9c0,0,3-0.7,7.3,3.8c4.3,4.5,10.1,8.7,10.1,8.7l-1.3-10.7c0,0,7.3,0.3,9.2,12
		c2,11.7,0.8,14.5,0.8,14.5s-3.3-0.3-4.6-2.5c0,0-1.5,6.1,1,12c0,0-5.1-0.8-13.7-6.8c0,0-4.1,19.8,10.2,35.8
		c14.4,16,21.4,18.8,45.2,20.5l-7.8-7.4c0,0,17.2,6.9,44.2-20c0,0,17.7-1.3,24.4-8.7c6.8-7.4,16.8-23.6,16.8-23.6s23.1-6.6,49.7,0
		c0,0-3.5-9.2-33-29c0,0,17.5-0.5,53.1,30.9c0,0-1.8-17-23.3-38.4c0,0,9.7,4,17.8,11.9c0,0-33.2-74.6-80.7-81.7
		c0,0,14.5-0.7,25.2,2.1c0,0-44.5-28.4-56.8-31.3s-18.1-3.6-30.7,1.3c0,0-30-3.3-39.6,19.1l1-9.6c0,0-15.6,13.9-18.6,16.9
		s-6.8,12.4-1.7,21.5c0,0-8.8,6.2-8.5,8.5c0.2,1.7,3.8,1.6,5.8,1.4l3.7-4.5l6.7,0.5l-3.2,4h-6.2c-2.8,1.5-24,12.9-26.7,15.7
		C283.9,225.1,277.4,251,311.7,270z M308.3,265.5c0,0-6.3-1.6-9.7-7.9l4.8-2.8C303.3,254.8,306,263.1,308.3,265.5z M314.5,255h7.4
		l0.2,10.5L314.5,255z M375.6,333.4c-1.7,0.5-3.5,0.8-5.3,0.8c-4.2,0-8.6-1.5-13-4.3c-4.7-3-7.7-6.6-7.8-6.7c-0.4-0.4-0.3-1,0.1-1.4
		c0.4-0.4,1-0.3,1.4,0.1c0.1,0.1,11.6,13.5,23.9,9.6c0.5-0.2,1.1,0.1,1.2,0.6C376.4,332.7,376.1,333.2,375.6,333.4z M395.6,316.5
		c-1.3,0.4-2.6,0.6-3.8,0.6c-6.8,0-12.3-5.8-12.6-6.1c-0.4-0.4-0.4-1,0-1.4c0.4-0.4,1-0.4,1.4,0c0.1,0.1,7.1,7.4,14.3,4.9
		c0.5-0.2,1.1,0.1,1.3,0.6C396.4,315.8,396.1,316.4,395.6,316.5z M443.7,286.3c-0.2,0.5-0.8,0.8-1.3,0.6c-5.1-2.1-9,1.4-13,5.1
		c-0.4,0.3-0.7,0.6-1.1,0.9c-2,1.8-4.1,2.4-5.8,2.4c-1.7,0-3-0.5-3.8-1.1c-0.5-0.3-0.6-0.9-0.3-1.4c0.3-0.4,0.9-0.6,1.4-0.3
		c0.2,0.1,3.4,2.2,7.2-1.2c0.3-0.3,0.7-0.6,1-0.9c4.1-3.7,8.8-7.9,15.1-5.4C443.7,285.2,443.9,285.8,443.7,286.3z M486.3,278.4
		c0.5,0.2,0.7,0.8,0.4,1.3c-0.2,0.3-0.5,0.5-0.9,0.5c-0.2,0-0.3,0-0.5-0.1c-21.1-10.8-38.3-5.4-43.1-3.4c-9.3,3.8-15.1,2.9-25.7,1.4
		l-2.6-0.4c-12.5-1.8-30-16.9-30.7-17.6c-0.4-0.4-0.5-1-0.1-1.4c0.4-0.4,1-0.5,1.4-0.1c0.2,0.2,17.7,15.4,29.7,17.1l2.6,0.4
		c10.6,1.5,15.9,2.3,24.7-1.3C446.5,272.8,464.5,267.1,486.3,278.4z M479.6,255.4c-0.2,0.3-0.5,0.5-0.9,0.5c-0.2,0-0.3,0-0.5-0.1
		c-28.8-15.3-39.7-12.9-47.7-11.2c-1.7,0.4-3.4,0.7-5,0.9c-9.1,0.8-20.4-5.3-20.8-5.6c-0.5-0.3-0.7-0.9-0.4-1.3
		c0.3-0.5,0.9-0.7,1.3-0.4c0.1,0.1,11.2,6,19.7,5.3c1.5-0.1,3.1-0.5,4.7-0.8c8.3-1.8,19.6-4.3,49,11.3
		C479.6,254.4,479.8,255,479.6,255.4z M387.6,168.6c10.3,2,17.6,14.9,18.8,21.6c3.4,1.6,24.1,11,34.7,10.3
		c12.7-0.8,31.8,14.9,48.6,40c0.3,0.5,0.2,1.1-0.3,1.4c-0.2,0.1-0.4,0.2-0.6,0.2c-0.3,0-0.6-0.2-0.8-0.4
		c-16.2-24.2-35-39.9-46.9-39.2c-12,0.8-35.1-10.3-36.1-10.7l-0.5-0.2l-0.1-0.5c-0.7-5.3-7.4-18.6-17.3-20.4
		c-9.8-1.9-19.1,5.9-19.2,6c-0.4,0.4-1,0.3-1.4-0.1c-0.4-0.4-0.3-1,0.1-1.4C367.1,174.7,376.8,166.6,387.6,168.6z M350.1,173.6
		c0.5-0.5,13.5-13.2,20.7-18.2c0.4-0.3,1.1-0.2,1.4,0.3c0.3,0.4,0.2,1.1-0.3,1.4c-7,4.8-20.3,17.8-20.4,18c-0.2,0.2-0.4,0.3-0.7,0.3
		c-0.3,0-0.5-0.1-0.7-0.3C349.7,174.6,349.7,174,350.1,173.6z M311.3,228.9c2.9-0.6,0.5-5.8,3.8-9.8c2.9-3.5,11.3-7.2,14.5-6.7
		c0.4,0.1,0.8,0.2,1,0.4c1.9,1.9,4.8,2.1,5.9,0.9c1.1-1.2,4.8-4,6.4-2c2.1,4,6-3.1,6-3.1h1.5c2.6,6.4,14.9-6.6,14.9-6.6l-16.2,0
		l1.2,0c8.1-17.8,22.6-28.9,33.3-28.8c10.7,0.2,16.3,9.7,16.3,12.5c0,2.8-0.4,12.9-4.5,13.2c-4,0.3-6.6-6.1-6.6-9.3s-1.7-3.5-3-3.5
		c-1.2,0-2.1,0-2.1,0v-1.6h9.9c-3.5-4.5-9.1-3.8-11.1-2.5c-1.4,0.9-5.7,3.6-8.1,5c2.2,1.4,8.2,5.2,12.5,9.5
		c5.1,5.1,10.3,10.3,21.2,9.1c0.6-0.1,1.3-0.1,2-0.2c12-1.4,37-4.2,52.4,14.4c0.3,0.4,0.3,1-0.1,1.4c-0.2,0.2-0.4,0.2-0.6,0.2
		c-0.3,0-0.6-0.1-0.8-0.4c-14.6-17.8-38-15.2-50.6-13.7c-0.7,0.1-1.4,0.2-2,0.2c-11.9,1.3-17.7-4.5-22.8-9.7c-4.1-4.1-10-8-12.1-9.3
		l20,27.4c-4.6-2.8-10.7-2.9-18.6-2.6c-7.9,0.3-19.1,9.6-27.4,14.8c-8.2,5.3-30.4,8.6-30.4,8.6l24.1,0.7l-15.5,6.3
		c38.6-5.9,44.5,9.6,44.5,15.5c0,5.9,0.3,5.9,0,16.8c-0.3,10.9,10.6,23.8,10.6,23.8l-11.3,0.1l6.3,7c-13.8,7.2-23.3,5.8-23.3,5.8
		l3.3,7c-18.3,1.5-29.1-10.7-29.1-10.7l-0.1,5c-11.1-5.6-7.4-21.3-7.4-21.3c9.5,6.7,15.8,5.4,15.8,5.4c-2.9-2.7-3.7-11.1-3.7-11.1
		s10.4,7.3,17.1,7c6.7-0.3,9.7-12.3,9.7-16s0-13.4,0-13.4c-0.1-16.3-19.3-17-22-16.2c-2.8,0.8-10.7,5.4-21.4,4.2s-13.9-7.7-14-13.9
		S308.4,229.5,311.3,228.9z M289.8,232.9c1.1-1.4,7.4,3.1,9.2,9.1c1.8,5.9,0.8,12.4-1.2,13C295.9,255.6,284.2,239.8,289.8,232.9z"/>
	<path class="st0" d="M400,382.2c-187.1,0-350,75.2-350,75.2l49.4,100C275.6,485.5,400,493,400,493s124.4-7.6,300.6,64.3l49.4-100
		C750,457.4,587.1,382.2,400,382.2z M694.8,542.3c-59.8-23.7-120-40.9-178.8-51.1c-50.8-8.9-87.6-10.2-105-10.2
		c-5.7,0-9.5,0.1-10.9,0.2c-1.5-0.1-5.2-0.2-10.9-0.2c-17.4,0-54.2,1.3-105,10.2c-58.9,10.3-119,27.5-178.8,51.1l-39-78.9
		c16.2-6.7,49-19.6,92.5-32.3c36.7-10.8,73.7-19.3,110-25.5c45.2-7.7,89.4-11.5,131.3-11.5s86.1,3.9,131.3,11.5
		c36.3,6.1,73.3,14.7,110,25.5c43.4,12.7,76.3,25.6,92.5,32.3L694.8,542.3z"/>
	<polygon class="st0" points="129.1,466.8 134.3,479.1 121.9,484.3 116.7,472 110.4,474.7 123.6,506 130,503.3 124.2,489.6 
		136.5,484.4 142.3,498.1 148.7,495.4 135.4,464.1 	"/>
	<path class="st0" d="M177.7,476.7l-2.4-7.2c-0.9-2.7-1.8-4.4-2.7-5.3c-0.9-0.8-2.1-1.3-3.7-1.5c-1.6-0.2-3.7,0.2-6.5,1.1
		c-3,1-5.1,2.3-6.3,3.9c-1.2,1.6-1.7,3.6-1.6,6.1l5.9-0.9c0-1.2,0.3-2.1,0.7-2.8c0.5-0.6,1.3-1.1,2.4-1.5c1.6-0.5,2.8-0.7,3.6-0.4
		c0.8,0.3,1.3,1.1,1.7,2.2l0.2,0.6c-1,0.8-2.8,2-5.5,3.5c-2,1.1-3.5,2.2-4.4,3.1c-1,0.9-1.6,2-1.8,3.3c-0.3,1.2-0.2,2.5,0.2,3.8
		c0.7,2,1.9,3.4,3.7,4.2c1.8,0.8,3.9,0.9,6.3,0c1.4-0.5,2.6-1.1,3.6-2.1c1-0.9,1.9-2.1,2.6-3.5c0.1,0.1,0.2,0.3,0.5,0.7
		c0.5,0.7,0.9,1.3,1.2,1.6l6.1-2.1c-0.9-0.9-1.6-1.9-2.2-2.8C179,480.3,178.4,478.8,177.7,476.7z M171,482.1
		c-0.8,1.1-1.7,1.8-2.8,2.2c-1,0.3-1.9,0.3-2.8-0.1c-0.9-0.4-1.4-1.1-1.7-1.9c-0.3-0.9-0.1-1.7,0.5-2.6c0.4-0.5,1.4-1.3,3-2.2
		c1.6-0.9,2.7-1.7,3.4-2.2l0.4,1.2c0.5,1.5,0.8,2.5,0.8,3.1C171.8,480.4,171.5,481.3,171,482.1z"/>
	<polygon class="st0" points="207.5,451 199.8,453.1 194.7,463.5 190,446.1 183.7,447.8 192.7,480.6 199,478.9 196.9,471.3 
		199,467.4 207.9,476.5 214.7,474.6 201.8,461.9 	"/>
	<polygon class="st0" points="241.1,443.3 233.3,445.1 227.7,455.2 223.8,437.6 217.4,439 224.7,472.2 231.1,470.8 229.4,463.1 
		231.7,459.3 240.1,468.8 247,467.3 234.8,453.9 	"/>
	<path class="st0" d="M275.7,454l-1.2-7.5c-0.5-2.8-1.1-4.7-1.8-5.6c-0.7-0.9-1.9-1.6-3.4-2.1c-1.5-0.4-3.7-0.4-6.6,0.1
		c-3.2,0.5-5.4,1.5-6.8,2.9c-1.4,1.4-2.2,3.3-2.5,5.8l6,0.1c0.2-1.2,0.6-2.1,1.2-2.6c0.6-0.6,1.4-0.9,2.6-1.1
		c1.7-0.3,2.9-0.2,3.6,0.2c0.7,0.4,1.2,1.3,1.4,2.5l0.1,0.6c-1.1,0.7-3.1,1.6-6,2.6c-2.2,0.8-3.8,1.6-4.9,2.4
		c-1.1,0.8-1.9,1.8-2.3,2.9c-0.5,1.2-0.6,2.5-0.4,3.8c0.4,2.1,1.4,3.7,3,4.8c1.7,1.1,3.8,1.5,6.3,1c1.4-0.2,2.7-0.7,3.9-1.5
		c1.2-0.7,2.2-1.7,3.1-3c0.1,0.1,0.2,0.4,0.4,0.7c0.4,0.8,0.7,1.4,0.9,1.8l6.4-1.1c-0.8-1.1-1.3-2.1-1.7-3.1S276.1,456.1,275.7,454z
		 M269.3,455.8c-0.1,0.9-0.5,1.7-1.2,2.4c-0.9,0.9-2,1.5-3.1,1.7c-1,0.2-1.9,0-2.7-0.5c-0.8-0.5-1.2-1.3-1.4-2.2
		c-0.2-0.9,0.1-1.7,0.9-2.5c0.5-0.5,1.6-1,3.3-1.7c1.7-0.7,3-1.2,3.7-1.6l0.2,1.3C269.3,454.2,269.4,455.3,269.3,455.8z"/>
	<polygon class="st0" points="330.3,421.6 307.1,423.8 310.2,457.6 317,457 315.7,442.6 329.8,441.3 329.3,435.6 315.2,436.9 
		314.4,428.9 330.8,427.3 	"/>
	<path class="st0" d="M365.1,432.2c-2.5-2.3-5.6-3.4-9.3-3.2c-2.4,0.1-4.6,0.7-6.5,1.9c-1.9,1.2-3.3,2.8-4.3,4.8
		c-1,2.1-1.4,4.2-1.3,6.4c0.1,2.8,0.8,5.2,1.9,7.1c1.2,1.9,2.8,3.3,4.9,4.3c2.1,0.9,4.3,1.3,6.5,1.2c3.6-0.2,6.6-1.5,8.9-4.1
		c2.3-2.6,3.4-5.7,3.2-9.4C368.9,437.5,367.6,434.5,365.1,432.2z M360.9,447.3c-1.1,1.3-2.5,2.1-4.2,2.1c-1.7,0.1-3.2-0.5-4.4-1.8
		c-1.2-1.2-1.9-3.1-2-5.5c-0.1-2.4,0.4-4.3,1.5-5.7c1.1-1.3,2.5-2.1,4.2-2.1c1.7-0.1,3.2,0.5,4.4,1.8c1.2,1.2,1.9,3.1,2,5.5
		C362.5,444,362,445.9,360.9,447.3z"/>
	<path class="st0" d="M392.7,428.2c-2.4,0-4.6,0.5-6.6,1.6c-2,1.1-3.5,2.6-4.5,4.6s-1.6,4.1-1.6,6.3c0,2.8,0.5,5.2,1.6,7.2
		c1.1,2,2.6,3.5,4.7,4.5c2,1,4.2,1.5,6.5,1.5c3.7,0,6.7-1.2,9.1-3.7c2.4-2.4,3.6-5.5,3.6-9.3c0-3.7-1.2-6.8-3.6-9.2
		S396.4,428.2,392.7,428.2z M397,446.7c-1.2,1.3-2.6,1.9-4.3,1.9c-1.7,0-3.1-0.7-4.3-2c-1.2-1.3-1.7-3.2-1.7-5.6
		c0-2.4,0.6-4.3,1.7-5.6c1.2-1.3,2.6-1.9,4.3-1.9c1.7,0,3.1,0.7,4.3,2c1.2,1.3,1.7,3.2,1.7,5.6C398.7,443.5,398.2,445.4,397,446.7z"
		/>
	<path class="st0" d="M425.4,420.7l-6.7,3.6l-0.2,4.9l-3-0.1l-0.2,5.2l3,0.1l-0.4,10.7c-0.1,2.3-0.1,3.8,0,4.6
		c0.1,1.1,0.4,1.9,0.8,2.6c0.4,0.6,1.1,1.2,2,1.6c0.9,0.4,2,0.7,3.2,0.7c1.9,0.1,3.6-0.2,5.2-0.8l-0.4-5.1c-1.2,0.4-2,0.6-2.6,0.5
		c-0.4,0-0.8-0.1-1.1-0.4c-0.3-0.2-0.5-0.5-0.5-0.8c-0.1-0.3-0.1-1.5,0-3.5l0.4-9.9l4.5,0.2l0.2-5.2l-4.5-0.2L425.4,420.7z"/>
	<path class="st0" d="M455.2,430.6c-2.7-0.2-5.2,0.8-7.4,2.9l0.9-12.2l-6.5-0.5l-2.5,33.9l6,0.4l0.3-3.6c0.9,1.4,2,2.6,3.3,3.4
		c1.3,0.8,2.7,1.3,4.1,1.4c2.9,0.2,5.4-0.7,7.5-2.9c2.2-2.1,3.4-5.3,3.7-9.5c0.3-4.1-0.5-7.2-2.3-9.6
		C460.6,432.1,458.2,430.8,455.2,430.6z M458,443.8c-0.2,2.6-0.8,4.5-1.9,5.7c-1.1,1.2-2.4,1.7-3.8,1.6c-1.9-0.1-3.3-1.1-4.3-2.9
		c-0.7-1.3-1-3.2-0.8-5.7c0.2-2.5,0.8-4.3,2-5.4c1.1-1.1,2.5-1.6,4-1.5c1.6,0.1,2.8,0.8,3.8,2.1C457.8,438.9,458.2,441,458,443.8z"
		/>
	<path class="st0" d="M494.5,435.5c-1.3-0.8-3.4-1.4-6.3-1.8c-3.2-0.4-5.6-0.1-7.4,0.9c-1.7,1-3.1,2.6-4,4.9l5.8,1.7
		c0.5-1.1,1.1-1.8,1.8-2.2c0.7-0.4,1.6-0.5,2.8-0.4c1.7,0.2,2.8,0.6,3.4,1.2c0.6,0.6,0.8,1.5,0.6,2.8l-0.1,0.6
		c-1.2,0.4-3.4,0.7-6.5,0.9c-2.3,0.2-4.1,0.5-5.3,0.9c-1.3,0.4-2.3,1.2-3.1,2.2c-0.8,1-1.3,2.2-1.4,3.6c-0.2,2.1,0.3,3.9,1.6,5.4
		c1.3,1.5,3.2,2.4,5.7,2.7c1.4,0.2,2.8,0,4.1-0.3c1.3-0.4,2.6-1.1,3.8-2c0,0.1,0.1,0.4,0.1,0.8c0.1,0.9,0.3,1.5,0.4,2l6.4,0.7
		c-0.4-1.2-0.7-2.4-0.8-3.4c-0.1-1,0-2.6,0.2-4.8l0.9-7.6c0.3-2.8,0.3-4.8-0.2-5.9C496.7,437.3,495.8,436.3,494.5,435.5z
		 M490.4,448.7c-0.2,1.6-0.4,2.6-0.6,3.1c-0.3,0.8-0.9,1.5-1.8,2c-1.1,0.6-2.3,0.9-3.5,0.8c-1-0.1-1.9-0.5-2.5-1.3
		c-0.6-0.7-0.9-1.6-0.7-2.5c0.1-0.9,0.6-1.6,1.5-2.1c0.6-0.3,1.8-0.5,3.7-0.7c1.8-0.2,3.2-0.4,4.1-0.5L490.4,448.7z"/>
	
		<rect x="497.4" y="442.1" transform="matrix(0.1434 -0.9897 0.9897 0.1434 -0.1044 890.6152)" class="st0" width="34" height="6.5"/>
	<rect x="517.7" y="445.3" transform="matrix(0.1656 -0.9862 0.9862 0.1656 3.803 901.5844)" class="st0" width="34" height="6.5"/>
	<path class="st0" d="M582,448.5c1.9-1.4,4.1-1.9,6.6-1.3c1.8,0.4,3.2,1.2,4.2,2.5c1,1.3,1.5,2.8,1.5,4.6l7-0.1
		c-0.2-2.8-0.8-5.1-2-6.9c-2-3-5-4.9-9.1-5.8c-4.6-1-8.7-0.4-12.3,2.1c-3.5,2.4-5.9,6.4-7.2,11.9c-1.2,5.2-0.7,9.7,1.5,13.3
		c2.2,3.6,5.4,6,9.8,7c3.6,0.8,6.7,0.6,9.4-0.7c2.7-1.2,5-3.6,6.8-7l-6-3.5c-1.1,2.3-2.4,3.9-4,4.7c-1.5,0.8-3.2,1.1-5,0.7
		c-2.4-0.5-4.2-1.9-5.3-4c-1.1-2.1-1.2-5.3-0.2-9.5C578.7,452.6,580.1,449.9,582,448.5z"/>
	
		<rect x="598.7" y="462.6" transform="matrix(0.2506 -0.9681 0.9681 0.2506 10.4427 945.1967)" class="st0" width="34" height="6.5"/>
	<path class="st0" d="M646.8,477.3c-1,3.4-1.8,5.5-2.3,6.3c-0.6,0.8-1.4,1.3-2.4,1.7c-1,0.3-2.1,0.4-3.1,0c-0.9-0.3-1.6-0.7-2.1-1.3
		c-0.5-0.6-0.7-1.3-0.7-2.1c0-0.8,0.5-2.9,1.4-6.2l3.1-10.9l-6.3-1.8l-4.3,15c-0.6,2.2-0.9,4.1-0.7,5.5c0.2,1.4,0.8,2.7,1.9,3.7
		c1.1,1.1,2.4,1.8,4,2.3c1.6,0.5,3.1,0.5,4.8,0.2c1.6-0.3,3-1,4.3-2l-1,3.5l5.8,1.7l6.8-23.7l-6.3-1.8L646.8,477.3z"/>
	<path class="st0" d="M682.7,477c-2.6-0.9-5.2-0.5-7.9,1l3.8-11.6l-6.2-2l-10.6,32.3l5.8,1.9l1.1-3.4c0.5,1.6,1.3,3,2.4,4.1
		c1.1,1.1,2.3,1.9,3.6,2.3c2.7,0.9,5.4,0.6,8-1c2.6-1.5,4.6-4.3,5.9-8.3c1.3-3.9,1.3-7.1,0.1-9.8C687.6,479.8,685.6,478,682.7,477z
		 M682.2,490.5c-0.8,2.5-1.9,4.2-3.3,5c-1.3,0.9-2.7,1.1-4.1,0.6c-1.8-0.6-2.9-1.9-3.5-3.9c-0.4-1.4-0.2-3.3,0.6-5.8
		c0.8-2.4,1.8-3.9,3.2-4.8c1.4-0.8,2.8-1,4.3-0.5c1.5,0.5,2.6,1.5,3.1,3C683.2,485.7,683.1,487.8,682.2,490.5z"/>
	<path class="st0" d="M605.8,577.1l86-17.9c-20.6-8.2-41.2-15.7-61.8-22.4C622.6,550.6,614.6,564,605.8,577.1z"/>
	<path class="st0" d="M108.2,559.2l86,17.9c-8.7-13-16.8-26.5-24.2-40.2C149.4,543.5,128.8,551,108.2,559.2z"/>
	<path class="st0" d="M139.6,419.2c-0.5-1.5-1-3.1-1.5-4.6c-9.8-31.8-17-64.4-21.3-97c-7-52.3-5.9-96.3-3.7-133.9
		c2.5,0.1,5.3,0.1,8.3,0.1c59.9,0,90.1-12.4,104.9-22.7c16.7-11.7,27.8-23.9,35.2-37.5v266.2c1.4-0.2,2.8-0.5,4.1-0.7
		c46.3-7.8,91.5-11.8,134.4-11.8c43,0,88.2,4,134.4,11.8c1.4,0.2,2.8,0.5,4.1,0.7V123.5c7.3,13.6,18.5,25.8,35.2,37.5
		c14.8,10.4,44.9,22.7,104.9,22.7c3,0,5.8,0,8.3-0.1c2.2,37.6,3.3,81.6-3.7,133.9c-4.4,32.6-11.5,65.2-21.3,97
		c-0.5,1.5-1,3.1-1.5,4.6c4.2,1.3,8.3,2.6,12.3,3.9c34.4-108.2,30-196.3,26.3-252.8c0,0-81.2,5.9-117.8-19.8
		c-36.6-25.7-42.9-52.8-42.9-97H400H261.7c0,44.2-6.3,71.3-42.9,97s-117.8,19.8-117.8,19.8c-3.8,56.5-8.1,144.5,26.3,252.8
		C131.3,421.8,135.4,420.5,139.6,419.2z M274.1,223.5l0.1-0.9l0.8-0.5l22.8-13.5c-0.8-0.4-1.5-0.8-1.9-1.4c-0.9-1.1-0.8-2.3-0.7-2.6
		l0.1-0.7l0.5-0.4l8.3-7c-3.6-8.9-1.5-20.2,3-24.4c3.9-3.7,19.7-17.3,20.4-17.9l4.1-3.5l-0.8,5.3l-0.1,0.6
		c10.7-11.6,24.3-13.5,32.1-13.5c2.9,0,5.1,0.3,6.1,0.4c2.3-1,10.9-4.6,21.2-4.6c5.6,0,10.8,1.1,15.5,3.2l0,0l0,0
		c41.3,20.3,56.8,33,57.5,33.6l5,4.1l-6.4-0.6l-3.2-0.3c1,0.6,1.5,1,1.5,1l10.6,6.8l-7.9-2.1c12.4,7.9,27.5,21.2,42.7,43.7
		c12.1,18,18.6,33.7,18.7,33.8l3.7,9.1l-7-7c-1.6-1.6-3.3-3.1-4.9-4.5c0.1,0.3,0.2,0.4,0.2,0.5l1.9,4.2c9.6,13.9,11.8,25,12,25.6
		l1.1,5.8l-4.4-3.9c-1.6-1.5-3.3-2.9-4.9-4.3l0.5,4.8l-3.8-3.4c-14.1-12.4-25.3-19.7-33.6-24.1c18,13.4,23.2,22.3,23.4,22.8l2.2,3.9
		l-4.3-1c-10.3-2.3-20-3.4-28.8-3.4c-8.4,0-16,1.1-22.6,3.1c-4.2,8.8-12.4,18.3-18.2,23.9c-6.7,6.3-19.6,9.4-26.2,10.3
		c-3.2,4.1-12.3,12-25.1,18.2c-3.2,1.5-6.4,2.5-9.7,3l2.1,2l-5.5-0.4c-1.6-0.1-3-0.2-4.4-0.3c2,1.9,3.6,2.7,3.6,2.7l8.2,4l-9.1-0.2
		l-1.3,0c-14.1-0.3-26.3-0.6-45.5-19.3c-19.9-19.4-14.5-41.6-14.2-42.5l0.7-2.7l2.3,1.5c0.7,0.5,1.5,0.9,2.2,1.4
		c0.2-1.9,0.4-3,0.4-3.1l0.6-2.9l2.5,1.7c1.5,1.1,3.1,2,4.6,2.9l-0.2-4.4l-0.2-4.1l3.3,2.4l1.9,1.3c0.1-1.3,0.3-2.1,0.3-2.1l0.8-3.3
		c-0.3-2.2-0.6-4.1-1-5.7l-3.1-2.3c0,0-0.6-0.5-1.6-1.2l0.1,0.9l0.3,3.6l-3.2-1.6c-1.8-0.9-4-2.5-6-4.2l1.4,4.4l-4.4-2.4
		c-1-0.5-1.9-1.1-2.8-1.6l0,1.4l0,3.1l-2.8-1.3c-3.5-1.7-12.8-7.9-22.9-19.5C271.6,241.6,274,224.3,274.1,223.5z"/>
	<path class="st0" d="M612.7,531.5c-17.5,32.2-39.2,62.6-64.4,90.2c-3.2,3.5-6.4,6.9-9.7,10.3V512.6c-8.5-1.8-17-3.4-25.5-4.9
		c-49.6-8.6-85.3-9.9-102.1-9.9c-6.9,0-10.6,0.2-10.6,0.2l-0.3,0l-0.3,0c0,0-3.8-0.2-10.6-0.2c-16.9,0-52.6,1.3-102.2,9.9
		c-8.5,1.5-17,3.1-25.5,4.9V632c-3.3-3.4-6.5-6.8-9.7-10.3c-25.2-27.7-46.8-58-64.4-90.2c-4.2,1.3-8.3,2.5-12.5,3.9
		C257.4,689.2,400,746.5,400,746.5s142.6-57.3,225.2-211.1C621,534,616.8,532.7,612.7,531.5z M425.3,500.5c26.5,0,48,21.5,48,48
		c0,3.2-0.3,6.3-0.9,9.4c-6.4-11.8-18.8-19.8-33.1-19.8c-3.1,0-6.2,0.4-9.1,1.1c-4-15.8-17.9-27.5-34.8-28.3
		C403.6,504.4,414,500.5,425.3,500.5z M400,548.5c26.5,0,48,21.5,48,48c0,26.5-21.5,48-48,48s-48-21.5-48-48
		C352,570,373.5,548.5,400,548.5z M363.8,505.5c8.5,0,16.4,2.2,23.3,6c-16.6,2.9-29.4,16.7-30.9,33.8c-0.5,0-1,0-1.5,0
		c-16.6,0-30.6,10.7-35.6,25.6c-2.1-5.4-3.3-11.2-3.3-17.4C315.8,527,337.3,505.5,363.8,505.5z M351.2,663.4c-26.5,0-48-21.5-48-48
		c0-13.2,5.3-25.1,13.9-33.8c0,0.4,0,0.9,0,1.3c0,16,9.9,29.6,24,35.1c-1.7,4.3-2.7,9-2.7,13.9c0,13.1,6.7,24.6,16.8,31.3
		C353.9,663.3,352.6,663.4,351.2,663.4z M404.2,692.6c-18.6,0-34.7-10.5-42.6-26c4.5,1.9,9.3,2.9,14.5,2.9
		c11.4,0,21.7-5.1,28.6-13.2c6.4,5,14.5,8.1,23.2,8.1c8.6,0,16.4-2.9,22.8-7.7C445.3,677.3,426.5,692.6,404.2,692.6z M457.1,650.4
		c5.3-6.5,8.4-14.7,8.4-23.7c0-7.2-2-13.9-5.5-19.6c10.2-6.7,16.9-18.3,16.9-31.4c0-4.6-0.8-9-2.3-13.1
		c13.4,8.5,22.2,23.5,22.2,40.5C496.8,626.8,479.6,646.5,457.1,650.4z"/>
</g>
</svg>
