<?xml version="1.0" encoding="utf-8"?>
<!-- Generator: Adobe Illustrator 22.1.0, SVG Export Plug-In . SVG Version: 6.00 Build 0)  -->
<svg version="1.1" id="图层_1" xmlns="http://www.w3.org/2000/svg" xmlns:xlink="http://www.w3.org/1999/xlink" x="0px" y="0px"
	 viewBox="0 0 800 800" style="enable-background:new 0 0 800 800;" xml:space="preserve">
<style type="text/css">
	.st0{fill:#155097;}
</style>
<g>
	<path class="st0" d="M519.6,287.6c0,0-1.8-17-23.3-38.4c0,0,9.7,4,17.8,11.9c0,0-33.2-74.6-80.7-81.7c0,0,14.5-0.7,25.2,2.1
		c0,0-44.5-28.4-56.8-31.3c-12.2-3-18.1-3.6-30.7,1.3c0,0-30-3.3-39.6,19.1l1-9.6c0,0-15.6,13.9-18.6,16.9c-3,3-6.8,12.4-1.7,21.5
		c0,0-8.8,6.2-8.5,8.5c0.2,1.7,3.8,1.6,5.8,1.4l3.7-4.5l6.7,0.5l-3.2,4h-6.2c-2.8,1.5-24,12.9-26.7,15.7c0,0-6.4,25.9,27.9,44.9
		l-3.8-11.9c0,0,3-0.7,7.3,3.8s10.1,8.7,10.1,8.7l-1.3-10.7c0,0,7.3,0.3,9.2,12c2,11.7,0.8,14.5,0.8,14.5s-3.3-0.3-4.6-2.5
		c0,0-1.5,6.1,1,12c0,0-5.1-0.8-13.7-6.8c0,0-4.1,19.8,10.2,35.8c14.4,16,21.4,18.8,45.2,20.5l-7.8-7.4c0,0,17.2,6.9,44.2-20
		c0,0,17.7-1.3,24.4-8.7c6.8-7.4,16.8-23.6,16.8-23.6s23.1-6.6,49.7,0c0,0-3.5-9.2-33-29C466.5,256.8,484,256.3,519.6,287.6z
		 M387.6,168.6c10.3,2,17.6,14.9,18.8,21.6c3.4,1.6,24.1,11,34.7,10.3c12.7-0.8,31.8,14.9,48.6,40c0.3,0.5,0.2,1.1-0.3,1.4
		c-0.2,0.1-0.4,0.2-0.6,0.2c-0.3,0-0.6-0.2-0.8-0.4c-16.2-24.2-35-39.9-46.9-39.2c-12,0.8-35.1-10.3-36.1-10.7l-0.5-0.2l-0.1-0.5
		c-0.7-5.3-7.4-18.6-17.3-20.4c-9.8-1.9-19.1,5.9-19.2,6c-0.4,0.4-1,0.3-1.4-0.1c-0.4-0.4-0.3-1,0.1-1.4
		C367.1,174.7,376.8,166.6,387.6,168.6z M350.1,173.6c0.5-0.5,13.5-13.2,20.7-18.2c0.4-0.3,1.1-0.2,1.4,0.3c0.3,0.5,0.2,1.1-0.3,1.4
		c-7,4.8-20.3,17.8-20.4,18c-0.2,0.2-0.4,0.3-0.7,0.3c-0.3,0-0.5-0.1-0.7-0.3C349.7,174.6,349.7,174,350.1,173.6z M289.8,232.9
		c1.1-1.4,7.4,3.1,9.2,9.1c1.8,5.9,0.8,12.4-1.2,13C295.9,255.6,284.2,239.8,289.8,232.9z M308.3,265.5c0,0-6.3-1.6-9.7-7.9l4.8-2.8
		C303.3,254.8,306,263.1,308.3,265.5z M314.5,255h7.4l0.2,10.5L314.5,255z M326.7,309.1l-0.1,5c-11.1-5.6-7.4-21.3-7.4-21.3
		c9.5,6.7,15.8,5.4,15.8,5.4c-2.9-2.7-3.7-11.1-3.7-11.1s10.4,7.3,17.1,7c6.7-0.3,9.7-12.3,9.7-16c0-3.7,0-13.4,0-13.4
		c-0.1-16.3-19.3-17-22-16.2c-2.8,0.8-10.7,5.4-21.4,4.2c-10.7-1.2-13.9-7.7-14-13.9s7.8-9.5,10.7-10.1c2.9-0.6,0.5-5.8,3.8-9.8
		s13.7-8.2,15.5-6.3c1.9,1.9,4.8,2.1,5.9,0.9c1.1-1.2,4.8-4,6.4-2c2.1,4,6-3.1,6-3.1h1.5c2.6,6.4,14.9-6.6,14.9-6.6h-15
		c8.1-17.8,22.6-29,33.3-28.8c10.7,0.2,16.3,9.7,16.3,12.5c0,2.8-0.4,12.9-4.5,13.2c-4,0.3-6.6-6.1-6.6-9.3s-1.7-3.5-3-3.5
		s-2.1,0-2.1,0v-1.6h9.9c-3.5-4.5-9.1-3.8-11.1-2.5c-1.4,0.9-5.7,3.6-8.1,5c2.2,1.4,8.2,5.2,12.5,9.5c5.1,5.1,10.3,10.3,21.2,9.1
		c0.6-0.1,1.3-0.1,2-0.2c12-1.4,37-4.2,52.4,14.4c0.3,0.4,0.3,1-0.1,1.4c-0.2,0.2-0.4,0.2-0.6,0.2c-0.3,0-0.6-0.1-0.8-0.4
		c-14.6-17.8-38-15.2-50.6-13.7c-0.7,0.1-1.4,0.2-2,0.2c-11.9,1.3-17.7-4.5-22.8-9.7c-4.1-4.1-10-8-12.1-9.3l20,27.4
		c-4.6-2.8-10.7-2.9-18.6-2.6s-19.1,9.6-27.4,14.8c-8.2,5.3-30.4,8.6-30.4,8.6l24.1,0.7l-15.5,6.3c38.6-5.9,44.5,9.6,44.5,15.5
		c0,5.9,0.3,5.9,0,16.8s10.6,23.8,10.6,23.8l-11.3,0.1l6.3,7c-13.8,7.2-23.3,5.8-23.3,5.8l3.3,7
		C337.6,321.3,326.7,309.1,326.7,309.1z M375.6,333.4c-1.7,0.5-3.5,0.8-5.3,0.8c-4.2,0-8.6-1.5-13-4.3c-4.7-3-7.7-6.6-7.8-6.7
		c-0.4-0.4-0.3-1,0.1-1.4c0.4-0.4,1-0.3,1.4,0.1c0.1,0.1,11.6,13.5,23.9,9.6c0.5-0.2,1.1,0.1,1.2,0.6
		C376.4,332.7,376.1,333.2,375.6,333.4z M395.6,316.5c-1.3,0.4-2.6,0.6-3.8,0.6c-6.8,0-12.3-5.8-12.6-6.1c-0.4-0.4-0.4-1,0-1.4
		c0.4-0.4,1-0.4,1.4,0c0.1,0.1,7.1,7.4,14.3,4.9c0.5-0.2,1.1,0.1,1.3,0.6C396.4,315.8,396.1,316.4,395.6,316.5z M443.7,286.3
		c-0.2,0.5-0.8,0.8-1.3,0.6c-5.1-2.1-9,1.4-13,5.1c-0.4,0.3-0.7,0.6-1.1,0.9c-2,1.8-4.1,2.4-5.8,2.4c-1.7,0-3-0.5-3.8-1.1
		c-0.5-0.3-0.6-0.9-0.3-1.4c0.3-0.4,0.9-0.6,1.4-0.3c0.2,0.1,3.4,2.2,7.2-1.2c0.3-0.3,0.7-0.6,1-0.9c4.1-3.7,8.8-7.9,15.1-5.4
		C443.7,285.2,443.9,285.8,443.7,286.3z M486.3,278.4c0.5,0.2,0.7,0.8,0.4,1.3c-0.2,0.3-0.5,0.5-0.9,0.5c-0.2,0-0.3,0-0.5-0.1
		c-21.1-10.8-38.3-5.4-43.1-3.4c-9.3,3.8-15.1,2.9-25.7,1.4l-2.6-0.4c-12.5-1.8-30-16.9-30.7-17.6c-0.4-0.4-0.5-1-0.1-1.4
		c0.4-0.4,1-0.5,1.4-0.1c0.2,0.2,17.7,15.4,29.7,17.1l2.6,0.4c10.6,1.5,15.9,2.3,24.7-1.3C446.5,272.8,464.5,267.1,486.3,278.4z
		 M430.6,244.7c-1.7,0.4-3.4,0.7-5,0.9c-9.1,0.8-20.4-5.3-20.8-5.6c-0.5-0.3-0.7-0.9-0.4-1.3c0.3-0.5,0.9-0.7,1.3-0.4
		c0.1,0.1,11.2,6,19.7,5.3c1.5-0.1,3.1-0.5,4.7-0.8c8.3-1.8,19.6-4.3,49,11.3c0.5,0.3,0.7,0.9,0.4,1.3c-0.2,0.3-0.5,0.5-0.9,0.5
		c-0.2,0-0.3,0-0.5-0.1C449.4,240.5,438.5,242.9,430.6,244.7z"/>
	<circle class="st0" cx="400" cy="596.6" r="48"/>
	<path class="st0" d="M315.8,553.5c0,6.1,1.2,12,3.3,17.4c5-14.9,19.1-25.6,35.6-25.6c0.5,0,1,0,1.5,0c1.5-17.1,14.3-30.8,30.9-33.8
		c-6.9-3.8-14.8-6-23.3-6C337.3,505.5,315.8,527,315.8,553.5z"/>
	<path class="st0" d="M351.2,663.4c1.3,0,2.7-0.1,4-0.2c-10.1-6.7-16.8-18.2-16.8-31.3c0-4.9,1-9.6,2.7-13.9
		c-14-5.5-24-19.1-24-35.1c0-0.4,0-0.9,0-1.3c-8.6,8.7-13.9,20.6-13.9,33.8C303.2,641.9,324.7,663.4,351.2,663.4z"/>
	<path class="st0" d="M425.3,500.5c-11.3,0-21.7,3.9-29.9,10.4c16.8,0.7,30.8,12.5,34.8,28.3c2.9-0.7,5.9-1.1,9.1-1.1
		c14.3,0,26.8,8,33.1,19.8c0.6-3,0.9-6.2,0.9-9.4C473.3,522,451.8,500.5,425.3,500.5z"/>
	<path class="st0" d="M460,607.2c3.5,5.7,5.5,12.4,5.5,19.6c0,9-3.2,17.2-8.4,23.7c22.5-4,39.7-23.6,39.7-47.3
		c0-17-8.9-32-22.2-40.5c1.5,4.1,2.3,8.5,2.3,13.1C476.9,588.9,470.2,600.4,460,607.2z"/>
	<path class="st0" d="M404.6,656.3c-6.9,8.1-17.1,13.2-28.6,13.2c-5.1,0-10-1-14.5-2.9c8,15.4,24.1,26,42.6,26
		c22.3,0,41.1-15.2,46.4-35.9c-6.3,4.8-14.2,7.7-22.8,7.7C419.1,664.4,411,661.3,404.6,656.3z"/>
	<path class="st0" d="M453.1,435.4c-1.6-0.1-2.9,0.4-4,1.5c-1.1,1.1-1.8,2.9-2,5.4c-0.2,2.5,0.1,4.5,0.8,5.7c1,1.8,2.4,2.8,4.3,2.9
		c1.4,0.1,2.7-0.4,3.8-1.6c1.1-1.2,1.7-3,1.9-5.7c0.2-2.8-0.2-4.9-1.1-6.2C455.9,436.3,454.7,435.6,453.1,435.4z"/>
	<path class="st0" d="M170.5,475.2c-0.7,0.5-1.8,1.3-3.4,2.2c-1.6,0.9-2.6,1.7-3,2.2c-0.6,0.8-0.8,1.7-0.5,2.6
		c0.3,0.9,0.9,1.5,1.7,1.9c0.9,0.4,1.8,0.5,2.8,0.1c1.1-0.4,2.1-1.1,2.8-2.2c0.6-0.8,0.8-1.7,0.8-2.5c0-0.6-0.3-1.6-0.8-3.1
		L170.5,475.2z"/>
	<path class="st0" d="M392.7,433.5c-1.7,0-3.1,0.6-4.3,1.9c-1.2,1.3-1.7,3.2-1.7,5.6c0,2.4,0.6,4.3,1.7,5.6c1.2,1.3,2.6,2,4.3,2
		c1.7,0,3.1-0.6,4.3-1.9c1.2-1.3,1.7-3.2,1.7-5.7c0-2.4-0.6-4.3-1.7-5.6C395.9,434.2,394.4,433.5,392.7,433.5z"/>
	<path class="st0" d="M482.8,448.7c-0.9,0.5-1.4,1.2-1.5,2.1c-0.1,0.9,0.1,1.7,0.7,2.5c0.6,0.7,1.4,1.2,2.5,1.3
		c1.2,0.1,2.3-0.1,3.5-0.8c0.9-0.5,1.4-1.2,1.8-2c0.2-0.5,0.4-1.6,0.6-3.1l0.1-1.3c-0.9,0.2-2.2,0.4-4.1,0.5
		C484.7,448.2,483.4,448.4,482.8,448.7z"/>
	<path class="st0" d="M268.8,451.4c-0.8,0.4-2,1-3.7,1.6c-1.7,0.7-2.8,1.3-3.3,1.7c-0.7,0.7-1,1.6-0.9,2.5c0.2,0.9,0.6,1.6,1.4,2.2
		c0.8,0.5,1.7,0.7,2.7,0.5c1.2-0.2,2.2-0.8,3.1-1.7c0.7-0.7,1.1-1.5,1.2-2.4c0.1-0.6,0-1.6-0.3-3.2L268.8,451.4z"/>
	<path class="st0" d="M356.1,434.3c-1.7,0.1-3.1,0.8-4.2,2.1c-1.1,1.4-1.6,3.2-1.5,5.7c0.1,2.4,0.8,4.3,2,5.5
		c1.2,1.2,2.7,1.8,4.4,1.8c1.7-0.1,3.1-0.8,4.2-2.1c1.1-1.3,1.6-3.3,1.5-5.7c-0.1-2.4-0.8-4.2-2-5.5
		C359.2,434.8,357.8,434.2,356.1,434.3z"/>
	<path class="st0" d="M679.5,481.2c-1.5-0.5-2.9-0.3-4.3,0.5c-1.4,0.8-2.4,2.4-3.2,4.8c-0.8,2.4-1,4.3-0.6,5.8
		c0.5,2,1.7,3.3,3.5,3.9c1.4,0.4,2.7,0.2,4.1-0.6c1.3-0.9,2.4-2.5,3.3-5c0.9-2.7,1-4.8,0.4-6.3C682.1,482.7,681,481.7,679.5,481.2z"
		/>
	<path class="st0" d="M400,382.2c-187.1,0-350,75.2-350,75.2l49.4,100C275.6,485.5,400,493,400,493s124.4-7.6,300.6,64.3l49.4-100
		C750,457.4,587.1,382.2,400,382.2z M142.3,498.1l-5.8-13.7l-12.4,5.3l5.8,13.7l-6.3,2.7l-13.3-31.3l6.3-2.7l5.2,12.3l12.4-5.3
		l-5.2-12.3l6.3-2.7l13.3,31.3L142.3,498.1z M175.6,486c-0.3-0.4-0.7-0.9-1.2-1.6c-0.2-0.3-0.4-0.5-0.5-0.7
		c-0.7,1.4-1.6,2.5-2.6,3.5c-1,0.9-2.2,1.6-3.6,2.1c-2.4,0.8-4.5,0.8-6.3,0c-1.8-0.8-3.1-2.3-3.7-4.2c-0.4-1.3-0.5-2.6-0.2-3.8
		c0.3-1.2,0.9-2.3,1.8-3.3c1-0.9,2.4-2,4.4-3.1c2.7-1.5,4.5-2.7,5.5-3.5l-0.2-0.6c-0.4-1.2-1-1.9-1.7-2.2c-0.8-0.3-1.9-0.2-3.6,0.4
		c-1.1,0.4-1.9,0.9-2.4,1.5c-0.5,0.6-0.7,1.6-0.7,2.8l-5.9,0.9c-0.1-2.5,0.4-4.5,1.6-6.1c1.2-1.6,3.3-2.9,6.3-3.9
		c2.8-0.9,4.9-1.3,6.5-1.1c1.6,0.2,2.8,0.7,3.7,1.5c0.9,0.8,1.8,2.6,2.7,5.3l2.4,7.2c0.7,2.1,1.3,3.5,1.8,4.4
		c0.5,0.9,1.2,1.8,2.2,2.8L175.6,486z M207.9,476.5l-8.9-9l-2.1,3.9l2.1,7.6l-6.3,1.7l-9-32.8l6.3-1.7l4.8,17.4l5.1-10.4l7.7-2.1
		l-5.7,10.9l12.9,12.7L207.9,476.5z M240.1,468.8l-8.4-9.5l-2.3,3.8l1.7,7.7l-6.4,1.4l-7.3-33.2l6.4-1.4l3.9,17.6l5.6-10.1l7.8-1.7
		l-6.3,10.6l12.2,13.3L240.1,468.8z M272.2,462.8c-0.2-0.4-0.6-1-0.9-1.8c-0.2-0.4-0.3-0.6-0.4-0.7c-0.9,1.3-2,2.3-3.1,3
		c-1.2,0.7-2.4,1.2-3.9,1.5c-2.5,0.4-4.6,0.1-6.3-1c-1.7-1.1-2.7-2.7-3-4.8c-0.2-1.4-0.1-2.7,0.4-3.8c0.5-1.2,1.3-2.2,2.3-2.9
		c1.1-0.8,2.7-1.6,4.9-2.4c2.9-1.1,4.9-2,6-2.6l-0.1-0.6c-0.2-1.2-0.7-2.1-1.4-2.5c-0.7-0.4-1.9-0.5-3.6-0.2c-1.1,0.2-2,0.6-2.6,1.1
		c-0.6,0.6-0.9,1.4-1.2,2.6l-6-0.1c0.3-2.5,1.1-4.4,2.5-5.8c1.4-1.4,3.7-2.4,6.8-2.9c2.9-0.5,5.1-0.5,6.6-0.1
		c1.5,0.4,2.7,1.1,3.4,2.1c0.7,0.9,1.4,2.8,1.8,5.6l1.2,7.5c0.4,2.1,0.7,3.7,1.1,4.7c0.4,1,0.9,2,1.7,3.1L272.2,462.8z M315.2,436.9
		l14.1-1.3l0.5,5.7l-14.1,1.3L317,457l-6.8,0.6l-3.1-33.9l23.2-2.1l0.5,5.7l-16.4,1.5L315.2,436.9z M365.9,450.6
		c-2.3,2.6-5.3,3.9-8.9,4.1c-2.3,0.1-4.4-0.3-6.5-1.2c-2.1-0.9-3.7-2.4-4.9-4.3c-1.2-1.9-1.8-4.3-1.9-7.1c-0.1-2.2,0.3-4.3,1.3-6.4
		s2.4-3.7,4.3-4.8c1.9-1.2,4.1-1.8,6.5-1.9c3.7-0.2,6.8,0.9,9.3,3.2c2.5,2.3,3.8,5.3,4,9C369.3,444.9,368.2,448.1,365.9,450.6z
		 M401.8,450.3c-2.4,2.4-5.4,3.7-9.1,3.7c-2.3,0-4.4-0.5-6.5-1.5c-2-1-3.6-2.5-4.7-4.5c-1.1-2-1.6-4.4-1.6-7.2
		c0-2.2,0.5-4.3,1.6-6.3s2.6-3.6,4.5-4.6c2-1.1,4.1-1.6,6.6-1.6c3.7,0,6.8,1.2,9.2,3.6c2.4,2.4,3.6,5.5,3.6,9.2
		C405.4,444.7,404.2,447.8,401.8,450.3z M429.4,434.8l-4.5-0.2l-0.4,9.9c-0.1,2-0.1,3.2,0,3.5c0.1,0.3,0.3,0.6,0.5,0.8
		c0.3,0.2,0.7,0.3,1.1,0.4c0.6,0,1.5-0.2,2.6-0.5l0.4,5.1c-1.5,0.6-3.3,0.9-5.2,0.8c-1.2,0-2.2-0.3-3.2-0.7s-1.6-1-2-1.6
		c-0.4-0.6-0.7-1.5-0.8-2.6c-0.1-0.8-0.1-2.3,0-4.6l0.4-10.7l-3-0.1l0.2-5.2l3,0.1l0.2-4.9l6.7-3.6l-0.3,8.7l4.5,0.2L429.4,434.8z
		 M464.6,443.9c-0.3,4.2-1.5,7.4-3.7,9.5c-2.2,2.1-4.7,3.1-7.5,2.9c-1.4-0.1-2.8-0.6-4.1-1.4c-1.3-0.8-2.4-1.9-3.3-3.4l-0.3,3.6
		l-6-0.4l2.5-33.9l6.5,0.5l-0.9,12.2c2.2-2.1,4.6-3.1,7.4-2.9c3,0.2,5.4,1.5,7.2,3.8C464.2,436.7,464.9,439.9,464.6,443.9z
		 M497.4,444.3l-0.9,7.6c-0.2,2.2-0.3,3.7-0.2,4.8c0.1,1,0.4,2.2,0.8,3.4l-6.4-0.7c-0.1-0.4-0.3-1.1-0.4-2c-0.1-0.4-0.1-0.7-0.1-0.8
		c-1.2,1-2.5,1.6-3.8,2c-1.3,0.4-2.7,0.5-4.1,0.3c-2.5-0.3-4.4-1.2-5.7-2.7c-1.3-1.5-1.8-3.3-1.6-5.4c0.2-1.4,0.6-2.6,1.4-3.6
		c0.8-1,1.8-1.7,3.1-2.2s3-0.7,5.3-0.9c3.1-0.2,5.3-0.5,6.5-0.9l0.1-0.6c0.1-1.2-0.1-2.2-0.6-2.8c-0.6-0.6-1.7-1-3.4-1.2
		c-1.2-0.1-2.1,0-2.8,0.4c-0.7,0.4-1.3,1.1-1.8,2.2l-5.8-1.7c0.9-2.3,2.3-3.9,4-4.9c1.7-1,4.2-1.2,7.4-0.9c2.9,0.3,5,0.9,6.3,1.8
		c1.3,0.8,2.2,1.8,2.7,2.9C497.6,439.5,497.7,441.5,497.4,444.3z M515.2,462.7l-6.5-0.9l4.9-33.7l6.5,0.9L515.2,462.7z M535.1,465.9
		l-6.4-1.1l5.6-33.5l6.4,1.1L535.1,465.9z M578,466.1c1.1,2.1,2.9,3.5,5.3,4c1.8,0.4,3.4,0.2,5-0.7c1.5-0.8,2.9-2.4,4-4.7l6,3.5
		c-1.8,3.4-4.1,5.7-6.8,7c-2.7,1.2-5.8,1.5-9.4,0.7c-4.4-1-7.7-3.3-9.8-7c-2.2-3.6-2.7-8.1-1.5-13.3c1.2-5.5,3.6-9.5,7.2-11.9
		c3.5-2.4,7.6-3.1,12.3-2.1c4.1,0.9,7.1,2.9,9.1,5.8c1.2,1.8,1.9,4,2,6.9l-7,0.1c0-1.8-0.5-3.4-1.5-4.6c-1-1.3-2.4-2.1-4.2-2.5
		c-2.5-0.6-4.7-0.1-6.6,1.3c-1.9,1.4-3.3,4.1-4.2,8.1C576.8,460.8,576.9,463.9,578,466.1z M614.6,483.1l-6.3-1.6l8.5-32.9l6.3,1.6
		L614.6,483.1z M649.1,492.8l-5.8-1.7l1-3.5c-1.2,1-2.6,1.7-4.3,2c-1.6,0.3-3.2,0.3-4.8-0.2c-1.6-0.5-2.9-1.2-4-2.3
		c-1.1-1.1-1.7-2.3-1.9-3.7c-0.2-1.4,0-3.3,0.7-5.5l4.3-15l6.3,1.8l-3.1,10.9c-1,3.3-1.4,5.4-1.4,6.2c0,0.8,0.3,1.5,0.7,2.1
		c0.5,0.6,1.2,1.1,2.1,1.3c1.1,0.3,2.1,0.3,3.1,0c1-0.3,1.8-0.9,2.4-1.7c0.6-0.8,1.3-2.9,2.3-6.3l2.9-10l6.3,1.8L649.1,492.8z
		 M688.7,492.3c-1.3,4-3.3,6.8-5.9,8.3c-2.6,1.5-5.3,1.9-8,1c-1.3-0.4-2.5-1.2-3.6-2.3c-1.1-1.1-1.9-2.5-2.4-4.1l-1.1,3.4l-5.8-1.9
		l10.6-32.3l6.2,2l-3.8,11.6c2.6-1.5,5.2-1.9,7.9-1c2.9,0.9,4.9,2.7,6.1,5.4C690,485.1,689.9,488.4,688.7,492.3z"/>
	<path class="st0" d="M139.6,419.2c-0.5-1.5-1-3-1.4-4.6c-9.8-31.8-17-64.4-21.3-97c-7-52.3-5.9-96.3-3.7-133.9
		c2.5,0.1,5.3,0.1,8.3,0.1c59.9,0,90.1-12.4,104.9-22.7c36.9-25.9,46.6-54.1,48.1-94.7H400h125.6c1.5,40.6,11.3,68.8,48.1,94.7
		c14.8,10.4,44.9,22.7,104.9,22.7c3,0,5.8,0,8.3-0.1c2.2,37.6,3.3,81.6-3.7,133.9c-4.4,32.6-11.5,65.2-21.3,97c-0.5,1.5-1,3-1.4,4.6
		c4.2,1.3,8.3,2.6,12.3,3.9c34.3-108.2,30-196.2,26.2-252.7c0,0-81.2,5.9-117.8-19.8c-36.6-25.7-42.9-52.8-42.9-97H400H261.7
		c0,44.2-6.3,71.3-42.9,97c-36.6,25.7-117.8,19.8-117.8,19.8c-3.8,56.5-8.1,144.5,26.2,252.7C131.3,421.8,135.4,420.5,139.6,419.2z"
		/>
	<path class="st0" d="M612.6,531.5c-17.5,32.2-39.1,62.5-64.3,90.2c-21.6,23.7-45.9,45.6-72.2,65c-35.3,26.1-64.9,40.6-76.1,45.7
		c-11.2-5.1-40.8-19.7-76.1-45.7c-26.3-19.4-50.6-41.3-72.2-65c-25.2-27.7-46.8-58-64.3-90.2c-4.2,1.3-8.3,2.5-12.5,3.9
		C257.4,689.2,400,746.5,400,746.5s142.6-57.2,225.2-211.1C621,534.1,616.8,532.8,612.6,531.5z"/>
	<path class="st0" d="M605.8,577.1l86-17.9c-20.6-8.2-41.2-15.7-61.8-22.4C622.6,550.6,614.6,564,605.8,577.1z"/>
	<path class="st0" d="M108.2,559.2l86,17.9c-8.7-13-16.8-26.5-24.2-40.2C149.4,543.5,128.8,551,108.2,559.2z"/>
</g>
</svg>
