<?xml version="1.0" encoding="utf-8"?>
<!-- Generator: Adobe Illustrator 22.1.0, SVG Export Plug-In . SVG Version: 6.00 Build 0)  -->
<svg version="1.1" id="图层_1" xmlns="http://www.w3.org/2000/svg" xmlns:xlink="http://www.w3.org/1999/xlink" x="0px" y="0px"
	 viewBox="0 0 800 800" style="enable-background:new 0 0 800 800;" xml:space="preserve">
<style type="text/css">
	.st0{fill:#FE0000;}
	.st1{fill:#FFFFFF;}
</style>
<g>
	<g>
		<g>
			<path class="st0" d="M232.1,236.4l124.1-69.2l50.8-87.7H266.6c-32.6,0-59,26.4-59,59v184.5c0,32.6,26.4,59,59,59h21.6l6.2-69.8
				L232.1,236.4z"/>
			<path class="st0" d="M533.4,79.4H432.6l23.1,79.7l102.2,21.7l-127,127l-38.6,74.1h141.1c32.6,0,59-26.4,59-59V138.4
				C592.4,105.8,566,79.4,533.4,79.4z"/>
			<polygon class="st0" points="424.1,50 407.1,79.4 432.6,79.4 			"/>
			<polygon class="st0" points="274.4,535.6 286.4,502.8 276.1,555.3 297.3,505.8 296.7,517.2 303.9,504.9 289.6,554.7 289.6,578.9 
				392.3,381.9 288.2,381.9 			"/>
		</g>
		<polygon class="st1" points="455.7,159.1 432.6,79.4 407.1,79.4 356.2,167.1 232.1,236.4 294.4,312.1 288.2,381.9 392.3,381.9 
			430.9,307.8 557.9,180.7 		"/>
	</g>
	<g>
		<path d="M98.2,615.2h2.7l4.8,15l-3.5,0.8c-1.9-3.5-3.4-5.8-4.3-7c-1.6-1.9-3.7-3.4-6.1-4.5c-2.4-1.1-5.1-1.7-8-1.7
			c-3.4,0-6.6,0.8-9.5,2.3c-2.9,1.6-5.2,3.8-7,6.9c-1.8,3-2.7,6.4-2.7,10.2c0,3.9,0.9,7.3,2.7,10.4c1.8,3,4.3,5.4,7.4,7
			c3.1,1.6,6.4,2.5,10,2.5c3.4,0,6.8-0.8,10.4-2.5c3.5-1.6,6.6-3.9,9.2-6.9l3,1.8c-1.6,2-3.3,3.7-5.1,5c-2.9,2.2-5.9,3.8-9,4.9
			c-3.1,1.1-6.6,1.6-10.3,1.6c-8.3,0-15-2.6-20.1-7.8c-4.3-4.3-6.4-9.4-6.4-15.4c0-4.4,1.2-8.3,3.5-11.9c2.4-3.5,5.6-6.3,9.8-8.4
			c4.2-2.1,8.6-3.1,13.4-3.1c2.6,0,4.9,0.3,7.1,0.9c2.2,0.6,4.4,1.5,6.7,2.9L98.2,615.2z"/>
		<path d="M116.4,615.2H137v2.7h-1.4c-1.6,0-2.8,0.1-3.5,0.4c-0.7,0.3-1.2,0.7-1.5,1.4c-0.2,0.5-0.3,1.5-0.3,3v12.5H158V623
			c0-1.7-0.1-2.7-0.2-3c-0.2-0.7-0.6-1.2-1.3-1.6c-0.7-0.3-1.7-0.5-3.1-0.5h-2.1v-2.7h20.5v2.7h-1.8c-1.4,0-2.4,0.1-3,0.4
			c-0.6,0.3-1,0.6-1.3,1.1c-0.2,0.5-0.4,1.5-0.4,3v30.6c0,1.7,0.1,2.8,0.4,3.2c0.3,0.5,0.8,0.8,1.5,1c0.5,0.1,2,0.2,4.6,0.2v2.7
			h-20.5v-2.7h1.5c1.9,0,3.1-0.1,3.8-0.3c0.6-0.2,1-0.6,1.2-1c0.2-0.4,0.2-1.5,0.2-3.4v-14h-27.7v14.4c0,1.7,0.1,2.8,0.4,3.3
			c0.3,0.5,0.8,0.8,1.6,1c0.6,0.1,2.2,0.2,4.8,0.2v2.7h-20.6v-2.7h1.3c2,0,3.2-0.1,3.7-0.3s0.9-0.5,1.2-1c0.3-0.5,0.4-1.4,0.4-2.7
			v-31c0-1.4-0.1-2.4-0.4-2.9c-0.3-0.5-0.7-0.9-1.3-1.2c-0.6-0.3-1.5-0.4-2.9-0.4h-2.1V615.2z"/>
		<path d="M183.2,615.2h17.7v2.7h-1.4c-1.3,0-2.2,0.2-2.8,0.5c-0.6,0.3-1,0.8-1.3,1.5c-0.3,0.6-0.4,1.9-0.4,3.7v29
			c0,1.5,0.1,2.5,0.4,3.1c0.3,0.6,0.7,1.1,1.2,1.3c0.5,0.3,1.5,0.4,2.8,0.4h1.4v2.7h-17.7v-2.7h1.5c1.3,0,2.2-0.1,2.8-0.4
			c0.5-0.3,0.9-0.7,1.2-1.3c0.2-0.5,0.4-1.6,0.4-3.2v-29.7c0-1.7-0.1-2.8-0.4-3.4c-0.2-0.6-0.6-1-1.2-1.3c-0.5-0.3-1.5-0.4-2.8-0.4
			h-1.5V615.2z"/>
		<path d="M211.3,615.2H228l24.7,33.7v-25.7c0-1.5-0.2-2.6-0.5-3.3c-0.4-0.7-0.9-1.2-1.6-1.5c-0.7-0.3-1.8-0.5-3.2-0.5h-1.4v-2.7
			h18.2v2.7h-1c-1.6,0-2.7,0.1-3.3,0.3c-0.8,0.3-1.4,0.9-1.8,1.7c-0.4,0.8-0.6,1.9-0.6,3.4v36.9h-4.7l-29.8-40.5v32.1
			c0,1.8,0.1,2.9,0.2,3.3c0.2,0.5,0.5,0.9,1,1.4c0.5,0.4,1,0.7,1.7,0.8c0.6,0.2,2,0.2,3.9,0.3v2.7h-18.4v-2.7h1
			c1.9,0,3.1-0.2,3.8-0.5c0.7-0.3,1.2-0.8,1.5-1.5c0.4-0.7,0.5-2,0.5-3.7v-28.5c0-1.8-0.1-2.9-0.2-3.3c-0.2-0.7-0.7-1.3-1.3-1.6
			c-0.7-0.3-2-0.5-4-0.5h-1.4V615.2z"/>
		<path d="M293.3,615.2h6.3l16.7,37.6c0.8,1.9,1.6,3.1,2.5,3.8c0.8,0.6,2,0.9,3.4,0.9h0.8v2.7h-19.1v-2.7c0.6,0,1.2-0.1,1.8-0.1
			c1.2,0,2-0.1,2.4-0.3c0.7-0.4,1.1-0.9,1.1-1.5c0-0.5-0.4-1.6-1.1-3.3l-3.5-8.7h-19.4l-4.2,9.7c-0.4,1-0.7,1.7-0.7,2.1
			c0,0.4,0.1,0.8,0.4,1.1c0.3,0.3,0.6,0.6,1.1,0.7c0.5,0.2,1.2,0.2,2.2,0.2c0.7,0,1.3,0,1.7,0v2.7h-16v-2.7c1.5,0,2.6-0.1,3.2-0.4
			c0.7-0.2,1.2-0.6,1.7-1.2c0.5-0.5,1.1-1.7,1.9-3.5L293.3,615.2z M286.5,640.4h16.5l-8.2-19.4L286.5,640.4z"/>
		<path d="M393.2,615.2h21v2.7h-1.9c-1.5,0-2.6,0.1-3.2,0.4c-0.6,0.2-1.1,0.6-1.4,1c-0.3,0.5-0.4,1.3-0.4,2.4v31.4
			c0,1.4,0.1,2.3,0.2,2.6c0.2,0.4,0.5,0.7,1,0.8c0.4,0.1,1.4,0.2,3.1,0.2h2.9c3.3,0,6.2-0.4,8.7-1.2c2.5-0.8,4.6-2,6.4-3.5
			s3.5-3.8,5.2-6.9l3.4,1l-6,14.1h-38.9v-2.7h1.7c1.7,0,2.8-0.1,3.3-0.4c0.6-0.2,1-0.6,1.3-1.2c0.3-0.5,0.5-1.5,0.5-2.8v-30.6
			c0-1.6-0.1-2.6-0.4-3.1c-0.3-0.5-0.7-0.9-1.2-1.1c-0.5-0.2-1.7-0.3-3.4-0.3h-1.7V615.2z"/>
		<path d="M443.9,615.2h43.6l5,11.8l-3.4,1.1c-0.8-1.9-1.8-3.5-2.8-4.6c-1-1.1-2.2-2-3.6-2.8s-2.8-1.3-4.2-1.5
			c-1.4-0.3-4-0.4-7.7-0.4h-13v16.5h6.5c2.4,0,4.2-0.3,5.4-1c1.2-0.7,2.1-1.5,2.5-2.5c0.4-0.8,0.5-2.1,0.5-3.9V627h3.8v19.7h-3.8
			v-1.7c0-1.5-0.1-2.6-0.4-3.3c-0.3-0.7-0.8-1.3-1.5-1.9c-0.7-0.6-1.5-1-2.3-1.2c-0.8-0.2-2.3-0.3-4.3-0.3h-6.5V653
			c0,1.5,0.1,2.5,0.2,2.8c0.2,0.3,0.4,0.6,0.8,0.7c0.4,0.1,1.4,0.2,3.2,0.2h8c4.5,0,8-0.5,10.5-1.4c2.5-0.9,4.8-2.3,6.7-4.2
			c1.5-1.5,3-3.5,4.3-6.2l3.5,1l-6,14.1h-45.3v-2.7h1.5c1.8,0,2.9-0.1,3.3-0.3c0.7-0.3,1.2-0.7,1.5-1.3c0.3-0.4,0.4-1.4,0.4-2.8v-31
			c0-1.4-0.2-2.4-0.5-2.8c-0.3-0.5-0.9-0.8-1.7-1.1c-0.4-0.2-2-0.2-4.6-0.2V615.2z"/>
		<path d="M523.9,615.2h6.4l17,37.6c0.8,1.9,1.7,3.1,2.5,3.8c0.8,0.6,2,0.9,3.4,0.9h0.9v2.7h-19.4v-2.7c0.6,0,1.2-0.1,1.8-0.1
			c1.3,0,2.1-0.1,2.5-0.3c0.8-0.4,1.1-0.9,1.1-1.5c0-0.5-0.4-1.6-1.1-3.3l-3.6-8.7h-19.7l-4.3,9.7c-0.4,1-0.7,1.7-0.7,2.1
			c0,0.4,0.1,0.8,0.4,1.1c0.3,0.3,0.6,0.6,1.1,0.7c0.5,0.2,1.2,0.2,2.3,0.2c0.7,0,1.3,0,1.7,0v2.7h-16.3v-2.7c1.5,0,2.6-0.1,3.3-0.4
			c0.7-0.2,1.2-0.6,1.7-1.2c0.5-0.5,1.1-1.7,2-3.5L523.9,615.2z M517,640.4h16.8l-8.4-19.4L517,640.4z"/>
		<path d="M603,615.2h2.9l4.5,13.9l-3.5,1c-2.4-4.4-5.1-7.5-8.1-9.4s-6.5-2.8-10.4-2.8c-5.6,0-10.3,1.9-14,5.7
			c-3.8,3.8-5.7,8.3-5.7,13.6c0,3.8,1,7.3,2.9,10.4c1.9,3.2,4.5,5.6,7.7,7.2c3.2,1.7,6.7,2.5,10.3,2.5c2.3,0,4.6-0.3,6.7-1
			c2.1-0.7,3.8-1.5,5.1-2.5c1-0.7,1.6-1.5,2-2.4c0.3-0.9,0.5-2.1,0.5-3.7v-2.1c0-1.7-0.2-2.9-0.7-3.6c-0.5-0.7-1.2-1.2-2.1-1.5
			c-0.7-0.2-2.5-0.4-5.5-0.4v-2.7h22.2v2.7h-1.8c-1.5,0-2.6,0.1-3.2,0.4s-1,0.6-1.2,1.1c-0.3,0.5-0.4,1.5-0.4,3v15.6h-3.9l-2.1-3.9
			c-2.2,1.3-4.5,2.3-7,3.1c-3.7,1.1-7.4,1.6-11.1,1.6c-7.4,0-13.7-2.2-18.9-6.7c-5.3-4.4-7.9-10-7.9-16.6c0-6.6,2.7-12.1,8-16.6
			c5.3-4.5,11.7-6.7,19.1-6.7c1.9,0,3.7,0.2,5.5,0.5c1.8,0.3,3.5,0.7,5,1.3c1.1,0.4,2.4,1.1,3.9,2L603,615.2z"/>
		<path d="M626,615.2h20.4v2.7H645c-1.7,0-2.8,0.1-3.6,0.4c-0.6,0.2-1,0.6-1.2,1.1c-0.3,0.5-0.4,1.6-0.4,3.1v20.3
			c0,3.6,0.5,6.3,1.5,8c1,1.7,2.7,3.2,5.1,4.4s5,1.8,7.8,1.8c2.9,0,5.6-0.6,8.2-1.9c2.6-1.3,4.4-2.8,5.4-4.5c1-1.7,1.6-4.5,1.6-8.3
			v-19.5c0-1.4-0.2-2.5-0.5-3.1c-0.3-0.6-0.8-1.1-1.5-1.4c-0.7-0.3-1.7-0.5-3.1-0.5h-1.5v-2.7h17.7v2.7h-1.2c-2,0-3.4,0.3-4.1,1
			c-0.7,0.6-1.1,1.9-1.1,3.7v20.7c0,3.8-0.8,6.9-2.5,9.5c-1.7,2.5-4.1,4.5-7.3,6s-6.9,2.2-11.1,2.2c-4,0-7.6-0.8-10.9-2.3
			c-3.3-1.5-5.7-3.4-7.3-5.6c-1.6-2.2-2.3-5.1-2.3-8.5v-22.1c0-1.4-0.2-2.4-0.5-3c-0.3-0.6-0.7-1-1.3-1.3c-0.6-0.3-1.6-0.4-3-0.4
			H626V615.2z"/>
		<path d="M691.2,615.2h44.7L741,627l-3.5,1.1c-0.9-1.9-1.8-3.5-2.8-4.6c-1-1.1-2.3-2-3.7-2.8s-2.9-1.3-4.3-1.5
			c-1.5-0.3-4.1-0.4-7.9-0.4h-13.3v16.5h6.6c2.4,0,4.3-0.3,5.5-1c1.3-0.7,2.1-1.5,2.6-2.5c0.4-0.8,0.6-2.1,0.6-3.9V627h3.9v19.7
			h-3.9v-1.7c0-1.5-0.1-2.6-0.4-3.3c-0.3-0.7-0.8-1.3-1.5-1.9c-0.7-0.6-1.5-1-2.4-1.2c-0.9-0.2-2.3-0.3-4.4-0.3h-6.6V653
			c0,1.5,0.1,2.5,0.3,2.8c0.2,0.3,0.5,0.6,0.8,0.7c0.4,0.1,1.5,0.2,3.2,0.2h8.2c4.6,0,8.2-0.5,10.8-1.4c2.6-0.9,4.9-2.3,6.8-4.2
			c1.5-1.5,3-3.5,4.5-6.2l3.6,1l-6.1,14.1h-46.4v-2.7h1.6c1.8,0,3-0.1,3.4-0.3c0.7-0.3,1.2-0.7,1.6-1.3c0.3-0.4,0.4-1.4,0.4-2.8v-31
			c0-1.4-0.2-2.4-0.5-2.8s-0.9-0.8-1.8-1.1c-0.4-0.2-2-0.2-4.7-0.2V615.2z"/>
	</g>
	<g>
		<path d="M80.9,730H59.9c-2.1,0-3.5-0.3-4.3-0.8c-0.8-0.6-1.2-2-1.2-4.4v-22.6c0-2.2,0.4-3.7,1.1-4.3c0.7-0.6,2.2-0.9,4.5-0.9h20.9
			v-12.5c0-0.9,0.5-1.3,1.5-1.3c1.1,0,1.6,0.4,1.6,1.3v12.5h21.3c2.5,0,4.1,0.3,4.8,1.1c0.6,0.6,0.9,2,0.9,4.3v22.6
			c0,2.3-0.4,3.8-1.2,4.4c-0.8,0.6-2.3,0.8-4.4,0.8H84v18.5c0,0.9-0.4,1.3-1.2,1.3c-0.8,0-1.3-0.1-1.6-0.3c-0.3-0.2-0.4-0.6-0.4-1.1
			V730z M80.9,727v-27.2H60c-1.7,0-2.5,0.7-2.5,2.2v22.8c0,1.4,0.8,2.2,2.5,2.2H80.9z M84,699.8V727h21.4c0.7,0,1.4-0.2,1.9-0.6
			c0.5-0.4,0.7-0.9,0.7-1.5V702c0-1.5-0.9-2.2-2.6-2.2H84z"/>
		<path d="M181.4,741.7c0,2.5-0.4,4.1-1.2,4.8c-0.8,0.7-2.2,1-4.3,1h-47c-1.1,0-1.9-0.1-2.6-0.2c-0.7-0.2-1.2-0.5-1.6-0.9
			c-0.4-0.4-0.7-1-0.8-1.8c-0.1-0.7-0.2-1.7-0.2-2.9v-49c0-2.3,0.3-3.8,0.9-4.4c0.6-0.7,2-1.1,4.2-1.1H176c2.4,0,3.9,0.4,4.5,1.1
			c0.6,0.7,0.9,2.2,0.9,4.5V741.7z M178.4,741.7v-48.9c0-0.8-0.2-1.4-0.7-1.9c-0.4-0.5-1-0.7-1.8-0.7H129c-1.5,0-2.3,0.9-2.3,2.6
			v48.9c0,0.8,0.2,1.5,0.7,2c0.4,0.5,1,0.8,1.6,0.8h46.9C177.5,744.5,178.4,743.5,178.4,741.7z M150.5,699.4h-18.1
			c-1,0-1.5-0.5-1.5-1.4c0-0.9,0.5-1.4,1.5-1.4h39.5c1,0,1.5,0.5,1.5,1.4c0,0.9-0.5,1.4-1.5,1.4h-18.5v14.3h16.4
			c1,0,1.5,0.5,1.5,1.4c0,0.9-0.5,1.4-1.5,1.4h-16.4v18.3H174c1,0,1.5,0.5,1.5,1.4s-0.5,1.4-1.5,1.4h-41.6c-1,0-1.5-0.5-1.5-1.4
			s0.5-1.4,1.5-1.4h18.1v-18.3h-16c-1,0-1.5-0.5-1.5-1.4c0-0.9,0.5-1.4,1.5-1.4h16V699.4z M161.1,719c0.3,0,0.7,0.2,1,0.5
			c0.2,0.2,0.6,0.6,1.2,1.3c0.6,0.7,1.4,1.7,2.3,2.9c1,1.2,1.9,2.3,2.6,3.2c0.7,0.9,1.3,1.7,1.7,2.3c0.8,1.2,1.3,2,1.3,2.3
			c0,0.3-0.2,0.6-0.5,0.9c-0.3,0.3-0.7,0.4-1.2,0.4c-0.4,0-1-0.5-1.6-1.4c-2.2-3.5-4.7-6.7-7.4-9.8c-0.6-0.7-0.8-1.4-0.6-1.9
			C160.2,719.2,160.5,719,161.1,719z"/>
		<path d="M202,729.5c-0.4,1.3-0.8,2.6-1.3,3.8c-0.5,1.2-1.1,2.4-1.8,3.6c-0.7,1.2-1.3,2.4-2,3.5c-0.7,1.1-1.4,2.2-2.2,3.2
			c-1.5,2.1-2.5,3.3-2.9,3.6c-0.3,0.3-0.6,0.4-1,0.4c-0.4,0-0.7-0.1-0.9-0.4c-0.2-0.2-0.3-0.6-0.3-1.1c0-0.5,0.4-1.1,0.9-1.8
			c3.4-3.6,5.9-7.4,7.5-11.6c0.8-2.1,1.5-4.5,2.1-7.1c0.6-2.6,1.2-5.6,1.6-8.9c0.2-1.7,0.7-2.6,1.7-2.6c0.9,0,1.3,0.5,1.3,1.5
			c0,1.8-0.5,5-1.5,9.7c2.1,4.7,4.6,8.4,7.5,11c3,2.7,6.9,4.7,11.6,6.2v-32.2h-19.5c-3,0-4.5-1.4-4.5-4.3v-14.7
			c0-1.5,0.4-2.6,1.1-3.3c0.7-0.7,1.8-1,3.4-1h40.8c1.6,0,2.8,0.3,3.5,1c0.7,0.7,1.1,1.8,1.1,3.3V706c0,1.5-0.4,2.6-1.1,3.3
			c-0.7,0.7-1.9,1-3.5,1h-18.2v13.7h26.4c0.8,0,1.3,0.5,1.3,1.5c0,1-0.4,1.5-1.3,1.5h-26.4v16.4c1.9,0.4,4.4,0.7,7.6,0.9
			c3.2,0.2,7,0.3,11.6,0.3l9-0.1c1.6,0,2.5,0.5,2.5,1.6c0,0.6-0.2,1-0.7,1.2c-0.4,0.2-1.2,0.3-2.2,0.3c-4.9,0-9.2,0-12.8-0.1
			c-3.6-0.1-6.6-0.2-9-0.4c-4.6-0.3-8.2-0.9-10.7-1.8c-3.8-1.4-7.3-3.3-10.7-5.9C206.6,736.7,204,733.4,202,729.5z M245.2,705.7
			v-14.2c0-1.1-0.7-1.7-2-1.7h-40c-1.3,0-1.9,0.6-1.9,1.7v14.2c0,1.1,0.6,1.7,1.9,1.7h40C244.5,707.4,245.2,706.9,245.2,705.7z"/>
		<path d="M270,692.5h-9.1c-0.3,0-0.6-0.1-0.9-0.4c-0.3-0.3-0.4-0.6-0.4-0.9c0-0.9,0.4-1.3,1.3-1.3h20.4c0.9,0,1.4,0.4,1.4,1.3
			c0,0.4-0.1,0.7-0.4,0.9c-0.3,0.3-0.6,0.4-1,0.4h-8.6v18.4h8c0.4,0,0.7,0.1,1,0.4c0.2,0.3,0.4,0.6,0.4,0.9c0,0.3-0.1,0.6-0.4,0.9
			c-0.2,0.3-0.6,0.4-1,0.4h-8v22.7c1.3-0.7,2.5-1.4,3.7-2.1c1.1-0.7,2.2-1.4,3.3-2.2c0.7-0.5,1.3-0.8,1.7-0.8c0.4,0,0.7,0.2,0.9,0.5
			c0.3,0.3,0.4,0.6,0.4,1c0,0.4-0.3,0.7-0.8,1.1c-0.2,0.2-0.8,0.6-1.7,1.2c-0.9,0.6-2.2,1.3-3.8,2.3c-1.6,0.9-3.2,1.8-4.8,2.6
			c-1.5,0.8-3.1,1.4-4.6,2c-1.5,0.6-2.7,1-3.6,1.3c-0.9,0.3-1.7,0.4-2.2,0.5c-0.5,0-0.9-0.1-1.1-0.3c-0.2-0.2-0.3-0.6-0.3-1
			c0-0.7,0.6-1.2,1.8-1.5c2.6-0.6,5.4-1.7,8.4-3.2v-24h-8c-0.3,0-0.6-0.1-0.9-0.4c-0.3-0.3-0.4-0.6-0.4-0.9c0-0.9,0.4-1.3,1.3-1.3h8
			V692.5z M298.3,720.4c0.3,0,0.6,0.2,0.9,0.5c0.3,0.3,0.5,0.6,0.5,0.9c0,0.3-0.3,0.9-0.8,1.6c-0.2,0.4-0.7,1-1.5,1.9
			c-0.8,0.9-1.8,2-3,3.4c-2.5,2.7-4.8,4.9-6.9,6.9c-2.1,1.9-3.6,3.2-4.6,3.8c-0.9,0.6-1.6,0.9-1.9,0.9c-0.2,0-0.4-0.2-0.7-0.3
			c-0.3-0.2-0.5-0.4-0.6-0.7c-0.1-0.3-0.1-0.6,0.1-1c0.2-0.4,0.7-0.8,1.4-1.3c4.6-3.1,9.6-8.1,15.1-15
			C297.1,721,297.7,720.4,298.3,720.4z M308.4,717.2c1.8-1.8,3.4-3.6,5-5.5c1.5-1.9,2.9-3.9,4.1-6c0.3-0.6,0.7-0.9,1-1.1
			c0.4-0.1,0.7-0.2,1-0.1c0.3,0.1,0.5,0.3,0.7,0.5c0.2,0.3,0.3,0.5,0.3,0.7c0,0.9-1.6,3.3-4.8,7.3c-3.2,4-5.3,6.1-6.1,6.3
			c4.6,8.3,9.5,14.5,14.8,18.8c0.6,0.5,0.9,0.9,1.1,1.3c0.1,0.4,0.2,0.8,0.1,1.1c-0.1,0.3-0.3,0.6-0.5,0.8c-0.3,0.2-0.5,0.3-0.7,0.3
			c-0.3,0-0.8-0.2-1.4-0.6c-0.3-0.2-0.8-0.7-1.6-1.5c-0.8-0.8-1.8-1.9-3.1-3.2c-2.5-2.8-5-6-7.3-9.5c-2.3-3.5-4.5-7.6-6.4-12v29.1
			c0,1.2-0.3,2.2-0.8,3c-0.5,0.8-1.2,1.3-2.1,1.7c-0.9,0.4-1.9,0.5-3,0.4c-1.1-0.1-2.3-0.4-3.5-0.9c-1.7-0.6-2.5-1.1-2.5-1.7
			c0-0.5,0.1-1,0.4-1.3c0.3-0.3,0.6-0.5,1.1-0.5c0.4,0,0.9,0.1,1.2,0.3c1.7,0.9,3.1,1.3,4.1,1.3c1.5,0,2.3-1.2,2.3-3.6v-43.6H284
			c-0.8,0-1.3-0.4-1.3-1.3c0-0.9,0.4-1.4,1.3-1.4h17.7v-11.6c0-0.9,0.5-1.3,1.4-1.3c0.9,0,1.4,0.4,1.4,1.3v11.6h18.6
			c0.9,0,1.3,0.5,1.3,1.4c0,0.9-0.4,1.3-1.3,1.3h-18.6V709c0.6,1.4,1.2,2.7,1.9,4.1C307,714.5,307.7,715.9,308.4,717.2z
			 M287.1,703.1c0.4,0,0.8,0.2,1.2,0.6c0.3,0.4,1.3,2,2.9,4.6c0.8,1.3,1.5,2.5,2.1,3.5c0.6,1,1.1,1.9,1.5,2.6
			c0.8,1.4,1.2,2.3,1.2,2.8c0,0.4-0.2,0.8-0.5,1c-0.3,0.2-0.6,0.4-1,0.4c-0.4,0-0.9-0.6-1.5-1.8c-0.8-1.6-1.7-3.3-2.8-5
			c-1.1-1.8-2.4-3.7-3.8-5.8c-0.7-0.9-0.8-1.6-0.6-2.1C286.2,703.3,286.6,703.1,287.1,703.1z M321.3,692.6c0,0.3-0.1,0.6-0.4,0.9
			c-0.3,0.3-0.6,0.5-0.9,0.5c-0.3,0-1.1-0.5-2.2-1.5c-0.5-0.5-1.4-1.2-2.5-2.1c-1.2-0.9-2.6-1.9-4.4-3.1c-0.6-0.3-0.9-0.6-1-0.8
			c-0.1-0.3-0.1-0.5,0-0.8c0.1-0.2,0.3-0.4,0.5-0.6c0.3-0.2,0.5-0.3,0.7-0.4c0.4,0,1.2,0.5,2.6,1.4c0.7,0.5,1.4,1,2.1,1.5
			c0.7,0.5,1.4,1,2.1,1.5c1.4,1.1,2.4,1.8,2.8,2.3C321.1,691.8,321.3,692.3,321.3,692.6z"/>
		<path d="M341.5,699.5h7.8c0.8,0,1.3,0.5,1.3,1.4c0,0.9-0.4,1.4-1.3,1.4h-7.8V748c0,0.8-0.5,1.3-1.4,1.3c-0.9,0-1.4-0.4-1.4-1.3
			v-45.7h-8.3c-0.8,0-1.2-0.5-1.2-1.4c0-0.9,0.4-1.4,1.2-1.4h8.3v-14.6c0-0.8,0.5-1.2,1.4-1.2c0.9,0,1.4,0.4,1.4,1.2V699.5z
			 M356.6,708.2c0,1.9-0.4,4.6-1.3,8.2c-0.8,3.6-1.8,6.9-2.9,9.8c-1.1,2.8-1.9,4.6-2.5,5.3c-0.5,0.6-0.9,0.9-1.2,0.9s-0.7-0.1-1-0.3
			c-0.3-0.2-0.5-0.6-0.5-1c0-0.4,0.2-1,0.6-1.8c0.8-1.5,1.5-3.2,2.2-4.9c0.7-1.7,1.3-3.6,1.8-5.5c1.1-3.9,1.8-7.4,1.9-10.3
			c0.1-1,0.2-1.6,0.4-1.8c0.2-0.3,0.7-0.5,1.4-0.5C356.2,706.4,356.6,707,356.6,708.2z M369.1,695.8v5c0,8.2-1.1,15.9-3.4,23.3
			c-2.2,7.3-5.1,13.2-8.6,17.8c-3.5,4.6-6,6.9-7.4,6.9c-0.3,0-0.6-0.1-0.9-0.4c-0.3-0.3-0.4-0.5-0.4-0.9c0-0.7,0.7-1.7,2.2-3.1
			c4.8-4.2,8.5-10.3,11.3-18.2c2.8-7.9,4.1-16.5,4.1-25.9v-4.5h-12.5c-1,0-1.5-0.4-1.5-1.3c0-1,0.5-1.5,1.5-1.5h12.5v-8.2
			c0-1.1,0.5-1.6,1.5-1.6c1,0,1.5,0.5,1.5,1.6v8.2h7.8c1.9,0,3.4,0.3,4.4,1c0.5,0.3,0.9,0.6,1.3,1.1c0.3,0.4,0.6,1,0.8,1.6
			c0.2,0.7,0.3,1.5,0.4,2.4c0.1,1,0.1,2.1,0.1,3.5c0,4.6-0.1,8.9-0.2,12.9c-0.1,4-0.3,7.7-0.6,11.2c-0.5,6.8-1.2,11.4-2.2,13.9
			c-0.9,2.4-2.4,4.3-4.3,5.7c-1.9,1.4-4.1,2.1-6.5,2.1c-1.4,0-3.2-0.2-5.3-0.6c-1.1-0.2-1.9-0.4-2.6-0.6c-0.6-0.2-1.1-0.4-1.4-0.5
			c-0.3-0.2-0.5-0.4-0.6-0.6c-0.1-0.2-0.1-0.5-0.1-0.7c0-1,0.4-1.5,1.3-1.5c0.6,0,1.1,0.1,1.8,0.3c2.9,0.8,5.4,1.2,7.5,1.2
			c2,0,3.7-0.7,4.9-2c1.3-1.3,2.3-3.2,3.1-6c0.8-2.7,1.4-7.1,1.8-13.3c0.4-6.2,0.6-14,0.6-23.5c0-1.6-0.2-2.8-0.7-3.6
			c-0.5-0.7-1.3-1.1-2.4-1.1H369.1z M388.1,706.8c0.4,0,0.7,0.2,1,0.7c0.3,0.5,0.9,2.3,1.8,5.4c0.5,1.6,1,3.3,1.5,5.2
			c0.5,1.9,1,4,1.5,6.3c0.5,2.3,0.9,4.1,1.2,5.4c0.3,1.3,0.4,2.1,0.4,2.5c0,1-0.5,1.5-1.4,1.5c-1,0-1.5-0.5-1.5-1.5
			c-0.4-3.4-1.1-7-2-10.7c-1-3.7-2.2-7.7-3.8-11.9c-0.3-0.9-0.4-1.6-0.1-2.1C387,707,387.5,706.8,388.1,706.8z"/>
		<path d="M465.7,705.2c0,0.3-0.1,0.6-0.4,1c-0.3,0.4-0.6,0.6-1.1,0.6c-1.2,0-4.8-1.8-10.9-5.5s-11.8-7.8-17.3-12.5
			c-1.6-1.4-2.9-2-3.9-2c-0.9,0-2.2,0.7-3.8,2.2c-2.6,2.4-5.3,4.6-8.1,6.8c-2.8,2.1-5.7,4.1-8.8,6c-6.1,3.7-9.8,5.6-11,5.6
			c-0.4,0-0.6-0.2-0.8-0.5c-0.2-0.3-0.2-0.6-0.2-0.9c0-0.7,0.5-1.3,1.6-1.8c2.1-0.9,4.2-2,6.4-3.3c2.2-1.3,4.5-2.7,6.9-4.4
			c4.9-3.4,8.9-6.5,12-9.5c2.1-2.1,4.1-3.1,5.9-3.1s3.8,1,6,2.9c3.3,3,7.6,6.2,12.7,9.5c2.7,1.7,5.1,3.2,7.2,4.4
			c2.1,1.2,4.1,2.2,5.8,3C465.2,704.1,465.7,704.6,465.7,705.2z M423.5,723.2h-20c-1,0-1.5-0.5-1.5-1.5c0-1,0.5-1.5,1.5-1.5h58.3
			c1.1,0,1.6,0.5,1.6,1.5c0,1-0.5,1.5-1.6,1.5h-34.7c-2.5,3.4-5,6.5-7.5,9.5c-2.5,3-4.9,5.9-7.5,8.7c-0.7,0.8-1.1,1.4-1.1,1.8
			c0,0.3,0.8,0.4,2.4,0.3l39.4-2c-1.2-2.2-2.5-4.4-3.9-6.5c-1.4-2.1-2.9-4.3-4.4-6.4c-0.3-0.3-0.5-0.6-0.6-0.9c0-0.3,0-0.6,0.1-0.8
			c0.1-0.3,0.3-0.5,0.6-0.6c0.2-0.1,0.4-0.2,0.6-0.3c0.2,0,0.5,0.1,0.7,0.2c0.2,0.1,0.6,0.6,1.3,1.4c0.6,0.8,1.8,2.5,3.6,5.3
			c0.9,1.4,1.7,2.7,2.5,4c0.8,1.3,1.5,2.5,2.2,3.7c1.4,2.4,2.3,4.2,2.9,5.4c0.6,1.1,0.8,1.9,0.8,2.2c0,0.2-0.1,0.5-0.3,0.8
			c-0.2,0.3-0.5,0.5-0.7,0.7c-0.3,0.1-0.6,0.1-0.9,0c-0.3-0.2-0.7-0.6-1-1.3l-1.9-3.9l-40.6,2.3c-4.4,0.3-6.6-0.5-6.6-2.5
			c0-1.2,0.8-2.5,2.4-4.1C414.8,734.5,419.4,728.9,423.5,723.2z M452.9,704.7c1.1,0,1.6,0.5,1.6,1.5c0,1-0.5,1.5-1.6,1.5H413
			c-1,0-1.5-0.5-1.5-1.5c0-1,0.5-1.5,1.5-1.5H452.9z"/>
		<path d="M504.4,731.3v17c0,0.7-0.1,1.1-0.4,1.3c-0.2,0.3-0.8,0.4-1.6,0.4c-0.8,0-1.3-0.6-1.3-1.8v-17H481c-2.1,0-3.5-0.4-4.2-1.2
			c-0.7-0.8-1-2.2-1-4.3v-32.4c0-2.1,0.4-3.6,1.2-4.4c0.8-0.8,2.2-1.2,4.2-1.2h43c2.1,0,3.5,0.4,4.3,1.3c0.8,0.8,1.2,2.3,1.2,4.3
			v32.4c0,2.1-0.4,3.5-1.1,4.3c-0.7,0.8-2.1,1.2-4.1,1.2H504.4z M501.1,707.8v-16.9h-20c-1.4,0-2.1,0.8-2.1,2.4v14.6H501.1z
			 M501.1,728.2v-17.3H479v14.9c0,1.6,0.7,2.4,2.1,2.4H501.1z M504.4,690.9v16.9h22.2v-14.6c0-0.7-0.2-1.3-0.6-1.7
			c-0.4-0.4-0.9-0.7-1.4-0.7H504.4z M504.4,710.9v17.3h20.2c1.4,0,2-0.8,2-2.4v-14.9H504.4z"/>
		<path d="M562.3,735.6c0.9,0,1.4,0.4,1.4,1.3c0,0.4-0.2,0.7-0.6,1c-0.4,0.4-2.1,1.1-5.2,2.3c-3.2,1.2-6.5,2.3-9.9,3.4
			c-3.5,1-5.6,1.5-6.4,1.5c-0.7,0-1.2-0.2-1.5-0.5c-0.3-0.3-0.4-0.6-0.4-1c0-0.7,0.5-1.2,1.4-1.5c7.4-1.5,13.9-3.6,19.5-6.2
			C561.3,735.7,561.9,735.6,562.3,735.6z M554.1,708.9l-10.5,0.5c-2.1,0.1-3.1-0.4-3.1-1.6c0-0.6,0.2-1.2,0.7-1.9
			c4.9-7.4,9-14.5,12.3-21.3c0.6-1.1,1.2-1.7,1.8-1.7c0.5,0,0.9,0.2,1.2,0.7c0.3,0.5,0.2,1-0.1,1.6l-4.1,7.7c-1.3,2.4-2.4,4.4-3.4,6
			c-0.9,1.6-1.7,2.9-2.2,3.8c-1.1,1.8-1.6,2.8-1.6,3.2c0,0.3,0.2,0.5,0.6,0.6c0.4,0,1.1,0,2.2,0l8.2-0.4c1.2-1.8,2.3-3.5,3.4-5.1
			c1.1-1.6,2-3.2,2.9-4.7c0.7-1.2,1.2-1.8,1.7-1.8c0.5,0,0.9,0.1,1.2,0.3c0.3,0.2,0.5,0.5,0.5,0.9c0,0.2-0.1,0.6-0.3,1.1
			c-0.2,0.6-1.3,2.4-3.2,5.3c-2,3.1-4.3,6.4-6.9,10c-2.7,3.6-5.3,7.1-8,10.6c-0.8,1.1-1.3,1.9-1.3,2.4c0,0.2,0.1,0.4,0.3,0.5
			c0.2,0.1,0.6,0.1,1.2,0.1c0.6,0,1.4,0,2.5-0.1c1.1-0.1,2.4-0.2,4.1-0.4l8.5-1.1c0.9,0,1.4,0.3,1.4,0.8c0,1.1-0.4,1.8-1.2,2
			c-0.2,0-0.7,0.1-1.6,0.2c-0.9,0.1-2.2,0.3-4,0.5c-1.7,0.2-3.3,0.4-4.8,0.5c-1.5,0.1-2.8,0.3-4,0.4c-1.1,0.1-2.1,0.2-2.9,0.2
			c-0.8,0-1.3,0.1-1.6,0.1c-1.8,0-2.7-0.7-2.7-2c0-1,0.7-2.3,2-3.9c0.7-0.8,1.9-2.3,3.7-4.7C548.8,715.9,551.2,712.8,554.1,708.9z
			 M590,738c-1.5,1.6-3.1,3.1-4.9,4.5c-1.8,1.4-3.7,2.6-5.7,3.8c-4,2.3-6.5,3.5-7.4,3.5c-0.9,0-1.3-0.5-1.3-1.6
			c0-0.7,0.4-1.1,1.2-1.4c6.6-2.8,12-6.4,16.2-10.9c-4.9-5.8-9.4-14-13.3-24.4c-0.4,5-1.1,9.4-1.9,13.2c-0.8,3.8-1.9,7.2-3.2,10.3
			c-1.2,3-2.8,6-4.6,9.1c-1.7,3-2.8,4.7-3.4,5.1c-0.4,0.4-0.9,0.6-1.3,0.6c-0.4,0-0.8-0.1-1.1-0.3c-0.3-0.2-0.4-0.6-0.5-1
			c0-0.4,0.2-0.9,0.6-1.5c5-6.7,8.5-14.3,10.4-22.7c1.9-8.3,2.8-19.9,2.9-34.9h-8.1c-0.8,0-1.2-0.5-1.2-1.5c0-1,0.4-1.5,1.3-1.5h26
			c1.1,0,2,0.1,2.6,0.5c0.6,0.4,1.1,0.9,1.4,1.4c0.3,0.6,0.4,1.1,0.4,1.7c0,0.6-0.1,1-0.3,1.3l-4.5,14.7c0,0.1-0.1,0.3-0.1,0.6
			c0,0.6,0.5,0.8,1.6,0.8h6.4c2,0,3,1.1,3,3.3c0,2.2-0.7,5.8-2.2,10.8c-1.5,4.9-4,9.7-7.5,14.1c3.2,3.5,7.5,7,12.9,10.4
			c0.7,0.4,1.2,0.8,1.4,1.3c0.2,0.4,0.2,0.8,0.1,1.1c-0.1,0.3-0.4,0.6-0.7,0.8c-0.3,0.2-0.5,0.3-0.7,0.4c-0.8,0-3-1.4-6.6-4.3
			C594.6,742.6,591.9,740.1,590,738z M590.1,733.7c3.1-3.9,5.3-8.1,6.5-12.5c1.3-4.3,2-7.5,2-9.5c0-1.1-0.4-1.6-1.3-1.6h-5.5
			c-1.1,0.1-2,0-2.6-0.3c-0.6-0.3-1-0.7-1.3-1.3c-0.2-0.5-0.3-1.1-0.3-1.6c0-0.6,0.1-1.1,0.3-1.6l3.9-12.7c0.4-1.4,0.5-2.2,0.3-2.6
			c-0.2-0.4-0.9-0.6-2.2-0.6h-14.1c-0.1,3.6-0.2,6.8-0.3,9.6c-0.1,2.7-0.2,5-0.3,6.8C579.6,717.9,584.5,727.2,590.1,733.7z"/>
		<path d="M614.4,691.2h-3.2c-0.9,0-1.3-0.4-1.3-1.3c0-0.9,0.4-1.4,1.3-1.4H637c0.9,0,1.3,0.5,1.3,1.4c0,0.9-0.4,1.3-1.3,1.3h-3.5
			v41.4c2.1-0.9,3.4-1.3,4-1.3c0.6,0,0.9,0.4,0.9,1.1c0,0.4-0.3,0.8-1,1.3c-0.7,0.4-1.9,1.1-3.9,1.9v13c0,0.9-0.5,1.3-1.4,1.3
			c-0.9,0-1.4-0.4-1.4-1.3v-11.8c-2.1,0.8-4.1,1.6-6.2,2.3c-2.1,0.7-4.2,1.4-6.3,2.1c-4.2,1.3-6.7,2-7.4,2c-0.6,0-1-0.1-1.3-0.4
			c-0.2-0.3-0.4-0.6-0.4-0.9c0-0.7,0.5-1.2,1.5-1.5c1-0.3,2.2-0.6,3.7-0.9V691.2z M630.7,691.2h-13.4v12.5h13.4V691.2z M617.2,720
			h13.4v-13.7h-13.4V720z M617.2,738.4c4.4-1.2,8.9-2.7,13.4-4.6v-11.2h-13.4V738.4z M654.1,698h-15.4c-0.5,0.1-0.9,0-1.1-0.3
			c-0.2-0.3-0.3-0.7-0.3-1.1c0-0.4,0.1-0.7,0.3-1.1c0.2-0.3,0.6-0.4,1.1-0.3h8.7c-1.2-2.5-2.8-5.1-4.8-7.9c-0.7-0.9-0.8-1.6-0.6-2.1
			c0.3-0.5,0.7-0.7,1.3-0.7c0.4,0,0.7,0.2,1.1,0.5c0.3,0.3,1.1,1.4,2.3,3.5c0.6,1,1.2,2.1,1.8,3.2c0.6,1.1,1.2,2.3,1.8,3.5h11.4
			c0.9-1.4,1.8-3,2.7-4.6c0.9-1.6,1.8-3.4,2.7-5.3c0.3-0.7,0.6-1.1,0.9-1.3c0.3-0.2,0.7-0.2,1-0.1c0.3,0.1,0.5,0.3,0.7,0.5
			c0.2,0.3,0.3,0.5,0.3,0.7c0,0.9-1.8,4.3-5.3,10.1h8.9c0.4-0.1,0.7,0,1,0.3c0.2,0.3,0.4,0.7,0.4,1.1c0,0.4-0.1,0.7-0.4,1.1
			c-0.2,0.3-0.6,0.4-1,0.3H657c0,7.5-0.3,13.6-0.8,18.3h18.6c0.4-0.1,0.7,0,1,0.3c0.2,0.3,0.4,0.7,0.4,1.1c0,0.4-0.1,0.7-0.4,1.1
			c-0.2,0.3-0.6,0.4-1,0.3h-17.7c3.5,11.4,9.2,20.3,17,26.5c1.2,0.9,1.8,1.7,1.8,2.4c0,0.2-0.1,0.5-0.3,0.8
			c-0.2,0.3-0.4,0.5-0.8,0.5c-1.3,0-4.2-2.3-8.5-6.9c-4.3-4.6-8-11.4-10.9-20.3c-1.3,7.2-4.4,13.6-9.3,19.2
			c-4.8,5.5-7.9,8.3-9.2,8.3c-0.1,0-0.3-0.1-0.6-0.3c-0.3-0.1-0.4-0.3-0.6-0.6c-0.1-0.3-0.1-0.6,0.1-1c0.2-0.4,0.6-0.9,1.3-1.5
			c4.9-4.1,8.6-8.2,11-12.5c2.3-4.2,4-9,4.9-14.5h-15.8c-0.5,0.1-0.9,0-1.1-0.3c-0.2-0.3-0.4-0.7-0.4-1.1c0-0.4,0.1-0.7,0.4-1.1
			c0.2-0.3,0.6-0.4,1.1-0.3h16.2c0.3-2.4,0.5-5.2,0.6-8.2C654.1,705.1,654.1,701.7,654.1,698z"/>
		<path d="M698.9,699.2h-9c-0.6,0-0.9-0.1-1.1-0.2c-0.1,0-0.2-0.2-0.2-0.4c-0.1-0.2-0.1-0.5,0-0.7c0-0.2,0.2-0.4,0.4-0.6
			c0.2-0.2,0.5-0.3,1-0.3h9v-3c0-1,0.4-1.5,1.2-1.5c0.8,0,1.3,0.5,1.3,1.5v3h22.8v-3c0-1,0.4-1.5,1.2-1.5c0.8,0,1.3,0.5,1.3,1.5v3
			h8.1c0.5-0.1,0.9,0,1.2,0.2c0.3,0.3,0.4,0.5,0.4,0.9c0,0.3-0.1,0.6-0.4,0.8c-0.3,0.2-0.6,0.3-1.2,0.2h-8.1v5.7h6.9
			c0.5-0.1,0.8,0,1.1,0.2c0.3,0.2,0.4,0.5,0.4,0.8c0,0.3-0.1,0.6-0.3,0.9c-0.2,0.3-0.6,0.3-1.2,0.2h-6.9v6h15.5
			c0.5-0.1,0.8-0.1,1.1,0.2c0.3,0.3,0.4,0.6,0.4,0.9c0,0.3-0.1,0.7-0.4,0.9c-0.3,0.3-0.6,0.3-1.1,0.2h-13.2
			c5.2,4.5,10.1,7.7,14.8,9.5c1.2,0.5,1.8,1,1.8,1.6c0,0.2-0.1,0.5-0.3,0.9c-0.2,0.3-0.5,0.5-0.9,0.5c-0.5,0-1.3-0.3-2.4-0.8
			c-1.1-0.5-2.5-1.3-4.1-2.3c-1.6-1.1-3.4-2.4-5.5-3.9c-2-1.6-4.2-3.4-6.5-5.5h-25.5c-4,3.9-7.9,7-11.9,9.5c-4,2.3-6.4,3.5-7.1,3.5
			c-0.3,0-0.5-0.1-0.8-0.3c-0.3-0.2-0.4-0.4-0.6-0.7c-0.1-0.3-0.1-0.5,0-0.8c0.1-0.3,0.5-0.6,1.1-0.8c6.1-2.6,11.4-6,15.9-10.4
			h-13.1c-0.5,0-0.9-0.1-1.1-0.2c-0.1,0-0.2-0.2-0.2-0.4c-0.1-0.2-0.1-0.5,0-0.7c0-0.2,0.2-0.4,0.4-0.6c0.2-0.2,0.5-0.3,1-0.3h15v-6
			h-8.5c-0.6,0-0.9-0.1-1.1-0.2c-0.1,0-0.2-0.2-0.2-0.4c-0.1-0.2-0.1-0.5,0-0.7c0-0.2,0.2-0.4,0.4-0.6c0.2-0.2,0.5-0.3,1-0.3h8.5
			V699.2z M711.9,688.9c-0.4-0.9-0.7-1.7-1-2.2c-0.3-0.6-0.5-1-0.6-1.2c-0.2-0.4-0.3-0.8-0.3-1.1c0-0.3,0.2-0.6,0.5-0.8
			c0.3-0.3,0.7-0.4,1.1-0.4c0.4,0,0.8,0.3,1.2,1c0.5,0.7,1.1,2.2,1.9,4.8H738c4.2,0,6.2,1.2,6.2,3.5c0,1.1-0.4,2.6-1.1,4.6
			c-0.8,1.9-1.5,2.9-2.2,2.9c-0.3,0-0.6-0.1-0.8-0.3c-0.1-0.1-0.3-0.2-0.4-0.3c-0.1-0.1-0.1-0.3-0.1-0.5c0-0.2,0.1-0.6,0.3-1
			c0.2-0.4,0.4-1,0.7-1.7c0.5-1.1,0.8-1.9,0.9-2.6c0.2-0.6,0.2-1.1,0-1.5c-0.2-0.3-0.5-0.6-1.1-0.7c-0.6-0.1-1.4-0.2-2.4-0.2h-50.2
			c-0.9,0-1.6,0.2-2,0.7c-0.4,0.5-0.6,1.2-0.6,2.2v4.8c0,0.7-0.1,1.1-0.3,1.3c-0.1,0.2-0.5,0.3-1.2,0.3c-0.7,0-1-0.5-1-1.5v-5.5
			c0-1,0.1-1.9,0.2-2.5c0.1-0.6,0.4-1.1,0.7-1.4c0.3-0.3,0.8-0.5,1.3-0.7c0.6-0.1,1.3-0.2,2.1-0.2H711.9z M714.4,728.6
			c0,1.6-0.3,3.3-0.9,5.3c-0.6,1.9-1.7,3.7-3.3,5.5c-1.5,1.7-3.5,3.2-5.7,4.3c-2.1,1.1-5.4,2.1-9.9,3.2c-4.4,1.1-7.2,1.6-8.4,1.6
			c-0.7,0-1.1-0.4-1.1-1.2c0-0.7,0.5-1.2,1.5-1.5c8.5-1.4,14.7-3.2,18.6-5.7c4.1-2.4,6.2-6.1,6.4-11.1c0.1-0.8,0.2-1.4,0.3-1.7
			c0.2-0.3,0.7-0.5,1.4-0.5C714,726.8,714.4,727.4,714.4,728.6z M734.1,738.7c0,0.9-0.4,1.3-1.3,1.3c-0.9,0-1.3-0.4-1.3-1.3V727
			c0-1.4-0.7-2-1.9-2h-32.1c-0.5,0-0.9,0.2-1.3,0.6c-0.4,0.4-0.6,0.9-0.6,1.4v12c0,0.9-0.4,1.3-1.3,1.3c-0.9,0-1.3-0.4-1.3-1.3
			v-12.3c0-1.5,0.3-2.6,0.9-3.2c0.6-0.6,1.7-0.9,3.3-0.9h32.8c1.5,0,2.6,0.3,3.3,1c0.6,0.7,0.9,1.8,0.9,3.3V738.7z M724.1,699.2
			h-22.8v5.7h22.8V699.2z M724.1,713v-6h-22.8v6H724.1z M741.5,747.3c0,0.6-0.3,1-0.8,1.2c-0.6,0.3-1.3,0.2-2.1-0.3
			c-5.5-3-12.5-6-21.1-9.1c-0.9-0.4-1.4-0.8-1.4-1.4c0-0.2,0.1-0.5,0.4-0.8c0.2-0.3,0.5-0.5,0.9-0.5c0.4,0,2.6,0.8,6.6,2.3
			c2,0.8,3.9,1.6,5.8,2.3c1.9,0.7,3.7,1.5,5.4,2.3c1.7,0.8,3.1,1.4,4,1.9c1,0.5,1.5,0.8,1.7,1C741.3,746.6,741.5,747,741.5,747.3z"
			/>
	</g>
</g>
</svg>
