<?xml version="1.0" encoding="utf-8"?>
<!-- Generator: Adobe Illustrator 22.1.0, SVG Export Plug-In . SVG Version: 6.00 Build 0)  -->
<svg version="1.1" id="图层_1" xmlns="http://www.w3.org/2000/svg" xmlns:xlink="http://www.w3.org/1999/xlink" x="0px" y="0px"
	 viewBox="0 0 800 800" style="enable-background:new 0 0 800 800;" xml:space="preserve">
<style type="text/css">
	.st0{fill:#FE0000;}
</style>
<g>
	<g>
		<path class="st0" d="M177.8,296.7L342.1,205l67.3-116.1H223.4c-43.1,0-78.1,35-78.1,78.1v244.3c0,43.1,35,78.1,78.1,78.1H252
			l8.3-92.4L177.8,296.7z"/>
		<path class="st0" d="M576.6,88.9H443.1l30.6,105.5L609,223.1L440.9,391.2l-51.1,98.1h186.8c43.1,0,78.1-35,78.1-78.1V167
			C654.6,123.8,619.7,88.9,576.6,88.9z"/>
		<polygon class="st0" points="431.9,50 409.3,88.9 443.1,88.9 		"/>
		<polygon class="st0" points="233.8,692.8 249.6,649.3 236,718.8 264.1,653.3 263.3,668.3 272.9,652 253.9,718 253.9,750 
			389.8,489.3 252,489.3 		"/>
	</g>
</g>
</svg>
