<?xml version="1.0" encoding="utf-8"?>
<!-- Generator: Adobe Illustrator 23.0.3, SVG Export Plug-In . SVG Version: 6.00 Build 0)  -->
<svg version="1.1" id="图层_1" xmlns="http://www.w3.org/2000/svg" xmlns:xlink="http://www.w3.org/1999/xlink" x="0px" y="0px"
	 viewBox="0 0 800 800" style="enable-background:new 0 0 800 800;" xml:space="preserve">
<style type="text/css">
	.st0{fill:#C3393F;}
</style>
<path class="st0" d="M352.37,479.87c0.48,0.59,0.76,1.45,0.76,2.59c0,1.18-0.31,2.07-0.8,2.63c-0.48,0.55-1.14,0.86-1.97,0.86
	s-1.49-0.31-2.01-0.86c-0.52-0.59-0.8-1.45-0.8-2.59c0-1.14,0.24-2.01,0.8-2.59c0.48-0.55,1.18-0.86,2.01-0.86
	S351.89,479.32,352.37,479.87z M326.9,483.57h2.77l-1.42-3.7L326.9,483.57z M204.21,479.04c-0.83,0-1.52,0.31-2.01,0.86
	c-0.59,0.59-0.8,1.45-0.8,2.59c0,1.14,0.28,2.01,0.8,2.59c0.52,0.55,1.18,0.86,2.01,0.86c0.8,0,1.49-0.31,1.97-0.86
	c0.48-0.55,0.8-1.45,0.8-2.63c0-1.14-0.28-2.01-0.76-2.59C205.73,479.32,205.04,479.04,204.21,479.04z M273.11,483.57h2.77
	l-1.42-3.7L273.11,483.57z M145.68,460.1h7.36v-18.15h-7.36V460.1z M303.87,479.04c-0.83,0-1.52,0.31-2.01,0.86
	c-0.52,0.59-0.8,1.45-0.8,2.59c0,1.14,0.28,2.01,0.8,2.59c0.52,0.55,1.18,0.86,2.01,0.86s1.49-0.31,1.97-0.86
	c0.48-0.55,0.8-1.45,0.8-2.63c0-1.14-0.28-2.01-0.76-2.59C305.39,479.32,304.7,479.04,303.87,479.04z M235.56,483.33
	c-0.28-0.1-0.86-0.14-1.8-0.14l-1.62-0.03v2.7h1.9c0.73,0,1.21-0.03,1.42-0.07c0.31-0.03,0.52-0.17,0.73-0.41
	c0.17-0.24,0.28-0.48,0.28-0.83c0-0.31-0.07-0.55-0.24-0.76C236.08,483.54,235.88,483.4,235.56,483.33z M215.06,479.04
	c-0.83,0-1.52,0.31-2.01,0.86c-0.52,0.59-0.8,1.45-0.8,2.59c0,1.14,0.28,2.01,0.8,2.59c0.52,0.55,1.18,0.86,2.01,0.86
	c0.8,0,1.49-0.31,1.97-0.86c0.48-0.55,0.8-1.45,0.8-2.63c0-1.14-0.28-2.01-0.76-2.59C216.59,479.32,215.89,479.04,215.06,479.04z
	 M234.94,481.46c0.35-0.03,0.62-0.14,0.83-0.35c0.17-0.17,0.31-0.45,0.31-0.8c0-0.31-0.07-0.55-0.28-0.76
	c-0.17-0.17-0.41-0.31-0.76-0.35c-0.17-0.03-0.8-0.03-1.73-0.03h-1.18v2.32h1.31C234.25,481.5,234.73,481.5,234.94,481.46z
	 M750,312.21v219.09c0,15.82-12.83,28.65-28.65,28.65H78.65c-15.82,0-28.65-12.83-28.65-28.65V268.71
	c0-15.82,12.83-28.65,28.65-28.65h599.19C717.7,240.05,750,272.36,750,312.21z M329.83,451.63v2.39h7.71l-7.36,15.14h4.42h2.94
	h19.57h1.8h2.66c0.69-1.07,0.86-1.42,1.56-2.45l-4.91-10.16h-7.16l4.98,10.23h-17.22l6.19-12.72h19.5v-2.42H329.83z M362.92,448.21
	v-2.42h-31.67v2.42H362.92z M340.65,414.64l-33.98-86.7l-11.2,29.18l10.27,26.13h-20.36l-7.74,20.4h36.16l4.25,10.99H340.65z
	 M275.35,451.28l3.21,18.32h4.87l-3.25-18.32H275.35z M280.54,449.73l1.62-7.64h-4.84l-1.59,7.64H280.54z M277.19,331.43
	l-32.05,83.52h22.57l4.42-11.3l29.35-76.19h-17.53C280.26,327.46,278.19,328.74,277.19,331.43z M260.59,469.61h4.84l3.25-18.32
	h-4.87L260.59,469.61z M263.15,449.73h4.81l-1.59-7.64h-4.84L263.15,449.73z M260.94,436.32h-13.17v2.45h3.7v9.44h-2.9v2.39h2.9
	v15.83l-3.87,0.31l0.21,2.42l12.44-1.11l-0.21-2.39l-2.77,0.24v-15.31h2.87v-2.39h-2.87v-9.44h3.66V436.32z M199.61,414.81h21.47
	v-26.45h16.28c2.39,0,4.42-1.42,5.22-3.66l6.46-17.22h-28.28v-18.81h31.6c2.39,0,4.42-1.42,5.22-3.66l6.46-17.04v-0.48h-64.44
	V414.81z M123.66,371.64c0,32.67,26.38,43.35,39.48,43.35h16.73c3.15,0,5.67-2.56,5.67-5.74v-13.86c0,0-9.64,0-17.84,0
	s-23.54-5.74-23.54-23.75c0-18.18,16.59-23.27,24.48-23.27h11.51c3.15,0,5.67-2.56,5.67-5.74v-15.14c0,0-2.83,0-18.32,0
	C151.77,327.63,123.66,338.93,123.66,371.64z M192.97,440.33h-19.32v2.42h6.46v4.98h-6.46v2.39h6.46v12.13h-6.36v2.42h19.36v-2.42
	h-7.12v-12.13h6.98v-2.39h-6.98v-4.98h6.98V440.33z M191.07,452.39h-4.84l2.25,8.3h4.81L191.07,452.39z M126.67,482.4
	c0-1.18,0.24-2.07,0.69-2.59c0.48-0.52,1.07-0.8,1.83-0.8c0.52,0,0.97,0.14,1.35,0.45c0.38,0.31,0.66,0.73,0.76,1.24l2.01-0.48
	c-0.24-0.8-0.59-1.45-1.04-1.87c-0.76-0.73-1.8-1.11-3.01-1.11c-1.42,0-2.56,0.52-3.42,1.42c-0.86,0.97-1.28,2.25-1.28,3.91
	c0,1.62,0.41,2.87,1.28,3.77s1.97,1.35,3.28,1.35c1.07,0,1.94-0.28,2.66-0.8c0.73-0.52,1.21-1.31,1.52-2.42l-1.97-0.62
	c-0.17,0.73-0.45,1.28-0.76,1.56c-0.45,0.35-0.9,0.52-1.42,0.52c-0.73,0-1.35-0.24-1.8-0.8
	C126.91,484.54,126.67,483.64,126.67,482.4z M143.06,477.52h-2.01v3.94h-3.98v-3.94h-2.01v10.03h2.01v-4.39h3.98v4.39h2.01V477.52z
	 M147.1,477.52h-2.01v10.03h2.01V477.52z M157.02,477.52h-1.9v6.71l-4.08-6.71h-1.97v10.03h1.87v-6.57l4.04,6.57h2.04V477.52z
	 M158.92,439.56h-0.14v-0.03h-5.74h-7.36v-4.91h-6.12v4.91h-5.15h-1.97v2.42h7.16v18.15h-7.95v-20.53h-5.88h-1.21
	c0,0.1,0.03,0.28,0.1,0.38l1.11,1.8v18.36v2.42h5.84h7.95v7.19h6.15v-7.19h7.33h0.69h3.11c1.14,0,2.07-0.9,2.07-2.07V439.56z
	 M166.81,485.89h-5.6v-2.73h5.05v-1.69h-5.05v-2.25h5.43v-1.69h-7.43v10.03v0.03h7.61V485.89z M176.17,484.68
	c0-0.66-0.14-1.18-0.41-1.59c-0.28-0.41-0.66-0.76-1.11-1.04c-0.52-0.28-1.24-0.48-2.21-0.73c-1-0.24-1.59-0.45-1.87-0.69
	c-0.21-0.17-0.31-0.38-0.31-0.62c0-0.24,0.07-0.48,0.31-0.62c0.35-0.28,0.8-0.38,1.42-0.38c0.55,0,0.97,0.1,1.28,0.35
	c0.28,0.24,0.48,0.59,0.55,1.11l2.01-0.07c0-0.93-0.35-1.66-0.97-2.21c-0.62-0.55-1.59-0.83-2.83-0.83c-0.76,0-1.45,0.1-1.97,0.35
	c-0.52,0.24-0.93,0.59-1.24,1.04c-0.28,0.48-0.41,0.97-0.41,1.45c0,0.8,0.28,1.45,0.9,2.01c0.41,0.35,1.18,0.69,2.28,0.97
	c0.83,0.21,1.38,0.38,1.62,0.45c0.35,0.1,0.59,0.28,0.73,0.41c0.17,0.17,0.24,0.38,0.24,0.62c0,0.35-0.14,0.69-0.48,0.97
	s-0.83,0.41-1.49,0.41c-0.66,0-1.11-0.14-1.49-0.45c-0.38-0.31-0.62-0.8-0.73-1.45l-1.97,0.17c0.17,1.07,0.52,1.97,1.21,2.66
	c0.66,0.55,1.66,0.86,2.9,0.86c0.9,0,1.66-0.14,2.21-0.38c0.59-0.28,1.04-0.66,1.35-1.14C176.04,485.78,176.17,485.23,176.17,484.68
	z M185.51,485.89h-5.6v-2.73h5.05v-1.69h-5.05v-2.25h5.43v-1.69h-7.43v10.03v0.03h7.61V485.89z M198.06,477.52h-6.88v10.03v0.03
	h2.04v-4.29h4.22v-1.69h-4.22v-2.39h4.84V477.52z M198.06,469.12c1.14,0,2.07-0.9,2.07-2.07v-31.87h-3.11v0.03h-2.7h-14.21h-6.08
	v2.42h20.26v29.11h-21.74v-31.53h-5.84h-1.18c0,0.14,0.03,0.28,0.1,0.38l1.07,1.69v31.84h4.01h1.83h21.74h0.83H198.06z
	 M208.95,482.53c0-1.62-0.45-2.94-1.31-3.84c-0.9-0.9-2.07-1.35-3.56-1.35c-0.8,0-1.49,0.1-2.14,0.38c-0.45,0.17-0.9,0.48-1.28,0.9
	c-0.41,0.38-0.69,0.86-0.93,1.35c-0.31,0.69-0.45,1.56-0.45,2.59c0,1.59,0.45,2.83,1.28,3.77c0.86,0.9,2.07,1.35,3.56,1.35
	c1.49,0,2.66-0.45,3.53-1.35C208.5,485.4,208.95,484.16,208.95,482.53z M209.71,469.09h3.91h28.49v-2.63l-14.66,0.07v-10.58h13.52
	v-2.63h-13.52v-4.74h5.88h5.81c1.14,0,2.07-0.9,2.07-2.07v-11.58h-7.88h-16.35v3.21h16.35v7.88h-17.91v-11.06h-4.01h-3.84h-1.18
	c0,0.14,0.03,0.28,0.1,0.38l1.07,1.73v11.55h7.33h6.4v17.87h-7.19l2.87-16.01h-6.53l-3.39,18.6H209.71z M219.87,482.53
	c0-1.62-0.45-2.94-1.31-3.84c-0.9-0.9-2.07-1.35-3.56-1.35c-0.8,0-1.49,0.1-2.14,0.38c-0.45,0.17-0.9,0.48-1.28,0.9
	c-0.41,0.38-0.69,0.86-0.93,1.35c-0.31,0.69-0.45,1.56-0.45,2.59c0,1.59,0.45,2.83,1.28,3.77c0.86,0.9,2.07,1.35,3.56,1.35
	c1.49,0,2.66-0.45,3.53-1.35C219.42,485.4,219.87,484.16,219.87,482.53z M228.79,477.52h-7.99v1.69h2.97v8.33h2.07v-8.33h2.94
	V477.52z M238.5,484.57c0-0.59-0.14-1.11-0.48-1.52c-0.31-0.41-0.8-0.73-1.42-0.9c0.41-0.17,0.76-0.48,1.04-0.86
	c0.28-0.38,0.38-0.83,0.38-1.28c0-0.41-0.14-0.83-0.31-1.18c-0.21-0.35-0.45-0.59-0.76-0.83c-0.31-0.24-0.69-0.35-1.07-0.41
	c-0.38-0.07-1-0.1-1.8-0.1h-3.98v9.99h3.42c1.31,0,2.11-0.03,2.45-0.07c0.52-0.07,0.97-0.21,1.35-0.48
	c0.38-0.28,0.62-0.62,0.86-1.04C238.4,485.47,238.5,485.02,238.5,484.57z M249.25,487.55l-4.01-10.03h-2.14l-3.91,10.03h2.14
	l0.83-2.28h4.01l0.86,2.28H249.25z M257.45,485.85h-5.05v-8.26h-2.01v9.96h7.05V485.85z M266.02,485.85h-5.05v-8.26h-2.01v9.96h7.05
	V485.85z M269.23,469.54h3.6c1.14,0,2.07-0.9,2.07-2.07v-27.07h7.74v-2.45h-0.9v-1.8h-4.11v1.87h-2.7v-3.15h-3.01h-2.83h-1.11
	c0,0.1,0.03,0.28,0.1,0.35l0.97,1.59v1.18h-7.78v2.45h7.74v25.89c0,0.66-0.52,1.18-1.18,1.18h-1.42v2.04h2.63H269.23z
	 M279.64,487.55l-4.04-10.03h-2.14l-3.91,10.03h2.18l0.83-2.28h4.01l0.86,2.28H279.64z M288.42,484.68c0-0.66-0.14-1.18-0.41-1.59
	c-0.28-0.41-0.66-0.76-1.11-1.04c-0.52-0.28-1.24-0.48-2.21-0.73c-1-0.24-1.59-0.45-1.87-0.69c-0.21-0.17-0.31-0.38-0.31-0.62
	c0-0.24,0.07-0.48,0.31-0.62c0.28-0.28,0.73-0.38,1.35-0.38c0.55,0,0.97,0.1,1.28,0.35c0.28,0.24,0.48,0.59,0.55,1.11l2.01-0.07
	c0-0.93-0.31-1.66-0.97-2.21c-0.62-0.55-1.59-0.83-2.83-0.83c-0.76,0-1.45,0.1-1.97,0.35c-0.52,0.24-0.93,0.59-1.24,1.04
	c-0.28,0.48-0.41,0.97-0.41,1.45c0,0.8,0.28,1.45,0.9,2.01c0.41,0.35,1.18,0.69,2.28,0.97c0.83,0.21,1.38,0.38,1.62,0.45
	c0.35,0.1,0.59,0.28,0.73,0.41c0.17,0.17,0.24,0.38,0.24,0.62c0,0.35-0.14,0.69-0.48,0.97s-0.83,0.41-1.49,0.41
	c-0.66,0-1.11-0.14-1.49-0.45s-0.62-0.8-0.73-1.45l-1.97,0.17c0.14,1.07,0.55,1.97,1.28,2.66c0.66,0.55,1.66,0.86,2.9,0.86
	c0.9,0,1.66-0.14,2.21-0.38c0.59-0.28,1.04-0.66,1.35-1.14C288.28,485.78,288.42,485.23,288.42,484.68z M288.84,447.1h2.59v22.37
	h5.84V447.1h2.56v-2.42h-2.56v-9.96h-5.84v9.96h-2.59V447.1z M299.38,469.16h3.87l1.76-25.86h-3.8L299.38,469.16z M297.72,484.68
	c0-0.66-0.14-1.18-0.41-1.59c-0.28-0.41-0.66-0.76-1.11-1.04c-0.52-0.28-1.24-0.48-2.21-0.73c-1-0.24-1.59-0.45-1.87-0.69
	c-0.21-0.17-0.31-0.38-0.31-0.62c0-0.24,0.07-0.48,0.31-0.62c0.35-0.28,0.8-0.38,1.42-0.38c0.55,0,0.97,0.1,1.28,0.35
	c0.28,0.24,0.48,0.59,0.55,1.11l2.01-0.07c0-0.93-0.31-1.66-0.97-2.21c-0.62-0.55-1.59-0.83-2.83-0.83c-0.76,0-1.45,0.1-1.97,0.35
	c-0.52,0.24-0.93,0.59-1.24,1.04c-0.28,0.48-0.41,0.97-0.41,1.45c0,0.8,0.28,1.45,0.9,2.01c0.41,0.35,1.18,0.69,2.28,0.97
	c0.83,0.21,1.38,0.38,1.62,0.45c0.35,0.1,0.59,0.28,0.73,0.41c0.17,0.17,0.24,0.38,0.24,0.62c0,0.35-0.14,0.69-0.48,0.97
	c-0.35,0.28-0.83,0.41-1.49,0.41s-1.11-0.14-1.49-0.45s-0.62-0.8-0.73-1.45l-1.97,0.17c0.1,1.07,0.52,1.97,1.21,2.66
	c0.66,0.55,1.66,0.86,2.9,0.86c0.9,0,1.59-0.1,2.21-0.38c0.59-0.28,1.04-0.66,1.35-1.14C297.58,485.78,297.72,485.23,297.72,484.68z
	 M308.68,482.53c0-1.62-0.45-2.94-1.31-3.84c-0.9-0.9-2.07-1.35-3.56-1.35c-0.8,0-1.49,0.1-2.14,0.38c-0.45,0.17-0.9,0.48-1.28,0.9
	c-0.41,0.38-0.69,0.86-0.93,1.35c-0.31,0.69-0.45,1.56-0.45,2.59c0,1.59,0.45,2.83,1.28,3.77c0.86,0.9,2.07,1.35,3.56,1.35
	c1.49,0,2.66-0.45,3.53-1.35C308.23,485.4,308.68,484.16,308.68,482.53z M312.07,482.4c0-1.18,0.24-2.07,0.69-2.59
	c0.48-0.52,1.07-0.8,1.83-0.8c0.52,0,0.97,0.14,1.35,0.45c0.38,0.31,0.66,0.73,0.76,1.24l2.01-0.48c-0.24-0.8-0.59-1.45-1.04-1.87
	c-0.76-0.73-1.8-1.11-3.01-1.11c-1.42,0-2.56,0.52-3.42,1.42c-0.86,0.97-1.28,2.25-1.28,3.91c0,1.62,0.41,2.87,1.28,3.77
	s1.97,1.35,3.28,1.35c1.07,0,1.94-0.28,2.66-0.8c0.73-0.52,1.21-1.31,1.52-2.42l-1.97-0.62c-0.14,0.73-0.45,1.28-0.76,1.56
	c-0.45,0.35-0.9,0.52-1.42,0.52c-0.73,0-1.35-0.24-1.8-0.8C312.31,484.54,312.07,483.64,312.07,482.4z M319.05,438.8h-0.38
	l-5.5-0.03h-1.52l0.24-4.11h-5.15l-0.24,4.11h-5.77v2.42h5.57l-1.49,28.35h5.19l1.49-28.35h1.66v24.44c0,0.97-0.8,1.8-1.8,1.8h-0.38
	v2.25h2.21h0.35h3.46c1.14,0,2.07-0.9,2.07-2.07V438.8z M322.37,477.52h-2.01v10.03h2.01V477.52z M322.99,443.3h-2.77v25.89h2.77
	V443.3z M333.4,487.55l-4.01-10.03h-2.14l-3.91,10.03h2.14l0.83-2.28h4.01l0.86,2.28H333.4z M340.65,477.52h-7.99v1.69h3.01v8.33
	h2.04v-8.33h2.94V477.52z M343.94,477.52h-2.01v10.03h2.01V477.52z M355.17,482.53c0-1.62-0.45-2.94-1.31-3.84
	c-0.9-0.9-2.07-1.35-3.56-1.35c-0.8,0-1.49,0.1-2.14,0.38c-0.45,0.17-0.9,0.48-1.28,0.9c-0.41,0.38-0.69,0.86-0.93,1.35
	c-0.31,0.69-0.45,1.56-0.45,2.59c0,1.59,0.41,2.83,1.28,3.77c0.86,0.9,2.07,1.35,3.56,1.35c1.49,0,2.66-0.45,3.53-1.35
	C354.72,485.4,355.17,484.16,355.17,482.53z M364.75,477.52h-1.9v6.71l-4.08-6.71h-1.97v10.03h1.9v-6.57l4.01,6.57h2.04V477.52z
	 M364.78,443.44l-6.91-8.43h-1.49h-5.95h-6.19h-7.43h-3.21l1.35,2.25l-5.05,6.19h7.43l4.98-6.05h10.09l4.94,6.05H364.78z
	 M365.65,330.19c0-9.96-8.05-18.01-18.01-18.01s-18.01,8.05-18.01,18.01c0,9.96,8.05,18.01,18.01,18.01S365.65,340.14,365.65,330.19
	z M738.71,313.28c0-34.21-27.73-61.94-61.94-61.94H461.05c-10.86,0-19.66,8.8-19.66,19.66v215.72c0,34.21,27.73,61.94,61.94,61.94
	h215.72c10.86,0,19.66-8.8,19.66-19.66V313.28z M364.13,330.15c0,9.09-7.4,16.49-16.49,16.49s-16.49-7.4-16.49-16.49
	s7.4-16.49,16.49-16.49S364.13,321.06,364.13,330.15z M342.49,316.33l5.15,1.94l5.01-1.94l-1.35-1.24l-7.16-0.17L342.49,316.33z
	 M332.74,330.84l3.49-4.08l-0.1-5.53l-1.9,1.11l-2.21,6.81L332.74,330.84z M343.73,344.12l-2.94-4.46l-5.32-1.45l0.52,2.14
	l5.95,4.01L343.73,344.12z M352.13,336.79l3.01-7.67l-7.19-6.5l-7.16,5.84l3.01,8.33H352.13z M360.01,338.21l-5.32,1.45l-2.94,4.46
	l1.8,0.24l5.95-4.01L360.01,338.21z M359.36,326.76l3.46,4.08l0.76-1.69l-2.25-6.81l-1.87-1.11L359.36,326.76z M242.79,483.57h2.77
	l-1.42-3.7L242.79,483.57z M542.16,398.97l-2.85,31.68h-9.81c-14.78,0-26.78-12-26.78-26.78v-83.76c0-14.78,12-26.78,26.78-26.78
	h63.77l-23.07,39.81l-56.33,31.44L542.16,398.97z M677.38,320.11v83.73c0,14.78-12,26.78-26.78,26.78h-64.05l17.52-33.63
	l57.63-57.63l-46.39-9.84l-10.49-36.17h45.77C665.38,293.34,677.35,305.3,677.38,320.11z M604.83,293.34h-11.59l7.75-13.34
	L604.83,293.34z M539.31,430.62h47.25L539.96,520v-10.97l6.51-22.63l-3.29,5.59l0.27-5.14l-9.63,22.46l4.66-23.83l-5.42,14.91
	L539.31,430.62z"/>
</svg>
