<?xml version="1.0" encoding="utf-8"?>
<!-- Generator: Adobe Illustrator 22.1.0, SVG Export Plug-In . SVG Version: 6.00 Build 0)  -->
<svg version="1.1" id="图层_1" xmlns="http://www.w3.org/2000/svg" xmlns:xlink="http://www.w3.org/1999/xlink" x="0px" y="0px"
	 viewBox="0 0 800 800" style="enable-background:new 0 0 800 800;" xml:space="preserve">
<style type="text/css">
	.st0{fill:#540000;}
	.st1{fill:#DD0000;}
	.st2{fill:#A01812;}
	.st3{fill:#BD0102;}
	.st4{fill:#840001;}
</style>
<g>
	<g>
		<path class="st0" d="M246,130c0,0,0,237.7,0,350.3S323,689.7,400,750c0,0-188-88.9-188-295.9s0-324.1,0-324.1H246z"/>
		<path class="st1" d="M298,50v80h-86c0,0,0,167,0,325s102,238,188,295c0,0-270-99-270-294s0-406,0-406H298z"/>
		<path class="st2" d="M283,65v50h-71h-15v15v325c0,39,6.1,76,18.2,109.8c10.7,30,26.4,58.5,46.7,84.8c3.5,4.5,7.2,9.1,11.4,14
			c-37.6-27.4-67.4-57-88.7-87.9c-26.2-38-39.5-78.3-39.5-119.7V65H283 M298,50H130c0,0,0,211,0,406s270,294,270,294
			c-86-57-188-137-188-295s0-325,0-325h86V50L298,50z"/>
	</g>
	<path class="st1" d="M400,50v700c0,0-72-125-72-222s0-478,0-478H400z"/>
	<path class="st0" d="M554,130c0,0,0,237.7,0,350.3S477,689.7,400,750c0,0,188-88.9,188-295.9s0-324.1,0-324.1H554z"/>
	<path class="st3" d="M526.3,50H502h-30h-72v700c0,0,72-125,72-222c0-68.9,0-280.8,0-398h30h24.3H588c0,0,0,167,0,325
		S486,693,400,750c0,0,270-99,270-294s0-406,0-406H526.3z"/>
	<path class="st2" d="M400,717.9c-20.2-40.4-57-123-57-189.9V65h57V50h-72c0,0,0,381,0,478s72,222,72,222V717.9z"/>
	<path class="st4" d="M526.3,50H502h-30h-72v15h72h30h24.3H655v391c0,41.3-13.2,81.4-39.3,119.4c-21.3,31-51.3,60.7-88.9,88.2
		c4.2-4.9,7.9-9.6,11.4-14c20.3-26.3,36.1-54.8,46.7-84.8C596.9,531,603,494,603,455V130v-15h-15h-61.7H502h-30h-15v15v398
		c0,66.8-36.8,149.5-57,189.9c0,0,0,0,0,0V750c0,0,72-125,72-222c0-68.9,0-280.8,0-398h30h24.3H588c0,0,0,167,0,325S486,693,400,750
		c0,0,270-99,270-294s0-406,0-406H526.3z"/>
</g>
</svg>
