<?xml version="1.0" encoding="utf-8"?>
<!-- Generator: Adobe Illustrator 22.1.0, SVG Export Plug-In . SVG Version: 6.00 Build 0)  -->
<svg version="1.1" id="图层_1" xmlns="http://www.w3.org/2000/svg" xmlns:xlink="http://www.w3.org/1999/xlink" x="0px" y="0px"
	 viewBox="0 0 800 800" style="enable-background:new 0 0 800 800;" xml:space="preserve">
<style type="text/css">
	.st0{fill:#BE0000;}
</style>
<g>
	<path class="st0" d="M212,455c0-158,0-325,0-325h86V50H130c0,0,0,211,0,406s270,294,270,294C314,693,212,613,212,455z"/>
	<path class="st0" d="M216,134v321c0,36.9,5.7,71.6,17,103.4c10,28.1,24.8,54.8,43.9,79.5c16.9,21.8,41.1,48.7,92.3,85.9
		C303.8,663.5,246,577.9,246,480.3c0-104.1,0-314.8,0-346.3H216z"/>
	<path class="st0" d="M523.1,637.9c19.1-24.7,33.9-51.5,43.9-79.5c11.3-31.8,17-66.5,17-103.4V134h-30c0,31.6,0,242.3,0,346.3
		c0,97.6-57.7,183.1-123.2,243.5C481.9,686.7,506.2,659.8,523.1,637.9z"/>
	<path class="st0" d="M526.3,50H502h-30h-69.5v695.5C415.2,722.4,472,614.2,472,528c0-68.9,0-280.8,0-398h30h24.3H588
		c0,0,0,167,0,325c0,156.5-100,236.4-185.5,293.3v0.7C429.7,738.5,670,640,670,456c0-195,0-406,0-406H526.3z"/>
	<path class="st0" d="M397.5,50H328c0,0,0,381,0,478c0,86.2,56.8,194.4,69.5,217.5V50z"/>
</g>
</svg>
