<?xml version="1.0" encoding="utf-8"?>
<!-- Generator: Adobe Illustrator 22.1.0, SVG Export Plug-In . SVG Version: 6.00 Build 0)  -->
<svg version="1.1" id="图层_1" xmlns="http://www.w3.org/2000/svg" xmlns:xlink="http://www.w3.org/1999/xlink" x="0px" y="0px"
	 viewBox="0 0 800 800" style="enable-background:new 0 0 800 800;" xml:space="preserve">
<style type="text/css">
	.st0{fill:#5A0205;}
	.st1{fill:#FFFFFF;}
	.st2{fill:#BE0000;}
	.st3{opacity:0.5;fill:#FFFFFF;}
	.st4{fill:#540000;}
	.st5{fill:#DD0000;}
	.st6{fill:#A01812;}
	.st7{fill:#BD0102;}
	.st8{fill:#840001;}
</style>
<g>
	<g>
		<circle class="st0" cx="400" cy="400" r="350"/>
		<path class="st1" d="M400,70c44.6,0,87.8,8.7,128.4,25.9c39.3,16.6,74.6,40.4,104.9,70.7s54.1,65.6,70.7,104.9
			C721.3,312.2,730,355.4,730,400s-8.7,87.8-25.9,128.4c-16.6,39.3-40.4,74.6-70.7,104.9s-65.6,54.1-104.9,70.7
			C487.8,721.3,444.6,730,400,730s-87.8-8.7-128.4-25.9c-39.3-16.6-74.6-40.4-104.9-70.7s-54.1-65.6-70.7-104.9
			C78.7,487.8,70,444.6,70,400s8.7-87.8,25.9-128.4c16.6-39.3,40.4-74.6,70.7-104.9s65.6-54.1,104.9-70.7
			C312.2,78.7,355.4,70,400,70 M400,60C212.2,60,60,212.2,60,400s152.2,340,340,340s340-152.2,340-340S587.8,60,400,60L400,60z"/>
		<circle class="st2" cx="400" cy="400" r="317.5"/>
		<circle class="st3" cx="400" cy="400" r="237.5"/>
		<circle class="st1" cx="400" cy="400" r="230"/>
	</g>
	<g>
		<g>
			<path class="st4" d="M308.8,262.1c0,0,0,140.7,0,207.4s45.6,123.9,91.2,159.7c0,0-111.3-52.6-111.3-175.2s0-191.9,0-191.9H308.8z
				"/>
			<path class="st5" d="M339.6,214.7v47.4h-50.9c0,0,0,98.9,0,192.4S349.1,595.4,400,629.2c0,0-159.9-58.6-159.9-174.1
				s0-240.4,0-240.4H339.6z"/>
			<path class="st6" d="M330.7,223.6v29.6h-42h-8.9v8.9v192.4c0,23.1,3.6,45,10.7,65c6.3,17.7,15.6,34.6,27.7,50.2
				c2,2.6,4.3,5.4,6.7,8.3c-22.2-16.2-39.9-33.7-52.5-52c-15.5-22.5-23.4-46.4-23.4-70.9V223.6H330.7 M339.6,214.7h-99.5
				c0,0,0,124.9,0,240.4S400,629.2,400,629.2c-50.9-33.7-111.3-81.1-111.3-174.7s0-192.4,0-192.4h50.9V214.7L339.6,214.7z"/>
		</g>
		<path class="st5" d="M400,214.7v414.5c0,0-42.6-74-42.6-131.4s0-283,0-283H400z"/>
		<path class="st4" d="M491.2,262.1c0,0,0,140.7,0,207.4S445.6,593.4,400,629.2c0,0,111.3-52.6,111.3-175.2s0-191.9,0-191.9H491.2z"
			/>
		<path class="st7" d="M474.8,214.7h-14.4h-17.8H400v414.5c0,0,42.6-74,42.6-131.4c0-40.8,0-166.3,0-235.7h17.8h14.4h36.5
			c0,0,0,98.9,0,192.4S450.9,595.4,400,629.2c0,0,159.9-58.6,159.9-174.1s0-240.4,0-240.4H474.8z"/>
		<path class="st6" d="M400,610.1c-12-23.9-33.7-72.9-33.7-112.4V223.6H400v-8.9h-42.6c0,0,0,225.6,0,283S400,629.2,400,629.2V610.1
			z"/>
		<path class="st8" d="M474.8,214.7h-14.4h-17.8H400v8.9h42.6h17.8h14.4H551v231.5c0,24.4-7.8,48.2-23.3,70.7
			c-12.6,18.4-30.3,35.9-52.7,52.2c2.5-2.9,4.7-5.7,6.7-8.3c12-15.6,21.3-32.5,27.7-50.2c7.1-20,10.7-41.9,10.7-65V262.1v-8.9h-8.9
			h-36.5h-14.4h-17.8h-8.9v8.9v235.7c0,39.6-21.8,88.5-33.7,112.4c0,0,0,0,0,0v19c0,0,42.6-74,42.6-131.4c0-40.8,0-166.3,0-235.7
			h17.8h14.4h36.5c0,0,0,98.9,0,192.4S450.9,595.4,400,629.2c0,0,159.9-58.6,159.9-174.1s0-240.4,0-240.4H474.8z"/>
	</g>
	<path class="st8" d="M134,308c0,0-22,96,2,184C136,492,92,396,134,308z"/>
	<path class="st8" d="M666.8,308c0,0,22,96-2,184C664.8,492,708.8,396,666.8,308z"/>
	<g>
		<path class="st1" d="M215.6,165.9c1.2-5.6,4.5-10.1,9.8-13.4c7.1-4.4,13.7-5.3,19.9-2.6c3.5,1.5,6.1,3.6,7.9,6.1l-8.9,5.5
			c-1.8-1.7-3.5-2.8-5.1-3.3c-2.7-0.9-5.7-0.3-8.8,1.6c-3.2,2-4.9,4.8-5.1,8.6c-0.2,3.8,1.2,8,4.2,12.8c3,4.8,6.2,7.7,9.6,8.9
			c3.4,1.2,6.6,0.8,9.6-1c3.1-1.9,4.7-4.4,5.1-7.4c0.2-1.6-0.1-3.8-0.9-6.3l8.8-5.5c2.1,5.1,2.5,10.1,1.2,15
			c-1.3,4.9-4.4,8.8-9.3,11.9c-6.1,3.8-12,4.8-18,3c-5.9-1.8-11-6.1-15.3-13C215.8,179.4,214.2,172.4,215.6,165.9z"/>
		<path class="st1" d="M280.9,177.1l-20.5-45.8l9.5-4.3l7.8,17.5l17.8-8l-7.8-17.5l9.5-4.3l20.5,45.8l-9.5,4.3l-9.1-20.4l-17.8,8
			l9.1,20.4L280.9,177.1z"/>
		<path class="st1" d="M357.8,110.2l-26.1,5.1l2.1,10.5l23.9-4.7l1.7,8.6l-23.9,4.7l2.5,12.7l27.3-5.3l1.7,8.9l-37.3,7.3l-9.7-49.2
			l36.1-7.1L357.8,110.2z"/>
		<path class="st1" d="M377.3,98.2h11l19.9,35v-35h9.8v50.2h-10.5l-20.4-35.6v35.6h-9.8V98.2z"/>
		<path class="st1" d="M470.7,121.4c-0.5-3.5-2.3-6-5.2-7.6c-1.7-0.9-3.5-1.4-5.6-1.6c-4-0.3-7.5,0.9-10.3,3.8
			c-2.8,2.8-4.5,7.3-5,13.4c-0.5,6.1,0.6,10.6,3.2,13.4c2.6,2.8,5.7,4.3,9.3,4.6c3.5,0.3,6.5-0.5,8.9-2.3c2.4-1.8,4-4.4,4.8-7.6
			l-11.6-0.9l0.7-8.3l20.8,1.6l-2.1,26.8l-6.9-0.5l-0.6-6.3c-2.2,2.2-4.1,3.7-5.8,4.6c-2.9,1.5-6.4,2-10.4,1.7
			c-6.6-0.5-11.9-3.2-15.7-8.2c-4-5-5.8-11.4-5.1-19.4c0.6-8.1,3.4-14.4,8.2-18.9c4.8-4.5,10.9-6.5,18.3-5.9
			c6.4,0.5,11.3,2.5,14.9,6c3.6,3.5,5.5,7.7,5.7,12.6L470.7,121.4z"/>
		<path class="st1" d="M532.4,130.1c2.8,2.4,4.6,5.5,5.4,9.2c0.6,3,0.7,5.9,0.2,8.9c-0.5,2.9-1.3,5.6-2.3,8
			c-2.6,6.2-6,10.8-10.3,14.1c-5.8,4.4-12.1,5.1-19.1,2.1l-19.9-8.4l19.4-46.3l19.9,8.4C528.5,127.4,530.8,128.7,532.4,130.1z
			 M511.8,129.7l-12.7,30.2l8.9,3.7c4.6,1.9,8.7,1,12.4-2.7c2-2.1,3.7-4.8,5.2-8.2c2-4.7,2.7-8.6,2.3-11.8c-0.4-3.1-2.8-5.6-7.2-7.5
			L511.8,129.7z"/>
		<path class="st1" d="M563.8,144.5l8.4,6.6l-19,24.3c-2.1,2.7-3.4,4.9-3.7,6.7c-0.7,3,0.6,5.8,3.9,8.4c3.3,2.6,6.4,3.2,9.1,1.8
			c1.6-0.7,3.5-2.5,5.6-5.2l19-24.3l8.4,6.6l-19,24.3c-3.3,4.2-6.5,7-9.6,8.3c-5.8,2.4-12.1,0.9-18.9-4.4
			c-6.8-5.3-9.8-11.1-8.9-17.3c0.5-3.4,2.4-7.1,5.7-11.3L563.8,144.5z"/>
	</g>
	<g>
		<path class="st1" d="M192.5,557l6,7.7c1.5,2,2.1,3.9,1.6,5.8c-0.4,1.9-1.6,3.7-3.6,5.3c-1,0.8-2.1,1.4-3.4,1.7
			c-0.6,0.1-1.3,0.2-2,0.1c-0.7-0.1-1.5-0.2-2.3-0.5l-0.1,0.1c0.5,1.4,0.4,2.7-0.2,4.1c-0.7,1.4-1.7,2.6-3,3.6
			c-2.2,1.7-4.3,2.5-6.3,2.4c-2.1,0-3.8-0.8-5-2.4l-6.6-8.3L192.5,557z M191.5,562.6l-7.1,5.6l3.4,4.3c0.9,1.1,1.9,1.6,3,1.6
			c1.1,0,2.1-0.4,3.1-1.2s1.6-1.7,1.9-2.8c0.2-1-0.1-2.1-0.9-3.2L191.5,562.6z M181.1,570.8l-7.4,5.9l3.6,4.6
			c0.9,1.1,1.9,1.6,3.1,1.5c1.1-0.1,2.2-0.5,3.2-1.3c1-0.8,1.7-1.7,2-2.8c0.3-1.1,0-2.2-0.8-3.3L181.1,570.8z"/>
		<path class="st1" d="M205.9,574.1l11.2,11.5l-3.2,3.1l-8.6-8.8l-6.4,6.3l7.3,7.5l-3,3l-7.3-7.5l-6.6,6.4l8.6,8.8l-3.2,3.1
			l-11.2-11.5L205.9,574.1z"/>
		<path class="st1" d="M223.2,596.1l-5.1-4.6l2.9-3.1l13,11.9l-2.9,3.1l-5.1-4.6l-18.3,20.1l-2.8-2.6L223.2,596.1z"/>
		<path class="st1" d="M240.1,610.2l-5.4-4.3l2.6-3.3l13.9,10.9l-2.6,3.3l-5.4-4.3L226.4,634l-3-2.4L240.1,610.2z"/>
		<path class="st1" d="M254.6,616l13.2,9.2l-2.6,3.7l-10.1-7l-5.1,7.4l8.6,6l-2.4,3.5l-8.6-6l-5.3,7.6l10.1,7l-2.6,3.7l-13.2-9.2
			L254.6,616z"/>
		<path class="st1" d="M271.9,627.7l8.8,4.5c1.9,1,3.1,2.3,3.6,4.2c0.7,2.1,0.4,4.5-0.8,7.1c-2,3.8-4.7,5.6-8.3,5.6l-1.1,15.1
			l-4-2.1l1.5-14.3l-4.3-2.2l-6.1,12l-3.4-1.7L271.9,627.7z M269,641.7l5.1,2.6c1.3,0.6,2.5,0.6,3.6,0.1c1.1-0.5,1.9-1.4,2.5-2.6
			c0.7-1.5,0.9-2.7,0.5-3.7c-0.3-0.9-1-1.6-2.1-2.1l-5.3-2.7L269,641.7z"/>
		<path class="st1" d="M309.5,667.8c-1.5,2.5-3.3,4.3-5.3,5.2c-2,0.9-4.1,1-6.1,0.2c-1.8-0.7-3.2-1.9-4-3.4
			c-0.9-1.5-1.3-3.1-1.4-4.6c0-0.5,0-1,0-1.4c0-0.5,0.1-1,0.3-1.7c0.3-1.2,1-3.6,2.3-6.9c1.3-3.4,2.2-5.7,2.8-6.8
			c0.6-1.1,1.2-1.9,1.8-2.5c1.1-1.1,2.4-2,4.1-2.6c1.6-0.6,3.4-0.6,5.3,0.1c2.3,0.9,3.8,2.4,4.6,4.6c0.8,2.2,0.9,4.6,0.4,7.2
			l-3.8-1.4c0.2-1.3,0-2.5-0.5-3.6c-0.5-1.1-1.3-1.9-2.5-2.3c-0.9-0.3-1.7-0.3-2.4-0.2c-0.8,0.2-1.5,0.5-2.1,1
			c-0.7,0.5-1.3,1.2-1.8,2.1c-0.6,1-1.4,2.9-2.5,5.8c-1.1,2.9-1.7,4.9-1.9,6c-0.2,1.1-0.2,2,0,2.8c0.2,0.7,0.5,1.4,0.9,2
			c0.4,0.7,1.1,1.2,1.9,1.5c2,0.7,4,0,6-2.3L309.5,667.8z"/>
		<path class="st1" d="M321.3,648.9l3.7,0.9l-7.1,30.7l-3.7-0.9L321.3,648.9z"/>
		<path class="st1" d="M336.6,656.9l-6.8-1.1l0.7-4.2l17.4,2.9l-0.7,4.2l-6.8-1.1l-4.4,26.9l-3.8-0.6L336.6,656.9z"/>
		<path class="st1" d="M358.5,676l-5.7-19.2l4,0.4l3.9,14.4l6.7-13.4l4,0.4l-9.4,17.7l-1.3,12.9l-3.6-0.4L358.5,676z"/>
		<path class="st1" d="M384.9,660.7H401v4.5h-12.3v9.3h10.5v4.2h-10.5v13.5h-3.8V660.7z"/>
		<path class="st1" d="M406.5,675.2c0-3.7,0.1-6.1,0.3-7.3c0.2-1.2,0.5-2.2,0.8-3c0.6-1.5,1.6-2.7,2.9-3.9c1.3-1.2,3-1.7,5-1.8
			c2,0,3.7,0.6,5,1.8c1.3,1.1,2.3,2.4,2.9,3.9c0.4,0.8,0.7,1.8,0.9,3c0.2,1.2,0.2,3.7,0.2,7.3c0,3.6-0.1,6-0.2,7.3
			c-0.2,1.3-0.5,2.3-0.9,3c-0.6,1.5-1.5,2.7-2.9,3.8c-1.3,1.2-3,1.8-5,1.8c-2-0.1-3.6-0.7-5-1.8c-1.3-1.1-2.3-2.4-2.9-3.8
			c-0.2-0.5-0.4-0.9-0.5-1.4c-0.1-0.4-0.3-1-0.3-1.7C406.6,681.3,406.5,678.8,406.5,675.2z M410.3,675.2c0,3.1,0.1,5.2,0.3,6.3
			c0.2,1.1,0.5,2,1,2.7c0.4,0.6,0.9,1.2,1.6,1.6c0.6,0.5,1.4,0.7,2.3,0.7c0.9,0,1.7-0.2,2.4-0.7c0.6-0.4,1.1-0.9,1.5-1.6
			c0.5-0.7,0.8-1.6,1-2.7c0.2-1.1,0.3-3.2,0.3-6.3s-0.1-5.2-0.3-6.3c-0.2-1.1-0.5-1.9-1-2.6c-0.4-0.6-0.9-1.2-1.5-1.6
			c-0.7-0.4-1.5-0.6-2.4-0.7c-0.9,0-1.7,0.3-2.3,0.7c-0.7,0.4-1.2,1-1.6,1.6c-0.5,0.7-0.8,1.5-1,2.6
			C410.4,670,410.3,672.1,410.3,675.2z"/>
		<path class="st1" d="M432.6,673.7c-0.3-3.6-0.4-6.1-0.3-7.3c0.1-1.2,0.3-2.3,0.6-3.1c0.5-1.5,1.4-2.9,2.6-4.1
			c1.2-1.2,2.8-2,4.8-2.1c2-0.1,3.7,0.3,5.1,1.4c1.4,1,2.5,2.3,3.1,3.7c0.5,0.7,0.8,1.7,1.1,2.9c0.2,1.2,0.5,3.7,0.8,7.3
			c0.3,3.6,0.4,6,0.3,7.3c-0.1,1.3-0.3,2.3-0.7,3.1c-0.5,1.5-1.3,2.8-2.6,4c-1.2,1.2-2.9,2-4.9,2.2c-2,0.1-3.7-0.4-5.1-1.4
			c-1.4-1-2.5-2.2-3.2-3.6c-0.2-0.5-0.4-0.9-0.6-1.3c-0.2-0.4-0.3-1-0.5-1.7C433.1,679.7,432.9,677.3,432.6,673.7z M436.4,673.5
			c0.2,3.1,0.5,5.2,0.7,6.2c0.2,1.1,0.6,1.9,1.2,2.6c0.4,0.6,1,1.1,1.7,1.5c0.7,0.4,1.5,0.6,2.4,0.5c0.9-0.1,1.7-0.4,2.3-0.9
			c0.6-0.4,1.1-1,1.4-1.7c0.4-0.7,0.7-1.6,0.8-2.7c0.1-1.1,0-3.2-0.2-6.3c-0.2-3.1-0.5-5.2-0.7-6.3c-0.3-1-0.7-1.9-1.2-2.5
			c-0.4-0.6-1-1.1-1.6-1.5c-0.7-0.4-1.5-0.5-2.4-0.5c-0.9,0.1-1.6,0.4-2.3,0.8c-0.6,0.5-1.1,1.1-1.5,1.7c-0.4,0.7-0.7,1.6-0.8,2.7
			C436.2,668.3,436.2,670.4,436.4,673.5z"/>
		<path class="st1" d="M460.2,658.7l-6.8,1.2l-0.8-4.2l17.3-3.1l0.8,4.2l-6.8,1.2l4.8,26.8l-3.8,0.7L460.2,658.7z"/>
		<path class="st1" d="M473.3,650.2l9.3-3.1c2.4-0.8,4.4-0.6,6,0.5c1.7,1.1,2.9,2.8,3.7,5.2c0.4,1.2,0.6,2.5,0.5,3.8
			c-0.1,0.6-0.3,1.2-0.6,1.9c-0.3,0.7-0.7,1.3-1.3,2l0,0.1c1.4,0,2.7,0.5,3.8,1.6c1.1,1.1,1.9,2.5,2.4,4c0.8,2.6,0.9,4.8,0.1,6.8
			c-0.7,2-2,3.3-3.9,3.9l-10.1,3.4L473.3,650.2z M478.3,653l2.8,8.5l5.2-1.7c1.3-0.4,2.2-1.2,2.5-2.3c0.4-1,0.4-2.1,0-3.3
			s-1.1-2.1-2-2.7c-0.9-0.6-2-0.7-3.3-0.2L478.3,653z M482.5,665.6l3,9l5.6-1.9c1.3-0.5,2.2-1.3,2.5-2.4c0.3-1.1,0.3-2.2-0.1-3.4
			c-0.4-1.2-1.1-2.2-2-2.8c-0.9-0.7-2-0.8-3.4-0.3L482.5,665.6z"/>
		<path class="st1" d="M515.8,660.3L507,664l0.9,7.2l-3.7,1.5l-3.6-32.6l3-1.2l20.5,25.6l-3.7,1.5L515.8,660.3z M513.2,656.9
			l-8.6-11.3l-0.1,0l1.9,14.1L513.2,656.9z"/>
		<path class="st1" d="M515.1,633.9l3.3-1.9l13.4,23.4l10.6-6.1l2.2,3.9l-14,8L515.1,633.9z"/>
		<path class="st1" d="M532.1,624.1l3.2-2.1l14.7,22.6l10.3-6.7l2.5,3.8l-13.5,8.8L532.1,624.1z"/>
		<path class="st1" d="M585.3,614.1c1.4,2.6,2.1,5,1.9,7.2c-0.2,2.2-1.2,4-2.9,5.4c-1.6,1.2-3.2,1.8-5,1.8c-1.7,0-3.3-0.4-4.7-1.1
			c-0.4-0.2-0.9-0.5-1.3-0.7c-0.4-0.3-0.8-0.6-1.3-1.1c-0.9-0.9-2.6-2.7-4.9-5.4c-2.3-2.8-3.8-4.8-4.5-5.8c-0.6-1.1-1.1-2-1.3-2.8
			c-0.5-1.5-0.5-3.1-0.2-4.9c0.3-1.7,1.2-3.2,2.7-4.5c1.9-1.5,4-2.1,6.3-1.7c2.3,0.4,4.5,1.5,6.5,3.2l-3.1,2.6
			c-1-0.8-2.2-1.2-3.4-1.4c-1.2-0.1-2.3,0.2-3.2,1c-0.7,0.6-1.1,1.3-1.4,2c-0.2,0.8-0.3,1.5-0.2,2.3c0.1,0.8,0.4,1.7,0.9,2.6
			c0.6,1,1.9,2.7,3.8,5s3.4,3.9,4.2,4.7c0.8,0.7,1.6,1.2,2.5,1.4c0.7,0.2,1.5,0.3,2.2,0.2c0.8,0,1.5-0.4,2.2-0.9
			c1.6-1.4,2-3.5,1-6.4L585.3,614.1z"/>
		<path class="st1" d="M574.9,594.4l2.6-2.8l19.5,18.6l8.5-8.9l3.3,3.1l-11.1,11.6L574.9,594.4z"/>
		<path class="st1" d="M588.7,580.8l2.5-2.9l15.4,13.2c1.6,1.4,3.2,2.1,4.7,2.1c1.5,0.1,2.8-0.5,3.7-1.6s1.3-2.4,1.1-3.9
			c-0.2-1.4-1.2-2.9-2.8-4.3l-15.4-13.2l2.5-2.9l15.8,13.6c2.5,2.2,3.9,4.6,4.3,7.1c0.4,2.6-0.2,4.9-1.9,6.8
			c-1.7,1.9-3.8,2.8-6.4,2.8c-2.6,0-5.2-1-7.7-3.2L588.7,580.8z"/>
		<path class="st1" d="M604,563.7l5.2-8.2c1.3-2.1,3-3.2,5-3.5c2-0.2,4,0.3,6.2,1.7c1.1,0.7,2,1.5,2.7,2.6c0.3,0.5,0.6,1.1,0.7,1.8
			c0.2,0.7,0.3,1.5,0.2,2.3l0.1,0c1.1-0.9,2.4-1.3,3.9-1.2c1.5,0.2,3,0.7,4.4,1.6c2.3,1.5,3.7,3.2,4.4,5.2c0.7,2,0.5,3.8-0.6,5.5
			l-5.7,9L604,563.7z M609.7,562.8l7.6,4.8l2.9-4.7c0.7-1.2,0.9-2.3,0.5-3.3c-0.3-1-1.1-1.9-2.1-2.5c-1.1-0.7-2.2-1-3.3-0.9
			c-1,0.1-2,0.8-2.7,1.9L609.7,562.8z M620.9,569.9l8,5.1l3.1-5c0.7-1.2,0.9-2.3,0.4-3.4c-0.4-1-1.2-1.9-2.2-2.6
			c-1.1-0.7-2.2-1-3.3-0.9c-1.1,0.1-2.1,0.7-2.8,1.9L620.9,569.9z"/>
	</g>
</g>
</svg>
