<?xml version="1.0" encoding="utf-8"?>
<!-- Generator: Adobe Illustrator 22.1.0, SVG Export Plug-In . SVG Version: 6.00 Build 0)  -->
<svg version="1.1" id="图层_1" xmlns="http://www.w3.org/2000/svg" xmlns:xlink="http://www.w3.org/1999/xlink" x="0px" y="0px"
	 viewBox="0 0 800 800" style="enable-background:new 0 0 800 800;" xml:space="preserve">
<style type="text/css">
	.st0{fill:#BE0000;}
</style>
<g>
	<path class="st0" d="M400,60.3c45.9,0,90.4,9,132.2,26.7c40.5,17.1,76.8,41.6,108,72.8s55.7,67.5,72.8,108
		c17.7,41.9,26.7,86.4,26.7,132.2s-9,90.4-26.7,132.2c-17.1,40.5-41.6,76.8-72.8,108s-67.5,55.7-108,72.8
		c-41.9,17.7-86.4,26.7-132.2,26.7s-90.4-9-132.2-26.7c-40.5-17.1-76.8-41.6-108-72.8s-55.7-67.5-72.8-108
		C69.3,490.4,60.3,445.9,60.3,400s9-90.4,26.7-132.2c17.1-40.5,41.6-76.8,72.8-108s67.5-55.7,108-72.8
		C309.6,69.3,354.1,60.3,400,60.3 M400,50C206.7,50,50,206.7,50,400s156.7,350,350,350s350-156.7,350-350S593.3,50,400,50L400,50z"
		/>
	<path class="st0" d="M524,153.9c2.1-2.1,3.9-4.9,5.3-8.4c2-4.8,2.8-8.9,2.4-12.1c-0.4-3.2-2.9-5.8-7.4-7.7l-9.2-3.9l-13,31.1
		l9.2,3.9C515.9,158.7,520.2,157.8,524,153.9z"/>
	<g>
		<path class="st0" d="M184.6,579.2c1.1,0,2.2-0.4,3.2-1.2c1-0.8,1.7-1.8,2-2.9c0.2-1.1-0.1-2.2-0.9-3.3l-3.5-4.5l-7.3,5.7l3.5,4.5
			C182.5,578.7,183.5,579.3,184.6,579.2z"/>
		<path class="st0" d="M174.6,575.9l-7.6,6l3.7,4.7c0.9,1.1,2,1.7,3.2,1.6c1.2-0.1,2.3-0.5,3.3-1.3c1-0.8,1.7-1.8,2.1-2.9
			c0.3-1.1,0-2.2-0.8-3.4L174.6,575.9z"/>
		<path class="st0" d="M419.9,674.1c-0.4-0.7-0.9-1.2-1.6-1.7c-0.7-0.4-1.5-0.7-2.4-0.7c-0.9,0-1.7,0.3-2.4,0.7
			c-0.7,0.4-1.2,1-1.6,1.7c-0.5,0.7-0.8,1.6-1,2.7c-0.2,1.2-0.3,3.3-0.3,6.5s0.1,5.3,0.3,6.5c0.2,1.1,0.5,2,1,2.7
			c0.4,0.7,1,1.2,1.6,1.6c0.7,0.5,1.5,0.7,2.4,0.7c0.9,0,1.7-0.2,2.4-0.7c0.7-0.4,1.2-1,1.6-1.6c0.5-0.7,0.9-1.6,1-2.7
			c0.2-1.1,0.3-3.3,0.3-6.5s-0.1-5.4-0.3-6.5C420.8,675.7,420.5,674.8,419.9,674.1z"/>
		<path class="st0" d="M275.1,642.8l-5.5-2.8l-4.5,8.8l5.3,2.7c1.3,0.6,2.5,0.7,3.7,0.1c1.1-0.5,1.9-1.4,2.6-2.7
			c0.7-1.5,0.9-2.8,0.5-3.9C276.9,644.1,276.2,643.4,275.1,642.8z"/>
		<path class="st0" d="M400,73.2C219.5,73.2,73.2,219.5,73.2,400S219.5,726.8,400,726.8S726.8,580.5,726.8,400S580.5,73.2,400,73.2z
			 M543.1,173.6c0.5-3.5,2.5-7.3,5.9-11.7l19.6-25l8.6,6.8l-19.5,25c-2.2,2.8-3.5,5.1-3.8,6.9c-0.8,3.1,0.6,6,4,8.7
			c3.4,2.7,6.5,3.3,9.4,1.8c1.7-0.8,3.6-2.6,5.8-5.3l19.5-25l8.6,6.8l-19.6,25c-3.4,4.3-6.7,7.2-9.9,8.5c-6,2.5-12.4,0.9-19.5-4.6
			C545.3,185.9,542.2,180,543.1,173.6z M508.9,109.5l20.5,8.6c2.9,1.3,5.2,2.7,6.9,4.1c2.9,2.5,4.7,5.6,5.6,9.4
			c0.7,3.1,0.7,6.1,0.2,9.1c-0.6,3-1.4,5.8-2.4,8.3c-2.7,6.3-6.2,11.2-10.6,14.5c-5.9,4.5-12.5,5.2-19.7,2.2l-20.5-8.6L508.9,109.5z
			 M434.9,120.5c0.7-8.3,3.5-14.8,8.5-19.5c5-4.7,11.2-6.7,18.8-6.1c6.5,0.5,11.7,2.6,15.4,6.2c3.7,3.6,5.7,7.9,5.9,13l-10.6-0.8
			c-0.5-3.6-2.3-6.2-5.4-7.8c-1.7-0.9-3.6-1.4-5.8-1.6c-4.1-0.3-7.7,1-10.6,3.9c-2.9,2.9-4.6,7.5-5.1,13.8
			c-0.5,6.3,0.6,10.9,3.3,13.8c2.7,2.9,5.9,4.4,9.5,4.7c3.6,0.3,6.6-0.5,9.1-2.4c2.5-1.9,4.1-4.5,4.9-7.8l-11.9-0.9l0.7-8.6
			l21.4,1.7l-2.2,27.6l-7.1-0.6l-0.6-6.5c-2.3,2.3-4.3,3.8-6,4.7c-3,1.5-6.5,2.1-10.7,1.8c-6.8-0.5-12.2-3.3-16.2-8.4
			C436,135.4,434.2,128.7,434.9,120.5z M376.7,89.3H388l20.5,36v-36h10.1V141h-10.8l-21-36.6V141h-10.1V89.3z M354.8,92.7l1.8,9
			l-26.8,5.3l2.1,10.8l24.6-4.8l1.7,8.8l-24.6,4.8l2.6,13l28.1-5.5l1.8,9.1l-38.4,7.5l-9.9-50.7L354.8,92.7z M266.1,119l8,18
			l18.3-8.2l-8-18l9.8-4.4l21.1,47.1l-9.8,4.4l-9.4-21l-18.3,8.2l9.4,21l-9.8,4.4l-21.1-47.1L266.1,119z M210.2,159
			c1.3-5.8,4.6-10.4,10.1-13.8c7.3-4.5,14.1-5.5,20.5-2.7c3.6,1.6,6.3,3.7,8.1,6.3l-9.2,5.7c-1.9-1.7-3.6-2.9-5.2-3.4
			c-2.8-0.9-5.8-0.3-9,1.7c-3.3,2-5,5-5.2,8.8c-0.2,3.9,1.2,8.2,4.3,13.2c3.1,4.9,6.4,8,9.9,9.2c3.5,1.2,6.8,0.9,9.9-1.1
			c3.1-2,4.9-4.5,5.2-7.6c0.2-1.7-0.1-3.9-0.9-6.5l9.1-5.7c2.2,5.3,2.6,10.4,1.3,15.4c-1.4,5-4.6,9.1-9.6,12.2
			c-6.2,3.9-12.4,4.9-18.5,3.1c-6.1-1.8-11.4-6.3-15.8-13.4C210.3,172.9,208.7,165.7,210.2,159z M230.3,224v-14.8v-5.1h5.1h18.3
			c40.8-30.5,91.4-48.6,146.3-48.6s105.5,18.1,146.3,48.6h18.3h5.1v5.1V224c46.1,44.5,74.8,106.9,74.8,176
			c0,135-109.5,244.5-244.5,244.5S155.5,535,155.5,400C155.5,330.9,184.2,268.5,230.3,224z M167.7,590.3l-6.8-8.6l25.5-20.1l6.2,7.9
			c1.6,2,2.1,4,1.7,6c-0.4,2-1.7,3.8-3.7,5.4c-1,0.8-2.2,1.4-3.5,1.8c-0.6,0.1-1.3,0.2-2,0.1c-0.7-0.1-1.5-0.2-2.3-0.6l-0.1,0.1
			c0.5,1.4,0.4,2.8-0.2,4.2c-0.7,1.4-1.7,2.7-3.1,3.7c-2.2,1.7-4.4,2.5-6.5,2.5C170.6,592.7,168.9,591.9,167.7,590.3z M191.9,610.5
			l-3.3,3.2L177,601.9l23.2-22.6l11.6,11.9l-3.3,3.2l-8.8-9l-6.6,6.5l7.5,7.7l-3.1,3l-7.5-7.7l-6.8,6.6L191.9,610.5z M199.2,622.6
			l18.9-20.7l-5.3-4.8l2.9-3.2l13.4,12.2l-2.9,3.2l-5.3-4.8l-18.9,20.7L199.2,622.6z M218.1,638.5l17.3-22.1l-5.6-4.4l2.7-3.4
			l14.3,11.2l-2.7,3.4l-5.6-4.4l-17.3,22.1L218.1,638.5z M248.1,654.6l-2.6,3.8l-13.6-9.4l18.5-26.6l13.6,9.4l-2.6,3.8l-10.4-7.2
			l-5.3,7.6l8.9,6.1l-2.5,3.6l-8.9-6.1l-5.4,7.8L248.1,654.6z M280,650.6c-2,3.9-4.9,5.8-8.5,5.7l-1.2,15.5l-4.2-2.1l1.5-14.8
			l-4.5-2.3l-6.3,12.3l-3.5-1.8l14.7-28.9l9,4.6c1.9,1,3.2,2.4,3.7,4.3C281.6,645.4,281.3,647.9,280,650.6z M307.3,657.4
			c-0.5-1.1-1.4-1.9-2.5-2.4c-0.9-0.3-1.7-0.4-2.5-0.2c-0.8,0.2-1.5,0.5-2.1,1c-0.7,0.5-1.4,1.2-1.9,2.2c-0.6,1-1.4,3-2.5,6
			c-1.1,3-1.8,5-2,6.2c-0.2,1.1-0.2,2.1,0,2.9c0.2,0.8,0.5,1.5,1,2.1c0.5,0.7,1.1,1.2,2,1.5c2.1,0.8,4.1,0,6.2-2.4l3.9,1.5
			c-1.6,2.6-3.4,4.4-5.5,5.4c-2.1,0.9-4.2,1-6.3,0.2c-1.9-0.8-3.3-1.9-4.1-3.5c-0.9-1.6-1.4-3.1-1.5-4.8c0-0.5,0-1,0-1.5
			c0-0.5,0.1-1.1,0.3-1.7c0.3-1.3,1.1-3.7,2.4-7.1c1.3-3.5,2.3-5.9,2.9-7c0.6-1.1,1.3-2,1.9-2.6c1.1-1.2,2.5-2.1,4.2-2.7
			c1.7-0.6,3.5-0.6,5.4,0.1c2.3,0.9,3.9,2.5,4.8,4.7c0.8,2.3,1,4.8,0.4,7.4l-3.9-1.5C308,659.8,307.8,658.6,307.3,657.4z
			 M315.5,688.7l-3.8-0.9l7.3-31.6l3.8,0.9L315.5,688.7z M345.7,666.2l-7-1.2l-4.6,27.7l-3.9-0.6l4.6-27.7l-7-1.2l0.7-4.3l17.9,3
			L345.7,666.2z M360.9,684.5l-1.3,13.3l-3.7-0.4l1.3-13.3l-5.9-19.7l4.1,0.4l4.1,14.9l6.9-13.8l4.1,0.4L360.9,684.5z M401,673
			h-12.6v9.6h10.8v4.4h-10.8v13.8h-3.9v-32.4H401V673z M425,690.8c-0.2,1.3-0.5,2.3-0.9,3.1c-0.6,1.5-1.6,2.8-3,4
			c-1.4,1.2-3.1,1.8-5.2,1.9c-2-0.1-3.7-0.7-5.1-1.9c-1.4-1.1-2.4-2.5-3-4c-0.2-0.5-0.4-1-0.5-1.4c-0.1-0.5-0.3-1-0.4-1.7
			c-0.2-1.3-0.3-3.8-0.3-7.5c0-3.8,0.1-6.3,0.3-7.6c0.2-1.3,0.5-2.3,0.9-3.1c0.6-1.5,1.6-2.8,3-4c1.4-1.2,3.1-1.8,5.1-1.8
			c2.1,0,3.8,0.6,5.2,1.8c1.4,1.2,2.3,2.5,3,4c0.4,0.8,0.7,1.8,0.9,3.1c0.2,1.3,0.2,3.8,0.2,7.6C425.2,687,425.1,689.5,425,690.8z
			 M452.4,687.9c-0.1,1.3-0.3,2.4-0.7,3.2c-0.5,1.5-1.4,2.9-2.7,4.2c-1.3,1.3-3,2-5,2.2c-2,0.1-3.8-0.4-5.2-1.5
			c-1.5-1-2.6-2.3-3.3-3.7c-0.2-0.5-0.4-0.9-0.6-1.4c-0.2-0.4-0.3-1-0.5-1.7c-0.3-1.3-0.5-3.8-0.8-7.5c-0.3-3.8-0.4-6.3-0.3-7.6
			c0.1-1.3,0.3-2.3,0.6-3.1c0.5-1.5,1.4-2.9,2.7-4.2c1.3-1.3,2.9-2,5-2.2c2.1-0.1,3.8,0.4,5.3,1.4c1.4,1.1,2.5,2.3,3.2,3.8
			c0.5,0.8,0.9,1.8,1.1,3c0.2,1.3,0.5,3.8,0.8,7.5C452.3,684.1,452.4,686.6,452.4,687.9z M470.8,693.3l-3.9,0.7l-4.9-27.6l-7,1.3
			l-0.8-4.3l17.9-3.2l0.8,4.3l-7,1.3L470.8,693.3z M500.1,680.8c-0.8,2-2.1,3.4-4,4l-10.4,3.4l-10.2-30.7l9.5-3.2
			c2.4-0.8,4.5-0.6,6.2,0.5c1.7,1.1,3,2.9,3.8,5.4c0.4,1.3,0.6,2.5,0.5,3.9c-0.1,0.6-0.3,1.3-0.6,1.9c-0.3,0.7-0.7,1.4-1.3,2l0,0.1
			c1.5,0,2.8,0.5,3.9,1.6c1.1,1.2,1.9,2.5,2.4,4.1C500.9,676.5,500.9,678.9,500.1,680.8z M523.8,673.9l-4.6-5.9l-9.1,3.8l0.9,7.5
			l-3.8,1.6l-3.7-33.5l3-1.3l21.1,26.3L523.8,673.9z M534.5,668.9l-16.1-28.1l3.4-1.9l13.8,24.1l11-6.3l2.3,4L534.5,668.9z
			 M553.7,657.9L536,630.7l3.3-2.1l15.2,23.2l10.6-6.9l2.5,3.9L553.7,657.9z M592.7,627.8c-0.2,2.3-1.2,4.1-3,5.6
			c-1.6,1.3-3.3,1.9-5.1,1.8c-1.8,0-3.4-0.4-4.9-1.1c-0.5-0.3-0.9-0.5-1.3-0.7c-0.4-0.3-0.9-0.6-1.4-1.1c-1-0.9-2.6-2.8-5-5.6
			c-2.4-2.9-3.9-4.9-4.6-6c-0.7-1.1-1.1-2.1-1.3-2.9c-0.5-1.6-0.5-3.2-0.2-5c0.3-1.8,1.2-3.3,2.8-4.7c1.9-1.6,4.1-2.2,6.5-1.8
			c2.4,0.4,4.6,1.5,6.7,3.3l-3.2,2.7c-1.1-0.8-2.2-1.3-3.5-1.5c-1.2-0.1-2.3,0.2-3.3,1c-0.7,0.6-1.2,1.3-1.4,2.1
			c-0.2,0.8-0.3,1.5-0.2,2.3c0.1,0.9,0.4,1.8,0.9,2.7c0.6,1,1.9,2.7,3.9,5.2c2,2.5,3.5,4,4.4,4.8c0.8,0.8,1.7,1.2,2.5,1.5
			c0.7,0.2,1.5,0.3,2.3,0.2c0.8,0,1.6-0.4,2.3-1c1.7-1.4,2-3.6,1-6.6l3.2-2.7C592.2,623.1,592.9,625.6,592.7,627.8z M603.5,622.4
			l-23.4-22.4l2.7-2.8l20.1,19.2l8.7-9.1l3.4,3.2L603.5,622.4z M625,600.5c-1.7,1.9-3.9,2.9-6.6,2.9c-2.7,0-5.3-1-7.9-3.2l-16.2-14
			l2.6-3l15.8,13.6c1.7,1.4,3.3,2.1,4.8,2.1c1.6,0.1,2.8-0.5,3.8-1.7c1-1.2,1.4-2.5,1.1-4.1c-0.2-1.5-1.2-3-2.9-4.4l-15.8-13.6
			l2.6-3l16.2,14c2.6,2.3,4,4.7,4.4,7.3C627.3,596.1,626.7,598.5,625,600.5z M643.3,576.7l-5.8,9.2L610,568.6l5.4-8.5
			c1.4-2.1,3.1-3.3,5.1-3.6c2-0.2,4.1,0.3,6.4,1.7c1.1,0.7,2.1,1.6,2.8,2.7c0.3,0.5,0.6,1.2,0.8,1.9c0.2,0.7,0.3,1.5,0.3,2.4l0.1,0
			c1.1-0.9,2.5-1.4,4.1-1.2c1.6,0.2,3.1,0.7,4.5,1.6c2.4,1.5,3.9,3.3,4.5,5.3C644.6,573,644.4,574.9,643.3,576.7z"/>
		<path class="st0" d="M637,568.8c-1.1-0.7-2.3-1-3.4-1c-1.2,0.1-2.1,0.7-2.9,1.9l-3.2,5.1l8.2,5.2l3.2-5.1c0.8-1.2,0.9-2.4,0.5-3.5
			C638.9,570.4,638.1,569.5,637,568.8z"/>
		<path class="st0" d="M627.2,564.3c-0.4-1-1.1-1.9-2.2-2.6c-1.1-0.7-2.2-1-3.4-0.9c-1.1,0.1-2,0.8-2.8,2l-3,4.8l7.8,5l3-4.8
			C627.5,566.5,627.7,565.4,627.2,564.3z"/>
		<path class="st0" d="M447.4,674.2c-0.3-1.1-0.7-1.9-1.2-2.6c-0.4-0.6-1-1.2-1.7-1.5c-0.7-0.4-1.5-0.5-2.5-0.5
			c-0.9,0.1-1.7,0.4-2.3,0.9c-0.6,0.5-1.1,1.1-1.5,1.8c-0.5,0.7-0.7,1.7-0.8,2.8c-0.1,1.2,0,3.3,0.2,6.5c0.2,3.2,0.5,5.3,0.8,6.4
			c0.2,1.1,0.7,2,1.2,2.7c0.5,0.6,1,1.1,1.8,1.5c0.7,0.4,1.5,0.6,2.4,0.6c0.9-0.1,1.7-0.4,2.4-0.9c0.6-0.5,1.1-1,1.4-1.7
			c0.5-0.7,0.7-1.7,0.8-2.8c0.1-1.1,0-3.3-0.2-6.5C447.9,677.5,447.6,675.4,447.4,674.2z"/>
		<path class="st0" d="M494.2,671.9c-0.9-0.7-2.1-0.8-3.5-0.4l-5.7,1.9l3.1,9.2l5.7-1.9c1.4-0.5,2.2-1.3,2.6-2.4
			c0.3-1.1,0.3-2.3-0.1-3.5C495.8,673.5,495.1,672.6,494.2,671.9z"/>
		<path class="st0" d="M491.5,665.2c0.4-1,0.4-2.2,0-3.4s-1.1-2.2-2-2.8c-0.9-0.6-2-0.7-3.4-0.2l-5.4,1.8l2.9,8.8l5.4-1.8
			C490.3,667,491.1,666.3,491.5,665.2z"/>
		<polygon class="st0" points="516.5,664.4 507.6,652.8 507.5,652.8 509.5,667.3 		"/>
	</g>
	<g>
		<path class="st0" d="M285.4,456.1c0-96.3,0-198.1,0-198.1h52.4v-48.8H235.4c0,0,0,128.6,0,247.5S400,635.9,400,635.9
			C347.6,601.2,285.4,552.4,285.4,456.1z"/>
		<path class="st0" d="M287.9,260.4v195.6c0,22.5,3.5,43.7,10.4,63c6.1,17.1,15.1,33.4,26.7,48.5c10.3,13.3,25.1,29.7,56.3,52.4
			c-39.9-36.8-75.1-88.9-75.1-148.4c0-63.4,0-191.9,0-211.1H287.9z"/>
		<path class="st0" d="M475,567.6c11.6-15.1,20.6-31.4,26.7-48.5c6.9-19.4,10.4-40.6,10.4-63V260.4h-18.3c0,19.2,0,147.7,0,211.1
			c0,59.5-35.2,111.6-75.1,148.4C449.9,597.3,464.7,580.9,475,567.6z"/>
		<path class="st0" d="M477,209.2h-14.8h-18.3h-42.4v423.9c7.7-14.1,42.4-80.1,42.4-132.6c0-42,0-171.1,0-242.6h18.3H477h37.6
			c0,0,0,101.8,0,198.1c0,95.4-61,144.1-113.1,178.8v0.4c16.6-6.4,163-66.5,163-178.6c0-118.9,0-247.5,0-247.5H477z"/>
		<path class="st0" d="M398.5,209.2h-42.4c0,0,0,232.2,0,291.3c0,52.5,34.6,118.5,42.4,132.6V209.2z"/>
	</g>
</g>
</svg>
