<?xml version="1.0" encoding="utf-8"?>
<!-- Generator: Adobe Illustrator 22.1.0, SVG Export Plug-In . SVG Version: 6.00 Build 0)  -->
<svg version="1.1" id="图层_1" xmlns="http://www.w3.org/2000/svg" xmlns:xlink="http://www.w3.org/1999/xlink" x="0px" y="0px"
	 viewBox="0 0 800 800" style="enable-background:new 0 0 800 800;" xml:space="preserve">
<style type="text/css">
	.st0{fill:#D3DFF2;}
	.st1{fill:#78A9DA;}
	.st2{fill:#0070BD;}
	.st3{fill:#E0D000;}
	.st4{fill:#D6C700;}
	.st5{fill:#E60012;}
	.st6{fill:#FFFFFF;}
</style>
<g>
	<g>
		<g>
			<polygon class="st0" points="185,68.4 402.7,182.9 617,68.8 575.1,309.5 750,478.6 509.3,514.3 400.4,732.6 292.2,513.5 
				50,479.6 226.5,308.4 			"/>
		</g>
		<polygon class="st1" points="211.9,105.4 393.3,200.8 402.7,205.8 412.2,200.7 590,106.1 555.2,306 553.4,316.6 561.1,324 
			706.5,464.6 506.3,494.3 495.9,495.9 491.2,505.3 400.5,687.1 310.3,504.5 305.6,494.9 295,493.4 93.8,465.3 240.6,322.9 
			248.2,315.5 246.4,305 		"/>
		<polygon class="st2" points="238.8,142.4 383.9,218.7 393.3,223.7 402.8,228.7 412.3,223.6 421.7,218.6 563,143.4 535.3,302.6 
			533.4,313.1 531.6,323.7 539.3,331.1 547,338.6 662.9,450.6 503.3,474.3 492.9,475.9 482.5,477.4 477.8,486.9 473.1,496.3 
			400.5,641.6 328.4,495.6 323.7,486 318.9,476.4 308.4,474.9 297.8,473.4 137.6,451 254.6,337.4 262.3,330 270,322.6 268.2,312.1 
			266.3,301.5 		"/>
	</g>
	<path class="st3" d="M453.4,96.4c-12.7,0-127.3,68.2-30,195.3l-15.9,14c0,0-1-85.2-79-102.5s-124.7,51.5-131.9,91
		c-7.2,39.5,1.4,135.8,134.8,192.6c10.3,3.6,10.7,0.5,11.1-1c-0.3-5.2-34.5-53.4-24.6-78.2c4.4-7.5,18.1-5.5,25.3,2.9
		c6,6.7,32,38.3,53.2,161c2.4,16.4,7.2,8.2,9.6-2.9c2.4-11.1,4.2-92.9,47.4-134.3c46-45.7,99.9-64.9,106.4-111.4
		c6.5-46.5-10.8-75.4-47.9-102.3c9.1-17.8-6.3-32.9-12.9-37.4c-6.6-4.6-27.8-21.8-31.2-37.9S457,96.6,453.4,96.4z"/>
	<path class="st4" d="M451.8,101.2c2.6,5.5,7.6,24.1,11.9,44.9c4.3,20.6,32.7,40.4,33,40.6c3.4,2.3,8.1,6.8,11,12.2
		c3.6,6.7,3.8,13.3,0.5,19.6l-1.7,3.3l3,2.2c38.6,28.1,52,56.5,46.1,98.2c-4.1,28.9-27.5,46.6-57.2,69c-15,11.3-32.1,24.2-47.9,39.9
		c-37.7,36.2-44.8,102.5-47.4,127.5c-0.5,4.2-0.8,7.6-1.1,9c-0.3,1.5-0.7,2.8-1,3.9c0-0.2-0.1-0.5-0.1-0.7l0-0.1l0-0.1
		c-19-110.4-42.1-149.6-54.2-163.2c-4.8-5.6-12.1-9-19.1-9c-5.8,0-10.6,2.5-13.2,6.8l-0.2,0.3l-0.1,0.3c-8.2,20.5,9.8,53.4,19.5,71
		c1.3,2.4,2.8,5,3.7,6.9c-1-0.2-2.3-0.5-4.2-1.2c-57.1-24.3-96.7-58.2-117.8-100.7c-20.5-41.3-16.1-77.1-14.3-87.1
		c2.7-15,12.4-38,31.3-57.9c14.1-14.7,38-32.3,72-32.3c0,0,0,0,0,0c7.6,0,15.4,0.9,23.3,2.6c30.8,6.8,52.9,25.3,65.6,55
		c9.6,22.4,10,43.2,10,43.4l0.1,9.4l7.1-6.2l15.9-14l3-2.7l-2.5-3.2c-20.6-26.9-33-53.1-36.7-77.8c-3.1-20.1-0.4-39.3,7.9-57
		C413.7,120.9,443.6,103.9,451.8,101.2 M453.4,96.4c-12.7,0-127.3,68.2-30,195.3l-15.9,14c0,0-1-85.2-79-102.5
		c-8.5-1.9-16.6-2.7-24.3-2.7c-63.4,0-101.2,58.5-107.7,93.7c-7.2,39.5,1.4,135.8,134.8,192.6c3.5,1.2,5.8,1.7,7.4,1.7
		c3.1,0,3.4-1.7,3.7-2.7c-0.3-5.2-34.5-53.4-24.6-78.2c1.9-3.2,5.4-4.6,9.4-4.6c5.4,0,11.7,2.7,15.9,7.5c6,6.7,32,38.3,53.2,161
		c1,6.6,2.4,9.2,3.8,9.2c2.1,0,4.4-5.6,5.8-12.1c2.4-11.1,4.2-92.9,47.4-134.3c46-45.7,99.9-64.9,106.4-111.4
		c6.5-46.5-10.8-75.4-47.9-102.3c9.1-17.8-6.3-32.9-12.9-37.4c-6.6-4.6-27.8-21.8-31.2-37.9C464.6,129.1,457,96.6,453.4,96.4
		L453.4,96.4z"/>
	<path class="st5" d="M481.4,67.4c0,0-26.5,31.5-18.5,49.6s27.2,7,39-3.9c0,0-4.3,20.5-31.3,31.3c-28.9,8.4-36.8-19.9-25.1-40.4
		C457.1,83.6,473.7,71.8,481.4,67.4z"/>
	<path class="st5" d="M432.1,119c0,0-11.7,11.7-13.4,13.5c-1.7,1.8-3,6.9,3,5.5s9.5-9.1,9.7-9.7C431.7,127.6,432.9,124.7,432.1,119z
		"/>
	<path class="st5" d="M449.1,151.5c0,0-7.2,36.6,2.9,53.4s18.1,9.6,17-8.1c0,0,5.8,22.2,16.1,29.6c10.3,7.4,19.9,0,20.9-3.6
		c0,0-1.8,12.1-13.2,11.9s-21.3-17.9-22.7-23.3c0,0-1.1,8.3-7,8.7c-6,0.4-15.3-7.9-18.2-22.2C441.9,183.6,441.9,166.9,449.1,151.5z"
		/>
	<path class="st5" d="M485.4,479.2c124.8-95.4,126.3-139.7,126.3-150.8l61.6,56.3c0,0,4.3,3.9-1.4,19.3s-23.6,65.5-122.3,143
		S356,636.5,340.1,635.5c-15.9-1-20.7-13-20.7-13l-28.2-71C291.2,551.5,347.6,574.3,485.4,479.2z"/>
	<g>
		<path class="st6" d="M338.6,604.3c1,5.8,3.4,7.6,6,7.2c2.8-0.5,3.4-3.5,2.9-6.3c-0.5-2.9-1.4-3.9-2.3-4.4
			c-1.4-0.8-3.2-1.2-5.9-2.1c-3.4-1.2-5-4.9-5.6-8.8c-1.2-7.5,1.5-11.6,4.8-12.2c3.8-0.7,7.7,2.9,9,10.7l-3.2,0.6
			c-1-4.8-2.8-6.3-5-5.9c-1.5,0.3-3.2,1.7-2.5,5.5c0.4,2.6,1.6,3.9,3,4.4c0.3,0.1,4.7,1.5,5.7,1.9c2.6,1.1,4.5,5,5.1,8.9
			c1.4,8.4-1.6,12.4-5.3,13c-4.1,0.7-8.2-2.7-9.8-12L338.6,604.3z"/>
		<polygon class="st6" points="347,577.2 350.1,576.4 353.6,591 361.7,589 358.3,574.3 361.4,573.5 370.1,610.4 366.9,611.2 
			363,594.6 354.9,596.6 358.8,613.2 355.6,614 		"/>
		<polygon class="st6" points="372.3,602.3 375.7,601.2 377.7,608.2 374.2,609.2 		"/>
		<path class="st6" d="M387.4,591.8c1.9,5.5,4.6,6.9,7,6.1c2.7-1,2.7-4,1.8-6.7c-1-2.8-2.1-3.6-3-3.9c-1.6-0.5-3.4-0.6-6.2-1.1
			c-3.5-0.6-5.7-4-7-7.7c-2.5-7.2-0.4-11.7,2.7-12.8c3.6-1.3,8,1.5,10.6,9l-3.1,1.1c-1.7-4.5-3.8-5.7-5.9-4.9
			c-1.4,0.5-2.8,2.2-1.6,5.8c0.9,2.5,2.2,3.6,3.6,3.8c0.3,0.1,4.9,0.7,6,0.9c2.8,0.6,5.2,4.2,6.5,7.9c2.7,8,0.4,12.5-3.1,13.7
			c-4,1.4-8.5-1.3-11.6-10.1L387.4,591.8z"/>
		<polygon class="st6" points="391.8,563.3 394.8,562.1 400.3,576 408.1,572.8 402.6,558.8 405.6,557.5 419.5,592.7 416.5,593.9 
			410.2,578.1 402.4,581.3 408.7,597.2 405.7,598.4 		"/>
		<polygon class="st6" points="408.3,556.3 420.4,550.6 422.7,555.8 413.5,560.1 417.5,569.2 426,565.2 428.2,570.1 419.7,574.1 
			424.2,584.2 433.5,579.8 435.9,585.1 423.6,590.8 		"/>
		<polygon class="st6" points="422.2,549.7 425.2,548.1 445,569.2 445,569.2 432.8,544.2 435.5,542.8 452.2,576.7 449.1,578.2 
			429.4,557.2 429.3,557.3 441.6,582.2 438.8,583.6 		"/>
		<polygon class="st6" points="436.9,542.1 440.3,540.1 450.3,549.8 447.8,535.9 450.9,534.1 454.2,553.1 469.1,567.1 465.7,569 
			454.9,558.6 457.6,573.6 454.3,575.5 450.8,555 		"/>
		<polygon class="st6" points="452.7,532.9 455.5,531.3 474.1,564 471.3,565.7 		"/>
		<polygon class="st6" points="458.6,529.4 461.6,527.6 483,546.8 483,546.8 468.8,523 471.4,521.3 490.8,553.6 487.8,555.4 
			466.5,536.3 466.4,536.3 480.6,560 478,561.7 		"/>
		<polygon class="st6" points="480.4,515.3 491,508 494.1,512.7 486.2,518.2 491.6,526.4 498.5,521.6 501.5,526.1 494.6,530.9 
			503.7,544.8 501.1,546.7 		"/>
		<path class="st6" d="M517.1,512.1c6.1,8.8,8.6,18.1,4.1,21.4c-4.5,3.3-12.3-2-18.4-10.8c-6.1-8.8-8.6-18.1-4.1-21.4
			C503.1,497.9,510.9,503.3,517.1,512.1L517.1,512.1z M505.3,520.7L505.3,520.7c4.1,5.9,9.5,10.7,12.7,8.4c3.2-2.4,0.5-9.2-3.6-15.1
			c-4.1-5.9-9.5-10.7-12.7-8.4C498.5,508,501.2,514.8,505.3,520.7z"/>
		<path class="st6" d="M532.7,499.8c6.4,8.6,9.2,17.8,4.8,21.3c-4.4,3.5-12.4-1.6-18.8-10.2c-6.4-8.6-9.2-17.8-4.8-21.3
			C518.3,486.1,526.3,491.2,532.7,499.8L532.7,499.8z M521.2,508.8L521.2,508.8c4.3,5.8,9.9,10.4,13,7.9c3.1-2.5,0.2-9.2-4.1-15
			c-4.3-5.8-9.9-10.4-13-7.9C514,496.4,516.9,503.1,521.2,508.8z"/>
		<polygon class="st6" points="521.9,484.3 533.5,474.5 537,479 532.5,482.8 552.3,507.7 549.8,509.8 530,484.9 525.4,488.7 		"/>
		<path class="st6" d="M534.7,473.4l6.8-6.1c2.5-2.2,6.1-1.4,10.1,3.4c2.5,2.9,3.5,5.6,3.2,7.9l0.1,0.1c2.3-0.8,5.6,1.1,8.9,5
			c3.8,4.5,5.3,9.3,1.7,12.6L559,502L534.7,473.4L534.7,473.4z M547.3,483.2L547.3,483.2l4-3.6c1.2-1.1,0.9-3.2-1.3-5.8
			c-2.5-2.9-4.1-3.3-5.4-2.1l-4,3.6L547.3,483.2L547.3,483.2z M558,495.7L558,495.7l4.3-3.9c1.5-1.3,0.9-3.7-1.5-6.6
			c-2.4-2.8-4.6-3.6-6.1-2.3l-4.3,3.9L558,495.7z"/>
		<path class="st6" d="M551.4,458.1l2.5-2.4l30.5,22.6l-2.5,2.4l-8-6.1l-5.4,5.2l5.4,8.5l-2.4,2.3L551.4,458.1L551.4,458.1z
			 M565.8,475.5L565.8,475.5l4.1-4l-12.9-9.9l-0.1,0.1L565.8,475.5z"/>
		<polygon class="st6" points="559.9,449.8 562.2,447.4 584.5,470.1 591.1,463.2 595.1,467.2 586.2,476.5 		"/>
		<polygon class="st6" points="569.9,439.4 572.1,436.9 595.1,458.8 601.5,451.7 605.6,455.6 597,465.1 		"/>
		<path class="st6" d="M601.1,421c-3.6-2.3-6.9-3.3-8.6-1.1c-2.5,3.1,1.8,9,7.3,13.6c5.5,4.6,11.9,7.9,14.4,4.7
			c1.8-2.3-0.5-6.3-4.5-10l2-2.5c6.7,6,9.4,12.4,6.6,16c-3.5,4.4-12.4,1.3-20.5-5.6c-8.2-6.9-12.8-15.2-9.3-19.6
			c2.7-3.3,8.3-2.9,14.7,2L601.1,421z"/>
		<polygon class="st6" points="595.2,409.2 597.1,406.5 622.2,425.8 627.8,418.1 632.3,421.5 624.8,431.9 		"/>
		<path class="st6" d="M603.2,398.1l1.8-2.8l17.8,12.3c4.1,2.8,9,6,11.3,2.4c2.3-3.6-2.4-7-6.5-9.8l-17.8-12.4l1.8-2.8l19.6,13.6
			c7.9,5.4,10.1,10.7,7.5,14.6c-2.5,3.9-8.1,3.8-16-1.7L603.2,398.1z"/>
		<path class="st6" d="M612.8,383.4l4.5-8c1.7-2.9,5.4-3.3,10.7-0.1c3.2,1.9,5,4.2,5.4,6.4l0.1,0c2-1.5,5.6-0.7,10,1.9
			c5,3,7.9,7.1,5.4,11.4l-4.3,7.5L612.8,383.4L612.8,383.4z M627.8,388.5L627.8,388.5l2.7-4.7c0.8-1.4-0.2-3.4-3-5.1
			c-3.2-1.9-4.8-1.8-5.7-0.2l-2.7,4.7L627.8,388.5L627.8,388.5z M641.7,397L641.7,397l2.9-5.1c1-1.7-0.3-3.9-3.5-5.8
			c-3.1-1.9-5.5-2-6.5-0.2l-2.9,5.1L641.7,397z"/>
	</g>
	<path class="st5" d="M317.7,147.8c0,0,24.4,57.1,70.2,21.6c8.1-30.3,29-51.5,45.3-62.9c-3-6.9-10.3-21-21.2-21.7
		c-14.4-1-24.3,17.4-30.1,21.9c-5.8,4.5-13.2,11.5-31.1,15.4c0,0,12,6.5,30.3,2.4c0,0-10.1,17.8-46.9,16.4c0,0,14.4,17.8,37.6,10.6
		C371.9,151.5,353.6,180.8,317.7,147.8z"/>
	<path class="st5" d="M575.2,309.6l15.4,14.9c11-7.4,17.5-4.9,20.4-2c2.9,2.9,34.7,31.4,34.7,31.4c17.7-30,33.6-88.5,33.6-88.5
		l-39.7,0.4c-3.2-13.4-25.3-56.3-25.3-56.3C610.5,234.7,581.8,295.8,575.2,309.6z"/>
	<path class="st5" d="M299.2,527.7L299.2,527.7l-7-14.2l-10-1.4c-16.6,1.6-47.5,2.8-104.8,1.4l44.1,43.7l-12.3,37.2
		c0,0,32.1,5.1,93.2-0.7c0,0-15.5-39-17.7-46.2C282.5,540.2,288.1,534.7,299.2,527.7z"/>
</g>
</svg>
