<?xml version="1.0" encoding="utf-8"?>
<!-- Generator: Adobe Illustrator 22.1.0, SVG Export Plug-In . SVG Version: 6.00 Build 0)  -->
<svg version="1.1" id="图层_1" xmlns="http://www.w3.org/2000/svg" xmlns:xlink="http://www.w3.org/1999/xlink" x="0px" y="0px"
	 viewBox="0 0 800 800" style="enable-background:new 0 0 800 800;" xml:space="preserve">
<style type="text/css">
	.st0{fill:#0070BD;}
</style>
<g>
	<path class="st0" d="M687.6,383.9l-64.9-59.3c0,11.7-1.5,58.3-132.9,158.7c-145,100.1-204.3,76.1-204.3,76.1l29.6,74.7
		c0,0,5.1,12.7,21.8,13.7c16.7,1,116.5-11.7,220.4-93.2S680,420.4,686.1,404.2C692.2,388,687.6,383.9,687.6,383.9z M342.3,628.3
		c-4.4,0.8-8.6-2.9-10.3-12.6l3.3-0.6c1,6.1,3.6,8.1,6.3,7.6c2.9-0.5,3.6-3.7,3-6.7c-0.5-3-1.5-4.1-2.4-4.6
		c-1.5-0.8-3.4-1.2-6.2-2.2c-3.6-1.2-5.2-5.1-5.9-9.2c-1.3-7.9,1.6-12.2,5.1-12.8c4-0.7,8.1,3,9.4,11.3l-3.4,0.6c-1-5-3-6.6-5.3-6.2
		c-1.6,0.3-3.3,1.8-2.7,5.7c0.5,2.8,1.6,4.2,3.1,4.7c0.3,0.1,4.9,1.6,6,2c2.8,1.1,4.7,5.3,5.4,9.4
		C349.4,623.4,346.2,627.6,342.3,628.3z M365.2,622.3l-4.1-17.5l-8.6,2.2l4.1,17.5l-3.3,0.8l-9.1-38.8l3.3-0.8l3.6,15.4l8.6-2.2
		l-3.6-15.4l3.3-0.8l9.1,38.8L365.2,622.3z M372.9,620.2l-2-7.3l3.6-1.1l2,7.3L372.9,620.2z M395.7,613.6c-4.2,1.5-9-1.3-12.2-10.6
		l3.2-1.2c2,5.8,4.8,7.3,7.4,6.4c2.8-1,2.9-4.3,1.9-7.1c-1-2.9-2.2-3.8-3.1-4.1c-1.6-0.5-3.5-0.6-6.5-1.1c-3.7-0.6-6-4.2-7.3-8.1
		c-2.6-7.6-0.4-12.3,2.9-13.5c3.8-1.4,8.4,1.6,11.2,9.5l-3.2,1.2c-1.8-4.8-4-6-6.2-5.2c-1.5,0.5-3,2.3-1.7,6.1
		c0.9,2.6,2.3,3.8,3.8,4c0.3,0.1,5.1,0.8,6.3,1c2.9,0.6,5.5,4.4,6.9,8.3C401.9,607.6,399.4,612.3,395.7,613.6z M417.3,604.1
		l-6.6-16.7l-8.2,3.4l6.6,16.7l-3.2,1.3l-14.6-36.9l3.1-1.3l5.8,14.7l8.2-3.4l-5.8-14.7l3.1-1.3l14.7,36.9L417.3,604.1z
		 M424.8,600.8l-16.1-36.3l12.7-6l2.4,5.5l-9.6,4.5l4.2,9.5l8.9-4.2l2.3,5.2l-8.9,4.2l4.7,10.6l9.8-4.6l2.4,5.5L424.8,600.8z
		 M451.7,587.6l-20.8-22.1l-0.1,0l12.9,26.2l-2.9,1.5l-17.5-35.6l3.2-1.7l20.8,22.1l0,0l-12.9-26.3l2.9-1.5l17.5,35.6L451.7,587.6z
		 M469.1,577.9l-11.4-10.9l2.9,15.8l-3.4,1.9l-3.7-21.5l-14.6-13.6l3.5-2l10.5,10.1l-2.6-14.6l3.3-1.9l3.4,20l15.7,14.7L469.1,577.9
		z M475.1,574.4l-19.6-34.5l3-1.8l19.6,34.5L475.1,574.4z M492.5,563.6L470,543.4l-0.1,0.1l15,25l-2.8,1.8l-20.4-34l3.1-1.9
		l22.6,20.2l0,0l-15-25l2.8-1.8l20.4,34L492.5,563.6z M506.4,554.4l-21.7-33l11.1-7.7l3.3,5l-8.3,5.8l5.7,8.7l7.3-5.1l3.1,4.7
		l-7.3,5.1l9.6,14.7L506.4,554.4z M527.5,540.5c-4.7,3.5-13-2.1-19.4-11.4c-6.5-9.3-9-19.1-4.3-22.6c4.7-3.5,12.9,2.2,19.4,11.4
		C529.7,527.2,532.2,537,527.5,540.5z M544.7,527.4c-4.6,3.7-13-1.7-19.8-10.7c-6.7-9-9.6-18.8-5-22.4c4.6-3.7,13,1.7,19.8,10.7
		C546.4,514,549.3,523.8,544.7,527.4z M557.7,515.6l-20.9-26.2l-4.8,4l-3.7-4.7l12.2-10.3l3.7,4.7l-4.8,4l20.9,26.2L557.7,515.6z
		 M574.1,501.3l-6.7,6l-25.6-30.1l7.1-6.4c2.6-2.4,6.4-1.5,10.7,3.5c2.6,3,3.7,5.9,3.4,8.3l0.1,0.1c2.5-0.8,5.9,1.2,9.4,5.3
		C576.3,492.8,577.9,497.9,574.1,501.3z M591.4,484.9l-8.4-6.4l-5.7,5.5l5.7,9l-2.5,2.5l-21.2-34.3l2.6-2.5l32.1,23.8L591.4,484.9z
		 M595.9,480.5l-27.6-28.1l2.4-2.5l23.4,23.8l7-7.2l4.2,4.3L595.9,480.5z M607.3,468.5l-28.5-27.1l2.3-2.6l24.2,23l6.7-7.4l4.3,4.1
		L607.3,468.5z M629.7,443.8c-3.7,4.6-13,1.4-21.6-5.9c-8.6-7.2-13.5-16-9.8-20.7c2.8-3.4,8.8-3,15.5,2.1l-2.2,2.7
		c-3.8-2.5-7.3-3.4-9.1-1.2c-2.6,3.3,1.9,9.5,7.7,14.3c5.8,4.9,12.6,8.3,15.2,5c1.9-2.4-0.5-6.7-4.7-10.6l2.1-2.6
		C629.9,433.3,632.7,440.1,629.7,443.8z M636.5,433.6l-31.1-23.9l2-2.8l26.4,20.3l5.9-8.1l4.7,3.6L636.5,433.6z M651.3,414
		c-2.7,4.1-8.5,4-16.8-1.8L613.9,398l1.9-2.9l18.8,13c4.4,3,9.4,6.3,11.9,2.6c2.5-3.7-2.5-7.4-6.8-10.3l-18.8-13l1.9-2.9l20.6,14.3
		C651.7,404.4,654,410,651.3,414z M662,394.8l-4.5,7.9L624,382.5l4.8-8.4c1.7-3.1,5.6-3.5,11.2-0.1c3.4,2,5.3,4.4,5.7,6.8l0.1,0.1
		c2.1-1.5,5.9-0.8,10.5,2C661.5,386,664.5,390.3,662,394.8z"/>
	<path class="st0" d="M523.2,498.8c-3.3,2.6-0.2,9.7,4.3,15.8c4.5,6.1,10.4,11,13.7,8.3c3.3-2.6,0.2-9.7-4.3-15.7
		C532.4,501.1,526.6,496.2,523.2,498.8z"/>
	<polygon class="st0" points="578.9,475.3 565.3,464.8 565.2,464.9 574.5,479.5 	"/>
	<path class="st0" d="M557.8,477.7c-2.6-3-4.3-3.4-5.7-2.2l-4.2,3.8l7.1,8.3l4.2-3.8C560.5,482.7,560.1,480.4,557.8,477.7z"/>
	<path class="st0" d="M562.8,487.3l-4.5,4.1l8,9.4l4.5-4.1c1.5-1.4,1-3.9-1.6-7C566.7,486.8,564.3,485.9,562.8,487.3z"/>
	<path class="st0" d="M507,511.2c-3.4,2.5-0.5,9.7,3.8,15.9c4.3,6.2,10,11.3,13.4,8.8c3.4-2.5,0.5-9.7-3.8-15.9
		C516.1,513.8,510.4,508.7,507,511.2z"/>
	<path class="st0" d="M653.8,385.4c-3.3-2-5.8-2.1-6.8-0.2l-3,5.3l10.5,6.3l3-5.3C658.5,389.6,657.2,387.4,653.8,385.4z"/>
	<path class="st0" d="M639.3,377.7c-3.4-2-5.1-1.9-6-0.2l-2.8,4.9l9.2,5.6l2.8-4.9C643.4,381.6,642.3,379.5,639.3,377.7z"/>
	<path class="st0" d="M313.4,134.6c0,0,25.7,60.1,73.9,22.7c0,0,0,0,0,0c-8.7,32.9-3.1,76,37.3,128.8l-16.7,14.7
		c0,0-1-89.7-83.1-107.9S193.6,247.1,186,288.7c-7.6,41.5,1.5,142.9,141.9,202.7c10.8,3.8,11.2,0.5,11.7-1.1
		c-0.3-5.5-36.3-56.2-25.9-82.3c4.6-7.9,19-5.8,26.6,3c5.5,6.1,26.7,31.9,46.8,122.5c8.7-3.8,17.9-8.2,27.9-13.3
		c6.4-28.8,18.2-61.9,41.3-84c48.5-48.1,105.1-68.3,112-117.3c6.9-48.9-11.4-79.3-50.4-107.7c9.6-18.7-6.6-34.6-13.6-39.4
		c-7-4.8-29.3-22.9-32.8-39.9c0,0,0,0,0,0c0.9-0.2,1.8-0.4,2.8-0.7c28.4-11.4,32.9-32.9,32.9-32.9c-12.4,11.4-32.7,23.1-41,4.1
		c-8.4-19,19.5-52.2,19.5-52.2c-7.2,4-21.7,14.2-33.4,31.5c-4.1,1.5-10.3,4.7-17.3,9.6c0,0,0,0,0,0c-3.1-7.3-10.8-22.1-22.3-22.9
		c-15.2-1-25.6,18.3-31.7,23.1c-6.1,4.8-13.9,12.1-32.7,16.2c0,0,12.7,6.8,31.9,2.5c0,0-10.6,18.7-49.4,17.2
		c0,0,15.2,18.7,39.5,11.1C370.4,138.4,351.2,169.3,313.4,134.6z M433.1,114c-0.3,0.6-3.9,8.9-10.3,10.3c-6.3,1.4-4.9-3.9-3.2-5.8
		c1.8-1.9,14.1-14.2,14.1-14.2C434.6,110.3,433.4,113.3,433.1,114z M451.7,138.5c0,0-7.6,38.6,3,56.2c10.6,17.7,19,10.1,17.9-8.6
		c0,0,6.1,23.4,16.9,31.2c10.8,7.8,20.9,0,22-3.8c0,0-1.9,12.7-13.9,12.5c-12-0.2-22.4-18.8-23.9-24.5c0,0-1.1,8.7-7.4,9.1
		c-6.3,0.4-16.2-8.4-19.2-23.4C444.1,172.3,444.1,154.6,451.7,138.5z"/>
	<path class="st0" d="M591.7,303.5l9.7,9.4c4.5-2.4,8.8-3.6,12.8-3.6c4.7,0,9,1.7,12.1,4.8c1.9,1.9,17.7,16.1,30.6,27.7
		c12.7-24.5,24.2-61.4,28.9-77.3l-33.7,0.3l-4.8,0l-1.1-4.7c-1.9-7.9-11.3-28-18.8-43.2C618.8,245,600.2,285.5,591.7,303.5z"/>
	<path class="st0" d="M286.1,532.3l-3.6-7.3l-6.6-0.9c-14.6,1.4-35.5,2.1-62,2.1c-10.2,0-21.2-0.1-33.1-0.3l35.6,35.3l2.7,2.6
		l-1.2,3.6l-10.6,32c6.5,0.6,17.3,1.3,32.1,1.3c15.4,0,31.9-0.7,49.2-2.2c-4.9-12.3-14.1-35.8-15.8-41.6
		C269.5,546,277.1,538.4,286.1,532.3z"/>
	<path class="st0" d="M222.9,210.3L202,89.9l112.6,59.2c-4.3-6.4-6.6-11.6-6.8-12.2l-8.5-20L173.7,51l30.9,178.4
		C210,222.6,216.1,216.2,222.9,210.3z"/>
	<path class="st0" d="M692.3,409.2c-1.8,4.8-4.6,11.7-9.2,20.7l39.4,38.1l-73.3,10.9c-6.6,7.8-14.1,16.1-22.8,24.9l141.9-21.1
		L692.3,409.2z"/>
	<path class="st0" d="M491.6,148.3L600,90.6l-29.2,167.7c7.8,18.2,9.8,38.4,6.5,61.7c-0.3,2.2-0.7,4.3-1.2,6.3l29.8,28.8
		c4.1-7.8,6.9-15,8.2-21.6l-29.9-28.9l44.1-253.4l-148,78.8C481.8,136,486.3,142.5,491.6,148.3z"/>
	<path class="st0" d="M400.5,702.1l-25.4-51.3c-8.5,1.8-15.8,3-21.9,3.7l47.2,95.5l64.7-129.7c-10,4.6-20,8.9-30.1,12.7L400.5,702.1
		z"/>
	<path class="st0" d="M303.8,554.4c0.4,0,0.9,0,1.4,0c5.6,0,12.7-0.5,21.4-1.9l-21-42.5l-5-10.1l-11.1-1.6L77.7,468.7l106.4-103.2
		c-2.8-8.2-4.9-16.1-6.3-23.5L31.6,483.7l254.9,35.7L303.8,554.4z"/>
</g>
</svg>
