<?xml version="1.0" encoding="utf-8"?>
<!-- Generator: Adobe Illustrator 22.1.0, SVG Export Plug-In . SVG Version: 6.00 Build 0)  -->
<svg version="1.1" id="图层_1" xmlns="http://www.w3.org/2000/svg" xmlns:xlink="http://www.w3.org/1999/xlink" x="0px" y="0px"
	 viewBox="0 0 800 800" style="enable-background:new 0 0 800 800;" xml:space="preserve">
<style type="text/css">
	.st0{fill:#601986;}
	.st1{fill:url(#SVGID_1_);}
	.st2{fill:#E6002D;}
	.st3{fill:#023894;}
	.st4{fill:#FDD000;}
	.st5{fill:#FDE811;}
	.st6{fill:#FFFFFF;}
	.st7{fill:#030406;}
	.st8{fill:url(#SVGID_2_);}
	.st9{fill:#F5C61E;}
	.st10{fill:#F18D00;}
</style>
<g>
	<g>
		<path class="st0" d="M634.8,238.2c-9-39-5.4-60.6-5.4-60.6S523,125.5,400.6,125.5s-228.8,52.2-228.8,52.2s3.6,21.6-5.4,60.6
			C97.4,602.4,400.6,674.5,400.6,674.5S703.7,602.4,634.8,238.2z"/>
		<linearGradient id="SVGID_1_" gradientUnits="userSpaceOnUse" x1="400.0624" y1="674.5049" x2="400.0624" y2="125.4951">
			<stop  offset="0" style="stop-color:#C29709"/>
			<stop  offset="0.6082" style="stop-color:#F5F39B"/>
			<stop  offset="1" style="stop-color:#C29709"/>
		</linearGradient>
		<path class="st1" d="M217.2,503C275.6,628.7,376.7,667,396.6,673.5c1.9,0.5,3.2,0.9,3.7,1c5.6-1.6,119.3-35.1,182.6-171.6
			c55.7-120,23.2-263.2,2.1-343.3c-42.3-15.1-110.5-34.2-184.4-34.2c-74.6,0-143.3,19.4-185.5,34.6
			C193.9,240.2,161.6,383.1,217.2,503z"/>
		<g>
			<path class="st2" d="M254.4,147.3l-0.2,0.9c-24,104.9-53,251.8-14,344.7c69,155.2,153.1,179.7,159.9,181.5
				c0.3,0.1,0.5,0.1,0.5,0.1V125.5C346,125.5,294.6,135.8,254.4,147.3z"/>
			<path class="st3" d="M560.9,492.9c39-92.9,10-239.8-14-344.7l-0.2-0.9c-40.2-11.5-91.6-21.9-146.2-21.9v549.1c0,0,0.2,0,0.5-0.1
				C407.9,672.7,492,648.1,560.9,492.9z"/>
		</g>
	</g>
	<path d="M493,238.1l-92.9,7.5c0,0-108.9,34.5-122.9,39c-14,4.5-33,17-32.5,28c0.5,11,26.5,12,37.5,15s34.5,10.5,38,21.5
		c3.5,11,1,44-19,53l-4.3,18c0,0,22.6,17.7,27.6,19.7c5,2,21.3,5.3,30.6,11.3c9.3,6,39,6,44.6,5.3l71.6,19.3l-0.3-8.3l16.3,6.3
		l-9.7-13.7l23,3.3l-21-24l41.6-0.3L504,429l47.3,1l-20.7-11.7c0,0,17.3,2,22.3,2.3s22.3-17.7,22.3-17.7l-119.6-8.3
		c0,0,3.7-10.3,16.3-12c12.7-1.7,42-3,42-3l43.3-34L431.4,352l35-12c0,0-13.3-12.7,54.3-41l-111.2,12l4-7l42.6-16
		C456,288.1,445,279.4,493,238.1z"/>
	<g>
		<g>
			<path class="st4" d="M290.9,287.1c0,0-23,11.7-27,14.2c-4,2.5-6.7,7.7,5.5,14.5c0,0-19.7-4.5-15.5-10
				C258.2,300.3,271.9,292.6,290.9,287.1z"/>
			<path class="st5" d="M278.4,292.4c-6.3,3.3-13,6.8-15,8.1c-2.5,1.6-3.9,3.7-3.9,6c0.1,2.2,1.4,4.4,4,6.6
				c-4.3-1.5-8.5-3.4-9.2-5.3c-0.1-0.3-0.2-0.8,0.3-1.4C258.5,301.6,268.2,296.4,278.4,292.4 M290.9,287.1
				c-19,5.5-32.7,13.2-37,18.7c-4.2,5.5,15.5,10,15.5,10c-12.2-6.7-9.5-12-5.5-14.5C267.9,298.8,290.9,287.1,290.9,287.1
				L290.9,287.1z"/>
		</g>
		<g>
			<path class="st4" d="M305.1,288.4l100.3-36l70.9-6l-28,26c0,0-8,7.7-3.3,10c0,0-35.6,13.3-40.3,13.7c-4.7,0.3,23.9-9.7,37.6-22.1
				c13.7-12.4-2.2-3.2-10.5-0.6s-42.1,10.7-42.1,10.7s0.3-1.3,21.3-10.1s29.7-12.5,34-14c4.2-1.5-14.5-4.7-37,1.2
				S305.1,288.4,305.1,288.4z"/>
			<path class="st5" d="M473.5,247.7l-25.9,24c-0.6,0.6-5.6,5.5-5.1,9c0.1,0.4,0.2,0.9,0.5,1.3c-7.6,2.8-21.7,8-30.7,10.9
				c8.5-4,22.3-10.7,30.5-18.2c5.7-5.2,5.9-6.3,5.6-7.2c-0.1-0.3-0.4-0.9-1.5-0.9c-1.4,0-4,1.1-8.2,2.9c-2.6,1.1-5.2,2.2-7.4,2.9
				c-5.8,1.9-24.4,6.5-34.8,9c3.1-1.5,7.8-3.5,14.7-6.4c5.2-2.2,9.7-4,13.5-5.6c11.5-4.8,17.3-7.2,20.4-8.3c1.3-0.5,1.3-1.3,1.3-1.6
				c-0.1-0.8-0.9-1.5-4.1-2c-2.3-0.4-5.4-0.6-8.7-0.6c-8.3,0-17.6,1.2-26.1,3.5c-14.8,4-55.4,14.6-81,21.3l78.8-28.3L473.5,247.7
				 M476.3,246.5l-70.9,6l-100.3,36c0,0,80.4-21.1,102.9-27.1c9.9-2.6,19-3.5,25.8-3.5c8.7,0,13.5,1.4,11.2,2.2
				c-4.2,1.5-13,5.2-34,14s-21.3,10.1-21.3,10.1s33.8-8.1,42.1-10.7c5.1-1.6,13.1-5.8,15.3-5.8c1.4,0,0.5,1.6-4.8,6.3
				c-13.4,12.2-41.3,22.1-37.8,22.1c0.1,0,0.1,0,0.2,0c4.7-0.3,40.3-13.7,40.3-13.7c-4.7-2.3,3.3-10,3.3-10L476.3,246.5L476.3,246.5
				z"/>
		</g>
		<g>
			<path class="st4" d="M337.7,326.4c0,0,154.6-22.7,161.3-23.4c6.7-0.7,6.3-0.7-15.3,9.3c-21.6,10-28.6,11.7-28.6,21l-21.3,7
				c0,0,18.3-12.6,23.3-18.8c0,0-42.6,10.8-45.6,10.8s-3.7-1.7,45.3-15.7L337.7,326.4z"/>
			<path class="st5" d="M499.2,304.1c-2.5,1.3-6.7,3.2-12.3,5.7l-3.7,1.7c-3,1.4-5.7,2.6-8.1,3.7c-14.9,6.7-20.8,9.4-21.1,17.5
				l-14.3,4.7c5.9-4.2,14.8-11,18.1-15.1l1.9-2.3l-2.9,0.7c-14,3.5-34.1,8.5-42.1,10.2c4.9-1.9,16.3-5.7,42.3-13.1l-0.4-2l-87.9,7.2
				c45.5-6.7,125.6-18.4,130.4-18.8L499.2,304.1C499.2,304.1,499.2,304.1,499.2,304.1 M502.1,302.8c-0.7,0-1.7,0.1-3.1,0.2
				c-6.7,0.7-161.3,23.4-161.3,23.4l118.9-9.7c-49,14-48.3,15.7-45.3,15.7s45.6-10.8,45.6-10.8c-5,6.2-23.3,18.8-23.3,18.8l21.3-7
				c0-9.3,7-11,28.6-21C500.9,304.5,504.6,302.8,502.1,302.8L502.1,302.8z"/>
		</g>
		<g>
			<path class="st4" d="M397.1,363.8l138.6-9.7l-31,17.5c0,0-34.7,5.7-40.5,6.7c-5.7,1-12.2,0.5,38-13.7
				C508.2,362.5,384.6,368.3,397.1,363.8z"/>
			<path class="st5" d="M531.4,355.3l-27,15.2c-2.6,0.4-32.8,5.4-39.7,6.6c4.5-1.7,14.7-5.1,37.9-11.7c1-0.3,0.9-1.1,0.9-1.2
				c-0.2-1-0.6-1.1-7-1.1c-6.9,0-18.6,0.3-32.1,0.6c-16.7,0.4-35.7,0.9-49.3,0.9c-5.4,0-9.3-0.1-11.9-0.2L531.4,355.3 M535.7,354
				l-138.6,9.7c-3.7,1.3,4.6,1.8,17.9,1.8c24.5,0,66-1.5,81.4-1.5c4.5,0,6.8,0.1,5.8,0.4c-40.8,11.6-44.2,14.1-40.9,14.1
				c0.8,0,1.9-0.1,2.9-0.3c5.7-1,40.5-6.7,40.5-6.7L535.7,354L535.7,354z"/>
		</g>
		<g>
			<polygon class="st4" points="331.9,393 328.1,402 338.1,403.3 320.8,405.7 			"/>
			<path class="st5" d="M328.6,398.3l-1.4,3.3l-0.5,1.2l1.3,0.2l2.6,0.3l-7.3,1L328.6,398.3 M331.9,393l-11.2,12.7l17.3-2.3l-10-1.3
				L331.9,393L331.9,393z"/>
		</g>
		<g>
			<polygon class="st4" points="330.8,406 307,425 332.3,424.6 318,421.5 			"/>
			<path class="st5" d="M323.8,412.8l-6.7,8l-1,1.3l1.6,0.4l5.9,1.3l-13.8,0.2L323.8,412.8 M330.8,406L307,425l25.3-0.3l-14.3-3.2
				L330.8,406L330.8,406z"/>
		</g>
	</g>
	<g>
		<path class="st6" d="M316.9,379c0,0-4,5.2-20,5.2c-16,0-32.2,0-38,5.7l45.2,36c0,0,0-6.1,0-7.4s-1.7-4.2-3.2-4.9l7.2,1.1l6.9-7.1
			c-8.1,2.5-11.5,0-11.5,0s9.6-0.7,13-8.4h-8.9C307.6,399.3,319.6,387.9,316.9,379z"/>
		<path class="st7" d="M275.2,388.5c-1.7,1.7-6.2,1.7-6.2,1.7l6.9,8.7l8.1-2.2c4.2-7,10.5-8.2,10.5-8.2H275.2z M275.3,392.4
			c-0.6,0-1.2-0.5-1.2-1.2c0-0.6,0.5-1.2,1.2-1.2c0.6,0,1.2,0.5,1.2,1.2C276.5,391.9,276,392.4,275.3,392.4z M277.7,396.4
			c-1.8,0.1-0.8-2.1-0.8-2.1s8-1.5,4.5-3.6c-1.6-0.9,3.2-0.9,4.5-0.6C287.1,390.5,284.1,396,277.7,396.4z"/>
	</g>
	<g>
		<g>
			<polygon points="278.8,402.7 280.4,405.1 258.7,405.1 255.1,408.7 249.7,408.7 257.5,400.9 277.5,400.9 			"/>
			<linearGradient id="SVGID_2_" gradientUnits="userSpaceOnUse" x1="264.8546" y1="414.9884" x2="264.8546" y2="390.882">
				<stop  offset="0" style="stop-color:#A26823"/>
				<stop  offset="0.1631" style="stop-color:#C29709"/>
				<stop  offset="0.5" style="stop-color:#F5F39B"/>
				<stop  offset="0.8255" style="stop-color:#C29709"/>
				<stop  offset="1" style="stop-color:#A26823"/>
			</linearGradient>
			<path class="st8" d="M270.8,390.9l7.9,11.9h-21.2c-4.6,3.7-9.4,12.2-9.4,12.2c-2.9-3.5-3-6-3-13.7c0-7.7,10-10.4,14.2-10.4H270.8
				z M254.1,408.7h30.5l-2.2-4.6h-23.9L254.1,408.7z"/>
		</g>
		<path class="st6" d="M251.9,393.7l2.9-0.5c0.2,0,0.4,0,0.6,0.1l2.6,2l-1.9,0.1c-0.1,0-0.2,0-0.3-0.1L251.9,393.7z"/>
	</g>
	<path class="st9" d="M717.4,559.5l32.6-26c-14.7,4-52.3-1.3-68.3-6.3c-16-5-31.6-6.5-31.6-6.5l8,23.4c-9.3,0.3-28.3-8.3-48-19
		c-4-2.2-7.2-3.5-9.8-4.1c-3.6,6.2-7.3,12.2-11.1,17.9c0.3,10.5,4.2,18.5,4.2,18.5s-28.7,1.7-51-7c-22.2-8.7-47.2-16-60.7-17
		c-13.5-1-56.7,9.7-30.7,16.7c25.4,6.8-47.6,6.2-50.8,6.2v0c0,0,0,0-0.1,0c0,0-0.1,0-0.1,0v0c-3.3,0-76.2,0.7-50.8-6.2
		c26-7-17.2-17.7-30.7-16.7c-13.5,1-38.5,8.2-60.7,17c-22.2,8.7-51,7-51,7s4.3-9,4.2-20.2c-3.5-5.3-6.9-10.8-10.1-16.4
		c-2.8,0.5-6.3,1.8-10.9,4.3c-19.7,10.7-38.6,19.3-48,19l8-23.4c0,0-15.7,1.5-31.6,6.5c-16,5-53.6,10.3-68.3,6.3l32.6,26l-26.3,28.6
		c0,0,33.3-2.3,48.6-5.7c0,0-0.7,18.7-0.7,23c0,4.3,8.7,7,26.3,5.7c17.7-1.3,34-9,34-9s-2,30.4-4.3,42.7c-2.3,12.3,77.9,3,97.6-1
		c19.7-4,47-13.7,52.3-15.3c5.3-1.7,17.7-3,27-1.3l0.7,6.7c0,0,2.3,2.7,18.7,5c15.7,2.2,41.6,3.4,43.5,3.5v0c0,0,0,0,0.1,0
		c0,0,0.1,0,0.1,0v0c1.9-0.1,27.8-1.2,43.5-3.5c16.3-2.3,18.7-5,18.7-5l0.7-6.7c9.3-1.7,21.6-0.3,27,1.3
		c5.3,1.7,32.6,11.3,52.3,15.3c19.7,4,99.9,13.3,97.6,1c-2.3-12.3-4.3-42.7-4.3-42.7s16.3,7.7,34,9c17.7,1.3,26.3-1.3,26.3-5.7
		c0-4.3-0.7-23-0.7-23c15.3,3.3,48.6,5.7,48.6,5.7L717.4,559.5z"/>
	<g>
		<circle class="st6" cx="398" cy="533.3" r="50.7"/>
		<path d="M398,482.6c-28,0-50.7,22.7-50.7,50.7c0,28,22.7,50.7,50.7,50.7s50.7-22.7,50.7-50.7C448.7,505.3,426,482.6,398,482.6z
			 M441.5,513.8l-4.7-0.6l-15.9-15.9l-3.9-7.8C427.9,494.3,436.6,503,441.5,513.8z M418,566.6l-8.1-13.1l5.8-19.3l14.4-3.3l9.4,7.1
			l-10.6,26.4L418,566.6z M367.9,563.6l-11.4-25.1l10.7-8.6l11.9,4.8l6.5,18l-7.1,12.7L367.9,563.6z M379.9,531.8l-11.7-4.7
			l-4.3-12.5l21.3-17.8l13.9,4.6l-3,18.1L379.9,531.8z M402,502.1l16.2-3.2l15.3,15.3l-6.4,14.3l-13,3L399,520.3L402,502.1z
			 M390.9,486.1l-6.4,7.4l-24,20l-6.2,0.7C360.7,499.5,374.4,488.6,390.9,486.1z M350.5,537.1l2.7,1.4l12.1,26.6l-0.6,2.3
			C356.7,559.6,351.4,549,350.5,537.1z M385.1,579.2l2.7-2.7l-6.8-9.7l7-12.5l19.4,0.8l8.3,13.4l-5,7.6l4.1,1.8
			c-5.2,2-10.9,3.1-16.8,3.1C393.5,581,389.2,580.4,385.1,579.2z M431.5,567.2l-0.3-0.6l11.2-27.9l3.1-0.3
			C444.2,549.7,439.1,559.7,431.5,567.2z"/>
	</g>
	<g>
		<path d="M458.4,496.9c-1.1-1.3-7.1-5.7-7.1-5.7l-3.7-2.4l-14.2-9.3l10.5-11.3l3.2-3.4l-4.2-2.1l-0.6-0.3l0.3-0.3l-2.5-0.7
			l-1.8-0.9l-0.3,0.3l-1.1-0.3l-13.7-4l-2.1-0.6l-1.5,1.6l-20.4,22l-20.9,1.2l-0.4,0l-0.4,0.1l-1.1,0.3l-2.5-1.3l-4.7-2.5l-2.4-1.2
			l-1.8,2l-6.9,7.4l-3,3.3l1.5,0.8l-7.8,6.2l-5.7,6.4l5,0.7l-0.4,0.7c-1.8,3.4,0.5,6.6,2,8.6c0.2,0.2,0.3,0.4,0.5,0.6
			c1.3,1.7,3.7,3.6,6,3.6c1.5,0,2.7-0.7,3.4-1.9c0.5-0.9,0.6-1.9,0.4-3h1.6h2.8h2l1-1.7l0,0l1.2,2l3.1-2.3l2.4-1.8v3.8l6.1,12.7
			l0.5-9.7l3,1.1l0.4,2.4l2.4,0.5l11.2,2.3l4.1,0.9l0.1-4.2c0.1-4.8,0.6-10.7,1.1-11.9c0.3-0.7,0.5-1.3,0.6-1.8
			c0.3,0,0.8-0.1,1.4-0.1c5.1,0,12.3,2,13.9,2.7c0.7,0.3,2.7,3.5,3.4,2.9l0.6,2.6l-1.3,11l8.8-8.6l1.1,1l2.1,2l2.3-1.7l1.2-0.8
			l2.5-1.8l-1.4-2.7l-1.3-2.5l-0.1-0.2c0.5,0.1,1,0.2,1.6,0.2c0.1,0,0.3,0,0.5,0c1.4-0.1,5.8-0.3,7.3-3.9c1-2.3,0.1-4.6-1.2-6.6
			l1.3-1.2l0.3,1.6l0.8,4.3l-1.9,4.4l-3.9,8.7l8.6-4.2c4.2-2,7.3-5.3,7.8-8.2C458.6,500.8,459.4,498,458.4,496.9z"/>
		<g>
			<path class="st10" d="M422.4,459.6l-21.3,23l-22.3,1.3l-15.2,4.4l-12.3,9.9l5-1.2l7.1,5.4l-1.5,5.3h2.8l8-13.3l22.5-2.8
				l-10.8,8.7l7.5,1.2l1.5,10l-6.2,1.2l0.3,2.2l11.2,2.3c0,0,0.3-10.8,1.3-13.2c1-2.3,0-4,5.2-4c5,0,14.7,1,16.7,2s1.3-3.7-3.7-6
				c0,0,4.7-6.7,7.7-6.3c3,0.3-2-4.7-12.7-3.7l22.6-22.3L422.4,459.6z"/>
			<polygon class="st10" points="439.2,464.6 420.3,484.6 425.7,484.6 438.3,496.7 435.4,503.4 442.7,503.6 440.5,496.6 
				445.7,491.7 428,480.1 441.4,465.7 			"/>
			<g>
				<polygon class="st6" points="424.9,493.8 434.9,500.4 428,511.6 428.9,502.4 				"/>
				<path class="st6" d="M450.3,496.7c0,0,3.4,2.7,4.4,3.9c1,1.1-1.1,4.6-5.7,6.9l2.4-5.4L450.3,496.7z"/>
				<polygon class="st6" points="431.5,508.6 434,509.1 435.4,511.6 434.2,512.4 431.5,509.9 				"/>
				<path class="st6" d="M378,505.8l6.1-2.6h1.7l0.5,0.8c0,0-5.1,3.1-6,7.2H378V505.8z"/>
				<path class="st6" d="M369,504.8c0,0,6.6-6.7,11-7.5l1.1,0.6l-11.1,8.5L369,504.8z"/>
				<path class="st6" d="M351.1,504.9l4.7-2.9h1.1c0,0-2.2,5.9-0.5,8.9c1.7,3-1.6,1.7-3.1-0.4C351.8,508.4,350.2,506.5,351.1,504.9z
					"/>
				<polygon class="st6" points="361,487.6 367.8,480.2 372.6,482.7 362.1,488.2 				"/>
			</g>
		</g>
	</g>
	<g>
		<path class="st0" d="M70,541.2c0,0,18.3,2.3,42-5.7c0,0-7,5-6.3,40c0,0-5.3,2.3-33.6,5.3l22-22L70,541.2z"/>
		<path class="st0" d="M115.6,541.2c0,0,7-10,24.6-13.3l-5,14C135.3,541.9,117.6,544.2,115.6,541.2z"/>
		<path class="st0" d="M113.3,549.6l35.6,1.3c0,0,32.3-12,43.3-19s14-4,14-4s-30.3,21-53,26c0,0,12,17,11.3,40c0,0-12,12.3-54.6,9.7
			L113.3,549.6z"/>
		<path class="st0" d="M175.6,553.5l30.3-20l-5.3,23C200.6,556.5,171.9,556.9,175.6,553.5z"/>
		<path class="st0" d="M630.6,561.5c0,0-53.6,8.3-85.6-3c-32-11.3-65.9-26.3-91.6-12c0,0,45.6,12.3-53.5,15.7
			c-99.1-3.3-53.5-15.7-53.5-15.7c-25.6-14.3-59.6,0.7-91.6,12c-32,11.3-85.6,3-85.6,3c6.3,27.6-2,81.3-2,81.3
			c46.6,9,121.9-14.3,139.9-20c18-5.7,35.3-0.3,35.3-0.3v7c30.7,6.4,55.6,5.4,57.5,5.3c1.9,0.1,26.7,1.1,57.5-5.3v-7
			c0,0,17.3-5.3,35.3,0.3c18,5.7,93.3,29,139.9,20C632.6,642.8,624.3,589.2,630.6,561.5z"/>
		<path class="st0" d="M730.1,541.2c0,0-18.3,2.3-42-5.7c0,0,7,5,6.3,40c0,0,5.3,2.3,33.6,5.3l-22-22L730.1,541.2z"/>
		<path class="st0" d="M684.5,541.2c0,0-7-10-24.6-13.3l5,14C664.9,541.9,682.5,544.2,684.5,541.2z"/>
		<path class="st0" d="M686.8,549.6l-35.6,1.3c0,0-32.3-12-43.3-19c-11-7-14-4-14-4s30.3,21,53,26c0,0-12,17-11.3,40
			c0,0,12,12.3,54.6,9.7L686.8,549.6z"/>
		<path class="st0" d="M624.6,553.5l-30.3-20l5.3,23C599.6,556.5,628.2,556.9,624.6,553.5z"/>
	</g>
	<g>
		<path class="st6" d="M207.6,579.1h4.3v39.4h-4.3V609c-3.7,1.6-7.4,3.2-10.5,4.5l-1.9-4.2c3.1-1,7.7-2.7,12.3-4.4v-11.6h-10.9v-4.1
			h10.9V579.1z M230.4,614c1.9,0,2.2-1.9,2.5-9.1c1.1,0.8,2.8,1.6,3.9,1.9c-0.4,8.2-1.5,11.2-6.1,11.2h-6.6c-4.5,0-5.8-1.6-5.8-6.9
			v-32h4.3v14c3.8-2.3,7.5-5.1,10.1-7.3l3,3.6c-3.8,2.7-8.6,5.6-13.1,8v13.8c0,2.4,0.3,2.8,2.1,2.8H230.4z"/>
		<path class="st6" d="M255.7,603.3c-2.3,3.5-5.7,7.4-8.8,10c-0.7-0.8-2.1-2-3-2.6c2.8-2.3,6.1-5.9,7.7-8.8L255.7,603.3z M283,579.1
			v4h-38.5v-4h17.6c-0.7-1.4-1.6-3.1-2.3-4.3l4-1.3c1.2,1.7,2.5,4,3.2,5.6H283z M266.1,599.3V610c0,2.3-0.5,3.4-2.2,4
			c-1.7,0.6-4.3,0.6-8,0.6c-0.2-1.2-0.8-2.9-1.3-4c2.6,0.1,5.4,0.1,6.2,0c0.8,0,1-0.2,1-0.8v-10.6h-12v-13.2h28.3v13.2H266.1z
			 M253.9,595.8h19.9v-6.1h-19.9V595.8z M274.9,601.8c2.7,2.8,6.3,6.7,8,9.2l-3.6,2.4c-1.6-2.5-5-6.6-7.8-9.5L274.9,601.8z"/>
		<path class="st6" d="M302.2,594.9c-1.5,0.6-3.1,1.2-4.6,1.7v10.9c0,2-0.4,3.1-1.6,3.8c-1.2,0.7-3,0.8-5.8,0.8
			c-0.1-1-0.6-2.7-1.1-3.8c1.7,0,3.4,0,3.9,0c0.5,0,0.8-0.2,0.8-0.8V598l-4.6,1.6l-0.8-4c1.5-0.4,3.4-1,5.4-1.7V584h-5v-3.8h5v-8.2
			h3.8v8.2h4.2v3.8h-4.2v8.6l3.9-1.4L302.2,594.9z M329.5,607.5v3.6h-28v-3.6h12v-10.1H305v-3.6h21.3v3.6h-8.7v10.1H329.5z
			 M306.8,584.9H303v-7.8h11.2c-0.5-1.4-1.2-3.1-1.8-4.3l3.9-0.9c0.8,1.7,1.7,3.8,2.3,5.3h10.3v7.5H325v-3.9h-18.3V584.9z
			 M314.8,584.3c-2.3,3.4-6,6.9-9.2,9.1c-0.4-0.7-1.7-2.4-2.4-3.2c3-1.8,6.2-4.6,8.2-7.2L314.8,584.3z M319.6,582.9
			c2.7,2.2,6.6,5.4,8.5,7.4l-2.6,2.7c-1.8-2-5.6-5.4-8.4-7.8L319.6,582.9z"/>
		<path class="st6" d="M373.2,591.5c-1.5,5.4-4.2,9.7-7.5,12.8c2.9,1.9,6.2,3.3,10,4.2c-0.8,0.8-1.9,2.5-2.4,3.6
			c-4.1-1.1-7.6-2.8-10.6-5.1c-3.1,2.2-6.6,3.8-10.5,5c-0.4-1.1-1.2-2.7-1.9-3.5c-0.1,1.2-0.5,2-1.4,2.5c-1.2,0.7-2.8,0.8-5.6,0.8
			c-0.1-1-0.6-2.8-1.1-3.9c1.7,0,3.2,0,3.7,0c0.5,0,0.7-0.2,0.7-0.8v-9.7h-5.8c-0.4,5.2-1.2,10.7-2.9,14.8c-0.8-0.7-2.4-1.6-3.4-1.9
			c2.7-6.2,2.9-14.9,2.9-21.4v-15.8h12.9v34.2c0,0.4,0,0.8,0,1.2c3.4-0.8,6.6-2.2,9.4-4c-2.6-2.6-4.7-5.8-6.2-9.4l1.4-0.5h-3v-3.9
			h18.2l0.7-0.1L373.2,591.5z M346.6,593.5v-6.6h-5.5v1.9c0,1.5,0,3.1-0.1,4.8H346.6z M341.1,576.7v6.4h5.5v-6.4H341.1z
			 M359.4,577.9c0,4.1-1.1,8.9-6.4,12c-0.5-0.9-1.9-2.5-2.6-3.1c4.7-2.6,5.4-6,5.4-9V573h14.1v9.9c0,1.2,0,1.7,0.6,1.7h2.3
			c0.5,0,1.4-0.1,1.9-0.3c0,1.1,0.2,2.5,0.3,3.5c-0.6,0.2-1.5,0.3-2.3,0.3h-2.6c-3.3,0-4-1.5-4-5.2v-6h-6.7V577.9z M357,594.4
			c1.4,2.9,3.3,5.4,5.7,7.6c2.3-2.1,4.2-4.6,5.5-7.6H357z"/>
		<path class="st6" d="M402.8,606.1c2.3,0.4,4.7,0.6,7.3,0.6c1.6,0,8.7,0,10.8-0.1c-0.6,1-1.3,2.9-1.5,4h-9.5
			c-9.1,0-15.9-1.7-20.3-8.9c-1.4,3.7-3.5,7-6.4,9.3c-0.7-0.8-2.1-2.2-2.9-2.8c5-3.9,7-11.2,7.7-17.4l4.3,0.5
			c-0.3,1.8-0.6,3.6-1.1,5.4c1.7,4.1,4.2,6.6,7.4,8v-17h-12.9v-15.3h30.4v15.3h-13.3v6.2h14.6v3.9h-14.6V606.1z M389.8,584h22v-7.5
			h-22V584z"/>
		<path class="st6" d="M466.9,587.3c-2.3,3.1-5.2,6.7-7.5,9.1c1.9,4.1,4.7,7.1,8.6,9.9c-0.9,0.8-2.1,2-2.5,3.2
			c-4.3-3.3-7.3-6.9-9.4-11.5v9.9c0,2.2-0.5,3.4-1.9,4c-1.4,0.7-3.5,0.8-6.9,0.8c-0.2-1.1-0.9-2.9-1.4-3.9c2.4,0.1,4.5,0,5.2,0
			c0.7,0,1-0.3,1-1v-9c-3.4,3.4-6.9,6.7-9.8,9.4l-2.5-3.6l0.6-0.5c-4.6,1.5-9.3,3-13.1,4.2l-0.9-3.9c1.6-0.4,3.5-1,5.6-1.6v-11.5
			h-4.7v-3.8h4.7v-8.8H427v-3.8h13.7v3.8h-4.8v8.8h4.2v3.8h-4.2v10.4l5.1-1.6l0.5,3.3c2.9-2.3,7-5.8,10.7-9v-11.1h-10.5v-3.8h10.5
			v-7.4h4v7.4h11.2v3.8h-11.2v1.8c0.5,3,1.1,5.6,1.9,7.9c1.9-2.3,4-5.2,5.3-7.5L466.9,587.3z M445.4,585.7c1.9,2.4,3.9,5.7,4.6,7.9
			l-3.4,1.6c-0.7-2.2-2.6-5.6-4.4-8.1L445.4,585.7z M463.1,579.4c-1.1-1.4-3.3-3.5-5.1-4.8l2.3-2.1c1.9,1.3,4.2,3.2,5.3,4.5
			L463.1,579.4z"/>
		<path class="st6" d="M484.8,573.5c-1.2,3.1-2.7,6.2-4.3,9.2v30h-3.9v-23.8c-1.2,1.7-2.5,3.2-3.8,4.6c-0.4-1-1.6-3.2-2.3-4.2
			c4.2-4.2,8.1-10.6,10.5-17.1L484.8,573.5z M494.9,605.2c-2.5,3.1-6.3,5.8-10,7.7c-0.6-0.8-1.7-2.2-2.6-2.9
			c3.5-1.8,7.2-4.5,9.3-7.1L494.9,605.2z M486.8,599.2v-25.3H508v25.3h3.7v3.6h-29.2v-3.6H486.8z M490.7,577.2v3.2h13.2v-3.2H490.7z
			 M503.9,583.3h-13.2v3.3h13.2V583.3z M490.7,589.5v3.4h13.2v-3.4H490.7z M490.7,599.2h13.2v-3.4h-13.2V599.2z M502.6,602.9
			c3.1,2,7.3,5.1,9.3,7.1l-2.8,2.8c-1.9-2.1-6-5.3-9.1-7.4L502.6,602.9z"/>
		<path class="st6" d="M530.7,600.8c-2.5,4.2-6.1,8.9-9.1,11.9c-0.8-0.7-2.5-2-3.4-2.6c3-2.7,6.4-6.9,8.5-10.6L530.7,600.8z
			 M541.6,596.2v14.1c0,2.4-0.5,3.6-2.1,4.3c-1.6,0.7-4,0.8-7.8,0.8c-0.2-1.2-0.8-3-1.4-4.2c2.7,0.1,5.3,0.1,6,0
			c0.8,0,1.1-0.2,1.1-0.9v-14h-9.8c-2.7,0-4.8,0.2-5.3,0.6c-0.3-0.9-0.9-2.8-1.4-3.8c0.7-0.2,1.1-1.2,1.5-2.8
			c0.4-1.5,1.4-7.2,1.5-12.3c10.1-0.2,22.2-1.1,29.2-2.7l2.2,3.7c-7.3,1.7-18,2.5-27.4,2.7c-0.4,3.6-1,7.4-1.8,10.5h11.3v-8.3h4.3
			v8.3h15.6l0,4.1H541.6z M550.4,599.5c3,3.4,6.8,8.1,8.6,11.2l-3.9,1.9c-1.6-3-5.3-7.9-8.3-11.5L550.4,599.5z"/>
		<path class="st6" d="M585.1,587c-1,2.4-2.1,5.1-3.1,7.2h5.8v3.7h-23.1v-3.7h6.2c-0.4-1.9-1.5-4.9-2.5-7.1l3.6-0.9
			c1.2,2.2,2.3,5.1,2.7,7.1l-3.2,0.9h6.6c1.1-2.3,2.3-5.7,2.9-8.2L585.1,587z M586.9,586.1H566v-3.7h8.8c-0.4-1.4-1.1-3-1.6-4.3
			l3.7-1.1c0.8,1.7,1.7,3.8,2.2,5.3h7.8V586.1z M567.1,601.6H586v15.9h-4.1v-1.7H571v2h-3.9V601.6z M571,605.3v6.9h10.9v-6.9H571z
			 M604.7,581.2c-1.6,4.1-3.5,9.2-5.3,13.2c3.8,4,4.6,7.5,4.6,10.4c0,2.8-0.6,5-2.1,6c-0.8,0.5-1.7,0.8-2.7,1
			c-1.1,0.1-2.4,0.1-3.7,0.1c0-1.1-0.4-2.8-1-3.9c1.2,0.1,2.2,0.1,3,0.1c0.7,0,1.3-0.2,1.7-0.4c0.8-0.5,1.1-1.8,1.1-3.3
			c0-2.6-1.1-5.8-4.7-9.5c1.5-3.5,3.1-8.2,4.2-11.6h-6.1v34.6h-3.6v-38.3h11.3l0.6-0.2L604.7,581.2z"/>
	</g>
	<g>
		<path class="st6" d="M420.6,165h7.1v46.8h-7.1v-10.6c-4.3,1.7-8.7,3.4-12.4,4.7l-3-6.3c3.9-1,9.7-2.8,15.5-4.7v-12.5h-13.5v-6.1
			h13.5V165z M450.3,205.3c2.2,0,2.5-2.1,2.9-10.4c1.7,1.2,4.6,2.4,6.5,2.8c-0.7,9.9-2.3,13.6-8.7,13.6h-7.6c-6.5,0-8.4-2.1-8.4-9.4
			v-36.9h7v15.5c4.3-2.5,8.6-5.4,11.7-7.8l4.9,5.5c-5,3.1-11,6.1-16.6,8.8v15.1c0,2.9,0.3,3.3,2.4,3.3H450.3z"/>
	</g>
	<g>
		<path class="st6" d="M485.6,191.5c-1.9,0.6-4,1.3-5.9,1.9v11.7c0,2.9-0.5,4.5-2.4,5.4c-1.8,1.1-4.4,1.3-8.2,1.2
			c-0.2-1.5-1-4.2-1.9-5.8c2.2,0.1,4.2,0.1,4.9,0c0.8,0,1-0.2,1-0.9v-9.6l-5.5,1.7l-1.4-6.1c1.9-0.5,4.3-1.1,6.8-1.9v-11.1H467v-5.8
			h6.1v-9.5h6.5v9.5h5v5.8h-5v9.2l4.8-1.4L485.6,191.5z M522.6,205.4v5.5h-38.5v-5.5h15.7v-10.6h-11.1v-5.5h1.2
			c-0.9-1.3-2.8-3.6-3.8-4.7c3.9-2,8.2-5,10.7-7.9l6.1,2c-3.2,3.8-8,8-12.3,10.6h27.6v5.5H507v10.6H522.6z M492.5,178.7h-6.4v-9.8
			h14.4c-0.6-1.7-1.4-3.4-2.2-4.9l6.8-1.4c1.1,1.9,2.3,4.4,3,6.3h13.6v9.5H515v-4.2h-22.5V178.7z M509,176.3
			c3.6,2.6,9.1,6.2,11.8,8.5l-4.5,4.2c-2.5-2.3-7.7-6.2-11.6-9L509,176.3z"/>
	</g>
	<path class="st6" d="M326.4,188.8c0,0,8.1-1.6,8.1-10.1c0-8.5-6.7-11.2-10.7-11.2c-4,0-35,0-35,0v43.8c0,0,32.3,0,36.6,0
		c4.3,0,10.7-5.9,10.7-12.9C336.1,191.5,330.3,188.8,326.4,188.8z M298.5,174.5c0,0,20.7,0,22.8,0c2.2,0,2.9,3.7,2.9,6.2
		s-1.2,4.7-2.9,4.7c-1.7,0-22.8,0-22.8,0V174.5z M318.8,204.8c-3.1,0-20.3,0-20.3,0V192c0,0,15,0,20.5,0c5.5,0,6.5,4.5,6.5,7.2
		C325.5,202,321.9,204.8,318.8,204.8z"/>
	<path class="st6" d="M394.4,180c0,0,0.7-12.5-15.8-12.5s-13.7,0-19.5,0s-15.5,4.8-15.5,10.7c0,5.8,0,14,0,20.8s7.3,12.8,14.7,12.8
		c7.3,0,15.7,0,22.3,0c6.7,0,13.7-5.2,13.7-9.3s0-14.1,0-14.1h-25.8v5.9h15.2c0,0,0,3.7,0,5.5c0,1.8-3,5-7.3,5c-4.3,0-12.7,0-15.5,0
		s-6.2-4.2-6.2-9.3s0-9.2,0-13.3c0-4.2,1.8-8.3,6.7-8.3c4.8,0,12,0,16.2,0c4.2,0,6.8,4.7,6.8,6.2H394.4z"/>
</g>
</svg>
