<?xml version="1.0" encoding="utf-8"?>
<!-- Generator: Adobe Illustrator 22.1.0, SVG Export Plug-In . SVG Version: 6.00 Build 0)  -->
<svg version="1.1" id="图层_1" xmlns="http://www.w3.org/2000/svg" xmlns:xlink="http://www.w3.org/1999/xlink" x="0px" y="0px"
	 viewBox="0 0 800 800" style="enable-background:new 0 0 800 800;" xml:space="preserve">
<style type="text/css">
	.st0{fill:url(#SVGID_1_);}
	.st1{fill:url(#SVGID_2_);}
	.st2{fill:url(#SVGID_3_);}
	.st3{opacity:0.3;fill:#FFFFFF;}
	.st4{fill:#C41723;}
	.st5{fill-rule:evenodd;clip-rule:evenodd;fill:#932329;}
	.st6{fill-rule:evenodd;clip-rule:evenodd;fill:url(#SVGID_4_);}
	.st7{fill-rule:evenodd;clip-rule:evenodd;fill:#EF8200;}
	.st8{opacity:0.3;fill-rule:evenodd;clip-rule:evenodd;fill:#EF8200;}
	.st9{opacity:0.5;fill-rule:evenodd;clip-rule:evenodd;fill:#EF8200;}
	.st10{opacity:0.5;fill-rule:evenodd;clip-rule:evenodd;fill:url(#SVGID_5_);}
	.st11{fill-rule:evenodd;clip-rule:evenodd;fill:#702829;stroke:#702829;stroke-width:0.5669;stroke-miterlimit:22.9256;}
	.st12{fill-rule:evenodd;clip-rule:evenodd;fill:#0EA38C;}
	.st13{fill-rule:evenodd;clip-rule:evenodd;fill:#FFFFFF;}
	.st14{opacity:0.5;fill-rule:evenodd;clip-rule:evenodd;fill:#F5EEDC;}
	
		.st15{fill-rule:evenodd;clip-rule:evenodd;fill:none;stroke:#EA6000;stroke-width:1.7731;stroke-linecap:round;stroke-linejoin:round;stroke-miterlimit:22.9256;}
	.st16{fill:#EA6000;}
	.st17{fill-rule:evenodd;clip-rule:evenodd;fill:url(#SVGID_6_);}
	.st18{fill:#EF8200;}
	.st19{fill-rule:evenodd;clip-rule:evenodd;fill:url(#SVGID_7_);}
	.st20{fill-rule:evenodd;clip-rule:evenodd;fill:url(#SVGID_8_);}
	.st21{fill:#922428;}
	.st22{fill:url(#SVGID_9_);}
	.st23{fill:#8F0010;}
	.st24{fill:url(#SVGID_10_);}
	.st25{fill:url(#SVGID_11_);}
	.st26{fill:url(#SVGID_12_);}
	.st27{fill:url(#SVGID_13_);}
	.st28{fill:url(#SVGID_14_);}
</style>
<g>
	<g>
		<linearGradient id="SVGID_1_" gradientUnits="userSpaceOnUse" x1="101.4421" y1="400" x2="390.7755" y2="400">
			<stop  offset="0.1428" style="stop-color:#FBEA00"/>
			<stop  offset="1" style="stop-color:#B81B24"/>
		</linearGradient>
		<path class="st0" d="M390.8,85v665c0,0-201.8-51.3-253.2-218.2c-30.3-93.3,67.7-165.7-36.2-373.3c0,0,100.3,3.5,138.8-108.5
			C240.3,50,296.3,78,390.8,85z"/>
		
			<linearGradient id="SVGID_2_" gradientUnits="userSpaceOnUse" x1="161.2245" y1="400" x2="-128.1088" y2="400" gradientTransform="matrix(-1 0 0 1 552 0)">
			<stop  offset="0.2254" style="stop-color:#FBEA00"/>
			<stop  offset="1" style="stop-color:#B81B24"/>
		</linearGradient>
		<path class="st1" d="M390.8,85v665c0,0,201.8-51.3,253.2-218.2c30.3-93.3-67.7-165.7,36.2-373.3c0,0-100.3,3.5-138.8-108.5
			C541.3,50,485.3,78,390.8,85z"/>
	</g>
	
		<radialGradient id="SVGID_3_" cx="327.5723" cy="321.029" r="498.5036" gradientTransform="matrix(0.9972 0 0 0.9972 1.1396 1.1396)" gradientUnits="userSpaceOnUse">
		<stop  offset="0" style="stop-color:#FFFFFF"/>
		<stop  offset="2.000000e-02" style="stop-color:#FFFFFF"/>
		<stop  offset="0.28" style="stop-color:#FFEF00"/>
		<stop  offset="0.7" style="stop-color:#EF8200"/>
		<stop  offset="1" style="stop-color:#E1750B"/>
	</radialGradient>
	<path class="st2" d="M638.8,186.3c0,0-86,3.1-119-96c0,0-48,24.8-129,31c-81-6.2-129-31-129-31c-33,99.1-119,96-119,96
		c89,183.8,5,247.8,31,330.4c44,147.7,217.1,193.1,217.1,193.1s173-45.4,217.1-193.1C633.8,434.1,549.8,370.1,638.8,186.3z"/>
	<path class="st3" d="M599.1,384.9l-113.7,4.2l112-22.1c-0.5-7.4-0.8-15-0.7-23l-115.2,27.1l116.2-47.5c0.7-8.6,1.8-17.5,3.5-26.8
		l-127,57.3l133.9-88c3.4-12.3,7.6-25.2,12.8-38.8L463.9,338.9l157.4-154.3c-7.8-1.4-17.7-3.9-28.3-8.6L450.7,326l114.5-166.9
		c-6.4-5.2-12.7-11.4-18.7-18.7L435.4,315.8L525.9,106c-2.2-5-4.2-10.2-6.1-15.8c0,0-6.8,3.5-19.7,8.3l-81.8,210.2l43-198.5
		c-8.3,2-17.4,3.9-27.3,5.7l-33.8,189.3l3.5-185.1c-4.2,0.4-8.5,0.8-12.9,1.2c-4.2-0.3-8.3-0.7-12.3-1.1l3.3,188.7l-35.5-193.2
		c-9.9-1.8-19.1-3.7-27.4-5.8l49.7,224.3l15-3h13.6l13.1,2.6l12.4,5.1l11.2,7.3l9.6,9.4l7.6,11l5.3,12.3l2.8,13.1l0.3,13.4
		l-2.3,13.2l-4.8,12.5l-7.1,11.3l-9.2,9.7l-10.9,7.8l-12.2,5.5l-13,3.1l-13.4,0.5l-13.3-2.1l-12.6-4.6l-11.5-6.9l-9.9-9l-8-10.7
		l-5.8-12.1l-3.4-12.9l-0.8-13.4l1.8-13.2l4.3-12.7l6.7-11.6l8.8-10.1l10.6-8.2l14.1-7.1L256.5,104c-4.5,10.7-9.8,20.1-15.4,28.2
		l98.7,186.9L218.4,157.3c-7.1,6-14.3,10.8-21.4,14.5l128.1,158.5L162.8,184.1c-12.1,2.4-20.1,2.1-20.1,2.1
		c4.1,8.6,7.9,16.9,11.3,24.9L313,344.3l-141.5-84.8c3.3,11.3,5.9,22,7.9,32.2l124.3,68.5l-120.6-43.5c0.9,8.6,1.4,16.8,1.6,24.7
		l113,36.2l-113.2-17.4c-0.3,7.8-1,15.3-1.8,22.5l112.5,13.2l-114.9,4.7c-1.3,7.9-2.7,15.6-4.1,23l120.1-9.3l-123.8,29.5
		c-1.5,8.5-2.7,16.7-3.3,24.8l131.7-36.5l-131.8,60.1c0.7,8,2.1,15.9,4.7,24.1l135-67.5l-126.7,90.7c3.2,7.7,6.8,15.1,10.6,22.2
		l127.1-98.1L206.3,584c4.8,6.9,9.9,13.5,15.2,19.8l111.8-127.6l-92.9,147.7c6.2,6,12.5,11.6,18.9,16.8l89.8-154.9l-66.4,172.5
		c7.4,5,14.7,9.7,21.8,13.9l61.9-180l-34.1,194.9c8.8,4.3,17.1,7.9,24.4,10.9l28-202.9l4.5,214.4c1,0.3,1.6,0.5,1.6,0.5
		s9.4-2.5,24.3-8.1l-11.9-207.4l42.5,194.4c7.4-3.5,15.3-7.5,23.4-12.1l-47.9-186.5l74,170.6c6.9-4.6,13.9-9.6,20.8-15l-78-163.2
		l99.7,144.7c6-5.6,11.9-11.6,17.6-17.9L453,471.8l119.2,116.4c4.8-6.6,9.3-13.5,13.6-20.8l-120-109l131.7,86.2
		c3.3-7.3,6.2-15,8.8-22.9l-130.6-78.8l136.3,55.4c1.1-8.4,1.3-16.6,0.9-25l-130.4-47.6l127.9,24.9c-1.2-7.8-2.7-15.8-4.3-24.1
		l-120.4-19l116.8-0.1C601.3,400.2,600.1,392.7,599.1,384.9z"/>
	<path class="st4" d="M265.8,99.8c16.4,7.1,60.1,23.5,124.5,28.4l0.5,0l0.5,0c64.4-4.9,108-21.2,124.5-28.4
		c28.5,75.6,87.9,90.1,112.3,92.8c-52.2,112.7-39.3,180.4-29,235c5.9,31.3,11.1,58.3,2,86.9l0,0.1l0,0.1
		c-9.7,32.6-26.8,62.8-50.8,89.6c-19.3,21.6-43.1,41.2-70.8,58.1c-41.9,25.7-80.2,37.6-88.7,40.1c-8.5-2.5-46.5-14.3-88.4-39.9
		c-27.7-17-51.6-36.5-71-58.2c-24.1-26.9-41.2-57.1-51-89.8l0-0.1l0-0.1c-9-28.6-3.9-55.6,2-86.9c10.4-54.7,23.2-122.3-29-235
		C177.8,189.9,237.3,175.4,265.8,99.8 M519.8,90.2c0,0-48,24.8-129,31c-81-6.2-129-31-129-31c-31.1,93.3-109.1,96-118.2,96
		c-0.6,0-0.9,0-0.9,0c89,183.8,5,247.8,31,330.4c44,147.7,217.1,193.1,217.1,193.1s173-45.4,217.1-193.1c26-82.6-58-146.6,31-330.4
		c0,0-0.3,0-0.9,0C628.9,186.3,550.9,183.5,519.8,90.2L519.8,90.2z"/>
	<g>
		<path class="st5" d="M248.7,375.8c0,0-0.8-4.6,4.3-5.4c5.1-0.8,6.5,3.9,6.5,3.9c0.3-1.1,5.6,0.3,6.2,4.3c0.6,4.2-3.3,6.7-6.9,5
			c0,0,1.8-3,0.6-3.8c-1.2-0.8-4.6-1.7-5.7,2c-1.2,3.7,1.3,7.9,6.8,5.9c5.6-2,23.5-7.5,30.5,2.5c0,0-9-4.6-18.9-1.2
			c-8.2,2.8-10,5.9-16.1,5.5c-5.6-0.3-10.9-2.4-11.8-9.3C243.8,381.1,245,376.6,248.7,375.8z"/>
		<linearGradient id="SVGID_4_" gradientUnits="userSpaceOnUse" x1="225.2736" y1="382.0038" x2="565.6107" y2="382.0038">
			<stop  offset="0" style="stop-color:#C42727"/>
			<stop  offset="0" style="stop-color:#6F0106"/>
			<stop  offset="5.456576e-02" style="stop-color:#8B0B08"/>
			<stop  offset="0.1721" style="stop-color:#D4230E"/>
			<stop  offset="0.2" style="stop-color:#E6290F"/>
			<stop  offset="0.47" style="stop-color:#BB1119"/>
			<stop  offset="0.7" style="stop-color:#E62310"/>
			<stop  offset="0.89" style="stop-color:#C11A19"/>
			<stop  offset="1" style="stop-color:#E50012"/>
		</linearGradient>
		<path class="st6" d="M294.5,395.3c-3.9-1.8-69.2-5.9-69.2,72.4c0,78.4,80.2,126.1,157,119.8c76.8-6.3,113-50.7,139.4-74.4
			c26.4-23.8,43.9-16.8,43.9-16.8c-20-13.9-42.9-4.9-55.8,4.7c45-48.3,50.6-117.4,21.3-175.2c-10.5-20.7-10.4-66.4,1.5-75.3
			c-5.2,2.2-22.1,19.4-22.1,46.2c0,26.9,10.8,40.8,5.2,42.5c-5.6,1.7-11.8-23.4-11.8-42.6c0-19.1-2.2-76.2-84.2-90.6
			c0,0,36.4,12.2,50.1,33.9c13.7,21.8,10.5,32,8,32c-2.5,0-2.9-25.3-34.2-46c-31.2-20.7-57.4-1-83.8-50c0,0,3.9,22,23.2,35.5
			c19.4,13.5,32.1,22.5,30.5,28.5c-1.6,6-0.7-6.2-32.3-19.2c-31.7-13-36.9,1.5-74.3-29c0,0,10.7,24.1,37.6,29.5
			c0,0-44,0.3-67.4,31.9c0,0,18-17.4,40.3-16.3c0,0-23.4,7.4-40.2,40c-16.9,32.6-9.1,34.1-25.1,48.6c0,0,22.3-5.2,31.9-24.8
			c9.6-19.6,31-24.3,47.8-22.2c16.8,2.1,18.4,8.4,16.5,12.6c-1.8,4.1-13.4,10.3-26.2,7c0,0,12.3,10.9,37.4,6.2
			c25.1-4.7,31-12.4,37.1-17.1c6.1-4.7,13.2-4.2,15.7,1.6c2.5,5.7,1.8,22.5-27.8,20.5c28.2,20.2,60.1-9.2,86.2,23.5
			c20.8,26.1,25.8,73.4,19.1,99.3c-0.7,2.7-1.3,3.3-1.4,2.3c-0.7-16-7.3-39.4-19-50.6c17.7,29.2-12.9,105.5-29,103.2
			c-5.1-23.4,0.8-49.2,18.2-40.2c-20.7-28.5-50.1-8.3-56.2,18.8c-0.9-23.1-0.9-31.1,10.3-53.4c9.5-19,8.3-24.6-2.8-47
			c0.3,17.8-19.2,43-32.7,45.7c-19.9-27.7,1.7-38.1,12.7-59.4c11-21.3-12.2-42.1-12.2-42.1c9,41.5-34.9,36.7-42.9,65.7
			c-7.1,25.8,25,48.3,22.5,66c-1.1-8.7-8.9-13.1-31.9-44.3c-23-31.3,0.8-37.9,8.9-56.5c8.1-18.6-14.6-27.9-14.6-27.9
			c11,15.5-5.2,25.2-13.8,31.1c-5.1,3.5-14.3,12.4-12.4,26.5c1.2,9.7,7.6,21.8,23.9,36.2c19.7,17.5,31,28.5,34.8,42.1
			c3.3,11.6-1.7,23.5-13.7,25.9c6.1-6.5,9.7-15.4,8.3-24.3c-1.6-10.2-10.4-17.6-20.5-17.6c-6.4,0-12.5,2.1-16.7,6.9
			c-3.7,4.2-6,14.9,3.8,20.4c-0.2-4.5,1.1-7,3-8.2c4.3-2.9,9.1-1.4,11.8,0.2c7.1,4.3,6.5,12.2,2.9,18.6c-19.9,35-72.6,9.9-74.9-25.5
			C254.7,421.1,268.2,396.4,294.5,395.3L294.5,395.3z M375.1,249.2c22.9-0.1,20.5,20.8,2.4,21.1c-5.8,0.1-12-2.1-16.9-6.1
			c-8.3-6.7-17.6-3.5-17.6-3.5C352,253.6,364.6,249.3,375.1,249.2L375.1,249.2z M329.4,263.3c0,0,16.8-22.6,46.9-21.6
			c30.1,1,23,19.4,23,19.4s65.8,3.5,99.8,82.5c34,79,0.2,190-108.1,206.1c0,0,59.7-4.5,92-60.6c32.2-56.1,22.7-126.7,5.2-156.5
			c-17.4-29.8-50.9-61.8-89.3-65.7c0,0-7.6,11.8-22.4,11.3c-14.8-0.5-18.4-10.4-30.1-12.7C334.6,263.3,329.4,263.3,329.4,263.3z"/>
		<path class="st7" d="M323.1,323.7c0,0,5.4,7.3-6,16.5c-11.3,9.3-20.2,19.9-14.4,34.3c5.8,14.4,18.1,29.2,18.1,29.2
			s-31-29.4-25.1-46C300.7,343.7,324.8,338.2,323.1,323.7z"/>
		<path class="st8" d="M256.1,415.2c0,0-11.9,15-15.1,35.8c-3.7,24.5,2.9,56.3,29.1,67.8c48.4,21.4-16.4-31.4,0.3-26.8
			c16.7,4.7,31.8,8.7,31.8,8.7s-48.4-23.1-49.8-51.5C250.9,420.9,255.4,424.5,256.1,415.2z"/>
		<path class="st7" d="M375.4,417.8c0,0,21.7-7.3,32.1-34c-0.5,5.8-2.4,11.2-5.1,16c0.1,0,0.1,0,0.1,0l-0.3,0.4
			c-2,3.4-4.5,6.5-7.2,9.1c-3.5,4.7-7.5,10.5-10.5,15.9c-6.5,11.8-0.2,17.6-0.2,17.6s-10-12.9-1-26
			C380.6,417.8,377.9,418.2,375.4,417.8z"/>
		<path class="st7" d="M292.3,262.1c0.2-1.4,2.9-10.2,15.4-18.1c10-6.4,23.2-8.9,0.9,3.7C294.8,255.4,292.3,262.1,292.3,262.1z"/>
		<path class="st7" d="M311.4,451.7c0,0,3.2-11.1,13.2-8.7c10.1,2.4,8.5,14,8.5,14s-0.5-7.4-8.4-10.2
			C316.8,444,311.4,451.7,311.4,451.7z"/>
		<path class="st9" d="M331.9,474.4c0,0,14,5.6,19.8-7.6c5.8-13.2,0.2-21,0.2-21s8.4,7.9,2.9,20.9c-3.8,9-9.7,14.6-17.4,16.1
			c0,0,2.3-2.6,4.9-5.6C340.2,477.5,335.5,477.3,331.9,474.4z"/>
		<path class="st9" d="M404.8,469.1c0,0,8.5-18.4,15.1-24.5c6.6-6.1,12.2-8.7,15.5-7.7c0,0-7.4,0.3-14.2,11.6
			c-6.8,11.4-6.6,33.3-33.9,38.5c9.6-3.8,17.8-10.4,24-23C407.8,463.5,406.7,468,404.8,469.1z"/>
		<linearGradient id="SVGID_5_" gradientUnits="userSpaceOnUse" x1="277.2683" y1="488.2827" x2="256.1896" y2="287.7327">
			<stop  offset="0" style="stop-color:#DA4729"/>
			<stop  offset="0" style="stop-color:#6F0106"/>
			<stop  offset="0.2" style="stop-color:#E6290F"/>
			<stop  offset="0.47" style="stop-color:#BB1119"/>
			<stop  offset="0.7" style="stop-color:#E62310"/>
			<stop  offset="0.89" style="stop-color:#C11A19"/>
			<stop  offset="1" style="stop-color:#E50012"/>
		</linearGradient>
		<path class="st10" d="M247.8,375.6c0,0-0.8-4.6,4.3-5.4c5.1-0.8,6.4,3.9,6.4,3.9c0.4-1.1,5.6,0.3,6.2,4.3c0.6,4.2-3.3,6.7-6.9,4.9
			c0,0,1.8-3,0.6-3.8c-1.2-0.8-4.6-1.7-5.7,2c-1.1,3.7,1.3,7.9,6.8,5.9c5.6-2,23.5-7.5,30.5,2.6c0,0-9-4.6-18.9-1.2
			c-8.2,2.8-10,5.9-16.1,5.5c-5.6-0.3-10.9-2.4-11.8-9.3C242.8,380.9,244.1,376.4,247.8,375.6z"/>
	</g>
	<g>
		<g>
			<path class="st11" d="M366.8,144l-4.9,23.5c0.1,2,1.2,2.5,2.9,2.7h22.7l-1.4,7.4h-25.1c-8.5-1.1-9.1-5.8-9.4-10l5-23.6H366.8z"/>
			<path class="st11" d="M403.6,144l-4.6,23.5c0.1,2,1.2,2.5,2.9,2.7h23.2l-1.4,7.4H398c-8.5-1.1-9.1-5.8-9.4-10l4.8-23.6H403.6z"/>
			<path class="st11" d="M313.7,159.7l0.4-1.7c0.7-2.7,2.2-5.5,5.5-6.3h21.6c-3.1,14.5-2.8,13-5.3,26h9.9l7-33.6h-33.5
				c-5.3,0-8.8,2.3-11.5,6.3c-1.6,2.3-2.6,6.8-3.5,9.3H313.7z"/>
			<path class="st11" d="M303.6,177.7c2.2,0,6.5,0,7-2.8l1.1-5.5h23.3l1.4-7.2h-23.4l0,0h-9.2l-1.7,8.1c-5.1,0-14.6,0-19.7,0
				c-1.8,0.1-2.6-1.7-1.2-2.7c7.2-5.6,15.7-11.6,22.3-16.8c2-1.6,2.3-3.9,1.9-6.7h-7l0,0l-31.1,0l-1.5,7.5h21.6l-22.8,17.1
				c-0.1,0.1-0.2,0.1-0.3,0.2c-1.6,2.1-1.9,7.4,1.8,8.8h13.3l0,0H303.6z"/>
			<path class="st11" d="M511.2,178.6v-17.4l2.4,0c-0.7,4.7-3.1,15.3,2,15.3l-0.6,3.2C513.5,179.7,512.3,179.3,511.2,178.6
				L511.2,178.6z M511.2,154.7v-5.1l8.2,0l-2.7,8.8h-5.3l1.4-3.7H511.2z M511.2,149.5v5.1h-7l-4.4,22c-0.2,0.8-0.6,1.5-1.2,1.8
				c-1.1,0.6-5.1,1-8,1.3c-0.1-1.6-0.3-3.1-0.8-4.5c1.9,0.1,3,0.1,3.4-0.1c0.2-0.1,0.3-0.2,0.4-0.3c0.1-0.3,1.6-7.7,4.1-20.1h-8.5
				c-1.7,1.9-3.5,3.7-5.4,5v-7.1c1.9-3,3.3-5.9,4.4-8.7h8.6c-0.4,1-1.7,3.2-3.5,5.7L511.2,149.5L511.2,149.5z M511.2,161.3l-4,0
				c-0.4,2-1.5,13.6,4,17.3V161.3L511.2,161.3z M483.8,174.7c4-4.9,6.1-11.9,6.4-13.4l-6.4,0l-0.1,0.3V174.7z M476,145.3
				c-0.3,0.4-0.6,0.8-0.9,1.2v-1.1C475.3,145.3,475.7,145.3,476,145.3L476,145.3z M483.8,152.6v7.1c-0.5,0.4-1,0.7-1.5,1l-4.9,0
				C479.9,158.1,482,155.3,483.8,152.6L483.8,152.6z M483.8,161.5v13.2c-2.3,2.8-5.2,5-8.7,5.1v0l0.6-3.2
				C480.7,176.6,482.6,166.3,483.8,161.5L483.8,161.5z M475,152.3L475,152.3L475,152.3L475,152.3z M475,146.4c-2,2-5.1,3.2-8.1,4
				v-5.9c0.2-0.2,0.4-0.5,0.6-0.7c1.4,0.9,4,1.5,7.1,1.4h0.4V146.4L475,146.4z M475,152.3L475,152.3l-0.2,0.9l-0.8,4l-0.4,1.7
				l-1,4.9l-0.3,1.7l-0.2,1l-0.8,3.9H467v-11.5h0.3l0.3-1.7H467v-4.9H475L475,152.3z M475,179.8L475,179.8L475,179.8L475,179.8
				L475,179.8z M467,177.5v-5.4h5.1l-1.1,5.4H467z M467,150.5c-3.4,0.9-6.8,1.1-8.1,1.2l0.3-1.9c2.4-0.1,4.7-1.6,7.7-5.2V150.5
				L467,150.5z M467,152.3h-8.2l1.7-8.3H454l-1,4.7v8.5l13.9,0V152.3L467,152.3z M467,158.9v11.5l-11.9,0l-0.3,1.7l12.2,0v5.4
				l-13.3,0l-0.5,2.3H453v-14.3H466l0.4-1.7H453v-4.9L467,158.9z M453,148.7v8.5h-11.6l-0.4,1.8l11.9,0v4.9l-12.9,0l-0.3,1.7l13.3,0
				v14.3l-6.3,0l0.5-2.3l-17.3,0l1.1-5.4l17.3,0l0.3-1.7h-16.3l0.9-4.2l0.1-0.7l0.4-1.7l1-4.9l0.3-1.7l0.9-4.3l0.1-0.6h16.3
				L453,148.7z"/>
		</g>
		<g>
			<path class="st12" d="M365.6,141.7l-4.9,23.5c0.1,2,1.2,2.5,2.9,2.7h22.7l-1.4,7.4h-25.1c-8.5-1.1-9.1-5.8-9.4-10l5-23.6H365.6z"
				/>
			<path class="st12" d="M402.4,141.7l-4.6,23.5c0.1,2,1.2,2.5,2.9,2.7h23.2l-1.4,7.4h-25.7c-8.5-1.1-9.1-5.8-9.4-10l4.8-23.6H402.4
				z"/>
			<path class="st12" d="M312.5,157.3l0.4-1.7c0.7-2.7,2.2-5.5,5.5-6.3H340c-3.1,14.5-2.8,13-5.3,26h9.9l7-33.6h-33.5
				c-5.3,0-8.8,2.3-11.5,6.3c-1.6,2.3-2.6,6.8-3.5,9.3H312.5z"/>
			<path class="st12" d="M302.4,175.3c2.2,0,6.5,0,7-2.8l1.1-5.5h23.3l1.4-7.2h-23.4l0,0h-9.2l-1.7,8.1c-5.1,0-14.6,0-19.7,0
				c-1.8,0.1-2.6-1.7-1.2-2.7c7.2-5.6,15.7-11.6,22.3-16.8c2-1.6,2.3-3.9,1.9-6.7h-7l0,0l-31.1,0l-1.5,7.5h21.6l-22.8,17.1
				c-0.1,0.1-0.2,0.1-0.3,0.2c-1.6,2.1-1.9,7.4,1.8,8.8h13.3l0,0H302.4z"/>
			<path class="st12" d="M510.1,176.3v-17.4l2.4,0c-0.7,4.7-3.1,15.3,2,15.3l-0.6,3.2C512.3,177.4,511.1,177,510.1,176.3
				L510.1,176.3z M510.1,152.3v-5.1l8.2,0l-2.7,8.8h-5.3l1.4-3.7H510.1z M510.1,147.2v5.1h-7l-4.4,22c-0.2,0.8-0.6,1.5-1.2,1.8
				c-1.1,0.6-5.1,1-8,1.3c-0.1-1.6-0.3-3.1-0.8-4.5c1.9,0.1,3,0.1,3.4-0.1c0.2-0.1,0.3-0.2,0.4-0.3c0.1-0.3,1.6-7.7,4.1-20.1H488
				c-1.7,1.9-3.5,3.7-5.4,5v-7.1c1.9-3,3.3-5.9,4.4-8.7h8.6c-0.4,1-1.7,3.2-3.5,5.7L510.1,147.2L510.1,147.2z M510.1,158.9l-4,0
				c-0.4,2-1.5,13.6,4,17.3V158.9L510.1,158.9z M482.6,172.4c4-4.9,6.1-11.9,6.4-13.4l-6.4,0l-0.1,0.3V172.4z M474.8,142.9
				c-0.3,0.4-0.6,0.8-0.9,1.2V143C474.2,143,474.5,143,474.8,142.9L474.8,142.9z M482.6,150.2v7.1c-0.5,0.4-1,0.7-1.5,1l-4.9,0
				C478.8,155.7,480.9,153,482.6,150.2L482.6,150.2z M482.6,159.2v13.2c-2.3,2.8-5.2,5-8.7,5.1v0l0.6-3.2
				C479.5,174.3,481.5,164,482.6,159.2L482.6,159.2z M473.9,150L473.9,150L473.9,150L473.9,150z M473.9,144.1c-2,2-5.1,3.2-8.1,4
				v-5.9c0.2-0.2,0.4-0.5,0.6-0.7c1.4,0.9,4,1.5,7.1,1.4h0.4V144.1L473.9,144.1z M473.9,150L473.9,150l-0.2,0.9l-0.8,4l-0.4,1.7
				l-1,4.9l-0.3,1.7l-0.2,1l-0.8,3.9h-4.4v-11.5h0.3l0.3-1.7h-0.7V150H473.9L473.9,150z M473.9,177.5L473.9,177.5L473.9,177.5
				L473.9,177.5L473.9,177.5z M465.8,175.1v-5.4h5.1l-1.1,5.4H465.8z M465.8,148.1c-3.4,0.9-6.8,1.1-8.1,1.2l0.3-1.9
				c2.4-0.1,4.7-1.6,7.7-5.2V148.1L465.8,148.1z M465.8,150h-8.2l1.7-8.3h-6.4l-1,4.7v8.5l13.9,0V150L465.8,150z M465.8,156.6v11.5
				l-11.9,0l-0.3,1.7l12.2,0v5.4l-13.3,0l-0.5,2.3h-0.2v-14.3h12.9l0.4-1.7h-13.3v-4.9L465.8,156.6z M451.9,146.4v8.5h-11.6
				l-0.4,1.8l11.9,0v4.9l-12.9,0l-0.3,1.7l13.3,0v14.3l-6.3,0l0.5-2.3l-17.3,0l1.1-5.4l17.3,0l0.3-1.7h-16.3l0.9-4.2l0.1-0.7
				l0.4-1.7l1-4.9l0.3-1.7l0.9-4.3l0.1-0.6h16.3L451.9,146.4z"/>
		</g>
	</g>
	<g>
		<path class="st13" d="M455.3,522.9c44.6,36.4,51.3,102.2,14.8,146.8C433.7,714.3,368,721,323.3,684.5
			c-44.6-36.4-51.3-102.2-14.8-146.8C344.9,493.1,410.7,486.5,455.3,522.9z"/>
		<path class="st14" d="M400.5,566.2l-5.4,42l-50.5,26.4c0,0,2,11.8,27.4-4.2c25.5-16,34.5-19.2,34.5-19.2l4.6-28.1L400.5,566.2z"/>
		<path class="st14" d="M353.2,672.1c0,0,41.1,15.2,51,15.2c6.2-0.7,28.7-13.4,31-16.3c2.4-2.9,5.9-40.6,5.9-40.6s3.4,41.9-4.8,52.6
			c-8.2,10.7-21,16.2-21,16.2l-9.2-4.6c0,0-35.9-5.6-49.3-19.9C343.3,660.3,353.2,672.1,353.2,672.1z"/>
		<path class="st14" d="M369.6,512.2l1.3,23.7l32.1,21.9l40.2-7.8l0.2-32.7l2.9,4.8l2.1,37l-16.9,6.8l-26.7,2.6l-5-2.4l-36.1-25.8
			l1.5-16C365.2,524.3,370.5,512.6,369.6,512.2z"/>
		<path class="st14" d="M492.9,616.2c0,0-6.7,30.7-31,55.6c-0.9,0.9-19.3-4-20.1-3c-1.1,1.3-1.4,8.6-2.6,9.9l25.5-0.8
			c9.1-10.5,15.8-19.3,21.7-32.3c3-6.6,5.7-14.1,6.9-21.4C496.6,604,492.9,616.2,492.9,616.2z"/>
		<path class="st14" d="M324.6,677.4c0,0,5-4.9,7.9-2.8c0.9,0.6-1.4,7.5-0.3,8.3c13.4,8.8,43.2,24.8,77.1,20.2l-3.5,3.9
			c0,0-21.1,2.2-27.8,0.2c-6.6-2-30.2-6-40.6-13.7c-10.4-7.8-12.3-9-12.3-9L324.6,677.4z"/>
		<path class="st14" d="M446.8,549.3c0,0,14.5,13.8,20.2,25.9c5.7,12.2,6.2,16,6.2,16l16.6,3.2c-3.3-19.6-5.8-38.1-28.9-66.6
			c0,0,9.6,6.1,17.8,18.6c8.2,12.5,12.7,29.6,14,35c2.5,10.1,2.7,18.4,2.5,19.4l-26.3-2.9L444.1,565L446.8,549.3z"/>
		<path class="st14" d="M307.7,542.9c-12.7,23.8-13.5,49.4-14.5,75.2l10.6,6.7l15-22.3l2.7,21.5l-11.1,15.1l-8.9-5.1l-12.8-10
			c0,0-5.8-38.3,4.4-60C303.2,542.5,307.7,542.9,307.7,542.9z"/>
		<path class="st14" d="M295.4,629.9c0,0,5,29,29.7,53.4c0,0-26.7-17.5-36.6-58.6l4.4,3.5C292.9,628.2,295.4,629.8,295.4,629.9z"/>
		<path class="st15" d="M325,673.9c0,0-2,7.4,0.6,11.2"/>
		<path class="st16" d="M458.1,521.2c22.8,18.6,35.9,44.7,38.6,71.8c2.7,27.1-4.9,55.3-23.5,78c-18.6,22.8-44.7,35.9-71.8,38.6
			c-27.1,2.7-55.3-4.8-78.1-23.4c-22.8-18.6-35.8-44.7-38.6-71.8c-2.7-27.1,4.9-55.3,23.5-78c18.6-22.8,44.7-35.9,71.8-38.6
			C407.2,495,435.3,502.6,458.1,521.2L458.1,521.2z M492.9,603.2l-24.3-3.4l-24.2,31.9c0.2,5.9,0.8,24.7-1.3,42l19,3
			c2.7-2.7,5.3-5.5,7.8-8.5C485.5,649.1,493.1,626.1,492.9,603.2L492.9,603.2z M469.4,595.5l23.5,3.3c-0.1-1.8-0.2-3.6-0.4-5.4
			c-2.5-25-14.2-49.1-34.5-66.8l-8.2-1.2l0.5,33.3C455,565.9,466.5,583.5,469.4,595.5L469.4,595.5z M326.7,563.7
			c-1.9,10.8-5.2,32.1-5.1,48.6l33.7,23.9c24.8-10.7,41.7-22.3,45.3-24.8l1.3-41.9l-38.1-26.6L326.7,563.7L326.7,563.7z
			 M402.6,615.3c-4.6,3.2-21,14.1-44.2,24.2l1.1,34.9c9.5,6.1,27.3,15.9,47.3,18.1c6.4-2.5,22.6-9.3,31.7-16.8
			c2.4-16.8,2-35.9,1.7-42.9C433.1,630.8,414.3,624.8,402.6,615.3L402.6,615.3z M406.3,704.6l-1.6-8c-20-2.7-37.7-12.3-47.4-18.5
			c-5.5,1.1-19.9,3.1-32.7-2.6c-9.6-11.5-16.5-23.9-20.9-37.2c-4.3-2.6-8.6-5.9-11.7-8.3c5.3,20.1,16.8,38.7,34.1,52.8
			c21.9,17.8,48.9,25.1,74.9,22.5C402.8,705.1,404.6,704.9,406.3,704.6L406.3,704.6z M290.5,623.1c0.9,0.8,7.1,6.1,13.5,10.3
			l13.5-17.4c-0.6-17.7,3.2-42.1,5.2-53.6l-17.7-14.1c-12.9,20-18.1,43.2-15.8,65.7C289.4,617,289.9,620.1,290.5,623.1L290.5,623.1z
			 M445.8,556.1l-0.4-32.2L412,503.7l-0.6-0.1c-10.5-3.1-32.3,6.7-41.9,10.7l-3.3,25l37.9,26.5L445.8,556.1L445.8,556.1z
			 M366.2,511.4c12.2-5.8,24.4-9,28-9.8c-4.6-0.2-9.1,0-13.7,0.5c-13,1.3-25.7,5.1-37.5,11.3L366.2,511.4z"/>
	</g>
	<g>
		<linearGradient id="SVGID_6_" gradientUnits="userSpaceOnUse" x1="531.9453" y1="629.2791" x2="720.6734" y2="629.2791">
			<stop  offset="0" style="stop-color:#6F0106"/>
			<stop  offset="0" style="stop-color:#6F0106"/>
			<stop  offset="0.2" style="stop-color:#E6290F"/>
			<stop  offset="0.47" style="stop-color:#BB1119"/>
			<stop  offset="0.7" style="stop-color:#E62310"/>
			<stop  offset="0.89" style="stop-color:#C11A19"/>
			<stop  offset="1" style="stop-color:#7A0207"/>
		</linearGradient>
		<path class="st17" d="M602.7,588.7c25.6,4.6,72.8,12.1,91.1,3c0,0-21.1,31.9-37.2,39.1l39.7,36.3c0,0-4.8,6-47.3,4.7
			c-42.5-1.3-56.3-8-56.3-8l-36.4-1.3l0.9-66.9C559.7,587.8,577.1,584.1,602.7,588.7z"/>
		<path class="st18" d="M582.1,586.7c6,0,12.9,0.6,20.6,2c16.8,3,42.9,7.3,64.1,7.3c11,0,20.7-1.2,27-4.3c0,0-21.1,31.9-37.2,39.1
			l39.7,36.3c0,0-3.9,4.8-35.8,4.8c-3.5,0-7.3-0.1-11.5-0.2c-42.5-1.3-56.3-8-56.3-8l-36.4-1.3l0.9-66.9
			C558.9,590.1,568,586.7,582.1,586.7 M693.8,591.6L693.8,591.6 M582.1,584.4v2.3V584.4L582.1,584.4c-15.1,0-24.9,3.8-27,10.4
			c-0.1,0.2-0.1,0.4-0.1,0.7l-0.9,66.9c0,1.2,0.9,2.2,2.2,2.3l36,1.3c2.8,1.2,17.9,6.9,56.8,8c4,0.1,7.9,0.2,11.5,0.2
			c30.6,0,36.5-4.3,37.6-5.7c0.7-0.9,0.6-2.3-0.2-3.1l-37.3-34.1c15.6-9.3,33.7-36.2,35.1-38.3c0.3-0.4,0.4-0.8,0.4-1.3
			c0-1.2-1-2.2-2.2-2.3c0,0,0,0,0,0c-0.1,0-0.2,0-0.2,0c-0.3,0-0.6,0.1-0.8,0.2c-5.4,2.7-14.1,4-26,4c-20.8,0-46.3-4.1-63.7-7.2
			C595.5,585.1,588.5,584.4,582.1,584.4L582.1,584.4z"/>
		<linearGradient id="SVGID_7_" gradientUnits="userSpaceOnUse" x1="80.9232" y1="630.2522" x2="269.1529" y2="630.2522">
			<stop  offset="0" style="stop-color:#6F0106"/>
			<stop  offset="0" style="stop-color:#6F0106"/>
			<stop  offset="0.2" style="stop-color:#E6290F"/>
			<stop  offset="0.47" style="stop-color:#BB1119"/>
			<stop  offset="0.7" style="stop-color:#E62310"/>
			<stop  offset="0.89" style="stop-color:#C11A19"/>
			<stop  offset="1" style="stop-color:#7A0207"/>
		</linearGradient>
		<path class="st19" d="M200.9,589.5c-23,4.1-75.5,13-94,3.8c0,0,21.3,32.2,37.5,39.5l-40.1,36.6c0,0,4.8,6,47.7,4.7
			c42.9-1.3,56.8-8.1,56.8-8.1l36.7-1.3l-0.1-70.5l-5.5-4.3C223.8,584.6,224,585.4,200.9,589.5z"/>
		<path class="st18" d="M223.3,586.2c4.8,0,8.8,1.2,16.8,3.8l5.5,4.3l0.1,70.5l-36.7,1.3c0,0-13.9,6.8-56.8,8.1
			c-4.2,0.1-8.1,0.2-11.6,0.2c-32.2,0-36.2-4.9-36.2-4.9l40.1-36.6c-16.2-7.3-37.5-39.5-37.5-39.5c5.9,2.9,15.2,4,25.9,4
			c23,0,52.4-5,68.1-7.8C212.7,587.4,218.4,586.2,223.3,586.2 M223.3,583.9c-4.3,0-8.8,0.8-17,2.3c-1.8,0.3-3.7,0.7-5.8,1
			c-18.7,3.3-46.1,7.8-67.7,7.8c-11.5,0-19.9-1.3-24.9-3.8c-0.3-0.2-0.7-0.2-1-0.2c-0.6,0-1.3,0.3-1.7,0.8c-0.7,0.8-0.8,1.9-0.2,2.7
			c0.8,1.3,19.5,29.2,35.5,38.8l-37.7,34.5c-0.9,0.8-1,2.1-0.2,3.1c1.1,1.3,7,5.7,37.9,5.7c3.6,0,7.6-0.1,11.6-0.2
			c39.2-1.2,54.5-6.9,57.3-8.1l36.3-1.3c1.2,0,2.2-1,2.2-2.3l-0.1-70.5c0-0.7-0.3-1.3-0.9-1.8l-5.5-4.3c-0.2-0.2-0.4-0.3-0.7-0.4
			C232.8,585.2,228.5,583.9,223.3,583.9L223.3,583.9z"/>
		<linearGradient id="SVGID_8_" gradientUnits="userSpaceOnUse" x1="183.4738" y1="649.9351" x2="624.1415" y2="649.9351">
			<stop  offset="0" style="stop-color:#6F0106"/>
			<stop  offset="0" style="stop-color:#6F0106"/>
			<stop  offset="0.2" style="stop-color:#E6290F"/>
			<stop  offset="0.47" style="stop-color:#BB1119"/>
			<stop  offset="0.7" style="stop-color:#E62310"/>
			<stop  offset="0.89" style="stop-color:#C11A19"/>
			<stop  offset="1" style="stop-color:#7A0207"/>
		</linearGradient>
		<path class="st20" d="M222.4,586c5.4-0.5,21.5,1.8,23.2,7.6c2.3,7.9-10.3,10.3-15.3,10.9c-6,0.8-39.2,0.8-38.9,11
			c0.3,10.2,22.7,21.5,66.2,18.1c43.5-3.4,79.1-24.3,159.7-20.1c80.7,4.2,104,26.7,150.6,19.9c46.6-6.8,48.5-15.4,45.1-19.4
			c-3.4-3.9-25.1-6.6-43.9-10.3c-18.8-3.7-7.8-12.4-7.8-12.4s2.2,9.6,24.7,9c22.4-0.5,37.2,7.9,37.2,17.5c0,9.7-3,78.2-3,78.2
			s-12.5,17.8-60.2,16.2c-47.7-1.6-84.7-18.8-155.7-16.8c-71,2.1-123.9,18.3-164.2,18.3c-40.3,0-54-21.5-54-21.5l-1.7-75.9
			c-0.2-7.2,3.3-13.3,24.1-15.2c20.7-1.8,26.9-3.1,27.1-7.3C235.8,589.9,222.4,586,222.4,586z"/>
		<path class="st18" d="M224.1,586c6.5,0,19.9,2.4,21.4,7.7c2.3,7.9-10.3,10.3-15.3,10.9c-6,0.8-39.2,0.8-38.9,11
			c0.2,8.9,17.5,18.7,51,18.7c4.8,0,9.8-0.2,15.2-0.6c39.5-3.1,72.6-20.7,138.9-20.7c6.6,0,13.5,0.2,20.8,0.6
			c70.2,3.6,97,21.1,133.4,21.1c5.4,0,11.1-0.4,17.1-1.3c46.6-6.8,48.5-15.4,45.1-19.4c-3.4-3.9-25.1-6.6-43.9-10.3
			c-18.8-3.7-7.8-12.4-7.8-12.4s2.1,9,22.9,9c0.6,0,1.1,0,1.7,0c0.7,0,1.3,0,2,0c21.3,0,35.2,8.2,35.2,17.6c0,9.7-3,78.2-3,78.2
			s-11.5,16.3-54.4,16.3c-1.9,0-3.8,0-5.9-0.1c-45-1.5-80.4-16.9-143.9-16.9c-3.8,0-7.7,0.1-11.8,0.2c-71,2.1-123.9,18.3-164.2,18.3
			c-40.3,0-54-21.5-54-21.5l-1.7-75.9c-0.2-7.2,3.3-13.3,24.1-15.2c20.7-1.8,26.9-3.1,27.1-7.3c0.3-4.2-13.1-8.1-13.1-8.1
			C222.9,586,223.4,586,224.1,586 M224.1,583.7c-0.7,0-1.4,0-2,0.1c-1.1,0.1-1.9,1-2,2c-0.1,1.1,0.6,2.1,1.6,2.4
			c5.6,1.6,11.2,4.4,11.5,5.8c-0.2,2.5-9,3.7-25.1,5.2c-18.5,1.6-26.3,6.9-26.1,17.5l1.7,75.9c0,0.4,0.1,0.8,0.4,1.2
			c0.6,0.9,14.8,22.5,55.9,22.5c18.5,0,39.5-3.4,63.7-7.2c29.1-4.7,62-9.9,100.6-11.1c3.9-0.1,7.9-0.2,11.7-0.2
			c35.8,0,63.2,5,87.4,9.5c18.9,3.5,36.8,6.8,56.4,7.4c2,0.1,4,0.1,5.9,0.1c43.6,0,55.7-16.6,56.2-17.3c0.2-0.4,0.4-0.8,0.4-1.2
			c0.1-2.8,3-68.7,3-78.3c0-11.5-15.8-19.8-37.5-19.8c-0.7,0-1.3,0-2,0c-0.6,0-1.1,0-1.7,0c-18.4,0-20.7-7.3-20.7-7.4
			c-0.2-0.8-0.7-1.3-1.4-1.6c-0.2-0.1-0.5-0.1-0.7-0.1c-0.5,0-1,0.2-1.4,0.5c-0.5,0.4-5,4.1-3.9,8.7c0.9,3.7,5,6.2,12.6,7.7
			c4.8,0.9,9.7,1.8,14.5,2.6c11.6,2,26,4.6,28.1,6.9c0.7,0.8,0.6,1.3,0.4,1.8c-0.7,1.8-5.9,8.3-44.1,13.9
			c-5.7,0.8-11.2,1.2-16.8,1.2c-16.1,0-30.6-3.5-47.4-7.7c-20.9-5.1-46.9-11.5-85.9-13.5c-7.1-0.4-14.1-0.6-20.9-0.6
			c-41,0-69.3,6.6-94.2,12.5c-15.3,3.6-29.8,7-44.9,8.2c-5.2,0.4-10.3,0.6-15.1,0.6c-33.3,0-48.5-9.6-48.7-16.5
			c-0.1-2.3,3.9-4.5,10.9-6c7-1.5,15.3-2,20.9-2.3c2.3-0.1,4.1-0.3,5.2-0.4c5.8-0.8,13.3-2.6,16.3-7.2c1.3-2,1.6-4.2,0.9-6.6
			C245.4,585.4,228.2,583.7,224.1,583.7L224.1,583.7z"/>
		<path class="st21" d="M215.3,689.3l11-18l-3.1,0.1c-2.1,0-3.5,0.4-4.4,1c-0.8,0.6-1.3,1.7-1.6,3.2l-1.2,0l-0.1-5.6l15.9-0.3l0,1.3
			l-11,17.9l4.1-0.1c1.8,0,3.2-0.4,4.1-1.2c0.9-0.7,1.5-1.9,1.8-3.6l1.2,0l-0.2,6.3l-16.6,0.3L215.3,689.3L215.3,689.3z M235,689.8
			l-0.1-1.3c0.7-0.1,1.3-0.4,1.8-0.8c0.5-0.4,0.8-1.1,1.1-1.8l5.9-18.2l1.5-0.1l8.5,16.8c0.4,0.9,0.9,1.4,1.4,1.7
			c0.5,0.3,1.1,0.5,2,0.4l0.1,1.3c-0.9,0-1.8,0.1-2.7,0.2c-0.9,0.1-1.8,0.1-2.7,0.2c-0.9,0.1-1.7,0.2-2.6,0.3
			c-0.9,0.1-1.8,0.2-2.7,0.3l-0.1-1.3c1.1-0.2,1.8-0.3,2.1-0.5c0.3-0.2,0.5-0.5,0.4-0.9c0-0.2-0.1-0.5-0.2-1
			c-0.1-0.4-0.3-0.8-0.6-1.3l-0.8-1.6l-6.9,0.6L240,684c-0.1,0.5-0.2,0.9-0.3,1.3c-0.1,0.4-0.1,0.8-0.1,1c0.1,0.6,0.3,1,0.7,1.2
			c0.4,0.2,1.1,0.3,2,0.2l0.1,1.3c-0.6,0-1.3,0.1-1.9,0.1c-0.6,0-1.3,0.1-1.9,0.1c-0.6,0.1-1.2,0.1-1.8,0.2
			C236.2,689.6,235.6,689.7,235,689.8L235,689.8z M241,681.2l5.7-0.5l-3.3-6.9L241,681.2L241,681.2z M259.9,687.1
			c0.1,0,0.2,0,0.4-0.1c0.2,0,0.3,0,0.4,0c0.1,0,0.2,0,0.4-0.1c0.2,0,0.3-0.1,0.4-0.1c1.4-0.3,2.8-0.5,4-0.7
			c1.3-0.2,2.4-0.4,3.5-0.6c1.6-0.3,3.1-0.5,4.7-0.7c1.6-0.2,3.1-0.4,4.6-0.7l-0.8-6.2l-1.3,0.2c-0.1,1.6-0.5,2.9-1.3,3.8
			c-0.8,0.9-2.1,1.5-3.8,1.8c-1.5,0.2-2.5,0.1-3.2-0.4c-0.6-0.4-1.1-1.5-1.3-3.1l-1.8-11.2c-0.2-1-0.1-1.8,0.2-2.2
			c0.3-0.4,1-0.7,2.1-0.9l0.2,0l-0.2-1.2c-1.2,0.2-2.2,0.4-3.1,0.6c-0.9,0.2-1.6,0.3-2.2,0.4c-0.8,0.1-1.6,0.2-2.5,0.4
			c-0.9,0.1-1.8,0.3-2.8,0.4l0.2,1.2l0.1,0c1-0.2,1.7-0.1,2.2,0.2c0.4,0.3,0.7,0.9,0.9,1.8l2,12.6c0.2,1.2,0.1,2-0.2,2.5
			c-0.3,0.5-0.9,0.8-1.9,1l-0.2,0L259.9,687.1L259.9,687.1z M281.7,683.4l-0.2-1.2l0.2-0.1c1-0.2,1.6-0.5,1.9-1
			c0.3-0.5,0.3-1.3,0.1-2.5l-2.2-12.6c-0.2-0.9-0.5-1.5-0.9-1.8c-0.4-0.3-1.2-0.3-2.2-0.2l-0.1,0l-0.2-1.2c1-0.1,1.9-0.3,2.8-0.4
			c0.9-0.2,1.7-0.3,2.5-0.4c0.5-0.1,1.3-0.2,2.2-0.4c0.9-0.2,1.9-0.4,3.1-0.6l0.2,1.2l-0.2,0c-1.1,0.2-1.8,0.5-2.1,0.9
			c-0.3,0.4-0.4,1.1-0.2,2.2l2,11.2c0.3,1.6,0.7,2.6,1.4,3.1c0.6,0.5,1.7,0.6,3.2,0.3c1.7-0.3,3-0.9,3.8-1.8
			c0.8-0.9,1.2-2.2,1.3-3.8l1.2-0.2l0.9,6.2c-1.5,0.2-3.1,0.5-4.6,0.7c-1.6,0.3-3.1,0.5-4.7,0.8c-1.1,0.2-2.3,0.4-3.5,0.6
			c-1.3,0.2-2.6,0.5-4,0.8c-0.1,0-0.2,0-0.4,0.1c-0.2,0-0.3,0.1-0.4,0.1c-0.1,0-0.2,0-0.4,0C281.9,683.3,281.8,683.4,281.7,683.4
			L281.7,683.4z M310,678.2l-0.2-1.2c1.2-0.3,2-0.6,2.3-1.1c0.3-0.5,0.4-1.4,0.1-2.9l-2-11.7c-0.2-1.2-0.6-1.9-1-2.3
			c-0.5-0.3-1.3-0.4-2.5-0.2l-0.2-1.2c1.1-0.2,2.4-0.3,3.8-0.6c1.4-0.2,3.1-0.5,5.1-0.9c1.6-0.3,3.1-0.5,4.4-0.8
			c1.3-0.3,2.5-0.5,3.7-0.7l1.1,5.3l-1.3,0.2c-0.5-1.4-1.2-2.3-2.2-2.7c-1-0.4-2.7-0.4-5,0c-0.7,0.1-1.1,0.3-1.3,0.5
			c-0.2,0.2-0.2,0.5-0.2,0.9l1.2,6.7l0.5-0.1c1.1-0.2,2-0.6,2.5-1.3c0.5-0.6,0.7-1.6,0.7-2.8l1.3-0.2c0,0.1,0,0.3,0.1,0.5
			c0.3,1.8,0.5,3.1,0.6,3.9c0.1,0.7,0.2,1.3,0.4,2c0.1,0.7,0.3,1.3,0.4,2l-1.3,0.2c-0.4-1.3-0.9-2.1-1.6-2.6
			c-0.6-0.4-1.5-0.5-2.7-0.3c-0.1,0-0.2,0-0.3,0.1c-0.1,0-0.2,0-0.3,0.1l0.9,5.3c0.3,1.5,0.6,2.3,1.1,2.6c0.5,0.3,1.4,0.3,2.7,0.2
			l0.2,1.2c-0.5,0-1.1,0.1-1.7,0.2c-0.6,0.1-1.4,0.2-2.2,0.4c-2.1,0.4-3.6,0.6-4.7,0.9C311.1,677.9,310.4,678.1,310,678.2L310,678.2
			z M334.4,663.4c0.4,3,1.3,5.2,2.5,6.6c1.3,1.4,2.9,1.9,5,1.7c2-0.3,3.4-1.2,4.2-2.9c0.8-1.6,0.9-4,0.5-7.2c-0.4-3-1.3-5.3-2.6-6.7
			c-1.3-1.4-2.9-2-5-1.7c-2,0.3-3.4,1.3-4.2,2.9C334.1,657.8,333.9,660.2,334.4,663.4L334.4,663.4z M341.8,673.3
			c-3.4,0.5-6.3-0.1-8.7-1.8c-2.4-1.7-3.8-4.1-4.2-7.3c-0.4-3.2,0.3-5.9,2.1-8.2c1.9-2.3,4.6-3.7,8-4.2c1.8-0.2,3.4-0.2,4.8,0.1
			c1.5,0.3,2.8,0.9,4.1,1.8c1.2,0.9,2.1,1.9,2.9,3.1c0.7,1.2,1.2,2.6,1.4,4.1c0.2,1.6,0.1,3-0.2,4.4c-0.4,1.4-1,2.6-2,3.8
			c-1,1.2-2.1,2.1-3.5,2.8C345.1,672.5,343.5,673,341.8,673.3L341.8,673.3z M362.1,659.4c0.2,3,1,5.3,2.2,6.7
			c1.2,1.5,2.8,2.1,4.9,1.9c2-0.2,3.5-1.1,4.3-2.7c0.8-1.6,1.1-4,0.8-7.2c-0.3-3.1-1-5.3-2.2-6.8c-1.2-1.5-2.8-2.1-4.9-2
			c-2.1,0.2-3.5,1.1-4.3,2.7C362.1,653.7,361.8,656.1,362.1,659.4L362.1,659.4z M369,669.6c-3.4,0.3-6.3-0.5-8.6-2.3
			c-2.3-1.8-3.6-4.3-3.9-7.5c-0.3-3.2,0.6-5.9,2.6-8.1c2-2.2,4.7-3.5,8.2-3.8c1.8-0.1,3.4,0,4.8,0.3c1.4,0.4,2.8,1.1,4,2
			c1.1,0.9,2,2,2.7,3.2c0.6,1.2,1,2.6,1.2,4.2c0.1,1.6,0,3.1-0.5,4.4c-0.4,1.3-1.2,2.6-2.2,3.7c-1,1.1-2.2,2-3.6,2.7
			C372.3,669.1,370.7,669.4,369,669.6L369,669.6z M392.2,663.4l-0.5-15.3c-0.2,0-0.3,0-0.5,0c-0.2,0-0.4,0-0.8,0
			c-1.7,0.1-3,0.4-3.7,1.1c-0.8,0.7-1.2,1.8-1.4,3.4l-1.2,0l0-6c1.1,0,2.3,0,3.5,0c1.3,0,2.8-0.1,4.5-0.1c2.5-0.1,4.7-0.2,6.6-0.3
			c1.9-0.1,3.7-0.2,5.3-0.3l0.5,5.9l-1.2,0c-0.3-1.6-0.9-2.6-1.7-3.3c-0.8-0.6-2-0.9-3.6-0.8c-0.3,0-0.7,0-1.4,0.1l-0.1,0l0.5,15.3
			c0,1,0.3,1.6,0.7,2c0.4,0.3,1.3,0.5,2.6,0.5l0,1.2c-0.8,0-1.7,0-2.5,0c-0.9,0-1.7,0-2.7,0.1c-0.9,0-1.8,0.1-2.8,0.1
			c-1,0.1-2,0.1-3.1,0.2l0-1.3c1.2-0.1,2-0.3,2.4-0.7C392.1,665,392.2,664.4,392.2,663.4L392.2,663.4z M416.7,654.9
			c0.1,0,0.2,0,0.4,0c0.2,0,0.3,0,0.4,0c1.5,0,2.6-0.3,3.2-0.9c0.6-0.6,1-1.7,1-3.1c0-1.2-0.3-2.1-0.9-2.7c-0.6-0.6-1.6-0.9-2.8-0.9
			c-0.5,0-0.8,0-0.9,0.1c-0.1,0.1-0.2,0.2-0.2,0.5L416.7,654.9L416.7,654.9z M416.6,656.4l-0.1,5.2c0,1.3,0.1,2.2,0.5,2.8
			c0.3,0.5,1,0.8,1.9,0.8c1.2,0,2-0.3,2.6-1c0.6-0.7,0.9-1.8,0.9-3.3c0-1.5-0.4-2.6-1.1-3.3c-0.8-0.7-2-1.1-3.7-1.1
			c-0.3,0-0.5,0-0.6,0C416.9,656.4,416.8,656.4,416.6,656.4L416.6,656.4z M408.7,666.6l0-1.3c1.2,0,1.9-0.2,2.3-0.6
			c0.4-0.4,0.6-1.1,0.6-2.2l0.2-12.8c0-1.1-0.2-1.8-0.5-2.1c-0.4-0.4-1.2-0.5-2.3-0.6l0-1.2c0.8,0.1,1.5,0.1,2.2,0.2
			c0.6,0,1.2,0.1,1.7,0.1c0.7,0,1.6,0,2.8,0c1.2,0,2-0.1,2.6,0c2.9,0,5,0.5,6.4,1.3c1.4,0.9,2.1,2.1,2,3.8c0,1.3-0.5,2.3-1.5,3.1
			c-1,0.8-2.4,1.3-4.2,1.5c2.3,0.3,4.1,1,5.2,1.9c1.1,1,1.7,2.2,1.7,3.8c0,1.8-0.8,3.2-2.4,4.2c-1.6,0.9-3.8,1.4-6.9,1.3
			c-0.5,0-1.4-0.1-2.7-0.1c-1.3-0.1-2.3-0.1-3-0.1c-0.6,0-1.2,0-1.9,0C410.4,666.5,409.6,666.6,408.7,666.6L408.7,666.6z
			 M431.2,667.2l0.1-1.2c0.7,0,1.4-0.2,1.9-0.5c0.5-0.3,1-0.9,1.4-1.6l9-16.8l1.6,0.1l5.4,18c0.3,0.9,0.6,1.6,1,2
			c0.4,0.4,1,0.7,1.8,0.8l-0.1,1.3c-0.9-0.1-1.8-0.2-2.7-0.3c-0.9-0.1-1.8-0.2-2.6-0.2c-0.9-0.1-1.7-0.1-2.6-0.2
			c-0.9-0.1-1.8-0.1-2.7-0.2l0.1-1.3c1.1,0,1.8,0,2.2-0.1c0.3-0.2,0.5-0.4,0.6-0.9c0-0.2,0-0.6-0.1-1c-0.1-0.4-0.2-0.9-0.3-1.4
			l-0.5-1.7l-6.9-0.6l-0.6,1.1c-0.2,0.4-0.4,0.9-0.5,1.3c-0.2,0.4-0.2,0.8-0.3,1c0,0.6,0.1,1,0.5,1.3c0.4,0.3,1,0.5,1.9,0.6
			l-0.1,1.3c-0.6-0.1-1.3-0.2-1.9-0.2c-0.6-0.1-1.2-0.1-1.9-0.2c-0.6-0.1-1.2-0.1-1.8-0.1C432.4,667.2,431.8,667.2,431.2,667.2
			L431.2,667.2z M438.5,659.8l5.7,0.5l-2.1-7.4L438.5,659.8L438.5,659.8z M455.7,669.8l0.2-1.3l0.2,0c1,0.1,1.7,0,2.1-0.4
			c0.4-0.4,0.7-1.2,0.9-2.4l1.6-12.7c0.1-0.9,0-1.6-0.3-2c-0.3-0.4-1-0.6-2-0.8l-0.2,0l0.2-1.2c1,0.2,1.9,0.3,2.8,0.4
			c0.9,0.1,1.7,0.2,2.5,0.3c0.6,0.1,1.3,0.2,2.2,0.2c0.9,0.1,1.9,0.2,3.1,0.3l-0.2,1.2l-0.2,0c-1.1-0.1-1.8,0-2.3,0.3
			c-0.4,0.3-0.7,1-0.8,2l-1.4,11.2c-0.2,1.6-0.1,2.7,0.4,3.3c0.5,0.6,1.4,1,3,1.2c1.7,0.2,3.1,0,4.1-0.6c1-0.6,1.8-1.7,2.3-3.3
			l1.2,0.2l-0.9,6.1c-1.5-0.2-3.1-0.4-4.6-0.6c-1.6-0.2-3.1-0.4-4.7-0.6c-1.1-0.1-2.3-0.3-3.6-0.4c-1.3-0.1-2.6-0.3-4.1-0.4
			c-0.1,0-0.2,0-0.4,0c-0.2,0-0.3,0-0.4,0c-0.1,0-0.2,0-0.4-0.1C455.9,669.8,455.8,669.8,455.7,669.8L455.7,669.8z M477.5,672.9
			l0.2-1.3l0.2,0c1,0.2,1.7,0.1,2.1-0.3c0.4-0.4,0.7-1.1,0.9-2.3l2-12.6c0.2-0.9,0.1-1.6-0.3-2c-0.3-0.4-1-0.7-2-0.9l-0.2,0l0.2-1.2
			c1,0.2,1.9,0.3,2.8,0.5c0.9,0.2,1.7,0.3,2.5,0.4c0.6,0.1,1.3,0.2,2.2,0.3c0.9,0.1,2,0.3,3.1,0.4l-0.2,1.2l-0.2,0
			c-1.1-0.2-1.8-0.1-2.3,0.2c-0.4,0.3-0.7,1-0.9,2l-1.8,11.2c-0.2,1.6-0.2,2.7,0.3,3.3c0.4,0.7,1.4,1.1,2.9,1.3
			c1.7,0.3,3.1,0.1,4.2-0.5c1.1-0.6,1.9-1.7,2.4-3.2l1.2,0.2l-1.1,6.1c-1.5-0.3-3.1-0.6-4.6-0.8c-1.6-0.3-3.1-0.5-4.7-0.8
			c-1.1-0.2-2.3-0.4-3.5-0.6c-1.3-0.2-2.6-0.4-4.1-0.6c-0.1,0-0.2,0-0.4,0c-0.2,0-0.3,0-0.4,0c-0.1,0-0.2,0-0.4-0.1
			C477.8,673,477.6,672.9,477.5,672.9L477.5,672.9z M525.2,673.8l1.3,0.2l-1.3,7.1l-1.3-0.2l-0.4-1.9c-1.2,0.6-2.4,1-3.5,1.2
			c-1.2,0.2-2.4,0.2-3.6,0c-3.1-0.6-5.4-2-7-4.2c-1.6-2.3-2.1-4.9-1.6-8c0.2-1.3,0.6-2.5,1.1-3.5c0.5-1.1,1.2-2,2.1-2.8
			c1.3-1.3,2.8-2.1,4.4-2.6c1.6-0.5,3.3-0.5,5.1-0.2c1.2,0.2,2.2,0.5,3.1,1c0.9,0.5,1.8,1.1,2.5,1.9l0.8-1.6l1.3,0.2l-1,6.6
			l-1.3-0.2c-0.1-1.8-0.6-3.2-1.5-4.3c-0.8-1.1-1.9-1.8-3.3-2c-1.9-0.3-3.6,0.2-5,1.7c-1.4,1.4-2.4,3.6-2.9,6.4
			c-0.5,2.8-0.3,5.1,0.5,6.8c0.8,1.8,2.2,2.8,4.2,3.2c1.5,0.3,2.9,0,4.1-0.8C523.5,676.9,524.5,675.6,525.2,673.8L525.2,673.8z
			 M529.6,682.2l0.2-1.3l0.2,0c1,0.2,1.7,0,2.1-0.3c0.4-0.4,0.7-1.1,0.9-2.4l2-12.6c0.1-0.9,0-1.6-0.3-2c-0.3-0.4-1-0.7-2-0.8
			l-0.2,0l0.2-1.2c1,0.2,1.9,0.4,2.8,0.5c0.9,0.2,1.7,0.3,2.5,0.4c0.6,0.1,1.3,0.2,2.2,0.3c0.9,0.1,1.9,0.3,3.1,0.4l-0.2,1.2l-0.2,0
			c-1.1-0.2-1.8-0.1-2.3,0.2c-0.4,0.3-0.7,0.9-0.9,2l-1.8,11.2c-0.2,1.6-0.2,2.7,0.3,3.3c0.5,0.6,1.4,1.1,2.9,1.3
			c1.7,0.3,3.1,0.1,4.2-0.5c1-0.6,1.9-1.6,2.4-3.2l1.3,0.2l-1.1,6.1c-1.5-0.3-3-0.6-4.6-0.8c-1.6-0.2-3.1-0.5-4.7-0.8
			c-1.1-0.2-2.3-0.4-3.5-0.5c-1.3-0.2-2.6-0.4-4.1-0.6c-0.1,0-0.2,0-0.4-0.1c-0.2,0-0.3,0-0.4,0c-0.1,0-0.2,0-0.4-0.1
			C529.8,682.2,529.7,682.2,529.6,682.2L529.6,682.2z M553.2,677.6l0.7-7.5c0.1-1.5,0-2.4-0.3-2.9c-0.3-0.5-1.1-0.8-2.2-0.9l0.1-1.2
			c0.9,0.1,1.8,0.2,2.7,0.3c0.9,0.1,1.7,0.2,2.5,0.3c0.9,0.1,1.9,0.1,2.8,0.2c0.9,0.1,1.8,0.1,2.7,0.1l-0.1,1.2
			c-1.2,0-2,0.2-2.5,0.6c-0.4,0.4-0.7,1.2-0.8,2.6l-0.7,8c-0.2,2.4,0.1,4.1,0.8,5.1c0.7,1,2,1.7,4,1.8c1.2,0.1,2.2,0,3.1-0.3
			c0.9-0.3,1.6-0.7,2.1-1.3c0.4-0.5,0.7-1.1,1-1.9c0.2-0.8,0.4-1.9,0.5-3.3l0.6-7.1c0.1-1.2,0-2.1-0.4-2.7c-0.4-0.5-1.1-0.9-2.2-1.1
			l0.1-1.1c0.6,0.1,1.2,0.1,1.8,0.2c0.6,0.1,1.2,0.1,1.9,0.2c0.8,0.1,1.4,0.1,2.1,0.2c0.6,0,1.2,0.1,1.6,0.1l-0.1,1.2
			c-1.1,0-1.8,0.3-2.3,0.7c-0.4,0.5-0.7,1.3-0.8,2.5l-0.6,7.1c-0.1,1.6-0.4,2.9-0.7,3.9c-0.3,0.9-0.7,1.7-1.3,2.4
			c-0.8,1-1.8,1.6-3.2,2c-1.3,0.4-2.9,0.6-4.6,0.4c-1.7-0.2-3.1-0.5-4.2-1c-1.1-0.5-2.1-1.2-2.8-2.1c-0.6-0.7-0.9-1.6-1.1-2.6
			C553.1,680.6,553.1,679.3,553.2,677.6L553.2,677.6z M584.5,676.4c0.1,0,0.2,0,0.4,0c0.2,0,0.3,0,0.3,0c1.5,0,2.6-0.3,3.2-0.9
			c0.6-0.6,1-1.7,1-3.1c0-1.2-0.3-2.1-0.9-2.7c-0.6-0.6-1.6-0.9-2.9-0.9c-0.5,0-0.8,0-0.9,0.1c-0.2,0.1-0.2,0.2-0.2,0.5V676.4
			L584.5,676.4z M584.5,677.9v5.2c0,1.3,0.2,2.2,0.5,2.8c0.4,0.5,1,0.8,1.9,0.8c1.2,0,2-0.4,2.6-1.1c0.6-0.7,0.9-1.8,0.9-3.3
			c0-1.5-0.4-2.6-1.2-3.3c-0.8-0.7-2-1.1-3.7-1.1c-0.3,0-0.5,0-0.6,0C584.8,677.9,584.7,677.9,584.5,677.9L584.5,677.9z
			 M576.8,688.2v-1.3c1.1,0,1.9-0.2,2.3-0.6c0.4-0.4,0.6-1.1,0.6-2.2v-12.8c0-1.1-0.2-1.8-0.6-2.1c-0.4-0.3-1.2-0.5-2.3-0.5v-1.3
			c0.8,0.1,1.5,0.1,2.2,0.1c0.6,0,1.2,0,1.7,0c0.7,0,1.6,0,2.8-0.1c1.2-0.1,2-0.1,2.6-0.1c2.8,0,5,0.4,6.4,1.2
			c1.4,0.8,2.1,2.1,2.1,3.7c0,1.3-0.5,2.3-1.4,3.1c-0.9,0.8-2.4,1.3-4.2,1.6c2.3,0.3,4.1,0.9,5.2,1.8c1.2,0.9,1.7,2.2,1.7,3.8
			c0,1.8-0.8,3.2-2.3,4.2c-1.5,0.9-3.8,1.4-6.8,1.4c-0.5,0-1.4,0-2.7-0.1c-1.3,0-2.3-0.1-3-0.1c-0.6,0-1.2,0-1.9,0
			C578.5,688.1,577.7,688.2,576.8,688.2z"/>
		
			<radialGradient id="SVGID_9_" cx="404.8578" cy="667.2766" r="136.7888" gradientTransform="matrix(0.9972 0 0 0.9972 1.1396 1.1396)" gradientUnits="userSpaceOnUse">
			<stop  offset="0" style="stop-color:#FBEA00"/>
			<stop  offset="1" style="stop-color:#F9BE00"/>
		</radialGradient>
		<path class="st22" d="M214.6,687.5l11-18l-3.1,0c-2.1,0-3.6,0.4-4.4,1c-0.8,0.6-1.3,1.7-1.6,3.2l-1.2,0l-0.1-5.6l15.9-0.3l0,1.3
			l-11,17.9l4.1-0.1c1.8,0,3.2-0.4,4.2-1.2c0.9-0.7,1.5-2,1.8-3.6l1.2,0l-0.2,6.3l-16.6,0.3L214.6,687.5L214.6,687.5z M234.3,688.3
			l-0.1-1.3c0.7-0.1,1.3-0.4,1.8-0.8c0.5-0.4,0.8-1.1,1.1-1.8l5.9-18.2l1.5-0.1l8.5,16.8c0.4,0.9,0.9,1.5,1.4,1.7
			c0.5,0.3,1.1,0.5,2,0.4l0.1,1.3c-0.9,0-1.8,0.1-2.7,0.2c-0.9,0.1-1.8,0.1-2.7,0.2c-0.9,0.1-1.7,0.2-2.6,0.2
			c-0.9,0.1-1.8,0.2-2.7,0.3l-0.1-1.3c1.1-0.2,1.8-0.3,2.1-0.5c0.3-0.2,0.5-0.5,0.4-0.9c0-0.2-0.1-0.6-0.2-1
			c-0.2-0.4-0.3-0.9-0.6-1.3l-0.8-1.6l-6.9,0.6l-0.4,1.2c-0.1,0.5-0.2,0.9-0.3,1.3c-0.1,0.4-0.1,0.8-0.1,1c0.1,0.6,0.3,1,0.7,1.2
			c0.5,0.2,1.1,0.3,2,0.2l0.1,1.3c-0.7,0-1.3,0-1.9,0.1c-0.6,0-1.3,0.1-1.9,0.1c-0.6,0.1-1.2,0.1-1.8,0.2
			C235.5,688.1,234.9,688.2,234.3,688.3L234.3,688.3z M240.2,679.8l5.7-0.5l-3.3-6.9L240.2,679.8L240.2,679.8z M259.2,685.7
			c0.1,0,0.2,0,0.4-0.1c0.2,0,0.3,0,0.4,0c0.1,0,0.2,0,0.4-0.1c0.2,0,0.3-0.1,0.4-0.1c1.4-0.3,2.8-0.5,4-0.7
			c1.3-0.2,2.4-0.4,3.5-0.6c1.6-0.3,3.2-0.5,4.7-0.7c1.6-0.2,3.1-0.4,4.6-0.7l-0.9-6.2l-1.3,0.2c-0.1,1.6-0.5,2.9-1.3,3.8
			c-0.8,0.9-2.1,1.5-3.8,1.7c-1.5,0.2-2.6,0.1-3.2-0.4c-0.6-0.5-1.1-1.5-1.3-3.1l-1.8-11.2c-0.2-1-0.1-1.7,0.2-2.2
			c0.3-0.4,1-0.7,2.1-0.9l0.2,0l-0.2-1.2c-1.2,0.2-2.2,0.4-3.1,0.6c-0.9,0.2-1.6,0.3-2.2,0.4c-0.8,0.1-1.6,0.2-2.5,0.3
			c-0.9,0.1-1.8,0.3-2.8,0.4l0.2,1.2l0.2,0c1-0.2,1.7-0.1,2.2,0.2c0.4,0.3,0.7,0.9,0.9,1.8l2,12.6c0.2,1.2,0.1,2-0.2,2.5
			c-0.3,0.5-0.9,0.8-1.9,1l-0.2,0L259.2,685.7L259.2,685.7z M281,681.9l-0.2-1.2l0.2,0c1-0.2,1.6-0.5,1.9-1c0.3-0.5,0.3-1.3,0.1-2.5
			l-2.2-12.6c-0.2-0.9-0.5-1.5-0.9-1.8c-0.4-0.3-1.2-0.3-2.2-0.2l-0.2,0l-0.2-1.2c1-0.1,1.9-0.3,2.8-0.4c0.9-0.1,1.7-0.3,2.5-0.4
			c0.6-0.1,1.3-0.2,2.2-0.4c0.9-0.2,1.9-0.4,3.1-0.6l0.2,1.2l-0.2,0c-1.1,0.2-1.8,0.5-2.1,0.9c-0.3,0.4-0.4,1.1-0.2,2.2l2,11.2
			c0.3,1.6,0.7,2.6,1.4,3.1c0.6,0.5,1.7,0.5,3.2,0.3c1.7-0.3,3-0.9,3.8-1.8c0.8-0.9,1.2-2.2,1.3-3.8l1.3-0.2l0.9,6.1
			c-1.5,0.2-3.1,0.5-4.6,0.8c-1.6,0.3-3.1,0.5-4.7,0.8c-1.1,0.2-2.3,0.4-3.5,0.6c-1.3,0.2-2.6,0.5-4,0.8c-0.1,0-0.2,0-0.4,0.1
			c-0.2,0-0.3,0.1-0.4,0.1c-0.1,0-0.2,0-0.4,0.1C281.2,681.9,281.1,681.9,281,681.9L281,681.9z M309.3,676.7l-0.2-1.3
			c1.2-0.2,2-0.6,2.3-1.1c0.3-0.5,0.4-1.4,0.1-2.8l-2.1-11.7c-0.2-1.2-0.5-1.9-1-2.3c-0.5-0.3-1.3-0.4-2.5-0.2l-0.2-1.3
			c1.1-0.1,2.4-0.3,3.8-0.5c1.4-0.2,3.1-0.5,5.1-0.9c1.6-0.3,3.1-0.6,4.4-0.8c1.3-0.3,2.5-0.5,3.7-0.7l1.1,5.3l-1.3,0.2
			c-0.5-1.4-1.2-2.3-2.2-2.7c-1-0.4-2.7-0.4-5,0c-0.7,0.1-1.1,0.3-1.3,0.4c-0.2,0.2-0.2,0.5-0.2,1l1.2,6.7l0.5-0.1
			c1.2-0.2,2-0.6,2.5-1.3c0.5-0.6,0.7-1.6,0.7-2.8l1.3-0.2c0,0.1,0,0.2,0.1,0.5c0.3,1.8,0.5,3.1,0.6,3.8c0.1,0.7,0.2,1.3,0.4,2
			c0.1,0.7,0.2,1.3,0.4,2l-1.3,0.2c-0.4-1.3-0.9-2.1-1.6-2.6c-0.6-0.4-1.5-0.5-2.7-0.3c-0.1,0-0.2,0-0.3,0.1c-0.1,0-0.2,0.1-0.3,0.1
			l0.9,5.3c0.3,1.5,0.6,2.3,1.1,2.6c0.5,0.3,1.4,0.3,2.7,0.2l0.2,1.2c-0.5,0-1.1,0.1-1.7,0.2c-0.6,0.1-1.4,0.2-2.2,0.3
			c-2.1,0.4-3.6,0.7-4.7,0.9C310.4,676.4,309.7,676.6,309.3,676.7L309.3,676.7z M333.7,662c0.4,3,1.3,5.2,2.6,6.6
			c1.3,1.4,2.9,2,5,1.7c2-0.3,3.4-1.2,4.2-2.9c0.7-1.6,0.9-4,0.5-7.2c-0.4-3-1.3-5.3-2.5-6.7c-1.3-1.4-3-2-5-1.7
			c-2,0.3-3.5,1.3-4.2,2.9C333.4,656.3,333.2,658.7,333.7,662L333.7,662z M341,671.8c-3.4,0.5-6.3-0.1-8.7-1.8
			c-2.4-1.7-3.8-4.1-4.2-7.3c-0.5-3.2,0.2-5.9,2.1-8.2c1.9-2.3,4.5-3.7,8-4.2c1.7-0.3,3.4-0.2,4.8,0.1c1.5,0.3,2.8,0.9,4.1,1.8
			c1.2,0.9,2.1,1.9,2.8,3.1c0.7,1.2,1.2,2.6,1.4,4.1c0.2,1.6,0.1,3-0.2,4.4c-0.4,1.4-1,2.6-2,3.8c-1,1.2-2.1,2.1-3.5,2.8
			C344.3,671.1,342.8,671.6,341,671.8L341,671.8z M361.4,657.9c0.3,3,1,5.3,2.2,6.7c1.2,1.5,2.8,2.1,4.9,1.9c2-0.2,3.5-1.1,4.3-2.7
			c0.8-1.6,1.1-4,0.8-7.2c-0.3-3.1-1-5.3-2.2-6.8c-1.2-1.5-2.8-2.1-4.9-2c-2,0.2-3.5,1.1-4.3,2.7
			C361.4,652.3,361.1,654.7,361.4,657.9L361.4,657.9z M368.2,668.1c-3.4,0.3-6.3-0.5-8.6-2.3c-2.3-1.8-3.6-4.3-3.8-7.5
			c-0.3-3.2,0.6-5.9,2.6-8.1c2-2.2,4.7-3.5,8.2-3.8c1.8-0.2,3.4,0,4.8,0.4c1.4,0.4,2.8,1.1,4,2c1.1,0.9,2,2,2.7,3.2
			c0.6,1.2,1,2.6,1.2,4.2c0.1,1.6,0,3-0.5,4.4c-0.4,1.3-1.2,2.6-2.2,3.7c-1,1.1-2.2,2-3.6,2.6C371.6,667.6,370,668,368.2,668.1
			L368.2,668.1z M391.5,662l-0.5-15.3c-0.2,0-0.3,0-0.5,0c-0.2,0-0.4,0-0.8,0c-1.7,0.1-3,0.4-3.7,1.1c-0.8,0.7-1.2,1.8-1.4,3.4
			l-1.2,0l0-6c1.1,0,2.3,0,3.5,0c1.3,0,2.8-0.1,4.5-0.1c2.5-0.1,4.7-0.2,6.6-0.3c1.9-0.1,3.7-0.2,5.3-0.3l0.5,5.9l-1.2,0
			c-0.3-1.6-0.9-2.6-1.7-3.3c-0.8-0.6-2-0.9-3.6-0.9c-0.3,0-0.7,0-1.4,0.1l-0.1,0l0.5,15.3c0,1,0.3,1.6,0.7,2
			c0.4,0.3,1.3,0.5,2.6,0.5l0,1.3c-0.8,0-1.7,0-2.5,0c-0.9,0-1.7,0-2.7,0.1c-0.9,0-1.8,0.1-2.8,0.1c-1,0-2,0.1-3.1,0.2l-0.1-1.3
			c1.2-0.1,2-0.3,2.4-0.7C391.3,663.6,391.5,662.9,391.5,662L391.5,662z M415.9,653.5c0.1,0,0.2,0,0.4,0c0.2,0,0.3,0,0.4,0
			c1.5,0,2.6-0.3,3.2-0.9c0.6-0.6,1-1.7,1-3.1c0-1.2-0.3-2.1-0.9-2.7c-0.6-0.6-1.6-0.9-2.8-0.9c-0.5,0-0.8,0-0.9,0.1
			c-0.2,0.1-0.2,0.2-0.2,0.5L415.9,653.5L415.9,653.5z M415.9,655l-0.1,5.2c0,1.3,0.1,2.2,0.5,2.8c0.3,0.5,1,0.8,1.9,0.8
			c1.2,0,2-0.3,2.6-1.1c0.6-0.7,0.9-1.8,0.9-3.3c0-1.5-0.3-2.6-1.1-3.3c-0.8-0.7-2-1.1-3.7-1.1c-0.3,0-0.5,0-0.6,0
			C416.2,654.9,416,655,415.9,655L415.9,655z M408,665.1l0-1.3c1.1,0,1.9-0.2,2.3-0.5c0.4-0.4,0.6-1.1,0.6-2.2l0.2-12.8
			c0-1.1-0.2-1.8-0.5-2.1c-0.4-0.4-1.2-0.5-2.3-0.6l0-1.3c0.8,0.1,1.5,0.1,2.2,0.2c0.6,0,1.2,0.1,1.7,0.1c0.7,0,1.6,0,2.8,0
			c1.2,0,2,0,2.6,0c2.9,0,5,0.5,6.4,1.3c1.4,0.8,2.1,2.1,2,3.8c0,1.3-0.5,2.3-1.5,3.1c-1,0.8-2.4,1.3-4.2,1.5c2.3,0.3,4.1,1,5.2,1.9
			c1.1,0.9,1.7,2.2,1.7,3.8c0,1.8-0.8,3.2-2.4,4.2c-1.6,0.9-3.8,1.4-6.9,1.3c-0.5,0-1.4,0-2.7-0.1c-1.3-0.1-2.3-0.1-3-0.1
			c-0.6,0-1.2,0-1.9,0C409.6,665.1,408.9,665.1,408,665.1L408,665.1z M430.4,665.7l0.1-1.3c0.7,0,1.4-0.2,1.9-0.5
			c0.5-0.3,1-0.9,1.4-1.6l8.9-16.8l1.6,0.1l5.4,18c0.3,0.9,0.6,1.6,1.1,2c0.4,0.4,1,0.7,1.8,0.8l-0.1,1.3c-0.9-0.1-1.8-0.2-2.7-0.3
			c-0.9-0.1-1.8-0.2-2.7-0.2c-0.9-0.1-1.7-0.2-2.6-0.2c-0.9-0.1-1.8-0.1-2.7-0.2l0.1-1.3c1.1,0,1.8,0,2.2-0.1
			c0.3-0.1,0.5-0.4,0.6-0.8c0-0.2,0-0.6-0.1-1c-0.1-0.4-0.2-0.9-0.3-1.4l-0.5-1.7l-6.9-0.6l-0.6,1.2c-0.2,0.4-0.4,0.8-0.6,1.3
			c-0.2,0.4-0.2,0.7-0.3,1c-0.1,0.6,0.1,1,0.5,1.3c0.4,0.3,1,0.5,1.9,0.6l-0.1,1.3c-0.6-0.1-1.3-0.2-1.9-0.2
			c-0.6-0.1-1.3-0.1-1.9-0.2c-0.6-0.1-1.2-0.1-1.8-0.1C431.6,665.7,431,665.7,430.4,665.7L430.4,665.7z M437.8,658.3l5.7,0.5
			l-2.1-7.4L437.8,658.3L437.8,658.3z M455,668.3l0.2-1.3l0.2,0c1,0.1,1.7,0,2.1-0.4c0.4-0.4,0.7-1.2,0.9-2.4l1.6-12.7
			c0.1-0.9,0-1.6-0.3-2c-0.3-0.4-1-0.7-2-0.8l-0.1,0l0.2-1.2c1,0.2,1.9,0.3,2.8,0.4c0.9,0.1,1.7,0.2,2.5,0.3
			c0.6,0.1,1.3,0.2,2.2,0.2c0.9,0.1,2,0.2,3.1,0.3l-0.2,1.2l-0.2,0c-1.1-0.1-1.9,0-2.3,0.3c-0.4,0.3-0.7,1-0.8,2l-1.4,11.2
			c-0.2,1.6-0.1,2.7,0.4,3.3c0.5,0.6,1.5,1,3,1.2c1.7,0.2,3.1,0,4.1-0.6c1-0.6,1.8-1.7,2.3-3.3l1.3,0.2l-0.9,6.2
			c-1.5-0.2-3.1-0.4-4.6-0.6c-1.6-0.2-3.1-0.4-4.7-0.6c-1.1-0.1-2.3-0.3-3.5-0.4c-1.3-0.2-2.6-0.3-4.1-0.4c-0.1,0-0.2,0-0.4,0
			c-0.2,0-0.3,0-0.4,0c-0.1,0-0.2,0-0.4-0.1C455.2,668.4,455.1,668.3,455,668.3L455,668.3z M476.8,671.4l0.2-1.3l0.2,0
			c1,0.2,1.7,0,2.1-0.3c0.4-0.4,0.7-1.1,0.9-2.3l2-12.6c0.1-0.9,0.1-1.6-0.3-2c-0.3-0.4-1-0.7-2-0.9l-0.2,0l0.2-1.2
			c1,0.2,1.9,0.4,2.8,0.5c0.9,0.2,1.7,0.3,2.5,0.4c0.6,0.1,1.3,0.2,2.2,0.3c0.9,0.1,1.9,0.3,3.1,0.4l-0.2,1.2l-0.2,0
			c-1.1-0.2-1.8-0.1-2.3,0.2c-0.4,0.3-0.7,0.9-0.9,2l-1.8,11.2c-0.2,1.6-0.2,2.7,0.3,3.3c0.5,0.6,1.4,1.1,2.9,1.3
			c1.7,0.3,3.1,0.1,4.2-0.5c1.1-0.6,1.9-1.7,2.4-3.2l1.3,0.2l-1.1,6.1c-1.5-0.3-3.1-0.6-4.6-0.8c-1.6-0.3-3.1-0.5-4.7-0.8
			c-1.1-0.2-2.3-0.4-3.5-0.5c-1.3-0.2-2.6-0.4-4.1-0.6c-0.1,0-0.2,0-0.4,0c-0.2,0-0.3,0-0.4,0c-0.1,0-0.2,0-0.4-0.1
			C477,671.5,476.9,671.5,476.8,671.4L476.8,671.4z M524.5,672.3l1.3,0.2l-1.3,7.1l-1.2-0.2l-0.4-1.9c-1.2,0.6-2.4,1-3.5,1.2
			c-1.1,0.2-2.3,0.2-3.6,0c-3.1-0.5-5.4-1.9-7-4.2c-1.6-2.3-2.1-4.9-1.6-8c0.2-1.3,0.6-2.5,1.1-3.6c0.5-1.1,1.2-2,2.1-2.8
			c1.3-1.2,2.8-2.1,4.3-2.6c1.6-0.5,3.3-0.5,5.1-0.2c1.2,0.2,2.2,0.5,3.1,1c0.9,0.5,1.8,1.1,2.5,1.9l0.8-1.6l1.3,0.2l-1,6.6
			l-1.3-0.2c-0.2-1.8-0.7-3.2-1.5-4.3c-0.8-1.1-2-1.8-3.3-2c-1.9-0.3-3.6,0.2-5,1.6c-1.4,1.5-2.4,3.6-2.9,6.4
			c-0.5,2.8-0.3,5.1,0.5,6.8c0.8,1.8,2.2,2.8,4.2,3.2c1.6,0.3,2.9,0,4.1-0.8C522.7,675.5,523.7,674.2,524.5,672.3L524.5,672.3z
			 M528.8,680.7l0.2-1.3l0.2,0c1,0.1,1.7,0,2.1-0.3c0.4-0.4,0.7-1.1,0.9-2.4l2-12.6c0.1-0.9,0-1.6-0.3-2c-0.3-0.4-1-0.7-2-0.8
			l-0.2,0l0.2-1.2c1,0.2,1.9,0.4,2.8,0.5c0.9,0.2,1.7,0.3,2.5,0.4c0.6,0.1,1.3,0.2,2.2,0.3c0.9,0.1,2,0.3,3.1,0.4l-0.2,1.2l-0.2,0
			c-1.1-0.2-1.8-0.1-2.3,0.2c-0.4,0.3-0.7,1-0.9,2l-1.8,11.2c-0.2,1.6-0.2,2.7,0.3,3.3c0.5,0.6,1.4,1.1,2.9,1.3
			c1.7,0.3,3.1,0.1,4.2-0.5c1.1-0.6,1.9-1.7,2.4-3.2l1.3,0.2l-1.1,6.1c-1.5-0.3-3.1-0.5-4.6-0.8c-1.5-0.3-3.1-0.5-4.7-0.8
			c-1.1-0.2-2.3-0.4-3.5-0.5c-1.3-0.2-2.6-0.4-4.1-0.6c-0.1,0-0.2,0-0.4,0c-0.2,0-0.3,0-0.4,0c-0.1,0-0.2,0-0.4-0.1
			C529.1,680.8,528.9,680.7,528.8,680.7L528.8,680.7z M552.5,676.2l0.7-7.5c0.1-1.5,0-2.4-0.3-2.9c-0.3-0.5-1.1-0.8-2.3-1l0.1-1.2
			c0.9,0.1,1.8,0.2,2.7,0.3c0.9,0.1,1.7,0.2,2.5,0.2c1,0.1,1.9,0.2,2.8,0.2c0.9,0.1,1.8,0.1,2.7,0.2l-0.1,1.2c-1.2,0-2,0.2-2.5,0.5
			c-0.4,0.4-0.7,1.3-0.8,2.6l-0.7,8c-0.2,2.4,0.1,4.1,0.8,5.2c0.7,1,2,1.7,4,1.8c1.1,0.1,2.2,0,3.1-0.3c0.9-0.3,1.6-0.7,2.1-1.3
			c0.4-0.5,0.8-1.1,1-1.9c0.2-0.8,0.4-1.9,0.5-3.3l0.6-7.1c0.1-1.3,0-2.1-0.4-2.7c-0.4-0.5-1.1-0.9-2.2-1.1l0.1-1.1
			c0.6,0.1,1.2,0.2,1.8,0.2c0.6,0.1,1.2,0.1,1.8,0.2c0.8,0.1,1.5,0.1,2.1,0.2c0.6,0,1.2,0.1,1.6,0.1l-0.1,1.2
			c-1.1,0-1.8,0.3-2.3,0.7c-0.4,0.5-0.7,1.3-0.8,2.5l-0.6,7.1c-0.1,1.6-0.4,2.9-0.7,3.9c-0.3,0.9-0.7,1.7-1.2,2.4
			c-0.8,1-1.9,1.6-3.2,2.1c-1.3,0.4-2.8,0.6-4.6,0.4c-1.7-0.2-3.1-0.5-4.2-1c-1.1-0.5-2.1-1.2-2.8-2.1c-0.5-0.7-0.9-1.5-1.1-2.6
			C552.4,679.1,552.4,677.8,552.5,676.2L552.5,676.2z M583.8,675c0.1,0,0.2,0,0.4,0c0.2,0,0.3,0,0.3,0c1.5,0,2.6-0.3,3.2-0.9
			c0.6-0.6,1-1.7,1-3.1c0-1.2-0.3-2.1-0.9-2.7c-0.6-0.6-1.6-0.9-2.8-0.9c-0.5,0-0.8,0-0.9,0.1c-0.1,0.1-0.2,0.2-0.2,0.5V675
			L583.8,675z M583.8,676.4v5.2c0,1.3,0.2,2.2,0.5,2.8c0.4,0.5,1,0.8,1.9,0.8c1.2,0,2-0.4,2.6-1.1c0.6-0.7,0.9-1.8,0.9-3.3
			c0-1.5-0.4-2.6-1.2-3.3c-0.8-0.7-2-1.1-3.7-1.1c-0.2,0-0.5,0-0.6,0C584.1,676.4,583.9,676.4,583.8,676.4L583.8,676.4z
			 M576.1,686.8v-1.3c1.2,0,1.9-0.2,2.3-0.6c0.4-0.4,0.6-1.1,0.6-2.2v-12.8c0-1.1-0.2-1.8-0.6-2.1c-0.4-0.3-1.2-0.5-2.3-0.5v-1.3
			c0.8,0.1,1.5,0.1,2.2,0.1c0.6,0,1.2,0,1.7,0c0.7,0,1.6,0,2.8-0.1c1.2-0.1,2-0.1,2.6-0.1c2.9,0,5,0.4,6.4,1.2
			c1.4,0.8,2.1,2.1,2.1,3.7c0,1.3-0.5,2.3-1.4,3.1c-0.9,0.8-2.4,1.3-4.2,1.6c2.3,0.3,4.1,0.9,5.2,1.8c1.2,0.9,1.7,2.2,1.7,3.8
			c0,1.8-0.8,3.2-2.3,4.2c-1.6,0.9-3.8,1.4-6.8,1.4c-0.5,0-1.4,0-2.7-0.1c-1.3,0-2.3-0.1-3-0.1c-0.6,0-1.2,0-1.9,0
			C577.7,686.7,576.9,686.7,576.1,686.8z"/>
	</g>
	<g>
		<path class="st23" d="M485.1,615.3c-1.7-3.9-3.3-7.7-4.9-11.4c-1.1-2.5-2.1-4.9-3.2-7.4l-1-2.3c0.2-0.2,0.4-0.5,0.5-0.7
			c0.8-1.4,0.9-3,0.3-4.5l-1.2-2.8c-0.9-2-3.1-3.1-5.2-2.8c-0.4,0.1-0.9,0.1-1.4,0.2c-0.6,0-1.2,0.1-2.1,0.1c-0.4,0-1,0-1.6,0
			c-0.6,0-1.4,0-2.4,0l-1.2,0c0,0,0,0-0.1,0c-0.9,0-1.8,0.3-2.5,0.7c-0.8-0.4-1.8-0.6-2.8-0.5c-0.6,0.1-1.1,0.1-1.7,0.2l-0.8,0.1
			c-0.7,0.1-1.4,0.1-1.9,0.1l-0.7,0c-0.4,0-0.9,0-1.4,0c-0.8,0-1.6,0-2.5-0.1c-1.7-0.1-3.2,0.7-4.2,2.1c-1,1.3-1.2,3.1-0.6,4.6
			l1.1,2.9c0.7,1.9,2.5,3.1,4.5,3.1c0.1,0.2,0.2,0.5,0.3,0.8c0.6,1.6,1.3,3.3,1.9,5l2,5.2l-0.8-1.2c-2-3.1-4-6.2-6-9.2
			c-1.4-2.1-2.7-4.2-4-6.2l-3.2-5c-0.9-1.4-2.6-2.3-4.3-2.2l-2.3,0.1c-1,0-2.1,0.1-3.1,0.1c-1.3,0-2.5,0.6-3.4,1.6
			c-0.9,1-1.3,2.2-1.3,3.5c0.2,3.6,0.3,7.4,0.4,11.2c0.1,1.7,0.1,3.4,0.2,5.2c0.1,2.2,0.2,4.5,0.3,6.7c0,0.5,0,1,0,1.4
			c-0.2,0-0.5,0-0.7,0c0,0,0,0,0,0c-0.1-0.3-0.2-0.6-0.3-1c-0.8-2.8-1.7-5.6-2.5-8.4l-2.1-7.1c0.5-0.4,1-0.8,1.4-1.4
			c0.8-1.2,1-2.9,0.6-4.3c-0.3-1-0.6-1.9-0.9-2.9c-0.7-2.2-2.8-3.6-5-3.4l-2.9,0.2c-0.7,0-1.2,0.1-1.6,0.1c-0.7,0.1-1.3,0.1-1.5,0.1
			c-0.4,0-1,0-1.7,0c-0.9,0-2.4,0-4.8,0c-0.4,0-0.8,0-1.2,0.1c-0.4-0.1-0.8-0.1-1.2-0.1c-1.2,0.1-2.2,0.2-3,0.2
			c-0.7,0-1.2,0.1-1.6,0.1c-0.8,0.1-1.4,0.1-1.8,0.1c-0.4,0-1,0-1.9,0l-4.9,0c-0.6,0-1.1,0.1-1.6,0.3c-0.6-0.2-1.3-0.2-1.9-0.1
			c-0.7,0.1-1.4,0.2-2.1,0.2c-0.8,0.1-1.8,0.1-2.9,0.1c-0.5,0-1.3,0-2.2,0c-1,0-2.7,0-5.1,0c-0.6,0-1.2,0.1-1.8,0.3
			c-0.6-0.2-1.2-0.2-1.8-0.2l-2.4,0.2c-0.8,0.1-1.5,0.1-2.1,0.1l-0.2,0c-1,0.1-1.9,0.1-2.7,0.1c-0.8,0-1.8,0-2.9,0l-1.2,0
			c-1,0-2.2,0-3.7,0c0,0,0,0-0.1,0c-0.7,0-1.4,0.2-2,0.4c-0.7-0.3-1.6-0.4-2.4-0.3c-0.7,0.1-1.3,0.1-2,0.2l-0.5,0
			c-0.9,0.1-2,0.1-3.2,0.1c-2.3,0.1-4.2,0.1-6.1,0c-1.4,0-2.7,0.5-3.7,1.6c-0.9-0.9-2.2-1.4-3.6-1.4c-2.3,0.1-4.6,0.2-7,0.2
			c-1.3,0-2.5,0.6-3.3,1.5c0,0-0.1-0.1-0.1-0.1c-1-0.8-2.3-1.2-3.6-1.1c-0.9,0.1-1.9,0.1-2.9,0.2l-0.7,0c-1.3,0.1-2.8,0.1-4.3,0.2
			c-1.5,0-3,0.1-4.3,0.1c-1.3,0-2.6,0-3.8,0c-1.3,0-2.6,0.5-3.5,1.4c-0.9,0.9-1.5,2.2-1.4,3.5c0,1.3,0.1,2.6,0.1,3.9
			c0.1,1.3,0.6,2.5,1.6,3.4c0.9,0.8,2.1,1.2,3.2,1.2c0,0,0,0,0,0c0.1,0.2,0.3,0.6,0.4,1c0.1,0.3,0.1,0.5,0.2,0.7
			c0.7,2.3,1.4,4.6,2.1,7l3,10.1c0.4,1.5,0.9,3.1,1.3,4.6c0.7,2.6,1.5,5.1,2.2,7.7c0.6,2.1,2.5,3.5,4.7,3.5c0.1,0,0.3,0,0.4,0
			c2.9-0.2,5.7-0.5,8.6-0.7l0.2,0c2.3-0.2,4.1-2,4.4-4.3c0.3-2.2,0.5-4.5,0.8-6.7l0.2-1.4c0,0.1,0.1,0.3,0.1,0.4l0.2,0.6
			c0.7,2.3,1.5,4.6,2.3,6.9c0.7,2.1,2.8,3.5,5,3.3l8.3-0.7c2.4-0.2,4.2-2.1,4.5-4.4c0.2-2.5,0.5-4.9,0.7-7.3
			c0.1-1.4,0.3-2.8,0.4-4.1l0.3-3.1c0.1-1.3,0.3-2.6,0.4-3.9c0.1-1,0.2-2,0.3-3l0.2-2c0.2-1.6,0.3-3.2,0.5-4.8l0-0.3
			c0-0.3,0.1-0.7,0.1-1.1c0,0,0-0.1,0-0.1c0.2-0.1,0.4-0.1,0.5-0.2c0.6,0.2,1.2,0.3,1.8,0.3c0.1,0,0.2,0,0.3,0
			c0,0.2,0.1,0.3,0.1,0.5c0.2,1.1,0.4,2.1,0.6,3.2c0.2,1.3,0.5,2.6,0.7,4c0.4,2.4,0.9,4.9,1.3,7.3c0.6,3.4,1.4,6,2.4,7.9
			c1.1,2.1,2.7,4,4.8,5.7c1.8,1.4,3.8,2.4,6,2.9c2.1,0.6,4.4,0.8,6.9,0.5c2.8-0.2,5.2-0.9,7.3-2c2.4-1.2,4.2-3,5.4-5.1
			c0.4-0.7,0.7-1.5,1-2.2c0,0.2,0.1,0.4,0.1,0.6c0.1,0.7,0.3,1.3,0.5,2c0.6,2.4,2.9,4,5.4,3.7l0.4,0c2.3-0.3,3.8-0.5,4.7-0.6
			c0.8-0.1,1.4-0.2,1.9-0.2c0.5,0,1.2-0.1,2-0.1c0.5,0,1.2,0,2-0.1c0.8,0,1.8-0.1,2.9-0.1c0.4,0,0.8-0.1,1.2-0.2
			c0.4,0.1,0.8,0.1,1.3,0c2.1-0.3,3.6-0.5,4.5-0.6l0.3,0c0.7-0.1,1.3-0.2,1.8-0.2l1.8-0.1c0.8,0,2.4-0.1,4.8-0.2
			c0.7,0,1.3-0.2,1.9-0.5c0.8,0.2,1.7,0.2,2.5,0l1.1-0.2c1.1-0.1,2-0.3,2.5-0.3c0.3,0,0.7,0,1.2-0.1l0.6,0c0.9,0,2.1-0.1,3.7-0.1
			c0.9,0,1.8-0.3,2.5-0.8c0.8,0.4,1.8,0.5,2.8,0.3c1-0.2,1.9-0.3,2.9-0.4c0.6-0.1,1.1-0.1,1.6-0.2l0.6-0.1c0.6,0,1.3-0.1,2.1-0.1
			c0.9,0,2.2-0.1,3.9-0.1c0.6,0,1.2-0.2,1.8-0.4c0.7,0.2,1.5,0.2,2.3,0c0.5-0.1,1-0.2,1.6-0.3c0.6-0.1,1.4-0.2,2.3-0.2
			c0.5,0,1-0.1,1.7-0.1l0.3,0c0.8,0,2-0.1,3.5-0.1c1.3,0,2.5-0.6,3.4-1.5c0.9,0.7,2.1,1,3.3,0.9l5.2-0.4c1.6-0.1,3-1,3.8-2.4
			S485.7,616.7,485.1,615.3z"/>
		<path class="st23" d="M373.7,599.6L373.7,599.6L373.7,599.6z"/>
		<path class="st23" d="M384.4,599.2L384.4,599.2L384.4,599.2z"/>
		<path class="st4" d="M486.9,609.6c-0.8-2-1.7-3.9-2.5-5.8c-0.8-1.9-1.6-3.8-2.4-5.6l-4.3-10.1c0.3-0.3,0.5-0.5,0.7-0.9
			c0.8-1.2,0.9-2.7,0.3-4.1l-1.2-2.8c-0.8-1.8-2.8-2.9-4.7-2.6c-0.4,0.1-0.9,0.1-1.5,0.2c-0.6,0.1-1.2,0.1-2,0.1c-0.5,0-1,0-1.8,0
			l-0.7,0c-0.8,0-1.7,0-2.8,0c0,0,0,0,0,0c-0.9,0-1.8,0.3-2.5,0.8c-0.8-0.5-1.8-0.7-2.8-0.6c-0.9,0.1-1.7,0.2-2.5,0.2
			c-0.7,0.1-1.3,0.1-1.9,0.1c-0.7,0-1.3,0-2.1,0c-0.8,0-1.6,0-2.6-0.1c-1.5,0-2.9,0.6-3.7,1.8c-0.9,1.2-1.1,2.7-0.5,4.1
			c0.4,0.9,0.7,1.9,1.1,2.8l0.1,0.2c0.7,1.7,2.3,2.8,4.1,2.8c0.1,0,0.2,0,0.2,0c0.1,0.3,0.3,0.6,0.5,1.1l0.5,1.3
			c0.8,2.1,1.6,4.2,2.4,6.3c0.7,1.7,1.3,3.4,2,5.1l0.6,1.4c-0.3-0.3-0.8-0.9-1.4-1.8c0-0.1-0.1-0.2-0.2-0.3l-0.9-1.4
			c-2.3-3.5-4.5-7-6.7-10.4l-1.8-2.9c-1.8-2.9-3.6-5.7-5.4-8.5c-0.8-1.3-2.3-2-3.8-2l-2.3,0.1c-1.1,0-2.1,0.1-3.2,0.1
			c-2.4,0.1-4.3,2.1-4.2,4.6l0.1,1.6c0.1,3.2,0.2,6.4,0.4,9.7c0.1,2.1,0.2,4.2,0.3,6.4c0.1,1.8,0.1,3.7,0.2,5.6c0,0.9,0,1.5,0,2
			c-0.4-0.1-0.8-0.1-1.3-0.1c-0.1,0-0.2,0-0.3,0c-0.1-0.3-0.3-0.8-0.4-1.3l-0.7-2.4c-0.6-2-1.2-4.1-1.8-6c-0.3-1.1-0.7-2.2-1-3.3
			c-0.4-1.4-0.8-2.7-1.2-4.1c0.6-0.3,1.2-0.8,1.6-1.4c0.8-1.1,1-2.5,0.5-3.8c-0.1-0.4-0.3-0.9-0.4-1.3c-0.2-0.6-0.4-1.2-0.6-1.8
			c-0.6-1.9-2.5-3.1-4.5-3l-4.5,0.3c-0.7,0.1-1.3,0.1-1.6,0.1l-0.2,0c-0.4,0-0.9,0-1.7,0c-0.8,0-2.4,0-4.6,0c-0.4,0-0.8,0-1.2,0.2
			c-0.4-0.1-0.8-0.1-1.2-0.1l-4.6,0.3c-0.5,0-1,0.1-1.3,0.1l-0.6,0c-0.4,0-1,0-1.8,0c-0.8,0-2.5,0-4.9,0c0,0,0,0,0,0
			c-0.6,0-1.1,0.1-1.6,0.3c-0.6-0.2-1.2-0.3-1.9-0.2c-0.7,0.1-1.4,0.2-2.1,0.2c-0.8,0.1-1.8,0.1-2.8,0.2c-0.6,0-1.3,0-2.2,0
			c-1,0-2.7,0-5.2,0c-0.7,0-1.2,0.1-1.7,0.4c-0.5-0.2-1.1-0.3-1.7-0.2l-0.2,0c-1.8,0.1-3.2,0.2-4.4,0.3l-0.6,0
			c-0.9,0.1-1.6,0.1-2.3,0.1c-0.8,0-1.8,0-2.9,0l-4.9,0c-0.7,0-1.4,0.2-2,0.5c-0.7-0.3-1.5-0.5-2.3-0.4c-0.9,0.1-1.7,0.2-2.8,0.2
			c-0.9,0.1-1.9,0.1-3.1,0.1c-2.2,0.1-4.2,0.1-6.2,0c-1.3-0.1-2.5,0.5-3.4,1.5c-0.1,0.1-0.2,0.3-0.3,0.4c-0.9-1-2.1-1.7-3.6-1.6
			l-7,0.2c-1.4,0-2.6,0.7-3.3,1.7c-0.1-0.2-0.3-0.3-0.5-0.5c-0.9-0.8-2.1-1.1-3.2-1c-1,0.1-2.1,0.2-3.2,0.2l-0.5,0
			c-1.4,0.1-2.8,0.2-4.3,0.2c-1.5,0.1-3,0.1-4.3,0.1h-0.6c-1.1,0-2.2,0-3.3,0c-1.2,0-2.4,0.5-3.2,1.3c-0.9,0.9-1.3,2.1-1.2,3.3
			l0.2,3.7c0.1,1.2,0.6,2.3,1.5,3.1c0.9,0.8,2,1.1,3.2,1.1c0.2,0.3,0.4,0.8,0.6,1.6c0.1,0.2,0.1,0.4,0.2,0.6l0.6,2
			c0.5,1.6,1,3.3,1.4,4.9c0.4,1.5,0.9,3.1,1.3,4.6l1.4,4.8c0.5,1.8,1.1,3.6,1.6,5.5c0.5,1.7,1,3.4,1.5,5.1l0.8,2.6
			c0.5,1.9,2.3,3.2,4.2,3.2c0.1,0,0.3,0,0.4,0c2.8-0.2,5.5-0.5,8.2-0.7l0.7-0.1c2.1-0.2,3.8-1.8,4-3.9l0.4-3.6
			c0.2-1.4,0.4-2.9,0.5-4.3l0.3-2.5c0.3,0.8,0.5,1.7,0.8,2.5c0.8,2.5,1.6,5,2.5,7.5c0.6,1.9,2.6,3.2,4.6,3c2.8-0.3,5.5-0.5,8.3-0.7
			c2.1-0.2,3.8-1.9,4-4c0.2-1.9,0.4-3.8,0.5-5.7l0.2-1.8c0.1-1.3,0.2-2.5,0.4-3.8c0.1-1.2,0.2-2.3,0.3-3.4c0.2-1.6,0.3-3.3,0.5-4.9
			l0.4-3.6c0.2-1.8,0.3-3.5,0.5-5.2c0-0.1,0-0.2,0-0.3c0-0.1,0-0.2,0-0.4l0.1-0.8c0-0.2,0-0.3,0.1-0.5c0.3-0.1,0.7-0.2,1-0.4
			c0.5,0.2,1.1,0.4,1.7,0.4c0.3,0,0.5,0,0.7,0c0.1,0.3,0.1,0.6,0.2,1l0.5,3c0.3,1.4,0.5,2.8,0.7,4.1l0.2,1.4c0.3,2,0.7,4,1,6
			c0.6,3.4,1.3,5.9,2.4,7.9c1.1,2.2,2.7,4,4.6,5.5c1.7,1.3,3.7,2.3,5.9,2.9c1.5,0.4,3.1,0.6,4.8,0.6c0.6,0,1.3,0,1.9-0.1
			c2.7-0.2,5.1-0.9,7.2-2c2.2-1.2,4-2.9,5.2-5c1-1.9,1.6-4,1.7-6.2c0.1-2-0.2-4.6-1-8c-0.4-1.8-0.8-3.5-1.2-5.3l-0.3-1.3
			c-0.4-1.6-0.7-3.2-1.1-4.8l-0.3-1.2c0.1,0,0.2-0.1,0.3-0.1c0.4,0.1,0.9,0.2,1.3,0.2c0,0,0,0,0,0c0.2,0,0.3,0,0.5,0
			c0.1,0.3,0.2,0.6,0.3,1l0.2,0.7c0.6,2.5,1.3,5.1,1.9,7.8c0.7,2.7,1.3,5.3,2,8l0.2,0.7c0,0,0,0,0,0.1c-0.9,0.3-1.7,0.9-2.2,1.6
			c-0.7,1-1,2.3-0.7,3.5l0.3,1.1c0.2,0.9,0.4,1.8,0.6,2.7c0.5,2,2.3,3.3,4.3,3.3c0.2,0,0.4,0,0.6,0c2.5-0.3,4.2-0.6,5.1-0.7
			c0.8-0.1,1.5-0.2,2-0.2c0.4,0,1.1-0.1,2-0.1c1,0,2.6-0.1,4.9-0.2c0.4,0,0.8-0.1,1.2-0.2c0.4,0.1,0.8,0.1,1.3,0
			c2.3-0.3,3.9-0.5,4.8-0.6c0.8-0.1,1.4-0.2,1.9-0.2c0.4,0,1-0.1,1.8-0.1c0.9-0.1,2.4-0.1,4.7-0.2c0.7,0,1.3-0.2,1.9-0.5
			c0.4,0.1,0.8,0.2,1.2,0.2c0.3,0,0.5,0,0.8-0.1l0.5-0.1c1.7-0.2,2.9-0.4,3.7-0.5l1.8-0.1c0.8,0,2.1-0.1,3.7-0.1
			c0.9,0,1.8-0.3,2.6-0.9c0.8,0.4,1.8,0.6,2.8,0.4c1-0.2,2-0.3,2.8-0.4c0.8-0.1,1.6-0.2,2.4-0.2c0.5-0.1,1.2-0.1,2.1-0.1
			c0.9,0,2.2-0.1,3.9-0.1c0.6,0,1.2-0.2,1.7-0.4c0.4,0.1,0.8,0.2,1.2,0.2c0.3,0,0.6,0,0.9-0.1c0.5-0.1,1.1-0.2,1.7-0.3
			c0.6-0.1,1.4-0.2,2.2-0.2l0.5,0c0.4,0,0.9-0.1,1.5-0.1c0.8,0,2.1-0.1,3.7-0.1c1.3,0,2.5-0.7,3.3-1.7c0.9,0.8,2.1,1.2,3.3,1.1
			c1.2-0.1,2.4-0.2,3.6-0.3l1.7-0.1c1.4-0.1,2.7-0.9,3.4-2.1C487.4,612.4,487.5,610.9,486.9,609.6z M318.5,596
			c-0.1-0.2-0.1-0.4-0.2-0.7c0.1,0,0.2,0,0.3-0.1C318.6,595.5,318.5,595.7,318.5,596z M378,612.6C378,612.6,378,612.6,378,612.6
			c-0.1,0.1-0.1,0.1-0.2,0.1c-0.5,0-0.8,0-1.3-0.6c-0.5-0.6-1.4-2.2-2.1-5.8c-0.4-2.3-0.9-4.5-1.3-6.8c-0.4-2.2-0.8-4.3-1.2-6.4
			c0.2-0.1,0.5-0.1,0.7-0.2c0.5,0.2,1,0.3,1.5,0.3c0.2,0,0.4,0,0.6,0c0.1,0.3,0.2,0.6,0.2,1l1.4,6.2c0.4,2.1,0.9,4.3,1.4,6.5
			C378.5,610.7,378.1,612.2,378,612.6z M406.3,593.6c-0.1-0.3-0.2-0.6-0.2-0.8c0,0.1,0.1,0.2,0.1,0.3
			C406.2,593.2,406.2,593.4,406.3,593.6C406.3,593.6,406.3,593.6,406.3,593.6z M410.6,609.5c-0.1-0.3-0.2-0.8-0.4-1.3
			c-0.2-0.6-0.3-1.3-0.5-1.9l0.2,0c0.1,0.5,0.3,1,0.4,1.5l0.5,1.8C410.7,609.5,410.7,609.5,410.6,609.5z"/>
		<g>
			
				<radialGradient id="SVGID_10_" cx="444.3867" cy="598.9787" r="15.6154" gradientTransform="matrix(0.9972 0 0 0.9972 1.1396 1.1396)" gradientUnits="userSpaceOnUse">
				<stop  offset="0" style="stop-color:#FBEA00"/>
				<stop  offset="1" style="stop-color:#F9BE00"/>
			</radialGradient>
			<path class="st24" d="M453.4,608.1c-0.7-0.7-1.4-1.6-2.1-2.8c0,0,0,0,0-0.1c-2.5-4-5.1-7.9-7.6-11.8c-1.8-2.7-3.5-5.5-5.2-8.2
				c-0.7-1.1-1.4-2.1-2.1-3.2c-1.8,0.1-3.6,0.1-5.4,0.2c0.2,3.7,0.3,7.4,0.4,11.3c0.2,3.9,0.3,7.9,0.5,12c0.1,2.7,0,4.4-0.3,5.1
				c-0.3,0.7-0.9,1.1-1.8,1.1c0.4,1.1,0.7,2.3,1.1,3.4c0.2,0,0.4-0.1,0.7-0.1c1.8-0.3,3.1-0.4,3.9-0.5c0.5-0.1,1.1-0.1,2-0.1l1.1,0
				c0.7,0,1.6-0.1,2.7-0.1c-0.4-1.1-0.7-2.3-1.1-3.4c-0.2,0-0.4,0-0.6,0c-0.4,0-0.7,0-1,0c-0.4,0-0.7-0.1-1-0.2
				c-0.5-0.2-0.8-0.5-0.9-0.9c-0.1-0.2-0.1-0.5-0.2-0.8c-0.1-0.3-0.1-0.7-0.1-1c-0.1-1.1-0.1-2.2-0.2-3.4l2.5-0.2l6-0.4
				c0.7,1.1,1.3,2.2,2,3.2c0.2,0.4,0.4,0.7,0.5,0.8c0.1,0.2,0.2,0.4,0.2,0.5c0.2,0.7,0.2,1.1-0.1,1.3c-0.3,0.3-1,0.4-2.4,0.6
				c0.4,1.1,0.8,2.2,1.2,3.3c1.1-0.2,2.1-0.3,3-0.5c0.9-0.1,1.8-0.2,2.6-0.3c0.5,0,1.2-0.1,2-0.1l0.2,0c1,0,2.3-0.1,4-0.1
				c-0.4-1.1-0.8-2.2-1.2-3.3C455.5,609.7,454.5,609.2,453.4,608.1z M438.5,600.4l-2.8,0.2c-0.2-2.1-0.3-4.3-0.4-6.4
				c-0.1-2.1-0.3-4.1-0.4-6.2c1.2,2,2.4,4,3.6,6l0,0.1c1.2,2,2.4,4,3.6,6.1L438.5,600.4z"/>
			
				<radialGradient id="SVGID_11_" cx="466.8983" cy="597.4283" r="16.4127" gradientTransform="matrix(0.9972 0 0 0.9972 1.1396 1.1396)" gradientUnits="userSpaceOnUse">
				<stop  offset="0" style="stop-color:#FBEA00"/>
				<stop  offset="1" style="stop-color:#F9BE00"/>
			</radialGradient>
			<path class="st25" d="M477.6,611.3c1.8-0.1,3.5-0.3,5.3-0.4c-1.7-3.9-3.3-7.7-4.9-11.5c-1.6-3.7-3.2-7.4-4.7-10.9
				c-0.8-1.8-1.1-2.9-0.9-3.3c0.2-0.4,0.9-0.7,2.2-0.7c-0.4-0.9-0.8-1.9-1.2-2.8c-0.5,0.1-1.1,0.2-1.8,0.2c-0.7,0.1-1.4,0.1-2.3,0.1
				c-0.5,0-1.2,0-2,0c-0.8,0-2,0-3.6,0c0.4,0.9,0.8,1.9,1.2,2.8c1.4,0,2.3,0.2,2.9,0.6c0.5,0.4,1.2,1.5,1.9,3.3c1,2.5,2.1,5,3.2,7.6
				c1.1,2.6,2.2,5.2,3.3,7.8c-1.6-2.2-3.1-4.2-4.4-6c-1.3-1.7-2.4-3.1-3.4-4.3c-1.6-2-3.2-3.9-4.8-5.9c-1.6-1.9-3.2-3.8-4.7-5.8
				c-0.9,0.1-1.8,0.2-2.6,0.2c-0.8,0.1-1.5,0.1-2.2,0.1l-0.7,0c-0.5,0-1,0-1.5,0c-0.8,0-1.7,0-2.7-0.1c0.4,1,0.7,1.9,1.1,2.9
				c1.4,0,2.4,0.2,2.9,0.6c0.1,0,0.1,0.1,0.2,0.1c0.5,0.5,1.1,1.6,1.7,3.2c1,2.5,2,5,3,7.6c1,2.6,2,5.2,3,7.9c0.8,2,1.1,3.3,0.8,3.8
				c-0.2,0.5-1.1,0.8-2.5,1c0.4,1.1,0.8,2.2,1.2,3.3c0.6-0.1,1.3-0.2,2-0.3c0.7-0.1,1.6-0.2,2.6-0.3c0.6,0,1.3-0.1,2.1-0.1
				c0.9,0,2.1-0.1,3.8-0.1c-0.4-1.1-0.9-2.2-1.3-3.3c-1.4,0.1-2.4-0.1-3-0.5c-0.6-0.4-1.3-1.6-2.1-3.6c-1.2-2.9-2.3-5.9-3.4-8.7
				c-1.1-2.8-2.2-5.6-3.3-8.4c3.2,3.9,6.3,7.8,9.5,11.8C470.9,603.1,474.2,607.2,477.6,611.3z"/>
			
				<radialGradient id="SVGID_12_" cx="326.6536" cy="606.0319" r="23.0811" gradientTransform="matrix(0.9972 0 0 0.9972 1.1396 1.1396)" gradientUnits="userSpaceOnUse">
				<stop  offset="0" style="stop-color:#FBEA00"/>
				<stop  offset="1" style="stop-color:#F9BE00"/>
			</radialGradient>
			<path class="st26" d="M347.8,586c-1,0.1-2.1,0.1-3.3,0.2c-1.2,0-2.3,0.1-3.4,0.1c-1,0-2.1,0-3.1-0.1c0.2,1.2,0.3,2.3,0.4,3.5
				c0.3,0,0.6,0,1,0c1.2,0,2,0,2.6,0.2c0.5,0.2,0.8,0.6,0.8,1.2c0,0.2,0,0.8,0,1.6c0,0.2,0,0.3,0,0.4c-0.2,2.5-0.4,5.1-0.6,7.7
				c-0.2,2.6-0.4,5.3-0.6,8c0,0.8-0.1,1.8-0.1,3.2c-0.1,1.4-0.1,3-0.2,4.7c-0.4-1.4-0.7-2.7-1.1-3.8c-0.3-1.1-0.6-2.1-0.9-2.9
				c-1.4-4.1-2.8-8.1-4.2-12.1c-1.4-3.9-2.7-7.8-4.1-11.6c-2.3,0.1-4.7,0.1-7,0.2c-0.5,3.7-1,7.6-1.5,11.4c-0.5,4-1,8-1.6,12.1
				c-0.2,1.4-0.3,2.8-0.4,4.1c-0.1,1.4-0.2,2.7-0.3,4.1c-0.5-1.9-1-4.1-1.7-6.6c0-0.1-0.1-0.2-0.1-0.4c-0.7-2.7-1.5-5.3-2.3-7.9
				c-0.7-2.6-1.5-5.1-2.2-7.7c0-0.2-0.1-0.6-0.3-1c-0.4-1.4-0.6-2.2-0.6-2.7c0-0.6,0.1-1.1,0.4-1.3c0.3-0.2,1-0.4,2.1-0.4
				c0.2,0,0.5,0,0.9,0c0.4,0,0.8,0,1.1,0c-0.1-1.2-0.2-2.4-0.3-3.6c-1.2,0.1-2.5,0.2-3.8,0.3c-1.4,0.1-2.9,0.2-4.4,0.2
				c-1.6,0.1-3.1,0.1-4.5,0.1c-1.4,0-2.7,0-4,0c0.1,1.2,0.1,2.5,0.1,3.7c0.2,0,0.5,0,0.7,0c2-0.1,3.6,1.5,4.5,4.8
				c0,0.1,0.1,0.3,0.1,0.4c0.7,2.4,1.4,4.7,2.1,7.2c0.7,2.4,1.4,4.8,2.1,7.3c0.7,2.5,1.5,5,2.2,7.6c0.7,2.6,1.5,5.1,2.2,7.7
				c3-0.3,5.9-0.5,8.9-0.8c0.3-2.7,0.7-5.3,1-7.9c0.3-2.6,0.6-5.2,0.9-7.7c0.3-2.5,0.6-4.9,0.9-7.3c0.3-2.4,0.6-4.8,0.9-7.2
				c0.8,2.3,1.5,4.7,2.3,7c0.7,2.4,1.5,4.7,2.3,7.1c0.8,2.5,1.6,4.9,2.4,7.4c0.8,2.5,1.6,5,2.5,7.5c2.8-0.2,5.6-0.5,8.3-0.7
				c0.2-2.5,0.5-5,0.7-7.5c0.2-2.5,0.5-4.9,0.7-7.3c0.2-2.3,0.4-4.7,0.7-6.9c0.2-2.3,0.5-4.6,0.7-6.8c0-0.3,0.1-0.8,0.1-1.3
				c0.3-2.9,1.3-4.3,3.3-4.4c-0.2-1.2-0.4-2.3-0.6-3.4C349.8,585.8,348.8,585.9,347.8,586z"/>
			
				<radialGradient id="SVGID_13_" cx="371.7708" cy="603.186" r="17.9045" gradientTransform="matrix(0.9972 0 0 0.9972 1.1396 1.1396)" gradientUnits="userSpaceOnUse">
				<stop  offset="0" style="stop-color:#FBEA00"/>
				<stop  offset="1" style="stop-color:#F9BE00"/>
			</radialGradient>
			<path class="st27" d="M385.4,598.9c-0.5-2.1-1-4.3-1.5-6.4c-0.5-2.1-0.5-3.4-0.1-3.8c0.4-0.5,1.4-0.8,3.2-0.9
				c-0.3-1.1-0.5-2.2-0.8-3.3c-0.7,0.1-1.5,0.2-2.4,0.3c-0.8,0.1-1.9,0.1-3.1,0.2c-0.6,0-1.3,0-2.4,0c-1,0-2.7,0-5.1,0
				c0.2,1.1,0.5,2.2,0.7,3.3c1.8,0,3,0.2,3.6,0.7c0.6,0.4,1.1,1.7,1.6,3.8c0.5,2.1,0.9,4.2,1.4,6.3c0.5,2.1,0.9,4.3,1.4,6.5
				c0.8,3.5,0.8,6.2,0.2,8c-0.6,1.9-2,2.9-4,3.1c-2.1,0.2-3.8-0.6-5.2-2.3c-1.3-1.7-2.3-4.2-3-7.7c-0.5-2.3-0.9-4.5-1.3-6.8
				c-0.4-2.2-0.8-4.4-1.3-6.6c-0.4-2.1-0.4-3.5,0-3.9c0.4-0.5,1.6-0.8,3.3-0.9c-0.2-1.1-0.5-2.2-0.7-3.3c-1.9,0.1-3.4,0.3-4.6,0.3
				c-1.2,0.1-2.2,0.1-3,0.2c-0.8,0-1.9,0-3.1,0c-1.3,0-2.8,0-4.8,0c0.2,1.1,0.4,2.2,0.6,3.4c1.9,0,3.1,0.2,3.8,0.7
				c0.6,0.4,1.1,1.8,1.5,3.9c0.4,2.4,0.8,4.8,1.3,7.2c0.4,2.5,0.8,4.9,1.3,7.4c0.5,2.9,1.2,5.1,1.9,6.6c0.8,1.5,1.9,2.9,3.4,4.1
				c1.3,1,2.7,1.7,4.3,2.1c1.6,0.4,3.4,0.6,5.2,0.4c2.1-0.2,4-0.7,5.5-1.5c1.5-0.8,2.7-1.9,3.4-3.2c0.7-1.3,1.1-2.7,1.2-4.3
				c0.1-1.5-0.2-3.8-0.9-6.8C386.4,603.3,385.9,601.1,385.4,598.9z"/>
			
				<radialGradient id="SVGID_14_" cx="409.121" cy="601.0823" r="18.5342" gradientTransform="matrix(0.9972 0 0 0.9972 1.1396 1.1396)" gradientUnits="userSpaceOnUse">
				<stop  offset="0" style="stop-color:#FBEA00"/>
				<stop  offset="1" style="stop-color:#F9BE00"/>
			</radialGradient>
			<path class="st28" d="M423.1,611.6c-0.6-0.5-1.2-1.8-1.9-3.9c-0.8-2.9-1.7-5.7-2.5-8.5c-0.8-2.8-1.6-5.5-2.4-8.1
				c-0.6-2-0.7-3.2-0.4-3.7c0.3-0.4,1.2-0.7,2.8-0.8c-0.4-1-0.7-2.1-1-3.1c-2.2,0.2-3.6,0.3-4.5,0.3c-0.8,0.1-1.4,0.1-1.8,0.1
				c-0.4,0-1.1,0-2,0c-0.9,0-2.4,0-4.7,0c0.3,1,0.6,2.1,0.9,3.2c1.4,0,2.4,0.2,2.9,0.6c0.6,0.4,1.1,1.6,1.7,3.6
				c0.5,1.9,1.1,3.9,1.6,5.8c-3,0.2-6,0.3-9,0.5c-0.6-2-1.1-4-1.6-5.9c-0.5-2-0.6-3.2-0.3-3.7c0.3-0.5,1.2-0.8,2.6-0.9
				c-0.3-1.1-0.6-2.1-0.9-3.2c-2.2,0.2-3.7,0.3-4.6,0.3c-0.9,0.1-1.6,0.1-2.1,0.1c-0.5,0-1.1,0-2,0c-0.8,0-2.5,0-4.9,0
				c0.3,1.1,0.6,2.2,0.8,3.2c1.7,0,2.8,0.2,3.4,0.6c0.6,0.4,1.1,1.7,1.7,3.7c0.7,2.8,1.4,5.6,2.1,8.4c0.7,2.9,1.5,5.8,2.2,8.8
				c0.6,2.2,0.7,3.7,0.3,4.2c-0.4,0.5-1.4,0.9-3.1,1.1c0.3,1.3,0.5,2.5,0.8,3.7c2.5-0.4,4.3-0.6,5.2-0.7c0.9-0.1,1.6-0.2,2.1-0.2
				c0.5,0,1.2-0.1,2.2-0.1c1-0.1,2.6-0.1,5-0.2c-0.3-1.2-0.6-2.4-1-3.6c-1.6,0.1-2.6-0.2-3.2-0.6c-0.6-0.5-1.2-1.8-1.7-4
				c-0.6-2.4-1.3-4.8-1.9-7.1c3-0.2,6.1-0.4,9.1-0.6c0.7,2.3,1.3,4.7,2,7c0.6,2.2,0.8,3.5,0.5,4.1c-0.3,0.5-1.2,0.9-2.7,1.1
				c0.3,1.2,0.7,2.4,1,3.6c2.3-0.3,4-0.5,4.8-0.6c0.9-0.1,1.6-0.2,2-0.2c0.5,0,1.1-0.1,2-0.1c0.9,0,2.5-0.1,4.9-0.2
				c-0.3-1.2-0.7-2.4-1.1-3.5C424.8,612.2,423.7,612,423.1,611.6z"/>
		</g>
	</g>
</g>
</svg>
