<?xml version="1.0" encoding="utf-8"?>
<!-- Generator: Adobe Illustrator 22.1.0, SVG Export Plug-In . SVG Version: 6.00 Build 0)  -->
<svg version="1.1" id="图层_1" xmlns="http://www.w3.org/2000/svg" xmlns:xlink="http://www.w3.org/1999/xlink" x="0px" y="0px"
	 viewBox="0 0 800 800" style="enable-background:new 0 0 800 800;" xml:space="preserve">
<style type="text/css">
	.st0{fill:#E95414;}
</style>
<g>
	<path class="st0" d="M138.7,531.8c6.5,21.2,15.5,40.5,26.1,58.1c11.9-1.4,23.7-3.4,33.5-5.1c-13.8-20.6-24.2-42.6-31.1-65.8
		c-10.1-32.2-4.7-60.9,1.6-94.1c5.1-27,10.9-57.7,8.5-95.2c-2.8-43.4-16.1-89.1-40.7-139.9l-5.7-11.9l13.2,0.4c0.1,0,0.3,0,0.6,0
		c8.2,0,81.3-2.5,110.6-90.6l3-8.8l8.3,4.3c0.1,0.1,12,6.1,33.3,12.8c19.6,6.1,51.5,14.1,92,17.3c40.6-3.2,72.4-11.1,92-17.3
		c21.2-6.6,33.1-12.6,33.3-12.8l8.3-4.3l3,8.9c29.3,88,102.3,90.6,110.6,90.6c0.3,0,0.5,0,0.6,0l13.3-0.5l-5.8,12
		c-24.6,50.8-37.9,96.6-40.7,139.9c-2.4,37.5,3.4,68.2,8.5,95.2c6.3,33.2,11.8,61.9,1.6,94.1c-6.6,22-16.3,42.9-28.9,62.5
		c5.3,0.2,11.1,0.9,17.1,1.9c4.9,0.9,10.5,1.8,16.4,2.8c9.7-16.6,17.9-34.7,23.9-54.4c30.3-93.3-67.7-165.7,36.2-373.3
		c0,0-100.3,3.5-138.8-108.5c0,0-56,28-150.5,35c-94.5-7-150.5-35-150.5-35c-38.5,112-138.8,108.5-138.8,108.5
		C206.4,366.2,108.4,438.5,138.7,531.8z"/>
	<path class="st0" d="M602.3,514.6L602.3,514.6c-7.2,24.3-18.5,47.1-33.7,68.3c2.8-0.7,6-1.1,9.5-1.3c12.9-19,23.6-40.6,30.9-64.9
		c26-82.6-58-146.6,31-330.4c0,0-0.3,0-0.9,0c-9.1,0-87.1-2.7-118.2-96c0,0-48,24.8-129,31c-81-6.2-129-31-129-31
		c-31.1,93.3-109.1,96-118.2,96c-0.6,0-0.9,0-0.9,0c89,183.8,5,247.8,31,330.4c7.5,25.1,18.7,47.2,32.1,66.6c3-0.5,5.4-1,7.6-1.3
		c-14.8-20.9-25.9-43.4-33-67.3l0-0.1l0-0.1c-9-28.6-3.9-55.6,2-86.9c10.4-54.7,23.2-122.3-29-235c24.4-2.7,83.8-17.3,112.3-92.8
		c16.4,7.1,60.1,23.5,124.5,28.4l0.5,0l0.5,0c64.4-4.9,108-21.2,124.5-28.4c28.5,75.6,87.9,90.1,112.3,92.8
		c-52.2,112.7-39.3,180.4-29,235C606.2,458.9,611.3,485.9,602.3,514.6L602.3,514.6z"/>
	<path class="st0" d="M358.4,141.7l-5,23.6c0.2,4.2,0.9,8.9,9.4,10h25.1l1.4-7.4h-22.7c-1.7-0.3-2.7-0.7-2.9-2.7l4.9-23.5H358.4z"/>
	<path class="st0" d="M395.3,141.7l-4.8,23.6c0.2,4.2,0.9,8.9,9.4,10h25.7l1.4-7.4h-23.2c-1.7-0.3-2.8-0.7-2.9-2.7l4.6-23.5H395.3z"
		/>
	<path class="st0" d="M309.7,148c-1.6,2.3-2.6,6.8-3.5,9.3h9.4l0.4-1.7c0.7-2.7,2.2-5.5,5.5-6.3h21.6c-3.1,14.5-2.8,13-5.3,26h9.9
		l7-33.6h-33.5C315.8,141.7,312.3,144,309.7,148z"/>
	<path class="st0" d="M266.2,166.5c-1.6,2.1-1.9,7.4,1.8,8.8h13.3h24.1c2.2,0,6.5,0,7-2.8l1.1-5.5h23.3l1.4-7.2h-23.4h-9.2l-1.7,8.1
		c-5.1,0-14.6,0-19.7,0c-1.8,0.1-2.6-1.7-1.2-2.7c7.2-5.6,15.7-11.6,22.3-16.8c2-1.6,2.3-3.9,1.9-6.7h-7l0,0l-31.1,0l-1.5,7.5h21.6
		l-22.8,17.1C266.4,166.4,266.3,166.5,266.2,166.5z"/>
	<path class="st0" d="M476.5,143c-3.1,0-5.6-0.6-7.1-1.4c-0.2,0.2-0.4,0.5-0.6,0.7c-3,3.6-5.4,5.1-7.7,5.2l-0.3,1.9
		c1.3-0.1,4.6-0.3,8.1-1.2c3-0.8,6.1-2,8.1-4c0.4-0.4,0.7-0.8,0.9-1.2c-0.3,0-0.6,0-0.9,0H476.5z"/>
	<path class="st0" d="M490,141.5c-1,2.8-2.5,5.8-4.4,8.7c-1.7,2.8-3.9,5.5-6.4,8.1l4.9,0c0.5-0.3,1-0.6,1.5-1c1.8-1.3,3.7-3.1,5.4-5
		h8.5c-2.5,12.4-4,19.8-4.1,20.1c0,0.1-0.2,0.2-0.4,0.3c-0.4,0.2-1.5,0.2-3.4,0.1c0.5,1.5,0.7,3,0.8,4.5c2.9-0.3,6.9-0.7,8-1.3
		c0.6-0.3,1-1,1.2-1.8l4.4-22h7h1.6l-1.4,3.7h5.3l2.7-8.8l-8.2,0l-18.1,0c1.8-2.5,3.1-4.7,3.5-5.7H490z"/>
	<path class="st0" d="M513.1,158.9l-4,0c-0.4,2-1.5,13.6,4,17.3c1,0.7,2.2,1.1,3.7,1.2l0.6-3.2c-5.1,0-2.7-10.7-2-15.3L513.1,158.9z
		"/>
	<path class="st0" d="M476.9,177.5L476.9,177.5L476.9,177.5c3.6-0.1,6.4-2.3,8.7-5.1c4-4.9,6.1-11.9,6.4-13.4l-6.4,0l-0.1,0.3
		c-1.1,4.8-3.1,15.1-8.1,15.1L476.9,177.5z"/>
	<path class="st0" d="M432.9,169.8l-1.1,5.4l17.3,0l-0.5,2.3l6.3,0h0.2l0.5-2.3l13.3,0h4l1.1-5.4h-5.1l-12.2,0l0.3-1.7l11.9,0h4.4
		l0.8-3.9l0.2-1l0.3-1.7l1-4.9l0.4-1.7l0.8-4l0.2-0.9v0h-8.1h-8.2l1.7-8.3h-6.4l-1,4.7l-0.7,3.6h-16.3l-0.1,0.6l-0.9,4.3l-0.3,1.7
		l-1,4.9l-0.4,1.7l-0.1,0.7l-0.9,4.2h16.3l-0.3,1.7L432.9,169.8z M443.3,154.9h11.6l13.9,0h0.7l-0.3,1.7h-0.3l-13.9,0l-11.9,0
		L443.3,154.9z M441.6,163.2l0.3-1.7l12.9,0h13.3l-0.4,1.7h-12.9L441.6,163.2z"/>
	<path class="st0" d="M344,260.7c0,0,9.3-3.2,17.6,3.5c5,4,11.1,6.2,16.9,6.1c18.1-0.3,20.5-21.2-2.4-21.1
		C365.8,249.3,353.1,253.6,344,260.7z"/>
	<path class="st0" d="M244.5,385c0.7,5.8,4.5,8.2,9.1,9c1.2,0.3,2.4,0.4,3.6,0.5c6.1,0.3,7.9-2.7,16.1-5.5c4.7-1.6,9.2-1.4,12.6-0.8
		c3.2,0.7,5.3,1.8,5.3,1.8c-0.1-0.1-0.2-0.2-0.3-0.3c0.8,0.3,1.2,0.5,1.2,0.5c-2.3-3.2-5.7-4.9-9.5-5.5c-8.1-1.8-18.1,1.4-22,2.8
		c-1.2,0.5-2.3,0.6-3.3,0.5c-2.5-0.8-3.4-3.6-2.6-6.2c0.7-2.3,2.3-2.8,3.6-2.7c0.5,0.1,0.9,0.3,1.1,0.5c1.2,0.8-0.6,3.8-0.6,3.8
		c0.6,0.3,1.2,0.5,1.8,0.5c3.3,1,6.6-1.4,6-5.3c-0.4-3-3.5-4.5-5.1-4.6c-0.5-0.1-0.9-0.2-1.2-0.2c-0.4-1-1.7-3.2-4.6-3.4
		c-0.7-0.2-1.6-0.3-2.7-0.1c-5.1,0.8-4.3,5.4-4.3,5.4C245.2,376.4,243.9,380.9,244.5,385z"/>
	<path class="st0" d="M566.7,496.3c-20-13.9-42.9-4.9-55.8,4.7c45-48.3,50.6-117.4,21.3-175.2c-10.5-20.7-10.4-66.4,1.5-75.3
		c-5.2,2.2-22.1,19.4-22.1,46.2c0,26.9,10.8,40.8,5.2,42.5c-5.6,1.7-11.8-23.4-11.8-42.6c0-19.1-2.2-76.2-84.2-90.6
		c0,0,36.4,12.2,50.1,33.9c13.7,21.8,10.5,32,8,32c-2.5,0-2.9-25.3-34.2-46c-31.2-20.7-57.4-1-83.8-50c0,0,3.9,22,23.2,35.5
		c19.4,13.5,32.1,22.5,30.5,28.5c-1.6,6-0.7-6.2-32.3-19.2c-31.7-13-36.9,1.5-74.3-29c0,0,10.7,24.1,37.6,29.5c0,0-44,0.3-67.4,31.9
		c0,0,18-17.4,40.3-16.3c0,0-23.4,7.4-40.2,40c-16.9,32.6-9.1,34.1-25.1,48.6c0,0,22.3-5.2,31.9-24.8c9.6-19.6,31-24.3,47.8-22.2
		c16.8,2.1,18.4,8.4,16.5,12.6c-1.8,4.1-13.4,10.3-26.2,7c0,0,12.3,10.9,37.4,6.2c25.1-4.7,31-12.4,37.1-17.1
		c6.1-4.7,13.2-4.2,15.7,1.6c2.5,5.7,1.8,22.5-27.8,20.5c28.2,20.2,60.1-9.2,86.2,23.5c20.8,26.1,25.8,73.4,19.1,99.3
		c-0.7,2.7-1.3,3.3-1.4,2.3c-0.7-16-7.3-39.4-19-50.6c17.7,29.2-12.9,105.5-29,103.2c-5.1-23.4,0.8-49.2,18.2-40.2
		c-20.7-28.5-50.1-8.3-56.2,18.8c-0.9-23.1-0.9-31.1,10.3-53.4c9.5-19,8.3-24.6-2.8-47c0.3,17.8-19.2,43-32.7,45.7
		c-19.9-27.7,1.7-38.1,12.7-59.4c11-21.3-12.2-42.1-12.2-42.1c9,41.5-34.9,36.7-42.9,65.7c-7.1,25.8,25,48.3,22.5,66
		c-1.1-8.7-8.9-13.1-31.9-44.3c-23-31.3,0.8-37.9,8.9-56.5c8.1-18.6-14.6-27.9-14.6-27.9c3.1,4.4,4,8.4,3.6,11.9
		c0.9,1.7,3.5,8.2-6.2,16.1c-11.3,9.3-20.2,19.9-14.4,34.3c5.8,14.4,18.1,29.2,18.1,29.2s-31-29.4-25.1-46
		c4.8-13.6,27.4-19.1,27.4-32.5c-1.8,8.3-11.3,14.1-17.2,18.1c-5.1,3.5-14.3,12.4-12.4,26.5c1.2,9.7,7.6,21.8,23.9,36.2
		c19.7,17.5,31,28.5,34.8,42.1c3.3,11.6-1.7,23.5-13.7,25.9c6.1-6.5,9.7-15.4,8.3-24.3c-1.6-10.2-10.4-17.6-20.5-17.6
		c-6.4,0-12.5,2.1-16.7,6.9c-3.7,4.2-6,14.9,3.8,20.4c-0.2-4.5,1.1-7,3-8.2c4.3-2.9,9.1-1.4,11.8,0.2c7.1,4.3,6.5,12.2,2.9,18.6
		c-19.9,35-72.6,9.9-74.9-25.5c-1.5-23.4,12-48.2,38.2-49.3c-3.9-1.8-69.2-5.9-69.2,72.4c0,43.8,25.1,78.1,60.6,98.6
		c4.2-11.7,10.4-22.9,18.7-33.1c38.8-47.5,108.7-54.7,156.3-16.1c8-7.5,15.6-16.7,22.2-28c32.2-56.1,22.7-126.7,5.2-156.5
		c-17.4-29.8-50.9-61.8-89.3-65.7c0,0-7.6,11.8-22.4,11.3c-14.8-0.5-18.4-10.4-30.1-12.7c-11.8-2.2-17-2.3-17-2.3
		s16.8-22.6,46.9-21.6c30.1,1,23,19.4,23,19.4s65.8,3.5,99.8,82.5c24.8,57.7,13.5,132.5-36.7,174.9c9.5,8,17.3,17.2,23.4,27.2
		c14.5-11.7,25.9-23.7,35.8-32.7C549.3,489.3,566.7,496.3,566.7,496.3z M309.7,247.7c-13.7,7.7-16.3,14.4-16.3,14.4
		c0.2-1.4,2.9-10.2,15.4-18.1C318.8,237.6,332,235.1,309.7,247.7z M334.2,457c0,0-0.5-7.4-8.4-10.2c-7.9-2.8-13.4,4.9-13.4,4.9
		s3.2-11.1,13.2-8.7C335.9,445.4,334.2,457,334.2,457z M271.1,518.8c-26.2-11.5-32.8-43.3-29.1-67.8c3.2-20.8,15.1-35.8,15.1-35.8
		c-0.7,9.3-5.1,5.7-3.8,34.1c1.4,28.3,49.8,51.5,49.8,51.5s-15.1-4-31.8-8.7C254.7,487.4,319.6,540.2,271.1,518.8z M356,466.7
		c-3.8,9-9.7,14.6-17.4,16.1c0,0,2.3-2.6,4.9-5.6c-2.2,0.2-6.9,0-10.5-2.9c0,0,14,5.6,19.8-7.6c5.8-13.2,0.2-21,0.2-21
		S361.4,453.7,356,466.7z M383.3,439.3c1.1,2.2,2.1,3.6,2.1,3.6S384.2,441.7,383.3,439.3c-2.3-4.7-5-13.5,1.1-22.4
		c-2.7,1-5.4,1.3-7.9,1c0,0,21.7-7.3,32.1-34c-0.5,5.8-2.4,11.2-5.1,16c0.1,0,0.1,0,0.1,0l-0.3,0.4c-2,3.4-4.5,6.5-7.2,9.1
		c-3.5,4.7-7.5,10.5-10.5,15.9C382.1,431.8,382.4,436.4,383.3,439.3z M422.4,448.5c-6.8,11.4-6.6,33.3-33.9,38.5
		c9.6-3.8,17.8-10.4,24-23c-3.5-0.6-4.6,3.9-6.5,5c0,0,8.5-18.4,15.1-24.5c6.6-6.1,12.2-8.7,15.5-7.7
		C436.6,436.9,429.1,437.2,422.4,448.5z"/>
	<path class="st0" d="M417.8,653.5c1.5,0,2.6-0.3,3.2-0.9c0.6-0.6,1-1.7,1-3.1c0-1.2-0.3-2.1-0.9-2.7c-0.6-0.6-1.6-0.9-2.8-0.9
		c-0.5,0-0.8,0-0.9,0.1c-0.2,0.1-0.2,0.2-0.2,0.5l-0.1,7c0.1,0,0.2,0,0.4,0C417.6,653.5,417.7,653.5,417.8,653.5z"/>
	<polygon class="st0" points="438.9,658.3 444.6,658.8 442.5,651.4 	"/>
	<path class="st0" d="M344.4,653.5c-1.3-1.4-3-2-5-1.7c-2,0.3-3.5,1.3-4.2,2.9c-0.7,1.7-0.9,4.1-0.4,7.3c0.4,3,1.3,5.2,2.6,6.6
		c1.3,1.4,2.9,2,5,1.7c2-0.3,3.4-1.2,4.2-2.9c0.7-1.6,0.9-4,0.5-7.2C346.6,657.1,345.7,654.9,344.4,653.5z"/>
	<path class="st0" d="M372.6,649.9c-1.2-1.5-2.8-2.1-4.9-2c-2,0.2-3.5,1.1-4.3,2.7c-0.8,1.6-1.1,4-0.8,7.3c0.3,3,1,5.3,2.2,6.7
		c1.2,1.5,2.8,2.1,4.9,1.9c2-0.2,3.5-1.1,4.3-2.7c0.8-1.6,1.1-4,0.8-7.2C374.5,653.7,373.8,651.4,372.6,649.9z"/>
	<path class="st0" d="M418,654.9c-0.3,0-0.5,0-0.6,0s-0.3,0-0.4,0l-0.1,5.2c0,1.3,0.1,2.2,0.5,2.8c0.3,0.5,1,0.8,1.9,0.8
		c1.2,0,2-0.3,2.6-1.1c0.6-0.7,0.9-1.8,0.9-3.3c0-1.5-0.3-2.6-1.1-3.3C420.9,655.3,419.7,655,418,654.9z"/>
	<path class="st0" d="M585.9,676.4c-0.2,0-0.5,0-0.6,0c-0.1,0-0.3,0-0.4,0v5.2c0,1.3,0.2,2.2,0.5,2.8c0.4,0.5,1,0.8,1.9,0.8
		c1.2,0,2-0.4,2.6-1.1c0.6-0.7,0.9-1.8,0.9-3.3c0-1.5-0.4-2.6-1.2-3.3C588.8,676.8,587.6,676.4,585.9,676.4z"/>
	<path class="st0" d="M585.6,675c1.5,0,2.6-0.3,3.2-0.9c0.6-0.6,1-1.7,1-3.1c0-1.2-0.3-2.1-0.9-2.7c-0.6-0.6-1.6-0.9-2.8-0.9
		c-0.5,0-0.8,0-0.9,0.1c-0.1,0.1-0.2,0.2-0.2,0.5v7c0.1,0,0.2,0,0.4,0C585.4,675,585.6,675,585.6,675z"/>
	<polygon class="st0" points="241.4,679.8 247,679.2 243.7,672.3 	"/>
	<path class="st0" d="M445.8,610.7c0.4,1.1,0.8,2.2,1.2,3.3c1.1-0.2,2.1-0.3,3-0.5c0.9-0.1,1.8-0.2,2.6-0.3c0.5,0,1.2-0.1,2-0.1
		l0.2,0c1,0,2.3-0.1,4-0.1c-0.4-1.1-0.8-2.2-1.2-3.3c-0.9,0-1.9-0.5-3-1.6c-0.7-0.7-1.4-1.6-2.1-2.8c0,0,0,0,0-0.1
		c-2.5-4-5.1-7.9-7.6-11.8c-1.8-2.7-3.5-5.5-5.2-8.2c-0.7-1.1-1.4-2.1-2.1-3.2c-1.8,0.1-3.6,0.1-5.4,0.2c0.2,3.7,0.3,7.4,0.4,11.3
		c0.2,3.9,0.3,7.9,0.5,12c0.1,2.7,0,4.4-0.3,5.1c-0.3,0.7-0.9,1.1-1.8,1.1c0.4,1.1,0.7,2.3,1.1,3.4c0.2,0,0.4-0.1,0.7-0.1
		c1.8-0.3,3.1-0.4,3.9-0.5c0.5-0.1,1.1-0.1,2-0.1l1.1,0c0.7,0,1.6-0.1,2.7-0.1c-0.4-1.1-0.7-2.3-1.1-3.4c-0.2,0-0.4,0-0.6,0
		c-0.4,0-0.7,0-1,0c-0.4,0-0.7-0.1-1-0.2c-0.5-0.2-0.8-0.5-0.9-0.9c-0.1-0.2-0.1-0.5-0.2-0.8c-0.1-0.3-0.1-0.7-0.1-1
		c-0.1-1.1-0.1-2.2-0.2-3.4l2.5-0.2l6-0.4c0.7,1.1,1.3,2.2,2,3.2c0.2,0.4,0.4,0.7,0.5,0.8c0.1,0.2,0.2,0.4,0.2,0.5
		c0.2,0.7,0.2,1.1-0.1,1.3C447.9,610.4,447.1,610.6,445.8,610.7z M439.6,600.4l-2.8,0.2c-0.2-2.1-0.3-4.3-0.4-6.4
		c-0.1-2.1-0.3-4.1-0.4-6.2c1.2,2,2.4,4,3.6,6l0,0.1c1.2,2,2.4,4,3.6,6.1L439.6,600.4z"/>
	<path class="st0" d="M478.7,611.3c1.8-0.1,3.5-0.3,5.3-0.4c-1.7-3.9-3.3-7.7-4.9-11.5c-1.6-3.7-3.2-7.4-4.7-10.9
		c-0.8-1.8-1.1-2.9-0.9-3.3c0.2-0.4,0.9-0.7,2.2-0.7c-0.4-0.9-0.8-1.9-1.2-2.8c-0.5,0.1-1.1,0.2-1.8,0.2c-0.7,0.1-1.4,0.1-2.3,0.1
		c-0.5,0-1.2,0-2,0c-0.8,0-2,0-3.6,0c0.4,0.9,0.8,1.9,1.2,2.8c1.4,0,2.3,0.2,2.9,0.6c0.5,0.4,1.2,1.5,1.9,3.3c1,2.5,2.1,5,3.2,7.6
		c1.1,2.6,2.2,5.2,3.3,7.8c-1.6-2.2-3.1-4.2-4.4-6c-1.3-1.7-2.4-3.1-3.4-4.3c-1.6-2-3.2-3.9-4.8-5.9c-1.6-1.9-3.2-3.8-4.7-5.8
		c-0.9,0.1-1.8,0.2-2.6,0.2c-0.8,0.1-1.5,0.1-2.2,0.1l-0.7,0c-0.5,0-1,0-1.5,0c-0.8,0-1.7,0-2.7-0.1c0.4,1,0.7,1.9,1.1,2.9
		c1.4,0,2.4,0.2,2.9,0.6c0.1,0,0.1,0.1,0.2,0.1c0.5,0.5,1.1,1.6,1.7,3.2c1,2.5,2,5,3,7.6c1,2.6,2,5.2,3,7.9c0.8,2,1.1,3.3,0.8,3.8
		c-0.2,0.5-1.1,0.8-2.5,1c0.4,1.1,0.8,2.2,1.2,3.3c0.6-0.1,1.3-0.2,2-0.3c0.7-0.1,1.6-0.2,2.6-0.3c0.6,0,1.3-0.1,2.1-0.1
		c0.9,0,2.1-0.1,3.8-0.1c-0.4-1.1-0.9-2.2-1.3-3.3c-1.4,0.1-2.4-0.1-3-0.5c-0.6-0.4-1.3-1.6-2.1-3.6c-1.2-2.9-2.3-5.9-3.4-8.7
		c-1.1-2.8-2.2-5.6-3.3-8.4c3.2,3.9,6.3,7.8,9.5,11.8C472,603.1,475.4,607.2,478.7,611.3z"/>
	<path class="st0" d="M316.6,590.5c0.2,0,0.5,0,0.9,0c0.4,0,0.8,0,1.1,0c-0.1-1.2-0.2-2.4-0.3-3.6c-1.2,0.1-2.5,0.2-3.8,0.3
		c-1.4,0.1-2.9,0.2-4.4,0.2c-1.6,0.1-3.1,0.1-4.5,0.1c-1.4,0-2.7,0-4,0c0.1,1.2,0.1,2.5,0.1,3.7c0.2,0,0.5,0,0.7,0
		c2-0.1,3.6,1.5,4.5,4.8c0,0.1,0.1,0.3,0.1,0.4c0.7,2.4,1.4,4.7,2.1,7.2c0.7,2.4,1.4,4.8,2.1,7.3c0.7,2.5,1.5,5,2.2,7.6
		c0.7,2.6,1.5,5.1,2.2,7.7c3-0.3,5.9-0.5,8.9-0.8c0.3-2.7,0.7-5.3,1-7.9c0.3-2.6,0.6-5.2,0.9-7.7c0.3-2.5,0.6-4.9,0.9-7.3
		c0.3-2.4,0.6-4.8,0.9-7.2c0.8,2.3,1.5,4.7,2.3,7c0.7,2.4,1.5,4.7,2.3,7.1c0.8,2.5,1.6,4.9,2.4,7.4c0.8,2.5,1.6,5,2.5,7.5
		c2.8-0.2,5.6-0.5,8.3-0.7c0.2-2.5,0.5-5,0.7-7.5c0.2-2.5,0.5-4.9,0.7-7.3c0.2-2.3,0.4-4.7,0.7-6.9c0.2-2.3,0.5-4.6,0.7-6.8
		c0-0.3,0.1-0.8,0.1-1.3c0.3-2.9,1.3-4.3,3.3-4.4c-0.2-1.2-0.4-2.3-0.6-3.4c-0.9,0.1-1.9,0.2-2.9,0.3c-1,0.1-2.1,0.1-3.3,0.2
		c-1.2,0-2.3,0.1-3.4,0.1c-1,0-2.1,0-3.1-0.1c0.2,1.2,0.3,2.3,0.4,3.5c0.3,0,0.6,0,1,0c1.2,0,2,0,2.6,0.2c0.5,0.2,0.8,0.6,0.8,1.2
		c0,0.2,0,0.8,0,1.6c0,0.2,0,0.3,0,0.4c-0.2,2.5-0.4,5.1-0.6,7.7c-0.2,2.6-0.4,5.3-0.6,8c0,0.8-0.1,1.8-0.1,3.2
		c-0.1,1.4-0.1,3-0.2,4.7c-0.4-1.4-0.7-2.7-1.1-3.8c-0.3-1.1-0.6-2.1-0.9-2.9c-1.4-4.1-2.8-8.1-4.2-12.1c-1.4-3.9-2.7-7.8-4.1-11.6
		c-2.3,0.1-4.7,0.1-7,0.2c-0.5,3.7-1,7.6-1.5,11.4c-0.5,4-1,8-1.6,12.1c-0.2,1.4-0.3,2.8-0.4,4.1c-0.1,1.4-0.2,2.7-0.3,4.1
		c-0.5-1.9-1-4.1-1.7-6.6c0-0.1-0.1-0.2-0.1-0.4c-0.7-2.7-1.5-5.3-2.3-7.9c-0.7-2.6-1.5-5.1-2.2-7.7c0-0.2-0.1-0.6-0.3-1
		c-0.4-1.4-0.6-2.2-0.6-2.7c0-0.6,0.1-1.1,0.4-1.3C314.9,590.7,315.6,590.5,316.6,590.5z"/>
	<path class="st0" d="M371.9,588.4c-0.2-1.1-0.5-2.2-0.7-3.3c-1.9,0.1-3.4,0.3-4.6,0.3c-1.2,0.1-2.2,0.1-3,0.2c-0.8,0-1.9,0-3.1,0
		c-1.3,0-2.8,0-4.8,0c0.2,1.1,0.4,2.2,0.6,3.4c1.9,0,3.1,0.2,3.8,0.7c0.6,0.4,1.1,1.8,1.5,3.9c0.4,2.4,0.8,4.8,1.3,7.2
		c0.4,2.5,0.8,4.9,1.3,7.4c0.5,2.9,1.2,5.1,1.9,6.6c0.8,1.5,1.9,2.9,3.4,4.1c1.3,1,2.7,1.7,4.3,2.1c1.6,0.4,3.4,0.6,5.2,0.4
		c2.1-0.2,4-0.7,5.5-1.5c1.5-0.8,2.7-1.9,3.4-3.2c0.7-1.3,1.1-2.7,1.2-4.3c0.1-1.5-0.2-3.8-0.9-6.8c-0.5-2.2-1-4.4-1.5-6.6
		c-0.5-2.1-1-4.3-1.5-6.4c-0.5-2.1-0.5-3.4-0.1-3.8c0.4-0.5,1.4-0.8,3.2-0.9c-0.3-1.1-0.5-2.2-0.8-3.3c-0.7,0.1-1.5,0.2-2.4,0.3
		c-0.8,0.1-1.9,0.1-3.1,0.2c-0.6,0-1.3,0-2.4,0c-1,0-2.7,0-5.1,0c0.2,1.1,0.5,2.2,0.7,3.3c1.8,0,3,0.2,3.6,0.7
		c0.6,0.4,1.1,1.7,1.6,3.8c0.5,2.1,0.9,4.2,1.4,6.3c0.5,2.1,0.9,4.3,1.4,6.5c0.8,3.5,0.8,6.2,0.2,8c-0.6,1.9-2,2.9-4,3.1
		c-2.1,0.2-3.8-0.6-5.2-2.3c-1.3-1.7-2.3-4.2-3-7.7c-0.5-2.3-0.9-4.5-1.3-6.8c-0.4-2.2-0.8-4.4-1.3-6.6c-0.4-2.1-0.4-3.5,0-3.9
		C369,588.8,370.1,588.5,371.9,588.4z"/>
	<path class="st0" d="M414,613.2c0.3,1.2,0.7,2.4,1,3.6c2.3-0.3,4-0.5,4.8-0.6c0.9-0.1,1.6-0.2,2-0.2c0.5,0,1.1-0.1,2-0.1
		c0.9,0,2.5-0.1,4.9-0.2c-0.3-1.2-0.7-2.4-1.1-3.5c-1.6,0.1-2.7-0.1-3.3-0.5c-0.6-0.5-1.2-1.8-1.9-3.9c-0.8-2.9-1.7-5.7-2.5-8.5
		c-0.8-2.8-1.6-5.5-2.4-8.1c-0.6-2-0.7-3.2-0.4-3.7c0.3-0.4,1.2-0.7,2.8-0.8c-0.4-1-0.7-2.1-1-3.1c-2.2,0.2-3.6,0.3-4.5,0.3
		c-0.8,0.1-1.4,0.1-1.8,0.1c-0.4,0-1.1,0-2,0c-0.9,0-2.4,0-4.7,0c0.3,1,0.6,2.1,0.9,3.2c1.4,0,2.4,0.2,2.9,0.6
		c0.6,0.4,1.1,1.6,1.7,3.6c0.5,1.9,1.1,3.9,1.6,5.8c-3,0.2-6,0.3-9,0.5c-0.6-2-1.1-4-1.6-5.9c-0.5-2-0.6-3.2-0.3-3.7
		c0.3-0.5,1.2-0.8,2.6-0.9c-0.3-1.1-0.6-2.1-0.9-3.2c-2.2,0.2-3.7,0.3-4.6,0.3c-0.9,0.1-1.6,0.1-2.1,0.1c-0.5,0-1.1,0-2,0
		c-0.8,0-2.5,0-4.9,0c0.3,1.1,0.6,2.2,0.8,3.2c1.7,0,2.8,0.2,3.4,0.6c0.6,0.4,1.1,1.7,1.7,3.7c0.7,2.8,1.4,5.6,2.1,8.4
		c0.7,2.9,1.5,5.8,2.2,8.8c0.6,2.2,0.7,3.7,0.3,4.2c-0.4,0.5-1.4,0.9-3.1,1.1c0.3,1.3,0.5,2.5,0.8,3.7c2.5-0.4,4.3-0.6,5.2-0.7
		c0.9-0.1,1.6-0.2,2.1-0.2c0.5,0,1.2-0.1,2.2-0.1c1-0.1,2.6-0.1,5-0.2c-0.3-1.2-0.6-2.4-1-3.6c-1.6,0.1-2.6-0.2-3.2-0.6
		c-0.6-0.5-1.2-1.8-1.7-4c-0.6-2.4-1.3-4.8-1.9-7.1c3-0.2,6.1-0.4,9.1-0.6c0.7,2.3,1.3,4.7,2,7c0.6,2.2,0.8,3.5,0.5,4.1
		C416.4,612.7,415.5,613,414,613.2z"/>
	<path class="st0" d="M393.9,717.5l-2,0.5l-2-0.5c-1-0.3-15.2-4-36.1-12.7c-17.3,2.1-33.4,4.6-48.4,7.1c-1.5,0.2-3.1,0.5-4.6,0.7
		c49.9,26.9,91.2,37.4,91.2,37.4s46-11.7,99.7-42.1c-15.8-2.8-33.1-5.4-53.2-6.6C412.9,712.4,395.1,717.2,393.9,717.5z"/>
	<path class="st0" d="M528.6,627c3,0.5,5.9,1,8.9,1.4c5.2-4.9,10.4-10,15.4-15.3l0.1-10.6c-0.5,0.6-1,1.2-1.6,1.8
		C544.4,612.2,536.8,619.7,528.6,627z"/>
	<path class="st0" d="M357.4,704.4c14.7,5,30.1,6.7,45.3,5.2c11.1-1.1,22-4,32.2-8.5c-5.7-0.3-11.6-0.4-17.7-0.4c-1.7,0-3.5,0-5.2,0
		c-1.7,0-3.5,0.1-5.2,0.1c0,0,0,0,0,0c-0.4,0-0.8,0-1.2,0c-3.1,0.1-6.2,0.2-9.3,0.4c-1.8,0.6-3.2,1-4.3,1.3c-0.8-0.2-1.8-0.5-3-0.9
		c-6.1,0.4-12,0.8-17.8,1.4c1.4,0.5,2.7,1,4,1.4c-2.1-0.3-4.2-0.7-6.3-1.2C364.9,703.6,361.1,704,357.4,704.4z"/>
	<path class="st0" d="M226.7,610.2c-5.5,0.3-13.7,0.8-20.5,2.3c-5.7,1.2-7.9,2.6-8.5,3.2c0.3,2,3.5,5.2,10,7.8
		c6.1,2.5,17.2,5.5,35.6,5.5c1.1,0,2.2,0,3.4,0l0-24c-3.4,2.4-8.3,4-14.7,4.8C230.9,609.9,229,610,226.7,610.2z"/>
	<path class="st0" d="M209,596.2c4-0.4,14.6-1.3,19.9-2.5c-1.8-0.9-4.2-1.8-6.9-2.6c-2-0.6-3.5-2.4-3.7-4.4
		c-3.9,0.5-8.9,1.5-16.2,2.8c-23,4.1-75.5,13-94,3.8c0,0,21.3,32.2,37.5,39.5l-40.1,36.6c0,0,4.8,6,47.7,4.7
		c11.3-0.3,20.6-1.1,28.2-2l-1.2-55.5C179.8,600.8,195.4,597.4,209,596.2z"/>
	<path class="st0" d="M609.2,617c-4.2-1.8-17.8-4.1-25.4-5.5c-4.8-0.8-9.8-1.7-14.6-2.7c-4.8-0.9-8.4-2.3-10.9-4.2l-0.3,24.5
		c3.4-0.2,6.8-0.5,10.3-1C598.5,623.7,606.9,618.9,609.2,617z"/>
	<path class="st0" d="M657.7,630.8c16-7.2,37.2-39.1,37.2-39.1c-18.3,9.1-65.5,1.6-91.1-3c-16.1-2.9-28.9-2.5-36.8,0.1
		c0.2,0.3,0.3,0.7,0.4,1c0.3,0.6,3.3,5.3,17.9,5.3c0.5,0,1.1,0,1.6,0c0.7,0,1.4,0,2.1,0c11,0,21,2.1,28.3,5.9
		c7.9,4.2,12.2,10.1,12.2,16.9c0,5.8-1.1,31.9-1.9,52.4c6.4,0.6,13.9,1.1,22.6,1.4c42.5,1.3,47.3-4.7,47.3-4.7L657.7,630.8z"/>
	<path class="st0" d="M587,600.4c-22.4,0.5-24.7-9-24.7-9s-11,8.7,7.8,12.4c18.8,3.7,40.5,6.3,43.9,10.3c3.4,3.9,1.5,12.6-45.1,19.4
		c-37.4,5.5-59.8-8-108.8-15.6c-0.4,0.1-0.8,0.2-1.2,0.2c-1.7,0-3,0.1-3.9,0.1c-0.8,0-1.5,0.1-2.1,0.1c-0.8,0.1-1.6,0.1-2.4,0.2
		c-0.8,0.1-1.8,0.3-2.8,0.4c-1,0.2-2,0-2.8-0.4c-0.7,0.5-1.6,0.9-2.6,0.9c-1.6,0-2.9,0.1-3.7,0.1l-1.8,0.1c-0.8,0.1-2,0.2-3.7,0.5
		l-0.5,0.1c-0.3,0-0.5,0.1-0.8,0.1c-0.4,0-0.8-0.1-1.2-0.2c-0.6,0.3-1.2,0.5-1.9,0.5c-2.3,0.1-3.9,0.2-4.7,0.2
		c-0.8,0-1.4,0.1-1.8,0.1c-0.5,0-1.1,0.1-1.9,0.2c-0.9,0.1-2.5,0.3-4.8,0.6c-0.4,0.1-0.9,0.1-1.3,0c-0.4,0.1-0.8,0.2-1.2,0.2
		c-2.3,0.1-3.9,0.2-4.9,0.2c-0.9,0-1.6,0.1-2,0.1c-0.5,0-1.2,0.1-2,0.2c-0.9,0.1-2.6,0.3-5.1,0.7c-0.2,0-0.4,0-0.6,0
		c-2,0-3.8-1.4-4.3-3.3c-0.2-0.9-0.4-1.8-0.6-2.7l-0.3-1.1c-0.2-1.1-0.1-2.2,0.5-3.1c-0.1,0-0.3,0-0.4,0c0,0,0,0.1,0,0.1
		c-0.1,2.3-0.7,4.3-1.7,6.2c-1.2,2.1-2.9,3.8-5.2,5c-2.1,1.1-4.5,1.8-7.2,2c-0.6,0.1-1.3,0.1-1.9,0.1c-1.7,0-3.3-0.2-4.8-0.6
		c-2.2-0.6-4.2-1.6-5.9-2.9c-2-1.5-3.5-3.3-4.6-5.5c-0.4-0.8-0.7-1.6-1.1-2.5c-3.3,0.4-6.6,0.7-9.7,1.2c0,0.3-0.1,0.5-0.1,0.8
		l-0.2,1.8c-0.2,1.9-0.4,3.8-0.5,5.7c-0.2,2.1-1.9,3.8-4,4c-2.8,0.2-5.5,0.5-8.3,0.7c-2,0.2-3.9-1.1-4.6-3c-0.7-2.2-1.5-4.5-2.2-6.7
		c-0.5,0.1-1,0.2-1.6,0.3c-0.1,1-0.2,2-0.4,3l-0.4,3.6c-0.3,2.1-1.9,3.7-4,3.9l-0.7,0.1c-2.7,0.2-5.4,0.5-8.2,0.7
		c-0.1,0-0.3,0-0.4,0c-1.9,0-3.7-1.3-4.2-3.2l-0.8-2.6c-0.1-0.4-0.2-0.8-0.4-1.3c-18.3,4.2-34.4,8.4-51.8,9.8
		c-43.5,3.4-65.9-7.9-66.2-18.1c-0.3-10.2,33-10.2,38.9-11c5-0.7,17.6-3.1,15.3-10.9c-1.7-5.8-17.8-8.1-23.2-7.6
		c0,0,13.4,3.9,13.1,8.1c-0.3,4.2-6.4,5.5-27.1,7.3c-20.7,1.8-24.2,8-24.1,15.2l1.7,75.9c0,0,13.6,21.5,54,21.5
		c40.3,0,93.2-16.2,164.2-18.3c71-2.1,107.9,15.2,155.7,16.8c47.7,1.6,60.2-16.2,60.2-16.2s3-68.5,3-78.2
		C624.3,608.2,609.5,599.9,587,600.4z M232.3,688.5l-16.6,0.3l0-1.3l11-18l-3.1,0c-2.1,0-3.6,0.4-4.4,1c-0.8,0.6-1.3,1.7-1.6,3.2
		l-1.2,0l-0.1-5.6l15.9-0.3l0,1.3l-11,17.9l4.1-0.1c1.8,0,3.2-0.4,4.2-1.2c0.9-0.7,1.5-2,1.8-3.6l1.2,0L232.3,688.5z M254.8,686.5
		c-0.9,0.1-1.8,0.1-2.7,0.2c-0.9,0.1-1.7,0.2-2.6,0.2c-0.9,0.1-1.8,0.2-2.7,0.3l-0.1-1.3c1.1-0.2,1.8-0.3,2.1-0.5
		c0.3-0.2,0.5-0.5,0.4-0.9c0-0.2-0.1-0.6-0.2-1c-0.2-0.4-0.3-0.9-0.6-1.3l-0.8-1.6l-6.9,0.6l-0.4,1.2c-0.1,0.5-0.2,0.9-0.3,1.3
		c-0.1,0.4-0.1,0.8-0.1,1c0.1,0.6,0.3,1,0.7,1.2c0.5,0.2,1.1,0.3,2,0.2l0.1,1.3c-0.7,0-1.3,0-1.9,0.1c-0.6,0-1.3,0.1-1.9,0.1
		c-0.6,0.1-1.2,0.1-1.8,0.2c-0.6,0.1-1.2,0.1-1.8,0.2l-0.1-1.3c0.7-0.1,1.3-0.4,1.8-0.8c0.5-0.4,0.8-1.1,1.1-1.8l5.9-18.2l1.5-0.1
		l8.5,16.8c0.4,0.9,0.9,1.5,1.4,1.7c0.5,0.3,1.1,0.5,2,0.4l0.1,1.3C256.6,686.4,255.7,686.5,254.8,686.5z M274.1,683.4
		c-1.6,0.2-3.1,0.5-4.7,0.7c-1.1,0.2-2.3,0.3-3.5,0.6c-1.3,0.2-2.6,0.4-4,0.7c-0.1,0-0.2,0-0.4,0.1c-0.2,0-0.3,0.1-0.4,0.1
		c-0.1,0-0.2,0-0.4,0c-0.2,0-0.3,0-0.4,0.1l-0.2-1.3l0.2,0c1-0.2,1.6-0.5,1.9-1c0.3-0.5,0.3-1.3,0.2-2.5l-2-12.6
		c-0.1-0.9-0.4-1.5-0.9-1.8c-0.4-0.3-1.1-0.4-2.2-0.2l-0.2,0l-0.2-1.2c1-0.1,1.9-0.3,2.8-0.4c0.9-0.1,1.7-0.2,2.5-0.3
		c0.6-0.1,1.3-0.2,2.2-0.4c0.9-0.2,1.9-0.3,3.1-0.6l0.2,1.2l-0.2,0c-1.1,0.2-1.8,0.5-2.1,0.9c-0.3,0.4-0.4,1.1-0.2,2.2l1.8,11.2
		c0.2,1.6,0.7,2.6,1.3,3.1c0.6,0.5,1.7,0.6,3.2,0.4c1.7-0.3,3-0.9,3.8-1.7c0.8-0.9,1.3-2.1,1.3-3.8l1.3-0.2l0.9,6.2
		C277.3,682.9,275.7,683.2,274.1,683.4z M295.9,679.4c-1.6,0.3-3.1,0.5-4.7,0.8c-1.1,0.2-2.3,0.4-3.5,0.6c-1.3,0.2-2.6,0.5-4,0.8
		c-0.1,0-0.2,0-0.4,0.1c-0.2,0-0.3,0.1-0.4,0.1c-0.1,0-0.2,0-0.4,0.1c-0.2,0-0.3,0-0.4,0l-0.2-1.2l0.2,0c1-0.2,1.6-0.5,1.9-1
		c0.3-0.5,0.3-1.3,0.1-2.5l-2.2-12.6c-0.2-0.9-0.5-1.5-0.9-1.8c-0.4-0.3-1.2-0.3-2.2-0.2l-0.2,0l-0.2-1.2c1-0.1,1.9-0.3,2.8-0.4
		c0.9-0.1,1.7-0.3,2.5-0.4c0.6-0.1,1.3-0.2,2.2-0.4c0.9-0.2,1.9-0.4,3.1-0.6l0.2,1.2l-0.2,0c-1.1,0.2-1.8,0.5-2.1,0.9
		c-0.3,0.4-0.4,1.1-0.2,2.2l2,11.2c0.3,1.6,0.7,2.6,1.4,3.1c0.6,0.5,1.7,0.5,3.2,0.3c1.7-0.3,3-0.9,3.8-1.8c0.8-0.9,1.2-2.2,1.3-3.8
		l1.3-0.2l0.9,6.1C299,678.9,297.5,679.1,295.9,679.4z M323.5,658.7c-0.5-1.4-1.2-2.3-2.2-2.7c-1-0.4-2.7-0.4-5,0
		c-0.7,0.1-1.1,0.3-1.3,0.4c-0.2,0.2-0.2,0.5-0.2,1l1.2,6.7l0.5-0.1c1.2-0.2,2-0.6,2.5-1.3c0.5-0.6,0.7-1.6,0.7-2.8l1.3-0.2
		c0,0.1,0,0.2,0.1,0.5c0.3,1.8,0.5,3.1,0.6,3.8c0.1,0.7,0.2,1.3,0.4,2c0.1,0.7,0.2,1.3,0.4,2l-1.3,0.2c-0.4-1.3-0.9-2.1-1.6-2.6
		c-0.6-0.4-1.5-0.5-2.7-0.3c-0.1,0-0.2,0-0.3,0.1c-0.1,0-0.2,0.1-0.3,0.1l0.9,5.3c0.3,1.5,0.6,2.3,1.1,2.6c0.5,0.3,1.4,0.3,2.7,0.2
		l0.2,1.2c-0.5,0-1.1,0.1-1.7,0.2c-0.6,0.1-1.4,0.2-2.2,0.3c-2.1,0.4-3.6,0.7-4.7,0.9c-1.1,0.2-1.8,0.4-2.2,0.5l-0.2-1.3
		c1.2-0.2,2-0.6,2.3-1.1c0.3-0.5,0.4-1.4,0.1-2.8l-2.1-11.7c-0.2-1.2-0.5-1.9-1-2.3c-0.5-0.3-1.3-0.4-2.5-0.2l-0.2-1.3
		c1.1-0.1,2.4-0.3,3.8-0.5c1.4-0.2,3.1-0.5,5.1-0.9c1.6-0.3,3.1-0.6,4.4-0.8c1.3-0.3,2.5-0.5,3.7-0.7l1.1,5.3L323.5,658.7z
		 M352.3,663.7c-0.4,1.4-1,2.6-2,3.8c-1,1.2-2.1,2.1-3.5,2.8c-1.3,0.7-2.9,1.2-4.6,1.4c-3.4,0.5-6.3-0.1-8.7-1.8
		c-2.4-1.7-3.8-4.1-4.2-7.3c-0.5-3.2,0.2-5.9,2.1-8.2c1.9-2.3,4.5-3.7,8-4.2c1.7-0.3,3.4-0.2,4.8,0.1c1.5,0.3,2.8,0.9,4.1,1.8
		c1.2,0.9,2.1,1.9,2.8,3.1c0.7,1.2,1.2,2.6,1.4,4.1C352.7,660.9,352.6,662.4,352.3,663.7z M379.9,660.6c-0.4,1.3-1.2,2.6-2.2,3.7
		c-1,1.1-2.2,2-3.6,2.6c-1.4,0.6-3,1-4.7,1.2c-3.4,0.3-6.3-0.5-8.6-2.3c-2.3-1.8-3.6-4.3-3.8-7.5c-0.3-3.2,0.6-5.9,2.6-8.1
		c2-2.2,4.7-3.5,8.2-3.8c1.8-0.2,3.4,0,4.8,0.4c1.4,0.4,2.8,1.1,4,2c1.1,0.9,2,2,2.7,3.2c0.6,1.2,1,2.6,1.2,4.2
		C380.5,657.8,380.3,659.3,379.9,660.6z M403.8,650.5c-0.3-1.6-0.9-2.6-1.7-3.3c-0.8-0.6-2-0.9-3.6-0.9c-0.3,0-0.7,0-1.4,0.1l-0.1,0
		l0.5,15.3c0,1,0.3,1.6,0.7,2c0.4,0.3,1.3,0.5,2.6,0.5l0,1.3c-0.8,0-1.7,0-2.5,0c-0.9,0-1.7,0-2.7,0.1c-0.9,0-1.8,0.1-2.8,0.1
		c-1,0-2,0.1-3.1,0.2l-0.1-1.3c1.2-0.1,2-0.3,2.4-0.7c0.4-0.3,0.5-1,0.5-2l-0.5-15.3c-0.2,0-0.3,0-0.5,0c-0.2,0-0.4,0-0.8,0
		c-1.7,0.1-3,0.4-3.7,1.1c-0.8,0.7-1.2,1.8-1.4,3.4l-1.2,0l0-6c1.1,0,2.3,0,3.5,0c1.3,0,2.8-0.1,4.5-0.1c2.5-0.1,4.7-0.2,6.6-0.3
		c1.9-0.1,3.7-0.2,5.3-0.3l0.5,5.9L403.8,650.5z M425.9,664c-1.6,0.9-3.8,1.4-6.9,1.3c-0.5,0-1.4,0-2.7-0.1c-1.3-0.1-2.3-0.1-3-0.1
		c-0.6,0-1.2,0-1.9,0c-0.7,0-1.4,0-2.3,0.1l0-1.3c1.1,0,1.9-0.2,2.3-0.5c0.4-0.4,0.6-1.1,0.6-2.2l0.2-12.8c0-1.1-0.2-1.8-0.5-2.1
		c-0.4-0.4-1.2-0.5-2.3-0.6l0-1.3c0.8,0.1,1.5,0.1,2.2,0.2c0.6,0,1.2,0.1,1.7,0.1c0.7,0,1.6,0,2.8,0c1.2,0,2,0,2.6,0
		c2.9,0,5,0.5,6.4,1.3c1.4,0.8,2.1,2.1,2,3.8c0,1.3-0.5,2.3-1.5,3.1c-1,0.8-2.4,1.3-4.2,1.5c2.3,0.3,4.1,1,5.2,1.9
		c1.1,0.9,1.7,2.2,1.7,3.8C428.2,661.7,427.5,663.1,425.9,664z M453.6,667.6c-0.9-0.1-1.8-0.2-2.7-0.3c-0.9-0.1-1.8-0.2-2.7-0.2
		c-0.9-0.1-1.7-0.2-2.6-0.2c-0.9-0.1-1.8-0.1-2.7-0.2l0.1-1.3c1.1,0,1.8,0,2.2-0.1c0.3-0.1,0.5-0.4,0.6-0.8c0-0.2,0-0.6-0.1-1
		c-0.1-0.4-0.2-0.9-0.3-1.4l-0.5-1.7l-6.9-0.6l-0.6,1.2c-0.2,0.4-0.4,0.8-0.6,1.3c-0.2,0.4-0.2,0.7-0.3,1c-0.1,0.6,0.1,1,0.5,1.3
		c0.4,0.3,1,0.5,1.9,0.6l-0.1,1.3c-0.6-0.1-1.3-0.2-1.9-0.2c-0.6-0.1-1.3-0.1-1.9-0.2c-0.6-0.1-1.2-0.1-1.8-0.1
		c-0.6,0-1.2-0.1-1.8-0.1l0.1-1.3c0.7,0,1.4-0.2,1.9-0.5c0.5-0.3,1-0.9,1.4-1.6l8.9-16.8l1.6,0.1l5.4,18c0.3,0.9,0.6,1.6,1.1,2
		c0.4,0.4,1,0.7,1.8,0.8L453.6,667.6z M474.7,670.6c-1.5-0.2-3.1-0.4-4.6-0.6c-1.6-0.2-3.1-0.4-4.7-0.6c-1.1-0.1-2.3-0.3-3.5-0.4
		c-1.3-0.2-2.6-0.3-4.1-0.4c-0.1,0-0.2,0-0.4,0c-0.2,0-0.3,0-0.4,0c-0.1,0-0.2,0-0.4-0.1c-0.2,0-0.3-0.1-0.4-0.1l0.2-1.3l0.2,0
		c1,0.1,1.7,0,2.1-0.4c0.4-0.4,0.7-1.2,0.9-2.4l1.6-12.7c0.1-0.9,0-1.6-0.3-2c-0.3-0.4-1-0.7-2-0.8l-0.1,0l0.2-1.2
		c1,0.2,1.9,0.3,2.8,0.4c0.9,0.1,1.7,0.2,2.5,0.3c0.6,0.1,1.3,0.2,2.2,0.2c0.9,0.1,2,0.2,3.1,0.3l-0.2,1.2l-0.2,0
		c-1.1-0.1-1.9,0-2.3,0.3c-0.4,0.3-0.7,1-0.8,2l-1.4,11.2c-0.2,1.6-0.1,2.7,0.4,3.3c0.5,0.6,1.5,1,3,1.2c1.7,0.2,3.1,0,4.1-0.6
		c1-0.6,1.8-1.7,2.3-3.3l1.3,0.2L474.7,670.6z M496.4,674.4c-1.5-0.3-3.1-0.6-4.6-0.8c-1.6-0.3-3.1-0.5-4.7-0.8
		c-1.1-0.2-2.3-0.4-3.5-0.5c-1.3-0.2-2.6-0.4-4.1-0.6c-0.1,0-0.2,0-0.4,0c-0.2,0-0.3,0-0.4,0c-0.1,0-0.2,0-0.4-0.1
		c-0.2,0-0.3-0.1-0.4-0.1l0.2-1.3l0.2,0c1,0.2,1.7,0,2.1-0.3c0.4-0.4,0.7-1.1,0.9-2.3l2-12.6c0.1-0.9,0.1-1.6-0.3-2
		c-0.3-0.4-1-0.7-2-0.9l-0.2,0l0.2-1.2c1,0.2,1.9,0.4,2.8,0.5c0.9,0.2,1.7,0.3,2.5,0.4c0.6,0.1,1.3,0.2,2.2,0.3
		c0.9,0.1,1.9,0.3,3.1,0.4l-0.2,1.2l-0.2,0c-1.1-0.2-1.8-0.1-2.3,0.2c-0.4,0.3-0.7,0.9-0.9,2l-1.8,11.2c-0.2,1.6-0.2,2.7,0.3,3.3
		c0.5,0.6,1.4,1.1,2.9,1.3c1.7,0.3,3.1,0.1,4.2-0.5c1.1-0.6,1.9-1.7,2.4-3.2l1.3,0.2L496.4,674.4z M527.9,665.6l-1.3-0.2
		c-0.2-1.8-0.7-3.2-1.5-4.3c-0.8-1.1-2-1.8-3.3-2c-1.9-0.3-3.6,0.2-5,1.6c-1.4,1.5-2.4,3.6-2.9,6.4c-0.5,2.8-0.3,5.1,0.5,6.8
		c0.8,1.8,2.2,2.8,4.2,3.2c1.6,0.3,2.9,0,4.1-0.8c1.2-0.8,2.2-2.1,2.9-4l1.3,0.2l-1.3,7.1l-1.2-0.2l-0.4-1.9c-1.2,0.6-2.4,1-3.5,1.2
		c-1.1,0.2-2.3,0.2-3.6,0c-3.1-0.5-5.4-1.9-7-4.2c-1.6-2.3-2.1-4.9-1.6-8c0.2-1.3,0.6-2.5,1.1-3.6c0.5-1.1,1.2-2,2.1-2.8
		c1.3-1.2,2.8-2.1,4.3-2.6c1.6-0.5,3.3-0.5,5.1-0.2c1.2,0.2,2.2,0.5,3.1,1c0.9,0.5,1.8,1.1,2.5,1.9l0.8-1.6l1.3,0.2L527.9,665.6z
		 M548.5,683.7c-1.5-0.3-3.1-0.5-4.6-0.8c-1.5-0.3-3.1-0.5-4.7-0.8c-1.1-0.2-2.3-0.4-3.5-0.5c-1.3-0.2-2.6-0.4-4.1-0.6
		c-0.1,0-0.2,0-0.4,0c-0.2,0-0.3,0-0.4,0c-0.1,0-0.2,0-0.4-0.1c-0.2,0-0.3-0.1-0.4-0.1l0.2-1.3l0.2,0c1,0.1,1.7,0,2.1-0.3
		c0.4-0.4,0.7-1.1,0.9-2.4l2-12.6c0.1-0.9,0-1.6-0.3-2c-0.3-0.4-1-0.7-2-0.8l-0.2,0l0.2-1.2c1,0.2,1.9,0.4,2.8,0.5
		c0.9,0.2,1.7,0.3,2.5,0.4c0.6,0.1,1.3,0.2,2.2,0.3c0.9,0.1,2,0.3,3.1,0.4l-0.2,1.2l-0.2,0c-1.1-0.2-1.8-0.1-2.3,0.2
		c-0.4,0.3-0.7,1-0.9,2l-1.8,11.2c-0.2,1.6-0.2,2.7,0.3,3.3c0.5,0.6,1.4,1.1,2.9,1.3c1.7,0.3,3.1,0.1,4.2-0.5
		c1.1-0.6,1.9-1.7,2.4-3.2l1.3,0.2L548.5,683.7z M575.3,666.9c-1.1,0-1.8,0.3-2.3,0.7c-0.4,0.5-0.7,1.3-0.8,2.5l-0.6,7.1
		c-0.1,1.6-0.4,2.9-0.7,3.9c-0.3,0.9-0.7,1.7-1.2,2.4c-0.8,1-1.9,1.6-3.2,2.1c-1.3,0.4-2.8,0.6-4.6,0.4c-1.7-0.2-3.1-0.5-4.2-1
		c-1.1-0.5-2.1-1.2-2.8-2.1c-0.5-0.7-0.9-1.5-1.1-2.6c-0.2-1-0.2-2.4-0.1-4l0.7-7.5c0.1-1.5,0-2.4-0.3-2.9c-0.3-0.5-1.1-0.8-2.3-1
		l0.1-1.2c0.9,0.1,1.8,0.2,2.7,0.3c0.9,0.1,1.7,0.2,2.5,0.2c1,0.1,1.9,0.2,2.8,0.2c0.9,0.1,1.8,0.1,2.7,0.2l-0.1,1.2
		c-1.2,0-2,0.2-2.5,0.5c-0.4,0.4-0.7,1.3-0.8,2.6l-0.7,8c-0.2,2.4,0.1,4.1,0.8,5.2c0.7,1,2,1.7,4,1.8c1.1,0.1,2.2,0,3.1-0.3
		c0.9-0.3,1.6-0.7,2.1-1.3c0.4-0.5,0.8-1.1,1-1.9c0.2-0.8,0.4-1.9,0.5-3.3l0.6-7.1c0.1-1.3,0-2.1-0.4-2.7c-0.4-0.5-1.1-0.9-2.2-1.1
		l0.1-1.1c0.6,0.1,1.2,0.2,1.8,0.2c0.6,0.1,1.2,0.1,1.8,0.2c0.8,0.1,1.5,0.1,2.1,0.2c0.6,0,1.2,0.1,1.6,0.1L575.3,666.9z
		 M593.9,685.4c-1.6,0.9-3.8,1.4-6.8,1.4c-0.5,0-1.4,0-2.7-0.1c-1.3,0-2.3-0.1-3-0.1c-0.6,0-1.2,0-1.9,0c-0.7,0-1.5,0.1-2.3,0.1
		v-1.3c1.2,0,1.9-0.2,2.3-0.6c0.4-0.4,0.6-1.1,0.6-2.2v-12.8c0-1.1-0.2-1.8-0.6-2.1c-0.4-0.3-1.2-0.5-2.3-0.5v-1.3
		c0.8,0.1,1.5,0.1,2.2,0.1c0.6,0,1.2,0,1.7,0c0.7,0,1.6,0,2.8-0.1c1.2-0.1,2-0.1,2.6-0.1c2.9,0,5,0.4,6.4,1.2
		c1.4,0.8,2.1,2.1,2.1,3.7c0,1.3-0.5,2.3-1.4,3.1c-0.9,0.8-2.4,1.3-4.2,1.6c2.3,0.3,4.1,0.9,5.2,1.8c1.2,0.9,1.7,2.2,1.7,3.8
		C596.3,683,595.5,684.4,593.9,685.4z"/>
	<path class="st0" d="M497.2,619.8c1.4-8.9,1.6-18,0.7-26.9c-2.8-27.1-15.8-53.2-38.6-71.8c-22.8-18.6-50.9-26.2-78-23.5
		c-27.1,2.7-53.2,15.8-71.8,38.6c-18.6,22.8-26.2,50.9-23.5,78c0.3,3.1,0.8,6.3,1.4,9.4c1.4-0.3,2.8-0.6,4.2-0.9
		c-0.6-2.9-1-5.9-1.3-8.9c-2.3-22.5,2.9-45.7,15.8-65.7l17.7,14.1c-0.9,5.1-2.1,12.7-3.2,21.1c0.3,0.1,0.5,0.3,0.7,0.5
		c0.2,0.1,0.3,0.3,0.5,0.5c0.8-1,1.9-1.6,3.2-1.7c1-7.5,2.1-14.3,2.9-19.1l37.1-20.8l38.1,26.6l-0.3,10.7l0.9-0.1
		c0.4,0,0.8,0,1.2,0.1c0.4-0.1,0.8-0.2,1.2-0.2c2.2,0,3.8,0,4.6,0c0.8,0,1.3,0,1.7,0l0.2,0c0.2,0,0.8-0.1,1.6-0.1l4.5-0.3
		c2-0.1,3.8,1.1,4.5,3c0.2,0.6,0.4,1.2,0.6,1.8c0.1,0.4,0.3,0.9,0.4,1.3c0.4,1.3,0.2,2.7-0.5,3.8c-0.4,0.6-0.9,1.1-1.6,1.4
		c0.4,1.4,0.8,2.8,1.2,4.1c0.3,1.1,0.7,2.2,1,3.3c0.6,2,1.2,4,1.8,6l0.7,2.4c0.2,0.6,0.3,1,0.4,1.3c0.1,0,0.2,0,0.3,0
		c0.4,0,0.9,0,1.3,0.1c0-0.5,0-1.2,0-2c-0.1-1.9-0.1-3.7-0.2-5.6c-0.1-2.2-0.2-4.3-0.3-6.4c-0.1-3.3-0.3-6.5-0.4-9.7l-0.1-1.6
		c-0.1-2.4,1.8-4.5,4.2-4.6c1.1,0,2.1-0.1,3.2-0.1l2.3-0.1c1.5,0,3,0.7,3.8,2c1.8,2.8,3.6,5.6,5.4,8.5l1.8,2.9
		c2.2,3.4,4.4,6.9,6.7,10.4l0.9,1.4c0.1,0.1,0.1,0.2,0.2,0.3c0.6,0.9,1.1,1.5,1.4,1.8l-0.6-1.4c-0.7-1.7-1.3-3.4-2-5.1
		c-0.8-2.1-1.6-4.2-2.4-6.3l-0.5-1.3c-0.2-0.5-0.3-0.8-0.5-1.1c-0.1,0-0.2,0-0.2,0c-1.8,0-3.4-1.1-4.1-2.8l-0.1-0.2
		c-0.4-0.9-0.7-1.9-1.1-2.8c-0.5-1.4-0.3-2.9,0.5-4.1c0.9-1.2,2.3-1.9,3.7-1.8c1,0,1.8,0.1,2.6,0.1c0.7,0,1.4,0,2.1,0
		c0.6,0,1.2,0,1.9-0.1c0.8-0.1,1.6-0.1,2.5-0.2c1-0.1,2,0.1,2.8,0.6c0.3-0.2,0.6-0.3,0.9-0.5c-4.3-8-9.3-15.6-12.1-19.6l-0.5-33.3
		l8.2,1.2c20.3,17.7,32,41.7,34.5,66.8c0.2,1.8,0.3,3.6,0.4,5.4l-11.2-1.6l0.4,0.9c0.5,1.2,1.1,2.4,1.6,3.7l9.3,1.3
		c0,5.2-0.4,10.5-1.1,15.7C494.4,619.2,495.8,619.5,497.2,619.8z M344.2,513.3c11.7-6.2,24.5-10,37.5-11.3c4.5-0.5,9.1-0.6,13.7-0.5
		c-3.6,0.9-15.8,4-28,9.8L344.2,513.3z M405.1,565.7l-37.9-26.5l3.3-25c9.6-4,31.4-13.8,41.9-10.7l0.6,0.1l33.4,20.3l0.4,32.2
		L405.1,565.7z"/>
</g>
</svg>
