<?xml version="1.0" encoding="utf-8"?>
<!-- Generator: Adobe Illustrator 22.1.0, SVG Export Plug-In . SVG Version: 6.00 Build 0)  -->
<svg version="1.1" id="图层_1" xmlns="http://www.w3.org/2000/svg" xmlns:xlink="http://www.w3.org/1999/xlink" x="0px" y="0px"
	 viewBox="0 0 800 800" style="enable-background:new 0 0 800 800;" xml:space="preserve">
<style type="text/css">
	.st0{fill:#002956;}
	.st1{fill:#FFFFFF;}
	.st2{fill:#B13660;}
	.st3{fill:#0E6EB8;}
	.st4{fill:#AADCF7;}
	.st5{fill:#ECA151;}
	.st6{fill:#C67038;}
</style>
<g>
	<g>
		<path class="st0" d="M673,549l-18-36c-80,184-255,171.3-255,171.3S225,697,145,513l-18,36l-41-9.3c29,70,117,210.3,314,210.3
			s285-140.3,314-210.3L673,549z"/>
		<g>
			<path class="st1" d="M145.3,565.2c0.7-0.2,1.3-0.3,1.9-0.1c0.6,0.1,1.1,0.5,1.7,1c0.5,0.5,1.1,1.2,1.7,2.1l9.3,13.9
				c0.6,0.9,1,1.7,1.3,2.3c0.3,0.7,0.4,1.3,0.3,1.9c-0.1,0.6-0.4,1.2-0.8,1.7c-0.5,0.6-1.2,1.1-2,1.7l-9.9,6.7
				c-0.9,0.6-1.7,1-2.3,1.2c-0.7,0.2-1.3,0.3-1.9,0.1c-0.6-0.1-1.1-0.5-1.7-1c-0.5-0.5-1.1-1.2-1.7-2.1l-1.4-2l-3.3,5.6l-2.9-4.3
				l3.4-5.4l-5.2-7.7c-0.6-0.9-1-1.7-1.3-2.3c-0.3-0.7-0.4-1.3-0.3-1.9c0.1-0.6,0.4-1.2,0.8-1.7c0.5-0.6,1.2-1.1,2-1.7l9.9-6.7
				C143.8,565.9,144.6,565.5,145.3,565.2z M139.4,584.6l2.9-4.5l3.4,2.3l-3.6,6.2l2.7,4l11.9-8l-9.7-14.5l-11.9,8L139.4,584.6z"/>
			<path class="st1" d="M169,596.1l3.5,4L155.3,615l-3.5-4L169,596.1z"/>
			<path class="st1" d="M179.3,609.5l2.6,2.5l2.2,20.7c0.1,0.6,0.1,1.2,0.2,1.8c0,0.6,0,1.2,0,1.8c0.6-0.7,1.1-1.3,1.6-1.8
				c0.4-0.5,0.8-0.9,1-1.1l8.3-8.6l3.4,3.3l-15.8,16.3l-2.6-2.5l-2.2-21.7c0-0.4-0.1-0.9-0.1-1.3c0-0.4,0-0.9,0-1.4
				c-0.5,0.7-1,1.3-1.4,1.7c-0.4,0.5-0.7,0.8-0.9,1l-8.5,8.8l-3.4-3.3L179.3,609.5z"/>
			<path class="st1" d="M208.8,642.5l-8.7,11.5l13.2,10l3.1-4l-6.9-5.2l2.3-3.1l11,8.3l-4.7,6.2c-0.6,0.8-1.2,1.5-1.8,1.9
				c-0.6,0.4-1.2,0.7-1.7,0.7c-0.6,0.1-1.2-0.1-1.9-0.4c-0.7-0.3-1.4-0.8-2.3-1.4l-12.5-9.4c-0.8-0.6-1.5-1.2-2-1.8
				c-0.5-0.6-0.8-1.1-0.9-1.7c-0.1-0.6,0-1.2,0.2-1.9c0.3-0.7,0.7-1.4,1.4-2.3l7.2-9.5c0.6-0.8,1.2-1.5,1.8-1.9
				c0.6-0.4,1.2-0.7,1.7-0.7s1.2,0.1,1.9,0.4c0.7,0.3,1.4,0.8,2.3,1.4l12.5,9.4c0.8,0.6,1.5,1.2,2,1.8c0.5,0.6,0.8,1.1,0.9,1.7
				c0.1,0.6,0.1,1.2-0.2,1.8s-0.7,1.4-1.3,2.2l-0.3,0.4l-4.7-2.4l1.5-2L208.8,642.5z"/>
			<path class="st1" d="M237.4,658.9l12.6,7.3c3.7,2.1,6,4.6,6.9,7.4c0.9,2.8,0.5,5.7-1.3,8.8c-1.1,1.9-2.4,3.3-4,4.3
				c-1.6,1-3.3,1.6-5.2,1.6c-1.3,0-2.7-0.2-4.1-0.8c-1.5-0.6-3.1-1.3-4.8-2.4l-11.5-6.6L237.4,658.9z M238.6,680.9
				c1.4,0.8,2.8,1.5,4,1.9s2.3,0.6,3.3,0.5c1-0.1,1.9-0.4,2.8-1c0.8-0.6,1.6-1.5,2.3-2.7c1.2-2,1.5-3.8,1-5.5
				c-0.5-1.7-1.8-3.1-4-4.4l-8.1-4.7l-7.2,12.5L238.6,680.9z"/>
			<path class="st1" d="M278.9,679.6l4.7,2l3,26l-5.5-2.3l-0.5-5.6l-13.2-5.7l-4.4,3.5l-4.9-2.1L278.9,679.6z M280.2,695l-0.8-10.4
				l-8.3,6.5L280.2,695z"/>
			<path class="st1" d="M301.3,691.5c0.4-0.6,0.8-1.1,1.3-1.3c0.5-0.3,1.2-0.4,1.9-0.4c0.7,0,1.6,0.2,2.6,0.5l16.1,4.4
				c1,0.3,1.9,0.6,2.5,0.9c0.7,0.3,1.1,0.8,1.5,1.3c0.3,0.5,0.5,1.1,0.5,1.8c0,0.7-0.1,1.6-0.4,2.6l-3.1,11.6c-0.3,1-0.6,1.8-1,2.5
				c-0.4,0.6-0.8,1.1-1.3,1.3c-0.5,0.3-1.2,0.4-1.9,0.4c-0.7,0-1.6-0.2-2.6-0.5l-16.1-4.4c-1-0.3-1.9-0.6-2.5-0.9
				c-0.7-0.3-1.1-0.8-1.5-1.3c-0.3-0.5-0.5-1.1-0.5-1.8c0-0.7,0.1-1.6,0.4-2.6l3.1-11.6C300.6,693,300.9,692.2,301.3,691.5z
				 M318.8,712.6l3.8-13.9l-16.8-4.6L302,708L318.8,712.6z"/>
			<path class="st1" d="M356.5,701.4l5.3,0.4l-0.6,8.8l16.5,1.1l0.6-8.8l5.3,0.4L382,726l-5.3-0.4l0.7-9.7l-16.5-1.1l-0.7,9.7
				l-5.3-0.4L356.5,701.4z"/>
			<path class="st1" d="M401,722.2l15-0.2l-0.3-18.4l5.3-0.1l0.3,17.3c0,1.1-0.1,1.9-0.2,2.6c-0.2,0.7-0.5,1.3-0.9,1.7
				c-0.4,0.4-1,0.7-1.7,0.9c-0.7,0.2-1.6,0.3-2.7,0.3l-14.3,0.2c-1.1,0-1.9-0.1-2.7-0.2c-0.7-0.1-1.3-0.4-1.8-0.8
				c-0.4-0.4-0.8-0.9-1-1.6c-0.2-0.7-0.3-1.6-0.3-2.6l-0.3-17.3l5.3-0.1L401,722.2z"/>
			<path class="st1" d="M441.7,702l5.1-0.5l15.3,21.2l-5.9,0.6l-3.2-4.7l-14.3,1.5l-2.1,5.2l-5.3,0.5L441.7,702z M450.3,714.8
				l-5.8-8.7l-4.1,9.7L450.3,714.8z"/>
			<path class="st1" d="M466.9,696.7l3.5-0.8l18.5,9.6c0.5,0.3,1.1,0.6,1.6,0.8c0.5,0.3,1,0.6,1.5,1c-0.3-0.9-0.5-1.7-0.7-2.3
				s-0.3-1.1-0.4-1.5l-2.6-11.6l4.6-1l4.9,22.2l-3.5,0.8l-19.3-10.1c-0.4-0.2-0.8-0.4-1.1-0.7c-0.4-0.2-0.7-0.5-1.1-0.7
				c0.3,0.8,0.5,1.6,0.7,2.1c0.2,0.6,0.3,1,0.3,1.3l2.6,12l-4.6,1L466.9,696.7z"/>
			<path class="st1" d="M509.4,689.1l4.9,13.5l15.5-5.6l-1.7-4.8l-8.1,2.9l-1.3-3.6l13-4.7l2.6,7.4c0.4,1,0.6,1.9,0.6,2.6
				c0.1,0.7-0.1,1.4-0.3,1.9s-0.7,1-1.4,1.4c-0.6,0.4-1.4,0.8-2.4,1.1l-14.7,5.3c-1,0.4-1.9,0.6-2.6,0.7c-0.7,0.1-1.4,0-1.9-0.2
				c-0.5-0.2-1-0.6-1.4-1.2c-0.4-0.6-0.8-1.4-1.2-2.4l-4-11.3c-0.4-1-0.6-1.9-0.6-2.6c-0.1-0.7,0.1-1.4,0.3-1.9s0.7-1,1.4-1.4
				c0.6-0.4,1.4-0.8,2.4-1.1l14.7-5.3c1-0.3,1.8-0.6,2.5-0.7c0.7-0.1,1.4,0,1.9,0.2c0.5,0.2,1,0.6,1.4,1.2c0.4,0.6,0.8,1.3,1.1,2.3
				l0.2,0.5l-4.5,2.6l-0.9-2.4L509.4,689.1z"/>
			<path class="st1" d="M538.7,672.4l4.7-2.4l4,7.8l14.7-7.6l-4-7.8l4.7-2.4l10.4,20.2l-4.7,2.4l-4.5-8.7l-14.7,7.6l4.5,8.7
				l-4.7,2.4L538.7,672.4z"/>
			<path class="st1" d="M578.6,648.6l4.2-2.9l23.6,11.3l-4.9,3.4l-5.1-2.5l-11.9,8.2l0.6,5.6l-4.3,3L578.6,648.6z M592.3,655.7
				l-9.3-4.8l1.1,10.5L592.3,655.7z"/>
			<path class="st1" d="M598.6,632.2l3.9-3.5l15.3,16.8l-3.9,3.6L598.6,632.2z"/>
			<path class="st1" d="M622.6,608.6l15.2-18.6l3.2,2.6L629.3,607l4.8,4l6.3-7.7l3.3,2.7l-6.3,7.7l7,5.7l-3.5,4.3L622.6,608.6z"/>
			<path class="st1" d="M646.3,582.7l12.6,8.2l8.1-12.5l-4.3-2.8l4-4l2.4,1.5c0.9,0.6,1.6,1.2,2.2,1.8c0.5,0.6,0.8,1.2,0.9,1.8
				c0.1,0.6,0,1.3-0.3,2c-0.3,0.7-0.7,1.5-1.3,2.5l-7.7,11.9c-0.6,0.9-1.2,1.7-1.7,2.2c-0.6,0.5-1.1,0.9-1.7,1
				c-0.6,0.2-1.3,0.1-2-0.1c-0.7-0.2-1.6-0.7-2.5-1.3l-10.5-6.8c-0.9-0.6-1.6-1.2-2.2-1.8c-0.5-0.6-0.8-1.2-0.9-1.8
				c-0.1-0.6,0-1.3,0.3-2c0.3-0.7,0.7-1.5,1.3-2.5l7.7-11.9c0.6-0.9,1.2-1.7,1.7-2.2s1.1-0.9,1.7-1s1.3-0.1,2,0.1
				c0.7,0.2,1.6,0.7,2.5,1.3l1.9,1.2l-2.3,5.1l-3.8-2.5L646.3,582.7z"/>
		</g>
	</g>
	<g>
		<g>
			<g>
				<g>
					<path class="st0" d="M655.9,307.1C633.4,172.1,621,111,615,92c0,0-118,18-214.5-42C304,110,186,92,186,92
						c-6,19-18.4,80.1-40.9,215.1c-22.5,135-16.5,213,84,279S400.5,655,400.5,655s70.9-2.9,171.4-68.9S678.4,442.1,655.9,307.1z"/>
					<g>
						<path class="st2" d="M400,73.5c-60.3,33.7-126,41-171.6,41c-10.8,0-20.1-0.4-27.4-0.9c-5.7,24.4-16.4,78.3-36.2,196.8
							c-12.5,74.8-13.8,120.3-4.5,157.2c10.3,41,34.9,72.4,79.7,101.8c49,32.2,90.3,48.3,116.3,56.2c23.5,7.1,39,8.9,43.6,9.3V73.5z
							"/>
						<path class="st3" d="M400,73.5c60.3,33.7,126,41,171.6,41c10.8,0,20.1-0.4,27.4-0.9c5.7,24.4,16.4,78.3,36.2,196.8
							c12.5,74.8,13.8,120.3,4.5,157.2c-10.3,41-34.9,72.4-79.7,101.8c-49,32.2-90.3,48.3-116.3,56.2c-23.5,7.1-39,8.9-43.6,9.3
							V73.5z"/>
					</g>
				</g>
				<g>
					<g>
						<g>
							<path class="st4" d="M207,99c0,0-14,67.3,21.3,122.7S310.8,320,400,332.8V437c0,0-213.7,26-270.3-37l-19.3-23L151,166.3
								l20-53.3L207,99z"/>
							<g>
								<path class="st0" d="M399.5,335.3c-2.5-0.4-61.4-9.7-95.5-31.8c-37.1-24-63.5-53.3-85.7-95.1
									c-23.5-44.3-16-103.3-15.7-105.8l5.9,0.8c-0.1,0.6-7.6,59.6,15,102.2c21.6,40.8,47.4,69.5,83.6,92.9
									c33.1,21.4,92.6,30.8,93.2,30.9L399.5,335.3z"/>
								<path class="st0" d="M399.6,344.5c-0.7-0.1-65.6-12.7-100.8-25.6c-36.4-13.3-76-58.2-96.3-109.1
									C182.2,158.9,183,117.4,183,117l4,0.1c0,0.4-0.7,41.2,19.2,91.2c19.9,49.9,58.6,93.9,94,106.9
									c34.9,12.8,99.5,25.3,100.2,25.4L399.6,344.5z"/>
								<path class="st0" d="M399.6,363c-0.7-0.2-73.1-16.2-105.9-31.1c-31.6-14.4-56.6-30.5-83.3-66.6
									c-25.4-34.4-35.7-75.3-35.8-75.7l3.9-1c0.1,0.4,10.2,40.5,35.2,74.3c26.2,35.4,50.7,51.3,81.7,65.4
									c32.4,14.7,104.4,30.7,105.1,30.9L399.6,363z"/>
								<path class="st0" d="M371.3,374c-22.1,0-54.1-2.3-86.7-12.6c-50.5-16-84.9-46.7-104.8-69.6c-21.6-24.9-31.1-45.7-31.5-46.5
									l5.5-2.5c0.1,0.2,9.7,21,30.7,45.2c19.4,22.3,52.8,52.1,101.9,67.6c57.2,18.1,112.6,11,113.2,10.9l0.8,5.9
									C400.1,372.5,388.9,374,371.3,374z"/>
								<path class="st0" d="M375.7,382.7c-23.5,0-60.2-1.7-93.2-10.2c-46.6-11.7-80.9-37.8-101.5-57.7
									c-22.2-21.5-33.7-40.5-33.8-40.7l3.4-2c0.1,0.2,11.3,18.8,33.2,40c20.2,19.5,53.8,45.1,99.6,56.6
									c53.1,13.8,115.7,9.5,116.4,9.4l0.3,4C399.9,382,390.4,382.7,375.7,382.7z"/>
								<path class="st0" d="M391.9,400.7c-14.8,0-50.2-1.4-114.8-11.2c-46.3-7.1-81.7-27.5-103.3-43.4
									c-23.4-17.2-35.6-32.6-36.1-33.2l4.7-3.7c0.5,0.6,49.4,61.2,135.6,74.4c87,13.3,121.5,11,121.8,11l0.4,6
									C399.8,400.5,397.2,400.7,391.9,400.7z"/>
								<path class="st0" d="M372,425c-19.4,0-51.5-1.1-103.7-5c-32.6-2.4-78.8-10.1-113.7-32.5c-21.1-13.6-28.1-26-28.4-26.5
									l3.5-1.9c0.1,0.1,6.9,12.3,27.3,25.3c34.2,21.8,79.6,29.3,111.6,31.7c110.9,8.3,130.1,3.8,130.8,3.6l1.1,3.9
									C400.1,423.5,394.5,425,372,425z"/>
								<path class="st0" d="M365.1,435.6c-20.9,0-53-0.7-101.2-3.1c-56.7-2.9-93-17.8-113.5-29.8c-22.4-13.1-31.1-25.5-31.5-26
									l3.3-2.3c0.1,0.1,8.8,12.3,30.5,25c20.1,11.7,55.7,26.3,111.5,29.1c107.3,5.4,135.4,2,135.6,2l0.5,4
									C399.6,434.6,391,435.6,365.1,435.6z"/>
							</g>
							<g>
								<g>
									<path class="st1" d="M236.5,123.1c0,5,4.1,9.1,9.1,9.1s9.1-4.1,9.1-9.1c0-3.7-2.2-6.9-5.4-8.3l0.3-0.3
										c0,0-1-23.5-35.5-21.5c-33-3-62.5,8-67.5,49.5c-43.5,13-40.5,59-36,71.5c-10.2,11-17.8,33.7-4.2,57
										c-15.7,19-11.7,46,0.3,57.3c-8,16-12.3,47.7,12.7,64c0,0,0.1,0.1,0.3,0.3c-1.3,1.1-2.1,2.7-2.1,4.5c0,3.2,2.6,5.9,5.9,5.9
										s5.9-2.6,5.9-5.9c0-3.2-2.6-5.9-5.9-5.9c-0.1,0-0.3,0-0.4,0c-4-8.4-11.2-32.9,18-38.3c-6.7-19-8.7-31-1.3-43
										c3.8-5.2,12.3-6.2,17.8-7s5-5,4.8-7s-4.2-4.5-7.8-2.5s-3,6.2-3,6.2s-10.2-1-11-18.8c-0.2-6.5,7.5-9.2,7.5-9.2
										s-6.8-22.9,16.5-27.8c15.2-3.2,22.8,7.8,25.2,12.8s4.8,5.2,8.5,3.5s4.5-13-3.8-16.8c-10.5,0.8-22-0.8-28-6.5
										s-6.5-17.5-0.2-24c-0.8-9,2.2-17,15.5-18.8c6-10.5,11.2-13,21-12.5c6,7.2,9.8,5.8,11.2,4.2s5.5-9.2-6.2-10.2
										c0,0-3-10.5,10.2-11.5s17.8,5.8,17.8,5.8s-0.2,10.2,8.5,6.8c5.2-2.8,3-12.8-8-12.8c0,0,2.8-9-9.8-8.2c0,0-4-11-14.2-0.5
										c0,0-13.5-5.2-16.8,7.8c0,0-4.5-7.2-9,0.2c0,0-22.8-18.8,5.8-33.5c0,0-6.2-23.8,23.8-27.5c18.2-1.5,23.5,9,24,12.8l0.5,0.6
										C238.1,117.2,236.5,120,236.5,123.1z"/>
									<path class="st0" d="M204.1,92.5c3.2,0,6.5,0.2,9.9,0.5c1.4-0.1,2.8-0.1,4.1-0.1c30.5,0,31.4,21.6,31.4,21.6l-0.3,0.3
										c3.2,1.4,5.4,4.6,5.4,8.3c0,5-4.1,9.1-9.1,9.1s-9.1-4.1-9.1-9.1c0-3.1,1.6-5.9,4-7.5L240,115c-0.5-3.5-5.1-12.9-20.6-12.9
										c-1.1,0-2.2,0-3.4,0.1c-30,3.8-23.8,27.5-23.8,27.5c-28.5,14.8-5.8,33.5-5.8,33.5c1.5-2.6,3.1-3.4,4.4-3.4
										c2.6,0,4.6,3.1,4.6,3.1c1.8-7.2,6.7-8.8,10.8-8.8c3.3,0,6,1,6,1c3.3-3.4,6-4.5,8.1-4.5c4.4,0,6.2,5,6.2,5c0.5,0,1,0,1.4,0
										c10.9,0,8.3,8.3,8.3,8.3c11,0,13.2,10,8,12.8c-1.3,0.5-2.4,0.7-3.3,0.7c-5.4,0-5.2-7.5-5.2-7.5s-3.9-5.9-15.1-5.9
										c-0.8,0-1.7,0-2.6,0.1c-13.2,1-10.2,11.5-10.2,11.5c11.8,1,7.8,8.8,6.2,10.2c-0.6,0.6-1.6,1.2-3,1.2c-2,0-4.7-1.2-8.2-5.5
										c-0.8,0-1.5-0.1-2.2-0.1c-8.4,0-13.3,2.9-18.8,12.6c-13.2,1.8-16.2,9.8-15.5,18.8c-6.2,6.5-5.8,18.2,0.2,24
										c5.1,4.9,14,6.7,23,6.7c1.7,0,3.3-0.1,5-0.2c8.2,3.8,7.5,15,3.8,16.8c-1.3,0.6-2.5,1-3.5,1c-1.9,0-3.4-1.2-5-4.5
										c-2.2-4.4-8.2-13.4-20-13.4c-1.6,0-3.4,0.2-5.3,0.6c-23.2,4.9-16.5,27.8-16.5,27.8s-7.8,2.8-7.5,9.2
										c0.8,17.8,11,18.8,11,18.8s-0.5-4.2,3-6.2c0.9-0.5,1.9-0.7,2.8-0.7c2.6,0,4.8,1.8,5,3.2c0.2,2,0.8,6.2-4.8,7
										s-14,1.8-17.8,7c-7.3,12-5.3,24,1.3,43c-29.3,5.3-22,29.9-18,38.3c0.1,0,0.3,0,0.4,0c3.2,0,5.9,2.6,5.9,5.9
										c0,3.2-2.6,5.9-5.9,5.9c-3.2,0-5.9-2.6-5.9-5.9c0-1.8,0.8-3.4,2.1-4.5c-0.2-0.2-0.3-0.3-0.3-0.3c-25-16.3-20.7-48-12.7-64
										c-12-11.3-16-38.3-0.3-57.3c-13.7-23.3-6-46,4.2-57c-4.5-12.5-7.5-58.5,36-71.5C151,105.2,175.3,92.5,204.1,92.5
										 M204.1,87.5L204.1,87.5c-16.8,0-30.5,4-41,12c-11.4,8.7-18.5,21.9-21.2,39.2c-14.7,5.1-25.4,14.3-32,27.4
										c-8.5,16.8-7.7,36.3-5,46.7c-5.3,6.6-9.1,15.3-10.4,24.3c-1.7,11.3,0.3,22.7,5.8,33.4c-6.6,9.2-9.8,20.5-9.2,32.2
										c0.5,10.2,4,19.8,9.6,26.5c-4.1,9.6-6,21.1-5.1,31.4c1.2,13.8,7.2,25.2,17.3,33.3c-0.3,1-0.5,2.1-0.5,3.2
										c0,6,4.9,10.9,10.9,10.9c6,0,10.9-4.9,10.9-10.9c0-4.9-3.3-9.1-7.8-10.4c-2.2-5.8-3.5-13.6-0.6-19.2c2.5-4.8,7.9-8,16-9.5
										l5.8-1l-1.9-5.5c-7-19.9-7.5-29.3-1.9-38.5c2.5-3.3,9.3-4.2,13.8-4.8l0.5-0.1c3.1-0.4,10.3-2.5,9-12.6
										c-0.5-4.2-5-7.6-10-7.6c-1.8,0-3.6,0.5-5.2,1.4c-1.5,0.8-2.6,1.9-3.4,3c-1.5-2-2.9-5.4-3.1-11.4c-0.1-2.6,4.2-4.3,4.2-4.3
										l4.5-1.6l-1.4-4.5c0-0.1-2.3-8.3,1.4-14.5c2.1-3.5,5.9-5.8,11.3-7c1.5-0.3,2.9-0.5,4.2-0.5c9.2,0,13.9,7.4,15.5,10.6
										c0.9,1.8,3.6,7.2,9.5,7.2c1.7,0,3.4-0.4,5.6-1.5c3.5-1.6,5.6-5.8,5.6-10.9c0-5.2-2.5-11.8-9.4-14.9l-1.2-0.5l-1.3,0.1
										c-1.5,0.1-3.1,0.2-4.6,0.2c-8.9,0-16.1-1.9-19.6-5.3c-1.9-1.8-3.1-4.9-3.2-8.2c-0.1-3.4,1.1-6.6,3.1-8.7l1.6-1.6l-0.2-2.3
										c-0.7-8.4,2.5-12.2,11.2-13.4l2.5-0.3l1.2-2.2c4.9-8.5,8.4-10,14.4-10c3.5,3.7,7,5.6,10.5,5.6c2.5,0,4.8-1,6.6-2.7
										c2-2,4.5-6.9,2.8-11.5c-0.8-2.3-2.8-5-7.5-6.4c0.1-0.1,0.1-0.3,0.2-0.4c0.8-1.1,2.7-1.8,5.4-2c0.8-0.1,1.5-0.1,2.2-0.1
										c5.8,0,8.9,1.9,10.3,3c0.3,2.1,1,5.3,3.3,7.6c1.8,1.8,4.1,2.8,6.8,2.8c1.6,0,3.3-0.4,5.1-1.1l0.2-0.1l0.2-0.1
										c4.2-2.2,6.2-7,5-11.8c-0.9-3.8-4.2-8.2-10.4-9.8c-0.3-1.3-0.8-2.8-1.8-4.1c-2.1-2.9-5.5-4.4-10-4.7c-1.8-2.6-4.9-5-9.1-5
										c-3.1,0-6.2,1.3-9.4,4c-1.3-0.3-2.9-0.5-4.6-0.5c-5.4,0-9.8,2.2-12.7,6.1c-0.8-0.3-1.7-0.4-2.7-0.4c-1.2,0-2.8,0.3-4.4,1.2
										c-2-2.6-4-6.2-3.6-9.7c0.3-3,2.6-7.5,11.6-12.1l3.6-1.8l-1-3.9c0,0-1.7-7.1,2.3-12.9c3.1-4.5,8.8-7.3,17.2-8.3
										c1-0.1,2-0.1,2.9-0.1c10.4,0,14,4.8,15.1,7.2c-2,2.5-3.1,5.5-3.1,8.8c0,7.8,6.3,14.1,14.1,14.1c7.8,0,14.1-6.3,14.1-14.1
										c0-4.4-2.1-8.5-5.4-11.1c-0.5-2.6-1.7-6.9-5-11.3c-7.9-10.6-21.3-12.8-31.2-12.8c-1.3,0-2.6,0-4,0.1
										C210.7,87.7,207.3,87.5,204.1,87.5L204.1,87.5z"/>
								</g>
								<g>
									<circle class="st1" cx="189.7" cy="214" r="6"/>
									<path class="st0" d="M189.7,208c3.3,0,6,2.7,6,6s-2.7,6-6,6c-3.3,0-6-2.7-6-6S186.4,208,189.7,208 M189.7,204
										c-5.5,0-10,4.5-10,10s4.5,10,10,10s10-4.5,10-10S195.2,204,189.7,204L189.7,204z"/>
								</g>
								<g>
									<circle class="st1" cx="256.5" cy="188" r="6.2"/>
									<path class="st0" d="M256.5,181.8c3.4,0,6.2,2.8,6.2,6.2s-2.8,6.2-6.2,6.2s-6.2-2.8-6.2-6.2S253.1,181.8,256.5,181.8
										 M256.5,177.8c-5.6,0-10.2,4.6-10.2,10.2s4.6,10.2,10.2,10.2c5.6,0,10.2-4.6,10.2-10.2S262.1,177.8,256.5,177.8
										L256.5,177.8z"/>
								</g>
								<g>
									<circle class="st1" cx="273" cy="239" r="6.3"/>
									<path class="st0" d="M273,232.7c3.5,0,6.3,2.8,6.3,6.3s-2.8,6.3-6.3,6.3s-6.3-2.8-6.3-6.3S269.5,232.7,273,232.7
										 M273,228.7c-5.7,0-10.3,4.6-10.3,10.3s4.6,10.3,10.3,10.3s10.3-4.6,10.3-10.3S278.7,228.7,273,228.7L273,228.7z"/>
								</g>
								<g>
									<circle class="st1" cx="158.2" cy="359.8" r="6.2"/>
									<path class="st0" d="M158.2,353.5c3.5,0,6.2,2.8,6.2,6.2s-2.8,6.2-6.2,6.2s-6.2-2.8-6.2-6.2S154.8,353.5,158.2,353.5
										 M158.2,349.5c-5.7,0-10.2,4.6-10.2,10.2s4.6,10.2,10.2,10.2s10.2-4.6,10.2-10.2S163.9,349.5,158.2,349.5L158.2,349.5z"/>
								</g>
							</g>
						</g>
						<g>
							<path class="st4" d="M593.5,99c0,0,14,67.3-21.3,122.7C536.9,277,489.8,320,400.5,332.8V437c0,0,213.7,26,270.3-37l19.3-23
								l-40.7-210.7l-20-53.3L593.5,99z"/>
							<g>
								<path class="st0" d="M401,335.3c2.5-0.4,61.4-9.7,95.5-31.8c37.1-24,63.5-53.3,85.7-95.1c23.5-44.3,16-103.3,15.7-105.8
									l-5.9,0.8c0.1,0.6,7.6,59.6-15,102.2c-21.6,40.8-47.4,69.5-83.6,92.9c-33.1,21.4-92.6,30.8-93.2,30.9L401,335.3z"/>
								<path class="st0" d="M400.9,344.5c0.7-0.1,65.6-12.7,100.8-25.6c36.4-13.3,76-58.2,96.3-109.1
									c20.2-50.8,19.5-92.4,19.5-92.8l-4,0.1c0,0.4,0.7,41.2-19.2,91.2c-19.9,49.9-58.6,93.9-94,106.9
									c-34.9,12.8-99.5,25.3-100.2,25.4L400.9,344.5z"/>
								<path class="st0" d="M401,363c0.7-0.2,73.1-16.2,105.9-31.1c31.6-14.4,56.6-30.5,83.3-66.6c25.4-34.4,35.7-75.3,35.8-75.7
									l-3.9-1c-0.1,0.4-10.2,40.5-35.2,74.3c-26.2,35.4-50.7,51.3-81.7,65.4c-32.4,14.7-104.4,30.7-105.1,30.9L401,363z"/>
								<path class="st0" d="M429.2,374c22.1,0,54.1-2.3,86.7-12.6c50.5-16,84.9-46.7,104.8-69.6c21.6-24.9,31.1-45.7,31.5-46.5
									l-5.5-2.5c-0.1,0.2-9.7,21-30.7,45.2c-19.4,22.3-52.8,52.1-101.9,67.6c-57.2,18.1-112.6,11-113.2,10.9l-0.8,5.9
									C400.4,372.5,411.7,374,429.2,374z"/>
								<path class="st0" d="M424.8,382.7c23.5,0,60.2-1.7,93.2-10.2c46.6-11.7,80.9-37.8,101.5-57.7c22.2-21.5,33.7-40.5,33.8-40.7
									l-3.4-2c-0.1,0.2-11.3,18.8-33.2,40c-20.2,19.5-53.8,45.1-99.6,56.6c-53.1,13.8-115.7,9.5-116.4,9.4l-0.3,4
									C400.6,382,410.2,382.7,424.8,382.7z"/>
								<path class="st0" d="M408.7,400.7c14.8,0,50.2-1.4,114.8-11.2c46.3-7.1,81.7-27.5,103.3-43.4c23.4-17.2,35.6-32.6,36.1-33.2
									l-4.7-3.7c-0.5,0.6-49.4,61.2-135.6,74.4c-87,13.3-121.5,11-121.8,11l-0.4,6C400.7,400.5,403.3,400.7,408.7,400.7z"/>
								<path class="st0" d="M428.5,425c19.4,0,51.5-1.1,103.7-5c32.6-2.4,78.8-10.1,113.7-32.5c21.1-13.6,28.1-26,28.4-26.5
									l-3.5-1.9c-0.1,0.1-6.9,12.3-27.3,25.3c-34.2,21.8-79.6,29.3-111.6,31.7c-110.9,8.3-130.1,3.8-130.8,3.6l-1.1,3.9
									C400.4,423.5,406,425,428.5,425z"/>
								<path class="st0" d="M435.4,435.6c20.9,0,53-0.7,101.2-3.1c56.7-2.9,93-17.8,113.5-29.8c22.4-13.1,31.1-25.5,31.5-26
									l-3.3-2.3c-0.1,0.1-8.8,12.3-30.5,25c-20.1,11.7-55.7,26.3-111.5,29.1c-107.3,5.4-135.4,2-135.6,2l-0.5,4
									C400.9,434.6,409.5,435.6,435.4,435.6z"/>
							</g>
							<g>
								<g>
									<path class="st1" d="M564,123.1c0,5-4.1,9.1-9.1,9.1s-9.1-4.1-9.1-9.1c0-3.7,2.2-6.9,5.4-8.3l-0.3-0.3
										c0,0,1-23.5,35.5-21.5c33-3,62.5,8,67.5,49.5c43.5,13,40.5,59,36,71.5c10.2,11,17.8,33.7,4.2,57c15.7,19,11.7,46-0.3,57.3
										c8,16,12.3,47.7-12.7,64c0,0-0.1,0.1-0.3,0.3c1.3,1.1,2.1,2.7,2.1,4.5c0,3.2-2.6,5.9-5.9,5.9s-5.9-2.6-5.9-5.9
										c0-3.2,2.6-5.9,5.9-5.9c0.1,0,0.3,0,0.4,0c4-8.4,11.2-32.9-18-38.3c6.7-19,8.7-31,1.3-43c-3.8-5.2-12.3-6.2-17.8-7
										s-5-5-4.8-7s4.2-4.5,7.8-2.5s3,6.2,3,6.2s10.2-1,11-18.8c0.2-6.5-7.5-9.2-7.5-9.2s6.8-22.9-16.5-27.8
										c-15.2-3.2-22.8,7.8-25.2,12.8s-4.8,5.2-8.5,3.5s-4.5-13,3.8-16.8c10.5,0.8,22-0.8,28-6.5s6.5-17.5,0.2-24
										c0.8-9-2.2-17-15.5-18.8c-6-10.5-11.2-13-21-12.5c-6,7.2-9.8,5.8-11.2,4.2s-5.5-9.2,6.2-10.2c0,0,3-10.5-10.2-11.5
										s-17.8,5.8-17.8,5.8s0.2,10.2-8.5,6.8c-5.2-2.8-3-12.8,8-12.8c0,0-2.8-9,9.8-8.2c0,0,4-11,14.2-0.5c0,0,13.5-5.2,16.8,7.8
										c0,0,4.5-7.2,9,0.2c0,0,22.8-18.8-5.8-33.5c0,0,6.2-23.8-23.8-27.5c-18.2-1.5-23.5,9-24,12.8l-0.5,0.6
										C562.5,117.2,564,120,564,123.1z"/>
									<path class="st0" d="M596.4,92.5c28.8,0,53.1,12.7,57.6,50c43.5,13,40.5,59,36,71.5c10.2,11,17.8,33.7,4.2,57
										c15.7,19,11.7,46-0.3,57.3c8,16,12.3,47.7-12.7,64c0,0-0.1,0.1-0.3,0.3c1.3,1.1,2.1,2.7,2.1,4.5c0,3.2-2.6,5.9-5.9,5.9
										s-5.9-2.6-5.9-5.9c0-3.2,2.6-5.9,5.9-5.9c0.1,0,0.3,0,0.4,0c4-8.4,11.2-32.9-18-38.3c6.7-19,8.7-31,1.3-43
										c-3.8-5.2-12.3-6.2-17.8-7s-5-5-4.8-7c0.2-1.5,2.4-3.2,5-3.2c0.9,0,1.8,0.2,2.8,0.7c3.5,2,3,6.2,3,6.2s10.2-1,11-18.8
										c0.2-6.5-7.5-9.2-7.5-9.2s6.8-22.9-16.5-27.8c-1.9-0.4-3.6-0.6-5.3-0.6c-11.7,0-17.8,9-20,13.4c-1.6,3.2-3.1,4.5-5,4.5
										c-1,0-2.2-0.4-3.5-1c-3.8-1.8-4.5-13,3.8-16.8c1.6,0.1,3.3,0.2,5,0.2c9,0,18-1.8,23-6.7c6-5.8,6.5-17.5,0.2-24
										c0.8-9-2.2-17-15.5-18.8c-5.5-9.7-10.4-12.6-18.8-12.6c-0.7,0-1.4,0-2.2,0.1c-3.5,4.2-6.3,5.5-8.2,5.5
										c-1.4,0-2.4-0.6-3-1.2c-1.5-1.5-5.5-9.2,6.2-10.2c0,0,3-10.5-10.2-11.5c-0.9-0.1-1.8-0.1-2.6-0.1
										c-11.2,0-15.1,5.9-15.1,5.9s0.2,7.5-5.2,7.5c-0.9,0-2-0.2-3.3-0.7c-5.2-2.8-3-12.8,8-12.8c0,0-2.5-8.3,8.3-8.3
										c0.5,0,0.9,0,1.4,0c0,0,1.8-5,6.2-5c2.1,0,4.7,1.1,8.1,4.5c0,0,2.7-1,6-1c4.1,0,9,1.6,10.8,8.8c0,0,2-3.1,4.6-3.1
										c1.4,0,2.9,0.8,4.4,3.4c0,0,22.8-18.8-5.8-33.5c0,0,6.2-23.8-23.8-27.5c-1.2-0.1-2.3-0.1-3.4-0.1
										c-15.5,0-20.1,9.4-20.6,12.9l-0.5,0.6c2.4,1.6,4,4.4,4,7.5c0,5-4.1,9.1-9.1,9.1s-9.1-4.1-9.1-9.1c0-3.7,2.2-6.9,5.4-8.3
										l-0.3-0.3c0,0,0.9-21.6,31.4-21.6c1.3,0,2.7,0,4.1,0.1C589.9,92.7,593.2,92.5,596.4,92.5 M596.4,87.5
										c-3.2,0-6.6,0.2-10,0.5c-1.4-0.1-2.7-0.1-4-0.1c-9.8,0-23.2,2.2-31.2,12.8c-3.3,4.4-4.5,8.7-5,11.3
										c-3.4,2.6-5.4,6.7-5.4,11.1c0,7.8,6.3,14.1,14.1,14.1c7.8,0,14.1-6.3,14.1-14.1c0-3.2-1.1-6.3-3.1-8.8
										c1.1-2.4,4.7-7.2,15.1-7.2c0.9,0,1.9,0,2.9,0.1c8.3,1.1,14.1,3.9,17.2,8.3c4,5.8,2.3,12.9,2.3,12.9l-1,3.9l3.6,1.8
										c9,4.7,11.3,9.2,11.6,12.1c0.4,3.5-1.6,7.1-3.6,9.7c-1.6-0.9-3.1-1.2-4.4-1.2c-1,0-1.9,0.2-2.7,0.4
										c-2.9-3.9-7.3-6.1-12.7-6.1c-1.7,0-3.3,0.2-4.6,0.5c-3.2-2.6-6.3-4-9.4-4c-4.3,0-7.3,2.5-9.1,5c-4.5,0.3-7.9,1.9-10,4.7
										c-1,1.4-1.5,2.8-1.8,4.1c-6.2,1.6-9.4,5.9-10.4,9.8c-1.2,4.9,0.8,9.6,5,11.8l0.2,0.1l0.2,0.1c1.8,0.7,3.5,1.1,5.1,1.1
										c2.7,0,5-1,6.8-2.8c2.3-2.3,3-5.4,3.3-7.6c1.3-1.1,4.4-3,10.3-3c0.7,0,1.5,0,2.2,0.1c2.7,0.2,4.6,0.9,5.4,2
										c0.1,0.1,0.2,0.3,0.2,0.4c-4.7,1.4-6.7,4.1-7.5,6.4c-1.7,4.7,0.8,9.5,2.8,11.5c1.7,1.7,4.1,2.7,6.6,2.7
										c3.5,0,7-1.9,10.5-5.6c6,0,9.5,1.5,14.4,10l1.2,2.2l2.5,0.3c8.6,1.1,11.9,5,11.2,13.4l-0.2,2.3l1.6,1.6
										c2,2.1,3.1,5.3,3.1,8.7c-0.1,3.3-1.3,6.4-3.2,8.2c-3.5,3.4-10.6,5.3-19.6,5.3c-1.5,0-3.1-0.1-4.6-0.2l-1.3-0.1l-1.2,0.5
										c-6.9,3.1-9.4,9.8-9.4,14.9c0,5.1,2.1,9.3,5.6,10.9c2.2,1,3.9,1.5,5.6,1.5c5.9,0,8.6-5.5,9.5-7.2
										c1.6-3.2,6.3-10.6,15.5-10.6c1.4,0,2.8,0.2,4.2,0.5c5.4,1.1,9.2,3.5,11.3,7c3.7,6.2,1.5,14.5,1.4,14.5l-1.4,4.5l4.5,1.6
										c0,0,4.3,1.7,4.2,4.3c-0.3,6-1.7,9.4-3.1,11.4c-0.8-1.1-1.9-2.2-3.4-3c-1.6-0.9-3.4-1.4-5.2-1.4c-5,0-9.4,3.4-10,7.6
										c-1.3,10.1,5.9,12.1,9,12.6l0.5,0.1c4.5,0.6,11.3,1.5,13.8,4.8c5.6,9.2,5.1,18.6-1.9,38.5l-1.9,5.5l5.8,1
										c8.2,1.5,13.6,4.7,16,9.5c2.9,5.7,1.7,13.4-0.6,19.2c-4.5,1.3-7.8,5.5-7.8,10.4c0,6,4.9,10.9,10.9,10.9
										c6,0,10.9-4.9,10.9-10.9c0-1.1-0.2-2.2-0.5-3.2c10.2-8,16.1-19.5,17.3-33.3c0.9-10.3-1-21.7-5.1-31.4
										c5.5-6.7,9.1-16.3,9.6-26.5c0.6-11.7-2.7-23-9.2-32.2c5.5-10.7,7.5-22.1,5.8-33.4c-1.3-9-5.1-17.7-10.4-24.3
										c2.7-10.4,3.5-29.9-5-46.7c-6.6-13.1-17.4-22.3-32-27.4c-2.7-17.3-9.8-30.5-21.2-39.2C627,91.6,613.2,87.5,596.4,87.5
										L596.4,87.5L596.4,87.5z"/>
								</g>
								<g>
									<circle class="st1" cx="610.9" cy="214" r="6"/>
									<path class="st0" d="M610.9,208c3.3,0,6,2.7,6,6s-2.7,6-6,6c-3.3,0-6-2.7-6-6S607.6,208,610.9,208 M610.9,204
										c-5.5,0-10,4.5-10,10s4.5,10,10,10c5.5,0,10-4.5,10-10S616.4,204,610.9,204L610.9,204z"/>
								</g>
								<g>
									<circle class="st1" cx="544" cy="188" r="6.2"/>
									<path class="st0" d="M544,181.8c3.4,0,6.2,2.8,6.2,6.2s-2.8,6.2-6.2,6.2s-6.2-2.8-6.2-6.2S540.6,181.8,544,181.8
										 M544,177.8c-5.6,0-10.2,4.6-10.2,10.2s4.6,10.2,10.2,10.2s10.2-4.6,10.2-10.2S549.6,177.8,544,177.8L544,177.8z"/>
								</g>
								<g>
									<circle class="st1" cx="527.5" cy="239" r="6.3"/>
									<path class="st0" d="M527.5,232.7c3.5,0,6.3,2.8,6.3,6.3s-2.8,6.3-6.3,6.3s-6.3-2.8-6.3-6.3S524,232.7,527.5,232.7
										 M527.5,228.7c-5.7,0-10.3,4.6-10.3,10.3s4.6,10.3,10.3,10.3s10.3-4.6,10.3-10.3S533.2,228.7,527.5,228.7L527.5,228.7z"/>
								</g>
								<g>
									<circle class="st1" cx="642.3" cy="359.8" r="6.2"/>
									<path class="st0" d="M642.3,353.5c3.5,0,6.2,2.8,6.2,6.2s-2.8,6.2-6.2,6.2s-6.2-2.8-6.2-6.2S638.8,353.5,642.3,353.5
										 M642.3,349.5c-5.7,0-10.2,4.6-10.2,10.2s4.6,10.2,10.2,10.2s10.2-4.6,10.2-10.2S647.9,349.5,642.3,349.5L642.3,349.5z"/>
								</g>
							</g>
						</g>
					</g>
					<path class="st0" d="M399.9,448c0,0-47.5-1.5-142-4.5c-94.7-3-128.7-39.9-130.1-41.5l4.5-4c0.3,0.4,34,36.6,125.9,39.5
						c94.5,3,142,4.5,142,4.5L399.9,448z"/>
					<path class="st0" d="M400.2,448c0,0,47.5-1.5,142-4.5c94.7-3,128.7-39.9,130.1-41.5l-4.5-4c-0.3,0.4-34,36.6-125.9,39.5
						c-94.5,3-142,4.5-142,4.5L400.2,448z"/>
				</g>
				<path class="st0" d="M480.4,113.5C480.4,113.5,480.4,113.5,480.4,113.5c-10.4,0-17.9,7.1-19.1,14c-0.1,0.6-0.2,1.4-0.3,2.4
					c-0.9,7.7-3.6,31.2-18.9,34c-2.5,0.5-5,0.7-7.4,0.7c-12.9,0-24.4-6.1-36.5-12.5c-3-1.6-6-3.2-9.1-4.7
					c-12.7-6.3-35-13.6-56.2-13.6c-7.3,0-13.9,0.9-19.5,2.7c-14.2,4.6-25.6,11.6-33.8,20.8c-11.2,12.6-16.1,29.1-14.6,48.8
					c1.7,23.2,14.1,37.1,24.2,44.6c12.8,9.5,27.1,12.9,36.2,12.9c1.4,0,2.8-0.1,4-0.2l1.8-0.2l1.4-1.2l35.9-30.8l14.7-12.6
					l-19.3,2.1c-2.1,0.2-20.2,2.2-23.7,2.9c-1.3,0.3-5.4,1.1-10.5,1.1c-5.2,0-12.4-0.9-17.4-5.3c-8.8-7.9-11.2-17.7-7.3-30.1
					c2.6-8.1,13.4-16.6,27-16.8c0.1,0,0.3,0,0.4,0c11.6,0,34.6,6.2,51.7,16.2c7.7,4.5,27.9,15,50.5,15c14.9,0,28.1-4.5,39.3-13.2
					c12.8-10.1,21-24.2,23.9-40.9c2.2-12.5,0.5-22.1,0.5-22.5l-0.1-0.6l-0.2-0.5c-1.6-4.3-6.9-11.8-16.2-12.4
					C481.4,113.5,480.9,113.5,480.4,113.5L480.4,113.5L480.4,113.5z"/>
				<path class="st5" d="M341.5,229.5c-3.3,0.7-21.8,4.3-33-5.7s-13.3-22.7-9-36.3s20.3-20.8,32.7-21c12.3-0.2,37,6.3,55.2,17
					c18.2,10.7,54.7,24.5,83,2.2c28.3-22.3,22.2-57.7,22.2-57.7s-3-8-11-8.5s-13.5,4.8-14.2,9s-2.2,37.2-24,41.2s-39-8.2-56.8-17
					s-50.2-17.2-71.2-10.5s-47.2,23-44.2,63.5s42,53.8,57.8,51.8l35.9-30.8C364.7,226.7,344.8,228.8,341.5,229.5z"/>
				<path class="st5" d="M412.2,213.2l7.2-2.8c0,0,8.8,3.5,17.2,6.5c0,0,25.8,31,40.2,38.5l51.5,106L533,427c0,0-14,22-17.5,32.5
					s-13,38-14.5,49.5l-31,45.5L431,655l9.3,12.4c0.6,0.8,0.7,1.9,0.3,2.8c-1,2.5-3.1,7.3-3.6,8c-0.8,1-4.5,1-4.5,1l1.8-7.7
					c0.2-0.8,0.1-1.7-0.4-2.4l-8.5-14c-1-1.6-3-2.1-4.6-1.3l0,0c-1.7,0.9-2.3,3-1.4,4.7l6.8,12.3c0.5,0.9,0.7,2,0.5,3.1l-1.6,9
					l-3.4,5.9l-8.2-2l3.7-8.8c0.4-1,0.5-2.1,0.3-3.2l-3.9-15.8c-0.5-2-2.4-3.2-4.4-2.7l0,0c-1.9,0.4-3.2,2.3-2.8,4.3l2.9,14.4
					c0.2,1,0.1,2-0.2,2.9l-3.1,8.6l-5,3.6l-7.5-5.6l5.5-8.2c0.8-1.2,1.1-2.7,0.7-4.1l-4.5-18c-0.6-2.3-3.1-3.6-5.3-2.7l0,0
					c-1.8,0.7-2.8,2.7-2.3,4.6l3.9,14.6c0.4,1.4,0.2,2.9-0.6,4.1l-4.9,8.1l-10.1,1l-15-32c0,0,8.8-13.9,14.8-32.9s-8-39.7-8-39.7
					l-9.3,3L352,569c-0.6-1.3-1.8-2.2-3.2-2.4l-20.8-3.1c-1.9-0.3-3.6,1.2-3.6,3.1l0,0c0,1.5,1.1,2.8,2.6,3.1L344,573
					c1.3,0.2,2.3,1,2.9,2.2l5.8,11.5l-9,14.7l-31.3-5.3l-21.7-16.3l-43-64.3l12-63.3c0,0,14.3-31,16.3-36s14.3-54.3,18.7-68.7
					c4.3-14.3,20-53.3,20-53.3l11.7-25c0,0,45.7-35.3,52.7-51.7c0,0,17-5.3,19-6.8l9.2,3.8L412.2,213.2z"/>
				<path class="st6" d="M397.7,207.3l-1.2,57.2c0,0-19,2.5-24.5,18.2c0,0-32.2,18-26.2,44.5c0,0-15.2,12.5-10.5,37.2
					s25.2,34.8,33.8,30.8l20,40.2l22,43c0,0-7.3,13.2-4,29.8l-21.5,15.2l-8-6.5l-29-0.5L334.3,505l-9-30c0,0-6.3-26.3-40.3-21.7
					l-14.3,23.3l7.3,59.7c0,0,25.7,46.7,30.3,49.3l34.3,12.7l11.3-14l3,2.7l-12,19l-32.3-6.7l-23-17L245,517l11.3-65l17.3-38.7
					l38-120.3l13-26.7l34.3-30.1l17.3-20.2L397.7,207.3z"/>
				<polygon class="st6" points="410.4,211 418.7,208.7 415,240.4 408.9,246.5 				"/>
				<path class="st0" d="M539,426.6l-4.5-65.5l-0.1-1.2l-0.5-1l-51.5-106l-0.9-1.8l-1.8-0.9c-11-5.7-31.4-28.6-38.4-37l-1.1-1.3
					l-1.6-0.6c-8.3-2.9-16.9-6.4-17-6.4l-2.2-0.9l-2.2,0.8l-6.8,2.6l-2.8,0.6l-7.4-3.1l-3.2-1.3l-2.5,1.9c-1.9,1-10.4,3.9-17.4,6.1
					l-2.6,0.8l-1.1,2.5c-5.2,12.2-38.5,39.7-50.8,49.3l-1.2,0.9l-0.6,1.3l-11.7,25l-0.1,0.1l-0.1,0.2c-0.6,1.6-15.8,39.4-20.2,53.8
					c-2.1,6.9-6,21.7-9.7,36c-3.5,13.3-7.9,30-8.8,32.2c-1.5,3.8-11.3,25-16.2,35.7l-0.3,0.7l-0.1,0.7l-12,63.3l-0.5,2.4l1.4,2
					l43,64.3l0.6,0.8l0.8,0.6l21.7,16.3l1.2,0.9l1.4,0.2l31.3,5.3l4,0.7l2.1-3.5l9-14.7l0.8-1.2l1.6-0.5l4.7-1.5
					c3.3,6.2,8.7,19.1,5,30.7c-5.7,18-14.1,31.3-14.1,31.5l-1.8,2.8l1.4,3l15,32l1.8,3.8l4.2-0.4l10.1-1l2.4-0.2l0.9,0.7l7.5,5.6
					l3.5,2.7l3.6-2.6l4.2-3.1l3.3,0.8l8.2,2l4.4,1.1l2.2-3.9l3.4-5.9l0.4-0.7h1.7c6.8,0,8.7-2.6,9.3-3.4c0.5-0.6,1.1-1.4,4.4-9.3
					c1.2-2.9,0.8-6.2-1.1-8.7l-7.3-9.8l37.6-96.8l30.6-44.9l0.8-1.2l0.2-1.4c1.3-9.8,9.2-33.4,13-44.8c0.5-1.3,0.9-2.5,1.2-3.6
					c2.7-8,13.1-25.2,16.9-31.2l1.1-1.7L539,426.6z M515.5,459.5c-3.5,10.5-13,38-14.5,49.5l-31,45.5L431,655l9.3,12.4
					c0.6,0.8,0.7,1.9,0.3,2.8c-1,2.5-3.1,7.3-3.6,8c-0.8,1-4.5,1-4.5,1l1.8-7.7c0.2-0.8,0.1-1.7-0.4-2.4l-8.5-14
					c-0.7-1.1-1.8-1.7-3-1.7c-0.6,0-1.1,0.1-1.7,0.4c-1.7,0.9-2.3,3-1.4,4.7l6.8,12.3c0.5,0.9,0.7,2,0.5,3.1l-1.6,9l-3.4,5.9l-8.2-2
					l3.7-8.8c0.4-1,0.5-2.1,0.3-3.2l-3.9-15.8c-0.4-1.7-1.9-2.8-3.6-2.8c-0.3,0-0.6,0-0.8,0.1c-1.9,0.4-3.2,2.3-2.8,4.3l2.9,14.4
					c0.2,1,0.1,2-0.2,2.9l-3.1,8.6l-5,3.6l-7.5-5.6l5.5-8.2c0.8-1.2,1.1-2.7,0.7-4.1l-4.5-18c-0.4-1.8-2.1-3-3.8-3
					c-0.5,0-1,0.1-1.5,0.3c-1.8,0.7-2.8,2.7-2.3,4.6l3.9,14.6c0.4,1.4,0.2,2.9-0.6,4.1l-4.9,8.1l-10.1,1l-15-32
					c0,0,8.8-13.9,14.8-32.9s-8-39.7-8-39.7l-9.3,3L352,569c-0.6-1.3-1.8-2.2-3.2-2.4l-20.8-3.1c-0.2,0-0.3,0-0.5,0
					c-1.7,0-3.2,1.4-3.2,3.2c0,1.5,1.1,2.8,2.6,3.1L344,573c1.3,0.2,2.3,1,2.9,2.2l5.8,11.5l-9,14.7l-31.3-5.3l-21.7-16.3l-43-64.3
					l12-63.3c0,0,14.3-31,16.3-36s14.3-54.3,18.7-68.7c4.3-14.3,20-53.3,20-53.3l11.7-25c0,0,45.7-35.3,52.7-51.7c0,0,17-5.3,19-6.8
					l5,2.1l0,0l3.7,35.4h3.4l2.3-34.8l7.2-2.8c0,0,8.8,3.5,17.2,6.5c0,0,25.8,31,40.2,38.5l51.5,106L533,427
					C533,427,519,449,515.5,459.5z"/>
				<path class="st0" d="M410.6,221.1c0,0,10.2-1.8,12-2.2s2.9-0.5,5.9,1.9s10.9,8.8,15.6,16c0,0-13.6-10-19.4-12.2l-14.4,1.5
					L410.6,221.1z"/>
				<path class="st0" d="M410,232.4c0,0,8-0.4,11.5-0.4s7.8-2.4,27.5,12.9c0,0-15.8-6.2-23.4-7.9h-16.2L410,232.4z"/>
				<path class="st0" d="M404.4,220.2c0,0-6-3.4-8.8-4.8s-4.6,0.4-6.4,1.9s-9.6,7-17.2,17.1c0,0,16.8-11.8,18.6-12.4
					s4.2-2.4,7.9-0.5s6.4,3.5,6.4,3.5L404.4,220.2z"/>
				<path class="st0" d="M405.8,231.9c0,0-7.5-2.9-10-3.9s-5.6-0.1-7.9,1s-11.1,6.1-21.5,15.9c0,0,18.9-10,22.1-11.1s8.3-2.5,16.9,2
					l1.3-1.2L405.8,231.9z"/>
				<path class="st1" d="M505.7,327c0,0,4.3,40.7-2.7,65.7s-47.7,16-47.7,16s-1.7-14-20-23c0,0,5,22.5-6.8,32.8
					c-10.8,9.5-19,10.4-20.4,10.5c-1.3-0.1-9.5-1-20.4-10.5c-11.8-10.3-6.8-32.8-6.8-32.8c-18.3,9-20,23-20,23s-40.7,9-47.7-16
					s-2.7-65.7-2.7-65.7c-13.3,16.3-26.3,56.7-22.3,84.7s44.5,46.3,75.5,52.3c28,5.4,41.8,14.5,44.2,16.2v0.3c0,0,0.1-0.1,0.2-0.1
					c0.1,0.1,0.2,0.1,0.2,0.1v-0.3c2.4-1.7,16.1-10.8,44.2-16.2c31-6,71.5-24.3,75.5-52.3S519,343.3,505.7,327z"/>
				<path class="st0" d="M409.6,243.8c0,0,6.5-0.9,9-1.2s15.5,1.6,23.8,9.5c0,0-10.5-3.6-18.9-5.6l-14.6,0.1L409.6,243.8z"/>
				<path class="st0" d="M406.6,243.1c0,0-7.8-2.8-12.1-4s-11.5,3.6-21.4,12.6c0,0,15.6-7.9,18.4-8.4s15.6,3.1,15.6,3.1L406.6,243.1
					z"/>
				<g>
					<path class="st0" d="M454.7,485c0,0,37.7-3.7,59.7-25l2.7,1.3l-5.3,16.7l-3.3,3.2C508.3,481.2,491.7,500.3,454.7,485z"/>
					<path class="st0" d="M408,504.7c0,0,6.3-17.3,24-21.7s30.3-8.3,35.3-17.3c0,0-16.7,5.3-37.7,6.7
						C408.7,473.7,407.7,500,408,504.7z"/>
					<path class="st0" d="M331.3,457.3c0,0,23.3,17.7,40,21c16.7,3.3,33.7,3.3,37,28l-2.7,1.7c0,0-3.7-11.3-32.7-18.3
						S331.3,457.3,331.3,457.3z"/>
					<path class="st0" d="M323,459c0,0,9.7,24.9,36.3,32c26.7,7,37.7,13.4,43.3,25.7c0,0-10-7.3-40.7-9.3S324.7,461.3,323,459z"/>
					<path class="st0" d="M347.7,523.7c0,0-21.3-8.7-34,12.7c-12.7,21.3-36.7,18-36.7,18s20.3-5,31.3-25.7
						C319.3,508,347.7,523.7,347.7,523.7z"/>
					<path class="st0" d="M330,512.7c0,0-18.3-14-36,5.7c-17.7,19.7-40.7,12-40.7,12s23.7-2.3,34-18
						C297.7,496.7,316.3,499,330,512.7z"/>
					<path class="st0" d="M329.3,502.7c0,0-7-24.3-26-25.7s-18,15.3-51,0.3c0,0,15.3,20.9,39,12.5
						C315.1,481.3,329.3,502.7,329.3,502.7z"/>
					<path class="st0" d="M366.7,561.3c-0.6,0-1.3-0.2-1.8-0.6l-8.9-6.8l-20.1-1.3c-1.7-0.1-2.9-1.5-2.8-3.2
						c0.1-1.7,1.5-2.9,3.2-2.8l21.9,1.4l10.4,7.9c1.3,1,1.6,2.9,0.6,4.2C368.5,560.9,367.6,561.3,366.7,561.3z"/>
					<path class="st0" d="M374.7,540c-0.6,0-1.3-0.2-1.8-0.6l-5-3.9l-16.1,2.2c-1.6,0.2-3.2-0.9-3.4-2.6s0.9-3.2,2.6-3.4l18.6-2.5
						l7,5.4c1.3,1,1.5,2.9,0.5,4.2C376.4,539.6,375.6,540,374.7,540z"/>
					<path class="st0" d="M383,526.2c-0.9,0-1.8-0.4-2.4-1.2l-4.4-5.8l-27.9-0.2l-17.6-12.1l-8.8-27.7c-0.5-1.6,0.4-3.3,2-3.8
						c1.6-0.5,3.3,0.4,3.8,2l8.2,25.8l14.4,9.9l29,0.3l6.2,8.2c1,1.3,0.8,3.2-0.6,4.2C384.3,526,383.6,526.2,383,526.2z"/>
					<path class="st0" d="M448.3,494.3c14.3,4.9,38.7,18,60-7.3c0,0-6.3,38.7-61.7,14.3c-19.5-5.5-38.3,5-38.3,5
						S424,487.5,448.3,494.3z"/>
				</g>
				<g>
					<path class="st1" d="M389.5,312.5c0,0-10.5,12.5-6.8,29.8c3,10.2-8,12.8-13,10.5s-8.5-7.2-8.2-16.8c0,0-10.8-5-6.8-13
						s13-17.2,13-17.2s4.8-0.2,6.2,2c2.8-0.5,7.2,1,8.2,3.2C384.2,310.5,389.2,310.5,389.5,312.5z"/>
					<path class="st1" d="M426.6,312.5c0,0,10.5,12.5,6.8,29.8c-3,10.2,8,12.8,13,10.5s8.5-7.2,8.2-16.8c0,0,10.8-5,6.8-13
						s-13-17.2-13-17.2s-4.8-0.2-6.2,2c-2.8-0.5-7.2,1-8.2,3.2C431.9,310.5,426.9,310.5,426.6,312.5z"/>
				</g>
				<g>
					<path class="st0" d="M302,405.3c-11-29.7,8-79,8-79l-7.4,0.1l3.8,5.1l-7.5-0.3l5.3,3.7l-7.1-0.8l6,4.1l-7.1-1l5.3,4.1l-7.6-0.6
						l6.3,3.6l-7.9-0.2l6.6,3.4h-7.2l6.1,3.2l-7.7,0.2l6.2,2.8l-7.1,0.8l5.9,2.6l-6.9,1.1l5.8,2.1l-7,1.1l5.9,2.1l-7,1.8l6.3,1.7
						l-7.1,1.5l6.1,1.9l-7,1.2l6.1,2.2l-7.1,1.4l6.4,1.9l-7,1.4l6.1,1.9l-6.6,1.6l5.9,1.7l-6.4,1.4l6.1,1.8l-7.1,1.8l6.4,1.6
						l-6.7,1.3l6.6,2.4l-7.2,1.3l7.1,1.3l-7.8,1.8l7.6,1.6l-7.8,1.9l7.7,1.4l-7,2.1l7.4,1.2l-7.6,2.1l7.8,1.3l-7.2,2.6l7.6,0.9
						l-7.1,2.7l7.8,0.5l-6.8,2.8l7.3,0.4l-6.1,3.1l7-0.1l-5.7,3.4l7.4-0.6l-5.6,4.1l7-1.3l-4.9,4.6l6.9-2.1l-5.1,5.2l7.2-2.7
						l-4.6,5.4l6.4-2.8l-4.2,5.8l6.6-3.4l-3.8,6.1l6.1-4.1l-3.1,6.4l5.6-4.1l-2.5,6.3l5.3-4.8l-2.1,6.7l4.9-4.9l-1.6,6.8l4.8-5.5
						l-1.5,6.8l4.5-5.6l-1,7.2l4.1-5.9l-1.2,7.3l4.4-5.5l-0.8,6.4l4-5.6l-0.8,6.8l3.8-5.7l-0.3,7l3.8-6.5l0.3,7.8l2.7-6.5l0.8,7.2
						l2.2-6.5l1.3,6.7l2.3-6l1,7.3l2.2-7l1.2,8l2.2-7.2l1.7,7.7l1.7-7.5l1.8,7.2l1.7-6.8l1.8,7.2l1.7-7.7l1.8,7.3l0.8-7.3l2.8,6.7
						l0.7-7l3.2,4.3v-5.7C336,443.3,313,435,302,405.3z"/>
					<path class="st0" d="M316.8,339.4l-7.4-1.2l5.6,3.8l-7.2-0.6l5.8,3.9l-7.1-0.5l6,3.9l-7.4-0.1l6.5,2.9l-7.4,0.6l6.5,2.6
						l-7.5,0.9l6.9,2.5l-7.4,0.8l6.1,2.5l-7,1.2l6.6,2l-7.5,1.5l7.6,1.4l-7.4,2.9l7.4,0.1l-7.6,3.2l7.5,0.2l-7.2,3.1l7.8,0.2
						l-7.5,3.1l7.8,0.2l-7.5,3.4h8.1l-7.1,3.6l7.6-0.4l-6.8,4l7.2-0.8l-5.2,4.1l6.2-1.4l-4.6,4l5.9-0.8l-3.7,3.3l5.2-0.2l-2.4,2.5
						c30.9,21.8,41.5,12,41.5,12s-34-16.7-34.7-48c-0.7-31.3,22.3-59.7,22.3-59.7l-6.5-4.1l3.5,6L332,305l3.6,5.8l-6.1-3.5l4.1,6.2
						l-6.4-3l4.1,5.6l-6.5-2.9l4.8,5.6l-7.1-2.8l4.6,5.4l-6.5-2.4l4.6,5.2l-6.8-2l5.1,5l-7-2.1l5,4.9l-7.1-1.9l5.1,4.8l-6.9-1.5
						l5.1,4.5l-7.1-1.2L316.8,339.4z"/>
					<path class="st0" d="M362.2,426.5v-4C322,419,304.5,399,304.5,399C324.5,423.5,362.2,426.5,362.2,426.5z"/>
					<path class="st0" d="M362.2,433.2v-4c-39.2-2-56-21-56-21C322.5,431,362.2,433.2,362.2,433.2z"/>
					<path class="st0" d="M363.2,439.5v-4.2c-39-1.8-54-18.5-54-18.5C322.5,436.2,363.2,439.5,363.2,439.5z"/>
					<path class="st0" d="M363.7,421.7l-0.2,3.2c9.2,6.5,23.8,2.7,23.8,2.7C368.3,428.3,363.7,421.7,363.7,421.7z"/>
					<path class="st0" d="M389.3,434c0,0-17.2-0.2-25.2-5.7v2.7C364.2,431,374,437.2,389.3,434z"/>
					<path class="st0" d="M392,437c-19.4,2.5-27.5-3.5-27.5-3.5v3.5C378.4,442.3,392,437,392,437z"/>
					<path class="st0" d="M385.2,418.9l1.7,0.1v-2.7c-10.9-9.1-3.6-38.7-3.6-38.7C370.5,404.5,385.2,418.9,385.2,418.9z"/>
					<ellipse class="st0" cx="369.1" cy="412.2" rx="1.9" ry="1.4"/>
					<ellipse class="st0" cx="373.9" cy="416.2" rx="2.1" ry="1.3"/>
					<path class="st0" d="M376.9,421.7c0.5,0,1-0.4,1-1s-0.4-1-1-1s-1,0.4-1,1S376.3,421.7,376.9,421.7z"/>
					<circle class="st0" cx="380.6" cy="419.9" r="0.9"/>
					<path class="st0" d="M344.5,312.2l-3.8,0.2l3.1,1l-4.1,0.8l3.4,0.8l-4.1,0.8l3.2,0.8l-3.9,0.8l3,0.7l-3.5,0.3l3.1,0.9l-3.5,0.8
						l2.8,0.9c0,0-10,7.7-14.7,21.7c-5.7,18.7-2.2,36,7.9,47.7c8.6,10,22.3,15.9,26,17.4c0,0.1,0,0.2,0,0.4
						c-1,12.6,14.5,15.2,14.5,15.2c-21.2-19.3,4.8-36.5,4.8-36.5c-2-0.2-6.2,1.7-10.2,5.2c-21.3-4.7-25.3-25.7-25.3-25.7
						c10.8,7,24,7,23.8,2c-28.2-1.5-26-18.2-24.2-26.2c1.8-8,9.3-14.8,9.3-14.8c-0.1,9.5,7.5,11.1,7.5,11.1s-1.5,14.6,11.5,15.8
						s11.4,14.2,11.4,14.2c5-14.9,3.4-22.5,0.7-26.9s-11.5-9.1-22.1-6.2c-11.8-5-5.7-13.4-5.7-12.5s2,3,6.8,3.3s7.2,5.2,7.2,5.2
						c0.4-3.2-1.4-5.4-1.4-5.4c8.5,0.8,12.6,9.4,12.6,9.4c-5.2-16.8,7.6-23.6,7.6-23.6c-8.1-1.2-12.3,4.4-15.2,9.2
						c-2.8-6.2,7-11.7,7-11.7c-8.4-4.1-12.7,7.5-13.5,9.7c-1.7,0.9-10.2,2-8.7-1.2c1.6-3.2,13.1-14.8,13.1-14.8l-2.4-2.2l0.2,2.2
						l-1.8-1.4l0.7,1.8l-2.2-1.1l1.1,1.8l-2.3-1l1.2,2.1l-2.6-1.2l1.3,2.2l-2.8-1.1l1.2,1.9l-2.5-0.6l1.6,1.9l-3-1l1.8,2.2l-3.1-1.1
						l1.9,2.1l-3.2-0.9l1.8,1.9l-3.2-0.8l2.2,1.9l-3.2-0.6l2.4,2.1l-3.3-0.8l2.2,1.7l-3.2-0.2l2.4,1.8l-3.4-0.2l2.6,1.5h-3.7
						l2.6,1.4h-3.4l2.6,1.5h-3.3l2.6,1.4h-3.4l2.4,1.2l-2.5,0.1l1.5,0.9c-9.7,7.5-17,23.8-14,38.8c6.1,30.4,24.6,32.4,30.2,32.3
						c-1.8,2.1-3.3,4.6-4.3,7.3c-4.4-1.6-25.5-10.3-31.2-32.7c-6.3-25,14-46.7,14-46.7c8.4-21,21.7-29.9,21.7-29.9l-3.1-2.8l0.7,2.5
						l-2.3-1.7l1.1,2.2l-2.7-1.5l1.3,2.6l-2.4-1.8l1,2.6l-2.2-1.8l1.2,2.7l-2.7-1.6l1.2,2.5l-2.9-1.5l1.5,2.6l-2.8-1.4l1.7,2.5
						L351,299l1.5,2.5l-2.9-1.2l1.8,2.4l-3.1-1l2,2.5l-3.2-1l2.1,2.1l-3.4-0.6l2.2,2l-3.6-0.8l2.6,2l-3.7-0.1l2.8,1.5h-3.7l2.7,1.4
						l-3.7,0.2L344.5,312.2z M372.7,336.8c4.2,0,7.7,3.4,7.7,7.7c0,4.2-3.4,7.7-7.7,7.7s-7.7-3.4-7.7-7.7
						C365,340.2,368.4,336.8,372.7,336.8z"/>
					<path class="st0" d="M373,346.4c1.7,0,3.1-1.4,3.1-3.1c0-1.7-1.4-3.1-3.1-3.1c-1.7,0-3.1,1.4-3.1,3.1
						C369.9,345,371.3,346.4,373,346.4z M373.3,341.4c0.5,0,0.8,0.4,0.8,0.8c0,0.5-0.4,0.8-0.8,0.8c-0.5,0-0.8-0.4-0.8-0.8
						C372.5,341.7,372.9,341.4,373.3,341.4z"/>
					<path class="st0" d="M362.9,357.8c-8.8-1.1-9.2-14.7-9.2-14.7c-3.5,11.2,3.5,17.7,12.3,18.1s15.6,5.5,15.6,5.5
						C377.9,358.4,371.6,358.9,362.9,357.8z"/>
					<path class="st0" d="M403.1,378.6c0.4-11.6-1-15.5-5.5-17.1s-6.2-10.1-6.2-10.1c-0.1,9,2.9,10.8,6.8,13.2s3,13.8,3,13.8
						L403.1,378.6z"/>
					<path class="st0" d="M385.3,374.8c3.8-3.7,5.7-3.5,6.7-2.4s0.6,8.8,0.6,8.8h2.8c-0.1-12.2-3-12.4-5.4-12.1s-3.1,1.2-6.5,3.8
						s-8.2-2.8-8.2-2.8C374.6,372.6,382.1,377.9,385.3,374.8z"/>
					<path class="st0" d="M370.8,285.8c14.4-7.2,29.2-6.8,31.5-6.8s2.4,1.6,2.4,1.6s-0.1,14.1-0.2,16.8s-4,6.4-4,6.4
						s-2.9-1.8-8.1-1.5c-7.8,1-9.6,7.9-9.6,7.9c5.5,1.9,8-1.8,13.6-1.5s5,5.1,5,5.1c-15.1,12.9-12.5,28.8-12.5,28.8l4,3.9
						c0.8-26,15.2-32.4,15.2-32.4s14.5,6.4,15.2,32.4l4-3.9c0,0,2.6-15.9-12.5-28.8c0,0-0.6-4.9,5-5.1s8.1,3.4,13.6,1.5
						c0,0-1.9-6.9-9.6-7.9c-5.2-0.2-8.1,1.5-8.1,1.5s-3.9-3.8-4-6.4s-0.2-16.8-0.2-16.8s0.1-1.6,2.4-1.6s17.1-0.5,31.5,6.8
						c0,0,0.7-0.3,0-1.5h1.3v-0.8h-1.9c-0.2-0.3-0.5-0.6-0.9-1h2.4v-0.8h-2.8v-2.5h-0.8v2.1c-0.3-0.3-0.6-0.6-0.9-0.8v-3h-0.8v2.2
						c-0.3-0.2-0.5-0.4-0.8-0.7v-2.3h-0.8v1.7c-0.3-0.2-0.6-0.4-0.9-0.7V275h-0.8v2.1c-0.3-0.2-0.5-0.4-0.8-0.5v-2.4h-0.8v1.9
						c-0.3-0.2-0.5-0.3-0.8-0.5v-2.3h-0.8v1.8c-0.3-0.2-0.6-0.3-0.9-0.5v-2.1h-0.8v1.7c-0.3-0.1-0.6-0.3-0.9-0.4v-2.1h-0.8v1.7
						c-0.3-0.1-0.5-0.2-0.8-0.3v-2.3h-0.8v2c-0.3-0.1-0.5-0.2-0.8-0.3v-1.9h-0.8v1.6c-0.3-0.1-0.5-0.2-0.8-0.2v-2h-0.8v1.8
						c-0.3-0.1-0.6-0.1-0.9-0.2V269H424v2.3c-0.3-0.1-0.6-0.1-0.9-0.1v-2.7h-0.8v2.6c-0.3,0-0.6-0.1-0.8-0.1v-2.8h-0.8v2.7
						c-0.3,0-0.5,0-0.8,0v-2.6H419v2.6c-0.3,0-0.6,0-0.9,0v-2.6h-0.8v2.6c-0.3,0-0.6,0-0.8,0.1v-2.7h-0.8v2.8
						c-0.3,0-0.5,0.1-0.8,0.1v-2H414v2.1c-0.3,0-0.6,0.1-0.8,0.2V269h-0.8v2.5c-0.3,0.1-0.6,0.1-0.8,0.2v-1.8h-0.8v2
						c-0.3,0.1-0.6,0.2-0.9,0.3V270h-0.8v2.5c-0.3,0.1-0.5,0.2-0.8,0.3c-0.3-0.1-0.5-0.2-0.8-0.3V270h-0.8v2.2
						c-0.3-0.1-0.6-0.2-0.9-0.3v-2h-0.8v1.8c-0.3-0.1-0.6-0.1-0.8-0.2V269h-0.8v2.3c-0.3-0.1-0.6-0.1-0.8-0.2V269h-0.8v2
						c-0.3,0-0.5-0.1-0.8-0.1v-2.8h-0.8v2.7c-0.3,0-0.6-0.1-0.8-0.1v-2.6h-0.8v2.6c-0.3,0-0.6,0-0.9,0v-2.6h-0.8v2.6
						c-0.3,0-0.5,0-0.8,0v-2.7h-0.8v2.8c-0.3,0-0.6,0.1-0.8,0.1v-2.6h-0.8v2.7c-0.3,0-0.6,0.1-0.9,0.1V269h-0.8v2.4
						c-0.3,0.1-0.6,0.1-0.9,0.2v-1.8h-0.8v2c-0.3,0.1-0.5,0.2-0.8,0.2v-1.6h-0.8v1.9c-0.3,0.1-0.5,0.2-0.8,0.3v-2h-0.8v2.3
						c-0.3,0.1-0.5,0.2-0.8,0.3v-1.7h-0.8v2.1c-0.3,0.1-0.6,0.3-0.9,0.4v-1.7h-0.8v2.1c-0.3,0.2-0.6,0.3-0.9,0.5v-1.8H381v2.3
						c-0.3,0.2-0.5,0.3-0.8,0.5v-1.9h-0.8v2.4c-0.3,0.2-0.6,0.4-0.8,0.5V275h-0.8v2.7c-0.3,0.2-0.6,0.4-0.9,0.7v-1.7H376v2.3
						c-0.3,0.2-0.6,0.5-0.8,0.7v-2.2h-0.8v3c-0.3,0.3-0.6,0.6-0.9,0.8v-2.1h-0.8v2.5h-2.8v0.8h2.4c-0.4,0.4-0.7,0.7-0.9,1h-1.9v0.8
						h1.3C370,285.4,370.8,285.8,370.8,285.8z"/>
					<path class="st0" d="M396.8,293.2c2.2-2,3.7-5.9,4.9-6.7l-0.1-1.8c0,0-4.1,0.2-5.6,2.6c-1.5,2.4-6.2,2.7-9.6,2.6
						c-3.4-0.1-7.9,1.2-11.5,5.9v3.8c0,0,6.3-5.1,9.9-5.3C388.4,294.2,394.6,295.2,396.8,293.2z"/>
					<path class="st0" d="M529.4,406.6l7.4-1.2l-7-2.1l7.7-1.4l-7.8-1.9l7.6-1.6l-7.8-1.8l7.1-1.3l-7.2-1.3l6.6-2.4l-6.7-1.3
						l6.4-1.6l-7.1-1.8l6.1-1.8l-6.4-1.4l5.9-1.7l-6.6-1.6l6.1-1.9l-7-1.4l6.4-1.9l-7.1-1.4l6.1-2.2l-7-1.2l6.1-1.9l-7.1-1.5
						l6.3-1.7l-7-1.8l5.9-2.1l-7-1.1l5.8-2.1l-6.9-1.1l5.9-2.6l-7.1-0.8l6.2-2.8l-7.7-0.2l6.1-3.2h-7.2l6.6-3.4l-7.9,0.2l6.3-3.6
						l-7.6,0.6l5.3-4.1l-7.1,1l6-4.1l-7.1,0.8l5.3-3.7l-7.5,0.3l3.8-5.1l-7.4-0.1c0,0,19,49.3,8,79s-34,38-67,51v5.7l3.2-4.3l0.7,7
						l2.8-6.7l0.8,7.3l1.8-7.3l1.7,7.7l1.8-7.2l1.7,6.8l1.8-7.2l1.7,7.5l1.7-7.7l2.2,7.2l1.2-8l2.2,7l1-7.3l2.3,6l1.3-6.7l2.2,6.5
						l0.8-7.2l2.7,6.5l0.3-7.8l3.8,6.5l-0.3-7l3.8,5.7l-0.8-6.8l4,5.6l-0.8-6.4l4.4,5.5l-1.2-7.3l4.1,5.9l-1-7.2l4.5,5.6l-1.5-6.8
						l4.8,5.5l-1.6-6.8l4.9,4.9l-2.1-6.7l5.3,4.8l-2.5-6.3l5.6,4.1l-3.1-6.4l6.1,4.1l-3.8-6.1l6.6,3.4l-4.2-5.8l6.4,2.8l-4.6-5.4
						l7.2,2.7l-5.1-5.2l6.9,2.1l-4.9-4.6l7,1.3l-5.6-4.1l7.4,0.6l-5.7-3.4l7,0.1l-6.1-3.1l7.3-0.4l-6.8-2.8l7.8-0.5l-7.1-2.7
						l7.6-0.9l-7.2-2.6l7.8-1.3L529.4,406.6z"/>
					<path class="st0" d="M462.3,414c0,0,10.7,9.8,41.5-12l-2.4-2.5l5.2,0.2l-3.7-3.3l5.9,0.8l-4.6-4l6.2,1.4l-5.2-4.1l7.2,0.8
						l-6.8-4l7.6,0.4l-7.1-3.6h8.1l-7.5-3.4l7.8-0.2l-7.5-3.1l7.8-0.2l-7.2-3.1l7.5-0.2l-7.6-3.2l7.4-0.1l-7.4-2.9l7.6-1.4l-7.5-1.5
						l6.6-2l-7-1.2l6.1-2.5l-7.4-0.8l6.9-2.5l-7.5-0.9l6.5-2.6l-7.4-0.6l6.5-2.9l-7.4,0.1l6-3.9l-7.1,0.5l5.8-3.9l-7.2,0.6l5.6-3.8
						l-7.4,1.2l6-4.6l-7.1,1.2l5.1-4.5l-6.9,1.5l5.1-4.8l-7.1,1.9l5-4.9l-7,2.1l5.1-5l-6.8,2l4.6-5.2l-6.5,2.4l4.6-5.4l-7.1,2.8
						l4.8-5.6l-6.5,2.9l4.1-5.6l-6.4,3l4.1-6.2l-6.1,3.5l3.6-5.8l-6.4,3.2l3.5-6l-6.5,4.1c0,0,23,28.3,22.3,59.7
						C496.3,397.3,462.3,414,462.3,414z"/>
					<path class="st0" d="M453.8,422.5v4c0,0,37.8-3,57.8-27.5C511.5,399,494,419,453.8,422.5z"/>
					<path class="st0" d="M453.8,429.2v4c0,0,39.8-2.2,56-25C509.8,408.2,493,427.2,453.8,429.2z"/>
					<path class="st0" d="M452.8,439.5c0,0,40.8-3.2,54-22.8c0,0-15,16.8-54,18.5V439.5z"/>
					<path class="st0" d="M452.3,421.7c0,0-4.7,6.7-23.7,5.8c0,0,14.7,3.8,23.8-2.7L452.3,421.7z"/>
					<path class="st0" d="M451.8,428.3c-8,5.5-25.2,5.7-25.2,5.7c15.3,3.2,25.2-3,25.2-3V428.3z"/>
					<path class="st0" d="M451.5,437v-3.5c0,0-8.1,6-27.5,3.5C424,437,437.6,442.3,451.5,437z"/>
					<path class="st0" d="M429.5,413.5c3-5.8-5.5-7.5-5.5-7.5l-16,0.2l-16-0.2c0,0-8.5,1.8-5.5,7.5c5.8,12,21.5,15.1,21.5,15.1
						S423.8,425.5,429.5,413.5z"/>
					<path class="st0" d="M432.7,377.7c0,0,7.3,29.6-3.6,38.7v2.7l1.7-0.1C430.8,418.9,445.5,404.5,432.7,377.7z"/>
					<ellipse class="st0" cx="446.9" cy="412.2" rx="1.9" ry="1.4"/>
					<ellipse class="st0" cx="442.1" cy="416.2" rx="2.1" ry="1.3"/>
					<path class="st0" d="M439.1,419.8c-0.5,0-1,0.4-1,1s0.4,1,1,1s1-0.4,1-1S439.7,419.8,439.1,419.8z"/>
					<circle class="st0" cx="435.4" cy="419.9" r="0.9"/>
					<path class="st0" d="M445,303.2c0,0,11.5,11.7,13.1,14.8c1.6,3.2-7,2.1-8.7,1.2c-0.8-2.2-5.1-13.8-13.5-9.7c0,0,9.8,5.4,7,11.7
						c-2.8-4.8-7.1-10.4-15.2-9.2c0,0,12.9,6.8,7.6,23.6c0,0,4.1-8.6,12.6-9.4c0,0-1.8,2.1-1.4,5.4c0,0,2.5-4.8,7.2-5.2
						s6.8-2.5,6.8-3.3s6,7.5-5.7,12.5c-10.6-2.9-19.5,1.9-22.1,6.2s-4.3,12,0.7,26.9c0,0-1.6-13.1,11.4-14.2s11.5-15.8,11.5-15.8
						s7.6-1.7,7.5-11.1c0,0,7.5,6.8,9.3,14.8c1.8,8,4,24.7-24.2,26.2c-0.2,5,13,5,23.8-2c0,0-4,21-25.3,25.7
						c-4-3.5-8.3-5.4-10.2-5.2c0,0,26.1,17.2,4.8,36.5c0,0,15.5-2.7,14.5-15.2c0-0.1,0-0.2,0-0.4c3.7-1.5,17.4-7.4,26-17.4
						c10-11.7,13.5-29,7.9-47.7c-4.7-14-14.7-21.7-14.7-21.7l2.8-0.9l-3.5-0.8l3.1-0.9l-3.5-0.3l3-0.7l-3.9-0.8l3.2-0.8l-4.1-0.8
						l3.4-0.8l-4.1-0.8l3.1-1l-3.8-0.2l3-1.2l-3.7-0.2l2.7-1.4h-3.7l2.8-1.5l-3.7,0.1l2.6-2l-3.6,0.8l2.2-2l-3.4,0.6l2.1-2.1l-3.2,1
						l2-2.5l-3.1,1l1.8-2.4l-2.9,1.2l1.5-2.5l-2.7,1.1l1.7-2.5l-2.8,1.4l1.5-2.6l-2.9,1.5l1.2-2.5l-2.7,1.6l1.2-2.7l-2.2,1.8l1-2.6
						l-2.4,1.8l1.3-2.6l-2.7,1.5l1.1-2.2l-2.3,1.7l0.7-2.5l-3.1,2.8c0,0,13.2,8.9,21.7,29.9c0,0,20.3,21.7,14,46.7
						c-5.7,22.4-26.8,31.1-31.2,32.7c-1-2.7-2.6-5.1-4.3-7.3c5.6,0.1,24.1-1.9,30.2-32.3c3-15-4.3-31.3-14-38.8l1.5-0.9l-2.5-0.1
						l2.4-1.2h-3.4l2.6-1.4h-3.3l2.6-1.5h-3.4l2.6-1.4h-3.7l2.6-1.5l-3.4,0.2l2.4-1.8l-3.2,0.2l2.2-1.7l-3.3,0.8l2.4-2.1l-3.2,0.6
						l2.2-1.9l-3.2,0.8l1.8-1.9l-3.2,0.9l1.9-2.1l-3.1,1.1l1.8-2.2l-3,1l1.6-1.9l-2.5,0.6l1.2-1.9l-2.8,1.1l1.3-2.2l-2.6,1.2
						l1.2-2.1l-2.3,1l1.1-1.8l-2.2,1.1l0.7-1.8l-1.8,1.4l0.2-2.2L445,303.2z M443.3,352.1c-4.2,0-7.7-3.4-7.7-7.7
						c0-4.2,3.4-7.7,7.7-7.7s7.7,3.4,7.7,7.7C451,348.6,447.6,352.1,443.3,352.1z"/>
					<path class="st0" d="M443,340.2c-1.7,0-3.1,1.4-3.1,3.1c0,1.7,1.4,3.1,3.1,3.1c1.7,0,3.1-1.4,3.1-3.1
						C446.1,341.6,444.7,340.2,443,340.2z M442.7,343c-0.5,0-0.8-0.4-0.8-0.8c0-0.5,0.4-0.8,0.8-0.8c0.5,0,0.8,0.4,0.8,0.8
						C443.5,342.7,443.1,343,442.7,343z"/>
					<path class="st0" d="M462.3,343c0,0-0.5,13.6-9.2,14.7s-15,0.6-18.8,8.9c0,0,6.8-5.1,15.6-5.5S465.8,354.2,462.3,343z"/>
					<path class="st0" d="M418.4,361.5c-4.5,1.6-5.9,5.5-5.5,17.1l2-0.2c0,0-0.9-11.2,3-13.8s6.9-4.2,6.8-13.2
						C424.6,351.4,422.9,359.9,418.4,361.5z"/>
					<path class="st0" d="M426,369c-2.4-0.2-5.2-0.1-5.4,12.1h2.8c0,0-0.4-7.6,0.6-8.8s2.9-1.3,6.7,2.4c3.2,3.1,10.7-2.1,10.1-4.8
						c0,0-4.9,5.2-8.2,2.8S428.4,369.2,426,369z"/>
					<path class="st0" d="M441.1,295.9c-3.6-4.8-8.1-6-11.5-5.9c-3.4,0.1-8.1-0.2-9.6-2.6c-1.5-2.4-5.6-2.6-5.6-2.6l-0.1,1.8
						c1.2,0.8,2.8,4.7,4.9,6.7s8.3,0.9,11.9,1.2c3.6,0.2,9.9,5.3,9.9,5.3V295.9z"/>
					<path class="st0" d="M375.2,461.7c0,0,4.5,6.7,31.8,6.7s34.5-6.7,34.5-6.7v-1.4l-2.3-9.9l-2.1,10.2l-2.2-10.2l-2.2,10.3
						l-1.3-10.3l-2.8,10l-2-10.2l-2.2,10.2l-1.8-10.2l-2.3,10.2l-1.8-10.2l-2.5,10.2l-1.5-10.2l-2.7,10l-1.7-10l-2.5,10l-1.5-10
						l-2.2,10.2l-2.2-10.2l-2,10l-2-10l-2.2,10l-2-10l-2.2,10l-1.7-10l-2.5,9.8l-1.5-9.8l-2.5,10l-1.5-10L379,460l-1.1-9.8l-2.6,9.8
						V461.7z"/>
					<path class="st0" d="M441.5,441.7c-23.3,1.3-33.5-11.2-33.5-11.2s-10.2,12.5-33.5,11.2c0,0-1.2,8.3,10.2,10.5
						c0,0,4.4-11.5,22.9-11.7h0.8c18.6,0.1,22.9,11.7,22.9,11.7C442.7,450,441.5,441.7,441.5,441.7z"/>
				</g>
				<path class="st6" d="M313.5,143.2c-1.3,0.3-50.3,26.7-34.7,68.7c13.5,36.2,41.1,38.2,56.2,39c1.4,0.1,1.6,2,0.3,2.4l-15.2,5.3
					l-13-3.7c0,0-40-14-37.3-61C274.5,151.8,313.5,143.2,313.5,143.2z"/>
				<path class="st0" d="M331.5,296.2c0,0-7.8,8.8-14.2,22c0,0-6.5-5,1.2-20c0,0-14.2-11.5-13-27s4.9-29.5,13-33.2
					c8-3.8,14.8,5.5,41,35.8l-3,2.2L331.5,296.2z"/>
				<path class="st1" d="M331.5,296.2c0,0-21.8-1-21.8-25.5s9.2-32.8,15-29.8s31.8,35,31.8,35L331.5,296.2z"/>
				<path class="st0" d="M484.5,296.2c0,0,7.8,8.8,14.2,22c0,0,6.5-5-1.2-20c0,0,14.2-11.5,13-27s-4.9-29.5-13-33.2
					c-8-3.8-14.8,5.5-41,35.8l3,2.2L484.5,296.2z"/>
				<path class="st1" d="M484.5,296.2c0,0,21.8-1,21.8-25.5s-9.2-32.8-15-29.8s-31.8,35-31.8,35L484.5,296.2z"/>
				<path class="st0" d="M487.5,244.6l7.4-1.6l-6.4-0.4c0,0-0.8-1.2-16.3,12.9c0,0-11.6,13.4-16.1,12.8c-0.5-0.1-0.9-0.1-1.4-0.2
					l1.2-1.4c0,0-1.4-0.1-3.8,0.8c-0.2,0-0.3-0.1-0.5-0.1l2.9-2.1c0,0-3,0.5-4.8,1.5c0,0-0.1,0-0.1,0l3.2-2.7c0,0-2.9,0.3-5.5,1.9
					c0,0,0,0-0.1,0l3.7-3.1c0,0-3.3,0.6-5.4,2.3c0,0,0,0,0,0l3.3-3.3c0,0-3,0.9-4.8,2.6c0,0,0,0,0,0l2.9-3.4c0,0-2.5,0.7-4.3,2.7
					c0,0,0,0,0,0l2.5-3.6c0,0-2.3,1-4.1,2.7c0,0,0,0,0,0l2.2-3.6c0,0-2.2,0.3-4.2,2.5c0,0,0,0-0.1,0l2.1-3.7c0,0-1.9,0.8-4.1,2.8
					c0,0,0,0-0.1,0l2.4-3.8c0,0-3.3,1.5-4.4,3.1c0,0,0,0,0,0l2-3.8c0,0-2,0.2-3.8,3.3c0,0,0,0,0,0l1.7-4c0,0-1.3,0.1-3.7,3.5
					l1.4-4.2c0,0-2.4,1.5-3.7,3.7c0,0,0,0-0.1,0l1.5-4.5c0,0-2.6,2.1-3.4,4.1c0,0,0,0-0.1,0l0.8-4.7c0,0-1.8,2.4-2.7,4.4
					c0,0-0.1,0-0.1,0l0.5-4.7c0,0-1.6,2.1-2.5,4.4v-4.9l-1.9,4.7c0,0-0.1,0-0.1,0l-0.4-5.1l-1.3,4.9c-0.1,0-0.1,0-0.2,0l-0.9-5.1
					l-1.1,4.9c-0.1,0-0.1,0-0.2,0l-0.7-4.8l-1.3,4.7c0,0-0.1,0-0.1,0l-1.1-5l-1.2,4.9c-0.1,0-0.1,0-0.2,0l-1.4-5.2l-1.3,5.1
					c0,0-0.1,0-0.1,0l-1.3-5.1l-1.3,5.1c0,0-0.1,0-0.1,0l-1.3-5.1l-1.4,5.2c-0.1,0-0.1,0-0.2,0l-1.2-4.9l-1.1,5c0,0-0.1,0-0.1,0
					l-1.3-4.7l-0.7,4.8c-0.1,0-0.1,0-0.2,0l-1.1-4.9l-0.9,5.1c-0.1,0-0.1,0-0.2,0l-1.3-4.9l-0.4,5.1c0,0-0.1,0-0.1,0l-1.9-4.7v4.9
					c-0.9-2.3-2.5-4.4-2.5-4.4l0.5,4.7c0,0-0.1,0-0.1,0c-0.9-2-2.7-4.4-2.7-4.4l0.8,4.7c0,0,0,0-0.1,0c-0.8-2-3.4-4.1-3.4-4.1
					l1.5,4.5c0,0,0,0-0.1,0c-1.3-2.2-3.7-3.7-3.7-3.7l1.4,4.2c-2.3-3.4-3.7-3.5-3.7-3.5l1.7,4c0,0,0,0,0,0c-1.7-3-3.8-3.3-3.8-3.3
					l2,3.8c0,0,0,0,0,0c-1.1-1.6-4.4-3.1-4.4-3.1l2.4,3.8c0,0,0,0-0.1,0c-2.2-2-4.1-2.8-4.1-2.8l2.1,3.7c0,0,0,0-0.1,0
					c-1.9-2.3-4.2-2.5-4.2-2.5l2.2,3.6c0,0,0,0,0,0c-1.8-1.7-4.1-2.7-4.1-2.7l2.5,3.6c0,0,0,0,0,0c-1.9-2-4.3-2.7-4.3-2.7l2.9,3.4
					c0,0,0,0,0,0c-1.8-1.7-4.8-2.6-4.8-2.6l3.3,3.3c0,0,0,0,0,0c-2.1-1.7-5.4-2.3-5.4-2.3l3.7,3.1c0,0,0,0-0.1,0
					c-2.5-1.5-5.5-1.9-5.5-1.9l3.2,2.7c0,0-0.1,0-0.1,0c-1.8-1-4.8-1.5-4.8-1.5l2.9,2.1c-0.2,0-0.3,0.1-0.5,0.1
					c-2.4-0.8-3.8-0.8-3.8-0.8l1.2,1.4c-0.5,0.1-0.9,0.2-1.4,0.2c-4.5,0.7-16.1-12.8-16.1-12.8c-15.5-14.2-16.3-12.9-16.3-12.9
					l-6.4,0.4l7.4,1.6l-6.4,0.7l8,1.4l-7.8,0.8l9.2,1.8l-8.2,1l10.1,1.5l-8.4,1l9.6,1.1l-8.4,1l10.6,1.2l-9.2,1.1l11,1.4l-9.4,1.2
					l10.6,0.2l-8.8,2h10.2l-8,2.7l9.3-0.7l-7,3.2l8.3-0.8l-5.7,3.3l8-1.3l-6,3.8l7.8-1.7l-5,4.2l7.3-2.2l-4.5,3.8l6.8-0.8
					c-9.5,5.8-12.7,17-12.7,17l19.7-16.8c0,0,7.3,0.8,12.5-3c5.2-3.8,13-9.2,22.3-9.3c9.3-0.2,13.3,5.2,13.3,5.2s4-5.3,13.3-5.2
					c9.3,0.2,17.2,5.5,22.3,9.3c5.2,3.8,12.5,3,12.5,3l19.7,16.8c0,0-3.2-11.2-12.7-17l6.8,0.8l-4.5-3.8l7.3,2.2l-5-4.2l7.8,1.7
					l-6-3.8l8,1.3l-5.7-3.3l8.3,0.8l-7-3.2l9.3,0.7l-8-2.7h10.2l-8.8-2l10.6-0.2l-9.4-1.2l11-1.4l-9.2-1.1l10.6-1.2l-8.4-1l9.6-1.1
					l-8.4-1l10.1-1.5l-8.2-1l9.2-1.8l-7.8-0.8l8-1.4L487.5,244.6z"/>
				<g>
					<path class="st0" d="M467.3,145.3c0,0,13.1-9.7,27.5-5.3l-2.9,13.3C492,153.3,484.7,145.3,467.3,145.3z"/>
					<path class="st0" d="M470,159.3c0,0,13-3,19.3,3.7l-2.3,5C487,168,483.3,161.3,470,159.3z"/>
					<path class="st0" d="M451.7,169.3c0,0,20-2,26.7,10.3l-6,8C472.3,187.7,468,174,451.7,169.3z"/>
					<path class="st0" d="M446.7,179.3c0,0,11.3,6.3,11.3,16.7l-4.7,2C453.3,198,452.7,185.3,446.7,179.3z"/>
					<path class="st0" d="M430.7,174c0,0,14.3,7.3,10.3,26l-7-0.3C434,199.7,439,182.7,430.7,174z"/>
					<path class="st0" d="M422.3,179.3c0,0,4.3,12.3-1.7,19.7l-5.7-2C415,197,423.3,189.7,422.3,179.3z"/>
					<path class="st0" d="M410,169.7c0,0,11,12.3,2.7,27l-7.8-2.7C404.9,194,412,186.3,410,169.7z"/>
					<path class="st0" d="M395.3,169.2c0,0,2.7,10.8-3.3,19.5l-6-3C386,185.7,394.7,179.1,395.3,169.2z"/>
					<path class="st0" d="M382.3,151.3c0,0,12,18.3-3.3,29.7l-8.3-3.3C370.7,177.7,382,172.3,382.3,151.3z"/>
					<path class="st0" d="M352,142.7c0,0,15,10,15.7,18.7c0.7,8.7-3.3,14.7-3.3,14.7l-11-3.3C353.3,172.7,362.7,163,352,142.7z"/>
					<path class="st0" d="M343,145.3c0,0,12.3,14.7,2.7,25.3l-4-1.5C341.7,169.2,347.3,157.7,343,145.3z"/>
					<path class="st0" d="M329,144c0,0,15.3,8,10,24.3l-7.7,0.9C331.3,169.2,336.3,153.7,329,144z"/>
					<path class="st0" d="M295.7,155c0,0,13.3-2.3,18.3,3s6.3,8.1,6.7,11.2c0.3,3.1-8,4.8-8,4.8S312.3,160,295.7,155z"/>
					<path class="st0" d="M286,169.7c0,0,17.3-2.7,23.3,4.3l-1.7,5.3C307.7,179.3,303,172.3,286,169.7z"/>
					<path class="st0" d="M274.7,180.3c0,0,20.7-11,28,0.7l-0.3,8.7C302.3,189.7,293,181.3,274.7,180.3z"/>
					<path class="st0" d="M274.3,207.3c0,0,10.7-13,24.3-8.3l3,8.3C301.7,207.3,287.3,202,274.3,207.3z"/>
					<path class="st0" d="M289.3,239.7c0,0-4.3-19.1,13.7-21.1l4.3-0.6l2,4.3C309.3,222.3,303.7,220.7,289.3,239.7z"/>
					<path class="st0" d="M303.7,246.7c0,0-3.3-13,10-20l9.7,1C323.3,227.7,315.3,230.7,303.7,246.7z"/>
					<path class="st0" d="M334.5,229.8c0,0-4.8,7.5-0.8,16c0,0,1.2-10.6,8-16.9L334.5,229.8z"/>
				</g>
			</g>
			<path class="st1" d="M421.6,409.5c-2.2,0-13.6,0-13.6,0s-11.3,0-13.6,0s-3.8,0.4-3.6,2.9c0.2,2.5,2.8,2.2,5.7,2.3
				c2.8,0.2,6.3,7.4,7.7,9.1c1.3,1.7,3.8,1.2,3.8,1.2s2.5,0.5,3.8-1.2c1.3-1.7,4.8-8.9,7.7-9.1c2.8-0.2,5.5,0.2,5.7-2.3
				C425.3,409.9,423.8,409.5,421.6,409.5z"/>
			<rect x="407.2" y="416.8" class="st0" width="1.7" height="16.8"/>
		</g>
		<g>
			<circle class="st1" cx="436.3" cy="573.8" r="74.8"/>
			<path class="st4" d="M366.7,564.7c0,0,7.3,56.7,71,55c63.7-1.7,68.7-57,68.7-57s5.2,25.9-8,47s-36,36.3-54.3,36.7
				c-18.3,0.3-45.3-0.4-66.3-29.9S366.7,564.7,366.7,564.7z"/>
			<path class="st0" d="M436.3,498.8c-41.4,0-75,33.6-75,75s33.6,75,75,75c41.4,0,75-33.6,75-75S477.7,498.8,436.3,498.8z
				 M410.5,518.2l21.1,6.3l-0.2,23.4l-20.6,17.9l-22.7-7.9l0.8-20.6L410.5,518.2z M479,534.5v22.8l-22.6,6.7l-22-15.7l0.2-23.9
				l20-7.5L479,534.5z M387.6,561l22.5,7.8l8.8,26.4L405,616.4l-21.1-5.8l-10.1-32.8L387.6,561z M370.7,578.2l10.8,34.8v1
				c-7.8-10.6-12.6-23.6-13.1-37.6L370.7,578.2z M419.1,637l-11.5-19l13.7-21h27.3l14.4,18.1l-11.5,21.4l0,0.1L419.1,637z
				 M487.5,607.5l-21.5,6.6l-15-18.9l7.3-28.6l21.8-6.4l15.4,17.5L487.5,607.5z M491.1,533.6l-9.5-0.9l-26.3-19l-4.8-6.4
				C467.1,510.8,481.4,520.4,491.1,533.6z M413.5,509.8l-3.4,4.8l-22.8,20.2l-7.5,1.3C387.8,524,399.7,514.7,413.5,509.8z
				 M420.6,640l33.1-0.4l0,0c-5.6,1.5-11.4,2.3-17.4,2.3C430.9,641.8,425.7,641.2,420.6,640z M490.4,615l-0.7-4l8.8-33.3l5.7-7.2
				c0.1,1.1,0.1,2.2,0.1,3.4C504.3,589.3,499.1,603.6,490.4,615z"/>
		</g>
	</g>
</g>
</svg>
