<?xml version="1.0" encoding="utf-8"?>
<!-- Generator: Adobe Illustrator 22.1.0, SVG Export Plug-In . SVG Version: 6.00 Build 0)  -->
<svg version="1.1" id="图层_1" xmlns="http://www.w3.org/2000/svg" xmlns:xlink="http://www.w3.org/1999/xlink" x="0px" y="0px"
	 viewBox="0 0 800 800" style="enable-background:new 0 0 800 800;" xml:space="preserve">
<style type="text/css">
	.st0{fill:#004EA2;}
	.st1{fill:#F9F7F8;}
	.st2{fill:#7D8488;}
	.st3{fill:#1D2088;}
	.st4{fill:#FFFFFF;}
	.st5{fill:#231815;}
	.st6{fill-rule:evenodd;clip-rule:evenodd;fill:#7D8488;}
	.st7{fill-rule:evenodd;clip-rule:evenodd;fill:#004EA2;}
</style>
<g>
	<path class="st0" d="M515.5,89.7C491,50,400,50,400,50s-91,0-115.5,39.7c-37.3,58.3-140,45.5-140,45.5v427.6
		c0,44.4,26.1,84.6,66.6,102.7L400,750l188.9-84.5c40.5-18.1,66.6-58.4,66.6-102.7V135.2C655.5,135.2,552.8,148,515.5,89.7z"/>
	<path class="st1" d="M501.3,127.9C479.8,93.2,400,93.2,400,93.2s-79.8,0-101.3,34.8C266,179.1,176,167.8,176,167.8v374.8
		c0,38.9,22.9,74.2,58.4,90.1L400,706.8l165.6-74.1c35.5-15.9,58.4-51.2,58.4-90.1V167.8C624,167.8,534,179.1,501.3,127.9z"/>
	<path class="st2" d="M489.7,159.1c-19-30.8-89.7-30.8-89.7-30.8s-70.6,0-89.7,30.8c-29,45.3-108.7,35.3-108.7,35.3v331.9
		c0,34.4,20.2,65.7,51.7,79.7L400,671.7l146.7-65.6c31.4-14.1,51.7-45.3,51.7-79.7V194.4C598.3,194.4,518.6,204.4,489.7,159.1z"/>
	<path class="st3" d="M241.3,599.5c3.8,2.5,7.8,4.7,12,6.6l67.3,30.1v-488c-4.2,3.1-7.7,6.7-10.3,10.9c-15.3,23.9-44.6,32.4-69,35.1
		V599.5z"/>
	<path class="st3" d="M360.3,132.5v521.4l39.7,17.8l39.7-17.8V132.5c-20.8-4.2-39.7-4.2-39.7-4.2S381.2,128.3,360.3,132.5z"/>
	<path class="st3" d="M479.3,636.2l67.3-30.1c4.2-1.9,8.2-4.1,12-6.6V194.2c-24.4-2.7-53.7-11.2-69-35.1c-2.6-4.2-6.1-7.8-10.3-10.9
		V636.2z"/>
	<g>
		<path class="st4" d="M262.6,220.1c0.7,2,1.3,3.5,2.1,4.6c0.8,1.6,2.3,3.5,4,5.5c4.8,5,10.1,8,15.7,9c-1.4,1.7-2.5,4-3.4,6.8
			c-10-3.7-17.3-9.8-22-18.3c-1.2,3.2-3.2,6.1-5.9,8.7c-3.6,3.2-8.9,6.4-16.3,9.6c-1.4-2.8-2.7-5-4.1-6.6c3.4-0.8,6.2-1.7,8.4-2.9
			c2.5-1.4,4.5-2.8,6.3-4.1c3.4-3.1,5.5-7.2,6.4-12.2c-9.3,0-15.9,0.1-20,0.3V214l20.5,0.2c0.3-4.8,0.4-7.7,0.4-8.9l-18.5,0.1v-6.5
			c15.1,0.4,29.8,0.4,44.1,0v6.5l-18.5-0.1l-0.5,8.9l21.8-0.2v6.4l-7-0.3H262.6z"/>
		<path class="st4" d="M339.2,208.9l15.1,0.2v-3.2L343,206v-5.7l11.4,0.1l-0.2-4.2h6.6l-0.1,4.2l13.6-0.2l-0.2,9c1.6,0,3,0,4.5,0
			v5.7c-1.5-0.1-3-0.1-4.5-0.1l0.2,8.9l-13.6-0.2v2.7l14.7-0.1v5.8l-14.7-0.1v3.3l17.9-0.3v6.1c-3.2-0.1-9.1-0.2-17.9-0.2l0.1,5.7
			h-6.6l0.2-5.7c-7,0-12,0.1-15,0.2v-6.1l15,0.3v-3.3l-13,0.1V226l13,0.1v-2.7l-11.3,0.1v-5.8l11.3,0.1v-3l-15.1,0.1V208.9
			L339.2,208.9z M368,214.7L368,214.7h-7.4v3h7.4V214.7L368,214.7z M368,205.9L368,205.9h-7.4v3.2h7.4V205.9L368,205.9z
			 M334.4,220.9L334.4,220.9c-2.4-2.5-5-4.7-7.9-6.6c1.8-1.6,3.1-3.2,4.1-4.7l1.1,0.8c2.2,1.2,4.4,3,6.7,5.3l-0.3,0.3
			c-1.8,2.4-3,3.9-3.4,4.6L334.4,220.9L334.4,220.9z M332.1,245.9c2.3-4.6,5.2-11.2,8.7-19.9c-2.5-1.6-4.5-2.8-5.8-3.8
			c-2,7.6-4.8,13.7-8.5,18.6C328.7,242.2,330.5,243.9,332.1,245.9L332.1,245.9L332.1,245.9z M330.3,201.1c3.4,2,6.1,4.1,8.3,6.4
			c1.5-2.6,2.7-4.4,3.6-5.5c-2.6-2-5.2-3.9-8-5.7C332.8,198.3,331.5,199.9,330.3,201.1L330.3,201.1z"/>
		<path class="st4" d="M421.9,220.8V215l15.9,0.2c0.6-0.8,1.1-1.6,1.4-2.4l-11.4,0.1v-5.3l13.5,0.1c0.4-0.9,0.7-1.8,0.8-2.5
			l-18.9,0.2v-5.7l20.1,0.2c0.5-1.2,0.6-2.4,0.6-3.8l7.3,0.8c-0.2,1-0.6,2-0.8,3l19.5-0.2v5.7l-20.9-0.2c-0.3,0.9-0.6,1.7-0.9,2.5
			l17.4-0.1v5.3l-19.2-0.1c-0.4,0.6-0.9,1.4-1.3,2.4l26.3-0.2v5.8c-3-0.2-6.5-0.3-10.5-0.3c3.4,4.5,7.6,7.3,12.7,8.3
			c-1.2,1.7-2.5,3.7-3.9,6.3c-0.8-0.5-1.3-0.7-1.4-0.7c-6.3-3.6-11-8.1-14.2-13.9h-11.9c-4.9,5.4-10.8,9.8-17.6,13.2
			c-1.3-2-2.7-3.8-4.3-5.7c4.6-1.1,9.1-3.5,13.3-7.4C428.4,220.5,424.6,220.6,421.9,220.8L421.9,220.8z M441.8,233.2
			c-3.7,1.9-9.3,3.9-16.6,6c1.1,1.7,2,3.6,2.7,5.9c2-1.1,6.7-3.2,14.1-6.5C441.8,236.1,441.8,234.2,441.8,233.2L441.8,233.2
			L441.8,233.2z M437.5,225.6c-1.1,1.5-2.4,2.7-3.8,3.9c2.5,1.7,4.5,3.2,5.7,4.4l3.6-4.1C441.6,228.5,439.8,227.2,437.5,225.6
			L437.5,225.6L437.5,225.6z M450,222.2h-6.5c0,11.6-0.1,17.5-0.1,17.8l-0.1,0.3c-0.4,0.3-1.7,0.4-4,0.2c0.6,1.7,1,3.9,1.3,6.4
			c4.7-0.1,7.7-0.9,8.6-2.1c0.4-0.6,0.7-1.7,0.7-3v-11c0.9,0.7,2.1,2,3.6,3.9c1.5-1.2,3.6-2.8,6-5c-1.2-1.1-2.7-2.3-4.1-3.9
			c-1.4,1.6-3.3,3.2-5.6,4.8L450,222.2L450,222.2L450,222.2z M467.1,239.9c-1.2-0.7-5.6-2.4-13.4-5.3c-0.4,1.3-1.5,3.1-2.6,5.1
			c4.8,1.8,9.5,3.8,14.1,6.3c0.5-1.3,0.9-2.1,1.1-2.4l1.6-3.3L467.1,239.9L467.1,239.9z"/>
		<path class="st4" d="M530.9,207.9l13,0c0.2-2.7,0.1-6.4,0-11c2.7,0.3,5.1,0.5,7.4,0.5c-0.3,3.6-0.5,7.1-0.7,10.6l14.2,0v6.2
			c-2.9-0.2-7.7-0.3-14.6-0.3c-0.3,2.9-0.5,4.9-0.8,5.9c1.5-0.6,2.9-1.4,4-2.3l8.8,11.2l3,3.8c-0.4,0.3-2.2,2-5.4,4.9
			c-4-6.5-7.6-11.5-10.9-15.3c-1,2.5-2.4,5-4.3,7.4c-2.3,2.6-5.4,5.1-9.2,7.5c-1.2-1.9-2.9-3.6-4.8-5.3c8.3-2.9,12.6-8.9,13-18
			c-6.2,0.1-10.5,0.1-12.8,0.3V207.9L530.9,207.9z M522.5,220.5v14c-4.8,2.3-7.3,3.6-7.7,3.6c1.2,2.3,2.2,4.8,3.2,7.3
			c3-3.9,5.5-6,7.4-6c0.7,0,2,0.8,3.9,2.4c2.6,2.1,7.4,3.4,14.7,3.8c6.1,0.2,13.2,0.3,21.3,0.3c0.1-1.7,0.7-4.1,1.9-7.3
			c-10,1.3-19.2,1.6-27.7,0.6c-3.5-0.5-6.3-1.6-8.6-3.2l-0.8-0.5l-0.3-0.2l-0.2-0.1l-0.7-0.5l0.1-20h-13.6v6.1
			C517.6,220.5,520,220.5,522.5,220.5L522.5,220.5L522.5,220.5z M531.4,205.5l-2.4-2.4c-0.6-0.6-1.3-1.3-2-2.1
			c-0.9-0.9-2-2.1-3.5-3.5c-1.4,1.2-3.2,2.7-5.5,4.2c3.2,3.1,6,6.1,8.3,9l1.4-1.6c0.7-0.6,1.2-1.2,1.7-1.8
			C530.1,206.7,530.7,206.2,531.4,205.5L531.4,205.5z"/>
	</g>
	<g>
		<path class="st5" d="M569.2,424.9c0,93.4-75.8,169.1-169.2,169.1c-93.4,0-169.1-75.7-169.1-169.1c0-93.4,75.7-169.2,169.1-169.2
			C493.4,255.7,569.2,331.5,569.2,424.9z"/>
		<path class="st4" d="M278.5,327.7c0,0,22.3-36.9,72.7-54.4l-4.5,17.5c0,0-37.3,17.5-52.3,38.3L278.5,327.7z"/>
		<path class="st4" d="M442.2,271.6c0,0,50.9,9.4,85.5,57l-19.3,0.5c0,0-32.7-33-60.5-39.9L442.2,271.6z"/>
		<path class="st4" d="M298.3,330.1c0.7-1.4,30.6-28.3,50.9-34.6c0,0,34.2,14.1,47.3,29.7c0,0,8.3,19.2,2.9,45.7
			c0,0-35.9,15.9-36.1,26.2l-40.5,0.6c0,0-23.1-14.1-25.7-28.4C297,369.3,294.6,337.4,298.3,330.1z"/>
		<path class="st4" d="M400.6,323.2c0,0,20.3-24.9,44.5-30.8c0,0,41.5,19,59.7,39.7c0,0,5.7,39.5-5.7,52.5c0,0-22.6,15.1-29.3,16.1
			l-24.6-1.3c0,0-6.1-16.6-40.1-28.9C405.1,370.6,408.7,336.8,400.6,323.2z"/>
		<path class="st4" d="M299.3,385.8c0,0-19,10.3-20.5,18.1c-1.5,7.8,45.5,9.8,45.5,9.8s10.7-0.5,9.3-4.4
			C332,405.3,304.2,388.7,299.3,385.8z"/>
		<path class="st4" d="M500.1,388.7c0,0-24.8,16.1-29.3,18.1c0,0,29,33.6,33.4,28.2c4.4-5.3,16.5-35,16.5-35S516.3,397,500.1,388.7z
			"/>
		<path class="st4" d="M472,511.3c-5.7,29.7-21.5,38.7-21.5,38.7c-45,17-96.4-1.3-96.4-1.3c-14.2-8.9-20.6-38.5-20.6-38.5L472,511.3
			z"/>
		<path class="st4" d="M355.6,554.2c0,0,36.8,16.1,92.3,1.6l20.6,12.3c0,0-70,35.3-138.1-3.1L355.6,554.2z"/>
		<path class="st4" d="M527.1,496.9c0,0,1.9,19,2.6,22.9c11.1-7.2,16.3-22.2,16.3-22.2L527.1,496.9z"/>
	</g>
	<path class="st4" d="M306,578.3L285,606.8l-8.3-5.6l13.8-18.7c-2,0.2-3.9,0-5.6-0.2c-1.7-0.3-3.7-0.7-6-1.4l4.6-6.4
		c3.4,1,6.4,1.4,8.8,1.2c2.4-0.2,4.7-0.8,6.9-2L306,578.3z"/>
	<path class="st4" d="M321.7,605.2c-1.3,0.4-2.5,0.4-3.8-0.2c-1.2-0.6-2-1.6-2.2-2.8c-0.4-1.3,0-2.8,0.9-4.5c0.8-1.7,2-2.7,3.2-3.2
		c1.2-0.4,2.5-0.4,3.6,0.2c1.3,0.5,2.1,1.5,2.4,2.9c0.4,1.3,0.2,2.8-0.7,4.5C324.1,603.7,323,604.7,321.7,605.2L321.7,605.2z
		 M301.4,612.9L301.4,612.9c0.3,1.6,1.1,3,2.3,4.3c1.2,1.3,3,2.5,5.6,3.7c4.3,2.1,8.4,2.5,12.2,1.2c3.9-1.4,7.2-4.9,10.2-10.3
		c2.1-3.8,3.1-7.1,3.2-9.9c0-2.9-0.6-5.3-1.9-7.3c-1.4-2-3.7-3.8-6.9-5.4c-2.6-1.2-5.1-1.9-7.3-1.9c-2.2,0-4.3,0.6-6.1,1.8
		c-1.9,1.2-3.5,2.7-4.5,4.7c-1.5,3-1.9,5.9-1,8.8c0.9,2.9,2.8,5,5.7,6.4c1.4,0.7,2.8,1.1,4.2,1.2c1.4,0,2.9-0.2,4.5-0.7
		c-2.1,3.1-3.7,5.1-4.8,5.8c-1.5,1.1-3,1.1-4.4,0.5c-0.7-0.4-1.3-0.9-1.6-1.7c-0.2-0.7-0.2-1.8,0.1-3.1l-9.4-3.2
		C300.9,609.6,300.9,611.3,301.4,612.9z"/>
	<path class="st4" d="M353.4,617.5c-1.3,0.7-2.5,0.8-3.8,0.4c-1.3-0.4-2.2-1.2-2.7-2.4c-0.6-1.2-0.5-2.7,0.2-4.6
		c0.6-1.8,1.5-3.1,2.6-3.7c1.1-0.6,2.4-0.7,3.6-0.3c1.3,0.4,2.3,1.3,2.9,2.6c0.6,1.3,0.5,2.8,0,4.6
		C355.5,615.7,354.6,616.9,353.4,617.5L353.4,617.5z M334.5,628.1L334.5,628.1c0.6,1.5,1.6,2.8,2.9,3.8c1.3,1.1,3.4,2.1,6.1,2.9
		c4.6,1.5,8.6,1.2,12.2-0.7c3.5-1.9,6.3-5.8,8.4-11.6c1.4-4,1.9-7.5,1.5-10.3c-0.4-2.8-1.4-5.1-3.1-6.8c-1.6-1.8-4.1-3.2-7.6-4.3
		c-2.8-0.9-5.4-1.1-7.6-0.8c-2.1,0.3-4.1,1.2-5.8,2.6c-1.7,1.4-2.9,3.2-3.6,5.4c-1.2,3.2-1.1,6.1,0.3,8.8c1.4,2.7,3.7,4.6,6.7,5.5
		c1.5,0.5,3,0.7,4.4,0.5c1.4-0.1,2.9-0.6,4.3-1.3c-1.5,3.4-2.7,5.5-3.8,6.5c-1.4,1.2-2.8,1.5-4.3,1.1c-0.8-0.3-1.5-0.8-1.9-1.5
		c-0.4-0.7-0.5-1.7-0.3-3.1l-9.8-1.8C333.6,624.9,333.8,626.6,334.5,628.1z"/>
	<path class="st4" d="M382.2,614.6c0.9-0.6,1.9-0.8,3.1-0.7c1.2,0.2,2,0.7,2.7,1.4c0.8,0.9,1,1.9,0.8,3.1c-0.2,1.1-0.6,1.9-1.5,2.6
		c-0.8,0.6-1.8,0.9-2.9,0.7c-1.2-0.2-2.2-0.6-2.9-1.4c-0.6-0.9-0.9-1.8-0.7-3.1C381,616.2,381.5,615.3,382.2,614.6L382.2,614.6z
		 M370.4,626.1L370.4,626.1c-1.2,1.2-1.9,2.9-2.2,4.8c-0.2,2.2,0,4,0.8,5.8c0.8,1.8,2.1,3.2,4,4.3c1.9,1.1,4.7,1.9,8.5,2.4
		c1.9,0.3,3.9,0.3,5.7,0.2c1.9-0.2,3.4-0.5,4.8-1.2c1.3-0.7,2.5-1.7,3.4-3c1.1-1.4,1.7-2.9,2-4.6c0.2-1.7,0-3.5-0.8-5
		c-0.7-1.6-2-2.9-3.8-4c1.5-0.8,2.7-1.6,3.6-2.5c1.1-1.2,1.7-2.6,2-4.1c0.3-2.6-0.5-4.9-2.5-6.9c-2.1-2-5.4-3.4-10.2-3.9
		c-3.6-0.4-6.7-0.2-9,0.9c-3.1,1.5-4.8,3.7-5.3,6.5c-0.2,1.7,0.1,3.3,0.8,4.8c0.6,1.1,1.6,2.1,3.1,3.1
		C373.2,624,371.5,624.8,370.4,626.1L370.4,626.1z M380,628.3L380,628.3c1.1-0.8,2.2-1.1,3.4-1c1.2,0.1,2.3,0.8,3.2,1.9
		c0.7,1.1,1.1,2.4,0.8,3.9c-0.2,1.4-0.8,2.7-1.9,3.4c-1,0.9-2.2,1.2-3.4,1.1c-1.3-0.2-2.2-0.8-3.1-1.9c-0.8-1-1.2-2.4-0.9-3.8
		C378.3,630.3,379,629.1,380,628.3z"/>
	<polygon class="st4" points="404.4,634.9 415.1,634.7 415.4,644.3 404.6,644.5 	"/>
	<path class="st4" d="M453.5,638.6l-29.5,5.6c-0.2-3,0.2-5.7,1.5-8.5c1.2-2.7,3.8-6.3,7.9-10.4c2.4-2.6,3.9-4.5,4.6-5.7
		c0.6-1.2,0.7-2.4,0.6-3.2c-0.3-1-0.8-1.8-1.8-2.4c-0.9-0.5-2-0.7-3.2-0.5c-1.3,0.2-2.3,0.8-2.9,1.7c-0.6,0.9-0.9,2.3-0.8,4.3
		l-10,1.1c-0.2-2.7,0.2-4.8,0.9-6.5c0.7-1.7,2-3.1,3.7-4.2c1.7-1.1,4.2-2,7.5-2.6c3.5-0.7,6.3-0.8,8.4-0.4c2.1,0.4,3.9,1.2,5.2,2.6
		c1.5,1.3,2.3,2.9,2.8,4.9c0.4,2.1,0.1,4.1-0.7,6.2c-0.9,2.2-2.8,4.7-5.7,7.5c-1.7,1.7-2.9,2.9-3.4,3.5c-0.6,0.6-1.2,1.4-2,2.4
		L452,631L453.5,638.6z"/>
	<polygon class="st4" points="458.4,626.6 468.4,623.1 471.9,632 461.9,635.5 	"/>
	<path class="st4" d="M482.1,588.2l17.8,30.6l-8.9,4.7l-11.7-20c-0.7,1.8-1.7,3.4-2.6,4.7c-1,1.3-2.3,2.8-3.9,4.4l-4-6.8
		c2.5-2.5,4.1-4.8,5.1-7c0.9-2.2,1.2-4.5,1.1-6.8L482.1,588.2z"/>
	<path class="st4" d="M511.7,592.1c0.1-1.4,0.7-2.4,1.7-3.2c1.1-0.8,2.3-1.1,3.7-0.8c1.5,0.2,2.7,1.1,4,2.6c1.2,1.5,1.8,2.8,1.8,4.1
		c-0.1,1.2-0.6,2.2-1.6,3c-1.1,0.8-2.4,1.1-3.9,0.8c-1.4-0.2-2.7-1-4-2.5C512.1,594.8,511.6,593.4,511.7,592.1L511.7,592.1z
		 M512.8,571.2L512.8,571.2c-1.7-0.3-3.3-0.2-5,0.3c-1.8,0.4-3.7,1.5-6,3.2c-3.7,2.9-5.8,6.2-6.1,10c-0.3,3.9,1.7,8.3,5.7,13.2
		c2.7,3.3,5.4,5.6,8.2,6.8c2.7,1.3,5.3,1.7,7.7,1.3c2.6-0.4,5.2-1.7,8-3.8c2.4-1.8,4.1-3.6,5-5.5c1-1.9,1.2-4,0.9-6.1
		c-0.3-2.1-1.3-4-2.8-5.9c-2.2-2.6-4.9-4.1-7.9-4.6c-3.2-0.4-6.1,0.4-8.6,2.4c-1.4,1-2.2,2-2.9,3.2c-0.7,1.2-1,2.6-1.3,4.1
		c-2.1-3.1-3.3-5.2-3.4-6.5c-0.4-1.7,0-3.1,1.4-4c0.6-0.6,1.4-0.8,2.3-0.6c0.8,0,1.8,0.4,2.8,1.4l7.1-6.8
		C516.1,572.2,514.4,571.5,512.8,571.2z"/>
	<g>
		<path class="st4" d="M587.6,401h-28.5c-18.9,0-33.2,8.8-41.4,25.6l-0.8,1.7c-8.8-11.8-21.9-20.2-37.9-24.4
			c-7.7-2-15.8-2.9-25.6-2.9H151.8v48h37.1l0.1,37.2c0,19,16.4,35,35.8,35h33.9V449h15v29.6c0,23.4,19.1,42.6,42.5,42.6h135h2.4
			h18.4h11.1h43.5l8-16.6H564l7.8,16.6h76.3L587.6,401z"/>
		<path class="st6" d="M454.9,434.3c16,3.4,23.9,14.9,24.2,26.7c-0.2,11.8-8.2,23.6-24.2,26.9c-2.8,0.6-5.9,0.9-9.3,0.9h-14.7v-55.3
			h14.7C449,433.4,452.1,433.6,454.9,434.3L454.9,434.3z M504.7,483.7L504.7,483.7c9.4-13.9,9.4-31.5,0-45.4
			c-6.1-8.5-16-15.5-29.6-19c-7.1-1.8-14.3-2.4-21.6-2.4h-53.7v88.5h54c4.1,0,8.1-0.1,12.2-0.6C484.4,502.4,497.3,494.1,504.7,483.7
			L504.7,483.7z M167.7,416.8L167.7,416.8h114.2v16.4H243v72.1h-18.1c-11.1,0-20-9.7-20-19.1l-0.2-53h-37V416.8L167.7,416.8z
			 M390.7,416.8L390.7,416.8v16.4h-63.1v19.1h57.8v14.9h-57.8v13c0,4.6,3.8,8.4,8.6,8.4H391v16.6h-74.7c-14.7,0-26.7-12-26.7-26.7
			v-61.8H390.7z"/>
		<path class="st7" d="M577.9,416.8h-18.7c-12.4,0-21.5,5.1-27.1,16.6l-34.7,71.9h19.5l8-16.6h49.2l7.8,16.6h40.6L577.9,416.8
			L577.9,416.8z M531.6,474.4L531.6,474.4l16.6-34.3c0.4-0.8,0.8-1.7,1.5-2.3l1.1-0.4l17,37H531.6z"/>
	</g>
</g>
</svg>
