<?xml version="1.0" encoding="utf-8"?>
<!-- Generator: Adobe Illustrator 22.1.0, SVG Export Plug-In . SVG Version: 6.00 Build 0)  -->
<svg version="1.1" id="图层_1" xmlns="http://www.w3.org/2000/svg" xmlns:xlink="http://www.w3.org/1999/xlink" x="0px" y="0px"
	 viewBox="0 0 800 800" style="enable-background:new 0 0 800 800;" xml:space="preserve">
<style type="text/css">
	.st0{fill:#004EA2;}
	.st1{fill-rule:evenodd;clip-rule:evenodd;fill:#004EA2;}
</style>
<path class="st0" d="M385.7,608.2c-1.1-0.1-2.2-0.2-3.3-0.2c-2.2,0-4.1,0.3-5.7,1.1c-3.1,1.5-4.8,3.7-5.3,6.5
	c-0.2,1.7,0.1,3.3,0.8,4.8c0.6,1.1,1.6,2.1,3.1,3.1c-2.2,0.5-3.9,1.3-5,2.6c-1.2,1.2-1.9,2.9-2.2,4.8c-0.2,2.2,0,4,0.8,5.8
	c0.8,1.8,2.1,3.2,4,4.3c1.9,1.1,4.7,1.9,8.5,2.4c1.2,0.2,2.4,0.3,3.6,0.3c0.7,0,1.4,0,2.1-0.1c1.9-0.2,3.4-0.5,4.8-1.2
	c1.3-0.7,2.5-1.7,3.4-3c1.1-1.4,1.7-2.9,2-4.6c0.2-1.7,0-3.5-0.8-5c-0.7-1.6-2-2.9-3.8-4c1.5-0.8,2.7-1.6,3.6-2.5
	c1.1-1.2,1.7-2.6,2-4.1c0.3-2.6-0.5-4.9-2.5-6.9C393.9,610.1,390.5,608.8,385.7,608.2z M387.5,633.1c-0.2,1.4-0.8,2.7-1.9,3.4
	c-0.9,0.8-2,1.1-3,1.1c-0.1,0-0.2,0-0.4,0c-1.3-0.2-2.2-0.8-3.1-1.9c-0.8-1-1.2-2.4-0.9-3.8c0.2-1.6,0.8-2.8,1.8-3.6
	c0.9-0.7,1.8-1,2.8-1c0.2,0,0.4,0,0.6,0c1.2,0.1,2.3,0.8,3.2,1.9C387.3,630.3,387.7,631.6,387.5,633.1z M388.8,618.5
	c-0.2,1.1-0.6,1.9-1.5,2.6c-0.6,0.5-1.4,0.8-2.2,0.8c-0.2,0-0.5,0-0.7-0.1c-1.2-0.2-2.2-0.6-2.9-1.4c-0.6-0.9-0.9-1.8-0.7-3.1
	c0.1-1.1,0.6-2,1.4-2.7c0.8-0.5,1.6-0.7,2.6-0.7c0.2,0,0.4,0,0.6,0c1.2,0.2,2,0.7,2.7,1.4C388.8,616.3,389,617.3,388.8,618.5z"/>
<path class="st0" d="M383,630.8c-0.1,0-0.1,0-0.2,0c-0.2,0-0.4,0-0.7,0.3l0,0l0,0c-0.3,0.2-0.4,0.8-0.5,1.2l0,0.2l-0.1,0.2
	c-0.1,0.3,0,0.6,0.1,0.8c0.3,0.4,0.6,0.5,0.9,0.6c0.2,0,0.4-0.1,0.7-0.3l0.1-0.1l0.2-0.1c0.2-0.1,0.4-0.5,0.4-0.9l0-0.1l0-0.1
	c0.1-0.4,0-0.8-0.2-1.2C383.4,630.9,383.2,630.8,383,630.8z"/>
<path class="st0" d="M385.3,617.6L385.3,617.6c0-0.1-0.1-0.1-0.4-0.2c-0.1,0-0.1,0-0.2,0c-0.2,0-0.3,0-0.4,0.1c0,0.1,0,0.1-0.1,0.2
	l0,0.1l0,0.1c0,0.1,0,0.2,0,0.2c0,0,0,0,0,0c0.2,0.1,0.5,0.2,0.6,0.2l0.1,0l0.1,0c0,0,0.1,0,0.1,0c0,0,0,0,0.1-0.1c0,0,0,0,0,0
	c0,0,0-0.1,0-0.2l0-0.1l0-0.1C385.4,617.8,385.4,617.7,385.3,617.6C385.4,617.7,385.4,617.7,385.3,617.6L385.3,617.6z"/>
<path class="st0" d="M362.6,605.4c-0.6-0.7-1.4-1.3-2.2-1.9v26.6c1.5-2,2.8-4.5,3.9-7.5c1.4-4,1.9-7.5,1.5-10.3
	C365.3,609.5,364.3,607.2,362.6,605.4z"/>
<polygon class="st0" points="404.4,634.9 404.6,644.5 415.4,644.3 415.1,634.7 "/>
<path class="st0" d="M292.4,575.8c-0.4,0-0.8,0-1.2,0c-2.2,0-4.7-0.4-7.7-1.3l-4.6,6.4c2.2,0.8,4.2,1.2,6,1.4
	c1.2,0.2,2.5,0.3,3.9,0.3c0.5,0,1.1,0,1.6-0.1l-13.8,18.7l8.3,5.6l21.1-28.5l-6.8-4.5C297.1,574.9,294.8,575.6,292.4,575.8z"/>
<path class="st0" d="M319.7,599.2L319.7,599.2l-0.1,0.1c-0.6,1.1-0.6,1.8-0.6,1.9l0,0.1l0,0.1c0,0,0,0.2,0.4,0.4
	c0.2,0.1,0.3,0.1,0.5,0.1c0.1,0,0.3,0,0.5-0.1c0,0,0.1-0.1,0.1-0.1V598C320.4,598.2,320,598.5,319.7,599.2z"/>
<path class="st0" d="M312.6,609c1.4,0.7,2.8,1.1,4.2,1.2c1.2,0,2.5-0.1,3.8-0.5v-4.3c-0.2,0-0.4,0.1-0.6,0.1c-0.7,0-1.4-0.2-2.1-0.5
	c-1.2-0.6-2-1.6-2.2-2.8c-0.4-1.3,0-2.8,0.9-4.5c0.8-1.7,2-2.7,3.2-3.2c0.3-0.1,0.6-0.2,0.9-0.2v-6.8c-0.7-0.1-1.4-0.2-2-0.2
	c-2.2,0-4.3,0.6-6.1,1.8c-1.9,1.2-3.5,2.7-4.5,4.7c-1.5,3-1.9,5.9-1,8.8C307.8,605.5,309.8,607.6,312.6,609z"/>
<path class="st0" d="M316.6,615.3c-0.8,0.6-1.7,0.9-2.6,0.9c-0.6,0-1.3-0.2-1.8-0.4c-0.7-0.4-1.3-0.9-1.6-1.7
	c-0.2-0.7-0.2-1.8,0.1-3.1l-9.4-3.2c-0.5,1.8-0.4,3.6,0.1,5.1c0.3,1.6,1.1,3,2.3,4.3c1.2,1.3,3,2.5,5.6,3.7c2.6,1.3,5.2,2,7.7,2
	c1.3,0,2.5-0.2,3.8-0.6v-11.7C318.9,613.1,317.6,614.7,316.6,615.3z"/>
<path class="st0" d="M369.3,622.3c0,0-0.1-0.1-0.1-0.1l-0.1-0.1l-0.1-0.1c-0.3-0.5-0.5-1-0.6-1.5c-0.3,1.1-0.6,2.2-1,3.3
	c-0.1,0.2-0.2,0.5-0.3,0.7c0.2-0.3,0.4-0.5,0.6-0.7C368.3,623.2,368.8,622.7,369.3,622.3z"/>
<path class="st0" d="M516.5,591.5L516.5,591.5L516.5,591.5c-0.2,0-0.3,0-0.4,0c-0.1,0-0.3,0-0.6,0.2c-0.2,0.2-0.3,0.4-0.3,0.7l0,0
	l0,0c0,0.1,0.1,0.7,0.8,1.5c0.7,0.8,1.3,1.3,1.7,1.3l0.1,0l0.1,0c0.2,0,0.3,0,0.5,0c0.3,0,0.5-0.1,0.7-0.2c0.2-0.2,0.3-0.3,0.3-0.5
	c0-0.2-0.2-0.8-1-1.8C517.3,591.6,516.7,591.5,516.5,591.5z"/>
<path class="st0" d="M434.8,618c0.2-0.4,0.2-0.7,0.2-0.9c0,0,0-0.1,0-0.1c0,0,0,0-0.1-0.1c-0.1-0.1-0.2-0.1-0.4-0.1
	c-0.1,0-0.2,0-0.3,0l-0.1,0l-0.1,0c-0.4,0.1-0.6,0.2-0.7,0.3c-0.1,0.3-0.2,0.9-0.2,2l0.1,0.8C434.3,618.9,434.7,618.3,434.8,618z"/>
<polygon class="st0" points="479.3,589.6 479.3,603.6 490.9,623.4 499.8,618.8 482.1,588.2 "/>
<path class="st0" d="M528.3,584.8c-2.2-2.6-4.9-4.1-7.9-4.6c-0.5-0.1-1-0.1-1.5-0.1c-2.6,0-5,0.8-7.1,2.4c-1.4,1-2.2,2-2.9,3.2
	c-0.7,1.2-1,2.6-1.3,4.1c-2.1-3.1-3.3-5.2-3.4-6.5c-0.4-1.7,0-3.1,1.4-4c0.5-0.4,1-0.7,1.7-0.7c0.2,0,0.4,0,0.6,0.1
	c0.8,0,1.8,0.4,2.8,1.4l7.1-6.8c-1.7-1.1-3.4-1.8-5-2.1c-0.6-0.1-1.3-0.2-1.9-0.2c-1,0-2,0.2-3,0.5c-1.8,0.4-3.7,1.5-6,3.2
	c-3.7,2.9-5.8,6.2-6.1,10c-0.3,3.9,1.7,8.3,5.7,13.2c2.7,3.3,5.4,5.6,8.2,6.8c2,1,4.1,1.4,6,1.4c0.6,0,1.1,0,1.7-0.1
	c2.6-0.4,5.2-1.7,8-3.8c2.4-1.8,4.1-3.6,5-5.5c1-1.9,1.2-4,0.9-6.1C530.7,588.5,529.8,586.6,528.3,584.8z M521.2,597.9
	c-0.8,0.6-1.8,0.9-2.9,0.9c-0.3,0-0.7,0-1.1-0.1c-1.4-0.2-2.7-1-4-2.5c-1.2-1.4-1.7-2.9-1.6-4.1c0.1-1.4,0.7-2.4,1.7-3.2
	c0.9-0.6,1.7-0.9,2.7-0.9c0.3,0,0.6,0,1,0.1c1.5,0.2,2.7,1.1,4,2.6c1.2,1.5,1.8,2.8,1.8,4.1C522.7,596.1,522.2,597,521.2,597.9z"/>
<path class="st0" d="M436.6,633.8c0.7-1,1.4-1.8,2-2.4c0.2-0.3,0.6-0.7,1.1-1.2v-23.5c-0.7-0.1-1.4-0.2-2.3-0.2
	c-1.6,0-3.5,0.2-5.5,0.6c-3.3,0.7-5.8,1.5-7.5,2.6c-1.7,1.2-3,2.5-3.7,4.2c-0.7,1.7-1.1,3.9-0.9,6.5l10-1.1
	c-0.1-1.9,0.2-3.4,0.8-4.3c0.7-0.9,1.6-1.4,2.9-1.7c0.4-0.1,0.7-0.1,1.1-0.1c0.8,0,1.5,0.2,2.2,0.6c1,0.6,1.5,1.4,1.8,2.4
	c0.2,0.9,0,2.1-0.6,3.2c-0.6,1.2-2.2,3.1-4.6,5.7c-4.1,4.2-6.7,7.7-7.9,10.4c-1.2,2.7-1.7,5.5-1.5,8.5l15.7-3v-8L436.6,633.8z"/>
<path class="st0" d="M262.6,220.1c0.7,2,1.3,3.5,2.1,4.6c0.8,1.6,2.3,3.5,4,5.5c4.8,5,10.1,8,15.7,9c-1.4,1.7-2.5,4-3.4,6.8
	c-10-3.7-17.3-9.8-22-18.3c-1.2,3.2-3.2,6.1-5.9,8.7c-3.6,3.2-8.9,6.4-16.3,9.6c-1.4-2.8-2.7-5-4.1-6.6c3.4-0.8,6.2-1.7,8.4-2.9
	c2.5-1.4,4.5-2.8,6.3-4.1c3.4-3.1,5.5-7.2,6.4-12.2c-9.3,0-15.9,0.1-20,0.3V214l20.5,0.2c0.3-4.8,0.4-7.7,0.4-8.9l-18.5,0.1v-6.5
	c15.1,0.4,29.8,0.4,44.1,0v6.5l-18.5-0.1l-0.5,8.9l21.8-0.2v6.4l-7-0.3H262.6z"/>
<path class="st0" d="M339.2,208.9l15.1,0.2v-3.2L343,206v-5.7l11.4,0.1l-0.2-4.2h6.6l-0.1,4.2l13.6-0.2l-0.2,9c1.6,0,3,0,4.5,0v5.7
	c-1.5-0.1-3-0.1-4.5-0.1l0.2,8.9l-13.6-0.2v2.7l14.7-0.1v5.8l-14.7-0.1v3.3l17.9-0.3v6.1c-3.2-0.1-9.1-0.2-17.9-0.2l0.1,5.7h-6.6
	l0.2-5.7c-7,0-12,0.1-15,0.2v-6.1l15,0.3v-3.3l-13,0.1V226l13,0.1v-2.7l-11.3,0.1v-5.8l11.3,0.1v-3l-15.1,0.1V208.9L339.2,208.9z
	 M368,214.7L368,214.7h-7.4v3h7.4V214.7L368,214.7z M368,205.9L368,205.9h-7.4v3.2h7.4V205.9L368,205.9z M334.4,220.9L334.4,220.9
	c-2.4-2.5-5-4.7-7.9-6.6c1.8-1.6,3.1-3.2,4.1-4.7l1.1,0.8c2.2,1.2,4.4,3,6.7,5.3l-0.3,0.3c-1.8,2.4-3,3.9-3.4,4.6L334.4,220.9
	L334.4,220.9z M332.1,245.9c2.3-4.6,5.2-11.2,8.7-19.9c-2.5-1.6-4.5-2.8-5.8-3.8c-2,7.6-4.8,13.7-8.5,18.6
	C328.7,242.2,330.5,243.9,332.1,245.9L332.1,245.9L332.1,245.9z M330.3,201.1c3.4,2,6.1,4.1,8.3,6.4c1.5-2.6,2.7-4.4,3.6-5.5
	c-2.6-2-5.2-3.9-8-5.7C332.8,198.3,331.5,199.9,330.3,201.1L330.3,201.1z"/>
<path class="st0" d="M421.9,220.8V215l15.9,0.2c0.6-0.8,1.1-1.6,1.4-2.4l-11.4,0.1v-5.3l13.5,0.1c0.4-0.9,0.7-1.8,0.8-2.5l-18.9,0.2
	v-5.7l20.1,0.2c0.5-1.2,0.6-2.4,0.6-3.8l7.3,0.8c-0.2,1-0.6,2-0.8,3l19.5-0.2v5.7l-20.9-0.2c-0.3,0.9-0.6,1.7-0.9,2.5l17.4-0.1v5.3
	l-19.2-0.1c-0.4,0.6-0.9,1.4-1.3,2.4l26.3-0.2v5.8c-3-0.2-6.5-0.3-10.5-0.3c3.4,4.5,7.6,7.3,12.7,8.3c-1.2,1.7-2.5,3.7-3.9,6.3
	c-0.8-0.5-1.3-0.7-1.4-0.7c-6.3-3.6-11-8.1-14.2-13.9h-11.9c-4.9,5.4-10.8,9.8-17.6,13.2c-1.3-2-2.7-3.8-4.3-5.7
	c4.6-1.1,9.1-3.5,13.3-7.4C428.4,220.5,424.6,220.6,421.9,220.8L421.9,220.8z M441.8,233.2c-3.7,1.9-9.3,3.9-16.6,6
	c1.1,1.7,2,3.6,2.7,5.9c2-1.1,6.7-3.2,14.1-6.5C441.8,236.1,441.8,234.2,441.8,233.2L441.8,233.2L441.8,233.2z M437.5,225.6
	c-1.1,1.5-2.4,2.7-3.8,3.9c2.5,1.7,4.5,3.2,5.7,4.4l3.6-4.1C441.6,228.5,439.8,227.2,437.5,225.6L437.5,225.6L437.5,225.6z
	 M450,222.2h-6.5c0,11.6-0.1,17.5-0.1,17.8l-0.1,0.3c-0.4,0.3-1.7,0.4-4,0.2c0.6,1.7,1,3.9,1.3,6.4c4.7-0.1,7.7-0.9,8.6-2.1
	c0.4-0.6,0.7-1.7,0.7-3v-11c0.9,0.7,2.1,2,3.6,3.9c1.5-1.2,3.6-2.8,6-5c-1.2-1.1-2.7-2.3-4.1-3.9c-1.4,1.6-3.3,3.2-5.6,4.8
	L450,222.2L450,222.2L450,222.2z M467.1,239.9c-1.2-0.7-5.6-2.4-13.4-5.3c-0.4,1.3-1.5,3.1-2.6,5.1c4.8,1.8,9.5,3.8,14.1,6.3
	c0.5-1.3,0.9-2.1,1.1-2.4l1.6-3.3L467.1,239.9L467.1,239.9z"/>
<path class="st0" d="M530.9,207.9l13,0c0.2-2.7,0.1-6.4,0-11c2.7,0.3,5.1,0.5,7.4,0.5c-0.3,3.6-0.5,7.1-0.7,10.6l14.2,0v6.2
	c-2.9-0.2-7.7-0.3-14.6-0.3c-0.3,2.9-0.5,4.9-0.8,5.9c1.5-0.6,2.9-1.4,4-2.3l8.8,11.2l3,3.8c-0.4,0.3-2.2,2-5.4,4.9
	c-4-6.5-7.6-11.5-10.9-15.3c-1,2.5-2.4,5-4.3,7.4c-2.3,2.6-5.4,5.1-9.2,7.5c-1.2-1.9-2.9-3.6-4.8-5.3c8.3-2.9,12.6-8.9,13-18
	c-6.2,0.1-10.5,0.1-12.8,0.3V207.9L530.9,207.9z M522.5,220.5v14c-4.8,2.3-7.3,3.6-7.7,3.6c1.2,2.3,2.2,4.8,3.2,7.3
	c3-3.9,5.5-6,7.4-6c0.7,0,2,0.8,3.9,2.4c2.6,2.1,7.4,3.4,14.7,3.8c6.1,0.2,13.2,0.3,21.3,0.3c0.1-1.7,0.7-4.1,1.9-7.3
	c-10,1.3-19.2,1.6-27.7,0.6c-3.5-0.5-6.3-1.6-8.6-3.2l-0.8-0.5l-0.3-0.2l-0.2-0.1l-0.7-0.5l0.1-20h-13.6v6.1
	C517.6,220.5,520,220.5,522.5,220.5L522.5,220.5L522.5,220.5z M531.4,205.5l-2.4-2.4c-0.6-0.6-1.3-1.3-2-2.1c-0.9-0.9-2-2.1-3.5-3.5
	c-1.4,1.2-3.2,2.7-5.5,4.2c3.2,3.1,6,6.1,8.3,9l1.4-1.6c0.7-0.6,1.2-1.2,1.7-1.8C530.1,206.7,530.7,206.2,531.4,205.5L531.4,205.5z"
	/>
<path class="st0" d="M433.6,229.5c2.5,1.7,4.5,3.2,5.7,4.4l0.3-0.4v-6.4c-0.7-0.5-1.4-1-2.2-1.6C436.4,227,435.1,228.3,433.6,229.5z
	"/>
<path class="st0" d="M439.7,207.7l-11.9,0v5.3l11.4-0.1c-0.4,0.8-0.8,1.5-1.4,2.4l-15.9-0.2v5.8c2.7-0.2,6.5-0.3,11.4-0.3
	c-4.2,3.9-8.7,6.4-13.3,7.4c1.6,1.9,3,3.8,4.3,5.7c5.8-2.9,10.9-6.5,15.4-10.9V207.7z"/>
<path class="st0" d="M432.7,233.1c-0.1,0-0.1-0.1-0.2-0.1c-0.2,0.1-0.4,0.3-0.7,0.4C432.2,233.3,432.5,233.2,432.7,233.1z"/>
<polygon class="st0" points="439.7,199.9 423.1,199.7 423.1,205.4 439.7,205.2 "/>
<path class="st0" d="M439.7,234.2c-3.6,1.6-8.4,3.3-14.5,5c1.1,1.7,2,3.6,2.7,5.9c1.8-0.9,5.7-2.7,11.8-5.4V234.2z"/>
<path class="st0" d="M251.1,208.8l-9.8,0.1v1.7l9.7,0.1C251.1,210,251.1,209.4,251.1,208.8z"/>
<path class="st0" d="M264.7,224.7c-0.7-1.1-1.4-2.6-2.1-4.6h13.4l7,0.3V214l-21.8,0.2l0.5-8.9l18.5,0.1v-6.5
	c-7.2,0.2-14.4,0.3-21.8,0.3c-5.7,0-11.4-0.1-17.2-0.2v6.3l13.4-0.1c0,1.1-0.1,4.1-0.4,8.9l-13-0.1v6.1c3.4-0.1,7.6-0.1,12.5-0.1
	c-0.9,5-3,9.1-6.4,12.2c-1.7,1.3-3.7,2.7-6,4v7.5c5.1-2.5,9-5,11.8-7.5c2.7-2.6,4.6-5.5,5.9-8.7c4.7,8.5,12,14.6,22,18.3
	c0.8-2.8,2-5.1,3.4-6.8c-5.6-0.9-10.9-3.9-15.7-9C267,228.1,265.5,226.3,264.7,224.7z"/>
<path class="st0" d="M249.2,223.6c-2.9,0-5.6,0-7.9,0.1v8.6c1.2-0.8,2.5-1.6,3.8-2.6C246.9,228,248.3,226,249.2,223.6z"/>
<path class="st0" d="M374.3,200.1l-13.6,0.2l0.1-4.2h-0.4v50.2h0.4l-0.1-5.7c8.7,0,14.7,0.1,17.9,0.2v-6.1l-17.9,0.3v-3.3l14.7,0.1
	V226l-14.7,0.1v-2.7l13.6,0.2l-0.2-8.9c1.5,0,3,0,4.5,0.1v-5.7c-1.4,0-2.9,0-4.5,0L374.3,200.1z M368,217.8h-7.4v-3h7.4V217.8z
	 M368,209.1h-7.4v-3.2h7.4V209.1z"/>
<path class="st0" d="M550.5,239.8c-3.8,0-7.4-0.2-10.9-0.6c-3.5-0.5-6.3-1.6-8.6-3.2l-0.8-0.5l-0.3-0.2l-0.2-0.1l-0.7-0.5l0.1-20
	h-13.6v6.1c2.3-0.1,4.6-0.1,7.2-0.1v14c-4.8,2.3-7.3,3.6-7.7,3.6c1.2,2.3,2.2,4.8,3.2,7.3c3-3.9,5.5-6,7.4-6c0.7,0,2,0.8,3.9,2.4
	c2.6,2.1,7.4,3.4,14.7,3.8c4.3,0.1,9.2,0.2,14.6,0.3v-6.4C555.9,239.7,553.1,239.8,550.5,239.8z"/>
<path class="st0" d="M527.7,209.1c0.7-0.6,1.2-1.2,1.7-1.8c0.6-0.6,1.2-1.2,1.9-1.9l-2.4-2.4c-0.6-0.6-1.3-1.3-2-2.1
	c-0.9-0.9-2-2.1-3.5-3.5c-1.4,1.2-3.2,2.7-5.5,4.2c3.2,3.1,6,6.1,8.3,9L527.7,209.1z"/>
<path class="st0" d="M439.3,240.4c0.1,0.4,0.3,0.9,0.4,1.3v-1.3C439.5,240.4,439.4,240.4,439.3,240.4z"/>
<path class="st0" d="M532.5,217.5l0,9.6c3.9-2.1,6.3-5.3,7.2-9.8C536.5,217.4,534.1,217.4,532.5,217.5z"/>
<path class="st0" d="M547.2,231.7L547.2,231.7c-1.3,1.5-2.8,2.9-4.4,4.2c2.5,0.2,5,0.3,7.7,0.3c1.5,0,2.9,0,4.4-0.1
	c-1.9-2.9-3.6-5.5-5.4-7.7C548.9,229.6,548.1,230.6,547.2,231.7L547.2,231.7z"/>
<path class="st0" d="M530.9,214.1c2.3-0.1,6.6-0.2,12.8-0.3c-0.4,9.1-4.7,15-13,18c1.9,1.7,3.5,3.4,4.8,5.3c3.8-2.4,6.8-4.9,9.2-7.5
	c1.9-2.4,3.3-4.9,4.3-7.4c3,3.4,6.2,7.9,9.8,13.5v-11.5l-5.3-6.7c-1.1,1-2.5,1.7-4,2.3c0.2-1,0.5-3,0.8-5.9c3.3,0,6.1,0,8.5,0.1
	v-5.9l-8.1,0c0.1-3.5,0.4-7,0.7-10.6c-2.2,0-4.7-0.2-7.4-0.5c0.1,4.7,0.3,8.4,0,11l-13,0V214.1z"/>
<path class="st0" d="M558.7,218.5v-1.1c-0.3,0-0.6,0-0.9,0L558.7,218.5z"/>
<path class="st0" d="M299.3,573.8c-2.2,1.2-4.5,1.8-6.9,2c-2.4,0.2-5.4-0.2-8.8-1.2l-4.6,6.4c2.2,0.8,4.2,1.2,6,1.4
	c1.7,0.2,3.6,0.4,5.6,0.2l-13.8,18.7l8.3,5.6l21.1-28.5L299.3,573.8z"/>
<path class="st0" d="M332.9,594.6c-1.4-2-3.7-3.8-6.9-5.4c-2.6-1.2-5.1-1.9-7.3-1.9c-2.2,0-4.3,0.6-6.1,1.8
	c-1.9,1.2-3.5,2.7-4.5,4.7c-1.5,3-1.9,5.9-1,8.8c0.9,2.9,2.8,5,5.7,6.4c1.4,0.7,2.8,1.1,4.2,1.2c1.4,0,2.9-0.2,4.5-0.7
	c-2.1,3.1-3.7,5.1-4.8,5.8c-1.5,1.1-3,1.1-4.4,0.5c-0.7-0.4-1.3-0.9-1.6-1.7c-0.2-0.7-0.2-1.8,0.1-3.1l-9.4-3.2
	c-0.5,1.8-0.4,3.6,0.1,5.1c0.3,1.6,1.1,3,2.3,4.3c1.2,1.3,3,2.5,5.6,3.7c4.3,2.1,8.4,2.5,12.2,1.2c3.9-1.4,7.2-4.9,10.2-10.3
	c2.1-3.8,3.1-7.1,3.2-9.9C334.8,599,334.2,596.6,332.9,594.6z M325.1,602.1c-1,1.6-2,2.6-3.3,3.1c-1.3,0.4-2.5,0.4-3.8-0.2
	c-1.2-0.6-2-1.6-2.2-2.8c-0.4-1.3,0-2.8,0.9-4.5c0.8-1.7,2-2.7,3.2-3.2c1.2-0.4,2.5-0.4,3.6,0.2c1.3,0.5,2.1,1.5,2.4,2.9
	C326.2,598.9,325.9,600.4,325.1,602.1z"/>
<path class="st0" d="M362.6,605.4c-1.6-1.8-4.1-3.2-7.6-4.3c-2.8-0.9-5.4-1.1-7.6-0.8c-2.1,0.3-4.1,1.2-5.8,2.6
	c-1.7,1.4-2.9,3.2-3.6,5.4c-1.2,3.2-1.1,6.1,0.3,8.8c1.4,2.7,3.7,4.6,6.7,5.5c1.5,0.5,3,0.7,4.4,0.5c1.4-0.1,2.9-0.6,4.3-1.3
	c-1.5,3.4-2.7,5.5-3.8,6.5c-1.4,1.2-2.8,1.5-4.3,1.1c-0.8-0.3-1.5-0.8-1.9-1.5c-0.4-0.7-0.5-1.7-0.3-3.1l-9.8-1.8
	c-0.1,1.9,0.2,3.6,0.9,5.1c0.6,1.5,1.6,2.8,2.9,3.8c1.3,1.1,3.4,2.1,6.1,2.9c4.6,1.5,8.6,1.2,12.2-0.7c3.5-1.9,6.3-5.8,8.4-11.6
	c1.4-4,1.9-7.5,1.5-10.3C365.3,609.5,364.3,607.2,362.6,605.4z M356.1,614c-0.6,1.7-1.5,2.9-2.7,3.5c-1.3,0.7-2.5,0.8-3.8,0.4
	c-1.3-0.4-2.2-1.2-2.7-2.4c-0.6-1.2-0.5-2.7,0.2-4.6c0.6-1.8,1.5-3.1,2.6-3.7c1.1-0.6,2.4-0.7,3.6-0.3c1.3,0.4,2.3,1.3,2.9,2.6
	C356.8,610.7,356.7,612.2,356.1,614z"/>
<path class="st0" d="M385.7,608.2c-3.6-0.4-6.7-0.2-9,0.9c-3.1,1.5-4.8,3.7-5.3,6.5c-0.2,1.7,0.1,3.3,0.8,4.8
	c0.6,1.1,1.6,2.1,3.1,3.1c-2.2,0.5-3.9,1.3-5,2.6c-1.2,1.2-1.9,2.9-2.2,4.8c-0.2,2.2,0,4,0.8,5.8c0.8,1.8,2.1,3.2,4,4.3
	c1.9,1.1,4.7,1.9,8.5,2.4c1.9,0.3,3.9,0.3,5.7,0.2c1.9-0.2,3.4-0.5,4.8-1.2c1.3-0.7,2.5-1.7,3.4-3c1.1-1.4,1.7-2.9,2-4.6
	c0.2-1.7,0-3.5-0.8-5c-0.7-1.6-2-2.9-3.8-4c1.5-0.8,2.7-1.6,3.6-2.5c1.1-1.2,1.7-2.6,2-4.1c0.3-2.6-0.5-4.9-2.5-6.9
	C393.9,610.1,390.5,608.8,385.7,608.2z M387.5,633.1c-0.2,1.4-0.8,2.7-1.9,3.4c-1,0.9-2.2,1.2-3.4,1.1c-1.3-0.2-2.2-0.8-3.1-1.9
	c-0.8-1-1.2-2.4-0.9-3.8c0.2-1.6,0.8-2.8,1.8-3.6c1.1-0.8,2.2-1.1,3.4-1c1.2,0.1,2.3,0.8,3.2,1.9
	C387.3,630.3,387.7,631.6,387.5,633.1z M388.8,618.5c-0.2,1.1-0.6,1.9-1.5,2.6c-0.8,0.6-1.8,0.9-2.9,0.7c-1.2-0.2-2.2-0.6-2.9-1.4
	c-0.6-0.9-0.9-1.8-0.7-3.1c0.1-1.1,0.6-2,1.4-2.7c0.9-0.6,1.9-0.8,3.1-0.7c1.2,0.2,2,0.7,2.7,1.4C388.8,616.3,389,617.3,388.8,618.5
	z"/>
<polygon class="st0" points="404.4,634.9 404.6,644.5 415.4,644.3 415.1,634.7 "/>
<path class="st0" d="M436.6,633.8c0.7-1,1.4-1.8,2-2.4c0.5-0.6,1.7-1.7,3.4-3.5c2.8-2.8,4.8-5.3,5.7-7.5c0.8-2.1,1.1-4.1,0.7-6.2
	c-0.5-2-1.3-3.6-2.8-4.9c-1.4-1.4-3.1-2.3-5.2-2.6c-2.1-0.4-4.9-0.3-8.4,0.4c-3.3,0.7-5.8,1.5-7.5,2.6c-1.7,1.2-3,2.5-3.7,4.2
	c-0.7,1.7-1.1,3.9-0.9,6.5l10-1.1c-0.1-1.9,0.2-3.4,0.8-4.3c0.7-0.9,1.6-1.4,2.9-1.7c1.2-0.3,2.3-0.1,3.2,0.5c1,0.6,1.5,1.4,1.8,2.4
	c0.2,0.9,0,2.1-0.6,3.2c-0.6,1.2-2.2,3.1-4.6,5.7c-4.1,4.2-6.7,7.7-7.9,10.4c-1.2,2.7-1.7,5.5-1.5,8.5l29.5-5.6L452,631L436.6,633.8
	z"/>
<polygon class="st0" points="458.4,626.6 461.9,635.5 471.9,632 468.4,623.1 "/>
<path class="st0" d="M474.8,592c0.1,2.4-0.2,4.7-1.1,6.8c-1,2.2-2.6,4.5-5.1,7l4,6.8c1.7-1.6,3-3.1,3.9-4.4c1-1.4,1.9-2.9,2.6-4.7
	l11.7,20l8.9-4.7l-17.8-30.6L474.8,592z"/>
<path class="st0" d="M531.1,590.7c-0.3-2.1-1.3-4-2.8-5.9c-2.2-2.6-4.9-4.1-7.9-4.6c-3.2-0.4-6.1,0.4-8.6,2.4c-1.4,1-2.2,2-2.9,3.2
	c-0.7,1.2-1,2.6-1.3,4.1c-2.1-3.1-3.3-5.2-3.4-6.5c-0.4-1.7,0-3.1,1.4-4c0.6-0.6,1.4-0.8,2.3-0.6c0.8,0,1.8,0.4,2.8,1.4l7.1-6.8
	c-1.7-1.1-3.4-1.8-5-2.1c-1.7-0.3-3.3-0.2-5,0.3c-1.8,0.4-3.7,1.5-6,3.2c-3.7,2.9-5.8,6.2-6.1,10c-0.3,3.9,1.7,8.3,5.7,13.2
	c2.7,3.3,5.4,5.6,8.2,6.8c2.7,1.3,5.3,1.7,7.7,1.3c2.6-0.4,5.2-1.7,8-3.8c2.4-1.8,4.1-3.6,5-5.5
	C531.2,594.9,531.4,592.8,531.1,590.7z M521.2,597.9c-1.1,0.8-2.4,1.1-3.9,0.8c-1.4-0.2-2.7-1-4-2.5c-1.2-1.4-1.7-2.9-1.6-4.1
	c0.1-1.4,0.7-2.4,1.7-3.2c1.1-0.8,2.3-1.1,3.7-0.8c1.5,0.2,2.7,1.1,4,2.6c1.2,1.5,1.8,2.8,1.8,4.1
	C522.7,596.1,522.2,597,521.2,597.9z"/>
<path class="st0" d="M515.5,89.7C491,50,400,50,400,50s-91,0-115.5,39.7c-37.3,58.3-140,45.5-140,45.5v427.6
	c0,44.4,26.1,84.6,66.6,102.7L400,750l188.9-84.5c40.5-18.1,66.6-58.4,66.6-102.7V135.2C655.5,135.2,552.8,148,515.5,89.7z
	 M624,542.7c0,38.9-22.9,74.2-58.4,90.1L400,706.8l-165.6-74.1c-35.5-15.9-58.4-51.2-58.4-90.1V449h-24.2v-48H176V167.8
	c0,0,90,11.3,122.7-39.9C320.2,93.2,400,93.2,400,93.2s79.8,0,101.3,34.8C534,179.1,624,167.8,624,167.8v305.4l24.2,48H624V542.7z"
	/>
<path class="st1" d="M454.9,434.3c16,3.4,23.9,14.9,24.2,26.7c-0.2,11.8-8.2,23.6-24.2,26.9c-2.8,0.6-5.9,0.9-9.3,0.9h-14.7v-55.3
	h14.7C449,433.4,452.1,433.6,454.9,434.3L454.9,434.3z M504.7,483.7L504.7,483.7c9.4-13.9,9.4-31.5,0-45.4c-6.1-8.5-16-15.5-29.6-19
	c-7.1-1.8-14.3-2.4-21.6-2.4h-53.7v88.5h54c4.1,0,8.1-0.1,12.2-0.6C484.4,502.4,497.3,494.1,504.7,483.7L504.7,483.7z M167.7,416.8
	L167.7,416.8h114.2v16.4H243v72.1h-18.1c-11.1,0-20-9.7-20-19.1l-0.2-53h-37V416.8L167.7,416.8z M390.7,416.8L390.7,416.8v16.4
	h-63.1v19.1h57.8v14.9h-57.8v13c0,4.6,3.8,8.4,8.6,8.4H391v16.6h-74.7c-14.7,0-26.7-12-26.7-26.7v-61.8H390.7z"/>
<path class="st1" d="M577.9,416.8h-18.7c-12.4,0-21.5,5.1-27.1,16.6l-34.7,71.9h19.5l8-16.6h49.2l7.8,16.6h40.6L577.9,416.8
	L577.9,416.8z M531.6,474.4L531.6,474.4l16.6-34.3c0.4-0.8,0.8-1.7,1.5-2.3l1.1-0.4l17,37H531.6z"/>
<g>
	<path class="st0" d="M280,401c4.6-7.3,19.3-15.2,19.3-15.2c3.1,1.9,15.2,9.1,24.2,15.2h130.1c8.9,0,16.4,0.8,23.4,2.4
		c8.8-5.3,23.2-14.6,23.2-14.6c16.1,8.3,20.6,11.2,20.6,11.2s-4.7,11.7-9.4,21.8c2,2,3.9,4.2,5.7,6.5l0.8-1.7
		c8.2-16.8,22.5-25.6,41.4-25.6h8.3c-11.6-82.1-82.2-145.3-167.5-145.3c-85.3,0-155.8,63.2-167.4,145.3H280z M527.7,328.6l-19.3,0.5
		c0,0-32.7-33-60.5-39.9l-5.7-17.7C442.2,271.6,493.1,281,527.7,328.6z M445.1,292.4c0,0,41.5,19,59.7,39.7c0,0,5.7,39.5-5.7,52.5
		c0,0-22.6,15.1-29.3,16.1l-24.6-1.3c0,0-6.1-16.6-40.1-28.9c0,0,3.6-33.7-4.4-47.3C400.6,323.2,420.9,298.3,445.1,292.4z
		 M396.5,325.2c0,0,8.3,19.2,2.9,45.7c0,0-35.9,15.9-36.1,26.2l-40.5,0.6c0,0-23.1-14.1-25.7-28.4c0,0-2.4-31.9,1.3-39.2
		c0.7-1.4,30.6-28.3,50.9-34.6C349.2,295.5,383.5,309.6,396.5,325.2z M351.1,273.3l-4.5,17.5c0,0-37.3,17.5-52.3,38.3l-15.9-1.4
		C278.5,327.7,300.7,290.7,351.1,273.3z"/>
	<path class="st0" d="M542.8,504.6c-2.6,4.9-7,11.2-13.1,15.2c-0.1-0.7-0.3-1.9-0.5-3.4l-2.3,4.9h-43.5h-11.1h-2.6
		c-6.8,21.8-19.1,28.7-19.1,28.7c-45,17-96.4-1.3-96.4-1.3c-8.5-5.3-14.2-18-17.4-27.4h-20.4c-23.4,0-42.5-19.1-42.5-42.6V449h-15
		v69c30.3,45.8,82.2,76,141.2,76c64.6,0,120.8-36.2,149.3-89.5H542.8z M330.4,564.9l25.3-10.7c0,0,36.8,16.1,92.3,1.6l20.6,12.3
		C468.5,568.1,398.5,603.4,330.4,564.9z"/>
</g>
<g>
	<path class="st0" d="M594.8,521.2v5.1c0,27.8-13.8,53.5-36.2,69v-90.7h-2.8c-16.8,32.8-43.7,59.6-76.5,76.3v4.8l1.1-0.6l3-1.6
		l1.7,2.9l17.8,30.6l1.8,3.2l-3.2,1.7l-8.9,4.7l-3,1.5l-1.7-2.9l-8.6-14.7v21.9l-3.1,1.4l0.1,0.4l-3.4,1.2l-1.5,0.5l-31.9,14.3v-5.3
		l-15,2.8l-3.9,0.7l-0.3-3.9c-0.3-3.6,0.3-7,1.8-10.1c1.4-3.3,4.3-7.1,8.6-11.4c0,0,0,0,0,0l-0.7,0.1l-10,1.1l-3.6,0.4l-0.3-3.6
		c-0.2-3,0.2-5.7,1.1-8.1c0.9-2.3,2.5-4.2,4.9-5.9l0.1-0.1l0.1-0.1c2.2-1.3,5-2.3,8.7-3.1c2.2-0.4,4.3-0.7,6.2-0.7h0
		c0.8,0,1.5,0.1,2.3,0.1v-7.8c-12.8,3-26.1,4.5-39.7,4.5c-13.6,0-26.9-1.6-39.6-4.5v4.1c2,1,3.6,2.2,4.8,3.5c2.1,2.2,3.5,5.2,4,8.5
		c1-2,2.9-4.1,6.1-5.6c2-1,4.4-1.5,7.2-1.5c1.1,0,2.4,0.1,3.7,0.2c5.6,0.7,9.6,2.3,12.2,4.9c2.7,2.7,3.9,6.1,3.6,9.8l0,0.1l0,0.1
		c-0.4,2.2-1.4,4.2-2.8,5.8c-0.2,0.2-0.3,0.4-0.5,0.5c0.5,0.7,1,1.4,1.3,2.2c0.6,1.2,0.9,2.6,1.1,4.1l0-0.8l3.5-0.1l10.6-0.3
		l3.5-0.1l0.1,3.5l0.3,9.6l0.1,3.5l-3.5,0.1l-10.7,0.2l-3.5,0.1l-0.1-3.5l-0.2-9.5l0-0.8c0,0.3,0,0.6,0,0.9l0,0.1l0,0.1
		c-0.5,2.4-1.3,4.4-2.6,6c-1.1,1.6-2.6,3-4.5,4l-0.1,0.1l-0.1,0.1c-1.7,0.8-3.6,1.2-5.9,1.5c-0.8,0.1-1.6,0.1-2.4,0.1
		c-1.4,0-2.7-0.1-4-0.3c-4.1-0.5-7.4-1.4-9.8-2.8c-2.5-1.4-4.4-3.4-5.5-5.9l0,0l0,0c-1-2.3-1.3-4.7-1-7.5l0-0.1l0-0.1
		c0-0.3,0.1-0.6,0.2-0.8c-1.3,2.4-2.9,4.3-4.6,5.8v14.9l-39.7-17.8v-6.4c-1.2,0.3-2.5,0.4-3.8,0.4c-3,0-6-0.8-9.2-2.3
		c-2.9-1.3-5.1-2.8-6.6-4.5l0,0l0,0c-1.6-1.8-2.5-3.7-3-5.7c-0.6-2.2-0.7-4.5-0.1-6.9l0.9-3.7l3.6,1.2l1.6,0.6
		c-0.2-0.5-0.4-0.9-0.5-1.4c-1.2-3.8-0.7-7.6,1.2-11.5c1.3-2.4,3.2-4.4,5.8-6c2.3-1.5,5.1-2.3,8-2.3c0.7,0,1.3,0,2,0.1v-3
		c-27.1-13.8-50.1-34.5-66.8-59.7h-12.5v74.1c-22.4-15.5-36.2-41.2-36.2-69v-11.1c-2.6-1.7-4.9-3.7-7-6v17.1
		c0,35.8,21.1,68.3,53.8,82.9L400,675.5l148.1-66.3c32.7-14.6,53.8-47.2,53.8-82.9v-5.1H594.8z M285.8,611.6l-2.8-1.9l-8.3-5.6l-3-2
		l2.2-3l9.9-13.5c-2-0.3-4-0.8-6-1.5l-4.5-1.5l2.8-3.8l4.6-6.4l1.5-2l2.4,0.7c2.5,0.7,4.8,1.1,6.7,1.1c0.3,0,0.6,0,0.9,0
		c2.1-0.2,3.9-0.7,5.5-1.6l1.9-1l1.8,1.2l6.8,4.5l3,2l-2.2,2.9l-21.1,28.5L285.8,611.6z M533.4,598.4c-1.2,2.4-3.2,4.7-6,6.8
		c-3.3,2.5-6.4,3.9-9.5,4.5c-0.7,0.1-1.5,0.2-2.2,0.2c-2.5,0-5-0.6-7.4-1.8c-3.2-1.4-6.2-4-9.4-7.8c-4.7-5.7-6.8-10.8-6.5-15.7
		c0.4-4.8,2.9-9,7.4-12.5l0,0l0,0c2.8-2.1,5-3.2,7.1-3.8c1.3-0.4,2.6-0.6,4-0.6h0c0.9,0,1.7,0.1,2.6,0.2c2.2,0.4,4.3,1.3,6.3,2.7
		l3.6,2.4l-3.1,3l-0.8,0.8c0.5,0,0.9,0,1.4,0.1l0.1,0l0.1,0c4,0.7,7.3,2.6,10,5.8l0,0l0,0c1.9,2.4,3.1,4.8,3.5,7.5
		C535,593.1,534.6,595.9,533.4,598.4z"/>
	<path class="st0" d="M205.2,401V198.3c5.3,0.4,15.4,1,27.5,0.3v-3.2l3.6,0.1c7.5,0.2,15,0.3,22.3,0.3c7.3,0,14.6-0.1,21.7-0.3
		l3.6-0.1v3.6v6.5v3.5l-3.5,0l-15.2-0.1l-0.1,1.8l18-0.1l3.5,0v3.5v6.4v3.6l-3.6-0.1l-6.9-0.3h-7.9c0.7,1.3,2,2.8,3.2,4.2
		c4.2,4.4,8.9,7.1,13.7,7.9l5.8,1l-3.7,4.6c-1.1,1.4-2.1,3.4-2.8,5.7l-1.1,3.5l-3.5-1.3c-8.6-3.2-15.5-8.1-20.5-14.7
		c-1.1,1.5-2.3,3-3.7,4.3l-0.1,0.1l-0.1,0c-3.4,3-8,5.9-14.1,8.8V351c16.5-35.4,44.6-64.4,79.3-82.2V152.6
		c10.1-8.5,25.3-13.5,39.7-16.5v56.5h0.4h3.6l-0.1,3.6l0,0.6l10-0.2l3.6-0.1l-0.1,3.6l-0.1,5.4c0.3,0,0.6,0,0.9,0h3.5v3.5v5.7v3.6
		l-3.6-0.1c-0.3,0-0.5,0-0.8,0l0.1,4.2l1.1,0v3.5v5.1l3.2-0.1v3.6v6.1v3.6l-3.6-0.1c-1.7,0-6.2-0.1-14.2-0.2l0,2.2l0,3.5h-3.5h-0.4
		v4.6c12.7-2.9,26-4.5,39.6-4.5c13.7,0,27,1.6,39.7,4.5v-4.2l-2.2,0.1l-0.4-3.1c-0.1-0.9-0.2-1.7-0.4-2.4c-3.4,1.5-6,2.7-7.3,3.4
		l-3.7,2l-1.3-4c-0.6-1.8-1.3-3.5-2.3-5.1l-2.5-4l2.1-0.6l-0.5-0.8c-1.2-1.8-2.5-3.5-4-5.4l-3.8-4.4l5.7-1.3c0.1,0,0.2,0,0.3-0.1
		l-1.1,0.1v-3.8V215v-3.5l3.5,0l2.4,0v-2.7l-1.1,0l-3.5,0v-3.5v-5.7v-3.5l3.5,0l16.5,0.2v-60.2c14.4,3,29.6,8,39.7,16.5v116.3
		c34.8,17.7,62.8,46.7,79.3,82.2V249.4c-4.8,0-9.7-0.1-14.7-0.3l0,0l0,0c-8-0.4-13.5-1.9-16.7-4.5l0,0l0,0c-0.9-0.8-1.6-1.2-1.9-1.5
		c-0.6,0.3-2,1.4-4.4,4.5l-3.8,4.9l-2.2-5.8c-1.1-2.8-2.1-5.1-3-6.9l-2.6-5.1h5.2c0.8-0.4,2.8-1.3,4.7-2.3V224c-1.2,0-2.4,0-3.5,0.1
		l-3.7,0.2v-3.7v-6.1v-3.5h3.5h6.7c-1.9-2.2-4.1-4.5-6.5-6.9l-3.1-3l3.6-2.4c2-1.3,3.6-2.6,5.1-3.9l2.4-2.2l2.3,2.3
		c1,1,1.8,1.8,2.6,2.6c0.3,0.4,0.7,0.7,1,1l0.1,0.1l0.1,0.1c0.4,0.4,0.8,0.8,1.2,1.2c0.3,0.3,0.5,0.5,0.7,0.7l2.4,2.4l1.3,1.4l5.2,0
		c0-1.5,0-3.3-0.1-5.2l-0.1-2.2l-0.1-4l4,0.4c2.7,0.3,5,0.4,7,0.4h3.8l-0.3,3.8c-0.2,2.5-0.4,4.7-0.5,6.8l4.5,0v-6.6
		c15.9,1.7,29.6,1,36.2,0.5v217l7,13.9V190.5l-3.9,0.5c-0.8,0.1-77.8,9.2-105.3-33.7c-19.8-32.1-89.7-32.4-92.6-32.4
		c-3,0-72.8,0.4-92.6,32.4C280,200.1,202.9,191,202.1,190.9l-3.9-0.5V401H205.2z"/>
</g>
</svg>
