<?xml version="1.0" encoding="utf-8"?>
<!-- Generator: Adobe Illustrator 22.1.0, SVG Export Plug-In . SVG Version: 6.00 Build 0)  -->
<svg version="1.1" id="图层_1" xmlns="http://www.w3.org/2000/svg" xmlns:xlink="http://www.w3.org/1999/xlink" x="0px" y="0px"
	 viewBox="0 0 800 800" style="enable-background:new 0 0 800 800;" xml:space="preserve">
<style type="text/css">
	.st0{fill:#004DA0;}
	.st1{fill:#FFFFFF;}
	.st2{fill:#DADADB;}
	.st3{fill-rule:evenodd;clip-rule:evenodd;fill:#004DA0;}
	.st4{fill-rule:evenodd;clip-rule:evenodd;fill:#D7000F;}
	.st5{fill-rule:evenodd;clip-rule:evenodd;fill:#FFFFFF;}
</style>
<g>
	<path id="XMLID_81_" class="st0" d="M401.9,714l-0.5-0.1c-1-0.1-25-3.8-59.2-18.7c-31.5-13.7-77.9-40.1-119.9-87.5
		c-42-47.6-61.3-103.1-70-141.2c-9.5-41.3-9.1-70.9-9-72.2l-0.1-301h58.1c3.7-2.5,18.4-11.6,46.3-20.9C276.7,62.6,326.8,50.8,399,50
		c72.3-0.8,124.1,10.9,154.8,20.9c29.5,9.5,45.6,19.1,49.5,21.6h56.5v283.8c0,1.6,0.7,33.6-7,75.6c-7.3,39.6-24,96.7-61.5,143.2
		c-42.4,52.6-91.4,82.1-125.1,97.6c-36.5,16.8-62.6,21-63.7,21.2L401.9,714z"/>
	<path id="XMLID_80_" class="st1" d="M149.9,100.1l0.1,294.3c0,0.4-0.4,30.3,8.9,70.8c8.6,37.3,27.4,91.6,68.4,138
		c41.2,46.5,86.7,72.4,117.6,85.8c30.7,13.4,53.3,17.5,57,18.1c3.8-0.7,28.7-5.5,61.7-20.7c32.9-15.2,80.9-44,122.4-95.6
		c36.6-45.4,52.9-101.2,60.1-140c7.8-42.2,7-74.1,7-74.4l0-0.1V99.3h-51.8l-0.9-0.6c-0.2-0.1-16.3-10.9-49-21.5
		c-30.2-9.7-81.2-21.1-152.3-20.4C262.7,58.2,204.8,99,204.2,99.4l-0.9,0.6H149.9z"/>
	<path id="XMLID_79_" class="st2" d="M163.9,126l0.1,274.9c0,0.3-0.4,28.2,8.4,66c8.1,34.8,25.9,85.3,64.6,128.6
		c38.9,43.4,81.8,67.4,111,80c29,12.5,50.4,16.3,53.8,16.9c3.6-0.6,27.1-5.1,58.2-19.3c31.1-14.1,76.4-41,115.6-89.1
		c34.6-42.3,49.9-94.3,56.7-130.5c7.4-39.3,6.6-69,6.6-69.3l0-0.1V125.9c0,0-423.3-0.2-423.9,0.1L163.9,126z"/>
	<path id="XMLID_78_" class="st3" d="M627.7,137.8H406.2v544.8c0,0,98.6-27,158.9-105.9c60.4-78.7,60.9-171.1,61.5-179.3
		C627.7,366,627.7,137.8,627.7,137.8"/>
	<rect id="XMLID_77_" x="174.8" y="137.1" class="st3" width="221.1" height="220.3"/>
	<path id="XMLID_76_" class="st4" d="M250.3,368.8v225.4c0,0-41.8-44.8-59.5-103.8c-16.6-55.4-16-121.6-16-121.6H250.3z"/>
	<path id="XMLID_75_" class="st3" d="M323.1,368.9h72.8l0,313.8c0,0-11.3-2.8-37.3-13.8c-22.6-9.5-35.8-17.6-35.5-17.9V368.9z"/>
	<path id="XMLID_74_" class="st5" d="M249.5,368.9h73.7l0,282.3c0,0-20.6-11.3-41.5-27.5c-10.7-8.3-21.2-17.9-32-30.1L249.5,368.9z"
		/>
	<path id="XMLID_73_" class="st5" d="M251.3,357.7l-76.5,0V199.4c0,0,12.4,28,43.9,34.7c30.7,6.5,32.8,34.1,32.8,34.1L251.3,357.7z"
		/>
	<path id="XMLID_72_" class="st3" d="M246.9,357.6h-72.1V210.7c0,0,11.1,22.7,42.6,29.3c30.7,6.5,29.5,35.1,29.5,35.1V357.6z"/>
	<path id="XMLID_71_" class="st5" d="M324.8,263.2c-1.6,6.4-0.8,15.9-0.8,15.9l0.1,78.6l-74.6-0.2l-0.1-74.4c0,0,17.5,1,25-4.8
		c6.6-5,8.5-13.6,17.8-17.8c3.4-1.5,10.1-3,17-4.1c13.9-3.6,20.7-14.9,20.7-14.9S326.4,256.8,324.8,263.2"/>
	<path id="XMLID_70_" class="st4" d="M320.7,267.5c-0.7,4.1-1.1,15.6-1.1,15.6l0.2,74.6l-66.8,0.1L253,289c0,0,14-0.5,22.5-5.6
		c7.2-4.3,9-12.1,17.8-17.5c3.1-1.9,9.1-3.5,16.1-4.6c13.9-4.3,14.6-7.7,14.6-7.7S322.3,258.3,320.7,267.5"/>
	<path id="XMLID_69_" class="st5" d="M395.9,357.7l-74.9,0l2.3-90.7c0,0,2.3-26.6,27.9-34.6c36.9-11.6,44.8-32.8,44.8-32.8V357.7z"
		/>
	<path id="XMLID_68_" class="st3" d="M395.9,357.7l-69.3,0V274c0,0-1-26.8,24.5-34.7c36.9-11.5,44.8-28.9,44.8-28.9V357.7z"/>
	<polygon id="XMLID_67_" class="st5" points="406.2,136.9 627.7,136.9 627.7,249.8 406.2,661.1 	"/>
	<polygon id="XMLID_66_" class="st4" points="466.6,136.9 521.6,136.9 406.2,351.4 406.2,249.5 	"/>
	<polygon id="XMLID_65_" class="st4" points="575.6,136.9 627.7,136.9 406.2,556.9 406.2,455.4 	"/>
	<g>
		<path id="XMLID_64_" class="st3" d="M317.1,88.2c0,0-2.8-2.4-9.7-3.7c-7-1.4-8.9,1.7-9,2.8c-0.1,1,0.4,2.4,3,3.2
			c2.5,0.6,3.9,0.8,6.3,1.4c2.5,0.5,4.4,0.9,6.7,2.4c2.3,1.6,3.4,4,3.5,6.5c0.1,2.6-0.6,5.3-2.2,7.1c-1.6,1.9-4.2,3.6-8,4.4
			c-3.7,0.8-8.3,0.2-10.2-0.2c-2-0.6-6.6-2.1-6.6-2.1v-7.5c0,0,0.8,1.2,3.1,2c2.5,0.8,4.9,1.5,7.1,1.7c2.2,0.2,6,0.8,7.2-0.3
			c1.2-1.2,1.4-2.3,1.1-3.5c-0.3-1.2-1.1-1.5-2-2.2c-1-0.6-3.6-1.2-7.1-2c-3.6-0.9-3-0.6-4.3-1c-1.2-0.4-4.8-2.9-5.6-5.4
			c-1-2.5-1.3-5.5,1.4-9c2.5-3.3,9.9-4.8,14.4-4.5c4.3,0.3,11,2.7,11,2.7V88.2z"/>
		<polygon id="XMLID_63_" class="st3" points="321.9,79.4 330.5,79.4 330.5,92.5 342.2,92.5 342.2,79.4 350.4,79.4 350.5,112.2 
			342.5,112.2 342.5,98.2 330.3,98.2 330.4,112.3 322,112.3 		"/>
		<polygon id="XMLID_62_" class="st3" points="354.8,79.4 379,79.4 379,85.5 363.7,85.5 363.8,93.2 378.8,93.2 378.8,98.4 
			363.7,98.4 363.7,106.8 378.8,106.8 378.8,112.2 354.9,112.2 		"/>
		<polygon id="XMLID_61_" class="st3" points="412.9,79.3 413,112.2 403.5,112.2 391,92 391,112.2 384.5,112.2 384.4,79.4 
			392.1,79.4 406.1,101.3 406.1,79.3 		"/>
		<polygon id="XMLID_60_" class="st3" points="417,79.3 425.5,79.3 425.5,92.4 437.3,92.3 437.3,79.3 445.5,79.3 445.6,112.1 
			437.6,112.1 437.6,98.1 425.4,98.1 425.5,112.2 417.1,112.2 		"/>
		<path id="XMLID_59_" class="st3" d="M450.1,79.3l8.6,0l0,21.3c0,0,0.1,6.2,6.3,6c6.1-0.2,5.4-5.9,5.4-5.9l0-21.4l8,0l0,24
			c0,0,0.3,8.8-13.3,9.1c-14.9,0.3-15.1-8.8-15.1-8.8L450.1,79.3z"/>
		<polygon id="XMLID_58_" class="st4" points="495.5,79.3 503.9,79.3 484.7,112.2 476.5,112.2 		"/>
		<polygon id="XMLID_57_" class="st3" points="505.5,79.3 514.1,79.3 514.2,112.2 505.4,112.2 505.4,102.9 495.1,102.9 495.1,97 
			505.5,96.9 		"/>
	</g>
	<polygon id="XMLID_56_" class="st5" points="260.4,293.8 313,293.8 313.1,301.9 278.7,302 278.7,316.1 308.5,316.1 308.5,324.2 
		278.7,324.2 278.7,345.7 260.4,345.7 	"/>
	<path id="XMLID_55_" class="st5" d="M390.1,306.5l0-9.6c0,0-8.7-5.3-27.3-3.9c-18.6,1.5-26.4,7.8-31.7,18.5
		c-5.1,10.7-1,24.2,17,31.4c18.1,7,37.9,1.4,43.2-3l0-11.1c0,0-6.3,7.9-20.2,8.2c-13.9,0.1-25.9-7.9-25.3-17.1
		c0.7-9.2,4.7-17.2,23.5-19.3C381.4,300.9,390.1,306.5,390.1,306.5"/>
	<path id="XMLID_54_" class="st5" d="M239.6,297.8l0,11c0,0-11.4-4.6-19.2-5.5c-4.2,0-10.2,0-10.2,0s-6.5,0.8-7.7,4.3
		c0,1.5,0.6,3.8,6.8,4.6c6.2,0.8,27,3.1,30.3,9.6c3.3,5.4,4.1,12-5.3,18.8c0,0-8.2,4.8-17.7,4.9c-9.5,0-13.4-0.1-13.4-0.1
		s-8.3-0.5-17.3-3.8l0-11.3c0,0,14.5,5.2,20.4,5.5c5.9,0.3,9.9,0.3,9.9,0.3s5.9-0.2,7.6-4c0-1.3,0.5-1,0-2.6
		c-1.4-1-0.5-1.9-11.1-3.5c-10.6-1.6-23.8-3.2-27.6-12.4c-0.8-1.8-0.5-4.5,0.2-8.5c2-3,5.5-9.9,22.8-11.1c8.2,0,12.4,0,12.4,0
		S230.7,294.3,239.6,297.8"/>
	<path id="XMLID_53_" class="st1" d="M209.7,191.8c0,0-5.5,2.7-3.2-4.3c0,0,9.1-14,11.1-14.1c2-0.1,5.5-1,7.5-0.1
		c2,0.9,2.3,1.3,1.6-0.1c-0.7-1.4-2.7-3-0.6-2.7c2.2,0.3,2.3,0,3.7,0.6c1.4,0.6,2.2-0.1-0.3-1.9c-2.5-1.7-1.3-2.4-0.1-3.6
		c1.1-1.1,2.3-2.4,3.6-2.4c1.3,0,3.8,0,4.6-0.3c0.9-0.3-0.2-5,4.9-7.4c5.1-2.4,13-5.6,19.9-7.4c6.9-1.9,19.2-4.7,23.5-4.7
		c4.3,0,11.8,0.9,21.6,3.8c9.8,3,13,0.1,20.2,1.4c7.2,1.3,9.7,3.4,13.3,2.4c3.6-1,4.3-2.3,4.3-2.3s2.6,4.7-1.3,9.4
		c-3.9,4.7-6.3,8.1-17.5,7.4c0,0,8.7-1.8,9.8-8.5c0,0-2,0.7-4.3,0.3c-2.3-0.4-9.4-3-17.2,1.7c0,0,3.3,10.8,17.3,9.3
		c0,0,8.2-0.1,12-5.5c0,0,27.1,6.4,42.4,30.2c0,0-41.4-19.1-56.3,0.7c0,0,12.4,17.4,5.9,30.2c-6.5,12.8-16.5,28.2-44.2,28.2
		c0,0,53.7-25.2,21.2-59.7c0,0,0.7-10.2,12.4-13.2c11.7-3,26.3-2.7,26.3-2.7s-38.8-12.4-62.9-5.6c-24.1,6.8-11.3,23.8-8.7,25.5
		c2.6,1.7,6.5,4.8,10.1,6.6c3.6,1.7,13,6.7,11.5,18.7c-1.4,12-6.2,24.5-12.6,30.8c0,0-7.1,1.3-10.2,8.1c-3.2,6.8-5.6,13.4-16.7,12.7
		c0,0-7.2,1.3-6.3-9.1c0.9-10.4-0.1-10-0.9-11.5c-0.7-1.6-0.7-4.1,2-3.7c2.7,0.4,6.6,1.7,10,1.7c3.3,0,9.7,0,12.1-3
		c2.5-3,7.2-10.3-1.6-22.8c-8.8-12.5-17-20.4-26-20.4c-8.9,0-12.3,4.3-18.9,14.7c0,0-10.7-9.7-15.3-14.7c-4.6-5-6.5-6.6-3.5-10.5
		c3-4,2.5-7.3,4-7.4c1.6-0.1,4,0.4,4.2-0.3c0.1-0.7-1.7-2.1-6.1-0.9c-4.3,1.3-3.9,2.8-5.3,4.7L209.7,191.8z"/>
	<path id="XMLID_52_" class="st1" d="M329.6,173.6c0,0-34.5-3.4-42.6,5.8c-8.1,9.3,7.4,17.9,10.8,21.4c3.5,3.4,9.4,7.4,8.1,18.1
		c-1.3,10.7-8.1,27.3-10.4,29.3c0,0,22.7-15.7,23.1-34.9c0,0,1.3-6.8-9.2-18.4c0,0-8.4-6.1,2.2-13.9
		C322.1,173.2,329.6,173.6,329.6,173.6"/>
	<path id="XMLID_51_" class="st1" d="M251.4,208.5c0,0-11.3,2-12.4,11.3c0,0,1.4,7.3,9.8,11.7C248.8,231.4,238.7,216.9,251.4,208.5"
		/>
	<path id="XMLID_50_" class="st1" d="M252.4,234.7c0,0,2.3,10.2,4.8,10.4c2.5,0.1,15.4,1.8,18.6,0.7c3.2-1.1,3.3-6,3.3-6.7
		c0-0.7-3,1-3,1l-3-1.8l-2.2,2.4c0,0-1.9-2.8-2.6-3.3c-0.7-0.4-1.9,4-4,4C264.2,241.4,258.9,243,252.4,234.7"/>
	<path id="XMLID_49_" class="st0" d="M252.5,161.3c0,0,6.9-4.8,14.9-4.8c0,0-6.9,5.6-9.4,9.9L252.5,161.3z"/>
	<g>
		<path class="st1" d="M502.1,590.1l1.7-4.2c1.5,0.5,2.7,0.5,3.7,0.1c1-0.4,1.8-1.2,2.5-2.5c0.7-1.3,0.9-2.4,0.7-3.4
			c-0.2-1-0.7-1.6-1.4-2c-0.5-0.3-1-0.3-1.4-0.2c-0.5,0.1-1,0.4-1.6,1c-0.4,0.4-1.3,1.3-2.6,2.8c-1.7,1.9-3.2,3.1-4.4,3.5
			c-1.8,0.7-3.4,0.6-5-0.3c-1-0.5-1.8-1.3-2.4-2.4c-0.6-1.1-0.8-2.2-0.7-3.6c0.1-1.3,0.6-2.8,1.4-4.3c1.3-2.5,2.9-4.1,4.7-4.8
			c1.8-0.7,3.6-0.6,5.5,0.3l-2,4.2c-1.1-0.4-2.1-0.4-2.8-0.1c-0.8,0.3-1.4,1.1-2,2.2c-0.6,1.2-0.9,2.2-0.7,3.2
			c0.1,0.6,0.4,1,0.9,1.3c0.5,0.3,1,0.3,1.5,0c0.7-0.3,1.8-1.3,3.3-3c1.5-1.7,2.8-2.9,3.8-3.6c1-0.7,2.1-1.1,3.2-1.1
			c1.1-0.1,2.4,0.2,3.6,0.9c1.2,0.6,2.1,1.5,2.7,2.7c0.7,1.2,0.9,2.5,0.8,3.9c-0.1,1.4-0.7,3-1.6,4.8c-1.3,2.5-3,4.2-4.9,4.9
			C506.7,591.1,504.5,591.1,502.1,590.1z"/>
		<path class="st1" d="M519.1,573.9l-20.1-10.6l2.1-4.1l20.1,10.6L519.1,573.9z"/>
		<path class="st1" d="M523.3,566l-20.1-10.6l2.1-4l17.8-1.1l-13.4-7.1l2-3.8l20.1,10.6l-2.2,4.1l-17.4,1.2l13.1,6.9L523.3,566z"/>
		<path class="st1" d="M533.4,528.9l3.3-3.3c1.9,1.8,3,3.6,3.3,5.6c0.3,2-0.1,4-1.2,6.2c-1.4,2.7-3.5,4.4-6.2,5.1
			c-2.7,0.8-5.7,0.3-8.8-1.4c-3.3-1.8-5.5-4-6.4-6.7c-0.9-2.7-0.7-5.5,0.8-8.3c1.3-2.5,3.1-4.1,5.3-4.8c1.3-0.5,2.9-0.5,4.8-0.1
			l-1.2,4.5c-1.2-0.3-2.3-0.3-3.3,0.2c-1,0.4-1.8,1.2-2.4,2.3c-0.8,1.5-0.9,3-0.3,4.5c0.6,1.5,2.1,2.9,4.5,4.1
			c2.5,1.3,4.6,1.8,6.2,1.5c1.6-0.3,2.7-1.2,3.5-2.7c0.6-1.1,0.7-2.2,0.4-3.3C535.4,531.2,534.7,530.1,533.4,528.9z"/>
		<path class="st1" d="M544.7,525.4l-20.1-10.6l7.9-14.9l3.4,1.8l-5.7,10.9l4.5,2.4l5.3-10.1l3.4,1.8l-5.3,10.1l5.5,2.9l5.9-11.2
			l3.4,1.8L544.7,525.4z"/>
		<path class="st1" d="M563.5,489.9l-2,3.9l-14.5-7.7c0.6,2.1,0.7,4.3,0.3,6.5l-3.5-1.8c0.2-1.2,0.2-2.6-0.1-4.3
			c-0.3-1.7-0.9-3-1.9-4.1l1.7-3.1L563.5,489.9z"/>
		<path class="st1" d="M561.9,481.6l1.6-3.9c0.8,0.3,1.5,0.4,2.1,0.2c0.6-0.2,1-0.6,1.4-1.2c0.4-0.8,0.4-1.7,0-2.6
			c-0.4-0.9-1.8-2.1-4-3.5c0.6,1.6,0.5,3.1-0.2,4.5c-0.8,1.6-2.2,2.6-4,3.1c-1.8,0.5-3.7,0.2-5.7-0.8c-2-1.1-3.4-2.6-4-4.4
			c-0.6-1.9-0.4-3.7,0.6-5.6c1.1-2,2.8-3.3,5-3.8c2.3-0.5,5.2,0.2,8.8,2.2c3.7,1.9,6,4,6.9,6.2c0.9,2.2,0.8,4.4-0.4,6.6
			c-0.8,1.6-1.9,2.6-3.3,3.2C565.3,482.2,563.7,482.2,561.9,481.6z M558.1,468.4c-1.2-0.7-2.4-0.9-3.3-0.7c-1,0.2-1.7,0.7-2.1,1.4
			c-0.4,0.7-0.4,1.5-0.1,2.2c0.3,0.8,1.1,1.5,2.4,2.2c1.3,0.7,2.4,0.9,3.3,0.7c0.9-0.2,1.5-0.7,1.9-1.4c0.4-0.7,0.4-1.5,0.1-2.3
			C559.9,469.7,559.2,469,558.1,468.4z"/>
		<path class="st1" d="M570.1,465.9l1.6-3.9c0.8,0.3,1.5,0.4,2.1,0.2c0.6-0.2,1-0.6,1.4-1.2c0.4-0.8,0.4-1.7,0-2.6
			c-0.4-0.9-1.8-2.1-4-3.5c0.6,1.6,0.5,3.1-0.2,4.5c-0.8,1.6-2.2,2.6-4,3.1c-1.8,0.5-3.7,0.2-5.7-0.8c-2-1.1-3.4-2.6-4-4.4
			c-0.6-1.9-0.4-3.7,0.6-5.6c1.1-2,2.8-3.3,5-3.8c2.3-0.5,5.2,0.2,8.8,2.2c3.7,1.9,6,4,6.9,6.2c0.9,2.2,0.8,4.4-0.4,6.6
			c-0.8,1.6-1.9,2.6-3.3,3.2C573.5,466.6,572,466.5,570.1,465.9z M566.3,452.8c-1.2-0.7-2.4-0.9-3.3-0.7c-1,0.2-1.7,0.7-2.1,1.4
			c-0.4,0.7-0.4,1.5-0.1,2.2c0.3,0.8,1.1,1.5,2.4,2.2c1.3,0.7,2.4,0.9,3.3,0.7c0.9-0.2,1.5-0.7,1.9-1.4c0.4-0.7,0.4-1.5,0.1-2.3
			C568.2,454.1,567.5,453.4,566.3,452.8z"/>
		<path class="st1" d="M577.6,450.2l1.5-4c1,0.4,1.9,0.4,2.7,0.2c0.8-0.3,1.4-0.8,1.8-1.5c0.4-0.8,0.5-1.6,0.2-2.5
			c-0.3-0.9-1-1.6-2-2.1c-1-0.5-1.9-0.7-2.7-0.4c-0.8,0.2-1.5,0.7-1.9,1.5c-0.3,0.5-0.5,1.1-0.6,1.9l-2.9-2.1c0.6-1,0.8-1.9,0.6-2.7
			c-0.2-0.8-0.7-1.4-1.5-1.8c-0.7-0.4-1.3-0.4-1.9-0.3c-0.6,0.2-1.1,0.6-1.5,1.3c-0.3,0.7-0.4,1.3-0.2,2c0.2,0.7,0.7,1.3,1.6,1.9
			l-2.5,3.2c-1.1-0.9-1.9-1.8-2.3-2.7c-0.5-0.9-0.7-1.9-0.6-3c0.1-1.1,0.4-2.2,1-3.3c1-1.9,2.4-3.1,4.2-3.6c1.5-0.4,2.9-0.3,4.1,0.4
			c1.8,0.9,2.7,2.6,2.7,5.1c0.9-1,1.9-1.7,3.1-1.9c1.2-0.2,2.4,0,3.7,0.6c1.8,0.9,2.9,2.4,3.5,4.3c0.6,1.9,0.3,3.9-0.7,5.8
			c-1,1.8-2.3,3.1-4,3.7C581.1,450.9,579.4,450.9,577.6,450.2z"/>
	</g>
	<path id="XMLID_37_" class="st0" d="M72,653.7l11.2-31.2c0,0,8.4,1.4,23.7,14.1c0,0-9.3,11-11.8,15.7c0,0-10.5,25.5,17.1,40.1
		c0,0,110.7,50.2,275.5,57.4c0,0,156.1,5.5,300.7-57.4c0,0,39.1-22.1,5.9-55.1c0,0,8.2-10.9,22.1-14.8c0,0,11.4,25.6,11.4,31.6
		c0,0,11.6-0.6,17.8-9.5c0,0,11.4-6.6-2-22.1c0,0-24.4-36-30.7-66c0,0-1.1-41.2-56.7-9.6c0,0-62.4,34.2-25.5,61c0,0,5.5,6.8,5.5,8.4
		c0,0-25.5,12.5-86.8,23c0,0-107.3,18.4-143.3,15.3c0,0-192.2-9.6-242-37.6c0,0,7.1-9.8,9.7-12.3c0,0,12.5-8.9,6.6-23.9
		c0,0-5.7-17.3-35.8-34.2c0,0-48.1-30.1-56.9,7.5c0,0-12.3,47.8-37.1,77.7C50.3,631.9,46,646,72,653.7z"/>
	<path id="XMLID_36_" class="st1" d="M698.6,642.1c0.7,8.9-1.2,15.4-2.8,22.5c-1.8,6.7-6.8,11.2-9.6,12.8
		c-43.4,24.7-108.7,39.8-155.9,48.1c-50.2,8.9-91,12.1-93,12.3l-40.6,0.9l-34-0.8c-2-0.2-42.9-3.4-93-12.3
		c-47.2-8.3-112.5-23.4-155.9-48.1c-2.8-1.6-7.4-6-9.3-11.2c-0.2-0.5-0.3-1-0.4-1.5c-1.1-5.3-2-13.6-1.9-22.6c0,0-3.5,4.3-6.3,8.5
		c0.2,3.8,1.4,10.4,2.2,15.3c0.1,0.5,0.2,1,0.3,1.5c1.8,7,9,13.5,12.2,15.3c44.1,25.1,110.2,40.4,157.9,48.8
		c51.5,9.1,93.3,12.3,93.7,12.3l37.8,0.8l37.6-0.9c0.4,0,42.1-3.2,93.7-12.3c47.7-8.4,113.7-23.7,157.9-48.8
		c3.2-1.8,10.3-8.1,12.2-15.3c2.6-10.5,2.5-17.3,2.5-17.3s-1.4-2.6-1.8-3.3C701.3,645.5,698.6,642.1,698.6,642.1z"/>
	<path id="XMLID_35_" class="st1" d="M744.1,632c0,0-33.1-47.8-34.3-69.2c0,0-0.2-2.7-2.4,1.9c0,0-7.3,8-8.2,8c0,0-4.3,0.5-2.7,2.7
		c0,0,25.1,34,34.3,74.4C730.8,649.8,749.7,641.4,744.1,632z"/>
	<path id="XMLID_34_" class="st1" d="M687.7,625.1c0,0,1.2,6.1,3.6,6.1c0,0,11.1-11.6,23.4-13.2l-2.6-7
		C712.2,611.1,693.9,614.5,687.7,625.1z"/>
	<path id="XMLID_33_" class="st1" d="M635.2,607.1l5.8,7.4c0,0,26.3-12.2,28-28c0,0,0.8-12-6.9-14c0,0-9.7-1.7-10.4,7
		C651.7,579.5,655.3,607.2,635.2,607.1z"/>
	<path id="XMLID_32_" class="st1" d="M629.9,603.4c0,0-10.3-14.3,14.8-33.1c0,0,43.2-38.1,64.2-15.4c0,0,0.5-1.1,0-6
		c0,0-5.1-13-28-6.5c0,0-35.4,11.3-50.2,31.4C630.7,573.9,611.5,594.2,629.9,603.4z"/>
	<path id="XMLID_31_" class="st1" d="M100.8,572.8c-0.9,0-8.2-8-8.2-8c-2.2-4.6-2.4-1.9-2.4-1.9c-1.2,21.4-34.3,69.2-34.3,69.2
		c-5.6,9.4,13.3,17.8,13.3,17.8c9.2-40.4,34.3-74.4,34.3-74.4C105.1,573.3,100.8,572.8,100.8,572.8z"/>
	<path id="XMLID_30_" class="st1" d="M108.7,631.4c2.4,0,3.6-6.1,3.6-6.1c-6.1-10.6-24.4-14-24.4-14l-2.6,7
		C97.6,619.8,108.7,631.4,108.7,631.4z"/>
	<path id="XMLID_29_" class="st1" d="M137.9,572.6c-7.7,2-6.9,14-6.9,14c1.7,15.7,28,28,28,28l5.8-7.4
		c-20.1,0.1-16.5-27.6-16.5-27.6C147.6,570.9,137.9,572.6,137.9,572.6z"/>
	<path id="XMLID_28_" class="st1" d="M155.3,570.4c25.1,18.8,14.8,33.1,14.8,33.1c18.4-9.2-0.8-29.5-0.8-29.5
		c-14.9-20.2-50.2-31.4-50.2-31.4c-22.9-6.5-28,6.5-28,6.5c-0.5,4.8,0,6,0,6C112.1,532.3,155.3,570.4,155.3,570.4z"/>
	<path id="XMLID_27_" class="st1" d="M127.6,594.1c-0.4-0.8-1.2-4.9-1.3-7.1c0,0-4.9,7.5-2.5,13.3c3.4,8,15.1,20.7,40.9,30.5l0.1,0
		c0.4,0.1,40.9,14.3,71.8,19c0.4,0.1,45.2,7.6,85,11.4c0.5,0,54.3,4.1,78.4,4.1v-0.2l0,0v0c24.1,0,77.9-4.1,78.4-4.1
		c39.8-3.8,84.6-11.3,85-11.4c30.9-4.8,71.4-18.9,71.8-19l0.1,0c25.7-9.8,37.5-22.5,40.9-30.5c2.5-5.8-2.5-13.3-2.5-13.3
		c-0.1,2.3-1,6.3-1.3,7.1c-1.9,4.6-10.3,19.9-39.3,31c-1.5,0.5-40.8,14.1-70.7,18.8c-0.5,0.1-45,7.5-84.6,11.4
		c-0.5,0-54,4.1-77.9,4.1v0h-3.3v0.1c-25.2-0.3-74.2-4-74.6-4.1c-39.5-3.8-84.1-11.3-84.6-11.4c-29.9-4.6-69.2-18.2-70.7-18.8
		C137.9,614.1,129.5,598.7,127.6,594.1z"/>
	<path id="XMLID_26_" class="st1" d="M608.6,677.4c0.5-1.2,0.6-2.6,0.3-4c-0.8-3.5-4-5.7-7.2-5c-0.8,0.2-1.4,0.5-2.1,0.9
		c-0.9-3.2-3.9-4.6-6.9-4c-3.1,0.7-5.1,3.8-4.7,7.1c-0.7-0.1-1.4-0.1-2.2,0c-3.3,0.7-4.4,3.7-3.6,7.2c0.3,1.4,1,2.6,2,3.5
		c-1.8,1.4-2.9,3.9-2.3,6.4c0.8,3.5,4.3,5.5,7.5,4.8c0.9-0.2,1.8-0.3,2.5-0.8l0,2l-10.9,1.8l-3.4-17.2l9.6-15.4l-9.7-7.6l-14.9,21.9
		l-0.2,0l4.8,22.4l0.9,4.2l39.7-9.2l-1.3-6.5c0.9,0.3,1,0.1,2-0.1c3.3-0.7,5.3-4.1,4.5-7.6C612.6,679.8,610.8,677.9,608.6,677.4z"/>
	<path id="XMLID_25_" class="st1" d="M239.1,687.6c1-0.9,1.8-2,2.2-3.4c0.9-3.4-1-6.9-4.3-7.8c-0.8-0.2-1.5-0.2-2.3-0.2
		c0.6-3.3-1.4-5.9-4.5-6.8c-3.2-0.9-6.4,1-7.6,4.1c-0.6-0.4-1.2-0.8-2-1c-3.3-0.9-5.7,1.3-6.6,4.7c-0.4,1.4-0.3,2.8,0.2,4
		c-2.3,0.4-4.4,2.1-5.1,4.6c-0.9,3.5,1.4,6.8,4.7,7.7c0.9,0.3,1.8,0.6,2.7,0.5l-1,1.8l-10.8-3.5l4.9-16.9l15.9-9.2l-5.3-11.2
		l-23.7,12.6l-0.2,0l-6,22.1l-1.1,4.1l40.6,10.3l1.8-6.3c0.7,0.7,0.9,0.6,1.9,0.9c3.3,0.9,6.8-1.2,7.7-4.7
		C241.6,691.6,240.8,689.1,239.1,687.6z"/>
	<path id="XMLID_24_" class="st1" d="M282.7,697.6l0.4-5.5l14.5,1.1l-1,13.2c-1.5,1.3-3.6,2.4-6.4,3.1c-2.7,0.9-5.5,1.3-8.1,1.1
		c-3.5-0.3-6.6-1.3-9.1-3c-2.5-1.6-4.2-3.9-5.4-6.6c-1-2.9-1.4-5.8-1.2-9.1c0.3-3.5,1.1-6.6,2.8-9.1c1.6-2.7,3.9-4.5,6.8-5.8
		c2.2-0.9,4.9-1.2,8.1-0.9c4.1,0.3,7.3,1.3,9.5,3.4c2.2,1.9,3.5,4.3,3.9,7.4l-6.7,0.7c-0.3-1.6-1.2-3-2.3-4c-1.3-1-2.8-1.6-4.8-1.8
		c-2.9-0.2-5.3,0.5-7.1,2.3c-2,1.7-3,4.4-3.3,8.1c-0.3,4,0.3,7,2,9.1c1.5,2.1,3.8,3.2,6.7,3.5c1.4,0.1,2.8-0.1,4.2-0.5
		c1.4-0.5,2.7-1,3.8-1.7l0.3-4.3L282.7,697.6z"/>
	<path class="st1" d="M326.5,708.8c-1.4-2.8-2.7-4.7-3.6-5.9c-0.9-1-2.1-2-3.4-3c2.9-0.2,5.1-1.2,6.8-2.8c1.4-1.5,2.3-3.7,2.4-6.2
		c0.1-2.1-0.3-3.8-1.1-5.4c-1-1.6-2.2-2.8-3.8-3.5c-1.5-0.7-4.1-1.1-7.6-1.3l-0.6,0l-13.5-0.7l-1.7,34.4l6.8,0.3l0.7-14.3l1.4,0.1
		c1.4,0.1,2.6,0.1,3.4,0.5c0.6,0.4,1.2,0.9,1.9,1.5c0.6,0.8,1.7,2.5,3.3,5.2l4.4,7.7l8.2,0.4L326.5,708.8z M314.8,695.1
		c-0.6,0-1.2-0.1-1.8-0.1l-4.9-0.2l0.4-8.7l5.2,0.3c0.5,0,1.1,0.1,1.5,0.1c1.7,0.1,2.9,0.1,3.4,0.3c1.1,0.2,1.8,0.7,2.4,1.4
		c0.6,0.8,0.8,1.8,0.8,2.9c0,1-0.4,1.9-0.7,2.5c-0.6,0.6-1.3,1.1-2.1,1.3C318.4,695.1,317,695,314.8,695.1z"/>
	<polygon id="XMLID_21_" class="st1" points="360.5,718 360.5,683.5 386.9,683.5 386.9,689.4 367.6,689.4 367.6,697 385.6,697 
		385.6,702.7 367.6,702.7 367.6,712.1 387.5,712.1 387.5,718 	"/>
	<polygon id="XMLID_20_" class="st1" points="332.3,716.9 333.2,682.5 357.6,683.1 357.5,688.9 339.6,688.5 339.4,696.1 
		356.1,696.5 355.9,702.2 339.3,701.8 339,711.2 357.5,711.6 357.4,717.5 	"/>
	<polygon id="XMLID_19_" class="st1" points="422.6,717.4 422.6,682.8 429.3,682.8 429.3,711.4 446.4,711.4 446.4,717.4 	"/>
	<path class="st1" d="M465.4,681.2l-3.5,0.2l-3.5,0.2l-10.9,34.1l7-0.4l2.3-7.7l6.5-0.4l6.5-0.4l3.3,7.4l7.3-0.4L465.4,681.2z
		 M463,701.6l-4.5,0.3l3.7-12.6l0.2,0.2l5.1,11.9L463,701.6z"/>
	<polygon id="XMLID_16_" class="st1" points="481.7,713 479.9,679.5 486.4,679.2 501.3,700.7 500.1,678.4 506.2,678.1 508.1,711.5 
		501.5,711.9 486.7,690.9 487.9,712.6 	"/>
	<polygon id="XMLID_15_" class="st1" points="391.6,717.4 391.6,683.6 397.9,683.6 411.1,706.1 411.1,683.6 417,683.5 417,717.4 
		410.6,717.4 397.6,695.4 397.6,717.4 	"/>
	<path class="st1" d="M538.4,683.1c-0.8-2-2.1-3.9-3.6-5.3c-1.7-1.3-3.4-2.3-5.5-2.8c-1.3-0.2-2.9-0.2-5-0.1c-0.5-0.1-1.1-0.1-1.6,0
		l-12.8,1l2.8,34.6l13.1-1.1c0.5,0,0.8-0.1,1.3-0.1c1.9-0.3,3.7-0.6,4.9-1.2c2-0.8,3.5-1.9,4.7-3.1c1.5-1.7,2.4-3.7,3.2-6.4
		c0.5-2.1,0.6-4.6,0.4-7.4C539.9,688,539.4,685.3,538.4,683.1z M532.9,697.9c-0.4,1.6-0.9,2.8-1.7,3.5c-0.6,0.7-1.5,1.4-2.6,1.6
		c-0.5,0.2-1.3,0.4-2.1,0.5c-0.6,0.1-1.4,0.1-2.2,0.2l-5.1,0.4l-1.8-22.8l3-0.2c1.8-0.1,3.2-0.3,4.3-0.2c0.6-0.1,1.1,0.1,1.4,0
		c1.3,0.2,2.5,0.6,3.3,1.3c1,0.7,1.8,1.8,2.3,3.2c0.6,1.4,0.9,3.4,1.1,6.2C533.2,694.1,533.2,696.4,532.9,697.9z"/>
	<g>
		<path class="st1" d="M154.2,671.8c-5.1-2.3-7.8-9.4-8.5-14.8c-0.1-1-0.2-2-0.3-3.1c0-0.1,0-0.1,0-0.2c-2.8,5.3-3.2,11.5-1.2,17.2
			c0.9,2.5,2.3,4.8,4,6.8c0.3-0.1,0.6-0.2,0.8-0.2C151.8,676.5,153.7,674.4,154.2,671.8z"/>
		<path class="st1" d="M181.6,664.1c-1.9-0.3-3.8,0.6-4.8,1.6c0.5,3.7-2.3,7.7-5,11c-2.7,3.3-7.6,6.3-11.4,8
			c3.8,0.7,7.6,0.4,11.3-0.9c7.3-2.6,12.6-9,13.9-16.7C184.5,665.4,183.2,664.3,181.6,664.1z"/>
		<path class="st1" d="M170.1,675.3c4.1-5,6.2-9,3.1-12.3c-0.8-0.8-2.3-1.8-4-1.7c-1.4,0.1-2.7,0.9-3.8,2.4c0.4,1.5,0,3.4-1,5
			c-1.1,1.8-2.7,3.1-4.3,3.5c-1.4,0.3-2.7,0.3-3.9,0.1c-0.7,3.2-3,5.7-6.3,7c2.1,1.9,4.5,3.4,7.1,4.3
			C161.4,682.2,167.3,678.8,170.1,675.3z"/>
		<path class="st1" d="M159.5,650.4c1.9-1.7,4.8-2.2,7.7-2.2c1.7,0,3.5,0.2,5,0.4c3.7,0.6,7.8,2.4,10.9,4.8
			c-4.9-9.2-15.9-13.6-25.9-10.1c-1,1.4-1.2,3-0.7,4.4C157.1,649.1,158.2,650.1,159.5,650.4z"/>
		<path class="st1" d="M149.3,662.7c2.2,5.7,6.1,8.6,10.4,7.6c1-0.2,2.1-1.2,2.9-2.4c0.7-1.2,1-2.4,0.9-3.4
			c-5.1-1.6-6.9-6.4-6.1-10.4c0.2-0.7,0.4-1.4,0.7-1.9c-1.5-0.6-2.6-1.8-3.3-3.3c-0.6-1.4-0.7-2.8-0.4-4.3c-2.9,1.5-5.4,3.6-7.3,6.2
			c0.1,0.8,0.2,1.5,0.2,2.3C147.8,656.4,148.1,659.5,149.3,662.7z"/>
		<path class="st1" d="M159.4,654.6c-0.6,3,0.7,6.6,4.5,7.9c1.4-1.9,3.2-3,5.2-3.1c2.5-0.2,4.6,1.2,5.7,2.3c0.5,0.6,1,1.2,1.3,1.8
			c1.2-0.8,2.9-1.5,4.8-1.5c0.3,0,0.6,0,0.8,0c1.5,0.2,2.9,0.8,4,2c0-1.9-0.2-3.8-0.7-5.7c-2.5-3.5-8.1-6.7-13.1-7.6
			C167.7,650.1,160.5,649.6,159.4,654.6z"/>
	</g>
	<g>
		<path class="st1" d="M661.7,655.4c0,0.1,0,0.2,0,0.3c-0.1,1-0.2,2-0.3,3c-0.7,5.4-3.4,12.5-8.5,14.8c0.5,2.6,2.4,4.7,5.2,5.7
			c0.3,0.1,0.5,0.2,0.8,0.2c1.8-2,3.1-4.3,4-6.8C664.9,666.9,664.5,660.7,661.7,655.4z"/>
		<path class="st1" d="M635.3,678.4c-2.7-3.3-5.5-7.3-5-11c-1-1-2.9-1.8-4.8-1.6c-1.6,0.2-3,1.3-3.9,3c1.3,7.6,6.6,14,13.9,16.7
			c3.6,1.3,7.5,1.6,11.3,0.9C642.9,684.6,638,681.7,635.3,678.4z"/>
		<path class="st1" d="M650.9,674.2c-1.2,0.2-2.5,0.2-3.9-0.1c-1.6-0.4-3.2-1.7-4.3-3.5c-1-1.7-1.4-3.5-1-5
			c-1.1-1.5-2.4-2.3-3.8-2.4c-0.1,0-0.2,0-0.3,0c-1.6,0-3,0.9-3.7,1.7c-3,3.3-0.9,7.3,3.1,12.3c2.8,3.5,8.7,6.8,13.1,8.4
			c2.6-1,5.1-2.4,7.1-4.3C653.9,679.9,651.6,677.4,650.9,674.2z"/>
		<path class="st1" d="M647.5,652.1c1.3-0.3,2.4-1.3,2.9-2.7c0.5-1.4,0.3-3-0.7-4.4c-2.3-0.8-4.6-1.2-6.9-1.2
			c-7.8,0-15.1,4.2-18.9,11.3c3.1-2.4,7.2-4.2,10.9-4.8C638.9,649.7,644.4,649.5,647.5,652.1z"/>
		<path class="st1" d="M649.7,655.8c0.9,4-0.9,8.8-6.1,10.4c-0.2,1,0.2,2.3,0.9,3.4c0.8,1.3,1.9,2.2,2.9,2.4c4.3,1,8.2-1.9,10.4-7.6
			c1.2-3.2,1.5-6.3,1.9-9.6c0.1-0.8,0.2-1.5,0.2-2.3c-1.9-2.6-4.4-4.7-7.3-6.2c0.4,1.4,0.3,2.9-0.4,4.3c-0.7,1.5-1.8,2.6-3.3,3.3
			C649.3,654.5,649.5,655.1,649.7,655.8z"/>
		<path class="st1" d="M631,665.2c0.3-0.6,0.7-1.3,1.3-1.8c1.1-1.2,3.2-2.5,5.7-2.3c2,0.1,3.8,1.2,5.2,3.1c3.8-1.3,5.1-4.9,4.5-7.9
			c-1.1-4.9-8.3-4.5-12.5-3.8c-5,0.8-10.6,4.1-13.1,7.6c-0.5,1.9-0.7,3.7-0.7,5.7c1.1-1.1,2.5-1.8,4-2
			C627.6,663.5,629.6,664.3,631,665.2z"/>
	</g>
</g>
</svg>
