<?xml version="1.0" encoding="utf-8"?>
<!-- Generator: Adobe Illustrator 22.1.0, SVG Export Plug-In . SVG Version: 6.00 Build 0)  -->
<svg version="1.1" id="图层_1" xmlns="http://www.w3.org/2000/svg" xmlns:xlink="http://www.w3.org/1999/xlink" x="0px" y="0px"
	 viewBox="0 0 800 800" style="enable-background:new 0 0 800 800;" xml:space="preserve">
<style type="text/css">
	.st0{fill:#FFFFFF;}
	.st1{fill:#0F5198;}
	.st2{fill:#CCCCCC;}
	.st3{fill:#CA101E;}
	.st4{fill:#115199;}
	.st5{fill:#CD0D24;}
	.st6{fill-rule:evenodd;clip-rule:evenodd;fill:#004DA0;}
	.st7{fill-rule:evenodd;clip-rule:evenodd;fill:#D7000F;}
	.st8{fill-rule:evenodd;clip-rule:evenodd;fill:#FFFFFF;}
</style>
<g>
	<g>
		<g>
			<g>
				<path class="st0" d="M599.2,94.4c0,0-85.9-41.3-199.2-41.3S200.8,94.4,200.8,94.4h-56.5c0,0,0,147,0,295.7s113,295.4,255.7,337
					c142.7-41.6,255.7-188.3,255.7-337s0-295.7,0-295.7H599.2z"/>
				<path class="st1" d="M400,58.1c57.9,0,108.3,11.1,140.5,20.4c34.9,10.1,56.4,20.3,56.6,20.4l1,0.5h1.1h51.5v290.7
					c0,70.6-26,143.6-73.3,205.6C530.7,657,467.7,701.8,400,721.9c-67.7-20.1-130.7-64.9-177.4-126.2
					c-47.3-62-73.3-135.1-73.3-205.6V99.4h51.5l1.1,0l1-0.5c0.2-0.1,21.7-10.3,56.6-20.4C291.7,69.1,342.1,58.1,400,58.1 M400,53.1
					c-113.3,0-199.2,41.3-199.2,41.3h-56.5c0,0,0,147,0,295.7s113,295.4,255.7,337c142.7-41.6,255.7-188.3,255.7-337
					s0-295.7,0-295.7h-56.5C599.2,94.4,513.3,53.1,400,53.1L400,53.1z"/>
				<path class="st2" d="M164.1,126.4v263.6c0,136.9,103.2,274.6,235.9,316.3C532.7,664.7,635.9,527,635.9,390.1V126.4H164.1z"/>
			</g>
			<path class="st0" d="M405,136.4h221v253.7c0,64-23.5,130.8-66.2,187.9c-40.8,54.7-95.6,95.7-154.8,116.3V136.4z"/>
			<polygon class="st3" points="405,349.5 518.3,136.4 462.7,136.4 405,245 			"/>
			<polygon class="st3" points="405,558.5 626,142.9 626,136.4 573.9,136.4 405,454 			"/>
			<path class="st4" d="M626,390.1V247.4L405,663.1v31.2c59.3-20.5,114-61.6,154.8-116.3C602.5,520.9,626,454.1,626,390.1z"/>
			<rect x="174" y="136.4" class="st4" width="221" height="221"/>
			<path class="st0" d="M174,367.3v22.8c0,64,23.5,130.8,66.2,187.9c40.8,54.7,95.6,95.7,154.8,116.3v-327H174z"/>
			<path class="st3" d="M247.7,587.7V367.3H174v22.8c0,64,23.5,130.8,66.2,187.9C242.7,581.3,245.2,584.5,247.7,587.7z"/>
			<path class="st4" d="M321.4,656.6c23.2,16,48,28.8,73.7,37.7v-327h-73.7V656.6z"/>
		</g>
		<g>
			<path class="st0" d="M217.2,233.3c-6.9-1.5-9.4-2.6-19.1-7.4c-7-3.5-16-15.1-18.9-19.2l-0.4-0.6l-0.5-0.5l-4.3-3.8v155.6h76.6
				v-88.5C250.7,246.5,228.8,235.8,217.2,233.3z"/>
			<path class="st4" d="M216,239.1c-7.6-1.7-10.6-3-20.5-7.9c-9.9-5-21.1-21.1-21.1-21.1l-0.3-0.3v147.6h70.7c0-20.4,0-72.7,0-88.5
				C244.7,249,223.6,240.8,216,239.1z"/>
			<path class="st0" d="M395,357.4V202.9l-3.7,2.5l-0.8,0.6l-0.6,0.8c-0.1,0.1-8.7,11.6-18,16.8c-8.5,4.8-15.5,7-21.2,8.9
				c-1,0.3-2,0.6-2.9,0.9c-6.8,2.3-12.6,5.7-17.2,10.3c-8.1,8-12.3,18.6-12.3,31.7v81.9H395z"/>
			<path class="st4" d="M395,357.4V210.1l-0.3,0.2c0,0-9.3,12.6-19.8,18.5c-10.6,5.9-19.2,8.3-25.1,10.2c-5.9,2-25.4,9.6-25.4,36.3
				c0,17.5,0,56.9,0,81.9H395z"/>
			<path class="st0" d="M310.7,254.5c-1.5,0.4-3.5,0.6-5.5,0.9c-4.3,0.6-9.2,1.2-13.2,3.3c-5.2,2.7-10.4,7.7-14.1,13.4
				c-2.2,3.4-6.7,10.4-27.1,10.4h-5.9v5.9v68.9h79.6v-87.7c0-2.1-1-6.4,1.8-15.4c0,0,3.1-6.7,2.4-13.5c-2,4.1-4.8,6.7-7.8,8.8
				C316.9,252.6,313.1,253.9,310.7,254.5z"/>
			<path class="st5" d="M294.7,264c-4.7,2.5-9.2,7.2-11.9,11.4c-2.7,4.2-8.8,13.1-32.1,13.1v68.9h67.7c0-27.2,0-85.3,0-87.7
				c0-3.2,1.7-10.7,5.6-17.3c0,0-6.8,6.7-12,7.9C306.8,261.5,299.4,261.5,294.7,264z"/>
		</g>
		<g>
			<path id="XMLID_88_" class="st6" d="M316.8,90c0,0-2.8-2.4-9.6-3.7c-6.9-1.4-8.8,1.7-8.9,2.8c-0.1,1,0.4,2.4,3,3.1
				c2.5,0.6,3.9,0.7,6.3,1.4c2.5,0.5,4.4,0.9,6.7,2.4c2.3,1.6,3.3,4,3.5,6.5c0.1,2.6-0.6,5.3-2.2,7c-1.6,1.8-4.2,3.6-8,4.3
				c-3.7,0.8-8.2,0.2-10.1-0.2c-1.9-0.5-6.6-2-6.6-2v-7.4c0,0,0.7,1.2,3.1,1.9c2.5,0.7,4.9,1.5,7,1.7c2.2,0.2,5.9,0.8,7.1-0.3
				c1.2-1.2,1.4-2.3,1.1-3.4c-0.3-1.2-1.1-1.5-2-2.2c-1-0.5-3.6-1.2-7-1.9c-3.5-0.9-3-0.6-4.3-1c-1.2-0.4-4.7-2.9-5.6-5.4
				c-1-2.5-1.3-5.5,1.4-9c2.5-3.2,9.8-4.7,14.2-4.4c4.3,0.3,10.9,2.7,10.9,2.7V90z"/>
			<polygon id="XMLID_87_" class="st6" points="321.6,81.3 330.2,81.3 330.2,94.2 341.7,94.2 341.7,81.2 349.9,81.2 349.9,113.8 
				342,113.8 342,99.9 330,99.9 330,113.8 321.7,113.8 			"/>
			<polygon id="XMLID_86_" class="st6" points="354.2,81.2 378.2,81.2 378.2,87.2 363.1,87.3 363.1,94.9 378,94.9 378,100.1 
				363,100.1 363,108.4 378,108.4 378,113.8 354.3,113.8 			"/>
			<polygon id="XMLID_85_" class="st6" points="411.8,81.2 411.9,113.7 402.5,113.7 390.1,93.7 390.1,113.7 383.6,113.8 383.6,81.2 
				391.1,81.2 405.1,102.9 405,81.2 			"/>
			<polygon id="XMLID_84_" class="st6" points="415.9,81.2 424.3,81.2 424.3,94.1 436,94.1 435.9,81.1 444.1,81.1 444.2,113.7 
				436.3,113.7 436.3,99.8 424.2,99.8 424.2,113.7 415.9,113.7 			"/>
			<path id="XMLID_83_" class="st6" d="M448.6,81.1l8.5,0l0,21.1c0,0,0.1,6.1,6.3,5.9c6.1-0.2,5.4-5.8,5.4-5.8l0-21.2l8,0l0,23.8
				c0,0,0.3,8.7-13.2,9.1c-14.8,0.3-15-8.7-15-8.7L448.6,81.1z"/>
			<polygon id="XMLID_82_" class="st7" points="493.7,81.2 502,81.2 482.9,113.7 474.9,113.8 			"/>
			<polygon id="XMLID_12_" class="st6" points="503.6,81.2 512.1,81.2 512.1,113.7 503.5,113.7 503.5,104.6 493.3,104.6 493.3,98.6 
				503.6,98.6 			"/>
		</g>
		<g>
			<g>
				<path class="st0" d="M500.2,588.9l1.7-4.1c1.4,0.5,2.7,0.5,3.7,0.1c1-0.4,1.8-1.2,2.5-2.4c0.7-1.3,0.9-2.4,0.7-3.4
					c-0.2-0.9-0.7-1.6-1.4-2c-0.5-0.2-0.9-0.3-1.4-0.2c-0.5,0.1-1,0.4-1.6,1c-0.4,0.4-1.3,1.3-2.6,2.8c-1.7,1.9-3.1,3-4.4,3.5
					c-1.7,0.6-3.4,0.6-5-0.3c-1-0.5-1.8-1.3-2.4-2.4c-0.6-1-0.8-2.2-0.7-3.6c0.1-1.3,0.6-2.8,1.4-4.3c1.3-2.5,2.9-4.1,4.6-4.8
					c1.8-0.7,3.6-0.6,5.4,0.3l-1.9,4.1c-1.1-0.4-2-0.4-2.8-0.1c-0.7,0.3-1.4,1.1-2,2.2c-0.6,1.2-0.9,2.2-0.7,3.1
					c0.1,0.6,0.4,1,0.9,1.3c0.5,0.2,1,0.3,1.5,0c0.7-0.3,1.8-1.3,3.3-3c1.5-1.7,2.7-2.9,3.7-3.6c1-0.7,2.1-1.1,3.2-1.1
					c1.1-0.1,2.3,0.2,3.6,0.9c1.1,0.6,2,1.5,2.7,2.6c0.7,1.2,0.9,2.4,0.8,3.9c-0.1,1.4-0.6,3-1.6,4.7c-1.3,2.5-2.9,4.1-4.8,4.9
					C504.7,590,502.6,589.9,500.2,588.9z"/>
				<path class="st0" d="M517,572.9l-19.9-10.5l2.1-4l19.9,10.5L517,572.9z"/>
				<path class="st0" d="M521.2,565l-19.9-10.5l2.1-3.9l17.6-1.1l-13.3-7l2-3.7l19.9,10.5l-2.1,4l-17.2,1.2l13,6.9L521.2,565z"/>
				<path class="st0" d="M531.2,528.3l3.3-3.2c1.9,1.7,3,3.6,3.3,5.5c0.3,1.9-0.1,4-1.2,6.1c-1.4,2.6-3.5,4.3-6.2,5.1
					c-2.7,0.7-5.6,0.3-8.8-1.4c-3.3-1.8-5.4-4-6.4-6.7c-0.9-2.7-0.7-5.4,0.8-8.2c1.3-2.4,3.1-4,5.3-4.8c1.3-0.5,2.9-0.5,4.7-0.1
					l-1.2,4.5c-1.2-0.3-2.2-0.2-3.2,0.2c-1,0.4-1.8,1.2-2.3,2.3c-0.8,1.5-0.9,3-0.3,4.4c0.6,1.5,2,2.8,4.4,4.1
					c2.5,1.3,4.6,1.8,6.1,1.5c1.5-0.3,2.7-1.2,3.5-2.7c0.6-1.1,0.7-2.2,0.4-3.3C533.2,530.5,532.5,529.4,531.2,528.3z"/>
				<path class="st0" d="M542.4,524.8l-19.9-10.5l7.8-14.8l3.4,1.8L528,512l4.4,2.3l5.3-10l3.4,1.8l-5.3,10l5.4,2.9l5.9-11.1
					l3.4,1.8L542.4,524.8z"/>
				<path class="st0" d="M561,489.6l-2,3.8l-14.4-7.6c0.6,2.1,0.7,4.2,0.3,6.5l-3.5-1.8c0.2-1.2,0.2-2.6-0.1-4.2
					c-0.3-1.7-0.9-3-1.9-4.1l1.6-3.1L561,489.6z"/>
				<path class="st0" d="M559.5,481.3l1.5-3.9c0.8,0.3,1.5,0.4,2,0.2c0.6-0.2,1-0.6,1.3-1.2c0.4-0.8,0.4-1.7,0-2.6
					c-0.4-0.9-1.8-2.1-4-3.4c0.6,1.5,0.5,3-0.2,4.5c-0.8,1.6-2.1,2.6-4,3.1c-1.8,0.5-3.7,0.2-5.6-0.8c-2-1.1-3.3-2.5-3.9-4.4
					c-0.6-1.9-0.4-3.7,0.6-5.6c1.1-2,2.7-3.3,5-3.7c2.2-0.5,5.2,0.2,8.7,2.1c3.6,1.9,5.9,4,6.8,6.2c0.9,2.2,0.8,4.4-0.4,6.6
					c-0.8,1.6-1.9,2.6-3.2,3.1C562.8,482,561.3,481.9,559.5,481.3z M555.7,468.3c-1.2-0.7-2.3-0.9-3.3-0.7c-1,0.2-1.7,0.7-2.1,1.4
					c-0.4,0.7-0.4,1.4-0.1,2.2c0.3,0.8,1.1,1.5,2.4,2.1c1.3,0.7,2.4,0.9,3.2,0.7c0.9-0.2,1.5-0.7,1.9-1.4c0.4-0.7,0.4-1.5,0.1-2.3
					C557.5,469.6,556.8,468.9,555.7,468.3z"/>
				<path class="st0" d="M567.6,465.8l1.5-3.9c0.8,0.3,1.5,0.4,2,0.2c0.6-0.2,1-0.6,1.3-1.2c0.4-0.8,0.4-1.7,0-2.6
					c-0.4-0.9-1.8-2.1-4-3.4c0.6,1.5,0.5,3-0.2,4.5c-0.8,1.6-2.1,2.6-4,3.1c-1.8,0.5-3.7,0.2-5.6-0.8c-2-1.1-3.3-2.5-3.9-4.4
					c-0.6-1.9-0.4-3.7,0.6-5.6c1.1-2,2.7-3.3,5-3.7c2.2-0.5,5.2,0.2,8.7,2.1c3.6,1.9,5.9,4,6.8,6.2c0.9,2.2,0.8,4.4-0.4,6.6
					c-0.8,1.6-1.9,2.6-3.2,3.1C571,466.5,569.4,466.4,567.6,465.8z M563.9,452.8c-1.2-0.7-2.3-0.9-3.3-0.7c-1,0.2-1.7,0.7-2.1,1.4
					c-0.4,0.7-0.4,1.4-0.1,2.2c0.3,0.8,1.1,1.5,2.4,2.1c1.3,0.7,2.4,0.9,3.2,0.7c0.9-0.2,1.5-0.7,1.9-1.4c0.4-0.7,0.4-1.5,0.1-2.3
					C565.7,454.1,565,453.4,563.9,452.8z"/>
				<path class="st0" d="M575,450.2l1.5-3.9c1,0.4,1.9,0.4,2.7,0.2c0.8-0.3,1.4-0.7,1.7-1.5c0.4-0.8,0.5-1.6,0.2-2.5
					c-0.3-0.9-1-1.6-2-2.1c-1-0.5-1.9-0.7-2.7-0.4c-0.8,0.2-1.4,0.7-1.8,1.4c-0.3,0.5-0.5,1.1-0.6,1.9l-2.9-2.1
					c0.6-1,0.8-1.9,0.6-2.7c-0.2-0.8-0.7-1.4-1.5-1.8c-0.7-0.4-1.3-0.4-1.9-0.2c-0.6,0.2-1.1,0.6-1.4,1.3c-0.3,0.7-0.4,1.3-0.2,2
					c0.2,0.7,0.7,1.3,1.5,1.9l-2.5,3.2c-1.1-0.9-1.8-1.8-2.3-2.6c-0.5-0.9-0.7-1.9-0.6-3c0.1-1.1,0.4-2.2,1-3.3
					c1-1.9,2.4-3.1,4.2-3.6c1.5-0.4,2.8-0.3,4.1,0.4c1.7,0.9,2.6,2.6,2.7,5.1c0.8-1,1.9-1.6,3.1-1.9c1.2-0.2,2.4,0,3.6,0.6
					c1.8,0.9,2.9,2.4,3.5,4.3c0.6,1.9,0.3,3.8-0.7,5.7c-1,1.8-2.3,3-3.9,3.7C578.5,450.9,576.8,450.9,575,450.2z"/>
			</g>
			<g>
				<path class="st0" d="M295.5,247.6c0,0,22.5-15.5,22.9-34.6c0,0,1.3-6.8-9.2-18.2c0,0-8.3-6.1,2.2-13.8
					c10.4-7.8,17.9-7.3,17.9-7.3s-34.2-3.4-42.2,5.8c-8,9.2,7.3,17.8,10.7,21.2c3.4,3.4,9.3,7.3,8,17.9
					C304.5,229.1,297.8,245.6,295.5,247.6z"/>
				<path class="st0" d="M251.7,208.2c0,0-11.2,2-12.3,11.2c0,0,1.4,7.2,9.7,11.6C249.1,230.9,239.1,216.5,251.7,208.2z"/>
				<path class="st0" d="M257.4,244.5c2.4,0.1,15.3,1.8,18.5,0.7c3.1-1.1,3.3-5.9,3.3-6.6c0-0.7-3,1-3,1l-3-1.8l-2.2,2.4
					c0,0-1.9-2.8-2.6-3.2c-0.7-0.4-1.9,4-4,4c0,0-5.3,1.6-11.7-6.6C252.7,234.2,255,244.3,257.4,244.5z"/>
				<path class="st0" d="M385.9,192.8c-15.2-23.6-42.1-29.9-42.1-29.9c-3.7,5.4-11.9,5.5-11.9,5.5c-13.9,1.6-17.2-9.2-17.2-9.2
					c7.7-4.7,14.7-2.1,17-1.7c2.3,0.4,4.3-0.3,4.3-0.3c-1.1,6.6-9.7,8.5-9.7,8.5c11,0.7,13.4-2.7,17.3-7.3c3.9-4.7,1.3-9.3,1.3-9.3
					s-0.7,1.3-4.3,2.3c-3.6,1-6-1.1-13.2-2.4c-7.2-1.3-10.3,1.6-20-1.4c-9.7-3-17.2-3.8-21.5-3.8c-4.3,0-16.5,2.8-23.3,4.7
					c-6.9,1.8-14.7,4.9-19.7,7.3c-5,2.4-4,7.1-4.9,7.3c-0.9,0.3-3.3,0.3-4.6,0.3c-1.3,0-2.4,1.3-3.6,2.4c-1.2,1.1-2.3,1.8,0.1,3.5
					c2.4,1.7,1.7,2.4,0.3,1.8c-1.4-0.6-1.6-0.3-3.7-0.6c-2.2-0.3-0.2,1.3,0.6,2.7c0.7,1.4,0.4,1-1.6,0.1c-2-0.8-5.4,0-7.4,0.1
					c-2,0.1-11,14-11,14c-2.3,6.9,3.1,4.2,3.1,4.2l1.4-1.8c1.4-1.8,1-3.4,5.3-4.7c4.3-1.3,6.1,0.1,6,0.8c-0.1,0.7-2.6,0.1-4.1,0.3
					c-1.6,0.1-1,3.4-4,7.3c-3,4-1.1,5.5,3.4,10.4c4.6,4.9,15.2,14.5,15.2,14.5c6.6-10.3,9.9-14.5,18.7-14.5c8.9,0,17,7.8,25.8,20.2
					c8.7,12.4,4,19.6,1.6,22.6c-2.4,3-8.7,3-12,3c-3.3,0-7.2-1.3-9.9-1.7c-2.7-0.4-2.7,2.1-2,3.7c0.7,1.5,1.7,1.1,0.9,11.4
					c-0.9,10.3,6.3,9,6.3,9c11,0.7,13.4-5.8,16.6-12.6c3.1-6.8,10.2-8,10.2-8c6.3-6.2,11-18.6,12.4-30.5
					c1.4-11.9-7.9-16.8-11.4-18.5c-3.6-1.7-7.4-4.8-10-6.5c-2.6-1.7-15.3-18.5,8.6-25.3c23.9-6.8,62.4,5.5,62.4,5.5
					s-14.4-0.3-26,2.7c-11.6,3-12.3,13.1-12.3,13.1c32.2,34.2-21,59.1-21,59.1c27.5,0,37.3-15.2,43.8-27.9
					c6.4-12.7-5.9-29.9-5.9-29.9C344.8,173.9,385.9,192.8,385.9,192.8z M258.2,166.4l-5.4-5c0,0,6.8-4.8,14.7-4.8
					C267.6,156.7,260.8,162.2,258.2,166.4z"/>
			</g>
			<g>
				<polygon id="XMLID_51_" class="st8" points="260.6,293.8 312.8,293.7 312.8,301.8 278.8,301.8 278.8,315.8 308.3,315.8 
					308.3,323.9 278.8,323.9 278.8,345.2 260.7,345.2 				"/>
				<path id="XMLID_50_" class="st8" d="M389.2,306.3l0-9.5c0,0-8.6-5.3-27-3.8c-18.5,1.5-26.2,7.7-31.4,18.4
					c-5,10.6-1,24,16.8,31.1c18,7,37.6,1.4,42.8-2.9l0-11c0,0-6.2,7.8-20,8.1c-13.8,0.1-25.7-7.8-25-17c0.7-9.2,4.7-17,23.3-19.1
					C380.6,300.8,389.2,306.3,389.2,306.3"/>
				<path id="XMLID_49_" class="st8" d="M240,297.7l0,11c0,0-11.3-4.6-19-5.5c-4.1,0-10.1,0-10.1,0s-6.5,0.8-7.7,4.3
					c0,1.5,0.6,3.8,6.8,4.6c6.2,0.8,26.8,3.1,30,9.5c3.2,5.4,4.1,11.9-5.2,18.7c0,0-8.2,4.8-17.6,4.8c-9.4,0-13.2-0.1-13.2-0.1
					s-8.3-0.5-17.2-3.8l0-11.2c0,0,14.3,5.1,20.2,5.5c5.9,0.3,9.8,0.3,9.8,0.3s5.8-0.2,7.6-3.9c0-1.3,0.5-0.9,0-2.6
					c-1.4-1-0.5-1.9-11-3.5c-10.5-1.6-23.5-3.2-27.4-12.3c-0.8-1.7-0.5-4.5,0.2-8.4c2-3,5.4-9.8,22.6-11c8.1,0,12.3,0,12.3,0
					S231.2,294.2,240,297.7"/>
			</g>
		</g>
	</g>
	<g>
		<path class="st4" d="M748.9,630.2c-2.7-6.7-12.6-17.1-22.5-42.9c-9.9-25.8-11.2-25.3-17.2-47.1c0,0-6.9-7.9-22.8-5.5
			c-15.9,2.5-72,30.7-68.1,56.5c1.2,7.9,10.8,11.4,10.8,11.4l6.7,12.1c0,0-81.6,37.9-235.9,37.9s-235.9-37.9-235.9-37.9l6.7-12.1
			c0,0,9.7-3.5,10.8-11.4c4-25.8-52.2-54-68.1-56.5c-15.9-2.5-22.8,5.5-22.8,5.5c-5.9,21.8-7.3,21.3-17.2,47.1
			c-9.9,25.8-19.7,36.2-22.5,42.9c-2.7,6.7,0,9.4,3.3,14.3c6.6,8.6,19,8.3,19,8.3c2.7-15.1,9.7-32,9.7-32
			c10.2,2.2,24.5,14.1,24.5,14.1c-7.9,5.9-25.8,37-1.3,51.5c24.4,14.5,147.4,60.5,293.7,60.5s269.3-45.9,293.7-60.5
			c24.4-14.5,6.6-45.6-1.3-51.5c0,0,14.4-11.9,24.5-14.1c0,0,6.9,16.8,9.7,32c0,0,12.4,0.3,19-8.3
			C748.9,639.6,751.6,636.9,748.9,630.2z"/>
		<g>
			<path class="st0" d="M124.5,590c-0.1-0.2-0.4-0.2-0.5,0.1l-1.3,7.8c-0.2,1.1,0.1,2.2,0.8,3.1c4.1,5.5,9.1,12.5,23.4,20.4
				c15.5,8.6,122.2,43.3,253.1,43.3s237.5-34.7,253.1-43.3c14.3-7.9,19.4-15,23.4-20.4c0.7-0.9,0.9-2,0.8-3.1l-1.3-7.8
				c0-0.2-0.4-0.3-0.5-0.1c-2,3.6-12.1,20.6-30,27.1c-20.2,7.3-114.1,40.6-245.5,40.6s-225.3-33.4-245.5-40.6
				C136.6,610.6,126.5,593.6,124.5,590z"/>
			<path class="st0" d="M105.9,571.5c-8.7-0.2-14.9-12.4-14.9-12.4c-21.9,57-30.3,63.4-32.8,66.6c-2.5,3.1-7.1,4.5-3.6,13
				c3.5,8.4,16.6,10.9,16.6,10.9C82.1,594.5,105.9,571.5,105.9,571.5z"/>
			<path class="st0" d="M110.3,631c1.2-1.2,1.6-3.5,1.8-5.1c0.1-1-0.4-2-1.2-2.6c-7.3-5.3-20.3-11.5-23.5-13.1
				c-0.5-0.3-1.2-0.2-1.7,0.2c-1.2,1.1-1.9,3-2.2,4.3c-0.2,0.7,0.2,1.4,0.9,1.6c11,3.5,21.3,12.1,24.1,14.6
				C108.9,631.5,109.7,631.5,110.3,631z"/>
			<path class="st0" d="M92.7,552.5c5.7-5,11.7-7.2,24.9-3.8c13.9,3.6,35,18.5,44.9,26.8c9.9,8.3,8.9,23.8,8.9,23.8
				c7.9-2,9.9-12.9-4-28.1c-13.9-15.2-45.9-29.4-56.8-30.4c-8.8-0.8-15.2,3.1-17.4,4.7c-0.5,0.4-0.8,0.9-0.9,1.6l-0.5,5.1
				C91.8,552.5,92.3,552.7,92.7,552.5z"/>
			<path class="st0" d="M141.1,568.7c-5.6-0.2-10.6,2.8-11.2,8.4c-0.5,4.4-0.7,10.7-0.8,13.3c0,0.7,0.2,1.4,0.6,2
				c11,15.7,30.6,22.9,30.6,22.9c1.5-4.1,3.9-7.5,5.5-9.6c0.7-0.9,0.2-2.2-1-2.3c-6.2-0.7-8.5-3.1-11.5-6.1
				c-3.5-3.5-3.8-15.4-3.6-19.3S146.8,568.8,141.1,568.7z"/>
			<path class="st0" d="M686.4,677.5c-8.9,4.5-120.4,58-286.4,58s-277.5-53.5-286.4-58c-8.9-4.5-16.8-15.4-11.9-31.2
				c0,0-7.4,9.7-5,19.6c2.5,9.9,13.4,17.3,22.8,21.1c9.4,3.7,114.5,54.5,280.5,54.5s271.1-50.8,280.5-54.5
				c9.4-3.7,20.3-11.2,22.8-21.1c2.5-9.9-5-19.6-5-19.6C703.3,662.2,695.4,673.1,686.4,677.5z"/>
			<path class="st0" d="M741.8,625.7c-2.5-3.1-10.9-9.6-32.8-66.6c0,0-6.2,12.1-14.9,12.4c0,0,23.8,23,34.7,78.1
				c0,0,13.1-2.5,16.6-10.9C748.9,630.2,744.3,628.8,741.8,625.7z"/>
			<path class="st0" d="M714.4,610.5c-0.4-0.4-1.1-0.5-1.7-0.2c-3.2,1.5-16.2,7.8-23.5,13.1c-0.8,0.6-1.3,1.6-1.2,2.6
				c0.1,1.6,0.5,3.8,1.8,5.1c0.5,0.5,1.3,0.5,1.9,0.1c2.8-2.5,13-11.1,24.1-14.6c0.7-0.2,1.1-0.9,0.9-1.6
				C716.2,613.5,715.5,611.5,714.4,610.5z"/>
			<path class="st0" d="M628.6,599.2c0,0-1-15.5,8.9-23.8s31.1-23.1,44.9-26.8c13.2-3.4,19.2-1.2,24.9,3.8c0.3,0.3,0.8,0,0.8-0.4
				l-0.5-5.1c-0.1-0.6-0.4-1.2-0.9-1.6c-2.2-1.6-8.6-5.5-17.4-4.7c-10.9,1-42.9,15.2-56.8,30.4C618.7,586.3,620.7,597.2,628.6,599.2
				z"/>
			<path class="st0" d="M635.1,603.3c-1.1,0.1-1.7,1.4-1,2.3c1.7,2.1,4,5.5,5.5,9.6c0,0,19.6-7.2,30.6-22.9c0.4-0.6,0.6-1.3,0.6-2
				c-0.1-2.5-0.3-8.9-0.8-13.3c-0.7-5.6-5.6-8.6-11.2-8.4c-5.6,0.2-8.8,5.3-8.6,9.3s-0.2,15.9-3.6,19.3
				C643.6,600.3,641.3,602.7,635.1,603.3z"/>
		</g>
	</g>
	<g>
		<path id="XMLID_100_" class="st0" d="M606.2,675.4c0.5-1.2,0.6-2.6,0.3-4c-0.7-3.4-4-5.7-7.2-5c-0.8,0.2-1.4,0.5-2,0.9
			c-0.9-3.2-3.8-4.6-6.9-4c-3.1,0.7-5.1,3.8-4.6,7c-0.7-0.1-1.4-0.1-2.2,0c-3.3,0.7-4.3,3.7-3.6,7.2c0.3,1.4,1,2.6,1.9,3.5
			c-1.7,1.4-2.8,3.9-2.3,6.3c0.8,3.5,4.2,5.4,7.5,4.7c0.9-0.2,1.8-0.3,2.5-0.8l0,2l-10.8,1.8l-3.4-17.1l9.5-15.3l-9.6-7.5
			l-14.7,21.8l-0.2,0l4.8,22.2l0.9,4.1l39.4-9.1l-1.3-6.4c0.9,0.3,1,0.1,2-0.1c3.3-0.7,5.3-4.1,4.5-7.6
			C610.2,677.8,608.4,676,606.2,675.4z"/>
		<path id="XMLID_99_" class="st0" d="M238,685.5c1-0.8,1.8-2,2.2-3.4c0.9-3.4-1-6.9-4.2-7.8c-0.8-0.2-1.5-0.2-2.3-0.2
			c0.6-3.2-1.4-5.9-4.5-6.7c-3.1-0.8-6.4,1-7.5,4.1c-0.6-0.4-1.2-0.8-2-1c-3.3-0.9-5.7,1.3-6.6,4.7c-0.4,1.4-0.3,2.8,0.2,4
			c-2.3,0.4-4.4,2.1-5,4.5c-0.9,3.5,1.4,6.8,4.6,7.7c0.9,0.3,1.8,0.6,2.6,0.5l-1,1.8l-10.7-3.4l4.8-16.7l15.7-9.1l-5.3-11.1
			l-23.5,12.5l-0.2,0l-5.9,21.9l-1.1,4.1l40.2,10.2l1.8-6.3c0.7,0.7,0.9,0.6,1.9,0.9c3.3,0.9,6.7-1.2,7.6-4.6
			C240.5,689.5,239.7,687,238,685.5z"/>
		<path id="XMLID_98_" class="st0" d="M280.2,695.5l0.4-5.5l14.3,1.1l-1,13.1c-1.5,1.3-3.6,2.4-6.4,3.1c-2.7,0.9-5.5,1.3-8,1.1
			c-3.5-0.3-6.5-1.3-9-3c-2.5-1.6-4.1-3.8-5.3-6.5c-1-2.8-1.4-5.8-1.2-9c0.3-3.5,1.1-6.5,2.8-9c1.6-2.6,3.9-4.5,6.7-5.8
			c2.2-0.9,4.9-1.2,8.1-0.9c4.1,0.3,7.3,1.3,9.4,3.3c2.2,1.8,3.5,4.3,3.9,7.3l-6.7,0.7c-0.3-1.6-1.1-3-2.3-4c-1.3-1-2.8-1.6-4.8-1.8
			c-2.9-0.2-5.3,0.5-7.1,2.2c-2,1.7-3,4.4-3.2,8c-0.3,4,0.2,6.9,1.9,9c1.5,2.1,3.7,3.2,6.7,3.4c1.4,0.1,2.8-0.1,4.2-0.5
			c1.4-0.5,2.7-1,3.8-1.7l0.3-4.3L280.2,695.5z"/>
		<path class="st0" d="M324.6,706.6c-1.4-2.8-2.7-4.7-3.5-5.8c-0.9-1-2-2-3.4-3c2.9-0.2,5.1-1.2,6.7-2.8c1.4-1.5,2.3-3.7,2.4-6.2
			c0.1-2-0.3-3.8-1.1-5.4c-1-1.6-2.2-2.8-3.8-3.5c-1.5-0.7-4.1-1.1-7.6-1.3l-0.6,0l-13.4-0.7l-1.7,34.1l6.7,0.3l0.7-14.1l1.4,0.1
			c1.4,0.1,2.6,0.1,3.3,0.5c0.6,0.3,1.2,0.9,1.9,1.5c0.6,0.8,1.7,2.4,3.3,5.2l4.4,7.6l8.1,0.4L324.6,706.6z M313.1,693
			c-0.6,0-1.2-0.1-1.8-0.1l-4.9-0.2l0.4-8.6l5.2,0.3c0.5,0,1.1,0.1,1.5,0.1c1.7,0.1,2.9,0.1,3.4,0.3c1.1,0.2,1.8,0.7,2.4,1.4
			c0.6,0.8,0.8,1.8,0.8,2.9c0,1-0.4,1.9-0.7,2.5c-0.6,0.6-1.3,1-2,1.3C316.6,693,315.2,692.9,313.1,693z"/>
		<polygon id="XMLID_95_" class="st0" points="358.4,715.7 358.4,681.5 384.5,681.5 384.5,687.4 365.4,687.4 365.4,694.9 
			383.2,694.9 383.2,700.6 365.4,700.6 365.4,709.8 385.1,709.8 385.1,715.7 		"/>
		<polygon id="XMLID_94_" class="st0" points="330.4,714.6 331.2,680.5 355.5,681.1 355.3,686.9 337.6,686.4 337.4,694 353.9,694.4 
			353.8,700 337.3,699.6 337.1,708.9 355.4,709.4 355.2,715.2 		"/>
		<polygon id="XMLID_93_" class="st0" points="419.9,715.1 419.9,680.8 426.6,680.8 426.6,709.2 443.5,709.2 443.5,715.1 		"/>
		<path class="st0" d="M462.3,679.3l-3.4,0.2l-3.5,0.2l-10.8,33.8l6.9-0.4l2.3-7.7l6.5-0.4l6.4-0.4l3.3,7.3l7.2-0.4L462.3,679.3z
			 M459.9,699.4l-4.5,0.2l3.7-12.5l0.2,0.2l5,11.8L459.9,699.4z"/>
		<polygon id="XMLID_90_" class="st0" points="479,710.7 477.1,677.5 483.6,677.2 498.4,698.6 497.2,676.4 503.3,676.1 505.1,709.2 
			498.5,709.6 483.9,688.8 485.1,710.4 		"/>
		<polygon id="XMLID_89_" class="st0" points="389.2,715.1 389.2,681.5 395.4,681.5 408.5,703.9 408.5,681.5 414.3,681.5 
			414.3,715.1 408,715.1 395.1,693.3 395.1,715.1 		"/>
		<path class="st0" d="M534.7,681.1c-0.8-2-2.1-3.8-3.6-5.3c-1.7-1.3-3.4-2.3-5.5-2.8c-1.3-0.2-2.9-0.2-5-0.1
			c-0.5-0.1-1.1-0.1-1.6,0l-12.7,1l2.8,34.3l13-1c0.5,0,0.8-0.1,1.3-0.1c1.9-0.3,3.6-0.6,4.8-1.2c2-0.8,3.5-1.9,4.7-3.1
			c1.5-1.7,2.4-3.7,3.1-6.3c0.5-2.1,0.6-4.5,0.4-7.4C536.2,685.9,535.6,683.2,534.7,681.1z M529.2,695.7c-0.3,1.6-0.9,2.8-1.6,3.5
			c-0.6,0.7-1.5,1.4-2.6,1.6c-0.5,0.2-1.2,0.4-2,0.5c-0.6,0.1-1.4,0.1-2.2,0.2l-5.1,0.4l-1.8-22.6l3-0.2c1.7-0.1,3.2-0.3,4.3-0.2
			c0.6-0.1,1.1,0.1,1.4,0c1.3,0.2,2.4,0.6,3.3,1.3c1,0.7,1.7,1.8,2.3,3.2c0.6,1.4,0.9,3.4,1.1,6.1
			C529.5,692,529.5,694.3,529.2,695.7z"/>
		<g>
			<path class="st0" d="M152.9,669.9c-5.1-2.3-7.7-9.3-8.4-14.7c-0.1-1-0.2-2-0.3-3c0-0.1,0-0.1,0-0.2c-2.8,5.3-3.2,11.4-1.2,17.1
				c0.9,2.5,2.3,4.8,4,6.8c0.3-0.1,0.5-0.1,0.8-0.2C150.5,674.6,152.3,672.5,152.9,669.9z"/>
			<path class="st0" d="M180,662.3c-1.9-0.3-3.7,0.6-4.8,1.5c0.5,3.7-2.2,7.6-5,10.9c-2.7,3.3-7.6,6.2-11.3,7.9
				c3.7,0.7,7.6,0.4,11.2-0.9c7.2-2.6,12.5-8.9,13.7-16.5C182.9,663.5,181.6,662.5,180,662.3z"/>
			<path class="st0" d="M168.7,673.4c4-4.9,6.1-8.9,3.1-12.2c-0.8-0.8-2.3-1.8-4-1.7c-1.4,0.1-2.7,0.9-3.8,2.4c0.4,1.5,0,3.3-1,5
				c-1.1,1.8-2.7,3.1-4.3,3.5c-1.3,0.3-2.6,0.3-3.9,0.1c-0.7,3.2-3,5.7-6.3,6.9c2,1.9,4.5,3.3,7.1,4.3
				C160,680.2,165.9,676.8,168.7,673.4z"/>
			<path class="st0" d="M158.2,648.7c1.9-1.7,4.8-2.2,7.7-2.2c1.7,0,3.4,0.2,5,0.4c3.7,0.6,7.7,2.4,10.8,4.8
				c-4.9-9.1-15.7-13.4-25.6-10c-1,1.4-1.2,2.9-0.7,4.4C155.8,647.4,156.8,648.4,158.2,648.7z"/>
			<path class="st0" d="M148,660.8c2.2,5.7,6,8.5,10.3,7.6c1-0.2,2.1-1.1,2.9-2.4c0.7-1.1,1-2.4,0.9-3.4c-5.1-1.6-6.9-6.4-6-10.3
				c0.2-0.7,0.4-1.3,0.7-1.9c-1.4-0.6-2.6-1.8-3.3-3.2c-0.6-1.3-0.7-2.8-0.4-4.2c-2.8,1.5-5.3,3.6-7.2,6.1c0.1,0.8,0.2,1.5,0.2,2.3
				C146.5,654.6,146.8,657.7,148,660.8z"/>
			<path class="st0" d="M158.1,652.8c-0.6,2.9,0.7,6.5,4.4,7.8c1.4-1.9,3.2-2.9,5.2-3.1c2.5-0.2,4.6,1.2,5.6,2.3
				c0.5,0.6,1,1.2,1.3,1.8c1.2-0.8,2.9-1.5,4.7-1.5c0.3,0,0.6,0,0.8,0c1.5,0.2,2.9,0.8,4,1.9c0-1.9-0.2-3.8-0.7-5.6
				c-2.5-3.5-8.1-6.7-13-7.5C166.3,648.3,159.1,647.9,158.1,652.8z"/>
		</g>
		<g>
			<path class="st0" d="M658.9,653.6c0,0.1,0,0.2,0,0.3c-0.1,1-0.2,2-0.3,3c-0.7,5.4-3.3,12.4-8.4,14.7c0.5,2.6,2.4,4.6,5.1,5.6
				c0.3,0.1,0.5,0.2,0.8,0.2c1.7-2,3.1-4.3,4-6.8C662.1,665.1,661.6,658.9,658.9,653.6z"/>
			<path class="st0" d="M632.7,676.4c-2.7-3.3-5.4-7.2-5-10.9c-1-1-2.9-1.8-4.8-1.5c-1.6,0.2-3,1.3-3.9,3
				c1.3,7.6,6.5,13.9,13.7,16.5c3.6,1.3,7.5,1.6,11.2,0.9C640.3,682.6,635.4,679.7,632.7,676.4z"/>
			<path class="st0" d="M648.1,672.2c-1.2,0.2-2.5,0.2-3.9-0.1c-1.6-0.4-3.2-1.7-4.3-3.5c-1-1.7-1.4-3.5-1-5
				c-1.1-1.5-2.3-2.3-3.8-2.4c-0.1,0-0.2,0-0.3,0c-1.6,0-3,0.9-3.7,1.7c-3,3.3-0.9,7.2,3.1,12.2c2.8,3.4,8.6,6.8,13,8.3
				c2.6-0.9,5-2.4,7.1-4.3C651.1,677.9,648.8,675.4,648.1,672.2z"/>
			<path class="st0" d="M644.8,650.4c1.3-0.3,2.4-1.3,2.9-2.6c0.5-1.4,0.3-3-0.7-4.4c-2.3-0.8-4.6-1.2-6.9-1.2
				c-7.7,0-15,4.2-18.7,11.2c3.1-2.4,7.2-4.2,10.8-4.8C636.3,648,641.7,647.8,644.8,650.4z"/>
			<path class="st0" d="M646.9,654c0.9,3.9-0.9,8.7-6,10.3c-0.2,1,0.2,2.2,0.9,3.4c0.8,1.3,1.9,2.2,2.9,2.4c4.3,1,8.1-1.9,10.3-7.6
				c1.2-3.1,1.5-6.2,1.8-9.5c0.1-0.8,0.2-1.5,0.2-2.3c-1.9-2.6-4.4-4.7-7.2-6.1c0.4,1.4,0.2,2.9-0.4,4.2c-0.7,1.5-1.8,2.6-3.3,3.2
				C646.5,652.7,646.8,653.3,646.9,654z"/>
			<path class="st0" d="M628.4,663.4c0.3-0.6,0.7-1.2,1.3-1.8c1.1-1.2,3.2-2.5,5.6-2.3c2,0.1,3.8,1.2,5.2,3.1
				c3.7-1.3,5.1-4.9,4.4-7.8c-1.1-4.9-8.2-4.5-12.4-3.8c-4.9,0.8-10.5,4-13,7.5c-0.5,1.8-0.7,3.7-0.7,5.6c1.1-1.1,2.5-1.8,4-1.9
				C625,661.6,627.1,662.4,628.4,663.4z"/>
		</g>
	</g>
</g>
</svg>
