<?xml version="1.0" encoding="utf-8"?>
<!-- Generator: Adobe Illustrator 22.1.0, SVG Export Plug-In . SVG Version: 6.00 Build 0)  -->
<svg version="1.1" id="图层_1" xmlns="http://www.w3.org/2000/svg" xmlns:xlink="http://www.w3.org/1999/xlink" x="0px" y="0px"
	 viewBox="0 0 800 800" style="enable-background:new 0 0 800 800;" xml:space="preserve">
<style type="text/css">
	.st0{fill:#115199;}
</style>
<g>
	<polygon class="st0" points="459.1,687.2 455.4,699.7 459.9,699.4 464.3,699.2 459.2,687.4 	"/>
	<path class="st0" d="M528.2,683.4c-0.6-1.4-1.3-2.5-2.3-3.2c-0.9-0.7-2-1.1-3.3-1.3c-0.3,0-0.8-0.1-1.4,0c-1.1-0.1-2.5,0.1-4.3,0.2
		l-3,0.2l1.8,22.6l5.1-0.4c0.8-0.1,1.6-0.1,2.2-0.2c0.8-0.1,1.6-0.3,2-0.5c1.1-0.2,2-0.9,2.6-1.6c0.7-0.7,1.3-1.9,1.6-3.5
		c0.4-1.5,0.3-3.7,0.1-6.2C529.1,686.8,528.8,684.8,528.2,683.4z"/>
	<path class="st0" d="M316.8,684.7c-0.4-0.2-1.7-0.2-3.4-0.3c-0.4,0-1.1-0.1-1.5-0.1l-5.2-0.3l-0.4,8.6l4.9,0.2
		c0.6,0,1.2,0.1,1.8,0.1c2.2,0,3.5,0,4.2-0.3c0.8-0.3,1.4-0.7,2-1.3c0.3-0.6,0.7-1.5,0.7-2.5c0.1-1.1-0.2-2.1-0.8-2.9
		C318.6,685.4,317.9,684.9,316.8,684.7z"/>
	<path class="st0" d="M748.9,630.2c-2.7-6.7-12.6-17.1-22.5-42.9c-9.9-25.8-11.2-25.3-17.2-47.1c0,0-6.9-7.9-22.8-5.5
		c-15.9,2.5-72,30.7-68.1,56.5c1.2,7.9,10.8,11.4,10.8,11.4l6.7,12.1c0,0-32.6,15.1-95.5,26.3c1.4-0.3,2.9-0.5,4.3-0.8
		c67.4-66.1,111.1-157.8,111.1-250.3c0-148.7,0-295.7,0-295.7h-56.5c0,0-85.9-41.3-199.2-41.3S200.8,94.4,200.8,94.4h-56.5
		c0,0,0,147,0,295.7c0,92.4,43.7,184.1,111.1,250.3c1.4,0.3,2.9,0.5,4.3,0.8c-62.9-11.1-95.5-26.3-95.5-26.3l6.7-12.1
		c0,0,9.7-3.5,10.8-11.4c4-25.8-52.2-54-68.1-56.5c-15.9-2.5-22.8,5.5-22.8,5.5c-5.9,21.8-7.3,21.3-17.2,47.1
		c-9.9,25.8-19.7,36.2-22.5,42.9c-2.7,6.7,0,9.4,3.3,14.3c6.6,8.6,19,8.3,19,8.3c2.7-15.1,9.7-32,9.7-32
		c10.2,2.2,24.5,14.1,24.5,14.1c-7.9,5.9-25.8,37-1.3,51.5c24.4,14.5,147.4,60.5,293.7,60.5s269.3-45.9,293.7-60.5
		c24.4-14.5,6.6-45.6-1.3-51.5c0,0,14.4-11.9,24.5-14.1c0,0,6.9,16.8,9.7,32c0,0,12.4,0.3,19-8.3
		C748.9,639.6,751.6,636.9,748.9,630.2z M628.6,599.2c-7.9-2-9.9-12.9,4-28.1c13.9-15.2,45.9-29.4,56.8-30.4
		c8.8-0.8,15.2,3.1,17.4,4.7c0.5,0.4,0.8,0.9,0.9,1.6l0.5,5.1c0,0.4-0.5,0.7-0.8,0.4c-5.7-5-11.7-7.2-24.9-3.8
		c-13.9,3.6-35,18.5-44.9,26.8S628.6,599.2,628.6,599.2z M634.2,605.7c-0.7-0.9-0.2-2.2,1-2.3c6.2-0.7,8.5-3.1,11.5-6.1
		c3.5-3.5,3.8-15.4,3.6-19.3s3-9.1,8.6-9.3c5.6-0.2,10.6,2.8,11.2,8.4c0.5,4.4,0.7,10.7,0.8,13.3c0,0.7-0.2,1.4-0.6,2
		c-11,15.7-30.6,22.9-30.6,22.9C638.2,611.2,635.8,607.8,634.2,605.7z M222.6,595.7c-47.3-62-73.3-135.1-73.3-205.6V99.4h51.5l1.1,0
		l1-0.5c0.2-0.1,21.7-10.3,56.6-20.4c32.2-9.3,82.6-20.4,140.5-20.4c57.9,0,108.3,11.1,140.5,20.4c34.9,10.1,56.4,20.3,56.6,20.4
		l1,0.5h1.1h51.5v290.7c0,70.6-26,143.6-73.3,205.6c-12.7,16.7-26.6,32.1-41.5,46.2c-8.4,1.4-17.4,2.8-26.9,4
		c76.1-63.4,126.8-159.8,126.8-255.8V126.4H164.1v263.6c0,96,50.8,192.4,126.8,255.8c-9.5-1.2-18.5-2.6-26.9-4
		C249.2,627.8,235.3,612.4,222.6,595.7z M540.3,641.1c-1.4,0.3-2.9,0.5-4.4,0.8C537.4,641.6,538.9,641.4,540.3,641.1z M247.7,587.7
		c-2.5-3.2-5-6.4-7.5-9.7C197.5,520.9,174,454.1,174,390.1v-22.8h73.7L247.7,587.7L247.7,587.7z M174,357.4V209.7l0.3,0.3
		c0,0,11.2,16.2,21.1,21.1c9.9,5,12.9,6.3,20.5,7.9c7.6,1.7,28.7,9.9,28.7,29.7c0,15.8,0,68.1,0,88.5H174z M395,357.4h-70.7
		c0-25.1,0-64.4,0-81.9c0-26.8,19.5-34.4,25.4-36.3c5.9-2,14.5-4.3,25.1-10.2c10.6-5.9,19.8-18.5,19.8-18.5l0.3-0.2V357.4z
		 M395,202.9l-3.7,2.5l-0.8,0.6l-0.6,0.8c-0.1,0.1-8.7,11.6-18,16.8c-8.5,4.8-15.5,7-21.2,8.9c-1,0.3-2,0.6-2.9,0.9
		c-6.8,2.3-12.6,5.7-17.2,10.3c-0.8,0.8-1.5,1.6-2.3,2.4c0.2-1.7,0.3-3.5,0.1-5.3c-2,4.1-4.8,6.7-7.8,8.8c-3.9,3-7.7,4.2-10.1,4.8
		c-1.5,0.4-3.5,0.6-5.5,0.9c-4.3,0.6-9.2,1.2-13.2,3.3c-5.2,2.7-10.4,7.7-14.1,13.4c-2.2,3.4-6.7,10.4-27.1,10.4v-13.7
		c0-22.4-21.9-33-33.4-35.5c-6.9-1.5-9.4-2.6-19.1-7.4c-7-3.5-16-15.1-18.9-19.2l-0.4-0.6l-0.5-0.5l-4.3-3.8v-65.5h221V202.9z
		 M250.7,288.5c23.4,0,29.4-8.9,32.1-13.1c2.7-4.2,7.2-8.9,11.9-11.4c4.7-2.5,12.1-2.5,17.3-3.7c5.2-1.2,12-7.9,12-7.9
		c-3.9,6.7-5.6,14.1-5.6,17.3c0,2.5,0,60.5,0,87.7h-67.7V288.5z M302.6,647.4L302.6,647.4c1.2,0.1,2.4,0.3,3.6,0.4
		c-5.2-0.6-10.3-1.2-15.2-1.8c0,0,0,0,0,0C294.8,646.4,298.7,646.9,302.6,647.4z M316.1,648.8c-1-0.1-2-0.2-3-0.3
		C314.1,648.6,315.1,648.7,316.1,648.8z M311,648.3c-1.1-0.1-2.2-0.2-3.3-0.3C308.8,648,309.9,648.2,311,648.3z M321.4,649.3
		L321.4,649.3l0-282H395v285.4c-27.9-0.1-53.4-1.5-76.4-3.7C319.6,649.1,320.5,649.2,321.4,649.3z M462.7,136.4h55.6L405,349.5V245
		L462.7,136.4z M573.9,136.4H626v6.5L405,558.5V454L573.9,136.4z M405.7,652.7c1.6,0,3.2,0,4.8,0L626,247.4v142.7
		c0,64-23.5,130.8-66.2,187.9c-20.1,27-43.7,50.6-69.4,70.1c-26.6,2.8-56.8,4.6-90.4,4.6C401.9,652.7,403.8,652.7,405.7,652.7z
		 M490.4,648.1c1-0.1,1.9-0.2,2.9-0.3c0.8-0.1,1.5-0.2,2.3-0.3c1.1-0.1,2.2-0.3,3.3-0.4c0.1,0,0.2,0,0.2,0
		C496.2,647.5,493.3,647.8,490.4,648.1C490.4,648.1,490.4,648.1,490.4,648.1z M509,645.9c-1.4,0.2-2.7,0.4-4.1,0.5
		C506.3,646.3,507.7,646.1,509,645.9z M504.1,646.6c-1.2,0.2-2.4,0.3-3.7,0.4C501.6,646.9,502.8,646.7,504.1,646.6z M264,641.9
		c-1.5-0.3-2.9-0.5-4.4-0.8C261.1,641.4,262.6,641.6,264,641.9z M400,657.7c131.3,0,225.3-33.4,245.5-40.6c18-6.5,28.1-23.5,30-27.1
		c0.1-0.2,0.4-0.2,0.5,0.1l1.3,7.8c0.2,1.1-0.1,2.2-0.8,3.1c-4.1,5.5-9.1,12.5-23.4,20.4c-15.5,8.6-122.2,43.3-253.1,43.3
		s-237.5-34.7-253.1-43.3c-14.3-7.9-19.4-15-23.4-20.4c-0.7-0.9-0.9-2-0.8-3.1l1.3-7.8c0-0.2,0.4-0.3,0.5-0.1
		c2,3.6,12.1,20.6,30,27.1C174.7,624.3,268.7,657.7,400,657.7z M649.8,644.6c2.8,1.5,5.3,3.6,7.2,6.1c-0.1,0.8-0.2,1.5-0.2,2.3
		c-0.3,3.3-0.7,6.3-1.8,9.5c-2.2,5.7-6,8.5-10.3,7.6c-1-0.2-2.1-1.1-2.9-2.4c-0.7-1.1-1-2.4-0.9-3.4c5.1-1.6,6.9-6.4,6-10.3
		c-0.2-0.7-0.4-1.3-0.7-1.9c1.4-0.6,2.6-1.8,3.3-3.2C650.1,647.6,650.2,646.1,649.8,644.6z M647.7,647.8c-0.5,1.3-1.6,2.3-2.9,2.6
		c-3.1-2.6-8.5-2.4-12.6-1.7c-3.7,0.6-7.7,2.4-10.8,4.8c3.7-7,11.1-11.2,18.7-11.2c2.3,0,4.6,0.4,6.9,1.2
		C648,644.8,648.2,646.4,647.7,647.8z M632.5,650.7c4.2-0.7,11.3-1.1,12.4,3.8c0.6,2.9-0.7,6.5-4.4,7.8c-1.4-1.9-3.2-2.9-5.2-3.1
		c-2.5-0.2-4.6,1.2-5.6,2.3c-0.5,0.6-1,1.2-1.3,1.8c-1.3-0.9-3.4-1.7-5.6-1.5c-1.5,0.2-2.9,0.8-4,1.9c0-1.9,0.2-3.8,0.7-5.6
		C622,654.7,627.6,651.5,632.5,650.7z M623,664c1.9-0.3,3.7,0.6,4.8,1.5c-0.5,3.7,2.2,7.6,5,10.9c2.7,3.3,7.6,6.2,11.3,7.9
		c-3.7,0.7-7.6,0.4-11.2-0.9c-7.2-2.6-12.5-8.9-13.7-16.5C620,665.2,621.4,664.2,623,664z M634.3,675.1c-4-4.9-6.1-8.9-3.1-12.2
		c0.7-0.8,2.1-1.7,3.7-1.7c0.1,0,0.2,0,0.3,0c1.4,0.1,2.7,0.9,3.8,2.4c-0.4,1.5,0,3.3,1,5c1.1,1.8,2.7,3.1,4.3,3.5
		c1.3,0.3,2.6,0.3,3.9,0.1c0.7,3.2,3,5.7,6.3,6.9c-2,1.9-4.5,3.3-7.1,4.3C642.9,681.9,637.1,678.5,634.3,675.1z M650.1,671.6
		c5.1-2.3,7.7-9.3,8.4-14.7c0.1-1,0.2-2,0.3-3c0-0.1,0-0.2,0-0.3c2.8,5.3,3.2,11.4,1.2,17.1c-0.9,2.5-2.3,4.8-4,6.8
		c-0.3-0.1-0.6-0.2-0.8-0.2C652.5,676.3,650.6,674.2,650.1,671.6z M605.6,694.3l-39.4,9.1l-0.9-4.1l-4.8-22.2l0.2,0l14.7-21.8
		l9.6,7.5l-9.5,15.3l3.4,17.1l10.8-1.8l0-2c-0.7,0.5-1.6,0.6-2.5,0.8c-3.2,0.7-6.7-1.2-7.5-4.7c-0.5-2.4,0.6-4.9,2.3-6.3
		c-0.9-0.9-1.6-2.1-1.9-3.5c-0.7-3.4,0.3-6.5,3.6-7.2c0.8-0.2,1.5-0.1,2.2,0c-0.4-3.3,1.5-6.4,4.6-7c3-0.7,6,0.8,6.9,4
		c0.6-0.4,1.3-0.7,2-0.9c3.2-0.7,6.4,1.5,7.2,5c0.3,1.4,0.1,2.8-0.3,4c2.2,0.6,4,2.4,4.5,4.9c0.8,3.5-1.2,6.9-4.5,7.6
		c-1,0.2-1.1,0.4-2,0.1L605.6,694.3z M536.1,696.6c-0.7,2.6-1.7,4.6-3.1,6.3c-1.2,1.2-2.7,2.3-4.7,3.1c-1.2,0.6-3,0.9-4.8,1.2
		c-0.5,0-0.8,0.1-1.3,0.1l-13,1l-2.8-34.3l12.7-1c0.5,0,1.1-0.1,1.6,0c2.1-0.2,3.7-0.1,5,0.1c2.1,0.5,3.8,1.4,5.5,2.8
		c1.5,1.5,2.8,3.3,3.6,5.3c1,2.1,1.5,4.8,1.8,8.1C536.7,692.1,536.5,694.5,536.1,696.6z M485.1,710.4l-6.1,0.3l-1.8-33.1l6.4-0.4
		l14.8,21.4l-1.2-22.1l6.1-0.3l1.8,33.1l-6.6,0.4l-14.6-20.8L485.1,710.4z M477.2,711.7l-7.2,0.4l-3.3-7.3l-6.4,0.4l-6.5,0.4
		l-2.3,7.7l-6.9,0.4l10.8-33.8l3.5-0.2l3.4-0.2L477.2,711.7z M443.5,709.2v5.9h-23.6v-34.2h6.7v28.3H443.5z M395.1,715.1l-5.9,0
		l0-33.5l6.2,0l13.1,22.4l0-22.4l5.9,0l0,33.5l-6.3,0l-12.9-21.8L395.1,715.1z M383.2,694.9v5.7h-17.8v9.3h19.7v5.8h-26.7v-34.1
		h26.1v5.8h-19.1v7.5H383.2z M353.9,694.4l-0.1,5.7l-16.5-0.4l-0.2,9.3l18.3,0.4l-0.1,5.8l-24.8-0.6l0.8-34.1l24.2,0.6l-0.1,5.8
		l-17.7-0.4l-0.2,7.5L353.9,694.4z M321.1,700.8c0.9,1.1,2.1,3.1,3.5,5.8l3.8,6.8l-8.1-0.4l-4.4-7.6c-1.5-2.7-2.7-4.4-3.3-5.2
		c-0.7-0.7-1.3-1.2-1.9-1.5c-0.7-0.4-2-0.4-3.3-0.5l-1.4-0.1l-0.7,14.1l-6.7-0.3l1.7-34.1l13.4,0.7l0.6,0c3.5,0.2,6.1,0.6,7.6,1.3
		c1.6,0.7,2.8,1.9,3.8,3.5c0.8,1.6,1.2,3.4,1.1,5.4c-0.1,2.5-1,4.7-2.4,6.2c-1.6,1.6-3.8,2.6-6.7,2.8
		C319,698.8,320.2,699.8,321.1,700.8z M272.9,699.1c1.5,2.1,3.7,3.2,6.7,3.4c1.4,0.1,2.8-0.1,4.2-0.5c1.4-0.5,2.7-1,3.8-1.7l0.3-4.3
		l-7.6-0.6l0.4-5.5l14.3,1.1l-1,13.1c-1.5,1.3-3.6,2.4-6.4,3.1c-2.7,0.9-5.5,1.3-8,1.1c-3.5-0.3-6.5-1.3-9-3
		c-2.5-1.6-4.1-3.8-5.3-6.5c-1-2.8-1.4-5.8-1.2-9c0.3-3.5,1.1-6.5,2.8-9c1.6-2.6,3.9-4.5,6.7-5.8c2.2-0.9,4.9-1.2,8.1-0.9
		c4.1,0.3,7.3,1.3,9.4,3.3c2.2,1.8,3.5,4.3,3.9,7.3l-6.7,0.7c-0.3-1.6-1.1-3-2.3-4c-1.3-1-2.8-1.6-4.8-1.8c-2.9-0.2-5.3,0.5-7.1,2.2
		c-2,1.7-3,4.4-3.2,8C270.7,694,271.2,697,272.9,699.1z M239.9,692c-0.9,3.5-4.3,5.5-7.6,4.6c-1-0.3-1.2-0.1-1.9-0.9l-1.8,6.3
		l-40.2-10.2l1.1-4.1l5.9-21.9l0.2,0l23.5-12.5l5.3,11.1l-15.7,9.1l-4.8,16.7l10.7,3.4l1-1.8c-0.9,0.1-1.7-0.2-2.6-0.5
		c-3.3-0.9-5.5-4.2-4.6-7.7c0.7-2.4,2.8-4.1,5-4.5c-0.4-1.2-0.5-2.6-0.2-4c0.9-3.4,3.3-5.6,6.6-4.7c0.8,0.2,1.4,0.6,2,1
		c1.1-3.1,4.3-4.9,7.5-4.1c3.1,0.8,5.1,3.5,4.5,6.7c0.7-0.1,1.5,0,2.3,0.2c3.2,0.9,5.1,4.4,4.2,7.8c-0.4,1.4-1.2,2.5-2.2,3.4
		C239.7,687,240.5,689.5,239.9,692z M153.5,647.2c0.7,1.5,1.8,2.6,3.3,3.2c-0.3,0.6-0.6,1.2-0.7,1.9c-0.9,3.9,0.9,8.7,6,10.3
		c0.2,1-0.2,2.2-0.9,3.4c-0.8,1.3-1.9,2.2-2.9,2.4c-4.3,1-8.1-1.9-10.3-7.6c-1.2-3.1-1.5-6.2-1.8-9.5c-0.1-0.8-0.2-1.5-0.2-2.3
		c1.9-2.6,4.4-4.7,7.2-6.1C152.8,644.4,152.9,645.9,153.5,647.2z M156,641.7c9.9-3.4,20.8,1,25.6,10c-3.1-2.4-7.2-4.2-10.8-4.8
		c-1.5-0.2-3.2-0.4-5-0.4c-2.9,0-5.7,0.5-7.7,2.2c-1.3-0.3-2.4-1.3-2.9-2.6C154.7,644.7,155,643.1,156,641.7z M152.9,669.9
		c-0.5,2.6-2.4,4.6-5.1,5.6c-0.3,0.1-0.5,0.2-0.8,0.2c-1.7-2-3.1-4.3-4-6.8c-2-5.6-1.6-11.8,1.2-17.1c0,0.1,0,0.1,0,0.2
		c0.1,1.1,0.2,2.1,0.3,3C145.2,660.6,147.8,667.6,152.9,669.9z M154.9,670.5c1.2,0.2,2.5,0.2,3.9-0.1c1.6-0.4,3.2-1.7,4.3-3.5
		c1-1.7,1.4-3.5,1-5c1.1-1.5,2.3-2.3,3.8-2.4c1.7-0.1,3.2,0.8,4,1.7c3,3.3,0.9,7.2-3.1,12.2c-2.8,3.4-8.6,6.8-13,8.3
		c-2.6-0.9-5-2.4-7.1-4.3C151.9,676.2,154.1,673.7,154.9,670.5z M170.3,674.7c2.7-3.3,5.4-7.2,5-10.9c1-1,2.8-1.8,4.8-1.5
		c1.6,0.2,3,1.3,3.9,3c-1.3,7.6-6.5,13.9-13.7,16.5c-3.6,1.3-7.4,1.6-11.2,0.9C162.7,680.9,167.6,678,170.3,674.7z M180.1,660.2
		c-0.3,0-0.6,0-0.8,0c-1.9,0-3.6,0.7-4.7,1.5c-0.3-0.6-0.7-1.2-1.3-1.8c-1.1-1.2-3.2-2.5-5.6-2.3c-2,0.1-3.8,1.2-5.2,3.1
		c-3.7-1.3-5.1-4.9-4.4-7.8c1.1-4.9,8.2-4.5,12.4-3.8c4.9,0.8,10.5,4,13,7.5c0.5,1.8,0.7,3.7,0.7,5.6
		C183,661,181.7,660.4,180.1,660.2z M165.8,605.7c-1.7,2.1-4,5.5-5.5,9.6c0,0-19.6-7.2-30.6-22.9c-0.4-0.6-0.6-1.3-0.6-2
		c0.1-2.5,0.3-8.9,0.8-13.3c0.7-5.6,5.6-8.6,11.2-8.4c5.6,0.2,8.8,5.3,8.6,9.3s0.2,15.9,3.6,19.3c3,3,5.3,5.4,11.5,6.1
		C166,603.5,166.6,604.8,165.8,605.7z M92.3,547c0.1-0.6,0.4-1.2,0.9-1.6c2.2-1.6,8.6-5.5,17.4-4.7c10.9,1,42.9,15.2,56.8,30.4
		c13.9,15.2,11.9,26.1,4,28.1c0,0,1-15.5-8.9-23.8c-9.9-8.3-31.1-23.1-44.9-26.8c-13.2-3.4-19.2-1.2-24.9,3.8
		c-0.3,0.3-0.8,0-0.8-0.4L92.3,547z M71.2,649.5c0,0-13.1-2.5-16.6-10.9c-3.5-8.4,1.2-9.8,3.6-13c2.5-3.1,10.9-9.6,32.8-66.6
		c0,0,6.2,12.1,14.9,12.4C105.9,571.5,82.1,594.5,71.2,649.5z M84.3,616.4c-0.7-0.2-1.1-0.9-0.9-1.6c0.4-1.3,1.1-3.3,2.2-4.3
		c0.4-0.4,1.1-0.5,1.7-0.2c3.2,1.5,16.2,7.8,23.5,13.1c0.8,0.6,1.3,1.6,1.2,2.6c-0.1,1.6-0.5,3.8-1.8,5.1c-0.5,0.5-1.3,0.5-1.9,0.1
		C105.6,628.6,95.3,619.9,84.3,616.4z M698.3,646.3c0,0,7.4,9.7,5,19.6c-2.5,9.9-13.4,17.3-22.8,21.1
		c-9.4,3.7-114.5,54.5-280.5,54.5s-271.1-50.8-280.5-54.5c-9.4-3.7-20.3-11.2-22.8-21.1c-2.5-9.9,5-19.6,5-19.6
		c-5,15.9,3,26.8,11.9,31.2c8.9,4.5,120.4,58,286.4,58s277.5-53.5,286.4-58C695.4,673.1,703.3,662.2,698.3,646.3z M715.7,616.4
		c-11,3.5-21.3,12.1-24.1,14.6c-0.5,0.5-1.4,0.5-1.9-0.1c-1.2-1.2-1.6-3.5-1.8-5.1c-0.1-1,0.4-2,1.2-2.6
		c7.3-5.3,20.3-11.5,23.5-13.1c0.5-0.3,1.2-0.2,1.7,0.2c1.2,1.1,1.9,3,2.2,4.3C716.8,615.5,716.4,616.2,715.7,616.4z M745.4,638.6
		c-3.5,8.4-16.6,10.9-16.6,10.9c-10.9-55-34.7-78.1-34.7-78.1c8.7-0.2,14.9-12.4,14.9-12.4c21.9,57,30.3,63.4,32.8,66.6
		C744.3,628.8,748.9,630.2,745.4,638.6z"/>
	<path class="st0" d="M295.9,99c1.3,0.3,0.8,0.1,4.3,1c3.5,0.7,6,1.4,7,1.9c0.9,0.6,1.6,1,2,2.2c0.3,1.2,0.1,2.3-1.1,3.4
		c-1.2,1.1-5,0.5-7.1,0.3c-2.1-0.2-4.5-1-7-1.7c-2.4-0.8-3.1-1.9-3.1-1.9v7.4c0,0,4.6,1.5,6.6,2c1.9,0.4,6.5,1,10.1,0.2
		c3.8-0.8,6.4-2.5,8-4.3c1.5-1.7,2.3-4.4,2.2-7c-0.1-2.5-1.2-4.8-3.5-6.5c-2.3-1.5-4.2-1.8-6.7-2.4c-2.4-0.6-3.8-0.8-6.3-1.4
		c-2.6-0.8-3.1-2.2-3-3.1c0.1-1.1,2-4.2,8.9-2.8c6.8,1.3,9.6,3.7,9.6,3.7v-7.1c0,0-6.6-2.4-10.9-2.7c-4.4-0.3-11.7,1.2-14.2,4.4
		c-2.7,3.5-2.4,6.5-1.4,9C291.2,96.1,294.7,98.6,295.9,99z"/>
	<polygon class="st0" points="330,113.8 330,99.9 342,99.9 342,113.8 349.9,113.8 349.9,81.2 341.7,81.2 341.7,94.2 330.2,94.2 
		330.2,81.3 321.6,81.3 321.7,113.8 	"/>
	<polygon class="st0" points="378,113.8 378,108.4 363,108.4 363,100.1 378,100.1 378,94.9 363.1,94.9 363.1,87.3 378.2,87.2 
		378.2,81.2 354.2,81.2 354.3,113.8 	"/>
	<polygon class="st0" points="390.1,113.7 390.1,93.7 402.5,113.7 411.9,113.7 411.8,81.2 405,81.2 405.1,102.9 391.1,81.2 
		383.6,81.2 383.6,113.8 	"/>
	<polygon class="st0" points="424.2,113.7 424.2,99.8 436.3,99.8 436.3,113.7 444.2,113.7 444.1,81.1 435.9,81.1 436,94.1 
		424.3,94.1 424.3,81.2 415.9,81.2 415.9,113.7 	"/>
	<path class="st0" d="M463.6,114c13.5-0.3,13.2-9.1,13.2-9.1l0-23.8l-8,0l0,21.2c0,0,0.7,5.6-5.4,5.8c-6.1,0.2-6.3-5.9-6.3-5.9
		l0-21.1l-8.5,0l0,24.1C448.7,105.3,448.9,114.3,463.6,114z"/>
	<polygon class="st0" points="482.9,113.7 502,81.2 493.7,81.2 474.9,113.8 	"/>
	<polygon class="st0" points="493.3,98.6 493.3,104.6 503.5,104.6 503.5,113.7 512.1,113.7 512.1,81.2 503.6,81.2 503.6,98.6 	"/>
	<path class="st0" d="M492.4,583.9c1.6,0.8,3.2,0.9,5,0.3c1.2-0.5,2.7-1.6,4.4-3.5c1.3-1.5,2.2-2.4,2.6-2.8c0.6-0.6,1.2-0.9,1.6-1
		c0.5-0.1,1,0,1.4,0.2c0.7,0.4,1.2,1.1,1.4,2c0.2,0.9,0,2.1-0.7,3.4c-0.6,1.2-1.5,2-2.5,2.4c-1,0.4-2.2,0.4-3.7-0.1l-1.7,4.1
		c2.4,0.9,4.5,1,6.4,0.3c1.9-0.7,3.5-2.4,4.8-4.9c0.9-1.7,1.4-3.3,1.6-4.7c0.1-1.4-0.1-2.7-0.8-3.9c-0.7-1.2-1.6-2-2.7-2.6
		c-1.3-0.7-2.5-1-3.6-0.9c-1.1,0.1-2.2,0.5-3.2,1.1c-1,0.7-2.2,1.9-3.7,3.6c-1.5,1.7-2.6,2.7-3.3,3c-0.5,0.2-1.1,0.2-1.5,0
		c-0.5-0.3-0.8-0.7-0.9-1.3c-0.1-0.9,0.1-2,0.7-3.1c0.6-1.1,1.3-1.9,2-2.2c0.7-0.3,1.7-0.3,2.8,0.1l1.9-4.1c-1.9-0.9-3.7-1-5.4-0.3
		c-1.8,0.7-3.3,2.3-4.6,4.8c-0.8,1.5-1.3,3-1.4,4.3c-0.1,1.3,0.1,2.5,0.7,3.6C490.6,582.6,491.4,583.3,492.4,583.9z"/>
	
		<rect x="505.8" y="554.3" transform="matrix(0.467 -0.8843 0.8843 0.467 -229.3322 750.786)" class="st0" width="4.6" height="22.5"/>
	<polygon class="st0" points="523.2,561.3 510.2,554.4 527.4,553.2 529.5,549.2 509.6,538.7 507.6,542.4 520.9,549.4 503.3,550.6 
		501.2,554.5 521.2,565 	"/>
	<path class="st0" d="M521.6,540.5c3.1,1.7,6.1,2.1,8.8,1.4c2.7-0.7,4.8-2.4,6.2-5.1c1.1-2.1,1.5-4.2,1.2-6.1
		c-0.3-1.9-1.4-3.8-3.3-5.5l-3.3,3.3c1.3,1.1,2.1,2.2,2.3,3.4c0.3,1.1,0.1,2.2-0.4,3.3c-0.8,1.5-1.9,2.3-3.5,2.7
		c-1.5,0.3-3.6-0.2-6.1-1.5c-2.4-1.3-3.8-2.6-4.4-4.1c-0.6-1.5-0.5-3,0.3-4.4c0.6-1.1,1.3-1.8,2.3-2.3c1-0.4,2.1-0.5,3.2-0.2
		l1.2-4.5c-1.8-0.4-3.4-0.4-4.7,0.1c-2.2,0.8-4,2.4-5.3,4.8c-1.5,2.8-1.7,5.5-0.8,8.2C516.2,536.5,518.3,538.7,521.6,540.5z"/>
	<polygon class="st0" points="550.4,509.6 547.1,507.9 541.2,519 535.7,516.1 541,506.1 537.7,504.4 532.4,514.4 528,512 
		533.6,501.3 530.3,499.5 522.5,514.3 542.4,524.8 	"/>
	<path class="st0" d="M541.4,490.4l3.5,1.8c0.4-2.2,0.3-4.4-0.3-6.5l14.4,7.6l2-3.8L541,479l-1.6,3.1c1,1.1,1.6,2.4,1.9,4.1
		C541.6,487.8,541.6,489.2,541.4,490.4z"/>
	<path class="st0" d="M550.6,477.1c1.9,1,3.8,1.3,5.6,0.8c1.8-0.5,3.1-1.5,4-3.1c0.8-1.4,0.8-2.9,0.2-4.5c2.2,1.4,3.5,2.5,4,3.4
		c0.4,0.9,0.4,1.8,0,2.6c-0.3,0.6-0.8,1-1.3,1.2c-0.6,0.2-1.2,0.1-2-0.2l-1.5,3.9c1.8,0.6,3.4,0.6,4.7,0.1c1.3-0.5,2.4-1.6,3.2-3.1
		c1.1-2.2,1.3-4.4,0.4-6.6c-0.9-2.2-3.2-4.3-6.8-6.2c-3.6-1.9-6.5-2.6-8.7-2.1c-2.2,0.5-3.9,1.7-5,3.7c-1,1.9-1.2,3.7-0.6,5.6
		C547.3,474.6,548.6,476.1,550.6,477.1z M550.3,469c0.4-0.7,1.1-1.2,2.1-1.4c1-0.2,2.1,0,3.3,0.7c1.1,0.6,1.8,1.3,2.2,2.1
		c0.3,0.8,0.3,1.6-0.1,2.3c-0.4,0.8-1,1.2-1.9,1.4c-0.9,0.2-2-0.1-3.2-0.7c-1.3-0.7-2.1-1.4-2.4-2.1
		C549.9,470.5,549.9,469.7,550.3,469z"/>
	<path class="st0" d="M558.8,461.6c1.9,1,3.8,1.3,5.6,0.8c1.8-0.5,3.1-1.5,4-3.1c0.8-1.4,0.8-2.9,0.2-4.5c2.2,1.4,3.5,2.5,4,3.4
		c0.4,0.9,0.4,1.8,0,2.6c-0.3,0.6-0.8,1-1.3,1.2c-0.6,0.2-1.2,0.1-2-0.2l-1.5,3.9c1.8,0.6,3.4,0.6,4.7,0.1c1.3-0.5,2.4-1.6,3.2-3.1
		c1.1-2.2,1.3-4.4,0.4-6.6c-0.9-2.2-3.2-4.3-6.8-6.2c-3.6-1.9-6.5-2.6-8.7-2.1c-2.2,0.5-3.9,1.7-5,3.7c-1,1.9-1.2,3.7-0.6,5.6
		C555.4,459.1,556.8,460.6,558.8,461.6z M558.5,453.5c0.4-0.7,1.1-1.2,2.1-1.4c1-0.2,2.1,0,3.3,0.7c1.1,0.6,1.8,1.3,2.2,2.1
		c0.3,0.8,0.3,1.6-0.1,2.3c-0.4,0.8-1,1.2-1.9,1.4c-0.9,0.2-2-0.1-3.2-0.7c-1.3-0.7-2.1-1.4-2.4-2.1
		C558.1,455,558.1,454.3,558.5,453.5z"/>
	<path class="st0" d="M565.7,444.9l2.5-3.2c-0.8-0.6-1.3-1.2-1.5-1.9c-0.2-0.7-0.1-1.4,0.2-2c0.3-0.7,0.8-1.1,1.4-1.3
		c0.6-0.2,1.2-0.1,1.9,0.2c0.8,0.4,1.3,1,1.5,1.8c0.2,0.8,0,1.7-0.6,2.7l2.9,2.1c0.2-0.8,0.4-1.4,0.6-1.9c0.4-0.7,1-1.2,1.8-1.4
		c0.8-0.2,1.7-0.1,2.7,0.4c1,0.5,1.7,1.2,2,2.1c0.3,0.9,0.3,1.7-0.2,2.5c-0.4,0.7-1,1.2-1.7,1.5c-0.8,0.3-1.7,0.2-2.7-0.2l-1.5,3.9
		c1.8,0.7,3.5,0.7,5.2,0.1c1.7-0.6,3-1.9,3.9-3.7c1-1.9,1.2-3.8,0.7-5.7c-0.6-1.9-1.7-3.4-3.5-4.3c-1.2-0.6-2.4-0.8-3.6-0.6
		c-1.2,0.2-2.2,0.9-3.1,1.9c0-2.5-0.9-4.2-2.7-5.1c-1.2-0.7-2.6-0.8-4.1-0.4c-1.8,0.5-3.2,1.7-4.2,3.6c-0.6,1.1-0.9,2.2-1,3.3
		c-0.1,1.1,0.1,2.1,0.6,3C563.8,443.1,564.6,444,565.7,444.9z"/>
	<path class="st0" d="M295.5,247.6c0,0,22.5-15.5,22.9-34.6c0,0,1.3-6.8-9.2-18.2c0,0-8.3-6.1,2.2-13.8c10.4-7.8,17.9-7.3,17.9-7.3
		s-34.2-3.4-42.2,5.8c-8,9.2,7.3,17.8,10.7,21.2c3.4,3.4,9.3,7.3,8,17.9C304.5,229.1,297.8,245.6,295.5,247.6z"/>
	<path class="st0" d="M239.4,219.4c0,0,1.4,7.2,9.7,11.6c0,0-10-14.4,2.6-22.7C251.7,208.2,240.6,210.2,239.4,219.4z"/>
	<path class="st0" d="M257.4,244.5c2.4,0.1,15.3,1.8,18.5,0.7c3.1-1.1,3.3-5.9,3.3-6.6c0-0.7-3,1-3,1l-3-1.8l-2.2,2.4
		c0,0-1.9-2.8-2.6-3.2c-0.7-0.4-1.9,4-4,4c0,0-5.3,1.6-11.7-6.6C252.7,234.2,255,244.3,257.4,244.5z"/>
	<path class="st0" d="M210.4,191.7l1.4-1.8c1.4-1.8,1-3.4,5.3-4.7c4.3-1.3,6.1,0.1,6,0.8c-0.1,0.7-2.6,0.1-4.1,0.3
		c-1.6,0.1-1,3.4-4,7.3c-3,4-1.1,5.5,3.4,10.4c4.6,4.9,15.2,14.5,15.2,14.5c6.6-10.3,9.9-14.5,18.7-14.5c8.9,0,17,7.8,25.8,20.2
		c8.7,12.4,4,19.6,1.6,22.6c-2.4,3-8.7,3-12,3c-3.3,0-7.2-1.3-9.9-1.7c-2.7-0.4-2.7,2.1-2,3.7c0.7,1.5,1.7,1.1,0.9,11.4
		c-0.9,10.3,6.3,9,6.3,9c11,0.7,13.4-5.8,16.6-12.6c3.1-6.8,10.2-8,10.2-8c6.3-6.2,11-18.6,12.4-30.5c1.4-11.9-7.9-16.8-11.4-18.5
		c-3.6-1.7-7.4-4.8-10-6.5c-2.6-1.7-15.3-18.5,8.6-25.3c23.9-6.8,62.4,5.5,62.4,5.5s-14.4-0.3-26,2.7c-11.6,3-12.3,13.1-12.3,13.1
		c32.2,34.2-21,59.1-21,59.1c27.5,0,37.3-15.2,43.8-27.9c6.4-12.7-5.9-29.9-5.9-29.9c14.7-19.6,55.8-0.7,55.8-0.7
		c-15.2-23.6-42.1-29.9-42.1-29.9c-3.7,5.4-11.9,5.5-11.9,5.5c-13.9,1.6-17.2-9.2-17.2-9.2c7.7-4.7,14.7-2.1,17-1.7
		c2.3,0.4,4.3-0.3,4.3-0.3c-1.1,6.6-9.7,8.5-9.7,8.5c11,0.7,13.4-2.7,17.3-7.3c3.9-4.7,1.3-9.3,1.3-9.3s-0.7,1.3-4.3,2.3
		c-3.6,1-6-1.1-13.2-2.4c-7.2-1.3-10.3,1.6-20-1.4c-9.7-3-17.2-3.8-21.5-3.8c-4.3,0-16.5,2.8-23.3,4.7c-6.9,1.8-14.7,4.9-19.7,7.3
		c-5,2.4-4,7.1-4.9,7.3c-0.9,0.3-3.3,0.3-4.6,0.3c-1.3,0-2.4,1.3-3.6,2.4c-1.2,1.1-2.3,1.8,0.1,3.5c2.4,1.7,1.7,2.4,0.3,1.8
		c-1.4-0.6-1.6-0.3-3.7-0.6c-2.2-0.3-0.2,1.3,0.6,2.7c0.7,1.4,0.4,1-1.6,0.1c-2-0.8-5.4,0-7.4,0.1c-2,0.1-11,14-11,14
		C204.9,194.4,210.4,191.7,210.4,191.7z M267.6,156.7c0,0-6.8,5.6-9.4,9.8l-5.4-5C252.9,161.4,259.7,156.7,267.6,156.7z"/>
	<polygon class="st0" points="312.8,293.7 260.6,293.8 260.7,345.2 278.8,345.2 278.8,323.9 308.3,323.9 308.3,315.8 278.8,315.8 
		278.8,301.8 312.8,301.8 	"/>
	<path class="st0" d="M370.4,336.6c-13.8,0.1-25.7-7.8-25-17c0.7-9.2,4.7-17,23.3-19.1c11.9,0.2,20.5,5.8,20.5,5.8l0-9.5
		c0,0-8.6-5.3-27-3.8c-18.5,1.5-26.2,7.7-31.4,18.4c-5,10.6-1,24,16.8,31.1c18,7,37.6,1.4,42.8-2.9l0-11
		C390.3,328.5,384.1,336.4,370.4,336.6z"/>
	<path class="st0" d="M210,312c-6.2-0.8-6.8-3.1-6.8-4.6c1.2-3.5,7.7-4.3,7.7-4.3s6,0,10.1,0c7.7,0.9,19,5.5,19,5.5l0-11
		c-8.8-3.5-18.9-3.7-18.9-3.7s-4.2,0-12.3,0c-17.2,1.2-20.6,8-22.6,11c-0.7,3.9-1,6.7-0.2,8.4c3.8,9.1,16.9,10.7,27.4,12.3
		c10.5,1.6,9.6,2.5,11,3.5c0.5,1.7,0,1.3,0,2.6c-1.7,3.7-7.6,3.9-7.6,3.9s-3.9,0-9.8-0.3c-5.9-0.4-20.2-5.5-20.2-5.5l0,11.2
		c8.9,3.3,17.2,3.8,17.2,3.8s3.8,0.1,13.2,0.1c9.4,0,17.6-4.8,17.6-4.8c9.3-6.7,8.5-13.3,5.2-18.7C236.8,315.1,216.2,312.8,210,312z
		"/>
</g>
</svg>
