<?xml version="1.0" encoding="utf-8"?>
<!-- Generator: Adobe Illustrator 22.1.0, SVG Export Plug-In . SVG Version: 6.00 Build 0)  -->
<svg version="1.1" id="图层_1" xmlns="http://www.w3.org/2000/svg" xmlns:xlink="http://www.w3.org/1999/xlink" x="0px" y="0px"
	 viewBox="0 0 800 800" style="enable-background:new 0 0 800 800;" xml:space="preserve">
<style type="text/css">
	.st0{fill:#004DA0;}
</style>
<g>
	<g>
		<path id="XMLID_87_" class="st0" d="M317.3,88.6c0,0-2.8-2.4-9.7-3.7c-7-1.4-8.9,1.7-9,2.8c-0.1,1,0.4,2.4,3,3.2
			c2.5,0.6,3.9,0.8,6.3,1.4c2.5,0.5,4.4,0.9,6.7,2.4c2.3,1.6,3.4,4,3.5,6.5c0.1,2.6-0.6,5.3-2.2,7.1c-1.6,1.9-4.2,3.6-8,4.4
			c-3.7,0.8-8.3,0.2-10.2-0.2c-2-0.6-6.6-2.1-6.6-2.1v-7.5c0,0,0.8,1.2,3.1,2c2.5,0.8,4.9,1.5,7.1,1.7c2.2,0.2,6,0.8,7.2-0.3
			c1.2-1.2,1.4-2.3,1.1-3.5c-0.3-1.2-1.1-1.5-2-2.2c-1-0.6-3.6-1.2-7.1-2c-3.6-0.9-3-0.6-4.3-1c-1.2-0.4-4.8-2.9-5.6-5.4
			c-1-2.5-1.3-5.5,1.4-9c2.5-3.3,9.9-4.8,14.4-4.5c4.3,0.3,11,2.7,11,2.7L317.3,88.6L317.3,88.6z"/>
		<polygon id="XMLID_86_" class="st0" points="321.7,79.9 330.6,79.9 330.6,93 342.6,93 342.6,79.9 350.3,79.9 350.4,112.7 
			342.6,112.7 342.6,98.5 330.6,98.5 330.7,112.7 321.8,112.7 		"/>
		<polygon id="XMLID_85_" class="st0" points="354.6,78.8 378.8,78.8 378.8,85.3 363.4,85.3 363.5,93 378.8,93 378.8,98.5 
			363.4,98.5 363.4,107.2 378.8,107.2 378.8,112.7 354.7,112.7 		"/>
		<polygon id="XMLID_84_" class="st0" points="412.7,79.9 412.8,112.7 403.5,112.7 390.8,91.8 390.8,112.7 384.3,112.7 384.2,78.8 
			392,78.8 406.2,101.3 406.2,79.9 		"/>
		<polygon id="XMLID_83_" class="st0" points="417,79.9 424.8,79.9 424.8,93 436.8,92.9 436.8,78.8 445.6,78.8 445.7,111.6 
			437.9,111.6 437.9,98.5 425.9,98.5 426,112.7 417.1,112.7 		"/>
		<path id="XMLID_82_" class="st0" d="M450.1,79.9h8.7v21.3c0,0,0.1,6.2,6.5,6c6.3-0.2,5.6-5.9,5.6-5.9V79.9h7.7v24
			c0,0,0.3,8.8-13.3,9.1c-14.9,0.3-15.1-8.8-15.1-8.8L450.1,79.9z"/>
		<polygon id="XMLID_48_" class="st0" points="495.4,79.9 503.7,79.9 484.6,112.7 476.4,112.7 		"/>
		<polygon id="XMLID_47_" class="st0" points="504.7,79.9 513.5,79.9 513.6,111.6 504.7,111.6 504.7,102.9 494.9,102.9 494.9,97.4 
			504.7,97.3 		"/>
	</g>
	<path id="XMLID_42_" class="st0" d="M329.5,173.6c0,0-34.5-3.4-42.6,5.8c-8.1,9.3,7.4,17.9,10.8,21.4c3.5,3.4,9.4,7.4,8.1,18.1
		c-1.3,10.7-8.1,27.3-10.4,29.3c0,0,22.7-15.7,23.1-34.9c0,0,1.3-6.8-9.2-18.4c0,0-8.4-6.1,2.2-13.9
		C322,173.2,329.5,173.6,329.5,173.6"/>
	<path id="XMLID_41_" class="st0" d="M251.3,208.5c0,0-11.3,2-12.4,11.3c0,0,1.4,7.3,9.8,11.7C248.7,231.4,238.6,216.9,251.3,208.5"
		/>
	<path id="XMLID_40_" class="st0" d="M252.3,234.7c0,0,2.3,10.2,4.8,10.4c2.5,0.1,15.4,1.8,18.6,0.7c3.2-1.1,3.3-6,3.3-6.7
		c0-0.7-3,1-3,1l-3-1.8l-2.2,2.4c0,0-1.9-2.8-2.6-3.3c-0.7-0.4-1.9,4-4,4C264.1,241.4,258.8,243,252.3,234.7"/>
	<path class="st0" d="M386.4,193c-15.3-23.8-42.4-30.2-42.4-30.2c-3.8,5.4-12,5.5-12,5.5c-14,1.5-17.3-9.3-17.3-9.3
		c7.8-4.7,14.9-2.1,17.2-1.7c2.3,0.4,4.3-0.3,4.3-0.3c-1.1,6.7-9.8,8.5-9.8,8.5c11.2,0.7,13.6-2.7,17.5-7.4c3.9-4.7,1.3-9.4,1.3-9.4
		s-0.7,1.3-4.3,2.3c-3.6,1-6.1-1.1-13.3-2.4c-7.2-1.3-10.4,1.6-20.2-1.4c-9.8-2.9-17.3-3.8-21.6-3.8s-16.6,2.8-23.5,4.7
		c-6.9,1.8-14.8,5-19.9,7.4c-5.1,2.4-4,7.1-4.9,7.4c-0.8,0.3-3.3,0.3-4.6,0.3s-2.5,1.3-3.6,2.4c-1.2,1.2-2.4,1.9,0.1,3.6
		c2.5,1.8,1.7,2.5,0.3,1.9c-1.4-0.6-1.5-0.3-3.7-0.6c-2.1-0.3-0.1,1.3,0.6,2.7c0.7,1.4,0.4,1-1.6,0.1c-2-0.9-5.5,0-7.5,0.1
		c-2,0.1-11.1,14.1-11.1,14.1c-2.3,7,3.2,4.3,3.2,4.3l1-1.7c1.4-1.9,1-3.4,5.3-4.7c4.4-1.2,6.2,0.2,6.1,0.9
		c-0.2,0.7-2.6,0.2-4.2,0.3c-1.5,0.1-1,3.4-4,7.4c-3,3.9-1.1,5.5,3.5,10.5c4.6,5,15.3,14.7,15.3,14.7c6.6-10.4,10-14.7,18.9-14.7
		c9,0,17.2,7.9,26,20.4c8.8,12.5,4.1,19.8,1.6,22.8c-2.4,3-8.8,3-12.1,3c-3.4,0-7.3-1.3-10-1.7c-2.7-0.4-2.7,2.1-2,3.7
		c0.8,1.5,1.8,1.1,0.9,11.5c-0.9,10.4,6.3,9.1,6.3,9.1c11.1,0.7,13.5-5.9,16.7-12.7c3.1-6.8,10.2-8.1,10.2-8.1
		c6.4-6.3,11.2-18.8,12.6-30.8c1.5-12-7.9-17-11.5-18.7c-3.6-1.8-7.5-4.9-10.1-6.6c-2.6-1.7-15.4-18.7,8.7-25.5
		c24.1-6.8,62.9,5.6,62.9,5.6s-14.6-0.3-26.3,2.7c-11.7,3-12.4,13.2-12.4,13.2c32.5,34.5-21.2,59.7-21.2,59.7
		c27.7,0,37.7-15.4,44.2-28.2c6.5-12.8-5.9-30.2-5.9-30.2C345,173.9,386.4,193,386.4,193z M257.9,166.4l-5.5-5.1
		c0,0,6.9-4.8,14.9-4.8C267.3,156.5,260.4,162.1,257.9,166.4z"/>
	<path class="st0" d="M324.1,253.9c0,0,0,0,0,0.1C324,254,324.1,253.9,324.1,253.9z"/>
	<path class="st0" d="M309.4,261.6c-7,1.1-13,2.7-16.1,4.6c-8.8,5.4-10.6,13.2-17.9,17.5c-8.5,5.1-22.6,5.6-22.6,5.6l0,68.8l67-0.1
		l-0.2-74.6c0,0,0.4-11.5,1.1-15.6c1.5-8.4,3-13.1,3.3-13.8C323.8,254.6,321.9,257.8,309.4,261.6z M308.7,316.4v7.7h-29.6V346h-18.6
		v-51.5h52.6l0.1,7.7l-34,0.1v14.1H308.7z"/>
	<path class="st0" d="M350.6,239.6c-25.4,7.9-24.4,34.7-24.4,34.7V358h69V210.7C395.2,210.7,387.3,228.1,350.6,239.6z M390,306.6
		l-0.2,0v-0.1c-1.4-0.8-9.6-5.5-20.6-5.8c-18.8,2.1-22.8,10.1-23.5,19.3c-0.6,9.2,11.4,17.2,25.3,17.1c13.9-0.3,20.2-8.2,19.9-8.2
		V340c-5,4.4-24.8,10-42.9,3c-18-7.2-22.1-20.7-17-31.4c5.3-10.7,13.1-17,31.7-18.5c18.6-1.4,27.3,3.9,27.1,3.9v9.5
		C389.9,306.5,390,306.6,390,306.6z"/>
	<path class="st0" d="M566.2,452.9c-1.2-0.7-2.4-0.9-3.3-0.7c-1,0.2-1.7,0.7-2.1,1.4c-0.4,0.7-0.4,1.5-0.1,2.2
		c0.3,0.8,1.1,1.5,2.4,2.2c1.3,0.7,2.4,0.9,3.3,0.7c0.9-0.2,1.5-0.7,1.9-1.4c0.4-0.7,0.4-1.5,0.1-2.3
		C568.1,454.2,567.4,453.5,566.2,452.9z"/>
	<path class="st0" d="M558,468.5c-1.2-0.7-2.4-0.9-3.3-0.7c-1,0.2-1.7,0.7-2.1,1.4c-0.4,0.7-0.4,1.5-0.1,2.2
		c0.3,0.8,1.1,1.5,2.4,2.2c1.3,0.7,2.4,0.9,3.3,0.7c0.9-0.2,1.5-0.7,1.9-1.4c0.4-0.7,0.4-1.5,0.1-2.3
		C559.8,469.8,559.1,469.1,558,468.5z"/>
	<path class="st0" d="M222.2,607.8c8.8,10,17.8,19,26.9,27.1c0,0,0,0,0,0c4.1,0.6,8.1,1.2,12.3,1.8c-11.4-9.7-22.9-20.8-34.1-33.5
		c-41-46.4-59.8-100.7-68.4-138c-9.3-40.5-8.9-70.4-8.9-70.8V100.7h53.3l0.9-1.2c0.6-0.4,58.5-41.2,194.9-42.6
		c71.1-0.7,122.1,10.7,152.3,20.4c32.7,10.6,48.8,21.4,49,21.5l0.9,0.8h52.5v276.8v0.1c-0.7,0.3,0.1,32.2-7.7,74.4
		c-7.2,38.8-23.5,94.6-60.1,140c-14.2,17.7-29.2,32.7-44.1,45.4c0.3,0,0.6-0.1,0.8-0.1c0,0,0.1,0,0.1,0c0.8-0.1,1.5-0.3,2.2-0.4
		c0.1,0,0.1,0,0.1,0c1-0.2,1.9-0.3,2.6-0.4c0.1,0,0.2,0,0.3-0.1c0.1,0,0.1,0,0.2,0c0.2,0,0.3-0.1,0.4-0.1c0,0,0.1,0,0.1,0
		c0.1,0,0.2,0,0.3,0c0,0,0,0,0,0c0.2,0,0.3-0.1,0.3-0.1c1.8-0.3,3.5-0.6,5.3-0.9c12.4-11.3,24.8-24.2,36.6-38.9
		c37.5-46.5,54.2-103.6,61.5-143.2c7.7-42,7-74,7.6-75.6V93h-57.1c-3.9-3-20-12.6-49.5-22.1C523,60.9,471.2,49.2,398.9,50
		c-72.2,0.8-122.3,12.6-151.4,22.4c-27.9,9.3-42.6,18.4-46.3,19.5h-57.8v302.4c-0.3,1.3-0.7,30.9,8.8,72.2
		C160.8,504.7,180.1,560.2,222.2,607.8z"/>
	<g>
		<path class="st0" d="M531.6,685.5c-0.5-1.4-1.3-2.5-2.3-3.2c-0.8-0.7-2-1.1-3.3-1.3c-0.3,0.1-0.8-0.1-1.4,0
			c-1.1-0.1-2.5,0.1-4.3,0.2l-3,0.2l1.8,22.8l5.1-0.4c0.8-0.1,1.6-0.1,2.2-0.2c0.8-0.1,1.6-0.3,2.1-0.5c1.1-0.2,2-0.9,2.6-1.6
			c0.8-0.7,1.3-1.9,1.7-3.5c0.3-1.5,0.3-3.8-0.1-6.3C532.5,688.9,532.2,686.9,531.6,685.5z"/>
		<polygon class="st0" points="462.1,689.4 458.4,702 462.9,701.7 467.4,701.5 462.3,689.6 		"/>
		<path class="st0" d="M321.7,691.2c0-1.1-0.2-2.1-0.8-2.9c-0.6-0.7-1.3-1.2-2.4-1.4c-0.5-0.2-1.7-0.2-3.4-0.3c-0.4,0-1-0.1-1.5-0.1
			l-5.2-0.3l-0.4,8.7l4.9,0.2c0.6,0,1.2,0.1,1.8,0.1c2.2-0.1,3.6,0,4.2-0.2c0.8-0.2,1.5-0.7,2.1-1.3
			C321.3,693.1,321.7,692.2,321.7,691.2z"/>
		<path class="st0" d="M743.5,622.6c0,0-24.4-36-30.7-66c0,0-1.1-41.2-56.7-9.6c0,0-62.4,34.2-25.5,61c0,0,5.5,6.8,5.5,8.4
			c0,0-43.5,17.8-87.1,23.5c-35.8,4.6-100.8,14.2-143.5,14.2c-61.2-0.2-199.3-12-241.5-37c0,0,7.1-9.8,9.7-12.3
			c0,0,12.5-8.9,6.6-23.9c0,0-5.7-17.3-35.8-34.2c0,0-48.1-30.1-56.9,7.5c0,0-12.3,47.8-37.1,77.7c-0.3,0.1-4.6,14.2,21.4,21.9
			L83,622.6c0,0,8.4,1.4,23.7,14.1c0,0-2.2,2.6-4.7,5.8c-0.1,8.9,0.8,17.2,1.9,22.4c0.1,0.5,0.2,1,0.4,1.5c1.9,5.2,6.5,9.6,9.3,11.2
			c43.4,24.7,108.7,39.8,155.9,48.1c50.1,8.9,91,12.1,93,12.3l34,0.8l40.6-0.9c2-0.2,42.8-3.4,93-12.3
			c47.2-8.3,112.5-23.4,155.9-48.1c2.8-1.6,7.8-6.1,9.6-12.8c1.6-7.1,3.5-13.6,2.8-22.5c0,0,2.7,3.4,3.5,4.7
			c0.4,0.7,1.8,3.3,1.8,3.3s0.1,6.8-2.5,17.3c-1.9,7.2-9,13.5-12.2,15.3c-44.2,25.1-110.2,40.4-157.9,48.8
			c-51.6,9.1-93.3,12.3-93.7,12.3l-37.6,0.9l-37.8-0.8c-0.4,0-42.2-3.2-93.7-12.3c-47.7-8.4-113.8-23.7-157.9-48.8
			c-3.2-1.8-10.4-8.3-12.2-15.3c-0.1-0.5-0.2-1-0.3-1.5c-0.8-4.8-2-11.3-2.2-15.1c-0.3,0.5-0.6,1-0.8,1.4c0,0-10.5,25.5,17.1,40.1
			c0,0,110.7,50.2,275.5,57.4c0,0,156.1,5.5,300.7-57.4c0,0,39.1-22.1,5.9-55.1c0,0,8.2-10.9,22.1-14.8c0,0,11.4,25.6,11.4,31.6
			c0,0,11.6-0.6,17.8-9.5C745.5,644.7,756.9,638.1,743.5,622.6z M635.1,607.2c20.1,0.1,16.5-27.6,16.5-27.6c0.7-8.7,10.4-7,10.4-7
			c7.7,2,6.9,14,6.9,14c-1.7,15.8-28,28-28,28L635.1,607.2z M158.8,614.7c0,0-26.3-12.3-28-28c0,0-0.8-12,6.9-14c0,0,9.7-1.7,10.4,7
			c0,0-3.6,27.7,16.5,27.6L158.8,614.7z M69,650c0,0-18.9-8.4-13.3-17.8c0,0,33.1-47.8,34.3-69.2c0,0,0.2-2.7,2.4,1.9
			c0,0,7.3,8,8.2,8c0,0,4.3,0.5,2.7,2.7C103.3,575.6,78.2,609.6,69,650z M108.5,631.5c0,0-11.1-11.6-23.4-13.1l2.6-7
			c0,0,18.3,3.4,24.4,14C112.1,625.4,110.9,631.5,108.5,631.5z M90.9,555.2c0,0-0.5-1.2,0-6c0,0,5.1-13,28-6.5
			c0,0,35.3,11.2,50.2,31.4c0,0,19.2,20.3,0.8,29.5c0,0,10.3-14.3-14.8-33.1C155.1,570.5,111.9,532.4,90.9,555.2z M148.3,677.8
			c-1.7-2-3.1-4.3-4-6.8c-2-5.7-1.6-11.9,1.2-17.2c0,0.1,0,0.1,0,0.2c0.1,1.1,0.2,2.1,0.3,3.1c0.7,5.4,3.4,12.5,8.5,14.8
			c-0.5,2.6-2.4,4.7-5.2,5.7C148.9,677.6,148.6,677.7,148.3,677.8z M154.6,649c0.7,1.5,1.8,2.7,3.3,3.3c-0.3,0.5-0.5,1.2-0.7,1.9
			c-0.8,4,1,8.8,6.1,10.4c0.1,1-0.2,2.2-0.9,3.4c-0.8,1.2-1.9,2.2-2.9,2.4c-4.3,1-8.2-1.9-10.4-7.6c-1.2-3.2-1.5-6.3-2-9.6
			c0-0.8-0.1-1.5-0.2-2.3c1.9-2.6,4.4-4.7,7.3-6.2C153.9,646.2,154,647.6,154.6,649z M157,643.4c10-3.5,21,0.9,25.9,10.1
			c-3.1-2.4-7.2-4.2-10.9-4.8c-1.5-0.2-3.3-0.4-5-0.4c-2.9,0-5.8,0.5-7.7,2.2c-1.3-0.3-2.4-1.3-3-2.7
			C155.8,646.4,156,644.8,157,643.4z M149.7,679.4c3.3-1.3,5.6-3.8,6.3-7c1.2,0.2,2.5,0.2,3.9-0.1c1.6-0.4,3.2-1.7,4.3-3.5
			c1-1.6,1.4-3.5,1-5c1.1-1.5,2.4-2.3,3.8-2.4c1.7-0.1,3.2,0.9,4,1.7c3.1,3.3,1,7.3-3.1,12.3c-2.8,3.5-8.7,6.9-13.1,8.3
			C154.2,682.8,151.8,681.3,149.7,679.4z M171.5,683.9c-3.7,1.3-7.5,1.6-11.3,0.9c3.8-1.7,8.7-4.7,11.4-8s5.5-7.3,5-11
			c1-1,2.9-1.9,4.8-1.6c1.6,0.2,2.9,1.3,4,3C184.1,674.9,178.8,681.3,171.5,683.9z M181.5,662.5c-0.2,0-0.5,0-0.8,0
			c-1.9,0-3.6,0.7-4.8,1.5c-0.3-0.6-0.8-1.2-1.3-1.8c-1.1-1.1-3.2-2.5-5.7-2.3c-2,0.1-3.8,1.2-5.2,3.1c-3.8-1.3-5.1-4.9-4.5-7.9
			c1.1-5,8.3-4.5,12.5-3.9c5,0.9,10.6,4.1,13.1,7.6c0.5,1.9,0.7,3.8,0.7,5.7C184.4,663.3,183,662.7,181.5,662.5z M241.2,684.6
			c-0.4,1.4-1.2,2.5-2.2,3.4c1.7,1.5,2.5,4,2.1,6.4c-0.9,3.5-4.4,5.6-7.7,4.7c-1-0.3-1.2-0.2-1.9-0.9l-1.8,6.3L189,694.2l1.1-4.1
			l6-22.1h0.2l23.7-12.6l5.3,11.2l-15.9,9.2l-4.9,16.9l10.8,3.5l1-1.8c-0.9,0.1-1.8-0.2-2.7-0.5c-3.3-0.9-5.6-4.2-4.7-7.7
			c0.7-2.5,2.8-4.2,5.1-4.6c-0.5-1.2-0.6-2.6-0.2-4c0.9-3.4,3.3-5.6,6.6-4.7c0.8,0.2,1.4,0.6,2,1c1.2-3.1,4.4-5,7.6-4.1
			c3.1,0.9,5.1,3.5,4.5,6.8c0.8,0,1.5,0,2.3,0.2C240.2,677.7,242.1,681.2,241.2,684.6z M296.5,706.5c-1.5,1.3-3.6,2.4-6.4,3.1
			c-2.7,0.9-5.5,1.3-8.1,1.1c-3.5-0.3-6.6-1.3-9.1-3c-2.5-1.6-4.2-3.9-5.4-6.6c-1-2.9-1.4-5.8-1.2-9.1c0.3-3.5,1.1-6.6,2.8-9.1
			c1.6-2.7,3.9-4.5,6.8-5.8c2.2-0.9,4.9-1.2,8.1-0.9c4.1,0.3,7.3,1.3,9.5,3.4c2.2,1.9,3.5,4.3,3.9,7.4l-6.7,0.7
			c-0.3-1.6-1.2-3-2.3-4c-1.3-1-2.8-1.6-4.8-1.8c-2.9-0.2-5.3,0.5-7.1,2.3c-2,1.7-3,4.4-3.3,8.1c-0.3,4,0.3,7,2,9.1
			c1.5,2.1,3.8,3.2,6.7,3.5c1.4,0.1,2.8-0.1,4.2-0.5c1.4-0.5,2.7-1,3.8-1.7l0.3-4.3l-7.6-0.7l0.4-5.5l14.5,1.1L296.5,706.5z
			 M322.2,715.8l-4.4-7.7c-1.6-2.7-2.7-4.4-3.3-5.2c-0.7-0.6-1.3-1.1-1.9-1.5c-0.8-0.4-2-0.4-3.4-0.5l-1.4-0.1l-0.7,14.3l-6.8-0.3
			l1.7-34.4l13.5,0.7h0.6c3.5,0.2,6.1,0.6,7.6,1.3c1.6,0.7,2.8,1.9,3.8,3.5c0.8,1.6,1.2,3.3,1.1,5.4c-0.1,2.5-1,4.7-2.4,6.2
			c-1.7,1.6-3.9,2.6-6.8,2.8c1.3,1,2.5,2,3.4,3c0.9,1.2,2.2,3.1,3.6,5.9l4,7L322.2,715.8z M356.9,689l-17.4-0.4l-0.2,7.6l16.7,0.4
			l-0.2,5.7l-16.6-0.4l-0.3,9.4l18,0.4v5.9l-24.7-0.6l0.9-34.4l23.8,0.6V689z M387.5,718.3h-27.4v-35h26.3v5.5h-18.6v8.8h17.5v5.5
			h-17.5v9.9h19.7V718.3z M417.1,717.2h-7.8l-11.9-22.1v22.1h-5.5v-33.9h7.5l12.3,22.6v-22.6l5.5-0.1V717.2z M446.7,717.2h-24.1
			v-33.9h6.6v28.5h17.5V717.2z M473,714.3l-3.3-7.4l-6.5,0.4l-6.5,0.4l-2.3,7.7l-7,0.4l10.9-34.1l3.5-0.2l3.5-0.2l15,32.6L473,714.3
			z M501.4,712l-14.8-21l1.2,21.7l-6.2,0.4l-1.8-33.5l6.5-0.3l14.9,21.5l-1.2-22.3l6.1-0.3l1.9,33.4L501.4,712z M539.8,698.7
			c-0.8,2.7-1.7,4.7-3.2,6.4c-1.2,1.2-2.7,2.3-4.7,3.1c-1.2,0.6-3,0.9-4.9,1.2c-0.5,0-0.8,0.1-1.3,0.1l-13.1,1.1l-2.8-34.6l12.8-1
			c0.5-0.1,1.1-0.1,1.6,0c2.1-0.1,3.7-0.1,5,0.1c2.1,0.5,3.8,1.5,5.5,2.8c1.5,1.4,2.8,3.3,3.6,5.3c1,2.2,1.5,4.9,1.9,8.1
			C540.4,694.1,540.3,696.6,539.8,698.7z M607.8,689.7c-1,0.2-1.1,0.4-2,0.1l1.3,6.5l-39.7,9.2l-0.9-4.2l-4.8-22.4h0.2l14.9-21.9
			l9.7,7.6l-9.6,15.4l3.4,17.2l10.9-1.8v-2c-0.7,0.5-1.6,0.6-2.5,0.8c-3.2,0.7-6.7-1.3-7.5-4.8c-0.6-2.5,0.5-5,2.3-6.4
			c-1-0.9-1.7-2.1-2-3.5c-0.8-3.5,0.3-6.5,3.6-7.2c0.8-0.1,1.5-0.1,2.2,0c-0.4-3.3,1.6-6.4,4.7-7.1c3-0.6,6,0.8,6.9,4
			c0.7-0.4,1.3-0.7,2.1-0.9c3.2-0.7,6.4,1.5,7.2,5c0.3,1.4,0.2,2.8-0.3,4c2.2,0.5,4,2.4,4.4,4.8C613.1,685.6,611.1,689,607.8,689.7z
			 M652.5,646.4c2.9,1.5,5.4,3.6,7.3,6.2c0,0.8-0.1,1.5-0.2,2.3c-0.4,3.3-0.7,6.4-1.9,9.6c-2.2,5.7-6.1,8.6-10.4,7.6
			c-1-0.2-2.1-1.1-2.9-2.4c-0.7-1.1-1.1-2.4-0.9-3.4c5.2-1.6,7-6.4,6.1-10.4c-0.2-0.7-0.4-1.3-0.8-1.9c1.5-0.7,2.6-1.8,3.3-3.3
			C652.8,649.3,652.9,647.8,652.5,646.4z M650.3,649.5c-0.5,1.4-1.6,2.4-2.9,2.7c-3.1-2.6-8.6-2.4-12.7-1.8
			c-3.7,0.6-7.8,2.4-10.9,4.8c3.8-7.1,11.1-11.3,18.9-11.3c2.3,0,4.6,0.4,6.9,1.2C650.6,646.5,650.8,648.1,650.3,649.5z
			 M635.1,652.6c4.2-0.7,11.4-1.1,12.5,3.8c0.6,3-0.7,6.6-4.5,7.9c-1.4-1.9-3.2-3-5.2-3.1c-2.5-0.2-4.6,1.1-5.7,2.3
			c-0.6,0.5-1,1.2-1.3,1.8c-1.4-0.9-3.4-1.7-5.6-1.4c-1.5,0.2-2.9,0.9-4,2c0-2,0.2-3.8,0.7-5.7C624.5,656.7,630.1,653.4,635.1,652.6
			z M635.4,685.6c-7.3-2.7-12.6-9.1-13.9-16.7c0.9-1.7,2.3-2.8,3.9-3c1.9-0.2,3.8,0.6,4.8,1.6c-0.5,3.7,2.3,7.7,5,11
			c2.7,3.3,7.6,6.2,11.5,8C642.9,687.2,639,686.9,635.4,685.6z M650,686c-4.4-1.6-10.3-4.9-13.1-8.4c-4-5-6.1-9-3.1-12.3
			c0.7-0.8,2.1-1.7,3.7-1.7c0.1,0,0.2,0,0.3,0c1.4,0.1,2.7,0.9,3.8,2.4c-0.4,1.5,0,3.3,1,5c1.1,1.8,2.7,3.1,4.3,3.5
			c1.4,0.3,2.7,0.3,3.9,0.1c0.7,3.2,3,5.7,6.3,7.1C655.1,683.6,652.6,685,650,686z M662.5,672.7c-0.9,2.5-2.2,4.8-4,6.8
			c-0.3,0-0.5-0.1-0.8-0.2c-2.8-1-4.7-3.1-5.2-5.7c5.1-2.3,7.8-9.4,8.5-14.8c0.1-1,0.2-2,0.3-3c0-0.1,0-0.2,0-0.3
			C664.1,660.8,664.5,667,662.5,672.7z M674.6,600.4c-3.4,8-15.1,20.6-40.7,30.4h-0.1c-0.4,0.1-40.7,14.1-71.5,18.9
			c-0.4,0.1-45,7.6-84.6,11.3c-0.5,0-54.1,4.7-78.1,4.1c-19.5-0.5-77.6-3.8-78.1-3.8c-39.9-1.9-84.6-11.3-85-11.4
			c-30.9-4.7-71.4-18.9-71.8-19.1h-0.1c-25.8-9.7-37.5-22.4-40.9-30.4c-2.4-5.8,2.5-13.3,2.5-13.3c0.1,2.2,0.9,6.3,1.3,7.1
			c1.9,4.6,10.3,20,39.1,30.9c10,3.8,40.5,13.9,70.3,19.1c0.5,0.1,41.6,7.7,85,11.1c0.4,0.1,48.6,5.4,74.9,4.3
			c20.8,0,79.8-4.4,80.3-4.4c39.4-3.9,83.7-11.3,84.2-11.3c29.8-4.7,68.9-18.2,70.4-18.7c28.9-11.1,37.2-26.3,39.1-30.9
			c0.3-0.8,1.2-4.8,1.3-7.1C672.1,587.1,677.1,594.6,674.6,600.4z M644.6,570.4c-25.1,18.8-14.8,33.1-14.8,33.1
			c-18.4-9.2,0.8-29.5,0.8-29.6c14.8-20.1,50.2-31.4,50.2-31.4c22.9-6.5,28,6.5,28,6.5c0.5,4.9,0,6,0,6
			C687.8,532.3,644.6,570.4,644.6,570.4z M691.2,631.3c-2.4,0-3.6-6.1-3.6-6.1c6.2-10.6,24.5-14,24.4-14.1l2.6,7
			C702.3,619.7,691.2,631.3,691.2,631.3z M730.7,649.9c-9.2-40.4-34.3-74.4-34.3-74.4c-1.6-2.2,2.7-2.7,2.7-2.7c0.9,0,8.2-8,8.2-8
			c2.2-4.6,2.4-1.9,2.4-1.9c1.2,21.4,34.3,69.2,34.3,69.2C749.6,641.5,730.7,649.9,730.7,649.9z"/>
	</g>
	<g>
		<path class="st0" d="M322.9,644.8c26.9,2.2,52.2,3.3,72.3,3.7V369h-72.3V644.8z"/>
		<path class="st0" d="M172.6,466.8c8.1,34.8,25.9,85.3,64.6,128.6c16.9,18.8,34.5,33.9,51.4,46.1c7.7,0.9,15.3,1.7,23,2.4
			c-7.9-4.9-19-12.1-30.1-20.8c-10.3-8-20.5-17.3-30.9-28.9V369h-75.5c0,0,0,0.2,0,0.5c0-0.4,0-0.7,0-0.9h-0.1V358h72.3v-82.5
			c0,0,1.2-28.6-29.6-35.1c-31.6-6.6-42.7-29.3-42.7-29.3v-75.1h216.2h5.1h9.9h14.7h46.4l-61.1,113.3v101.9L522,136.1h54.1
			L406.2,455.3v101.5l221.5-419.8c0,0.2,0,0.5,0,0.9h-0.3v111.8L412.9,648.5c31.8-0.7,73.2-5.8,106.2-10.2
			c18.9-14.1,38.6-31.9,56.9-54.4c34.6-42.3,49.9-94.3,56.7-130.5c7.4-39.3,6.6-69,6.6-69.3V384V125.8c0,0-423.6-0.2-424.2,0.1
			h-51.1l0.1,274.9C164.2,401.1,163.8,429,172.6,466.8z M185.4,305.6c2-3,5.5-9.9,22.8-11.1c8.2,0,12.1,0,12.1,0s10.2,0.3,19.1,3.8
			l0.2-0.5v11c0,0-11.5-4.7-19.4-5.6c-4.3,0-10.3,0-10.3,0s-6.6,0.8-7.8,4.4c0,1.5,0.6,3.8,6.9,4.7c6.3,0.8,27.3,3.1,30.7,9.7
			c3.3,5.5,4.1,12.1-5.4,19c0,0-8.3,4.9-17.9,5c-9.6,0-13.1-0.1-13.1-0.1s-8.3-0.5-17.3-3.8v-11.3c0,0,14.5,5.2,20.4,5.5
			c5.9,0.3,9.9,0.3,9.9,0.3s5.9-0.2,7.6-4c0-1.3,0.5-1,0-2.6c-1.4-1-0.5-1.9-11.1-3.5c-10.6-1.6-23.8-3.2-27.6-12.4
			C184.4,312.3,184.7,309.6,185.4,305.6z M515,580.8c-0.1,1.4-0.7,3-1.6,4.8c-1.3,2.5-3,4.2-4.9,4.9c-1.9,0.7-4.1,0.7-6.5-0.3
			l1.7-4.2c1.5,0.5,2.7,0.5,3.7,0.1c1-0.4,1.8-1.2,2.5-2.5c0.7-1.3,0.9-2.4,0.7-3.4c-0.2-1-0.7-1.6-1.4-2c-0.5-0.3-1-0.3-1.4-0.2
			c-0.5,0.1-1,0.4-1.6,1c-0.4,0.4-1.3,1.3-2.6,2.8c-1.7,1.9-3.2,3.1-4.4,3.5c-1.8,0.7-3.4,0.6-5-0.3c-1-0.5-1.8-1.3-2.4-2.4
			c-0.6-1.1-0.8-2.2-0.7-3.6c0.1-1.3,0.6-2.8,1.4-4.3c1.3-2.5,2.9-4.1,4.7-4.8c1.8-0.7,3.6-0.6,5.5,0.3l-2,4.2
			c-1.1-0.4-2.1-0.4-2.8-0.1c-0.8,0.3-1.4,1.1-2,2.2c-0.6,1.2-0.9,2.2-0.7,3.2c0.1,0.6,0.4,1,0.9,1.3c0.5,0.3,1,0.3,1.5,0
			c0.7-0.3,1.8-1.3,3.3-3c1.5-1.7,2.8-2.9,3.8-3.6c1-0.7,2.1-1.1,3.2-1.1c1.1-0.1,2.4,0.2,3.6,0.9c1.2,0.6,2.1,1.5,2.7,2.7
			C514.9,578.1,515.1,579.4,515,580.8z M519,574l-20.1-10.6l2.1-4.1l20.1,10.6L519,574z M529.5,554.2l-17.4,1.2l13.1,6.9l-2,3.8
			l-20.1-10.6l2.1-4l17.8-1.1l-13.4-7.1l2-3.8l20.1,10.6L529.5,554.2z M538.7,537.5c-1.4,2.7-3.5,4.4-6.2,5.1
			c-2.7,0.8-5.7,0.3-8.8-1.4c-3.3-1.8-5.5-4-6.4-6.7c-0.9-2.7-0.7-5.5,0.8-8.3c1.3-2.5,3.1-4.1,5.3-4.8c1.3-0.5,2.9-0.5,4.8-0.1
			l-1.2,4.5c-1.2-0.3-2.3-0.3-3.3,0.2c-1,0.4-1.8,1.2-2.4,2.3c-0.8,1.5-0.9,3-0.3,4.5c0.6,1.5,2.1,2.9,4.5,4.1
			c2.5,1.3,4.6,1.8,6.2,1.5c1.6-0.3,2.7-1.2,3.5-2.7c0.6-1.1,0.7-2.2,0.4-3.3c-0.3-1.1-1-2.2-2.3-3.4l3.3-3.3c1.9,1.8,3,3.6,3.3,5.6
			S539.8,535.3,538.7,537.5z M544.6,525.5l-20.1-10.6l7.9-14.9l3.4,1.8l-5.7,10.9l4.5,2.4l5.3-10.1l3.4,1.8l-5.3,10.1l5.5,2.9
			l5.9-11.2l3.4,1.8L544.6,525.5z M561.4,493.9l-14.5-7.7c0.6,2.1,0.7,4.3,0.3,6.5l-3.5-1.8c0.2-1.2,0.2-2.6-0.1-4.3
			c-0.3-1.7-0.9-3-1.9-4.1l1.7-3.1l20,10.6L561.4,493.9z M569.9,478.7c-0.8,1.6-1.9,2.6-3.3,3.2c-1.4,0.4-3,0.4-4.8-0.2l1.6-3.9
			c0.8,0.3,1.5,0.4,2.1,0.2c0.6-0.2,1-0.6,1.4-1.2c0.4-0.8,0.4-1.7,0-2.6c-0.4-0.9-1.8-2.1-4-3.5c0.6,1.6,0.5,3.1-0.2,4.5
			c-0.8,1.6-2.2,2.6-4,3.1c-1.8,0.5-3.7,0.2-5.7-0.8c-2-1.1-3.4-2.6-4-4.4c-0.6-1.9-0.4-3.7,0.6-5.6c1.1-2,2.8-3.3,5-3.8
			c2.3-0.5,5.2,0.2,8.8,2.2c3.7,1.9,6,4,6.9,6.2C571.2,474.3,571.1,476.5,569.9,478.7z M578.1,463c-0.8,1.6-1.9,2.6-3.3,3.2
			c-1.4,0.5-2.9,0.4-4.8-0.2l1.6-3.9c0.8,0.3,1.5,0.4,2.1,0.2c0.6-0.2,1-0.6,1.4-1.2c0.4-0.8,0.4-1.7,0-2.6c-0.4-0.9-1.8-2.1-4-3.5
			c0.6,1.6,0.5,3.1-0.2,4.5c-0.8,1.6-2.2,2.6-4,3.1s-3.7,0.2-5.7-0.8c-2-1.1-3.4-2.6-4-4.4c-0.6-1.9-0.4-3.7,0.6-5.6
			c1.1-2,2.8-3.3,5-3.8c2.3-0.5,5.2,0.2,8.8,2.2c3.7,1.9,6,4,6.9,6.2C579.4,458.6,579.3,460.8,578.1,463z M586.9,446.6
			c-1,1.8-2.3,3.1-4,3.7c-1.9,0.7-3.6,0.7-5.4,0l1.5-4c1,0.4,1.9,0.4,2.7,0.2c0.8-0.3,1.4-0.8,1.8-1.5c0.4-0.8,0.5-1.6,0.2-2.5
			c-0.3-0.9-1-1.6-2-2.1c-1-0.5-1.9-0.7-2.7-0.4c-0.8,0.2-1.5,0.7-1.9,1.5c-0.3,0.5-0.5,1.1-0.6,1.9l-2.9-2.1c0.6-1,0.8-1.9,0.6-2.7
			c-0.2-0.8-0.7-1.4-1.5-1.8c-0.7-0.4-1.3-0.4-1.9-0.3c-0.6,0.2-1.1,0.6-1.5,1.3c-0.3,0.7-0.4,1.3-0.2,2s0.7,1.3,1.6,1.9l-2.5,3.2
			c-1.1-0.9-1.9-1.8-2.3-2.7c-0.5-0.9-0.7-1.9-0.6-3c0.1-1.1,0.4-2.2,1-3.3c1-1.9,2.4-3.1,4.2-3.6c1.5-0.4,2.9-0.3,4.1,0.4
			c1.8,0.9,2.7,2.6,2.7,5.1c0.9-1,1.9-1.7,3.1-1.9c1.2-0.2,2.4,0,3.7,0.6c1.8,0.9,2.9,2.4,3.5,4.3
			C588.2,442.7,587.9,444.7,586.9,446.6z"/>
	</g>
</g>
</svg>
