<?xml version="1.0" encoding="utf-8"?>
<!-- Generator: Adobe Illustrator 22.1.0, SVG Export Plug-In . SVG Version: 6.00 Build 0)  -->
<svg version="1.1" id="图层_1" xmlns="http://www.w3.org/2000/svg" xmlns:xlink="http://www.w3.org/1999/xlink" x="0px" y="0px"
	 viewBox="0 0 800 800" style="enable-background:new 0 0 800 800;" xml:space="preserve">
<style type="text/css">
	.st0{fill:#004DA0;}
</style>
<g>
	<path class="st0" d="M306.4,83.6c6.9,1.3,9.7,3.7,9.7,3.7v-7.2c0,0-6.6-2.4-11-2.7c-4.5-0.3-11.9,1.2-14.4,4.5
		c-2.7,3.5-2.4,6.5-1.4,9c0.9,2.5,4.5,5,5.6,5.4c1.3,0.3,0.8,0.1,4.3,1c3.5,0.8,6.1,1.4,7.1,2c0.9,0.6,1.6,1,2,2.2
		c0.3,1.2,0.1,2.3-1.1,3.5c-1.2,1.1-5,0.6-7.2,0.3c-2.2-0.2-4.6-1-7.1-1.7c-2.4-0.8-3.2-2-3.2-2v7.5c0,0,4.7,1.5,6.6,2.1
		c2,0.4,6.5,1,10.2,0.2c3.8-0.8,6.4-2.5,8-4.4c1.5-1.7,2.3-4.5,2.2-7.1c-0.1-2.5-1.2-4.9-3.5-6.5c-2.3-1.5-4.2-1.9-6.7-2.4
		c-2.4-0.6-3.8-0.8-6.3-1.4c-2.6-0.8-3.2-2.2-3-3.2C297.4,85.3,299.4,82.2,306.4,83.6z"/>
	<polygon class="st0" points="329.5,78.4 320.9,78.4 321,111.3 329.4,111.3 329.3,97.2 341.5,97.2 341.5,111.2 349.5,111.2 
		349.4,78.4 341.2,78.4 341.2,91.5 329.5,91.5 	"/>
	<polygon class="st0" points="378,78.4 353.8,78.4 353.9,111.2 377.8,111.2 377.8,105.8 362.7,105.8 362.7,97.4 377.8,97.4 
		377.8,92.2 362.8,92.2 362.7,84.5 378,84.5 	"/>
	<polygon class="st0" points="383.4,78.4 383.5,111.2 390,111.2 390,91 402.5,111.2 412,111.2 411.9,78.3 405.1,78.3 405.1,100.3 
		391.1,78.4 	"/>
	<polygon class="st0" points="424.5,78.3 416,78.3 416.1,111.2 424.5,111.2 424.4,97.1 436.6,97.1 436.6,111.1 444.6,111.1 
		444.5,78.3 436.3,78.3 436.3,91.3 424.5,91.4 	"/>
	<path class="st0" d="M464,105.6c-6.2,0.2-6.3-6-6.3-6l0-21.3l-8.6,0l0,24.3c0,0,0.2,9.1,15.1,8.8c13.6-0.3,13.3-9.1,13.3-9.1l0-24
		l-8,0l0,21.4C469.4,99.7,470.1,105.3,464,105.6z"/>
	<polygon class="st0" points="475.5,111.2 483.7,111.2 502.9,78.3 494.5,78.3 	"/>
	<polygon class="st0" points="494.1,101.9 504.4,101.9 504.4,111.2 513.2,111.2 513.1,78.3 504.5,78.3 504.5,95.9 494.1,96 	"/>
	<polygon class="st0" points="312,292.8 259.4,292.8 259.4,344.7 277.7,344.7 277.7,323.2 307.5,323.2 307.5,315.1 277.7,315.1 
		277.7,301 312.1,300.9 	"/>
	<path class="st0" d="M361.8,292c-18.6,1.5-26.4,7.8-31.7,18.5c-5.1,10.7-1,24.2,17,31.4c18.1,7,37.9,1.4,43.2-3l0-11.1
		c0,0-6.3,7.9-20.2,8.2c-13.9,0.1-25.9-7.9-25.3-17.1c0.7-9.2,4.7-17.2,23.5-19.3c12,0.2,20.7,5.8,20.7,5.8l0-9.6
		C389,295.9,380.4,290.5,361.8,292z"/>
	<path class="st0" d="M238.6,320.8c-3.3-6.4-24-8.8-30.3-9.6c-6.2-0.8-6.8-3.1-6.8-4.6c1.2-3.5,7.7-4.3,7.7-4.3s6,0,10.2,0
		c7.7,0.9,19.2,5.5,19.2,5.5l0-11c-8.9-3.5-19.1-3.7-19.1-3.7s-4.3,0-12.4,0c-17.3,1.2-20.8,8.1-22.8,11.1c-0.7,4-1,6.7-0.2,8.5
		c3.9,9.2,17,10.8,27.6,12.4c10.6,1.6,9.7,2.5,11.1,3.5c0.5,1.7,0,1.3,0,2.6c-1.7,3.7-7.6,4-7.6,4s-4,0-9.9-0.3
		c-5.9-0.4-20.4-5.5-20.4-5.5l0,11.3c9,3.3,17.3,3.8,17.3,3.8s3.9,0.1,13.4,0.1c9.5,0,17.7-4.9,17.7-4.9
		C242.8,332.8,241.9,326.2,238.6,320.8z"/>
	<path class="st0" d="M294.5,247.2c0,0,22.7-15.7,23.1-34.9c0,0,1.3-6.8-9.2-18.4c0,0-8.4-6.1,2.2-13.9c10.5-7.8,18-7.4,18-7.4
		s-34.5-3.4-42.6,5.8c-8.1,9.3,7.4,17.9,10.8,21.4c3.5,3.4,9.4,7.4,8.1,18.1C303.6,228.6,296.9,245.2,294.5,247.2z"/>
	<path class="st0" d="M250.4,207.5c0,0-11.3,2-12.4,11.3c0,0,1.4,7.3,9.8,11.7C247.8,230.4,237.7,215.9,250.4,207.5z"/>
	<path class="st0" d="M256.2,244.1c2.5,0.1,15.4,1.8,18.6,0.7c3.2-1.1,3.3-6,3.3-6.7c0-0.7-3,1-3,1l-3-1.8l-2.2,2.4
		c0,0-1.9-2.8-2.6-3.3c-0.7-0.4-1.9,4-4,4c0,0-5.3,1.6-11.8-6.7C251.4,233.7,253.7,243.9,256.2,244.1z"/>
	<path class="st0" d="M208.7,190.8l1.4-1.9c1.4-1.9,1-3.4,5.3-4.7c4.3-1.3,6.2,0.1,6.1,0.9c-0.1,0.7-2.6,0.1-4.2,0.3
		c-1.6,0.1-1,3.4-4,7.4c-3,4-1.2,5.6,3.5,10.5c4.6,5,15.3,14.7,15.3,14.7c6.6-10.4,10-14.7,18.9-14.7c8.9,0,17.2,7.8,26,20.4
		c8.8,12.5,4,19.8,1.6,22.8c-2.5,3-8.8,3-12.1,3c-3.3,0-7.2-1.3-10-1.7c-2.7-0.4-2.7,2.1-2,3.7c0.7,1.6,1.7,1.1,0.9,11.5
		c-0.9,10.4,6.3,9.1,6.3,9.1c11.1,0.7,13.6-5.8,16.7-12.7c3.2-6.8,10.2-8.1,10.2-8.1c6.3-6.3,11.1-18.8,12.6-30.8
		c1.4-12-7.9-16.9-11.5-18.7c-3.6-1.7-7.5-4.8-10.1-6.6c-2.6-1.7-15.5-18.7,8.7-25.5c24.1-6.8,62.9,5.6,62.9,5.6s-14.6-0.3-26.3,2.7
		c-11.7,3-12.4,13.2-12.4,13.2c32.5,34.5-21.2,59.7-21.2,59.7c27.7,0,37.7-15.4,44.2-28.2c6.5-12.8-5.9-30.2-5.9-30.2
		c14.9-19.8,56.3-0.7,56.3-0.7c-15.3-23.8-42.4-30.2-42.4-30.2c-3.8,5.4-12,5.5-12,5.5c-14,1.6-17.3-9.3-17.3-9.3
		c7.8-4.7,14.9-2.1,17.2-1.7c2.3,0.4,4.3-0.3,4.3-0.3c-1.2,6.7-9.8,8.5-9.8,8.5c11.1,0.7,13.6-2.7,17.5-7.4c3.9-4.7,1.3-9.4,1.3-9.4
		s-0.7,1.3-4.3,2.3c-3.6,1-6.1-1.1-13.3-2.4c-7.2-1.3-10.4,1.6-20.2-1.4c-9.8-3-17.3-3.8-21.6-3.8c-4.3,0-16.6,2.8-23.5,4.7
		c-6.9,1.8-14.9,5-19.9,7.4c-5.1,2.4-4,7.1-4.9,7.4c-0.9,0.3-3.3,0.3-4.6,0.3c-1.3,0-2.5,1.3-3.6,2.4c-1.2,1.1-2.3,1.9,0.1,3.6
		c2.5,1.7,1.7,2.4,0.3,1.9c-1.4-0.6-1.6-0.3-3.7-0.6c-2.2-0.3-0.2,1.3,0.6,2.7c0.7,1.4,0.4,1-1.6,0.1c-2-0.8-5.5,0-7.5,0.1
		c-2,0.1-11.1,14.1-11.1,14.1C203.2,193.5,208.7,190.8,208.7,190.8z M266.4,155.5c0,0-6.9,5.6-9.4,9.9l-5.4-5.1
		C251.5,160.3,258.4,155.5,266.4,155.5z"/>
	<path class="st0" d="M491.5,573.7c-0.8,1.5-1.3,3-1.4,4.3c-0.1,1.3,0.1,2.5,0.7,3.6c0.6,1.1,1.4,1.8,2.4,2.4c1.6,0.8,3.3,0.9,5,0.3
		c1.3-0.5,2.7-1.6,4.4-3.5c1.3-1.5,2.2-2.4,2.6-2.8c0.6-0.6,1.2-0.9,1.6-1c0.5-0.1,1,0,1.4,0.2c0.7,0.4,1.2,1.1,1.4,2
		c0.2,1,0,2.1-0.7,3.4c-0.7,1.2-1.5,2.1-2.5,2.5c-1,0.4-2.2,0.4-3.7-0.1l-1.7,4.2c2.4,0.9,4.5,1,6.4,0.3c1.9-0.7,3.5-2.4,4.9-4.9
		c0.9-1.7,1.4-3.3,1.6-4.8c0.1-1.4-0.1-2.7-0.8-3.9c-0.7-1.2-1.6-2.1-2.7-2.7c-1.3-0.7-2.5-1-3.6-0.9c-1.1,0.1-2.2,0.5-3.2,1.1
		c-1,0.7-2.3,1.9-3.8,3.6c-1.5,1.7-2.6,2.7-3.3,3c-0.6,0.2-1.1,0.2-1.5,0c-0.5-0.3-0.8-0.7-0.9-1.3c-0.1-0.9,0.1-2,0.7-3.2
		c0.6-1.1,1.3-1.9,2-2.2c0.8-0.3,1.7-0.3,2.8,0.1l2-4.2c-1.9-0.9-3.7-1-5.5-0.3C494.4,569.6,492.8,571.2,491.5,573.7z"/>
	
		<rect x="506.8" y="554.2" transform="matrix(0.467 -0.8843 0.8843 0.467 -228.7941 751.6475)" class="st0" width="4.6" height="22.7"/>
	<polygon class="st0" points="502.1,554.3 522.3,565 524.3,561.2 511.1,554.3 528.5,553.1 530.7,549 510.6,538.4 508.6,542.2 
		522,549.3 504.2,550.4 	"/>
	<path class="st0" d="M517.1,525.2c-1.5,2.8-1.8,5.6-0.8,8.3c0.9,2.7,3.1,4.9,6.4,6.7c3.2,1.7,6.1,2.1,8.8,1.4
		c2.7-0.8,4.8-2.5,6.2-5.1c1.1-2.2,1.5-4.2,1.2-6.2c-0.3-2-1.4-3.8-3.3-5.6l-3.3,3.3c1.3,1.1,2.1,2.2,2.4,3.4
		c0.3,1.1,0.1,2.3-0.4,3.3c-0.8,1.5-1.9,2.4-3.5,2.7c-1.6,0.3-3.6-0.2-6.2-1.5c-2.4-1.3-3.9-2.6-4.5-4.1c-0.6-1.5-0.5-3,0.3-4.5
		c0.6-1.1,1.4-1.8,2.4-2.3c1-0.4,2.1-0.5,3.3-0.2l1.2-4.5c-1.9-0.4-3.4-0.4-4.8,0.1C520.2,521.1,518.4,522.8,517.1,525.2z"/>
	<polygon class="st0" points="531.4,498.9 523.6,513.8 543.7,524.4 551.8,509.1 548.4,507.3 542.4,518.6 537,515.7 542.3,505.6 
		538.9,503.8 533.6,513.9 529.1,511.5 534.8,500.7 	"/>
	<path class="st0" d="M540.6,481.3c1,1.1,1.6,2.5,1.9,4.1c0.3,1.7,0.3,3.1,0.1,4.3l3.5,1.8c0.4-2.2,0.3-4.4-0.3-6.5l14.5,7.7l2-3.9
		l-20.2-10.7L540.6,481.3z"/>
	<path class="st0" d="M553.6,462.5c-2.3,0.5-3.9,1.7-5,3.8c-1,1.9-1.2,3.7-0.6,5.6c0.6,1.9,1.9,3.3,4,4.4c2,1,3.9,1.3,5.7,0.8
		c1.8-0.5,3.2-1.5,4-3.1c0.8-1.5,0.8-3,0.2-4.5c2.2,1.4,3.6,2.5,4,3.5c0.4,0.9,0.4,1.8,0,2.6c-0.3,0.6-0.8,1-1.4,1.2
		c-0.6,0.2-1.3,0.1-2.1-0.2l-1.6,3.9c1.8,0.6,3.4,0.6,4.7,0.1c1.3-0.5,2.4-1.6,3.3-3.2c1.2-2.2,1.3-4.4,0.4-6.6
		c-0.9-2.2-3.2-4.3-6.9-6.2C558.8,462.8,555.8,462,553.6,462.5z M559.2,469.5c0.3,0.8,0.3,1.6-0.1,2.3c-0.4,0.8-1,1.2-1.9,1.4
		c-0.9,0.2-2-0.1-3.3-0.7c-1.3-0.7-2.1-1.4-2.4-2.2c-0.3-0.8-0.3-1.5,0.1-2.2c0.4-0.7,1.1-1.2,2.1-1.4c1-0.2,2.1,0,3.3,0.7
		C558.2,468,558.9,468.7,559.2,469.5z"/>
	<path class="st0" d="M561.8,446.9c-2.3,0.5-3.9,1.7-5,3.8c-1,1.9-1.2,3.7-0.6,5.6c0.6,1.9,1.9,3.3,4,4.4c2,1,3.9,1.3,5.7,0.8
		c1.8-0.5,3.2-1.5,4-3.1c0.8-1.5,0.8-3,0.2-4.5c2.2,1.4,3.6,2.5,4,3.5c0.4,0.9,0.4,1.8,0,2.6c-0.3,0.6-0.8,1-1.4,1.2
		c-0.6,0.2-1.3,0.1-2.1-0.2l-1.6,3.9c1.8,0.6,3.4,0.6,4.7,0.1c1.3-0.5,2.4-1.6,3.3-3.2c1.2-2.2,1.3-4.4,0.4-6.6
		c-0.9-2.2-3.2-4.3-6.9-6.2C567,447.1,564.1,446.4,561.8,446.9z M567.5,453.9c0.3,0.8,0.3,1.6-0.1,2.3c-0.4,0.8-1,1.2-1.9,1.4
		c-0.9,0.2-2-0.1-3.3-0.7c-1.3-0.7-2.1-1.4-2.4-2.2c-0.3-0.8-0.3-1.5,0.1-2.2c0.4-0.8,1.1-1.2,2.1-1.4c1-0.2,2.1,0,3.3,0.7
		C566.5,452.4,567.2,453.1,567.5,453.9z"/>
	<path class="st0" d="M580.8,445.4c-0.8,0.3-1.7,0.2-2.7-0.2l-1.5,4c1.8,0.7,3.5,0.7,5.2,0.1c1.7-0.6,3-1.9,4-3.7
		c1-1.9,1.2-3.9,0.7-5.8c-0.6-1.9-1.7-3.4-3.5-4.3c-1.2-0.6-2.4-0.8-3.7-0.6c-1.2,0.2-2.3,0.9-3.1,1.9c0-2.5-0.9-4.2-2.7-5.1
		c-1.2-0.7-2.6-0.8-4.1-0.4c-1.8,0.5-3.2,1.7-4.2,3.6c-0.6,1.1-0.9,2.2-1,3.3c-0.1,1.1,0.1,2.1,0.6,3c0.5,0.9,1.2,1.8,2.3,2.7
		l2.5-3.2c-0.8-0.6-1.3-1.2-1.6-1.9c-0.2-0.7-0.1-1.4,0.2-2c0.4-0.7,0.8-1.1,1.5-1.3c0.6-0.2,1.3-0.1,1.9,0.3c0.8,0.4,1.3,1,1.5,1.8
		c0.2,0.8,0,1.7-0.6,2.7l2.9,2.1c0.2-0.8,0.4-1.4,0.6-1.9c0.4-0.7,1-1.2,1.9-1.5c0.8-0.2,1.7-0.1,2.7,0.4c1,0.5,1.7,1.2,2,2.1
		c0.3,0.9,0.3,1.7-0.2,2.5C582.2,444.6,581.6,445.1,580.8,445.4z"/>
	<path class="st0" d="M151.3,465.5c8.8,38.1,28,93.6,70,141.2c9,10.2,18.2,19.3,27.4,27.6c4.1,0.6,8.2,1.2,12.4,1.8
		c-11.6-9.9-23.3-21.1-34.7-33.9c-41-46.5-59.9-100.7-68.4-138c-9.3-40.5-8.9-70.5-8.9-70.8l-0.1-294.3h53.4l0.9-0.6
		c0.6-0.4,58.5-41.2,194.9-42.6c71.1-0.7,122.1,10.7,152.3,20.4c32.7,10.5,48.8,21.4,49,21.5l0.9,0.6H652v277.1l0,0.1
		c0,0.3,0.9,32.2-7,74.4c-7.2,38.8-23.5,94.6-60.1,140c-14.4,17.8-29.5,32.9-44.5,45.7c4.3-0.7,6.8-1.1,7-1.2c2-0.3,3.9-0.7,5.8-1
		c12.5-11.4,25.1-24.4,37.1-39.3c37.5-46.5,54.2-103.5,61.5-143.2c7.8-42,7.1-74,7-75.6V91.5h-56.5c-3.9-2.5-19.9-12.1-49.5-21.6
		C522.1,60,470.3,48.3,398,49c-72.3,0.8-122.3,12.6-151.6,22.3c-27.9,9.3-42.5,18.4-46.3,20.9h-58.1l0.1,301
		C142.2,394.5,141.8,424.2,151.3,465.5z"/>
	<path class="st0" d="M514.8,639.6c19.8-14.4,40.6-32.9,59.9-56.5c34.6-42.3,49.9-94.3,56.7-130.5c7.4-39.3,6.6-69,6.6-69.3l0-0.1
		V124.9c0,0-423.3-0.2-423.9,0.1l-51.3,0l0.1,274.9c0,0.3-0.4,28.2,8.4,66c8.1,34.8,25.9,85.3,64.6,128.6
		c16.2,18.1,33.2,32.8,49.6,44.8c12.4,1.5,24.7,2.8,36.5,4V367.9h72.8l0,281.2c6.3,0.4,9.9,0.6,10.2,0.6l0.1,0l0.1,0
		c1.6,0.1,3.4,0.2,5.4,0.3L626.6,249c-0.1,62.6-0.4,131.3-1,147.5c-0.6,8.2-1.1,100.6-61.5,179.3c-22.4,29.3-50,51.4-76,67.6
		C497.6,642.1,506.7,640.8,514.8,639.6z M173.8,209.7c0,0,11.1,22.7,42.6,29.3c30.7,6.5,29.5,35.1,29.5,35.1v82.3h-72.1V209.7z
		 M249.3,593.2c0,0-41.8-44.8-59.5-103.8c-16.6-55.4-16-121.6-16-121.6h75.5V593.2z M252.1,356.4L252,288c0,0,14-0.5,22.5-5.6
		c7.2-4.3,9-12.1,17.8-17.5c3.1-1.9,9.1-3.5,16.1-4.6c12.7-4,14.4-7.1,14.6-7.6c-0.2,0.6-1.7,5.3-3.2,13.8
		c-0.7,4.1-1.1,15.6-1.1,15.6l0.2,74.3H252.1z M394.9,356.4h-69.3V273c0,0-1-26.8,24.5-34.7c36.9-11.5,44.8-28.9,44.8-28.9V356.4z
		 M394.9,198.6c0,0-7.9,21.2-44.8,32.8c-13.3,4.2-20.3,13.4-24,21.3c1.5-6.1,2.9-12.1,2.9-12.1s-6.8,11.3-20.7,14.9
		c-7,1.1-13.7,2.6-17,4.1c-9.3,4.2-11.2,12.8-17.8,17.8c-5.9,4.5-18.2,4.9-23,4.8l0-15.1c0,0-2.1-27.6-32.8-34.1
		c-31.5-6.7-43.9-34.7-43.9-34.7v-62.2h221.1V198.6z M626.7,154.6v-17.7C626.7,137.4,626.7,143.9,626.7,154.6z M405.2,248.5
		l60.4-112.6h55L405.2,350.4V248.5z M405.2,555.9V454.4l169.5-318.5h52L405.2,555.9z"/>
	<path class="st0" d="M531.6,686.5c-0.5-1.4-1.3-2.5-2.3-3.2c-0.8-0.7-2-1.1-3.3-1.3c-0.3,0.1-0.8-0.1-1.4,0
		c-1.1-0.1-2.5,0.1-4.3,0.2l-3,0.2l1.8,22.8l5.1-0.4c0.8-0.1,1.6-0.1,2.2-0.2c0.8-0.1,1.6-0.3,2.1-0.5c1.1-0.2,2-0.9,2.6-1.6
		c0.8-0.7,1.3-1.9,1.7-3.5c0.3-1.5,0.3-3.8-0.1-6.3C532.5,689.9,532.2,687.9,531.6,686.5z"/>
	<polygon class="st0" points="462.1,690.4 458.4,703 462.9,702.7 467.4,702.5 462.3,690.6 	"/>
	<path class="st0" d="M321.7,692.2c0-1.1-0.2-2.1-0.8-2.9c-0.6-0.7-1.3-1.2-2.4-1.4c-0.5-0.2-1.7-0.2-3.4-0.3c-0.4,0-1-0.1-1.5-0.1
		l-5.2-0.3l-0.4,8.7l4.9,0.2c0.6,0,1.2,0.1,1.8,0.1c2.2-0.1,3.6,0,4.2-0.2c0.8-0.2,1.5-0.7,2.1-1.3
		C321.3,694.1,321.7,693.2,321.7,692.2z"/>
	<path class="st0" d="M743.5,623.6c0,0-24.4-36-30.7-66c0,0-1.1-41.2-56.7-9.6c0,0-62.4,34.2-25.5,61c0,0,5.5,6.8,5.5,8.4
		c0,0-43.5,17.8-87.1,23.5c-35.8,4.6-100.8,14.2-143.5,14.2c-61.2-0.2-199.3-12-241.5-37c0,0,7.1-9.8,9.7-12.3
		c0,0,12.5-8.9,6.6-23.9c0,0-5.7-17.3-35.8-34.2c0,0-48.1-30.1-56.9,7.5c0,0-12.3,47.8-37.1,77.7c-0.3,0.1-4.6,14.2,21.4,21.9
		L83,623.6c0,0,8.4,1.4,23.7,14.1c0,0-2.2,2.6-4.7,5.8c-0.1,8.9,0.8,17.2,1.9,22.4c0.1,0.5,0.2,1,0.4,1.5c1.9,5.2,6.5,9.6,9.3,11.2
		c43.4,24.7,108.7,39.8,155.9,48.1c50.1,8.9,91,12.1,93,12.3l34,0.8l40.6-0.9c2-0.2,42.8-3.4,93-12.3
		c47.2-8.3,112.5-23.4,155.9-48.1c2.8-1.6,7.8-6.1,9.6-12.8c1.6-7.1,3.5-13.6,2.8-22.5c0,0,2.7,3.4,3.5,4.7c0.4,0.7,1.8,3.3,1.8,3.3
		s0.1,6.8-2.5,17.3c-1.9,7.2-9,13.5-12.2,15.3c-44.2,25.1-110.2,40.4-157.9,48.8c-51.6,9.1-93.3,12.3-93.7,12.3l-37.6,0.9l-37.8-0.8
		c-0.4,0-42.2-3.2-93.7-12.3c-47.7-8.4-113.8-23.7-157.9-48.8c-3.2-1.8-10.4-8.3-12.2-15.3c-0.1-0.5-0.2-1-0.3-1.5
		c-0.8-4.8-2-11.3-2.2-15.1c-0.3,0.5-0.6,1-0.8,1.4c0,0-10.5,25.5,17.1,40.1c0,0,110.7,50.2,275.5,57.4c0,0,156.1,5.5,300.7-57.4
		c0,0,39.1-22.1,5.9-55.1c0,0,8.2-10.9,22.1-14.8c0,0,11.4,25.6,11.4,31.6c0,0,11.6-0.6,17.8-9.5
		C745.5,645.7,756.9,639.1,743.5,623.6z M635.1,608.2c20.1,0.1,16.5-27.6,16.5-27.6c0.7-8.7,10.4-7,10.4-7c7.7,2,6.9,14,6.9,14
		c-1.7,15.8-28,28-28,28L635.1,608.2z M158.8,615.7c0,0-26.3-12.3-28-28c0,0-0.8-12,6.9-14c0,0,9.7-1.7,10.4,7
		c0,0-3.6,27.7,16.5,27.6L158.8,615.7z M69,651c0,0-18.9-8.4-13.3-17.8c0,0,33.1-47.8,34.3-69.2c0,0,0.2-2.7,2.4,1.9
		c0,0,7.3,8,8.2,8c0,0,4.3,0.5,2.7,2.7C103.3,576.6,78.2,610.6,69,651z M108.5,632.5c0,0-11.1-11.6-23.4-13.1l2.6-7
		c0,0,18.3,3.4,24.4,14C112.1,626.4,110.9,632.5,108.5,632.5z M90.9,556.2c0,0-0.5-1.2,0-6c0,0,5.1-13,28-6.5
		c0,0,35.3,11.2,50.2,31.4c0,0,19.2,20.3,0.8,29.5c0,0,10.3-14.3-14.8-33.1C155.1,571.5,111.9,533.4,90.9,556.2z M148.3,678.8
		c-1.7-2-3.1-4.3-4-6.8c-2-5.7-1.6-11.9,1.2-17.2c0,0.1,0,0.1,0,0.2c0.1,1.1,0.2,2.1,0.3,3.1c0.7,5.4,3.4,12.5,8.5,14.8
		c-0.5,2.6-2.4,4.7-5.2,5.7C148.9,678.6,148.6,678.7,148.3,678.8z M154.6,650c0.7,1.5,1.8,2.7,3.3,3.3c-0.3,0.5-0.5,1.2-0.7,1.9
		c-0.8,4,1,8.8,6.1,10.4c0.1,1-0.2,2.2-0.9,3.4c-0.8,1.2-1.9,2.2-2.9,2.4c-4.3,1-8.2-1.9-10.4-7.6c-1.2-3.2-1.5-6.3-2-9.6
		c0-0.8-0.1-1.5-0.2-2.3c1.9-2.6,4.4-4.7,7.3-6.2C153.9,647.2,154,648.6,154.6,650z M157,644.4c10-3.5,21,0.9,25.9,10.1
		c-3.1-2.4-7.2-4.2-10.9-4.8c-1.5-0.2-3.3-0.4-5-0.4c-2.9,0-5.8,0.5-7.7,2.2c-1.3-0.3-2.4-1.3-3-2.7
		C155.8,647.4,156,645.8,157,644.4z M149.7,680.4c3.3-1.3,5.6-3.8,6.3-7c1.2,0.2,2.5,0.2,3.9-0.1c1.6-0.4,3.2-1.7,4.3-3.5
		c1-1.6,1.4-3.5,1-5c1.1-1.5,2.4-2.3,3.8-2.4c1.7-0.1,3.2,0.9,4,1.7c3.1,3.3,1,7.3-3.1,12.3c-2.8,3.5-8.7,6.9-13.1,8.3
		C154.2,683.8,151.8,682.3,149.7,680.4z M171.5,684.9c-3.7,1.3-7.5,1.6-11.3,0.9c3.8-1.7,8.7-4.7,11.4-8c2.7-3.3,5.5-7.3,5-11
		c1-1,2.9-1.9,4.8-1.6c1.6,0.2,2.9,1.3,4,3C184.1,675.9,178.8,682.3,171.5,684.9z M181.5,663.5c-0.2,0-0.5,0-0.8,0
		c-1.9,0-3.6,0.7-4.8,1.5c-0.3-0.6-0.8-1.2-1.3-1.8c-1.1-1.1-3.2-2.5-5.7-2.3c-2,0.1-3.8,1.2-5.2,3.1c-3.8-1.3-5.1-4.9-4.5-7.9
		c1.1-5,8.3-4.5,12.5-3.9c5,0.9,10.6,4.1,13.1,7.6c0.5,1.9,0.7,3.8,0.7,5.7C184.4,664.3,183,663.7,181.5,663.5z M241.2,685.6
		c-0.4,1.4-1.2,2.5-2.2,3.4c1.7,1.5,2.5,4,2.1,6.4c-0.9,3.5-4.4,5.6-7.7,4.7c-1-0.3-1.2-0.2-1.9-0.9l-1.8,6.3L189,695.2l1.1-4.1
		l6-22.1h0.2l23.7-12.6l5.3,11.2l-15.9,9.2l-4.9,16.9l10.8,3.5l1-1.8c-0.9,0.1-1.8-0.2-2.7-0.5c-3.3-0.9-5.6-4.2-4.7-7.7
		c0.7-2.5,2.8-4.2,5.1-4.6c-0.5-1.2-0.6-2.6-0.2-4c0.9-3.4,3.3-5.6,6.6-4.7c0.8,0.2,1.4,0.6,2,1c1.2-3.1,4.4-5,7.6-4.1
		c3.1,0.9,5.1,3.5,4.5,6.8c0.8,0,1.5,0,2.3,0.2C240.2,678.7,242.1,682.2,241.2,685.6z M296.5,707.5c-1.5,1.3-3.6,2.4-6.4,3.1
		c-2.7,0.9-5.5,1.3-8.1,1.1c-3.5-0.3-6.6-1.3-9.1-3c-2.5-1.6-4.2-3.9-5.4-6.6c-1-2.9-1.4-5.8-1.2-9.1c0.3-3.5,1.1-6.6,2.8-9.1
		c1.6-2.7,3.9-4.5,6.8-5.8c2.2-0.9,4.9-1.2,8.1-0.9c4.1,0.3,7.3,1.3,9.5,3.4c2.2,1.9,3.5,4.3,3.9,7.4l-6.7,0.7c-0.3-1.6-1.2-3-2.3-4
		c-1.3-1-2.8-1.6-4.8-1.8c-2.9-0.2-5.3,0.5-7.1,2.3c-2,1.7-3,4.4-3.3,8.1c-0.3,4,0.3,7,2,9.1c1.5,2.1,3.8,3.2,6.7,3.5
		c1.4,0.1,2.8-0.1,4.2-0.5c1.4-0.5,2.7-1,3.8-1.7l0.3-4.3l-7.6-0.7l0.4-5.5l14.5,1.1L296.5,707.5z M322.2,716.8l-4.4-7.7
		c-1.6-2.7-2.7-4.4-3.3-5.2c-0.7-0.6-1.3-1.1-1.9-1.5c-0.8-0.4-2-0.4-3.4-0.5l-1.4-0.1l-0.7,14.3l-6.8-0.3l1.7-34.4l13.5,0.7h0.6
		c3.5,0.2,6.1,0.6,7.6,1.3c1.6,0.7,2.8,1.9,3.8,3.5c0.8,1.6,1.2,3.3,1.1,5.4c-0.1,2.5-1,4.7-2.4,6.2c-1.7,1.6-3.9,2.6-6.8,2.8
		c1.3,1,2.5,2,3.4,3c0.9,1.2,2.2,3.1,3.6,5.9l4,7L322.2,716.8z M356.9,690l-17.4-0.4l-0.2,7.6l16.7,0.4l-0.2,5.7l-16.6-0.4l-0.3,9.4
		l18,0.4v5.9l-24.7-0.6l0.9-34.4l23.8,0.6V690z M387.5,719.3h-27.4v-35h26.3v5.5h-18.6v8.8h17.5v5.5h-17.5v9.9h19.7V719.3z
		 M417.1,718.2h-7.8l-11.9-22.1v22.1h-5.5v-33.9h7.5l12.3,22.6v-22.6l5.5-0.1V718.2z M446.7,718.2h-24.1v-33.9h6.6v28.5h17.5V718.2z
		 M473,715.3l-3.3-7.4l-6.5,0.4l-6.5,0.4l-2.3,7.7l-7,0.4l10.9-34.1l3.5-0.2l3.5-0.2l15,32.6L473,715.3z M501.4,713l-14.8-21
		l1.2,21.7l-6.2,0.4l-1.8-33.5l6.5-0.3l14.9,21.5l-1.2-22.3l6.1-0.3l1.9,33.4L501.4,713z M539.8,699.7c-0.8,2.7-1.7,4.7-3.2,6.4
		c-1.2,1.2-2.7,2.3-4.7,3.1c-1.2,0.6-3,0.9-4.9,1.2c-0.5,0-0.8,0.1-1.3,0.1l-13.1,1.1l-2.8-34.6l12.8-1c0.5-0.1,1.1-0.1,1.6,0
		c2.1-0.1,3.7-0.1,5,0.1c2.1,0.5,3.8,1.5,5.5,2.8c1.5,1.4,2.8,3.3,3.6,5.3c1,2.2,1.5,4.9,1.9,8.1
		C540.4,695.1,540.3,697.6,539.8,699.7z M607.8,690.7c-1,0.2-1.1,0.4-2,0.1l1.3,6.5l-39.7,9.2l-0.9-4.2l-4.8-22.4h0.2l14.9-21.9
		l9.7,7.6l-9.6,15.4l3.4,17.2l10.9-1.8v-2c-0.7,0.5-1.6,0.6-2.5,0.8c-3.2,0.7-6.7-1.3-7.5-4.8c-0.6-2.5,0.5-5,2.3-6.4
		c-1-0.9-1.7-2.1-2-3.5c-0.8-3.5,0.3-6.5,3.6-7.2c0.8-0.1,1.5-0.1,2.2,0c-0.4-3.3,1.6-6.4,4.7-7.1c3-0.6,6,0.8,6.9,4
		c0.7-0.4,1.3-0.7,2.1-0.9c3.2-0.7,6.4,1.5,7.2,5c0.3,1.4,0.2,2.8-0.3,4c2.2,0.5,4,2.4,4.4,4.8C613.1,686.6,611.1,690,607.8,690.7z
		 M652.5,647.4c2.9,1.5,5.4,3.6,7.3,6.2c0,0.8-0.1,1.5-0.2,2.3c-0.4,3.3-0.7,6.4-1.9,9.6c-2.2,5.7-6.1,8.6-10.4,7.6
		c-1-0.2-2.1-1.1-2.9-2.4c-0.7-1.1-1.1-2.4-0.9-3.4c5.2-1.6,7-6.4,6.1-10.4c-0.2-0.7-0.4-1.3-0.8-1.9c1.5-0.7,2.6-1.8,3.3-3.3
		C652.8,650.3,652.9,648.8,652.5,647.4z M650.3,650.5c-0.5,1.4-1.6,2.4-2.9,2.7c-3.1-2.6-8.6-2.4-12.7-1.8
		c-3.7,0.6-7.8,2.4-10.9,4.8c3.8-7.1,11.1-11.3,18.9-11.3c2.3,0,4.6,0.4,6.9,1.2C650.6,647.5,650.8,649.1,650.3,650.5z M635.1,653.6
		c4.2-0.7,11.4-1.1,12.5,3.8c0.6,3-0.7,6.6-4.5,7.9c-1.4-1.9-3.2-3-5.2-3.1c-2.5-0.2-4.6,1.1-5.7,2.3c-0.6,0.5-1,1.2-1.3,1.8
		c-1.4-0.9-3.4-1.7-5.6-1.4c-1.5,0.2-2.9,0.9-4,2c0-2,0.2-3.8,0.7-5.7C624.5,657.7,630.1,654.4,635.1,653.6z M635.4,686.6
		c-7.3-2.7-12.6-9.1-13.9-16.7c0.9-1.7,2.3-2.8,3.9-3c1.9-0.2,3.8,0.6,4.8,1.6c-0.5,3.7,2.3,7.7,5,11c2.7,3.3,7.6,6.2,11.5,8
		C642.9,688.2,639,687.9,635.4,686.6z M650,687c-4.4-1.6-10.3-4.9-13.1-8.4c-4-5-6.1-9-3.1-12.3c0.7-0.8,2.1-1.7,3.7-1.7
		c0.1,0,0.2,0,0.3,0c1.4,0.1,2.7,0.9,3.8,2.4c-0.4,1.5,0,3.3,1,5c1.1,1.8,2.7,3.1,4.3,3.5c1.4,0.3,2.7,0.3,3.9,0.1
		c0.7,3.2,3,5.7,6.3,7.1C655.1,684.6,652.6,686,650,687z M662.5,673.7c-0.9,2.5-2.2,4.8-4,6.8c-0.3,0-0.5-0.1-0.8-0.2
		c-2.8-1-4.7-3.1-5.2-5.7c5.1-2.3,7.8-9.4,8.5-14.8c0.1-1,0.2-2,0.3-3c0-0.1,0-0.2,0-0.3C664.1,661.8,664.5,668,662.5,673.7z
		 M674.6,601.4c-3.4,8-15.1,20.6-40.7,30.4h-0.1c-0.4,0.1-40.7,14.1-71.5,18.9c-0.4,0.1-45,7.6-84.6,11.3c-0.5,0-54.1,4.7-78.1,4.1
		c-19.5-0.5-77.6-3.8-78.1-3.8c-39.9-1.9-84.6-11.3-85-11.4c-30.9-4.7-71.4-18.9-71.8-19.1h-0.1c-25.8-9.7-37.5-22.4-40.9-30.4
		c-2.4-5.8,2.5-13.3,2.5-13.3c0.1,2.2,0.9,6.3,1.3,7.1c1.9,4.6,10.3,20,39.1,30.9c10,3.8,40.5,13.9,70.3,19.1
		c0.5,0.1,41.6,7.7,85,11.1c0.4,0.1,48.6,5.4,74.9,4.3c20.8,0,79.8-4.4,80.3-4.4c39.4-3.9,83.7-11.3,84.2-11.3
		c29.8-4.7,68.9-18.2,70.4-18.7c28.9-11.1,37.2-26.3,39.1-30.9c0.3-0.8,1.2-4.8,1.3-7.1C672.1,588.1,677.1,595.6,674.6,601.4z
		 M644.6,571.4c-25.1,18.8-14.8,33.1-14.8,33.1c-18.4-9.2,0.8-29.5,0.8-29.6c14.8-20.1,50.2-31.4,50.2-31.4c22.9-6.5,28,6.5,28,6.5
		c0.5,4.9,0,6,0,6C687.8,533.3,644.6,571.4,644.6,571.4z M691.2,632.3c-2.4,0-3.6-6.1-3.6-6.1c6.2-10.6,24.5-14,24.4-14.1l2.6,7
		C702.3,620.7,691.2,632.3,691.2,632.3z M730.7,650.9c-9.2-40.4-34.3-74.4-34.3-74.4c-1.6-2.2,2.7-2.7,2.7-2.7c0.9,0,8.2-8,8.2-8
		c2.2-4.6,2.4-1.9,2.4-1.9c1.2,21.4,34.3,69.2,34.3,69.2C749.6,642.5,730.7,650.9,730.7,650.9z"/>
</g>
</svg>
