<?xml version="1.0" encoding="utf-8"?>
<!-- Generator: Adobe Illustrator 22.1.0, SVG Export Plug-In . SVG Version: 6.00 Build 0)  -->
<svg version="1.1" id="图层_1" xmlns="http://www.w3.org/2000/svg" xmlns:xlink="http://www.w3.org/1999/xlink" x="0px" y="0px"
	 viewBox="0 0 800 800" style="enable-background:new 0 0 800 800;" xml:space="preserve">
<style type="text/css">
	.st0{fill:#601986;}
</style>
<g>
	<path class="st0" d="M248.9,402.9h22.5l-8.4-12.6h-12.1c-4.5,0-15.1,2.8-15.1,11c0,8.2,0.1,10.9,3.2,14.6
		C239,415.9,244,406.9,248.9,402.9z M246,392.7c0.2,0,0.5,0,0.6,0.2l2.8,2.2l-2,0.1c-0.1,0-0.2,0-0.4-0.1l-4.2-1.8L246,392.7z"/>
	<polygon class="st0" points="275.1,404.4 249.8,404.4 245.2,409.3 277.5,409.3 	"/>
	<path class="st0" d="M94.5,543.7c-25.1,8.5-44.5,6-44.5,6l25.4,18.7l-23.3,23.3c30-3.2,35.7-5.7,35.7-5.7
		C87.1,549,94.5,543.7,94.5,543.7z"/>
	<path class="st0" d="M119.2,550.5l5.3-14.8c-18.7,3.5-26.1,14.1-26.1,14.1C100.5,552.9,119.2,550.5,119.2,550.5z"/>
	<path class="st0" d="M188.4,566l5.7-24.4L162,562.8C158.1,566.3,188.4,566,188.4,566z"/>
	<path class="st0" d="M750,549.7c0,0-19.4,2.5-44.5-6c0,0,7.4,5.3,6.7,42.4c0,0,5.7,2.5,35.7,5.7l-23.3-23.3L750,549.7z"/>
	<path class="st0" d="M701.6,549.7c0,0-7.4-10.6-26.1-14.1l5.3,14.8C680.8,550.5,699.5,552.9,701.6,549.7z"/>
	<path class="st0" d="M666.3,560c0,0-34.3-12.7-45.9-20.1c-6-3.8-9.7-4.8-11.9-4.9c0.2-0.4,0.5-0.7,0.7-1.1c0.2-0.3,0.4-0.6,0.5-0.9
		c0.8-1.3,1.6-2.6,2.3-4c40-69.2,62.3-166.1,36.9-300.5c-9.5-41.3-5.7-64.2-5.7-64.2s-112.8-55.4-242.6-55.4s-242.6,55.4-242.6,55.4
		s3.8,22.9-5.7,64.2c-25.4,134-3.2,230.7,36.5,299.8c0,0,0,0,0,0c1.3,2.3,2.6,4.5,4,6.7c-2-0.2-6,0.4-13,4.9
		c-11.7,7.4-45.9,20.1-45.9,20.1l-37.8-1.4l-3.5,57.2c45.2,2.8,57.9-10.2,57.9-10.2c0.7-24.4-12-42.4-12-42.4
		c21.5-4.7,49.5-23.1,55.1-26.9c2,3.2,3.9,6.3,6,9.4c0,0,0,0,0,0c4.9,7.4,9.9,14.4,15.2,21.1c2.4-0.2,4.9-0.4,7.5-0.7
		c-24.7-30.9-43.4-65.9-55.9-104.4c-21.6-66.9-24.2-145-7.8-231.9c7.3-31.5,7-52.7,6.3-61.7c6.1-2.8,19.1-8.5,37.2-15.1
		c-22.3,86.2-53.1,232.7,4.3,356.2c9.4,20.2,19.8,38.2,30.7,54.3c4.1-1,8.2-2.2,12.2-3.8c3.4-1.4,7-2.7,10.5-3.9
		c-9.8-16.9-19.6-35.9-29-57.2c-40.6-96.7-11.7-248.6,13.4-359.3c39.9-11.6,96.4-23.9,156.6-23.9s116.8,12.3,156.6,23.9
		c25.1,110.8,54,262.6,13.4,359.3c-9.5,21.5-19.4,40.6-29.2,57.6c3.2,1.2,6.4,2.4,9.5,3.6c4,1.6,8.1,2.8,12.3,3.8
		c11-16.1,21.4-34.2,30.7-54.3c57.4-123.7,26.5-270.5,4.1-356.6c18.6,6.8,32,12.7,38.3,15.5c-0.7,9-1,30.2,6.3,61.7
		c16.4,86.8,13.8,164.8-7.7,231.6c-12.5,38.7-31.3,73.8-56.1,104.8c2.6,0.3,5.2,0.5,7.6,0.7c5-6.4,9.8-13.1,14.5-20.1
		c0.8-1.2,1.6-2.4,2.3-3.5c0.2-0.3,0.4-0.7,0.7-1c0.8-1.2,1.5-2.4,2.3-3.6c0.2-0.3,0.4-0.7,0.6-1c0.2-0.3,0.3-0.5,0.5-0.8
		c7,4.7,33.7,21.8,54.4,26.4c0,0-12.7,18-12,42.4c0,0,12.7,13.1,57.9,10.2l-3.5-57.2L666.3,560z"/>
	<path class="st0" d="M638,562.8l-32.1-21.2l5.7,24.4C611.6,566,641.9,566.3,638,562.8z"/>
	<rect x="581.2" y="617.7" class="st0" width="11.6" height="7.3"/>
	<path class="st0" d="M337.4,600.1c0,1.5,0,3.3-0.1,5.1h6v-7h-5.9V600.1z"/>
	<rect x="337.4" y="587.4" class="st0" width="5.9" height="6.8"/>
	<rect x="389.1" y="587.2" class="st0" width="23.3" height="7.9"/>
	<rect x="245" y="601.1" class="st0" width="21.1" height="6.4"/>
	<path class="st0" d="M354.4,606.2c1.5,3.1,3.5,5.8,6,8.1c2.4-2.2,4.5-4.9,5.8-8.1H354.4z"/>
	<rect x="496.1" y="587.9" class="st0" width="14" height="3.4"/>
	<path class="st0" d="M644.5,571.3c0,0-56.9,8.8-90.8-3.2c-33.9-12-69.9-27.9-97.1-12.7c0,0,48.3,13.1-56.7,16.6
		c-105.1-3.5-56.7-16.6-56.7-16.6c-27.2-15.2-63.2,0.7-97.1,12.7c-33.9,12-90.8,3.2-90.8,3.2c6.7,29.3-2.1,86.2-2.1,86.2
		c49.4,9.5,129.3-15.2,148.3-21.2s37.4-0.4,37.4-0.4v7.4c32.6,6.8,59,5.7,61,5.7c2,0.1,28.4,1.1,61-5.7v-7.4c0,0,18.4-5.7,37.4,0.4
		c19.1,6,98.9,30.7,148.3,21.2C646.6,657.5,637.8,600.6,644.5,571.3z M492,584.4h22.5v26.8h3.9v3.9h-31v-3.9h4.5V584.4z
		 M463.8,582.8c2,1.4,4.5,3.4,5.6,4.8l-2.6,2.6c-1.1-1.5-3.5-3.7-5.4-5.1L463.8,582.8z M297.1,587.8H309c-0.5-1.5-1.3-3.2-1.9-4.6
		l4.2-1c0.8,1.8,1.8,4,2.4,5.6h10.9v7.9h-4.1v-4.2h-19.4v4.5h-4V587.8z M323.7,601.7l-2.8,2.9c-1.9-2.1-5.9-5.7-8.9-8.3l2.6-2.4
		C317.6,596.2,321.6,599.7,323.7,601.7z M309.6,595.4c-2.4,3.6-6.4,7.3-9.8,9.7c-0.5-0.8-1.8-2.6-2.6-3.4c3.2-1.9,6.5-4.8,8.6-7.7
		L309.6,595.4z M200.4,631.7h-4.5v-10.1c-3.9,1.7-7.9,3.4-11.1,4.7l-2-4.4c3.2-1.1,8.2-2.9,13.1-4.7v-12.3h-11.6v-4.4h11.6v-10.6
		h4.5V631.7z M220.5,631.2h-7c-4.7,0-6.2-1.6-6.2-7.3v-34h4.6v14.8c4-2.4,7.9-5.4,10.7-7.8l3.2,3.9c-4,2.9-9.1,5.9-13.9,8.5V624
		c0,2.5,0.3,3,2.2,3h6c2,0,2.3-2,2.6-9.6c1.1,0.8,3,1.7,4.2,2C226.5,628,225.3,631.2,220.5,631.2z M237.6,626.2
		c-0.8-0.9-2.3-2.1-3.1-2.8c3-2.5,6.5-6.3,8.2-9.3l4.3,1.5C244.4,619.3,240.8,623.4,237.6,626.2z M257.9,622.7
		c0,2.4-0.5,3.6-2.3,4.2c-1.8,0.7-4.5,0.7-8.5,0.7c-0.2-1.3-0.9-3.1-1.4-4.2c2.8,0.1,5.7,0.1,6.5,0c0.8,0,1-0.2,1-0.8v-11.2h-12.7
		v-14h30v14h-12.7V622.7z M271.9,626.3c-1.6-2.6-5.3-7-8.3-10.1l3.6-2.2c2.9,3,6.7,7.1,8.5,9.8L271.9,626.3z M275.8,594.2h-40.8
		v-4.3h18.7c-0.8-1.5-1.6-3.2-2.5-4.6l4.2-1.4c1.2,1.8,2.7,4.2,3.4,6h16.9V594.2z M291.4,620.1c0,2.2-0.4,3.3-1.6,4
		c-1.3,0.7-3.1,0.8-6.1,0.8c-0.1-1-0.7-2.9-1.2-4c1.8,0,3.6,0,4.1,0c0.6,0,0.8-0.2,0.8-0.8v-10.1l-4.9,1.7l-0.9-4.3
		c1.6-0.5,3.6-1.1,5.8-1.8v-10.5h-5.3v-4h5.3v-8.7h4v8.7h4.5v4h-4.5v9.2l4.2-1.5l0.7,3.9c-1.6,0.6-3.3,1.2-4.9,1.8V620.1z
		 M325.2,623.9h-29.6V620h12.7v-10.7h-9v-3.8h22.6v3.8h-9.2V620h12.5V623.9z M371.5,624.9c-4.3-1.2-8-3-11.2-5.4
		c-3.3,2.3-7,4-11.1,5.3c-0.4-1.1-1.3-2.8-2.1-3.7c-0.1,1.2-0.6,2.1-1.5,2.6c-1.2,0.7-3,0.8-5.9,0.8c-0.1-1.1-0.6-3-1.1-4.1
		c1.8,0,3.4,0,3.9,0c0.6,0,0.8-0.2,0.8-0.8v-10.3h-6.2c-0.4,5.5-1.2,11.3-3.1,15.6c-0.8-0.7-2.6-1.6-3.6-2
		c2.9-6.5,3.1-15.8,3.1-22.7v-16.8h13.7v14.7c4.9-2.7,5.7-6.3,5.7-9.5v-5.1h15v10.5c0,1.3,0,1.8,0.7,1.8h2.4c0.5,0,1.5-0.1,2.1-0.3
		c0,1.1,0.2,2.7,0.3,3.7c-0.6,0.2-1.6,0.3-2.4,0.3h-2.7c-3.5,0-4.3-1.5-4.3-5.5v-6.4h-7.1v1.1c0,4.3-1.2,9.4-6.8,12.7
		c-0.5-0.9-2-2.6-2.8-3.2v21.6c0,0.5,0,0.9,0,1.3c3.6-0.9,7-2.3,10-4.2c-2.7-2.8-4.9-6.2-6.6-10l1.5-0.6h-3.2v-4.1h19.3l0.8-0.1
		l2.5,1.1c-1.6,5.8-4.4,10.2-7.9,13.6c3.1,2.1,6.6,3.5,10.6,4.4C373.3,621.9,372.1,623.7,371.5,624.9z M420.5,623.4h-10.1
		c-9.7,0-16.9-1.8-21.5-9.4c-1.5,3.9-3.7,7.5-6.8,9.9c-0.8-0.9-2.2-2.3-3.1-3c5.3-4.1,7.5-11.9,8.2-18.5l4.6,0.6
		c-0.3,1.9-0.7,3.9-1.2,5.8c1.8,4.3,4.5,7,7.9,8.5v-18h-13.7V583H417v16.3h-14.1v6.6h15.5v4.1h-15.5v8.6c2.4,0.5,5,0.6,7.8,0.6
		c1.7,0,9.2,0,11.5-0.1C421.4,620.1,420.7,622.2,420.5,623.4z M469.4,622.2c-4.6-3.5-7.8-7.3-10-12.2v10.5c0,2.3-0.6,3.6-2,4.3
		c-1.5,0.8-3.7,0.9-7.3,0.9c-0.2-1.1-0.9-3.1-1.5-4.2c2.5,0.1,4.8,0,5.5,0c0.8,0,1-0.3,1-1v-9.6c-3.6,3.6-7.3,7.1-10.4,10l-2.7-3.8
		l0.7-0.5c-4.8,1.6-9.9,3.2-13.9,4.4l-0.9-4.2c1.6-0.4,3.7-1,5.9-1.7v-12.2h-5v-4h5v-9.3h-5.4v-4h14.5v4H438v9.3h4.4v4H438v11
		l5.4-1.6l0.6,3.5c3.1-2.5,7.4-6.1,11.4-9.5v-11.8h-11.1v-4h11.1v-7.8h4.2v7.8h11.9v4h-11.9v1.9c0.5,3.2,1.2,5.9,2,8.4
		c2-2.5,4.2-5.5,5.6-8l3.8,2c-2.5,3.3-5.5,7.1-7.9,9.7c2.1,4.3,4.9,7.6,9.2,10.5C471.1,619.6,469.9,620.9,469.4,622.2z M444.6,598.4
		l3.4-1.5c2,2.6,4.1,6.1,4.9,8.4l-3.6,1.7C448.6,604.6,446.6,601.1,444.6,598.4z M485.2,625.6h-4.2v-25.3c-1.3,1.8-2.7,3.4-4,4.9
		c-0.4-1-1.7-3.4-2.4-4.4c4.4-4.4,8.6-11.2,11.1-18.1l4.1,1.3c-1.3,3.3-2.8,6.6-4.6,9.8V625.6z M490,625.7c-0.7-0.9-1.8-2.3-2.7-3.1
		c3.7-1.9,7.7-4.8,9.9-7.5l3.4,2.4C497.9,620.8,493.8,623.8,490,625.7z M515.7,625.7c-2-2.2-6.3-5.6-9.7-7.8l2.8-2.7
		c3.3,2.2,7.8,5.4,9.9,7.6L515.7,625.7z M525.3,622.8c3.2-2.9,6.8-7.3,9-11.3l4.2,1.4c-2.6,4.5-6.5,9.5-9.6,12.6
		C528,624.8,526.2,623.4,525.3,622.8z M550.1,622.9c0,2.6-0.6,3.9-2.3,4.5c-1.7,0.8-4.3,0.8-8.3,0.8c-0.2-1.2-0.8-3.2-1.5-4.4
		c2.8,0.1,5.6,0.1,6.4,0c0.8,0,1.1-0.2,1.1-1V608h-10.4c-2.9,0-5.1,0.2-5.6,0.7c-0.3-0.9-1-3-1.5-4c0.7-0.2,1.2-1.3,1.6-3
		c0.4-1.5,1.5-7.6,1.5-13c10.7-0.2,23.5-1.1,31-2.9l2.3,3.9c-7.7,1.8-19.1,2.6-29.1,2.9c-0.4,3.8-1.1,7.8-1.9,11.1h11.9v-8.8h4.5
		v8.8h16.6l0,4.4h-16.5V622.9z M564.3,625.4c-1.7-3.1-5.6-8.4-8.8-12.2l3.8-1.6c3.2,3.6,7.2,8.6,9.1,11.8L564.3,625.4z M597.1,630.6
		h-4.3v-1.8h-11.6v2.2h-4.1v-17.2h20V630.6z M599.2,609.9h-24.5v-3.9h6.6c-0.4-2.1-1.6-5.2-2.7-7.5l3.8-1c1.2,2.3,2.4,5.4,2.9,7.5
		l-3.4,1h7c1.2-2.5,2.4-6.1,3.1-8.6h-16v-3.9h9.3c-0.5-1.5-1.1-3.1-1.7-4.5l3.9-1.1c0.9,1.8,1.8,4,2.3,5.6h8.3v3.9h-6.2l4.3,1
		c-1,2.6-2.2,5.4-3.2,7.7h6.2V609.9z M616.2,617.1c0,3-0.7,5.3-2.3,6.4c-0.8,0.6-1.8,0.9-2.9,1c-1.1,0.1-2.5,0.1-3.9,0.1
		c0-1.1-0.4-3-1.1-4.1c1.2,0.1,2.3,0.1,3.1,0.1c0.7,0,1.4-0.2,1.8-0.5c0.9-0.6,1.2-1.9,1.2-3.5c0-2.8-1.1-6.1-5-10.1
		c1.5-3.8,3.3-8.6,4.4-12.3h-6.5V631h-3.9v-40.6h11.9l0.7-0.2l3.1,1.9c-1.6,4.4-3.7,9.7-5.6,14C615.4,610.4,616.2,614,616.2,617.1z"
		/>
	<rect x="496.1" y="607.6" class="st0" width="14" height="3.6"/>
	<rect x="496.1" y="600.9" class="st0" width="14" height="3.6"/>
	<rect x="496.1" y="594.4" class="st0" width="14" height="3.5"/>
	<path class="st0" d="M405.4,187.6l3.2,6.7c3.9-1.5,8.6-3.2,13.2-5v11.2h7.6v-49.6h-7.6v12h-14.3v6.5h14.3v13.2
		C415.7,184.6,409.5,186.5,405.4,187.6z"/>
	<path class="st0" d="M437,150.9V190c0,7.7,2,10,8.9,10h8.1c6.8,0,8.5-4,9.3-14.4c-2-0.4-5.1-1.7-6.9-3c-0.4,8.8-0.8,11-3.1,11H447
		c-2.2,0-2.5-0.4-2.5-3.4v-16c5.9-2.8,12.3-6,17.6-9.3l-5.2-5.9c-3.3,2.6-7.8,5.6-12.4,8.3v-16.4H437z"/>
	<path class="st0" d="M489.1,193.7v5.9H530v-5.9h-16.6v-11.3h12v-5.9h-29.3c4.6-2.8,9.7-7.2,13-11.3l-6.4-2.1
		c-2.7,3.2-7.3,6.3-11.4,8.4c1.1,1.1,3.1,3.6,4,5H494v5.9h11.8v11.3H489.1z"/>
	<path class="st0" d="M470.2,178.5l1.5,6.4l5.8-1.8v10.2c0,0.7-0.3,1-1.1,1c-0.8,0.1-2.9,0.1-5.2,0c0.9,1.8,1.8,4.5,2,6.2
		c4,0.1,6.8-0.2,8.7-1.3c2-1,2.5-2.7,2.5-5.8v-12.4c2.1-0.7,4.3-1.4,6.3-2l-1.2-5.9l-5.1,1.5v-9.8h5.3v-6.2h-5.3v-10.1h-6.9v10.1
		H471v6.2h6.4v11.8C474.7,177.3,472.2,178,470.2,178.5z"/>
	<path class="st0" d="M511,166.8c4.1,2.9,9.7,7,12.3,9.5l4.8-4.5c-2.9-2.4-8.7-6.3-12.5-9L511,166.8z"/>
	<path class="st0" d="M491.2,165.3h6.8v-4.6h23.9v4.4h7.1V155h-14.4c-0.8-2-2-4.6-3.2-6.7l-7.3,1.5c0.8,1.6,1.7,3.4,2.3,5.2h-15.3
		V165.3z"/>
	<path class="st0" d="M330.4,165.3c0-9-7.1-11.8-11.3-11.8c-4.2,0-37.1,0-37.1,0V200c0,0,34.3,0,38.8,0c4.6,0,11.3-6.2,11.3-13.6
		S326,176,321.9,176C321.9,176,330.4,174.4,330.4,165.3z M292.3,160.9c0,0,21.9,0,24.2,0c2.3,0,3.1,3.9,3.1,6.6c0,2.7-1.2,5-3.1,5
		s-24.2,0-24.2,0V160.9z M313.8,193c-3.3,0-21.5,0-21.5,0v-13.6c0,0,15.9,0,21.7,0s6.9,4.8,6.9,7.7C320.9,190,317.1,193,313.8,193z"
		/>
	<path class="st0" d="M358.9,160.2c5.1,0,12.7,0,17.1,0c4.4,0,7.2,4.9,7.2,6.5H394c0,0,0.7-13.2-16.8-13.2c-17.5,0-14.5,0-20.7,0
		s-16.4,5.1-16.4,11.3c0,6.2,0,14.8,0,22.1s7.8,13.6,15.5,13.6c7.8,0,16.6,0,23.7,0s14.5-5.5,14.5-9.9c0-4.4,0-14.9,0-14.9h-27.4
		v6.3h16.1c0,0,0,3.9,0,5.8c0,1.9-3.2,5.3-7.8,5.3c-4.6,0-13.4,0-16.4,0c-3,0-6.5-4.4-6.5-9.9s0-9.7,0-14.1
		C351.8,164.6,353.7,160.2,358.9,160.2z"/>
	<path class="st0" d="M493.8,641.9c-6.5,4.2-12.9,7.9-18.9,11.3c5.2-3.6,10.6-7.6,16.1-11.9c-3.6-0.7-8.1-1.1-12.8-1.2
		c-11.9,11.8-23.1,21-33.1,28.1c-22.7,10.2-39.6,15-44.6,16.4c-4.9-1.3-21.9-6.2-44.8-16.5c-9.9-7.1-21-16.2-32.9-28
		c-5,0-10,0.5-13.9,1.2c3.9,3.1,7.8,6,11.6,8.7c-4.5-2.6-9-5.4-13.7-8.3c-0.9,0.2-1.6,0.4-2.3,0.6c-1.1,0.3-3.1,1-5.7,1.9
		c43.7,28.8,83,41.7,96.5,45.6c0.3,0.1,0.5,0.2,0.8,0.3c2,0.6,3.4,0.9,3.9,1.1c0,0,0,0,0.1,0c0.1,0,0.2,0.1,0.2,0.1
		s47.1-11.2,101.1-46.7c-3-1-5.3-1.8-6.4-2.1C494.8,642.1,494.3,642,493.8,641.9z"/>
	<path class="st0" d="M235.2,307.3c0.5,11.7,28.1,12.7,39.7,15.9c11.7,3.2,36.6,11.1,40.3,22.8c2.1,6.6,2.2,20.7-2,33.4
		c0.8,7.3-5.5,15.3-8.7,18.9h6.9h1.6l-0.6,1.5c-2.2,5.1-6.7,7.5-10.2,8.6c0.2,0,0.4,0,0.6,0c2,0,4.2-0.4,6.7-1.1l4-1.2l-2.9,3
		l-7.4,7.5l-0.4,0.4l-0.5-0.1l-4.4-0.7c0.9,1.3,1.5,2.7,1.5,3.6v7.8v0.4c7.4,5.6,17.3,12.8,20.5,14.1c5.3,2.1,22.6,5.7,32.5,12
		c9.9,6.4,41.3,6.4,47.3,5.7l17.8,4.8L399.4,484l-22.2,1.3l-0.4,0l-0.4,0.1l-1.1,0.3l-2.6-1.4l-5-2.6l-2.5-1.3l-1.9,2.1l-7.3,7.8
		l-3.2,3.5l1.6,0.9l-8.2,6.6l-6,6.7l5.3,0.7l-0.4,0.8c-1.9,3.6,0.5,7,2.1,9.2c0.2,0.2,0.3,0.4,0.5,0.7c1.3,1.8,3.9,3.8,6.3,3.8
		c1.5,0,2.9-0.8,3.7-2.1c0.5-0.9,0.7-2,0.4-3.1h1.7h3h2.1l1.1-1.8l0,0l1.3,2.1l3.3-2.5l2.5-1.9v4l6.5,13.5l0.5-10.3l3.2,1.2l0.4,2.5
		l2.5,0.5l11.8,2.5l4.3,0.9l0.1-4.4c0.2-5,0.6-11.3,1.1-12.6c0.3-0.7,0.5-1.4,0.6-1.9c0.3,0,0.8-0.1,1.5-0.1
		c5.4,0,13.1,2.1,14.7,2.8c0.7,0.3,2.9,3.8,3.6,3.1l0.6,2.7l-1.4,11.7l9.4-9.2l1.2,1.1l2.2,2.1l2.5-1.8l1.2-0.9l2.6-1.9l-1.5-2.9
		l-1.4-2.6l-0.1-0.2c0.5,0.1,1.1,0.2,1.7,0.2c0.2,0,0.3,0,0.5,0c1.5-0.1,6.2-0.3,7.7-4.1c1-2.5,0.1-4.9-1.2-7l1.4-1.3l0.3,1.7
		l0.8,4.6l-2.1,4.6l-4.1,9.3l9.1-4.4c4.4-2.2,7.7-5.6,8.3-8.7c0.3-1.7,1.1-4.6,0.1-5.7c-1.2-1.3-7.6-6.1-7.6-6.1l-3.9-2.6l-15-9.9
		l11.1-11.9l29.1,7.9l-0.4-8.8l17.3,6.7l-10.2-14.5l24.4,3.5l-22.3-25.4l44.1-0.4l-18.4-10.6l50.2,1.1l-21.9-12.4
		c0,0,18.4,2.1,23.7,2.5c5.3,0.4,23.7-18.7,23.7-18.7L459,394.3c0,0,3.9-10.9,17.3-12.7c13.4-1.8,44.5-3.2,44.5-3.2l45.9-36
		l-133.5,6.7l37.1-12.7c0,0-14.1-13.4,57.6-43.4l-118,12.7l4.2-7.4l45.2-17c0,0-11.7-9.2,39.2-53l-98.5,7.9
		c0,0-115.5,36.6-130.3,41.3C254.8,282.4,234.7,295.6,235.2,307.3z M453.2,502.5c0,0,3.6,2.9,4.6,4.1c1.1,1.2-1.2,4.9-6.1,7.3
		l2.5-5.7L453.2,502.5z M301.3,426.5l25.3-20.1l-13.6,16.4l15.2,3.4L301.3,426.5z M315.9,406l11.8-13.4l-4.1,9.5l10.6,1.4L315.9,406
		z M365.8,485l5,2.6l-11.1,5.8l-1.2-0.7L365.8,485z M353.8,517.6c1.9,3.2-1.7,1.8-3.3-0.4c-1.6-2.2-3.3-4.2-2.4-5.9l5-3h1.2
		C354.3,508.2,351.9,514.4,353.8,517.6z M368.1,512.8l-1.1-1.7c0,0,7-7.2,11.7-7.9l1.2,0.7L368.1,512.8z M379.1,517.9h-2.5v-5.7
		l6.5-2.8h1.9l0.5,0.8C385.4,510.2,380,513.5,379.1,517.9z M423.3,508.1c-2.1-1.1-12.4-2.1-17.7-2.1c-5.6,0-4.5,1.8-5.6,4.2
		s-1.4,14-1.4,14l-11.8-2.5l-0.4-2.3l6.5-1.2l-1.6-10.6l-7.9-1.2l11.5-9.2l-23.8,3l-8.5,14.1h-3l1.6-5.7l-7.6-5.7l-5.3,1.3l13-10.5
		l16.1-4.7l23.7-1.4l20.4-22l14.6,3.9l-21.9,21.6c11.3-1.1,16.6,4.2,13.4,3.9c-3.2-0.4-8.1,6.7-8.1,6.7
		C424.7,504.2,425.4,509.1,423.3,508.1z M429.7,518.3l0.9-9.7l-4.2-9.2l10.6,7.1L429.7,518.3z M436.2,519.2l-2.8-2.6v-1.4l2.6,0.5
		l1.4,2.6L436.2,519.2z M429.7,484.9l18.7,12.3l-5.4,5.2l2.3,7.5l-7.8-0.2l3.1-7.2l-13.4-12.8h-5.7l18.1-19.2l2.8,0.8L429.7,484.9z
		 M543.8,351.3L511,369.8c0,0-36.8,6.1-42.9,7.2c-6.1,1.1-13,0.5,40.3-14.6c6.4-2.1-124.8,4-111.5-0.8L543.8,351.3z M504.9,297.2
		c7.1-0.7,6.7-0.7-16.2,9.9c-23,10.6-30.4,12.4-30.4,22.3l-22.6,7.4c0,0,19.4-13.3,24.7-19.9c0,0-45.2,11.4-48.4,11.4
		c-3.2,0-3.9-1.8,48-16.6L333.9,322C333.9,322,497.8,297.9,504.9,297.2z M405.7,243.5l75.2-6.4l-29.7,27.5c0,0-8.5,8.1-3.5,10.6
		c0,0-37.8,14.1-42.7,14.5c-4.9,0.4,25.3-10.2,39.8-23.4c14.5-13.2-2.4-3.4-11.1-0.6c-8.7,2.8-44.6,11.4-44.6,11.4
		s0.4-1.4,22.6-10.7c22.3-9.3,31.5-13.2,36-14.8c4.5-1.6-15.4-5-39.2,1.3c-23.8,6.4-109.1,28.7-109.1,28.7L405.7,243.5z
		 M255.6,295.4c-4.2,2.6-7.2,8.2,5.8,15.4c0,0-20.9-4.8-16.4-10.6c4.5-5.8,19.1-14,39.2-19.9C284.2,280.3,259.9,292.7,255.6,295.4z"
		/>
	<path class="st0" d="M298.3,419.7c0-1.3-1.9-4.5-3.4-5.2l7.6,1.1l7.4-7.5c-2.9,0.9-5.2,1.2-7,1.2c-3.6,0-5.2-1.2-5.2-1.2
		s10.2-0.8,13.8-8.9H302c0,0,12.7-12.1,9.8-21.5c0,0-4.2,5.6-21.2,5.6c-16.8,0-33.9,0-40.1,6c0.1,0,0.3,0,0.4,0h2.2
		c6.8-4.4,22.4-4.4,37.5-4.4c11.2,0,17.1-2.4,20-4.2c0.1,8-9.6,17.4-9.7,17.5l-2.9,2.7h4h6.6c-3.8,5.1-11.1,5.7-11.1,5.7l-4.3,0.3
		l3.4,2.5c0.2,0.2,2.1,1.5,6.1,1.5c0.7,0,1.4,0,2.2-0.1l-3.1,3.1l-6.8-1l-12.6-1.9l11.8,4.9c0.9,0.4,2.4,2.9,2.5,3.7v4.5l-17.5-13.9
		l0,0h-1.7h-0.8l21.6,17.2C298.3,427.5,298.3,421.1,298.3,419.7z"/>
	<path class="st0" d="M276.8,396.6c4.5-7.4,11.1-8.7,11.1-8.7h-20.4c-0.9,0.9-2.5,1.4-3.9,1.6l0.2,0.3l5.9,8.8L276.8,396.6z
		 M267.7,391.9c-0.7,0-1.2-0.6-1.2-1.2s0.6-1.2,1.2-1.2c0.7,0,1.2,0.6,1.2,1.2S268.4,391.9,267.7,391.9z M269.3,394
		c0,0,8.5-1.6,4.7-3.8c-1.7-1,3.4-0.9,4.8-0.6c1.4,0.3-1.8,6.2-8.7,6.6C268.3,396.3,269.3,394,269.3,394z"/>
	<path class="st0" d="M446,565c3.5-7.1,5.5-15.2,5.5-23.7c0-6.7-1.3-13.2-3.5-19.1l-2.8,1.4l-5.2,2.5l1.6-3.6l-0.8,0.6l-1.2,0.9
		l-2.5,1.8l-1.4,1l-1.3-1.2l-0.7-0.7l-5.1,11.3l-13.8,3.2l-11.2-8.2l-2-0.4l-4.3-0.9l-4.4-0.9l-14.4,10.8l-12.4-5l-4.6-13.2l1.8-1.5
		h-0.8H360c-0.1,0.7-0.4,1.4-0.7,2.1c-1.1,2-3.2,3.1-5.5,3.1c-2.3,0-4.6-1.2-6.3-2.8c-2.2,5.9-3.4,12.2-3.4,18.9
		c0,8.3,1.9,16.2,5.3,23.3c1.2,0.1,2.4,0.2,3.8,0.3c-3.1-5.9-5.1-12.5-5.7-19.6l2.9,1.5l8.4,18.4c1.2,0.1,2.4,0.1,3.6,0.2l-8.5-18.7
		l11.3-9.1l12.6,5l6.8,19.1l-2.3,4.2c1.2,0,2.5,0,3.6,0l1.4-2.4l20.6,0.9l1,1.5c1.2,0,2.4,0,3.7,0l-2-3.3l6.1-20.5l15.3-3.5l9.9,7.5
		l-7.8,19.4c1.2,0,2.3-0.1,3.5-0.1l7.4-18.4l3.3-0.3c-0.7,6.6-2.7,12.8-5.7,18.4C443.6,565.2,444.9,565.1,446,565z"/>
</g>
</svg>
