<?xml version="1.0" encoding="utf-8"?>
<!-- Generator: Adobe Illustrator 22.1.0, SVG Export Plug-In . SVG Version: 6.00 Build 0)  -->
<svg version="1.1" id="图层_1" xmlns="http://www.w3.org/2000/svg" xmlns:xlink="http://www.w3.org/1999/xlink" x="0px" y="0px"
	 viewBox="0 0 800 800" style="enable-background:new 0 0 800 800;" xml:space="preserve">
<style type="text/css">
	.st0{fill:#C3162D;}
</style>
<g>
	<path class="st0" d="M663.2,280l-7.4-2.3c-12-3.8-24.2-7.3-36.4-10.6v-36.2v-6.3c16.6-12.9,27.2-21.7,27.3-21.8l26.7-22.2
		l-33.2,9.9c-0.5,0.2-55.3,16.4-91,16.4c-0.3,0-0.7,0-1,0l0,0h0c-19.6,0-37.1-3.1-51.9-9.2c-8.1-3.3-16.3-6.4-24.3-9v-11.1v-9.7
		v-9.7l-9.2,3l-9.2,3l-30.7,9.8l-4.9,1.6l-2,0.6c-6.5-0.7-11-0.7-12.7-0.7c-0.9,0-1.3,0-1.3,0l-1.6,0.1l-1.6-0.1c0,0-0.4,0-1.3,0
		c-1.8,0-6.2,0.1-12.7,0.7l-2-0.6l-4.9-1.6l-30.7-9.8l-9.2-3l-9.2-3v9.7v9.7v11.1c-8,2.7-16.2,5.7-24.3,9
		c-14.8,6.1-32.3,9.2-51.9,9.2h0l0,0c-0.3,0-0.7,0-1,0c-35.7,0-90.4-16.2-91-16.4l-33.2-9.9l26.7,22.2c0.1,0.1,10.7,8.9,27.3,21.8
		v6.3v36.2c-12.2,3.3-24.4,6.8-36.4,10.6l-7.4,2.3l-5,1.6l-5,1.6v5.2v5.2v7.8v142.8v16.2v6v6l5.9,1l5.9,1l25.4,4.3l1.9,0.3l1.9,0.3
		l1.8-0.7l1.8-0.7c3-1.2,6-2.3,9.1-3.4v18.2c0,22.1,9.5,48.2,28.3,77.6c14,21.8,32.9,45.3,56.4,69.9c47.1,49.4,99.3,89.6,127.8,106
		l2.9,1.7l0.3,0.2l3.5,2l3.5-2l0.3-0.2l2.9-1.7c28.5-16.4,80.7-56.6,127.8-106C558,615.5,577,592,591,570.1
		c18.8-29.4,28.3-55.5,28.3-77.6v-18.2c3,1.1,6.1,2.3,9.1,3.4l1.8,0.7l1.8,0.7l1.9-0.3l1.9-0.3l25.4-4.3l5.9-1l5.9-1v-6v-6v-16.2
		V301.3v-7.8v-5.2v-5.2l-5-1.6L663.2,280z M666,293.5v7.8v142.8v16.2v6l-5.9,1l-25.4,4.3l-1.9,0.3l-1.8-0.7
		c-6.1-2.4-12.4-4.7-18.7-6.9v28.3c0,46.1-45,103-82.8,142.6c-46.6,48.9-98.1,88.6-126.2,104.8l-2.9,1.7l-0.3,0.2l-0.3-0.2l-2.9-1.7
		c-28.1-16.2-79.6-55.9-126.2-104.8c-37.8-39.6-82.8-96.5-82.8-142.6v-28.3c-6.3,2.2-12.6,4.5-18.7,6.9l-1.8,0.7l-1.9-0.3l-25.4-4.3
		l-5.9-1v-6v-16.2V301.3v-7.8v-5.2l5-1.6l7.4-2.3c13.6-4.3,27.5-8.3,41.4-11.9v-3.9v-37.8v-7.3l0-2.4
		c-18.3-14.2-29.8-23.8-29.8-23.8s55.9,16.7,93,16.7c0.4,0,0.7,0,1.1,0c20.6,0,38.9-3.3,54.6-9.8c9.6-4,19.2-7.5,28.7-10.4v-16.3
		v-9.7l9.2,3l30.7,9.8l4.9,1.6v1.5c0.5-0.1,1-0.1,1.5-0.2c8.1-1,13.4-1.1,15.3-1.1c0.7,0,1.1,0,1.1,0l1.8,0.1l1.8-0.1
		c0,0,0.4,0,1.1,0c1.9,0,7.3,0.1,15.3,1.1c0.5,0.1,1,0.1,1.5,0.2v-1.5l4.9-1.6l30.7-9.8l9.2-3v9.7v16.3c9.5,3,19.1,6.5,28.7,10.4
		c15.7,6.5,34,9.8,54.6,9.8c0.4,0,0.7,0,1.1,0c37.2,0,93-16.7,93-16.7s-11.5,9.6-29.8,23.8l0,2.4v7.3v37.8v3.9
		c13.9,3.6,27.8,7.6,41.4,11.9l7.4,2.3l5,1.6V293.5z"/>
	<path class="st0" d="M136.2,230.8c0.1,0,0.3-0.1,0.4-0.1c-0.1,0-0.1,0-0.2,0.1C136.3,230.8,136.2,230.8,136.2,230.8z"/>
	<path class="st0" d="M270.6,442.3c-5.5-4.7-14.1-13.4-14.1-13.4c-0.9,0.7,1.9,4.2,1.9,4.2c2.2,2,10.2,10.4,13.2,13.2
		c6.9,6.3,7.1,55.9,40.5,57.5c13.2,0.8-10.8,6.7-6.3,40.3c0.1,0.9-0.3,2.2-0.9,3.6c0,0,0,0,0,0l0,0c0,0,14.8-18.9,23.5-47.3
		c1.8-7.3-2.5-11.5-4-12.1c-1.5-0.6-4.1-4.9-12.1-1c-5.3,2.7-17.4-3.2-25.5-18.2C278.7,454.3,276.6,447.5,270.6,442.3z"/>
	<path class="st0" d="M165.3,376.9c0,4.8,3,6.2,9.1,4.3c12.2-3.7,18.3-5.4,30.5-8.6c6.2-1.6,9.3-4.7,9.3-9.5c0-7.5,0-11.2,0-18.7
		c0-2.6-1.1-4.5-3.3-5.5c-10.1-4.8-20.2-9.4-30.4-13.8c0-5.7,0-8.5,0-14.2c7.4-2.2,11.1-3.2,18.5-5.2c0,5.9,0,8.9,0,14.8
		c6.1-1.6,9.1-2.4,15.2-3.9c0-7,0-10.5,0-17.5c0-4.7-3.1-6.4-9.3-4.8c-12.3,3.2-18.4,4.9-30.5,8.6c-6.1,1.8-9.1,5.2-9.1,10
		c0,7,0,10.4,0,17.4c0,2.5,1.1,4.3,3.3,5.2c10.2,4.3,20.3,8.8,30.3,13.4c0,6.1,0,9.2,0,15.4c-7.4,2-11.1,3-18.5,5.2
		c0-6.4,0-9.6,0-16c-6,1.8-9.1,2.7-15.1,4.6C165.3,365.7,165.3,369.5,165.3,376.9z"/>
	<path class="st0" d="M278.1,357.5c0-26.1,0-52.2,0-78.3c-6.2,1-9.4,1.5-15.6,2.6c0,12.9,0,19.4,0,32.3c-8.4,1.5-12.5,2.3-20.9,4
		c0-12.9,0-19.4,0-32.3c-6.1,1.3-9.2,1.9-15.3,3.3c0,26.1,0,52.2,0,78.3c6.1-1.4,9.2-2.1,15.3-3.3c0-11.7,0-23.4,0-35.1
		c8.3-1.7,12.5-2.5,20.9-4c0,11.7,0,23.4,0,35.1C268.8,359,271.9,358.5,278.1,357.5z"/>
	<path class="st0" d="M333.6,340.4c-11.1,0.9-16.6,1.5-27.6,2.8c0-9.8,0-14.7,0-24.6c9.3-1.1,14-1.6,23.4-2.5c0-4.1,0-6.1,0-10.2
		c-9.4,0.8-14.1,1.3-23.4,2.5c0-9.1,0-13.7,0-22.9c10.9-1.3,16.3-1.9,27.2-2.8c0-4.1,0-6.2,0-10.4c-14.3,1.2-28.5,2.8-42.7,4.8
		c0,26.1,0,52.2,0,78.3c14.3-2,28.7-3.6,43.1-4.9C333.6,346.6,333.6,344.6,333.6,340.4z"/>
	<path class="st0" d="M397.2,269.7c-6.1,0-9.1,0-15.2,0.2c0,14.2,0,28.4,0,42.6c0,1.4,0.3,3.2,1,5.6c-8.3-15.8-16.6-31.6-25-47.4
		c-5.5,0.3-8.2,0.5-13.7,0.8c0,26.1,0,52.2,0,78.3c6.1-0.4,9.1-0.6,15.2-0.9c0-14.5,0-29.1,0-43.6c0-1.4-0.3-3.2-1-5.6
		c8.4,16.1,16.7,32.2,25,48.4c5.5-0.1,8.2-0.1,13.7-0.1C397.2,321.9,397.2,295.8,397.2,269.7z"/>
	<path class="st0" d="M454,339.4c-11.7-0.8-17.6-1.1-29.3-1.5c9.7-19.8,19.4-39.7,29.2-59.5c0-2.7,0-4.1,0-6.8
		c-15.1-1.1-30.3-1.7-45.5-1.9c0,4.2,0,6.3,0,10.6c10.8,0.1,16.1,0.3,26.9,0.8c-9.8,20.2-19.5,40.4-29.2,60.7c0,2.5,0,3.8,0,6.3
		c16,0.2,32,0.8,48,1.9C454,345.8,454,343.7,454,339.4z"/>
	<path class="st0" d="M499.6,354.6c6.3,0.8,9.4,1.3,15.6,2.2c0-26.1,0-52.2,0-78.3c-6.2-1-9.4-1.4-15.6-2.2c0,12.9,0,19.4,0,32.3
		c-8.4-1.1-12.6-1.6-21.1-2.5c0-12.9,0-19.4,0-32.3c-6.2-0.6-9.3-0.9-15.6-1.5c0,26.1,0,52.2,0,78.3c6.2,0.5,9.3,0.8,15.6,1.5
		c0-11.7,0-23.4,0-35.1c8.4,0.9,12.6,1.4,21.1,2.5C499.6,331.2,499.6,342.9,499.6,354.6z"/>
	<path class="st0" d="M569.9,299.2c0-4.1,0-6.2,0-10.4c-14-3.2-28.1-6-42.3-8.4c0,26.1,0,52.2,0,78.3c14.3,2.4,28.5,5.2,42.7,8.4
		c0-4.1,0-6.2,0-10.4c-10.9-2.5-16.3-3.6-27.2-5.7c0-9.8,0-14.7,0-24.6c9.3,1.8,13.9,2.7,23.1,4.8c0-4.1,0-6.1,0-10.2
		c-9.2-2-13.9-3-23.1-4.8c0-9.1,0-13.7,0-22.9C553.8,295.7,559.1,296.8,569.9,299.2z"/>
	<path class="st0" d="M580.7,291.4c0,26.1,0,52.2,0,78.3c6,1.4,8.9,2.2,14.9,3.8c0-14.5,0-29.1,0-43.6c0-1.4-0.3-3.3-1-5.9
		c8.2,18.7,16.3,37.4,24.3,56.1c5.3,1.6,7.9,2.4,13.2,4.1c0-26.1,0-52.2,0-78.3c-5.9-1.9-8.8-2.8-14.7-4.5c0,14.2,0,28.4,0,42.6
		c0,1.4,0.3,3.3,1,5.9c-8-18.4-16.1-36.7-24.3-55.1C588.7,293.4,586.1,292.7,580.7,291.4z"/>
	<path class="st0" d="M304.1,364.2c0-2.3,0-3.4,0-5.6c-12.2,1-18.3,1.5-30.5,2.8c0,14.2,0,28.4,0,42.7c4.5-0.5,6.7-0.7,11.2-1.1
		c0-7.5,0-11.3,0-18.9c6.6-0.6,9.9-0.9,16.5-1.5c0-2.2,0-3.3,0-5.5c-6.6,0.5-9.9,0.8-16.5,1.5c0-5,0-7.6,0-12.6
		C292.5,365.2,296.4,364.8,304.1,364.2z"/>
	<path class="st0" d="M347.3,369.8c0-4,0-6,0-10c0-2.6-2.3-3.8-6.9-3.6c-9.4,0.5-14,0.7-23.4,1.4c-4.4,0.3-6.6,1.8-6.6,4.4
		c0,11.6,0,23.2,0,34.8c0,2.6,2.2,3.7,6.6,3.4c9.3-0.6,14-0.9,23.4-1.4c4.6-0.2,6.9-1.6,6.9-4.2c0-4.2,0-6.3,0-10.6
		c-4.5,0.2-6.7,0.3-11.2,0.5c0,3.6,0,5.4,0,9c-5.8,0.3-8.7,0.5-14.5,0.8c0-12.7,0-19,0-31.7c5.8-0.4,8.7-0.5,14.5-0.8
		c0,3.4,0,5.1,0,8.4C340.6,370.1,342.8,370,347.3,369.8z"/>
	<path class="st0" d="M355.3,398.3c4.3-0.2,6.5-0.2,10.8-0.3c0-2.6,0-4,0-6.6c-4.3,0.1-6.5,0.2-10.8,0.3
		C355.3,394.3,355.3,395.7,355.3,398.3z"/>
	<path class="st0" d="M387.8,397.5c0-14.2,0-28.4,0-42.7c-3.8,0-5.7,0.1-9.5,0.1c-2.3,4.7-3.5,7.1-5.8,11.8c0,0.3,0,0.5,0,0.8
		c1.7,0,2.6-0.1,4.3-0.1c0,12,0,18.1,0,30.1C381.2,397.6,383.4,397.6,387.8,397.5z"/>
	<path class="st0" d="M404.2,397.5c9,0,13.6,0.1,22.6,0.3c4.5,0.1,6.8-1.1,6.8-3.7c0-11.6,0-23.2,0-34.8c0-2.6-2.3-4-6.9-4.1
		c-9.2-0.2-13.8-0.3-22.9-0.3c-4.4,0-6.7,1.3-6.7,3.9c0,6.6,0,9.9,0,16.6c0,2.6,2.2,3.8,6.7,3.8c7.5,0,11.2,0.1,18.7,0.2
		c0,5.1,0,7.7,0,12.8c-5.6-0.1-8.4-0.1-14-0.2c0-3,0-4.5,0-7.5c-4.4,0-6.6,0-11,0c0,3.6,0,5.4,0,9.1
		C397.4,396.2,399.6,397.5,404.2,397.5z M408.1,373.8c0-5.4,0-8.1,0-13.5c5.7,0,8.6,0.1,14.3,0.2c0,5.4,0,8.1,0,13.5
		C416.7,373.9,413.8,373.8,408.1,373.8z"/>
	<path class="st0" d="M449.5,398.5c9,0.4,13.5,0.6,22.6,1.1c4.5,0.3,6.7-0.9,6.7-3.5c0-11.6,0-23.2,0-34.8c0-2.6-2.3-4.1-6.8-4.4
		c-9.2-0.5-13.7-0.8-22.9-1.1c-4.4-0.2-6.7,1.1-6.7,3.7c0,6.6,0,9.9,0,16.6c0,2.6,2.2,3.9,6.7,4.1c7.5,0.3,11.2,0.5,18.6,0.9
		c0,5.1,0,7.7,0,12.8c-5.6-0.3-8.4-0.5-14-0.7c0-3,0-4.5,0-7.5c-4.4-0.2-6.6-0.3-11-0.4c0,3.6,0,5.4,0,9.1
		C442.7,396.9,444.9,398.3,449.5,398.5z M453.3,374.9c0-5.4,0-8.1,0-13.5c5.7,0.3,8.6,0.4,14.3,0.7c0,5.4,0,8.1,0,13.5
		C461.9,375.3,459.1,375.2,453.3,374.9z"/>
	<path class="st0" d="M520.1,403.4c0-3.2,0-4.8,0-8c2.3,0.2,3.4,0.3,5.7,0.6c0-2.2,0-3.3,0-5.4c-2.3-0.2-3.4-0.4-5.7-0.6
		c0-5.1,0-7.7,0-12.8c-4.3-0.4-6.4-0.6-10.6-1c0,5.1,0,7.7,0,12.8c-4.8-0.4-7.2-0.6-12-1c7-11,10.5-16.5,17.4-27.4c0,0,0-0.1,0-0.2
		c-4.5-0.4-6.8-0.6-11.4-1c-6.2,9.8-12.4,19.6-18.6,29.4c0,1.5,0,2.3,0,3.8c9.8,0.7,14.7,1.1,24.5,2c0,3.2,0,4.8,0,8
		C513.7,402.8,515.9,403,520.1,403.4z"/>
	<path class="st0" d="M195.5,401.8C195.5,401.8,195.5,401.8,195.5,401.8c3-5,4.7-2.9,8-4.6c5.9-4.1-2.4-11-6.8-12.5
		c-4.3-1.5-7.1-3.5-7.1-3.5c0,0,0,0,0,0c0,0,0,0,0,0c0,0-1.3,3.1-4.3,6.3c-3,3.3-6.7,12.9,0.7,13.8
		C189.8,401.4,190.2,398.7,195.5,401.8C195.5,401.8,195.5,401.8,195.5,401.8z"/>
	<path class="st0" d="M224,406.7c-1.8-3.3-10.8-10.8-17.3-7.5c-2.9,2,0.1,3.3-7.1,5.1c0,0,0,0,0,0c0,0,0,0,0,0
		c4.3,3.9,0.6,4,0.8,6.8c1.7,5.3,15.1,3.9,19.5,2.6c4.5-1.3,8.8-1.1,8.8-1.1c0,0,0,0,0,0c0,0,0,0,0,0
		C228.7,412.7,225.8,410.1,224,406.7z"/>
	<path class="st0" d="M179.8,422.6c4.8-0.8,17.5-5.1,16.2-10.5c-1.3-2.5-4.6-1-2.9-6.3c0,0,0,0,0,0c0,0,0,0,0,0
		c-7.3,1.6-5.4-0.8-9-1.3c-7.6,0-11.9,10.3-11.8,13.9c0.1,3.6-1.2,7-1.2,7c0,0,0,0,0,0c0,0,0,0,0,0
		C171.1,425.4,175,423.3,179.8,422.6z"/>
	<path class="st0" d="M197.5,403.1c0.1,0,0.1,0,0.2-0.1c4.2-2.6,6.4-3.8,10.6-6c0.2-0.1,0.3-0.3,0.1-0.5c-0.2-0.1-0.5-0.2-0.7-0.1
		c-4.3,2.2-6.4,3.4-10.6,6.1c-0.2,0.1-0.3,0.4-0.1,0.5C197.1,403.1,197.3,403.2,197.5,403.1z"/>
	<path class="st0" d="M209.5,395.7c0.1,0.4,0.7,0.7,1.3,0.6c0.6-0.1,1-0.4,0.9-0.9c-0.1-0.4-0.7-0.7-1.3-0.6
		C209.7,394.9,209.3,395.3,209.5,395.7z"/>
	<path class="st0" d="M182.1,402.3c-0.3,0-0.5,0.1-0.6,0.3c-0.1,0.2,0.1,0.4,0.3,0.4c4.9,0.2,7.4,0.4,12.4,1.1
		c0.3,0,0.5-0.1,0.6-0.3c0.1-0.1,0-0.3-0.1-0.3c-0.1,0-0.1-0.1-0.2-0.1C189.5,402.7,187,402.5,182.1,402.3z"/>
	<path class="st0" d="M178.4,402.1c-0.4,0.4-0.4,0.9,0,1.1c0.4,0.2,1.1,0.1,1.5-0.3c0.4-0.4,0.4-0.9,0-1.1
		C179.5,401.5,178.9,401.7,178.4,402.1z"/>
	<path class="st0" d="M199.2,414.5c0.3-0.1,0.4-0.3,0.4-0.4c-1.1-3.5-1.6-5.3-2.7-8.8c-0.1-0.2-0.3-0.3-0.6-0.2
		c-0.2,0-0.3,0.2-0.4,0.3c0,0.1,0,0.1,0,0.2c1.1,3.5,1.6,5.3,2.7,8.8C198.7,414.5,199,414.6,199.2,414.5z"/>
	<path class="st0" d="M199.3,417c0.6,0.1,1.2-0.2,1.3-0.7c0.2-0.4-0.2-0.8-0.8-0.9c-0.6-0.1-1.2,0.2-1.3,0.7
		C198.4,416.6,198.7,417,199.3,417z"/>
	<path class="st0" d="M599.3,384.6c-4.3,1.5-12.4,8.5-6.5,12.7c3.3,1.8,5-0.4,8.1,4.8c0,0,0,0,0,0c0,0,0,0,0,0
		c5.1-3.1,5.6-0.4,9.4-0.4c7.2-0.9,3.5-10.9,0.4-14.3c-3-3.4-4.4-6.5-4.4-6.5c0,0,0,0,0,0c0,0,0,0,0,0
		C606.3,381,603.6,383.1,599.3,384.6z"/>
	<path class="st0" d="M623.7,419.6c0.1-3.7-4.2-14.5-11.7-14.5c-3.5,0.5-1.6,3-8.9,1.2c0,0,0,0,0,0c0,0,0,0,0,0
		c1.8,5.5-1.6,3.8-2.7,6.4c-1.2,5.6,11.3,10.3,16,11.2s8.5,3,8.5,3c0,0,0,0,0,0c0,0,0,0,0,0C625,426.9,623.7,423.3,623.7,419.6z"/>
	<path class="st0" d="M572.4,406.5c-1.7,3.3-4.6,5.9-4.6,5.9c0,0,0,0,0,0c0,0,0,0,0,0c0,0,4.4-0.1,8.9,1.4
		c4.5,1.5,17.8,3.3,19.4-2.1c0.2-2.8-3.5-3,0.7-7c0,0,0,0,0,0c0,0,0,0,0,0c-7.2-1.9-4.3-3.2-7.2-5.3
		C583,395.7,574.1,403.2,572.4,406.5z"/>
	<path class="st0" d="M601.9,403.5c-0.3,0-0.4,0.2-0.3,0.4c0.1,0.1,0.2,0.3,0.4,0.3c0.1,0,0.1,0,0.2,0c5-0.4,7.5-0.5,12.4-0.4
		c0.3,0,0.4-0.2,0.3-0.4s-0.3-0.4-0.6-0.4C609.5,403,607,403.1,601.9,403.5z"/>
	<path class="st0" d="M618.4,404c0.1-0.4-0.3-0.9-0.8-1.2c-0.6-0.2-1.1-0.1-1.2,0.4c-0.1,0.4,0.3,0.9,0.8,1.1
		C617.7,404.5,618.3,404.4,618.4,404z"/>
	<path class="st0" d="M588.4,396.4c-0.2,0.1-0.1,0.4,0.1,0.5c4.1,2.5,6.2,3.8,10.3,6.7c0.2,0.1,0.5,0.2,0.7,0
		c0.1-0.1,0.1-0.2,0.1-0.4c0-0.1-0.1-0.1-0.1-0.1c-4.1-2.9-6.1-4.3-10.3-6.8C588.9,396.2,588.6,396.3,588.4,396.4z"/>
	<path class="st0" d="M586,394.4c-0.6,0.2-0.8,0.6-0.6,1c0.2,0.4,0.9,0.6,1.5,0.4c0.6-0.2,0.8-0.6,0.6-1
		C587.2,394.5,586.6,394.3,586,394.4z"/>
	<path class="st0" d="M600.5,405.9c0-0.2-0.1-0.4-0.4-0.5c-0.2,0-0.4,0-0.5,0.1c0,0-0.1,0.1-0.1,0.1c-0.9,3.7-1.3,5.5-2.2,9.1
		c0,0.2,0.1,0.4,0.4,0.5c0.3,0.1,0.5,0,0.6-0.2C599.2,411.4,599.6,409.5,600.5,405.9z"/>
	<path class="st0" d="M597.8,416.4c-0.5-0.3-1.2-0.3-1.5,0s-0.2,0.8,0.2,1.1c0.5,0.3,1.2,0.3,1.5,0
		C598.4,417.2,598.3,416.7,597.8,416.4z"/>
	<polygon class="st0" points="364.7,157.8 399.7,132.4 434.7,157.8 421.4,116.7 456.4,91.2 413.1,91.2 399.7,50 386.3,91.2 
		343,91.2 378,116.7 	"/>
	<path class="st0" d="M390.5,612.8c-2.5-2.5-5.6-4-8.8-4.3c-0.6-0.1-1.1-0.1-1.7-0.1c-12.4,0-22.7,12.7-26.4,17.3
		c-0.1,0.1-0.1,0.3-0.2,0.4c-1.7,3.8-4.4,9.6-15.7,9.6c-9.6,0-36.3-1.2-44.3-3.5c-7.7-2.2-11.1-13.1-14.6-24.6
		c-0.8-2.6-1.6-5.2-2.5-7.6c-4.5-10.3-3.7-18.6,2.4-24.7l0.2-0.2l0.2-0.2c1.7-1.3,7.6-7.4,13.4-14.6c7.7-9.7,9.8-14.6,9.8-15.9
		c-2.7-20.6,4.7-31.7,8.6-37.2c-25.7-1.9-33.1-29.6-37.6-46.3c-1.3-4.9-2.9-11-4.2-12.1c-1.6-1.5-4.4-4.3-7.1-7.1
		c-0.3-0.3-0.6-0.6-0.9-0.9c-12.2,2.7-23.1,5.4-32.6,8c-13.4,3.7-24.9,7.5-34.3,10.8c0,13,0,24.3,0,32.8
		c0,54.2,68.9,131.5,131.2,185.7c14-4.1,34.5-11.6,51.1-23.9C404.4,633.5,393.5,618,390.5,612.8z"/>
	<path class="st0" d="M299.1,459.8c5.2,6.4,13.2,11.5,17.8,11.5c0.7,0,1.4-0.1,1.9-0.4c4.4-3.6,10.1-4,14.1-4c2.7,0,5.6,0.2,8.5,0.5
		c7.5-6.2,14-8.8,22.2-8.8c2.2,0,4.4,0.2,6.6,0.4c13.5-8.7,26.2-12.9,39-12.9c16,0,29.1,6.7,41.1,13.8c24.4-1.8,33.6-13.2,42.3-25.8
		c-32.2-4.9-64.6-7.4-97.1-7.4c-45.5,0-85.9,5-118.6,11.2C286.3,445.9,295.2,455.1,299.1,459.8z"/>
	<path class="st0" d="M518.9,453.4c-4.6,34.1-18,47-28,51.9c0,0,66.2,18.7,98.1,36.4c0.5,0.3,1.1,0.5,1.6,0.8
		c9.2-17.8,14.6-34.8,14.6-50c0-8.1,0-18.7,0-30.9c-27.1-9.2-54.5-16.6-82.2-22.2C521.3,443.5,519.9,448.1,518.9,453.4z"/>
	<path class="st0" d="M479.4,504.8c0,0,28.9,1.2,36-52c7.1-36,30.7-44.9,34.5-50.5c1.7-1.2,3.2-3.8,1.3-5v0c0,0-26.4,10.4-44.5,40.9
		c-18.5,26.4-41.3,59.4-57.9,41.7c-16.5-17.7-68.1-4.9-99.8,44.5c-2.8,3.7-3.7-1-3.9-3.1c-0.2-2.2,0-16.7,0-19.1s-3.1-1.6-3.9,1.6
		s-12.4,20.5-13.2,43.3c-0.4,16.9-7.9,21.6-12.4,25.4c-4.5,3.7-13.4,19.7,1.4,33.1c3.1,3.5,0,6.5-3.9,8.9
		c-2.6,1.6-14.2,8.4-21.6,12.7c0.9,0.8,1.8,1.4,2.9,1.7c7.5,2.2,33.7,3.3,43.3,3.3s11-4.5,12.8-8.3c4.7-5.9,16.5-20.3,31.5-18.9
		s27.9,23.6,8.7,50.8c-16.9,22.2-51.6,33.5-51.6,33.5l56.8,42.4c1.3,0.8,2.6,1.6,3.8,2.3c45.2-26.1,143.6-108.9,185.7-181.7
		l-2.6-1.9C582.7,550.2,529,523.1,479.4,504.8z M404.4,511.3c-3.7,0.7-5.9,1.3-3.6,3.1c2.3,1.8,7.5,9.2,3.6,16.4
		c-3.7,6.3-13.6,6.1-15.8,6.1c-2.2,0-14.9,0-31.7-2.1c-2.4-0.4,0.7-2.5,1.8-3.4c1.1-0.9,4.1-6.1,4.1-6.1s1.3-1.3,2.9,0.4
		c1.5,1.7,11.6,6.1,15.8,2.2s4.6-9.2,2.1-11.8c-2.5-2.6-7.7-2.7-8.7-1.8c-1,0.9-1.4-0.9-0.7-2c0.7-1.1,1.7-1.7,1.7-1.7
		s7.9-2.8,15.2-2.8c7.3,0,14,0,14,0S409.2,510.3,404.4,511.3z"/>
	<path class="st0" d="M605.1,278c0-6,0-9.4,0-9.4v-37.8l-18.6,0.7c-2.8,1.2-5.8,2.3-8.9,3.3l-79.9,2.9l-7-2.2
		c-1.6-0.6-3.2-1.1-4.7-1.8c-0.5-0.2-1.1-0.4-1.6-0.6l-11.4,1.2v10.4c0,0,0.4,0,1.2,0.1c-1.6-0.1-3.2-0.3-4.8-0.4V232h-11.8v-6.4
		c-11.2-2.6-21.8-4.4-30.7-5.7c0,6.8,0,12.1,0,12.1h-2.4l-9,9.6c-5.2-0.1-10.4-0.2-15.8-0.2c-5.3,0-10.6,0.1-15.8,0.2l-9-9.6h-2.4
		c0,0,0-5.3,0-12.1c-8.9,1.3-19.5,3.1-30.7,5.7v6.4H330v12.4c-1.6,0.1-3.2,0.3-4.8,0.4c0.8-0.1,1.2-0.1,1.2-0.1v-10.4l-11.4-1.2
		c-0.5,0.2-1.1,0.4-1.6,0.6c-1.6,0.6-3.1,1.2-4.7,1.8l-7,2.2l-79.9-2.9c-3.1-1-6.1-2.1-8.9-3.3l-18.6-0.7v37.8c0,0,0,2.9,0,8
		c-29.7,7.8-46.3,14.5-47.1,14.8l-6.6,2.7v7.2v142.8v14.5l0.1,0l23.4,5.8c0,0,33.8-16.5,91.3-29.6c-1.5-1.6-3.1-4.3-2.4-6.8
		c0,0,0,0,0.1,0c0,0,0-0.1,0-0.1c0.6-1.6,2.2-2.7,4-2.7c1,0,2.2,0.3,3.5,1l0.1,0l0.1,0.1c0.1,0,0.1,0.1,0.2,0.1c0.1,0,0.2,0,0.3-0.1
		c2.6,1.5,5.3,3.4,8.1,5.4c58-11.7,136.7-18.9,227.5-4.5c1.9-2.8,3.9-5.5,6.2-8c0.1,0,0.1,0,0.2,0c0.9-1,1.8-1.9,2.7-2.9
		c2.4-2.3,5-4.5,7.7-6.4c-80.7-11.5-192.4-13.9-320.1,21.2c-6.5,1.8-13.1,3.7-19.6,5.7c-0.5,0.2-1,0.3-1.5,0.5
		c-3.2,1-6.3,1.9-9.5,2.9c-0.6,0.2-1.2,0.4-1.8,0.6c-3.3,1-6.5,2.1-9.8,3.2V301.3c0,0,195.3-79,454-12.3c0,0,0,0,0,0
		c0.4,0.1,0.7,0.2,1.1,0.3c3.2,0.8,6.4,1.7,9.6,2.5c0,0,0.1,0,0.1,0c3.2,0.9,6.4,1.8,9.6,2.7c0.6,0.2,1.2,0.3,1.8,0.5
		c3.1,0.9,6.2,1.8,9.4,2.7c0.6,0.2,1.2,0.4,1.8,0.5c3.3,1,6.5,2,9.8,3v142.8c0,0-15.3-6.7-43.1-14.7c0,0,0,0,0,0
		c-17-4.9-38.6-10.3-64.2-14.9c-2.8,2.4-5.9,5.4-8.8,9c-0.1,0-0.1,0-0.2,0c-2.1,2.6-4.1,5.7-6,9.2c34.4,7.1,70.4,17.4,107.5,31.8
		l25.4-4.3l-0.1-0.1l0.1,0v-15.9V301.3v-7.8l-7.4-2.3C636.1,286.3,620.7,281.9,605.1,278z"/>
	<path class="st0" d="M221.8,232.3l79.9,2.9l7-2.2c1.6-0.6,3.2-1.1,4.7-1.8c40.2-14.1,83.9-16.4,83.9-16.4v-0.5h0v-12.6v-12.2
		c0,0-8.9-0.3-24.8,2.4c0-0.5,0-0.9,0-1.2c0-3.5-16.5-8.3-30.7-8.3V199c-9.9,2.9-21,6.7-33.1,11.7c-47.4,19.6-103.8,5.9-117.4,2.1
		c-2.4-0.9-3.6-1.5-3.6-1.5c0.2,0.2,0.4,0.5,0.6,0.7c-0.4-0.2-0.6-0.2-0.6-0.2C193,219.4,205.5,227,221.8,232.3z"/>
	<path class="st0" d="M490.6,233l7,2.2l79.9-2.9c16.3-5.3,28.8-12.9,34-20.5c0,0-0.2,0.1-0.6,0.2c0.2-0.2,0.4-0.5,0.6-0.7
		c0,0-1.3,0.6-3.6,1.5c-13.6,3.8-70,17.5-117.4-2.1c-12.1-5-23.1-8.8-33.1-11.7v-21.5l-30.7,9.8c0,0,0,4,0,4.5
		c-15.9-2.7-24.8-2.4-24.8-2.4v12.2v0.5h0v12.6c0,0,43.7,2.4,83.9,16.4C487.5,231.9,489.1,232.5,490.6,233z"/>
</g>
</svg>
