<?xml version="1.0" encoding="utf-8"?>
<!-- Generator: Adobe Illustrator 22.1.0, SVG Export Plug-In . SVG Version: 6.00 Build 0)  -->
<svg version="1.1" id="图层_1" xmlns="http://www.w3.org/2000/svg" xmlns:xlink="http://www.w3.org/1999/xlink" x="0px" y="0px"
	 viewBox="0 0 800 800" style="enable-background:new 0 0 800 800;" xml:space="preserve">
<style type="text/css">
	.st0{fill:#C3162D;}
</style>
<g>
	<path class="st0" d="M662.9,279.9l-7.4-2.3c-12-3.8-24.2-7.3-36.4-10.6v-36.2v-6.3c16.6-12.9,27.2-21.7,27.3-21.8l26.7-22.2
		l-33.2,9.9c-0.5,0.2-55.3,16.4-91,16.4c-0.3,0-0.7,0-1,0c-19.6,0-37.1-3.1-51.9-9.2c-8.1-3.3-16.3-6.4-24.3-9v-11.1v-9.7v-9.7h-0.1
		l-9.2,3l-9.2,3l-30.7,9.8l-4.9,1.6l-2,0.6c-6.5-0.7-11-0.7-12.7-0.7c-0.9,0-1.3,0-1.3,0l-1.6,0.1l-1.6-0.1c0,0-0.4,0-1.3,0
		c-1.8,0-6.2,0.1-12.7,0.7l-2-0.6l-4.9-1.6l-30.7-9.8l-9.2-3l-9.2-3v9.7v9.7v11.1c-8,2.7-16.2,5.7-24.3,9
		c-14.8,6.1-32.3,9.2-51.9,9.2c-0.3,0-0.7,0-1,0c-35.7,0-90.4-16.2-91-16.4l-33.2-9.9l26.7,22.2c0.1,0.1,10.7,8.9,27.3,21.8v6.3V267
		c-12.2,3.3-24.4,6.8-36.4,10.6l-7.4,2.3l-5,1.6l-5,1.6v5.2v5.2v7.8v142.8v16.2v6v6l5.9,1l5.9,1l25.4,4.3l1.9,0.3l1.9,0.3l1.8-0.7
		l1.8-0.7c3-1.2,6-2.3,9.1-3.4v18.2c0,22.1,9.5,48.2,28.3,77.6c14,21.8,32.9,45.3,56.4,69.9c47.1,49.4,99.3,89.6,127.8,106l2.9,1.7
		l0.3,0.2l3.5,2l3.5-2l0.3-0.2l2.9-1.7c28.5-16.4,80.7-56.6,127.8-106c23.3-24.6,42.3-48.1,56.3-70c18.8-29.4,28.3-55.5,28.3-77.6
		v-18.2c3,1.1,6.1,2.3,9.1,3.4l1.8,0.7l1.8,0.7l1.9-0.3l1.9-0.3l25.4-4.3l5.9-1l5.9-1v-6v-6V444V301.3v-7.8v-5.2v-5.2l-5-1.6
		L662.9,279.9z M665.9,293.4v7.8V444v16.2v6l-5.9,1l-25.4,4.3l-1.9,0.3l-1.8-0.7c-6.1-2.4-12.4-4.7-18.7-6.9v28.3
		c0,46.1-45,103-82.8,142.6c-46.6,48.9-98.1,88.6-126.2,104.8l-2.9,1.7l-0.3,0.2l-0.3-0.2l-2.9-1.7
		c-28.1-16.2-79.6-55.9-126.2-104.8c-37.8-39.6-82.8-96.5-82.8-142.6v-28.3c-6.3,2.2-12.6,4.5-18.7,6.9l-1.8,0.7l-1.9-0.3l-25.4-4.3
		l-5.9-1v-6V444V301.3v-7.8v-5.2l5-1.6l7.4-2.3c13.6-4.3,27.5-8.3,41.4-11.9v-3.9v-37.8v-7.3v-2.4c-18.3-14.2-29.8-23.8-29.8-23.8
		s55.9,16.7,93,16.7c0.4,0,0.7,0,1.1,0c20.6,0,38.9-3.3,54.6-9.7c9.6-4,19.2-7.5,28.7-10.4v-16.3v-9.7l9.2,3l30.7,9.8l4.9,1.6v1.5
		c0.5-0.1,1-0.1,1.5-0.2c8.1-1,13.4-1.1,15.3-1.1c0.7,0,1.1,0,1.1,0l1.8,0.1l1.8-0.1c0,0,0.4,0,1.1,0c1.9,0,7.3,0.1,15.3,1.1
		c0.5,0.1,1,0.1,1.5,0.2v-1.5l4.9-1.6l30.7-9.8l9.2-3.1v9.7v16.3c9.5,3,19.1,6.5,28.7,10.4c15.7,6.5,34,9.7,54.6,9.7
		c0.4,0,0.7,0,1.1,0c37.2,0,93-16.7,93-16.7s-11.5,9.6-29.8,23.8v2.4v7.3v37.8v3.9c13.9,3.6,27.8,7.6,41.4,11.9l7.4,2.3l5,1.6V293.4
		z"/>
	<path class="st0" d="M136.2,230.8c0,0-0.1,0-0.1,0.1C136.1,230.9,136.1,230.8,136.2,230.8z"/>
	<path class="st0" d="M136.3,230.7c0,0,0.1,0,0.1,0C136.4,230.7,136.4,230.7,136.3,230.7z"/>
	<path class="st0" d="M136.3,230.7c-0.1,0-0.1,0-0.2,0.1C136.2,230.8,136.2,230.8,136.3,230.7C136.3,230.8,136.3,230.7,136.3,230.7z
		"/>
	<path class="st0" d="M194.2,213.9c0.5,0.2,1.1,0.4,1.7,0.6c0.1,0,0.2,0.1,0.2,0.1c0.6,0.2,1.2,0.4,1.9,0.6h0.1
		c0.6,0.2,1.3,0.4,2,0.6c0.1,0,0.2,0.1,0.2,0.1c0.7,0.2,1.4,0.4,2.1,0.7c0.1,0,0.3,0.1,0.4,0.1c0.7,0.2,1.5,0.4,2.2,0.7
		c0.1,0,0.3,0.1,0.4,0.1c0.8,0.2,1.6,0.4,2.4,0.7c0.1,0,0.1,0,0.2,0c0.8,0.2,1.7,0.5,2.6,0.7c0.2,0,0.4,0.1,0.5,0.1
		c0.9,0.2,1.7,0.4,2.6,0.7c0.2,0,0.4,0.1,0.6,0.1c0.9,0.2,1.9,0.4,2.8,0.7c0.1,0,0.3,0.1,0.4,0.1c0.9,0.2,1.8,0.4,2.7,0.6
		c0.2,0,0.4,0.1,0.6,0.1c1,0.2,2,0.4,3,0.6c0.3,0,0.5,0.1,0.8,0.1c1,0.2,2.1,0.4,3.1,0.5c0.2,0,0.4,0.1,0.7,0.1c1,0.2,2,0.3,3.1,0.5
		c0.1,0,0.3,0,0.4,0.1c1.1,0.2,2.2,0.3,3.4,0.5c0.3,0,0.5,0.1,0.8,0.1c1.1,0.1,2.3,0.3,3.4,0.4c0.3,0,0.5,0.1,0.8,0.1
		c1.2,0.1,2.4,0.2,3.6,0.3c0.1,0,0.3,0,0.4,0c1.2,0.1,2.3,0.2,3.5,0.3c0.2,0,0.5,0,0.7,0c1.2,0.1,2.5,0.1,3.7,0.2c0.3,0,0.6,0,0.9,0
		c1.3,0,2.5,0.1,3.8,0.1c0.2,0,0.4,0,0.7,0c1.2,0,2.5,0,3.8,0c0.2,0,0.3,0,0.5,0c1.3,0,2.7-0.1,4-0.1c0.3,0,0.6,0,0.8,0
		c1.3-0.1,2.7-0.1,4-0.2c0.3,0,0.5,0,0.8-0.1c1.4-0.1,2.8-0.2,4.2-0.3c0.1,0,0.1,0,0.2,0c1.4-0.1,2.8-0.3,4.2-0.5
		c0.2,0,0.5-0.1,0.7-0.1c1.4-0.2,2.8-0.4,4.2-0.6c0.3,0,0.6-0.1,0.9-0.1c1.4-0.2,2.8-0.5,4.3-0.7c0.2,0,0.4-0.1,0.6-0.1
		c1.4-0.3,2.8-0.6,4.2-0.9c0.2,0,0.3-0.1,0.5-0.1c1.5-0.3,2.9-0.7,4.4-1.1c0.3-0.1,0.6-0.1,0.8-0.2c1.4-0.4,2.9-0.8,4.3-1.2
		c0.3-0.1,0.5-0.2,0.8-0.2c1.5-0.5,3-0.9,4.5-1.5c57.6-17.3,79.1-15.6,86.8-15.6v-12.2c0,0.1-8.9-0.2-24.8,2.5c0-0.5,0-0.9,0-1.2
		c0-3.5-16.5-8.3-30.7-8.3V199c-9.9,2.9-21,6.7-33.1,11.7c-47.4,19.6-103.8,5.9-117.4,2.1C192,213.1,193,213.5,194.2,213.9
		L194.2,213.9z"/>
	<path class="st0" d="M488.8,217.2c1.5,0.6,3,1,4.5,1.5c0.3,0,0.5,0.1,0.8,0.2c1.4,0.4,2.9,0.8,4.3,1.2c0.2,0.1,0.5,0.1,0.8,0.2
		c1.5,0.4,2.9,0.8,4.4,1.1c0.2,0,0.3,0.1,0.5,0.1c1.4,0.3,2.8,0.6,4.2,0.9c0.2,0,0.4,0.1,0.6,0.1c1.5,0.2,2.9,0.5,4.3,0.7
		c0.3,0,0.6,0.1,0.9,0.1c1.4,0.2,2.8,0.4,4.2,0.6c0.2,0,0.5,0.1,0.7,0.1c1.4,0.2,2.8,0.4,4.2,0.5c0.1,0,0.1,0,0.2,0
		c1.4,0.1,2.8,0.2,4.2,0.3c0.3,0.1,0.5,0.1,0.8,0.1c1.3,0.1,2.7,0.1,4,0.2c0.2,0,0.5,0,0.8,0c1.3,0,2.7,0.1,4,0.1c0.2,0,0.3,0,0.5,0
		c1.3,0,2.6,0,3.8,0c0.3,0,0.5,0,0.7,0c1.3,0,2.5-0.1,3.8-0.1c0.3,0,0.6,0,0.9,0c1.2-0.1,2.5-0.1,3.7-0.2c0.2,0,0.5,0,0.7,0
		c1.2-0.1,2.3-0.2,3.5-0.3c0.1,0,0.3,0,0.4,0c1.2-0.1,2.4-0.2,3.6-0.3c0.3,0,0.5-0.1,0.8-0.1c1.1-0.1,2.3-0.3,3.4-0.4
		c0.3,0,0.5-0.1,0.8-0.1c1.2-0.2,2.3-0.3,3.4-0.5c0.1-0.1,0.3-0.1,0.4-0.1c1.1-0.2,2.1-0.3,3.1-0.5c0.3,0,0.5-0.1,0.7-0.1
		c1-0.1,2.1-0.3,3.1-0.5c0.3,0,0.5-0.1,0.8-0.1c1-0.2,2-0.4,3-0.6c0.2,0,0.4-0.1,0.6-0.1c0.9-0.2,1.8-0.4,2.7-0.6
		c0.1,0,0.3-0.1,0.4-0.1c0.9-0.3,1.9-0.5,2.8-0.7c0.2,0,0.4-0.1,0.6-0.1c0.9-0.3,1.7-0.5,2.6-0.7c0.1,0,0.3-0.1,0.5-0.1
		c0.9-0.2,1.8-0.5,2.6-0.7c0.1,0,0.1,0,0.2,0c0.8-0.3,1.6-0.5,2.4-0.7c0.1,0,0.3-0.1,0.4-0.1c0.7-0.3,1.5-0.5,2.2-0.7
		c0.1,0,0.3-0.1,0.4-0.1c0.7-0.3,1.4-0.5,2.1-0.7c0,0,0.1-0.1,0.2-0.1c0.7-0.2,1.4-0.4,2-0.6h0.1c0.7-0.2,1.3-0.4,1.9-0.6
		c0,0,0.1-0.1,0.2-0.1c0.6-0.2,1.2-0.4,1.7-0.6h0.1c1.2-0.4,2.2-0.8,3-1.1c-13.6,3.8-70,17.5-117.4-2.1c-12.1-5-23.2-8.8-33.1-11.7
		v-21.4l-30.7,9.8c0,0,0,4,0,4.5c-15.9-2.7-24.8-2.4-24.8-2.5v12.2C409.6,201.6,431.1,199.9,488.8,217.2z"/>
	<path class="st0" d="M604.8,278c0-5.9,0-9.3,0-9.3v-37.8l-107.3,3.8l-1,12.5c-8.7-1-17.8-2-27.3-2.8V232h-11.8v-9.4
		c-11.2-2.6-21.8-4.4-30.7-5.7c0,8.2,0,15.1,0,15.1h-2.4v9.8c-8.1-0.2-16.3-0.4-24.8-0.4s-16.7,0.1-24.8,0.4V232h-2.4
		c0,0,0-6.9,0-15.1c-8.9,1.3-19.5,3.1-30.7,5.7v9.4h-11.7v12.4c-9.5,0.8-18.6,1.7-27.3,2.8l-1-12.5L194,230.9v37.8c0,0,0,2.9,0,8
		c-29.5,7.8-46.1,14.4-46.9,14.7l-6.6,2.7v7.2v142.8v14.7l14-4.7c13.1-4.4,26.3-8.4,39.5-12c0,20.5,0,38.4,0,50.6
		c0,79.2,147,207.6,205.4,241.3c0.1-0.1,0.2-0.1,0.4-0.2c0,0,0,0,0,0c1.4-0.8,2.9-1.7,4.4-2.6c6-3.7,12.9-8.2,20.2-13.5
		c0.9-0.7,1.9-1.3,2.8-2c2.8-2,5.7-4.2,8.7-6.4c1-0.7,2-1.5,3-2.3c2-1.5,4-3.1,6.1-4.7c2.1-1.6,4.1-3.3,6.2-4.9
		c2.1-1.7,4.2-3.4,6.3-5.2c2.1-1.8,4.3-3.5,6.4-5.4c7.6-6.4,15.3-13.1,23.1-20.2c2.2-2,4.4-4.1,6.7-6.1c2.2-2.1,4.4-4.2,6.6-6.3
		c1.1-1.1,2.2-2.1,3.3-3.2c4.4-4.3,8.8-8.6,13.1-13c1.1-1.1,2.2-2.2,3.2-3.3c6.5-6.7,12.8-13.4,18.9-20.3
		c18.3-20.6,34.6-41.9,46.4-62.3l-0.1-0.1c12.2-21.2,19.6-41.5,19.6-59.3c0-12.5,0-31.1,0-52.3c24.9,7.3,38.8,13.2,39.1,13.4
		l14.9,6.5v-16.2V301.3v-7.8l-7.4-2.3C635.9,286.3,620.4,281.9,604.8,278z M199,268.7v-32.6l98,3.5l0.6,8.1l0.4,5.2l5.2-0.7
		c7.9-1,16.8-1.9,27.1-2.8l4.6-0.4v-4.6V237h6.7h5v-5v-5.4c6.5-1.4,13.4-2.7,20.7-3.9v9.3v5h2.4v4.8v5.2l5.2-0.2
		c7.3-0.3,15.1-0.4,24.6-0.4c8.5,0,16.7,0.2,24.7,0.4l5.1,0.1v-5.1V237h2.4v-5v-9.3c7.3,1.2,14.2,2.4,20.7,3.9v5.4v5h5h6.8v7.4v4.6
		l4.6,0.4c9.6,0.8,18.7,1.8,27.1,2.8l5.1,0.6l0.4-5.2l0.6-8.1l97.7-3.5v32.6v8C532.5,260,463.8,251.6,395,251.6
		c-42.6,0-108.3,3.4-179.6,19.8c-5.8,1.3-11.3,2.7-16.4,4V268.7z M294.3,624.1l-1.1-0.9c-2.8-3.5-5.1-11-7.2-17.6
		c-0.8-2.7-1.7-5.5-2.6-8.1l-0.1-0.1l-0.1-0.1c-1.5-3.5-2.3-6.6-2.3-9.3c0-2.9,0.9-5.2,2.9-7.3c4.3-3.5,26.6-27.2,25.9-37l0-0.1
		l0-0.1c-0.1-0.8-0.2-1.5-0.2-2.3c5.1-7.9,13.3-22.3,18.9-40.6c1.8-7.3-2.5-11.5-4-12.1c-1.5-0.6-4.1-4.8-12.1-1
		c-5.3,2.6-17.4-3.3-25.5-18.2c-3-5.5-5.2-10-7-13.6c-0.8-2.8-1.5-5.3-2.3-7.3c6.8,6.2,12.8,12.4,15.8,16.1
		c5.6,6.9,15.4,14.3,23.6,14.3c2.2,0,4.3-0.5,6-1.6l0.3-0.2l0.2-0.2c2-1.7,4.9-2.5,9.4-2.5c2.8,0,5.8,0.3,9,0.6l0.2,0l1.7,0.2
		l1.3-1.1c7.5-6.6,12.8-8,18.3-8c2.2,0,4.6,0.2,7.1,0.5l1.4,0.1l1.2-0.8c12.6-8.3,24.3-12.4,35.9-12.4c14.5,0,26.4,6.3,38.2,13.3
		l1.1,0.6l1.2-0.1c30.5-1.9,41.3-17.8,50.9-31.9c3.4-5.1,6.7-9.9,10.7-13.8c7.8-7.6,18.2-13,26.3-16.5c-9.1,6.3-21.1,16.8-30.7,33
		c-18.5,26.4-41.4,59.5-57.8,41.7c-16.6-17.7-68.1-4.9-99.8,44.5c-2.7,3.8-3.7-0.9-3.9-3.1c-0.2-2.2,0-16.8,0-19.1s-3.1-1.5-3.9,1.6
		c-0.8,3.2-12.4,20.5-13.2,43.3c-0.4,16.9-7.9,21.7-12.4,25.4c-4.5,3.8-13.4,19.7,1.4,33.1c3.2,3.6,0,6.5-3.9,8.9
		c-2.2,1.3-10.6,6.3-17.6,10.3C295.2,624.7,294.7,624.5,294.3,624.1z M388.6,536.8c-2.2,0-14.9,0-31.7-2.1c-2.4-0.4,0.7-2.5,1.8-3.4
		s4.1-6.1,4.1-6.1s1.3-1.3,2.9,0.4c1.5,1.7,11.6,6.1,15.8,2.2c4.2-3.9,4.6-9.2,2.1-11.8s-7.7-2.7-8.7-1.8s-1.4-0.9-0.7-2
		c0.6-1.1,1.6-1.7,1.6-1.7s7.9-2.8,15.2-2.8s14,0,14,0s4.1,2.6-0.6,3.5c-3.7,0.7-5.9,1.3-3.6,3.1c2.3,1.8,7.5,9.2,3.6,16.4
		C400.7,537,390.8,536.8,388.6,536.8z M648.2,444.1L648.2,444.1L648.2,444.1c0,0-15.4-6.7-43.4-14.8c0,0,0,0,0,0
		c-1.6-0.5-3.3-0.9-5-1.4v0c-16.1-4.5-35.9-9.2-58.9-13.4c-2.9,2.5-6,5.5-9,9.2c27.1,4.7,50,10.2,67.9,15.3v53.7
		c0,15.8-6.4,34.9-18.9,56.6c-3.7-1.9-13.2-6.5-25.9-12.5c-1.1-0.5-2.3-1.1-3.5-1.6c-2.4-1.1-4.9-2.3-7.5-3.5
		c-3.2-1.5-6.6-3-10.1-4.6c-0.7-0.3-1.4-0.6-2.1-0.9c-2.1-0.9-4.3-1.9-6.4-2.8c-4.4-1.9-8.8-3.8-13.4-5.8c-1.5-0.6-3-1.3-4.6-1.9
		c-0.8-0.3-1.5-0.6-2.3-1c-8.5-3.5-17.1-6.9-25.6-10c0,0,0,0,0,0c0,0,0,0,0,0c0,0,0,0,0.1,0c0,0,0,0,0,0c0,0,0,0,0,0c0,0,0,0,0,0
		c0,0,0.1,0,0.1,0c0,0,0,0,0.1,0c0,0,0.1,0,0.1,0c0,0,0.1,0,0.1,0c0,0,0.1,0,0.1,0c0,0,0.1,0,0.1,0c0,0,0.1,0,0.1,0c0,0,0.1,0,0.1,0
		c0,0,0.1,0,0.2,0c0,0,0.1,0,0.1,0c0.1,0,0.1,0,0.2,0c0,0,0.1,0,0.1,0c0.1,0,0.1,0,0.2,0c0.1,0,0.1,0,0.2,0c0.1,0,0.1,0,0.2,0
		c0.1,0,0.1,0,0.2,0c0.1,0,0.1,0,0.2,0c0.1,0,0.1,0,0.2,0c0.1,0,0.2,0,0.2,0c0.1,0,0.1,0,0.2,0c0.1,0,0.2,0,0.3-0.1
		c0.1,0,0.1,0,0.2,0c0.1,0,0.2,0,0.3-0.1c0.1,0,0.1,0,0.2,0c0.1,0,0.2,0,0.3-0.1c0.1,0,0.1,0,0.2-0.1c0.1,0,0.2-0.1,0.3-0.1
		c0.1,0,0.1,0,0.2-0.1c0.1,0,0.2-0.1,0.4-0.1c0.1,0,0.1,0,0.2-0.1c0.2,0,0.3-0.1,0.5-0.1c0,0,0.1,0,0.1,0c0.2-0.1,0.4-0.1,0.6-0.2
		c0,0,0.1,0,0.1,0c0.2-0.1,0.3-0.1,0.5-0.2c0.1,0,0.1-0.1,0.2-0.1c0.1-0.1,0.3-0.1,0.4-0.2c0.1,0,0.2-0.1,0.2-0.1
		c0.1-0.1,0.3-0.1,0.4-0.2c0.1,0,0.2-0.1,0.3-0.1c0.1-0.1,0.3-0.1,0.4-0.2c0.1,0,0.2-0.1,0.3-0.1c0.1-0.1,0.3-0.1,0.4-0.2
		c0.1-0.1,0.2-0.1,0.3-0.2c0.1-0.1,0.3-0.1,0.4-0.2c0.1-0.1,0.2-0.1,0.3-0.2c0.1-0.1,0.3-0.1,0.4-0.2c0.1-0.1,0.2-0.1,0.3-0.2
		c0.1-0.1,0.3-0.2,0.4-0.2c0.1-0.1,0.2-0.1,0.3-0.2c0.1-0.1,0.3-0.2,0.4-0.2c0.1-0.1,0.2-0.1,0.3-0.2c0.1-0.1,0.3-0.2,0.4-0.3
		c0.1-0.1,0.2-0.2,0.3-0.2c0.1-0.1,0.3-0.2,0.4-0.3c0.1-0.1,0.2-0.2,0.3-0.2c0.1-0.1,0.3-0.2,0.4-0.3c0.1-0.1,0.2-0.2,0.3-0.3
		c0.1-0.1,0.3-0.2,0.4-0.3c0.1-0.1,0.2-0.2,0.3-0.3c0.1-0.1,0.3-0.2,0.4-0.3c0.1-0.1,0.2-0.2,0.3-0.3c0.1-0.1,0.3-0.2,0.4-0.4
		c0.1-0.1,0.2-0.2,0.3-0.3c0.1-0.1,0.3-0.3,0.4-0.4c0.1-0.1,0.2-0.2,0.3-0.3c0.1-0.1,0.3-0.3,0.4-0.4c0.1-0.1,0.2-0.2,0.3-0.3
		c0.1-0.1,0.3-0.3,0.4-0.5c0.1-0.1,0.2-0.2,0.3-0.4c0.1-0.2,0.3-0.3,0.4-0.5c0.1-0.1,0.2-0.2,0.3-0.4c0.2-0.2,0.3-0.4,0.5-0.6
		c0.1-0.1,0.2-0.2,0.3-0.3c0.2-0.2,0.4-0.4,0.5-0.7c0.1-0.1,0.1-0.2,0.2-0.3c0.2-0.3,0.5-0.7,0.7-1c0,0,0-0.1,0.1-0.1
		c0.2-0.3,0.4-0.6,0.7-1c0.1-0.1,0.2-0.3,0.3-0.4c0.2-0.2,0.3-0.5,0.5-0.7c0.1-0.2,0.2-0.3,0.3-0.5c0.1-0.2,0.3-0.5,0.4-0.7
		c0.1-0.2,0.2-0.3,0.3-0.5c0.1-0.2,0.3-0.5,0.4-0.7c0.1-0.2,0.2-0.4,0.3-0.6c0.1-0.2,0.3-0.5,0.4-0.7c0.1-0.2,0.2-0.4,0.3-0.6
		c0.1-0.2,0.3-0.5,0.4-0.7c0.1-0.2,0.2-0.4,0.3-0.6c0.1-0.2,0.2-0.5,0.4-0.8c0.1-0.2,0.2-0.4,0.3-0.6c0.1-0.3,0.2-0.5,0.4-0.8
		c0.1-0.2,0.2-0.5,0.3-0.7c0.1-0.3,0.2-0.5,0.3-0.8c0.1-0.2,0.2-0.5,0.3-0.7c0.1-0.3,0.2-0.6,0.3-0.8c0.1-0.2,0.2-0.5,0.3-0.7
		c0.1-0.3,0.2-0.6,0.3-0.9c0.1-0.3,0.2-0.5,0.3-0.8c0.1-0.3,0.2-0.6,0.3-0.9c0.1-0.3,0.2-0.5,0.3-0.8c0.1-0.3,0.2-0.6,0.3-0.9
		c0.1-0.3,0.2-0.6,0.3-0.8c0.1-0.3,0.2-0.7,0.3-1c0.1-0.3,0.2-0.6,0.3-0.9c0.1-0.3,0.2-0.7,0.3-1c0.1-0.3,0.2-0.6,0.2-0.9
		c0.1-0.4,0.2-0.7,0.3-1.1c0.1-0.3,0.2-0.6,0.2-0.9c0.1-0.4,0.2-0.7,0.3-1.1c0.1-0.3,0.1-0.6,0.2-0.9c0.1-0.4,0.2-0.8,0.3-1.2
		c0.1-0.3,0.1-0.6,0.2-0.9c0.1-0.4,0.2-0.8,0.2-1.2c0.1-0.3,0.1-0.6,0.2-0.9c0.1-0.4,0.2-0.9,0.2-1.4c0.1-0.3,0.1-0.6,0.2-0.9
		c0.1-0.5,0.2-1,0.2-1.6c0-0.3,0.1-0.5,0.1-0.8c0.1-0.8,0.2-1.6,0.3-2.4c7.1-36,30.7-44.9,34.5-50.5c1.3-0.9,2.5-2.7,2.1-4
		c-0.1-0.3-0.2-0.5-0.5-0.7c-0.1-0.1-0.2-0.2-0.4-0.3c-0.5-0.3-1.1-0.5-2-0.6c0,0-13,3.6-26.2,11.3c-0.6,0.3-1.1,0.7-1.7,1
		c-1.1,0.7-2.3,1.4-3.4,2.2c-3.4,2.3-6.7,4.9-9.6,7.7c-1,1-1.9,2-2.8,3c-0.9,1-1.8,2.1-2.6,3.2c-0.8,1.1-1.7,2.2-2.5,3.4
		c-2.8,4-5.5,8.3-8.6,12.4c-0.4,0.6-0.9,1.2-1.3,1.7c-0.9,1.2-1.8,2.3-2.8,3.4c-0.5,0.6-1,1.1-1.5,1.7c-1,1.1-2.1,2.1-3.3,3.2
		c-0.6,0.5-1.2,1-1.8,1.5c-2.4,2-5.1,3.7-8.2,5.3c-6.1,3.1-13.8,5.2-23.6,5.8c-0.7-0.4-1.3-0.8-2-1.2c-0.2-0.1-0.4-0.2-0.6-0.4
		c-0.5-0.3-0.9-0.5-1.4-0.8c-0.3-0.1-0.5-0.3-0.8-0.4c-0.4-0.2-0.9-0.5-1.3-0.7c-0.3-0.1-0.5-0.3-0.8-0.4c-0.5-0.2-0.9-0.5-1.4-0.7
		c-0.3-0.1-0.5-0.3-0.8-0.4c-0.5-0.3-1.1-0.5-1.6-0.8c-0.2-0.1-0.4-0.2-0.6-0.3c-0.7-0.4-1.5-0.7-2.2-1.1c-0.1-0.1-0.3-0.1-0.4-0.2
		c-0.6-0.3-1.2-0.6-1.9-0.8c-0.3-0.1-0.5-0.2-0.8-0.3c-0.5-0.2-1-0.4-1.5-0.6c-0.3-0.1-0.6-0.2-0.9-0.3c-0.5-0.2-1-0.4-1.5-0.6
		c-0.3-0.1-0.6-0.2-0.9-0.3c-0.5-0.2-1.1-0.4-1.6-0.5c-0.3-0.1-0.5-0.2-0.8-0.3c-0.7-0.2-1.4-0.4-2-0.6c-0.1,0-0.3-0.1-0.4-0.1
		c-0.8-0.2-1.7-0.4-2.5-0.6c-0.2,0-0.5-0.1-0.7-0.1c-0.6-0.1-1.2-0.2-1.9-0.4c-0.3-0.1-0.6-0.1-0.9-0.1c-0.6-0.1-1.1-0.2-1.7-0.2
		c-0.3,0-0.7-0.1-1-0.1c-0.6-0.1-1.1-0.1-1.7-0.1c-0.3,0-0.7,0-1-0.1c-0.6,0-1.3,0-1.9-0.1c-0.2,0-0.5,0-0.7,0c-0.1,0-0.2,0-0.2,0
		c-0.2,0-0.5,0-0.7,0c-0.5,0-1.1,0-1.6,0.1c-0.3,0-0.6,0-0.9,0.1c-0.5,0-1.1,0.1-1.6,0.1c-0.3,0-0.6,0.1-0.9,0.1
		c-0.6,0.1-1.2,0.1-1.8,0.2c-0.2,0-0.5,0.1-0.7,0.1c-0.8,0.1-1.7,0.3-2.5,0.5c-0.1,0-0.3,0.1-0.4,0.1c-0.7,0.1-1.4,0.3-2.1,0.5
		c-0.3,0.1-0.6,0.2-0.9,0.2c-0.6,0.2-1.2,0.3-1.8,0.5c-0.3,0.1-0.6,0.2-1,0.3c-0.6,0.2-1.2,0.4-1.8,0.6c-0.3,0.1-0.6,0.2-0.9,0.3
		c-0.7,0.3-1.5,0.5-2.2,0.8c-0.2,0.1-0.3,0.1-0.5,0.2c-0.9,0.4-1.8,0.8-2.8,1.2c-0.2,0.1-0.5,0.2-0.7,0.4c-0.7,0.3-1.4,0.7-2.1,1
		c-0.3,0.2-0.7,0.3-1,0.5c-0.6,0.3-1.3,0.7-1.9,1c-0.4,0.2-0.7,0.4-1.1,0.6c-0.7,0.4-1.3,0.8-2,1.2c-0.3,0.2-0.6,0.4-0.9,0.6
		c-1,0.6-2,1.2-3,1.9c-0.7-0.1-1.3-0.1-1.9-0.2c0,0-0.1,0-0.1,0c-0.6-0.1-1.2-0.1-1.8-0.1c0,0-0.1,0-0.1,0c-0.6,0-1.1-0.1-1.7-0.1
		c-0.1,0-0.1,0-0.2,0c-0.5,0-1.1,0-1.6,0c0,0-0.1,0-0.1,0c0,0-0.1,0-0.1,0c-0.3,0-0.7,0-1,0c0,0-0.1,0-0.1,0c-0.4,0-0.7,0-1.1,0.1
		c-0.1,0-0.2,0-0.3,0c-0.3,0-0.6,0.1-0.9,0.1c-0.1,0-0.1,0-0.2,0c-0.4,0-0.7,0.1-1.1,0.2c-0.1,0-0.2,0-0.3,0.1
		c-0.3,0.1-0.6,0.1-0.9,0.2c-0.1,0-0.2,0-0.2,0c-0.4,0.1-0.7,0.2-1.1,0.3c-0.1,0-0.2,0.1-0.3,0.1c-0.3,0.1-0.6,0.2-0.9,0.3
		c-0.1,0-0.2,0.1-0.3,0.1c-0.4,0.1-0.7,0.3-1.1,0.4c-0.1,0-0.2,0.1-0.3,0.1c-0.3,0.1-0.6,0.3-0.9,0.4c-0.1,0-0.2,0.1-0.3,0.1
		c-0.4,0.2-0.8,0.4-1.1,0.6c-0.1,0-0.2,0.1-0.2,0.1c-0.3,0.2-0.6,0.3-1,0.5c-0.1,0.1-0.2,0.1-0.3,0.2c-0.4,0.2-0.8,0.5-1.2,0.7
		c-0.1,0-0.1,0.1-0.2,0.1c-0.3,0.2-0.7,0.5-1.1,0.7c-0.1,0.1-0.2,0.2-0.3,0.2c-0.4,0.3-0.8,0.6-1.3,0.9c0,0-0.1,0.1-0.1,0.1
		c-0.4,0.3-0.8,0.6-1.2,1c-0.1,0.1-0.2,0.2-0.3,0.3c-0.4,0.4-0.9,0.8-1.4,1.2c-0.7-0.1-1.4-0.1-2.1-0.2c-0.2,0-0.4,0-0.6-0.1
		c-0.7-0.1-1.5-0.1-2.2-0.2c-0.1,0-0.2,0-0.3,0c-0.6,0-1.3-0.1-1.9-0.1c-0.1,0-0.3,0-0.4,0c-0.7,0-1.4,0-2,0c-0.1,0-0.1,0-0.2,0
		c-0.1,0-0.2,0-0.4,0c-0.4,0-0.7,0-1.1,0c-0.2,0-0.4,0-0.6,0c-0.3,0-0.7,0-1,0.1c-0.2,0-0.4,0-0.5,0c-0.4,0-0.8,0.1-1.2,0.2
		c-0.1,0-0.2,0-0.3,0c-0.5,0.1-1,0.2-1.4,0.3c-0.1,0-0.2,0.1-0.4,0.1c-0.3,0.1-0.7,0.2-1,0.3c-0.2,0.1-0.3,0.1-0.5,0.2
		c-0.3,0.1-0.6,0.2-0.8,0.4c-0.2,0.1-0.3,0.1-0.5,0.2c-0.3,0.1-0.6,0.3-0.8,0.5c-0.1,0.1-0.3,0.2-0.4,0.2c-0.4,0.3-0.8,0.5-1.1,0.8
		c0,0,0,0,0,0c-0.3,0.2-0.5,0.3-0.8,0.4c-0.1,0-0.1,0.1-0.2,0.1c-0.2,0.1-0.5,0.2-0.7,0.2c0,0-0.1,0-0.1,0c-0.3,0.1-0.6,0.1-0.9,0.2
		c-0.1,0-0.2,0-0.2,0c-0.3,0-0.5,0-0.8,0c-0.1,0-0.1,0-0.2,0c-0.4,0-0.7,0-1.1-0.1c-0.1,0-0.2,0-0.2,0c-0.4,0-0.8-0.1-1.1-0.2
		c0,0-0.1,0-0.1,0c-0.4-0.1-0.8-0.2-1.1-0.3c-0.1,0-0.1,0-0.2-0.1c-0.4-0.1-0.8-0.3-1.2-0.4c-0.1,0-0.2-0.1-0.2-0.1
		c-0.4-0.2-0.8-0.3-1.2-0.5c0,0,0,0,0,0c-0.4-0.2-0.8-0.4-1.2-0.6c-0.1,0-0.2-0.1-0.3-0.1c-0.4-0.2-0.8-0.4-1.2-0.7
		c-0.1,0-0.1-0.1-0.2-0.1c-0.4-0.2-0.8-0.5-1.1-0.7c0,0-0.1-0.1-0.1-0.1c-0.4-0.3-0.8-0.5-1.2-0.8c-0.1-0.1-0.2-0.1-0.3-0.2
		c-0.4-0.3-0.8-0.6-1.2-0.9c-0.1,0-0.1-0.1-0.2-0.1c-0.4-0.3-0.7-0.6-1.1-0.9c-0.1,0-0.1-0.1-0.2-0.1c-0.4-0.3-0.7-0.6-1.1-1
		c-0.1-0.1-0.2-0.1-0.2-0.2c-0.4-0.3-0.7-0.7-1.1-1c0,0-0.1-0.1-0.1-0.1c-0.3-0.3-0.7-0.6-1-1c-0.1-0.1-0.1-0.1-0.2-0.2
		c-0.3-0.3-0.6-0.7-0.9-1c-0.1-0.1-0.1-0.1-0.2-0.2c-0.3-0.4-0.6-0.7-0.9-1.1c-6.3-7.7-24-25-37.4-32.7c-0.2-0.1-0.5-0.2-0.7-0.3
		c-0.1,0-0.1,0-0.2-0.1c-0.1-0.1-0.3-0.1-0.4-0.1c-0.1,0-0.1,0-0.2,0c-0.1,0-0.2,0-0.3-0.1c0,0-0.1,0-0.1,0c0,0-0.1,0-0.1,0
		c-0.1,0-0.1,0-0.2,0c0,0,0,0-0.1,0c-0.1,0-0.2,0.1-0.2,0.1c0,0,0,0,0,0c0,0-0.1,0.1-0.1,0.1c0,0,0,0,0,0.1c0,0.1,0,0.1-0.1,0.2
		c0,0,0,0.1,0,0.1c0,0.1,0,0.2,0,0.3c0,0,0,0,0,0.1c0,0.1,0,0.2,0.1,0.3c0,0,0,0.1,0,0.1c0,0.1,0.1,0.2,0.1,0.3c0,0,0,0.1,0.1,0.1
		c0,0.1,0.1,0.2,0.1,0.3c0,0,0,0.1,0.1,0.1c0.1,0.1,0.1,0.2,0.2,0.4c0,0,0,0,0,0c0.1,0.1,0.2,0.3,0.3,0.4c0,0,0.1,0.1,0.1,0.1
		c0.1,0.1,0.1,0.2,0.2,0.3c0,0,0.1,0.1,0.1,0.1c0.1,0.1,0.2,0.2,0.2,0.3c0,0,0.1,0.1,0.1,0.1c0.1,0.1,0.2,0.2,0.4,0.3
		c2.2,2,10.2,10.4,13.2,13.2c0.2,0.2,0.4,0.4,0.6,0.7c0.2,0.3,0.4,0.6,0.6,1c1.3,2.3,2.4,6.2,3.6,10.8c0.2,0.7,0.4,1.4,0.6,2.2
		c0.4,1.5,0.8,3.1,1.3,4.7c0.7,2.4,1.4,4.9,2.3,7.4c0.1,0.4,0.3,0.8,0.4,1.3c0.6,1.7,1.2,3.4,1.9,5c0.2,0.4,0.3,0.8,0.5,1.2
		c0.4,0.8,0.7,1.6,1.1,2.4c0.2,0.4,0.4,0.8,0.6,1.2c0.6,1.2,1.3,2.4,1.9,3.5c0.5,0.8,0.9,1.5,1.4,2.2c1.5,2.2,3.2,4.2,5,6
		c0.6,0.6,1.3,1.2,1.9,1.7c0.7,0.5,1.4,1.1,2.1,1.5c1.4,1,3,1.8,4.7,2.5c0.8,0.3,1.7,0.7,2.6,0.9c0.4,0.1,0.9,0.3,1.4,0.4
		c0.9,0.2,1.9,0.4,2.8,0.6c1,0.1,2,0.2,3,0.3c0.8,0,1.5,0.1,2.1,0.2c0.6,0.1,1,0.2,1.3,0.4c0.5,0.2,0.7,0.5,0.7,0.9
		c0,0.1,0,0.3-0.1,0.4c-0.4,1.5-2.8,4-5.3,8.3c-0.2,0.4-0.5,0.9-0.7,1.3c-3.2,6-6,15.1-4.2,28.8c0.2,2.4-2.2,6.8-5.5,11.6
		c-0.6,0.9-1.2,1.8-1.9,2.7c-2,2.7-4.2,5.4-6.3,8c-0.4,0.4-0.7,0.8-1.1,1.3c-1.1,1.2-2.1,2.4-3.1,3.5c-3,3.3-5.5,5.8-6.7,6.7
		c-2.8,2.8-4.2,6.1-4.2,10.2c0,3.2,0.8,6.8,2.6,10.9c3.6,10.3,6.4,23.6,11.9,28.4c0,0,0.1-0.1,0.1-0.1c0.9,0.7,1.8,1.3,2.8,1.6
		c7.5,2.2,33.7,3.3,43.3,3.3s11-4.5,12.8-8.3c0.1-0.2,0.3-0.4,0.5-0.6c0-0.1,0.1-0.1,0.1-0.2c0.1-0.1,0.2-0.3,0.4-0.4
		c0.1-0.1,0.1-0.2,0.2-0.3c0.1-0.1,0.2-0.2,0.3-0.4c0.1-0.1,0.2-0.2,0.3-0.3c0.1-0.1,0.2-0.3,0.3-0.4c0.1-0.1,0.2-0.2,0.3-0.3
		c0.1-0.1,0.2-0.3,0.3-0.4c0.1-0.1,0.2-0.2,0.3-0.3c0.1-0.1,0.2-0.3,0.3-0.4c0.1-0.1,0.2-0.2,0.3-0.4c0.1-0.1,0.2-0.3,0.4-0.4
		c0.1-0.1,0.2-0.2,0.3-0.4c0.1-0.1,0.2-0.3,0.4-0.4c0.1-0.1,0.2-0.3,0.4-0.4c0.1-0.1,0.3-0.3,0.4-0.4c0.1-0.1,0.3-0.3,0.4-0.4
		c0.1-0.1,0.3-0.3,0.4-0.4c0.1-0.1,0.3-0.3,0.4-0.4c0.1-0.1,0.3-0.3,0.4-0.4c0.1-0.1,0.3-0.3,0.4-0.4c0.1-0.1,0.3-0.3,0.4-0.4
		c0.1-0.1,0.3-0.3,0.4-0.4c0.1-0.1,0.3-0.3,0.4-0.4c0.1-0.1,0.3-0.3,0.4-0.4c0.2-0.1,0.3-0.3,0.5-0.4c0.2-0.1,0.3-0.3,0.5-0.4
		c0.2-0.1,0.3-0.3,0.5-0.4c0.2-0.1,0.3-0.3,0.5-0.4c0.2-0.1,0.3-0.3,0.5-0.4c0.2-0.1,0.3-0.3,0.5-0.4c0.2-0.1,0.3-0.3,0.5-0.4
		c0.2-0.1,0.3-0.2,0.5-0.4c0.2-0.1,0.4-0.3,0.5-0.4c0.2-0.1,0.3-0.2,0.5-0.3c0.2-0.1,0.4-0.3,0.6-0.4c0.2-0.1,0.3-0.2,0.5-0.3
		c0.2-0.1,0.4-0.3,0.7-0.4c0.1-0.1,0.3-0.2,0.4-0.3c0.4-0.2,0.7-0.4,1.1-0.6c0.1-0.1,0.2-0.1,0.3-0.2c0.3-0.1,0.5-0.3,0.8-0.4
		c0.2-0.1,0.3-0.1,0.5-0.2c0.2-0.1,0.5-0.2,0.7-0.3c0.2-0.1,0.3-0.1,0.5-0.2c0.2-0.1,0.5-0.2,0.7-0.3c0.2-0.1,0.4-0.1,0.5-0.2
		c0.2-0.1,0.5-0.2,0.7-0.2c0.2-0.1,0.4-0.1,0.6-0.2c0.2-0.1,0.5-0.1,0.7-0.2c0.2-0.1,0.4-0.1,0.6-0.1c0.2-0.1,0.5-0.1,0.7-0.2
		c0.2,0,0.4-0.1,0.6-0.1c0.2,0,0.5-0.1,0.7-0.1c0.2,0,0.4-0.1,0.6-0.1c0.2,0,0.5-0.1,0.7-0.1c0.2,0,0.4,0,0.6-0.1c0.2,0,0.5,0,0.7,0
		c0.2,0,0.4,0,0.6,0c0.2,0,0.4,0,0.6,0c0.6,0,1.2,0,1.8,0.1c15,1.4,27.9,23.6,8.7,50.8c-1.1,1.4-2.2,2.7-3.4,4c-2.4,2.6-5,5-7.7,7.3
		c-1.4,1.1-2.7,2.2-4.2,3.3c-2.1,1.6-4.3,3-6.4,4.4c-1.4,0.9-2.9,1.8-4.3,2.6c-0.7,0.4-1.4,0.8-2.1,1.2c-4.9,2.8-9.6,5-13.4,6.7
		c-0.6,0.2-1.1,0.5-1.6,0.7c-1.6,0.7-2.9,1.2-4.1,1.7c0,0,0,0,0,0c-22.9-18.9-45.4-39.8-65.2-60.5c-23.9-25-42.8-48.8-56.3-70.5
		c-15.3-24.8-23.1-46.2-23.1-63.7v-52c17.8-4.8,35.7-9,53.7-12.6c0-0.1,0.1-0.3,0.1-0.4c0.6-1.7,2.2-2.7,4-2.7c1,0,2.1,0.3,3.5,1
		h0.1l0.1,0.1c0.2,0.1,0.4,0.2,0.6,0.4c47.8-8.9,95.9-13.5,144.1-13.5c35.9,0,68.7,2.5,97.7,6.3c0.9-1,1.9-2.1,2.9-3
		c2.3-2.3,4.9-4.4,7.5-6.3c-31.6-4.5-67.9-7.6-108-7.6c-61,0-130.7,7.1-206.3,27.3v0c-1.7,0.4-3.3,0.9-5,1.4c0,0,0,0,0,0
		c-8.3,2.3-16.7,4.7-25.1,7.3c-0.3,0.1-0.7,0.2-1,0.3c-2.4,0.7-4.7,1.5-7.1,2.2c-0.5,0.2-1.1,0.3-1.6,0.5c-2.7,0.9-5.4,1.8-8.2,2.7
		V301.3c0,0,0,0,0.1,0c0,0,0,0,0.1,0c0,0,0,0,0.1,0c0,0,0.1,0,0.2-0.1c0,0,0,0,0,0c2.4-1,17.4-6.7,42.6-13.5c0,0,0,0,0,0
		c1.6-0.4,3.3-0.9,5-1.3v0c42.4-11,110.6-24.1,195.9-24.1c42.6,0,89.4,3.3,139.3,11.7c0,0,0.1,0,0.1,0c5.7,1,11.4,2,17.2,3.1
		c0.4,0.1,0.9,0.2,1.3,0.3c1.5,0.3,3,0.6,4.6,0.9c1,0.2,1.9,0.4,2.9,0.6c1.4,0.3,2.7,0.6,4.1,0.8c1.4,0.3,2.8,0.6,4.1,0.9
		c1.6,0.3,3.2,0.7,4.8,1c1.7,0.4,3.4,0.7,5.1,1.1c1,0.2,2,0.4,2.9,0.7c1.6,0.4,3.3,0.8,4.9,1.1c0.9,0.2,1.7,0.4,2.6,0.6
		c4.6,1.1,9.3,2.3,14,3.4c0.6,0.2,1.2,0.3,1.8,0.5c0.5,0.1,1,0.2,1.4,0.4c2.1,0.5,4.1,1.1,6.2,1.6c0.6,0.2,1.2,0.3,1.8,0.5
		c5.3,1.4,10.6,2.9,15.9,4.4c0.6,0.2,1.2,0.4,1.8,0.5c2.1,0.6,4.2,1.2,6.3,1.9c0.7,0.2,1.3,0.4,2,0.6c2.6,0.8,5.3,1.6,8,2.5V444.1z"
		/>
	<path class="st0" d="M204.8,372.7c6.2-1.6,9.3-4.7,9.3-9.5c0-7.5,0-11.2,0-18.6c0-2.6-1.1-4.5-3.3-5.5c-10-4.8-20.2-9.4-30.4-13.8
		c0-5.7,0-8.5,0-14.2c7.4-2.2,11.1-3.2,18.5-5.2c0,5.9,0,8.9,0,14.8c6-1.6,9.1-2.4,15.2-3.9c0-7,0-10.5,0-17.5
		c0-4.8-3.1-6.4-9.3-4.8c-12.2,3.2-18.3,4.9-30.5,8.6c-6.1,1.8-9.1,5.2-9.1,10c0,7,0,10.4,0,17.4c0,2.5,1.1,4.2,3.3,5.2
		c10.1,4.3,20.3,8.8,30.3,13.4c0,6.2,0,9.3,0,15.4c-7.4,2-11.1,3-18.5,5.2c0-6.4,0-9.6,0-16c-6.1,1.8-9.1,2.7-15.1,4.6
		c0,7.5,0,11.2,0,18.7c0,4.7,3,6.1,9.1,4.3C186.4,377.6,192.5,375.9,204.8,372.7z"/>
	<path class="st0" d="M278,357.5c0-26.1,0-52.2,0-78.3c-6.3,1-9.4,1.5-15.6,2.6c0,12.9,0,19.4,0,32.3c-8.4,1.5-12.6,2.3-20.9,4
		c0-12.9,0-19.4,0-32.3c-6.1,1.2-9.2,1.9-15.3,3.3c0,26.1,0,52.2,0,78.3c6.1-1.4,9.2-2,15.3-3.3c0-11.7,0-23.4,0-35.1
		c8.4-1.7,12.5-2.5,20.9-4c0,11.7,0,23.4,0,35.1C268.6,359,271.8,358.5,278,357.5z"/>
	<path class="st0" d="M333.5,340.7c-11.1,0.9-16.6,1.5-27.6,2.8c0-9.9,0-14.8,0-24.6c9.3-1.2,14-1.7,23.4-2.5c0-4.1,0-6.1,0-10.2
		c-9.4,0.9-14.1,1.4-23.4,2.5c0-9.2,0-13.8,0-22.9c10.9-1.3,16.3-1.9,27.2-2.8c0-4.2,0-6.3,0-10.4c-14.3,1.2-28.5,2.8-42.7,4.8
		c0,26.1,0,52.2,0,78.3c14.3-2.1,28.7-3.7,43.1-4.9C333.5,346.6,333.5,344.6,333.5,340.7z"/>
	<path class="st0" d="M359.4,305.3c0-1.4-0.3-3.2-1-5.6c8.4,16.1,16.7,32.3,25,48.4c5.5-0.1,8.2-0.1,13.7-0.1c0-26.1,0-52.2,0-78.3
		c-6.1,0-9.1,0.1-15.2,0.2c0,14.2,0,28.4,0,42.6c0,1.3,0.3,3.2,1,5.6c-8.3-15.8-16.6-31.6-25-47.4c-5.5,0.2-8.2,0.4-13.7,0.8
		c0,26.1,0,52.2,0,78.3c6.1-0.4,9.1-0.6,15.2-0.9C359.4,334.4,359.4,319.8,359.4,305.3z"/>
	<path class="st0" d="M453.8,339.4c-11.7-0.8-17.6-1.1-29.3-1.5c9.7-19.9,19.4-39.7,29.2-59.5c0-2.7,0-4.1,0-6.8
		c-15.1-1.1-30.3-1.7-45.5-1.9c0,4.3,0,6.4,0,10.6c10.8,0.1,16.1,0.3,26.9,0.8c-9.8,20.2-19.5,40.5-29.2,60.7c0,2.5,0,3.8,0,6.3
		c16,0.1,32,0.8,48,1.9C453.9,345.8,453.9,343.7,453.8,339.4z"/>
	<path class="st0" d="M478.5,317c8.5,0.9,12.7,1.4,21.1,2.5c0,11.7,0,23.4,0,35.1c6.2,0.8,9.4,1.2,15.6,2.2c0-26.1,0-52.1,0-78.3
		c-6.2-0.9-9.3-1.4-15.6-2.2c0,12.9,0,19.4,0,32.3c-8.5-1.1-12.7-1.6-21.1-2.5c0-12.9,0-19.4,0-32.3c-6.3-0.7-9.4-1-15.6-1.5
		c0,26.1,0,52.2,0,78.3c6.3,0.6,9.4,0.9,15.6,1.5C478.5,340.4,478.5,328.7,478.5,317z"/>
	<path class="st0" d="M570,357.2c-10.8-2.5-16.3-3.6-27.2-5.7c0-9.9,0-14.8,0-24.6c9.2,1.8,13.9,2.8,23.1,4.8c0-4.1,0-6.1,0-10.2
		c-9.2-2.1-13.8-3-23.1-4.8c0-9.2,0-13.8,0-22.9c10.8,2.1,16.2,3.2,26.9,5.6c0-4.2,0-6.3,0-10.4c-14-3.2-28.1-6-42.3-8.4
		c0,26.1,0,52.2,0,78.3c14.3,2.4,28.6,5.2,42.7,8.4C570.1,363.1,570.1,361.1,570,357.2z"/>
	<path class="st0" d="M617.2,343.9c0,1.3,0.4,3.3,1,5.9c-8-18.4-16.1-36.8-24.3-55.1c-5.4-1.4-8-2.1-13.4-3.4c0,26.1,0,52.2,0,78.3
		c6,1.5,9,2.2,14.9,3.8c0-14.5,0-29.1,0-43.6c0-1.4-0.3-3.3-1-5.9c8.2,18.7,16.3,37.4,24.3,56.1c5.3,1.6,7.9,2.4,13.2,4.1
		c0-26.1,0-52.2,0-78.3c-5.9-1.9-8.8-2.8-14.7-4.5C617.2,315.5,617.2,329.7,617.2,343.9z"/>
	<path class="st0" d="M273.5,404c4.5-0.5,6.7-0.7,11.2-1.1c0-7.6,0-11.4,0-18.9c6.6-0.7,9.9-1,16.5-1.5c0-2.2,0-3.3,0-5.5
		c-6.6,0.6-9.9,0.9-16.5,1.5c0-5,0-7.5,0-12.6c7.7-0.8,11.6-1.1,19.3-1.7c0-2.3,0-3.4,0-5.7c-12.2,1-18.3,1.5-30.5,2.8
		C273.5,375.6,273.5,389.8,273.5,404z"/>
	<path class="st0" d="M340.2,356.3c-9.4,0.5-14.1,0.8-23.4,1.4c-4.4,0.3-6.6,1.8-6.6,4.4c0,11.6,0,23.2,0,34.8
		c0,2.6,2.2,3.7,6.6,3.4c9.4-0.7,14-0.9,23.4-1.4c4.6-0.2,6.9-1.6,6.9-4.2c0-4.2,0-6.3,0-10.5c-4.5,0.2-6.7,0.3-11.2,0.5
		c0,3.6,0,5.4,0,9c-5.8,0.3-8.7,0.4-14.5,0.8c0-12.7,0-19,0-31.7c5.8-0.3,8.7-0.5,14.5-0.8c0,3.3,0,5,0,8.4
		c4.5-0.2,6.7-0.3,11.2-0.5c0-4,0-6,0-10C347.2,357.3,344.9,356.1,340.2,356.3z"/>
	<path class="st0" d="M355.2,398.2c4.3-0.1,6.5-0.2,10.8-0.3c0-2.6,0-3.9,0-6.6c-4.3,0.1-6.5,0.1-10.8,0.3
		C355.2,394.2,355.2,395.6,355.2,398.2z"/>
	<path class="st0" d="M372.4,366.9c0,0.3,0,0.5,0,0.8c1.7,0,2.6-0.1,4.3-0.1c0,12,0,18.1,0,30.1c4.4-0.1,6.6-0.2,11-0.2
		c0-14.2,0-28.4,0-42.5c-3.8,0-5.7,0-9.5,0.1C375.9,359.8,374.7,362.2,372.4,366.9z"/>
	<path class="st0" d="M426.4,355.2c-9.1-0.2-13.7-0.3-22.9-0.3c-4.5,0-6.7,1.3-6.7,3.9c0,6.7,0,10,0,16.6c0,2.5,2.3,3.8,6.7,3.8
		c7.5,0,11.2,0.1,18.7,0.2c0,5.1,0,7.7,0,12.8c-5.6-0.1-8.4-0.2-14-0.2c0-3,0-4.5,0-7.5c-4.4,0-6.6,0-11,0c0,3.7,0,5.5,0,9.1
		c0,2.6,2.3,3.9,6.8,3.9c9,0,13.6,0.1,22.6,0.3c4.5,0.1,6.8-1.1,6.8-3.7c0-11.7,0-23.3-0.1-34.8C433.2,356.7,431,355.3,426.4,355.2z
		 M422.2,374c-5.7-0.1-8.6-0.2-14.3-0.2c0-5.4,0-8.1,0-13.5c5.7,0.1,8.6,0.1,14.3,0.2C422.2,365.9,422.2,368.6,422.2,374z"/>
	<path class="st0" d="M471.8,356.8c-9.2-0.5-13.7-0.7-22.9-1.1c-4.5-0.2-6.7,1.1-6.7,3.7c0,6.7,0,10,0,16.6c0,2.6,2.3,3.9,6.7,4.1
		c7.4,0.3,11.2,0.5,18.6,0.9c0,5.1,0,7.7,0,12.8c-5.6-0.3-8.4-0.5-14-0.7c0-3,0-4.5,0-7.5c-4.4-0.2-6.6-0.2-11-0.4
		c0,3.7,0,5.5,0,9.1c0,2.6,2.3,4,6.8,4.2c9.1,0.3,13.6,0.6,22.6,1.1c4.5,0.2,6.7-0.9,6.7-3.5c0-11.6,0-23.2,0-34.9
		C478.6,358.5,476.5,357.1,471.8,356.8z M467.6,375.7c-5.8-0.4-8.6-0.5-14.3-0.7c0-5.4,0-8.1,0-13.5c5.7,0.2,8.6,0.4,14.3,0.7
		C467.6,367.6,467.6,370.3,467.6,375.7z"/>
	<path class="st0" d="M520.1,377c-4.2-0.4-6.3-0.6-10.6-1c0,5.1,0,7.7,0,12.8c-4.8-0.4-7.2-0.6-12-1c7-11,10.4-16.5,17.4-27.4
		c0,0,0-0.1,0-0.2c-4.6-0.4-6.9-0.6-11.4-1c-6.2,9.8-12.4,19.6-18.6,29.4c0,1.5,0,2.3,0,3.8c9.8,0.7,14.7,1.1,24.5,2
		c0,3.2,0,4.8,0,8c4.2,0.4,6.3,0.6,10.6,1c0-3.2,0-4.8,0-8c2.3,0.2,3.4,0.4,5.7,0.6c0-2.2,0-3.3,0.1-5.6c-2.3-0.3-3.4-0.4-5.7-0.6
		C520.1,384.7,520.1,382.1,520.1,377z"/>
	<path class="st0" d="M203.3,397.2c5.9-4-2.4-11-6.8-12.4c-4.3-1.5-7.1-3.5-7.1-3.5s-1.3,3.1-4.3,6.3c-3,3.3-6.7,12.9,0.7,13.8
		c3.9,0,4.3-2.7,9.5,0.4C198.3,396.8,200,398.9,203.3,397.2z"/>
	<path class="st0" d="M223.9,406.7c-1.8-3.3-10.8-10.8-17.3-7.5c-2.9,2,0.1,3.3-7.1,5.1c4.3,3.9,0.6,4,0.8,6.8
		c1.7,5.4,15,4,19.5,2.7c4.5-1.3,8.8-1.1,8.8-1.1S225.7,410.1,223.9,406.7z"/>
	<path class="st0" d="M193,405.8c-7.3,1.6-5.4-0.8-9-1.3c-7.7,0-11.9,10.3-11.8,13.9c0.1,3.6-1.2,7-1.2,7s3.9-2,8.7-2.8
		c4.8-0.8,17.5-5.1,16.2-10.5C194.7,409.5,191.2,411.1,193,405.8z"/>
	<path class="st0" d="M208.2,396.5c-0.2-0.2-0.5-0.2-0.7-0.1c-4.2,2.3-6.4,3.5-10.6,6.1c-0.2,0.1-0.3,0.4-0.1,0.5
		c0.1,0.1,0.3,0.1,0.5,0.1c0,0,0.1,0,0.2-0.1c4.2-2.6,6.3-3.8,10.6-6C208.4,396.9,208.5,396.7,208.2,396.5z"/>
	<path class="st0" d="M210.2,394.8c-0.6,0.1-1,0.5-0.9,0.9c0.1,0.4,0.7,0.7,1.3,0.6c0.6-0.1,1-0.5,0.9-0.9
		C211.4,395,210.8,394.7,210.2,394.8z"/>
	<path class="st0" d="M194.6,403.4c-5.1-0.7-7.6-0.9-12.5-1.1c-0.2-0.1-0.5,0.1-0.6,0.3c-0.1,0.2,0,0.4,0.3,0.4
		c4.9,0.2,7.4,0.5,12.4,1.1c0.2,0,0.5-0.1,0.6-0.3C194.9,403.7,194.8,403.6,194.6,403.4C194.5,403.4,194.5,403.4,194.6,403.4z"/>
	<path class="st0" d="M178.2,402.1c-0.4,0.4-0.4,0.9,0,1.1c0.4,0.2,1.1,0.1,1.5-0.3c0.4-0.4,0.4-0.9,0-1.1
		C179.4,401.6,178.7,401.7,178.2,402.1z"/>
	<path class="st0" d="M199.2,414.4c0.3,0,0.5-0.2,0.4-0.4c-1.1-3.5-1.6-5.3-2.7-8.8c-0.1-0.2-0.3-0.3-0.6-0.2
		c-0.2,0.1-0.4,0.2-0.4,0.3v0.1c1.1,3.5,1.6,5.3,2.7,8.8C198.7,414.4,198.9,414.5,199.2,414.4z"/>
	<path class="st0" d="M199.7,415.4c-0.5,0-1.1,0.3-1.3,0.7c-0.1,0.5,0.2,0.8,0.8,0.9c0.6,0.1,1.2-0.2,1.3-0.7
		C200.5,415.9,200.2,415.5,199.7,415.4z"/>
	<path class="st0" d="M606.2,381c0,0-2.7,2.1-7,3.6s-12.4,8.5-6.5,12.7c3.3,1.8,5-0.4,8.1,4.8c5.1-3.1,5.6-0.4,9.4-0.4
		c7.2-0.8,3.5-10.8,0.4-14.2C607.6,384.1,606.2,381,606.2,381z"/>
	<path class="st0" d="M623.7,419.5c0.1-3.7-4.2-14.5-11.7-14.5c-3.5,0.5-1.6,3-8.9,1.2c1.8,5.5-1.6,3.8-2.7,6.4
		c-1.2,5.7,11.3,10.4,16,11.3c4.7,0.9,8.5,3,8.5,3S623.6,423.3,623.7,419.5z"/>
	<path class="st0" d="M596.7,404.6c-7.2-1.9-4.3-3.2-7.2-5.3c-6.6-3.6-15.5,3.9-17.2,7.2c-1.7,3.4-4.6,5.9-4.6,5.9s4.4-0.1,8.9,1.4
		c4.5,1.4,17.8,3.3,19.4-2.2C596.2,408.7,592.5,408.5,596.7,404.6z"/>
	<path class="st0" d="M601.5,403.9c0.1,0.1,0.2,0.3,0.4,0.3c0.1,0,0.1,0.1,0.2,0c5-0.3,7.5-0.4,12.4-0.4c0.2,0,0.4-0.2,0.3-0.4
		c-0.1-0.2-0.3-0.4-0.6-0.4c-4.9,0-7.4,0.1-12.4,0.5C601.5,403.5,601.4,403.7,601.5,403.9z"/>
	<path class="st0" d="M618.3,404c0.1-0.5-0.3-1-0.8-1.2c-0.5-0.2-1.1,0-1.2,0.4c-0.1,0.4,0.2,0.9,0.8,1.1
		C617.7,404.6,618.2,404.4,618.3,404z"/>
	<path class="st0" d="M588.2,396.5c-0.1,0.2-0.1,0.4,0.1,0.5c4.2,2.5,6.2,3.8,10.3,6.7c0.2,0.1,0.5,0.1,0.7,0
		c0.2-0.1,0.2-0.3,0.1-0.4c0-0.1-0.1-0.1-0.2,0c-4.1-2.9-6.2-4.3-10.3-6.8C588.7,396.3,588.4,396.4,588.2,396.5z"/>
	<path class="st0" d="M586.8,395.8c0.6-0.2,0.8-0.6,0.6-1c-0.3-0.4-0.9-0.6-1.5-0.4c-0.5,0.2-0.8,0.7-0.6,1
		C585.6,395.8,586.2,396,586.8,395.8z"/>
	<path class="st0" d="M600,405.4c-0.2,0-0.4,0-0.5,0.1l-0.1,0.1c-0.9,3.6-1.3,5.4-2.2,9.1c0,0.2,0.1,0.4,0.4,0.5s0.6,0,0.6-0.2
		c0.9-3.6,1.3-5.4,2.2-9.1C600.4,405.7,600.2,405.5,600,405.4z"/>
	<path class="st0" d="M597.7,416.4c-0.5-0.3-1.1-0.3-1.5,0c-0.4,0.3-0.3,0.8,0.2,1.1s1.2,0.4,1.5,0
		C598.2,417.2,598.2,416.7,597.7,416.4z"/>
	<polygon class="st0" points="364.6,157.8 399.6,132.4 434.6,157.8 421.2,116.7 456.2,91.2 413,91.2 399.6,50 386.2,91.2 
		342.9,91.2 377.9,116.7 	"/>
</g>
</svg>
