<?xml version="1.0" encoding="utf-8"?>
<!-- Generator: Adobe Illustrator 22.1.0, SVG Export Plug-In . SVG Version: 6.00 Build 0)  -->
<svg version="1.1" id="图层_1" xmlns="http://www.w3.org/2000/svg" xmlns:xlink="http://www.w3.org/1999/xlink" x="0px" y="0px"
	 viewBox="0 0 800 800" style="enable-background:new 0 0 800 800;" xml:space="preserve">
<style type="text/css">
	.st0{fill:#1A4896;}
	.st1{fill:#2795D0;}
</style>
<g>
	<g>
		<g>
			<path class="st0" d="M365.7,67.1c0-9.4-7.7-17.1-17.1-17.1c-9.4,0-17.1,7.7-17.1,17.1c0,8.4,6.1,15.4,14.2,16.8
				c-2.2,10.7-8.9,26.7-29.2,35.6c-32.2,14.1-75.4,7-121.7-21.1c-11.7-6.7-19.8,1.3-19.8,9.7c0,8.4,4.7,73.7-40.9,92.5
				c-23.5,10.1-24.1,16.8-23.5,22.8c0.7,6,2.7,8.7,19.1,20.8c16.4,12.1,56.3,32.8,75.8,96.2c0,0,2.3-45.9-34.9-105.2
				c0,0,38.3-22.9,42-60c0.3-3.1,3.9-4.7,6.4-2.8c12.8,9.5,44.5,28.3,85.8,19.1C359.3,179.4,370.7,134.5,365.7,67.1z"/>
			<path class="st1" d="M116.8,261c0,0,22.8,31,27.8,55.1c5,24.1,4,35.2-3.5,40.2c0,0,74.9,0.5,47.8,135.2c0,0,2,4.8,3.5,0
				C193.9,486.8,258.9,313.3,116.8,261z"/>
			<path class="st0" d="M434.3,67.1c0-9.4,7.7-17.1,17.1-17.1c9.4,0,17.1,7.7,17.1,17.1c0,8.4-6.1,15.4-14.2,16.8
				c2.2,10.7,8.9,26.7,29.2,35.6c32.2,14.1,75.4,7,121.7-21.1c11.7-6.7,19.8,1.3,19.8,9.7c0,8.4-4.7,73.7,40.9,92.5
				c23.5,10.1,24.1,16.8,23.5,22.8c-0.7,6-2.7,8.7-19.1,20.8c-16.4,12.1-56.3,32.8-75.8,96.2c0,0-2.3-45.9,34.9-105.2
				c0,0-38.3-22.9-42-60c-0.3-3.1-3.9-4.7-6.4-2.8c-12.8,9.5-44.5,28.3-85.8,19.1C440.7,179.4,429.3,134.5,434.3,67.1z"/>
			<path class="st1" d="M683.2,261c0,0-22.8,31-27.8,55.1c-5,24.1-4,35.2,3.5,40.2c0,0-74.9,0.5-47.8,135.2c0,0-2,4.8-3.5,0
				C606.1,486.8,541.1,313.3,683.2,261z"/>
			<path class="st0" d="M139.1,373.1c-0.4-0.2-0.6-0.2-0.6-0.2C138.8,373,138.9,373.1,139.1,373.1z"/>
			<path class="st0" d="M660.9,373.1c0.2-0.1,0.4-0.1,0.6-0.2C661.4,372.9,661.2,373,660.9,373.1z"/>
			<path class="st1" d="M486.5,222.1c-10.6-2.5-12.6-4-25.1-11.6c-38.4-24.8-46.9-93.9-48.6-114.2c3-3.1,4.8-7.3,4.8-11.9
				c0-9.4-7.7-17.1-17.1-17.1c-9.4,0-17.1,7.7-17.1,17.1c0,4.1,1.5,7.9,3.9,10.9c-1.5,18.9-9.5,90-48.6,115.2
				c-12.6,7.5-14.6,9-25.1,11.6c-10.6,2.5-13.6,15.1-5.5,20.6c8,5.5,64.9,27.7,82.5,93c2.5,8,4.5,15.1,9.6,15.1s7-7,9.6-15.1
				c17.6-65.4,74.4-87.5,82.5-93C500.1,237.2,497,224.6,486.5,222.1z"/>
			<g>
				<path class="st0" d="M379.2,720.3l15.6-22.3c-12.1-12.6-49.3-44.7-152-95.8c-35.5-18.8-80.4-76.4-61-158.2
					c6-31.3-8.6-58.7-42.7-70.8c2.9,1.3,15.2,9.7,4.4,56.1c-12.1,52.3-6.7,135.4,36.2,168.9C217.4,627.5,322.7,655.9,379.2,720.3z"
					/>
				<path class="st0" d="M400,704.6l-15.4,22.1c5.8,7.3,11,15,15.4,23.3c4.4-8.2,9.6-16,15.4-23.3L400,704.6z"/>
				<path class="st0" d="M656.4,429.2c-10.7-46.4,1.6-54.8,4.4-56.1c-34.1,12.2-48.7,39.5-42.7,70.8c19.4,81.8-25.5,139.4-61,158.2
					c-102.7,51.1-139.9,83.2-152,95.8l15.6,22.3c56.5-64.5,161.9-92.8,199.5-122.2C663.1,564.6,668.5,481.5,656.4,429.2z"/>
			</g>
		</g>
		<g>
			<path class="st0" d="M379.9,344.3H232.7v-3.6c0-9.6,7.8-17.4,17.4-17.4h97.1C365.6,323.3,379.9,332.7,379.9,344.3L379.9,344.3z"
				/>
			<path class="st0" d="M422.1,344.3h147.1v-3.6c0-9.6-7.8-17.4-17.4-17.4h-97.1C436.5,323.3,422.1,332.7,422.1,344.3L422.1,344.3z"
				/>
			<path class="st0" d="M330.6,376.9v-13.1h-53.3v-8h-44.6v52.5v0c0,9.6,7.8,17.3,17.3,17.3h27.2h53.3v-17.3h-44.4
				c-4.9,0-8.9-4-8.9-8.9v-22.5H330.6z"/>
			<path class="st0" d="M569.3,376.9v-13.1H516v-8h-44.6v52.5v0c0,9.6,7.8,17.3,17.3,17.3H516h53.3v-17.3h-44.4
				c-4.9,0-8.9-4-8.9-8.9v-22.5H569.3z"/>
			<path class="st0" d="M368.3,415.4v-51.5h-26.1V430c0,8,5.5,14.7,16.6,14.7h9.6h84v-11.9h-66.6C376.1,432.8,368.3,425,368.3,415.4
				z"/>
			<path class="st0" d="M411.1,426.4h-9.8c-9.4,0-17-7.6-17-17v-45.5h26.8V426.4z"/>
			<path class="st0" d="M460.3,363.9h-42.7v13.6h7.9v32.1c0,9.3,7.5,16.8,16.8,16.8h9.6v-48.9h8.4V363.9z"/>
		</g>
	</g>
	<g>
		<g>
			<path class="st0" d="M351.5,630.3v-3.5l3.6-3.4c7.2-6.6,10.6-10.3,10.6-14.3c0-2.8-1.5-5.1-5.5-5.1c-2.7,0-5,1.4-6.5,2.5
				l-1.7-4.1c2.2-1.7,5.5-3.1,9.4-3.1c6.8,0,10.1,4.3,10.1,9.2c0,5.4-3.9,9.7-9.2,14.6l-2.6,2.3v0.1h12.5v4.8H351.5z"/>
			<path class="st0" d="M398.2,614.9c0,9.8-3.8,16-11.2,16c-7,0-10.8-6.4-10.8-15.7c0-9.5,4-15.9,11.2-15.9
				C394.8,599.3,398.2,605.9,398.2,614.9z M382,615.1c0,7.4,2,11.3,5.2,11.3c3.4,0,5.2-4.1,5.2-11.4c0-7.1-1.7-11.3-5.2-11.3
				C384.2,603.7,382,607.5,382,615.1z"/>
			<path class="st0" d="M423.4,614.9c0,9.8-3.8,16-11.2,16c-7,0-10.8-6.4-10.8-15.7c0-9.5,4-15.9,11.2-15.9
				C419.9,599.3,423.4,605.9,423.4,614.9z M407.2,615.1c0,7.4,2,11.3,5.2,11.3c3.4,0,5.2-4.1,5.2-11.4c0-7.1-1.7-11.3-5.2-11.3
				C409.3,603.7,407.2,607.5,407.2,615.1z"/>
			<path class="st0" d="M429.3,626.2c0.9,0.1,1.8,0,3.2-0.1c2.3-0.2,4.5-1,6.2-2.4c2-1.6,3.4-3.9,3.9-6.8l-0.1,0
				c-1.5,1.7-3.7,2.7-6.6,2.7c-5.3,0-9.3-3.8-9.3-9.4c0-5.9,4.5-10.9,11-10.9c7.1,0,10.9,5.6,10.9,13c0,6.5-2.1,11.2-5.3,14.2
				c-2.7,2.5-6.3,3.9-10.4,4.2c-1.3,0.2-2.6,0.2-3.5,0.1V626.2z M432.4,609.8c0,3.2,1.8,5.6,5,5.6c2.3,0,4-1.1,4.9-2.5
				c0.2-0.4,0.3-0.9,0.3-1.7c0-4.1-1.5-7.7-5.3-7.7C434.5,603.6,432.4,606.2,432.4,609.8z"/>
		</g>
		<g>
			<path class="st0" d="M370.2,535.7c-1.5,0.7-4.7,1.5-8.9,1.5c-10.8,0-17.4-6.8-17.4-17.2c0-11.2,7.8-18,18.3-18
				c4.1,0,7,0.8,8.3,1.5l-1.4,5c-1.6-0.7-3.9-1.3-6.7-1.3c-7,0-12,4.3-12,12.5c0,7.5,4.4,12.3,11.9,12.3c2.5,0,5.2-0.5,6.8-1.2
				L370.2,535.7z"/>
			<path class="st0" d="M375.5,502.6h6.2v28.9h14v5.2h-20.3V502.6z"/>
			<path class="st0" d="M405,502.6v19.9c0,6.7,2.8,9.8,7,9.8c4.5,0,7.2-3.1,7.2-9.8v-19.9h6.2v19.5c0,10.5-5.4,15.2-13.6,15.2
				c-7.9,0-13-4.4-13-15.1v-19.5H405z"/>
			<path class="st0" d="M432.5,503.1c2-0.4,5.6-0.7,9.1-0.7c4.6,0,7.4,0.6,9.8,2.2c2.1,1.3,3.5,3.5,3.5,6.4c0,3.1-2,6-5.7,7.4v0.1
				c3.6,0.9,6.9,3.8,6.9,8.4c0,3-1.3,5.4-3.3,7c-2.4,2.1-6.4,3.1-12.7,3.1c-3.5,0-6-0.2-7.7-0.4V503.1z M438.6,516.6h3.2
				c4.3,0,6.7-2,6.7-4.9c0-3.2-2.4-4.7-6.4-4.7c-1.8,0-2.9,0.1-3.6,0.3V516.6z M438.6,532.2c0.8,0.1,1.9,0.2,3.3,0.2
				c4,0,7.6-1.5,7.6-5.7c0-4-3.5-5.6-7.8-5.6h-3.1V532.2z"/>
		</g>
		<g>
			<path class="st0" d="M285.8,459h19.7v5.1H292v9.4h12.5v5.1H292v14.5h-6.2V459z"/>
			<path class="st0" d="M341.8,475.7c0,11.4-6.9,17.9-16.3,17.9c-9.6,0-15.7-7.4-15.7-17.3c0-10.5,6.6-17.9,16.2-17.9
				C335.9,458.5,341.8,466,341.8,475.7z M316.3,476.2c0,7,3.5,12.5,9.5,12.5c6,0,9.4-5.6,9.4-12.7c0-6.4-3.2-12.5-9.4-12.5
				C319.6,463.5,316.3,469.2,316.3,476.2z"/>
			<path class="st0" d="M377.4,475.7c0,11.4-6.9,17.9-16.3,17.9c-9.6,0-15.7-7.4-15.7-17.3c0-10.5,6.6-17.9,16.2-17.9
				C371.5,458.5,377.4,466,377.4,475.7z M351.9,476.2c0,7,3.5,12.5,9.5,12.5c6,0,9.4-5.6,9.4-12.7c0-6.4-3.2-12.5-9.4-12.5
				C355.2,463.5,351.9,469.2,351.9,476.2z"/>
			<path class="st0" d="M387.9,464.3h-9.7V459H404v5.2h-9.8v28.9h-6.2V464.3z"/>
			<path class="st0" d="M407.9,459.5c2-0.4,5.6-0.7,9.1-0.7c4.6,0,7.4,0.6,9.8,2.2c2.1,1.3,3.5,3.5,3.5,6.4c0,3.1-2,6-5.7,7.3v0.1
				c3.6,0.9,6.9,3.7,6.9,8.4c0,3-1.3,5.4-3.3,7c-2.4,2.1-6.4,3.1-12.7,3.1c-3.5,0-6-0.2-7.7-0.4V459.5z M414.1,473h3.2
				c4.3,0,6.7-2,6.7-4.9c0-3.2-2.4-4.7-6.3-4.7c-1.8,0-2.9,0.1-3.6,0.3V473z M414.1,488.6c0.8,0.1,1.9,0.2,3.3,0.2
				c4,0,7.6-1.5,7.6-5.7c0-4-3.5-5.6-7.8-5.6h-3.1V488.6z"/>
			<path class="st0" d="M443.7,483.5l-2.9,9.6h-6.4l10.9-34.1h7.9l11.1,34.1h-6.7l-3.1-9.6H443.7z M453.5,478.8l-2.7-8.4
				c-0.7-2.1-1.2-4.4-1.7-6.4H449c-0.5,2-1,4.4-1.6,6.4l-2.6,8.4H453.5z"/>
			<path class="st0" d="M469,459h6.2v28.9h14v5.2H469V459z"/>
			<path class="st0" d="M494,459h6.2v28.9h14v5.2H494V459z"/>
		</g>
	</g>
</g>
</svg>
