<?xml version="1.0" encoding="utf-8"?>
<!-- Generator: Adobe Illustrator 22.1.0, SVG Export Plug-In . SVG Version: 6.00 Build 0)  -->
<svg version="1.1" id="图层_1" xmlns="http://www.w3.org/2000/svg" xmlns:xlink="http://www.w3.org/1999/xlink" x="0px" y="0px"
	 viewBox="0 0 800 800" style="enable-background:new 0 0 800 800;" xml:space="preserve">
<style type="text/css">
	.st0{fill:#CF0916;}
</style>
<g>
	<path class="st0" d="M298.9,188.2c0,0-25.6,15.2-34,43.8C264.9,231.9,290.3,213.2,298.9,188.2z"/>
	<path class="st0" d="M282.8,225.1c0,0-20.9,22.6-27.1,24.7c0,0,2.4-22.9,11.6-39.9c0,0-27.1,22.3-20.3,61.7
		C247.1,271.6,272.1,253.4,282.8,225.1z"/>
	<path class="st0" d="M244.7,355c0,0,14.9-44.1,14.6-62.3c0,0-14.6,33.7-18.5,36.6c0,0-10.7-9.2-15.6-50.6
		C225.2,278.7,215.8,330,244.7,355z"/>
	<path class="st0" d="M535.1,231.9c-8.3-28.6-34-43.8-34-43.8C509.7,213.2,535.1,231.9,535.1,231.9z"/>
	<path class="st0" d="M517.2,225.1c10.7,28.3,35.8,46.5,35.8,46.5c6.9-39.3-20.3-61.7-20.3-61.7c9.2,17,11.6,39.9,11.6,39.9
		C538.1,247.7,517.2,225.1,517.2,225.1z"/>
	<path class="st0" d="M268.8,109.3c-2.4,0-4.4,0.8-5.9,2.3c-1.5,1.5-2.3,3.4-2.3,5.7s0.8,4.2,2.3,5.7c1.5,1.5,3.5,2.3,5.9,2.3
		c2.4,0,4.4-0.8,5.9-2.3c1.5-1.5,2.3-3.4,2.3-5.7s-0.8-4.2-2.3-5.7C273.2,110.1,271.2,109.3,268.8,109.3z"/>
	<polygon class="st0" points="273.6,76.4 269.5,86.1 277.7,86.1 	"/>
	<polygon class="st0" points="514.4,86.1 522.6,86.1 518.6,76.4 	"/>
	<polygon class="st0" points="379.5,121.1 387.7,121.1 383.7,111.4 	"/>
	<path class="st0" d="M298.7,109.3c-2.4,0-4.4,0.8-5.9,2.3c-1.5,1.5-2.3,3.4-2.3,5.7s0.8,4.2,2.3,5.7c1.5,1.5,3.5,2.3,5.9,2.3
		c2.4,0,4.4-0.8,5.9-2.3c1.5-1.5,2.3-3.4,2.3-5.7s-0.8-4.2-2.3-5.7C303.1,110.1,301.1,109.3,298.7,109.3z"/>
	<path class="st0" d="M358.8,111.6c-0.1-1.3-1.2-1.9-3.3-2h-7.7v5.2h7.6C357.6,114.8,358.7,113.7,358.8,111.6z"/>
	<polygon class="st0" points="570.6,86.1 578.8,86.1 574.7,76.4 	"/>
	<path class="st0" d="M356.7,119.9h-9v6.3h8.9c2.6,0,3.9-1.3,3.9-3.7C360.5,120.8,359.3,120,356.7,119.9z"/>
	<path class="st0" d="M560.9,111.6c-0.1-1.3-1.2-1.9-3.3-2h-7.7v5.2h7.6C559.7,114.8,560.8,113.7,560.9,111.6z"/>
	<path class="st0" d="M558.8,119.9h-9v6.3h8.9c2.6,0,3.9-1.3,3.9-3.7C562.6,120.8,561.3,120,558.8,119.9z"/>
	<path class="st0" d="M150.3,50v102.7h499.3V50H150.3z M406.1,69.5h5.5v14.9c0,1.9,0.6,3.4,1.8,4.3c1.2,0.9,2.7,1.4,4.5,1.4
		c1.8,0,3.3-0.5,4.5-1.4c1.2-0.9,1.8-2.3,1.8-4.3V69.5h5.5v16.2c0,2.6-1.1,4.8-3.4,6.7s-5.1,2.7-8.5,2.7s-6.2-0.9-8.5-2.7
		s-3.4-4-3.4-6.7V69.5z M351.4,73.2c2.6-2.5,5.8-3.7,9.7-3.7c3.9,0,7.2,1.1,10,3.4l-3.6,3.7c-1.9-1.4-4-2.1-6.4-2.1
		c-2.4,0-4.4,0.7-5.9,2.2c-1.5,1.4-2.2,3.2-2.2,5.5c0,2.4,0.8,4.3,2.3,5.7c1.5,1.4,3.5,2.1,5.9,2.1c2.4,0,4.6-0.7,6.3-2l3.6,3.7
		c-2.8,2.3-6.1,3.4-10,3.4c-3.9,0-7.1-1.2-9.7-3.7s-3.9-5.5-3.9-9.2C347.5,78.7,348.8,75.7,351.4,73.2z M323.6,73.2
		c2.6-2.5,5.8-3.7,9.7-3.7c3.9,0,7.2,1.1,10,3.4l-3.6,3.7c-1.9-1.4-4-2.1-6.4-2.1c-2.4,0-4.4,0.7-5.9,2.2s-2.2,3.2-2.2,5.5
		c0,2.4,0.8,4.3,2.3,5.7c1.5,1.4,3.5,2.1,5.9,2.1c2,0,3.5-0.4,4.5-1.1v-4.4l-3.6,0v-4.8h9.1v12c-2.8,2.3-6.1,3.4-10,3.4
		c-3.9,0-7.1-1.2-9.7-3.7s-3.9-5.5-3.9-9.2C319.7,78.7,321,75.7,323.6,73.2z M270.8,69.5h5.5l10.9,25.6l-5.8,0l-1.6-3.9h-12.4
		l-1.6,3.9h-5.8L270.8,69.5z M210,88c1.5,1.4,3.5,2.1,5.9,2.1c2.4,0,4.6-0.7,6.3-2l3.6,3.7c-2.8,2.3-6.1,3.4-10,3.4
		c-3.9,0-7.1-1.2-9.7-3.7s-3.9-5.5-3.9-9.2c0-3.6,1.3-6.6,3.9-9.1c2.6-2.5,5.8-3.7,9.7-3.7c3.9,0,7.2,1.1,10,3.4l-3.6,3.7
		c-1.9-1.4-4-2.1-6.4-2.1c-2.4,0-4.4,0.7-5.9,2.2c-1.5,1.4-2.2,3.2-2.2,5.5C207.7,84.7,208.5,86.6,210,88z M231.8,69.5h5.5v10.3
		h12.7V69.5h5.5v25.6l-5.5,0V84.6h-12.7v10.6h-5.5V69.5z M252.6,109.3h-13.7v5.5H249v4.8h-10.1v10.6h-5.5v-25.6h19.2V109.3z
		 M278.5,126.5c-2.6,2.4-5.8,3.7-9.7,3.7c-3.9,0-7.1-1.2-9.7-3.7c-2.6-2.5-3.9-5.5-3.9-9.1c0-3.6,1.3-6.7,3.9-9.1
		c2.6-2.4,5.8-3.7,9.7-3.7c3.9,0,7.1,1.2,9.7,3.7s3.9,5.5,3.9,9.1S281.1,124.1,278.5,126.5z M308.5,126.5c-2.6,2.4-5.8,3.7-9.7,3.7
		c-3.9,0-7.1-1.2-9.7-3.7c-2.6-2.5-3.9-5.5-3.9-9.1c0-3.6,1.3-6.7,3.9-9.1c2.6-2.4,5.8-3.7,9.7-3.7c3.9,0,7.1,1.2,9.7,3.7
		s3.9,5.5,3.9,9.1S311.1,124.1,308.5,126.5z M296.6,79.3v15.9h-5.5V69.5h1.8l17.1,16.1V69.5h5.5v25.6h-2L296.6,79.3z M338.7,109.3
		h-9.1v20.8h-5.5v-20.8H315v-4.8h23.6V109.3z M357.6,130.2l-15.3,0v-25.6h14.5c4.6,0.3,7,2.8,7.3,7.5c-0.1,2.3-0.7,3.8-2,4.6
		c2.4,1.5,3.7,3.5,3.8,5.9C365.6,127.4,362.9,129.9,357.6,130.2z M391.3,130.2l-1.6-3.9h-12.4l-1.6,3.9h-5.8l10.9-25.6h5.5
		l10.9,25.6L391.3,130.2z M400.6,95.2l-5.5,0V84.6h-12.7v10.6H377V69.5h5.5v10.3h12.7V69.5h5.5V95.2z M421.2,130.2h-20v-25.6h5.5
		v20.8h14.5V130.2z M445.8,130.2h-20v-25.6h5.5v20.8h14.5V130.2z M460,95.2h-2L441,79.3v15.9h-5.5V69.5h1.8l17.1,16.1V69.5h5.5V95.2
		z M469.4,123c1.5,1.4,3.5,2.1,5.9,2.1c2.4,0,4.6-0.7,6.3-2l3.6,3.7c-2.8,2.3-6.1,3.4-10,3.4c-3.9,0-7.1-1.2-9.7-3.7
		s-3.9-5.5-3.9-9.2c0-3.6,1.3-6.6,3.9-9.1c2.6-2.5,5.8-3.7,9.7-3.7c3.9,0,7.2,1.1,10,3.4l-3.6,3.7c-1.9-1.4-4-2.1-6.4-2.1
		c-2.4,0-4.4,0.7-5.9,2.2c-1.5,1.4-2.2,3.2-2.2,5.5C467.1,119.7,467.9,121.6,469.4,123z M476.7,69.5h6.4l6.3,8.4l6.5-8.4h6.3
		l-10,12.8v12.8h-5.5V82.4L476.7,69.5z M511.2,130.2h-20v-25.6h5.5v20.8h14.5V130.2z M510.6,95.2h-5.8l10.9-25.6h5.5L532,95.2
		l-5.8,0l-1.6-3.9h-12.4L510.6,95.2z M538.9,120.8c0,2.6-1.1,4.8-3.4,6.7c-2.2,1.8-5.1,2.7-8.5,2.7c-3.4,0-6.2-0.9-8.5-2.7
		c-2.2-1.8-3.4-4-3.4-6.7v-16.2h5.5v14.9c0,1.9,0.6,3.4,1.8,4.3c1.2,0.9,2.7,1.4,4.5,1.4c1.8,0,3.3-0.5,4.5-1.4
		c1.2-0.9,1.8-2.3,1.8-4.3v-14.9h5.5V120.8z M534.7,74.3v-4.8h23.6v4.8h-9.1v20.8h-5.5V74.3H534.7z M559.7,130.2l-15.3,0v-25.6h14.5
		c4.6,0.3,7,2.8,7.3,7.5c-0.1,2.3-0.7,3.8-2,4.6c2.4,1.5,3.7,3.5,3.8,5.9C567.7,127.4,565,129.9,559.7,130.2z M582.4,95.2l-1.6-3.9
		h-12.4l-1.6,3.9H561l10.9-25.6h5.5l10.9,25.6L582.4,95.2z M597.7,95.2h-5.4V69.5h5.4V95.2z"/>
	<path class="st0" d="M150.3,159.7v365.2c0,44.3,52.5,199.5,249.7,225.2c197.2-25.7,249.7-180.8,249.7-225.2V159.7H400H150.3z
		 M631,181.7v47.9v289.9c0,41-48.6,184.6-231,208.3c-182.4-23.7-231-167.3-231-208.3V229.7v-47.9v-10.4h462V181.7z"/>
	<path class="st0" d="M376.5,636.7c-3.4,0-6.3,1.7-6.3,7.2c0,5.2,2.3,8.7,6.5,8.7c3.6,0,6.2-2.7,6.7-7.9
		C382.9,639.2,379.9,636.7,376.5,636.7z"/>
	<path class="st0" d="M420.9,636.7c-3.4,0-6.3,1.7-6.3,7.2c0,5.2,2.3,8.7,6.5,8.7c3.6,0,6.2-2.7,6.7-7.9
		C427.3,639.2,424.2,636.7,420.9,636.7z"/>
	<rect x="441.5" y="566.5" class="st0" width="6" height="41.9"/>
	<rect x="329.4" y="605.7" class="st0" width="46.2" height="4.1"/>
	<polygon class="st0" points="372.1,591.9 362.8,586.3 340.4,586.3 332.5,591.9 332.4,592.1 373.2,592.1 	"/>
	<rect x="329.4" y="597.2" class="st0" width="46.2" height="4.1"/>
	<path class="st0" d="M288.7,688.1c32.3,18.6,69.7,30.8,111.3,36.3c41.6-5.5,79-17.7,111.3-36.3c27.2-15.7,50.7-35.9,69.9-60
		c34-42.8,46.3-88.3,46.3-108.5V229.7v-47.9v-6.9h-455v6.9v47.9v289.9c0,20.2,12.3,65.7,46.3,108.5
		C238,652.2,261.5,672.4,288.7,688.1z M299.7,614.3h-20.6l-23.4-19.7H273c0,0,5.9,2.2,15.1,10.4h11.6V614.3z M300.7,588.4h-55.6
		v17.3h13.2v9.6c0,0-17.1,0-23.2,0c-4.6,0-5.5-4.2-5.7-6.3h-0.2v-20.6h-9.4v-8.1h9.4v-21.8h15.9v21.8h55.6V588.4z M251.5,575.8
		c0,0,15.3-8.3,25-16.3h18.1c0,0-5.3,8.3-21.4,16.3H251.5z M311.9,586.3v-6.1h32.4v-3.5h-30.7V571h30.7v-2.8h-31.8v-5.7h31.8v-3.3
		h15.1v3.3h34v5.7h-34v2.8h33.2v5.7h-33.2v3.5h34.6v6.1h-9.8l1.2,2.7l7.5,0.2v8.1h-3.1v16.9h-14.2H316v-16.9h-3.3v-8.1h4.7l3.9-2.9
		H311.9z M343.8,675.8h-13.9l-0.2-30.2c-4.3,2.6-8.9,5.1-13.7,6.5l-0.2-10.6c5.2-1.7,13.1-4.9,16.5-12.6h11.7L343.8,675.8z
		 M375.7,676.1c-8.7,0-15.7-2.9-16.9-10.7l13.3-1.7c0.9,3.8,1.8,5.1,5.1,5.1c3.3,0,6.1-3.8,6.1-12.4c0,0-4.9,4.4-10.5,4.2
		c-10.4-0.4-14.6-7.5-15.7-16c0.7-9.7,5.9-15,18.9-16c13.9,0,20.8,8.8,20.8,20.6C396.9,667.4,393.8,676.1,375.7,676.1z M420.1,676.1
		c-8.7,0-15.7-2.9-16.9-10.7l13.3-1.7c0.9,3.8,1.8,5.1,5.1,5.1c3.3,0,6.1-3.8,6.1-12.4c0,0-4.9,4.4-10.5,4.2
		c-10.4-0.4-14.6-7.5-15.7-16c0.7-9.7,5.9-15,18.9-16c13.9,0,20.8,8.8,20.8,20.6C441.2,667.4,438.2,676.1,420.1,676.1z M462.6,566.5
		v41.9h21.1v6.3h-78.6v-6.3h22v-41.9h-22.6v-5.3h79.6v5.3H462.6z M481.9,575.2c-5.7,11.6-5.9,26.7-5.9,26.7h-10.4
		c1-17.9,5.7-26.7,5.7-26.7H481.9z M406.1,575.2h11.6c0,0,4.7,8.8,5.7,26.7H411C411,601.9,411.8,586.8,406.1,575.2z M468.8,676.6
		c-13.9,0-21.5-9-21.5-20.8c0-18.3,3.8-26.8,21.9-26.8c8.7,0,15.7,3.5,17,11.3l-13.3,1.1c-0.9-3.8-1.8-5.1-5.1-5.1
		c-3.3,0-6.1,3.8-6.1,12.5c0,0,4.9-4.4,10.5-4.2c10.4,0.4,14.6,7.5,15.7,16C487.1,670.3,481.8,675.6,468.8,676.6z M510.8,614.3
		h-14.9v-6.1h5.1c0,0,6.1-6.9,9.4-9h15.3v1C525.8,600.2,515.8,605.1,510.8,614.3z M543.1,605.5h-0.2c0,1.4,0,3.2,0,4.9
		c0,3.7-3.1,3.9-5.9,3.9c-2.8,0-14.2,0-14.2,0v-6.1c0,0,3.3,0,5.1,0c1.8,0,1.8-0.6,1.8-1.4c0-0.8,0-2.2,0-2.2l0.2,0v-18.8h13.2
		V605.5z M576.5,614.3h-16.9c-4.9-9.2-13-14.2-13-14.2v-1H562c3.3,2.2,7.1,9,7.1,9h7.5V614.3z M577.1,594.8h-11.6l-5.1-4.7l-3.9,5.7
		h-11.8c0,0,4.1-7.7,4.7-8.5c0.6-0.8,1.2-2,0.6-2.6c-0.3-0.3-0.9-0.9-1.4-1.4h-24.4c-3.4,4.2-1.5,3.6-1.1,4.3
		c0.4,0.8,4.5,7.7,4.5,7.7h-12.4l-4.5-6.3l-5.7,5.7h-9.4v-6.3h3.9l4.1-5.1h-7.5v-5.1h33.4v-2.9h-32v-5.1h32v-3.6h-32v-4.9h32v-3.9
		h13.6v3.9h32.6v4.9h-32.6v3.6h32.6v5.1h-32.6v2.9h33.8v5.1h-7.1c-0.7,1-1.3,2.3-0.5,2.8c1,0.6,2.4,2.4,3.1,2.4c0.8,0,4.7,0,4.7,0
		V594.8z M179.5,183.1h441v341.8h-441V183.1z"/>
	<path class="st0" d="M468.1,652.6c-3.6,0-6.2,2.7-6.7,7.9c0.4,5.4,3.5,7.9,6.9,7.9c3.4,0,6.3-1.7,6.3-7.2
		C474.6,656,472.3,652.6,468.1,652.6z"/>
	<path class="st0" d="M272.1,254.3c0,0-24.1,29.8-30.4,31.6c0,0-2.7-28.6-0.3-41.7c0,0-18.8,40.8-0.3,69.1
		C241.1,313.3,267.9,268,272.1,254.3z"/>
	<path class="st0" d="M259,395.2c0,0-1.8-11.6,0.6-32.2c0.6-4.8,1.2-23.5-0.6-40.2c0,0-10.4,33.4-10.4,46.2c0,0-11.9-2.1-30.4-41.1
		c0,0,0.6,27.4,13.4,39.9C234.6,370.8,259,395.2,259,395.2z"/>
	<path class="st0" d="M527.9,254.3c4.2,13.7,31,59,31,59c18.5-28.3-0.3-69.1-0.3-69.1c2.4,13.1-0.3,41.7-0.3,41.7
		C552.1,284.1,527.9,254.3,527.9,254.3z"/>
	<path class="st0" d="M559.2,329.4c-3.9-3-18.5-36.6-18.5-36.6c-0.3,18.2,14.6,62.3,14.6,62.3c28.9-25,19.5-76.3,19.5-76.3
		C569.9,320.1,559.2,329.4,559.2,329.4z"/>
	<path class="st0" d="M551.5,369c0-12.8-10.4-46.2-10.4-46.2c-1.8,16.7-1.1,35.4-0.6,40.2c2.4,20.6,0.6,32.2,0.6,32.2
		s24.4-24.5,27.4-27.4c12.8-12.5,13.4-39.9,13.4-39.9C563.4,366.9,551.5,369,551.5,369z"/>
	<path class="st0" d="M453.7,443.4c0.1-1.3-0.1-2.4-0.6-3.1c-0.5-0.7-1.4-1.1-2.5-1.2c0,0,0,0,0,0c-0.1,0.6-0.4,4.6-0.4,4.6
		c-0.1,1.4,0,2,0.1,2.3c0.1,0.2,0.3,0.5,1,0.6c0.7,0.1,1.2-0.2,1.7-0.7C453.3,445.4,453.6,444.5,453.7,443.4z"/>
	<path class="st0" d="M312.4,444.9c0.6-0.1,2.4-0.3,3-0.4c-0.2-0.6-1.6-3.9-2.3-5.4C313,440.7,312.5,444.3,312.4,444.9z"/>
	<path class="st0" d="M346,439.6c0.6-0.1,2.4-0.3,3-0.4c-0.2-0.6-1.6-3.9-2.3-5.4C346.6,435.4,346.1,439,346,439.6z"/>
	<path class="st0" d="M453.1,436.3c0.5-0.5,0.8-1.4,0.9-2.5c0.1-1.1-0.1-1.9-0.5-2.4c-0.4-0.5-1.1-0.8-2-0.9c0,0-0.3,0-0.3,0l0,0.2
		c0,0-0.5,5.8-0.6,6.3c0.2,0,0.4,0.1,0.4,0.1C451.9,437,452.6,436.8,453.1,436.3z"/>
	<path class="st0" d="M405.1,441c0.5-1.3,0.8-3.2,0.8-5.9c0-2.8-0.3-5-0.9-6.5c-0.6-1.4-1.3-2.1-2.3-2.1c-1,0-1.8,0.6-2.3,1.8
		c-0.6,1.3-0.9,3.2-0.9,5.8c0,2.8,0.3,5,0.9,6.5c0.6,1.4,1.3,2.1,2.3,2.1C403.8,442.8,404.6,442.2,405.1,441z"/>
	<path class="st0" d="M524.5,472.2l-0.6-37.6c0,0-58.6-19.8-123.2-19.8c-64.6,0-127,20.4-127,20.4l-2.5,38.6
		c35.1-9.7,75.3-19.8,130.1-19.8C456.2,454,524.5,472.2,524.5,472.2z M493,454.2l0.2,0c0.7,0,0.9-0.2,1.1-0.3
		c0.1-0.1,0.3-0.5,0.4-1.5l1.4-11.7c0.1-1,0-1.4-0.1-1.5c-0.1-0.2-0.3-0.4-1-0.6l-0.2-0.1l0.3-2.2l6.6,0.8l0.3,0l-0.3,2.2l-0.2,0
		c-0.7,0-0.9,0.2-1.1,0.3c-0.1,0.1-0.3,0.5-0.4,1.5l-1.3,10.7c-0.2,1.8-0.1,2.4,0.1,2.6c0.2,0.3,0.7,0.6,1.5,0.7
		c1.1,0.1,1.9,0,2.6-0.5c0.7-0.5,1.5-1.4,2.3-2.9l0.1-0.2l1.6,0.2l-1.7,6.2l-12.4-1.5L493,454.2z M478.1,451.6l0.2,0
		c0.7,0,1-0.2,1.1-0.3c0.1-0.1,0.3-0.5,0.4-1.5l1.4-11.7c0.1-1,0-1.4-0.1-1.5c-0.1-0.2-0.3-0.4-1-0.6l-0.2-0.1l0.3-2.2l6.6,0.8
		l0.3,0l-0.3,2.2l-0.2,0c-0.7,0-0.9,0.2-1.1,0.3c-0.1,0.1-0.3,0.5-0.4,1.5l-1.3,10.7c-0.2,1.8-0.1,2.4,0.1,2.6
		c0.2,0.3,0.7,0.6,1.5,0.7c1.1,0.1,1.9,0,2.6-0.5c0.7-0.5,1.5-1.4,2.3-2.9l0.1-0.2l1.6,0.2l-1.7,6.2l-12.4-1.5L478.1,451.6z
		 M459.4,447.7l0.2,0c0.3-0.1,0.6-0.2,0.9-0.5c0.3-0.3,0.6-0.8,0.9-1.6l6-13.8l0.1-0.3l0-0.2l0-0.5l-0.5-1.2l4.6,0.7l0.3,0l2.1,17.5
		c0.1,0.7,0.2,1.2,0.4,1.6c0.2,0.3,0.4,0.5,0.6,0.6l0.3,0.1l-0.3,2.3l-7.7-1.1l0.3-2.3l0.3,0c0.4,0,0.7,0,0.9-0.1
		c0.2-0.1,0.3-0.3,0.3-0.6l0-0.4c0,0,0-0.7,0-0.7c0,0-0.2-2.4-0.2-2.9c-0.5-0.1-3.9-0.6-4.4-0.6c-0.2,0.4-0.9,2.5-0.9,2.5l-0.2,0.6
		l-0.1,0.4c-0.1,0.4,0,0.7,0.1,0.9c0.1,0.2,0.4,0.3,0.7,0.4l0.4,0.1l-0.3,2.4l-5.3-0.8L459.4,447.7z M443.4,446.2l0.3,0
		c0.8,0,1.1-0.2,1.3-0.4c0.1-0.1,0.3-0.5,0.4-1.5l1.1-12.3c0.1-1.1-0.1-1.4-0.2-1.6c-0.1-0.2-0.4-0.4-1.2-0.6l-0.3-0.1l0.2-2.3
		l0.3,0l7.6,0.7c1.9,0.2,3.4,0.7,4.3,1.7c0.9,0.9,1.3,2.2,1.2,3.9c-0.1,1.2-0.5,2.3-1.3,3.1c-0.6,0.7-1.4,1.1-2.4,1.4
		c1.2,0.6,2.1,1.3,2.7,2.1c0.7,1,1,2.2,0.9,3.6c-0.1,1.6-0.8,3-2,4c-1.2,1-2.6,1.5-4.2,1.3l-9-0.8L443.4,446.2z M429.5,425.3
		l13.2,0.8l0.3,0l0,6.2l-1.5-0.1l0-0.3c-0.1-1.3-0.4-2.2-0.7-2.7c-0.4-0.5-0.9-0.8-1.7-0.8c0,0-0.6,0-0.9-0.1c0,0.6-0.8,14-0.8,14
		s0,1.1,0,1.1c0,0,0.1,0.5,0.1,0.5c0.1,0.3,0.2,0.5,0.5,0.6c0.3,0.2,0.6,0.3,1,0.3l0.4,0l-0.1,2.2l-7.9-0.5l0.1-2.2l0.4,0
		c0.4,0,0.8,0,1-0.2c0.2-0.1,0.4-0.3,0.5-0.6l0.1-0.5l0.1-1.1c0,0,0.8-13.3,0.8-14c-0.3,0-1-0.1-1-0.1c-0.7,0-1.2,0.2-1.6,0.6
		c-0.4,0.5-0.8,1.4-1.2,2.6l-0.1,0.3l-1.6-0.1L429.5,425.3z M412.2,431.2c0.3-1.2,0.8-2.3,1.5-3.3c0.7-1.1,1.6-2,2.6-2.6
		c1-0.6,2.1-0.9,3.2-0.9c1,0,2,0.2,2.9,0.7c0.9,0.5,1.7,1.2,2.4,2.1c0.7,1,1.3,2.1,1.7,3.3c0.4,1.2,0.6,2.6,0.6,4.1
		c0,1.3-0.1,2.6-0.4,3.8c-0.3,1.2-0.7,2.3-1.3,3.2c-0.8,1.2-1.7,2.2-2.7,2.8c-1,0.6-2.1,1-3.4,1c-1.1,0-2.1-0.3-3-0.8
		c-0.9-0.5-1.8-1.4-2.5-2.4c-0.6-0.9-1.1-2-1.4-3.2c-0.3-1.2-0.5-2.5-0.5-3.9C411.7,433.7,411.8,432.4,412.2,431.2z M304.9,438.5
		c-0.2,0.1-0.5,0.2-0.6,0.5c-0.1,0.2-0.4,0.8-0.8,2.3c0,0-0.1,0.5-0.1,0.4c-0.6,2.4-1.3,4.8-2.2,7.3c0,0.1,0.7,3.7,0.7,3.7
		c0.3,1.5,0.6,1.8,0.6,1.9c0.1,0.1,0.5,0.2,1.4,0.1l0.3,0l0.4,2.2l-8.5,1.6l-0.4-2.2l0.3-0.1c0.9-0.2,1.2-0.4,1.3-0.6
		c0.1-0.1,0.2-0.6-0.1-2.1c0,0-0.6-3-0.6-3.2c-0.1-0.1-5.3-7.2-5.3-7.2c-0.7-1-1.1-1.3-1.3-1.5c-0.3-0.2-0.6-0.3-0.9-0.2l-0.3,0
		l-0.4-2.2l8.4-1.6l0.4,1.9l0.1,0.3l-0.4,0c0,0-0.2,0-0.2,0l-0.2,0c-0.3,0.1-0.5,0.2-0.7,0.3c-0.1,0.2-0.2,0.4-0.1,0.6
		c0,0.2,0.2,0.5,0.6,1.1l0.1,0.2c0,0,2.5,3.6,3.1,4.6c0-0.1,0.1-0.3,0.1-0.3c1.6-4.8,1.8-6.4,1.7-6.8c0-0.1-0.1-0.2-0.3-0.2
		c-0.2-0.1-0.5-0.1-0.9,0l-0.3,0l-0.4-2.2l5-0.9l0.3-0.1l0.4,2.2L304.9,438.5z M316.8,453.8l-0.3-2.3l0.3-0.1
		c0.4-0.1,0.7-0.2,0.8-0.4c0.1-0.2,0.2-0.4,0.1-0.7c0,0-0.1-0.4-0.1-0.4c0,0-0.2-0.6-0.2-0.6c0,0-0.8-2.2-1-2.6
		c-0.5,0.1-4,0.6-4.4,0.6c0,0.4-0.2,2.5-0.2,2.5l0,0.6l0,0.4c0.1,0.4,0.2,0.7,0.4,0.8c0.2,0.2,0.5,0.2,0.8,0.2l0.4-0.1l0.3,2.3
		l-5.3,0.7l-0.3-2.2l0.2-0.1c0.3-0.1,0.5-0.4,0.7-0.7c0.2-0.3,0.3-0.9,0.4-1.8l1.9-14.6l0-0.3l0-0.2l-0.2-0.4l-0.8-1l4.6-0.7l0.3,0
		l6.9,15.7c0.3,0.6,0.6,1.1,0.8,1.4c0.3,0.3,0.5,0.4,0.8,0.4l0.3,0l0.3,2.3L316.8,453.8z M334.8,446.5c0,0,0.2,1.1,0.2,1.1
		c0,0,0.1,0.5,0.2,0.5c0.1,0.2,0.3,0.4,0.6,0.5c0.3,0.1,0.6,0.1,1,0.1l0.4,0l0.2,2.2l-7.9,0.9l-0.3-2.2l0.4,0c0.4,0,0.8-0.2,1-0.3
		c0.2-0.2,0.4-0.4,0.4-0.6l0.1-0.5l-0.1-1.1c0,0-1.5-13.3-1.6-13.9c-0.3,0-1,0.1-1,0.1c-0.7,0.1-1.2,0.4-1.5,0.9
		c-0.3,0.5-0.6,1.5-0.7,2.8l0,0.3l-1.5,0.2l-0.3-6.2l13.1-1.5l0.3,0l1,6.1l-1.5,0.2l-0.1-0.3c-0.3-1.2-0.7-2.1-1.2-2.6
		c-0.4-0.4-1.1-0.6-1.8-0.5c0,0-0.6,0.1-0.9,0.1C333.3,433.2,334.8,446.5,334.8,446.5z M350.4,448.6l-0.3-2.3l0.3-0.1
		c0.4-0.1,0.7-0.2,0.8-0.4c0.1-0.2,0.2-0.4,0.1-0.7l-0.1-0.4c0,0-0.2-0.6-0.2-0.6c0,0-0.8-2.2-1-2.6c-0.5,0.1-3.9,0.6-4.4,0.6
		c0,0.4-0.2,2.6-0.2,2.6l0,0.6l0,0.4c0.1,0.4,0.2,0.7,0.4,0.8c0.2,0.2,0.5,0.2,0.8,0.2l0.4-0.1l0.3,2.3l-5.3,0.7l-0.3-2.2l0.2-0.1
		c0.3-0.1,0.5-0.4,0.7-0.7c0.2-0.3,0.3-0.9,0.4-1.8l1.9-14.6l0-0.3l0-0.2l-0.2-0.4l-0.8-1l4.6-0.7l0.3,0l6.9,15.7
		c0.3,0.6,0.6,1.1,0.8,1.4c0.2,0.3,0.5,0.4,0.8,0.4l0.3,0l0.3,2.3L350.4,448.6z M360,446.8l-0.1-2.2l0.3,0c0.7-0.1,1-0.4,1.1-0.5
		c0.1-0.1,0.2-0.5,0.2-1.5l-0.7-11.8c-0.1-1-0.2-1.4-0.3-1.5c-0.1-0.1-0.4-0.3-1.1-0.4l-0.3,0l-0.1-2.2l7-0.4l0.3,0l0.1,2.2
		l-0.3,0.1c-0.7,0.1-1,0.4-1.1,0.5c-0.1,0.1-0.2,0.5-0.2,1.5l0.7,11.8c0.1,1,0.2,1.4,0.4,1.5c0.1,0.1,0.4,0.3,1.1,0.4l0.3,0l0.1,2.2
		L360,446.8z M393.4,429.8h-1.5l-0.1-0.2c-0.3-0.9-0.8-1.6-1.4-2c-0.6-0.4-1.6-0.6-2.7-0.6c-0.9,0-1.2,0.1-1.3,0.2
		c0,0-0.2,0.1-0.2,0.9c0,0,0,4.5,0,5.1c0.4,0,1.2,0,1.2,0c0.6,0,1-0.2,1.3-0.5c0.3-0.3,0.5-0.8,0.6-1.6l0-0.3h1.8v7.1h-1.7l0-0.3
		c-0.1-0.7-0.3-1.3-0.6-1.7c-0.3-0.4-0.7-0.6-1.3-0.6c0,0-0.8,0-1.2,0c0,0.6,0,5.1,0,5.1c0,1.4,0.2,1.8,0.3,2
		c0.1,0.2,0.5,0.4,1.4,0.4l0.3,0v2.2h-7.7v-2.2l0.3,0c0.7-0.1,1-0.3,1.1-0.4c0.1-0.1,0.3-0.5,0.3-1.5V429c0-1-0.2-1.4-0.3-1.5
		c-0.1-0.1-0.4-0.4-1.1-0.4l-0.3,0v-2.2h12.7h0.3V429.8z M397,441.9c-0.6-0.9-1.1-2-1.4-3.2c-0.3-1.2-0.5-2.5-0.5-3.9
		c0-1.4,0.2-2.7,0.5-3.9c0.3-1.2,0.8-2.3,1.5-3.3c0.7-1.1,1.6-2,2.6-2.6c1-0.6,2.1-0.9,3.2-0.9c1,0,2,0.2,2.9,0.7
		c0.9,0.5,1.7,1.2,2.4,2.1c0.7,1,1.3,2.1,1.7,3.3c0.4,1.2,0.6,2.6,0.6,4.1c0,1.3-0.2,2.6-0.4,3.8c-0.3,1.2-0.7,2.3-1.3,3.2
		c-0.8,1.2-1.6,2.2-2.7,2.8c-1,0.6-2.1,1-3.4,1c-1.1,0-2.1-0.3-3-0.8C398.6,443.8,397.8,443,397,441.9z"/>
	<path class="st0" d="M419.3,443.1c1,0,1.8-0.6,2.3-1.8c0.6-1.3,0.8-3.2,0.8-5.9c0-2.8-0.3-5-0.9-6.5c-0.6-1.4-1.3-2.1-2.3-2.1
		c-1,0-1.8,0.6-2.3,1.8c-0.6,1.3-0.8,3.2-0.8,5.8c0,2.8,0.3,5,0.9,6.5C417.6,442.4,418.3,443.1,419.3,443.1z"/>
	<path class="st0" d="M468.1,435.6c-0.7,1.5-2.1,4.9-2.4,5.5c0.6,0.1,2.4,0.4,3,0.4C468.6,440.9,468.3,437.3,468.1,435.6z"/>
	<path class="st0" d="M503.1,483l-7.6-3.1l-7.1-2.9l7.6-1.5l0.8-0.2c0.1-2.2,0-5-0.1-7.1c-2.8-0.6-5.7-1.2-8.8-1.8
		c-13.5,1.9-35.2,5.1-38.6,4.7c-16.1-2-38.3,7-39.8,7.9c-5.5,3.1-9.5,3.6-11.8,2.4c-9.8-5.1-40.8-10.1-46-9.4
		c-12.9,1.7-32.3-2.5-35-3.2c-4.1-1-7.1-1.5-9.3-1.7c-1.7,0.4-3.4,0.8-5.1,1.2c2.1,2.8,2.4,7.2,2.3,9.9l0.3,0.1l7.7,1.6l-7.3,2.9
		l-6,2.4c26.4,17.9,73.7,6.9,73.7,6.9c-9.8,4.7-27.5,16.7-31.1,21.6c-6.3,8.7,2.4,7.2,4.7,4.7c11-11.4,35.4-25.6,55.1-26
		c19.7-0.4,43.7,19.3,52,26c8.3,6.7,7.3-0.5,5.5-3.9c-7.1-13.4-31.5-22.8-31.5-22.8C476.3,499.2,497.1,487.5,503.1,483z"/>
	<path class="st0" d="M501.6,425.9c2.8,0.7,5.4,1.4,7.7,2c1.7-6.4,4.6-15.1,8.3-26.6C517.6,401.3,505.3,417.2,501.6,425.9z"/>
	<path class="st0" d="M533.6,410.4c0,0,5.1-34.6,2.7-48c0,0-15.6,54.1-20.8,67.1c1.5,0.4,2.8,0.8,3.9,1.1
		c12.5-3.4,45.5-16.1,55.6-56.4C575,374.4,559.8,398.5,533.6,410.4z"/>
	<path class="st0" d="M280.5,430.7c1.2-0.3,2.5-0.7,4-1.1c-5.1-13-20.8-67.2-20.8-67.2c-2.4,13.4,2.7,48,2.7,48
		c-26.2-11.9-41.4-36.1-41.4-36.1C235,414.5,267.9,427.3,280.5,430.7z"/>
	<path class="st0" d="M290.7,428c2.4-0.6,5-1.3,7.8-2c-3.7-8.6-16.1-24.7-16.1-24.7C286.1,412.8,289,421.6,290.7,428z"/>
	<path class="st0" d="M331.5,419.1c1.1-0.2,2.2-0.4,3.3-0.6c-29.2-31.2-52.5-90.5-31.5-200.4h192.9c0,0,32.5,135.5-28.6,200.6
		c1.1,0.2,2.1,0.4,3.2,0.6c3.3-3.7,6.4-7.6,9.3-11.8c24.7-36.1,28.5-86.2,27.3-121.8c-1.3-38.5-8.5-68.9-8.6-69.2l-0.3-1.3h-1.3
		H302.2h-1.4l-0.3,1.4C278.8,330.8,304.8,389.6,331.5,419.1z"/>
	<path class="st0" d="M566.9,467.1c-8.5-5.5-32.8-14.9-40.4-17.8l0.4,22.9l0.1,3.1l-3-0.8c0,0-0.1,0-0.1,0c0,0,0,0,0,0
		c0,0-0.1,0-0.1,0c0,0-0.1,0-0.1,0c-0.2-0.1-0.5-0.1-0.9-0.2c0,0,0,0-0.1,0c-0.2,0-0.4-0.1-0.6-0.2c0,0-0.1,0-0.1,0
		c-0.2-0.1-0.5-0.1-0.8-0.2c0,0,0,0-0.1,0c-0.3-0.1-0.6-0.1-0.9-0.2c0,0,0,0-0.1,0c-0.3-0.1-0.7-0.2-1.1-0.3c0,0,0,0,0,0l-22.5,4.5
		l70,28.6c0,0-8.1-13.4-13.7-22.5c-5.5-9.1-3-9.1-1-9.7c1.9-0.6,13.1-4.1,13.9-4.4C566.3,469.4,569.1,468.6,566.9,467.1z"/>
	<path class="st0" d="M530,448.1c7.7-1.3,19.6-7.1,29.5-28.1c0,0-17.8,12.5-33.2,18.6l0.1,8.2l0.9,0.3
		C528.1,447.4,529,447.7,530,448.1z"/>
	<path class="st0" d="M304.3,480.4l-28-5.6c-1.5,0.4-3,0.8-4.5,1.2l-3.2,0.9l0.2-3.3l1.4-21.9c-6.6,2.3-26,9.4-44.6,19.8l19.8,8.5
		c0,0-15.4,24.3-17.8,30.7L304.3,480.4z"/>
	<path class="st0" d="M270.5,448.2l0.7-10.6c-14.8-6.4-30.7-17.6-30.7-17.6C250.7,441.4,262.8,447,270.5,448.2z"/>
	<path class="st0" d="M414.2,400.7c12.1,0,21.9-9.4,21.9-20.9c0-11.6-9.8-20.9-21.9-20.9c-7.8,0-14.6,3.9-18.5,9.7l-0.2,0l-0.3,0.6
		c-1.2,1.9-2,3.9-2.5,6.1l-0.4,1l0.2,0.2c-0.2,1.1-0.3,2.2-0.3,3.3C392.3,391.4,402.2,400.7,414.2,400.7z M414.2,399.6
		c-2.2,0-4.3-0.3-6.2-0.9l1.1-0.9c1.8,0.5,3.8,0.8,5.8,0.8c1.9,0,3.7-0.3,5.4-0.7l0.9,0.6C419,399.1,416.7,399.6,414.2,399.6z
		 M419.7,397.4c-1.5,0.4-3.1,0.6-4.8,0.6c-1.9,0-3.7-0.3-5.5-0.8l-3.5-6.3l4-5.5l8.6-0.4l4.2,6.8L419.7,397.4z M435,379.3
		c0,0.2,0,0.3,0,0.5c0,4.4-1.5,8.5-4.1,11.8l0.1-0.9c2.3-3.1,3.6-6.8,3.6-10.8c0,0,0,0,0,0L435,379.3z M430.9,389.7l-7.8,1.6l0,0
		l-3.9-6.3l1.9-7.9l8.8-2l4.1,5.5C433.8,383.9,432.7,387,430.9,389.7z M431.8,369.4l-1-0.4c-2.5-3.4-6.1-5.9-10.3-7.1l-1-1.1
		C424.7,362,429.1,365.2,431.8,369.4z M420.8,362.6c3.5,1.1,6.6,3.2,8.9,5.9l-0.1,6l-8.8,2l-5.7-4.7l-0.1-6.5L420.8,362.6z
		 M414.3,365.3l0.1,6.5l-6.7,4.6l-7.9-2.5v-5.1c2.1-2.7,5-4.7,8.4-5.9L414.3,365.3z M409.5,360.6l-2.1,1.9c-2.9,1.2-5.5,3-7.5,5.3
		l-2.4,0.4C400.3,364.5,404.6,361.7,409.5,360.6z M395.9,378.2l3.6-3.8l7.6,2.4l2.3,8.3l-4,5.5l-6.7-1.1c-1.9-2.8-2.9-6.1-2.9-9.7
		C395.8,379.3,395.9,378.7,395.9,378.2z M393.7,377.4l1.6,1.4c0,0.3-0.1,0.6-0.1,1c0,4,1.3,7.7,3.5,10.7l0.4,2.8
		c-3.5-3.5-5.7-8.3-5.7-13.6C393.5,379,393.6,378.2,393.7,377.4z"/>
	<path class="st0" d="M398.9,321.3l3-3c-12.5-7.7-11-11.9-11-11.9c-1.2-0.6-3.3,1.2-3.3,1.2c-0.3,6,8.3,16.7,8.3,16.7l1.5-1.5
		c0,0-10.7-10.1-8.9-15.2C388.5,307.6,391.2,316.9,398.9,321.3z"/>
	<path class="st0" d="M406.7,323.1l0.3,3c7.4-6,3.9-12.8,3.9-12.8l-4.5,6.6l0.2,2.1c0.5-0.2,3.5-1.5,4.6-4.8
		C411.1,317.2,411.7,321,406.7,323.1z"/>
	<path class="st0" d="M329.7,341.7c1.8,0.2,3.4,1,4.6,1.8c1.2,0.8,4.8,1.2,5.6-0.4c0.8-1.6,2.4-1.4,2.4-1.4s1.8-0.4,2.8-1
		c8.1-5.4,4.2-9.1,4.2-9.1c-4.4-0.2-4-2.6-3-4.2c1-1.6,13.1-0.8,13.1-0.8l0.8,1.8c1.6,0.2,7.2-0.8,7.2-0.8c5,14.5,2,18.5,2,18.5
		c-10.7,4-9.3,18.9-8.7,21.5c0.6,2.6-0.6,2.6-2.8,3c-2.2,0.4-6,0.8-6,4.2c0,3.4,7.5,5.4,8.9,6.6c1.4,1.2,7.3,5.6,8.9,7
		c1.6,1.4,4,1.2,4,1.2c0.4,2.4,2,10.1,4.6,13.1c6.6,7.7,13.9,6.4,17.1,3.2c2.1-2.1,5.9-4.3,8.3-5.6c-0.3-0.1-0.6-0.3-0.8-0.4
		c-4.2,1.9-9.2,6.4-10.5,6.9c-5,2-7.5-0.2-8.9-1.4c-5.8-4.6,2.4-11.3,3.4-12.3c0.6-0.6,3.3-3.4,5.2-5.5c-0.1-0.4-0.3-0.8-0.4-1.2
		c-0.8,1.5-3.1,4.2-4.4,5.3c-1.4,1.2-5.1,3.6-7.5,9.8c0,0-8.6-25.5-12.2-26.9l8.3-1.2l0.6-3.8l2.2,2.6c0,0,0.4,1,2-0.2
		c1.6-1.2,7.8-7.4,13.9-4.5c0.3-0.5,0.7-0.9,1-1.4l-0.2,0.1l-1.4-4.4l-0.8,0.2l0.3,1.2c-9.5,0.6-15,5.5-16.2,6.7
		c-0.4-0.5-0.8-1.1-1.2-2.1c-1.6-3.8-4.6-13.9,0.6-19.5c0,0,13.7,3.2,19.9,7.5c1.2,0.9,6.2,2.8,8.5,2.4l0.1,0.8
		c0.6-0.2,1.1-0.4,1.7-0.6c0.2-0.2,0.4-0.5,0.8-0.7c8.3-4.6,11.7-16.7,12.1-18.7c0.4-2,2,0.8,3.6,1.6c3.6,1.8,3.6,0,3.6,0
		c5.8,5.2,18.7,7.2,18.7,7.2c1.6,8.7,7.9,6.4,7.9,6.4c2.4,4.2,6.8,2.8,9.5,2.4c2.8-0.4,2-5,2-5c4.6-0.6,3.4-5.2,3.4-5.2s1.9,0,2.8-3
		c2-7-8.9-7-8.9-7c-5.8-5.6-9.7-2.3-11.1-1c-4.6,4.4-10.5-5.2-12.9-7.5c-2.4-2.4-1.8-5.4-1.8-5.4c-10.3-12.5-23.8-10.1-23.8-10.1
		l-0.3-0.1c0.4,0.9,0.7,1.9,0.9,3.1v-0.8c0,0,16.5,2,21.1,10.1l-0.6,1.4c0,0-5.9-9.9-20.4-9.9c0.2,3.4-1.3,7.9-7.4,12.6l-0.8-7.6
		l-2.4,3.5l-0.5-5.1l-6.5,7c0,0-9.7-10.4-9-18.7l-3.9-0.4l-0.4-0.6c-6.6-2-25,1.2-25,1.2l0.2,2c-19.1,2.8-22.4,10.9-22.4,10.9
		c-2.8-1.4-4.8-0.6-4.8-0.6c-4,1-7.7,4.2-6.8,6.2c1,2,0.9,2.2,0.2,3.8c-1.2,2.8-0.2,3,2,4.2c2.2,1.2,2,2.6,1.8,4.2
		C327.1,340.3,327.9,341.5,329.7,341.7z M393.8,364.4l0.5,1.7c0,0-4-3.8-13.9,3.8c-0.7,0.6-1.6,1-2.5,0.5
		C386.8,363.3,392.5,364.1,393.8,364.4z M459.6,356.1c-5-0.2-5.4-1.2-6-3.6c-0.6-2.4,1.6-3,3-2.2c1.4,0.8,1.8,1.8,7.5,2
		C464.2,352.3,464.6,356.3,459.6,356.1z M464.7,350.9c-1,0-4,1-6.8-0.6c-1.2-0.7-1.8-1.8-1-2.8c0,0,6.2,2.8,6-2.2
		c0,0,4.6,0.4,4.6,1.8C467.5,348.5,465.7,350.9,464.7,350.9z M469.3,340.2c0.5,1.4,0.8,3-0.3,4.1c-1.1,1.1-3.5,1.4-5.2,0.3
		c-1.6-1.1-1.6-1.4-1.9-7C461.9,337.5,468.7,338.8,469.3,340.2z M434.8,325.3c0,0,7.1,10.3,11.4,11.9c1.6,0.6,1.9,1.9,6.8-2.2
		c1.2-1,9.2-0.8,8.7,5.7c-0.1,1.6,2.7,7.9-2.7,6.8c-1.3-0.3-3.5-3.8-3-7.3c0,0-1.4,1.4-1.4,2.4c0,1.1,1.1,3-0.5,3.8
		c-1.6,0.8-4.3-1.1-4.3-1.1s-1.9,2.7,5.7,2.2l0.3,1.9c0,0-4.1,0.3-2.7,3.3c0,0-5.7,3.3-6.8-6c0,0-17.6-3.3-19-7.6L434.8,325.3z
		 M373.2,387.5c0,0-3.2,0.8-7.5-3.8c-1.2-1.2-11.1-6.8-11.9-7.3c-0.8-0.6-2.8-3.4,2.2-4.6c1.6-0.4,2,0.4,4.6-1.4l2,3.8l3.8,0.8
		C366.2,375,372.2,381.9,373.2,387.5z M375.8,369.2L375,372c0,0-8.3,1.8-11.1,1c-0.7-0.2-1.2-0.6-1.6-1c12.1-0.4,13.1-1.4,13.1-1.4
		v-0.8c-3,1.6-13.5,0.8-13.5,0.8l0.2,1.1c-1-1.4-1.1-3.3-1.1-3.9c0-0.8-3.4-15.1,9.1-21.7l5.8,1.8C375.8,348,369,353.9,375.8,369.2z
		 M388.2,349.9c2.3,1.2,8.1,4.7,13.8,6c1,0.2,3.9,0.6,4.3,1.7l-3.3-0.5c0,0-4.9-1.8-6.8-2.5c-1.8-0.7-8.6-4.6-15.1-6
		c-1.5-0.3-6.9-2.1-10.7-2.8v-0.6C370.4,345.1,383.2,347.3,388.2,349.9z M382.5,309.8c1.8,0,1.4,1.6-0.4,1.6c-1.8,0-16.1-0.6-22,1
		C360.1,312.4,366,310,382.5,309.8z M327.1,334.8c-1.4-0.6-3.8-1.4-2.6-4c0.5-1.2,2-2.6,0.8-3c-1.2-0.4-2.4-2.4,0.2-4.4
		c0.8-0.7,7-4.2,8.7-1.2l-1.2,2.2c0,0,0.8,0,2.8-3.4c2-3.4,7.9-6.4,21.3-10.3c0,0,0.8,9.3,2,14.5c0,0-16.1-2-16.7,5.4
		c0,0,1.4-2,2-0.4c0.6,1.6,2.8,2.2,3.4,2.2c0.6,0,0.8,2.2,0,3.2c-0.8,1-2.6,4-4.2,4.6c-1.6,0.6-2.4,0.2-3.2-0.4
		c-0.8-0.6-1.6-1.6,1.4-3.6c0.7-0.5-0.4-1.4-1.8,0.2c-1.4,1.6-3.2,2.8-1,3.8c0.9,0.4,1.8,1,0.4,1.8c-1.4,0.8-2.4,1.8-5.4,0.4
		c-1.5-0.7-5.6-1.6-5.6-1.6s-0.6-2.6,0-3.6C329.1,336.2,328.5,335.4,327.1,334.8z"/>
	<path class="st0" d="M376.4,283.7c0,0.3,0.7,8.5,6.1,14.9c0.6,0.7,2.6,2.1,4,2c3.4-0.3,5.7-2.4,6.3-6l0.1-0.8
		c0.3-2.1,1.1-7.6,2.8-10.5c0.7-1.2,1.6-1.9,2.2-1.9c0.4,0,1.5,0.4,2.2,1.2c0.6,0.6,0.8,1.3,0.7,2c-0.1,1.1-0.4,1.5-0.8,1.7
		c-0.6,0.4-1.3,2-1.2,3.5c0.1,1.1,0.6,2,1.6,2.5l0.3,0.2c1.1,0.8,4.5,3.3,12.8,5.1c1.6,0.4,14.1,1.4,17.6-0.7
		c0.6-0.4,2.7-2.3,2.7-4.4c0-0.1,0-0.1,0-0.2c-0.1-1.3-0.9-2.3-2.5-3c-0.7-0.3-1.6-0.4-2.2-0.4c0.3-0.8,1.4-2.1,4.8-2
		c0.2,0,1,0.2,1.6,0.9c0.5,0.5,1,1.4,0.9,2.8l-0.3,1.1c-0.5,1.6-1.3,4.4-1.1,7.3c0.1,1.4,0.8,3.8,4.2,4.1c1.2,0.1,6.4-1.4,8.1-4.1
		l3.3-4.1l-4,3.4c0,0-4.7,2.7-7.2,2.7c-1,0-1.7-0.3-2.2-0.8c-0.6-0.7-0.8-1.8-0.5-3.1l0.5-2c0.6-2,1.4-4.6,0.5-8.2
		c-0.2-0.7-1-1.5-2.2-2c-0.9-0.4-3.2-1.1-5.5,0.3l-0.6,0.3c-0.5,0.2-1.2,0.5-2.3,1.2c-0.7,0.5-1.8,0.8-2.4,0.8
		c2.3-1.3,3.1-3,4.5-5.6c3.1-5.7,1.4-9.9,0.6-12.2c-1.2-3.4-6.1-2.4-6.1-2.4c0.7-0.3,2.5-2.5,2.7-3.6c0.1-1,1-2.5,1.9-4.3
		c0.4-0.8,1.3-1,2.2-1.1c1.9,1.6,3.7,3.7,4.8,6.3c0.6,1.4,2.7,6.8-3.5,18.6c0.4-0.1,0.8-0.1,1.2-0.1c0.1,0,0.2,0,0.3,0
		c3.1-7.4,3.1-9.6,3.2-11.9c5.8-2.1,8.1-11.7,8.1-11.7c-3.6-0.3-9.9,0.1-11.3,0.3c-0.5-0.6-1-1.1-1.5-1.6c0.7,0,1.4,0.1,1.5-0.1
		c0.4-0.4,1.9-6.3,1.9-6.3c-1.4,0.5-2.6,1.2-3.6,1.8c-0.4-9.7,1.2-19.7,2-24.2c0.3-1.4,0.2-2.2,0-2.6c-0.1-0.1-0.1-0.1-0.2-0.2
		c-0.4-0.3-1-0.1-1.5,0.2c-0.2,0.1-0.4,0.3-0.6,0.5c0,0,0,0,0,0c-1.2,1.5-2.2,3.3-2.9,5.2c-1.3,3.9-1.8,8.2-1.8,8.3l-0.9,0
		c0-0.2-0.1-0.4-0.1-0.6c-0.8-1-1.4-2.6-2.1-3.9c-0.8-1.1-1.6-1.8-1.9-1.9c-0.5,0-1,0.7-1,1.8c0,0,0,2.3,0,3.4c0,0,0,0.1,0,0.1
		c0.1,0,0.2,0.1,0.3,0.1c1.3,0.4,2.5,1.1,3.3,2.7c0.1,0.2,0.2,0.3,0.2,0.5c0,0,0,0,0,0v0c0,0,0,0,0,0l0,0l0.3,0.7l-0.8-0.2
		c-0.3,0-0.6-0.1-0.9-0.2c-0.4-0.1-0.7-0.1-1.2-0.1c0,0.5-0.1,1.2-0.1,1.5c0.1,0.1,0.2,0.2,0.4,0.3c0.1,0,0.2,0.1,0.2,0.1
		c1.4,0.9,2.8,2,3.8,3.7c1,1.3,1.2,2.8,1.2,4c0,0.2,0,0.3,0,0.5c0,0.1,0,0.3,0,0.4c0,0.3,0,0.6,0,0.9c0.3,0.2,0.8,0.6,1.2,0.9
		c0.2,0,0.4,0,0.6-0.1c-0.3,0.3-0.7,0.6-1,0.9l-1-0.7l-0.8-0.3c0-0.1-0.4-0.7-1-1.6c-0.4-0.2-0.7-0.3-1-0.4c-0.8-0.3-2.2-0.4-4-0.4
		c0.1,0.1,0.2,0.2,0.2,0.3c0.5,0.1,3.9,1.1,7.3,3.3c-1.9,2-2.6,3.9-2.6,4.5c0,1.2-0.7,3.4-1.5,4.2c-0.7,0.7-3,2.8-3,2.8
		c-2.4,1.7-4.3,8.3-4.3,8.3c0.9-7.9-2.1-11.9-2.1-11.9s0.3-8.2-0.2-10c-0.1-0.2-0.1-0.5-0.2-0.7c0.9,0.3,1.7,0.7,2.5,1.2
		c3.1,1.5,4.7,3.6,5.2,4.5c0,0,0,0,0,0.1c-0.3-5.3-5.2-9.2-5.2-9.3l-0.7-0.6l0.9-0.2c4.8-1.2,8,2.1,9.4,4.1c0,0,0.1,0.1,0.1,0.1
		c0-0.1,0-0.2,0-0.4c-0.1-1.6-0.4-2.9-1-3.9c0,0,0-0.1-0.1-0.1c-1.3-1.6-2.9-2.9-3.8-3.5c-2.2-1.2-5.6-1.5-5.6-1.5l-0.8-0.1l0.3-0.4
		l0,0l0.2-0.3c1-1.2,5.4-1.4,5.4-1.4s1.3,0.2,2.1,0.3c0,0,0,0,0,0c-0.4-0.7-0.9-1.1-1.5-1.4c-0.4-0.1-1.9-0.6-1.9-0.6
		c-0.7-0.1-1.4-0.2-2.2-0.3l-1-0.1c-2.5-0.2-9.2,4.7-11.9,6.9c0,0,0,0,0,0c0,0.1,0.1,0.2,0.1,0.3c0.5,1.2,2,5.3,2.2,5.7
		c0.3-0.1,0.5-0.1,0.8-0.1c0-0.1,0.1-0.2,0.1-0.4c0-8.6,0.9-5.7,0.9-5.7c2.5,1.6,4,3.6,4.8,5.1c-1.9-3-5.2-5.2-5.2-5.2v5.4
		c4.6,0,4.9,10.3,4.9,10.3l0.6,1.9c0,0-2.6-1.2-3.6-0.9c-5.5,1.5-6.9,7.5-7.4,9.1c-0.7,2.2-0.3,6.9-0.1,9c-0.7-1.5-3.1-3.5-5.2-3
		c-2.4,0.5-4.3,2.6-5.7,6.3c-0.3,0.8-0.4,2.5-0.5,4.3c-0.1,1.4-0.2,2.8-0.4,3.3c-0.5,1.8-2.1,5.1-3.2,5.2
		c-1.5,0.2-6.9-0.2-10.5-14.6l-1.4-4.2L376.4,283.7z M443.3,260.8c0,0,0.8,4.4-6.6,10.3c0,0,0-0.2,0.1-0.6l0.6-0.5
		c1.5-0.9,4-5.2,4.8-6.5l0.7-1.2l-1.3-0.3c-2.7-0.6-5,1.1-5.8,1.8c-0.4-0.8-0.9-1.6-1.4-2.4C435.4,261.2,441.8,260.4,443.3,260.8z
		 M419,279.5c0,0,0.2-2.7,1.9-5.1c0.6-0.8,3.4-1.3,4,1c0.2,1,1.2,6.6-1.8,9.2c-0.1,0.1-0.2,0.1-0.4,0c1.4-1.7,1.3-4.8,1.3-6.3
		c0-1.6-0.4-3-1.6-3c-2.2,0-2.9,3.2-3.2,4.5C419.1,279.6,419,279.5,419,279.5z M421,278.1l0.1-1.3l1.3,0.1l-0.3,1.2H421z
		 M421.3,283.9c-0.1,0.1-0.3,0.1-0.5,0.1c-0.3-0.3-0.6-0.5-1-0.7c-0.1-0.3-0.2-0.6-0.1-0.9c0.3-1,0-2.4,2.1-2.2
		C421.8,280.2,422,283.5,421.3,283.9z M426,292.7c0,1-0.1,2.1-1.9,2.5c0,0,2.7-3-0.7-3c0,0-3,0-3,1.8c0,0-0.9,0.1-0.7-1.6
		c0.1-1.8,2.4-1.8,2.4-1.8l0.6-3.6c0.2,0.3,0.3,0.5,0.5,0.7l-0.2,2.9C422.9,290.6,426,290.6,426,292.7z M417.4,277
		c1.3-2.8,2.9-5.7,4.2-6.6c1.2-0.8,5.5-3.3,8,1c0.7,1.1,1,6.1,0.1,8.2c-0.9,2.1-1.6,4.8-4.8,7.6c-0.3,0.2-0.5,0.3-0.8,0.3
		c-0.4-0.3-1-0.7-1.5-1.2c-0.1-0.2-0.3-0.4-0.6-0.6c-0.1-0.1-0.1-0.2-0.2-0.3c0-0.1-0.1-0.1-0.1-0.2c0.1,0,0.2,0,0.4,0
		c2.7-0.4,3.5-4,3.7-5.5c0.7-5.8-1.6-7-3-7c-1.3,0-2.9,2.3-3.4,3.1c-1.2,1.9-1.2,6.1-1.2,6.9c-0.3-0.1-0.6-0.1-0.9-0.1L417.4,277
		L417.4,277z M411.3,289c0.1,1,1,1.5,1,1.5l-0.1,1.8h-1.6c0,0,0.3-2.7-2.4-2.7c-1.9,0-1.2,2.2-1.2,2.2l-0.9,0.3c0,0-1.8-1.9,0.1-3.6
		c0.7-0.6,2.8-1.6,4.2,0.3c0,0,0.3-2.8,1-4.4l0.9,0.1C412.3,284.6,411.1,288,411.3,289z M416.8,282.6l-0.3,0c-0.1,0-0.1,0-0.2,0
		l-0.7-0.1c0,0,0,0-0.1,0l-0.2,0c0.5-0.9,1.1-2.4,1.5-3.6L416.8,282.6z M403.4,275.4c0.2-1.5,1.5-9.2,7.7-9.8
		c1.3-0.1,5.1,0.3,5.5,7.5c0.1,1.2-0.2,8-2.8,10.1c-0.1,0.1-0.2,0.1-0.3,0.2c-0.8,0.5-1.5,0.8-3.2,0.8c0,0-0.4,0-1,0
		c2.9-2,3.2-8,3.2-9.5c0-4.3-3.4-4.8-4.6-4.2c-3.6,1.8-4,9.4-4,9.4s0.1,0.1,0.2,0.2c0.1-2,0.6-5.7,2.5-8c0.9-1,3-1.6,4.9,0.6
		c0.6,0.7,0.4,6-0.6,8.5c-0.5,1.1-0.9,2.1-2.1,3c-1.4,0.1-3.5,0.2-4.1,0.4c-0.2-0.1-0.8-0.6-1.3-1.3l1.5,0.5
		c-0.1-0.3-0.1-0.7-0.2-1.1c-0.5-0.2-0.9-0.4-0.9-0.4S402.6,281.1,403.4,275.4z"/>
	<path class="st0" d="M419.9,305.8c2.4-4.2,7.4-4.7,8.9-5.4c2.5-1,3.6-2.3,4.1-3.6c-0.5,0.5-0.9,0.9-1.2,1.1
		c-0.4,0.2-0.9,0.5-1.5,0.6c-1.4,0.9-3.6,2.1-6.2,2.8c-1,0.3-2.2,0.6-3.5,2.1c-1.3,1.5-4.7,5.4-6.1,5.7c-1.4,0.3-11.4,0.4-15.2-2.5
		c-0.4-0.3-3.6-3-7.5-7.3c-0.3,0.3-0.7,0.7-1.1,0.9c3.9,4.1,7.3,6.9,7.9,7.2c5.4,3.3,13.3,2.7,15.6,2.5
		C416.6,309.9,419.3,307,419.9,305.8z"/>
	<path class="st0" d="M418.3,250.6c0.3,1.9,4.6,1.6,4.6,1.6C422.1,249.5,418.3,250.6,418.3,250.6z"/>
	<path class="st0" d="M418.3,244.1c1.6,1.4,3,0.4,3,0.4C421.4,242.7,418.3,244.1,418.3,244.1z"/>
	<path class="st0" d="M397.7,289.3c-0.6-0.7-1.4-1.4-2.2-2.4c-0.5,1.6-0.9,3.4-1.1,4.9c0.1,0.3,0.1,0.5,0.2,0.8
		c0.2,1,1.5,7.2,12.8,8.9c1.4,0.2,6.3,0.9,8.2-2.5c-1.1-0.1-1.9-0.2-2.3-0.3c-1.1-0.3-2.1-0.5-3.1-0.8c0.8,0.7,1.4,1.6,1.6,2.8
		c0,0-8.3,2.2-14.7-5.4c0,0,3-0.4,6.2,0c-1.7-0.8-2.7-1.6-3.2-1.9l-0.3-0.2c-1.3-0.7-2.1-1.9-2.1-3.4
		C397.8,289.7,397.8,289.5,397.7,289.3C397.8,289.3,397.7,289.3,397.7,289.3z"/>
	<path class="st0" d="M377,270.2c-1.8,9.4,4.4,19.4,10.7,26.7c0.2-0.2,0.5-0.7,0.9-1.3c-5-6.2-10.1-14.2-10.7-22.1
		c0,0,2.8,4.2,6.3,4.1c0.5,0.2,1.1,0.6,1.2,1.1c0.3,1.1,0.7,2.9-1,2.9c-1.7,0-2.1-1.9-0.8-2l0.3-0.4c0,0-2-0.7-1.9,1
		c0.1,1.7,1.2,3,2.5,2.7c1.3-0.3,2-1.2,1.9-3c-0.1-1.3-1-2.6-1.7-3.5c-0.3-0.6-0.9-1.5-2-2.9c-1.3-1.6-2.4-4.2-1.6-8.3
		c0,0,4.2,5.3,5.7,4.1c0.7,0.3,2,0.8,4.6,1.2c1.3,0.2,3.3,1.9,2.4,5.4c-0.2,0.8-1.5,2.1-3.7,0.9c-0.7-0.4-1.2-3.1,1.3-3.9
		c0,0-2.4-1.2-2.7,2.2c-0.3,3.4,2.7,3.3,2.7,3.3s0,2.3,0.2,5c0.4-0.9,0.9-1.7,1.4-2.4c-0.1-0.8-0.2-1.6-0.3-2.5c0,0,2.1-0.7,2.1-5.7
		c0-2.7-3-3.3-4.5-3.4c-1.1-0.1-2.7,0.1-3.3-0.3c0.4-0.6,0.4-2-0.1-4.7c-0.3-1.6-1.6-1.7-2.1-4.9c0.3-0.1,0.6-0.1,0.7,0
		c0.4,0.2,0.5,1,0.7,1.8c0.2,0.8,0.4,1.6,0.8,2.2c1.3,1.8,2.7,2.2,3.6,2.2c1.3,0,2.3-0.7,2.7-1.3c2.9-4,0.5-6.8-1.4-9
		c-3.3-3.8-6.7-3.5-7.3-3.4c0-0.3,0-0.6,0.1-0.9c0,0,5.4-0.5,11.7,4.6l-0.1-1.5c-2.3-0.4-2.8-1.3-3.5-1.9c-2.7-2.1-9.1-2.7-9.1-2.7
		c-0.2,4.6-0.1,7.8,0.2,10l0,0.2l0,0c0.7,4.6,2.1,4.9,2.5,6.1c0.8,2.5-0.3,3.3-2.7,1.4c-1-0.8-3-4.5-3-4.5c-2,9.8,2.1,13.2,2.6,13.5
		c0,0,0,0,0,0C380,276.1,377,270.2,377,270.2z"/>
	<path class="st0" d="M398,300.6c-0.9-0.5-1.8-0.3,1.8,1.5c3.6,1.8,8,4,12.2,3.6c1.4-0.1,6.1-2,7.2-6.4c-0.7,0-1.4-0.1-2-0.1
		c-0.9,2-2.8,5.4-5.7,5.3C410.4,304.5,403.1,303.5,398,300.6z"/>
	<path class="st0" d="M405.9,278.7c0.4-1.1,2.1-1.8,1.9,0c-0.1,1.1-0.1,3.2-0.8,4.5c0.5,0.5,1.1,0.8,1.5,1c0.9-1.2,2.1-6,2.3-7.2
		c0.3-2.1-1-4.7-2.5-4.6c-3.4,0.1-3.6,6.3-3.7,8c0,0,0,0.1,0,0.1c0.1,0.2,0.3,0.4,0.5,0.6C405.3,280.4,405.6,279.5,405.9,278.7z
		 M407.4,274.6l1.3,0.4v0.7l-1.6,0.1L407.4,274.6z"/>
	<path class="st0" d="M390.2,240.2c-0.5-0.7-1.5-1.1-2.3-0.9c-0.5,0.1-0.8,0.5-1,1.1c0.2,2.2,3.6,6,4.8,6.4c6,2.1,5.5,4.2,5.4,7.6
		c0,0-0.1,0-0.1,0l0.1,1.7c0.3,3.2,3.2,3.3,6.9,3.1l1.2-0.1c0.4,0,0.7-0.2,0.9-0.5c0.1-0.1,0.1-0.3,0.2-0.5c0,0,0,0,0,0
		c0-0.2,0.1-0.3,0.1-0.5c0,0,0,0,0,0c0,0,0,0,0,0c0.1-0.6,0-1.4-0.1-2.2c0-0.1,0-0.1,0-0.2c0-0.2-0.1-0.4-0.1-0.7c0-0.1,0-0.1,0-0.2
		c0,0,0-0.1,0-0.1c0,0,0,0,0,0c-0.4-1.8-1-3.6-1.5-4.6c-1.6-3.3-3-11.2-4-16.9c-0.1-0.4-0.1-0.7-0.2-1c0-0.3-0.1-0.5-0.1-0.8
		c-0.4-2.2-0.7-4-1-4.6c-0.3-0.8-0.7-1.2-1-1.2c-0.8,0-1.8,1.7-2.2,2.4c-0.9,1.5-0.8,6.3-0.5,10.4c0.3,3.3,0.7,6.2,0.7,6.2
		c0,0-0.1,0-0.1,0l0,0.5l-2-1.2C392.9,242.5,391.1,241.5,390.2,240.2z"/>
	<path class="st0" d="M404.4,246.3c0,0.1,0.1,0.2,0.1,0.3c0,0,0,0,0.1-0.1C404.5,246.5,404.4,246.4,404.4,246.3z"/>
	<path class="st0" d="M405.3,259.9l-1.2,0.1c-2.6,0.2-6.1,0.4-7.4-2.1c0.3,1,1.3,2.1,3.9,2.2c1.2,0.1,7.5,1.6,7.3-2.9
		c0-0.9-0.8-2.4-1-2.8c0,0,0,0,0,0c0.3,1.8,0.4,3.5-0.2,4.5C406.5,259.6,406,259.9,405.3,259.9z"/>
</g>
</svg>
