<?xml version="1.0" encoding="utf-8"?>
<!-- Generator: Adobe Illustrator 22.1.0, SVG Export Plug-In . SVG Version: 6.00 Build 0)  -->
<svg version="1.1" id="图层_1" xmlns="http://www.w3.org/2000/svg" xmlns:xlink="http://www.w3.org/1999/xlink" x="0px" y="0px"
	 viewBox="0 0 800 800" style="enable-background:new 0 0 800 800;" xml:space="preserve">
<style type="text/css">
	.st0{fill-rule:evenodd;clip-rule:evenodd;fill:#F8B62D;}
	.st1{fill-rule:evenodd;clip-rule:evenodd;fill:#C8161D;}
	.st2{fill-rule:evenodd;clip-rule:evenodd;fill:#FFFFFF;}
	.st3{fill:#F8B62D;}
	.st4{fill:#C8161D;}
	.st5{fill:#002870;}
	.st6{fill:#FFFFFF;}
	.st7{fill:#F39800;}
	.st8{fill:#1D50A2;}
	.st9{fill:#FFE100;}
	.st10{fill:#231815;}
	.st11{fill:#95452A;}
</style>
<path class="st0" d="M51,400c0,192.4,156.6,349,349,349c192.4,0,349-156.6,349-349c0-192.4-156.5-349-349-349
	C207.6,51,51,207.5,51,400z"/>
<path class="st1" d="M71.4,400c0,181.2,147.4,328.6,328.6,328.6c181.2,0,328.6-147.4,328.6-328.6c0-181.2-147.4-328.6-328.6-328.6
	C218.9,71.4,71.4,218.8,71.4,400z"/>
<path class="st2" d="M85.4,400C85.4,226.5,226.5,85.4,400,85.4c173.5,0,314.6,141.1,314.6,314.6c0,173.5-141.1,314.6-314.6,314.6
	C226.5,714.6,85.4,573.5,85.4,400z"/>
<path class="st1" d="M156.1,400c0,65.2,25.4,126.4,71.4,172.5c46.1,46.1,107.3,71.4,172.4,71.4c134.5,0,243.9-109.4,243.9-243.9
	c0-134.5-109.4-243.9-243.9-243.9C265.5,156.1,156.1,265.5,156.1,400z"/>
<path class="st3" d="M156.1,400l-1.6,0v0.1c0,65.6,25.5,127.2,71.9,173.5c46.4,46.4,108,71.9,173.6,71.9
	c135.4,0,245.5-110.1,245.5-245.5c0-135.4-110.1-245.5-245.5-245.5c-135.4,0-245.5,110.1-245.5,245.5H156.1l-1.6,0L156.1,400h1.6
	c0-66.8,27.2-127.4,71-171.2c43.9-43.9,104.4-71,171.2-71c66.8,0,127.4,27.2,171.2,71c43.9,43.9,71,104.4,71,171.2
	c0,66.8-27.2,127.4-71,171.2c-43.9,43.9-104.4,71-171.2,71c-64.7,0-125.5-25.2-171.3-71c-45.8-45.8-71-106.5-71-171.3v0v0v0H156.1z"
	/>
<path class="st2" d="M237.4,562.6C194,519.2,170.1,461.4,170.1,400C170.1,273.2,273.2,170,400,170c126.8,0,229.9,103.2,229.9,229.9
	c0,126.8-103.2,229.9-229.9,229.9C338.6,629.9,280.8,606,237.4,562.6z"/>
<path class="st3" d="M237.4,562.6l1.1-1.1C195.4,518.3,171.7,461,171.7,400c0-63,25.6-120,67-161.4c41.4-41.4,98.4-67,161.4-67
	c63,0,120,25.6,161.4,67c41.3,41.4,67,98.4,67,161.4c0,63-25.6,120-67,161.4c-41.3,41.4-98.4,67-161.4,67
	c-61,0-118.3-23.7-161.5-66.9L237.4,562.6l-1.1,1.1c43.7,43.7,101.9,67.8,163.7,67.8c127.7,0,231.5-103.9,231.5-231.5
	c0-127.7-103.9-231.5-231.5-231.5c-127.7,0-231.5,103.9-231.5,231.5c0,61.8,24.1,120,67.8,163.7L237.4,562.6z"/>
<path class="st1" d="M397,197.6c-0.1,0-5.3-3.5-5.3-7.6l0-0.4c0.2-2.7,3.2-5.4,8.3-7.7c5,2.3,8,5,8.2,7.7l0,0.4
	c0,4.1-5.2,7.5-5.2,7.6l1.3,2.7l8.8-3.2c3.9,0.1,5.4,1.2,5.9,1.9c0.6,0.8,0.4,1.6,0.4,1.6c-0.1,2.3-0.6,3.6-1.7,4.3
	c-3.2,2.3-10.6,0.3-13.1-0.7l-3.2-1.2l8.4,21.1l14.1-0.9l22.4-18.7l-1.7-2.5c-11.2,6.1-13.1,5-13.2,5l0-0.2c0-1,1.2-3.6,3-6l0.6-0.8
	l-0.8-1.4c0.8-2.2,15.5-3.9,32.9-3.8c-24.2,12.7-30.5,37.3-31.6,42.9c-2.4,0-68.7,0-71.1,0c-1.1-5.6-7.4-30.2-31.6-42.9
	c17.4-0.1,32.2,1.5,33,3.8l-0.2,0.4l-0.5,0.8l0.5,1c1.8,2.4,2.9,5,2.9,6l0,0.2c-0.1,0.1-2,1.1-13.2-5l-1.7,2.5l22.5,18.7l14,0.9
	l8.4-21.1l-3.2,1.2c-2.6,0.9-9.9,2.9-13.2,0.7c-1.1-0.8-1.7-2.1-1.7-3.9c-0.1-0.4-0.2-1.2,0.3-2c0.5-0.7,2-1.8,6.4-1.8l8.3,3.1
	L397,197.6z"/>
<path class="st3" d="M436.4,238.7h-72.8l-0.2-0.8c-0.9-4.8-6.8-29.4-31.1-42.2l-3.6-1.9l4,0c1.3,0,32.3-0.1,33.9,4.5l0.1,0.4
	l-0.6,1.1l0.2,0.4c1.8,2.4,3.1,5.2,3.1,6.5l-0.1,0.9l-0.5,0.3c-2,1-8.2-1.8-13.3-4.6l-0.7,1l21.5,17.9l13,0.8l7.3-18.3l-1.1,0.4
	c-0.4,0.1-9.8,3.5-14.1,0.6c-1.4-1-2.1-2.5-2.1-4.7c-0.1-0.6-0.2-1.7,0.5-2.7c0.8-1,2.7-2.2,7.2-2.2h0.2l7.6,2.8l0.6-1.1
	c-1.6-1.2-5-4.3-5-7.9l0-0.5c0.3-3.1,3.2-6,8.8-8.5l0.4-0.2l0.4,0.2c5.6,2.6,8.6,5.4,8.8,8.5l0,0.5c0,3.5-3.3,6.6-5,7.9l0.6,1.1
	l8.2-2.9l0.2,0c4.4,0.1,6.1,1.5,6.7,2.3c0.7,0.9,0.7,1.9,0.6,2.3c-0.1,2.5-0.8,4.1-2.2,5.1c-4.3,3-14-0.5-14.1-0.6l-1.1-0.4
	l7.3,18.3l13-0.8l21.5-17.9l-0.7-1c-7.2,3.8-11.9,5.4-13.4,4.5l-0.4-0.2l-0.1-0.8c0-1.3,1.4-4.1,3.2-6.6l0.2-0.2l-0.7-1.2l0.1-0.4
	c1.6-4.6,32.6-4.5,33.9-4.4l4,0l-3.6,1.9c-24.9,13.1-30.5,39.2-31.1,42.2L436.4,238.7z M365.3,236.7h69.5
	c1.1-5.2,7.1-27.7,28.6-40.9c-15.7,0.1-25.9,1.7-27.9,2.9l0.7,1.3l-0.9,1.3c-1.4,1.9-2.3,3.7-2.6,4.7c1.3-0.2,4.4-1,11.6-4.9
	l0.8-0.4l2.7,4l-23.4,19.5l-15.1,0.9l-9.2-23l-9.2,23l-15.1-0.9l-23.4-19.5l2.7-4l0.8,0.4c7.2,3.9,10.3,4.8,11.6,4.9
	c-0.3-1-1.2-2.8-2.6-4.7l-0.1-0.1l-0.7-1.4l0.6-1.1c-1.9-1.2-12.1-2.7-27.9-2.9C357.9,208.8,363.9,230.5,365.3,236.7z M400.3,201.4
	l4.7,1.8c3.4,1.2,9.7,2.6,12.2,0.8c0.6-0.4,1.2-1.2,1.3-3.5l0-0.2c0-0.1,0.1-0.4-0.2-0.8c-0.2-0.2-1.3-1.4-5-1.5l-9.5,3.4l-2-4.1
	l0.7-0.7c2.3-1.6,4.8-4.3,4.8-6.7l0-0.4c-0.2-2.1-2.7-4.5-7.2-6.6c-4.5,2.1-7.1,4.5-7.2,6.7l0,0.4c0,3.4,4.8,6.6,4.8,6.7l0.7,0.5
	l-2.2,4.3l-9-3.3c-4.1,0-5.2,1.1-5.5,1.4c-0.2,0.3-0.2,0.7-0.1,1.1l0,0.2c0,2,0.7,2.7,1.2,3.1c2.6,1.8,8.9,0.5,12.2-0.8l4.7-1.8
	l-0.1-0.2l0.3,0.1l0.3-0.1L400.3,201.4z"/>
<path class="st1" d="M464.8,586c-9.6-1.6-13.3-0.5-20.4-4.3c7.3-3.8,11-8.2,18.2-16.1c8.1-9,13.5-14.8,16.5-21
	c-2.2,0.9-4.5,1.8-7,2.8c-10.1,4-17.3,7.3-21.1,11.1c-6.8,6.9-8.1,12.7-17.1,18.4c0,0-4.8,1.9-24.3,13.4c-2.9,1.7-6.1,3.8-9.5,6.2
	c-3.5-2.5-6.7-4.5-9.6-6.2c-19.4-11.4-24.3-13.4-24.3-13.4c-9-5.6-10.4-11.5-17.2-18.4c-3.8-3.9-11-7.1-21.1-11.1
	c-2.5-1-4.8-1.9-7-2.8c3,6.2,8.4,12.1,16.5,21c7.2,7.9,10.9,12.3,18.2,16.1c-7.1,3.8-10.8,2.7-20.4,4.3c-11.3,1.9-13.1,4.4-23.3,1.5
	c-1.3-0.4-3-0.6-4.8-1c2,2.7,4.5,5.1,7.7,7.3c9.2,6.4,13.6,7.4,24.4,7.4c17.9,0,12.1-7.3,33.1-7.3c7.1,0,15.5,1.3,24.2,5.1
	c-6.2,4.6-13.3,10.4-21.5,17.8l3.3,0.8c7.1-7.9,14.5-13.2,21.8-16.9c7.2,3.7,14.6,9,21.8,16.9l3.2-0.8c-8.2-7.4-15.3-13.2-21.5-17.8
	c8.7-3.8,17-5.1,24.2-5.1c21,0,15.2,7.3,33.1,7.3c10.8,0,15.2-1,24.4-7.4c3.2-2.3,5.7-4.7,7.7-7.3c-1.8,0.3-3.5,0.6-4.8,1
	C477.8,590.4,476,587.9,464.8,586z"/>
<path class="st3" d="M421.4,618.8l-0.4-0.4c-6.3-6.9-13.4-12.5-21-16.4c-7.7,4-14.7,9.5-21,16.4l-0.4,0.4l-5.7-1.4l1.4-1.3
	c7.1-6.5,13.9-12.1,20.1-16.8c-7.2-2.9-14.6-4.4-22.2-4.3c-10.7,0-14.2,1.9-17.7,3.8c-3.3,1.8-6.6,3.6-15.5,3.6
	c-10.9,0-15.5-1-24.9-7.6c-3.2-2.3-5.8-4.7-7.9-7.5l-1.5-2l3.3,0.6c1.5,0.3,2.9,0.5,4.1,0.8c7.1,2,10,1.3,15.2,0.1
	c2.1-0.5,4.5-1.1,7.7-1.6c3.1-0.5,5.6-0.8,7.8-1c4-0.4,6.9-0.7,10.7-2.4c-5.9-3.4-9.7-7.5-15.5-14l-2.5-2.7
	c-7.6-8.4-12.6-13.9-15.5-19.9l-1.1-2.3l2.4,1c2.2,0.9,4.5,1.8,7,2.8c10.7,4.3,17.6,7.5,21.4,11.4c2.6,2.6,4.4,5.1,6.1,7.5
	c2.7,3.8,5.3,7.3,10.8,10.7c0.8,0.3,6.2,2.7,24.3,13.4c2.9,1.7,5.9,3.7,9,5.9c3.1-2.2,6.1-4.2,9-5.9c18.1-10.6,23.6-13.1,24.3-13.4
	c5.4-3.4,8-7,10.8-10.7c1.7-2.4,3.5-4.8,6.1-7.5c3.8-3.9,10.8-7.1,21.4-11.4c2.6-1,4.9-1.9,7-2.8l2.4-1L480,545
	c-2.9,6.1-8,11.7-15.7,20.2l-2.4,2.6c-5.8,6.4-9.5,10.4-15.4,13.8c3.8,1.7,6.6,2,10.6,2.4c2.2,0.2,4.7,0.5,7.7,1h0
	c3.2,0.5,5.6,1.1,7.7,1.6c5.2,1.3,8.1,1.9,15.2-0.1c1.1-0.3,2.5-0.6,4-0.8l3.4-0.6l-1.5,2c-2.1,2.8-4.6,5.3-7.9,7.5
	c-9.4,6.6-14,7.6-24.9,7.6c-8.8,0-12.2-1.8-15.4-3.6c-3.4-1.9-7-3.8-17.7-3.8c-0.1,0-0.2,0-0.3,0c-7.5,0-14.9,1.4-21.9,4.3
	c6.4,4.8,13.1,10.5,20.1,16.8l1.4,1.3L421.4,618.8z M377.1,616.4l0.8,0.2c6.5-7,13.8-12.7,21.7-16.7l0.5-0.2l0.5,0.2
	c7.9,4,15.2,9.6,21.6,16.7l0.8-0.2c-6.9-6.2-13.7-11.8-20-16.5l-1.4-1l1.6-0.7c7.8-3.4,16-5.1,24.3-5.1c11.4,0,15.2,2,18.9,4
	c3.2,1.7,6.2,3.3,14.5,3.3c10.6,0,14.7-0.9,23.8-7.3c2.2-1.6,4.1-3.2,5.8-5c-0.8,0.1-1.4,0.3-2,0.5c-7.7,2.2-10.9,1.4-16.2,0.1
	c-2.1-0.5-4.4-1.1-7.6-1.6l0,0c-3-0.5-5.5-0.7-7.6-1c-4.7-0.5-8.1-0.8-13.1-3.5l-1.7-0.9l1.7-0.9c6.6-3.4,10.1-7.3,16.5-14.3
	l2.4-2.6c6.5-7.2,11.1-12.3,14.1-17.3c-1.4,0.6-2.9,1.2-4.5,1.8c-10.4,4.2-17.2,7.3-20.7,10.9c-2.5,2.5-4.2,4.9-5.9,7.2
	c-2.9,3.9-5.6,7.7-11.4,11.3l-0.2,0.1c0,0-5.1,2.1-24.1,13.3c-3,1.8-6.2,3.9-9.5,6.2l-0.6,0.4l-0.6-0.4c-3.3-2.3-6.5-4.4-9.5-6.2
	c-19-11.2-24.1-13.3-24.1-13.3l-0.2-0.1c-5.8-3.6-8.5-7.3-11.4-11.3c-1.7-2.3-3.4-4.7-6-7.3c-3.6-3.6-10.3-6.7-20.7-10.9
	c-1.6-0.6-3-1.2-4.5-1.8c2.9,4.9,7.5,10,13.9,17.1l2.5,2.7c6.4,7.1,9.9,11,16.6,14.5l1.7,0.9l-1.7,0.9c-5,2.7-8.4,3-13.1,3.5
	c-2.2,0.2-4.6,0.4-7.6,1c-3.1,0.5-5.5,1.1-7.6,1.6c-5.4,1.3-8.6,2.1-16.2-0.1c-0.6-0.2-1.3-0.3-2-0.5c1.6,1.8,3.5,3.5,5.8,5
	c9.1,6.4,13.2,7.3,23.8,7.3c8.3,0,11.3-1.6,14.5-3.3c3.7-2,7.4-4,18.6-4c8.4,0,16.7,1.7,24.6,5.1l1.6,0.7l-1.4,1
	C390.9,604.4,384.2,610,377.1,616.4z"/>
<path class="st1" d="M478.8,569c5.4-4.2,8.9-9.5,14.7-19.5c5.8-9.9,10.3-16,11.6-23.4c-2.4,1.3-4.9,2.8-7.6,4.7
	c-8.4,6-14.9,10.7-16.6,13.7c-5,8.5-7.1,15.5-11,19.6c-6,6.3-8.5,5.3-12.3,11.5c1.6-0.4,3.3-0.7,4.3-0.7c7.1,0,15,10.9,28.7,10.9
	c7.1,0,17.3-2.3,22.9-6.2c6.3-4.3,11.1-9.3,14-15.9c-11.5,4.1-7.8,5.7-25.6,5.7C490.8,569.5,486.1,571.1,478.8,569z"/>
<path class="st3" d="M490.5,586.9c-8.2,0-14.5-3.8-19.5-6.9c-3.5-2.1-6.5-4-9.2-4c-0.9,0-2.5,0.2-4,0.6l-2.4,0.6l1.3-2.1
	c2.3-3.7,4.1-5,6.3-6.6c1.7-1.2,3.5-2.5,6.1-5.1c2.3-2.4,3.9-5.8,6-10.1c1.4-2.8,2.9-6,4.9-9.4c1.9-3.3,8.9-8.3,16.9-14
	c2.5-1.8,4.9-3.2,7.7-4.8l1.8-1l-0.4,2.1c-1.1,6-4.3,11.3-8.3,18c-1.1,1.8-2.2,3.7-3.4,5.8c-5.4,9.2-8.7,14.4-13.4,18.5
	c3.8,0.8,7.1,0.6,11.4,0.3c2.7-0.2,5.7-0.4,9.6-0.4c12.5,0,14.2-0.8,18.2-2.7c1.7-0.8,3.7-1.8,7.1-3l2.2-0.8l-1,2.2
	c-2.8,6.4-7.4,11.5-14.3,16.3C508,584.6,497.4,586.9,490.5,586.9z M461.9,574c3.3,0,6.5,2,10.2,4.3c5,3.1,10.8,6.6,18.4,6.6
	c6.7,0,16.9-2.3,22.4-6c5.8-4,9.8-8.2,12.5-13.2c-1.9,0.8-3.3,1.4-4.5,2c-4.3,2-6.1,2.9-19,2.9c-3.8,0-6.8,0.2-9.4,0.4
	c-5.2,0.3-8.9,0.6-14-0.9l-1.9-0.5l1.6-1.2c5.4-4.2,8.7-9.3,14.5-19.3c1.2-2.1,2.4-4,3.5-5.8c3.5-5.9,6.2-10.3,7.5-15.1
	c-1.9,1.1-3.7,2.2-5.5,3.5c-7.5,5.4-14.6,10.5-16.3,13.4c-1.9,3.3-3.5,6.5-4.8,9.2c-2.1,4.3-3.9,8-6.3,10.6
	c-2.7,2.8-4.6,4.2-6.4,5.4c-1.7,1.2-3,2.1-4.4,4C460.6,574,461.3,574,461.9,574z"/>
<path class="st1" d="M502.8,556.5c10.8-12.2,12.1-15,19.1-29.4c4.5-9.4,6.4-14.2,7.3-17.3c0.9-2.8,2.4-3.7,3.5-6.8
	c-3.8,4.5-7.9,7.3-15.1,14.3c-8.2,8.1-8.4,11.5-13.2,22.1c-4.3,9.5-8.1,12.7-10.7,22.9c4.6,0.3,10.4,0.2,16.2,0.2
	c9.5,0,20.5-2.4,26.5-7.7c8.3-7.5,15.9-14,20.6-27c-10.2,7.9-21.5,8.9-36.6,18.3C512.2,551.1,510.3,555.8,502.8,556.5z"/>
<path class="st3" d="M502.4,563.6c-3.2,0-6.2,0-8.9-0.2l-1.2-0.1l0.3-1.2c1.7-6.5,3.8-10.2,6.3-14.5c1.4-2.5,2.9-5.1,4.5-8.6
	c1-2.2,1.8-4.1,2.5-5.8c2.7-6.5,4.2-10.1,10.9-16.6c3.1-3,5.6-5.2,7.8-7.2c2.9-2.5,5.1-4.5,7.2-7.1l3.6-4.3l-1.9,5.3
	c-0.6,1.6-1.3,2.7-1.9,3.6c-0.6,1-1.2,1.8-1.6,3.1c-1.3,4.2-3.6,9.7-7.3,17.4l-0.3,0.7c-6.3,13.1-7.9,16.4-16.9,26.8
	c2.9-0.8,4.8-2.5,7.3-4.6c1.9-1.6,4-3.3,6.9-5.2c7.3-4.6,13.9-7.2,19.6-9.5c6.3-2.5,11.7-4.7,16.8-8.7l2.7-2.1l-1.2,3.3
	c-4.6,12.7-12,19.4-19.8,26.4l-1.1,1c-6.5,5.9-18.3,8-27.1,8c-1.3,0-2.5,0-3.8,0C504.8,563.6,503.6,563.6,502.4,563.6z M494.9,561.4
	c3.3,0.2,7.1,0.1,11.1,0.1c1.2,0,2.5,0,3.8,0c8.5,0,19.7-2,25.8-7.5l1.1-1c7.2-6.6,13.6-12.3,18-22.5c-4.5,3-9.2,4.9-14.5,7
	c-5.7,2.3-12.1,4.9-19.3,9.4c-2.8,1.8-4.9,3.5-6.7,5c-3.4,2.8-6,5-11.2,5.6l-2.6,0.3l1.7-1.9c10.6-11.9,11.9-14.8,18.6-28.5l0.3-0.7
	c3.6-7.5,6-13.1,7.2-17.1c0.1-0.3,0.2-0.5,0.3-0.7c-0.8,0.7-1.6,1.4-2.5,2.2c-2.2,1.9-4.7,4.1-7.7,7.1c-6.4,6.2-7.7,9.5-10.5,16
	c-0.7,1.7-1.5,3.6-2.5,5.9c-1.6,3.6-3.2,6.3-4.6,8.7C498.4,552.5,496.4,555.9,494.9,561.4z"/>
<path class="st1" d="M541.9,517.9c-4.5,5.3-5.8,7.7-10.2,9c0.8-1.1,1.8-2.4,3.1-3.9c3.6-4,6.1-13.2,10.8-25.5
	c2.5-6.6,3.6-17.1,5-26.6c-2.1,2.9-4.1,6.1-6.5,9.6c-3.8,5.8-6.7,10.6-8.2,14.7c-4,10.9-2.4,14.5-5.3,23c-2.5,7.2-0.4,7.6-5.2,18
	c9.2-4.7,15.2-4.2,22.5-7.8c4.4-2.1,11.2-6.3,15.3-11.1c3.3-3.9,4.1-8.3,6.5-11.4c4-5.2,6.5-6.9,8.7-13.7
	c-4.8,3.1-8.9,7.4-16.2,11.9C553.4,509.7,545.6,513.5,541.9,517.9z"/>
<path class="st3" d="M523.2,538.5l1.2-2.6c2.9-6.2,3.2-8.7,3.6-11.3c0.3-1.8,0.5-3.6,1.5-6.5c1.3-3.8,1.7-6.6,2.1-9.5
	c0.5-3.7,1-7.5,3.3-13.6c1.6-4.2,4.5-9,8.3-14.9c0.6-0.9,1.2-1.8,1.8-2.7c1.6-2.5,3.1-4.8,4.7-7l2.4-3.4l-0.6,4.1
	c-0.3,1.9-0.6,3.8-0.8,5.7c-1.1,7.7-2.2,15.7-4.3,21.1c-1.2,3.2-2.3,6.2-3.2,8.8c-2.8,7.8-4.9,13.5-7.5,16.7c1-0.9,2-2.1,3.2-3.7
	c0.6-0.8,1.3-1.6,2.1-2.6c2.8-3.3,7.8-6.3,13.7-9.7c2.2-1.3,4.5-2.7,6.9-4.2c4-2.5,7.1-5,9.9-7.2c2.1-1.7,4.2-3.3,6.3-4.7l2.4-1.5
	l-0.9,2.7c-1.8,5.3-3.7,7.6-6.3,10.7c-0.8,1-1.7,2-2.6,3.3c-1,1.3-1.7,2.9-2.5,4.5c-1,2.2-2.1,4.7-4,6.9c-4,4.7-10.7,9-15.6,11.4
	c-3.5,1.7-6.6,2.5-9.9,3.4c-3.8,1-7.7,2-12.5,4.4L523.2,538.5z M529.4,528.7c-0.4,1.5-1,3.2-2,5.6c3.9-1.7,7.2-2.6,10.5-3.4
	c3.2-0.8,6.2-1.6,9.5-3.2c4.7-2.3,11.2-6.4,15-10.9c1.8-2.1,2.8-4.3,3.7-6.5c0.8-1.8,1.6-3.5,2.7-4.9c1-1.3,1.9-2.4,2.7-3.3
	c1.9-2.3,3.4-4.1,4.7-7c-1.1,0.9-2.3,1.8-3.4,2.7c-2.8,2.2-5.9,4.8-10,7.3c-2.4,1.5-4.7,2.9-6.9,4.2c-5.7,3.4-10.6,6.3-13.2,9.3l0,0
	c-0.8,0.9-1.5,1.8-2.1,2.6c-3,3.6-4.6,5.6-8.6,6.8L529.4,528.7z M549,475.1c-0.7,1.1-1.5,2.2-2.2,3.4c-0.6,0.9-1.2,1.8-1.8,2.7
	c-3.8,5.8-6.6,10.5-8.1,14.5c-2.2,5.9-2.7,9.6-3.1,13.1c-0.4,3-0.8,5.9-2.2,9.9c-0.9,2.8-1.2,4.5-1.4,6.2c-0.2,1.1-0.3,2.1-0.6,3.4
	l1.4-1.9c0.9-1.2,1.9-2.5,3.1-3.9c2.5-2.9,4.7-8.8,7.4-16.3c1-2.7,2-5.7,3.3-8.9c2-5.2,3.1-13,4.1-20.6
	C548.8,476.1,548.9,475.6,549,475.1z"/>
<path class="st1" d="M587.7,459.2c-7.4,7.4-12.3,9.8-17.4,17.1c-4.6,6.4-7.7,13.3-14.2,18.5c4.6-6.5,7.2-16.7,7.1-32.7
	c-0.1-11.9-0.5-16.9-1.2-20.5c-9.1,21.6-7.5,33.7-8.8,42.3c-1.1,7.4-1.6,17.7-3.1,22.2c7.4-2,10.2-4.7,14.9-8
	c6.3-4.5,10.7-11.1,15.2-16c7.3-7.9,12.4-22.5,15.4-33.6C593.8,452.1,592.2,454.6,587.7,459.2z"/>
<path class="st3" d="M548.5,507.5l0.6-1.8c1-2.9,1.5-8.4,2.1-13.7c0.3-2.8,0.6-5.8,1-8.3c0.3-1.9,0.4-4.1,0.6-6.5
	c0.5-8.1,1.2-19.2,8.3-36l1.3-3l0.7,3.2c0.7,3.3,1.1,8,1.2,20.7c0.1,11.5-1.2,20.5-4,27.3c2.1-2.5,3.9-5.3,5.7-8.2
	c1.1-1.8,2.3-3.6,3.6-5.4c3.3-4.6,6.5-7.3,10.1-10.5c2.2-1.9,4.6-4,7.4-6.8c4.4-4.5,5.9-6.8,7.6-10.4l1.9,0.7
	c-3,11.1-8.2,25.9-15.6,34c-1.3,1.4-2.7,3-4.1,4.7c-3.2,3.8-6.8,8.1-11.3,11.4c-0.7,0.5-1.4,1-2,1.5c-3.6,2.7-6.7,4.9-13.2,6.7
	L548.5,507.5z M552.4,499c-0.3,2.1-0.6,4-0.9,5.6c5-1.6,7.6-3.5,10.8-5.9c0.6-0.5,1.3-1,2-1.5c4.3-3.1,7.6-7.1,10.9-11
	c1.4-1.7,2.8-3.3,4.1-4.8c5.7-6.1,10-16.4,13-25.9c-1,1.3-2.3,2.7-4,4.4l0,0c-2.8,2.8-5.3,5-7.5,6.9c-3.6,3-6.6,5.7-9.8,10.1
	c-1.2,1.8-2.4,3.6-3.5,5.4c-3,4.7-6.1,9.5-10.8,13.4L552.4,499z M561.5,445.3c-5.7,14.6-6.3,24.6-6.8,32c-0.2,2.5-0.3,4.6-0.6,6.7
	c-0.4,2.5-0.7,5.4-1,8.3c-0.2,2-0.4,3.9-0.6,5.7l2.7-3.8c4.7-6.7,7-17.2,6.9-32.2C562.1,453.4,561.8,448.6,561.5,445.3z"/>
<path class="st1" d="M569.4,470.9c6.5-6.4,8.8-13.1,11.7-15.8c5-4.8,4.6-7.5,9-18.9c4.5-11.7,5-18.2,4.9-24.2
	c-0.2-7.1,1.3-6.6-0.2-12.7c-2.7,5.4-6.9,8-10.3,19.1c-2,6.6-3.2,13.9-7.1,24.5c-2.5,6.8-3.6,10.2-4.7,12.5
	c0.9-11.5,3.3-22,0.7-30.4c-3.4-10.7-3.4-14.1-8-22.9c-0.1,6-1.8,10.1-2.4,18c-1,12.4,2.3,17.5,3.7,27.6
	C567.9,456.7,569.9,462.7,569.4,470.9z"/>
<path class="st3" d="M568.2,473.5l0.2-2.6c0.4-5.5-0.4-10-1.4-15.2c-0.4-2.4-0.9-4.9-1.3-7.7c-0.5-3.4-1.2-6.2-1.8-9
	c-1.3-5.4-2.5-10.5-1.9-18.8c0.3-3.9,0.8-6.9,1.3-9.6c0.5-2.9,1-5.4,1-8.4l0.1-3.9l1.8,3.5c3.2,6.3,4.2,9.8,5.7,15.2
	c0.6,2.2,1.3,4.7,2.3,7.9c2,6.5,1.1,14.4,0.2,22.6c0,0.2-0.1,0.5-0.1,0.7c0.2-0.4,0.3-0.9,0.5-1.4c0.4-1.2,0.9-2.6,1.5-4.1
	c2.5-6.9,3.9-12.3,5.1-17.1c0.7-2.6,1.3-5,2-7.3c2.3-7.5,5-11.2,7.3-14.5c1.1-1.6,2.2-3,3.1-4.8l1.2-2.4l0.7,2.6
	c0.9,3.7,0.8,5.2,0.5,7.2c-0.2,1.3-0.4,2.9-0.3,5.7c0.1,5.4-0.1,12.2-4.9,24.6c-1.2,3.2-2.1,5.7-2.8,7.7c-1.9,5.4-2.7,7.9-6.5,11.5
	c-1.1,1-2.1,2.7-3.3,4.7c-1.9,3.2-4.4,7.2-8.4,11.1L568.2,473.5z M566.1,406c-0.2,1.7-0.5,3.3-0.8,4.9c-0.5,2.6-1,5.6-1.3,9.4
	c-0.6,8,0.6,12.9,1.8,18.2c0.7,2.8,1.4,5.7,1.9,9.2c0.4,2.7,0.8,5.2,1.2,7.6c0.8,4.5,1.5,8.5,1.5,13c2.8-3.1,4.7-6.2,6.3-8.8
	c1.3-2.1,2.4-3.9,3.6-5.1c3.4-3.3,4.2-5.5,6-10.7c0.7-2,1.6-4.6,2.8-7.8c4.7-12.1,4.9-18.4,4.8-23.8c-0.1-3,0.1-4.7,0.3-6
	c0.2-1.3,0.3-2.3,0.1-3.9c-0.6,0.9-1.2,1.8-1.9,2.7c-2.3,3.1-4.8,6.7-7,13.9c-0.7,2.3-1.3,4.7-2,7.2c-1.2,4.9-2.6,10.4-5.2,17.3
	c-0.6,1.5-1.1,2.9-1.5,4.1c-1.5,4.1-2.4,6.6-3.2,8.4l-2.4,5.1l0.5-5.7c0.2-2.8,0.5-5.5,0.8-8.2c0.9-8.1,1.8-15.7-0.1-21.8
	c-1-3.2-1.7-5.7-2.3-7.9C568.9,413.3,568,410.2,566.1,406z"/>
<path class="st1" d="M569.1,399.7c3.5,7.2,7.1,13.3,8.3,24.7c4-13.3,7.7-13.6,11.7-33.8c3.7-18.7-1-25.9-3.2-33.7
	c-1.5,6.1-2.4,12-2.9,20.2c-0.8,12.7-0.2,16.2-3.1,24.1c-0.8,2.1-1.5,5.5-1.8,8.3c-1.9-10.5,0.1-13.9-4.3-23.5
	c-3-6.4-7.6-15.2-10.5-21.2c0,10.2,1.6,12.7,1.6,19C564.9,392.2,567.4,396,569.1,399.7z"/>
<path class="st3" d="M576.9,429.5l-0.5-5c-1-9.8-3.9-15.6-6.9-21.7c-0.4-0.9-0.9-1.8-1.3-2.7v0c-0.2-0.4-0.4-0.9-0.6-1.3
	c-1.6-3.3-3.7-7.3-3.7-15.1c0-2.7-0.3-4.6-0.7-6.9c-0.5-2.9-1-6.2-1-12.1v-4.4l1.9,3.9c1.1,2.3,2.5,5.1,4,8
	c2.3,4.6,4.7,9.3,6.5,13.2c2.9,6.2,3.1,10,3.4,14.5c0.1,1,0.1,2,0.2,3c0.2-0.8,0.5-1.6,0.7-2.2c2.2-5.9,2.3-9.2,2.6-16.3
	c0.1-2.1,0.2-4.6,0.4-7.5c0.5-7.7,1.3-13.6,3-20.4l0.9-3.8l1,3.7c0.4,1.4,0.9,2.7,1.3,4.2c2.3,6.8,5,14.5,1.9,30
	c-2.5,12.5-4.9,17.6-7.2,22.5c-1.5,3.1-3,6.3-4.5,11.4L576.9,429.5z M570,399.2c0.4,0.9,0.9,1.8,1.3,2.6c2.6,5.4,5.2,10.5,6.5,18.1
	c1.1-3,2.2-5.3,3.3-7.6c2.4-5,4.6-9.8,7-22c3-15,0.5-22.5-1.8-29c-0.1-0.2-0.2-0.5-0.2-0.7c-1.1,5.2-1.7,10.2-2.1,16.4
	c-0.2,2.9-0.3,5.4-0.4,7.5c-0.3,7.1-0.5,10.6-2.7,16.9c-0.7,1.9-1.4,5.1-1.7,8.1l-0.8,6.6l-1.2-6.5c-0.7-3.9-0.9-6.9-1.1-9.5
	c-0.3-4.4-0.5-7.9-3.2-13.7c-1.8-3.9-4.2-8.6-6.5-13.2c-0.7-1.3-1.3-2.7-2-3.9c0.2,3,0.5,5.2,0.8,7.2c0.4,2.2,0.7,4.4,0.7,7.2
	c0,7.3,1.8,11,3.4,14.2C569.6,398.3,569.8,398.8,570,399.2L570,399.2z"/>
<path class="st1" d="M578.8,388.3c2.3-14.2,2.1-22.4-2-35c-3.7-11.4-6.5-16.6-10.5-20.2c-0.3,6.2-1.4,13.1,3.4,31.8
	C572,373.7,573.5,379.8,578.8,388.3z"/>
<path class="st3" d="M579.4,391.1l-1.4-2.3c-5.3-8.4-6.8-14.5-9-22.9l-0.2-0.7c-4.4-16.9-3.9-24.3-3.6-30.1c0-0.7,0.1-1.3,0.1-1.9
	l0.1-2.1l1.6,1.4c4.3,3.8,7.1,9.2,10.8,20.6c3.9,12.1,4.4,20.4,2,35.4L579.4,391.1z M567.2,335.5c-0.4,5.7-0.7,12.9,3.5,29.3
	l0.2,0.7c1.9,7.4,3.4,13,7.3,20c1.8-13,1.2-20.8-2.3-31.7C572.8,344.1,570.4,338.9,567.2,335.5z"/>
<path class="st1" d="M338.1,575c1,0,2.6,0.2,4.3,0.7c-3.8-6.2-6.3-5.2-12.3-11.5c-3.9-4.1-6-11.1-11-19.6c-1.8-3-8.2-7.7-16.6-13.7
	c-2.7-1.9-5.2-3.4-7.6-4.7c1.3,7.4,5.9,13.5,11.6,23.4c5.9,10.1,9.2,15.3,14.7,19.5c-7.4,2.1-12.1,0.5-23.1,0.5
	c-17.8,0-14.1-1.6-25.6-5.7c2.9,6.6,7.6,11.5,14,15.9c5.6,3.9,15.9,6.2,23,6.2C323.1,585.9,331,575,338.1,575z"/>
<path class="st3" d="M309.5,586.9c-6.9,0-17.5-2.2-23.5-6.4c-6.9-4.7-11.5-9.9-14.3-16.3l-1-2.2l2.2,0.8c3.3,1.2,5.4,2.2,7.1,3
	c4,1.9,5.7,2.7,18.2,2.7c3.8,0,6.9,0.2,9.6,0.4c4.3,0.3,7.6,0.5,11.4-0.3c-4.7-4.1-8-9.3-13.4-18.5c-1.2-2.1-2.4-4-3.5-5.8
	c-4-6.6-7.2-11.9-8.3-17.9l-0.4-2.1l1.8,1c2.4,1.3,5,2.8,7.7,4.8c9.3,6.6,15.1,10.9,16.9,14c2,3.4,3.5,6.6,4.9,9.4
	c2.1,4.3,3.7,7.7,6,10.1c2.5,2.7,4.4,4,6.1,5.1c2.2,1.5,4.1,2.9,6.4,6.6l1.3,2.1l-2.4-0.6c-1.5-0.4-3.1-0.6-4-0.6
	c-2.7,0-5.7,1.8-9.2,4C323.9,583,317.7,586.9,309.5,586.9z M274.6,565.6c2.7,5,6.8,9.3,12.5,13.2c5.5,3.8,15.7,6,22.4,6
	c7.6,0,13.4-3.5,18.4-6.6c3.7-2.3,7-4.3,10.3-4.3c0.6,0,1.3,0.1,2.1,0.2c-1.4-1.9-2.8-2.8-4.4-4c-1.7-1.2-3.7-2.6-6.4-5.4
	c-2.5-2.6-4.3-6.3-6.3-10.6c-1.3-2.8-2.9-5.9-4.8-9.3c-1.7-3-8.8-8-16.3-13.4c-1.9-1.4-3.8-2.5-5.5-3.5c1.3,4.8,4,9.2,7.5,15.1
	c1.1,1.8,2.3,3.7,3.5,5.8c5.8,10,9.1,15.1,14.5,19.3l1.6,1.2l-1.9,0.5c-5,1.4-8.8,1.2-14,0.9c-2.7-0.2-5.7-0.4-9.4-0.4
	c-13,0-14.8-0.8-19.1-2.9C277.9,567,276.5,566.4,274.6,565.6z"/>
<path class="st1" d="M306.4,562.4c-2.6-10.2-6.4-13.4-10.7-22.9c-4.8-10.7-5-14-13.2-22.1c-7.2-7.1-11.3-9.8-15.1-14.3
	c1,3,2.7,3.9,3.5,6.8c0.9,3,2.8,7.9,7.3,17.3c7,14.4,8.2,17.2,19.1,29.4c-7.5-0.7-9.4-5.4-17.5-10.4c-15-9.4-26.3-10.4-36.6-18.3
	c4.7,13,12.3,19.5,20.6,27c5.9,5.4,16.9,7.7,26.5,7.7C296,562.5,301.8,562.6,306.4,562.4z"/>
<path class="st3" d="M297.6,563.6c-1.2,0-2.4,0-3.6,0c-1.2,0-2.5,0-3.7,0c-8.8,0-20.6-2.1-27.1-8l-1.1-1
	c-7.8-7.1-15.2-13.8-19.8-26.5l-1.2-3.3l2.7,2.1c5.2,4,10.6,6.2,16.8,8.7c5.8,2.3,12.3,5,19.6,9.5c3,1.8,5.1,3.6,6.9,5.2
	c2.5,2.1,4.5,3.7,7.3,4.6c-9-10.3-10.7-13.7-17-26.8l-0.3-0.7c-3.8-7.8-6.1-13.3-7.3-17.4c-0.4-1.3-0.9-2.2-1.6-3.1
	c-0.6-0.9-1.3-2-1.9-3.6l-1.8-5.2l3.5,4.2c2.1,2.5,4.3,4.5,7.2,7c2.2,2,4.7,4.2,7.9,7.3c6.6,6.5,8.2,10.1,10.9,16.6
	c0.7,1.7,1.5,3.6,2.5,5.8c1.6,3.5,3.1,6.1,4.5,8.6c2.5,4.3,4.6,7.9,6.2,14.5l0.3,1.2l-1.2,0.1C303.8,563.5,300.8,563.6,297.6,563.6z
	 M245.4,530.6c4.4,10.2,10.8,16,18,22.5l1.1,1c6.1,5.5,17.3,7.5,25.8,7.5c1.3,0,2.5,0,3.8,0c4,0,7.8,0,11.1-0.1
	c-1.5-5.5-3.5-8.9-5.7-12.8c-1.4-2.4-3-5.2-4.6-8.8c-1-2.2-1.8-4.2-2.5-5.9c-2.7-6.5-4.1-9.7-10.5-15.9c-3.1-3-5.6-5.2-7.8-7.2
	c-0.8-0.7-1.6-1.4-2.4-2.1c0.1,0.2,0.2,0.5,0.3,0.8c1.2,3.9,3.5,9.5,7.2,17.1l0.3,0.7c6.6,13.8,8,16.6,18.6,28.5l1.7,1.9l-2.6-0.3
	c-5.1-0.5-7.8-2.7-11.2-5.5c-1.8-1.5-3.9-3.2-6.7-5c-7.2-4.5-13.6-7.1-19.3-9.4C254.8,535.5,250,533.6,245.4,530.6z"/>
<path class="st1" d="M274.6,536.3c-4.8-10.4-2.7-10.7-5.2-18c-2.9-8.5-1.3-12.1-5.3-23c-1.5-4.2-4.4-8.9-8.2-14.7
	c-2.3-3.5-4.4-6.7-6.5-9.6c1.4,9.5,2.5,20,5,26.6c4.7,12.3,7.2,21.5,10.8,25.5c1.3,1.5,2.3,2.8,3.1,3.9c-4.4-1.4-5.7-3.8-10.2-9
	c-3.7-4.4-11.6-8.2-20.3-13.7c-7.2-4.5-11.4-8.9-16.2-11.9c2.3,6.8,4.7,8.4,8.7,13.7c2.4,3.1,3.1,7.5,6.4,11.4
	c4.1,4.8,11,9,15.3,11.1C259.4,532.1,265.4,531.6,274.6,536.3z"/>
<path class="st3" d="M276.7,538.5l-2.6-1.3c-4.9-2.5-8.8-3.5-12.5-4.4c-3.3-0.8-6.4-1.6-9.9-3.4c-5-2.4-11.7-6.7-15.7-11.4
	c-1.9-2.3-3.1-4.8-4-6.9c-0.7-1.7-1.5-3.3-2.4-4.5c-0.9-1.2-1.8-2.2-2.6-3.2c-2.6-3.1-4.5-5.4-6.3-10.8l-0.9-2.7l2.4,1.5
	c2.1,1.4,4.1,3,6.3,4.7c2.7,2.2,5.9,4.7,9.9,7.2c2.4,1.5,4.7,2.9,7,4.2c5.8,3.4,10.8,6.4,13.6,9.7c0.8,1,1.5,1.8,2.2,2.6
	c1.2,1.5,2.2,2.6,3.1,3.5c-2.6-3.2-4.6-8.8-7.4-16.5c-1-2.7-2.1-5.8-3.3-9c-2.1-5.4-3.2-13.3-4.2-21c-0.3-1.9-0.5-3.9-0.8-5.8
	l-0.6-4.1l2.4,3.4c1.6,2.2,3.2,4.6,4.9,7.2l1.6,2.5c4,6.1,6.8,10.8,8.3,14.9c2.3,6.1,2.8,9.9,3.3,13.6c0.4,2.9,0.8,5.7,2,9.5
	c1,2.9,1.3,4.8,1.5,6.6c0.4,2.6,0.8,5.1,3.6,11.3L276.7,538.5z M223.8,495c1.3,3,2.8,4.7,4.8,7.1c0.8,0.9,1.7,2,2.6,3.3
	c1.1,1.5,1.9,3.2,2.7,4.9c1,2.2,2,4.4,3.7,6.5c3.8,4.4,10.2,8.5,15,10.9c3.3,1.6,6.3,2.4,9.5,3.2c3.2,0.8,6.5,1.7,10.5,3.4
	c-1-2.3-1.6-4.1-1.9-5.6l-2.6-0.8c-3.9-1.2-5.6-3.2-8.5-6.8c-0.6-0.8-1.3-1.6-2.1-2.6c-2.6-3-7.4-5.9-13.1-9.3
	c-2.3-1.3-4.6-2.7-7-4.2c-4.1-2.6-7.3-5.1-10.1-7.4C226,496.7,224.9,495.8,223.8,495z M251,475.1c0.1,0.5,0.1,1,0.2,1.6
	c1,7.6,2.1,15.4,4.1,20.6c1.2,3.2,2.3,6.3,3.3,9c2.7,7.5,4.8,13.3,7.3,16.2c1.2,1.4,2.2,2.6,3.2,3.9l1.4,1.9
	c-0.3-1.3-0.5-2.3-0.6-3.3c-0.3-1.7-0.5-3.4-1.5-6.2c-1.3-3.9-1.7-6.8-2.1-9.8c-0.5-3.6-1-7.3-3.2-13.2c-1.5-4-4.2-8.5-8.1-14.5
	l-1.6-2.5C252.6,477.4,251.8,476.2,251,475.1z"/>
<path class="st1" d="M235.1,498c4.7,3.4,7.4,6,14.9,8c-1.5-4.5-2-14.8-3.1-22.2c-1.2-8.6,0.3-20.6-8.8-42.3
	c-0.8,3.6-1.1,8.6-1.2,20.5c-0.1,16.1,2.5,26.2,7.1,32.7c-6.5-5.2-9.7-12.1-14.2-18.5c-5.2-7.3-10-9.7-17.4-17.1
	c-4.5-4.6-6.1-7-7.8-10.7c3,11.1,8.1,25.7,15.4,33.6C224.4,486.9,228.8,493.5,235.1,498z"/>
<path class="st3" d="M251.5,507.5l-1.8-0.5c-6.5-1.8-9.6-4.1-13.2-6.7c-0.6-0.5-1.3-0.9-2-1.4l0,0c-4.5-3.2-8.1-7.6-11.3-11.4
	c-1.4-1.7-2.7-3.3-4.1-4.7c-7.5-8-12.6-22.9-15.6-34l1.9-0.7c1.7,3.6,3.2,5.9,7.6,10.4c2.8,2.8,5.2,4.9,7.4,6.8
	c3.7,3.1,6.8,5.8,10.1,10.5c1.3,1.8,2.4,3.6,3.6,5.4c1.8,2.9,3.6,5.7,5.7,8.2c-2.8-6.8-4.1-15.8-4-27.3c0.1-11.4,0.4-16.8,1.2-20.7
	l0.7-3.1l1.2,3c7.1,16.8,7.8,27.9,8.3,36.1c0.2,2.4,0.3,4.5,0.6,6.5c0.4,2.6,0.7,5.5,1,8.4c0.6,5.3,1.1,10.8,2.1,13.7L251.5,507.5z
	 M207.6,455.5c3,9.4,7.3,19.8,13,25.9c1.4,1.5,2.7,3.1,4.1,4.8c3.2,3.9,6.6,8,10.9,11l0,0c0.7,0.5,1.4,1,2,1.5
	c3.2,2.4,5.9,4.3,10.8,5.9c-0.4-1.6-0.7-3.5-0.9-5.6l-4.2-3.4c-4.8-3.9-7.9-8.7-10.9-13.4c-1.1-1.8-2.3-3.6-3.5-5.3
	c-3.1-4.4-6.2-7-9.8-10.1c-2.2-1.9-4.7-4-7.5-6.9C209.9,458.2,208.7,456.8,207.6,455.5z M238.5,445.3c-0.4,3.6-0.6,8.6-0.6,16.7
	c-0.1,14.9,2.1,25.4,6.9,32.2l2.6,3.7c-0.2-1.8-0.4-3.7-0.6-5.7c-0.3-2.8-0.6-5.8-1-8.3c-0.3-2-0.4-4.1-0.6-6.6
	C244.8,469.9,244.2,460,238.5,445.3z"/>
<path class="st1" d="M205.1,412c-0.1,6,0.3,12.5,4.8,24.2c4.4,11.3,4,14,9,18.9c2.8,2.8,5.1,9.4,11.7,15.8
	c-0.6-8.2,1.5-14.2,2.7-23.1c1.4-10.1,4.7-15.2,3.7-27.6c-0.6-8-2.2-12-2.4-18c-4.5,8.8-4.6,12.2-7.9,22.9
	c-2.6,8.4-0.3,18.9,0.7,30.4c-1.1-2.3-2.2-5.7-4.7-12.5c-3.9-10.6-5.1-18-7.1-24.5c-3.4-11.1-7.7-13.8-10.3-19.1
	C203.7,405.4,205.2,404.9,205.1,412z"/>
<path class="st3" d="M231.8,473.5l-1.9-1.8c-4-4-6.5-7.9-8.4-11.2c-1.2-2-2.2-3.7-3.3-4.7c-3.8-3.6-4.6-6.1-6.5-11.5
	c-0.7-2-1.6-4.5-2.8-7.7c-4.8-12.3-5.1-18.9-4.9-24.6v0c0.1-2.8-0.1-4.4-0.3-5.7c-0.3-2-0.4-3.4,0.5-7.1l0.7-2.7l1.2,2.4
	c0.9,1.7,1.9,3.2,3.1,4.8c2.4,3.3,5,7,7.3,14.5c0.7,2.3,1.3,4.8,2,7.3c1.2,4.8,2.6,10.3,5.1,17.1l1.4,3.9c0.2,0.6,0.4,1.1,0.6,1.6
	c0-0.2-0.1-0.5-0.1-0.7c-0.9-8.3-1.8-16.1,0.2-22.7c1-3.1,1.7-5.6,2.3-7.8c1.5-5.4,2.5-8.9,5.7-15.2l1.8-3.5l0.1,4
	c0.1,3,0.5,5.5,1,8.5c0.5,2.7,1,5.7,1.3,9.5c0.6,8.3-0.6,13.4-1.9,18.8c-0.7,2.7-1.4,5.6-1.8,9c-0.4,2.8-0.8,5.2-1.3,7.6
	c-1,5.2-1.8,9.7-1.4,15.3L231.8,473.5z M206.1,412.1c-0.1,5.5,0.1,11.8,4.8,23.8c1.2,3.2,2.1,5.7,2.8,7.7c1.8,5.3,2.6,7.4,6,10.8
	c1.2,1.2,2.3,3,3.6,5.1c1.6,2.6,3.5,5.7,6.3,8.9c0-4.6,0.7-8.6,1.5-13.1c0.4-2.3,0.9-4.8,1.2-7.5c0.5-3.5,1.2-6.4,1.9-9.2
	c1.3-5.2,2.5-10.2,1.9-18.2c-0.3-3.8-0.8-6.7-1.3-9.3c-0.3-1.7-0.6-3.3-0.8-5c-1.9,4.2-2.8,7.3-4,11.5c-0.6,2.2-1.3,4.7-2.3,7.9
	c-1.9,6.1-1.1,13.8-0.1,21.8c0.3,2.6,0.6,5.4,0.8,8.2l0.5,5.7l-2.4-5.2c-0.9-1.8-1.7-4.3-3.3-8.6l-1.4-3.9c-2.5-7-3.9-12.5-5.2-17.3
	c-0.6-2.6-1.3-5-2-7.3c-2.2-7.2-4.8-10.8-7-13.9c-0.7-0.9-1.3-1.8-1.9-2.7c-0.2,1.6-0.1,2.5,0.1,3.8
	C205.9,407.4,206.1,409.1,206.1,412.1z"/>
<path class="st1" d="M222.6,424.4c1.2-11.4,4.8-17.5,8.3-24.7c1.7-3.7,4.2-7.4,4.2-16c0-6.3,1.7-8.7,1.7-19
	c-2.9,6-7.5,14.9-10.5,21.2c-4.4,9.5-2.4,13-4.3,23.5c-0.3-2.8-1.1-6.2-1.8-8.3c-2.9-7.9-2.3-11.3-3.1-24
	c-0.5-8.2-1.5-14.1-2.9-20.2c-2.2,7.8-6.9,15.1-3.2,33.7C214.9,410.8,218.5,411.1,222.6,424.4z"/>
<path class="st3" d="M223.1,429.5l-1.5-4.8c-1.5-5.1-3.1-8.3-4.5-11.4c-2.3-4.9-4.7-10-7.2-22.5c-3.1-15.5-0.4-23.2,1.9-30
	c0.5-1.5,1-2.8,1.4-4.2l1.1-3.8l0.9,3.8c1.6,6.9,2.5,12.8,2.9,20.4c0.2,3,0.3,5.4,0.4,7.6c0.3,7,0.5,10.2,2.6,16.1
	c0.2,0.6,0.5,1.4,0.7,2.3c0.1-1.1,0.1-2.1,0.2-3.1c0.3-4.4,0.5-8.3,3.4-14.5c1.9-3.9,4.3-8.7,6.6-13.3c1.4-2.9,2.8-5.6,4-8l1.9-3.9
	v4.3c0,5.8-0.5,9.2-1,12.1c-0.4,2.3-0.7,4.2-0.7,6.9c0,7.8-2,11.9-3.7,15.1c-0.2,0.4-0.4,0.9-0.6,1.3c-0.4,0.9-0.9,1.8-1.3,2.6
	c-3,6.1-5.9,11.9-6.9,21.8L223.1,429.5z M213.9,360.7c-0.1,0.2-0.2,0.5-0.2,0.7c-2.2,6.5-4.8,13.9-1.8,29c2.4,12.2,4.7,17,7.1,22
	c1.1,2.2,2.2,4.5,3.3,7.6c1.3-7.7,3.9-12.8,6.5-18.2c0.4-0.9,0.9-1.7,1.3-2.6c0.2-0.4,0.4-0.9,0.7-1.3c1.6-3.2,3.5-6.9,3.5-14.2
	c0-2.8,0.3-5,0.7-7.2c0.3-2,0.7-4.2,0.8-7.2c-0.6,1.2-1.3,2.6-2,3.9c-2.3,4.6-4.7,9.4-6.5,13.2c-2.7,5.9-2.9,9.3-3.2,13.7
	c-0.2,2.6-0.3,5.6-1,9.5l-1.2,6.5l-0.8-6.6c-0.3-2.9-1.1-6.1-1.8-8.1c-2.3-6.2-2.4-9.7-2.7-16.7c-0.1-2.2-0.2-4.6-0.4-7.6
	C215.6,371.1,215,366.1,213.9,360.7z"/>
<path class="st1" d="M230.2,365c4.9-18.7,3.8-25.6,3.4-31.8c-4.1,3.6-6.8,8.7-10.5,20.2c-4.1,12.6-4.2,20.8-2,35
	C226.5,379.8,228,373.7,230.2,365z"/>
<path class="st3" d="M220.6,391.1l-0.4-2.7c-2.1-13.4-2.3-22.1,2-35.4c3.7-11.5,6.6-16.9,10.8-20.6l1.6-1.4l0.1,2.1
	c0,0.7,0.1,1.3,0.1,2c0.4,5.9,0.8,13.2-3.6,30.1l-0.2,0.9c-2.2,8.3-3.7,14.3-8.9,22.7L220.6,391.1z M232.8,335.4
	c-3.2,3.5-5.6,8.6-8.7,18.2c-3.6,10.9-4.2,18.7-2.4,31.7c4-6.9,5.4-12.4,7.3-19.8l0.2-0.9C233.5,348.3,233.1,341.2,232.8,335.4z"/>
<path class="st4" d="M253.6,613.2l-10.1,14.3l6.6,4.7c1.5,1.1,2.9,1.5,4,1.4c1.2-0.2,2.6-1.2,4.2-3l1,0.7l-8.7,12.3l-1-0.7
	c1-1.4,1.5-2.6,1.6-3.5c0.1-0.9,0-1.7-0.4-2.5c-0.4-0.8-1.2-1.6-2.4-2.4l-6.6-4.7l-8.1,11.4c-1.3,1.8-2,3.1-2.2,3.9
	c-0.1,0.6,0,1.2,0.3,2c0.5,1,1.1,1.8,2,2.4l1.3,0.9l-0.7,1l-15.6-11l0.7-1l1.3,0.9c1.5,1.1,2.9,1.4,4.2,1c0.8-0.3,2-1.5,3.6-3.7
	l16.6-23.4c1.3-1.8,2-3.1,2.2-3.9c0.1-0.6,0-1.2-0.3-1.9c-0.4-1-1.1-1.8-2-2.4l-1.3-0.9l0.7-1l27,19.1l-5.3,8.2l-0.9-0.7
	c0.7-2,1.1-3.6,1-4.9c0-1.2-0.4-2.3-1.1-3.3c-0.7-1-1.9-2.2-3.8-3.5L253.6,613.2z"/>
<path class="st3" d="M253.6,613.2l-0.3-0.2l-10.3,14.6l6.9,4.9c1.3,1,2.6,1.5,3.8,1.5l0.6,0c1.3-0.2,2.8-1.3,4.5-3.1l-0.3-0.3
	l-0.2,0.3l0.6,0.5l-8.2,11.6l-0.6-0.5l-0.2,0.3l0.3,0.2c1-1.5,1.6-2.7,1.7-3.7l0-0.6c0-0.7-0.2-1.4-0.5-2.1
	c-0.4-0.9-1.3-1.7-2.5-2.6l-6.9-4.9l-8.3,11.7c-1.3,1.9-2.1,3.2-2.3,4l-0.1,0.6l0.4,1.6c0.5,1,1.2,1.9,2.1,2.5l1,0.7l-0.2,0.3
	l-14.9-10.5l0.2-0.4l0.9,0.7c1.1,0.8,2.3,1.2,3.3,1.2l1.2-0.2c1.1-0.4,2.2-1.6,3.8-3.8l16.6-23.4c1.3-1.9,2.1-3.2,2.3-4.1l0.1-0.6
	l-0.4-1.6c-0.5-1-1.2-1.9-2.1-2.6l-0.9-0.7l0.2-0.3l26.4,18.6l-4.9,7.5l-0.6-0.4l-0.2,0.3l0.4,0.1c0.7-1.9,1.1-3.5,1.1-4.8l0-0.2
	c0-1.3-0.4-2.5-1.1-3.6c-0.7-1.1-2-2.2-3.9-3.6l-8.3-5.9l-0.2,0.3L253.6,613.2l-0.2,0.3l8,5.7c1.9,1.3,3.1,2.5,3.7,3.4
	c0.6,0.9,1,2,1,3.1l0,0.2c0,1.1-0.3,2.6-1,4.5l-0.1,0.3l1.2,0.8l0.3,0.2l5.8-8.9l-27.6-19.5l-0.9,1.3l-0.2,0.3l1.6,1.1
	c0.8,0.6,1.4,1.3,1.9,2.2l0.3,1.2l0,0.4c-0.1,0.7-0.9,2-2.2,3.8l-16.6,23.4c-1.5,2.2-2.7,3.3-3.4,3.5l-0.9,0.1
	c-0.9,0-1.8-0.3-2.9-1.1l-1.3-0.9l-0.3-0.2l-0.9,1.3l-0.2,0.3l16.2,11.5l0.9-1.3l0.2-0.3l-1.6-1.1c-0.8-0.6-1.4-1.3-1.9-2.2
	l-0.3-1.3l0-0.4c0.1-0.6,0.8-1.9,2.1-3.7l7.8-11.1l6.3,4.4c1.2,0.9,1.9,1.6,2.3,2.3l0.4,1.7l0,0.6c-0.1,0.8-0.6,1.9-1.6,3.3
	l-0.2,0.3l1.3,0.9l0.3,0.2l9.2-12.9l-1.3-0.9l-0.3-0.2l-0.2,0.3c-1.6,1.8-3,2.7-4,2.9l-0.4,0c-0.9,0-2-0.4-3.3-1.3l-6.3-4.4
	l9.9-13.9L253.6,613.2l-0.2,0.3L253.6,613.2z"/>
<path class="st4" d="M316.4,647.6l-6.3,13.8l-0.9-0.5c1-4.6,0.8-8.4-0.5-11.4c-1.3-2.9-3.5-5.3-6.6-6.9c-2.6-1.4-5.3-2-8.1-1.8
	c-2.8,0.2-5.6,1.4-8.3,3.6c-2.8,2.2-5.3,5.5-7.6,9.8c-1.9,3.5-3,6.9-3.2,10.1c-0.3,3.2,0.4,6.1,1.9,8.7c1.5,2.6,3.8,4.7,6.7,6.3
	c2.6,1.4,5.1,2,7.6,2c2.5,0,5.8-1.1,9.9-3l0.6,1.1c-3.8,2.4-7.5,3.7-11,3.9c-3.5,0.2-7-0.7-10.6-2.6c-6.5-3.5-10.2-8.6-11.2-15.3
	c-0.7-5,0.2-9.9,2.8-14.8c2.1-3.9,4.9-7,8.4-9.3c3.5-2.3,7.3-3.6,11.3-3.7c4-0.2,7.9,0.8,11.5,2.7c2.8,1.5,5.2,3.7,7.2,6.6
	c0.6,0.9,1.1,1.4,1.4,1.6l1.6,0.2c0.8-0.3,1.5-0.8,2.2-1.6L316.4,647.6z"/>
<path class="st3" d="M316.4,647.6l-0.4-0.2l-6.1,13.4l-0.5-0.3l-0.2,0.4l0.4,0.1c0.4-2,0.6-3.9,0.6-5.6c0-2.3-0.4-4.3-1.1-6
	c-1.3-3-3.6-5.4-6.7-7.1c-2.3-1.3-4.8-1.9-7.3-1.9l-1,0c-2.9,0.2-5.8,1.5-8.6,3.7c-2.8,2.3-5.4,5.6-7.7,9.9c-1.9,3.6-3,7-3.3,10.3
	l-0.1,1.4c0,2.7,0.7,5.3,2,7.5c1.6,2.7,3.9,4.8,6.8,6.4c2.5,1.4,5.1,2,7.6,2h0.2c2.6-0.1,6-1.1,10.1-3.1l-0.2-0.4l-0.4,0.2l0.6,1.1
	l0.4-0.2l-0.2-0.3c-3.8,2.4-7.4,3.7-10.8,3.9l-1,0c-3.1,0-6.2-0.9-9.4-2.6c-6.4-3.4-10-8.4-11-15c-0.2-1.1-0.2-2.1-0.2-3.2
	c0-3.8,1-7.6,3-11.4c2.1-3.8,4.8-6.9,8.3-9.2c3.5-2.3,7.1-3.5,11.1-3.7l0.9,0c3.6,0,7.1,0.9,10.4,2.7c2.8,1.5,5.1,3.6,7.1,6.5
	c0.6,0.9,1.1,1.4,1.6,1.7l0.1,0l1.7,0.2l0.1,0l0.1,0c0.9-0.3,1.7-0.9,2.4-1.8l-0.3-0.3l-0.2,0.3l1,0.6L316.4,647.6l-0.4-0.2
	L316.4,647.6l0.2-0.3l-1-0.6l-0.3-0.2l-0.2,0.2c-0.7,0.8-1.3,1.3-2,1.5l0.1,0.4l0.1-0.4l-1.6-0.2l0,0.4l0.2-0.4
	c-0.2-0.1-0.7-0.6-1.3-1.5c-2-2.9-4.5-5.2-7.4-6.7c-3.4-1.8-7-2.8-10.8-2.8l-0.9,0c-4.1,0.2-8,1.4-11.5,3.8
	c-3.6,2.4-6.4,5.5-8.5,9.5c-2.1,3.9-3.1,7.8-3.1,11.7c0,1.1,0.1,2.2,0.2,3.3c1,6.8,4.8,12.1,11.4,15.6c3.3,1.8,6.6,2.7,9.8,2.7l1,0
	c3.6-0.2,7.3-1.6,11.2-4l0.3-0.2l-0.7-1.4l-0.2-0.3l-0.3,0.2c-4,2-7.3,2.9-9.7,3h-0.2c-2.4,0-4.8-0.6-7.2-2c-2.9-1.5-5-3.6-6.5-6.1
	c-1.3-2.2-1.9-4.5-1.9-7.1l0.1-1.4c0.2-3.1,1.3-6.5,3.2-9.9c2.3-4.3,4.8-7.5,7.5-9.7c2.7-2.2,5.4-3.4,8.1-3.6l1,0
	c2.4,0,4.7,0.6,6.9,1.8c3,1.6,5.1,3.9,6.4,6.7c0.7,1.6,1,3.5,1,5.7c0,1.7-0.2,3.5-0.6,5.4l-0.1,0.3l1.2,0.6l0.4,0.2l6.6-14.5
	l-0.3-0.2L316.4,647.6z"/>
<path class="st4" d="M379.9,704l-11.7-1.8l-11.7-22.8c-1.1-0.2-2-0.3-2.7-0.4l-0.9-0.1l-1-0.2l-2,12.8c-0.4,2.8-0.4,4.5,0.1,5.3
	c0.7,1.1,1.9,1.7,3.5,2l1.7,0.3l-0.2,1.2l-18.8-2.9l0.2-1.2l1.7,0.3c1.8,0.3,3.3-0.1,4.3-1.2c0.6-0.6,1-2.1,1.4-4.6l4.4-28.4
	c0.4-2.8,0.4-4.5-0.1-5.3c-0.7-1.1-1.9-1.8-3.6-2l-1.6-0.3l0.2-1.2l16,2.5c4.7,0.7,8.1,1.6,10.2,2.6c2.1,1,3.8,2.6,5,4.6
	c1.3,2.1,1.7,4.4,1.3,6.9c-0.4,2.7-1.7,4.9-3.7,6.6c-2.1,1.7-5,2.7-8.8,3l7.1,14c1.6,3.2,3.1,5.4,4.5,6.6c1.3,1.2,3.2,2.1,5.5,2.7
	L379.9,704L379.9,704z M352.1,676.6L352.1,676.6l1.1,0.2l0.7,0.1c4.2,0.7,7.5,0.2,9.9-1.3c2.4-1.5,3.8-3.6,4.3-6.4
	c0.4-2.7-0.1-5.1-1.6-7.1c-1.5-2-3.6-3.2-6.5-3.6c-1.2-0.2-3-0.2-5.2-0.2L352.1,676.6z"/>
<path class="st3" d="M379.9,704l0.1-0.4l-11.5-1.8L356.7,679l-0.2,0c-1.1-0.1-2-0.3-2.7-0.4l-0.9-0.1l-1-0.2l-0.4-0.1l-2,13.2
	c-0.2,1.3-0.3,2.4-0.3,3.3c0,1,0.1,1.8,0.5,2.3c0.8,1.2,2.1,1.9,3.8,2.2l1.3,0.2l-0.1,0.4l-18.1-2.8l0.1-0.4l1.3,0.2l1.1,0.1
	c1.4,0,2.6-0.5,3.5-1.4c0.7-0.8,1.1-2.3,1.5-4.9l4.4-28.4c0.2-1.3,0.3-2.4,0.3-3.3c0-1-0.1-1.8-0.5-2.3c-0.8-1.2-2.1-2-3.8-2.2
	l-1.2-0.2l0.1-0.4l15.6,2.4c4.7,0.7,8,1.6,10.1,2.6c2,1,3.7,2.5,4.9,4.5c0.9,1.5,1.4,3.1,1.4,4.9l-0.1,1.7c-0.4,2.6-1.6,4.7-3.6,6.4
	c-2,1.6-4.8,2.6-8.6,2.9l-0.6,0l7.4,14.5c1.7,3.3,3.2,5.5,4.6,6.7c1.4,1.2,3.3,2.2,5.7,2.8l0.1-0.4l-0.4-0.1l-0.2,1.2L379.9,704
	l0.1-0.4L379.9,704l0.4,0.1l0.2-1.2l0.1-0.4l-0.3-0.1c-2.3-0.6-4.1-1.5-5.4-2.6c-1.3-1.1-2.8-3.3-4.4-6.5l-7.1-14l-0.4,0.2l0,0.4
	c3.9-0.3,6.9-1.3,9.1-3.1c2.1-1.8,3.4-4.1,3.9-6.9l0.1-1.8c0-1.9-0.5-3.7-1.5-5.3c-1.3-2.1-3-3.7-5.2-4.8c-2.2-1.1-5.6-1.9-10.3-2.6
	l-16.4-2.5l-0.2,1.6l-0.1,0.4l2,0.3c1.6,0.2,2.6,0.9,3.3,1.8c0.2,0.3,0.3,0.9,0.3,1.9c0,0.8-0.1,1.9-0.3,3.2l-4.4,28.4
	c-0.4,2.5-0.9,4-1.3,4.4c-0.7,0.8-1.7,1.2-2.9,1.2l-1-0.1l-1.6-0.3l-0.4-0.1l-0.2,1.6l-0.1,0.4l19.6,3l0.2-1.6l0.1-0.4l-2.1-0.3
	c-1.6-0.2-2.6-0.9-3.2-1.8c-0.2-0.3-0.3-0.9-0.3-1.9c0-0.8,0.1-1.9,0.3-3.1l1.9-12.4l0.6,0.1l0.9,0.1c0.7,0.1,1.6,0.2,2.7,0.4
	l0.1-0.4l-0.4,0.2l11.8,23l12.3,1.9l0.1-0.4L379.9,704L379.9,704z M352.1,676.6l0.4,0.1L352.1,676.6l0.1-0.4l1.1,0.2l0.7,0.1
	c1.2,0.2,2.4,0.3,3.5,0.3c2.5,0,4.5-0.5,6.2-1.5c2.3-1.5,3.7-3.5,4.1-6.2l0.1-1.7c0-1.9-0.5-3.6-1.6-5.1c-1.4-1.9-3.4-3-6.2-3.5
	c-0.9-0.1-2-0.2-3.5-0.2l-1.6,0l0-0.4l0.4,0.1l-2.8,18.3L352.1,676.6l-0.1,0.4l-0.4-0.1l2.9-19l0.3,0l1.6,0c1.5,0,2.6,0.1,3.6,0.2
	c2.9,0.4,5.2,1.7,6.7,3.8c1.2,1.6,1.8,3.5,1.8,5.5l-0.1,1.8c-0.4,2.9-2,5.2-4.5,6.7c-1.8,1.1-4,1.6-6.6,1.6c-1.1,0-2.3-0.1-3.6-0.3
	l-0.7-0.1l-1.1-0.2L352.1,676.6L352.1,676.6z"/>
<path class="st4" d="M401.6,662.5l1,17.5l9.7-0.5c2.5-0.1,4.2-0.6,5-1.4c1.1-1.1,1.6-2.9,1.6-5.4l1.2-0.1l0.9,15.5l-1.2,0.1
	c-0.4-2.1-0.8-3.5-1.2-4.1c-0.4-0.8-1.1-1.3-2-1.7c-0.9-0.4-2.3-0.5-4.2-0.4l-9.7,0.5l0.8,14.6c0.1,2,0.3,3.2,0.4,3.6l1,1
	c0.5,0.2,1.3,0.3,2.5,0.2l7.5-0.4c2.5-0.1,4.3-0.4,5.4-0.8c1.1-0.4,2.2-1.1,3.2-2.2c1.3-1.4,2.5-3.6,3.8-6.4l1.3-0.1l-3.2,11.3
	l-34.2,1.9l-0.1-1.2l1.5-0.1c1.1-0.1,2-0.4,3-0.9c0.6-0.4,1.1-0.9,1.3-1.7c0.2-0.7,0.3-2.2,0.2-4.3l-1.6-28.9
	c-0.2-2.8-0.5-4.5-1.1-5.2c-0.8-0.8-2.2-1.2-4-1.1l-1.5,0.1l-0.1-1.2l34.2-1.9l1,9.7l-1.3,0.1c-0.6-2.3-1.2-3.9-1.8-4.7
	c-0.6-0.8-1.5-1.5-2.6-1.9c-0.9-0.3-2.5-0.4-4.7-0.2L401.6,662.5z"/>
<path class="st3" d="M401.6,662.5l-0.4,0l1,17.9l10.1-0.6c2.6-0.2,4.3-0.6,5.3-1.5c1.2-1.2,1.7-3.1,1.7-5.6v0l-0.4,0l0,0.4l0.8-0.1
	l0.8,14.7l-0.8,0l0,0.4l0.4-0.1c-0.4-2.2-0.8-3.5-1.2-4.2l-0.3,0.2l0.3-0.2c-0.5-0.8-1.2-1.5-2.2-1.9c-0.8-0.3-1.9-0.5-3.2-0.5
	l-1.2,0l-10.1,0.6l0.8,15c0.1,2,0.2,3.2,0.5,3.7l0,0.1l1,1l0,0l0.1,0c0.4,0.2,1.1,0.3,1.9,0.3l0.8,0l7.5-0.4
	c2.5-0.2,4.3-0.4,5.5-0.8c1.2-0.4,2.3-1.2,3.3-2.3c1.3-1.5,2.6-3.6,3.9-6.5l-0.4-0.2l0,0.4l0.7,0l-3,10.5l-33.5,1.9l0-0.4l1.1-0.1
	c1.1-0.1,2.2-0.4,3.2-1c0.7-0.4,1.2-1.1,1.5-1.9c0.2-0.5,0.2-1.3,0.2-2.4c0-0.6,0-1.3-0.1-2l-1.6-28.9c-0.2-2.8-0.5-4.6-1.3-5.4l0,0
	l0,0c-0.9-0.8-2.1-1.2-3.7-1.2l-0.6,0l-1.1,0.1l0-0.4l33.4-1.9l0.9,8.9l-0.8,0.1l0,0.4l0.4-0.1c-0.6-2.4-1.2-4-1.9-4.9
	c-0.7-0.9-1.6-1.6-2.8-2l0,0l0,0c-0.7-0.2-1.7-0.3-2.9-0.3c-0.6,0-1.2,0-1.9,0.1l-12.5,0.7l0,0.4L401.6,662.5l0,0.4l12.1-0.7
	c0.7,0,1.3-0.1,1.8-0.1c1.2,0,2.1,0.1,2.7,0.3l0.1-0.4l-0.1,0.4c1,0.4,1.8,1,2.4,1.7c0.5,0.8,1.1,2.3,1.7,4.6l0.1,0.3l1.6-0.1l0.4,0
	l-1.1-10.5l-35,2l0.1,1.6l0,0.4l1.9-0.1l0.6,0c1.5,0,2.5,0.4,3.2,1l0.3-0.3l-0.3,0.3c0.5,0.5,0.9,2.2,1,4.9l1.6,28.9
	c0,0.7,0.1,1.4,0.1,2c0,1-0.1,1.8-0.2,2.2l-1.1,1.4c-0.9,0.5-1.8,0.8-2.8,0.9l-1.5,0.1l-0.4,0l0.1,1.6l0,0.4l34.9-1.9l3.4-12.2
	l-1.9,0.1l-0.2,0l-0.1,0.2c-1.2,2.8-2.5,4.9-3.7,6.3c-1,1.1-2,1.7-3,2.1c-1.1,0.4-2.8,0.6-5.3,0.8l-7.5,0.4l-0.8,0
	c-0.8,0-1.3-0.1-1.5-0.2l-0.2,0.4l0.3-0.3l-1-1l-0.3,0.3l0.4-0.2c-0.1-0.3-0.3-1.5-0.4-3.4l-0.8-14.2l9.3-0.5l1.1,0
	c1.3,0,2.3,0.2,2.9,0.4c0.8,0.4,1.4,0.9,1.8,1.5l0,0c0.3,0.5,0.7,1.8,1.1,4l0.1,0.3l1.6-0.1l0.4,0l-0.9-16.3l-1.6,0.1l-0.4,0l0,0.4
	v0.1c0,2.5-0.5,4.1-1.5,5.1c-0.7,0.7-2.3,1.2-4.8,1.3l-9.3,0.5l-1-17.1L401.6,662.5l0,0.4L401.6,662.5z"/>
<path class="st4" d="M430.1,658.8l11.8-2.6l33.7,26.8l-5.5-25c-0.6-2.7-1.3-4.3-2-4.8c-1-0.7-2.3-0.9-4-0.5l-1.5,0.3l-0.3-1.2
	l15.1-3.3l0.3,1.2l-1.5,0.3c-1.9,0.4-3.1,1.2-3.6,2.5c-0.3,0.8-0.2,2.4,0.4,4.8l8,36.6l-1.1,0.2l-36.3-28.7l5.8,26.7
	c0.6,2.6,1.2,4.3,2,4.8c1,0.7,2.3,0.9,4,0.5l1.5-0.3l0.3,1.2l-15.1,3.3l-0.3-1.2l1.5-0.3c1.9-0.4,3.1-1.3,3.6-2.5
	c0.3-0.8,0.2-2.4-0.3-4.8l-6.6-30.2c-1.6-1.2-2.7-2-3.5-2.3c-0.8-0.3-1.8-0.6-3.2-0.7c-0.7,0-1.6,0.1-2.9,0.3L430.1,658.8z"/>
<path class="st3" d="M430.1,658.8l0.1,0.4l11.6-2.5l34.4,27.4l-5.7-26.1c-0.6-2.7-1.2-4.4-2.2-5.1c-0.7-0.5-1.6-0.8-2.7-0.8
	l-1.7,0.2l-1.1,0.2l-0.1-0.4l14.3-3.1l0.1,0.4l-1.1,0.3c-1.9,0.4-3.3,1.3-3.9,2.8l-0.2,1.3c0,0.9,0.2,2.2,0.5,3.8l7.9,36.2l-0.6,0.1
	l-37-29.3l6.1,27.8c0.6,2.7,1.2,4.3,2.1,5c0.7,0.5,1.6,0.8,2.7,0.8l1.7-0.2l1.2-0.3l0.1,0.4l-14.3,3.1l-0.1-0.4l1.1-0.2
	c2-0.4,3.3-1.3,3.9-2.8l0.2-1.4c0-0.9-0.2-2.1-0.5-3.6l-6.6-30.3l-0.1-0.1c-1.6-1.2-2.7-2-3.6-2.4c-0.8-0.3-1.9-0.6-3.3-0.7l0,0h0
	l-0.3,0c-0.7,0-1.6,0.1-2.7,0.4l0.1,0.4l0.4-0.1l-0.3-1.2L430.1,658.8l0.1,0.4L430.1,658.8l-0.4,0.1l0.3,1.2l0.1,0.4l0.4-0.1
	c1.1-0.2,1.9-0.3,2.5-0.3l0.3,0l0-0.4l0,0.4c1.3,0.1,2.4,0.4,3.1,0.7c0.7,0.3,1.8,1,3.4,2.2l0.2-0.3l-0.4,0.1l6.6,30.2
	c0.3,1.5,0.5,2.6,0.5,3.5l-0.2,1.1c-0.4,1.1-1.5,1.9-3.3,2.3l-1.5,0.3l-0.4,0.1l0.4,1.6l0.1,0.4l15.9-3.5l-0.3-1.6l-0.1-0.4
	l-1.9,0.4l-1.5,0.2c-0.9,0-1.6-0.2-2.2-0.7c-0.5-0.3-1.3-1.9-1.8-4.5l-5.6-25.6l35.6,28.1l1.3-0.3l0.4-0.1l-8.1-37
	c-0.3-1.5-0.5-2.8-0.5-3.6l0.1-1c0.5-1.1,1.5-1.9,3.3-2.3l1.5-0.3l0.4-0.1l-0.3-1.6l-0.1-0.4l-15.9,3.5l0.3,1.6l0.1,0.4l1.9-0.4
	l1.5-0.2c0.9,0,1.6,0.2,2.2,0.6c0.6,0.4,1.3,1.9,1.9,4.6L475,682L442,655.8l-12.4,2.7l0.1,0.4L430.1,658.8z"/>
<path class="st4" d="M500.5,660.9l18.9-8.4l-5.2-11.7c-0.9-2.1-1.6-3.4-2.2-3.9c-0.4-0.4-1-0.7-1.8-0.7c-1.1-0.1-2.1,0-3.1,0.4
	l-1.5,0.6l-0.5-1.1l17.4-7.7l0.5,1.1l-1.5,0.6c-0.9,0.4-1.7,1.1-2.4,1.9c-0.5,0.6-0.7,1.3-0.7,2c0.1,0.8,0.5,2.1,1.4,4.1l11.6,26.3
	c0.9,2.1,1.6,3.4,2.2,3.9c0.4,0.4,1,0.7,1.8,0.8c1.1,0.1,2.1-0.1,3.1-0.5l1.4-0.6l0.5,1.1l-17.4,7.7l-0.5-1.1l1.4-0.6
	c1.6-0.7,2.6-1.7,3-3.1c0.2-0.9-0.2-2.5-1.3-4.9l-5.5-12.4l-18.9,8.4l5.5,12.4c0.9,2.1,1.6,3.4,2.2,3.9c0.4,0.4,1,0.7,1.9,0.7
	c1.1,0.1,2.1-0.1,3-0.5l1.5-0.7l0.5,1.1l-17.4,7.7l-0.5-1.1l1.5-0.6c1.7-0.7,2.7-1.8,3-3.1c0.2-0.9-0.3-2.5-1.3-4.9l-11.6-26.3
	c-0.9-2.1-1.6-3.4-2.2-3.9c-0.4-0.4-1-0.6-1.8-0.7c-1.1-0.1-2.2,0.1-3.1,0.5l-1.4,0.6l-0.5-1.1l17.4-7.7l0.5,1.1l-1.5,0.7
	c-0.9,0.4-1.7,1.1-2.4,1.9c-0.5,0.6-0.7,1.3-0.6,2c0.1,0.7,0.5,2.1,1.4,4.1L500.5,660.9z"/>
<path class="st3" d="M500.5,660.9l0.2,0.4l19.2-8.5l-5.3-12c-0.9-2.1-1.6-3.4-2.3-4c-0.5-0.5-1.2-0.8-2.1-0.8l-0.7,0
	c-0.9,0-1.7,0.2-2.5,0.5l-1.1,0.5l-0.2-0.4l16.7-7.4l0.2,0.4l-1.1,0.5c-1,0.4-1.9,1.1-2.6,2l0.3,0.2L519,632c-0.5,0.6-0.8,1.3-0.8,2
	l0,0.3c0.1,0.9,0.6,2.2,1.4,4.2l11.6,26.3c0.9,2.1,1.6,3.4,2.2,4c0.5,0.5,1.2,0.8,2,0.9h0l0,0l0.5,0c1,0,1.9-0.2,2.7-0.6l1.1-0.5
	l0.2,0.4l-16.7,7.4l-0.2-0.4l1.1-0.5c1.7-0.8,2.8-1.9,3.2-3.3l0.1-0.6c0-1.1-0.5-2.6-1.4-4.6l-5.7-12.8l-19.6,8.7l5.7,12.8
	c0.9,2.1,1.6,3.4,2.2,4c0.5,0.5,1.2,0.8,2.1,0.9l0.6,0c0.9,0,1.8-0.2,2.6-0.6l1.1-0.5l0.2,0.4l-16.7,7.4l-0.2-0.4l1.1-0.5
	c1.7-0.8,2.8-1.9,3.2-3.3v0l0,0l0-0.5c0-1.1-0.5-2.6-1.4-4.7L490,651.7c-0.9-2.1-1.6-3.4-2.3-4c-0.5-0.5-1.2-0.8-2-0.8l-0.7,0
	c-0.9,0-1.8,0.2-2.6,0.5l-1.1,0.5l-0.2-0.4l16.7-7.4l0.2,0.4l-1.1,0.5c-1,0.4-1.9,1.1-2.6,2c-0.5,0.6-0.7,1.3-0.7,2.1l0,0.2
	c0.1,0.9,0.5,2.2,1.4,4.2l5.3,12l0.4-0.2L500.5,660.9l0.4-0.2l-5.2-11.7c-0.9-2-1.3-3.3-1.4-4l0-0.2l0.6-1.6
	c0.6-0.8,1.4-1.4,2.2-1.8l1.5-0.7l0.4-0.2l-0.7-1.5l-0.2-0.4l-18.2,8l0.7,1.5l0.2,0.4l1.8-0.8c0.7-0.3,1.5-0.5,2.3-0.5l0.6,0
	c0.7,0.1,1.2,0.3,1.5,0.6c0.5,0.5,1.2,1.8,2.1,3.8l11.6,26.3c0.9,2.1,1.3,3.5,1.3,4.4l0,0.3l0.4,0.1l-0.4-0.1
	c-0.3,1.2-1.2,2.1-2.8,2.8l-1.5,0.6l-0.4,0.2l0.7,1.5l0.2,0.4l18.1-8l-0.7-1.5l-0.2-0.4l-1.8,0.8c-0.7,0.3-1.5,0.5-2.3,0.5l-0.5,0
	c-0.7-0.1-1.3-0.3-1.6-0.6c-0.4-0.4-1.2-1.7-2.1-3.8l-5.3-12l18.1-8l5.3,12c0.9,2,1.3,3.5,1.3,4.3l0,0.4c-0.3,1.2-1.2,2.1-2.7,2.8
	l-1.4,0.6l-0.4,0.2l0.6,1.5l0.2,0.4l18.1-8l-0.7-1.5l-0.2-0.4l-1.8,0.8c-0.7,0.3-1.5,0.5-2.4,0.5l-0.5,0l0,0.4l0-0.4
	c-0.7-0.1-1.2-0.3-1.6-0.6c-0.4-0.4-1.2-1.7-2.1-3.8l-11.6-26.3c-0.9-2-1.3-3.3-1.4-4l0-0.2l0.6-1.5l0,0c0.6-0.8,1.4-1.4,2.2-1.8
	l1.5-0.6l0.4-0.2l-0.7-1.5l-0.2-0.4l-18.1,8l0.6,1.5l0.2,0.4l1.8-0.8c0.7-0.3,1.4-0.5,2.2-0.5l0.7,0c0.7,0.1,1.3,0.3,1.6,0.6
	c0.5,0.5,1.2,1.8,2.1,3.8l5,11.3l-18.5,8.2L500.5,660.9l0.4-0.2L500.5,660.9z"/>
<path class="st4" d="M538.9,618.7l10.3,14.2l7.9-5.7c2.1-1.5,3.2-2.8,3.5-3.9c0.3-1.5-0.2-3.3-1.6-5.4l1-0.7l9.1,12.5l-1,0.7
	c-1.5-1.6-2.6-2.5-3.2-2.8c-0.8-0.4-1.6-0.5-2.6-0.4c-1,0.2-2.2,0.8-3.7,1.9l-7.9,5.7l8.6,11.9c1.2,1.6,1.9,2.5,2.3,2.8l1.3,0.3
	c0.5-0.1,1.3-0.5,2.2-1.2l6.1-4.4c2-1.5,3.4-2.7,4.1-3.6c0.7-0.9,1.2-2.2,1.5-3.6c0.3-1.9,0.2-4.4-0.2-7.4l1.1-0.8l3.4,11.3
	l-27.8,20l-0.7-1l1.3-0.9c0.9-0.6,1.5-1.4,2-2.4c0.3-0.7,0.4-1.4,0.2-2.1c-0.2-0.7-0.9-1.9-2.2-3.7l-16.9-23.4
	c-1.6-2.3-2.9-3.5-3.7-3.7c-1.1-0.2-2.5,0.2-4,1.2l-1.2,0.9l-0.7-1l27.8-20.1l6.1,7.6l-1,0.7c-1.8-1.6-3.1-2.7-4.1-3
	c-1-0.4-2-0.4-3.2-0.2c-0.9,0.3-2.3,1-4,2.3L538.9,618.7z"/>
<path class="st3" d="M538.9,618.7l-0.3,0.2l10.5,14.5l8.2-5.9c2.1-1.5,3.3-2.8,3.6-4.1l0.1-1c0-1.4-0.6-3-1.7-4.7l-0.3,0.2l0.2,0.3
	l0.7-0.5l8.6,11.9l-0.7,0.5l0.2,0.3l0.3-0.3c-1.5-1.6-2.6-2.6-3.3-2.9l-0.2,0.4l0.2-0.4c-0.6-0.3-1.3-0.5-2-0.5l-0.9,0.1
	c-1.1,0.2-2.4,0.9-3.9,2l-8.2,5.9l8.8,12.2c1.2,1.6,1.9,2.5,2.4,2.9l0.1,0l1.4,0.3l0.1,0l0.1,0c0.6-0.1,1.4-0.5,2.4-1.2l6.1-4.4
	c2-1.5,3.4-2.7,4.2-3.7c0.8-1,1.3-2.3,1.5-3.8c0.1-0.8,0.2-1.7,0.2-2.6c0-1.4-0.1-3.1-0.4-4.9l-0.4,0.1l0.2,0.3l0.6-0.4l3.2,10.5
	l-27.2,19.6l-0.2-0.3l0.9-0.7c0.9-0.7,1.6-1.5,2.1-2.5l0.4-1.5l-0.1-0.9c-0.2-0.8-1-2.1-2.2-3.8l-16.9-23.4c-1.7-2.3-2.9-3.6-4-3.9
	l-0.8-0.1c-1.1,0-2.3,0.5-3.6,1.4l-0.9,0.7l-0.2-0.3l27.1-19.6l5.6,7l-0.7,0.5l0.2,0.3l0.3-0.3c-1.8-1.7-3.1-2.7-4.2-3.1
	c-0.6-0.2-1.3-0.4-2-0.4l-1.5,0.2l0,0h0c-1,0.3-2.4,1.1-4.2,2.4l-10.2,7.4l0.2,0.3L538.9,618.7l0.2,0.3l9.9-7.1
	c1.8-1.3,3.1-2,3.9-2.3l-0.1-0.4l0.1,0.4l1.3-0.1l1.7,0.3c0.9,0.3,2.2,1.3,4,2.9l0.2,0.2l1.3-0.9l0.3-0.2l-6.6-8.3L526.7,624
	l0.9,1.3l0.2,0.3l1.6-1.1c1.2-0.9,2.2-1.2,3.1-1.2l0.6,0.1c0.6,0.1,1.9,1.3,3.5,3.6l16.9,23.4c1.2,1.7,2,3,2.1,3.6l0.1,0.7l-0.3,1.1
	c-0.5,0.9-1.1,1.6-1.9,2.2l-1.3,0.9l-0.3,0.2l0.9,1.3l0.2,0.3l28.3-20.4l-3.7-12.1l-1.5,1.1l-0.2,0.1l0,0.2c0.3,1.8,0.4,3.4,0.4,4.8
	c0,0.9-0.1,1.7-0.2,2.5c-0.2,1.4-0.7,2.5-1.4,3.4c-0.7,0.9-2,2.1-4,3.5l-6.1,4.4c-1,0.7-1.7,1.1-2.1,1.1l0.1,0.4l0.1-0.4l-1.3-0.3
	l-0.1,0.4l0.2-0.3c-0.3-0.2-1.1-1.1-2.2-2.7l-8.3-11.6l7.6-5.5c1.5-1.1,2.7-1.7,3.6-1.8l0.8-0.1l1.6,0.4l0,0
	c0.5,0.2,1.6,1.2,3.1,2.7l0.2,0.2l1.3-0.9l0.3-0.2l-9.5-13.2l-1.3,1l-0.3,0.2l0.2,0.3c1.1,1.7,1.6,3.1,1.6,4.3l-0.1,0.8
	c-0.2,0.9-1.3,2.2-3.3,3.7l-7.6,5.5l-10-13.9L538.9,618.7l0.2,0.3L538.9,618.7z"/>
<path class="st5" d="M316.5,320.4h167l0.1,131.3c0,0-6.5,109.4-83.9,109.4c-77.4,0-83.3-108.1-83.3-108.1L316.5,320.4z"/>
<path class="st6" d="M483.2,332.6v78.9c0,0-4.5,6-10.7,15c-6.2,9-9,12-14.9,18.3c-5.8,6.3-14.4,13.7-17.7,16.5c-3.4,2.8-9,10.3-4,22
	c5,11.7,17.6,10.7,22.2,9.2c4.7-1.5,10.2-8.3,13.7-12.3c3.5-4,11.5-15.4,11.5-15.4v15.7c0,0-7.7,77-83.4,79.4l0,0l-0.1,0l-0.1,0v0
	c-75.9-2.4-82.9-76.5-82.9-76.5v-17.5c0,0,7.2,10.3,10.8,14.3c3.5,4,9,10.8,13.7,12.3c4.7,1.5,17.2,2.5,22.3-9.2
	c5-11.7-0.7-19.1-4-22c-3.3-2.8-11.9-10.2-17.7-16.5c-5.9-6.3-8.7-9.3-14.9-18.3c-6.2-9-10-13.9-10-13.9v-80.5v0.1H370l5.1,0
	l8.2,8.5l1,0c-1.2-1.2-1.9-3-1.9-5.2c0-4.4,5.6-7.5,10.9-6.9c4.2,0.5,6,4,6.5,5.4c0.6-1.4,2.3-4.9,6.6-5.4
	c5.3-0.7,10.9,2.4,10.9,6.9c0,2.2-0.2,2.6-1,4l0.7,0.3l7.5-7.3h5.1h53.8V332.6z"/>
<path class="st7" d="M316.7,426.9c0,0,9.4,12.9,12.9,17.1c3.5,4.2,13.6,15,16.4,17.5c2.9,2.5,6.9,5.2,8.5,6.7
	c1.7,1.5,4.7,7.2,0.2,12.7c-4.5,5.5-10.7,4.7-15.4,0.2c-4.7-4.5-11.9-12.7-16.2-19c-4.4-6.3-5.8-8.6-6.5-9.9
	C316.7,444.3,316.7,426.9,316.7,426.9z"/>
<path class="st7" d="M483.3,425.9c0,0-10.1,13.9-13.6,18c-3.5,4.2-13.6,15-16.4,17.5c-2.8,2.5-6.9,5.2-8.5,6.7
	c-1.7,1.5-4.7,7.2-0.2,12.7c4.5,5.5,10.7,4.7,15.4,0.2c4.7-4.5,11.9-12.7,16.2-19c4.3-6.3,6.4-9.9,7.1-11.2
	C483.3,437.1,483.3,425.9,483.3,425.9z"/>
<path class="st8" d="M353.9,508.3c-5.2,0-9.4,4.2-9.4,9.3c0,5.1,4.2,9.3,9.4,9.3c5.2,0,9.4-4.2,9.4-9.3
	C363.3,512.5,359.1,508.3,353.9,508.3z"/>
<path class="st8" d="M445.4,508.3c-5.2,0-9.4,4.2-9.4,9.3c0,5.1,4.2,9.3,9.4,9.3c5.2,0,9.4-4.2,9.4-9.3
	C454.7,512.5,450.5,508.3,445.4,508.3z"/>
<path class="st4" d="M480.5,354.2c-1.8-2.7-6.4-8.5-11.2-10.7c-4.8-2.2-12.6-4.1-23.1-1.9c-10.5,2.2-27.4,8-31.4,10.4
	c-4,2.4-8.2,2-10.9,0.2c-2.1-1.3-4.1-5.3-4.1-5.3c-0.1,0.1-2.2,3.8-4.5,5.3c-2.7,1.8-6.9,2.2-10.9-0.2c-4-2.4-20.9-8.2-31.4-10.4
	c-10.5-2.2-18.3-0.3-23.2,1.9c-4.8,2.2-9.6,7.6-11.4,10.3c-1.8,2.7-1.8,3.5-1.8,3.5l0,35.4c0,0,1.3,4.6,4.1,10.2
	c2.8,5.7,12.6,19.1,19.9,28c7.4,8.8,14.1,15.2,19.1,20c5,4.8,15.1,10.5,16.6,19.1c1.5,8.7,1,17.5-6.9,23.5c-3.4,2.6-6.6,4.6-9.8,6.2
	c0,0,12.6,2.5,12.6,18.2c0,15.8,0,37.5,0,37.5s7.8,2.1,10.7,2.7v-44c0,0,10.4,11,12.3,35.6v9.8c0,0,1.9,0.1,4.1,0.2
	c1.6-0.1,4.3-0.2,4.3-0.2v-9.8c1.9-24.6,12.3-35.6,12.3-35.6v44c3.4-0.6,10.7-2.7,10.7-2.7s0-21.7,0-37.5
	c0-15.8,12.6-18.2,12.6-18.2c-3.2-1.5-6.4-3.5-9.9-6.2c-7.9-6-8.4-14.8-6.9-23.5c1.5-8.7,11.5-14.3,16.6-19.1
	c5-4.8,11.7-11.2,19.1-20c7.4-8.8,17.1-22.3,19.9-28c2.8-5.7,4.8-10.5,4.8-10.5v-33.2C483.2,359.1,482.3,356.9,480.5,354.2
	L480.5,354.2z M340.4,416.8L340.4,416.8l-2.2-4c0,0,18.8,16,28.7,20.4c0,0,1.5,12.5,5.3,15.5C372.1,448.7,354.6,434.7,340.4,416.8
	L340.4,416.8z M403.8,409.1L403.8,409.1c0,0,0.3,2.6-2,3.7l-2.2,0.3c-5.2,0.1-4.3-4-4.3-4s0-11.5-0.2-18.1c-0.2-5.3,1.9-5.6,4-5.6
	c2.1,0,1.9,0.1,1.9,0.1c2.5,0.4,2.7,2,2.7,4.5C403.8,396.5,403.8,409.1,403.8,409.1L403.8,409.1z M416,364.6L416,364.6
	c-2.2,3.4-7.5,11.2-12.7,11.5c-0.6,0-1.4,0.3-2.7,0.2c0,0-2.2,0.3-4.5-0.2c-5.2-1.1-10.5-8.1-12.7-11.5c-2.2-3.4-7.8-8.9-7.8-8.9
	c2.2,0.2,4.6,3,10.9,9.1c5.4,5.3,14.6,4.5,14.6,4.5c2.4-0.1,7.8-0.4,12-4.5c6.3-6.1,8.6-8.9,10.9-9.1
	C423.8,355.7,418.2,361.3,416,364.6L416,364.6z M458.9,416.8L458.9,416.8c-14.3,17.9-31.7,31.9-31.7,31.9c3.7-3,5.3-15.5,5.3-15.5
	c9.8-4.4,28.7-20.4,28.7-20.4L458.9,416.8z"/>
<path class="st9" d="M407.5,478.2c-0.2-12,4.1-17.4,6.8-21.1c2.7-3.8,6.3-7.7,4.8-14.2c-1.5-6.5-6.2-8.6-8.3-9.4
	c-1.6-0.6-7.2-4-9.7-9.4l-1.4-4.4l-0.5,2.2c-1.5,6-8.7,10.9-10.6,11.6c-2.1,0.8-6.8,2.9-8.4,9.4c-1.5,6.5,2.1,10.4,4.9,14.2
	c2.7,3.8,5.6,10,6.4,21c0.7,11-7.8,22.2-7.8,22.2c4.4,1,14.8,8,14.7,27.7c0,12.4,0.1,31.8,0.1,31.8h1.3l1.6-0.1
	c0,0-0.1-23.9-0.1-30.6c0-16.5,9.7-27.5,14.4-28.8C415.6,500.3,407.6,489.2,407.5,478.2z"/>
<path class="st10" d="M369.7,409.8c-7,7.4-22.9,3.7-35.5-8.2c-12.6-11.9-17.1-27.5-10.1-34.8c7-7.4,22.9-3.7,35.5,8.2
	C372.1,386.9,376.6,402.5,369.7,409.8z"/>
<path class="st10" d="M429.7,409.8c7,7.4,22.9,3.7,35.5-8.2c12.6-11.9,17.1-27.5,10.1-34.8c-7-7.4-22.9-3.7-35.5,8.2
	C427.2,386.9,422.7,402.5,429.7,409.8z"/>
<path class="st10" d="M407.1,438.2c-3.3-1.3-6.7,2.5-7.5,3.5c-0.8-1-4.2-4.8-7.5-3.5c-3.8,1.5-5.8,4.5-4.9,8.3
	c0.9,3.8,4.7,5.5,6.2,6.6c1.7,1.3,4.7,4.7,6,7.8l0.2,0.5l0.5-1.2c1.5-3,4.7-6.3,6.1-7.5c1.4-1.1,4.8-2.4,5.7-6.2
	C412.9,442.7,410.9,439.7,407.1,438.2z"/>
<path class="st9" d="M360,517.6c0,3.3-2.7,6-6,6c-3.3,0-6-2.7-6-6c0-3.3,2.7-6,6-6C357.3,511.6,360,514.3,360,517.6z"/>
<path class="st9" d="M439.3,517.6c0,3.3,2.7,6,6,6c3.3,0,6.1-2.7,6.1-6c0-3.3-2.7-6-6.1-6C442,511.6,439.3,514.3,439.3,517.6z"/>
<path class="st6" d="M368.1,408.2c-5.9,6.2-19.5,3-30.3-7.1c-10.8-10.2-14.7-23.4-8.8-29.7c5.9-6.2,19.5-3,30.2,7.1
	C370,388.7,374,402,368.1,408.2z"/>
<path class="st6" d="M431.2,408.2c5.9,6.2,19.5,3,30.3-7.1c10.8-10.2,14.7-23.4,8.8-29.7c-5.9-6.2-19.5-3-30.3,7.1
	C429.3,388.7,425.3,402,431.2,408.2z"/>
<path class="st11" d="M367.9,394.7c0,7.8-6.3,14.1-14.1,14.1c-7.8,0-14.1-6.3-14.1-14.1c0-7.8,6.3-14.1,14.1-14.1
	C361.6,380.6,367.9,386.9,367.9,394.7z"/>
<path class="st9" d="M363.5,394.7c0,5.3-4.3,9.6-9.7,9.6c-5.3,0-9.7-4.3-9.7-9.6c0-5.3,4.3-9.6,9.7-9.6
	C359.1,385.1,363.5,389.4,363.5,394.7z"/>
<path class="st11" d="M431.4,394.7c0,7.8,6.3,14.1,14.1,14.1c7.8,0,14.1-6.3,14.1-14.1c0-7.8-6.3-14.1-14.1-14.1
	C437.7,380.6,431.4,386.9,431.4,394.7z"/>
<path class="st9" d="M435.9,394.7c0,5.3,4.3,9.6,9.7,9.6c5.3,0,9.7-4.3,9.7-9.6c0-5.3-4.3-9.6-9.7-9.6
	C440.2,385.1,435.9,389.4,435.9,394.7z"/>
<path class="st8" d="M405.9,497.6c0,0-6-4.4-6-16.5c0-1.4-0.4-1.3-0.4,0c0,12.5-6,16.5-6,16.5c2.9,1.5,5.2,6.1,6,8.1l0.2,0.4
	l0.4-0.9C401,503.1,403.1,499,405.9,497.6z"/>
<path class="st7" d="M329.6,350.5c1.1-0.2,59.1-11.1,57.3,62.6c0,0-8.3-33.9-25-48.5c-14.1-12.4-31.8-13.5-35.6-12.7
	C326.3,351.9,328.5,350.8,329.6,350.5z"/>
<path class="st7" d="M469.7,350.5c-1.1-0.2-58.3-11.1-57.2,62.6c0,0,8.3-33.9,25-48.5c14.1-12.4,31.8-13.5,35.6-12.7
	C473,351.9,470.8,350.8,469.7,350.5z"/>
<path class="st11" d="M416.1,339.6l19.6-19.7l0,12.5c0,0,0.5-0.4,2.5-1l8.1-11.4v9.6c0,0,0.1-0.3,1.6-0.3l7.2-9.3v8.4
	c0,0,1.2,0,2.2,0l6.9-8.4v8.9l1.7,0.6l7.8-9.5v11.4l1.2,0.9l8.3-12.3l0.1,25.6c0,0-7-8.3-15.7-11.9c-8.7-3.5-21.1-0.9-27.8,0.7
	c-6.7,1.5-22.7,7.8-25.8,9.3c-3.1,1.6-8.2,0.9-8.2-3.3c0-4.2,3.8-3.5,3.8-3.5c-3.1,0.9-1.8,4.7,1.3,5.3c1.6,0.3,2.9,0,4.1-1.2
	l0.5-0.5L416.1,339.6z"/>
<path class="st11" d="M457.1,502.7c6.2-1,12.7-4.2,16.9-7.7c-0.9,3.9-3.5,12.6-9.6,21.9C464.2,511.1,461.4,506,457.1,502.7z"/>
<path class="st11" d="M316.8,344.7c0,0,6.2-7.6,14.9-11.1c8.7-3.5,21.1-0.9,27.8,0.7c6.7,1.5,22.7,7.8,25.8,9.3
	c3.1,1.6,8.2,0.9,8.2-3.3c0-4.2-3.8-3.5-3.8-3.5c3.1,0.9,1.8,4.7-1.3,5.3c-1.6,0.3-2.9,0-4-1.2l-20.7-21v12.5c0,0-0.6-0.4-2.5-1
	l-8.1-11.4v9.6c0,0-0.1-0.3-1.6-0.3l-7.2-9.3v8.4c0,0-1.2,0-2.2,0l-6.9-8.4v8.9l-1.7,0.6l-7.8-9.5v11.4l-1.2,0.9l-7.6-12.3V344.7z"
	/>
<path class="st11" d="M445,536.6c-3.2,2.1-6.7,4.1-10.7,5.8v-9.2C437.4,535.2,441.1,536.5,445,536.6z"/>
<path class="st11" d="M342.2,502.7c-6.2-1-12.7-4.2-16.9-7.7c0.9,3.9,3.5,12.6,9.6,21.9C335.1,511.1,337.9,506,342.2,502.7z"/>
<path class="st11" d="M354.3,536.6c3.2,2.1,6.7,4.1,10.6,5.8v-9.2C361.9,535.2,358.2,536.5,354.3,536.6z"/>
<path class="st11" d="M335.4,351c0,0,41.9-5.7,50.9,55.8c0,0-12.1-50.5-46-54.9L335.4,351z"/>
<path class="st11" d="M463.9,351c0,0-41.9-5.7-50.9,55.8c0,0,12.1-50.5,46-54.9L463.9,351z"/>
<path class="st3" d="M193.2,575h-1.6c0,5.6-4.5,10.1-10.1,10.1c-5.6,0-10.1-4.5-10.1-10.1c0-5.6,4.5-10.1,10.1-10.1
	c5.6,0,10.1,4.5,10.1,10.1H193.2h1.6c0-7.3-5.9-13.3-13.3-13.3c-7.3,0-13.3,5.9-13.3,13.3c0,7.3,5.9,13.3,13.3,13.3
	c7.3,0,13.3-5.9,13.3-13.3H193.2z"/>
<path class="st4" d="M174.8,547.2c0,6.4-5.2,11.7-11.7,11.7c-6.4,0-11.7-5.2-11.7-11.7c0-6.4,5.2-11.7,11.7-11.7
	C169.6,535.5,174.8,540.8,174.8,547.2z"/>
<path class="st3" d="M174.8,547.2h-1.6c0,5.6-4.5,10.1-10.1,10.1c-5.6,0-10.1-4.5-10.1-10.1c0-5.6,4.5-10.1,10.1-10.1
	c5.6,0,10.1,4.5,10.1,10.1H174.8h1.6c0-7.3-5.9-13.3-13.3-13.3c-7.3,0-13.3,5.9-13.3,13.3c0,7.3,5.9,13.3,13.3,13.3
	c7.3,0,13.3-5.9,13.3-13.3H174.8z"/>
<path class="st4" d="M217.1,601.1c0,6.4-5.2,11.7-11.7,11.7c-6.4,0-11.7-5.2-11.7-11.7c0-6.4,5.2-11.7,11.7-11.7
	C211.9,589.5,217.1,594.7,217.1,601.1z"/>
<path class="st3" d="M217.1,601.1h-1.6c0,5.6-4.5,10.1-10.1,10.1c-5.6,0-10.1-4.5-10.1-10.1c0-5.6,4.5-10.1,10.1-10.1
	c5.6,0,10.1,4.5,10.1,10.1H217.1h1.6c0-7.3-5.9-13.3-13.3-13.3c-7.3,0-13.3,5.9-13.3,13.3c0,7.3,5.9,13.3,13.3,13.3
	c7.3,0,13.3-5.9,13.3-13.3H217.1z"/>
<path class="st3" d="M606.8,575h-1.6c0,7.3,5.9,13.3,13.3,13.3c7.3,0,13.3-5.9,13.3-13.3c0-7.3-5.9-13.3-13.3-13.3
	c-7.3,0-13.3,5.9-13.3,13.3H606.8h1.6c0-5.6,4.5-10.1,10.1-10.1c5.6,0,10.1,4.5,10.1,10.1c0,5.6-4.5,10.1-10.1,10.1
	c-5.6,0-10.1-4.5-10.1-10.1H606.8z"/>
<path class="st4" d="M625.2,547.2c0,6.4,5.2,11.7,11.7,11.7c6.5,0,11.7-5.2,11.7-11.7c0-6.4-5.2-11.7-11.7-11.7
	C630.4,535.5,625.2,540.8,625.2,547.2z"/>
<path class="st3" d="M625.2,547.2h-1.6c0,7.3,5.9,13.3,13.3,13.3c7.3,0,13.3-5.9,13.3-13.3c0-7.3-5.9-13.3-13.3-13.3
	c-7.3,0-13.3,5.9-13.3,13.3H625.2h1.6c0-5.6,4.5-10.1,10.1-10.1c5.6,0,10.1,4.5,10.1,10.1c0,5.6-4.5,10.1-10.1,10.1
	c-5.6,0-10.1-4.5-10.1-10.1H625.2z"/>
<path class="st4" d="M582.9,601.1c0,6.4,5.2,11.7,11.7,11.7c6.4,0,11.7-5.2,11.7-11.7c0-6.4-5.2-11.7-11.7-11.7
	C588.2,589.5,582.9,594.7,582.9,601.1z"/>
<path class="st3" d="M582.9,601.1h-1.6c0,7.3,5.9,13.3,13.3,13.3c7.3,0,13.3-5.9,13.3-13.3c0-7.3-5.9-13.3-13.3-13.3
	c-7.3,0-13.3,5.9-13.3,13.3H582.9h1.6c0-5.6,4.5-10.1,10.1-10.1c5.6,0,10.1,4.5,10.1,10.1c0,5.6-4.5,10.1-10.1,10.1
	c-5.6,0-10.1-4.5-10.1-10.1H582.9z"/>
<path class="st4" d="M294.5,276v-7.3H307v-15.8c6-0.2,8.7,0.1,8.3,0.7c0,0.2-0.1,0.5-0.2,0.9c-0.3,1.1-0.5,2.5-0.5,4.2V306H307v-9.7
	c-3,1.1-7.1,3.1-12.3,6.1c-0.5-0.8-1.7-3.3-3.8-7.5c5.7-1.4,11-3.5,16-6.1V276H294.5z M319.7,252.4c5.5,0,8.3,0.2,8.5,0.5
	c0,0.2,0,0.4,0,0.7c-0.5,1.3-0.7,2.8-0.7,4.5v13.7c3.8-2.4,7.4-5.2,10.8-8.5c3.6,4.2,5.7,6.8,6.1,7.5c-5.7,3.1-11.3,6.1-17,9v16.3
	c-0.2,1.7,0.6,2.5,2.4,2.4h5.4c1.9,0.3,2.8-2.4,2.8-8.3c2.8,1.6,5.4,2.8,7.8,3.8c-0.2,8.2-3.2,11.9-9.2,11.3h-10.8
	c-4.2,0.2-6.3-1.8-6.1-5.9V252.4z"/>
<path class="st3" d="M319.7,252.4c5.5,0,8.3,0.2,8.5,0.5c0,0.2,0,0.4,0,0.7c-0.5,1.3-0.7,2.8-0.7,4.5v13.7c3.8-2.4,7.4-5.2,10.8-8.5
	c3.6,4.2,5.7,6.8,6.1,7.5c-5.7,3.1-11.3,6.1-17,9v16.3c-0.1,1.6,0.5,2.4,1.9,2.4c0.1,0,0.3,0,0.4,0h5.4c0.1,0,0.2,0,0.3,0
	c1.7,0,2.5-2.8,2.5-8.3c2.8,1.6,5.4,2.8,7.8,3.8c-0.1,7.6-2.8,11.4-8,11.4c-0.4,0-0.8,0-1.2-0.1h-10.8c-0.2,0-0.3,0-0.5,0
	c-3.9,0-5.8-2-5.7-5.9V252.4 M310.2,252.9c3.8,0,5.5,0.3,5.1,0.8c0,0.2-0.1,0.5-0.2,0.9c-0.3,1.1-0.5,2.5-0.5,4.2V306H307v-9.7
	c-3,1.1-7.1,3.1-12.3,6.1c-0.5-0.8-1.7-3.3-3.8-7.5c5.7-1.4,11-3.5,16-6.1V276h-12.5v-7.3H307v-15.8
	C308.2,252.9,309.2,252.9,310.2,252.9 M319.7,251.4h-1v1v46.9c-0.1,2.2,0.4,3.9,1.6,5.1c1.1,1.2,2.9,1.8,5.1,1.8c0.2,0,0.3,0,0.5,0
	l10.8,0c0.4,0,0.9,0.1,1.3,0.1c4,0,8.8-2.1,9-12.4l0-0.7l-0.6-0.3c-2.3-0.9-4.9-2.2-7.7-3.7l-1.5-0.8v1.7c0,5.7-1,7.3-1.5,7.3
	c0,0-0.1,0-0.1,0l-0.1,0h-0.1h-5.4h0l0,0c-0.1,0-0.2,0-0.3,0c-0.3,0-0.6,0-0.8-0.2c-0.2-0.2-0.2-0.6-0.2-1.1l0,0v0v-15.7
	c5.5-2.8,11-5.7,16.5-8.7l0.9-0.5l-0.5-0.9c-0.3-0.5-1.3-1.9-6.2-7.7l-0.7-0.8l-0.8,0.7c-2.9,2.8-6,5.3-9.1,7.4v-11.8
	c0-1.6,0.2-3,0.6-4.1l0.1-0.2v-0.2v-0.7v-0.2l-0.1-0.2C328.8,251.8,328.6,251.4,319.7,251.4L319.7,251.4z M310.2,251.9
	c-0.9,0-2,0-3.2,0l-1,0v1v14.8h-11.5h-1v1v7.3v1h1H306v11.1c-4.8,2.5-9.9,4.4-15.3,5.8l-1.2,0.3l0.5,1.1c2,4.2,3.3,6.8,3.8,7.6
	l0.5,0.8l0.9-0.5c4.4-2.5,8-4.4,10.8-5.5v8.2v1h1h7.5h1v-1v-47.2c0-1.6,0.1-3,0.4-4c0.1-0.4,0.2-0.7,0.3-0.9c0.1-0.3,0.1-0.6,0-0.9
	C315.8,252.3,315.2,251.9,310.2,251.9L310.2,251.9z"/>
<path class="st4" d="M360.3,287.7c5,2.7,7.5,4.1,7.5,4.2c-5.2,5.7-9.6,9.9-13.2,12.7l-6.6-4.7C353.5,296.5,357.6,292.4,360.3,287.7z
	 M370.9,257.7c-0.6-1.7-1.3-3.1-1.9-4.2l9.9-1.7c0.2,1.3,0.5,3.2,0.9,5.9h21v6.4h-52.4v-6.4H370.9z M371.4,285.8h-14.6v-17.7h36.8
	v17.7h-13.9v15.1c1.1,4.1-3.1,6-12.7,5.7c-0.5-2.4-1.3-4.8-2.4-7.3c5.2,0.2,7.5-0.5,6.8-2.1V285.8z M385.5,279.9v-5.7h-21.2v5.7
	H385.5z M395.2,303.5c-3.8-3.5-8-6.7-12.7-9.7c2.4-2,4.2-3.9,5.4-5.4c5.2,3.1,9.6,6.2,13.2,9.2C399.2,299.2,397.3,301.1,395.2,303.5
	z"/>
<path class="st3" d="M378.9,251.8c0.2,1.3,0.5,3.2,0.9,5.9h21v6.4h-52.4v-6.4h22.4c-0.6-1.7-1.3-3.1-1.9-4.2L378.9,251.8
	 M393.6,268.1v17.7h-13.9v15.1c1,3.8-2.6,5.7-10.8,5.7c-0.6,0-1.3,0-2,0c-0.5-2.4-1.3-4.8-2.4-7.3c0.5,0,0.9,0,1.3,0
	c4.2,0,6.1-0.7,5.5-2.1v-11.3h-14.6v-17.7H393.6 M364.3,279.9h21.2v-5.7h-21.2V279.9 M360.3,287.7c5,2.7,7.5,4.1,7.5,4.2
	c-5.2,5.7-9.6,9.9-13.2,12.7l-6.6-4.7C353.5,296.5,357.6,292.4,360.3,287.7 M387.9,288.4c5.2,3.1,9.6,6.2,13.2,9.2
	c-1.9,1.6-3.9,3.5-5.9,5.9c-3.8-3.5-8-6.7-12.7-9.7C384.8,291.8,386.6,290,387.9,288.4 M379.8,250.7l-1,0.2l-9.9,1.7l-1.4,0.2
	l0.7,1.3c0.4,0.8,0.9,1.7,1.3,2.7h-20.9h-1v1v6.4v1h1h52.4h1v-1v-6.4v-1h-1h-20.1c-0.4-2.3-0.7-3.9-0.8-5L379.8,250.7L379.8,250.7z
	 M394.6,267.1h-1h-36.8h-1v1v17.7v1h1h2.9l-0.2,0.4c-2.6,4.6-6.6,8.6-11.9,11.9l-1.3,0.8l1.2,0.9l6.6,4.7l0.6,0.4l0.6-0.5
	c2.3-1.8,4.9-4.2,7.8-7.1l0.5,1.3c1.1,2.4,1.8,4.8,2.3,7.1l0.2,0.8l0.8,0c0.7,0,1.4,0,2,0c5.9,0,9.6-1,11.1-3c0.8-1.1,1-2.3,0.7-3.8
	v-14h12.9h1v-1v-17.7V267.1L394.6,267.1z M365.3,275.2h19.2v3.6h-19.2V275.2L365.3,275.2z M360.8,286.8h9.6v10.3v0.2l0.1,0.2
	c0,0,0,0.1,0,0.1c-0.1,0.1-0.9,0.7-4.6,0.7c-0.4,0-0.9,0-1.3,0l-1.3,0c1.7-1.7,3.5-3.5,5.3-5.6l0.3-0.3v-0.4
	C368.9,291.2,368.9,291.1,360.8,286.8L360.8,286.8z M387.7,287.1l-0.6,0.7c-1.2,1.5-3,3.3-5.3,5.3l-1,0.9l1.1,0.7
	c4.6,2.9,8.9,6.2,12.6,9.6l0.8,0.7l0.7-0.8c2-2.3,3.9-4.2,5.8-5.8l0.9-0.8l-0.9-0.8c-3.6-3-8.1-6.1-13.3-9.3L387.7,287.1
	L387.7,287.1z"/>
<path class="st4" d="M402.9,299.1c15.2-6.9,23-17.8,23.3-32.8v-13.2h3.3c4.2,0,6.4,0.2,6.4,0.7v0.5c-0.6,2.7-0.9,6.1-0.9,10.1v1.7
	c1.6,15.6,9.4,26,23.6,31.4c-3,2.8-5.3,5.4-7.1,7.8c-9.3-5.3-16-13.1-20.3-23.3c-4.2,9.9-11.5,17.7-21.7,23.3
	C407.5,302.7,405.3,300.7,402.9,299.1z"/>
<path class="st3" d="M429.6,253.1c4.2,0,6.4,0.2,6.4,0.7v0.5c-0.6,2.7-0.9,6.1-0.9,10.1v1.7c1.6,15.6,9.4,26,23.6,31.4
	c-3,2.8-5.3,5.4-7.1,7.8c-9.3-5.3-16-13.1-20.3-23.3c-4.2,9.9-11.5,17.7-21.7,23.3c-2-2.5-4.2-4.6-6.6-6.1
	c15.2-6.9,23-17.8,23.3-32.8v-13.2H429.6 M429.6,252.1h-3.3h-1v1v13.2c-0.3,14.4-8,25.2-22.8,31.9l-1.7,0.7l1.5,1
	c2.3,1.5,4.4,3.5,6.4,5.9l0.5,0.7l0.7-0.4c9.7-5.3,16.8-12.7,21.2-21.8c4.4,9.4,11,16.7,19.8,21.8l0.8,0.5l0.5-0.7
	c1.7-2.3,4-4.9,7-7.6l1.2-1.1l-1.5-0.6c-13.7-5.2-21.4-15.4-22.9-30.5v-1.6c0-4,0.3-7.3,0.9-9.9l0-0.1v-0.1v-0.5
	C436.9,252.4,435.1,252.1,429.6,252.1L429.6,252.1z"/>
<path class="st4" d="M461.9,256c8.2-0.8,15.8-2,22.9-3.8l1.4-0.2c2.5,3.5,4.2,5.9,5,7.3l-2.1,0.2c-3,0.3-5.8,0.6-8.5,0.9v7.5h9v6.1
	h-9v5.9l3.5-2.4c2.7,3.3,4.7,6.4,6.1,9.4l-5.4,4c-1.1-2.4-2.5-4.5-4.2-6.4v21.7h-7.3v-19.3c-2.5,3.9-5,7.2-7.3,9.9
	c-1.3-2-3.1-3.6-5.4-4.7c5.3-5.8,9.4-11.9,12-18.2h-10.4V268h11.1v-6.8c-0.6,0-1.8,0.2-3.5,0.5c-2.5,0.2-4.3,0.3-5.4,0.5
	C463.9,260.1,463.1,258,461.9,256z M491.1,260h22.2v40.3h-7.5v-4.2h-7.5v4.7h-7.1V260z M505.7,266.6h-7.5v23.1h7.5V266.6z"/>
<path class="st3" d="M486.2,252c2.5,3.5,4.2,5.9,5,7.3l-2.1,0.2c-3,0.3-5.8,0.6-8.5,0.9v7.5h9v6.1h-9v5.9l3.5-2.4
	c2.7,3.3,4.7,6.4,6.1,9.4l-5.4,4c-1.1-2.4-2.5-4.5-4.2-6.4v21.7h-7.3v-19.3c-2.5,3.9-5,7.2-7.3,9.9c-1.3-2-3.1-3.6-5.4-4.7
	c5.3-5.8,9.4-11.9,12-18.2h-10.4V268h11.1v-6.8c-0.6,0-1.8,0.2-3.5,0.5c-2.5,0.2-4.3,0.3-5.4,0.5c-0.3-2-1.1-4.1-2.4-6.1
	c8.2-0.8,15.8-2,22.9-3.8L486.2,252 M513.3,260v40.3h-7.5v-4.2h-7.5v4.7h-7.1V260H513.3 M498.2,289.7h7.5v-23.1h-7.5V289.7
	 M486.6,250.9L486,251l-1.4,0.2l0,0l0,0c-7,1.7-14.6,3-22.7,3.7l-1.6,0.2l0.8,1.4c1.2,1.9,1.9,3.9,2.2,5.8l0.2,1l1-0.1
	c1.1-0.2,2.9-0.3,5.3-0.5l0.1,0l0.1,0c1.1-0.2,1.8-0.3,2.4-0.4v4.7h-10.1h-1v1v6.1v1h1h8.8c-2.6,5.7-6.4,11.2-11.2,16.5l-0.9,1
	l1.2,0.6c2.2,1,3.8,2.5,5,4.3l0.7,1.2l0.9-1c1.8-2,3.7-4.5,5.6-7.2v16v1h1h7.3h1v-1v-18.9c0.9,1.2,1.7,2.6,2.3,4l0.5,1.1l1-0.7
	l4.8-3.5v12.4v1h1h7.1h1v-1v-3.7h5.5v3.2v1h1h7.5h1v-1V260v-1h-1h-21.2l-0.1-0.2c-0.8-1.5-2.5-3.9-5-7.4L486.6,250.9L486.6,250.9z
	 M481.5,261.4c2.3-0.3,4.8-0.5,7.6-0.8l1-0.1v6.6h-0.6h-8V261.4L481.5,261.4z M499.2,267.6h5.5v21.1h-5.5V267.6L499.2,267.6z
	 M481.5,275.1h8h0.6v9.6c-1.4-2.5-3.1-5.1-5.3-7.7l-0.6-0.7l-0.8,0.5l-2,1.3V275.1L481.5,275.1z"/>
<g>
	<polygon class="st3" points="141,398.2 134.6,398.6 135.9,421.7 120.9,422.6 119.5,399.5 113.1,399.9 114.5,423 103.7,423.6 
		102.4,400.6 95.9,401 97.7,431.1 142.8,428.4 	"/>
	<path class="st4" d="M141,398.2l1.8,30.1l-45.1,2.7L95.9,401l6.4-0.4l1.4,23l10.8-0.6l-1.4-23l6.4-0.4l1.4,23l15-0.9l-1.4-23
		L141,398.2 M141.9,397.2l-1,0.1l-6.4,0.4l-1,0.1l0.1,1l1.3,22l-13,0.8l-1.3-22l-0.1-1l-1,0.1l-6.4,0.4l-1,0.1l0.1,1l1.3,22
		l-8.7,0.5l-1.3-22l-0.1-1l-1,0.1l-6.4,0.4l-1,0.1l0.1,1l1.8,30.1l0.1,1l1-0.1l45.1-2.7l1-0.1l-0.1-1l-1.8-30.1L141.9,397.2
		L141.9,397.2z"/>
	<polygon class="st3" points="102.4,385.7 136,387.6 135.7,393.3 141.4,393.7 142.4,375.1 136.7,374.8 136.4,380.5 102.7,378.7 
		103.1,372.9 97.3,372.6 96.3,391.2 102,391.5 	"/>
	<path class="st4" d="M97.3,372.6l5.7,0.3l-0.3,5.7l33.6,1.9l0.3-5.7l5.7,0.3l-1,18.6l-5.7-0.3l0.3-5.7l-33.6-1.9l-0.3,5.7l-5.7-0.3
		L97.3,372.6 M96.4,371.5l-0.1,1l-1,18.6l-0.1,1l1,0.1l5.7,0.3l1,0.1l0.1-1l0.3-4.7l31.6,1.8l-0.3,4.7l-0.1,1l1,0.1l5.7,0.3l1,0.1
		l0.1-1l1-18.6l0.1-1l-1-0.1l-5.7-0.3l-1-0.1l-0.1,1l-0.3,4.7l-31.6-1.8l0.3-4.7l0.1-1l-1-0.1l-5.7-0.3L96.4,371.5L96.4,371.5z"/>
	<path class="st3" d="M106,351.7l24.7,3.8c1.4,0.2,2.7,0.5,3.8,0.8c1,0.3,1.8,0.7,2.5,1.3c0.6,0.5,1,1.3,1.2,2.3
		c0.2,1,0.2,2.4-0.1,4.1c-0.2,1.2-0.5,2.3-0.9,3.4c-0.5,1.1-0.9,2-1.3,2.8l-0.2,1.1l6.5,1l0.2-0.5c0.4-1,0.8-2.3,1.2-3.9
		c0.4-1.5,0.7-2.8,0.8-3.8c0.6-4,0-7.5-1.7-10.2c-1.8-2.8-4.7-4.5-8.7-5.1l-32.7-5L98.7,360l5.8,0.9L106,351.7z"/>
	<path class="st4" d="M101.2,343.8l32.7,5c4,0.6,6.9,2.3,8.7,5.1c1.8,2.8,2.4,6.2,1.7,10.2c-0.1,0.9-0.4,2.2-0.8,3.8
		c-0.4,1.5-0.8,2.9-1.2,3.9l-0.2,0.5l-6.5-1l0.2-1.1c0.4-0.7,0.8-1.7,1.3-2.8c0.4-1.1,0.8-2.2,0.9-3.4c0.3-1.7,0.3-3.1,0.1-4.1
		c-0.2-1-0.6-1.8-1.2-2.3c-0.6-0.6-1.4-1-2.5-1.3c-1.1-0.3-2.4-0.6-3.8-0.8l-24.7-3.8l-1.4,9.2l-5.8-0.9L101.2,343.8 M100.4,342.7
		l-0.2,1l-2.5,16.2l-0.2,1l1,0.2l5.8,0.9l1,0.2l0.2-1l1.3-8.2l23.7,3.6c1.4,0.2,2.6,0.5,3.7,0.8c0.9,0.2,1.5,0.6,2,1.1
		c0.4,0.4,0.7,1,0.9,1.8c0.2,0.9,0.2,2.2-0.1,3.8c-0.2,1.1-0.5,2.1-0.9,3.1c-0.5,1.1-0.9,2-1.2,2.7l-0.1,0.1l0,0.1l-0.2,1.1l-0.2,1
		l1,0.2l6.5,1l0.8,0.1l0.3-0.8l0.2-0.5c0.4-1.1,0.8-2.4,1.3-4c0.4-1.6,0.7-2.9,0.9-3.9c0.7-4.3,0-8-1.9-10.9c-2-3-5.1-4.9-9.4-5.6
		l-32.7-5L100.4,342.7L100.4,342.7z"/>
	<polygon class="st3" points="144.8,330.1 112.2,321.7 113.6,316.2 108.1,314.8 103.5,332.8 109,334.2 110.4,328.6 143.1,337 
		141.6,342.5 147.2,344 151.8,325.9 146.3,324.5 	"/>
	<path class="st4" d="M108.1,314.8l5.6,1.4l-1.4,5.6l32.6,8.3l1.4-5.6l5.6,1.4l-4.6,18l-5.6-1.4l1.4-5.6l-32.6-8.3l-1.4,5.6
		l-5.6-1.4L108.1,314.8 M107.3,313.5l-0.2,1l-4.6,18l-0.2,1l1,0.2l5.6,1.4l1,0.2l0.2-1l1.2-4.6l30.7,7.8l-1.2,4.6l-0.2,1l1,0.2
		l5.6,1.4l1,0.2l0.2-1l4.6-18l0.2-1l-1-0.2l-5.6-1.4l-1-0.2l-0.2,1l-1.2,4.6l-30.7-7.8l1.2-4.6l0.2-1l-1-0.2l-5.6-1.4L107.3,313.5
		L107.3,313.5z"/>
	<polygon class="st3" points="122,276.3 153.5,289 115.3,293 111.6,302.3 153.5,319.2 156,312.9 121.3,299 163.4,294.6 166.4,286.9 
		124.5,270.1 	"/>
	<path class="st4" d="M124.5,270.1l41.9,16.8l-3.1,7.6l-42.1,4.5l34.7,13.9l-2.5,6.2l-41.9-16.8l3.7-9.3l38.2-4L122,276.3
		L124.5,270.1 M124,268.8l-0.4,0.9l-2.5,6.2l-0.4,0.9l0.9,0.4l27.7,11.1l-34.2,3.6l-0.6,0.1l-0.2,0.6l-3.7,9.3l-0.4,0.9l0.9,0.4
		l41.9,16.8l0.9,0.4l0.4-0.9l2.5-6.2l0.4-0.9l-0.9-0.4l-30.9-12.4l38-4l0.6-0.1l0.2-0.6l3.1-7.6l0.4-0.9l-0.9-0.4l-41.9-16.8
		L124,268.8L124,268.8z"/>
	<path class="st3" d="M160.3,251l5.4,3.4l6.2-10l8.3,5.1c-0.2,1.4-0.7,2.8-1.3,4.4c-0.7,1.7-1.5,3.4-2.4,5c-2.6,4.2-6,6.8-10,7.6
		c-4.1,0.8-8.5-0.2-13.2-3.1c-4.4-2.7-7.2-6.1-8.4-10c-1.1-3.9-0.4-7.9,2-11.9c1.1-1.8,2.3-3.3,3.5-4.5c1.2-1.2,2.4-2.2,3.6-3
		c1-0.7,2.1-1.3,3.3-1.9c1.2-0.6,2.2-1,2.9-1.3l0.2-0.1l0.7-1.2l-6.8-4.2l-0.3,0.2c-2.8,1.8-5.2,3.7-7.1,5.6c-1.9,1.9-3.5,4-4.9,6.1
		c-3.8,6.2-5.1,12.3-3.8,18c1.3,5.8,5.1,10.6,11.2,14.3c3.3,2,6.5,3.4,9.6,4c1.4,0.3,2.7,0.4,4,0.4c1.7,0,3.3-0.2,4.8-0.6
		c2.7-0.7,5.3-2.1,7.7-4.1c2.3-2,4.5-4.5,6.3-7.4c1.4-2.3,2.5-4.9,3.4-7.8c0.8-2.9,1.4-5.6,1.7-8.3l0-0.4L170.1,235L160.3,251z"/>
	<path class="st4" d="M154.4,225.4l6.8,4.2l-0.7,1.2l-0.2,0.1c-0.7,0.3-1.7,0.7-2.9,1.3c-1.2,0.6-2.3,1.2-3.3,1.9
		c-1.2,0.8-2.4,1.8-3.6,3c-1.2,1.2-2.4,2.7-3.5,4.5c-2.5,4-3.2,8-2,11.9c1.1,3.9,3.9,7.3,8.4,10c3.6,2.2,7.1,3.4,10.4,3.4
		c1,0,1.9-0.1,2.8-0.3c4.1-0.8,7.4-3.4,10-7.6c1-1.6,1.8-3.2,2.4-5c0.6-1.6,1-3.1,1.3-4.4l-8.3-5.1l-6.2,10l-5.4-3.4l9.9-16
		l16.9,10.4l0,0.4c-0.3,2.6-0.9,5.4-1.7,8.3c-0.8,2.9-1.9,5.5-3.4,7.8c-1.8,3-3.9,5.4-6.3,7.4c-2.4,2-4.9,3.4-7.7,4.1
		c-1.6,0.4-3.2,0.6-4.8,0.6c-1.3,0-2.6-0.1-4-0.4c-3.1-0.6-6.3-1.9-9.6-4c-6.1-3.8-9.9-8.6-11.2-14.3c-1.3-5.8-0.1-11.8,3.8-18
		c1.3-2.2,3-4.2,4.9-6.1c1.9-1.9,4.3-3.8,7.1-5.6L154.4,225.4 M154.4,224.2l-0.5,0.3l-0.3,0.2c-2.9,1.9-5.3,3.8-7.3,5.8
		c-2,2-3.6,4.1-5,6.3c-4,6.4-5.3,12.8-3.9,18.8c1.4,6,5.3,11.1,11.6,15c3.4,2.1,6.8,3.5,10,4.1c1.4,0.3,2.8,0.4,4.2,0.4
		c1.8,0,3.5-0.2,5.1-0.7c2.9-0.8,5.6-2.2,8.1-4.3c2.4-2,4.6-4.6,6.5-7.7c1.5-2.4,2.6-5.1,3.5-8.1c0.8-2.9,1.4-5.8,1.7-8.4l0-0.4
		l0.1-0.6l-0.5-0.3l-16.9-10.4l-0.9-0.5l-0.5,0.9l-9.9,16l-0.5,0.9l0.9,0.5l5.4,3.4l0.9,0.5l0.5-0.9l5.6-9.2l6.8,4.2
		c-0.2,1.1-0.6,2.3-1.1,3.6c-0.6,1.7-1.4,3.3-2.3,4.8c-2.4,4-5.6,6.4-9.4,7.2c-0.8,0.2-1.7,0.3-2.6,0.3c-3.1,0-6.4-1.1-9.8-3.2
		c-4.2-2.6-6.9-5.8-7.9-9.4c-1-3.6-0.4-7.3,1.9-11.1c1.1-1.7,2.2-3.2,3.4-4.4c1.2-1.2,2.3-2.2,3.5-2.9c0.9-0.6,2-1.2,3.2-1.8
		c1.2-0.6,2.2-1,2.9-1.2l0.2-0.1l0.3-0.1l0.2-0.3l0.7-1.2l0.5-0.9l-0.9-0.5l-6.8-4.2L154.4,224.2L154.4,224.2z"/>
	<polygon class="st3" points="238.3,189.6 229.4,177.4 248.1,163.9 244.3,158.6 225.7,172.2 219.3,163.5 238,149.9 234.2,144.7 
		209.8,162.5 236.3,199 260.7,181.2 257,176 	"/>
	<path class="st4" d="M234.2,144.7l3.8,5.2l-18.7,13.6l6.3,8.7l18.7-13.6l3.8,5.2l-18.7,13.6l8.8,12.2L257,176l3.8,5.2L236.3,199
		l-26.6-36.5L234.2,144.7 M234.4,143.3l-0.8,0.6l-24.4,17.7l-0.8,0.6l0.6,0.8l26.6,36.5l0.6,0.8l0.8-0.6l24.4-17.7l0.8-0.6l-0.6-0.8
		l-3.8-5.2l-0.6-0.8l-0.8,0.6l-17.9,13l-7.7-10.5l17.9-13l0.8-0.6l-0.6-0.8l-3.8-5.2l-0.6-0.8l-0.8,0.6l-17.9,13l-5.1-7.1l17.9-13
		l0.8-0.6l-0.6-0.8l-3.8-5.2L234.4,143.3L234.4,143.3z"/>
	<polygon class="st3" points="270.2,125 285.7,155.2 254.2,133.2 245.2,137.8 265.9,178 271.8,174.9 254.8,141.7 289.5,165.9 
		296.8,162.1 276.2,122 	"/>
	<path class="st4" d="M276.2,122l20.6,40.2l-7.3,3.8l-34.7-24.2l17.1,33.2l-6,3.1l-20.6-40.2l8.9-4.6l31.5,22L270.2,125L276.2,122
		 M276.6,120.6l-0.9,0.5l-6,3.1l-0.9,0.5l0.5,0.9l13.7,26.6l-28.2-19.7l-0.5-0.3l-0.5,0.3l-8.9,4.6l-0.9,0.5l0.5,0.9l20.6,40.2
		l0.5,0.9l0.9-0.5l6-3.1l0.9-0.5l-0.5-0.9l-15.2-29.6l31.4,21.9l0.5,0.3l0.5-0.3l7.3-3.8l0.9-0.5l-0.5-0.9l-20.6-40.2L276.6,120.6
		L276.6,120.6z"/>
	<polygon class="st3" points="317.3,107.6 322.5,124 302.8,130.2 297.6,113.8 290.9,115.9 304.5,159 311.2,156.8 304.8,136.3 
		324.4,130.1 330.9,150.6 337.7,148.5 324.1,105.4 	"/>
	<path class="st4" d="M324.1,105.4l13.6,43.1l-6.8,2.1l-6.5-20.5l-19.7,6.2l6.5,20.5l-6.8,2.1l-13.6-43.1l6.8-2.1l5.2,16.4l19.7-6.2
		l-5.2-16.4L324.1,105.4 M324.7,104.2l-1,0.3l-6.8,2.1l-1,0.3l0.3,1l4.9,15.5l-17.8,5.6l-4.9-15.5l-0.3-1l-1,0.3l-6.8,2.1l-1,0.3
		l0.3,1l13.6,43.1l0.3,1l1-0.3l6.8-2.1l1-0.3l-0.3-1L306,137l17.8-5.6l6.2,19.5l0.3,1l1-0.3l6.8-2.1l1-0.3l-0.3-1l-13.6-43.1
		L324.7,104.2L324.7,104.2z"/>
	<polygon class="st3" points="352.1,139.4 349.9,124.5 372.7,121.1 371.7,114.7 348.9,118.1 347.3,107.5 370.1,104 369.2,97.7 
		339.3,102.2 346.1,146.8 375.9,142.3 374.9,135.9 	"/>
	<path class="st4" d="M369.2,97.7l1,6.4l-22.8,3.5l1.6,10.6l22.8-3.5l1,6.4l-22.8,3.5l2.2,14.9l22.8-3.5l1,6.4l-29.8,4.5l-6.7-44.6
		L369.2,97.7 M370,96.5l-1,0.2l-29.8,4.5l-1,0.2l0.2,1l6.7,44.6l0.2,1l1-0.2l29.8-4.5l1-0.2l-0.2-1l-1-6.4l-0.2-1l-1,0.2l-21.8,3.3
		l-1.9-12.9l21.8-3.3l1-0.2l-0.2-1l-1-6.4l-0.2-1l-1,0.2l-21.8,3.3l-1.3-8.7l21.8-3.3l1-0.2l-0.2-1l-1-6.4L370,96.5L370,96.5z"/>
	<polygon class="st3" points="402.2,141.6 409.3,142 410.6,120.9 429.7,122.1 430,115.7 411,114.5 411.7,103.4 433.8,104.8 
		434.2,98.3 405,96.5 	"/>
	<path class="st4" d="M405,96.5l29.2,1.8l-0.4,6.4l-22.2-1.3l-0.7,11.1l19,1.2l-0.4,6.4l-19-1.2l-1.3,21.1l-7.1-0.4L405,96.5
		 M404,95.5l-0.1,1l-2.7,45.1l-0.1,1l1,0.1l7.1,0.4l1,0.1l0.1-1l1.2-20.1l18,1.1l1,0.1l0.1-1l0.4-6.4l0.1-1l-1-0.1l-18-1.1l0.6-9.1
		l21.2,1.3l1,0.1l0.1-1l0.4-6.4l0.1-1l-1-0.1l-29.2-1.8L404,95.5L404,95.5z"/>
	<path class="st3" d="M476.4,111.9L476.4,111.9c-1.4-2.3-3.2-4.3-5.5-5.9c-2.3-1.6-5-2.7-8.2-3.4c-3-0.7-6-0.7-8.8-0.3
		c-2.8,0.5-5.3,1.5-7.5,3.1c-2.3,1.6-4.2,3.8-5.7,6.4c-1.5,2.6-2.7,5.8-3.5,9.3c-0.8,3.6-1,7-0.7,10c0.3,3,1.2,5.8,2.6,8.1
		c1.4,2.3,3.2,4.3,5.5,5.9c2.3,1.6,5,2.7,8.1,3.4c1.9,0.4,3.7,0.6,5.4,0.6c1.2,0,2.3-0.1,3.4-0.3c2.7-0.5,5.2-1.5,7.5-3.1
		c2.2-1.5,4.1-3.7,5.7-6.3c1.6-2.6,2.8-5.8,3.6-9.4c0.8-3.6,1-6.9,0.7-10C478.7,117,477.8,114.3,476.4,111.9z M471.2,128.5
		c-1.2,5.5-3.3,9.4-6.4,11.7c-3,2.3-6.5,3.1-10.6,2.2c-4.1-0.9-7-3-8.8-6.4c-1.8-3.4-2.1-7.9-0.9-13.3c1.2-5.4,3.3-9.3,6.3-11.7
		c2.2-1.7,4.6-2.6,7.4-2.6c1.1,0,2.2,0.1,3.3,0.4c4.2,0.9,7.1,3,8.8,6.4C472,118.6,472.3,123.1,471.2,128.5z"/>
	<path class="st4" d="M457.6,102.1c1.7,0,3.4,0.2,5.2,0.6c3.1,0.7,5.9,1.8,8.2,3.4c2.3,1.6,4.1,3.6,5.5,5.9l0,0
		c1.4,2.4,2.2,5.1,2.6,8.2c0.3,3,0.1,6.4-0.7,10c-0.8,3.6-2,6.7-3.6,9.4c-1.6,2.7-3.5,4.8-5.7,6.3c-2.3,1.6-4.8,2.7-7.5,3.1
		c-1.1,0.2-2.2,0.3-3.4,0.3c-1.7,0-3.5-0.2-5.4-0.6c-3.1-0.7-5.8-1.8-8.1-3.4c-2.3-1.6-4.2-3.6-5.5-5.9c-1.4-2.3-2.2-5.1-2.6-8.1
		c-0.3-3-0.1-6.4,0.7-10c0.8-3.5,1.9-6.7,3.5-9.3c1.6-2.6,3.5-4.8,5.7-6.4c2.2-1.6,4.7-2.6,7.5-3.1
		C455.2,102.2,456.3,102.1,457.6,102.1 M457.5,142.8c2.7,0,5.2-0.8,7.4-2.5c3-2.3,5.2-6.3,6.4-11.7c1.2-5.4,0.9-9.9-0.9-13.3
		c-1.8-3.4-4.7-5.5-8.8-6.4c-1.1-0.2-2.2-0.4-3.3-0.4c-2.8,0-5.3,0.9-7.4,2.6c-3,2.4-5.1,6.3-6.3,11.7c-1.2,5.5-0.9,9.9,0.9,13.3
		c1.8,3.4,4.7,5.5,8.8,6.4C455.3,142.7,456.4,142.8,457.5,142.8 M457.6,101.1c-1.3,0-2.5,0.1-3.7,0.3c-3,0.5-5.6,1.6-7.9,3.2
		c-2.4,1.7-4.4,4-6,6.8c-1.6,2.7-2.8,5.9-3.6,9.6c-0.8,3.7-1,7.2-0.7,10.3c0.4,3.2,1.3,6,2.7,8.5c1.4,2.5,3.4,4.6,5.9,6.2
		c2.4,1.6,5.3,2.8,8.5,3.5c1.9,0.4,3.8,0.6,5.6,0.6c1.2,0,2.4-0.1,3.6-0.3c2.9-0.5,5.5-1.6,7.9-3.3c2.3-1.6,4.3-3.8,6-6.6
		c1.6-2.7,2.9-6,3.7-9.7c0.8-3.7,1-7.2,0.7-10.3c-0.4-3.2-1.3-6.1-2.7-8.6l0-0.1l0,0c-1.4-2.4-3.4-4.5-5.8-6.1
		c-2.4-1.7-5.3-2.8-8.5-3.6C461.1,101.3,459.3,101.1,457.6,101.1L457.6,101.1z M457.5,141.8c-1,0-2-0.1-3.1-0.3
		c-3.8-0.8-6.5-2.7-8.1-5.9c-1.7-3.2-2-7.4-0.9-12.6c1.1-5.2,3.1-8.9,5.9-11.2c2-1.6,4.3-2.3,6.8-2.3c1,0,2,0.1,3.1,0.3
		c3.9,0.8,6.5,2.8,8.1,5.9c1.7,3.2,1.9,7.4,0.8,12.6c-1.1,5.2-3.1,9-6,11.2C462.2,141,460,141.8,457.5,141.8L457.5,141.8z"/>
	<polygon class="st3" points="567.3,155.3 570.7,149.8 537.7,130 534.4,135.5 547.8,143.6 527.9,176.7 533.9,180.4 553.9,147.2 	"/>
	<path class="st4" d="M537.7,130l32.9,19.8l-3.3,5.5l-13.4-8.1l-20,33.2l-6.1-3.7l20-33.2l-13.4-8.1L537.7,130 M537.4,128.6
		l-0.5,0.9l-3.3,5.5l-0.5,0.9l0.9,0.5l12.6,7.6L527,176.2l-0.5,0.9l0.9,0.5l6.1,3.7l0.9,0.5l0.5-0.9l19.5-32.3l12.6,7.6l0.9,0.5
		l0.5-0.9l3.3-5.5l0.5-0.9l-0.9-0.5l-32.9-19.8L537.4,128.6L537.4,128.6z"/>
	<path class="st3" d="M620.5,193.9l-44.6,17.9l4.9,5.4l12-5l12.1,13.5l-6.2,11.4l5.1,5.6l22.6-42.4L620.5,193.9z M608,219.9
		l-9.1-10.1l18.7-7.6L608,219.9z"/>
	<path class="st4" d="M620.5,193.9l5.8,6.4l-22.6,42.4l-5.1-5.6l6.2-11.4l-12.1-13.5l-12,5l-4.9-5.4L620.5,193.9 M608,219.9
		l9.6-17.8l-18.7,7.6L608,219.9 M620.8,192.7l-0.7,0.3l-44.6,17.9l-1.3,0.5l1,1.1l4.9,5.4l0.5,0.5l0.7-0.3l11.3-4.7l11.1,12.4
		l-5.9,10.7l-0.3,0.6l0.5,0.5l5.1,5.6l1,1.1l0.7-1.3l22.6-42.4l0.3-0.6l-0.5-0.5l-5.8-6.4L620.8,192.7L620.8,192.7z M600.6,210.1
		l14.8-6l-7.6,14.1L600.6,210.1L600.6,210.1z"/>
	<polygon class="st3" points="614.5,248.1 646.6,226.4 642.7,220.6 605.2,245.8 621.5,269.9 626.8,266.3 	"/>
	<path class="st4" d="M642.7,220.6l4,5.9l-32.1,21.6l12.3,18.2l-5.3,3.6l-16.2-24.1L642.7,220.6 M642.9,219.2l-0.8,0.6L604.7,245
		l-0.8,0.6l0.6,0.8l16.2,24.1l0.6,0.8l0.8-0.6l5.3-3.6l0.8-0.6l-0.6-0.8l-11.7-17.4l31.3-21.1l0.8-0.6l-0.6-0.8l-4-5.9L642.9,219.2
		L642.9,219.2z"/>
	<polygon class="st3" points="666.1,258.5 662.9,252.1 622.6,272.6 635.7,298.4 641.5,295.5 631.6,276 	"/>
	<path class="st4" d="M662.9,252.1l3.2,6.3L631.6,276l9.9,19.6l-5.8,2.9l-13.1-25.9L662.9,252.1 M663.3,250.8l-0.9,0.5l-40.3,20.4
		l-0.9,0.5l0.5,0.9l13.1,25.9l0.5,0.9l0.9-0.5l5.8-2.9l0.9-0.5l-0.5-0.9l-9.5-18.7l33.6-17l0.9-0.5L667,258l-3.2-6.3L663.3,250.8
		L663.3,250.8z"/>
	<path class="st3" d="M653.3,350.3c0.6,0.7,1.3,1.6,2,2.5l0.3,0.3l7.6-1.9l-0.3-1.2l-0.2-0.1c-2.3-1.6-4.3-3.4-5.7-5.5
		c-1.5-2.1-2.6-4.5-3.3-7.1c-0.5-1.9-0.6-3.8-0.4-5.7c0.2-1.8,0.8-3.6,1.8-5.2c1-1.5,2.4-3,4.3-4.3c1.9-1.3,4.3-2.3,7.2-3.1
		c2.8-0.7,5.3-1,7.6-0.8c2.3,0.2,4.3,0.7,5.9,1.6c1.7,0.9,3.1,2.1,4.2,3.6c1.1,1.5,1.9,3.3,2.4,5.3c0.6,2.5,0.8,5.1,0.5,7.5
		c-0.3,2.5-1.1,5.1-2.5,7.9l-0.1,0.2l0.3,1.3l7.7-2l0.1-0.4c0.7-3.2,1-6,1-8.5c0-2.5-0.3-4.9-0.9-7.2c-0.8-3.2-2.1-6-3.7-8.4
		c-1.7-2.4-3.7-4.3-6.1-5.7c-2.4-1.4-5.3-2.3-8.3-2.6c-3.1-0.3-6.4,0-10,0.9c-3.7,1-7,2.3-9.5,4.1c-2.6,1.8-4.6,3.9-6,6.2
		c-1.4,2.4-2.2,5.1-2.5,7.9c-0.2,2.8,0.1,5.8,0.9,9c0.4,1.7,1,3.2,1.6,4.5c0.6,1.3,1.3,2.5,1.9,3.6
		C652,348.5,652.7,349.6,653.3,350.3z"/>
	<path class="st4" d="M672.5,310.9c0.8,0,1.5,0,2.3,0.1c3.1,0.3,5.9,1.2,8.3,2.6c2.4,1.4,4.4,3.3,6.1,5.7c1.7,2.4,2.9,5.2,3.7,8.4
		c0.6,2.3,0.9,4.7,0.9,7.2c0,2.5-0.3,5.3-1,8.5l-0.1,0.4l-7.7,2l-0.3-1.3l0.1-0.2c1.3-2.8,2.2-5.4,2.5-7.9c0.3-2.4,0.1-5-0.5-7.5
		c-0.5-2.1-1.3-3.9-2.4-5.3c-1.1-1.5-2.5-2.7-4.2-3.6c-1.7-0.9-3.7-1.4-5.9-1.6c-0.4,0-0.9,0-1.4,0c-1.9,0-4,0.3-6.3,0.9
		c-2.9,0.7-5.3,1.8-7.2,3.1c-1.9,1.3-3.3,2.7-4.3,4.3c-1,1.6-1.6,3.4-1.8,5.2c-0.2,1.9-0.1,3.8,0.4,5.7c0.7,2.6,1.8,5,3.3,7.1
		c1.5,2.1,3.4,3.9,5.7,5.5l0.2,0.1l0.3,1.2l-7.6,1.9l-0.3-0.3c-0.7-0.9-1.4-1.8-2-2.5c-0.6-0.8-1.4-1.8-2.2-3.1
		c-0.7-1.1-1.3-2.3-1.9-3.6c-0.6-1.3-1.1-2.8-1.6-4.5c-0.8-3.1-1.1-6.2-0.9-9c0.2-2.8,1.1-5.5,2.5-7.9c1.4-2.4,3.4-4.5,6-6.2
		c2.6-1.8,5.8-3.2,9.5-4.1C667.5,311.2,670.1,310.9,672.5,310.9 M672.5,309.9c-2.5,0-5.2,0.4-8,1.1c-3.9,1-7.2,2.4-9.9,4.3
		c-2.7,1.9-4.8,4.1-6.3,6.6c-1.5,2.5-2.4,5.3-2.6,8.3c-0.2,2.9,0.1,6,0.9,9.3c0.4,1.7,1,3.3,1.6,4.7c0.6,1.4,1.3,2.6,2,3.7
		c0.8,1.3,1.6,2.4,2.2,3.2c0.6,0.7,1.3,1.6,2,2.5l0.3,0.3l0.4,0.5l0.6-0.2l7.6-1.9l1-0.2l-0.2-1l-0.3-1.2l-0.1-0.4l-0.3-0.2
		l-0.2-0.1c-2.2-1.5-4.1-3.2-5.5-5.2c-1.4-2-2.5-4.2-3.1-6.7c-0.5-1.8-0.6-3.6-0.4-5.3c0.2-1.7,0.8-3.3,1.7-4.8c0.9-1.4,2.3-2.8,4-4
		c1.8-1.2,4.1-2.2,6.9-2.9c2.2-0.5,4.2-0.8,6-0.8c0.4,0,0.9,0,1.3,0c2.1,0.2,4,0.7,5.5,1.5c1.6,0.9,2.9,2,3.9,3.3c1,1.4,1.8,3,2.3,5
		c0.6,2.4,0.8,4.8,0.5,7.1c-0.3,2.3-1.1,4.9-2.4,7.6l-0.1,0.2l-0.2,0.3l0.1,0.4l0.3,1.3l0.2,1l1-0.2l7.7-2l0.6-0.2l0.1-0.6l0.1-0.4
		c0.7-3.2,1-6.2,1-8.7c0-2.5-0.4-5-1-7.4c-0.8-3.3-2.1-6.2-3.9-8.7c-1.8-2.5-3.9-4.5-6.4-6c-2.6-1.5-5.5-2.4-8.8-2.7
		C674.1,309.9,673.3,309.9,672.5,309.9L672.5,309.9z"/>
	<polygon class="st3" points="655.8,388 662.2,387.4 659.8,365.5 698.3,361.4 697.5,354.3 652.7,359.2 	"/>
	<path class="st4" d="M697.5,354.3l0.8,7.1l-38.5,4.2l2.4,21.8l-6.4,0.7l-3.1-28.9L697.5,354.3 M698.4,353.2l-1,0.1l-44.9,4.9
		l-1,0.1l0.1,1l3.1,28.9l0.1,1l1-0.1l6.4-0.7l1-0.1l-0.1-1l-2.3-20.8l37.5-4.1l1-0.1l-0.1-1l-0.8-7.1L698.4,353.2L698.4,353.2z"/>
	<path class="st3" d="M664.5,399.5c1.1-0.7,2.3-1.2,3.6-1.4c1.3-0.3,3.2-0.4,5.5-0.3l27.2,0.9l0.2-7.1l-26.9-0.9
		c-3.4-0.1-6.3,0.2-8.6,0.8c-2.4,0.6-4.5,1.8-6.2,3.4c-1.5,1.4-2.7,3.2-3.5,5.3c-0.8,2.1-1.3,4.6-1.4,7.4c-0.1,2.7,0.2,5.2,0.8,7.3
		c0.6,2.1,1.7,4,3.2,5.7c1.6,1.7,3.6,3,6.1,3.8c2.4,0.8,5.2,1.2,8.5,1.4l26.9,0.9l0.2-7.1l-27.3-0.9c-2.1-0.1-3.8-0.3-5.2-0.6
		c-1.4-0.4-2.6-0.9-3.6-1.7c-1.2-0.9-2-2-2.6-3.4c-0.6-1.4-0.8-3.1-0.7-5.1c0.1-2,0.4-3.7,1.1-5.1
		C662.4,401.4,663.3,400.3,664.5,399.5z"/>
	<path class="st4" d="M672.6,390.7c0.5,0,1,0,1.5,0l26.9,0.9l-0.2,7.1l-27.2-0.9c-0.5,0-1,0-1.5,0c-1.6,0-3,0.1-4,0.3
		c-1.3,0.3-2.5,0.7-3.6,1.4c-1.2,0.8-2.1,1.8-2.8,3.2c-0.7,1.4-1,3.1-1.1,5.1c-0.1,2,0.2,3.7,0.7,5.1c0.5,1.4,1.4,2.5,2.6,3.4
		c1,0.8,2.2,1.3,3.6,1.7c1.4,0.4,3.1,0.6,5.2,0.6l27.3,0.9l-0.2,7.1l-26.9-0.9c-3.2-0.1-6.1-0.6-8.5-1.4c-2.4-0.8-4.5-2.1-6.1-3.8
		c-1.5-1.6-2.6-3.5-3.2-5.7c-0.6-2.1-0.9-4.6-0.8-7.3c0.1-2.8,0.6-5.3,1.4-7.4c0.8-2.1,2-3.9,3.5-5.3c1.7-1.6,3.8-2.7,6.2-3.4
		C667.5,391,669.9,390.7,672.6,390.7 M672.6,389.7L672.6,389.7c-2.8,0-5.3,0.3-7.4,0.8c-2.5,0.7-4.8,1.9-6.6,3.6
		c-1.6,1.5-2.9,3.4-3.8,5.7c-0.9,2.2-1.3,4.8-1.4,7.7c-0.1,2.9,0.2,5.4,0.9,7.6c0.7,2.3,1.9,4.3,3.5,6c1.7,1.8,3.9,3.2,6.5,4.1
		c2.5,0.8,5.4,1.3,8.7,1.4l26.9,0.9l1,0l0-1l0.2-7.1l0-1l-1,0l-27.3-0.9c-2-0.1-3.7-0.3-5-0.6c-1.2-0.3-2.3-0.8-3.2-1.5
		c-1-0.7-1.8-1.7-2.2-2.9c-0.5-1.3-0.7-2.9-0.7-4.7c0.1-1.8,0.4-3.4,1-4.7c0.6-1.2,1.4-2.1,2.4-2.7c1-0.6,2.1-1.1,3.2-1.3
		c1-0.2,2.2-0.3,3.8-0.3c0.5,0,0.9,0,1.4,0l27.2,0.9l1,0l0-1l0.2-7.1l0-1l-1,0l-26.9-0.9C673.6,389.7,673.1,389.7,672.6,389.7
		L672.6,389.7z"/>
	<path class="st3" d="M144.4,443.9c-1-1.9-2.3-3.5-4-4.9c-1.4-1.2-3.1-2.1-5-2.5c-1.9-0.5-4-0.5-6.2,0h0c-3.1,0.7-5.6,2.1-7.2,4.3
		c-1.4,1.9-2.3,4.1-2.5,6.7c-1.1-1.1-2.3-2-3.7-2.6c-1.8-0.8-3.8-1-5.9-0.5c-1.9,0.4-3.5,1.1-4.7,2.2c-1.2,1.1-2.1,2.5-2.7,4.4
		c-0.4,1.6-0.6,3.3-0.5,5c0.1,1.6,0.5,4.1,1.1,7.2l2.8,13.3l44.2-9.3l-3.3-15.8C146.2,448.3,145.4,445.8,144.4,443.9z M110.7,468.2
		l-1.3-6.2c-0.4-1.9-0.7-3.5-0.8-4.8c-0.1-1.2-0.1-2.3,0.2-3.2c0.2-0.7,0.6-1.3,1.2-1.7c0.6-0.4,1.3-0.8,2.3-1
		c1.2-0.2,2.2-0.3,3.1-0.1c0.9,0.2,1.6,0.6,2.3,1.3c0.7,0.7,1.3,1.6,1.6,2.5c0.4,1,0.8,2.4,1.1,4.1l1.4,6.8L110.7,468.2z
		 M127.9,464.6l-1.8-8.4c-0.4-1.9-0.7-3.5-0.8-4.8c-0.1-1.3-0.1-2.4,0.2-3.3c0.4-1.4,1-2.4,1.8-3.1c0.8-0.7,2.1-1.2,3.7-1.5
		c1.4-0.3,2.6-0.3,3.6,0c1,0.3,1.9,0.8,2.8,1.7c0.8,0.8,1.5,1.9,2.1,3.4c0.6,1.5,1.1,3.5,1.7,6l1.5,6.9L127.9,464.6z"/>
	<path class="st4" d="M132.5,436.1c1.1,0,2.1,0.1,3,0.4c1.9,0.5,3.6,1.3,5,2.5c1.7,1.4,3,3.1,4,4.9c1,1.9,1.8,4.3,2.4,7.4l3.3,15.8
		l-44.2,9.3l-2.8-13.3c-0.7-3.2-1-5.6-1.1-7.2c-0.1-1.7,0.1-3.3,0.5-5c0.5-1.9,1.4-3.4,2.7-4.4c1.2-1,2.8-1.8,4.7-2.2
		c0.8-0.2,1.6-0.3,2.3-0.3c1.3,0,2.5,0.3,3.6,0.8c1.4,0.6,2.6,1.5,3.7,2.6c0.2-2.6,1-4.9,2.5-6.7c1.7-2.2,4.1-3.6,7.2-4.3h0
		C130.4,436.2,131.4,436.1,132.5,436.1 M127.9,464.6l14.8-3.1l-1.5-6.9c-0.5-2.5-1.1-4.5-1.7-6c-0.6-1.4-1.3-2.6-2.1-3.4
		c-0.9-0.8-1.8-1.4-2.8-1.7c-0.5-0.1-1-0.2-1.5-0.2c-0.6,0-1.3,0.1-2,0.2c-1.6,0.3-2.9,0.9-3.7,1.5c-0.8,0.6-1.4,1.7-1.8,3.1
		c-0.3,0.9-0.3,2.1-0.2,3.3c0.1,1.3,0.4,2.9,0.8,4.8L127.9,464.6 M110.7,468.2l11.2-2.4l-1.4-6.8c-0.4-1.7-0.8-3.1-1.1-4.1
		c-0.4-0.9-0.9-1.8-1.6-2.5c-0.7-0.7-1.4-1.1-2.3-1.3c-0.4-0.1-0.8-0.1-1.2-0.1c-0.6,0-1.3,0.1-1.9,0.2c-0.9,0.2-1.7,0.5-2.3,1
		c-0.5,0.4-0.9,1-1.2,1.7c-0.3,0.9-0.4,2-0.2,3.2c0.1,1.3,0.4,2.9,0.8,4.8L110.7,468.2 M132.5,435.1c-1.1,0-2.2,0.1-3.4,0.4
		c-3.4,0.7-6,2.3-7.8,4.7c-1.2,1.5-2,3.3-2.4,5.3c-0.8-0.6-1.7-1.1-2.6-1.5c-1.2-0.6-2.6-0.8-4-0.8c-0.8,0-1.7,0.1-2.5,0.3
		c-2.1,0.4-3.8,1.2-5.2,2.4c-1.4,1.2-2.4,2.8-3,4.9c-0.5,1.8-0.7,3.5-0.6,5.3c0.1,1.7,0.5,4.2,1.2,7.3l2.8,13.3l0.2,1l1-0.2
		l44.2-9.3l1-0.2l-0.2-1l-3.3-15.8c-0.7-3.1-1.5-5.7-2.5-7.6c-1-2-2.5-3.8-4.2-5.2c-1.5-1.3-3.3-2.2-5.4-2.7
		C134.7,435.2,133.6,435.1,132.5,435.1L132.5,435.1z M128.7,463.4l-1.6-7.4c-0.4-1.8-0.6-3.4-0.8-4.7c-0.1-1.1-0.1-2.1,0.2-3
		c0.3-1.2,0.8-2,1.5-2.5c0.7-0.6,1.8-1,3.3-1.3c0.7-0.1,1.3-0.2,1.8-0.2c0.5,0,0.9,0.1,1.3,0.2c0.8,0.2,1.6,0.7,2.4,1.4
		c0.7,0.7,1.3,1.7,1.9,3c0.6,1.5,1.1,3.4,1.6,5.8l1.3,6L128.7,463.4L128.7,463.4z M111.4,467l-1.1-5.2c-0.4-1.8-0.7-3.4-0.8-4.7
		c-0.1-1.1-0.1-2,0.2-2.8c0.2-0.6,0.4-1,0.8-1.3c0.4-0.3,1.1-0.6,1.9-0.8c0.6-0.1,1.2-0.2,1.7-0.2c0.4,0,0.7,0,1,0.1
		c0.7,0.1,1.2,0.4,1.8,1c0.6,0.6,1.1,1.4,1.4,2.2c0.4,0.9,0.7,2.3,1.1,3.9l1.2,5.8L111.4,467L111.4,467z"/>
	<path class="st3" d="M209.9,189.9c-0.4-2.8-1.7-5.4-4-7.7c-1.7-1.7-3.5-2.9-5.3-3.4c-1.8-0.5-3.7-0.5-5.6-0.1
		c-1.7,0.4-3.3,1.1-4.9,2.1c-1.5,1-3.3,2.5-5.2,4.4l-9.2,9.1l31.6,32.2l5.1-5l-12.2-12.5l5.2-5.1l22.7,2.2l6.6-6.5l-25.7-2.2
		C209.9,194.9,210.2,192.4,209.9,189.9z M202.5,197.4c-0.7,1.1-1.7,2.4-3,3.6l-3.8,3.7L185,193.8l4.5-4.4c1.1-1.1,2.1-1.9,3.1-2.6
		c0.9-0.6,1.8-1,2.8-1.2c1.1-0.2,2.1-0.2,2.9,0.2c0.9,0.3,1.8,0.9,2.6,1.8c1.1,1.1,1.9,2.2,2.3,3.2c0.4,1,0.6,2,0.5,3.1
		C203.6,195.1,203.2,196.3,202.5,197.4z"/>
	<path class="st4" d="M197.6,178.4c1,0,2,0.1,3,0.4c1.8,0.5,3.6,1.6,5.3,3.4c2.3,2.3,3.7,4.9,4,7.7c0.3,2.5,0,5-1,7.6l25.7,2.2
		l-6.6,6.5l-22.7-2.2l-5.2,5.1l12.2,12.5l-5.1,5l-31.6-32.2l9.2-9.1c1.9-1.9,3.7-3.3,5.2-4.4c1.6-1,3.2-1.7,4.9-2.1
		C195.8,178.5,196.7,178.4,197.6,178.4 M195.8,204.7l3.8-3.7c1.3-1.3,2.3-2.5,3-3.6c0.7-1.1,1.1-2.3,1.1-3.4c0-1.1-0.1-2.2-0.5-3.1
		c-0.4-1-1.2-2-2.3-3.2c-0.8-0.8-1.7-1.4-2.6-1.8c-0.5-0.2-1.1-0.3-1.7-0.3c-0.4,0-0.8,0-1.2,0.1c-0.9,0.2-1.8,0.6-2.8,1.2
		c-0.9,0.6-2,1.5-3.1,2.6l-4.5,4.4L195.8,204.7 M197.6,177.4c-0.9,0-1.9,0.1-2.9,0.3c-1.8,0.4-3.6,1.2-5.2,2.3
		c-1.6,1-3.4,2.6-5.3,4.5l-9.2,9.1l-0.7,0.7l0.7,0.7l31.6,32.2l0.7,0.7l0.7-0.7l5.1-5l0.7-0.7l-0.7-0.7l-11.5-11.7l4.2-4.1l22.2,2.1
		l0.5,0l0.3-0.3l6.6-6.5l1.6-1.5l-2.2-0.2l-24.4-2.1c0.7-2.3,0.9-4.6,0.6-6.8c-0.4-3-1.9-5.8-4.3-8.3c-1.8-1.9-3.8-3.1-5.8-3.6
		C199.7,177.6,198.7,177.4,197.6,177.4L197.6,177.4z M186.5,193.8l3.7-3.7c1-1,2-1.8,2.9-2.4c0.8-0.5,1.6-0.9,2.4-1
		c0.4-0.1,0.7-0.1,1-0.1c0.5,0,1,0.1,1.4,0.2c0.8,0.3,1.5,0.8,2.2,1.5c1,1,1.7,2,2.1,2.8c0.4,0.8,0.5,1.7,0.5,2.7c-0.1,1-0.4,2-1,3
		c-0.7,1.1-1.7,2.2-2.9,3.4l-3,3L186.5,193.8L186.5,193.8z"/>
	<path class="st3" d="M525.5,130c-0.9-2.5-2.4-4.8-4.4-6.7c-2-2-4.5-3.6-7.5-4.8c-2.9-1.2-5.7-1.8-8.6-1.8c-2.8,0-5.5,0.5-7.9,1.7
		c-2.5,1.2-4.8,3-6.8,5.3c-2,2.3-3.7,5.2-5.1,8.5c-1.4,3.4-2.2,6.7-2.4,9.7c-0.2,3.1,0.2,5.9,1.1,8.4c0.9,2.6,2.4,4.8,4.4,6.8
		c2,2,4.5,3.6,7.4,4.8c3,1.2,5.9,1.9,8.6,1.9c0,0,0.1,0,0.1,0c2.7,0,5.3-0.6,7.8-1.8c2.4-1.1,4.7-2.9,6.7-5.2c2-2.3,3.8-5.2,5.2-8.6
		c1.4-3.4,2.2-6.7,2.4-9.7C526.8,135.5,526.5,132.6,525.5,130L525.5,130z M517.4,145.4c-2.1,5.2-4.9,8.7-8.3,10.4
		c-3.4,1.8-7,1.9-10.9,0.3c-3.8-1.6-6.4-4.2-7.5-7.8c-1.2-3.6-0.7-8.1,1.4-13.3c2.1-5.1,4.9-8.6,8.3-10.4c1.8-1,3.6-1.4,5.5-1.4
		c1.7,0,3.5,0.4,5.4,1.2c3.9,1.6,6.4,4.2,7.5,7.9C520,135.9,519.5,140.3,517.4,145.4z"/>
	<path class="st4" d="M504.9,116.7c0.1,0,0.2,0,0.3,0c2.8,0,5.7,0.6,8.6,1.8c3,1.2,5.5,2.8,7.5,4.8c2,2,3.5,4.2,4.4,6.7l0,0
		c0.9,2.6,1.3,5.4,1.1,8.5c-0.2,3.1-1,6.3-2.4,9.7c-1.4,3.4-3.1,6.3-5.2,8.6c-2,2.3-4.3,4.1-6.7,5.2c-2.5,1.2-5.1,1.8-7.8,1.8
		c0,0-0.1,0-0.1,0c-2.7,0-5.6-0.6-8.6-1.9c-2.9-1.2-5.4-2.8-7.4-4.8c-2-2-3.5-4.3-4.4-6.8c-0.9-2.5-1.3-5.4-1.1-8.4
		c0.2-3,1-6.3,2.4-9.7c1.4-3.4,3.1-6.2,5.1-8.5c2-2.3,4.3-4.1,6.8-5.3C499.6,117.3,502.2,116.7,504.9,116.7 M503.6,157.3
		c1.9,0,3.7-0.5,5.5-1.4c3.4-1.8,6.2-5.3,8.3-10.4c2.1-5.1,2.6-9.6,1.5-13.2c-1.1-3.7-3.6-6.3-7.5-7.9c-1.9-0.8-3.7-1.2-5.4-1.2
		c-1.9,0-3.8,0.5-5.5,1.4c-3.4,1.8-6.2,5.3-8.3,10.4c-2.1,5.2-2.6,9.6-1.4,13.3c1.2,3.6,3.7,6.2,7.5,7.8
		C500.1,156.9,501.9,157.3,503.6,157.3 M504.9,115.7c-2.8,0-5.6,0.6-8.1,1.8c-2.6,1.3-5,3.2-7.1,5.6c-2.1,2.4-3.8,5.4-5.2,8.8
		c-1.4,3.5-2.3,6.9-2.5,10c-0.2,3.2,0.2,6.2,1.1,8.8c1,2.7,2.5,5.1,4.7,7.2c2.1,2,4.7,3.7,7.7,5c3.1,1.3,6.1,1.9,9,1.9l0.1,0
		c2.9,0,5.6-0.6,8.3-1.9c2.5-1.2,4.9-3,7-5.5c2.1-2.4,3.9-5.4,5.3-8.9c1.4-3.5,2.3-6.9,2.5-10c0.2-3.2-0.2-6.2-1.1-8.9
		c-1-2.7-2.5-5-4.6-7.1c-2.1-2-4.7-3.7-7.8-5c-3-1.2-6-1.9-8.9-1.9L504.9,115.7L504.9,115.7z M503.6,156.3c-1.6,0-3.2-0.3-5-1.1
		c-3.6-1.5-5.9-3.9-7-7.2c-1.1-3.4-0.6-7.6,1.4-12.6c2-4.9,4.6-8.2,7.8-9.9c1.6-0.9,3.3-1.3,5.1-1.3c1.6,0,3.3,0.4,5,1.1
		c3.6,1.5,5.9,3.9,7,7.2c1.1,3.4,0.6,7.7-1.4,12.6c-2,4.9-4.7,8.3-7.9,9.9C507,155.8,505.3,156.3,503.6,156.3L503.6,156.3z"/>
	<path class="st3" d="M585,201.2c2-2.5,3-5.1,3-7.9c-0.1-2.4-0.8-4.6-2.3-6.8c1.6,0.2,3.1,0.1,4.5-0.3c1.9-0.5,3.5-1.6,4.9-3.3
		c1.2-1.5,2-3.1,2.3-4.7c0.3-1.6,0.1-3.3-0.7-5.1c-0.7-1.6-1.6-3-2.7-4.2c-1.1-1.2-2.9-2.9-5.4-4.9l-10.5-8.6l-28.6,34.9l12.5,10.3
		c2.4,2,4.6,3.4,6.5,4.2c1.9,0.9,4,1.3,6.2,1.4c0.1,0,0.2,0,0.3,0c1.7,0,3.5-0.4,5.1-1.1C581.9,204.3,583.6,203,585,201.2z
		 M579.7,164.8l4.9,4c1.5,1.2,2.7,2.3,3.6,3.2c0.9,0.9,1.5,1.8,1.8,2.7c0.3,0.7,0.3,1.4,0.2,2.1c-0.2,0.7-0.6,1.4-1.2,2.2
		c-0.8,0.9-1.5,1.6-2.4,2c-0.8,0.4-1.6,0.6-2.6,0.5c-1-0.1-2-0.4-2.8-0.9c-0.9-0.5-2.1-1.4-3.5-2.5l-5.3-4.4L579.7,164.8z
		 M576.4,199c-0.9,0.4-2,0.5-3.2,0.4c-1.2-0.1-2.4-0.6-3.8-1.3c-1.4-0.8-3.1-2-5-3.6l-5.5-4.5l9.6-11.7l6.6,5.4
		c1.5,1.2,2.7,2.3,3.6,3.2c0.9,0.9,1.5,1.8,1.9,2.7c0.6,1.3,0.7,2.5,0.5,3.5c-0.2,1-0.9,2.2-1.9,3.5
		C578.3,197.9,577.3,198.6,576.4,199z"/>
	<path class="st4" d="M578.1,155.4l10.5,8.6c2.5,2,4.3,3.7,5.4,4.9c1.1,1.2,2,2.7,2.7,4.2c0.8,1.8,1,3.5,0.7,5.1
		c-0.3,1.6-1.1,3.2-2.3,4.7c-1.4,1.7-3.1,2.8-4.9,3.3c-0.9,0.2-1.9,0.4-2.9,0.4c-0.5,0-1.1,0-1.6-0.1c1.5,2.2,2.2,4.4,2.3,6.8
		c0.1,2.8-0.9,5.4-3,7.9c-1.4,1.8-3.1,3.1-4.9,3.9c-1.7,0.8-3.4,1.1-5.1,1.1c-0.1,0-0.2,0-0.3,0c-2.2,0-4.3-0.5-6.2-1.4
		c-1.9-0.8-4.1-2.3-6.5-4.2l-12.5-10.3L578.1,155.4 M584.7,181.4c0.7,0,1.4-0.2,2-0.5c0.8-0.4,1.6-1.1,2.4-2c0.6-0.7,1-1.5,1.2-2.2
		c0.2-0.7,0.1-1.3-0.2-2.1c-0.3-0.9-1-1.8-1.8-2.7c-0.9-0.9-2.1-2-3.6-3.2l-4.9-4l-7.2,8.8l5.3,4.4c1.4,1.1,2.5,2,3.5,2.5
		c0.9,0.5,1.8,0.8,2.8,0.9C584.3,181.4,584.5,181.4,584.7,181.4 M573.9,199.5c0.9,0,1.8-0.2,2.5-0.5c0.9-0.4,1.9-1.2,2.8-2.3
		c1.1-1.3,1.7-2.5,1.9-3.5c0.2-1,0-2.2-0.5-3.5c-0.4-0.9-1-1.8-1.9-2.7c-0.9-0.9-2.1-2-3.6-3.2l-6.6-5.4l-9.6,11.7l5.5,4.5
		c1.9,1.6,3.6,2.8,5,3.6c1.3,0.8,2.6,1.2,3.8,1.3C573.4,199.5,573.7,199.5,573.9,199.5 M578,154l-0.6,0.8l-28.6,34.9l-0.6,0.8
		l0.8,0.6l12.5,10.3c2.5,2,4.7,3.5,6.7,4.4c2.1,0.9,4.3,1.4,6.6,1.4c0.1,0,0.2,0,0.4,0c1.9,0,3.7-0.4,5.5-1.2
		c1.9-0.9,3.7-2.3,5.2-4.1c2.2-2.7,3.2-5.5,3.2-8.5c0-1.9-0.5-3.8-1.5-5.7c1,0,2-0.2,3-0.4c2.1-0.5,3.9-1.8,5.5-3.6
		c1.3-1.6,2.2-3.4,2.5-5.1c0.3-1.8,0.1-3.7-0.7-5.7c-0.7-1.7-1.7-3.2-2.9-4.5c-1.1-1.2-3-2.9-5.5-5l-10.5-8.6L578,154L578,154z
		 M573.8,173.4l6-7.3l4.1,3.4c1.5,1.2,2.7,2.3,3.5,3.1c0.8,0.8,1.3,1.5,1.6,2.3c0.2,0.5,0.3,1,0.1,1.5c-0.1,0.5-0.5,1.1-1,1.8
		c-0.7,0.8-1.4,1.4-2.1,1.8c-0.5,0.2-1,0.4-1.5,0.4c-0.2,0-0.3,0-0.5,0c-0.9-0.1-1.7-0.4-2.4-0.8c-0.9-0.5-2-1.3-3.3-2.4
		L573.8,173.4L573.8,173.4z M560.3,189.9l8.3-10.1l5.8,4.8c1.4,1.2,2.6,2.2,3.5,3.2c0.8,0.8,1.4,1.6,1.7,2.4
		c0.5,1.1,0.6,2.1,0.5,2.9c-0.2,0.9-0.8,1.9-1.7,3.1c-0.8,1-1.6,1.7-2.4,2c-0.6,0.3-1.3,0.4-2.1,0.4c-0.2,0-0.4,0-0.6,0
		c-1-0.1-2.1-0.5-3.3-1.2c-1.3-0.8-3-2-4.9-3.5L560.3,189.9L560.3,189.9z"/>
	<path class="st3" d="M650.6,448.7c-0.6,3-0.8,5.6-0.7,7.7c0.2,2.1,0.7,4.2,1.7,6.1c0.8,1.7,2,3.1,3.6,4.3c1.5,1.2,3.5,2,5.7,2.5
		c3.1,0.6,5.9,0.2,8.3-1.1c2.1-1.2,3.7-2.9,4.9-5.2c0.6,1.5,1.4,2.8,2.4,3.9c1.3,1.4,3.1,2.4,5.2,2.8c0.8,0.2,1.6,0.2,2.4,0.2
		c1,0,2-0.1,2.8-0.4c1.6-0.5,3-1.5,4.2-3c1.1-1.3,1.9-2.8,2.4-4.4c0.5-1.5,1.1-3.9,1.8-7.1l2.7-13.4l-44.3-8.8L650.6,448.7z
		 M678,451.9l1.3-6.8l11.2,2.2l-1.2,6.2c-0.4,1.9-0.7,3.5-1.1,4.7c-0.3,1.2-0.8,2.1-1.5,2.9c-0.5,0.6-1.1,1-1.7,1.1
		c-0.7,0.2-1.5,0.2-2.5,0c-1.2-0.2-2.2-0.6-2.9-1.1c-0.7-0.5-1.3-1.2-1.6-2.1c-0.4-0.9-0.5-1.9-0.5-2.9
		C677.5,455.1,677.6,453.6,678,451.9z M657.1,447.9l1.4-7l14.8,2.9l-1.7,8.4c-0.4,1.9-0.8,3.4-1.2,4.7c-0.4,1.2-0.9,2.2-1.5,3
		c-0.9,1.1-1.9,1.8-2.8,2.1c-1,0.3-2.4,0.3-4-0.1c-1.4-0.3-2.5-0.7-3.3-1.4c-0.8-0.6-1.4-1.5-1.9-2.6c-0.5-1.1-0.7-2.4-0.6-3.9
		C656.3,452.5,656.6,450.4,657.1,447.9z"/>
	<path class="st4" d="M653.7,432.8l44.3,8.8l-2.7,13.4c-0.6,3.2-1.2,5.5-1.8,7.1c-0.6,1.6-1.4,3-2.4,4.4c-1.2,1.5-2.6,2.5-4.2,3
		c-0.9,0.3-1.8,0.4-2.8,0.4c0,0,0,0,0,0c-0.8,0-1.5-0.1-2.4-0.2c-2.2-0.4-3.9-1.4-5.2-2.8c-1-1.1-1.8-2.4-2.4-3.9
		c-1.2,2.3-2.8,4.1-4.9,5.2c-1.7,0.9-3.5,1.4-5.5,1.4c-0.9,0-1.9-0.1-2.8-0.3c-2.2-0.4-4.1-1.3-5.7-2.5c-1.5-1.2-2.8-2.6-3.6-4.3
		c-1-1.9-1.6-4-1.7-6.1c-0.2-2.1,0.1-4.7,0.7-7.7L653.7,432.8 M664.4,462.3c0.6,0,1.2-0.1,1.7-0.2c1-0.3,1.9-1,2.8-2.1
		c0.6-0.8,1.1-1.8,1.5-3c0.4-1.3,0.8-2.8,1.2-4.7l1.7-8.4l-14.8-2.9l-1.4,7c-0.5,2.5-0.8,4.5-0.8,6.1c-0.1,1.6,0.1,2.9,0.6,3.9
		c0.5,1.1,1.1,2,1.9,2.6c0.8,0.6,1.9,1.1,3.3,1.4C663,462.2,663.8,462.3,664.4,462.3 M683.8,462.4c0.4,0,0.8,0,1.1-0.1
		c0.7-0.2,1.2-0.6,1.7-1.1c0.6-0.7,1.1-1.7,1.5-2.9c0.4-1.2,0.7-2.8,1.1-4.7l1.2-6.2l-11.2-2.2l-1.3,6.8c-0.3,1.8-0.5,3.2-0.5,4.2
		c0,1,0.2,2,0.5,2.9c0.4,0.9,0.9,1.6,1.6,2.1c0.8,0.5,1.8,0.9,2.9,1.1C683,462.3,683.4,462.4,683.8,462.4 M653,431.6l-0.2,1
		l-3.2,15.9c-0.6,3.1-0.8,5.8-0.7,8c0.2,2.3,0.8,4.4,1.8,6.5c0.9,1.8,2.2,3.3,3.9,4.6c1.7,1.3,3.7,2.2,6.1,2.6c1,0.2,2.1,0.3,3,0.3
		c2.2,0,4.2-0.5,6-1.5c1.7-1,3.1-2.3,4.3-4c0.5,0.9,1.1,1.7,1.8,2.4c1.5,1.6,3.4,2.6,5.8,3.1c0.9,0.2,1.7,0.3,2.6,0.3c0,0,0,0,0,0
		c1.1,0,2.2-0.2,3.1-0.5c1.7-0.6,3.3-1.7,4.7-3.3c1.1-1.4,2-3,2.6-4.7c0.6-1.6,1.2-4,1.8-7.2l2.7-13.4l0.2-1l-1-0.2l-44.3-8.8
		L653,431.6L653,431.6z M664.4,461.3c-0.6,0-1.3-0.1-2.1-0.2c-1.3-0.2-2.2-0.6-2.9-1.2c-0.6-0.5-1.2-1.3-1.6-2.3
		c-0.4-0.9-0.6-2.1-0.5-3.5c0.1-1.6,0.3-3.6,0.8-6l1.2-6l12.8,2.5l-1.5,7.4c-0.4,1.8-0.7,3.4-1.1,4.6c-0.3,1.1-0.8,2-1.3,2.7
		c-0.8,0.9-1.5,1.5-2.3,1.8C665.4,461.2,665,461.3,664.4,461.3L664.4,461.3z M683.8,461.3c-0.3,0-0.7,0-1.1-0.1
		c-1-0.2-1.9-0.5-2.6-1c-0.6-0.4-1-0.9-1.2-1.6c-0.3-0.8-0.5-1.7-0.5-2.5c0-1,0.2-2.4,0.5-4.1l1.1-5.8l9.2,1.8l-1,5.2
		c-0.4,1.9-0.7,3.4-1.1,4.6c-0.3,1-0.7,1.9-1.3,2.5c-0.4,0.4-0.8,0.7-1.2,0.8C684.5,461.3,684.2,461.3,683.8,461.3L683.8,461.3z"/>
</g>
</svg>
