<?xml version="1.0" encoding="utf-8"?>
<!-- Generator: Adobe Illustrator 22.1.0, SVG Export Plug-In . SVG Version: 6.00 Build 0)  -->
<svg version="1.1" id="图层_1" xmlns="http://www.w3.org/2000/svg" xmlns:xlink="http://www.w3.org/1999/xlink" x="0px" y="0px"
	 viewBox="0 0 800 800" style="enable-background:new 0 0 800 800;" xml:space="preserve">
<style type="text/css">
	.st0{fill:#E05D26;}
	.st1{fill-rule:evenodd;clip-rule:evenodd;fill:#E05D26;}
</style>
<g>
	<path class="st0" d="M448.6,386.2c4.5,0,8.2,3.6,8.2,8.1c0,4.5-3.7,8.1-8.2,8.1c-4.5,0-8.2-3.6-8.2-8.1
		C440.5,389.9,444.1,386.2,448.6,386.2"/>
	<path class="st0" d="M448.6,379.3c-8.3,0-15.1,6.7-15.1,15c0,8.3,6.8,15,15.1,15c8.4,0,15.1-6.7,15.1-15
		C463.7,386.1,457,379.3,448.6,379.3z M448.6,404.6c-5.7,0-10.3-4.6-10.3-10.3c0-5.7,4.6-10.3,10.3-10.3c5.7,0,10.3,4.6,10.3,10.3
		C458.9,400,454.3,404.6,448.6,404.6z"/>
	<path class="st0" d="M486,351.1c-1.9-2.8-6.8-9-12-11.4c-5.1-2.4-13.5-4.4-24.7-2.1c-11.2,2.4-29.3,8.5-33.5,11.1
		c-4.3,2.6-8.7,2.1-11.6,0.3c-2.3-1.4-4.3-5.7-4.3-5.7c-0.1,0.1-2.4,4.1-4.8,5.7c-2.8,1.9-7.4,2.4-11.6-0.3
		c-4.3-2.6-22.4-8.7-33.5-11.1c-11.2-2.4-19.6-0.4-24.7,2c-5.1,2.3-10.2,8.1-12.1,11c-1.9,2.8-1.9,3.7-1.9,3.7l0,37.8
		c0,0,1.4,4.9,4.4,10.9c3,6.1,13.4,20.5,21.3,29.9c7.9,9.4,15,16.2,20.4,21.4c5.4,5.2,16.1,11.2,17.7,20.5
		c1.6,9.3,1.1,18.7-7.3,25.1c-3.7,2.8-7.1,5-10.5,6.6c0,0,13.5,2.6,13.5,19.5c0,16.2,0,38.4,0,40c-2.2-0.7-4.3-1.5-6.3-2.3
		c9.9,5.4,21.6,8.7,35.5,8.7c14.6,0,26.9-3.7,37.1-9.7c-2.6,1.2-5.3,2.3-8.1,3.2c0-2.2,0-23.9,0-39.9c0-16.8,13.5-19.5,13.5-19.5
		c-3.4-1.6-6.9-3.8-10.5-6.6c-8.4-6.4-8.9-15.8-7.3-25.1c1.6-9.2,12.3-15.3,17.7-20.5c5.4-5.2,12.5-11.9,20.4-21.4
		c7.9-9.4,18.2-23.8,21.3-29.9c3-6,5.2-11.2,5.2-11.2v-35.5C488.9,356.3,487.9,354,486,351.1z M385.4,362.4
		c5.8,5.6,15.6,4.8,15.6,4.8c2.6-0.1,8.4-0.5,12.8-4.8c6.7-6.5,9.2-9.6,11.6-9.7c0,0-6,5.9-8.3,9.6c-2.4,3.6-8,11.9-13.6,12.3
		c-0.7,0.1-1.5,0.3-2.9,0.3c0,0-2.4,0.3-4.8-0.3c-5.5-1.2-11.3-8.7-13.6-12.3c-2.4-3.6-8.3-9.6-8.3-9.6
		C376.2,352.9,378.7,355.9,385.4,362.4z M394.9,390.4c-0.2-5.6,2-5.9,4.3-6c2.2,0,2.1,0.1,2.1,0.1c2.7,0.4,2.9,2.2,2.9,4.9
		c0,6.9,0,20.4,0,20.4s0.3,2.8-2.1,3.9l-2.3,0.3c-5.6,0.1-4.6-4.3-4.6-4.3S395,397.4,394.9,390.4z M336.3,418l-2.4-4.3
		c0,0,20.1,17.1,30.6,21.8c0,0,1.6,13.3,5.6,16.6C370.2,452.1,351.5,437.1,336.3,418z M367.6,410.5c-2.6,2.7-6.4,4.1-10.8,4.1
		c-8.2,0-18.4-4.5-27.1-12.8c-13.4-12.7-18.3-29.4-10.8-37.2c2.6-2.7,6.4-4.1,10.8-4.1c8.2,0,18.4,4.5,27.2,12.8
		C370.2,386,375,402.6,367.6,410.5z M359.3,362.2c-15.1-13.2-34-14.4-38-13.6c0,0,2.4-1.2,3.6-1.5c1.2-0.2,63.1-11.9,61.2,66.9
		C386,414,377.1,377.9,359.3,362.2z M395.1,570.5c-4.6-0.3-9-0.9-13.1-1.7v-46.9c0,0,11.1,11.8,13.1,38.1V570.5z M417.2,568.7
		c-4.1,0.8-8.5,1.4-13.1,1.7v-10.5c2-26.3,13.1-38.1,13.1-38.1V568.7z M415.3,461c-2.9,4-7.4,9.8-7.3,22.6
		c0.2,11.8,8.7,23.6,8.7,23.6c-5,1.3-15.4,13-15.4,30.7c0,7.2,0.1,32.7,0.1,32.7c-0.5,0-1,0.1-1.5,0.1l0,0l-0.1,0l-0.2,0v0
		c-0.4,0-0.8,0-1.2-0.1c0-1.2-0.1-21.1-0.1-33.9c0.1-21-11-28.5-15.7-29.6c0,0,9.1-12,8.3-23.7c-0.8-11.8-3.9-18.4-6.8-22.4
		c-2.9-4-6.8-8.2-5.2-15.2c1.6-6.9,6.7-9.2,8.9-10c2.1-0.7,9.7-6,11.3-12.4l0.6-2.4l1.5,4.7c2.7,5.8,8.7,9.4,10.4,10
		c2.2,0.8,7.2,3.1,8.9,10C422,452.7,418.2,456.9,415.3,461z M413.3,414c-1.1-78.8,60-67.1,61.2-66.9c1.2,0.3,3.6,1.5,3.6,1.5
		c-4.1-0.8-22.9,0.4-38,13.6C422.1,377.9,413.3,414,413.3,414z M462.9,418c-15.2,19.1-33.9,34.1-33.9,34.1c4-3.3,5.6-16.6,5.6-16.6
		c10.5-4.7,30.6-21.8,30.6-21.8L462.9,418z M469.6,401.8c-8.8,8.3-19,12.8-27.2,12.8c-4.4,0-8.2-1.3-10.8-4.1
		c-7.5-7.9-2.6-24.5,10.8-37.2c8.8-8.3,19-12.8,27.1-12.8c4.4,0,8.1,1.3,10.8,4.1C487.9,372.4,483.1,389.1,469.6,401.8z"/>
	<path class="st1" d="M400,49C206.5,49,49,206.5,49,400c0,193.5,157.5,351,351,351c193.6,0,351-157.5,351-351
		C751,206.5,593.5,49,400,49z M400,736.1C214.7,736.1,63.9,585.3,63.9,400C63.9,214.7,214.7,63.9,400,63.9
		c185.3,0,336.1,150.8,336.1,336.1C736.1,585.3,585.3,736.1,400,736.1z"/>
	<path class="st1" d="M400,139.5c-143.7,0-260.5,116.9-260.5,260.5c0,69.6,27.1,135,76.3,184.2c49.2,49.2,114.6,76.3,184.2,76.3
		c143.7,0,260.5-116.9,260.5-260.5C660.5,256.3,543.7,139.5,400,139.5z M400,645.6c-65.6,0-127.3-25.5-173.7-71.9
		c-46.4-46.4-71.9-108.1-71.9-173.7c0-135.4,110.2-245.6,245.6-245.6c135.4,0,245.6,110.2,245.6,245.6
		C645.6,535.4,535.4,645.6,400,645.6z"/>
	<path class="st1" d="M396.8,183.7c-0.1,0-5.6-3.8-5.6-8.1l0-0.4c0.3-2.9,3.4-5.7,8.8-8.2c5.4,2.5,8.6,5.3,8.8,8.2l0,0.4
		c0,4.3-5.5,8-5.6,8.1l1.4,2.9l9.4-3.4c4.2,0.1,5.8,1.3,6.3,2c0.6,0.8,0.4,1.7,0.4,1.7c-0.1,2.4-0.6,3.8-1.8,4.6
		c-3.5,2.4-11.3,0.3-14-0.7l-3.4-1.3l9,22.6l15-0.9l24-20l-1.8-2.7c-11.9,6.5-14,5.4-14.1,5.3l0-0.2c0-1,1.3-3.8,3.2-6.4l0.6-0.8
		l-0.8-1.5c0.8-2.4,16.6-4.1,35.2-4c-25.9,13.6-32.6,39.9-33.7,45.8c-2.6,0-73.4,0-76,0c-1.2-6-7.9-32.2-33.8-45.8
		c18.6-0.1,34.4,1.7,35.2,4l-0.2,0.4l-0.5,0.9l0.5,1c1.9,2.6,3.1,5.4,3.1,6.4l0,0.2c-0.1,0.1-2.2,1.2-14.1-5.3l-1.8,2.7l24,20
		l15,0.9l9-22.6l-3.4,1.3c-2.7,1-10.6,3.1-14,0.7c-1.2-0.8-1.8-2.2-1.8-4.2c-0.1-0.4-0.3-1.3,0.4-2.1c0.5-0.7,2.2-1.9,6.9-1.9
		l8.9,3.3L396.8,183.7z"/>
	<path class="st1" d="M469.2,598.7c-10.2-1.7-14.2-0.5-21.8-4.6c7.8-4,11.7-8.7,19.4-17.2c8.7-9.6,14.5-15.8,17.7-22.5
		c-2.3,0.9-4.8,1.9-7.5,3c-10.8,4.3-18.4,7.8-22.5,11.9c-7.2,7.3-8.7,13.6-18.3,19.6c0,0-5.2,2.1-25.9,14.3c-3.1,1.8-6.5,4-10.2,6.7
		c-3.7-2.6-7.1-4.8-10.2-6.7c-20.7-12.2-25.9-14.3-25.9-14.3c-9.6-6-11.1-12.3-18.3-19.6c-4.1-4.1-11.7-7.6-22.5-11.9
		c-2.7-1.1-5.2-2.1-7.5-3c3.2,6.7,9,12.9,17.7,22.5c7.7,8.5,11.6,13.1,19.4,17.2c-7.6,4-11.5,2.9-21.8,4.6c-12,2-14,4.8-24.9,1.6
		c-1.4-0.4-3.2-0.7-5.1-1c2.1,2.8,4.8,5.4,8.2,7.8c9.8,6.9,14.5,7.9,26,7.9c19.1,0,12.9-7.8,35.4-7.8c7.6,0,16.6,1.4,25.9,5.4
		c-6.6,4.9-14.2,11.1-22.9,19.1l3.5,0.8c7.6-8.4,15.5-14.1,23.3-18c7.7,3.9,15.6,9.6,23.2,18l3.5-0.8c-8.7-7.9-16.3-14.1-22.9-19.1
		c9.3-4.1,18.2-5.4,25.9-5.4c22.5,0,16.3,7.8,35.4,7.8c11.6,0,16.3-1.1,26-7.9c3.4-2.4,6.1-5,8.2-7.8c-1.9,0.3-3.7,0.6-5.1,1
		C483.1,603.5,481.2,600.8,469.2,598.7z"/>
	<path class="st1" d="M484.1,580.6c5.8-4.5,9.5-10.1,15.7-20.9c6.1-10.6,11-17.1,12.4-25c-2.6,1.4-5.3,3-8.1,5
		c-9,6.4-15.9,11.4-17.7,14.6c-5.3,9.1-7.6,16.5-11.8,21c-6.4,6.7-9.1,5.7-13.1,12.3c1.8-0.4,3.5-0.7,4.6-0.7
		c7.6,0,16,11.6,30.6,11.6c7.6,0,18.5-2.5,24.5-6.6c6.8-4.6,11.8-10,14.9-17c-12.3,4.4-8.3,6.1-27.3,6.1
		C497,581.1,492,582.9,484.1,580.6z"/>
	<path class="st1" d="M509.8,567.2c11.6-13,12.9-16,20.4-31.4c4.8-10,6.8-15.2,7.8-18.4c0.9-3,2.6-4,3.7-7.2
		c-4,4.9-8.4,7.7-16.1,15.3c-8.8,8.6-9,12.2-14.1,23.6c-4.6,10.1-8.7,13.6-11.4,24.4c5,0.3,11.1,0.2,17.3,0.2
		c10.2,0,21.9-2.5,28.3-8.2c8.8-8,17-15,22-28.9c-10.9,8.5-23,9.5-39,19.6C519.8,561.5,517.9,566.4,509.8,567.2z"/>
	<path class="st1" d="M551.6,525.9c-4.8,5.6-6.1,8.2-10.9,9.7c0.9-1.2,1.9-2.5,3.3-4.1c3.8-4.3,6.6-14.1,11.5-27.2
		c2.7-7.1,3.8-18.2,5.4-28.4c-2.2,3.1-4.4,6.5-6.9,10.3c-4.1,6.2-7.1,11.3-8.8,15.7c-4.3,11.7-2.6,15.5-5.7,24.6
		c-2.6,7.7-0.4,8.1-5.6,19.2c9.8-5,16.2-4.5,24-8.3c4.7-2.3,12-6.7,16.4-11.9c3.6-4.2,4.3-8.9,6.9-12.2c4.3-5.6,6.9-7.4,9.3-14.6
		c-5.1,3.3-9.5,7.9-17.3,12.7C563.9,517.2,555.5,521.3,551.6,525.9z"/>
	<path class="st1" d="M600.5,463.2c-7.9,7.9-13.1,10.5-18.6,18.2c-4.9,6.9-8.3,14.2-15.2,19.8c4.9-7,7.7-17.8,7.6-35
		c-0.1-12.7-0.5-18-1.3-21.9c-9.7,23.1-8,36-9.4,45.1c-1.1,7.9-1.7,18.9-3.3,23.7c7.9-2.2,10.9-5,15.9-8.6
		c6.7-4.8,11.4-11.9,16.2-17.1c7.8-8.4,13.2-24,16.4-35.9C607,455.7,605.4,458.3,600.5,463.2z"/>
	<path class="st1" d="M580.9,475.8c7-6.8,9.4-13.9,12.5-16.9c5.4-5.2,4.9-8,9.6-20.1c4.8-12.5,5.4-19.5,5.2-25.9
		c-0.2-7.6,1.4-7.1-0.2-13.5c-2.9,5.7-7.4,8.6-11,20.4c-2.1,7-3.5,14.8-7.6,26.2c-2.7,7.3-3.9,10.9-5,13.3c1-12.2,3.5-23.5,0.7-32.5
		c-3.6-11.4-3.7-15-8.5-24.5c-0.2,6.4-1.9,10.8-2.5,19.3c-1,13.2,2.5,18.7,4,29.4C579.4,460.6,581.5,467,580.9,475.8z"/>
	<path class="st1" d="M580.7,399.6c3.7,7.7,7.6,14.2,8.9,26.4c4.3-14.2,8.2-14.5,12.5-36.1c4-19.9-1.1-27.7-3.4-36.1
		c-1.6,6.5-2.6,12.8-3.1,21.6c-0.9,13.6-0.2,17.3-3.3,25.7c-0.8,2.2-1.6,5.8-1.9,8.8c-2.1-11.2,0.1-14.9-4.6-25.1
		c-3.2-6.8-8.1-16.3-11.2-22.7c0,10.9,1.8,13.5,1.8,20.3C576.2,391.7,578.8,395.7,580.7,399.6z"/>
	<path class="st1" d="M591.1,387.5c2.4-15.1,2.3-24-2.1-37.4c-4-12.2-6.9-17.7-11.3-21.5c-0.3,6.6-1.5,14,3.7,34
		C583.8,371.9,585.4,378.4,591.1,387.5z"/>
	<path class="st1" d="M333.9,586.9c1.1,0,2.8,0.3,4.6,0.7c-4.1-6.7-6.7-5.6-13.2-12.3c-4.2-4.4-6.5-11.8-11.8-21
		c-1.9-3.3-8.8-8.2-17.8-14.6c-2.8-2.1-5.5-3.6-8.1-5c1.4,7.9,6.3,14.4,12.4,25c6.3,10.8,9.9,16.3,15.7,20.9
		c-7.9,2.3-12.9,0.5-24.7,0.5c-19.1,0-15.1-1.7-27.3-6.1c3.1,7,8.2,12.3,14.9,17c6,4.1,17,6.6,24.5,6.6
		C317.9,598.6,326.3,586.9,333.9,586.9z"/>
	<path class="st1" d="M300,573.5c-2.8-10.8-6.8-14.3-11.4-24.4c-5.2-11.4-5.3-15-14.1-23.6c-7.7-7.6-12.1-10.5-16.2-15.3
		c1.1,3.2,2.9,4.2,3.7,7.2c1,3.2,2.9,8.4,7.8,18.4c7.5,15.4,8.8,18.4,20.4,31.4c-8-0.8-10-5.7-18.7-11.1c-16.1-10-28.1-11.1-39-19.6
		c5,13.9,13.1,20.8,22,28.9c6.3,5.7,18.1,8.2,28.3,8.2C288.9,573.7,295.1,573.8,300,573.5z"/>
	<path class="st1" d="M266,545.6c-5.1-11.1-2.9-11.4-5.5-19.2c-3.1-9.1-1.4-12.9-5.7-24.6c-1.6-4.4-4.7-9.5-8.8-15.7
		c-2.5-3.8-4.7-7.2-6.9-10.3c1.5,10.2,2.6,21.3,5.3,28.4c5,13.1,7.7,22.9,11.5,27.2c1.4,1.6,2.5,2.9,3.3,4.1
		c-4.8-1.4-6.1-4-10.9-9.7c-4-4.7-12.4-8.8-21.7-14.6c-7.7-4.8-12.2-9.5-17.3-12.7c2.4,7.3,5,9,9.3,14.6c2.5,3.3,3.3,8.1,6.9,12.2
		c4.4,5.2,11.7,9.6,16.4,11.9C249.8,541.1,256.2,540.6,266,545.6z"/>
	<path class="st1" d="M223.8,504.7c5,3.6,8,6.4,15.9,8.6c-1.6-4.8-2.2-15.8-3.3-23.7c-1.3-9.2,0.4-22-9.4-45.1
		c-0.8,3.8-1.2,9.1-1.3,21.9c-0.1,17.2,2.6,28,7.6,35c-6.9-5.6-10.3-12.9-15.2-19.8c-5.5-7.8-10.7-10.3-18.6-18.2
		c-4.9-4.9-6.5-7.5-8.3-11.4c3.2,11.8,8.6,27.5,16.4,35.9C212.4,492.9,217.1,499.9,223.8,504.7z"/>
	<path class="st1" d="M191.7,412.9c-0.2,6.4,0.3,13.4,5.2,25.9c4.7,12.1,4.3,15,9.7,20.1c3,3,5.5,10.1,12.5,16.9
		c-0.6-8.8,1.6-15.2,2.9-24.7c1.5-10.8,5-16.2,4-29.4c-0.7-8.5-2.4-12.9-2.5-19.3c-4.8,9.4-4.9,13-8.5,24.5
		c-2.8,8.9-0.3,20.2,0.7,32.5c-1.1-2.5-2.4-6.1-5-13.3c-4.1-11.4-5.4-19.2-7.6-26.2c-3.6-11.9-8.2-14.7-11-20.4
		C190.3,405.8,191.9,405.3,191.7,412.9z"/>
	<path class="st1" d="M210.5,426.1c1.2-12.2,5.1-18.7,8.9-26.4c1.9-3.9,4.5-7.9,4.5-17.1c0-6.7,1.8-9.3,1.8-20.3
		c-3.1,6.4-8,15.9-11.3,22.7c-4.8,10.2-2.5,13.9-4.6,25.1c-0.4-3-1.1-6.6-1.9-8.8c-3.1-8.4-2.4-12.1-3.3-25.7
		c-0.5-8.8-1.6-15.1-3.1-21.6c-2.3,8.3-7.4,16.1-3.4,36.1C202.2,411.5,206.1,411.9,210.5,426.1z"/>
	<path class="st1" d="M218.6,362.6c5.2-20,4-27.3,3.7-34c-4.4,3.8-7.3,9.3-11.3,21.5c-4.4,13.4-4.5,22.2-2.1,37.4
		C214.6,378.4,216.2,371.9,218.6,362.6z"/>
	<path class="st0" d="M243.6,627.8L232.8,643l7.1,5c1.6,1.2,3.1,1.6,4.3,1.5c1.2-0.2,2.8-1.3,4.5-3.2l1,0.7l-9.3,13.1l-1-0.7
		c1-1.5,1.6-2.8,1.7-3.7c0.1-1,0-1.9-0.4-2.7c-0.4-0.8-1.3-1.7-2.6-2.6l-7.1-5l-8.6,12.2c-1.4,2-2.2,3.4-2.3,4.2
		c-0.1,0.6,0,1.3,0.3,2.1c0.5,1,1.2,1.9,2.1,2.5l1.4,1l-0.8,1.1l-16.6-11.7l0.8-1.1l1.3,1c1.6,1.1,3.1,1.5,4.5,1.1
		c0.9-0.3,2.2-1.6,3.8-3.9l17.7-25c1.4-2,2.2-3.4,2.4-4.2c0.1-0.6,0-1.3-0.3-2c-0.5-1-1.2-1.9-2.1-2.6l-1.3-1l0.8-1.1l28.8,20.4
		l-5.7,8.8l-1-0.7c0.8-2.1,1.1-3.9,1.1-5.2c0-1.3-0.4-2.5-1.1-3.6c-0.7-1.1-2.1-2.3-4.1-3.7L243.6,627.8z"/>
	<path class="st0" d="M310.7,664.5l-6.7,14.8l-1-0.5c1-5,0.9-9-0.5-12.2c-1.4-3.1-3.7-5.6-7-7.4c-2.8-1.5-5.7-2.1-8.7-1.9
		c-3,0.2-6,1.5-8.9,3.9c-3,2.4-5.7,5.9-8.1,10.5c-2,3.8-3.2,7.4-3.5,10.8c-0.3,3.4,0.4,6.5,2,9.3c1.6,2.8,4,5,7.1,6.7
		c2.7,1.5,5.4,2.2,8.1,2.1c2.7-0.1,6.2-1.1,10.6-3.2l0.6,1.1c-4.1,2.6-8,4-11.7,4.2c-3.7,0.2-7.5-0.7-11.3-2.8
		c-6.9-3.7-10.9-9.2-11.9-16.4c-0.8-5.4,0.2-10.6,3-15.8c2.2-4.2,5.2-7.5,9-10c3.7-2.5,7.8-3.8,12.1-4c4.3-0.2,8.4,0.8,12.3,2.9
		c3,1.6,5.6,4,7.7,7c0.6,0.9,1.1,1.5,1.5,1.7l1.8,0.2c0.8-0.3,1.6-0.9,2.4-1.7L310.7,664.5z"/>
	<path class="st0" d="M378.5,724.8l-12.5-1.9l-12.5-24.4c-1.2-0.2-2.1-0.3-2.9-0.4l-0.9-0.2l-1.1-0.2l-2.1,13.6
		c-0.5,3-0.4,4.8,0.1,5.6c0.7,1.1,2,1.8,3.7,2.1l1.8,0.3l-0.2,1.3l-20.1-3.1l0.2-1.3l1.8,0.3c2,0.3,3.5-0.1,4.5-1.3
		c0.6-0.6,1.1-2.3,1.5-5l4.7-30.3c0.4-3,0.4-4.8-0.1-5.6c-0.8-1.2-2-1.9-3.8-2.2l-1.8-0.3l0.2-1.3l17.1,2.6c5,0.8,8.6,1.7,10.9,2.8
		c2.3,1.1,4.1,2.7,5.4,4.9c1.4,2.2,1.8,4.7,1.4,7.4c-0.4,2.9-1.8,5.3-4,7.1c-2.2,1.8-5.4,2.9-9.4,3.2l7.6,14.9
		c1.8,3.5,3.4,5.8,4.8,7.1c1.4,1.3,3.4,2.2,5.9,2.9L378.5,724.8L378.5,724.8z M348.9,695.5L348.9,695.5l1.1,0.2l0.8,0.1
		c4.5,0.7,8,0.2,10.6-1.4c2.6-1.6,4.1-3.9,4.6-6.9c0.4-2.9-0.1-5.4-1.7-7.6c-1.6-2.1-3.9-3.4-6.9-3.9c-1.3-0.2-3.2-0.3-5.5-0.2
		L348.9,695.5z"/>
	<path class="st0" d="M401.8,680.5l1,18.7l10.4-0.6c2.7-0.2,4.5-0.7,5.4-1.5c1.2-1.1,1.7-3.1,1.7-5.8l1.3-0.1l0.9,16.5l-1.3,0.1
		c-0.5-2.3-0.9-3.8-1.3-4.4c-0.5-0.8-1.2-1.4-2.1-1.8c-1-0.4-2.5-0.6-4.5-0.4l-10.4,0.6l0.9,15.6c0.1,2.1,0.3,3.4,0.5,3.8l1,1
		c0.5,0.2,1.4,0.3,2.7,0.2l8-0.4c2.7-0.2,4.6-0.4,5.8-0.9c1.2-0.4,2.3-1.2,3.4-2.4c1.4-1.5,2.7-3.8,4.1-6.8l1.4-0.1l-3.4,12.1
		l-36.5,2l-0.1-1.3l1.6-0.1c1.1-0.1,2.2-0.4,3.2-1c0.7-0.4,1.2-1,1.4-1.8c0.2-0.8,0.3-2.3,0.2-4.6l-1.7-30.8c-0.2-3-0.6-4.8-1.2-5.5
		c-0.9-0.9-2.3-1.3-4.3-1.2l-1.6,0.1l-0.1-1.3l36.5-2l1.1,10.4l-1.3,0.1c-0.6-2.5-1.3-4.2-1.9-5.1c-0.6-0.9-1.6-1.6-2.7-2
		c-1-0.3-2.6-0.4-5-0.2L401.8,680.5z"/>
	<path class="st0" d="M432.2,676.5l12.6-2.8l36,28.6l-5.8-26.7c-0.6-2.9-1.3-4.6-2.2-5.2c-1-0.8-2.5-1-4.3-0.6l-1.6,0.4l-0.3-1.3
		l16.2-3.5l0.3,1.3l-1.6,0.4c-2,0.4-3.3,1.3-3.8,2.7c-0.3,0.8-0.2,2.6,0.4,5.2l8.5,39.1l-1.2,0.3l-38.8-30.7l6.2,28.6
		c0.6,2.8,1.3,4.5,2.1,5.1c1.1,0.8,2.5,1,4.3,0.6l1.7-0.4l0.3,1.3l-16.1,3.5l-0.3-1.3l1.6-0.3c2-0.4,3.3-1.3,3.8-2.7
		c0.4-0.8,0.2-2.5-0.3-5.1l-7-32.3c-1.7-1.3-2.9-2.1-3.7-2.5c-0.8-0.3-1.9-0.6-3.4-0.8c-0.7,0-1.7,0.1-3.1,0.4L432.2,676.5z"/>
	<path class="st0" d="M507.4,678.8l20.2-8.9l-5.5-12.5c-1-2.2-1.7-3.6-2.3-4.2c-0.4-0.4-1.1-0.7-2-0.8c-1.2-0.1-2.3,0-3.3,0.5
		l-1.6,0.7l-0.5-1.2l18.6-8.2l0.5,1.2l-1.6,0.7c-1,0.5-1.9,1.1-2.6,2c-0.5,0.6-0.8,1.4-0.7,2.2c0.1,0.8,0.6,2.3,1.5,4.4l12.4,28
		c1,2.2,1.7,3.6,2.3,4.2c0.4,0.4,1.1,0.7,1.9,0.8c1.2,0.1,2.3-0.1,3.3-0.5l1.5-0.7l0.5,1.2l-18.6,8.2l-0.5-1.2l1.5-0.7
		c1.8-0.8,2.8-1.9,3.2-3.3c0.2-0.9-0.2-2.7-1.4-5.3l-5.9-13.2l-20.2,8.9l5.9,13.2c1,2.2,1.7,3.6,2.3,4.2c0.5,0.4,1.1,0.7,2,0.8
		c1.1,0.1,2.2-0.1,3.2-0.5l1.6-0.7l0.5,1.2l-18.6,8.2l-0.5-1.2l1.5-0.7c1.8-0.8,2.8-1.9,3.2-3.3c0.2-0.9-0.3-2.7-1.4-5.3l-12.4-28
		c-1-2.2-1.7-3.6-2.3-4.2c-0.4-0.4-1.1-0.7-1.9-0.8c-1.2-0.1-2.3,0.1-3.3,0.5l-1.5,0.7l-0.5-1.2l18.6-8.2l0.5,1.2l-1.6,0.7
		c-1,0.4-1.9,1.1-2.6,2c-0.5,0.6-0.7,1.4-0.7,2.2c0.1,0.8,0.5,2.3,1.5,4.4L507.4,678.8z"/>
	<path class="st0" d="M548.4,633.6l11,15.2l8.4-6.1c2.2-1.6,3.4-3,3.7-4.2c0.4-1.6-0.2-3.5-1.7-5.8l1.1-0.8l9.7,13.4l-1.1,0.8
		c-1.6-1.7-2.8-2.7-3.4-3c-0.8-0.4-1.8-0.6-2.8-0.4c-1,0.2-2.4,0.9-4,2l-8.4,6.1l9.2,12.7c1.2,1.7,2.1,2.7,2.5,3l1.4,0.3
		c0.5-0.1,1.3-0.5,2.4-1.3l6.5-4.7c2.2-1.6,3.6-2.9,4.4-3.9c0.8-1,1.3-2.3,1.6-3.8c0.3-2,0.2-4.7-0.2-7.9l1.1-0.8l3.7,12.1
		l-29.7,21.4l-0.8-1l1.3-1c0.9-0.7,1.6-1.5,2.1-2.5c0.4-0.7,0.4-1.5,0.2-2.3c-0.2-0.8-1-2.1-2.3-3.9l-18.1-25c-1.8-2.4-3.1-3.8-4-4
		c-1.2-0.3-2.7,0.2-4.2,1.3l-1.3,1l-0.8-1.1l29.6-21.4l6.5,8.1l-1.1,0.8c-1.9-1.7-3.3-2.8-4.4-3.2c-1-0.4-2.2-0.5-3.4-0.2
		c-1,0.3-2.4,1.1-4.3,2.5L548.4,633.6z"/>
	<path class="st0" d="M407.6,440.8c-3.5-1.4-7.1,2.6-8,3.7c-0.9-1.1-4.4-5.1-8-3.7c-4,1.6-6.2,4.8-5.2,8.9c1,4,5.1,5.9,6.6,7.1
		c1.8,1.4,5,5.1,6.4,8.3l0.2,0.6l0.5-1.3c1.6-3.2,5-6.7,6.5-8c1.5-1.2,5.1-2.6,6.1-6.7C413.8,445.6,411.7,442.4,407.6,440.8z"/>
	<path class="st0" d="M406.3,504.2c0,0-6.5-4.7-6.5-17.7c-0.1-1.5-0.4-1.4-0.4,0c0,13.4-6.5,17.7-6.5,17.7c3.1,1.6,5.5,6.5,6.5,8.6
		l0.2,0.5l0.4-0.9C401.1,510.1,403.4,505.8,406.3,504.2z"/>
	<path class="st0" d="M461,509.7c6.7-1,13.6-4.5,18.1-8.2c-1,4.1-3.8,13.4-10.2,23.4C468.5,518.7,465.5,513.2,461,509.7z"/>
	<path class="st0" d="M448.1,545.9c-3.4,2.3-7.2,4.4-11.4,6.2v-9.9C439.9,544.5,443.9,545.8,448.1,545.9z"/>
	<path class="st0" d="M338.3,509.7c-6.6-1-13.6-4.5-18.1-8.2c1,4.1,3.8,13.4,10.2,23.4C330.7,518.7,333.7,513.2,338.3,509.7z"/>
	<path class="st0" d="M351.2,545.9c3.4,2.3,7.2,4.4,11.4,6.2v-9.9C359.3,544.5,355.4,545.8,351.2,545.9z"/>
	<path class="st0" d="M331,347.6c0,0,44.8-6.1,54.3,59.6c0,0-13-53.9-49.2-58.6L331,347.6z"/>
	<path class="st0" d="M468.3,347.6c0,0-44.8-6.1-54.4,59.6c0,0,13-53.9,49.2-58.6L468.3,347.6z"/>
	<path class="st0" d="M407.6,440.8c-3.5-1.4-7.1,2.6-8,3.7c-0.9-1.1-4.4-5.1-8-3.7c-4,1.6-6.2,4.8-5.2,8.9c1,4,5.1,5.9,6.6,7.1
		c1.8,1.4,5,5.1,6.4,8.3l0.2,0.6l0.5-1.3c1.6-3.2,5-6.7,6.5-8c1.5-1.2,5.1-2.6,6.1-6.7C413.8,445.6,411.7,442.4,407.6,440.8z"/>
	<path class="st0" d="M350.8,515.7c-5.5,0-10,4.4-10,10c0,5.5,4.5,10,10,10c5.5,0,10-4.5,10-10C360.8,520.2,356.3,515.7,350.8,515.7
		z M350.8,532.1c-3.6,0-6.5-2.9-6.5-6.4c0-3.6,2.9-6.4,6.5-6.4c3.6,0,6.5,2.9,6.5,6.4C357.2,529.2,354.4,532.1,350.8,532.1z"/>
	<path class="st0" d="M448.5,515.7c-5.5,0-10,4.4-10,10c0,5.5,4.5,10,10,10c5.5,0,10-4.5,10-10C458.5,520.2,454,515.7,448.5,515.7z
		 M448.5,532.1c-3.6,0-6.5-2.9-6.5-6.4c0-3.6,2.9-6.4,6.5-6.4c3.6,0,6.5,2.9,6.5,6.4C454.9,529.2,452,532.1,448.5,532.1z"/>
	<g>
		<path class="st0" d="M333.6,401.2c-11.5-10.9-15.7-25-9.4-31.7c6.3-6.6,20.8-3.2,32.3,7.6c3.5,3.3,6.3,6.9,8.4,10.5
			c-2.3-4.4-5.7-8.7-9.8-12.6c-7.9-7.5-17.7-12.2-25.5-12.2c-3.8,0-6.9,1.1-9,3.3c-2,2.1-2.9,5-2.8,8.6c0.2,7.8,5.4,17.5,13.6,25.2
			c6.1,5.8,13.3,9.8,19.9,11.4C345.5,410,339.2,406.4,333.6,401.2z"/>
		<path class="st0" d="M364.9,409.7c0.2-0.2,0.5-0.4,0.7-0.6C365.3,409.3,365.1,409.5,364.9,409.7z"/>
		<path class="st0" d="M363.8,410.4c0.1-0.1,0.3-0.2,0.4-0.2C364.1,410.2,364,410.3,363.8,410.4z"/>
	</g>
	<g>
		<path class="st0" d="M434.3,409.6c-0.1-0.1-0.2-0.2-0.3-0.3C434.1,409.4,434.2,409.6,434.3,409.6z"/>
		<path class="st0" d="M435.3,410.3c-0.1,0-0.2-0.1-0.2-0.1C435.2,410.3,435.3,410.3,435.3,410.3z"/>
		<path class="st0" d="M478.7,366.2c-2.1-2.2-5.2-3.3-9-3.3c-7.8,0-17.5,4.7-25.5,12.2c-4.1,3.9-7.4,8.2-9.8,12.6
			c2.1-3.6,4.9-7.2,8.4-10.6c11.5-10.9,26-14.3,32.3-7.6c6.3,6.7,2.1,20.8-9.4,31.7c-5.6,5.3-11.9,8.8-17.6,10.3
			c6.5-1.6,13.8-5.6,19.9-11.4c8.1-7.7,13.3-17.3,13.6-25.2C481.6,371.3,480.6,368.3,478.7,366.2z"/>
	</g>
	<path class="st0" d="M350.6,386.2c4.5,0,8.2,3.6,8.2,8.1c0,4.5-3.7,8.1-8.2,8.1c-4.5,0-8.2-3.6-8.2-8.1
		C342.5,389.9,346.1,386.2,350.6,386.2"/>
	<path class="st0" d="M350.6,379.3c-8.3,0-15.1,6.7-15.1,15c0,8.3,6.8,15,15.1,15c8.4,0,15.1-6.7,15.1-15
		C365.7,386.1,359,379.3,350.6,379.3z M350.6,404.6c-5.7,0-10.3-4.6-10.3-10.3c0-5.7,4.6-10.3,10.3-10.3c5.7,0,10.3,4.6,10.3,10.3
		C361,400,356.3,404.6,350.6,404.6z"/>
	<path class="st0" d="M406.3,504.2c0,0-6.5-4.7-6.5-17.7c-0.1-1.5-0.4-1.4-0.4,0c0,13.4-6.5,17.7-6.5,17.7c3.1,1.6,5.5,6.5,6.5,8.6
		l0.2,0.5l0.4-0.9C401.1,510.1,403.4,505.8,406.3,504.2z"/>
	<path class="st0" d="M461,509.7c6.7-1,13.6-4.5,18.1-8.2c-1,4.1-3.8,13.4-10.2,23.4C468.5,518.7,465.5,513.2,461,509.7z"/>
	<path class="st0" d="M338.3,509.7c-6.6-1-13.6-4.5-18.1-8.2c1,4.1,3.8,13.4,10.2,23.4C330.7,518.7,333.7,513.2,338.3,509.7z"/>
	<path class="st0" d="M179.1,587h-1.7c0,5.9-4.8,10.7-10.8,10.7c-5.9,0-10.7-4.8-10.8-10.7c0-5.9,4.8-10.8,10.8-10.8
		c5.9,0,10.8,4.8,10.8,10.8H179.1h1.7c0-7.8-6.3-14.2-14.2-14.2c-7.8,0-14.2,6.3-14.2,14.2c0,7.8,6.3,14.2,14.2,14.2
		c7.8,0,14.2-6.3,14.2-14.2H179.1z"/>
	<path class="st0" d="M160.8,557.3c0,7.6-6.2,13.8-13.8,13.8c-7.6,0-13.8-6.2-13.8-13.8c0-7.6,6.2-13.8,13.8-13.8
		C154.6,543.5,160.8,549.7,160.8,557.3z"/>
	<path class="st0" d="M205.9,614.9c0,7.6-6.2,13.8-13.8,13.8c-7.6,0-13.8-6.2-13.8-13.8c0-7.6,6.2-13.8,13.8-13.8
		C199.8,601,205.9,607.2,205.9,614.9z"/>
	<path class="st0" d="M620.9,587h-1.7c0,7.8,6.3,14.2,14.2,14.2c7.8,0,14.2-6.3,14.2-14.2c0-7.8-6.3-14.2-14.2-14.2
		c-7.8,0-14.2,6.3-14.2,14.2H620.9h1.7c0-5.9,4.8-10.8,10.8-10.8c5.9,0,10.8,4.8,10.8,10.8c0,5.9-4.8,10.7-10.8,10.7
		c-5.9,0-10.7-4.8-10.8-10.7H620.9z"/>
	<path class="st0" d="M638.9,557.3c0,7.8,6.3,14.1,14.1,14.1c7.8,0,14.1-6.3,14.1-14.1c0-7.8-6.3-14.1-14.1-14.1
		C645.2,543.2,638.9,549.5,638.9,557.3z"/>
	<path class="st0" d="M594,614.9c0,7.7,6.2,13.9,13.9,13.9c7.7,0,13.9-6.2,13.9-13.9c0-7.7-6.2-13.9-13.9-13.9
		C600.2,600.9,594,607.2,594,614.9z"/>
	<path class="st0" d="M287.3,267.6v-7.8h13.4v-16.9c6.4-0.2,9.3,0.1,8.8,0.8c0,0.2-0.1,0.5-0.3,1c-0.3,1.2-0.5,2.7-0.5,4.5v50.4
		h-8.1v-10.3c-3.2,1.2-7.6,3.4-13.1,6.6c-0.5-0.8-1.9-3.5-4-8.1c6-1.5,11.8-3.7,17.1-6.6v-13.6H287.3z M314.2,242.4
		c5.9,0,8.9,0.2,9.1,0.5c0,0.2,0,0.4,0,0.8c-0.5,1.3-0.8,2.9-0.8,4.8V263c4-2.5,7.9-5.5,11.6-9.1c3.9,4.5,6,7.2,6.6,8.1
		c-6,3.4-12.1,6.6-18.1,9.6V289c-0.2,1.9,0.7,2.7,2.5,2.5h5.8c2,0.3,3-2.6,3-8.8c3,1.7,5.8,3,8.3,4c-0.2,8.7-3.4,12.8-9.8,12.1
		h-11.6c-4.5,0.2-6.7-1.9-6.6-6.3V242.4z"/>
	<path class="st0" d="M357.6,280c5.4,2.9,8.1,4.4,8.1,4.5c-5.5,6-10.2,10.6-14.1,13.6l-7.1-5C350.4,289.4,354.7,285.1,357.6,280z
		 M368.9,248c-0.7-1.8-1.3-3.4-2-4.5l10.6-1.8c0.2,1.3,0.5,3.4,1,6.3h22.4v6.8H345V248H368.9z M369.4,278h-15.6v-18.9h39.3V278
		h-14.9v16.1c1.2,4.4-3.4,6.4-13.6,6c-0.5-2.5-1.3-5.1-2.5-7.8c5.5,0.2,8-0.6,7.3-2.3V278z M384.6,271.7v-6h-22.7v6H384.6z
		 M394.9,296.9c-4-3.7-8.6-7.1-13.6-10.3c2.5-2.2,4.4-4.1,5.8-5.8c5.5,3.4,10.2,6.6,14.1,9.8C399.2,292.3,397.1,294.4,394.9,296.9z"
		/>
	<path class="st0" d="M403.1,292.3c16.3-7.4,24.6-19.1,24.9-35v-14.1h3.5c4.5,0,6.8,0.3,6.8,0.8v0.5c-0.7,2.9-1,6.5-1,10.8v1.8
		c1.7,16.6,10.1,27.8,25.2,33.5c-3.2,3-5.7,5.8-7.6,8.3c-9.9-5.7-17.1-14-21.7-24.9c-4.5,10.6-12.3,18.9-23.2,24.9
		C408,296.1,405.6,293.9,403.1,292.3z"/>
	<path class="st0" d="M466.1,246.2c8.7-0.8,16.9-2.2,24.4-4l1.5-0.3c2.7,3.7,4.4,6.3,5.3,7.8l-2.3,0.3c-3.2,0.3-6.2,0.7-9.1,1v8.1
		h9.6v6.6H486v6.3l3.8-2.5c2.9,3.5,5,6.9,6.6,10.1l-5.8,4.3c-1.2-2.5-2.7-4.8-4.5-6.8v23.2h-7.8v-20.7c-2.7,4.2-5.3,7.7-7.8,10.6
		c-1.3-2.2-3.3-3.9-5.8-5c5.7-6.2,10-12.7,12.8-19.4h-11.1V259h11.8v-7.3c-0.7,0-1.9,0.2-3.8,0.5c-2.7,0.2-4.6,0.3-5.8,0.5
		C468.3,250.5,467.5,248.3,466.1,246.2z M497.3,250.4H521v43.1H513V289h-8.1v5h-7.6V250.4z M513,257.5h-8.1v24.7h8.1V257.5z"/>
	<polygon class="st0" points="123.3,398.1 116.4,398.6 117.9,423.2 101.9,424.1 100.4,399.5 93.5,399.9 95,424.6 83.5,425.2 
		82,400.6 75.2,401 77.1,433.2 125.2,430.3 	"/>
	<polygon class="st0" points="82,384.8 117.9,386.8 117.6,392.9 123.7,393.2 124.8,373.4 118.7,373.1 118.4,379.2 82.4,377.2 
		82.8,371.1 76.7,370.7 75.6,390.6 81.7,390.9 	"/>
	<path class="st0" d="M85.9,348.5l26.4,4.1c1.5,0.2,2.9,0.5,4.1,0.9c1.1,0.3,2,0.8,2.6,1.4c0.6,0.6,1,1.4,1.3,2.4
		c0.2,1.1,0.2,2.6-0.1,4.4c-0.2,1.2-0.5,2.5-1,3.6c-0.5,1.2-1,2.2-1.4,3l-0.2,1.2l7,1.1l0.2-0.5c0.4-1.1,0.9-2.5,1.3-4.1
		c0.4-1.7,0.7-3,0.9-4c0.7-4.3,0-8-1.9-10.9c-1.9-3-5-4.8-9.3-5.5l-35-5.4l-2.7,17.3l6.2,1L85.9,348.5z"/>
	<polygon class="st0" points="127.4,325.3 92.5,316.4 94.1,310.5 88.1,308.9 83.2,328.2 89.1,329.7 90.7,323.8 125.5,332.7 
		124,338.6 129.9,340.1 134.9,320.9 128.9,319.4 	"/>
	<polygon class="st0" points="103,267.9 136.7,281.4 95.9,285.7 91.9,295.7 136.6,313.7 139.3,307 102.3,292.1 147.2,287.4 
		150.5,279.2 105.7,261.2 	"/>
	<path class="st0" d="M143.9,240.8l5.8,3.6l6.6-10.7l8.8,5.4c-0.3,1.4-0.7,3-1.3,4.7c-0.7,1.9-1.6,3.7-2.6,5.3
		c-2.8,4.5-6.4,7.2-10.7,8.1c-4.3,0.9-9.1-0.2-14.1-3.3c-4.7-2.9-7.7-6.5-8.9-10.7c-1.2-4.2-0.5-8.4,2.2-12.7
		c1.2-1.9,2.4-3.6,3.7-4.9c1.3-1.3,2.6-2.4,3.9-3.3c1.1-0.7,2.3-1.4,3.6-2c1.3-0.6,2.4-1.1,3.1-1.4l0.2-0.1l0.8-1.2l-7.2-4.5
		l-0.4,0.2c-3,1.9-5.6,4-7.6,6c-2,2.1-3.8,4.3-5.2,6.6c-4.1,6.6-5.4,13.1-4,19.3c1.4,6.2,5.4,11.3,12,15.3c3.5,2.2,7,3.6,10.3,4.2
		c1.4,0.3,2.9,0.4,4.3,0.4c1.8,0,3.5-0.2,5.2-0.7c2.9-0.8,5.7-2.3,8.2-4.4c2.5-2.1,4.8-4.8,6.7-7.9c1.5-2.5,2.7-5.3,3.6-8.3
		c0.9-3.1,1.5-6,1.8-8.9l0.1-0.4l-18.1-11.1L143.9,240.8z"/>
	<polygon class="st0" points="227.2,175.2 217.8,162.2 237.7,147.7 233.7,142.2 213.7,156.7 207,147.4 226.9,132.9 222.9,127.3 
		196.8,146.3 225.2,185.3 251.2,166.3 247.2,160.7 	"/>
	<polygon class="st0" points="261.3,106.3 277.9,138.5 244.2,115 234.7,119.9 256.7,162.9 263.1,159.6 244.9,124.1 281.9,149.9 
		289.7,145.9 267.7,103 	"/>
	<polygon class="st0" points="311.7,87.6 317.2,105.1 296.2,111.8 290.6,94.2 283.4,96.5 297.9,142.5 305.2,140.2 298.3,118.4 
		319.3,111.7 326.2,133.6 333.4,131.3 318.9,85.3 	"/>
	<polygon class="st0" points="348.8,121.6 346.4,105.7 370.8,102 369.8,95.2 345.4,98.9 343.7,87.5 368.1,83.9 367,77 335.2,81.9 
		342.4,129.6 374.3,124.7 373.2,117.9 	"/>
	<polygon class="st0" points="402.4,124 410,124.4 411.3,101.9 431.7,103.1 432.1,96.3 411.8,95 412.5,83.2 436.1,84.6 436.6,77.7 
		405.3,75.8 	"/>
	<path class="st0" d="M481.6,92.2L481.6,92.2c-1.4-2.5-3.4-4.6-5.9-6.3c-2.4-1.7-5.4-2.9-8.7-3.6c-3.2-0.7-6.4-0.8-9.4-0.3
		c-3,0.5-5.7,1.6-8,3.3c-2.4,1.8-4.5,4.1-6.1,6.9c-1.7,2.8-2.9,6.1-3.7,9.9c-0.8,3.9-1.1,7.4-0.7,10.7c0.4,3.2,1.3,6.2,2.7,8.7
		c1.5,2.5,3.4,4.6,5.9,6.3c2.5,1.7,5.4,2.9,8.7,3.6c2,0.4,3.9,0.6,5.8,0.6c1.3,0,2.5-0.1,3.7-0.3c2.9-0.5,5.6-1.6,8-3.3
		c2.3-1.6,4.4-3.9,6.1-6.7c1.7-2.8,3-6.2,3.8-10c0.8-3.8,1.1-7.4,0.7-10.7C484,97.7,483.1,94.8,481.6,92.2z M476,110
		c-1.3,5.8-3.5,10-6.8,12.5c-3.3,2.5-7,3.3-11.4,2.3c-4.4-0.9-7.5-3.2-9.4-6.8c-1.9-3.6-2.3-8.4-1-14.2c1.2-5.8,3.5-10,6.7-12.5
		c2.3-1.8,5-2.7,7.9-2.7c1.1,0,2.3,0.1,3.5,0.4c4.5,1,7.5,3.2,9.4,6.9C477,99.4,477.3,104.2,476,110z"/>
	<polygon class="st0" points="578.8,138.6 582.3,132.7 547.1,111.5 543.6,117.4 557.9,126.1 536.6,161.5 543.1,165.4 564.4,130 	"/>
	<path class="st0" d="M635.6,179.9L587.9,199l5.2,5.8l12.8-5.3l12.9,14.4l-6.7,12.2l5.4,6l24.2-45.3L635.6,179.9z M622.2,207.6
		l-9.7-10.8l20-8.2L622.2,207.6z"/>
	<polygon class="st0" points="629.2,237.7 663.5,214.6 659.2,208.3 619.3,235.3 636.6,261 642.3,257.1 	"/>
	<polygon class="st0" points="684.3,248.8 680.8,242.1 637.8,263.9 651.8,291.5 658,288.4 647.4,267.5 	"/>
	<path class="st0" d="M670.6,346.9c0.7,0.8,1.4,1.7,2.1,2.7l0.3,0.3l8.2-2.1l-0.3-1.3l-0.2-0.1c-2.5-1.7-4.5-3.6-6.1-5.8
		c-1.6-2.2-2.8-4.8-3.5-7.6c-0.5-2-0.7-4.1-0.4-6.1c0.2-2,0.9-3.8,2-5.6c1-1.6,2.6-3.2,4.6-4.6c2-1.4,4.6-2.5,7.7-3.3
		c3-0.8,5.7-1,8.2-0.9c2.4,0.2,4.6,0.8,6.3,1.7c1.8,1,3.3,2.3,4.5,3.9c1.2,1.6,2,3.5,2.6,5.7c0.7,2.7,0.9,5.4,0.6,8
		c-0.3,2.6-1.2,5.4-2.6,8.4l-0.1,0.2l0.3,1.3l8.2-2.1l0.1-0.4c0.7-3.4,1.1-6.4,1.1-9c0-2.6-0.4-5.2-1-7.7c-0.9-3.4-2.2-6.4-4-8.9
		c-1.8-2.5-4-4.6-6.5-6c-2.6-1.5-5.6-2.4-8.9-2.8c-3.3-0.3-6.9,0-10.7,1c-4,1-7.4,2.5-10.2,4.4c-2.8,1.9-4.9,4.1-6.4,6.7
		c-1.5,2.6-2.4,5.4-2.6,8.4c-0.2,3,0.1,6.2,0.9,9.6c0.5,1.8,1,3.4,1.7,4.8c0.7,1.4,1.3,2.7,2.1,3.9
		C669.2,345,669.9,346.1,670.6,346.9z"/>
	<polygon class="st0" points="673.3,387.3 680.1,386.5 677.6,363.2 718.7,358.7 717.9,351.2 669.9,356.4 	"/>
	<path class="st0" d="M682.6,399.5c1.1-0.7,2.4-1.2,3.8-1.5c1.4-0.3,3.4-0.4,5.9-0.3l29,1l0.3-7.6l-28.7-1c-3.6-0.1-6.7,0.2-9.2,0.8
		c-2.6,0.7-4.8,1.9-6.6,3.6c-1.6,1.5-2.9,3.4-3.8,5.6c-0.9,2.2-1.4,4.9-1.5,7.9c-0.1,2.9,0.2,5.6,0.9,7.8c0.7,2.3,1.8,4.3,3.5,6
		c1.7,1.8,3.9,3.2,6.5,4.1c2.6,0.8,5.6,1.3,9,1.4l28.7,1l0.3-7.6l-29.2-1c-2.2-0.1-4.1-0.3-5.6-0.7c-1.4-0.4-2.7-1-3.8-1.8
		c-1.2-0.9-2.2-2.1-2.7-3.6c-0.6-1.5-0.9-3.4-0.8-5.5c0.1-2.1,0.5-3.9,1.2-5.4C680.3,401.5,681.3,400.3,682.6,399.5z"/>
	<path class="st0" d="M127,446.9c-1-2-2.5-3.8-4.3-5.3c-1.5-1.3-3.3-2.2-5.3-2.7c-2-0.5-4.2-0.5-6.6,0h0c-3.3,0.7-5.9,2.2-7.7,4.6
		c-1.5,2-2.4,4.4-2.6,7.2c-1.2-1.2-2.5-2.2-4-2.8c-1.9-0.8-4-1-6.3-0.5c-2,0.4-3.7,1.2-5,2.3c-1.3,1.1-2.3,2.7-2.8,4.7
		c-0.5,1.7-0.7,3.5-0.6,5.3c0.1,1.7,0.5,4.3,1.2,7.7l3,14.2l47.2-9.9l-3.6-16.9C128.9,451.6,128,448.9,127,446.9z M90.9,472.9
		l-1.4-6.6c-0.4-2-0.7-3.7-0.9-5.1c-0.1-1.3-0.1-2.5,0.3-3.4c0.3-0.8,0.7-1.4,1.2-1.9c0.6-0.5,1.4-0.8,2.4-1
		c1.2-0.3,2.4-0.3,3.3-0.1c0.9,0.2,1.7,0.6,2.5,1.4c0.8,0.8,1.3,1.7,1.7,2.7c0.4,1,0.8,2.5,1.2,4.4l1.5,7.2L90.9,472.9z M109.3,469
		l-1.9-8.9c-0.4-2-0.7-3.7-0.8-5.1c-0.1-1.3-0.1-2.5,0.2-3.6c0.4-1.5,1.1-2.6,1.9-3.3c0.9-0.7,2.2-1.3,3.9-1.6
		c1.5-0.3,2.8-0.3,3.8,0c1,0.3,2,0.9,3,1.8c0.9,0.9,1.6,2.1,2.2,3.6c0.6,1.6,1.2,3.7,1.8,6.4l1.6,7.4L109.3,469z"/>
	<path class="st0" d="M196.9,175.6c-0.4-3-1.9-5.7-4.3-8.2c-1.8-1.9-3.7-3.1-5.7-3.6c-1.9-0.5-3.9-0.6-6-0.1
		c-1.8,0.4-3.6,1.2-5.2,2.3c-1.6,1.1-3.5,2.6-5.5,4.7l-9.8,9.7l33.8,34.4l5.4-5.3L186.4,196l5.6-5.5l24.3,2.3l7-6.9l-27.5-2.3
		C196.9,180.9,197.2,178.2,196.9,175.6z M189.1,183.6c-0.8,1.2-1.9,2.5-3.2,3.9l-4,3.9l-11.5-11.7l4.8-4.7c1.2-1.1,2.3-2.1,3.3-2.7
		c1-0.6,2-1.1,2.9-1.2c1.1-0.2,2.2-0.2,3.1,0.2c1,0.4,1.9,1,2.8,1.9c1.2,1.2,2,2.3,2.4,3.4c0.4,1,0.6,2.2,0.6,3.3
		C190.2,181.1,189.8,182.4,189.1,183.6z"/>
	<path class="st0" d="M534.1,111.6c-1-2.7-2.6-5.1-4.7-7.2c-2.1-2.1-4.8-3.8-8-5.1c-3.1-1.3-6.1-1.9-9.2-1.9c-3,0-5.9,0.6-8.5,1.8
		c-2.7,1.3-5.1,3.2-7.3,5.7c-2.1,2.5-3.9,5.5-5.4,9.1c-1.5,3.6-2.4,7.1-2.6,10.4c-0.2,3.3,0.2,6.3,1.2,9c1,2.7,2.6,5.2,4.7,7.3
		c2.1,2.1,4.8,3.8,7.9,5.1c3.2,1.3,6.3,2,9.2,2c0,0,0.1,0,0.1,0c2.9,0,5.7-0.6,8.4-1.9c2.6-1.2,5-3.1,7.2-5.6c2.2-2.5,4-5.6,5.5-9.2
		c1.5-3.6,2.4-7.1,2.6-10.4C535.5,117.4,535.1,114.4,534.1,111.6L534.1,111.6z M525.5,128.1c-2.3,5.5-5.3,9.3-8.9,11.1
		c-3.6,1.9-7.4,2-11.6,0.3c-4.1-1.7-6.8-4.5-8.1-8.4c-1.3-3.9-0.8-8.7,1.5-14.2c2.2-5.5,5.2-9.2,8.8-11.1c1.9-1,3.9-1.5,5.9-1.5
		c1.8,0,3.8,0.4,5.8,1.2c4.2,1.7,6.9,4.5,8.1,8.4C528.2,117.9,527.7,122.6,525.5,128.1z"/>
	<path class="st0" d="M597.6,187.6c2.2-2.6,3.2-5.5,3.2-8.4c-0.1-2.5-0.9-5-2.5-7.3c1.7,0.2,3.3,0.1,4.9-0.3c2-0.5,3.8-1.7,5.3-3.5
		c1.3-1.6,2.1-3.3,2.5-5c0.3-1.7,0.1-3.5-0.7-5.5c-0.7-1.7-1.7-3.2-2.9-4.5c-1.2-1.3-3.1-3.1-5.8-5.2l-11.3-9.2L559.7,176l13.4,11
		c2.6,2.1,4.9,3.6,6.9,4.5c2.1,0.9,4.3,1.4,6.6,1.5c0.1,0,0.2,0,0.4,0c1.9,0,3.7-0.4,5.5-1.2C594.4,190.9,596.1,189.5,597.6,187.6z
		 M591.9,148.7l5.2,4.3c1.6,1.3,2.9,2.5,3.9,3.4c0.9,0.9,1.6,1.9,2,2.9c0.3,0.8,0.4,1.5,0.2,2.2c-0.2,0.7-0.6,1.5-1.2,2.3
		c-0.8,1-1.7,1.7-2.5,2.2c-0.8,0.4-1.7,0.6-2.8,0.5c-1.1-0.1-2.1-0.5-3-1c-1-0.6-2.2-1.5-3.7-2.7l-5.7-4.7L591.9,148.7z
		 M588.5,185.3c-1,0.4-2.1,0.6-3.4,0.5c-1.2-0.1-2.6-0.6-4-1.4c-1.5-0.9-3.3-2.2-5.4-3.9l-5.9-4.8l10.2-12.4l7.1,5.8
		c1.6,1.3,2.9,2.4,3.8,3.5c0.9,1,1.6,1.9,2,2.9c0.6,1.4,0.8,2.7,0.5,3.7c-0.2,1.1-0.9,2.4-2.1,3.7
		C590.4,184.1,589.5,184.9,588.5,185.3z"/>
	<path class="st0" d="M667.7,452c-0.6,3.2-0.9,6-0.7,8.2c0.2,2.3,0.8,4.5,1.8,6.5c0.9,1.8,2.2,3.3,3.8,4.6c1.7,1.3,3.7,2.2,6.1,2.6
		c3.3,0.7,6.3,0.3,8.9-1.2c2.2-1.2,4-3.1,5.2-5.6c0.6,1.6,1.4,3,2.5,4.2c1.4,1.5,3.3,2.5,5.6,3c0.9,0.2,1.7,0.3,2.5,0.3
		c1.1,0,2.1-0.1,3-0.4c1.7-0.5,3.2-1.6,4.5-3.2c1.1-1.4,2-3,2.6-4.7c0.6-1.6,1.2-4.2,1.9-7.6l2.8-14.3l-47.3-9.4L667.7,452z
		 M697,455.4l1.4-7.3l12,2.3l-1.3,6.6c-0.4,2-0.8,3.7-1.2,5c-0.4,1.3-0.9,2.3-1.6,3.1c-0.5,0.6-1.2,1-1.9,1.2
		c-0.7,0.2-1.6,0.2-2.6,0c-1.2-0.2-2.3-0.6-3.1-1.2c-0.8-0.5-1.4-1.2-1.7-2.2c-0.4-1-0.6-2.1-0.6-3.1
		C696.4,458.8,696.6,457.3,697,455.4z M674.7,451.2l1.5-7.4l15.8,3.1l-1.8,8.9c-0.4,2-0.8,3.7-1.2,5c-0.4,1.3-0.9,2.4-1.6,3.2
		c-1,1.2-2,2-3,2.2c-1.1,0.3-2.5,0.3-4.3-0.1c-1.5-0.3-2.7-0.8-3.5-1.5c-0.8-0.7-1.5-1.6-2-2.8c-0.5-1.1-0.7-2.6-0.6-4.2
		C673.8,456.1,674.1,453.9,674.7,451.2z"/>
	<path class="st0" d="M399.7,573.3c-34.3,0-60.7-20.2-76.5-58.4c-11.9-28.7-13.6-57.8-13.6-58.1l0.1-142.8h180.5l0,1.1l0.1,140.3
		c0,0.4-1.9,29.8-13.9,58.9C460.5,552.8,434,573.3,399.7,573.3z M311.9,316l-0.1,140.6c0,0.2,1.7,29,13.5,57.4
		c15.6,37.9,40.7,57,74.5,57c33.8,0,58.9-19.4,74.8-57.7c11.9-28.7,13.7-57.9,13.7-58.2L488.2,316H311.9z"/>
	<path class="st0" d="M488.9,412.3c0,0-4.8,6.4-11.4,16c-6.6,9.6-9.6,12.8-15.9,19.6c-6.2,6.8-15.4,14.6-18.9,17.6
		c-3.6,3-9.7,11-4.3,23.5c5.4,12.5,18.8,11.4,23.7,9.8c5-1.6,10.9-8.9,14.6-13.2c2.7-3.1,7.9-10.3,10.5-14.1c1.6-9.8,2-16.2,2-16.2
		l0-43L488.9,412.3z M481.4,466.2c-4.7,6.8-12.3,15.5-17.3,20.3c-5,4.8-11.6,5.7-16.5-0.2c-4.8-5.9-1.6-11.9,0.2-13.5
		c1.8-1.6,6.1-4.5,9.1-7.1c3-2.7,13.8-14.2,17.5-18.7c3.7-4.4,14.5-19.3,14.5-19.3s0,12,0,26.5C488.2,455.6,486,459.4,481.4,466.2z"
		/>
	<path class="st0" d="M356.7,465.5c-3.6-3-12.7-10.9-18.9-17.6c-6.3-6.8-9.3-10-15.9-19.6c-6.6-9.6-10.7-14.8-10.7-14.8l-0.4-0.4
		l0,43.7c0,0,0.3,6.2,1.9,15.8c2.5,3.5,7.2,10,9.9,13.1c3.7,4.3,9.6,11.6,14.6,13.2c5,1.6,18.4,2.7,23.8-9.8
		C366.3,476.5,360.2,468.5,356.7,465.5z M351.7,486.3c-4.8,5.9-11.4,5-16.5,0.2c-5-4.8-12.7-13.5-17.3-20.3
		c-4.7-6.8-6.1-9.2-6.9-10.6c0-8.3,0-26.9,0-26.9s10.1,13.8,13.8,18.2c3.8,4.5,14.5,16,17.5,18.7c3.1,2.7,7.3,5.5,9.1,7.1
		C353.3,474.3,356.5,480.4,351.7,486.3z"/>
	<path class="st0" d="M488.9,316l-8.9,13.2l-1.2-1V316l-8.3,10.1l-1.9-0.6V316l-7.4,9c-1.1,0-2.4,0-2.4,0v-9l-7.7,10
		c-1.6,0-1.7,0.3-1.7,0.3V316l-8.7,12.2c-2.1,0.6-2.7,1.1-2.7,1.1l0-13.3l-18,18.2c1.6-4.5-2.8-9.6-8.7-10.8
		c-8.3-1.7-11.7,3.5-11.7,3.5s-3.4-5.2-11.7-3.5c-6,1.3-10.3,6.4-8.7,10.9l-18-18.2v13.3c0,0-0.6-0.5-2.7-1.1l-8.7-12.2v10.3
		c0,0-0.1-0.3-1.7-0.3l-7.7-10v9c0,0-1.2,0-2.4,0l-7.4-9v9.5l-1.9,0.6l-8.3-10.1v12.2l-1.2,1l-8.2-13.2v26.5c0,0,6.6-8.1,15.9-11.9
		c9.3-3.8,22.6-0.9,29.7,0.7c7.1,1.7,24.3,8.3,27.6,9.9c3.3,1.7,8.8,1,8.8-3.5c0-4.5-4-3.8-4-3.8c3.3,0.9,1.9,5-1.4,5.7
		c-1.7,0.4-3.1,0-4.3-1.3l-0.3-0.3c-0.9-1-2-2.7-2.1-5.2c-0.1-4.2,3.6-7.1,8.6-7.7c4.9-0.6,8.3,1.4,10,5.8c1.8-4.4,5.1-6.4,10-5.8
		c4.9,0.6,8.7,3.5,8.6,7.7c-0.1,4.2-3.1,6.1-3.1,6.1c0.1-0.1,0.3-0.1,0.4-0.2c-1.1,0.9-2.4,1.1-3.9,0.8c-3.3-0.7-4.7-4.7-1.4-5.7
		c0,0-4.1-0.7-4.1,3.8c0,4.5,5.5,5.2,8.8,3.5c3.3-1.7,20.4-8.3,27.6-9.9c7.1-1.6,20.4-4.5,29.7-0.7c9.3,3.8,16.8,12.7,16.8,12.7
		L488.9,316z"/>
</g>
</svg>
