<?xml version="1.0" encoding="utf-8"?>
<!-- Generator: Adobe Illustrator 22.1.0, SVG Export Plug-In . SVG Version: 6.00 Build 0)  -->
<svg version="1.1" id="图层_1" xmlns="http://www.w3.org/2000/svg" xmlns:xlink="http://www.w3.org/1999/xlink" x="0px" y="0px"
	 viewBox="0 0 800 800" style="enable-background:new 0 0 800 800;" xml:space="preserve">
<style type="text/css">
	.st0{fill:#FFCF03;}
	.st1{fill:#F49508;}
	.st2{fill:#184274;}
	.st3{fill:#2261A8;}
	.st4{fill:#E71919;}
	.st5{fill:#FFFFFF;}
	.st6{fill:#FCD100;}
	.st7{fill:#F08100;}
</style>
<g>
	<g>
		<path class="st0" d="M190.2,159.1h-68.1c0,142.5,5.4,268.1,25.3,345.9C198.3,694.8,400.3,750,400.3,750V563.3V159.1V50
			C313.4,50,236.7,93.1,190.2,159.1z"/>
		<path class="st1" d="M609.8,159.1h68.1c0,142.5-5.4,268.1-25.3,345.9C601.7,694.8,399.7,750,399.7,750V563.3V159.1V50
			C486.6,50,563.3,93.1,609.8,159.1z"/>
		<g>
			<path class="st2" d="M401,68.7l0.2,0L401,725.8c-14.9-4.9-55.9-19.8-100.3-50c-30.2-20.6-56.2-44.3-77.2-70.5
				c-25.8-32.2-44.2-68.4-54.8-107.7c-16.1-63.2-23.9-165.1-24.5-319.7h47.1h10.9l6.3-8.9c21.3-30.3,49.8-55.4,82.4-72.8
				c33.6-17.9,71.7-27.4,110.1-27.5L401,68.7z"/>
		</g>
		<g>
			<path class="st3" d="M400.2,68.3c38.4,0.1,76.4,9.6,110.1,27.5c32.6,17.3,61.1,42.5,82.4,72.8l6.3,8.9h10.9h47.1
				c-0.6,154.6-8.5,256.5-24.5,319.7c-10.6,39.2-29,75.5-54.8,107.7c-21,26.2-47,50-77.2,70.5c-44.5,30.3-85.4,45.2-100.3,50
				l-0.2-657.1l0.2,0L400.2,68.3z"/>
		</g>
		<path class="st4" d="M285.5,665.3c4.6,3.4,9.3,6.8,14.1,10.1c44.5,30.3,85.4,45.2,100.3,50c14.9-4.9,55.9-19.8,100.3-50
			c4.6-3.2,9.2-6.4,13.6-9.7V374.8H285.5V665.3z"/>
		<g>
			<path class="st4" d="M235.9,202c32.5-49.1,93.7-82.1,163.8-82.1s131.3,33.1,163.8,82.1l31.9-24.9
				C553.2,114.1,481.3,72.7,399.7,72.7S246.3,114.1,204,177.1L235.9,202z"/>
			<path class="st5" d="M399.7,72.7c81.5,0,153.4,41.4,195.7,104.4L563.5,202c-32.5-49.1-93.7-82.1-163.8-82.1
				S268.4,152.9,235.9,202L204,177.1C246.3,114.1,318.2,72.7,399.7,72.7 M399.7,68.5c-80,0-154.5,39.7-199.2,106.2l-2.2,3.2l3.1,2.4
				l31.9,24.9l3.6,2.8l2.5-3.8c15.8-23.9,38.7-44,66.2-58.1c28.4-14.5,60.9-22.2,94.1-22.2s65.7,7.7,94.1,22.2
				c27.5,14.1,50.4,34.1,66.2,58.1l2.5,3.8l3.6-2.8l31.9-24.9l3.1-2.4l-2.2-3.2C554.2,108.2,479.8,68.5,399.7,68.5L399.7,68.5z"/>
		</g>
		<path class="st6" d="M648.7,384l-44-17.2l-7.3,16.9c-9.6-3.2-18.9-6.2-27.9-8.8l4.4-20.2c0,0-44-9.1-61.5-11.2l-2.2,17
			c-9.8-1.8-19.3-3.3-28.5-4.6v-20.1l-62.2-2.1v17.7c-6.5-0.1-12.9-0.2-19.4-0.2v0c0,0-0.1,0-0.1,0c-0.1,0-0.3,0-0.4,0v0
			c-5.4,0-10.8,0.1-16.2,0.3v-16.9c0,0-36.1,1-60.2,4.2l0.6,18.1c-11.3,1.7-23,3.8-35.1,6.3l-0.6-16.5l-59.7,12l3.1,18.5
			c-9.5,2.7-19.3,5.5-29.4,8.7l-3-15.2c-26.7,8.4-48.2,17.3-48.2,17.3l2.7,13.7c-0.4,0.1-0.8,0.3-1.2,0.4c0,0,1.4,19.6,3.8,30.7
			c0,0,103.5-51.7,243.9-55.9v0c123.7-3.3,243.4,55.9,243.4,55.9c2.4-11.2,3.8-30.7,3.8-30.7c-0.9-0.3-1.7-0.7-2.5-1L648.7,384z"/>
		<path class="st5" d="M400,72.5l0.2,0c37.7,0.1,75.1,9.4,108.1,27c32,17,60,41.8,80.9,71.5l6.3,8.9l1.3,1.8h2.2h10.9h42.9
			c-0.8,152-8.5,252-24.4,314.4c-10.4,38.7-28.6,74.4-54,106.1c-20.7,25.9-46.4,49.3-76.3,69.7c-42.6,29-81.8,43.8-98,49.1
			c-16.1-5.3-55.3-20.1-98-49.1c-29.9-20.3-55.6-43.8-76.3-69.7c-25.4-31.7-43.6-67.4-54-106.1c-15.9-62.4-23.6-162.4-24.4-314.4
			h42.9h10.9h2.2l1.3-1.8l6.3-8.9c20.9-29.7,48.9-54.4,80.9-71.5c33-17.6,70.4-26.9,108.1-27L400,72.5 M400,68.3l-0.2,0
			c-38.4,0.1-76.4,9.6-110.1,27.5c-32.6,17.3-61.1,42.5-82.4,72.8l-6.3,8.9h-10.9h-47.1c0.6,154.6,8.5,256.5,24.5,319.7
			c10.6,39.2,29,75.5,54.8,107.7c21,26.2,47,50,77.2,70.5c44.5,30.3,85.4,45.2,100.3,50c14.9-4.9,55.9-19.8,100.3-50
			c30.2-20.6,56.2-44.3,77.2-70.5c25.8-32.2,44.2-68.4,54.8-107.7c16.1-63.2,23.9-165.1,24.5-319.7h-47.1h-10.9l-6.3-8.9
			c-21.3-30.3-49.8-55.4-82.4-72.8c-33.6-17.9-71.7-27.4-110.1-27.5L400,68.3L400,68.3z"/>
		<g>
			<path class="st5" d="M153.7,401.8l-2-9.9c-0.5,0.2-0.8,0.3-0.8,0.3l2,9.8C153.2,402,153.4,401.9,153.7,401.8z"/>
			<path class="st5" d="M647.9,392.1l0.8-3.9l-0.4-0.2C648.2,389.3,648,390.6,647.9,392.1z"/>
			<path class="st5" d="M643.7,432.9c0,0-119.7-59.2-243.4-55.9v0c-140.4,4.2-242.8,55.3-242.8,55.3c-1.1,0.5,0.3,1.2-0.3,4.3
				c0,0,102.8-51.3,243.1-55.5v0C524,377.9,643.5,437,643.5,437C643.2,433.8,642.6,433.7,643.7,432.9z"/>
		</g>
	</g>
	<g>
		<rect x="191.9" y="378" transform="matrix(0.9561 -0.293 0.293 0.9561 -104.7456 73.6534)" class="st7" width="3.1" height="17"/>
		<polygon class="st7" points="224.5,388.5 223.5,385.5 238.4,380 234.8,364.3 237.8,363.6 242.1,382 		"/>
		<polygon class="st7" points="309.9,366.5 309.4,363.4 329.8,360.3 329.3,343.3 332.4,343.2 333,362.9 		"/>
		<polygon class="st7" points="397.4,359.5 377,359.5 376.4,339.6 379.6,339.5 380.1,356.4 397.4,356.4 		"/>
		<rect x="424.9" y="339.6" class="st7" width="3.1" height="17.5"/>
		<polygon class="st7" points="490,365.3 472.6,364.1 472,343.8 475.2,343.7 475.7,361.2 490.2,362.1 		"/>
		
			<rect x="554.7" y="367.5" transform="matrix(0.1332 -0.9911 0.9911 0.1332 122.7447 878.4521)" class="st7" width="17.7" height="3.1"/>
		<polygon class="st7" points="602.6,392.8 586.3,388.5 587.1,385.5 600.8,389.1 607.8,373 610.7,374.3 		"/>
	</g>
	<g>
		<path class="st5" d="M236,225.5v3.6c0,0,13.9,1.3,13.9,12.3c0,11,0,73.9,0,78.8s-7.9,11.8-14.9,12.3v3.9l45.8-7.3V225.5H236z"/>
		<path class="st5" d="M286.6,225.5v5.9c0,0,14.4,4.2,14.4,20.2s-14.4,19.9-14.4,19.9v6.3c0,0,17.8,1.8,17.8,23
			s-18.9,22.5-18.9,22.5v5c0,0,52.9,1.3,52.4-31.4c-0.5-21-22-24.9-22-24.9s18.1-3.7,18.3-23.8c0.3-20.2-25.4-22.7-30.6-22.7
			C298.4,225.5,286.6,225.5,286.6,225.5z"/>
		<path class="st5" d="M450,225.1h61v4.2c0,0-14.7,1.3-14.7,11.8c0,10.5,0,55.3,0,63.4c0,8.1,9.4,19.6,25.7,19.6v6.3
			c0,0-5.6,1.8-16.5,0c-12.9-2.1-41.4-7.3-41.4-35.9s0-50.3,0-55.8c0-5.5-7.1-10.2-14.1-10.2V225.1z"/>
		<path class="st5" d="M528.6,225.5h35.1v4.1c0,0,0.3,0-3.1,0s-10.7,2.9-10.7,12.6s0,47.1,0,60.5c0,13.4-7.9,25.1-22.8,27v-6.3
			c0,0,15.2-5.8,15.2-21.2s0-56.8,0-62.9s-5.8-9.7-13.6-9.7V225.5z"/>
		<path class="st5" d="M433,221.7v29.3h-3.7c0,0-3.9-22.8-27.2-22.8v-6.5c0,0,20.7,3.1,25.1,6.8l1.3-6.8H433z"/>
		<path class="st5" d="M359.4,281.7v32.2h3.9c0,0,2.4-7.1,5.5-7.1s4.4,2.1,12,4.7c9,2.5,16.8,1.6,16.8,1.6v-5.8
			c0,0-28.5,1.6-33.5-25.7H359.4z"/>
		<path class="st5" d="M397.3,221.7c0,0-22-2.7-33.5,14.7c-11.5,17.4,3,32,14.8,35.9c11.8,3.8,35.9,13.6,37.3,21.3
			c1.4,7.7-7.7,13.3-14.3,14v5.6c0,0,19.9,0.7,30.7-11.9c10.8-12.6,6.3-32.8-10.5-40.5c-16.8-7.7-32.8-11.2-37-17.8
			s-0.3-13.3,12.2-15.4L397.3,221.7z"/>
	</g>
	<g>
		<path class="st5" d="M244.7,175.7c0.7-0.8,1.1-1.5,1.2-2c0.2-0.8-0.1-1.5-0.9-2.3l-13.4-12.4c-0.8-0.7-1.6-1-2.3-0.7
			c-0.5,0.1-1.1,0.6-1.9,1.4l-0.7-0.6l14.4-15.6l5.6,5.2l-0.6,0.7c-2-1.3-3.8-1.8-5.2-1.6c-1.4,0.2-3.1,1.3-5.1,3.5
			c-0.7,0.8-1.1,1.4-1.1,1.8c0,0.4,0.2,0.8,0.7,1.3l6.4,5.9c1.4-1.5,2-2.8,1.8-3.9s-0.9-2.5-2.1-4.1l0.6-0.7l9.4,8.6l-0.6,0.7
			c-1.7-1.2-3.1-1.8-4.3-1.9c-1.2-0.1-2.5,0.6-3.9,2.1l6.5,6c0.9,0.8,1.6,1,2.3,0.8c0.7-0.3,1.5-0.9,2.4-2l0.7,0.6l-9.1,9.9
			L244.7,175.7z"/>
		<path class="st5" d="M265.5,127.6c3.8-0.1,7,1.3,9.8,4.2c2.7,2.9,3.9,6.2,3.6,10c-0.3,3.7-2,6.9-5,9.8c-3.2,3-6.7,4.5-10.6,4.4
			c-3.6-0.1-6.7-1.4-9.1-4c-2.7-2.9-4-6.2-3.7-9.9c0.2-3.8,1.9-7.1,5-10.1C258.4,129.1,261.8,127.7,265.5,127.6z M274.1,142.5
			c-0.8-1.7-2.2-3.7-4.2-5.8c-2.8-2.9-5.3-4.7-7.7-5.3c-2.3-0.6-4.3-0.1-6,1.4c-2.3,2.1-2.6,4.8-1.2,8.1c0.8,1.7,2.2,3.6,4.2,5.7
			c2,2.1,3.9,3.6,5.6,4.5c3.1,1.7,5.8,1.4,8.1-0.7C275.2,148.5,275.6,145.8,274.1,142.5z"/>
		<path class="st5" d="M296.1,108.3c3.8,0.1,7,1.7,9.5,4.7c2.6,3,3.6,6.4,3,10.2c-0.5,3.7-2.4,6.8-5.5,9.5c-3.4,2.8-7,4.1-10.8,3.8
			c-3.6-0.3-6.6-1.8-8.9-4.5c-2.5-3-3.6-6.4-3.2-10.1c0.4-3.7,2.3-7,5.6-9.8C289,109.4,292.4,108.1,296.1,108.3z M303.9,123.7
			c-0.7-1.8-2-3.8-3.9-6c-2.6-3.1-5-5-7.4-5.7c-2.3-0.7-4.3-0.4-6,1.1c-2.4,2-2.9,4.7-1.6,8c0.7,1.8,2,3.8,3.8,6
			c1.9,2.2,3.7,3.9,5.3,4.8c3,1.8,5.7,1.7,8.1-0.3C304.7,129.7,305.2,127,303.9,123.7z"/>
		<path class="st5" d="M306.3,102.6l23.9-9.4l2.8,7.1l-1.1,0.4c-1.4-2.4-3.1-3.7-5.2-3.9c-1.2-0.1-2.8,0.2-4.8,0.9l7.3,18.5
			c0.5,1.3,1.1,2,1.8,2.3s1.8,0,3.4-0.6l0.4,0.9l-14.1,5.6l-0.4-0.9c1.5-0.6,2.5-1.2,2.8-1.9c0.3-0.6,0.3-1.6-0.2-2.9l-7.3-18.5
			c-1.9,0.8-3.3,1.7-4.1,2.6c-1.5,1.7-1.9,3.8-1.2,6.4l-1.1,0.4L306.3,102.6z"/>
		<path class="st5" d="M340.1,115.4c1-0.3,1.8-0.5,2.2-0.9c0.7-0.5,0.9-1.4,0.7-2.4l-3.7-17.9c-0.2-1.1-0.7-1.7-1.5-1.9
			c-0.5-0.1-1.3-0.1-2.4,0l-0.2-0.9l11.9-2.5c2.3-0.5,4.3-0.6,5.9-0.4c3.1,0.4,4.9,1.8,5.4,4.3c0.3,1.5,0,2.9-1,4
			c-1,1.1-2.1,2-3.4,2.5l0.1,0.3c1.5,0,2.8,0.2,4,0.6c2.3,0.8,3.7,2.3,4.1,4.5c0.4,2-0.2,3.9-1.9,5.6c-1.7,1.7-4.2,2.8-7.5,3.5
			l-12.4,2.6L340.1,115.4z M351.6,98.5c0.7-0.9,0.8-2.3,0.4-4.2c-0.3-1.4-0.8-2.5-1.5-3.4c-0.7-0.9-1.9-1.1-3.4-0.8
			c-0.8,0.2-1.3,0.4-1.6,0.7c-0.3,0.3-0.3,0.8-0.2,1.5l1.7,8.3C349.4,100.1,350.9,99.4,351.6,98.5z M349.7,112.3
			c0.4,0.5,1.1,0.6,2,0.4c1.8-0.4,3-1.1,3.5-2.2c0.5-1.1,0.6-2.5,0.3-4.3c-0.5-2.6-1.7-4.2-3.5-4.7c-1.1-0.3-2.7-0.3-4.8,0.2
			l1.9,9.2C349.3,111.6,349.5,112,349.7,112.3z"/>
		<path class="st5" d="M367.4,109.1c1-0.2,1.8-0.6,2.3-1.5c0.3-0.5,0.8-1.6,1.4-3.3l7.3-21.4l1.2-0.1l11.2,18.8
			c1.3,2.1,2.2,3.5,2.8,4.1c0.6,0.6,1.3,0.8,2.3,0.7l0.1,1l-13.5,1.3l-0.1-1c1.4-0.2,2.2-0.4,2.6-0.6s0.6-0.6,0.5-1.3
			c0-0.3-0.2-0.7-0.5-1.3c-0.2-0.3-0.4-0.8-0.7-1.2l-1.3-2.2l-9.4,0.9c-0.5,1.6-0.8,2.6-0.9,3c-0.3,1-0.4,1.7-0.3,2.2
			c0.1,0.5,0.5,0.9,1.3,1.1c0.5,0.1,1.2,0.1,2.2,0l0.1,1l-8.5,0.8L367.4,109.1z M382.3,99.7l-4.9-8.3l-0.4,0l-2.9,9.1L382.3,99.7z"
			/>
		<path class="st5" d="M398.1,107c1,0,1.8-0.2,2.2-0.4c0.7-0.4,1.1-1.1,1.1-2.2V86.1c0-1.1-0.4-1.8-1.1-2.2
			c-0.4-0.2-1.2-0.4-2.2-0.4v-1h13.1v1c-1.5,0-2.5,0.3-3,0.6c-0.5,0.4-0.8,1.3-0.8,2.8v17.8c0,0.8,0.2,1.4,0.6,1.7
			c0.4,0.3,1.3,0.4,2.5,0.4c2.3,0,4.1-0.5,5.7-1.5s2.8-2.9,3.9-5.8h1.1l-1.5,8.5h-21.6V107z"/>
		<path class="st5" d="M422.6,108.4c1,0.1,1.8,0,2.2-0.2c0.8-0.3,1.2-1,1.4-2.1l2-18.2c0.1-1.1-0.1-1.9-0.8-2.3
			c-0.4-0.3-1.1-0.5-2.2-0.7l0.1-1l13,1.5l-0.1,1c-1.5-0.1-2.5,0-3.1,0.3s-0.9,1.2-1.1,2.7l-2,17.7c-0.1,0.8,0.1,1.4,0.5,1.7
			c0.4,0.3,1.2,0.5,2.5,0.7c2.2,0.3,4.2,0,5.8-0.9c1.6-0.8,3.2-2.6,4.6-5.4l1.1,0.1l-2.5,8.3l-21.5-2.4L422.6,108.4z"/>
		<path class="st5" d="M491,102.9c1.4,1.1,2.2,1.6,2.4,1.7c0.5,0.2,0.9,0.1,1.3-0.2c0.4-0.3,0.7-0.6,0.9-0.9l1,0.3l-2.7,8.4
			l-0.9-0.3c-0.3-2.1-0.8-3.8-1.4-5.2c-1.1-2.5-2.8-4.1-5-4.8c-2.5-0.8-4.6-0.3-6.3,1.4s-3.1,4.4-4.2,7.9c-0.8,2.6-1.2,4.8-1.1,6.6
			c0.2,3.5,1.8,5.7,4.9,6.7c1.9,0.6,3.9,0.7,5.8,0.2c1.1-0.3,2.6-0.9,4.3-1.8l0.8,1.2c-2,1.1-3.6,1.8-4.9,2.2
			c-2.4,0.6-4.7,0.6-7.1-0.2c-3.7-1.2-6.4-3.2-8.2-6.1c-2-3.2-2.4-6.8-1.1-10.7c1.3-3.9,3.6-6.6,7-8.2c3.2-1.5,6.6-1.6,10.2-0.5
			C488.1,101.1,489.6,101.8,491,102.9z"/>
		<path class="st5" d="M491.7,129.3c0.9,0.5,1.6,0.7,2.1,0.7c0.8,0,1.5-0.4,2.1-1.4l9.2-15.8c0.6-0.9,0.6-1.8,0.2-2.4
			c-0.2-0.4-0.8-0.9-1.7-1.5l0.5-0.8l11.3,6.6l-0.5,0.8c-1.3-0.7-2.3-1-2.9-1c-0.6,0.1-1.3,0.8-2.1,2l-8.9,15.4
			c-0.4,0.7-0.5,1.3-0.3,1.8c0.2,0.5,0.9,1,2,1.6c1.9,1.1,3.8,1.6,5.7,1.5c1.8-0.1,3.9-1.1,6.4-3.1l0.9,0.5l-5.6,6.6l-18.7-10.9
			L491.7,129.3z"/>
		<path class="st5" d="M538.2,129l-0.5,0.8c-1.4-0.9-2.4-1.3-3.1-1.2c-0.7,0-1.4,0.6-2.2,1.8l-7.1,10.5c-1.1,1.6-1.7,3-1.9,4.1
			c-0.3,2.1,0.6,3.9,2.7,5.3c2.6,1.8,5,2.1,7.2,0.9c1.2-0.6,2.4-1.8,3.5-3.6l6.5-9.6c0.8-1.1,1-2,0.9-2.8s-0.9-1.6-2.1-2.6l0.5-0.8
			l7.6,5.1l-0.5,0.8c-1.2-0.5-2.1-0.8-2.7-0.8c-0.5,0-1.2,0.6-1.8,1.6l-6.7,10c-1.8,2.7-3.9,4.2-6.3,4.7c-2.4,0.5-5.1-0.3-8.1-2.3
			c-4-2.7-5.9-5.6-5.9-8.7c0-1.7,0.6-3.4,1.8-5.2l7.1-10.5c0.8-1.2,1.1-2,1-2.6c-0.1-0.5-0.8-1.3-1.9-2.2l0.5-0.8L538.2,129z"/>
		<path class="st5" d="M537.5,159.4c0.7,0.7,1.3,1.2,1.8,1.3c0.8,0.3,1.6,0.1,2.4-0.7l13.4-12.4c0.8-0.7,1.1-1.5,0.9-2.3
			c-0.1-0.5-0.5-1.1-1.2-2l0.7-0.6l7.9,8.6c1.5,1.7,2.6,3.2,3.2,4.7c1.2,2.7,0.8,5-1,6.7c-1.1,1.1-2.4,1.5-3.9,1.3
			c-1.4-0.2-2.7-0.7-3.8-1.5l-0.3,0.2c0.8,1.2,1.2,2.4,1.5,3.6c0.4,2.3-0.1,4.3-1.8,5.8c-1.5,1.4-3.4,1.9-5.7,1.3s-4.5-2-6.7-4.4
			l-8.3-9L537.5,159.4z M557.5,160.1c1.1,0.1,2.4-0.5,3.8-1.9c1.1-1,1.8-2,2.1-3s0-2.1-1-3.2c-0.5-0.6-1-0.9-1.4-0.9
			c-0.4,0-0.9,0.2-1.4,0.6l-6.2,5.7C555,159.1,556.4,160,557.5,160.1z M544.8,165.8c-0.2,0.6,0,1.2,0.6,1.9c1.2,1.3,2.4,1.9,3.6,1.8
			c1.2-0.1,2.5-0.8,3.8-2c2-1.8,2.7-3.6,2.3-5.4c-0.3-1.1-1.1-2.4-2.5-3.8l-6.9,6.4C545.2,165,544.9,165.4,544.8,165.8z"/>
	</g>
	<g>
		<path class="st5" d="M345.3,180.3c3.9,0.5,6.2-4.6,3.5-6.9c-1.7-1.4-0.4-5.4-0.4-5.4c-3.4,0.1-6.5,2.2-7.5,5.9
			C339.9,177.5,341.4,179.9,345.3,180.3z"/>
		<path class="st5" d="M366.2,188c0,0-1.6,3.4-3.8,3.7c-2.5,0.3-11.8-1.5-17.3,0.4c5.5-5.6,11.8-4.7,14.7-5.8
			c3.1-1.2,6.4-3.7,6.6-8.5c0.2-4.2-1.2-7.7-4.9-8.8c-6.5-2-12.4-0.8-12.4-0.8c5,3.1,4.9,7.5,4.7,11.3c-0.1,3.9-4.4,5.3-9,9.2
			c-3.4,2.9-4.2,6.9-4.3,8.7c-0.2,1.1-0.1,2.2,0.1,3.1c0,0,2-2.8,5.1-2.8s5.8,3.3,9.4,3.3C358.9,201,368.7,201.1,366.2,188z"/>
	</g>
	<path class="st5" d="M382.6,168c0,0-12.6,0.2-12.6,16.6s12.6,15.8,12.6,15.8v-2.1H382c-0.9,0-1.6-0.7-1.6-1.6v-24.6
		c0-1.1,0.9-2,2-2h0.2V168z"/>
	<path class="st5" d="M384.1,168c0,0,12.6,0.2,12.6,16.6s-12.6,15.8-12.6,15.8v-2.1h0.6c0.9,0,1.6-0.7,1.6-1.6v-25.1
		c0-0.9-0.7-1.6-1.6-1.6h-0.6V168z"/>
	<path class="st5" d="M403.4,169.2c0,0,12.4,0,15.7-1.6v30.6h3.9v2.2h-19.3v-2.1h3.5v-27.2h-3.9V169.2z"/>
	<path class="st5" d="M441.6,167.6c0,0-13.1-0.4-13.1,10.3s13.1,9.2,13.1,9.2v-3.1h-0.2c-0.9,0-1.6-0.7-1.6-1.6v-9.8
		c0-0.7,0.6-1.3,1.3-1.3h0.4V167.6z"/>
	<path class="st5" d="M443,167.6c3.7,0,13.7,2.1,13.7,13.4s-1.5,20.5-15.7,20.2c-12.4,0-11.7-6.4-11.5-8.5c0.2-2.1,2.7-3.4,5.3-3.4
		s4.7,1.3,4.8,3.2c0.1,1.9-0.5,5.1-3.1,5.8c0,0,7.3,0.5,8.1-3.3s0.6-8.1,0.6-8.1H443v-2.9h0.3c0.9,0,1.6-0.7,1.6-1.6v-9.8
		c0-0.8-0.7-1.5-1.5-1.5h-0.5L443,167.6z"/>
	<path class="st5" d="M454.6,474.8c-54.8-7.7-88.7,11.2-108.3,28.6c0,0,27.2-45.4,93.6-46.1c66.3-0.7,86.6,37,92.2,49.6
		c0,0,0-50.3-89.4-59.4c-57.3-4.2-97.8,25.1-111.7,41.2c0,0,12.9-34.2,69.3-51s106,5.6,117.2,23c0,0-7.2-33.3-85.2-37
		c-80.6-1.5-113.9,46.9-115.9,53.4c1.1-4.4,13.9-48.6,80.2-63.9c27.2-4.2,55.2-7.7,92.2,7c0,0-48.2-32.1-120.1-6.3
		c-71.9,25.8-101.3,97.8-46.1,138.3c39.6,29.1,84.6,22.5,116.1-5.1c-7.9,10.7-35,39.8-91.8,31.8c-69.1-9.8-76.1-70.5-76.1-70.5
		s-8.4,62.9,74.7,79.6c54.8,7.7,88.7-11.2,108.3-28.6c0,0-27.2,45.4-93.6,46.1c-66.3,0.7-86.6-37-92.2-49.6c0,0,0,50.3,89.4,59.4
		c57.3,4.2,97.8-25.1,111.7-41.2c0,0-12.9,34.2-69.3,51c-56.4,16.8-106-5.6-117.2-23c0,0,7.2,33.3,85.2,37
		c80.6,1.5,113.9-46.9,115.9-53.4c-1.1,4.4-13.9,48.6-80.2,63.9c-27.2,4.2-55.2,7.7-92.2-7c0,0,48.2,32.1,120.1,6.3
		c71.9-25.8,101.3-97.8,46.1-138.3c-39.6-29.1-84.6-22.5-116.1,5.1c7.9-10.7,35-39.8,91.8-31.8c69.1,9.8,76.1,70.5,76.1,70.5
		S537.7,491.6,454.6,474.8z"/>
</g>
</svg>
