<?xml version="1.0" encoding="utf-8"?>
<!-- Generator: Adobe Illustrator 22.1.0, SVG Export Plug-In . SVG Version: 6.00 Build 0)  -->
<svg version="1.1" id="图层_1" xmlns="http://www.w3.org/2000/svg" xmlns:xlink="http://www.w3.org/1999/xlink" x="0px" y="0px"
	 viewBox="0 0 800 800" style="enable-background:new 0 0 800 800;" xml:space="preserve">
<style type="text/css">
	.st0{fill:#2261A8;}
</style>
<g>
	<g>
		<path class="st0" d="M609.8,159.1C563.4,93.3,486.9,50.2,400.3,50v0c-0.1,0-0.2,0-0.3,0c-0.1,0-0.2,0-0.3,0v0
			c-86.6,0.2-163.2,43.3-209.5,109.1h-68.1c0,142.5,5.4,268.1,25.3,345.9c49.5,184.1,241.1,241.6,252.4,244.8v0.1c0,0,0.1,0,0.3-0.1
			c0.2,0,0.3,0.1,0.3,0.1v-0.1c11.3-3.2,202.9-60.7,252.4-244.8c19.8-77.9,25.3-203.4,25.3-345.9H609.8z M632.3,497.1
			c-10.6,39.2-29,75.5-54.8,107.7c-21,26.2-47,50-77.2,70.5c-43.4,29.6-83.5,44.5-99.2,49.7l0,0.4c-0.2-0.1-0.4-0.1-0.5-0.2
			c-0.2,0.1-0.4,0.1-0.5,0.2l0-0.4c-15.8-5.2-55.8-20.1-99.2-49.7c-30.2-20.6-56.2-44.3-77.2-70.5c-25.8-32.2-44.2-68.4-54.8-107.7
			c-16.1-63.2-23.9-165.1-24.5-319.7h47.1h10.9l6.3-8.9c21.3-30.3,49.8-55.4,82.4-72.8c33.3-17.7,71-27.2,109-27.5v0l0.2,0l0.2,0
			c0.1,0,0.2,0,0.3,0c0.1,0,0.2,0,0.3,0l0.2,0l0.2,0v0c38,0.3,75.7,9.7,109,27.5c32.6,17.3,61.1,42.5,82.4,72.8l6.3,8.9h10.9h47.1
			C656.2,332.1,648.4,434,632.3,497.1z"/>
	</g>
	<g>
		<path class="st0" d="M235,332.5v3.9l45.8-7.3V225.5H236v3.6c0,0,13.9,1.3,13.9,12.3c0,11,0,73.9,0,78.8
			C249.9,325.2,242.1,332,235,332.5z"/>
	</g>
	<g>
		<path class="st0" d="M285.5,323.4v5c0,0,52.9,1.3,52.4-31.4c-0.5-21-22-24.9-22-24.9s18.1-3.7,18.3-23.8
			c0.3-20.2-25.4-22.7-30.6-22.7s-17,0-17,0v5.9c0,0,14.4,4.2,14.4,20.2c0,16-14.4,19.9-14.4,19.9v6.3c0,0,17.8,1.8,17.8,23
			S285.5,323.4,285.5,323.4z"/>
	</g>
	<g>
		<path class="st0" d="M505.5,330.4c10.9,1.8,16.5,0,16.5,0v-6.3c-16.2,0-25.7-11.5-25.7-19.6s0-52.9,0-63.4
			c0-10.5,14.7-11.8,14.7-11.8v-4.2h-61v3.4c7.1,0,14.1,4.7,14.1,10.2c0,5.5,0,27.2,0,55.8C464.2,323.1,492.6,328.3,505.5,330.4z"/>
	</g>
	<g>
		<path class="st0" d="M527,323.4v6.3c14.8-1.8,22.8-13.6,22.8-27c0-13.4,0-50.8,0-60.5c0-9.7,7.3-12.6,10.7-12.6c2.7,0,3.1,0,3.1,0
			v-4.1h-35.1v4.1c7.9,0,13.6,3.7,13.6,9.7s0,47.4,0,62.9S527,323.4,527,323.4z"/>
	</g>
	<g>
		<path class="st0" d="M402.1,228.3c23.3,0,27.2,22.8,27.2,22.8h3.7v-29.3h-4.5l-1.3,6.8c-4.5-3.7-25.1-6.8-25.1-6.8V228.3z"/>
	</g>
	<g>
		<path class="st0" d="M368.8,306.9c3.1,0,4.4,2.1,12,4.7c9,2.5,16.8,1.6,16.8,1.6v-5.8c0,0-28.5,1.6-33.5-25.7h-4.7v32.2h3.9
			C363.3,313.9,365.7,306.9,368.8,306.9z"/>
	</g>
	<g>
		<path class="st0" d="M401.5,307.6v5.6c0,0,19.9,0.7,30.7-11.9c10.8-12.6,6.3-32.8-10.5-40.5c-16.8-7.7-32.8-11.2-37-17.8
			c-4.2-6.6-0.3-13.3,12.2-15.4l0.3-5.8c0,0-22-2.7-33.5,14.7c-11.5,17.4,3,32,14.8,35.9s35.9,13.6,37.3,21.3
			C417.2,301.3,408.1,306.9,401.5,307.6z"/>
	</g>
	<g>
		<path class="st0" d="M347.2,101.7l1.9,9.2c0.1,0.6,0.3,1.1,0.6,1.4c0.4,0.5,1.1,0.6,2,0.4c1.8-0.4,3-1.1,3.5-2.2
			c0.5-1.1,0.6-2.5,0.3-4.3c-0.5-2.6-1.7-4.2-3.5-4.7C350.9,101.1,349.3,101.2,347.2,101.7z"/>
	</g>
	<g>
		<path class="st0" d="M347,100.6c2.4-0.5,3.9-1.2,4.6-2.1c0.7-0.9,0.8-2.3,0.4-4.2c-0.3-1.4-0.8-2.5-1.5-3.4
			c-0.7-0.9-1.9-1.1-3.4-0.8c-0.8,0.2-1.3,0.4-1.6,0.7c-0.3,0.3-0.3,0.8-0.2,1.5L347,100.6z"/>
	</g>
	<g>
		<path class="st0" d="M288.9,127.1c1.9,2.2,3.7,3.9,5.3,4.8c3,1.8,5.7,1.7,8.1-0.3c2.4-2,2.9-4.6,1.6-7.9c-0.7-1.8-2-3.8-3.9-6
			c-2.6-3.1-5-5-7.4-5.7c-2.3-0.7-4.3-0.4-6,1.1c-2.4,2-2.9,4.7-1.6,8C285.7,122.9,287,124.9,288.9,127.1z"/>
	</g>
	<g>
		<path class="st0" d="M259.3,146.8c2,2.1,3.9,3.6,5.6,4.5c3.1,1.7,5.8,1.4,8.1-0.7c2.2-2.1,2.6-4.8,1.2-8c-0.8-1.7-2.2-3.7-4.2-5.8
			c-2.8-2.9-5.3-4.7-7.7-5.3c-2.3-0.6-4.3-0.1-6,1.4c-2.3,2.1-2.6,4.8-1.2,8.1C255.9,142.7,257.3,144.7,259.3,146.8z"/>
	</g>
	<g>
		<polygon class="st0" points="377.4,91.4 377.1,91.4 374.2,100.5 382.3,99.7 		"/>
	</g>
	<g>
		<path class="st0" d="M399.7,119.9c70.1,0,131.3,33.1,163.8,82.1l30.6-23.9l-5-7.1c-20.9-29.7-48.9-54.4-80.9-71.5
			c-16.2-8.6-33.5-15.3-51.3-19.8c-18.3-4.6-37.5-7-57.2-7c-12.4,0-24.6,1-36.4,2.8c-25,4-49.3,12.1-71.6,24
			c-32,17-60,41.8-80.9,71.5l-5.2,7.3l30.3,23.7C268.4,152.9,329.6,119.9,399.7,119.9z M555.5,142.8l7.9,8.6
			c1.5,1.7,2.6,3.2,3.2,4.7c1.2,2.7,0.8,5-1,6.7c-1.1,1.1-2.4,1.5-3.9,1.3c-1.4-0.2-2.7-0.7-3.8-1.5l-0.3,0.2
			c0.8,1.2,1.2,2.4,1.5,3.6c0.4,2.3-0.1,4.3-1.8,5.8c-1.5,1.4-3.4,1.9-5.7,1.3s-4.5-2-6.7-4.4l-8.3-9l0.7-0.6
			c0.7,0.7,1.3,1.2,1.8,1.3c0.8,0.3,1.6,0.1,2.4-0.7l13.4-12.4c0.8-0.7,1.1-1.5,0.9-2.3c-0.1-0.5-0.5-1.1-1.2-2L555.5,142.8z
			 M519.8,137.1l7.1-10.5c0.8-1.2,1.1-2,1-2.6c-0.1-0.5-0.8-1.3-1.9-2.2l0.5-0.8l11.6,7.9l-0.5,0.8c-1.4-0.9-2.4-1.3-3.1-1.2
			c-0.7,0-1.4,0.6-2.2,1.8l-7.1,10.5c-1.1,1.6-1.7,3-1.9,4.1c-0.3,2.1,0.6,3.9,2.7,5.3c2.6,1.8,5,2.1,7.2,0.9
			c1.2-0.6,2.4-1.8,3.5-3.6l6.5-9.6c0.8-1.1,1-2,0.9-2.8c-0.2-0.7-0.9-1.6-2.1-2.6l0.5-0.8l7.6,5.1l-0.5,0.8
			c-1.2-0.5-2.1-0.8-2.7-0.8s-1.2,0.6-1.8,1.6l-6.7,10c-1.8,2.7-3.9,4.2-6.3,4.7c-2.4,0.5-5.1-0.3-8.1-2.3c-4-2.7-5.9-5.6-5.9-8.7
			C518,140.7,518.6,138.9,519.8,137.1z M504,108.1l11.3,6.6l-0.5,0.8c-1.3-0.7-2.3-1-2.9-1c-0.6,0.1-1.3,0.8-2.1,2l-8.9,15.4
			c-0.4,0.7-0.5,1.3-0.3,1.8c0.2,0.5,0.9,1,2,1.6c1.9,1.1,3.8,1.6,5.7,1.5c1.8-0.1,3.9-1.1,6.4-3.1l0.9,0.5l-5.6,6.6l-18.7-10.9
			l0.5-0.8c0.9,0.5,1.6,0.7,2.1,0.7c0.8,0,1.5-0.4,2.1-1.4l9.2-15.8c0.6-0.9,0.6-1.8,0.2-2.4c-0.2-0.4-0.8-0.9-1.7-1.5L504,108.1z
			 M469.4,109.3c1.3-3.9,3.6-6.6,7-8.2c3.2-1.5,6.6-1.6,10.2-0.5c1.6,0.5,3,1.3,4.4,2.3c1.4,1.1,2.2,1.6,2.4,1.7
			c0.5,0.2,0.9,0.1,1.3-0.2c0.4-0.3,0.7-0.6,0.9-0.9l1,0.3l-2.7,8.4l-0.9-0.3c-0.3-2.1-0.8-3.8-1.4-5.2c-1.1-2.5-2.8-4.1-5-4.8
			c-2.5-0.8-4.6-0.3-6.3,1.4c-1.7,1.7-3.1,4.4-4.2,7.9c-0.8,2.6-1.2,4.8-1.1,6.6c0.2,3.5,1.8,5.7,4.9,6.7c1.9,0.6,3.9,0.7,5.8,0.2
			c1.1-0.3,2.6-0.9,4.3-1.8l0.8,1.2c-2,1.1-3.6,1.8-4.9,2.2c-2.4,0.6-4.7,0.6-7.1-0.2c-3.7-1.2-6.4-3.2-8.2-6.1
			C468.5,116.8,468.2,113.2,469.4,109.3z M422.6,108.4c1,0.1,1.8,0,2.2-0.2c0.8-0.3,1.2-1,1.4-2.1l2-18.2c0.1-1.1-0.1-1.9-0.8-2.3
			c-0.4-0.3-1.1-0.5-2.2-0.7l0.1-1l13,1.5l-0.1,1c-1.5-0.1-2.5,0-3.1,0.3s-0.9,1.2-1.1,2.7l-2,17.7c-0.1,0.8,0.1,1.4,0.5,1.7
			c0.4,0.3,1.2,0.5,2.5,0.7c2.2,0.3,4.2,0,5.8-0.9c1.6-0.8,3.2-2.6,4.6-5.4l1.1,0.1l-2.5,8.3l-21.5-2.4L422.6,108.4z M398.1,107
			c1,0,1.8-0.2,2.2-0.4c0.7-0.4,1.1-1.1,1.1-2.2V86.1c0-1.1-0.4-1.8-1.1-2.2c-0.4-0.2-1.2-0.4-2.2-0.4v-1h13.1v1
			c-1.5,0-2.5,0.3-3,0.6c-0.5,0.4-0.8,1.3-0.8,2.8v17.8c0,0.8,0.2,1.4,0.6,1.7c0.4,0.3,1.3,0.4,2.5,0.4c2.3,0,4.1-0.5,5.7-1.5
			c1.5-1,2.8-2.9,3.9-5.8h1.1l-1.5,8.5h-21.6V107z M369.7,107.7c0.3-0.5,0.8-1.6,1.4-3.3l7.3-21.4l1.2-0.1l11.2,18.8
			c1.3,2.1,2.2,3.5,2.8,4.1c0.6,0.6,1.3,0.8,2.3,0.7l0.1,1l-13.5,1.3l-0.1-1c1.4-0.2,2.2-0.4,2.6-0.6s0.6-0.6,0.5-1.3
			c0-0.3-0.2-0.7-0.5-1.3c-0.2-0.3-0.4-0.8-0.7-1.2l-1.3-2.2l-9.4,0.9c-0.5,1.6-0.8,2.6-0.9,3c-0.3,1-0.4,1.7-0.3,2.2
			c0.1,0.5,0.5,0.9,1.3,1.1c0.5,0.1,1.2,0.1,2.2,0l0.1,1l-8.5,0.8l-0.1-1C368.4,109,369.2,108.5,369.7,107.7z M347.1,88.9
			c2.3-0.5,4.3-0.6,5.9-0.4c3.1,0.4,4.9,1.8,5.4,4.3c0.3,1.5,0,2.9-1,4c-1,1.1-2.1,2-3.4,2.5l0.1,0.3c1.5,0,2.8,0.2,4,0.6
			c2.3,0.8,3.7,2.3,4.1,4.5c0.4,2-0.2,3.9-1.9,5.6c-1.7,1.7-4.2,2.8-7.5,3.5l-12.4,2.6l-0.2-0.9c1-0.3,1.8-0.5,2.2-0.9
			c0.7-0.5,0.9-1.4,0.7-2.4l-3.7-17.9c-0.2-1.1-0.7-1.7-1.5-1.9c-0.5-0.1-1.3-0.1-2.4,0l-0.2-0.9L347.1,88.9z M330.2,93.2l2.8,7.1
			l-1.1,0.4c-1.4-2.4-3.1-3.7-5.2-3.9c-1.2-0.1-2.8,0.2-4.8,0.9l7.3,18.5c0.5,1.3,1.1,2,1.8,2.3c0.7,0.2,1.8,0,3.4-0.6l0.4,0.9
			l-14.1,5.6l-0.4-0.9c1.5-0.6,2.5-1.2,2.8-1.9c0.3-0.6,0.3-1.6-0.2-2.9l-7.3-18.5c-1.9,0.8-3.3,1.7-4.1,2.6
			c-1.5,1.7-1.9,3.8-1.2,6.4l-1.1,0.4l-2.7-7.1L330.2,93.2z M280.2,121.9c0.4-3.7,2.3-7,5.6-9.8c3.2-2.7,6.6-4,10.3-3.9
			c3.8,0.1,7,1.7,9.5,4.7c2.6,3,3.6,6.4,3,10.2c-0.5,3.7-2.4,6.8-5.5,9.5c-3.4,2.8-7,4.1-10.8,3.8c-3.6-0.3-6.6-1.8-8.9-4.5
			C280.9,128.9,279.8,125.6,280.2,121.9z M250.4,142c0.2-3.8,1.9-7.1,5-10.1c3-2.8,6.4-4.3,10.1-4.4c3.8-0.1,7,1.3,9.8,4.2
			c2.7,2.9,3.9,6.2,3.6,10c-0.3,3.7-2,6.9-5,9.8c-3.2,3-6.7,4.5-10.6,4.4c-3.6-0.1-6.7-1.4-9.1-4C251.4,149,250.2,145.8,250.4,142z
			 M229.2,158.3c-0.5,0.1-1.1,0.6-1.9,1.4l-0.7-0.6l14.4-15.6l5.6,5.2l-0.6,0.7c-2-1.3-3.8-1.8-5.2-1.6c-1.4,0.2-3.1,1.3-5.1,3.5
			c-0.7,0.8-1.1,1.4-1.1,1.8c0,0.4,0.2,0.8,0.7,1.3l6.4,5.9c1.4-1.5,2-2.8,1.8-3.9c-0.2-1.1-0.9-2.5-2.1-4.1l0.6-0.7l9.4,8.6
			l-0.6,0.7c-1.7-1.2-3.1-1.8-4.3-1.9c-1.2-0.1-2.5,0.6-3.9,2.1l6.5,6c0.9,0.8,1.6,1,2.3,0.8c0.7-0.3,1.5-0.9,2.4-2l0.7,0.6
			l-9.1,9.9l-0.7-0.6c0.7-0.8,1.1-1.5,1.2-2c0.2-0.8-0.1-1.5-0.9-2.3l-13.4-12.4C230.8,158.3,230,158.1,229.2,158.3z"/>
	</g>
	<g>
		<path class="st0" d="M557.5,160.1c1.1,0.1,2.4-0.5,3.8-1.9c1.1-1,1.8-2,2.1-3c0.4-1.1,0-2.1-1-3.2c-0.5-0.6-1-0.9-1.4-0.9
			c-0.4,0-0.9,0.2-1.4,0.6l-6.2,5.7C555,159.1,556.4,160,557.5,160.1z"/>
	</g>
	<g>
		<path class="st0" d="M552.6,158.2l-6.9,6.4c-0.5,0.5-0.8,0.9-0.9,1.2c-0.2,0.6,0,1.2,0.6,1.9c1.2,1.3,2.4,1.9,3.6,1.8
			c1.2-0.1,2.5-0.8,3.8-2c2-1.8,2.7-3.6,2.3-5.4C554.9,161,554,159.7,552.6,158.2z"/>
	</g>
	<g>
		<path class="st0" d="M340.9,173.9c-1,3.6,0.5,5.9,4.4,6.4c3.9,0.5,6.2-4.6,3.5-6.9c-1.7-1.4-0.4-5.4-0.4-5.4
			C345,168.2,341.9,170.3,340.9,173.9z"/>
	</g>
	<g>
		<path class="st0" d="M340.6,200.5c0,0,2-2.8,5.1-2.8s5.8,3.3,9.4,3.3c3.7,0,13.4,0.1,11-13c0,0-1.6,3.4-3.8,3.7
			c-2.5,0.3-11.8-1.5-17.3,0.4c5.5-5.6,11.8-4.7,14.7-5.8c3.1-1.2,6.4-3.7,6.6-8.5c0.2-4.2-1.2-7.7-4.9-8.8
			c-6.5-2-12.4-0.8-12.4-0.8c5,3.1,4.9,7.5,4.7,11.3c-0.1,3.9-4.4,5.3-9,9.2c-3.4,2.9-4.2,6.9-4.3,8.7
			C340.3,198.5,340.4,199.6,340.6,200.5z"/>
	</g>
	<g>
		<path class="st0" d="M382.4,170.2h0.2V168c0,0-12.6,0.2-12.6,16.6c0,16.4,12.6,15.8,12.6,15.8v-2.1H382c-0.9,0-1.6-0.7-1.6-1.6
			v-24.6C380.5,171.1,381.3,170.2,382.4,170.2z"/>
	</g>
	<g>
		<path class="st0" d="M384.7,198.4h-0.6v2.1c0,0,12.6,0.6,12.6-15.8c0-16.4-12.6-16.6-12.6-16.6v2.1h0.6c0.9,0,1.6,0.7,1.6,1.6
			v25.1C386.2,197.7,385.5,198.4,384.7,198.4z"/>
	</g>
	<g>
		<path class="st0" d="M403.4,169.2v1.9h3.9v27.2h-3.5v2.1H423v-2.2h-3.9v-30.6C415.8,169.2,403.4,169.2,403.4,169.2z"/>
	</g>
	<g>
		<path class="st0" d="M441.2,171.4h0.4v-3.7c0,0-13.1-0.4-13.1,10.3s13.1,9.2,13.1,9.2v-3.1h-0.2c-0.9,0-1.6-0.7-1.6-1.6v-9.8
			C439.9,171.9,440.4,171.4,441.2,171.4z"/>
	</g>
	<g>
		<path class="st0" d="M456.7,181.1c0-11.3-10-13.4-13.7-13.4l-0.1,3.5h0.5c0.8,0,1.5,0.7,1.5,1.5v9.8c0,0.9-0.7,1.6-1.6,1.6H443
			v2.9h2.1c0,0,0.1,4.3-0.6,8.1c-0.7,3.8-8.1,3.3-8.1,3.3c2.6-0.7,3.2-4,3.1-5.8c-0.1-1.9-2.1-3.2-4.8-3.2c-2.7,0-5.1,1.2-5.3,3.4
			c-0.2,2.1-0.9,8.5,11.5,8.5C455.1,201.6,456.7,192.4,456.7,181.1z"/>
	</g>
	<g>
		<path class="st0" d="M604.7,366.8l-7.3,16.9c-9.6-3.2-18.9-6.2-27.9-8.8l4.4-20.2c0,0-44-9.1-61.5-11.2l-2.2,17
			c-9.8-1.8-19.3-3.3-28.5-4.6v-20.1l-62.2-2.1v17.7c-6.5-0.1-12.9-0.2-19.4-0.2v0c0,0-0.1,0-0.1,0c-0.1,0-0.3,0-0.4,0v0
			c-5.4,0-10.8,0.1-16.2,0.3v-16.9c0,0-36.1,1-60.2,4.2l0.6,18.1c-11.3,1.7-23,3.8-35.1,6.3l-0.6-16.5l-59.7,12l3.1,18.5
			c-9.5,2.7-19.3,5.5-29.4,8.7l-3-15.2c-19.8,6.2-36.7,12.7-44.1,15.6c1.4,16.1,3,31,4.8,44.9c19.1-8.9,115.1-50.5,240.4-54.2v0
			c111.3-3,219.4,44.7,239.9,54.2c2-14.9,3.7-31.1,5.2-48.6L604.7,366.8z M194.5,395.1l-5-16.2l3-0.9l5,16.2L194.5,395.1z
			 M224.5,388.5l-1.1-2.9l14.9-5.5l-3.6-15.7l3.1-0.7l4.2,18.4L224.5,388.5z M309.9,366.5l-0.5-3.1l20.4-3.2l-0.5-17l3.1-0.1
			l0.6,19.7L309.9,366.5z M397.4,359.5H377l-0.6-19.9l3.1-0.1l0.5,16.8h17.3V359.5z M428,357.1h-3.1v-17.5h3.1V357.1z M490,365.3
			l-17.4-1.1l-0.6-20.3l3.1-0.1l0.5,17.4l14.5,1L490,365.3z M563.9,378l-3.1-0.4l2.4-17.5l3.1,0.4L563.9,378z M602.6,392.8
			l-16.2-4.3l0.8-3l13.6,3.6l7.1-16.1l2.9,1.3L602.6,392.8z"/>
	</g>
	<g>
		<path class="st0" d="M400.3,437.8c-56.4,16.8-69.3,51-69.3,51c14-16.1,54.5-45.4,111.7-41.2c36.9,3.7,58.5,14.5,71.2,25.8v-16.9
			C498.1,440,452.1,422.4,400.3,437.8z"/>
	</g>
	<g>
		<path class="st0" d="M346.9,579c56.8,8,83.9-21.1,91.8-31.8c-31.5,27.7-76.5,34.2-116.1,5.1c-55.2-40.5-25.8-112.4,46.1-138.3
			c71.9-25.8,120.1,6.3,120.1,6.3c-37-14.7-65-11.2-92.2-7c-66.4,15.3-79.1,59.5-80.2,63.9c2-6.5,35.2-55,115.9-53.4
			c55.1,2.6,74.8,20,81.7,30v-60.6c-34.9-7.7-74.1-13.1-113.7-12v0c-42.2,1.3-81.1,6.8-114.7,13.9V544
			C296.4,559.2,315.1,574.5,346.9,579z"/>
	</g>
	<g>
		<path class="st0" d="M439.9,457.4c-66.3,0.7-93.6,46.1-93.6,46.1c19.6-17.5,53.4-36.3,108.3-28.6c30.4,6.1,48.6,18.4,59.4,31.6
			v-24.9C500.2,468.9,477.4,457,439.9,457.4z"/>
	</g>
	<g>
		<path class="st0" d="M453.2,483.9c-56.8-8-83.9,21.1-91.8,31.8c31.5-27.7,76.5-34.2,116.1-5.1c55.2,40.5,25.8,112.4-46.1,138.3
			c-71.9,25.8-120.1-6.3-120.1-6.3c37,14.7,65,11.2,92.2,7c66.4-15.3,79.1-59.5,80.2-63.9c-1.9,6.5-35.2,55-115.9,53.4
			c-56.8-2.7-76-21.1-82.3-30.9V660c5.3,4.1,10.8,8,16.5,11.9c42.6,29,81.8,43.8,98,49.1c16.1-5.3,55.3-20.1,98-49.1
			c5.5-3.7,10.8-7.5,16-11.5V518.1C503,503.2,484.4,488.3,453.2,483.9z"/>
	</g>
	<g>
		<path class="st0" d="M360.2,605.6c66.3-0.7,93.6-46.1,93.6-46.1c-19.6,17.5-53.4,36.3-108.3,28.6c-31-6.2-49.2-18.9-60-32.3v25
			C299.2,593.7,322.1,606,360.2,605.6z"/>
	</g>
	<g>
		<path class="st0" d="M399.8,625.1c56.4-16.8,69.3-51,69.3-51c-14,16.1-54.5,45.4-111.7,41.2c-37.4-3.8-59.2-14.8-71.8-26.4v16.8
			C300.8,622.5,347.3,640.7,399.8,625.1z"/>
	</g>
	<g>
		<path class="st0" d="M270.8,508.5c0,0-3.3,24.7,14.8,47.3V544C272.8,526.2,270.8,508.5,270.8,508.5z"/>
	</g>
	<g>
		<path class="st0" d="M517.4,460.9c0,0-0.6-2.9-3.5-7v2.7C515.3,458,516.5,459.4,517.4,460.9z"/>
	</g>
	<g>
		<path class="st0" d="M532.1,507c0,0,0-17.4-18.2-33.5v8.1C524.5,491.3,529.7,501.5,532.1,507z"/>
	</g>
	<g>
		<path class="st0" d="M282.7,602.1c0,0,0.5,2.5,2.9,6.1v-2.4C284.4,604.5,283.4,603.3,282.7,602.1z"/>
	</g>
	<g>
		<path class="st0" d="M529.3,554.4c0,0,3.4-25.3-15.4-48v11.7C527.2,536.2,529.3,554.4,529.3,554.4z"/>
	</g>
	<g>
		<path class="st0" d="M268,556c0,0,0,17,17.6,33v-8.2C275.4,571.3,270.4,561.3,268,556z"/>
	</g>
</g>
</svg>
