<?xml version="1.0" encoding="utf-8"?>
<!-- Generator: Adobe Illustrator 22.1.0, SVG Export Plug-In . SVG Version: 6.00 Build 0)  -->
<svg version="1.1" id="图层_1" xmlns="http://www.w3.org/2000/svg" xmlns:xlink="http://www.w3.org/1999/xlink" x="0px" y="0px"
	 viewBox="0 0 800 800" style="enable-background:new 0 0 800 800;" xml:space="preserve">
<style type="text/css">
	.st0{fill:#D7000F;}
	.st1{fill:#FFFFFF;}
</style>
<g>
	<g>
		<path class="st0" d="M645.5,338.8c-1.4-18.3-4.3-20.7-10.6-23.3c3.6-17.6-1.2-32.5-5.8-42.8c-4.6-10.3-3.6-21.9-2.6-27.7
			c1-5.8,3.1-7.2,2.5-19.1C584.7,77.6,523.7,77,507.3,77.3c-12.5-8-35.9-16.7-52.9-18.3c-17-1.6-74.8-5.1-79.3-7.1
			c-4.5-1.9-6.9-1.9-11.2-1.9s-5.3,4.8-10.9,4.5C232.4,46.1,230.1,76,230.1,76c-11.6-1-13.5,14.4-13.5,14.4
			c-36.1,4.3-52,127.5-52,127.5c5.8,5.3,3.6,15.4,3.4,24.5s-6.7,12.5-6.7,12.5l-0.5,27.4c-14.4,0.5-11.1,200.2-7.2,246
			s43.8,72.2,43.8,72.2c15.9,2.4,20.7,4.8,37.5,9.6c34.7,9.6,57.3,6.7,57.3,6.7l85.2,16.8c8.2,9.6,62.6,7.7,83.7,7.7
			c21.2,0,24.5-5.3,32.7-7.7c25,3.9,45.7-10.1,55.4-15.9c9.6-5.8,23.6-4.3,23.6-4.3c-1-8.2,13-29.8,13-29.8
			c63.5,37.1,62.4-78.1,63.7-115.4C650.8,431.2,646.9,357.1,645.5,338.8z"/>
		<path class="st1" d="M463.1,283.9c0,0,22.6-58.7,99.2-57.8c0,0-18.8-33.7-68.3-11.6C446.7,240.1,463.1,283.9,463.1,283.9z"/>
		<path class="st1" d="M466.9,291.1c0,0,18.3-64,100.6-59.2c0,0,14.9,42.8-27.9,66.4C496.8,321.9,476.1,301.7,466.9,291.1z"/>
		<path class="st1" d="M413,597.5c3.9-3.9,2.6-7.7,9.6-13.2c6.9-5.4,48.1-45.2,49.2-127.2c0-3.5,1-6.9,2.7-9.9l4.5-7.9
			c0.8-1.5,2.5-2.2,4.1-1.9c4.4,0.8,12.8,4.1,18.3,17.8c7.7,19.3,16.7,59.8,37.3,43.1c20.2-16.4,52.2-59.5,10.7-83.6
			c-1.4-0.8-2.3-2.1-2.6-3.7c-1.6-8.6-8.3-12.9-11.3-18.2c-3.2-5.8-6.7-29.9-26.4-42.1c-6.7-4.2-20.6-1.3-24.1,3.2
			c-3.5,4.5-4.2,10.3-4.2,10.3s-19.3,12.9-22.5,15.1c-3.2,2.2-10,5.1-11.2,0.3c-1.3-4.8-10-31.2-24.1-30.9
			c-14.1,0.3-21.9,28.3-21.9,28.3s-17,14.8-19.9,20.2c-2.9,5.5-6.4,8-11.2,8.4c-3.9,0.3-26.4,0.1-34.9,0c-2.3,0-4.5-0.9-6.1-2.4
			c-7.7-7-27.9-29-19-62.6c5.1-28.3,18-32.1,23.1-36c5.1-3.9,7.1-10.3,10.3-13.5c3.2-3.2,59.8-37.9,68.8-50.1
			c10.9-3.2,14.8-14.8,18.6-19.9c3.9-5.1,20.6-16.1,32.8-55.3c3.9-10.9-1.8-15.1,3.1-34.9c2.4-10.1,5.3-9.6-22.7-20.7
			c-6.3,1.4-26,1-51.1-9.6c-9.6-3.4-20.2,1.9-19.3,12.5s9.6,16.4,15.4,18.3c0,0,17.4,46.6-52.1,95.5c0,0-12.9-2.6-13.5-32.8
			c0,0-21.2-55.3-61.1-43.1c-39.9,12.2-32.8,64.9-5.8,73.9c27,9,40.5,8.4,49.5,24.1c0,0-78.1,40.5-78.1,113.8s47.2,107.4,61.1,111.2
			c5.1,1,9.6,10,26,12.5c15.7,2.5,32.3,7,60-6.2c2.6-1.2,5.6-1.1,8.1,0.4c2.3,1.4,5.2,3.7,8.1,7.1c6.1,7.4,0.2,27.3-10.4,39.9
			c-10.6,12.5-18.8,19.3-25.6,19c-5.8,1.9-12.1,9.7-14.2,11.4c-2.2,1.7-6,4.7-18.2,1.4c-12.2-3.2-32.1-12.9-43.7-5.1
			c-7.7,5.1-10.6,9-10.6,9l-0.5,18.8c0,0,19.3,8.7,24.1,35.2l85.3,16.9C372.5,628,409.2,601.3,413,597.5z"/>
	</g>
	<g>
		<path d="M245.5,683.9c0,0-43.3-0.2-48.5,0.8s-5.8,5.1-5.5,8c0.3,2.9,1.3,5.8,9.9,5.1c8.7-0.6,26-1.8,26-1.8s-33.4,36.1-35.7,40
			c-2.2,3.9-1.9,13.2,5.8,12.8s40.8-4.5,50.7-9c5.8-2.6,4.2-7.4-10.3-5.8c-14.4,1.6-22.8,2.2-28.9,2.9c-6.1,0.6-6.2-2.3-0.1-6.3
			c6.3-4.1,10.8-8.3,21.4-20.8c5.8-7.7,15-22.6,15.6-23.5S247,683.9,245.5,683.9z"/>
		<path d="M268.1,682.9c-3.9,0.2-4.6,3.1-4.6,5.8c0,2.6,0,5.1,0,5.8s0,1.9,1.7,2.4s4.8,0,4.8,0v39c0,0-10.8,0.2-13.5,4.8
			c-1.2,3.1-0.5,8.7,1.4,8.9c1.9,0.2,4.8,0.7,8.7-0.7c3.9-1.5,14.4-4.1,18.3-4.8s5.5-2.2,5.5-2.2v-6l-11.3-0.2
			c0,0,2.2-25.8,2.2-41.4c0,0,2.9-1,3.9-2.4s0.5-5.1,0.5-5.1S276.8,682.5,268.1,682.9z"/>
		<path d="M347.9,710.1c19.9-21.2,4.5-27.6-1.9-29.8c-6.4-2.2-24.4-2.6-30.5,0.3c-4.7,2.2-13.7,7.7-17.7,10.1c-1,0.6-1.3,2-0.6,3
			c6.2,8.2,7.5,6.1,9.9,4.6c2.6-1.6,6.4-2.6,6.4-2.6s0.3,38.8,1.3,44c1,5.1,4.2,10.3,17,10.3c12.8,0,27.9-12.9,28.6-21.5
			C361,719.7,347.9,710.1,347.9,710.1z M322.5,689.2c0,0,2.2,0,14.4,0c12.2,0,11.9,6.4,1.9,14.4c-9.9,8-16.4,7.1-16.4,7.1V689.2z
			 M339.5,739.6c-7.1,3.5-17,3.9-17,3.9v-21.8c9.1-2.7,21.2-1.6,21.2-1.6C351.1,723.5,346.6,736,339.5,739.6z"/>
		<path d="M405.3,697.2l-0.6-9.3c-22.8-13.2-41.1,9-41.1,32.7c0,23.7,16,28.6,24.4,29.2c8.3,0.7,23.1-10.3,24.1-18.7
			C414.6,707.2,405.3,697.2,405.3,697.2z M404,724.8c-0.6,6.1-9.9,15.4-17.6,14.4c-7.7-1-11.2-13.2-9-24.7
			c2.2-11.6,11.9-19.9,18-19.6c6.1,0.3,7.4,5,7.4,5C406.3,706.9,404.7,718.7,404,724.8z"/>
		<path d="M450.7,686.5c0,0,3.2-2.5,4.8-2.9c1.6-0.4,5-0.7,5,1.4c0,2.2-0.3,53.2-1.6,59.6l-2.2,2.2h-3.5l-1.9-5.8l0.5-52.8
			L450.7,686.5z"/>
		<path d="M516.3,684l-8.3,0.7c0,0-1.9-5.1-7.4-5.1c-5.5,0-23.1,9-23.7,13.5c-0.6,4.5-1.9,16,6.1,23.9c8,7.9,17.6,5.9,25.7,4.7
			c0,0,0.3,4.8,0.3,9c0,4.2-4.5,10.6-12.5,10.6c-8,0-10.3-0.6-18-10.9c-2.1-2.7-3.4,4-1.8,7.2c1.6,3.2,9.9,12.5,20.4,12.5
			c10.4,0,19.9-14.6,20.4-19.4C517.9,725.8,516.3,684,516.3,684z M496.1,716.1c-2.9-1.3-7-6.2-10.2-11.8c-1.3-2.3-0.9-5.3,1-7.1
			c3.3-3.3,9.8-7.9,20.1-7.7l1.6,26C508.6,715.5,498.5,717.2,496.1,716.1z"/>
		<path d="M555,716.9c0,0,10.8-7.9,10.6-16.4s-1.7-13.2-11.1-14.7c0,0-0.2-4.1-4.3-4.1c-4.1,0-9.1,0.7-15.2,5.5
			c-6,4.8-6.5,6.3-6.3,11.1c0.2,4.8,1.9,8.7,11.1,14.2c0,0-12.5,9.9-12,18.3s5.8,18.8,18.5,18.5s19-12.8,18.8-18.3
			C564.9,725.5,559.8,719.8,555,716.9z M537.9,699.8c-0.2-6.5,9.4-8.4,9.4-8.4c7,0,8.2,6.7,7.9,10.1s-5.3,7.7-10.1,7.2
			C540.3,708.2,538.1,706.3,537.9,699.8z M545.6,740.9c-4.6,0.2-8.2-2.6-8.7-9.4s6.5-11.6,11.1-11.8c5.3,0,8.7,5.3,9.1,10.3
			C557.6,735.2,550.2,740.7,545.6,740.9z"/>
		<path d="M574.4,690.2c0,0,5.5-3.9,9.6-5.1c4.2-1.3,15.7-1.6,17.3,13.2c1.6,14.8-14.1,31.1-17.3,33.7c0,0,4.2,1.9,28.6,3.9
			c0,0-1.9,8.3-8,8c-6.1-0.3-33.1-2.8-33.1-2.8l-0.3-10l5.1-0.6c0,0,11.9-14.2,13.2-20s2.2-15.1-1.9-15.7c-4.2-0.6-9,3.5-9,3.5
			L574.4,690.2z"/>
	</g>
</g>
</svg>
