<?xml version="1.0" encoding="utf-8"?>
<!-- Generator: Adobe Illustrator 22.1.0, SVG Export Plug-In . SVG Version: 6.00 Build 0)  -->
<svg version="1.1" id="图层_1" xmlns="http://www.w3.org/2000/svg" xmlns:xlink="http://www.w3.org/1999/xlink" x="0px" y="0px"
	 viewBox="0 0 800 800" style="enable-background:new 0 0 800 800;" xml:space="preserve">
<style type="text/css">
	.st0{fill:#D7000F;}
</style>
<g>
	<path class="st0" d="M645.5,338.8c-1.4-18.3-4.3-20.7-10.6-23.3c3.6-17.6-1.2-32.5-5.8-42.8c-4.6-10.3-3.6-21.9-2.6-27.7
		c1-5.8,3.1-7.2,2.5-19.1C584.7,77.6,523.7,77,507.3,77.3c-12.5-8-35.9-16.7-52.9-18.3c-17-1.6-74.8-5.1-79.3-7.1
		c-4.5-1.9-6.9-1.9-11.2-1.9s-5.3,4.8-10.9,4.5C232.4,46.1,230.1,76,230.1,76c-11.6-1-13.5,14.4-13.5,14.4
		c-36.1,4.3-52,127.5-52,127.5c5.8,5.3,3.6,15.4,3.4,24.5s-6.7,12.5-6.7,12.5l-0.5,27.4c-14.4,0.5-11.1,200.2-7.2,246
		s43.8,72.2,43.8,72.2c15.9,2.4,20.7,4.8,37.5,9.6c32.5,9,54.4,7,57,6.8c-4.9-26.2-24-34.8-24-34.8l0.5-18.8c0,0,2.9-3.9,10.6-9
		c11.6-7.7,31.5,1.9,43.7,5.1c12.2,3.2,16.1,0.2,18.2-1.4c2.2-1.7,8.4-9.5,14.2-11.4c6.7,0.3,14.9-6.4,25.6-19
		c10.6-12.5,16.6-32.5,10.4-39.9c-2.9-3.5-5.8-5.7-8.1-7.1c-2.4-1.5-5.5-1.6-8.1-0.4c-27.7,13.2-44.3,8.7-60,6.2
		c-16.4-2.6-20.9-11.6-26-12.5c-13.8-3.9-61.1-37.9-61.1-111.2S306,249.1,306,249.1c-9-15.7-22.5-15.1-49.5-24.1
		c-27-9-34.1-61.7,5.8-73.9c39.9-12.2,61.1,43.1,61.1,43.1c0.6,30.2,13.5,32.8,13.5,32.8c69.4-48.9,52.1-95.5,52.1-95.5
		c-5.8-1.9-14.5-7.7-15.4-18.3s9.6-15.9,19.3-12.5c25.1,10.6,44.8,11.1,51.1,9.6c28,11.1,25.1,10.6,22.7,20.7
		c-4.8,19.8,0.8,23.9-3.1,34.9c-12.2,39.2-28.9,50.1-32.8,55.3c-3.9,5.1-7.7,16.7-18.6,19.9c-9,12.2-65.6,46.9-68.8,50.1
		c-3.2,3.2-5.1,9.6-10.3,13.5c-5.1,3.9-18,7.7-23.1,36c-8.9,33.6,11.3,55.6,19,62.6c1.7,1.5,3.9,2.4,6.1,2.4
		c8.6,0.1,31.1,0.2,34.9,0c4.8-0.3,8.4-2.9,11.2-8.4c2.9-5.5,19.9-20.2,19.9-20.2s7.7-28,21.9-28.3c14.1-0.3,22.8,26,24.1,30.9
		c1.3,4.8,8,1.9,11.2-0.3c3.2-2.3,22.5-15.1,22.5-15.1s0.6-5.8,4.2-10.3c3.5-4.5,17.4-7.4,24.1-3.2c19.6,12.2,23.1,36.3,26.4,42.1
		c3,5.3,9.7,9.6,11.3,18.2c0.3,1.5,1.2,2.9,2.6,3.7c41.5,24.1,9.5,67.2-10.7,83.6c-20.6,16.7-29.6-23.8-37.3-43.1
		c-5.5-13.7-13.9-17-18.3-17.8c-1.7-0.3-3.3,0.5-4.1,1.9l-4.5,7.9c-1.7,3-2.6,6.4-2.7,9.9c-1.1,82-42.2,121.9-49.2,127.2
		c-7.1,5.5-5.8,9.3-9.6,13.2c-3.8,3.8-38.7,29.2-36,36.3l0.3,0.1c8.2,9.6,62.6,7.7,83.7,7.7c21.2,0,24.5-5.3,32.7-7.7
		c25,3.9,45.7-10.1,55.4-15.9c9.6-5.8,23.6-4.3,23.6-4.3c-1-8.2,13-29.8,13-29.8c63.5,37.1,62.4-78.1,63.7-115.4
		C650.8,431.2,646.9,357.1,645.5,338.8z M493.9,214.6c49.6-22.1,68.3,11.6,68.3,11.6c-76.5-1-99.2,57.8-99.2,57.8
		S446.7,240.1,493.9,214.6z M539.6,298.4c-42.8,23.6-63.5,3.4-72.7-7.2c0,0,18.3-64,100.6-59.2C567.5,231.9,582.4,274.8,539.6,298.4
		z"/>
	<path class="st0" d="M238.1,734.1c-14.4,1.6-22.8,2.2-28.9,2.9c-6.1,0.6-6.2-2.3-0.1-6.3c6.3-4.1,10.8-8.3,21.4-20.8
		c5.8-7.7,15-22.6,15.6-23.5s0.8-2.5-0.7-2.5c0,0-43.3-0.2-48.5,0.8c-5.1,1-5.8,5.1-5.5,8s1.3,5.8,9.9,5.1c8.7-0.6,26-1.8,26-1.8
		s-33.4,36.1-35.7,40c-2.2,3.9-1.9,13.2,5.8,12.8c7.7-0.3,40.8-4.5,50.7-9C254.2,737.3,252.6,732.5,238.1,734.1z"/>
	<path class="st0" d="M281.4,694.2c0,0,2.9-1,3.9-2.4s0.5-5.1,0.5-5.1s-8.9-4.3-17.6-3.9c-3.9,0.2-4.6,3.1-4.6,5.8
		c0,2.6,0,5.1,0,5.8s0,1.9,1.7,2.4s4.8,0,4.8,0v39c0,0-10.8,0.2-13.5,4.8c-1.2,3.1-0.5,8.7,1.4,8.9c1.9,0.2,4.8,0.7,8.7-0.7
		c3.9-1.5,14.4-4.1,18.3-4.8s5.5-2.2,5.5-2.2v-6l-11.3-0.2C279.2,735.6,281.4,709.9,281.4,694.2z"/>
	<path class="st0" d="M347.9,710.1c19.9-21.2,4.5-27.6-1.9-29.8c-6.4-2.2-24.4-2.6-30.5,0.3c-4.7,2.2-13.7,7.7-17.7,10.1
		c-1,0.6-1.3,2-0.6,3c6.2,8.2,7.5,6.1,9.9,4.6c2.6-1.6,6.4-2.6,6.4-2.6s0.3,38.8,1.3,44c1,5.1,4.2,10.3,17,10.3
		c12.8,0,27.9-12.9,28.6-21.5C361,719.7,347.9,710.1,347.9,710.1z M322.5,689.2c0,0,2.2,0,14.4,0c12.2,0,11.9,6.4,1.9,14.4
		c-9.9,8-16.4,7.1-16.4,7.1V689.2z M339.5,739.6c-7.1,3.5-17,3.9-17,3.9v-21.8c9.1-2.7,21.2-1.6,21.2-1.6
		C351.1,723.5,346.6,736,339.5,739.6z"/>
	<path class="st0" d="M404.7,687.9c-22.8-13.2-41.1,9-41.1,32.7c0,23.7,16,28.6,24.4,29.2c8.3,0.7,23.1-10.3,24.1-18.7
		c2.6-24.1-6.7-34-6.7-34L404.7,687.9z M404,724.8c-0.6,6.1-9.9,15.4-17.6,14.4c-7.7-1-11.2-13.2-9-24.7c2.2-11.6,11.9-19.9,18-19.6
		c6.1,0.3,7.4,5,7.4,5C406.3,706.9,404.7,718.7,404,724.8z"/>
	<path class="st0" d="M455.5,683.7c-1.6,0.4-4.8,2.9-4.8,2.9l1,1.8l-0.5,52.8l1.9,5.8h3.5l2.2-2.2c1.3-6.4,1.6-57.4,1.6-59.6
		C460.5,682.9,457,683.3,455.5,683.7z"/>
	<path class="st0" d="M508,684.7c0,0-1.9-5.1-7.4-5.1c-5.5,0-23.1,9-23.7,13.5c-0.6,4.5-1.9,16,6.1,23.9c8,7.9,17.6,5.9,25.7,4.7
		c0,0,0.3,4.8,0.3,9c0,4.2-4.5,10.6-12.5,10.6c-8,0-10.3-0.6-18-10.9c-2.1-2.7-3.4,4-1.8,7.2c1.6,3.2,9.9,12.5,20.4,12.5
		c10.4,0,19.9-14.6,20.4-19.4c0.5-4.8-1.1-46.6-1.1-46.6L508,684.7z M496.1,716.1c-2.9-1.3-7-6.2-10.2-11.8c-1.3-2.3-0.9-5.3,1-7.1
		c3.3-3.3,9.8-7.9,20.1-7.7l1.6,26C508.6,715.5,498.5,717.2,496.1,716.1z"/>
	<path class="st0" d="M565.6,700.5c-0.2-8.4-1.7-13.2-11.1-14.7c0,0-0.2-4.1-4.3-4.1c-4.1,0-9.1,0.7-15.2,5.5
		c-6,4.8-6.5,6.3-6.3,11.1c0.2,4.8,1.9,8.7,11.1,14.2c0,0-12.5,9.9-12,18.3s5.8,18.8,18.5,18.5s19-12.8,18.8-18.3
		c-0.2-5.5-5.3-11.3-10.1-14.2C555,716.9,565.8,708.9,565.6,700.5z M557.2,730.1c0.5,5.1-7,10.6-11.6,10.8c-4.6,0.2-8.2-2.6-8.7-9.4
		s6.5-11.6,11.1-11.8C553.3,719.8,556.7,725.1,557.2,730.1z M555.2,701.5c-0.2,3.4-5.3,7.7-10.1,7.2c-4.8-0.5-7-2.4-7.2-8.9
		s9.4-8.4,9.4-8.4C554.3,691.4,555.5,698.1,555.2,701.5z"/>
	<path class="st0" d="M601.4,698.2c-1.6-14.8-13.2-14.4-17.3-13.2c-4.2,1.3-9.6,5.1-9.6,5.1l4.2,8c0,0,4.8-4.2,9-3.5
		c4.2,0.6,3.2,9.9,1.9,15.7s-13.2,20-13.2,20l-5.1,0.6l0.3,10c0,0,27,2.5,33.1,2.8c6.1,0.3,8-8,8-8c-24.4-1.9-28.6-3.9-28.6-3.9
		C587.2,729.3,603,712.9,601.4,698.2z"/>
</g>
</svg>
