<?xml version="1.0" encoding="utf-8"?>
<!-- Generator: Adobe Illustrator 22.1.0, SVG Export Plug-In . SVG Version: 6.00 Build 0)  -->
<svg version="1.1" id="图层_1" xmlns="http://www.w3.org/2000/svg" xmlns:xlink="http://www.w3.org/1999/xlink" x="0px" y="0px"
	 viewBox="0 0 800 800" style="enable-background:new 0 0 800 800;" xml:space="preserve">
<style type="text/css">
	.st0{fill:#D80E18;}
</style>
<path class="st0" d="M401.6,686.7c-156.7,0-284.2-127.5-284.2-284.2c0-156.7,127.5-284.2,284.2-284.2
	c156.7,0,284.2,127.5,284.2,284.2C685.8,559.2,558.3,686.7,401.6,686.7z M401.6,125.5c-152.7,0-277,124.2-277,277
	c0,152.7,124.2,277,277,277c152.7,0,277-124.2,277-277C678.6,249.8,554.4,125.5,401.6,125.5z"/>
<path class="st0" d="M714.2,278.4c14.5,37.9,22.1,78.5,22.1,120.3c0,89.6-34.9,173.8-98.2,237.1C574.8,699.1,490.6,734,401,734
	c-89.6,0-173.8-34.9-237.1-98.2S65.7,488.3,65.7,398.7c0-42.1,7.7-83,22.5-121.1l-12.6-5C60.3,311.6,52,354.2,52,398.7v0
	c0,192.7,156.3,349,349,349h0c192.7,0,349-156.3,349-349v0c0-44.2-8.2-86.4-23.2-125.3L714.2,278.4z"/>
<path class="st0" d="M690.1,288c13.1,34.5,20,71.5,20,109.6v2.3c0,82.3-32,159.6-90.2,217.7c-58.2,58.2-135.5,90.2-217.7,90.2h-2.3
	c-82.3,0-159.6-32-217.7-90.2c-58.2-58.2-90.2-135.5-90.2-217.7v-2.3c0-38.4,7-75.6,20.3-110.4l-12.6-5
	c-13.8,35.8-21.4,74.7-21.4,115.4v2.3c0,177.6,144,321.6,321.6,321.6h2.3c177.6,0,321.6-144,321.6-321.6v-2.3
	c0-40.4-7.5-79-21-114.6L690.1,288z"/>
<g>
	<g>
		<g>
			<g>
				<path class="st0" d="M569.6,113.2c0.8-1.4,1.2-2,2-3.4c-2-1.2-3-1.7-5-2.9c3.2-5.7,4.8-8.5,8-14.2c-4.8-2.7-7.3-4-12.2-6.5
					c-3,5.8-4.4,8.7-7.4,14.5c-2.1-1-3.1-1.6-5.2-2.6c-0.7,1.4-1,2.1-1.7,3.5c2,1,3.1,1.5,5.1,2.5c-5.5,10.9-11.1,21.7-16.6,32.6
					c4.1,2.1,6.2,3.2,10.2,5.4c6-10.6,11.9-21.3,17.9-31.9C566.6,111.5,567.6,112,569.6,113.2z"/>
				<path class="st0" d="M602.5,118.2c-1.2-0.8-1.7-1.2-2.9-2.1c1.7-2.1,2.6-3.1,4.3-5.2c-4-2.8-6.1-4.2-10.2-6.9
					c-1.6,2.1-2.5,3.2-4.1,5.4c-4.5-2.9-6.7-4.3-11.3-7c-0.8,1.4-1.2,2-2,3.4c4.4,2.6,6.6,3.9,10.9,6.7
					c-9.3,12.4-18.5,24.9-27.6,37.4c3.5,2.2,5.2,3.3,8.6,5.6c9.5-12.2,19.2-24.3,28.9-36.4c1.3,0.9,1.9,1.3,3.1,2.2
					c-7.7,10.9-15.4,21.7-23.2,32.6c-0.9,1.3-3,1.4-4.6,0.3c-0.3-0.2-0.4-0.3-0.7-0.5c-0.8,1.2-1.3,1.8-2.1,3c1.4,1,2.2,1.5,3.6,2.5
					c0.2,0.2,0.3,0.2,0.6,0.4c2.2,1.6,3.4,2.4,5.6,4.1c1.8,1.4,4.2,1.3,5.4-0.2c9.6-12.4,19.2-24.9,28.8-37.3
					c-0.3-0.2-0.4-0.3-0.7-0.6C608.8,122.7,606.7,121.2,602.5,118.2z"/>
				<path class="st0" d="M575.4,109.3c-8.4,11.4-16.6,23-24.8,34.5c2.7,1.5,4,2.3,6.6,3.9c8.5-11.4,17-22.7,25.7-33.9
					C579.9,112,578.4,111.1,575.4,109.3z"/>
				<path class="st0" d="M611.3,134c-8.7,11.1-17.4,22.2-26.2,33.3c1.7,1.4,2.6,2.1,4.3,3.5c8.9-10.9,17.8-21.9,26.8-32.8
					C614.3,136.3,613.3,135.5,611.3,134z"/>
			</g>
			<g>
				<path class="st0" d="M666.4,189.6c6,1.3,9.1,2,15.2,3.7c6,8.2,8.9,12.5,14.4,21.3c-0.7,6.4-1.1,9.6-2,15.9
					c3.8,6.5,5.6,9.8,9,16.6c1.7-8.8,2.4-13.3,3.6-22.4c-0.8-1.4-1.2-2-2-3.4c-3.1-5.4-4.8-8-8.1-13.2c-3.5-5.4-5.3-8-8.9-13.2
					c-4.4-6.2-6.6-9.2-11.3-15.1c-2-2.5-3-3.8-5.1-6.3c-0.3,2-0.4,3-0.7,5c-6.3-1.3-9.4-1.9-15.6-2.8
					C659.7,181.3,662,184,666.4,189.6z"/>
				<path class="st0" d="M651.3,183.4c16.5,19.9,30.4,40.5,42.8,63.1c1.4-0.7,2.1-1.1,3.5-1.8c-12.6-22.9-26.6-43.8-43.3-63.9
					C653,181.9,652.4,182.4,651.3,183.4z"/>
				<path class="st0" d="M641.9,187.2c4.6,5.3,6.9,8,11.3,13.6c-9.7,0.6-19.6,1.8-29.3,3.4c2.4,2.8,3.6,4.2,6,7.1
					c1.6,1.9,2.3,2.9,3.9,4.9c8.7,11.1,16.3,22.9,23.7,35c0.8,1.4,1.2,2,1.9,3.4c1.2,2,1.7,3.1,2.8,5.1c2.3,0.5,2.9,0.6,5.2,1.2
					c3.8-7.1,5.6-10.7,9-18c-3.4-5.9-5.1-8.8-8.7-14.4c-3.1,7.5-4.8,11.2-8.2,18.5c-6.4-10.8-13.4-21.3-21.1-31.2
					c9.8-0.9,14.8-1.2,24.9-1.3c8.7,12.9,16.6,26.1,24,39.8c1.4-0.7,2.1-1.1,3.5-1.8c-13.1-24.4-28.1-46.8-46-67.9
					C643.7,185.6,643.1,186.1,641.9,187.2z"/>
			</g>
			<path class="st0" d="M142.5,172.8c-3.7,4.2-5.4,6.4-9,10.8c-4.5,5.6-6.7,8.5-11,14.5c-2.6-1.9-3.9-2.8-6.5-4.7
				c-3.6,5.1-5.4,7.7-8.9,13c2.7,1.8,4,2.7,6.7,4.4c-2.9,4.4-4.2,6.6-7,11.1c-1,1.7-1.6,2.6-2.6,4.4c1.4,0.8,2,1.2,3.4,2
				c3.6-6.3,5.5-9.3,9.4-15.3c8.2,5.4,16.5,10.9,24.7,16.3c-4,6.1-5.9,9.2-9.6,15.6c-9.7-5.6-19.4-11.2-29-16.8
				c-3,5.2-4.5,7.9-7.3,13.3c-0.6,1.1-0.9,1.7-1.5,2.8c0.2,0.1,0.4,0.1,0.7,0c1.6-0.5,2.3-0.7,3.9-1.2c8.9,4.6,17.8,9.3,26.6,13.9
				c1.4,0.7,2.1,1.1,3.5,1.8c2.5-4.8,3.8-7.2,6.5-11.9c3.6-6.3,5.5-9.4,9.5-15.4c3.9,2.6,5.9,3.9,9.8,6.5c2.9-4.4,4.4-6.6,7.4-10.9
				c-3.8-2.8-5.7-4.2-9.5-6.9c3.8-5.3,5.8-7.9,9.8-12.9c0.4-0.5,0.6-0.7,1-1.2c1.7-2.1,2.6-3.1,4.3-5.2c1.6-1.9,1.8-4.4,0.4-5.6
				c-8.5-7.5-17.1-15.1-25.6-22.6C142.6,172.7,142.6,172.7,142.5,172.8z M159.6,204.7c-4.1,5.1-6,7.7-9.9,13.1
				c-8-5.8-16-11.6-24-17.4c4.2-5.9,6.4-8.7,10.8-14.3C144.3,192.3,151.9,198.5,159.6,204.7z"/>
			<g>
				<path class="st0" d="M230.2,144.5c-4.4,2.9-6.6,4.5-10.9,7.6c0.9,1.3,1.4,1.9,2.3,3.2c10.6-7.8,21.8-14.9,33.3-21.2
					c-0.8-1.4-1.1-2.1-1.9-3.5c-5.1,2.8-7.7,4.3-12.7,7.3c-4.1-6.8-6.2-10.1-10.4-16.9c5.3-3.2,7.9-4.8,13.3-7.7
					c-0.8-1.4-1.1-2.1-1.9-3.5c-5.5,3-8.2,4.5-13.5,7.8c-1.7-2.8-2.5-4.1-4.2-6.9c5.5-3.3,8.2-4.9,13.8-8c-0.8-1.4-1.1-2.1-1.9-3.5
					c-13,7.4-25.4,15.3-37.7,24c0.9,1.3,1.4,1.9,2.3,3.2c4.8-3.5,7.2-5.2,12.2-8.5c1.8,2.7,2.7,4,4.5,6.7c-4.8,3.2-7.2,4.9-11.9,8.3
					c0.9,1.3,1.4,1.9,2.3,3.2c4.6-3.4,7-5.1,11.7-8.2C223.6,134.6,225.8,137.9,230.2,144.5z"/>
				<path class="st0" d="M232.5,124c4.5,3.6,6.7,5.4,11.1,9.1c3.5-2,5.2-3,8.7-4.9c-4.2-3.8-6.4-5.7-10.8-9.5
					C237.9,120.8,236,121.8,232.5,124z"/>
				<path class="st0" d="M240,87.6c-2.3,1.2-3.4,1.8-5.7,3c-9.8,5.5-19.3,11.1-28.7,17.2c-4.8,3.2-7.2,4.9-11.9,8.3
					c0.9,1.3,1.4,1.9,2.3,3.2c12.8-9.3,26.2-17.8,40.1-25.2c7.5,14,15.1,27.9,22.6,41.9c-12.9,7.2-25.1,15-37.1,23.6
					c-10.3-13.8-20.6-27.6-30.8-41.3c-4.5,3.3-6.7,5.1-11.1,8.6c0,0,0,0,0,0c0,0,0,0,0,0c-0.9,0.7-1.3,1.1-2.2,1.8
					c0.1,0.2,0.4,0.3,0.6,0.3c1.5,0.2,2.2,0.3,3.7,0.6c10.9,13.5,21.8,27,32.8,40.5c2.5-2.1,3.8-3.1,6.4-5.1
					c1.2-0.9,1.7-1.3,2.9-2.2c11.9-8.5,23.9-16.1,36.6-23.3c0.6-0.3,0.9-0.5,1.5-0.8c2.1-1.1,3.1-1.6,5.2-2.7c2-1,3-3.2,2.2-4.8
					c-7.6-15.6-15.3-31.2-22.9-46.8C243.9,85.6,242.6,86.3,240,87.6z"/>
			</g>
			<path class="st0" d="M351.1,104.3c-1.2-6.8-1.7-10.2-2.9-17c9.2-1.6,18.7-2.7,28.1-3.4c-0.1-1.7-0.2-2.6-0.3-4.3
				c-9.5,0.7-19.1,1.9-28.4,3.5c-0.5-3-0.8-4.6-1.3-7.6c5-0.8,7.5-1.2,12.6-1.9c0,0,0,0,0,0c5-0.6,7.5-0.9,12.5-1.4
				c2.5-0.2,4.3-1.9,4.2-3.7c-0.6-7.6-0.9-11.3-1.5-18.9c-7.2,0.6-10.9,0.9-18.1,1.9c-12.5,1.6-25,3.9-37.3,6.8
				c0.5,2,0.7,3.1,1.2,5.1c12.1-2.9,24.4-5.1,36.7-6.7c0.7,5.1,1,7.6,1.7,12.7c-13,1.7-25.9,4.1-38.7,7.2c-1.8-7-2.7-10.5-4.4-17.5
				c-3.6,0.9-5.4,1.4-9.1,2.4c-3.4,0.9-5.1,1.4-8.5,2.5c0,0,0,0,0,0c0,0,0,0,0,0c-1,0.3-1.6,0.5-2.6,0.8c0.1,0.2,0.2,0.4,0.4,0.5
				c1.3,0.8,1.9,1.2,3.2,2c2.2,7.2,3.3,10.8,5.6,18c6.1-1.8,9.1-2.7,15.3-4.2c0,0,0,0,0,0c5.4-1.4,8.1-2,13.5-3.1
				c2,9.5,4.1,19.1,6.1,28.6c-5.6,1.2-8.3,1.8-13.9,3.2c-0.4-10.7-0.6-16-0.6-26.7c-5.5,1.3-8.2,2-13.6,3.5
				c0.5,10.4,1.2,20.7,2.1,31c2-0.6,3-0.9,4.9-1.5c2.9-0.8,4.4-1.2,7.4-2c18.2-4.3,36.1-7.3,54.7-9c-0.1-1.7-0.2-2.6-0.3-4.3
				C370.2,101.5,360.6,102.6,351.1,104.3z"/>
			<g>
				<path class="st0" d="M494.6,85.8c2.8-4.4,4.2-6.6,7-11c-4.2-1.3-6.2-1.8-10.4-3c-2.7,4.4-4,6.7-6.7,11.2
					C488.5,84.1,490.6,84.6,494.6,85.8z"/>
				<path class="st0" d="M493.1,88c-4-1.2-6-1.7-10.1-2.7c-0.2,10.2-0.7,20.4-1.4,30.6c3.6,1,5.5,1.5,9.1,2.7
					C491.8,108.4,492.6,98.2,493.1,88z"/>
				<g>
					<path class="st0" d="M441.9,101.7c1.3-9.9,2-14.9,3.3-24.8c2.4,0.3,3.6,0.5,6.1,0.9c0.2-1.6,0.4-2.3,0.6-3.9
						c-2.5-0.4-3.7-0.5-6.1-0.9c0.8-6.1,1.2-9.1,2.1-15.2c3.3,0.4,4.9,0.7,8.2,1.2c0.3-1.6,0.4-2.4,0.6-4c-9.9-1.6-20-2.7-30-3.4
						c-0.1,1.6-0.2,2.4-0.3,4c3.3,0.2,5,0.4,8.3,0.7c-0.6,6.1-0.9,9.2-1.5,15.3c-2.5-0.2-3.7-0.3-6.2-0.5c-0.1,1.6-0.2,2.4-0.3,3.9
						c2.4,0.2,3.7,0.3,6.1,0.5c-1,10.3-1.5,15.4-2.5,25.7c-3-0.1-4.6-0.1-7.6-0.1c0.1,1.6,0.1,2.4,0.1,3.9c9.7,0,14.6,0.1,24.3,0.9
						c0.1-1.6,0.1-2.4,0.2-3.9C445.2,101.9,444.1,101.9,441.9,101.7z"/>
					<path class="st0" d="M467.2,66.4c-4.2-0.8-6.4-1.2-10.6-1.9c0.6,5.2,0.9,7.7,1.4,12.9c4.1,0.7,6.2,1.1,10.2,1.9
						C467.8,74.1,467.6,71.6,467.2,66.4z"/>
					<path class="st0" d="M458.9,80.2c-4,9.4-7.9,18.9-11.5,28.4c3.7,0.6,5.6,0.9,9.3,1.6c3.9-9.4,8-18.8,12.4-28.1
						C465.1,81.3,463,80.9,458.9,80.2z"/>
					<path class="st0" d="M502.7,68.3c0.4-1.2,0.5-1.7,0.9-2.9c-3.7-1.1-5.5-1.6-9.2-2.6c-0.3,1.2-0.5,1.7-0.8,2.9
						c-2.4-0.6-3.6-1-6-1.6c0.5-2,0.8-3,1.3-5c-2.7-0.7-4.1-1-6.8-1.6c-2.6-0.6-3.9-0.9-6.5-1.4c0,0,0,0,0,0c0,0,0,0,0,0
						c-1-0.2-1.5-0.3-2.5-0.5c0,0.2,0,0.4,0.1,0.6c0.7,1.2,1,1.8,1.7,3c-0.2,0.7-0.2,1.1-0.4,1.9c-6.9-1.5-10.4-2.1-17.4-3.2
						c-0.3,1.6-0.4,2.4-0.6,4c6.9,1.1,10.3,1.7,17.2,3.2c-3,13.8-5.9,27.6-8.9,41.4c-0.2,1.1-1.4,1.7-2.7,1.4
						c-1.1-0.2-1.6-0.3-2.7-0.5c-0.3,1.3-0.4,2-0.6,3.3c2,0.4,3,0.6,5,1c0.1,0,0.2,0,0.4,0.1c2.7,0.6,4.1,0.9,6.8,1.5
						c2.2,0.5,4.3-0.5,4.7-2.3c3.6-14.3,7.3-28.6,10.9-42.8c6.8,1.7,10.2,2.6,16.9,4.7c0.5-1.5,0.7-2.3,1.2-3.9
						C503.9,68.6,503.5,68.5,502.7,68.3z"/>
				</g>
			</g>
		</g>
	</g>
</g>
<g>
	<g>
		<rect x="203.5" y="271.6" class="st0" width="396.9" height="4.6"/>
		<path class="st0" d="M618.7,326.4l-8.9-43.3H194.2l-8.9,43.3h111.8v-11c0-6.9,5.6-12.5,12.5-12.5c6.9,0,12.5,5.6,12.5,12.5v11
			h20.5v-11c0-6.9,5.6-12.5,12.5-12.5s12.5,5.6,12.5,12.5v11h20.5v-16.7c0-7.6,6.1-13.7,13.7-13.7s13.7,6.1,13.7,13.7v16.7h20.5v-11
			c0-6.9,5.6-12.5,12.5-12.5s12.5,5.6,12.5,12.5v11h20.5v-11c0-6.9,5.6-12.5,12.5-12.5c6.9,0,12.5,5.6,12.5,12.5v11H618.7z"/>
		<path class="st0" d="M506.9,221.6c13.1-4.3,13.7-16,13.7-16s-22.8,1.7-22.8-18.2c0-20-16-23.1-16-23.1v13.8H402h-79.8v-13.8
			c0,0-16,3.1-16,23.1c0,20-22.8,18.2-22.8,18.2s0.6,11.7,13.7,16c0,11.1-25.1,13.4-25.1,13.4s1.7,13.4,16,16.5v13.2h9.1v-10.2
			c0-1.9,1.5-3.4,3.4-3.4h9.1c1.9,0,3.4,1.5,3.4,3.4v10.2h6.8v-10.2c0-1.9,1.5-3.4,3.4-3.4h9.1c1.9,0,3.4,1.5,3.4,3.4v10.2h6.8
			v-10.2c0-1.9,1.5-3.4,3.4-3.4h9.1c1.9,0,3.4,1.5,3.4,3.4v10.2h6.8v-10.2c0-1.9,1.5-3.4,3.4-3.4h9.1c1.9,0,3.4,1.5,3.4,3.4v10.2
			h6.8v-10.2c0-1.9,1.5-3.4,3.4-3.4H402h10.3c1.9,0,3.4,1.5,3.4,3.4v10.2h6.8v-10.2c0-1.9,1.5-3.4,3.4-3.4h9.1
			c1.9,0,3.4,1.5,3.4,3.4v10.2h6.8v-10.2c0-1.9,1.5-3.4,3.4-3.4h9.1c1.9,0,3.4,1.5,3.4,3.4v10.2h6.8v-10.2c0-1.9,1.5-3.4,3.4-3.4
			h9.1c1.9,0,3.4,1.5,3.4,3.4v10.2h6.8v-10.2c0-1.9,1.5-3.4,3.4-3.4h9.1c1.9,0,3.4,1.5,3.4,3.4v10.2h9.1v-13.2
			c14.3-3.1,16-16.5,16-16.5S506.9,232.7,506.9,221.6z M312.7,184.4c0.2-1.1,1.1-1.9,2.2-1.9H402h87.1c1.1,0,2,0.8,2.2,1.9l1.9,11.2
			c0.1,0.4-0.2,0.7-0.6,0.7h-3c-0.4,0-0.8-0.3-0.9-0.7l-1.7-6.9c-0.2-1-1.1-1.6-2.1-1.6H402h-82.9c-1,0-1.9,0.7-2.1,1.6l-1.7,6.9
			c-0.1,0.4-0.5,0.7-0.9,0.7h-3c-0.4,0-0.7-0.3-0.6-0.7L312.7,184.4z M292,211l1-1c0,0,8,6,13,7h96h96c5-1,13-7,13-7l1,1
			c-1,6-14,11-14,11l5,6h-3l-4-4h-94h-94l-4,4h-3l5-6C306,222,293,217,292,211z M514,247H402H290c0,0-7,0-9-8l3-2c0,0,2.5,2.5,6,3
			h112h112c3.5-0.5,6-3,6-3l3,2C521,247,514,247,514,247z"/>
	</g>
</g>
<path class="st0" d="M401,358c-87.6,0-158.5,71-158.5,158.5S313.4,675,401,675c87.6,0,158.5-71,158.5-158.5S488.6,358,401,358z
	 M499.4,559.2h-19.9l-3.8-9.7h-31.9l6.8-18h17.9l-9-23l9.9-25.7L499.4,559.2z M353.1,386.7c0,0,1.1-14,47.9-14s47.9,14,47.9,14v4.3
	L401,403.2L353.1,391V386.7z M346.9,482.4c13.6,0,16.1,0,16.1,0v13.3c0,2.8-2.2,5.1-5,5.1h-10.2c-7,0-21.6,4.5-21.6,20.5
	c0,15.9,13.5,20.9,20.7,20.9s15.7,0,15.7,0v12.2c0,2.8-2.2,5.1-5,5.1H343c-11.5,0-34.8-9.4-34.8-38.2S333,482.5,346.9,482.4z
	 M261.1,529.7c0,0-13.2-4.7-1-49.9c12.1-45.2,25.9-42.6,25.9-42.6l4.1,1.1l-0.6,49.4l-24.3,43.1L261.1,529.7z M361,651.3
	c0,0-9.4,10.4-46.5-18.2c-37-28.5-29.4-40.3-29.4-40.3l2.6-3.4l45.4,19.5l30.5,39L361,651.3z M408.4,536h-14.3v23.3h-18.9v-76.9
	h56.8v0.4l-5.7,15c-0.7,2-2.5,3.2-4.6,3.2h-27.8v16.6v0h24.9l-5.7,15.2C412.3,534.7,410.5,536,408.4,536z M435.1,559.4h-19.9
	l28.2-73.6c0.9-2.4,2.7-3.5,6-3.5h15.4L439,549.5L435.1,559.4z M490.2,631.3c-36.5,29.2-46.1,19-46.1,19l-2.7-3.3l29.8-39.5
	l45.1-20.3l2.7,3.3C518.9,590.5,526.7,602.1,490.2,631.3z M539.4,529.7l-4.1,1.1L511,487.8l-0.6-49.4l4.1-1.1
	c0,0,13.8-2.5,25.9,42.6C552.6,525,539.4,529.7,539.4,529.7z"/>
</svg>
