<?xml version="1.0" encoding="utf-8"?>
<!-- Generator: Adobe Illustrator 22.1.0, SVG Export Plug-In . SVG Version: 6.00 Build 0)  -->
<svg version="1.1" id="图层_1" xmlns="http://www.w3.org/2000/svg" xmlns:xlink="http://www.w3.org/1999/xlink" x="0px" y="0px"
	 viewBox="0 0 800 800" style="enable-background:new 0 0 800 800;" xml:space="preserve">
<g>
	<g>
		<polygon points="213.3,580.2 194.9,580.2 194.9,587.2 250.9,587.2 250.9,580.2 230.3,580.2 230.3,545.1 250.5,545.1 250.5,538.2 
			230.3,538.2 230.3,523.8 250.5,523.8 250.5,516.8 194.6,516.8 194.6,523.8 213.3,523.8 213.3,538.2 194.6,538.2 194.6,545.1 
			213.3,545.1 		"/>
		<polygon points="231,551.7 237.5,575.7 251.4,575.7 245,551.7 		"/>
		<polygon points="503.8,544 508.5,521.9 494.5,521.9 489.9,544 		"/>
		<polygon points="502.8,548.5 488.8,548.5 498.1,601.5 512.2,601.5 		"/>
		<g>
			<polygon points="559.6,536.4 559.6,529.4 552.2,529.4 552.2,500.6 535.3,500.6 535.3,529.4 527.8,529.4 527.8,536.4 535.3,536.4 
				535.3,601.1 552.2,601.1 552.2,536.4 			"/>
			<path d="M598.2,512.3h-4.4l0.7-11.9h-14.9l-0.7,11.9h-16.7v7h16.1l-4.3,82H589l4.3-82h4.8V590c0,2.8-2.3,5.2-5.2,5.2h-1.1v6.5
				h6.4h1h10c3.3,0,6-2.6,6-6v-83.3h-1.1L598.2,512.3L598.2,512.3z"/>
			<polygon points="563.6,525.4 558.3,600.2 569.5,600.2 574.6,525.4 			"/>
			<rect x="618.6" y="525.4" width="8" height="74.9"/>
		</g>
		<g>
			<polygon points="668.1,525.8 682.5,508.3 711.7,508.3 726,525.8 747.5,525.8 727.5,501.4 723.2,501.4 706,501.4 688.1,501.4 
				666.6,501.4 657.3,501.4 661.2,507.9 646.6,525.8 			"/>
			<rect x="650.5" y="532.6" width="91.6" height="7"/>
			<path d="M646.3,556.4h22.4l-21.3,43.8h12.8h8.5h56.6h5.2h7.7c2-3.1,2.5-4.1,4.5-7.1l-14.2-29.4h-20.7l14.4,29.6h-49.8l17.9-36.8
				h56.4v-7H646.4v6.9H646.3z"/>
		</g>
		<path d="M151.6,514.5H135h-21.3v-14.2H96v14.2H81.1h-5.7v7h20.7V574h-23v-59.4h-17h-3.5c0,0.3,0.1,0.8,0.3,1.1l3.2,5.2V574v7H73
			h23v20.8h17.8V581H135h2h9c3.3,0,6-2.6,6-6v-60.4h-0.4V514.5z M135,574h-21.3v-52.5H135V574z"/>
		<path d="M262.3,502h-7.9h-41.1h-17.6v7h58.6v84.2h-62.9V502h-16.9l0,0l0,0h-3.4c0,0.4,0.1,0.8,0.3,1.1l3.1,4.9v92.1h11.6h5.3h62.9
			h2.4h8.5c3.3,0,6-2.6,6-6v-92.2h-9V502z"/>
		<path d="M350.2,592.6V562h39.1v-7.6h-39.1v-13.7h17l0,0h16.8c3.3,0,6-2.6,6-6v-33.5h-22.8h-47.3v9.3h47.3v22.8h-51.8v-32h-11.6
			h-11.1l0,0l0,0h-3.4c0,0.4,0.1,0.8,0.3,1.1l3.1,5v33.4h21.2l0,0h18.5v51.7h-20.8l8.3-46.3H301l-9.8,53.8h7.7h11.3h82.4v-7.6
			L350.2,592.6L350.2,592.6z"/>
		<g>
			<polygon points="436.5,590.8 436.5,546.5 444.8,546.5 444.8,539.6 436.5,539.6 436.5,512.3 447.1,512.3 447.1,505.2 409,505.2 
				409,512.3 419.7,512.3 419.7,539.6 411.3,539.6 411.3,546.5 419.7,546.5 419.7,592.3 408.5,593.2 409.1,600.2 445.1,597 
				444.5,590.1 			"/>
			<polygon points="462.8,521.9 448.8,521.9 453.5,544 467.4,544 			"/>
			<polygon points="455.4,548.5 446.1,601.5 460.1,601.5 469.5,548.5 			"/>
			<path d="M507.3,510.1v-5.4h-11.9v5.4h-7.8V501h-8.7h-8.2l0,0l0,0h-3.2c0,0.3,0.1,0.8,0.3,1l2.8,4.6v3.4h-22.5v7.1h22.4V592
				c0,1.9-1.5,3.4-3.4,3.4h-4.1v5.9h7.6h0.5h10.4c3.3,0,6-2.6,6-6V517h22.4v-7.1h-2.7V510.1z"/>
		</g>
	</g>
	<g>
		<path d="M72.2,642.7l5.7,1.8c-0.9,3.2-2.3,5.5-4.4,7c-2.1,1.5-4.6,2.3-7.7,2.3c-3.8,0-7-1.3-9.5-3.9c-2.5-2.6-3.7-6.2-3.7-10.9
			c0-4.8,1.2-8.5,3.7-11.3c2.5-2.6,5.8-4.1,9.9-4.1c3.5,0,6.5,1.1,8.7,3.2c1.3,1.2,2.3,3.1,3,5.4l-5.8,1.4c-0.3-1.5-1.1-2.7-2.2-3.6
			c-1.1-0.9-2.4-1.3-3.9-1.3c-2.2,0-3.9,0.8-5.3,2.3c-1.3,1.5-2,4.1-2,7.5c0,3.6,0.7,6.2,2,7.9c1.3,1.6,3.1,2.3,5.2,2.3
			c1.5,0,2.8-0.5,4.1-1.5C70.9,646.4,71.7,644.8,72.2,642.7z"/>
		<path d="M83,653.4v-29h5.8v11.4h11.5v-11.4h5.8v29h-5.8v-12.7H88.8v12.7H83z"/>
		<path d="M112,653.4v-29h5.8v29H112z"/>
		<path d="M123.5,653.4v-29h5.7l11.8,19.4v-19.4h5.5v29h-5.9l-11.7-19v19H123.5z"/>
		<path d="M152.8,653.4v-29h21.5v4.9h-15.7v6.5h14.6v4.9h-14.6v7.9h16.2v4.9h-22V653.4z"/>
		<path d="M178.3,644l5.7-0.5c0.3,1.9,1,3.3,2.1,4.2c1.1,0.9,2.4,1.3,4.3,1.3s3.3-0.4,4.3-1.2c1-0.8,1.4-1.8,1.4-2.8
			c0-0.7-0.2-1.3-0.7-1.8c-0.4-0.4-1.1-0.9-2.1-1.2c-0.7-0.2-2.3-0.7-4.7-1.3c-3.2-0.8-5.4-1.8-6.6-2.8c-1.8-1.6-2.6-3.5-2.6-5.8
			c0-1.4,0.4-2.8,1.2-4.2c0.9-1.3,2.1-2.3,3.6-3c1.5-0.7,3.5-1,5.7-1c3.6,0,6.4,0.8,8.2,2.4s2.8,3.7,2.8,6.4l-5.8,0.2
			c-0.2-1.5-0.8-2.5-1.6-3.2c-0.9-0.7-2.1-1-3.7-1c-1.8,0-3.1,0.3-4.1,1.1c-0.7,0.4-0.9,1.1-0.9,1.8s0.3,1.3,0.9,1.8
			c0.8,0.7,2.5,1.3,5.4,2c2.8,0.7,4.9,1.3,6.4,2.1c1.3,0.8,2.4,1.8,3.2,3c0.8,1.2,1.2,2.7,1.2,4.6c0,1.6-0.4,3.2-1.4,4.7
			c-0.9,1.4-2.2,2.5-3.9,3.3c-1.6,0.7-3.8,1.1-6.4,1.1c-3.6,0-6.5-0.9-8.4-2.5C179.8,649.7,178.8,647.1,178.3,644z"/>
		<path d="M206.9,653.4v-29h21.5v4.9h-15.7v6.5h14.6v4.9h-14.6v7.9h16.2v4.9h-22V653.4z"/>
		<path d="M245.3,653.4v-29h19.9v4.9h-14v6.9h12.2v4.9h-12.2v12.4h-5.9V653.4z"/>
		<path d="M268.7,639c0-3,0.4-5.5,1.3-7.5c0.7-1.4,1.5-2.8,2.7-3.9c1.1-1.2,2.4-2.1,3.7-2.6c1.9-0.8,3.9-1.1,6.2-1.1
			c4.3,0,7.7,1.3,10.3,3.9c2.5,2.6,3.8,6.4,3.8,11.1s-1.3,8.3-3.8,11c-2.5,2.6-5.9,3.9-10.2,3.9s-7.8-1.3-10.3-3.9
			C270,647.2,268.7,643.6,268.7,639z M274.9,638.8c0,3.3,0.8,5.8,2.3,7.5c1.5,1.6,3.4,2.5,5.8,2.5c2.3,0,4.3-0.9,5.7-2.5
			c1.4-1.6,2.3-4.2,2.3-7.6c0-3.3-0.8-5.8-2.2-7.5c-1.4-1.6-3.4-2.4-5.8-2.4s-4.4,0.9-5.8,2.5C275.5,633,274.9,635.5,274.9,638.8z"
			/>
		<path d="M300.3,639c0-3,0.4-5.5,1.3-7.5c0.7-1.4,1.5-2.8,2.7-3.9c1.1-1.2,2.4-2.1,3.7-2.6c1.9-0.8,3.9-1.1,6.2-1.1
			c4.3,0,7.7,1.3,10.3,3.9c2.5,2.6,3.8,6.4,3.8,11.1s-1.3,8.3-3.8,11c-2.5,2.6-5.9,3.9-10.2,3.9c-4.3,0-7.8-1.3-10.3-3.9
			C301.6,647.2,300.3,643.6,300.3,639z M306.3,638.8c0,3.3,0.8,5.8,2.3,7.5c1.5,1.6,3.4,2.5,5.8,2.5c2.3,0,4.3-0.9,5.7-2.5
			c1.4-1.6,2.3-4.2,2.3-7.6c0-3.3-0.8-5.8-2.2-7.5c-1.4-1.6-3.4-2.4-5.8-2.4s-4.4,0.9-5.8,2.5C307.1,633,306.3,635.5,306.3,638.8z"
			/>
		<path d="M339.6,653.4v-24.1H331v-4.9h23.1v4.9h-8.5v24.1H339.6z"/>
		<path d="M357.8,624.3h11.6c2.3,0,4.1,0.1,5.2,0.3c1.1,0.2,2.2,0.5,3.1,1.2c0.9,0.7,1.6,1.4,2.2,2.4c0.5,1,0.9,2.2,0.9,3.4
			c0,1.3-0.3,2.6-1.1,3.7s-1.8,2-3,2.5c1.8,0.5,3.2,1.4,4.1,2.6c1,1.2,1.4,2.7,1.4,4.4c0,1.3-0.3,2.6-0.9,3.8
			c-0.7,1.2-1.4,2.2-2.5,3c-1.1,0.8-2.4,1.2-3.9,1.4c-1,0.1-3.3,0.2-7.1,0.2h-9.9V624.3z M363.8,629.2v6.7h3.8c2.3,0,3.7,0,4.3-0.1
			c1-0.1,1.8-0.4,2.4-1c0.5-0.5,0.9-1.3,0.9-2.3c0-0.9-0.2-1.6-0.8-2.2c-0.5-0.5-1.2-0.9-2.2-1c-0.5-0.1-2.3-0.1-5-0.1H363.8z
			 M363.8,640.7v7.8h5.5c2.1,0,3.5-0.1,4.1-0.2c0.9-0.1,1.5-0.5,2.1-1.2c0.5-0.7,0.8-1.4,0.8-2.4c0-0.9-0.2-1.6-0.7-2.2
			c-0.4-0.7-1-1.1-1.9-1.3c-0.8-0.3-2.5-0.4-5.2-0.4L363.8,640.7L363.8,640.7z"/>
		<path d="M413.3,653.4h-6.4l-2.5-6.6h-11.6l-2.4,6.6h-6.2l11.3-29h6.2L413.3,653.4z M402.6,641.9l-4.1-10.7l-3.9,10.7H402.6z"/>
		<path d="M416.6,653.4v-28.8h5.8v23.9H437v4.9H416.6z"/>
		<path d="M441.4,653.4v-28.8h5.8v23.9h14.6v4.9H441.4z"/>
		<path d="M501.2,653.4h-6.4l-2.5-6.6h-11.6l-2.4,6.6H472l11.3-29h6.2L501.2,653.4z M490.3,641.9l-4.1-10.7l-3.9,10.7H490.3z"/>
		<path d="M502.8,644l5.7-0.5c0.3,1.9,1,3.3,2.1,4.2c1.1,0.9,2.4,1.3,4.3,1.3c1.9,0,3.3-0.4,4.3-1.2c1-0.8,1.4-1.8,1.4-2.8
			c0-0.7-0.2-1.3-0.7-1.8c-0.4-0.4-1.1-0.9-2.1-1.2c-0.7-0.2-2.3-0.7-4.7-1.3c-3.2-0.8-5.4-1.8-6.6-2.8c-1.8-1.6-2.6-3.5-2.6-5.8
			c0-1.4,0.4-2.8,1.2-4.2c0.9-1.3,2.1-2.3,3.6-3c1.5-0.7,3.5-1,5.7-1c3.6,0,6.4,0.8,8.2,2.4c1.9,1.6,2.8,3.7,2.8,6.4l-5.8,0.2
			c-0.2-1.5-0.8-2.5-1.6-3.2c-0.9-0.7-2.1-1-3.7-1c-1.8,0-3.1,0.3-3.9,1.1c-0.7,0.4-0.9,1.1-0.9,1.8s0.3,1.3,0.9,1.8
			c0.8,0.7,2.5,1.3,5.4,2c2.8,0.7,4.9,1.3,6.4,2.1c1.3,0.8,2.4,1.8,3.2,3c0.8,1.2,1.2,2.7,1.2,4.6c0,1.6-0.4,3.2-1.4,4.7
			c-0.9,1.4-2.2,2.5-3.9,3.3c-1.6,0.7-3.8,1.1-6.4,1.1c-3.6,0-6.5-0.9-8.4-2.5C504.4,649.7,503.2,647.1,502.8,644z"/>
		<path d="M529.9,644l5.7-0.5c0.3,1.9,1,3.3,2.1,4.2s2.4,1.3,4.3,1.3s3.3-0.4,4.3-1.2c1-0.8,1.4-1.8,1.4-2.8c0-0.7-0.2-1.3-0.7-1.8
			c-0.4-0.4-1.1-0.9-2.1-1.2c-0.7-0.2-2.3-0.7-4.7-1.3c-3.2-0.8-5.4-1.8-6.6-2.8c-1.8-1.6-2.6-3.5-2.6-5.8c0-1.4,0.4-2.8,1.2-4.2
			c0.9-1.3,2.1-2.3,3.6-3c1.5-0.7,3.5-1,5.7-1c3.6,0,6.4,0.8,8.2,2.4c1.9,1.6,2.8,3.7,2.8,6.4l-5.8,0.2c-0.2-1.5-0.8-2.5-1.6-3.2
			c-0.9-0.7-2.1-1-3.7-1c-1.8,0-3.1,0.3-4.1,1.1c-0.7,0.4-0.9,1.1-0.9,1.8s0.3,1.3,0.9,1.8c0.8,0.7,2.5,1.3,5.4,2
			c2.8,0.7,4.9,1.3,6.4,2.1c1.3,0.8,2.4,1.8,3.2,3c0.8,1.2,1.2,2.7,1.2,4.6c0,1.6-0.4,3.2-1.4,4.7c-0.9,1.4-2.2,2.5-3.9,3.3
			c-1.8,0.8-3.8,1.1-6.4,1.1c-3.6,0-6.5-0.9-8.4-2.5C531.4,649.7,530.2,647.1,529.9,644z"/>
		<path d="M557.2,639c0-3,0.4-5.5,1.3-7.5c0.7-1.4,1.5-2.8,2.7-3.9c1.1-1.2,2.4-2.1,3.7-2.6c1.9-0.8,3.9-1.1,6.2-1.1
			c4.3,0,7.7,1.3,10.3,3.9c2.5,2.6,3.8,6.4,3.8,11.1s-1.3,8.3-3.8,11c-2.5,2.6-5.9,3.9-10.2,3.9s-7.8-1.3-10.3-3.9
			C558.5,647.2,557.2,643.6,557.2,639z M563.2,638.8c0,3.3,0.8,5.8,2.3,7.5c1.5,1.6,3.4,2.5,5.8,2.5s4.3-0.9,5.7-2.5
			c1.4-1.6,2.3-4.2,2.3-7.6c0-3.3-0.8-5.8-2.2-7.5c-1.4-1.6-3.4-2.4-5.8-2.4s-4.4,0.9-5.8,2.5C564,633,563.2,635.5,563.2,638.8z"/>
		<path d="M608.5,642.7l5.7,1.8c-0.9,3.2-2.3,5.5-4.4,7s-4.6,2.3-7.7,2.3c-3.8,0-7-1.3-9.5-3.9c-2.5-2.6-3.7-6.2-3.7-10.9
			c0-4.8,1.2-8.5,3.7-11.3c2.5-2.6,5.8-4.1,9.9-4.1c3.5,0,6.5,1.1,8.7,3.2c1.3,1.2,2.3,3.1,3,5.4l-5.8,1.4c-0.3-1.5-1.1-2.7-2.2-3.6
			c-1.1-0.9-2.4-1.3-3.9-1.3c-2.2,0-3.9,0.8-5.3,2.3c-1.3,1.5-2,4.1-2,7.5c0,3.6,0.7,6.2,2,7.9c1.3,1.6,3.1,2.3,5.2,2.3
			c1.5,0,2.8-0.5,4.1-1.5C607.2,646.4,608.1,644.8,608.5,642.7z"/>
		<path d="M619,653.4v-29h5.8v29H619z"/>
		<path d="M656.7,653.4h-6.4l-2.5-6.6h-11.6l-2.4,6.6h-6.2l11.3-29h6.2L656.7,653.4z M645.9,641.9l-4.1-10.7l-3.9,10.7H645.9z"/>
		<path d="M663.3,653.4v-24.1h-8.7v-4.9h23.1v4.9h-8.5v24.1H663.3z"/>
		<path d="M681.4,653.4v-29h5.8v29H681.4z"/>
		<path d="M691.7,639c0-3,0.4-5.5,1.3-7.5c0.7-1.4,1.5-2.8,2.7-3.9c1.1-1.2,2.4-2.1,3.7-2.6c1.9-0.8,3.9-1.1,6.2-1.1
			c4.3,0,7.7,1.3,10.3,3.9c2.5,2.6,3.8,6.4,3.8,11.1s-1.3,8.3-3.8,11c-2.5,2.6-5.9,3.9-10.2,3.9c-4.3,0-7.8-1.3-10.3-3.9
			C692.9,647.2,691.7,643.6,691.7,639z M697.7,638.8c0,3.3,0.8,5.8,2.3,7.5c1.5,1.6,3.4,2.5,5.8,2.5s4.3-0.9,5.7-2.5
			c1.4-1.6,2.3-4.2,2.3-7.6c0-3.3-0.8-5.8-2.2-7.5c-1.4-1.6-3.4-2.4-5.8-2.4s-4.4,0.9-5.8,2.5C698.4,633,697.7,635.5,697.7,638.8z"
			/>
		<path d="M724.4,653.4v-29h5.7l11.8,19.4v-19.4h5.5v29h-5.9l-11.6-19v19H724.4z"/>
	</g>
</g>
<g>
	<path d="M50,318.1c0,94.5,76.3,125.4,114.2,125.4h48.4c9.1,0,16.4-7.4,16.4-16.6v-40.1c0,0-27.9,0-51.6,0s-68.1-16.6-68.1-68.7
		c0-52.6,48-67.3,70.8-67.3h33.3c9.1,0,16.4-7.4,16.4-16.6v-43.8c0,0-8.2,0-53,0C131.3,190.8,50,223.5,50,318.1z"/>
	<path d="M330.9,306.1v-54.4h91.4c6.9,0,12.8-4.1,15.1-10.6l18.7-49.3v-1.4H269.7V443h62.1v-76.5h47.1c6.9,0,12.8-4.1,15.1-10.6
		l18.7-49.8L330.9,306.1L330.9,306.1z"/>
	<path d="M564.4,190.3h-50.7c-10.7,0-16.7,3.7-19.6,11.5l-92.7,241.6h65.3l12.8-32.7L564.4,190.3z"/>
	<polygon points="576.7,351.7 517.8,351.7 495.4,410.7 600,410.7 612.3,442.5 677.7,442.5 579.4,191.7 547,276.1 	"/>
</g>
<polygon points="664.6,172.3 664.9,188.3 654.8,200.1 652.7,195.2 659.1,175.5 "/>
<path d="M697.9,150.4c26.3,0,47.7,21.4,47.7,47.7s-21.4,47.7-47.7,47.7s-47.7-21.4-47.7-47.7S671.6,150.4,697.9,150.4 M697.9,146.1
	c-28.8,0-52.1,23.3-52.1,52.1s23.3,52.1,52.1,52.1s52.1-23.3,52.1-52.1S726.7,146.1,697.9,146.1L697.9,146.1z"/>
<polygon points="698.8,176.3 678.1,193.2 686.8,217.3 710.9,217.3 719.6,195.1 "/>
<polygon points="683,158.1 697.9,163.7 712.4,158.1 708.5,154.5 687.8,154 "/>
<polygon points="732.1,172.3 731.8,188.3 741.8,200.1 744,195.2 737.5,175.5 "/>
<polygon points="662.7,221.4 678.1,225.6 686.6,238.5 681.4,239.2 664.2,227.6 "/>
<polygon points="733.7,221.4 718.3,225.6 709.8,238.5 715,239.2 732.2,227.6 "/>
</svg>
