<?xml version="1.0" encoding="utf-8"?>
<!-- Generator: Adobe Illustrator 22.1.0, SVG Export Plug-In . SVG Version: 6.00 Build 0)  -->
<svg version="1.1" id="图层_1" xmlns="http://www.w3.org/2000/svg" xmlns:xlink="http://www.w3.org/1999/xlink" x="0px" y="0px"
	 viewBox="0 0 800 800" style="enable-background:new 0 0 800 800;" xml:space="preserve">
<style type="text/css">
	.st0{fill:#242362;}
	.st1{fill:#FFFFFF;}
	.st2{fill-rule:evenodd;clip-rule:evenodd;fill:#D1801E;}
	.st3{fill-rule:evenodd;clip-rule:evenodd;fill:#242362;}
	.st4{fill:#D1801E;}
</style>
<g>
	<g>
		<g>
			<path class="st0" d="M649,147.5C519.3,77.5,400,50,400,50s-119.3,27.5-249,97.5c-24.1,13.8-34.4,25.2-95.2,9.2
				c0,0,65.5,200.4,139.5,493c0,0,44.4,42.2,204.7,100.3c160.3-58.1,204.7-100.3,204.7-100.3c74-292.6,139.5-493,139.5-493
				C683.4,172.8,673.1,161.3,649,147.5z M595.1,647.9C505.6,703,400,727,400,727S294.4,703,204.9,647.9c0,0-105.6-439.5-114.8-457.9
				c0,0,28.7,4.6,51.1-8.6C163.6,168.2,284.1,112,400,86.7c115.9,25.2,236.4,81.5,258.8,94.7c22.4,13.2,51.1,8.6,51.1,8.6
				C700.7,208.4,595.1,647.9,595.1,647.9z"/>
			<path class="st1" d="M658.8,181.4C636.4,168.2,515.9,112,400,86.7c-115.9,25.2-236.4,81.5-258.8,94.7
				c-22.4,13.2-51.1,8.6-51.1,8.6c9.2,18.4,114.8,457.9,114.8,457.9C294.4,703,400,727,400,727s105.6-24.1,195.1-79.2
				c0,0,105.6-439.5,114.8-457.9C709.8,190,681.1,194.6,658.8,181.4z"/>
		</g>
		<path class="st2" d="M400.9,115.7c0,0,16.4,8.9,24.1,11.5c0,0,21.8,41.9,43,55.1C468,182.3,421.5,163.9,400.9,115.7z"/>
		<path class="st2" d="M584.2,237l-1.1,12c0,0-56.8,3.4-110.7-32.7C472.3,216.4,542.3,242.8,584.2,237z"/>
		<path class="st2" d="M460.2,251.4c0,0,30.9,24.1,37.3,26.4v12.6C497.5,290.4,465.2,261.3,460.2,251.4z"/>
		<path class="st2" d="M361.4,186l19.7,6.9c0,0,100.4,122.2,49.9,280.6C431,473.4,476.5,336.9,361.4,186z"/>
		<path class="st2" d="M203.8,230.5c0,0,71.1,0,115.5-12.2l6.9,7.7C326.2,226,251.2,239.7,203.8,230.5z"/>
		<path class="st2" d="M305.5,304.8c0,0,58.9,26.4,75,94.9l-7.3,11.1C373.2,410.7,365.2,345.3,305.5,304.8z"/>
		<path class="st2" d="M248.5,316.2c0,0,1.1-7.3-64.3-5l6.1,35.2l1.1-29.5C191.5,317,226,313.9,248.5,316.2z"/>
		<path class="st2" d="M580.8,503.3c18.2-26,34.1-66.1,35.5-71.1c1.7-6.3,43-210,43-210l-20.1-10.3c0,0-35,220.6-40.5,234.7
			s-32.7,58-32.7,58l-0.5,4C570.8,506.8,575.9,505,580.8,503.3z"/>
		<path class="st0" d="M593.2,230.5c0,0-8.4,53.6-16.1,110.9s-9.9,84.2-20.7,107.9c-8.1,17.8-33.4,55.6-45.5,73.2
			c17.1-3.4,33-7.4,47.6-11.9c12.4-22.8,38.2-70.7,39.7-78.6c1.9-10.3,32.5-224.9,32.5-224.9c-204.3,18.4-244.4-98.7-244.4-98.7
			C421,245.8,593.2,230.5,593.2,230.5z"/>
		<path class="st2" d="M479.7,527.8c43.1-47.9,68.7-127.5,70.7-149.6c1.7-13.8,9.8-104.4,9.8-104.4l-12.6-9.2
			c0,0-4.6,100.9-8.6,122.8C522,458.9,475.1,522.2,469.9,529C473.2,528.7,476.4,528.2,479.7,527.8z"/>
		<path class="st0" d="M503.9,271.5c0,0,1.1,88.4,0,100.4c-1.1,12-8,51.6-19.2,89.5c-7.2,24.4-25.9,52.8-38.4,70
			c5.8-0.4,11.5-1,17.1-1.6c53.1-58.7,71.6-144.5,73.2-159c1.7-16.1,5.2-109.6,5.2-109.6c-66.6-9.8-114.2-51.6-114.2-51.6
			C445.3,245.1,503.9,271.5,503.9,271.5z"/>
		<path class="st0" d="M164,310.1c3.1-11.5,1.5-27.5,1.5-27.5c166,16.8,189,102.5,189,102.5c-28.1-30.2-115.7-35.5-166.8-35.8
			c-1.2-15.6-5.1-41.1-5.1-41.1c23-2.9,75.2,2.9,75.2,2.9c-29.8-13.8-83.2-8.6-83.2-8.6c5.7,12.6,6.3,46.8,6.3,46.8l0,0
			c-18.9,0-31.4,0.7-31.4,0.7c20.7,24.5,32.9,58.9,32.9,58.9l-5.4-35.2c163.7-26.8,193.6,38.3,193.6,38.3
			c-16.8-108.4-133.9-144.6-194.9-156.2l-4.8-30c89.1,6.5,154.5-16.1,154.5-16.1c130.8,159,81.1,279.8,54.7,323.3
			c3.8,0.1,7.7,0.2,11.6,0.3c120.4-170.3-46.5-355.3-46.5-355.3c-88.7,49.7-185.1,36.7-185.1,36.7l7.3,39.7
			c-17.5-3-28.8-3.7-28.8-3.7C159.4,277.2,164,310.1,164,310.1z"/>
	</g>
	<path class="st0" d="M114.3,456.2c0,0,93,88.4,285.7,88.4s286.9-88.4,286.9-88.4l-44.8,154.9c0,0-90.7,56.2-242.1,56.2
		s-241-56.2-241-56.2L114.3,456.2z"/>
	<path class="st0" d="M361.4,445.5c0,0-23.6-74.8-160.8-17.3l-5.2-35.1c0,0,15.7-6.1,63.5-4.6c0,0-19.9-10.3-71.5-0.8l7,43.2
		c-6,2.6-12.2,5.5-18.6,8.6c0,0,20.1,8.6,44.8,43.6c0,0-8.5-24.4-13.4-29C207,454.2,294,387.8,361.4,445.5z"/>
	<path class="st0" d="M251.1,472.1c0,0-9.1,12.6-12.2,24c0,0,11.4,13.7,19.4,16.4l26.3-14.8l-4.6-25.5H251.1z"/>
	<path class="st0" d="M309.3,505l19.5-14.3l11.5,14.3c0,0-7.5,17.8-12,23h-18.9V505z"/>
	<path class="st3" d="M292.1,445.9c2.6,4.1,5.1,8.2,7.7,12.3c7.3,2.2,15.5,5.8,23.8,9.5c1.9-1.6,3.8-3.3,5.7-4.9
		C317.8,452.4,305.5,446.2,292.1,445.9L292.1,445.9z"/>
	<path class="st3" d="M236.8,464l2.2,2.6c0,0,19.6-13.2,25.1-15.2l-1-0.5C263,450.9,250,454.3,236.8,464z"/>
	<path class="st2" d="M250.4,390.4c0,0-21.4-2.3-52,4.6l2.3,29.5l4.2-21.8C204.9,402.7,220.9,395.8,250.4,390.4z"/>
	<path class="st2" d="M265.2,430.7c0,0-24.1,3.4-54.5,25l8,20.4l-1.1-17.3C217.5,458.7,252.8,437.3,265.2,430.7z"/>
	<path class="st2" d="M240.2,466.8l2.2,2.6c0,0,19.6-13.2,25.1-15.2l-1-0.5C266.5,453.7,253.4,457.2,240.2,466.8z"/>
	<polygon class="st2" points="299.7,461 323.1,469.1 327.7,465.7 329.6,467.3 324.8,472.6 299.7,463.8 	"/>
	<path class="st4" d="M281.8,476h3.8c0,0,4,19.4,3.3,23.2c-0.8,3.8-22.6,17.2-25.8,17.2c-3.3,0-6.3-2.9-6.3-2.9l1.6-1.1l26.3-14.8
		l-4-21.6H281.8z"/>
	<path class="st4" d="M331.9,531l1.1,0c5.6-4.4,9.9-24.5,9.9-24.5l-3.1-0.3c-5.8,14.2-11.6,21.8-11.6,21.8h-11.6v1
		C321.6,529.7,326.7,530.4,331.9,531z"/>
	<g>
		<g>
			<path class="st1" d="M190,610.9c0-12,0-24.1,0-36.1c9.6,3.5,14.4,5.1,24.1,8.1c0,2.4,0,3.7,0,6.1c-6.8-2.1-10.2-3.3-17-5.6
				c0,3.4,0,5.1,0,8.5c5.9,2,8.8,3,14.7,4.9c0,2.4,0,3.7,0,6.1c-5.9-1.9-8.8-2.9-14.7-4.9c0,6.1,0,9.2,0,15.3
				C194.2,612.5,192.8,612,190,610.9z"/>
			<path class="st1" d="M218.5,602.6c0-3.7,0.5-6.6,1.6-8.8c0.8-1.6,1.9-2.9,3.3-4c1.4-1,2.9-1.7,4.6-1.9c2.2-0.3,4.8-0.1,7.7,0.7
				c5.2,1.4,9.5,4.2,12.6,8.3c3.2,4.1,4.8,9.1,4.8,14.9c0,5.8-1.6,10-4.7,12.5c-3.1,2.5-7.3,3.1-12.6,1.6c-5.3-1.5-9.5-4.3-12.6-8.5
				C220.1,613.4,218.5,608.4,218.5,602.6z M225.9,604.6c0,4.1,0.9,7.5,2.8,10.1c1.9,2.6,4.2,4.4,7.1,5.2c2.9,0.8,5.2,0.4,7.1-1.2
				c1.8-1.6,2.8-4.5,2.8-8.7c0-4.1-0.9-7.4-2.7-10c-1.8-2.5-4.2-4.2-7.1-5c-3-0.8-5.4-0.5-7.2,1.1
				C226.8,597.6,225.9,600.4,225.9,604.6z"/>
			<path class="st1" d="M257.3,613.1c0-3.7,0.5-6.6,1.6-8.9c0.8-1.6,1.9-3,3.3-4.2c1.4-1.1,3-1.9,4.6-2.2c2.2-0.5,4.8-0.4,7.8,0.2
				c5.3,1.1,9.6,3.6,12.8,7.4c3.2,3.9,4.8,8.8,4.8,14.6c0,5.8-1.6,10.1-4.8,12.8c-3.2,2.7-7.4,3.5-12.7,2.4
				c-5.4-1.1-9.6-3.7-12.8-7.7C258.8,623.8,257.3,618.9,257.3,613.1z M264.7,614.6c0,4.1,0.9,7.4,2.8,9.9c1.9,2.5,4.3,4.1,7.2,4.7
				c2.9,0.6,5.3,0,7.1-1.7c1.9-1.7,2.8-4.7,2.8-8.9c0-4.1-0.9-7.4-2.7-9.8c-1.8-2.4-4.2-3.9-7.2-4.5s-5.4-0.1-7.2,1.5
				C265.6,607.6,264.7,610.5,264.7,614.6z"/>
			<path class="st1" d="M306.1,640.5c0-12,0-18,0-30c-4.3-0.7-6.5-1-10.8-1.8c0-2.4,0-3.7,0-6.1c11.5,2,17.3,2.8,28.9,4.3
				c0,2.4,0,3.7,0,6.1c-4.3-0.5-6.5-0.8-10.8-1.4c0,12,0,18,0,30C310.5,641.1,309,640.9,306.1,640.5z"/>
			<path class="st1" d="M329,607.5c5.8,0.7,8.7,1,14.6,1.5c2.9,0.3,5,0.6,6.5,0.9c1.4,0.4,2.7,0.9,3.8,1.8c1.1,0.8,2.1,1.9,2.8,3.2
				s1.1,2.7,1.1,4.3c0,1.7-0.5,3.2-1.4,4.6c-0.9,1.3-2.2,2.3-3.8,2.9c2.2,0.8,3.9,2,5.1,3.6c1.2,1.6,1.8,3.5,1.8,5.6
				c0,1.6-0.4,3.2-1.2,4.7c-0.8,1.5-1.8,2.7-3.2,3.5c-1.3,0.8-3,1.3-4.9,1.3c-1.2,0-4.2-0.1-8.9-0.5c-5-0.5-7.5-0.7-12.4-1.3
				C329,631.5,329,619.5,329,607.5z M336.3,614.3c0,3.3,0,5,0,8.3c1.9,0.2,2.9,0.3,4.8,0.5c2.9,0.3,4.7,0.4,5.4,0.4
				c1.3,0,2.3-0.4,3-1c0.7-0.7,1.1-1.6,1.1-2.7c0-1.1-0.3-2-0.9-2.8c-0.6-0.7-1.6-1.3-2.8-1.5c-0.7-0.1-2.8-0.4-6.3-0.7
				C338.9,614.6,338,614.5,336.3,614.3z M336.3,628.6c0,3.9,0,5.8,0,9.6c2.7,0.3,4.1,0.4,6.8,0.7c2.7,0.2,4.3,0.3,5.1,0.2
				c1.1-0.1,2-0.5,2.7-1.2c0.7-0.7,1-1.7,1-3c0-1.1-0.3-2-0.8-2.8c-0.5-0.8-1.3-1.4-2.3-1.8c-1-0.4-3.2-0.8-6.5-1.1
				C339.9,629,338.7,628.9,336.3,628.6z"/>
			<path class="st1" d="M398.8,647.7c-3.2,0-4.8,0-8-0.1c-1.3-3.3-1.9-4.9-3.2-8.3c-5.9-0.1-8.8-0.2-14.6-0.5
				c-1.2,3.2-1.8,4.8-3,8.1c-3.1-0.2-4.7-0.2-7.8-0.4c4.8-11.8,9.5-23.6,14.3-35.4c3.1,0.1,4.7,0.2,7.8,0.3
				C389,623.5,393.9,635.6,398.8,647.7z M385.2,633.2c-2-5.4-3-8.1-5-13.5c-2,5.3-3,7.9-4.9,13.2
				C379.2,633.1,381.2,633.1,385.2,633.2z"/>
			<path class="st1" d="M402.9,647.7c0-11.9,0-23.9,0-35.8c3,0,4.4,0,7.4-0.1c0,11.9,0,17.8,0,29.7c7.4-0.1,11-0.2,18.4-0.6
				c0,2.4,0,3.6,0,6.1C418.4,647.5,413.2,647.7,402.9,647.7z"/>
			<path class="st1" d="M434.2,646.8c0-11.9,0-23.9,0-35.8c3-0.2,4.4-0.2,7.4-0.4c0,11.9,0,17.8,0,29.7c7.3-0.5,11-0.8,18.3-1.5
				c0,2.4,0,3.6,0,6.1C449.6,645.9,444.5,646.2,434.2,646.8z"/>
			<path class="st1" d="M501.6,626.2c2.8,0.4,4.3,0.6,7.1,1c-1.1,4.1-2.9,7.4-5.4,9.7c-2.5,2.3-5.7,3.8-9.6,4.4
				c-4.8,0.7-8.8-0.4-11.9-3.2c-3.1-2.9-4.7-7.2-4.7-12.8c0-6,1.6-10.9,4.7-14.6c3.1-3.7,7.2-6,12.3-6.7c4.4-0.7,8,0,10.8,2.2
				c1.6,1.3,2.9,3.3,3.7,6c-2.9,1.2-4.3,1.8-7.2,3c-0.4-1.8-1.3-3.1-2.7-4c-1.4-0.9-3-1.1-5-0.9c-2.7,0.4-4.9,1.7-6.6,3.8
				s-2.5,5.4-2.5,9.7c0,4.6,0.8,7.7,2.5,9.4c1.7,1.7,3.8,2.4,6.4,2c1.9-0.3,3.6-1.2,5-2.6C500,631,501,628.9,501.6,626.2z"/>
			<path class="st1" d="M515.2,637.1c0-11.9,0-23.9,0-35.8c2.9-0.5,4.4-0.8,7.3-1.4c0,11.9,0,17.8,0,29.7c7.2-1.4,10.9-2.2,18.1-3.9
				c0,2.4,0,3.6,0,6.1C530.4,634.1,525.3,635.1,515.2,637.1z"/>
			<path class="st1" d="M545.6,594.5c2.9-0.7,4.3-1.1,7.2-1.8c0,7.8,0,11.7,0,19.5c0,3.1,0.1,5.1,0.3,6c0.3,1.4,1,2.4,2.2,3
				c1.2,0.6,2.8,0.6,4.8,0.1c2-0.5,3.6-1.4,4.6-2.5c1-1.1,1.7-2.3,1.9-3.6c0.2-1.3,0.3-3.4,0.3-6.2c0-8,0-12,0-20
				c2.9-0.8,4.3-1.2,7.2-2c0,7.6,0,11.4,0,18.9c0,4.3-0.2,7.4-0.6,9.3c-0.4,1.9-1.1,3.6-2.1,5.1c-1,1.5-2.4,2.9-4.2,4.1
				c-1.7,1.2-4,2.2-6.9,3c-3.4,0.9-6,1.2-7.8,0.8c-1.8-0.4-3.2-1-4.2-2.1c-1-1-1.7-2.2-2-3.5c-0.5-1.9-0.7-4.9-0.7-9
				C545.6,606,545.6,602.2,545.6,594.5z"/>
			<path class="st1" d="M581.7,584.7c5.7-1.7,8.5-2.6,14.1-4.5c2.8-0.9,4.9-1.5,6.2-1.7c1.4-0.2,2.6-0.2,3.7,0.2
				c1.1,0.4,2,1.1,2.7,2.1s1.1,2.3,1.1,3.8c0,1.7-0.4,3.4-1.3,5.1c-0.9,1.7-2.1,3.2-3.6,4.4c2.1-0.1,3.8,0.4,4.9,1.5
				c1.1,1.1,1.7,2.7,1.7,4.8c0,1.6-0.4,3.4-1.1,5.2c-0.7,1.8-1.8,3.4-3,4.8c-1.3,1.4-2.9,2.5-4.7,3.4c-1.2,0.5-4,1.6-8.6,3.1
				c-4.8,1.6-7.2,2.3-12,3.8C581.7,608.7,581.7,596.7,581.7,584.7z M588.8,588.4c0,3.3,0,5,0,8.3c1.9-0.6,2.8-0.9,4.7-1.5
				c2.8-0.9,4.5-1.5,5.2-1.8c1.2-0.6,2.2-1.3,2.9-2.3c0.7-1,1-2,1-3.2c0-1.1-0.3-1.9-0.9-2.4s-1.5-0.6-2.7-0.4
				c-0.7,0.2-2.7,0.8-6.1,1.9C591.3,587.7,590.5,587.9,588.8,588.4z M588.8,602.8c0,3.9,0,5.8,0,9.6c2.6-0.8,4-1.3,6.6-2.1
				c2.6-0.8,4.2-1.5,4.9-1.9c1-0.6,1.9-1.3,2.6-2.3c0.7-1,1-2.1,1-3.4c0-1.1-0.3-1.9-0.8-2.5c-0.5-0.6-1.3-0.9-2.2-0.9
				c-1,0-3.1,0.5-6.3,1.6C592.3,601.7,591.1,602.1,588.8,602.8z"/>
		</g>
	</g>
	<g>
		<g>
			<path class="st1" d="M248.2,579.4c0-12.9,0-25.9,0-38.8c9.3,1.9,14,2.7,23.3,4.3c0,1.8,0,2.7,0,4.6c-7.7-1.3-11.5-2-19.1-3.5
				c0,4.8,0,7.1,0,11.9c7.1,1.4,10.7,2.1,17.9,3.3c0,1.8,0,2.7,0,4.6c-7.2-1.2-10.7-1.9-17.9-3.3c0,5.3,0,7.9,0,13.2
				c7.9,1.6,11.9,2.3,19.8,3.6c0,1.8,0,2.7,0,4.6C262.7,582.2,257.9,581.3,248.2,579.4z"/>
			<path class="st1" d="M287.6,586.3c-4.2-13.6-8.4-27.2-12.6-40.8c1.9,0.3,2.8,0.5,4.6,0.8c3.4,11.8,5.1,17.7,8.4,29.5
				c0.7,2.4,1.2,4.6,1.7,6.6c0.5-2,1.1-4.1,1.8-6.1c3.5-10.8,5.3-16.2,8.8-27c1.8,0.2,2.6,0.3,4.4,0.6c-4.2,12.4-8.5,24.8-12.8,37.1
				C290.2,586.6,289.3,586.5,287.6,586.3z"/>
			<path class="st1" d="M308.7,589.1c0-12.9,0-25.9,0-38.8c9.4,1.1,14.2,1.6,23.6,2.5c0,1.8,0,2.7,0,4.6c-7.7-0.7-11.6-1.1-19.3-2
				c0,4.8,0,7.1,0,11.9c7.2,0.8,10.8,1.2,18.1,1.8c0,1.8,0,2.7,0,4.6c-7.2-0.7-10.9-1-18.1-1.8c0,5.3,0,7.9,0,13.2
				c8,0.9,12,1.3,20.1,2c0,1.8,0,2.7,0,4.6C323.3,590.8,318.4,590.2,308.7,589.1z"/>
			<path class="st1" d="M339.1,592.1c0-12.9,0-25.9,0-38.8c5.8,0.5,8.7,0.7,14.5,1c2.9,0.2,5.1,0.6,6.7,1.4c1.5,0.8,2.7,2.1,3.6,3.9
				c0.9,1.8,1.4,3.8,1.4,5.9c0,2.8-0.8,5-2.3,6.9c-1.5,1.8-3.8,2.9-7,3.2c1.1,0.7,2,1.4,2.6,2.1c1.3,1.4,2.5,3.2,3.6,5.4
				c2.3,4.3,3.4,6.5,5.7,10.8c-2.2-0.1-3.3-0.1-5.5-0.2c-1.7-3.3-2.6-5-4.3-8.3c-1.3-2.4-2.3-4.2-3.1-5.5c-0.8-1.3-1.6-2.2-2.2-2.7
				c-0.6-0.5-1.3-0.9-2-1.2c-0.5-0.2-1.3-0.3-2.4-0.3c-2-0.1-3-0.2-5-0.4c0,6.9,0,10.3,0,17.2C341.7,592.3,340.9,592.3,339.1,592.1z
				 M343.5,570.8c3.7,0.3,5.6,0.4,9.3,0.6c2,0.1,3.5,0,4.7-0.5c1.1-0.4,2-1.2,2.6-2.2c0.6-1,0.9-2.2,0.9-3.4c0-1.8-0.6-3.4-1.7-4.6
				c-1.1-1.2-2.9-1.9-5.3-2.1c-4.2-0.3-6.2-0.4-10.4-0.7C343.5,563,343.5,565.6,343.5,570.8z"/>
			<path class="st1" d="M384.7,594.4c0-12.9,0-25.9,0-38.8c4.9,0.1,7.4,0.1,12.3,0.2c2.5,0,4.5,0.4,6,1.2c1.5,0.8,2.7,2,3.6,3.6
				c0.9,1.6,1.3,3.3,1.3,5.1c0,1.7-0.4,3.2-1.1,4.7c-0.8,1.5-1.9,2.7-3.5,3.6c2,0.7,3.5,1.8,4.6,3.5c1.1,1.6,1.6,3.6,1.6,5.9
				c0,1.8-0.3,3.5-1,5.1c-0.7,1.6-1.5,2.8-2.4,3.6c-1,0.9-2.2,1.5-3.6,1.9c-1.4,0.4-3.2,0.7-5.3,0.6
				C392.3,594.5,389.8,594.5,384.7,594.4z M389.1,572c2.8,0,4.3,0.1,7.1,0.1c1.9,0,3.3-0.1,4.1-0.4c1.1-0.4,1.9-1,2.5-1.9
				c0.6-0.9,0.8-2,0.8-3.4c0-1.3-0.3-2.4-0.8-3.4c-0.5-1-1.3-1.6-2.2-2c-1-0.4-2.6-0.5-5-0.6c-2.6,0-3.9,0-6.6-0.1
				C389.1,564.9,389.1,567.3,389.1,572z M389.1,589.9c3.3,0,4.9,0.1,8.2,0.1c1.4,0,2.4-0.1,3-0.2c1-0.2,1.8-0.6,2.5-1.1
				c0.7-0.5,1.2-1.2,1.7-2.2c0.4-0.9,0.7-2,0.7-3.3c0-1.4-0.3-2.7-0.9-3.8c-0.6-1.1-1.5-1.8-2.6-2.2c-1.1-0.4-2.7-0.6-4.8-0.7
				c-3,0-4.6,0-7.6-0.1C389.1,581.9,389.1,584.5,389.1,589.9z"/>
			<path class="st1" d="M415.6,594.4c0-12.9,0-25.9,0-38.8c5.8-0.1,8.7-0.2,14.6-0.4c2.9-0.1,5.2,0.1,6.7,0.8
				c1.5,0.6,2.7,1.8,3.6,3.5c0.9,1.7,1.4,3.6,1.4,5.8c0,2.8-0.8,5.1-2.3,7.1c-1.5,2-3.8,3.3-7,3.9c1.2,0.6,2,1.2,2.6,1.8
				c1.3,1.3,2.5,3,3.6,5c2.3,4.1,3.4,6.2,5.7,10.3c-2.2,0.1-3.3,0.2-5.5,0.3c-1.7-3.1-2.6-4.7-4.3-7.9c-1.3-2.3-2.3-4-3.1-5.2
				s-1.6-2-2.2-2.5c-0.6-0.5-1.3-0.8-2-1c-0.5-0.1-1.3-0.1-2.4-0.1c-2,0.1-3,0.1-5,0.1c0,6.9,0,10.3,0,17.2
				C418.2,594.4,417.4,594.4,415.6,594.4z M420,572.6c3.7-0.1,5.6-0.2,9.3-0.3c2-0.1,3.5-0.4,4.7-0.9c1.1-0.5,2-1.4,2.6-2.4
				c0.6-1.1,0.9-2.3,0.9-3.5c0-1.8-0.6-3.3-1.7-4.5c-1.1-1.1-2.9-1.6-5.3-1.6c-4.2,0.2-6.2,0.2-10.4,0.3
				C420,564.9,420,567.5,420,572.6z"/>
			<path class="st1" d="M449.4,593c0-12.9,0-25.9,0-38.8c1.7-0.1,2.6-0.2,4.3-0.3c0,12.9,0,25.9,0,38.8
				C452,592.8,451.2,592.9,449.4,593z"/>
			<path class="st1" d="M476.7,575.6c0-1.8,0-2.7,0-4.6c5.5-0.6,8.3-0.9,13.8-1.5c0,5.8,0,8.6,0,14.4c-2.1,2.3-4.3,4-6.6,5.3
				c-2.3,1.3-4.6,2-7,2.2c-3.2,0.3-6.1-0.2-8.8-1.6c-2.6-1.4-4.6-3.6-6-6.6c-1.3-3-2-6.4-2-10.2c0-3.8,0.7-7.4,2-10.7
				c1.3-3.4,3.3-6,5.8-7.8c2.5-1.8,5.4-2.9,8.6-3.2c2.4-0.2,4.5,0,6.4,0.7c1.9,0.7,3.4,1.8,4.5,3.3c1.1,1.5,1.9,3.5,2.5,6.1
				c-1.6,0.7-2.3,1-3.9,1.7c-0.5-1.9-1.1-3.4-1.8-4.5c-0.7-1.1-1.8-1.8-3.1-2.4c-1.4-0.5-2.9-0.7-4.5-0.6c-2,0.2-3.7,0.7-5.1,1.6
				c-1.4,0.8-2.6,1.9-3.5,3.1c-0.9,1.2-1.6,2.6-2.1,4c-0.8,2.5-1.3,5.1-1.3,7.9c0,3.5,0.5,6.3,1.5,8.6c1,2.2,2.5,3.8,4.4,4.8
				c1.9,1,4,1.3,6.1,1.1c1.9-0.2,3.7-0.8,5.5-1.8c1.8-1,3.1-2.1,4.1-3.2c0-2.9,0-4.3,0-7.2C482.5,575,480.6,575.2,476.7,575.6z"/>
			<path class="st1" d="M497.1,588.5c0-12.9,0-25.9,0-38.8c1.7-0.2,2.6-0.3,4.3-0.6c0,6.4,0,9.6,0,15.9c6.8-0.9,10.2-1.4,16.9-2.4
				c0-6.4,0-9.6,0-15.9c1.7-0.3,2.6-0.4,4.3-0.7c0,12.9,0,25.9,0,38.8c-1.7,0.3-2.6,0.4-4.3,0.7c0-7.3,0-11,0-18.3
				c-6.8,1-10.1,1.5-16.9,2.4c0,7.3,0,11,0,18.3C499.7,588.2,498.8,588.3,497.1,588.5z"/>
			<path class="st1" d="M538,582.2c0-11.4,0-22.8,0-34.2c-4.3,0.8-6.4,1.1-10.7,1.9c0-1.8,0-2.7,0-4.6c10.3-1.7,15.4-2.7,25.6-4.7
				c0,1.8,0,2.7,0,4.6c-4.3,0.9-6.4,1.3-10.7,2.1c0,11.4,0,22.8,0,34.2C540.5,581.8,539.7,581.9,538,582.2z"/>
		</g>
	</g>
</g>
</svg>
