<?xml version="1.0" encoding="utf-8"?>
<!-- Generator: Adobe Illustrator 22.1.0, SVG Export Plug-In . SVG Version: 6.00 Build 0)  -->
<svg version="1.1" id="图层_1" xmlns="http://www.w3.org/2000/svg" xmlns:xlink="http://www.w3.org/1999/xlink" x="0px" y="0px"
	 viewBox="0 0 800 800" style="enable-background:new 0 0 800 800;" xml:space="preserve">
<style type="text/css">
	.st0{fill:#EDE222;}
	.st1{fill:#760607;}
	.st2{fill:#C00019;}
	.st3{fill:#630100;}
	.st4{fill:#FFFFFF;}
	.st5{fill:url(#SVGID_1_);}
	.st6{fill:url(#SVGID_2_);}
	.st7{fill:#9B4400;}
	.st8{fill:url(#SVGID_3_);}
	.st9{fill:#5F0201;}
	.st10{fill:#566B73;}
	.st11{fill:#5A7179;}
	.st12{opacity:0.3;fill:#566B73;}
	.st13{fill:#640102;}
	.st14{fill:#EFE024;}
	.st15{fill:none;}
</style>
<g>
	<g>
		<g>
			<g>
				<g>
					<path class="st0" d="M681.3,198c-2.7-40.6-0.5-48.1-0.5-48.1c-126.2-50.9-180.1-75.8-208-87.3C442.2,50,407,50,400,50
						s-42.2,0-72.8,12.6c-27.9,11.5-81.8,36.4-208,87.3c0,0,2.2,7.5-0.5,48.1c-2.7,40.6-2,87.1,1.5,121.5
						c3.5,34.4,13.4,263.3,279.8,430.5c266.4-167.2,276.3-396.1,279.8-430.5S684,238.6,681.3,198z"/>
					<path class="st1" d="M400,53c26.9,0,52.3,4.4,71.7,12.4c8.1,3.3,18.6,7.9,31.9,13.7c32.1,13.9,85.6,37.1,173.9,72.8
						c-0.5,4.8-1.1,17.1,0.8,46.4c2.6,39.9,2,86.2-1.5,121c-0.1,1.4-0.3,3.1-0.5,5.1c-2.2,24.5-8,89.5-45.1,169.4
						c-21,45.1-48.8,87.8-82.6,126.9C508,667.5,458,709.9,400,746.5c-58-36.6-108-78.9-148.7-125.9c-33.8-39.1-61.6-81.8-82.6-126.9
						c-37.1-79.9-42.9-144.9-45.1-169.4c-0.2-2-0.3-3.7-0.5-5.1c-3.5-34.8-4.1-81.2-1.5-121c1.9-29.3,1.4-41.6,0.8-46.4
						c88.3-35.6,141.8-58.8,173.9-72.8c13.3-5.8,23.8-10.3,31.9-13.7C347.7,57.4,373.1,53,400,53 M400,50c-7,0-42.2,0-72.8,12.6
						c-27.9,11.5-81.8,36.4-208,87.3c0,0,2.2,7.5-0.5,48.1c-2.7,40.6-2,87.1,1.5,121.5c3.5,34.4,13.4,263.3,279.8,430.5
						c266.4-167.2,276.3-396.1,279.8-430.5s4.2-81,1.5-121.5c-2.7-40.6-0.5-48.1-0.5-48.1c-126.2-50.9-180.1-75.8-208-87.3
						C442.2,50,407,50,400,50L400,50z"/>
				</g>
				<path class="st2" d="M399.2,92.2c22.9,0,44.3,3.7,60.4,10.3c7.4,3,17.1,7.3,29.5,12.6c28.6,12.4,75.5,32.8,151.5,63.6
					c0,8.6,0.4,19.6,1.3,33c2.4,36.3,1.9,78.5-1.3,110.1c-0.1,1.3-0.3,3-0.5,4.9c-2,22-7.2,80.5-40.5,152.4
					c-18.9,40.7-44,79.2-74.5,114.4c-34.7,40.1-77,76.5-125.9,108.4c-48.8-31.9-91.1-68.3-125.9-108.4
					c-30.5-35.3-55.6-73.8-74.5-114.4c-33.4-71.8-38.6-130.4-40.5-152.4c-0.2-1.9-0.3-3.6-0.5-4.9c-3.2-31.6-3.7-73.8-1.3-110.1
					c0.9-13.4,1.3-24.5,1.3-33c76-30.8,122.9-51.1,151.5-63.6c12.3-5.4,22.1-9.6,29.5-12.6C354.9,95.9,376.3,92.2,399.2,92.2
					 M399.2,72.3c-6.5,0-39.4,0-68,11.8c-26.1,10.7-76.4,34-194.2,81.5c0,0,2,7-0.5,44.9c-2.5,37.9-1.9,81.3,1.4,113.5
					c3.3,32.1,12.5,245.8,261.2,401.8c248.7-156,258-369.7,261.2-401.8s3.9-75.6,1.4-113.5c-2.5-37.9-0.5-44.9-0.5-44.9
					c-117.8-47.5-168.1-70.8-194.2-81.5C438.6,72.3,405.7,72.3,399.2,72.3L399.2,72.3z"/>
			</g>
			<g>
				<path class="st3" d="M629,52.7c-5-2.2-8.5-1-7,6.5c23.4,113.7-124.7,99.1-128.9,98.8c-4.2-0.2-7.8,0.6-12.6-0.2
					c-4.8-0.8-21.6-4.8-31.1-9.3c-9.5-4.5-15.2-6.9-25.1-9.1c-10-2.2-19.5,0.9-21.7,2.2c-2.2,1.3-2,1.2-2.6,1.2s-0.4,0.1-2.6-1.2
					c-2.2-1.3-11.7-4.4-21.7-2.2c-10,2.2-15.7,4.6-25.1,9.1c-9.5,4.5-26.3,8.5-31.1,9.3c-4.8,0.8-8.5,0-12.6,0.2
					c-4.2,0.2-152.3,14.9-128.9-98.8c1.5-7.5-2-8.7-7-6.5s-52.4,46.2-36.4,88.1s61.2,64.5,154.3,67.8c4.7,0.2,11,1.2,16.5,3.8
					c-1.8,1.5-5.4,3.4-11,3.4c-8.9-0.1-16.9,0.2-22.4-1.2c-5.5-1.4-27.4-6.5-41.4-4.6c-14,1.9-27.7,5.7-33.3,18.3
					c-5.6,12.6,21.2,31.1,44,36.5c7.9,1.9,14.5,3.1,22.1,1.1c7.6-2,30.9-8.4,33.7-9c2.1-0.5,7.8-0.7,11.4-0.2
					c-1,1.7-2.1,3.4-3.3,5.1c-1.6,2.4,0.5,7.1,1.8,10.3c1.3,3.2,3.8,11.1,0.7,21.6c-0.6,2.1-0.7,3.5-1,6.2c-0.2,2.7-1.5,3.6-1.9,6.6
					c-0.4,3-2.6,7.5,5.7,28.6c8.3,21.1,29.1,64.2,29.1,64.2s-2.2,9-3.5,12.2c-1.2,3.2-2.5,11.5-1,14c1.5,2.5,2.7,4.9,3.2,6.4
					c0.5,1.5,3.9,5,13.9,9.4c10,4.3,14,6.7,21.9,11.1c8,4.5,16,7.3,25.8,7.3s17.8-2.8,25.8-7.3c8-4.5,12-6.8,21.9-11.1
					c10-4.3,13.4-7.9,13.9-9.4c0.5-1.5,1.7-3.9,3.2-6.4s0.2-10.7-1-14c-1.2-3.2-3.5-12.2-3.5-12.2s20.8-43.1,29.1-64.2
					c8.3-21.1,6.1-25.6,5.7-28.6c-0.4-3-1.6-3.9-1.9-6.6c-0.2-2.7-0.4-4.1-1-6.2c-3.1-10.5-0.7-18.3,0.7-21.6
					c1.3-3.2,3.4-7.9,1.8-10.3c-1.2-1.8-2.3-3.5-3.3-5.1c3.6-0.4,9.3-0.2,11.4,0.2c2.7,0.6,26.1,7,33.7,9c7.6,2,14.2,0.7,22.1-1.1
					c22.8-5.5,49.6-23.9,44-36.5c-5.6-12.6-19.3-16.5-33.3-18.3s-35.9,3.2-41.4,4.6c-5.5,1.4-13.5,1.2-22.4,1.2
					c-5.6,0.1-9.2-1.9-11-3.4c5.5-2.6,11.8-3.5,16.5-3.8c93.1-3.3,138.3-25.9,154.3-67.8S633.9,54.9,629,52.7z"/>
				<g>
					<g>
						<path class="st3" d="M172.5,157.2c-0.4-0.2-14.5-8.6-19.7-32.4c-3.7-17.2,2-26.2,4.7-29.2C157.3,96.3,149.2,122.2,172.5,157.2
							z"/>
						<path class="st4" d="M294.2,175.1c0-0.5-0.5-1-1-0.9c-7.2,0.1-21.8-0.2-34.4-3.6c0,0,23.8,0.2,34.8-0.5c0-0.2,0-0.4,0-0.5
							c-0.3-3.2-1.4-2.6-1.4-2.6c-150-4-127.3-93.9-127-95.3c-31.7,33.4-26.7,59.8-12.2,82.8c30.4,50.4,133.8,48.1,133.8,48.1
							C294.4,192.8,294.7,181.8,294.2,175.1z M152.8,124.7c-3.7-17.2,2-26.2,4.7-29.2c-0.2,0.7-8.4,26.6,15,61.6
							C172.1,156.9,158,148.6,152.8,124.7z"/>
						<linearGradient id="SVGID_1_" gradientUnits="userSpaceOnUse" x1="147.528" y1="153.9202" x2="292.132" y2="153.9202">
							<stop  offset="0" style="stop-color:#F8ECF5"/>
							<stop  offset="0.6906" style="stop-color:#730000"/>
						</linearGradient>
						<path class="st5" d="M292.1,196.3c0,0-10.8-0.3-23-1.8c-12.1-1.5-28.3-3.8-33.8-5c-5.5-1.2-6.7-0.7-8.6-1.3s-6.5-0.8-8.7-1.5
							c-2.1-0.7-5.5-1.5-9.6-2.2c-3.2-1.2-3.3-1.5-9-2.2c0,0-4.5-3-8-4.8c-3.5-1.8-44.4-20.6-43.1-69.3c0,0-9.2,47.1,34.2,69.1
							c10.5,5.2,13.3,6.1,14,6.6s4.6,0.6,7,2.2c1.2,0.7,5.7,0.4,8.6,2.4c2.7,0,7.7,1.2,9.5,2c2.1,0,8.6,1.1,10.6,1.7
							c1.6,0.1,11.7,1.9,13.8,2.4c2.1,0.5,36,4.4,44.6,4.9L292.1,196.3z"/>
					</g>
					<g>
						<path class="st3" d="M628.1,157.2c0.4-0.2,14.5-8.6,19.7-32.4c3.7-17.2-2-26.2-4.7-29.2C643.3,96.3,651.5,122.2,628.1,157.2z"
							/>
						<path class="st4" d="M513.7,202.6c0,0,103.4,2.2,133.8-48.1C662,131.5,667,105,635.3,71.6c0.3,1.4,23,91.3-127,95.3
							c0,0-1.1-0.6-1.4,2.6c0,0.1,0,0.3,0,0.5c11,0.7,34.8,0.5,34.8,0.5c-12.5,3.4-27.2,3.7-34.4,3.6c-0.5,0-1,0.4-1,0.9
							C505.9,181.8,506.3,192.8,513.7,202.6z M628.1,157.2c23.4-34.9,15.2-60.9,15-61.6c2.7,3,8.5,12,4.7,29.2
							C642.6,148.6,628.5,156.9,628.1,157.2z"/>
						
							<linearGradient id="SVGID_2_" gradientUnits="userSpaceOnUse" x1="-217.8038" y1="153.9202" x2="-73.1998" y2="153.9202" gradientTransform="matrix(-1 0 0 1 435.3026 0)">
							<stop  offset="0" style="stop-color:#F8ECF5"/>
							<stop  offset="0.6906" style="stop-color:#730000"/>
						</linearGradient>
						<path class="st6" d="M508.5,196.3c0,0,10.8-0.3,23-1.8c12.1-1.5,28.3-3.8,33.8-5s6.7-0.7,8.6-1.3s6.5-0.8,8.7-1.5
							c2.1-0.7,5.5-1.5,9.6-2.2c3.2-1.2,3.3-1.5,9-2.2c0,0,4.5-3,8-4.8c3.5-1.8,44.4-20.6,43.1-69.3c0,0,9.2,47.1-34.2,69.1
							c-10.5,5.2-13.3,6.1-14,6.6c-0.6,0.5-4.6,0.6-7,2.2c-1.2,0.7-5.7,0.4-8.6,2.4c-2.7,0-7.7,1.2-9.5,2c-2.1,0-8.6,1.1-10.6,1.7
							c-1.6,0.1-11.7,1.9-13.8,2.4c-2.1,0.5-36,4.4-44.6,4.9L508.5,196.3z"/>
					</g>
				</g>
				<g>
					<g>
						<path class="st2" d="M483.3,285.6c-1.4-2.1-0.7-9.7,1.7-13.6c2.5-3.9,4.6-10.2,1.2-15c-3.3-4.8-29.9-44.6,17.3-53.9
							c0,0-0.1-0.1-0.2-0.2c-0.1-0.1-0.2-0.2-0.3-0.4c0,0,0,0,0,0c-0.2-0.3-0.5-0.8-0.9-1.4c-0.2-0.3-0.4-0.6-0.6-1
							c-0.3-0.6-0.6-1.2-1-1.9c-2.1-4.3-4.6-11.3-4.3-20c0-0.3,0-0.6,0-0.9c0,0,0,0,0,0c0-3.9,0.5-8.3,1.6-13c0,0-2,0.5-7.6-0.1
							c-2-0.4-7.7-1.3-12.4-2.4c-0.1,0-0.1,0-0.2,0c-0.5-0.1-1.1-0.3-1.6-0.4c-0.5-0.1-1-0.3-1.4-0.4c-6.2-1.9-15.5-5.6-19.6-7.2
							c-4.1-1.6-17.8-8-21-9.1c-3.1-1.1-16.5-8.2-30.7-1.5c-0.8,0.3-3.3,0.7-4.4,0.4c-1.2-0.3-7.5-3.4-12.6-3.2
							c-5.1,0.2-10.2-0.1-18.6,3.6c-8.5,3.7-18.3,8.4-23.3,10.3c-4.5,1.8-15.9,6.4-27.2,9.4c-0.2,0.1-0.5,0.1-0.7,0.2
							c-1.7,0.4-6.5,1.2-14.4,0.8c0,0,3.3,10.3,1.5,22c-0.1,0-0.2-0.1-0.2-0.1s-0.7,5.2-2.8,10.2c-1,2.5-2.3,4.9-4.1,6.7
							c0,0,22.2,1.7,26.7,18.7c4.5,17-7.5,31.9-9,34.9c-1.5,3-2.7,7,0.7,14.7c3.5,7.7,3.2,13.5,1,17.2c-2.2,3.7-3,12.3-3.4,13.8
							c-0.4,1.5-2.1,3.1-2.2,7.6c-0.1,4.5-1.4,7.2,6.6,30.7c8,23.4,21.3,52.2,22.1,54c0.8,1.8,1.8,0.8,2.3-1c0.5-1.8,1.2-5,2-6.5
							c0,0,0,0,0-0.1c-0.3,5.6-0.4,11.4,0.2,16.6c0,0-1,3.2-2,7.3c-1.2,4.9-2.2,11.1-1.3,14.4c1.7,6,8,11,21.2,12.2
							c13.2,1.2,30.7,0.7,31.7,1c1,0.2,5.3,2.5,6.5,2.5s5.6-2.5,6.2-2.6c0.6-0.1,18.8-0.2,27.6-0.8c8.8-0.7,27.1-3.3,25.9-15.8
							c-0.6-6.9-1.4-11.2-2.1-14.2c-0.6-2.4-1.2-4-1.7-5.5l2.7-8c0,0,2.1,2,3.4-1.2c1.3-3.2,20.5-50.6,21.3-52.4
							c0.7-1.7,1.5-7.2,2.5-10c1-2.7,2.5-8.2,3.7-13c1.2-4.7-1-16.2-2.2-19C486,296.3,486,289.8,483.3,285.6z"/>
						<path class="st2" d="M400,442.5l-28.5-0.3c0,0,4.2,7.1,13,7.4c8.7,0.3,13.4,0.3,15.5-0.4c2.2,0.7,6.8,0.8,15.5,0.4
							c8.7-0.3,13-7.4,13-7.4L400,442.5z"/>
					</g>
					<g>
						<path class="st7" d="M496.5,186.1c0,0-0.4-8.4-0.1-11.7c0,0-14.5,1.5-16.9,1.5s-7.2,0.5-20.3-3.7
							c-13.1-4.2-22.8-10.9-25.2-11.1c-2.4-0.2-10.6-0.6-12.6,0c-2,0.6-8.4,4.4-7.2,10s1.7,10.8,1.4,13.3c-0.4,2.5,2.4,15,2.5,18.7
							s1.2,8.9-3.9,8.2c-5.1-0.6-10.4-3.1-13,6.9c-2.6,10-1,31.2,1,35.7c0.7,2,0.8,3.9,1.1,4.9c0.2,1,1.7,3.4,2.9,5.3
							s4.5,6.6,3,21.3c0,0,6.5-4.2,6.7-4.9c0.2-0.6-0.4-13.2,0.4-16.1c0.7-2.9,1.7-18,1.7-18s-4.7-2.7-1.7-5.2
							c3-2.5,4.7-3.4,6.7-4.5c2-1.1,4.9-4.1,5.7-10.8c0.9-6.7,5.5-23.4,11.1-26.7c5.6-3.2,14.2-6.1,17.7-6.7
							c3.5-0.6,16.6-0.6,18.3-0.7C477.7,191.6,481.9,192.6,496.5,186.1z"/>
						<path class="st7" d="M411.5,326.2c1.2,0,4.3,2.7,4.5,5.5c0.2,2.8,0.2,9.8,0.2,9.8s-1-0.3-1.3,6.3s-0.5,30.4,2.3,35.9
							c1.2,2.2,1.7,3.2,1.7,3.2s1.4,0.2,1.6,1.6c0.2,1.3-0.7,2.1-1.2,2.6s-3,6.2-3.5,6.9c-0.5,0.7-0.9,1.3-2.4,1.4
							c-1.5,0.1-1.7,0.1-3.6-2.9c-1.8-3-4.2-7.2-5.1-8.8s-0.9-3-0.1-8c0.8-5,0.6-15.7-0.2-17.1c0,0-0.7-12.4,0.2-13.8
							c0,0,0.5-15.6,1.2-17.2C406.3,330,407.8,326.1,411.5,326.2z"/>
						<path class="st0" d="M404.8,230.1c0,0-1.8,15.5-3.3,20.1c0,0-0.3,4.9-1.8,9.6c-1.5,4.7-0.8,8.9-1.5,11.7
							c-0.7,2.8-2.2,11-0.7,12.1c0,0,0.5,2.7-3.2,2.3c-1.6-0.1-2.1-0.8-2.4-1.4c-0.3-0.6-3.1-2-3.5-2.3c-0.4-0.3-0.9-0.3-1.5-8.9
							c-0.7-8.6-1.7-23.9-1.8-25.3c-0.2-1.3,0.9-2.5,1.4-2.9c0.4-0.4,0.8-2.2-2-4c-2.8-1.8-7.8-3.7-10-14.3
							c-2.2-10.6-4.8-21.3-10.3-24.9c-5.5-3.7-15.5-7.2-22.9-7.3c-7.5-0.2-18-0.7-24.3-2.8c-5.7-2-12-4.7-13.1-5.2
							c1.8-11.8-1.5-22-1.5-22c8,0.4,12.7-0.5,14.4-0.8c-0.9,0.3-1.9,0.5-2.8,0.7c0,0,1.3,0.2,6.4,0c1.5-0.8,4-1,6-1l5.2-1.8
							c0,0,8.1-2.2,8.8-2.7s1-0.7,3-1c2-0.3,3.7-1.5,4.8-1.7c1.2-0.2,2.7-0.5,3.5-1.2c0.8-0.7,1.8-1.2,3-1.3
							c1.2-0.2,1.8-1.5,3.2-1.8c1.3-0.3,2.7-0.8,4.3-1.8c1.1-0.6,2.9-0.7,4.4-2.3c1.1-0.3,4.1-2.1,4.5-2.6c1.2-0.2,2.7-1.1,4.5-0.9
							c1.7,0.2,2.9-0.4,4.1-0.8c1.2-0.4,2.8-0.9,6.2-0.9c3.3,0,11.2,0.5,10.4,4.6c-0.9,4.1-2.1,6.4-2.8,6.7
							c-0.6,0.4-3.7,2.7-4.6,2.5c0,0-2.2,4-11.5,1.6c-2.4-0.6-3.1-1.2-7,0.9c-3.9,2.1-5,3.7-5,3.7s-4,1.4-6.2,4c0,0-2.9,1.3-4,2.5
							c0,0-0.7-0.4-3.2,0.8c-2.5,1.1-12,3.4-13.2,3.4c-1.2,0-7,0.4-12.5,1.5s-13.6,1.5-13.6,1.5v0.8l-6.5,0.2c0,0,18.9,2.3,28.8,0.2
							c9.9-2.1,13.5-3.8,13.5-3.8s3.5,0,5.1-1.7c0,0,1.9,0,3.4-1.2s4.3-2,4.3-2s1.4-1.1,3-1.7c1.6-0.6,2.5-2.1,3.2-2.2
							c0.7-0.2,3.3-0.9,5.1-1.1c1.8-0.2,11.9-1.7,14.7,3.3c2.8,5.1,3.6,10.3-1.2,35.2c-1.2,5.8-0.8,8.5,0.5,9.6
							c1.3,1.2,3.7,1.5,6.5,0.5C395.7,211.3,402,210.6,404.8,230.1z"/>
						<path class="st0" d="M497.9,164.2c-1.1,4.8-1.5,9.1-1.6,13c-0.6,0-9.7,0-17.9-1.9c-8.5-2-12-1.9-18.5-1.9
							c-6.5,0-19-6.4-25.9-12.5c-4.7-4.1-8-3.7-12.1-2.7c-4.1,1-9.1-0.4-13.1-4c-4-3.6-3.9-7.9-3.4-9.9c0,0,4.6-1.6,5.1-2
							c0,0,6.5-0.2,8.6,0.2c2.1,0.5,2.6,0.5,4.1,1.2c0,0,3.8,0.2,5.7,0.9c2,0.7,7.4,3.7,10,4.9c2.6,1.2,9.5,4.2,10.9,5.1
							c1.4,0.9,9.6,3.2,11.5,4c1.9,0.7,9.2,2.4,13.3,4.4c0,0,2.1,0.2,4,0.1c1.5,0.6,1.4,1,2.6,1s8-0.1,9.6-0.1
							c0.3,0,0.1-0.1-0.6-0.2C495.9,164.8,497.9,164.2,497.9,164.2z"/>
						<path class="st0" d="M378.7,357.2c-0.5,1.2-1.5,3.7-4.1,2.9c-2.6-0.8-10.5-5.5-15.3-9.9c-4.7-4.4-8-11.1-13-33.5
							c-0.4-2-4-0.2-3.7,2.9c0.2,3.1,0.6,8.5-1,9.2c0,0,5.2,31.5,4.7,35.9c-0.3,2.5-1.6,10-2.3,18.9c-0.5,0.2-1.7,0.2-2.5-3.8
							c0,0-1.3-2.2-2-2.7c0,0-0.2-3.7-0.3-4.5c-0.2-0.8-1.5-2.5-1.5-6c0,0-4.3-8-5-10.8c0,0-4.7-10.6-6.5-15
							c-1.8-4.3-12.5-19.5-6.2-55.9c0,0,5-3,17.7,9.2c6.2,5.2,6,3.5,14.2,8.2s13,8.7,14,12.2c1,3.5,0,16.2,0.7,20.7
							c0.7,4.5,0.7,10.8,7.7,20.7c1,1.4,2.3,0.9,2.3-0.5C377.2,354.6,379.2,356,378.7,357.2z"/>
						<path class="st0" d="M307.4,192.3c1.7-0.1,7.5,0.7,8.6,0.8c1.2,0.2,6.3,1.3,8.1,2c1.8,0.7,3.3,0.3,4.7,0.7
							c1.3,0.3,2.3,0.8,4,1.3c1.7,0.5,4.3,0.7,4.3,0.7s1.7,0.8,3.5,1.3s3.3,0.3,4.5,1.2c1.2,0.8,3.7,1.7,5.3,2c0,0,4.5,1.8,8,6.8
							c3.5,5,5,8.3,5.7,10c1.8,1.7,8,12,8.1,14c0.2,2,0,43.7,0,45.2s-0.8,2.8-3,3c-2.2,0.2-5.2,1-5-2.5c0.2-3.5,2.7-13.3-2.3-18.5
							c-5-5.2-7.5-7.6-7.5-7.6l-1.2-0.3l-1.8-2.2c0,0-1.5-2-2.7-2.3c0,0-1.2-2.3-2.2-2.5c0,0,0.5-1-2.7-3.8c0,0-0.3-1.6-4.5-4.6
							c-1.3-1.3-0.5-4,0.8-4.2c1.3-0.2,2,1.3,2.5,1.8c0.8,0.2,7.8,4.7,8.8,4.9c0,0,0.3-0.3,1,0.8c0.7,1.1,3.9,2.2,3.9,2.2
							s-0.2,0.1,1.6,2.1c1.7,2,3.6,4,3.6,4.9c0.3,0.4,2.3,2.7,2.3,2.7s1.4-0.2,1.4-2.2c0-1.9,1.2-8.1,1-10.1
							c-0.2-2.1-2.7-7.9-8.7-16c0,0-0.7-0.7-1-1.7l-1.2-0.7l-0.7-1.2l-1.7-0.7c0,0-0.6-1.2-2.6-2.6c-2-1.4-4.1-3.6-6.2-4.2
							c0,0-1-2.2-4.6-3.3c0,0,0.5-1.2-19.3-3.5l-2.2-0.5c0,0-1.1-1.5-2.3-1.8l-0.3-1.3c0,0-3.9-4.6-6.1-5c0,0,0-1.3-2.2-2.2
							C306.1,194.9,305.7,192.4,307.4,192.3z"/>
						<path class="st0" d="M385,315.3c0,0,0,8.7,0.5,12s1.7,11.4,1.8,13.2l0.3,14.6l-0.5,0.8c0,0-1,5.4-1.4,6.1
							c-0.4,0.7-1.7,2.7-4.1,2.8c-2.3,0.2-6.3-0.4-6.3-0.4s-5.2-3.2-7-4.1s-2.7-2.4-2.7-2.4l-2.1-0.9l-0.3,0.3l-1.5,0
							c0,0-2.8,2.1-1.8,6.6c0,0,1.2,3.1,1.6,4.2c0,0,1.5,1.8,2.4,2.8c0.9,1,0.2,4.8,0.2,4.8s-0.2,8.7-0.2,9.2s0,0.9,3,1.6
							c0,0,1.9,0.4,4.4,0.6c2.5,0.2,6.4,0.3,6.4,0.3s1.5,0.7,2.4,2.9c0,0,0.4,0.6,0.9,0.7c0,0,0.2,0.6,0.1,1.4c0,0,1.3,0.7,1.7,1.3
							c0.3,0.6,0.5,1.3,0.5,1.3l2.3,1.9c0,0,1.7-0.2,2.5,0c0.8,0.2,1.5,0.5,1.5,0.5h1.9c0,0,1.7-2.8,2.4-2.8c0,0,0.4-1.8,2.3-4.3
							c0,0,0.7-2.5,2.5-4.9l0.5-2.3l-0.5-2.6c0,0-1-10.7,0.1-20.3c0,0-0.5-22.1-0.5-24.3c0,0-0.7-3,0-4.2c0,0,0.7-7.7-1.1-11
							s-2.7-3.1-2.7-3.1s-0.5-1.1-1.7-1.6c0,0-0.7-2.1-3.1-2.2C387.3,313.7,385.5,313.7,385,315.3z"/>
						<path class="st0" d="M344.9,409.7c0.1-0.2,0.4-0.1,0.4,0.1c-0.1,4,0.1,21.9,14.3,22.5c1.1,0,0.6,1.4-3.7,0.7
							c-4.4-0.6-12.2-4.7-13.4-11.3C341.3,415.8,343.6,411.9,344.9,409.7z"/>
						<path class="st0" d="M384,414.7c0,0,0.7,1.1,1.4,1.6s2.1,1.3,2.5,2.5c0.4,1.2,0.6,1.2,0.5,1.9c0,0,0.6,0.2,0.6,1.2
							s0.5,2.5-1.7,5.7c0,0-1.8,0.3-2.7,2.2l-0.5,0l-0.5,0.5c0,0-8.5-0.2-11.3,0c-2.8,0.2-3.7,1.2-3.8,1.9c-0.2,0.7,0,2.5,1.3,2.7
							c1.3,0.2,17.8,0.1,17.8,0.1l0.4-0.5c0,0,2.8,0.6,5.6-1.5c2.3-0.7,5.4-2.6,5.9-5.8s0.5-5.1-2.8-8.1c-1-1.7-4.7-5.7-11.3-4.6
							C384.6,414.5,384.2,414.4,384,414.7z"/>
					</g>
				</g>
				<g>
					<path class="st3" d="M381.5,199.3l1.8-3.5c0,0,0-3.2,1.3-5l1.2-5.5c0,0,2.3-5.2,2.3-5.7c0-0.5,0-2.5,0.9-4.3s6.3-24.5,6.5-26.4
						c0.2-1.9,1.4-3,1.4,0.4s-0.5,16.1-0.7,19c-0.2,2.9-1.6,10.8-2.4,12.5s-3.6,7-4,7.9c-0.4,0.9-0.2,1-0.6,1.9
						c-0.4,0.9-1.2,2.6-1.5,3.4l-1.2,2c0,0-1.2,2-1.4,2.6l-1.6,3C383.5,201.4,380.5,203.1,381.5,199.3z"/>
					<path class="st3" d="M419.1,199.3l-1.8-3.5c0,0,0-3.2-1.3-5l-1.2-5.5c0,0-2.3-5.2-2.3-5.7c0-0.5,0-2.5-0.9-4.3
						s-6.3-24.5-6.5-26.4c-0.2-1.9-1.4-3-1.4,0.4s0.5,16.1,0.7,19c0.2,2.9,1.6,10.8,2.4,12.5c0.7,1.6,3.6,7,4,7.9
						c0.4,0.9,0.2,1,0.6,1.9c0.4,0.9,1.2,2.6,1.5,3.4l1.2,2c0,0,1.2,2,1.4,2.6l1.6,3C417.1,201.4,420.1,203.1,419.1,199.3z"/>
					<path class="st3" d="M359.3,244c0,0,4.7-12.5-6.5-21.6c-11.1-9.1-25.4-8.3-29.6-7c0,0,16.3,2.8,22.9,8.6S355.6,231.6,359.3,244
						z"/>
					<path class="st3" d="M441.1,244c0,0-4.7-12.5,6.5-21.6c11.1-9.1,25.4-8.3,29.6-7c0,0-16.3,2.8-22.9,8.6S444.8,231.6,441.1,244z
						"/>
					<path class="st3" d="M355.9,267.9c0,0,2.2-14-28.7-23.4c-1.7-0.2-2.1,0.7,0.8,1.9C330.9,247.6,345.6,257.8,355.9,267.9z"/>
					<path class="st3" d="M380.7,351.1c-1.5-2.7-3.2-15.8-3.3-18.6c-0.2-2.8-0.5-10.8-1-19c-0.5-8.2-7.2-15.6-7.2-15.6
						s4.5-0.1,7.2-2.5c2.7-2.4,2.7-12.2,2.7-16.8s-1-13.6-1.4-15.6c-0.4-2-1-10.6-1.4-12.2c-0.8-3-2.3-1.1-2.3,0.5
						c0,1.6,0.3,30.6,0.3,30.6c0.9,6.9-3,11-4.1,12s-5,0.4-5,0.4l-3.9-4.9c0.5-0.4,1.2-2.1,0.2-2.9c-1-0.8-1.1-3.7-1.1-6.2
						s-4.5-8.3-6.3-10.6c-1.8-2.3-5.7-5.3-13-11.1c-7.3-5.8-15.1-3.3-15.1-3.3l0.3,16c4.3,18.1,10.6,19.3,14,20.1
						c3.3,0.8,15.4,1.8,15.4,1.8s6.9,4.7,9.9,7.7c3,3,7.1,16.3,8.5,27.8c1.3,11.5,3.5,19.1,4.5,22.8
						C379.7,354.9,381.5,352.8,380.7,351.1z M349.5,277.6l0.4,3.1c-0.7,0.4-2.7,0.4-2.7,0.4l-0.7-3.7c0,0-3.1,0.2-4.9-2
						c-1.8-2.2-0.1-4.2,0.9-5.7s2.2-2.8,3.6-2.5c3.1,0.7,6.6,7.7,6.6,7.7C353,278.2,349.5,277.6,349.5,277.6z"/>
					<path class="st4" d="M340.1,263.5c0,0-2-1.1-2.6-2c0,0-1.7-0.4-3-1.1c-1.2-0.7-4-2-4.1,0.7c-0.1,2.7,0.5,6.7,0.9,8.2
						c0.4,1.5,1.9,7.9,2.7,10c0.9,2.1,1.5,5.4,3.7,6.1c2.2,0.7,4.9,0.6,7.2,0.4c0,0,2.2,1.5,3.9,1.6c1.6,0.1,7.2,0,8,0
						c0.7,0,0.5-0.5,0-2c-0.5-1.5-0.3-2-0.3-2s-0.9-0.4-1.1-1.2c-0.1-0.8-0.4-1.2-0.4-1.2s-0.9-2.1-1.1-2.2
						c-0.1-0.2-0.6-0.6-1.4,0.2c-0.8,0.8-4,3.5-8.4,2c-4.5-1.5-7-5.2-7.7-7.5c-0.7-2.3-1.3-5.7,0.4-7c1.7-1.4,2.1-1.7,2.8-2
						C340.3,264.3,340.1,263.5,340.1,263.5z"/>
					<path class="st3" d="M444.7,267.9c0,0-2.2-14,28.7-23.4c1.7-0.2,2.1,0.7-0.8,1.9C469.7,247.6,454.9,257.8,444.7,267.9z"/>
					<path class="st3" d="M421.9,351.3c1-3.7,3.2-11.3,4.5-22.8c1.3-11.5,5.5-24.8,8.5-27.8c3-3,9.9-7.7,9.9-7.7s12.1-1,15.4-1.8
						c3.3-0.8,9.6-2,14-20.1l0.3-16c0,0-7.8-2.5-15.1,3.3c-7.3,5.8-11.1,8.8-13,11.1c-1.8,2.3-6.3,8.2-6.3,10.6s-0.1,5.4-1.1,6.2
						c-1,0.7-0.3,2.5,0.2,2.9l-3.9,4.9c0,0-3.9,0.6-5-0.4s-5-5.1-4.1-12c0,0,0.3-28.9,0.3-30.6c0-1.6-1.5-3.5-2.3-0.5
						c-0.4,1.6-1,10.2-1.4,12.2c-0.4,2-1.4,11-1.4,15.6s0,14.5,2.7,16.8c2.8,2.4,7.2,2.5,7.2,2.5s-6.7,7.4-7.2,15.6
						c-0.5,8.2-0.8,16.1-1,19c-0.2,2.8-1.8,16-3.3,18.6C419,352.8,420.9,354.9,421.9,351.3z M448,274.9c0,0,3.5-7,6.6-7.7
						c1.5-0.3,2.6,1,3.6,2.5s2.6,3.5,0.9,5.7c-1.7,2.2-4.9,2-4.9,2l-0.7,3.7c0,0-2,0-2.7-0.4l0.4-3.1
						C451.1,277.6,447.6,278.2,448,274.9z"/>
					<path class="st4" d="M460.4,263.5c0,0,2-1.1,2.6-2c0,0,1.7-0.4,3-1.1c1.2-0.7,4-2,4.1,0.7c0.1,2.7-0.5,6.7-0.9,8.2
						c-0.4,1.5-1.9,7.9-2.7,10c-0.9,2.1-1.5,5.4-3.7,6.1c-2.2,0.7-4.9,0.6-7.2,0.4c0,0-2.2,1.5-3.9,1.6c-1.6,0.1-7.2,0-8,0
						c-0.7,0-0.5-0.5,0-2c0.5-1.5,0.3-2,0.3-2s0.9-0.4,1.1-1.2c0.1-0.8,0.4-1.2,0.4-1.2s0.9-2.1,1.1-2.2c0.1-0.2,0.6-0.6,1.4,0.2
						c0.8,0.8,4,3.5,8.4,2c4.5-1.5,7-5.2,7.7-7.5c0.7-2.3,1.3-5.7-0.4-7c-1.7-1.4-2.1-1.7-2.8-2
						C460.2,264.3,460.4,263.5,460.4,263.5z"/>
					<path class="st3" d="M375.8,406.6c0,0,34.4-1.7,48.6,0c0,0-10.5,3.7-24.4,3.7C386,410.3,375.8,406.6,375.8,406.6z"/>
					<path class="st3" d="M375.4,401.8c0.4-0.9,0.4-7.4-3.6-10.6c-4-3.2-6.4-6-13.6-3.4c-7.2,2.6-12.1,10.8-12.1,18.1
						c0,7.2,0.2,26.4,17.5,26.1c0,0-5.6-2.9-8-6.7c-2.4-3.9-5.9-12.3-4.6-20.3s7.6-14.8,15-12.5c7.4,2.4,6.5,8.2,6.5,9.5
						S374.3,404.4,375.4,401.8z"/>
					<path class="st3" d="M366.8,399.2c-1.1-0.6-3.2-5.1-6.6,0.5c-3.4,5.6-3.4,16.8,1.4,24.3c0.6,1.2-2.2,1.7-4.5-2.1
						s-3.2-14-1.6-18.6c1.6-4.6,5.1-8.9,7.7-8.6c2.6,0.2,5.1,2.6,5.9,3.5C369.8,399.1,368.7,400.3,366.8,399.2z"/>
					<path class="st3" d="M372.2,411.7c0,0,8.7,8.9,10.1,10.4c1.4,1.5,1.4,7.1-4.5,6.5c-5.9-0.6-11.2-5.5-13.6-10.7
						c-0.7-1.5-0.7-3.4-0.8-4.3c-0.2-0.9-0.5-5.6,0-7.3s3.9-3.6,5.9-2.6c0.9,0.3,0.5,1.8,1.1,2c0.6,0.2,1.4,0.5,1.5,1.7
						C371.9,408.6,371.6,411.1,372.2,411.7z"/>
					<path class="st3" d="M425.3,401.8c-0.4-0.9-0.4-7.4,3.6-10.6s6.4-6,13.6-3.4c7.2,2.6,12.1,10.8,12.1,18.1
						c0,7.2-0.2,26.4-17.5,26.1c0,0,5.6-2.9,8-6.7c2.4-3.9,5.9-12.3,4.6-20.3s-7.6-14.8-15-12.5c-7.4,2.4-6.5,8.2-6.5,9.5
						S426.4,404.4,425.3,401.8z"/>
					<path class="st3" d="M433.9,399.2c1.1-0.6,3.2-5.1,6.6,0.5c3.4,5.6,3.4,16.8-1.4,24.3c-0.6,1.2,2.2,1.7,4.5-2.1
						s3.2-14,1.6-18.6c-1.6-4.6-5.1-8.9-7.7-8.6c-2.6,0.2-5.1,2.6-5.9,3.5C430.9,399.1,432,400.3,433.9,399.2z"/>
					<path class="st3" d="M428.6,411.7c0,0-8.7,8.9-10.1,10.4c-1.4,1.5-1.4,7.1,4.5,6.5c5.9-0.6,11.2-5.5,13.6-10.7
						c0.7-1.5,0.7-3.4,0.8-4.3c0.2-0.9,0.5-5.6,0-7.3s-3.9-3.6-5.9-2.6c-0.9,0.3-0.5,1.8-1.1,2c-0.6,0.2-1.4,0.5-1.5,1.7
						C428.8,408.6,429.2,411.1,428.6,411.7z"/>
					<path class="st3" d="M342.6,328.8c1.5,1.2,9.8,33.9,11.1,38.1s1.3,11.3-1.2,17.5c-2.5,6.2-9.5,21.9-10.3,24.6
						c-0.8,2.7-4.8,3.8-4.8,3.8v-5l2.7-9.6c0,0,1.7-3.3,2.7-7.1s4.3-16.1,4.2-19c-0.2-2.8-0.8-10.8-0.8-10.8s-2.3-13-2.7-14.5
						s-1.2-3.8-1.2-3.8s-0.2-3.2-0.3-4.5c-0.2-1.3-1.3-5.8-1.7-7.1C340,330,340.8,327.3,342.6,328.8z"/>
					<path class="st3" d="M457.6,328.8c-1.5,1.2-9.8,33.9-11.1,38.1s-1.3,11.3,1.2,17.5c2.5,6.2,9.5,21.9,10.3,24.6
						c0.8,2.7,4.8,3.8,4.8,3.8v-5l-2.7-9.6c0,0-1.7-3.3-2.7-7.1c-1-3.8-4.3-16.1-4.2-19c0.2-2.8,0.8-10.8,0.8-10.8s2.3-13,2.7-14.5
						s1.2-3.8,1.2-3.8s0.2-3.2,0.3-4.5c0.2-1.3,1.3-5.8,1.7-7.1C460.2,330,459.4,327.3,457.6,328.8z"/>
				</g>
				<g>
					<path class="st2" d="M214.9,223.3c5.9-2.3,10-5.2,12.7-4c0,0-10,8.5-10.7,13.2c-0.7,4.7,0.4,4.7,0.4,4.7s10-4.2,16.1-4.4
						c6.2-0.2,16.5,2.8,33.5,12l10.3,5.2v3.5c0,0-34.9-0.3-37.6,2l-2.7,1.7c0,0-15.5-8.5-19.8-12.1
						C212.9,241.2,199,229.6,214.9,223.3z"/>
					<path class="st2" d="M235.9,219c0,0,0.8-1.9,5.7-1.5c4.8,0.3,33.1,3.7,44.9,2.2s21.3-6.7,21.3-6.7s19,8.8,4.3,37.4
						c0,0-23.3-6.8-28.4-9.5c-5.2-2.7-21-13-23.6-14.6C257.3,224.6,244.1,218.7,235.9,219z"/>
					<path class="st0" d="M286.4,219.6c0,0,0.4,0.8,0,1.4c-0.4,0.6-0.9,0.6-0.9,1.6c0,1-0.5,2.4,0,2.7c0.5,0.4,1.4,1.4,1.5,1.9
						c0.1,0.5,0.2,0.7,1,1.1c0.7,0.3,3.2,2.2,4.8,2.8c1.7,0.7,2.2,1.5,3.7,2c0,0,0.6,0.4,1.4,0.8s6.6,1.8,8.6,2.2
						c2.1,0.4,3.5,0.3,4.9-0.4c1.4-0.7,3.4-1.7,3.4-1.7s0.5-0.9,0.8-1.1c0.3-0.2,1.8-1.3,1.8-1.3s0.2-7.3-2.3-11s-2.5-3.7-2.5-3.7
						s-0.9,0-2.1-1.2c0,0-1.9-1.2-3.1-1.1c-1.2,0.1-4,0.6-4.7,0.8s-2,0.6-3.3,1.1s-3.5,1.2-3.5,1.2s-3.6,1.6-4.2,1.7
						C291.1,219.5,286.4,219.6,286.4,219.6z"/>
					<path class="st0" d="M297.4,251.9c-1.1-0.3-1.2-0.3-2.8-0.4c-1.6-0.1-3.5-0.7-5.7-1.3c-2.2-0.6-6-2.3-6.5-2.5s-1.4-0.1-1.8-0.2
						c-0.4-0.1-2.8-1.3-2.8-1.3s-3-0.5-3.6-1.1c-0.6-0.6-1.2-1.2-1.2-1.2s-0.7,0-1.3-0.5s-2.4-2.1-2.4-2.1s-0.6,0-1.1-0.6
						c-0.6-0.6-1.1-1.6-1.1-1.6s-0.4-0.1-1-0.4s-0.9-0.9-0.9-1.1s-0.6-0.7-1.4-0.9c-0.8-0.1-0.6-1.2-1.4-1.5c-0.7-0.2-3-1-2.6,0.7
						s0.9,1.4,1.3,1.6s1.4,1.1,1.8,1.4c0.4,0.4,1.6,0.6,1.9,1.4c0.3,0.8,1.6,1.3,2,1.9c0.4,0.6,0.7,1.1,1,1.4
						c0.3,0.3,0.5,0.9-0.8,0.9s1.2,1,2.7,1.6c1.5,0.5,5.1,2.5,6.1,3.6s-0.4,1.3-1.9,1.2c-1.5-0.1-19.3-0.7-21.8-0.9
						c-2.4-0.2-5.4-0.9-5.4-0.9l-3-0.1c0,0-1.7,1.8-2.7,2.6c-1.1,0.7-2.6,1.7-3.6,2c-1,0.2-1.3,1-0.6,1.1c0.7,0.1,1.2-0.1,1.6,0.2
						c0.4,0.4,1.9,0.3,2.3,0c0.4-0.3,9.2-0.6,12.3,0.4s4.6,1.5,6.2,1.6c1.7,0.1,19.7,0,20.9,0.2c1.2,0.2,4.8,0.6,6.9-0.6
						c2.1-1.2,3.7-2,4.6-2.3s1.5-0.8,2-0.8s3.1-0.2,3.7-0.2C297.9,253.4,298.7,252.2,297.4,251.9z"/>
				</g>
				<g>
					<path class="st2" d="M585.1,223.3c-5.9-2.3-10-5.2-12.7-4c0,0,10,8.5,10.7,13.2c0.7,4.7-0.4,4.7-0.4,4.7s-10-4.2-16.1-4.4
						c-6.2-0.2-16.5,2.8-33.5,12l-10.3,5.2v3.5c0,0,34.9-0.3,37.6,2l2.7,1.7c0,0,15.5-8.5,19.8-12.1
						C587.1,241.2,601.1,229.6,585.1,223.3z"/>
					<path class="st2" d="M564.2,219c0,0-0.8-1.9-5.7-1.5c-4.8,0.3-33.1,3.7-44.9,2.2c-11.8-1.5-21.3-6.7-21.3-6.7s-19,8.8-4.3,37.4
						c0,0,23.3-6.8,28.4-9.5c5.2-2.7,21-13,23.6-14.6S556,218.7,564.2,219z"/>
					<path class="st0" d="M513.6,219.6c0,0-0.4,0.8,0,1.4c0.4,0.6,0.9,0.6,0.9,1.6c0,1,0.5,2.4,0,2.7c-0.5,0.4-1.4,1.4-1.5,1.9
						c-0.1,0.5-0.2,0.7-1,1.1c-0.7,0.3-3.2,2.2-4.8,2.8c-1.7,0.7-2.2,1.5-3.7,2c0,0-0.6,0.4-1.4,0.8s-6.6,1.8-8.6,2.2
						c-2.1,0.4-3.5,0.3-4.9-0.4c-1.4-0.7-3.4-1.7-3.4-1.7s-0.5-0.9-0.8-1.1c-0.3-0.2-1.8-1.3-1.8-1.3s-0.2-7.3,2.3-11
						s2.5-3.7,2.5-3.7s0.9,0,2.1-1.2c0,0,1.9-1.2,3.1-1.1c1.2,0.1,4,0.6,4.7,0.8c0.7,0.2,2,0.6,3.3,1.1s3.5,1.2,3.5,1.2
						s3.6,1.6,4.2,1.7C509,219.5,513.6,219.6,513.6,219.6z"/>
					<path class="st0" d="M504.2,251.9c1.1-0.3,1.2-0.3,2.8-0.4c1.6-0.1,3.5-0.7,5.7-1.3c2.2-0.6,6-2.3,6.5-2.5s1.4-0.1,1.8-0.2
						c0.4-0.1,2.8-1.3,2.8-1.3s3-0.5,3.6-1.1c0.6-0.6,1.2-1.2,1.2-1.2s0.7,0,1.3-0.5s2.4-2.1,2.4-2.1s0.6,0,1.1-0.6
						c0.6-0.6,1.1-1.6,1.1-1.6s0.4-0.1,1-0.4s0.9-0.9,0.9-1.1s0.6-0.7,1.4-0.9c0.8-0.1,0.6-1.2,1.4-1.5c0.7-0.2,3-1,2.6,0.7
						s-0.9,1.4-1.3,1.6s-1.4,1.1-1.8,1.4c-0.4,0.4-1.6,0.6-1.9,1.4s-1.6,1.3-2,1.9c-0.4,0.6-0.7,1.1-1,1.4c-0.3,0.3-0.5,0.9,0.8,0.9
						c1.3,0.1-1.2,1-2.7,1.6c-1.5,0.5-5.1,2.5-6.1,3.6s0.4,1.3,1.9,1.2c1.5-0.1,19.3-0.7,21.8-0.9c2.4-0.2,5.4-0.9,5.4-0.9l3-0.1
						c0,0,1.7,1.8,2.7,2.6c1.1,0.7,2.6,1.7,3.6,2c1,0.2,1.3,1,0.6,1.1c-0.7,0.1-1.2-0.1-1.6,0.2c-0.4,0.4-1.9,0.3-2.3,0
						c-0.4-0.3-9.2-0.6-12.3,0.4c-3.1,0.9-4.6,1.5-6.2,1.6c-1.7,0.1-19.7,0-20.9,0.2c-1.2,0.2-4.8,0.6-6.9-0.6
						c-2.1-1.2-3.7-2-4.6-2.3s-1.5-0.8-2-0.8s-3.1-0.2-3.7-0.2C503.6,253.4,502.9,252.2,504.2,251.9z"/>
				</g>
			</g>
		</g>
		<g>
			<linearGradient id="SVGID_3_" gradientUnits="userSpaceOnUse" x1="260.3558" y1="541.8539" x2="519.2418" y2="559.5836">
				<stop  offset="0" style="stop-color:#F8ECF5"/>
				<stop  offset="0.5115" style="stop-color:#F8FAF9"/>
				<stop  offset="1" style="stop-color:#6A838A"/>
			</linearGradient>
			<path class="st8" d="M515.7,614.3c0.6-5,1-10,1-15.2c0-65.6-53.2-118.7-118.7-118.7s-118.7,53.2-118.7,118.7
				c0,5.1,0.3,10.2,1,15.2H515.7z"/>
			<path class="st2" d="M356.1,582.9c0,0,11.1-9.1,13.1-10.8c2-1.7,5.2-2.5,0.8-12.3c-4.3-9.8-10-26.5-10.4-28.3
				c-0.4-1.8-1.1-5-1.1-5l-2-1l-4.5,0.5l-14.3,2.9l-14.4,4.5l-8.9,3.7c0,0-6.2,13.8-7.5,18.3s-6.2,25.1-6.2,25.1l3.8,0.2
				c0,0,2.2-18.6,8.7-33.9c0,0,0.2,3-0.2,3.5c-0.3,0.6-1.8,5-2.4,7.8s-1.3,3.6-1.5,5.4c-0.2,1.8-2.3,14-2.2,16.6L356.1,582.9z"/>
			<path class="st2" d="M457.3,496.3L450,491l-18-6.7l-18.2-3.7l-15-1.1l-14.4,0.8l-2.5,0.7l-0.4,1.8l1.9,5.8l5.2,9.7h3.6l5.9,0.4
				l9.9,1.1l11.1,2.5l8.2,2.6c0,0,3.2,0.7,4,1.2c0.7,0.5,2.7,0.8,3.6,1c0.8,0.2,2.4,1.1,2.7,1.3c0.3,0.2,0.3,0.9,4.2,0.6
				c0,0,10.4-6.2,13-6.9c0,0,2.7-1.8,3.9-1.9C460,500,457.3,496.3,457.3,496.3z M389.9,483.6c-2.9-0.1-2.4,1-2.2,1.7s3.6,7,3.6,7
				c-1.7-0.5-4.2-5.3-5.3-7.6c-1.2-2.3,0.3-2.3,5.2-2.6c4.9-0.2,20,0.9,20,0.9S392.9,483.6,389.9,483.6z"/>
			<path class="st2" d="M467.7,556.8c-9-4.9-10-6.3-17.3-0.5c-7.3,5.8-29.5,25.8-29.5,25.8l3.4,5.7l64-4.2l1.4-6
				C489.7,577.7,476.7,561.7,467.7,556.8z M450.1,563.6c-4,3.4-19.1,17.5-19.1,17.5l-4.7,0.9c0,0,21.8-19.1,27.9-24.1
				c6.1-5,16.2,4.9,16.2,4.9C457,554.3,454.1,560.2,450.1,563.6z"/>
			<path class="st9" d="M306.4,524.6c0,0,6,8.4,6.9,9.4s2,2.7,5.2,1.1c3.2-1.6,19.5-7.2,31.2-9c5.8-0.9,9.5-2.2,14.8-7.2
				c5.3-5.1,23.4-21.4,23.4-21.4s-6.7-10.6-6.7-15.1l0.7-0.1c0,0,0.9,5.4,7,15.3l0.3,0.5c0,0,19.5-0.9,38.3,6.9c0,0-1.4,0.2-3.7-0.7
				c-2.4-0.9-15.5-5.4-34.3-5.5c0,0-27.4,26-28.6,27.1c-1.2,1.1-1.7,2.6-1.2,5.7c0,0-0.6-5.1-3.7-5.1c-3.1,0.1-10.1,0-30.6,6.9
				c-2.1,0.7-8.8,2.6-11,5.7c-2.2,3.1-3.4,5.7-3.9,7.2c-0.2,0.9-0.7,0.5-0.5-0.1c0.2-0.6,2.7-8,0.6-11c-2.1-3.1-5.9-8.3-5.9-8.3
				L306.4,524.6z"/>
			<path class="st10" d="M359.5,530.8c0,0,0.5-0.5,1.5,2.6c1,3.1,10.7,28.9,12,31.3c1.2,2.4,1.9,3.2,5.9,3.7c4,0.5,32.5,7.6,40,12.3
				l2.5-0.9c0,0,10.4-10,14.3-13.3c4-3.4,16-12.6,18-13.8c0,0,1.7-7.9-3-19.1s-6.1-23.9-21.9-28.5c0,0,8.6,2.3,11.8,4.5l11-6.2
				l-8.9,7c0,0,12,23.9,13.6,35.4c0.3,2.3-0.2,6.2,6,7.9c0,0-4.7-1.9-7.2-0.7c-2.5,1.2-17.1,13.2-22.3,18.1s-11.9,11-11.9,11
				l-0.9,0.6c0,0-14.3-5.2-16.8-5.9c-2.6-0.7-24.4-6.4-26.6-6.5c-2.2-0.2-3.8-1.1-15.2,9.2l-5.3,3.4l8.6-7.1l4-3.3l1.3-1
				c0,0,2.5-1.5,2.3-4.2c-0.2-2.7-1.2-5.3-2-7.2S360.9,537.1,359.5,530.8z"/>
			<path class="st4" d="M389.7,501.6c0,0,36.2,2.3,46.2,12c10,9.6,12,26.6,11.6,30.6c-0.3,4-3,11.6-22.3,28.3c0,0,21.9-17,23.9-19
				s5-4.3,2.7-13s-7-24.3-11.8-27.1C435.2,510.6,422.4,500.3,389.7,501.6z"/>
			<polygon class="st11" points="492.9,576.7 509.2,568.9 510.7,571.8 493.4,577.7 			"/>
			<polygon class="st9" points="508.7,558.4 508.7,570.4 513.9,577.4 513.7,567.9 			"/>
			<path class="st12" d="M451.6,503.4c0,0,32.5,21.1,41.5,79.5l18.6-1c0,0-9.7-55.9-56.9-79.9L451.6,503.4z"/>
			<path class="st2" d="M280.8,614.3c-0.6-5-1-10.1-1-15.2c0-31.5,12.3-61.2,34.6-83.5c22.3-22.3,51.9-34.6,83.5-34.6
				c31.5,0,61.2,12.3,83.5,34.6c22.3,22.3,34.6,51.9,34.6,83.5c0,5.1-0.3,10.2-1,15.2h3.5c0.6-5,0.9-10,0.9-15.2
				c0-67.1-54.4-121.5-121.5-121.5s-121.5,54.4-121.5,121.5c0,5.1,0.3,10.2,0.9,15.2H280.8z"/>
		</g>
		<g>
			<path class="st0" d="M697.3,673.8c-4.9-3-43.2-32.6-43.2-32.6s23.6-38.6,26.3-42.9s2.7-11.6-5.3-9.6c-15.6,4-74.5,10.6-74.5,10.6
				l-3.9-26.1c-0.3-1.8-1.9-3-3.6-2.8c-77.2,8.1-158.9,10.6-193,10.6s-115.8-2.6-193-10.6c-1.8-0.2-3.4,1.1-3.6,2.8l-3.9,26.1
				c0,0-58.9-6.7-74.5-10.6c-8-2-8,5.3-5.3,9.6s26.3,42.9,26.3,42.9s-38.3,29.6-43.2,32.6c-4.9,3-5,10.3,0,11.3
				c5,1,84.5,13,125.7,16.6c6.7,0.7,7.3-2,8-7.3s2.3-19.6,2.3-19.6s88.8,7,161.3,7s161.3-7,161.3-7s1.7,14.3,2.3,19.6s1.3,8,8,7.3
				c41.2-3.7,120.7-15.6,125.7-16.6C702.3,684.2,702.2,676.8,697.3,673.8z"/>
			<path class="st13" d="M593.4,570.4c1.6,0,3.1,1.2,3.3,2.9l3.9,26.1c0,0,58.9-6.7,74.5-10.6c0.9-0.2,1.7-0.3,2.5-0.3
				c5.5,0,5.2,6.2,2.9,10c-2.7,4.3-26.3,42.9-26.3,42.9s38.3,29.6,43.2,32.6s5,10.3,0,11.3c-5,1-84.5,13-125.7,16.6
				c-0.7,0.1-1.3,0.1-1.8,0.1c-4.9,0-5.5-2.6-6.1-7.4c-0.7-5.3-2.3-19.6-2.3-19.6s-88.8,7-161.3,7s-161.3-7-161.3-7
				s-1.7,14.3-2.3,19.6c-0.6,4.8-1.2,7.4-6.1,7.4c-0.6,0-1.2,0-1.8-0.1c-41.2-3.7-120.7-15.6-125.7-16.6c-5-1-4.9-8.3,0-11.3
				c4.9-3,43.2-32.6,43.2-32.6s-23.6-38.6-26.3-42.9c-2.4-3.8-2.6-10,2.9-10c0.7,0,1.5,0.1,2.5,0.3c15.6,4,74.5,10.6,74.5,10.6
				l3.9-26.1c0.2-1.7,1.7-2.9,3.3-2.9c0.1,0,0.2,0,0.4,0c77.2,8.1,158.9,10.6,193,10.6s115.8-2.6,193-10.6
				C593.1,570.4,593.3,570.4,593.4,570.4 M593.4,567.9L593.4,567.9c-0.2,0-0.4,0-0.6,0c-74.8,7.8-156.2,10.6-192.8,10.6
				s-118-2.8-192.8-10.6c-0.2,0-0.4,0-0.6,0c-2.9,0-5.3,2.1-5.8,5l-3.5,23.7c-11.2-1.3-58.3-6.9-71.8-10.3c-1.1-0.3-2.1-0.4-3.1-0.4
				c-2.7,0-4.8,1.1-6,3.2c-1.8,3.2-0.8,7.6,1,10.5c2.3,3.7,20.3,33.1,25.1,41c-13.6,10.5-37.6,28.9-41.2,31.1
				c-3.5,2.1-5.5,6.2-4.8,10c0.5,3.1,2.6,5.2,5.6,5.8c5.4,1.1,84.5,13,126,16.7c0.7,0.1,1.4,0.1,2.1,0.1c7.4,0,8.1-5.3,8.6-9.6
				c0.5-4,1.5-13,2.1-17.3c14.7,1.1,93.9,6.8,159.1,6.8s144.4-5.7,159.1-6.8c0.5,4.3,1.6,13.3,2.1,17.3c0.5,4.3,1.2,9.6,8.6,9.6
				c0.6,0,1.3,0,2.1-0.1c41.4-3.7,120.6-15.6,125.9-16.7c3-0.6,5.1-2.8,5.6-5.8c0.7-3.9-1.3-7.9-4.8-10
				c-3.7-2.2-27.6-20.5-41.2-31.1c4.8-7.8,22.8-37.3,25.1-41c1.8-2.9,2.8-7.3,1-10.5c-1.2-2.1-3.3-3.2-6-3.2c-0.9,0-2,0.1-3.1,0.4
				c-13.5,3.5-60.6,9-71.8,10.3l-3.5-23.7C598.7,570.1,596.2,567.9,593.4,567.9L593.4,567.9z"/>
		</g>
		<path class="st2" d="M134.1,601.4c0,0,57.4,9,63.8,8.5c0,0-7.5,46.9-8,51.4c-0.5,4.5-0.8,9,6.5,8.3l29.6,21.6
			c0,0-92.1-11-109.1-14.6l41.6-31.3l-0.3-5.3L134.1,601.4z"/>
		<path class="st2" d="M587.6,580.9c-84.8,10.5-166.1,10.5-187.6,10.5c-21.4,0-102.8,0-187.6-10.5L201,659.2c0,0,94.3,12.5,199,12.5
			s199-12.5,199-12.5L587.6,580.9z"/>
		<path class="st2" d="M665.9,601.4c0,0-57.4,9-63.8,8.5c0,0,7.5,46.9,8,51.4c0.5,4.5,0.8,9-6.5,8.3l-29.6,21.6
			c0,0,92.1-11,109.1-14.6l-41.6-31.3l0.3-5.3L665.9,601.4z"/>
	</g>
	<g>
		<path class="st14" d="M230.1,588.7l-7,64.2l59.8,5.9c4,0.4,7.6-2.6,7.8-6.6l3.8-57.8L230.1,588.7z M240.4,598.9l7.2,0.7l-2.8,29.1
			c-0.1,0.9-0.8,1.5-1.7,1.4l-6.2-0.4L240.4,598.9z M279.2,646.2c-0.1,1.4-1.3,2.4-2.7,2.3l-41.1-3.8l0.7-6.2l13.3,1.3
			c3.2,0.3,6-2,6.3-5.2l2.8-33.6l5.6,0.3l-3.4,34.8c-0.3,2.6,1.7,5,4.3,5.2l14.4,1.4L279.2,646.2z M280.5,633.1l-6.7-0.7
			c-0.8-0.1-1.4-0.8-1.3-1.6l2.5-28.5l7.5,0.5L280.5,633.1z"/>
		<path class="st15" d="M243.1,630.2l-6.2-0.4l3.5-30.9l7.2,0.7l-2.8,29.1C244.7,629.6,243.9,630.2,243.1,630.2z"/>
		<path class="st15" d="M265.1,641.3l14.4,1.4l-0.2,3.6c-0.1,1.4-1.3,2.4-2.7,2.3l-41.1-3.8l0.7-6.2l13.3,1.3c3.2,0.3,6-2,6.3-5.2
			l2.8-33.6l5.6,0.3l-3.4,34.8C260.5,638.7,262.4,641,265.1,641.3z"/>
		<path class="st15" d="M282.5,602.9l-2,30.3l-6.7-0.7c-0.8-0.1-1.4-0.8-1.3-1.6l2.5-28.5L282.5,602.9z"/>
		<path class="st14" d="M320.7,595.1l10.2,0.7l-2.3,55.5c-0.2,5.9-5.2,10.4-11.1,10.2l-3.1-0.1l0.5-9.7c0,0,2.7,1.3,2.9-1.3
			C318,647.7,320.7,595.1,320.7,595.1z"/>
		<polygon class="st14" points="347.9,596.9 359.1,596.9 356.9,663 345.6,662.5 		"/>
		<polygon class="st14" points="374.6,596.9 373.6,663 385,663 385,597.1 		"/>
		<path class="st14" d="M475.3,650.7c-0.2-3-2.7-50.1-2.7-50.1l-45.8,1.1l-0.1-4.8h-12c0,0,0,2,0.1,5.1l-5.3,0.1v9.5l5.5-0.2
			c0.2,14.7,0.6,35.5,0.8,38.6c0.2,4.7-2.5,4.7-2.5,4.7l-3.7,0.2v9l8.5-0.2c5.4-0.1,9.6-4.6,9.5-10l-0.6-42.7l34.5-1l1.9,44.6
			c0.2,4.1,3.6,7.2,7.6,7.1l9.1-0.2v-9.1C480.1,652.5,475.6,653.7,475.3,650.7z"/>
		<path class="st14" d="M573.3,641.5l-1-9c0,0-13.4,1.5-28.4,3.1l-2.5-26.2l27.4-2.6l-1.2-9.5l-27,2.9l-0.9-9.7l-11,1.2l0.8,9.6
			l-8.1,0.9l2.5-7.5l-12.2,1c0,0-2.5,8-3,10.7s-3,3.5-3,3.5l-4-0.2l1,8.7c0,0,2.7,0.2,7,0c4.2-0.2,7-2.7,7-2.7l1.7-4.2l11.8-1.1
			l2.3,26.3c-13.5,1.3-25.9,2.3-28.8,2l0.7,9l28.8-2.6l1.1,12.6l11.5-1.2l-1.2-12.4L573.3,641.5z"/>
	</g>
</g>
</svg>
