<?xml version="1.0" encoding="utf-8"?>
<!-- Generator: Adobe Illustrator 22.1.0, SVG Export Plug-In . SVG Version: 6.00 Build 0)  -->
<svg version="1.1" id="图层_1" xmlns="http://www.w3.org/2000/svg" xmlns:xlink="http://www.w3.org/1999/xlink" x="0px" y="0px"
	 viewBox="0 0 800 800" style="enable-background:new 0 0 800 800;" xml:space="preserve">
<style type="text/css">
	.st0{fill:#C00019;}
</style>
<g>
	<path class="st0" d="M636.2,149.8c0.3-0.3,0.5-0.6,0.8-1c2.1-2.7,4.4-6.2,6.4-10.6c0.5-1.1,1-2.2,1.4-3.4c0.5-1.2,0.9-2.5,1.3-3.8
		c0.6-2,1.2-4.1,1.7-6.3c0.9-4.3,1.3-8.1,1.2-11.4c-0.1-4.1-0.8-7.5-1.7-10.2c-0.4-1.1-0.8-2.1-1.2-2.9c-0.6-1.3-1.3-2.4-1.9-3.2
		c-0.4-0.6-0.8-1-1.1-1.4c0,0.1,0.4,1.1,0.7,2.9c0.1,0.6,0.2,1.3,0.3,2.1c0.2,1.2,0.3,2.5,0.4,4c0.3,4,0.2,9.3-0.9,15.5
		c-0.3,1.6-0.6,3.2-1,4.9c-0.8,3.4-1.9,6.9-3.3,10.7c-0.7,1.9-1.5,3.8-2.4,5.8c-0.9,2-1.9,4-3,6.1c-1.7,3.1-3.6,6.3-5.8,9.6
		C628.3,157,632,154.9,636.2,149.8z"/>
	<path class="st0" d="M172.5,157.2c-23.4-34.9-15.2-60.9-15-61.6c-2.7,3-8.5,12-4.7,29.2C158,148.6,172.1,156.9,172.5,157.2z"/>
	<path class="st0" d="M339.6,209.5c3.6,1.1,4.6,3.3,4.6,3.3c2.1,0.6,4.2,2.7,6.2,4.2c2,1.4,2.6,2.6,2.6,2.6l1.7,0.7l0.7,1.2l1.2,0.7
		c0.3,1,1,1.7,1,1.7c6,8.1,8.5,13.9,8.7,16s-1,8.2-1,10.1c0,1.9-1.4,2.2-1.4,2.2s-2-2.3-2.3-2.7c0.1-0.9-1.8-2.9-3.6-4.9
		c-1.7-2-1.6-2.1-1.6-2.1s-3.2-1.1-3.9-2.2c-0.7-1.1-1-0.8-1-0.8c-1-0.2-8-4.7-8.8-4.9c-0.5-0.5-1.2-2-2.5-1.8s-2.2,2.8-0.8,4.2
		c4.2,3,4.5,4.6,4.5,4.6c3.2,2.8,2.7,3.8,2.7,3.8c1,0.2,2.2,2.5,2.2,2.5c1.2,0.3,2.7,2.3,2.7,2.3l1.8,2.2l1.2,0.3
		c0,0,2.5,2.5,7.5,7.6s2.5,15,2.3,18.5c-0.2,3.5,2.8,2.7,5,2.5s3-1.5,3-3c0-1.5,0.2-43.2,0-45.2s-6.3-12.3-8.1-14
		c-0.7-1.7-2.2-5-5.7-10c-3.5-5-8-6.8-8-6.8c-1.7-0.3-4.2-1.2-5.3-2s-2.7-0.7-4.5-1.2c-1.8-0.5-3.5-1.3-3.5-1.3s-2.7-0.2-4.3-0.7
		c-1.7-0.5-2.7-1-4-1.3c-1.3-0.3-2.8,0-4.7-0.7s-7-1.8-8.1-2c-1.2-0.2-7-0.9-8.6-0.8c-1.7,0.1-1.2,2.6-0.3,2.9
		c2.2,0.8,2.2,2.2,2.2,2.2c2.2,0.4,6.1,5,6.1,5l0.3,1.3c1.2,0.3,2.3,1.8,2.3,1.8l2.2,0.5C340.1,208.4,339.6,209.5,339.6,209.5z"/>
	<path class="st0" d="M375.4,364.4c0,0-5.2-3.2-7-4.1c-1.7-0.9-2.7-2.4-2.7-2.4l-2.1-0.9l-0.3,0.3l-1.5,0c0,0-2.8,2.1-1.8,6.6
		c0,0,1.2,3.1,1.6,4.2c0,0,1.5,1.8,2.4,2.8c0.9,1,0.2,4.8,0.2,4.8s-0.2,8.7-0.2,9.2s0,0.9,3,1.6c0,0,1.9,0.4,4.4,0.6
		c2.5,0.2,6.4,0.3,6.4,0.3s1.5,0.7,2.4,2.9c0,0,0.4,0.6,0.9,0.7c0,0,0.2,0.6,0.1,1.4c0,0,1.3,0.7,1.7,1.3c0.3,0.6,0.5,1.3,0.5,1.3
		l2.3,1.9c0,0,1.7-0.2,2.5,0c0.8,0.2,1.5,0.5,1.5,0.5h1.9c0,0,1.7-2.8,2.4-2.8c0,0,0.4-1.8,2.3-4.3c0,0,0.7-2.5,2.5-4.9l0.5-2.3
		l-0.5-2.6c0,0-1-10.7,0.1-20.3c0,0-0.5-22.1-0.5-24.3c0,0-0.7-3,0-4.2c0,0,0.7-7.7-1.1-11c-1.9-3.2-2.7-3.1-2.7-3.1
		s-0.5-1.1-1.7-1.6c0,0-0.7-2.1-3.1-2.2c-2.4-0.1-4.1-0.1-4.6,1.5c0,0,0,8.7,0.5,12c0.5,3.2,1.7,11.4,1.8,13.2l0.3,14.6l-0.5,0.8
		c0,0-1,5.4-1.4,6.1c-0.4,0.7-1.7,2.7-4.1,2.8C379.4,365,375.4,364.4,375.4,364.4z"/>
	<path class="st0" d="M359.6,432.4c-14.2-0.7-14.4-18.5-14.3-22.5c0-0.2-0.3-0.3-0.4-0.1c-1.4,2.1-3.6,6.1-2.5,12
		c1.2,6.7,9,10.7,13.4,11.3C360.2,433.8,360.7,432.4,359.6,432.4z"/>
	<path class="st0" d="M396.7,418.9c-1-1.7-4.7-5.7-11.3-4.6c-0.8,0.2-1.2,0.1-1.3,0.4c0,0,0.7,1.1,1.4,1.6c0.7,0.5,2.1,1.3,2.5,2.5
		c0.4,1.2,0.6,1.2,0.5,1.9c0,0,0.6,0.2,0.6,1.2s0.5,2.5-1.7,5.7c0,0-1.8,0.3-2.7,2.2l-0.5,0l-0.5,0.5c0,0-8.5-0.2-11.3,0
		c-2.8,0.2-3.7,1.2-3.8,1.9c-0.2,0.7,0,2.5,1.3,2.7c1.3,0.2,17.8,0.1,17.8,0.1l0.4-0.5c0,0,2.8,0.6,5.6-1.5c2.3-0.7,5.4-2.6,5.9-5.8
		C400,423.8,400,421.9,396.7,418.9z"/>
	<path class="st0" d="M410.7,188.6c0.4,0.9,0.2,1,0.6,1.9s1.2,2.6,1.5,3.4l1.2,2c0,0,1.2,2,1.4,2.6l1.6,3c0,0,3,1.6,2-2.1l-1.8-3.5
		c0,0,0-3.2-1.3-5l-1.2-5.5c0,0-2.3-5.2-2.3-5.7c0-0.5,0-2.5-0.9-4.3s-6.3-24.5-6.5-26.4c-0.2-1.9-1.4-3-1.4,0.4s0.5,16.1,0.7,19
		s1.6,10.8,2.4,12.5C407.5,182.4,410.4,187.7,410.7,188.6z"/>
	<path class="st0" d="M359.3,244c0,0,4.7-12.5-6.5-21.6c-11.1-9.1-25.4-8.3-29.6-7c0,0,16.3,2.8,22.9,8.6
		C352.8,229.9,355.6,231.6,359.3,244z"/>
	<path class="st0" d="M447.6,222.4c-11.1,9.1-6.5,21.6-6.5,21.6c3.7-12.5,6.5-14.1,13.1-20c6.7-5.8,22.9-8.6,22.9-8.6
		C473,214.1,458.7,213.3,447.6,222.4z"/>
	<path class="st0" d="M355.9,267.9c0,0,2.2-14-28.7-23.4c-1.7-0.2-2.1,0.7,0.8,1.9C330.9,247.6,345.6,257.8,355.9,267.9z"/>
	<path class="st0" d="M370.3,293.8c-1.1,1-5,0.4-5,0.4l-3.9-4.9c0.5-0.4,1.2-2.1,0.2-2.9c-1-0.8-1.1-3.7-1.1-6.2
		c0-2.5-4.5-8.3-6.3-10.6c-1.8-2.3-5.7-5.3-13-11.1c-7.3-5.8-15.1-3.3-15.1-3.3l0.3,16c4.3,18.1,10.6,19.3,14,20.1
		c3.3,0.8,15.4,1.8,15.4,1.8s6.9,4.7,9.9,7.7s7.1,16.3,8.5,27.8c1.3,11.5,3.5,19.1,4.5,22.8c1,3.7,2.8,1.5,2-0.2
		c-1.5-2.7-3.2-15.8-3.3-18.6c-0.2-2.8-0.5-10.8-1-19c-0.5-8.2-7.2-15.6-7.2-15.6s4.5-0.1,7.2-2.5c2.7-2.4,2.7-12.2,2.7-16.8
		s-1-13.6-1.4-15.6c-0.4-2-1-10.6-1.4-12.2c-0.8-3-2.3-1.1-2.3,0.5c0,1.6,0.3,30.6,0.3,30.6C375.3,288.7,371.4,292.8,370.3,293.8z
		 M342.4,269.6c1-1.5,2.2-2.8,3.6-2.5c3.1,0.7,6.6,7.7,6.6,7.7c0.4,3.4-3.1,2.7-3.1,2.7l0.4,3.1c-0.7,0.4-2.7,0.4-2.7,0.4l-0.7-3.7
		c0,0-3.1,0.2-4.9-2C339.8,273.1,341.4,271.1,342.4,269.6z M356.9,287.5c-0.7,0-6.4,0.1-8,0c-1.6-0.1-3.9-1.6-3.9-1.6
		c-2.4,0.2-5,0.4-7.2-0.4c-2.2-0.7-2.9-4-3.7-6.1c-0.9-2.1-2.4-8.5-2.7-10c-0.4-1.5-1-5.5-0.9-8.2c0.1-2.7,2.9-1.5,4.1-0.7
		s3,1.1,3,1.1c0.6,0.9,2.6,2,2.6,2s0.2,0.7-0.5,1s-1.1,0.6-2.8,2s-1.1,4.7-0.4,7c0.7,2.3,3.2,6,7.7,7.5c4.5,1.5,7.7-1.2,8.4-2
		c0.8-0.8,1.3-0.4,1.4-0.2c0.1,0.2,1.1,2.2,1.1,2.2s0.2,0.4,0.4,1.2c0.1,0.8,1.1,1.2,1.1,1.2s-0.2,0.5,0.3,2
		C357.4,287,357.6,287.5,356.9,287.5z"/>
	<path class="st0" d="M473.4,244.5c-30.9,9.5-28.7,23.4-28.7,23.4c10.2-10.1,24.9-20.3,27.9-21.5
		C475.5,245.1,475.1,244.2,473.4,244.5z"/>
	<path class="st0" d="M459.3,258.5c-7.3,5.8-11.1,8.8-13,11.1c-1.8,2.3-6.3,8.2-6.3,10.6c0,2.5-0.1,5.4-1.1,6.2
		c-1,0.7-0.3,2.5,0.2,2.9l-3.9,4.9c0,0-3.9,0.6-5-0.4c-1.1-1-5-5.1-4.1-12c0,0,0.3-28.9,0.3-30.6c0-1.6-1.5-3.5-2.3-0.5
		c-0.4,1.6-1,10.2-1.4,12.2s-1.4,11-1.4,15.6s0,14.5,2.7,16.8c2.8,2.4,7.2,2.5,7.2,2.5s-6.7,7.4-7.2,15.6c-0.5,8.2-0.8,16.1-1,19
		c-0.2,2.8-1.8,16-3.3,18.6c-0.8,1.7,1,3.8,2,0.2c1-3.7,3.2-11.3,4.5-22.8c1.3-11.5,5.5-24.8,8.5-27.8s9.9-7.7,9.9-7.7
		s12.1-1,15.4-1.8c3.3-0.8,9.6-2,14-20.1l0.3-16C474.4,255.2,466.6,252.7,459.3,258.5z M448,274.9c0,0,3.5-7,6.6-7.7
		c1.5-0.3,2.6,1,3.6,2.5c1,1.5,2.6,3.5,0.9,5.7c-1.7,2.2-4.9,2-4.9,2l-0.7,3.7c0,0-2,0-2.7-0.4l0.4-3.1
		C451.1,277.6,447.6,278.2,448,274.9z M469.3,269.4c-0.4,1.5-1.9,7.9-2.7,10s-1.5,5.4-3.7,6.1c-2.2,0.7-4.9,0.6-7.2,0.4
		c0,0-2.2,1.5-3.9,1.6s-7.2,0-8,0s-0.5-0.5,0-2c0.5-1.5,0.3-2,0.3-2s0.9-0.4,1.1-1.2c0.1-0.8,0.4-1.2,0.4-1.2s0.9-2.1,1.1-2.2
		c0.1-0.2,0.6-0.6,1.4,0.2c0.8,0.8,4,3.5,8.4,2c4.5-1.5,7-5.2,7.7-7.5c0.7-2.3,1.3-5.7-0.4-7s-2.1-1.7-2.8-2c-0.7-0.2-0.5-1-0.5-1
		s2-1.1,2.6-2c0,0,1.7-0.4,3-1.1c1.2-0.7,4-2,4.1,0.7C470.3,263.9,469.7,267.9,469.3,269.4z"/>
	<path class="st0" d="M375.8,406.6c0,0,10.2,3.7,24.2,3.7s24.4-3.7,24.4-3.7C410.2,404.8,375.8,406.6,375.8,406.6z"/>
	<path class="st0" d="M366.8,399.2c1.9,1.1,3-0.1,2.2-1c-0.7-0.9-3.2-3.2-5.9-3.5s-6.1,4-7.7,8.6c-1.6,4.6-0.6,14.7,1.6,18.6
		c2.2,3.9,5.1,3.4,4.5,2.1c-4.7-7.5-4.7-18.7-1.4-24.3S365.8,398.6,366.8,399.2z"/>
	<path class="st0" d="M382.3,422c-1.4-1.5-10.1-10.4-10.1-10.4c-0.6-0.6-0.2-3.1-0.3-4.4c-0.1-1.2-0.9-1.6-1.5-1.7
		c-0.6-0.2-0.2-1.7-1.1-2c-2-1-5.5,0.9-5.9,2.6c-0.5,1.7-0.2,6.4,0,7.3s0.2,2.7,0.8,4.3c2.4,5.2,7.7,10.1,13.6,10.7
		S383.7,423.5,382.3,422z"/>
	<path class="st0" d="M428.9,391.2c-4,3.2-4,9.7-3.6,10.6c1.1,2.6,3,1.4,3,0.1c0-1.2-0.9-7.1,6.5-9.5c7.4-2.4,13.7,4.5,15,12.5
		c1.2,8-2.2,16.5-4.6,20.3c-2.4,3.9-8,6.7-8,6.7c17.2,0.4,17.5-18.8,17.5-26.1c0-7.2-4.9-15.5-12.1-18.1
		C435.3,385.2,432.9,388,428.9,391.2z"/>
	<path class="st0" d="M443.6,421.9c2.2-3.9,3.2-14,1.6-18.6c-1.6-4.6-5.1-8.9-7.7-8.6c-2.6,0.2-5.1,2.6-5.9,3.5
		c-0.7,0.9,0.4,2.1,2.2,1c1.1-0.6,3.2-5.1,6.6,0.5c3.4,5.6,3.4,16.8-1.4,24.3C438.5,425.3,441.4,425.8,443.6,421.9z"/>
	<path class="st0" d="M437.4,406.2c-0.5-1.7-3.9-3.6-5.9-2.6c-0.9,0.3-0.5,1.8-1.1,2c-0.6,0.2-1.4,0.5-1.5,1.7
		c-0.1,1.2,0.3,3.7-0.3,4.4c0,0-8.7,8.9-10.1,10.4c-1.4,1.5-1.4,7.1,4.5,6.5c5.9-0.6,11.2-5.5,13.6-10.7c0.7-1.5,0.7-3.4,0.8-4.3
		S437.8,407.9,437.4,406.2z"/>
	<path class="st0" d="M399.2,725.7c-22.1-13.8-42.2-28.1-60.7-42.7c-10.6-0.4-20.9-0.9-30.6-1.4c26.7,23.5,57.2,46.4,92.1,68.3
		c34.9-21.9,65.4-44.9,92.1-68.3c-10.3,0.5-21.2,1-32.3,1.4C441.4,697.6,421.2,711.9,399.2,725.7z"/>
	<path class="st0" d="M697.3,673.9c-4.9-3-43.2-32.6-43.2-32.6s23.6-38.6,26.3-42.9c2.7-4.3,2.7-11.6-5.3-9.6
		c-15.6,4-74.5,10.6-74.5,10.6l-3.9-26.1c-0.3-1.8-1.9-3-3.7-2.8c-77.2,8.1-158.9,10.6-193,10.6s-115.8-2.6-193-10.6
		c-1.8-0.2-3.4,1.1-3.7,2.8l-3.9,26.1c0,0-58.9-6.7-74.5-10.6c-8-2-8,5.3-5.3,9.6c2.7,4.3,26.3,42.9,26.3,42.9s-38.3,29.6-43.2,32.6
		c-4.9,3-5,10.3,0,11.3s84.5,13,125.7,16.6c6.7,0.7,7.3-2,8-7.3c0.7-5.3,2.3-19.6,2.3-19.6s88.8,7,161.3,7s161.3-7,161.3-7
		s1.7,14.3,2.3,19.6c0.7,5.3,1.3,8,8,7.3c41.2-3.7,120.7-15.6,125.7-16.6S702.2,676.8,697.3,673.9z M117,676.5l41.6-31.3l-0.3-5.3
		l-24.1-38.6c0,0,57.4,9,63.8,8.5c0,0-7.5,46.9-8,51.4c-0.5,4.5-0.8,9,6.5,8.3l29.6,21.6C226.1,691.1,134,680.2,117,676.5z
		 M400,671.7c-104.8,0-199-12.5-199-12.5l11.5-78.3c84.8,10.5,166.1,10.5,187.6,10.5s102.8,0,187.6-10.5l11.5,78.3
		C599,659.2,504.8,671.7,400,671.7z M573.9,691.1l29.6-21.6c7.3,0.7,7-3.8,6.5-8.3c-0.5-4.5-8-51.4-8-51.4
		c6.5,0.5,63.8-8.5,63.8-8.5l-24.1,38.6l-0.3,5.3l41.6,31.3C666,680.2,573.9,691.1,573.9,691.1z"/>
	<path class="st0" d="M223.1,652.9l59.8,5.9c4,0.4,7.6-2.6,7.8-6.6l3.8-57.8l-64.5-5.7L223.1,652.9z M275,602.4l7.5,0.5l-2,30.3
		l-6.7-0.7c-0.8-0.1-1.4-0.8-1.3-1.6L275,602.4z M240.4,598.9l7.2,0.7l-2.8,29.1c-0.1,0.9-0.8,1.5-1.7,1.4l-6.2-0.4L240.4,598.9z
		 M236.1,638.5l13.3,1.3c3.2,0.3,6-2,6.3-5.2l2.8-33.6l5.6,0.3l-3.4,34.8c-0.3,2.6,1.7,5,4.3,5.2l14.4,1.4l-0.2,3.6
		c-0.1,1.4-1.3,2.4-2.7,2.3l-41.1-3.8L236.1,638.5z"/>
	<path class="st0" d="M317.9,650.4c-0.2,2.7-2.9,1.3-2.9,1.3l-0.5,9.7l3.1,0.1c5.9,0.2,10.8-4.4,11.1-10.2l2.3-55.5l-10.2-0.7
		C320.7,595.1,318,647.7,317.9,650.4z"/>
	<polygon class="st0" points="345.6,662.5 356.9,663 359.1,596.9 347.9,596.9 	"/>
	<polygon class="st0" points="373.6,663 385,663 385,597.1 374.6,596.9 	"/>
	<path class="st0" d="M475.3,650.7c-0.2-3-2.7-50.1-2.7-50.1l-45.8,1.1l-0.1-4.8h-12c0,0,0,2,0.1,5.1l-5.3,0.1v9.5l5.5-0.2
		c0.2,14.7,0.6,35.5,0.8,38.6c0.2,4.7-2.5,4.7-2.5,4.7l-3.7,0.2v9l8.5-0.2c5.4-0.1,9.6-4.6,9.5-10l-0.6-42.7l34.5-1l1.9,44.6
		c0.2,4.1,3.6,7.2,7.6,7.1l9.1-0.2v-9.1C480.1,652.5,475.6,653.7,475.3,650.7z"/>
	<path class="st0" d="M572.3,632.5c0,0-13.4,1.5-28.4,3.1l-2.5-26.2l27.4-2.6l-1.2-9.5l-27,2.9l-0.9-9.7l-11,1.2l0.8,9.6l-8.1,0.9
		l2.5-7.5l-12.2,1c0,0-2.5,8-3,10.7c-0.5,2.7-3,3.5-3,3.5l-4-0.2l1,8.7c0,0,2.7,0.2,7,0c4.2-0.2,7-2.7,7-2.7l1.7-4.2l11.8-1.1
		l2.3,26.3c-13.5,1.3-25.9,2.3-28.8,2l0.7,9l28.8-2.6l1.1,12.6l11.5-1.2l-1.2-12.4l28.6-2.6L572.3,632.5z"/>
	<path class="st0" d="M513.4,574.4c0.1,0,0.2,0,0.3,0c0,0,0.1,0,0.1,0v0c1-0.1,2-0.1,3-0.2c-11.5-55.1-60.4-96.6-118.9-96.6
		c-58.5,0-107.3,41.3-118.9,96.3c1.2,0.1,2.3,0.2,3.5,0.2c3.7-17.3,11.2-33.4,22.2-47.4c0.1,0.2,3.9,5.2,5.9,8.2
		c2.1,3.1-0.4,10.4-0.6,11c-0.2,0.6,0.3,1,0.5,0.1c0.3-0.9,0.8-2.2,1.7-3.7c-1.9,4.4-4.3,10.2-5.1,12.8c-0.9,3.1-3.4,13.7-5,20.1
		c1.1,0.1,2.2,0.1,3.3,0.2c1.1-6.6,3.5-18.4,7.9-28.9c0,0,0.2,3-0.2,3.5c-0.3,0.6-1.8,5-2.4,7.8c-0.6,2.8-1.3,3.6-1.5,5.4
		c-0.1,1.3-1.2,7.6-1.8,12.2c20.4,1.1,39.3,1.8,55.7,2.3c9.8-8.6,11.3-7.8,13.4-7.7c2.2,0.2,24.1,5.8,26.6,6.5
		c0.8,0.2,2.7,0.9,5,1.7c1.9,0,3.9,0,6-0.1c-10.9-4.4-31.9-9.6-35.3-10c-4-0.5-4.6-1.4-5.9-3.7c-1.2-2.4-11-28.2-12-31.3
		c-0.9-2.9-1.5-2.7-1.5-2.6c-0.4-2.6,0.1-4,1.3-5c1.2-1.1,28.6-27.1,28.6-27.1c18.8,0.1,31.9,4.6,34.3,5.5c2.4,0.9,3.7,0.7,3.7,0.7
		s0.6,0.1,1.4,0.3c1,0.3,1.9,0.6,2.7,0.9c0.2,0.1,0.4,0.2,0.7,0.3c12.6,5.3,14.1,16.9,18.5,27.3c4.7,11.2,3,19.1,3,19.1
		c-2,1.2-14,10.5-18,13.8c-3,2.5-9.6,8.8-12.7,11.7c2.4-0.1,4.9-0.1,7.5-0.2c6.7-5.8,19.2-16.7,23.6-20.3c6.1-5,16.2,4.9,16.2,4.9
		c-13.5-8.4-16.3-2.5-20.3,0.9c-2.8,2.4-11.2,10.1-15.9,14.5c15.8-0.4,34.1-1.1,53.9-2.2c-3.7-4.3-13.3-15.2-20.5-19
		c-3.2-1.7-6.8-3.6-6.6-3.5c-4.9-1.9-4.4-5.3-4.7-7.5c-1.7-11.5-13.6-35.4-13.6-35.4l8.9-7c1.4-0.7,2.6-1.2,3.2-1.4
		c0,0,2.7-1.8,3.9-1.9c0.7,0,0.1-1.4-0.6-2.4c8.3,5,16.1,11,23.1,18c12.3,12.3,21.6,26.9,27.4,42.7v10.7l-13.1,6.3
		c1.7-0.1,3.5-0.2,5.2-0.3l9.1-3.2l1.9,2.5C512.3,574.5,512.8,574.5,513.4,574.4L513.4,574.4C513.3,574.4,513.4,574.4,513.4,574.4z
		 M368.7,572.5L368.7,572.5c0.2-0.2,0.4-0.3,0.5-0.5c0.2-0.2,0.5-0.4,0.7-0.6L368.7,572.5z M372.2,567.2c0,0.1,0,0.1,0,0.1
		c0.1,0.6,0,1.2-0.2,1.7C372.2,568.5,372.2,567.9,372.2,567.2z M370,571.5c0.3-0.3,0.7-0.5,1-0.8C370.5,571.2,370,571.5,370,571.5z
		 M370.2,560.2c0.2,0.4,0.3,0.8,0.5,1.2c-0.2-0.5-0.4-1-0.7-1.6c-2.3-5.2-4.9-12.2-7-18C366,549.8,369.7,559,370.2,560.2z
		 M359.6,531.2c0-0.1,0-0.2-0.1-0.4c0.2,0.8,0.4,1.7,0.8,2.9c-0.4-1.2-0.6-2-0.7-2.3c-0.1-0.5-0.2-1-0.4-1.6
		C359.5,530.5,359.6,531,359.6,531.2z M364.4,518.9c-5.3,5.1-9,6.3-14.8,7.2c-11.7,1.7-28,7.4-31.2,9c-3.2,1.6-4.3,0-5.2-1.1
		c-0.8-1.1-6.8-9.3-6.9-9.4c2.5-3.1,5.2-6,8-8.9c18.3-18.3,41.6-29.9,66.8-33.4c0,4.5,6.7,15.1,6.7,15.1S369.7,513.8,364.4,518.9z
		 M387.8,485.2c0.2,0.7,3.6,7,3.6,7c-1.7-0.5-4.2-5.3-5.3-7.6c-1.2-2.3,0.3-2.3,5.2-2.6c4.9-0.2,20,0.9,20,0.9s-18.5,0.7-21.4,0.7
		C387,483.5,387.5,484.5,387.8,485.2z M428.9,505.2c0.7,0.2,1.4,0.4,2,0.6C429.8,505.4,429,505.2,428.9,505.2z M434.4,506.9
		c0.2,0,0.4,0.1,0.6,0.1c0.5,0.1,1.3,0.5,1.9,0.8C436.1,507.5,435.2,507.2,434.4,506.9z M440.6,509.6c-0.3-0.2-0.7-0.4-1.1-0.7
		c0.6,0,1.3,0,2.4-0.1L440.6,509.6z M442.1,508.8c1.1-0.7,6-3.5,9.5-5.3L442.1,508.8z"/>
	<path class="st0" d="M395.6,148.9c-0.2,1.9-5.6,24.5-6.5,26.4s-0.9,3.8-0.9,4.3c0,0.5-2.3,5.7-2.3,5.7l-1.2,5.5
		c-1.3,1.8-1.3,5-1.3,5l-1.8,3.5c-0.5,1.9,0,2.4,0.7,2.5c0,0,0,0,0,0c0,0,0,0,0.1,0c0,0,0,0,0.1,0c0.6,0,1.2-0.3,1.2-0.3l1.6-3
		c0.1-0.6,1.4-2.6,1.4-2.6l1.2-2c0.2-0.7,1.1-2.5,1.5-3.4c0.3-0.7,0.3-0.9,0.5-1.5c0,0,0,0,0,0l0,0c0,0,0,0,0,0
		c0-0.1,0.1-0.2,0.1-0.3c0,0,0,0,0,0c0,0,0,0,0-0.1c0,0,0,0,0,0c0,0,0.1-0.1,0.1-0.2c0,0,0-0.1,0-0.1c0.6-1.2,2.5-4.9,3.5-6.8
		c0.2-0.3,0.3-0.6,0.4-0.8c0,0,0,0,0-0.1c0,0,0,0,0,0c0,0,0,0,0,0.1c0-0.1,0.1-0.2,0.1-0.3c0,0,0,0,0,0c0,0,0,0,0,0c0,0,0,0,0,0
		c0,0,0-0.1,0-0.1c0,0,0,0,0,0c0,0,0,0,0,0c0,0,0,0,0,0c0.8-2.3,2-9.3,2.2-12c0.2-2.9,0.7-15.6,0.7-19
		C397,145.9,395.9,147.1,395.6,148.9z"/>
	<path class="st0" d="M355.6,425.3c-2.4-3.9-5.9-12.3-4.6-20.3c1.2-8,7.6-14.8,15-12.5c7.4,2.4,6.5,8.2,6.5,9.5c0,1.2,1.9,2.5,3-0.1
		c0.4-0.9,0.4-7.4-3.6-10.6c-4-3.2-6.4-6-13.6-3.4s-12.1,10.8-12.1,18.1c0,7.2,0.2,26.4,17.5,26.1C363.6,432,358,429.1,355.6,425.3z
		"/>
	<path class="st0" d="M359.3,350.3c4.7,4.4,12.7,9.1,15.3,9.9c2.6,0.8,3.6-1.7,4.1-2.9c0.5-1.2-1.5-2.6-2.1-1.6
		c0,1.4-1.3,1.9-2.3,0.5c-7-9.9-6.9-16.2-7.7-20.7c-0.7-4.5,0.2-17.2-0.7-20.7c-1-3.5-5.7-7.5-14-12.2c-8.2-4.7-8-3-14.2-8.2
		c-12.7-12.2-17.7-9.2-17.7-9.2c-6.2,36.4,4.4,51.5,6.2,55.9c1.8,4.3,6.5,15,6.5,15c0.7,2.8,5,10.8,5,10.8c0,3.5,1.3,5.2,1.5,6
		c0.2,0.8,0.3,4.5,0.3,4.5c0.7,0.5,2,2.7,2,2.7c0.4,1.9,0.8,2.9,1.3,3.3c1.1-4.5,2.3-9.6,2.2-11c-0.2-2.6-0.7-9.8-0.8-10.7
		c-0.8-4.5-2.4-13.1-2.6-14.3c-0.3-1.4-1.1-3.6-1.1-3.6l-0.1-0.3l0-0.3c0,0-0.2-3.1-0.3-4.3c-0.1-1-1-4.7-1.4-6.2l-0.2-0.7
		c-0.3-1.4,0-3.1,0.8-4.2c0.6-0.8,1.5-1.2,2.4-1.2h0c0.4,0,0.7,0.1,1.1,0.2c0.3-2,0.1-4.9-0.1-6.9c-0.2-3.1,3.4-4.9,3.7-2.9
		C351.4,339.2,354.6,345.9,359.3,350.3z"/>
	<path class="st0" d="M207.2,568L207.2,568c7.3,0.8,14.6,1.5,22,2.1C145.3,454,140.2,346,138,323.9c-3.3-32.1-3.9-75.6-1.4-113.5
		c2.5-37.9,0.5-44.9,0.5-44.9c3.2-1.3,6.3-2.5,9.4-3.8c0,0-0.1-0.1-0.1-0.1c22.3,28.6,66.4,44.2,142.6,46.9c4.7,0.2,11,1.2,16.5,3.8
		c-1.8,1.5-5.4,3.4-11,3.4c-8.9-0.1-16.9,0.2-22.4-1.2c-5.5-1.4-27.4-6.5-41.4-4.6c-14,1.9-27.7,5.7-33.3,18.3
		c-5.6,12.6,21.2,31,44,36.5c7.9,1.9,14.5,3.1,22.1,1.1c7.6-2,30.9-8.4,33.7-9c2.1-0.5,7.8-0.7,11.4-0.2c-1,1.7-2.1,3.4-3.3,5.1
		c-1.6,2.4,0.5,7.1,1.8,10.3c1.3,3.2,3.8,11.1,0.7,21.6c-0.6,2.1-0.7,3.5-1,6.2c-0.2,2.7-1.5,3.6-1.9,6.6c-0.4,3-2.6,7.5,5.7,28.6
		c8.3,21.1,29.1,64.2,29.1,64.2s-2.2,9-3.5,12.2c-1.2,3.2-2.5,11.5-1,14c1.5,2.5,2.7,4.9,3.2,6.4c0.5,1.5,3.9,5,13.9,9.4
		c10,4.3,14,6.7,21.9,11.1c8,4.5,16,7.3,25.8,7.3s17.8-2.8,25.8-7.3c8-4.5,12-6.8,21.9-11.1c10-4.3,13.4-7.9,13.9-9.4
		c0.5-1.5,1.7-3.9,3.2-6.4c1.5-2.5,0.2-10.7-1-14c-0.3-0.9-0.7-2.1-1.1-3.5v-0.2l-2.3-8.5c0.4-0.9,20.9-43.3,29.1-64.2
		c8.3-21.1,6.1-25.6,5.7-28.6c-0.4-3-1.6-3.9-1.9-6.6c-0.2-2.8-0.4-4.1-1-6.2c-3.1-10.5-0.7-18.3,0.7-21.6c1.3-3.2,3.4-7.9,1.8-10.3
		c-1.2-1.8-2.3-3.5-3.3-5.1c3.6-0.4,9.3-0.2,11.4,0.2c2.8,0.6,26.1,7,33.7,9c7.6,2,14.2,0.7,22.1-1.1c22.8-5.5,49.6-23.9,44-36.5
		c-5.6-12.6-19.3-16.5-33.3-18.3c-14-1.9-35.9,3.2-41.4,4.6c-5.5,1.4-13.5,1.2-22.4,1.2c-5.6,0-9.2-1.9-11-3.4
		c5.5-2.6,11.8-3.6,16.5-3.8c75.9-2.7,120-18.2,142.3-46.6c-0.1,0.1-0.1,0.2-0.2,0.3c2.7,1.1,5.4,2.2,8.1,3.3c0,0-2,7,0.5,44.9
		c2.5,37.9,1.9,81.3-1.4,113.5c-2.2,22.1-7.3,130.2-91.4,246.4c7.9-0.7,15.9-1.5,23.7-2.3h0c79.7-118.4,84.8-225.7,87.1-248.4
		c3.5-34.4,4.2-81,1.5-121.5c-2.7-40.6-0.5-48.1-0.5-48.1c-5.6-2.3-11.1-4.5-16.5-6.7c0,0,0,0.1,0,0.1c0.4-0.9,0.7-1.7,1-2.6
		c16-41.9-31.4-85.9-36.4-88.1c-5-2.2-8.5-1-7,6.5c5.8,28.1,1.1,48.4-9.3,63c-78.8-32.6-117.6-50.3-139.8-59.5
		C442.2,50,407,50,400,50s-42.2,0-72.8,12.6c-22.3,9.1-61,26.9-139.8,59.5c-10.4-14.6-15.1-34.8-9.3-63c1.5-7.5-2-8.7-7-6.5
		c-5,2.2-52.4,46.2-36.4,88.1c0.3,0.9,0.7,1.7,1,2.6c0,0,0-0.1-0.1-0.1c-5.3,2.2-10.8,4.4-16.5,6.7c0,0,2.2,7.5-0.5,48.1
		c-2.7,40.6-2,87.1,1.5,121.5C122.5,342.2,127.6,449.5,207.2,568z M273.9,251.1c-1.5-0.1-19.3-0.7-21.8-0.9
		c-2.4-0.2-5.4-0.9-5.4-0.9l-3-0.1c0,0-1.7,1.8-2.7,2.6c-1.1,0.7-2.6,1.7-3.6,2c-1,0.2-1.3,1-0.6,1.1c0.7,0.1,1.2-0.1,1.6,0.2
		c0.2,0.2,0.8,0.3,1.3,0.3l-2.6,1.6c0,0-15.5-8.5-19.8-12.1c-4.3-3.7-18.3-15.3-2.3-21.6c5.9-2.3,10-5.2,12.7-4
		c0,0-10,8.5-10.7,13.2c-0.7,4.7,0.4,4.7,0.4,4.7s10-4.2,16.1-4.4c6.2-0.2,16.6,2.8,33.5,12c0,0,0,0,0,0c-1.3,0.1,1.2,1,2.7,1.6
		s5.1,2.5,6.1,3.6S275.4,251.2,273.9,251.1z M283.6,240.9c-5.1-2.7-21-13-23.6-14.6c-2.7-1.7-15.9-7.6-24.1-7.3c0,0,0.8-1.9,5.7-1.5
		c4.8,0.3,33.1,3.7,44.9,2.2c11.8-1.5,21.3-6.6,21.3-6.6s2.5,1.2,5,4c-0.1,0-0.9-0.1-2.1-1.2c0,0-1.9-1.2-3.1-1.1s-4,0.6-4.7,0.8
		c-0.7,0.2-2,0.6-3.3,1.1c-1.3,0.5-3.5,1.2-3.5,1.2s-3.6,1.6-4.2,1.7c-0.7,0.1-5.3,0.2-5.3,0.2s0.4,0.8,0,1.4
		c-0.4,0.6-0.9,0.6-0.9,1.6s-0.5,2.4,0,2.7c0.5,0.4,1.4,1.4,1.5,1.9c0.1,0.5,0.2,0.7,1,1.1c0.7,0.3,3.2,2.2,4.8,2.8
		c1.7,0.7,2.2,1.5,3.7,2c0,0,0.6,0.4,1.4,0.8c0.8,0.4,6.6,1.8,8.6,2.2c2.1,0.4,3.5,0.3,4.9-0.4s3.4-1.7,3.4-1.7s0.5-0.9,0.8-1.1
		c0.3-0.2,1.7-1.3,1.8-1.3c-0.1,5-1.7,11.1-5.5,18.7C312,250.4,288.8,243.5,283.6,240.9z M312.7,217c0.9,1,1.7,2.2,2.5,3.6
		C313.3,217.8,312.8,217.2,312.7,217z M415.5,449.5c-8.7,0.3-13.4,0.3-15.5-0.4c-2.2,0.7-6.8,0.8-15.5,0.4c-8.7-0.3-13-7.4-13-7.4
		l28.5,0.3l28.5-0.3C428.5,442.2,424.3,449.2,415.5,449.5z M582.7,237.1c0,0,1.2,0.1,0.4-4.7c-0.7-4.7-10.7-13.2-10.7-13.2
		c2.7-1.2,6.8,1.6,12.7,4c16,6.3,2,18-2.3,21.6C578.5,248.5,563,257,563,257l-2.7-1.7c-0.2-0.2-0.5-0.3-0.9-0.4
		c0.8,0.1,1.4,0.1,1.5,0.2c0.4,0.3,1.9,0.4,2.3,0c0.4-0.4,0.9-0.1,1.6-0.2s0.4-0.9-0.6-1.1c-1-0.2-2.6-1.2-3.6-2
		c-1.1-0.7-2.7-2.6-2.7-2.6l-3,0.1c0,0-3,0.7-5.4,0.9c-2.4,0.2-20.3,0.9-21.8,0.9c-1.5,0.1-2.9-0.1-1.9-1.2s4.6-3.1,6.1-3.6
		s4-1.5,2.7-1.6c-0.5,0-0.8-0.1-0.9-0.3c16.6-8.9,26.9-11.9,33-11.7C572.8,232.9,582.7,237.1,582.7,237.1z M513.6,219.6
		c11.8,1.5,40.1-1.8,44.9-2.2c4.8-0.3,5.6,1.5,5.6,1.5c-8.2-0.3-21.4,5.6-24.1,7.3c-2.7,1.7-18.5,12-23.6,14.6
		c-5.2,2.7-28.4,9.5-28.4,9.5c-3.9-7.5-5.4-13.7-5.5-18.7c0.1,0.1,1.5,1.2,1.8,1.3c0.3,0.2,0.8,1.1,0.8,1.1s2,1,3.4,1.7
		c1.4,0.7,2.8,0.8,4.9,0.4c2.1-0.4,7.8-1.8,8.6-2.2c0.8-0.4,1.4-0.8,1.4-0.8c1.6-0.5,2.1-1.3,3.7-2c1.7-0.7,4.1-2.5,4.8-2.8
		c0.7-0.3,0.9-0.6,1-1.1c0.1-0.5,1-1.5,1.5-1.9c0.5-0.4,0-1.7,0-2.7s-0.5-1-0.9-1.6C513.2,220.4,513.6,219.6,513.6,219.6
		c0,0-4.7-0.1-5.3-0.2c-0.7-0.1-4.2-1.7-4.2-1.7s-2.2-0.7-3.5-1.2c-1.3-0.5-2.6-0.8-3.3-1.1c-0.7-0.2-3.6-0.7-4.7-0.8
		s-3.1,1.1-3.1,1.1c-1.1,1.1-2,1.2-2.1,1.2c2.5-2.8,5-4,5-4S501.8,218.1,513.6,219.6z M484.9,220.6c0.8-1.4,1.6-2.6,2.5-3.6
		C487.3,217.1,486.9,217.7,484.9,220.6z M486.3,257c3.3,4.8,1.2,11.1-1.2,15c-2.5,3.9-3.1,11.5-1.7,13.6c2.7,4.2,2.7,10.7,4,13.5
		c1.2,2.7,3.5,14.2,2.2,19s-2.7,10.2-3.7,13s-1.7,8.2-2.5,10s-20,49.1-21.3,52.4c-1.3,3.2-3.4,1.2-3.4,1.2l0,0.1
		c-0.4-1.1-0.8-2.4-1.2-3.7c-1-3.8-4.3-16.1-4.2-19c0.2-2.8,0.8-10.8,0.8-10.8s2.3-13,2.7-14.5c0.3-1.5,1.2-3.8,1.2-3.8
		s0.2-3.2,0.3-4.5c0.2-1.3,1.3-5.8,1.7-7.1c0.3-1.3-0.5-4-2.3-2.5c-1.5,1.2-9.8,33.9-11.1,38.1c-1.3,4.2-1.3,11.3,1.2,17.5
		c2.3,5.7,8.4,19.6,10,23.8c0.7,3,1.5,7.2,2.1,14.1c1.2,12.5-17.1,15.1-25.9,15.8c-8.8,0.7-27,0.7-27.6,0.8c-0.6,0.1-5,2.6-6.2,2.6
		s-5.5-2.2-6.5-2.5c-1-0.2-18.5,0.2-31.7-1c-13.2-1.2-19.5-6.2-21.2-12.2c-1-3.3,0.1-9.4,1.3-14.4c0.4-1.6,0.8-3,1.1-4.2
		c1.6-3.9,5.2-12.4,7.8-18.4c0,0,0-0.1,0-0.1c0.1-0.3,0.2-0.5,0.3-0.7c0.1-0.1,0.1-0.3,0.2-0.4c0.1-0.2,0.1-0.3,0.2-0.5c0,0,0,0,0,0
		c0.4-1,0.8-1.9,1.1-2.6c2.5-6.2,2.5-13.3,1.2-17.5c-1.3-4.2-9.7-36.9-11.1-38.1c-0.4-0.3-0.7-0.4-1-0.4c0,0,0,0-0.1,0c0,0,0,0,0,0
		c-1.1,0.1-1.5,1.9-1.3,2.9c0.3,1.3,1.5,5.8,1.7,7.1c0.2,1.3,0.3,4.5,0.3,4.5s0.8,2.3,1.2,3.8c0.3,1.5,2.7,14.5,2.7,14.5
		s0.7,8,0.8,10.8c0.1,2.4-2.3,11.9-3.6,16.9c-0.1,0-0.2,0-0.3,0.1c-0.5,1.6-1,3.6-1.4,5c-0.5,1.8-1.5,2.8-2.3,1
		c-0.8-1.8-14.1-30.6-22.1-54s-6.7-26.2-6.6-30.7c0.1-4.5,1.9-6.1,2.2-7.6c0.4-1.5,1.1-10.1,3.4-13.8c2.2-3.7,2.5-9.5-1-17.2
		c-3.5-7.7-2.2-11.7-0.7-14.7c1.5-3,13.5-18,9-34.9c-4.5-17-26.7-18.7-26.7-18.7c1.7-1.8,3.1-4.3,4.1-6.7c2.1-5.1,2.8-10.2,2.8-10.2
		s0.1,0,0.2,0.1c1.1,0.5,7.4,3.3,13.1,5.2c6.3,2.2,16.8,2.7,24.3,2.8c7.5,0.2,17.5,3.7,22.9,7.3c5.5,3.7,8.2,14.3,10.3,24.9
		c2.2,10.6,7.2,12.5,10,14.3c2.8,1.8,2.5,3.6,2,4c-0.4,0.4-1.5,1.6-1.4,2.9c0.2,1.3,1.2,16.6,1.8,25.3c0.7,8.6,1.1,8.6,1.5,8.9
		c0.4,0.3,3.2,1.7,3.5,2.3c0.3,0.6,0.8,1.3,2.4,1.4c3.7,0.3,3.2-2.3,3.2-2.3c-1.5-1.2,0-9.3,0.7-12.1c0.7-2.8,0-7.1,1.5-11.7
		c1.5-4.6,1.8-9.6,1.8-9.6c1.5-4.7,3.3-20.1,3.3-20.1c-2.8-19.5-9.1-18.8-12-17.8c-2.8,1-5.1,0.7-6.5-0.5c-1.3-1.2-1.7-3.8-0.5-9.6
		c0.1-0.4,0.2-0.8,0.2-1.2l-0.8,1.5l-0.3,0.5l-0.5,0.3c-0.3,0.1-1.2,0.6-2.2,0.6c-1,0-1.8-0.4-2.3-1.1c-1-1.4-0.5-3.3-0.4-3.9
		l0.1-0.2l0.1-0.2l1.6-3.1c0.1-1.1,0.3-3.4,1.4-5.3l1.1-5.1l0-0.2l0.1-0.2c0.9-2,1.9-4.4,2.2-5.2c0-2.3,0.6-4,1.1-5
		c0.2-0.5,0.7-2.1,1.2-4.2c-0.4-1.2-0.9-2.2-1.4-3.3c-2.8-5.1-12.9-3.5-14.7-3.3c-1.8,0.2-4.4,0.9-5.1,1.1s-1.7,1.7-3.2,2.2
		c-1.6,0.6-3,1.7-3,1.7s-2.8,0.7-4.3,2c-1.5,1.2-3.4,1.2-3.4,1.2c-1.6,1.7-5.1,1.7-5.1,1.7s-3.7,1.7-13.5,3.8
		c-9.9,2.1-28.8-0.2-28.8-0.2l6.5-0.2v-0.8c0,0,8.1-0.4,13.6-1.5c5.5-1.1,11.2-1.5,12.5-1.5s10.7-2.2,13.2-3.4
		c2.5-1.1,3.2-0.8,3.2-0.8c1.1-1.2,4-2.5,4-2.5c2.2-2.6,6.2-4,6.2-4s1.1-1.6,5-3.7c3.9-2.1,4.6-1.5,7-0.9c9.2,2.4,11.5-1.6,11.5-1.6
		c0.7,0.2,2.7-1.2,3.9-2c0.7-2.9,1.2-5.1,1.2-5.6c0.2-1.8,1-2.9,2-3.4c-1.4-2.5-7.3-2.9-10.1-2.9c-3.3,0-5,0.5-6.2,0.9
		c-1.2,0.4-2.3,1-4.1,0.8c-1.7-0.2-3.3,0.7-4.5,0.9c-0.4,0.5-3.4,2.3-4.5,2.6c-1.5,1.6-3.3,1.7-4.4,2.3c-1.6,1-3,1.4-4.3,1.8
		c-1.3,0.3-2,1.7-3.2,1.8c-1.2,0.2-2.2,0.7-3,1.3c-0.8,0.7-2.3,1-3.5,1.2c-1.2,0.2-2.8,1.3-4.8,1.7c-2,0.3-2.3,0.5-3,1
		c-0.7,0.5-8.8,2.7-8.8,2.7l-5.2,1.8c-2,0-4.5,0.2-6,1c-5,0.2-6.4,0-6.4,0c0.9-0.2,1.9-0.5,2.8-0.7c0.2-0.1,0.5-0.1,0.7-0.2
		c11.3-3,22.7-7.6,27.2-9.4c4.9-1.9,14.8-6.5,23.3-10.3c8.5-3.7,13.5-3.4,18.6-3.6c5.1-0.2,11.5,2.9,12.6,3.2c1.2,0.3,3.7,0,4.4-0.4
		c14.2-6.7,27.6,0.4,30.7,1.5s16.8,7.5,21,9.1c4.1,1.6,13.3,5.4,19.6,7.2c0.5,0.1,0.9,0.3,1.4,0.4c0.5,0.1,1,0.3,1.6,0.4
		c0.1,0,0.1,0,0.2,0c4.7,1.1,10.4,2,12.4,2.4c0.7,0.1,0.9,0.2,0.6,0.2c-1.6,0-8.4,0.1-9.6,0.1s-1.1-0.4-2.6-1c-1.9,0.1-4-0.1-4-0.1
		c-4.1-2-11.5-3.6-13.3-4.4c-1.9-0.7-10.1-3.1-11.5-4c-1.4-0.9-8.2-3.9-10.9-5.1c-2.6-1.3-8-4.2-10-4.9c-1.9-0.7-5.7-0.9-5.7-0.9
		c-1.5-0.7-2-0.7-4.1-1.2c-2.1-0.5-8.6-0.2-8.6-0.2c-0.5,0.4-5.1,2-5.1,2c-0.5,2-0.6,6.2,3.4,9.9c4,3.6,9,5,13.1,4s7.4-1.4,12.1,2.7
		c7,6.1,19.5,12.5,25.9,12.5c6.5,0,10-0.1,18.5,1.9c8.2,1.9,17.3,1.9,17.9,1.9c0,0,0,0,0,0c0,0.3,0,0.6,0,0.9
		c-0.3,8.7,2.2,15.7,4.3,20c0.3,0.7,0.7,1.3,1,1.9c0.2,0.4,0.4,0.7,0.6,1c0.4,0.6,0.7,1.1,0.9,1.4c0,0,0,0,0,0
		c0.1,0.2,0.2,0.3,0.3,0.4c0.1,0.2,0.2,0.2,0.2,0.2C456.4,212.5,483,252.2,486.3,257z M635.3,71.6c31.7,33.4,26.7,59.8,12.2,82.8
		c-30.4,50.4-133.8,48.1-133.8,48.1c-0.8-1-1.5-2.1-2.1-3.1c10.6-0.8,41-4.3,43-4.8c2.1-0.5,12.2-2.2,13.8-2.4
		c2-0.6,8.5-1.7,10.6-1.7c1.7-0.7,6.7-2,9.5-2c2.9-2,7.4-1.6,8.6-2.4c2.4-1.6,6.4-1.7,7-2.2c0.6-0.5,3.5-1.4,14-6.6
		c43.4-21.9,34.2-69.1,34.2-69.1c1.2,48.6-39.7,67.4-43.1,69.3c-3.5,1.8-8,4.8-8,4.8c-5.7,0.7-5.8,1-9,2.2c-4.2,0.7-7.5,1.5-9.6,2.2
		c-2.1,0.7-6.7,0.8-8.7,1.5s-3.2,0.2-8.6,1.3c-5.5,1.2-21.6,3.5-33.8,5c-9.5,1.2-18.3,1.6-21.6,1.8c-3.7-7.9-3.9-15.9-3.5-21.2
		c0-0.5,0.5-1,1-0.9c7.2,0.1,21.8-0.2,34.4-3.6c0,0-23.8,0.2-34.8-0.5c0-0.2,0-0.4,0-0.5c0.3-3.2,1.4-2.6,1.4-2.6
		C658.4,162.9,635.7,73,635.3,71.6z M609,126.8c-1.3,1.5-2.7,3-4.2,4.4C606.3,129.7,607.6,128.3,609,126.8z M331.2,84.1
		c28.6-11.8,61.5-11.8,68-11.8c6.5,0,39.4,0,68,11.8c20.6,8.5,56.2,24.7,128.2,54.6c-37.9,25.6-99.7,19.5-102.3,19.4
		c-4.2-0.2-7.8,0.6-12.6-0.2c-4.8-0.8-21.6-4.8-31.1-9.3c-9.5-4.5-15.2-6.9-25.1-9.1c-10-2.3-19.5,0.9-21.7,2.2
		c-2.2,1.3-2,1.2-2.6,1.2s-0.4,0.1-2.6-1.2c-2.2-1.3-11.7-4.4-21.7-2.2c-10,2.2-15.7,4.6-25.1,9.1c-9.5,4.5-26.3,8.5-31.1,9.3
		c-4.8,0.8-8.5,0-12.6,0.2c-2.7,0.2-65.1,6.3-102.9-19.8C275.3,108.7,310.7,92.5,331.2,84.1z M195,130.9c-2.1-2-4-4.1-5.8-6.4
		C190.9,126.8,192.9,128.9,195,130.9z M165.3,71.6c-0.3,1.4-23,91.3,127,95.3c0,0,1.1-0.6,1.4,2.6c0,0.1,0,0.3,0,0.5
		c-11,0.7-34.8,0.5-34.8,0.5c12.5,3.4,27.2,3.7,34.4,3.6c0.5,0,1,0.4,1,0.9c0.4,5.3,0.2,13.3-3.5,21.2c-3.3-0.1-12-0.6-21.6-1.8
		c-12.1-1.5-28.3-3.8-33.8-5c-5.5-1.2-6.7-0.7-8.6-1.3s-6.5-0.8-8.7-1.5c-2.1-0.7-5.5-1.5-9.6-2.2c-3.2-1.2-3.3-1.5-9-2.2
		c0,0-4.5-3-8-4.8c-3.5-1.8-44.4-20.6-43.1-69.3c0,0-9.2,47.1,34.2,69.1c10.5,5.2,13.3,6.1,14,6.6c0.6,0.5,4.6,0.6,7,2.2
		c1.2,0.7,5.7,0.4,8.6,2.4c2.7,0,7.7,1.2,9.5,2c2.1,0,8.6,1.1,10.6,1.7c1.6,0.1,11.7,1.9,13.8,2.4c2,0.5,32.4,4,43,4.8
		c-0.6,1-1.3,2.1-2.1,3.1c0,0-103.4,2.2-133.8-48.1C138.6,131.5,133.6,105,165.3,71.6z"/>
</g>
</svg>
