<?xml version="1.0" encoding="utf-8"?>
<!-- Generator: Adobe Illustrator 22.1.0, SVG Export Plug-In . SVG Version: 6.00 Build 0)  -->
<svg version="1.1" id="图层_1" xmlns="http://www.w3.org/2000/svg" xmlns:xlink="http://www.w3.org/1999/xlink" x="0px" y="0px"
	 viewBox="0 0 800 800" style="enable-background:new 0 0 800 800;" xml:space="preserve">
<style type="text/css">
	.st0{fill:#CCB17A;}
	.st1{fill:#FFFFFF;}
	.st2{fill:#04599A;}
	.st3{fill:#0D88D6;}
	.st4{fill:#2072BC;}
	.st5{fill:#2072BD;}
	.st6{fill:#1F72BC;}
	.st7{fill:#EEEDE7;}
	.st8{fill:#D6D1C3;}
	.st9{fill:#4C4C4C;}
	.st10{fill:#848484;}
	.st11{fill:#B3B3B3;}
	.st12{fill:#DCB161;}
	.st13{fill:#DCB162;}
	.st14{fill:#B68743;}
	.st15{fill:#B58742;}
	.st16{fill:#FFFFFE;}
	.st17{fill:#089FD6;}
	.st18{fill:#FE0000;}
</style>
<g>
	<g>
		<g>
			<g>
				<g>
					<path class="st0" d="M400.7,50c-0.5,0-0.7,0-0.7,0s-0.3,0-0.7,0c-4.3,0-26,1.4-26,30c0,0-21.8,24.8-47.8,33
						c0,0-8.8-10.5-21.4-10.5c-2.6,0-5.3,0.4-8.2,1.5c-16.8,6.3-19.3,21.8-19,27c0,0-24.3,17.8-50.8,17.8c0,0-7.1-10.1-18.4-10.1
						c-0.5,0-1,0-1.6,0.1c-12.3,1-25,6.8-26.8,27c-1.8,20.3,19.3,25,19.3,25l6.5,5.5c0,0-10.8,4.8-30,6.8c0,0-5.7-6.4-14.6-6.4
						c-0.4,0-0.9,0-1.3,0c-9.7,0.7-26.9,7-26.9,27s18.2,24,18.2,24s50.4,67.4,32.3,152.4s-25,133.1,9,202.1
						c33.6,68.3,124.5,127.2,205.4,147.4c0.9,0.2,1.8,0.3,2.7,0.3c0.9,0,1.8-0.1,2.7-0.3c80.9-20.2,171.7-79.1,205.4-147.4
						c34-69,27-117.1,9-202.1s32.3-152.4,32.3-152.4s18.2-4,18.2-24s-17.2-26.3-26.9-27c-0.4,0-0.9,0-1.3,0
						c-8.9,0-14.6,6.4-14.6,6.4c-19.3-2-30-6.8-30-6.8l6.5-5.5c0,0,21-4.8,19.3-25c-1.8-20.3-14.5-26-26.8-27
						c-0.5,0-1.1-0.1-1.6-0.1c-11.3,0-18.4,10.1-18.4,10.1c-26.5,0-50.8-17.8-50.8-17.8c0.3-5.3-2.3-20.8-19-27
						c-2.8-1.1-5.6-1.5-8.2-1.5c-12.6,0-21.4,10.5-21.4,10.5c-26-8.3-47.8-33-47.8-33C426.8,51.4,405.1,50,400.7,50L400.7,50z"/>
					<path class="st1" d="M400.7,62c0.8,0,4.7,0.1,8,2.3c4,2.6,6,7.9,6,15.7v4.5l3,3.4c1,1.1,24.3,27.4,53.2,36.5l7.7,2.7l5.1-6.4
						c1.6-1.8,6.7-6.2,12.2-6.2c1.3,0,2.6,0.2,4,0.7c11.4,4.3,11.2,15.1,11.2,15.2l-0.3,6.4l5.2,3.8c1.1,0.8,27.8,20.1,57.9,20.1
						h6.2l3.6-5.1c0,0,4-5,8.6-5c0.2,0,0.4,0,0.6,0c10.4,0.9,14.9,5.4,15.8,16.1c0.3,4-0.8,6.7-3.7,9.1c-2.7,2.1-5.8,3-6.3,3.2
						l-2.7,0.5l-2.4,2l-6.5,5.5l-14.6,12.4l17.5,7.8c1.3,0.6,13.1,5.6,33.6,7.7l6.1,1.1l4-4.9c0.5-0.5,2.8-2.5,5.8-2.5
						c0.2,0,0.3,0,0.5,0c3,0.2,7.3,1.3,10.6,3.8c3.4,2.6,5,6.2,5,11.2c0,4.3-1.3,7.3-3.9,9.6c-2.1,1.8-4.4,2.5-4.9,2.7l-4.1,0.7
						l-2.8,3.8c-0.6,0.7-13.7,18.5-24.5,47.3c-6.3,16.9-10.6,34.1-12.6,51.2c-2.6,21.5-1.7,42.9,2.7,63.6
						c8.2,38.8,15,73.4,14.7,104.5c-0.2,30.7-7.3,58.4-22.8,89.8c-7.6,15.5-18.7,31-32.9,46.1c-13.6,14.5-29.8,28.3-48.2,41.1
						c-35.7,24.9-77,44-116.3,53.8c-39.2-9.8-80.5-28.9-116.3-53.8c-18.3-12.8-34.5-26.6-48.2-41.1c-14.2-15.1-25.3-30.6-32.9-46.1
						c-15.5-31.5-22.5-59.2-22.8-89.8c-0.2-31,6.5-65.7,14.7-104.5c4.4-20.7,5.3-42.1,2.7-63.6c-2.1-17.1-6.3-34.4-12.6-51.2
						c-10.8-28.7-24-46.5-24.5-47.3l-2.4-3.7l-4.5-0.8c-0.5-0.1-2.8-0.9-4.9-2.7c-2.7-2.3-3.9-5.3-3.9-9.6c0-5,1.6-8.6,5-11.2
						c3.3-2.5,7.7-3.6,10.6-3.8c0.2,0,0.3,0,0.5,0c2.9,0,5.3,2,5.8,2.5l3.7,4.5l6.5-0.7c20.5-2.1,32.3-7.1,33.6-7.7l17.5-7.8
						l-14.6-12.4l-6.5-5.5l-2.1-1.9l-3-0.6c-0.5-0.1-3.6-1-6.3-3.2c-3-2.4-4.1-5.1-3.7-9.1c0.9-10.7,5.4-15.2,15.8-16.1
						c0.2,0,0.4,0,0.6,0c4.5,0,8.2,4.5,8.7,5l3.3,5h6.4c30.1,0,56.7-19.3,57.9-20.1l5.2-3.8l-0.3-6.4c0-0.1-0.2-10.9,11.2-15.2
						c1.3-0.5,2.6-0.7,4-0.7c5.5,0,10.6,4.5,12.2,6.2l5,6.2l7.8-2.5c28.9-9.2,52.2-35.4,53.2-36.5l3-3.4V80c0-7.8,2-13.1,6-15.7
						c3.3-2.2,7.2-2.3,8-2.3l0.4,0.1L400.7,62L400.7,62z"/>
				</g>
				<path class="st2" d="M590.4,335.8c-0.7-51.4,50.7-112.1,50.7-112.1c-59.4-2.7-80.7-20-80.7-20c20-21.3,30-36,30-36
					c-78.7,3.3-94.7-36.7-94.7-36.7C436.3,146.4,400,77.7,400,77.7s-36.3,68.7-95.7,53.4c0,0-16,40-94.7,36.7c0,0,10,14.7,30,36
					c0,0-21.3,17.3-80.7,20c0,0,51.4,60.7,50.7,112.1c-0.7,51.4-11.3,113.4-15.3,136.7c-4,23.3-18,110,88.7,194.8
					c48,36.7,88,51,117.1,51c29,0,69-14.3,117.1-51c106.7-84.7,92.7-171.4,88.7-194.8C601.8,449.2,591.1,387.2,590.4,335.8z"/>
				<g>
					<path class="st3" d="M552.6,285.1h-40v385.6c1.5-1.1,3-2.2,4.5-3.4c13.8-10.9,25.5-21.9,35.5-32.7V285.1z"/>
					<path class="st3" d="M464.2,700.7V285.1h-40v430.3C436.3,712.7,449.7,707.9,464.2,700.7z"/>
					<path class="st3" d="M375.8,715.4V285.1h-40v415.6C350.3,707.9,363.7,712.7,375.8,715.4z"/>
					<path class="st3" d="M287.4,285.1h-40v349.5c10,10.8,21.8,21.8,35.5,32.7c1.5,1.2,3,2.3,4.5,3.4V285.1z"/>
				</g>
			</g>
			<g>
				<path class="st4" d="M286.3,205.1l46.7-20.3H467l46.7,20.3c0,0-63.5,12.8-113.7,12.8C349.5,217.9,286.3,205.1,286.3,205.1z"/>
				<path class="st5" d="M575.6,220.7c7.8,2.9,16.4,5.2,25.8,7c-15.6,0.5-46.9-0.9-68.6-17.7c0.2-0.4,0.4-0.9,0.5-1.3h19.8l2,1.6
					C555.7,210.9,561.9,215.7,575.6,220.7z"/>
				<path class="st4" d="M492.4,142c8.5,11.6,35.2,29.5,85,32.7c-7.3,9.6-53.3,5.2-89.4-18.9L492.4,142z"/>
				<path class="st4" d="M321.5,141.8c22.4,0,44.5-10.5,63.8-30.4c6.2-6.3,11.1-12.7,14.7-17.8c3.7,5.2,8.6,11.5,14.7,17.8
					c19.3,19.9,41.4,30.4,63.8,30.4c2.3,0,4.6-0.1,6.8-0.3l-4.3,12.3H400h-81.1l-4.3-12.3C316.9,141.7,319.2,141.8,321.5,141.8z"/>
				<path class="st5" d="M222.9,174.9c46.1,0.4,76.2-21.4,84.7-33l4.3,13.8C275.9,179.9,231,185,222.9,174.9z"/>
				<path class="st6" d="M224.4,220.7c13.7-5,19.9-9.9,20.5-10.4l2-1.6h19.8c0.1,0.5,0.3,0.9,0.5,1.3c-21.8,16.8-53,18.2-68.6,17.7
					C208,226,216.6,223.6,224.4,220.7z"/>
			</g>
			<path class="st0" d="M209.6,335.8c0,0.3,0,0.6,0,0.8c1.7-2.6,4.3-5.5,8.3-8.5c0,0,0-0.1,0-0.1c0.7-0.5,1.6-1,2.4-1.6
				c19.2-12.8,65.1-26.8,174-27.3c0,0,0.1,0,0.1,0c1.9,0,3.7,0,5.6,0c1.9,0,3.8,0,5.6,0c0,0,0.1,0,0.1,0
				c108.9,0.5,154.8,14.5,174,27.3c0.9,0.5,1.7,1.1,2.4,1.6c0,0,0,0.1,0,0.1c4,3,6.6,5.9,8.3,8.5c0-0.3,0-0.6,0-0.8
				c-0.7-51.4,50.7-112.1,50.7-112.1c-59.4-2.7-80.7-20-80.7-20c20-21.3,30-36,30-36c-3.1,0.1-6.2,0.2-9.1,0.2
				c-70.8,0-85.6-36.9-85.6-36.9c-6,1.5-11.7,2.2-17.2,2.2c-49.1,0-78.5-55.6-78.5-55.6s-29.4,55.6-78.5,55.6
				c-5.5,0-11.2-0.7-17.2-2.2c0,0-14.8,36.9-85.6,36.9c-3,0-6-0.1-9.1-0.2c0,0,10,14.7,30,36c0,0-21.3,17.3-80.7,20
				C158.9,223.8,210.2,284.5,209.6,335.8z M206.9,259.8l-26.2-25.2c14.4,0.8,40.5,0.7,48.2-0.5c22.1-4.6,34.9-13.6,41.8-20.2
				c1.4,0.9,3.1,1.4,4.8,1.4c1.5,0,2.8-0.3,4.1-0.9l22.2,29.2C272.4,246.7,239.4,251.7,206.9,259.8z M400,238.4c0,0-36.9-0.7-87,4
				l-26.7-29.7c53.4,11.7,113.7,11.7,113.7,11.7s60.4,0,113.7-11.7L487,242.4C436.9,237.7,400,238.4,400,238.4z M286.3,205.1
				l46.7-20.3l-11.7-24.3H400h78.7L467,184.7l46.7,20.3c0,0-63.5,12.8-113.7,12.8C349.5,217.9,286.3,205.1,286.3,205.1z
				 M593.1,259.8c-32.5-8.1-65.5-13.1-94.9-16.2l22.2-29.2c1.2,0.6,2.6,0.9,4.1,0.9c1.8,0,3.4-0.5,4.8-1.4
				c6.9,6.7,19.7,15.6,41.8,20.2c7.7,1.1,33.8,1.3,48.2,0.5L593.1,259.8z M575.6,220.7c7.8,2.9,16.4,5.2,25.8,7
				c-15.6,0.5-46.9-0.9-68.6-17.7c0.2-0.4,0.4-0.9,0.5-1.3h19.8l2,1.6C555.7,210.9,561.9,215.7,575.6,220.7z M492.4,142
				c8.5,11.6,36.1,31.1,85,32.7c-6.3,9.3-53.3,5.2-89.4-18.9L492.4,142z M563.9,187.2c-2.9,3.3-6.2,6.9-9.7,10.7l-4.8,5.1h-16.1
				c-1.2-3.8-4.7-6.5-8.9-6.5c-2.8,0-5.3,1.2-7,3.2l-42.7-17.3l11.3-20.3C486,162.1,509,184,563.9,187.2z M321.5,141.8
				c22.4,0,44.5-10.5,63.8-30.4c6.2-6.3,11.1-12.7,14.7-17.8c3.7,5.2,8.6,11.5,14.7,17.8c19.3,19.9,41.4,30.4,63.8,30.4
				c2.3,0,4.6-0.1,6.8-0.3l-4.3,12.3H400h-81.1l-4.3-12.3C316.9,141.7,319.2,141.8,321.5,141.8z M223.6,175.1
				c53.4-0.3,75.6-21.5,84-33.1l4.3,13.8C275.9,179.9,233.6,183.7,223.6,175.1z M236.1,187.2C291,184,314,162.1,314,162.1l11.3,20.3
				l-42.7,17.3c-1.7-1.9-4.2-3.2-7-3.2c-4.2,0-7.7,2.7-8.9,6.5h-16.1l-4.8-5.1C242.2,194.1,239,190.5,236.1,187.2z M224.4,220.7
				c13.7-5,19.9-9.9,20.5-10.4l2-1.6h19.8c0.1,0.5,0.3,0.9,0.5,1.3c-21.8,16.8-53,18.2-68.6,17.7C208,226,216.6,223.6,224.4,220.7z"
				/>
		</g>
		<g>
			<path class="st1" d="M484.5,680.8c-84.5,37.5-84.5,37.5-169,0c0-46.7,37.8-84.5,84.5-84.5S484.5,634.1,484.5,680.8z"/>
			<path class="st7" d="M461.7,619.9c0,0-2,37.7-23,59l15.7,18l30.3-13.3l3.7-21.3l-8.7-25.7L461.7,619.9z"/>
			<path class="st8" d="M377,623.3l-4.3-5c0,0-6.7,4.7-9,27.3C363.7,645.6,372,625.9,377,623.3z"/>
			<path class="st9" d="M400,587.3c-51.6,0-93.5,41.9-93.5,93.5c0,1.1,0,2.1,0.1,3.2c37.6,24.4,69.3,34.3,93.5,34.3
				s55.9-9.9,93.5-34.3c0-1.1,0.1-2.1,0.1-3.2C493.5,629.1,451.6,587.3,400,587.3z M315.5,680.8c0-10.8,2.1-21.2,5.8-30.7
				c2.5-1.2,5-2.4,7.2-3.4c1.5,7.6,5.3,15.3,6.3,17.1l-3.3,22.2c-0.8,0.3-1.7,0.4-2.8,0.5C324.4,684.7,320.1,682.8,315.5,680.8z
				 M333.3,686.9l3.6-23.6l23.1-12c12,6.3,25,16.6,31,21.5l0.1,35.6c-14-1.7-29.2-7.3-51.4-16.9
				C336.7,689.5,334.6,687.9,333.3,686.9z M450.7,625c5.7,4.1,16.8,14.3,24,34.6l-7.6,23.6l-23.4,0.4l-17.2-22.4l5.8-35L450.7,625z
				 M443.7,685.6l24-0.5l0.9,2.7c-10.8,4.8-20.1,8.7-28.3,11.9L443.7,685.6z M480.9,656.3l-5.1,0.5c-6.7-17.7-16.2-27.5-22.2-32.2
				l1.1-8.2C466.9,626.7,476.1,640.5,480.9,656.3z M400,596.3c9.3,0,18.3,1.5,26.7,4.3L415,614.8l15.3,11.3l-5.5,33.3l-32.4,11.9
				c-6-4.9-19.2-15.2-31.3-21.7c1.2-29.9,11.5-31.8,11.5-31.8c-7-0.5-26,0-26,0c-11,10-18.5,26-18.5,26c0,0.3,0.1,0.6,0.1,0.9
				c-1.7,0.8-3.7,1.7-5.7,2.7C335.3,617.3,365.2,596.3,400,596.3z"/>
			<path class="st10" d="M420,664.6c0,0-15.7,7-18.7,13c-3,6-6.3,13.7-6.3,23.3l-2.3-29L420,664.6z"/>
			<path class="st10" d="M358.9,620.5c0,0-19,4.8-28.7,19.1c0,0,7-14.3,16.3-21.8L358.9,620.5z"/>
		</g>
		<g>
			<g>
				<path class="st1" d="M568.1,498.8l-1-11.6c-0.1-1.5-4.5-33.5-26.8-63.9l3.5-0.2c0,0-2.5-13.9-11.2-21.6
					c10.7-20.2,3.7-27.9,1.9-29.5c-0.2-0.2-0.5-0.2-0.8-0.1l-2.7,1.4c0,0-1.1,0.2-2.8,0.3c5.5-8.1,9.2-27.6,6.9-47.6l-6.8,1.8
					c-0.7-3-1.8-10.3-3.2-13.7c-6.1-15.4-16.5-24.5-30.1-26.2l-0.2,0l-0.2,0c-0.5,0-1-0.1-1.5-0.1c-10.3,0-14.9,7.7-17.3,11.8
					l-0.1,0.2l0,0.1c-7.3,12.2-11.8,12.8-12.6,12.8c0,0-3.5-0.3-12.8-8.2c-5.3-4.5-9.7-9-9.7-9.1l-6.8-7.1l-4.2,8.7
					c-3.5-3.7-10.7-11.7-15.8-11.7l-4.1,5.6c-1.2-1.7-4.6-9.5-9.7-14.8c-5.1,5.3-8.5,13.2-9.7,14.8l-4.1-5.6
					c-5.2,0-12.4,7.9-15.8,11.7l-4.2-8.7l-6.8,7.1c0,0-4.4,4.6-9.7,9.1c-9.3,7.8-12.8,8.2-12.8,8.2c-0.8,0-5.2-0.6-12.6-12.8l0-0.1
					l-0.1-0.2c-2.5-4.1-7.1-11.8-17.3-11.8c-0.5,0-1,0-1.5,0.1l-0.2,0l-0.2,0c-13.6,1.7-24,10.8-30.1,26.2
					c-1.3,3.4-2.4,10.7-3.2,13.7l-6.8-1.8c-2.3,20,1.4,39.6,6.9,47.6c-1.7-0.1-2.8-0.3-2.8-0.3l-2.7-1.4c-0.3-0.1-0.6-0.1-0.8,0.1
					c-1.8,1.5-8.7,9.2,1.9,29.5c-8.6,7.8-11.2,21.6-11.2,21.6l3.5,0.2c-22.3,30.4-26.7,62.4-26.8,63.9l-1,11.6l12.3-5.2
					c-3.3,41.7,7.3,58.4,7.3,58.4l7.7-7.3c8.3,28,25.8,39.2,25.8,39.2s7.2-13.1,8-14.5c10.3,29,24,39.5,24,39.5s7.9-19,9.3-22.2
					c4.3,5.7,8.3,11.1,11.2,13.3v8.9l10.1-3.1c0.5,4.7,1,8,1.1,8.3l2,11.1l9.8-5.5l8.5-4.8c6.9,11.3,16.9,15.7,17.5,15.9l8.1,3.5
					l0.5-1.7l4.8,4.6l4.8-4.6l0.5,1.7l8.1-3.5c0.5-0.2,10.6-4.7,17.5-15.9l8.5,4.8l9.8,5.5l2-11.1c0-0.2,0.6-3.6,1.1-8.3l10.1,3.1
					v-8.9c2.9-2.2,6.9-7.6,11.2-13.3c1.4,3.1,9.3,22.2,9.3,22.2s13.7-10.5,24-39.5c0.8,1.4,8,14.5,8,14.5s17.5-11.2,25.8-39.2
					l7.7,7.3c0,0,10.7-16.7,7.3-58.4L568.1,498.8z"/>
				<path class="st9" d="M559.1,487.9c0,0-3.3-37.4-32.7-69.4c0,0,1.3-1.3,8-1.7c0,0-8.2-11.3-12.8-15.3c0,0,9.5-7.3,10.5-20.3
					c0,0-16,2.3-21.3-2.7c0,0,21.3-7.7,17-45c0,0-3.3,2.2-5.7,2.2c0,0-2.3-36.8-28-40c-6.5-0.5-9.3,4.3-11.5,8s-10,16.8-19.5,16.8
					c-9.5,0-28.3-19.8-28.3-19.8s-2.8,7-5.3,8.8c0,0-6.8-14.3-13.8-14.3l-3,14c0,0-7-14.8-12.8-21.3c-5.8,6.5-12.8,21.3-12.8,21.3
					l-3-14c-7,0-13.8,14.3-13.8,14.3c-2.5-1.8-5.3-8.8-5.3-8.8s-18.8,19.8-28.3,19.8c-9.5,0-17.3-13-19.5-16.8s-5-8.5-11.5-8
					c-25.8,3.3-28,40-28,40c-2.3,0-5.7-2.2-5.7-2.2c-4.3,37.4,17,45,17,45c-5.3,5-21.3,2.7-21.3,2.7c1,13,10.5,20.3,10.5,20.3
					c-4.7,4-12.8,15.3-12.8,15.3c6.7,0.3,8,1.7,8,1.7c-29.3,32-32.7,69.4-32.7,69.4c2-2,11.7-5.7,11.7-5.7
					c-3.3,27,1.5,56.9,1.5,56.9c0.7-1.2,8.5-8.8,8.5-8.8c5.2,25.2,21,42.2,21,42.2c3.7-7,12-20.7,12-20.7
					c4.3,26.8,19.3,43.4,19.3,43.4c4.3-10.8,10.7-23.2,10.7-23.2c10.2,19,20,23.7,20,23.7v2.3l9.6-2.9c0,9,1.5,17.5,1.5,17.5l16-9
					c4.8,14.5,17,19.8,17,19.8l1.8-5.5l8.5,8.2l8.5-8.2l1.8,5.5c0,0,12.3-5.3,17-19.8l16,9c0,0,1.5-8.5,1.5-17.5l9.6,2.9v-2.3
					c0,0,9.8-4.7,20-23.7c0,0,6.3,12.3,10.7,23.2c0,0,15-16.5,19.3-43.4c0,0,8.3,13.7,12,20.7c0,0,15.8-17,21-42.2
					c0,0,7.8,7.7,8.5,8.8c0,0,4.8-29.8,1.5-56.9C547.4,482.2,557.1,485.9,559.1,487.9z"/>
			</g>
			<g>
				<path class="st11" d="M279.9,432.9c0,0-10,6.7-23,38l9.7-1c0,0-5.7,17.3-3.7,45c0,0,5-5,10.7-10c0,0-0.7,23.7,8.3,46.4
					c0,0,11-15,19.3-19c0,0,3.7,22,12.3,40.7c0,0,5.7-17.3,17.3-28.3c0,0,1.7,22.3,13,37.4l9.7-7.7c0,0-18.3-13.3-18-45
					c0,0-11,4.3-18.3,11.7c0,0-5.7-7.7-11-21.7c0,0-15,6-21.3,11.7c0,0-4-18.3-3.3-41.4c0,0-6.7,2-10.7,6.3c0,0,1.3-17.3,8-35.7
					c0,0-6,0.3-9,2.3C269.9,462.5,273.6,449.2,279.9,432.9z"/>
				<path class="st11" d="M520.1,432.9c0,0,10,6.7,23,38l-9.7-1c0,0,5.7,17.3,3.7,45c0,0-5-5-10.7-10c0,0,0.7,23.7-8.3,46.4
					c0,0-11-15-19.3-19c0,0-3.7,22-12.3,40.7c0,0-5.7-17.3-17.3-28.3c0,0-1.7,22.3-13,37.4l-9.7-7.7c0,0,18.3-13.3,18-45
					c0,0,11,4.3,18.3,11.7c0,0,5.7-7.7,11-21.7c0,0,15,6,21.3,11.7c0,0,4-18.3,3.3-41.4c0,0,6.7,2,10.7,6.3c0,0-1.3-17.3-8-35.7
					c0,0,6,0.3,9,2.3C530.1,462.5,526.4,449.2,520.1,432.9z"/>
				<path class="st11" d="M436,585.5c-0.8-6.8-9.5-6-16.3-6.3s-15.3-6.8-15.3-6.8l-4.5,4.8l-4.5-4.8c0,0-8.5,6.5-15.3,6.8
					s-15.5-0.5-16.3,6.3c0,0,8-1.8,10,0c0,0-5.3,6.3-4.5,11.8l10-6.8c0,0,0,10,4.8,14.8l5.5-8.3l10.3,10.3l10.3-10.3l5.5,8.3
					c4.8-4.8,4.8-14.8,4.8-14.8l10,6.8c0.8-5.5-4.5-11.8-4.5-11.8C428,583.8,436,585.5,436,585.5z"/>
				<path class="st12" d="M430.8,366.9c-10.8-6-27-6.5-30.8-1.5c-3.8-5-20-4.5-30.8,1.5c-23.5,14-11.1,31.5-11.1,31.5
					c11-19.1,33.3-25,33.3-25c-4.8,8.8-2.8,14.5-2.8,14.5l11.3-12.5l11.3,12.5c0,0,2-5.8-2.8-14.5c0,0,22.4,5.9,33.3,25
					C441.8,398.4,454.3,380.9,430.8,366.9z"/>
				<path class="st13" d="M400,349.2c0,0-4,6-14.3,5.7c0,0-2-5,2-14c0,0-7.7,5.7-8.7,8c0,0-1.8-2.3-1.5-13.3c0,0-5.1,0.7-10.5,10.7
					c0,0-3.3-2.7-4-10.7c0,0-5,2.3-6.3,13c0,0-23.1,12-28.1,17c0,0,13.9-6.3,20.9-6.3l13.5-6l-0.2-6.2l7.4,5.2l2.1-8.3l2.7,14
					c0,0-12.7,6.7-23.7,15.7c0,0,1-7.3,11.3-15c0,0-15.7,3.7-24.3,30.3l-3,6c0,0-2.7-8.3,0.7-15.3c0,0-9.8,5.3-13.4,31l-3.3-30.3
					l-12.7-25l2.7-7.3l-2.8-14.3l1-7.8l2.8-5c0,0,1-0.8,2.5,0.8s14.6,12.8,18,13.1c3.4,0.4,11.5,0.5,14.1-0.8c0,0-1.1,9-13.6,8.9
					c0,0,1.3,5.3,5.4,5.1c4.1-0.1,18-13,21-15.8c3-2.8,6.3-2.9,8.4-2.8s3.4,0.1,5.3,1.5c0,0,6-12.3,9.5-12.1
					c3.5,0.1,9.8,11.3,9.8,11.3s4.3-9.9,5.6-9.8s3.8,9.7,3.8,13.7S400,349.2,400,349.2z"/>
				<path class="st13" d="M400,349.2c0,0,4,6,14.3,5.7c0,0,2-5-2-14c0,0,7.7,5.7,8.7,8c0,0,1.8-2.3,1.5-13.3c0,0,5.1,0.7,10.5,10.7
					c0,0,3.3-2.7,4-10.7c0,0,5,2.3,6.3,13c0,0,23.1,12,28.1,17c0,0-13.9-6.3-20.9-6.3l-13.5-6l0.2-6.2l-7.4,5.2l-2.1-8.3l-2.7,14
					c0,0,12.7,6.7,23.7,15.7c0,0-1-7.3-11.3-15c0,0,15.7,3.7,24.3,30.3l3,6c0,0,2.7-8.3-0.7-15.3c0,0,9.8,5.3,13.4,31l3.3-30.3
					l12.7-25l-2.7-7.3l2.8-14.3l-1-7.8l-2.8-5c0,0-1-0.8-2.5,0.8s-14.6,12.8-18,13.1c-3.4,0.4-11.5,0.5-14.1-0.8c0,0,1.1,9,13.6,8.9
					c0,0-1.3,5.3-5.4,5.1c-4.1-0.1-18-13-21-15.8c-3-2.8-6.3-2.9-8.4-2.8c-2.1,0.1-3.4,0.1-5.3,1.5c0,0-6-12.3-9.5-12.1
					s-9.8,11.3-9.8,11.3s-4.3-9.9-5.6-9.8s-3.8,9.7-3.8,13.7S400,349.2,400,349.2z"/>
				<path class="st13" d="M469.3,451.2c0,0-2.3,8-5.3,11c0,0,1.3-15.8-4-17.5c0,0-0.6,21.2-24.8,24.3c0,0,1.8,7,11.1,6.3
					c0,0-3.3,9.6-17.3-3.5c0,0-3.1,8.1-4.7,7.5c-3.1-1.2-7-11.7-7-11.7s-1-7.3,0.7-15.7c0,0,4,13,7.7,12l1.3-9.9l0.3-21.1l0.7-8
					l-5.5-11.7l-6.2-8.7l-13-8.3c0,0-1.8,0-1.8,0.8s0,6.2,13.3,19.8c0,0-7-3.5-8.8-2.5c-1.8,1,10,10.4,9.7,23.2c0,0-7-16.3-14-17.3
					l0.3,9.3c0,0,4.5,5.8,3.8,16.5c0,0-1.8-5.1-4.3-5l0.2,12.3l-1.7-0.2l-1.7,0.2l0.2-12.3c-2.5-0.1-4.3,5-4.3,5
					c-0.8-10.8,3.8-16.5,3.8-16.5l0.3-9.3c-7,1-14,17.3-14,17.3c-0.3-12.8,11.4-22.2,9.7-23.2s-8.8,2.5-8.8,2.5
					c13.3-13.6,13.3-19,13.3-19.8s-1.8-0.8-1.8-0.8l-13,8.3l-6.2,8.7l-5.5,11.7l0.7,8L373,454l1.3,9.9c3.7,1,7.7-12,7.7-12
					c1.7,8.3,0.7,15.7,0.7,15.7s-3.9,10.5-7,11.7c-1.6,0.6-4.7-7.5-4.7-7.5c-14.1,13.1-17.3,3.5-17.3,3.5c9.3,0.8,11.1-6.3,11.1-6.3
					c-24.2-3.1-24.8-24.3-24.8-24.3c-5.3,1.7-4,17.5-4,17.5c-3-3-5.3-11-5.3-11s-2.4,6-0.7,18.5c1.7,12.5,10.7,10.5,10.7,10.5
					l-6.7,4.3l2.3,9l10.2-0.3l-2.5,8.8c5.7-5.2,16.3-11.5,16.3-11.5l-8.8,13.7L349,522l6,11l17.3,10.3c3.8-2-2.8-12.8-2.8-12.8
					c7.5,0.7,9.8,8,9.8,8c12.8-1.5,14.2,5.3,14.2,5.3c-3.2-1.5-10.8,0.2-10.8,0.2s11.2,7.5,11.5,10.3c0.5,4,0.5,6.3,3.7,6.5
					c2,0.2,2.2-3.8,2.2-3.8s0.2,3.8,2.2,3.8c3.3,0,3.2-2.5,3.7-6.5c0.3-2.8,11.5-10.3,11.5-10.3s-7.7-1.7-10.8-0.2
					c0,0,1.3-6.8,14.2-5.3c0,0,2.3-7.3,9.8-8c0,0-6.5,10.8-2.8,12.8L445,533l6-11l-2.5-17.8l-8.8-13.7c0,0,10.7,6.3,16.3,11.5
					l-2.5-8.8l10.2,0.3l2.3-9l-6.7-4.3c0,0,9,1.9,10.7-10.5C471.7,457.2,469.3,451.2,469.3,451.2z M374.2,502
					c-2.8,5-3.5,15.3-3.5,15.3c-2.3-2.3-3.3-11.5,0-17S377,486,377,486C380,491.2,377,497,374.2,502z M429.3,517.2
					c0,0-0.8-10.3-3.5-15.3c-2.8-5-5.8-10.8-2.8-16c0,0,3,8.8,6.3,14.3C432.5,505.7,431.5,515,429.3,517.2z"/>
				<path class="st14" d="M460,444.7c0,0-0.5,21.3-24.8,24.3c0,0,1.9,7,11.1,6.3c0,0-3.3,9.5-17.3-3.5c0,0-2.8,6.5-4.5,7.3
					s-6.6-9.5-7.3-12.8c-0.6-3.1,0.2-11.1,0.8-14.3c0,0,4,12.9,7.7,12l1.8-19.7l-2-13.3l-4.8-5.1l-1.7,8.7c0,0-2.7-7-5.7-7.7
					c0,0,2.7,6.3,2.3,10.7c0,0-7-16.7-14-17.3v9.3c0,0,4.8,5,4.1,16.5c0,0-1.8-5.3-4.3-5v9.1c0,0-0.1,1.5-1.5,1.5s-1.5-1.5-1.5-1.5
					v-9.1c-2.5-0.3-4.3,5-4.3,5c-0.8-11.5,4.1-16.5,4.1-16.5v-9.3c-7,0.7-14,17.3-14,17.3c-0.3-4.3,2.3-10.7,2.3-10.7
					c-3,0.7-5.7,7.7-5.7,7.7l-1.7-8.7l-4.8,5.1l-2,13.3l1.8,19.7c3.6,0.9,7.7-12,7.7-12c0.5,3.2,1.4,11.2,0.8,14.3
					c-0.7,3.3-5.5,13.5-7.3,12.8c-1.8-0.8-4.5-7.3-4.5-7.3c-14,13-17.3,3.5-17.3,3.5c9.2,0.8,11.1-6.3,11.1-6.3
					c-24.3-3-24.8-24.3-24.8-24.3c-8,10.3,4.8,23,4.8,23l-5.8-2.5c7.5,25.5,33.8,19.3,33.8,19.3c-0.8,4.2-0.6,8.1,0.2,11.6
					c2.3-4.9,4.1-10.1,4.1-10.1c2.9,5,0.2,10.5-2.4,15.4c3.4,8.3,9.4,13.6,9.4,13.6c-0.5-28.5,16-37.3,16-37.3s16.5,8.8,16,37.3
					c0,0,6-5.3,9.4-13.6c-2.6-4.9-5.3-10.4-2.4-15.4c0,0,1.8,5.2,4.1,10.1c0.8-3.5,1-7.4,0.2-11.6c0,0,26.3,6.3,33.8-19.3l-5.8,2.5
					C455.3,467.7,468,454.9,460,444.7z"/>
				<path class="st15" d="M363.2,337.2c0,0,3.9,1.9,6.1,5.1c-1.3,1.8-2.3,3.8-2.3,3.8S364,343.7,363.2,337.2z"/>
				<path class="st15" d="M386.3,335.5c0,0-5,0.8-8.9,3.8c0,6.6,1.5,9.5,1.5,9.5S385.2,341.2,386.3,335.5z"/>
				<path class="st15" d="M436.8,337.2c0,0-3.9,1.9-6.1,5.1c1.3,1.8,2.3,3.8,2.3,3.8S436,343.7,436.8,337.2z"/>
				<path class="st15" d="M413.7,335.5c0,0,5,0.8,8.9,3.8c0,6.6-1.5,9.5-1.5,9.5S414.8,341.2,413.7,335.5z"/>
				<path class="st15" d="M404.8,341.6c-1.1,1.9,0.8,6.3,0.8,6.3c-1.6-2.7-5.5-3.4-5.5-3.4s-3.9,0.7-5.5,3.4c0,0,1.9-4.3,0.8-6.3
					c0,0-12.7,2.2-9.6,13.3c0,0,9,1,14.3-5.7c5.4,6.6,14.3,5.7,14.3,5.7C417.4,343.8,404.8,341.6,404.8,341.6z"/>
				<g>
					<path class="st16" d="M310.3,320.8c0,0-13.3,9.3-5,26.3c0,0-7,0-16-8c0,0,2.3,14.3,19,27c0,0-11,2.7-19,0c0,0,3.7,11,25.7,17.3
						c0,0-6,10-29,13.3l19.7,10.7c0,0-13,1.3-15.3,5l12,0.7c0,0-8.3,10-8.3,14h8c0,0-10,11.7-10.7,18.3l7.3-0.7c0,0-6.7,14.3-6,26
						l8.3-1c0,0-6.7,13-6.7,27.3l7-1c0,0-6,9.7-6,14.3c0,0,9.3-5,17-5c0,0-1-10.3-8.3-15c0,0,1.7-7.3,5.7-13.3c0,0-22.7-32,7.7-52.4
						c0,0-5.3,8.3-5.7,11c0,0,8.3-4.3,14.3-4c0,0-8.7-28,1.3-52.4c0,0-13.3-9.7-16-22.7c0,0,1.3,1,9,1.3
						C320.3,358.2,305.3,346.1,310.3,320.8z"/>
					<path class="st1" d="M343,377.8c0,0-26.7,19.7-1.3,54.4l9,0.3c0,0,0-24.7,27-24c0,0-19.3,12.3-16.3,28c0,0,4.3-11.7,9.7-14.3
						c0,0-2.3,35.3,3.3,41.7c0,0-0.7-31,5-38l-6,2.3c0,0,9-19.3,23.3-32c0,0-11.3,2.7-16,6.7c0,0,0.1-5.2,1.6-6.4
						c0,0-11-0.3-29.5,9.5c0,0,8.3-13.3,29.8-34.5c0,0-24.3-2.8-42,24C340.5,395.4,339.2,383.8,343,377.8z"/>
					<path class="st1" d="M348,442.2c0,0-2.5,18.5,18.5,20C366.5,462.2,363.5,445.7,348,442.2z M357.8,459.2c-2.2,0-2.3-2.2-2.3-2.2
						s0-4.2,0-6s1.7-2.2,1.7-2.2c1.9-0.5,2.6,2.7,2.6,2.7l0,4.7C359.8,456.2,360,459.2,357.8,459.2z"/>
					<path class="st1" d="M326.4,444.4c0,0-13.8,24.2,7.6,40.2c0,0,4.5-3.2,12.5,0l-6.8,8.9c0,0-3,4-7.8,1s-21.8-20-21.3-38
						C311.2,443.9,316.7,442.6,326.4,444.4z"/>
					<path class="st1" d="M353.3,490.2c0,0-12-0.3-18.3,16c0,0-4-8-12.3-13.7c0,0,0.7,6.7,4.7,12.3l-6-0.3c0,0,3.2,8.7,9.4,13.3
						v-7.7c0,0,3.3,6,5.9,9c0,0,7.7-17.7,13-21.3C352.3,496.6,353.3,490.2,353.3,490.2z"/>
					<path class="st1" d="M389.3,561.9c-0.7-7.3-9.3-12.7-14.7-16.7c-1-8.7-12-14-14.3-14.7c-2.3-0.7-5.3-0.3-8.3-8.7
						c-3-8.3,8.3-31.3,8.3-31.3c-24.7,22.3-18.3,48.4-18.3,48.4c6.3,9.7,31,18,31,18c-10.3,1.7-25.7-6.7-25.7-6.7
						c5,15.3,34.3,17.7,34.3,17.7c-8.3,2-25,0-25,0c2.3,3,10,9.3,20,9c7.1-0.2,15.9-5.2,20.4-8.1c1.2-0.8,1-2.5-0.3-3
						C394.2,564.9,390.9,563.5,389.3,561.9z M364,544.7c-4-0.8-12.6-3.8-17.5-11.5c-1.3-2,0-1.8,0-1.8s14.3,11.5,20.8,11.8
						C369.2,543.2,368,545.5,364,544.7z"/>
				</g>
				<g>
					<path class="st16" d="M489.7,320.8c0,0,13.3,9.3,5,26.3c0,0,7,0,16-8c0,0-2.3,14.3-19,27c0,0,11,2.7,19,0c0,0-3.7,11-25.7,17.3
						c0,0,6,10,29,13.3l-19.7,10.7c0,0,13,1.3,15.3,5l-12,0.7c0,0,8.3,10,8.3,14h-8c0,0,10,11.7,10.7,18.3l-7.3-0.7
						c0,0,6.7,14.3,6,26l-8.3-1c0,0,6.7,13,6.7,27.3l-7-1c0,0,6,9.7,6,14.3c0,0-9.3-5-17-5c0,0,1-10.3,8.3-15c0,0-1.7-7.3-5.7-13.3
						c0,0,22.7-32-7.7-52.4c0,0,5.3,8.3,5.7,11c0,0-8.3-4.3-14.3-4c0,0,8.7-28-1.3-52.4c0,0,13.3-9.7,16-22.7c0,0-1.3,1-9,1.3
						C479.7,358.2,494.7,346.1,489.7,320.8z"/>
					<path class="st1" d="M457,377.8c0,0,26.7,19.7,1.3,54.4l-9,0.3c0,0,0-24.7-27-24c0,0,19.3,12.3,16.3,28c0,0-4.3-11.7-9.7-14.3
						c0,0,2.3,35.3-3.3,41.7c0,0,0.7-31-5-38l6,2.3c0,0-9-19.3-23.3-32c0,0,11.3,2.7,16,6.7c0,0-0.1-5.2-1.6-6.4
						c0,0,11-0.3,29.5,9.5c0,0-8.3-13.3-29.8-34.5c0,0,24.3-2.8,42,24C459.5,395.4,460.8,383.8,457,377.8z"/>
					<path class="st1" d="M433.5,462.2c21-1.5,18.5-20,18.5-20C436.5,445.7,433.5,462.2,433.5,462.2z M440.2,456.2l0-4.7
						c0,0,0.8-3.2,2.6-2.7c0,0,1.7,0.3,1.7,2.2s0,6,0,6s-0.2,2.2-2.3,2.2C440,459.2,440.2,456.2,440.2,456.2z"/>
					<path class="st1" d="M473.6,444.4c0,0,13.8,24.2-7.6,40.2c0,0-4.5-3.2-12.5,0l6.8,8.9c0,0,3,4,7.8,1c4.8-3,21.8-20,21.3-38
						C488.8,443.9,483.3,442.6,473.6,444.4z"/>
					<path class="st1" d="M446.7,490.2c0,0,12-0.3,18.3,16c0,0,4-8,12.3-13.7c0,0-0.7,6.7-4.7,12.3l6-0.3c0,0-3.2,8.7-9.4,13.3v-7.7
						c0,0-3.3,6-5.9,9c0,0-7.7-17.7-13-21.3C447.7,496.6,446.7,490.2,446.7,490.2z"/>
					<path class="st1" d="M403.2,565.8c-1.3,0.5-1.5,2.3-0.3,3c4.5,2.8,13.3,7.8,20.4,8.1c10,0.3,17.7-6,20-9c0,0-16.7,2-25,0
						c0,0,29.3-2.3,34.3-17.7c0,0-15.3,8.3-25.7,6.7c0,0,24.7-8.3,31-18c0,0,6.3-26-18.3-48.4c0,0,11.3,23,8.3,31.3
						c-3,8.3-6,8-8.3,8.7c-2.3,0.7-13.3,6-14.3,14.7c-5.3,4-14,9.3-14.7,16.7C409.1,563.5,405.8,564.9,403.2,565.8z M432.8,543.2
						c6.5-0.3,20.8-11.8,20.8-11.8s1.3-0.3,0,1.8c-4.9,7.7-13.5,10.8-17.5,11.5C432,545.5,430.8,543.2,432.8,543.2z"/>
				</g>
			</g>
		</g>
	</g>
	<g>
		<circle class="st17" cx="159.4" cy="223.6" r="7.5"/>
		<circle class="st17" cx="640.1" cy="223.6" r="7.5"/>
		<circle class="st17" cx="209.9" cy="167.8" r="7.5"/>
		<circle class="st17" cx="275.5" cy="205.2" r="4.7"/>
		<circle class="st17" cx="525.6" cy="205.2" r="4.7"/>
		<circle class="st17" cx="591.1" cy="167.8" r="7.5"/>
		<circle class="st17" cx="305" cy="131.8" r="7.5"/>
		<circle class="st17" cx="493.8" cy="131.8" r="7.5"/>
		<path class="st17" d="M405.8,88.5h-10v-16c0-2.8,2.2-5,5-5h0c2.8,0,5,2.2,5,5V88.5z"/>
	</g>
	<path class="st18" d="M401,166.8c-9.5,0-17.1,7.7-17.1,17.1s7.7,17.1,17.1,17.1s17.1-7.7,17.1-17.1S410.4,166.8,401,166.8z
		 M401,190c-3.3,0-6-2.7-6-6c0-3.3,2.7-6,6-6c3.3,0,6,2.7,6,6C407,187.3,404.3,190,401,190z"/>
	<path class="st0" d="M367.2,191.8c0,0-3.5-8.1,0.1-13c2.5-3.5,6.3-5.5,11.5-5.5s11,4.8,11,10.3c0,5.5-4.8,12.3-4.8,12.3h27.3v-7.3
		h-3l4-7.8h9v15c0,0,4.8,0,7,0s3-5.8,0-5.8s-6.1,0-6.1,0l2.4-16.8h14.5v9h-7.4l-0.1,1c1.8,0.3,9.1,3.2,9.1,9.8
		c0,7.3-4,11.5-7.7,11.5c-3.7,0-11.8,0-11.8,0v7.5H412v-7.5h-43.9c0,0,9.2-15.8,10.5-17.8c1.3-2-1-4.2-2.2-2.5
		c-1.2,1.7-0.1,2.5-0.1,2.5L367.2,191.8z"/>
	<g>
		<path class="st1" d="M240.8,277.8l1.8-2.9c1.8,0.7,3.6,1.6,5.5,2.7l-2,3.2c-0.8-0.5-2.3-1.4-4.3-2.4
			C241.3,278.1,241,277.9,240.8,277.8z M245.4,281.7c1.1,0.2,2.4,0.5,3.9,0.6c-0.2,1.1-0.4,2.7-0.6,4.7c-0.4,2.9-0.7,4.9-0.8,6
			c-1.4-0.2-2.7-0.4-3.9-0.5C244.8,288.7,245.3,285.1,245.4,281.7z M239.8,270.3l1.7-3c1.9,0.8,3.7,1.7,5.3,2.7l-1.9,3.3
			C243.6,272.3,241.8,271.3,239.8,270.3z M252.3,276.3l-3.6,0.7l-1.3-6.7l6.2-1.2c-0.3-1.4-0.5-2.6-0.8-3.8l3.7-0.7
			c0.1,0.4,0.2,1,0.4,1.8c0.1,0.9,0.2,1.6,0.3,2.1l8.2-1.6l1.3,6.7l-3.6,0.7l-0.7-3.4l-4.6,0.9c0.4,2.3,0.6,4.1,0.6,5.5l3.2-0.6
			l1.7,8.8c0.1,0.7,0.5,1,1.1,0.8l1-0.2c0.6-0.1,0.9-0.5,0.8-1.1c0-1.4-0.2-2.8-0.4-4.3c1.1,0.2,2.4,0.5,3.7,0.7
			c0.1,1.1,0.1,2.5,0.1,4.2c0,0.2,0,0.4,0,0.5c-0.1,1.7-1.1,2.7-3,3.1l-2.7,0.5c-2.3,0.5-3.7-0.5-4.2-2.8l-1.4-7.2
			c-0.2,4.3-2.2,8.7-5.8,13c-0.9-0.8-2-1.7-3.4-2.5c2-2,3.6-4.5,4.7-7.2c1-3,1.2-6.5,0.4-10.4l-2.6,0.5L252.3,276.3z"/>
		<path class="st1" d="M285.5,270.3c1.8,1.7,2.8,4.1,3.1,7.2c0.1,1.4-0.1,2.5-0.8,3.3c-0.7,0.9-2.1,1.5-4.3,1.7
			c-0.3-1.4-0.6-2.8-1-4c0.4,0,0.7,0,1,0c1.1-0.1,1.6-0.6,1.5-1.4c-0.2-2.4-1.2-4.4-3-6.1c0.5-2.5,0.9-5.1,1.2-7.7l-2.3,0.2
			l2.2,22.3l-3.6,0.3l-2.5-25.5l9.6-0.9l0.3,2.6c-0.1,0.5-0.2,1.5-0.4,2.7C286.3,265.8,286,267.6,285.5,270.3z M301.9,258.8l2.4,25
			l-3.7,0.4l-0.2-1.7l-6.9,0.7l0.2,1.7l-3.7,0.4l-2.4-25L301.9,258.8z M291.7,263.2l0.6,6.5l6.9-0.7l-0.6-6.5L291.7,263.2z
			 M292.7,273.2l0.6,6.6l6.9-0.7l-0.6-6.6L292.7,273.2z"/>
		<path class="st1" d="M331,270.4c0,2.4-0.8,3.7-2.4,4.1c-0.2,0-0.6,0-1,0.1c-0.7,0.1-1.3,0.2-1.7,0.2c0-0.6-0.2-1.2-0.3-1.7
			c-0.3,2.8-0.9,5.1-1.9,6.8c-0.6-0.6-1.4-1.3-2.6-2.1c-0.2-0.1-0.3-0.3-0.4-0.3c0.6-0.9,0.9-1.9,1.2-3.2c-1.1,0.4-2.8,1.1-5.1,2.1
			c-0.8,0.3-1.4,0.5-1.8,0.7l-1-3.9c0.9-0.3,1.7-0.6,2.5-0.9l-0.6-8.6l-2,0.1l-0.2-3.4l2-0.1l-0.4-6.5l3.4-0.2l0.4,6.5l2-0.1
			l0.2,3.4l-2,0.1l0.5,7.7c0.1-0.1,0.3-0.2,0.4-0.3c0.4-0.1,0.8-0.2,1.4-0.4c0,1,0,2.2,0.1,3.7c0.5-2.1,0.6-4.5,0.4-7.3l-0.6-9.2
			l9.1-0.6c0-0.5-0.1-1.2-0.1-2.2c-0.1-1-0.2-1.8-0.3-2.3l3.3-0.2c0.1,2.1,0.3,3.6,0.4,4.5l2.8-0.2c-0.8-1-1.7-2-2.6-2.9l2.3-1.7
			c1,1.1,1.9,2.1,2.9,3.2l-1.9,1.4l2.8-0.2l0.2,3.3l-6.1,0.4c0.3,2.7,0.6,5,0.8,7c0.7-1.7,1.3-3.4,1.8-5.3l3.4,1.4
			c-1.2,3.4-2.6,6.4-4.2,9.2c0.6,1.8,1.1,2.7,1.7,2.7c0.4,0,0.6-1.7,0.6-4.9c1.1,0.5,2.1,0.9,3.1,1.2c-0.2,2.3-0.4,4.1-0.7,5.4
			c-0.4,1.4-1.4,2.1-2.7,2.1c-1.8,0.1-3.2-0.9-4.1-3c-1.1,1.4-2.3,2.7-3.6,3.8c-0.5-0.6-1.2-1.3-2.1-2.3c-0.2-0.1-0.3-0.3-0.4-0.3
			c1.8-1.1,3.3-2.8,4.7-5.2c-0.6-2.7-1.2-6.6-1.7-11.5l-6.1,0.4l0.2,3l5.5-0.4C330.7,265.4,330.8,267.8,331,270.4z M325.5,271.7
			c0.5,0,0.8-0.1,1-0.1c0.8-0.1,1.2-0.5,1.2-1.3c-0.1-1.1-0.1-2.2-0.2-3.4l-2.1,0.1C325.5,268.6,325.6,270.1,325.5,271.7z"/>
		<path class="st1" d="M356.9,262.3l0.5,10.3l-3.8,0.2l-0.7-13.8l9.2-0.5l-0.2-3.2l-11,0.6l-0.2-3.6l10.7-0.6
			c-0.4-0.9-0.7-1.7-1.2-2.5l4.3-1.3c0.2,0.5,0.5,1.1,0.9,2c0.2,0.7,0.4,1.2,0.5,1.5l10.8-0.6l0.2,3.6l-11.1,0.6l0.2,3.2l9.8-0.5
			l0.5,9.7c0.1,2.5-1,3.9-3.4,4.2c-0.4,0-1,0-1.7,0.1c-1,0.1-1.8,0.2-2.4,0.2c-0.4-1.2-0.8-2.3-1.2-3.3c1.1,0,2.1,0,3,0
			c1.4-0.1,2-0.7,2-1.9l-0.3-5.3l-6.1,0.3l0.7,13.2l-3.9,0.2l-0.7-13.2L356.9,262.3z"/>
		<path class="st1" d="M391.1,260.4v-11h20.7v11h-7.9v3.7h9.4v3.3h-9.4v3.8c2.1,0,4.1,0,5.8,0c1.8,0,3.6,0,5.5-0.1
			c-0.5,1.4-0.9,2.5-1.2,3.5c-3.2,0-5.6,0-7.1,0c-1.8,0-3.5,0-4.8-0.1c-4,0-6.8-1.2-8.4-3.6c-0.9,1.6-2.1,3.1-3.6,4.5
			c-0.2-0.3-0.6-0.8-1.2-1.6c-0.4-0.8-0.7-1.3-1-1.6c2.5-2.2,4-5.7,4.4-10.4l3.7,0.6c-0.2,1.6-0.5,3.1-0.8,4.5
			c1.1,2.3,2.7,3.6,4.8,4v-10.5H391.1z M394.9,257.1h13.1v-4.3h-13.1V257.1z"/>
		<path class="st1" d="M425,273.8l-0.6-3.7c0.4-0.1,0.9-0.1,1.6-0.3c0.8-0.1,1.3-0.2,1.6-0.3l0.4-6.7l-2.6-0.1l0.2-3.4l2.6,0.1
			l0.3-5.5l-2.9-0.2l0.2-3.4l9.2,0.5l-0.2,3.4l-2.8-0.1l-0.3,5.5l2.4,0.1l-0.2,3.4l-2.4-0.1l-0.3,6c0.9-0.2,1.9-0.3,2.8-0.4
			c-0.1,1.3-0.1,2.5-0.2,3.7C430.8,272.7,427.9,273.2,425,273.8z M445.9,251.8l2.2-2c1.1,0.9,2.3,2,3.5,3.2l-1.6,1.4l2.1,0.1
			l-0.2,3.3l-6.8-0.4l-0.1,1.8c0.1,0.2,0.1,0.4,0.2,0.6c0.1,0.5,0.4,1.3,0.8,2.3c1.3-1.3,2.4-2.5,3.4-3.6l2.9,2.5
			c-1.5,1.4-3.1,2.8-4.8,4.2c1.3,2.1,2.7,4.1,4.3,5.8c-0.8,1.1-1.6,2.2-2.2,3.3c-1.9-2-3.5-4.5-4.9-7.4l-0.3,5.9
			c-0.1,2-1.2,3-3.2,3.1c-1.1,0-2.5,0-4.1-0.1c-0.1-1.6-0.4-2.8-0.6-3.5c0.2,0,0.6,0,1.1,0.1c0.6,0.1,1.1,0.2,1.4,0.2
			c1.2,0.1,1.9-0.5,1.9-1.7l0.1-2.8c-0.7,0.4-1.7,1-3.1,1.8c-1.1,0.7-2,1.2-2.6,1.6l-1.4-3.8c1.9-0.9,4.3-2.2,7.3-3.9l0.3-6.6
			l-6.4-0.3l0.2-3.3l6.4,0.3l0.2-4.5l3.6,0.2l-0.2,4.5l3.2,0.2C447.4,253.2,446.5,252.3,445.9,251.8z M434.5,259.7l3-1.6
			c0.9,1.3,1.8,2.9,2.8,5l-3.1,1.7C436.3,262.8,435.4,261.1,434.5,259.7z"/>
		<path class="st1" d="M467.7,253.4l3.4,1.4c-0.8,1.8-1.7,3.6-2.6,5.4l-2.2,20.1l-3.7-0.4l1.4-12.6c-0.1,0.1-0.2,0.4-0.4,0.6
			c-0.6,0.9-1.2,1.6-1.6,2.1c0-0.3-0.1-0.8-0.1-1.4c0-0.6-0.1-1.9-0.2-3.8C464,261.6,465.9,257.7,467.7,253.4z M478.8,278.5l2.1-2.4
			l-6.1-0.7l1.5,2.8c-0.6,0.2-1.6,0.5-2.8,1c-2.1,0.7-3.6,1.2-4.7,1.6c-0.4-1.2-0.9-2.3-1.5-3.3c2.4-0.5,4.8-1.2,7.1-2.1l-6.6-0.7
			l0.3-3.1l2.3,0.2l1.8-16.7l15.7,1.7l-1.8,16.7l2.3,0.2l-0.3,3.1l-6.9-0.7c2.2,1.3,4.3,2.5,6.4,3.6l-2.3,3
			C483.4,281.2,481.2,279.8,478.8,278.5z M483.9,260.9l0.2-1.5l-8.7-0.9l-0.2,1.5L483.9,260.9z M474.9,262.6l-0.2,1.5l8.7,0.9
			l0.2-1.5L474.9,262.6z M474.5,266.7l-0.2,1.5l8.7,0.9l0.2-1.5L474.5,266.7z M474.1,270.7l-0.2,1.5l8.7,0.9l0.2-1.5L474.1,270.7z"
			/>
		<path class="st1" d="M503.7,276l3.3,2.3c-2.4,2.9-4.9,5.4-7.5,7.4c-0.9-1.1-1.8-2-2.7-2.7C499.3,281,501.6,278.6,503.7,276z
			 M510.4,272.6l0.6-4.6l4.1,0.6l-0.6,4.6l9.6,1.3l-0.5,3.5l-9.6-1.3l-1,7.3c-0.4,2.7-1.9,4-4.6,3.8c-1.2-0.2-2.7-0.3-4.5-0.5
			c0-0.3-0.1-0.7-0.1-1.3c-0.1-0.8-0.2-1.7-0.3-2.7c1.1,0.3,2.3,0.5,3.4,0.7c1.2,0.2,1.9-0.3,2-1.4l0.9-6.5l-10.7-1.4l3.7-12.5
			c6.8,0.8,13.4,1.2,19.9,1.3l0.9,3.7c-5.5,0-11.3-0.4-17.5-1.2l-1.8,5.8L510.4,272.6z M515.7,279.7l3.2-1.5c1,1.5,2.6,4.2,4.8,8.3
			c-0.7,0.2-1.6,0.6-2.8,1.1c-0.5,0.2-0.9,0.4-1.1,0.5C518.3,284.6,517,281.8,515.7,279.7z"/>
		<path class="st1" d="M549.9,271l-0.4,3l-3.5-0.4l2.7,1.6c-0.6,0.8-1.4,1.7-2.3,2.6l3.2,0.4l-0.4,3l-15.2-1.9l0.4-3l3.2,0.4
			c-0.1-0.2-0.3-0.6-0.6-1.1c-0.4-0.7-0.7-1.3-0.9-1.7l2.8-1.2l-3.4-0.4l0.4-3l5.3,0.6c-0.1-0.9-0.3-1.8-0.6-2.5l4.2-0.2
			c0,0.5,0.1,1.2,0.3,2.1c0.1,0.5,0.2,0.8,0.2,1.1L549.9,271z M537,292.7l-3.3-0.4l1.3-10.7l12.7,1.6l-1.3,10.6l-3.4-0.4l0.2-1.5
			l-5.9-0.7L537,292.7z M541.4,276.1l-2,0.8l3,0.4c1.1-1.3,2-2.5,2.8-3.8l-5.8-0.7C540.3,274.1,541,275.2,541.4,276.1z M543.5,289.1
			l0.4-3.4L538,285l-0.4,3.4L543.5,289.1z M557.7,280.4c2,2.6,2.8,5.2,2.5,7.8c-0.3,2.7-1.7,4.1-4.2,4.1c-0.5,0-1.3,0-2.5-0.2
			c0.1-1.3,0-2.6-0.2-4c0.8,0.2,1.3,0.3,1.6,0.3c1.1,0.1,1.7-0.3,1.8-1.4c0.3-2.1-0.6-4.3-2.5-6.8c1.2-2.2,2.4-4.5,3.5-6.9l-2.9-0.4
			l-2.7,22l-3.5-0.4l3.1-25.2l10.2,1.3l-0.3,2.6c-0.4,0.8-1.3,2.5-2.7,5C558.3,279.2,558,279.9,557.7,280.4z"/>
	</g>
</g>
</svg>
