<?xml version="1.0" encoding="utf-8"?>
<!-- Generator: Adobe Illustrator 22.1.0, SVG Export Plug-In . SVG Version: 6.00 Build 0)  -->
<svg version="1.1" id="图层_1" xmlns="http://www.w3.org/2000/svg" xmlns:xlink="http://www.w3.org/1999/xlink" x="0px" y="0px"
	 viewBox="0 0 800 800" style="enable-background:new 0 0 800 800;" xml:space="preserve">
<style type="text/css">
	.st0{fill:#04599A;}
</style>
<g>
	<path class="st0" d="M367.2,543.2c-6.5-0.3-20.8-11.8-20.8-11.8s-1.3-0.3,0,1.8c4.9,7.7,13.5,10.8,17.5,11.5
		C368,545.5,369.2,543.2,367.2,543.2z"/>
	<path class="st0" d="M440.2,456.2c0,0-0.2,3,2,3c2.2,0,2.3-2.2,2.3-2.2s0-4.2,0-6c0-1.8-1.7-2.2-1.7-2.2c-1.9-0.5-2.6,2.7-2.6,2.7
		L440.2,456.2z"/>
	<path class="st0" d="M359.8,451.5c0,0-0.8-3.2-2.6-2.7c0,0-1.7,0.3-1.7,2.2c0,1.8,0,6,0,6s0.2,2.2,2.3,2.2c2.2,0,2-3,2-3
		L359.8,451.5z"/>
	<path class="st0" d="M436,544.7c4-0.8,12.6-3.8,17.5-11.5c1.3-2,0-1.8,0-1.8s-14.3,11.5-20.8,11.8C430.8,543.2,432,545.5,436,544.7
		z"/>
	<path class="st0" d="M640.8,196.7c-0.4,0-0.9,0-1.3,0c-8.9,0-14.6,6.4-14.6,6.4c-19.3-2-30-6.8-30-6.8l6.5-5.5c0,0,21-4.8,19.3-25
		c-1.8-20.3-14.5-26-26.8-27c-0.5,0-1.1-0.1-1.6-0.1c-11.3,0-18.4,10.1-18.4,10.1c-26.5,0-50.8-17.8-50.8-17.8
		c0.3-5.3-2.3-20.8-19-27c-2.8-1.1-5.6-1.5-8.2-1.5c-12.6,0-21.4,10.5-21.4,10.5c-26-8.3-47.8-33-47.8-33c0-28.6-21.7-30-26-30
		c-0.5,0-0.7,0-0.7,0s-0.3,0-0.7,0c-4.3,0-26,1.4-26,30c0,0-21.8,24.8-47.8,33c0,0-8.8-10.5-21.4-10.5c-2.6,0-5.3,0.4-8.2,1.5
		c-16.8,6.3-19.3,21.8-19,27c0,0-24.3,17.8-50.8,17.8c0,0-7.1-10.1-18.4-10.1c-0.5,0-1,0-1.6,0.1c-12.3,1-25,6.8-26.8,27
		c-1.8,20.3,19.3,25,19.3,25l6.5,5.5c0,0-10.8,4.8-30,6.8c0,0-5.7-6.4-14.6-6.4c-0.4,0-0.9,0-1.3,0c-9.7,0.7-26.9,7-26.9,27
		s18.2,24,18.2,24s50.4,67.4,32.3,152.4s-25,133.1,9,202.1c33.6,68.3,124.5,127.2,205.4,147.4c0.9,0.2,1.8,0.3,2.7,0.3
		s1.8-0.1,2.7-0.3c80.9-20.2,171.7-79.1,205.4-147.4c34-69,27-117.1,9-202.1s32.3-152.4,32.3-152.4s18.2-4,18.2-24
		S650.4,197.4,640.8,196.7z M651.7,233.4c-2.1,1.8-4.4,2.5-4.9,2.7l-4.1,0.7l-2.8,3.8c-0.6,0.7-13.7,18.5-24.5,47.3
		c-6.3,16.9-10.6,34.1-12.6,51.2c-2.6,21.5-1.7,42.9,2.7,63.6c8.2,38.8,15,73.4,14.7,104.5c-0.2,30.7-7.3,58.4-22.8,89.8
		c-7.6,15.5-18.7,31-32.9,46.1c-13.6,14.5-29.8,28.3-48.2,41.1c-35.7,24.9-77,44-116.3,53.8c-39.2-9.8-80.5-28.9-116.3-53.8
		c-18.3-12.8-34.5-26.6-48.2-41.1c-14.2-15.1-25.3-30.6-32.9-46.1c-15.5-31.5-22.5-59.2-22.8-89.8c-0.2-31,6.5-65.7,14.7-104.5
		c4.4-20.7,5.3-42.1,2.7-63.6c-2.1-17.1-6.3-34.4-12.6-51.2c-10.8-28.7-24-46.5-24.5-47.3l-2.4-3.7l-4.5-0.8
		c-0.5-0.1-2.8-0.9-4.9-2.7c-2.7-2.3-3.9-5.3-3.9-9.6c0-5,1.6-8.6,5-11.2c3.3-2.5,7.7-3.6,10.6-3.8c0.2,0,0.3,0,0.5,0
		c2.9,0,5.3,2,5.8,2.5l3.7,4.5l6.5-0.7c20.5-2.1,32.3-7.1,33.6-7.7l17.5-7.8l-14.6-12.4l-6.5-5.5l-2.1-1.9l-3-0.6
		c-0.5-0.1-3.6-1-6.3-3.2c-3-2.4-4.1-5.1-3.7-9.1c0.9-10.7,5.4-15.2,15.8-16.1c0.2,0,0.4,0,0.6,0c4.5,0,8.2,4.5,8.7,5l3.3,5h6.4
		c30.1,0,56.7-19.3,57.9-20.1l5.2-3.8l-0.3-6.4c0-0.1-0.2-10.9,11.2-15.2c1.3-0.5,2.6-0.7,4-0.7c5.5,0,10.6,4.5,12.2,6.2l5,6.2
		l7.8-2.5c28.9-9.2,52.2-35.4,53.2-36.5l3-3.4V80c0-7.8,2-13.1,6-15.7c3.3-2.2,7.2-2.3,8-2.3l0.4,0.1l1.1-0.1l0,0
		c0.8,0,4.7,0.1,8,2.3c4,2.6,6,7.9,6,15.7v4.5l3,3.4c1,1.1,24.3,27.4,53.2,36.5l7.7,2.7l5.1-6.4c1.6-1.8,6.7-6.2,12.2-6.2
		c1.3,0,2.6,0.2,4,0.7c11.4,4.3,11.2,15.1,11.2,15.2l-0.3,6.4l5.2,3.8c1.1,0.8,27.8,20.1,57.9,20.1h6.2l3.6-5.1c0,0,4-5,8.6-5
		c0.2,0,0.4,0,0.6,0c10.4,0.9,14.9,5.4,15.8,16.1c0.3,4-0.8,6.7-3.7,9.1c-2.7,2.1-5.8,3-6.3,3.2l-2.7,0.5l-2.4,2l-6.5,5.5
		l-14.6,12.4l17.5,7.8c1.3,0.6,13.1,5.6,33.6,7.7l6.1,1.1l4-4.9c0.5-0.5,2.8-2.5,5.8-2.5c0.2,0,0.3,0,0.5,0c3,0.2,7.3,1.3,10.6,3.8
		c3.4,2.6,5,6.2,5,11.2C655.6,228,654.4,231.1,651.7,233.4z"/>
	<path class="st0" d="M432.6,183.3l0.1-1h7.4v-9h-14.5l-2.4,16.8c0,0,3.1,0,6.1,0s2.3,5.8,0,5.8c-2.3,0-7,0-7,0v-15h-9l-4,7.8h3v7.3
		H385c0,0,4.8-6.8,4.8-12.3s-5.8-10.3-11-10.3c-5.3,0-9,2-11.5,5.5c-3.6,4.9-0.1,13-0.1,13l9.3-5.1c0,0-1.1-0.8,0.1-2.5
		c1.2-1.7,3.5,0.5,2.2,2.5s-10.5,17.8-10.5,17.8H412v7.5h10.2v-7.5c0,0,8.2,0,11.8,0c3.7,0,7.7-4.2,7.7-11.5
		C441.7,186.6,434.5,183.6,432.6,183.3z"/>
	
		<rect x="478.5" y="259.4" transform="matrix(0.1084 -0.9941 0.9941 0.1084 165.0149 711.5631)" class="st0" width="1.5" height="8.7"/>
	<path class="st0" d="M325.5,271.7c0.5,0,0.8-0.1,1-0.1c0.8-0.1,1.2-0.5,1.2-1.3c-0.1-1.1-0.1-2.2-0.2-3.4l-2.1,0.1
		C325.5,268.6,325.6,270.1,325.5,271.7z"/>
	
		<rect x="293" y="272.8" transform="matrix(0.9954 -9.621372e-02 9.621372e-02 0.9954 -25.1974 29.8026)" class="st0" width="6.9" height="6.7"/>
	<rect x="394.9" y="252.8" class="st0" width="13.1" height="4.3"/>
	
		<rect x="292" y="262.9" transform="matrix(0.9954 -9.620695e-02 9.620695e-02 0.9954 -24.236 29.6607)" class="st0" width="6.9" height="6.6"/>
	
		<rect x="477.6" y="267.5" transform="matrix(0.1084 -0.9941 0.9941 0.1084 156.1509 717.9235)" class="st0" width="1.5" height="8.7"/>
	
		<rect x="478" y="263.5" transform="matrix(0.1084 -0.9941 0.9941 0.1084 160.5202 714.7878)" class="st0" width="1.5" height="8.7"/>
	
		<rect x="478.9" y="255.3" transform="matrix(0.1084 -0.9941 0.9941 0.1084 169.509 708.3379)" class="st0" width="1.5" height="8.7"/>
	<path class="st0" d="M539.4,276.9l3,0.4c1.1-1.3,2-2.5,2.8-3.8l-5.8-0.7c0.9,1.4,1.6,2.5,2,3.4L539.4,276.9z"/>
	<rect x="539" y="284.1" transform="matrix(0.1227 -0.9924 0.9924 0.1227 189.4989 788.4667)" class="st0" width="3.5" height="6"/>
	<path class="st0" d="M640.1,216.1c-4,0-7.3,3.2-7.5,7.2c0,0,0,0,0,0c-47.9-3.5-68.3-16.7-71.7-19.1c0,0,0,0,0,0
		c-0.1-0.1-0.2-0.2-0.3-0.2c0,0,0,0,0,0c-0.1,0-0.1-0.1-0.1-0.1c0,0-0.1,0-0.1,0c0.7-0.8,1.4-1.5,2.1-2.3c0.2-0.2,0.4-0.5,0.6-0.7
		c0.5-0.5,1-1,1.4-1.6c0.2-0.2,0.4-0.5,0.7-0.7c0.5-0.5,0.9-1,1.4-1.5c0.2-0.2,0.4-0.4,0.6-0.6c1.3-1.4,2.5-2.8,3.6-4.1
		c0.2-0.2,0.4-0.4,0.5-0.6c0.4-0.5,0.8-0.9,1.2-1.4c0.2-0.2,0.4-0.4,0.6-0.7c0.4-0.5,0.8-0.9,1.1-1.3c0.2-0.2,0.3-0.4,0.5-0.5
		c1-1.2,2-2.4,3-3.5c0.1-0.2,0.3-0.3,0.4-0.5c0.3-0.4,0.6-0.8,1-1.2c0.1-0.2,0.3-0.4,0.4-0.5c0.3-0.4,0.6-0.8,0.9-1.1
		c0.1-0.1,0.2-0.3,0.4-0.4c0.8-1,1.6-2,2.3-2.9c0.1-0.1,0.2-0.3,0.3-0.4c0.3-0.3,0.5-0.6,0.7-0.9c0.1-0.1,0.2-0.3,0.3-0.4
		c0.2-0.3,0.5-0.6,0.7-0.9c0.1-0.1,0.2-0.2,0.3-0.3c0.3-0.4,0.6-0.8,0.8-1.1c0,0,0,0,0,0c1.3,1.1,3,1.8,4.9,1.8
		c4.1,0,7.5-3.4,7.5-7.5c0-4.1-3.4-7.5-7.5-7.5s-7.5,3.4-7.5,7.5c0,0,0,0.1,0,0.1c-0.8,0-1.6,0-2.3,0c-1.5,0-2.9,0-4.3-0.1
		c-0.4,0-0.7,0-1.1,0c-1.4,0-2.7-0.1-4.1-0.2c0,0-0.1,0-0.1,0c-1.4-0.1-2.7-0.2-4-0.3c-0.3,0-0.7,0-1-0.1c-1.2-0.1-2.5-0.2-3.7-0.3
		c-0.1,0-0.1,0-0.2,0c-1.3-0.1-2.5-0.3-3.7-0.4c-0.3,0-0.6-0.1-0.9-0.1c-1.1-0.2-2.2-0.3-3.3-0.5c-0.1,0-0.2,0-0.2,0
		c-1.2-0.2-2.3-0.4-3.4-0.6c-0.3-0.1-0.6-0.1-0.9-0.2c-1-0.2-2-0.4-3-0.6c-0.1,0-0.2,0-0.3-0.1c-1.1-0.2-2.1-0.5-3.1-0.7
		c-0.3-0.1-0.5-0.1-0.8-0.2c-0.9-0.2-1.8-0.5-2.7-0.7c-0.1,0-0.2-0.1-0.3-0.1c-1-0.3-1.9-0.5-2.8-0.8c-0.2-0.1-0.5-0.2-0.7-0.2
		c-0.8-0.3-1.6-0.5-2.4-0.8c-0.1,0-0.2-0.1-0.4-0.1c-0.9-0.3-1.7-0.6-2.5-0.9c-0.2-0.1-0.4-0.2-0.7-0.3c-0.7-0.3-1.4-0.6-2.1-0.9
		c-0.1,0-0.2-0.1-0.4-0.1c-0.8-0.3-1.5-0.7-2.3-1c-0.2-0.1-0.4-0.2-0.6-0.3c-0.6-0.3-1.3-0.6-1.9-0.9c-0.1-0.1-0.2-0.1-0.3-0.2
		c-0.7-0.4-1.4-0.7-2.1-1.1c-0.2-0.1-0.4-0.2-0.5-0.3c-0.6-0.3-1.1-0.6-1.7-0.9c-0.1-0.1-0.2-0.1-0.3-0.2c-0.6-0.4-1.2-0.7-1.8-1.1
		c-0.2-0.1-0.3-0.2-0.5-0.3c-0.5-0.3-1-0.6-1.5-1c-0.1-0.1-0.2-0.1-0.3-0.2c-0.6-0.4-1.1-0.8-1.6-1.1c-0.1-0.1-0.3-0.2-0.4-0.3
		c-0.5-0.3-0.9-0.7-1.3-1c-0.1-0.1-0.2-0.1-0.2-0.2c-0.5-0.4-1-0.8-1.4-1.1c-0.1-0.1-0.2-0.2-0.3-0.3c-0.4-0.3-0.8-0.7-1.2-1
		c-0.1-0.1-0.1-0.1-0.2-0.2c-0.4-0.4-0.9-0.8-1.3-1.1c-0.1-0.1-0.2-0.1-0.2-0.2c-0.4-0.3-0.7-0.7-1.1-1c0,0-0.1-0.1-0.1-0.1
		c-0.4-0.4-0.7-0.7-1.1-1.1c-0.1-0.1-0.1-0.1-0.2-0.2c-0.3-0.3-0.6-0.7-0.9-1c0,0-0.1-0.1-0.1-0.1c-0.3-0.4-0.6-0.7-0.9-1.1
		c0,0-0.1-0.1-0.1-0.1c-0.3-0.3-0.6-0.7-0.8-1c0,0,0,0,0-0.1c-0.3-0.3-0.6-0.7-0.8-1c0,0,0,0,0-0.1c-0.3-0.3-0.5-0.6-0.7-1
		c0,0,0,0,0,0c1.3-1.3,2.1-3.2,2.1-5.2c0-4.1-3.4-7.5-7.5-7.5s-7.5,3.4-7.5,7.5c0,0.3,0,0.7,0.1,1c-1.3,0.2-2.6,0.3-3.9,0.4
		c-0.1,0-0.2,0-0.3,0c-0.6,0-1.1,0.1-1.7,0.1c-0.7,0-1.3,0-2,0c0,0,0,0,0,0c-1,0-2,0-3-0.1c-0.3,0-0.5,0-0.8,0
		c-0.9-0.1-1.9-0.1-2.8-0.2c-0.1,0-0.1,0-0.2,0c-1-0.1-1.9-0.2-2.9-0.4c-0.2,0-0.5-0.1-0.7-0.1c-0.9-0.1-1.7-0.3-2.5-0.5
		c-0.1,0-0.2,0-0.3-0.1c-0.9-0.2-1.8-0.4-2.7-0.6c-0.2-0.1-0.5-0.1-0.7-0.2c-0.8-0.2-1.6-0.4-2.3-0.7c-0.1,0-0.3-0.1-0.4-0.1
		c-0.9-0.3-1.7-0.6-2.6-0.9c-0.2-0.1-0.5-0.2-0.7-0.2c-0.7-0.3-1.5-0.5-2.2-0.8c-0.2-0.1-0.3-0.1-0.5-0.2c-0.8-0.3-1.7-0.7-2.5-1.1
		c-0.2-0.1-0.4-0.2-0.7-0.3c-0.7-0.3-1.3-0.6-2-1c-0.2-0.1-0.3-0.2-0.5-0.3c-0.8-0.4-1.6-0.8-2.3-1.2c-0.2-0.1-0.4-0.2-0.6-0.3
		c-0.6-0.4-1.3-0.7-1.9-1.1c-0.2-0.1-0.4-0.2-0.5-0.3c-0.7-0.4-1.5-0.9-2.2-1.4c-0.2-0.1-0.4-0.2-0.6-0.4c-0.6-0.4-1.2-0.8-1.8-1.2
		c-0.2-0.1-0.4-0.2-0.5-0.4c-0.7-0.5-1.4-1-2.1-1.5c-0.2-0.1-0.3-0.3-0.5-0.4c-0.6-0.4-1.1-0.8-1.7-1.3c-0.2-0.1-0.3-0.3-0.5-0.4
		c-0.7-0.5-1.3-1-2-1.6c-0.1-0.1-0.3-0.2-0.4-0.4c-0.5-0.4-1.1-0.9-1.6-1.3c-0.2-0.1-0.3-0.3-0.5-0.4c-0.6-0.5-1.2-1.1-1.8-1.6
		c-0.1-0.1-0.2-0.2-0.4-0.3c-0.5-0.5-1-0.9-1.5-1.4c-0.2-0.1-0.3-0.3-0.5-0.4c-0.6-0.6-1.2-1.1-1.7-1.7c-0.1-0.1-0.2-0.2-0.3-0.3
		c-0.5-0.5-1-1-1.5-1.5c-0.1-0.1-0.3-0.3-0.4-0.4c-0.5-0.6-1.1-1.1-1.6-1.7c0-0.1-0.1-0.1-0.1-0.2c-0.5-0.5-1-1.1-1.4-1.6
		c-0.1-0.1-0.2-0.2-0.3-0.4c-1-1.2-2-2.3-2.9-3.4c-0.1-0.1-0.2-0.2-0.3-0.3c-0.9-1.1-1.8-2.3-2.7-3.4c-0.1-0.1-0.1-0.1-0.2-0.2
		c-0.9-1.1-1.7-2.2-2.4-3.2c0,0-0.1-0.1-0.1-0.1c-0.8-1.1-1.5-2.1-2.2-3.1V72.5c0-2.8-2.2-5-5-5h0c-2.8,0-5,2.2-5,5v12.2
		c-0.3,0.5-0.6,0.9-1,1.4c0,0,0,0,0,0c-0.3,0.5-0.7,1-1,1.5c0,0-0.1,0.1-0.1,0.1c-0.4,0.5-0.7,1-1.1,1.6c0,0,0,0,0,0
		c-0.4,0.5-0.8,1.1-1.2,1.6c-0.1,0.1-0.1,0.2-0.2,0.3c-0.8,1.1-1.6,2.2-2.5,3.3c-0.1,0.1-0.2,0.2-0.3,0.3c-0.4,0.6-0.9,1.1-1.4,1.7
		c0,0.1-0.1,0.1-0.1,0.2c-0.4,0.5-0.9,1.1-1.3,1.6c-0.1,0.1-0.2,0.2-0.3,0.4c-0.5,0.6-1,1.2-1.5,1.7c-0.1,0.1-0.2,0.2-0.3,0.3
		c-0.5,0.5-0.9,1-1.4,1.6c-0.1,0.1-0.2,0.2-0.3,0.3c-0.5,0.6-1.1,1.2-1.6,1.8c-0.1,0.1-0.3,0.3-0.4,0.4c-0.5,0.5-1,1.1-1.6,1.6
		c-0.1,0.1-0.2,0.2-0.3,0.3c-0.6,0.6-1.2,1.2-1.8,1.7c-0.2,0.1-0.3,0.3-0.5,0.4c-0.6,0.6-1.2,1.2-1.8,1.7c0,0-0.1,0.1-0.1,0.1
		c-0.6,0.6-1.3,1.1-1.9,1.7c-0.2,0.1-0.3,0.3-0.5,0.4c-0.7,0.6-1.3,1.1-2,1.7c-0.1,0.1-0.2,0.2-0.3,0.3c-0.6,0.5-1.2,1-1.9,1.5
		c-0.2,0.1-0.3,0.3-0.5,0.4c-0.7,0.5-1.4,1.1-2.1,1.6c-0.2,0.1-0.3,0.2-0.5,0.3c-0.6,0.5-1.3,0.9-1.9,1.3c-0.2,0.1-0.3,0.2-0.5,0.3
		c-0.7,0.5-1.5,1-2.3,1.5c-0.2,0.1-0.4,0.2-0.6,0.3c-0.7,0.4-1.4,0.9-2.1,1.3c-0.1,0.1-0.2,0.1-0.4,0.2c-0.8,0.5-1.6,0.9-2.4,1.3
		c-0.2,0.1-0.4,0.2-0.6,0.3c-0.8,0.4-1.7,0.8-2.5,1.2c0,0-0.1,0-0.1,0c-0.8,0.4-1.7,0.8-2.6,1.2c-0.2,0.1-0.4,0.2-0.6,0.3
		c-0.9,0.4-1.8,0.7-2.6,1.1c-0.1,0-0.2,0.1-0.4,0.1c-0.8,0.3-1.6,0.6-2.5,0.8c-0.2,0.1-0.4,0.1-0.6,0.2c-0.9,0.3-1.8,0.6-2.8,0.8
		c-0.2,0-0.4,0.1-0.5,0.1c-0.8,0.2-1.7,0.4-2.5,0.6c-0.2,0-0.4,0.1-0.6,0.1c-1,0.2-1.9,0.4-2.9,0.5c-0.2,0-0.4,0.1-0.7,0.1
		c-0.9,0.1-1.8,0.3-2.7,0.4c-0.1,0-0.3,0-0.4,0c-1,0.1-2,0.2-3,0.2c-0.2,0-0.5,0-0.7,0c-1,0.1-2.1,0.1-3.2,0.1c0,0,0,0,0,0
		c0,0,0,0,0,0c-0.7,0-1.4,0-2.2,0c-0.1,0-0.2,0-0.3,0c-0.7,0-1.3-0.1-2-0.1c0,0-0.1,0-0.1,0c-1.5-0.1-3-0.3-4.5-0.5c0,0,0,0,0,0
		c0-0.3,0.1-0.6,0.1-0.9c0-4.1-3.4-7.5-7.5-7.5s-7.5,3.4-7.5,7.5c0,2.4,1.1,4.5,2.8,5.8c-0.2,0.3-0.5,0.7-0.8,1c0,0,0,0,0,0
		c-0.3,0.3-0.6,0.7-0.9,1.1c0,0,0,0,0,0c-0.3,0.3-0.6,0.7-0.9,1c0,0-0.1,0.1-0.1,0.1c-0.6,0.7-1.3,1.4-2.1,2.2
		c-0.1,0.1-0.1,0.1-0.2,0.2c-0.7,0.7-1.5,1.5-2.4,2.2c-0.1,0.1-0.2,0.2-0.3,0.2c-0.4,0.4-0.8,0.7-1.3,1.1c0,0,0,0,0,0
		c-0.4,0.4-0.9,0.8-1.4,1.1c-0.1,0.1-0.2,0.2-0.3,0.3c-0.4,0.3-0.9,0.7-1.3,1c-0.1,0.1-0.1,0.1-0.2,0.2c-0.5,0.4-1,0.7-1.6,1.1
		c-0.1,0.1-0.3,0.2-0.4,0.3c-0.5,0.3-0.9,0.6-1.4,0.9c-0.1,0.1-0.2,0.2-0.4,0.2c-0.6,0.4-1.2,0.7-1.7,1.1c-0.1,0.1-0.3,0.2-0.4,0.2
		c-0.5,0.3-1,0.6-1.5,0.9c-0.2,0.1-0.3,0.2-0.5,0.3c-0.6,0.4-1.3,0.7-2,1.1c-0.1,0.1-0.3,0.1-0.4,0.2c-0.6,0.3-1.1,0.6-1.7,0.9
		c-0.2,0.1-0.4,0.2-0.6,0.3c-0.7,0.3-1.4,0.7-2.2,1c-0.1,0-0.2,0.1-0.3,0.1c-0.7,0.3-1.3,0.6-2,0.9c-0.2,0.1-0.4,0.2-0.7,0.3
		c-0.8,0.3-1.6,0.6-2.4,0.9c0,0-0.1,0-0.1,0c-0.8,0.3-1.6,0.6-2.5,0.9c-0.2,0.1-0.5,0.2-0.7,0.2c-0.8,0.3-1.6,0.5-2.4,0.8
		c-0.1,0-0.2,0.1-0.3,0.1c-0.9,0.3-1.8,0.5-2.8,0.8c-0.3,0.1-0.5,0.1-0.8,0.2c-0.8,0.2-1.6,0.4-2.5,0.6c-0.2,0-0.4,0.1-0.6,0.1
		c-1,0.2-2,0.5-3,0.7c-0.3,0.1-0.5,0.1-0.8,0.2c-0.9,0.2-1.7,0.4-2.6,0.5c-0.2,0-0.5,0.1-0.7,0.1c-1.1,0.2-2.2,0.4-3.3,0.6
		c-0.3,0-0.5,0.1-0.8,0.1c-0.9,0.1-1.9,0.3-2.9,0.4c-0.3,0-0.6,0.1-0.9,0.1c-1.2,0.1-2.4,0.3-3.6,0.4c-0.2,0-0.4,0-0.7,0.1
		c-1,0.1-2.1,0.2-3.2,0.3c-0.3,0-0.7,0.1-1,0.1c-1.3,0.1-2.6,0.2-3.9,0.2c-0.1,0-0.3,0-0.4,0c-1.2,0.1-2.4,0.1-3.7,0.1
		c-0.4,0-0.7,0-1.1,0c-1.4,0-2.8,0.1-4.2,0.1c-0.4,0-0.9,0-1.3,0c0,0,0-0.1,0-0.1c0-4.1-3.4-7.5-7.5-7.5c-4.1,0-7.5,3.4-7.5,7.5
		c0,4.1,3.4,7.5,7.5,7.5c1.6,0,3-0.5,4.3-1.3c0,0,0,0,0,0c0.9,1.2,1.9,2.5,3.1,3.9c0,0,0,0,0,0c0.3,0.4,0.7,0.9,1.1,1.3
		c0.1,0.1,0.2,0.2,0.3,0.3c0.3,0.4,0.6,0.8,0.9,1.2c0.1,0.1,0.2,0.3,0.3,0.4c0.3,0.4,0.7,0.8,1,1.3c0.1,0.1,0.2,0.2,0.3,0.3
		c0.5,0.5,0.9,1.1,1.4,1.7c0,0,0,0,0,0.1c0.4,0.5,0.9,1.1,1.4,1.6c0.2,0.2,0.3,0.4,0.5,0.6c0.3,0.4,0.7,0.8,1,1.2
		c0.2,0.2,0.4,0.4,0.6,0.7c0.3,0.4,0.7,0.8,1.1,1.2c0.2,0.2,0.4,0.4,0.6,0.7c0.4,0.5,0.8,1,1.3,1.4c0.1,0.2,0.3,0.3,0.4,0.5
		c0.6,0.6,1.1,1.3,1.7,2c0.2,0.2,0.3,0.4,0.5,0.6c0.4,0.5,0.9,1,1.3,1.5c0.2,0.2,0.4,0.5,0.7,0.8c0.4,0.5,0.8,0.9,1.2,1.4
		c0.2,0.3,0.5,0.5,0.7,0.8c0.4,0.5,0.9,1,1.3,1.5c0.2,0.2,0.4,0.5,0.7,0.7c0.7,0.7,1.3,1.4,2,2.2c0,0,0,0,0,0.1
		c0,0-19.4,15.8-72.7,19.5c-0.2-4-3.4-7.2-7.5-7.2c-4.1,0-7.5,3.4-7.5,7.5c0,4.1,3.4,7.5,7.5,7.5c1.6,0,3.1-0.5,4.3-1.3c0,0,0,0,0,0
		c0.4,0.5,0.7,1,1.1,1.5c0.1,0.1,0.1,0.2,0.2,0.3c0.4,0.5,0.8,1.1,1.2,1.6c0.1,0.1,0.1,0.2,0.2,0.3c0.4,0.6,0.8,1.1,1.3,1.7
		c0,0,0,0.1,0.1,0.1c0.5,0.6,0.9,1.3,1.4,1.9c0.1,0.1,0.2,0.3,0.3,0.4c0.5,0.7,1,1.3,1.5,2c0.1,0.1,0.1,0.2,0.2,0.3
		c0.5,0.7,0.9,1.3,1.4,2c0.1,0.1,0.2,0.2,0.2,0.3c0.5,0.7,1,1.5,1.6,2.3c0.1,0.2,0.2,0.3,0.3,0.5c0.5,0.8,1.1,1.6,1.6,2.4
		c0,0,0.1,0.1,0.1,0.1c0.5,0.8,1.1,1.6,1.6,2.4c0.1,0.2,0.2,0.4,0.3,0.5c0.5,0.8,1.1,1.7,1.6,2.6c0.1,0.2,0.2,0.3,0.3,0.5
		c0.5,0.8,1.1,1.7,1.6,2.6c0.1,0.1,0.1,0.2,0.2,0.3c0.6,0.9,1.1,1.9,1.7,2.8c0.1,0.2,0.3,0.4,0.4,0.6c0.6,0.9,1.1,1.9,1.7,2.9
		c0.1,0.1,0.2,0.3,0.3,0.4c0.5,0.9,1,1.8,1.5,2.7c0.1,0.2,0.2,0.4,0.3,0.5c0.6,1,1.1,2,1.7,3c0.1,0.2,0.2,0.4,0.4,0.7
		c0.6,1,1.1,2.1,1.7,3.2c0,0,0,0.1,0.1,0.1c0.5,1,1.1,2.1,1.6,3.1c0.1,0.2,0.2,0.5,0.3,0.7c0.5,1.1,1,2.1,1.6,3.2
		c0.1,0.2,0.2,0.4,0.3,0.6c0.5,1,1,2,1.4,3.1c0.1,0.1,0.1,0.3,0.2,0.4c0.5,1.1,1,2.2,1.5,3.3c0.1,0.2,0.2,0.5,0.3,0.7
		c0.5,1.1,0.9,2.2,1.4,3.4c0.1,0.2,0.1,0.3,0.2,0.5c0.4,1,0.8,2.1,1.2,3.2c0.1,0.2,0.2,0.4,0.2,0.6c0.4,1.1,0.8,2.3,1.2,3.4
		c0.1,0.2,0.2,0.5,0.3,0.7c0.4,1.2,0.8,2.4,1.1,3.5c0,0,0,0.1,0,0.1c0.4,1.2,0.7,2.3,1,3.5c0.1,0.2,0.1,0.5,0.2,0.7
		c0.3,1.2,0.6,2.3,0.9,3.5c0.1,0.2,0.1,0.4,0.2,0.6c0.3,1.1,0.5,2.2,0.7,3.3c0,0.1,0.1,0.3,0.1,0.4c0.2,1.2,0.5,2.3,0.7,3.5
		c0,0.3,0.1,0.5,0.1,0.8c0.2,1.2,0.4,2.3,0.5,3.5c0,0.1,0,0.3,0.1,0.4c0.1,1.1,0.2,2.2,0.3,3.3c0,0.2,0,0.4,0.1,0.6
		c0.1,1.1,0.2,2.3,0.2,3.4c0,0.2,0,0.5,0,0.7c0,1.2,0.1,2.4,0,3.5c0,0,0,0,0,0c-0.7,51.3-11.3,113.4-15.3,136.7
		c-4,23.3-18,110,88.7,194.8c14.3,10.9,27.9,19.9,40.8,27.1c0,0,0,0,0,0c6.6,3.7,13,6.9,19.2,9.7c0.1,0.1,0.2,0.1,0.4,0.2
		c0.9,0.4,1.9,0.8,2.8,1.2c0.1,0.1,0.2,0.1,0.4,0.2c3.9,1.7,7.7,3.1,11.4,4.5c0.2,0.1,0.4,0.2,0.6,0.2c0.8,0.3,1.5,0.5,2.3,0.8
		c0.3,0.1,0.6,0.2,0.9,0.3c0.7,0.2,1.4,0.5,2.1,0.7c0.3,0.1,0.6,0.2,1,0.3c0.7,0.2,1.4,0.4,2.1,0.6c0.3,0.1,0.5,0.1,0.7,0.2
		c1.4,0.4,2.7,0.8,4.1,1.1c0.3,0.1,0.6,0.2,0.9,0.2c0.6,0.1,1.1,0.3,1.7,0.4c0.4,0.1,0.9,0.2,1.3,0.3c0.5,0.1,1,0.2,1.6,0.3
		c0.5,0.1,0.9,0.2,1.4,0.3c0.5,0.1,1,0.2,1.5,0.3c0.5,0.1,1,0.2,1.5,0.3c0.4,0.1,0.9,0.2,1.3,0.2c0.7,0.1,1.3,0.2,2,0.3
		c0.4,0.1,0.8,0.1,1.2,0.2c0.8,0.1,1.5,0.2,2.3,0.3c0.3,0,0.7,0.1,1,0.1c0.6,0.1,1.1,0.1,1.7,0.2c0.4,0,0.7,0.1,1.1,0.1
		c0.6,0,1.1,0.1,1.7,0.1c0.3,0,0.7,0,1,0.1c0.6,0,1.2,0.1,1.7,0.1c0.3,0,0.6,0,0.9,0c0.8,0,1.7,0,2.5,0c0,0,0,0,0,0s0,0,0,0
		c0.8,0,1.7,0,2.5,0c0.3,0,0.6,0,0.9,0c0.6,0,1.2,0,1.7-0.1c0.3,0,0.7,0,1-0.1c0.5,0,1.1-0.1,1.7-0.1c0.4,0,0.7-0.1,1.1-0.1
		c0.6-0.1,1.1-0.1,1.7-0.2c0.3,0,0.7-0.1,1-0.1c0.8-0.1,1.5-0.2,2.3-0.3c0.4-0.1,0.8-0.1,1.2-0.2c0.7-0.1,1.3-0.2,2-0.3
		c0.4-0.1,0.9-0.2,1.3-0.2c0.5-0.1,1-0.2,1.5-0.3c0.5-0.1,1-0.2,1.5-0.3c0.5-0.1,0.9-0.2,1.4-0.3c0.5-0.1,1-0.2,1.6-0.3
		c0.4-0.1,0.9-0.2,1.3-0.3c0.6-0.1,1.1-0.3,1.7-0.4c0.3-0.1,0.6-0.2,0.9-0.2c1.3-0.3,2.7-0.7,4.1-1.1c0.2-0.1,0.5-0.1,0.7-0.2
		c0.7-0.2,1.4-0.4,2.1-0.6c0.3-0.1,0.6-0.2,1-0.3c0.7-0.2,1.4-0.5,2.1-0.7c0.3-0.1,0.6-0.2,0.9-0.3c0.8-0.3,1.5-0.5,2.3-0.8
		c0.2-0.1,0.4-0.1,0.6-0.2c3.7-1.3,7.5-2.8,11.4-4.5c0.1,0,0.2-0.1,0.3-0.1c0.9-0.4,1.9-0.8,2.8-1.2c0.1-0.1,0.2-0.1,0.4-0.2
		c6.2-2.8,12.6-6,19.2-9.7c0,0,0,0,0,0c12.8-7.2,26.4-16.1,40.8-27.1c106.7-84.7,92.7-171.4,88.7-194.8
		c-4-23.3-14.7-85.3-15.3-136.7c0,0,0,0,0,0c0-1.2,0-2.3,0-3.5c0-0.2,0-0.5,0-0.7c0-1.1,0.1-2.3,0.2-3.4c0-0.2,0-0.4,0.1-0.6
		c0.1-1.1,0.2-2.1,0.3-3.2c0-0.2,0-0.3,0.1-0.5c0.1-1.2,0.3-2.3,0.5-3.5c0-0.3,0.1-0.5,0.1-0.8c0.2-1.2,0.4-2.3,0.7-3.5
		c0-0.1,0.1-0.2,0.1-0.3c0.2-1.1,0.5-2.2,0.7-3.3c0.1-0.2,0.1-0.5,0.2-0.7c0.3-1.1,0.6-2.3,0.9-3.4c0.1-0.2,0.1-0.5,0.2-0.7
		c0.3-1.1,0.6-2.2,1-3.3c0-0.1,0.1-0.2,0.1-0.3c0.4-1.2,0.7-2.3,1.1-3.5c0.1-0.3,0.2-0.5,0.3-0.8c0.4-1.1,0.8-2.3,1.2-3.4
		c0.1-0.2,0.1-0.4,0.2-0.6c0.4-1,0.8-2,1.2-3c0.1-0.2,0.2-0.4,0.3-0.6c0.4-1.1,0.9-2.2,1.3-3.3c0.1-0.3,0.2-0.5,0.3-0.8
		c0.5-1.1,0.9-2.2,1.4-3.3c0-0.1,0.1-0.1,0.1-0.2c0.5-1.1,1-2.1,1.5-3.2c0.1-0.3,0.2-0.5,0.4-0.8c0.5-1.1,1-2.1,1.5-3.1
		c0.1-0.2,0.2-0.4,0.3-0.7c0.5-0.9,0.9-1.9,1.4-2.8c0.1-0.2,0.2-0.3,0.3-0.5c0.5-1,1.1-2,1.6-3.1c0.1-0.3,0.3-0.5,0.4-0.8
		c0.5-1,1.1-2,1.6-3c0.1-0.1,0.2-0.3,0.2-0.4c0.5-0.9,1-1.8,1.5-2.7c0.1-0.2,0.2-0.4,0.4-0.6c0.5-0.9,1.1-1.9,1.6-2.8
		c0.1-0.2,0.3-0.4,0.4-0.6c0.5-0.9,1-1.8,1.6-2.6c0.1-0.1,0.1-0.2,0.2-0.3c0.6-0.9,1.1-1.8,1.7-2.7c0.1-0.2,0.3-0.4,0.4-0.6
		c0.5-0.9,1.1-1.7,1.6-2.6c0.1-0.1,0.2-0.3,0.3-0.4c0.5-0.8,1-1.6,1.5-2.3c0.1-0.1,0.2-0.3,0.3-0.4c0.5-0.8,1.1-1.6,1.6-2.4
		c0.1-0.2,0.2-0.3,0.3-0.5c1.1-1.6,2.1-3.1,3.2-4.6c0.1-0.1,0.2-0.2,0.2-0.4c0.5-0.7,1-1.4,1.5-2.1c0.1-0.1,0.1-0.1,0.2-0.2
		c0.5-0.7,1-1.4,1.4-2c0,0,0,0,0,0c0.5-0.7,1-1.3,1.4-1.9c0-0.1,0.1-0.1,0.1-0.2c0.9-1.2,1.8-2.4,2.6-3.4c1.1,0.7,2.5,1.1,3.9,1.1
		c4.1,0,7.5-3.4,7.5-7.5C647.6,219.5,644.3,216.1,640.1,216.1z M575.6,220.7c7.8,2.9,16.4,5.2,25.8,7c-15.6,0.5-46.9-0.9-68.6-17.7
		c0.2-0.4,0.4-0.9,0.5-1.3h19.8l2,1.6C555.7,210.9,561.9,215.7,575.6,220.7z M492.4,142c8.5,11.6,36.1,31.1,85,32.7
		c-6.3,9.3-53.3,5.2-89.4-18.9L492.4,142z M563.9,187.2c-2.9,3.3-6.2,6.9-9.7,10.7l-4.8,5.1h-16.1c-1.2-3.8-4.7-6.5-8.9-6.5
		c-2.8,0-5.3,1.2-7,3.2l-42.7-17.3l11.3-20.3C486,162.1,509,184,563.9,187.2z M510.4,272.6l0.6-4.6l4.1,0.6l-0.6,4.6l9.6,1.3
		l-0.5,3.5l-9.6-1.3l-1,7.3c-0.4,2.7-1.9,4-4.6,3.8c-1.2-0.2-2.7-0.3-4.5-0.5c0-0.3-0.1-0.7-0.1-1.3c-0.1-0.8-0.2-1.7-0.3-2.7
		c1.1,0.3,2.3,0.5,3.4,0.7c1.2,0.2,1.9-0.3,2-1.4l0.9-6.5l-10.7-1.4l3.7-12.5c6.8,0.8,13.4,1.2,19.9,1.3l0.9,3.7
		c-5.5,0-11.3-0.4-17.5-1.2l-1.8,5.8L510.4,272.6z M523.7,286.5c-0.7,0.2-1.6,0.6-2.8,1.1c-0.5,0.2-0.9,0.4-1.1,0.5
		c-1.5-3.5-2.8-6.3-4.1-8.4l3.2-1.5C520,279.6,521.6,282.4,523.7,286.5z M503.7,276l3.3,2.3c-2.4,2.9-4.9,5.4-7.5,7.4
		c-0.9-1.1-1.8-2-2.7-2.7C499.3,281,501.6,278.6,503.7,276z M487.7,279.7l-2.3,3c-2-1.5-4.2-2.9-6.6-4.2l2.1-2.4l-6.1-0.7l1.5,2.8
		c-0.6,0.2-1.6,0.5-2.8,1c-2.1,0.7-3.6,1.2-4.7,1.6c-0.4-1.2-0.9-2.3-1.5-3.3c2.4-0.5,4.8-1.2,7.1-2.1l-6.6-0.7l0.3-3.1l2.3,0.2
		l1.8-16.7l15.7,1.7l-1.8,16.7l2.3,0.2l-0.3,3.1l-6.9-0.7C483.4,277.4,485.5,278.6,487.7,279.7z M463.7,268.1
		c-0.6,0.9-1.2,1.6-1.6,2.1c0-0.3-0.1-0.8-0.1-1.4c0-0.6-0.1-1.9-0.2-3.8c2.1-3.4,4.1-7.2,5.9-11.5l3.4,1.4
		c-0.8,1.8-1.7,3.6-2.6,5.4l-2.2,20.1l-3.7-0.4l1.4-12.6C464,267.5,463.9,267.8,463.7,268.1z M487,242.4c-50.1-4.7-87-4-87-4
		s-36.9-0.7-87,4l-26.7-29.7c53.4,11.7,113.7,11.7,113.7,11.7s60.4,0,113.7-11.7L487,242.4z M451.8,271.2c-0.8,1.1-1.6,2.2-2.2,3.3
		c-1.9-2-3.5-4.5-4.9-7.4l-0.3,5.9c-0.1,2-1.2,3-3.2,3.1c-1.1,0-2.5,0-4.1-0.1c-0.1-1.6-0.4-2.8-0.6-3.5c0.2,0,0.6,0,1.1,0.1
		c0.6,0.1,1.1,0.2,1.4,0.2c1.2,0.1,1.9-0.5,1.9-1.7l0.1-2.8c-0.7,0.4-1.7,1-3.1,1.8c-1.1,0.7-2,1.2-2.6,1.6l-1.4-3.8
		c1.9-0.9,4.3-2.2,7.3-3.9l0.3-6.6l-6.4-0.3l0.2-3.3l6.4,0.3l0.2-4.5l3.6,0.2l-0.2,4.5l3.2,0.2c-1.1-1.2-2-2.1-2.6-2.6l2.2-2
		c1.1,0.9,2.3,2,3.5,3.2l-1.6,1.4l2.1,0.1l-0.2,3.3l-6.8-0.4l-0.1,1.8c0.1,0.2,0.1,0.4,0.2,0.6c0.1,0.5,0.4,1.3,0.8,2.3
		c1.3-1.3,2.4-2.5,3.4-3.6l2.9,2.5c-1.5,1.4-3.1,2.8-4.8,4.2C448.7,267.5,450.2,269.5,451.8,271.2z M425.3,262.7l0.2-3.4l2.6,0.1
		l0.3-5.5l-2.9-0.2l0.2-3.4l9.2,0.5l-0.2,3.4l-2.8-0.1l-0.3,5.5l2.4,0.1l-0.2,3.4l-2.4-0.1l-0.3,6c0.9-0.2,1.9-0.3,2.8-0.4
		c-0.1,1.3-0.1,2.5-0.2,3.7c-3,0.4-6,0.9-8.8,1.5l-0.6-3.7c0.4-0.1,0.9-0.1,1.6-0.3c0.8-0.1,1.3-0.2,1.6-0.3l0.4-6.7L425.3,262.7z
		 M437.5,258.1c0.9,1.3,1.8,2.9,2.8,5l-3.1,1.7c-0.9-2-1.8-3.7-2.7-5.1L437.5,258.1z M400,270.9v-10.5h-8.9v-11h20.7v11h-7.9v3.7
		h9.4v3.3h-9.4v3.8c2.1,0,4.1,0,5.8,0c1.8,0,3.6,0,5.5-0.1c-0.5,1.4-0.9,2.5-1.2,3.5c-3.2,0-5.6,0-7.1,0c-1.8,0-3.5,0-4.8-0.1
		c-4,0-6.8-1.2-8.4-3.6c-0.9,1.6-2.1,3.1-3.6,4.5c-0.2-0.3-0.6-0.8-1.2-1.6c-0.4-0.8-0.7-1.3-1-1.6c2.5-2.2,4-5.7,4.4-10.4l3.7,0.6
		c-0.2,1.6-0.5,3.1-0.8,4.5C396.2,269.2,397.9,270.5,400,270.9z M366,258.4l9.8-0.5l0.5,9.7c0.1,2.5-1,3.9-3.4,4.2
		c-0.4,0-1,0-1.7,0.1c-1,0.1-1.8,0.2-2.4,0.2c-0.4-1.2-0.8-2.3-1.2-3.3c1.1,0,2.1,0,3,0c1.4-0.1,2-0.7,2-1.9l-0.3-5.3l-6.1,0.3
		l0.7,13.2l-3.9,0.2l-0.7-13.2l-5.4,0.3l0.5,10.3l-3.8,0.2l-0.7-13.8l9.2-0.5l-0.2-3.2l-11,0.6l-0.2-3.6l10.7-0.6
		c-0.4-0.9-0.7-1.7-1.2-2.5l4.3-1.3c0.2,0.5,0.5,1.1,0.9,2c0.2,0.7,0.4,1.2,0.5,1.5l10.8-0.6l0.2,3.6l-11.1,0.6L366,258.4z
		 M331.1,260.3l-6.1,0.4l0.2,3l5.5-0.4c0,2.1,0.1,4.4,0.2,7c0,2.4-0.8,3.7-2.4,4.1c-0.2,0-0.6,0-1,0.1c-0.7,0.1-1.3,0.2-1.7,0.2
		c0-0.6-0.2-1.2-0.3-1.7c-0.3,2.8-0.9,5.1-1.9,6.8c-0.6-0.6-1.4-1.3-2.6-2.1c-0.2-0.1-0.3-0.3-0.4-0.3c0.6-0.9,0.9-1.9,1.2-3.2
		c-1.1,0.4-2.8,1.1-5.1,2.1c-0.8,0.3-1.4,0.5-1.8,0.7l-1-3.9c0.9-0.3,1.7-0.6,2.5-0.9l-0.6-8.6l-2,0.1l-0.2-3.4l2-0.1l-0.4-6.5
		l3.4-0.2l0.4,6.5l2-0.1l0.2,3.4l-2,0.1l0.5,7.7c0.1-0.1,0.3-0.2,0.4-0.3c0.4-0.1,0.8-0.2,1.4-0.4c0,1,0,2.2,0.1,3.7
		c0.5-2.1,0.6-4.5,0.4-7.3l-0.6-9.2l9.1-0.6c0-0.5-0.1-1.2-0.1-2.2c-0.1-1-0.2-1.8-0.3-2.3l3.3-0.2c0.1,2.1,0.3,3.6,0.4,4.5l2.8-0.2
		c-0.8-1-1.7-2-2.6-2.9l2.3-1.7c1,1.1,1.9,2.1,2.9,3.2l-1.9,1.4l2.8-0.2l0.2,3.3l-6.1,0.4c0.3,2.7,0.6,5,0.8,7
		c0.7-1.7,1.3-3.4,1.8-5.3l3.4,1.4c-1.2,3.4-2.6,6.4-4.2,9.2c0.6,1.8,1.1,2.7,1.7,2.7c0.4,0,0.6-1.7,0.6-4.9
		c1.1,0.5,2.1,0.9,3.1,1.2c-0.2,2.3-0.4,4.1-0.7,5.4c-0.4,1.4-1.4,2.1-2.7,2.1c-1.8,0.1-3.2-0.9-4.1-3c-1.1,1.4-2.3,2.7-3.6,3.8
		c-0.5-0.6-1.2-1.3-2.1-2.3c-0.2-0.1-0.3-0.3-0.4-0.3c1.8-1.1,3.3-2.8,4.7-5.2C332.1,269.2,331.6,265.3,331.1,260.3z M293.8,284.8
		l-3.7,0.4l-2.4-25l14.2-1.4l2.4,25l-3.7,0.4l-0.2-1.7l-6.9,0.7L293.8,284.8z M282,271.1c0.5-2.5,0.9-5.1,1.2-7.7l-2.3,0.2l2.2,22.3
		l-3.6,0.3l-2.5-25.5l9.6-0.9l0.3,2.6c-0.1,0.5-0.2,1.5-0.4,2.7c-0.2,0.7-0.5,2.4-1,5.2c1.8,1.7,2.8,4.1,3.1,7.2
		c0.1,1.4-0.1,2.5-0.8,3.3c-0.7,0.9-2.1,1.5-4.3,1.7c-0.3-1.4-0.6-2.8-1-4c0.4,0,0.7,0,1,0c1.1-0.1,1.6-0.6,1.5-1.4
		C284.7,274.8,283.7,272.8,282,271.1z M400,217.9c-50.5,0-113.7-12.8-113.7-12.8l46.7-20.3l-11.7-24.3H400h78.7L467,184.7l46.7,20.3
		C513.7,205.1,450.2,217.9,400,217.9z M321.5,141.8c22.4,0,44.5-10.5,63.8-30.4c6.2-6.3,11.1-12.7,14.7-17.8
		c3.7,5.2,8.6,11.5,14.7,17.8c19.3,19.9,41.4,30.4,63.8,30.4c2.3,0,4.6-0.1,6.8-0.3l-4.3,12.3H400h-81.1l-4.3-12.3
		C316.9,141.7,319.2,141.8,321.5,141.8z M223.6,175.1c53.4-0.3,75.6-21.5,84-33.1l4.3,13.8C275.9,179.9,233.6,183.7,223.6,175.1z
		 M236.1,187.2C291,184,314,162.1,314,162.1l11.3,20.3l-42.7,17.3c-1.7-1.9-4.2-3.2-7-3.2c-4.2,0-7.7,2.7-8.9,6.5h-16.1l-4.8-5.1
		C242.2,194.1,239,190.5,236.1,187.2z M224.4,220.7c13.7-5,19.9-9.9,20.5-10.4l2-1.6h19.8c0.1,0.5,0.3,0.9,0.5,1.3
		c-21.8,16.8-53,18.2-68.6,17.7C208,226,216.6,223.6,224.4,220.7z M206.9,259.8l-26.2-25.2c14.4,0.8,40.5,0.7,48.2-0.5
		c22.1-4.6,34.9-13.6,41.8-20.2c1.4,0.9,3.1,1.4,4.8,1.4c1.5,0,2.8-0.3,4.1-0.9l22.2,29.2C272.4,246.7,239.4,251.7,206.9,259.8z
		 M269.7,286c-0.1,1.7-1.1,2.7-3,3.1l-2.7,0.5c-2.3,0.5-3.7-0.5-4.2-2.8l-1.4-7.2c-0.2,4.3-2.2,8.7-5.8,13c-0.9-0.8-2-1.7-3.4-2.5
		c2-2,3.6-4.5,4.7-7.2c1-3,1.2-6.5,0.4-10.4l-2.6,0.5l0.7,3.4l-3.6,0.7l-1.3-6.7l6.2-1.2c-0.3-1.4-0.5-2.6-0.8-3.8l3.7-0.7
		c0.1,0.4,0.2,1,0.4,1.8c0.1,0.9,0.2,1.6,0.3,2.1l8.2-1.6l1.3,6.7l-3.6,0.7l-0.7-3.4l-4.6,0.9c0.4,2.3,0.6,4.1,0.6,5.5l3.2-0.6
		l1.7,8.8c0.1,0.7,0.5,1,1.1,0.8l1-0.2c0.6-0.1,0.9-0.5,0.8-1.1c0-1.4-0.2-2.8-0.4-4.3c1.1,0.2,2.4,0.5,3.7,0.7
		c0.1,1.1,0.1,2.5,0.1,4.2C269.7,285.8,269.7,286,269.7,286z M242.5,274.8c1.8,0.7,3.6,1.6,5.5,2.7l-2,3.2c-0.8-0.5-2.3-1.4-4.3-2.4
		c-0.4-0.2-0.7-0.4-0.9-0.5L242.5,274.8z M239.8,270.3l1.7-3c1.9,0.8,3.7,1.7,5.3,2.7l-1.9,3.3C243.6,272.3,241.8,271.3,239.8,270.3
		z M245.4,281.7c1.1,0.2,2.4,0.5,3.9,0.6c-0.2,1.1-0.4,2.7-0.6,4.7c-0.4,2.9-0.7,4.9-0.8,6c-1.4-0.2-2.7-0.4-3.9-0.5
		C244.8,288.7,245.3,285.1,245.4,281.7z M475.8,656.8c-6.7-17.7-16.2-27.5-22.2-32.2l1.1-8.2c12.2,10.4,21.5,24.2,26.2,39.9
		L475.8,656.8z M474.7,659.5l-7.6,23.6l-23.4,0.4l-17.2-22.4l5.8-35l18.4-1.2C456.4,629.1,467.5,639.3,474.7,659.5z M468.5,687.8
		c-10.8,4.8-20.1,8.7-28.3,11.9l3.4-14.1l24-0.5L468.5,687.8z M331.4,686c-0.8,0.3-1.7,0.4-2.8,0.5c-4.1-1.8-8.5-3.7-13.1-5.8
		c0-10.8,2.1-21.2,5.8-30.7c2.5-1.2,5-2.4,7.2-3.4c1.5,7.6,5.3,15.3,6.3,17.1L331.4,686z M336.8,663.3l23.1-12
		c12,6.3,25,16.6,31,21.5l0.1,35.6c-14-1.7-29.2-7.3-51.4-16.9c-3-1.9-5.1-3.6-6.4-4.6L336.8,663.3z M599.8,473.2l0.1,0.3
		c1.8,10.2,6.4,37.4-2.7,71.8c-11.3,42.6-39.5,82-83.8,117.2c-6.7,5.1-13.4,9.9-19.9,14.3c-1.2-28.1-14.8-53.1-35.4-69.4l-5.7-1.7
		c-0.5,4.7-1,8-1.1,8.3l-2,11.1l-9.8-5.5l-8.5-4.8c-1.8,3-3.8,5.4-5.8,7.5l5.2,3.9l-5.5,33.3l-32.4,11.9c-6-4.9-19.2-15.2-31.3-21.7
		c1-24.2,7.9-30.1,10.5-31.4c-0.1-0.2-0.2-0.3-0.3-0.5c-1.9-0.1-4.4-0.1-7-0.1l-3.5,1.9l-9.8,5.5l-1.3-7.3c-1.9,0-3,0.1-3,0.1
		c-11,10-18.5,26-18.5,26c0,0.3,0.1,0.6,0.1,0.9c-1.7,0.8-3.7,1.7-5.7,2.7c5.8-13.4,15-25,26.4-33.8c-0.2-1-0.6-4-1-7.9l-5.7,1.7
		c-20.7,16.4-34.3,41.3-35.4,69.4c-6.6-4.4-13.2-9.1-19.9-14.3c-44.3-35.2-72.5-74.6-83.8-117.2c-9.1-34.4-4.5-61.6-2.7-71.8
		l0.1-0.3c4-23.5,14.7-85.7,15.4-137.3c0-1.9,0-3.8-0.1-5.8c0.7-0.6,1.5-1.3,2.4-1.9c0,0,0-0.1,0-0.1c0.7-0.5,1.6-1,2.4-1.6
		c10.1-6.7,27.5-13.8,57.6-19c6.3-11.5,15.5-18.3,27.1-19.7l0.2,0l0.2,0c0.5,0,1-0.1,1.5-0.1c10.3,0,14.9,7.7,17.3,11.8l0.1,0.2
		l0,0.1c0.4,0.7,0.9,1.4,1.3,2.1c8.9-0.7,18.5-1.2,28.8-1.7c3-2.8,5-4.9,5-4.9l6.8-7.1l4.2,8.7c3.5-3.7,10.7-11.7,15.8-11.7l4.1,5.6
		c1.2-1.7,4.6-9.5,9.7-14.8c5.1,5.3,8.5,13.2,9.7,14.8l4.1-5.6c5.2,0,12.4,7.9,15.8,11.7l4.2-8.7l6.8,7.1c0,0,2,2.1,5,4.9
		c10.3,0.4,19.9,1,28.8,1.7c0.4-0.7,0.9-1.4,1.3-2.1l0-0.1l0.1-0.2c2.5-4.1,7.1-11.8,17.3-11.8c0.5,0,1,0,1.5,0.1l0.2,0l0.2,0
		c11.6,1.5,20.8,8.2,27.1,19.7c30.1,5.3,47.6,12.3,57.6,19c0.9,0.5,1.7,1.1,2.4,1.6c0,0,0,0.1,0,0.1c0.9,0.6,1.7,1.3,2.4,1.9
		c-0.1,2-0.2,3.9-0.1,5.8C585.1,387.5,595.8,449.8,599.8,473.2z M537.1,275.6c-0.4-0.7-0.7-1.3-0.9-1.7l2.8-1.2l-3.4-0.4l0.4-3
		l5.3,0.6c-0.1-0.9-0.3-1.8-0.6-2.5l4.2-0.2c0,0.5,0.1,1.2,0.3,2.1c0.1,0.5,0.2,0.8,0.2,1.1l4.7,0.6l-0.4,3l-3.5-0.4l2.7,1.6
		c-0.6,0.8-1.4,1.7-2.3,2.6l3.2,0.4l-0.4,3l-15.2-1.9l0.4-3l3.2,0.4C537.5,276.4,537.3,276.1,537.1,275.6z M560.2,288.3
		c-0.3,2.7-1.7,4.1-4.2,4.1c-0.5,0-1.3,0-2.5-0.2c0.1-1.3,0-2.6-0.2-4c0.8,0.2,1.3,0.3,1.6,0.3c1.1,0.1,1.7-0.3,1.8-1.4
		c0.3-2.1-0.6-4.3-2.5-6.8c1.2-2.2,2.4-4.5,3.5-6.9l-2.9-0.4l-2.7,22l-3.5-0.4l3.1-25.2l10.2,1.3l-0.3,2.6c-0.4,0.8-1.3,2.5-2.7,5
		c-0.4,0.9-0.8,1.6-1.1,2.1C559.7,283,560.5,285.6,560.2,288.3z M535,281.6l12.7,1.6l-1.3,10.6l-3.4-0.4l0.2-1.5l-5.9-0.7l-0.2,1.6
		l-3.3-0.4L535,281.6z M593.1,259.8c-32.5-8.1-65.5-13.1-94.9-16.2l22.2-29.2c1.2,0.6,2.6,0.9,4.1,0.9c1.8,0,3.4-0.5,4.8-1.4
		c6.9,6.7,19.7,15.6,41.8,20.2c7.7,1.1,33.8,1.3,48.2,0.5L593.1,259.8z"/>
	<path class="st0" d="M369.2,366.9c10.8-6,27-6.5,30.8-1.5c3.8-5,20-4.5,30.8,1.5c6.4,3.8,10.1,7.8,12.1,11.7
		c5.6,3.6,11.4,8.9,16.6,16.8c0,0,1.3-11.7-2.5-17.6c0,0,0.1,0.1,0.2,0.2c-8.7-16.9-19.9-19.5-19.9-19.5c10.3,7.7,11.3,15,11.3,15
		c-11-9-23.7-15.7-23.7-15.7l2.7-14l2.1,8.3l7.4-5.2l-0.2,6.2l13.5,6c7,0,20.9,6.3,20.9,6.3c-5-5-28.1-17-28.1-17
		c-1.3-10.7-6.3-13-6.3-13c-0.7,8-4,10.7-4,10.7c-5.3-10-10.5-10.7-10.5-10.7c0.2,11-1.5,13.3-1.5,13.3c-1-2.3-8.7-8-8.7-8
		c4,9,2,14,2,14c-10.3,0.3-14.3-5.7-14.3-5.7s-4,6-14.3,5.7c0,0-2-5,2-14c0,0-7.7,5.7-8.7,8c0,0-1.8-2.3-1.5-13.3
		c0,0-5.1,0.7-10.5,10.7c0,0-3.3-2.7-4-10.7c0,0-5,2.3-6.3,13c0,0-23.1,12-28.1,17c0,0,13.9-6.3,20.9-6.3l13.5-6l-0.2-6.2l7.4,5.2
		l2.1-8.3l2.7,14c0,0-12.7,6.7-23.7,15.7c0,0,1-7.3,11.3-15c0,0-11.2,2.6-19.9,19.5c0.1-0.1,0.2-0.2,0.2-0.2
		c-3.8,5.9-2.5,17.6-2.5,17.6c5.2-7.9,11-13.2,16.6-16.8C359.2,374.7,362.9,370.7,369.2,366.9z"/>
	<path class="st0" d="M526.4,418.5c0,0,1.3-1.3,8-1.7c0,0-8.2-11.3-12.8-15.3c0,0,9.5-7.3,10.5-20.3c0,0-16,2.3-21.3-2.7
		c0,0,21.3-7.7,17-45c0,0-3.3,2.2-5.7,2.2c0,0-2.3-36.8-28-40c-6.5-0.5-9.3,4.3-11.5,8c-2.3,3.8-10,16.8-19.5,16.8
		c-9.5,0-28.3-19.8-28.3-19.8s-2.8,7-5.3,8.8c0,0-6.8-14.3-13.8-14.3l-3,14c0,0-7-14.8-12.8-21.3c-5.8,6.5-12.8,21.3-12.8,21.3
		l-3-14c-7,0-13.8,14.3-13.8,14.3c-2.5-1.8-5.3-8.8-5.3-8.8s-18.8,19.8-28.3,19.8c-9.5,0-17.3-13-19.5-16.8c-2.3-3.8-5-8.5-11.5-8
		c-25.8,3.3-28,40-28,40c-2.3,0-5.7-2.2-5.7-2.2c-4.3,37.4,17,45,17,45c-5.3,5-21.3,2.7-21.3,2.7c1,13,10.5,20.3,10.5,20.3
		c-4.7,4-12.8,15.3-12.8,15.3c6.7,0.3,8,1.7,8,1.7c-29.3,32-32.7,69.4-32.7,69.4c2-2,11.7-5.7,11.7-5.7c-3.3,27,1.5,56.9,1.5,56.9
		c0.7-1.2,8.5-8.8,8.5-8.8c5.2,25.2,21,42.2,21,42.2c3.7-7,12-20.7,12-20.7c4.3,26.8,19.3,43.4,19.3,43.4
		c4.3-10.8,10.7-23.2,10.7-23.2c10.2,19,20,23.7,20,23.7v2.3l9.6-2.9c0,9,1.5,17.5,1.5,17.5l16-9c4.8,14.5,17,19.8,17,19.8l1.8-5.5
		l8.5,8.2l8.5-8.2l1.8,5.5c0,0,12.3-5.3,17-19.8l16,9c0,0,1.5-8.5,1.5-17.5l9.6,2.9v-2.3c0,0,9.8-4.7,20-23.7
		c0,0,6.3,12.3,10.7,23.2c0,0,15-16.5,19.3-43.4c0,0,8.3,13.7,12,20.7c0,0,15.8-17,21-42.2c0,0,7.8,7.7,8.5,8.8
		c0,0,4.8-29.8,1.5-56.9c0,0,9.7,3.7,11.7,5.7C559.1,487.9,555.7,450.5,526.4,418.5z M344,581.9c-11.3-15-13-37.4-13-37.4
		c-11.7,11-17.3,28.3-17.3,28.3c-8.7-18.7-12.3-40.7-12.3-40.7c-8.3,4-19.3,19-19.3,19c-9-22.7-8.3-46.4-8.3-46.4
		c-5.7,5-10.7,10-10.7,10c-2-27.7,3.7-45,3.7-45l-9.7,1c13-31.3,23-38,23-38c-6.3,16.3-10,29.7-10,29.7c3-2,9-2.3,9-2.3
		c-6.7,18.3-8,35.7-8,35.7c4-4.3,10.7-6.3,10.7-6.3c-0.7,23,3.3,41.4,3.3,41.4c6.3-5.7,21.3-11.7,21.3-11.7c5.3,14,11,21.7,11,21.7
		c7.3-7.3,18.3-11.7,18.3-11.7c-0.3,31.7,18,45,18,45L344,581.9z M430.5,597.3l-10-6.8c0,0,0,10-4.8,14.8l-5.5-8.3L400,607.3
		L389.7,597l-5.5,8.3c-4.8-4.8-4.8-14.8-4.8-14.8l-10,6.8c-0.8-5.5,4.5-11.8,4.5-11.8c-2-1.8-10,0-10,0c0.8-6.8,9.5-6,16.3-6.3
		c6.8-0.3,15.3-6.8,15.3-6.8l4.5,4.8l4.5-4.8c0,0,8.5,6.5,15.3,6.8c6.8,0.3,15.5-0.5,16.3,6.3c0,0-8-1.8-10,0
		C426,585.5,431.3,591.8,430.5,597.3z M443.4,567.9c-2.3,3-10,9.3-20,9c-7.1-0.2-15.9-5.2-20.4-8.1c-1.2-0.8-1-2.5,0.3-3
		c2.5-0.9,5.9-2.4,7.4-3.9c0.7-7.3,9.3-12.7,14.7-16.7c0.2-1.5,0.6-2.8,1.3-4.1c-0.3-3.8,3.9-10.8,3.9-10.8c-7.5,0.7-9.8,8-9.8,8
		c-12.8-1.5-14.2,5.3-14.2,5.3c3.2-1.5,10.8,0.2,10.8,0.2s-11.2,7.5-11.5,10.3c-0.5,4-0.3,6.5-3.7,6.5c-2,0-2.2-3.8-2.2-3.8
		s-0.2,4-2.2,3.8c-3.2-0.2-3.2-2.5-3.7-6.5c-0.3-2.8-11.5-10.3-11.5-10.3s7.7-1.7,10.8-0.2c0,0-1.3-6.8-14.2-5.3c0,0-2.3-7.3-9.8-8
		c0,0,4.2,7,3.9,10.8c0.6,1.3,1.1,2.6,1.3,4.1c5.3,4,14,9.3,14.7,16.7c1.6,1.6,4.9,3,7.4,3.9c1.3,0.5,1.5,2.3,0.3,3
		c-4.5,2.8-13.3,7.8-20.4,8.1c-10,0.3-17.7-6-20-9c0,0,16.7,2,25,0c0,0-29.3-2.3-34.3-17.7c0,0,15.3,8.3,25.7,6.7
		c0,0-24.7-8.3-31-18c0,0-6.3-26,18.3-48.4c0,0-4.5,2.7-9.2,6c-0.4,0.6-0.9,1.1-1.4,1.3c-5.3,3.7-13,21.3-13,21.3
		c-2.7-3-5.9-9-5.9-9v7.7c-6.3-4.7-9.4-13.3-9.4-13.3l6,0.3c-4-5.7-4.7-12.3-4.7-12.3c8.3,5.7,12.3,13.7,12.3,13.7
		c2.6-6.8,6.2-10.7,9.6-12.9l-4.8,0.2l0,0c0,0-3,4-7.8,1s-21.8-20-21.3-38c0.5-12.5,6-13.8,15.7-12.1c0,0-13.8,24.2,7.6,40.2
		c0,0,0,0,0.1,0l6.6-4.3c0,0-9,1.9-10.7-10.5c-1.7-12.5,0.7-18.5,0.7-18.5s2.3,8,5.3,11c0,0-1.3-15.8,4-17.5c0,0,0.6,21.2,24.8,24.3
		c0,0-1.6,6.2-9.4,6.3c-0.5,0-1.1,0-1.6-0.1c0,0,3.3,9.5,17.3-3.5c0,0,2.8,6.5,4.5,7.3c1.8,0.8,6.6-9.5,7.3-12.8
		c0-0.2,0.1-0.4,0.1-0.6c0.1-0.9,0.1-2,0.1-3.3c-0.1-3.6-0.6-8.2-1-10.4c0,0-4,13-7.7,12v0c-5.7-6.3-3.3-41.7-3.3-41.7
		c-5.3,2.7-9.7,14.3-9.7,14.3c-3-15.7,16.3-28,16.3-28c-27-0.7-27,24-27,24l-9-0.3c-14.3-19.6-12-34.4-7.3-43.6
		c-0.1-2.8,0.2-6.1,1.7-9.1c0,0-9.8,5.3-13.4,31c0.6,12.3,3.4,21.4,3.4,21.4c-6-0.3-14.3,4-14.3,4c0.3-2.7,5.7-11,5.7-11
		c-30.3,20.3-7.7,52.4-7.7,52.4c-4,6-5.7,13.3-5.7,13.3c7.3,4.7,8.3,15,8.3,15c-7.7,0-17,5-17,5c0-4.7,6-14.3,6-14.3l-7,1
		c0-14.3,6.7-27.3,6.7-27.3l-8.3,1c-0.7-11.7,6-26,6-26l-7.3,0.7c0.7-6.7,10.7-18.3,10.7-18.3h-8c0-4,8.3-14,8.3-14l-12-0.7
		c2.3-3.7,15.3-5,15.3-5l-19.7-10.7c23-3.3,29-13.3,29-13.3c-22-6.3-25.7-17.3-25.7-17.3c8,2.7,19,0,19,0c-16.7-12.7-19-27-19-27
		c9,8,16,8,16,8c-8.3-17,5-26.3,5-26.3s1-0.8,2.5,0.8s14.6,12.8,18,13.1c3.4,0.4,11.5,0.5,14.1-0.8c0,0-1.1,9-13.6,8.9
		c0,0,1.3,5.3,5.4,5.1c4.1-0.1,18-13,21-15.8s6.3-2.9,8.4-2.8c2.1,0.1,3.4,0.1,5.3,1.5c0,0,6-12.3,9.5-12.1
		c3.5,0.1,9.8,11.3,9.8,11.3s4.3-9.9,5.6-9.8s3.8,9.7,3.8,13.7c0-4,2.4-13.5,3.8-13.7s5.6,9.8,5.6,9.8s6.3-11.1,9.8-11.3
		c3.5-0.1,9.5,12.1,9.5,12.1c1.9-1.4,3.1-1.4,5.3-1.5c2.1-0.1,5.4,0,8.4,2.8s16.9,15.6,21,15.8c4.1,0.1,5.4-5.1,5.4-5.1
		C456.2,343,455,334,455,334c2.6,1.3,10.8,1.1,14.1,0.8c3.4-0.4,16.5-11.5,18-13.1s2.5-0.8,2.5-0.8s13.3,9.3,5,26.3c0,0,7,0,16-8
		c0,0-2.3,14.3-19,27c0,0,11,2.7,19,0c0,0-3.7,11-25.7,17.3c0,0,6,10,29,13.3l-19.7,10.7c0,0,13,1.3,15.3,5l-12,0.7
		c0,0,8.3,10,8.3,14h-8c0,0,10,11.7,10.7,18.3l-7.3-0.7c0,0,6.7,14.3,6,26l-8.3-1c0,0,6.7,13,6.7,27.3l-7-1c0,0,6,9.7,6,14.3
		c0,0-9.3-5-17-5c0,0,1-10.3,8.3-15c0,0-1.7-7.3-5.7-13.3c0,0,22.7-32-7.7-52.4c0,0,5.3,8.3,5.7,11c0,0-8.3-4.3-14.3-4
		c0,0,2.8-9.1,3.4-21.4c-3.6-25.7-13.4-31-13.4-31c1.5,3,1.8,6.4,1.7,9.1c4.7,9.2,7,24-7.3,43.6l-9,0.3c0,0,0-24.7-27-24
		c0,0,19.3,12.3,16.3,28c0,0-4.3-11.7-9.7-14.3c0,0,2.3,35.3-3.3,41.7l0,0v0c-3.7,1-7.7-12-7.7-12c-0.4,2.2-0.9,6.8-1,10.4
		c0,1.3,0.1,2.4,0.1,3.3c0,0.2,0.1,0.4,0.1,0.6c0.7,3.3,5.5,13.5,7.3,12.8c1.8-0.8,4.5-7.3,4.5-7.3c14,13,17.3,3.5,17.3,3.5
		c-0.6,0-1.1,0.1-1.6,0.1c-7.9-0.1-9.4-6.3-9.4-6.3c24.2-3.1,24.8-24.3,24.8-24.3c5.3,1.7,4,17.5,4,17.5c3-3,5.3-11,5.3-11
		s2.4,6,0.7,18.5s-10.7,10.5-10.7,10.5l6.6,4.3c0,0,0.1,0,0.1,0c21.3-16,7.6-40.2,7.6-40.2c9.7-1.8,15.2-0.4,15.7,12.1
		c0.5,18-16.5,35-21.3,38s-7.8-1-7.8-1l0,0l-4.8-0.2c3.3,2.3,6.9,6.2,9.6,12.9c0,0,4-8,12.3-13.7c0,0-0.7,6.7-4.7,12.3l6-0.3
		c0,0-3.2,8.7-9.4,13.3v-7.7c0,0-3.3,6-5.9,9c0,0-7.7-17.7-13-21.3c-0.5-0.3-1-0.8-1.4-1.3c-4.7-3.3-9.2-6-9.2-6
		c24.7,22.3,18.3,48.4,18.3,48.4c-6.3,9.7-31,18-31,18c10.3,1.7,25.7-6.7,25.7-6.7c-5,15.3-34.3,17.7-34.3,17.7
		C426.7,569.9,443.4,567.9,443.4,567.9z M348,442.2c15.5,3.5,18.5,20,18.5,20C345.5,460.7,348,442.2,348,442.2z M433.5,462.2
		c0,0,3-16.5,18.5-20C452,442.2,454.5,460.7,433.5,462.2z M533.4,469.9c0,0,5.7,17.3,3.7,45c0,0-5-5-10.7-10c0,0,0.7,23.7-8.3,46.4
		c0,0-11-15-19.3-19c0,0-3.7,22-12.3,40.7c0,0-5.7-17.3-17.3-28.3c0,0-1.7,22.3-13,37.4l-9.7-7.7c0,0,18.3-13.3,18-45
		c0,0,11,4.3,18.3,11.7c0,0,5.7-7.7,11-21.7c0,0,15,6,21.3,11.7c0,0,4-18.3,3.3-41.4c0,0,6.7,2,10.7,6.3c0,0-1.3-17.3-8-35.7
		c0,0,6,0.3,9,2.3c0,0-3.7-13.3-10-29.7c0,0,10,6.7,23,38L533.4,469.9z"/>
	<path class="st0" d="M413.7,427.8c-3.2-7.6-9-12.8-7.7-13.5c1.8-1,8.8,2.5,8.8,2.5c-13.3-13.6-13.3-19-13.3-19.8s1.8-0.8,1.8-0.8
		s11.3,2.7,16,6.7c0,0-0.1-5.2-1.6-6.4c0,0,11-0.3,29.5,9.5c0,0-4.6-7.4-16-20.1c-10.7-9.2-22.8-12.4-22.8-12.4
		c4.8,8.8,2.8,14.5,2.8,14.5L400,375.4l-11.3,12.5c0,0-2-5.8,2.8-14.5c0,0-12,3.2-22.8,12.4c-11.4,12.7-16,20.1-16,20.1
		c18.5-9.8,29.5-9.5,29.5-9.5c-1.5,1.3-1.6,6.4-1.6,6.4c4.7-4,16-6.7,16-6.7c0,0,0,0,0,0l0,0c0,0,1.8,0,1.8,0.8s0,6.2-13.3,19.8
		c0,0,7-3.5,8.8-2.5c1.3,0.7-4.5,5.8-7.7,13.5c-0.5,1.4-1.4,4-1.8,6.6c-0.1,1-0.2,2-0.2,3.1c0,0,7-16.7,14-17.3v9.3
		c0,0-2.3,2.4-3.5,7.5c0,0,0,0.1,0,0.1c-0.1,0.4-0.1,0.7-0.2,1.1c0,0.2-0.1,0.3-0.1,0.5c-0.1,0.3-0.1,0.7-0.1,1.1
		c0,0.2,0,0.3-0.1,0.5c-0.1,0.5-0.1,1-0.1,1.6c0,0.1,0,0.1,0,0.2c-0.1,1.2-0.1,2.6,0,4c0,0,1.8-5.3,4.3-5v9.1c0,0,0.1,1.5,1.5,1.5
		s1.5-1.5,1.5-1.5v-9.1c2.5-0.3,4.3,5,4.3,5c0.1-1.4,0.1-2.8,0-4c0-0.1,0-0.1,0-0.2c0-0.5-0.1-1.1-0.1-1.6c0-0.2,0-0.3-0.1-0.5
		c0-0.4-0.1-0.7-0.1-1.1c0-0.2-0.1-0.3-0.1-0.5c-0.1-0.4-0.1-0.8-0.2-1.1c0,0,0-0.1,0-0.1c-1.2-5.2-3.5-7.5-3.5-7.5v-9.3
		c7,0.7,14,17.3,14,17.3c0-1.1,0-2.1-0.2-3.1C415.1,431.8,414.2,429.2,413.7,427.8z"/>
	<path class="st0" d="M378.2,489.9c0-0.2,0-0.4-0.1-0.6c0-0.1,0-0.3-0.1-0.4c0-0.2-0.1-0.4-0.1-0.6c0-0.1-0.1-0.3-0.1-0.4
		c-0.1-0.2-0.2-0.4-0.2-0.7c0-0.1-0.1-0.2-0.1-0.3c-0.1-0.3-0.3-0.6-0.5-1c0,0,0,0.1-0.1,0.2c0,0,0,0,0,0.1c0,0.1,0,0.1-0.1,0.2
		c0,0,0,0,0,0c-0.5,1.4-2,5.6-3.9,9.6c0,0,0,0,0,0v0c-0.7,1.5-1.4,2.9-2.2,4.2c-3.3,5.5-2.3,14.8,0,17c0,0,0.8-10.3,3.5-15.3
		c0.1-0.2,0.2-0.4,0.3-0.6c0.1-0.2,0.3-0.5,0.4-0.7c0-0.1,0.1-0.2,0.1-0.3c0.1-0.2,0.2-0.4,0.3-0.6c0.1-0.1,0.1-0.2,0.2-0.4
		c0.1-0.2,0.2-0.4,0.3-0.6c0.1-0.1,0.1-0.3,0.2-0.4c0.1-0.2,0.2-0.4,0.2-0.5c0.1-0.2,0.1-0.3,0.2-0.5c0.1-0.2,0.1-0.3,0.2-0.5
		c0.1-0.2,0.1-0.3,0.2-0.5c0.1-0.2,0.1-0.3,0.2-0.5c0.1-0.2,0.1-0.3,0.2-0.5c0.1-0.2,0.1-0.3,0.2-0.5c0.1-0.2,0.1-0.3,0.2-0.5
		c0-0.2,0.1-0.3,0.1-0.5c0-0.2,0.1-0.4,0.1-0.5c0-0.2,0.1-0.3,0.1-0.5c0-0.2,0.1-0.4,0.1-0.5c0-0.2,0-0.3,0.1-0.5c0-0.2,0-0.4,0-0.5
		c0-0.2,0-0.3,0-0.5c0-0.2,0-0.4,0-0.6C378.2,490.2,378.2,490,378.2,489.9z"/>
	<path class="st0" d="M429.3,500.2c-0.7-1.3-1.5-2.7-2.2-4.2v0c0,0,0,0,0,0c-1.9-4-3.4-8.1-3.9-9.6c0,0,0,0,0,0
		c0-0.1-0.1-0.2-0.1-0.2c0,0,0-0.1,0-0.1c0-0.1-0.1-0.2-0.1-0.2c-0.2,0.3-0.3,0.6-0.5,1c0,0.1-0.1,0.2-0.1,0.3
		c-0.1,0.2-0.2,0.4-0.2,0.7c0,0.1-0.1,0.3-0.1,0.4c-0.1,0.2-0.1,0.4-0.1,0.6c0,0.1,0,0.3-0.1,0.4c0,0.2-0.1,0.4-0.1,0.6
		c0,0.1,0,0.3,0,0.4c0,0.2,0,0.4,0,0.6c0,0.2,0,0.3,0,0.5c0,0.2,0,0.4,0,0.5c0,0.2,0,0.3,0.1,0.5c0,0.2,0,0.4,0.1,0.5
		c0,0.2,0.1,0.3,0.1,0.5c0,0.2,0.1,0.3,0.1,0.5c0,0.2,0.1,0.3,0.1,0.5c0,0.2,0.1,0.3,0.2,0.5c0.1,0.2,0.1,0.3,0.2,0.5
		c0.1,0.2,0.1,0.3,0.2,0.5c0.1,0.2,0.1,0.3,0.2,0.5c0.1,0.2,0.1,0.3,0.2,0.5c0.1,0.2,0.1,0.3,0.2,0.5c0.1,0.2,0.1,0.3,0.2,0.5
		c0.1,0.2,0.2,0.4,0.3,0.5c0.1,0.1,0.1,0.3,0.2,0.4c0.1,0.2,0.2,0.4,0.3,0.6c0.1,0.1,0.1,0.2,0.2,0.4c0.1,0.2,0.2,0.4,0.3,0.6
		c0,0.1,0.1,0.2,0.1,0.3c0.1,0.2,0.3,0.5,0.4,0.7c0.1,0.2,0.2,0.4,0.3,0.6c2.8,5,3.5,15.3,3.5,15.3
		C431.5,515,432.5,505.7,429.3,500.2z"/>
	<path class="st0" d="M390.7,183.6c0,3.8-2.1,8-3.5,10.6c0.2,0.2,0.3,0.5,0.5,0.7h23.5v-5.3h-2h-1.6l0.8-1.5l4-7.8l0.3-0.5h0.6h4.3
		c-1.8-7.5-8.6-13-16.6-13c-6.2,0-11.7,3.3-14.7,8.3C389,177.4,390.7,180.6,390.7,183.6z M401,177.9c3.3,0,6,2.7,6,6
		c0,3.3-2.7,6-6,6c-3.3,0-6-2.7-6-6C394.9,180.6,397.6,177.9,401,177.9z"/>
</g>
</svg>
