<?xml version="1.0" encoding="utf-8"?>
<!-- Generator: Adobe Illustrator 23.0.3, SVG Export Plug-In . SVG Version: 6.00 Build 0)  -->
<svg version="1.1" id="图层_1" xmlns="http://www.w3.org/2000/svg" xmlns:xlink="http://www.w3.org/1999/xlink" x="0px" y="0px"
	 viewBox="0 0 800 800" style="enable-background:new 0 0 800 800;" xml:space="preserve">
<style type="text/css">
	.st0{fill:#D0953E;}
</style>
<path class="st0" d="M634.9,559.8c-2.6-6.7-7.4-10.8-11-12.9c4.3-10.8,2.2-18.2,1-21c-3.1-7.3-10.8-12.9-21-15.4
	c-9.5-2.3-20.5-1.8-31.4,1.5c-3-10.8-11.4-19.4-22.4-22.3c-11.7-3.1-24.2,0.8-32.2,9.9c-9.7-6.5-21.4-8-31.3-3.9
	c-2.7-3.3-9.6-10.1-20.4-10.6c-3.6-0.2-16,0.1-22.3,10.3c-5.5,9.1-4,21.2,3.6,28.1c2.1,1.9,4.6,3.4,7.2,4.4c-1.4,2.8-2,5.7-2,8.5
	c0.1,6.6,4,13.2,11.1,18.6c6,4.6,13.8,7.8,21.2,8.9c3.7,0.6,7.5,0.6,11.3,0.1c-0.2,3.7,0.2,8.1,2.4,12.4c3,5.8,8.8,10.4,15.9,12.6
	c3.1,0.9,6.2,1.4,9.3,1.4c4.5,0,8.9-1,12.7-2.9c0,0,0,0,0,0.1c4.7,4.8,6.1,12,3.6,17.9c-3.4,7.8-14.2,9.2-18.9,9.5
	c-11.9,0.6-23.2-7.2-23.2-7.2c-5.6-3.8-9.5-6.9-13.5-10.5c-5-4.4-9.1-10.4-10.5-12.5c-4.7-7.1-18-22.5-38-23.5l-0.2,0
	c-8.9-0.5-21.4,1-30.2,10.6c-15.3,16.6-4.9,42-4.5,43c0.6,1.5,1.7,2.9,3.1,4.9c1.4,2,3.2,4.4,5.3,7.9l0,0.1c0.4,0.7,0.8,1.4,1.2,2.1
	c0,0.2,0.1,0.4,0.1,0.6c1.6,7.8-1.8,19.7-10.1,25.4c-5.8,4-12.5,3.7-18.9,3.5c-6.9-0.3-12.8-2.1-17.1-3.5c-2.2-0.7-4-1.3-5.8-2
	c-2.6-1-5.3-2-9.6-3.2c-3.4-1-7.5-2.1-10.4-2.5c-2.2-0.3-9.1-0.9-12.6-0.8c-4.1,0.1,7.5,5.4,9.5,6.4c0,0,5.3,2.4,7.8,3.8
	c2.6,1.4,4.2,2.7,6.3,4.3c1.6,1.2,3.3,2.6,5.8,4.3c0.1,0.1,3.7,2.5,8.8,5.4c6.1,3.4,16.7,9.2,28.8,9.2c2.4,0,4.8-0.2,7.3-0.7
	c13.2-2.7,19.2-9.1,21.9-14.1c6.5-12,0.6-25.9-1.7-31.1c-1.1-2.5-2.4-5-3.8-7.4c-0.1-0.4-0.2-0.9-0.3-1.5c-1.2-8,0.6-15.2,1.8-18.2
	c2.6-6.1,13.1-15.3,31.6-15.5c0.1,0,0.3,0,0.4,0c8.6,0,17.3,2.8,25.9,8.3c5.7,4,7.9,7.1,19.6,15.8l0.4,0.3c4.3,3.3,6.3,4.7,6.9,5.2
	c12,8.7,19.2,13.9,26.6,16.9c12,4.8,34.4,7.1,46.8-6.3c0,0,0.1-0.1,0.1-0.1c0,0,0.1,0,0.1,0c0,0,0,0,0,0c15.7-0.1,29-10,31.1-23.1
	c1.2-7.6-1.7-14.1-4.4-18.1c8.6,3.5,18.3,2.2,25.1-3.9C637.6,579.6,638,568,634.9,559.8z M417.5,643.1c1.8,5.5,3.2,13.1-0.3,19.4
	c-2,3.7-6.6,8.5-17.3,10.7c-12.7,2.6-24.9-4.1-31.5-7.8c-2.5-1.4-4.5-2.6-6-3.5c0.3,0.1,0.6,0.2,0.9,0.3c4.4,1.4,11.1,3.5,18.9,3.8
	c1.6,0.1,3.3,0.1,5,0.1c5.8,0,12-0.7,18-4.8C411.7,656.9,415.7,650.1,417.5,643.1z M451.3,585.3c-0.2,0-0.3,0-0.5,0
	c-7,0.1-14.8,1.7-21.2,4.5c-8.2,3.6-14,8.8-16.6,15.2c-1.1,2.6-2.1,6.5-2.5,11c-0.1-0.1-0.1-0.2-0.2-0.3c-1.1-1.5-2-2.7-2.3-3.5
	c-0.1-0.2-9.2-22.4,3.2-35.8c5.7-6.1,14-9,24.9-8.4l0.2,0c17,0.9,28.6,14.7,32.8,20.7c0,0,0,0,0,0
	C463.1,586.4,457.2,585.3,451.3,585.3z M452.3,518.5c-6-5.5-5.7-14.2-2.4-19.6c4.3-7.1,13.5-7.2,16.2-7.1c7.1,0.3,12.1,4.4,14.5,7.1
	c-8.1,5.4-11.8,13.1-11.8,19.3c0,1,0.1,1.9,0.3,2.9C463.3,523.6,456.7,522.6,452.3,518.5z M534.3,581.1c-4.9,2.7-11.4,3.2-17.4,1.3
	c-5.4-1.7-9.7-5-11.9-9.2c-2.3-4.5-1.8-9.4-1.1-12.7c0.3-1.1-0.1-2.4-0.9-3.2c-0.8-0.8-2-1.2-3.2-0.9c-4.6,1.1-9.1,1.4-13.6,0.7
	c-15.5-2.3-26.5-12.9-26.6-20.9c0-2.3,0.7-4.7,2.2-7.1c0.2,0,0.4,0,0.6,0c3,0,6-0.6,8.9-1.8c1.6,2.9,4,5.6,7.1,7.9
	c5.1,3.9,11.9,6.7,18.1,7.4c3.6,0.4,7.2,0.2,10.7-0.6c-0.7,5.6-0.5,13.7,4.4,20.8c5.1,7.3,14.1,12,24,12.6c1.6,0.1,3.2,0.1,4.7,0
	C539,577.6,537,579.6,534.3,581.1z M572.5,627.6c-8.9,9.6-26.9,9.5-39.3,4.6c-5.1-2-10.3-5.4-17.5-10.5c2.2,0.2,4.4,0.2,6.8-0.1
	c5.3-0.6,19.4-2,24.3-13.5c3.5-8.2,1.8-17.8-4.3-24.6c3.4-3.2,5.5-6.8,6.7-9.7c0.1-0.2,0.1-0.3,0.1-0.5c1-0.4,1.9-0.9,2.7-1.5
	c-0.1,9,6.1,18.5,13.9,23.2c3.1,1.9,6.5,3,10.1,3.5l-0.2,0.1c1.7,2.7,3.6,7.1,3.6,12.6C579.4,611.3,579.2,620.4,572.5,627.6z
	 M602.1,607.9c-1.4,8.5-9.4,15.3-19.6,17c3.6-7,3.7-13.3,3.7-13.7c0.1-5.1-1.2-9.5-2.7-12.8c4.9-0.6,9.8-2.3,14.4-5.2
	C599.8,596,603.1,601.6,602.1,607.9z M624.9,581.9c-5.6,5.1-14.3,5.5-21.1,1c-1.3-0.9-3.1-0.7-4.2,0.4c-8.9,8.6-21.5,11-30.1,5.8
	c-7.3-4.4-13.1-15-9.5-21.9c1.9-3.8,6.5-7,11.2-7c0.9,0,1.9,0.1,2.8,0.4c4.4,1.3,7.8,5.4,8.5,10.5c0.3,1.9,2,3.1,3.9,2.9
	c1.9-0.3,3.1-2,2.9-3.9c-1.2-7.7-6.4-14-13.3-16c-5.3-1.5-10.6-0.3-14.8,2.3c0.5-4.8-0.6-9.3-3.3-12.8c-6.1-8.2-17.6-10.1-26.2-4.4
	c-1.6,1-2,3.1-1,4.7c1,1.6,3.1,2,4.7,1c5.5-3.7,13.2-2.4,17,2.8c2.5,3.4,3.3,11-1.6,16.4c-3,3.3-8.4,5-14.6,4.6
	c-7.8-0.5-15.1-4.2-18.9-9.7c-5.6-8-3.1-18.1-2.2-20.9c0.4-1.3,0-2.6-1-3.5c-1-0.9-2.4-1.1-3.6-0.6c-4.4,1.8-8.8,2.5-13.2,2
	c-8.9-1-21.7-8-21.8-17.8c0-8.3,8.9-14.3,13.7-16.2c8.6-3.6,19-1.7,27.2,4.9c0.7,0.6,1.7,0.8,2.6,0.7c0.9-0.1,1.8-0.6,2.3-1.4
	c6.1-8.6,16.9-12.6,27-9.9c9.6,2.6,16.8,10.7,18.3,20.7c0.1,1,0.7,1.9,1.6,2.4c0.9,0.5,1.9,0.6,2.9,0.3c18.3-6.6,41.7-4.6,47.6,9
	c1,2.2,2.7,8.4-2.2,18.4c-0.4,0.8-0.5,1.8-0.1,2.6c0.3,0.9,1,1.6,1.8,1.9c2.3,1,7.9,4.1,10.4,10.7
	C630.9,568.3,630.6,576.7,624.9,581.9z M326.1,97.1c-23.5-26.5-19.9-36.1-10.6-32.4c9.2,3.7,23.2,10.3,47.6,13.4
	c0,0,9.8-28.1,37-28.1s37,28.1,37,28.1c24.4-3.1,38.4-9.8,47.6-13.4c9.2-3.7,12.9,5.9-10.6,32.4c-23.5,26.5-54.1,28.3-73.9,28.3
	S349.6,123.6,326.1,97.1z M99.9,385.1H54.5c7.7-144,103.5-264.5,234.4-308.9v40.1v15.8v2.3H400h111.1v-2.3v-17v-39
	C642,120.6,737.8,241.2,745.5,385.1h-45.4H693H561.5v-50.3h123.9c-17.7-73.1-62.7-135.6-123.7-175.9v25.9H400H238.3v-25.9
	c-61,40.3-106,102.7-123.7,175.9h123.9v50.3H107H99.9z M401.2,567.1c-7.6,8.2-11,19.5-9.9,32.5c0.8,9.5,3.8,16.9,4.2,17.7
	c0.9,2.2,2.3,4.1,3.8,6.2c1.4,1.9,3,4.2,4.9,7.4l0,0.1c0.2,0.4,0.4,0.8,0.7,1.1c0.9,5.6-1.8,14.2-7.3,17.9
	c-2.5,1.7-5.5,2.4-10.4,2.4c-1.4,0-2.9-0.1-4.4-0.1c-6-0.2-11.2-1.8-15.4-3.2c-0.3-0.1-0.6-0.2-0.8-0.3V484.7H257.7
	c-8.8-15.4-15.1-32.3-18.5-50.3h127.2V285.5H196c10.8-18.5,24-35.5,39.2-50.3H400h164.8C580,250,593.3,267,604,285.5H433.6v148.9
	h127.2c-3.2,16.9-8.9,32.9-16.9,47.5c-0.6,0-1.2,0-1.8,0c-5.1,0-10.1,1-14.7,2.9h-42.6c-4.4-3.2-10.5-6.1-18.2-6.4c-0.5,0-1,0-1.5,0
	c0,0,0,0,0,0c-4.2,0-13.2,0.8-20.5,6.5h-11.1v69.6c0,0,0,0-0.1,0C420.1,554.3,408.9,558.8,401.2,567.1z M692.1,433.3h52.6
	C729.9,610.7,581.2,750,400,750S70.1,610.7,55.2,433.3h52.6c13.6,137.3,121.9,246.8,258.6,262.3v-15.8c6.7,3.4,16.5,7.6,27.5,7.6
	c2.9,0,5.8-0.3,8.6-0.9c15.8-3.2,23.1-11.3,26.5-17.5c8.1-14.8,1.2-31-1.4-37c-1.1-2.6-2.4-5-3.6-7.1c0-0.1,0-0.1,0-0.2
	c-1-6.8,0.6-12.8,1.4-14.6c0.8-1.9,3.5-4.9,8.1-7.3v92.8c48-5.5,92.5-22.5,130.6-48.3c6.3-1.6,11.8-4.5,16.3-8.6
	c17.8-1.2,32.6-13.2,35-28.8c0.4-2.4,0.4-4.8,0.3-7c1.2-1.3,2.4-2.7,3.6-4c5.5-1,10.5-3.4,14.6-7.1c7.2-6.5,9.8-15.4,9.4-23.8
	C669.9,528.9,687.2,483,692.1,433.3z"/>
</svg>
