<?xml version="1.0" encoding="utf-8"?>
<!-- Generator: Adobe Illustrator 22.1.0, SVG Export Plug-In . SVG Version: 6.00 Build 0)  -->
<svg version="1.1" id="图层_1" xmlns="http://www.w3.org/2000/svg" xmlns:xlink="http://www.w3.org/1999/xlink" x="0px" y="0px"
	 viewBox="0 0 800 800" style="enable-background:new 0 0 800 800;" xml:space="preserve">
<style type="text/css">
	.st0{fill:#01A149;}
	.st1{fill:#FFFFFF;}
	.st2{fill:#020202;}
	.st3{fill:#D80E18;}
	.st4{fill:#FFE328;}
</style>
<circle class="st0" cx="400.6" cy="404.6" r="280.6"/>
<circle class="st1" cx="400" cy="518.6" r="158.5"/>
<path class="st2" d="M352.1,393.1l47.9,12.3l47.9-12.3v-4.3c0,0-1.1-14-47.9-14s-47.9,14-47.9,14V393.1z"/>
<path class="st2" d="M264.2,533l24.3-43.1l0.6-49.4l-4.1-1.1c0,0-13.8-2.5-25.9,42.6c-12.1,45.2,1,49.9,1,49.9L264.2,533z"/>
<path class="st2" d="M534.3,533L510,489.9l-0.6-49.4l4.1-1.1c0,0,13.8-2.5,25.9,42.6c12.1,45.2-1,49.9-1,49.9L534.3,533z"/>
<path class="st2" d="M362.6,650.1l-30.5-39l-45.4-19.5l-2.6,3.4c0,0-7.6,11.8,29.4,40.3c37,28.5,46.5,18.2,46.5,18.2L362.6,650.1z"
	/>
<path class="st2" d="M515.2,589.3l-45.1,20.3l-29.8,39.5l2.7,3.3c0,0,9.6,10.2,46.1-19s28.7-40.8,28.7-40.8L515.2,589.3z"/>
<g>
	<path d="M363,482.7c0,0-2.5,0-16.2,0c-13.7,0-38.5,10-38.5,38.5c0,28.5,23.3,37.8,34.7,37.8h14.7c2.7,0,5-2.2,5-5v-12
		c0,0-8.5,0-15.7,0c-7.2,0-20.8-5-20.8-20.8c0-15.8,14.6-20.3,21.5-20.3H358c2.7,0,5-2.2,5-5V482.7z"/>
	<path d="M394.1,535.7h14.3c2.1,0,3.9-1.3,4.7-3.2l5.7-15h-24.9v-16.4h27.8c2.1,0,3.9-1.3,4.7-3.2l5.7-14.8l0-0.4h-56.7V559h18.9
		V535.7z"/>
	<g>
		<path d="M439,549h0.2l6.9-17.7h-0.2l11.3-29.2l0.1,0.3l7.6-19.7h-15.5l0.1,0.2h-1.5c-2.1,0-3.9,1.3-4.6,3.2L415.2,559h19.9
			L439,549z"/>
		<polygon points="469.5,483.1 459.7,508.4 468.7,531.3 450.8,531.3 443.9,549 475.8,549 479.6,558.7 499.5,558.7 		"/>
	</g>
</g>
<path class="st3" d="M713.2,280.5c14.5,37.9,22.1,78.5,22.1,120.3c0,89.6-34.9,173.8-98.2,237.1c-63.3,63.3-147.5,98.2-237.1,98.2
	c-89.6,0-173.8-34.9-237.1-98.2c-63.3-63.3-98.2-147.5-98.2-237.1c0-42.1,7.7-83,22.5-121.1l-12.6-5C59.3,313.8,51,356.3,51,400.8v0
	c0,192.7,156.3,349,349,349h0c192.7,0,349-156.3,349-349v0c0-44.2-8.2-86.4-23.2-125.3L713.2,280.5z"/>
<path class="st3" d="M689.1,290.1c13.1,34.5,20,71.5,20,109.6v2.3c0,82.3-32,159.6-90.2,217.7c-58.2,58.2-135.5,90.2-217.7,90.2
	h-2.3c-82.3,0-159.6-32-217.7-90.2C122.9,561.6,90.9,484.2,90.9,402v-2.3c0-38.4,7-75.6,20.3-110.4l-12.6-5
	C84.8,320.1,77.2,359,77.2,399.7v2.3c0,177.6,144,321.6,321.6,321.6h2.3c177.6,0,321.6-144,321.6-321.6v-2.3c0-40.4-7.5-79-21-114.6
	L689.1,290.1z"/>
<g>
	<g>
		<g>
			<g>
				<path class="st3" d="M568.6,115.3c0.8-1.4,1.2-2,2-3.4c-2-1.2-3-1.7-5-2.9c3.2-5.7,4.8-8.5,8-14.2c-4.8-2.7-7.3-4-12.2-6.5
					c-3,5.8-4.4,8.7-7.4,14.5c-2.1-1-3.1-1.6-5.2-2.6c-0.7,1.4-1,2.1-1.7,3.5c2,1,3.1,1.5,5.1,2.5c-5.5,10.9-11.1,21.7-16.6,32.6
					c4.1,2.1,6.2,3.2,10.2,5.4c6-10.6,11.9-21.3,17.9-31.9C565.6,113.6,566.6,114.2,568.6,115.3z"/>
				<path class="st3" d="M601.5,120.4c-1.2-0.8-1.7-1.2-2.9-2.1c1.7-2.1,2.6-3.1,4.3-5.2c-4-2.8-6.1-4.2-10.2-6.9
					c-1.6,2.1-2.5,3.2-4.1,5.4c-4.5-2.9-6.7-4.3-11.3-7c-0.8,1.4-1.2,2-2,3.4c4.4,2.6,6.6,3.9,10.9,6.7
					c-9.3,12.4-18.5,24.9-27.6,37.4c3.5,2.2,5.2,3.3,8.6,5.6c9.5-12.2,19.2-24.3,28.9-36.4c1.3,0.9,1.9,1.3,3.1,2.2
					c-7.7,10.9-15.4,21.7-23.2,32.6c-0.9,1.3-3,1.4-4.6,0.3c-0.3-0.2-0.4-0.3-0.7-0.5c-0.8,1.2-1.3,1.8-2.1,3c1.4,1,2.2,1.5,3.6,2.5
					c0.2,0.2,0.3,0.2,0.6,0.4c2.2,1.6,3.4,2.4,5.6,4.1c1.8,1.4,4.2,1.3,5.4-0.2c9.6-12.4,19.2-24.9,28.8-37.3
					c-0.3-0.2-0.4-0.3-0.7-0.6C607.8,124.9,605.7,123.3,601.5,120.4z"/>
				<path class="st3" d="M574.4,111.5c-8.4,11.4-16.6,23-24.8,34.5c2.7,1.5,4,2.3,6.6,3.9c8.5-11.4,17-22.7,25.7-33.9
					C578.9,114.2,577.4,113.3,574.4,111.5z"/>
				<path class="st3" d="M610.3,136.1c-8.7,11.1-17.4,22.2-26.2,33.3c1.7,1.4,2.6,2.1,4.3,3.5c8.9-10.9,17.8-21.9,26.8-32.8
					C613.3,138.5,612.3,137.7,610.3,136.1z"/>
			</g>
			<g>
				<path class="st3" d="M665.4,191.8c6,1.3,9.1,2,15.2,3.7c6,8.2,8.9,12.5,14.4,21.3c-0.7,6.4-1.1,9.6-2,15.9
					c3.8,6.5,5.6,9.8,9,16.6c1.7-8.8,2.4-13.3,3.6-22.4c-0.8-1.4-1.2-2-2-3.4c-3.1-5.4-4.8-8-8.1-13.2c-3.5-5.4-5.3-8-8.9-13.2
					c-4.4-6.2-6.6-9.2-11.3-15.1c-2-2.5-3-3.8-5.1-6.3c-0.3,2-0.4,3-0.7,5c-6.3-1.3-9.4-1.9-15.6-2.8
					C658.7,183.4,661,186.1,665.4,191.8z"/>
				<path class="st3" d="M650.3,185.5c16.5,19.9,30.4,40.5,42.8,63.1c1.4-0.7,2.1-1.1,3.5-1.8C684,224,669.9,203.1,653.2,183
					C652,184,651.4,184.5,650.3,185.5z"/>
				<path class="st3" d="M640.9,189.3c4.6,5.3,6.9,8,11.3,13.6c-9.7,0.6-19.6,1.8-29.3,3.4c2.4,2.8,3.6,4.2,6,7.1
					c1.6,1.9,2.3,2.9,3.9,4.9c8.7,11.1,16.3,22.9,23.7,35c0.8,1.4,1.2,2,1.9,3.4c1.2,2,1.7,3.1,2.8,5.1c2.3,0.5,2.9,0.6,5.2,1.2
					c3.8-7.1,5.6-10.7,9-18c-3.4-5.9-5.1-8.8-8.7-14.4c-3.1,7.5-4.8,11.2-8.2,18.5c-6.4-10.8-13.4-21.3-21.1-31.2
					c9.8-0.9,14.8-1.2,24.9-1.3c8.7,12.9,16.6,26.1,24,39.8c1.4-0.7,2.1-1.1,3.5-1.8c-13.1-24.4-28.1-46.8-46-67.9
					C642.7,187.7,642.1,188.3,640.9,189.3z"/>
			</g>
			<path class="st3" d="M141.5,175c-3.7,4.2-5.4,6.4-9,10.8c-4.5,5.6-6.7,8.5-11,14.5c-2.6-1.9-3.9-2.8-6.5-4.7
				c-3.6,5.1-5.4,7.7-8.9,13c2.7,1.8,4,2.7,6.7,4.4c-2.9,4.4-4.2,6.6-7,11.1c-1,1.7-1.6,2.6-2.6,4.4c1.4,0.8,2,1.2,3.4,2
				c3.6-6.3,5.5-9.3,9.4-15.3c8.2,5.4,16.5,10.9,24.7,16.3c-4,6.1-5.9,9.2-9.6,15.6c-9.7-5.6-19.4-11.2-29-16.8
				c-3,5.2-4.5,7.9-7.3,13.3c-0.6,1.1-0.9,1.7-1.5,2.8c0.2,0.1,0.4,0.1,0.7,0c1.6-0.5,2.3-0.7,3.9-1.2c8.9,4.6,17.8,9.3,26.6,13.9
				c1.4,0.7,2.1,1.1,3.5,1.8c2.5-4.8,3.8-7.2,6.5-11.9c3.6-6.3,5.5-9.4,9.5-15.4c3.9,2.6,5.9,3.9,9.8,6.5c2.9-4.4,4.4-6.6,7.4-10.9
				c-3.8-2.8-5.7-4.2-9.5-6.9c3.8-5.3,5.8-7.9,9.8-12.9c0.4-0.5,0.6-0.7,1-1.2c1.7-2.1,2.6-3.1,4.3-5.2c1.6-1.9,1.8-4.4,0.4-5.6
				c-8.5-7.5-17.1-15.1-25.6-22.6C141.6,174.8,141.6,174.9,141.5,175z M158.6,206.9c-4.1,5.1-6,7.7-9.9,13.1c-8-5.8-16-11.6-24-17.4
				c4.2-5.9,6.4-8.7,10.8-14.3C143.3,194.4,150.9,200.7,158.6,206.9z"/>
			<g>
				<path class="st3" d="M229.2,146.7c-4.4,2.9-6.6,4.5-10.9,7.6c0.9,1.3,1.4,1.9,2.3,3.2c10.6-7.8,21.8-14.9,33.3-21.2
					c-0.8-1.4-1.1-2.1-1.9-3.5c-5.1,2.8-7.7,4.3-12.7,7.3c-4.1-6.8-6.2-10.1-10.4-16.9c5.3-3.2,7.9-4.8,13.3-7.7
					c-0.8-1.4-1.1-2.1-1.9-3.5c-5.5,3-8.2,4.5-13.5,7.8c-1.7-2.8-2.5-4.1-4.2-6.9c5.5-3.3,8.2-4.9,13.8-8c-0.8-1.4-1.1-2.1-1.9-3.5
					c-13,7.4-25.4,15.3-37.7,24c0.9,1.3,1.4,1.9,2.3,3.2c4.8-3.5,7.2-5.2,12.2-8.5c1.8,2.7,2.7,4,4.5,6.7c-4.8,3.2-7.2,4.9-11.9,8.3
					c0.9,1.3,1.4,1.9,2.3,3.2c4.6-3.4,7-5.1,11.7-8.2C222.6,136.8,224.8,140.1,229.2,146.7z"/>
				<path class="st3" d="M231.5,126.1c4.5,3.6,6.7,5.4,11.1,9.1c3.5-2,5.2-3,8.7-4.9c-4.2-3.8-6.4-5.7-10.8-9.5
					C236.9,122.9,235,124,231.5,126.1z"/>
				<path class="st3" d="M239,89.7c-2.3,1.2-3.4,1.8-5.7,3c-9.8,5.5-19.3,11.1-28.7,17.2c-4.8,3.2-7.2,4.9-11.9,8.3
					c0.9,1.3,1.4,1.9,2.3,3.2c12.8-9.3,26.2-17.8,40.1-25.2c7.5,14,15.1,27.9,22.6,41.9c-12.9,7.2-25.1,15-37.1,23.6
					c-10.3-13.8-20.6-27.6-30.8-41.3c-4.5,3.3-6.7,5.1-11.1,8.6c0,0,0,0,0,0c0,0,0,0,0,0c-0.9,0.7-1.3,1.1-2.2,1.8
					c0.1,0.2,0.4,0.3,0.6,0.3c1.5,0.2,2.2,0.3,3.7,0.6c10.9,13.5,21.8,27,32.8,40.5c2.5-2.1,3.8-3.1,6.4-5.1
					c1.2-0.9,1.7-1.3,2.9-2.2c11.9-8.5,23.9-16.1,36.6-23.3c0.6-0.3,0.9-0.5,1.5-0.8c2.1-1.1,3.1-1.6,5.2-2.7c2-1,3-3.2,2.2-4.8
					c-7.6-15.6-15.3-31.2-22.9-46.8C242.9,87.7,241.6,88.4,239,89.7z"/>
			</g>
			<path class="st3" d="M350.1,106.4c-1.2-6.8-1.7-10.2-2.9-17c9.2-1.6,18.7-2.7,28.1-3.4c-0.1-1.7-0.2-2.6-0.3-4.3
				c-9.5,0.7-19.1,1.9-28.4,3.5c-0.5-3-0.8-4.6-1.3-7.6c5-0.8,7.5-1.2,12.6-1.9c0,0,0,0,0,0c5-0.6,7.5-0.9,12.5-1.4
				c2.5-0.2,4.3-1.9,4.2-3.7c-0.6-7.6-0.9-11.3-1.5-18.9c-7.2,0.6-10.9,0.9-18.1,1.9c-12.5,1.6-25,3.9-37.3,6.8
				c0.5,2,0.7,3.1,1.2,5.1c12.1-2.9,24.4-5.1,36.7-6.7c0.7,5.1,1,7.6,1.7,12.7c-13,1.7-25.9,4.1-38.7,7.2c-1.8-7-2.7-10.5-4.4-17.5
				c-3.6,0.9-5.4,1.4-9.1,2.4c-3.4,0.9-5.1,1.4-8.5,2.5c0,0,0,0,0,0c0,0,0,0,0,0c-1,0.3-1.6,0.5-2.6,0.8c0.1,0.2,0.2,0.4,0.4,0.5
				c1.3,0.8,1.9,1.2,3.2,2c2.2,7.2,3.3,10.8,5.6,18c6.1-1.8,9.1-2.7,15.3-4.2c0,0,0,0,0,0c5.4-1.4,8.1-2,13.5-3.1
				c2,9.5,4.1,19.1,6.1,28.6c-5.6,1.2-8.3,1.8-13.9,3.2c-0.4-10.7-0.6-16-0.6-26.7c-5.5,1.3-8.2,2-13.6,3.5
				c0.5,10.4,1.2,20.7,2.1,31c2-0.6,3-0.9,4.9-1.5c2.9-0.8,4.4-1.2,7.4-2c18.2-4.3,36.1-7.3,54.7-9c-0.1-1.7-0.2-2.6-0.3-4.3
				C369.2,103.6,359.6,104.8,350.1,106.4z"/>
			<g>
				<path class="st3" d="M493.6,87.9c2.8-4.4,4.2-6.6,7-11c-4.2-1.3-6.2-1.8-10.4-3c-2.7,4.4-4,6.7-6.7,11.2
					C487.5,86.2,489.6,86.8,493.6,87.9z"/>
				<path class="st3" d="M492.1,90.2c-4-1.2-6-1.7-10.1-2.7c-0.2,10.2-0.7,20.4-1.4,30.6c3.6,1,5.5,1.5,9.1,2.7
					C490.8,110.6,491.6,100.4,492.1,90.2z"/>
				<g>
					<path class="st3" d="M440.9,103.9c1.3-9.9,2-14.9,3.3-24.8c2.4,0.3,3.6,0.5,6.1,0.9c0.2-1.6,0.4-2.3,0.6-3.9
						c-2.5-0.4-3.7-0.5-6.1-0.9c0.8-6.1,1.2-9.1,2.1-15.2c3.3,0.4,4.9,0.7,8.2,1.2c0.3-1.6,0.4-2.4,0.6-4c-9.9-1.6-20-2.7-30-3.4
						c-0.1,1.6-0.2,2.4-0.3,4c3.3,0.2,5,0.4,8.3,0.7c-0.6,6.1-0.9,9.2-1.5,15.3c-2.5-0.2-3.7-0.3-6.2-0.5c-0.1,1.6-0.2,2.4-0.3,3.9
						c2.4,0.2,3.7,0.3,6.1,0.5c-1,10.3-1.5,15.4-2.5,25.7c-3-0.1-4.6-0.1-7.6-0.1c0.1,1.6,0.1,2.4,0.1,3.9c9.7,0,14.6,0.1,24.3,0.9
						c0.1-1.6,0.1-2.4,0.2-3.9C444.2,104.1,443.1,104,440.9,103.9z"/>
					<path class="st3" d="M466.2,68.5c-4.2-0.8-6.4-1.2-10.6-1.9c0.6,5.2,0.9,7.7,1.4,12.9c4.1,0.7,6.2,1.1,10.2,1.9
						C466.8,76.3,466.6,73.7,466.2,68.5z"/>
					<path class="st3" d="M457.9,82.3c-4,9.4-7.9,18.9-11.5,28.4c3.7,0.6,5.6,0.9,9.3,1.6c3.9-9.4,8-18.8,12.4-28.1
						C464.1,83.4,462,83,457.9,82.3z"/>
					<path class="st3" d="M501.7,70.4c0.4-1.2,0.5-1.7,0.9-2.9c-3.7-1.1-5.5-1.6-9.2-2.6c-0.3,1.2-0.5,1.7-0.8,2.9
						c-2.4-0.6-3.6-1-6-1.6c0.5-2,0.8-3,1.3-5c-2.7-0.7-4.1-1-6.8-1.6c-2.6-0.6-3.9-0.9-6.5-1.4c0,0,0,0,0,0c0,0,0,0,0,0
						c-1-0.2-1.5-0.3-2.5-0.5c0,0.2,0,0.4,0.1,0.6c0.7,1.2,1,1.8,1.7,3c-0.2,0.7-0.2,1.1-0.4,1.9c-6.9-1.5-10.4-2.1-17.4-3.2
						c-0.3,1.6-0.4,2.4-0.6,4c6.9,1.1,10.3,1.7,17.2,3.2c-3,13.8-5.9,27.6-8.9,41.4c-0.2,1.1-1.4,1.7-2.7,1.4
						c-1.1-0.2-1.6-0.3-2.7-0.5c-0.3,1.3-0.4,2-0.6,3.3c2,0.4,3,0.6,5,1c0.1,0,0.2,0,0.4,0.1c2.7,0.6,4.1,0.9,6.8,1.5
						c2.2,0.5,4.3-0.5,4.7-2.3c3.6-14.3,7.3-28.6,10.9-42.8c6.8,1.7,10.2,2.6,16.9,4.7c0.5-1.5,0.7-2.3,1.2-3.9
						C502.9,70.8,502.5,70.6,501.7,70.4z"/>
				</g>
			</g>
		</g>
	</g>
</g>
<g>
	<rect x="202.5" y="275.6" class="st4" width="396.9" height="4.6"/>
	<path class="st4" d="M617.7,330.4l-8.9-43.3H193.2l-8.9,43.3h111.8v-11c0-6.9,5.6-12.5,12.5-12.5c6.9,0,12.5,5.6,12.5,12.5v11h20.5
		v-11c0-6.9,5.6-12.5,12.5-12.5s12.5,5.6,12.5,12.5v11h20.5v-16.7c0-7.6,6.1-13.7,13.7-13.7s13.7,6.1,13.7,13.7v16.7h20.5v-11
		c0-6.9,5.6-12.5,12.5-12.5s12.5,5.6,12.5,12.5v11h20.5v-11c0-6.9,5.6-12.5,12.5-12.5c6.9,0,12.5,5.6,12.5,12.5v11H617.7z"/>
	<path class="st4" d="M505.9,225.6c13.1-4.3,13.7-16,13.7-16s-22.8,1.7-22.8-18.2c0-20-16-23.1-16-23.1v13.8H401h-79.8v-13.8
		c0,0-16,3.1-16,23.1c0,20-22.8,18.2-22.8,18.2s0.6,11.7,13.7,16c0,11.1-25.1,13.4-25.1,13.4s1.7,13.4,16,16.5v13.2h9.1v-10.2
		c0-1.9,1.5-3.4,3.4-3.4h9.1c1.9,0,3.4,1.5,3.4,3.4v10.2h6.8v-10.2c0-1.9,1.5-3.4,3.4-3.4h9.1c1.9,0,3.4,1.5,3.4,3.4v10.2h6.8v-10.2
		c0-1.9,1.5-3.4,3.4-3.4h9.1c1.9,0,3.4,1.5,3.4,3.4v10.2h6.8v-10.2c0-1.9,1.5-3.4,3.4-3.4h9.1c1.9,0,3.4,1.5,3.4,3.4v10.2h6.8v-10.2
		c0-1.9,1.5-3.4,3.4-3.4H401h10.3c1.9,0,3.4,1.5,3.4,3.4v10.2h6.8v-10.2c0-1.9,1.5-3.4,3.4-3.4h9.1c1.9,0,3.4,1.5,3.4,3.4v10.2h6.8
		v-10.2c0-1.9,1.5-3.4,3.4-3.4h9.1c1.9,0,3.4,1.5,3.4,3.4v10.2h6.8v-10.2c0-1.9,1.5-3.4,3.4-3.4h9.1c1.9,0,3.4,1.5,3.4,3.4v10.2h6.8
		v-10.2c0-1.9,1.5-3.4,3.4-3.4h9.1c1.9,0,3.4,1.5,3.4,3.4v10.2h9.1v-13.2c14.3-3.1,16-16.5,16-16.5S505.9,236.7,505.9,225.6z
		 M311.7,188.4c0.2-1.1,1.1-1.9,2.2-1.9H401h87.1c1.1,0,2,0.8,2.2,1.9l1.9,11.2c0.1,0.4-0.2,0.7-0.6,0.7h-3c-0.4,0-0.8-0.3-0.9-0.7
		l-1.7-6.9c-0.2-1-1.1-1.6-2.1-1.6H401h-82.9c-1,0-1.9,0.7-2.1,1.6l-1.7,6.9c-0.1,0.4-0.5,0.7-0.9,0.7h-3c-0.4,0-0.7-0.3-0.6-0.7
		L311.7,188.4z M291,215l1-1c0,0,8,6,13,7h96h96c5-1,13-7,13-7l1,1c-1,6-14,11-14,11l5,6h-3l-4-4h-94h-94l-4,4h-3l5-6
		C305,226,292,221,291,215z M513,251H401H289c0,0-7,0-9-8l3-2c0,0,2.5,2.5,6,3h112h112c3.5-0.5,6-3,6-3l3,2C520,251,513,251,513,251
		z"/>
</g>
</svg>
