<?xml version="1.0" encoding="utf-8"?>
<!-- Generator: Adobe Illustrator 22.1.0, SVG Export Plug-In . SVG Version: 6.00 Build 0)  -->
<svg version="1.1" id="图层_1" xmlns="http://www.w3.org/2000/svg" xmlns:xlink="http://www.w3.org/1999/xlink" x="0px" y="0px"
	 viewBox="0 0 800 800" style="enable-background:new 0 0 800 800;" xml:space="preserve">
<style type="text/css">
	.st0{fill:#006C54;}
	.st1{fill:#01A149;}
	.st2{fill:#FFFFFF;}
	.st3{fill:#FFE328;}
	.st4{fill:#D80E18;}
</style>
<g>
	<g>
		<g>
			<polygon class="st0" points="229.6,680.8 212.8,680.8 212.8,687.2 263.9,687.2 263.9,680.8 245.1,680.8 245.1,648.8 263.6,648.8 
				263.6,642.5 245.1,642.5 245.1,629.4 263.6,629.4 263.6,623 212.6,623 212.6,629.4 229.6,629.4 229.6,642.5 212.6,642.5 
				212.6,648.8 229.6,648.8 			"/>
			<polygon class="st0" points="245.8,654.8 251.7,676.7 264.4,676.7 258.5,654.8 			"/>
			<polygon class="st0" points="494.7,647.8 499,627.6 486.2,627.6 482,647.8 			"/>
			<polygon class="st0" points="493.8,651.9 481,651.9 489.5,700.3 502.3,700.3 			"/>
			<g>
				<polygon class="st0" points="545.6,640.9 545.6,634.5 538.8,634.5 538.8,608.2 523.4,608.2 523.4,634.5 516.6,634.5 
					516.6,640.9 523.4,640.9 523.4,699.9 538.8,699.9 538.8,640.9 				"/>
				<path class="st0" d="M580.8,618.9h-4l0.6-10.9h-13.6l-0.6,10.9H548v6.4h14.7l-3.9,74.8h13.6l3.9-74.8h4.4v64.5
					c0,2.6-2.1,4.7-4.7,4.7H575v5.9h5.8h0.9h9.1c3,0,5.5-2.4,5.5-5.5v-76h-1H580.8z"/>
				<polygon class="st0" points="549.2,630.8 544.4,699.1 554.6,699.1 559.3,630.8 				"/>
				<rect x="599.4" y="630.8" class="st0" width="7.3" height="68.3"/>
			</g>
			<g>
				<polygon class="st0" points="644.6,631.2 657.7,615.2 684.4,615.2 697.4,631.2 717,631.2 698.8,608.9 694.9,608.9 679.2,608.9 
					662.8,608.9 643.2,608.9 634.7,608.9 638.3,614.9 625,631.2 				"/>
				<rect x="628.5" y="637.4" class="st0" width="83.6" height="6.4"/>
				<path class="st0" d="M624.7,659.1h20.4l-19.4,40h11.7h7.8h51.6h4.7h7c1.8-2.8,2.3-3.7,4.1-6.5l-13-26.8h-18.9l13.1,27h-45.4
					l16.3-33.6h51.5v-6.4h-91.4V659.1z"/>
			</g>
			<path class="st0" d="M173.3,620.9h-15.1h-19.4v-13h-16.2v13H109h-5.2v6.4h18.9v47.9h-21v-54.2H86.2H83c0,0.3,0.1,0.7,0.3,1
				l2.9,4.7v48.5v6.4h15.4h21v19h16.2v-19h19.4h1.8h8.2c3,0,5.5-2.4,5.5-5.5v-55.1H173.3z M158.2,675.2h-19.4v-47.9h19.4V675.2z"/>
			<path class="st0" d="M274.3,609.5h-7.2h-37.5h-16.1v6.4h53.5v76.8h-57.4v-83.2h-15.4v0l0,0h-3.1c0,0.4,0.1,0.7,0.3,1l2.8,4.5v84
				h10.6h4.8h57.4h2.2h7.8c3,0,5.5-2.4,5.5-5.5v-84.1H274.3z"/>
			<path class="st0" d="M354.5,692.1v-27.9h35.7v-6.9h-35.7v-12.5H370v0h15.3c3,0,5.5-2.4,5.5-5.5v-30.6H370h-43.2v8.5H370V638
				h-47.3v-29.2h-10.6H302v0l0,0h-3.1c0,0.4,0.1,0.7,0.3,1l2.8,4.6v30.5h19.3v0h16.9v47.2h-19l7.6-42.2h-17.2l-8.9,49.1h7h10.3h75.2
				v-6.9H354.5z"/>
			<g>
				<polygon class="st0" points="433.3,690.5 433.3,650.1 440.8,650.1 440.8,643.8 433.3,643.8 433.3,618.9 442.9,618.9 
					442.9,612.4 408.2,612.4 408.2,618.9 417.9,618.9 417.9,643.8 410.3,643.8 410.3,650.1 417.9,650.1 417.9,691.9 407.7,692.7 
					408.3,699.1 441.1,696.2 440.6,689.9 				"/>
				<polygon class="st0" points="457.3,627.6 444.5,627.6 448.8,647.8 461.5,647.8 				"/>
				<polygon class="st0" points="450.5,651.9 442,700.3 454.8,700.3 463.4,651.9 				"/>
				<path class="st0" d="M497.9,616.9v-4.9H487v4.9h-7.1v-8.3H472h-7.5v0l0,0h-2.9c0,0.3,0.1,0.7,0.3,0.9l2.6,4.2v3.1H444v6.5h20.4
					v68.3c0,1.7-1.4,3.1-3.1,3.1h-3.7v5.4h6.9h0.5h9.5c3,0,5.5-2.4,5.5-5.5v-71.4h20.4v-6.5H497.9z"/>
			</g>
		</g>
		<g>
			<path class="st0" d="M100.9,737.9l5.2,1.6c-0.8,2.9-2.1,5-4,6.4s-4.2,2.1-7,2.1c-3.5,0-6.4-1.2-8.7-3.6c-2.3-2.4-3.4-5.7-3.4-9.9
				c0-4.4,1.1-7.8,3.4-10.3c2.3-2.4,5.3-3.7,9-3.7c3.2,0,5.9,1,7.9,2.9c1.2,1.1,2.1,2.8,2.7,4.9l-5.3,1.3c-0.3-1.4-1-2.5-2-3.3
				c-1-0.8-2.2-1.2-3.6-1.2c-2,0-3.6,0.7-4.8,2.1s-1.8,3.7-1.8,6.8c0,3.3,0.6,5.7,1.8,7.2s2.8,2.1,4.7,2.1c1.4,0,2.6-0.5,3.7-1.4
				C99.7,741.2,100.4,739.8,100.9,737.9z"/>
			<path class="st0" d="M110.7,747.6v-26.5h5.3v10.4h10.5v-10.4h5.3v26.5h-5.3V736H116v11.6H110.7z"/>
			<path class="st0" d="M137.2,747.6v-26.5h5.3v26.5H137.2z"/>
			<path class="st0" d="M147.7,747.6v-26.5h5.2l10.8,17.7v-17.7h5v26.5h-5.4l-10.7-17.3v17.3H147.7z"/>
			<path class="st0" d="M174.4,747.6v-26.5H194v4.5h-14.3v5.9H193v4.5h-13.3v7.2h14.8v4.5H174.4z"/>
			<path class="st0" d="M197.7,739l5.2-0.5c0.3,1.7,0.9,3,1.9,3.8c1,0.8,2.2,1.2,3.9,1.2c1.7,0,3-0.4,3.9-1.1
				c0.9-0.7,1.3-1.6,1.3-2.6c0-0.6-0.2-1.2-0.6-1.6c-0.4-0.4-1-0.8-1.9-1.1c-0.6-0.2-2.1-0.6-4.3-1.2c-2.9-0.7-4.9-1.6-6-2.6
				c-1.6-1.5-2.4-3.2-2.4-5.3c0-1.3,0.4-2.6,1.1-3.8c0.8-1.2,1.9-2.1,3.3-2.7c1.4-0.6,3.2-0.9,5.2-0.9c3.3,0,5.8,0.7,7.5,2.2
				s2.6,3.4,2.6,5.8l-5.3,0.2c-0.2-1.4-0.7-2.3-1.5-2.9c-0.8-0.6-1.9-0.9-3.4-0.9c-1.6,0-2.8,0.3-3.7,1c-0.6,0.4-0.8,1-0.8,1.6
				c0,0.6,0.3,1.2,0.8,1.6c0.7,0.6,2.3,1.2,4.9,1.8s4.5,1.2,5.8,1.9c1.2,0.7,2.2,1.6,2.9,2.7c0.7,1.1,1.1,2.5,1.1,4.2
				c0,1.5-0.4,2.9-1.3,4.3c-0.8,1.3-2,2.3-3.6,3c-1.5,0.6-3.5,1-5.8,1c-3.3,0-5.9-0.8-7.7-2.3C199.1,744.2,198.1,741.9,197.7,739z"
				/>
			<path class="st0" d="M223.8,747.6v-26.5h19.6v4.5h-14.3v5.9h13.3v4.5h-13.3v7.2h14.8v4.5H223.8z"/>
			<path class="st0" d="M258.8,747.6v-26.5h18.2v4.5h-12.8v6.3h11.1v4.5h-11.1v11.3H258.8z"/>
			<path class="st0" d="M280.2,734.5c0-2.7,0.4-5,1.2-6.8c0.6-1.3,1.4-2.6,2.5-3.6c1-1.1,2.2-1.9,3.4-2.4c1.7-0.7,3.6-1,5.7-1
				c3.9,0,7,1.2,9.4,3.6c2.3,2.4,3.5,5.8,3.5,10.1c0,4.3-1.2,7.6-3.5,10s-5.4,3.6-9.3,3.6c-3.9,0-7.1-1.2-9.4-3.6
				C281.4,742,280.2,738.7,280.2,734.5z M285.8,734.3c0,3,0.7,5.3,2.1,6.8c1.4,1.5,3.1,2.3,5.3,2.3c2.1,0,3.9-0.8,5.2-2.3
				s2.1-3.8,2.1-6.9c0-3-0.7-5.3-2-6.8c-1.3-1.5-3.1-2.2-5.3-2.2c-2.2,0-4,0.8-5.3,2.3C286.4,729,285.8,731.3,285.8,734.3z"/>
			<path class="st0" d="M309,734.5c0-2.7,0.4-5,1.2-6.8c0.6-1.3,1.4-2.6,2.5-3.6c1-1.1,2.2-1.9,3.4-2.4c1.7-0.7,3.6-1,5.7-1
				c3.9,0,7,1.2,9.4,3.6c2.3,2.4,3.5,5.8,3.5,10.1c0,4.3-1.2,7.6-3.5,10c-2.3,2.4-5.4,3.6-9.3,3.6c-3.9,0-7.1-1.2-9.4-3.6
				C310.2,742,309,738.7,309,734.5z M314.5,734.3c0,3,0.7,5.3,2.1,6.8c1.4,1.5,3.1,2.3,5.3,2.3c2.1,0,3.9-0.8,5.2-2.3
				s2.1-3.8,2.1-6.9c0-3-0.7-5.3-2-6.8c-1.3-1.5-3.1-2.2-5.3-2.2s-4,0.8-5.3,2.3C315.2,729,314.5,731.3,314.5,734.3z"/>
			<path class="st0" d="M344.9,747.6v-22H337v-4.5h21.1v4.5h-7.8v22H344.9z"/>
			<path class="st0" d="M361.5,721.1h10.6c2.1,0,3.7,0.1,4.7,0.3c1,0.2,2,0.5,2.8,1.1c0.8,0.6,1.5,1.3,2,2.2c0.5,0.9,0.8,2,0.8,3.1
				c0,1.2-0.3,2.4-1,3.4c-0.7,1-1.6,1.8-2.7,2.3c1.6,0.5,2.9,1.3,3.7,2.4c0.9,1.1,1.3,2.5,1.3,4c0,1.2-0.3,2.4-0.8,3.5
				c-0.6,1.1-1.3,2-2.3,2.7s-2.2,1.1-3.6,1.3c-0.9,0.1-3,0.2-6.5,0.2h-9V721.1z M366.9,725.5v6.1h3.5c2.1,0,3.4,0,3.9-0.1
				c0.9-0.1,1.6-0.4,2.2-0.9c0.5-0.5,0.8-1.2,0.8-2.1c0-0.8-0.2-1.5-0.7-2s-1.1-0.8-2-0.9c-0.5-0.1-2.1-0.1-4.6-0.1H366.9z
				 M366.9,736v7.1h5c1.9,0,3.2-0.1,3.7-0.2c0.8-0.1,1.4-0.5,1.9-1.1c0.5-0.6,0.7-1.3,0.7-2.2c0-0.8-0.2-1.5-0.6-2
				c-0.4-0.6-0.9-1-1.7-1.2c-0.7-0.3-2.3-0.4-4.7-0.4H366.9z"/>
			<path class="st0" d="M412.1,747.6h-5.8l-2.3-6h-10.6l-2.2,6h-5.7l10.3-26.5h5.7L412.1,747.6z M402.3,737.1l-3.7-9.8l-3.6,9.8
				H402.3z"/>
			<path class="st0" d="M415.1,747.6v-26.3h5.3v21.8h13.3v4.5H415.1z"/>
			<path class="st0" d="M437.7,747.6v-26.3h5.3v21.8h13.3v4.5H437.7z"/>
			<path class="st0" d="M492.3,747.6h-5.8l-2.3-6h-10.6l-2.2,6h-5.7l10.3-26.5h5.7L492.3,747.6z M482.4,737.1l-3.7-9.8l-3.6,9.8
				H482.4z"/>
			<path class="st0" d="M493.8,739l5.2-0.5c0.3,1.7,0.9,3,1.9,3.8c1,0.8,2.2,1.2,3.9,1.2c1.7,0,3-0.4,3.9-1.1
				c0.9-0.7,1.3-1.6,1.3-2.6c0-0.6-0.2-1.2-0.6-1.6c-0.4-0.4-1-0.8-1.9-1.1c-0.6-0.2-2.1-0.6-4.3-1.2c-2.9-0.7-4.9-1.6-6-2.6
				c-1.6-1.5-2.4-3.2-2.4-5.3c0-1.3,0.4-2.6,1.1-3.8c0.8-1.2,1.9-2.1,3.3-2.7c1.4-0.6,3.2-0.9,5.2-0.9c3.3,0,5.8,0.7,7.5,2.2
				c1.7,1.5,2.6,3.4,2.6,5.8l-5.3,0.2c-0.2-1.4-0.7-2.3-1.5-2.9c-0.8-0.6-1.9-0.9-3.4-0.9c-1.6,0-2.8,0.3-3.6,1
				c-0.6,0.4-0.8,1-0.8,1.6c0,0.6,0.3,1.2,0.8,1.6c0.7,0.6,2.3,1.2,4.9,1.8s4.5,1.2,5.8,1.9c1.2,0.7,2.2,1.6,2.9,2.7
				c0.7,1.1,1.1,2.5,1.1,4.2c0,1.5-0.4,2.9-1.3,4.3c-0.8,1.3-2,2.3-3.6,3c-1.5,0.6-3.5,1-5.8,1c-3.3,0-5.9-0.8-7.7-2.3
				C495.2,744.2,494.1,741.9,493.8,739z"/>
			<path class="st0" d="M518.5,739l5.2-0.5c0.3,1.7,0.9,3,1.9,3.8c1,0.8,2.2,1.2,3.9,1.2c1.7,0,3-0.4,3.9-1.1
				c0.9-0.7,1.3-1.6,1.3-2.6c0-0.6-0.2-1.2-0.6-1.6c-0.4-0.4-1-0.8-1.9-1.1c-0.6-0.2-2.1-0.6-4.3-1.2c-2.9-0.7-4.9-1.6-6-2.6
				c-1.6-1.5-2.4-3.2-2.4-5.3c0-1.3,0.4-2.6,1.1-3.8c0.8-1.2,1.9-2.1,3.3-2.7c1.4-0.6,3.2-0.9,5.2-0.9c3.3,0,5.8,0.7,7.5,2.2
				c1.7,1.5,2.6,3.4,2.6,5.8l-5.3,0.2c-0.2-1.4-0.7-2.3-1.5-2.9c-0.8-0.6-1.9-0.9-3.4-0.9c-1.6,0-2.8,0.3-3.7,1
				c-0.6,0.4-0.8,1-0.8,1.6c0,0.6,0.3,1.2,0.8,1.6c0.7,0.6,2.3,1.2,4.9,1.8s4.5,1.2,5.8,1.9c1.2,0.7,2.2,1.6,2.9,2.7
				c0.7,1.1,1.1,2.5,1.1,4.2c0,1.5-0.4,2.9-1.3,4.3c-0.8,1.3-2,2.3-3.6,3s-3.5,1-5.8,1c-3.3,0-5.9-0.8-7.7-2.3
				C519.9,744.2,518.8,741.9,518.5,739z"/>
			<path class="st0" d="M543.4,734.5c0-2.7,0.4-5,1.2-6.8c0.6-1.3,1.4-2.6,2.5-3.6c1-1.1,2.2-1.9,3.4-2.4c1.7-0.7,3.6-1,5.7-1
				c3.9,0,7,1.2,9.4,3.6c2.3,2.4,3.5,5.8,3.5,10.1c0,4.3-1.2,7.6-3.5,10c-2.3,2.4-5.4,3.6-9.3,3.6c-3.9,0-7.1-1.2-9.4-3.6
				C544.6,742,543.4,738.7,543.4,734.5z M548.9,734.3c0,3,0.7,5.3,2.1,6.8c1.4,1.5,3.1,2.3,5.3,2.3s3.9-0.8,5.2-2.3s2.1-3.8,2.1-6.9
				c0-3-0.7-5.3-2-6.8c-1.3-1.5-3.1-2.2-5.3-2.2s-4,0.8-5.3,2.3C549.6,729,548.9,731.3,548.9,734.3z"/>
			<path class="st0" d="M590.2,737.9l5.2,1.6c-0.8,2.9-2.1,5-4,6.4s-4.2,2.1-7,2.1c-3.5,0-6.4-1.2-8.7-3.6c-2.3-2.4-3.4-5.7-3.4-9.9
				c0-4.4,1.1-7.8,3.4-10.3c2.3-2.4,5.3-3.7,9-3.7c3.2,0,5.9,1,7.9,2.9c1.2,1.1,2.1,2.8,2.7,4.9l-5.3,1.3c-0.3-1.4-1-2.5-2-3.3
				c-1-0.8-2.2-1.2-3.6-1.2c-2,0-3.6,0.7-4.8,2.1c-1.2,1.4-1.8,3.7-1.8,6.8c0,3.3,0.6,5.7,1.8,7.2s2.8,2.1,4.7,2.1
				c1.4,0,2.6-0.5,3.7-1.4C589,741.2,589.8,739.8,590.2,737.9z"/>
			<path class="st0" d="M599.8,747.6v-26.5h5.3v26.5H599.8z"/>
			<path class="st0" d="M634.2,747.6h-5.8l-2.3-6h-10.6l-2.2,6h-5.7l10.3-26.5h5.7L634.2,747.6z M624.3,737.1l-3.7-9.8l-3.6,9.8
				H624.3z"/>
			<path class="st0" d="M640.2,747.6v-22h-7.9v-4.5h21.1v4.5h-7.8v22H640.2z"/>
			<path class="st0" d="M656.7,747.6v-26.5h5.3v26.5H656.7z"/>
			<path class="st0" d="M666.1,734.5c0-2.7,0.4-5,1.2-6.8c0.6-1.3,1.4-2.6,2.5-3.6c1-1.1,2.2-1.9,3.4-2.4c1.7-0.7,3.6-1,5.7-1
				c3.9,0,7,1.2,9.4,3.6c2.3,2.4,3.5,5.8,3.5,10.1c0,4.3-1.2,7.6-3.5,10c-2.3,2.4-5.4,3.6-9.3,3.6c-3.9,0-7.1-1.2-9.4-3.6
				C667.2,742,666.1,738.7,666.1,734.5z M671.6,734.3c0,3,0.7,5.3,2.1,6.8c1.4,1.5,3.1,2.3,5.3,2.3s3.9-0.8,5.2-2.3s2.1-3.8,2.1-6.9
				c0-3-0.7-5.3-2-6.8c-1.3-1.5-3.1-2.2-5.3-2.2s-4,0.8-5.3,2.3C672.2,729,671.6,731.3,671.6,734.3z"/>
			<path class="st0" d="M696,747.6v-26.5h5.2l10.8,17.7v-17.7h5v26.5h-5.4L701,730.3v17.3H696z"/>
		</g>
	</g>
	<circle class="st1" cx="400.5" cy="306.8" r="201.7"/>
	<circle class="st2" cx="400" cy="388.7" r="114"/>
	<g>
		<rect x="257.3" y="213.3" class="st3" width="285.3" height="3.3"/>
		<path class="st3" d="M555.8,252.6l-6.4-31.2H250.6l-6.4,31.2h80.4v-7.9c0-5,4-9,9-9c5,0,9,4,9,9v7.9h14.8v-7.9c0-5,4-9,9-9
			s9,4,9,9v7.9h14.8v-12c0-5.4,4.4-9.8,9.8-9.8s9.8,4.4,9.8,9.8v12h14.8v-7.9c0-5,4-9,9-9s9,4,9,9v7.9h14.8v-7.9c0-5,4-9,9-9
			c5,0,9,4,9,9v7.9H555.8z"/>
		<path class="st3" d="M306.5,187c0,0,1.2,9.6,11.5,11.9v9.5h6.6V201c0-1.4,1.1-2.5,2.5-2.5h6.6c1.4,0,2.5,1.1,2.5,2.5v7.3h4.9V201
			c0-1.4,1.1-2.5,2.5-2.5h6.6c1.4,0,2.5,1.1,2.5,2.5v7.3h4.9V201c0-1.4,1.1-2.5,2.5-2.5h6.6c1.4,0,2.5,1.1,2.5,2.5v7.3h4.9V201
			c0-1.4,1.1-2.5,2.5-2.5h6.6c1.4,0,2.5,1.1,2.5,2.5v7.3h4.9V201c0-1.4,1.1-2.5,2.5-2.5h7.4h7.4c1.4,0,2.5,1.1,2.5,2.5v7.3h4.9V201
			c0-1.4,1.1-2.5,2.5-2.5h6.6c1.4,0,2.5,1.1,2.5,2.5v7.3h4.9V201c0-1.4,1.1-2.5,2.5-2.5h6.6c1.4,0,2.5,1.1,2.5,2.5v7.3h4.9V201
			c0-1.4,1.1-2.5,2.5-2.5h6.6c1.4,0,2.5,1.1,2.5,2.5v7.3h4.9V201c0-1.4,1.1-2.5,2.5-2.5h6.6c1.4,0,2.5,1.1,2.5,2.5v7.3h6.6v-9.5
			c10.2-2.3,11.5-11.9,11.5-11.9s-18-1.6-18-9.6c9.4-3.1,9.8-11.5,9.8-11.5s-16.4,1.2-16.4-13.1s-11.5-16.6-11.5-16.6v9.9H400h-57.4
			v-9.9c0,0-11.5,2.3-11.5,16.6s-16.4,13.1-16.4,13.1s0.4,8.4,9.8,11.5C324.6,185.3,306.5,187,306.5,187z M335.8,150.6
			c0.1-0.8,0.8-1.3,1.6-1.3H400h62.6c0.8,0,1.4,0.6,1.6,1.3l1.3,8.1c0,0.3-0.2,0.5-0.4,0.5h-2.1c-0.3,0-0.6-0.2-0.6-0.5l-1.2-5
			c-0.2-0.7-0.8-1.2-1.5-1.2H400h-59.6c-0.7,0-1.3,0.5-1.5,1.2l-1.2,5c-0.1,0.3-0.3,0.5-0.6,0.5h-2.1c-0.3,0-0.5-0.3-0.4-0.5
			L335.8,150.6z M326.1,168.9l4.8,4.9c0.1,0.1,0.2,0.1,0.3,0.1H400h68.8c0.1,0,0.2,0,0.3-0.1l4.8-4.9h1.5l-6.6,8.3l1.6,3.2h-1.7
			l-1.4-1.6H400h-67.3l-1.4,1.6h-1.7l1.6-3.2l-6.6-8.3H326.1z M399.1,190.3c0.5,0,0.9,0.4,0.9,0.9c0-0.5,0.4-0.9,0.9-0.9H480
			c0.2,0,0.4-0.1,0.6-0.3l1.4-1.4h1.6v4.3c0,0.3-0.2,0.6-0.4,0.8l-2.6,1.4c-0.1,0.1-0.3,0.1-0.4,0.1h-79.3c-0.5,0-0.9-0.4-0.9-0.9
			c0,0.5-0.4,0.9-0.9,0.9h-79.3c-0.1,0-0.3,0-0.4-0.1l-2.6-1.4c-0.3-0.1-0.4-0.4-0.4-0.8v-4.3h1.6l1.4,1.4c0.2,0.2,0.4,0.3,0.6,0.3
			H399.1z"/>
	</g>
	<g>
		<path d="M434.4,298.5v-3.1c0,0-0.8-10-34.4-10s-34.4,10-34.4,10v3.1l34.4,8.8L434.4,298.5z"/>
		<path d="M320.3,332.5l-3-0.8c0,0-9.9-1.8-18.6,30.6c-8.7,32.5,0.8,35.9,0.8,35.9l3,0.8l17.5-31L320.3,332.5z"/>
		<path d="M500.3,362.4c-8.7-32.5-18.6-30.6-18.6-30.6l-3,0.8l0.4,35.5l17.5,31l3-0.8C499.5,398.2,509,394.8,500.3,362.4z"/>
		<path d="M318.6,441.2l-1.9,2.4c0,0-5.5,8.5,21.1,29c26.6,20.5,33.4,13.1,33.4,13.1l1.9-2.4l-21.9-28L318.6,441.2z"/>
		<path d="M482.8,439.5l-32.4,14.6L429,482.5l1.9,2.4c0,0,6.9,7.3,33.2-13.6c26.3-21,20.6-29.3,20.6-29.3L482.8,439.5z"/>
		<path d="M334.1,390.5c0,20.5,16.7,27.2,25,27.2h10.6c2,0,3.6-1.6,3.6-3.6v-8.7c0,0-6.1,0-11.3,0s-14.9-3.6-14.9-14.9
			c0-11.4,10.5-14.6,15.5-14.6h7.3c2,0,3.6-1.6,3.6-3.6v-9.5c0,0-1.8,0-11.6,0C351.9,362.9,334.1,370,334.1,390.5z"/>
		<path d="M395.6,387.9v-11.8h20c1.5,0,2.8-0.9,3.3-2.3l4.1-10.7l0-0.3h-40.8v54.8h13.6V401h10.3c1.5,0,2.8-0.9,3.3-2.3l4.1-10.8
			H395.6z"/>
		<path d="M433,397.8l8.1-21l0.1,0.2l5.5-14.2h-11.1l0.1,0.2h-1.1c-1.5,0-2.8,0.9-3.3,2.3l-20.3,52.4h14.3l2.8-7.1h0.2l4.9-12.8H433
			z"/>
		<polygon points="449.4,397.8 436.5,397.8 431.6,410.6 454.5,410.6 457.2,417.5 471.5,417.5 450,363.1 442.9,381.4 		"/>
	</g>
	<path class="st4" d="M625.1,217.5c10.5,27.2,15.9,56.4,15.9,86.5c0,64.4-25.1,124.9-70.6,170.5C524.9,520,464.4,545.1,400,545.1
		c-64.4,0-124.9-25.1-170.5-70.6C184,429,158.9,368.4,158.9,304c0-30.3,5.5-59.7,16.1-87.1l-9.1-3.6c-10.9,28.1-16.9,58.7-16.9,90.7
		v0c0,138.6,112.3,250.9,250.9,250.9h0c138.6,0,250.9-112.3,250.9-250.9v0c0-31.8-5.9-62.1-16.7-90.1L625.1,217.5z"/>
	<path class="st4" d="M607.8,224.4c9.4,24.8,14.4,51.4,14.4,78.8v1.6c0,59.1-23,114.7-64.8,156.5c-41.8,41.8-97.4,64.8-156.5,64.8
		h-1.6c-59.1,0-114.7-23-156.5-64.8c-41.8-41.8-64.8-97.4-64.8-156.5v-1.6c0-27.6,5-54.4,14.6-79.4l-9.1-3.6
		c-9.9,25.8-15.4,53.7-15.4,83v1.6c0,127.7,103.5,231.2,231.2,231.2h1.6c127.7,0,231.2-103.5,231.2-231.2v-1.6
		c0-29-5.4-56.8-15.1-82.4L607.8,224.4z"/>
	<g>
		<g>
			<g>
				<g>
					<path class="st4" d="M521.2,98.8c0.6-1,0.9-1.5,1.4-2.4c-1.4-0.8-2.2-1.2-3.6-2.1c2.3-4.1,3.4-6.1,5.7-10.2
						c-3.5-1.9-5.2-2.9-8.7-4.7c-2.1,4.2-3.2,6.3-5.3,10.4c-1.5-0.7-2.2-1.1-3.7-1.8c-0.5,1-0.7,1.5-1.2,2.5
						c1.5,0.7,2.2,1.1,3.7,1.8c-4.8,9.4-7.2,14-12,23.4c3,1.5,4.4,2.3,7.3,3.9c5.1-9.2,7.7-13.8,12.9-22.9
						C519.1,97.5,519.8,98,521.2,98.8z"/>
					<path class="st4" d="M544.9,102.4c-0.8-0.6-1.3-0.9-2.1-1.5c1.2-1.5,1.8-2.3,3.1-3.8c-2.9-2-4.4-3-7.3-4.9
						c-1.2,1.5-1.8,2.3-2.9,3.9c-3.2-2.1-4.8-3.1-8.1-5c-0.6,1-0.9,1.5-1.4,2.4c3.2,1.9,4.7,2.8,7.9,4.8
						c-6.7,8.9-13.3,17.9-19.9,26.9c2.5,1.6,3.7,2.4,6.2,4c6.9-8.8,13.8-17.5,20.8-26.2c0.9,0.6,1.4,0.9,2.2,1.6
						c-5.6,7.8-11.1,15.6-16.7,23.4c-0.7,0.9-2.2,1-3.3,0.2c-0.2-0.1-0.3-0.2-0.5-0.3c-0.6,0.9-0.9,1.3-1.5,2.2
						c1,0.7,1.6,1.1,2.6,1.8c0.2,0.1,0.2,0.2,0.4,0.3c1.6,1.2,2.4,1.7,4,2.9c1.3,1,3,1,3.9-0.1c6.9-8.9,13.8-17.9,20.7-26.8
						c-0.2-0.2-0.3-0.2-0.5-0.4C549.4,105.6,547.9,104.5,544.9,102.4z"/>
					<path class="st4" d="M525.4,96c-6,8.2-12,16.5-17.8,24.8c1.9,1.1,2.9,1.7,4.7,2.8c6-8.2,12.2-16.3,18.5-24.4
						C528.6,98,527.5,97.3,525.4,96z"/>
					<path class="st4" d="M551.2,113.7c-6.3,8-12.5,16-18.8,23.9c1.3,1,1.9,1.5,3.1,2.5c6.4-7.9,12.8-15.7,19.2-23.6
						C553.3,115.4,552.6,114.9,551.2,113.7z"/>
				</g>
				<g>
					<path class="st4" d="M590.8,153.8c4.3,0.9,6.5,1.4,10.9,2.6c4.3,5.9,6.4,9,10.4,15.3c-0.5,4.6-0.8,6.9-1.4,11.4
						c2.7,4.7,4,7.1,6.5,12c1.2-6.3,1.8-9.6,2.6-16.1c-0.6-1-0.8-1.5-1.4-2.4c-2.3-3.9-3.4-5.8-5.8-9.5c-2.5-3.9-3.8-5.8-6.4-9.5
						c-3.2-4.4-4.8-6.6-8.1-10.8c-1.5-1.8-2.2-2.7-3.7-4.5c-0.2,1.5-0.3,2.2-0.5,3.6c-4.5-0.9-6.7-1.3-11.2-2
						C586,147.7,587.6,149.7,590.8,153.8z"/>
					<path class="st4" d="M579.9,149.3c11.8,14.4,21.7,29.2,30.8,45.4c1-0.5,1.5-0.8,2.5-1.3C604,176.9,594,162,582,147.4
						C581.2,148.1,580.8,148.5,579.9,149.3z"/>
					<path class="st4" d="M573.2,152c3.3,3.8,5,5.7,8.1,9.8c-8.6,0.6-12.8,1.1-21,2.5c1.8,2,2.6,3,4.3,5.1c1.1,1.4,1.7,2.1,2.8,3.5
						c6.2,7.8,12.1,16.5,17,25.2c0.6,1,0.8,1.5,1.4,2.4c0.8,1.5,1.2,2.2,2,3.7c1.6,0.4,2.1,0.5,3.7,0.8c2.7-5.1,4-7.7,6.5-13
						c-2.4-4.2-3.7-6.3-6.3-10.4c-2.2,5.4-3.4,8.1-5.9,13.3c-5.6-9.5-8.7-14-15.2-22.4c7.1-0.6,10.6-0.8,17.9-0.9
						c6.3,9.4,11.8,18.7,17.2,28.6c1-0.5,1.5-0.8,2.5-1.3c-9.4-17.4-19.9-34-33-48.8C574.5,150.8,574.1,151.2,573.2,152z"/>
				</g>
				<path class="st4" d="M214.1,141.7c-2.6,3-3.9,4.6-6.4,7.7c-3.2,4.1-4.8,6.1-7.9,10.4c-1.9-1.4-2.8-2-4.7-3.4
					c-2.6,3.7-3.9,5.5-6.4,9.3c1.9,1.3,2.9,1.9,4.8,3.2c-2,3.1-3.1,4.7-5,8c-0.7,1.2-1.1,1.9-1.9,3.1c1,0.6,1.5,0.9,2.4,1.4
					c2.6-4.5,4-6.7,6.8-11c7.1,4.7,10.7,7,17.8,11.7c-2.9,4.4-4.2,6.6-6.9,11.2c-8.4-4.8-12.5-7.2-20.9-12.1
					c-2.2,3.8-3.2,5.7-5.2,9.6c-0.4,0.8-0.6,1.2-1,2c0.1,0.1,0.3,0.1,0.5,0c1.1-0.4,1.7-0.5,2.8-0.9c7.7,4,11.5,6,19.1,10
					c1,0.5,1.5,0.8,2.5,1.3c1.8-3.5,2.7-5.2,4.7-8.5c2.6-4.6,4-6.8,6.8-11.1c2.8,1.9,4.2,2.8,7.1,4.7c2.1-3.2,3.2-4.8,5.4-7.8
					c-2.7-2-4.1-3-6.9-5c2.7-3.8,4.1-5.7,7-9.3c0.3-0.3,0.4-0.5,0.7-0.9c1.2-1.5,1.8-2.3,3.1-3.7c1.2-1.4,1.3-3.2,0.3-4.1
					c-7.4-6.5-11.1-9.7-18.4-16.2C214.2,141.6,214.2,141.6,214.1,141.7z M226.5,164.6c-2.9,3.7-4.3,5.5-7.1,9.4
					c-6.9-5-10.3-7.5-17.2-12.5c3-4.2,4.6-6.3,7.8-10.3C216.5,156.5,219.8,159.2,226.5,164.6z"/>
				<g>
					<path class="st4" d="M277.2,121.3c-3.2,2.1-4.7,3.2-7.8,5.5c0.7,0.9,1,1.4,1.7,2.3c7.5-5.6,15.7-10.8,24-15.2
						c-0.5-1-0.8-1.5-1.4-2.5c-3.7,2-5.5,3.1-9.1,5.3c-3-4.9-4.5-7.3-7.5-12.2c3.8-2.3,5.7-3.4,9.6-5.5c-0.5-1-0.8-1.5-1.4-2.5
						c-3.9,2.1-5.9,3.3-9.7,5.6c-1.2-2-1.8-3-3-5c3.9-2.4,5.9-3.5,9.9-5.7c-0.5-1-0.8-1.5-1.4-2.5c-9.5,5.1-18.3,11.1-27.1,17.3
						c0.7,0.9,1,1.4,1.7,2.3c3.5-2.5,5.2-3.8,8.7-6.1c1.3,1.9,1.9,2.9,3.2,4.8c-3.5,2.3-5.2,3.5-8.5,6c0.7,0.9,1,1.4,1.7,2.3
						c3.3-2.4,5-3.6,8.4-5.9C272.5,114.2,274,116.6,277.2,121.3z"/>
					<path class="st4" d="M278.8,106.6c3.2,2.6,4.8,3.9,8,6.6c2.5-1.5,3.7-2.2,6.3-3.5c-3-2.8-4.6-4.1-7.7-6.8
						C282.7,104.2,281.4,105,278.8,106.6z"/>
					<path class="st4" d="M284.2,80.4c-1.6,0.8-2.4,1.3-4.1,2.1c-8.5,4.5-12.6,7-20.7,12.4c-3.5,2.3-5.2,3.5-8.5,6
						c0.7,0.9,1,1.4,1.7,2.3c9.5-6.6,18.8-12.4,28.9-18.1c5.4,10,10.8,20.1,16.3,30.1c-9.2,4.8-18.4,10.7-26.7,17
						c-7.4-9.9-14.8-19.8-22.2-29.7c-3.2,2.4-4.8,3.6-8,6.2c0,0,0,0,0,0c0,0,0,0,0,0c-0.6,0.5-0.9,0.8-1.6,1.3
						c0.1,0.1,0.3,0.2,0.4,0.2c1.1,0.2,1.6,0.2,2.7,0.4c7.9,9.7,15.7,19.4,23.6,29.1c1.8-1.5,2.7-2.2,4.6-3.6c0.8-0.6,1.3-1,2.1-1.6
						c8.2-6.2,17.2-12,26.3-16.7c0.4-0.2,0.6-0.3,1.1-0.6c1.5-0.8,2.2-1.2,3.7-1.9c1.4-0.7,2.2-2.3,1.6-3.5
						c-5.5-11.2-11-22.4-16.5-33.6C287.1,79,286.1,79.4,284.2,80.4z"/>
				</g>
				<path class="st4" d="M364.1,92.4c-0.8-4.9-1.3-7.3-2.1-12.2c8-1.3,12.1-1.8,20.2-2.5c-0.1-1.2-0.1-1.8-0.2-3.1
					c-8.2,0.6-12.3,1.1-20.4,2.5c-0.4-2.2-0.6-3.3-0.9-5.5c3.6-0.6,5.4-0.9,9-1.3c0,0,0,0,0,0c3.6-0.5,5.4-0.7,9-1
					c1.8-0.2,3.1-1.4,3-2.7c-0.4-5.4-0.6-8.2-1.1-13.6c-5.2,0.4-7.8,0.7-13,1.3c-10.8,1.4-16.2,2.4-26.8,4.9
					c0.4,1.5,0.5,2.2,0.9,3.7c10.5-2.5,15.8-3.4,26.4-4.8c0.5,3.7,0.7,5.5,1.2,9.2c-9.3,1.1-18.7,2.9-27.8,5.2
					c-1.3-5-1.9-7.6-3.2-12.6c-2.6,0.6-3.9,1-6.5,1.7c-2.5,0.7-3.7,1-6.1,1.8c0,0,0,0,0,0c0,0,0,0,0,0c-0.7,0.2-1.1,0.3-1.9,0.6
					c0.1,0.2,0.2,0.3,0.3,0.4c0.9,0.6,1.4,0.8,2.3,1.4c1.6,5.2,2.4,7.8,4,13c4.4-1.3,6.6-1.9,11-3.1c0,0,0,0,0,0
					c3.9-1,5.8-1.4,9.7-2.2c1.7,8.2,2.6,12.3,4.4,20.6c-4,0.8-6,1.3-10,2.3c-0.3-7.7-0.4-11.5-0.4-19.2c-3.9,0.9-5.9,1.4-9.8,2.5
					c0.4,9,0.7,13.4,1.5,22.3c1.4-0.4,2.1-0.6,3.5-1.1c2.1-0.6,3.2-0.9,5.3-1.4c12.9-3.4,26.1-5.5,39.3-6.5
					c-0.1-1.2-0.1-1.8-0.2-3.1C376.5,90.5,372.3,91,364.1,92.4z"/>
				<g>
					<path class="st4" d="M467.3,79.1c2-3.2,3-4.7,5-7.9c-3-0.9-4.5-1.3-7.5-2.1c-2,3.2-2.9,4.8-4.8,8
						C462.9,77.9,464.4,78.2,467.3,79.1z"/>
					<path class="st4" d="M466.2,80.7c-2.9-0.8-4.3-1.2-7.2-2c-0.2,8.8-0.4,13.2-1,22c2.6,0.7,3.9,1.1,6.5,1.9
						C465.4,93.9,465.7,89.5,466.2,80.7z"/>
					<g>
						<path class="st4" d="M429.4,90.5c1-7.1,1.4-10.7,2.4-17.8c1.7,0.2,2.6,0.4,4.4,0.6c0.2-1.1,0.3-1.7,0.4-2.8
							c-1.8-0.3-2.6-0.4-4.4-0.6c0.6-4.4,0.9-6.6,1.5-10.9c2.4,0.3,3.5,0.5,5.9,0.8c0.2-1.1,0.3-1.7,0.5-2.9
							c-8.6-1.3-12.9-1.8-21.6-2.4c-0.1,1.2-0.1,1.7-0.2,2.9c2.4,0.2,3.6,0.3,5.9,0.5c-0.4,4.4-0.6,6.6-1.1,11
							c-1.8-0.2-2.7-0.2-4.4-0.4c-0.1,1.1-0.1,1.7-0.2,2.8c1.8,0.1,2.6,0.2,4.4,0.4c-0.7,7.4-1.1,11.1-1.8,18.5
							c-2.2,0-3.3-0.1-5.5,0c0,1.1,0.1,1.7,0.1,2.8c7,0,10.5,0.1,17.5,0.6c0.1-1.1,0.1-1.7,0.1-2.8C431.8,90.7,431,90.6,429.4,90.5z
							"/>
						<path class="st4" d="M447.6,65.1c-3.1-0.6-4.6-0.9-7.7-1.3c0.4,3.7,0.7,5.6,1,9.3c3,0.5,4.4,0.8,7.4,1.4
							C448.1,70.7,447.9,68.9,447.6,65.1z"/>
						<path class="st4" d="M441.6,75c-3.5,8.1-5.1,12.2-8.2,20.4c2.7,0.4,4,0.6,6.7,1.1c3.4-8.1,5.2-12.2,8.9-20.2
							C446.1,75.8,444.6,75.6,441.6,75z"/>
						<path class="st4" d="M473.1,66.5c0.3-0.8,0.4-1.2,0.6-2.1c-2.6-0.8-4-1.2-6.6-1.9c-0.2,0.8-0.3,1.3-0.6,2.1
							c-1.7-0.5-2.6-0.7-4.3-1.1c0.4-1.4,0.5-2.1,0.9-3.6c-1.9-0.5-2.9-0.7-4.9-1.2c-1.9-0.4-2.8-0.6-4.6-1c0,0,0,0,0,0c0,0,0,0,0,0
							c-0.7-0.1-1.1-0.2-1.8-0.4c0,0.1,0,0.3,0.1,0.4c0.5,0.9,0.7,1.3,1.2,2.2c-0.1,0.5-0.2,0.8-0.3,1.3c-5-1-7.5-1.5-12.5-2.3
							c-0.2,1.1-0.3,1.7-0.5,2.9c5,0.8,7.4,1.2,12.4,2.3c-2.1,9.9-4.3,19.8-6.4,29.7c-0.2,0.8-1,1.2-1.9,1c-0.8-0.2-1.2-0.2-2-0.4
							c-0.2,0.9-0.3,1.4-0.5,2.4c1.4,0.3,2.1,0.4,3.6,0.7c0.1,0,0.2,0,0.3,0.1c2,0.4,3,0.6,4.9,1.1c1.6,0.4,3.1-0.4,3.4-1.7
							c2.6-10.3,5.2-20.5,7.9-30.8c4.9,1.2,7.3,1.9,12.1,3.4c0.3-1.1,0.5-1.7,0.9-2.8C473.9,66.7,473.7,66.7,473.1,66.5z"/>
					</g>
				</g>
			</g>
		</g>
	</g>
</g>
</svg>
