<?xml version="1.0" encoding="utf-8"?>
<!-- Generator: Adobe Illustrator 22.1.0, SVG Export Plug-In . SVG Version: 6.00 Build 0)  -->
<svg version="1.1" id="图层_1" xmlns="http://www.w3.org/2000/svg" xmlns:xlink="http://www.w3.org/1999/xlink" x="0px" y="0px"
	 viewBox="0 0 800 800" style="enable-background:new 0 0 800 800;" xml:space="preserve">
<style type="text/css">
	.st0{fill-rule:evenodd;clip-rule:evenodd;fill:#231815;}
	.st1{fill-rule:evenodd;clip-rule:evenodd;fill:#D7000F;}
	.st2{fill:url(#SVGID_1_);}
	.st3{fill:url(#SVGID_2_);}
	.st4{fill:url(#SVGID_3_);}
	.st5{fill:url(#SVGID_4_);}
	.st6{fill:url(#SVGID_5_);}
</style>
<g>
	<path class="st0" d="M515.2,552.1c-3.2,1-6.1,1.9-8.8,2.7c-2.6,0.8-5.9,1.7-10,2.6c-3.5,0.7-7.2,1.4-11.1,1.9
		c-3.9,0.6-8.1,0.8-12.7,0.8c-8.5,0-16-0.9-22.4-2.7c-6.4-1.8-11.6-4.7-15.5-8.6c-3.9-3.8-6.3-8.6-7.3-14.4
		c-1-5.8-0.2-12.7,2.2-20.4c2.4-7.4,5.9-13.9,10.4-19.8c4.6-5.7,10.1-10.7,16.5-14.7c6.3-3.9,13.2-6.8,20.9-8.9c7.8-2,16-3,24.7-3
		c6.3,0,12.4,0.6,18.4,1.7c5.9,1.2,12.3,3.2,19.1,6.1l-4.4,14.1h-1.2c-5.1-4.1-10.6-7.1-16.4-8.9c-5.8-1.9-12.3-2.9-19.6-2.9
		c-6,0-11.6,0.7-16.8,2.2c-5.2,1.4-10.2,3.7-14.9,6.8c-4.6,3-8.7,6.8-12.2,11.4c-3.5,4.6-6.1,9.8-8,15.9c-2,6.3-2.6,11.6-1.8,16.2
		c0.8,4.5,2.5,8.2,5.2,11c2.7,2.9,6.4,5.1,10.8,6.6c4.5,1.4,9.5,2.1,15,2.1c7.6,0,14.9-1,22.2-3c7.2-2,14.4-4.9,21.3-8.8h1.1
		L515.2,552.1z"/>
	<path class="st0" d="M627.6,533.1c-1.1,3.5-3.3,6.9-6.5,10.3c-3.2,3.4-7.1,6.2-11.7,8.6c-5,2.6-10.6,4.5-16.7,6
		c-6,1.4-13,2.1-20.9,2.1c-8.5,0-16-0.6-22.4-1.8c-6.4-1.2-12.7-3-18.9-5.3l4.7-14.8h1.1c4.8,3.7,10.7,6.6,17.9,8.7
		c7.1,2,14.1,3.1,21,3.1c9.7,0,17.7-1.4,24-4.2c6.3-2.8,10.2-6.4,11.7-11c1.2-3.9,0.9-6.9-1.1-8.7c-2-1.9-5.4-3.3-10.2-4.4
		c-3.7-0.8-7.8-1.5-12.3-2c-4.4-0.5-9.1-1.2-14-2c-9.9-1.6-16.7-4.5-20.5-8.5c-3.8-4.1-4.6-9.4-2.5-15.9c2.4-7.5,8.5-13.6,18.3-18.4
		c9.9-4.8,21.2-7.2,34-7.2c8.3,0,15.7,0.6,22.3,1.8c6.5,1.2,12.1,2.7,16.9,4.4l-4.5,14h-1.1c-3.6-2.9-8.8-5.2-15.5-7.1
		c-6.7-1.9-13.8-2.9-21.5-2.9c-8.4,0-15.5,1.3-21.5,4c-5.9,2.7-9.5,6-10.8,10.1c-1.2,3.7-0.8,6.7,1,8.8c1.8,2.1,5.8,3.8,11.8,4.8
		c3.2,0.6,7.8,1.2,13.8,2c6,0.8,11,1.7,15,2.5c8.2,1.7,13.9,4.4,17.2,7.9C629,521.7,629.6,526.7,627.6,533.1"/>
	<path class="st0" d="M662.8,469.4h15.7l-24.3,77.5H721l-3.9,11.8h-68.5c-5.7,0-10.4-4.6-10.4-10.4c0-0.9,0.1-2,0.4-2.9L662.8,469.4
		z"/>
	<path class="st1" d="M85.7,442.5c4.8,23.1,23.4,37.6,45.3,37.6c19.8,0,35.9-12.9,41.6-30.8c0.5,2.9,1.5,6,1.5,9.1
		c0,31.9-27.7,57.7-59.7,57.7c-24.2,0-44-12.9-52.7-34C54.1,467,51,445.4,51,426.7c0-72.3,56.9-131,127.7-136.4
		c0,0-53.5,11.1-80.6,69c0,0-10.3,17.1-13.7,47.9C84.5,407.3,81.4,421.8,85.7,442.5"/>
	<linearGradient id="SVGID_1_" gradientUnits="userSpaceOnUse" x1="86.3889" y1="420.9332" x2="228.8537" y2="338.6811">
		<stop  offset="0" style="stop-color:#FFE900"/>
		<stop  offset="0.1279" style="stop-color:#FBCC01"/>
		<stop  offset="0.3781" style="stop-color:#F39902"/>
		<stop  offset="0.5966" style="stop-color:#EE7403"/>
		<stop  offset="0.7726" style="stop-color:#EA5D04"/>
		<stop  offset="0.884" style="stop-color:#E95504"/>
	</linearGradient>
	<path class="st2" d="M97.4,410.5c-0.4,13.2,0.9,25,4.7,36.9c3.7,11.1,15.6,18.3,27,18.3c14.2,0,25.8-11.6,25.8-25.8
		c0-5.2-1.6-10.3-4.3-14.4c-10.1-14.2-17.1-31.5-17.1-50.3c0-41,29.3-75.5,67.5-84.6C142.9,299.4,99.4,351.1,97.4,410.5"/>
	<path class="st1" d="M178.8,434.1c15.4,13.5,26.2,31.5,26.2,52.4c0,36-28.7,62.6-65.1,65.1c-1.2,0.1-2.8,0-3.9-0.1
		c4.2,0.7,9.1,1.8,13.4,1.6c44.2-2.5,85.2-36.6,89-84.2c0-16-3.8-30.7-14.1-44.4c-44.9-45.6-44.5-72-44.5-75.1
		c0-23.8,19.3-43.1,43.1-43.1c0,0,29.2-1.4,61.8,22.4c-18.8-17.2-41.6-31.5-71.6-32c-37.2,1.5-63.5,30.8-63,64.6
		c-0.3,6.5,0.3,13,0.8,19.9C152.6,402.4,165.2,421.9,178.8,434.1"/>
	<path class="st0" d="M121.8,545.2c-13.3-4.8-25.8-14.3-36.2-28c0,0,20,9,46.5,6.1c0,0,42.2-3.2,55.7-46.7c0,0,7.7,50.2-44.9,67.6
		c0,0-5.7,1.8-11.4,2.2C126.1,546.8,121.8,545.2,121.8,545.2"/>
	<linearGradient id="SVGID_2_" gradientUnits="userSpaceOnUse" x1="147.3469" y1="491.6888" x2="259.7381" y2="491.6888">
		<stop  offset="0" style="stop-color:#FFE900"/>
		<stop  offset="1" style="stop-color:#E95504"/>
	</linearGradient>
	<path class="st3" d="M249.8,469c0,49.1-43.6,88.9-97.4,88.9c-1.7,0-3.4-0.1-5.1-0.2c20.3,8.4,42,6.7,42,6.7
		c34.4-3,70.4-42.8,70.4-81.2c0-19.6-1.9-40.5-24.5-64.4C235.3,418.8,249.8,445,249.8,469"/>
	<path class="st0" d="M269,460.6c0.3,0.1-5.7-24.4-14.5-37.5c-8.1-12.1-15.5-17.4-23.3-24.3c-5-3.9-15.2-12.6-15.2-12.6
		C200.3,372,196.7,365,196.7,365c-3.3-4.9-5.2-10.8-5.2-16.9c0-14.7,10.5-27.1,24.9-31.1c35.2-8.6,63,15,63,15
		c46.5,35.8,46.8,96.3,46.8,96.3c0,44.9-17.5,76.8-48.1,103.4c32.4-34.8,39.3-76.4,39.3-76.4c6.7-38.7-6.8-66.9-6.8-66.9
		c-35.1-74.7-84.2-55.6-84.2-55.6c-9.3,2.4-16.1,10.8-16.1,20.8c0,1.2-0.9,14.7,19.7,33.4c7.8,7.4,17.5,14.8,25.2,25.8
		C267.3,429.8,269.6,449.2,269,460.6"/>
	<path class="st1" d="M234.5,561.2c16.8-1.8,41.3-7.2,41.3-7.2c64.7-16.8,79.3-42.6,146.6-90.9c67.2-48.3,138-44.9,138-44.9
		s-6.3-2.1-25.3-5c-18.9-2.9-43.7-3.8-43.7-3.8c-86.2,1-90.1,25.5-138.4,76.1c-48.3,50.6-93.3,57.9-93.3,57.9
		c25.7-21.5,45-59.8,47.8-101.8c1-16.3-2.2-32.4-7.7-46.8c0,0-21-53.7-60.5-53.1c0,0-22.8-0.4-16.2,18.9c0,0,3.1,7.2,18.1,19.7
		c25.5,18.8,39.2,50.2,39.2,84c0,48.3-26.3,80.6-63.9,97.3C216.3,561.5,222.2,562.4,234.5,561.2"/>
	<linearGradient id="SVGID_3_" gradientUnits="userSpaceOnUse" x1="253.3536" y1="282.193" x2="471.6838" y2="282.193">
		<stop  offset="0" style="stop-color:#FFE900"/>
		<stop  offset="1" style="stop-color:#E95504"/>
	</linearGradient>
	<path class="st4" d="M331.3,260.9c-42.6,37.5-78,32.4-78,32.4c32.6,9.5,50.7,33.6,53.8,35.2c3.1,1.5,21.6-0.7,21.6-0.7
		c42.5-4.9,58.7-17,90.1-47.4c27.2-26.4,52.8-31.8,52.8-31.8c-11.3-2.3-52.4-10.6-52.4-10.6c-8.4-1.7-16.2-2.4-23.4-2.4
		C353.2,235.4,331.3,260.9,331.3,260.9"/>
	<linearGradient id="SVGID_4_" gradientUnits="userSpaceOnUse" x1="409.0363" y1="360.4795" x2="665.6796" y2="360.4795">
		<stop  offset="0" style="stop-color:#FFE900"/>
		<stop  offset="1" style="stop-color:#E95504"/>
	</linearGradient>
	<path class="st5" d="M647.5,314.6c-11.5,4-29.5,6-29.5,6c-14.7,0.9-23.9-1.1-33.4-3c-13.9-2.9-28.4-5.8-61.4,0.3
		C465.4,328.6,409,414.9,409,414.9s4.5-1.4,13.4-6.2c9-4.8,14.8-7.6,14.8-7.6c33.8-13.8,55.5-11.7,55.5-11.7
		c9.8-0.8,20.7,0,32.2,0.9c21.6,1.6,45.6,3.3,69.5-6.4c36.5-14.8,71.2-77.9,71.2-77.9S657.9,311,647.5,314.6"/>
	<linearGradient id="SVGID_5_" gradientUnits="userSpaceOnUse" x1="312.157" y1="377.947" x2="749" y2="377.947">
		<stop  offset="0" style="stop-color:#FFE900"/>
		<stop  offset="1" style="stop-color:#E95504"/>
	</linearGradient>
	<path class="st6" d="M315.4,337.4c0,0,0.1,0,0.2,0.1C315.5,337.4,315.4,337.3,315.4,337.4C315.4,337.3,315.4,337.4,315.4,337.4
		 M622,274.1c-23.9,11.5-34.4,18-49.2,16.9c-12.7-1-22.7-8.4-22.7-8.4c-35.1-23.6-75.6-33.6-122,16.9
		c-52.5,57.1-108.7,39.2-112.5,38c0.5,0.4,2.4,2.9,9.2,15.1c10.2,18.2,14.4,43.9,14.4,43.9c14.3,69.5-27.1,109.1-27.1,109.1
		c15.2-12.1,24.5-17.6,51.5-49.7c28.2-33.6,33.8-51.4,75.7-106c31.6-41.1,72.8-51.1,97.9-53.1c0,0,15-2.1,36.2,2.6
		c18.3,4,40,15,93.5-8.8c58.1-25.8,82-19.5,82-19.5s-19.3-20.7-54.4-20.7C655.1,250.3,644.4,263.4,622,274.1"/>
</g>
</svg>
