<?xml version="1.0" encoding="utf-8"?>
<!-- Generator: Adobe Illustrator 22.1.0, SVG Export Plug-In . SVG Version: 6.00 Build 0)  -->
<svg version="1.1" id="图层_1" xmlns="http://www.w3.org/2000/svg" xmlns:xlink="http://www.w3.org/1999/xlink" x="0px" y="0px"
	 viewBox="0 0 800 800" style="enable-background:new 0 0 800 800;" xml:space="preserve">
<style type="text/css">
	.st0{fill:#EC5604;}
	.st1{fill:#DCDDDD;}
	.st2{fill:#020104;}
	.st3{fill:#9D2205;}
	.st4{fill:#000C57;}
	.st5{fill:#FFFFFF;}
	.st6{fill:#003F97;}
	.st7{fill:#EA5504;}
	.st8{fill:#004098;}
	.st9{fill:#C9CCCB;}
	.st10{fill:#002C76;}
	.st11{fill:#F1D032;}
</style>
<g>
	<g>
		<g>
			<g>
				<path class="st0" d="M145.9,506.5c0,0,48.6,48.6,99.2,76.3l-44,53.6c0,0-49.6-20-103.6-78.9c0,0,22.3,4,58.6,4.7
					C156.3,562.1,148.6,538.8,145.9,506.5z"/>
				<path class="st1" d="M147,517.1c3.2,26.7,9.2,45,9.2,45c-21.1-0.4-37.5-1.9-47.5-3.1c52.7,54.4,96.1,70.4,96.1,70.4l7.3-6.3
					l29.6-36.1C207,568.4,170.3,538,147,517.1z"/>
			</g>
			<path class="st2" d="M176.9,573.1c0,0,11,5.7,75.3,12l-17.3,24.6L176.9,573.1z"/>
			<path class="st3" d="M175.2,567.9c0,0,29.3,11.5,80.2,10.8l-2.7,7.3c0,0-48.9,0.3-72.6-8.7L175.2,567.9z"/>
			<g>
				<path class="st0" d="M654.1,506.5c0,0-48.6,48.6-99.2,76.3l44,53.6c0,0,49.6-20,103.6-78.9c0,0-22.3,4-58.6,4.7
					C643.7,562.1,651.4,538.8,654.1,506.5z"/>
				<path class="st1" d="M653,517.1c-3.2,26.7-9.2,45-9.2,45c21.1-0.4,37.5-1.9,47.5-3.1c-52.7,54.4-96.1,70.4-96.1,70.4l-7.3-6.3
					l-29.6-36.1C593,568.4,629.7,538,653,517.1z"/>
			</g>
			<path class="st4" d="M623.1,573.1c0,0-11,5.7-75.3,12l17.3,24.6L623.1,573.1z"/>
			<path class="st3" d="M624.8,567.9c0,0-29.3,11.5-80.2,10.8l2.7,7.3c0,0,48.9,0.3,72.6-8.7L624.8,567.9z"/>
		</g>
		<g>
			<g>
				<g>
					<g>
						<path class="st5" d="M692,188.8l-104.6-75.9c-36,27.3-102.6,38.6-102.6,38.6l-42.6-71.3L400,151.6v0l-42.3-71.3l-42.6,71.3
							c0,0-66.6-11.3-102.6-38.6L108,188.8c0,0-34.7,315.7,292,546.5v0C726.7,504.6,692,188.8,692,188.8z"/>
						<path class="st6" d="M703.9,187.5l-0.6-5.3l-4.3-3.1l-104.6-75.9l-7.2-5.2l-7.1,5.4c-24.7,18.8-66.3,29.7-86.1,34.1L441.3,50
							L400,121.3L358.7,50l-52.8,87.5c-19.8-4.4-61.4-15.3-86.1-34.1l-7.1-5.4l-7.2,5.2l-104.6,75.9l-4.3,3.1l-0.6,5.3
							c-0.1,0.8-2.3,21.1-0.4,54.9c1.7,30.9,7.3,79.7,24.3,136.5c19,63.8,48.2,124.5,86.7,180.4c48,69.8,110.7,132.3,186.4,185.7
							l6.9,4.9l6.9-4.9c75.7-53.4,138.4-115.9,186.4-185.7C631.8,503.5,661,442.8,680,379c16.9-56.8,22.6-105.6,24.3-136.5
							C706.2,208.6,704,188.4,703.9,187.5z M400,735.3L400,735.3C73.3,504.6,108,188.8,108,188.8l104.6-75.9
							c36,27.3,102.6,38.6,102.6,38.6l42.6-71.3l42.3,71.3v0l42.3-71.3l42.6,71.3c0,0,66.6-11.3,102.6-38.6L692,188.8
							C692,188.8,726.7,504.6,400,735.3z"/>
					</g>
					<g>
						<path class="st7" d="M305.1,168.9l-63.4,103.8c-12,19.7,2.1,45,25.3,45h40.2v306.7c0,0-173.8-129.9-181.8-423.5l87.9-64.6
							C213.2,136.2,227.2,150.9,305.1,168.9z"/>
						<path class="st8" d="M495.4,168.9l63.4,103.8c12,19.7-2.1,45-25.3,45h-40.2v306.7c0,0,173.8-129.9,181.8-423.5l-87.9-64.6
							C587.3,136.2,573.3,150.9,495.4,168.9z"/>
						<path class="st9" d="M462.6,429.1V317.7H337.4v112c-36.7,21.6-61.3,61.5-61.3,107.2c0,68.7,55.7,124.4,124.4,124.4
							s124.4-55.7,124.4-124.4C524.9,490.8,499.8,450.6,462.6,429.1z"/>
					</g>
				</g>
				<g>
					<polygon class="st8" points="357.5,109.9 267.1,262.3 299.1,262.3 357.5,161.9 377,195.3 392.5,168.9 					"/>
					<polygon class="st7" points="443,109.9 353.1,262.3 447.4,262.3 415.5,207.3 443,162.4 501.4,262.3 533.4,262.3 					"/>
				</g>
			</g>
			<circle class="st5" cx="400" cy="537.6" r="117.2"/>
			<path d="M400,430.6c-59.1,0-107,47.9-107,107c0,59.1,47.9,107,107,107s107-47.9,107-107C507,478.5,459.1,430.6,400,430.6z
				 M439.5,590.9l-17.9-24.1l11.5-34.8l29.2-8.9l27.2,19.9c-2.7,11.3-7.4,28.3-15.3,47.9H439.5z M306.4,543.6
				c2.9,11.3,8.5,31.5,15.9,50.8l-1.7,5.6c-13.4-17-21.4-38.4-21.6-61.6L306.4,543.6z M359.6,589.9h-33.7
				c-6.5-17.5-11.5-35.4-14.3-46.3l27.2-20.2l29.1,8.2l10.8,34.5L359.6,589.9z M369.7,527l-28.2-8l-10.8-34.6l39.5-28.3l27.9,20
				v29.4L369.7,527z M403,475.4l26.8-19.4l41.9,28.7l-11.4,33.8l-29.1,8.9L403,506.3V475.4z M478.5,593.6
				c8.2-20.1,13.1-37.7,15.9-49.3l6.7-5.5c-0.3,22.9-8.2,44.1-21.4,60.9L478.5,593.6z M484.7,482.5h-7.3l-45.8-31.4l-3.2-10.5
				C451.7,447.5,471.6,462.6,484.7,482.5z M372.8,440.3l-3.4,10.2L326,481.6l-11.1,1.7C328.1,462.6,348.6,447.1,372.8,440.3z
				 M355.1,628.1l16.9-15.3l-7.7-20.9l18.6-23.1H417l18.8,25.4l-3.4,18.6l16.6,13c-14.5,8.1-31.3,12.8-49.1,12.8
				C383.9,638.7,368.6,634.9,355.1,628.1z"/>
		</g>
		<path class="st10" d="M545.5,567.1c0,0-64.6,33.3-145.5,33.3s-145.5-33.3-145.5-33.3l-25.3,38c65.9,38.6,170.8,42,170.8,42
			s104.9-3.3,170.8-42L545.5,567.1z"/>
		<path class="st7" d="M624.8,567.9C519.4,645.3,414,642.4,400,642.4s-119.4,3-224.8-74.4L133,630.7c0,0,112.2,88.2,267,88.2
			s267-88.2,267-88.2L624.8,567.9z"/>
		<path class="st5" d="M629.1,574.4c-3,2.6-24.6,20.2-61.7,38c-36.2,17.3-94.6,38-167.4,38s-131.2-20.7-167.4-38
			c-37.1-17.8-58.6-35.4-61.7-38l-33.3,49.4c68.8,49.4,136.4,70.3,180.9,79.1c48.3,9.6,114.5,9.6,162.9,0
			c44.6-8.8,112.2-29.7,180.9-79.1L629.1,574.4z"/>
	</g>
	<g>
		<path class="st8" d="M266.8,306.3v-32.4h7.2v25.7h17.5v6.7H266.8z"/>
		<path class="st8" d="M295.2,306.3v-32.4h7.2v32.4H295.2z"/>
		<path class="st8" d="M305.5,306.3l14.2-32.4h5.3l14.2,32.4h-7.5l-2.6-6h-13.6l-2.6,6H305.5z M322.3,284.5l-4.3,9.7h8.4
			L322.3,284.5z"/>
		<path class="st8" d="M370.3,306.3h-5.6l-15.7-19.2v19.2h-7v-32.4h5.5l15.8,19.3v-19.3h7V306.3z"/>
		<path class="st8" d="M393.2,297.3c0-0.5-0.2-1-0.5-1.4c-0.3-0.4-0.9-0.9-1.7-1.3c-0.8-0.4-2.4-0.9-4.8-1.6
			c-2.4-0.7-4.2-1.3-5.4-1.9c-1.2-0.6-2.2-1.2-3-1.9c-0.8-0.7-1.5-1.6-2-2.6c-0.5-1-0.7-2.3-0.7-3.7c0-0.9,0.2-1.9,0.6-3
			c0.4-1.1,1.1-2.2,2.3-3.3c1.1-1.1,2.6-2,4.3-2.6s3.5-0.9,5.4-0.9c2,0,3.8,0.3,5.6,0.9c1.8,0.6,3.2,1.4,4.4,2.3
			c1.2,1,2.1,1.9,2.7,2.7l-4.8,4.6c-1-1.1-2.2-2.1-3.6-2.8c-1.4-0.7-2.9-1.1-4.5-1.1c-1.6,0-2.8,0.3-3.6,0.8
			c-0.8,0.5-1.2,1.3-1.2,2.2c0,0.6,0.2,1.1,0.7,1.5c0.5,0.4,1.1,0.8,1.9,1c0.8,0.3,2.2,0.7,4.5,1.3c2.2,0.6,4,1.2,5.2,1.8
			c1.2,0.6,2.3,1.2,3.1,1.9c0.8,0.7,1.5,1.6,2,2.6c0.5,1.1,0.7,2.3,0.7,3.7c0,1.1-0.2,2.2-0.6,3.3c-0.4,1.2-1.2,2.3-2.3,3.5
			c-1.1,1.1-2.5,2-4.2,2.6c-1.7,0.6-3.4,0.9-5.1,0.9c-2.3,0-4.5-0.3-6.6-1c-2.1-0.7-3.8-1.7-5.2-2.9c-1.4-1.3-2.5-2.6-3.2-3.9
			l5.2-4.4c1.1,1.7,2.4,3.1,4.1,4.1c1.7,1,3.5,1.5,5.5,1.5c1.7,0,2.9-0.3,3.8-0.9C392.8,298.9,393.2,298.2,393.2,297.3z"/>
		<path class="st8" d="M426.6,306.3v-13h-14.4v13H405v-32.4h7.2v12.7h14.4v-12.7h7.2v32.4H426.6z"/>
		<path class="st8" d="M439.8,306.3v-32.4h24.8v6.7H447v6h16.4v6.5H447v6.5h18v6.7H439.8z"/>
		<path class="st8" d="M498.2,306.3h-5.6l-15.7-19.2v19.2h-7v-32.4h5.5l15.8,19.3v-19.3h7V306.3z"/>
		<path class="st8" d="M518.1,294.6v-6.5h15.1v13.1c-1.6,1.7-3.5,3.1-5.8,4.1c-2.3,1-4.7,1.5-7.3,1.5c-2.5,0-4.8-0.4-7-1.2
			c-2.2-0.8-4.1-1.9-5.6-3.4c-1.6-1.5-2.8-3.3-3.7-5.4c-0.9-2.1-1.3-4.3-1.3-6.8c0-2.3,0.4-4.4,1.2-6.5c0.8-2.1,2-3.9,3.5-5.4
			c1.5-1.5,3.3-2.7,5.4-3.6c2.1-0.9,4.3-1.3,6.7-1.3c1.7,0,3.4,0.2,5,0.6c1.6,0.4,3.2,1.1,4.7,1.9c1.5,0.9,2.6,1.9,3.5,3.2l-5,4.4
			c-0.9-1-2.1-1.9-3.4-2.5c-1.4-0.6-2.8-0.9-4.4-0.9c-2.9,0-5.3,0.9-7,2.6c-1.7,1.8-2.6,4.2-2.6,7.2c0,1.1,0.2,2.3,0.5,3.5
			c0.3,1.2,0.9,2.2,1.7,3.2c0.8,0.9,1.9,1.7,3.2,2.3c1.3,0.6,2.9,0.9,4.7,0.9c1,0,2-0.2,3.2-0.5c1.1-0.3,2.1-0.8,3-1.4v-3.4H518.1z"
			/>
	</g>
	<g>
		<path class="st8" d="M194.1,611l-12.7,18.1c-1.9,2.8-4.1,4.4-6.4,5.1c-2.4,0.6-4.6,0.2-6.8-1.4c-1-0.7-1.8-1.5-2.6-2.6
			c-0.8-1-1.3-2.2-1.5-3.6c-0.2-1.4-0.2-2.8,0.1-4.2l6.1-0.6c-0.5,2.5-0.1,4.2,1.3,5.2c0.9,0.6,1.7,0.7,2.6,0.2
			c0.9-0.5,1.8-1.4,2.8-2.9l11.9-17L194.1,611z"/>
		<path class="st8" d="M182.6,641l16.4-27.6l5.5,3.3l-16.4,27.6L182.6,641z"/>
		<path class="st8" d="M192.9,646.1l25.3-23.5l4.3,2.1l-2.4,34.5l-6-2.9l0.4-6.4l-10.9-5.2l-4.7,4.4L192.9,646.1z M215.8,633.1
			l-7.6,7l6.8,3.2L215.8,633.1z"/>
		<path class="st8" d="M247.4,671.2l-4.6-1.9l-5.9-22.9l-7.1,17.7l-5.8-2.3l12-29.8l4.6,1.8l5.9,23l7.1-17.7l5.8,2.3L247.4,671.2z"
			/>
		<path class="st8" d="M269,667.4l1.3-6.3l13.2,2.7l-2.6,12.7c-1.7,1.4-3.7,2.4-5.9,2.9c-2.2,0.6-4.4,0.6-6.6,0.2
			c-2.2-0.4-4.1-1.3-5.9-2.4c-1.7-1.2-3.2-2.6-4.2-4.3c-1.1-1.7-1.8-3.7-2.1-5.9c-0.3-2.2-0.3-4.5,0.2-6.8c0.5-2.2,1.2-4.2,2.3-6.1
			c1.1-1.9,2.5-3.4,4.1-4.6c1.6-1.2,3.4-2.1,5.4-2.5c2-0.5,4-0.5,6.2,0c1.5,0.3,2.9,0.8,4.2,1.5c1.3,0.7,2.6,1.6,3.7,2.7
			c1.1,1.1,1.9,2.4,2.4,3.8l-5.2,3.4c-0.6-1.2-1.4-2.2-2.5-3c-1.1-0.8-2.3-1.4-3.7-1.7c-2.6-0.5-4.8-0.1-6.6,1.3
			c-1.9,1.4-3.1,3.6-3.7,6.5c-0.2,1.1-0.3,2.3-0.2,3.4c0.1,1.2,0.4,2.3,0.9,3.4c0.5,1.1,1.3,2,2.3,2.8c1,0.8,2.4,1.4,4,1.7
			c0.9,0.2,1.8,0.2,2.8,0.1s2-0.4,2.9-0.8l0.7-3.3L269,667.4z"/>
		<path class="st8" d="M315.7,658.7l-13.7,13.1l6.9,18.3l-7.6-1.7l-4.3-11.8l-9,8.7l-7.6-1.7l14.2-13.5l-6.6-17.8l7.5,1.7l4.1,11.2
			l8.5-8.3L315.7,658.7z"/>
		<path class="st8" d="M313.2,691.5l4.9-31.8l6.3,1l-4.9,31.8L313.2,691.5z"/>
		<path class="st8" d="M339.7,696.3l1.8-32.1l5.4,0.3l-1.5,25.5l13.3,0.8l-0.4,6.7L339.7,696.3z"/>
		<path class="st8" d="M363.6,698.3l1.7-32.1l6.4,0.3l-1.7,32.1L363.6,698.3z"/>
		<path class="st8" d="M374.4,699.4l13.3-31.9l4.8,0.1l12.1,32.4l-6.7-0.1l-2.2-6l-12.1-0.2l-2.5,5.9L374.4,699.4z M389.9,678.1
			l-4,9.5l7.5,0.1L389.9,678.1z"/>
		<path class="st8" d="M433.8,699.5l-5,0.1l-14.5-18.7l0.5,19.1l-6.2,0.1l-0.8-32.2l4.9-0.1l14.5,18.8l-0.5-19.1l6.2-0.1
			L433.8,699.5z"/>
		<path class="st8" d="M455,687.3c-0.1-0.5-0.2-0.9-0.6-1.3c-0.3-0.4-0.8-0.8-1.6-1.1c-0.7-0.3-2.1-0.7-4.2-1.1
			c-2.1-0.4-3.7-0.9-4.8-1.3c-1.1-0.4-2-1-2.8-1.6c-0.8-0.6-1.4-1.4-2-2.4c-0.5-1-0.9-2.2-1-3.5c-0.1-0.9-0.1-1.9,0.1-3
			c0.2-1.1,0.7-2.3,1.5-3.5c0.8-1.2,1.9-2.2,3.3-3c1.4-0.8,2.9-1.2,4.5-1.4c1.7-0.2,3.3-0.1,4.8,0.3c1.6,0.4,2.9,1,4,1.9
			c1.1,0.8,2,1.6,2.6,2.4l-3.5,5c-1-1-2.1-1.8-3.4-2.4c-1.3-0.6-2.6-0.8-4-0.6c-1.4,0.2-2.4,0.5-3,1.2c-0.6,0.6-0.9,1.4-0.8,2.3
			c0.1,0.6,0.3,1,0.8,1.4c0.5,0.4,1,0.6,1.7,0.8c0.7,0.2,2,0.5,3.9,0.9c2,0.4,3.5,0.8,4.6,1.2c1.1,0.4,2.1,1,2.8,1.6
			c0.8,0.6,1.4,1.4,2,2.4c0.5,1,0.9,2.2,1,3.5c0.1,1,0.1,2.2-0.1,3.3c-0.2,1.2-0.7,2.4-1.6,3.7c-0.8,1.2-1.9,2.2-3.3,3
			c-1.4,0.7-2.8,1.2-4.2,1.4c-2,0.2-3.9,0.1-5.7-0.4c-1.8-0.5-3.4-1.3-4.8-2.4c-1.3-1.1-2.4-2.3-3.1-3.6l3.9-4.8
			c1.1,1.6,2.4,2.8,3.9,3.6c1.6,0.8,3.1,1.1,4.8,0.9c1.4-0.2,2.4-0.6,3.1-1.2C454.9,688.9,455.1,688.2,455,687.3z"/>
		<path class="st8" d="M483.4,692.3l-1.4-12.8l-11.5,1.2l1.4,12.8l-5.7,0.6l-3.4-32l5.7-0.6l1.3,12.6l11.5-1.2l-1.3-12.6l5.7-0.6
			l3.4,32L483.4,692.3z"/>
		<path class="st8" d="M497.3,688.6l-6.8-31.4l20.3-4.4l1.4,6.5l-14.4,3.1l1.3,5.8l13.4-2.9l1.4,6.3l-13.4,2.9l1.4,6.3l14.7-3.2
			l1.4,6.5L497.3,688.6z"/>
		<path class="st8" d="M547.9,674l-4.8,1.4L524.3,661l5.4,18.3l-6,1.8l-9-30.9l4.7-1.4l18.9,14.4l-5.4-18.3l6-1.8L547.9,674z"/>
		<path class="st8" d="M561.6,655l-2.3-6l12.6-4.8l4.6,12.2c-0.7,2.1-1.8,4-3.4,5.6c-1.6,1.7-3.4,2.9-5.5,3.7
			c-2.1,0.8-4.1,1.1-6.2,1.1c-2.1-0.1-4.1-0.5-5.9-1.4c-1.8-0.9-3.5-2.1-4.9-3.8c-1.5-1.7-2.6-3.6-3.5-5.9c-0.8-2.1-1.2-4.2-1.3-6.4
			c-0.1-2.2,0.3-4.2,1-6.1c0.7-1.9,1.8-3.6,3.2-5.1c1.4-1.5,3.2-2.6,5.2-3.3c1.4-0.5,2.9-0.9,4.4-1c1.5-0.1,3,0,4.6,0.3
			c1.5,0.3,2.9,1,4,1.9l-2.6,5.7c-1.1-0.7-2.4-1.1-3.7-1.2c-1.3-0.1-2.7,0.1-4,0.6c-2.4,0.9-4.1,2.5-4.9,4.7
			c-0.8,2.2-0.7,4.7,0.4,7.5c0.4,1.1,0.9,2.1,1.6,3c0.7,1,1.5,1.8,2.5,2.4s2.2,1,3.5,1.1c1.3,0.1,2.7-0.1,4.3-0.7
			c0.8-0.3,1.6-0.8,2.5-1.4c0.8-0.6,1.5-1.4,2-2.2l-1.2-3.2L561.6,655z"/>
		<path class="st8" d="M595.1,652.6L580,624.2l17.9-9.5l3.1,5.9l-12.7,6.7l3.3,6.2l11.8-6.3l3.1,5.9l-11.8,6.3l5.5,10.4L595.1,652.6
			z"/>
		<path class="st8" d="M630.7,620.9l5.2,2.5c-0.1,1.2-0.3,2.5-0.8,3.8c-0.5,1.4-1.3,2.7-2.5,4c-1.2,1.3-2.6,2.4-4.1,3.2
			c-1.9,0.9-3.7,1.4-5.6,1.4c-1.9,0-3.7-0.3-5.5-1.1c-1.8-0.8-3.4-1.9-4.9-3.5c-1.5-1.6-2.8-3.4-3.8-5.6c-1-2-1.6-4.1-1.9-6.2
			c-0.3-2.1-0.2-4.2,0.2-6.1c0.4-1.9,1.3-3.7,2.5-5.2c1.2-1.5,2.7-2.8,4.5-3.7c1.6-0.8,3.2-1.2,4.9-1.4c1.7-0.1,3.2,0,4.4,0.4
			c1.3,0.4,2.3,0.9,3.2,1.6l-1.7,5.8c-1.2-0.7-2.5-1-3.8-1.1c-1.4,0-2.6,0.2-3.6,0.7c-2.2,1.1-3.6,2.8-4.1,5
			c-0.6,2.3-0.2,4.7,1.1,7.4c1.3,2.6,3,4.3,5.2,5.3c2.2,1,4.3,0.9,6.4-0.1c1.3-0.7,2.4-1.6,3.2-2.8
			C629.9,624,630.4,622.6,630.7,620.9z"/>
	</g>
	<g>
		<polygon class="st11" points="316.1,595.1 317.1,606.8 328.5,609.4 317.7,614 318.7,625.7 311.1,616.8 300.3,621.4 306.3,611.3 
			298.7,602.5 310.1,605.2 		"/>
		<polygon class="st11" points="370.4,603.6 373.1,615 384.7,615.9 374.7,622 377.4,633.4 368.5,625.8 358.5,631.8 363.1,621.1 
			354.2,613.4 365.9,614.4 		"/>
	</g>
	<g>
		<polygon class="st11" points="478.9,596.1 477.9,607.8 466.5,610.4 477.2,615 476.2,626.7 483.9,617.8 494.7,622.4 488.6,612.3 
			496.3,603.5 484.9,606.2 		"/>
		<polygon class="st11" points="424.6,604.6 421.9,616 410.2,616.9 420.2,623 417.6,634.4 426.4,626.8 436.4,632.8 431.9,622.1 
			440.8,614.4 429.1,615.4 		"/>
	</g>
</g>
</svg>
