<?xml version="1.0" encoding="utf-8"?>
<!-- Generator: Adobe Illustrator 22.1.0, SVG Export Plug-In . SVG Version: 6.00 Build 0)  -->
<svg version="1.1" id="图层_1" xmlns="http://www.w3.org/2000/svg" xmlns:xlink="http://www.w3.org/1999/xlink" x="0px" y="0px"
	 viewBox="0 0 800 800" style="enable-background:new 0 0 800 800;" xml:space="preserve">
<style type="text/css">
	.st0{fill:#004098;}
</style>
<g>
	<polygon class="st0" points="267.1,262.3 299.1,262.3 357.5,161.9 377,195.3 392.5,168.9 357.5,109.9 	"/>
	<polygon class="st0" points="443,109.9 353.1,262.3 447.4,262.3 415.5,207.3 443,162.4 501.4,262.3 533.4,262.3 	"/>
	<polygon class="st0" points="266.8,273.9 266.8,306.3 291.5,306.3 291.5,299.6 274,299.6 274,273.9 	"/>
	<rect x="295.2" y="273.9" class="st0" width="7.2" height="32.4"/>
	<path class="st0" d="M305.5,306.3h7.4l2.6-6h13.6l2.6,6h7.5L325,273.9h-5.3L305.5,306.3z M326.4,294.2H318l4.3-9.7L326.4,294.2z"/>
	<polygon class="st0" points="347.6,273.9 342.1,273.9 342.1,306.3 349.1,306.3 349.1,287.1 364.8,306.3 370.3,306.3 370.3,273.9 
		363.3,273.9 363.3,293.1 	"/>
	<path class="st0" d="M391.9,299.5c-0.9,0.6-2.1,0.9-3.8,0.9c-1.9,0-3.8-0.5-5.5-1.5c-1.7-1-3.1-2.4-4.1-4.1l-5.2,4.4
		c0.7,1.4,1.8,2.7,3.2,3.9c1.4,1.3,3.2,2.2,5.2,2.9s4.3,1,6.6,1c1.7,0,3.4-0.3,5.1-0.9c1.7-0.6,3.1-1.5,4.2-2.6
		c1.1-1.1,1.9-2.3,2.3-3.5c0.4-1.2,0.6-2.3,0.6-3.3c0-1.4-0.2-2.6-0.7-3.7c-0.5-1-1.2-1.9-2-2.6c-0.8-0.7-1.8-1.4-3.1-1.9
		c-1.2-0.6-3-1.2-5.2-1.8c-2.2-0.6-3.7-1.1-4.5-1.3c-0.8-0.3-1.4-0.6-1.9-1c-0.5-0.4-0.7-0.9-0.7-1.5c0-1,0.4-1.7,1.2-2.2
		c0.8-0.5,2-0.8,3.6-0.8c1.6,0,3.2,0.4,4.5,1.1c1.4,0.7,2.6,1.7,3.6,2.8l4.8-4.6c-0.6-0.9-1.6-1.8-2.7-2.7c-1.2-1-2.6-1.7-4.4-2.3
		c-1.8-0.6-3.6-0.9-5.6-0.9c-1.9,0-3.7,0.3-5.4,0.9c-1.7,0.6-3.2,1.5-4.3,2.6c-1.1,1.1-1.9,2.3-2.3,3.3c-0.4,1.1-0.6,2.1-0.6,3
		c0,1.4,0.2,2.6,0.7,3.7c0.5,1.1,1.2,1.9,2,2.6c0.8,0.7,1.8,1.3,3,1.9c1.2,0.6,3,1.2,5.4,1.9c2.4,0.7,4,1.2,4.8,1.6
		c0.8,0.4,1.3,0.8,1.7,1.3c0.3,0.4,0.5,0.9,0.5,1.4C393.2,298.2,392.8,298.9,391.9,299.5z"/>
	<polygon class="st0" points="433.8,306.3 433.8,273.9 426.6,273.9 426.6,286.6 412.2,286.6 412.2,273.9 405,273.9 405,306.3 
		412.2,306.3 412.2,293.3 426.6,293.3 426.6,306.3 	"/>
	<polygon class="st0" points="464.6,280.6 464.6,273.9 439.8,273.9 439.8,306.3 465,306.3 465,299.6 447,299.6 447,293.1 
		463.5,293.1 463.5,286.6 447,286.6 447,280.6 	"/>
	<polygon class="st0" points="475.4,273.9 469.9,273.9 469.9,306.3 476.9,306.3 476.9,287.1 492.6,306.3 498.2,306.3 498.2,273.9 
		491.2,273.9 491.2,293.1 	"/>
	<path class="st0" d="M519.6,280.3c1.6,0,3.1,0.3,4.4,0.9c1.4,0.6,2.5,1.4,3.4,2.5l5-4.4c-0.8-1.3-2-2.4-3.5-3.2
		c-1.5-0.9-3-1.5-4.7-1.9c-1.6-0.4-3.3-0.6-5-0.6c-2.4,0-4.7,0.4-6.7,1.3c-2.1,0.9-3.9,2.1-5.4,3.6c-1.5,1.5-2.6,3.3-3.5,5.4
		c-0.8,2.1-1.2,4.2-1.2,6.5c0,2.4,0.4,4.7,1.3,6.8c0.9,2.1,2.1,3.9,3.7,5.4c1.6,1.5,3.5,2.6,5.6,3.4c2.2,0.8,4.5,1.2,7,1.2
		c2.5,0,5-0.5,7.3-1.5c2.3-1,4.2-2.4,5.8-4.1v-13.1h-15.1v6.5h8.2v3.4c-0.9,0.6-1.9,1.1-3,1.4c-1.1,0.3-2.2,0.5-3.2,0.5
		c-1.8,0-3.4-0.3-4.7-0.9c-1.3-0.6-2.4-1.4-3.2-2.3c-0.8-0.9-1.4-2-1.7-3.2c-0.3-1.2-0.5-2.3-0.5-3.5c0-3,0.9-5.4,2.6-7.2
		C514.3,281.1,516.7,280.3,519.6,280.3z"/>
	<path class="st0" d="M164.1,622c-0.3,1.4-0.3,2.8-0.1,4.2c0.2,1.4,0.7,2.6,1.5,3.6c0.8,1,1.6,1.9,2.6,2.6c2.2,1.5,4.5,2,6.8,1.4
		c2.4-0.6,4.5-2.3,6.4-5l12.7-18.1l-5.2-3.7l-11.9,17c-1,1.5-2,2.4-2.9,2.9c-0.9,0.5-1.8,0.4-2.6-0.2c-1.4-1-1.8-2.7-1.3-5.2
		L164.1,622z"/>
	
		<rect x="177.5" y="625.2" transform="matrix(0.5127 -0.8586 0.8586 0.5127 -445.1949 472.4317)" class="st0" width="32.2" height="6.4"/>
	<path class="st0" d="M220,658.8l2.5-34.5l-4.3-2.1l-25.4,23.5l6,2.9l4.7-4.4l10.9,5.2l-0.5,6.4L220,658.8z M208.2,639.8l7.6-7
		l-0.8,10.3L208.2,639.8z"/>
	<polygon class="st0" points="253.5,638.8 246.4,656.5 240.5,633.5 236,631.7 223.9,661.5 229.6,663.8 236.8,646.2 242.6,669.1 
		247.2,671 259.3,641.2 	"/>
	<path class="st0" d="M258.2,672.6c1.1,1.7,2.5,3.2,4.2,4.4c1.7,1.2,3.7,2,5.9,2.4c2.2,0.5,4.4,0.4,6.6-0.1c2.2-0.6,4.2-1.5,5.9-2.9
		l2.6-12.7l-13.2-2.7l-1.3,6.3l7.2,1.5l-0.7,3.3c-0.9,0.4-1.8,0.7-2.9,0.8c-1,0.1-2,0.1-2.8-0.1c-1.6-0.3-2.9-0.9-3.9-1.7
		c-1-0.8-1.8-1.8-2.3-2.8c-0.5-1.1-0.8-2.2-0.9-3.4c-0.1-1.2,0-2.3,0.3-3.4c0.6-2.9,1.8-5.1,3.7-6.5c1.9-1.4,4.1-1.8,6.6-1.3
		c1.4,0.3,2.6,0.8,3.7,1.7c1.1,0.8,1.9,1.8,2.5,3l5.2-3.4c-0.5-1.4-1.3-2.7-2.4-3.8c-1.1-1.1-2.3-2-3.7-2.7
		c-1.3-0.7-2.8-1.2-4.2-1.5c-2.1-0.4-4.2-0.4-6.2,0s-3.8,1.3-5.4,2.5c-1.6,1.2-3,2.8-4.1,4.6c-1.1,1.8-1.9,3.9-2.4,6.1
		c-0.5,2.4-0.6,4.6-0.2,6.8C256.4,668.9,257.1,670.9,258.2,672.6z"/>
	<polygon class="st0" points="308,656.8 299.5,665.1 295.4,653.9 287.8,652.2 294.4,670 280.2,683.4 287.8,685.2 296.8,676.4 
		301.1,688.2 308.7,690 301.8,671.7 315.6,658.5 	"/>
	
		<rect x="302.7" y="672.7" transform="matrix(0.1558 -0.9878 0.9878 0.1558 -398.6072 885.4627)" class="st0" width="32.2" height="6.4"/>
	<polygon class="st0" points="341.4,664.1 339.5,696.2 358.3,697.3 358.6,690.6 345.4,689.9 346.9,664.4 	"/>
	
		<rect x="351.4" y="679.2" transform="matrix(5.520003e-02 -0.9985 0.9985 5.520003e-02 -334.1104 1011.6445)" class="st0" width="32.2" height="6.4"/>
	<path class="st0" d="M387.6,667.5l-13.4,31.9l6.6,0.1l2.5-5.9l12.1,0.3l2.2,6l6.7,0.1l-12-32.4L387.6,667.5z M385.7,687.6l4-9.5
		l3.5,9.7L385.7,687.6z"/>
	<polygon class="st0" points="433.7,699.6 433,667.4 426.7,667.5 427.1,686.7 412.7,667.8 407.8,668 408.5,700.1 414.7,700 
		414.3,680.9 428.7,699.7 	"/>
	<path class="st0" d="M451,690.9c-1.6,0.2-3.2-0.1-4.8-1c-1.5-0.8-2.9-2-3.9-3.6l-3.9,4.8c0.8,1.3,1.8,2.5,3.1,3.6
		c1.3,1.1,2.9,1.9,4.8,2.4c1.8,0.5,3.7,0.6,5.7,0.4c1.4-0.2,2.8-0.6,4.2-1.4c1.4-0.7,2.5-1.7,3.3-3c0.8-1.2,1.3-2.4,1.6-3.6
		c0.2-1.2,0.3-2.3,0.2-3.3c-0.2-1.4-0.5-2.5-1-3.5c-0.5-1-1.2-1.8-2-2.4c-0.8-0.6-1.7-1.2-2.8-1.6c-1.1-0.4-2.6-0.9-4.6-1.3
		c-2-0.4-3.3-0.7-3.9-0.9c-0.7-0.2-1.2-0.5-1.7-0.8c-0.5-0.4-0.7-0.8-0.8-1.4c-0.1-0.9,0.2-1.7,0.8-2.3c0.6-0.6,1.6-1,3-1.1
		c1.4-0.2,2.7,0.1,4,0.6c1.3,0.6,2.4,1.4,3.4,2.4l3.6-5c-0.6-0.8-1.5-1.6-2.6-2.4c-1.1-0.8-2.4-1.5-4-1.9c-1.6-0.4-3.2-0.5-4.8-0.4
		c-1.6,0.2-3.1,0.6-4.5,1.4c-1.4,0.8-2.5,1.8-3.4,3c-0.8,1.2-1.3,2.4-1.5,3.5c-0.2,1.1-0.3,2.1-0.2,3c0.2,1.4,0.5,2.5,1,3.5
		c0.5,1,1.2,1.8,2,2.4c0.8,0.6,1.7,1.1,2.8,1.6c1.1,0.4,2.7,0.9,4.8,1.3c2.1,0.4,3.5,0.8,4.2,1.1c0.7,0.3,1.2,0.7,1.6,1.1
		c0.3,0.4,0.5,0.9,0.6,1.3c0.1,0.9-0.2,1.6-0.8,2.2C453.4,690.4,452.4,690.8,451,690.9z"/>
	<polygon class="st0" points="483.3,692.5 489,691.9 485.7,659.9 479.9,660.5 481.3,673 469.8,674.2 468.5,661.7 462.7,662.3 
		466,694.3 471.8,693.7 470.4,680.9 481.9,679.7 	"/>
	<polygon class="st0" points="510.7,653 490.4,657.4 497.2,688.8 517.8,684.4 516.4,677.9 501.7,681 500.3,674.7 513.8,671.8 
		512.4,665.6 499,668.5 497.7,662.6 512.1,659.5 	"/>
	<polygon class="st0" points="547.8,674.3 538.8,643.5 532.8,645.2 538.2,663.6 519.3,649.1 514.6,650.5 523.6,681.4 529.6,679.6 
		524.2,661.3 543,675.7 	"/>
	<path class="st0" d="M555.4,665.7c1.8,0.9,3.8,1.3,5.9,1.4c2.1,0.1,4.2-0.3,6.2-1.1c2.1-0.8,4-2,5.5-3.7c1.6-1.7,2.7-3.5,3.4-5.6
		l-4.6-12.2l-12.6,4.8l2.3,6l6.8-2.6l1.2,3.2c-0.5,0.8-1.2,1.6-2,2.2c-0.8,0.6-1.6,1.1-2.5,1.4c-1.5,0.6-2.9,0.8-4.3,0.6
		c-1.3-0.1-2.5-0.5-3.5-1.1c-1-0.6-1.8-1.4-2.5-2.4c-0.7-1-1.2-2-1.6-3c-1.1-2.8-1.2-5.3-0.3-7.5c0.8-2.2,2.5-3.7,4.9-4.7
		c1.3-0.5,2.7-0.7,4-0.6c1.3,0.1,2.6,0.5,3.7,1.2l2.6-5.7c-1.2-0.9-2.5-1.6-4-1.9c-1.5-0.3-3.1-0.5-4.6-0.3c-1.5,0.1-3,0.4-4.4,1
		c-2,0.8-3.7,1.9-5.2,3.3c-1.4,1.5-2.5,3.1-3.2,5c-0.7,1.9-1,3.9-1,6.1s0.5,4.3,1.3,6.4c0.9,2.3,2,4.2,3.5,5.9
		C551.9,663.6,553.5,664.8,555.4,665.7z"/>
	<polygon class="st0" points="603.5,627.7 591.6,634 588.3,627.7 601,621 597.9,615.2 580,624.6 595,653.1 600.3,650.3 594.7,639.9 
		606.6,633.6 	"/>
	<path class="st0" d="M608.6,626.2c1.1,2.2,2.3,4,3.8,5.6c1.5,1.6,3.1,2.7,4.9,3.5c1.8,0.8,3.6,1.1,5.5,1.1c1.9,0,3.8-0.5,5.6-1.4
		c1.6-0.8,3-1.8,4.1-3.2c1.2-1.3,2-2.7,2.5-4c0.5-1.4,0.8-2.6,0.8-3.8l-5.2-2.5c-0.2,1.6-0.8,3.1-1.6,4.3c-0.8,1.2-1.9,2.2-3.2,2.8
		c-2.1,1-4.3,1.1-6.4,0.1c-2.2-1-3.9-2.7-5.2-5.3c-1.3-2.6-1.7-5.1-1.1-7.4c0.6-2.3,2-3.9,4.2-5c1-0.5,2.2-0.7,3.6-0.7
		c1.4,0,2.6,0.4,3.8,1.1l1.7-5.8c-0.9-0.6-1.9-1.2-3.2-1.6c-1.3-0.4-2.7-0.5-4.4-0.4c-1.7,0.1-3.3,0.6-4.9,1.4
		c-1.8,0.9-3.3,2.1-4.5,3.6c-1.2,1.5-2,3.3-2.5,5.2c-0.5,1.9-0.5,4-0.2,6.1C607,622.1,607.6,624.2,608.6,626.2z"/>
	<path class="st0" d="M313.5,629.2c27.5,6.7,55.9,10.2,82.1,10.2c1.1,0,2.1,0,2.9,0c0.6,0,1.1,0,1.5,0c0.4,0,0.9,0,1.5,0
		c0.8,0,1.8,0,2.9,0c26.2,0,54.5-3.5,82.1-10.2c28.1-6.8,55.1-16.7,80.7-29.5l-21.7-32.5c0,0-64.6,33.3-145.5,33.3
		s-145.5-33.3-145.5-33.3l-21.7,32.5C258.4,612.5,285.4,622.4,313.5,629.2z M477.9,607.8l1-11.7l6,10l11.4-2.7l-7.7,8.8l6,10
		l-10.8-4.6l-7.7,8.8l1-11.7l-10.8-4.6L477.9,607.8z M421.9,616l2.7-11.4l4.5,10.8l11.7-1l-8.9,7.6l4.5,10.8l-10-6.1l-8.9,7.6
		l2.7-11.4l-10-6.1L421.9,616z M365.9,614.4l4.5-10.8l2.7,11.4l11.7,1l-10,6.1l2.7,11.4l-8.9-7.6l-10,6.1l4.5-10.8l-8.9-7.6
		L365.9,614.4z M310.1,605.2l6-10l1,11.7l11.4,2.7l-10.8,4.6l1,11.7l-7.7-8.8l-10.8,4.6l6-10l-7.7-8.8L310.1,605.2z"/>
	<path class="st0" d="M213.2,136.2l-87.9,64.6c5,182.7,74.1,302,125.7,366.1l1-1.5l1.5-2.2l2.4,1.2c0.2,0.1,10,5.1,26.4,11.1
		c0,0,0,0,0,0c0.1,0,0.1,0,0.2,0.1c1.1,0.4,2.2,0.8,3.4,1.2c0.1,0,0.2,0.1,0.3,0.1c1.3,0.4,2.6,0.9,3.9,1.3c0,0,0,0,0,0c0,0,0,0,0,0
		c0,0,0,0,0,0c-4.7-12.7-7.3-26.4-7.3-40.7c0-1.5,0-3,0.1-4.5c0-0.3,0-0.6,0-0.8c0.1-1.4,0.2-2.9,0.3-4.3c0-0.3,0-0.5,0.1-0.8
		c0.3-3,0.6-5.9,1.1-8.9c0-0.2,0.1-0.5,0.1-0.7c0.2-1.4,0.5-2.8,0.8-4.3c0-0.2,0.1-0.4,0.1-0.6c0.6-2.9,1.4-5.8,2.2-8.7
		c0-0.2,0.1-0.3,0.1-0.5c0.4-1.4,0.9-2.8,1.4-4.2c0-0.1,0.1-0.2,0.1-0.3c1-2.9,2.1-5.7,3.3-8.5c0-0.1,0.1-0.2,0.1-0.3
		c0.6-1.4,1.3-2.8,1.9-4.1c0,0,0-0.1,0-0.1c1.4-2.8,2.9-5.5,4.4-8.2c0,0,0,0,0-0.1c2.4-4,5-7.9,7.9-11.6
		c21.4-27.8,55.1-45.7,92.9-45.7c38.1,0,72,18.2,93.4,46.4c0.9,1.2,1.8,2.5,2.7,3.7c0,0,0,0,0,0c1.8,2.5,3.4,5.1,5,7.7
		c0,0,0.1,0.1,0.1,0.1c0.8,1.3,1.5,2.6,2.2,4c0,0,0,0,0,0.1c1.4,2.7,2.8,5.4,4,8.2c0.1,0.1,0.1,0.2,0.2,0.3c0.6,1.4,1.2,2.7,1.7,4.1
		c0,0.1,0,0.1,0.1,0.2c0.5,1.4,1.1,2.8,1.5,4.2c0,0,0,0.1,0,0.1c0.5,1.4,0.9,2.8,1.3,4.2c0.1,0.2,0.1,0.4,0.2,0.6
		c0.4,1.4,0.8,2.8,1.2,4.2c0,0.1,0,0.2,0.1,0.2c0.3,1.4,0.7,2.7,1,4.1c0,0.2,0.1,0.3,0.1,0.5c0.3,1.4,0.6,2.8,0.8,4.2
		c0,0.3,0.1,0.5,0.1,0.8c0.2,1.4,0.5,2.9,0.6,4.3c0,0.1,0,0.2,0,0.2c0.2,1.4,0.3,2.8,0.4,4.2c0,0.3,0,0.5,0.1,0.8
		c0.1,1.4,0.2,2.8,0.3,4.3c0,0.3,0,0.6,0,0.9c0.1,1.5,0.1,3,0.1,4.5c0,14.3-2.6,28-7.3,40.7c0,0,0,0,0,0c0,0,0,0,0,0
		c0.1,0,0.1,0,0.2-0.1c0.7-0.2,1.3-0.5,2-0.7c0.3-0.1,0.6-0.2,0.8-0.3c0.4-0.1,0.8-0.3,1.2-0.4c0.3-0.1,0.7-0.2,1-0.4
		c0.3-0.1,0.7-0.2,1-0.4c0.4-0.1,0.7-0.3,1-0.4c0.3-0.1,0.6-0.2,0.9-0.3c0.3-0.1,0.5-0.2,0.8-0.3c0,0,0,0,0,0
		c15.8-5.9,25.2-10.7,25.3-10.7l2.4-1.2l1.5,2.2l1.2,1.8c51.6-64,121-183.4,126-366.4l-87.9-64.6c0,0-14,14.7-91.9,32.6l63.4,103.8
		c12,19.7-2.1,45-25.3,45h-40.2v136.4c-8.8-9.9-19.2-18.4-30.8-25.1V317.7H337.4v112c-11.4,6.7-21.6,15.2-30.3,25.1v-137h-40.2
		c-23.1,0-37.3-25.3-25.3-45l63.4-103.8C227.2,150.9,213.2,136.2,213.2,136.2z"/>
	<path class="st0" d="M497.3,582.4c6.3-13.6,9.8-28.8,9.8-44.8c0-59.1-47.9-107-107-107s-107,47.9-107,107c0,16,3.5,31.1,9.8,44.7
		c2.5,0.8,5.2,1.5,7.9,2.3c-7.3-13.8-11.5-29.5-11.6-46.2l7.4,5.1c2.5,9.9,7.1,26.5,13.1,43.4c1.9,0.5,3.9,1,5.8,1.4
		c-6.3-17-11.1-34.2-13.8-44.8l27.2-20.2l29.1,8.2l10.8,34.5l-19.1,23.7H332c10.5,2.2,21.7,4.2,33.6,5.5l-1.3-3.4l18.6-23.1H417
		l18.8,25.4l-0.2,1c9.7-1.1,18.9-2.6,27.6-4.4h-23.7l-17.9-24.1l11.5-34.8l29.2-8.9l27.2,19.9c-2.5,10.8-7,26.8-14.3,45.3
		c2-0.5,4-1,5.9-1.4c6.6-17.3,10.8-32.2,13.2-42.6l6.7-5.5c-0.2,16.6-4.4,32.1-11.7,45.9C492.1,583.9,494.8,583.2,497.3,582.4z
		 M314.8,483.3c13.2-20.7,33.8-36.2,58-43l-3.4,10.2L326,481.6L314.8,483.3z M398,505.5L369.7,527l-28.2-8l-10.8-34.6l39.5-28.3
		l27.9,20V505.5z M460.3,518.5l-29.1,8.9L403,506.3v-30.9l26.8-19.4l41.9,28.7L460.3,518.5z M477.4,482.5l-45.8-31.4l-3.2-10.5
		c23.4,6.8,43.3,21.9,56.3,41.9H477.4z"/>
	<path class="st0" d="M703.9,187.5l-0.6-5.3l-4.3-3.1l-104.6-75.9l-7.2-5.2l-7.1,5.4c-24.7,18.8-66.3,29.7-86.1,34.1L441.3,50
		L400,121.3L358.7,50l-52.8,87.5c-19.8-4.4-61.4-15.3-86.1-34.1l-7.1-5.4l-7.2,5.2l-104.6,75.9l-4.3,3.1l-0.6,5.3
		c-0.1,0.8-2.3,21.1-0.4,54.9c1.7,30.9,7.3,79.7,24.3,136.5c19,63.8,48.2,124.5,86.7,180.4c8.2,11.9,16.9,23.7,25.9,35.2l7-10.5
		C86.2,387,108,188.8,108,188.8l104.6-75.9c36,27.3,102.6,38.6,102.6,38.6l42.6-71.3l42.3,71.3v0l42.3-71.3l42.6,71.3
		c0,0,66.6-11.3,102.6-38.6L692,188.8c0,0,21.8,198.1-131.6,395.2l7,10.5c9.1-11.5,17.7-23.2,25.9-35.2
		C631.8,503.5,661,442.8,680,379c16.9-56.8,22.6-105.6,24.3-136.5C706.2,208.6,704,188.4,703.9,187.5z"/>
	<path class="st0" d="M400,735.3L400,735.3c-6.5-4.6-12.8-9.2-19-13.8c-7.2-0.3-14.5-0.9-21.7-1.6c11,8.6,22.2,17,33.8,25.2l6.9,4.9
		l6.9-4.9c11.6-8.2,22.9-16.6,33.8-25.2c-7.3,0.7-14.5,1.2-21.7,1.6C412.8,726.1,406.5,730.7,400,735.3z"/>
	<path class="st0" d="M481.3,703.1c-48.4,9.5-114.6,9.3-162.9-0.3c-44.6-8.9-112.1-29.9-180.8-79.5l-4.7,6.9
		c0,0,112,88.5,266.9,88.8c154.8,0.3,267.2-87.7,267.2-87.7l-4.6-6.9C593.5,673.6,525.9,694.3,481.3,703.1z"/>
	<path class="st0" d="M654.1,506.5c0,0-21.8,21.8-51.5,44.6c-2.2,3.4-4.5,6.7-6.8,10c-3.3,4.8-6.7,9.6-10.2,14.5
		c14.9-1.9,25.9-4.5,32.4-6.4c1.7-1.2,3.4-2.4,5.1-3.6l2.5-1.8l1.7,2.6l25.1,37.2c15.1-11.6,32.3-26.7,50-46c0,0-22.3,4-58.6,4.7
		C643.7,562.1,651.4,538.8,654.1,506.5z"/>
	<path class="st0" d="M172.9,565.8l1.8-2.6l2.5,1.9c1.3,1,2.6,1.9,3.9,2.8c6.2,1.8,17.3,4.6,32.7,6.6c-3.2-4.5-6.4-9-9.5-13.4
		c-2.5-3.6-5-7.3-7.4-11c-29.2-22.6-50.6-44.1-50.6-44.1c2.6,32.3,10.2,55.6,10.2,55.6c-36.3-0.7-58.6-4.8-58.6-4.8
		c17.6,19.3,34.8,34.5,49.9,46.1L172.9,565.8z"/>
	<path class="st0" d="M214.9,576.2c-23.9-3-37.7-7.9-39.5-8.6c0,0-0.1,0-0.1-0.1l0,0c0,0-0.1,0-0.1,0l0,0.1l-4.3,6.3
		c3,2.6,24.5,20.2,61.6,38.1c36.1,17.4,94.5,38.2,167.3,38.4s131.3-20.4,167.5-37.7c37.1-17.7,58.7-35.3,61.7-37.9l-4.3-6.4
		c0,0-0.1,0.1-0.1,0.1l0-0.1c0,0-14.3,5.6-40.4,8.8c-2,2.7-4,5.4-6.1,8.1c8.8-0.7,18.4-1.8,27-3.5c-98.7,63.4-192.2,60.5-205.3,60.5
		c-13.1,0-106.8,2.4-205.2-61.4c8.3,1.7,17.6,2.7,26.2,3.4C218.9,581.6,216.9,578.9,214.9,576.2z"/>
</g>
</svg>
