<?xml version="1.0" encoding="utf-8"?>
<!-- Generator: Adobe Illustrator 22.1.0, SVG Export Plug-In . SVG Version: 6.00 Build 0)  -->
<svg version="1.1" id="图层_1" xmlns="http://www.w3.org/2000/svg" xmlns:xlink="http://www.w3.org/1999/xlink" x="0px" y="0px"
	 viewBox="0 0 800 800" style="enable-background:new 0 0 800 800;" xml:space="preserve">
<style type="text/css">
	.st0{fill:url(#SVGID_1_);}
	.st1{fill:url(#SVGID_2_);}
	.st2{fill:url(#SVGID_3_);}
	.st3{fill:url(#SVGID_4_);}
	.st4{fill:#003E84;}
	.st5{fill:url(#SVGID_5_);}
	.st6{fill:url(#SVGID_6_);}
	.st7{fill:url(#SVGID_7_);}
	.st8{fill:url(#SVGID_8_);}
	.st9{fill:url(#SVGID_9_);}
	.st10{fill:#FFFFFF;}
	.st11{fill:url(#SVGID_10_);}
	.st12{fill:url(#SVGID_11_);}
	.st13{fill:#8EA7B2;}
	.st14{fill:url(#SVGID_12_);}
	.st15{fill:url(#SVGID_13_);}
	.st16{fill:#0068B4;}
	.st17{fill:url(#SVGID_14_);}
	.st18{fill:#B7CCD2;}
	.st19{fill:#001C57;}
</style>
<g>
	<g>
		<linearGradient id="SVGID_1_" gradientUnits="userSpaceOnUse" x1="400" y1="750" x2="400" y2="50">
			<stop  offset="0" style="stop-color:#C89E44"/>
			<stop  offset="0.3682" style="stop-color:#F0E7C7"/>
			<stop  offset="0.5193" style="stop-color:#DABA69"/>
			<stop  offset="0.6669" style="stop-color:#F0E7C7"/>
			<stop  offset="0.8306" style="stop-color:#DABA69"/>
			<stop  offset="0.9177" style="stop-color:#F8F5C6"/>
			<stop  offset="1" style="stop-color:#BD8F30"/>
		</linearGradient>
		<path class="st0" d="M655.5,498c0,0,68.2-137.7,40.8-365.7c0,0-70.7,7.3-148.7-28S437,50,400,50s-69.7,19-147.7,54.3
			s-148.7,28-148.7,28C76.3,360.3,144.5,498,144.5,498c-21.2,4.2-55.2,14-55.2,14l30.2,144.5C181.8,664.5,269,668,269,668
			c46.5,44,131,82,131,82s84.5-38,131-82c0,0,87.2-3.5,149.5-11.5L710.8,512C710.8,512,676.8,502.2,655.5,498z"/>
		<linearGradient id="SVGID_2_" gradientUnits="userSpaceOnUse" x1="400" y1="750" x2="400" y2="50">
			<stop  offset="0" style="stop-color:#F3DBAD"/>
			<stop  offset="0.1602" style="stop-color:#D8AA56"/>
			<stop  offset="0.8518" style="stop-color:#D8AA56"/>
			<stop  offset="1" style="stop-color:#F3DBAD"/>
		</linearGradient>
		<path class="st1" d="M400,54c29.4,0,55.4,12.1,107.4,36.2c11.4,5.3,24.3,11.3,38.6,17.7c55.7,25.2,107.6,29,133.7,29
			c5.8,0,10.2-0.2,13.1-0.4c5.8,50.4,7.4,100.4,4.7,148.6c-2.2,39.5-7.3,78-15.2,114.3c-13.4,61.8-30.2,96.4-30.4,96.7l-2.3,4.7
			l5.1,1c16.8,3.4,42.1,10.3,51.4,12.9l-28.9,138.1C616,660.5,531.7,664,530.8,664l-1.5,0.1l-1.1,1c-41.9,39.7-116.3,75-128.3,80.5
			c-12-5.5-86.3-40.8-128.3-80.5l-1.1-1l-1.5-0.1c-0.9,0-85.2-3.5-146.3-11.1L93.9,514.8c9.3-2.6,34.5-9.5,51.4-12.9l5.1-1l-2.3-4.7
			c-0.2-0.3-17.1-34.9-30.4-96.7c-7.8-36.3-12.9-74.8-15.2-114.3c-2.7-48.2-1.1-98.2,4.7-148.6c2.9,0.2,7.4,0.4,13.1,0.4
			c26,0,78-3.8,133.7-29c14.3-6.5,27.2-12.5,38.6-17.7C344.6,66.1,370.6,54,400,54 M400,50c-37,0-69.7,19-147.7,54.3
			c-55.1,25-106.6,28.6-132,28.6c-10.6,0-16.6-0.6-16.6-0.6C76.3,360.3,144.5,498,144.5,498c-21.2,4.2-55.2,14-55.2,14l30.2,144.5
			C181.8,664.5,269,668,269,668c46.5,44,131,82,131,82s84.5-38,131-82c0,0,87.2-3.5,149.5-11.5L710.8,512c0,0-34-9.8-55.2-14
			c0,0,68.2-137.7,40.8-365.7c0,0-6.1,0.6-16.6,0.6c-25.4,0-76.9-3.7-132-28.6C469.7,69,437,50,400,50L400,50z"/>
		<linearGradient id="SVGID_3_" gradientUnits="userSpaceOnUse" x1="400" y1="722.2244" x2="400" y2="73.5">
			<stop  offset="0.1365" style="stop-color:#F3DBAD"/>
			<stop  offset="0.6322" style="stop-color:#B2813E"/>
			<stop  offset="1" style="stop-color:#F3DBAD"/>
		</linearGradient>
		<path class="st2" d="M400,77.5c28.7,0,56,13.8,89.7,30.2c33.7,16.3,56.3,25.7,103,39.7c35,10.5,61.6,11.8,72.7,11.8
			c3.7,0,5.7-0.1,5.7-0.1c22,225-50.5,350-50.5,350c19,3.8,55.8,13,55.8,13l-18.7,91l-112,2.3C481.7,683,400,717.9,400,717.9
			S318.3,683,254.3,615.3l-112-2.3l-18.7-91c0,0,36.8-9.2,55.8-13c0,0-72.5-125-50.5-350c0,0,2,0.1,5.7,0.1
			c11.1,0,37.7-1.3,72.7-11.8c46.7-14,69.3-23.3,103-39.7C344,91.3,371.3,77.5,400,77.5 M400,73.5c-28.5,0-55.9,13.3-87.6,28.7
			l-3.8,1.9c-32.5,15.8-55.1,25.2-102.4,39.4c-35,10.5-61.7,11.6-71.5,11.6c-3.5,0-5.4-0.1-5.4-0.1l-3.9-0.3l-0.4,3.9
			c-5,51.6-5.5,102.1-1.4,150.3c3.3,38.6,9.5,75.7,18.5,110.4c12.1,46.7,25.7,75.9,31.3,86.8c-19.7,4.2-50.4,11.9-50.7,11.9L119,519
			l0.8,3.8l18.7,91l0.6,3.1l3.2,0.1l110.3,2.3c18.6,19.5,50.1,48.1,96.5,76.1c28.3,17.1,48.5,25.8,49.3,26.2l1.6,0.7l1.6-0.7
			c0.8-0.4,21-9,49.3-26.2c25.8-15.6,63.4-41.4,96.5-76.1l110.3-2.3l3.2-0.1l0.6-3.1l18.7-91l0.8-3.8l-3.7-0.9
			c-0.3-0.1-31-7.7-50.7-11.9c5.6-10.9,19.2-40.1,31.3-86.8c9-34.7,15.2-71.8,18.5-110.4c4.1-48.2,3.6-98.8-1.4-150.3l-0.4-3.9
			l-3.9,0.3c0,0-1.9,0.1-5.4,0.1c-9.8,0-36.5-1.1-71.5-11.6c-47.4-14.2-69.9-23.6-102.4-39.4l-3.8-1.9
			C455.9,86.8,428.5,73.5,400,73.5L400,73.5z"/>
		<linearGradient id="SVGID_4_" gradientUnits="userSpaceOnUse" x1="400" y1="717.875" x2="400" y2="77.5">
			<stop  offset="0" style="stop-color:#004D9B"/>
			<stop  offset="1" style="stop-color:#0098DD"/>
		</linearGradient>
		<path class="st3" d="M620.5,509c0,0,72.5-125,50.5-350c0,0-31.7,2.3-78.3-11.7c-46.7-14-69.3-23.3-103-39.7
			c-33.7-16.3-61-30.2-89.7-30.2s-56,13.8-89.7,30.2c-33.7,16.3-56.3,25.7-103,39.7C160.7,161.3,129,159,129,159
			c-22,225,50.5,350,50.5,350c-19,3.8-55.8,13-55.8,13l18.7,91l112,2.3C318.3,683,400,717.9,400,717.9s81.7-34.9,145.7-102.5
			l112-2.3l18.7-91C676.3,522,639.5,512.8,620.5,509z"/>
		<path class="st4" d="M400,81.5c26.6,0,52,12.3,84.1,27.9l3.8,1.9c32.9,16,55.7,25.5,103.6,39.9c34.7,10.4,61.2,12,73.8,12
			c0.8,0,1.4,0,2.1,0c4.6,49.7,5,98.4,1.1,144.9c-3.2,38.1-9.4,74.8-18.2,109c-15.1,58.3-33,89.7-33.2,90l-2.8,4.8l5.5,1.1
			c15.2,3.1,42.1,9.6,51.9,12l-17.3,84.1l-108.8,2.3l-1.7,0l-1.1,1.2c-32.7,34.6-70.2,60.4-95.9,75.9c-23.5,14.2-41.6,22.6-46.9,25
			c-11.6-5.2-84.9-39.7-142.8-100.9l-1.1-1.2l-1.7,0l-108.8-2.3L128.4,525c9.8-2.4,36.8-9,51.9-12l5.5-1.1L183,507
			c-0.2-0.3-18-31.4-33.1-89.6c-8.9-34.3-15-71-18.3-109.1c-4-46.5-3.6-95.4,1-145.1c0.6,0,1.3,0,2.1,0c12.6,0,39.1-1.6,73.8-12
			c47.9-14.4,70.7-23.9,103.6-39.9l3.8-1.9C348,93.8,373.4,81.5,400,81.5 M400,77.5c-28.7,0-56,13.8-89.7,30.2
			c-33.7,16.3-56.3,25.7-103,39.7c-35,10.5-61.6,11.8-72.7,11.8c-3.7,0-5.7-0.1-5.7-0.1c-22,225,50.5,350,50.5,350
			c-19,3.8-55.8,13-55.8,13l18.7,91l112,2.3C318.3,683,400,717.9,400,717.9s81.7-34.9,145.7-102.5l112-2.3l18.7-91
			c0,0-36.8-9.2-55.8-13c0,0,72.5-125,50.5-350c0,0-2,0.1-5.7,0.1c-11.1,0-37.7-1.3-72.7-11.8c-46.7-14-69.3-23.3-103-39.7
			C456,91.3,428.7,77.5,400,77.5L400,77.5z"/>
		<linearGradient id="SVGID_5_" gradientUnits="userSpaceOnUse" x1="139.6667" y1="419" x2="242" y2="419">
			<stop  offset="0" style="stop-color:#FFFFFF;stop-opacity:0"/>
			<stop  offset="0.2062" style="stop-color:#FFFFFF;stop-opacity:0.6"/>
			<stop  offset="0.7485" style="stop-color:#FFFFFF;stop-opacity:0"/>
		</linearGradient>
		<path class="st5" d="M139.7,265c0,0,20.3,178,102.3,308C242,573,143.3,463,139.7,265z"/>
		<linearGradient id="SVGID_6_" gradientUnits="userSpaceOnUse" x1="343.5" y1="689.75" x2="456.5" y2="689.75">
			<stop  offset="0" style="stop-color:#FFFFFF;stop-opacity:0"/>
			<stop  offset="0.5" style="stop-color:#FFFFFF;stop-opacity:0.4"/>
			<stop  offset="1" style="stop-color:#FFFFFF;stop-opacity:0"/>
		</linearGradient>
		<path class="st6" d="M400,694.8c-28.7-8-56.5-20.2-56.5-20.2c29.7,18.7,56.5,30.2,56.5,30.2s26.8-11.5,56.5-30.2
			C456.5,674.7,428.7,686.8,400,694.8z"/>
		<linearGradient id="SVGID_7_" gradientUnits="userSpaceOnUse" x1="328.1667" y1="103.5" x2="471.8333" y2="103.5">
			<stop  offset="0" style="stop-color:#FFFFFF;stop-opacity:0"/>
			<stop  offset="0.5" style="stop-color:#FFFFFF;stop-opacity:0.8"/>
			<stop  offset="1" style="stop-color:#FFFFFF;stop-opacity:0"/>
		</linearGradient>
		<path class="st7" d="M400,91.7c-16.5,0-38.2,4.2-71.8,23.7c0,0,34-13.2,71.8-13.2s71.8,13.2,71.8,13.2
			C438.2,95.8,416.5,91.7,400,91.7z"/>
		<linearGradient id="SVGID_8_" gradientUnits="userSpaceOnUse" x1="660.3333" y1="419" x2="558" y2="419">
			<stop  offset="0" style="stop-color:#FFFFFF;stop-opacity:0"/>
			<stop  offset="0.2062" style="stop-color:#FFFFFF;stop-opacity:0.6"/>
			<stop  offset="0.7481" style="stop-color:#FFFFFF;stop-opacity:0"/>
		</linearGradient>
		<path class="st8" d="M660.3,265c0,0-20.3,178-102.3,308C558,573,656.7,463,660.3,265z"/>
		<linearGradient id="SVGID_9_" gradientUnits="userSpaceOnUse" x1="385.6041" y1="196.3006" x2="426.3787" y2="125.6769">
			<stop  offset="0" style="stop-color:#D8D09A"/>
			<stop  offset="0.1686" style="stop-color:#BD9742"/>
			<stop  offset="0.3272" style="stop-color:#D8D09A"/>
			<stop  offset="0.5629" style="stop-color:#BD9742"/>
			<stop  offset="0.8113" style="stop-color:#D8D09A"/>
			<stop  offset="1" style="stop-color:#D8D09A"/>
		</linearGradient>
		<path class="st9" d="M433.5,156.2c0,0-3.2,9.8-9.4,16.5c0,0,4.5-2.6,6.8-2.8c0,0-3.8,12.9-14.8,8.6c-10.9-4.3-11.3-22.9-11.3-22.9
			v-5.4c9.4-0.2,14.3-0.9,14.3-0.9V142c0,0-6.3-1-14.3-1.4v-2.5c4.9-1.9,8.4-6.7,8.4-12.3c0-7.3-5.9-13.3-13.3-13.3
			s-13.3,5.9-13.3,13.3c0,5.6,3.5,10.4,8.4,12.3v2.5c-8.1,0.3-14.6,1.4-14.6,1.4v7c0,0,5,0.9,14.6,1.1v5.4c0,0-0.4,18.6-11.3,22.9
			c-10.9,4.3-14.8-8.6-14.8-8.6c2.3,0.2,6.8,2.8,6.8,2.8c-6.2-6.7-9.4-16.5-9.4-16.5c-8.5,13.3-6.7,19-6.7,19c0.8-2,3.5-4.2,3.5-4.2
			c-0.3,16.7,11.5,19.5,22,22s14.7,8.2,14.7,8.2s4.2-5.7,14.7-8.2s22.3-5.3,22-22c0,0,2.7,2.2,3.5,4.2
			C440.2,175.2,442,169.5,433.5,156.2z M400,120.4c3,0,5.4,2.4,5.4,5.4c0,3-2.4,5.4-5.4,5.4s-5.4-2.4-5.4-5.4
			C394.6,122.8,397,120.4,400,120.4z"/>
		<g>
			<g>
				<path class="st10" d="M259.2,209.5c0,0,12.2,20,4.2,43.2s-20.5,12.8-17.5,5.5s6.6-9.4,8.6-12.5S264.3,230,259.2,209.5z"/>
				<path class="st10" d="M249.2,244.2c0,0-7-14.5-20.8-11.2s-14.5,15.2-15.8,20.2s-8.2,37.2-1.2,67.2s28.2,83.8,71.5,121.8
					c0,0-68.3-49-82.3-120.3s6.3-96.7,18.3-101.7S249.2,220.2,249.2,244.2z"/>
				<path class="st10" d="M255.3,231.3c0,0,9.7-45-33-47.3s-53.7,56.7-52.3,83c1.3,26.3,3.7,76,68.7,138.7c0,0-42.7-50.3-50.7-107.3
					s15-88,32-91S252,213.7,255.3,231.3z"/>
			</g>
			<g>
				<path class="st10" d="M540.8,209.5c0,0-12.2,20-4.2,43.2s20.5,12.8,17.5,5.5s-6.6-9.4-8.6-12.5S535.7,230,540.8,209.5z"/>
				<path class="st10" d="M550.8,244.2c0,0,7-14.5,20.8-11.2s14.5,15.2,15.8,20.2s8.2,37.2,1.2,67.2s-28.2,83.8-71.5,121.8
					c0,0,68.3-49,82.3-120.3s-6.3-96.7-18.3-101.7S550.9,220.2,550.8,244.2z"/>
				<path class="st10" d="M544.7,231.3c0,0-9.7-45,33-47.3c42.7-2.3,53.7,56.7,52.3,83c-1.3,26.3-3.7,76-68.7,138.7
					c0,0,42.7-50.3,50.7-107.3s-15-88-32-91S548.1,213.7,544.7,231.3z"/>
			</g>
			<path class="st10" d="M362.3,223.7c0,0-49.3,11.3-63.7,51c0,0,13.6-24.2,44.8-37.2s60.3-10.8,77.7,3.2c0,0-0.2,4.2-4.2,1.3
				s-3.3-4.5-3.3-4.5s-15.7-7.1-36.5-2.2c0,0,20.8,0.8,32.2,7.8c0,0-35.9-8.1-65.6,17.8s-39.1,64.9-25.8,96.6s69.3,65.3,115.3,15.7
				c0,0-20.7,44.7-77.7,41.3c-57-3.3-84.7-41-87.3-81.7C265.7,292,296.3,233,362.3,223.7z"/>
			<circle class="st10" cx="494.2" cy="277" r="15.8"/>
			<path class="st10" d="M546.6,310.5c-3.2-1.6-14.3-3.2-16.6-3.7s-0.1-1.1-0.1-1.1s1,0.1,2,0.1c2.6,0,2.2-2.5-0.4-2.7
				c-22-1.2-24.3-5.3-24.3-5.3c-45.7,4.8-70,25-70,25c-1.3-6.6-6.8-20.6-20.9-30.7c5.5-2.5,9.4-8,9.4-14.5c0-8.7-7.1-15.8-15.8-15.8
				s-15.8,7.1-15.8,15.8c0,1.7,0.3,3.4,0.8,4.9c-0.2,0-0.3-0.1-0.5-0.1c-30.8-7-47.2,11.8-47.2,11.8c3.9-2.2,9.5-4.5,9.5-4.5
				c-22.6,13.4-24.9,27.5-24.9,27.5c11.9-16.8,21.3-19.4,21.3-19.4c-6,3.9-13.2,11.3-13.2,11.3l6.6-3.4
				c-10.1,6.2-14.4,17.5-14.9,19.1s-0.2,2.2,1.8,2s0.5-4,0.5-4s5.8-12.5,21.6-17.8s30,0,42,11.8s15.2,38.2-5.5,56s-46,2-46,2
				c23,21.1,46.6,16.6,58.2,11.9s17.8-11.9,23.9-19.4s12.2-12.4,18.2-17.4s27-14.8,27-14.8c-4.8,0.7-12.8,3.9-12.8,3.9l9.3-4.8
				c-1.9,0.1-6.3,0.8-6.3,0.8c21.8-15.2,72.6-14.8,72.6-14.8c-4.2-1.6-13.2-2.5-13.2-2.5v-0.8h4.6v-1.8c-4.4-1.5-18.7-3.2-18.7-3.2
				c13.1-3.1,31.8-1.2,31.8-1.2c0.3,0.4,2.3,2.2,4.9,2.2S548.1,311.2,546.6,310.5z"/>
		</g>
		<linearGradient id="SVGID_10_" gradientUnits="userSpaceOnUse" x1="269.4256" y1="499.0855" x2="269.4256" y2="91.4999">
			<stop  offset="0.35" style="stop-color:#FFFFFF;stop-opacity:0"/>
			<stop  offset="1" style="stop-color:#FFFFFF;stop-opacity:0.3"/>
		</linearGradient>
		<path class="st11" d="M159.2,413.6c12.1,47.3,26.2,76.6,30.8,85.5H400V91.5c-24.3,0-48.8,11.9-79.7,26.9l-3.8,1.9
			c-33.4,16.2-56.6,25.9-105.1,40.5c-25.9,7.8-47.5,10.8-62.4,11.9c-4.1,0.3-7.4,3.6-7.7,7.7c-3.2,43.2-3.1,85.6,0.3,126.2
			C144.6,343.9,150.6,379.9,159.2,413.6z"/>
	</g>
	<g>
		<linearGradient id="SVGID_11_" gradientUnits="userSpaceOnUse" x1="139.0566" y1="625.2991" x2="268.1395" y2="625.2991">
			<stop  offset="0.1365" style="stop-color:#F3DBAD"/>
			<stop  offset="1" style="stop-color:#F3DBAD"/>
		</linearGradient>
		<path class="st12" d="M139.1,616.9c0,0,1.9-2.8,7,1c16.1,7.7,68.9,8.8,116.1,11.4l5.9,5.4c0,0-74.7-2.7-126.6-7.9L139.1,616.9z"/>
		<path class="st13" d="M142.2,613l112.2,2.4c0,0,13.7,13.6,16.7,16.6c0,0-44.2-0.8-126.7-8.9L142.2,613z"/>
		
			<linearGradient id="SVGID_12_" gradientUnits="userSpaceOnUse" x1="-250.9434" y1="625.2991" x2="-121.8605" y2="625.2991" gradientTransform="matrix(-1 0 0 1 410.0751 0)">
			<stop  offset="0.1365" style="stop-color:#F3DBAD"/>
			<stop  offset="1" style="stop-color:#F3DBAD"/>
		</linearGradient>
		<path class="st14" d="M661,616.9c0,0-1.9-2.8-7,1c-16.1,7.7-68.9,8.8-116.1,11.4l-5.9,5.4c0,0,74.7-2.7,126.6-7.9L661,616.9z"/>
		<path class="st13" d="M657.9,613l-112.2,2.4c0,0-13.7,13.6-16.7,16.6c0,0,44.2-0.8,126.7-8.9L657.9,613z"/>
		<linearGradient id="SVGID_13_" gradientUnits="userSpaceOnUse" x1="123.5" y1="553" x2="676.5" y2="553">
			<stop  offset="0" style="stop-color:#BDD0D6"/>
			<stop  offset="0.5" style="stop-color:#FFFFFF"/>
			<stop  offset="1" style="stop-color:#BDD0D6"/>
		</linearGradient>
		<path class="st15" d="M400,486.5c-77,0-204,13.5-276.5,35.5l20,97.5c0,0,122-32.5,256.5-32.5s256.5,32.5,256.5,32.5l20-97.5
			C604,500,477,486.5,400,486.5z"/>
	</g>
	<g>
		<path class="st16" d="M645.6,530.1C644.5,529.8,532.5,502,400,502c-132.5,0-243.7,27.8-244.8,28.1l-1.7-6.8
			C154.6,523,266.6,495,400,495c133.4,0,246.2,28,247.4,28.3L645.6,530.1z"/>
		<linearGradient id="SVGID_14_" gradientUnits="userSpaceOnUse" x1="395.8333" y1="512.5833" x2="395.8333" y2="589.3333">
			<stop  offset="0" style="stop-color:#052C66"/>
			<stop  offset="1" style="stop-color:#0069B2"/>
		</linearGradient>
		<path class="st17" d="M181.2,534l1.5,7.3l-8,1.5l9.3,43.3l-8,1.7l-9.3-43.2l-8.3,1.8l-1.3-7L181.2,534z M220.5,579.2l-8.2,1.2
			c-1.2-1.3-2.2-8.1-2.5-9.5c-0.2-1.4-0.8-9.2-3.9-9.8c-3.2-0.6-6.2,0.8-6.2,0.8l3.8,20.3l-7.7,1.2l-9.7-50c0,0,7.8-1.6,12.2-2.2
			c4.4-0.7,8.2-0.2,11.2,3.1c3,3.3,3.4,11.9,3.4,15.4s-3.4,6-3.4,6c2.6,0.1,4.2,2.2,5.5,3.8s2.3,9,2.9,12.8
			C218.5,576,220.5,579.2,220.5,579.2z M205.4,548.8l-1.4-7.4c-0.4-2.2-2.5-3.6-4.6-3.2l-4,0.8l2.9,15.6l3.3-0.5
			C204.1,553.8,205.9,551.4,205.4,548.8z M239.8,566.3l-9.8,1.7l0.1,9.7l-7.2,0.9v-51.6l11.5-1.8l16.4,49.1l-8,1L239.8,566.3z
			 M237.7,559.8l-7.9-24.2l0.2,25.5L237.7,559.8z M247.6,523l6.5,50.9l7.5-0.9l-4.9-35.6l14.6,33.8l8.4-0.6l-6.8-51l-7.4,1l4,29.8
			l-12.2-28.9L247.6,523z M296.6,531.2l7.6-0.6c0,0-0.4-2.6-0.6-5.2s-4.2-9.1-11.4-8.2s-11.9,4-12.1,11.9s4.1,12.6,7.2,14.8
			s11.6,7.2,11.5,13.2s-3.5,5.1-4.9,5s-3.1-1.4-3.4-3.4s-0.2-4.8-0.2-4.8l-7.5,0.5c0,0,0.1,3.4,0.2,5.9s2.6,7.2,6.4,8.2
			s11.4,1.1,15.2-3.4s2.4-12.2,0.6-15.8s-6.9-7.9-9.5-9.5s-7.1-5.4-7.4-8.5s-0.6-5.8,2.2-6.8s5.2,0.6,5.5,2.6
			S296.6,531.2,296.6,531.2z M326,532.2l7.5-0.3c0,0,0-2.3,0-6.5c0-4.2-4.5-11.7-12.2-10.7c-7.7,1-12.3,4.7-12,10.7
			c0.3,6,1.5,26,2,31.7s4.7,10.5,12,10.2c7.3-0.3,11.7-4.5,11.8-10c0.2-5.5-0.2-10.2-0.2-10.2h-7.5c0,0,0.2,4.7,0.2,7.3
			c0,2.7-0.2,5.5-3.5,5.5c-3.3,0-5-1.8-5.2-5.7c-0.2-3.8-1.7-26.3-1.8-28.5c-0.2-2.2,2-3.5,4-3.5s4.3,0.8,4.5,3.5
			C325.8,528.3,326,532.2,326,532.2z M362.8,557.2l-14.5,0.5l-0.5-15.2h11.5l-0.3-7.2l-11.4,0.4l-0.5-14.7l13.3-0.5l-0.2-7.2
			l-21.5,1l2,51.2l22.2-1L362.8,557.2z M367,513l0.8,51.2h7.5l-0.8-36.2l11,36.2h8.5l-1-51.7h-7.5l0.5,29.9l-8.5-29.9L367,513z
			 M424.6,523.3l-0.3,30.7c-0.1,5.4-4.4,9.7-9.8,9.7H400l-0.2-51.2H414C419.9,512.6,424.7,517.4,424.6,523.3z M416.5,524.3
			c0-2.2-1.8-4.1-4.1-4.1h-4.7v36.5h3.9c2.7,0,4.8-2.2,4.8-4.8V524.3z M453.2,521.2V514l-22-0.7l-1.8,50.9l22.2,1.2v-7.8l-14.2-0.2
			l0.7-15H450v-7.2h-11.4l0.7-14.5L453.2,521.2z M459.8,514.5l-3.5,51h7.5l2.2-35.2l7.8,36.2l8.2,0.8l3.5-51.8h-7.8l-1.2,30l-6.8-31
			H459.8z M514.5,535.4l0.3-7.9c0.2-5.3-3.9-9.9-9.3-10.2l-3.9-0.2c-5.4-0.3-10.1,3.7-10.6,9.1l-2.8,30.9
			c-0.6,6.2,4.1,11.7,10.3,12.2l2.7,0.2c5.7,0.4,10.6-3.8,11.1-9.5l0.8-9.5l-7.9-0.2l-0.5,7.6c-0.2,2.5-2.4,4.3-4.8,4l0,0
			c-2.3-0.3-4-2.4-3.8-4.7l2.6-29.4c0.2-2.3,2.2-4,4.4-3.9l0,0c2.3,0.1,4.1,2.1,4.1,4.4l-0.2,7.1H514.5z M626.4,552.9l1.2-7.8
			c0.8-5.3-2.8-10.3-8-11.2l-3.9-0.7c-5.4-0.9-10.5,2.5-11.6,7.9l-6.3,30.3c-1.3,6.1,2.7,12.1,8.8,13.3l2.6,0.5
			c5.6,1.1,11-2.6,12.1-8.1l1.9-9.3l-7.8-1.1l-1.3,7.5c-0.4,2.4-2.8,4-5.3,3.5l0,0c-2.3-0.5-3.7-2.8-3.3-5.1l6-28.9
			c0.5-2.2,2.6-3.7,4.8-3.3l0,0c2.3,0.4,3.9,2.5,3.5,4.8l-1,7L626.4,552.9z M543.5,529.4l0.6-7.2l-22-2.5l-6,50.6l22.1,2.8l0.6-7.2
			l-14.1-1.5l1.8-15.2l11.5,1.5l0.8-7.4l-11.5-1.1l1.7-14.2L543.5,529.4z M590.3,536.2l1.2-7.3l-21.3-3.3l-8.3,51l8.7,1.3l3.2-21.4
			L584,558l1-7.2l-10.3-1.3l2.3-15.4L590.3,536.2z M582.2,571.3L581,579l7.7,1.2l1-7.8L582.2,571.3z M627,580.2l-1.3,7.7l7.8,1.5
			l1.2-7.7L627,580.2z"/>
	</g>
	<g>
		<path class="st10" d="M305.2,467.5c-1-6.3-5.7-8.7-10.5-8.7c-4.8,0-15.7,1.5-15.7,1.5l2,20.5c0,0,9.3-0.7,15.7-1.7
			C303,478.2,306.2,473.8,305.2,467.5z M294.1,475.7l-8.6,1l-1-13.3l8.4-0.7c3.6-0.3,6.8,2.5,7,6.1
			C300.2,472.3,297.6,475.3,294.1,475.7z"/>
		<path class="st10" d="M348.2,475.8l5.5-0.2l-13-20h-5l-10.3,21.2h5.2l2.2-4.9l12.6-0.5L348.2,475.8z M334.4,468.3l3.8-8.3l5,7.9
			L334.4,468.3z"/>
		<path class="st10" d="M467.8,476.7l5.5,0.4l-10.9-21.2l-5-0.5l-12.4,20l5.1,0.5l2.7-4.7l12.6,0.8L467.8,476.7z M454.9,467.8
			l4.6-7.8l4.2,8.4L454.9,467.8z"/>
		<polygon class="st10" points="375,454 375,474.8 395.8,474.8 395.8,470.8 380,470.8 380,454 		"/>
		<polygon class="st10" points="418.5,454 418,474.8 423.2,474.8 423.2,454 		"/>
		<polygon class="st10" points="497,458.8 495,478.8 499.2,478.8 500.5,465 514.8,480.8 519.2,480.8 521,461 516.1,460.5 
			515.2,474.8 500.8,458.8 		"/>
	</g>
	<circle class="st10" cx="400" cy="626.2" r="51.2"/>
	<path class="st18" d="M424.9,581.4c6.9,11.3,19.1,37.9,1.9,64.1c-12.9,19.6-37.7,22.6-58.2,21.2c8.7,6.8,19.6,10.8,31.5,10.8
		c28.3,0,51.2-22.9,51.2-51.2C451.2,607,440.6,590.2,424.9,581.4z"/>
	<path class="st19" d="M400,575c-28.3,0-51.2,22.9-51.2,51.2s22.9,51.2,51.2,51.2c28.3,0,51.2-22.9,51.2-51.2S428.3,575,400,575z
		 M445.2,616.6l-2.7-2.5c-3.5-9.6-9.2-15.7-12.7-18.8c0,0,0,0,0,0l-4.9-8C435.2,593.9,442.6,604.4,445.2,616.6z M404,669.5
		c-10.4-0.2-18.6-4.4-22.3-6.7l-2.2-10l16.3-9.3l17.1,5.3l3,13.8C414.8,663.6,410,667.3,404,669.5z M365.4,615.5
		c0,0,5.6-4.6,10.4-6.2c0,0,1-8.2,4-12c0,0-2.6,8.2-2.8,12.6c0,0-9.8,5.1-11.8,7.5c0,0-2.5-3.4-3.2-6.1L365.4,615.5z M402.9,587.9
		c2,1.7,8.3,6.9,13.1,9.7l-1.5,18.3l-18.6,6.4L379,610.5c0.1-4.6,2.7-12.8,3.6-15.3C387.5,593.2,397.2,589.5,402.9,587.9z
		 M416.9,594.4l6.6,0.4l-6.8,1.1l-8.9-6.2L416.9,594.4z M428,595.8c3.2,2.7,9.7,9.1,13.3,19.4l-1.5,13.9l-14.3,1.9l-9.7-13.7
		l1.6-19.4C419.3,597.5,424.6,596.5,428,595.8z M413.6,621.2l-14,4.5l-0.6,14.8c0,0,2.2,1.2,3.2,2.5l-4.4-1.8v-16.6l16-5.6l5.1,7.2
		L413.6,621.2z M364.9,641.6l0.1-22c3.2-2.8,10.5-6.6,13.1-7.9l17.2,12.1V642l-16.6,9.5C377,650.7,372.2,648.1,364.9,641.6z
		 M425.5,661.5c-2,0.5-5.1,1.1-8,0.9l-3.1-14.3l12.1-15.8l0,0l13.3-1.8l1.8,8.9C437.7,650.4,428,659.3,425.5,661.5z M407.6,580.6
		c-1.3,0.9-3.5,2.7-5,5.8c-6.4,1.7-17.6,6.1-21.9,7.8l-8.8-0.2l0.2-4.5c7.8-5.9,17.5-9.5,28-9.5C402.6,580,405.1,580.2,407.6,580.6z
		 M370.4,590.7l-0.1,3.7c-5.6,4.9-9.6,12.3-10.5,13.9l-2.9,1.1C359.8,602.1,364.5,595.7,370.4,590.7z M356.2,611.3l3.6-1.4
		c0.8,4.7,2.6,7.7,3.6,9.2l-0.1,21.4c-0.6,0.9-2.9,4.5-4.1,7.6c-3.5-6.5-5.5-14-5.5-21.9C353.8,621,354.6,616,356.2,611.3z
		 M371.9,663l8.7,0.9c3.7,2.4,12.4,7.1,23.8,7.1l1.4,1.1c-1.9,0.2-3.9,0.4-5.9,0.4C389.4,672.5,379.7,668.9,371.9,663z M428,663.1
		l-0.3-1.4c3.5-3.2,10.9-10.7,14.7-20l1.3,0.1C440.5,650.3,435,657.7,428,663.1z"/>
</g>
</svg>
