<?xml version="1.0" encoding="utf-8"?>
<!-- Generator: Adobe Illustrator 22.1.0, SVG Export Plug-In . SVG Version: 6.00 Build 0)  -->
<svg version="1.1" id="图层_1" xmlns="http://www.w3.org/2000/svg" xmlns:xlink="http://www.w3.org/1999/xlink" x="0px" y="0px"
	 viewBox="0 0 800 800" style="enable-background:new 0 0 800 800;" xml:space="preserve">
<style type="text/css">
	.st0{fill:#0077C2;}
</style>
<g>
	<path class="st0" d="M363.3,171c-0.3,16.7,11.5,19.5,22,22s14.7,8.2,14.7,8.2s4.2-5.7,14.7-8.2s22.3-5.3,22-22c0,0,2.7,2.2,3.5,4.2
		c0,0,1.8-5.7-6.7-19c0,0-3.2,9.8-9.4,16.5c0,0,4.5-2.6,6.8-2.8c0,0-3.8,12.9-14.8,8.6c-10.9-4.3-11.3-22.9-11.3-22.9v-5.4
		c9.4-0.2,14.3-0.9,14.3-0.9V142c0,0-6.3-1-14.3-1.4v-2.5c4.9-1.9,8.4-6.7,8.4-12.3c0-7.3-5.9-13.3-13.3-13.3s-13.3,5.9-13.3,13.3
		c0,5.6,3.5,10.4,8.4,12.3v2.5c-8.1,0.3-14.6,1.4-14.6,1.4v7c0,0,5,0.9,14.6,1.1v5.4c0,0-0.4,18.6-11.3,22.9
		c-10.9,4.3-14.8-8.6-14.8-8.6c2.3,0.2,6.8,2.8,6.8,2.8c-6.2-6.7-9.4-16.5-9.4-16.5c-8.5,13.3-6.7,19-6.7,19
		C360.7,173.2,363.3,171,363.3,171z M394.6,125.8c0-3,2.4-5.4,5.4-5.4s5.4,2.4,5.4,5.4c0,3-2.4,5.4-5.4,5.4S394.6,128.7,394.6,125.8
		z"/>
	<path class="st0" d="M254.6,245.8c-2,3.1-5.6,5.2-8.6,12.5s9.5,17.8,17.5-5.5s-4.2-43.2-4.2-43.2
		C264.3,230,256.6,242.6,254.6,245.8z"/>
	<path class="st0" d="M228.5,233c13.8-3.2,20.8,11.2,20.8,11.2c-0.1-24.1-18.2-28.9-30.2-23.9s-32.3,30.3-18.3,101.7
		S283,442.3,283,442.3c-43.3-38-64.5-91.8-71.5-121.8s0-62.2,1.2-67.2S214.8,236.2,228.5,233z"/>
	<path class="st0" d="M238.7,405.7c0,0-42.7-50.3-50.7-107.3s15-88,32-91s32,6.3,35.3,24c0,0,9.7-45-33-47.3
		c-42.7-2.3-53.7,56.7-52.3,83S173.7,343,238.7,405.7z"/>
	<path class="st0" d="M554.1,258.2c-3-7.2-6.6-9.4-8.6-12.5s-9.7-15.8-4.6-36.2c0,0-12.2,20-4.2,43.2S557.1,265.5,554.1,258.2z"/>
	<path class="st0" d="M599.4,322c14-71.3-6.3-96.7-18.3-101.7s-30.2-0.2-30.2,23.9c0,0,7-14.5,20.8-11.2s14.5,15.2,15.8,20.2
		s8.2,37.2,1.2,67.2s-28.2,83.8-71.5,121.8C517.1,442.3,585.4,393.3,599.4,322z"/>
	<path class="st0" d="M580.1,207.3c17,3,40,34,32,91s-50.7,107.3-50.7,107.3c65-62.7,67.3-112.3,68.7-138.7
		c1.3-26.3-9.7-85.3-52.3-83c-42.7,2.3-33,47.3-33,47.3C548.1,213.7,563.1,204.3,580.1,207.3z"/>
	<path class="st0" d="M355.7,414.3c57,3.3,77.7-41.3,77.7-41.3c-46,49.7-102,16-115.3-15.7s-4-70.7,25.8-96.6s65.6-17.8,65.6-17.8
		c-11.5-7-32.2-7.8-32.2-7.8c20.9-4.9,36.5,2.2,36.5,2.2s-0.7,1.7,3.3,4.5c4,2.8,4.2-1.3,4.2-1.3c-17.3-14-46.4-16.2-77.7-3.2
		s-44.8,37.2-44.8,37.2c14.3-39.7,63.7-51,63.7-51c-66,9.3-96.7,68.3-94,109C271,373.3,298.7,411,355.7,414.3z"/>
	
		<ellipse transform="matrix(0.9732 -0.2298 0.2298 0.9732 -50.4222 120.9465)" class="st0" cx="494.2" cy="277" rx="15.8" ry="15.8"/>
	<path class="st0" d="M507.2,297.8c-45.7,4.8-70,25-70,25c-1.3-6.6-6.8-20.6-20.9-30.7c5.5-2.5,9.4-8,9.4-14.5
		c0-8.7-7.1-15.8-15.8-15.8s-15.8,7.1-15.8,15.8c0,1.7,0.3,3.4,0.8,4.9c-0.2,0-0.3-0.1-0.5-0.1c-30.8-7-47.2,11.8-47.2,11.8
		c3.9-2.2,9.5-4.5,9.5-4.5c-22.6,13.4-24.9,27.5-24.9,27.5c11.9-16.8,21.3-19.4,21.3-19.4c-6,3.9-13.2,11.3-13.2,11.3l6.6-3.4
		c-10.1,6.2-14.4,17.5-14.9,19.1s-0.2,2.2,1.8,2s0.5-4,0.5-4s5.8-12.5,21.6-17.8s30,0,42,11.8s15.2,38.2-5.5,56s-46,2-46,2
		c23,21.1,46.6,16.6,58.2,11.9s17.8-11.9,23.9-19.4s12.2-12.4,18.2-17.4s27-14.8,27-14.8c-4.8,0.7-12.8,3.9-12.8,3.9l9.3-4.8
		c-1.9,0.1-6.3,0.8-6.3,0.8c21.8-15.2,72.6-14.8,72.6-14.8c-4.2-1.6-13.2-2.5-13.2-2.5v-0.8h4.6v-1.8c-4.4-1.5-18.7-3.2-18.7-3.2
		c13.1-3.1,31.8-1.2,31.8-1.2c0.3,0.4,2.3,2.2,4.9,2.2s2.4-2,1-2.8c-3.2-1.6-14.3-3.2-16.6-3.7s-0.1-1.1-0.1-1.1s1,0.1,2,0.1
		c2.6,0,2.2-2.5-0.4-2.7C509.5,302,507.2,297.8,507.2,297.8z"/>
	<path class="st0" d="M412.4,520.2h-4.7v36.5h3.9c2.7,0,4.8-2.2,4.8-4.8v-27.6C416.5,522.1,414.7,520.2,412.4,520.2z"/>
	<path class="st0" d="M204,541.4c-0.4-2.2-2.5-3.6-4.6-3.2l-4,0.8l2.9,15.6l3.3-0.5c2.6-0.4,4.3-2.8,3.8-5.3L204,541.4z"/>
	<polygon class="st0" points="230,561.1 237.7,559.8 229.8,535.6 	"/>
	<path class="st0" d="M296.7,479.2c6.3-1,9.5-5.3,8.5-11.7c-1-6.3-5.7-8.7-10.5-8.7c-4.8,0-15.7,1.5-15.7,1.5l2,20.5
		C281,480.8,290.3,480.2,296.7,479.2z M292.9,462.7c3.6-0.3,6.8,2.5,7,6.1c0.2,3.5-2.3,6.5-5.8,6.9l-8.6,1l-1-13.3L292.9,462.7z"/>
	<path class="st0" d="M325.3,476.8h5.2l2.2-4.9l12.6-0.5l2.8,4.4l5.5-0.2l-13-20h-5L325.3,476.8z M343.2,467.9l-8.8,0.3l3.8-8.3
		L343.2,467.9z"/>
	<path class="st0" d="M445,475.4l5.1,0.5l2.7-4.7l12.6,0.8l2.3,4.7l5.5,0.4l-10.9-21.2l-5-0.5L445,475.4z M463.7,468.3l-8.8-0.6
		l4.6-7.8L463.7,468.3z"/>
	<polygon class="st0" points="375,454 375,474.8 395.8,474.8 395.8,470.8 380,470.8 380,454 	"/>
	<polygon class="st0" points="418,474.8 423.2,474.8 423.2,454 418.5,454 	"/>
	<polygon class="st0" points="515.2,474.8 500.8,458.8 497,458.8 495,478.8 499.2,478.8 500.5,465 514.8,480.8 519.2,480.8 521,461 
		516.1,460.5 	"/>
	<path class="st0" d="M400,575c-28.3,0-51.2,22.9-51.2,51.2s22.9,51.2,51.2,51.2c28.3,0,51.2-22.9,51.2-51.2S428.3,575,400,575z
		 M416.9,594.4l6.6,0.4l-6.8,1.1l-8.9-6.2L416.9,594.4z M402.2,643l-4.4-1.8v-16.6l16-5.6l5.1,7.2l-5.2-5l-14,4.5l-0.6,14.8
		C399,640.5,401.2,641.8,402.2,643z M395.8,622.3L379,610.5c0.1-4.6,2.7-12.8,3.6-15.3c5-1.9,14.6-5.7,20.3-7.2
		c2,1.7,8.3,6.9,13.1,9.7l-1.5,18.3L395.8,622.3z M415.8,617.2l1.6-19.4c1.9-0.4,7.2-1.4,10.6-2.1c3.2,2.7,9.7,9.1,13.3,19.4
		l-1.5,13.9l-14.3,1.9L415.8,617.2z M372,589.5c7.8-5.9,17.5-9.5,28-9.5c2.6,0,5.1,0.2,7.6,0.6c-1.3,0.9-3.5,2.7-5,5.8
		c-6.4,1.7-17.6,6.1-21.9,7.8l-8.8-0.2L372,589.5z M370.4,590.7l-0.1,3.7c-5.6,4.9-9.6,12.3-10.5,13.9l-2.9,1.1
		C359.8,602.1,364.5,595.7,370.4,590.7z M363.4,640.5c-0.6,0.9-2.9,4.5-4.1,7.6c-3.5-6.5-5.5-14-5.5-21.9c0-5.2,0.9-10.3,2.5-14.9
		l3.6-1.4c0.8,4.7,2.6,7.7,3.6,9.2L363.4,640.5z M362,611.2l3.4,4.2c0,0,5.6-4.6,10.4-6.2c0,0,1-8.2,4-12c0,0-2.6,8.2-2.8,12.6
		c0,0-9.8,5.1-11.8,7.5C365.2,617.4,362.8,614,362,611.2z M365,619.6c3.2-2.8,10.5-6.6,13.1-7.9l17.2,12.1V642l-16.6,9.5
		c-1.7-0.8-6.4-3.4-13.8-10L365,619.6z M400,672.5c-10.6,0-20.3-3.6-28.1-9.5l8.7,0.9c3.7,2.4,12.4,7.1,23.8,7.1l1.4,1.1
		C403.9,672.4,402,672.5,400,672.5z M404,669.5c-10.4-0.2-18.6-4.4-22.3-6.7l-2.2-10l16.3-9.3l17.1,5.3l3,13.8
		C414.8,663.6,410,667.3,404,669.5z M417.5,662.4l-3.1-14.3l12.1-15.8l0,0l13.3-1.8l1.8,8.9c-3.8,10.9-13.5,19.9-16.1,22.1
		C423.5,662,420.4,662.6,417.5,662.4z M428,663.1l-0.3-1.4c3.5-3.2,10.9-10.7,14.7-20l1.3,0.1C440.5,650.3,435,657.7,428,663.1z
		 M442.5,614.1c-3.5-9.6-9.2-15.7-12.7-18.8c0,0,0,0,0,0l-4.9-8c10.2,6.6,17.7,17,20.3,29.3L442.5,614.1z"/>
	<path class="st0" d="M655.5,498c0,0,68.2-137.7,40.8-365.7c0,0-70.7,7.3-148.7-28S437,50,400,50s-69.7,19-147.7,54.3
		s-148.7,28-148.7,28C76.3,360.3,144.5,498,144.5,498c-21.2,4.2-55.2,14-55.2,14l30.2,144.5C181.8,664.5,269,668,269,668
		c46.5,44,131,82,131,82s84.5-38,131-82c0,0,87.2-3.5,149.5-11.5L710.8,512C710.8,512,676.8,502.2,655.5,498z M680.4,522.8
		l-17.7,86.1l0.1,0l-1.1,5l-1.4,6.5l-0.8,4.1l0,0l-0.5,2.2l-2.9,0.3c-81.7,8.1-126.6,8.9-127,8.9l-4.6,0.1
		C465.1,690.1,400,717.9,400,717.9s-65.1-27.8-124.6-81.9l-4.5-0.1c-0.4,0-45.3-0.8-127-8.9l-2.9-0.3l-0.5-2.3l-0.1,0l-0.9-4.2
		l-1.3-6.5l-1.1-4.9l0.1,0l-17.7-86.1l-0.7-3.6l3.5-1.1c16-4.9,34.7-9.3,55-13.3c-12-23.2-68-144.5-48.3-345.9
		c0,0,31.7,2.3,78.3-11.7c46.7-14,69.3-23.3,103-39.7c33.7-16.3,61-30.2,89.7-30.2s56,13.8,89.7,30.2c33.7,16.3,56.3,25.7,103,39.7
		c46.7,14,78.3,11.7,78.3,11.7c19.7,201.4-36.3,322.7-48.3,345.9c20.2,4,38.9,8.4,55,13.3l3.5,1.1L680.4,522.8z"/>
	<path class="st0" d="M123.5,522l20,97.5c0,0,99.1-26.4,217.1-31.6c10-10.3,23.9-16.6,39.4-16.6s29.4,6.4,39.4,16.6
		c118,5.2,217.1,31.6,217.1,31.6l20-97.5C604,500,477,486.5,400,486.5S196,500,123.5,522z M176,587.8l-9.3-43.2l-8.3,1.8l-1.3-7
		l24.2-5.5l1.5,7.3l-8,1.5l9.3,43.3L176,587.8z M212.2,580.4c-1.2-1.3-2.2-8.1-2.5-9.5c-0.2-1.4-0.8-9.2-3.9-9.8
		c-3.2-0.6-6.2,0.8-6.2,0.8l3.8,20.3l-7.7,1.2l-9.7-50c0,0,7.8-1.6,12.2-2.2c4.4-0.7,8.2-0.2,11.2,3.1c3,3.3,3.4,11.9,3.4,15.4
		s-3.4,6-3.4,6c2.6,0.1,4.2,2.2,5.5,3.8s2.3,9,2.9,12.8c0.6,3.8,2.6,7,2.6,7L212.2,580.4z M242.8,575.2l-2.9-9l-9.8,1.7l0.1,9.7
		l-7.2,0.9v-51.6l11.5-1.8l16.4,49.1L242.8,575.2z M271.4,571.1l-14.6-33.8l4.9,35.6l-7.5,0.9l-6.5-50.9l9.8-1.6l12.2,28.9l-4-29.8
		l7.4-1l6.8,51L271.4,571.1z M304.8,565.2c-3.9,4.5-11.5,4.4-15.2,3.4s-6.2-5.8-6.4-8.2s-0.2-5.9-0.2-5.9l7.5-0.5c0,0,0,2.8,0.2,4.8
		s2,3.2,3.4,3.4s4.8,1,4.9-5s-8.4-11-11.5-13.2s-7.4-6.9-7.2-14.8c0.2-7.9,4.9-11,12.1-11.9s11.1,5.6,11.4,8.2s0.6,5.2,0.6,5.2
		l-7.6,0.6c0,0-0.1-1.9-0.4-3.9s-2.6-3.6-5.5-2.6s-2.5,3.6-2.2,6.8s4.8,6.9,7.4,8.5s7.8,6,9.5,9.5S308.6,560.8,304.8,565.2z
		 M335.2,557.2c-0.2,5.5-4.5,9.7-11.8,10c-7.3,0.3-11.5-4.5-12-10.2c-0.5-5.7-1.7-25.7-2-31.7c-0.3-6,4.3-9.7,12-10.7
		c7.7-1,12.2,6.5,12.2,10.7s0,6.5,0,6.5l-7.5,0.3c0,0-0.2-3.8-0.3-6.5c-0.2-2.7-2.5-3.5-4.5-3.5s-4.2,1.3-4,3.5
		c0.2,2.2,1.7,24.7,1.8,28.5c0.2,3.8,1.8,5.7,5.2,5.7c3.3,0,3.5-2.8,3.5-5.5s-0.2-7.3-0.2-7.3h7.5C335,547,335.3,551.7,335.2,557.2z
		 M340.8,565.5l-2-51.2l21.5-1l0.2,7.2l-13.3,0.5l0.5,14.7l11.4-0.4l0.3,7.2h-11.5l0.5,15.2l14.5-0.5l0.2,7.3L340.8,565.5z
		 M385.5,564.2l-11-36.2l0.8,36.2h-7.5L367,513l10.5-0.4l8.5,29.9l-0.5-29.9h7.5l1,51.7H385.5z M424.3,554c-0.1,5.4-4.4,9.7-9.8,9.7
		H400l-0.2-51.2H414c5.9,0,10.7,4.8,10.6,10.7L424.3,554z M453.2,521.2l-14-0.5l-0.7,14.5H450v7.2h-11.8l-0.7,15l14.2,0.2v7.8
		l-22.2-1.2l1.8-50.9l22,0.7V521.2z M482,567.2l-8.2-0.8l-7.8-36.2l-2.2,35.2h-7.5l3.5-51h10l6.8,31l1.2-30h7.8L482,567.2z
		 M514.5,535.4h-7.6l0.2-7.1c0.1-2.3-1.7-4.3-4.1-4.4h0c-2.3-0.1-4.2,1.6-4.4,3.9l-2.6,29.4c-0.2,2.3,1.5,4.4,3.8,4.7
		c2.5,0.3,4.7-1.6,4.8-4l0.5-7.6l7.9,0.2l-0.8,9.5c-0.5,5.7-5.4,9.9-11.1,9.5l-2.7-0.2c-6.2-0.5-10.8-6-10.3-12.2l2.8-30.9
		c0.5-5.4,5.2-9.5,10.6-9.1l3.9,0.2c5.3,0.3,9.5,4.8,9.3,10.2L514.5,535.4z M543.5,529.4l-14.4-1.4l-1.7,14.2l11.5,1.1l-0.8,7.4
		l-11.5-1.5l-1.8,15.2l14.1,1.5l-0.6,7.2l-22.1-2.8l6-50.6l22,2.5L543.5,529.4z M588.7,580.2L581,579l1.2-7.7l7.5,1L588.7,580.2z
		 M590.3,536.2l-13.3-2l-2.3,15.4l10.3,1.3l-1,7.2l-10.3-1.6l-3.2,21.4l-8.7-1.3l8.3-51l21.3,3.3L590.3,536.2z M621.3,577.1
		c-1.1,5.6-6.5,9.2-12.1,8.1l-2.6-0.5c-6.1-1.2-10.1-7.2-8.8-13.3l6.3-30.3c1.1-5.3,6.2-8.8,11.6-7.9l3.9,0.7
		c5.3,0.9,8.8,5.9,8,11.2l-1.2,7.8l-7.6-0.9l1-7c0.3-2.3-1.2-4.4-3.5-4.8c-2.2-0.4-4.4,1.1-4.8,3.3l-6,28.9c-0.5,2.3,1,4.6,3.3,5.1
		c2.4,0.6,4.8-1,5.3-3.5l1.3-7.5l7.8,1.1L621.3,577.1z M633.5,589.3l-7.8-1.5l1.3-7.7l7.7,1.5L633.5,589.3z M645.6,530.1
		C644.5,529.8,532.5,502,400,502c-132.5,0-243.7,27.8-244.8,28.1l-1.7-6.8C154.6,523,266.6,495,400,495c133.4,0,246.2,28,247.4,28.3
		L645.6,530.1z"/>
</g>
</svg>
