<?xml version="1.0" encoding="utf-8"?>
<!-- Generator: Adobe Illustrator 22.1.0, SVG Export Plug-In . SVG Version: 6.00 Build 0)  -->
<svg version="1.1" id="图层_1" xmlns="http://www.w3.org/2000/svg" xmlns:xlink="http://www.w3.org/1999/xlink" x="0px" y="0px"
	 viewBox="0 0 800 800" style="enable-background:new 0 0 800 800;" xml:space="preserve">
<style type="text/css">
	.st0{fill:#0A328A;}
	.st1{fill:#FFFFFF;}
	.st2{fill:#1EB3D1;}
	.st3{fill:#002071;}
</style>
<g>
	<g>
		<g>
			<g>
				<path class="st0" d="M629,215c0,0-12.7-96.7-14.7-112.7S603.7,81.7,589,77c-11.8-3.8-38.9-13.6-48.9-17.3
					c-2.5-0.9-5.2-1.1-7.8-0.5l-30.2,6.6c-1.6,0.4-3.3,0.3-4.9-0.1C486.3,62.5,439.4,50,400,50s-86.3,12.5-97.3,15.6
					c-1.6,0.4-3.3,0.5-4.9,0.1l-30.2-6.6c-2.6-0.6-5.3-0.4-7.8,0.5c-10,3.7-37,13.5-48.9,17.3c-14.7,4.7-23.3,9.3-25.3,25.3
					S171,215,171,215l-60.4,57.6C134.6,622.1,400,750,400,750s265.4-127.9,289.4-477.4L629,215z"/>
				<path class="st1" d="M623,219c0,0-14-85-17-104s-11-20.7-20.3-24c-9.3-3.3-37.3-13.3-44.7-16c-7.3-2.7-12.7-4-26,0s-18,4.7-28,2
					c-10-2.7-48-11-87-11s-77,8.3-87,11c-10,2.7-14.7,2-28-2s-18.7-2.7-26,0c-7.3,2.7-35.3,12.7-44.7,16c-9.3,3.3-17.3,5-20.3,24
					s-17,104-17,104l-59,57c33,338,282,457,282,457s249-119,282-457L623,219z"/>
				<path class="st0" d="M606.9,215.6c0,0-10.6-65.3-13.2-81.3c-2.7-16-8-20-18-23.3c-10-3.3-35.3-12-42.7-14.7s-17.3-2-26.7,2
					c-9.3,4-17.3,2.7-25.3,0s-39.3-10.7-81-10.7s-73,8-81,10.7s-16,4-25.3,0c-9.3-4-19.3-4.7-26.7-2s-32.7,11.3-42.7,14.7
					c-10,3.3-15.3,7.3-18,23.3c-2.7,16-13.2,81.3-13.2,81.3l-61.5,61.5c43.5,346.5,268.4,435,268.4,435s224.9-88.5,268.4-435
					L606.9,215.6z"/>
			</g>
			<g>
				<path class="st2" d="M681.5,231.5c0,0,43.5,34.5,68.5,72c0,0-49,19-62,84.5c0,0-24-63.5-101-96.5c-7-3-7-15.5,11-7.5
					s31.5,17.2,31.5,17.2L681.5,231.5z"/>
				<path class="st3" d="M681.5,235.9c10,8.3,41.9,36.7,62.5,66c-5,2.6-13.6,7.7-22.9,16.4c-11.6,10.8-26.4,29.3-34.4,57.7
					c-3.5-6.7-9.1-15.9-17.2-26.3c-14.5-18.6-40.4-44.5-81-61.8c-1.3-0.6-1.9-1.7-1.9-2.2c0.2-0.1,0.6-0.2,1.5-0.2
					c1.4,0,4,0.4,8.3,2.3c17.4,7.7,30.7,16.8,30.9,16.9l3.2,2.2l2.3-3.1 M680.4,230.2l-50.9,71c0,0-13.5-9.2-31.5-17.2
					c-4.2-1.9-7.5-2.6-9.9-2.6c-7.7,0-6.5,7.8-1.1,10.1c77,33,101,96.5,101,96.5c13-65.5,62-84.5,62-84.5
					C725,266,680.4,230.2,680.4,230.2z"/>
			</g>
			<g>
				<path class="st2" d="M118.5,231.5c0,0-43.5,34.5-68.5,72c0,0,49,19,62,84.5c0,0,24-63.5,101-96.5c7-3,7-15.5-11-7.5
					s-31.5,17.2-31.5,17.2L118.5,231.5z"/>
				<path class="st3" d="M167.3,303.6l2.3,3.1l3.2-2.2c0.1-0.1,13.4-9.2,30.9-16.9c4.3-1.9,6.8-2.3,8.3-2.3c0.9,0,1.3,0.1,1.5,0.2
					c0,0.5-0.6,1.7-1.9,2.2c-40.6,17.4-66.4,43.2-81,61.8c-8.1,10.4-13.7,19.7-17.2,26.3c-8-28.4-22.8-46.9-34.4-57.7
					c-9.3-8.7-17.9-13.8-22.9-16.4c20.6-29.3,52.5-57.6,62.5-66 M50,303.5c0,0,49,19,62,84.5c0,0,24-63.5,101-96.5
					c5.3-2.3,6.6-10.1-1.1-10.1c-2.4,0-5.6,0.7-9.9,2.6c-18,8-31.5,17.2-31.5,17.2l-50.9-71C119.6,230.2,75,266,50,303.5z"/>
			</g>
			<path class="st2" d="M683.3,203.7c-29.5-22.4-130.1-86.2-283.3-86.2s-253.8,63.8-283.3,86.2c-5.1,3.9-6.2,11.1-2.5,16.4
				l49.6,69.6c1.6,2.2,4.6,2.6,6.7,0.9c83-69.6,225.5-66.2,225.5-66.2l4-34.2l4,34.2c0,0,142.5-3.4,225.5,66.2
				c2.1,1.7,5.1,1.3,6.7-0.9l49.6-69.6C689.5,214.9,688.5,207.6,683.3,203.7z"/>
			<path class="st3" d="M400,119c65.6,0,128.9,12.1,188,36.1c47.7,19.3,80,41.4,95.1,52.8c3.5,2.6,4.2,7.5,1.7,11l-50,70.2
				c-0.2,0.2-0.4,0.3-0.5,0.3c-0.1,0-0.3,0-0.4-0.1c-32.7-27.4-77.9-47-134.3-58.2c-43.8-8.7-81-9.5-92-9.5l-7.6-39.3l-7.6,39.3
				c-10.9,0-48.2,0.8-92,9.5c-56.4,11.2-101.5,30.8-134.2,58.2c-0.1,0.1-0.3,0.1-0.4,0.1c-0.1,0-0.3,0-0.5-0.3l-50-70.2
				c-2.5-3.5-1.8-8.4,1.7-11c15-11.4,47.4-33.5,95.1-52.8C271.1,131.1,334.4,119,400,119 M400,115c-154.3,0-255.7,67.2-285.4,89.7
				c-5.2,3.9-6.3,11.2-2.5,16.5l50,70.2c0.9,1.3,2.3,1.9,3.8,1.9c1,0,2.1-0.4,3-1.1c76.2-63.9,202.3-66.8,224-66.8
				c2.1,0,3.2,0,3.2,0l4-31.4l4,31.4c0,0,1.1,0,3.2,0c21.7,0,147.7,2.8,224,66.8c0.9,0.7,1.9,1.1,3,1.1c1.4,0,2.9-0.7,3.8-1.9
				l50-70.2c3.8-5.3,2.7-12.6-2.5-16.5C655.7,182.2,554.3,115,400,115L400,115z"/>
		</g>
		<g>
			<path class="st1" d="M240.1,231.4c0.1,0.2-0.1,0.4-0.6,0.7c-0.9,0.6-3.3,1.8-7.1,3.5c-3.3,1.5-5.6,2.5-6.9,2.9
				c-0.6,0.2-0.9,0.3-1,0.2c-0.2,0-0.5-0.2-0.9-0.5c-0.8-0.8-2.1-2-3.7-3.6c-2.1-2.1-5.4-5.1-9.8-9.1c-0.9-0.8-2.2-0.8-3.9-0.2
				c0.8-0.3-0.5,0.3-3.9,1.9c-0.4,0.2-0.3,0.9,0.3,2.2c0.8,1.7,2.1,4.2,4,7.5c1.9,3.3,3.2,5.8,4,7.5c0.2,0.4,0.2,0.7,0,0.9
				c-0.3,0.2-0.7,0.4-1,0.6c-1.4,0.8-3.7,1.9-6.9,3.4c-3.6,1.7-5.8,2.6-6.6,2.8c-0.8,0.2-1.3,0-1.6-0.7c-1.3-2.8-3.1-7-5.4-12.8
				c-2.3-5.7-4.1-10-5.4-12.8c-4.9-10.7-9-18.9-12.2-24.7l-0.3-0.5c-0.2-0.4,0-0.9,0.8-1.4c0.8-0.5,4.5-2.5,11.4-5.8
				c4.6-2.2,8.3-4,11.1-5.3c5.8-2.6,11.1-3.5,15.9-2.6c5.5,1,9.5,4.3,12,9.9c1.7,3.7,2.5,6.9,2.5,9.6c-0.1,2.7-1,5.7-2.9,9.1
				c-0.4,0.7-0.5,1.2-0.4,1.5c0,0,3,2.4,9,7.4C236.7,228,239.8,230.8,240.1,231.4z M208.6,204.7c-1.4-3.1-3.4-4.8-6-5
				c-2-0.2-4.6,0.5-8,2c-2.4,1.1-3.5,2.1-3.3,2.9c0.2,0.9,1.3,3.4,3.2,7.5c0.3,0.6,0.7,1.4,1.2,2.6c0.5,1.1,0.9,2,1.2,2.5
				c0.1,0.1,0.5,0.1,1.4-0.2c1.6-0.5,3.3-1.1,5-1.9C208.8,212.6,210.6,209.1,208.6,204.7z"/>
			<path class="st1" d="M306.2,189c0,8.7-2.8,15.9-8.3,21.8c-5.6,5.9-12.8,8.9-21.4,8.9c-8.6,0-15.7-3-21.4-9
				c-5.6-5.9-8.3-13.1-8.3-21.7c0-8.6,2.8-15.9,8.3-21.8c5.7-6,12.8-9,21.4-9c8.5,0,15.7,3,21.4,9
				C303.5,173.2,306.2,180.4,306.2,189z M290.4,189c0-4.2-1.3-7.7-3.8-10.6c-2.6-3.1-6-4.6-10.1-4.6c-3.9,0-7.2,1.6-10,4.8
				c-2.6,3.1-4,6.6-4,10.6c0,4.3,1.2,7.8,3.7,10.6c2.6,3,6,4.5,10.2,4.5c3.9,0,7.3-1.6,10-4.7C289.1,196.4,290.4,192.9,290.4,189z"
				/>
			<path class="st1" d="M382.7,143.8c0.2,3.2,0.4,7.9,0.6,14.3c0.2,6.4,0.4,11.1,0.7,14.3l2,27.4c0.1,0.7-0.3,1.2-1.1,1.2
				c-0.7,0-1.7,0.1-3,0.3c-1.3,0.2-2.3,0.3-3,0.3c-0.7,0.1-1.8,0.1-3.3,0.1c-1.4,0-2.5,0-3.3,0.1c-0.5,0-1.1-0.4-1.9-1.2
				c-2.2-2.5-7.1-8.2-14.8-16.9c-2.1-2.4-5.3-6-9.6-10.8c-0.1-0.2-0.3-0.3-0.7-0.5c-0.2,0.2-0.3,0.5-0.3,0.9c0.2,3.2,0.7,8,1.3,14.5
				c0.7,6.4,1.1,11.2,1.3,14.5c0.1,1-0.3,1.5-1,1.5l-14.4,1.1c-0.8,0.1-1.2-0.3-1.3-1.2c-0.2-3-0.4-7.5-0.6-13.6
				c-0.2-6.1-0.3-10.6-0.6-13.6c-0.2-3.2-0.7-7.9-1.4-14.3c-0.7-6.3-1.2-11.1-1.4-14.2c0-0.6,0.5-1,1.6-1c1.6-0.1,3.6-0.4,5.9-0.8
				c0.6-0.1,1.6-0.4,3.2-0.8c1.4-0.4,2.5-0.6,3.3-0.6c0.3,0,0.9,0.4,1.6,1.3l17.1,20.1c1.5,1.8,3.8,4.5,6.9,7.9
				c0.8,0.8,1.4,1.2,1.9,1.2c0.4,0,0.5-1.1,0.3-3.3c-0.2-2.9-0.7-7.3-1.4-13.1c-0.7-5.8-1.2-10.2-1.4-13.1c-0.1-1,0.2-1.6,0.8-1.6
				c1.7-0.1,4.2-0.4,7.5-0.8c3.3-0.4,5.8-0.6,7.5-0.8C382.3,142.5,382.6,142.9,382.7,143.8z"/>
			<path class="st1" d="M465.3,201.8c0,0.8-0.4,1.1-1.2,1.1c-0.5,0-2-0.3-4.6-1c-2.5-0.7-4-1.1-4.6-1.3c-5.8,2.2-11.4,3.2-16.8,3.1
				c-8.6-0.1-15.6-3.1-21-8.9c-5.4-5.7-8-12.9-7.8-21.5c0.1-8.8,2.9-16.1,8.3-21.8c5.5-5.9,12.7-8.8,21.4-8.7
				c4.2,0.1,8.2,0.9,11.9,2.6c4,1.8,7.1,4.4,9.4,7.7c0.5,0.7,0.7,1.2,0.7,1.4c0,0.9-1.3,2.9-3.8,5.9c-2.5,3.1-4.2,4.6-4.9,4.6
				c-0.2,0-0.8-0.6-1.9-1.7c-1.3-1.4-2.7-2.5-4.1-3.2c-2.1-1.2-4.4-1.8-7-1.8c-4.2-0.1-7.5,1.4-10,4.5c-2.3,2.8-3.5,6.4-3.6,10.7
				c-0.1,4.5,1,8.1,3.4,10.8c2.4,2.8,5.8,4.2,10.3,4.3c2.8,0,6-0.6,9.5-2c-0.1-0.9-0.3-3.3-0.6-7c-0.3-2.9-0.5-5.2-0.4-7
				c0-0.5,0.2-0.8,0.6-1c0.1-0.1,0.4-0.1,0.7-0.1c0.8,0,2,0.1,3.6,0.3c1.6,0.2,2.9,0.3,3.7,0.3c0.9,0,2.2,0,4-0.1
				c1.8-0.1,3.1-0.1,4-0.1c0.7,0,1,0.5,1,1.4c0,1.3-0.1,3.3-0.3,6c-0.2,2.7-0.3,4.7-0.3,6c-0.1,3.6,0.1,9,0.5,16.1L465.3,201.8z"/>
			<path class="st1" d="M541.9,192.8c-2,7.9-6.3,14.2-12.8,18.7c-5.8,4.1-12.8,5.2-21,3.5c-1.6-0.3-5.9-1.4-12.9-3.1
				c-1.3-0.3-3.3-0.9-5.9-1.6c-2.6-0.7-4.6-1.3-5.9-1.6c-0.8-0.2-1.1-0.6-0.9-1.2c0.7-3,2-7.4,3.7-13.3c1.7-5.9,2.9-10.3,3.7-13.3
				c0.8-3.1,1.8-7.8,3.1-14c1.3-6.2,2.4-10.9,3.1-14c0.1-0.6,0.6-0.8,1.4-0.7c2,0.3,5.1,0.9,9.5,2c8.3,2.1,13.7,3.5,16.1,4.4
				c6.2,2.2,10.8,5.1,13.8,8.6c2.8,3.3,4.6,7.3,5.5,12.2C543.2,183.9,543,188.4,541.9,192.8z M526.5,188.9c1.1-4.6,0.7-8.6-1.3-12.2
				c-2-3.7-5.3-6.1-9.8-7.2c-4.2-1-6.4-1-6.6,0.1c-0.4,1.6-1,4-1.9,7.2s-1.5,5.6-1.9,7.2c-0.4,1.6-1,3.9-1.7,7.1
				c-0.7,3.2-1.3,5.5-1.7,7.1c-0.3,1.2,1.7,2.3,6,3.4c4.7,1.2,8.7,0.5,12.2-1.9C523,197.3,525.3,193.7,526.5,188.9z"/>
			<path class="st1" d="M601.4,249.4c-0.2,0.5-0.7,0.6-1.4,0.5c-0.9-0.1-3.3-1.1-7.3-2.8c-3.6-1.6-6-2.7-6.9-3.4
				c-0.8-0.6-1.1-1.4-0.9-2.4c0.7-4,0.9-6.3,0.5-6.8c-0.3-0.4-3.7-1.9-10.1-4.7c-4.3-1.9-6.7-2.8-7.1-2.7c-0.6,0.2-1.7,1.4-3.2,3.5
				c-1.4,1.9-2.5,2.8-3.3,2.7c-1-0.2-3.9-1.3-8.9-3.5c-3.9-1.7-5.7-2.9-5.4-3.6c0.3-0.7,6.7-7.6,19.2-20.7
				c13.6-14.2,21-22,22.3-23.5c0.7-0.8,1.3-1.2,1.7-1c0.7,0.3,1.7,0.8,3.1,1.6c1.4,0.8,2.4,1.3,3.2,1.6c0.7,0.3,1.7,0.7,3.1,1.2
				c1.4,0.5,2.4,0.9,3.1,1.2c0.5,0.2,0.7,0.8,0.8,1.8c0.1,3.2-0.2,14-1,32.3C602.2,239.1,601.7,248.7,601.4,249.4z M589.3,202.8
				c-1,0.9-3,2.9-5.9,6.1c-3.1,3.4-4.8,5.4-5.1,6.1c-0.2,0.5,0.5,1,2,1.8c0.8,0.4,2.1,1,3.9,1.8c1.7,0.7,2.7,0.9,3.1,0.6
				c0.1-0.1,0.2-0.3,0.3-0.5c0.4-0.8,0.8-3.4,1.3-7.7C589.3,206.7,589.4,204,589.3,202.8z"/>
		</g>
		<g>
			<path class="st1" d="M373.5,651.6c0,0.4,0,1.1-0.1,1.9c-0.1,0.8-0.1,1.5-0.1,1.9s0,1.1,0,2.1c0,0.9,0,1.6,0,2.1
				c0,0.5-0.3,0.7-0.9,0.7c-0.2,0-1.1-0.2-2.6-0.5c-1.7-0.4-4.8-0.5-9.3-0.5c-1.4,0-3.5,0.1-6.3,0.2c-2.8,0.2-4.9,0.2-6.3,0.2
				c-0.5,0-0.7-0.2-0.8-0.7c-0.1-0.6-0.2-1.5-0.4-2.8c-0.5-1.9-0.7-2.9-0.7-3.2c0-0.4,0.8-0.7,2.3-0.9c1.8-0.2,2.9-0.6,3.5-1
				c1.8-1.6,3.7-3.5,5.7-5.9c2.5-3,3.7-5.2,3.7-6.7c0-1.3-0.5-2.4-1.4-3.3c-0.9-0.9-2.1-1.3-3.4-1.3c-1.5,0-2.9,0.3-4.4,0.9
				c-1,0.4-2,0.9-3,1.6c-0.9,0.6-1.4,0.8-1.5,0.8c-0.6,0-0.9-0.7-0.9-2.2c0-1.1,0-2-0.1-2.5c0-0.2-0.2-0.7-0.4-1.5
				c-0.2-0.6-0.3-1.1-0.3-1.4c0-0.2,0.2-0.5,0.5-0.7c1.5-1.1,3.5-1.9,6.1-2.5c2.3-0.5,4.5-0.8,6.6-0.8c3.5,0,6.4,0.8,8.7,2.3
				c2.8,1.8,4.1,4.3,4.1,7.6c0,4.4-3.3,9.5-10,15.4c4.7-0.2,8.4-0.4,11.1-0.4C373.2,650.6,373.5,651,373.5,651.6z"/>
			<path class="st1" d="M408,642.9c0,4.7-1.5,8.8-4.6,12.1c-3.2,3.5-7.1,5.3-11.8,5.3c-4.7,0-8.6-1.8-11.7-5.3
				c-3.1-3.4-4.6-7.4-4.6-12.1c0-4.7,1.5-8.8,4.6-12.1c3.1-3.5,7-5.2,11.7-5.2c4.7,0,8.6,1.7,11.7,5.2
				C406.5,634.2,408,638.2,408,642.9z M397.8,642.9c0-1.9-0.5-3.5-1.6-4.9c-1.2-1.5-2.7-2.2-4.5-2.2c-1.9,0-3.4,0.7-4.5,2.2
				c-1.1,1.4-1.6,3-1.6,4.9c0,1.9,0.5,3.6,1.6,5c1.2,1.5,2.7,2.3,4.5,2.3c1.8,0,3.3-0.8,4.5-2.3
				C397.3,646.4,397.8,644.8,397.8,642.9z"/>
			<path class="st1" d="M424.2,658.1c0,0.3-0.2,0.7-0.5,1c-0.3,0.3-0.6,0.4-1,0.4c-0.9,0-2.2,0-3.9,0c-1.8,0-3.1,0-3.9,0
				c-0.7,0-1-0.3-1-0.9l0-0.3c0.3-7,0.4-11.2,0.4-12.7v-8.1c0-0.5-0.1-0.8-0.4-0.8c-0.4,0-0.9,0.1-1.7,0.3c-0.7,0.2-1.3,0.3-1.7,0.3
				c-0.6,0-0.8-0.3-0.8-1c0-0.6,0-1.6,0-2.8c0-1.2,0-2.2,0-2.8c0-0.4,0.2-0.6,0.7-0.8c2.7-1.1,4.8-2.6,6.3-4.5
				c0.3-0.4,0.6-0.6,0.8-0.6c0,0,0.1,0,0.3,0.1c0.7,0.1,1.7,0.4,3.1,0.7c0.7,0.1,1.8,0.3,3.2,0.5c0.3,0.1,0.4,0.3,0.4,0.6
				c0,0.1,0,0.3-0.1,0.6c-0.2,1.6-0.3,5.5-0.3,11.8c0,2.1,0,5.3,0,9.5C424.2,652.8,424.2,656,424.2,658.1z"/>
			<path class="st1" d="M454.4,648c0,8.2-5,12.2-15.1,12.2c-1.5,0-3.4-0.2-5.9-0.5c-3.2-0.4-4.8-0.9-5-1.5c-0.1-0.2-0.1-1.1-0.1-2.4
				c0-0.8,0.1-1.8,0.3-3.1c0.2-1.6,0.5-2.5,0.8-2.5c0.1,0,0.2,0.1,0.5,0.2c2.2,1.1,4.7,1.6,7.5,1.6c4,0,6.1-1.3,6.1-3.9
				c0-1.4-0.7-2.5-2.2-3.3c-1.2-0.6-2.5-0.9-4.1-0.9c-0.7,0-1.7,0.1-3,0.2c-1.3,0.2-2.4,0.2-3,0.2c-0.6,0-1-0.3-1-0.9
				c0-1.8,0.1-4.4,0.2-8c0.2-3.6,0.2-6.3,0.2-8c0-0.3,0.1-0.7,0.4-1.1c0.3-0.4,0.6-0.6,0.9-0.7c0.4-0.1,2.9-0.1,7.6-0.1
				c5.3,0,8.9,0,10.7,0.1c0.5,0,0.7,0.2,0.7,0.6c0,1-0.1,2.5-0.3,4.3c-0.3,2.3-0.6,3.5-1,3.5l-0.3,0c-4.1-0.4-6.7-0.5-7.7-0.5
				c-2,0-3.1,0.1-3.2,0.3c-0.3,0.5-0.5,1.6-0.5,3.1c0,0.2,0,0.4,0.1,0.5c0.5,0,1.2,0,2.2-0.1c0.9-0.1,1.7-0.1,2.2-0.1
				c3.4,0,6.2,0.9,8.5,2.7C453.2,642,454.4,644.6,454.4,648z"/>
		</g>
	</g>
	<g>
		<path class="st1" d="M490.1,462.9c-0.8-0.6-1.9,0.5-1.2,1.3c6.7,8.8,18.8,29,9.1,50.3c-10.3,22.5-40.5,21-52.8,19.4
			c-1-0.1-1.4,1.2-0.5,1.7c13.2,6.6,50.6,21.8,67.3-10.1C528.2,494.6,501.8,471.3,490.1,462.9z"/>
		<path class="st1" d="M351,402.4c0.7-1.2,2.6-0.5,2.3,0.9c-4.1,20.1-12.4,76.9,17.7,110.2c37,41,93.5,47.5,117,39
			c22.7-8.2,50.1-22,23.9-83.9c-0.5-1.2,1.1-2.3,2-1.2c11.1,13.2,35.3,48.5,11.1,80.6c-30.5,40.5-118,40-159.5-3
			C331.4,509.7,324.4,448.2,351,402.4z"/>
		<path class="st2" d="M314.3,405.7c0,0-21.3,112,42.7,154.7c64,42.7,121.3,48.7,174.7-2.7c0,0-48.7,90.7-163.3,35.3
			c-72-34.7-81.4-88-81.3-116.7C287,459,293,429.7,314.3,405.7z"/>
		<path class="st1" d="M312.3,384.3c0,0-104,113.3,25.3,220.7c0,0-78-20.3-80.7-112.7C257.7,413,312.3,384.3,312.3,384.3z"/>
		<path class="st1" d="M241,513.7c0,0-10-178,156.7-190c0,0,2.8,8.3,6.6,10.1s10.8,1.2,18.2-2.8s32-13,44.5-9c6,2.2,3.2,7-1.8,8.8
			s-53,15.8-53,15.8s55.4-0.2,92.8-14.2c0,0,1.5,4.7-4.8,11.4c0,0,7.2,0.8,28.2-14.8c6.9-6,2-18-6-16.5s-20.2,6-28.2,0.2
			c0,0,7.1-0.4,11.1-1.1c4-0.7,8.3-3,17.3-2.3c0,0-1.3-4-7.3-4.3c-6-0.3-7.7,2-12.3,2.7c-4.7,0.7-10.3,0.3-14-1.3
			c-3.7-1.7-8.3-4.7-14-4.3c0,0,2.3-2.3,7.7-2.7c5.3-0.3,8.7,3,13,3.3c4.3,0.3,20.3,0,28-4v6c0,0,14-0.7,24-18.7
			c2.7-5.3-4.7-12.7-10.3-16.7c-3.3-2.2-53.3,3.2-64.3,8.2c0,0-3.5-15.5-26-7.5c0,0-12-9-17.5-13s-17-2-31.5,1.5s-32,8.5-50.5,9
			s-23.5,0-30,0s-24.5,11.5-5.5,17s45.5,0,56-1.5s33.8-1.5,40.8,1.2C408.8,284.2,196,313.3,241,513.7z"/>
	</g>
	<g>
		<path class="st1" d="M457.2,415.2c-7.7-6.1-17-10.4-27.2-12l0.8,6.5l21.5,8.5L457.2,415.2z"/>
		<polygon class="st1" points="396.2,456.5 414,435.8 412,422.3 391.7,419.8 375.2,436.5 381.5,456.5 		"/>
		<polygon class="st1" points="382.8,497 402.5,497.3 410.2,481.7 396.5,459.8 380.3,459.8 371.5,476.5 		"/>
		<path class="st1" d="M474,476.8l2.6,2c1.8-5.6,2.8-11.6,2.8-17.8c0-2.9-0.2-5.8-0.6-8.6L474,455V476.8z"/>
		<polygon class="st1" points="416,435.5 442.5,446 454.5,439.5 452,420 430.5,411.5 414.5,421.5 		"/>
		<polygon class="st1" points="471.7,454.5 455.3,441.7 443.2,447.8 441,476 453.8,486.3 471.7,476.3 		"/>
		<path class="st1" d="M380.5,498.3l-11.3-20.5l-4.4-0.1c2.7,9.1,7.6,17.2,14,23.9L380.5,498.3z"/>
		<polygon class="st1" points="443.8,507.3 451.8,489 439.2,478.3 413.2,483 405,498 420.3,511.8 		"/>
		<path class="st1" d="M447.7,513l-3.5-3.2l-23.5,4.5l-2.3,5.2c0.8,0,1.6,0.1,2.4,0.1C430.5,519.5,439.7,517.1,447.7,513z"/>
		<path class="st1" d="M369.2,433.5l5.2,0.6l16.5-16.7l-1.8-5.6C380.7,417.3,373.9,424.7,369.2,433.5z"/>
	</g>
</g>
</svg>
