<?xml version="1.0" encoding="utf-8"?>
<!-- Generator: Adobe Illustrator 22.1.0, SVG Export Plug-In . SVG Version: 6.00 Build 0)  -->
<svg version="1.1" id="图层_1" xmlns="http://www.w3.org/2000/svg" xmlns:xlink="http://www.w3.org/1999/xlink" x="0px" y="0px"
	 viewBox="0 0 800 800" style="enable-background:new 0 0 800 800;" xml:space="preserve">
<style type="text/css">
	.st0{fill:#0A328A;}
</style>
<g>
	<path class="st0" d="M731.5,279.6c-23.8-27.5-51.1-49.4-51.1-49.4l-50.9,71c0,0-13.5-9.2-31.5-17.2c-0.5-0.2-1.1-0.5-1.6-0.7
		c-0.2-0.1-0.3-0.1-0.5-0.2c-0.3-0.1-0.7-0.3-1-0.4c-0.2-0.1-0.4-0.1-0.6-0.2c-0.3-0.1-0.6-0.2-0.8-0.3c-0.2-0.1-0.4-0.1-0.6-0.2
		c-0.3-0.1-0.5-0.1-0.7-0.2c-0.2,0-0.4-0.1-0.5-0.1c-0.2-0.1-0.5-0.1-0.7-0.1c-0.2,0-0.3-0.1-0.5-0.1c-0.2,0-0.4-0.1-0.6-0.1
		c-0.2,0-0.3,0-0.5-0.1c-0.2,0-0.4,0-0.6,0c-0.1,0-0.3,0-0.4,0c-0.1,0-0.2,0-0.3,0c-0.1,0-0.1,0-0.1,0c-0.4,0-0.8,0-1.2,0.1
		c0,0-0.1,0-0.1,0c-0.3,0.1-0.6,0.1-0.9,0.2c-0.1,0-0.1,0-0.2,0.1c-0.3,0.1-0.6,0.2-0.8,0.3c0,0-0.1,0-0.1,0.1
		c-0.2,0.1-0.4,0.3-0.6,0.4c0,0-0.1,0.1-0.1,0.1c-0.2,0.2-0.4,0.4-0.5,0.6c0,0,0,0.1-0.1,0.1c-0.1,0.2-0.2,0.4-0.3,0.6
		c0,0,0,0.1-0.1,0.1c-0.1,0.2-0.2,0.5-0.2,0.7c0,0,0,0.1,0,0.1c0,0.2-0.1,0.4-0.1,0.6c0,0,0,0.1,0,0.1c0,0.2,0,0.5,0.1,0.8
		c0,0.1,0,0.1,0,0.2c0,0.2,0.1,0.5,0.2,0.7c0,0,0,0.1,0,0.1c0.1,0.3,0.2,0.5,0.3,0.7c0,0.1,0.1,0.1,0.1,0.2c0.1,0.2,0.3,0.4,0.4,0.7
		c0,0,0,0.1,0.1,0.1c0.2,0.2,0.4,0.5,0.5,0.7c0,0.1,0.1,0.1,0.1,0.2c0.2,0.2,0.4,0.4,0.6,0.6c0,0,0,0,0.1,0c0.2,0.2,0.5,0.4,0.7,0.5
		c0.1,0,0.1,0.1,0.2,0.1c0.3,0.2,0.6,0.3,0.9,0.4c77,33,101,96.5,101,96.5c13-65.5,62-84.5,62-84.5
		C744.5,295.3,738.1,287.2,731.5,279.6z"/>
	<path class="st0" d="M213,291.5c0.3-0.1,0.6-0.3,0.9-0.4c0.1,0,0.1-0.1,0.2-0.1c0.3-0.2,0.5-0.3,0.7-0.5c0,0,0,0,0.1,0
		c0.2-0.2,0.4-0.4,0.6-0.6c0,0,0.1-0.1,0.1-0.1c0.2-0.2,0.4-0.4,0.5-0.7c0,0,0-0.1,0.1-0.1c0.1-0.2,0.3-0.4,0.4-0.7
		c0-0.1,0.1-0.1,0.1-0.2c0.1-0.2,0.2-0.5,0.3-0.7c0,0,0-0.1,0-0.1c0.1-0.2,0.1-0.5,0.2-0.7c0-0.1,0-0.1,0-0.2c0-0.3,0.1-0.5,0.1-0.8
		c0,0,0-0.1,0-0.1c0-0.2,0-0.4-0.1-0.6c0,0,0-0.1,0-0.1c0-0.2-0.1-0.5-0.2-0.7c0,0,0-0.1-0.1-0.1c-0.1-0.2-0.2-0.4-0.3-0.6
		c0,0,0-0.1-0.1-0.1c-0.1-0.2-0.3-0.4-0.5-0.6c0,0-0.1-0.1-0.1-0.1c-0.2-0.1-0.4-0.3-0.6-0.4c0,0-0.1,0-0.1-0.1
		c-0.3-0.1-0.5-0.2-0.8-0.3c-0.1,0-0.1,0-0.2-0.1c-0.3-0.1-0.6-0.2-0.9-0.2c0,0-0.1,0-0.1,0c-0.4-0.1-0.8-0.1-1.2-0.1
		c0,0-0.1,0-0.1,0c-0.1,0-0.2,0-0.3,0c-0.1,0-0.3,0-0.4,0c-0.2,0-0.4,0-0.6,0c-0.2,0-0.3,0-0.5,0.1c-0.2,0-0.4,0.1-0.6,0.1
		c-0.2,0-0.3,0.1-0.5,0.1c-0.2,0-0.4,0.1-0.7,0.1c-0.2,0-0.4,0.1-0.5,0.1c-0.2,0.1-0.5,0.1-0.7,0.2c-0.2,0.1-0.4,0.1-0.6,0.2
		c-0.3,0.1-0.6,0.2-0.8,0.3c-0.2,0.1-0.4,0.1-0.6,0.2c-0.3,0.1-0.7,0.2-1,0.4c-0.2,0.1-0.3,0.1-0.5,0.2c-0.5,0.2-1,0.4-1.6,0.7
		c-18,8-31.5,17.2-31.5,17.2l-50.9-71c0,0-27.3,21.9-51.1,49.4c-6.6,7.6-13,15.7-18.5,23.9c0,0,49,19,62,84.5
		C112,388,136,324.5,213,291.5z"/>
	<path class="st0" d="M194.5,212.1c0.3,0.6,0.7,1.4,1.2,2.6c0.5,1.1,0.9,2,1.2,2.5c0.1,0.1,0.5,0.1,1.4-0.2c1.6-0.5,3.3-1.1,5-1.9
		c5.5-2.5,7.3-6,5.3-10.4c-1.4-3.1-3.4-4.8-6-5c-2-0.2-4.6,0.5-8,2c-2.4,1.1-3.5,2.1-3.3,2.9C191.6,205.5,192.6,208,194.5,212.1z"/>
	<path class="st0" d="M276.5,204.1c3.9,0,7.3-1.6,10-4.7c2.6-3,3.9-6.5,3.9-10.5c0-4.2-1.3-7.7-3.8-10.6c-2.6-3.1-6-4.6-10.1-4.6
		c-3.9,0-7.2,1.6-10,4.8c-2.6,3.1-4,6.6-4,10.6c0,4.3,1.2,7.8,3.7,10.6C268.9,202.6,272.3,204.1,276.5,204.1z"/>
	<path class="st0" d="M507.6,201.5c4.7,1.2,8.7,0.5,12.2-1.9c3.2-2.3,5.5-5.9,6.7-10.7c1.1-4.6,0.7-8.6-1.3-12.2
		c-2-3.7-5.3-6.1-9.8-7.2c-4.2-1-6.4-1-6.6,0.1c-0.4,1.6-1,4-1.9,7.2c-0.9,3.2-1.5,5.6-1.9,7.2c-0.4,1.6-1,3.9-1.7,7.1
		c-0.7,3.2-1.3,5.5-1.7,7.1C501.3,199.3,503.3,200.4,507.6,201.5z"/>
	<path class="st0" d="M580.3,216.8c0.8,0.4,2.1,1,3.9,1.8c1.7,0.7,2.7,0.9,3.1,0.6c0.1-0.1,0.2-0.3,0.3-0.5c0.4-0.8,0.8-3.4,1.3-7.7
		c0.4-4.2,0.6-6.9,0.5-8.1c-1,0.9-3,2.9-5.9,6.1c-3.1,3.4-4.8,5.4-5.1,6.1C578.2,215.5,578.8,216.1,580.3,216.8z"/>
	<path class="st0" d="M165.3,289.1c0.2,0.2,0.4,0.3,0.5,0.3c0.1,0,0.3,0,0.4-0.1c32.7-27.4,77.9-47,134.2-58.2
		c43.8-8.7,81-9.5,92-9.5l7.6-39.3l7.6,39.3c10.9,0,48.2,0.8,92,9.5c56.4,11.2,101.6,30.8,134.3,58.2c0.1,0.1,0.3,0.1,0.4,0.1
		c0.1,0,0.3,0,0.5-0.3l50-70.2c2.5-3.5,1.8-8.4-1.7-11c-15-11.4-47.4-33.5-95.1-52.8c-59.1-24-122.3-36.1-188-36.1
		s-128.9,12.1-188,36.1c-47.7,19.3-80,41.4-95.1,52.8c-3.5,2.6-4.2,7.5-1.7,11L165.3,289.1z M547.5,226.2c0.3-0.7,6.7-7.6,19.2-20.7
		c13.6-14.2,21-22,22.3-23.5c0.7-0.8,1.3-1.2,1.7-1c0.7,0.3,1.7,0.8,3.1,1.6c1.4,0.8,2.4,1.3,3.2,1.6c0.7,0.3,1.7,0.7,3.1,1.2
		c1.4,0.5,2.4,0.9,3.1,1.2c0.5,0.2,0.7,0.8,0.8,1.8c0.1,3.2-0.2,14-1,32.3c-0.8,18.4-1.3,28-1.6,28.7c-0.2,0.5-0.7,0.6-1.4,0.5
		c-0.9-0.1-3.3-1.1-7.3-2.8c-3.6-1.6-6-2.7-6.9-3.4c-0.8-0.6-1.1-1.4-0.9-2.4c0.7-4,0.9-6.3,0.5-6.8c-0.3-0.4-3.7-1.9-10.1-4.7
		c-4.3-1.9-6.7-2.8-7.1-2.7c-0.6,0.2-1.7,1.4-3.2,3.5c-1.4,1.9-2.5,2.8-3.3,2.7c-1-0.2-3.9-1.3-8.9-3.5
		C549,228.2,547.2,227,547.5,226.2z M482.4,207.4c0.7-3,2-7.4,3.7-13.3c1.7-5.9,2.9-10.3,3.7-13.3c0.8-3.1,1.8-7.8,3.1-14
		c1.3-6.2,2.4-10.9,3.1-14c0.1-0.6,0.6-0.8,1.4-0.7c2,0.3,5.1,0.9,9.5,2c8.3,2.1,13.7,3.5,16.1,4.4c6.2,2.2,10.8,5.1,13.8,8.6
		c2.8,3.3,4.6,7.3,5.5,12.2c0.9,4.6,0.7,9.1-0.4,13.5c-2,7.9-6.3,14.2-12.8,18.7c-5.8,4.1-12.8,5.2-21,3.5
		c-1.6-0.3-5.9-1.4-12.9-3.1c-1.3-0.3-3.3-0.9-5.9-1.6s-4.6-1.3-5.9-1.6C482.5,208.4,482.2,208,482.4,207.4z M417.6,151.4
		c5.5-5.9,12.7-8.8,21.4-8.7c4.2,0.1,8.2,0.9,11.9,2.6c4,1.8,7.1,4.4,9.4,7.7c0.5,0.7,0.7,1.2,0.7,1.4c0,0.9-1.3,2.9-3.8,5.9
		c-2.5,3.1-4.2,4.6-4.9,4.6c-0.2,0-0.8-0.6-1.9-1.7c-1.3-1.4-2.7-2.5-4.1-3.2c-2.1-1.2-4.4-1.8-7-1.8c-4.2-0.1-7.5,1.4-10,4.5
		c-2.3,2.8-3.5,6.4-3.6,10.7c-0.1,4.5,1,8.1,3.4,10.8c2.4,2.8,5.8,4.2,10.3,4.3c2.8,0,6-0.6,9.5-2c-0.1-0.9-0.3-3.3-0.6-7
		c-0.3-2.9-0.5-5.2-0.4-7c0-0.5,0.2-0.8,0.6-1c0.1-0.1,0.4-0.1,0.7-0.1c0.8,0,2,0.1,3.6,0.3c1.6,0.2,2.9,0.3,3.7,0.3
		c0.9,0,2.2,0,4-0.1c1.8-0.1,3.1-0.1,4-0.1c0.7,0,1,0.5,1,1.4c0,1.3-0.1,3.3-0.3,6c-0.2,2.7-0.3,4.7-0.3,6c-0.1,3.6,0.1,9,0.5,16.1
		l0,0.5c0,0.8-0.4,1.1-1.2,1.1c-0.5,0-2-0.3-4.6-1c-2.5-0.7-4-1.1-4.6-1.3c-5.8,2.2-11.4,3.2-16.8,3.1c-8.6-0.1-15.6-3.1-21-8.9
		c-5.4-5.7-8-12.9-7.8-21.5C409.5,164.4,412.2,157.2,417.6,151.4z M328.7,146.9c1.6-0.1,3.6-0.4,5.9-0.8c0.6-0.1,1.6-0.4,3.2-0.8
		c1.4-0.4,2.5-0.6,3.3-0.6c0.3,0,0.9,0.4,1.6,1.3l17.1,20.1c1.5,1.8,3.8,4.5,6.9,7.9c0.8,0.8,1.4,1.2,1.9,1.2c0.4,0,0.5-1.1,0.3-3.3
		c-0.2-2.9-0.7-7.3-1.4-13.1c-0.7-5.8-1.2-10.2-1.4-13.1c-0.1-1,0.2-1.6,0.8-1.6c1.7-0.1,4.2-0.4,7.5-0.8c3.3-0.4,5.8-0.6,7.5-0.8
		c0.5,0,0.8,0.4,0.9,1.2c0.2,3.2,0.4,7.9,0.6,14.3c0.2,6.4,0.4,11.1,0.7,14.3l2,27.4c0.1,0.7-0.3,1.2-1.1,1.2c-0.7,0-1.7,0.1-3,0.3
		c-1.3,0.2-2.3,0.3-3,0.3c-0.7,0.1-1.8,0.1-3.3,0.1c-1.4,0-2.5,0-3.3,0.1c-0.5,0-1.1-0.4-1.9-1.2c-2.2-2.5-7.1-8.2-14.8-16.9
		c-2.1-2.4-5.3-6-9.6-10.8c-0.1-0.2-0.3-0.3-0.7-0.5c-0.2,0.2-0.3,0.5-0.3,0.9c0.2,3.2,0.7,8,1.3,14.5c0.7,6.4,1.1,11.2,1.3,14.5
		c0.1,1-0.3,1.5-1,1.5l-14.4,1.1c-0.8,0.1-1.2-0.3-1.3-1.2c-0.2-3-0.4-7.5-0.6-13.6c-0.2-6.1-0.3-10.6-0.6-13.6
		c-0.2-3.2-0.7-7.9-1.4-14.3c-0.7-6.3-1.2-11.1-1.4-14.2C327.1,147.3,327.6,146.9,328.7,146.9z M255.1,167.2c5.7-6,12.8-9,21.4-9
		c8.5,0,15.7,3,21.4,9c5.6,5.9,8.4,13.2,8.4,21.8c0,8.7-2.8,15.9-8.3,21.8c-5.6,5.9-12.8,8.9-21.4,8.9c-8.6,0-15.7-3-21.4-9
		c-5.6-5.9-8.3-13.1-8.3-21.7C246.8,180.4,249.6,173.1,255.1,167.2z M172.1,199.2c0.8-0.5,4.5-2.5,11.4-5.8c4.6-2.2,8.3-4,11.1-5.3
		c5.8-2.6,11.1-3.5,15.9-2.6c5.5,1,9.5,4.3,12,9.9c1.7,3.7,2.5,6.9,2.5,9.6c-0.1,2.7-1,5.7-2.9,9.1c-0.4,0.7-0.5,1.2-0.4,1.5
		c0,0,3,2.4,9,7.4c6,5,9.2,7.8,9.5,8.4c0.1,0.2-0.1,0.4-0.6,0.7c-0.9,0.6-3.3,1.8-7.1,3.5c-3.3,1.5-5.6,2.5-6.9,2.9
		c-0.6,0.2-0.9,0.3-1,0.2c-0.2,0-0.5-0.2-0.9-0.5c-0.8-0.8-2.1-2-3.7-3.6c-2.1-2.1-5.4-5.1-9.8-9.1c-0.9-0.7-2.1-0.8-3.7-0.3
		c0.2,0-1.1,0.6-4.1,1.9c-0.4,0.2-0.3,0.9,0.3,2.2c0.8,1.7,2.1,4.2,4,7.5c1.9,3.3,3.2,5.8,4,7.5c0.2,0.4,0.2,0.7,0,0.9
		c-0.3,0.2-0.7,0.4-1,0.6c-1.4,0.8-3.7,1.9-6.9,3.4c-3.6,1.7-5.8,2.6-6.6,2.8c-0.8,0.2-1.3,0-1.6-0.7c-1.3-2.8-3.1-7-5.4-12.8
		s-4.1-10-5.4-12.8c-4.9-10.7-9-18.9-12.2-24.7l-0.3-0.5C171.1,200.2,171.4,199.7,172.1,199.2z"/>
	<path class="st0" d="M351.7,651.2c-0.5,0.4-1.7,0.7-3.5,1c-1.5,0.2-2.3,0.5-2.3,0.9c0,0.3,0.2,1.3,0.7,3.2c0.2,1.2,0.4,2.1,0.4,2.8
		c0.1,0.5,0.3,0.7,0.8,0.7c1.4,0,3.5-0.1,6.3-0.2c2.8-0.2,4.9-0.2,6.3-0.2c4.5,0,7.7,0.2,9.3,0.5c1.5,0.3,2.4,0.5,2.6,0.5
		c0.6,0,0.9-0.2,0.9-0.7c0-0.5,0-1.2,0-2.1c0-0.9,0-1.6,0-2.1c0-0.4,0-1.1,0.1-1.9c0.1-0.8,0.1-1.5,0.1-1.9c0-0.7-0.3-1-0.8-1
		c-2.7,0-6.4,0.1-11.1,0.4c6.7-5.9,10-11,10-15.4c0-3.3-1.4-5.9-4.1-7.6c-2.3-1.5-5.2-2.3-8.7-2.3c-2.1,0-4.3,0.3-6.6,0.8
		c-2.5,0.6-4.6,1.5-6.1,2.5c-0.3,0.2-0.5,0.4-0.5,0.7c0,0.3,0.1,0.8,0.3,1.4c0.2,0.7,0.4,1.2,0.4,1.5c0.1,0.5,0.1,1.3,0.1,2.5
		c0,1.5,0.3,2.2,0.9,2.2c0.1,0,0.6-0.3,1.5-0.8c1.1-0.7,2.1-1.2,3-1.6c1.4-0.6,2.9-0.9,4.4-0.9c1.3,0,2.4,0.4,3.4,1.3
		c0.9,0.9,1.4,2,1.4,3.3c0,1.5-1.2,3.7-3.7,6.7C355.4,647.6,353.5,649.6,351.7,651.2z"/>
	<path class="st0" d="M379.9,630.8c-3.1,3.3-4.6,7.4-4.6,12.1c0,4.7,1.5,8.8,4.6,12.1c3.1,3.5,7,5.3,11.7,5.3
		c4.7,0,8.6-1.8,11.8-5.3c3-3.4,4.6-7.4,4.6-12.1c0-4.7-1.5-8.7-4.6-12.1c-3.1-3.5-7-5.2-11.7-5.2
		C387,625.6,383.1,627.3,379.9,630.8z M396.2,638c1.1,1.4,1.6,3,1.6,4.9c0,1.8-0.6,3.5-1.7,4.9c-1.2,1.6-2.7,2.3-4.5,2.3
		c-1.9,0-3.4-0.8-4.5-2.3c-1.1-1.4-1.6-3.1-1.6-5c0-1.9,0.5-3.6,1.6-4.9c1.2-1.5,2.7-2.2,4.5-2.2C393.5,635.8,395,636.5,396.2,638z"
		/>
	<path class="st0" d="M424.5,626.7c0-0.3-0.1-0.5-0.4-0.6c-1.4-0.2-2.5-0.4-3.2-0.5c-1.4-0.3-2.4-0.5-3.1-0.7
		c-0.2,0-0.3-0.1-0.3-0.1c-0.2,0-0.5,0.2-0.8,0.6c-1.5,1.9-3.6,3.4-6.3,4.5c-0.5,0.2-0.7,0.5-0.7,0.8c0,0.6,0,1.6,0,2.8
		c0,1.2,0,2.2,0,2.8c0,0.7,0.3,1,0.8,1c0.4,0,0.9-0.1,1.7-0.3c0.7-0.2,1.3-0.3,1.7-0.3c0.2,0,0.4,0.3,0.4,0.8v8.1
		c0,1.5-0.1,5.7-0.4,12.7l0,0.3c0,0.6,0.3,0.9,1,0.9c0.9,0,2.2,0,3.9,0c1.8,0,3.1,0,3.9,0c0.4,0,0.7-0.1,1-0.4
		c0.3-0.3,0.5-0.6,0.5-1c0-2.1,0-5.3,0-9.5c0-4.2,0-7.4,0-9.5c0-6.3,0.1-10.2,0.3-11.8C424.5,627,424.5,626.8,424.5,626.7z"/>
	<path class="st0" d="M437.4,652.2c-2.8,0-5.3-0.5-7.5-1.6c-0.2-0.1-0.4-0.2-0.5-0.2c-0.3,0-0.6,0.8-0.8,2.5
		c-0.2,1.3-0.3,2.3-0.3,3.1c0,1.4,0,2.2,0.1,2.4c0.2,0.6,1.8,1.1,5,1.5c2.4,0.3,4.4,0.5,5.9,0.5c10.1,0,15.1-4.1,15.1-12.2
		c0-3.4-1.2-6-3.6-7.9c-2.2-1.8-5.1-2.7-8.5-2.7c-0.5,0-1.2,0-2.2,0.1c-1,0.1-1.7,0.1-2.2,0.1c-0.1-0.1-0.1-0.3-0.1-0.5
		c0-1.5,0.2-2.5,0.5-3.1c0.1-0.2,1.2-0.3,3.2-0.3c1,0,3.6,0.2,7.7,0.5l0.3,0c0.4,0,0.7-1.2,1-3.5c0.2-1.8,0.3-3.2,0.3-4.3
		c0-0.4-0.2-0.6-0.7-0.6c-1.8,0-5.4-0.1-10.7-0.1c-4.7,0-7.2,0-7.6,0.1c-0.3,0.1-0.6,0.3-0.9,0.7c-0.3,0.4-0.4,0.7-0.4,1.1
		c0,1.8-0.1,4.4-0.2,8c-0.2,3.6-0.2,6.3-0.2,8c0,0.6,0.3,0.9,1,0.9c0.7,0,1.7-0.1,3-0.2c1.3-0.2,2.4-0.2,3-0.2c1.6,0,3,0.3,4.1,0.9
		c1.5,0.7,2.2,1.8,2.2,3.3C443.4,650.9,441.4,652.2,437.4,652.2z"/>
	<path class="st0" d="M445.2,533.9c-1-0.1-1.4,1.2-0.5,1.7c13.2,6.6,50.6,21.8,67.3-10.1c16.2-30.9-10.2-54.2-21.9-62.6
		c-0.8-0.6-1.9,0.5-1.2,1.3c6.7,8.8,18.8,29,9.1,50.3C487.7,537,457.5,535.5,445.2,533.9z"/>
	<path class="st0" d="M513.9,467.4c-0.9-1-2.5,0-2,1.2c26.2,61.8-1.2,75.6-23.9,83.9c-23.5,8.5-80,2-117-39
		c-30.1-33.3-21.8-90.1-17.7-110.2c0.3-1.4-1.6-2.1-2.3-0.9c-26.6,45.7-19.6,107.3,14.5,142.6c41.5,43,129,43.5,159.5,3
		C549.2,515.9,525,480.7,513.9,467.4z"/>
	<path class="st0" d="M531.7,557.7C478.3,609,421,603,357,560.3s-42.7-154.7-42.7-154.7C293,429.7,287,459,287,476.3
		c-0.1,28.7,9.3,82,81.3,116.7C483,648.3,531.7,557.7,531.7,557.7z"/>
	<path class="st0" d="M312.3,384.3c0,0-54.7,28.7-55.3,108c2.7,92.3,80.7,112.7,80.7,112.7C208.3,497.7,312.3,384.3,312.3,384.3z"/>
	<path class="st0" d="M547.7,286c2.7-5.3-4.7-12.7-10.3-16.7c-3.3-2.2-53.3,3.2-64.3,8.2c0,0-3.5-15.5-26-7.5c0,0-12-9-17.5-13
		s-17-2-31.5,1.5s-32,8.5-50.5,9s-23.5,0-30,0s-24.5,11.5-5.5,17s45.5,0,56-1.5s33.8-1.5,40.8,1.2c0,0-212.8,29.2-167.8,229.5
		c0,0-10-178,156.7-190c0,0,2.8,8.3,6.6,10.1s10.8,1.2,18.2-2.8s32-13,44.5-9c6,2.2,3.2,7-1.8,8.8s-53,15.8-53,15.8
		s55.4-0.2,92.8-14.2c0,0,1.5,4.7-4.8,11.4c0,0,7.2,0.8,28.2-14.8c6.9-6,2-18-6-16.5s-20.2,6-28.2,0.2c0,0,7.1-0.4,11.1-1.1
		c4-0.7,8.3-3,17.3-2.3c0,0-1.3-4-7.3-4.3c-6-0.3-7.7,2-12.3,2.7c-4.7,0.7-10.3,0.3-14-1.3s-8.3-4.7-14-4.3c0,0,2.3-2.3,7.7-2.7
		c5.3-0.3,8.7,3,13,3.3c4.3,0.3,20.3,0,28-4v6C523.7,304.7,537.7,304,547.7,286z"/>
	<path class="st0" d="M430.9,409.8l21.5,8.5l4.8-3c-7.7-6.1-17-10.4-27.2-12L430.9,409.8z"/>
	<polygon class="st0" points="391.7,419.8 375.2,436.5 381.5,456.5 396.2,456.5 414,435.8 412,422.3 	"/>
	<polygon class="st0" points="380.3,459.8 371.5,476.5 382.8,497 402.5,497.3 410.2,481.7 396.5,459.8 	"/>
	<path class="st0" d="M478.7,452.4L474,455v21.8l2.6,2c1.8-5.6,2.8-11.6,2.8-17.8C479.3,458.1,479.1,455.2,478.7,452.4z"/>
	<polygon class="st0" points="416,435.5 442.5,446 454.5,439.5 452,420 430.5,411.5 414.5,421.5 	"/>
	<polygon class="st0" points="443.2,447.8 441,476 453.8,486.3 471.7,476.3 471.7,454.5 455.3,441.7 	"/>
	<path class="st0" d="M364.8,477.8c2.7,9.1,7.6,17.2,14,23.9l1.7-3.3l-11.3-20.5L364.8,477.8z"/>
	<polygon class="st0" points="405,498 420.3,511.8 443.8,507.3 451.8,489 439.2,478.3 413.2,483 	"/>
	<path class="st0" d="M444.2,509.8l-23.5,4.5l-2.3,5.2c0.8,0,1.6,0.1,2.4,0.1c9.7,0,18.8-2.4,26.9-6.5L444.2,509.8z"/>
	<path class="st0" d="M369.2,433.5l5.2,0.6l16.5-16.7l-1.8-5.6C380.7,417.3,373.9,424.7,369.2,433.5z"/>
	<path class="st0" d="M194,115c3-19,11-20.7,20.3-24c9.3-3.3,37.3-13.3,44.7-16c7.3-2.7,12.7-4,26,0s18,4.7,28,2c10-2.7,48-11,87-11
		s77,8.3,87,11c10,2.7,14.7,2,28-2s18.7-2.7,26,0c7.3,2.7,35.3,12.7,44.7,16c9.3,3.3,17.3,5,20.3,24c1.2,7.9,4.4,27.2,7.6,47
		c3.1,1.5,6.1,2.9,9,4.4c-3.5-26.6-7.3-55.8-8.3-64c-2-16-10.7-20.7-25.3-25.3c-11.8-3.8-38.9-13.6-48.9-17.3
		c-2.5-0.9-5.2-1.1-7.8-0.5l-30.2,6.6c-1.6,0.4-3.3,0.3-4.9-0.1C486.3,62.5,439.4,50,400,50s-86.3,12.5-97.3,15.6
		c-1.6,0.4-3.3,0.5-4.9,0.1l-30.2-6.6c-2.6-0.6-5.3-0.4-7.8,0.5c-10,3.7-37,13.5-48.9,17.3c-14.7,4.7-23.3,9.3-25.3,25.3
		c-1,8.2-4.8,37.4-8.3,64c2.9-1.5,5.9-2.9,9-4.4C189.6,142.2,192.8,122.9,194,115z"/>
	<path class="st0" d="M400,733c0,0-207.2-99-268.6-373c-2.6,3.5-5,6.9-7,10C184.6,646.2,400,750,400,750s215.4-103.8,275.6-379.9
		c-2-3.1-4.4-6.5-7-10C607.2,634,400,733,400,733z"/>
</g>
</svg>
