<?xml version="1.0" encoding="utf-8"?>
<!-- Generator: Adobe Illustrator 23.0.3, SVG Export Plug-In . SVG Version: 6.00 Build 0)  -->
<svg version="1.1" id="图层_1" xmlns="http://www.w3.org/2000/svg" xmlns:xlink="http://www.w3.org/1999/xlink" x="0px" y="0px"
	 viewBox="0 0 800 800" style="enable-background:new 0 0 800 800;" xml:space="preserve">
<style type="text/css">
	.st0{fill:#212579;}
</style>
<path class="st0" d="M400,58.91c111.77,0,194.32,8.09,239.6,23.44v317.81c0,79.44-3.71,90.14-11.85,113.59
	c-1.2,3.47-2.57,7.4-4.01,11.8c-8.97,27.38-32.3,68.44-92.49,108.57c-49.99,33.33-101.55,67.7-131.25,101.79
	c-29.69-34.09-81.26-68.46-131.25-101.79c-60.2-40.13-83.53-81.19-92.49-108.57c-1.44-4.4-2.81-8.33-4.01-11.8
	c-8.14-23.45-11.85-34.15-11.85-113.59V82.35C205.68,67,288.23,58.91,400,58.91 M400,50c-69.21,0-187.76,2.96-248.51,26.08
	c0,0,0,193.55,0,324.08c0,92.6,5.04,93.78,16.3,128.16c11.26,34.38,39.12,75.28,96.02,113.21C320.71,679.47,373.49,715.03,400,750
	c26.51-34.97,79.29-70.53,136.19-108.47c56.9-37.93,84.76-78.83,96.02-113.21c11.26-34.38,16.3-35.56,16.3-128.16
	c0-130.53,0-324.08,0-324.08C587.76,52.96,469.21,50,400,50L400,50z M522.25,575.15c-21.34,13.93-48.6,29.04-76.46,50.08
	C417.93,646.27,400,666.87,400,666.87s-17.93-20.6-45.79-41.64c-27.86-21.04-55.12-36.16-76.46-50.08
	c-16.63-10.86-50-31.25-79.91-63.71c0.68,1.99,1.39,4.1,2.12,6.35c7.74,23.63,28.36,59.4,82.62,95.57
	c42.24,28.16,85.56,57.05,117.41,86.83c31.84-29.78,75.16-58.67,117.41-86.83c54.26-36.17,74.88-71.94,82.62-95.57
	c0.73-2.25,1.45-4.36,2.12-6.35C572.25,543.89,538.88,564.29,522.25,575.15z M520.75,326.8c56.3,13.4,85.33,36.49,93.87,44.27
	c0-0.13,0-0.28,0-0.41c0-17.19,0-55.72,0-55.72l0.01,0.2v-1.66c-17.82-8.08-46.18-19.28-46.18-19.28
	C553.06,319.98,520.75,326.8,520.75,326.8z M400.45,231.96v-63.43c-0.15,0-0.3,0-0.45,0c-14.3,0-28.13,0.13-41.47,0.4v74.52
	C372.35,238.7,387.59,234.05,400.45,231.96z M460.2,238.48c13.04,4.94,28.45,7.51,36.16,7.11c7.71-0.4,15.41,1.78,52.75-12.84
	c37.34-14.62,59.47-38.72,59.47-38.72s-0.4,22.23-2.47,42.38S590.4,277.9,590.4,277.9l24.25,9.57v-101.7
	c-19.14-4.73-47.71-9.63-89.89-12.98c-20.71-1.64-43.52-2.8-68.17-3.5v67.9C457.86,237.62,459.06,238.06,460.2,238.48z
	 M500.9,487.62c-21.14-8.1-44.31-7.11-44.31-7.11v97.64c11.28-7.56,24.68-16.17,40.76-26.12c22.34-13.82,39.56-26.37,53.14-38.18
	C532.32,502.14,522.04,495.72,500.9,487.62z M389.07,525.36l-16.6,16c-7.31,0.79-13.95,2.57-13.95,2.57v44.62
	c20.87,14.78,32.58,25.12,41.47,34.46c0.15-0.15,0.3-0.31,0.45-0.47v-98.98C396.47,524.57,389.07,525.36,389.07,525.36z
	 M185.36,315.14l0.01-0.2c0,0,0,38.53,0,55.72c0,17.16,4.64,57.64,19.4,86.96V181.6c-7.35,1.37-13.79,2.78-19.41,4.17V315.14z
	 M291.86,495.63c-2.77-6.52-6.42-13.73-4.45-24.4c1.98-10.67,12.84-21.24,12.84-21.24s-0.3-0.79,1.19-4.15
	c0.54-1.23,0.81-2.67,0.94-4.02v-4.33c-5.44-1.63-14.12-6.52-25.09-11.56c-10.97-5.04-16.38-11.26-16.38-11.26v108.59
	c11.45,8.99,25.08,18.46,41.47,28.61V517.2C298.1,511.25,294.18,501.09,291.86,495.63z M583.88,233.55c0,0-5.53,11.85-28.85,21.73
	c-23.31,9.88-44.26,13.04-58.09,13.04c-13.83,0-28.85-2.77-45.84-7.9c-16.99-5.14-25.29-5.53-35.96-5.53s-28.45,1.58-49.79,9.88
	c-21.34,8.3-31.61,14.23-40.3,18.18c-8.69,3.95-16.6,6.72-38.72,9.48c-22.13,2.77-27.66,5.53-33.98,8.69
	c-3.51,3.31-14.18,15.46-16.1,17.53c-1.93,2.07-8.3,8.89-5.78,14.08c2.52,5.19,10.82,18.52,10.82,18.52s5.63-21.49,6.82-25.64
	c1.19-4.15,5.63-8,9.48-7.85c3.85,0.15,6.22,2.67,8.3,5.48c2.07,2.82,5.63,6.96,12,6.37c6.37-0.59,8.15-2.07,21.19-8
	c13.04-5.93,17.19-7.41,25.04-10.22s12.89-4.45,19.71-6.67c6.82-2.22,20.75-8.94,25.64-12.32s14.52-10.35,17.49-11.68
	s9.04-3.11,15.41,0c6.37,3.11,12.15,7.85,26.23,10.37c0,0-34.23,4.74-57.64,11.26s-54.83,17.34-70.83,26.67
	s-20.45,11.11-28.45,11.41c-8,0.3-18.23,0.89-24.01,9.93c-5.78,9.04,4.15,17.04,7.85,22.23c3.7,5.19,34.97,45.79,69.94,46.97
	c0,0-11.71-6.82-14.37-28.01c0,0,21.19-4.15,33.34-8c12.15-3.85,21.34-5.19,30.23,1.93c8.89,7.11,13.63,20.35,10.47,31.22
	c-3.16,10.87-12.84,17.39-19.36,22.13c-6.52,4.74-19.95,14.23-22.92,17.39c0,0-14.03-0.2-8.5-21.93c0,0-10.87,8.69-12.64,27.46
	c0,0-11.66,8.02-10.67,18.73c0.2,2.8,6.72,15.65,8.5,20.19c1.78,4.54,2.77,6.52,7.51,8.69c4.74,2.17,31.5,14.2,31.5,14.2
	s-10.75-15.59-11.94-27.64c0,0,10.27,7.51,15.21,8.1c4.94,0.59,34.18-2.57,34.18-2.57s-6.12-11.85,5.73-23.51
	c11.85-11.66,29.83-21.93,59.67-20.55c29.83,1.38,65.4,10.67,104.32,38.92c0,0-35.56-61.25-131.39-59.67c0,0,20.35-16.79,72.21-3.16
	c51.86,13.63,90.69,49.78,90.69,49.78s-14.13-34.37-65.3-53.34c-51.17-18.97-78.24-14.23-78.24-14.23s35.96-13.43,60.46-57.89
	c0,0-48.6,49-79.23,50.38c0,0,26.67-16,39.71-46.03c0,0-18.97,24.3-44.65,30.43c0,0-9.48,41.29-25.09,54.33
	c0,0,14.23-27.86,16-56.51c0-2.37-3.95-7.13-8.3-11.87c-4.35-4.73-13.7-18.56-13.14-29.03c0.56-10.47,14.23-21.73,24.2-24.5
	s38.92-3.26,57.79-3.66c0,0-16.89-3.56-61.64-8.89c0,0,70.24-4.84,96.71-1.68C516.5,310.8,569.65,294,583.88,233.55z M260.91,251.82
	v25.75c14.17-5.36,37.22-13.72,41.47-15.18v-10.57H260.91z M302.38,181.6v-10.62c-9.4,0.52-18.46,1.12-27.14,1.81
	c-4.97,0.39-9.73,0.81-14.33,1.24v7.56H302.38z M251.66,188.4h-15.51c-3.69,0-5.72,2.08-5.72,5.86v12.21v0.88h0.89h7.74h0.89v-0.88
	v-9.34h7.85v9.04l-17.8,32.52l-0.11,0.2v0.22v5.09v0.88h0.89h25.65h0.89v-0.88v-7.2v-0.88h-0.89h-14.69l13.82-25.06
	c1.22-2.23,1.83-4.31,1.83-6.18v-10.63C257.39,190.48,255.35,188.4,251.66,188.4L251.66,188.4z M283.07,188.19h-16.39
	c-3.67,0-5.69,2.12-5.69,5.98v45.18c0,3.83,1.98,5.94,5.59,5.94h16.49c3.65,0,5.66-2.11,5.66-5.94v-45.18
	C288.72,190.32,286.71,188.19,283.07,188.19z M279.2,236.42h-8.66v-39.35h8.66V236.42z M305.17,188.09h-0.89h-6.72h-0.68l-0.18,0.66
	l-4.09,15.26l-0.03,0.11v0.12v1.1v0.89h0.89h2.15v38.28v0.89h0.89h7.77h0.89v-0.89v-55.53V188.09L305.17,188.09z M330.81,188.19
	h-16.12c-3.67,0-5.69,2.12-5.69,5.98v12.09v0.88h0.89h7.77h0.89v-0.88v-9.19h8.39v10.33l-9.32,6.59l-0.37,0.26v0.46v1.73v0.45
	l0.37,0.26l9.33,6.7v12.56h-8.39v-9.83v-0.88h-0.89h-7.77H309v0.88v12.76c0,3.83,1.98,5.94,5.59,5.94h16.22
	c3.65,0,5.66-2.11,5.66-5.94v-15.52c0-2.52-1-4.45-2.97-5.73l-3.86-2.52l3.8-2.58c2.01-1.37,3.02-3.33,3.02-5.82v-13.01
	C336.47,190.32,334.46,188.19,330.81,188.19L330.81,188.19z M457.35,101.7c-1.88-0.04-2.15,1.71-2.28,8.19
	c-0.13,6.49,0.07,8.24,1.95,8.28c1.88,0.04,2.15-1.71,2.28-8.19C459.43,103.49,459.23,101.74,457.35,101.7z M381.83,101.46h-1.21
	v5.65h1.24c1.78,0,2.62-1.14,2.62-2.86C384.48,102.27,383.71,101.46,381.83,101.46z M301.63,104.68l-1.07,10.28l3.49-0.22
	l-2.36-10.06L301.63,104.68z M524.76,88.13c-35.77-2.83-77.75-4.26-124.76-4.26s-88.99,1.43-124.76,4.26
	c-42.18,3.34-70.74,8.24-89.89,12.98v49.02c19.14-4.73,47.71-9.63,89.89-12.98c35.77-2.83,77.75-4.26,124.76-4.26
	s88.99,1.43,124.76,4.26c42.18,3.34,70.74,8.24,89.89,12.98V101.1C595.5,96.37,566.94,91.47,524.76,88.13z M218.42,130.95l-8.3-4.89
	l-7.22,6.38l2.09-9.4l-8.3-4.89l9.59-0.92l2.09-9.4l3.84,8.83l9.59-0.92l-7.22,6.38L218.42,130.95z M252.44,127.5l-6.84,0.58
	l-3.45-15.91l-0.07,0.01l-0.7,16.26l-6.84,0.58l-6.13-23.58l6.03-0.51l3.29,16.39l0.07-0.01l0.83-16.74l5.63-0.48l3.86,16.34
	l0.07-0.01l0.26-16.7l6.03-0.51L252.44,127.5z M265.42,126.78c-5.24,0.34-8.25-1.49-8.68-8.2l-1.01-15.71l6.24-0.4l1.11,17.28
	c0.15,2.32,0.89,2.87,2.07,2.8c1.17-0.08,1.84-0.72,1.69-3.04l-1.11-17.28l6.24-0.4l1.01,15.71
	C273.41,124.25,270.65,126.44,265.42,126.78z M286,124.85l-0.47-9.88l-3.83,0.18l0.47,9.88l-6.25,0.3l-1.15-23.98l6.25-0.3l0.42,8.8
	l3.83-0.18l-0.42-8.8l6.25-0.3l1.15,23.98L286,124.85z M306,123.54l-0.9-4.15l-4.97,0.32l-0.37,4.24l-6.65,0.42l4.32-24.33l7.85-0.5
	l7.36,23.59L306,123.54z M323.23,122.74L318.75,108l-0.07,0l0.31,14.83l-5.85,0.12l-0.5-24.01l6.99-0.14l4.34,14.71l0.07,0
	l-0.31-14.79l5.85-0.12l0.5,24.01L323.23,122.74z M349.65,121.76l-6.25,0.12l-0.35-18.7l-4.71,0.09l-0.1-5.31l15.67-0.29l0.1,5.31
	l-4.71,0.09L349.65,121.76z M365.5,121.37l-0.17-9.89l-3.83,0.07l0.17,9.89l-6.25,0.11l-0.42-24.01l6.25-0.11l0.15,8.81l3.83-0.07
	l-0.15-8.81l6.25-0.11l0.42,24.01L365.5,121.37z M391.58,120.96h-6.66c-0.61-1.24-0.61-3.6-0.61-4.57v-1.61
	c0-2.72-0.54-3.43-2.05-3.43h-1.65v9.62h-6.26V96.95h9.79c4.78,0,6.59,2.69,6.59,6.39c0,3.23-1.24,5.28-4.1,5.72v0.07
	c2.99,0.27,3.93,2.19,3.93,5.38v2.05c0,1.24,0,2.82,0.3,3.33c0.17,0.27,0.3,0.5,0.71,0.74V120.96z M407.75,120.96h-14.53V96.95
	h14.23v5.11h-7.97v4.1h7.47v4.91h-7.47v4.78h8.27V120.96z M424.57,121.2h-14.53V97.19h14.23v5.11h-7.97v4.1h7.47v4.91h-7.47v4.78
	h8.27V121.2z M448.23,102.64l-4.71-0.06l-0.25,18.7l-6.25-0.09l0.25-18.7l-4.71-0.06l0.07-5.31l15.67,0.21L448.23,102.64z
	 M465.76,110.11c-0.18,8.98-2.44,12.43-8.83,12.3c-6.39-0.13-8.5-3.67-8.32-12.65c0.18-8.98,2.44-12.43,8.83-12.3
	C463.83,97.59,465.94,101.13,465.76,110.11z M480.91,122.75l-1.32-16.22l-0.07,0l-2.85,16.03l-6.85-0.32l-2.96-24.18l6.05,0.29
	l1.09,16.68l0.07,0l3.04-16.49l5.64,0.27l1.66,16.71l0.07,0l2.47-16.51l6.05,0.29l-5.24,23.79L480.91,122.75z M509.91,124.45
	l-6.85-0.41l-3.28-15.05l-0.07,0l-0.88,14.8l-5.84-0.35l1.43-23.97l6.98,0.42l3.15,15.01l0.07,0l0.88-14.77l5.84,0.35L509.91,124.45
	z M528.66,108.6l-5.84-0.43l0.04-0.57c0.11-1.44-0.38-2.62-1.58-2.71c-1.34-0.1-2.02,0.9-2.1,1.97c-0.35,4.73,10.02,3.17,9.37,11.93
	c-0.38,5.1-3.53,7.16-9.03,6.75c-5.16-0.38-7.92-2.38-7.55-7.34l0.06-0.84l6.04,0.45l-0.04,0.57c-0.15,2.05,0.63,2.85,1.84,2.94
	c1.31,0.1,2.09-0.86,2.18-2.16c0.35-4.73-9.62-3.11-8.99-11.59c0.36-4.86,3.14-7.29,8.41-6.9
	C526.93,101.05,529.04,103.47,528.66,108.6z M554.47,108.86l-7.95-0.58l-0.3,4.09l7.45,0.54l-0.35,4.9l-7.45-0.54l-0.71,9.86
	l-6.24-0.45l1.73-23.95l14.19,1.03L554.47,108.86z M571.77,113.02l-0.14,1.51l-6.03-0.55l0.12-1.34c0.25-2.71-0.18-3.56-1.39-3.67
	c-1.88-0.17-2.27,1.55-2.85,8.01s-0.51,8.23,1.36,8.4c1.51,0.14,2-1.17,2.41-5.69l6.03,0.55l-0.16,1.78
	c-0.61,6.7-4.64,7.95-8.66,7.59c-7-0.63-8.22-4.26-7.41-13.2c0.83-9.14,3.2-12.24,9.67-11.65
	C570.35,105.26,572.19,108.4,571.77,113.02z M597.08,131.83l-6.72-6.9l-8.64,4.26l4.49-8.52l-6.72-6.9l9.49,1.63l4.49-8.52
	l1.38,9.53l9.49,1.63l-8.64,4.26L597.08,131.83z"/>
</svg>
