<?xml version="1.0" encoding="utf-8"?>
<!-- Generator: Adobe Illustrator 23.0.3, SVG Export Plug-In . SVG Version: 6.00 Build 0)  -->
<svg version="1.1" id="图层_1" xmlns="http://www.w3.org/2000/svg" xmlns:xlink="http://www.w3.org/1999/xlink" x="0px" y="0px"
	 viewBox="0 0 800 800" style="enable-background:new 0 0 800 800;" xml:space="preserve">
<style type="text/css">
	.st0{fill:#212579;}
</style>
<path class="st0" d="M400,59c5.9,0.1,176.3,3.3,239.6,23.5c0.4,34.4,1.9,201.8-0.1,317.5c-1.4,79.6-6.5,95.7-14.1,120
	c-0.6,1.8-1.2,3.7-1.8,5.7c-8.9,28.5-37.8,72-92.4,108.4c-50,33.3-101.5,67.7-131.2,101.7c-29.7-34.1-81.2-68.4-131.2-101.7
	c-54.6-36.4-83.6-79.9-92.4-108.4c-0.6-1.9-1.2-3.8-1.8-5.7c-7.7-24.3-12.7-40.4-14.1-120c-2-115.7-0.4-283.1-0.1-317.5
	C223.7,62.3,394.1,59.1,400,59 M400,50c0,0-187.8,3-248.5,26.1c0,0-2.3,193.6,0,324.1C153,487,159,500,167.8,528.3
	c9.2,29.7,39.1,75.3,96,113.2C320.7,679.5,373.5,715,400,750c26.5-35,79.3-70.5,136.2-108.5c56.9-37.9,86.8-83.5,96-113.2
	C641,500,647,487,648.5,400.2c2.3-130.5,0-324.1,0-324.1C587.8,53,400,50,400,50L400,50z M522.2,575.1c-21.3,13.9-48.6,29-76.5,50.1
	c-27.9,21-45.8,41.6-45.8,41.6s-17.9-20.6-45.8-41.6c-27.9-21-55.1-36.2-76.5-50.1c-16.6-10.9-50-31.3-79.9-63.7
	c0.7,2,1.4,4.1,2.1,6.3c7.7,23.6,28.4,59.4,82.6,95.6c42.2,28.2,85.6,57,117.4,86.8c31.8-29.8,75.2-58.7,117.4-86.8
	c54.3-36.2,74.9-71.9,82.6-95.6c0.7-2.2,1.4-4.4,2.1-6.3C572.2,543.9,538.9,564.3,522.2,575.1z M520.8,326.8
	c56.3,13.4,85.3,36.5,93.9,44.3c0-0.1,0-0.3,0-0.4c0-17.2,0-55.7,0-55.7l0,0.2v-1.7c-17.8-8.1-46.2-19.3-46.2-19.3
	C553.1,320,520.8,326.8,520.8,326.8z M400.4,232v-63.4c-0.1,0-0.3,0-0.4,0c-14.3,0-28.1,0.1-41.5,0.4v74.5
	C372.4,238.7,387.6,234,400.4,232z M460.2,238.5c13,4.9,28.5,7.5,36.2,7.1c7.7-0.4,15.4,1.8,52.8-12.8
	c37.3-14.6,59.5-38.7,59.5-38.7s-0.4,22.2-2.5,42.4s-15.7,41.5-15.7,41.5l24.2,9.6V185.8c-19.1-4.7-47.7-9.6-89.9-13
	c-20.7-1.6-43.5-2.8-68.2-3.5v67.9C457.9,237.6,459.1,238.1,460.2,238.5z M500.9,487.6c-21.1-8.1-44.3-7.1-44.3-7.1v97.6
	c11.3-7.6,24.7-16.2,40.8-26.1c22.3-13.8,39.6-26.4,53.1-38.2C532.3,502.1,522,495.7,500.9,487.6z M389.1,525.4l-16.6,16
	c-7.3,0.8-13.9,2.6-13.9,2.6v44.6c20.9,14.8,32.6,25.1,41.5,34.5c0.1-0.2,0.3-0.3,0.4-0.5v-99C396.5,524.6,389.1,525.4,389.1,525.4z
	 M185.4,315.1l0-0.2c0,0,0,38.5,0,55.7c0,17.2,4.6,57.6,19.4,87v-276c-7.4,1.4-13.8,2.8-19.4,4.2V315.1z M291.9,495.6
	c-2.8-6.5-6.4-13.7-4.4-24.4c2-10.7,12.8-21.2,12.8-21.2s-0.3-0.8,1.2-4.1c0.5-1.2,0.8-2.7,0.9-4v-4.3c-5.4-1.6-14.1-6.5-25.1-11.6
	c-11-5-16.4-11.3-16.4-11.3v108.6c11.5,9,25.1,18.5,41.5,28.6v-34.7C298.1,511.2,294.2,501.1,291.9,495.6z M583.9,233.5
	c0,0-5.5,11.9-28.8,21.7c-23.3,9.9-44.3,13-58.1,13c-13.8,0-28.8-2.8-45.8-7.9c-17-5.1-25.3-5.5-36-5.5s-28.5,1.6-49.8,9.9
	c-21.3,8.3-31.6,14.2-40.3,18.2c-8.7,4-16.6,6.7-38.7,9.5c-22.1,2.8-27.7,5.5-34,8.7c-3.5,3.3-14.2,15.5-16.1,17.5
	c-1.9,2.1-8.3,8.9-5.8,14.1c2.5,5.2,10.8,18.5,10.8,18.5s5.6-21.5,6.8-25.6c1.2-4.1,5.6-8,9.5-7.9c3.9,0.1,6.2,2.7,8.3,5.5
	c2.1,2.8,5.6,7,12,6.4c6.4-0.6,8.1-2.1,21.2-8c13-5.9,17.2-7.4,25-10.2s12.9-4.4,19.7-6.7c6.8-2.2,20.7-8.9,25.6-12.3
	s14.5-10.3,17.5-11.7s9-3.1,15.4,0c6.4,3.1,12.2,7.9,26.2,10.4c0,0-34.2,4.7-57.6,11.3s-54.8,17.3-70.8,26.7s-20.4,11.1-28.5,11.4
	c-8,0.3-18.2,0.9-24,9.9c-5.8,9,4.1,17,7.9,22.2c3.7,5.2,35,45.8,69.9,47c0,0-11.7-6.8-14.4-28c0,0,21.2-4.1,33.3-8
	c12.2-3.9,21.3-5.2,30.2,1.9c8.9,7.1,13.6,20.3,10.5,31.2c-3.2,10.9-12.8,17.4-19.4,22.1c-6.5,4.7-20,14.2-22.9,17.4
	c0,0-14-0.2-8.5-21.9c0,0-10.9,8.7-12.6,27.5c0,0-11.7,8-10.7,18.7c0.2,2.8,6.7,15.6,8.5,20.2c1.8,4.5,2.8,6.5,7.5,8.7
	c4.7,2.2,31.5,14.2,31.5,14.2s-10.8-15.6-11.9-27.6c0,0,10.3,7.5,15.2,8.1c4.9,0.6,34.2-2.6,34.2-2.6s-6.1-11.9,5.7-23.5
	c11.9-11.7,29.8-21.9,59.7-20.5c29.8,1.4,65.4,10.7,104.3,38.9c0,0-35.6-61.2-131.4-59.7c0,0,20.3-16.8,72.2-3.2
	c51.9,13.6,90.7,49.8,90.7,49.8s-14.1-34.4-65.3-53.3c-51.2-19-78.2-14.2-78.2-14.2s36-13.4,60.5-57.9c0,0-48.6,49-79.2,50.4
	c0,0,26.7-16,39.7-46c0,0-19,24.3-44.7,30.4c0,0-9.5,41.3-25.1,54.3c0,0,14.2-27.9,16-56.5c0-2.4-4-7.1-8.3-11.9
	c-4.3-4.7-13.7-18.6-13.1-29c0.6-10.5,14.2-21.7,24.2-24.5s38.9-3.3,57.8-3.7c0,0-16.9-3.6-61.6-8.9c0,0,70.2-4.8,96.7-1.7
	C516.5,310.8,569.7,294,583.9,233.5z M260.9,251.8v25.7c14.2-5.4,37.2-13.7,41.5-15.2v-10.6H260.9z M302.4,181.6V171
	c-9.4,0.5-18.5,1.1-27.1,1.8c-5,0.4-9.7,0.8-14.3,1.2v7.6H302.4z M251.7,188.4h-15.5c-3.7,0-5.7,2.1-5.7,5.9v12.2v0.9h0.9h7.7h0.9
	v-0.9v-9.3h7.8v9L230,238.7l-0.1,0.2v0.2v5.1v0.9h0.9h25.6h0.9v-0.9V237v-0.9h-0.9h-14.7l13.8-25.1c1.2-2.2,1.8-4.3,1.8-6.2v-10.6
	C257.4,190.5,255.4,188.4,251.7,188.4L251.7,188.4z M283.1,188.2h-16.4c-3.7,0-5.7,2.1-5.7,6v45.2c0,3.8,2,5.9,5.6,5.9h16.5
	c3.6,0,5.7-2.1,5.7-5.9v-45.2C288.7,190.3,286.7,188.2,283.1,188.2z M279.2,236.4h-8.7v-39.3h8.7V236.4z M305.2,188.1h-0.9h-6.7
	h-0.7l-0.2,0.7l-4.1,15.3l0,0.1v0.1v1.1v0.9h0.9h2.2v38.3v0.9h0.9h7.8h0.9v-0.9V189V188.1L305.2,188.1z M330.8,188.2h-16.1
	c-3.7,0-5.7,2.1-5.7,6v12.1v0.9h0.9h7.8h0.9v-0.9v-9.2h8.4v10.3l-9.3,6.6l-0.4,0.3v0.5v1.7v0.5l0.4,0.3l9.3,6.7v12.6h-8.4v-9.8v-0.9
	h-0.9h-7.8H309v0.9v12.8c0,3.8,2,5.9,5.6,5.9h16.2c3.6,0,5.7-2.1,5.7-5.9v-15.5c0-2.5-1-4.4-3-5.7l-3.9-2.5l3.8-2.6
	c2-1.4,3-3.3,3-5.8v-13C336.5,190.3,334.5,188.2,330.8,188.2L330.8,188.2z M457.4,101.7c-1.9,0-2.2,1.7-2.3,8.2
	c-0.1,6.5,0.1,8.2,2,8.3c1.9,0,2.2-1.7,2.3-8.2C459.4,103.5,459.2,101.7,457.4,101.7z M381.8,101.5h-1.2v5.6h1.2
	c1.8,0,2.6-1.1,2.6-2.9C384.5,102.3,383.7,101.5,381.8,101.5z M301.6,104.7l-1.1,10.3l3.5-0.2L301.6,104.7L301.6,104.7z M524.8,88.1
	C489,85.3,447,83.9,400,83.9s-89,1.4-124.8,4.3c-42.2,3.3-70.7,8.2-89.9,13v49c19.1-4.7,47.7-9.6,89.9-13
	c35.8-2.8,77.7-4.3,124.8-4.3s89,1.4,124.8,4.3c42.2,3.3,70.7,8.2,89.9,13v-49C595.5,96.4,566.9,91.5,524.8,88.1z M218.4,131
	l-8.3-4.9l-7.2,6.4l2.1-9.4l-8.3-4.9l9.6-0.9l2.1-9.4l3.8,8.8l9.6-0.9l-7.2,6.4L218.4,131z M252.4,127.5l-6.8,0.6l-3.5-15.9l-0.1,0
	l-0.7,16.3l-6.8,0.6l-6.1-23.6l6-0.5l3.3,16.4l0.1,0l0.8-16.7l5.6-0.5l3.9,16.3l0.1,0l0.3-16.7l6-0.5L252.4,127.5z M265.4,126.8
	c-5.2,0.3-8.3-1.5-8.7-8.2l-1-15.7l6.2-0.4l1.1,17.3c0.1,2.3,0.9,2.9,2.1,2.8c1.2-0.1,1.8-0.7,1.7-3l-1.1-17.3l6.2-0.4l1,15.7
	C273.4,124.2,270.7,126.4,265.4,126.8z M286,124.8l-0.5-9.9l-3.8,0.2l0.5,9.9l-6.2,0.3l-1.1-24l6.2-0.3l0.4,8.8l3.8-0.2l-0.4-8.8
	l6.2-0.3l1.1,24L286,124.8z M306,123.5l-0.9-4.2l-5,0.3l-0.4,4.2l-6.6,0.4l4.3-24.3l7.9-0.5l7.4,23.6L306,123.5z M323.2,122.7
	l-4.5-14.7l-0.1,0l0.3,14.8l-5.9,0.1l-0.5-24l7-0.1l4.3,14.7l0.1,0l-0.3-14.8l5.9-0.1l0.5,24L323.2,122.7z M349.7,121.8l-6.3,0.1
	l-0.3-18.7l-4.7,0.1l-0.1-5.3l15.7-0.3l0.1,5.3l-4.7,0.1L349.7,121.8z M365.5,121.4l-0.2-9.9l-3.8,0.1l0.2,9.9l-6.3,0.1l-0.4-24
	l6.3-0.1l0.2,8.8l3.8-0.1l-0.2-8.8l6.3-0.1l0.4,24L365.5,121.4z M391.6,121h-6.7c-0.6-1.2-0.6-3.6-0.6-4.6v-1.6
	c0-2.7-0.5-3.4-2.1-3.4h-1.6v9.6h-6.3V97h9.8c4.8,0,6.6,2.7,6.6,6.4c0,3.2-1.2,5.3-4.1,5.7v0.1c3,0.3,3.9,2.2,3.9,5.4v2.1
	c0,1.2,0,2.8,0.3,3.3c0.2,0.3,0.3,0.5,0.7,0.7V121z M407.8,121h-14.5V97h14.2v5.1h-8v4.1h7.5v4.9h-7.5v4.8h8.3V121z M424.6,121.2
	H410v-24h14.2v5.1h-8v4.1h7.5v4.9h-7.5v4.8h8.3V121.2z M448.2,102.6l-4.7-0.1l-0.3,18.7l-6.3-0.1l0.3-18.7l-4.7-0.1l0.1-5.3
	l15.7,0.2L448.2,102.6z M465.8,110.1c-0.2,9-2.4,12.4-8.8,12.3c-6.4-0.1-8.5-3.7-8.3-12.6c0.2-9,2.4-12.4,8.8-12.3
	C463.8,97.6,465.9,101.1,465.8,110.1z M480.9,122.7l-1.3-16.2l-0.1,0l-2.8,16l-6.9-0.3l-3-24.2l6,0.3L474,115l0.1,0l3-16.5l5.6,0.3
	l1.7,16.7l0.1,0L487,99l6,0.3l-5.2,23.8L480.9,122.7z M509.9,124.4l-6.8-0.4l-3.3-15.1l-0.1,0l-0.9,14.8l-5.8-0.3l1.4-24l7,0.4
	l3.1,15l0.1,0l0.9-14.8l5.8,0.3L509.9,124.4z M528.7,108.6l-5.8-0.4l0-0.6c0.1-1.4-0.4-2.6-1.6-2.7c-1.3-0.1-2,0.9-2.1,2
	c-0.4,4.7,10,3.2,9.4,11.9c-0.4,5.1-3.5,7.2-9,6.7c-5.2-0.4-7.9-2.4-7.5-7.3l0.1-0.8l6,0.4l0,0.6c-0.2,2,0.6,2.8,1.8,2.9
	c1.3,0.1,2.1-0.9,2.2-2.2c0.4-4.7-9.6-3.1-9-11.6c0.4-4.9,3.1-7.3,8.4-6.9C526.9,101,529,103.5,528.7,108.6z M554.5,108.9l-7.9-0.6
	l-0.3,4.1l7.4,0.5l-0.4,4.9l-7.4-0.5l-0.7,9.9l-6.2-0.5l1.7-23.9l14.2,1L554.5,108.9z M571.8,113l-0.1,1.5l-6-0.5l0.1-1.3
	c0.2-2.7-0.2-3.6-1.4-3.7c-1.9-0.2-2.3,1.6-2.9,8s-0.5,8.2,1.4,8.4c1.5,0.1,2-1.2,2.4-5.7l6,0.5l-0.2,1.8c-0.6,6.7-4.6,8-8.7,7.6
	c-7-0.6-8.2-4.3-7.4-13.2c0.8-9.1,3.2-12.2,9.7-11.7C570.3,105.3,572.2,108.4,571.8,113z M597.1,131.8l-6.7-6.9l-8.6,4.3l4.5-8.5
	l-6.7-6.9l9.5,1.6l4.5-8.5l1.4,9.5l9.5,1.6l-8.6,4.3L597.1,131.8z"/>
</svg>
