<?xml version="1.0" encoding="utf-8"?>
<!-- Generator: Adobe Illustrator 23.0.3, SVG Export Plug-In . SVG Version: 6.00 Build 0)  -->
<svg version="1.1" id="图层_1" xmlns="http://www.w3.org/2000/svg" xmlns:xlink="http://www.w3.org/1999/xlink" x="0px" y="0px"
	 viewBox="0 0 800 800" style="enable-background:new 0 0 800 800;" xml:space="preserve">
<style type="text/css">
	.st0{fill:#003C8C;}
	.st1{fill:#FFFFFF;}
	.st2{fill:#DEAC04;}
	.st3{fill:#E60215;}
	.st4{fill:url(#SVGID_1_);}
</style>
<g>
	<path class="st0" d="M400,70.1c-90.6,87.9-240.2,115.2-240.2,115.2C138.8,521,400,651.7,400,651.7S661.2,521,640.2,185.3
		C640.2,185.3,490.6,158.1,400,70.1L400,70.1z"/>
	<path class="st1" d="M400,112.4c17.8,14.5,38,28.1,60.3,40.5c25.1,14,53,26.7,82.9,37.6c26.6,9.7,49.9,16.3,66.4,20.4
		c1.4,62.8-7.8,122.1-27.2,176.5c-17.5,48.9-43.4,94.2-76.9,134.6c-30.1,36.3-61,61.9-81.5,77c-9.4,6.9-17.6,12.3-23.9,16.2
		c-21.2-13.1-62.9-42.5-103.7-91.1c-34-40.5-60.2-85.9-78-135c-19.9-54.9-29.2-114.7-27.8-178.1c16.4-4.1,39.8-10.7,66.4-20.4
		c29.9-10.9,57.7-23.5,82.9-37.6C362,140.5,382.2,126.9,400,112.4z"/>
	<path class="st2" d="M97.5,251.4c-31.4-26.4,0-66.9,0-66.9C131.3,231.2,97.5,251.4,97.5,251.4z M56.6,239
		c-0.4,40.1,39.6,59.5,39.6,59.5c42.5-20.6,40.5-59.5,40.5-59.5c-36.3,16.9-40.5,50.4-40.5,50.4C90.1,252.2,56.6,239,56.6,239z
		 M54.1,292.3c3.3,47.9,42.5,62.8,42.5,62.8c41.7-17.3,42.5-62.8,42.5-62.8c-40.1,18.6-42.5,54.1-42.5,54.1
		C92.5,308.4,54.1,292.3,54.1,292.3z M52.1,346.4c5.4,53.3,44.6,66.1,44.6,66.1c45.4-23.1,44.6-66.1,44.6-66.1
		C101.6,363.7,96.7,400,96.7,400C89.6,360.2,52.1,346.4,52.1,346.4z M50,401.9c7.4,61.5,57.4,67.1,57.4,67.1
		c38.8-34.3,36.3-71.4,36.3-71.4c-42.5,19-40.5,58.2-40.5,58.2C90.5,419,50,401.9,50,401.9z M58.7,464.9
		c18.6,63.2,67.7,59.9,67.7,59.9c29.3-30.1,23.5-79.3,23.5-79.3c-39.6,25.2-32.6,60.3-32.6,60.3C100.8,474.4,58.7,464.9,58.7,464.9z
		 M70.6,524.8c30.1,63.2,83.2,49.5,83.2,49.5c25.8-36.3,13-86.3,13-86.3c-39.6,37.4-22.1,71.8-22.1,71.8
		C113.6,528,70.6,524.8,70.6,524.8z M94.6,583.8c48.7,61.1,97.9,34.3,97.9,34.3c15.7-54.9-4.1-88.4-4.1-88.4
		c-35.5,40.5-9.1,76.8-9.1,76.8C147.9,578.4,94.6,583.8,94.6,583.8z M132.6,638.7c63.6,54.1,106.5,15.3,106.5,15.3
		c6.2-47.9-21.5-89.6-21.5-89.6c-26.4,45.8,2.5,77.2,2.5,77.2C187.1,627.1,132.6,638.7,132.6,638.7z M179.7,685.4
		c69.4,38.8,110.7-5,110.7-5c4.5-45-40.1-89.2-40.1-89.2c-19.8,59.9,23.9,80.9,23.9,80.9C222.2,662.2,179.7,685.4,179.7,685.4z
		 M237.9,722.1c74.7,23.5,107.8-14,107.8-14c6.6-54.1-53.3-95-53.3-95c-3.3,62.3,35.1,86.3,35.1,86.3
		C277.5,684.9,237.9,722.1,237.9,722.1z M702.5,251.4c31.4-26.4,0-66.9,0-66.9C668.7,231.2,702.5,251.4,702.5,251.4z M703.8,298.5
		c0,0,40.1-19.4,39.6-59.5c0,0-33.4,13.2-39.6,50.4c0,0-4.1-33.4-40.5-50.4C663.3,239,661.2,277.8,703.8,298.5z M703.3,355
		c0,0,39.2-14.9,42.5-62.8c0,0-38.4,16.1-42.5,54.1c0,0-2.5-35.5-42.5-54.1C660.8,292.3,661.6,337.7,703.3,355z M703.3,412.4
		c0,0,39.2-12.8,44.6-66.1c0,0-37.6,13.9-44.6,53.6c0,0-5-36.2-44.6-53.6C658.7,346.4,657.9,389.3,703.3,412.4z M692.6,469
		c0,0,50-5.6,57.4-67.1c0,0-40.5,17.1-53.3,53.9c0,0,2.1-39.2-40.5-58.2C656.3,397.6,653.8,434.7,692.6,469z M682.7,505.8
		c0,0,7-35.1-32.6-60.3c0,0-5.8,49.1,23.5,79.3c0,0,49.1,3.3,67.7-59.9C741.3,464.9,699.2,474.4,682.7,505.8z M633.1,488
		c0,0-12.9,50,13,86.3c0,0,53.1,13.7,83.2-49.5c0,0-42.9,3.3-74.1,35.1C655.2,559.8,672.8,525.4,633.1,488z M620.8,606.5
		c0,0,26.4-36.3-9.1-76.8c0,0-19.8,33.4-4.1,88.4c0,0,49.1,26.8,97.9-34.3C705.4,583.8,652.1,578.4,620.8,606.5z M579.9,641.6
		c0,0,28.9-31.4,2.5-77.2c0,0-27.7,41.7-21.5,89.6c0,0,42.9,38.8,106.5-15.3C667.4,638.7,612.9,627.1,579.9,641.6z M525.8,672.1
		c0,0,43.8-21.1,23.9-80.9c0,0-44.6,44.2-40.1,89.2c0,0,41.3,43.8,110.7,5C620.3,685.4,577.8,662.2,525.8,672.1z M472.5,699.4
		c0,0,38.4-23.9,35.1-86.3c0,0-59.9,40.9-53.3,95c0,0,33,37.6,107.8,14C562.1,722.1,522.5,684.9,472.5,699.4z"/>
	<polygon class="st3" points="400,664.2 410.4,685.2 433.5,688.6 416.8,704.9 420.7,728 400,717.1 379.3,728 383.2,704.9 
		366.5,688.6 389.6,685.2 	"/>
	<path class="st3" d="M543.2,190.5c-9.2-3.4-18.3-6.9-27.1-10.6c0,9.6-0.4,22.6-1.6,38.2H553v83.8h-51.3
		C487.2,365.1,458,438.2,400,494.7c-58-56.5-87.2-129.6-101.8-192.8H247v-83.8h38.6c-1.2-15.6-1.5-28.7-1.6-38.2
		c-8.8,3.7-17.9,7.2-27.1,10.6c-17.1,6.3-32.9,11.2-46.4,15.1C220.4,473.8,400,607.1,400,607.1s179.6-133.3,189.6-401.6
		C576.1,201.7,560.3,196.7,543.2,190.5z M282.7,355.7l-11.6-8.4l-11.6,8.4l4.4-13.6l-11.6-8.4h14.4l4.4-13.7l4.4,13.7h14.4
		l-11.6,8.4L282.7,355.7z M540.5,355.7l-11.6-8.4l-11.6,8.4l4.4-13.6l-11.6-8.4h14.4l4.4-13.7l4.4,13.7h14.4l-11.6,8.4L540.5,355.7z
		"/>
	<g>
		<g>
			<path class="st0" d="M332.7,311.4h12.6v5.7h-5.2v5.4h4.6v5.4h-4.6v12h-7.4V311.4z"/>
			<path class="st0" d="M364.1,328.1c0,2.9-0.1,4.9-0.2,6.1c-0.1,1.2-0.6,2.3-1.3,3.3c-0.7,1-1.7,1.7-2.9,2.3s-2.6,0.8-4.2,0.8
				c-1.5,0-2.9-0.3-4.1-0.8s-2.2-1.3-2.9-2.3c-0.7-1-1.2-2.1-1.3-3.3c-0.1-1.2-0.2-3.2-0.2-6.2v-4.9c0-2.9,0.1-4.9,0.2-6.1
				c0.1-1.2,0.6-2.3,1.3-3.3s1.7-1.7,2.9-2.3c1.2-0.5,2.6-0.8,4.2-0.8c1.5,0,2.9,0.3,4.1,0.8c1.2,0.5,2.2,1.3,2.9,2.3
				c0.7,1,1.2,2.1,1.3,3.3c0.1,1.2,0.2,3.2,0.2,6.2V328.1z M356.6,318.7c0-1.3-0.1-2.2-0.2-2.6c-0.1-0.4-0.5-0.6-0.9-0.6
				c-0.4,0-0.7,0.2-0.9,0.5c-0.2,0.3-0.3,1.2-0.3,2.7v13.4c0,1.7,0.1,2.7,0.2,3.1c0.1,0.4,0.5,0.6,0.9,0.6c0.5,0,0.8-0.2,1-0.7
				c0.1-0.4,0.2-1.5,0.2-3.2V318.7z"/>
			<path class="st0" d="M383.8,328.1c0,2.9-0.1,4.9-0.2,6.1c-0.1,1.2-0.6,2.3-1.3,3.3c-0.7,1-1.7,1.7-2.9,2.3s-2.6,0.8-4.2,0.8
				c-1.5,0-2.9-0.3-4.1-0.8s-2.2-1.3-2.9-2.3c-0.7-1-1.2-2.1-1.3-3.3c-0.1-1.2-0.2-3.2-0.2-6.2v-4.9c0-2.9,0.1-4.9,0.2-6.1
				c0.1-1.2,0.6-2.3,1.3-3.3s1.7-1.7,2.9-2.3c1.2-0.5,2.6-0.8,4.2-0.8c1.5,0,2.9,0.3,4.1,0.8c1.2,0.5,2.2,1.3,2.9,2.3
				c0.7,1,1.2,2.1,1.3,3.3c0.1,1.2,0.2,3.2,0.2,6.2V328.1z M376.4,318.7c0-1.3-0.1-2.2-0.2-2.6c-0.1-0.4-0.5-0.6-0.9-0.6
				c-0.4,0-0.7,0.2-0.9,0.5s-0.3,1.2-0.3,2.7v13.4c0,1.7,0.1,2.7,0.2,3.1c0.1,0.4,0.5,0.6,0.9,0.6c0.5,0,0.8-0.2,1-0.7
				c0.1-0.4,0.2-1.5,0.2-3.2V318.7z"/>
			<path class="st0" d="M401.6,311.4v5.7h-4.4V340h-7.4v-22.9h-4.4v-5.7H401.6z"/>
			<path class="st0" d="M403.3,311.4h7.4c2.3,0,4.1,0.2,5.3,0.5s2.2,1.1,2.9,2.2c0.7,1.1,1.1,2.9,1.1,5.4c0,1.7-0.3,2.8-0.8,3.5
				c-0.5,0.7-1.6,1.2-3.1,1.5c1.7,0.4,2.9,1,3.5,1.9c0.6,0.9,0.9,2.3,0.9,4.1v2.7c0,1.9-0.2,3.4-0.7,4.3c-0.4,0.9-1.1,1.6-2.1,1.9
				c-1,0.3-2.9,0.5-5.9,0.5h-8.6V311.4z M410.7,316.3v6.4c0.3,0,0.6,0,0.7,0c0.7,0,1.2-0.2,1.4-0.5s0.3-1.4,0.3-3.1
				c0-0.9-0.1-1.5-0.2-1.9c-0.2-0.4-0.4-0.6-0.6-0.7C412,316.3,411.5,316.3,410.7,316.3z M410.7,327.1v8c1,0,1.7-0.2,2-0.5
				c0.3-0.3,0.4-1,0.4-2.2v-2.7c0-1.2-0.1-2-0.4-2.2C412.5,327.3,411.8,327.1,410.7,327.1z"/>
			<path class="st0" d="M436.1,311.4l4.3,28.6h-7.6l-0.4-5.1h-2.7l-0.4,5.1h-7.7l3.8-28.6H436.1z M432.2,329.8
				c-0.4-3.2-0.8-7.2-1.1-12c-0.8,5.5-1.2,9.5-1.4,12H432.2z"/>
			<path class="st0" d="M449.1,311.4v22.9h4.5v5.7h-12v-28.6H449.1z"/>
			<path class="st0" d="M462.8,311.4v22.9h4.5v5.7h-12v-28.6H462.8z"/>
		</g>
		<g>
			<path class="st0" d="M382,368.1h-7.4v-5c0-1.4-0.1-2.3-0.2-2.7c-0.2-0.4-0.5-0.5-1.1-0.5c-0.6,0-1,0.2-1.2,0.7
				c-0.2,0.4-0.2,1.4-0.2,2.8v13.3c0,1.4,0.1,2.3,0.2,2.7c0.2,0.4,0.5,0.6,1.1,0.6c0.6,0,0.9-0.2,1.1-0.6c0.2-0.4,0.3-1.4,0.3-3
				v-3.6h7.4v1.1c0,3-0.2,5.1-0.6,6.3c-0.4,1.2-1.3,2.3-2.8,3.3s-3.2,1.4-5.3,1.4c-2.2,0-4-0.4-5.4-1.2s-2.3-1.9-2.8-3.3
				s-0.7-3.5-0.7-6.3v-8.4c0-2.1,0.1-3.6,0.2-4.6c0.1-1,0.6-2,1.3-3c0.7-1,1.7-1.7,2.9-2.3c1.2-0.5,2.7-0.8,4.3-0.8
				c2.2,0,4,0.4,5.4,1.3c1.4,0.8,2.4,1.9,2.8,3.2c0.4,1.3,0.7,3.2,0.7,5.9V368.1z"/>
			<path class="st0" d="M392.1,355.7v22.9h4.5v5.7h-12v-28.6H392.1z"/>
			<path class="st0" d="M415.4,355.7v19.1c0,2.2-0.1,3.7-0.2,4.6c-0.1,0.9-0.6,1.8-1.3,2.7s-1.6,1.6-2.7,2.1c-1.1,0.5-2.5,0.7-4,0.7
				c-1.7,0-3.2-0.3-4.5-0.8c-1.3-0.6-2.3-1.3-2.9-2.2c-0.6-0.9-1-1.9-1.1-2.9s-0.2-3.1-0.2-6.4v-16.9h7.4v21.4c0,1.2,0.1,2,0.2,2.4
				c0.1,0.3,0.4,0.5,0.8,0.5c0.5,0,0.8-0.2,0.9-0.6c0.1-0.4,0.2-1.3,0.2-2.7v-21.1H415.4z"/>
			<path class="st0" d="M418.2,355.7h7.4c2.3,0,4.1,0.2,5.3,0.5c1.2,0.4,2.2,1.1,2.9,2.2c0.7,1.1,1.1,2.9,1.1,5.4
				c0,1.7-0.3,2.8-0.8,3.5c-0.5,0.7-1.6,1.2-3.1,1.5c1.7,0.4,2.9,1,3.5,1.9c0.6,0.9,0.9,2.3,0.9,4.1v2.7c0,1.9-0.2,3.4-0.7,4.3
				c-0.4,0.9-1.1,1.6-2.1,1.9c-1,0.3-2.9,0.5-5.9,0.5h-8.6V355.7z M425.7,360.6v6.4c0.3,0,0.6,0,0.7,0c0.7,0,1.2-0.2,1.4-0.5
				c0.2-0.4,0.3-1.4,0.3-3.1c0-0.9-0.1-1.5-0.2-1.9c-0.2-0.4-0.4-0.6-0.6-0.7C427,360.6,426.4,360.6,425.7,360.6z M425.7,371.4v8
				c1,0,1.7-0.2,2-0.5s0.4-1,0.4-2.2V374c0-1.2-0.1-2-0.4-2.2C427.5,371.5,426.8,371.4,425.7,371.4z"/>
		</g>
	</g>
	<g>
		<path class="st0" d="M372,158.1c0.5,0.6,0.8,1,0.9,1.2c0.2,0.2,0.3,0.4,0.3,0.6c0,0.2,0.1,0.5,0.2,0.7c0.1,0.2,0,0.6-0.1,1
			c-0.1,0.5-0.2,0.9-0.2,1.4c0,0.5-0.2,1-0.5,1.4c-0.3,0.4-0.8,1.4-1.4,2.9c-0.7,1.5-1,2.4-0.9,2.8c0.5-0.1,0.8-0.2,1.1-0.2
			c0.3-0.1,0.5-0.1,0.8,0c0.3,0,0.6,0.1,1,0.1c0.3,0,1.2,0.2,2.6,0.5l0.6,0.8c0,1-0.3,2-0.7,3c-0.6,0.1-1,0.1-1.4,0
			c-0.3-0.1-0.9-0.2-1.6-0.1c-0.7,0-1.6,0.3-2.5,0.8c-0.5,0.6-0.8,1.1-0.9,1.4c-0.1,0.3-0.3,1-0.8,2.1c-0.4,1.1-0.7,2-0.8,2.5
			c0.5,0,0.8-0.1,1-0.1c0.2,0,0.8,0,1.8,0.2c1,0.1,1.9,0.5,2.7,1c0.4,0.6,0.7,1.1,0.9,1.3c0.2,0.2,0.3,0.5,0.3,0.8
			c0,0.3,0,0.6,0.1,0.8c0.1,0.3,0,0.6-0.1,0.8c-0.1,0.3-0.3,0.9-0.6,1.7c-0.6,0.3-1.8,1.2-3.8,2.6l-1.1,1.2c0.9,0.3,1.7,0.8,2.4,1.3
			c0.2,0.6,0.2,1,0.1,1.2c-0.1,0.2-0.2,0.5-0.3,0.9c-2.3,0.3-4.4,1-6.3,2.1c-0.2,0.5-0.3,0.9-0.2,1.1c0.1,0.2,0.1,0.4,0.1,0.6
			c0,0.2,0,0.4,0,0.6c0,0.2-0.1,0.7-0.2,1.4c-0.4,0-0.7,0-1,0.2c-0.3,0.2-0.6,0.2-0.7,0.2c-0.2-0.1-0.3-0.1-0.4-0.1
			c-0.1,0-1-0.7-2.5-2.1l-1.2-1.8l-0.6-0.6c0-0.6-0.1-0.9-0.2-1.1c-0.1-0.1-0.1-0.3,0-0.5c0.1-0.2,0-1-0.3-2.6
			c-0.3-1.6-0.4-2.6-0.3-3.1c0.1-0.5,0.1-1,0.2-1.5c0-0.5,0.1-1,0.3-1.6c0.1-0.5,0.3-0.9,0.5-1.1c0.8-0.3,1.4-0.6,1.8-1
			c0.4-0.4,0.8-0.5,1.2-0.4c0.4,0.1,0.8-0.1,1.1-0.4l1.3-3.1l-0.3,0.1l-1,1.3c-1.1,1.1-1.8,1.7-2,1.7c-0.2,0-0.6,0.1-1,0.3
			c-0.5-0.4-1-0.7-1.6-0.9c-0.5,0.8-0.8,1.4-0.9,1.7c-0.1,0.3-0.2,0.6-0.3,1c-0.1,0.3-0.2,0.9-0.3,1.6c-0.1,0.8-0.3,1.7-0.6,2.8
			c-0.4,1.1-0.6,2-0.7,2.5l-0.1-0.3l-0.7,1.4c0.2,0.3,0.3,0.6,0.1,0.9l0.6,0.6c-0.3,1.2-0.6,2.3-1.1,3.3c-0.4,1-0.7,1.6-0.8,1.9
			c-0.1,0.3-0.2,0.6-0.4,1c-0.2,0.4-0.4,0.8-0.6,1.3c-0.2,0.5-0.7,1.3-1.5,2.4c-1.4,1.3-2.3,1.9-2.5,2l-1.3-1.5l-0.6-0.5
			c-0.5-0.7-0.9-1.3-1.2-1.8c-0.3-0.5-0.6-1.2-1.1-2c-0.5-0.8-0.8-1.3-1-1.5c-0.2-0.2-0.3-0.4-0.3-0.6c0-0.2-0.1-0.4-0.1-0.6
			c0-0.2,0.1-0.5,0.3-0.9l1.9-0.8c0.3-1.1,0.6-1.8,0.8-2.3c0.2-0.4,0.3-1.1,0.4-1.9c0.1-0.8,0.3-1.6,0.4-2.4c0.2-0.8,0.3-1.4,0.3-2
			c0-0.5,0.1-1,0.1-1.5c0-0.4,0-1-0.1-1.8c-0.1-0.7-0.3-2.2-0.5-4.4c-0.3-2.2-0.3-3.6-0.3-4.1c0.1-0.6,0.1-1.2,0-1.8
			c0-0.6,0-1,0.2-1.2c0.2-0.2,0.4-0.5,0.8-1h1.2c0.2,1,0.4,1.5,0.6,1.7c0.2,0.2,0.5,0.6,0.9,1.1c0.7,0.3,1.3,0.8,1.8,1.4
			c0,0.5,0.1,1,0.4,1.5c0.3,0.5,0.6,1.2,0.9,1.9c0.3,0.8,0.4,1.2,0.5,1.4c0,0.2,0.1,0.4,0.1,0.6c0,0.2,0,0.4-0.1,0.6
			c-0.1,0.2-0.2,0.6-0.4,1.2l-0.9,0.8c-0.2,0.5-0.5,1-0.8,1.4c-0.5,0.3-1,0.7-1.5,1.2c-1.5,3.3-2.3,5.2-2.4,5.4
			c0,0.3-0.1,0.8-0.2,1.5l0.6-0.3c4.5-5.3,7.6-9.2,9.2-11.7c-0.1-0.2-0.2-0.5-0.3-0.9c-0.1-0.4-0.3-0.7-0.6-1.1
			c-0.3-0.3-0.6-0.9-0.9-1.6c-0.3-0.7-0.4-1.2-0.4-1.4c0-0.2-0.1-0.6-0.3-1c0.2-0.4,0.3-0.7,0.3-0.9c0-0.3,0.1-0.6,0.2-0.9
			c0.5,0.3,0.9,0.3,1.1,0.3c0.2-0.1,0.4-0.1,0.7-0.2l0.1-0.2h0.5l0.1-0.3c0.2-0.1,0.4-0.1,0.6,0c0.2,0.1,0.4,0.1,0.6,0.1
			c0.2-0.1,0.5,0,0.8,0.2c0.3,0.2,0.6,0.2,0.8,0.1c0.2-0.1,2-0.7,5.4-1.7c0.3-1.6,0.5-2.6,0.6-3.1c0.1-0.5,0.2-1.4,0.3-2.7
			c0.1-1.3,0.1-2,0.2-2.2c0-0.2-0.1-0.4-0.3-0.6c-0.2-0.2-0.4-0.5-0.6-0.8c-0.2-0.3-0.4-0.8-0.8-1.3c-0.3-0.5-0.7-1-1.1-1.6
			c-0.4-0.5-0.6-0.9-0.5-1.1c0.1-0.2,0.1-0.6,0.2-1.2c0.5-0.1,0.8-0.3,1.2-0.4c0.3-0.2,0.5-0.3,0.6-0.3c0.1,0,0.8-0.1,2-0.3
			C368.7,156.9,370.4,157.4,372,158.1z M352.6,158.7c0.2,0,1.1,0.4,2.8,1.1c1.7,0.7,3,1.5,3.9,2.3c0.2,0.3,0.3,0.5,0.3,0.6
			c0.1,0.1,0,0.5-0.2,1.2c-0.2,0.7-0.2,1.3-0.1,1.6l-0.9,1.6c-0.5,0-1,0.1-1.2,0.3c-0.3,0.2-0.6,0.4-1.1,0.5
			c-0.5,0.1-0.8,0.2-1.1,0.3c-0.3,0.1-0.6,0.2-0.8,0.3c-0.3,0.1-0.7,0.4-1.3,1c-0.6,0.6-1.1,1-1.6,1.3l-0.7-0.6l1.3-5
			c-1-1.3-1.7-2.3-2.1-3l-0.5-0.4c-0.1-0.3-0.1-0.5-0.2-0.7c0-0.2-0.1-0.3,0-0.3c0-0.1-0.1-0.5-0.3-1.2l2.8-0.8
			C352.1,158.7,352.4,158.7,352.6,158.7z M363.3,188c-0.3,0.9-0.4,1.5-0.4,1.8l0.4-0.1l2.1-2.9C365,186.8,364.3,187.3,363.3,188z
			 M382.7,162.7c0.2,0,0.4,0,0.6,0.1c0.1,0.1,0.8,0,2-0.2c1.2-0.2,2-0.3,2.4-0.3c0.4,0,0.8,0.1,1.2,0.1c0.4,0,0.8,0.1,1,0.2
			c0.3,0.1,0.6,0.3,0.8,0.4c0.3,0.1,1.1,0.8,2.5,2.1c0.1,0.4,0.2,0.6,0.3,0.8c0.1,0.1,0,0.4-0.2,0.8c-0.2,0.4-0.3,0.8-0.3,1.3
			l-0.7,0.4c0,0.5-0.1,0.9-0.3,1.2c-0.2,0.3-0.3,0.6-0.4,1c-0.1,0.4-0.3,0.9-0.5,1.4c-0.2,0.5-0.3,1.1-0.3,1.8c0,0.6,0,1.3,0,2
			c0,0.7,0.1,3.2,0.3,7.5c0.2,4.3,0.5,7.7,0.8,10.1c0.3,2.4,0.5,4.2,0.7,5.4c0.2,1.2,0.4,2.3,0.5,3.4c0.1,1,0.3,1.9,0.5,2.6
			c0.2,0.7,0.3,1.2,0.5,1.6c0.2,0.4,0.4,0.7,0.6,1.1c0.2,0.4,0.3,0.7,0.2,1.1c0,0.4-0.1,0.6-0.3,0.7c-0.1,0.1-0.4,0.4-0.7,0.9
			c-0.3,0.1-0.6,0.2-0.8,0.3c-0.2,0.1-0.4,0-0.6-0.1c-0.3-0.2-0.5-0.3-0.7-0.4c-0.2-0.1-0.9-0.4-2.1-0.8c-1.1-0.4-1.9-0.7-2.4-0.9
			c-0.4-0.2-1.3-0.8-2.5-1.9c-1.1-1.4-1.9-2.4-2.4-2.9c-0.5-0.6-0.9-1.2-1.3-1.9c-0.3-0.7-0.9-2-1.7-3.9c-0.5,1.1-1.1,2.1-1.7,2.8
			c-0.6,0.8-1.3,1.6-2.2,2.6c-2.8,2.5-4.3,3.8-4.6,3.9c-0.3,0.1-0.8,0.4-1.6,0.8l-0.4-0.3c-0.2-0.4-0.3-0.6-0.4-0.7
			c-0.1-0.1-0.1-0.4,0.1-0.8c0.1-0.4,0.2-0.8,0.2-1c0-0.3,0-0.6-0.1-0.8l1.3-0.1c0.7-0.9,1.2-1.6,1.4-2.2c0.2-0.5,0.5-1.1,0.8-1.6
			c0.3-0.6,0.5-1.2,0.7-1.8c0.2-0.6,0.4-1.3,0.7-2.1c0.3-0.7,0.4-1.6,0.6-2.5c0.1-0.9,0.3-1.9,0.5-2.9c0.2-1,0.7-4.8,1.5-11.5
			c0.8-6.7,1.5-11.6,2-14.7c-0.2-0.3-0.3-0.4-0.4-0.5c-0.1-0.1-0.1-0.2-0.1-0.4c0-0.2,0-0.3-0.1-0.5c0-0.1,0-0.3,0.1-0.4
			c0.1-0.1,0.2-0.4,0.4-0.8l1.8-0.4C381.5,162.4,382.4,162.7,382.7,162.7z M384.6,179.5c-0.6,0.9-1.1,1.5-1.3,1.8
			c-0.3,0.3-0.4,0.7-0.5,1.3c-0.1,0.5-0.2,1.1-0.4,1.6c-0.2,0.6-0.3,1.2-0.3,1.9c0,0.7-0.1,1.4-0.2,2.2c-0.1,0.8-0.1,1.4,0,2.1
			c0.1,0.6,0.2,1.8,0.3,3.5c0.5-0.5,1-1.3,1.5-2.2c0.5-0.9,0.8-1.5,0.8-1.7c-0.3,0.1-0.6,0.1-1.1-0.1c-0.3-0.6-0.4-1-0.5-1.3
			c-0.1-0.2-0.1-0.4-0.1-0.6c0-0.2,0-0.4-0.1-0.6c0-0.2,0-0.4,0.1-0.5c0.1-0.2,0.5-1,1.2-2.4c0.6-1.4,1-2.3,0.9-2.8
			c0-0.4,0-1.3,0.1-2.6L384.6,179.5z M386.9,166c-0.3,0.2-1.2,0.7-2.6,1.6c-0.5,1.3-0.7,2.1-0.8,2.4c-0.1,0.3-0.4,2.3-1.1,6.1
			c2-0.7,3.3-0.9,4.1-0.7c0.8,0.2,1.3,0.3,1.7,0.2l0.5-10C387.8,165.7,387.2,165.9,386.9,166z M382.6,195.2c0.2,1.5,0.4,2.5,0.6,3.1
			c0.2,0.6,0.4,1.1,0.5,1.7c0.1,0.6,0.3,1,0.6,1.3c0.3,0.3,0.6,0.8,1.1,1.5c1.3,0.8,2,1.1,2.3,1.2c0.3,0,0.5,0.1,0.8,0.2
			c0.3,0.1,0.8,0.1,1.5,0l-1.2-13.5l-0.4-0.2C387.5,190.9,385.6,192.4,382.6,195.2z M387.8,178c-0.1,0.3-0.4,1.1-0.9,2.6
			c-0.5,1.4-1,3.1-1.5,4.9l0.1,0.2c1.2-0.5,1.9-0.8,2-0.7c0.1,0.1,0.3,0.1,0.5,0.2l0.2-0.2l0.3,0.3l-0.2-7.3L387.8,178z"/>
		<path class="st0" d="M416.6,162.4c0.1,0,0.3,0.1,0.7,0.3c0.4,0.2,0.9,0.4,1.4,0.5c0.5,0.2,1,0.4,1.3,0.6c0.3,0.2,1,0.6,1.9,1
			c1,0.4,2,1,3.1,1.8c0.1,0.5,0.2,0.9,0.2,1.1c0.1,0.2,0,0.7-0.3,1.5c-0.3,0.8-0.3,1.3-0.1,1.5c0.2,0.2,0.4,0.6,0.8,1.3
			c-0.3,0-0.5,0.1-0.8,0.3c-0.3,0.7-0.5,1.4-0.6,2.2c-0.2,0.7-0.2,1.2-0.1,1.5l-0.1-0.1c-0.2,1.6-0.2,3-0.2,4.2
			c0,1.2,0.1,2.1,0.3,2.7c0.1,0.6,0.2,1.2,0.2,1.7c0,0.5,0,0.8,0.1,1c0.1,0.1,0.1,0.4,0,0.8c-0.1,0.4,0,0.8,0.2,1.1
			c1.7-1.2,2.7-1.8,3-2c0.3-0.1,0.5-0.3,0.7-0.4c0.2-0.1,0.5-0.4,0.9-0.7c0.4-0.3,0.7-0.5,0.8-0.6c0.1-0.1,0.2-0.1,0.4-0.1
			c-0.3,0.4-0.4,0.7-0.6,0.8c-0.1,0.1-0.2,0.2-0.2,0.3c0,0.1,0,0.3,0,0.7c0,0.4-0.3,1.1-0.8,2.3c-0.5,1.1-0.9,1.8-1,1.9
			c-0.1,0.1-0.4,0.5-0.8,1l-0.6,0.4c-0.5,1-0.9,1.7-1.2,2c-0.2,0.4-0.6,1.3-1.2,2.8l-0.8,0.3c-0.3,0.5-1,1.4-2.3,2.7
			c-1.3,1.3-2,2.1-2.2,2.3c-0.2,0.2-0.4,0.5-0.5,1c-0.2,0.5-0.4,0.9-0.7,1.3c-0.3,0.4-0.6,0.7-0.8,1.2c-0.3,0.4-0.6,0.8-0.8,1
			c-0.3,0.3-0.7,0.7-1.4,1.4c-0.8,0.1-1.2,0.3-1.4,0.4l-0.8-0.3l-0.4-0.4l-0.7-0.3l-0.8-0.8l-0.5-0.1c-0.3-0.4-0.5-0.6-0.6-0.8
			c-0.1-0.1-0.2-0.4-0.2-0.8c0-0.4-0.1-0.7-0.2-0.8c-0.1-0.1-0.5-0.8-1.1-2c-0.6-1.2-1-1.9-1-2.1c0-0.2,0-0.4,0.2-0.6
			c0.1-0.2,0.4-0.6,0.8-1.2l1-0.3l0.5-1.2h0.9c0.6-0.6,1-1.1,1.3-1.5c0.3-0.4,0.5-0.8,0.8-1.2c0.3-0.4,1-1.6,2-3.6
			c1.1-2,1.9-3.9,2.5-5.6c-0.3-0.4-0.5-0.7-0.5-1c0-0.2,0-0.4-0.2-0.7c-1.2,0.9-1.9,1.4-2.1,1.3c-0.2,0-0.4,0-0.6,0
			c-0.2,0-0.5-0.1-1-0.4c-1-1-1.5-1.7-1.7-1.9c-0.2-0.3-0.4-0.6-0.7-0.9c-0.3-0.3-0.4-0.7-0.6-1.1c-0.1-0.5-0.3-0.9-0.5-1.4
			c-0.2-0.5-0.3-0.9-0.3-1.3c0-0.4,0-1.2,0-2.4l0.1-0.1l-0.4-0.9c0.5,0,0.9,0.1,1.2,0.4l0.4-0.2l0.3,0.4c0.6,0.4,1.1,0.7,1.4,1
			c0.3,0.3,0.6,0.4,0.8,0.3c0.2,0,0.4-0.1,0.6-0.1c0.2,0,1-0.1,2.5-0.2c-0.1-1.8,0-4,0.2-6.7c0.2-2.7,0.2-4.4,0-5.2l0.6-0.3V162.4z
			 M417.5,189.5l-1.1,2.6c0.3,0,1-0.4,2-1.2l-0.3-1.8L417.5,189.5z M433.8,157.7c2.9,0.5,5.3,1.3,7.1,2.5c0.5,0.7,0.8,1.1,1,1.3
			c0.2,0.2,0.3,0.5,0.4,0.8c0.1,0.3,0.2,0.6,0.3,0.9c0.1,0.3,0.1,0.6-0.1,1c-0.2,0.4-0.3,0.8-0.3,1.1c0,0.3-0.1,0.9-0.3,1.6
			c-0.2,0.8-0.3,1.3-0.3,1.5c0,0.2,0,1.1-0.1,2.7c0.9-0.7,1.6-1.2,2-1.6c0.4-0.3,0.9-0.5,1.3-0.4c0.5,0,0.9,0,1.4,0
			c0.4-0.1,0.9,0,1.3,0.3c0.4,0.2,1,0.5,1.9,0.8c0.5,0.5,0.8,0.9,1,1.1c0.2,0.2,0.3,0.4,0.4,0.6c0.1,0.2,0.2,0.4,0.3,0.6
			c0.1,0.2,0.1,0.4,0.1,0.6c0,0.2,0,0.4,0,0.6c0,0.2,0,0.4-0.2,0.5c-0.1,0.1-0.3,0.3-0.5,0.5c-0.2,0.2-0.6,0.9-1.4,2
			c-0.6,0.2-1,0.2-1.1,0.2c-0.1-0.1-0.4-0.1-0.7-0.1c-0.3,0-0.6,0-0.9,0c-0.3,0-0.6,0-0.8,0.1c-0.3,0.1-2,0.7-5.4,1.9
			c-0.4,0.5-0.7,1-0.7,1.6c-0.1,0.5-0.2,1.1-0.3,1.5c-0.1,0.5-0.2,0.9-0.2,1.2c0,0.3,0,1.4-0.1,3.2c-0.1,1.8,0,3,0.1,3.4
			c0.2,0.5,0.5,1.4,0.9,2.9c1.4-0.1,2.4-0.2,3.2-0.3c0.7-0.1,1.5-0.2,2.3-0.2c0.8,0,1.5,0,2.2,0c0.7,0,1.8,0.2,3.4,0.7
			c1.6,0.5,2.6,0.9,2.9,1.1c0.4,0.2,0.7,0.4,1.1,0.6c0.4,0.2,1.1,0.7,2,1.6c0.2,0.4,0.3,0.6,0.4,0.8c0.1,0.1,0.1,0.3,0,0.5
			c-0.1,0.2-0.1,0.5-0.2,0.9c-1.6,1.7-2.5,2.5-2.8,2.5c-0.3,0-1.2,0.1-2.7,0.3c-1.5,0.2-2.3,0.4-2.6,0.5c-0.2,0.2-0.5,0.2-0.8,0.2
			c-0.3,0-0.8,0.1-1.7,0.4c-0.5-0.3-0.9-0.4-1.2-0.4c-0.3,0-0.5,0-0.7,0c-0.2,0-1.2,0.3-2.8,1.1c1-1,1.9-2.2,2.6-3.5
			c-0.9,0.2-1.4,0.3-1.6,0.3s-1,0.4-2.6,1.1c-1.6,0.7-2.6,1-2.9,1c-0.3,0-0.6,0-0.9,0.1c-0.3,0.1-0.5,0.1-0.7,0
			c-0.2-0.1-0.5-0.2-1-0.3c-0.4-0.7-0.7-1.1-0.8-1.3c-0.1-0.2-0.3-0.5-0.4-0.9c-0.1-0.4-0.4-0.9-0.8-1.7c-0.4-0.7-0.6-1.2-0.5-1.4
			c0.1-0.2,0.1-0.6,0.2-1.3c0.6-0.3,1.1-0.6,1.6-1.1c-0.2-2.5-0.3-4.1-0.4-4.8c-0.1-0.6,0-1.8,0.1-3.6c0.1-1.8,0.2-3.8,0.2-6
			c-0.7,0-1.4,0-2.2-0.1l0.1-0.6l2.1-1.4c0.2-0.5,0.3-1,0.3-1.3c0-0.4,0-1.9,0.1-4.5s0.1-4.1,0.1-4.5c0-0.4,0-0.8-0.1-1.2
			c-0.1-0.4-0.2-0.8-0.3-1.2c-0.1-0.5-0.3-1-0.5-1.7c-0.2-0.7-0.5-1.4-0.8-2c-0.3-0.7-0.3-1.7-0.2-2.9L433.8,157.7z"/>
	</g>
	<g>
		<path class="st0" d="M263.4,262.7h59.5c2.6,0,4.7,2.1,4.7,4.7v6.3h-15.5v-4.3c0-1.5-1.2-2.7-2.7-2.7h-4v10.5h21.5v4h-21.5v8.2
			h23.2v4H289c-5.3,0-8.8-1.7-11-3.7l-1.2,3.7h-15.1c2.6-7.5,4.7-15.5,5.4-24h14.8c-0.5,4.7-1.2,9.3-2.2,13.8c2,3,5.2,5.4,9.5,6
			v-22.6h-25.9V262.7z M262.1,230.8h8.7v-4.2h14.1v4.2h9.4v4.1h-9.4v25.5h-14.1v-25.5h-8.7V230.8z M262.1,259.6
			c0.5-1.7,0.8-3.9,0.8-5.8v-16.3h6.3v16.3c0,1.8-0.3,4.1-0.8,5.8H262.1z M286.3,259.6v-22.1h6.9v22.1H286.3z M295.9,230.8h8.8v-4.2
			h14.8v4.2h8.6v4.1h-8.6v25.5h-14.8v-25.5h-8.8V230.8z M295.9,259.6c0.6-1.7,0.8-3.9,0.8-5.8v-16.3h6.3v16.3c0,1.8-0.4,4.1-0.8,5.8
			H295.9z M321.8,259.6c-0.5-1.7-0.8-4-0.8-5.8v-16.3h6.3v16.3c0,1.9,0.3,4.1,0.8,5.8H321.8z"/>
		<path class="st0" d="M350.2,282c-0.5,4.2-1.3,8.5-2.2,11.7h-15.6c1.8-6.5,3-15.2,3-21.2V233c0-2.6,2.1-4.7,4.7-4.7h50.9
			c2.5,0,4.7,2.1,4.7,4.7v55.3c0,0.7,0.6,1.3,1.3,1.3h2.1v4h-14.2c-2.6,0-4.7-2.1-4.7-4.7V282h-11.2c-1.3-1.9-2.5-3.9-3.7-5.9
			c-1.2,2.1-2.4,4-3.7,5.9H350.2z M350.6,277.9c2.8-4.8,5.5-9.7,8-14.6c-2.8-5.9-5.4-12-7.7-18.1v27.2
			C350.8,274.1,350.7,275.9,350.6,277.9z M350.8,240.1h11.5c1,2.7,2.1,5.4,3.3,8.1c1.1-2.7,2.2-5.4,3.3-8.1h11.3v-5.2
			c0-1.5-1.2-2.7-2.7-2.7h-24c-1.5,0-2.7,1.2-2.7,2.7V240.1z M372.3,262.6c2.5,4.9,5.1,9.8,7.9,14.6v-33.4
			C377.9,250.2,375.2,256.4,372.3,262.6z"/>
		<path class="st0" d="M449.7,253.2c-4.7-4.2-9.1-9.2-13.2-14.5c-4.1,5.3-8.4,10.3-13.1,14.5h-20.2c8.8-8.6,17.4-17,23.8-26.3h19
			c6.4,9.3,14.9,17.8,23.8,26.3H449.7z M409,268.5c0-2.5,2.1-4.7,4.7-4.7h45.8c2.6,0,4.7,2.1,4.7,4.7v20.1c0,2.5-2.1,4.7-4.7,4.7
			h-45.8c-2.6,0-4.7-2.1-4.7-4.7V268.5z M410.5,256h52v4h-52V256z M448,270.5c0-1.5-1.2-2.7-2.7-2.7h-17.5c-1.5,0-2.7,1.2-2.7,2.7
			v16.1c0,1.5,1.2,2.7,2.7,2.7h17.5c1.5,0,2.7-1.2,2.7-2.7V270.5z"/>
		<path class="st0" d="M476.2,237.8h13.4c0.2-3.6,0.4-7.3,0.4-11H506c0,3.7-0.1,7.4-0.3,11h27.9c2.5,0,4.7,2.1,4.7,4.7v46.4
			c0,2.6-2.2,4.7-4.7,4.7h-21v-4h6.9c1.4,0,2.7-1.2,2.7-2.7v-42.3c0-1.5-1.3-2.7-2.7-2.7h-14.1c-1.3,18.5-5.2,36.8-12.7,51.7h-17.5
			c7.9-15.5,12.4-32.5,14-51.7h-13.1V237.8z"/>
	</g>
	<g>
		<path class="st1" d="M389.6,583.4v2.7h-8.7l0-2.3c2.6-4.2,4.1-6.8,4.6-7.9c0.5-1,0.7-1.8,0.7-2.4c0-0.4-0.1-0.8-0.2-1
			c-0.1-0.2-0.4-0.3-0.7-0.3c-0.3,0-0.5,0.1-0.7,0.4c-0.1,0.2-0.2,0.7-0.2,1.4v1.5h-3.6v-0.6c0-0.9,0-1.6,0.1-2.1
			c0.1-0.5,0.3-1,0.7-1.5c0.4-0.5,0.8-0.9,1.4-1.1c0.6-0.3,1.3-0.4,2.1-0.4c1.6,0,2.8,0.4,3.6,1.2c0.8,0.8,1.2,1.8,1.2,3
			c0,0.9-0.2,1.9-0.7,2.9c-0.5,1-1.8,3.2-4,6.5H389.6z"/>
		<path class="st1" d="M400.5,575.6v5.3c0,1.2-0.1,2.1-0.2,2.6c-0.1,0.6-0.4,1.1-0.8,1.5c-0.4,0.5-0.9,0.8-1.5,1
			c-0.6,0.2-1.2,0.3-2,0.3c-0.9,0-1.7-0.1-2.4-0.3c-0.6-0.2-1.1-0.6-1.5-1c-0.4-0.5-0.6-1-0.8-1.5c-0.2-0.5-0.2-1.3-0.2-2.5v-5.6
			c0-1.5,0.1-2.6,0.4-3.3c0.3-0.7,0.8-1.3,1.5-1.7c0.7-0.4,1.7-0.7,2.7-0.7c0.9,0,1.7,0.2,2.3,0.5s1.2,0.7,1.5,1.1
			c0.3,0.4,0.6,0.9,0.7,1.5C400.5,573.5,400.5,574.4,400.5,575.6z M396.5,574.3c0-0.8,0-1.4-0.1-1.6c-0.1-0.2-0.3-0.3-0.6-0.3
			c-0.3,0-0.5,0.1-0.6,0.3c-0.1,0.2-0.1,0.7-0.1,1.6v7.8c0,0.9,0,1.5,0.1,1.7c0.1,0.2,0.3,0.3,0.6,0.3c0.3,0,0.5-0.1,0.6-0.3
			c0.1-0.2,0.1-0.7,0.1-1.5V574.3z"/>
		<path class="st1" d="M408.1,570.2v15.9h-4v-8.5c0-1.2,0-2-0.1-2.2s-0.2-0.4-0.5-0.6c-0.3-0.1-0.9-0.2-1.8-0.2h-0.4v-1.9
			c1.9-0.4,3.4-1.3,4.4-2.5H408.1z"/>
		<path class="st1" d="M419.1,574.4h-4c0-0.7,0-1.2,0-1.4c0-0.2-0.1-0.4-0.2-0.5c-0.1-0.1-0.3-0.2-0.6-0.2c-0.2,0-0.4,0.1-0.5,0.2
			c-0.1,0.1-0.2,0.3-0.2,0.5c0,0.2,0,0.6,0,1.2v2.5c0.2-0.4,0.5-0.7,0.9-1c0.4-0.2,0.9-0.3,1.5-0.3c0.7,0,1.4,0.2,1.9,0.6
			c0.6,0.4,0.9,0.9,1.1,1.4c0.2,0.6,0.2,1.3,0.2,2.2v1.3c0,1.1,0,1.9-0.1,2.5c-0.1,0.5-0.3,1-0.7,1.5c-0.4,0.5-0.9,0.8-1.5,1.1
			c-0.6,0.3-1.4,0.4-2.3,0.4c-1.1,0-1.9-0.1-2.6-0.4c-0.7-0.3-1.2-0.7-1.6-1.3c-0.4-0.6-0.6-1.1-0.6-1.7c-0.1-0.6-0.1-1.8-0.1-3.5
			v-2.2c0-1.9,0-3.2,0.1-3.8c0.1-0.6,0.3-1.2,0.7-1.8c0.4-0.6,0.9-1,1.6-1.3c0.7-0.3,1.5-0.4,2.4-0.4c1.1,0,2,0.2,2.7,0.5
			c0.7,0.4,1.2,0.9,1.5,1.5C419,572.6,419.1,573.5,419.1,574.4z M415.2,579.4c0-0.6-0.1-0.9-0.2-1.2c-0.1-0.2-0.3-0.3-0.6-0.3
			c-0.3,0-0.5,0.1-0.6,0.3c-0.1,0.2-0.2,0.6-0.2,1.2v2.9c0,0.7,0.1,1.2,0.2,1.4c0.1,0.2,0.3,0.3,0.6,0.3c0.2,0,0.3-0.1,0.5-0.3
			c0.2-0.2,0.3-0.6,0.3-1.4V579.4z"/>
	</g>
	<g>
		<g>
			<circle class="st1" cx="400" cy="482.5" r="79.6"/>
			<path class="st0" d="M400,402.9c-44,0-79.6,35.6-79.6,79.6c0,44,35.6,79.6,79.6,79.6s79.6-35.6,79.6-79.6
				C479.6,438.6,444,402.9,400,402.9z M327.2,503.9c1.5-7.8,3.4-12.7,5-15.7c2.4,4,11.9,6.9,15,7.8c2.6,6.5,7.7,17.4,16.4,30
				l-1.7,13.3c-3.9-0.2-9.7-0.6-14-1.7C338.2,528.5,331,516.9,327.2,503.9z M362.4,540.7c2.4,2,11.4,8.9,26.4,11.8l2,5.4
				c-15.6-1.9-29.8-8.5-41-18.5C354.1,540.2,359.1,540.5,362.4,540.7z M364.4,524.6c-8.6-12.4-13.5-23.1-16-29.4
				c1.9-7.1,9.5-19.6,11.2-22.3l32.8,1.7l12,23.4l-13.8,26.6C388.3,524.8,377,525.7,364.4,524.6z M372.4,425.7l28,0.6l9,26.9
				l-16.3,20.2l-33.7-1.8c-1.9-4-6.3-16.1-7.7-20.1C360,438.2,367.8,429.9,372.4,425.7z M372.1,414.9l-4.3-1.1
				c8.1-3.8,17.1-6.2,26.5-7C388.5,408.7,377.7,412.3,372.1,414.9z M468.5,467.3c0.5,8.7,0.6,24.4-3.3,36.8c-2.9,2.1-9.1,6-16.1,7.8
				l-15.9-19.6l2.7-28.2l18.5-10.9C456.6,454.4,462,458.1,468.5,467.3z M434.8,463.1L410.8,453l-9.1-27c1-1.2,5.3-5.7,12.3-9.3
				c6.7,1.8,21.4,6.5,32.8,14.7c1.7,3.4,6.5,13.7,6.4,20.8L434.8,463.1z M405.8,498.4l26.4-5.2l15.9,19.6c-1,3.3-5.6,16.7-11.9,23.8
				c-13.7,3.4-24.6,4.6-31.5,5.1c-2.4-2.7-8.9-9.9-12.9-16.1L405.8,498.4z M467,502.9c2.2-8,2.9-16.8,3.1-23.8
				c0.1-5.1-0.1-9.7-0.3-13.1c0.8-1.1,1.9-2.4,3.5-3.1c1.7,6.2,2.6,12.8,2.6,19.5c0,12.8-3.2,24.9-8.9,35.6V502.9z M459.4,435.4
				c-2.7-1.4-6.8-3.2-10.9-4.5c-11.1-8.3-25.6-13.1-33-15.2c-1.3-0.9-6.8-4.9-15.3-9C424.1,406.7,445.5,417.9,459.4,435.4z
				 M365.8,414.8l5.8,1.4v8.2c-4.6,4.3-12.5,12.5-20.9,25.8c-8.1,2.3-15,7.7-17.6,10l-4.9-2.4C334.7,439.1,348.3,423.7,365.8,414.8z
				 M327.8,459.2l4.2,2.1c0,0,0,0,0,0c-1.1,14.3-0.6,21.7-0.3,24.8c-1.6,2.6-3.7,7.2-5.4,14.9c-1.5-5.9-2.3-12-2.3-18.4
				C324.1,474.4,325.4,466.6,327.8,459.2z M392.4,558.1l-2.1-5.7c2.1-0.7,8-3,15-9.4c7.2-0.5,18.3-1.8,32-5.3
				c1.9,1.2,5.5,3.3,9.6,4.4c-12.9,10.2-29.2,16.3-46.9,16.3C397.4,558.4,394.9,558.3,392.4,558.1z"/>
		</g>
		<linearGradient id="SVGID_1_" gradientUnits="userSpaceOnUse" x1="338.2967" y1="439.1086" x2="468.524" y2="530.7775">
			<stop  offset="0.1" style="stop-color:#FFFFFF;stop-opacity:0"/>
			<stop  offset="1" style="stop-color:#000000;stop-opacity:0.5"/>
		</linearGradient>
		<circle class="st4" cx="400" cy="482.5" r="79.6"/>
	</g>
</g>
</svg>
