<?xml version="1.0" encoding="utf-8"?>
<!-- Generator: Adobe Illustrator 23.0.3, SVG Export Plug-In . SVG Version: 6.00 Build 0)  -->
<svg version="1.1" id="图层_1" xmlns="http://www.w3.org/2000/svg" xmlns:xlink="http://www.w3.org/1999/xlink" x="0px" y="0px"
	 viewBox="0 0 800 800" style="enable-background:new 0 0 800 800;" xml:space="preserve">
<style type="text/css">
	.st0{fill:#003C8C;}
</style>
<g>
	<path class="st0" d="M400,651.7c0,0,261.2-130.7,240.2-466.4c0,0-149.6-27.3-240.2-115.2c-90.6,87.9-240.2,115.2-240.2,115.2
		C138.8,521,400,651.7,400,651.7z M247,218.1h38.6c-1.2-15.6-1.5-28.7-1.6-38.2c19.7-8.2,38.4-17.3,55.7-26.9
		c22.3-12.4,42.5-26,60.3-40.5c17.8,14.5,38,28.1,60.3,40.5c17.3,9.7,36,18.7,55.7,26.9c0,9.6-0.4,22.6-1.6,38.2H553v83.8h-51.3
		c-8.8,38.2-23,80-45.6,119.6c16.5,15.2,26.8,36.9,26.8,61.1c0,45.8-37.2,83-83,83s-83-37.2-83-83c0-24.2,10.3-45.9,26.8-61.1
		c-22.6-39.6-36.8-81.4-45.6-119.6H247V218.1z M540.5,355.7l-11.6-8.4l-11.6,8.4l4.4-13.6l-11.6-8.4h14.4l4.4-13.7l4.4,13.7h14.4
		l-11.6,8.4L540.5,355.7z M414.5,575.8c0.4-0.2,0.9-0.3,1.5-0.3c0.7,0,1.4,0.2,1.9,0.6c0.6,0.4,0.9,0.9,1.1,1.4
		c0.2,0.6,0.2,1.3,0.2,2.2v1.3c0,1.1,0,1.9-0.1,2.5c-0.1,0.5-0.3,1-0.7,1.5c-0.4,0.5-0.9,0.8-1.5,1.1c-0.6,0.3-1.4,0.4-2.3,0.4
		c-1.1,0-1.9-0.1-2.6-0.4c-0.7-0.3-1.2-0.7-1.6-1.3c-0.4-0.6-0.6-1.1-0.6-1.7c-0.1-0.6-0.1-1.8-0.1-3.5v-2.2c0-1.9,0-3.2,0.1-3.8
		c0.1-0.6,0.3-1.2,0.7-1.8c0.4-0.6,0.9-1,1.6-1.3c0.7-0.3,1.5-0.4,2.4-0.4c1.1,0,2,0.2,2.7,0.5c0.7,0.4,1.2,0.9,1.5,1.5
		c0.3,0.7,0.5,1.5,0.5,2.5h-4c0-0.7,0-1.2,0-1.4c0-0.2-0.1-0.4-0.2-0.5c-0.1-0.1-0.3-0.2-0.6-0.2c-0.2,0-0.4,0.1-0.5,0.2
		c-0.1,0.1-0.2,0.3-0.2,0.5c0,0.2,0,0.6,0,1.2v2.5C413.8,576.3,414.1,576,414.5,575.8z M404,575.4c-0.1-0.2-0.2-0.4-0.5-0.6
		c-0.3-0.1-0.9-0.2-1.8-0.2h-0.4v-1.9c1.9-0.4,3.4-1.3,4.4-2.5h2.3v15.9h-4v-8.5C404.1,576.4,404.1,575.6,404,575.4z M400.5,575.6
		v5.3c0,1.2-0.1,2.1-0.2,2.6c-0.1,0.6-0.4,1.1-0.8,1.5c-0.4,0.5-0.9,0.8-1.5,1c-0.6,0.2-1.2,0.3-2,0.3c-0.9,0-1.7-0.1-2.4-0.3
		c-0.6-0.2-1.1-0.6-1.5-1c-0.4-0.5-0.6-1-0.8-1.5c-0.2-0.5-0.2-1.3-0.2-2.5v-5.6c0-1.5,0.1-2.6,0.4-3.3c0.3-0.7,0.8-1.3,1.5-1.7
		c0.8-0.4,1.7-0.7,2.7-0.7c0.9,0,1.7,0.2,2.3,0.5s1.2,0.7,1.5,1.1c0.3,0.4,0.6,0.9,0.7,1.5C400.5,573.5,400.5,574.4,400.5,575.6z
		 M389.6,583.4v2.7h-8.7l0-2.3c2.6-4.2,4.1-6.8,4.6-7.9c0.5-1,0.7-1.8,0.7-2.4c0-0.4-0.1-0.8-0.2-1c-0.1-0.2-0.4-0.3-0.7-0.3
		c-0.3,0-0.5,0.1-0.7,0.4c-0.1,0.2-0.2,0.7-0.2,1.4v1.5h-3.6v-0.6c0-0.9,0-1.6,0.1-2.1c0.1-0.5,0.3-1,0.7-1.5
		c0.4-0.5,0.8-0.9,1.4-1.1c0.6-0.3,1.3-0.4,2.1-0.4c1.6,0,2.8,0.4,3.6,1.2c0.8,0.8,1.2,1.8,1.2,3c0,0.9-0.2,1.9-0.7,2.9
		s-1.8,3.2-4,6.5H389.6z M282.7,355.7l-11.6-8.4l-11.6,8.4l4.4-13.6l-11.6-8.4h14.4l4.4-13.7l4.4,13.7h14.4l-11.6,8.4L282.7,355.7z
		 M218.2,389c-19.9-54.9-29.2-114.7-27.8-178.1c5.8-1.5,12.6-3.3,20-5.4C220.4,473.8,400,607.1,400,607.1s179.6-133.3,189.6-401.6
		c7.4,2.1,14.2,3.9,20,5.4c1.4,62.8-7.8,122.1-27.2,176.5c-17.5,48.9-43.4,94.2-76.9,134.6c-30.1,36.3-61,61.9-81.5,77
		c-9.4,6.9-17.6,12.3-23.9,16.2c-21.2-13.1-62.9-42.5-103.7-91.1C262.3,483.6,236,438.1,218.2,389z"/>
	<path class="st0" d="M96.7,355c41.7-17.3,42.5-62.8,42.5-62.8c-40.1,18.6-42.5,54.1-42.5,54.1c-4.1-38-42.5-54.1-42.5-54.1
		C57.4,340.2,96.7,355,96.7,355z"/>
	<path class="st0" d="M96.7,412.4c45.4-23.1,44.6-66.1,44.6-66.1C101.6,363.7,96.7,400,96.7,400c-7-39.7-44.6-53.6-44.6-53.6
		C57.4,399.6,96.7,412.4,96.7,412.4z"/>
	<path class="st0" d="M97.5,251.4c0,0,33.9-20.2,0-66.9C97.5,184.5,66.1,225,97.5,251.4z"/>
	<path class="st0" d="M96.2,298.5c42.5-20.6,40.5-59.5,40.5-59.5c-36.3,16.9-40.5,50.4-40.5,50.4C90.1,252.2,56.6,239,56.6,239
		C56.2,279.1,96.2,298.5,96.2,298.5z"/>
	<path class="st0" d="M107.4,469c38.8-34.3,36.3-71.4,36.3-71.4c-42.5,19-40.5,58.2-40.5,58.2C90.5,419,50,401.9,50,401.9
		C57.4,463.4,107.4,469,107.4,469z"/>
	<path class="st0" d="M682.7,505.8c0,0,7-35.1-32.6-60.3c0,0-5.8,49.1,23.5,79.3c0,0,49.1,3.3,67.7-59.9
		C741.3,464.9,699.2,474.4,682.7,505.8z"/>
	<path class="st0" d="M692.6,469c0,0,50-5.6,57.4-67.1c0,0-40.5,17.1-53.3,53.9c0,0,2.1-39.2-40.5-58.2
		C656.3,397.6,653.8,434.7,692.6,469z"/>
	<path class="st0" d="M633.1,488c0,0-12.9,50,13,86.3c0,0,53.1,13.7,83.2-49.5c0,0-42.9,3.3-74.1,35.1
		C655.2,559.8,672.8,525.4,633.1,488z"/>
	<path class="st0" d="M703.3,412.4c0,0,39.2-12.8,44.6-66.1c0,0-37.6,13.9-44.6,53.6c0,0-5-36.2-44.6-53.6
		C658.7,346.4,657.9,389.3,703.3,412.4z"/>
	<path class="st0" d="M703.8,298.5c0,0,40.1-19.4,39.6-59.5c0,0-33.4,13.2-39.6,50.4c0,0-4.1-33.4-40.5-50.4
		C663.3,239,661.2,277.8,703.8,298.5z"/>
	<path class="st0" d="M702.5,251.4c31.4-26.4,0-66.9,0-66.9C668.7,231.2,702.5,251.4,702.5,251.4z"/>
	<path class="st0" d="M579.9,641.6c0,0,28.9-31.4,2.5-77.2c0,0-27.7,41.7-21.5,89.6c0,0,42.9,38.8,106.5-15.3
		C667.4,638.7,612.9,627.1,579.9,641.6z"/>
	<path class="st0" d="M703.3,355c0,0,39.2-14.9,42.5-62.8c0,0-38.4,16.1-42.5,54.1c0,0-2.5-35.5-42.5-54.1
		C660.8,292.3,661.6,337.7,703.3,355z"/>
	<path class="st0" d="M239.1,654c6.2-47.9-21.5-89.6-21.5-89.6c-26.4,45.8,2.5,77.2,2.5,77.2c-33-14.5-87.5-2.9-87.5-2.9
		C196.2,692.8,239.1,654,239.1,654z"/>
	<path class="st0" d="M192.5,618.1c15.7-54.9-4.1-88.4-4.1-88.4c-35.5,40.5-9.1,76.8-9.1,76.8c-31.4-28.1-84.6-22.7-84.6-22.7
		C143.3,644.9,192.5,618.1,192.5,618.1z"/>
	<path class="st0" d="M126.4,524.7c29.3-30.1,23.5-79.3,23.5-79.3c-39.6,25.2-32.6,60.3-32.6,60.3c-16.5-31.4-58.6-40.9-58.6-40.9
		C77.3,528,126.4,524.7,126.4,524.7z"/>
	<path class="st0" d="M153.9,574.3c25.8-36.3,13-86.3,13-86.3c-39.6,37.4-22.1,71.8-22.1,71.8c-31.2-31.8-74.1-35.1-74.1-35.1
		C100.8,588,153.9,574.3,153.9,574.3z"/>
	<path class="st0" d="M525.8,672.1c0,0,43.8-21.1,23.9-80.9c0,0-44.6,44.2-40.1,89.2c0,0,41.3,43.8,110.7,5
		C620.3,685.4,577.8,662.2,525.8,672.1z"/>
	<path class="st0" d="M290.3,680.4c4.5-45-40.1-89.2-40.1-89.2c-19.8,59.9,23.9,80.9,23.9,80.9c-52-9.9-94.6,13.2-94.6,13.2
		C249,724.2,290.3,680.4,290.3,680.4z"/>
	<path class="st0" d="M472.5,699.4c0,0,38.4-23.9,35.1-86.3c0,0-59.9,40.9-53.3,95c0,0,33,37.6,107.8,14
		C562.1,722.1,522.5,684.9,472.5,699.4z"/>
	<path class="st0" d="M292.4,613.1c-3.3,62.3,35.1,86.3,35.1,86.3c-50-14.5-89.6,22.7-89.6,22.7c74.7,23.5,107.8-14,107.8-14
		C352.2,654,292.4,613.1,292.4,613.1z"/>
	<path class="st0" d="M620.8,606.5c0,0,26.4-36.3-9.1-76.8c0,0-19.8,33.4-4.1,88.4c0,0,49.1,26.8,97.9-34.3
		C705.4,583.8,652.1,578.4,620.8,606.5z"/>
	<polygon class="st0" points="410.4,685.2 400,664.2 389.6,685.2 366.5,688.6 383.2,704.9 379.3,728 400,717.1 420.7,728 
		416.8,704.9 433.5,688.6 	"/>
	<polygon class="st0" points="344.7,322.5 340.1,322.5 340.1,317.1 345.3,317.1 345.3,311.4 332.7,311.4 332.7,340 340.1,340 
		340.1,328 344.7,328 	"/>
	<path class="st0" d="M351.3,339.8c1.2,0.5,2.6,0.8,4.1,0.8c1.6,0,3-0.3,4.2-0.8c1.2-0.5,2.2-1.3,2.9-2.3c0.7-1,1.1-2.1,1.3-3.3
		c0.1-1.2,0.2-3.2,0.2-6.1v-4.9c0-2.9-0.1-5-0.2-6.2c-0.1-1.2-0.6-2.3-1.3-3.3c-0.7-1-1.7-1.8-2.9-2.3c-1.2-0.5-2.6-0.8-4.1-0.8
		c-1.6,0-3,0.3-4.2,0.8s-2.2,1.3-2.9,2.3s-1.1,2.1-1.3,3.3c-0.1,1.2-0.2,3.2-0.2,6.1v4.9c0,2.9,0.1,5,0.2,6.2s0.6,2.3,1.3,3.3
		C349.1,338.6,350.1,339.3,351.3,339.8z M354.3,318.7c0-1.5,0.1-2.4,0.3-2.7c0.2-0.3,0.5-0.5,0.9-0.5c0.5,0,0.8,0.2,0.9,0.6
		c0.1,0.4,0.2,1.2,0.2,2.6v13.1c0,1.7-0.1,2.7-0.2,3.2c-0.1,0.4-0.5,0.7-1,0.7c-0.5,0-0.8-0.2-0.9-0.6s-0.2-1.4-0.2-3.1V318.7z"/>
	<path class="st0" d="M371.1,339.8c1.2,0.5,2.6,0.8,4.1,0.8c1.6,0,3-0.3,4.2-0.8c1.2-0.5,2.2-1.3,2.9-2.3c0.7-1,1.1-2.1,1.3-3.3
		c0.1-1.2,0.2-3.2,0.2-6.1v-4.9c0-2.9-0.1-5-0.2-6.2c-0.1-1.2-0.6-2.3-1.3-3.3c-0.7-1-1.7-1.8-2.9-2.3c-1.2-0.5-2.6-0.8-4.1-0.8
		c-1.6,0-3,0.3-4.2,0.8s-2.2,1.3-2.9,2.3s-1.1,2.1-1.3,3.3c-0.1,1.2-0.2,3.2-0.2,6.1v4.9c0,2.9,0.1,5,0.2,6.2
		c0.1,1.2,0.6,2.3,1.3,3.3C368.9,338.6,369.9,339.3,371.1,339.8z M374.1,318.7c0-1.5,0.1-2.4,0.3-2.7c0.2-0.3,0.5-0.5,0.9-0.5
		c0.5,0,0.8,0.2,0.9,0.6s0.2,1.2,0.2,2.6v13.1c0,1.7-0.1,2.7-0.2,3.2c-0.1,0.4-0.5,0.7-1,0.7c-0.5,0-0.8-0.2-0.9-0.6
		s-0.2-1.4-0.2-3.1V318.7z"/>
	<polygon class="st0" points="385.3,317.1 389.7,317.1 389.7,340 397.2,340 397.2,317.1 401.6,317.1 401.6,311.4 385.3,311.4 	"/>
	<path class="st0" d="M403.3,340h8.6c3,0,5-0.2,5.9-0.5c1-0.3,1.7-1,2.1-1.9c0.4-0.9,0.7-2.4,0.7-4.3v-2.7c0-1.9-0.3-3.2-0.9-4.1
		c-0.6-0.9-1.8-1.5-3.5-1.9c1.5-0.4,2.6-0.9,3.1-1.5c0.5-0.7,0.8-1.8,0.8-3.5c0-2.5-0.4-4.3-1.1-5.4c-0.7-1.1-1.7-1.9-2.9-2.2
		c-1.2-0.4-3-0.5-5.3-0.5h-7.4V340z M410.7,316.3c0.8,0,1.3,0.1,1.5,0.2c0.3,0.1,0.5,0.3,0.6,0.7s0.2,1,0.2,1.9
		c0,1.7-0.1,2.7-0.3,3.1c-0.2,0.4-0.7,0.5-1.4,0.5c-0.2,0-0.4,0-0.7,0V316.3z M410.7,327.1c1.1,0,1.8,0.2,2,0.4
		c0.3,0.3,0.4,1,0.4,2.2v2.7c0,1.2-0.1,1.9-0.4,2.2c-0.3,0.3-1,0.5-2,0.5V327.1z"/>
	<path class="st0" d="M436.1,311.4h-10.7l-3.8,28.6h7.7l0.4-5.1h2.7l0.4,5.1h7.6L436.1,311.4z M429.6,329.8c0.2-2.5,0.7-6.5,1.4-12
		c0.4,4.8,0.8,8.8,1.1,12H429.6z"/>
	<polygon class="st0" points="441.6,311.4 441.6,340 453.6,340 453.6,334.2 449.1,334.2 449.1,311.4 	"/>
	<polygon class="st0" points="462.8,311.4 455.4,311.4 455.4,340 467.3,340 467.3,334.2 462.8,334.2 	"/>
	<path class="st0" d="M365.9,358.1c-0.7,1-1.1,1.9-1.3,3c-0.1,1-0.2,2.6-0.2,4.6v8.4c0,2.8,0.2,4.9,0.7,6.3c0.5,1.4,1.4,2.5,2.8,3.3
		s3.2,1.2,5.4,1.2c2.1,0,3.9-0.5,5.3-1.4c1.4-0.9,2.4-2,2.8-3.3c0.4-1.2,0.6-3.3,0.6-6.3v-1.1h-7.4v3.6c0,1.6-0.1,2.6-0.3,3
		c-0.2,0.4-0.5,0.6-1.1,0.6c-0.6,0-0.9-0.2-1.1-0.6s-0.2-1.3-0.2-2.7v-13.3c0-1.4,0.1-2.4,0.2-2.8s0.6-0.7,1.2-0.7
		c0.5,0,0.9,0.2,1.1,0.5c0.2,0.4,0.2,1.3,0.2,2.7v5h7.4v-2.7c0-2.7-0.2-4.6-0.7-5.9s-1.4-2.3-2.8-3.2c-1.4-0.8-3.2-1.3-5.4-1.3
		c-1.6,0-3,0.3-4.3,0.8C367.6,356.4,366.6,357.2,365.9,358.1z"/>
	<polygon class="st0" points="384.7,355.7 384.7,384.3 396.7,384.3 396.7,378.5 392.1,378.5 392.1,355.7 	"/>
	<path class="st0" d="M398.3,372.6c0,3.2,0.1,5.3,0.2,6.4c0.1,1,0.5,2,1.1,2.9c0.6,0.9,1.6,1.6,2.9,2.2c1.3,0.6,2.8,0.8,4.5,0.8
		c1.5,0,2.9-0.2,4-0.7s2.1-1.2,2.7-2.1c0.7-0.9,1.1-1.8,1.3-2.7c0.1-0.9,0.2-2.4,0.2-4.6v-19.1h-7.4v21.1c0,1.4-0.1,2.3-0.2,2.7
		s-0.4,0.6-0.9,0.6c-0.4,0-0.7-0.2-0.8-0.5s-0.2-1.1-0.2-2.4v-21.4h-7.4V372.6z"/>
	<path class="st0" d="M435,363.8c0-2.5-0.4-4.3-1.1-5.4c-0.7-1.1-1.7-1.9-2.9-2.2c-1.2-0.4-3-0.5-5.3-0.5h-7.4v28.6h8.6
		c3,0,5-0.2,5.9-0.5s1.7-1,2.1-1.9c0.4-0.9,0.7-2.4,0.7-4.3v-2.7c0-1.9-0.3-3.2-0.9-4.1c-0.6-0.9-1.8-1.5-3.5-1.9
		c1.5-0.4,2.6-0.9,3.1-1.5C434.8,366.6,435,365.5,435,363.8z M428.1,376.7c0,1.2-0.1,1.9-0.4,2.2c-0.3,0.3-1,0.5-2,0.5v-8
		c1.1,0,1.8,0.2,2,0.4s0.4,1,0.4,2.2V376.7z M427.8,366.4c-0.2,0.4-0.7,0.5-1.4,0.5c-0.2,0-0.4,0-0.7,0v-6.4c0.8,0,1.3,0.1,1.5,0.2
		c0.3,0.1,0.5,0.3,0.6,0.7c0.2,0.4,0.2,1,0.2,1.9C428.1,365,428,366,427.8,366.4z"/>
	<path class="st0" d="M342.8,199.3c0.2,0.2,0.5,0.7,1,1.5c0.5,0.8,0.9,1.5,1.1,2c0.3,0.5,0.6,1.1,1.2,1.8l0.6,0.5l1.3,1.5
		c0.3-0.1,1.1-0.8,2.5-2c0.8-1.1,1.3-1.9,1.5-2.4c0.2-0.5,0.4-0.9,0.6-1.3c0.2-0.4,0.4-0.7,0.4-1c0.1-0.3,0.3-0.9,0.8-1.9
		c0.4-1,0.8-2,1.1-3.3l-0.6-0.6c0.1-0.3,0.1-0.6-0.1-0.9l0.7-1.4l0.1,0.3c0.1-0.6,0.3-1.4,0.7-2.5c0.4-1.1,0.6-2,0.6-2.8
		c0.1-0.8,0.1-1.3,0.3-1.6c0.1-0.3,0.2-0.7,0.3-1c0.1-0.3,0.4-0.9,0.9-1.7c0.6,0.2,1.1,0.5,1.6,0.9c0.4-0.2,0.7-0.3,1-0.3
		c0.2,0,0.9-0.6,2-1.7l1-1.3l0.3-0.1l-1.3,3.1c-0.4,0.3-0.8,0.5-1.1,0.4s-0.8,0.1-1.2,0.4c-0.4,0.4-1,0.7-1.8,1
		c-0.2,0.2-0.3,0.6-0.5,1.1c-0.1,0.5-0.2,1-0.3,1.6c0,0.5-0.1,1-0.2,1.5c-0.1,0.5,0,1.5,0.3,3.1c0.3,1.6,0.4,2.5,0.3,2.6
		c-0.1,0.2-0.1,0.3,0,0.5c0.1,0.1,0.2,0.5,0.2,1.1l0.6,0.6l1.2,1.8c1.5,1.4,2.4,2.1,2.5,2.1c0.1,0,0.3,0.1,0.4,0.1
		c0.2,0.1,0.4,0,0.7-0.2c0.3-0.2,0.7-0.2,1-0.2c0.2-0.7,0.2-1.2,0.2-1.4c0-0.2,0-0.4,0-0.6c0-0.2,0-0.4-0.1-0.6
		c-0.1-0.2,0-0.6,0.2-1.1c2-1.1,4.1-1.8,6.3-2.1c0.1-0.5,0.2-0.8,0.3-0.9c0.1-0.2,0-0.6-0.1-1.2c-0.8-0.5-1.6-1-2.4-1.3l1.1-1.2
		c1.9-1.4,3.2-2.3,3.8-2.6c0.3-0.8,0.4-1.4,0.6-1.7c0.1-0.3,0.2-0.6,0.1-0.8c-0.1-0.3-0.1-0.6-0.1-0.8c0-0.3-0.1-0.6-0.3-0.8
		c-0.2-0.2-0.5-0.7-0.9-1.3c-0.8-0.5-1.7-0.8-2.7-1c-1-0.1-1.6-0.2-1.8-0.2c-0.2,0-0.5,0.1-1,0.1c0.1-0.6,0.4-1.4,0.8-2.5
		c0.4-1.1,0.7-1.8,0.8-2.1c0.1-0.3,0.4-0.8,0.9-1.4c0.9-0.5,1.7-0.8,2.5-0.8c0.7,0,1.3,0,1.6,0.1c0.3,0.1,0.8,0.1,1.4,0
		c0.4-1,0.6-2,0.7-3l-0.6-0.8c-1.4-0.3-2.2-0.5-2.6-0.5c-0.3,0-0.7,0-1-0.1c-0.3,0-0.6,0-0.8,0c-0.3,0.1-0.6,0.1-1.1,0.2
		c-0.1-0.4,0.2-1.4,0.9-2.8c0.7-1.5,1.1-2.4,1.4-2.9c0.3-0.4,0.5-0.9,0.5-1.4c0-0.5,0.1-1,0.2-1.4c0.1-0.5,0.1-0.8,0.1-1
		c-0.1-0.2-0.1-0.5-0.2-0.7c0-0.2-0.1-0.4-0.3-0.6c-0.2-0.2-0.5-0.6-0.9-1.2c-1.6-0.7-3.3-1.2-5-1.6c-1.2,0.2-1.9,0.3-2,0.3
		c-0.1,0-0.3,0.1-0.6,0.3c-0.3,0.2-0.7,0.3-1.2,0.4c0,0.6-0.1,1-0.2,1.2c-0.1,0.2,0.1,0.6,0.5,1.1c0.4,0.5,0.8,1,1.1,1.6
		c0.3,0.5,0.6,1,0.8,1.3c0.2,0.3,0.4,0.6,0.6,0.8c0.2,0.2,0.3,0.4,0.3,0.6c0,0.2-0.1,0.9-0.2,2.2c-0.1,1.3-0.2,2.2-0.3,2.7
		c-0.1,0.5-0.3,1.5-0.6,3.1c-3.4,1-5.2,1.6-5.4,1.7c-0.2,0.1-0.5,0.1-0.8-0.1c-0.3-0.2-0.6-0.2-0.8-0.2c-0.2,0.1-0.4,0-0.6-0.1
		c-0.2-0.1-0.4-0.1-0.6,0l-0.1,0.3h-0.5l-0.1,0.2c-0.3,0.1-0.5,0.2-0.7,0.2c-0.2,0.1-0.5,0-1.1-0.3c-0.1,0.4-0.2,0.7-0.2,0.9
		c0,0.3-0.1,0.6-0.3,0.9c0.2,0.5,0.3,0.8,0.3,1c0,0.2,0.2,0.7,0.4,1.4c0.3,0.7,0.5,1.2,0.9,1.6c0.3,0.3,0.5,0.7,0.6,1.1
		c0.1,0.4,0.2,0.7,0.3,0.9c-1.6,2.5-4.6,6.5-9.2,11.7l-0.6,0.3c0.1-0.7,0.2-1.2,0.2-1.5c0-0.3,0.8-2.1,2.4-5.4
		c0.5-0.5,1-0.9,1.5-1.2c0.3-0.5,0.6-0.9,0.8-1.4l0.9-0.8c0.2-0.6,0.3-1,0.4-1.2c0.1-0.2,0.1-0.4,0.1-0.6c0-0.2-0.1-0.4-0.1-0.6
		c0-0.2-0.2-0.6-0.5-1.4c-0.3-0.8-0.6-1.4-0.9-1.9c-0.3-0.5-0.5-1-0.4-1.5c-0.5-0.6-1.1-1-1.8-1.4c-0.4-0.5-0.7-0.9-0.9-1.1
		c-0.2-0.2-0.4-0.8-0.6-1.7h-1.2c-0.3,0.5-0.6,0.8-0.8,1c-0.2,0.2-0.3,0.6-0.2,1.2c0,0.6,0,1.2,0,1.8c-0.1,0.6,0,2,0.3,4.1
		c0.3,2.2,0.4,3.6,0.5,4.4c0.1,0.7,0.1,1.3,0.1,1.8c0,0.4-0.1,0.9-0.1,1.5c0,0.5-0.1,1.2-0.3,2c-0.2,0.8-0.3,1.6-0.4,2.4
		c-0.1,0.8-0.3,1.5-0.4,1.9c-0.2,0.4-0.4,1.2-0.8,2.3l-1.9,0.8c-0.3,0.5-0.4,0.8-0.3,0.9c0,0.2,0.1,0.4,0.1,0.6
		C342.5,198.9,342.6,199.1,342.8,199.3z M363.3,189.7l-0.4,0.1c0-0.3,0.1-0.9,0.4-1.8c1-0.8,1.7-1.2,2.1-1.3L363.3,189.7z"/>
	<path class="st0" d="M349.1,161c0,0.2,0.1,0.4,0.2,0.7l0.5,0.4c0.3,0.7,1,1.7,2.1,3l-1.3,5l0.7,0.6c0.5-0.3,1-0.7,1.6-1.3
		c0.6-0.6,1-0.9,1.3-1c0.3-0.1,0.6-0.2,0.8-0.3c0.3-0.1,0.7-0.2,1.1-0.3c0.5-0.1,0.8-0.2,1.1-0.5c0.3-0.2,0.7-0.3,1.2-0.3l0.9-1.6
		c-0.1-0.4,0-0.9,0.1-1.6c0.2-0.7,0.2-1.1,0.2-1.2c-0.1-0.1-0.2-0.3-0.3-0.6c-1-0.8-2.3-1.6-3.9-2.3c-1.7-0.7-2.6-1.1-2.8-1.1
		c-0.2,0-0.6,0-1.1-0.1l-2.8,0.8c0.2,0.8,0.3,1.2,0.3,1.2C349.1,160.7,349.1,160.8,349.1,161z"/>
	<path class="st0" d="M377.6,163.9c0,0.2,0,0.3,0.1,0.4c0.1,0.1,0.2,0.3,0.4,0.5c-0.5,3.1-1.2,7.9-2,14.7
		c-0.8,6.7-1.3,10.6-1.5,11.5c-0.2,1-0.4,1.9-0.5,2.9c-0.1,0.9-0.3,1.8-0.6,2.5c-0.3,0.7-0.5,1.4-0.7,2.1c-0.2,0.6-0.4,1.3-0.7,1.8
		c-0.3,0.6-0.5,1.1-0.8,1.6c-0.2,0.5-0.7,1.2-1.4,2.2l-1.3,0.1c0.1,0.3,0.1,0.6,0.1,0.8c0,0.3-0.1,0.6-0.2,1
		c-0.1,0.4-0.2,0.7-0.1,0.8c0.1,0.1,0.2,0.3,0.4,0.7l0.4,0.3c0.8-0.4,1.3-0.7,1.6-0.8c0.3-0.1,1.8-1.4,4.6-3.9
		c0.9-1,1.6-1.9,2.2-2.6c0.6-0.8,1.1-1.7,1.7-2.8c0.8,1.8,1.4,3.1,1.7,3.9c0.3,0.7,0.7,1.4,1.3,1.9c0.5,0.6,1.3,1.5,2.4,2.9
		c1.3,1,2.1,1.7,2.5,1.9c0.4,0.2,1.2,0.5,2.4,0.9c1.1,0.4,1.8,0.7,2.1,0.8c0.2,0.1,0.5,0.3,0.7,0.4c0.3,0.2,0.5,0.2,0.6,0.1
		c0.2-0.1,0.4-0.2,0.8-0.3c0.3-0.5,0.6-0.8,0.7-0.9c0.1-0.1,0.2-0.4,0.3-0.7c0-0.4,0-0.7-0.2-1.1c-0.2-0.4-0.4-0.7-0.6-1.1
		c-0.2-0.4-0.4-0.9-0.5-1.6c-0.2-0.7-0.3-1.6-0.5-2.6c-0.1-1-0.3-2.2-0.5-3.4c-0.2-1.2-0.4-3-0.7-5.4c-0.3-2.4-0.5-5.8-0.8-10.1
		c-0.2-4.3-0.3-6.9-0.3-7.5c0-0.7,0.1-1.3,0-2c0-0.6,0.1-1.2,0.3-1.8c0.2-0.5,0.4-1,0.5-1.4c0.1-0.4,0.3-0.8,0.4-1
		c0.2-0.3,0.3-0.6,0.3-1.2l0.7-0.4c0-0.5,0.2-0.9,0.3-1.3c0.2-0.4,0.2-0.6,0.2-0.8c-0.1-0.1-0.2-0.4-0.3-0.8
		c-1.4-1.3-2.2-1.9-2.5-2.1c-0.3-0.1-0.6-0.3-0.8-0.4c-0.3-0.1-0.6-0.2-1-0.2c-0.4,0-0.8,0-1.2-0.1c-0.4,0-1.2,0-2.4,0.3
		c-1.2,0.2-1.9,0.3-2,0.2c-0.1-0.1-0.3-0.1-0.6-0.1c-0.2,0-1.2-0.3-2.9-0.9l-1.8,0.4c-0.2,0.4-0.3,0.6-0.4,0.8
		c-0.1,0.1-0.1,0.3-0.1,0.4C377.6,163.6,377.6,163.7,377.6,163.9z M389.9,204.1c-0.7,0.1-1.2,0.1-1.5,0c-0.3-0.1-0.5-0.1-0.8-0.2
		c-0.3,0-1-0.4-2.3-1.2c-0.5-0.7-0.9-1.2-1.1-1.5c-0.3-0.3-0.4-0.7-0.6-1.3c-0.1-0.6-0.3-1.1-0.5-1.7c-0.2-0.6-0.4-1.6-0.6-3.1
		c3-2.7,4.9-4.3,5.7-4.7l0.4,0.2L389.9,204.1z M385.3,185.5c0.5-1.8,1-3.5,1.5-4.9c0.5-1.4,0.9-2.3,0.9-2.6l0.5-0.1l0.2,7.3
		l-0.3-0.3l-0.2,0.2c-0.2-0.1-0.4-0.2-0.5-0.2c-0.1-0.1-0.8,0.2-2,0.7L385.3,185.5z M383.5,170c0.1-0.3,0.3-1.1,0.8-2.4
		c1.4-0.9,2.2-1.4,2.6-1.6c0.3-0.2,0.9-0.3,1.8-0.4l-0.5,10c-0.3,0.1-0.9,0-1.7-0.2c-0.8-0.2-2.1,0-4.1,0.7
		C383.1,172.3,383.5,170.3,383.5,170z M381.9,188.2c0.1-0.8,0.1-1.5,0.2-2.2c0-0.7,0.1-1.3,0.3-1.9c0.2-0.6,0.3-1.1,0.4-1.6
		c0.1-0.5,0.3-0.9,0.5-1.3c0.3-0.3,0.7-0.9,1.3-1.8l0.4-0.4c-0.1,1.3-0.1,2.2-0.1,2.6c0,0.4-0.3,1.3-0.9,2.8c-0.6,1.4-1,2.2-1.2,2.4
		c-0.1,0.2-0.2,0.3-0.1,0.5c0,0.2,0.1,0.4,0.1,0.6c0,0.2,0,0.4,0.1,0.6c0.1,0.2,0.3,0.6,0.5,1.3c0.4,0.2,0.8,0.2,1.1,0.1
		c0,0.2-0.3,0.8-0.8,1.7c-0.5,0.9-1,1.7-1.5,2.2c-0.1-1.7-0.2-2.9-0.3-3.5C381.9,189.6,381.9,189,381.9,188.2z"/>
	<path class="st0" d="M434.3,179.7c0,2.3-0.1,4.3-0.2,6c-0.1,1.8-0.2,2.9-0.1,3.6c0.1,0.6,0.2,2.2,0.4,4.8c-0.5,0.5-1,0.8-1.6,1.1
		c-0.1,0.7-0.2,1.1-0.2,1.3c-0.1,0.2,0.1,0.7,0.5,1.4c0.4,0.7,0.7,1.3,0.8,1.7c0.1,0.4,0.2,0.7,0.4,0.9c0.1,0.2,0.4,0.6,0.8,1.3
		c0.5,0.1,0.8,0.2,1,0.3c0.2,0.1,0.4,0.1,0.7,0c0.3-0.1,0.6-0.1,0.9-0.1c0.3,0,1.2-0.3,2.9-1c1.6-0.7,2.5-1.1,2.6-1.1
		c0.1-0.1,0.6-0.2,1.6-0.3c-0.7,1.3-1.6,2.5-2.6,3.5c1.6-0.8,2.6-1.1,2.8-1.1c0.2,0,0.5,0,0.7,0c0.3,0,0.6,0.1,1.2,0.4
		c0.8-0.3,1.4-0.5,1.7-0.4c0.3,0,0.5,0,0.8-0.2c0.2-0.2,1.1-0.3,2.6-0.5c1.5-0.2,2.4-0.3,2.7-0.3c0.3,0,1.2-0.8,2.8-2.5
		c0.1-0.4,0.2-0.7,0.2-0.9c0.1-0.2,0.1-0.4,0-0.5c-0.1-0.1-0.2-0.4-0.4-0.8c-0.9-0.8-1.6-1.4-2-1.6c-0.4-0.2-0.8-0.4-1.1-0.6
		c-0.4-0.2-1.3-0.6-2.9-1.1c-1.6-0.5-2.8-0.8-3.4-0.7c-0.7,0-1.4,0.1-2.2,0c-0.8,0-1.5,0-2.3,0.2c-0.7,0.1-1.8,0.2-3.2,0.3
		c-0.4-1.5-0.7-2.4-0.9-2.9c-0.2-0.5-0.2-1.6-0.1-3.4c0.1-1.8,0.1-2.9,0.1-3.2c0-0.3,0.1-0.7,0.2-1.2c0.1-0.5,0.3-1,0.3-1.5
		c0.1-0.5,0.3-1.1,0.7-1.6c3.3-1.2,5.1-1.8,5.4-1.9c0.3-0.1,0.5-0.1,0.8-0.1c0.3,0,0.6,0,0.9,0c0.3,0,0.5,0,0.7,0.1
		c0.1,0.1,0.5,0,1.1-0.2c0.8-1.2,1.2-1.8,1.4-2c0.2-0.2,0.3-0.3,0.5-0.5c0.1-0.1,0.2-0.3,0.2-0.5c0-0.2-0.1-0.4,0-0.6
		c0-0.2,0-0.4-0.1-0.6c-0.1-0.2-0.2-0.4-0.3-0.6c-0.1-0.2-0.3-0.4-0.4-0.6c-0.2-0.2-0.5-0.5-1-1.1c-0.8-0.3-1.5-0.6-1.9-0.8
		c-0.4-0.2-0.8-0.3-1.3-0.3c-0.4,0.1-0.9,0.1-1.4,0c-0.5,0-0.9,0.1-1.3,0.4c-0.4,0.3-1.1,0.9-2,1.6c0.1-1.6,0.1-2.5,0.1-2.7
		c0-0.2,0.1-0.7,0.3-1.5c0.2-0.8,0.3-1.3,0.3-1.6c0-0.3,0.1-0.7,0.3-1.1c0.2-0.4,0.2-0.8,0.1-1c-0.1-0.3-0.2-0.6-0.3-0.9
		c-0.1-0.3-0.2-0.6-0.4-0.8c-0.2-0.2-0.5-0.6-1-1.3c-1.8-1.2-4.2-2-7.1-2.5l-0.8,0.6c-0.2,1.3-0.1,2.3,0.2,2.9
		c0.3,0.7,0.5,1.3,0.8,2c0.2,0.7,0.4,1.3,0.5,1.7c0.1,0.5,0.2,0.9,0.3,1.2c0.1,0.4,0.1,0.7,0.1,1.2c0,0.4-0.1,1.9-0.1,4.5
		c-0.1,2.6-0.1,4.1-0.1,4.5c0,0.4-0.1,0.8-0.3,1.3l-2.1,1.4l-0.1,0.6C432.8,179.8,433.6,179.8,434.3,179.7z"/>
	<path class="st0" d="M409.3,203.2c0.1,0.1,0.2,0.4,0.2,0.8c0,0.4,0.1,0.7,0.2,0.8c0.1,0.1,0.3,0.4,0.6,0.8l0.5,0.1l0.8,0.8l0.7,0.3
		l0.4,0.4l0.8,0.3c0.2-0.2,0.7-0.3,1.4-0.4c0.7-0.7,1.1-1.1,1.4-1.4c0.3-0.3,0.5-0.6,0.8-1c0.3-0.4,0.6-0.8,0.8-1.2
		c0.3-0.4,0.5-0.8,0.7-1.3c0.2-0.5,0.3-0.8,0.5-1c0.2-0.2,0.9-0.9,2.2-2.3c1.3-1.3,2-2.2,2.3-2.7l0.8-0.3c0.5-1.5,0.9-2.4,1.2-2.8
		c0.2-0.4,0.6-1,1.2-2l0.6-0.4c0.4-0.5,0.6-0.9,0.8-1c0.1-0.1,0.5-0.8,1-1.9c0.5-1.1,0.8-1.9,0.8-2.3c0-0.4,0.1-0.6,0-0.7
		c0-0.1,0-0.2,0.2-0.3c0.1-0.1,0.3-0.4,0.6-0.8c-0.2,0-0.3,0-0.4,0.1c-0.1,0.1-0.3,0.3-0.8,0.6c-0.4,0.3-0.8,0.6-0.9,0.7
		c-0.2,0.1-0.4,0.3-0.7,0.4c-0.3,0.1-1.3,0.8-3,2c-0.2-0.4-0.3-0.8-0.2-1.1c0.1-0.4,0.1-0.6,0-0.8c-0.1-0.1-0.1-0.4-0.1-1
		c0-0.5,0-1.1-0.2-1.7c-0.1-0.6-0.2-1.5-0.3-2.7c0-1.2,0-2.6,0.2-4.2l0.1,0.1c-0.1-0.3-0.1-0.8,0.1-1.5c0.2-0.7,0.4-1.5,0.6-2.2
		c0.2-0.2,0.5-0.3,0.8-0.3c-0.3-0.6-0.6-1-0.8-1.3c-0.2-0.2-0.1-0.7,0.1-1.5c0.3-0.8,0.4-1.3,0.3-1.5c-0.1-0.2-0.1-0.6-0.2-1.1
		c-1.1-0.8-2.2-1.3-3.1-1.8c-1-0.4-1.6-0.8-1.9-1c-0.3-0.2-0.8-0.4-1.3-0.6c-0.5-0.2-1-0.3-1.4-0.5c-0.4-0.2-0.6-0.3-0.7-0.3v0.2
		l-0.6,0.3c0.2,0.8,0.2,2.5,0,5.2c-0.2,2.7-0.2,4.9-0.2,6.7c-1.5,0.1-2.4,0.2-2.5,0.2c-0.2,0-0.4,0-0.6,0.1c-0.2,0-0.5-0.1-0.8-0.3
		c-0.3-0.3-0.8-0.6-1.4-1l-0.3-0.4l-0.4,0.2c-0.3-0.3-0.7-0.4-1.2-0.4l0.4,0.9l-0.1,0.1c0,1.1,0.1,1.9,0,2.4c0,0.4,0.1,0.9,0.3,1.3
		c0.2,0.5,0.4,0.9,0.5,1.4c0.1,0.5,0.3,0.8,0.6,1.1c0.3,0.3,0.5,0.6,0.7,0.9c0.2,0.3,0.8,0.9,1.7,1.9c0.5,0.3,0.8,0.5,1,0.4
		c0.2,0,0.4-0.1,0.6,0c0.2,0,0.9-0.4,2.1-1.3c0.1,0.2,0.2,0.4,0.2,0.7c0,0.2,0.1,0.6,0.5,1c-0.6,1.7-1.4,3.6-2.5,5.6
		c-1.1,2-1.8,3.3-2,3.6c-0.3,0.4-0.5,0.8-0.8,1.2c-0.3,0.4-0.7,0.9-1.3,1.5h-0.9l-0.5,1.2l-1,0.3c-0.4,0.6-0.6,1-0.8,1.2
		c-0.1,0.2-0.2,0.4-0.2,0.6c0,0.2,0.4,0.9,1,2.1C408.8,202.4,409.2,203.1,409.3,203.2z M417.5,189.5l0.7-0.4l0.3,1.8
		c-1,0.8-1.7,1.2-2,1.2L417.5,189.5z"/>
	<polygon class="st0" points="304.7,260.4 319.4,260.4 319.4,234.9 328.1,234.9 328.1,230.8 319.4,230.8 319.4,226.6 304.7,226.6 
		304.7,230.8 295.9,230.8 295.9,234.9 304.7,234.9 	"/>
	<path class="st0" d="M303,253.8v-16.3h-6.3v16.3c0,1.9-0.3,4.1-0.8,5.8h6.4C302.7,257.9,303,255.5,303,253.8z"/>
	<polygon class="st0" points="270.8,260.4 284.9,260.4 284.9,234.9 294.3,234.9 294.3,230.8 284.9,230.8 284.9,226.6 270.8,226.6 
		270.8,230.8 262.1,230.8 262.1,234.9 270.8,234.9 	"/>
	<rect x="286.3" y="237.4" class="st0" width="6.9" height="22.1"/>
	<path class="st0" d="M321,237.4v16.3c0,1.8,0.3,4.1,0.8,5.8h6.3c-0.5-1.7-0.8-3.9-0.8-5.8v-16.3H321z"/>
	<path class="st0" d="M269.1,253.8v-16.3h-6.3v16.3c0,1.9-0.3,4.1-0.8,5.8h6.3C268.9,257.9,269.1,255.5,269.1,253.8z"/>
	<path class="st0" d="M328.6,289.5h-23.2v-8.2h21.5v-4h-21.5v-10.5h4c1.5,0,2.7,1.2,2.7,2.7v4.3h15.5v-6.3c0-2.6-2.1-4.7-4.7-4.7
		h-59.5v4h25.9v22.6c-4.4-0.6-7.6-3-9.5-6c1-4.5,1.7-9.1,2.2-13.8h-14.8c-0.7,8.5-2.8,16.5-5.4,24h15.1l1.2-3.7
		c2.3,2,5.7,3.7,11,3.7h39.5V289.5z"/>
	<path class="st0" d="M350.2,282h11.4c1.3-1.9,2.5-3.9,3.7-5.9c1.2,2.1,2.4,4,3.7,5.9h11.2v6.9c0,2.6,2.1,4.7,4.7,4.7h14.2v-4H397
		c-0.8,0-1.3-0.6-1.3-1.3V233c0-2.6-2.2-4.7-4.7-4.7h-50.9c-2.5,0-4.7,2.1-4.7,4.7v39.5c0,6-1.1,14.7-3,21.2H348
		C348.9,290.5,349.7,286.2,350.2,282z M380.2,277.2c-2.8-4.9-5.4-9.8-7.9-14.6c2.9-6.2,5.6-12.4,7.9-18.7V277.2z M350.8,234.9
		c0-1.5,1.2-2.7,2.7-2.7h24c1.5,0,2.7,1.2,2.7,2.7v5.2h-11.3c-1.1,2.7-2.1,5.4-3.3,8.1c-1.1-2.7-2.3-5.4-3.3-8.1h-11.5V234.9z
		 M350.8,272.4v-27.2c2.3,6.1,4.9,12.2,7.7,18.1c-2.5,4.9-5.2,9.8-8,14.6C350.7,275.9,350.8,274.1,350.8,272.4z"/>
	<path class="st0" d="M436.5,238.7c4.1,5.3,8.4,10.3,13.2,14.5h20.2c-8.8-8.6-17.4-17-23.8-26.3h-19c-6.4,9.3-14.9,17.8-23.8,26.3
		h20.2C428.1,248.9,432.4,244,436.5,238.7z"/>
	<rect x="410.5" y="256" class="st0" width="52" height="4"/>
	<path class="st0" d="M409,268.5v20.1c0,2.5,2.1,4.7,4.7,4.7h45.8c2.6,0,4.7-2.1,4.7-4.7v-20.1c0-2.5-2.1-4.7-4.7-4.7h-45.8
		C411,263.9,409,266,409,268.5z M425.1,270.5c0-1.5,1.2-2.7,2.7-2.7h17.5c1.5,0,2.7,1.2,2.7,2.7v16.1c0,1.5-1.2,2.7-2.7,2.7h-17.5
		c-1.5,0-2.7-1.2-2.7-2.7V270.5z"/>
	<path class="st0" d="M492.7,293.6c7.6-14.9,11.5-33.2,12.7-51.7h14.1c1.4,0,2.7,1.2,2.7,2.7v42.3c0,1.5-1.3,2.7-2.7,2.7h-6.9v4h21
		c2.5,0,4.7-2.1,4.7-4.7v-46.4c0-2.5-2.2-4.7-4.7-4.7h-27.9c0.1-3.7,0.3-7.4,0.3-11H490c-0.1,3.7-0.2,7.4-0.4,11h-13.4v4h13.1
		c-1.6,19.2-6.2,36.2-14,51.7H492.7z"/>
	<path class="st0" d="M395.8,572.4c-0.3,0-0.5,0.1-0.6,0.3c-0.1,0.2-0.1,0.7-0.1,1.6v7.8c0,0.9,0,1.5,0.1,1.7s0.3,0.3,0.6,0.3
		s0.5-0.1,0.6-0.3c0.1-0.2,0.1-0.7,0.1-1.5v-7.9c0-0.8,0-1.4-0.1-1.6C396.3,572.5,396.1,572.4,395.8,572.4z"/>
	<path class="st0" d="M413.6,582.3c0,0.7,0.1,1.2,0.2,1.4c0.1,0.2,0.3,0.3,0.6,0.3c0.2,0,0.3-0.1,0.5-0.3c0.2-0.2,0.3-0.6,0.3-1.4
		v-3c0-0.6-0.1-0.9-0.2-1.2c-0.1-0.2-0.3-0.3-0.6-0.3c-0.3,0-0.5,0.1-0.6,0.3s-0.2,0.6-0.2,1.2V582.3z"/>
	<path class="st0" d="M320.4,482.5c0,44,35.6,79.6,79.6,79.6s79.6-35.6,79.6-79.6c0-44-35.6-79.6-79.6-79.6S320.4,438.6,320.4,482.5
		z M409.4,453.2l-16.3,20.2l-33.7-1.8c-1.9-4-6.3-16.1-7.7-20.1c8.3-13.2,16.1-21.5,20.7-25.8l28,0.6L409.4,453.2z M401.8,426
		c1-1.2,5.3-5.7,12.3-9.3c6.7,1.8,21.4,6.5,32.8,14.7c1.7,3.4,6.5,13.7,6.4,20.8l-18.5,10.9L410.8,453L401.8,426z M404.4,498
		l-13.8,26.6c-2.3,0.2-13.6,1-26.2,0c-8.6-12.4-13.5-23.1-16-29.4c1.9-7.1,9.5-19.6,11.2-22.3l32.8,1.7L404.4,498z M394.2,406.9
		c-5.8,1.8-16.6,5.4-22.2,8l-4.3-1.1C375.9,410,384.8,407.6,394.2,406.9z M365.8,414.8l5.8,1.4v8.2c-4.6,4.3-12.5,12.5-20.9,25.8
		c-8.1,2.3-15,7.7-17.6,10l-4.9-2.4C334.7,439.1,348.3,423.7,365.8,414.8z M324.1,482.5c0-8.1,1.3-16,3.7-23.3l4.2,2.1c0,0,0,0,0,0
		c-1.1,14.3-0.6,21.7-0.3,24.8c-1.6,2.6-3.7,7.2-5.4,14.9C324.9,495,324.1,488.9,324.1,482.5z M327.2,503.9c1.5-7.8,3.4-12.7,5-15.7
		c2.4,4,11.9,6.9,15,7.8c2.6,6.5,7.7,17.4,16.4,30l-1.7,13.3c-3.9-0.2-9.7-0.6-14-1.7C338.2,528.5,331,516.9,327.2,503.9z
		 M349.8,539.4c4.3,0.8,9.3,1.1,12.6,1.3c2.4,2,11.4,8.9,26.4,11.8l2,5.4C375.2,556,361,549.3,349.8,539.4z M400,558.4
		c-2.6,0-5.1-0.1-7.6-0.4l-2.1-5.7c2.1-0.7,8-3,15-9.4c7.2-0.5,18.3-1.8,32-5.3c1.9,1.2,5.5,3.3,9.6,4.4
		C433.9,552.4,417.7,558.4,400,558.4z M436.1,536.6c-13.7,3.4-24.6,4.6-31.5,5.1c-2.4-2.7-8.9-9.9-12.9-16.1l14.1-27.2l26.4-5.2
		l15.9,19.6C447,516,442.5,529.5,436.1,536.6z M473.3,463c1.7,6.2,2.6,12.8,2.6,19.5c0,12.8-3.2,24.9-8.9,35.6v-15.2
		c2.2-8,2.9-16.8,3.1-23.8c0.1-5.1-0.1-9.7-0.3-13.1C470.6,465,471.8,463.7,473.3,463z M468.5,467.3c0.5,8.7,0.6,24.4-3.3,36.8
		c-2.9,2.1-9.1,6-16.1,7.8l-15.9-19.6l2.7-28.2l18.5-10.9C456.6,454.4,462,458.1,468.5,467.3z M459.4,435.4
		c-2.7-1.4-6.8-3.2-10.9-4.5c-11.1-8.3-25.6-13.1-33-15.2c-1.3-0.9-6.8-4.9-15.3-9C424.1,406.7,445.5,417.9,459.4,435.4z"/>
</g>
</svg>
