<?xml version="1.0" encoding="utf-8"?>
<!-- Generator: Adobe Illustrator 22.1.0, SVG Export Plug-In . SVG Version: 6.00 Build 0)  -->
<svg version="1.1" id="图层_1" xmlns="http://www.w3.org/2000/svg" xmlns:xlink="http://www.w3.org/1999/xlink" x="0px" y="0px"
	 viewBox="0 0 800 800" style="enable-background:new 0 0 800 800;" xml:space="preserve">
<style type="text/css">
	.st0{fill:#BE8940;}
	.st1{fill:#820000;}
	.st2{fill:url(#SVGID_1_);}
	.st3{fill:#D8A72F;}
	.st4{fill:url(#SVGID_2_);}
	.st5{fill:url(#SVGID_3_);}
	.st6{fill:url(#SVGID_4_);}
	.st7{opacity:0.2;}
	.st8{fill:#240B02;}
	.st9{fill:url(#SVGID_5_);}
</style>
<g>
	<path class="st0" d="M611.9,582.9c53.9-74.9,96.9-179.4,96.9-322.6c0-92.8-12.7-129.1-12.7-129.1s-28,19.3-116.8-5.8
		S426.9,50,400,50s-90.5,50.2-179.2,75.3S104,131.2,104,131.2s-12.7,36.3-12.7,129.1c0,125.7,33.2,221.6,77.7,293.9l0,0l-14.6,38
		l38.9,109h115.5c42.5,29.5,77.2,44.1,87.9,48.2c2.2,0.8,4.5,0.8,6.7,0c10.6-4.1,45.4-18.7,87.9-48.2h126.4l32.7-118.3L611.9,582.9
		L611.9,582.9z"/>
	<path class="st1" d="M400,59.3c9.8,0,29.8,10.4,53.1,22.5c31.2,16.2,73.8,38.4,123.6,52.5c31.1,8.8,58.4,13.3,81.2,13.3
		c14.5,0,24.8-1.8,31.7-3.8c3.6,15.9,9.7,52.7,9.7,116.6c0,81.3-14.2,156.3-42.3,222.9c-22.8,54.1-54.9,103-95.3,145.4
		C490.5,703.3,414.5,735.1,400,740.7c-14.5-5.6-90.5-37.4-161.8-112.1c-40.4-42.4-72.5-91.3-95.3-145.4
		c-28.1-66.6-42.3-141.5-42.3-222.9c0-63.9,6.2-100.7,9.7-116.6c7,2,17.3,3.8,31.7,3.8c22.8,0,50.1-4.5,81.2-13.3
		c49.8-14.1,92.5-36.3,123.6-52.5C370.2,69.8,390.2,59.3,400,59.3z"/>
	<radialGradient id="SVGID_1_" cx="336.9471" cy="243.4764" r="499.2781" gradientUnits="userSpaceOnUse">
		<stop  offset="0" style="stop-color:#DFBB86"/>
		<stop  offset="1" style="stop-color:#BE8940"/>
	</radialGradient>
	<path class="st2" d="M400,75.7c0.8,0.1,4.5,0.6,15.4,5.6c8.6,3.9,19.1,9.3,30.1,15.1c31.8,16.5,75.3,39.1,126.7,53.7
		c32.5,9.2,61.4,13.9,85.7,13.9c6.6,0,12.9-0.3,18.7-1c3.1,19.4,6.4,50.9,6.4,97.4c0,79.1-13.8,152-41,216.5
		c-22,52.3-53,99.5-92.1,140.5C488,682.2,422.6,713.5,400,723c-22.6-9.5-88-40.8-150-105.8c-39-40.9-70-88.2-92.1-140.5
		c-27.2-64.5-41-137.4-41-216.5c0-46.5,3.3-78,6.4-97.4c5.9,0.7,12.1,1,18.7,1c24.3,0,53.1-4.7,85.7-13.9
		c51.4-14.5,95-37.2,126.7-53.7c11.1-5.8,21.5-11.2,30.1-15.1C395.5,76.3,399.2,75.7,400,75.7"/>
	<g>
		<path class="st3" d="M609.3,196.9c0.1,6.8,0.2,13.6,0.2,20.3c0,1,0,2,0,3l72.7,72.7c0.4-7.4,0.6-14.9,0.7-22.4L609.3,196.9z"/>
		<path class="st3" d="M608.9,253.9l71,71c0.7-7.1,1.3-14.2,1.8-21.3l-72.2-72.2C609.3,238.9,609.1,246.4,608.9,253.9z"/>
		<path class="st3" d="M607.1,286.4l68.9,68.9c1-6.7,2-13.5,2.8-20.3l-70.3-70.3C608,271.9,607.6,279.2,607.1,286.4z"/>
		<path class="st3" d="M604.5,315.7l66.6,66.6c1.3-6.4,2.5-12.9,3.6-19.5l-68.3-68.3C605.9,301.7,605.2,308.8,604.5,315.7z"/>
		<path class="st3" d="M600.9,344.3l64.1,64.1c1.6-6.2,3.1-12.4,4.5-18.7l-65.9-65.9C602.8,330.7,601.9,337.6,600.9,344.3z"/>
		<path class="st3" d="M596.5,372l61.4,61.4c1.8-5.9,3.6-11.9,5.2-17.9l-63.4-63.4C598.8,358.8,597.7,365.4,596.5,372z"/>
		<path class="st3" d="M591.3,398.8l58.5,58.5c2.1-5.7,4.1-11.4,6-17.1l-60.6-60.6C593.9,386.1,592.6,392.5,591.3,398.8z"/>
		<path class="st3" d="M585,425.7l55.2,55.2c0.6-1.4,1.2-2.8,1.8-4.2c1.7-4,3.3-8.1,4.9-12.2l-57.5-57.5
			C588,413.4,586.5,419.6,585,425.7z"/>
		<path class="st3" d="M577.8,451.8l51.9,51.9c2.6-5.2,5.1-10.4,7.4-15.7l-54.2-54.2C581.3,439.9,579.6,445.9,577.8,451.8z"/>
		<path class="st3" d="M569.3,478.4l48.1,48.1c2.8-4.9,5.5-9.9,8.2-15L575,461C573.2,466.9,571.3,472.7,569.3,478.4z"/>
		<path class="st3" d="M560.3,503.2l44.4,44.4c3-4.7,6-9.5,8.8-14.3l-47-47C564.5,492,562.4,497.7,560.3,503.2z"/>
		<path class="st3" d="M550.4,527.1l40.7,40.7c3.2-4.5,6.4-9.1,9.4-13.7l-43.3-43.3C555,516.4,552.7,521.8,550.4,527.1z"/>
		<path class="st3" d="M539.7,550.2l36.8,36.8c3.4-4.3,6.8-8.6,10.1-13.1l-39.4-39.4C544.7,539.8,542.2,545.1,539.7,550.2z"/>
		<path class="st3" d="M528.2,572.5l32.8,32.8c3.6-4.1,7.2-8.2,10.7-12.4l-35.5-35.5C533.5,562.5,530.9,567.6,528.2,572.5z"/>
		<path class="st3" d="M516.1,593.6l28.9,28.9c1.7-1.7,3.4-3.4,5-5.2c2.1-2.2,4.2-4.4,6.2-6.7L524.6,579
			C521.8,584,518.9,588.9,516.1,593.6z"/>
	</g>
	<g>
		<path class="st3" d="M190.6,196.9c-0.1,6.8-0.2,13.6-0.2,20.3c0,1,0,2,0,3l-72.7,72.7c-0.4-7.4-0.6-14.9-0.7-22.4L190.6,196.9z"/>
		<path class="st3" d="M191.1,253.9l-71,71c-0.7-7.1-1.3-14.2-1.8-21.3l72.2-72.2C190.6,238.9,190.8,246.4,191.1,253.9z"/>
		<path class="st3" d="M192.8,286.4L124,355.2c-1-6.7-2-13.5-2.8-20.3l70.3-70.3C191.9,271.9,192.3,279.2,192.8,286.4z"/>
		<path class="st3" d="M195.5,315.7l-66.6,66.6c-1.3-6.4-2.5-12.9-3.6-19.5l68.3-68.3C194.1,301.7,194.7,308.8,195.5,315.7z"/>
		<path class="st3" d="M199,344.3l-64.1,64.1c-1.6-6.2-3.1-12.4-4.5-18.7l65.9-65.9C197.1,330.7,198,337.6,199,344.3z"/>
		<path class="st3" d="M203.4,372L142,433.4c-1.8-5.9-3.6-11.9-5.2-17.9l63.4-63.4C201.1,358.8,202.2,365.4,203.4,372z"/>
		<path class="st3" d="M208.6,398.8l-58.5,58.5c-2.1-5.7-4.1-11.4-6-17.1l60.6-60.6C206,386.1,207.3,392.5,208.6,398.8z"/>
		<path class="st3" d="M214.9,425.7L159.7,481c-0.6-1.4-1.2-2.8-1.8-4.2c-1.7-4-3.3-8.1-4.9-12.2l57.5-57.5
			C211.9,413.4,213.4,419.6,214.9,425.7z"/>
		<path class="st3" d="M222.1,451.8l-51.9,51.9c-2.6-5.2-5.1-10.4-7.4-15.7l54.2-54.2C218.7,439.9,220.4,445.9,222.1,451.8z"/>
		<path class="st3" d="M230.6,478.4l-48.1,48.1c-2.8-4.9-5.5-9.9-8.2-15l50.6-50.6C226.7,466.9,228.6,472.7,230.6,478.4z"/>
		<path class="st3" d="M239.6,503.2l-44.4,44.4c-3-4.7-6-9.5-8.8-14.3l47-47C235.4,492,237.5,497.7,239.6,503.2z"/>
		<path class="st3" d="M249.5,527.1l-40.7,40.7c-3.2-4.5-6.4-9.1-9.4-13.7l43.3-43.3C244.9,516.4,247.2,521.8,249.5,527.1z"/>
		<path class="st3" d="M260.2,550.2L223.4,587c-3.4-4.3-6.8-8.6-10.1-13.1l39.4-39.4C255.2,539.8,257.7,545.1,260.2,550.2z"/>
		<path class="st3" d="M271.7,572.5l-32.8,32.8c-3.6-4.1-7.2-8.2-10.7-12.4l35.5-35.5C266.4,562.5,269.1,567.6,271.7,572.5z"/>
		<path class="st3" d="M283.9,593.6L255,622.5c-1.7-1.7-3.4-3.4-5-5.2c-2.1-2.2-4.2-4.4-6.2-6.7l31.6-31.6
			C278.2,584,281,588.9,283.9,593.6z"/>
	</g>
	<path class="st1" d="M253.6,140.3c0,0,2.8,458,146.4,582.7c0,0-231.1-142.2-207.9-564.4l3.9-9.7l56-16.7L253.6,140.3z"/>
	<path class="st1" d="M546.4,140.3c0,0-2.8,458-146.4,582.7c0,0,231.1-142.2,207.9-564.4l-3.9-9.7l-56-16.7L546.4,140.3z"/>
	<path d="M257.8,383.2c-0.2,0.7-3.5,8.2-4.1,9l20.5-17.5c0,0-5.6-3.3-11.8,1.7C258.9,379.5,258.1,382.4,257.8,383.2z"/>
	<path d="M265.9,370.9c7.4-1.6,12.8-1.4,17.5-1.2c0,0-3.4-0.4-5.8-6.6c-2.5-6.2-6-8.3-11.3-7.9s-11.2,1.7-14.7,9.2
		c-3.4,7.5-1.9,14.8-3.7,21.1c-1.8,6.3-3.2,9.8-6,13.9c0,0,5-0.9,9.4-11.5C253.1,383.8,258.4,372.5,265.9,370.9z"/>
	<path d="M255.7,355c4-4.6,2.9-6.6,9.4-6c6.5,0.6,12,7.6,14.7,9.2c2.8,1.6,6.5,3.9,12.2,4.2c5.7,0.2,27.3,0.5,35.3-20
		c0,0-4.8,5.9-16.7,6.9c-12,1-18.7-0.9-31.5-9.3c-12.9-8.5-25.2-0.8-27.1,2.3c-1.9,3.1-1.9,3.6-2.4,7.5s-7.2,9.2-9.5,9.9
		C240,359.6,251.7,359.5,255.7,355z"/>
	<path d="M247.1,326.2c3.5-2.3,12.9-3.1,21.5,3.7c0,0-0.9-18-16.8-17.4c-16,0.6-21.8,10.4-21.1,31.3c0.1,3.3-3.8,4.1-20.7,1.9
		c0,0,4.4,8.2,15,8.2c10.6,0,15.2-4,16.5-10.6C242.8,336.7,243.6,328.5,247.1,326.2z"/>
	<path d="M246.4,292.6c10.4-3.1,22.6,2.6,25.7,5.4c3.1,2.8,12.7,7,22.9,3.4c10.2-3.6,13-15.8,11.7-28.9c0,0-7.3,14.9-14.6,17.1
		c-5.8,1.3-18-5.4-19.6-6.1s-15.3-6.9-26.1-1.3c-10.8,5.5-15,19-16.8,28.9C229.7,311,236.1,295.7,246.4,292.6z"/>
	<path d="M360.6,292.4c-9.6-2.8-21.6-6-34.7,10.5c-13.1,16.5-15.3,16.9-21.9,18.5c-6.6,1.6-14-4.1-15.5-5.4c-1.5-1.3-6.7-6.6-12-9.2
		c-5.3-2.6-17.8-1.8-17.8-1.8c3.2,0.6,11.8,6.6,18.2,16.1c6.4,9.5,14.9,20,28.9,21.5s19.4-4.1,25.5-9.8c6.1-5.7,8.6-15.8,19.3-24.2
		s26-11.2,26-11.2C372.7,297.1,370.2,295.2,360.6,292.4z"/>
	<path d="M344.7,320c-9.8,12.3-14.7,27.6-14.7,27.6s26.3-35.8,40.4-44.9C370.3,302.7,357.8,303.8,344.7,320z"/>
	<path d="M302,250.3c9,1.6,24.1-12.6,30.3-14.7c6.2-2.2,14.7,5.9,14.7,5.9s-1.5-14-11.3-15.7c-11.2-1.7-22.3,16.9-31.5,17.4
		c-9.9,0.5-12.6-8.9-12.6-8.9C291.3,234.8,293.1,248.7,302,250.3z"/>
	<path d="M284.7,306.2c0,0,5.1,7.9,16.9,6.9c11.8-1,15.9-8.6,16.8-24.8c0.9-16.2-0.9-15.9,5.3-26.6c3.6-6,9.2-8.5,15.3-7.3
		c6.1,1.2,14.3,2.8,19,0.4c4.7-2.3,5.5-3.7,6.7-6.8c1.2-3.1,1.7-5.4,3.7-7.6c0,0-2.5-0.1-5.8,3c-3.4,3.1-4.8,5.5-11.9,4.5
		c-7.2-1-18.9-4.8-25.7-2.8c-6.8,1.9-12.2,6.4-14.1,18.9c-1.9,12.5,0.1,22-1.2,27.7S304.8,306.9,284.7,306.2z"/>
	<path d="M371.8,248.9c-2.5,4.9-4.5,9.6-7.8,10c-3.3,0.4-19.3-0.4-22.2,0c-2.9,0.4-16.7,0.6-20.2,32.3c0,0,8.4-13.9,20-19.9
		c11.7-6,17.9-1.6,26.5-4.1c6-1.7,5.6-4.9,5.6-6.6c0.1-1.7-0.4-11.2,6.2-13.7C380,247,374.3,244,371.8,248.9z"/>
	<path d="M382.5,262.1c-3.3,8.7-8.9,10.2-22.5,10.6c-13.6,0.4-18.9,0.4-27.2,8.2c-8.4,7.8-11.6,19.5-11.6,19.5s12.7-9.9,19-13.4
		c6.3-3.5,10.3-1.3,11.6-0.9c1.3,0.4,23.9,8.4,34.4,2.8c10.5-5.5,11.3-22.5,11-30.6c-0.3-8.1,8.2-11.1,8.2-11.1
		C389.1,247.1,385.8,253.5,382.5,262.1z"/>
	<path d="M400.4,269.2c0,0,2.3-6.1,2.4-10.4c0.1-4.4,3-6.9,3-6.9C396.9,254.2,400.4,269.2,400.4,269.2z"/>
	<path d="M341.6,219.2c5.7,2.8,12.3,17.1,25.7,17.2S388,229.2,394,218c6-11.2,15.3-11.2,15.3-11.2c-8.8-5.7-16.3,0.9-22.8,7.6
		s-21,7-29.9,2.2c-8.9-4.8-15.8-9.9-24.5-6.7c-8.8,3.2-12.4,14.9-12.4,14.9C333.7,214.5,335.9,216.4,341.6,219.2z"/>
	<path d="M433.5,494.1c42-29.6,49.8-70.5,49.8-70.5c39.3-15.6,17.1-57.5,17.1-57.5c-0.6,3.5-2.3,12.8-18.4,16.1
		c-27.1,5.3-42.9-23.4-42.9-23.4c7.9-19.6-1.8-37.1-4.7-41.7c-2.9-4.7-13.4-20.4-15.5-36.8c-4.4-42,10.8-54.9,10.8-54.9
		c-21.6,57.5,9.2,89,13.8,94.1s4.6,6.5,4.7,8.1c0.1,1.6-0.2,11.5-0.2,11.5l9.3,13.3c-2.1-0.1-7.4-3.8-7.4-3.8
		c0.3,2.9-1.9,9.3-1.9,9.3s2.9,10.4,17.2,14.7c14.3,4.4,22.9-5.1,22.9-5.1c0.4-4.5,4-8.7,4-8.7l0.1-7.8c0,0,3.5-3.6,5.4-6.9
		c1.9-3.2,0.7-5.2-0.1-6.1c-0.8-0.9-1.3-1.8-1.6-4c-1.5-10.7,3.1-23.9,7.8-32.4c6.3-10.9,4.8-13.8,4.1-17.3s-1.6-5.5,1.1-10.9
		c4.2-8.5,2.3-9.6,2.3-9.6c-2.7,2.3-6.5,3.7-6.5,3.7c1.2-6.7,11-19.4,11-19.4c-6.2-6.9-9.5-17.4-9.5-17.4c6.6,0,14,8,14,8
		c-1.5-2-4.8-9.9-4.8-13.1c0-7.5-2.3-17.1-2.3-17.1c8.8,5.2,11.3,22.8,11.3,22.8c2.6-13.8-7-25.1-7-25.1
		c9.5,2.9,14.7,15.6,14.7,15.6c0.3-30.7-29.9-36.5-29.9-36.5c10.7-4.1,20.5-18.4,20.5-18.4c-5.6,5.3-12.3,4.1-22.4,4.7
		c-10.1,0.6-14.8,9.9-14.8,9.9c0.3-4.7,1.4-6.1,2.9-7.7c1.5-1.5,4.2-2.9,6.3-3.9c2.1-1.1,3.4-3.4,3.8-4.1c0.4-0.7,1.2-2,2.4-2.1
		c13.7-1,24.5-9.5,24.5-9.5s-10.8,3.4-17.5,2.2c-10.5-1.8-16.2-2.2-26,0.6c-9.8,2.8-12.3,11.1-12.3,11.1c-0.3-3.6-2.9-6.7-6.4-8.5
		s-4.5-3.5-4.1-8.3s5.4-5.8,5.4-5.8c-17.1-8.2-23.8,18.5-11.5,28s6,16.6,6,16.6c0-6.1-3.8-12.3-12.3-18.1
		c-8.5-5.8-12.4-20.6-12.4-20.6c-10.7,13.3,1.9,35.3,3.5,40.1c1.6,4.8-3.1,10.1-3.1,10.1c-1.3-15.9-8.3-26-15.3-28.2
		c-7-2.2-13.6-4.1-27.7,10.1c-14.2,14.2-16.6,11.8-23.1,11.2c-6.4-0.6-9.9-8.5-9.9-8.5c1.6,9.5,4.8,15.6,16.2,17.8
		c11.4,2.2,19.9-2,21.7-3.2c1.9-1.2,7.4-5.3,17.5-2.9c12.6,3.4,5.1,25.5,5.1,25.5s-2.3-5.5-5.7-8.2s-7.6-1.6-14,4.8
		c-6.4,6.4-5.9,12.7-10,16.6c-4.1,3.9-12,2.8-12,2.8c6.6,7.9,18.2,6.1,23.2,2.3c5-3.8,7.2-2.8,7.2-2.8c2.9,13.3-0.3,22.4-3.1,29.3
		c-2.8,6.9-7.8,12.2-9.9,16.2c-2.1,4-3.5,10.9-8.6,13.2c-7.3,2.9-28.9,21.6-42.6,39.7c-13.7,18.1-23.6,23.6-32.7,24.8
		c-9,1.2-19.6,4.1-37.4,16.9c-17.8,12.8-27.3,29-27.3,29L247,447c0,0,79.7,122.8,92.5,122.8c12.8,0,16.4-0.3,19.4-8.9
		s-1.5-21.5-1.5-21.5c1.9,0,9.6-1,16.8-5.1c13.6-8,15.8-13.4,15.6-17.7c-0.1-4.2-2.5-11.8-8.6-17.9c-13.3-5.7-31.9-25.3-38.9-56.4
		c-12.8-64.2,22.2-83.3,22.2-83.3c-18.7,23.7-21.4,45.9-14,84.9c7.4,38.9,38.2,52.6,38.2,52.6c1.5,5.7,9.6,15.9,9.6,15.9
		c-2.5,7.2-1.8,17.7-1.8,17.7c-10.9,9.6-10.8,23.4-10.8,23.4c-13.9-0.1-16.4,14.1-16.4,14.1c-1.6-5,0.5-8.8,3.8-12s9.7-5.1,9.7-5.1
		c-3.4-3.6-5.4-5.1-10.4-4c-5,1.1-6.5,4.3-7.8,7.9c-1.3,3.6,0,9.7-1,11.8c-1,2.1-4.2,4.7-4.2,4.7c3.2,13,25,17.8,36.1,18.7
		c11.1,0.9,10.7-0.4,13-4.7c2.3-4.2,1-12.6,1-12.6s10.2-16.8,12.4-20.1c2.2-3.4,2.8-5.5,1.9-10.1c-0.9-4.5,0-7.4,1.3-10.8
		C426.6,528,433.5,494.1,433.5,494.1z M456.7,240.8c0,0,0.2,16.4,6.9,22.7c0,0-12.7-1.8-14.7-9.6C447,246.2,456.7,240.8,456.7,240.8
		z"/>
	<path d="M524,194c14.2-19.7,9-32.3,9-32.3c-4.5,9.5-25.3,23-25.3,23C511.1,184.7,524,194,524,194z"/>
	<polygon class="st1" points="164.5,592.2 637.8,592.2 610.6,691.8 200.3,691.8 	"/>
	<linearGradient id="SVGID_2_" gradientUnits="userSpaceOnUse" x1="188.773" y1="596.971" x2="377.5272" y2="408.2168">
		<stop  offset="0" style="stop-color:#FFF700"/>
		<stop  offset="0.157" style="stop-color:#FFEC00"/>
		<stop  offset="0.4331" style="stop-color:#FFCF00"/>
		<stop  offset="0.7933" style="stop-color:#FF9F00"/>
		<stop  offset="1" style="stop-color:#FF8100"/>
	</linearGradient>
	<path class="st4" d="M177,585.2h66l26.3-70.2h14.9L258,585.2h65.4l63-168.1h-52.4c-7.8,0-14.8,4.8-17.5,12.1l-18.1,48.3h-15.1
		L306,417h-51.4c-8.8,0-16.6,5.4-19.7,13.6L177,585.2z"/>
	<g>
		<linearGradient id="SVGID_3_" gradientUnits="userSpaceOnUse" x1="456.1732" y1="501.5249" x2="655.2427" y2="501.5249">
			<stop  offset="0" style="stop-color:#FFF700"/>
			<stop  offset="0.157" style="stop-color:#FFEC00"/>
			<stop  offset="0.4331" style="stop-color:#FFCF00"/>
			<stop  offset="0.7933" style="stop-color:#FF9F00"/>
			<stop  offset="1" style="stop-color:#FF8100"/>
		</linearGradient>
		<path class="st5" d="M519.5,417l-63.3,169h64l48.5-129.7h57.5c8.6,0,16.2-5.3,19.3-13.3l9.7-26H519.5z"/>
		<linearGradient id="SVGID_4_" gradientUnits="userSpaceOnUse" x1="561.1431" y1="496.9153" x2="632.5604" y2="496.9153">
			<stop  offset="0" style="stop-color:#FFF700"/>
			<stop  offset="0.157" style="stop-color:#FFEC00"/>
			<stop  offset="0.4331" style="stop-color:#FFCF00"/>
			<stop  offset="0.7933" style="stop-color:#FF9F00"/>
			<stop  offset="1" style="stop-color:#FF8100"/>
		</linearGradient>
		<path class="st6" d="M561.1,516.2h42.5c8.7,0,16.5-5.4,19.5-13.5l9.4-25.1h-55.7L561.1,516.2z"/>
	</g>
	<path class="st1" d="M386.4,417l-63,168.1H258l26.3-70.2h-14.9L243,585.2h-66l57.9-154.5c3.1-8.2,10.9-13.6,19.7-13.6H306
		l-22.8,60.4h15.1l18.1-48.3c2.7-7.3,9.7-12.1,17.5-12.1H386.4 M399,408.3h-12.6h-52.4c-6.6,0-12.8,2.4-17.6,6.5l2.4-6.5H306h-51.4
		c-12.3,0-23.5,7.8-27.9,19.3l-57.9,154.5l-4.4,11.8H177h66h6.1h8.9h65.4h6.1l2.1-5.7l63-168.1L399,408.3L399,408.3z"/>
	<path class="st1" d="M655.2,407.7H519.5H513l-2.3,6.1l-63.3,169l-4.7,12.6h13.5h64h6.5l2.3-6.1l23.8-63.7h8.3h42.5
		c12.5,0,23.9-7.9,28.3-19.6l9.4-25.1l4.7-12.6h-13.5h-55.7h-2.6l1-2.6h51.1c12.4,0,23.6-7.8,28-19.4l9.7-26l4.7-12.6H655.2z
		 M632.6,477.6l-9.4,25.1c-3.1,8.1-10.8,13.5-19.5,13.5h-42.5l15.7-38.7H632.6z M645.5,443c-3,8-10.7,13.3-19.3,13.3h-57.5
		L520.2,586h-64l63.3-169h135.8L645.5,443z"/>
	<g class="st7">
		<path class="st1" d="M230.8,441.7l24.6-24.6h-0.8c-2.4,0-4.8,0.4-7,1.2l-12.8,12.8L230.8,441.7z"/>
		<polygon class="st1" points="316.5,585.2 327.5,574.2 331.4,563.7 309.9,585.2 		"/>
		<polygon class="st1" points="337.4,547.6 341.4,537 293.2,585.2 299.8,585.2 		"/>
		<polygon class="st1" points="347.1,521.8 351.1,511.2 277.1,585.2 283.7,585.2 		"/>
		<polygon class="st1" points="358.1,492.5 362,482 258.8,585.2 265.4,585.2 		"/>
		<g>
			<polygon class="st1" points="372.3,454.6 267.7,559.1 263.8,569.7 368.3,465.1 			"/>
			<polygon class="st1" points="243,585.2 243.9,583 241.7,585.2 			"/>
		</g>
		<g>
			<polygon class="st1" points="232.2,585.2 249.5,567.9 253.5,557.4 225.6,585.2 			"/>
			<polygon class="st1" points="381.9,428.9 277.3,533.5 273.4,544 378,439.5 			"/>
		</g>
		<g>
			<polygon class="st1" points="385.5,417 378.9,417 281,515 284.3,515 282.3,520.3 			"/>
			<polygon class="st1" points="217.4,585.2 258.4,544.1 262.4,533.6 210.7,585.2 			"/>
		</g>
		<polygon class="st1" points="364.1,417 196,585.2 202.6,585.2 267.3,520.5 269.4,515 272.8,515 370.7,417 		"/>
		<g>
			<polygon class="st1" points="185.9,585.2 293.7,477.5 287.1,477.5 179.3,585.2 			"/>
			<polygon class="st1" points="347.5,417 305.1,459.4 301.1,470 354.1,417 			"/>
		</g>
		<g>
			<polygon class="st1" points="185.2,563.3 181.3,573.8 286.6,468.5 290.6,457.9 			"/>
			<path class="st1" d="M333.9,417c-0.9,0-1.8,0.1-2.7,0.2l-16.5,16.5l-4,10.6L338,417H333.9z"/>
		</g>
		<polygon class="st1" points="195.5,535.7 191.6,546.3 297.1,440.8 301.1,430.2 		"/>
		<polygon class="st1" points="205.9,508.2 201.9,518.8 303.6,417 297,417 		"/>
		<polygon class="st1" points="215.8,481.6 211.9,492.1 287,417 280.4,417 		"/>
		<polygon class="st1" points="225.5,455.9 221.5,466.4 270.9,417 264.3,417 		"/>
	</g>
	<g class="st7">
		<polygon class="st1" points="510.6,440.8 534.3,417 527.7,417 514.5,430.2 		"/>
		<polygon class="st1" points="596.9,477.6 563.1,511.4 561.1,516.2 564.9,516.2 603.5,477.6 		"/>
		<polygon class="st1" points="491.1,492.7 566.8,417 560.2,417 495.1,482.1 		"/>
		<polygon class="st1" points="500.9,466.7 550.6,417 543.9,417 504.8,456.2 		"/>
		<polygon class="st1" points="481.4,518.6 583,417 576.4,417 485.4,508 		"/>
		<polygon class="st1" points="471.7,544.5 599.2,417 592.6,417 475.7,534 		"/>
		<g>
			<polygon class="st1" points="608.8,417 569.5,456.3 576.1,456.3 615.4,417 			"/>
			<polygon class="st1" points="462,570.5 564.3,468.2 568.2,457.6 465.9,559.9 			"/>
		</g>
		<g>
			<polygon class="st1" points="558.6,483.5 456.2,585.8 456.2,586 462.7,586 554.6,494.1 			"/>
			<polygon class="st1" points="625,417 585.7,456.3 592.3,456.3 631.6,417 			"/>
		</g>
		<g>
			<polygon class="st1" points="641.2,417 601.9,456.3 608.5,456.3 647.8,417 			"/>
			<polygon class="st1" points="478.9,586 544.9,520 548.9,509.4 472.3,586 			"/>
		</g>
		<g>
			<polygon class="st1" points="653.9,420.6 618.2,456.3 624.8,456.3 650,431.2 			"/>
			<polygon class="st1" points="495.1,586 535.2,545.9 539.2,535.3 488.5,586 			"/>
		</g>
		<g>
			<path class="st1" d="M643,447.8l-4.8,4.8C640,451.2,641.6,449.6,643,447.8z"/>
			<polygon class="st1" points="511.3,586 525.5,571.8 529.5,561.2 504.7,586 			"/>
		</g>
		<polygon class="st1" points="581.1,516.2 619.7,477.6 613.1,477.6 574.5,516.2 		"/>
		<polygon class="st1" points="597.3,516.2 630.5,483 632.6,477.6 629.4,477.6 590.7,516.2 		"/>
		<path class="st1" d="M607.2,515.9c7.2-1.3,13.3-6.2,15.9-13.2l1.6-4.3L607.2,515.9z"/>
	</g>
	<path d="M514.8,420.2c-11.5-2.9-29,9.3-29,9.3c-9.5,32.9-37.8,57.2-37.8,57.2c10-5.3,22.7-4,22.7-4c5.6-4.7,12.4-17.8,12.4-17.8
		c-0.3,15.1-11,23.8-13.7,26.3c-3.4,3-3.4-1.9-3.4-1.9c-7.9-3.6-17.4-0.1-28.3,16.5c-10.9,16.6-2.6,35.3-2.6,35.3
		c25.5,6.1,31.1-14.6,31.1-14.6c-19.6-10.7-7.2-27-7.2-27c-5.4,24.7,20.7,22.3,20.7,22.3c8-5.1,8.6-20,8.6-20
		c8.4-8.3,11.3-12.8,20.1-30.6c8.8-17.7,24.1-19.5,24.5-28C533.3,434.8,526.3,423.1,514.8,420.2z"/>
	<path class="st8" d="M150.4,172.7c-9.4,0-17,7.6-17,17s7.6,17,17,17c9.4,0,17-7.6,17-17S159.7,172.7,150.4,172.7z M163.7,182.4
		c-0.3,1-1,3-2.8,4.4c0,0-2.7-6-4.6-8c1.2-1.1,1.9-2,1.9-2l0.1-0.1C160.6,178.1,162.5,180.1,163.7,182.4z M156.1,175.6
		c-1.1,4.4-4.5,4.7-8.1,5.2c-3.5,0.5-6-3.8-6-3.9c2.4-1.6,5.3-2.5,8.3-2.5C152.4,174.5,154.4,174.9,156.1,175.6z M141.7,177.2
		c1.6,2.5,2.8,4.1,4.8,4.6c2.1,2.6,3,7.8,3,11.7c0,0-2.2,0.7-6.9-1.7c-4.2-2.1-5.9-7.5-6.2-8.5C137.7,180.9,139.4,178.8,141.7,177.2
		z M135.1,189.7c0-0.9,0.1-1.8,0.2-2.6c3.5,1.9,4.2,3.6,6.9,5.6c2.8,2,7.1,2.9,7.2,2.9c-0.3,5.6-1.6,8-2.4,9
		C140.3,203.1,135.1,197,135.1,189.7z M149.5,204.9c1.3-3,1.4-6,1.3-11.7c-0.1-5.1-2.3-9.8-2.9-11.1c0.8,0.1,1.6,0,2.6-0.2
		c1.9-0.3,3.5-1.2,4.8-2.1c0.9,0.6,3.1,2.6,4.5,9.2c1.4,7.5,0.2,12.5,0.1,12.6c-2.6,2.1-5.9,3.4-9.5,3.4
		C150.1,204.9,149.8,204.9,149.5,204.9z M161.3,200.3c0-0.2,0.9-9.5,0-12c0,0,2.8-1.8,3.6-3c0.4,1.4,0.7,2.9,0.7,4.4
		C165.6,193.8,163.9,197.5,161.3,200.3z"/>
	<path class="st8" d="M647.1,172.7c-9.4,0-17,7.6-17,17s7.6,17,17,17c9.4,0,17-7.6,17-17S656.5,172.7,647.1,172.7z M660.5,182.4
		c-0.3,1-1,3-2.8,4.4c0,0-2.7-6-4.6-8c1.2-1.1,1.9-2,1.9-2l0.1-0.1C657.4,178.1,659.3,180.1,660.5,182.4z M652.9,175.6
		c-1.1,4.4-4.5,4.7-8.1,5.2c-3.5,0.5-6-3.8-6-3.9c2.4-1.6,5.3-2.5,8.3-2.5C649.2,174.5,651.1,174.9,652.9,175.6z M638.4,177.2
		c1.6,2.5,2.8,4.1,4.8,4.6c2.1,2.6,3,7.8,3,11.7c0,0-2.2,0.7-6.9-1.7c-4.2-2.1-5.9-7.5-6.2-8.5C634.4,180.9,636.2,178.8,638.4,177.2
		z M631.9,189.7c0-0.9,0.1-1.8,0.2-2.6c3.5,1.9,4.2,3.6,6.9,5.6c2.8,2,7.1,2.9,7.2,2.9c-0.3,5.6-1.6,8-2.4,9
		C637.1,203.1,631.9,197,631.9,189.7z M646.3,204.9c1.3-3,1.4-6,1.3-11.7c-0.1-5.1-2.3-9.8-2.9-11.1c0.8,0.1,1.6,0,2.6-0.2
		c1.9-0.3,3.5-1.2,4.8-2.1c0.9,0.6,3.1,2.6,4.5,9.2c1.4,7.5,0.2,12.5,0.1,12.6c-2.6,2.1-5.9,3.4-9.5,3.4
		C646.8,204.9,646.5,204.9,646.3,204.9z M658.1,200.3c0-0.2,0.9-9.5,0-12c0,0,2.8-1.8,3.6-3c0.4,1.4,0.7,2.9,0.7,4.4
		C662.4,193.8,660.7,197.5,658.1,200.3z"/>
	<radialGradient id="SVGID_5_" cx="401.7516" cy="644.0475" r="192.7766" gradientUnits="userSpaceOnUse">
		<stop  offset="0.2095" style="stop-color:#DFBB86"/>
		<stop  offset="1" style="stop-color:#BE8940"/>
	</radialGradient>
	<path class="st9" d="M223,647.8h-0.9v-0.9V607v-0.9h0.9h5.7h0.9v0.9v16.2h13.3V607v-0.9h0.9h5.7h0.9v0.9v39.9v0.9h-0.9h-5.7h-0.9
		v-0.9v-16.6h-13.3v16.6v0.9h-0.9H223z M293.3,647.8h0.9v-0.9v-5.7v-0.9h-0.9h-17.6v-10h14.9h0.9v-0.9v-5.4v-0.9h-0.9h-14.9v-9.6
		h17.6h0.9v-0.9V607v-0.9h-0.9h-24.2h-0.9v0.9v39.9v0.9h0.9H293.3z M316.9,647.8h0.9v-0.9v-25.4l15.6,25.8l0.3,0.4h0.5h5.4h0.9v-0.9
		V607v-0.9h-0.9h-5.7H333v0.9v25.4l-15.6-25.8l-0.3-0.4h-0.5h-5.4h-0.9v0.9v39.9v0.9h0.9H316.9z M357.8,638.7
		c0.2,0.6,0.5,1.2,0.8,1.8c1,2,2.6,3.7,4.7,5.2c2.1,1.5,4.8,2.4,7.9,2.5c4.1-0.1,7.6-1.6,10.3-4.4c2.7-2.9,4.1-6.4,4.1-10.6l0-8.1
		v-0.9h-0.9h-13.5h-0.9v0.9v5.7v0.9h0.9h6.8v1.2c0,2.3-0.7,4.1-2,5.4c-1.3,1.4-2.9,2.1-4.9,2.1c-1.2,0-2.2-0.3-3-0.8l0,0l0,0
		c-0.9-0.4-1.6-1-2.1-1.7l0,0l0,0c-0.6-0.7-1.1-1.7-1.3-2.9c-0.3-1.3-0.4-4-0.4-7.8c0-3.8,0.1-6.5,0.4-7.9c0.2-1.2,0.6-2.2,1.3-2.9
		l0,0l0,0c0.5-0.7,1.2-1.3,2.1-1.8c0.8-0.5,1.9-0.7,3.1-0.7c1.6,0,3,0.5,4.1,1.5c1.1,1,1.8,2.2,2.3,3.7l0.2,0.6h0.7h6.1h1l-0.2-1
		c-0.6-3.5-2.2-6.5-4.6-8.9c-2.5-2.4-5.7-3.6-9.5-3.7l0,0l0,0c-3.2,0-5.8,0.9-8,2.4c-2.1,1.5-3.7,3.3-4.7,5.2
		c-0.6,1.1-1.1,2.4-1.4,4.1c-0.3,1.6-0.4,4.7-0.4,9.5c0,4.7,0.1,7.7,0.4,9.4C357.4,637.3,357.6,638,357.8,638.7z M429.6,647.8h0.9
		v-0.9v-16.2h14.9h0.9v-0.9v-5.4v-0.9h-0.9h-14.9v-10h17.6h0.9v-0.9V607v-0.9h-0.9h-24.2H423v0.9v39.9v0.9h0.9H429.6z M488.9,647.8
		h0.9v-0.9v-5.7v-0.9h-0.9h-17.6v-10h14.9h0.9v-0.9v-5.4v-0.9h-0.9h-14.9v-9.6h17.6h0.9v-0.9V607v-0.9h-0.9h-24.2h-0.9v0.9v39.9v0.9
		h0.9H488.9z M512.5,647.8h0.9v-0.9v-25.4l15.6,25.8l0.3,0.4h0.5h5.4h0.9v-0.9V607v-0.9h-0.9h-5.7h-0.9v0.9v25.4l-15.6-25.8
		l-0.3-0.4h-0.5h-5.4h-0.9v0.9v39.9v0.9h0.9H512.5z M553.3,638.7c0.2,0.6,0.5,1.2,0.8,1.8c1,2,2.6,3.7,4.7,5.2
		c2.1,1.5,4.8,2.4,7.9,2.5c4.1-0.1,7.6-1.6,10.3-4.4c2.7-2.9,4.1-6.4,4.1-10.6l0-8.1v-0.9h-0.9h-13.5h-0.9v0.9v5.7v0.9h0.9h6.8v1.2
		c0,2.3-0.7,4.1-2,5.4c-1.3,1.4-2.9,2.1-4.9,2.1c-1.2,0-2.2-0.3-3-0.8l0,0l0,0c-0.9-0.4-1.6-1-2.1-1.7l0,0l0,0
		c-0.6-0.7-1.1-1.7-1.3-2.9c-0.3-1.3-0.4-4-0.4-7.8c0-3.9,0.1-6.5,0.4-7.9c0.2-1.2,0.6-2.2,1.3-2.9l0,0l0,0c0.5-0.7,1.2-1.3,2.1-1.8
		c0.8-0.5,1.9-0.7,3.1-0.7c1.6,0,3,0.5,4.1,1.5c1.1,1,1.8,2.2,2.3,3.7l0.2,0.6h0.7h6.1h1l-0.2-1c-0.6-3.5-2.2-6.5-4.6-8.9
		c-2.5-2.4-5.7-3.6-9.5-3.7l0,0l0,0c-3.2,0-5.8,0.9-8,2.4c-2.1,1.5-3.7,3.3-4.7,5.2c-0.6,1.1-1.1,2.4-1.4,4.1
		c-0.3,1.6-0.4,4.7-0.4,9.5c0,4.7,0.1,7.7,0.4,9.4C552.9,637.3,553.1,638,553.3,638.7z M218.4,652.5v4.1h366.7v-4.1H218.4z
		 M258.4,682.1h3.6v-7.8h7.6V671h-7.6v-4.5h8.9V663h-12.6V682.1z M294,668.2c0.1,0.8,0.2,2.2,0.2,4.3c0,2.1-0.1,3.5-0.2,4.3
		c-0.1,0.8-0.4,1.5-0.7,2c-0.4,0.9-1.2,1.7-2.2,2.3c-1,0.7-2.3,1.1-3.9,1.1c-1.5,0-2.8-0.4-3.9-1.1c-1-0.7-1.8-1.5-2.3-2.4
		c-0.1-0.3-0.3-0.6-0.4-0.8c-0.1-0.3-0.2-0.7-0.3-1.1c-0.1-0.8-0.2-2.2-0.2-4.3c0-2.2,0.1-3.6,0.2-4.3c0.1-0.8,0.4-1.4,0.7-1.9
		c0.5-0.9,1.2-1.7,2.3-2.4c1-0.7,2.3-1.1,3.8-1.1c1.5,0,2.9,0.4,3.9,1.1c1,0.7,1.8,1.5,2.2,2.4C293.7,666.8,293.9,667.4,294,668.2z
		 M290.6,672.6c0-1.8-0.1-3-0.2-3.6c-0.1-0.5-0.3-1-0.6-1.3c-0.3-0.4-0.6-0.6-1-0.9c-0.4-0.2-0.9-0.3-1.5-0.3
		c-0.6,0-1.1,0.1-1.5,0.3c-0.4,0.2-0.8,0.5-1,0.8c-0.3,0.4-0.5,0.8-0.6,1.3c-0.1,0.6-0.2,1.8-0.2,3.6s0.1,3,0.2,3.6
		c0.1,0.6,0.3,1,0.6,1.3c0.3,0.3,0.6,0.6,1,0.8c0.9,0.5,2.2,0.5,3,0c0.4-0.2,0.7-0.5,1-0.8c0.3-0.4,0.5-0.8,0.7-1.4
		C290.5,675.5,290.6,674.3,290.6,672.6z M318.4,668.2c0.1,0.8,0.2,2.2,0.2,4.3c0,2.1-0.1,3.5-0.2,4.3c-0.1,0.8-0.4,1.5-0.7,2
		c-0.4,0.9-1.2,1.7-2.2,2.3c-1,0.7-2.3,1.1-3.9,1.1c-1.5,0-2.8-0.4-3.9-1.1c-1-0.7-1.8-1.5-2.3-2.4c-0.1-0.3-0.3-0.6-0.4-0.8
		c-0.1-0.3-0.2-0.7-0.3-1.1c-0.1-0.8-0.2-2.2-0.2-4.3c0-2.2,0.1-3.6,0.2-4.3c0.1-0.8,0.4-1.4,0.7-1.9c0.5-0.9,1.2-1.7,2.3-2.4
		c1-0.7,2.3-1.1,3.8-1.1c1.5,0,2.9,0.4,3.9,1.1c1,0.7,1.8,1.5,2.2,2.4C318,666.8,318.3,667.4,318.4,668.2z M314.9,672.6
		c0-1.8-0.1-3-0.2-3.6c-0.1-0.5-0.3-1-0.6-1.3c-0.3-0.4-0.6-0.6-1-0.9c-0.4-0.2-0.9-0.3-1.5-0.3c-0.6,0-1.1,0.1-1.5,0.3
		c-0.4,0.2-0.8,0.5-1,0.8c-0.3,0.4-0.5,0.8-0.6,1.3c-0.1,0.6-0.2,1.8-0.2,3.6s0.1,3,0.2,3.6c0.1,0.6,0.3,1,0.6,1.3
		c0.3,0.3,0.6,0.6,1,0.8c0.9,0.5,2.2,0.5,3,0c0.4-0.2,0.7-0.5,1-0.8c0.3-0.4,0.5-0.8,0.7-1.4C314.9,675.5,314.9,674.3,314.9,672.6z
		 M327.7,666.3h5v15.8h3.7v-15.8h5V663h-13.7V666.3z M384.1,663l7,19.2h-3.9l-1.4-4.1h-6.3l-1.4,4.1h-3.9l7-19.2H384.1z
		 M384.7,674.7l-2.1-6.2l-2.1,6.2H384.7z M404.2,663h-3.6v19.2h12.6v-3.5h-8.9V663z M426.6,663H423v19.2h12.6v-3.5h-8.9V663z
		 M469.2,676.4c-0.7,1.5-1.7,2.2-3.1,2.2c-0.6,0-1.1-0.1-1.5-0.4c-0.4-0.2-0.8-0.5-1-0.8c-0.3-0.3-0.5-0.8-0.6-1.3
		c-0.1-0.6-0.2-1.8-0.2-3.6c0-1.8,0.1-3,0.2-3.6c0.1-0.5,0.3-1,0.6-1.3c0.3-0.3,0.6-0.6,1-0.8c0.4-0.2,0.9-0.3,1.5-0.3
		c0.8,0,1.4,0.2,2,0.7c0.5,0.5,0.9,1,1.1,1.7l0.1,0.3h3.8l-0.1-0.5c-0.3-1.6-1.1-3-2.2-4.1c-1.2-1.1-2.7-1.7-4.6-1.7
		c-1.5,0-2.8,0.4-3.8,1.1c-1,0.7-1.8,1.5-2.3,2.4c-0.3,0.5-0.5,1.1-0.7,1.9c-0.1,0.8-0.2,2.2-0.2,4.3c0,2.1,0.1,3.5,0.2,4.3
		c0.1,0.4,0.2,0.8,0.3,1.1c0.1,0.3,0.2,0.5,0.4,0.8c0.5,0.9,1.2,1.7,2.3,2.4c1,0.7,2.3,1.1,3.8,1.1c1.7,0,3.2-0.5,4.4-1.5
		c1.2-1,2-2.4,2.4-4.2l0.1-0.5h-3.8L469.2,676.4z M487.6,663H484v19.2h12.6v-3.5h-8.9V663z M515.6,675.1c0,1.1-0.3,2-0.9,2.5
		c-0.6,0.6-1.4,0.9-2.4,0.9c-1,0-1.7-0.3-2.3-0.9c-0.6-0.6-0.9-1.4-0.9-2.5v-12.2h-3.6v12.5c0,2,0.7,3.7,2,4.9
		c1.3,1.2,3,1.9,4.9,1.9c2,0,3.6-0.7,4.9-1.9c1.3-1.2,2-2.9,2-4.9v-12.5h-3.6V675.1z M364.4,673.6c0.5,0.9,0.8,1.9,0.8,2.9
		c0,1.7-0.6,3.1-1.6,4.1c-1,1-2.4,1.6-3.9,1.6h-8.1V663h7.5c1.9,0,3.4,0.5,4.4,1.5c1,1,1.5,2.3,1.5,3.9c0,0.8-0.2,1.6-0.6,2.4
		c-0.2,0.4-0.5,0.7-0.9,1.1c-0.2,0.2-0.4,0.3-0.6,0.4C363.5,672.5,364,673,364.4,673.6z M355.2,670.7h3.6c0.9,0,1.5-0.2,1.9-0.6
		c0.4-0.4,0.6-0.9,0.6-1.5c0-0.6-0.2-1.1-0.6-1.6c-0.4-0.4-1-0.6-1.9-0.6h-3.6V670.7z M361.6,676.3c0-0.6-0.2-1.2-0.6-1.6
		c-0.4-0.4-1-0.7-1.9-0.7h-3.8v4.6h3.8c0.9,0,1.5-0.2,1.9-0.7C361.4,677.5,361.6,677,361.6,676.3z M543.5,673.6
		c0.5,0.9,0.8,1.9,0.8,2.9c0,1.7-0.6,3.1-1.6,4.1c-1,1-2.4,1.6-3.9,1.6h-8.1V663h7.5c1.9,0,3.4,0.5,4.4,1.5c1,1,1.5,2.3,1.5,3.9
		c0,0.8-0.2,1.6-0.6,2.4c-0.2,0.4-0.5,0.7-0.9,1.1c-0.2,0.2-0.4,0.3-0.6,0.4C542.5,672.5,543.1,673,543.5,673.6z M534.3,670.7h3.6
		c0.9,0,1.5-0.2,1.9-0.6c0.4-0.4,0.6-0.9,0.6-1.5c0-0.6-0.2-1.1-0.6-1.6c-0.4-0.4-1-0.6-1.9-0.6h-3.6V670.7z M540.6,676.3
		c0-0.6-0.2-1.2-0.6-1.6c-0.4-0.4-1-0.7-1.9-0.7h-3.8v4.6h3.8c0.9,0,1.5-0.2,1.9-0.7C540.4,677.5,540.6,677,540.6,676.3z"/>
</g>
</svg>
