<?xml version="1.0" encoding="utf-8"?>
<!-- Generator: Adobe Illustrator 22.1.0, SVG Export Plug-In . SVG Version: 6.00 Build 0)  -->
<svg version="1.1" id="图层_1" xmlns="http://www.w3.org/2000/svg" xmlns:xlink="http://www.w3.org/1999/xlink" x="0px" y="0px"
	 viewBox="0 0 800 800" style="enable-background:new 0 0 800 800;" xml:space="preserve">
<style type="text/css">
	.st0{fill:#820000;}
</style>
<g>
	<path class="st0" d="M262.5,376.4c-3.6,3.1-4.5,6-4.7,6.7c-0.2,0.7-3.5,8.2-4.1,9l20.5-17.5C274.3,374.7,268.7,371.4,262.5,376.4z"
		/>
	<path class="st0" d="M277.5,363.1c-2.5-6.2-6-8.3-11.3-7.9s-11.2,1.7-14.7,9.2c-3.4,7.5-1.9,14.8-3.7,21.1c-1.8,6.3-3.2,9.8-6,13.9
		c0,0,5-0.9,9.4-11.5c1.8-4.1,7.2-15.4,14.6-17c7.4-1.6,12.8-1.4,17.5-1.2C283.4,369.7,280,369.3,277.5,363.1z"/>
	<path class="st0" d="M310.6,349.2c-12,1-18.7-0.9-31.5-9.3c-12.9-8.5-25.2-0.8-27.1,2.3c-1.9,3.1-1.9,3.6-2.4,7.5s-7.2,9.2-9.5,9.9
		c0,0,11.6,0,15.7-4.6c4-4.6,2.9-6.6,9.4-6c6.5,0.6,12,7.6,14.7,9.2c2.8,1.6,6.5,3.9,12.2,4.2c5.7,0.2,27.3,0.5,35.3-20
		C327.3,342.3,322.5,348.3,310.6,349.2z"/>
	<path class="st0" d="M251.8,312.4c-16,0.6-21.8,10.4-21.1,31.3c0.1,3.3-3.8,4.1-20.7,1.9c0,0,4.4,8.2,15,8.2
		c10.6,0,15.2-4,16.5-10.6c1.4-6.6,2.1-14.8,5.6-17.1s12.9-3.1,21.5,3.7C268.6,329.9,267.8,311.9,251.8,312.4z"/>
	<path class="st0" d="M295.1,301.3c10.2-3.6,13-15.8,11.7-28.9c0,0-7.3,14.9-14.6,17.1c-5.8,1.3-18-5.4-19.6-6.1s-15.3-6.9-26.1-1.3
		c-10.8,5.5-15,19-16.8,28.9c0,0,6.4-15.3,16.8-18.4c10.4-3.1,22.6,2.6,25.7,5.4C275.2,300.8,284.8,305,295.1,301.3z"/>
	<path class="st0" d="M325.9,303c-13.1,16.5-15.3,16.9-21.9,18.5c-6.6,1.6-14-4.1-15.5-5.4c-1.5-1.3-6.7-6.6-12-9.2
		c-5.3-2.6-17.8-1.8-17.8-1.8c3.2,0.6,11.8,6.6,18.2,16.1c6.4,9.5,14.9,20,28.9,21.5s19.4-4.1,25.5-9.8c6.1-5.7,8.6-15.8,19.3-24.2
		s26-11.2,26-11.2c-3.9-0.3-6.4-2.2-16.1-5C351,289.7,339,286.5,325.9,303z"/>
	<path class="st0" d="M344.7,320c-9.8,12.3-14.7,27.6-14.7,27.6s26.3-35.8,40.4-44.9C370.3,302.7,357.8,303.8,344.7,320z"/>
	<path class="st0" d="M302,250.3c9,1.6,24.1-12.6,30.3-14.7c6.2-2.2,14.7,5.9,14.7,5.9s-1.5-14-11.3-15.7
		c-11.2-1.7-22.3,16.9-31.5,17.4c-9.9,0.5-12.6-8.9-12.6-8.9C291.3,234.8,293.1,248.7,302,250.3z"/>
	<path class="st0" d="M284.7,306.2c0,0,5.1,7.9,16.9,6.9c11.8-1,15.9-8.6,16.8-24.8c0.9-16.2-0.9-15.9,5.3-26.6
		c3.6-6,9.2-8.5,15.3-7.3c6.1,1.2,14.3,2.8,19,0.4c4.7-2.3,5.5-3.7,6.7-6.8c1.2-3.1,1.7-5.4,3.7-7.6c0,0-2.5-0.1-5.8,3
		c-3.4,3.1-4.8,5.5-11.9,4.5c-7.2-1-18.9-4.8-25.7-2.8c-6.8,1.9-12.2,6.4-14.1,18.9c-1.9,12.5,0.1,22-1.2,27.7
		S304.8,306.9,284.7,306.2z"/>
	<path class="st0" d="M371.8,248.9c-2.5,4.9-4.5,9.6-7.8,10c-3.3,0.4-19.3-0.4-22.2,0c-2.9,0.4-16.7,0.6-20.2,32.3
		c0,0,8.4-13.9,20-19.9c11.7-6,17.9-1.6,26.5-4.1c6-1.7,5.6-4.9,5.6-6.6c0.1-1.7-0.4-11.2,6.2-13.7C380,247,374.3,244,371.8,248.9z"
		/>
	<path class="st0" d="M360,272.7c-13.6,0.4-18.9,0.4-27.2,8.2c-8.4,7.8-11.6,19.5-11.6,19.5s12.7-9.9,19-13.4
		c6.3-3.5,10.3-1.3,11.6-0.9c1.3,0.4,23.9,8.4,34.4,2.8c10.5-5.5,11.3-22.5,11-30.6c-0.3-8.1,8.2-11.1,8.2-11.1
		c-16.3-0.1-19.6,6.2-22.9,14.9C379.2,270.8,373.6,272.4,360,272.7z"/>
	<path class="st0" d="M400.4,269.2c0,0,2.3-6.1,2.4-10.4c0.1-4.4,3-6.9,3-6.9C396.9,254.2,400.4,269.2,400.4,269.2z"/>
	<path class="st0" d="M332.1,209.8c-8.8,3.2-12.4,14.9-12.4,14.9c14-10.2,16.2-8.3,21.9-5.5c5.7,2.8,12.3,17.1,25.7,17.2
		S388,229.2,394,218c6-11.2,15.3-11.2,15.3-11.2c-8.8-5.7-16.3,0.9-22.8,7.6s-21,7-29.9,2.2C347.7,211.7,340.9,206.6,332.1,209.8z"
		/>
	<path class="st0" d="M532.9,161.7c-4.5,9.5-25.3,23-25.3,23c3.5,0,16.3,9.3,16.3,9.3C538.2,174.4,532.9,161.7,532.9,161.7z"/>
	<path class="st0" d="M269.4,515h14.9L258,585.2h65.4l63-168.1h-52.4c-7.8,0-14.8,4.8-17.5,12.1l-18.1,48.3h-15.1L306,417h-51.4
		c-8.8,0-16.6,5.4-19.7,13.6L177,585.2h66L269.4,515z"/>
	<path class="st0" d="M561.1,516.2h42.5c8.7,0,16.5-5.4,19.5-13.5l9.4-25.1h-55.7L561.1,516.2z"/>
	<path class="st0" d="M466.1,526.6c-19.6-10.7-7.2-27-7.2-27c-5.4,24.7,20.7,22.3,20.7,22.3c8-5.1,8.6-20,8.6-20
		c8.4-8.3,11.3-12.8,20.1-30.6c8.8-17.7,24.1-19.5,24.5-28c0.4-8.6-6.6-20.2-18.1-23.2c-11.5-2.9-29,9.3-29,9.3
		c-9.5,32.9-37.8,57.2-37.8,57.2c10-5.3,22.7-4,22.7-4c5.6-4.7,12.4-17.8,12.4-17.8c-0.3,15.1-11,23.8-13.7,26.3
		c-3.4,3-3.4-1.9-3.4-1.9c-7.9-3.6-17.4-0.1-28.3,16.5c-10.9,16.6-2.6,35.3-2.6,35.3C460.6,547.3,466.1,526.6,466.1,526.6z"/>
	<path class="st0" d="M150.4,172.7c-9.4,0-17,7.6-17,17s7.6,17,17,17c9.4,0,17-7.6,17-17S159.7,172.7,150.4,172.7z M150.4,174.5
		c2,0,4,0.4,5.8,1.1c-1.1,4.4-4.5,4.7-8.1,5.2c-3.5,0.5-6-3.8-6-3.9C144.4,175.4,147.3,174.5,150.4,174.5z M141.7,177.2
		c1.6,2.5,2.8,4.1,4.8,4.6c2.1,2.6,3,7.8,3,11.7c0,0-2.2,0.7-6.9-1.7c-4.2-2.1-5.9-7.5-6.2-8.5C137.7,180.9,139.4,178.8,141.7,177.2
		z M135.1,189.7c0-0.9,0.1-1.8,0.2-2.6c3.5,1.9,4.2,3.6,6.9,5.6c2.8,2,7.1,2.9,7.2,2.9c-0.3,5.6-1.6,8-2.4,9
		C140.3,203.1,135.1,197,135.1,189.7z M159.9,201.6c-2.6,2.1-5.9,3.4-9.5,3.4c-0.3,0-0.6,0-0.9,0c1.3-3,1.4-6,1.3-11.7
		c-0.1-5.1-2.3-9.8-2.9-11.1c0.8,0.1,1.6,0,2.6-0.2c1.9-0.3,3.5-1.2,4.8-2.1c0.9,0.6,3.1,2.6,4.5,9.2
		C161.1,196.4,159.9,201.4,159.9,201.6z M164.9,185.3c0.4,1.4,0.7,2.9,0.7,4.4c0,4.1-1.6,7.8-4.3,10.6c0-0.2,0.9-9.5,0-12
		C161.3,188.3,164,186.5,164.9,185.3z M161,186.8c0,0-2.7-6-4.6-8c1.2-1.1,1.9-2,1.9-2l0.1-0.1c2.3,1.4,4.1,3.4,5.4,5.7
		C163.5,183.5,162.7,185.5,161,186.8z"/>
	<path class="st0" d="M647.1,206.7c9.4,0,17-7.6,17-17s-7.6-17-17-17c-9.4,0-17,7.6-17,17S637.8,206.7,647.1,206.7z M656.7,201.6
		c-2.6,2.1-5.9,3.4-9.5,3.4c-0.3,0-0.6,0-0.9,0c1.3-3,1.4-6,1.3-11.7c-0.1-5.1-2.3-9.8-2.9-11.1c0.8,0.1,1.6,0,2.6-0.2
		c1.9-0.3,3.5-1.2,4.8-2.1c0.9,0.6,3.1,2.6,4.5,9.2C657.9,196.4,656.7,201.4,656.7,201.6z M661.7,185.3c0.4,1.4,0.7,2.9,0.7,4.4
		c0,4.1-1.6,7.8-4.3,10.6c0-0.2,0.9-9.5,0-12C658.1,188.3,660.8,186.5,661.7,185.3z M655.1,176.8L655.1,176.8
		c2.3,1.3,4.2,3.3,5.5,5.6c-0.3,1-1,3-2.8,4.4c0,0-2.7-6-4.6-8C654.4,177.8,655.1,176.8,655.1,176.8z M647.1,174.5
		c2,0,4,0.4,5.8,1.1c-1.1,4.4-4.5,4.7-8.1,5.2c-3.5,0.5-6-3.8-6-3.9C641.2,175.4,644.1,174.5,647.1,174.5z M638.4,177.2
		c1.6,2.5,2.8,4.1,4.8,4.6c2.1,2.6,3,7.8,3,11.7c0,0-2.2,0.7-6.9-1.7c-4.2-2.1-5.9-7.5-6.2-8.5C634.4,180.9,636.2,178.8,638.4,177.2
		z M632.2,187.1c3.5,1.9,4.2,3.6,6.9,5.6c2.8,2,7.1,2.9,7.2,2.9c-0.3,5.6-1.6,8-2.4,9c-6.8-1.5-12-7.6-12-14.9
		C631.9,188.8,632,187.9,632.2,187.1z"/>
	<polygon class="st0" points="380.5,674.7 384.7,674.7 382.6,668.5 	"/>
	<path class="st0" d="M359,674h-3.8v4.6h3.8c0.9,0,1.5-0.2,1.9-0.7c0.4-0.5,0.6-1,0.6-1.6c0-0.6-0.2-1.2-0.6-1.6
		C360.6,674.3,359.9,674,359,674z"/>
	<path class="st0" d="M289.8,667.7c-0.3-0.4-0.6-0.6-1-0.9c-0.4-0.2-0.9-0.3-1.5-0.3c-0.6,0-1.1,0.1-1.5,0.3c-0.4,0.2-0.8,0.5-1,0.8
		c-0.3,0.4-0.5,0.8-0.6,1.3c-0.1,0.6-0.2,1.8-0.2,3.6s0.1,3,0.2,3.6c0.1,0.6,0.3,1,0.6,1.3c0.3,0.3,0.6,0.6,1,0.8
		c0.9,0.5,2.2,0.5,3,0c0.4-0.2,0.7-0.5,1-0.8c0.3-0.4,0.5-0.8,0.7-1.4c0.1-0.6,0.2-1.8,0.2-3.6c0-1.8-0.1-3-0.2-3.6
		C290.3,668.4,290.1,668,289.8,667.7z"/>
	<path class="st0" d="M360.7,670c0.4-0.4,0.6-0.9,0.6-1.5c0-0.6-0.2-1.1-0.6-1.6c-0.4-0.4-1-0.6-1.9-0.6h-3.6v4.4h3.6
		C359.7,670.7,360.3,670.5,360.7,670z"/>
	<path class="st0" d="M314.1,667.7c-0.3-0.4-0.6-0.6-1-0.9c-0.4-0.2-0.9-0.3-1.5-0.3c-0.6,0-1.1,0.1-1.5,0.3c-0.4,0.2-0.8,0.5-1,0.8
		c-0.3,0.4-0.5,0.8-0.6,1.3c-0.1,0.6-0.2,1.8-0.2,3.6s0.1,3,0.2,3.6c0.1,0.6,0.3,1,0.6,1.3c0.3,0.3,0.6,0.6,1,0.8
		c0.9,0.5,2.2,0.5,3,0c0.4-0.2,0.7-0.5,1-0.8c0.3-0.4,0.5-0.8,0.7-1.4c0.1-0.6,0.2-1.8,0.2-3.6c0-1.8-0.1-3-0.2-3.6
		C314.6,668.4,314.4,668,314.1,667.7z"/>
	<path class="st0" d="M203.6,687.2H607l24.7-90.3H171.2L203.6,687.2z M271,666.5h-8.9v4.5h7.6v3.3h-7.6v7.8h-3.6V663H271V666.5z
		 M294,676.9c-0.1,0.8-0.4,1.5-0.7,2c-0.4,0.9-1.2,1.7-2.2,2.3c-1,0.7-2.3,1.1-3.9,1.1c-1.5,0-2.8-0.4-3.9-1.1
		c-1-0.7-1.8-1.5-2.3-2.4c-0.1-0.3-0.3-0.6-0.4-0.8c-0.1-0.3-0.2-0.7-0.3-1.1c-0.1-0.8-0.2-2.2-0.2-4.3c0-2.2,0.1-3.6,0.2-4.3
		c0.1-0.8,0.4-1.4,0.7-1.9c0.5-0.9,1.2-1.7,2.3-2.4c1-0.7,2.3-1.1,3.8-1.1c1.5,0,2.9,0.4,3.9,1.1c1,0.7,1.8,1.5,2.2,2.4
		c0.3,0.4,0.6,1.1,0.7,1.9c0.1,0.8,0.2,2.2,0.2,4.3C294.2,674.7,294.2,676.1,294,676.9z M318.4,676.9c-0.1,0.8-0.4,1.5-0.7,2
		c-0.4,0.9-1.2,1.7-2.2,2.3c-1,0.7-2.3,1.1-3.9,1.1c-1.5,0-2.8-0.4-3.9-1.1c-1-0.7-1.8-1.5-2.3-2.4c-0.1-0.3-0.3-0.6-0.4-0.8
		c-0.1-0.3-0.2-0.7-0.3-1.1c-0.1-0.8-0.2-2.2-0.2-4.3c0-2.2,0.1-3.6,0.2-4.3c0.1-0.8,0.4-1.4,0.7-1.9c0.5-0.9,1.2-1.7,2.3-2.4
		c1-0.7,2.3-1.1,3.8-1.1c1.5,0,2.9,0.4,3.9,1.1c1,0.7,1.8,1.5,2.2,2.4c0.3,0.4,0.6,1.1,0.7,1.9c0.1,0.8,0.2,2.2,0.2,4.3
		C318.6,674.7,318.5,676.1,318.4,676.9z M341.4,666.3h-5v15.8h-3.7v-15.8h-5V663h13.7V666.3z M363.6,680.6c-1,1-2.4,1.6-3.9,1.6
		h-8.1V663h7.5c1.9,0,3.4,0.5,4.4,1.5c1,1,1.5,2.3,1.5,3.9c0,0.8-0.2,1.6-0.6,2.4c-0.2,0.4-0.5,0.7-0.9,1.1
		c-0.2,0.2-0.4,0.3-0.6,0.4c0.7,0.3,1.2,0.8,1.6,1.4c0.5,0.9,0.8,1.9,0.8,2.9C365.2,678.2,364.7,679.6,363.6,680.6z M387.2,682.1
		l-1.4-4.1h-6.3l-1.4,4.1h-3.9l7-19.2h2.9l7,19.2H387.2z M413.1,682.1h-12.6V663h3.6v15.7h8.9V682.1z M435.5,682.1H423V663h3.6v15.7
		h8.9V682.1z M473,676.7c-0.4,1.8-1.2,3.2-2.4,4.2c-1.2,1-2.7,1.5-4.4,1.5c-1.5,0-2.8-0.4-3.8-1.1c-1-0.7-1.8-1.5-2.3-2.4
		c-0.1-0.3-0.3-0.6-0.4-0.8c-0.1-0.3-0.2-0.6-0.3-1.1c-0.1-0.8-0.2-2.2-0.2-4.3c0-2.2,0.1-3.6,0.2-4.3c0.1-0.8,0.4-1.4,0.7-1.9
		c0.5-0.9,1.2-1.7,2.3-2.4c1-0.7,2.3-1.1,3.8-1.1c1.9,0,3.4,0.6,4.6,1.7c1.2,1.1,1.9,2.5,2.2,4.1l0.1,0.5h-3.8l-0.1-0.3
		c-0.2-0.7-0.6-1.2-1.1-1.7c-0.5-0.4-1.2-0.6-2-0.7c-0.6,0-1.1,0.1-1.5,0.3c-0.4,0.2-0.8,0.5-1,0.8c-0.3,0.4-0.5,0.8-0.6,1.3
		c-0.1,0.6-0.2,1.8-0.2,3.6c0,1.8,0.1,3,0.2,3.6c0.1,0.6,0.3,1,0.6,1.3c0.3,0.3,0.6,0.6,1,0.8c0.4,0.3,0.9,0.4,1.5,0.4
		c1.4,0,2.4-0.7,3.1-2.2l0.1-0.3h3.8L473,676.7z M496.5,682.1H484V663h3.6v15.7h8.9V682.1z M519.3,675.4c0,2-0.7,3.7-2,4.9
		c-1.3,1.2-3,1.9-4.9,1.9c-1.9,0-3.6-0.7-4.9-1.9c-1.3-1.2-2-2.8-2-4.9v-12.5h3.6v12.2c0,1.1,0.3,2,0.9,2.5c0.6,0.6,1.4,0.9,2.3,0.9
		c1,0,1.7-0.3,2.4-0.9c0.6-0.6,0.9-1.4,0.9-2.5v-12.2h3.6V675.4z M542.7,680.6c-1,1-2.4,1.6-3.9,1.6h-8.1V663h7.5
		c1.9,0,3.4,0.5,4.4,1.5c1,1,1.5,2.3,1.5,3.9c0,0.8-0.2,1.6-0.6,2.4c-0.2,0.4-0.5,0.7-0.9,1.1c-0.2,0.2-0.4,0.3-0.6,0.4
		c0.7,0.3,1.2,0.8,1.6,1.4c0.5,0.9,0.8,1.9,0.8,2.9C544.3,678.2,543.7,679.6,542.7,680.6z M552.7,617.5c0.3-1.6,0.8-3,1.4-4.1
		c1-2,2.6-3.7,4.7-5.2c2.1-1.6,4.8-2.4,8-2.4l0,0l0,0c3.9,0,7.1,1.3,9.5,3.7c2.4,2.4,4,5.4,4.6,8.9l0.2,1h-1H574h-0.7l-0.2-0.6
		c-0.4-1.4-1.2-2.7-2.3-3.7c-1.1-1-2.5-1.4-4.1-1.5c-1.2,0-2.2,0.3-3.1,0.7c-0.9,0.5-1.6,1.1-2.1,1.8l0,0l0,0
		c-0.6,0.7-1.1,1.7-1.3,2.9c-0.3,1.4-0.4,4-0.4,7.9c0,3.8,0.1,6.5,0.4,7.8c0.2,1.2,0.6,2.2,1.3,2.9l0,0l0,0c0.5,0.7,1.2,1.3,2.1,1.7
		l0,0l0,0c0.8,0.5,1.8,0.8,3,0.8c2,0,3.6-0.7,4.9-2.1c1.3-1.4,2-3.2,2-5.4v-1.2h-6.8h-0.9v-0.9v-5.7v-0.9h0.9h13.5h0.9v0.9l0,8.1
		c-0.1,4.2-1.5,7.8-4.1,10.6c-2.7,2.8-6.1,4.3-10.3,4.4c-3.1-0.1-5.8-0.9-7.9-2.5c-2.1-1.5-3.7-3.2-4.7-5.2
		c-0.3-0.6-0.5-1.2-0.8-1.8c-0.2-0.6-0.4-1.4-0.6-2.3c-0.3-1.7-0.4-4.7-0.4-9.4C552.3,622.2,552.5,619.1,552.7,617.5z M505.9,646.9
		V607v-0.9h0.9h5.4h0.5l0.3,0.4l15.6,25.8V607v-0.9h0.9h5.7h0.9v0.9v39.9v0.9h-0.9h-5.4h-0.5l-0.3-0.4l-15.6-25.8v25.4v0.9h-0.9
		h-5.7h-0.9V646.9z M463.8,646.9V607v-0.9h0.9h24.2h0.9v0.9v5.7v0.9h-0.9h-17.6v9.6h14.9h0.9v0.9v5.4v0.9h-0.9h-14.9v10h17.6h0.9
		v0.9v5.7v0.9h-0.9h-24.2h-0.9V646.9z M423,646.9V607v-0.9h0.9h24.2h0.9v0.9v5.7v0.9h-0.9h-17.6v10h14.9h0.9v0.9v5.4v0.9h-0.9h-14.9
		v16.2v0.9h-0.9h-5.7H423V646.9z M357.3,617.5c0.3-1.7,0.8-3,1.4-4.1c1-2,2.6-3.7,4.7-5.2c2.1-1.6,4.8-2.4,8-2.4l0,0l0,0
		c3.9,0,7.1,1.3,9.5,3.7c2.4,2.4,4,5.4,4.6,8.9l0.2,1h-1h-6.1h-0.7l-0.2-0.6c-0.4-1.4-1.2-2.7-2.3-3.7c-1.1-1-2.5-1.4-4.1-1.5
		c-1.2,0-2.2,0.3-3.1,0.7c-0.9,0.5-1.6,1.1-2.1,1.8l0,0l0,0c-0.6,0.7-1.1,1.7-1.3,2.9c-0.3,1.4-0.4,4-0.4,7.9c0,3.8,0.1,6.5,0.4,7.8
		c0.2,1.2,0.6,2.2,1.3,2.9l0,0l0,0c0.5,0.7,1.2,1.3,2.1,1.7l0,0l0,0c0.8,0.5,1.8,0.8,3,0.8c2,0,3.6-0.7,4.9-2.1c1.3-1.4,2-3.2,2-5.4
		v-1.2h-6.8h-0.9v-0.9v-5.7v-0.9h0.9h13.5h0.9v0.9l0,8.1c-0.1,4.2-1.5,7.8-4.1,10.6c-2.7,2.8-6.1,4.3-10.3,4.4
		c-3.2-0.1-5.8-0.9-7.9-2.5c-2.1-1.5-3.7-3.2-4.7-5.2c-0.3-0.6-0.5-1.2-0.8-1.8c-0.2-0.6-0.4-1.4-0.6-2.3c-0.3-1.7-0.4-4.7-0.4-9.4
		C356.9,622.2,357,619.1,357.3,617.5z M310.3,646.9V607v-0.9h0.9h5.4h0.5l0.3,0.4l15.6,25.8V607v-0.9h0.9h5.7h0.9v0.9v39.9v0.9h-0.9
		h-5.4h-0.5l-0.3-0.4l-15.6-25.8v25.4v0.9h-0.9h-5.7h-0.9V646.9z M268.3,646.9V607v-0.9h0.9h24.2h0.9v0.9v5.7v0.9h-0.9h-17.6v9.6
		h14.9h0.9v0.9v5.4v0.9h-0.9h-14.9v10h17.6h0.9v0.9v5.7v0.9h-0.9h-24.2h-0.9V646.9z M222.1,646.9V607v-0.9h0.9h5.7h0.9v0.9v16.2
		h13.3V607v-0.9h0.9h5.7h0.9v0.9v39.9v0.9h-0.9h-5.7h-0.9v-0.9v-16.6h-13.3v16.6v0.9h-0.9H223h-0.9V646.9z M218.4,652.5h366.7v4.1
		H218.4V652.5z"/>
	<path class="st0" d="M539.7,670c0.4-0.4,0.6-0.9,0.6-1.5c0-0.6-0.2-1.1-0.6-1.6c-0.4-0.4-1-0.6-1.9-0.6h-3.6v4.4h3.6
		C538.7,670.7,539.3,670.5,539.7,670z"/>
	<path class="st0" d="M538.1,674h-3.8v4.6h3.8c0.9,0,1.5-0.2,1.9-0.7c0.4-0.5,0.6-1,0.6-1.6c0-0.6-0.2-1.2-0.6-1.6
		C539.6,674.3,539,674,538.1,674z"/>
	<path class="st0" d="M338.6,569.6c0.4,0.1,0.7,0.2,1,0.2c12.8,0,16.4-0.3,19.4-8.9s-1.5-21.5-1.5-21.5c1.9,0,9.6-1,16.8-5.1
		c13.6-8,15.8-13.4,15.6-17.7c-0.1-4.2-2.5-11.8-8.6-17.9c-4-1.7-8.4-4.7-12.9-8.8L338.6,569.6z"/>
	<path class="st0" d="M538.8,443.6c-0.3,6.7-5.4,10.5-10.4,14.2c-5,3.7-10.7,7.9-14.8,16.2c-8.5,17.2-12,22.7-19.7,30.6
		c-0.6,5.2-2.7,17-11.1,22.3l-1.2,0.8l-1.4,0.1c-0.2,0-1,0.1-2.2,0.1L456.2,586h64l48.5-129.7h57.5c8.6,0,16.2-5.3,19.3-13.3l9.7-26
		H522.7C533.3,422.7,539.2,434.2,538.8,443.6z"/>
	<path class="st0" d="M611.9,582.9c53.9-74.9,96.9-179.4,96.9-322.6c0-92.8-12.7-129.1-12.7-129.1s-28,19.3-116.8-5.8
		S426.9,50,400,50s-90.5,50.2-179.2,75.3S104,131.2,104,131.2s-12.7,36.3-12.7,129.1c0,125.7,33.2,221.6,77.7,293.9l0,0l-14.6,38
		l38.9,109h115.5c42.5,29.5,77.2,44.1,87.9,48.2c2.2,0.8,4.5,0.8,6.7,0c10.6-4.1,45.4-18.7,87.9-48.2h126.4l32.7-118.3L611.9,582.9
		L611.9,582.9z M610.6,691.8H488.2c-43.3,30.4-78.8,45.2-88.2,48.8c-9.4-3.6-44.9-18.4-88.2-48.8H200.3L165.1,594h-0.8l0.4-1.1
		l-0.2-0.7h0.5l3.8-10.1l10.8-28.7c-14.1-22.3-26.3-45.7-36.7-70.2c-28.1-66.6-42.3-141.5-42.3-222.9c0-63.9,6.2-100.7,9.7-116.6
		c7,2,17.3,3.8,31.7,3.8c15.2,0,32.4-2,51.4-5.9l-0.1,0l-1.3,16.9c-6.3,115.5,6.3,210,28.1,286.4l6.5-17.4
		c3.4-9,10.9-15.7,19.9-18.2c0.6-0.2,1.3-0.3,1.9-0.5c0,0,0.1,0,0.1,0c0.6-0.1,1.2-0.2,1.8-0.3c0.2,0,0.4,0,0.6-0.1
		c0.5-0.1,0.9-0.1,1.4-0.2c0.7-0.1,1.4-0.1,2.1-0.1h21.9H306h12.7l-2.4,6.5c4.9-4.1,11.1-6.5,17.6-6.5h5.9
		c2.6-37.2,24.8-49.2,24.8-49.2c-12.1,15.4-17.5,30.2-17.8,49.2h39.6H399l-4.4,11.8l-23.7,63.2c9.2,9.4,17.9,13.2,17.9,13.2
		c1.5,5.7,9.6,15.9,9.6,15.9c-2.5,7.2-1.8,17.7-1.8,17.7c-10.9,9.6-10.8,23.4-10.8,23.4c-13.9-0.1-16.4,14.1-16.4,14.1
		c-1.6-5,0.5-8.8,3.8-12s9.7-5.1,9.7-5.1c-3.4-3.6-5.4-5.1-10.4-4c-5,1.1-6.5,4.3-7.8,7.9c-1.3,3.6,0,9.7-1,11.8
		c-1,2.1-4.2,4.7-4.2,4.7c3.2,13,25,17.8,36.1,18.7c11.1,0.9,10.7-0.4,13-4.7c2.3-4.2,1-12.6,1-12.6s10.2-16.8,12.4-20.1
		c2.2-3.4,2.8-5.5,1.9-10.1c-0.9-4.5,0-7.4,1.3-10.8c1.3-3.4,8.2-37.3,8.2-37.3c42-29.6,49.8-70.5,49.8-70.5
		c39.3-15.6,17.1-57.5,17.1-57.5c-0.6,3.5-2.3,12.8-18.4,16.1c-27.1,5.3-42.9-23.4-42.9-23.4c7.9-19.6-1.8-37.1-4.7-41.7
		c-2.9-4.7-13.4-20.4-15.5-36.8c-4.4-42,10.8-54.9,10.8-54.9c-21.6,57.5,9.2,89,13.8,94.1s4.6,6.5,4.7,8.1
		c0.1,1.6-0.2,11.5-0.2,11.5l9.3,13.3c-2.1-0.1-7.4-3.8-7.4-3.8c0.3,2.9-1.9,9.3-1.9,9.3s2.9,10.4,17.2,14.7
		c14.3,4.4,22.9-5.1,22.9-5.1c0.4-4.5,4-8.7,4-8.7l0.1-7.8c0,0,3.5-3.6,5.4-6.9c1.9-3.2,0.7-5.2-0.1-6.1c-0.8-0.9-1.3-1.8-1.6-4
		c-1.5-10.7,3.1-23.9,7.8-32.4c6.3-10.9,4.8-13.8,4.1-17.3s-1.6-5.5,1.1-10.9c4.2-8.5,2.3-9.6,2.3-9.6c-2.7,2.3-6.5,3.7-6.5,3.7
		c1.2-6.7,11-19.4,11-19.4c-6.2-6.9-9.5-17.4-9.5-17.4c6.6,0,14,8,14,8c-1.5-2-4.8-9.9-4.8-13.1c0-7.5-2.3-17.1-2.3-17.1
		c8.8,5.2,11.3,22.8,11.3,22.8c2.6-13.8-7-25.1-7-25.1c9.5,2.9,14.7,15.6,14.7,15.6c0.3-30.7-29.9-36.5-29.9-36.5
		c10.7-4.1,20.5-18.4,20.5-18.4c-5.6,5.3-12.3,4.1-22.4,4.7c-10.1,0.6-14.8,9.9-14.8,9.9c0.3-4.7,1.4-6.1,2.9-7.7
		c1.5-1.5,4.2-2.9,6.3-3.9c2.1-1.1,3.4-3.4,3.8-4.1c0.4-0.7,1.2-2,2.4-2.1c13.7-1,24.5-9.5,24.5-9.5s-10.8,3.4-17.5,2.2
		c-10.5-1.8-16.2-2.2-26,0.6c-9.8,2.8-12.3,11.1-12.3,11.1c-0.3-3.6-2.9-6.7-6.4-8.5s-4.5-3.5-4.1-8.3s5.4-5.8,5.4-5.8
		c-17.1-8.2-23.8,18.5-11.5,28s6,16.6,6,16.6c0-6.1-3.8-12.3-12.3-18.1c-8.5-5.8-12.4-20.6-12.4-20.6c-10.7,13.3,1.9,35.3,3.5,40.1
		c1.6,4.8-3.1,10.1-3.1,10.1c-1.3-15.9-8.3-26-15.3-28.2c-7-2.2-13.6-4.1-27.7,10.1c-14.2,14.2-16.6,11.8-23.1,11.2
		c-6.4-0.6-9.9-8.5-9.9-8.5c1.6,9.5,4.8,15.6,16.2,17.8c11.4,2.2,19.9-2,21.7-3.2c1.9-1.2,7.4-5.3,17.5-2.9
		c12.6,3.4,5.1,25.5,5.1,25.5s-2.3-5.5-5.7-8.2s-7.6-1.6-14,4.8c-6.4,6.4-5.9,12.7-10,16.6c-4.1,3.9-12,2.8-12,2.8
		c6.6,7.9,18.2,6.1,23.2,2.3c5-3.8,7.2-2.8,7.2-2.8c2.9,13.3-0.3,22.4-3.1,29.3c-2.8,6.9-7.8,12.2-9.9,16.2
		c-2.1,4-3.5,10.9-8.6,13.2c-7.3,2.9-28.9,21.6-42.6,39.7c-13.7,18.1-23.6,23.6-32.7,24.8c-9,1.2-19.6,4.1-37.4,16.9
		c-5.7,4.1-10.5,8.5-14.4,12.7l-3.4,2.9c-0.7,0.6-1.5,0.8-2.3,0.8c-0.8,0-1.5-0.3-2.2-0.8c-4.1,6.6-8.2,7.7-9.1,7.9
		c-0.2,0-0.4,0.1-0.6,0.1c-1.2,0-2.3-0.6-2.9-1.6c-0.8-1.2-0.7-2.7,0.1-3.9c2.3-3.4,3.6-6.4,5.5-12.8c0.6-2.2,0.8-4.7,1-7.4
		c0.3-4.3,0.6-9.1,2.9-14.1c0.1-0.3,0.3-0.6,0.4-0.9c-4.2,1-8,1-8.8,1c0,0,0,0,0,0c-1.7,0-3.2-1.3-3.5-3c-0.3-1.7,0.8-3.4,2.5-3.9
		c0.5-0.2,2.3-1.3,4.1-3c2.1-2.1,2.8-3.5,2.9-4l0.1-0.9c0.5-3.5,0.7-4.6,2.8-8c1.9-3.1,8.8-7.7,17.4-7.8c0,0,0,0,0-0.1
		c-5-3.9-9.8-4.5-12.2-4.5c-2.5,0-4.3,0.6-5,1.1c-1.6,1.1-2.7,7.3-3.4,11c-0.2,1.3-0.5,2.6-0.7,3.9c-1.8,8.9-8.6,13.4-20,13.4
		c-12.6,0-17.9-9.6-18.1-10c-0.6-1.2-0.5-2.6,0.2-3.6c0.7-1,1.7-1.5,2.9-1.5c0.1,0,0.3,0,0.4,0c6.3,0.8,10.6,1.2,13.6,1.2
		c1.7,0,2.6-0.1,3.2-0.2c-0.4-15.7,2.2-33.4,24.5-34.2c0.3,0,0.6,0,0.9,0c0,0,0,0,0,0c5,0,8.7,1.5,11.6,3.9c0-0.2,0-0.3,0-0.5
		c-2.9-2.3-5.2-3.6-6-3.7c-1.7-0.3-3-1.9-2.9-3.6c0.1-1.8,1.5-3.2,3.3-3.3c0.1,0,2-0.1,4.6-0.1c-0.1-1.5-0.3-3-0.4-4.5
		c-2.9-1-6.3-1.8-9.7-1.8c-2,0-3.8,0.2-5.4,0.7c-7.2,2.1-12.9,12.5-14.5,16.4c-0.6,1.3-1.9,2.1-3.2,2.1c-0.3,0-0.7,0-1-0.1
		c-1.7-0.5-2.8-2.2-2.5-4c2.8-15.7,9.2-26.6,18.6-31.4c3.5-1.8,7.5-2.7,11.9-2.7c1.4,0,2.7,0.1,4,0.2c-6.8-79.2-7.1-136.2-7.1-136.2
		l0.1-15.8c36.8-13.3,68.6-29.8,93.2-42.6c23.2-12.1,43.3-22.5,53.1-22.5s29.8,10.4,53.1,22.5c24.7,12.8,56.6,29.4,93.5,42.7
		l0.1,15.7c0,0-0.8,128.2-22.8,267.4h65.8c15.7-69.3,23.9-151.7,18.6-249.1l-1.3-16.9c18.8,3.9,35.9,5.8,51,5.8
		c14.5,0,24.8-1.8,31.7-3.8c3.6,15.9,9.7,52.7,9.7,116.6c0,81.3-14.2,156.3-42.3,222.9c-16.6,39.3-38,75.8-63.9,109.1h44.7
		L610.6,691.8z M456.7,240.8c0,0,0.2,16.4,6.9,22.7c0,0-12.7-1.8-14.7-9.6C447,246.2,456.7,240.8,456.7,240.8z"/>
	<path class="st0" d="M371.6,691.8h-9.9C384.4,713.4,400,723,400,723C389.9,714.2,380.4,703.7,371.6,691.8z"/>
	<path class="st0" d="M400.3,723c0,0,15.6-9.6,38.2-31.2h-9.9C419.9,703.7,410.4,714.2,400.3,723z"/>
</g>
</svg>
