<?xml version="1.0" encoding="utf-8"?>
<!-- Generator: Adobe Illustrator 22.1.0, SVG Export Plug-In . SVG Version: 6.00 Build 0)  -->
<svg version="1.1" id="图层_1" xmlns="http://www.w3.org/2000/svg" xmlns:xlink="http://www.w3.org/1999/xlink" x="0px" y="0px"
	 viewBox="0 0 800 800" style="enable-background:new 0 0 800 800;" xml:space="preserve">
<style type="text/css">
	.st0{fill:#E5C4AB;}
	.st1{fill:#A84027;}
	.st2{fill:#FFFFFF;}
	.st3{fill:#005F31;}
	.st4{fill:#009148;}
	.st5{fill:#30B683;}
	.st6{fill:#96DABF;}
	.st7{fill:#D2F3EA;}
	.st8{fill:#00A64F;}
</style>
<g>
	<path class="st0" d="M750,400c0,193.3-156.7,350-350,350C206.7,750,50,593.3,50,400C50,206.7,206.7,50,400,50
		C593.3,50,750,206.7,750,400"/>
	<path class="st1" d="M743,400c0,189.4-153.5,343-343,343C210.6,743,57,589.4,57,400C57,210.6,210.6,57,400,57
		C589.4,57,743,210.6,743,400"/>
	<g>
		<path class="st2" d="M75,394.3l0.2-13.3l35.2,0.6l-0.2,13.3c-0.1,8.1-3.3,12.3-9.4,12.6c-3.7-0.2-6.2-2.3-7.5-6.4l-0.2,0
			c-1.5,4.9-4.6,7.5-9.3,7.6C78,408.1,75.1,403.3,75,394.3z M81,388.7l-0.1,5.9c-0.3,4.2,1.2,6.2,4.5,6.2c3.3,0.2,4.9-1.8,4.9-6
			l0.1-5.9L81,388.7z M96.2,389l-0.1,5.9c-0.1,3.2,1.2,4.8,3.9,5c2.8-0.1,4.2-1.7,4.3-4.9l0.1-5.9L96.2,389z"/>
		<path class="st2" d="M75.3,418.7l35.1-3.3l2.2,23.5l-5.9,0.5l-1.5-15.9l-8.1,0.8l1.4,14.8l-5.9,0.6l-1.4-14.8l-9.3,0.9l1.5,16.5
			l-5.9,0.5L75.3,418.7z"/>
		<path class="st2" d="M115.5,455.8l-34.6,6.3l-1.4-7.5l34.6-6.3L115.5,455.8z"/>
		<path class="st2" d="M120.8,478.1l1.9,7.2l-22.8,6.1c-7.5,1.8-12.4-1-14.6-8.3c-2.1-7.2,0.7-12,8.2-14.4l2,7.4
			c-4.2,1.1-5.9,3-5.2,5.7c0.7,2.5,3.1,3.2,7.3,2.4c0.1,0,0.3,0,0.6,0L120.8,478.1z"/>
		<path class="st2" d="M128.3,501.4l-33.1,11.9l-2.6-7.2l33.1-11.9L128.3,501.4z"/>
		<path class="st2" d="M112.9,553.4l-4.6-9.8l20.6-24.9l-0.3-0.1l-26.3,12.5l-3-6.4l31.8-15.1l4.8,10.1l-19.4,23.9l0.3,0.1
			l24.9-11.8l3,6.4L112.9,553.4z"/>
		<path class="st2" d="M142.3,576.2l-3.7-5.7l4.9-3.2l7.8,12l-14.8,9.6c-2-1.7-3.8-3.7-5.2-5.9c-1.3-1.6-2.9-3.7-4.7-6.5
			c-5.4-9.3-3.4-17.2,6-23.6c9.7-6,17.9-4.7,24.5,3.8c5.9,9.2,5.7,15.8-0.7,19.9l-4.4-6.7c3.3-2.1,3.7-5.2,1.1-9.1
			c-3.8-5.4-9.2-5.8-16.2-1.3c-7,4.6-8.8,9.6-5.3,15.2c1,1.6,2.4,3.4,4.1,5.3c0.1,0.1,0.2,0.2,0.4,0.2L142.3,576.2z"/>
		<path class="st2" d="M187.5,597.1l-26.1,23.6l-5.1-5.6l26.1-23.6L187.5,597.1z"/>
		<path class="st2" d="M193,651.1l-8-7.3l9.6-30.9l-0.3,0l-19.6,21.5l-5.2-4.7l23.7-26l8.3,7.6l-8.9,29.5l0.3,0l18.6-20.4l5.2,4.7
			L193,651.1z"/>
		<path class="st2" d="M238,652.8l-5.9-4.2c1.8-3.1,1.3-5.6-1.6-7.6c-3.2-1.9-5.6-1.8-7.3,0.4c-1.7,2-0.9,4.6,2.4,7.8
			c0.1,0.2,0.3,0.5,0.4,0.8c5.9,6.2,7.4,11.1,4.6,14.9c-4.5,5.9-10.7,6.1-18.9,0.7c-7.5-5.4-8.9-11.2-4.3-17.3l6.2,4.4
			c-2.4,3.4-2.1,6.3,1.1,8.7c3.8,2.5,6.6,2.6,8.4,0.3c1.3-1.9,0.5-4.5-2.6-7.9c-0.3-0.4-0.6-0.8-0.9-1.1c-5.5-5.9-6.8-10.8-3.9-14.6
			c4.4-5.6,10.6-5.9,18.7-1C240.4,641.8,241.6,647.1,238,652.8z"/>
		<path class="st2" d="M245.6,652.7l2.8-5.2l25,13.7l-2.8,5.2l-9.2-5l-14.1,25.7l-6.7-3.7l14.1-25.7L245.6,652.7z"/>
		<path class="st2" d="M286.8,666.9l-14.2,32.2l-7-3.1l14.2-32.2L286.8,666.9z"/>
		<path class="st2" d="M290.9,675.3l1.9-5.6l27,9.2l-1.9,5.6l-9.9-3.4l-9.5,27.7l-7.2-2.5l9.5-27.7L290.9,675.3z"/>
		<path class="st2" d="M347.7,685.2l7.5,1.6l-4.5,21.6c-2.2,8.5-8.1,11.9-17.7,10.1c-9.8-2.3-13.9-7.8-12.3-16.4l4.5-21.6l7.5,1.6
			l-3.9,18.8c-2.1,7.6-0.3,11.8,5.3,12.6c5.3,1.5,8.5-1.6,9.8-9.4L347.7,685.2z"/>
		<path class="st2" d="M360.1,693.4l0.5-5.9l28.5,2.4l-0.5,5.9l-10.4-0.9l-2.5,29.2l-7.6-0.7l2.5-29.2L360.1,693.4z"/>
		<path class="st2" d="M395.4,725.2l-0.8-35.2l23.6-0.5l0.1,5.9l-16,0.4l0.2,8.2l14.8-0.3l0.1,5.9l-14.8,0.3l0.2,9.3l16.6-0.4
			l0.1,5.9L395.4,725.2z"/>
		<path class="st2" d="M466.7,718.6c-10.9,2-17.6-2.7-20.2-14.1c-2.2-11.7,2.1-18.9,12.8-21.5c10.6-1.8,17.3,3.1,20.2,14.7
			C481.4,709.2,477.2,716.2,466.7,718.6z M460.4,688.4c-6,1.2-8,6.1-6.1,14.5c1.6,8.5,5.4,12,11.4,10.7c5.7-1.2,7.7-5.9,6-14.3
			C469.9,690.9,466.1,687.2,460.4,688.4z"/>
		<path class="st2" d="M500.8,709.1l-7,2.4l-11.2-33.4l21.5-7.2l1.9,5.6l-14.4,4.8l2.7,7.9l13.5-4.5l1.9,5.6l-13.5,4.5L500.8,709.1z
			"/>
		<path class="st2" d="M526.8,667.6l-2.8-5.2l25.2-13.5l2.8,5.2l-9.2,4.9l13.8,25.8l-6.7,3.6l-13.8-25.8L526.8,667.6z"/>
		<path class="st2" d="M573.7,675.1l-19.9-29l19.5-13.3l3.3,4.9l-13.2,9l4.6,6.8l12.2-8.4l3.3,4.9l-12.2,8.4l5.3,7.7l13.7-9.4
			l3.3,4.9L573.7,675.1z"/>
		<path class="st2" d="M608.5,618l-6,5.2c-2.9-3-6.1-3.2-9.5-0.5c-3,2.9-1.9,7.7,3.4,14.1c5.7,6.2,10.1,7.9,13.4,5.3
			c3.2-2.9,3.5-6.1,0.8-9.5l6-5.2c4.7,6.2,3.5,12.4-3.5,18.6c-7.4,6-15,4.7-22.8-3.9c-7.6-9.2-8-17-1-23.6
			C596.6,612.5,603,612.4,608.5,618z"/>
		<path class="st2" d="M636.3,623.3l-5,5.5l-26.1-23.7l5-5.5l10.3,9.3l9-9.9l-10.3-9.3l5.1-5.6l26.1,23.7l-5,5.5L634,602.9l-9.1,10
			L636.3,623.3z"/>
		<path class="st2" d="M676.1,572.3l-6.2,8.9l-31.9-5.5l0,0.3l23.9,16.6l-4,5.8l-28.9-20.1l6.4-9.2l30.4,4.9l0-0.3L643.2,558l4-5.8
			L676.1,572.3z"/>
		<path class="st2" d="M689.6,548.6c-5.3,9.7-13.2,12-23.7,6.9c-10.5-5.7-13.4-13.5-8.7-23.5c5.3-9.4,13.3-11.6,24.1-6.5
			C691.6,531.2,694.3,538.9,689.6,548.6z M662.2,534.5c-2.8,5.4-0.3,10,7.4,13.9c7.6,4.1,12.8,3.4,15.4-2.1
			c2.7-5.2,0.2-9.7-7.3-13.6C670,528.6,664.9,529.3,662.2,534.5z"/>
		<path class="st2" d="M709,501.8l-7.9,21.2l-33-12.3l2.6-7l27.5,10.2l5.3-14.3L709,501.8z"/>
		<path class="st2" d="M716.2,477.2c-2.9,10.7-10,14.7-21.4,12.2c-11.5-3.1-16.2-10-13.9-20.8c2.9-10.4,10.2-14.4,21.9-11.9
			C714.1,459.8,718.5,466.6,716.2,477.2z M686.3,469.9c-1.4,5.9,2,9.8,10.5,11.8c8.4,2.2,13.2,0.3,14.5-5.7
			c1.4-5.7-2.1-9.5-10.3-11.5C692.5,462.4,687.6,464.2,686.3,469.9z"/>
		<path class="st2" d="M711.2,425.4l-0.7,6.8l-5.9-0.6l1.5-14.2l17.6,1.9c0.5,2.6,0.6,5.2,0.3,7.9c0,2-0.1,4.7-0.5,8
			c-1.6,10.7-8.1,15.5-19.5,14.6c-11.3-1.5-16.9-7.6-16.6-18.4c1.1-10.8,5.5-15.9,13.1-15.1l-0.8,7.9c-3.9-0.4-6.1,1.7-6.6,6.4
			c-0.4,6.6,3.5,10.3,11.8,11.2c8.3,0.9,12.9-2,13.7-8.5c0.2-1.9,0.2-4.1,0.1-6.7c0-0.1,0-0.3-0.2-0.4L711.2,425.4z"/>
		<path class="st2" d="M725.1,397.6l-11.4,0.2l-23.6,12.4l-0.2-8.9l16-7.5l-16.3-7.1l-0.1-7.6l24,11.4l11.4-0.2L725.1,397.6z"/>
	</g>
	<path class="st0" d="M667.8,400c0,147.9-119.9,267.8-267.8,267.8c-147.9,0-267.8-119.9-267.8-267.8
		c0-147.9,119.9-267.8,267.8-267.8C547.9,132.2,667.8,252.1,667.8,400"/>
	<path class="st3" d="M663.1,400c0,145.3-117.8,263.1-263.1,263.1c-145.3,0-263.1-117.8-263.1-263.1
		c0-145.3,117.8-263.1,263.1-263.1C545.3,136.9,663.1,254.7,663.1,400"/>
	<path class="st2" d="M472.7,188.7c-5.1-0.2-8.8,0.8-11.2,1.8c5.8-5.6,9.3-10.2,10-11c2.3-0.5,6.3-2.3,8.7-8.5
		c3.9-10.5,2.1-17.3,2.1-17.3s-9.1,3.9-12.3,12.3c-2.1,5.4-1.5,9.5-0.9,11.7c-0.9,1.2-3.6,4.5-8.5,8.9c1.2-2.4,2.2-6.1,2.3-11.5
		c0.2-11.2-2.5-15.1-2.5-15.1s-7.5,5-7.5,16.5c0,8.7,2,12.7,3,14.1c-3.3,2.7-7.3,5.6-12,8.5c1.6-2.5,3.4-6.7,4-13
		c1.2-12.7-3.6-16.5-3.6-16.5s-7.8,5.9-8,17.4c-0.1,8.3,2.2,12.7,3.5,14.6c-4.5,2.6-9.5,5.1-14.2,7.1c2-2.6,4.2-6.9,4.2-13.3
		c0-12.3-3.2-15.8-3.2-15.8s-8.5,5.9-8.5,17.6c0,7.7,1.7,11.7,2.9,13.6c-7.5,3.1-13.2,5.1-13.2,5.1l0.7,4.6c0,0,5.9-1.7,14.1-5.1
		c0.6,1.7,3.1,6.9,11,10.4c9.6,4.3,17.4,0.4,17.4,0.4s-4.4-6.2-12.6-10.3c-4.5-2.2-8-2.8-10.4-2.8c4.1-1.9,8.5-4.1,12.9-6.6
		c0.1,0,0.1-0.1,0.2-0.1c1.2,2,4.7,6.4,14.2,8.8c10.3,2.7,15.7-0.5,15.7-0.5s-2.2-7-13-9.8c-5.6-1.5-9.6-1.7-12.3-1.4
		c4.5-3,8.5-6.3,12-9.4c1.7,1.3,6.6,4.6,14.3,4.6c9.6,0,15.1-6.9,15.1-6.9S482.1,189.1,472.7,188.7"/>
	<path class="st2" d="M530.5,234.9c0,0-23.9,7.3-50,11.2c-31,4.6-65.3,4-65.3,4l-6.6-34.3c0,0-1-11.5-8.6-11.5
		c-7.6,0-8.6,11.5-8.6,11.5l-6.6,34.3c0,0-34.3,0.6-65.3-4c-26-3.9-50-11.2-50-11.2s-0.2,17.1,13.6,30.1
		c12.5,12,24.8,12.2,24.8,12.2s-1,15.7,14,24.9c9.8,6,21.4,2.9,21.4,2.9s3,13.4,17.9,15.7c14.9,2.3,20.5-3.5,20.5-3.5l-7,31.8h50.4
		l-7-31.8c0,0,5.6,5.8,20.5,3.5c14.9-2.3,17.9-15.7,17.9-15.7s11.6,3.1,21.4-2.9c15-9.2,14-24.9,14-24.9s12.3-0.2,24.8-12.2
		C530.7,251.9,530.5,234.9,530.5,234.9"/>
	<path class="st4" d="M558.1,459.9c-30.5,0-158.1-6.7-158.1-6.7s-127.6,6.7-158.1,6.7c-39.4,0-55.7-7-55.7-7s10.1,22.3,27.2,29.8
		c14.3,6.3,19.2,8.3,66.3,16.6c47.1,8.3,94.5,11.9,94.5,11.9l-9.3,43.4l35.1,7.6l35.1-7.6l-9.3-43.4c0,0,47.4-3.6,94.5-11.9
		c47.1-8.3,52-10.3,66.3-16.6c17.1-7.6,27.2-29.8,27.2-29.8S597.6,459.9,558.1,459.9"/>
	<path class="st5" d="M532.3,404.5c-75.9,1-132.3,2.3-132.3,2.3s-56.4-1.3-132.3-2.3c-50.4-0.7-64.6-3-64.6-3s8.5,13,18.6,22.2
		c11.9,10.9,34.1,21.5,77.2,30.2c43.1,8.6,76.2,11.3,76.2,11.3l-8.6,39.1l33.5,6.6l33.5-6.6l-8.6-39.1c0,0,33.1-2.7,76.2-11.3
		c43.1-8.6,65.3-19.2,77.2-30.2c10.1-9.2,18.6-22.2,18.6-22.2S582.6,403.8,532.3,404.5"/>
	<path class="st6" d="M516.3,353.1c-34.5,0.8-116.3,1.6-116.3,1.6s-81.8-0.8-116.3-1.6c-30.5-0.7-42.4-2-58.7-4.6
		c0,0,23.2,43.8,78.2,59c51,14.1,72.6,12.6,72.6,12.6l-8,37.8l32.2,3.9l32.2-3.9l-8-37.8c0,0,21.6,1.5,72.6-12.6
		c55-15.2,78.2-59,78.2-59C558.8,351.1,546.8,352.5,516.3,353.1"/>
	<path class="st7" d="M486.3,300.5c-1.7,1.7-3.8,3.3-6.2,4.8c-7.7,4.8-16.3,4.6-20.9,4c-2.1,4.8-7.5,13.2-19.8,15.2
		c-6.9,1.1-12,0.6-15.8-0.4c1.9,8.8,6.3,28.8,6.3,28.8h-59.7c0,0,4.4-20.1,6.3-28.8c-3.7,1-8.9,1.5-15.8,0.4
		c-12.4-1.9-17.8-10.3-19.8-15.2c-4.6,0.6-13.2,0.8-20.9-4c-2.4-1.5-4.5-3.1-6.2-4.8c-49.2-3.7-67.9-10-67.9-10s26.2,61,88.8,76.9
		c24.8,6.3,42.4,4.6,42.4,4.6l-8,33.8l30.8,1l30.8-1l-8-33.8c0,0,17.6,1.7,42.4-4.6c62.6-15.9,88.8-76.9,88.8-76.9
		S535.4,296.8,486.3,300.5"/>
	<path class="st8" d="M479.3,633c-6.2-2.2-10.9-4.7-13.1-6.2c-2.2-1.6-4.4-5.6-6.8-5.6s-3.7-3.1-5.3-4.4c-1.6-1.2-3.7-0.3-4.7-1.2
		c-0.9-0.9-0.9-4.7-5-6.5c-4-1.9-5.6-1.2-7.5-2.2c-1.9-0.9-2.8-4-5.3-4.4c-2.5-0.3-4.7-0.3-8.1-1.2c-3.4-0.9-3.7-5.6-7.5-5.6
		c-3.7,0-10.9-0.3-10.9-0.3v-21.5l2.2,0l-7.5-7.5l-7.5,7.5l2.2,0v21.5c0,0-7.1,0.3-10.9,0.3c-3.7,0-4,4.7-7.5,5.6
		c-3.4,0.9-5.6,0.9-8.1,1.2c-2.5,0.3-3.4,3.4-5.3,4.4c-1.9,0.9-3.4,0.3-7.5,2.2c-4,1.9-4,5.6-5,6.5c-0.9,0.9-3.1,0-4.7,1.2
		c-1.6,1.2-2.8,4.4-5.3,4.4c-2.5,0-4.7,4-6.8,5.6c-2.2,1.6-6.8,4-13.1,6.2c-6.2,2.2-26.1,2.8-26.1,2.8h210.9
		C505.5,635.8,485.6,635.2,479.3,633"/>
	<g>
		<path class="st2" d="M368.5,609.6v21h-2.7v-14.8h-5v-2.1c3.5,0.2,5.4-1.2,5.7-4.1H368.5z"/>
		<path class="st2" d="M381.4,625.6h2.6c0.3,2.3,1.5,3.4,3.6,3.4c2.7,0.1,4.4-2.5,5-7.8h-0.1c-0.9,1.6-2.4,2.4-4.8,2.4
			c-4.2-0.2-6.4-2.5-6.5-6.8c0.2-4.7,2.5-7.1,6.8-7.2c4.7,0.1,7.2,3.3,7.3,9.7c-0.3,7.6-2.9,11.5-7.7,11.7
			C383.7,630.9,381.7,629.1,381.4,625.6 M388.1,621.3c2.6-0.2,3.9-1.7,4-4.8c-0.1-2.9-1.5-4.4-4.2-4.4c-2.6,0.2-3.9,1.7-4.1,4.7
			C383.8,619.8,385.2,621.3,388.1,621.3"/>
		<path class="st2" d="M417.4,625.5h-3.1v5.1h-2.6v-5.1h-9.2v-2.6l9.6-13.3h2.2v13.6h3.1V625.5z M411.5,613.7l-6.6,9.6h6.8v-9.6
			H411.5z"/>
		<path class="st2" d="M439.2,620.5c-0.2,6.9-2.6,10.4-7.2,10.5c-4.7-0.1-7.1-3.6-7.2-10.5c0.2-7.1,2.6-10.8,7.2-10.8
			C436.5,609.8,438.9,613.4,439.2,620.5 M436.4,620.5c0-5.6-1.5-8.4-4.4-8.4c-2.9,0-4.3,2.8-4.3,8.4c0,5.6,1.4,8.4,4.3,8.4
			C434.9,628.8,436.4,626,436.4,620.5"/>
	</g>
	<path class="st2" d="M173.2,204.4c-3.7-3.7-7.7-8.5-9.8-11.2c-2.1-2.6-4-6.3-6.3-6.5c-2.3-0.1-4.7,3.7-5.6,4.7
		c-0.7,0.7-2.2,1-3,1.3c-0.3,0.1-0.5,0.7-0.6,0.7c-0.4,3.1,1.4,2.9,2.9,3.2c1.5,0.3,3.7,3.7,5.4,7.3c1.7,3.6-2.2,4-3.6,7.7
		c-1.4,3.7,1.7,4.8,3.4,6.6c1.8,1.8,3.3,2.3,3.4,1.9c0.1-0.4,2.3-3.3,3.9-4.7c1.5-1.4,2.9,0.3,4.1,2.8c1.2,2.5-1.5,7.6-2.3,10.6
		c-0.8,3-1.9,3.7-0.6,4.5c1.4,0.8,4.5,1.7,6.6,1.7c2.1,0,2.6-1.5,2.6-2.9c0-1.4,0.8-2.9,1.4-6.9c0.6-4,2.8-9.4,2.8-14.1
		C177.9,206.6,176.9,208.1,173.2,204.4z M205.4,192c-2.2-2.2-3-6.2-6.4-3.9c-3.4,2.3-7.1,6.9-9.4,5.5c-2.3-1.4-6.7-3.5-6.7-6.5
		c0-3,1.6-5.6,2.1-7.5c0.5-1.9,2-2.8,0.8-5.4c-1.2-2.6-4.1-3.9-5.8-2.7c-1.7,1.2-1.4,5.7-3.7,4.3c-2.3-1.4-2.5-2.5-2.5-3.8
		c0-1.3-2.2-5.6-4.9-4c-2.7,1.6-6.7,4.5-8.3,7c0,0-0.6,1.6,0,2.5c0.6,0.9,5.2,6.7,7.9,10.5c2.7,3.9,6.3,9.3,10,12.7
		c3.7,3.5,7.6,6.8,10.7,6.8c3.1,0,10.2-6.5,11.9-8.4C203.1,197.2,207.6,194.2,205.4,192z"/>
	<path class="st2" d="M248.9,119.6c4.3-4.3,10.5-10,12.3-11.1c1.8-1.1,4-1.6,3.5-3.9c-0.5-2.2-3-4.4-6.1-3c-3.1,1.4-9.2,7.1-9.2,7.1
		s-1.8-8.6-7.7-7.2c-6,1.4-8.6,6.5-8.6,6.5s-0.4,2.2,1.9,2.6c2.4,0.4,2.4,1.7,2.5,2.9c0.1,1.2-0.5,2.4,1,2.6c1.5,0.2,0.9-1,2.7-0.3
		c0,0,0.5,1.2-0.1,2.1c-0.7,0.9-8.7,8-11.6,10.3c-2.9,2.3-4,3.4-3.7,5.5c0.2,1.9,1.6,5.2,5.4,2.8C235,133.9,244.6,123.9,248.9,119.6
		z M252.1,151.6c-1.4,0.1-3.4,3.5-4.4,3.1c-0.8-0.3-1.8-1.5-1.8-1.5c-1.7-1.4-2.7,1.2-3.1,4.8c-0.5,3.6,2.5,7.5,4.7,8.1
		c2.2,0.6,2.7-2.4,3.9-3.6c1.3-1.2,1.7-3.2,1.8-6C253.3,153.5,253.5,151.5,252.1,151.6z M278.7,134.5c-1.7-1.5-3.8-2.2-5.5-1.9
		c-1.7,0.4-2,1.3-3.7,1.9c-1.7,0.6-2.9-0.7-4.1,1.2c0,0,0.6,2.9,2.4,4.3c1.8,1.4,4.4,2.8,5.3,3.9c0.9,1,1.2,2.4,1.9,2.1
		c0.7-0.3,3.8-3.5,4.3-4.3C279.9,140.8,280.4,136,278.7,134.5z M261.2,139.1c0,0,0.7-0.4,1.5-1.5c0.8-1.1,0.2-2.5,0.2-5.4
		c0.1-3,0.3-6,0.6-9.4c0.2-3.4-1-5.9-5.4-5.2c-4.4,0.6-4.9,2.8-5.4,4c-0.4,1.2-6.7,8.3-8.4,9.1c-1.8,0.7-3.3,0.1-3.3,0.1
		c-4.9,0.9-1.8,7.1,0.7,9.8c2.5,2.7,6.7,7,8.1,6.7c1.4-0.3,1.4-1.8,3.8-1.9c2.4-0.1,2.7,3,4.7,5.6c2.2,2.7,0.7,3.9,0,4.4
		c-0.5,0.3-1.3,0.7-3.1,0.4c-1.8-0.4-1,1.9-1,1.9s3,1.3,4.8,1.8c1.8,0.6,3.8,0.5,6.8,0.6c3.1,0.1,3-1.7,3.2-6.5
		c0.2-4.9-2.4-7.1-5.5-10.4C260.5,139.7,261.2,139.1,261.2,139.1z M254,132c-0.9,1.5-0.5,3.6-2.1,4.2c-1.5,0.5-3.7,0.1-2.3-2.1
		c1.5-2.2,2.5-3.4,3.1-4.2c0.5-0.8-0.1-1.3,1.5-1.2C254.2,128.7,254.9,130.6,254,132z"/>
	<path class="st2" d="M340.9,108.8c-1.4-0.3-0.9-2.2,1.5-3.8c2.4-1.6,3.3-2.8,2.9-4.4c-0.3-1.7-1-2.2-2.3-2.7
		c-1.3-0.5-2.6-0.9-2.5-2.9c0.1-2,1.7-4.2,2.3-5.3c0.7-1.1,1.9-3.8,1.5-6.6c-0.4-2.8-2.3-5.1-6.1-3.3c-3.8,1.8-5,4.4-7.5,5.8
		c-1.6,0.9-3.9,2-5.8,3.4c-1,0.8-1.8,2.9,0.8,4.2c2.6,1.3,2.6,2.4,3.9,2.6c1.3,0.2,2.4-0.8,2.7,1.1c0.3,1.8-0.3,3.8-2.2,4.8
		c-1.8,0.9-4.3,1-4.3,3c0,2,4.1,2.5,4.2,5.1c0.1,2.6-0.4,3.1-2.2,4.8c-1.8,1.8-4,2.6-3.6,5.7c0.4,3.1,3.2,6.9,5.9,6.5
		c2.8-0.4,3.5-3.6,6-5.6c2.5-2,9.7-5.7,9.5-9.4C345.7,108.1,342.3,109,340.9,108.8z M378.3,108.7c-2.7-0.7-4.7,1-7.9,2
		c-3.2,1-3.8,0.2-3.9-1c-0.1-1.2,4-2.7,4.7-4.2c0.7-1.5,0.3-3.3-2.4-4.2c-2.7-0.8-2.7,0.7-4.8,1.6c-2.1,0.9-0.8-2.7-0.8-2.7
		s2.8-0.1,5.5-2c2.7-1.9,2.2-2.8,3.1-5.9c0.9-3.2,3.5-5.7,4.8-10.9c1.3-5.3,0.3-5.2-1.3-7.5c-1.6-2.3-4.2-2.8-7.9-1.7
		c-3.7,1.2-12.9,6.7-15.5,7.6c-2.5,0.9-5.5,0.1-5.5,0.1c-2.2,0.7-0.9,4.8-0.8,6.5c0.2,1.6,0.2,4.3,1.4,5.8c1.3,1.5,0.6,2.7,0.1,4.7
		c-0.5,2,0.8,3.1,2.4,4.5c1.6,1.4,2.3,1.9,3.3,1.7c0.9-0.3,1.8-1.7,2.9,0.2c1.1,1.8-0.1,1.4-2.3,2.3c-2.2,0.8-2.3,1.2-2.3,3.7
		c0,2.5,4.1,1.1,5,2.6c0.9,1.5-2.8,2.5-6.3,3.7c-3.4,1.2-4.6,1.7-3.5,4.7c0.9,2.6,2.9,4.1,5,3.8c2.1-0.3,7-3.4,12.5-5.3
		c5.5-1.9,6.7-1.2,11.8-1.1c5.1,0.1,4.3-1.9,4.8-4.2C381.2,111,381,109.4,378.3,108.7z M363,80.6c1.2-1,2.6-1.7,3.3-0.8
		c0.8,0.8-0.1,2.9-0.8,3.4c-0.8,0.5-2,1.5-3,0.2C361.5,82,363,80.6,363,80.6z M354,85.5c1.3-1.3,2.3-2.5,3.2-0.9
		c0,0,0.3,0.9-0.6,2.1c-0.5,0.6-1.1,1.3-1.7,1.4C354.3,88.2,352.7,86.8,354,85.5z M357.2,94c-0.9,0.9-2.4,2-2.9,0.7
		c-0.5-1.3,0-2.4,1.3-2.7c1.3-0.2,1.8-1,2.5,0.4C358,92.4,357.9,93.2,357.2,94z M361.7,90.8c0-0.6,1.1-1.4,1.1-1.4
		c1.4-1.6,3.1-0.3,2.7,0.3c-0.4,0.7-1,2.5-2.2,2.6C362.1,92.4,361.7,91.4,361.7,90.8z"/>
	<path class="st2" d="M461.7,84.8c0,0,5.1,0.6,8.5,0.3c3.4-0.4,8.1-1.9,10.4-1c2.2,0.9,4.3,4.3,3.3,7c-0.9,2.7-3.6,2.9-4.9,3.6
		c-1.3,0.7-2,1.3-3.2,1.5s-3.7-1-4.8,0.7c-1.1,1.8,0.3,2.6-0.7,4.4c-1,1.8-5.5,7.5-2.6,8.1c2.9,0.6,7.7,0.2,10.4,1.2
		c2.7,1,4.7,2.5,4.9,5.7c0.2,3.2,0.1,5.7-4,5.6c-4.1-0.1-11.2-5-21.7-6.1c-10.5-1.1-15.3-1.2-18.2-0.7c-3,0.5-7.3,1.6-7.9-2.9
		c-0.6-4.4-0.3-7.1,5.2-6.8c5.5,0.3,10.4,0.8,15.8-0.7c5.5-1.6,7.2-7.2,6.2-8.8c-1-1.6-3.1-1.5-4.3-1.3c-1.3,0.2-1.7-1.7-0.9-3.2
		c0.7-1.6-0.6-2.1-0.6-4.4c0-2.3-0.5-5.6,2.8-5.1C458.5,82.4,457.6,84,461.7,84.8z"/>
	<path class="st2" d="M542.2,121.1c0,0-2.5,0.9-2.1,3.7c0.4,2.8,1.7,4.6,3.6,5.2c1.8,0.6,4.8,1,3.7,2.2c-1.1,1.2-6.3,3.9-10,4.4
		c-3.7,0.5-5.8,1.1-9.4,1.1c-3.6,0-4.1,0-4.1,1.1c0,1.1,1,2,1.1,3c0.1,1,0.4,3.5,8,3.5s12.5-1.2,14.7-2.1c2.2-0.9,3.8-2,3.8-2
		s2.2,5.2,2.8,9.7c0.6,4.6,0.5,7.5,0.5,9c0,1.5-1,2.1,1.7,4.6c2.7,2.5,6.2,5.9,10.4,5.9c4.2,0,5.3-3.5,5.3-3.5s-7-5.9-9.4-13
		c-2.3-7-2.2-7.9-2.5-10.1c-0.2-2.2-2.5-8.5,0.9-8.8c3.3-0.2,5.5,0.7,10,1.4c4.4,0.6,8,0.1,7.3-3.1c-0.7-3.2-2.2-4.9-5.4-5.2
		c-3.2-0.2-8-0.4-8-0.4s5.6-4.3,4.4-7.6c-1.2-3.6-2.3-2.3-4.3-3.7c-1.1-0.7-1.4-2.8-3.7-0.9c-2.3,2-4.1,5.4-5.8,7
		c-1.7,1.6-2.2,2.1-4.8,0.4C548.4,121.4,545.3,119.3,542.2,121.1z"/>
	<path class="st2" d="M628,181.1c0,0-2.6,2.6-2.6,3.6c0,1,1.5,2.2,2.6,2.2c1.2,0,2.5-3.4,4.3-5.2c1.8-1.8,8.1-9.7,9.4-9.1
		c1.3,0.6,3.1,1.8,2.1,3.5c-1,1.7-11.5,11.3-12.2,11.9c-0.6,0.6-0.4,1.7,0.5,2.2c1,0.5,5,3.8,5.5,4.3c0.5,0.5,1.4,0.7,1.8-0.1
		c0.4-0.8,0-1.9-1.1-1.8c-1.1,0.1-1.4-0.6-1.4-0.6s2.2-1.1,1-1.5c-1.3-0.4-1.7,0-3-0.3c-1.3-0.3-0.8-2.1,0.8-3.2
		c1.7-1.1,8.6-9.5,9.7-9.1c1.2,0.4,1.1,1.7,0,2.9c-1.1,1.2-2.5,3.4-3.3,4.1c-0.7,0.7-1,1.7-0.6,2c0.3,0.3,1.6,0.7,1.6,1.4
		c0,0.6-1.7,1.7,0,1.9c1.7,0.2,4.4-0.6,3.3-2.2c-1.2-1.6-2.7-1.6-2.7-1.6s-0.8-2,1.5-2.7c2.3-0.7,2.1,0.4,2.9-0.2
		c0.7-0.6,0.1-3.5,2-3.4c1.9,0.1,0,3.5,2.2,3.3c2.2-0.2,2.7-2.4,4.8-1.5c2,1,3.3,4.9,0.8,5.2c-2.4,0.3-2.9-0.2-4.2,1
		c-1.4,1.2-1.7,2.9-3.3,3.8c-1.6,1-6.4,0.5-7.5,2c-1.1,1.5,0,5,1.6,5c1.6,0,0.6-3.3,2.1-3.7c1.5-0.4,1.5,0.1,2.5,0
		c1.1-0.1,0.8-1.6,2-1.5c1.2,0.1,2.7,0.3,3.9-0.2s1.3-3.5,3.2-3.4c1.9,0.1,3.1,1.4,4.8,1.7c1.7,0.3,2.9,0.2,2.9,2.9
		c0,2.6-1.1,3.9-3.9,3.8c-2.9-0.1-5.4,0.3-8.5,2.1c-3.1,1.8-5.1,2.9-2.4,3.9c2.6,1.1,3.1,3.3,3.5,5.4c0.4,2.1-2.4,6.1-4.9,6
		c-2.4-0.1-4.8-2.7-6.9-4.8c-2.1-2-3.3-3.6-7.9-3.6c-4.7,0-7.7,0.4-6.3,1.9c1.4,1.5,3.5,0.8,4.5,3.4c1.1,2.5,0.7,6.3-0.5,6.8
		c-1.3,0.4-3.6-0.1-5.6-1.8c-2-1.7-3.1-3-5.4-2.3c-2.3,0.6-3.5,3.4-7.3,5.3c-3.8,1.9-7,0.6-9.9-1.9c-3-2.5-3.4-3.1-2.5-4.3
		c0.8-1.3,1.1-1.8,1.1-3c0-1.2-0.1-2.6-0.1-2.6s3.2,1.3,4.1,2.5s2.4,2.1,4.5,1.8c2.1-0.3,5.3-1.6,3.7-3.2c-1.6-1.6-7-5.3-8.2-6.7
		c-1.3-1.4-1.6-3,0.6-4.5c2.2-1.6,3.1-2.7,5-0.6c1.9,2.1,3.6,3.8,5.1,4.8c1.5,1,2.1,1.5,4,0.5c1.9-0.9,4.4-1.7,2.2-2.7
		c-2.2-1.1-3.8-1-4.9-2.5c-1.1-1.6,2.5-5.2,5.8-4.3c3.3,0.8,6.2,4.1,7.6,4.9c1.4,0.7,4,0.8,5.1,3c1.1,2.1,2.6,4.2,4.4,4.7
		c1.8,0.4,3.8,0.5,1.8-1.6c-2-2.1-9.3-7.9-11.9-9.9c-2.6-2-5.9-4.1-9.2-4c-3.3,0.1-6.1,1-8.1-1c-2-1.9-0.3-3.3,1.8-5.5
		c2.1-2.2,2.4-3.3,5.2-3.4C624.2,180.9,625,181.4,628,181.1z"/>
	<path class="st8" d="M318.7,638.5c-6.2-2.3-13.7-2.8-13.7-0.9c0,1.2,6.3,0.9,10.7,4.3c4.3,3.3,5.3,8.4,5.3,8.4h7.2
		C328.3,650.3,328.5,642.1,318.7,638.5 M334.7,639.4c-0.8,0-1.4,0.6-1.4,1.4v9.9c0,0.8,0.6,1.4,1.4,1.4c0.8,0,1.4-0.6,1.4-1.4v-9.9
		C336.1,640.1,335.5,639.4,334.7,639.4 M344.3,639.4c-0.8,0-1.4,0.6-1.4,1.4v9.9c0,0.8,0.6,1.4,1.4,1.4c0.8,0,1.4-0.6,1.4-1.4v-9.9
		C345.8,640.1,345.1,639.4,344.3,639.4 M339.5,637.5c-0.7,0-1.3,0.6-1.3,1.3v14c0,0.7,0.6,1.3,1.3,1.3c0.7,0,1.3-0.6,1.3-1.3v-14
		C340.8,638.1,340.2,637.5,339.5,637.5 M404.8,652.2c0.8,0,1.4-0.6,1.4-1.4v-9.9c0-0.8-0.6-1.4-1.4-1.4c-0.8,0-1.4,0.6-1.4,1.4v9.9
		C403.3,651.5,404,652.2,404.8,652.2 M395.1,652.2c0.8,0,1.4-0.6,1.4-1.4v-9.9c0-0.8-0.6-1.4-1.4-1.4c-0.8,0-1.4,0.6-1.4,1.4v9.9
		C393.7,651.5,394.3,652.2,395.1,652.2 M399.9,654.1c0.7,0,1.3-0.6,1.3-1.3v-14c0-0.7-0.6-1.3-1.3-1.3s-1.3,0.6-1.3,1.3v14
		C398.6,653.5,399.2,654.1,399.9,654.1 M465.2,639.4c-0.8,0-1.4,0.6-1.4,1.4v9.9c0,0.8,0.6,1.4,1.4,1.4s1.4-0.6,1.4-1.4v-9.9
		C466.6,640.1,466,639.4,465.2,639.4 M460.4,637.5c-0.7,0-1.3,0.6-1.3,1.3v14c0,0.7,0.6,1.3,1.3,1.3c0.7,0,1.3-0.6,1.3-1.3v-14
		C461.7,638.1,461.1,637.5,460.4,637.5 M455.5,639.4c-0.8,0-1.4,0.6-1.4,1.4v9.9c0,0.8,0.6,1.4,1.4,1.4c0.8,0,1.4-0.6,1.4-1.4v-9.9
		C457,640.1,456.3,639.4,455.5,639.4 M446.8,641.3c-8-6.3-16.6-5.5-22.4-4.7c-17.2,2.4-17.8,19.6-17.8,19.6l-14.2-0.1
		c0,0,1.2-16.4-14.8-18.9c-15.4-2.5-20.3,0.3-25.8,6.2c-2.8,3-4.3,10.5-3,11.3c1.1,0.8,1.7-0.8,1.7-1c1.1-3.8,5.2-14.1,18.6-12.8
		C385.5,642.5,385,660,385,660l23.7,1.4c0,0,0.6-24,21.3-20.9c17,2.5,14,17.7,14,17.7l8.7-0.9C452.7,657.3,454.2,647.1,446.8,641.3
		 M474.9,639.7c-4.3,3.1-5.9,6.7-6.8,10.6c-0.5,2.3,0.2,2.9,0.9,2.8c0.4,0,0.9-0.9,1.1-1.6c0.7-2,1.9-5.2,6.2-7.6
		c5.9-3.2,13.7-1.6,13.7-1.6v-6.1C485.1,636.4,479.2,636.6,474.9,639.7"/>
</g>
</svg>
