<?xml version="1.0" encoding="utf-8"?>
<!-- Generator: Adobe Illustrator 22.1.0, SVG Export Plug-In . SVG Version: 6.00 Build 0)  -->
<svg version="1.1" id="图层_1" xmlns="http://www.w3.org/2000/svg" xmlns:xlink="http://www.w3.org/1999/xlink" x="0px" y="0px"
	 viewBox="0 0 800 800" style="enable-background:new 0 0 800 800;" xml:space="preserve">
<style type="text/css">
	.st0{fill:#005F31;}
</style>
<g>
	<path class="st0" d="M400,50C206.7,50,50,206.7,50,400c0,193.3,156.7,350,350,350c193.3,0,350-156.7,350-350
		C750,206.7,593.3,50,400,50z M400,743C210.6,743,57,589.4,57,400C57,210.6,210.6,57,400,57c189.4,0,343,153.5,343,343
		C743,589.4,589.4,743,400,743z"/>
	<path class="st0" d="M83.9,408.7c4.7-0.2,7.8-2.7,9.3-7.6l0.2,0c1.3,4.1,3.8,6.2,7.5,6.4c6.1-0.3,9.2-4.5,9.4-12.6l0.2-13.3
		L75.2,381L75,394.3C75.1,403.3,78,408.1,83.9,408.7z M96.2,389l8.2,0.1l-0.1,5.9c-0.1,3.2-1.5,4.8-4.3,4.9c-2.7-0.2-4-1.8-3.9-5
		L96.2,389z M80.9,394.6l0.1-5.9l9.3,0.2l-0.1,5.9c0,4.2-1.6,6.2-4.9,6C82,400.8,80.6,398.8,80.9,394.6z"/>
	<polygon class="st0" points="81.8,425.8 91.1,424.9 92.5,439.7 98.4,439.1 97,424.3 105.2,423.6 106.6,439.5 112.5,439 
		110.3,415.4 75.3,418.7 77.5,442.8 83.4,442.2 	"/>
	<rect x="79.9" y="451.4" transform="matrix(0.984 -0.178 0.178 0.984 -79.4736 24.6231)" class="st0" width="35.2" height="7.6"/>
	<path class="st0" d="M99.9,491.3l22.8-6.1l-1.9-7.2l-22.6,6c-0.3-0.1-0.5-0.1-0.6,0c-4.2,0.9-6.7,0.1-7.3-2.4
		c-0.7-2.7,1-4.6,5.2-5.7l-2-7.4c-7.5,2.4-10.2,7.2-8.2,14.4C87.5,490.3,92.3,493.1,99.9,491.3z"/>
	
		<rect x="92.9" y="499.9" transform="matrix(0.9415 -0.3371 0.3371 0.9415 -163.3318 66.7201)" class="st0" width="35.2" height="7.6"/>
	<polygon class="st0" points="141.7,532 116.8,543.8 116.5,543.7 135.9,519.8 131.1,509.6 99.3,524.7 102.3,531.1 128.6,518.6 
		128.9,518.7 108.3,543.6 112.9,553.4 144.7,538.4 	"/>
	<path class="st0" d="M152,569.9l4.4,6.7c6.4-4.1,6.6-10.8,0.7-19.9c-6.6-8.6-14.8-9.8-24.5-3.8c-9.4,6.4-11.4,14.3-6,23.6
		c1.8,2.8,3.4,4.9,4.7,6.5c1.5,2.2,3.2,4.2,5.2,5.9l14.8-9.6l-7.8-12l-4.9,3.2l3.7,5.7l-6.2,4c-0.2,0-0.3-0.1-0.4-0.2
		c-1.7-1.9-3.1-3.7-4.1-5.3c-3.5-5.6-1.7-10.7,5.3-15.2c7-4.6,12.4-4.1,16.2,1.3C155.7,564.7,155.3,567.8,152,569.9z"/>
	
		<rect x="154.2" y="602.3" transform="matrix(0.7421 -0.6703 0.6703 0.7421 -361.9515 271.5195)" class="st0" width="35.2" height="7.6"/>
	<polygon class="st0" points="211.5,620.4 192.9,640.8 192.6,640.8 201.5,611.3 193.2,603.7 169.5,629.7 174.7,634.5 194.3,613 
		194.6,612.9 185,643.8 193,651.1 216.7,625.1 	"/>
	<path class="st0" d="M234.5,637c-8-4.9-14.3-4.6-18.7,1c-2.9,3.9-1.6,8.7,3.9,14.6c0.2,0.3,0.5,0.7,0.9,1.1c3,3.4,3.9,6,2.6,7.9
		c-1.8,2.3-4.6,2.2-8.4-0.3c-3.1-2.4-3.5-5.3-1.1-8.7l-6.2-4.4c-4.6,6.1-3.1,11.8,4.3,17.3c8.1,5.4,14.4,5.2,18.9-0.7
		c2.8-3.8,1.3-8.7-4.6-14.9c-0.1-0.3-0.3-0.5-0.4-0.7c-3.4-3.2-4.2-5.7-2.4-7.8c1.7-2.2,4.1-2.4,7.3-0.4c2.9,2,3.4,4.6,1.6,7.6
		l5.9,4.2C241.6,647.1,240.4,641.8,234.5,637z"/>
	<polygon class="st0" points="273.4,661.2 248.4,647.5 245.6,652.7 254.7,657.7 240.7,683.4 247.3,687.1 261.4,661.4 270.6,666.4 	
		"/>
	
		<rect x="258.6" y="677.7" transform="matrix(0.4037 -0.9149 0.9149 0.4037 -458.821 659.0808)" class="st0" width="35.2" height="7.6"/>
	<polygon class="st0" points="290.9,675.3 300.8,678.7 291.3,706.5 298.5,708.9 308,681.2 317.9,684.6 319.8,679 292.8,669.8 	"/>
	<path class="st0" d="M343.7,704.1c-1.2,7.8-4.5,10.9-9.8,9.4c-5.7-0.8-7.4-5-5.3-12.6l3.9-18.8l-7.5-1.6l-4.5,21.6
		c-1.5,8.6,2.6,14.1,12.3,16.4c9.6,1.8,15.5-1.6,17.7-10.1l4.5-21.6l-7.5-1.6L343.7,704.1z"/>
	<polygon class="st0" points="360.1,693.4 370.6,694.3 368.1,723.5 375.6,724.2 378.1,695 388.6,695.9 389.1,690 360.6,687.5 	"/>
	<polygon class="st0" points="402.9,719.2 402.7,709.8 417.5,709.5 417.4,703.6 402.5,703.9 402.4,695.8 418.3,695.4 418.2,689.5 
		394.6,690 395.4,725.2 419.6,724.7 419.4,718.8 	"/>
	<path class="st0" d="M459.3,683c-10.7,2.6-15,9.8-12.8,21.5c2.6,11.4,9.4,16.1,20.2,14.1c10.5-2.4,14.8-9.4,12.8-20.9
		C476.6,686.1,469.9,681.2,459.3,683z M465.6,713.6c-5.9,1.4-9.7-2.2-11.4-10.7c-1.9-8.4,0.2-13.2,6.1-14.5
		c5.7-1.2,9.4,2.4,11.2,10.9C473.4,707.6,471.4,712.4,465.6,713.6z"/>
	<polygon class="st0" points="507.7,684.8 494.1,689.3 491.5,681.4 505.9,676.5 504,670.9 482.6,678.1 493.7,711.5 500.8,709.1 
		496,694.9 509.5,690.4 	"/>
	<polygon class="st0" points="552,654.1 549.2,648.9 524,662.4 526.8,667.6 536.1,662.7 549.9,688.5 556.6,684.9 542.8,659.1 	"/>
	<polygon class="st0" points="576.6,665.9 571.4,658.2 583.6,649.8 580.3,644.9 568,653.3 563.4,646.6 576.6,637.5 573.2,632.7 
		553.8,646 573.7,675.1 593.6,661.4 590.3,656.5 	"/>
	<path class="st0" d="M610.6,632.6c2.6,3.4,2.4,6.6-0.8,9.5c-3.2,2.6-7.7,0.9-13.4-5.3c-5.3-6.5-6.4-11.2-3.4-14.1
		c3.4-2.6,6.6-2.4,9.5,0.5l6-5.2c-5.5-5.6-11.9-5.4-19.2,0.5c-6.9,6.5-6.6,14.4,1,23.6c7.8,8.7,15.4,10,22.8,3.9
		c7-6.2,8.2-12.5,3.5-18.6L610.6,632.6z"/>
	<polygon class="st0" points="619.2,589.7 629.5,599.1 620.6,608.9 610.3,599.6 605.3,605.1 631.4,628.8 636.3,623.3 624.9,612.9 
		634,602.9 645.4,613.3 650.4,607.8 624.3,584.1 	"/>
	<polygon class="st0" points="643.2,558 665.9,573.8 665.9,574 635.5,569.1 629.1,578.3 658,598.4 662,592.6 638.1,576 638,575.7 
		669.9,581.2 676.1,572.3 647.2,552.2 	"/>
	<path class="st0" d="M681.4,525.5c-10.8-5.1-18.8-3-24.1,6.5c-4.7,10-1.8,17.8,8.7,23.5c10.5,5.1,18.4,2.8,23.7-6.9
		C694.3,538.9,691.6,531.2,681.4,525.5z M685.1,546.2c-2.7,5.5-7.8,6.2-15.4,2.1c-7.7-3.8-10.2-8.5-7.4-13.9
		c2.7-5.2,7.8-5.8,15.5-1.9C685.3,536.5,687.7,541,685.1,546.2z"/>
	<polygon class="st0" points="698.2,514.1 670.7,503.8 668.1,510.8 701.1,523.1 709,501.8 703.5,499.8 	"/>
	<path class="st0" d="M702.8,456.7c-11.7-2.5-19,1.5-21.9,11.9c-2.2,10.8,2.4,17.8,13.9,20.8c11.4,2.5,18.5-1.6,21.4-12.2
		C718.5,466.6,714.1,459.8,702.8,456.7z M711.2,476c-1.3,5.9-6.2,7.8-14.5,5.7c-8.4-1.9-11.9-5.8-10.5-11.8
		c1.4-5.7,6.3-7.5,14.7-5.4C709.2,466.4,712.6,470.3,711.2,476z"/>
	<path class="st0" d="M723.7,419.2l-17.6-1.9l-1.5,14.2l5.9,0.6l0.7-6.8l7.4,0.8c0.1,0.1,0.2,0.3,0.2,0.4c0.1,2.6,0.1,4.8-0.1,6.7
		c-0.8,6.5-5.4,9.4-13.7,8.5c-8.3-0.9-12.3-4.6-11.8-11.2c0.5-4.7,2.7-6.8,6.6-6.4l0.8-7.9c-7.6-0.8-11.9,4.2-13.1,15.1
		c-0.3,10.8,5.3,16.9,16.6,18.4c11.4,0.9,17.9-3.9,19.5-14.6c0.3-3.3,0.5-5.9,0.5-8C724.3,424.5,724.2,421.8,723.7,419.2z"/>
	<polygon class="st0" points="706,393.7 689.9,401.2 690.1,410.2 713.6,397.8 725.1,397.6 724.9,390.1 713.5,390.3 689.5,379 
		689.6,386.6 	"/>
	<path class="st0" d="M210.4,589.6c24.6,24.6,53.3,43.9,85.2,57.5c33.1,14,68.2,21.1,104.4,21.1c36.2,0,71.3-7.1,104.4-21.1
		c31.9-13.5,60.6-32.8,85.2-57.5c24.6-24.6,43.9-53.3,57.5-85.2c14-33.1,21.1-68.2,21.1-104.4c0-36.2-7.1-71.3-21.1-104.4
		c-13.5-31.9-32.8-60.6-57.5-85.2c-24.6-24.6-53.3-43.9-85.2-57.5c-33.1-14-68.2-21.1-104.4-21.1c-36.2,0-71.3,7.1-104.4,21.1
		c-31.9,13.5-60.6,32.8-85.2,57.5c-24.6,24.6-43.9,53.3-57.5,85.2c-14,33.1-21.1,68.2-21.1,104.4c0,36.2,7.1,71.3,21.1,104.4
		C166.5,536.3,185.8,564.9,210.4,589.6z M400,136.9c145.3,0,263.1,117.8,263.1,263.1c0,145.3-117.8,263.1-263.1,263.1
		c-145.3,0-263.1-117.8-263.1-263.1C136.9,254.7,254.7,136.9,400,136.9z"/>
	<path class="st0" d="M283.1,265c12.5,12,24.8,12.2,24.8,12.2s-1,15.7,14,24.9c9.8,6,21.4,2.9,21.4,2.9s3,13.4,17.9,15.7
		c14.9,2.3,20.5-3.5,20.5-3.5l-7,31.8h50.4l-7-31.8c0,0,5.6,5.8,20.5,3.5c14.9-2.3,17.9-15.7,17.9-15.7s11.6,3.1,21.4-2.9
		c15-9.2,14-24.9,14-24.9s12.3-0.2,24.8-12.2c13.7-13.1,13.6-30.1,13.6-30.1s-23.9,7.3-50,11.2c-31,4.6-65.3,4-65.3,4l-5.8-29.9
		c1.9-0.6,6.9-2.2,13.3-4.9c0.6,1.7,3.1,6.9,11,10.4c9.6,4.3,17.4,0.4,17.4,0.4s-4.4-6.2-12.6-10.3c-4.5-2.2-8-2.8-10.4-2.8
		c4.1-1.9,8.5-4.1,12.9-6.6c0.1,0,0.1-0.1,0.2-0.1c1.2,2,4.7,6.4,14.2,8.8c10.3,2.7,15.7-0.5,15.7-0.5s-2.2-7-13-9.8
		c-5.6-1.5-9.6-1.7-12.3-1.4c4.5-3,8.5-6.3,12-9.4c1.7,1.3,6.6,4.6,14.3,4.6c9.6,0,15.1-6.9,15.1-6.9s-5.2-2.5-14.6-2.8
		c-5.1-0.2-8.8,0.8-11.2,1.8c5.8-5.6,9.3-10.2,10-11c2.3-0.5,6.3-2.3,8.7-8.5c3.9-10.5,2.1-17.3,2.1-17.3s-9.1,3.9-12.3,12.3
		c-2.1,5.4-1.5,9.5-0.9,11.7c-0.9,1.2-3.6,4.5-8.5,8.9c1.2-2.4,2.2-6.1,2.3-11.5c0.2-11.2-2.5-15.1-2.5-15.1s-7.5,5-7.5,16.5
		c0,8.7,2,12.7,3,14.1c-3.3,2.7-7.3,5.6-12,8.5c1.6-2.5,3.4-6.7,4-13c1.2-12.7-3.6-16.5-3.6-16.5s-7.8,5.9-8,17.4
		c-0.1,8.3,2.2,12.7,3.5,14.6c-4.5,2.6-9.5,5.1-14.2,7.1c2-2.6,4.2-6.9,4.2-13.3c0-12.3-3.2-15.8-3.2-15.8s-8.5,5.9-8.5,17.6
		c0,7.7,1.7,11.7,2.9,13.6c-6,2.5-10.8,4.3-12.5,4.9c-0.2-1.6-1.6-11.2-8.6-11.2c-7.6,0-8.6,11.5-8.6,11.5l-6.6,34.3
		c0,0-34.3,0.6-65.3-4c-26-3.9-50-11.2-50-11.2S269.3,251.9,283.1,265z"/>
	<path class="st0" d="M334.7,367.4c24.8,6.3,42.4,4.6,42.4,4.6l-8,33.8l30.8,1l30.8-1l-8-33.8c0,0,17.6,1.7,42.4-4.6
		c62.6-15.9,88.8-76.9,88.8-76.9s-18.7,6.3-67.9,10c-1.7,1.7-3.8,3.3-6.2,4.8c-7.7,4.8-16.3,4.6-20.9,4c-2.1,4.8-7.5,13.2-19.8,15.2
		c-6.9,1.1-12,0.6-15.8-0.4c1.9,8.8,6.3,28.8,6.3,28.8h-59.7c0,0,4.4-20.1,6.3-28.8c-3.7,1-8.9,1.5-15.8,0.4
		c-12.4-1.9-17.8-10.3-19.8-15.2c-4.6,0.6-13.2,0.8-20.9-4c-2.4-1.5-4.5-3.1-6.2-4.8c-49.2-3.7-67.9-10-67.9-10
		S272.1,351.5,334.7,367.4z"/>
	<path class="st0" d="M431.9,612.1c-2.9,0-4.3,2.8-4.3,8.4c0,5.6,1.4,8.4,4.3,8.4c3-0.1,4.4-2.9,4.4-8.4
		C436.4,614.9,434.9,612.1,431.9,612.1z"/>
	<path class="st0" d="M387.9,612.1c-2.6,0.2-3.9,1.7-4.1,4.7c0,3.1,1.4,4.6,4.3,4.5c2.6-0.2,3.9-1.7,4-4.8
		C392,613.6,390.6,612.1,387.9,612.1z"/>
	<polygon class="st0" points="404.9,623.3 411.7,623.3 411.7,613.7 411.5,613.7 	"/>
	<path class="st0" d="M466.3,626.8c-2.2-1.6-4.4-5.6-6.8-5.6c-2.5,0-3.7-3.1-5.3-4.4c-1.6-1.2-3.7-0.3-4.7-1.2
		c-0.9-0.9-0.9-4.7-5-6.5c-4-1.9-5.6-1.2-7.5-2.2c-1.9-0.9-2.8-4-5.3-4.4c-2.5-0.3-4.7-0.3-8.1-1.2c-3.4-0.9-3.7-5.6-7.5-5.6
		c-3.7,0-10.9-0.3-10.9-0.3v-21.5l2.2,0l-7.5-7.5l-7.5,7.5l2.2,0v21.5c0,0-7.1,0.3-10.9,0.3c-3.7,0-4,4.7-7.5,5.6
		c-3.4,0.9-5.6,0.9-8.1,1.2c-2.5,0.3-3.4,3.4-5.3,4.4c-1.9,0.9-3.4,0.3-7.5,2.2c-4,1.9-4,5.6-5,6.5c-0.9,0.9-3.1,0-4.7,1.2
		c-1.6,1.2-2.8,4.4-5.3,4.4c-2.5,0-4.7,4-6.8,5.6c-2.2,1.6-6.8,4-13.1,6.2c-6.2,2.2-26.1,2.8-26.1,2.8h210.9c0,0-19.9-0.6-26.1-2.8
		C473.1,630.8,468.5,628.3,466.3,626.8z M368.5,630.6h-2.7v-14.8h-5v-2.1c3.5,0.2,5.4-1.2,5.7-4.1h2V630.6z M387.5,630.9
		c-3.8-0.1-5.9-1.9-6.2-5.4h2.6c0.3,2.3,1.5,3.4,3.6,3.4c2.7,0.1,4.4-2.5,5-7.8h-0.1c-0.9,1.6-2.4,2.4-4.8,2.4
		c-4.2-0.2-6.4-2.5-6.5-6.8c0.2-4.7,2.5-7.1,6.8-7.2c4.7,0.1,7.2,3.3,7.3,9.7C394.9,626.9,392.3,630.8,387.5,630.9z M417.4,625.5
		h-3.1v5.1h-2.6v-5.1h-9.2v-2.6l9.6-13.3h2.2v13.6h3.1V625.5z M431.9,630.9c-4.7-0.1-7.1-3.6-7.2-10.5c0.2-7.1,2.6-10.8,7.2-10.8
		c4.6,0.2,7,3.8,7.2,10.8C439,627.4,436.6,630.9,431.9,630.9z"/>
	<path class="st0" d="M339.5,637.5c-0.7,0-1.3,0.6-1.3,1.3v14c0,0.7,0.6,1.3,1.3,1.3c0.7,0,1.3-0.6,1.3-1.3v-14
		C340.8,638.1,340.2,637.5,339.5,637.5z"/>
	<path class="st0" d="M334.7,639.4c-0.8,0-1.4,0.6-1.4,1.4v9.9c0,0.8,0.6,1.4,1.4,1.4c0.8,0,1.4-0.6,1.4-1.4v-9.9
		C336.1,640.1,335.5,639.4,334.7,639.4z"/>
	<path class="st0" d="M318.7,638.5c-6.2-2.3-13.7-2.8-13.7-0.9c0,1.2,6.3,0.9,10.7,4.3c4.3,3.3,5.3,8.4,5.3,8.4h7.2
		C328.3,650.3,328.5,642.1,318.7,638.5z"/>
	<path class="st0" d="M344.3,639.4c-0.8,0-1.4,0.6-1.4,1.4v9.9c0,0.8,0.6,1.4,1.4,1.4c0.8,0,1.4-0.6,1.4-1.4v-9.9
		C345.8,640.1,345.1,639.4,344.3,639.4z"/>
	<path class="st0" d="M465.2,639.4c-0.8,0-1.4,0.6-1.4,1.4v9.9c0,0.8,0.6,1.4,1.4,1.4c0.8,0,1.4-0.6,1.4-1.4v-9.9
		C466.6,640.1,466,639.4,465.2,639.4z"/>
	<path class="st0" d="M460.4,637.5c-0.7,0-1.3,0.6-1.3,1.3v14c0,0.7,0.6,1.3,1.3,1.3c0.7,0,1.3-0.6,1.3-1.3v-14
		C461.7,638.1,461.1,637.5,460.4,637.5z"/>
	<path class="st0" d="M468.1,650.3c-0.5,2.3,0.2,2.9,0.9,2.8c0.4,0,0.9-0.9,1.1-1.6c0.7-2,1.9-5.2,6.2-7.6
		c5.9-3.2,13.7-1.6,13.7-1.6v-6.1c-5,0-10.9,0.2-15.2,3.3C470.6,642.8,469,646.4,468.1,650.3z"/>
	<path class="st0" d="M455.5,639.4c-0.8,0-1.4,0.6-1.4,1.4v9.9c0,0.8,0.6,1.4,1.4,1.4c0.8,0,1.4-0.6,1.4-1.4v-9.9
		C457,640.1,456.3,639.4,455.5,639.4z"/>
	<path class="st0" d="M401.3,652.8v-14c0-0.7-0.6-1.3-1.3-1.3c-0.7,0-1.3,0.6-1.3,1.3v14c0,0.7,0.6,1.3,1.3,1.3
		C400.7,654.1,401.3,653.5,401.3,652.8z"/>
	<path class="st0" d="M396.5,650.7v-9.9c0-0.8-0.6-1.4-1.4-1.4s-1.4,0.6-1.4,1.4v9.9c0,0.8,0.6,1.4,1.4,1.4S396.5,651.5,396.5,650.7
		z"/>
	<path class="st0" d="M406.2,650.7v-9.9c0-0.8-0.6-1.4-1.4-1.4c-0.8,0-1.4,0.6-1.4,1.4v9.9c0,0.8,0.6,1.4,1.4,1.4
		C405.6,652.2,406.2,651.5,406.2,650.7z"/>
	<path class="st0" d="M446.8,641.3c-8-6.3-16.6-5.5-22.4-4.7c-17.2,2.4-17.8,19.6-17.8,19.6l-14.2-0.1c0,0,1.2-16.4-14.8-18.9
		c-15.4-2.5-20.3,0.3-25.8,6.2c-2.8,3-4.3,10.5-3,11.3c1.1,0.8,1.7-0.8,1.7-1c1.1-3.8,5.2-14.1,18.6-12.8
		C385.5,642.5,385,660,385,660l23.7,1.4c0,0,0.6-24,21.3-20.9c17,2.5,14,17.7,14,17.7l8.7-0.9C452.7,657.3,454.2,647.1,446.8,641.3z
		"/>
	<path class="st0" d="M168.7,188c2.7,3.9,6.3,9.3,10,12.7c3.7,3.5,7.6,6.8,10.7,6.8c3.1,0,10.2-6.5,11.9-8.4c1.7-1.9,6.2-4.9,4-7.1
		c-2.2-2.2-3-6.2-6.4-3.9c-3.4,2.3-7.1,6.9-9.4,5.5c-2.3-1.4-6.7-3.5-6.7-6.5c0-3,1.6-5.6,2.1-7.5c0.5-1.9,2-2.8,0.8-5.4
		c-1.2-2.6-4.1-3.9-5.8-2.7c-1.7,1.2-1.4,5.7-3.7,4.3c-2.3-1.4-2.5-2.5-2.5-3.8c0-1.3-2.2-5.6-4.9-4c-2.7,1.6-6.7,4.5-8.3,7
		c0,0-0.6,1.6,0,2.5C161.4,178.4,166.1,184.1,168.7,188z"/>
	<path class="st0" d="M150.7,196.7c1.5,0.3,3.7,3.7,5.4,7.3c1.7,3.6-2.2,4-3.6,7.7c-1.4,3.7,1.7,4.8,3.4,6.6
		c1.8,1.8,3.3,2.3,3.4,1.9c0.1-0.4,2.3-3.3,3.9-4.7c1.5-1.4,2.9,0.3,4.1,2.8c1.2,2.5-1.5,7.6-2.3,10.6c-0.8,3-1.9,3.7-0.6,4.5
		c1.4,0.8,4.5,1.7,6.6,1.7c2.1,0,2.6-1.5,2.6-2.9c0-1.4,0.8-2.9,1.4-6.9c0.6-4,2.8-9.4,2.8-14.1c0-4.7-1-3.2-4.7-6.9
		c-3.7-3.7-7.7-8.5-9.8-11.2c-2.1-2.6-4-6.3-6.3-6.5c-2.3-0.1-4.7,3.7-5.6,4.7c-0.7,0.7-2.2,1-3,1.3c-0.3,0.1-0.5,0.7-0.6,0.7
		C147.4,196.6,149.2,196.4,150.7,196.7z"/>
	<path class="st0" d="M267.8,140c1.8,1.4,4.4,2.8,5.3,3.9c0.9,1,1.2,2.4,1.9,2.1c0.7-0.3,3.8-3.5,4.3-4.3c0.6-0.8,1-5.6-0.7-7.2
		c-1.7-1.5-3.8-2.2-5.5-1.9c-1.7,0.4-2,1.3-3.7,1.9c-1.7,0.6-2.9-0.7-4.1,1.2C265.4,135.7,266,138.6,267.8,140z"/>
	<path class="st0" d="M258.3,155.3c-0.5,0.3-1.3,0.7-3.1,0.4c-1.8-0.4-1,1.9-1,1.9s3,1.3,4.8,1.8c1.8,0.6,3.8,0.5,6.8,0.6
		c3.1,0.1,3-1.7,3.2-6.5c0.2-4.9-2.4-7.1-5.5-10.4c-3.1-3.3-2.4-3.9-2.4-3.9s0.7-0.4,1.5-1.5c0.8-1.1,0.2-2.5,0.2-5.4
		c0.1-3,0.3-6,0.6-9.4c0.2-3.4-1-5.9-5.4-5.2c-4.4,0.6-4.9,2.8-5.4,4c-0.4,1.2-6.7,8.3-8.4,9.1c-1.8,0.7-3.3,0.1-3.3,0.1
		c-4.9,0.9-1.8,7.1,0.7,9.8c2.5,2.7,6.7,7,8.1,6.7c1.4-0.3,1.4-1.8,3.8-1.9c2.4-0.1,2.7,3,4.7,5.6
		C260.5,153.7,259.1,154.9,258.3,155.3z M254,132c-0.9,1.5-0.5,3.6-2.1,4.2c-1.5,0.5-3.7,0.1-2.3-2.1c1.5-2.2,2.5-3.4,3.1-4.2
		c0.5-0.8-0.1-1.3,1.5-1.2C254.2,128.7,254.9,130.6,254,132z"/>
	<path class="st0" d="M247.7,154.7c-0.8-0.3-1.8-1.5-1.8-1.5c-1.7-1.4-2.7,1.2-3.1,4.8c-0.5,3.6,2.5,7.5,4.7,8.1
		c2.2,0.6,2.7-2.4,3.9-3.6c1.3-1.2,1.7-3.2,1.8-6c0.1-2.8,0.3-4.9-1.1-4.8C250.7,151.6,248.7,155.1,247.7,154.7z"/>
	<path class="st0" d="M231.2,136.3c3.8-2.4,13.3-12.5,17.6-16.7c4.3-4.3,10.5-10,12.3-11.1c1.8-1.1,4-1.6,3.5-3.9
		c-0.5-2.2-3-4.4-6.1-3c-3.1,1.4-9.2,7.1-9.2,7.1s-1.8-8.6-7.7-7.2c-6,1.4-8.6,6.5-8.6,6.5s-0.4,2.2,1.9,2.6
		c2.4,0.4,2.4,1.7,2.5,2.9c0.1,1.2-0.5,2.4,1,2.6c1.5,0.2,0.9-1,2.7-0.3c0,0,0.5,1.2-0.1,2.1c-0.7,0.9-8.7,8-11.6,10.3
		c-2.9,2.3-4,3.4-3.7,5.5C226,135.4,227.5,138.8,231.2,136.3z"/>
	<path class="st0" d="M347.3,92.2c1.3,1.5,0.6,2.7,0.1,4.7c-0.5,2,0.8,3.1,2.4,4.5c1.6,1.4,2.3,1.9,3.3,1.7c0.9-0.3,1.8-1.7,2.9,0.2
		c1.1,1.8-0.1,1.4-2.3,2.3c-2.2,0.8-2.3,1.2-2.3,3.7c0,2.5,4.1,1.1,5,2.6c0.9,1.5-2.8,2.5-6.3,3.7s-4.6,1.7-3.5,4.7
		c0.9,2.6,2.9,4.1,5,3.8c2.1-0.3,7-3.4,12.5-5.3c5.5-1.9,6.7-1.2,11.8-1.1c5.1,0.1,4.3-1.9,4.8-4.2c0.5-2.3,0.3-3.8-2.3-4.6
		c-2.7-0.8-4.7,1-7.9,2c-3.2,1-3.8,0.2-3.9-1c-0.1-1.2,4-2.7,4.7-4.2c0.7-1.5,0.3-3.3-2.4-4.2c-2.7-0.8-2.7,0.7-4.8,1.6
		c-2.1,0.9-0.8-2.7-0.8-2.7s2.8-0.1,5.5-2c2.7-1.9,2.2-2.8,3.1-5.9c0.9-3.2,3.5-5.7,4.8-10.9c1.3-5.3,0.3-5.2-1.3-7.5
		c-1.6-2.3-4.2-2.8-7.9-1.7c-3.7,1.2-12.9,6.7-15.5,7.6c-2.5,0.9-5.5,0.1-5.5,0.1c-2.2,0.7-0.9,4.8-0.8,6.5
		C346,88,346,90.6,347.3,92.2z M363,80.6c1.2-1,2.6-1.7,3.3-0.8c0.8,0.8-0.1,2.9-0.8,3.4c-0.8,0.5-2,1.5-3,0.2
		C361.5,82,363,80.6,363,80.6z M362.8,89.4c1.4-1.6,3.1-0.3,2.7,0.3c-0.4,0.7-1,2.5-2.2,2.6c-1.2,0.1-1.6-0.9-1.6-1.5
		C361.7,90.2,362.8,89.4,362.8,89.4z M358,92.4c0,0-0.1,0.8-0.8,1.6c-0.9,0.9-2.4,2-2.9,0.7c-0.5-1.3,0-2.4,1.3-2.7
		C356.8,91.7,357.3,91,358,92.4z M354,85.5c1.3-1.3,2.3-2.5,3.2-0.9c0,0,0.3,0.9-0.6,2.1c-0.5,0.6-1.1,1.3-1.7,1.4
		C354.3,88.2,352.7,86.8,354,85.5z"/>
	<path class="st0" d="M325.8,93.3c2.6,1.3,2.6,2.4,3.9,2.6c1.3,0.2,2.4-0.8,2.7,1.1c0.3,1.8-0.3,3.8-2.2,4.8c-1.8,0.9-4.3,1-4.3,3
		s4.1,2.5,4.2,5.1c0.1,2.6-0.4,3.1-2.2,4.8c-1.8,1.8-4,2.6-3.6,5.7c0.4,3.1,3.2,6.9,5.9,6.5c2.8-0.4,3.5-3.6,6-5.6
		c2.5-2,9.7-5.7,9.5-9.4c-0.2-3.8-3.5-2.8-4.9-3.1c-1.4-0.3-0.9-2.2,1.5-3.8c2.4-1.6,3.3-2.8,2.9-4.4c-0.3-1.7-1-2.2-2.3-2.7
		c-1.3-0.5-2.6-0.9-2.5-2.9c0.1-2,1.7-4.2,2.3-5.3c0.7-1.1,1.9-3.8,1.5-6.6c-0.4-2.8-2.3-5.1-6.1-3.3c-3.8,1.8-5,4.4-7.5,5.8
		c-1.6,0.9-3.9,2-5.8,3.4C324,89.9,323.2,92.1,325.8,93.3z"/>
	<path class="st0" d="M439,115.2c3-0.5,7.7-0.4,18.2,0.7c10.5,1.1,17.7,6,21.7,6.1c4.1,0.1,4.2-2.4,4-5.6c-0.2-3.2-2.2-4.7-4.9-5.7
		c-2.7-1-7.5-0.6-10.4-1.2c-2.9-0.6,1.6-6.3,2.6-8.1s-0.4-2.7,0.7-4.4c1.1-1.8,3.6-0.6,4.8-0.7c1.2-0.2,1.9-0.7,3.2-1.5
		c1.3-0.7,4-0.9,4.9-3.6c0.9-2.7-1.1-6.1-3.3-7c-2.2-0.9-6.9,0.6-10.4,1c-3.4,0.4-8.5-0.3-8.5-0.3c-4.1-0.8-3.2-2.4-6.5-2.9
		c-3.2-0.5-2.8,2.8-2.8,5.1c0,2.3,1.3,2.9,0.6,4.4c-0.7,1.6-0.4,3.4,0.9,3.2c1.3-0.2,3.3-0.3,4.3,1.3c1,1.6-0.7,7.2-6.2,8.8
		c-5.5,1.6-10.4,1-15.8,0.7c-5.5-0.3-5.7,2.4-5.2,6.8C431.7,116.8,436,115.7,439,115.2z"/>
	<path class="st0" d="M533.1,145.3c7.6,0,12.5-1.2,14.7-2.1c2.2-0.9,3.8-2,3.8-2s2.2,5.2,2.8,9.7c0.6,4.6,0.5,7.5,0.5,9
		c0,1.5-1,2.1,1.7,4.6c2.7,2.5,6.2,5.9,10.4,5.9c4.2,0,5.3-3.5,5.3-3.5s-7-5.9-9.4-13c-2.3-7-2.2-7.9-2.5-10.1
		c-0.2-2.2-2.5-8.5,0.9-8.8c3.3-0.2,5.5,0.7,10,1.4c4.4,0.6,8,0.1,7.3-3.1c-0.7-3.2-2.2-4.9-5.4-5.2c-3.2-0.2-8-0.4-8-0.4
		s5.6-4.3,4.4-7.6c-1.2-3.6-2.3-2.3-4.3-3.7c-1.1-0.7-1.4-2.8-3.7-0.9c-2.3,2-4.1,5.4-5.8,7c-1.7,1.6-2.2,2.1-4.8,0.4
		c-2.6-1.7-5.7-3.8-8.8-2c0,0-2.5,0.9-2.1,3.7c0.4,2.8,1.7,4.6,3.6,5.2c1.8,0.6,4.8,1,3.7,2.2c-1.1,1.2-6.3,3.9-10,4.4
		c-3.7,0.5-5.8,1.1-9.4,1.1c-3.6,0-4.1,0-4.1,1.1c0,1.1,1,2,1.1,3C525.2,142.8,525.4,145.3,533.1,145.3z"/>
	<path class="st0" d="M604.4,218.8c3,2.5,6.1,3.8,9.9,1.9c3.8-1.9,5-4.6,7.3-5.3c2.3-0.6,3.4,0.6,5.4,2.3c2,1.7,4.3,2.2,5.6,1.8
		c1.3-0.4,1.6-4.2,0.5-6.8c-1.1-2.5-3.2-1.9-4.5-3.4c-1.4-1.5,1.7-1.9,6.3-1.9c4.6,0,5.8,1.6,7.9,3.6c2.1,2,4.4,4.6,6.9,4.8
		c2.4,0.1,5.3-3.9,4.9-6c-0.4-2.1-0.8-4.3-3.5-5.4c-2.6-1.1-0.6-2.1,2.4-3.9c3.1-1.8,5.6-2.2,8.5-2.1c2.9,0.1,3.9-1.2,3.9-3.8
		c0-2.6-1.2-2.5-2.9-2.9c-1.7-0.3-2.9-1.6-4.8-1.7c-1.9-0.1-2,2.9-3.2,3.4c-1.2,0.5-2.7,0.3-3.9,0.2c-1.2-0.1-1,1.4-2,1.5
		c-1.1,0.1-1.1-0.4-2.5,0c-1.5,0.4-0.5,3.7-2.1,3.7c-1.6,0-2.6-3.5-1.6-5c1.1-1.5,5.9-1.1,7.5-2c1.6-1,1.9-2.6,3.3-3.8
		c1.4-1.2,1.8-0.6,4.2-1c2.4-0.3,1.2-4.2-0.8-5.2c-2-0.9-2.5,1.3-4.8,1.5c-2.2,0.2-0.3-3.2-2.2-3.3c-1.9-0.1-1.3,2.7-2,3.4
		c-0.7,0.6-0.5-0.5-2.9,0.2c-2.3,0.7-1.5,2.7-1.5,2.7s1.6,0,2.7,1.6c1.2,1.6-1.6,2.4-3.3,2.2c-1.7-0.2,0-1.3,0-1.9
		c0-0.6-1.3-1.1-1.6-1.4c-0.3-0.3-0.1-1.3,0.6-2c0.7-0.7,2.2-3,3.3-4.1c1.1-1.2,1.2-2.4,0-2.9c-1.2-0.4-8,8-9.7,9.1
		c-1.7,1.1-2.1,2.9-0.8,3.2c1.3,0.3,1.7-0.1,3,0.3c1.3,0.4-1,1.5-1,1.5s0.3,0.7,1.4,0.6c1.1-0.1,1.5,1,1.1,1.8
		c-0.4,0.8-1.3,0.6-1.8,0.1c-0.5-0.5-4.5-3.8-5.5-4.3c-1-0.5-1.2-1.6-0.5-2.2c0.6-0.6,11.2-10.3,12.2-11.9c1-1.7-0.8-2.9-2.1-3.5
		c-1.3-0.6-7.6,7.3-9.4,9.1c-1.8,1.8-3.2,5.2-4.3,5.2c-1.2,0-2.6-1.3-2.6-2.2s2.6-3.6,2.6-3.6c-3,0.3-3.8-0.2-6.6-0.1
		c-2.7,0.1-3.1,1.2-5.2,3.4c-2.1,2.2-3.8,3.6-1.8,5.5c2,1.9,4.9,1.1,8.1,1c3.3-0.1,6.6,2,9.2,4c2.6,2,9.9,7.8,11.9,9.9
		c2,2.1,0,2-1.8,1.6c-1.8-0.4-3.4-2.5-4.4-4.7c-1.1-2.1-3.7-2.2-5.1-3c-1.4-0.7-4.3-4-7.6-4.9c-3.3-0.8-6.9,2.7-5.8,4.3
		c1.1,1.6,2.6,1.5,4.9,2.5c2.2,1.1-0.3,1.8-2.2,2.7c-1.9,1-2.5,0.4-4-0.5c-1.5-1-3.2-2.6-5.1-4.8c-1.9-2.1-2.7-1-5,0.6
		c-2.2,1.6-1.9,3.2-0.6,4.5c1.3,1.4,6.7,5.1,8.2,6.7c1.6,1.6-1.6,2.9-3.7,3.2c-2.1,0.3-3.6-0.5-4.5-1.8s-4.1-2.5-4.1-2.5
		s0.1,1.5,0.1,2.6c0,1.2-0.2,1.7-1.1,3C601,215.8,601.5,216.3,604.4,218.8z"/>
	<path class="st0" d="M303.2,407.5c51,14.1,72.6,12.6,72.6,12.6l-8,37.8l32.2,3.9l32.2-3.9l-8-37.8c0,0,21.6,1.5,72.6-12.6
		c55-15.2,78.2-59,78.2-59c-16.2,2.7-28.2,4-58.7,4.6c-3.4,0.1-7.3,0.1-11.5,0.2c-14.4,9.6-28,14.7-38.7,17.4
		c-16.9,4.3-30.7,4.9-37.4,4.9c-0.5,0-1,0-1.4,0l6.9,29.3l1,4.2l-4.3,0.1l-30.8,1l-0.1,0l-0.1,0l-30.8-1l-4.3-0.1l1-4.2l6.9-29.3
		c-0.4,0-0.9,0-1.4,0c-6.7,0-20.5-0.6-37.4-4.9c-15-3.8-27.8-10.1-38.7-17.4c-4.2-0.1-8.1-0.1-11.5-0.2c-30.5-0.7-42.4-2-58.7-4.6
		C225,348.5,248.2,392.2,303.2,407.5z"/>
	<path class="st0" d="M221.7,423.7c11.9,10.9,34.1,21.5,77.2,30.2c43.1,8.6,76.2,11.3,76.2,11.3l-8.6,39.1l33.5,6.6l33.5-6.6
		l-8.6-39.1c0,0,33.1-2.7,76.2-11.3c43.1-8.6,65.3-19.2,77.2-30.2c10.1-9.2,18.6-22.2,18.6-22.2s-14.2,2.3-64.6,3
		c-5.8,0.1-11.6,0.2-17.2,0.2c-5.4,2.3-11.2,4.4-17.4,6.1c-38.2,10.6-60,12.5-69.2,12.7l7.1,33.5l0.8,3.7l-3.8,0.5l-32.2,3.9
		l-0.4,0.1l-0.4-0.1l-32.2-3.9l-3.8-0.5l0.8-3.7l7.1-33.5c-9.2-0.2-31-2.2-69.2-12.7c-6.2-1.7-12-3.8-17.4-6.1
		c-5.6-0.1-11.3-0.2-17.2-0.2c-50.4-0.7-64.6-3-64.6-3S211.6,414.5,221.7,423.7z"/>
	<path class="st0" d="M374.1,511.2l-9.3,43.4l35.1,7.6l35.1-7.6l-9.3-43.4c0,0,47.4-3.6,94.5-11.9c47.1-8.3,52-10.3,66.3-16.6
		c17.1-7.6,27.2-29.8,27.2-29.8s-16.2,7-55.7,7c-10.9,0-34-0.8-59.3-1.9c-32.9,6.4-59.8,9.4-69.7,10.4l7.8,35.2l0.8,3.5l-3.5,0.7
		l-33.5,6.6l-0.7,0.1l-0.7-0.1l-33.5-6.6l-3.5-0.7l0.8-3.5l7.8-35.2c-9.8-1-36.8-3.9-69.7-10.4c-25.3,1.1-48.5,1.9-59.3,1.9
		c-39.4,0-55.7-7-55.7-7s10.1,22.3,27.2,29.8c14.3,6.3,19.2,8.3,66.3,16.6C326.7,507.6,374.1,511.2,374.1,511.2z"/>
</g>
</svg>
