<?xml version="1.0" encoding="utf-8"?>
<!-- Generator: Adobe Illustrator 22.1.0, SVG Export Plug-In . SVG Version: 6.00 Build 0)  -->
<svg version="1.1" id="图层_1" xmlns="http://www.w3.org/2000/svg" xmlns:xlink="http://www.w3.org/1999/xlink" x="0px" y="0px"
	 viewBox="0 0 800 800" style="enable-background:new 0 0 800 800;" xml:space="preserve">
<style type="text/css">
	.st0{fill:url(#SVGID_1_);}
	.st1{fill:#FFFFFF;}
	.st2{fill:url(#SVGID_2_);}
	.st3{fill:#FCFB00;}
	.st4{fill:#F8FF04;}
</style>
<g>
	<g>
		<radialGradient id="SVGID_1_" cx="400" cy="400" r="350" gradientUnits="userSpaceOnUse">
			<stop  offset="0.4631" style="stop-color:#FFFFFF"/>
			<stop  offset="0.8256" style="stop-color:#0092DE"/>
			<stop  offset="1" style="stop-color:#0072B8"/>
		</radialGradient>
		<circle class="st0" cx="400" cy="400" r="350"/>
		<circle class="st1" cx="400" cy="400" r="254"/>
		<radialGradient id="SVGID_2_" cx="400" cy="400" r="235" gradientUnits="userSpaceOnUse">
			<stop  offset="0.6578" style="stop-color:#DF3C01"/>
			<stop  offset="1" style="stop-color:#B13916"/>
		</radialGradient>
		<circle class="st2" cx="400" cy="400" r="235"/>
		<g>
			<path class="st3" d="M400,527.5c-56.7,0-110.1-11-150.3-31c-40.7-20.3-63.2-47.4-63.2-76.5s22.4-56.2,63.2-76.5
				c40.2-20,93.6-31,150.3-31s110.1,11,150.3,31c40.7,20.3,63.2,47.4,63.2,76.5s-22.4,56.2-63.2,76.5
				C510.1,516.5,456.7,527.5,400,527.5z M400,317.5c-115,0-208.5,46-208.5,102.5S285,522.5,400,522.5c115,0,208.5-46,208.5-102.5
				S515,317.5,400,317.5z"/>
			<path class="st3" d="M400,527.5c-81.9,0-148.5-48.2-148.5-107.5c0-59.3,66.6-107.5,148.5-107.5c81.9,0,148.5,48.2,148.5,107.5
				C548.5,479.3,481.9,527.5,400,527.5z M400,317.5c-79.1,0-143.5,46-143.5,102.5S320.9,522.5,400,522.5s143.5-46,143.5-102.5
				S479.1,317.5,400,317.5z"/>
			<path class="st3" d="M400,527.5c-44.9,0-81.5-48.2-81.5-107.5c0-59.3,36.6-107.5,81.5-107.5s81.5,48.2,81.5,107.5
				C481.5,479.3,444.9,527.5,400,527.5z M400,317.5c-42.2,0-76.5,46-76.5,102.5s34.3,102.5,76.5,102.5c42.2,0,76.5-46,76.5-102.5
				S442.2,317.5,400,317.5z"/>
			<path class="st3" d="M400,527.5c-14.8,0-28.5-11.4-38.7-32.2c-9.9-20.2-15.3-46.9-15.3-75.3c0-28.4,5.4-55.2,15.3-75.3
				c10.2-20.7,23.9-32.2,38.7-32.2c14.8,0,28.5,11.4,38.7,32.2c9.9,20.2,15.3,46.9,15.3,75.3c0,28.4-5.4,55.2-15.3,75.3
				C428.5,516.1,414.8,527.5,400,527.5z M400,317.5c-12.8,0-24.9,10.4-34.2,29.4c-9.6,19.5-14.8,45.5-14.8,73.1
				c0,27.7,5.3,53.6,14.8,73.1c9.3,18.9,21.4,29.4,34.2,29.4c12.8,0,24.9-10.4,34.2-29.4c9.6-19.5,14.8-45.5,14.8-73.1
				c0-27.7-5.3-53.6-14.8-73.1C424.9,327.9,412.8,317.5,400,317.5z"/>
			<path class="st3" d="M540.3,499.1c-0.1-0.1-10.8-13.6-33.3-26.8c-20.8-12.2-56.2-26.8-107-26.8c-97.3,0-141.1,52.5-141.5,53.1
				l-3.9-3.2c0.5-0.6,11.5-14,35-27.6c21.6-12.5,58.3-27.3,110.4-27.3c52,0,88.4,15,109.8,27.6c23.3,13.7,34,27.3,34.5,27.9
				L540.3,499.1z"/>
			<path class="st3" d="M298.6,513.6l-3.3-3.8c1.3-1.1,33-27.9,104-27.9c71.1,0,102,26.8,103.3,28l-3.3,3.7
				c-0.3-0.3-31-26.7-99.9-26.7C330.4,486.8,298.9,513.3,298.6,513.6z"/>
			<rect x="189" y="417.5" class="st3" width="422" height="5"/>
		</g>
		<path class="st4" d="M368.4,483.7c9.4-1.2,19.7-1.8,31-1.8c11.8,0,22.6,0.7,32.2,2l-3.6-94.3L728.3,265L570,280.5l-68.4,40.1
			l-2.1-40.1H400h-99.5l-2.1,40.1L230,280.5L71.7,265L372,389.5L368.4,483.7z M426.5,319l23.2,4.5v15h21.2l-44.4,26V319z
			 M329.1,338.5h21.2v-15l23.2-4.5v45.5L329.1,338.5z"/>
		<g>
			<path class="st1" d="M190.3,233.4l-18.7-15.2l-39-4.6l8.5-10.5l26.1,3.8l-9.3-24.5l8.4-10.4l12.6,37.3l18.7,15.1L190.3,233.4z"/>
			<path class="st1" d="M225.4,196.1l-36.8-43.9l8.9-7.4l36.8,43.9L225.4,196.1z"/>
			<path class="st1" d="M264.9,167.4L241.5,126l-14.8,8.4l-4.8-8.4l39.6-22.4l4.8,8.4l-14.8,8.3l23.4,41.4L264.9,167.4z"/>
			<path class="st1" d="M308.6,145.8l-15.4-55.2l40.9-11.4l2.6,9.3L307,96.9l3.4,12.2l27.7-7.7l2.6,9.3l-27.7,7.7l4.2,15l30.8-8.6
				l2.6,9.3L308.6,145.8z"/>
			<path class="st1" d="M372.9,130.9L372,73.6l11.2-0.2l24.1,37.9l-0.6-38.2l10.7-0.2l0.9,57.3l-11.6,0.2l-23.7-37l0.6,37.3
				L372.9,130.9z"/>
			<path class="st1" d="M474,119.1l2.4-9.3l24.1,6.3l-5.8,22.1c-2.9,1.7-6.9,2.8-11.8,3.3c-4.9,0.6-9.6,0.2-14.2-1
				c-5.8-1.5-10.5-4.1-14.2-7.6c-3.7-3.6-6-7.9-7-13c-1-5.1-0.8-10.3,0.6-15.6c1.5-5.8,4.1-10.6,7.7-14.4c3.6-3.9,8-6.4,13.3-7.5
				c4-0.9,8.7-0.7,14,0.7c6.9,1.8,11.9,4.7,15,8.5c3.1,3.9,4.6,8.5,4.3,13.9l-11.7-0.8c-0.1-2.9-1-5.5-2.7-7.6
				c-1.7-2.1-4.2-3.6-7.4-4.5c-4.9-1.3-9.2-0.7-12.9,1.6c-3.7,2.3-6.3,6.6-7.9,12.7c-1.7,6.6-1.6,11.9,0.5,15.9
				c2.1,4.1,5.5,6.7,10.2,7.9c2.3,0.6,4.8,0.8,7.4,0.5c2.6-0.3,4.9-0.9,6.9-1.8l1.8-7L474,119.1z"/>
			<path class="st1" d="M545.7,173.4l34.7-45.5l31.2,23.8l-5.9,7.7l-22-16.8l-8.2,10.8l19,14.5l-5.9,7.7l-19-14.5l-14.8,19.4
				L545.7,173.4z"/>
			<path class="st1" d="M587,207.7l7.9-7.6l7.6,7.9l-7.9,7.6L587,207.7z"/>
			<path class="st1" d="M648.7,253.4l3,11.4c-6.2,1.9-11.6,2-16.4,0.3c-4.7-1.7-8.7-5.2-12-10.4c-4.1-6.4-5.3-13.1-3.5-20
				s6.4-12.8,14-17.6c8-5.1,15.6-7,22.7-5.7c7.1,1.3,12.8,5.4,17.1,12.1c3.8,5.9,5.1,11.8,3.9,17.7c-0.7,3.5-2.6,7-5.7,10.6
				l-8.5-8.2c2.1-2.2,3.4-4.6,3.7-7.4c0.3-2.7-0.4-5.4-2-8c-2.3-3.6-5.4-5.7-9.4-6.3c-4-0.6-8.9,0.9-14.6,4.6
				c-6.1,3.9-9.8,7.8-10.9,11.6c-1.2,3.8-0.7,7.5,1.6,11c1.7,2.6,3.9,4.3,6.7,5.1C641.2,255.2,644.7,254.9,648.7,253.4z"/>
		</g>
		<g>
			<path class="st1" d="M207.5,646.7l7.2,4c-1.2,2.5-1.5,4.8-1,6.7c0.5,1.9,1.8,3.6,3.9,5.1c2.2,1.5,4.2,2.2,6,2.1
				c1.8-0.2,3.1-0.9,4-2.1c0.6-0.8,0.8-1.7,0.7-2.6c-0.1-0.9-0.6-2-1.5-3.2c-0.6-0.8-2.1-2.6-4.5-5.3c-3.1-3.5-4.9-6.4-5.4-8.8
				c-0.8-3.3-0.2-6.4,1.6-9.1c1.2-1.7,2.8-3,4.9-3.8c2-0.8,4.3-1,6.7-0.5s4.9,1.7,7.5,3.5c4.3,3,6.9,6.2,7.7,9.6
				c0.9,3.4,0.2,6.7-1.8,9.9l-7.1-4.5c0.9-2,1.2-3.7,0.7-5.1c-0.4-1.4-1.6-2.8-3.6-4.2c-2-1.4-3.9-2.1-5.6-2c-1.1,0-2,0.5-2.6,1.4
				c-0.6,0.8-0.7,1.7-0.4,2.8c0.4,1.3,1.9,3.6,4.7,6.7s4.7,5.7,5.7,7.6c1,2,1.5,4,1.4,6.1c-0.1,2.1-0.9,4.2-2.4,6.4
				c-1.4,2-3.2,3.4-5.5,4.4c-2.3,1-4.7,1.2-7.3,0.6c-2.6-0.6-5.3-1.9-8.3-3.9c-4.3-3-6.9-6.3-7.9-9.9
				C204.6,654.7,205.3,650.8,207.5,646.7z"/>
			<path class="st1" d="M243.3,685.9l19.6-36.7l7.4,4l-19.6,36.7L243.3,685.9z"/>
			<path class="st1" d="M268.1,698.6l14.9-38.9l7.6,2.9l6,32l9.9-26l7.3,2.8l-14.9,38.9l-7.9-3l-6-31.3l-9.7,25.3L268.1,698.6z"/>
			<path class="st1" d="M349.1,706.6l7.5,4.1c-2.1,4.2-4.8,7.1-8.1,8.7c-3.3,1.6-7.1,2-11.5,1.1c-5.4-1.1-9.5-3.8-12.3-8.2
				c-2.8-4.4-3.5-9.8-2.2-16.2c1.3-6.8,4.1-11.7,8.4-14.8s9.2-4,15-2.9c5,1,8.8,3.3,11.3,6.8c1.5,2.1,2.4,4.9,2.7,8.3l-8.5,0.3
				c-0.1-2.2-0.7-4.1-2-5.6c-1.3-1.5-3-2.5-5.2-2.9c-3-0.6-5.7,0-8,1.8c-2.3,1.8-4,5.1-4.9,10c-1,5.2-0.8,9,0.6,11.6
				c1.4,2.6,3.6,4.1,6.6,4.7c2.2,0.4,4.2,0.1,6.1-1S347.8,709.5,349.1,706.6z"/>
			<path class="st1" d="M374,725.3l1.4-41.6l30.8,1l-0.2,7l-22.4-0.7l-0.3,9.2l20.9,0.7l-0.2,7l-20.9-0.7l-0.4,11.3l23.2,0.8l-0.2,7
				L374,725.3z"/>
			<path class="st1" d="M469,718.7l-7.8,1.5l-5.7-29.5c-2.3,3.2-5.3,5.9-9,7.9l-1.4-7.1c1.9-1.1,3.9-2.8,5.9-5.1
				c2-2.3,3.3-4.8,3.7-7.5l6.4-1.2L469,718.7z"/>
			<path class="st1" d="M489.1,703.9l7-3.3c0.7,1.4,1.5,2.4,2.5,2.8c1,0.5,2.1,0.5,3.3,0.1c1.6-0.5,2.6-1.7,3.2-3.5
				c0.6-1.8,0.3-5-0.9-9.6c-1.1,2.8-3.1,4.8-6,5.7c-3.1,1.1-6.2,0.8-9.2-0.9c-3.1-1.6-5.2-4.4-6.5-8.2c-1.4-4-1.3-7.6,0.3-10.9
				c1.5-3.3,4.1-5.5,7.8-6.8c4-1.4,7.8-0.9,11.4,1.3c3.6,2.2,6.6,6.9,9,13.9c2.4,7.2,2.9,12.8,1.3,16.9c-1.6,4.1-4.5,6.9-8.8,8.3
				c-3.1,1-5.8,1.1-8.3,0.1C492.8,709,490.7,707,489.1,703.9z M500.6,681.6c-0.8-2.4-2-4.1-3.6-5.1s-3.1-1.2-4.6-0.7
				c-1.4,0.5-2.4,1.4-2.9,2.8c-0.5,1.4-0.4,3.4,0.5,5.9c0.9,2.5,2,4.2,3.4,5.1c1.4,0.9,2.9,1,4.4,0.5c1.5-0.5,2.5-1.5,3.1-3
				C501.4,685.7,501.3,683.8,500.6,681.6z"/>
			<path class="st1" d="M529.3,689.1l6.5-4.2c0.9,1.3,1.8,2.1,2.9,2.5c1,0.3,2.2,0.2,3.3-0.4c1.5-0.7,2.4-2,2.7-3.9
				c0.4-1.9-0.4-5-2.2-9.4c-0.8,3-2.5,5.1-5.2,6.5c-2.9,1.5-6,1.6-9.3,0.4c-3.3-1.2-5.8-3.6-7.6-7.2c-1.9-3.8-2.3-7.4-1.2-10.8
				c1.1-3.4,3.4-6,6.8-7.8c3.8-1.9,7.6-2,11.5-0.3c3.9,1.7,7.5,5.9,10.8,12.6c3.4,6.8,4.6,12.3,3.6,16.6c-1,4.3-3.5,7.4-7.6,9.4
				c-2.9,1.5-5.6,1.9-8.2,1.2C533.6,693.7,531.3,691.9,529.3,689.1z M537.6,665.4c-1.2-2.3-2.6-3.8-4.3-4.6s-3.2-0.8-4.6-0.1
				c-1.3,0.7-2.2,1.7-2.5,3.2c-0.4,1.5,0.1,3.4,1.3,5.8c1.2,2.4,2.6,3.9,4.1,4.6s3,0.6,4.4-0.1c1.4-0.7,2.3-1.8,2.7-3.4
				S538.7,667.5,537.6,665.4z"/>
			<path class="st1" d="M585.2,668.2l-4.7-6.9l-14.1,9.6l-3.9-5.8l0-32l5.5-3.8l14.9,21.8l4.3-2.9l4,5.8l-4.3,2.9l4.7,6.9
				L585.2,668.2z M576.6,655.5l-8-11.7l0.1,17.1L576.6,655.5z"/>
		</g>
	</g>
	<g>
		<g>
			<path class="st4" d="M302.1,554c1.1,0,1.7,0.3,1.8,0.9c0.1,0.6,0.4,1.2,1,1.8c0.6,0.6,1.5,2.4,2.7,5.5c1.2,3.1,1.8,5.6,1.8,7.6
				c0,2-0.6,3.6-1.7,4.9c-1.1,1.3-3.1,4-5.9,8.2c-0.9,1.2-1.7,1.8-2.5,1.8c-0.5,0-0.8-0.2-0.8-0.7c0-0.4,0.6-1.7,1.7-3.8
				c1.2-2.1,2.1-3.7,2.9-4.7c0.8-1,1.4-2.2,1.9-3.6c0.5-1.4,0.7-2.3,0.7-2.9c0-0.6-0.3-0.9-0.8-0.9c-0.2,0-0.4,0-0.6,0.1
				c-0.2,0.1-1.9,1.4-5,4c-3.2,2.6-5.1,4.2-5.9,4.9s-1.9,1.6-3.3,2.5c-1.4,0.9-2.4,1.4-3,1.4c-0.8,0-1.2-0.3-1.2-1
				c0-1.3,1.9-3.2,5.7-5.6c3.4-2.2,6.3-4.2,8.6-6c2.3-1.8,3.7-2.9,4-3.3c0.3-0.4,0.5-0.8,0.5-1.1c0-1-0.4-1.5-1.2-1.5
				c-0.2,0-0.5,0-0.8,0.1c-0.3,0.1-1.6,0.9-4,2.3c-2.4,1.4-4.5,2.8-6.2,4.1c-1.7,1.3-3.6,2.4-5.7,3.2c-2,0.8-3.4,1.2-4.1,1.2
				c-0.7,0-1-0.3-1-0.8c0-0.5,0.8-1.5,2.5-3c1.7-1.5,4-2.7,6.8-3.8c2.9-1.1,5.3-2.3,7.4-3.6c2.1-1.3,3.1-2.2,3.1-2.9
				c0-0.3-0.1-0.5-0.4-0.7c-0.3-0.2-0.5-0.3-0.8-0.3c-0.3,0-1.8,0.5-4.6,1.6c-2.8,1.1-5.2,2.2-7.2,3.3c-2,1.1-4,1.6-6,1.6
				c-0.4,0-0.6-0.1-0.6-0.2c0-0.3,0.7-1.2,2.2-2.5c1.5-1.3,6.1-3.4,13.8-6.1c0.5-0.1,1-0.5,1.6-1.1C300.2,554.3,301,554,302.1,554z
				 M323.2,542.7c0,0.2-0.4,0.6-1.2,1.2c-0.8,0.5-2.1,0.8-3.9,0.8l-2.9-0.1c-0.8,0-1.3,0.4-1.5,1.1c-0.1,0.7-0.4,1.3-0.7,1.9
				c-0.3,0.5-0.4,1-0.4,1.2s0.2,0.5,0.6,0.5c1.3,0.1,2.7,0.4,4.3,0.8c1.6,0.4,2.4,0.8,2.4,1.1c0,0.4-0.5,0.8-1.4,1.3
				c-0.9,0.5-2.2,0.8-3.8,0.8c-1.6,0-3.2-0.1-4.8-0.4c-1.6-0.3-3.1-0.4-4.7-0.4c-5.1,0-10.8,1.1-16.9,3.3c-1.1,0.4-1.9,0.6-2.6,0.6
				c-0.7,0-1.2-0.4-1.6-1.1c-0.4-0.7-0.6-1.3-0.6-1.8c0-0.5,0.4-1.1,1.2-1.8c0.8-0.7,1.6-0.9,2.3-0.8c0.3,0,0.7,0.1,1.2,0.1
				c0.5,0,1.1-0.2,1.8-0.5c0.7-0.3,1.5-0.6,2.6-0.8c1-0.2,1.5-0.8,1.5-1.7c0-0.5-0.2-0.9-0.6-1.3c-0.4-0.4-0.8-0.6-1.4-0.6
				s-1.2,0.1-1.9,0.2c-0.7,0.1-1.7,0.2-2.7,0.2c-1.1,0-2-0.3-2.7-0.8c-0.7-0.5-1.1-1.1-1.1-1.6c0-0.6,0.4-0.9,1.2-0.9
				c0.2,0,0.4,0,0.6,0.1c0.2,0.1,0.7,0.1,1.5,0.1c0.7,0,1.7-0.2,2.9-0.7c1.2-0.4,2.7-0.8,4.4-1c1.8-0.2,3-0.5,3.6-0.7
				c0.6-0.2,1.2-0.5,1.6-0.8c0.5-0.3,0.9-0.7,1.2-1.1c0.3-0.4,0.5-0.7,0.5-0.9v-0.7c0-0.8,0.8-1.2,2.4-1.2c3.7,0,6.2,1.2,7.5,3.6
				c0.3,0.7,1.3,1.1,2.9,1.2c1.6,0.1,3.5,0.3,5.7,0.6C322.1,541.9,323.2,542.3,323.2,542.7z M304.3,548.7c0.9,0,1.8-0.4,2.9-1.1
				c1-0.7,1.5-1.6,1.5-2.5c0-0.9-0.5-1.4-1.5-1.4c-3.7,0-5.9,0.2-6.7,0.5c-0.8,0.4-1.2,1-1.2,2c0,1.5,0.5,2.3,1.5,2.3
				C301.7,548.7,302.9,548.7,304.3,548.7z M311.9,555c0.8,0,2,0.2,3.5,0.7c1.5,0.5,2.3,1.2,2.3,2.2c0,0.6-0.8,1.3-2.3,2.2
				c-1.5,0.9-2.9,1.3-4.3,1.3c-1.3,0-2-0.2-2-0.7c0-0.4,0.2-0.8,0.6-1.1c1.4-1,2-1.7,2-2.1c0-0.4-0.2-0.7-0.5-1
				c-0.4-0.3-0.5-0.6-0.5-1C310.8,555.2,311.2,555,311.9,555z M311.9,563.3c1.5,0,3.3,0.5,5.5,1.6c2.2,1.1,3.3,2,3.3,2.6
				c0,0.5-0.4,1.1-1.3,1.6c-0.9,0.5-1.8,0.8-2.7,0.8c-1.7,0-3.1-0.8-4.3-2.4c-1.2-1.6-1.9-2.6-1.9-3c0-0.4,0.1-0.7,0.4-0.9
				C311.1,563.4,311.5,563.3,311.9,563.3z M360.3,579.4c0,0.5-1.4,1.7-4.3,3.5c-2.8,1.8-5.5,2.7-7.9,2.7c-3.5,0-6.3-1.9-8.1-5.8
				c-0.5-1-1.4-2.3-2.7-3.8c-1.3-1.5-2.1-2.4-2.5-2.6c-0.4-0.2-0.8-0.4-1.2-0.4c-0.5,0-0.9,0.1-1.2,0.4c-4.8,4.1-8.6,6.5-11.3,7.3
				c-2.7,0.8-4.9,1.2-6.6,1.2c-2.7,0-4-1.1-4-3.2c0-0.8,0.2-1.7,0.6-2.9c0.4-1.1,0.8-1.7,1.3-1.7c0.5,0,1.1,0.2,1.8,0.6
				c0.7,0.4,1.5,0.6,2.5,0.6c1,0,2.4-0.3,4.3-1c1.9-0.7,3.7-1.5,5.6-2.4c1.9-0.9,3-1.5,3.2-1.7c0.3-0.2,0.4-0.5,0.4-0.7
				c0-0.3-0.1-0.6-0.4-0.9c-0.3-0.3-1.2-1.1-2.8-2.1c-1.6-1.1-2.9-1.8-3.8-2.3c-1.8-0.7-2.7-1.8-2.7-3.1c0-0.5,0.2-0.9,0.5-1.3
				c0.4-0.4,0.7-0.6,1.1-0.6c0.4,0,0.7,0,1.1,0.1c0.4,0.1,0.8,0.1,1.5,0.1c0.6,0,1.1,0,1.6-0.1c3.5-0.5,6.7-0.8,9.6-0.8
				s4.8,0.1,5.9,0.2c1.1,0.1,1.9,0.2,2.3,0.2c0.5,0,1-0.2,1.6-0.5c0.6-0.4,1.1-0.5,1.6-0.5c0.5,0,1,0.1,1.3,0.3
				c0.4,0.2,0.5,0.5,0.5,0.8c0,1.2-1.1,2.6-3.4,4c-2,1.4-3.7,2.6-5.1,3.6c-1.4,1-2.1,1.6-2.3,1.8c-0.1,0.1-0.2,0.4-0.2,0.7
				c0,0.3,0.5,0.9,1.4,1.7c0.9,0.9,1.8,1.7,2.7,2.7c0.9,0.9,1.9,1.6,3,2.1c1.2,0.5,2.2,0.8,3.2,0.9c1.8,0.2,3.5,0.7,5.2,1.5
				c0.5,0.3,1.3,0.5,2.3,0.7c1,0.2,1.8,0.2,2.3,0.1c0.5-0.1,1-0.1,1.4-0.1C360.1,579,360.3,579.1,360.3,579.4z M352.7,552.8
				c0,0.4-0.3,1.1-1,1.8c-0.7,0.8-1.6,1.2-2.7,1.4c-1.2,0.1-3.8,0.2-7.9,0.2c-1.8,0-2.7-0.6-2.7-1.8c0-1.2,0.9-3.5,2.8-7
				c0.2-0.4,0.4-0.7,0.4-1c0-0.6-0.5-1-1.6-1c-1,0-2.4,0.2-4,0.7c-1.6,0.4-2.6,0.8-3,1.2c-0.4,0.3-0.6,0.8-0.8,1.5
				c-0.4,2.1-1.1,3.7-2.1,4.8c-1,1.1-2,1.8-3,2.1c-1,0.3-2.8,0.5-5.4,0.5c-1,0-1.5-0.2-1.5-0.6c0-0.4,0.4-0.9,1.2-1.6
				c1.9-1.4,3.2-2.7,3.6-4c0.5-1.2,0.7-2.5,0.7-4c0-1.4-0.2-2.4-0.6-3c-0.4-0.6-0.6-1.1-0.6-1.4c0-0.3,0.3-0.6,0.8-0.8
				c0.5-0.2,1.1-0.4,1.8-0.4l1.9,0.1c0.7,0,1.4-0.1,2-0.2c3.4-0.5,6.3-0.8,8.7-0.8c2.4,0,4.1,0.2,5,0.6c1,0.4,1.7,0.6,2.2,0.7
				c0.5,0,1.3,0.1,2.5,0.1c1.2,0,1.8,0.4,1.8,1.3c0,0.5-0.3,1.2-0.8,2.1c-0.5,0.8-1.2,1.5-1.9,2.1c-2.5,2.1-3.7,3.5-3.7,4.3
				c0,0.4,0.3,0.8,1,1c0.6,0.2,2.4,0.4,5.1,0.4C352.2,552,352.7,552.2,352.7,552.8z M334.7,566.5c0.8,0,1.7-0.4,2.7-1.2
				c1-0.8,1.5-1.4,1.5-1.8c0-0.6-1.5-0.9-4.5-0.9c-3,0-4.5,0.3-4.5,0.9c0,0.2,0.4,0.5,1.1,1c0.7,0.5,1.4,0.9,2,1.4
				C333.5,566.3,334.1,566.5,334.7,566.5z"/>
		</g>
		<g>
			<path class="st4" d="M470.3,536.9c0.6,0,1.1,0.3,1.5,0.9c0.4,0.6,0.6,1.2,0.6,2s-0.5,2.2-1.4,4.5c-0.9,2.3-1.6,5.9-2.1,10.9
				c-0.5,5-0.8,9.6-0.8,13.7c0,4.1-0.1,6.9-0.4,8.6c-0.3,1.6-0.5,2.7-0.6,3.3c-0.1,0.6-0.7,0.9-1.7,0.9c-1,0-1.7-0.2-2.1-0.6
				c-0.4-0.4-0.6-1.2-0.6-2.6c0-1.3,0.1-2.9,0.3-4.9l0.4-4.9c0-0.6-0.6-0.9-1.7-0.9c-1.9,0-3.5,0.2-4.6,0.5
				c-1.1,0.4-1.8,1.1-2.2,2.2c-1.1,3.5-2.5,6.5-4.4,9c-1.8,2.5-3,3.7-3.7,3.7c-0.6,0-1.2-0.5-1.6-1.4c-0.4-1-0.6-2-0.6-3.2
				c0-2.7,1-5.5,2.9-8.3c1.9-2.8,3.3-6.1,4.3-10c0.9-3.8,1.4-7.5,1.4-10.9c0-1.6-0.3-3.5-0.8-5.7c-0.5-2.2-0.8-3.7-0.8-4.5
				s0.3-1.5,0.9-2c0.6-0.6,1-0.8,1.4-0.8c0.4,0,0.8,0.1,1.4,0.4c1,0.5,2.3,0.7,3.9,0.6c1.6-0.1,3-0.2,4.2-0.2c1.2,0,2.3,0.1,3.1,0.2
				c0.9,0.1,1.4,0.2,1.8,0.2s0.7-0.1,1-0.3C469.7,537,470,536.9,470.3,536.9z M457.7,562.4l3.8-0.3c1.2,0,1.9-0.2,2.2-0.3
				c0.3-0.2,0.5-0.5,0.6-0.9c0.1-0.5,0.2-1.2,0.2-2.2c0-1-0.1-1.7-0.3-2c-0.2-0.3-0.7-0.5-1.4-0.5c-0.7,0-1.6,0.1-2.6,0.2
				c-1,0.1-1.7,0.3-2.1,0.5c-0.4,0.2-0.6,0.4-0.8,0.6c-0.1,0.2-0.3,0.9-0.4,1.9c-0.1,1-0.2,1.8-0.2,2.2
				C456.7,562.1,457.1,562.4,457.7,562.4z M459,550.2h0.4c0.4,0,1.2-0.1,2.3-0.2c1.2-0.1,2-0.1,2.4-0.2c0.5-0.1,0.8-0.3,1-0.7
				c0.2-0.4,0.3-1.2,0.3-2.4c0-1.2-0.1-2-0.4-2.2c-0.3-0.2-0.9-0.4-2-0.4c-1.1,0-2.2,0.2-3.2,0.5c-1.1,0.3-1.7,0.8-1.8,1.4
				c-0.2,0.6-0.3,1.5-0.3,2.6C457.8,549.6,458.2,550.2,459,550.2z M503.4,555.9c0,0.3,0.3,0.8,0.9,1.4c0.6,0.6,1.5,1.4,2.7,2.3
				c1.2,0.9,2.4,1.6,3.6,2.2c1.2,0.6,2.9,1.1,5.1,1.7c2.3,0.5,4.2,0.9,5.8,1c0.8,0,1.2,0.2,1.2,0.5c0,0.5-1.4,1.4-4.3,2.8
				c-2.9,1.4-5.1,2.1-6.5,2.1c-0.6,0-1.1-0.1-1.4-0.2c-0.3-0.1-0.5-0.2-0.6-0.2c-0.5,0-0.8,0.5-1,1.4c-0.2,0.9-0.5,3.5-0.9,7.8
				c-0.1,1.4-0.4,2.6-1,3.7s-1.2,1.9-2,2.3c-0.8,0.5-2.3,0.7-4.6,0.7c-3.1,0-5.7-0.3-7.6-1c-2-0.6-2.9-1.2-2.9-1.5
				c0-0.4,0.8-0.6,2.4-0.8c2.5-0.1,4.5-0.2,5.9-0.3c1.4,0,2.5-0.3,3.4-0.9c0.8-0.5,1.3-1.1,1.3-1.8c0.4-3.3,0.8-5.3,1.1-6
				c0.3-0.7,0.5-1.2,0.5-1.5c0-0.3-0.6-0.4-1.9-0.5c-1.3-0.1-3.1-0.1-5.6-0.1c-4.3,0-7.1,0.1-8.4,0.4c-3.6,0.7-6,1.1-7.2,1.1
				c-1.1,0-2-0.2-2.6-0.5c-0.6-0.3-0.9-0.7-0.9-1.1c0-0.4,0.6-1,1.8-1.8c1.2-0.8,2.1-1.7,2.8-2.6c0.7-1,1.1-1.7,1.1-2.1
				c0-0.5-0.1-0.7-0.3-0.7c-0.2,0-0.4,0.1-0.6,0.2c-3.5,2.4-6.4,3.5-8.6,3.5c-1.4,0-2.4-0.4-3.1-1.2c-0.7-0.8-1.1-1.3-1.1-1.7
				c0-0.3,0.4-0.5,1.1-0.5l0.9,0.1c1.3,0,3.2-0.6,5.8-1.9c2.6-1.3,4.6-2.5,6.1-3.6c1.4-1.1,2.1-1.8,2.1-2.1s-0.2-0.5-0.6-0.5
				c-0.4,0-1.6,0.3-3.6,1c-2,0.7-3.5,1-4.5,1c-1,0-1.8-0.4-2.3-1.2s-0.8-1.4-0.8-1.9c0-1,0.5-1.4,1.6-1.4l1.1,0.1c0.6,0,2-0.3,4-0.9
				c2-0.6,4.2-1.1,6.6-1.5c2-0.2,3-1,3-2.4c0-0.4-0.2-0.6-0.7-0.6c-0.5,0-1.2,0.1-2.2,0.3c-1,0.2-1.8,0.4-2.4,0.6
				c-3.1,0.9-5.2,1.4-6.2,1.4c-1.1,0-1.9-0.3-2.3-1c-0.5-0.7-0.7-1.3-0.7-1.8s0.2-0.9,0.6-1.3c0.4-0.3,0.8-0.5,1.2-0.5
				c0.4,0,0.7,0,0.9,0.1c0.2,0,0.4,0.1,0.7,0.1c0.3,0,0.6,0,1-0.1c3.2-0.9,6.6-1.4,10.3-1.7c0.9-0.1,1.6-0.5,1.9-1.2
				c0.4-0.6,0.7-1.7,0.9-3.2c0.2-1.5,0.4-2.4,0.6-2.8c0.2-0.4,0.6-0.6,1-0.6c0.5,0,0.8,0.2,1.2,0.5c0.3,0.4,0.5,0.8,0.5,1.4
				c0,0.6,0,1.4,0,2.4s0.2,1.8,0.5,2.2c0.3,0.4,1.1,0.6,2.4,0.6c4.6,0,8.3,0.4,11,1.2c0.9,0.2,1.5,0.4,1.8,0.4
				c0.6,0,0.9,0.3,0.9,0.7s-0.2,0.9-0.5,1.5c-0.3,0.6-1.2,0.9-2.5,0.9c-1.3,0-2.9-0.1-4.7-0.4c-1.8-0.2-3.4-0.4-4.8-0.4
				c-1.4,0-2.3,0.1-2.7,0.3c-0.4,0.2-0.6,0.5-0.6,1s0.2,0.8,0.6,1c0.4,0.1,1.2,0.2,2.3,0.2c3.8,0,7.1,0.3,9.9,0.9
				c0.8,0.2,1.7,0.4,2.7,0.5c1,0.2,1.5,0.7,1.5,1.7c0,1-0.4,1.6-1.3,1.8c-0.9,0.2-1.9,0.4-3,0.4c-1.1,0-2.3-0.1-3.6-0.2
				c-1.3-0.1-2-0.2-2.1-0.2C503.6,555.4,503.4,555.6,503.4,555.9z M494,573.6c1.2,0,2.3,0,3.3,0.1c1,0.1,1.8,0.1,2.3,0.1
				c0.5,0,0.8,0.2,0.8,0.5c0,0.3-0.4,0.9-1.2,1.7c-0.8,0.8-1.8,1.4-3.2,1.8c-1.3,0.4-3.2,0.6-5.7,0.6c-2.5,0-4.4,0.1-5.9,0.3
				c-1.5,0.1-3.3,0.5-5.6,1c-2.3,0.6-3.8,0.8-4.6,0.8c-0.8,0-1.2-0.4-1.4-1.3c-0.2-0.9-0.3-1.5-0.3-2.1s0.2-0.9,0.6-1.3
				c0.4-0.4,0.8-0.6,1.2-0.6c0.5,0,0.9,0.1,1.2,0.2c0.4,0.1,0.7,0.2,1,0.2c0.3,0,0.7-0.1,1.3-0.2c2-0.5,4.5-0.9,7.6-1.3
				C488.4,573.7,491.3,573.6,494,573.6z M489.2,539.2c0,0.2-0.4,0.7-1.2,1.3c-0.8,0.6-2.1,1.2-3.9,1.8c-1.8,0.5-3.2,0.8-4.4,0.8
				c-1.2,0-2.1-0.3-2.6-1c-0.5-0.7-0.8-1.3-0.8-2c0-0.7,0.5-1,1.5-1c1,0,1.8-0.1,2.3-0.4c0.5-0.3,1.3-0.4,2.2-0.4s2.2,0.1,3.8,0.3
				c1.6,0.2,2.5,0.3,2.7,0.4C489.1,539,489.2,539.1,489.2,539.2z M489,566.8c0.2,0,0.9-0.1,2.1-0.3c1.2-0.2,2.5-0.3,3.8-0.4
				c1.7-0.1,2.6-0.9,2.6-2.4c0-0.5-0.2-0.9-0.6-1c-0.4-0.2-1-0.3-1.8-0.3c-0.7,0-1.8,0-3.2,0.1c-1.4,0.1-2.2,0.2-2.6,0.5
				c-0.4,0.3-0.6,0.7-0.8,1.4c-0.2,0.7-0.3,1.3-0.3,1.7C488.2,566.6,488.5,566.8,489,566.8z M499,557.8c0-0.2-0.3-0.7-0.8-1.3
				c-0.5-0.6-1-1-1.4-1.2c-0.4-0.2-1.2-0.3-2.3-0.3c-1.1,0-1.9,0.1-2.4,0.3c-0.5,0.2-1.1,0.7-1.8,1.6c-0.8,0.9-1.2,1.4-1.2,1.5
				c0,0.4,0.5,0.5,1.6,0.4c2-0.2,4.2-0.4,6.3-0.5C498.4,558.3,499,558.1,499,557.8z M511.2,538.3c1.3,0,2.2,0.3,2.7,1
				c0.6,0.7,0.9,1.3,0.9,1.8c0,0.9-1.2,1.3-3.6,1.3c-2.4,0-4.9-0.3-7.3-0.8s-3.7-1.1-3.7-1.6s1-0.8,2.9-0.8c2,0,3.7-0.1,5.2-0.4
				C509.8,538.5,510.8,538.3,511.2,538.3z M506.9,566.2c0-0.2-0.5-0.9-1.4-2.1c-0.9-1.2-1.6-1.8-2.1-1.8c-0.3,0-0.8,0.6-1.5,1.7
				c-0.6,1.1-0.9,1.7-0.9,1.8c0,0.3,0.3,0.6,0.9,0.9c0.6,0.3,1.2,0.4,1.8,0.4c0.6,0,1.3-0.1,2.1-0.2
				C506.5,566.7,506.9,566.5,506.9,566.2z"/>
		</g>
	</g>
</g>
</svg>
