<?xml version="1.0" encoding="utf-8"?>
<!-- Generator: Adobe Illustrator 22.1.0, SVG Export Plug-In . SVG Version: 6.00 Build 0)  -->
<svg version="1.1" id="图层_1" xmlns="http://www.w3.org/2000/svg" xmlns:xlink="http://www.w3.org/1999/xlink" x="0px" y="0px"
	 viewBox="0 0 800 800" style="enable-background:new 0 0 800 800;" xml:space="preserve">
<style type="text/css">
	.st0{fill:#0080C8;}
</style>
<g>
	<path class="st0" d="M249.7,343.5c-40.7,20.3-63.2,47.4-63.2,76.5s22.4,56.2,63.2,76.5c40.2,20,93.6,31,150.3,31s110.1-11,150.3-31
		c40.7-20.3,63.2-47.4,63.2-76.5s-22.4-56.2-63.2-76.5c-1.7-0.9-3.5-1.7-5.3-2.5l183.3-76L570,280.5l-68.4,40.1l-2.1-40.1H400h-99.5
		l-2.1,40.1L230,280.5L71.7,265L255,341C253.2,341.8,251.4,342.7,249.7,343.5z M255.8,494c-38.5-18.1-62.9-43.4-64.3-71.5h60
		c0.6,20.2,9,39.1,23.1,55.1C264.4,485,258.3,491.3,255.8,494z M372,389.5l-1.1,28H351c0.1-12.3,1.3-24.2,3.4-35.3L372,389.5z
		 M361.3,357.4c1.4-3.7,2.9-7.2,4.5-10.5c2.4-4.9,5-9.1,7.7-12.9v30.5L361.3,357.4z M370.7,422.5l-0.8,19.7
		c-6.1,0.7-11.9,1.6-17.5,2.7c-0.9-7.3-1.4-14.8-1.4-22.4H370.7z M368.4,483.7c-2.2,0.3-4.2,0.6-6.3,0.9
		c-4.1-10.4-7.1-22.1-8.9-34.6c5.3-1,10.8-1.9,16.6-2.6L368.4,483.7C368.4,483.7,368.4,483.7,368.4,483.7z M357,485.4
		c-5,0.9-9.6,1.9-14,3c-6.2-9.3-11.2-20.2-14.6-32.1c6.2-2,12.8-3.8,19.8-5.3C350.1,463.3,353.1,475,357,485.4z M346,417.5h-22.5
		c0.3-16,3.3-31.2,8.5-44.6l17.7,7.3C347.4,392,346.2,404.6,346,417.5z M346,422.5c0.1,8,0.6,15.8,1.5,23.4
		c-7.3,1.6-14.1,3.4-20.4,5.4c-2.2-9.1-3.5-18.8-3.7-28.9H346z M323.7,457.8c3.4,11.7,8.2,22.5,14.3,31.8
		c-11.5,3.3-20.6,7.1-27.3,10.5c-10.9-6.2-20.5-13.5-28.5-21.7C292.5,471.5,306.3,464,323.7,457.8z M289.6,467.8
		c-4,2.3-7.7,4.6-11,6.9c-13.5-15.2-21.5-33-22.2-52.2h62c0.2,10.6,1.5,20.8,3.9,30.5C309.1,457.6,298.2,462.9,289.6,467.8z
		 M260.7,496.2c2.9-3,8.6-8.5,17.4-14.9c7.8,8.1,17,15.3,27.5,21.6c-4.7,2.7-7.7,4.9-9.2,6C283.6,505.3,271.6,501,260.7,496.2z
		 M302.7,510.6c2-1.3,4.6-2.9,8.1-4.8c8.7,4.8,18.2,8.9,28.3,12.2C326.4,516.1,314.2,513.6,302.7,510.6z M316.2,503.2
		c6.4-3,14.7-6.2,24.8-9c8.3,11.4,18.4,20.5,29.8,26.2C350.8,517.4,332.3,511.4,316.2,503.2z M346.2,492.8c4-1,8.2-1.9,12.8-2.6
		c0.8,1.8,1.5,3.5,2.4,5.2c4.7,9.6,10.2,17.3,16.2,22.7C365.6,513.1,354.9,504.3,346.2,492.8z M428,389.5l17.5-7.3
		c2.1,11.1,3.3,23,3.4,35.3h-19.9L428,389.5z M507,472.3c3.8,2.2,7.2,4.5,10.4,6.6c-8.1,8.2-17.8,15.5-28.9,21.7
		c-6.5-3.4-15.4-7.3-26.7-10.6c6.1-9.4,11.1-20.2,14.4-32C488.7,462.5,499,467.6,507,472.3z M477.5,453.2c2.4-9.7,3.8-20,4-30.7h62
		c-0.7,19.4-8.9,37.4-22.6,52.7c-3.3-2.3-7-4.7-11.1-7.1C501.4,463.2,490.6,457.8,477.5,453.2z M472.8,451.6
		c-6.3-2.1-13.1-3.9-20.4-5.5c0.9-7.6,1.4-15.5,1.5-23.5h22.5C476.3,432.6,475,442.4,472.8,451.6z M454,417.5
		c-0.1-12.9-1.4-25.5-3.7-37.2l17.7-7.3c5.2,13.4,8.2,28.5,8.5,44.6H454z M451.8,451c7.1,1.6,13.7,3.4,19.8,5.4
		c-3.4,12-8.4,22.9-14.7,32.2c-4.3-1.1-8.9-2.2-13.9-3.1C446.9,475.2,449.9,463.5,451.8,451z M449,422.5c-0.1,7.7-0.6,15.2-1.5,22.5
		c-5.5-1.1-11.4-2-17.5-2.7l-0.8-19.8H449z M446.9,450c-1.9,12.6-4.9,24.4-9,34.8c-2-0.3-4.1-0.6-6.2-0.9l-1.4-36.5
		C436,448,441.6,448.9,446.9,450z M438.7,495.3c0.8-1.6,1.5-3.3,2.3-5c4.5,0.8,8.7,1.7,12.6,2.7c-8.6,11.4-19.3,20-31.1,24.9
		C428.4,512.6,433.9,505,438.7,495.3z M458.7,494.5c10,2.8,18.1,6.1,24.3,9.1c-15.9,8.1-34.1,13.9-53.8,16.8
		C440.4,514.7,450.5,505.7,458.7,494.5z M460.9,518c9.7-3.2,18.9-7.1,27.4-11.7c3.3,1.8,5.8,3.4,7.6,4.6
		C484.8,513.8,473.1,516.2,460.9,518z M502.1,509.3c-1.1-0.9-4-3.1-8.6-5.9c10.6-6.2,20-13.5,27.9-21.6c8.5,6.3,14,11.8,16.8,14.8
		C527.2,501.5,515.1,505.7,502.1,509.3z M543,494.5c-2.4-2.8-8.3-9-18.1-16.4c14.4-16.1,23-35.2,23.6-55.6h60
		C607,450.8,582.2,476.4,543,494.5z M538.8,343.6c41.6,18.3,68.2,44.6,69.7,73.9h-60c-0.8-24.3-12.8-46.7-32.4-64.5L538.8,343.6z
		 M511,355.1c19.6,17.1,31.7,38.8,32.5,62.4h-62c-0.3-16.7-3.5-32.5-8.9-46.5L511,355.1z M470.9,338.5l-12.1,7.1
		c-1.8-2.5-3.7-4.9-5.7-7.1H470.9z M432.2,320.1l10.6,2c2.4,0.5,4.7,1.1,7,1.7v11.1c-6.2-6.3-13.1-11.5-20.6-15.3
		C430.2,319.8,431.2,319.9,432.2,320.1z M426.5,323.8c10.6,5.3,20.2,13.6,28,24.3l-11.4,6.7c-1.3-3.5-2.8-6.9-4.4-10.2
		c-3.6-7.4-7.7-13.6-12.2-18.6V323.8z M426.5,334c2.7,3.7,5.3,8,7.7,12.9c1.6,3.3,3.1,6.8,4.5,10.5l-12.2,7.1V334z M435.9,489.5
		c-0.5,1.2-1.1,2.4-1.7,3.6c-9.3,18.9-21.4,29.4-34.2,29.4c-12.8,0-24.9-10.4-34.2-29.4c-0.6-1.2-1.2-2.5-1.8-3.8
		c10.5-1.6,22.2-2.5,35.3-2.5C413,486.8,425.2,487.9,435.9,489.5z M373.5,326.1c-4.4,4.9-8.5,11.2-12.2,18.6
		c-1.6,3.2-3,6.6-4.4,10.2l-11.4-6.7c7.8-10.6,17.3-19,28-24.3V326.1z M350.2,323.9c2.3-0.6,4.6-1.2,7-1.7l10.6-2c1-0.2,2-0.3,3-0.5
		c-7.4,3.8-14.4,9-20.6,15.3V323.9z M346.9,338.5c-2,2.2-3.9,4.6-5.7,7.1l-12.1-7.1H346.9z M327.5,371c-5.5,14-8.6,29.8-8.9,46.5
		h-62c0.8-23.6,12.9-45.3,32.5-62.4L327.5,371z M284,353c-19.6,17.8-31.6,40.2-32.4,64.5h-60c1.4-29.3,28.1-55.7,69.7-73.9L284,353z
		"/>
	<polygon class="st0" points="132.6,213.7 171.5,218.2 190.3,233.4 197.5,224.4 178.8,209.3 166.3,172.1 157.9,182.4 167.2,206.9 
		141.1,203.1 	"/>
	
		<rect x="205.6" y="141.8" transform="matrix(0.7659 -0.643 0.643 0.7659 -60.0862 175.828)" class="st0" width="11.6" height="57.3"/>
	<polygon class="st0" points="261.6,103.5 222,125.9 226.8,134.3 241.5,126 264.9,167.4 275,161.7 251.6,120.3 266.4,111.9 	"/>
	<polygon class="st0" points="334.1,79.2 293.2,90.6 308.6,145.8 350.5,134.1 348,124.8 317.1,133.4 313,118.4 340.6,110.7 
		338.1,101.4 310.4,109.1 307,96.9 336.7,88.6 	"/>
	<polygon class="st0" points="372,73.6 372.9,130.9 383.6,130.7 383,93.4 406.7,130.4 418.3,130.2 417.4,72.9 406.6,73.1 
		407.3,111.3 383.2,73.5 	"/>
	<path class="st0" d="M467.8,94.2c3.7-2.3,8-2.9,12.9-1.6c3.2,0.8,5.7,2.3,7.4,4.5c1.7,2.1,2.6,4.7,2.7,7.6l11.7,0.8
		c0.2-5.4-1.2-10-4.3-13.9c-3.1-3.9-8.1-6.7-15-8.5c-5.3-1.4-10-1.6-14-0.7c-5.3,1.2-9.7,3.7-13.3,7.5c-3.6,3.9-6.1,8.7-7.7,14.4
		c-1.4,5.3-1.6,10.5-0.6,15.6c1,5.1,3.3,9.4,7,13c3.7,3.6,8.4,6.1,14.2,7.6c4.6,1.2,9.3,1.5,14.2,1c4.9-0.6,8.8-1.7,11.8-3.3
		l5.8-22.1l-24.1-6.3l-2.4,9.3l12.8,3.4l-1.8,7c-2,0.9-4.3,1.5-6.9,1.8c-2.6,0.3-5.1,0.1-7.4-0.5c-4.7-1.2-8.1-3.9-10.2-7.9
		c-2.1-4.1-2.2-9.4-0.5-15.9C461.5,100.8,464.1,96.6,467.8,94.2z"/>
	<polygon class="st0" points="611.7,151.6 580.4,127.8 545.7,173.4 554.9,180.4 569.7,161 588.7,175.5 594.6,167.8 575.6,153.3 
		583.8,142.5 605.8,159.3 	"/>
	<rect x="589.3" y="202.3" transform="matrix(0.7198 -0.6942 0.6942 0.7198 22.4056 471.161)" class="st0" width="11" height="11"/>
	<path class="st0" d="M663.4,243.6l8.5,8.2c3.2-3.6,5.1-7.1,5.7-10.6c1.1-5.9-0.2-11.8-3.9-17.7c-4.3-6.8-10-10.8-17.1-12.1
		c-7.1-1.3-14.7,0.6-22.7,5.7c-7.6,4.8-12.3,10.7-14,17.6s-0.6,13.6,3.5,20c3.3,5.2,7.3,8.6,12,10.4c4.7,1.7,10.2,1.7,16.4-0.3
		l-3-11.4c-4.1,1.4-7.5,1.8-10.3,0.9c-2.8-0.8-5.1-2.5-6.7-5.1c-2.2-3.5-2.8-7.2-1.6-11c1.2-3.8,4.8-7.7,10.9-11.6
		c5.8-3.7,10.6-5.2,14.6-4.6c4,0.6,7.1,2.7,9.4,6.3c1.7,2.6,2.3,5.3,2,8C666.8,239,665.6,241.4,663.4,243.6z"/>
	<path class="st0" d="M243.5,652c2.1-3.2,2.7-6.5,1.8-9.9c-0.9-3.4-3.4-6.6-7.7-9.6c-2.6-1.8-5.1-3-7.5-3.5s-4.6-0.3-6.7,0.5
		c-2,0.8-3.7,2.1-4.9,3.8c-1.9,2.7-2.4,5.7-1.6,9.1c0.6,2.4,2.4,5.3,5.4,8.8c2.4,2.7,3.9,4.5,4.5,5.3c0.9,1.2,1.4,2.3,1.5,3.2
		c0.1,0.9-0.2,1.7-0.7,2.6c-0.9,1.3-2.2,2-4,2.1c-1.8,0.2-3.8-0.5-6-2.1c-2.1-1.5-3.4-3.1-3.9-5.1c-0.5-1.9-0.2-4.1,1-6.7l-7.2-4
		c-2.2,4.1-2.9,8-1.9,11.6c0.9,3.6,3.5,6.9,7.9,9.9c3,2.1,5.7,3.4,8.3,3.9c2.6,0.6,5,0.4,7.3-0.6c2.3-1,4.1-2.4,5.5-4.4
		c1.5-2.2,2.3-4.3,2.4-6.4c0.1-2.1-0.3-4.1-1.4-6.1c-1-2-2.9-4.5-5.7-7.6s-4.4-5.4-4.7-6.7c-0.3-1.1-0.1-2,0.4-2.8
		c0.6-0.9,1.5-1.3,2.6-1.4c1.7,0,3.6,0.6,5.6,2c1.9,1.4,3.1,2.7,3.6,4.2c0.4,1.4,0.2,3.1-0.7,5.1L243.5,652z"/>
	
		<rect x="236" y="665.3" transform="matrix(0.4703 -0.8825 0.8825 0.4703 -454.8199 581.1868)" class="st0" width="41.6" height="8.4"/>
	<polygon class="st0" points="285.1,676 291.1,707.4 298.9,710.4 313.8,671.5 306.5,668.7 296.6,694.7 290.6,662.7 282.9,659.7 
		268.1,698.6 275.4,701.4 	"/>
	<path class="st0" d="M336.1,687.2c2.3-1.8,5-2.4,8-1.8c2.2,0.4,3.9,1.4,5.2,2.9c1.3,1.5,2,3.4,2,5.6l8.5-0.3
		c-0.3-3.5-1.2-6.2-2.7-8.3c-2.5-3.6-6.3-5.8-11.3-6.8c-5.7-1.1-10.7-0.2-15,2.9s-7,8-8.4,14.8c-1.3,6.4-0.5,11.8,2.2,16.2
		c2.8,4.4,6.8,7.1,12.3,8.2c4.4,0.9,8.2,0.5,11.5-1.1c3.3-1.6,6-4.5,8.1-8.7l-7.5-4.1c-1.3,2.9-2.8,4.8-4.7,5.9s-3.9,1.4-6.1,1
		c-3-0.6-5.2-2.2-6.6-4.7c-1.4-2.6-1.6-6.4-0.6-11.6C332.1,692.4,333.7,689,336.1,687.2z"/>
	<polygon class="st0" points="406,691.7 406.2,684.7 375.4,683.7 374,725.3 405.6,726.3 405.9,719.3 382.6,718.5 383,707.2 
		403.9,707.9 404.1,700.9 383.2,700.2 383.5,691 	"/>
	<path class="st0" d="M451,686.4c-2,2.3-4,4-5.9,5.1l1.4,7.1c3.6-2,6.6-4.7,9-7.9l5.7,29.5l7.8-1.5l-8-41l-6.4,1.2
		C454.2,681.6,453,684.1,451,686.4z"/>
	<path class="st0" d="M502,703.5c-1.2,0.4-2.4,0.4-3.3-0.1c-1-0.5-1.8-1.4-2.5-2.8l-7,3.3c1.6,3.1,3.7,5.1,6.2,6.1
		c2.5,1,5.2,1,8.3-0.1c4.3-1.5,7.2-4.2,8.8-8.3c1.6-4.1,1.2-9.7-1.3-16.9c-2.4-7.1-5.4-11.7-9-13.9c-3.6-2.2-7.4-2.6-11.4-1.3
		c-3.7,1.2-6.3,3.5-7.8,6.8c-1.5,3.3-1.6,6.9-0.3,10.9c1.3,3.8,3.5,6.6,6.5,8.2c3.1,1.6,6.1,1.9,9.2,0.9c2.8-1,4.8-2.9,6-5.7
		c1.2,4.6,1.5,7.8,0.9,9.6C504.6,701.8,503.6,703,502,703.5z M500.8,687.1c-0.6,1.5-1.6,2.5-3.1,3c-1.5,0.5-3,0.3-4.4-0.5
		c-1.4-0.8-2.5-2.5-3.4-5.1c-0.9-2.5-1-4.5-0.5-5.9c0.5-1.4,1.5-2.4,2.9-2.8c1.5-0.5,3-0.3,4.6,0.7s2.8,2.7,3.6,5.1
		C501.3,683.8,501.4,685.7,500.8,687.1z"/>
	<path class="st0" d="M542,686.9c-1.2,0.6-2.3,0.7-3.3,0.4c-1-0.3-2-1.1-2.9-2.5l-6.5,4.2c2,2.8,4.4,4.6,6.9,5.2
		c2.6,0.7,5.3,0.2,8.2-1.2c4-2,6.6-5.2,7.6-9.4c1-4.3-0.2-9.8-3.6-16.6c-3.3-6.7-7-10.9-10.8-12.6c-3.9-1.7-7.7-1.6-11.5,0.3
		c-3.5,1.7-5.7,4.3-6.8,7.8c-1.1,3.4-0.7,7,1.2,10.8c1.8,3.6,4.3,6,7.6,7.2c3.3,1.2,6.3,1.1,9.3-0.4c2.7-1.3,4.4-3.5,5.2-6.5
		c1.8,4.4,2.6,7.5,2.2,9.4C544.4,684.9,543.5,686.2,542,686.9z M538.6,670.9c-0.4,1.6-1.3,2.7-2.7,3.4c-1.4,0.7-2.9,0.7-4.4,0.1
		s-2.9-2.2-4.1-4.6c-1.2-2.4-1.6-4.3-1.3-5.8c0.4-1.5,1.2-2.5,2.5-3.2c1.4-0.7,2.9-0.7,4.6,0.1s3.1,2.3,4.3,4.6
		C538.7,667.5,539,669.4,538.6,670.9z"/>
	<path class="st0" d="M587.2,648.2l-4.3,2.9l-14.9-21.8l-5.5,3.8l0,32l3.9,5.8l14.1-9.6l4.7,6.9l6.4-4.4l-4.7-6.9l4.3-2.9
		L587.2,648.2z M568.7,660.9l-0.1-17.1l8,11.7L568.7,660.9z"/>
	<path class="st0" d="M321.6,554c-0.8,0.6-1.2,1.2-1.2,1.6c0,0.4,0.5,0.6,1.5,0.6c2.5,0,4.3-0.2,5.4-0.5c1-0.3,2-1.1,3-2.1
		c1-1.1,1.7-2.7,2.1-4.8c0.1-0.6,0.4-1.1,0.8-1.5c0.4-0.3,1.4-0.7,3-1.2c1.6-0.4,3-0.7,4-0.7c1,0,1.6,0.3,1.6,1c0,0.3-0.1,0.6-0.4,1
		c-1.9,3.4-2.8,5.7-2.8,7c0,1.2,0.9,1.8,2.7,1.8c4.1,0,6.7-0.1,7.9-0.2c1.2-0.1,2.1-0.6,2.7-1.4c0.6-0.8,1-1.4,1-1.8
		c0-0.5-0.5-0.8-1.4-0.8c-2.8,0-4.5-0.1-5.1-0.4c-0.7-0.2-1-0.6-1-1c0-0.8,1.2-2.3,3.7-4.3c0.7-0.6,1.3-1.3,1.9-2.1
		c0.5-0.8,0.8-1.5,0.8-2.1c0-0.9-0.6-1.3-1.8-1.3c-1.2,0-2.1,0-2.5-0.1c-0.5,0-1.2-0.3-2.2-0.7c-1-0.4-2.7-0.6-5-0.6
		c-2.4,0-5.3,0.3-8.7,0.8c-0.7,0.1-1.3,0.2-2,0.2l-1.9-0.1c-0.7,0-1.3,0.1-1.8,0.4c-0.5,0.2-0.8,0.5-0.8,0.8c0,0.3,0.2,0.8,0.6,1.4
		c0.4,0.6,0.6,1.6,0.6,3c0,1.4-0.2,2.7-0.7,4C324.8,551.2,323.6,552.5,321.6,554z"/>
	<path class="st0" d="M316.6,570c0.9,0,1.9-0.3,2.7-0.8c0.9-0.5,1.3-1.1,1.3-1.6c0-0.7-1.1-1.6-3.3-2.6c-2.2-1.1-4-1.6-5.5-1.6
		c-0.4,0-0.8,0.1-1.1,0.3c-0.3,0.2-0.4,0.5-0.4,0.9c0,0.4,0.6,1.4,1.9,3C313.5,569.2,314.9,570,316.6,570z"/>
	<path class="st0" d="M309.9,559.6c-0.4,0.3-0.6,0.7-0.6,1.1c0,0.4,0.7,0.7,2,0.7c1.3,0,2.7-0.4,4.3-1.3c1.5-0.9,2.3-1.6,2.3-2.2
		c0-1-0.8-1.8-2.3-2.2c-1.5-0.5-2.7-0.7-3.5-0.7c-0.7,0-1.1,0.2-1.1,0.5c0,0.3,0.2,0.7,0.5,1c0.4,0.3,0.5,0.7,0.5,1
		C311.9,557.9,311.2,558.6,309.9,559.6z"/>
	<path class="st0" d="M314.5,582c1.7,0,3.9-0.4,6.6-1.2c2.7-0.8,6.4-3.3,11.3-7.3c0.4-0.3,0.8-0.4,1.2-0.4c0.5,0,0.9,0.1,1.2,0.4
		c0.4,0.2,1.2,1.1,2.5,2.6c1.3,1.5,2.2,2.8,2.7,3.8c1.9,3.9,4.6,5.8,8.1,5.8c2.4,0,5-0.9,7.9-2.7c2.8-1.8,4.3-3,4.3-3.5
		c0-0.3-0.2-0.4-0.7-0.4s-0.9,0-1.4,0.1c-0.5,0.1-1.3,0-2.3-0.1c-1-0.2-1.8-0.4-2.3-0.7c-1.7-0.8-3.5-1.3-5.2-1.5
		c-1-0.1-2.1-0.4-3.2-0.9c-1.2-0.5-2.2-1.2-3-2.1c-0.9-0.9-1.8-1.8-2.7-2.7c-0.9-0.9-1.4-1.4-1.4-1.7c0-0.3,0.1-0.5,0.2-0.7
		c0.1-0.1,0.9-0.7,2.3-1.8c1.4-1,3.1-2.2,5.1-3.6c2.2-1.5,3.4-2.8,3.4-4c0-0.3-0.2-0.6-0.5-0.8c-0.4-0.2-0.8-0.3-1.3-0.3
		c-0.5,0-1.1,0.2-1.6,0.5c-0.6,0.4-1.1,0.5-1.6,0.5c-0.5,0-1.3-0.1-2.3-0.2c-1.1-0.1-3.1-0.2-5.9-0.2s-6,0.3-9.6,0.8
		c-0.4,0-0.9,0.1-1.6,0.1c-0.6,0-1.1,0-1.5-0.1c-0.4-0.1-0.7-0.1-1.1-0.1s-0.7,0.2-1.1,0.6c-0.4,0.4-0.5,0.8-0.5,1.3
		c0,1.3,0.9,2.3,2.7,3.1c0.9,0.4,2.2,1.2,3.8,2.3c1.6,1.1,2.5,1.8,2.8,2.1c0.3,0.3,0.4,0.6,0.4,0.9c0,0.3-0.1,0.5-0.4,0.7
		c-0.3,0.2-1.3,0.8-3.2,1.7c-1.9,0.9-3.8,1.7-5.6,2.4c-1.9,0.7-3.3,1-4.3,1c-1,0-1.8-0.2-2.5-0.6c-0.7-0.4-1.3-0.6-1.8-0.6
		c-0.5,0-0.9,0.6-1.3,1.7c-0.4,1.1-0.6,2.1-0.6,2.9C310.6,581,311.9,582,314.5,582z M329.8,563.5c0-0.6,1.5-0.9,4.5-0.9
		c3,0,4.5,0.3,4.5,0.9c0,0.4-0.5,1-1.5,1.8c-1,0.8-1.9,1.2-2.7,1.2c-0.6,0-1.2-0.2-1.8-0.7c-0.6-0.4-1.3-0.9-2-1.4
		C330.1,564,329.8,563.7,329.8,563.5z"/>
	<path class="st0" d="M292.8,549.6c-1,0.2-1.9,0.5-2.6,0.8c-0.7,0.3-1.3,0.5-1.8,0.5c-0.5,0-0.9,0-1.2-0.1c-0.8-0.1-1.5,0.1-2.3,0.8
		c-0.8,0.7-1.2,1.2-1.2,1.8c0,0.5,0.2,1.1,0.6,1.8c0.4,0.7,0.9,1.1,1.6,1.1c0.6,0,1.5-0.2,2.6-0.6c6.1-2.2,11.8-3.3,16.9-3.3
		c1.6,0,3.2,0.1,4.7,0.4c1.6,0.3,3.2,0.4,4.8,0.4c1.6,0,2.9-0.3,3.8-0.8c0.9-0.5,1.4-1,1.4-1.3c0-0.4-0.8-0.7-2.4-1.1
		c-1.6-0.4-3-0.7-4.3-0.8c-0.4,0-0.6-0.2-0.6-0.5s0.1-0.7,0.4-1.2c0.3-0.5,0.5-1.2,0.7-1.9c0.1-0.7,0.6-1.1,1.5-1.1l2.9,0.1
		c1.8,0,3.1-0.3,3.9-0.8c0.8-0.5,1.2-0.9,1.2-1.2c0-0.4-1.1-0.7-3.2-1.1c-2.2-0.3-4-0.5-5.7-0.6c-1.6-0.1-2.6-0.5-2.9-1.2
		c-1.3-2.4-3.8-3.6-7.5-3.6c-1.6,0-2.4,0.4-2.4,1.2v0.7c0,0.2-0.2,0.5-0.5,0.9c-0.3,0.4-0.7,0.7-1.2,1.1c-0.5,0.3-1,0.6-1.6,0.8
		c-0.6,0.2-1.8,0.5-3.6,0.7c-1.8,0.2-3.2,0.6-4.4,1c-1.2,0.4-2.1,0.7-2.9,0.7c-0.7,0-1.2,0-1.5-0.1c-0.2-0.1-0.4-0.1-0.6-0.1
		c-0.8,0-1.2,0.3-1.2,0.9c0,0.6,0.4,1.1,1.1,1.6c0.7,0.5,1.6,0.8,2.7,0.8c1.1,0,2-0.1,2.7-0.2c0.7-0.1,1.4-0.2,1.9-0.2
		c0.5,0,1,0.2,1.4,0.6c0.4,0.4,0.6,0.8,0.6,1.3C294.4,548.8,293.8,549.4,292.8,549.6z M300.5,544.3c0.8-0.4,3.1-0.5,6.7-0.5
		c1,0,1.5,0.5,1.5,1.4c0,0.9-0.5,1.7-1.5,2.5c-1,0.7-2,1.1-2.9,1.1c-1.4,0-2.6,0-3.6,0c-1,0-1.5-0.8-1.5-2.3
		C299.2,545.4,299.6,544.7,300.5,544.3z"/>
	<path class="st0" d="M298.5,562.2c-2.1,1.3-4.5,2.5-7.4,3.6c-2.9,1.1-5.1,2.4-6.8,3.8c-1.7,1.5-2.5,2.5-2.5,3c0,0.5,0.3,0.8,1,0.8
		c0.7,0,2-0.4,4.1-1.2c2-0.8,3.9-1.8,5.7-3.2c1.7-1.3,3.8-2.7,6.2-4.1c2.4-1.4,3.8-2.2,4-2.3c0.3-0.1,0.5-0.1,0.8-0.1
		c0.8,0,1.2,0.5,1.2,1.5c0,0.3-0.2,0.6-0.5,1.1c-0.3,0.4-1.7,1.5-4,3.3c-2.3,1.8-5.2,3.8-8.6,6c-3.8,2.4-5.7,4.3-5.7,5.6
		c0,0.7,0.4,1,1.2,1c0.6,0,1.6-0.5,3-1.4c1.4-0.9,2.5-1.7,3.3-2.5c0.8-0.7,2.8-2.4,5.9-4.9c3.2-2.6,4.8-3.9,5-4
		c0.2-0.1,0.4-0.1,0.6-0.1c0.5,0,0.8,0.3,0.8,0.9c0,0.6-0.2,1.6-0.7,2.9c-0.5,1.4-1.1,2.6-1.9,3.6c-0.8,1-1.8,2.6-2.9,4.7
		c-1.2,2.1-1.7,3.4-1.7,3.8c0,0.4,0.3,0.7,0.8,0.7c0.8,0,1.6-0.6,2.5-1.8c2.8-4.2,4.8-7,5.9-8.2c1.1-1.3,1.7-2.9,1.7-4.9
		c0-2-0.6-4.5-1.8-7.6c-1.2-3.1-2.1-4.9-2.7-5.5c-0.6-0.6-0.9-1.2-1-1.8c-0.1-0.6-0.7-0.9-1.8-0.9c-1.1,0-2,0.3-2.5,0.9
		c-0.6,0.6-1.1,1-1.6,1.1c-7.7,2.7-12.3,4.8-13.8,6.1c-1.5,1.3-2.2,2.2-2.2,2.5c0,0.1,0.2,0.2,0.6,0.2c2,0,4-0.5,6-1.6
		c2-1.1,4.4-2.2,7.2-3.3c2.8-1.1,4.3-1.6,4.6-1.6c0.3,0,0.5,0.1,0.8,0.3c0.3,0.2,0.4,0.4,0.4,0.7
		C301.6,559.9,300.6,560.9,298.5,562.2z"/>
	<path class="st0" d="M511.2,542.4c2.4,0,3.6-0.4,3.6-1.3c0-0.5-0.3-1.1-0.9-1.8c-0.6-0.7-1.5-1-2.7-1c-0.5,0-1.4,0.1-2.9,0.4
		c-1.5,0.3-3.2,0.4-5.2,0.4c-2,0-2.9,0.3-2.9,0.8s1.2,1.1,3.7,1.6S508.8,542.4,511.2,542.4z"/>
	<path class="st0" d="M496.1,577.7c1.3-0.4,2.4-0.9,3.2-1.8c0.8-0.8,1.2-1.4,1.2-1.7c0-0.3-0.3-0.5-0.8-0.5c-0.5,0-1.3,0-2.3-0.1
		c-1-0.1-2.1-0.1-3.3-0.1c-2.7,0-5.5,0.2-8.6,0.5c-3,0.3-5.6,0.7-7.6,1.3c-0.6,0.1-1,0.2-1.3,0.2c-0.3,0-0.6-0.1-1-0.2
		c-0.4-0.1-0.8-0.2-1.2-0.2c-0.5,0-0.9,0.2-1.2,0.6c-0.4,0.4-0.6,0.8-0.6,1.3s0.1,1.2,0.3,2.1c0.2,0.9,0.6,1.3,1.4,1.3
		c0.8,0,2.3-0.3,4.6-0.8c2.3-0.6,4.2-0.9,5.6-1c1.5-0.1,3.4-0.2,5.9-0.3C492.8,578.3,494.7,578.1,496.1,577.7z"/>
	<path class="st0" d="M479.6,543.1c1.2,0,2.7-0.3,4.4-0.8c1.8-0.5,3.1-1.1,3.9-1.8c0.8-0.6,1.2-1.1,1.2-1.3c0-0.1-0.1-0.3-0.3-0.3
		c-0.2-0.1-1.1-0.2-2.7-0.4c-1.6-0.2-2.9-0.3-3.8-0.3s-1.7,0.1-2.2,0.4c-0.5,0.3-1.3,0.4-2.3,0.4c-1,0-1.5,0.3-1.5,1
		c0,0.7,0.3,1.3,0.8,2C477.5,542.8,478.4,543.1,479.6,543.1z"/>
	<path class="st0" d="M447.5,570.2c-1.9,2.8-2.9,5.6-2.9,8.3c0,1.2,0.2,2.3,0.6,3.2c0.4,1,1,1.4,1.6,1.4c0.6,0,1.8-1.2,3.7-3.7
		c1.8-2.5,3.3-5.5,4.4-9c0.3-1.1,1.1-1.8,2.2-2.2c1.1-0.4,2.6-0.5,4.6-0.5c1.1,0,1.7,0.3,1.7,0.9l-0.4,4.9c-0.2,1.9-0.3,3.5-0.3,4.9
		c0,1.3,0.2,2.2,0.6,2.6c0.4,0.4,1.1,0.6,2.1,0.6c1,0,1.6-0.3,1.7-0.9c0.1-0.6,0.3-1.7,0.6-3.3c0.3-1.6,0.4-4.5,0.4-8.6
		c0-4.1,0.3-8.6,0.8-13.7c0.5-5,1.2-8.7,2.1-10.9c0.9-2.3,1.4-3.8,1.4-4.5s-0.2-1.4-0.6-2c-0.4-0.6-0.9-0.9-1.5-0.9
		c-0.3,0-0.6,0.1-1,0.3c-0.4,0.2-0.7,0.3-1,0.3s-0.9-0.1-1.8-0.2c-0.9-0.1-1.9-0.2-3.1-0.2c-1.2,0-2.6,0.1-4.2,0.2
		c-1.6,0.1-2.9-0.1-3.9-0.6c-0.6-0.2-1-0.4-1.4-0.4c-0.4,0-0.8,0.3-1.4,0.8c-0.6,0.6-0.9,1.2-0.9,2s0.3,2.3,0.8,4.5
		c0.5,2.2,0.8,4.1,0.8,5.7c0,3.5-0.5,7.1-1.4,10.9C450.9,564.1,449.4,567.4,447.5,570.2z M458.1,546c0.2-0.6,0.8-1.1,1.8-1.4
		c1.1-0.3,2.1-0.5,3.2-0.5c1.1,0,1.8,0.1,2,0.4c0.3,0.2,0.4,1,0.4,2.2c0,1.2-0.1,2-0.3,2.4c-0.2,0.4-0.6,0.6-1,0.7
		c-0.5,0.1-1.3,0.1-2.4,0.2c-1.2,0.1-2,0.1-2.3,0.2H459c-0.8,0-1.2-0.6-1.2-1.7C457.8,547.4,457.9,546.6,458.1,546z M456.9,559.4
		c0.1-1,0.3-1.6,0.4-1.9c0.1-0.2,0.4-0.5,0.8-0.6c0.4-0.2,1.1-0.4,2.1-0.5c1-0.1,1.9-0.2,2.6-0.2c0.7,0,1.2,0.2,1.4,0.5
		c0.2,0.3,0.3,1,0.3,2c0,1-0.1,1.7-0.2,2.2c-0.1,0.5-0.3,0.8-0.6,0.9c-0.3,0.2-1,0.3-2.2,0.3l-3.8,0.3c-0.7,0-1-0.2-1-0.7
		C456.7,561.2,456.8,560.4,456.9,559.4z"/>
	<path class="st0" d="M483.6,558.8c-1.4,1.1-3.4,2.3-6.1,3.6c-2.6,1.3-4.6,1.9-5.8,1.9l-0.9-0.1c-0.7,0-1.1,0.2-1.1,0.5
		c0,0.3,0.4,0.9,1.1,1.7c0.7,0.8,1.8,1.2,3.1,1.2c2.2,0,5.1-1.2,8.6-3.5c0.2-0.1,0.4-0.2,0.6-0.2c0.2,0,0.3,0.2,0.3,0.7
		c0,0.5-0.4,1.2-1.1,2.1c-0.7,1-1.7,1.8-2.8,2.6c-1.2,0.8-1.8,1.4-1.8,1.8c0,0.4,0.3,0.8,0.9,1.1c0.6,0.3,1.4,0.5,2.6,0.5
		c1.1,0,3.5-0.4,7.2-1.1c1.3-0.3,4.1-0.4,8.4-0.4c2.5,0,4.4,0,5.6,0.1c1.3,0.1,1.9,0.3,1.9,0.5c0,0.3-0.2,0.8-0.5,1.5
		c-0.3,0.7-0.7,2.7-1.1,6c-0.1,0.7-0.5,1.3-1.3,1.8c-0.8,0.5-2,0.8-3.4,0.9c-1.4,0-3.4,0.1-5.9,0.3c-1.6,0.1-2.4,0.4-2.4,0.8
		c0,0.4,1,0.9,2.9,1.5c2,0.6,4.5,1,7.6,1c2.3,0,3.8-0.2,4.6-0.7c0.8-0.5,1.4-1.2,2-2.3s0.9-2.4,1-3.7c0.3-4.3,0.6-6.9,0.9-7.8
		c0.2-0.9,0.6-1.4,1-1.4c0.1,0,0.3,0.1,0.6,0.2c0.3,0.1,0.7,0.2,1.4,0.2c1.5,0,3.7-0.7,6.5-2.1c2.9-1.4,4.3-2.3,4.3-2.8
		c0-0.3-0.4-0.5-1.2-0.5c-1.6-0.1-3.5-0.5-5.8-1c-2.3-0.5-4-1.1-5.1-1.7c-1.2-0.6-2.4-1.3-3.6-2.2c-1.2-0.9-2.1-1.7-2.7-2.3
		c-0.6-0.6-0.9-1.1-0.9-1.4c0-0.3,0.3-0.5,0.9-0.5c0.1,0,0.8,0.1,2.1,0.2c1.3,0.1,2.5,0.2,3.6,0.2c1.1,0,2.1-0.1,3-0.4
		c0.9-0.2,1.3-0.8,1.3-1.8c0-1-0.5-1.5-1.5-1.7c-1-0.2-1.9-0.3-2.7-0.5c-2.8-0.6-6.2-0.9-9.9-0.9c-1.2,0-2-0.1-2.3-0.2
		c-0.4-0.1-0.6-0.5-0.6-1s0.2-0.9,0.6-1c0.4-0.2,1.3-0.3,2.7-0.3c1.4,0,3,0.1,4.8,0.4c1.8,0.2,3.4,0.4,4.7,0.4
		c1.3,0,2.2-0.3,2.5-0.9c0.3-0.6,0.5-1.1,0.5-1.5s-0.3-0.7-0.9-0.7c-0.3,0-0.9-0.2-1.8-0.4c-2.7-0.8-6.4-1.2-11-1.2
		c-1.3,0-2.1-0.2-2.4-0.6c-0.3-0.4-0.5-1.2-0.5-2.2s0-1.9,0-2.4c0-0.6-0.2-1-0.5-1.4c-0.3-0.4-0.7-0.5-1.2-0.5c-0.5,0-0.8,0.2-1,0.6
		c-0.2,0.4-0.4,1.3-0.6,2.8c-0.2,1.5-0.5,2.5-0.9,3.2c-0.4,0.6-1,1-1.9,1.2c-3.6,0.3-7.1,0.9-10.3,1.7c-0.4,0.1-0.7,0.1-1,0.1
		c-0.3,0-0.5,0-0.7-0.1c-0.2,0-0.5-0.1-0.9-0.1c-0.4,0-0.8,0.2-1.2,0.5c-0.4,0.3-0.6,0.8-0.6,1.3s0.2,1.1,0.7,1.8
		c0.5,0.7,1.3,1,2.3,1c1.1,0,3.2-0.5,6.2-1.4c0.6-0.2,1.4-0.4,2.4-0.6c1-0.2,1.8-0.3,2.2-0.3c0.5,0,0.7,0.2,0.7,0.6
		c0,1.3-1,2.1-3,2.4c-2.3,0.4-4.5,0.9-6.6,1.5c-2.1,0.6-3.4,0.9-4,0.9l-1.1-0.1c-1.1,0-1.6,0.5-1.6,1.4c0,0.5,0.3,1.1,0.8,1.9
		c0.5,0.8,1.3,1.2,2.3,1.2c1,0,2.5-0.3,4.5-1c2-0.7,3.2-1,3.6-1c0.4,0,0.6,0.2,0.6,0.5S485,557.7,483.6,558.8z M501.9,563.9
		c0.6-1.1,1.1-1.7,1.5-1.7c0.5,0,1.2,0.6,2.1,1.8c0.9,1.2,1.4,1.9,1.4,2.1c0,0.3-0.4,0.6-1.2,0.7c-0.8,0.1-1.5,0.2-2.1,0.2
		c-0.6,0-1.2-0.1-1.8-0.4c-0.6-0.3-0.9-0.6-0.9-0.9C501,565.6,501.3,565,501.9,563.9z M490.3,557c0.8-0.9,1.4-1.4,1.8-1.6
		c0.5-0.2,1.2-0.3,2.3-0.3c1.1,0,1.9,0.1,2.3,0.3c0.4,0.2,0.9,0.6,1.4,1.2c0.5,0.6,0.8,1,0.8,1.3c0,0.3-0.6,0.5-1.9,0.5
		c-2.2,0.1-4.3,0.3-6.3,0.5c-1.1,0.1-1.6,0-1.6-0.4C489.2,558.3,489.6,557.8,490.3,557z M488.5,564.5c0.2-0.7,0.4-1.2,0.8-1.4
		c0.4-0.3,1.2-0.4,2.6-0.5c1.4-0.1,2.4-0.1,3.2-0.1c0.7,0,1.3,0.1,1.8,0.3c0.4,0.2,0.6,0.5,0.6,1c0,1.5-0.9,2.3-2.6,2.4
		c-1.4,0-2.6,0.2-3.8,0.4c-1.2,0.2-1.9,0.3-2.1,0.3c-0.5,0-0.8-0.2-0.8-0.6C488.2,565.7,488.3,565.2,488.5,564.5z"/>
	<path class="st0" d="M156.8,156.8c31.6-31.6,68.4-56.4,109.3-73.7c42.4-17.9,87.5-27,133.9-27c46.4,0,91.5,9.1,133.9,27
		c41,17.3,77.8,42.1,109.3,73.7c30.6,30.6,54.8,66.1,72,105.5l6.3-0.6C668,137.2,544.2,50,400,50S132,137.2,78.4,261.6l6.3,0.6
		C101.9,222.8,126.2,187.4,156.8,156.8z"/>
	<path class="st0" d="M660,400c0-32.8-6-64.7-17.9-94.9l-5.5,2.3c11.2,28.7,17.4,59.9,17.4,92.6c0,140.3-113.7,254-254,254
		S146,540.3,146,400c0-32.7,6.2-63.9,17.4-92.6l-5.5-2.3C146,335.3,140,367.2,140,400c0,35.1,6.9,69.1,20.4,101.2
		c13.1,31,31.8,58.8,55.7,82.6c23.9,23.9,51.7,42.6,82.6,55.7C330.9,653.1,364.9,660,400,660s69.1-6.9,101.2-20.4
		c31-13.1,58.8-31.8,82.6-55.7c23.9-23.9,42.6-51.7,55.7-82.6C653.1,469.1,660,435.1,660,400z"/>
	<path class="st0" d="M725.3,270.6l-5.6,2.3C735.8,313.3,744,356,744,400c0,46.4-9.1,91.5-27,133.9c-17.3,41-42.1,77.8-73.7,109.3
		s-68.4,56.4-109.3,73.7c-42.4,17.9-87.5,27-133.9,27c-46.4,0-91.5-9.1-133.9-27c-41-17.3-77.8-42.1-109.3-73.7
		S100.4,574.9,83,533.9C65.1,491.5,56,446.4,56,400c0-44,8.2-86.7,24.3-127.1l-5.6-2.3C58.8,310.6,50,354.3,50,400
		c0,193.3,156.7,350,350,350s350-156.7,350-350C750,354.3,741.2,310.6,725.3,270.6z"/>
	<path class="st0" d="M400,146c93.5,0,175.1,50.5,219.2,125.7l6.6-0.6c-11.4-20-25.5-38.4-42-54.9c-23.9-23.9-51.7-42.6-82.6-55.7
		C469.1,146.9,435.1,140,400,140s-69.1,6.9-101.2,20.4c-31,13.1-58.8,31.8-82.6,55.7c-16.5,16.5-30.5,34.9-42,54.9l6.6,0.6
		C224.9,196.5,306.5,146,400,146z"/>
</g>
</svg>
