<?xml version="1.0" encoding="utf-8"?>
<!-- Generator: Adobe Illustrator 22.1.0, SVG Export Plug-In . SVG Version: 6.00 Build 0)  -->
<svg version="1.1" id="图层_1" xmlns="http://www.w3.org/2000/svg" xmlns:xlink="http://www.w3.org/1999/xlink" x="0px" y="0px"
	 viewBox="0 0 800 800" style="enable-background:new 0 0 800 800;" xml:space="preserve">
<style type="text/css">
	.st0{fill:#FFFFFF;}
	.st1{fill:#00469B;}
</style>
<g>
	<g>
		<g>
			<g>
				<circle class="st0" cx="400" cy="400" r="350"/>
				<path class="st1" d="M400,60c45.9,0,90.4,9,132.3,26.7c40.5,17.1,76.8,41.6,108.1,72.9s55.7,67.6,72.9,108.1
					C731,309.6,740,354.1,740,400s-9,90.4-26.7,132.3c-17.1,40.5-41.6,76.8-72.9,108.1s-67.6,55.7-108.1,72.9
					C490.4,731,445.9,740,400,740s-90.4-9-132.3-26.7c-40.5-17.1-76.8-41.6-108.1-72.9s-55.7-67.6-72.9-108.1
					C69,490.4,60,445.9,60,400s9-90.4,26.7-132.3c17.1-40.5,41.6-76.8,72.9-108.1s67.6-55.7,108.1-72.9C309.6,69,354.1,60,400,60
					 M400,50C206.7,50,50,206.7,50,400s156.7,350,350,350s350-156.7,350-350S593.3,50,400,50L400,50z"/>
				<path class="st1" d="M400,87c42.3,0,83.2,8.3,121.8,24.6c37.3,15.8,70.7,38.3,99.5,67.1c28.7,28.7,51.3,62.2,67.1,99.5
					C704.7,316.8,713,357.7,713,400s-8.3,83.2-24.6,121.8c-15.8,37.3-38.3,70.7-67.1,99.5c-28.7,28.7-62.2,51.3-99.5,67.1
					C483.2,704.7,442.3,713,400,713s-83.2-8.3-121.8-24.6c-37.3-15.8-70.7-38.3-99.5-67.1c-28.7-28.7-51.3-62.2-67.1-99.5
					C95.3,483.2,87,442.3,87,400s8.3-83.2,24.6-121.8c15.8-37.3,38.3-70.7,67.1-99.5c28.7-28.7,62.2-51.3,99.5-67.1
					C316.8,95.3,357.7,87,400,87 M400,79C222.7,79,79,222.7,79,400s143.7,321,321,321s321-143.7,321-321S577.3,79,400,79L400,79z"/>
				<g>
					<path class="st1" d="M389.8,150.2c-130.2,4.7-234.9,109.4-239.6,239.6L389.8,150.2z"/>
					<path class="st1" d="M647.7,387.7C642,259.2,538.8,156,410.3,150.3L647.7,387.7z"/>
					<path class="st1" d="M150.3,410.3C156,538.8,259.2,642,387.7,647.7L150.3,410.3z"/>
					<path class="st1" d="M412.4,647.6c126.9-6.7,228.6-108.4,235.3-235.3L412.4,647.6z"/>
				</g>
			</g>
			<g>
				<path class="st1" d="M296,69c0,0-13,17-29,43c0,0,55-3,105,23c0,0,31-3,54,0c0,0,42-22,104-24c0,0-6-19-25-40l-31-11l-42-4
					l-32-3l-34,2l-33,5L296,69z"/>
				<path class="st1" d="M52,396.8c0,0,12.2,17.6,31.9,40.9c0,0,14.1-53.2,54.3-92.8c0,0,6.7-30.4,16.7-51.4c0,0-7.9-46.7,9.3-106.3
					c0,0-19.9-0.2-45.8,11.4l-20,26.1l-16.8,38.7L69,292.9l-8.6,33l-5.4,32.9L52,396.8z"/>
				<path class="st1" d="M289.1,728.9c0,0,20.5-6.1,48.7-17.7c0,0-46.3-29.9-71.4-80.3c0,0-26.8-15.8-43.7-31.7
					c0,0-46.9-6.9-98.2-41.7c0,0-6.3,18.9-3.3,47.1l18.6,27.1l31.6,27.9l24.1,21.2l28.7,18.4l29.6,15.4L289.1,728.9z"/>
				<path class="st1" d="M678.2,607.5c0,0,0.5-21.4-1.8-51.8c0,0-42.7,34.8-98.5,43.1c0,0-23.3,20.6-43.7,31.7c0,0-21,42.5-70,80.5
					c0,0,16,11.8,43.7,17.7l31.5-9.3l36.3-21.5l27.7-16.4l26.3-21.6l23.8-23.4L678.2,607.5z"/>
				<path class="st1" d="M682.2,199.8c0,0-20.2-7.1-49.9-14.3c0,0,19.8,51.4,10.6,107c0,0,12.4,28.6,16.7,51.4
					c0,0,33.9,33.1,55,91.5c0,0,16.2-11.6,30.3-36.1l0.9-32.9l-9.2-41.2l-7-31.4L717.2,262l-15-29.8L682.2,199.8z"/>
			</g>
		</g>
		<path class="st1" d="M254,306c3,0.4,5,5,13,23s38,27,57,26s32-2,37-3s10-3,10,5s-9,21-16,23s-118,2-131-25c-3-6,0-13,8-25
			S247,305.1,254,306z"/>
		<path class="st1" d="M546,306c-3,0.4-5,5-13,23s-38,27-57,26s-32-2-37-3s-10-3-10,5s9,21,16,23s118,2,131-25c3-6,0-13-8-25
			S553,305.1,546,306z"/>
		<path class="st1" d="M521.5,308.5c-48-30.5-103.8-36.2-121.5-36.2s-73.5,5.7-121.5,36.2c-6,4,1.2,13.8,3.8,16.2
			c2.7,2.3,7,3,16.3-4.3c9.3-7.3,37.7-22,51-17.3c13.3,4.7,30.7,19.7,31.7,40.4c1,20.6,1.7,28.6-3,32c-4.7,3.3-16.7,8.7-17.3,16.3
			c-0.7,7.7-10,85.3-11.7,99.3c-1.7,14,3,18,13.3,17.3c10.3-0.7,16.7,1,17-20.7C380,466,380,443,400,443s20,23,20.3,44.7
			c0.3,21.7,6.7,20,17,20.7c10.3,0.7,15-3.3,13.3-17.3c-1.7-14-11-91.7-11.7-99.3c-0.7-7.7-12.7-13-17.3-16.3c-4.7-3.3-4-11.3-3-32
			c1-20.6,18.3-35.7,31.7-40.4c13.3-4.7,41.7,10,51,17.3c9.3,7.3,13.7,6.7,16.3,4.3C520.3,322.3,527.5,312.5,521.5,308.5z"/>
	</g>
	<g>
		<path class="st1" d="M341,569.3h17.1v6.5h-30.8l15.9-19.3c1.6-1.9,2.9-3.6,3.9-5c1.1-1.4,1.9-2.6,2.4-3.5c1.1-1.9,1.7-3.5,1.7-5
			c0-2.1-0.8-3.9-2.3-5.4c-1.5-1.4-3.4-2.2-5.6-2.2c-4.6,0-7.3,2.7-8,8.2h-6.9c1.1-9.7,6-14.5,14.7-14.5c4.2,0,7.7,1.3,10.5,4
			c2.9,2.7,4.3,5.9,4.3,9.9c0,2.5-0.7,4.9-2,7.3c-0.7,1.2-1.7,2.7-3,4.4c-1.3,1.7-2.9,3.7-4.9,6.1L341,569.3z"/>
		<path class="st1" d="M365.4,552.6c0-7.3,1.7-13.1,5.1-17.5c3.1-3.9,6.7-5.9,11.1-5.9c4.3,0,8,2,11.1,5.9
			c3.4,4.4,5.1,10.3,5.1,17.8c0,7.5-1.7,13.4-5.1,17.8c-3.1,3.9-6.7,5.9-11.1,5.9c-4.3,0-8-2-11.1-5.9
			C367.2,566.3,365.4,560.3,365.4,552.6z M372.3,552.6c0,5.1,0.9,9.3,2.6,12.7c1.8,3.3,4,5,6.7,5c2.7,0,5-1.7,6.7-5
			c1.8-3.3,2.7-7.4,2.7-12.5s-0.9-9.2-2.7-12.5c-1.8-3.3-4-4.9-6.7-4.9c-2.7,0-4.9,1.6-6.7,4.9C373.1,543.6,372.3,547.7,372.3,552.6
			z"/>
		<path class="st1" d="M402.5,552.6c0-7.3,1.7-13.1,5.1-17.5c3.1-3.9,6.7-5.9,11.1-5.9c4.3,0,8,2,11.1,5.9
			c3.4,4.4,5.1,10.3,5.1,17.8c0,7.5-1.7,13.4-5.1,17.8c-3.1,3.9-6.7,5.9-11.1,5.9c-4.3,0-8-2-11.1-5.9
			C404.2,566.3,402.5,560.3,402.5,552.6z M409.3,552.6c0,5.1,0.9,9.3,2.6,12.7c1.8,3.3,4,5,6.7,5c2.7,0,5-1.7,6.7-5
			c1.8-3.3,2.7-7.4,2.7-12.5s-0.9-9.2-2.7-12.5c-1.8-3.3-4-4.9-6.7-4.9c-2.7,0-4.9,1.6-6.7,4.9C410.2,543.6,409.3,547.7,409.3,552.6
			z"/>
		<path class="st1" d="M470,536.4h-14.1l-2.3,7.6c0.3,0,0.7-0.1,1-0.1c0.3,0,0.6,0,0.8,0c4.5,0,8.1,1.5,11,4.5
			c2.9,3,4.3,6.8,4.3,11.5c0,4.8-1.6,8.8-4.9,11.9c-3.2,3.1-7.3,4.7-12.3,4.7c-6.1,0-10.9-2.9-14.4-8.6l5.2-4.4
			c1.4,2.5,2.9,4.2,4.4,5.2c1.5,1,3.3,1.5,5.4,1.5c2.8,0,5.1-1,7-2.9c1.9-2,2.8-4.4,2.8-7.3c0-2.9-0.9-5.3-2.8-7.2
			c-1.9-1.9-4.2-2.9-7-2.9c-3.1,0-5.8,1.4-8.1,4.1h-2.3l7.2-24.1h19V536.4z"/>
	</g>
</g>
</svg>
