<?xml version="1.0" encoding="utf-8"?>
<!-- Generator: Adobe Illustrator 22.1.0, SVG Export Plug-In . SVG Version: 6.00 Build 0)  -->
<svg version="1.1" id="图层_1" xmlns="http://www.w3.org/2000/svg" xmlns:xlink="http://www.w3.org/1999/xlink" x="0px" y="0px"
	 viewBox="0 0 800 800" style="enable-background:new 0 0 800 800;" xml:space="preserve">
<style type="text/css">
	.st0{fill:#00469B;}
</style>
<g>
	<path class="st0" d="M400,50C206.7,50,50,206.7,50,400s156.7,350,350,350s350-156.7,350-350S593.3,50,400,50z M668,561.8
		c-15.1,10.4-49.1,30.9-90.1,37c0,0-23.3,20.6-43.7,31.7c0,0-18.8,37.8-62,74.1c-23.5,5.5-47.6,8.4-72.2,8.4c-24,0-47.7-2.7-70.7-8
		c-14.5-11.2-44.4-37.1-62.9-74.2c0,0-26.8-15.8-43.7-31.7c0,0-42.1-6.2-90.2-36.5c-7.9-13-14.9-26.6-20.9-40.7
		c-13-30.8-20.9-63.2-23.6-96.5c6.6-18.1,22-52.7,50.3-80.5c0,0,6.7-30.4,16.7-51.4c0,0-7.1-41.6,6.6-96.3
		c5.4-6.4,11.1-12.5,17.1-18.5c28.5-28.5,61.7-51,98.7-66.7c18.3,0.5,57.8,3.9,94.7,23c0,0,31-3,54,0c0,0,38.1-20,95.4-23.6
		c0.1,0.1,0.3,0.1,0.4,0.2c37.3,15.8,70.7,38.3,99.5,67.1c4.7,4.7,9.3,9.6,13.7,14.6c5.1,16.4,15.1,56.6,8,99.2
		c0,0,12.4,28.6,16.7,51.4c0,0,31,30.3,52.1,84c-2.8,32.4-10.6,64-23.4,94C682.5,535.7,675.7,549,668,561.8z M640.4,159.6
		c11.6,11.6,22.3,24,32.1,37c-7.3-2.3-18.3-5.6-31.9-9.1c-30.9-35-69.3-63.2-112.8-82c-2.6-5.8-7.6-15.7-16.3-26.8
		c7,2.4,14,5.1,20.8,8C572.8,103.8,609.2,128.4,640.4,159.6z M159.6,159.6c31.2-31.2,67.6-55.7,108.1-72.9c7.1-3,14.2-5.7,21.4-8.2
		c-4.6,6.5-11.1,16-18.4,27.6c-42.8,18.9-80.6,46.8-111.2,81.3c-5.9,0.5-16.8,2.1-30.2,6.9C138.5,182.1,148.6,170.5,159.6,159.6z
		 M60.1,407.8c4.9,6.6,12,15.6,20.7,26c4.9,46.6,19.7,90.1,42.3,128.6c-1.3,6-3.1,16.9-2.7,31.1c-13.3-19.1-24.5-39.6-33.7-61.2
		C70,492.8,61.1,451,60.1,407.8z M300.4,725.2c7.5-2.6,18.4-6.4,31.1-11.5c22.1,4.8,45,7.3,68.5,7.3c23.4,0,46.2-2.5,68.2-7.3
		c5.1,3.1,14.9,8.2,28.7,12.3c-31.3,9.3-63.7,14-96.9,14C365.9,740,332.5,735,300.4,725.2z M678.2,595.6c-0.1-7.9-0.4-19.4-1.3-33
		c23.1-39.2,38.1-83.7,42.6-131.3c4.8-4.4,12.6-12.3,20.4-24c-0.9,43.3-9.8,85.4-26.6,125.1C703.8,554.7,692.1,575.9,678.2,595.6z"
		/>
	<path class="st0" d="M150.2,389.8l239.6-239.6C259.6,154.9,154.9,259.6,150.2,389.8z"/>
	<path class="st0" d="M410.3,150.3l237.5,237.5C642,259.2,538.8,156,410.3,150.3z"/>
	<path class="st0" d="M387.7,647.7L150.3,410.3C156,538.8,259.2,642,387.7,647.7z"/>
	<path class="st0" d="M647.6,412.4L412.4,647.6C539.2,640.9,640.9,539.2,647.6,412.4z"/>
	<path class="st0" d="M371,357c0-8-5-6-10-5s-18,2-37,3s-49-8-57-26s-10-22.6-13-23c-7-0.9-14,12-22,24s-11,19-8,25
		c13,27,124,27,131,25S371,365,371,357z"/>
	<path class="st0" d="M576,355c3-6,0-13-8-25s-15-24.9-22-24c-3,0.4-5,5-13,23s-38,27-57,26s-32-2-37-3s-10-3-10,5s9,21,16,23
		S563,382,576,355z"/>
	<path class="st0" d="M420.3,487.7c0.3,21.7,6.7,20,17,20.7c10.3,0.7,15-3.3,13.3-17.3c-1.7-14-11-91.7-11.7-99.3
		c-0.7-7.7-12.7-13-17.3-16.3c-4.7-3.3-4-11.3-3-32c1-20.6,18.3-35.7,31.7-40.4c13.3-4.7,41.7,10,51,17.3c9.3,7.3,13.7,6.7,16.3,4.3
		c2.7-2.3,9.8-12.2,3.8-16.2c-48-30.5-103.8-36.2-121.5-36.2s-73.5,5.7-121.5,36.2c-6,4,1.2,13.8,3.8,16.2c2.7,2.3,7,3,16.3-4.3
		c9.3-7.3,37.7-22,51-17.3c13.3,4.7,30.7,19.7,31.7,40.4c1,20.6,1.7,28.6-3,32c-4.7,3.3-16.7,8.7-17.3,16.3
		c-0.7,7.7-10,85.3-11.7,99.3c-1.7,14,3,18,13.3,17.3c10.3-0.7,16.7,1,17-20.7C380,466,380,443,400,443S420,466,420.3,487.7z"/>
	<path class="st0" d="M353.1,554.8c1.3-1.7,2.3-3.2,3-4.4c1.3-2.4,2-4.8,2-7.3c0-3.9-1.4-7.2-4.3-9.9c-2.8-2.7-6.3-4-10.5-4
		c-8.7,0-13.5,4.8-14.7,14.5h6.9c0.7-5.5,3.3-8.2,8-8.2c2.2,0,4.1,0.7,5.6,2.2c1.5,1.4,2.3,3.2,2.3,5.4c0,1.5-0.6,3.2-1.7,5
		c-0.6,1-1.4,2.1-2.4,3.5c-1.1,1.4-2.4,3.1-3.9,5l-15.9,19.3h30.8v-6.5H341l7.1-8.4C350.2,558.5,351.8,556.5,353.1,554.8z"/>
	<path class="st0" d="M381.6,529.2c-4.3,0-8,2-11.1,5.9c-3.4,4.4-5.1,10.2-5.1,17.5c0,7.7,1.7,13.7,5.1,18.1
		c3.1,3.9,6.8,5.9,11.1,5.9c4.3,0,8-2,11.1-5.9c3.4-4.4,5.1-10.3,5.1-17.8c0-7.5-1.7-13.4-5.1-17.8
		C389.7,531.1,386,529.2,381.6,529.2z M388.4,565.3c-1.8,3.3-4,5-6.7,5c-2.7,0-5-1.7-6.7-5c-1.8-3.4-2.6-7.6-2.6-12.7
		c0-4.9,0.9-9,2.7-12.2c1.8-3.3,4-4.9,6.7-4.9c2.7,0,5,1.6,6.7,4.9c1.8,3.3,2.7,7.5,2.7,12.5C391.1,557.9,390.2,562,388.4,565.3z"/>
	<path class="st0" d="M429.8,570.7c3.4-4.4,5.1-10.3,5.1-17.8c0-7.5-1.7-13.4-5.1-17.8c-3.1-3.9-6.7-5.9-11.1-5.9s-8,2-11.1,5.9
		c-3.4,4.4-5.1,10.2-5.1,17.5c0,7.7,1.7,13.7,5.1,18.1c3.1,3.9,6.8,5.9,11.1,5.9C423.1,576.6,426.7,574.6,429.8,570.7z M412,565.3
		c-1.8-3.4-2.6-7.6-2.6-12.7c0-4.9,0.9-9,2.7-12.2c1.8-3.3,4-4.9,6.7-4.9c2.7,0,5,1.6,6.7,4.9c1.8,3.3,2.7,7.5,2.7,12.5
		c0,5-0.9,9.2-2.7,12.5c-1.8,3.3-4,5-6.7,5C416,570.3,413.7,568.6,412,565.3z"/>
	<path class="st0" d="M454.1,570.3c-2.1,0-3.9-0.5-5.4-1.5c-1.5-1-2.9-2.7-4.4-5.2l-5.2,4.4c3.5,5.7,8.3,8.6,14.4,8.6
		c4.9,0,9-1.6,12.3-4.7c3.2-3.1,4.9-7.1,4.9-11.9c0-4.7-1.4-8.5-4.3-11.5c-2.9-3-6.5-4.5-11-4.5c-0.3,0-0.5,0-0.8,0
		c-0.3,0-0.6,0-1,0.1l2.3-7.6H470v-6.5h-19l-7.2,24.1h2.3c2.3-2.7,4.9-4.1,8.1-4.1c2.8,0,5.1,1,7,2.9c1.9,1.9,2.8,4.3,2.8,7.2
		c0,2.9-0.9,5.3-2.8,7.3C459.2,569.3,456.9,570.3,454.1,570.3z"/>
</g>
</svg>
