<?xml version="1.0" encoding="utf-8"?>
<!-- Generator: Adobe Illustrator 22.1.0, SVG Export Plug-In . SVG Version: 6.00 Build 0)  -->
<svg version="1.1" id="图层_1" xmlns="http://www.w3.org/2000/svg" xmlns:xlink="http://www.w3.org/1999/xlink" x="0px" y="0px"
	 viewBox="0 0 800 800" style="enable-background:new 0 0 800 800;" xml:space="preserve">
<style type="text/css">
	.st0{fill:#D61518;}
</style>
<g>
	<path class="st0" d="M690.9,158.6c0,0-181.3,15.3-290.9-108.6C290.4,173.9,109.1,158.6,109.1,158.6c-9,37.5-37.5,196.5,43.5,363
		S400,750,400,750s166.4-61.9,247.4-228.4S699.9,196.1,690.9,158.6z M633.3,514.6C556.9,671.6,400,730,400,730
		s-156.9-58.4-233.3-215.4s-49.5-306.9-41-342.2c0,0,170.9,14.4,274.3-102.4c103.3,116.8,274.3,102.4,274.3,102.4
		C682.8,207.8,709.6,357.7,633.3,514.6z"/>
	<path class="st0" d="M304.8,398c-21-29.5-46.8-32.5-46.8-32.5c22.5,21.8,18.5,65.2,18.5,65.2C286.8,414.5,304.8,398,304.8,398z"/>
	<path class="st0" d="M355.3,451.7c0.7,34,17.7,38.7,17.7,38.7l-3.7-39.3l-5,17C360.3,465.7,355.3,451.7,355.3,451.7z"/>
	<path class="st0" d="M354.3,541.3c32.7-9.7,29.3-60,29.3-60l-12,15.3c-23.2-11.5-24.7-40.6-24.5-50.7c4.1-0.1,8.4-1.5,10.6-3.7
		c3.5-3.5,22.8-28.5,30.8-27.5c0,0-14-4.5-26.5,3c0,0,11.5-15.8,28.2-17.8c0,0-27.5-6.8-58.8,21.5c0,0,10.5-16.2,23-24.2
		s28.2-10.5,28.2-10.5s-22.2-15.2-51,19.8c-21.4,26.1-20.2,41.2-18.2,47.2c-6.1,5.3-8.8,15.8-8.8,15.8c-4.8-20.5,8.9-55.2,8.9-55.2
		c-34,47.3-17,87.5-17,87.5l1-16.5c2,39.3,21.7,51.3,21.7,51.3c-11.7-18-8.3-51.3-8.3-51.3c12.7,38.7,32.7,37.7,32.7,37.7
		c-13.7-5.3-15.3-32-15.3-32l15.3,23.7h24.7C370.3,527.7,354.3,541.3,354.3,541.3z M313.6,454c0.7,1.8,1.4,2.7,1.4,2.7
		s8-25.2,30-32.8c0,0-4.8,6.5-6.2,8.8s-3.2,9,1.8,11.8c1.2,0.6,2.5,1,4,1.2c-8.9,13.5-1.5,38.5-1.5,38.5
		C310.8,479,313,457.6,313.6,454z M346.7,507.8c0,0-11.3-9.8-12.3-20l16,1.5C350.3,489.3,338.5,496.3,346.7,507.8z M360.5,510.8
		c7.8-9.9,4.2-9.1,3.9-8.5s-7.2,7.3-12.9,1.8s1.5-13.3,1.5-13.3c11,4.7,17,14.5,17,14.5L360.5,510.8z"/>
	<path class="st0" d="M542,365.5c0,0-25.8,3-46.8,32.5c0,0,18,16.5,28.2,32.8C523.5,430.8,519.5,387.2,542,365.5z"/>
	<path class="st0" d="M444.7,451.7c0,0-5,14-9,16.3l-5-17l-3.7,39.3C427,490.3,444,485.7,444.7,451.7z"/>
	<path class="st0" d="M502.3,485.3l1,16.5c0,0,17-40.2-17-87.5c0,0,13.7,34.7,8.9,55.2c0,0-2.7-10.5-8.8-15.8
		c2-6,3.2-21.1-18.2-47.2c-28.8-35-51-19.8-51-19.8s15.8,2.5,28.2,10.5s23,24.2,23,24.2c-31.2-28.2-58.8-21.5-58.8-21.5
		c16.8,2,28.2,17.8,28.2,17.8c-12.5-7.5-26.5-3-26.5-3c8-1,27.2,24,30.8,27.5c2.2,2.2,6.5,3.6,10.6,3.7c0.2,10.2-1.3,39.3-24.5,50.7
		l-12-15.3c0,0-3.3,50.3,29.3,60c0,0-16-13.7-14-26.7h24.7l15.3-23.7c0,0-1.7,26.7-15.3,32c0,0,20,1,32.7-37.7
		c0,0,3.3,33.3-8.3,51.3C480.7,536.7,500.3,524.7,502.3,485.3z M448.5,504.2c-5.7,5.5-12.5-1.2-12.9-1.8s-3.9-1.5,3.9,8.5l-9.5-5.5
		c0,0,6-9.8,17-14.5C447,490.8,454.2,498.7,448.5,504.2z M453.3,507.8c8.2-11.5-3.7-18.5-3.7-18.5l16-1.5
		C464.7,498,453.3,507.8,453.3,507.8z M457,484.2c0,0,7.4-25-1.5-38.5c1.4-0.2,2.8-0.6,4-1.2c5-2.8,3.2-9.5,1.8-11.8
		S455,424,455,424c22,7.5,30,32.8,30,32.8s0.7-0.9,1.4-2.7C487,457.6,489.2,479,457,484.2z"/>
	<path class="st0" d="M545,441.7c0,0-18,2-22.3-3.7c-4.3-5.7-16-21.8-20.7-23.7c0,0,68.7,82.7,5,150.7c0,0,9,0.2,11.5-1
		c0,0-13,16.5-40,29.5c0,0,3.4-8.9,3.7-22.1c3.6-3.3,10.9-11.9,17.8-31.4l0.2,14c0,0,13-12.3,17.3-39.7s4-45.3,4-45.3l-6.5,7.3
		c0,0,2.5-18.2-6-27c0,0,9.7,28.7-6.7,64.7l7-4c0,0-5.7,10.3-5.8,18.5c0,0-2.7-9.5-4-10.8c0,0-5.3,17-7.3,20.8
		c-2,3.8-5.5,13-5.5,13.8l-4-13.2c0,0-10.8,14.7-14.5,19.8c0,0-24.5-14.7-38-21.3l33.5,31.8l-5.3,15.8c0,0,7.5-2.2,22-20l-0.2,4.6
		L454,593.5l-19.1,39.1l0,0c3.4-6.4,6.7-17.7,9.4-37.2H437c0,0,0,20.2-7,31.7l-6.4-7.2v13.6c-1.7,0.9-3.7,1.4-5.9,1.4H400h-17.8
		c-2.2,0-4.2-0.5-5.9-1.4v-13.6L370,627c-7-11.5-7-31.7-7-31.7h-7.3c2.8,19.5,6,30.8,9.4,37.2l0,0L346,593.5l-26.1-23.6l-0.2-4.6
		c14.5,17.8,22,20,22,20l-5.3-15.8l33.5-31.8c-13.5,6.7-38,21.3-38,21.3c-3.7-5.2-14.5-19.8-14.5-19.8l-4,13.2
		c0-0.8-3.5-10-5.5-13.8c-2-3.8-7.3-20.8-7.3-20.8c-1.3,1.3-4,10.8-4,10.8c-0.2-8.2-5.8-18.5-5.8-18.5l7,4
		c-16.3-36-6.7-64.7-6.7-64.7c-8.5,8.8-6,27-6,27l-6.5-7.3c0,0-0.3,18,4,45.3s17.3,39.7,17.3,39.7l0.2-14
		c6.8,19.5,14.2,28.1,17.8,31.4c0.3,13.2,3.7,22.1,3.7,22.1c-27-13-40-29.5-40-29.5c2.5,1.2,11.5,1,11.5,1c-63.7-68,5-150.7,5-150.7
		c-4.7,1.8-16.3,18-20.7,23.7c-4.3,5.7-22.3,3.7-22.3,3.7c7,9,15.7,5,15.7,5C242.3,488,258,542.5,258,542.5
		c1.8-10.8,4.5-11.5,4.5-11.5c1,60,46.5,76.5,46.5,76.5l-5-11.8c7.5,6,20.3,6.2,20.3,6.2c1.1,5.5,14.4,29.8,14.4,29.8
		c-0.2-8.5,2.8-17.2,2.8-17.2c2.2,25.2,14,38.8,14,38.8c-0.2-6.2,3.2-9.8,3.2-9.8l23,23.2l-13.9-28.4l18.1,18l7.2-5.8l6.8,5l6.8-5
		l7.2,5.8l18.1-18l-13.9,28.4l23-23.2c0,0,3.5,3.5,3.2,9.8c0,0,11.8-13.5,14-38.8c0,0,3,8.8,2.8,17.2c0,0,13.3-24.2,14.4-29.8
		c0,0,12.8-0.2,20.3-6.2l-5,11.8c0,0,45.5-16.5,46.5-76.5c0,0,2.8,0.8,4.5,11.5c0,0,15.7-54.5-12.7-95.8
		C529.3,446.7,538,450.7,545,441.7z"/>
	<path class="st0" d="M410.2,566.7c0,0,3.3,0,6.5,0c3.2,0,11-4.6,9-26.1c0,0-6.7,19.8-25.7,19.8s-25.7-19.8-25.7-19.8
		c-2,21.5,5.8,26.1,9,26.1c3.2,0,6.5,0,6.5,0l8.3,7.2v4.7l-9.8,10h-27.7l-13.8-12.7l8.2,18h11.8c1.3,13.5,9.2,21.8,9.2,21.8v-21.8
		h18.5c0-1.2,0.2-2.4,1.6-2.5c2,0,3.9,0,3.9,0s2,0,3.9,0c1.4,0.1,1.6,1.3,1.6,2.5H424v21.8c0,0,7.8-8.3,9.2-21.8H445l8.2-18
		l-13.8,12.7h-27.7l-9.8-10v-4.7L410.2,566.7z"/>
	<path class="st0" d="M258,362c39.5,10.5,51,30.2,51,30.2l10.8-9c-10,14.8-8.5,23.8-8.5,23.8c9.5-17.8,27.5-32,27.5-32
		C310.5,356.5,258,362,258,362z"/>
	<path class="st0" d="M333,393c17.3-12.1,43.4-16.5,55.8-18c3.9-0.5,6.9-3.8,6.9-7.8v-5.5C350,361.7,333,393,333,393z"/>
	<path class="st0" d="M461.2,375c0,0,18,14.2,27.5,32c0,0,1.5-9-8.5-23.8l10.8,9c0,0,11.5-19.8,51-30.2
		C542,362,489.5,356.5,461.2,375z"/>
	<path class="st0" d="M467,393c0,0-17-31.3-62.7-31.3v5.5c0,4,3,7.3,6.9,7.8C423.6,376.5,449.7,380.9,467,393z"/>
	<path class="st0" d="M400,414.8c-11.2,22.9-32.9,21.9-32.9,21.9c24.8,5.1,32.9-4.5,32.9-4.5s8.1,9.6,32.9,4.5
		C432.9,436.6,411.2,437.6,400,414.8z"/>
	<path class="st0" d="M396.8,446.2l3.2,6.6l3.2-6.6c0,0,1.3,5.3,13.8,3.4c0,0-10.6-4.5-12-11.2c0,0-2,1.7-2.7,2.2
		c-0.7,0.6-1.5,0.7-2.3,0.7s-1.7-0.1-2.3-0.7c-0.7-0.6-2.7-2.2-2.7-2.2c-1.4,6.8-12,11.2-12,11.2
		C395.5,451.6,396.8,446.2,396.8,446.2z"/>
	<path class="st0" d="M373.8,470.8c23.3,5.2,26.2-3.7,26.2-3.7s2.9,8.8,26.2,3.7c0,0-17.8,0.6-26.2-16.8
		C391.6,471.4,373.8,470.8,373.8,470.8z"/>
	<path class="st0" d="M400.5,181.8c15,0,27.2-12.2,27.2-27.2s-12.2-27.2-27.2-27.2s-27.2,12.2-27.2,27.2S385.5,181.8,400.5,181.8z
		 M411.1,178c1.8-0.8,3.5-1.9,5.1-3.1C414.6,176.1,412.9,177.1,411.1,178z M416.3,174.8c0.4-0.3,0.7-0.6,1.1-0.9
		C417,174.3,416.6,174.6,416.3,174.8z M417.4,173.9c0.3-0.3,0.7-0.6,1-0.9C418.1,173.3,417.8,173.6,417.4,173.9z M401.9,128.8
		c-0.5,0-0.9,0-1.4,0c-0.5,0-1,0-1.5,0c0.5,0,1,0,1.5,0C401,128.8,401.4,128.8,401.9,128.8z M405.9,129.3c-0.9-0.2-1.7-0.3-2.6-0.4
		C404.2,129,405,129.1,405.9,129.3z M403.2,128.9c-0.4,0-0.8-0.1-1.2-0.1C402.4,128.8,402.8,128.9,403.2,128.9z M398.6,128.8
		c-0.4,0-0.7,0.1-1.1,0.1C397.9,128.9,398.2,128.9,398.6,128.8z M397.1,129c-0.4,0.1-0.8,0.1-1.1,0.2
		C396.3,129.1,396.7,129,397.1,129z M395.6,129.2c-0.5,0.1-0.9,0.2-1.4,0.3C394.7,129.4,395.2,129.3,395.6,129.2z M374.8,152.4
		l3.6,5.9l8.1-8.8l-1.4-10.9l-6.5,2.1c-1.1,1.7-2,3.6-2.6,5.5c2.8-8.2,9.6-14.6,18.1-16.7l-4.2,5.8l10,4.7l10.8-5.1l-5-5.6
		c7.1,1.5,13.1,6,16.7,12l-6.7-2.2l-1.4,10.9l8.1,8.8l3.6-6c0-0.5-0.1-1-0.1-1.5c0.1,1,0.2,2.1,0.2,3.1c0,7.2-3,13.7-7.8,18.4
		c0.7-0.7,1.4-1.4,2-2.2l-0.3-7.3l-10.7,2.5l-5.3,10.7l7,1.2c-3.2,1.5-6.8,2.3-10.6,2.3c-6,0-11.5-2.1-15.9-5.5
		c1.6,1.3,3.4,2.3,5.2,3.2l6.8-1.2l-5.3-10.7l-10.7-2.5l-0.3,6.9c1.3,1.6,2.7,3.1,4.3,4.3c-6-4.7-9.8-12-9.8-20.2
		C374.8,153.8,374.8,153.1,374.8,152.4z M374.8,152.4c0.2-2.1,0.6-4.2,1.3-6.1C375.4,148.2,375,150.3,374.8,152.4z M422.6,141.4
		c0.2,0.4,0.5,0.8,0.7,1.2C423.1,142.2,422.9,141.8,422.6,141.4z M423.4,142.8c0.2,0.4,0.4,0.8,0.6,1.1
		C423.8,143.5,423.6,143.1,423.4,142.8z M424,144.1c0.2,0.4,0.4,0.8,0.5,1.3C424.4,144.9,424.2,144.5,424,144.1z M424.6,145.4
		c0.5,1.4,0.9,2.8,1.2,4.3C425.5,148.2,425.1,146.8,424.6,145.4z M425.8,149.8c0.1,0.5,0.2,0.9,0.2,1.4
		C426,150.8,425.9,150.3,425.8,149.8z"/>
	<polygon class="st0" points="392.3,165.1 400,159.5 407.7,165.1 404.8,156 412.5,150.4 403,150.4 400,141.3 397,150.4 387.5,150.4 
		395.2,156 	"/>
	<circle class="st0" cx="357.1" cy="210.1" r="3.1"/>
	<circle class="st0" cx="444.1" cy="210.1" r="3.1"/>
	<path class="st0" d="M373.9,204.7c-0.8,0.7-2,1.3-3.6,1.8v3.7c1-0.3,1.9-0.6,2.6-1c0.7-0.3,1.4-0.8,2.1-1.4v10.8h4.6v-16.5h-3.7
		C375.4,203.2,374.7,204,373.9,204.7z"/>
	<path class="st0" d="M386,204.8c-0.5,0.9-0.8,1.8-0.8,2.9c0,1.6,0.5,2.8,1.5,3.9c1,1,2.2,1.5,3.6,1.5c0.7,0,1.4-0.1,1.9-0.4
		c0.6-0.3,1.1-0.7,1.6-1.2c-0.1,1.7-0.4,2.8-0.7,3.4c-0.4,0.7-1,1.1-1.7,1.1c-0.4,0-0.7-0.1-1-0.4c-0.3-0.3-0.5-0.7-0.6-1.3
		l-4.4,0.6c0.3,0.8,0.6,1.6,1.1,2.1c0.5,0.6,1.1,1,1.8,1.3c0.7,0.3,1.7,0.4,3,0.4c2.1,0,3.8-0.7,5-2c1.2-1.3,1.8-3.4,1.8-6.3
		c0-2-0.3-3.5-0.9-4.7s-1.3-2.1-2.3-2.6c-1-0.5-2.2-0.8-3.8-0.8c-1.3,0-2.4,0.2-3.3,0.7C387.2,203.3,386.5,203.9,386,204.8z
		 M390,205.6c0.4-0.4,0.9-0.7,1.5-0.7c0.6,0,1.2,0.2,1.6,0.7c0.4,0.5,0.7,1.2,0.7,2c0,0.8-0.2,1.5-0.6,2c-0.4,0.5-0.9,0.7-1.6,0.7
		c-0.6,0-1.1-0.2-1.5-0.7c-0.4-0.5-0.6-1.2-0.6-2C389.4,206.7,389.6,206,390,205.6z"/>
	<path class="st0" d="M407.4,215.8c-0.6,0-1-0.2-1.4-0.6c-0.4-0.4-0.7-0.9-0.8-1.6l-4.5,0.5c0.2,0.7,0.5,1.4,0.8,1.9
		c0.3,0.5,0.8,0.9,1.3,1.3c0.5,0.4,1.2,0.7,1.9,0.9s1.7,0.3,2.7,0.3c1.5,0,2.7-0.3,3.6-0.8c0.9-0.5,1.7-1.2,2.2-2.2
		c0.5-1,0.8-1.9,0.8-3c0-1.5-0.5-2.7-1.5-3.6c-1-1-2.3-1.4-3.9-1.4c-0.5,0-0.9,0.1-1.4,0.2c-0.5,0.1-1,0.3-1.5,0.5l0.4-2.4h7.1v-3.5
		h-10.5l-1.4,8.6l3.8,0.5c0.4-0.4,0.7-0.7,1-0.8c0.4-0.2,0.8-0.3,1.2-0.3c0.7,0,1.2,0.2,1.6,0.7c0.4,0.4,0.6,1.1,0.6,2.1
		c0,0.9-0.2,1.6-0.6,2.1S408.1,215.8,407.4,215.8z"/>
	<path class="st0" d="M422.9,215.8c-0.6,0-1-0.2-1.4-0.6c-0.4-0.4-0.7-0.9-0.8-1.6l-4.5,0.5c0.2,0.7,0.5,1.4,0.8,1.9
		s0.8,0.9,1.3,1.3c0.5,0.4,1.2,0.7,1.9,0.9c0.8,0.2,1.7,0.3,2.7,0.3c1.5,0,2.7-0.3,3.6-0.8c0.9-0.5,1.7-1.2,2.2-2.2
		c0.5-1,0.8-1.9,0.8-3c0-1.5-0.5-2.7-1.5-3.6c-1-1-2.3-1.4-3.9-1.4c-0.5,0-0.9,0.1-1.4,0.2c-0.5,0.1-1,0.3-1.5,0.5l0.4-2.4h7.1v-3.5
		h-10.5l-1.4,8.6l3.8,0.5c0.4-0.4,0.7-0.7,1-0.8c0.4-0.2,0.8-0.3,1.2-0.3c0.7,0,1.2,0.2,1.6,0.7c0.4,0.4,0.6,1.1,0.6,2.1
		c0,0.9-0.2,1.6-0.6,2.1S423.5,215.8,422.9,215.8z"/>
	<polygon class="st0" points="190.3,314.5 210.7,314.5 210.7,285.7 236.3,238 214.7,238 200.3,267.3 187.3,238 164.7,238 190.3,286 
			"/>
	<path class="st0" d="M282,314h19.3l-24.7-76h-21.3L231,314.5h19l2.7-10.5h26.6L282,314z M256,291l9.7-38l10.2,38H256z"/>
	<path class="st0" d="M538.9,238h-21.3l-24.3,76.5h19l2.7-10.5h26.6l2.7,10h19.3L538.9,238z M518.2,291l9.7-38l10.2,38H518.2z"/>
	<polygon class="st0" points="310.3,238 310.3,314.5 328.3,314.5 328.3,265 356.7,314.5 376,314.5 376,238 357.1,238 357.1,286.7 
		329.3,238 	"/>
	<polygon class="st0" points="619.4,286.7 591.6,238 572.6,238 572.6,314.5 590.6,314.5 590.6,265 619,314.5 638.3,314.5 638.3,238 
		619.4,238 	"/>
	<path class="st0" d="M390,314.5c0,0,29.7,0,42,0s20.3-9.5,20.3-22.2s-10-18-14.3-18.3c0,0,11.7-5.3,11.7-17c0-11.7-8.7-19-19.7-19
		s-40,0-40,0V314.5z M408.7,253h14.7c4.6,0,8.3,3.7,8.3,8.3s-3.7,8.3-8.3,8.3h-14.7V253z M408.7,280.7h17c5.2,0,9.3,4.2,9.3,9.3
		s-4.2,9.3-9.3,9.3h-17V280.7z"/>
	<rect x="464.3" y="238" class="st0" width="19.7" height="76.5"/>
	<path class="st0" d="M210.3,370c0.2-11.7-6-16.3-7.7-16.5c-1.7-0.2-5.5-1.7-7.2-4.2s-4.2-4.7-8.5-4.7c0,0-6.2,0-6.8,2.3
		c-0.7,2.3-2.3,5.2-4,6.5c-1.7,1.3-11.5,5.3-11.5,15.2c0,9.8,8.3,21,21.7,21C199.7,389.7,210.2,381.7,210.3,370z M177.8,367.8
		c0-4.5,7.5-7.8,9.3-7.8c3.8,0,9.2,3,9,7.7c-0.2,4.7-4.8,9.3-9,9.3C183,377,177.8,372.3,177.8,367.8z"/>
	<path class="st0" d="M231.8,337.7c-7.2-3.3-13.3-1.1-13.3,1.3c0,3.5,3,4.3,5.5,5.3s3.5,2,3.5,5.5s-4,6.8-6.7,6.8c-2.7,0-7,0-7,0
		c-4.5,1.5,0,8,2.8,8c2.8,0,9,0,9,0v8.8h-12c-6.3,4.5,1.7,8.7,3.3,8.7s8.7,0,8.7,0v8.8c-2.3,2.7-25.5,6-32.2,8.2
		c-6.7,2.2-11.2,7.3-10,9.8s16.3,14.5,19.3,15.5s16.3,2.2,26.2-1.2s9.2-7.8,4.8-13c-4.3-5.2-13.3-1.3-17.3,0.2s-9.5,0.7-9.5,0.7
		l-9.2-6.7c2.5-6,23.7-6.7,32.7-7.7s8.7-4.7,8.7-8.2s0.3-28.2,0-30.2c-0.3-2-2.8-2.8-3.3-5.3s3.3-3.7,3.7-6
		C239.8,344.8,239,341,231.8,337.7z"/>
	<path class="st0" d="M603.5,385.8c0.1-2.4-0.9-18.6-0.9-19.4s-1.9-6-1.5-7.1s2.8-2.4,3.2-4.1s-0.6-8.8-8.9-10.1s-11,1.6-10.9,3.2
		s4.6,5.9,6.8,6.5c0,0,0,17.9,0,19.8s-0.6,5.5-4.4,5.5s-6.5,0-8.2,0s-4.4-1.4-4.5-3.2s0-3.2,0-4.1s2.2-3,6.2-3.1s6.8,0,7.8-0.6
		s1.6-2.5,1.6-4.1s0-5.5-3.4-5.8s-9.6,0-10.6,0s-3.2-3.6-1-4.8s0.8-7.2-5.2-7.6s-11.2-0.9-11.9,2.4c-0.5,2.5,1.6,5,3.5,5.2
		s2.8,2.9,2.6,7.1s0.1,12.5-0.2,15.4s-1.9,14.2,1.2,14.8s35-0.8,36.8-2S603.4,388.1,603.5,385.8z"/>
	<path class="st0" d="M627.6,350.4c2-1.8,3.6-3.2,0.5-8.6s-10.7-6.2-14-5.8c-4.8,0.6-4,4.2-3.9,5.2s7.6,5.9,7.6,10.4
		s-5.8,5.6-5.8,5.6l-6.6,0.4c-3.8,1.8,0.2,7.9,2.2,7.9s7.6,0,7.6,0c8.1,3.9,0.4,8.6-5.2,9s-5.5,1.8-5.1,3.9s2.2,4.9,4.1,4.9
		s7.4,0,7.4,0v9c-37.8,2.8-42.1,11.5-42.1,11.5s19.2,21.6,21,21.6s9.9,0.4,16.5,0s15-5.9,13.9-12s-8-7.4-12-6.1s-13,3.4-18.8,1.8
		s-6.2-8.1-6.2-8.1c8-2.1,27.2-4.8,34.1-4.8s6.9-3.8,7-6.2c0.1-2.5,0.2-28.5-1.4-31.5C625.5,354.2,625.6,352.1,627.6,350.4z"/>
	<path class="st0" d="M313,181.8l14.2,10.2h2l5.5-4.2l6.2,4.2h19.8l20.7-14.3c-2.8-2.3-5.1-5.1-7-8.2l-31.1,21.2L318,175l-27.7,17
		h9.2L313,181.8z"/>
	<path class="st0" d="M389.7,182.5l0.3,0.3l0.1-0.1C390,182.6,389.8,182.5,389.7,182.5z"/>
	<path class="st0" d="M421.5,175.9l23.7,16.1h28l16.8-11.2l16.8,11.2h4.6l-30.7-18l-28,17.3l-27.2-20.3
		C424.4,172.8,423,174.4,421.5,175.9z"/>
</g>
</svg>
