<?xml version="1.0" encoding="utf-8"?>
<!-- Generator: Adobe Illustrator 22.1.0, SVG Export Plug-In . SVG Version: 6.00 Build 0)  -->
<svg version="1.1" id="图层_1" xmlns="http://www.w3.org/2000/svg" xmlns:xlink="http://www.w3.org/1999/xlink" x="0px" y="0px"
	 viewBox="0 0 800 800" style="enable-background:new 0 0 800 800;" xml:space="preserve">
<style type="text/css">
	.st0{fill:#261677;}
	.st1{fill:#EB6DA5;}
	.st2{fill:#FFFFFF;}
</style>
<g>
	<g>
		<g>
			<g>
				<path class="st0" d="M689,208c-141-77-289-70-289-70s-148-7-289,70c0,0-23,398,289,542C712,606,689,208,689,208z"/>
				<path class="st0" d="M690.5,128.8l-44.8,16.8l-31-55l-40.5,23.2l-36.8-43l-45.2,24.5L456.8,50L400,94.8L343.2,50l-35.5,45.2
					l-45.2-24.5l-36.8,43l-40.5-23.2l-31,55l-44.8-16.8l-2.1,63C259.8,106.5,400,113.2,400,113.2s140.2-6.8,292.6,78.5L690.5,128.8z
					"/>
			</g>
			<path class="st1" d="M400,241c0,0-145-4-274,63c0,0,21,319,274,433c253-114,274-433,274-433C545,237,400,241,400,241z"/>
		</g>
		<path class="st2" d="M518.7,358c0,0,98-17.3,80.3-76c0,0-12.8,26-136.8,64c0,0,5.8,98-62.2,100c-68-2-62.2-100-62.2-100
			C213.8,308,201,282,201,282c-17.7,58.7,80.3,76,80.3,76c-58,2.3-78.3-7.3-78.3-7.3c-3.7,64.7,90.7,39,90.7,39
			c-39.7,30.7-77,23.7-77,23.7c9,55,76.3,13.3,76.3,13.3c-34,32-49.3,36.7-49.3,36.7c23.3,45.3,71-20,71-20
			c-4.7,11-39.7,57.3-39.7,57.3c4.3,5.3,6.7,10,18.3,7.7c26.3-7.3,47.7-63.7,47.7-63.7c-6.3,32-29.8,73-29.8,73
			c7.3,8.2,16.7,7.5,24.2,0.7c17.2-16.7,21.3-51.3,21.3-51.3c0.2,17.7-11.8,56.8-11.8,56.8c15.2,15.3,36.2-47,36.2-47
			c-0.7,9.3-8.8,31-15.5,44.2c-4.8,9.5-6.4,11.3-6.9,11.5c2.2,0.3,7.8,2.8,7.8,2.8l-7.7,15.3c-8.7,1.3-9.2-8.8-14.7-7.8
			s-4.3,12-4.3,12c5.7-10.2,8.8-2.8,8.8-2.8c-14,3.3-7.5,22.2-7.5,22.2c2.8-21,9.7-13.5,9.7-13.5c-11.5,12.3-0.8,22-0.8,22
			c-0.3-11.5,1.7-15.3,6-17.7c4.3-2.3,8.3-0.2,10.2,3.3s1.5,8.5,1.5,8.5c6.2-14.8-2.2-20.6-2.2-20.6l7.2-15l1.2,10
			c6.8-12.5,21.2-53.5,21.2-53.5c-7.5,41.2-22.8,71.8-22.8,71.8l27.8,19.8l27.8-19.8c0,0-15.2-30.5-22.8-71.8c0,0,14.5,41,21.2,53.5
			l1.2-10l7.2,15c0,0-8.4,5.8-2.2,20.6c0,0-0.3-5,1.5-8.5s5.8-5.7,10.2-3.3c4.3,2.3,6.3,6.2,6,17.7c0,0,10.7-9.7-0.8-22
			c0,0,6.8-7.5,9.7,13.5c0,0,6.5-18.8-7.5-22.2c0,0,3.2-7.3,8.8,2.8c0,0,1.2-11-4.3-12s-6,9.2-14.7,7.8l-7.7-15.3
			c0,0,5.6-2.5,7.8-2.8c-0.5-0.2-2.1-2-6.9-11.5c-6.7-13.2-14.8-34.8-15.5-44.2c0,0,21,62.3,36.2,47c0,0-12-39.2-11.8-56.8
			c0,0,4.2,34.7,21.3,51.3c7.5,6.8,16.8,7.5,24.2-0.7c0,0-23.5-41-29.8-73c0,0,21.3,56.3,47.7,63.7c11.7,2.3,14-2.3,18.3-7.7
			c0,0-35-46.3-39.7-57.3c0,0,47.7,65.3,71,20c0,0-15.3-4.7-49.3-36.7c0,0,67.3,41.7,76.3-13.3c0,0-37.3,7-77-23.7
			c0,0,94.3,25.7,90.7-39C597,350.7,576.7,360.3,518.7,358z M348.3,517.5c20.3-24.8,17.7-52,17.7-52
			C376,516.5,348.3,517.5,348.3,517.5z"/>
		<path class="st0" d="M497.8,367.2c0,0,101-12,84.5-67.5c0,0-18.5,25.2-125.2,55.8c0,0,3.1,48-23.3,70c0-17.4-2.3-27.5-2.3-27.5
			c4.4,1.1,6.5,0.3,6.5,0.3c0.9,1.8,2.8,4.2,2.8,4.2c20-27.2-7-31.8-7-31.8c-6-16.5-23.5-15-33.8-13s-26.5,8.8-36.2,29.8
			c-8.9,19.2,0.2,34.9,1.8,37.4C340,402.6,343,355.5,343,355.5c-106.8-30.5-125.2-55.8-125.2-55.8c-16.5,55.5,84.5,67.5,84.5,67.5
			c-69.2,0.5-82.5-7.2-82.5-7.2c-2.8,58.5,86.8,32,86.8,32c-40.8,29.2-74.2,23-74.2,23c11.8,55.5,80.8,1.8,80.8,1.8
			c-41.2,39.2-56,42-56,42c20.2,41.5,70.2-21.5,70.2-21.5l-41.8,54.5c21.2,31,59.8-41.4,59.8-41.4s-10,23.7-15,34.7
			s-11.7,21.8-11.7,21.8c27.3,24.8,43.5-45.7,43.5-45.7s-3.7,17.5-6.3,28.3c-2.7,10.8-6.3,22.8-6.3,22.8C361,524,378,483,378,483
			c-10,33.7-16,37-16,37l6.4,1.8l-6.2,13.9c-7.5,3-7.8-7.1-13.2-6.5s-4,10.4-4,10.4c5-9.1,8-2.2,8-2.2c-12.6,2.2-6.9,19.2-6.9,19.2
			c2.4-18.1,9-11.9,9-11.9c-10.5,11.2-1,19.1-1,19.1c-0.4-4.9,0-13.2,5.6-15.4c10-3.8,11,9.4,11,9.4c5.1-11.5-2.4-16.8-2.4-16.8
			l6.8-13.5l1,9l12-26.2c-12,57-21,63.2-21,63.2l1,5c0,0,7.8-8,12.3-20.3c4.5-12.3,13.5-42.7,13.5-42.7c-9.8,46-19,55.5-19,55.5
			l5.5,1.6c1-3.5,3.5-6,3.5-6l-1.6,6.8l5.6,2.4c2.8-9.9,5.6-28.8,6.2-33.5s5.5-43.2,5.5-43.2c0.1,6.2-3.1,34.1-4.8,47.1
			c-1.7,13-5.6,30.2-5.6,30.2l9.4,4L400,538l1.4,42.4l9.4-4c0,0-3.9-17.2-5.6-30.2c-1.7-13-4.9-40.9-4.8-47.1c0,0,4.9,38.4,5.5,43.2
			s3.5,23.6,6.2,33.5l5.6-2.4l-1.6-6.8c0,0,2.5,2.5,3.5,6l5.5-1.6c0,0-9.1-9.5-19-55.5c0,0,9,30.3,13.5,42.7
			c4.5,12.3,12.3,20.3,12.3,20.3l1-5c0,0-9-6.2-21-63.2l12,26.2l1-9l6.8,13.5c0,0-7.5,5.2-2.4,16.8c0,0,1-13.1,11-9.4
			c5.6,2.1,6,10.5,5.6,15.4c0,0,9.5-7.9-1-19.1c0,0,6.6-6.2,9,11.9c0,0,5.8-17-6.9-19.2c0,0,3-6.9,8,2.2c0,0,1.5-9.8-4-10.4
			s-5.8,9.5-13.2,6.5l-6.2-13.9l6.4-1.8c0,0-6-3.3-16-37c0,0,17,41,28.5,29.3c0,0-3.7-12-6.3-22.8c-2.7-10.8-6.3-28.3-6.3-28.3
			s16.2,70.5,43.5,45.7c0,0-6.7-10.8-11.7-21.8s-15-34.7-15-34.7s38.6,72.4,59.8,41.4l-41.8-54.5c0,0,50,63,70.2,21.5
			c0,0-14.8-2.8-56-42c0,0,69,53.8,80.8-1.8c0,0-33.5,6.2-74.2-23c0,0,89.5,26.5,86.8-32C580.2,360,567,367.8,497.8,367.2z
			 M226.7,314.3c27,37.7,81.7,41,81.7,41C221.3,357.7,226.7,314.3,226.7,314.3z M226.6,368c39.6,26.3,89.4,9.7,89.4,9.7
			C237.7,411,226.6,368,226.6,368z M240.3,423.3c44.7,5.3,83-33,83-33C268,455.3,240.3,423.3,240.3,423.3z M270.7,459.7
			c40.3-12,54-44.7,54-44.7C300,477.7,270.7,459.7,270.7,459.7z M294,486c35.7-22.3,39.7-57.7,39.7-57.7
			C326.7,494.7,294,486,294,486z M324.7,505.3c29.7-22.7,29-65.3,29-65.3C358.7,508.1,324.7,505.3,324.7,505.3z M352.7,507
			c20.5-22.5,15.7-53.8,15.7-53.8C380.3,504,352.7,507,352.7,507z M447.3,507c0,0-27.7-3-15.7-53.8
			C431.7,453.2,426.8,484.5,447.3,507z M475.3,505.3c0,0-34,2.8-29-65.3C446.3,440.1,445.7,482.7,475.3,505.3z M506,486
			c0,0-32.7,8.7-39.7-57.7C466.3,428.3,470.3,463.7,506,486z M573.3,314.3c0,0,5.3,43.3-81.7,41C491.7,355.3,546.3,352,573.3,314.3z
			 M529.3,459.7c0,0-29.3,18-54-44.7C475.3,415,489,447.7,529.3,459.7z M559.7,423.3c0,0-27.7,32-83-33
			C476.7,390.3,515,428.7,559.7,423.3z M484,377.7c0,0,49.8,16.7,89.4-9.7C573.4,368,562.3,411,484,377.7z"/>
		<g>
			<path class="st2" d="M403.2,379.5c-2-0.6-1-5.8-1-5.8c-5.5,2.9-2.9,9.8,1.9,8.6c4.5-1.7,1.7-5.9,1.7-5.9
				C405.9,378,405.2,380.1,403.2,379.5z"/>
			<path class="st2" d="M422.4,374.6c0,0-1.2,4.6-4.5,6.5c0,0,2.8-4.2,3.2-7.9c0,0,1.8-1.4,3.6-4.1c0,0,1.1,1.2,3.2,1.1
				c0,0-0.8-12.2-22.7-9.7s-28.4,13.2-28.4,13.2s2.9-1.3,4-0.6s-0.2,1.4-8.9,8.9c-0.5,0.4,1.2,0.8,1.9,0.6c0,0,2.4-2.6,4.7-2.2
				c0,0-4.4,3.6-11.2,12.4v2.8c0,0-3.6,4.2-3.4,7.4c0,0,1.2-1.7,1.8-1.6s1.2,0.2,0.4,1.6s-1.9,4.6-2.2,6c0,0,1.4-1.1,2-0.9
				c0,0-2.5,7.6-0.4,10.2c0,0,1.5-21.2,5.5-24.2c0,0-0.9,2.8-0.5,4.9c0,0,0.8-2.2,1.9-1.8c0,0-1.8,4.1-1.2,8.8c0,0,4.5-9.1,7.9-9.6
				c0,0-7.9,9.4-7.6,17.6c0,0,2.2-4.9,4.9-5.8c0,0-4.4,9.7-3.4,15.6c0,0,1.1-4.5,2.8-4.8c0,0-0.9,4.5-0.8,10.3l6.3-2.9
				c0,0,2.5-17.2,26.5-29c0,0,0.1,0.6,0.2,1.6s2.5-0.2,3.3-0.9c0.8-0.7,3.4-3.1,6.8-3.2c0,0-1.4-1.8-1-3.1c0,0-2.1-0.2-2.8-1.2
				c0,0,2.2-1.1,5.5-1.2c0,0,0.3,0.2,0.6,2.9c0,0,5.8,0,9.2,2c2.2,1.4,3.8,1.5,6.5,1.3c0,0-3.7-6.8-11.2-7.5
				c-7.5-0.7-15.8,2.4-19.9,2.7c-4.1,0.2-7.4-1-7.1-3.3c0.3-2.3,2.2-2.7,2.8-2.6c0,0-1.2,1.3-0.7,3.2c0,0,3.4,1.1,9.1-0.2
				c5.7-1.3,26.1-7.8,32.6,10.3c0,0,4-5,4.2-12.4C446,378.4,436.1,369.4,422.4,374.6z M391,393.8c-0.9,0.5-1.8,2.2-2.2,5.2
				c-0.4,3.1-1.2,6.2-1.8,6.8v-6.9c0,0-3.8,5-4.4,15.4c0,0-2.7-1.8-0.3-13.3c0,0-2.5,1.4-4.4,6.9c0,0-0.8-4.2,0.2-7.8
				c0.5-1.6,3-3.8,3.8-7.1c0,0,3,1.4,7.3-2.3c4.3-3.8,7.8-5.8,7.8-5.8S395.1,391.1,391,393.8z M413.6,381.3c0,0,4-5.6,3.1-8.9
				c0,0-1.6,7.1-7.1,9.1c0,0,3.4-4.1,3.8-8.6c0,0-3.4,8.6-7.8,10.2s-10.1-0.5-13.9-4.4c0,0,4.9,2.8,6.8,3.1c0,0-4-2.9-5.7-4.9
				c0,0-8.1,3.2-11.1,6c0,0,3-4.1,8.2-6.9c0,0-2.4,0.2-7.2,2.6c0,0,4.6-5.8,20.3-7.4c0,0-4.1-0.7-9,0.2c0,0,12.3-6,26.2,1.2
				C420.3,372.6,418.2,378.9,413.6,381.3z M428.1,379.6c0,0-2.6-1.9-3.5-1.9c0,0,0.5-3.9,5.3-2.3
				C429.9,375.3,430.2,378.2,428.1,379.6z M441.8,377.9c6.2,6.4,1.4,13.2,1.4,13.2C443.7,384.2,441.8,377.9,441.8,377.9z"/>
		</g>
	</g>
	<circle cx="400" cy="638" r="69.8"/>
	<polygon class="st2" points="398.9,611.4 398.9,582.3 375.9,572.7 354.5,585.5 351.6,609.4 377.2,624.6 	"/>
	<polygon class="st2" points="448.2,609.4 445.4,585.5 424,572.7 401,582.3 401,611.4 422.6,624.6 	"/>
	<polygon class="st2" points="449.2,611.2 423.8,626.5 423.8,650.5 449.2,666 468.8,650.2 468.8,626.2 	"/>
	<polygon class="st2" points="376,626.5 350.8,611.2 331.2,626 331.2,650.2 350.8,666 376,650.5 	"/>
	<polygon class="st2" points="351.6,667.9 355.1,691.5 376.8,703.6 399,694.4 399,664 377.2,652.2 	"/>
	<polygon class="st2" points="401.1,663.9 401.1,694.4 423.1,703.4 444.9,691.6 448.2,667.8 422.5,652.2 	"/>
	<path d="M470,624.6l-19.5-15l-0.2-0.1l0-0.3l-2.9-23.9l-0.1-1l-0.9-0.5L425,570.9l-0.9-0.5l-1,0.4l-23,9.7l-0.2,0.1l-0.2-0.1
		l-23-9.7l-1-0.4l-0.9,0.5l-21.4,12.8l-0.9,0.5l-0.1,1l-2.9,23.9l-0.1,0.4l0,0L330,624.3l-0.8,0.6v1v24.2v1l0.8,0.6l19.5,15.8l0,0
		l0.1,0.5l3.5,23.6l0.2,1l0.9,0.5l21.6,12.1l0.9,0.5l0.9-0.4l22.2-9.2l0.3-0.1l0.3,0.1l22,9l0.9,0.4l0.9-0.5l21.8-11.8l0.9-0.5
		l0.1-1l3.4-23.9l0-0.2l0.2-0.2l19.5-15.8l0.8-0.6v-1v-24v-1L470,624.6z M399.9,662.1l-21.7-11.7l-0.1-0.1v-23.8l0.2-0.2l21.6-13.2
		l21.6,13.2l0.1,0.1v0v23.8l-0.2,0.1L400.1,662L399.9,662.1z M424,572.7l21.4,12.8l2.9,23.9l-25.6,15.2L401,611.4v0v-29v0L424,572.7
		z M354.5,585.5l21.4-12.8l22.9,9.6v0v29v0l-21.6,13.2l-20-11.9l-5.4-3.3l-0.2-0.1L354.5,585.5z M331.2,626l19.5-14.7l5.5,3.3
		l19.8,12v24l-12.8,7.9l-12.5,7.6l-19.5-15.7V626z M399,694.4l-22.2,9.2l-21.6-12.1l-3.5-23.6l0.2-0.1l12.4-7.6l13-7.9L399,664
		V694.4z M444.9,691.6l-21.8,11.8l-22-9v-30.5l21.4-11.6l8.9,5.3l16.8,10.2l0.1,0L444.9,691.6z M468.8,650.2l-19.4,15.7l-16.9-10.2
		l-8.7-5.3v-24l25.5-15.2l19.5,15V650.2z"/>
	<path d="M142.4,260.3l5.8,13.4l-8.2,3.6l-16.7-38.4l13.2-5.7c9.6-4.2,16.1-2.2,19.6,5.9c1.7,3.9,1.6,7.7-0.2,11.3
		c-1.9,3.6-5,6.3-9.3,8.1L142.4,260.3z M134.3,241.6l5.4,12.4l3.5-1.5c4.8-2.1,6.3-5.2,4.5-9.4c-1.8-4.1-5-5.1-9.8-3L134.3,241.6z
		 M217.9,246.1c-2.4,2.4-5.9,4.4-10.6,6c-6,2-11.3,1.9-16-0.5c-4.7-2.4-8.1-6.6-10.1-12.5c-2.1-6.3-1.9-12.1,0.7-17.4
		c2.6-5.3,6.9-9,13.1-11.1c3.9-1.3,7.3-1.9,10.2-1.8l2.8,8.2c-3.2-0.7-6.5-0.4-9.9,0.7c-3.9,1.3-6.6,3.6-8,6.9
		c-1.5,3.3-1.5,6.9-0.2,10.9c1.3,3.9,3.5,6.7,6.5,8.3c3,1.6,6.4,1.8,10.1,0.5c3.5-1.2,6.5-3.1,8.8-5.8L217.9,246.1z M263.2,235.9
		l-8.6,2.2l-4.3-16.7l-17.3,4.4l4.3,16.7l-8.6,2.2l-10.4-40.6l8.6-2.2l4.2,16.4l17.3-4.4l-4.2-16.4l8.6-2.2L263.2,235.9z M307,193
		l-14.7,2.6l1.9,10.6l13.6-2.4l1.3,7.2l-13.6,2.4l2.9,16.3l-8.8,1.6l-7.3-41.2l23.5-4.2L307,193z M318.6,209.6
		c0-4.9,1.5-8.8,4.4-11.6c2.9-2.8,6.9-4.2,11.9-4.2c4.8,0,8.6,1.4,11.5,4.2c2.8,2.8,4.2,6.5,4.2,11.2c0,4.9-1.5,8.8-4.4,11.7
		c-2.9,2.9-6.8,4.4-11.8,4.4c-4.9,0-8.7-1.4-11.6-4.2C320.1,218.2,318.6,214.4,318.6,209.6z M327.5,209.5c0,6,2.4,9,7.3,9
		c4.7,0,7-3.1,7-9.2c0-5.8-2.4-8.8-7.1-8.8c-2.3,0-4.1,0.8-5.3,2.4C328.1,204.4,327.5,206.6,327.5,209.5z M358.9,206.7
		c0-4.9,1.5-8.8,4.4-11.6c2.9-2.8,6.9-4.2,11.9-4.2c4.8,0,8.6,1.4,11.5,4.2c2.8,2.8,4.2,6.5,4.2,11.2c0,4.9-1.5,8.8-4.4,11.7
		c-2.9,2.9-6.8,4.4-11.8,4.4c-4.9,0-8.7-1.4-11.6-4.2C360.3,215.3,358.9,211.5,358.9,206.7z M367.7,206.6c0,6,2.4,9,7.3,9
		c4.7,0,7-3.1,7-9.2c0-5.8-2.4-8.8-7.1-8.8c-2.3,0-4.1,0.8-5.3,2.4C368.4,201.5,367.7,203.7,367.7,206.6z M418.6,220.7
		c-1.3,0.7-3.3,1.1-6,1.1c-6.3,0-9.5-3.3-9.5-10v-14.1h-4.9v-6.5h4.9v-6.6l8.7-2.5v9.1h6.8v6.5h-6.8v12.6c0,3.2,1.3,4.8,3.8,4.8
		c1,0,2-0.3,3-0.9V220.7z M436,218l-0.2,3.6l-8.7-0.5l2.6-44.2l8.7,0.5l-1.1,18.9l0.1,0c2.5-3.4,5.9-5,10.1-4.7
		c3.8,0.2,6.6,1.7,8.6,4.5c2,2.8,2.8,6.4,2.6,11.1c-0.3,4.9-1.8,8.9-4.4,11.7c-2.6,2.9-6,4.2-10,4c-3.7-0.2-6.4-1.8-8.1-4.8L436,218
		z M436.4,208.7c-0.1,2,0.4,3.6,1.5,5c1.1,1.4,2.5,2.2,4.3,2.3c2.2,0.1,3.9-0.6,5.2-2.2c1.3-1.6,2.1-4,2.2-7.1
		c0.2-2.6-0.3-4.6-1.3-6.1c-1-1.5-2.6-2.3-4.6-2.5c-1.9-0.1-3.6,0.5-4.9,1.9s-2.1,3.2-2.2,5.5L436.4,208.7z M470.5,196.3
		c1.4-0.6,3.3-0.9,5.6-1.1c2.3-0.2,4.3-0.1,5.8,0.1c8.3,1.1,11.9,5.8,10.7,14.2l-2.4,17.9l-8.2-1.1l0.6-4.3l-0.1,0
		c-2.5,3.1-5.7,4.4-9.6,3.8c-2.8-0.4-4.9-1.5-6.4-3.3c-1.5-1.8-2-4.1-1.6-6.9c0.8-5.7,4.6-8.5,11.5-8.5l8.3,0
		c0.5-3.4-1.1-5.4-4.7-5.9c-3.5-0.5-7,0.1-10.4,1.9L470.5,196.3z M478.4,212.1c-3.2,0-4.9,1.2-5.3,3.6c-0.2,1.1,0.1,2.1,0.8,2.8
		c0.7,0.8,1.6,1.3,2.9,1.4c1.8,0.2,3.3-0.2,4.6-1.3c1.3-1.1,2.1-2.6,2.4-4.4l0.3-2.1L478.4,212.1z M501.1,228.7l7.2-43.7l8.6,1.4
		l-7.2,43.7L501.1,228.7z M519.9,232.1l8.5-43.4l8.5,1.7l-8.5,43.4L519.9,232.1z M569.9,242.4c-3.3,0.7-7.4,0.5-12.1-0.6
		c-6.1-1.5-10.6-4.5-13.3-9c-2.7-4.5-3.4-9.9-1.9-16c1.5-6.4,4.8-11.2,9.8-14.3c5-3.1,10.7-3.9,17.1-2.4c4,1,7.2,2.3,9.6,3.9l-2,8.4
		c-2.4-2.3-5.3-3.8-8.8-4.7c-4-1-7.5-0.4-10.5,1.5c-3,2-5,5-6,9.1c-1,4-0.6,7.5,1.1,10.5c1.7,3,4.4,4.9,8.3,5.9
		c3.6,0.9,7.1,0.8,10.5-0.3L569.9,242.4z M578.9,246.5l12.7-42.4l8.3,2.5L587.3,249L578.9,246.5z M623.4,261.1l-8.2-2.8l1.5-4.3
		l-0.1,0c-3.3,2.6-6.7,3.3-10.4,2c-6.6-2.3-8.5-7.4-5.7-15.3l5.9-17l8.3,2.9l-5.7,16.3c-1.5,4.2-0.5,6.9,2.8,8.1
		c1.7,0.6,3.2,0.5,4.6-0.4c1.4-0.8,2.4-2.2,3.1-4.2L625,230l8.2,2.8L623.4,261.1z M642.8,265.6l-1.4,3.3l-8.1-3.4l17.1-40.8l8.1,3.4
		l-7.3,17.5l0.1,0c3.5-2.4,7.2-2.7,11.1-1.1c3.5,1.5,5.7,3.8,6.6,7.1c1,3.3,0.5,7-1.3,11.3c-1.9,4.6-4.6,7.8-8,9.6s-7,2-10.8,0.4
		C645.6,271.4,643.6,269,642.8,265.6L642.8,265.6z M646.3,256.9c-0.8,1.8-0.9,3.6-0.3,5.2c0.6,1.7,1.7,2.9,3.3,3.6
		c2,0.8,3.9,0.7,5.7-0.4c1.8-1.1,3.3-3.1,4.5-5.9c1-2.4,1.3-4.4,0.8-6.2c-0.5-1.8-1.6-3-3.5-3.8c-1.8-0.8-3.6-0.7-5.3,0.2
		c-1.7,0.9-3,2.3-3.9,4.4L646.3,256.9z M168.8,234.7c-2.7,0-4.8,2.2-4.8,4.8s2.2,4.8,4.8,4.8c2.7,0,4.8-2.2,4.8-4.8
		S171.5,234.7,168.8,234.7z"/>
	<path class="st2" d="M141.4,256.8l5.8,13.4l-8.2,3.6l-16.7-38.4l13.2-5.7c9.6-4.2,16.1-2.2,19.6,5.9c1.7,3.9,1.6,7.7-0.2,11.3
		c-1.9,3.6-5,6.3-9.3,8.1L141.4,256.8z M133.3,238.1l5.4,12.4l3.5-1.5c4.8-2.1,6.3-5.2,4.5-9.4c-1.8-4.1-5-5.1-9.8-3L133.3,238.1z
		 M216.9,242.6c-2.4,2.4-5.9,4.4-10.6,6c-6,2-11.3,1.9-16-0.5c-4.7-2.4-8.1-6.6-10.1-12.5c-2.1-6.3-1.9-12.1,0.7-17.4
		c2.6-5.3,6.9-9,13.1-11.1c3.9-1.3,7.3-1.9,10.2-1.8l2.8,8.2c-3.2-0.7-6.5-0.4-9.9,0.7c-3.9,1.3-6.6,3.6-8,6.9
		c-1.5,3.3-1.5,6.9-0.2,10.9c1.3,3.9,3.5,6.7,6.5,8.3c3,1.6,6.4,1.8,10.1,0.5c3.5-1.2,6.5-3.1,8.8-5.8L216.9,242.6z M262.2,232.4
		l-8.6,2.2l-4.3-16.7l-17.3,4.4l4.3,16.7l-8.6,2.2l-10.4-40.6l8.6-2.2l4.2,16.4l17.3-4.4l-4.2-16.4l8.6-2.2L262.2,232.4z M306,189.5
		l-14.7,2.6l1.9,10.6l13.6-2.4l1.3,7.2l-13.6,2.4l2.9,16.3l-8.8,1.6l-7.3-41.2l23.5-4.2L306,189.5z M317.6,206.1
		c0-4.9,1.5-8.8,4.4-11.6c2.9-2.8,6.9-4.2,11.9-4.2c4.8,0,8.6,1.4,11.5,4.2c2.8,2.8,4.2,6.5,4.2,11.2c0,4.9-1.5,8.8-4.4,11.7
		c-2.9,2.9-6.8,4.4-11.8,4.4c-4.9,0-8.7-1.4-11.6-4.2C319.1,214.7,317.6,210.9,317.6,206.1z M326.5,206c0,6,2.4,9,7.3,9
		c4.7,0,7-3.1,7-9.2c0-5.8-2.4-8.8-7.1-8.8c-2.3,0-4.1,0.8-5.3,2.4C327.1,200.9,326.5,203.1,326.5,206z M357.9,203.2
		c0-4.9,1.5-8.8,4.4-11.6c2.9-2.8,6.9-4.2,11.9-4.2c4.8,0,8.6,1.4,11.5,4.2c2.8,2.8,4.2,6.5,4.2,11.2c0,4.9-1.5,8.8-4.4,11.7
		c-2.9,2.9-6.8,4.4-11.8,4.4c-4.9,0-8.7-1.4-11.6-4.2C359.3,211.8,357.9,208,357.9,203.2z M366.7,203.1c0,6,2.4,9,7.3,9
		c4.7,0,7-3.1,7-9.2c0-5.8-2.4-8.8-7.1-8.8c-2.3,0-4.1,0.8-5.3,2.4C367.4,198,366.7,200.2,366.7,203.1z M417.6,217.2
		c-1.3,0.7-3.3,1.1-6,1.1c-6.3,0-9.5-3.3-9.5-10v-14.1h-4.9v-6.5h4.9V181l8.7-2.5v9.1h6.8v6.5h-6.8v12.6c0,3.2,1.3,4.8,3.8,4.8
		c1,0,2-0.3,3-0.9V217.2z M435,214.5l-0.2,3.6l-8.7-0.5l2.6-44.2l8.7,0.5l-1.1,18.9l0.1,0c2.5-3.4,5.9-5,10.1-4.7
		c3.8,0.2,6.6,1.7,8.6,4.5c2,2.8,2.8,6.4,2.6,11.1c-0.3,4.9-1.8,8.9-4.4,11.7c-2.6,2.9-6,4.2-10,4c-3.7-0.2-6.4-1.8-8.1-4.8
		L435,214.5z M435.4,205.2c-0.1,2,0.4,3.6,1.5,5c1.1,1.4,2.5,2.2,4.3,2.3c2.2,0.1,3.9-0.6,5.2-2.2c1.3-1.6,2.1-4,2.2-7.1
		c0.2-2.6-0.3-4.6-1.3-6.1c-1-1.5-2.6-2.3-4.6-2.5c-1.9-0.1-3.6,0.5-4.9,1.9s-2.1,3.2-2.2,5.5L435.4,205.2z M469.5,192.8
		c1.4-0.6,3.3-0.9,5.6-1.1c2.3-0.2,4.3-0.1,5.8,0.1c8.3,1.1,11.9,5.8,10.7,14.2l-2.4,17.9l-8.2-1.1l0.6-4.3l-0.1,0
		c-2.5,3.1-5.7,4.4-9.6,3.8c-2.8-0.4-4.9-1.5-6.4-3.3c-1.5-1.8-2-4.1-1.6-6.9c0.8-5.7,4.6-8.5,11.5-8.5l8.3,0
		c0.5-3.4-1.1-5.4-4.7-5.9c-3.5-0.5-7,0.1-10.4,1.9L469.5,192.8z M477.4,208.6c-3.2,0-4.9,1.2-5.3,3.6c-0.2,1.1,0.1,2.1,0.8,2.8
		c0.7,0.8,1.6,1.3,2.9,1.4c1.8,0.2,3.3-0.2,4.6-1.3c1.3-1.1,2.1-2.6,2.4-4.4l0.3-2.1L477.4,208.6z M500.1,225.2l7.2-43.7l8.6,1.4
		l-7.2,43.7L500.1,225.2z M518.9,228.6l8.5-43.4l8.5,1.7l-8.5,43.4L518.9,228.6z M568.9,238.9c-3.3,0.7-7.4,0.5-12.1-0.6
		c-6.1-1.5-10.6-4.5-13.3-9c-2.7-4.5-3.4-9.9-1.9-16c1.5-6.4,4.8-11.2,9.8-14.3c5-3.1,10.7-3.9,17.1-2.4c4,1,7.2,2.3,9.6,3.9l-2,8.4
		c-2.4-2.3-5.3-3.8-8.8-4.7c-4-1-7.5-0.4-10.5,1.5c-3,2-5,5-6,9.1c-1,4-0.6,7.5,1.1,10.5c1.7,3,4.4,4.9,8.3,5.9
		c3.6,0.9,7.1,0.8,10.5-0.3L568.9,238.9z M577.9,243l12.7-42.4l8.3,2.5l-12.7,42.4L577.9,243z M622.4,257.6l-8.2-2.8l1.5-4.3l-0.1,0
		c-3.3,2.6-6.7,3.3-10.4,2c-6.6-2.3-8.5-7.4-5.7-15.3l5.9-17l8.3,2.9l-5.7,16.3c-1.5,4.2-0.5,6.9,2.8,8.1c1.7,0.6,3.2,0.5,4.6-0.4
		c1.4-0.8,2.4-2.2,3.1-4.2l5.6-16.2l8.2,2.8L622.4,257.6z M641.8,262.1l-1.4,3.3l-8.1-3.4l17.1-40.8l8.1,3.4l-7.3,17.5l0.1,0
		c3.5-2.4,7.2-2.7,11.1-1.1c3.5,1.5,5.7,3.8,6.6,7.1c1,3.3,0.5,7-1.3,11.3c-1.9,4.6-4.6,7.8-8,9.6s-7,2-10.8,0.4
		C644.6,267.9,642.6,265.5,641.8,262.1L641.8,262.1z M645.3,253.4c-0.8,1.8-0.9,3.6-0.3,5.2c0.6,1.7,1.7,2.9,3.3,3.6
		c2,0.8,3.9,0.7,5.7-0.4c1.8-1.1,3.3-3.1,4.5-5.9c1-2.4,1.3-4.4,0.8-6.2c-0.5-1.8-1.6-3-3.5-3.8c-1.8-0.8-3.6-0.7-5.3,0.2
		c-1.7,0.9-3,2.3-3.9,4.4L645.3,253.4z M167.8,231.2c-2.7,0-4.8,2.2-4.8,4.8s2.2,4.8,4.8,4.8c2.7,0,4.8-2.2,4.8-4.8
		S170.5,231.2,167.8,231.2z"/>
</g>
</svg>
