<?xml version="1.0" encoding="utf-8"?>
<!-- Generator: Adobe Illustrator 22.1.0, SVG Export Plug-In . SVG Version: 6.00 Build 0)  -->
<svg version="1.1" id="图层_1" xmlns="http://www.w3.org/2000/svg" xmlns:xlink="http://www.w3.org/1999/xlink" x="0px" y="0px"
	 viewBox="0 0 800 800" style="enable-background:new 0 0 800 800;" xml:space="preserve">
<style type="text/css">
	.st0{fill:#261677;}
</style>
<g>
	<path class="st0" d="M690.5,128.8l-44.8,16.8l-31-55l-40.5,23.2l-36.8-43l-45.2,24.5L456.8,50L400,94.8L343.2,50l-35.5,45.2
		l-45.2-24.5l-36.8,43l-40.5-23.2l-31,55l-44.8-16.8l-2.1,63C259.8,106.5,400,113.2,400,113.2s140.2-6.8,292.6,78.5L690.5,128.8z"/>
	<path class="st0" d="M443.2,391.2c0,0,4.8-6.8-1.4-13.2C441.8,377.9,443.7,384.2,443.2,391.2z"/>
	<path class="st0" d="M381.8,382.8c3-2.8,11.1-6,11.1-6c1.7,2.1,5.7,4.9,5.7,4.9c-1.9-0.4-6.8-3.1-6.8-3.1c3.8,3.9,9.6,6.1,13.9,4.4
		s7.8-10.2,7.8-10.2c-0.4,4.6-3.8,8.6-3.8,8.6c5.5-1.9,7.1-9.1,7.1-9.1c0.9,3.3-3.1,8.9-3.1,8.9c4.6-2.4,6.7-8.8,6.7-8.8
		c-13.9-7.2-26.2-1.2-26.2-1.2c4.9-0.9,9-0.2,9-0.2c-15.7,1.7-20.3,7.4-20.3,7.4c4.8-2.4,7.2-2.6,7.2-2.6
		C384.8,378.7,381.8,382.8,381.8,382.8z M402.3,373.7c0,0-1,5.2,1,5.8s2.7-1.4,2.7-3.1c0,0,2.8,4.2-1.7,5.9
		C399.4,383.5,396.8,376.5,402.3,373.7z"/>
	<path class="st0" d="M381.8,393c-0.8,3.2-3.2,5.5-3.8,7.1c-1,3.6-0.2,7.8-0.2,7.8c1.9-5.5,4.4-6.9,4.4-6.9
		c-2.3,11.6,0.3,13.3,0.3,13.3c0.7-10.4,4.4-15.4,4.4-15.4v6.9c0.5-0.6,1.3-3.7,1.8-6.8c0.4-3.1,1.2-4.8,2.2-5.2
		c4.1-2.8,5.9-8.9,5.9-8.9s-3.4,2-7.8,5.8C384.8,394.4,381.8,393,381.8,393z"/>
	<path class="st0" d="M429.9,375.3c-4.8-1.6-5.3,2.3-5.3,2.3c0.9,0,3.5,1.9,3.5,1.9C430.2,378.2,429.9,375.3,429.9,375.3z"/>
	<g>
		<path class="st0" d="M475.8,216.5c1.8,0.2,3.3-0.2,4.6-1.3c1.3-1.1,2.1-2.6,2.4-4.4l0.3-2.1l-5.7,0c-3.2,0-4.9,1.2-5.3,3.6
			c-0.2,1.1,0.1,2.1,0.8,2.8C473.5,215.8,474.5,216.3,475.8,216.5z"/>
		<path class="st0" d="M374,212c4.7,0,7-3.1,7-9.2c0-5.8-2.4-8.8-7.1-8.8c-2.3,0-4.1,0.8-5.3,2.4c-1.3,1.6-1.9,3.8-1.9,6.7
			C366.7,209.1,369.2,212,374,212z"/>
		<path class="st0" d="M333.8,215c4.7,0,7-3.1,7-9.2c0-5.8-2.4-8.8-7.1-8.8c-2.3,0-4.1,0.8-5.3,2.4c-1.3,1.6-1.9,3.8-1.9,6.7
			C326.5,212,328.9,215,333.8,215z"/>
		<path class="st0" d="M689,208c-141-77-289-70-289-70s-148-7-289,70c0,0-23,398,289,542C712,606,689,208,689,208z M649.5,221.2
			l8.1,3.4l-7.3,17.5l0.1,0c3.5-2.4,7.2-2.7,11.1-1.1c3.5,1.5,5.7,3.8,6.6,7.1c1,3.3,0.5,7-1.3,11.3c-1.9,4.6-4.6,7.8-8,9.6
			s-7,2-10.8,0.4c-3.4-1.4-5.5-3.9-6.1-7.2l-0.1,0l-1.4,3.3l-8.1-3.4L649.5,221.2z M605.3,220.1l8.3,2.9l-5.7,16.3
			c-1.5,4.2-0.5,6.9,2.8,8.1c1.7,0.6,3.2,0.5,4.6-0.4c1.4-0.8,2.4-2.2,3.1-4.2l5.6-16.2l8.2,2.8l-9.8,28.3l-8.2-2.8l1.5-4.3l-0.1,0
			c-3.3,2.6-6.7,3.3-10.4,2c-6.6-2.3-8.5-7.4-5.7-15.3L605.3,220.1z M599,203.1l-12.7,42.4l-8.3-2.5l12.7-42.4L599,203.1z
			 M541.6,213.3c1.5-6.4,4.8-11.2,9.8-14.3c5-3.1,10.7-3.9,17.1-2.4c4,1,7.2,2.3,9.6,3.9l-2,8.4c-2.4-2.3-5.3-3.8-8.8-4.7
			c-4-1-7.5-0.4-10.5,1.5c-3,2-5,5-6,9.1c-1,4-0.6,7.5,1.1,10.5c1.7,3,4.4,4.9,8.3,5.9c3.6,0.9,7.1,0.8,10.5-0.3l-1.9,8
			c-3.3,0.7-7.4,0.5-12.1-0.6c-6.1-1.5-10.6-4.5-13.3-9C540.8,224.8,540.1,219.4,541.6,213.3z M527.5,185.2l8.5,1.7l-8.5,43.4
			l-8.5-1.7L527.5,185.2z M507.2,181.5l8.6,1.4l-7.2,43.7l-8.6-1.4L507.2,181.5z M463.9,212.1c0.8-5.7,4.6-8.5,11.5-8.5l8.3,0
			c0.5-3.4-1.1-5.4-4.7-5.9c-3.5-0.5-7,0.1-10.4,1.9l0.9-6.7c1.4-0.6,3.3-0.9,5.6-1.1c2.3-0.2,4.3-0.1,5.8,0.1
			c8.3,1.1,11.9,5.8,10.7,14.2l-2.4,17.9l-8.2-1.1l0.6-4.3l-0.1,0c-2.5,3.1-5.7,4.4-9.6,3.8c-2.8-0.4-4.9-1.5-6.4-3.3
			C464.1,217.1,463.6,214.8,463.9,212.1z M428.7,173.4l8.7,0.5l-1.1,18.9l0.1,0c2.5-3.4,5.9-5,10.1-4.7c3.8,0.2,6.6,1.7,8.6,4.5
			c2,2.8,2.8,6.4,2.6,11.1c-0.3,4.9-1.8,8.9-4.4,11.7c-2.6,2.9-6,4.2-10,4c-3.7-0.2-6.4-1.8-8.1-4.8l-0.1,0l-0.2,3.6l-8.7-0.5
			L428.7,173.4z M397.2,187.6h4.9V181l8.7-2.5v9.1h6.8v6.5h-6.8v12.6c0,3.2,1.3,4.8,3.8,4.8c1,0,2-0.3,3-0.9v6.5
			c-1.3,0.7-3.3,1.1-6,1.1c-6.3,0-9.5-3.3-9.5-10v-14.1h-4.9V187.6z M362.3,191.6c2.9-2.8,6.9-4.2,11.9-4.2c4.8,0,8.6,1.4,11.5,4.2
			c2.8,2.8,4.2,6.5,4.2,11.2c0,4.9-1.5,8.8-4.4,11.7c-2.9,2.9-6.8,4.4-11.8,4.4c-4.9,0-8.7-1.4-11.6-4.2c-2.9-2.8-4.3-6.6-4.3-11.4
			C357.9,198.3,359.4,194.4,362.3,191.6z M322.1,194.5c2.9-2.8,6.9-4.2,11.9-4.2c4.8,0,8.6,1.4,11.5,4.2c2.8,2.8,4.2,6.5,4.2,11.2
			c0,4.9-1.5,8.8-4.4,11.7c-2.9,2.9-6.8,4.4-11.8,4.4c-4.9,0-8.7-1.4-11.6-4.2c-2.9-2.8-4.3-6.6-4.3-11.4
			C317.6,201.2,319.1,197.3,322.1,194.5z M304.7,182.3l1.3,7.2l-14.7,2.6l1.9,10.6l13.6-2.4l1.3,7.2l-13.6,2.4l2.9,16.3l-8.8,1.6
			l-7.3-41.2L304.7,182.3z M225.9,198.4l4.2,16.4l17.3-4.4l-4.2-16.4l8.6-2.2l10.4,40.6l-8.6,2.2l-4.3-16.7l-17.3,4.4l4.3,16.7
			l-8.6,2.2l-10.4-40.6L225.9,198.4z M180.8,218.2c2.6-5.3,6.9-9,13.1-11.1c3.9-1.3,7.3-1.9,10.2-1.8l2.8,8.2
			c-3.2-0.7-6.5-0.4-9.9,0.7c-3.9,1.3-6.6,3.6-8,6.9c-1.5,3.3-1.5,6.9-0.2,10.9c1.3,3.9,3.5,6.7,6.5,8.3c3,1.6,6.4,1.8,10.1,0.5
			c3.5-1.2,6.5-3.1,8.8-5.8l2.6,7.8c-2.4,2.4-5.9,4.4-10.6,6c-6,2-11.3,1.9-16-0.5c-4.7-2.4-8.1-6.6-10.1-12.5
			C178,229.3,178.2,223.5,180.8,218.2z M167.8,231.2c2.7,0,4.8,2.2,4.8,4.8s-2.2,4.8-4.8,4.8s-4.8-2.2-4.8-4.8
			S165.2,231.2,167.8,231.2z M135.5,229.6c9.6-4.2,16.1-2.2,19.6,5.9c1.7,3.9,1.6,7.7-0.2,11.3c-1.9,3.6-5,6.3-9.3,8.1l-4.2,1.8
			l5.8,13.4l-8.2,3.6l-16.7-38.4L135.5,229.6z M400,737C147,623,126,304,126,304c129-67,274-63,274-63s145-4,274,63
			C674,304,653,623,400,737z"/>
		<path class="st0" d="M648.4,262.2c2,0.8,3.9,0.7,5.7-0.4c1.8-1.1,3.3-3.1,4.5-5.9c1-2.4,1.3-4.4,0.8-6.2c-0.5-1.8-1.6-3-3.5-3.8
			c-1.8-0.8-3.6-0.7-5.3,0.2c-1.7,0.9-3,2.3-3.9,4.4l-1.2,2.9c-0.8,1.8-0.9,3.6-0.3,5.2C645.6,260.3,646.7,261.5,648.4,262.2z"/>
		<path class="st0" d="M146.7,239.6c-1.8-4.1-5-5.1-9.8-3l-3.6,1.6l5.4,12.4l3.5-1.5C147,246.9,148.5,243.8,146.7,239.6z"/>
		<path class="st0" d="M441.2,212.5c2.2,0.1,3.9-0.6,5.2-2.2c1.3-1.6,2.1-4,2.2-7.1c0.2-2.6-0.3-4.6-1.3-6.1c-1-1.5-2.6-2.3-4.6-2.5
			c-1.9-0.1-3.6,0.5-4.9,1.9s-2.1,3.2-2.2,5.5l-0.2,3.2c-0.1,2,0.4,3.6,1.5,5C438,211.6,439.4,212.4,441.2,212.5z"/>
	</g>
	<path class="st0" d="M470,624.6l-1.9-1.4c-3.1-14.1-10.3-26.5-20.5-36l-0.2-1.9l-0.1-1l-0.9-0.5L425,570.9l-0.9-0.5l-1,0.4
		l-1.9,0.8c-6.7-2.1-13.8-3.3-21.2-3.3c-7.4,0-14.6,1.2-21.3,3.3l-2-0.8l-1-0.4l-0.9,0.5l-21.4,12.8l-0.9,0.5l-0.1,1l-0.2,2
		c-10,9.4-17.2,21.7-20.3,35.6l-1.9,1.5l-0.8,0.6v1v24.2v1l0.8,0.6l2.1,1.7c3.2,13.9,10.5,26.3,20.6,35.6l0.4,2.6l0.2,1l0.9,0.5
		l21.6,12.1l0.9,0.5l0.9-0.4l2-0.9c6.5,2,13.3,3,20.4,3c7.2,0,14.1-1.1,20.7-3.1l1.7,0.7l0.9,0.4l0.9-0.5l21.8-11.8l0.9-0.5l0.1-1
		l0.4-2.7c10.1-9.4,17.5-21.7,20.6-35.6l2.1-1.7l0.8-0.6v-1v-24v-1L470,624.6z M354.5,585.5l21.4-12.8l23,9.7v29l-21.7,13.2
		l-25.6-15.2L354.5,585.5z M350.8,666l-19.4-15.7l0,0l-0.1-0.1v-0.5v-23.4V626l0.1,0l0,0l19.4-14.7l25.2,15.2v24L350.8,666z
		 M399,694.4l-22.2,9.2l-21.6-12.1l-3.5-23.6l25.6-15.6L399,664V694.4z M401,582.3l23-9.7l21.4,12.8l2.9,23.9l-25.6,15.2L401,611.4
		V582.3z M444.9,691.3L444.9,691.3l0,0.3l-0.8,0.4l0,0l-20.9,11.3l-22-9v-30.5l21.4-11.6l25.8,15.5L444.9,691.3z M468.8,626.3v23.4
		v0.5l-0.1,0.1l0,0L449.2,666l-25.5-15.5v-24l25.5-15.2L468.8,626.3L468.8,626.3L468.8,626.3L468.8,626.3z"/>
	<path class="st0" d="M497.8,367.2c0,0,101-12,84.5-67.5c0,0-18.5,25.2-125.2,55.8c0,0,3.1,48-23.3,70c0-17.4-2.3-27.5-2.3-27.5
		c4.4,1.1,6.5,0.3,6.5,0.3c0.9,1.8,2.8,4.2,2.8,4.2c20-27.2-7-31.8-7-31.8c-6-16.5-23.5-15-33.8-13s-26.5,8.8-36.2,29.8
		c-8.9,19.2,0.2,34.9,1.8,37.4C340,402.6,343,355.5,343,355.5c-106.8-30.5-125.2-55.8-125.2-55.8c-16.5,55.5,84.5,67.5,84.5,67.5
		c-69.2,0.5-82.5-7.2-82.5-7.2c-2.8,58.5,86.8,32,86.8,32c-40.8,29.2-74.2,23-74.2,23c11.8,55.5,80.8,1.8,80.8,1.8
		c-41.2,39.2-56,42-56,42c20.2,41.5,70.2-21.5,70.2-21.5l-41.8,54.5c21.2,31,59.8-41.4,59.8-41.4s-10,23.7-15,34.7
		s-11.7,21.8-11.7,21.8c27.3,24.8,43.5-45.7,43.5-45.7s-3.7,17.5-6.3,28.3c-2.7,10.8-6.3,22.8-6.3,22.8C361,524,378,483,378,483
		c-10,33.7-16,37-16,37l6.4,1.8l-6.2,13.9c-7.5,3-7.8-7.1-13.2-6.5s-4,10.4-4,10.4c5-9.1,8-2.2,8-2.2c-12.6,2.2-6.9,19.2-6.9,19.2
		c2.4-18.1,9-11.9,9-11.9c-10.5,11.2-1,19.1-1,19.1c-0.4-4.9,0-13.2,5.6-15.4c10-3.8,11,9.4,11,9.4c5.1-11.5-2.4-16.8-2.4-16.8
		l6.8-13.5l1,9l12-26.2c-10.1,47.8-18,59.9-20.3,62.6l6.1-3.7l0.9-0.5l0.9-0.5l0,0c1.7-2.8,3.3-6.2,4.7-9.9
		c4.5-12.3,13.5-42.7,13.5-42.7c-7.2,33.9-14.1,48-17.2,53l0.9,0.4l1.3,0.6c1.2-0.4,2.4-0.7,3.6-1c0.8-1.1,1.5-1.8,1.5-1.8l-0.4,1.5
		c2.1-0.5,4.3-0.9,6.4-1.2c2-9.7,3.7-21.2,4.2-24.7c0.6-4.8,5.5-43.2,5.5-43.2c0.1,6.2-3.1,34.1-4.8,47.1
		c-0.9,6.7-2.3,14.6-3.5,20.6c2.6-0.3,5.2-0.5,7.8-0.5L400,538l0.9,28.3c2.6,0,5.2,0.2,7.8,0.5c-1.2-6-2.7-13.9-3.5-20.6
		c-1.7-13-4.9-40.9-4.8-47.1c0,0,4.9,38.4,5.5,43.2c0.5,3.6,2.2,15,4.2,24.7c2.2,0.3,4.3,0.7,6.4,1.2l-0.4-1.5c0,0,0.7,0.7,1.5,1.8
		c1.2,0.3,2.4,0.6,3.5,1l1.3-0.5l1-0.4c-3.1-5.1-10-19.2-17.2-53c0,0,9,30.3,13.5,42.7c1.4,3.8,3.1,7.1,4.7,10l0.7,0.4l0.9,0.5
		l6.4,3.8c-2.1-2.3-10.2-13.9-20.5-62.7l12,26.2l1-9l6.8,13.5c0,0-7.5,5.2-2.4,16.8c0,0,1-13.1,11-9.4c5.6,2.1,6,10.5,5.6,15.4
		c0,0,9.5-7.9-1-19.1c0,0,6.6-6.2,9,11.9c0,0,5.8-17-6.9-19.2c0,0,3-6.9,8,2.2c0,0,1.5-9.8-4-10.4s-5.8,9.5-13.2,6.5l-6.2-13.9
		l6.4-1.8c0,0-6-3.3-16-37c0,0,17,41,28.5,29.3c0,0-3.7-12-6.3-22.8c-2.7-10.8-6.3-28.3-6.3-28.3s16.2,70.5,43.5,45.7
		c0,0-6.7-10.8-11.7-21.8s-15-34.7-15-34.7s38.6,72.4,59.8,41.4l-41.8-54.5c0,0,50,63,70.2,21.5c0,0-14.8-2.8-56-42
		c0,0,69,53.8,80.8-1.8c0,0-33.5,6.2-74.2-23c0,0,89.5,26.5,86.8-32C580.2,360,567,367.8,497.8,367.2z M226.7,314.3
		c27,37.7,81.7,41,81.7,41C221.3,357.7,226.7,314.3,226.7,314.3z M226.6,368c39.6,26.3,89.4,9.7,89.4,9.7
		C237.7,411,226.6,368,226.6,368z M240.3,423.3c44.7,5.3,83-33,83-33C268,455.3,240.3,423.3,240.3,423.3z M270.7,459.7
		c40.3-12,54-44.7,54-44.7C300,477.7,270.7,459.7,270.7,459.7z M294,486c35.7-22.3,39.7-57.7,39.7-57.7C326.7,494.7,294,486,294,486
		z M324.7,505.3c29.7-22.7,29-65.3,29-65.3C358.7,508.1,324.7,505.3,324.7,505.3z M352.7,507c20.5-22.5,15.7-53.8,15.7-53.8
		C380.3,504,352.7,507,352.7,507z M420.3,392.3c-0.2-2.7-0.6-2.9-0.6-2.9c-3.3,0.2-5.5,1.2-5.5,1.2c0.8,0.9,2.8,1.2,2.8,1.2
		c-0.4,1.2,1,3.1,1,3.1c-3.3,0.1-5.9,2.5-6.8,3.2c-0.8,0.7-3.3,1.9-3.3,0.9s-0.2-1.6-0.2-1.6c-24,11.8-26.5,29-26.5,29l-6.3,2.9
		c-0.1-5.8,0.8-10.3,0.8-10.3c-1.7,0.2-2.8,4.8-2.8,4.8c-1-5.8,3.4-15.6,3.4-15.6c-2.8,0.9-4.9,5.8-4.9,5.8
		c-0.3-8.1,7.6-17.6,7.6-17.6c-3.4,0.5-7.9,9.6-7.9,9.6c-0.5-4.8,1.2-8.8,1.2-8.8c-1.1-0.4-1.9,1.8-1.9,1.8
		c-0.4-2.1,0.5-4.9,0.5-4.9c-4,3.1-5.5,24.2-5.5,24.2c-2.1-2.6,0.4-10.2,0.4-10.2c-0.6-0.2-2,0.9-2,0.9c0.3-1.4,1.4-4.6,2.2-6
		s0.2-1.5-0.4-1.6s-1.8,1.6-1.8,1.6c-0.2-3.2,3.4-7.4,3.4-7.4v-2.8c6.9-8.8,11.2-12.4,11.2-12.4c-2.2-0.4-4.7,2.2-4.7,2.2
		c-0.7,0.2-2.4-0.2-1.9-0.6c8.7-7.5,10-8.1,8.9-8.9s-4,0.6-4,0.6s6.5-10.8,28.4-13.2s22.7,9.7,22.7,9.7c-2.2,0.1-3.2-1.1-3.2-1.1
		c-1.8,2.7-3.6,4.1-3.6,4.1c-0.3,3.7-3.2,7.9-3.2,7.9c3.2-1.9,4.5-6.5,4.5-6.5c13.7-5.2,23.6,3.8,23.4,11.2
		c-0.2,7.4-4.2,12.4-4.2,12.4c-6.5-18.1-26.9-11.7-32.6-10.3c-5.7,1.3-9.1,0.2-9.1,0.2c-0.6-1.9,0.7-3.2,0.7-3.2
		c-0.7-0.1-2.5,0.2-2.8,2.6c-0.3,2.3,3,3.6,7.1,3.3c4.1-0.2,12.4-3.3,19.9-2.7c7.5,0.7,11.2,7.5,11.2,7.5c-2.7,0.2-4.3,0.1-6.5-1.3
		C426.2,392.3,420.3,392.3,420.3,392.3z M447.3,507c0,0-27.7-3-15.7-53.8C431.7,453.2,426.8,484.5,447.3,507z M475.3,505.3
		c0,0-34,2.8-29-65.3C446.3,440.1,445.7,482.7,475.3,505.3z M506,486c0,0-32.7,8.7-39.7-57.7C466.3,428.3,470.3,463.7,506,486z
		 M573.3,314.3c0,0,5.3,43.3-81.7,41C491.7,355.3,546.3,352,573.3,314.3z M529.3,459.7c0,0-29.3,18-54-44.7
		C475.3,415,489,447.7,529.3,459.7z M559.7,423.3c0,0-27.7,32-83-33C476.7,390.3,515,428.7,559.7,423.3z M484,377.7
		c0,0,49.8,16.7,89.4-9.7C573.4,368,562.3,411,484,377.7z"/>
</g>
</svg>
