<?xml version="1.0" encoding="utf-8"?>
<!-- Generator: Adobe Illustrator 22.1.0, SVG Export Plug-In . SVG Version: 6.00 Build 0)  -->
<svg version="1.1" id="图层_1" xmlns="http://www.w3.org/2000/svg" xmlns:xlink="http://www.w3.org/1999/xlink" x="0px" y="0px"
	 viewBox="0 0 800 800" style="enable-background:new 0 0 800 800;" xml:space="preserve">
<style type="text/css">
	.st0{fill:#F7B400;}
</style>
<g>
	<g>
		<path class="st0" d="M338.4,285.3l-46.9,0l28.7,28.9l36.2,0c4.7,0,5.6-0.3,7.4-2.1c3.2-3.2,20.7-20.2,27.5-26.8v-41
			c-12.3,12-28.3,27.5-31.9,31.1C350.3,284.6,348,285.3,338.4,285.3z"/>
		<path class="st0" d="M474.2,337.5c0-5.3-5.3-5.7-5.3-5.7l-29.5,0c-6.7,0-9-0.6-15.6-7.2c-2.1-2.1-10.9-10.7-18.5-18
			c-3.3-3.2-7.1-3.6-10.7,0c-7.5,7.3-16.4,15.9-18.5,18c-6.7,6.7-8.3,7.2-15,7.2l-29.5,0c0,0-5.9-0.2-5.9,5.4c0,1.4,0,10.7,0,24
			c7.8,1.6,36.4,7.3,42.2,8.3c6.2,1.1,6.7,2.9,6.2,7.1c-0.3,2.8-3.3,41.7-3.7,45.7c-0.4,4,1.7,5.1,4,5.1c2.3,0,25.5,0,25.5,0
			s23.2,0,25.5,0c2.3,0,4.4-1.1,4-5.1c-0.4-4-3.3-42.9-3.7-45.7c-0.5-4.2-0.1-6,6.2-7.1c5.8-1,34.4-6.8,42.2-8.3
			C474.2,348,474.2,338.8,474.2,337.5z"/>
		<path class="st0" d="M397,507.7c1.1,1,4.9,1.1,5.9,0.1c7.9-7.7,18.6-18.1,20.9-20.4c0.3-0.3,0.6-0.6,1-0.9
			c-7.4-3.6-19.5-9.5-20.3-9.9c-1.2-0.5-3-1.7-4.5-1.7c-1.5,0-3.3,1.2-4.5,1.7c-0.8,0.4-12.9,6.3-20.3,9.9c0.3,0.3,0.6,0.6,1,0.9
			C378.5,489.7,389,500,397,507.7z"/>
		<path class="st0" d="M443.7,480.2h25.5c0,0,5-0.4,5-5.5c0-16.8,0-68.5,0-103.4c-5.8,3.4-22.9,13.3-25.3,15
			c-3.9,2.7-4.2,5.3-3.6,11.5c0.6,6.2,2.3,28.6,2.6,31.9c0.5,6.8-0.4,8.6-6.1,10.7c-7.8,2.8-31,12-31,12s0.2,4,4.8,8.2
			c3.6,3.3,17.7,14.8,23.8,19.7C440.8,480.2,442.2,480.2,443.7,480.2z"/>
		<path class="st0" d="M354.7,397.8c0.6-6.2,0.3-8.8-3.6-11.5c-2.5-1.7-19.5-11.6-25.3-15c0,35.4,0,87.5,0,103.8
			c0,4.5,5.1,5.1,5.1,5.1h25.5c1.5,0,2.9,0,4.3,0.1c6.1-4.9,20.2-16.4,23.8-19.7c4.6-4.2,4.8-8.2,4.8-8.2s-23.3-9.1-31-12
			c-5.8-2.1-6.7-3.9-6.1-10.7C352.4,426.4,354.1,404.1,354.7,397.8z"/>
		<path class="st0" d="M491.8,327.1v70.1h70.5l-35-35c-6.6-6.6-6.6-12.9-6.6-17.2V298L491.8,327.1z"/>
		<path class="st0" d="M308.2,485.4v-70.6h-70.5l35,35c6.6,6.6,6.6,12.9,6.6,17.2v47.6L308.2,485.4z"/>
		<path class="st0" d="M279.3,345c0,4.2,0,10.6-6.6,17.2l-35,35h70.5v-70.1L279.3,298V345z"/>
		<path class="st0" d="M359.3,536.5c3.6,3.6,19.6,19.1,31.9,31.1v-41c-6.8-6.6-24.3-23.6-27.5-26.8c-1.8-1.8-2.7-2-7.4-2l-2.8,0h-33
			L292,526.7l46.2,0C347.9,526.7,350.3,527.5,359.3,536.5z"/>
		<path class="st0" d="M603.3,203.6c-77.7,0-142.6,20.1-176.9,33.3c11.2,10.9,23.6,23,26.8,26.1c4.3,4.3,7.3,4.6,15,4.6l4.3,0h56.1
			c10.1,0,9.9,4.5,9.9,10.8v63.3c0,3,0,6.5,1.4,8l50.5,50.4c3.4,3.4,3.3,8.2-0.1,11.7l-50.4,50.4c-1.4,1.4-1.4,1.8-1.4,4.7v67.6
			c0,2.7,2.1,9.7-9.2,9.7l-61,0c-7.7,0-10.8,0.4-15,4.6c-2.9,2.9-13.8,13.5-24.3,23.7c25.8,9,46.1,29.6,54.6,55.7
			c73.8-32,125.5-65.7,125.5-142.6c0,0,0-273.6,0-276.7C608.9,206.1,606.3,203.6,603.3,203.6z"/>
		<path class="st0" d="M440.6,275.5c-3.6-3.6-19.5-19.1-31.8-31.1v41c6.8,6.6,24.3,23.6,27.5,26.8c1.8,1.8,2.7,2.1,7.4,2.1l2.7,0
			h33.4l28.7-28.9l-46.8,0C452,285.3,449.7,284.6,440.6,275.5z"/>
		<path class="st0" d="M346.9,549c-4.3-4.3-7.3-4.6-15-4.6l-4.3,0h-56.1c-11.3,0-9.8-5.7-9.8-11.4v-66c0-3,0-3.3-1.4-4.7l-50.4-50.4
			c-3.4-3.4-3.4-8.2,0-11.7l50.4-50.4c1.4-1.4,1.4-5,1.4-8v-62.7c0-7.2-0.4-11.4,9.2-11.4l61,0c7.7,0,10.8-0.4,15-4.6
			c3.2-3.2,15.5-15.2,26.8-26.1c-34.3-13.2-99.2-33.3-176.9-33.3c-3.1,0-5.7,2.5-5.7,5.4c0,3.1,0,276.7,0,276.7
			c0,76.9,51.7,110.6,125.5,142.6c8.5-26,28.8-46.7,54.6-55.7C360.7,562.5,349.8,551.9,346.9,549z"/>
		<path class="st0" d="M461.7,526.7l46.3,0l-28.7-28.9l-35.7,0c-4.7,0-5.6,0.3-7.4,2c-3.2,3.2-20.7,20.2-27.5,26.8v41
			c12.3-12,28.3-27.5,31.8-31.1C449.7,527.5,452,526.7,461.7,526.7z"/>
		<path class="st0" d="M520.7,467c0-4.2,0-10.6,6.6-17.2l35-35h-70.5v70.6l28.9,29.2V467z"/>
	</g>
	<path class="st0" d="M400,49c-183.6,0-266.8,82.1-266.8,82.1s0,313.8,0,365.1c0,127.6,105.2,168.2,173.8,197.6
		c45.6,19.5,66.5,30.2,93.1,57.2c26.5-27,47.4-37.7,93.1-57.2c68.5-29.3,173.8-70,173.8-197.6c0-51.3,0-365.1,0-365.1
		S583.6,49,400,49z M655.8,496.2c0,116.3-92.8,155.8-160.5,184.6l-6.6,2.8c-41.3,17.6-63.9,28.8-88.7,52
		c-24.8-23.2-47.5-34.3-88.7-52l-6.6-2.8c-67.7-28.8-160.5-68.4-160.5-184.6V136c7.3-6.2,26.9-21.5,59.4-36.5
		C242.3,81.5,307.8,60,400,60c92.2,0,157.7,21.5,196.5,39.5c32.4,15.1,52.1,30.3,59.4,36.5V496.2z"/>
	<path class="st0" d="M400,584.9c-31.9,0-58.9,21.2-67.7,50.2c7.1,3,14,6.1,20.6,9.2l3.4-4.2l19.9,5.8l4.2,13
		c7.2,4.4,13.8,9.1,19.6,14.1c5.8-5.1,12.4-9.7,19.6-14.1l4.1-13l19.9-5.8l3.4,4.2c6.7-3.1,13.6-6.2,20.6-9.2
		C458.9,606.1,431.9,584.9,400,584.9z M354.9,614.2l-9.2,2.3c9-12.5,22.2-21.8,37.5-25.7l-5,6.6L354.9,614.2z M377.8,642.1
		l-19.9-5.8l-0.4-19.2l21.2-15.3l18.8,5.9l0.1,20.6L377.8,642.1z M442.1,636.3l-19.9,5.8l-19.8-13.8l0.1-20.6l18.8-5.9l21.2,15.3
		L442.1,636.3z M421.7,597.4l-5-6.6c15.3,4,28.5,13.2,37.5,25.7l-9.2-2.3L421.7,597.4z"/>
	<path class="st0" d="M171.8,406c0,2.6-2.1,4.7-4.7,4.7c-2.6,0-4.7-2.1-4.7-4.7c0-2.6,2.1-4.7,4.7-4.7
		C169.7,401.3,171.8,403.4,171.8,406z"/>
	<path class="st0" d="M628.2,406c0,2.6,2.1,4.7,4.7,4.7c2.6,0,4.7-2.1,4.7-4.7c0-2.6-2.1-4.7-4.7-4.7
		C630.3,401.3,628.2,403.4,628.2,406z"/>
	<path class="st0" d="M395.3,696.6c0,2.6,2.1,4.7,4.7,4.7c2.6,0,4.7-2.1,4.7-4.7s-2.1-4.7-4.7-4.7
		C397.4,691.9,395.3,694,395.3,696.6z"/>
	<g>
		<path class="st0" d="M181.2,437.4h0.7v13.7h-0.7v-0.8c0-0.8-0.1-1.4-0.4-1.8c-0.2-0.3-0.5-0.6-0.9-0.8c-0.3-0.1-1.1-0.2-2.4-0.2
			h-12.6c-2.5,0-4.2-0.2-5.4-0.7c-1.1-0.5-2.1-1.4-2.8-2.6c-0.8-1.3-1.1-2.8-1.1-4.5c0-2.2,0.6-3.9,1.7-5.3c1.1-1.3,2.4-2,3.8-2
			c0.9,0,1.6,0.3,2.2,0.8c0.6,0.5,0.8,1.2,0.8,2c0,0.8-0.3,1.4-0.8,2c-0.5,0.5-1.1,0.8-1.8,0.8c-0.4,0-0.7,0-0.9-0.1
			c-0.1-0.1-0.4-0.3-1-0.6c-0.5-0.3-0.9-0.5-1.1-0.5c-0.3,0-0.6,0.2-0.9,0.5c-0.4,0.5-0.5,1.1-0.5,1.9c0,0.5,0.1,1,0.4,1.4
			c0.3,0.4,0.7,0.6,1.3,0.7c0.6,0.2,2.2,0.2,4.9,0.2h13.8c1.3,0,2.1-0.1,2.5-0.2c0.3-0.1,0.6-0.4,0.9-0.9c0.2-0.4,0.4-1,0.4-1.7
			V437.4z"/>
		<path class="st0" d="M156.8,465.7h-0.7v-13.4h0.7v0.9c0,0.7,0.1,1.3,0.4,1.8c0.2,0.3,0.5,0.6,0.9,0.8c0.3,0.1,1.1,0.2,2.4,0.2
			h16.9c1.3,0,2.1-0.1,2.5-0.2c0.3-0.1,0.6-0.4,0.9-0.8c0.2-0.4,0.4-1,0.4-1.7v-0.9h0.7v13.4h-0.7v-0.8c0-0.7-0.1-1.3-0.4-1.8
			c-0.2-0.3-0.5-0.6-0.9-0.8c-0.3-0.1-1.1-0.2-2.4-0.2h-16.9c-1.3,0-2.1,0.1-2.5,0.2c-0.3,0.1-0.6,0.4-0.9,0.8
			c-0.3,0.4-0.4,1-0.4,1.7V465.7z"/>
		<path class="st0" d="M163.5,482.9v-9.1l-2.5-1.1c-0.8-0.4-1.5-0.5-2.1-0.5c-0.7,0-1.3,0.3-1.6,0.9c-0.2,0.3-0.4,1.2-0.5,2.5h-0.7
			v-8.6h0.7c0.1,0.9,0.5,1.7,1.1,2.3c0.6,0.6,1.9,1.3,3.9,2.2l20.5,9.2v0.4l-21.1,9.3c-2,0.9-3.3,1.6-3.8,2.2
			c-0.4,0.4-0.6,1-0.7,1.8h-0.7V482h0.7v0.5c0,1,0.1,1.7,0.4,2.1c0.2,0.3,0.5,0.4,0.9,0.4c0.2,0,0.5,0,0.7-0.1
			c0.1,0,0.6-0.2,1.4-0.6L163.5,482.9z M164.9,482.3l8.9-3.8l-8.9-4V482.3z"/>
		<path class="st0" d="M182.1,504.9l-14.9,13.9l11-0.8c1.5-0.1,2.6-0.4,3.1-0.9c0.7-0.7,0.9-1.7,0.8-3.1l0.7,0l0.7,8.5l-0.7,0.1
			c-0.2-1.1-0.5-1.8-0.7-2.2c-0.2-0.4-0.6-0.6-1.1-0.8c-0.5-0.2-1.4-0.2-2.6-0.1l-21.4,1.7l0-0.7l20-19l-16.3,1.3
			c-1.5,0.1-2.5,0.5-2.9,1.2c-0.5,0.7-0.7,1.5-0.6,2.4l0,0.6l-0.7,0.1l-0.7-9.1l0.7-0.1c0.1,1.4,0.5,2.4,1.1,2.9
			c0.6,0.5,1.6,0.7,3,0.6l18.1-1.4l0.6-0.6c0.7-0.6,1.1-1.1,1.2-1.5c0.2-0.4,0.2-1,0.2-1.8l0.7-0.1L182.1,504.9z"/>
		<path class="st0" d="M190.9,547.4l-8.7,2.5l-0.2-0.7c2.2-1.5,3.6-3.2,4.4-5.2c0.8-2,0.9-3.9,0.3-5.9c-0.5-1.8-1.5-3.2-2.9-4.2
			c-1.4-0.9-3.1-1.4-5.1-1.4c-2,0-4,0.3-6,0.9c-2.4,0.7-4.4,1.5-6,2.6c-1.6,1.1-2.7,2.3-3.2,3.8c-0.5,1.5-0.5,3.1,0,4.8
			c0.2,0.6,0.4,1.2,0.7,1.8c0.3,0.6,0.7,1.2,1.1,1.8l5.1-1.5c1-0.3,1.6-0.5,1.8-0.7c0.2-0.2,0.4-0.6,0.5-1.1c0.1-0.5,0.1-1-0.1-1.6
			l-0.2-0.6l0.7-0.2l3.4,12l-0.7,0.2c-0.3-0.9-0.6-1.5-0.9-1.8c-0.3-0.3-0.7-0.5-1.2-0.6c-0.3,0-0.8,0.1-1.8,0.3l-5.1,1.5
			c-1.2-1.4-2.2-2.9-3-4.5c-0.8-1.6-1.5-3.3-2.1-5.2c-0.7-2.3-0.9-4.4-0.7-6.1c0.2-1.7,0.6-3.3,1.4-4.8c0.7-1.5,1.6-2.8,2.7-3.8
			c1.4-1.3,3.2-2.3,5.3-2.9c3.7-1.1,7.2-0.6,10.6,1.2c3.3,1.9,5.5,4.8,6.7,8.8c0.3,1.2,0.6,2.4,0.7,3.4c0.1,0.6,0,1.5-0.1,2.8
			c-0.1,1.3-0.1,2.1-0.1,2.3c0.1,0.4,0.3,0.6,0.6,0.9c0.3,0.2,0.9,0.4,1.6,0.4L190.9,547.4z"/>
		<path class="st0" d="M200.1,565l-7.5,4.2l-0.4-0.7c1.7-1.3,2.8-2.9,3.3-4.8c0.5-1.9,0.3-3.6-0.5-5c-0.6-1.1-1.4-1.9-2.4-2.2
			c-1-0.3-1.8-0.3-2.6,0.1c-0.5,0.3-0.9,0.6-1.2,1.1c-0.4,0.6-0.6,1.4-0.7,2.4c-0.1,0.7-0.1,2.3,0,4.7c0.1,3.4-0.2,5.8-0.8,7.4
			c-0.7,1.5-1.8,2.7-3.3,3.5c-1.9,1-3.9,1.1-6.1,0.4c-2.2-0.8-3.8-2.3-5.1-4.5c-0.4-0.7-0.7-1.4-0.9-2.1c-0.2-0.7-0.3-1.7-0.5-2.8
			c-0.1-0.7-0.2-1.2-0.4-1.5c-0.2-0.3-0.4-0.5-0.8-0.7c-0.4-0.2-0.9-0.3-1.5-0.3l-0.3-0.6l8.6-4.6l0.3,0.6c-2.1,1.8-3.5,3.7-4,5.8
			c-0.5,2.1-0.4,3.9,0.5,5.6c0.7,1.2,1.5,2.1,2.6,2.5c1.1,0.4,2.1,0.3,3-0.2c0.5-0.3,1-0.7,1.3-1.3c0.4-0.6,0.6-1.2,0.7-2.1
			c0.1-0.8,0.2-2.2,0.1-4c-0.1-2.6,0-4.5,0.2-5.8c0.2-1.3,0.7-2.4,1.3-3.4c0.6-1,1.5-1.7,2.5-2.3c1.8-1,3.7-1.1,5.7-0.5
			c2,0.6,3.5,2,4.6,4c0.4,0.7,0.7,1.5,0.9,2.3c0.1,0.6,0.2,1.4,0.3,2.3c0,0.9,0.1,1.6,0.3,1.9c0.2,0.3,0.4,0.5,0.6,0.5
			c0.3,0.1,0.8,0,1.5-0.2L200.1,565z"/>
		<path class="st0" d="M200.7,567.8l8.5,10.3l-0.6,0.5l-0.4-0.5c-0.6-0.8-1.2-1.2-1.6-1.4c-0.4-0.2-0.8-0.2-1.2-0.1
			c-0.4,0.1-1.1,0.6-2.3,1.6l-9.7,8c-1.8,1.5-2.8,2.6-3.2,3.3c-0.4,0.8-0.5,1.6-0.4,2.5c0.1,0.9,0.6,1.9,1.3,2.8
			c0.9,1.1,1.9,1.8,3,2.1c1.1,0.4,2.2,0.4,3.4,0c1.2-0.3,2.8-1.4,4.9-3.1l8.1-6.7c0.9-0.7,1.4-1.3,1.7-1.8c0.2-0.5,0.3-1,0.2-1.4
			c-0.2-0.6-0.6-1.3-1.2-2.2l0.6-0.5l5.7,6.9l-0.6,0.5l-0.3-0.4c-0.5-0.5-0.9-0.9-1.5-1.1c-0.5-0.2-1.1-0.2-1.7,0
			c-0.4,0.1-1,0.5-1.8,1.2l-7.5,6.2c-2.3,1.9-4.1,3.2-5.4,3.7c-1.3,0.5-2.9,0.6-4.7,0.1c-1.9-0.5-3.6-1.7-5.3-3.8
			c-1.4-1.7-2.3-3.2-2.6-4.5c-0.4-1.8-0.4-3.3,0.1-4.7c0.5-1.3,1.6-2.7,3.3-4l9.7-8c1.1-0.9,1.8-1.6,2-1.9c0.2-0.4,0.2-0.8,0.1-1.2
			c-0.1-0.4-0.5-1.1-1.2-1.9L200.7,567.8z"/>
		<path class="st0" d="M247.8,610.4l-4.7,7.2l-0.6-0.4c0.9-2,1.1-3.9,0.7-5.8c-0.4-1.9-1.4-3.3-2.7-4.3c-1.1-0.7-2.1-1-3.1-0.9
			c-1,0.1-1.8,0.6-2.3,1.3c-0.3,0.5-0.5,1-0.5,1.5c0,0.7,0.1,1.5,0.5,2.5c0.3,0.7,1,2,2.1,4.1c1.7,2.9,2.5,5.2,2.7,6.9
			c0.1,1.7-0.3,3.2-1.3,4.6c-1.2,1.8-2.9,2.8-5.2,3.2c-2.3,0.3-4.5-0.2-6.6-1.7c-0.7-0.5-1.3-1-1.8-1.5c-0.5-0.5-1.1-1.3-1.7-2.3
			c-0.4-0.5-0.7-0.9-1-1.2c-0.3-0.2-0.6-0.3-1.1-0.3c-0.4,0-0.9,0.1-1.4,0.4l-0.6-0.4l5.5-8l0.6,0.4c-1.1,2.6-1.4,4.9-0.9,7
			c0.5,2.1,1.5,3.7,3,4.7c1.2,0.8,2.3,1.1,3.5,1c1.1-0.2,2-0.7,2.6-1.5c0.3-0.5,0.5-1.1,0.6-1.7c0.1-0.7,0-1.4-0.3-2.2
			c-0.3-0.8-0.8-2-1.8-3.6c-1.3-2.3-2.1-4-2.5-5.3c-0.4-1.3-0.5-2.4-0.4-3.6c0.1-1.1,0.5-2.2,1.2-3.2c1.2-1.7,2.8-2.7,4.8-3
			c2.1-0.3,4,0.1,5.9,1.4c0.7,0.5,1.3,1,1.8,1.6c0.4,0.5,0.9,1.1,1.3,1.9c0.5,0.8,0.8,1.3,1.1,1.5c0.3,0.2,0.6,0.3,0.8,0.2
			c0.3-0.1,0.7-0.4,1.2-0.9L247.8,610.4z"/>
		<path class="st0" d="M250.9,613.2l11.7,6.4l-0.4,0.6l-0.6-0.3c-0.9-0.5-1.5-0.7-2-0.7c-0.4,0-0.8,0.1-1.1,0.4
			c-0.3,0.3-0.8,1-1.5,2.3l-6.1,11.1c-1.1,2-1.7,3.4-1.7,4.2c-0.1,0.8,0.1,1.7,0.6,2.5c0.5,0.8,1.2,1.5,2.3,2.1
			c1.2,0.7,2.4,1,3.6,0.9c1.2-0.1,2.2-0.5,3.2-1.2c1-0.7,2.1-2.3,3.4-4.7l5.1-9.2c0.5-1,0.8-1.8,0.9-2.3c0-0.5-0.1-1-0.3-1.3
			c-0.4-0.5-1-1-1.9-1.5l0.4-0.6l7.8,4.3l-0.4,0.6l-0.5-0.3c-0.6-0.3-1.2-0.5-1.8-0.5c-0.6,0-1.1,0.2-1.6,0.6
			c-0.3,0.3-0.7,0.9-1.2,1.8l-4.7,8.6c-1.5,2.6-2.7,4.5-3.7,5.4c-1,1-2.4,1.6-4.3,1.8c-1.9,0.3-4-0.3-6.4-1.6
			c-1.9-1.1-3.3-2.2-4.1-3.3c-1.1-1.5-1.6-3-1.6-4.4c0-1.4,0.5-3.1,1.5-5l6.1-11.1c0.7-1.3,1.1-2.1,1.1-2.5c0-0.4-0.1-0.8-0.3-1.2
			c-0.3-0.4-0.9-0.8-1.8-1.3L250.9,613.2z"/>
		<path class="st0" d="M283.3,630.2l4.8,19.8l4.6-10c0.7-1.4,0.9-2.5,0.7-3.1c-0.3-0.9-1-1.7-2.3-2.2l0.3-0.7l7.7,3.6l-0.3,0.7
			c-1.1-0.3-1.8-0.5-2.2-0.4c-0.4,0-0.8,0.3-1.2,0.6c-0.4,0.4-0.8,1.1-1.4,2.2l-9,19.4l-0.6-0.3l-6.8-26.7l-6.9,14.8
			c-0.6,1.4-0.7,2.4-0.4,3.2c0.4,0.8,1,1.3,1.8,1.7l0.5,0.3l-0.3,0.6l-8.3-3.8l0.3-0.6c1.3,0.6,2.3,0.7,3.1,0.4c0.7-0.3,1.4-1,2-2.3
			l7.6-16.5l-0.2-0.8c-0.2-0.9-0.5-1.5-0.7-1.8c-0.3-0.4-0.8-0.7-1.5-1.1l0.3-0.7L283.3,630.2z"/>
		<path class="st0" d="M302.9,666.3l-0.3,0.6l-12.3-5.3l0.3-0.6l0.8,0.3c0.7,0.3,1.3,0.4,1.8,0.4c0.4,0,0.7-0.2,1.1-0.6
			c0.2-0.2,0.6-0.9,1.1-2.1l6.7-15.5c0.5-1.2,0.8-2,0.8-2.3c0-0.4-0.1-0.7-0.4-1.1c-0.3-0.4-0.8-0.7-1.4-1l-0.8-0.3l0.3-0.7
			l12.3,5.3l-0.3,0.7l-0.8-0.3c-0.7-0.3-1.3-0.4-1.8-0.4c-0.4,0-0.7,0.2-1.1,0.5c-0.2,0.2-0.6,0.9-1.1,2.1l-6.7,15.5
			c-0.5,1.2-0.8,2-0.8,2.3c0,0.4,0.1,0.7,0.4,1.1c0.3,0.4,0.8,0.7,1.4,1L302.9,666.3z"/>
		<path class="st0" d="M322.7,647.5l5.4,19.7l4.4-10.2c0.6-1.4,0.8-2.5,0.7-3.2c-0.3-0.9-1.1-1.6-2.4-2.2l0.3-0.7l7.8,3.4l-0.3,0.7
			c-1.1-0.3-1.8-0.4-2.2-0.4c-0.4,0.1-0.8,0.3-1.2,0.6c-0.4,0.4-0.8,1.1-1.3,2.3l-8.5,19.7l-0.6-0.3l-7.5-26.5l-6.4,15
			c-0.6,1.4-0.7,2.4-0.3,3.2c0.4,0.7,1,1.3,1.8,1.6l0.5,0.2l-0.3,0.6l-8.4-3.6l0.3-0.6c1.3,0.5,2.3,0.7,3.1,0.4
			c0.7-0.3,1.4-1.1,1.9-2.3l7.2-16.7l-0.2-0.8c-0.2-0.9-0.5-1.5-0.8-1.8c-0.3-0.4-0.8-0.7-1.5-1l0.3-0.7L322.7,647.5z"/>
		<path class="st0" d="M365.1,665.8l-3.8,8.2l-0.6-0.3c0.3-2.6-0.1-4.9-1.1-6.8c-1-1.9-2.4-3.2-4.2-4.1c-1.7-0.8-3.4-1-5-0.5
			c-1.6,0.4-3.1,1.4-4.4,3c-1.3,1.5-2.4,3.2-3.2,5.1c-1,2.2-1.7,4.3-1.9,6.2c-0.3,1.9,0,3.6,0.8,4.9c0.8,1.3,2,2.4,3.6,3.1
			c0.6,0.3,1.2,0.5,1.8,0.6c0.6,0.2,1.3,0.3,2.1,0.3l2.3-4.8c0.4-0.9,0.6-1.6,0.6-1.9c0-0.3-0.1-0.7-0.4-1.1c-0.3-0.4-0.7-0.7-1.3-1
			l-0.6-0.3l0.3-0.6l11.3,5.3l-0.3,0.6c-0.9-0.3-1.5-0.5-2-0.5c-0.4,0-0.8,0.2-1.2,0.5c-0.2,0.2-0.5,0.7-0.9,1.5l-2.3,4.8
			c-1.8,0-3.6-0.2-5.4-0.6c-1.8-0.4-3.5-1-5.3-1.8c-2.2-1-3.9-2.2-5.1-3.5c-1.2-1.3-2.1-2.7-2.8-4.2c-0.7-1.5-1-3-1.1-4.5
			c-0.1-2,0.4-3.9,1.3-5.9c1.6-3.5,4.3-5.9,7.8-7.2c3.6-1.3,7.3-1,11,0.7c1.2,0.5,2.2,1.1,3,1.7c0.5,0.3,1.2,1,2.1,1.9
			c0.9,1,1.5,1.5,1.7,1.6c0.3,0.2,0.7,0.2,1.1,0.1c0.4-0.1,0.8-0.4,1.4-1L365.1,665.8z"/>
		<path class="st0" d="M443.9,663.9l4.5,9.6l0.7-0.3c1-0.5,1.8-1,2.3-1.7c0.5-0.6,0.8-1.4,0.9-2.3c0.1-0.9-0.1-2.1-0.5-3.4l0.6-0.3
			l5.5,11.7l-0.6,0.3c-1.3-2.1-2.5-3.3-3.8-3.5c-1.3-0.3-2.6-0.1-3.8,0.5l-0.7,0.3l3.4,7.1c0.6,1.2,1,1.9,1.2,2.1
			c0.3,0.2,0.7,0.4,1.1,0.4c0.5,0,1.1-0.1,1.7-0.4l0.8-0.4l0.3,0.6l-12.2,5.7l-0.3-0.6l0.8-0.4c0.7-0.3,1.2-0.7,1.5-1.1
			c0.2-0.3,0.3-0.7,0.3-1.2c0-0.3-0.3-1.1-0.8-2.2l-7.2-15.3c-0.5-1.2-1-1.9-1.2-2.1c-0.3-0.2-0.6-0.4-1.1-0.4c-0.5,0-1,0.1-1.7,0.4
			l-0.8,0.4l-0.3-0.7l19.7-9.2l3.2,6.7l-0.7,0.3c-0.9-1.5-1.9-2.5-2.9-2.9c-1-0.5-2.2-0.5-3.6-0.3c-0.8,0.2-2.1,0.7-3.9,1.6
			L443.9,663.9z"/>
		<path class="st0" d="M470.3,650.1c3.5-1.5,6.9-1.7,10-0.4c3.4,1.3,5.8,3.7,7.3,7.2c1.3,3,1.6,6,0.8,9.1c-1,4-3.7,6.9-7.9,8.8
			c-4.3,1.8-8.2,1.8-11.7-0.1c-2.8-1.5-4.9-3.8-6.2-6.9c-1.5-3.5-1.6-6.9-0.2-10.3c1.3-3.2,3.6-5.5,6.9-6.9L470.3,650.1z
			 M470.4,651.4c-2.2,0.9-3.3,2.8-3.5,5.4c-0.1,2.2,0.5,5,2,8.4c1.7,4,3.7,6.7,6,8c1.6,0.9,3.2,1,5,0.2c1.2-0.5,2.1-1.2,2.6-2.1
			c0.7-1.2,1-2.7,0.8-4.6c-0.1-1.9-0.8-4.1-1.9-6.8c-1.3-3.1-2.6-5.3-3.9-6.6c-1.2-1.3-2.5-2.1-3.6-2.3
			C472.8,650.7,471.6,650.9,470.4,651.4z"/>
		<path class="st0" d="M497.8,638.3c3.5-1.5,6.9-1.7,10-0.5c3.4,1.3,5.8,3.7,7.3,7.2c1.3,3,1.6,6,0.8,9.1c-1,4-3.6,7-7.8,8.8
			c-4.2,1.9-8.1,1.9-11.7,0c-2.8-1.5-4.9-3.8-6.3-6.9c-1.5-3.5-1.6-6.9-0.3-10.3c1.3-3.2,3.6-5.5,6.8-6.9L497.8,638.3z M498,639.5
			c-2.2,1-3.3,2.8-3.5,5.5c-0.1,2.2,0.6,5,2,8.4c1.8,4,3.8,6.7,6,8c1.6,0.9,3.2,1,5,0.2c1.2-0.5,2.1-1.2,2.6-2.2
			c0.7-1.2,1-2.7,0.8-4.6c-0.2-1.9-0.8-4.1-2-6.8c-1.4-3.1-2.7-5.3-3.9-6.6c-1.3-1.3-2.5-2.1-3.6-2.3
			C500.3,638.9,499.2,639,498,639.5z"/>
		<path class="st0" d="M532.9,622.2l3.1,6.3l-0.6,0.3c-1.1-1.3-2-2.1-2.7-2.5c-0.7-0.4-1.6-0.6-2.5-0.6c-0.5,0-1.3,0.3-2.4,0.8
			l-1.7,0.8l8.7,17.8c0.6,1.2,1,1.9,1.3,2.1c0.3,0.2,0.7,0.4,1.2,0.4c0.5,0,1.1-0.1,1.7-0.4l0.8-0.4l0.3,0.6l-12.1,5.9l-0.3-0.6
			l0.8-0.4c0.7-0.3,1.1-0.7,1.4-1.1c0.2-0.3,0.3-0.7,0.3-1.2c0-0.3-0.3-1.1-0.8-2.2l-8.7-17.8l-1.7,0.8c-1.5,0.7-2.5,1.6-2.9,2.6
			c-0.5,1.4-0.5,3,0.1,4.9l-0.6,0.3l-3.1-6.3L532.9,622.2z"/>
		<path class="st0" d="M554.8,623.6c2.4-0.8,4.2-1,5.5-0.8c1.8,0.3,3.2,1.2,4.1,2.8c1,1.7,1.1,3.5,0.4,5.3c-0.9,2.3-2.9,4.3-6,6.2
			l-11.3,6.6l-0.3-0.6c1-0.6,1.7-1.1,1.9-1.5c0.3-0.4,0.4-0.8,0.3-1.2c0-0.4-0.4-1.2-1.1-2.4l-8.5-14.4c-0.7-1.2-1.2-1.9-1.6-2.1
			c-0.3-0.2-0.7-0.3-1.2-0.3c-0.5,0-1.2,0.4-2.2,1l-0.4-0.6l10.6-6.3c2.5-1.5,4.5-2.3,5.8-2.5c1.3-0.2,2.6,0,3.7,0.6
			c1.1,0.5,2,1.3,2.6,2.3c0.6,1.1,0.8,2.3,0.5,3.5C557.4,620.5,556.4,622,554.8,623.6z M548.6,626.7c1.5-0.9,2.6-1.8,3.1-2.5
			c0.5-0.8,0.8-1.6,0.8-2.5c0-0.9-0.3-1.8-0.8-2.8c-0.6-1-1.2-1.7-2-2.1c-0.8-0.4-1.6-0.5-2.5-0.5c-0.9,0.1-2.2,0.6-3.7,1.6
			L548.6,626.7z M549.3,627.9l4.2,7.1l0.5,0.8c0.3,0.6,0.7,0.9,1.2,1.1c0.5,0.1,1,0,1.6-0.3c0.9-0.5,1.6-1.2,2.1-2
			c0.5-0.8,0.7-1.7,0.7-2.7c0-1-0.3-1.9-0.9-2.8c-0.6-1-1.4-1.8-2.4-2.4c-1-0.5-2-0.7-3-0.6C552.3,626.4,551,627,549.3,627.9z"/>
		<path class="st0" d="M579.5,614.3l-7.2,5.5l0.7,2.6c0.2,0.9,0.5,1.5,0.8,2c0.4,0.6,1,0.8,1.7,0.8c0.4-0.1,1.2-0.4,2.3-1.2l0.4,0.5
			l-6.8,5.2l-0.4-0.5c0.7-0.7,1-1.4,1.1-2.3c0.1-0.9-0.1-2.3-0.6-4.4l-5.1-21.9l0.3-0.2l20.2,11.2c1.9,1.1,3.3,1.6,4,1.7
			c0.6,0.1,1.2-0.1,1.8-0.5l0.4,0.5l-9.9,7.5l-0.4-0.5l0.4-0.3c0.8-0.6,1.3-1.1,1.4-1.6c0.1-0.3,0-0.7-0.2-1
			c-0.1-0.2-0.3-0.3-0.5-0.5c-0.1-0.1-0.5-0.3-1.3-0.8L579.5,614.3z M578.2,613.5l-8.4-4.7l2.2,9.4L578.2,613.5z"/>
		<path class="st0" d="M605.9,586.7l5.9,6.9l-15.6,16.7l-0.5-0.5l0.6-0.6c0.5-0.5,0.8-1.1,0.9-1.6c0.1-0.4,0-0.7-0.2-1.2
			c-0.1-0.3-0.7-0.9-1.6-1.8l-12.4-11.5c-1-0.9-1.6-1.4-1.9-1.5c-0.3-0.1-0.7-0.1-1.2,0c-0.5,0.1-0.9,0.5-1.4,1l-0.6,0.6l-0.5-0.5
			l9.4-10l0.5,0.5l-0.7,0.8c-0.5,0.5-0.8,1.1-1,1.6c-0.1,0.3,0,0.7,0.1,1.2c0.1,0.3,0.7,0.9,1.6,1.8l12,11.2c1,0.9,1.6,1.4,2,1.5
			c0.4,0.1,0.8,0.1,1.2-0.1c0.3-0.2,0.9-0.7,1.7-1.6l1.5-1.6c0.9-1,1.5-2,1.8-3c0.3-1,0.3-2.1,0-3.3c-0.3-1.2-1-2.7-2.1-4.5
			L605.9,586.7z"/>
		<path class="st0" d="M621.1,562.9l7.2,5.5L616.4,588l-0.6-0.4l0.5-0.7c0.4-0.6,0.6-1.2,0.6-1.7c0-0.4-0.1-0.7-0.4-1.1
			c-0.2-0.3-0.8-0.7-1.9-1.4l-14.5-8.8c-1.1-0.7-1.8-1-2.2-1.1c-0.4,0-0.7,0-1.2,0.3c-0.4,0.2-0.8,0.7-1.2,1.3L595,575l-0.6-0.4
			l7.1-11.7l0.6,0.4l-0.6,1c-0.4,0.6-0.6,1.2-0.6,1.8c0,0.4,0.1,0.7,0.4,1.1c0.2,0.3,0.8,0.7,1.9,1.4l14,8.5c1.1,0.7,1.9,1,2.3,1.1
			c0.4,0.1,0.8-0.1,1.1-0.3c0.3-0.2,0.7-0.8,1.3-1.9l1.1-1.8c0.7-1.2,1.1-2.3,1.1-3.3c0.1-1-0.2-2.1-0.7-3.2s-1.5-2.4-3-4
			L621.1,562.9z"/>
		<path class="st0" d="M617.2,513l8.8,1.6l-0.1,0.7c-2.4,0.1-4.3,0.8-5.8,2.1c-1.5,1.3-2.4,2.8-2.8,4.7c-0.3,1.6-0.1,3.1,0.5,4.6
			c0.7,1.5,1.7,2.7,3,3.6c1.7,1.1,3.8,1.9,6.1,2.4c2.3,0.4,4.4,0.5,6.3,0.3c2-0.2,3.5-0.9,4.7-1.9c1.2-1,2-2.5,2.3-4.5
			c0.3-1.6,0.2-3.1-0.2-4.6c-0.4-1.5-1.4-3.1-2.8-4.9l2.2,0.4c1.2,1.7,2,3.4,2.4,5c0.4,1.7,0.4,3.5,0,5.6c-0.5,2.7-1.5,5-3,6.9
			c-1.5,1.9-3.3,3.2-5.6,4c-2.2,0.8-4.5,0.9-6.8,0.5c-2.4-0.5-4.6-1.5-6.5-3.2c-1.9-1.7-3.3-3.7-4.1-6c-0.8-2.4-0.9-4.8-0.5-7.2
			c0.3-1.8,1.1-3.6,2.2-5.4c0.7-1.1,1-1.7,1.1-2.1c0.1-0.4,0-0.8-0.2-1.1c-0.2-0.3-0.7-0.6-1.3-0.8L617.2,513z"/>
		<path class="st0" d="M635,487.8l9,1.1l-0.4,22.9l-0.7,0l0-0.9c0-0.7-0.1-1.3-0.4-1.8c-0.2-0.3-0.5-0.6-0.9-0.8
			c-0.3-0.1-1.1-0.2-2.4-0.2l-16.9-0.3c-1.3,0-2.1,0-2.5,0.2c-0.3,0.1-0.6,0.4-0.9,0.8c-0.3,0.4-0.4,1-0.4,1.7l0,0.9l-0.7,0
			l0.2-13.7l0.7,0l0,1.1c0,0.7,0.1,1.3,0.4,1.8c0.2,0.3,0.5,0.6,0.9,0.8c0.3,0.1,1.1,0.2,2.4,0.2l16.4,0.3c1.3,0,2.1,0,2.5-0.2
			c0.4-0.2,0.6-0.4,0.8-0.9c0.1-0.3,0.2-1.1,0.2-2.3l0-2.2c0-1.4-0.2-2.5-0.7-3.4c-0.5-0.9-1.2-1.7-2.2-2.4c-1-0.7-2.5-1.3-4.6-2
			L635,487.8z"/>
		<path class="st0" d="M618.1,486v-13.3h0.7v0.7c0,1,0.1,1.7,0.3,2.1c0.2,0.4,0.5,0.6,0.9,0.8c0.4,0.2,1.3,0.2,2.7,0.2h12.6
			c2.3,0,3.8-0.2,4.5-0.5c0.8-0.3,1.4-0.9,1.9-1.7c0.5-0.8,0.7-1.8,0.7-3c0-1.4-0.3-2.6-0.9-3.6c-0.6-1-1.5-1.7-2.6-2.2
			c-1.1-0.5-3-0.7-5.7-0.7h-10.5c-1.1,0-2,0.1-2.5,0.4c-0.5,0.2-0.8,0.5-1,0.9c-0.3,0.6-0.4,1.4-0.4,2.4h-0.7v-8.9h0.7v0.5
			c0,0.7,0.1,1.3,0.4,1.8c0.3,0.5,0.7,0.8,1.3,1.1c0.4,0.1,1.1,0.2,2.2,0.2h9.8c3,0,5.2,0.2,6.5,0.6c1.3,0.4,2.6,1.4,3.7,2.9
			c1.1,1.5,1.7,3.7,1.7,6.3c0,2.2-0.3,3.9-0.9,5.2c-0.8,1.7-1.8,2.8-3.1,3.5c-1.3,0.7-3,1-5.1,1h-12.6c-1.5,0-2.4,0.1-2.8,0.2
			c-0.4,0.2-0.7,0.4-0.9,0.9c-0.2,0.4-0.3,1.2-0.3,2.2H618.1z"/>
		<path class="st0" d="M630.2,439.8c0.6-2.4,1.2-4.2,2.1-5.2c1.2-1.4,2.6-2.1,4.5-2.1c1.9,0,3.5,0.8,4.8,2.4
			c1.5,1.9,2.3,4.7,2.3,8.3v13.1h-0.7c0-1.2-0.1-2-0.3-2.4c-0.2-0.4-0.5-0.7-0.9-0.9c-0.4-0.2-1.2-0.3-2.6-0.3h-16.7
			c-1.4,0-2.3,0.1-2.6,0.3c-0.4,0.2-0.7,0.5-0.9,0.9c-0.2,0.4-0.3,1.2-0.3,2.4h-0.7v-12.3c0-3,0.3-5,0.8-6.3
			c0.5-1.2,1.3-2.2,2.4-2.9c1-0.7,2.2-1.1,3.3-1.1c1.3,0,2.4,0.5,3.3,1.4C628.9,435.9,629.6,437.5,630.2,439.8z M629.7,446.7
			c0-1.8-0.2-3.1-0.6-4c-0.4-0.9-1-1.5-1.7-2c-0.7-0.5-1.7-0.7-2.8-0.7c-1.1,0-2.1,0.2-2.8,0.7c-0.7,0.5-1.3,1.1-1.7,1.9
			c-0.4,0.8-0.6,2.2-0.5,4H629.7z M631.2,446.7h8.3l1,0c0.7,0,1.2-0.2,1.5-0.5c0.3-0.3,0.5-0.9,0.5-1.5c0-1-0.2-2-0.7-2.8
			c-0.5-0.8-1.1-1.5-2-2c-0.9-0.5-1.8-0.7-2.9-0.7c-1.2,0-2.3,0.3-3.2,0.8c-1,0.5-1.6,1.3-2,2.3
			C631.3,443.3,631.1,444.8,631.2,446.7z"/>
	</g>
	<g>
		<path class="st0" d="M270.6,120.6v10.1c0,0-12.9-3-27.9-3c-15,0-19.5,2.1-19.5,8.9c0,6.8,11.6,7.1,19.2,7.7
			c8.1,0.6,30.9-1.6,30.9,17.4c0,17.1-18.2,18.2-30.3,18.2c-12.2,0-28.4-2.7-28.4-2.7v-10.4c0,0,12,3.8,27.5,3.8
			c15.5,0,20.4-2.4,20.4-8.3c0-5.9-3-8.3-16.1-8.9c-13.1-0.6-33.6,0.9-33.6-16.8c0-15.5,12.6-18.2,31.8-18.2
			C257.5,118.3,270.6,120.6,270.6,120.6z"/>
		<path class="st0" d="M342.7,155.2c0-14.9,0-36.3,0-36.3h-11.5c0,0,0,31.1,0,36.9c0,5.9-2.4,14.4-18.8,14.4
			c-16.4,0-18.8-8.5-18.8-14.4c0-5.9,0-36.9,0-36.9h-11.5c0,0,0,21.4,0,36.3c0,13.3,7.4,24.6,30.3,24.6
			C335.4,179.8,342.7,168.4,342.7,155.2z"/>
		<path class="st0" d="M354.5,118.9H367c0,0,19.7,19.8,36.3,45v-45h11.6v59.2h-14.1c0,0-21.4-30-34.9-44.3v44.3h-11.4V118.9z"/>
		<rect x="429" y="118.9" class="st0" width="11.9" height="59.2"/>
		<path class="st0" d="M454.9,118.9h12.5c0,0,19.7,19.8,36.3,45v-45h11.6v59.2h-14.1c0,0-21.4-30-34.9-44.3v44.3h-11.4V118.9z"/>
		<path class="st0" d="M586.7,121v9.9c0,0-9.2-3.1-23.3-3.1s-25.1,0.4-25.1,22.2c0,23,17.2,20.4,23.4,20.4c9.3,0,14.6-2.1,14.6-2.1
			v-21.4h10.8v28.8c0,0-13.6,4.2-25.8,4.2c-34.2,0-33.7-20.3-33.7-30.9c0-10.6-1.1-30.6,34.5-30.6C580.5,118.2,586.7,121,586.7,121z
			"/>
	</g>
</g>
</svg>
