<?xml version="1.0" encoding="utf-8"?>
<!-- Generator: Adobe Illustrator 22.1.0, SVG Export Plug-In . SVG Version: 6.00 Build 0)  -->
<svg version="1.1" id="图层_1" xmlns="http://www.w3.org/2000/svg" xmlns:xlink="http://www.w3.org/1999/xlink" x="0px" y="0px"
	 viewBox="0 0 800 800" style="enable-background:new 0 0 800 800;" xml:space="preserve">
<style type="text/css">
	.st0{fill-rule:evenodd;clip-rule:evenodd;fill:#FFFFFF;}
	.st1{fill-rule:evenodd;clip-rule:evenodd;fill:#00583B;}
	.st2{fill-rule:evenodd;clip-rule:evenodd;fill:#67AF28;}
	.st3{fill-rule:evenodd;clip-rule:evenodd;fill:#231815;}
	.st4{fill:#EAB400;}
</style>
<g>
	<path class="st0" d="M399.8,640.3c-28.3-34.8-94.5-54.1-94.5-54.1c-94.5-30.5-88.1-124.6-88.1-128.5l0-297.2
		c73.5,63.8,182.6,64.5,182.6,64.5s110.2-2.4,183.7-66.2l-1.1,298.9c0,3.9,6.5,97.9-88.1,128.5C494.3,586.2,428.1,605.6,399.8,640.3
		z"/>
	<path class="st1" d="M399.8,623.3c-26.2-32.2-87.7-50.2-87.7-50.2c-87.7-28.3-81.7-115.6-81.7-119.2l1.5-267.6
		c68.2,59.2,167.9,51.7,167.9,51.7s99.7,7.5,167.9-51.7l1.5,267.6c0,3.6,6,90.9-81.7,119.2C487.5,573.1,426,591.1,399.8,623.3z"/>
	<path class="st2" d="M307.4,571.5c-45.6-16.4-64.3-49.3-72-76.2l274.9-275c19.7-7.7,39.6-18.6,57.4-34l0.7,124L307.4,571.5z"/>
	<path class="st3" d="M399.4,658.4c21.1-39.4,102.3-61.7,102.3-61.7c89.7-29.2,92-133.2,92-133.2l-0.4-338
		c-88.9,119.7-298.8,119.6-387.6,0l-0.4,338c0,0,2.3,104,92,133.2c0,0,81.1,22.3,102.3,61.7H399.4L399.4,658.4z M218.5,163.6
		c91.1,87.4,270.7,87.5,361.9,0l0.6,300c0,0-2,92.2-81.6,118c0,1.2-79.3,22.7-100,55.2c-20.7-32.5-100-54-100-55.2
		c-79.5-25.8-81.6-118-81.6-118L218.5,163.6L218.5,163.6z"/>
	<path class="st0" d="M474.3,347c0,0,29.3,32.8,18.3,78.8c-5.8-14.1-11.3-28.7-22.6-35.1C476.6,377.4,476,362.3,474.3,347L474.3,347
		z M488.1,441.4L488.1,441.4c0,0-14.8,41.4-60.6,53.6c9.6-11.8,19.9-23.6,20-36.6C462.5,457.9,475.5,450.2,488.1,441.4L488.1,441.4z
		 M413.5,499.6L413.5,499.6c0,0-43.1,8.8-77.2-24.1c15.1,2.1,30.5,4.8,41.7-1.8C386.2,486.3,399.5,493.3,413.5,499.6L413.5,499.6z
		 M323.9,462.7L323.9,462.7c0,0-28.5-33.5-16.3-79.2c5.4,14.3,10.5,29,21.7,35.7C322.4,432.3,322.7,447.4,323.9,462.7L323.9,462.7z
		 M312,368.7L312,368.7c0,0,14.8-41.4,60.6-53.6c-9.7,11.8-19.9,23.6-20.1,36.6C337.6,352.2,324.7,360,312,368.7L312,368.7z
		 M387.4,312.3L387.4,312.3c0,0,43.1-8.8,77.2,24c-15.1-2.1-30.5-4.8-41.7,1.8C414.7,325.6,401.5,318.6,387.4,312.3z"/>
	<path class="st0" d="M399,352.1c3.5,0,7,0.4,10.3,1c-20.3,3.8-35.8,21.6-35.8,43c0,24.1,19.7,43.8,43.7,43.8
		c11.4,0,21.8-4.4,29.6-11.6c-8.6,17.9-26.9,30.2-47.9,30.2c-29.3,0-53.2-23.9-53.2-53.2C345.9,376,369.7,352.1,399,352.1z"/>
	<path class="st0" d="M424,391.2c-0.9,0.5-29.1,3.1-26.5-17.7c0-0.5,3.5-1.5,7.5-0.7c-1-4-0.2-7.5,0.4-7.5
		C426.1,362.1,424.5,390.3,424,391.2z"/>
	<path class="st0" d="M427.6,391.2c0.9,0.5,29.1,3.1,26.5-17.7c0-0.5-3.5-1.5-7.5-0.7c1-4,0.2-7.5-0.4-7.5
		C425.6,362.1,427.2,390.3,427.6,391.2z"/>
	<path class="st0" d="M424,395c-0.9-0.4-29.1-3.1-26.5,17.7c0,0.5,3.5,1.5,7.5,0.6c-1,4-0.2,7.6,0.4,7.6
		C426.1,424.1,424.5,395.9,424,395z"/>
	<path class="st0" d="M427.6,395c0.9-0.4,29.1-3.1,26.5,17.7c0,0.5-3.5,1.5-7.5,0.6c1,4,0.2,7.6-0.4,7.6
		C425.6,424.1,427.2,395.9,427.6,395z"/>
	<rect x="267" y="277" class="st0" width="15.6" height="2.4"/>
	<rect x="267" y="286.9" class="st0" width="15.6" height="2.4"/>
	<rect x="267" y="278.4" class="st0" width="2.4" height="10.9"/>
	<rect x="279.6" y="283.1" class="st0" width="2.9" height="6.1"/>
	<rect x="272.3" y="282.1" class="st0" width="10.2" height="2.4"/>
	<rect x="298.3" y="277" class="st0" width="13.6" height="2.4"/>
	<rect x="298.3" y="282.1" class="st0" width="13.6" height="2.4"/>
	<rect x="298.1" y="277" class="st0" width="2.6" height="12.3"/>
	<rect x="311.3" y="285.1" class="st0" width="2.4" height="4.3"/>
	<rect x="311.3" y="282.1" class="st0" width="1.3" height="3.5"/>
	<rect x="312.2" y="284.1" class="st0" width="1.3" height="3.6"/>
	<rect x="311.9" y="277" class="st0" width="1.9" height="3"/>
	<rect x="311.6" y="279.4" class="st0" width="2.4" height="3"/>
	<rect x="312.3" y="279.4" class="st0" width="1.3" height="3.5"/>
	<rect x="329.6" y="277" class="st0" width="14.4" height="2.4"/>
	<rect x="329.9" y="282.1" class="st0" width="14.1" height="2.4"/>
	<rect x="329.9" y="286.9" class="st0" width="14.1" height="2.4"/>
	<rect x="329.6" y="277.5" class="st0" width="2.8" height="11.8"/>
	<rect x="389.7" y="279.8" class="st0" width="2.5" height="9.5"/>
	<rect x="401.9" y="278.9" class="st0" width="2.4" height="10.4"/>
	<rect x="392.1" y="277" class="st0" width="12.2" height="2.8"/>
	<rect x="515.3" y="279.8" class="st0" width="2.4" height="9.5"/>
	<rect x="527.5" y="278.9" class="st0" width="2.4" height="10.4"/>
	<rect x="517.7" y="277" class="st0" width="12.2" height="2.8"/>
	<rect x="481.2" y="277" class="st0" width="2.4" height="10.4"/>
	<rect x="489" y="277" class="st0" width="2.8" height="10.2"/>
	<rect x="481.2" y="286.6" class="st0" width="7.8" height="2.8"/>
	<rect x="491.9" y="286.6" class="st0" width="7.8" height="2.8"/>
	<rect x="497.2" y="277" class="st0" width="2.4" height="10.4"/>
	<rect x="419.9" y="277" class="st0" width="15.2" height="2.4"/>
	<rect x="426.2" y="277" class="st0" width="2.6" height="12.3"/>
	<rect x="454.2" y="286.9" class="st0" width="8.2" height="2.4"/>
	<rect x="450.8" y="279.5" class="st0" width="2.4" height="7.3"/>
	<rect x="463.2" y="279.5" class="st0" width="2.4" height="7.3"/>
	<rect x="454.2" y="277.1" class="st0" width="8.2" height="2.4"/>
	<rect x="359.7" y="277" class="st0" width="14.4" height="2.4"/>
	<rect x="359.9" y="282.1" class="st0" width="14.1" height="2.4"/>
	<rect x="359.9" y="286.9" class="st0" width="14.1" height="2.4"/>
	<rect x="359.7" y="277.5" class="st0" width="2.8" height="11.8"/>
	<path class="st4" d="M732.5,592c-16.1-3.9-28.4-4.3-36.9-21.4c-8.4-17.1-1.2-28.9,8.2-37.4c9.4-8.4,30.6-50.1-6.7-81.7
		c-37.4-31.6-89.2-14.2-98.6,26.5c-7.6,36.3,8.6,65,13.7,73.5c4.9,8.7,54.9,108.8-6.9,94c-54.9-15.9-65.1-39.8-77.4-54.2
		c-12.3-14.5-51-72.7-128-72.7s-115.7,58.2-128,72.7s-22.4,38.3-77.4,54.2c-61.8,14.8-11.8-85.3-6.9-94c5.1-8.5,21.3-37.2,13.7-73.5
		c-9.4-40.7-61.2-58.1-98.6-26.5c-37.4,31.6-16.1,73.3-6.7,81.7c9.4,8.4,16.6,20.2,8.2,37.4C96,587.7,83.7,588.1,67.5,592
		c-16.1,3.9-22.2,26.3-13.7,33c8.4,6.7,2.4,18.6,2.4,18.6s10.4,0.7,5.5-17.4c-3.9-14.2,6.5-28.4,23.4-31.8
		c46-11.1,31.8-40,25.5-49.2c-6.3-9.2-16.4-41.5,4.8-66c21.2-24.6,54.9-23.1,69.9-16.4c14.9,6.7,9.6,53-13,78.1
		c-22.7,25.1-51.8,87.2-25.1,120.5s91.1-3.9,108-31.8c16.9-28,21.2-34.7,37.1-46.3C343,546.2,400,550.8,400,550.8s57-4.6,107.6,32.5
		c15.9,11.6,20.2,18.3,37.1,46.3c16.9,28,81.2,65.1,108,31.8c26.8-33.3-2.4-95.4-25.1-120.5c-22.7-25.1-28-71.3-13-78.1
		c14.9-6.7,48.7-8.2,69.9,16.4c21.2,24.6,11.1,56.9,4.8,66c-6.3,9.2-20.5,38.1,25.5,49.2c16.9,3.4,27.2,17.6,23.4,31.8
		c-4.8,18.1,5.5,17.4,5.5,17.4s-6-11.8,2.4-18.6C754.6,618.3,748.6,595.9,732.5,592z"/>
</g>
</svg>
