<?xml version="1.0" encoding="utf-8"?>
<!-- Generator: Adobe Illustrator 22.1.0, SVG Export Plug-In . SVG Version: 6.00 Build 0)  -->
<svg version="1.1" id="图层_1" xmlns="http://www.w3.org/2000/svg" xmlns:xlink="http://www.w3.org/1999/xlink" x="0px" y="0px"
	 viewBox="0 0 800 800" style="enable-background:new 0 0 800 800;" xml:space="preserve">
<style type="text/css">
	.st0{fill-rule:evenodd;clip-rule:evenodd;fill:#00583B;}
</style>
<g>
	<path class="st0" d="M372.6,316.3c-45.8,12.2-60.6,53.6-60.6,53.6c12.6-8.7,25.6-16.5,40.5-17C352.7,339.9,363,328.1,372.6,316.3z"
		/>
	<path class="st0" d="M307.7,384.7c-12.3,45.7,16.3,79.2,16.3,79.2c-1.3-15.3-1.5-30.4,5.5-43.6C318.2,413.7,313.1,399,307.7,384.7z
		"/>
	<path class="st0" d="M378,475c-11.2,6.6-26.6,3.9-41.7,1.8c34.2,32.8,77.2,24.1,77.2,24.1C399.5,494.6,386.2,487.5,378,475z"/>
	<path class="st0" d="M488.1,442.7c-12.6,8.7-25.6,16.4-40.5,17c-0.2,13-10.4,24.8-20,36.6C473.3,484.1,488.1,442.7,488.1,442.7z"/>
	<path class="st0" d="M423,339.4c11.2-6.6,26.6-3.9,41.7-1.8c-34.1-32.8-77.2-24-77.2-24C401.5,319.8,414.7,326.8,423,339.4z"/>
	<path class="st0" d="M474.3,348.3c1.7,15.3,2.3,30.3-4.4,43.7c11.3,6.4,16.8,21,22.6,35.1C503.6,381,474.3,348.3,474.3,348.3z"/>
	<path class="st0" d="M447,429.5c-7.8,7.2-18.2,11.6-29.6,11.6c-24.1,0-43.7-19.6-43.7-43.8c0-21.4,15.5-39.2,35.8-43
		c-3.3-0.6-6.8-1-10.3-1c-29.3,0-53.2,23.9-53.2,53.2c0,29.3,23.9,53.2,53.2,53.2C420.1,459.7,438.4,447.3,447,429.5z"/>
	<path class="st0" d="M405.5,366.6c-0.6,0-1.4,3.6-0.4,7.5c-4-0.9-7.6,0.1-7.5,0.7c-2.6,20.8,25.6,18.1,26.5,17.7
		C424.5,391.5,426.1,363.3,405.5,366.6z"/>
	<path class="st0" d="M454.1,374.8c0-0.5-3.5-1.5-7.5-0.7c1-4,0.2-7.5-0.4-7.5c-20.7-3.3-19,24.9-18.6,25.9
		C428.6,392.9,456.7,395.5,454.1,374.8z"/>
	<path class="st0" d="M405.5,422.1c20.7,3.3,19-24.9,18.6-25.9c-0.9-0.4-29.1-3.1-26.5,17.7c0,0.5,3.5,1.5,7.5,0.6
		C404.1,418.5,404.9,422.1,405.5,422.1z"/>
	<path class="st0" d="M454.1,413.9c2.6-20.8-25.6-18.1-26.5-17.7c-0.4,1-2.1,29.2,18.6,25.9c0.5,0,1.4-3.6,0.4-7.6
		C450.6,415.4,454.2,414.4,454.1,413.9z"/>
	<polygon class="st0" points="269.4,288.1 269.4,280.7 282.5,280.7 282.5,278.3 267,278.3 267,279.6 267,280.7 267,288.1 267,290.5 
		269.4,290.5 282.5,290.5 282.5,290.4 282.5,288.1 282.5,285.7 282.5,284.3 282.5,283.3 272.3,283.3 272.3,285.7 279.6,285.7 
		279.6,288.1 	"/>
	<path class="st0" d="M311.9,278.3L311.9,278.3h-11.2h-2.4h-0.2v12.3h2.6v-4.8h10.6v0.5v0.5v3.7h2.4v-4.3h-0.2v-0.9h-0.9v-1.2h1
		v-0.5h0.3v-3h-0.2v-2.4H311.9z M300.7,283.3v-2.7h10.8v2.7h-0.2H300.7z"/>
	<polygon class="st0" points="344,280.7 344,278.3 329.6,278.3 329.6,278.7 329.6,280.7 329.6,290.5 329.9,290.5 332.4,290.5 
		344,290.5 344,288.1 332.4,288.1 332.4,285.7 344,285.7 344,283.3 332.4,283.3 332.4,280.7 	"/>
	<polygon class="st0" points="404.3,290.5 404.3,281 404.3,280.1 404.3,278.3 392.1,278.3 392.1,281 389.7,281 389.7,290.5 
		392.1,290.5 392.1,281 401.9,281 401.9,290.5 	"/>
	<polygon class="st0" points="428.8,290.5 428.8,280.7 435.1,280.7 435.1,278.3 428.8,278.3 426.2,278.3 419.9,278.3 419.9,280.7 
		426.2,280.7 426.2,290.5 	"/>
	<polygon class="st0" points="374,280.7 374,278.3 359.7,278.3 359.7,278.7 359.7,280.7 359.7,290.5 359.9,290.5 362.4,290.5 
		374,290.5 374,288.1 362.4,288.1 362.4,285.7 374,285.7 374,283.3 362.4,283.3 362.4,280.7 	"/>
	<path class="st0" d="M732.5,593.2c-16.1-3.9-28.4-4.3-36.9-21.4c-8.4-17.1-1.2-28.9,8.2-37.4c9.4-8.4,30.6-50.1-6.7-81.7
		c-37.4-31.6-89.2-14.2-98.6,26.5c-7.6,36.3,8.6,65,13.7,73.5c4.9,8.7,54.9,108.8-6.9,94c-54.9-15.9-65.1-39.8-77.4-54.2
		c-12.3-14.5-51-72.7-128-72.7S284.3,578,272,592.5c-12.3,14.5-22.4,38.3-77.4,54.2c-61.8,14.8-11.8-85.3-6.9-94
		c5.1-8.5,21.3-37.2,13.7-73.5c-9.4-40.7-61.2-58.1-98.6-26.5c-37.4,31.6-16.1,73.3-6.7,81.7c9.4,8.4,16.6,20.2,8.2,37.4
		c-8.4,17.1-20.7,17.6-36.9,21.4c-16.1,3.9-22.2,26.3-13.7,33c8.4,6.7,2.4,18.6,2.4,18.6s10.4,0.7,5.5-17.4
		c-3.9-14.2,6.5-28.4,23.4-31.8c46-11.1,31.8-40,25.5-49.2c-6.3-9.2-16.4-41.5,4.8-66s54.9-23.1,69.9-16.4c14,8,9.6,53-13,78.1
		c-22.7,25.1-51.8,87.2-25.1,120.5c26.8,33.3,99.8-20.6,108-31.8c8.2-8.8,25.4-36.1,37.1-46.3C343,547.4,400,552,400,552
		s57-4.6,107.6,32.5c11.7,10.2,28.9,37.5,37.1,46.3c8.2,11.2,81.2,65.1,108,31.8c26.8-33.3-2.4-95.4-25.1-120.5
		c-22.7-25.1-27-70.1-13-78.1c14.9-6.7,48.7-8.2,69.9,16.4s11.1,56.9,4.8,66c-6.3,9.2-20.5,38.1,25.5,49.2
		c16.9,3.4,27.2,17.6,23.4,31.8c-4.8,18.1,5.5,17.4,5.5,17.4s-6-11.8,2.4-18.6C754.6,619.5,748.6,597.1,732.5,593.2z"/>
	<path class="st0" d="M399.5,659.6c0,0,0-0.1-0.1-0.1c0,0,0,0.1-0.1,0.1H399.5z"/>
	<path class="st0" d="M271.2,586.1c0.4-0.5,0.8-1,1.2-1.5c2.3-2.8,5-6.2,8.1-9.9c-60.9-33-62.6-109.9-62.6-109.9l0.6-300
		c91.1,87.4,270.7,87.5,361.9,0l0.6,300c0,0-1.7,76.3-61.9,109.5c3.3,3.9,6.1,7.4,8.4,10.3c0.3,0.4,0.6,0.7,0.8,1.1
		c63.5-38.7,65.3-121,65.3-121l-0.4-338c-88.9,119.7-298.8,119.6-387.6,0l-0.4,338C205.2,464.7,207.1,547.6,271.2,586.1z"/>
	<path class="st0" d="M504.7,588.2c-2.2-1.6-4.5-3.2-6.7-4.7c-11.2,4.1-79.5,24.7-98.5,54.5c-18.6-29.3-84.8-49.7-97.8-54.3
		c-2.1,1.4-4.3,2.9-6.4,4.4c-2,1.7-4.2,4-6.4,6.7c2.7,1.1,5.5,2.1,8.4,3c0,0,81,22.2,102.2,61.6c21.2-39.4,102.2-61.6,102.2-61.6
		c3.2-1,6.2-2.1,9.1-3.3C508.7,592,506.6,589.9,504.7,588.2z"/>
	<path class="st0" d="M506.1,560.2c1.5,1.5,2.9,2.9,4.3,4.3c63.7-34.7,58.9-106.2,58.8-109.5l-0.8-143.6l0,0l-0.7-124
		c-1,0.8-2,1.7-2.9,2.5c-0.4,0.3-0.8,0.7-1.2,1c-0.6,0.5-1.2,0.9-1.7,1.4c-0.5,0.4-1,0.8-1.5,1.2c-0.5,0.4-1,0.8-1.5,1.1
		c-1.1,0.9-2.3,1.7-3.4,2.5c-0.3,0.2-0.5,0.4-0.8,0.6c-0.7,0.5-1.3,0.9-2,1.4c-0.3,0.2-0.7,0.5-1,0.7c-0.7,0.5-1.4,0.9-2.1,1.4
		c-0.3,0.2-0.6,0.4-0.8,0.5c-2.4,1.6-4.8,3.1-7.2,4.5c-0.2,0.1-0.5,0.3-0.7,0.4c-0.8,0.4-1.5,0.9-2.3,1.3c-0.3,0.2-0.5,0.3-0.8,0.5
		c-2.4,1.4-4.8,2.7-7.3,3.9c-0.3,0.1-0.5,0.3-0.8,0.4c-0.7,0.4-1.4,0.7-2.1,1.1c-0.4,0.2-0.8,0.4-1.1,0.6c-0.7,0.3-1.4,0.7-2,1
		c-0.4,0.2-0.8,0.4-1.1,0.5c-1.2,0.5-2.3,1.1-3.5,1.6c-0.5,0.2-0.9,0.4-1.4,0.6c-0.6,0.3-1.2,0.5-1.8,0.8c-0.5,0.2-1,0.4-1.6,0.7
		c-0.6,0.2-1.1,0.5-1.7,0.7c-0.6,0.2-1.2,0.5-1.7,0.7c-41.1,16.3-81.7,18.5-100.6,18.5c-7.1,0-11.1-0.3-11.1-0.3s-4.1,0.3-11.1,0.3
		c-27.9,0-102.4-4.8-156.8-52l-1.5,267.6c0,3.3-4.9,75,59.1,109.6c0,0,0,0,0,0c0.8-0.8,1.5-1.6,2.3-2.4c0.3-0.3,0.7-0.7,1-1
		c6.2-6.2,13.5-12.7,22-18.7c13.9-9.9,28.7-17.1,44.3-21.6l15.4-15.4c-36.3-9.3-64.7-38.2-73.5-74.7l-60.9,60.9
		c-3.9-15.1-4.3-28.3-4-35.8c0-0.4,0-0.7,0-0.8l1.4-255.5c54.3,41.1,122.9,45.7,151,45.7c6,0,9.9-0.2,11.1-0.3
		c1.3,0.1,5.2,0.3,11.1,0.3c18,0,52.8-1.9,89.7-14.2l-49.5,49.5h2v7.3h-2.4v-6.9l-27.3,27.3c36.5,8.7,65.4,37.1,74.7,73.4l64.5-64.5
		l0.8,137.8c0,0.2,0,0.4,0,0.8c0.3,9.7-0.3,29-8.5,49.9C545.4,530,529,548.2,506.1,560.2z M462.4,290.5h-8.2v-2.4h8.2V290.5z
		 M462.4,280.7h-8.2v-2.4h8.2V280.7z M465.6,288.1h-2.4v-7.3h2.4V288.1z M489,290.5h-7.8v-1.9v-0.8v-9.5h2.4v9.5h5.4V290.5z
		 M491.9,288.4H489v-10.2h2.8V288.4z M499.7,287.8v0.8v1.9h-7.8v-2.8h5.4v-9.5h2.4V287.8z M529.9,280.1v0.9v9.5h-2.4V281h-9.7v9.5
		h-2.4V281h2.4v-2.8h12.2V280.1z"/>
	<path class="st0" d="M399.8,624.5c22.5-27.6,70.8-44.8,84.2-49.1c-2.5-1.3-5-2.5-7.5-3.6c-17.4,6.1-54.7,21-76.7,44
		c-21.9-22.8-59-37.8-76.5-43.9c-2.5,1.1-5,2.3-7.5,3.6C329.6,580,377.5,597.1,399.8,624.5z"/>
</g>
</svg>
